<svg xmlns="http://www.w3.org/2000/svg" viewBox="0 0 150 150"><title>lotus-bold</title><g id="Lotus"><path id="Bold" d="M109.4,51.34l.1-4.19-4.19.1c-.13,0-1.19,0-2.83.13a79.52,79.52,0,0,0-3-9l-1.6-3.87-3.79,1.78a76.41,76.41,0,0,0-10.54,6.1c-3-3.71-5.52-6.36-5.65-6.5l-2.89-3-2.9,3c-.13.14-2.65,2.79-5.64,6.5a76.41,76.41,0,0,0-10.54-6.1l-3.79-1.78-1.6,3.87a79.52,79.52,0,0,0-3,9c-1.69-.1-2.76-.13-2.83-.13l-4.19-.1.1,4.19c.09,3.9.87,23.66,7.53,30.31a12.12,12.12,0,0,0,2.19,1.69,74.77,74.77,0,0,0-4.81,12.07l-1.18,4,4.07,1a71.33,71.33,0,0,0,14.4,1.91h.31a71,71,0,0,0,9,11.78l2.89,3,2.9-3a71.59,71.59,0,0,0,9-11.79h.3a71.48,71.48,0,0,0,14.41-1.91l4.07-1-1.18-4a75.09,75.09,0,0,0-4.81-12.08,11.64,11.64,0,0,0,2.19-1.68C108.52,75,109.31,55.24,109.4,51.34Zm-15-3.22c-1.91.25-3.91.56-5.89,1l-.17-.26a57.34,57.34,0,0,1,5.26-3.26C93.84,46.34,94.11,47.22,94.38,48.12ZM75,44.64c1.35,1.57,3,3.59,4.66,5.79a59.35,59.35,0,0,1,3.52,5.22c2.54,4.23,2.82,6.3,2.82,7,0,3.65-5.93,9.87-11,14-5.07-4.1-11-10.3-11-14,0-.7.27-2.77,2.81-7a62.68,62.68,0,0,1,3.53-5.22C72,48.22,73.65,46.2,75,44.64Zm-18.58.91a57.15,57.15,0,0,1,5.26,3.25l-.18.28c-2-.4-4-.72-5.88-1C55.89,47.22,56.16,46.34,56.42,45.55Zm-6.11,10c2,.18,4.51.45,7.11.87A16.47,16.47,0,0,0,56,62.65c0,5.64,4.54,11.46,9,15.78a30,30,0,0,1-8.25-1A7.11,7.11,0,0,1,53.78,76c-2.73-2.73-4.39-12.5-5-20.51ZM58,86a45.24,45.24,0,0,0,6.15.48c-2.16,2.76-3.33,5.38-3.48,7.83a60.42,60.42,0,0,1-6.11-.74A52,52,0,0,1,58,86ZM80.81,96.63A40.88,40.88,0,0,1,75,105.31a41.42,41.42,0,0,1-5.83-8.71,4.93,4.93,0,0,1-.5-1.78c0-1.11,1.7-4.09,6.33-8,4.63,3.91,6.33,6.88,6.33,8A5.06,5.06,0,0,1,80.81,96.63Zm8.5-2.37c-.16-2.45-1.32-5.07-3.48-7.83A45.11,45.11,0,0,0,92,86a50.7,50.7,0,0,1,3.44,7.57A60.42,60.42,0,0,1,89.31,94.26ZM96.22,76a6.83,6.83,0,0,1-2.94,1.5,30.33,30.33,0,0,1-8.25.94c4.42-4.32,9-10.14,9-15.78a16.42,16.42,0,0,0-1.43-6.18c3.15-.51,6.25-.81,8.62-1C100.61,63.49,99,73.26,96.22,76Z"/></g></svg>