<svg xmlns="http://www.w3.org/2000/svg" viewBox="0 0 150 150"><title>dhvaja-bold</title><g id="Dhvaja"><path d="M103.52,109.51,98,99.37l.49,0h.21a4.12,4.12,0,0,0,1.1-.16A4,4,0,0,0,102.41,97a4,4,0,0,0-.14-3.44L96.76,83.06a4.5,4.5,0,0,0,1-.15,4,4,0,0,0,2.47-5.65l-8-15.92A5.3,5.3,0,0,0,93.47,60a5.1,5.1,0,0,0,2.78-1c2.17-1.53,3-4.22,1.74-6l-.1-.16L95,48.55a7.26,7.26,0,0,0,2.7-1.17,7.15,7.15,0,0,0-2.17-12.7l-1.08,3.86a3,3,0,0,1,1.66,1.17,3.17,3.17,0,0,1-.73,4.41,3.21,3.21,0,0,1-1.42.56c-.22-5.45-7.43-7.94-14.88-8.58A3.94,3.94,0,0,0,79.29,35a4.24,4.24,0,0,0-.68-2.28,4.3,4.3,0,0,0,.68-2.29c0-1.48-1.39-4.25-2.55-6.31L75,21l-1.74,3.11c-1.16,2.06-2.55,4.83-2.55,6.31a4.3,4.3,0,0,0,.68,2.29A4.24,4.24,0,0,0,70.71,35a3.94,3.94,0,0,0,.18,1.14c-7.45.64-14.67,3.13-14.88,8.58a3.26,3.26,0,0,1-1.42-.56,3.17,3.17,0,0,1-.74-4.4,3,3,0,0,1,1.67-1.18l-1.08-3.86a7.15,7.15,0,0,0-2.17,12.7A7.26,7.26,0,0,0,55,48.55l-2.86,4.3L52,53c-1.22,1.78-.45,4.48,1.73,6a5.43,5.43,0,0,0,.9.51L49.5,75.4a4,4,0,0,0,3.59,5.22h.18L49.52,91.68A4,4,0,0,0,53.1,97h.17l-3.74,10.69A4,4,0,0,0,53.1,113L72,114v8a3,3,0,0,0,6,0v-7.68l21.79,1.14h.2a4.13,4.13,0,0,0,1.11-.15,4,4,0,0,0,2.42-5.75ZM58.72,72.93l3.24-10A5.19,5.19,0,0,0,64,64.13a4.88,4.88,0,0,0,2.85.09,5.13,5.13,0,0,0,5.41.85,5.06,5.06,0,0,0,2.73.78,4.93,4.93,0,0,0,2.72-.79,5,5,0,0,0,2.82.37,5.18,5.18,0,0,0,2.6-1.21,4.69,4.69,0,0,0,1.68.14L90,74.68ZM94,55.74a1.61,1.61,0,0,1-.44.22,2,2,0,0,0-3.45,1.92,1.36,1.36,0,0,1-.59.54,1.14,1.14,0,0,1-.42.13,2,2,0,0,0-3.7,1.4,1.32,1.32,0,0,1-1,.44,2,2,0,0,0-3.87.85,1.18,1.18,0,0,1-.55.24,1,1,0,0,1-.46,0,2,2,0,0,0-4,.29,1.19,1.19,0,0,1-1,0,2,2,0,0,0-4-.29,1,1,0,0,1-.47,0,1.1,1.1,0,0,1-.54-.23,2,2,0,0,0-3.87-.85,1.31,1.31,0,0,1-.43-.06,1.21,1.21,0,0,1-.58-.38,2,2,0,0,0-3.7-1.4,1.05,1.05,0,0,1-.41-.13,1.34,1.34,0,0,1-.61-.55A2,2,0,0,0,56.48,56a1.45,1.45,0,0,1-.43-.22,1.53,1.53,0,0,1-.58-.71q1.55-2.34,3.1-4.67a14.42,14.42,0,0,0,2.33,1.21,25.78,25.78,0,0,0,4.3,1.28l.2,0a42.47,42.47,0,0,0,9.6,1,42.35,42.35,0,0,0,9.45-1l.45-.08a25.47,25.47,0,0,0,4.2-1.28,13.66,13.66,0,0,0,2.33-1.2Q93,52.68,94.53,55A1.58,1.58,0,0,1,94,55.74ZM75,43.92a33.05,33.05,0,0,1,8.5,1,33.05,33.05,0,0,1-8.5,1,33.05,33.05,0,0,1-8.5-1A33.05,33.05,0,0,1,75,43.92ZM87.45,82.55,91.91,91,58.79,89.25l2.77-8.15ZM58.84,105.27l2.74-7.86,27.08,1.45,4.43,8.19Z"/></g></svg>