<svg xmlns="http://www.w3.org/2000/svg" viewBox="0 0 150 150"><title>goldenfishes-bold</title><g id="Golden_Fishes" data-name="Golden Fishes"><path d="M61.3,96.16a2,2,0,1,0-2.79-.48A2,2,0,0,0,61.3,96.16Z"/><path d="M91,92.9a2,2,0,1,0,.48,2.78A2,2,0,0,0,91,92.9Z"/><path d="M64.08,69.33C56.2,58.18,45.05,50.51,33,47.75a32.12,32.12,0,0,1,2-4.55l2.56-1.82-2.31-3.27h0L33,34.84l-3.23,2.29,0,0-.77.55-.26.47a31.39,31.39,0,0,1-5.93,5.4,32,32,0,0,1-7.1,3.8l-.5.07-.68.48-.1.07,0,0-3.24,2.28,2.31,3.27h0l2.3,3.27,2.54-1.77h0l0,0h0a30.42,30.42,0,0,1,5-.39c-1.44,12.3,2.07,25.37,10,36.52C42,103.62,54.9,111.75,68.6,113.51l3.8.85.08-.37.37.05.47-3.86C76.24,96.67,72.89,81.8,64.08,69.33ZM39.73,86.54c-6.64-9.39-9.7-20.7-8.54-31,10.08,2.34,19.72,9,26.36,18.39s9.75,20.64,8.54,31a40.75,40.75,0,0,1-11.66-4.69l.41-2.08a4,4,0,0,0-7.29-2.91A49.64,49.64,0,0,1,39.73,86.54Z"/><path d="M136.61,53.56l2.31-3.27L135.68,48l0,0-.78-.55-.54-.08a32.34,32.34,0,0,1-13-9.22l-.24-.44-.68-.48-.09-.07,0,0-3.23-2.29-2.31,3.27h0l-2.31,3.27,2.54,1.8h0l0,0a32.12,32.12,0,0,1,2,4.55C105,50.51,93.8,58.18,85.92,69.33c-8.81,12.47-12.16,27.34-9.24,40.85l.47,3.86.37-.05.08.37,3.8-.85c13.7-1.76,26.6-9.89,35.41-22.35,7.88-11.15,11.39-24.22,10-36.52a30.42,30.42,0,0,1,5,.39l2.57,1.8,2.3-3.27Zm-26.34,33a49.64,49.64,0,0,1-7.82,8.72,4,4,0,0,0-7.29,2.91l.41,2.08a40.75,40.75,0,0,1-11.66,4.69c-1.21-10.35,1.8-21.45,8.54-31s16.28-16.05,26.36-18.39C120,65.84,116.91,77.15,110.27,86.54Z"/></g></svg>