<svg xmlns="http://www.w3.org/2000/svg" viewBox="0 0 150 150"><title>treasurevase-bold</title><g id="Treasure_Vase" data-name="Treasure Vase"><path id="Bold" d="M104.43,91.52a31.17,31.17,0,0,0,.78-15.34l-.4-2-1.8-.86A59.22,59.22,0,0,0,90.2,69l-1.07-4.75a35.17,35.17,0,0,0,8.72-3.56l1.74-1,.2-2c0-.23,0-.47,0-.7,0-7-6-12.93-14.74-15.55a12,12,0,0,0,1.74-6.2c0-6-7.43-11.69-9.71-13.28l-2.29-1.6-2.29,1.6c-2.28,1.59-9.71,7.25-9.71,13.28a11.9,11.9,0,0,0,1.74,6.2C55.8,44,49.82,49.94,49.82,57c0,.23,0,.49,0,.72l.21,2,1.73,1a35.17,35.17,0,0,0,8.72,3.56L59.44,69a59.22,59.22,0,0,0-12.81,4.33l-1.8.86-.4,2a30.56,30.56,0,0,0-.61,6.13,31.53,31.53,0,0,0,1.39,9.23,31,31,0,0,0,14.66,17.92l-6,6.06h0l-3,3L54,121.3a31,31,0,0,0,41.74,0l3.09-2.83-3-3h0l-6-6.06A31,31,0,0,0,104.43,91.52ZM88.52,76.86a65,65,0,0,1-27.4,0,64.58,64.58,0,0,1,27.4,0ZM74.82,30.31c2.16,1.9,3.92,4,4,4.92a4,4,0,0,1-8,0C70.89,34.31,72.65,32.21,74.82,30.31Zm0,17.66c8.53,0,14.85,3.44,16.55,7.09l-.13,0q-.72.31-1.5.6l-.28.09c-.52.19-1.06.37-1.61.53l-.08,0c-.57.17-1.16.32-1.75.47l-.35.08c-.58.14-1.18.26-1.79.38l-.34.06c-.62.11-1.25.21-1.9.3h0c-.65.09-1.31.16-2,.22l-.38,0c-.65.05-1.3.1-2,.13l-.38,0c-.68,0-1.38,0-2.07,0s-1.39,0-2.07,0l-.38,0c-.66,0-1.31-.08-2-.13l-.38,0c-.67-.06-1.33-.13-2-.22H68q-1-.14-1.89-.3l-.34-.06c-.61-.12-1.21-.24-1.79-.38l-.35-.08c-.6-.15-1.18-.3-1.75-.47l-.09,0c-.55-.17-1.08-.34-1.6-.52l-.29-.11c-.51-.18-1-.38-1.49-.59l-.13,0C60,51.41,66.29,48,74.82,48ZM68.38,65.75c1,.11,1.92.19,2.89.24l.38,0c1,0,2.11.08,3.17.08a59.16,59.16,0,0,0,6.44-.35l.44,2c-2.26-.21-4.55-.33-6.88-.33s-4.62.12-6.88.33Zm-5.67,52.19,5.37-5.36c.63.14,1.27.25,1.92.35l.56.08c.51.07,1,.12,1.52.17l.68,0c.61,0,1.23.07,1.84.07h.55c.56,0,1.11,0,1.67-.06l.77-.07q.69-.06,1.38-.15l.68-.09c.64-.1,1.28-.22,1.91-.36l5.37,5.37a23,23,0,0,1-24.22,0Zm18.93-13.66,0,0a23.42,23.42,0,0,1-8.52.94,22.74,22.74,0,0,1-5-.94A23,23,0,0,1,52.85,89.18a23.46,23.46,0,0,1-1-6.7,68.24,68.24,0,0,0,23,3.84,68.24,68.24,0,0,0,23-3.84,22.88,22.88,0,0,1-16.17,21.8Z"/></g></svg>