<svg xmlns="http://www.w3.org/2000/svg" viewBox="0 0 150 150"><title>endlessknot-bold</title><g id="Endless_Knot" data-name="Endless Knot"><path id="Bold" d="M108.94,92.32,125.2,76.06l-17-17L97.63,69.7,92,64l10.61-10.61-17-17L75,47.07,63.69,35.76,47.42,52,58.74,63.33,53.08,69,41.77,57.68l-17,17,17,17L64.39,69l5.66,5.66L75.71,69l-5.66-5.66L85.61,47.78l5.65,5.65-5,5-5.65-5.65L75,58.38l8.49,8.49L80.66,64,64.39,80.3l-5.65-5.65L53.08,80.3,58.74,86,47.42,97.27l17,17L87,91.62l5.66,5.65L87,102.93l-5.66-5.66-5.65,5.66L87,114.24l17-17L92.68,86,97.63,81Zm-.71-21.92,5.66,5.66-5,5-5.66-5.66ZM41.77,80.3l-5.66-5.65L41.77,69l5.65,5.66ZM64.39,57.68,58.74,52l4.95-5,5.65,5.66Zm0,45.25-5.65-5.66,5.65-5.65-2.82-2.83,8.48,8.48ZM75.71,91.62,70.05,86l5.66-5.66L81.36,86ZM87,80.3l-5.66-5.65,5-5L92,75.35Z"/></g></svg>