<svg xmlns="http://www.w3.org/2000/svg" viewBox="0 0 150 150"><title>conch-bold</title><g id="Dungkar_Yénkhyil" data-name="Dungkar Yénkhyil"><path id="Bold" d="M104,68.93c0-7-3.71-13.65-10-18.17,0-.19,0-.39,0-.58a15.83,15.83,0,0,0-7.75-13.31,9.14,9.14,0,0,0,.25-2.1c0-5.51-5.15-10-11.5-10s-11.5,4.49-11.5,10a9,9,0,0,0,.26,2.09A15.84,15.84,0,0,0,56,50.18c0,.19,0,.39,0,.58-6.33,4.52-10,11.15-10,18.17C46,77,50.88,84.2,58.32,88.55A36.62,36.62,0,0,1,66,100.38a35.13,35.13,0,0,1,2.08,20h0a4,4,0,0,0,3.9,4.81,4,4,0,0,0,2.54-.91c8.49-7,13.56-18.63,13.56-31.22,0-.91,0-1.81-.09-2.72C97.47,86.44,104,78.3,104,68.93ZM68.8,43.18a12.83,12.83,0,0,0,12.41,0c3,1.58,4.79,4.18,4.79,7a7,7,0,0,1-.19,1.59c-1,4-5.56,6.91-10.81,6.91s-9.8-2.91-10.8-6.87a7.06,7.06,0,0,1-.2-1.63C64,47.36,65.83,44.76,68.8,43.18ZM75,32.77c2.14,0,3.5,1.19,3.5,2s-1.36,2-3.5,2-3.5-1.19-3.5-2S72.87,32.77,75,32.77ZM80.06,93.1a36.12,36.12,0,0,1-3.67,16.12,45.84,45.84,0,0,0-3-11.83,47.56,47.56,0,0,0-2.21-4.68A34,34,0,0,0,80,92.56C80.05,92.74,80.06,92.92,80.06,93.1ZM75,84.93c-11.58,0-21-7.18-21-16a13.93,13.93,0,0,1,4.78-10.11c3.36,4.8,9.39,7.86,16.22,7.86s12.86-3.06,16.23-7.88A13.75,13.75,0,0,1,96,68.93C96,77.75,86.58,84.93,75,84.93Z"/></g></svg>