<svg id="Parasol" xmlns="http://www.w3.org/2000/svg" viewBox="0 0 150 150"><title>parasol-bold</title><g id="Bold"><path d="M77.14,26.16c0-1.66-3-7-3-7s-3,5.34-3,7a3,3,0,0,0,6,0Z"/><path d="M114.39,58.83q-.66,0-1.32.06a14,14,0,0,0-1.72-1.81,10.72,10.72,0,0,0,.53-13.2,10.61,10.61,0,0,0-5.76-4.07l-2.18,7.7a2.65,2.65,0,0,1,1.43,1,2.77,2.77,0,0,1-4.06,3.71,7.22,7.22,0,0,0-1.5-3,6.9,6.9,0,0,0,1.69-4.49c0-7.56-12.06-11.15-24.59-11.47a3,3,0,1,0-5.5.06C59.5,34,48.5,37.57,48.5,44.79a6.9,6.9,0,0,0,1.69,4.49,7.25,7.25,0,0,0-1.5,2.95,2.77,2.77,0,0,1-4.07-3.69,2.68,2.68,0,0,1,1.44-1l-2.18-7.7a10.77,10.77,0,0,0-7.63,12.11,10.74,10.74,0,0,0,2.4,5.16,14,14,0,0,0-1.72,1.81q-.66-.06-1.32-.06A14.3,14.3,0,0,0,32,87a16.66,16.66,0,0,0,15.24,5.17,15.83,15.83,0,0,0,12.08,5.59,16.19,16.19,0,0,0,2.41-.18A23.81,23.81,0,0,0,72,101.39v26.45a3,3,0,0,0,6,0V101.39a23.81,23.81,0,0,0,10.24-3.84,16.19,16.19,0,0,0,2.41.18,15.83,15.83,0,0,0,12.08-5.59A16.64,16.64,0,0,0,118,87a14.3,14.3,0,0,0-3.57-28.14ZM75,56.29c6.41,0,12.84-.84,17.76-2.62l.19.12a9.79,9.79,0,0,1-2,1,26.06,26.06,0,0,1-4.43,1.33,42.54,42.54,0,0,1-4.61.77c-1.45.17-3,.28-4.69.34-1.49.08-3,.06-4.57,0s-3.17-.17-4.61-.34a43.56,43.56,0,0,1-4.64-.77A27.39,27.39,0,0,1,59,54.81a10.57,10.57,0,0,1-2-1l.19-.12C62.16,55.45,68.59,56.29,75,56.29Zm0-15c9.77,0,15.94,2.14,18,3.5-2,1.36-8.21,3.5-18,3.5s-15.94-2.14-18-3.5C59.06,43.43,65.23,41.29,75,41.29Zm39.39,38.13a6.11,6.11,0,0,1-.86,0,8.66,8.66,0,0,1-15.15,1,7.75,7.75,0,0,1,.14,1.45,7.87,7.87,0,0,1-7.87,7.87,7.71,7.71,0,0,1-4.12-1.17,15.73,15.73,0,0,1-23.06,0,7.71,7.71,0,0,1-4.12,1.17,7.87,7.87,0,0,1-7.87-7.87,7.75,7.75,0,0,1,.14-1.45,8.66,8.66,0,0,1-15.15-1,6.11,6.11,0,0,1-.86,0,6.3,6.3,0,1,1,4.15-11,8.17,8.17,0,0,1,2.15-1,6.3,6.3,0,0,1,6.29-6h.07c-.42.63-.84,1.25-1.25,1.88-.75,1.09-.06,3.09,1.61,4.27s3.55,1,4.12-.21c-.6,1.2.32,3,2.1,3.93s3.59.41,4-.89c-.44,1.29.68,3,2.54,3.54s3.58-.16,3.82-1.51l0-.14h0l0,.14c-.28,1.34,1,2.82,2.93,3.11,1.75.27,3.23-.57,3.52-1.78h.08a3.46,3.46,0,0,0,6.52,0h.08c.29,1.21,1.77,2,3.52,1.78,1.9-.3,3.2-1.77,2.93-3.11.24,1.35,2,2.11,3.82,1.51s3-2.25,2.54-3.54c.41,1.3,2.22,1.78,4,.89s2.69-2.73,2.09-3.93c.57,1.22,2.45,1.39,4.13.21s2.36-3.18,1.61-4.27c-.41-.63-.83-1.25-1.25-1.88h.07a6.3,6.3,0,0,1,6.29,6,8.17,8.17,0,0,1,2.15,1,6.29,6.29,0,1,1,4.15,11Z"/></g></svg>