<svg id="Symbols" xmlns="http://www.w3.org/2000/svg" viewBox="0 0 150 150"><defs><style>.cls-1{fill:none;}</style></defs><title>auspicemaria-bold</title><polygon class="cls-1" points="49.32 65.65 70.44 20.25 28.33 20.25 49.32 65.65"/><polygon class="cls-1" points="100.28 65.51 121.35 20.25 79.26 20.25 100.28 65.51"/><polygon class="cls-1" points="121.81 38.22 104.68 75 121.81 111.89 121.81 38.22"/><polygon class="cls-1" points="74.85 29.74 55.66 71 94 71 74.85 29.74"/><polygon class="cls-1" points="79.38 129.37 121.1 129.37 100.27 84.49 79.38 129.37"/><polygon class="cls-1" points="28.51 129.37 69.97 129.37 49.3 84.67 28.51 129.37"/><polygon class="cls-1" points="94 79 55.5 79 74.68 120.5 94 79"/><polygon class="cls-1" points="27.81 38.18 27.81 111.91 44.9 75.15 27.81 38.18"/><path d="M49.3,84.67,70,129.37h9.41l20.89-44.88,20.83,44.88h8.71V20.24h-8.46L100.28,65.51l-21-45.27H70.44L49.32,65.65l-21-45.41H19.81V129.37h8.7Zm72.51-46.45v73.67L104.68,75Zm-47-8.48L94,71H55.66ZM94,79,74.68,120.5,55.5,79ZM27.81,38.18l17.09,37L27.81,111.91Z"/></svg>