<svg id="Symbols" xmlns="http://www.w3.org/2000/svg" viewBox="0 0 150 150"><title>environment-bold</title><path d="M75,25a50,50,0,1,0,50,50A50.06,50.06,0,0,0,75,25Zm0,92a42,42,0,1,1,42-42A42,42,0,0,1,75,117Z"/><path d="M75,37a38,38,0,1,0,38,38A38,38,0,0,0,75,37Zm0,72a34,34,0,1,1,34-34A34,34,0,0,1,75,109Z"/><path d="M75,51A24,24,0,1,0,99,75,24,24,0,0,0,75,51Zm0,44A20,20,0,1,1,95,75,20,20,0,0,1,75,95Z"/><path d="M75,60A15,15,0,1,0,90,75,15,15,0,0,0,75,60Zm0,26A11,11,0,1,1,86,75,11,11,0,0,1,75,86Z"/><path d="M75,66a9,9,0,1,0,9,9A9,9,0,0,0,75,66Zm0,14a5,5,0,1,1,5-5A5,5,0,0,1,75,80Z"/></svg>