<svg id="Livello_27" data-name="Livello 27" xmlns="http://www.w3.org/2000/svg" viewBox="0 0 150 150"><title>immortality-bold</title><polygon points="39.65 104.7 45.3 110.36 75 80.66 104.7 110.36 110.36 104.7 80.66 75 110.36 45.3 104.7 39.65 75 69.34 45.3 39.65 39.65 45.3 69.34 75 39.65 104.7"/><polygon points="110.09 52.27 87.35 75 110.09 97.73 112.91 94.91 93.01 75 112.91 55.09 110.09 52.27"/><polygon points="39.91 97.73 62.65 75 39.91 52.27 37.09 55.09 56.99 75 37.09 94.91 39.91 97.73"/><polygon points="77 118.2 77 93.2 81 93.2 75 83.2 69 93.2 73 93.2 73 118.2 77 118.2"/><polygon points="75 66.8 81 56.8 77 56.8 77 31.8 73 31.8 73 56.8 69 56.8 75 66.8"/></svg>