<svg id="Symbols" xmlns="http://www.w3.org/2000/svg" viewBox="0 0 150 150"><title>charity-bold</title><path d="M113.44,79.48a33.76,33.76,0,0,0-9.92-24.05l-6.13-6.12L91.74,55l6.12,6.12a26.11,26.11,0,0,1,2.61,33.72L80,74.35a34,34,0,0,0-2.66-45.08l-6.12-6.12L65.57,28.8l6.13,6.13A26,26,0,0,1,34.93,71.7L28.8,65.57l-5.65,5.66,6.12,6.12A34.07,34.07,0,0,0,74.35,80l20.46,20.46a26.11,26.11,0,0,1-33.72-2.61L55,91.74l-5.66,5.65,6.12,6.13a34.1,34.1,0,0,0,45.09,2.65l20.68,20.68,5.65-5.65-20.68-20.68A33.74,33.74,0,0,0,113.44,79.48Z"/></svg>