<svg id="Symbols" xmlns="http://www.w3.org/2000/svg" viewBox="0 0 150 150"><title>connectionwithnature-bold</title><path d="M75,25a50,50,0,1,0,50,50A50.06,50.06,0,0,0,75,25Zm0,92a42,42,0,1,1,42-42A42,42,0,0,1,75,117Z"/><path d="M75,48a27,27,0,1,0,27,27A27,27,0,0,0,75,48Zm0,50A23,23,0,1,1,98,75,23,23,0,0,1,75,98Z"/><path d="M75,58A17,17,0,1,0,92,75,17,17,0,0,0,75,58Zm0,30A13,13,0,1,1,88,75,13,13,0,0,1,75,88Z"/><path d="M75,66a9,9,0,1,0,9,9A9,9,0,0,0,75,66Zm0,14a5,5,0,1,1,5-5A5,5,0,0,1,75,80Z"/></svg>