<svg id="Symbols" xmlns="http://www.w3.org/2000/svg" viewBox="0 0 150 150"><title>prophecy-bold</title><path d="M72,73a12,12,0,0,0-8-11.3V29H56V61.7a12,12,0,0,0,0,22.6V99.7a12,12,0,1,0,8,0V84.3A12,12,0,0,0,72,73Zm-4,0a8,8,0,0,1-4,6.92V66.08A8,8,0,0,1,68,73ZM52,73a8,8,0,0,1,4-6.92V79.92A8,8,0,0,1,52,73Zm16,38a8,8,0,1,1-8-8A8,8,0,0,1,68,111Z"/><path d="M102,73a12,12,0,0,0-8-11.3V29H86V61.7a12,12,0,0,0,0,22.6V99.7a12,12,0,1,0,8,0V84.3A12,12,0,0,0,102,73Zm-4,0a8,8,0,0,1-4,6.92V66.08A8,8,0,0,1,98,73ZM82,73a8,8,0,0,1,4-6.92V79.92A8,8,0,0,1,82,73Zm16,38a8,8,0,1,1-8-8A8,8,0,0,1,98,111Z"/></svg>