<svg id="Symbols" xmlns="http://www.w3.org/2000/svg" viewBox="0 0 150 150"><title>healing-bold</title><path d="M100.78,71.55l12.41-12.4-5.66-5.66L94.89,66.13a33.89,33.89,0,0,0-39.78,0L42.47,53.49l-5.66,5.66,12.41,12.4a33.83,33.83,0,0,0-8,18.13H25v8H125v-8H108.76A33.83,33.83,0,0,0,100.78,71.55Zm-.09,18.13h-18L95.11,77.22A25.82,25.82,0,0,1,100.69,89.68ZM75,67.68a25.85,25.85,0,0,1,14.14,4.2L75,86,60.86,71.88A25.85,25.85,0,0,1,75,67.68ZM54.89,77.22,67.34,89.68h-18A25.82,25.82,0,0,1,54.89,77.22Z"/></svg>