<svg id="Livello_27" data-name="Livello 27" xmlns="http://www.w3.org/2000/svg" viewBox="0 0 150 150"><title>wisdom-bold</title><path d="M117.44,34.29c-.52.19-2.45-.37-3.48-.67-3.09-.9-7.75-2.25-11.37,1.36s-2.26,8.29-1.37,11.37c.3,1,.86,3,.66,3.5-.52.19-2.45-.37-3.48-.67-3.09-.9-7.75-2.25-11.37,1.36s-2.27,8.29-1.37,11.37c.3,1,.86,3,.65,3.5-.51.19-2.44-.37-3.48-.67-3.08-.9-7.75-2.25-11.37,1.37s-2.26,8.28-1.37,11.37c.3,1,.86,3,.65,3.49-.51.2-2.44-.37-3.48-.67-3.08-.89-7.75-2.24-11.37,1.37S53.63,90,54.52,93c.3,1,.86,3,.65,3.51-.52.19-2.45-.37-3.48-.67C48.63,95,44,93.66,40.4,97.17l-6.78-6.78-6.71,27,27-6.72-7.8-7.8a13.14,13.14,0,0,1,3.35.69,19.73,19.73,0,0,0,5.48,1,8,8,0,0,0,5.89-2.38c3.62-3.62,2.27-8.28,1.38-11.37-.3-1-.86-3-.65-3.5.51-.19,2.44.37,3.48.67,3.08.89,7.75,2.25,11.37-1.37s2.26-8.28,1.37-11.37c-.3-1-.86-3-.66-3.5.52-.19,2.45.37,3.48.67,3.09.9,7.76,2.25,11.37-1.37s2.27-8.28,1.37-11.37c-.3-1-.86-3-.65-3.49.52-.19,2.44.37,3.48.67,3.08.9,7.75,2.25,11.37-1.37s2.26-8.28,1.36-11.37c-.3-1-.85-2.95-.65-3.49.52-.19,2.44.37,3.48.67,3.08.9,7.75,2.25,11.36-1.36Z"/></svg>