<svg id="Symbols" xmlns="http://www.w3.org/2000/svg" viewBox="0 0 150 150"><title>fertility-bold</title><path d="M105.45,58.35a49.66,49.66,0,0,0-22.84-9.77A50.07,50.07,0,0,0,52.17,53.5a49.46,49.46,0,0,0-7.6,4.83A50,50,0,0,0,25,98h8a42,42,0,0,1,5-19.86V98h4V72c.34-.44.69-.86,1-1.28.63-.74,1.29-1.44,2-2.12V98h4V65l.45-.37c.82-.63,1.67-1.23,2.55-1.81V98h4V60.53q1.48-.75,3-1.38V98h4V57.75c1-.29,2-.55,3-.77V98h4V56.3c1-.12,2-.2,3-.25V98h4V56.05c1,.05,2,.13,3,.25V98h4V57c1,.22,2,.48,3,.77V98h4V59.15q1.52.63,3,1.38V98h4V62.87c.89.58,1.75,1.18,2.57,1.82L101,65V98h4V68.63c.67.68,1.33,1.38,2,2.12.35.42.7.84,1,1.28V98h4V78.14A42,42,0,0,1,117,98h8a49.93,49.93,0,0,0-19.55-39.65Z"/></svg>