<svg id="Symbols" xmlns="http://www.w3.org/2000/svg" viewBox="0 0 150 150"><title>futuredecisions-bold</title><rect x="29" y="104" width="8" height="4"/><rect x="43" y="104" width="8" height="4"/><rect x="57" y="104" width="8" height="4"/><polygon points="79 106 79 104 79 34 71 34 71 104 71 106 71 108 79 108 79 106"/><rect x="85" y="104" width="8" height="4"/><rect x="99" y="104" width="8" height="4"/><rect x="113" y="104" width="8" height="4"/><rect x="37.5" y="114" width="6.52" height="4"/><rect x="48.91" y="114" width="6.52" height="4"/><rect x="60.33" y="114" width="6.52" height="4"/><rect x="71.74" y="114" width="6.52" height="4"/><rect x="83.15" y="114" width="6.52" height="4"/><rect x="94.57" y="114" width="6.52" height="4"/><rect x="105.98" y="114" width="6.52" height="4"/></svg>