<svg id="Livello_27" data-name="Livello 27" xmlns="http://www.w3.org/2000/svg" viewBox="0 0 150 150"><title>acceleration-bold</title><path d="M30.21,72.68H31a9,9,0,0,1,2.74.46,12.42,12.42,0,0,1,2.8,1.62,11.09,11.09,0,0,0,4.22,1.79l.64.1a4.76,4.76,0,0,0,.58.06l.5,0h.63a11.72,11.72,0,0,0,2.46-.22,13.22,13.22,0,0,0,4.54-2,9.52,9.52,0,0,1,1.64-.81,5.71,5.71,0,0,1,1.59-.33,7,7,0,0,1,1,0c.22,0,.59,0,.88.05a6.59,6.59,0,0,1,1.67.38,7.22,7.22,0,0,1,1.56.83c.57.37,1.25.86,2.08,1.33a11.29,11.29,0,0,0,4.32,1.39c.5.06.8.06,1.22.1h.81c.24,0,.47,0,.72,0a10.94,10.94,0,0,0,1.48-.2,10.75,10.75,0,0,0,2.87-1c.87-.43,1.58-.9,2.16-1.23a6.49,6.49,0,0,1,1.53-.67,5.93,5.93,0,0,1,.73-.16l.34,0a1.68,1.68,0,0,1,.38,0h.86s.15,0-.09,0H78a5.19,5.19,0,0,1,.83.08,6.19,6.19,0,0,1,2.82,1.24,13.92,13.92,0,0,0,4.81,2.35A9.61,9.61,0,0,0,88,78l.37,0,.26,0,.52,0h1.38c.42,0,.89-.08,1.33-.12a12.89,12.89,0,0,0,4.88-1.81c.61-.37,1.06-.64,1.47-.85a4.9,4.9,0,0,1,1-.4,4.37,4.37,0,0,1,.92-.15,7.09,7.09,0,0,1,1.21,0,5,5,0,0,1,1.82.37,8.22,8.22,0,0,1,1.55.89A23,23,0,0,0,107,77.47a13,13,0,0,0,4.51,1.31l.34,0V89L130.5,75,111.83,61v9.84a4.86,4.86,0,0,1-1.45-.35,14.16,14.16,0,0,1-1.61-.88,15,15,0,0,0-3.17-1.51,12.73,12.73,0,0,0-4.13-.61h-.62l-.41,0-.41,0-.61.07A12,12,0,0,0,97,68.2a12.86,12.86,0,0,0-2.25,1c-.65.39-1.24.8-1.68,1.1a6,6,0,0,1-2.31,1.07,4.44,4.44,0,0,1-.68.1l-.37,0-.18,0h-.89l-.14,0a3.36,3.36,0,0,1-.58-.07A7.77,7.77,0,0,1,85,70.15a15.77,15.77,0,0,0-2.47-1.23,11.87,11.87,0,0,0-2.94-.66,11.44,11.44,0,0,0-1.42-.07h-.47l-.29,0-.56,0c-.42,0-1.06.13-1.55.22a13.75,13.75,0,0,0-1.48.43,11.67,11.67,0,0,0-2.62,1.32c-.74.48-1.31.89-1.81,1.18A5.16,5.16,0,0,1,67.9,72a6.62,6.62,0,0,1-.82.16c-.14,0-.3,0-.45,0H66.2c-.11,0,.11,0,.08,0-.37,0-.84,0-1.11,0a5.48,5.48,0,0,1-.76-.1,5.27,5.27,0,0,1-1.57-.52c-.54-.26-1.15-.65-1.9-1.08a11.17,11.17,0,0,0-2.59-1.16,10.83,10.83,0,0,0-2.81-.48c-.48,0-.86,0-1.4,0A11.34,11.34,0,0,0,52.9,69a10.61,10.61,0,0,0-2.75.74A14.33,14.33,0,0,0,47.89,71a9.76,9.76,0,0,1-3.18,1.68A8.1,8.1,0,0,1,43,73h-.16s-.1,0,.05,0h-.8a2.54,2.54,0,0,1-.43,0l-.36,0a7.43,7.43,0,0,1-3-1.1A15.25,15.25,0,0,0,34.74,70a11.71,11.71,0,0,0-3.87-.43l-.79.06-.93.13a9.41,9.41,0,0,0-1.66.47,12.32,12.32,0,0,0-2.63,1.4,20.71,20.71,0,0,1-1.78,1.14,7.76,7.76,0,0,1-2.58.79l-1,.08v2.37s.43,0,1.23,0a10.43,10.43,0,0,0,3.5-.87c1.44-.65,2.74-1.73,4.2-2.16a6.51,6.51,0,0,1,1.18-.25Z"/></svg>