<svg id="Symbols" xmlns="http://www.w3.org/2000/svg" viewBox="0 0 150 150"><title>forgiveness-bold</title><path d="M121,63.5h-9.78a38,38,0,0,0-72.44,0H29v8h8.17C37.06,72.65,37,73.82,37,75s.06,2.35.17,3.5H29v8h9.78a38,38,0,0,0,72.44,0H121v-8h-8.17c.11-1.15.17-2.32.17-3.5s-.06-2.35-.17-3.5H121ZM75,41a34.05,34.05,0,0,1,32,22.5H43A34.05,34.05,0,0,1,75,41Zm0,68A34.05,34.05,0,0,1,43,86.5h64A34.05,34.05,0,0,1,75,109Zm34-34a33.75,33.75,0,0,1-.18,3.5H41.18a34.12,34.12,0,0,1,0-7h67.64A33.75,33.75,0,0,1,109,75Z"/></svg>