<svg id="Layer_2" data-name="Layer 2" xmlns="http://www.w3.org/2000/svg" viewBox="0 0 150 150"><title>tortoiseprotection-bold</title><polygon points="50.86 90.04 46.63 90.04 46.63 87.92 43.24 87.92 43.24 85.79 39.01 85.79 39.01 83.67 35.62 83.67 35.62 81.54 31.39 81.54 31.39 79.42 28 79.42 28 70.92 31.39 70.92 31.39 68.79 35.62 68.79 35.62 66.67 39.01 66.67 39.01 64.54 43.24 64.54 43.24 62.42 46.63 62.42 46.63 60.29 50.86 60.29 50.86 58.17 52.78 58.17 52.78 50.17 42.86 50.17 42.86 52.29 38.63 52.29 38.63 54.42 35.24 54.42 35.24 56.54 31.01 56.54 31.01 58.67 27.62 58.67 27.62 60.79 23.39 60.79 23.39 62.92 20 62.92 20 87.42 23.39 87.42 23.39 89.54 27.62 89.54 27.62 91.67 31.01 91.67 31.01 93.79 35.24 93.79 35.24 95.92 38.63 95.92 38.63 98.04 42.86 98.04 42.86 100.17 52.78 100.17 52.78 92.17 50.86 92.17 50.86 90.04"/><polygon points="126.61 62.92 126.61 60.79 122.38 60.79 122.38 58.67 118.99 58.67 118.99 56.54 114.76 56.54 114.76 54.42 111.38 54.42 111.38 52.29 107.14 52.29 107.14 50.17 97.22 50.17 97.22 58.17 99.14 58.17 99.14 60.29 103.38 60.29 103.38 62.42 106.76 62.42 106.76 64.54 110.99 64.54 110.99 66.67 114.38 66.67 114.38 68.79 118.61 68.79 118.61 70.92 122 70.92 122 79.42 118.61 79.42 118.61 81.54 114.38 81.54 114.38 83.67 110.99 83.67 110.99 85.79 106.76 85.79 106.76 87.92 103.38 87.92 103.38 90.04 99.14 90.04 99.14 92.17 97.22 92.17 97.22 100.17 107.14 100.17 107.14 98.04 111.38 98.04 111.38 95.92 114.76 95.92 114.76 93.79 118.99 93.79 118.99 91.67 122.38 91.67 122.38 89.54 126.61 89.54 126.61 87.42 130 87.42 130 62.92 126.61 62.92"/><path d="M98.17,84.38h4.23V82.25h3.38V67.75H102.4V65.62H98.17V63.5H94.78V61.38H90.55V59.25H87.16V57.12H82.93V55H77.12V49.73H90L74.85,33.1,59.7,49.73H73.13V55H67.07v2.12H62.84v2.13H59.45v2.13H55.22V63.5H51.83v2.12H47.6v2.13H44.22v14.5H47.6v2.13h4.23V86.5h3.39v2.12h4.23v2.13h3.39v2.13h4.23V95h6v5.94H59.7l15.15,16.63L90,100.94H77.1V95h5.83V92.88h4.23V90.75h3.39V88.62h4.23V86.5h3.39ZM70.63,42.06H79.4v4.38H70.63Zm8.77,66.55H70.63v-4.38H79.4ZM78.93,59v2.12h4.23v2.13h3.39v2.13h4.23V67.5h3.39v2.12H98.4v2.13h3.38V73H89.38l-6-3.47-2,3.46H77.11V59ZM51.6,71.75V69.62h4.23V67.5h3.39V65.38h4.23V63.25h3.39V61.12h4.23V59h2.05V73H68.84l-2-3.46-6,3.47H48.22V71.75ZM71.07,91V88.88H66.84V86.75H63.45V84.62H59.22V82.5H55.83V80.38H51.6V78.25H48.22V77h12.6l6,3.47,2-3.46h4.27V91Zm23.1-10.62V82.5H90.78v2.12H86.55v2.13H83.16v2.13H78.93V91H77.1V77h4.25l2,3.46,6-3.47h12.4v1.25H98.4v2.13Z"/></svg>