<svg id="Layer_2" data-name="Layer 2" xmlns="http://www.w3.org/2000/svg" viewBox="0 0 150 150"><title>shamantothesky-bold</title><path d="M105.62,41.12l-5.37,5.93A36.69,36.69,0,1,1,41.66,60.68l-7.43-3a44.62,44.62,0,1,0,71.39-16.59Z"/><path d="M51.07,79.51A25,25,0,1,1,80.16,99.59l1.45,7.87A33,33,0,1,0,43.2,81Z"/><path d="M75.66,19a56,56,0,1,0,56,56A56.06,56.06,0,0,0,75.66,19Zm0,104a48,48,0,1,1,48-48A48.05,48.05,0,0,1,75.66,123Z"/><path d="M61,86a4,4,0,0,0,3.25-6.32c.76.18,1.65,1.44,2,2.25l1.36-.61L69,80.71c-.16-.35-1.58-3.42-4.14-4a2.63,2.63,0,0,0-.42-.07,2.26,2.26,0,0,1,.58-.34,3.7,3.7,0,0,1,3,.45l1.36-2.68a6.54,6.54,0,0,0-5.46-.56,6.24,6.24,0,0,0-3,2.82,6.3,6.3,0,0,0-3.05-2.82,6.51,6.51,0,0,0-5.45.56l1.35,2.68a3.7,3.7,0,0,1,3-.45,2.26,2.26,0,0,1,.58.34,2.33,2.33,0,0,0-.41.07c-2.56.54-4,3.61-4.14,4l2.74,1.22c.31-.7,1.22-2.08,2-2.25a.55.55,0,0,1,.24,0A4,4,0,0,0,61,86Z"/><path d="M62,87.57c-5-.65-4.79,13.49-4.79,13.49L61,95.5c5,.65,5,7.72,5,7.72,6.6-4.18,1.43-10.91,1.43-10.91l5,.65S67,88.22,62,87.57Z"/><path d="M90.44,80.55A7.61,7.61,0,1,0,79.68,69.79l-.07.08L90.36,80.63Z"/><circle cx="67" cy="57" r="1"/><circle cx="79" cy="60" r="1"/><circle cx="90" cy="61" r="1"/><circle cx="66" cy="68" r="1"/><circle cx="76" cy="75" r="1"/></svg>