<svg id="Layer_2" data-name="Layer 2" xmlns="http://www.w3.org/2000/svg" viewBox="0 0 150 150"><title>universalwheel-bold</title><path d="M131,75a56,56,0,1,0-92,42.88A23.58,23.58,0,0,0,47,133a72,72,0,0,0,.13-9.46q2.32,1.33,4.78,2.46a23.27,23.27,0,0,0,10.32,11.86,71,71,0,0,0-1.63-8.75,55.9,55.9,0,0,0,28.75,0,70.78,70.78,0,0,0-1.63,8.73A23.24,23.24,0,0,0,98,126q2.46-1.11,4.78-2.45A70.31,70.31,0,0,0,103,133a23.59,23.59,0,0,0,8-15.08A55.91,55.91,0,0,0,131,75Zm-8.18-4H103.29A25,25,0,0,0,79,50V27.18A48.06,48.06,0,0,1,122.82,71ZM71,79V98.73A25,25,0,0,1,54.18,79ZM54.18,71A25,25,0,0,1,71,51.27V71ZM79,79H96.82A25,25,0,0,1,79,99Zm0-8V51A25,25,0,0,1,96.82,71ZM71,27.18V50A25,25,0,0,0,47.71,71H27.18A48.06,48.06,0,0,1,71,27.18ZM49.73,106.73a40.79,40.79,0,0,0-.2,8.93c-1.26-.8-2.48-1.64-3.66-2.54A40.55,40.55,0,0,0,41,100a40,40,0,0,0-1.75,7A47.83,47.83,0,0,1,27.18,79H47.71A25,25,0,0,0,71,100v22.86a47.45,47.45,0,0,1-13.4-3.1A41.87,41.87,0,0,0,49.73,106.73Zm50.69,9a40.78,40.78,0,0,0-.19-9,41.8,41.8,0,0,0-7.88,13A47.51,47.51,0,0,1,79,122.82V100a25,25,0,0,0,24.29-21h19.53a47.83,47.83,0,0,1-12.11,28,39.45,39.45,0,0,0-1.75-7,40.57,40.57,0,0,0-4.89,13.16Q102.32,114.51,100.42,115.69Z"/></svg>