<svg id="Layer_2" data-name="Layer 2" xmlns="http://www.w3.org/2000/svg" viewBox="0 0 150 150"><title>bear-bold</title><path d="M64.74,41.62c15.16,0,29.19,7.44,39.94,15.47A3,3,0,0,1,107,56a3.35,3.35,0,0,1,.76.09,3.08,3.08,0,0,1,1.76,4.76,130.29,130.29,0,0,1,12.84,12.33,1.22,1.22,0,0,1-.86,2.07,1.68,1.68,0,0,1-.64-.17A42.19,42.19,0,0,0,104.09,72c-5.33,0-8.63-3.7-12.13-7.62-3.76-4.22-7.65-8.59-14.25-8.59A12.37,12.37,0,0,0,65.35,68.1,10.24,10.24,0,0,0,75.58,78.33a10.6,10.6,0,0,0,1.11-.06,7.89,7.89,0,0,0,5.1-2.74c5.15-6,.94-12.9-4.85-12.9a4.52,4.52,0,0,0-.52,0,5.84,5.84,0,0,0-4.33,2.49c-3,4.21,0,8.78,4,8.78a4.58,4.58,0,0,0,.64,0,3.87,3.87,0,0,0,1.89-.79,4.54,4.54,0,0,0,2-4.16c.41,1.67-.33,3.77-3,5.38a3.79,3.79,0,0,1-2,.57h0A6.79,6.79,0,0,1,68.8,68.1a8.92,8.92,0,0,1,8.91-8.91c5.05,0,8.27,3.61,11.67,7.44,3.67,4.11,7.83,8.78,14.71,8.78,7.07,0,13.33,1.88,15.62,3a1,1,0,0,1,.54.88,1,1,0,0,1-1,1h-1.55c-14.86,0-17,10.38-17.28,19.38a17.41,17.41,0,0,0,3.1,9.83H91.42s-1.25-9.08-4.28-13.23C83,90.66,77,87.53,71.33,87.53A13.37,13.37,0,0,0,63.39,90c-5.64,4.12-7.07,12-4,19.47H48.44c-9.81-8-19.53-20.83-19.53-34.46C28.91,58.2,39.43,47,52.64,43.28a44.47,44.47,0,0,1,12.1-1.66m0-8a53.09,53.09,0,0,0-14.26,2c-18,5-29.57,20.52-29.57,39.47,0,13.92,8.4,29.12,22.45,40.65l2.22,1.81H71.25l-4.48-11c-1.7-4.15-1.16-8.16,1.34-10a5.3,5.3,0,0,1,3.22-1c3.25,0,6.92,2.15,9.35,5.48,1.07,1.47,2.34,6.26,2.82,9.63l1,6.88h34.28L110.13,105a9.38,9.38,0,0,1-1.7-5.19c.36-9.75,2.75-11.49,9.28-11.49h1.55a9,9,0,0,0,8.93-7.94,9.21,9.21,0,0,0,0-12.61A134.74,134.74,0,0,0,118,57.63a11.13,11.13,0,0,0-.25-1.28,11,11,0,0,0-8.1-8A11.13,11.13,0,0,0,107,48a10.14,10.14,0,0,0-1.1.06C92,38.49,78.13,33.62,64.74,33.62Z"/></svg>