<svg id="Layer_2" data-name="Layer 2" xmlns="http://www.w3.org/2000/svg" viewBox="0 0 150 150"><title>thunderbird-bold</title><path d="M84.69,37A2,2,0,0,1,84,35.49V19H73c-17,0-18.81,9.37-19,10.43l-.77,5.41L58.66,34c2.28-.39,7.65-1,8.2,1.37a1.38,1.38,0,0,1-.22,1.14,2.13,2.13,0,0,1-.54.54H19v64H36V86H48V74H60V61h5.56l-7.41,70.4,7.74-12.8,9.61,11.7,9.61-11.7,7.74,12.8L85.44,61H90V74h12V86h12v15h17V37ZM52,50V66H51V59H40V78H39V71H28V93H27V45H53.34A11.15,11.15,0,0,0,52,50ZM81.15,96.6l-5.1-8.41,3.65-5.33ZM71.3,82.86,75,88.19l-5.1,8.41Zm4.2,34.84-5.22-6.35,5.22-8.62,5.22,8.62ZM76.56,53l2.52,24H71.92l2.52-24H60V50s.07-3.71,6.47-4.74A11.44,11.44,0,0,0,67.63,45H68v-.11a10.17,10.17,0,0,0,5.28-4,9.62,9.62,0,0,0-3.43-13.77A29.85,29.85,0,0,1,73,27h3v8.49a10.12,10.12,0,0,0,6,9.18V45h.82a11.83,11.83,0,0,0,1.36.38c5.25,1.06,5.77,4,5.82,4.7V53ZM123,93h-1V71H111v7h-1V59H99v7H98V50a11.18,11.18,0,0,0-1.35-5H123Z"/></svg>