<svg id="Layer_2" data-name="Layer 2" xmlns="http://www.w3.org/2000/svg" viewBox="0 0 150 150"><title>medicinewheel4huts-bold</title><polygon points="29.79 71.92 29.79 78.58 34.46 75.58 41.21 79.91 41.21 70.59 34.46 74.92 29.79 71.92"/><polygon points="34.67 70.25 34.67 74.1 37.67 72.17 34.67 70.25"/><polygon points="34.67 80.25 37.67 78.33 34.67 76.4 34.67 80.25"/><path d="M75,19a56,56,0,1,0,56,56A56.06,56.06,0,0,0,75,19Zm0,104a48,48,0,1,1,48-48A48.05,48.05,0,0,1,75,123Z"/><path d="M83.53,77.8a2.76,2.76,0,1,0,1,3.77A2.75,2.75,0,0,0,83.53,77.8Z"/><path d="M66.47,72.2a2.76,2.76,0,1,0-1-3.77A2.75,2.75,0,0,0,66.47,72.2Z"/><path d="M79.75,71.2a2.76,2.76,0,1,0,1-3.77A2.76,2.76,0,0,0,79.75,71.2Z"/><path d="M70.25,78.8a2.76,2.76,0,1,0-1,3.77A2.76,2.76,0,0,0,70.25,78.8Z"/><path d="M54,51.77a2.75,2.75,0,1,0,3.78,1A2.75,2.75,0,0,0,54,51.77Z"/><path d="M92.9,92.75a2.76,2.76,0,1,0,3.77,1A2.76,2.76,0,0,0,92.9,92.75Z"/><path d="M52.94,91.37a2.76,2.76,0,1,0,3.77,1A2.76,2.76,0,0,0,52.94,91.37Z"/><path d="M96.38,57.55a2.76,2.76,0,1,0-3.77-1A2.77,2.77,0,0,0,96.38,57.55Z"/><path d="M75.37,64A2.76,2.76,0,1,0,78,66.83,2.76,2.76,0,0,0,75.37,64Z"/><path d="M77.48,83.35A2.76,2.76,0,1,0,74.63,86,2.75,2.75,0,0,0,77.48,83.35Z"/><circle cx="103.24" cy="75" r="2.76"/><path d="M97.73,73.62A1.38,1.38,0,1,0,99.11,75,1.37,1.37,0,0,0,97.73,73.62Z"/><path d="M93.6,76.38A1.38,1.38,0,1,0,92.22,75,1.38,1.38,0,0,0,93.6,76.38Z"/><path d="M89.47,73.62A1.38,1.38,0,1,0,90.84,75,1.38,1.38,0,0,0,89.47,73.62Z"/><circle cx="46.76" cy="75" r="2.76"/><path d="M53.64,75a1.38,1.38,0,1,0-1.37,1.38A1.37,1.37,0,0,0,53.64,75Z"/><path d="M56.4,73.62A1.38,1.38,0,1,0,57.78,75,1.38,1.38,0,0,0,56.4,73.62Z"/><path d="M60.53,73.62A1.38,1.38,0,1,0,61.91,75,1.37,1.37,0,0,0,60.53,73.62Z"/><path d="M77.76,46.76A2.76,2.76,0,1,0,75,49.51,2.76,2.76,0,0,0,77.76,46.76Z"/><path d="M75,50.89a1.38,1.38,0,1,0,1.38,1.38A1.38,1.38,0,0,0,75,50.89Z"/><path d="M75,55a1.38,1.38,0,1,0,1.38,1.38A1.38,1.38,0,0,0,75,55Z"/><circle cx="75" cy="60.53" r="1.38"/><path d="M75,106a2.76,2.76,0,1,0-2.76-2.76A2.76,2.76,0,0,0,75,106Z"/><path d="M75,96.36a1.38,1.38,0,1,0,1.38,1.37A1.37,1.37,0,0,0,75,96.36Z"/><circle cx="75" cy="93.6" r="1.38"/><circle cx="75" cy="89.47" r="1.38"/><polygon points="115.54 74.92 108.79 70.59 108.79 79.91 115.54 75.58 120.21 78.58 120.21 71.92 115.54 74.92"/><polygon points="115.33 70.25 112.33 72.17 115.33 74.1 115.33 70.25"/><polygon points="115.33 80.25 115.33 76.4 112.33 78.33 115.33 80.25"/><polygon points="70.34 41.46 79.66 41.46 75.33 34.71 78.33 30.04 71.67 30.04 74.67 34.71 70.34 41.46"/><polygon points="78.08 37.92 80 34.92 76.15 34.92 78.08 37.92"/><polygon points="73.85 34.92 70 34.92 71.92 37.92 73.85 34.92"/><polygon points="79.66 109.04 70.34 109.04 74.67 115.79 71.67 120.46 78.33 120.46 75.33 115.79 79.66 109.04"/><polygon points="76.15 115.58 80 115.58 78.08 112.58 76.15 115.58"/><polygon points="71.92 112.58 70 115.58 73.85 115.58 71.92 112.58"/></svg>