<svg id="Layer_2" data-name="Layer 2" xmlns="http://www.w3.org/2000/svg" viewBox="0 0 150 150"><title>forkedtree-bold</title><path d="M110.86,20A19.13,19.13,0,0,0,92.4,44.07L74.93,56.85,56.61,43.92a18.84,18.84,0,0,0,.64-4.81A19.12,19.12,0,1,0,44.74,57L62.47,76.55V130h25V76.55L105,57.29A19.11,19.11,0,1,0,110.86,20ZM38.14,50.22A11.11,11.11,0,1,1,49.23,38.71L42.42,33.9l-9.81,9.8,5.91,6.5ZM79.47,73.45V122h-9V73.45L45.21,45.67,75,66.7l31.2-22.81.07.07Zm32-23.26,5.9-6.49L107,33.39l-7.25,5.3a11.1,11.1,0,1,1,11.66,11.5Z"/></svg>