<svg id="Layer_2" data-name="Layer 2" xmlns="http://www.w3.org/2000/svg" viewBox="0 0 150 150"><title>medicinearrows-bold</title><path d="M75,19a56,56,0,1,0,56,56A56.06,56.06,0,0,0,75,19Zm8.81,103.18V110.87L79,107.1V86H71v14.72l0,0v6.18l-5,4v11.27A48.12,48.12,0,0,1,27.82,83.81H38.93L42.74,79H64v1.2L73,75l-9-5.2V71H42.89l-4-5H27.86A48.12,48.12,0,0,1,66,27.86V38.93l5,4v6.18l0,0V64H69.85L75,73l5.2-9H79V42.71l4.77-3.78V27.82A48.12,48.12,0,0,1,122.14,66H110.87l-4,5H86V69.8L77,75l9,5.2V79h21.06l3.81,4.81h11.31A48.14,48.14,0,0,1,83.81,122.18Z"/><polygon points="69.85 86.05 80.24 86.05 75.05 77.05 69.85 86.05"/></svg>