<svg id="Layer_2" data-name="Layer 2" xmlns="http://www.w3.org/2000/svg" viewBox="0 0 150 150"><title>personalmedicinewheel-bold</title><path d="M75,131a56,56,0,1,1,56-56A56.06,56.06,0,0,1,75,131ZM75,27a48,48,0,1,0,48,48A48.05,48.05,0,0,0,75,27Z"/><circle cx="85.35" cy="81.07" r="4"/><circle cx="64.65" cy="68.93" r="4"/><circle cx="85.34" cy="68.91" r="4"/><circle cx="64.66" cy="81.09" r="4"/><circle cx="109.45" cy="52.56" r="4"/><circle cx="40.08" cy="96.38" r="4"/><circle cx="95.68" cy="39.17" r="4"/><circle cx="53.85" cy="109.77" r="4"/><circle cx="52.85" cy="39.78" r="4"/><circle cx="96.67" cy="109.16" r="4"/><circle cx="39.47" cy="53.55" r="4"/><circle cx="110.06" cy="95.38" r="4"/><circle cx="75.4" cy="63.01" r="4"/><circle cx="74.6" cy="86.99" r="4"/><circle cx="116" cy="75" r="4"/><circle cx="108" cy="75" r="2"/><circle cx="102" cy="75" r="2"/><circle cx="96" cy="75" r="2"/><circle cx="34" cy="75" r="4"/><circle cx="42" cy="75" r="2"/><circle cx="48" cy="75" r="2"/><circle cx="54" cy="75" r="2"/><circle cx="75" cy="34" r="4"/><circle cx="75" cy="42" r="2"/><circle cx="75" cy="48" r="2"/><circle cx="75" cy="54" r="2"/><circle cx="75" cy="116" r="4"/><circle cx="75" cy="108" r="2"/><circle cx="75" cy="102" r="2"/><circle cx="75" cy="96" r="2"/></svg>