<svg id="Layer_2" data-name="Layer 2" xmlns="http://www.w3.org/2000/svg" viewBox="0 0 150 150"><title>haokah-bold</title><path d="M115.64,58.35,111.41,58c-1-7-6.64-14-16.78-20.86l-2.9-2L90.39,57l-12,4.77a19.55,19.55,0,0,0-6.92-5.45L74.23,37s-5.26-.88-9.64,6.13c0,0-4.39-6.13-9.65-5.26l3.78,17.68a34.72,34.72,0,0,0-11.53,5.92l-5.73-5.73-2.83,2.83L47,67l1.41-1.28s.52-.46,1.36-1.1c.58,4.4,3.18,12.27,11.35,26.06,4.08,6.88,5.25,13.11,3.49,18.51-2.66,8.15-11.23,11.9-11.31,11.93l1.56,3.68c.41-.17,10.28-4.45,13.53-14.32,2.16-6.56.87-13.91-3.83-21.84-10.69-18-11-24.88-10.89-26.59a23.72,23.72,0,0,1,9.28-3.14,79.66,79.66,0,0,0,7,18.62,33,33,0,0,0,2.47,10.26c5.82,14.14,5.89,25.91.21,34l3.27,2.29c5.78-8.25,6.47-19.49,2.11-32.73,2,3.1,4.33,6.35,6.94,9.76l-2,3.51,7,7.74,4-7.08-3.45-3.83-2.32,2.08,1.57-2.76-.82-1a147.29,147.29,0,0,1-15-23.35,23.46,23.46,0,0,1,2.24-11l0,0L77,66.64l13.08-5.21L88.68,84.87l1.49-.64L95,91.14v12.13l12.87-9.68-9.31-4.33-4.74-6.75c4.93-2.58,16.55-9.75,17.66-20.49l3.73.31a4.12,4.12,0,0,0,.73.9,5,5,0,0,0,2.75,1.19,5.83,5.83,0,0,0,.59,0,4.81,4.81,0,0,0,2.36-.59,3.39,3.39,0,0,0,.62-5.66,5.13,5.13,0,0,0-5.7-.62A3.57,3.57,0,0,0,115.64,58.35Zm-46.95-16a1.76,1.76,0,1,1-1.76,1.75A1.76,1.76,0,0,1,68.69,42.39Zm-5.42,6.92H65.9a1.32,1.32,0,0,1,0,2.63H63.27a1.32,1.32,0,0,1,0-2.63Zm-2.79-6.92a1.76,1.76,0,1,1-1.75,1.75A1.76,1.76,0,0,1,60.48,42.39Zm6.63,16.7a13.44,13.44,0,0,1,6.12,3.16,26.18,26.18,0,0,0-2.68,7A70.56,70.56,0,0,1,67.11,59.09Zm33.05,35.32L99,95.26V93.88ZM95.29,42.5c6.9,5.15,10.92,10.22,12,15.15L94.42,56.57Zm-2.2,35.86,1.09-17.79,13.34,1.11C106.63,69.72,97.84,75.69,93.09,78.36Z"/><path d="M33.79,40.85l-2.9,2.74c.22.25,5.17,5.79,1.17,15.49l-3.62-1.59,1.28,11.63,9.44-6.92-3.44-1.51C40.82,48.47,34.1,41.17,33.79,40.85Z"/><path d="M126.42,32H116a2.58,2.58,0,0,1-1.75-.68L102.74,20.68A2.58,2.58,0,0,0,101,20H50a2.58,2.58,0,0,0-2.54,3A2.58,2.58,0,0,1,45,26H22.58A2.57,2.57,0,0,0,20,28.58v74.58a2.52,2.52,0,0,0,.5,1.52l17.73,24.26A2.56,2.56,0,0,0,40.31,130h69.51a2.57,2.57,0,0,0,2-.9l16.61-19.38a2.56,2.56,0,0,0,.62-1.67V34.58A2.57,2.57,0,0,0,126.42,32ZM125,107.52,109.16,126H41L24,102.69V30H45a6.58,6.58,0,0,0,6.55-6h48.93l11.11,10.26A6.56,6.56,0,0,0,116,36h9Z"/></svg>