<svg id="Layer_2" data-name="Layer 2" xmlns="http://www.w3.org/2000/svg" viewBox="0 0 150 150"><title>wakan-bold</title><path d="M88.08,98.92A23,23,0,0,0,98,80c0-12.9-9.66-23-22-23-4.86,0-11,2.58-16.24,6.74a18.55,18.55,0,0,0,1.12-12.41c0-.07.07-.14.11-.2a8.09,8.09,0,0,0,1-5.3,8,8,0,0,0-2.54-4.75l-.25-.25v-.07c0-.11.11-.21.16-.31a8.1,8.1,0,0,0-1.54-10l-.25-.25v-.07c.05-.11.11-.21.16-.31a8,8,0,0,0,1-5.29l-7.9,1.3a.39.39,0,0,1,0-.14,3.73,3.73,0,0,1-.2.4,8.1,8.1,0,0,0,1.54,10c.08.08.17.16.25.25v.07c0,.11-.11.21-.16.31a8.1,8.1,0,0,0,1.54,10c.08.09.17.16.25.25v.08c0,.11-.11.21-.16.31a8,8,0,0,0-1,5.29H53c2.62,10.41-7.41,14-9.26,14.58a14,14,0,0,0,4.54,27.63,6,6,0,1,1,1.82,11.86l1.22,7.91a14,14,0,0,0,10.88-8.72c-.08.39-.16.78-.27,1.17-2.49,8.56-8.64,14.66-18.27,18.13l2.7,7.52c15.17-5.46,21-15.75,23.25-23.42a23,23,0,0,0-2.45-18A21.85,21.85,0,0,1,65,83.48c-.39-2.93-3-3.74-6.22-4.76l-.4-.12c2-7,12-13.6,17.65-13.6,8,0,14,6.45,14,15a15,15,0,0,1-6.62,12.44l-.32.25c-.18.15-17.42,15,.82,37.81l6.24-5C77.46,109.67,86.52,100.33,88.08,98.92ZM47.05,87a6,6,0,1,1-1.82-11.86l.46-.1a26.56,26.56,0,0,0,7-3.38A18.47,18.47,0,0,0,50,81c0,3.37,3.09,4.34,6.37,5.36l1,.31a34.11,34.11,0,0,0,.75,3.38c-.22-.17-.42-.35-.65-.52A13.9,13.9,0,0,0,47.05,87Z"/><path d="M62.9,34.62c.47.54.47.54.54,1s.06.43-.22,1.09a9.48,9.48,0,0,0,1.61,10.49c.47.55.47.55.54,1s.06.43-.23,1.09a9.23,9.23,0,0,0-.79,5.49l7.91-1.21c-.06-.43-.06-.43.22-1.09a9.53,9.53,0,0,0-1.61-10.49c-.47-.55-.47-.55-.54-1s-.06-.42.22-1.08a9.48,9.48,0,0,0-1.61-10.49c-.47-.54-.47-.54-.53-1s-.07-.42.22-1.08a9.23,9.23,0,0,0,.79-5.49L61.51,23c.07.43.07.43-.22,1.09A9.53,9.53,0,0,0,62.9,34.62Z"/><path d="M73.61,31.63c.42.47.42.47.47.79s0,.32-.21.89a9.13,9.13,0,0,0,1.59,10.36c.42.47.42.47.47.79s0,.32-.21.89a8.84,8.84,0,0,0-.84,5.44l7.91-1.22c-.05-.32-.05-.32.21-.89a9.13,9.13,0,0,0-1.59-10.36c-.42-.47-.42-.47-.47-.8s0-.32.21-.89a9.09,9.09,0,0,0-1.6-10.35c-.41-.47-.41-.47-.46-.79s0-.32.21-.89a8.79,8.79,0,0,0,.84-5.43l-7.91,1.22c0,.32,0,.32-.21.89a9.11,9.11,0,0,0,1.59,10.35Z"/><path d="M84.61,27.63c.42.47.42.47.47.79s0,.32-.21.89a9.13,9.13,0,0,0,1.59,10.36c.42.47.42.47.47.79s0,.32-.21.89a8.84,8.84,0,0,0-.84,5.44l7.91-1.22c-.05-.32-.05-.32.21-.89a9.13,9.13,0,0,0-1.59-10.36c-.42-.47-.42-.47-.47-.8s0-.32.21-.89a9.09,9.09,0,0,0-1.6-10.35c-.41-.47-.41-.47-.46-.79s0-.32.21-.89a8.79,8.79,0,0,0,.84-5.43l-7.91,1.22c0,.32,0,.32-.21.89a9.11,9.11,0,0,0,1.59,10.35Z"/><path d="M79.49,75.86l1-1.72c-4.37-2.62-7.77-3.42-10.08-2.34a4.35,4.35,0,0,0-2.42,3l2,.34a2.39,2.39,0,0,1,1-1.43,1.5,1.5,0,0,0,3-.25v0A18.36,18.36,0,0,1,79.49,75.86Z"/></svg>