<svg id="Layer_2" data-name="Layer 2" xmlns="http://www.w3.org/2000/svg" viewBox="0 0 150 150"><title>manitou-bold</title><polygon points="28 52 20 52 20 107 49.96 107 49.96 99 28 99 28 52"/><path d="M88,84.75v-8H67.58a15.14,15.14,0,1,0,13.34,8ZM74.71,91.87a7.13,7.13,0,1,1-7.13-7.12A7.14,7.14,0,0,1,74.71,91.87Z"/><path d="M102.35,51.71H88v8h14.37a19.65,19.65,0,1,1,0,39.29H88v8h14.37a27.65,27.65,0,1,0,0-55.29Z"/><path d="M96.33,47.65a9.56,9.56,0,1,0-9.57-9.56A9.57,9.57,0,0,0,96.33,47.65Zm0-11.12a1.56,1.56,0,1,1-1.57,1.56A1.56,1.56,0,0,1,96.33,36.53Z"/></svg>