<svg id="Layer_2" data-name="Layer 2" xmlns="http://www.w3.org/2000/svg" viewBox="0 0 150 150"><title>dreamcatcher-bold</title><path d="M108.93,53A34,34,0,1,0,59.07,83.06l-1.5,10.68-2.92-.44-1.19,7.91,3,.45,0,.22A15.76,15.76,0,0,0,52,110.29,16,16,0,0,0,54.09,120l1.26,2,1.78-1.59a16.07,16.07,0,0,0,4.75-8.7h0A15.51,15.51,0,0,0,60.3,103l.11-.77,2.94.44,1.19-7.91-3-.45,1.34-9.56a33.7,33.7,0,0,0,10.06,2.16V102H70v8h2.93v2.33a15.68,15.68,0,0,0-3,8.67,15.87,15.87,0,0,0,3.47,9.28l1.53,1.84,1.53-1.84A16,16,0,0,0,79.93,121a15.68,15.68,0,0,0-3-8.67V110H80v-8H76.93V86.94A33.7,33.7,0,0,0,87,84.78l1.34,9.58-2.87.43,1.19,7.91,2.8-.42.1.75A15.52,15.52,0,0,0,88,111.71a16,16,0,0,0,4.75,8.7L94.5,122l1.26-2a15.93,15.93,0,0,0,2.12-9.68,15.87,15.87,0,0,0-4.45-8.41l0-.2,3.14-.47L95.35,93.3l-3.06.46-1.51-10.7A34,34,0,0,0,108.93,53Zm-60,0a26,26,0,1,1,26,26A26,26,0,0,1,48.93,53Z"/><path d="M97.93,53a23,23,0,1,0-23,23A23,23,0,0,0,97.93,53ZM60.2,55.83a14.1,14.1,0,0,0,5.2,1.62A14,14,0,0,0,63,62,14.91,14.91,0,0,1,60.2,55.83ZM62.74,44.3a14.22,14.22,0,0,0,2.66,5.25A14.16,14.16,0,0,0,60,51.26,14.88,14.88,0,0,1,62.74,44.3Zm27.08,7a14.16,14.16,0,0,0-5.36-1.71,14.34,14.34,0,0,0,2.66-5.26A15,15,0,0,1,89.82,51.26ZM86.9,62a13.8,13.8,0,0,0-2.44-4.54,14,14,0,0,0,5.19-1.62A14.91,14.91,0,0,1,86.9,62ZM70.33,60.92a12.2,12.2,0,0,1-5.68,3l-.12-.11a12.1,12.1,0,0,1,3-5.69,9.3,9.3,0,0,1,.9-.78,14.69,14.69,0,0,0,4.13-1.42A14.69,14.69,0,0,0,71.11,60,8.15,8.15,0,0,1,70.33,60.92Zm.78-14a14.69,14.69,0,0,0,1.42,4.13,14.69,14.69,0,0,0-4.13-1.42,9.3,9.3,0,0,1-.9-.78,12.2,12.2,0,0,1-3-5.84,12.27,12.27,0,0,1,5.84,3A8.15,8.15,0,0,1,71.11,47Zm1.82-2a12.24,12.24,0,0,1,2-6.26,12.24,12.24,0,0,1,2,6.26,9.39,9.39,0,0,1-.09,1.19,14.52,14.52,0,0,0-1.91,3.92A14.28,14.28,0,0,0,73,46.19,9.39,9.39,0,0,1,72.93,45Zm6.59,1.08a12.26,12.26,0,0,1,5.85-3,12.32,12.32,0,0,1-3,5.84,8.24,8.24,0,0,1-.9.78,14.91,14.91,0,0,0-4.13,1.42A14.37,14.37,0,0,0,78.75,47,9.27,9.27,0,0,1,79.52,46.08Zm3.91,9.42a9.25,9.25,0,0,1-1.19-.09,14.52,14.52,0,0,0-3.92-1.91,14.52,14.52,0,0,0,3.92-1.91,9.25,9.25,0,0,1,1.19-.09,12.3,12.3,0,0,1,6.26,2A12.3,12.3,0,0,1,83.43,55.5Zm-17-4a9.1,9.1,0,0,1,1.18.09,14.56,14.56,0,0,0,3.93,1.91,14.56,14.56,0,0,0-3.93,1.91,9.1,9.1,0,0,1-1.18.09,12.31,12.31,0,0,1-6.27-2A12.28,12.28,0,0,1,66.43,51.5Zm10.89,4.4a14.87,14.87,0,0,0,4.14,1.42,9.2,9.2,0,0,1,.89.78,12.23,12.23,0,0,1,3,5.69l-.13.11a12.1,12.1,0,0,1-5.68-3,9.27,9.27,0,0,1-.77-.89A14.37,14.37,0,0,0,77.32,55.9ZM78.88,63a13.91,13.91,0,0,0,4.43,2.41,14.85,14.85,0,0,1-5.82,2.32A13.71,13.71,0,0,0,78.88,63Zm0-19.06a14.6,14.6,0,0,0-2-5.82,14.86,14.86,0,0,1,7.35,3.13A14.24,14.24,0,0,0,78.88,44ZM71,44a14.24,14.24,0,0,0-5.38-2.69A14.78,14.78,0,0,1,73,38.15,14.3,14.3,0,0,0,71,44ZM71,63a13.94,13.94,0,0,0,1.38,4.73,14.8,14.8,0,0,1-5.81-2.32A14,14,0,0,0,71,63Zm2-1A9.39,9.39,0,0,1,73,60.81a14.28,14.28,0,0,0,1.92-3.92,14.52,14.52,0,0,0,1.91,3.92A9.39,9.39,0,0,1,76.93,62a12.09,12.09,0,0,1-1.84,6h-.32A12,12,0,0,1,72.93,62Z"/></svg>