<svg id="Layer_2" data-name="Layer 2" xmlns="http://www.w3.org/2000/svg" viewBox="0 0 150 150"><title>spider-bold</title><path d="M55.41,75,75.07,94.66,94.73,75,75.07,55.34Zm19.66,8.34L66.73,75l8.34-8.34L83.41,75Z"/><polygon points="74.57 69 74.57 74 69.57 74 69.57 75 74.57 75 74.57 80 75.57 80 75.57 75 80.57 75 80.57 74 75.57 74 75.57 69 74.57 69"/><path d="M122.1,74.5V88.07H99.82a27.9,27.9,0,0,0-1.93-29.26L119.1,37.66V20h-8V34.34L92.37,53a28,28,0,0,0-11.26-5.35L90,20,75,30.14,60,20l8.9,27.69a28,28,0,0,0-10.6,4.9L40,34.34V20H32V37.66L52.65,58.25a27.92,27.92,0,0,0-2.33,29.82H28V74.5H20V96.07H56.66a27.91,27.91,0,0,0,9.51,5.47L60,130l15-15,15,15-6.16-28.42a27.75,27.75,0,0,0,9.64-5.51H130.1V74.5ZM75,40.91l5.62,6.65a27.9,27.9,0,0,0-11.27,0Zm.07,72L70.14,108l4.93-4.93L80,108Zm0-17.93a20,20,0,1,1,20-20A20,20,0,0,1,75.07,95Z"/></svg>