<svg id="Layer_2" data-name="Layer 2" xmlns="http://www.w3.org/2000/svg" viewBox="0 0 150 150"><title>tortoise-bold </title><path d="M75,19.88A55.12,55.12,0,1,0,130.12,75,55.19,55.19,0,0,0,75,19.88Zm0,102.24A47.12,47.12,0,1,1,122.12,75,47.18,47.18,0,0,1,75,122.12Z"/><path d="M108.11,49.28a3.45,3.45,0,0,0,.77-5.6,6,6,0,0,0-7.31-.66,68.82,68.82,0,0,0-6.19,4.91A33.62,33.62,0,0,0,81.3,41.7a8,8,0,1,0-12.59,0,33.58,33.58,0,0,0-13.46,5.74c-.21.15-.41.32-.62.48A67.79,67.79,0,0,0,48.44,43a6,6,0,0,0-7.31.66,3.46,3.46,0,0,0,.77,5.6A62.83,62.83,0,0,1,48.44,54l-.11.13A33.85,33.85,0,0,0,51.71,99.6a68.61,68.61,0,0,0-3.84,7.22,6,6,0,0,0,2,7.07,3.46,3.46,0,0,0,5.37-1.79,62.73,62.73,0,0,1,3.45-7.4,33.62,33.62,0,0,0,12.41,4L75,121l3.91-12.33a33.62,33.62,0,0,0,12.41-4,62.73,62.73,0,0,1,3.45,7.4,3.46,3.46,0,0,0,5.37,1.79,6,6,0,0,0,2-7.07,68.61,68.61,0,0,0-3.84-7.22A33.81,33.81,0,0,0,101.55,54,63.84,63.84,0,0,1,108.11,49.28ZM79,49.41A25.94,25.94,0,0,1,100.59,71H79Zm-8,0V71H49.41A25.93,25.93,0,0,1,71,49.41ZM49.41,79H71v21.59A25.94,25.94,0,0,1,49.41,79ZM79,100.59V79h21.59A25.94,25.94,0,0,1,79,100.59Z"/></svg>