<svg id="Outline" xmlns="http://www.w3.org/2000/svg" viewBox="0 0 120 120"><path d="M81.62,54h0a16.55,16.55,0,0,0,13,6.52h3.61c7.5,0,13.61-6.46,13.61-14.4V23.48c0-8-6.15-14.52-13.71-14.52H94.1C85.9,9,79.22,16,79.22,24.72V37.38H76.38L72.76,27.5c-.06-.52-.15-1.45-.19-2.24h4.29a2,2,0,0,0,0-4h-5a11.05,11.05,0,0,0-.52-1.16l3.92-3.32a2,2,0,1,0-2.59-3.05L68.79,17A11.92,11.92,0,0,0,67,15.73l2.19-4.15a2,2,0,1,0-3.54-1.86l-2.39,4.53a17.06,17.06,0,0,0-2.95-.43V9.71a2,2,0,0,0-4,0v4.63h0a8.89,8.89,0,0,0-3.55,2.11A2.18,2.18,0,0,0,52,17L42.8,18.44l-.06,0-.21.05-.18.06a1.4,1.4,0,0,0-.17.09l-.17.09-.15.12-.15.13-.12.14a1.83,1.83,0,0,0-.13.16l0,.06s0,.07-.05.1a1.74,1.74,0,0,0-.1.19l-.06.18c0,.06,0,.13-.05.19l0,.2c0,.06,0,.12,0,.18a1.5,1.5,0,0,0,0,.22v.11a.19.19,0,0,1,0,.07c0,.06,0,.11,0,.17a1.07,1.07,0,0,0,.07.19,1,1,0,0,0,.07.15,1,1,0,0,0,.1.18l.09.13.15.17.1.11.21.16s0,0,.07.05l5.58,3.46-4.5,3.69a2,2,0,0,0,1.15,3.54l6.93.4L50.57,35h0L34,39.66c-.08-4.86-.25-14.95-.25-16.47a2.94,2.94,0,0,0-3-2.87l-.24,0a4.49,4.49,0,0,0-3.69.93,4.85,4.85,0,0,0-1.44,2.87c-2.13,0-5.61-.05-8,0l-.09-10.58c4.17-.09,4.56.62,5,1.42.14.24.28.47.44.71a6.19,6.19,0,0,0,5.61,2.41,6.44,6.44,0,0,0,5.5-3.36,2.91,2.91,0,0,1,2.62-1.42h0a1.93,1.93,0,0,1,1.69.71,2.11,2.11,0,0,0,.57.69l1.95,1.52A2,2,0,1,0,43.12,13l-1.64-1.29a5.9,5.9,0,0,0-5-2.48h0a6.82,6.82,0,0,0-6.19,3.61,2.61,2.61,0,0,1-2.18,1.18,2.42,2.42,0,0,1-2-.66l-.31-.5c-1.56-2.64-3.46-3.74-10.62-3.3a2,2,0,0,0-1.87,2l.11,13.12C8.58,28.9,9.84,35.89,10.37,38a4.94,4.94,0,0,0,2.7,3.11l.06,7.51a2,2,0,0,0,2,2h0a2,2,0,0,0,2-2l-.06-7,.45,0c.29,0,.57,0,.85,0l-.05,5.65a9.11,9.11,0,0,0,3,7.22,10.49,10.49,0,0,0,8.6,2.11l9.67-1.39L40,56.32a2,2,0,0,0,.09.22L45.74,68c-4,3.18-6.6,10.11-6.63,17.79a19.87,19.87,0,0,0,.86,6,2,2,0,0,0,1.52,1.4c1,.21,2,.4,3,.57l1.1.16a4.22,4.22,0,0,1-3.88,2.29,6.28,6.28,0,0,1-4.56-1.95.6.6,0,0,0-.09-.13,4.65,4.65,0,0,1-.6-2.61l.3-14L36.87,72V70.55a9.58,9.58,0,0,0-2.92-7,10.08,10.08,0,0,0-7.13-2.89H21.67c-2,.05-4,1.4-6,4.12a1.08,1.08,0,0,0-.08.13h0l-.35.3a6.77,6.77,0,0,1-2.87,1,17.72,17.72,0,0,0-2.54.67A2.91,2.91,0,0,0,7.9,70.17C8.16,72.08,10,74.38,12,74.5a17.34,17.34,0,0,0,2.16,0H20.9a1,1,0,0,1,.7.29.87.87,0,0,1,.26.64.94.94,0,0,1-1,.9H16.55A3.48,3.48,0,0,0,14,77.65a8.29,8.29,0,0,0-2.14,5.51,2.25,2.25,0,0,0,2.22,2.09l6.89,0-.11,7a2.13,2.13,0,0,0,0,.27h0c0,.1,0,.21,0,.33a3.91,3.91,0,0,0,0,.51c.74,16,12.75,17.91,21.76,17.91a20.11,20.11,0,0,0,4.84-.59l.46-.12a19,19,0,0,0,10.28-7,19.31,19.31,0,0,0,1.12-1.76A17.5,17.5,0,0,0,60.7,104,18.92,18.92,0,0,0,71,111l.47.12a20.11,20.11,0,0,0,4.84.59c9,0,21-1.87,21.76-17.9a4.07,4.07,0,0,0,0-.52c0-.11,0-.22,0-.33h0a2.45,2.45,0,0,0,0-.27l-.11-7,6.89,0A2.25,2.25,0,0,0,107,83.57a8.26,8.26,0,0,0-2.14-5.51,3.46,3.46,0,0,0-2.54-1.26H98a1,1,0,0,1-1-.9.87.87,0,0,1,.26-.64A1,1,0,0,1,98,75h6.73a15.39,15.39,0,0,0,2.15,0c2-.12,3.86-2.42,4.12-4.32a2.91,2.91,0,0,0-2-3.29,19.4,19.4,0,0,0-2.53-.67,6.64,6.64,0,0,1-2.88-1l-.3-.25a1.47,1.47,0,0,1-.13-.17c-2-2.73-4-4.08-6-4.13h-5.1A10.13,10.13,0,0,0,85,63.92,9.61,9.61,0,0,0,82,71l.39,21a4.93,4.93,0,0,1-.55,2.59h0a1.33,1.33,0,0,0-.14.19c-.7,1-2.83,2-4.56,2a4.18,4.18,0,0,1-4-2.61l1.64-.25h.08c1-.16,2-.35,2.91-.54h0v0a2,2,0,0,0,1.53-1.38,22.27,22.27,0,0,0,1-5.6,25.41,25.41,0,0,0-2-10.93,20.4,20.4,0,0,0-5.56-7.76l-.08-.06L78.87,54Zm1.6-29.3C83.22,18.24,88.1,13,94.1,13h4.06c5.35,0,9.71,4.72,9.71,10.52V46.14c0,5.73-4.31,10.4-9.61,10.4H94.59A12.37,12.37,0,0,1,87.23,54c.44,0,.9-.11,1.37-.2h.11c7-1.19,12.5-6.83,12.38-12.59V32.05A8,8,0,0,0,102.76,31h2.75a2,2,0,1,0,0-4h-.32a8.93,8.93,0,0,0,.22-1.91l.07-.75a3.53,3.53,0,0,0-.18-1.37.14.14,0,0,0,0-.06,2.81,2.81,0,0,0-.75-2.1c-1.29-1.39-3.93-1.44-5.08-1.39L92,19.32a.87.87,0,0,0-.23,0,6.1,6.1,0,0,0-5.61,5.32l0,.29,0,1.91h-.59a2,2,0,0,0,0,4h.55v6a.53.53,0,0,1-.57.5H83.22Zm10.55,2.09a2,2,0,0,0-2-1.58,2.06,2.06,0,0,0-.42,0,2,2,0,0,0-1.25.87v-1a2.08,2.08,0,0,1,1.95-1.85l7.37.07h.11a8,8,0,0,1,1.74.11c0,.22.1.41.14.56s0,0,0,.06l-.06.68a.91.91,0,0,0,0,.17,3.92,3.92,0,0,1-3.73,4C96.05,29.11,94.13,28.51,93.77,26.81ZM59.15,25a8.45,8.45,0,0,0-1.83-6.25,3.64,3.64,0,0,0-.34-.34,4.84,4.84,0,0,1,.61-.24,6.19,6.19,0,0,1,1.23-.33c3.18-.17,9.28,1.09,9.73,7,0,1.37.25,3.37.26,3.46a2.18,2.18,0,0,0,.11.44l4.44,12.11-6-1.52a2,2,0,0,0-2,.64l-3.58,4.25-3.3-4.19a2,2,0,0,0-1.57-.77,2.3,2.3,0,0,0-.63.1l-3.53,1.17,3.1-8.25A10.39,10.39,0,0,0,59.15,25Zm-7-1.32-3.4-2.1,4.13-.66.36.07h.19a1.31,1.31,0,0,1,1,.45,4.71,4.71,0,0,1,.78,3.33,6.28,6.28,0,0,1-2,4.57l-3.47-.2,2.71-2.22a2,2,0,0,0-.21-3.25ZM16.31,37.57h-.42l-.41,0a1.6,1.6,0,0,0-.44,0l-.18,0a1.46,1.46,0,0,1-.61-.52c-.31-1.26-1-4.82.37-7.57a5,5,0,0,0,3.71,1.63,3.77,3.77,0,0,1,3.57,1.73,3,3,0,0,1-.25,3.07C20.7,37.28,18.75,37.88,16.31,37.57ZM42.85,52.42a2,2,0,0,0-.61-.94A2,2,0,0,0,40.65,51L29.31,52.63a6.49,6.49,0,0,1-5.37-1.18,5.14,5.14,0,0,1-1.62-4.13l.07-6.85a7.48,7.48,0,0,0,2.54-2.27,7,7,0,0,0,.52-7.2,6.81,6.81,0,0,0-3-2.92c2.48,0,4.63.05,4.67.05a2,2,0,0,0,1.43-.58,2,2,0,0,0,.6-1.42,4.67,4.67,0,0,1,.26-1.89h.29c.05,4.21.27,17.46.28,18.08a2,2,0,0,0,2.55,1.89L48.82,39.6l-1.25,3.34a2,2,0,0,0,2.5,2.61l6.16-2,4,5a2,2,0,0,0,1.54.76h0a2,2,0,0,0,1.53-.71l4.36-5.17,8.41,2.16A2,2,0,0,0,78.42,43l-.58-1.58h7.67a4.54,4.54,0,0,0,4.57-4.5v-6h1.57A7.73,7.73,0,0,0,97.09,33v8.25C97.17,45,92.9,49,88,49.83h-.07a9.19,9.19,0,0,1-1.2.18h-8.9a2,2,0,0,0-1.53.72l-.58.68a1.4,1.4,0,0,0-.1.16.94.94,0,0,0-.09.12,1.81,1.81,0,0,0-.16.35L69.14,65.77a6.34,6.34,0,0,0-2.75.16h0a6.72,6.72,0,0,0-1.95.88,6.54,6.54,0,0,0-2.15,2.35,1.86,1.86,0,0,0-.41.77,2.72,2.72,0,0,1-.37.39,2.94,2.94,0,0,1-3.45.17,2.55,2.55,0,0,1-.81-.86,6.68,6.68,0,0,0-3.57-3.44h0l-.14-.06-.11,0-.17,0a7.19,7.19,0,0,0-2.16-.36,6.17,6.17,0,0,0-1.84.37L43.71,54.88Zm8,38.12A22.83,22.83,0,0,1,53.3,70.78a3,3,0,0,1,.3.52.76.76,0,0,0,.09.18,6.59,6.59,0,0,0,1,1.39,42.4,42.4,0,0,0-1.26,10.32,43.85,43.85,0,0,0,.66,7.57ZM61.46,74.71a38.33,38.33,0,0,1,.92,8.48A39.08,39.08,0,0,1,61.6,91l-1.94.09L58.23,91a39.28,39.28,0,0,1-.79-7.82,38.78,38.78,0,0,1,.9-8.38A7.14,7.14,0,0,0,61.46,74.71ZM65,72.41a5.32,5.32,0,0,0,.36-.47,3.42,3.42,0,0,0,.35-.72,2.69,2.69,0,0,1,.58-.8,22.78,22.78,0,0,1,2.65,20.1l-1.46.14-1.76.11a42.92,42.92,0,0,0,.66-7.58A42.18,42.18,0,0,0,65,72.41ZM43.51,89.55a15.64,15.64,0,0,1-.4-3.7c0-6.53,2.14-12.48,5.27-14.81a3.5,3.5,0,0,0,.3-.24,26.91,26.91,0,0,0-2.13,19.25c-.46-.07-.92-.13-1.38-.21ZM13.34,70.68l.31-.09A1.81,1.81,0,0,0,13.34,70.68ZM55,101.21a14.94,14.94,0,0,1-8.11,5.52l-.36.1a16.22,16.22,0,0,1-3.88.47c-12.29,0-17.45-4.2-17.78-14.48L25,84.9c0-.07,0-.14,0-.21A3.77,3.77,0,0,0,21.2,81.3l-4.86,0a4.15,4.15,0,0,1,.58-.89h4a5,5,0,0,0,5-4.82A4.84,4.84,0,0,0,24.46,72a5,5,0,0,0-3.56-1.49H14l-.23,0-1.33,0a1.57,1.57,0,0,1-.19-.18c.28-.08.57-.14.87-.2a10.1,10.1,0,0,0,4.58-1.84q.29-.22.57-.48a4.62,4.62,0,0,0,.6-.7c1.74-2.36,2.69-2.5,2.81-2.5h5.1a6.17,6.17,0,0,1,4.33,1.74,5.67,5.67,0,0,1,1.72,4.14l-.38,20.73v.3a8.31,8.31,0,0,0,1.42,5c1.65,2.4,5.18,3.66,7.83,3.66a8.17,8.17,0,0,0,8-5.77l5.48.41,2.17.1c0,.2,0,.4.06.61A13.77,13.77,0,0,1,55,101.21ZM105.26,71a2.3,2.3,0,0,1,.33.1ZM77.18,100.65c2.65,0,6.18-1.25,7.84-3.65a8.5,8.5,0,0,0,1.41-5.1l-.39-21a5.65,5.65,0,0,1,1.72-4.13A6.14,6.14,0,0,1,92.09,65h5c.17,0,1.12.14,2.86,2.5a5.37,5.37,0,0,0,.6.7c.19.18.38.34.56.48a10,10,0,0,0,4.59,1.84l.87.2-.18.18c-.88,0-1.23,0-1.34,0l-.23,0H98a4.94,4.94,0,0,0-3.56,1.5A4.8,4.8,0,0,0,93.05,76a5,5,0,0,0,5,4.83h4a4,4,0,0,1,.58.88l-4.86,0a3.77,3.77,0,0,0-3.78,3.39,1.61,1.61,0,0,0,0,.22L94,91l0,2.26c-.33,10.29-5.49,14.49-17.78,14.49a16.22,16.22,0,0,1-3.88-.47l-.36-.1a14.94,14.94,0,0,1-8.11-5.52,13.53,13.53,0,0,1-2.48-6.05c0-.19.07-.38.09-.57l1.79-.08,4.45-.27c.46,0,.9-.09,1.35-.13A8.14,8.14,0,0,0,77.18,100.65Zm-2.46-23.8a21.74,21.74,0,0,1,1.66,9.2,16,16,0,0,1-.56,3.48c-.49.09-1,.19-1.47.27a3.07,3.07,0,0,0-.42.07l-.64.1a26.61,26.61,0,0,0,.88-6.78A26.88,26.88,0,0,0,71.75,72,18,18,0,0,1,74.72,76.85Z"/><path d="M62.8,25.16h1.33a2,2,0,0,0,0-4H62.8a2,2,0,0,0,0,4Z"/><path d="M26.86,66.08H25.41a2,2,0,1,0,0,4h1.45a2,2,0,0,0,0-4Z"/><path d="M92.05,70.5h1.64a2,2,0,0,0,0-4H92.05a2,2,0,0,0,0,4Z"/></svg>