<svg id="Outline" xmlns="http://www.w3.org/2000/svg" viewBox="0 0 120 120"><defs><style>.cls-1{fill:none;stroke:#000;stroke-linecap:round;stroke-linejoin:round;stroke-width:4px;}</style></defs><line class="cls-1" x1="33.9" y1="86.93" x2="74.53" y2="35.09"/><line class="cls-1" x1="65.8" y1="37.57" x2="75.11" y2="43.52"/><path class="cls-1" d="M35.84,56.71c-4.85-2.21-7-7.17-7-12.94C28.88,36,36.34,29.6,44,29.6a14.69,14.69,0,0,1,11.07,5"/><path class="cls-1" d="M47.89,50.28a4.8,4.8,0,0,1-5.73,0l-2.59,2c-.26.13,0,0-.29.06-1.92.39-2.4-2.1-2.4-2.1a1.23,1.23,0,0,1-1.51-1.16c-.2-1.44,3.31-4.49,5.3-6.54,2.5-2.56,4.76-4.41,8.3-3a8.94,8.94,0,0,1,7.78,1.23s-1.54,4.19-5.9,3.32"/><path class="cls-1" d="M44.18,51.94l.18,10.23L38.69,64a2.23,2.23,0,0,0-1.35,1.89,4,4,0,0,0,.26,2l2.85,7.52,2.25,5.9S41,83.69,42.15,85l6.6-2.4h0L43.86,68.19l2.2-.74c14.81,5.45,30.11,2.07,30.11,2.07l7.19,6.21-.48,10.44a4,4,0,0,0-1.43,2.74h7.08l2.15-15h0l-4-7.82s1.46-9.57-7-11.34c-3-.63-23.67-.94-23.67-.94-.67-1.85-2.82-9.61-2.82-9.61"/><path class="cls-1" d="M43.54,39.77c-1.19-1.76-6.16-1.6-6.16-1.6s-.33,4.14,3.69,3.88"/><path class="cls-1" d="M53,70.86l.26,15.31a2.71,2.71,0,0,0-1.49,2.73h6.95L58.65,72"/><path class="cls-1" d="M70.45,71.42l3.27,7-3.89,7.73a3.18,3.18,0,0,0-1.59,2.74h6l5.47-11.1,0-5.22"/><path class="cls-1" d="M83.86,56.71c9.31.81,8.86,9.37,3.07,8.18"/><circle class="cls-1" cx="60" cy="60" r="50"/><path class="cls-1" d="M95,68.35a36,36,0,0,0-44.2-43.1"/><path class="cls-1" d="M39.19,89.31A36.07,36.07,0,0,0,70.46,94.4"/><path class="cls-1" d="M24.66,53.42A36.1,36.1,0,0,0,30.19,80.1"/></svg>