<svg id="Outline" xmlns="http://www.w3.org/2000/svg" viewBox="0 0 120 120"><defs><style>.cls-1{fill:none;stroke:#000;stroke-linecap:round;stroke-linejoin:round;stroke-width:4px;}</style></defs><path class="cls-1" d="M81.09,26.64a22.22,22.22,0,0,0-11-8.68A29.85,29.85,0,0,0,49,18a22.2,22.2,0,0,0-11,8.68,15.54,15.54,0,0,0,0,16.75,22.27,22.27,0,0,0,11,8.69,29.85,29.85,0,0,0,21.17,0,22.3,22.3,0,0,0,11-8.69,15.54,15.54,0,0,0,0-16.75Z"/><path class="cls-1" d="M57.16,37.39a65.78,65.78,0,0,0-10.57,1.24c-1.64.32-3.26.72-4.87,1.17.16.32.32.64.51,1a17.41,17.41,0,0,0,8.54,6.67,23.26,23.26,0,0,0,5,1.3c0-.25.12-.5.17-.75A66.65,66.65,0,0,0,57.16,37.39Z"/><path class="cls-1" d="M78.54,35c0-.11,0-.21,0-.32v.65C78.52,35.23,78.54,35.12,78.54,35Z"/><path class="cls-1" d="M57.16,32.63a66.79,66.79,0,0,0-1.22-10.57c0-.25-.12-.49-.17-.74a23.26,23.26,0,0,0-5,1.3,17.3,17.3,0,0,0-8.54,6.66c-.19.32-.35.64-.51.95,1.61.45,3.23.85,4.87,1.18A65.78,65.78,0,0,0,57.16,32.63Z"/><path class="cls-1" d="M61.91,32.63a65.78,65.78,0,0,0,10.57-1.22c1.64-.33,3.27-.73,4.87-1.18-.16-.32-.32-.64-.51-.95a17.3,17.3,0,0,0-8.54-6.66,23.26,23.26,0,0,0-5-1.3c0,.25-.11.49-.16.74A65.65,65.65,0,0,0,61.91,32.63Z"/><path class="cls-1" d="M40.54,35c0,.11,0,.22,0,.33v-.66C40.56,34.8,40.54,34.9,40.54,35Z"/><path class="cls-1" d="M61.91,37.39A65.51,65.51,0,0,0,63.14,48c0,.25.11.5.16.75a23.26,23.26,0,0,0,5-1.3,17.36,17.36,0,0,0,8.54-6.67c.19-.31.35-.63.51-1-1.6-.45-3.23-.85-4.87-1.17A65.78,65.78,0,0,0,61.91,37.39Z"/><path class="cls-1" d="M78.51,34.69a10.6,10.6,0,0,0-1.16-4.46c-1.6.45-3.23.85-4.87,1.18a65.78,65.78,0,0,1-10.57,1.22,65.65,65.65,0,0,1,1.23-10.57c0-.25.11-.49.16-.74a23.78,23.78,0,0,0-7.53,0c0,.25.12.49.17.74a66.79,66.79,0,0,1,1.22,10.57,65.78,65.78,0,0,1-10.57-1.22c-1.64-.33-3.26-.73-4.87-1.18a10.59,10.59,0,0,0-1.16,4.45v.66a10.6,10.6,0,0,0,1.16,4.46c1.61-.45,3.23-.85,4.87-1.17a65.78,65.78,0,0,1,10.57-1.24A66.65,66.65,0,0,1,55.94,48c0,.25-.12.5-.17.75a23.78,23.78,0,0,0,7.53,0c0-.25-.11-.5-.16-.75a65.51,65.51,0,0,1-1.23-10.58,65.78,65.78,0,0,1,10.57,1.24c1.64.32,3.27.72,4.87,1.17a10.63,10.63,0,0,0,1.16-4.46Z"/><path class="cls-1" d="M59.54,16A29,29,0,0,1,70.12,18l.59.25q1-4.14,2.21-8.21H46.15q1.2,4.07,2.22,8.21L49,18A29.08,29.08,0,0,1,59.54,16Z"/><path class="cls-1" d="M93.59,50.52a174.21,174.21,0,0,1-27.8,3.21c0-.13-4.08.29-6.25.29s-6.26-.42-6.26-.29a174.34,174.34,0,0,1-27.8-3.21C20.11,49.45,14.8,48.13,9.6,46.58V73.42c5.2-1.55,10.51-2.86,15.88-3.92a174.36,174.36,0,0,1,27.8-3.25A173.29,173.29,0,0,1,50.06,94.1q-1.58,8.1-3.91,15.9H72.92Q70.61,102.22,69,94.1a174.43,174.43,0,0,1-3.22-27.85,174.22,174.22,0,0,1,27.8,3.25q8.07,1.59,15.88,3.92V46.58Q101.67,48.91,93.59,50.52Z"/></svg>