<svg id="Outline" xmlns="http://www.w3.org/2000/svg" viewBox="0 0 120 120"><defs><style>.cls-1{fill:none;stroke:#000;stroke-linecap:round;stroke-linejoin:round;stroke-width:4px;}</style></defs><path class="cls-1" d="M110,10V60H88.46V52.36a99.35,99.35,0,0,1-24.91,4.07,100.26,100.26,0,0,1,4.07-24.9H52.35a98.9,98.9,0,0,1,4.07,24.9,99.27,99.27,0,0,1-24.89-4.07V60H10V10Z"/><path class="cls-1" d="M110,60v50H10V60H31.53v7.64a99.27,99.27,0,0,1,24.89-4.07,98.82,98.82,0,0,1-4.07,24.9H67.62a100.19,100.19,0,0,1-4.07-24.9,99.35,99.35,0,0,1,24.91,4.07V60Z"/></svg>