<svg id="Outline" xmlns="http://www.w3.org/2000/svg" viewBox="0 0 120 120"><path d="M112,60a2.58,2.58,0,0,0,0-.39V9.6a2,2,0,0,0-2-2H10a2,2,0,0,0-2,2v50A2.71,2.71,0,0,0,8,60a2.58,2.58,0,0,0,0,.39c0,11.9,8.69,24.27,25.83,36.77a163.58,163.58,0,0,0,25.34,15,2,2,0,0,0,1.67,0,164.09,164.09,0,0,0,25.34-15C103.32,84.67,112,72.3,112,60.4A1.84,1.84,0,0,0,112,60ZM12,11.6h96v46H90.46V52A2,2,0,0,0,87.89,50a97.56,97.56,0,0,1-22.23,3.89A97.53,97.53,0,0,1,69.55,31.7a2,2,0,0,0-1.92-2.57H52.36a2,2,0,0,0-1.92,2.57,97,97,0,0,1,3.89,22.23A97.56,97.56,0,0,1,32.1,50,2,2,0,0,0,29.53,52V57.6H12ZM65,86.06H55a101.35,101.35,0,0,0,3.42-22.83,2,2,0,0,0-.59-1.49,2,2,0,0,0-1.48-.58,101.87,101.87,0,0,0-22.83,3.42v-10A101.23,101.23,0,0,0,56.36,58a2.1,2.1,0,0,0,1.48-.59A2,2,0,0,0,58.43,56,101.27,101.27,0,0,0,55,33.13H65A102.41,102.41,0,0,0,61.56,56a2,2,0,0,0,.58,1.48,2.1,2.1,0,0,0,1.49.59A101.31,101.31,0,0,0,86.46,54.6v10a101.87,101.87,0,0,0-22.83-3.42,2.09,2.09,0,0,0-1.49.58,2,2,0,0,0-.58,1.49A102.5,102.5,0,0,0,65,86.06Zm-5,22.13c-6.34-3.07-46.6-23.46-48-46.59H29.53v5.63a2,2,0,0,0,2.57,1.91,97.55,97.55,0,0,1,22.23-3.88,96.91,96.91,0,0,1-3.89,22.22,2,2,0,0,0,1.92,2.58H67.63a2,2,0,0,0,1.92-2.57,97.63,97.63,0,0,1-3.89-22.23,97.64,97.64,0,0,1,22.23,3.88,2,2,0,0,0,2.57-1.91V61.6H108C106.61,84.72,66.35,105.12,60,108.19Z"/></svg>