<svg id="Outline" xmlns="http://www.w3.org/2000/svg" viewBox="0 0 120 120"><defs><style>.cls-1{fill:none;stroke:#000;stroke-linecap:round;stroke-linejoin:round;stroke-width:4px;}</style></defs><path class="cls-1" d="M23.84,21.84C23.84,39,35.92,53,60.68,53"/><path class="cls-1" d="M60.68,10.21H25.8a2,2,0,0,0-2,2v9.67H60.62"/><line class="cls-1" x1="60.84" y1="29.1" x2="60.84" y2="41.27"/><line class="cls-1" x1="54.01" y1="35.18" x2="67.67" y2="35.18"/><path class="cls-1" d="M60.72,75.9v4.81c-.07,21.19-19,20.32-28.52,21.39l-2.85.2a3.56,3.56,0,0,0-3.5,3.37h0v4.54h31.2"/><polyline class="cls-1" points="60.65 52.8 60.72 52.84 60.72 59.42"/><ellipse class="cls-1" cx="60" cy="67.49" rx="8.45" ry="7.52"/><line class="cls-1" x1="45.09" y1="16.03" x2="50.06" y2="16.03"/><line class="cls-1" x1="32.1" y1="16.03" x2="37.07" y2="16.03"/><path class="cls-1" d="M96.16,21.84C96.16,39,84.08,53,59.32,53"/><path class="cls-1" d="M60.68,10.21H94.2a2,2,0,0,1,2,2v9.67H60.62"/><line class="cls-1" x1="75.91" y1="16.03" x2="70.94" y2="16.03"/><line class="cls-1" x1="63.2" y1="16.03" x2="58.23" y2="16.03"/><line class="cls-1" x1="87.9" y1="16.03" x2="82.93" y2="16.03"/><path class="cls-1" d="M60.92,75.9v4.81C61,101.9,79.89,101,89.44,102.1l2.85.2a3.56,3.56,0,0,1,3.5,3.37h0v4.54H63"/></svg>