<svg id="Outline" xmlns="http://www.w3.org/2000/svg" viewBox="0 0 120 120"><defs><style>.cls-1{fill:none;stroke-linecap:round;stroke-linejoin:round;stroke-width:4px;}.cls-1,.cls-2,.cls-3,.cls-4{stroke:#010101;}.cls-2,.cls-3,.cls-4{font-size:12px;fill:#010101;stroke-miterlimit:10;font-family:AlchemyEsoteric-Regular, Alchemy Esoteric;}.cls-2{letter-spacing:0.09em;}.cls-3{letter-spacing:0.14em;}</style></defs><polyline class="cls-1" points="35.63 69.25 10.61 90.78 10.61 28.67 10.61 28.67 35 49.95 35 49.95"/><path class="cls-1" d="M37.05,73.9,26.71,82.63a22.69,22.69,0,0,0-6,9.07l-1,3.18,3.3-.52a17.44,17.44,0,0,0,8.63-4L41.94,80.3"/><path class="cls-1" d="M60.31,81.83a22,22,0,0,1-13.58-4.49h0a21.49,21.49,0,0,1,13.15-38.5"/><path class="cls-1" d="M59.88,75.43a15.1,15.1,0,1,1,0-30.19"/><line class="cls-1" x1="60.27" y1="51.78" x2="60.27" y2="67.68"/><line class="cls-1" x1="60.31" y1="59.73" x2="52.32" y2="59.73"/><polyline class="cls-1" points="74.81 83.11 95.52 110 59.48 110 24.48 110 45.57 82.61"/><polyline class="cls-1" points="74.33 37.33 95.52 10 59.48 10 24.48 10 45.57 37.33"/><polyline class="cls-1" points="85.38 70.12 109.39 90.78 109.39 28.67 96.04 39.9 92.55 42.83 84.53 49.57"/><polyline class="cls-1" points="79.69 30.51 83.82 34.27 77.5 40.97"/><polyline class="cls-1" points="81.87 45.24 88.56 39.11 92.55 42.83"/><path class="cls-1" d="M83.5,25.57l7.77,1.63,4.29-3.56a5.47,5.47,0,1,1,3.7,3.76l-3.05,4.54,1,6.78"/><polyline class="cls-1" points="42.51 40.77 36.62 34.48 40.66 30.92"/><polyline class="cls-1" points="27.81 43.24 31.38 39.77 38.05 45.81"/><path class="cls-1" d="M23.14,39.13l1-6.78-3-4.54a5.5,5.5,0,1,1,3.69-3.76l4.3,3.56L36.85,26"/><path class="cls-1" d="M83.5,74.65,94,83.76a17.46,17.46,0,0,1,5.24,7.94l1,3.18L97,94.36a17.31,17.31,0,0,1-8-3.53,13.07,13.07,0,0,1-1.11-1L78.17,80.3"/><path class="cls-1" d="M59.69,81.83a22,22,0,0,0,13.58-4.49h0a21.49,21.49,0,0,0-13.15-38.5"/><path class="cls-1" d="M60.12,75.43a15.1,15.1,0,1,0,0-30.19"/><line class="cls-1" x1="59.69" y1="59.73" x2="67.68" y2="59.73"/><text class="cls-2" transform="translate(49.93 25.3)">HOC</text><text class="cls-3" transform="translate(39.92 103.93)">VINCES</text><text class="cls-4" transform="translate(28.04 64.59) rotate(-90)">I<tspan x="3.1" y="0">N</tspan></text><text class="cls-4" transform="translate(94.66 45.46) rotate(90)">S<tspan x="6.9" y="0">I</tspan><tspan x="9.65" y="0">G</tspan><tspan x="15.75" y="0">N</tspan><tspan x="21.83" y="0">O</tspan></text></svg>