<svg id="Outline" xmlns="http://www.w3.org/2000/svg" viewBox="0 0 120 120"><defs><style>.cls-1{fill:none;stroke:#000;stroke-linecap:round;stroke-linejoin:round;stroke-width:4px;}</style></defs><line class="cls-1" x1="61.27" y1="46.35" x2="61.27" y2="64.04"/><line class="cls-1" x1="64.55" y1="51.73" x2="57.77" y2="51.73"/><path class="cls-1" d="M43.89,42.16C41.76,39.3,38,40.85,38,40.85L40.63,44,32.35,55.4h0l4.52,1.81,2.45-1.46.08,0a7.42,7.42,0,0,1,2.8-1c1.72-.24,4-.74,4.47-4.13h0c.78,1.93-.54,4.53-1.47,6.27a11.23,11.23,0,0,0,1.18,12.58l-2.23,6.45-.45,1.11a2.72,2.72,0,0,0,0,2.15l2.41,5.21-.15.09c-.62.26-1,1.88-.14,3.15h0l5.05-2.14-2.68-6.52,3.34-7.54h0c2.82,2.16,15.11,4.6,21.34.64l.81,1h0l5.85,7.49h0v.64l.13,4.74s-1.54,0-1.33,3H84l.32-10.19-2.85-5.24h0c1-1,3.71-6.7,1.62-10.8-3.08-6-9.87-5.1-9.87-5.1"/><path class="cls-1" d="M52,35.76l0,7.16h4.36a4.24,4.24,0,0,0,.94-.11h0a1.76,1.76,0,0,0,.83-.44l2-2,1.12-3.56c0-.14.08-.27.11-.41h0a3.81,3.81,0,0,0,.06-1.61,4.82,4.82,0,0,0-9.52.94"/><polyline class="cls-1" points="52 35.76 56.13 35.76 56.22 41.8 57.83 42.7"/><line class="cls-1" x1="76.62" y1="52.46" x2="80.93" y2="54.65"/><line class="cls-1" x1="41.14" y1="32.45" x2="48.84" y2="36.57"/><line class="cls-1" x1="49.06" y1="40.7" x2="35.53" y2="33.55"/><path class="cls-1" d="M70.9,41.46h0l7.66,5.84a1.34,1.34,0,0,1-.27,2.21l-2.23,1.55a4.84,4.84,0,0,1-.55,6.5"/><path class="cls-1" d="M63.77,35.76l0,7.16H67.9l1.7-.22L72,40.41l1.11-3.56c0-.14.08-.27.11-.41h0a4,4,0,0,0-.15-2.35,4.84,4.84,0,0,0-9.31,1.67"/><polyline class="cls-1" points="63.77 35.76 67.9 35.76 67.99 41.8 69.6 42.7"/><path class="cls-1" d="M70.54,75.46l.91,5.12-4.1,8.24-5.18.08h0c0-2,1-3,1.7-3h0l2.52-4.61L63.9,76.15"/><path class="cls-1" d="M40.86,62,36,62.09h0c-.83,0-2,.27-1.82,1.88l0,8.17c-1.29.27-1.53,1.61-1.29,3.09h0l5.38-.06h0v-8.5h0l3.37-.14"/><path class="cls-1" d="M61.27,67.77h0a6.48,6.48,0,0,0,6.49-6.42L67.9,43.2h-13l-.14,18.23a6.42,6.42,0,0,0,6.49,6.34h0"/><path class="cls-1" d="M67.9,48.08h5.2l.08,15.1a6.42,6.42,0,0,1-6.5,6.34h0a6.53,6.53,0,0,1-5-2.26"/><path class="cls-1" d="M80.27,59.35c4.83-5,12.34,1,9.12,6.75a17.73,17.73,0,0,0-2,5.22"/><circle class="cls-1" cx="60" cy="60" r="50"/><path class="cls-1" d="M73.8,93.2A36,36,0,0,1,30.88,38.92"/><path class="cls-1" d="M44.18,27.71a36,36,0,0,1,47.54,49.2"/></svg>