<svg id="Outline" xmlns="http://www.w3.org/2000/svg" viewBox="0 0 120 120"><path d="M63.51,64.28a2,2,0,0,1-2-2v-11a2,2,0,0,1,4,0v11A2,2,0,0,1,63.51,64.28Z"/><path d="M66.61,56.77H60.45a2,2,0,0,1,0-4h6.16a2,2,0,0,1,0,4Z"/><path d="M45.65,67.31a2,2,0,0,1-1.85-1.25l-.41-1c-1.37-3.26-2.47-5.88-1.25-12.31a13.27,13.27,0,0,1-1.57.17l-.81.07c.08,0-.1.08-.5.42a4.43,4.43,0,0,1-5.34.44l-2.71-1.71a2,2,0,0,1-.89-1.32,2,2,0,0,1,.35-1.56l5.67-7.68-.93-1.24a2,2,0,0,1,0-2.44,5.79,5.79,0,0,1,7.41-1.4c5.12-.32,8.1,1.34,9.69,2.83a2,2,0,1,1-2.72,2.92c-1.53-1.42-4.05-2-7.27-1.71a2,2,0,0,1-1.32-.34A2.43,2.43,0,0,0,40,39.73l.48.64a2,2,0,0,1,0,2.39l-5.28,7.16.88.56a.49.49,0,0,0,.57-.06A5,5,0,0,1,39.22,49l1.08-.1c1.94-.13,2.26-.25,2.44-1.62a2,2,0,0,1,3.84-.48,5.81,5.81,0,0,1,.4,2.1,2.2,2.2,0,0,1-.07.56c-.09.37-.18.81-.28,1.3s-.19.93-.3,1.44c-1.38,6.22-.58,8.12.74,11.28.14.33.29.68.43,1a2,2,0,0,1-1.85,2.76Z"/><path d="M36.75,73.48h-5.9a2,2,0,0,1-2-1.68c-.39-2.42.37-4,1.45-4.81l0-5.87A3.72,3.72,0,0,1,34,57.38h5.11a2,2,0,0,1,0,4H34.31l0,6.82a2,2,0,0,1-.46,1.28h.87V64.31a2,2,0,0,1,2-2h3.5a2,2,0,0,1,0,4h-1.5v5.17A2,2,0,0,1,36.75,73.48Z"/><path d="M83.85,93.63H77.78a2,2,0,0,1-2-1.87,5.65,5.65,0,0,1,1.16-4.36,2.39,2.39,0,0,1,.23-.22l-.1-3.92-6-7.69-3.55.62a27.43,27.43,0,0,1-12.12-.6l-4.88-1.36c-1.51.83-2.59,1.69-2.95,3.43l-.21,1c-.19.89-.44,2.11-.47,2.41v2a2,2,0,0,1-2,2l-6,.06a2,2,0,0,1-2-1.69,7.78,7.78,0,0,1-.11-1.33,4.37,4.37,0,0,1,1.47-3.53V76c.12-6.1,3.28-9,5.3-10.37l-.08-.58a2,2,0,0,1,3.79-1.14L48,65.43a2,2,0,0,1-.56,2.44,9.56,9.56,0,0,1-.84.58,8.24,8.24,0,0,0-4.33,7.62v3.68a2,2,0,0,1-.48,1.3h1.11V81a19,19,0,0,1,.56-3.17l.2-1c.83-4,3.9-5.59,5.73-6.53a2,2,0,0,1,1.45-.15l5.65,1.58a23.51,23.51,0,0,0,10.35.51l4.73-.82a2,2,0,0,1,1.92.73l7.17,9.18a2,2,0,0,1,.43,1.23v.67l.13,5.07a2,2,0,0,1-.46,1.32h1.17l.24-7.7a3,3,0,0,0-.36-1.51A12,12,0,0,1,81,70.88a12.06,12.06,0,0,0,.66-3.72A8.5,8.5,0,0,0,81,64.09c-1.27-3.29-3.8-3.16-4.09-3.14a2,2,0,0,1-2.17-1.79A2,2,0,0,1,76.46,57c2-.24,6.32.64,8.27,5.68a12.56,12.56,0,0,1,1,4.51,15.84,15.84,0,0,1-.87,5,8,8,0,0,0,.48,6.35,7,7,0,0,1,.84,3.56l-.3,9.63A2,2,0,0,1,83.85,93.63Z"/><path d="M63.34,71.23c-6.32,0-10.9-4.08-10.9-9.7l.19-15.64a2,2,0,0,1,2-2h17.8a2,2,0,0,1,1.43.6,2,2,0,0,1,.57,1.43l-.19,15.51C74.24,67.1,69.66,71.23,63.34,71.23ZM56.6,47.91l-.16,13.64c0,3.91,3.46,5.68,6.9,5.68s6.9-1.82,6.9-5.81l.17-13.51Z"/><path d="M89,73.76a2,2,0,0,1-1.08-.32c-1.73-1.11-2.42-4.31-.29-8.06,1.29-2.27,1.39-4.2.25-5s-3.44-.62-5.46,1.49a2,2,0,1,1-2.89-2.77c3.65-3.8,8.17-3.85,10.74-1.93,2.16,1.61,3.68,5.26.84,10.24a4.42,4.42,0,0,0-.76,2.92A2,2,0,0,1,89,73.76Z"/><path d="M70.69,93.54H64.61a2,2,0,0,1-2-1.86,5.59,5.59,0,0,1,1.15-4.36,3.6,3.6,0,0,1,.67-.55l.62-1.8-3.69-4.41A2,2,0,0,1,64.45,78l4.24,5.09a2,2,0,0,1,.46,1.28V85a1.81,1.81,0,0,1-.11.65l-1.11,3.24a2.27,2.27,0,0,1-.34.61H69l1.12-6-2.91-3.9a2,2,0,0,1,3.21-2.4l3.43,4.61a2,2,0,0,1,.37,1.57l-1.6,8.47A2,2,0,0,1,70.69,93.54Z"/><path d="M79.31,55.92h-7a2,2,0,0,1,0-4H78.6l3.94-3.25L82,47.94l-2.48,1.84a2.19,2.19,0,0,1-1.21.4l-5.77,0a2,2,0,0,1,0-4h0l5.1,0,3.51-2.61a2,2,0,0,1,2.78.37l3,3.82a2,2,0,0,1-.31,2.77l-6,4.94A2,2,0,0,1,79.31,55.92Z"/><path d="M58.87,48a2,2,0,0,1-2-1.94l-.08-2.86a2,2,0,0,1,4-.11l.07,2.86a2,2,0,0,1-1.94,2Z"/><path d="M67.79,47.86a2,2,0,0,1-1.41-.58,2,2,0,0,1-.59-1.42,1.72,1.72,0,0,1,0-.39,2.26,2.26,0,0,1,.11-.37,2.37,2.37,0,0,1,.19-.35,1.81,1.81,0,0,1,.25-.3,2,2,0,0,1,2.82,0,1.42,1.42,0,0,1,.25.3,1.7,1.7,0,0,1,.19.35,1.58,1.58,0,0,1,.11.37,1.72,1.72,0,0,1,0,.39,2,2,0,0,1-2,2Z"/><path d="M66.6,45.17s0-6.41,0-7a2.83,2.83,0,0,0,0-.29,2.32,2.32,0,0,0-.17-.55c-.08-.18-.93-1.74-3.54-1.55a2.59,2.59,0,0,0-2.22,1.27,2,2,0,1,1-3.43-2,6.45,6.45,0,0,1,5.44-3.22A7.24,7.24,0,0,1,70,35.75a6,6,0,0,1,.48,1.61,6.11,6.11,0,0,1,.06.86c0,.54,0,6.93,0,6.93Z"/><path d="M58.43,45.11a2,2,0,0,1-1.71-1l-3-5a2,2,0,0,1,.81-2.82L57.13,35a2,2,0,0,1,1.26-.18l5.43,1a2,2,0,0,1,1.64,2v.94a2,2,0,0,1-.64,1.47l-4.71,4.31a2.11,2.11,0,0,1-.69.41l-.33.12A2.17,2.17,0,0,1,58.43,45.11Zm-.21-6.2.73,1.2,1-1-1.66-.3Z"/><path d="M73.7,43.48H68.58a2,2,0,0,1,0-4h3.11c-.14-4.18-1.18-5.42-2-6.33l0-.06s0,0-.05-.05c-1.36-1.6-5.19-3-7.73-2.89v4.61a2,2,0,0,1-2,2h0a2,2,0,0,1-2-2V28.49a2,2,0,0,1,1.32-1.88c4-1.48,11,.93,13.5,3.88,2,2.25,3.17,4.89,3,11A2,2,0,0,1,73.7,43.48Z"/><path d="M85.51,44a2,2,0,0,1-1.61-.8L71.69,27a2,2,0,1,1,3.2-2.4L87.11,40.84a2,2,0,0,1-1.6,3.2Z"/><path d="M78.38,42.32a2,2,0,0,1-1.55-.73,2,2,0,0,1,.28-2.81l7.83-6.44a2,2,0,1,1,2.54,3.1l-7.83,6.43A2.05,2.05,0,0,1,78.38,42.32Z"/><path d="M82.48,53.47a2,2,0,0,1-1.22-3.59l5.47-4.19a1.78,1.78,0,0,0,.71-1.3,1.72,1.72,0,0,0-.08-.75l-3.75,3.07a2,2,0,0,1-2.53-3.1l5.32-4.36a2,2,0,0,1,2.73.19l.77.83a5.84,5.84,0,0,1-.73,8.59L83.7,53.05A2,2,0,0,1,82.48,53.47Z"/><path d="M89.94,81.82a2,2,0,0,1-1.65-3.13,34.19,34.19,0,0,0,4.63-28.93,2,2,0,1,1,3.83-1.13A38.13,38.13,0,0,1,91.58,81,2,2,0,0,1,89.94,81.82Z"/><path d="M60.25,97.42a38,38,0,0,1,0-76.09,38.51,38.51,0,0,1,8.44.94,2,2,0,0,1-.89,3.9,34.67,34.67,0,0,0-7.55-.84,34,34,0,0,0,0,68.09,2,2,0,1,1,0,4Z"/><path d="M60.25,111.38a52,52,0,1,1,52-52A52.06,52.06,0,0,1,60.25,111.38Zm0-100a48,48,0,1,0,48,48A48.05,48.05,0,0,0,60.25,11.38Z"/></svg>