<svg id="Outline" xmlns="http://www.w3.org/2000/svg" viewBox="0 0 120 120"><defs><style>.cls-1{fill:none;stroke:#000;stroke-linecap:round;stroke-linejoin:round;stroke-width:4px;}</style></defs><path class="cls-1" d="M110.11,73.41a174.85,174.85,0,0,0-43.74-7.15A174.85,174.85,0,0,0,73.52,110H46.7a174.39,174.39,0,0,0,7.15-43.74,174.85,174.85,0,0,0-43.74,7.15V46.59a174.85,174.85,0,0,0,43.74,7.15A174.39,174.39,0,0,0,46.7,10H73.52a174.85,174.85,0,0,0-7.15,43.74,174.85,174.85,0,0,0,43.74-7.15Z"/></svg>