<svg id="Outline" xmlns="http://www.w3.org/2000/svg" viewBox="0 0 120 120"><path d="M98.11,33H82.25l-.18-2.7a2,2,0,0,0-4,.25L78.24,33H75q-.68-.36-1.38-.69V10a2,2,0,0,0-2-2H47.45a2,2,0,0,0-2,2V32.27c-.54.23-1.06.48-1.58.73h-22a2,2,0,0,0-2,2V59.19a2,2,0,0,0,2,2H28a30.68,30.68,0,0,0,.77,5.47l-3,7.35a2,2,0,0,0,1.09,2.6,1.87,1.87,0,0,0,.76.15,2,2,0,0,0,1.85-1.24l1.26-3.08a31.29,31.29,0,0,0,7.61,10.37l1.83,8.1a2,2,0,0,0,2,1.56,2.12,2.12,0,0,0,.44,0A2,2,0,0,0,44.09,90l-.81-3.61c.7.42,1.43.82,2.17,1.18V110a2,2,0,0,0,2,2H71.62a2,2,0,0,0,2-2V87.62l8.88,1.13h.25a2,2,0,0,0,.25-4l-4.7-.6a31.29,31.29,0,0,0,8.86-10.9l7.67-2.7a2,2,0,1,0-1.32-3.78l-4.44,1.57a31.53,31.53,0,0,0,1.22-7.18h7.82a2,2,0,0,0,2-2V35A2,2,0,0,0,98.11,33ZM80.57,69.06A2,2,0,0,0,78.48,71l-.34,8a27.42,27.42,0,0,1-4.52,3.57V61.19h8.9l3.15,4.35a27.08,27.08,0,0,1-3.3,8.17l.11-2.56A2,2,0,0,0,80.57,69.06ZM49.45,12H69.62V33.58h0V35a2,2,0,0,0,2,2H74a24.92,24.92,0,0,1,6.63,5.61l-1.75-.72a2,2,0,0,0-1.52,3.7l6.79,2.8a27.49,27.49,0,0,1,2.1,8.8H71.62a2,2,0,0,0-2,2V84.68A26,26,0,0,1,66,85.9l2.37-4.45a2,2,0,0,0-3.53-1.88l-3.8,7.14c-.63,0-1.26.07-1.9.07A27,27,0,0,1,51,85.52l4.45-2.3a2,2,0,1,0-1.83-3.55l-4.15,2.14V59.19a2,2,0,0,0-2-2H34.11L32.35,54.9A25,25,0,0,1,36,45.21l.17,3.87a2,2,0,0,0,2,1.91h.09a2,2,0,0,0,1.91-2.09l-.37-8.25A25.72,25.72,0,0,1,44.85,37h2.6a2,2,0,0,0,2-2ZM23.89,37H37.81a27.26,27.26,0,0,0-7.67,10.75l-.06,0-5.16,3.33A2,2,0,0,0,26,54.79a1.94,1.94,0,0,0,1.08-.32l1.44-.92a32.89,32.89,0,0,0-.47,3.64H23.89Zm8.25,24.19,2.52,3.27a2,2,0,0,0,2.8.37A2,2,0,0,0,37.83,62l-.64-.83h8.26V83.06a27.38,27.38,0,0,1-7.53-6.52l4.36,1.37a2,2,0,0,0,.6.09,2,2,0,0,0,.59-3.91l-8.84-2.78A26.83,26.83,0,0,1,32,61.19ZM49.45,108V89.23a31.87,31.87,0,0,0,5.64,1.28l6.6,6a2,2,0,0,0,2.82-.14,2,2,0,0,0-.13-2.82L61.25,90.7A30.92,30.92,0,0,0,69.62,89v19ZM96.11,57.19H90.25c0-.26-.06-.52-.08-.78l4.71-8.06a2,2,0,1,0-3.45-2l-2.38,4.06A28.57,28.57,0,0,0,82.63,38.9L82.51,37h13.6Z"/></svg>