<svg id="Livello_2" data-name="Livello 2" xmlns="http://www.w3.org/2000/svg" viewBox="0 0 120 120"><defs><style>.cls-1{fill:none;stroke:#000;stroke-linecap:round;stroke-linejoin:round;stroke-width:4px;}</style></defs><path d="M96.81,76.53c.57-1,1-1.73,1.44-2.41a1.31,1.31,0,0,1,.91-.4c1.14,0,2.29-.08,3.43,0,.81,0,1-.31.89-1-.2-1.46-.54-1.8-2-1.91-.47,0-.93-.06-1.39-.13-1.45-.23-1.93-1.24-1.14-2.48.16-.24.6-.31.91-.44.09,0,.21,0,.32,0,4.77.75,4.16,1.58,4,5.15,0,.21-.08.58,0,.61.79.31.56.8.21,1.25-.55.71-.63,1.87-2,1.8C100.61,76.46,98.86,76.53,96.81,76.53Z"/><path d="M20.17,78.34c-.11-1.3-.27-2.6-.32-3.9,0-1-.52-1.3-1.42-1.23a16.87,16.87,0,0,1-2.46.1c-.43,0-1.14-.3-1.2-.59a6,6,0,0,1,.07-2.07c0-.07.36-.16.56-.15,1.46,0,2.92.11,4.38.12.87,0,1.34.35,1.37,1.25,0,1.74.13,3.49.1,5.24,0,.46-.43.92-.66,1.38Z"/><path d="M31.93,27.88c.33-.85.42-1.73.9-2.14s1.31-.23,2-.3l.09-2.08c-2.22-.66-2.43-1-1.53-2.77a23.17,23.17,0,0,1,2.45.63.86.86,0,0,1,.41,1.36,2.53,2.53,0,0,0-.05,2.47,3.71,3.71,0,0,1,.22.93c.12,1.12-.3,1.76-1.42,1.88A27.1,27.1,0,0,1,31.93,27.88Z"/><path d="M59.74,107.65c-.3-1.39-.65-2.67-.81-4A5.18,5.18,0,0,1,59.4,102a3.77,3.77,0,0,1-1.15-.55,1.46,1.46,0,0,1-.4-1.07c0-.18.59-.47.87-.43.76.09,1.77-.23,2.16.72s-.56,1.33-.91,2a4.73,4.73,0,0,0-.17,1.75l.27,0,2.5-2.2c-.74-.84-1.22-1.54-.21-2.33.71-.56,1.13.13,1.62.32s.83.65.82,1-.53.67-.87,1c-1.08.95-2.23,1.82-3.24,2.84-.24.25-.17,1,0,1.4C60.88,107.19,60.47,107.45,59.74,107.65Z"/><path d="M86.24,30.22A8.46,8.46,0,0,1,85,24.29a2.31,2.31,0,0,1-2-3.09c.08-.26.48-.63.7-.61.84.06,1.66.28,2.5.42s.87.72.81,1.29-.13,1.43-.47,1.61c-.83.41-.87.83-.64,1.61a19.34,19.34,0,0,1,.65,3.22A4.85,4.85,0,0,1,86.24,30.22Z"/><circle class="cls-1" cx="60" cy="60" r="50"/><circle class="cls-1" cx="60" cy="60" r="37.16"/><polygon class="cls-1" points="38.26 29.87 60 97.16 81.75 29.87 24.53 71.11 94.94 71.11 38.26 29.87"/><line class="cls-1" x1="63.39" y1="64.51" x2="66.61" y2="61.86"/><line class="cls-1" x1="57.03" y1="64.51" x2="53.82" y2="61.86"/></svg>