<svg id="Outline" xmlns="http://www.w3.org/2000/svg" viewBox="0 0 120 120"><path d="M84,28.82l7-6.18a2,2,0,0,0,.67-1.45A2,2,0,0,0,91,19.71a4.42,4.42,0,0,1-1.35-3.21,4.25,4.25,0,0,1,1.34-3,4.36,4.36,0,0,1,3.19-1.17,4.58,4.58,0,0,1,4.45,4.54,4.53,4.53,0,0,1-.5,1.94,2,2,0,0,0,2.78,2.67,4.42,4.42,0,0,1,2.35-.59,4.6,4.6,0,0,1,4.44,4.59,4.18,4.18,0,0,1-1.3,3,4.38,4.38,0,0,1-3.22,1.2,11.46,11.46,0,0,1-4.89-2,2,2,0,0,0-2.5.15l-7.14,6.48A2,2,0,0,0,90,37.76a2,2,0,0,0,1.34-.52l6-5.46a13.51,13.51,0,0,0,5.68,1.86,8.36,8.36,0,0,0,6.1-2.3,8.11,8.11,0,0,0,2.55-5.81,8.62,8.62,0,0,0-8.31-8.64,6.62,6.62,0,0,0-.77,0,8.57,8.57,0,0,0-8.29-8.57,8.33,8.33,0,0,0-6.09,2.25,8.22,8.22,0,0,0-2.59,5.84,8.4,8.4,0,0,0,1.23,4.48l-5.55,4.93a2,2,0,1,0,2.66,3Z"/><path d="M17,33.64a21.71,21.71,0,0,0,5.43-1.07l6,5.59a2,2,0,1,0,2.73-2.93l-6.89-6.41a2,2,0,0,0-2.09-.4,19.77,19.77,0,0,1-5.33,1.22,4.31,4.31,0,0,1-3.21-1.2,4.14,4.14,0,0,1-1.3-3,4.59,4.59,0,0,1,4.42-4.59,4.41,4.41,0,0,1,2.38.59,2,2,0,0,0,2.77-2.67,4.36,4.36,0,0,1-.49-1.91,4.58,4.58,0,0,1,4.45-4.57A4.35,4.35,0,0,1,29,13.49a4.24,4.24,0,0,1,1.34,3v.69c0,.92.09,3.08-.36,3.53a2,2,0,0,0,0,2.84l7,7a2,2,0,1,0,2.83-2.82l-5.86-5.9a12.87,12.87,0,0,0,.47-4.76v-.65a8.29,8.29,0,0,0-8.67-8.09,8.58,8.58,0,0,0-8.3,8.57,7,7,0,0,0-.79,0A8.61,8.61,0,0,0,8.3,25.53a8.11,8.11,0,0,0,2.55,5.81A8.37,8.37,0,0,0,17,33.64Z"/><path d="M103.05,86.36a13.26,13.26,0,0,0-5.53,1.77L91.2,81a2,2,0,0,0-3,2.65L95.64,92a2,2,0,0,0,2.64.31,11.56,11.56,0,0,1,4.91-2,4.41,4.41,0,0,1,3.21,1.2,4.18,4.18,0,0,1,1.3,3,4.58,4.58,0,0,1-4.42,4.58,4.24,4.24,0,0,1-2.37-.58,2,2,0,0,0-2.78,2.67,4.36,4.36,0,0,1,.49,1.91,4.58,4.58,0,0,1-4.45,4.57A4.31,4.31,0,0,1,91,106.51a4.24,4.24,0,0,1-1.34-3A4.43,4.43,0,0,1,91,100.29a2,2,0,0,0,.61-1.46A2,2,0,0,0,91,97.38l-9-8.25a2,2,0,0,0-2.71,3l7.61,7a8.43,8.43,0,0,0-1.25,4.51,8.29,8.29,0,0,0,8.32,8.1h.35a8.58,8.58,0,0,0,8.3-8.57,7,7,0,0,0,.79,0,8.62,8.62,0,0,0,8.29-8.64,8.11,8.11,0,0,0-2.55-5.81A8.39,8.39,0,0,0,103.05,86.36Z"/><path d="M38.42,88,29,97.44a2,2,0,0,0-.58,1.43,2,2,0,0,0,.61,1.42,4.44,4.44,0,0,1,1.35,3.21,4.25,4.25,0,0,1-1.34,3,4.35,4.35,0,0,1-3.19,1.17,4.58,4.58,0,0,1-4.45-4.54,4.53,4.53,0,0,1,.5-1.94,2,2,0,0,0-2.77-2.67,4.32,4.32,0,0,1-2.36.59,4.6,4.6,0,0,1-4.44-4.59,4.14,4.14,0,0,1,1.3-3,4.38,4.38,0,0,1,3.21-1.2,11.46,11.46,0,0,1,4.9,2,2,2,0,0,0,2.51-.16l9.16-8.42a2,2,0,0,0-2.7-3l-8,7.4A13.42,13.42,0,0,0,17,86.36a8.32,8.32,0,0,0-6.1,2.3A8.11,8.11,0,0,0,8.3,94.47a8.61,8.61,0,0,0,8.31,8.64,6.62,6.62,0,0,0,.77,0,8.57,8.57,0,0,0,8.29,8.57H26a8.29,8.29,0,0,0,8.33-8.1A8.42,8.42,0,0,0,33.06,99l8.19-8.23A2,2,0,1,0,38.42,88Z"/><path d="M56.22,62.61c0-9.9-5.49-9.9-9.91-9.9-3.38,0-7.1.36-9.1,3-1.37,1.82-1.61,4.32-.72,7.45C38.1,68.83,40.86,71,46.31,71,52.33,71,56.22,67.73,56.22,62.61ZM46.31,67c-3.36,0-4.77-.75-6-5-.37-1.28-.65-3,.06-4,1.07-1.41,4.46-1.41,5.91-1.41,4.3,0,5.91,0,5.91,5.9C52.22,66.61,48.09,67,46.31,67Z"/><path d="M83.53,55.71c-2-2.64-5.72-3-9.1-3-4.41,0-9.9,0-9.9,9.9,0,5.12,3.88,8.43,9.9,8.43,5.45,0,8.21-2.21,9.82-7.88C85.14,60,84.9,57.53,83.53,55.71Zm-3.12,6.36c-1.21,4.22-2.61,5-6,5-1.78,0-5.9-.43-5.9-4.43,0-5.9,1.6-5.9,5.9-5.9,1.45,0,4.84,0,5.91,1.41C81.05,59.07,80.77,60.79,80.41,62.07Z"/><path d="M63.55,66.87a3.62,3.62,0,0,0-6.31,0L52,76.32a2,2,0,0,0,.53,2.56L57,82.34a5.51,5.51,0,0,0,6.71,0l4.55-3.46a2,2,0,0,0,.53-2.56ZM61.33,79.16a1.58,1.58,0,0,1-1.87,0L56.3,76.75l4.09-7.33,4.1,7.33Z"/><path d="M81.27,81.78a6.63,6.63,0,0,0,5.6-1.6c3.39-3.1,4.59-10.36,4-24.2,0-17.79-13.29-31.75-30.31-31.89h-.33c-17,.14-30.31,14.1-30.31,31.81-.59,13.92.61,21.18,4,24.28a6.63,6.63,0,0,0,5.6,1.6c1.62-.21,2.76,0,3.39.5S44,84.3,44,86.53a1.81,1.81,0,0,0,.08.51l.27,4.11a2,2,0,0,0,.53,1.23c2.85,3,8.57,3.59,12.33,3.59,1.11,0,2,0,2.68-.09a1.83,1.83,0,0,0,1.07,0c.64,0,1.57.09,2.68.09a33.15,33.15,0,0,0,3.94-.22,1.36,1.36,0,0,0,.29,0,2,2,0,0,0,.84-.19c2.76-.45,5.53-1.37,7.26-3.21a2,2,0,0,0,.53-1.23L76.74,87a1.81,1.81,0,0,0,.08-.51c0-2.23.34-3.62,1.06-4.25S79.65,81.57,81.27,81.78Zm-6-2.51a8.15,8.15,0,0,0-2.39,5.84h0l-.33,5a8.06,8.06,0,0,1-2.69,1.18v-2.9a2,2,0,1,0-4,0v3.53c-1.18.08-2.37.09-3.45.06V88.36a2,2,0,0,0-4,0V92a35.13,35.13,0,0,1-3.93-.1V88.36a2,2,0,0,0-4,0v2.76a7.37,7.37,0,0,1-2.2-1l-.33-5h0a8.15,8.15,0,0,0-2.39-5.84C44,77.93,41.8,77.44,39,77.82a2.6,2.6,0,0,1-2.36-.6C34.32,75.13,33.41,68,33.92,56c0-15.61,11.62-27.84,26.47-27.9s26.48,12.29,26.48,28c.51,11.94-.4,19.06-2.7,21.15a2.62,2.62,0,0,1-2.36.6C79,77.44,76.79,77.93,75.25,79.27Z"/></svg>