<svg id="Outline" xmlns="http://www.w3.org/2000/svg" viewBox="0 0 120 120"><path d="M60,8a52,52,0,1,0,52,52A52.06,52.06,0,0,0,60,8Zm0,100a48,48,0,1,1,48-48A48.05,48.05,0,0,1,60,108Z"/><path d="M60,22.06A37.94,37.94,0,1,0,97.94,60,38,38,0,0,0,60,22.06Zm0,71.88A33.94,33.94,0,1,1,93.94,60,34,34,0,0,1,60,93.94Z"/><path d="M80.82,60.07h0a2,2,0,0,0-1.93,1.48,19.57,19.57,0,0,1-37.78,0,2,2,0,0,0-3.86,0,23.56,23.56,0,1,0,45.5,0A2,2,0,0,0,80.82,60.07ZM60,87.25a19.58,19.58,0,0,1-19.45-17.5,23.55,23.55,0,0,0,38.9,0A19.58,19.58,0,0,1,60,87.25Z"/><path d="M41,55.48l11-.75L47.78,64.92a2,2,0,0,0,.75,2.44,2,2,0,0,0,1.1.33,2,2,0,0,0,1.44-.62l7.19-7.52L62.62,69a2,2,0,0,0,1.81,1.16,2.14,2.14,0,0,0,.5-.06A2,2,0,0,0,66.43,68l-.75-11,10.19,4.27A2,2,0,0,0,78,58L70.5,50.79l9.44-4.36a2,2,0,0,0-1-3.81l-11,.75,4.27-10.19A2,2,0,0,0,69,31l-7.14,7.22-4.44-9.15a2,2,0,0,0-3.8,1l.75,11L44.13,36.83A2,2,0,0,0,42,40.12L49.5,47.3l-9.44,4.36a2,2,0,0,0,1,3.82Zm13.36-9-1.81-1.73L55.76,46a2,2,0,0,0,2.77-2l-.27-4,1.18,2.44a.61.61,0,0,0,.07.1.87.87,0,0,0,.11.18l.13.17.08.09.05,0,.17.14.14.1.18.09.17.08a1.39,1.39,0,0,0,.19.06l.18,0,.21,0h.17l.21,0,.17,0a1.06,1.06,0,0,0,.19-.06l.2-.07,0,0,.11-.06.18-.11.17-.14.09-.08,1.88-1.9L63,44.81a2,2,0,0,0,.22,1.93,2,2,0,0,0,1.76.84l3.45-.24-2.28,1a2,2,0,0,0-.54,3.27l1.81,1.73-3.18-1.34a2,2,0,0,0-2.77,2l.23,3.44L60.65,55.2a1.27,1.27,0,0,0-.07-.12,1.32,1.32,0,0,0-.12-.2.84.84,0,0,0-.15-.18l-.09-.11h0a1.25,1.25,0,0,0-.19-.15.94.94,0,0,0-.12-.09,1.51,1.51,0,0,0-.18-.09l-.17-.09-.19,0-.18,0a1,1,0,0,0-.24,0h-.14a1.46,1.46,0,0,0-.22,0l-.17,0-.16,0-.22.07h0l-.14.08-.18.11-.2.17-.09.08,0,0h0l-1.7,1.78L57,53.29a2,2,0,0,0-.22-1.94A2,2,0,0,0,55,50.52l-3.45.23,2.28-1a2,2,0,0,0,.54-3.26Z"/></svg>