<svg id="Outline" xmlns="http://www.w3.org/2000/svg" viewBox="0 0 120 120"><path d="M63.89,28.75V15.56a1.5,1.5,0,0,0-3,0V28.75a1.5,1.5,0,0,0,3,0Z"/><path d="M101.8,85.22l-12.28-25a8.78,8.78,0,0,0,.24-7c-.56-1.59-3-6.53-5.08-10.58-1-1.86-1.74-3.32-2.39-4.49a23.24,23.24,0,0,0-1.61-2.76,7.71,7.71,0,0,0-1.12-1.44,8.7,8.7,0,0,0-3.69-2.68V24.68a23.05,23.05,0,0,0-7-16.53,13.85,13.85,0,0,0-3.48-2.46,7.09,7.09,0,0,0-3-.94,5.39,5.39,0,0,0-2,.48,13.34,13.34,0,0,0-4.78,3.38l-.66.72a22.88,22.88,0,0,0-6.05,15.52v6.3a11.69,11.69,0,0,0-3.75,2.93,1.57,1.57,0,0,0-.56.61c-.55.63-1.13,1.35-1.74,2.18l-.1.14L36,48.56a12.66,12.66,0,0,0-1.25,10.13A11.89,11.89,0,0,0,35.27,60L22.74,85.2a2.46,2.46,0,0,0-.07,2.07,2.42,2.42,0,0,0,1.49,1.38l19.7,6.84-.39,8.1L36,106.92A2.41,2.41,0,0,0,37,111.5l11.58-.1h2.27a3.42,3.42,0,0,0,3.37-2.51L57,98.54h3.84V111a1.5,1.5,0,0,0,3,0V98.54h3.76l2.82,10.37a3.44,3.44,0,0,0,3.36,2.49h.5l13.37.1a2.41,2.41,0,0,0,1-4.6l-7.45-3.31-.39-8.1,19.49-6.83a2.45,2.45,0,0,0,1.47-3.44ZM86.93,54.15c.34,1,1.26,4.38-1.41,6.11a2,2,0,0,1-1.16.3l-20.49-.11a5.85,5.85,0,0,0,0-2.66s0,0,0,0,0-.1-.05-.15h0l16.11-.15h.18a1.83,1.83,0,0,0,1.37-2.68l-4-8.49A8.39,8.39,0,0,1,78,37.77l.34-.45A183.29,183.29,0,0,1,86.93,54.15ZM68.76,88.08l0,0L63.86,74.65v-.42a5.65,5.65,0,0,0,4-3.94h3.35a1.5,1.5,0,0,0,0-3H67.81a5.67,5.67,0,0,0-3.58-3.84l12.06.07,10,16.63Zm-30.41-8,7.3-16.39L56,64h3.37a5.65,5.65,0,0,0-2.42,3.27H53.54a1.5,1.5,0,0,0,0,3h3.38a5.65,5.65,0,0,0,3.94,3.94v.24l-4.67,12.4a1.27,1.27,0,0,0-.06.18c-.1.43-.2.76-.27,1ZM51.5,36.9a7.25,7.25,0,0,0-2.69-2.25,3.37,3.37,0,0,1,1.5-.81h0l.11,0c.28.08,6.9,2,11.88,2h.52a39.46,39.46,0,0,0,11.31-2A3.6,3.6,0,0,1,76.42,35c-.29.33-.57.67-.83,1a11.43,11.43,0,0,0-.91,11.53L78,54.46l-14.1.13V52.87a1.5,1.5,0,1,0-3,0v2a6.63,6.63,0,0,0-1.41-.45,25.9,25.9,0,0,0-2.91-.3l-9.77-.44c3.88-6.39,5.59-9.5,5.87-10.67A7.35,7.35,0,0,0,51.5,36.9Zm13.5,32a2.66,2.66,0,1,1,0-.3s0,.1,0,.15S65,68.89,65,68.94ZM51.83,24.85a19.89,19.89,0,0,1,5.26-13.49l.65-.72A10.42,10.42,0,0,1,61.44,8a2.85,2.85,0,0,1,.9-.26A4.8,4.8,0,0,1,64,8.37a11.07,11.07,0,0,1,2.73,1.94,20.07,20.07,0,0,1,6.11,14.37v6.5a36,36,0,0,1-10.4,1.75h-.08a47,47,0,0,1-10.56-1.77ZM38.6,50.06l6.64-11.47c.45-.61.87-1.14,1.26-1.6a4.25,4.25,0,0,1,3.22,5.29c-.14.59-1.29,2.88-5.94,10.5-.3.5-.52.85-.58,1a1.82,1.82,0,0,0,1.3,2.8h.12l11.21.5.52,0a21,21,0,0,1,2.55.26A3.09,3.09,0,0,1,61,58.72a2.14,2.14,0,0,1-.27,1.67,2,2,0,0,1-1.59.64H56l-11.3-.33h-.05l-4.38-.12a2,2,0,0,1-1.13-.31,4.55,4.55,0,0,1-1.56-2.48A9.71,9.71,0,0,1,38.6,50.06ZM25.69,86,37.32,62.61l.23.17a4.93,4.93,0,0,0,2.75.78l2.1.07L35.31,79.54a2.15,2.15,0,0,0-.15,1.63,2.12,2.12,0,0,0,1.16,1.31l8,3.62L44,92.36Zm25.67,22.09a.42.42,0,0,1-.42.31h-.55l-10.53.07,4.87-2.16a2.83,2.83,0,0,0,1.73-2.44l.79-16.43,8.27,3.75a1.73,1.73,0,0,0,.32.11h0Zm6.47-12.55,3-11.33V95.54Zm6,0V84.66l2.95,10.88Zm21,12.93-8.76-.07H73.75a.42.42,0,0,1-.41-.29l-4.56-16.8h.08a1.73,1.73,0,0,0,.32-.11l8.27-3.75.79,16.46a2.82,2.82,0,0,0,1.69,2.4ZM80.69,92.36l-.3-6.26,8-3.62a2.13,2.13,0,0,0,1-3L79.8,63.54l4.51,0h.15a4.92,4.92,0,0,0,2.69-.79c.08-.05.14-.12.22-.17L98.85,86Z"/><path d="M58.21,45.46h2.62v2a1.5,1.5,0,0,0,3,0v-2h2.66a1.5,1.5,0,0,0,0-3H63.83V39.75a1.5,1.5,0,0,0-3,0v2.71H58.21a1.5,1.5,0,0,0,0,3Z"/><path d="M66.51,22.31H69.8a1.5,1.5,0,0,0,0-3H66.51a1.5,1.5,0,0,0,0,3Z"/><path d="M58.21,19.31h-3.7a1.5,1.5,0,0,0,0,3h3.7a1.5,1.5,0,0,0,0-3Z"/></svg>