<svg id="Outline" xmlns="http://www.w3.org/2000/svg" viewBox="0 0 120 120"><defs><style>.cls-1{font-size:12px;fill:#010101;stroke:#010101;stroke-miterlimit:10;font-family:AlchemyEsoteric-Regular, Alchemy Esoteric;}</style></defs><path d="M109.88,8h-8.31a2,2,0,0,0-1.31.49L31,68.71a10.61,10.61,0,0,1-2-6.11V51.94a2,2,0,0,0-4,0V62.6a14.68,14.68,0,0,0,4.22,10.25h0l0,0,.09.09,3.33,3.28L22.39,86.71A12.72,12.72,0,1,0,33.15,97.32L43.46,86.87,48,91.37l.12.1h0a14.9,14.9,0,0,0,10.36,4.2H69.3a2,2,0,1,0,0-4H58.52a10.93,10.93,0,0,1-6.28-2l59.18-71.07a2,2,0,0,0,.46-1.28V10A2,2,0,0,0,109.88,8ZM26.81,105.4A8.72,8.72,0,1,1,14.4,93.15a8.59,8.59,0,0,1,6.16-2.6,8.73,8.73,0,0,1,6.25,14.85Zm4.9-12.32a12.74,12.74,0,0,0-5.06-5l8.9-9,5.06,5Zm76.17-76.47L49.28,87l-6.21-6.12L70.2,53.35a2,2,0,0,0-2.85-2.81L40.23,78.06l-6.51-6.42L102.32,12h5.56Z"/><path d="M25.83,100.16a16.39,16.39,0,0,1-2-1.1,14.58,14.58,0,0,1,1.85-1.38,1.5,1.5,0,0,0,.18-2.4l-2-1.74a1.5,1.5,0,0,0-1.3-.34,1.53,1.53,0,0,0-1.05.85,14.65,14.65,0,0,1-1.1,2A14.58,14.58,0,0,1,19,94.22,1.5,1.5,0,0,0,16.6,94l-.87,1h0l-.87,1a1.52,1.52,0,0,0-.34,1.31,1.49,1.49,0,0,0,.85,1,16,16,0,0,1,2,1.11,15.43,15.43,0,0,1-1.86,1.38,1.47,1.47,0,0,0-.69,1.15,1.5,1.5,0,0,0,.51,1.25l2,1.74a1.48,1.48,0,0,0,1,.37,1.73,1.73,0,0,0,.32,0,1.55,1.55,0,0,0,1-.85,14.76,14.76,0,0,1,1.1-2,15.43,15.43,0,0,1,1.38,1.86,1.5,1.5,0,0,0,2.4.18l.87-1h0l.87-1a1.5,1.5,0,0,0,.34-1.3A1.53,1.53,0,0,0,25.83,100.16Z"/><text class="cls-1" transform="translate(94.66 -91.43) rotate(90)">S<tspan x="6.9" y="0">I</tspan><tspan x="9.65" y="0">G</tspan><tspan x="15.75" y="0">N</tspan><tspan x="21.83" y="0">O</tspan></text></svg>