<svg id="Outline" xmlns="http://www.w3.org/2000/svg" viewBox="0 0 120 120"><path d="M90.67,105.05l-9.8-62.58a14.16,14.16,0,0,0-7.51-10.24l2.51-1h0L79.06,30a3,3,0,0,0,1.21-4.85L67.86,11.9a12.4,12.4,0,0,0-9-3.91h0a12.35,12.35,0,0,0-9,3.92L37.6,25a3.15,3.15,0,0,0,1.28,5.12L44,31.86c-2.77,1.64-4.89,4.3-6.46,9.8a28.92,28.92,0,0,0-.76,3.5L27,105a2,2,0,0,0,.66,1.83c.31.27,7.93,6.66,31.16,4.78,3,.24,5.67.35,8.14.35,16.9,0,22.74-4.89,23-5.13A2,2,0,0,0,90.67,105.05ZM41.43,26.76,52.76,14.64A8.24,8.24,0,0,1,58.85,12h0a8.27,8.27,0,0,1,6.09,2.64L76.31,26.8l-1.89.72h0l-7.67,2.91a2.34,2.34,0,0,0-.44.24L63.17,31.9a23.5,23.5,0,0,0-3.1,1.46c-4-1.29-9.49-3.49-9.55-3.51l-.07,0,0,0Zm-.68,19a26.12,26.12,0,0,1,.67-3c1.83-6.41,4-7.61,8.27-8.93,1.19.47,3.81,1.49,6.46,2.43-7.44,7-7.51,17.08-7.3,20.35l-1,51.34c-9.8-.36-14.79-2.51-16.63-3.54ZM59,107.65a1.82,1.82,0,0,0-.33,0c-2.48.21-4.75.3-6.86.33l1-51.38v-.18c-.2-2.93-.22-12.94,7.76-18.69a18.14,18.14,0,0,1,4-2.11l3.11-1.21c4.93,1,8.51,4.39,9.18,8.68l9.6,61.3C84.07,105.76,76.2,109.07,59,107.65Z"/><path d="M73.86,50.25H69.44V45.87a2,2,0,0,0-4,0v4.38H61a2,2,0,0,0,0,4h4.42v4.38a2,2,0,0,0,4,0V54.25h4.42a2,2,0,0,0,0-4Z"/><path d="M58.19,32a1.81,1.81,0,0,0,.65-.11l12.44-4.27a2.18,2.18,0,0,0-.16-4.17L65.64,22a29.74,29.74,0,0,0-16.49.38L47,23a2.65,2.65,0,0,0-.11,5l10.62,3.81A1.89,1.89,0,0,0,58.19,32Zm6.1-6.21-6.08,2.09-6.05-2.17A25.91,25.91,0,0,1,64.29,25.74Z"/></svg>