<svg id="Outline" xmlns="http://www.w3.org/2000/svg" viewBox="0 0 120 120"><path d="M33.43,64.57A4.44,4.44,0,1,0,37.86,69,4.44,4.44,0,0,0,33.43,64.57Zm0,4.87a.44.44,0,1,1,.43-.43A.44.44,0,0,1,33.43,69.44Z"/><path d="M44.69,64.57a4.44,4.44,0,1,0,3.13,1.3A4.4,4.4,0,0,0,44.69,64.57Zm.3,4.74h0a.37.37,0,0,1-.61,0,.42.42,0,0,1-.12-.3.42.42,0,0,1,.12-.31.47.47,0,0,1,.31-.13.39.39,0,0,1,.3.13.4.4,0,0,1,.13.31A.39.39,0,0,1,45,69.31Z"/><path d="M33.43,75a4.44,4.44,0,1,0,4.43,4.43A4.44,4.44,0,0,0,33.43,75Zm0,4.87a.44.44,0,0,1-.44-.44.44.44,0,0,1,.87,0A.44.44,0,0,1,33.43,79.82Z"/><path d="M44.69,75a4.44,4.44,0,1,0,3.13,1.3A4.4,4.4,0,0,0,44.69,75Zm.3,4.74h0a.37.37,0,0,1-.61,0,.45.45,0,0,1-.12-.31.42.42,0,0,1,.12-.3.43.43,0,0,1,.31-.13.44.44,0,0,1,.43.43A.43.43,0,0,1,45,79.69Z"/><path d="M44.69,85.6a4.44,4.44,0,1,0,0,8.87,4.4,4.4,0,0,0,3.13-1.3h0a4.44,4.44,0,0,0-3.13-7.57Zm.3,4.74h0a.37.37,0,0,1-.61,0,.42.42,0,0,1-.12-.3.44.44,0,0,1,.12-.31.47.47,0,0,1,.31-.13.43.43,0,0,1,.3.13.41.41,0,0,1,.13.31A.39.39,0,0,1,45,90.34Z"/><path d="M52.56,50.91H36.77a2,2,0,0,0,0,4H52.56a2,2,0,0,0,0-4Z"/><path d="M99.32,30c-.52-1.11-1.08-2.21-1.68-3.26A36.32,36.32,0,0,0,66.15,8.43H53.85A36.32,36.32,0,0,0,22.36,26.74c-.61,1.06-1.17,2.16-1.68,3.26a42.49,42.49,0,0,0-3.4,22.28l0,.2,7,32.69a18.1,18.1,0,0,0,7.34,11.08L49.3,108.63a18.67,18.67,0,0,0,21.4,0L88.36,96.25A18.1,18.1,0,0,0,95.7,85.17l7-32.69a1.42,1.42,0,0,0,0-.2A42.49,42.49,0,0,0,99.32,30Zm-.57,21.75-7,32.58A14.11,14.11,0,0,1,86.07,93L68.4,105.35h0a14.64,14.64,0,0,1-16.8,0L33.93,93a14.11,14.11,0,0,1-5.72-8.65l-7-32.58a38.46,38.46,0,0,1,3.07-20.08c.46-1,1-2,1.52-3a32.29,32.29,0,0,1,28-16.29h12.3a32.29,32.29,0,0,1,28,16.29c.55,1,1.06,2,1.52,3A38.41,38.41,0,0,1,98.75,51.75Z"/><path d="M86.57,64.57A4.44,4.44,0,1,0,91,69,4.44,4.44,0,0,0,86.57,64.57Zm0,4.87A.44.44,0,1,1,87,69,.44.44,0,0,1,86.57,69.44Z"/><path d="M75.31,64.57a4.43,4.43,0,0,0-3.13,7.57h0a4.43,4.43,0,1,0,3.13-7.57Zm.31,4.74a.37.37,0,0,1-.61,0h0a.39.39,0,0,1-.13-.3A.4.4,0,0,1,75,68.7a.43.43,0,0,1,.3-.13.43.43,0,0,1,.43.44A.42.42,0,0,1,75.62,69.31Z"/><path d="M86.57,75A4.44,4.44,0,1,0,91,79.38,4.44,4.44,0,0,0,86.57,75Zm0,4.87a.44.44,0,0,1-.43-.44.44.44,0,0,1,.87,0A.44.44,0,0,1,86.57,79.82Z"/><path d="M75.31,75a4.43,4.43,0,0,0-3.13,7.57h0A4.43,4.43,0,1,0,75.31,75Zm.31,4.74a.37.37,0,0,1-.61,0h0a.43.43,0,0,1-.13-.31.44.44,0,0,1,.43-.43.43.43,0,0,1,.31.13.42.42,0,0,1,.12.3A.45.45,0,0,1,75.62,79.69Z"/><path d="M75.31,85.6a4.43,4.43,0,0,0-3.13,7.57h0a4.43,4.43,0,0,0,6.27-6.27A4.44,4.44,0,0,0,75.31,85.6Zm.31,4.74a.37.37,0,0,1-.61,0,.39.39,0,0,1-.13-.3.41.41,0,0,1,.13-.31.37.37,0,0,1,.61,0,.44.44,0,0,1,.12.31A.42.42,0,0,1,75.62,90.34Z"/><path d="M68,44V19.75a2,2,0,0,0-3.19-1.61L60,21.67l-4.77-3.53A2,2,0,0,0,52,19.75V44l-26.86.25a2,2,0,0,0-1.72,3l3.36,5.9-3.33,5.38a2,2,0,0,0,1.72,3L52,61.32V98.79a2,2,0,0,0,3.12,1.65L60,97.17l4.84,3.27A2,2,0,0,0,68,98.79V61.32l26.83.25a2,2,0,0,0,1.76-1,2,2,0,0,0,0-2l-3.33-5.38,3.36-5.9a2,2,0,0,0-1.72-3ZM89.15,54.24l2,3.3L66,57.3a2,2,0,0,0-2,2V95l-2.54-1.71A2,2,0,0,0,60,93a2,2,0,0,0-1.42.31L56,95V59.3a2,2,0,0,0-2-2l-25.21.24,2-3.3a2,2,0,0,0,0-2.05l-2.27-4L54.06,48a2,2,0,0,0,2-2V23.72l2.47,1.82a2,2,0,0,0,1.49.37,2,2,0,0,0,1.49-.37L64,23.72V46a2,2,0,0,0,2,2l25.44.24-2.27,4A2,2,0,0,0,89.15,54.24Z"/><path d="M83.23,50.91H67.44a2,2,0,0,0,0,4H83.23a2,2,0,0,0,0-4Z"/></svg>