<svg id="Outline" xmlns="http://www.w3.org/2000/svg" viewBox="0 0 120 120"><path d="M86.57,112H33.43a2,2,0,0,1-1.69-1,2,2,0,0,1-.1-1.94L52.07,67.93,10.88,88.36A2,2,0,0,1,8,86.57V33.43a2,2,0,0,1,2.89-1.79L52.07,52.07,31.64,10.88a2,2,0,0,1,.1-1.94A2,2,0,0,1,33.43,8H86.57a2,2,0,0,1,1.7.95,2,2,0,0,1,.09,1.94L67.93,52.07l41.19-20.43A2,2,0,0,1,112,33.43V86.57a2,2,0,0,1-2.89,1.79L67.93,67.93l20.43,41.19a2,2,0,0,1-.09,1.94A2,2,0,0,1,86.57,112Zm-49.91-4H83.35L61.71,64.39a2,2,0,0,1,2.68-2.68L108,83.34V36.65L64.39,58.29a2,2,0,0,1-2.68-2.68L83.35,12H36.66L58.29,55.61a2,2,0,0,1-2.68,2.68L12,36.65V83.34L55.61,61.71a2,2,0,0,1,2.68,2.68Z"/></svg>