<svg id="Outline" xmlns="http://www.w3.org/2000/svg" viewBox="0 0 120 120"><path d="M94.48,29.8a2,2,0,0,0-.91-1.41,61.37,61.37,0,0,0-32.86-9.5h-.06A61.38,61.38,0,0,0,27,28.89a2,2,0,0,0-.89,1.39c-.14,1-.25,1.64-.34,2.16a19.59,19.59,0,0,0-.35,4.4,74.64,74.64,0,0,0,1.68,15.79c.09.45.18.91.29,1.35C31.8,73,42.53,90.13,55.36,98.59a9,9,0,0,0,5,1.48l.28,0h.08a1.38,1.38,0,0,0,.2,0,8.94,8.94,0,0,0,4.39-1.44C78.09,90.13,88.83,73,93.27,54c.11-.45.2-.91.28-1.32a74.65,74.65,0,0,0,1.69-15.83,21.6,21.6,0,0,0-.39-4.76C94.75,31.52,94.63,30.83,94.48,29.8ZM61.72,50.09a2,2,0,0,0,1.48.58,81.43,81.43,0,0,0,14.93-1.89l-1.08,1.54a2,2,0,0,0,0,2.29l1.07,1.53a82.32,82.32,0,0,0-14.92-1.9,2.06,2.06,0,0,0-1.48.59,2,2,0,0,0-.59,1.48c.18,5,1,18.75,2.38,27.05L61.2,80.22l-.11,0a1,1,0,0,0-.16-.06l-.23-.07-.26,0h-.17a1.84,1.84,0,0,0-.41,0l0,0a1.9,1.9,0,0,0-.36.12l0,0-2.3,1.14c1.43-8.33,2.19-22.06,2.37-27a2,2,0,0,0-.59-1.48,2,2,0,0,0-1.48-.59,82.32,82.32,0,0,0-14.93,1.9l1.07-1.54a2,2,0,0,0,0-2.28l-1.08-1.55a81.66,81.66,0,0,0,14.94,1.9,2,2,0,0,0,1.48-.58,2,2,0,0,0,.59-1.48,78.08,78.08,0,0,0-2-15.18L59.3,34.5s0,0,.07,0a1.84,1.84,0,0,0,.35.15l.1,0a2,2,0,0,0,.43.07h.06a2.32,2.32,0,0,0,.47-.06l.12,0a2.17,2.17,0,0,0,.35-.15s0,0,.07,0l1.84-1.08a79.75,79.75,0,0,0-2,15.18A2,2,0,0,0,61.72,50.09Zm-30.48,3c-.09-.4-.18-.8-.27-1.24a71.37,71.37,0,0,1-1.59-15,15.94,15.94,0,0,1,.28-3.69c.07-.38.15-.82.24-1.4a57.29,57.29,0,0,1,28.69-8.82l-.18,6.41-3.13-1.83a2,2,0,0,0-2.93,2.31,74.11,74.11,0,0,1,3,16.75,77.65,77.65,0,0,1-17-3,2,2,0,0,0-2.21,3.06l3.35,4.82-3.34,4.82a2,2,0,0,0,2.2,3.06,77.73,77.73,0,0,1,17.06-3c-.37,8-1.45,22.83-3,28.08A2,2,0,0,0,54.27,87a2,2,0,0,0,.88-.2l3.22-1.6.22,10.55a4.9,4.9,0,0,1-1-.5C45.55,87.33,35.47,71.17,31.24,53.07Zm58.4-1.2c-.08.4-.17.8-.26,1.21C85.15,71.17,75.07,87.33,63.06,95.25a3.67,3.67,0,0,1-.48.26l-.2-10.24,3.09,1.53a2,2,0,0,0,2.8-2.37c-1.6-5.29-2.67-20-3-28.09a77.73,77.73,0,0,1,17.06,3,2,2,0,0,0,2.2-3.06l-3.35-4.82,3.35-4.82a2,2,0,0,0-2.2-3.06,77.65,77.65,0,0,1-17,3,74.75,74.75,0,0,1,3-16.76,2,2,0,0,0-2.93-2.3l-2.93,1.72.18-6.31a57.44,57.44,0,0,1,28.07,8.37c.1.61.18,1.09.26,1.5a17.85,17.85,0,0,1,.32,4.05A71.38,71.38,0,0,1,89.64,51.87Z"/><path d="M106.19,24.64c-.14-.77-.31-1.71-.5-3.1a2,2,0,0,0-.91-1.41,82.6,82.6,0,0,0-89,.66,2,2,0,0,0-.88,1.4c-.19,1.35-.35,2.22-.48,2.94a25.91,25.91,0,0,0-.45,5.8,99.78,99.78,0,0,0,2.25,21.15q.16.91.39,1.8C22,77.22,35.65,97.55,54,109.65a11.43,11.43,0,0,0,12.59,0c18.36-12.1,32-32.43,37.45-55.76.15-.6.28-1.2.38-1.76a100,100,0,0,0,2.26-21.2A27.93,27.93,0,0,0,106.19,24.64Zm-5.66,26.68q-.16.82-.36,1.65C95,75.32,81.92,94.76,64.4,106.31a7.45,7.45,0,0,1-8.18,0C38.7,94.76,25.66,75.32,20.45,53c-.13-.55-.25-1.1-.37-1.69a96.51,96.51,0,0,1-2.16-20.35,22.21,22.21,0,0,1,.39-5.1c.1-.57.23-1.25.37-2.18A78.61,78.61,0,0,1,101.86,23c.15,1,.28,1.7.39,2.33a24,24,0,0,1,.45,5.58A96.51,96.51,0,0,1,100.53,51.32Z"/></svg>