<svg id="Outline" xmlns="http://www.w3.org/2000/svg" viewBox="0 0 120 120"><defs><style>.cls-1{fill:none;stroke:#000;stroke-linecap:round;stroke-linejoin:round;stroke-width:4px;}</style></defs><path class="cls-1" d="M102,47.65V46a4.79,4.79,0,0,0-4.88-4.71H94.48V52.87a7.41,7.41,0,0,0,0,4.92v2c0,5-7.38,7.92-11.78,7.92H76.58c5.49,0,12-4.28,12-9.57V49.38a9.64,9.64,0,0,0-9-9.4,10.08,10.08,0,0,0-7.54,2.79,9.57,9.57,0,0,0-1.41,1.71V33.87H73c7.48,0,13.56-4.89,13.55-13.18H76.3a21.85,21.85,0,0,0,.29-3.37,7.84,7.84,0,0,0-6.88-7.25,10.66,10.66,0,0,0-9,3.79,1.33,1.33,0,0,1-2.1-.11,8.84,8.84,0,0,0-8.32-3.68,7.84,7.84,0,0,0-6.89,7.25,21.85,21.85,0,0,0,.29,3.37H33.49C33.49,29,39.56,33.87,47,33.87h2.3V44.48a9.57,9.57,0,0,0-1.41-1.71A10.08,10.08,0,0,0,40.39,40a9.64,9.64,0,0,0-9,9.4v8.75c0,5.29,6.55,9.57,12,9.57H37.3c-4.4,0-11.78-2.88-11.78-7.92v-2a7.41,7.41,0,0,0,0-4.92V41.26H22.85A4.79,4.79,0,0,0,18,46v1.69a7.78,7.78,0,0,0-6.82,11.86,7.45,7.45,0,0,0,7,3.5l.16,0,8,8.3,1.36,1.27a25.38,25.38,0,0,0,17.56,6.76l2.13,0a2,2,0,0,1,2.05,2V84.7H44.75a3.28,3.28,0,0,0-3.34,3.21v1.61H39.54a5.94,5.94,0,0,0-6,5.82v2.77H47.65a1,1,0,0,1,1.05,1v5.69A5.3,5.3,0,0,0,54.09,110H65.91a5.3,5.3,0,0,0,5.39-5.19V99.12a1,1,0,0,1,1-1H86.51V95.34a5.94,5.94,0,0,0-6.05-5.82H78.59V87.91a3.28,3.28,0,0,0-3.34-3.21H70.66V81.25a2,2,0,0,1,2-2l2.14,0A25.36,25.36,0,0,0,92.4,72.56l1.36-1.27,7.95-8.3.16,0a7.45,7.45,0,0,0,7-3.5A7.78,7.78,0,0,0,102,47.65Z"/><path class="cls-1" d="M41.32,47.23C43.09,53.08,52.49,55,52.49,55"/><path class="cls-1" d="M40.23,55C42,60.82,51.4,62.71,51.4,62.71"/><path class="cls-1" d="M77.56,47.23C75.8,53.08,66.39,55,66.39,55"/><path class="cls-1" d="M78.66,55c-1.77,5.85-11.17,7.74-11.17,7.74"/><line class="cls-1" x1="43.7" y1="20.69" x2="50.16" y2="24"/><line class="cls-1" x1="76.3" y1="20.69" x2="69.85" y2="24"/><line class="cls-1" x1="17.97" y1="47.65" x2="17.97" y2="53.27"/><line class="cls-1" x1="101.87" y1="47.65" x2="101.87" y2="53.27"/><line class="cls-1" x1="49.34" y1="84.7" x2="49.34" y2="89.52"/><line class="cls-1" x1="70.92" y1="84.7" x2="70.92" y2="89.52"/><line class="cls-1" x1="43.42" y1="67.7" x2="52.49" y2="67.7"/><line class="cls-1" x1="67.74" y1="67.7" x2="78.4" y2="67.7"/></svg>