<svg id="Outline" xmlns="http://www.w3.org/2000/svg" viewBox="0 0 120 120"><defs><style>.cls-1{fill:none;stroke:#000;stroke-linecap:round;stroke-linejoin:round;stroke-width:4px;}</style></defs><path class="cls-1" d="M75.23,64.55h0a32.8,32.8,0,0,0,2-10.42c0-16.08-14-18.75-16-19.05l-.43,0h0a3,3,0,0,0-1.06.2c-9,3.58-15.69,5.5-15.69,18.88a32.52,32.52,0,0,0,2,10.42h0"/><path class="cls-1" d="M60.53,30.36s.34,0,.1,0c-2-.14-10.87.6-16.68,5.92-5.49,5-7.25,14.19-6,27.17,1.1,11.47,3,17.17-.58,22.12l-2.21,4h.16a16.21,16.21,0,0,0,14.42-8h0"/><path class="cls-1" d="M55.36,55c-.51-1.08-3.06-1.64-4-.23"/><path class="cls-1" d="M71.54,81.64c2.52,4.63,7.23,8.31,13.16,8h.16l-2.21-4c-3.58-5-.41-10.65.68-22.12,1.24-13-.53-22.14-6-27.17C71.51,31,62.68,30.24,60.63,30.38l-.37,0v4.67"/><path class="cls-1" d="M60.81,72.05l1-.71c1.4,0,1.92,0,1.92,0l-2.33-.91H60.1l-2.32.91s.51,0,1.92,0l1.11.71Z"/><path class="cls-1" d="M62.46,60.87h-.68a1.26,1.26,0,0,0-.77.26l-.13.11a.59.59,0,0,1-.74,0h0l0,0a1.27,1.27,0,0,0-.83-.31h-.8"/><path class="cls-1" d="M46,64.55,48,69.14a30,30,0,0,1,1.75,12.5,21.44,21.44,0,0,1-.86,4.93,15.69,15.69,0,0,0,4-1.18,20.6,20.6,0,0,0,7.74-5.78,20.69,20.69,0,0,0,7.75,5.78,15.57,15.57,0,0,0,4,1.18,22.14,22.14,0,0,1-.86-4.93,30.36,30.36,0,0,1,1.75-12.5,35.55,35.55,0,0,0,1.94-4.59"/><path class="cls-1" d="M58,50.93c-4.19-2.92-9.31-2.28-9.42.08"/><path class="cls-1" d="M65.93,55c.5-1.08,3.06-1.64,4-.23"/><path class="cls-1" d="M63.32,50.93c4.19-2.92,9.31-2.28,9.42.08"/><path class="cls-1" d="M48.82,71.85l3.78-3.23A11,11,0,0,1,59.71,66h2.37a11,11,0,0,1,7.38,2.86l3.28,3"/><path class="cls-1" d="M92.53,91.85A10.66,10.66,0,0,0,93,77.28L110.26,60l-18-18A10.66,10.66,0,0,0,77.15,26.89L60,9.74,42.73,27a10.65,10.65,0,0,0-15,15.05L9.74,60,26.89,77.15h0A10.66,10.66,0,0,0,42,92.23h0l18,18,18-18A10.67,10.67,0,0,0,92.53,91.85Z"/></svg>