<svg id="Outline" xmlns="http://www.w3.org/2000/svg" viewBox="0 0 120 120"><path d="M55.57,20.66l-.32,1.68a2.19,2.19,0,0,0,3.14,2.35l1.52-.77,1.5.81a2.19,2.19,0,0,0,1.05.27,2.19,2.19,0,0,0,2.16-2.53l-.27-1.68,1.24-1.17a2.18,2.18,0,0,0-1.16-3.75l-1.68-.27L62,14.06a2.18,2.18,0,0,0-2-1.25,2.08,2.08,0,0,0-2,1.19l-.78,1.52-1.69.22a2.18,2.18,0,0,0-1.27,3.71ZM60,18.8a2.73,2.73,0,0,0,.47.35,2.06,2.06,0,0,0-.19.56,1.84,1.84,0,0,0-.33,0l-.26,0a2.21,2.21,0,0,0-.17-.57A2.27,2.27,0,0,0,60,18.8Z"/><path d="M40.13,33l-1.69-.27-.73-1.55a2.19,2.19,0,0,0-3.92-.05L33,32.61l-1.69.22a2.2,2.2,0,0,0-1.79,1.46,2.16,2.16,0,0,0,.53,2.25l1.2,1.21L31,39.43a2.19,2.19,0,0,0,3.14,2.35L35.61,41l1.49.81a2.19,2.19,0,0,0,1,.27,2.19,2.19,0,0,0,2.16-2.53l-.26-1.68,1.23-1.18A2.18,2.18,0,0,0,40.13,33ZM36,36.8l-.32,0-.27,0a2.21,2.21,0,0,0-.17-.57,2,2,0,0,0,.48-.33,2.73,2.73,0,0,0,.47.35A2.06,2.06,0,0,0,36,36.8Z"/><path d="M79.87,37.75l-.32,1.68a2.19,2.19,0,0,0,3.14,2.35L84.21,41l1.5.81a2.19,2.19,0,0,0,1.05.27,2.17,2.17,0,0,0,1.26-.4,2.19,2.19,0,0,0,.9-2.13l-.27-1.68,1.24-1.18A2.18,2.18,0,0,0,88.73,33l-1.68-.27-.73-1.55a2.18,2.18,0,0,0-1.95-1.24,2.23,2.23,0,0,0-2,1.19l-.77,1.52-1.69.22a2.18,2.18,0,0,0-1.27,3.71Zm4.42-1.87a2.35,2.35,0,0,0,.47.36,1.77,1.77,0,0,0-.19.56l-.33,0-.26,0a1.9,1.9,0,0,0-.18-.57A2,2,0,0,0,84.29,35.88Z"/><path d="M73.88,87.69a2,2,0,0,0-2,2V107l-22.4-.06V89.69a2,2,0,0,0-4,0v19.25a2,2,0,0,0,2,2l26.4.06h0a2,2,0,0,0,2-2V89.69A2,2,0,0,0,73.88,87.69Z"/><path d="M66.18,96.6a2.18,2.18,0,0,0-1.75-1.51l-1.68-.27L62,93.28a2.18,2.18,0,0,0-2-1.25,2.09,2.09,0,0,0-2,1.19l-.78,1.52L55.63,95a2.18,2.18,0,0,0-1.27,3.71l1.21,1.21-.32,1.68a2.19,2.19,0,0,0,3.14,2.35l1.52-.77,1.5.82a2.3,2.3,0,0,0,1.05.26,2.19,2.19,0,0,0,2.16-2.52L64.35,100l1.24-1.17A2.18,2.18,0,0,0,66.18,96.6Zm-5.91,2.33a1.84,1.84,0,0,0-.33,0l-.26,0a2.26,2.26,0,0,0-.17-.56A2.32,2.32,0,0,0,60,98a2.73,2.73,0,0,0,.47.35A2.18,2.18,0,0,0,60.27,98.93Z"/><path d="M110.37,69.25a4.84,4.84,0,0,0,.71-.91,5.9,5.9,0,0,0,.77-4.48,5.91,5.91,0,0,0-10.27-2.48,5.26,5.26,0,0,0-.49.65,5.94,5.94,0,0,0-.52,1,6,6,0,0,0-6.41,2.59,5.63,5.63,0,0,0-.62,4.89c-2.23-1.11-4.45-2.23-6.28-3.16a6.18,6.18,0,0,0,4.1-4,5.91,5.91,0,0,0-2-6.61,5.58,5.58,0,0,0,.48-1.06,5.91,5.91,0,0,0-3.69-7.48,5.76,5.76,0,0,0-2-.32l9.32,0a2,2,0,0,0,2-2V25.75a2,2,0,0,0-2-2H75.93V9a2,2,0,0,0-2-2H47.6a2,2,0,0,0-2,2V23.75H26.52a2,2,0,0,0-2,2V45.89a2,2,0,0,0,2,2h5.26a5.92,5.92,0,0,0-3.32,7.25,5,5,0,0,0,.22.58c.09.2.19.39.29.57a6.05,6.05,0,0,0,.71,10,5.29,5.29,0,0,0,1.84.66c-1.61.85-3.2,1.79-4.95,2.93a5.43,5.43,0,0,0,0-2.6,5.87,5.87,0,0,0-3.57-4,5.93,5.93,0,0,0-3.53-.23,6.13,6.13,0,0,0-.52-1,5.94,5.94,0,0,0-2.62-2.28,5.92,5.92,0,0,0-6.66,9.49,5.91,5.91,0,0,0-1.19,2.42,5.9,5.9,0,0,0,8.69,6.44,25.93,25.93,0,0,1,3,10.48A3.16,3.16,0,0,0,21.59,91a3.06,3.06,0,0,0,2.72.35A113,113,0,0,1,60,85.82a112,112,0,0,1,36.11,5.72,2.55,2.55,0,0,0,.86.15,2.63,2.63,0,0,0,1.43-.43,2.6,2.6,0,0,0,1.13-2.05c.1-2.44,1.72-7,3.41-11a6.22,6.22,0,0,0,1.36.54,5.91,5.91,0,0,0,7.37-6.3A5.83,5.83,0,0,0,110.37,69.25ZM47.48,52.78a2,2,0,0,0,2-2V45.89a2,2,0,0,0-2-2h-19V27.75H47.6a2,2,0,0,0,2-2V11H71.93V25.75a2,2,0,0,0,2,2H91.48V43.9L74,44a2,2,0,0,0-2,2v4.89a2,2,0,1,0,4,0V48l7.88,0a5.83,5.83,0,0,0-5,3.33,3.62,3.62,0,0,0-.28.65,5.82,5.82,0,0,0-.27,1.15h0a5.93,5.93,0,0,0-5.59,4,5.59,5.59,0,0,0,.94,5.08c-2-.68-4.17-1.42-6.86-2.12a4.65,4.65,0,0,0,1.25-.88,6.44,6.44,0,0,0,1.77-4.6,6,6,0,0,0-4-5.58,5.62,5.62,0,0,0,.12-1.15,5.92,5.92,0,0,0-5.86-5.91H60a5.89,5.89,0,0,0-5.88,5.91A5.52,5.52,0,0,0,54.23,49a5.61,5.61,0,0,0-3.39,2.9,5.42,5.42,0,0,0,.79,5.94,6.14,6.14,0,0,0,2.14,1.62,83.52,83.52,0,0,0-8.71,2.49,6.12,6.12,0,0,0,.5-5.36,6,6,0,0,0-5.6-4h0a5.72,5.72,0,0,0-.27-1.14,6,6,0,0,0-3.29-3.53h9.09v2.89A2,2,0,0,0,47.48,52.78Zm60.21,13.43a2,2,0,0,1-1.63.89,2,2,0,0,0-.1,4,1.84,1.84,0,0,1,.85.29,1.86,1.86,0,0,1,.88,1.41,1.94,1.94,0,0,1-.64,1.63,1.87,1.87,0,0,1-1.72.41,1.74,1.74,0,0,1-1.23-1,2,2,0,0,0-1.82-1.16h0a2,2,0,0,0-1.82,1.17c-1,2.11-3.86,8.69-4.71,13.32A117.17,117.17,0,0,0,60,81.82a117.62,117.62,0,0,0-35.94,5.44A27.6,27.6,0,0,0,19.21,74a2,2,0,0,0-1.47-.76h-.1a2,2,0,0,0-1.44.61,6.39,6.39,0,0,1-1,.8,1.9,1.9,0,1,1-2-3.24A1.61,1.61,0,0,1,14,71.1a2,2,0,0,0-.1-4,1.91,1.91,0,0,1-1.62-.9,1.84,1.84,0,0,1-.25-1.44,1.93,1.93,0,0,1,2.62-1.33,1.92,1.92,0,0,1,1,2.51,2,2,0,0,0-.07,1.68,2,2,0,0,0,3.25.65h0a1.55,1.55,0,0,0,.23-.27,1.22,1.22,0,0,0,.12-.19A2,2,0,0,1,21.52,67a1.91,1.91,0,0,1,1.16,1.31,2,2,0,0,1-.42,1.56.92.92,0,0,1-.7.25h-.41a2,2,0,0,0-1.57,3.24l.52.79c.39.61.87,1.35,1.15,1.76a2,2,0,0,0,2.79.49c5.55-3.86,8.78-5.9,13.25-7.77a1.81,1.81,0,0,0,.41-.23h0l.07-.05a2,2,0,0,0,.48-2.51A27,27,0,0,1,36.9,63a2,2,0,0,0-3.52-.56,1.09,1.09,0,0,1-.71.49,1.16,1.16,0,0,1-1-.12,2.19,2.19,0,0,1-1-1.32,2.06,2.06,0,0,1,.83-2.13,1.92,1.92,0,0,1,1.28-.27,2,2,0,0,0,.85-3.91,2,2,0,0,1-1.31-1.09L32.28,54a1.91,1.91,0,1,1,3.62-1.24,1.82,1.82,0,0,1,.09.66,10.81,10.81,0,0,0-.4,1.11,2,2,0,0,0,3.08,2.58l0,0a2.14,2.14,0,0,1,.64-.36,1.92,1.92,0,0,1,2.41,1.18c.15.44.54,1.91-.69,2.33a1.81,1.81,0,0,1-1.18,0,2.1,2.1,0,0,0-.76-.15,2,2,0,0,0-2,2h0a1.9,1.9,0,0,0,.23.92l1.5,3.24a2,2,0,0,0,1.87,1.26h0a2.12,2.12,0,0,0,.57-.09c1.35-.42,2.62-.85,3.9-1.28a81.39,81.39,0,0,1,13-3.48,2,2,0,0,0,1-.5h0l0,0h0a2,2,0,0,0,.42-.62h0a2,2,0,0,0,.16-.81L60,57.84a2,2,0,0,0-2.56-2,2.54,2.54,0,0,1-2.73-.63,1.42,1.42,0,0,1-.24-1.62,1.77,1.77,0,0,1,1.67-.91,1.61,1.61,0,0,1,.82.19A2,2,0,0,0,59,49.46a2,2,0,0,1-.91-1.64A1.89,1.89,0,0,1,60,45.91h0a1.9,1.9,0,0,1,1.33.55,1.94,1.94,0,0,1,.56,1.36,2.14,2.14,0,0,1-.14.73s0,0,0,.05a2,2,0,0,1-.7.79,1.93,1.93,0,0,0-.35.29,2,2,0,0,0,1.41,3.42,1.61,1.61,0,0,0,.44-.05l.25-.07a2.36,2.36,0,0,0,.28-.12,1.76,1.76,0,0,1,.83-.2,1.93,1.93,0,0,1,1.93,1.89,2.52,2.52,0,0,1-.57,1.74.46.46,0,0,1-.36.17c-.8,0-1-.07-1.09-.18a2,2,0,0,0-3.22,1.81c0,.38-.11,1.69-.22,2.74A2,2,0,0,0,62,63a77.44,77.44,0,0,1,10.63,3c1.54.52,3,1,4.57,1.47l.24.07a2,2,0,0,0,2.35-1.27l0-.1c.2-.5.8-2,1.11-2.82a2.15,2.15,0,0,0,.13-.57h0v-.13h0a2,2,0,0,0-2.49-1.93,1.92,1.92,0,0,1-.79,0c-.44-.34-1.53-1.43-1.22-2.33a1.9,1.9,0,0,1,2.37-1.2,2.29,2.29,0,0,1,.76.45A2,2,0,0,0,83,55.37a1.83,1.83,0,0,0-.23-.38,1.81,1.81,0,0,1-.31-1.76l0-.1a.83.83,0,0,0,.07-.13,1.89,1.89,0,0,1,2.33-1,1.92,1.92,0,0,1,1.19,2.43,1.75,1.75,0,0,1-.22.43l-1.23.82a2,2,0,0,0,.81,3.91l.27,0a1.54,1.54,0,0,1,.71.09,1.91,1.91,0,0,1,1.1,1,1.94,1.94,0,0,1,.08,1.48,2,2,0,0,1-2.3,1.44L85,63.47l-.26-.09-.1-.12,0,0a1.54,1.54,0,0,0-.17-.19,2,2,0,0,0-.66-.43,2,2,0,0,0-2.11.42l0,0a2.06,2.06,0,0,0-.47.7l-1,2.49a2,2,0,0,0,1,2.54c.09,0,9.11,4.64,15.43,7.73a2,2,0,0,0,1.56.08,2,2,0,0,0,1.15-1.07,19.51,19.51,0,0,1,1.1-2.16,2,2,0,0,0-1.25-3.09,6.07,6.07,0,0,1-1.45-.49,1.45,1.45,0,0,1-.16-2,1.94,1.94,0,0,1,3.28.06,2.18,2.18,0,0,0,.3.38,2,2,0,0,0,3.41-1.43,2,2,0,0,0-.19-.86,1.8,1.8,0,0,1,.1-1.73,1.22,1.22,0,0,1,.17-.24,1.91,1.91,0,0,1,3.33.78A1.85,1.85,0,0,1,107.69,66.21Z"/><path d="M28.66,75.7A3.39,3.39,0,1,0,30.79,80s0,0,0-.05a3.43,3.43,0,0,0-.21-2.59A3.29,3.29,0,0,0,28.66,75.7Zm-.54,3.43a.57.57,0,0,1-.72.36.63.63,0,0,1-.37-.31.54.54,0,0,1,0-.43l1.13.36Zm0,0L27,78.69a.61.61,0,0,1,.56-.39.47.47,0,0,1,.17,0A.6.6,0,0,1,28.14,79.08Z"/><path d="M39.51,71.33a3.39,3.39,0,0,0-4.58,1.39,3.42,3.42,0,0,0,1.4,4.61,3.32,3.32,0,0,0,1.59.4,3.4,3.4,0,0,0,1-.15,3.32,3.32,0,0,0,2-1.66,3.41,3.41,0,0,0,.25-2.58A3.32,3.32,0,0,0,39.51,71.33Zm-1,3.27a.58.58,0,0,1-.37.3.55.55,0,0,1-.45,0,.63.63,0,0,1-.3-.36.61.61,0,0,1,0-.44.63.63,0,0,1,.37-.31.64.64,0,0,1,.48.06A.6.6,0,0,1,38.46,74.6Z"/><path d="M81.07,72a3.4,3.4,0,0,0,1.28,6.55,3.23,3.23,0,0,0,1.25-.24h0A3.4,3.4,0,0,0,81.07,72Zm.71,3.38a.6.6,0,0,1,.32-.78l.46,1.12A.6.6,0,0,1,81.78,75.41Zm.79.33-.45-1.11a.52.52,0,0,1,.21,0,.61.61,0,0,1,.57.38A.6.6,0,0,1,82.57,75.74Z"/><path d="M94.36,77.33a3.37,3.37,0,0,0-2.57-.48,3.4,3.4,0,0,0,.7,6.73,3.51,3.51,0,0,0,.72-.07h0a3.4,3.4,0,0,0,1.15-6.18Zm-1.73,3.44h0a.6.6,0,0,1-.25-1.18l.25,1.18-.25-1.18h.13a.64.64,0,0,1,.33.1.6.6,0,0,1-.2,1.09Z"/><path d="M51,68.91A3.4,3.4,0,0,0,45.54,72a3.44,3.44,0,0,0,3.36,3,2.23,2.23,0,0,0,.37,0,3.35,3.35,0,0,0,2.31-1.27h0A3.45,3.45,0,0,0,51,68.91Zm-2.48,3.14a.57.57,0,0,1-.07-.82l.94.74A.6.6,0,0,1,48.52,72.05Zm.87-.08-.94-.75a.57.57,0,0,1,.4-.21h.06a.59.59,0,0,1,.36.11.62.62,0,0,1,.24.42A.57.57,0,0,1,49.39,72Z"/><path d="M62.75,68.59a3.37,3.37,0,0,0-4.81-.28,3.41,3.41,0,0,0-.28,4.78,3.32,3.32,0,0,0,1.69,1,3.54,3.54,0,0,0,.85.11,3.34,3.34,0,0,0,2.27-.87,3.38,3.38,0,0,0,.42-4.6Zm-2.13,2.69a.57.57,0,0,1-.45.15.57.57,0,0,1-.31-.1l.85-.82A.6.6,0,0,1,60.62,71.28Z"/><path d="M72.27,68.74a3.36,3.36,0,0,0-2.59.41,3.39,3.39,0,0,0,1.8,6.29,3.34,3.34,0,0,0,1.76-.5h0a3.41,3.41,0,0,0,1.53-2.14,3.34,3.34,0,0,0-.41-2.51A3.31,3.31,0,0,0,72.27,68.74Zm-.94,3.89a.66.66,0,0,1-.37-.24.62.62,0,0,1-.08-.48.58.58,0,0,1,.26-.37l.63,1A.61.61,0,0,1,71.33,72.63Zm.45-.07-.63-1a.56.56,0,0,1,.3-.08.64.64,0,0,1,.54.32A.59.59,0,0,1,71.78,72.56Z"/></svg>