<svg id="Outline" xmlns="http://www.w3.org/2000/svg" viewBox="0 0 120 120"><defs><style>.cls-1{fill:none;stroke:#000;stroke-linecap:round;stroke-linejoin:round;stroke-width:4px;}</style></defs><path class="cls-1" d="M25.27,44.61,11.54,29.12,11,28.58A3.46,3.46,0,0,1,10.08,26h0V10.31h0c5.58,0,6.86,3.32,6.93,10.1l0,3.28h0L30.35,33.77"/><path class="cls-1" d="M33.57,47.73,17,50.84V47.55c.48-1.91-1.35-6.64-6.94-6.64h0V54.16c0,3.32-.63,6.26,6.2,5.52l22.18.09"/><line class="cls-1" x1="31.63" y1="110" x2="31.63" y2="110"/><path class="cls-1" d="M81.92,102.06V98.39S46.44,103.86,52.1,80.88"/><path class="cls-1" d="M81.85,102.35H77.73c-3.44,0-6.23,3.78-6.23,7.22h0l19.44,0v-4.3L91,95c0-1.35,0-4.43-2.36-4.64l-12.29-.66c-1.5-.22-3.17,0-2.37-1.25.93-1.51,2.3-4.11,2.3-6,0-3.36-.05-6.89-6.71-10.88"/><path class="cls-1" d="M31.43,60.42c-.18,13,20.67,13.69,20.67,20.46"/><path class="cls-1" d="M108.32,61.11h0l-.82,1.66a2.23,2.23,0,0,0,1.25,3.12"/><path class="cls-1" d="M40.47,36.16c-3.54,0-5.62,5.39-3.47,8.2"/><path class="cls-1" d="M43.15,43.66a5.36,5.36,0,0,0-2.21,6.85"/><path class="cls-1" d="M48,51.26c-4.26-.15-5.67,6-2.87,7.7"/><path class="cls-1" d="M59.28,61.11c-2.89,1.49-3.09,8,1.18,7.14"/><path class="cls-1" d="M56.94,52.6c0,.86,1.43,2.66,2.15,3.14l.33.22a6.15,6.15,0,0,0,3.45,1h0"/><path class="cls-1" d="M62.93,46.22l-2.11-1.54a.58.58,0,0,1-.25-.49c.29-.62-.31-1.35-1.16-1.35a2.33,2.33,0,0,0-.37,0,1.3,1.3,0,0,1-1.52-1l-.23-1.13,1.91-.63a11.91,11.91,0,0,1,3.73-.62"/><path class="cls-1" d="M56.23,19.24c-.2-2.69-1.86-6.84-5.15-7.07-5.76-.4-7.45,5.45-7.77,7.3"/><path class="cls-1" d="M53.67,57.06c-4.63.36-4.11,7.45-.72,7.75"/><path class="cls-1" d="M62.69,18.29c-.09-3.51-.15-6-1.72-7.42-2.31-2.06-6.77-.17-7.15,2.63"/><path class="cls-1" d="M45.86,90.58c-9.07-.48-14,10.24-14,17.85L31.71,110H30.3L10,109.91h0c0-3.44,2.2-7.85,7.23-8.21h3l2.66.08v-.87l.83-10.82c.55-8.64,6.18-13.93,12.76-13.76"/><path class="cls-1" d="M53.55,32.79h0s-.87,3.37,2.56,3.37c.77,0,2.33,0,2.55-1.87l-5.14-1.87Z"/><path class="cls-1" d="M72.06,32.42h0s.41,3.74-2.59,3.74c-.78,0-2.33,0-2.56-1.87l5.15-1.87Z"/><path class="cls-1" d="M40.41,20.86c-4,.27-9.11,8.27-1.87,13.15"/><path class="cls-1" d="M52.87,44.36h0c-1.18-1.52-6.78-.44-6.86-8.2,0-.13,0,0,0,.47,0,.19,0-.4,0-.6a7.22,7.22,0,0,1,.68-2.84l.44-1a1.84,1.84,0,0,0,0-1.4l-.12-.34c-2.35-2.14-2.7-5.58-.78-7.68s5.38-2.07,7.73.06l1.7,1.3"/><path class="cls-1" d="M72.87,44.36h0c.86-.44,6.68-.7,6.66-7.73h0c0-.2,0-.4,0-.6a7.22,7.22,0,0,0-.68-2.84l-.75-1.68"/><path class="cls-1" d="M62.87,25a9.24,9.24,0,0,0-7.14-.83"/><path class="cls-1" d="M62.93,48v.44c-.15,1.92-2.31,3.46-5,3.52h-.18c-5.2.44-7.74-3.85-5-7.38h0"/><line class="cls-1" x1="62.92" y1="48.02" x2="62.92" y2="48.46"/><path class="cls-1" d="M80.55,76.67H82A4.27,4.27,0,0,0,86.18,73a24.18,24.18,0,0,0,.11-3.21l-.06-1.61a35.29,35.29,0,0,0-.43-4.08,18.21,18.21,0,0,1-.21-3.62c.14-2.65.72-6.09,2.59-8.46,2.38-3,5-4.13,8.69-4.41,5.45-.41,14.56,4.4,11.45,13.5"/><path class="cls-1" d="M110,76.67c-9.35,2.56-12.91-3.56-11.9-8.35a23,23,0,0,1,2.11-5.23l.45-1c2.77-5.81-2.51-8.63-5.91-5.66-2.26,2-2.11,6.59-1.76,9.45a57.08,57.08,0,0,1,.44,6.26v.06A11,11,0,0,1,93,77.67a8.8,8.8,0,0,1-5.09,5.46,10.81,10.81,0,0,1-5.6.55"/><path class="cls-1" d="M110,71.21c-1.94,2.09-7.56.62-6.55-2.88"/><line class="cls-1" x1="49.69" y1="26.69" x2="50.45" y2="25.88"/><path class="cls-1" d="M84.42,35.84C88,35,91,40.44,88.14,44.18"/><path class="cls-1" d="M80.26,45.52a3.66,3.66,0,0,1,3.57,4.95"/><path class="cls-1" d="M77.56,51.26c3,.4,3.88,5.2,2,7.26"/><path class="cls-1" d="M65.28,61.11c3.16,1.71,3.17,7.22-.3,7.22"/><path class="cls-1" d="M68.64,52.6c0,.86-1.43,2.66-2.15,3.14l-.33.22a6.15,6.15,0,0,1-3.45,1h0"/><path class="cls-1" d="M62.65,39.46a11.91,11.91,0,0,1,3.73.62l1.91.63-.23,1.13a1.3,1.3,0,0,1-1.52,1,2.33,2.33,0,0,0-.36,0c-.86,0-1.46.73-1.17,1.35a.58.58,0,0,1-.25.49L62.89,46"/><path class="cls-1" d="M69.35,19.24c.2-2.69,2-6,5.15-7.07,5.22-1.69,7.82,4.91,7.78,7.3"/><path class="cls-1" d="M71.54,56.46C76.39,58,76,64.51,72.63,64.81"/><path class="cls-1" d="M62.89,18.29c.09-3.51.3-6.07,2.06-7.22a4.84,4.84,0,0,1,7.13,2.54"/><path class="cls-1" d="M85.15,21.17c3.57,0,8.93,7.5,2.21,11.26"/><path class="cls-1" d="M76.73,31.57h0l.91-.56a6.12,6.12,0,0,0,2.12-2.08,5.22,5.22,0,0,0-.46-6.15c-1.92-2.1-5.38-2.07-7.73.06l-1.7,1.3"/><line class="cls-1" x1="72.87" y1="44.61" x2="72.87" y2="44.61"/><path class="cls-1" d="M62.87,25a8.86,8.86,0,0,1,7-.83"/><path class="cls-1" d="M62.93,48.46c.16,1.92,2,3.46,4.71,3.52h.18c5.21.44,7.74-3.85,5.05-7.38h0"/><line class="cls-1" x1="75.75" y1="26.69" x2="74.99" y2="25.88"/><line class="cls-1" x1="62.89" y1="46.22" x2="62.89" y2="49.01"/><path class="cls-1" d="M46.44,29.81a6.28,6.28,0,0,0,2.87,1.7"/></svg>