<svg id="Outline" xmlns="http://www.w3.org/2000/svg" viewBox="0 0 120 120"><path d="M40.49,101.33c-2.09-1.47-5.1-7.61-4.86-13.49.16-4,1.75-6.88,4.72-8.63a2,2,0,0,0-2-3.45c-4.15,2.46-6.46,6.58-6.67,11.92a24.53,24.53,0,0,0,4.77,15.21l-6.33,5.61A2,2,0,0,0,31.4,112a2,2,0,0,0,1.33-.5l7.93-7a2,2,0,0,0,.67-1.6A2.07,2.07,0,0,0,40.49,101.33Z"/><path d="M107.81,39.6a2.62,2.62,0,0,0-.22-.25.27.27,0,0,0-.07-.08,25.63,25.63,0,0,0-2.38-2.3A27,27,0,0,0,88.8,30.91a22.57,22.57,0,0,0-17.94,7.56c.47-3.63.89-7.33.89-8.46l0-1.94a16.73,16.73,0,0,0-1.85-8,2,2,0,0,0,0-.85c-.61-2.6-.13-4.75,1.35-6a4.33,4.33,0,0,1,4.17-1,1.84,1.84,0,0,1,1.27,1.61c.16,1.16-.08,1.7-.26,1.77a.91.91,0,0,1-.74-.16A2,2,0,0,0,72,13.73a3.79,3.79,0,0,0,.74,4.47,4.84,4.84,0,0,0,5.41,1c.91-.45,3-1.91,2.44-5.87a5.85,5.85,0,0,0-3.83-4.84,8.36,8.36,0,0,0-8.22,1.7,8.76,8.76,0,0,0-2.87,5.52,11.28,11.28,0,0,0-5.8-1.51h-.16a11.35,11.35,0,0,0-5.81,1.51,8.68,8.68,0,0,0-2.86-5.52,8.36,8.36,0,0,0-8.22-1.7A5.85,5.85,0,0,0,39,13.29c-.52,4,1.53,5.42,2.44,5.87a4.84,4.84,0,0,0,5.41-1,3.79,3.79,0,0,0,.74-4.47A2,2,0,0,0,44,15.42a1,1,0,0,1-.74.16c-.18-.07-.42-.61-.26-1.77a1.84,1.84,0,0,1,1.27-1.61,4.33,4.33,0,0,1,4.17,1c1.48,1.3,2,3.45,1.35,6a2,2,0,0,0,0,.84,16.65,16.65,0,0,0-1.85,8l0,2c0,1.11.42,4.8.89,8.43-3.72-4-9.62-8-17.93-7.58A26.94,26.94,0,0,0,14.47,37,24.55,24.55,0,0,0,12,39.34l-.19.23a17.8,17.8,0,0,0-4,11.25v.24a10.49,10.49,0,0,0,18.5,6.59,13.59,13.59,0,0,1,10.4-4.83H37l.35,0c5.95.77,10.08,3,12.33,6.8L39.12,57.38,37,56.92a2,2,0,0,0-.42,0,7.23,7.23,0,0,0,0,14.46,1.83,1.83,0,0,0,.4,0L51.4,68.2c0,.06-.11.12-.16.19-7,5.58-9.75,15.25-7,25.08a.75.75,0,0,1,0,.16l0,.07a32.33,32.33,0,0,0,3.24,7.76c2.9,4.89,6.82,8.58,11,10.38a2,2,0,0,0,.78.16,1.76,1.76,0,0,0,.45-.07,1.76,1.76,0,0,0,.45.07,2,2,0,0,0,.78-.16c4.23-1.8,8.15-5.49,11-10.38a32.33,32.33,0,0,0,3.24-7.76l0-.08a.26.26,0,0,1,0-.11c2.73-9.84,0-19.53-7-25.11h0c0-.07-.11-.13-.16-.2l12.3,2.65,2.1.45a2.71,2.71,0,0,0,.4,0,7.23,7.23,0,0,0,0-14.46,2,2,0,0,0-.42,0L69.92,59.66c2.25-3.75,6.37-6,12.31-6.8l.37,0h.3a13.59,13.59,0,0,1,10.4,4.83A10.49,10.49,0,0,0,111.8,51v-.22A17.83,17.83,0,0,0,107.81,39.6ZM38.26,66.94l-1.84.39a3.23,3.23,0,0,1,0-6.45l15,3.23ZM71.51,92.46a.43.43,0,0,0,0,.11s0,0,0,.06a28.35,28.35,0,0,1-2.83,6.79A21,21,0,0,1,59.8,108,21,21,0,0,1,51,99.42a28.59,28.59,0,0,1-2.83-6.77.19.19,0,0,0,0-.08s0-.08,0-.11c-2.43-8.69.14-17.16,6.53-21.6a.87.87,0,0,0,.1-.08l.13-.12.12-.11.06-.07.07-.09.12-.2a.6.6,0,0,0,.06-.11l0,0,.08-.23,0-.1s0-.08,0-.13a.43.43,0,0,0,0,0,14.94,14.94,0,0,0,.17-2.26l4.18-.9,4.18.9a14.94,14.94,0,0,0,.17,2.26,0,0,0,0,0,0,0,.15.15,0,0,0,0,.07,1.42,1.42,0,0,0,.07.22.5.5,0,0,0,0,.13v0l0,0a1.14,1.14,0,0,0,.1.19.21.21,0,0,0,0,.06.27.27,0,0,0,.07.08.76.76,0,0,0,.08.11l.08.1.12.09s0,0,0,.05l.08.07,0,0C71.37,75.3,73.94,83.77,71.51,92.46ZM83.2,60.88a3.23,3.23,0,0,1,0,6.45l-15-3.22ZM107.8,51a6.32,6.32,0,0,1-4.28,6,6.39,6.39,0,0,1-7.17-1.9A17.53,17.53,0,0,0,82.9,48.82h0a2.82,2.82,0,0,0-.72,0,2.47,2.47,0,0,0-.47.11c-10.66,1.39-15,7-16.65,11.81l-5.23,1.13-5.25-1.13c-1.69-4.86-6-10.41-16.65-11.81a2.47,2.47,0,0,0-.47-.11,2.82,2.82,0,0,0-.72,0h0a17.53,17.53,0,0,0-13.45,6.25A6.39,6.39,0,0,1,16.08,57,6.31,6.31,0,0,1,11.8,51v-.22A13.91,13.91,0,0,1,15,42.05L15,42a23,23,0,0,1,2-1.94A23.1,23.1,0,0,1,31,34.9c12.56-.65,18.71,11.65,19,12.17v0a1.11,1.11,0,0,0,.07.16c0,.16.1.3.15.45l0,0a1.84,1.84,0,0,0,.17.38l0,0a3.15,3.15,0,0,0,.22.29l0,0h0l.05,0,.17.14.15.11.11.05a2,2,0,0,0,2.34-.34.94.94,0,0,0,.09-.12,2.35,2.35,0,0,0,.19-.25l.1-.2a1.36,1.36,0,0,0,.11-.28,1.42,1.42,0,0,0,0-.16,1.9,1.9,0,0,0,0-.41v0a.88.88,0,0,0,0-.16,2.87,2.87,0,0,0-.14-.66,1.6,1.6,0,0,0-.05-.21l0-.1a1.65,1.65,0,0,0-.06-.32c-.43-2-2-13.83-2-15.47l.06-2c0-4.79,2.05-9.91,7.82-9.91h.16c5.77,0,7.82,5.12,7.83,10l0,1.94c0,1.7-1.57,13.71-2,15.58a.06.06,0,0,1,0,0,.19.19,0,0,1,0,.07.15.15,0,0,1,0,.07v0a1.24,1.24,0,0,1,0,.16,1.6,1.6,0,0,0,0,.21v0l0,.13c0,.12-.06.27-.09.43a1.79,1.79,0,0,0,0,.23v0a1.79,1.79,0,0,0,0,.23,1.37,1.37,0,0,0,.07.34c0,.09.06.18.1.27a1,1,0,0,0,.11.2,1.56,1.56,0,0,0,.2.27s0,.07.08.11a2,2,0,0,0,1.72.55h.06L68,49l.2-.06.13-.06.2-.11.12-.08.18-.15.06,0,0,0a2,2,0,0,0,.45-.76l0-.06.13-.38h0l.06-.15v0c.26-.53,6.43-12.81,19-12.17a23.07,23.07,0,0,1,14,5.13,20.78,20.78,0,0,1,2,1.9l.09.09a.27.27,0,0,0,.07.08,13.86,13.86,0,0,1,3.11,8.72Z"/><path d="M83.19,102.89A24.53,24.53,0,0,0,88,87.68c-.21-5.34-2.52-9.46-6.67-11.92a2,2,0,0,0-2,3.45c3,1.75,4.56,4.66,4.72,8.63.24,5.88-2.76,12-4.85,13.49a2,2,0,0,0-.85,1.53,2,2,0,0,0,.67,1.6l7.93,7a2,2,0,0,0,1.33.5,2,2,0,0,0,1.33-3.5Z"/></svg>