<svg id="Outline" xmlns="http://www.w3.org/2000/svg" viewBox="0 0 120 120"><path d="M60.26,44.4a2,2,0,0,0-2,2v3.46H54.55a2,2,0,0,0,0,4h3.71v4a2,2,0,0,0,4,0v-4H66a2,2,0,0,0,0-4h-3.7V46.4A2,2,0,0,0,60.26,44.4Z"/><path d="M87.41,85.57A2,2,0,0,0,85.2,87a9.12,9.12,0,0,1-1.81,3.51,18.72,18.72,0,0,0,1.78-4.87A2,2,0,0,0,84,83.49a31.2,31.2,0,0,0-24.58-.8l.42-.33a12.32,12.32,0,0,0,4.81-8.48,9.92,9.92,0,0,0-2.61-7.46c-3-3.34-9.42-4.18-15.59-2.06a20.34,20.34,0,0,0-6.33,3.57,9.9,9.9,0,0,0-3.51,8.86v.06a6.73,6.73,0,0,1-1.46,3.28,2,2,0,0,0,1.54,3.28c.41,0,1.93-.13,4.27-1.88a10,10,0,0,0,2-2.14,1.72,1.72,0,0,0,.65-1.06c.19-.33,1.3-2,5.42-4.54,2.7-1.68,4.59-1.77,5.46-1.29a1.12,1.12,0,0,1,.6,1c0,1.6-4.55,4.1-6.5,5.16-.61.34-1.17.65-1.64.93l-.84.48c-3.37,1.91-11.27,6.38-12,14.73-.88,8.9,4,11.92,7.27,13.91a18.06,18.06,0,0,0,9.42,2.62l10.39,0h.18a31.44,31.44,0,0,0,14.79-3.8c8.15-4.49,12.6-10.48,12.88-17.41V87.55A2,2,0,0,0,87.41,85.57Zm-13.1,18.51a27.37,27.37,0,0,1-13,3.31h-.18l-10.22,0a14,14,0,0,1-7.33-2c-3.1-1.9-6-3.69-5.39-10.14.51-6.27,6.88-9.88,9.94-11.61l.91-.52c.43-.26,1-.55,1.53-.86,3.62-2,8.57-4.7,8.57-8.67A5.09,5.09,0,0,0,56.46,69a6.29,6.29,0,0,0-3.13-.77,12.3,12.3,0,0,0-6.39,2.15,36.51,36.51,0,0,0-3.17,2.2,1.93,1.93,0,0,0-1-1.14,2.13,2.13,0,0,0-.37-.14L42.7,71a16.23,16.23,0,0,1,5.08-2.88c5.18-1.78,9.7-.84,11.32,1a5.88,5.88,0,0,1,1.59,4.47,8.37,8.37,0,0,1-3.34,5.68,60,60,0,0,1-6,4.16,35.47,35.47,0,0,0-5.81,4.27,10.21,10.21,0,0,0-2.67,7,2,2,0,0,0,3.53,1.18A31.61,31.61,0,0,1,55.19,89c6.9-3.58,15.3-6.62,25.64-2.55A17.09,17.09,0,0,1,77,92.81a1.86,1.86,0,0,0-.42.42c-3.65,3.56-10.07,6.69-21.25,5.62a2,2,0,1,0-.38,4c12.17,1.17,19.52-2.26,23.92-6.35a9.7,9.7,0,0,0,4.89-1.2C81.7,99.29,77.75,102.19,74.31,104.08Z"/><path d="M112.05,109.11,70.35,25.24a13.76,13.76,0,0,0,2.88-8.4V13.63a2,2,0,0,0-3.38-1.44l-4.21,4a14,14,0,0,0-3.85-7.65,2,2,0,0,0-2.89.14,18.87,18.87,0,0,0-3.6,7l-3.46-4.09a2,2,0,0,0-3.44.71L48,13.63a13.2,13.2,0,0,0,1.54,11.1L13,94.81a2,2,0,0,0-.23.92v4.87l-4.26,8.5a2,2,0,0,0,.83,2.66,2,2,0,0,0,1,.24A2,2,0,0,0,12,111L42,60.34h2.14a2,2,0,0,0,1.8-1.14L59.8,30.32H60L73.39,59.15a2,2,0,0,0,1.8,1.16l2.4,0L93.43,91.51a2.19,2.19,0,0,0,.43.57l5.41,5,9.32,14.06a2,2,0,0,0,3.46-2ZM55.71,22.32a2,2,0,0,0,3.44-1.85c-.73-2.57.34-5.26,1.35-7.06a8.49,8.49,0,0,1,.76,7.2,2.32,2.32,0,0,0-.1.79,2,2,0,0,0,3.38,1.38l4.56-4.35a9.32,9.32,0,0,1-7.81,7.82l-.19,0-1.62.07a9,9,0,0,1-3-.73,8.66,8.66,0,0,1-5-8.34Zm-12.88,34h-2a2,2,0,0,0-1.72,1L21.58,86.93,52.43,27.81a12.16,12.16,0,0,0,2.39,1.42c.3.13.6.23.9.34Zm54,33L80.6,57.43a2,2,0,0,0-1.77-1.09l-2.34,0L64.08,29.7a13.05,13.05,0,0,0,3.22-1.59L98.55,91Z"/></svg>