<svg id="Outline" xmlns="http://www.w3.org/2000/svg" viewBox="0 0 120 120"><path d="M111.93,84.41c0-22.33-18.1-40.55-41.42-42V33.17a13.36,13.36,0,0,0-2.42-8L66.56,21.4l.16,0c4.25.5,10.69,3,17.21,6.76a2,2,0,0,0,1,.26,2,2,0,0,0,1-3.73c-3.35-1.92-11.87-6.46-18.74-7.27l-1.08-.13c-.45-.07-.79-.11-1.25-.14l-2.8-6.92A2,2,0,0,0,60,9a2,2,0,0,0-2.08,1.27l-2.62,6.86A54.13,54.13,0,0,0,34,23a2,2,0,0,0,.87,3.8,2.08,2.08,0,0,0,.87-.2,50.61,50.61,0,0,1,18-5.35l-1.6,4.19a12.35,12.35,0,0,0-2.65,7.71v9.25c-23.33,1.45-41.42,19.67-41.42,42C8.07,88.48,8,96.13,8,96.13a2,2,0,0,0,3.8.9A36.89,36.89,0,0,1,25.55,82.42a46.3,46.3,0,0,1,21.16-7.07,30.47,30.47,0,0,1-3,22.31L37.28,109A2,2,0,0,0,39,112H81a2,2,0,0,0,1.74-3l-7-12.38a26.85,26.85,0,0,1-3.07-17.48c.21-1.27.45-2.74.67-3.81a46.42,46.42,0,0,1,21.1,7.07A36.89,36.89,0,0,1,108.2,97a2,2,0,0,0,3.8-.9S111.93,88.48,111.93,84.41ZM58.59,19.79h0L60.05,16l2.27,5.62a8.93,8.93,0,0,0-1.47-.14h-.7a9.73,9.73,0,0,0-2.3.29ZM97.52,79.65V72.13a2,2,0,0,0-4,0v5.12A51.69,51.69,0,0,0,83,73V65.9a2,2,0,1,0-4,0v6.17a46.76,46.76,0,0,0-7.11-.8A2,2,0,0,0,70,72.55a39.29,39.29,0,0,0-1.22,6A30.87,30.87,0,0,0,72.27,98.6l5.29,9.4h-7v-6.49a2,2,0,0,0-4,0V108h-13v-6.49a2,2,0,0,0-4,0V108H42.44l4.72-8.38a34.52,34.52,0,0,0,3.22-26.05c-.13-.44-.24-.79-.33-1a2,2,0,0,0-1.92-1.28,46.9,46.9,0,0,0-7.11.8V65.9a2,2,0,1,0-4,0V73a51.69,51.69,0,0,0-10.54,4.25V72.13a2,2,0,0,0-4,0v7.52a43.82,43.82,0,0,0-10.42,9.5c0-1.7,0-3.41,0-4.74,0-20.57,17.07-37.29,38.87-38.06l.58,0a2,2,0,0,0,2-2V33.17a8.35,8.35,0,0,1,1.94-5.44l0-.06a6.22,6.22,0,0,1,4.67-2.23h.7a4.84,4.84,0,0,1,3.86,1.83l.09.1a9.61,9.61,0,0,1,1.71,5.8V44.33a2,2,0,0,0,2,2l.59,0c21.79.77,38.86,17.49,38.86,38.06,0,1.33,0,3,0,4.74A43.82,43.82,0,0,0,97.52,79.65Z"/><path d="M45.48,18.08a2,2,0,0,0,1.38-.55L50.51,14a2,2,0,1,0-2.76-2.89L44.1,14.63a2,2,0,0,0,1.38,3.45Z"/><path d="M46.42,32.49A2,2,0,0,0,48,29.21l-3.34-4a2,2,0,1,0-3.07,2.56l3.33,4A2,2,0,0,0,46.42,32.49Z"/><path d="M70.42,17.35A2,2,0,0,0,71.54,17l4.06-2.76a2,2,0,1,0-2.25-3.31l-4.06,2.75a2,2,0,0,0,1.13,3.66Z"/><path d="M80.89,20.94a2,2,0,0,0,1.26-.45l3.74-3a2,2,0,0,0-2.52-3.11l-3.75,3.05a2,2,0,0,0,1.27,3.55Z"/><path d="M72.22,24.89a2,2,0,0,0-.5,2.79l3.2,4.6a2,2,0,0,0,1.65.86,1.9,1.9,0,0,0,1.13-.36A2,2,0,0,0,78.21,30L75,25.4A2,2,0,0,0,72.22,24.89Z"/></svg>