<svg id="Outline" xmlns="http://www.w3.org/2000/svg" viewBox="0 0 120 120"><defs><style>.cls-1{fill:#010101;}</style></defs><path class="cls-1" d="M46.84,38.41h2.22a2,2,0,0,0,0-4H46.84a2,2,0,0,0,0,4Z"/><path class="cls-1" d="M111.46,48.81a2,2,0,0,0-1.59-.8H83.13L81.27,41.4c1.3-.16,2.68-.08,3,.66a2,2,0,0,0,3.79-.89V37.09a5,5,0,0,0-4.86-5C82.17,32,81,32,80.32,32h-.55A2.41,2.41,0,0,1,77.9,30.9c-1.68-2.29-4.68-2.36-7-2.36H70.7c-3.88,0-6.54.39-8,5.59l-2.8,7.31-2.78-7.31c-1.44-5.19-4.1-5.59-8-5.59h-.23c-2.29,0-5.29.07-7,2.36A2.41,2.41,0,0,1,40.1,32h-.55c-.71,0-1.85,0-2.94.06a5,5,0,0,0-4.85,5v4.08a2,2,0,0,0,3.79.89c.37-.75,1.75-.83,3.05-.66L36.74,48H10a2,2,0,0,0-1.93,2.55,44.35,44.35,0,0,0,31,28.79l-5.73,9.91-8.5,1.48a2,2,0,0,0,.34,4l.35,0,5.19-.91-2.89,5a2,2,0,0,0,1.73,3,2,2,0,0,0,1.73-1l3-5.13,1.65,4.15a2,2,0,1,0,3.72-1.48l-2.82-7.08,6.38-11,7.52,2.47L42.2,106.39a2,2,0,0,0,3,2.3l6.91-4.94,6.58,8.32a1.88,1.88,0,0,0,.35.34l.08,0a2.32,2.32,0,0,0,.41.22l.07,0,.15,0,.11,0a1.63,1.63,0,0,0,.8,0l.11,0,.15,0,.07,0a2.32,2.32,0,0,0,.41-.22l.08,0a1.88,1.88,0,0,0,.35-.34l6.58-8.32,6.91,4.94a2,2,0,0,0,3-2.3L69.88,82.68l7-2.3,6.28,10.85-2.82,7.08a2,2,0,0,0,3.72,1.48l1.65-4.15,3,5.13a2,2,0,0,0,1.73,1,2,2,0,0,0,1.73-3l-2.89-5,5.19.91a2.07,2.07,0,0,0,.35,0,2,2,0,0,0,.34-4l-8.5-1.48-5.75-9.94a44.32,44.32,0,0,0,30.88-28.76A2,2,0,0,0,111.46,48.81ZM45.57,76.11l4-6.94a2,2,0,0,0,2.4.18,14.62,14.62,0,0,1,3.39-1.61,4.59,4.59,0,0,0,9.17.09,14.75,14.75,0,0,1,3.12,1.52,1.94,1.94,0,0,0,1.08.32,2,2,0,0,0,1.53-.73l4.15,7.17ZM59.83,67h.47a.61.61,0,1,1-.94.5.6.6,0,0,1,.28-.51Zm1.22-4A4.32,4.32,0,0,0,60,62.93a4.59,4.59,0,0,0-1.06.13,18.43,18.43,0,0,0-6.73,1.64L60,51.2l8,13.73A18.45,18.45,0,0,0,61.05,63.07ZM38.26,52a2,2,0,0,0,1.92-1.46L43,40.46A2,2,0,0,0,41.74,38a12.16,12.16,0,0,0-6-.51v-.42a1,1,0,0,1,1-1c1.05,0,2.14-.06,2.82-.06h.55a6.34,6.34,0,0,0,5.09-2.72c.5-.68,2.32-.74,4-.74,3.08,0,3.4,0,4.14,2.73l.06.19L57.79,47,41.15,75.76A41.05,41.05,0,0,1,22.69,66l4.92-3.2a2,2,0,1,0-2.18-3.35L19.84,63.1a41.14,41.14,0,0,1-7-11.09ZM72.47,101.7l-3.24-2.32a2,2,0,0,0-2.74.39l-4.19,5.3V90.27a2,2,0,0,0-4,0v14.8l-4.2-5.3a2,2,0,0,0-2.73-.39l-3.24,2.32,7-19.61a2,2,0,0,0-.08-1.55,1.84,1.84,0,0,0-.3-.43h11a1.84,1.84,0,0,0-.3.43,2,2,0,0,0-.08,1.55ZM100,63.1l-5.59-3.63a2,2,0,1,0-2.18,3.35L97.17,66a41.06,41.06,0,0,1-18.34,9.72L62.13,46.89,66.5,35.45l.06-.19c.74-2.73,1.06-2.73,4.14-2.73,1.66,0,3.48.06,4,.74A6.34,6.34,0,0,0,79.77,36h.55c.68,0,1.77,0,2.82.06a1,1,0,0,1,1,1v.42a12.17,12.17,0,0,0-6,.51,2,2,0,0,0-1.28,2.44l2.84,10.09A2,2,0,0,0,81.61,52H107A41.14,41.14,0,0,1,100,63.1Z"/><path class="cls-1" d="M73,34.41H70.81a2,2,0,0,0,0,4H73a2,2,0,0,0,0-4Z"/><path class="cls-1" d="M45.22,28.21h26a2,2,0,0,0,2-2V16.33a2,2,0,0,0-3-1.76l-5.37,2.91-5-7.62A2,2,0,0,0,58.18,9a2,2,0,0,0-1.67,1l-4.44,7.63L46,15.05a2,2,0,0,0-2.77,1.84v9.32A2,2,0,0,0,45.22,28.21Zm2-8.31L52.15,22a2,2,0,0,0,2.5-.84l3.7-6.36,4.24,6.46a2,2,0,0,0,2.63.66l4-2.19v4.52h-22Z"/></svg>