<?xml version="1.0" encoding="UTF-8"?>
<svg id="Layer_13" data-name="Layer 13" xmlns="http://www.w3.org/2000/svg" viewBox="0 0 120 120">
  <path d="m35.49,60c0,13.52,11,24.52,24.51,24.52s24.52-11,24.52-24.52-11-24.52-24.52-24.52-24.51,11-24.51,24.52Zm24.51-20.52c11.31,0,20.52,9.2,20.52,20.52s-9.2,20.52-20.52,20.52-20.51-9.2-20.51-20.52,9.2-20.52,20.51-20.52Z"/>
  <path d="m104.93,73.29v-26c0-1.1-.9-2-2-2s-2,.9-2,2v26c0,1.1.9,2,2,2s2-.9,2-2Z"/>
  <path d="m73.13,15.24h-25.64c-1.1,0-2,.9-2,2s.9,2,2,2h25.64c1.1,0,2-.9,2-2s-.9-2-2-2Z"/>
  <path d="m110,42.16c-1.1,0-2,.9-2,2v14.15c0,1.1.9,2,2,2s2-.9,2-2v-14.15c0-1.1-.9-2-2-2Z"/>
  <path d="m110,61.64c-1.1,0-2,.9-2,2v12.78c0,1.1.9,2,2,2s2-.9,2-2v-12.78c0-1.1-.9-2-2-2Z"/>
  <path d="m37.53,10.33l-25.93,26.91c-.77.8-.74,2.06.05,2.83.39.37.89.56,1.39.56.52,0,1.05-.21,1.44-.61l25.93-26.91c.77-.8.74-2.06-.05-2.83-.79-.77-2.06-.74-2.83.05Z"/>
  <path d="m76.14,8h-31.67c-1.1,0-2,.9-2,2s.9,2,2,2h31.67c1.1,0,2-.9,2-2s-.9-2-2-2Z"/>
  <path d="m91.08,23.08c.39.41.92.61,1.44.61s1-.19,1.39-.56c.79-.77.82-2.03.05-2.83l-10.86-11.27c-.77-.79-2.03-.82-2.83-.05-.79.77-.82,2.03-.05,2.83l10.86,11.27Z"/>
  <path d="m109.02,35.95l-10.91-11.33c-.77-.79-2.03-.82-2.83-.05-.79.77-.82,2.03-.05,2.83l10.91,11.33c.39.41.92.61,1.44.61s1-.19,1.39-.56c.79-.77.82-2.03.05-2.83Z"/>
  <path d="m77.19,17.05c-.8.77-.82,2.03-.05,2.83l21.67,22.49c.39.41.92.61,1.44.61s1-.19,1.39-.56c.79-.77.82-2.03.05-2.83l-21.67-22.49c-.77-.8-2.03-.82-2.83-.05Z"/>
  <path d="m76.71,24.62c-.77-.79-2.03-.82-2.83-.05-.8.77-.82,2.03-.05,2.83l17.79,18.46c.39.41.92.61,1.44.61s1-.19,1.39-.56c.8-.77.82-2.03.05-2.83l-17.79-18.46Z"/>
  <path d="m95.76,51.59c0-1.1-.9-2-2-2s-2,.9-2,2v7.23c0,1.1.9,2,2,2s2-.9,2-2v-7.23Z"/>
  <path d="m95.76,70.44v-6.8c0-1.1-.9-2-2-2s-2,.9-2,2v6.8c0,1.1.9,2,2,2s2-.9,2-2Z"/>
  <path d="m93.96,76.87c.77-.8.74-2.06-.05-2.83-.79-.77-2.06-.74-2.83.05l-17.79,18.46c-.77.8-.74,2.06.05,2.83.39.37.89.56,1.39.56.52,0,1.05-.21,1.44-.61l17.79-18.46Z"/>
  <path d="m50.23,92.92c-1.1,0-2,.9-2,2s.9,2,2,2h20.16c1.1,0,2-.9,2-2s-.9-2-2-2h-20.16Z"/>
  <path d="m43.61,96.31c.39.41.92.61,1.44.61s1-.19,1.39-.56c.8-.77.82-2.03.05-2.83l-7.37-7.65c-.77-.79-2.03-.82-2.83-.05-.8.77-.82,2.03-.05,2.83l7.37,7.65Z"/>
  <path d="m25.88,75.02c-.79.77-.82,2.03-.05,2.83l6.93,7.19c.39.41.92.61,1.44.61s1-.19,1.39-.56c.8-.77.82-2.03.05-2.83l-6.93-7.19c-.77-.79-2.03-.82-2.83-.05Z"/>
  <path d="m22.44,50.14v20.3c0,1.1.9,2,2,2s2-.9,2-2v-20.3c0-1.1-.9-2-2-2s-2,.9-2,2Z"/>
  <path d="m32.75,35.91l-6.76,7.02c-.77.8-.74,2.06.05,2.83.39.37.89.56,1.39.56.52,0,1.05-.21,1.44-.61l6.76-7.02c.77-.8.74-2.06-.05-2.83-.79-.77-2.06-.74-2.83.05Z"/>
  <path d="m43.78,24.47l-7.53,7.82c-.77.79-.74,2.06.05,2.83.39.37.89.56,1.39.56.52,0,1.05-.21,1.44-.61l7.53-7.82c.77-.79.74-2.06-.05-2.83-.79-.77-2.06-.74-2.83.05Z"/>
  <path d="m70.39,27.17c1.1,0,2-.9,2-2s-.9-2-2-2h-20.16c-1.1,0-2,.9-2,2s.9,2,2,2h20.16Z"/>
  <path d="m40.73,17.24l-21.66,22.49c-.77.8-.74,2.06.05,2.83.39.37.89.56,1.39.56.52,0,1.05-.21,1.44-.61l21.66-22.49c.77-.8.74-2.06-.05-2.83-.79-.77-2.06-.74-2.83.05Z"/>
  <path d="m15.22,74.74c0,1.1.9,2,2,2s2-.9,2-2v-11.71c0-1.1-.9-2-2-2s-2,.9-2,2v11.71Z"/>
  <path d="m17.22,58.48c1.1,0,2-.9,2-2v-10.64c0-1.1-.9-2-2-2s-2,.9-2,2v10.64c0,1.1.9,2,2,2Z"/>
  <path d="m40.47,103.64c.39.41.92.61,1.44.61s1-.19,1.39-.56c.8-.77.82-2.03.05-2.83l-8.97-9.31c-.77-.79-2.03-.82-2.83-.05-.8.77-.82,2.03-.05,2.83l8.97,9.31Z"/>
  <path d="m27.92,90.62c.39.41.92.61,1.44.61s1-.19,1.39-.56c.8-.77.82-2.03.05-2.83l-9.12-9.46c-.77-.79-2.03-.82-2.83-.05-.8.77-.82,2.03-.05,2.83l9.12,9.46Z"/>
  <path d="m47.49,104.26h25.64c1.1,0,2-.9,2-2s-.9-2-2-2h-25.64c-1.1,0-2,.9-2,2s.9,2,2,2Z"/>
  <path d="m101.32,77.82c-.79-.77-2.06-.74-2.83.05l-8.71,9.04c-.77.8-.74,2.06.05,2.83.39.37.89.56,1.39.56.52,0,1.05-.21,1.44-.61l8.71-9.04c.77-.8.74-2.06-.05-2.83Z"/>
  <path d="m79.71,103.13l9.58-9.94c.77-.8.74-2.06-.05-2.83-.79-.77-2.06-.74-2.83.05l-9.58,9.94c-.77.8-.74,2.06.05,2.83.39.37.89.56,1.39.56.52,0,1.05-.21,1.44-.61Z"/>
  <path d="m107.05,80.95l-12.12,12.58c-.77.8-.74,2.06.05,2.83.39.37.89.56,1.39.56.52,0,1.05-.21,1.44-.61l12.12-12.58c.77-.8.74-2.06-.05-2.83-.79-.77-2.06-.74-2.83.05Z"/>
  <path d="m82.56,111.24c.52,0,1.05-.21,1.44-.61l9.96-10.33c.77-.8.74-2.06-.05-2.83-.79-.77-2.06-.74-2.83.05l-9.96,10.33c-.77.8-.74,2.06.05,2.83.39.37.89.56,1.39.56Z"/>
  <path d="m44.48,112h31.67c1.1,0,2-.9,2-2s-.9-2-2-2h-31.67c-1.1,0-2,.9-2,2s.9,2,2,2Z"/>
  <path d="m11.36,84.48l25.93,26.91c.39.41.92.61,1.44.61s1-.19,1.39-.56c.8-.77.82-2.03.05-2.83l-25.93-26.91c-.77-.79-2.03-.82-2.83-.05-.8.77-.82,2.03-.05,2.83Z"/>
  <path d="m10,78.42c1.1,0,2-.9,2-2v-32.25c0-1.1-.9-2-2-2s-2,.9-2,2v32.25c0,1.1.9,2,2,2Z"/>
</svg>