<?xml version="1.0" encoding="UTF-8"?>
<svg id="Layer_13" data-name="Layer 13" xmlns="http://www.w3.org/2000/svg" viewBox="0 0 120 120">
  <path d="m29.73,46.29c.81.5,1.7.75,2.57.75s1.71-.24,2.45-.73c1.48-.97,3.09-3.27,2.32-8.65-.16-1.09-1.17-1.85-2.26-1.7-1.09.16-1.85,1.17-1.7,2.26.45,3.16-.17,4.48-.56,4.74-.23.15-.57.02-.73-.08-.23-.14-.82-.51.78-4.13.45-1.01,0-2.19-1.02-2.64-1.01-.44-2.19,0-2.64,1.02-.98,2.21-3.02,6.82.78,9.16Z"/>
  <path d="m111.64,65.98c2.26-5.85-5.65-10.42-22.34-19.18-.4-1.42-1.43-2.75-2.93-3.72-1.57-1.02-5.68-2.88-12.67-.73-.15-1.09-.62-2.13-1.59-2.98-1.79-1.56-4.2-1.84-6.63-.78l-9.37,2.79c-2.35.5-4.65,1.48-6.82,2.92-.85.56-1.72,1.06-2.6,1.53.2-.61.36-1.24.46-1.9.22-1.44.17-2.9-.12-4.3,2.16.83,4.6,1.27,6.92.59,2.45-.72,5.31-1.87,5.62-4.33.3-2.39-1.97-4.08-3.98-5.29-1.79-1.07-3.67-2-5.3-2.74.89-.62,1.65-1.39,2.09-2.37.41-.91.71-2.36-.19-4.15-1.02-2.03-3.15-2.39-4.94-2.18-.58-.84-1.53-1.84-3.08-2.76-2.34-1.39-4.83-1.17-6.22-.87-.41-.31-.81-.63-1.19-.95-2.15-1.76-4.59-3.75-8.64-2.42-1.21.39-2.21,1.23-3.1,1.96-.02.01-.03.03-.05.04-.28-1.11-.67-2.19-1.15-3.22-.02-.03-.03-.06-.05-.1-1.37-2.57-3.87-3.53-6.39-2.45-1.81.78-3.38,2.62-3.6,4.57-1.39,1.1-2.56,3.08-2.18,5.82-.99.86-2.45,2.31-3.36,3.99-.53.97-.17,2.18.8,2.71.3.16.63.24.95.24.63,0,1.22-.31,1.6-.83.18.41.4.83.68,1.25-1.82,2.04-2.24,3.52-2.31,3.83-.23,1.08.45,2.18,1.53,2.41.15.03.29.05.44.05.91,0,1.73-.61,1.93-1.55,0,0,.22-.7,1.15-1.81.67.6,1.36,1.19,2.05,1.77-2.02.6-3.83,1.74-4.38,3.62l-.44.68c-.36.56-.7,1.3-1.04,2.28-1.31,3.77-1.44,8.06-.37,12.1l.61,2.27c.13,1.04.82,1.62,1.47,1.83,1.69.54,2.72-.89,4.14-2.87.83-1.15,2.02-1.88,3.29-2.07-2.98,3.49-7.56,9.93-8.53,17.5-.19,1.5-.3,2.96-.34,4.37,0,.03-.01.07-.01.1,0,.06,0,.11.01.17-.07,3.4.28,6.54.95,9.42-.02.24,0,.49.08.74.04.14.12.26.19.38,1.34,5.03,3.65,9.23,6.36,12.57.03,3.16-.78,3.31-1.95,3.54-.23.04-.46.09-.67.14-2.74.67-4.75,2.93-4.99,5.64-.23,2.58.49,4.66,2.15,6.16,1.86,1.69,4.76,2.52,8.9,2.52,2.54,0,5.58-.33,9.1-.95,1.36.67,3.1,1.05,5.26.96l6.55.02h.03c2.04,0,3.94-.85,5.36-2.4,1.52-1.66,2.26-3.93,2.04-6.22l-.58-6.16c2.9-.37,5.65-.9,8.14-1.49v3.54c-.87.31-1.6.71-2.19,1.1-3.39,2.26-4.11,5.93-1.84,9.34.89,1.33,2.66,2.3,4.22,2.3h4.57l6.03-.12c.92,0,1.8-.27,2.61-.81,1.61-1.08,2.61-3,2.67-5.14l.35-12.57c2.04.69,4.09,1.12,6.18,1.42v4.16c-1.93.56-5.28,1.98-5.66,6.04-.17,1.83.29,3.36,1.39,4.53,1.69,1.81,4.63,2.56,9.57,2.45.73-.02,1.45,0,2.16,0,.42,0,.85.01,1.28.01,2.96,0,6.03-.33,7.76-3.33.7-1.22.99-2.45,1.03-3.62.79.58,1.66.99,2.54,1.22.65.17,1.29.26,1.91.26,2.55,0,4.85-1.38,6.15-3.82,1.76-3.28.17-6.67-1.11-8.23-.35-.5-.77-.91-1.26-1.23,2.32-8.89,1.41-18.98.71-23.94.37-.02.76-.09,1.14-.21.95-.31,2.24-1.1,3.02-3.1Zm-51.65,11.98c-.36.23-.77.3-1.18.24.58-1.22.94-3.01.4-5.51.47-.21.93-.43,1.36-.66.96,3.17.49,5.23-.59,5.92Zm-24.87-.59c-.2-.46-.37-.95-.5-1.48,1.54-1.12,2.94-3,4.04-5.54.44-1.01-.03-2.19-1.04-2.63-1.02-.44-2.19.03-2.63,1.04-1.19,2.76-2.46,3.87-3.21,4.19-.02,0-.04.01-.06.02-.14.05-.26.08-.36.08-.09,0-.23,0-.37-.28-.31-.64-.34-2.51,1.75-5.04.7-.85.59-2.11-.26-2.82-.85-.71-2.11-.59-2.82.26-3.16,3.81-3.25,7.32-2.28,9.33.69,1.42,1.93,2.32,3.4,2.5.53,2.02,1.43,3.68,2.55,5.03-.02.34-.05.67-.04,1.02l.07,2.71-3.9-3.08c-3.5-2.65-5.64-10.86-1.43-16.78,3.86-5.43,9.46-3.7,9.93-3.54,6.37,2.66,8.07,8.85,8.38,13.58-.87-.68-1.87-1.17-2.97-1.45-3.08-.77-6.27.37-8.25,2.85Zm20.27-3.36c.21,1.31.05,2.35-.5,2.96-.49.54-1.3.73-2.15.51-1.18-.3-2.08-1.28-2.4-2.61,0,0,0,0,0,0,1.84-.16,3.52-.45,5.05-.85Zm-10.84-12.07c-.75-.71-1.56-1.34-2.45-1.9,9.8-8.7,20.3-10.96,24.85-11.29-.24,2.93-1.76,3.72-5.73,4.57-4.8,1.03-6.32,4.12-7.43,6.38-1.31,2.66-2.12,4.28-9.24,2.23Zm5.87,22.79c-.07-.84-.19-1.64-.36-2.4.05-.35.13-.89.19-1.57.47.24.96.45,1.49.58.54.14,1.08.2,1.61.21.23,2.2-.27,3.53-.96,3.87-.53.26-1.29-.03-1.97-.69Zm5.94-15.22c-.09.02-.18.03-.26.07-.07.03-.13.06-.2.1-1.82.61-3.9,1.04-6.31,1.23-.38-1.5-.88-2.89-1.52-4.16.57.06,1.1.1,1.6.1,4.59,0,6.27-2.43,7.71-5.36.99-2.02,1.77-3.61,4.68-4.23,2.32-.5,4.23-1.13,5.69-2.15-1.04,5.27-3.63,11.59-11.39,14.42Zm-2.82-35.47c1.03.62,1.56,1.06,1.83,1.33-.37.23-1.11.59-2.55,1.01-2.25.66-5.25-.7-7.42-2.07,1.26-1.07,2.14-2.27,2.63-3.07,1.65.72,3.63,1.67,5.5,2.79Zm-32.62.29c.96.96,1.8,1.95,2.39,2.97-.63.14-1.44.33-2.43.62-3.94,1.12-4.15.43-4.33-.18-.31-1.07-.13-1.77-.13-1.77h0c.04-.11.07-.23.08-.35.19-.5,2.28-1.33,4.41-1.3Zm2.39,10.83c-.26-.2-.56-.33-.88-.38-2.95-.49-5.91.58-7.95,2.83-.43-2.05-.49-4.16-.17-6.17,2.26,1.87,5.89.83,7.67.33,1.38-.39,2.33-.59,3.03-.74,1.12-.23,2.08-.43,2.63-1.43.54-.96.19-1.91,0-2.42-1.34-3.71-4.64-6.5-7.82-9.19-1.26-1.07-2.46-2.08-3.46-3.09-2.14-2.16-1.18-3.81-.98-4.09.02-.02.03-.05.05-.08.06-.08.11-.17.15-.26.02-.05.04-.09.06-.14.04-.1.07-.19.09-.3,0-.04.02-.08.03-.12.02-.14.03-.29.03-.43,0-.02,0-.04,0-.05-.01-.13-.03-.25-.07-.38,0-.01,0-.03,0-.04-.33-1.08-.22-1.8.02-2.27.25.45.45,1.07.43,1.97-.02,1.1.85,2.02,1.96,2.04h.04c1.09,0,1.98-.87,2-1.96.06-2.79-1.12-4.65-2.27-5.69.21-.39.68-.9,1.27-1.07.24-.07.6-.17,1.06.67.39.85.7,1.75.93,2.68l.46,1.92c.11.47.39.88.78,1.16.31.22.62.36.93.45-1.69.43-2.96,2.01-2.96,3.89,0,2.22,1.74,4.02,3.88,4.02,1.36,0,2.55-.73,3.24-1.83-.14.44-.38.91-.81,1.2-.92.62-1.16,1.86-.54,2.78.39.57,1.02.88,1.66.88.38,0,.77-.11,1.11-.34,1.52-1.02,2.49-2.74,2.73-4.84.27-2.32-.41-4.8-1.69-6.17-.75-.81-2.02-.85-2.83-.1-.34.32-.54.73-.6,1.15-.45-.34-.97-.59-1.54-.7,1-.32,1.9-1.06,2.6-1.64.61-.51,1.31-1.08,1.79-1.24,1.9-.62,2.81.04,4.87,1.72.65.53,1.39,1.14,2.23,1.69.53.36,1.23.43,1.83.2.02,0,2.12-.77,3.85.26,1.72,1.02,2.08,2.03,2.08,2.03h0c.12.56.48,1.03.97,1.31.5.28,1.09.33,1.63.15.67-.22,1.6-.3,1.8-.2.23.46.15.63.12.7-.22.48-1.22,1.19-2.94,1.73-1.93-1.72-4.82-3.61-8.33-3.71-1.74-.04-3.28.85-4.14,2.4-.98,1.77-.91,4.05.17,5.68,1.03,1.54,2.8,2.3,4.86,2.07,1.1-.12,1.89-1.11,1.77-2.21-.12-1.1-1.12-1.88-2.21-1.77-.82.09-1.02-.21-1.09-.31-.26-.38-.26-1.07,0-1.53.19-.35.4-.34.53-.34,3.06.09,5.66,2.44,6.92,3.82-.92,1.29-2.8,3.24-5.58,2.82-1.1-.17-2.11.59-2.28,1.68s.59,2.11,1.68,2.28c.49.07.97.11,1.42.11.51,0,1-.06,1.46-.14l.8,1.07c1.22,1.63,1.74,3.75,1.42,5.82-.31,2.02-1.35,3.75-2.92,4.87-3.15,2.25-7.15,2.41-10.52.38-.66-.4-1.5-.38-2.15.06-.65.43-.98,1.21-.86,1.97.1.66.12,2.25-.49,2.96-.1.12-.37.44-1.27.44-1.1,0-2,.9-2,2s.9,2,2,2c2.28,0,3.61-1.01,4.32-1.85.71-.84,1.1-1.84,1.3-2.79,3.69,1.2,7.67.73,11.08-1.34.02,0,.04.01.07.01.19,0,.38-.03.57-.08,3.18-.94,6.26-2.39,9.16-4.32,1.77-1.17,3.62-1.97,5.5-2.35.06-.01.11-.03.17-.04l9.57-2.85c.09-.03.18-.06.26-.1,1.55-.71,2.25-.1,2.48.1.36.32.33,1,.14,1.73-.17.19-.31.42-.39.66-.01,0-.03,0-.04,0-.01,0-.02,0-.04,0-3.29-.33-17.98,1.08-31.05,13.51-3.42-.75-9.3-.36-13.34,5.33-2.53,3.56-3.53,8.05-2.82,12.65.63,4.09,2.54,7.69,5.07,9.61l6.48,5.11.19,7.94c-.28.09-.52.21-.77.31-3.04-.81-6.83-3.13-10.11-6.89-.13-.25-.32-.46-.54-.63-2.18-2.66-4.09-5.99-5.33-9.96l1.82-.56c1.06-.33,1.65-1.45,1.32-2.5-.33-1.05-1.45-1.65-2.5-1.32l-1.58.49c-.28-1.59-.46-3.26-.51-5.01l2.61.09s.05,0,.07,0c1.07,0,1.96-.85,2-1.93.04-1.1-.83-2.03-1.93-2.07l-2.66-.09c.05-.69.12-1.4.21-2.11.1-.79.26-1.56.45-2.32l1.92.84c.26.11.53.17.8.17.77,0,1.5-.45,1.83-1.2.44-1.01-.02-2.19-1.03-2.63l-2.23-.98c1.93-4.51,4.84-8.14,6.33-9.82.7-.79,1.04-1.86.94-2.94-.1-1.07-.64-2.04-1.48-2.68Zm-7.03,61.32c-.44-.4-1-1.12-.85-2.84.11-1.23,1.12-1.9,1.95-2.1.06-.02.13-.03.2-.04,1.65-.18,3.61,1.65,4.17,2.32.4.48.97.72,1.54.72.45,0,.9-.15,1.27-.46.85-.7.97-1.96.27-2.82-.19-.23-1.24-1.44-2.79-2.43.2-.34.37-.73.52-1.18,2.2,1.97,4.48,3.45,6.61,4.43-.89,1.29-1.27,2.74-1.12,4.1.05.44.15.87.3,1.3-8.16,1.14-11.06-.08-12.07-1Zm29.57.41c-.65.71-1.51,1.07-2.42,1.1l-6.6-.02h0s-.06,0-.1,0c-3.07.15-4.57-1.01-4.7-2.21-.14-1.26,1.16-2.77,3.87-3.28,2.13.06,4.27,1.32,4.29,1.33.32.2.68.29,1.04.29.68,0,1.33-.34,1.71-.96.57-.94.27-2.17-.67-2.75-.26-.16-2.16-1.28-4.57-1.73l-.33-13.31c2.1,1.17,4.25,1.74,5.8,1.89.06,0,.13,0,.19,0,1.02,0,1.88-.77,1.98-1.8.11-1.1-.69-2.07-1.79-2.19-.21-.02-3.31-.38-5.86-2.48.06-.15.13-.29.21-.42.97-1.61,2.78-2.39,4.5-1.96,2.35.59,3.87,3.27,4.08,7.18l-.38,9.75c0,.06,0,.11,0,.17,0,.06,0,.11.01.16l.77,8.09c.11,1.17-.26,2.32-1.02,3.15Zm4.33-13.71l.16-3.93c.54.17,1.09.27,1.64.27.74,0,1.48-.16,2.17-.5.93-.45,3.5-2.17,3.26-7.05.55.16,1.11.25,1.67.25,1.06,0,2.12-.29,3.07-.89,2.48-1.58,4.16-5.42,1.9-11.59,6.99-5.79,7.93-14.83,8.38-19.13.06-.53.1-1.01.16-1.41.07-.5.03-1-.09-1.48.14-.26.27-.54.4-.83,6.86-2.75,10.37-1.07,11.31-.46.44.29.77.61.98.9-.32.09-.68.18-.97.25-2,.5-4.5,1.13-5.56,3.08-.37.69-.71,1.82-.19,3.32l.46,1.34c.47,1.37,1.05,3.04,1.65,4.88,0,.03.02.06.03.09,1.23,3.82,2.53,8.35,3.1,12.38.98,6.88,1.64,8.38,6.42,8.68h.21c1.73.12,3.83.71,4.73,2.78-.51-.14-1.03-.22-1.58-.22h-.05c-2.97.03-5.39,1.9-6.49,5.01-.26.74-.43,1.56-.51,2.4-4.67-.39-8.76-.86-12.68-2.72-.01,0-.02,0-.03-.01-2.21-1.06-4.36-2.55-6.53-4.75-.78-.79-2.04-.8-2.83-.02-.79.77-.8,2.04-.02,2.83.85.87,1.71,1.63,2.57,2.33-3.48,1.28-9.61,3.25-16.73,4.2Zm35.04-31.45c7.87.57,10.28,4.01,11.54,14.84.15,1.3.25,2.48.31,3.52-1.56-1.59-3.8-2.55-6.51-2.72h-.21c-.63-.05-1.42-.1-1.59-.18-.46-.48-.94-3.82-1.12-5.08-.48-3.39-1.42-7.05-2.43-10.39Zm-15.64,46c-.19.12-.3.14-.44.14l-6.03.12h-4.53c-.22,0-.74-.29-.89-.52-1.52-2.28.12-3.38.74-3.79,1.74-1.17,4.04-1.39,6.83-.68,1.07.28,2.16-.37,2.43-1.44.27-1.07-.37-2.16-1.44-2.43-1.42-.36-2.7-.51-3.85-.52v-3.94c4.1-1.18,7.11-2.37,8.45-2.93l-.39,14.07c-.02.82-.37,1.58-.89,1.92Zm24.45-1.09c-.73,1.26-2.24,1.37-5.51,1.31-.75-.01-1.53-.02-2.32,0-4.41.1-6-.58-6.55-1.17-.12-.12-.42-.46-.33-1.43.15-1.62,1.45-2.26,3.49-2.76.17-.04.33-.08.48-.13,2.51.11,3.1,1.55,3.14,1.68.24.89,1.05,1.47,1.93,1.47.18,0,.35-.02.53-.07,1.06-.29,1.69-1.39,1.4-2.46-.05-.17-1.04-3.6-5.3-4.45v-3.4c.61.05,1.23.11,1.84.16.43,1.33,1.18,2.55,2.3,3.47,1.4,1.14,2.77,1.74,4.02,1.99.65.96,2.15,3.59.87,5.8Zm13.88-42.1c-.07.19-.27.65-.52.73-.25.08-.7-.04-1.03-.19l-2.78-3.74c-.66-.89-1.91-1.07-2.8-.41-.89.66-1.07,1.91-.41,2.8l2.77,3.73c.44,2.46,2.47,15.13-.38,25.31-.93.35-1.73,1.01-2.25,1.91-1.02,1.76-.71,3.72.84,5.39.75.81,2.02.86,2.83.1s.85-2.02.1-2.83c-.3-.32-.36-.51-.36-.54,0,0,0-.04.05-.11.05-.09.14-.2.32-.2.09,0,.31.02.47.27.04.06.09.13.14.19.02.02,1.68,2.08.72,3.85-1.1,2.05-2.97,1.73-3.52,1.59-1.33-.36-2.87-1.64-2.8-4.09.02-.77-.38-1.5-1.07-1.85-.69-.35-1.5-.29-2.11.18-.19.13-1.9,1.21-4.45-.87-1.24-1.01-1.67-3.48-.96-5.49.3-.87,1.07-2.32,2.75-2.33.27,0,1.09,0,1.93,1.2.41.59.37,1.46-.09,1.79-.03.03-.06.04-.09.06-.04-.04-.09-.11-.15-.22-.52-.97-1.74-1.33-2.71-.81-.97.52-1.34,1.74-.81,2.71.83,1.54,1.97,2.08,2.79,2.26,1.13.26,2.32-.02,3.34-.77,1.14-.84,1.81-2.12,1.96-3.48.1-.16.19-.33.25-.53.8-1.55,1.87-5.35.86-14.02-1.37-11.8-4.41-18-16.8-18.44-.45-1.35-.87-2.58-1.24-3.64l-.46-1.33c-.02-.07-.04-.12-.04-.16.4-.43,2.14-.86,2.99-1.08.89-.22,1.87-.48,2.67-.91,12.08,6.35,21.06,11.4,20.06,13.99Z"/>
  <path d="m71.22,83.82s.03,0,.04,0c.57,1.81,1.81,3.24,3.56,3.98.8.34,1.65.51,2.49.51.57,0,1.13-.1,1.66-.25.81.95,1.94,1.63,3.03,1.78.24.03.47.05.71.05,1.18,0,2.3-.42,3.2-1.2,1.1-.96,1.84-2.42,2.11-4.07.07-.2.11-.42.11-.65v-.71c0-1.1-.9-2-2-2s-2,.9-2,2c0,.99-.35,1.98-.85,2.42-.21.19-.42.25-.7.21-.11-.03-.27-.13-.41-.26.7-1.22,1.22-3.21.13-6.11-.8-2.1.24-3.06.54-3.27.93-.6,1.19-1.84.59-2.77-.6-.93-1.84-1.19-2.77-.59-1.43.93-3.72,3.8-2.11,8.05.46,1.23.47,2.2.07,2.77-.12.1-.23.21-.33.33-.5.32-1.25.38-1.91.09-.44-.19-1.1-.65-1.37-1.69.92-.81,1.56-1.91,1.76-3.21.11-.69.18-1.46.21-2.27.1-2.72.69-4.08,1.38-5.67.68-1.57,1.46-3.36,1.6-6.32.27-5.58-3.85-7.7-4.03-7.78-.98-.49-2.14-.09-2.65.88s-.12,2.17.84,2.69c.2.11,1.98,1.16,1.84,4.02-.11,2.24-.65,3.48-1.28,4.92-.74,1.71-1.59,3.65-1.71,7.12-.02.65-.08,1.26-.16,1.79-.07.47-.31.81-.7,1.01-.01,0-.02.01-.03.02-.13.06-.27.11-.43.15-.7.14-1.49-.07-1.74-.48-1.75-2.79.57-5.56.59-5.59,3.63-4.25,3.18-8.49,3.16-8.67-.13-1.09-1.1-1.86-2.19-1.74-1.09.11-1.88,1.09-1.78,2.18,0,.11.22,2.77-2.22,5.63-1.48,1.73-3.58,6.12-.94,10.32.94,1.5,2.77,2.4,4.69,2.4Z"/>
  <path d="m36.92,44.62c-.82.74-.88,2.01-.14,2.82.4.44.94.66,1.48.66.48,0,.96-.17,1.34-.52.3-.27,2.87-2.78,2.08-8.46-.15-1.09-1.16-1.86-2.25-1.71-1.09.15-1.86,1.16-1.71,2.25.49,3.55-.8,4.94-.8,4.95Z"/>
</svg>