<?xml version="1.0" encoding="UTF-8"?>
<svg id="Layer_13" data-name="Layer 13" xmlns="http://www.w3.org/2000/svg" viewBox="0 0 120 120">
  <path d="m96.79,23.28c-.05-.06-.09-.13-.15-.19-.09-.09-.18-.16-.28-.23-9.38-9.19-22.22-14.87-36.36-14.87-28.67,0-52,23.33-52,52s23.33,52,52,52c.35,0,.69-.02,1.03-.03.09.01.17.03.26.03.14,0,.28-.02.41-.04,13.96-.45,26.54-6.43,35.63-15.81.07-.05.14-.1.2-.17.1-.1.19-.21.26-.32,8.79-9.32,14.2-21.86,14.2-35.66s-5.82-27.3-15.21-36.72Zm-.75,68.37l-5.41-5.41c5.78-6.74,9.38-15.4,9.7-24.88h7.64c-.32,11.59-4.77,22.16-11.92,30.3ZM19.68,58.65h-7.64c.33-11.92,5.01-22.76,12.53-30.99l5.41,5.41c-6.14,6.83-9.97,15.77-10.3,25.58Zm67.25-28.67c-6.68-6-15.37-9.81-24.93-10.28v-7.64c11.66.48,22.26,5.13,30.34,12.51l-5.41,5.41Zm-28.93-10.28c-9.69.48-18.49,4.38-25.21,10.53l-5.4-5.4c8.11-7.53,18.82-12.29,30.61-12.77v7.64Zm2,3.95c20.05,0,36.36,16.31,36.36,36.36s-16.31,36.36-36.36,36.36-36.36-16.31-36.36-36.36S39.95,23.64,60,23.64Zm-26.24,66.98c6.89,5.91,15.8,9.54,25.53,9.71v7.64c-11.84-.17-22.65-4.65-30.94-11.94l5.41-5.41Zm29.53,9.58c9.5-.77,18.07-4.84,24.58-11.07l5.4,5.4c-7.89,7.61-18.38,12.54-29.98,13.33v-7.66Zm36.97-42.86c-.61-9.43-4.48-17.99-10.49-24.57l5.4-5.4c7.39,7.96,12.12,18.43,12.75,29.97h-7.66Zm-88.18,5.29h7.66c.64,9.76,4.75,18.57,11.12,25.23l-5.4,5.4c-7.75-8.04-12.73-18.77-13.38-30.63Z"/>
  <path d="m58,54.08v3.43h-9.29c-1.1,0-2,.9-2,2s.9,2,2,2h9.29v4.93h-9.29c-1.1,0-2,.9-2,2s.9,2,2,2h9.29v13.19c0,1.1.9,2,2,2s2-.9,2-2v-13.19h9.29c1.1,0,2-.9,2-2s-.9-2-2-2h-9.29v-4.93h9.29c1.1,0,2-.9,2-2s-.9-2-2-2h-9.29v-3.43l16.3-16.3c.78-.78.78-2.05,0-2.83s-2.05-.78-2.83,0l-15.48,15.48-15.48-15.48c-.78-.78-2.05-.78-2.83,0s-.78,2.05,0,2.83l16.3,16.3Z"/>
</svg>