<?xml version="1.0" encoding="UTF-8"?>
<svg id="Layer_13" data-name="Layer 13" xmlns="http://www.w3.org/2000/svg" viewBox="0 0 120 120">
  <path d="m28.27,110.15c1.57,1.25,2.71.78,3.27.38.45-.33.77-.73.9-1.33.36.37.74.76,1.13,1.16.54.55,1.62,1.66,2.84,1.66.4,0,.82-.12,1.25-.42.6-.43.97-.97.93-1.93.22.14.44.27.67.4,1.82,1.06,2.92.23,3.3-.17.61-.63,1.33-1.37-.35-4.88.3.1.6.19.87.28,1.29.41,2.24-.21,2.65-.86.63-.98,1.11-1.74-2.87-6.54.1.01.21.02.31.04,1.89.23,2.85-.81,3.1-1.78.84-3.32-6.8-8.16-8.44-8.81-1.12-.44-2.61-.67-4.34-.93-3.74-.57-8.4-1.29-10.49-4.26-.3-.43-1.79-2.77-1.65-7.09.01-1.71.37-3.29.99-4.33.24-.41.96-1.12,1.81-1.85l1.21,2.94c.01.6.29,1.03.45,1.23.5.61,1.33.87,2.09.67,1.91-.51,5.62-7.06,6.69-10.95l.31-.18c-.49,2.63-.16,3.87.2,4.61.38.78,1,1.34,1.79,1.6,1.97.66,5.51.38,8.62-1.82,2.67-1.88,5.84-5.8,6.24-13.82l3.95-2.2c.66-.36,1.52-.99,2.51-1.81-.46,2.25-1.11,3.71-1.12,3.73-.47,1-.03,2.19.97,2.66.27.13.56.19.84.19.75,0,1.47-.43,1.81-1.15.11-.24,1.94-4.28,1.95-9.69.71-.76,1.42-1.56,2.13-2.4.38,3.22-.12,6.59-.52,8.18-.27,1.07.38,2.16,1.45,2.43.16.04.33.06.49.06.89,0,1.71-.6,1.94-1.51.09-.38,1.82-7.45-.2-13.31,2.52-3.69,4.38-7.58,4.38-10.85,0-.64-.06-1.21-.18-1.76-.51-2.25-2.05-4.02-4.47-5.1-1.21-.54-2.59-.88-4.05-1.08-.77-5.74-4.58-10.51-4.81-10.79-.7-.86-1.96-.99-2.81-.29-.86.7-.99,1.96-.29,2.81.04.05,3.01,3.76,3.84,8.07-.83.02-1.65.08-2.46.16-1.58-6.02-5.77-9.57-6-9.77-.85-.7-2.1-.58-2.81.26-.71.84-.59,2.1.25,2.81.18.15,3.28,2.83,4.58,7.34-2.06.46-3.82,1.06-4.98,1.67h0c-.06.03-.13.06-.18.09l-3.9,2.18c-1.54-2.37-4.77-6.28-9.78-7.37-4.82-1.05-10.59.75-11.92,2.97-.57.96-.5,2.1.17,2.89.1.14.35.64.56,1.05,1.08,2.14,3.05,6.04,6.74,8.42l-7.89,4.42c-5.92-2.11-12.07,1.53-13.51,3.72-.8,1.22-.44,2.41.3,3.05.49.42,2.39,1.75,4.05,2.89-2.86,6.15-4.8,15.08-4.8,22.47,0,30.05,17.84,40.3,20.27,41.56ZM53.6,25.83c-.13,1.1.65,2.09,1.75,2.22.08,0,.16.01.24.01,1,0,1.86-.75,1.98-1.77.12-.99.13-1.94.1-2.85.63-.06,1.27-.11,1.91-.13-.13.63-.32,1.26-.62,1.87-.49.99-.07,2.19.92,2.68.28.14.58.2.88.2.74,0,1.45-.41,1.8-1.12.55-1.12.88-2.25,1.06-3.38.89.15,1.72.38,2.44.7,1.25.56,1.97,1.32,2.2,2.33.06.25.09.55.09.88,0,1.95-1.03,4.41-2.56,6.94-.12-.14-.24-.28-.37-.42-.76-.8-2.03-.82-2.83-.06-.8.76-.83,2.03-.06,2.83.33.35.61.74.86,1.16-.43.57-.87,1.13-1.32,1.68-.17-.73-.38-1.47-.64-2.21-.37-1.04-1.51-1.58-2.56-1.21-1.04.37-1.58,1.52-1.21,2.56.57,1.6.85,3.18.96,4.68-.42.42-.83.82-1.23,1.2-3.07-1.64-11.26-7.32-6.83-19.53.81-.36,1.9-.7,3.14-.99,0,.56-.02,1.14-.09,1.73Zm-36.48,20.57c.49-.9.21-2.02-.63-2.6-1.46-1-2.62-1.8-3.46-2.39,1.76-1.09,5.06-2.41,8.22-.93.58.27,1.26.25,1.83-.06l12.28-6.88c.72-.41,1.12-1.22,1-2.04-.12-.82-.74-1.48-1.55-1.66-4.58-1-6.89-5.57-8.12-8.02-.08-.15-.15-.29-.21-.42,1.37-.63,4.24-1.38,6.98-.78,5.22,1.14,8.04,6.96,8.07,7.01.24.5.67.89,1.2,1.06.53.17,1.11.11,1.59-.16l1.34-.75c-1.39,7.13,1.02,12.14,3.59,15.25,1.58,1.92,3.37,3.3,4.82,4.24-.1.06-.2.13-.3.18l-4.94,2.76c-.62.35-1.01,1-1.02,1.72-.08,5.64-1.67,9.72-4.59,11.78-1.78,1.26-3.61,1.45-4.54,1.38-.03-.76.19-2.59,1.36-5.94.27-.79.03-1.66-.6-2.19-.64-.54-1.54-.62-2.26-.21l-5.29,2.96c-.53.3-.9.82-1,1.42-.34,2.1-1.69,4.66-2.88,6.55l-.86-2.1c0-.19-.04-.38-.09-.55-.27-.86-1.17-1.57-2.36-1.35-.31.05-.6.17-.86.36-.06.04-.12.09-.18.13-.91.68-3.75,2.87-4.73,4.52-.99,1.66-1.54,3.92-1.55,6.32-.18,5.38,1.77,8.59,2.37,9.45,3.08,4.37,8.9,5.26,13.16,5.91,1.43.22,2.78.43,3.48.7,1.06.42,2.57,1.49,3.82,2.56-1.28-.09-2-.09-2.05-.09-.79,0-1.51.47-1.83,1.19-.32.72-.19,1.57.35,2.15.88.97,1.81,2.04,2.65,3.04-.46-.14-.74-.23-.74-.23-.8-.25-1.67.03-2.18.69-.51.66-.55,1.57-.11,2.28.15.24.3.48.44.72-.67-.55-1.09-.93-1.1-.94-.72-.65-1.79-.69-2.56-.1-.36.28-.6.66-.71,1.07-1.49-1.51-2.44-2.45-2.57-2.58-.69-.65-1.74-.72-2.52-.17-.78.55-1.06,1.58-.67,2.45.26.6.5,1.17.72,1.7-5.17-3.84-15.31-14.2-15.31-36.22,0-7.36,2.15-16.69,5.12-22.19Z"/>
  <path d="m111.8,49.65c-.23-4.01-.44-7.8-1.78-11.83l-2.29-6.9c-.02-.06-.05-.13-.07-.19-5.79-12.93-11.24-17.03-14.5-19.48-.6-.45-1.13-.85-1.55-1.22-1.68-1.48-2.9-.98-3.48-.56-.45.33-.77.73-.9,1.33-.36-.37-.74-.76-1.13-1.16-.71-.73-2.39-2.46-4.09-1.24-.6.43-.97.97-.93,1.93-.22-.14-.44-.27-.67-.4-1.82-1.05-2.92-.23-3.3.17-.61.63-1.33,1.38.35,4.88-.3-.1-.6-.19-.87-.27-1.29-.41-2.24.2-2.65.85-.63.98-1.11,1.74,2.87,6.54-.1-.01-.21-.02-.31-.04-1.9-.23-2.85.81-3.1,1.78-.84,3.32,6.8,8.16,8.44,8.81.86.34,1.94.62,3.19.94,3.55.92,8.42,2.17,10.71,5.57,1.82,2.71,2.63,4.26,2.56,7.57-.49,2.3-1.75,4.09-3.84,5.42.01-.12.03-.24.04-.36.23-1.92.47-3.91-1.13-5.02-.67-.47-1.51-.54-2.31-.2-2.27.96-5.07,6.48-6.02,10.68l-.29.16c.57-3.03.04-4.11-.2-4.61-.38-.78-1-1.34-1.79-1.6-1.97-.66-5.51-.38-8.62,1.82-2.66,1.88-5.84,5.8-6.24,13.82l-3.95,2.21c-.78.43-1.84,1.23-3.06,2.29-.18.12-.35.26-.49.44-.14.13-.29.26-.44.4.54-3.03,1.61-5.32,1.63-5.36.48-.99.07-2.19-.92-2.67-.99-.48-2.19-.07-2.67.92-.15.3-2.66,5.59-2.3,11.49-.55.63-1.1,1.28-1.64,1.95-.31-3.03.11-6.13.46-7.64.25-1.08-.42-2.15-1.5-2.4-1.07-.25-2.15.42-2.4,1.5-.09.37-1.62,7.2.29,12.91-2.11,3.32-3.59,6.74-3.59,9.66,0,.64.06,1.21.18,1.76.51,2.25,2.05,4.02,4.47,5.1,1.21.54,2.59.88,4.05,1.08.77,5.74,4.58,10.51,4.81,10.79.4.49.97.74,1.55.74.44,0,.89-.15,1.26-.45.86-.69.99-1.95.29-2.81-.04-.05-2.99-3.76-3.83-8.07.77-.02,1.55-.07,2.31-.15,1.3,6.5,6.07,9.72,6.33,9.89.34.22.71.33,1.09.33.65,0,1.28-.32,1.67-.9.61-.92.36-2.16-.56-2.77-.18-.12-3.55-2.46-4.56-7.17.89-.19,1.73-.41,2.49-.65.08-.02.16-.04.23-.07,1.05-.34,1.94-.7,2.6-1.07l4.08-2.28c1.57,1.97,4.68,5.27,8.61,6.46,1.24.37,2.46.52,3.64.52,4.6,0,8.4-2.29,8.59-2.42.5-.31.86-.8.95-1.38.09-.58-.06-1.15-.45-1.59-.1-.14-.35-.64-.56-1.05-1.08-2.14-3.05-6.04-6.74-8.42l7.89-4.42c5.93,2.11,12.07-1.53,13.51-3.72.8-1.22.44-2.4-.29-3.05-.48-.41-2.25-1.65-4.03-2.88,2.9-5.92,5.55-14.35,5.05-21.97-.05-.78-.09-1.53-.14-2.27Zm-60.4,43.76c-.06-.25-.09-.55-.09-.88,0-1.61.7-3.56,1.81-5.62.18.2.36.4.55.6.39.38.9.58,1.4.58s1.03-.2,1.42-.6c.78-.79.77-2.05-.02-2.83-.42-.41-.77-.89-1.07-1.41.42-.6.87-1.19,1.32-1.77.21.52.44,1.04.72,1.55.36.67,1.05,1.04,1.76,1.04.32,0,.65-.08.95-.24.97-.53,1.33-1.74.8-2.71-.57-1.05-.92-2.17-1.11-3.3.77-.83,1.54-1.6,2.27-2.3,2.72,2.02,9.02,8.24,4.74,20.15-.23.06-.48.12-.72.18.01-.14.01-.27.03-.42.13-1.1-.66-2.09-1.75-2.22-1.08-.13-2.09.65-2.22,1.75-.06.54-.09,1.06-.11,1.57-.67.07-1.34.12-2.01.14.13-.63.32-1.26.61-1.87.49-.99.07-2.19-.92-2.68-.99-.48-2.19-.07-2.68.92-.55,1.12-.88,2.25-1.06,3.38-.89-.15-1.72-.38-2.44-.7-1.25-.56-1.97-1.32-2.2-2.33Zm51.14-19.82c-.49.9-.21,2.02.63,2.6,1.47,1,2.62,1.8,3.46,2.39-1.76,1.09-5.06,2.41-8.22.93-.58-.27-1.26-.25-1.83.07l-12.28,6.88c-.72.41-1.12,1.22-1,2.04.12.82.74,1.48,1.55,1.66,4.36.96,6.66,5.13,7.94,7.65-1.75.7-4.57,1.46-7.26.65-4.2-1.27-7.49-6.28-7.52-6.33-.38-.59-1.02-.92-1.68-.92-.33,0-.67.08-.97.25l-3.68,2.06c2.57-11.09-3.02-17.71-6.42-20.58.23-.15.45-.29.65-.4l4.94-2.76c.62-.35,1.01-1,1.02-1.72.08-5.64,1.67-9.72,4.59-11.78,1.78-1.26,3.62-1.45,4.54-1.38.03.76-.19,2.59-1.36,5.94-.27.79-.03,1.66.6,2.19.64.54,1.54.62,2.26.21l5.29-2.96c.53-.3.9-.82,1-1.42.26-1.59.84-3.25,1.5-4.7,0,.48,0,.98.05,1.48.06.67.46,1.27,1.06,1.58.6.32,1.32.31,1.91-.02l1.02-.57c.29-.16.54-.27.75-.33.19-.04.37-.11.54-.2,3.59-1.95,5.88-4.98,6.63-8.75.02-.11.03-.23.04-.33.16-4.67-1.24-7.13-3.23-10.09-3.14-4.66-9.09-6.2-13.03-7.21-1.12-.29-2.09-.54-2.73-.79-1.06-.42-2.57-1.49-3.82-2.56,1.28.09,2,.09,2.05.09.79,0,1.51-.47,1.83-1.19.32-.72.19-1.57-.35-2.15-.88-.97-1.81-2.04-2.65-3.04.46.14.74.23.74.23.8.25,1.67-.03,2.18-.69.51-.66.55-1.57.11-2.28-.15-.24-.3-.48-.44-.72.67.55,1.09.93,1.1.94.72.65,1.79.69,2.56.1.36-.28.6-.66.71-1.07,1.49,1.51,2.44,2.45,2.57,2.58.69.65,1.75.72,2.52.17.78-.55,1.06-1.58.67-2.45-.15-.33-.29-.66-.42-.97,3.01,2.48,6.96,6.64,11.32,16.36l2.25,6.8c1.17,3.53,1.36,6.9,1.58,10.8.04.75.09,1.52.14,2.3.49,7.51-2.61,16.23-5.41,21.42Z"/>
</svg>