<?xml version="1.0" encoding="UTF-8"?>
<svg id="Layer_13" data-name="Layer 13" xmlns="http://www.w3.org/2000/svg" viewBox="0 0 120 120">
  <path d="m19.17,38.95h29.95c1.1,0,2-.9,2-2s-.9-2-2-2h-12.97v-7.27h9.92c1.1,0,2-.9,2-2s-.9-2-2-2h-9.92v-14.34c0-1.1-.9-2-2-2s-2,.9-2,2v14.34h-10.22c-1.1,0-2,.9-2,2s.9,2,2,2h10.22v7.27h-12.97c-1.1,0-2,.9-2,2s.9,2,2,2Z"/>
  <path d="m69.28,38.95h29.95c1.1,0,2-.9,2-2s-.9-2-2-2h-12.97v-7.27h9.92c1.1,0,2-.9,2-2s-.9-2-2-2h-9.92v-14.34c0-1.1-.9-2-2-2s-2,.9-2,2v14.34h-10.22c-1.1,0-2,.9-2,2s.9,2,2,2h10.22v7.27h-12.97c-1.1,0-2,.9-2,2s.9,2,2,2Z"/>
  <path d="m21.67,45.37c-1.1,0-2,.9-2,2v15.49c0,1.1.9,2,2,2h24.63c1.1,0,2-.9,2-2v-15.49c0-1.1-.9-2-2-2h-24.63Zm22.63,15.49h-20.63v-11.49h20.63v11.49Z"/>
  <path d="m46.3,91.85h-24.63c-1.1,0-2,.9-2,2v15.49c0,1.1.9,2,2,2h24.63c1.1,0,2-.9,2-2v-15.49c0-1.1-.9-2-2-2Zm-2,15.49h-20.63v-11.49h20.63v11.49Z"/>
  <path d="m98.03,91.85h-24.63c-1.1,0-2,.9-2,2v15.49c0,1.1.9,2,2,2h24.63c1.1,0,2-.9,2-2v-15.49c0-1.1-.9-2-2-2Zm-2,15.49h-20.63v-11.49h20.63v11.49Z"/>
  <path d="m71.78,45.37c-1.1,0-2,.9-2,2v15.49c0,1.1.9,2,2,2h24.63c1.1,0,2-.9,2-2v-15.49c0-1.1-.9-2-2-2h-24.63Zm22.63,15.49h-20.63v-11.49h20.63v11.49Z"/>
  <path d="m110,81.81h-14.73l4.67-11.33c.42-1.02-.07-2.19-1.09-2.61-1.02-.42-2.19.07-2.61,1.09l-5.3,12.85h-11.02l-4.71-12.78c-.38-1.04-1.53-1.57-2.57-1.18-1.04.38-1.57,1.53-1.18,2.57l4.2,11.4h-13.94c-.74,0-1.37.4-1.72,1-.35-.59-.98-1-1.72-1h-14.73l4.67-11.33c.42-1.02-.07-2.19-1.09-2.61-1.02-.42-2.19.07-2.61,1.09l-5.3,12.85h-11.02l-4.71-12.78c-.38-1.04-1.53-1.56-2.57-1.18-1.04.38-1.57,1.53-1.18,2.57l4.2,11.4h-13.94c-1.1,0-2,.9-2,2s.9,2,2,2h48.28c.74,0,1.37-.4,1.72-1,.35.59.98,1,1.72,1h48.28c1.1,0,2-.9,2-2s-.9-2-2-2Z"/>
</svg>