<?xml version="1.0" encoding="UTF-8"?>
<svg id="Layer_13" data-name="Layer 13" xmlns="http://www.w3.org/2000/svg" viewBox="0 0 120 120">
  <path d="m43.55,10.91s-.02,0-.04,0c-6.96,2.71-9.73,5.13-9.85,5.23-.82.73-.89,1.98-.17,2.81.39.45.95.68,1.5.68.47,0,.93-.16,1.31-.49.02-.02,2.46-2.09,8.62-4.49,5.03-1.76,10.31-2.66,15.69-2.66,9.83,0,16.36,1.71,23.3,6.12.33.21.7.31,1.07.31.66,0,1.31-.33,1.69-.93.59-.93.31-2.17-.62-2.76-7.65-4.85-14.78-6.74-25.44-6.74-5.85,0-11.58.97-17.05,2.9,0,0-.02,0-.03.01Z"/>
  <path d="m86.85,98.83c-5.64,3.75-11.88,6.21-18.55,7.29-1.01.16-2.19.29-3.4.39,2.14-2.04,3.86-4.28,5.18-6.02.58-.75.7-1.76.32-2.63-.35-.82-1.08-1.36-1.95-1.45-.32-.03-.82-.16-1.36-.29-.92-.22-2.07-.5-3.36-.61.75-2.04.72-4.25-.22-6.16-1.33-2.71-4.09-4-7.2-3.37-3.08.62-4.61,2.82-5.01,4.66-.4,1.86.19,3.63,1.54,4.6.68.49,2.57,1.45,5.41-.23.95-.56,1.27-1.79.71-2.74-.56-.95-1.79-1.27-2.74-.71-.55.33-.88.39-1.02.4-.03-.14-.05-.42.11-.78.16-.38.61-1.05,1.8-1.29,1.67-.33,2.45.47,2.81,1.21.65,1.33.38,3.46-1.34,5.07-.74.28-1.47.63-2.17,1.07-.99.63-1.86,1.5-2.74,2.73-.41.58-1.15,1.11-1.87.68-1.02-.6-1.83-1.56-2.27-2.7-.91-2.35-1.36-4.85-1.36-7.44,0-.36,0-.73,0-1.1,10.38-7.44,14.02-16.35,9.71-23.92-.8-1.4-1.57-2.53-2.25-3.53-1.42-2.08-2.27-3.34-2.25-5.28.01-1.1-.87-2.01-1.98-2.02h-.02c-1.09,0-1.99.88-2,1.98-.03,3.2,1.35,5.23,2.95,7.58.64.94,1.36,2,2.08,3.26,2.98,5.24.58,11.39-6.54,17.17-.06-.43-.12-.85-.2-1.28,3.48-2.27,5.77-5.42,6.47-9,.65-3.31-.14-6.65-2.17-9.18-4.08-5.08-3.62-8.07-3.62-8.07.27-1.07-.38-2.16-1.45-2.43-1.07-.27-2.16.38-2.43,1.45-.12.48-1.02,4.83,4.38,11.56,1.29,1.6,1.78,3.75,1.36,5.9-.42,2.14-1.71,4.1-3.68,5.68-.09-.23-.18-.46-.29-.68,4.94-5.39,3.87-8.73-.25-13.82-.7-.86-1.95-.99-2.81-.29-.86.7-.99,1.96-.29,2.81,2.78,3.43,3.63,4.77,1.19,7.71-.08-.11-.16-.22-.25-.33.84-1.59,1-2.96,1.02-3.15.1-1.09-.69-2.05-1.78-2.17-1.08-.12-2.07.68-2.2,1.77,0,0-.01.1-.05.26-.32-.28-.65-.55-1-.81.89-2.78.84-5.42-.1-7.62l3.41-3.2c.81-.76.85-2.02.09-2.83-.76-.81-2.02-.85-2.83-.09l-3.1,2.91c-.08-.06-.16-.1-.24-.16l2.67-3.94c.62-.91.38-2.16-.53-2.78-.91-.62-2.16-.38-2.78.53l-3.17,4.66c-.8-.12-1.64-.14-2.52-.06-1.33.13-2.59.47-3.73,1l-2.23-2.73c-.7-.85-1.96-.98-2.81-.28-.85.7-.98,1.96-.28,2.81l2.07,2.54c-.32.35-.62.72-.88,1.1l-2.17-1.92c-.83-.73-2.09-.65-2.82.17-.73.83-.65,2.09.17,2.82l3.41,3.02c-.14,2.62,1.03,5.3,3.38,7.68-1.11,2.75-1.55,5.36-1.53,7.77-.46-.15-.8-.32-.87-.48,0,0-.04-.17.14-.59.42-1.02-.06-2.19-1.08-2.61-1.02-.42-2.19.06-2.61,1.08-.84,2.03-.34,3.48.23,4.34,1.09,1.63,3.18,2.24,4.69,2.47.06.26.12.53.19.78-2.89-.23-4.73-.89-5.68-2.06-1.01-1.25-1.2-3.37-.55-6.29,2.13-9.57-1.11-16.65-1.25-16.95-.47-1-1.65-1.43-2.65-.96-1,.46-1.43,1.65-.97,2.65.03.06,2.79,6.22.97,14.4-.94,4.23-.5,7.39,1.35,9.67,2.39,2.95,6.59,3.56,10.31,3.63.37.76.75,1.46,1.13,2.09-5.53-.77-13.03-2.95-14.16-8.08-.87-3.92-.42-5.63.05-7.45.62-2.4,1.27-4.88-.51-10.69-.32-1.06-1.44-1.65-2.5-1.33-1.06.32-1.65,1.44-1.33,2.5,1.45,4.73.99,6.48.46,8.5-.55,2.09-1.17,4.47-.09,9.33,2.16,9.72,16.91,11.28,21.17,11.53.18.28.41.61.67.98-12.16,1.12-16.76-4.32-16.96-4.56-.68-.87-1.93-1.03-2.81-.35-.87.68-1.03,1.93-.35,2.81.23.3,5.03,6.27,16.93,6.27,1.89,0,3.97-.16,6.23-.51,2.83,2.96,7.11,6.43,13.08,8.68,2.22.84,4.29,1.2,6.2,1.2,2.27,0,4.33-.52,6.18-1.35.18.06.37.09.58.09,2.65,0,6.59-.21,9.42-.67,7.24-1.18,14.01-3.84,20.12-7.91.92-.61,1.17-1.85.56-2.77-.61-.92-1.85-1.17-2.77-.56Zm-27.57,2.68c.23-.2.54-.3.88-.28.64.05,1.06.54,1.03.96,0,0,0,0,0,0-.02.19-.12.38-.29.52-.23.2-.56.29-.88.28-.64-.05-1.06-.54-1.03-.96.01-.19.12-.38.29-.53Zm3.62,1.29c.03-.16.07-.31.08-.47.08-1.17-.46-2.23-1.32-2.82,1.36-.16,2.68.08,3.84.35-.87,1.08-1.74,2.06-2.61,2.95Zm-31.77-40.8c.67-.07,1.3-.03,1.88.09.3.2.63.29.97.31.49.22.93.52,1.29.89.09.26.23.5.43.71.06.07.13.12.2.17.64,1.19.75,2.74.32,4.48-.38-.13-.78-.25-1.19-.35l-.62-4.04c-.17-1.09-1.18-1.84-2.28-1.67-1.09.17-1.84,1.19-1.67,2.28l.52,3.42c-.05.01-.1.03-.15.04l-.82-1.93c-.43-1.02-1.61-1.49-2.62-1.05-1.02.43-1.49,1.61-1.05,2.62l1.04,2.43c-.11.11-.21.21-.31.32-1.39-1.67-1.9-3.37-1.42-4.9.63-2.01,2.89-3.58,5.49-3.83Zm-2.1,12.67c.21-.35,1.83-2.97,4.43-2.59,2.96.45,5.48,2.41,8.17,6.38,2.27,3.35,2.58,7.98,2.57,12.07,0,.19.02.37.02.55-.17-.04-.35-.06-.52-.09.5-5.16-1.28-9.29-3.52-11.28-.02-.02-.04-.03-.05-.04v-2.16c0-1.1-.9-2-2-2s-2,.9-2,2v.67c-.35.02-.7.09-1.04.18l-1.66-2.88c-.55-.96-1.78-1.29-2.73-.73-.96.55-1.28,1.78-.73,2.73l1.69,2.92c-.28.29-.53.59-.75.92l-.26-.12c-1.01-.46-2.19,0-2.64,1-.45,1.01,0,2.19,1,2.64l.7.31c-.01.44.01.89.07,1.35.43,3.38,2.62,6.78,5.15,8.54-.31.51-.57,1.07-.79,1.66-.88-1.16-1.36-1.97-1.44-2.11-.09-.18-.21-.34-.37-.49-.09-.08-8.49-8.54-3.29-19.44Zm10.5,16.68c-.62.21-1.18.5-1.71.82-1.5-.63-3.75-3.4-4.1-6.15-.07-.53-.05-1,.03-1.42.03-.1.06-.21.08-.31.29-.94,1.01-1.61,2.21-2.04.11-.04.23-.06.34-.06.35,0,.73.18,1.13.53,1.55,1.37,2.65,4.68,2.09,8.62-.03,0-.05.01-.08.02Zm8.44,15.71c-4.6-1.73-8.09-4.32-10.57-6.69.17-2.65,1.39-4.55,3.42-5.23.3-.1.59-.16.88-.2,0,0,0,0,.01,0,1.27-.18,2.42.17,3.03.75.27,1.27.62,2.53,1.09,3.74.76,1.97,2.17,3.63,3.96,4.69,2.41,1.41,5.42.65,7.16-1.81.08-.12.16-.21.24-.32-.08,1.68,1.09,3.12,2.65,3.24.07,0,.14,0,.21,0,.05,0,.09-.01.14-.01-3.6,2.75-7.43,3.65-12.24,1.84Z"/>
  <path d="m85,67.65c4.47,0,8.1-3.63,8.1-8.1s-3.63-8.1-8.1-8.1-8.1,3.63-8.1,8.1,3.63,8.1,8.1,8.1Zm0-12.2c2.26,0,4.1,1.84,4.1,4.1s-1.84,4.1-4.1,4.1-4.1-1.84-4.1-4.1,1.84-4.1,4.1-4.1Z"/>
  <path d="m29.59,56.53c4.47,0,8.1-3.63,8.1-8.1s-3.63-8.1-8.1-8.1-8.1,3.63-8.1,8.1,3.63,8.1,8.1,8.1Zm0-12.2c2.26,0,4.1,1.84,4.1,4.1s-1.84,4.1-4.1,4.1-4.1-1.84-4.1-4.1,1.84-4.1,4.1-4.1Z"/>
  <path d="m103.68,78.05c.37.29.8.43,1.24.43.59,0,1.18-.26,1.57-.76.15-.19,3.6-4.67,4.93-16.05.37-1.86.58-3.97.58-6.36,0-11.54-5.62-17.23-9.85-19.88l1.9-5.45c.27-.67.44-1.36.53-2.06l3.51-4.76c.66-.89.46-2.14-.42-2.8-.89-.65-2.14-.46-2.8.42l-1.4,1.9c-.18-.3-.38-.6-.6-.88l-2.2-2.81,1.98-4.13c.48-1,.06-2.19-.94-2.67-.99-.48-2.19-.06-2.67.94l-1.88,3.9-1.18-1.51.57-2.04c.3-1.06-.33-2.17-1.39-2.46-1.06-.29-2.17.33-2.46,1.39l-.84,3.02c-.17.61-.04,1.27.35,1.77l2.07,2.65-.05.04-3.14-1.99c-.93-.59-2.17-.31-2.76.62-.59.93-.31,2.17.62,2.76l3.55,2.25s.03.05.04.07l1.7,2.39s.04.1.04.35c0,.66-.32,1.23-.59,1.59l-3.19,4.31c-1.91.03-3.77.3-5.54.82-3.46,1-6.12,1.96-8.25,2.73-3.8,1.38-5.39,1.91-6.65,1.35-2.56-1.14-4.41-3.64-4.47-5.16.95.29,1.96.34,2.93.13,1.66-.35,3.11-1.44,4.09-3.06l.69-.19c.11-.03.22-.06.33-.09.1.16.14.27.14.31,0,.06-.1.2-.13.23-.89.66-1.08,1.91-.42,2.8.39.53,1,.81,1.61.81.41,0,.83-.13,1.19-.39.17-.13,1.68-1.29,1.75-3.3.02-.57-.07-1.13-.28-1.67.14-.05.28-.11.41-.16.12-.05.21-.09.31-.14.26.23.44.45.49.66.08.33-.16.7-.15.7h0c-.68.87-.52,2.13.35,2.8.37.28.8.42,1.23.42.59,0,1.18-.26,1.58-.77.14-.18,1.36-1.83.91-3.96-.21-.98-.71-1.85-1.5-2.62.46-1.28.47-3.13-.48-5.79-.15-.43-.45-.79-.83-1.03l-.24-.15c-1.6-.95-3.47-1.45-5.69-1.55-.28-.02-.55-.08-.78-.17,0,0-.02,0-.02-.01-.6-.27-1.17-.47-1.64-.62-.74-.23-1.47-.39-2.21-.51-2.42-2.36-9.02-2-11.99-1.64-.25-.04-.52-.03-.78.03-.24.06-.46.12-.65.2-.03,0-.06.02-.08.03-.33.1-.67.19-1,.29-2.87.8-6.12,1.71-10.38,6.19-.17.13-.32.28-.46.47-.12.16-.21.33-.28.51-.24.39-.48.79-.72,1.17-.76,1.21-1.47,2.36-1.85,3.31-.41,1.03.09,2.19,1.11,2.6.24.1.5.14.74.14.79,0,1.54-.48,1.86-1.26.25-.62.9-1.67,1.53-2.68.29-.46.58-.94.87-1.41,3.55-3.78,6.03-4.47,8.66-5.2.33-.09.66-.18.99-.28.55-.12,1.17-.2,1.81-.26-.85.56-1.65,1.23-2.4,1.98-7.23,2.81-8.73,5.57-10.78,9.38-.19.34-.38.7-.58,1.07-.53.97-.18,2.18.79,2.72.31.17.64.25.96.25.71,0,1.39-.37,1.75-1.03.21-.38.41-.75.6-1.11.73-1.35,1.33-2.47,2.17-3.46-.46,1.16-.86,2.36-1.16,3.61-.58,2.42-.81,4.81-.7,7.12-3.21-1.92-7.72-4.78-8.51-5.4-.94-.74-1.13-1.15-1.14-1.15,0,0,0,0,0,0l-.14-2.99s0-.06-.01-.08l1.41-3.96c.37-1.04-.17-2.18-1.21-2.55-1.04-.37-2.18.17-2.55,1.21l-1.24,3.5h-.07s0-3.36,0-3.36c0-.64-.3-1.23-.82-1.61l-2.52-1.86c-.89-.66-2.14-.46-2.8.43-.65.89-.46,2.14.43,2.8l1.71,1.26v1.92l-2.69-1.33c-.99-.49-2.19-.08-2.68.91-.49.99-.08,2.19.91,2.68l2.91,1.44v3.57c0,.36.02.71.07,1.06l-2.28-.63s-.01,0-.02,0c0,0-.01,0-.02,0-2.41-.63-4.88-.4-7.23.59,1.33-2.08,2.83-4.05,4.48-5.91.73-.83.66-2.09-.17-2.82-.83-.73-2.09-.66-2.82.17-3.55,4-6.45,8.5-8.6,13.38-.4.9-.76,1.82-1.11,2.74-.02.05-.04.11-.06.16-1.91,5.15-2.98,10.55-3.16,16.1,0,0,0,0,0,0,0,0,0,0,0,.01,0,0,0,0,0,.01,0,0,0,0,0,0-.01.2-.02.41-.01.62-.02.24-.02.49-.02.73v.35c0,1.1.9,2,2,2s2-.9,2-2v-.35c0-.17,0-.34.01-.5,0-.1.01-.19,0-.29,0-.13,0-.26,0-.39,0,0,0-.01,0-.02,0,0,0-.01,0-.02.17-5.09,1.14-10.03,2.87-14.76,1.34-1.99,5.48-7.3,10.79-5.93l5.69,1.58c.44.44.93.84,1.47,1.17l10.01,10c2.33,2.29,4.82,3.07,7.07,3.07.79,0,1.55-.1,2.26-.27,3.33,1.76,6.45,4.82,8.34,7.15-.13.1-.25.21-.35.34-.69.86-.55,2.12.31,2.81,1.08.87,2.02,1.49,2.89,1.71l.76,2.44-.68,1.74-.66-1.27c-.51-.98-1.72-1.36-2.7-.85-.98.51-1.36,1.72-.85,2.7l2.41,4.61c-.49,3.59.39,7.01,2.55,9.71,1.98,2.48,5.9,5.47,13.4,5.99,4.24,5.65,12.38,6.82,13.52,6.95.08,0,.16.01.24.01.91,0,1.74-.6,1.96-1.5.25-.97-.24-1.97-1.18-2.34-.04-.02-2.87-1.46-3.25-5.6l5,.63v3.98c0,1.1.9,2,2,2s2-.9,2-2v-3.29l1.37.29,3.48,3.6c.39.41.92.61,1.44.61s1-.19,1.39-.56c.79-.77.82-2.03.05-2.83l-1.35-1.4,2.35.8c.21.07.43.11.64.11.83,0,1.61-.53,1.89-1.36.36-1.05-.21-2.18-1.25-2.54l-3.57-1.21c-.16-.14-.34-.25-.54-.33l4.77.46c.07,0,.13,0,.19,0,1.02,0,1.89-.77,1.99-1.81.11-1.1-.7-2.08-1.8-2.18l-6.51-.63-9.37-1.16c.94-.52,2.03-1.03,3.3-1.59,2.17-.97,4.62-2.06,6.87-3.76-.65,1.44-1.13,2.1-1.14,2.11-.68.87-.54,2.12.33,2.81Zm-28.77-24.82c.29-.03.55-.12.78-.25,1.62-.48,3.03-.95,4.29-1.37,5.01-1.67,6.7-2.24,10.33-.12,2.29,1.34,3.99,4.15,4.21,7,.15,1.95-.32,4.81-3.43,7.36-.97.79-2.35,1.63-3.81,2.51-3.75,2.27-8.49,5.15-10.26,9.83-2.05-.04-4.24-.49-4.86-2.13-.26-.68-.19-1.52.18-2.3l1.71-3.61,3.92-2.39c.94-.58,1.24-1.81.66-2.75s-1.8-1.24-2.75-.66l-2.74,1.67.82-4.2c.21-1.08-.5-2.13-1.58-2.35-1.08-.21-2.13.5-2.35,1.58l-.89,4.58-.05-.02-1.03-3.3c-.12-.4-.37-.74-.7-.99-.6-1.88-2.49-4.3-4.8-6.56,2.08.42,4.26.41,6.47-.07,2.21-.47,4.1-.97,5.78-1.45.03,0,.06,0,.08,0Zm-20.11-9.51c-.42-.89-.76-1.84-1.01-2.83,0-.08-.03-.16-.04-.23.99.26,2.02.35,3,.35,1.17,0,2.26-.13,3.1-.28.04.34.09.67.15,1-.19.08-.37.19-.53.33-2.31,2.09-4.18,1.79-4.67,1.66Zm6.9-12.93c-.22.47-.42.93-.61,1.4-1.63-.39-4.94-1.66-5.57-5.6.14-.27.28-.54.43-.81.71-.39,1.48-.68,2.31-.84.64-.13,1.33.02,1.88.4.54.37.9.92,1,1.55.16.96.53,1.85,1.06,2.63-.23.39-.4.82-.5,1.28Zm-1.71,5.24c-.04.2-.06.41-.09.61-1.99.44-5.74.74-6.68-.84.03-1.23.17-2.48.43-3.75,1.78,2.24,4.29,3.45,6.34,3.97Zm.39,13.58c-.08,0-.15.02-.22.03-.97-.54-1.88-1.22-2.7-2.06,1.18-.27,2.51-.84,3.9-1.91.27.51.56,1.01.9,1.5.33.48.69.94,1.08,1.37-.63.47-1.65,1.05-2.96,1.08Zm11.11-30.11c.66.28,1.4.45,2.18.5,1.37.06,2.51.31,3.42.76.5,1.67.31,2.44.14,2.55-.18.12-.46.25-.85.42-.67.28-1.53.56-2.65.89-.01,0-.02,0-.04.01,0,0,0,0,0,0-.46.13-.96.27-1.46.41l-.81.22c-.33.02-.7.13-1.08.4-.09.06-.18.13-.26.2-.32.29-.62.67-.89,1.12-.41.69-.94,1.12-1.52,1.25-.51.11-1.08-.02-1.55-.35,0,0,0,0,0,0-.54-.38-.9-.97-1.02-1.66-.29-1.7-1.24-3.19-2.68-4.18-.79-.55-1.7-.9-2.63-1.06,1.72-1.44,3.75-2.28,5.91-2.48-.92.65-1.52,1.72-1.52,2.93,0,1.97,1.58,3.57,3.53,3.57s3.53-1.6,3.53-3.57c0-.92-.36-1.75-.93-2.39.45.15.81.29,1.07.4.04.02.07.04.11.05Zm-3.79,1.5c.26,0,.47.19.47.43s-.21.43-.47.43-.47-.19-.47-.43.21-.43.47-.43Zm-20.77,26.01l-10.17-10.16c-.13-.13-.27-.24-.43-.33-.41-.23-.76-.53-1.06-.88-.02-.02-.04-.05-.06-.07-.63-.76-1-1.73-1-2.77v-2.83h1.33s.05,1.07.05,1.07c.07,1.41.94,2.75,2.67,4.1.88.69,8.57,5.65,11.81,7.31.63,2.19,1.61,4.22,2.92,6.01-.27.07-.53.19-.75.36-1.5.26-3.42.03-5.31-1.82Zm21.64,34.25c-1.56-1.95-2.13-4.39-1.66-7.06l1.77-4.55,1.02.31-.98,2.07c-.83,1.76-.94,3.74-.3,5.43.78,2.06,2.79,4.42,7.91,4.7,0,.69.05,1.4.18,2.16.07.4.16.79.26,1.17-3.63-.63-6.49-2.07-8.2-4.21Zm31.81,3.2c-.03.1-.05.2-.07.3l-3.11-.65c-.16-.03-.31-.04-.46-.04l-6.25-.79c.08-.36.17-.72.28-1.1.01-.04.03-.08.05-.12l10.48,1.29c-.42.23-.76.61-.92,1.1Zm-4.4-11.23c-3.79,1.69-7.72,3.45-9.04,7.8,0,0,0,0,0,0-1.28,4.26-.93,7.56.04,10.01-2.88-1.31-5.87-3.57-6.54-7.43-.94-5.45,3.09-8.36,8.9-11.87,1.58-.96,3.08-1.86,4.27-2.84,3.47-2.84,5.21-6.67,4.88-10.77-.33-4.16-2.75-8.13-6.18-10.14-2.37-1.39-4.33-1.92-6.25-1.92-2.28,0-4.52.75-7.37,1.7-1.32.44-2.8.94-4.54,1.45-3.27.19-6.64-1.48-8.63-4.36-1.51-2.19-2.08-4.78-1.72-7.57,1.2,1.45,2.8,2.71,4.58,3.5,2.78,1.25,5.36.31,9.64-1.24,2.08-.75,4.67-1.69,8-2.66.4-.12.8-.21,1.21-.3l-2.61,3.54c-.66.89-.47,2.14.42,2.8.36.26.77.39,1.19.39.61,0,1.22-.28,1.61-.81l5.23-7.08s0,0,0,0l3.8-5.13c.9-1.21,1.37-2.59,1.37-3.97,0-1.04-.25-1.92-.74-2.6l-.62-.88,1.05-.81,1.74,2.22c.64.82.95,1.82.92,2.8,0,.03,0,.05,0,.08-.02.46-.12.92-.29,1.35-.01.04-.03.07-.04.11l-2.46,7.07s0,0,0,0l-2.57,7.37c-.36,1.04.19,2.18,1.23,2.55.22.08.44.11.66.11.83,0,1.6-.52,1.89-1.34l1.76-5.05c4.67,3.29,7.21,8.87,7.21,15.98,0,12.56-6.11,15.29-12.02,17.92Z"/>
</svg>