<?xml version="1.0" encoding="UTF-8"?>
<svg id="Layer_13" data-name="Layer 13" xmlns="http://www.w3.org/2000/svg" viewBox="0 0 120 120">
  <path d="m11.86,56.37l-1.78,4.46c-1.97,5.44-2.06,9.84-.26,13.45,4.24,8.52,14.19,8.76,17.8,8.55l6.69,10.54.26.38c1.37,2.02,3.64,3.23,6.09,3.23h.01c-.15.19-.29.39-.41.6-.35-.23-.79-.43-1.32-.56-2.06-.5-4.92.22-7.64,1.92-.56.34-1.12.75-1.73,1.24-3.12,2.58-4.32,5.62-3.04,7.76.36.6,1.08,1.39,2.46,1.72.43.1.89.15,1.38.15,1.86,0,4.1-.73,6.27-2.08,2.38-1.49,4.12-3.39,4.86-5.23.46.36,1,.68,1.61.95-1.26.89-1.99,2.05-1.99,3.38,0,2.98,3.67,5.15,8.73,5.15s8.73-2.17,8.73-5.15c0-1.75-1.26-3.21-3.32-4.12,1.05-.74,1.73-1.68,1.93-2.74,1.54,1.03,3.83,1.62,6.41,1.62.11,0,.21,0,.32,0,.08,0,.16,0,.24-.01-1.71.92-2.74,2.26-2.74,3.84,0,2.98,3.67,5.15,8.73,5.15s8.73-2.17,8.73-5.15-3.67-5.15-8.73-5.15c-.16,0-.31,0-.46.01.34-.17.66-.36.95-.56,0,0,0,0,0,0,.53-.38.95-.81,1.27-1.27.26.18.5.36.77.52,2.14,1.3,4.4,2.04,6.24,2.04.04,0,.08,0,.12,0,2.34-.04,3.35-1.23,3.75-1.95,1.47.67,3.36,1.06,5.5,1.06,3.19,0,5.82-.86,7.34-2.24.9,1.01,2.06,1.97,3.44,2.79,2.18,1.29,4.34,1.94,6.14,1.94s3.24-.64,4-1.92c0,0,0,0,0,0,1.5-2.53-.4-6.11-4.62-8.7-.09-.06-.18-.12-.27-.17-.24-.14-.49-.28-.73-.41.29-.4.43-.91.37-1.41-.02-.14-.04-.27-.09-.4l.04-.63c0-.14,0-.27-.01-.41-.72-5.19-3.94-7.76-10.1-8.04.06-.17.14-.32.22-.39l3.49-3.28s.05-.05.07-.08c.02-.02.04-.03.06-.05,1.97-2.24,5.58-6.34,7.51-11.77,0,0,0,0,0,0,0-.01,0-.03.01-.04.96-2.73,1.49-5.79,1.17-9.12,0-.08-.01-.15-.02-.23-.29-2.71-1.14-5.59-2.79-8.61,0-.02-.02-.03-.03-.05-.23-.42-.48-.85-.74-1.28-.05-.08-.11-.16-.17-.23l-3.46-4.11-3.35-4,2.61-1.55c1.05-.07,2.47.09,2.94.61.29.33.17,1.05.07,1.45-.67,2.69.07,4.43.81,5.42,1.16,1.56,2.98,2.19,4.3,2.25.05,0,.09,0,.14,0,1.05,0,2.01-.6,2.46-1.56.47-1.02.28-2.21-.48-3.03,0,0,0,0,0,0,.06-.17.26-.58.87-1.29,2.68-3.09,2.74-5.58,2.32-7.13-.4-1.47-1.37-2.72-2.89-3.74l.56-.39c.2-.12.34-.25.4-.31,1.48-1.03,2.26-2.74,2.02-4.46-.13-.95-.54-1.82-1.2-2.55.86-.72,1.36-1.76,1.37-2.86,0-1.12-.47-2.17-1.29-2.92-.78-.68-1.78-1.03-2.87-.92l-.09-.46c-.38-1.97-1.72-3.57-3.61-4.27-1.83-.68-3.84-.39-5.37.79l-3.47,2c-.96-2.26-3.22-4.15-7-4.33-3.54-.16-5,.89-7.05,2.34-1.22.87-2.75,1.95-5.34,3.23-1.75.87-5.68,1.59-7.05,1.79-.66.1-1.23.52-1.51,1.12-.29.6-.25,1.31.09,1.88.06.1.31.51.78,1.05-.8.37-1.52.75-2.22,1.13-.8.43-1.63.87-2.59,1.3-.97.43-3.04,0-5.04-.42-3.8-.79-8.53-1.78-12.94.8-.69.4-1.07,1.18-.97,1.97.1.79.66,1.45,1.43,1.67.04.01,4.36,1.28,6.52,3.97.44.55.9,1.01,1.36,1.4-2.14.72-4.43,1.23-5.51,1.43-.68.12-1.25.59-1.5,1.24-.25.64-.16,1.37.26,1.93,2.49,3.34,8.5,4.45,14.18,3.18-.42.52-.55,1.22-.35,1.86.21.68.78,1.19,1.47,1.35.13.03,3.11.68,6.75.16h0s.1-.01.1-.01c.55-.04,1.29-.15,2.29-.35-.14.21-.27.4-.4.57-.43.53-.56,1.23-.36,1.87-11.4-2.9-24.18-1.52-33.94,3.75-.24.13-.47.27-.7.4-.42.08-.81.3-1.11.64-3.88,2.38-7.08,5.36-9.3,8.67-.99,1.39-2.2,3.4-3.31,5.61-.06-.73,0-1.82.06-2.49l.35-3.43,9.85-9.36c.55-.52.76-1.31.53-2.04-.22-.73-.84-1.26-1.59-1.38l-3.76-.61,1.63-5.1c.24-.76,0-1.6-.6-2.12-.61-.52-1.47-.63-2.18-.29l-5.17,2.52-2.73-4.12c-.42-.64-1.17-.98-1.94-.88-.76.11-1.4.64-1.63,1.37l-1.56,4.87-2.54-1.57c-.62-.38-1.39-.4-2.02-.04-.63.35-1.03,1.02-1.03,1.75,0,3.94.7,7.8,2.09,11.47.8,2.12,1.34,3.43,1.77,4.27Zm22.66,47.97c-2.08,1.29-3.79,1.55-4.46,1.46.16-.47.72-1.44,2.03-2.53.46-.37.88-.68,1.31-.94,2.07-1.3,3.78-1.56,4.45-1.46-.23.76-1.34,2.22-3.34,3.47Zm40.22,1.08c-.52.44-2.12,1.15-4.61,1.15s-4.09-.71-4.61-1.15c.52-.44,2.12-1.15,4.61-1.15s4.09.71,4.61,1.15Zm-.87-26.24c.17,0,.32,0,.47,0l.45,1.08c-1.22.43-3.01.98-5.22,1.47.13-.88.1-1.75-.03-2.55,1.75-.03,3.24-.01,4.33,0Zm-8.38.13c.24.88.36,2.21-.53,3.2-1.68.2-3.48.33-5.38.33.31-1.03.39-2.11.32-3.08,1.96-.22,3.84-.36,5.58-.45Zm-9.57.99c.02.79-.12,1.7-.69,2.31-1.79-.19-3.62-.5-5.48-.98,2.04-.56,4.12-1,6.17-1.33Zm3.74,6.57c7.56,0,13.7-1.83,16.68-2.91l2.23,5.35c.5,1.2,1.46,2.09,2.62,2.55-.2.16-.38.33-.55.51-.85-.84-1.84-1.62-2.91-2.27-2.8-1.71-5.69-2.41-7.74-1.86-1.36.36-2.04,1.17-2.38,1.78-.26.48-.4,1.01-.43,1.56-.76-.15-1.57-.24-2.44-.27-.31-.02-.62-.02-.93-.02-2.66.05-4.93.69-6.48,1.72-.17-2.05-.87-3.77-2.11-5.13-.51-.57-1.13-1.05-1.81-1.46,2.15.3,4.25.44,6.24.44Zm-6.54,12.46c-.52.44-2.12,1.15-4.61,1.15s-4.09-.71-4.61-1.15c.52-.44,2.12-1.15,4.61-1.15s4.09.71,4.61,1.15Zm-3.28,8.66c-2.49,0-4.09-.71-4.61-1.15.52-.44,2.12-1.15,4.61-1.15s4.09.71,4.61,1.15c-.52.44-2.12,1.15-4.61,1.15Zm13.98-10.4c-2.44.05-4.05-.61-4.58-1.03.52-.46,2.12-1.21,4.66-1.26.2,0,.39,0,.65.01,2.17.06,3.46.66,3.92,1.02-.04.04-.1.08-.17.13-.69.49-2.28,1.09-4.47,1.13Zm15.13-.58c-.86,0-2.41-.36-4.2-1.45-.72-.44-1.36-.92-1.92-1.43-1.02-.93-1.44-1.67-1.59-2.06.69-.06,2.29.17,4.4,1.45,2.17,1.32,3.24,2.79,3.5,3.48-.06,0-.12,0-.2.01Zm9.32-.89c-2.49,0-4.09-.71-4.61-1.15.52-.44,2.12-1.15,4.61-1.15s4.09.71,4.61,1.15c-.52.44-2.12,1.15-4.61,1.15Zm17.36,2.46c-.66.12-2.41-.08-4.55-1.35-2-1.18-3.1-2.56-3.37-3.34.68-.11,2.41.1,4.54,1.36.05.04.11.08.16.11,2.03,1.24,3,2.61,3.21,3.23Zm-5.89-10.42l-16.83.03c-.29,0-.54-.17-.65-.44l-4.25-10.17c2.01-1.93,7.61-6.14,14.89-1.96l-1.66,1.56c-1.13,1.06-1.77,2.93-1.53,4.46.26,1.62,1.54,2.81,3.06,2.82,5.21.04,6.49,1.68,6.96,3.69Zm-7.49-48.87l1.62,1.93-1.48.83c-.52-.67-1.08-1.3-1.66-1.89l1.53-.87Zm6.19,7.4l-2.99.86c-.25-.72-.55-1.44-.9-2.12l1.93-1.08,1.96,2.35Zm-3.16,10.69c.04-.1.06-.19.1-.29l7.05.62c0,1.3-.15,2.57-.44,3.79l-7.29-2.92c.21-.39.4-.78.58-1.2Zm6.63-3.73l-5.64-.49c.04-.56.03-1.12,0-1.68l4.4-1.26c.55,1.17.96,2.32,1.25,3.44Zm-9.77,8.21l8.53,3.42c-.37.8-.78,1.58-1.23,2.34l-9.21-4.37c.68-.39,1.32-.85,1.92-1.39Zm14.27-24.92c-.46.53-.83,1.04-1.12,1.54.53-2.45-.26-3.98-1.03-4.84-.37-.41-.8-.74-1.26-1l2.14-1.42c1.56.65,2.53,1.44,2.75,2.25.23.86-.29,2.09-1.48,3.46Zm-4.71-22.53c.56,0,1.01.43,1.01.96s-.46.96-1.01.96-1.01-.43-1.01-.96.46-.96,1.01-.96Zm-24,2.75c2.88-1.42,4.61-2.65,5.88-3.55,1.84-1.31,2.41-1.7,4.55-1.6,2.82.13,3.78,1.69,3.73,3.1-.05,1.42-1.09,2.84-3.32,2.84-.04,0-.07,0-.11,0-.35,0-.63-.04-.86-.1-.13-.06-.26-.1-.4-.13-.2-.09-.31-.18-.34-.26-.04-.1,0-.29.15-.45.24-.27.66-.33,1.17-.17,1.06.33,2.18-.25,2.51-1.31.33-1.05-.25-2.18-1.31-2.51-2.03-.64-4.03-.15-5.34,1.31-1.17,1.3-1.51,3.13-.86,4.68-4.41,1.48-7.46.8-9.42-.24-.07-.08-.14-.15-.22-.22,1.48-.35,3.06-.82,4.2-1.38Zm-8.32,21.11s-.04,0-.06.01l-.45.08c-.06.01-.12.02-.18.03-.75.12-1.48.17-2.14.18,1.04-1.7,1.34-2.89,1.4-3.16.01-.06.02-.12.03-.18.05-.41-.02-.82-.2-1.17-.07-.13-.15-.26-.25-.38-.23-.27-.53-.48-.88-.6-.09-.03-.17-.05-.26-.07-.41-.08-.81-.03-1.17.13-.09.04-.17.08-.25.13h0s0,0,0,0c-3.45,2.12-7.65,2.57-10.75,2.04,1.95-.61,4.04-1.43,5.51-2.46.91-.63,1.13-1.88.49-2.78-.36-.52-.93-.81-1.52-.84-.03,0-.05-.01-.08-.01-.07,0-1.64-.09-3.08-1.88-.9-1.11-2.01-2.03-3.13-2.78,1.7.05,3.44.42,5.16.78,2.75.57,5.35,1.12,7.5.16,1.08-.48,1.97-.96,2.83-1.42,1.28-.68,2.41-1.28,3.94-1.8.19.1.36.21.57.3,1.46.69,3.42,1.27,5.9,1.27,1.75,0,3.77-.3,6.04-1.05.35,1.85,1.97,3.26,3.93,3.26,2.21,0,4-1.79,4-4,0-.33-.05-.65-.13-.95,1.83-.94,3.01-2.59,3.48-4.35l3.13-1.8c-.02.13-.04.26-.04.4,0,1.68,1.34,3.04,2.99,3.04,1.18,0,2.19-.7,2.67-1.71.43.92,1.29,1.78,3.07,1.66l-1.21.87c-.24.1-.47.26-.65.45-2.11,1.38-11.45,7.49-16.52,10.55-2.28,1.37-3.8,1.39-4.3.79-.28-.34-.27-.89.03-1.23.73-.83.65-2.09-.18-2.82-.83-.73-2.09-.65-2.82.18-1.6,1.82-1.64,4.59-.09,6.44.47.56,1.78,1.82,4.12,1.82,1.39,0,3.15-.45,5.31-1.75,4.79-2.89,13.33-8.46,16.15-10.3.38.25.57.51.6.72.03.23-.1.47-.34.63-.12.08-.22.17-.34.27,0,0-.01,0-.02.01l-2.35,1.65s-.02,0-.02.01l-8.12,5.38-4.99,2.96-5.05,2.89c-1,.18-4.89.62-7.69-2.5-1.29-1.43-.97-4.6-.75-5.59.24-1.08-.44-2.15-1.52-2.38-1.08-.24-2.15.44-2.38,1.52-.13.6-1.2,5.91,1.68,9.12,3.73,4.15,8.65,4.1,10.8,3.84,4.86,4.3,6.65,9.47,4.8,13.95-1.09,2.64-3.31,4.44-5.63,4.67-.02-.07-.04-.13-.05-.2-.39-3.05-1.89-6.17-4.07-8.84,1.2-.36,1.85-1.03,2.18-1.56.35-.55.7-1.49.41-2.8-.74-3.32-3.18-5.06-3.45-5.25-.36-.24-.79-.37-1.22-.35l-3.7.17c.26-.84.39-1.76.23-2.68-.09-.55-.41-1.03-.87-1.34-.46-.31-1.03-.41-1.57-.28-1.02.24-3.18.64-4.46.87Zm9.63,9.17c-1.32-.62-2.69-1.19-4.07-1.68l4.18-.19c.4.41.98,1.13,1.29,2.14-.42.06-.91-.04-1.4-.27Zm-10.36.65c-5.73,2.92-16.91,7.09-27.72,2.53,8.26-3.73,18.41-4.65,27.72-2.53Zm-39.71,12.11c1.84-2.74,4.47-5.21,7.66-7.24,4.47,2.46,9.42,3.72,14.69,3.72,3.54,0,7.23-.56,10.99-1.69,5.42-1.62,9.58-3.98,11.48-5.16,4.15,2.33,7.64,6.91,8.16,11.01.14,1.11.6,2.13,1.3,2.95,0,0,0,0,0,0,.52.62,1.17,1.14,1.93,1.5l11.98,5.68c-.45.59-.91,1.16-1.38,1.73-10.44-6.74-18.64.12-20.98,2.48-.25,0-.54,0-.88,0-4.96-.05-17.65-.17-28.52,3.62-1.35-2.09-4.23-5.45-9.68-7.5-4.54-1.71-9.09-1.12-12.06-.36.33-1.16.82-2.42,1.37-3.68.03-.07.06-.13.09-.2,1.15-2.56,2.6-5.11,3.84-6.86Zm-8.87,15.38c.58.37,1.3.41,1.92.13.06-.03,6.38-2.9,12.3-.67,4.74,1.79,7,4.69,7.89,6.16-.03.31,0,.63.13.94.08.19.18.37.31.52l.78,3.02c.39,1.81,1.9,3.14,3.63,3.17,1.68.02,3.95.35,5.23,1.75.55.61.9,1.41,1.04,2.39h-12.65c-1.12,0-2.15-.55-2.78-1.48l-7.53-11.85c-.42-.66-1.2-1.01-1.97-.91-.11.02-11.15,1.44-14.98-6.25-1.28-2.58-1.14-5.95.42-10.24l2.41-6.05c1.25-2.99,1.8-2.87,2.01-2.83.57.12.5.16.5.16.09.12.28.66.11,2.93l-.43,4.17s0,.08,0,.1c-.16,2.27-.32,4.62,1.19,6.24.27.29.58.51.92.71-.82,2.2-1.37,4.38-1.37,6.21,0,.68.35,1.32.93,1.68Zm-6.41-30.34c.52.32,1.17.39,1.74.17.58-.21,1.02-.68,1.21-1.27l1.07-3.34,1.39,2.1c.55.84,1.64,1.13,2.54.69l2.55-1.24-.91,2.86c-.18.55-.1,1.16.2,1.66.31.5.81.83,1.39.93l2.07.33-4.37,4.15c-.47-1.32-1.45-2.42-3.48-2.83-2.31-.5-3.85.65-4.9,2.1-.1-.27-.21-.56-.33-.87-.78-2.05-1.31-4.17-1.59-6.33l1.43.88Z"/>
  <path d="m27.98,63.82c1.17,3.54,3.92,5.9,7.77,6.66.61.12,1.22.18,1.82.18,2.26,0,4.38-.84,6-2.42,1.96-1.91,2.92-4.67,2.49-7.21-.43-2.54-2.15-4.67-4.49-5.57-2.25-.86-4.73-.47-6.66,1.06-1.65,1.31-2.49,3.44-2.14,5.42.31,1.73,1.47,3.05,3.18,3.61,1.46.48,2.97.23,4.04-.68.95-.8,1.4-2.04,1.21-3.3-.17-1.09-1.2-1.84-2.28-1.68-.95.14-1.64.94-1.7,1.86-.01,0-.02,0-.03-.01-.3-.1-.43-.24-.48-.51-.08-.45.13-1.14.69-1.58,1.11-.88,2.19-.67,2.73-.46,1.04.4,1.78,1.33,1.98,2.5.21,1.26-.3,2.67-1.33,3.68-.65.63-2.07,1.62-4.26,1.19-1.67-.33-3.85-1.29-4.74-3.99-.35-1.05-1.47-1.62-2.53-1.27-1.05.35-1.62,1.48-1.27,2.53Z"/>
  <path d="m66.56,67.25c1.74,1.5,3.84,2.29,5.99,2.29.74,0,1.49-.09,2.23-.29,2.75-.71,5.04-2.71,5.96-5.22.92-2.5.47-5.31-1.17-7.32-1.58-1.93-4.01-2.85-6.53-2.47-2.16.33-4,1.81-4.7,3.77-.61,1.71-.24,3.47,1,4.85,1.06,1.17,2.54,1.72,3.95,1.46,1.25-.23,2.28-1.1,2.75-2.32.39-1.01-.12-2.11-1.12-2.52-.91-.38-1.96,0-2.47.82-.04-.03-.09-.07-.14-.12-.25-.27-.3-.51-.2-.82.17-.48.75-1.03,1.54-1.15,1.52-.23,2.43.55,2.83,1.04.77.94.96,2.21.52,3.41-.48,1.29-1.7,2.34-3.2,2.72-.94.24-2.78.42-4.6-1.16-1.38-1.19-2.89-3.23-2.29-6.21.22-1.08-.48-2.14-1.56-2.36-1.09-.22-2.14.48-2.36,1.56-.77,3.8.5,7.36,3.59,10.03Z"/>
  <path d="m55.5,75.12c.56,0,1.12-.06,1.67-.17,2.95-.59,5.26-2.55,6.18-5.23.81-2.36.38-4.85-1.17-6.66-1.48-1.73-4.02-2.65-6.18-2.24-1.81.34-3.21,1.58-3.83,3.38-.58,1.67-.26,3.39.84,4.48.96.96,2.38,1.27,3.71.8,1.04-.36,1.58-1.5,1.22-2.54-.3-.87-1.14-1.39-2.02-1.34,0-.03.02-.06.03-.1.16-.46.39-.68.8-.76.76-.14,1.84.27,2.39.91.62.73.78,1.73.43,2.75-.46,1.33-1.65,2.31-3.19,2.62-1.47.29-3-.18-4.18-1.3-1.34-1.27-1.99-3.1-1.72-4.9.21-1.4.93-2.69,2.08-3.74.82-.74.88-2.01.14-2.83-.74-.82-2-.88-2.82-.14-1.85,1.68-3.01,3.79-3.36,6.12-.45,3.08.64,6.21,2.93,8.38,1.71,1.62,3.85,2.49,6.05,2.49Z"/>
  <path d="m88.7,110.64c.79,0,1.62-.06,2.46-.18,2.53-.38,4.78-1.29,6.19-2.5,1.79-1.54,1.79-3.12,1.63-3.92-.64-3.23-5.32-4.27-9.61-3.63-3.25.48-5.91,1.8-7.13,3.53-.81,1.15-.82,2.21-.69,2.9.44,2.21,2.85,3.63,6.46,3.8.23.01.46.02.69.02Zm1.26-6.28c2.51-.38,4.27.07,4.92.44-.04.04-.09.09-.15.13-.64.56-2.08,1.26-4.15,1.57-.84.12-1.64.16-2.39.13-1.38-.06-2.17-.36-2.54-.57.49-.48,1.86-1.34,4.31-1.7Z"/>
  <path d="m23.59,102.73c1.43-.33,2.96-.99,4.41-1.92,0,0,0,0,0,0,4.24-2.74,6.18-6.55,4.62-9.06-.37-.6-1.1-1.37-2.48-1.68-2.06-.47-4.91.29-7.63,2.04-1.9,1.22-3.4,2.73-4.29,4.27-1.42.33-2.94.99-4.4,1.93-4.24,2.73-6.19,6.53-4.63,9.06.37.6,1.11,1.37,2.5,1.68.4.09.82.13,1.27.13,1.88,0,4.16-.77,6.34-2.18,1.9-1.23,3.4-2.74,4.29-4.27Zm1.09-7.27c2.06-1.33,3.76-1.61,4.44-1.53-.2.66-1.17,2.14-3.29,3.51-1.31.84-2.69,1.4-3.79,1.52-.14.02-.27.02-.37.02s-.2,0-.27-.01c0-.03.02-.07.04-.11.31-.8,1.34-2.16,3.25-3.4Zm-7.55,8.18c-2.06,1.33-3.76,1.61-4.44,1.53.2-.66,1.17-2.14,3.3-3.51.56-.36,1.13-.67,1.68-.91,0,.02.02.03.03.05.06.13.13.26.19.37.05.08.11.17.19.27.02.03.05.06.07.09.05.07.11.13.17.2.03.04.07.07.11.11.06.06.13.12.2.18.04.04.09.07.14.11.05.04.09.08.14.11-.48.46-1.07.94-1.79,1.41Z"/>
</svg>