<?xml version="1.0" encoding="UTF-8"?>
<svg id="Layer_13" data-name="Layer 13" xmlns="http://www.w3.org/2000/svg" viewBox="0 0 120 120">
  <path d="m11.89,71.25c.1.79.23,1.57.44,2.35.34,1.24.81,2.41,1.38,3.52.02.03.03.07.05.1,2.05,3.93,5.37,7.02,8.44,8.97-2.42,3.81-4.09,10.26,1.5,16.39.07.08.15.15.23.22,5.1,4.05,11.81,3.61,15.25,3.01.99,3.57,4.12,6.19,7.82,6.19h14.3c1.86,0,3.38-1.56,3.38-3.48,0-5.79-4.44-10.5-9.91-10.5h-3.56c-1.7,0-3.34-.56-4.61-1.58-.06-.05-.1-.1-.16-.15,3.78-3.44,8.38-5.11,13.72-4.93,10.42.34,20.97,7.49,24.81,12.21.03.03.06.07.09.1l1.23,1.32c2.19,2.35,5.23,3.7,8.35,3.7h14.36c1.65,0,2.99-1.38,2.99-3.07,0-5.93-3.96-11.93-11.54-11.93h-5.42l-6.05-6.31c1.19-1.58,1.8-3.48,1.73-5.46,0-.25-.03-.49-.06-.72,0-.01,0-.02,0-.03,0-.01,0-.02,0-.04,0-.06-.03-.11-.04-.17-.02-.06-.03-.13-.05-.18-.03-.08-.06-.15-.1-.22-.02-.04-.04-.09-.06-.12-.05-.09-.11-.17-.18-.24-.02-.02-.03-.04-.05-.06-.08-.09-.16-.16-.25-.23,0,0-.02-.02-.03-.02-.09-.07-.19-.13-.29-.19-.01,0-.02-.01-.03-.02-.09-.05-.19-.08-.29-.12-.02,0-.05-.02-.07-.03-.08-.02-.17-.04-.26-.05-.05,0-.09-.02-.14-.02-.07,0-.14,0-.21,0-.06,0-.11,0-.17,0-.01,0-.02,0-.04,0-.01,0-.02,0-.03,0l-11.63,1.84c.04-.18.1-.35.2-.5.1-.15.32-.42.68-.49l6.48-1.28c1.71-.34,3.34-1.09,4.74-2.19l.16-.12c2.8-2.2,3.42-6.42,1.37-9.41l-.33-.49c-1.21-1.78-3.47-2.39-5.37-1.46l-1.32.65c-.43.21-.89.32-1.37.32h-.33v-1.42c0-3.22-2.5-5.84-5.58-5.84-2.75,0-4.9,2.57-5.44,5.26l-1.95,1c-5.37-1.01-11.83-4.58-16.2-7.31,4.18-2.61,4.75-6.09,4.7-7.94,0-.1,0-.2-.01-.3,0-.03,0-.06,0-.09-.17-2.33-1.28-4.56-2.97-6.35,3.38-3.09,10.02-10.1,10.43-17.84.49-9.48-5.44-15.95-15.88-17.29-12.48-1.61-23.6,5.7-25.81,9.91-1.1,2.09-.66,4.44,1.11,5.83,1.89,1.49,5.64,1.89,9.94-1.89,4.78-4.2,10.86-3.77,10.92-3.76.06,0,.12,0,.17,0,2.02,0,3.69.65,4.73,1.82.98,1.12,1.35,2.67,1.1,4.61-.52,4.01-8.46,11.61-12.14,11.61-.04,0-.09,0-.14,0-.69.05-16.69,1.29-24.17,15.06-1.85,1-6.67,4.28-6.43,11.08,0,4.4,2.33,7.3,3.88,8.73Zm4.79-16.46c.44-.18.79-.51,1.01-.93,1.03-2.02,2.29-3.73,3.68-5.19.14.64.37,1.24.71,1.8,1.67,2.75,4.94,3.12,5.31,3.15.06,0,.12,0,.18,0,1.02,0,1.88-.77,1.98-1.8.11-1.09-.69-2.07-1.78-2.19-.02,0-1.65-.21-2.27-1.26-.51-.86-.26-2.16.12-3.26,6.08-4.02,12.61-4.69,13.22-4.75,5.7-.09,15.24-9.06,16.02-15.09.51-3.91-.84-6.38-2.06-7.77-1.79-2.03-4.5-3.16-7.65-3.18-.96-.06-8.02-.34-13.81,4.75-2.43,2.13-4.25,2.21-4.82,1.75-.22-.18-.24-.45-.04-.82,1.22-2.31,10.38-9.27,21.76-7.81,4.85.63,12.92,3.16,12.4,13.12-.35,6.67-6.97,13.18-9.68,15.58-1.1-.58-2.29-1.02-3.54-1.26-1.09-.2-2.13.51-2.34,1.59-.21,1.08.5,2.13,1.59,2.34.99.19,1.93.57,2.78,1.09,0,0,0,.01.01.02.02.03.05.05.07.07-1,.1-2.4.01-4.32-.53-1.06-.3-2.17.32-2.47,1.38s.32,2.17,1.38,2.47c1.83.51,3.37.71,4.68.71,1.65,0,2.91-.32,3.84-.73.13.27.24.54.33.82-1.67.65-5.01,1.46-9.14-.09-1.03-.39-2.19.13-2.58,1.17-.39,1.03.13,2.19,1.17,2.58,2.24.85,4.32,1.15,6.15,1.15,1.27,0,2.42-.15,3.42-.36-.76.86-1.89,1.61-3.34,2.22-.73-.5-1.15-.81-1.17-.83-.89-.66-2.14-.47-2.8.42-.66.89-.47,2.14.42,2.8.55.41,13.58,9.96,23.61,11.5.42.07.84,0,1.22-.2l3.5-1.8c.67-.34,1.09-1.03,1.09-1.78,0-1.29,1-2.55,1.58-2.55.87,0,1.58.83,1.58,1.84v1.43c0,2.2,1.73,4,3.86,4h.47c1.08,0,2.17-.25,3.14-.74l1.32-.65c.14-.07.25.06.3.13l.34.49c.86,1.26.61,3.1-.54,4.01l-.16.12c-.9.71-1.95,1.19-3.04,1.41l-6.48,1.28c-1.34.26-2.5,1.06-3.26,2.24-.8,1.23-1.07,2.77-.73,4.23l.27,1.19s.03.08.04.11c.02.05.03.11.05.16.02.06.05.11.08.17.02.05.05.1.08.14.03.05.07.1.11.15.03.04.06.08.09.12.04.05.09.09.14.14.04.03.07.07.11.1.05.04.1.08.16.11.04.03.08.06.12.08.06.03.12.06.17.08.04.02.09.04.13.06.07.02.13.04.2.06.04.01.08.03.13.03.11.02.22.03.33.03,0,0,.01,0,.02,0,0,0,0,0,0,0s0,0,0,0c0,0,0,0,0,0,.1,0,.21,0,.31-.02l11.05-1.75c-.22.59-.57,1.15-1.03,1.63-.97,1-2.32,1.58-3.71,1.58h-4.38c-1.1,0-2,.9-2,2s.9,2,2,2h4.38c1.49,0,2.95-.38,4.25-1.06l6.81,7.1c.38.39.9.62,1.44.62h6.27c5.34,0,7.16,4.16,7.48,6.99h-13.3c-2.04,0-3.96-.86-5.42-2.43l-1.18-1.27c-4.47-5.45-15.98-13.25-27.74-13.63-6.12-.18-11.41,1.6-15.82,5.32-.02-.11-.05-.22-.09-.32-.06-1.22.28-2.56,1.06-4.02.52-.98.15-2.19-.83-2.71-.97-.52-2.19-.15-2.71.83-.83,1.56-1.33,3.1-1.49,4.58-2.8-.15-6.93-.83-8.04-2.94-.52-.98-1.72-1.35-2.7-.83-.98.51-1.35,1.72-.83,2.7,2.25,4.27,8.76,5,12,5.1.58,1.68,1.67,3.2,3.27,4.49,1.98,1.59,4.5,2.46,7.12,2.46h3.56c3.1,0,5.65,2.64,5.89,5.98h-13.65c-2.29,0-4.15-2.07-4.15-4.61,0-.63-.3-1.23-.81-1.61-.51-.38-1.17-.49-1.77-.31-.08.03-8.34,2.45-13.74-1.71-.33-.37-.62-.73-.88-1.1,1.51.47,3.06.61,4.29.61s2.08-.12,2.32-.15c1.09-.16,1.84-1.18,1.68-2.27s-1.17-1.85-2.27-1.69c-1.19.17-4.95.31-6.55-1.25-.25-.25-1.02-.99-.78-3.03,0,0,0-.02,0-.02.69-2.13,1.98-3.6,2.26-3.9.44-.46.63-1.1.52-1.73-.11-.62-.51-1.16-1.08-1.44-1.2-.59-2.82-1.62-4.41-3.02-.78-2.35-.19-5.58,1.52-8.24,1.04-1.62,3.42-4.4,7.62-4.81,1.1-.11,1.9-1.09,1.79-2.19-.11-1.1-1.09-1.91-2.19-1.79-4.36.43-8.12,2.78-10.6,6.63-1.11,1.73-1.85,3.63-2.22,5.53-.05-.09-.11-.17-.15-.26-.81-6.65,3.38-12.12,10.55-13.67,1.08-.23,1.76-1.3,1.53-2.38s-1.3-1.76-2.38-1.53c-4.41.96-7.98,3.18-10.39,6.18.48-1.25,1.12-2.5,1.95-3.77.61-.92.35-2.16-.57-2.77-.92-.61-2.16-.35-2.77.57-1.43,2.18-2.42,4.36-3,6.54-.22-.7-.36-1.48-.36-2.35-.2-5.49,4.48-7.58,4.67-7.66Z"/>
  <path d="m49.36,78.1c1.17,1.18,2.71,1.83,4.29,1.83.26,0,.52-.02.78-.05l1.52-.2c1.09-.15,1.86-1.15,1.72-2.25-.15-1.09-1.16-1.86-2.25-1.72l-1.51.2c-.6.08-1.23-.15-1.71-.63-.54-.54-.79-1.28-.68-2.05,0-.06.02-.11.03-.17.15-.75.6-1.36,1.22-1.66.48-.23,1.07-.19,1.61.12l1.53.86c.96.54,2.18.19,2.72-.77.54-.96.19-2.18-.77-2.72l-1.53-.85c-1.67-.94-3.66-1.02-5.3-.23-1.75.85-3,2.47-3.4,4.46-.03.14-.05.29-.07.42-.28,2,.38,3.98,1.8,5.41Z"/>
  <path d="m58.54,80.52c1.33,3.81,4.17,6.38,7.58,6.88.1.01.19.02.29.02.98,0,1.83-.72,1.98-1.71.16-1.09-.6-2.11-1.69-2.27-1.91-.28-3.54-1.86-4.38-4.24-.88-2.52-.54-5.21.84-6.69.76-.81.71-2.07-.09-2.83-.8-.75-2.07-.72-2.83.09-2.42,2.58-3.08,6.8-1.7,10.75Z"/>
  <path d="m67.4,83.31l.16.1c.33.21.7.3,1.06.3.67,0,1.32-.33,1.7-.94.58-.94.3-2.17-.64-2.76l-.18-.11c-2.04-1.26-3.59-2.59-2.02-6.14.45-1.01-.01-2.19-1.02-2.64-1.01-.44-2.19.01-2.64,1.02-2.06,4.67-.85,8.42,3.58,11.16Z"/>
  <path d="m70.84,76.02c1.57.09,2.98-1.19,3.14-2.86l-5.7-.31c-.16,1.67.99,3.08,2.56,3.17Z"/>
  <path d="m78.32,72.62c.91-1.02.8-2.67-.25-3.68l-3.29,3.71c1.05,1.01,2.63,1,3.54-.03Z"/>
  <path d="m36.61,64.83c.38.33.84.49,1.31.49.56,0,1.12-.23,1.51-.69.72-.84.63-2.1-.21-2.82-2.21-1.91-4.49-4.26-4.58-7.19-.08-2.65,1.62-5.7,5.04-9.05.79-.77.8-2.04.03-2.83-.77-.79-2.04-.8-2.83-.03-4.32,4.23-6.37,8.16-6.25,12.03.14,4.5,3.26,7.76,5.96,10.1Z"/>
  <path d="m36.88,68.86c.78-.78.79-2.05,0-2.83-.78-.78-2.04-.79-2.83,0-8.13,8.09-5.98,16.48-3.71,19.78.39.56,1.01.86,1.64.86.39,0,.78-.11,1.12-.35.91-.62,1.15-1.86.54-2.77-.19-.28-4.51-6.99,3.23-14.69Z"/>
  <path d="m38.59,67.89c-3.63,3.58-4.32,7.85-4.27,10.8.06,3.31,1.16,6.69,2.62,8.03.38.35.87.53,1.36.53.54,0,1.08-.22,1.47-.65.75-.81.7-2.07-.12-2.82-.95-.98-3.14-8.22,1.74-13.04.79-.78.79-2.04.02-2.83-.78-.79-2.04-.8-2.83-.02Z"/>
  <path d="m42.46,83.18c.39.54,1,.83,1.62.83.4,0,.8-.12,1.16-.37.9-.63,1.11-1.88.49-2.78-.31-.45-2.94-4.55,1.23-8.86.77-.79.75-2.06-.05-2.83-.79-.77-2.06-.75-2.83.05-5.28,5.46-3.36,11.52-1.61,13.96Z"/>
</svg>