<?xml version="1.0" encoding="UTF-8"?>
<svg id="Layer_13" data-name="Layer 13" xmlns="http://www.w3.org/2000/svg" viewBox="0 0 120 120">
  <path d="m24.24,79.77c2.8-.19,5.41-.75,7.3-1.26.1.69.33,1.41.77,2.11.88,1.41,2.34,2.34,4.36,2.79,0,.05,0,.1,0,.15-.31,7.1,1.84,13.27,6.23,17.85,4.3,4.49,10.31,6.96,16.94,6.96.06,0,.11-.01.16-.02.05,0,.11.02.16.02,6.63,0,12.65-2.47,16.94-6.96,4.38-4.58,6.53-10.75,6.23-17.85,0-.05,0-.1,0-.15,2.02-.45,3.49-1.39,4.36-2.79.44-.7.67-1.42.77-2.11,1.89.51,4.5,1.07,7.3,1.26,9.7.66,13.68-3.62,15.33-7.33,3.18-7.16-2.59-12.88-7.25-15.65.64-1.54,1.21-3.83.58-6.35-.7-2.81-2.68-5.19-5.88-7.09l1-3.76c2.67-8.59,5.79-23.56-3.36-27.27-7.06-2.86-17.25,3.49-22.1,11.11-4.13-2.37-8.88-3.67-13.84-3.71h-.02c-.07,0-.14.01-.22.02-.07,0-.14-.02-.22-.02h-.02c-4.96.04-9.71,1.34-13.84,3.71-4.86-7.63-15.04-13.98-22.11-11.12-9.15,3.71-6.03,18.68-3.38,27.19l1.02,3.84c-3.2,1.9-5.18,4.28-5.88,7.09-.63,2.52-.06,4.81.58,6.35-4.66,2.77-10.44,8.49-7.25,15.65,1.65,3.7,5.64,7.98,15.33,7.33Zm49.97,18.87c-3.54,3.69-8.53,5.73-14.05,5.73-.06,0-.11.01-.16.02-.05,0-.11-.02-.16-.02-5.53,0-10.52-2.03-14.05-5.73-3.61-3.77-5.38-8.92-5.12-14.91v-.17c.04-.17.06-.32.07-.45.66-6.13,4.28-11.6,9.68-14.64,2.73-1.55,5.72-2.37,8.87-2.45.05,0,.1,0,.15,0,.02,0,.04,0,.06,0,.04,0,.08.01.12.01.07,0,.13,0,.2,0,.06,0,.12,0,.18,0,.06,0,.12,0,.18,0,.07,0,.13,0,.2,0,.04,0,.08,0,.12-.01.02,0,.04,0,.06,0,.05,0,.1,0,.15,0,3.16.08,6.14.9,8.88,2.45,5.4,3.04,9.01,8.52,9.67,14.64.01.13.03.29.06.45v.17c.27,5.98-1.5,11.14-5.11,14.91Zm26.31-47.26c.68,2.64-1,5.07-1,5.08-.35.48-.46,1.1-.31,1.68s.55,1.06,1.09,1.31c.03.01,2.76,1.3,4.98,3.49,2.65,2.61,3.35,5.19,2.15,7.89-4.04,9.09-20.39,3.08-20.55,3.02-.75-.28-1.59-.09-2.14.49-.55.57-.71,1.42-.4,2.16,0,.01.45,1.24-.04,2.02-.27.42-.83.75-1.64.96-.97-3.8-2.89-7.29-5.56-10.13,4.42-.31,7.1-2.11,8.48-3.42,2.42,2.01,4.66,2.56,6.36,2.56.81,0,1.49-.12,2.02-.26,2.4-.64,4.33-2.4,5.03-4.59,1.06-3.3-1.89-6.58-3.66-8.19l2.13-8.01c1.66,1.18,2.7,2.5,3.07,3.96Zm-5.85-35.35c4.45,1.8,4.84,10.17,1.02,22.45l-1.29,4.83s-.06.08-.08.12c-.14.29-.2.6-.2.91l-3.01,11.28c-.21.78.07,1.6.71,2.1,1.83,1.42,3.64,3.72,3.33,4.68-.23.73-1.02,1.62-2.25,1.95-1.54.41-3.32-.19-5.03-1.7,1.21-2.36,2.87-6.63,2.64-12.01l.12-.36c1.94-5.76,4.88-14.46,5.67-23.23.1-1.1-.71-2.07-1.81-2.17-1.11-.11-2.07.71-2.17,1.81-.51,5.61-1.97,11.28-3.45,16.09-1.81-5.04-4.82-9.87-7.42-13.13-1.22-1.48-2.59-2.81-4.08-3.98,4.16-6.7,12.58-11.55,17.29-9.64Zm-48.5,11.95c.12-.07.24-.15.34-.23,3.82-2.58,8.37-3.98,13.28-4.02.07,0,.13-.01.2-.02.07,0,.13.02.2.02,4.9.04,9.45,1.43,13.26,4,.12.1.25.19.39.27,1.66,1.17,3.17,2.57,4.51,4.18,2.82,3.54,6.55,9.7,7.75,15.39,1.78,8.41-2.62,14.69-2.66,14.75,0,.01-.01.03-.02.04,0,.01-.02.02-.03.03-.13.19-3.19,4.48-12.15,2.44-3.12-1.7-6.64-2.67-10.21-2.8,0,0,0,0-.01,0-.02,0-.05,0-.07,0-.03,0-.05,0-.08,0-.1,0-.19,0-.29,0-.12,0-.24-.01-.36-.01,0,0,0,0,0,0s0,0,0,0c0,0-.02,0-.03,0-.01,0-.02,0-.03,0-.01,0-.02,0-.03,0-.04,0-.09,0-.13,0-.04,0-.09,0-.13,0-.01,0-.02,0-.03,0-.01,0-.02,0-.03,0,0,0-.02,0-.03,0,0,0,0,0,0,0s0,0,0,0c-.12,0-.24.01-.36.01-.1,0-.19,0-.29,0-.03,0-.05,0-.08,0-.02,0-.05,0-.07,0,0,0,0,0-.01,0-3.57.13-7.09,1.09-10.21,2.8-8.91,2.02-11.99-2.21-12.14-2.43,0-.02-.02-.03-.03-.04,0-.01-.01-.03-.02-.04-.04-.06-4.46-6.27-2.66-14.75,1.21-5.69,4.93-11.85,7.73-15.36,1.35-1.63,2.89-3.04,4.56-4.22Zm-20.86-11.95c.7-.28,1.49-.42,2.33-.42,4.8,0,11.43,4.36,14.96,10.07-1.49,1.18-2.87,2.52-4.11,4-2.57,3.23-5.58,8.06-7.39,13.1-1.48-4.81-2.94-10.48-3.45-16.09-.1-1.1-1.08-1.92-2.17-1.81-1.1.1-1.91,1.07-1.81,2.17.79,8.77,3.72,17.47,5.67,23.23l.12.36c-.23,5.37,1.43,9.64,2.64,12.01-1.71,1.51-3.5,2.11-5.03,1.7-1.23-.33-2.02-1.21-2.25-1.95-.31-.96,1.51-3.26,3.33-4.67.64-.49.92-1.32.71-2.1l-3.01-11.28c0-.31-.05-.62-.2-.91-.02-.05-.05-.08-.08-.13l-1.31-4.9c-3.8-12.21-3.41-20.57,1.04-22.37Zm-10.6,46.9c2.22-2.19,4.96-3.48,4.98-3.49.54-.25.94-.73,1.09-1.3s.04-1.19-.3-1.68c-.02-.02-1.69-2.45-1.01-5.09.37-1.46,1.41-2.78,3.07-3.96l2.14,8.01c-1.76,1.6-4.71,4.89-3.66,8.19.7,2.19,2.63,3.95,5.03,4.59.52.14,1.21.26,2.02.26,1.7,0,3.95-.55,6.36-2.56,1.39,1.3,4.07,3.11,8.48,3.42-2.67,2.84-4.59,6.33-5.56,10.13-.81-.21-1.37-.53-1.64-.95-.51-.79-.04-2.03-.04-2.03.31-.74.15-1.58-.4-2.16-.55-.58-1.4-.77-2.14-.49-.16.06-16.51,6.07-20.55-3.02-1.2-2.7-.5-5.28,2.15-7.89Z"/>
  <path d="m57.05,55.69c-.62-.91-1.87-1.14-2.78-.51s-1.14,1.87-.51,2.78l1.62,2.36c.39.56,1.01.87,1.65.87.39,0,.79-.11,1.13-.35.91-.63,1.14-1.87.51-2.78l-1.62-2.36Z"/>
  <path d="m49.7,53.62c-3.79,2.83-8.53.54-8.72.45-.98-.5-2.19-.1-2.69.88-.5.99-.1,2.19.88,2.69.18.09,2.8,1.39,6.15,1.39,2.12,0,4.52-.52,6.77-2.2.88-.66,1.07-1.91.4-2.8-.66-.88-1.91-1.07-2.8-.4Z"/>
  <path d="m45.68,34.33s3.28-1.35,5.86.25c2.33,1.45,3.7,5.04,3.94,10.39.05,1.07.93,1.91,2,1.91.03,0,.06,0,.09,0,1.1-.05,1.96-.99,1.91-2.09-.32-6.82-2.28-11.4-5.83-13.61-4.39-2.73-9.36-.61-9.57-.52-1.01.44-1.47,1.62-1.03,2.63.44,1.01,1.62,1.47,2.63,1.03Z"/>
  <path d="m39.73,47.87c.24.29.5.57.77.84,2.28,2.28,5.37,3.52,8.52,3.52,1.03,0,2.08-.13,3.1-.41.69-.19,1.23-.72,1.41-1.42,1.11-4.14-.09-8.59-3.12-11.61,0,0,0,0,0,0-.27-.27-.55-.53-.84-.77-2.85-2.35-6.69-2.14-9.34.52-2.65,2.65-2.85,6.49-.5,9.32Zm7.76-2.12c0-.15.12-.27.27-.27s.27.12.27.27c0,.3-.54.3-.54,0Zm-4.43-4.38c.53-.53,1.3-.96,2.15-.96.58,0,1.2.2,1.81.7.19.16.38.33.57.52.13.13.25.27.37.41-.07,0-.13-.02-.2-.02-2.06,0-3.73,1.67-3.73,3.73,0,.28.04.55.1.82-.28-.21-.54-.44-.8-.69-.18-.18-.35-.37-.51-.56-1.24-1.49-.64-3.06.25-3.95Z"/>
  <path d="m65.73,55.17c-.91-.63-2.16-.4-2.78.51l-1.62,2.36c-.63.91-.4,2.16.51,2.78.35.24.74.35,1.13.35.64,0,1.26-.3,1.65-.87l1.62-2.36c.63-.91.4-2.16-.51-2.78Z"/>
  <path d="m79.03,54.07c-.2.1-4.94,2.39-8.73-.45-.88-.66-2.14-.48-2.8.4-.66.88-.48,2.14.4,2.8,2.25,1.68,4.66,2.2,6.77,2.2,3.34,0,5.97-1.3,6.15-1.39.98-.5,1.38-1.69.88-2.68-.49-.98-1.69-1.38-2.68-.9Z"/>
  <path d="m64.61,77.58h-4.29c-.11,0-.22.02-.32.03-.11-.02-.21-.03-.32-.03h-4.29c-1.75,0-3.17,1.42-3.17,3.17v8.89c0,1.75,1.42,3.17,3.17,3.17h4.45c.06,0,.11-.01.16-.02.05,0,.11.02.16.02h4.45c1.75,0,3.17-1.42,3.17-3.17v-8.89c0-1.75-1.42-3.17-3.17-3.17Zm-.83,11.22h-3.62c-.06,0-.11.01-.16.02-.05,0-.11-.02-.16-.02h-3.62v-7.22h3.46c.11,0,.22-.02.32-.03.11.02.21.03.32.03h3.46v7.22Z"/>
  <path d="m60.16,69.52c-.06,0-.11.01-.16.02-.06,0-.11-.02-.16-.02-8.69,0-15.76,7.07-15.76,15.75s7.07,15.75,15.76,15.75c.06,0,.11-.01.16-.02.06,0,.11.02.16.02,8.69,0,15.76-7.06,15.76-15.75s-7.07-15.75-15.76-15.75Zm0,27.5c-.06,0-.11.01-.16.02-.06,0-.11-.02-.16-.02-6.49,0-11.76-5.27-11.76-11.75s5.28-11.75,11.76-11.75c.06,0,.11-.01.16-.02.06,0,.11.02.16.02,6.49,0,11.76,5.27,11.76,11.75s-5.28,11.75-11.76,11.75Z"/>
  <path d="m62.42,46.88s.06,0,.09,0c1.06,0,1.95-.84,2-1.91.25-5.33,1.6-8.92,3.92-10.38,2.59-1.63,5.86-.28,5.89-.27,1.01.44,2.19-.02,2.63-1.03.44-1.01-.02-2.19-1.03-2.63-.21-.09-5.18-2.21-9.58.52-3.55,2.21-5.51,6.79-5.83,13.61-.05,1.1.8,2.04,1.91,2.09Z"/>
  <path d="m70.42,38.03c-.29.24-.57.5-.84.77,0,0,0,0,0,0-3.03,3.02-4.22,7.47-3.12,11.61.18.69.72,1.23,1.41,1.42,1.02.27,2.06.41,3.1.41,3.15,0,6.24-1.24,8.52-3.52.27-.27.53-.55.77-.84,2.35-2.84,2.15-6.67-.5-9.33-2.65-2.66-6.49-2.87-9.34-.52Zm1.55,7.72c0-.15.12-.27.27-.27s.27.12.27.27c0,.3-.54.3-.54,0Zm4.96-4.38c.89.89,1.49,2.46.25,3.95-.16.19-.33.38-.52.56-.25.25-.52.47-.79.69.06-.26.1-.54.1-.82,0-2.06-1.67-3.73-3.73-3.73-.07,0-.13.02-.2.02.12-.14.24-.28.37-.41.18-.18.37-.35.57-.52,1.5-1.24,3.07-.63,3.96.26Z"/>
</svg>