<?xml version="1.0" encoding="UTF-8"?>
<svg id="Layer_13" data-name="Layer 13" xmlns="http://www.w3.org/2000/svg" viewBox="0 0 120 120">
  <path d="m47.43,28.85c-2.56,0-4.65,2.09-4.65,4.65s2.09,4.65,4.65,4.65,4.65-2.09,4.65-4.65-2.09-4.65-4.65-4.65Zm0,5.3c-.36,0-.65-.29-.65-.65s.29-.65.65-.65.65.29.65.65-.29.65-.65.65Z"/>
  <path d="m74.68,33.5c0-2.57-2.09-4.65-4.65-4.65s-4.65,2.09-4.65,4.65,2.09,4.65,4.65,4.65,4.65-2.09,4.65-4.65Zm-5.3,0c0-.36.29-.65.65-.65s.65.29.65.65-.29.65-.65.65-.65-.29-.65-.65Z"/>
  <path d="m110.08,65.15c-.21-.96-.47-1.89-.77-2.81-.21-.79-.53-1.64-.96-2.56-3.1-7.16-9.18-13.19-18.15-18,1.99-3.21,2.28-6.72,2.28-9.74,0-4.84-1.72-9.28-4.95-12.99l1.98-1.45,8.17,2.6c.2.06.41.09.61.09.85,0,1.63-.54,1.91-1.4.33-1.05-.25-2.18-1.3-2.51l-5.39-1.71,3.87-2.84c.89-.65,1.08-1.91.43-2.8-.65-.89-1.9-1.08-2.8-.43l-10.39,7.62c-1.06-.87-2.22-1.69-3.48-2.44-6.22-3.72-14.2-5.77-22.44-5.77s-16.22,2.05-22.44,5.77c-1.17.7-2.25,1.47-3.24,2.29l-10.18-7.46c-.89-.65-2.14-.46-2.8.43-.65.89-.46,2.14.43,2.8l3.87,2.84-5.39,1.71c-1.05.33-1.63,1.46-1.3,2.51.27.85,1.06,1.4,1.91,1.4.2,0,.41-.03.61-.09l8.17-2.6,1.8,1.32c-3.1,3.68-4.77,8.17-4.77,13.13,0,6.37,2.11,11.3,6.44,15.06.54.47,1.1.91,1.68,1.34-2.32,11.67-.6,20.96,2.56,28.06-5.36.42-8.39,4.37-9.33,6.83-.39,1.03.12,2.17,1.14,2.57.24.09.48.14.73.14.8,0,1.55-.48,1.86-1.26.21-.53,2.17-4.92,7.68-4.23.34.59.7,1.16,1.06,1.72-4.82.94-7.05,4.34-7.59,6.38-.28,1.07.36,2.16,1.42,2.44.17.04.34.07.51.07.89,0,1.7-.59,1.93-1.49.01-.04,1.04-3.69,6.47-3.64.27.34.55.67.82.98.37.43.76.84,1.15,1.25-1.16,3.05-5.82,3.25-6.03,3.25-1.1.03-1.98.95-1.95,2.05.03,1.09.92,1.95,2,1.95.02,0,.04,0,.05,0,2.46-.06,6.76-1.12,8.9-4.34,2.1,1.87,4.31,3.49,6.56,4.88-5.12,2.52-6.37,7.28-6.19,9.95.07,1.06.95,1.86,1.99,1.86.04,0,.08,0,.12,0,1.1-.06,1.94-1,1.89-2.1-.03-.61-.04-5.82,7.06-7.09.21.1.42.2.63.29-4.73,3.75-4.99,8.96-5.01,9.22-.04,1.1.81,2.01,1.91,2.06.03,0,.06,0,.09,0,1.06,0,1.94-.84,2-1.9.01-.21.34-5.08,5.71-7.6.49.16.98.31,1.46.44.79,3.92-4.33,7.31-4.39,7.34-.93.6-1.2,1.83-.6,2.76.38.6,1.03.92,1.69.92.37,0,.74-.1,1.08-.32,2.49-1.59,6.27-5.33,6.32-9.8,1.82.3,3.55.46,5.15.46.63,0,1.23-.02,1.82-.07,11.99-.91,17.03-8.3,18.83-12.03,3.38,1.63,4.54,2.91,4.54,2.91h0c.38.47.95.74,1.55.74h0c.6,0,1.16-.27,1.54-.73,5.19-6.31,9.88-17.03,7.47-28.21Zm-5.59-4.2c.04.09.08.17.12.26.34.77.63,1.56.89,2.37.5,2.13-.33,3.15-1.72,4.56-.81.83-1.89,1.29-3.04,1.3h-.05c-1.14,0-2.21-.44-3.02-1.23-.02-.02-.05-.04-.07-.06-.05-.05-.11-.09-.16-.13-.05-.04-.1-.07-.16-.1-.06-.03-.12-.06-.18-.09-.06-.03-.11-.05-.17-.07-.06-.02-.13-.04-.19-.05-.06-.01-.12-.03-.18-.04-.07,0-.14-.01-.2-.02-.06,0-.12,0-.17,0-.07,0-.14.01-.21.02-.06,0-.11.02-.17.03-.07.02-.14.04-.2.06-.06.02-.11.04-.17.07-.06.03-.12.06-.18.1-.06.03-.11.07-.17.11-.02.02-.05.03-.07.05-.03.02-.05.05-.08.08-.03.03-.06.05-.09.08-.02.02-.04.05-.06.07-.04.05-.08.1-.12.15-.04.06-.08.11-.11.17-.03.05-.06.11-.08.17-.03.06-.06.12-.08.19-.02.06-.04.11-.05.17-.02.07-.03.13-.04.2,0,.06-.01.12-.02.18,0,.06,0,.13,0,.19,0,.06.01.13.02.19,0,.06.02.12.03.19.02.06.04.12.06.19.02.06.05.12.07.18.03.06.06.11.09.17.04.06.07.12.12.18.02.02.03.05.05.07,1,1.23,1.12,3.48.21,4.21-1,.81-3.37.62-4.41-.28-.06-.11-.11-.22-.18-.33-.58-.94-1.81-1.24-2.75-.66-.84.52-1.16,1.56-.81,2.44.06.3.19.6.4.85,0,0,.01.01.02.02.44,1.24.04,2.62-1.05,3.29-.64.39-1.02.62-1.69.32-2.74-1.91-5.63-4.43-8.12-7.7,1.21-.18,2.45-.65,3.7-1.41,1.62-.99,2.74-2.58,3.15-4.46.02-.11.04-.23.06-.34.39.07.79.11,1.19.11,1.52,0,3.05-.5,4.32-1.53,1.51-1.23,2.35-2.96,2.5-4.76.59.14,1.2.21,1.8.21,1.76,0,3.51-.58,4.93-1.79,1.33-1.12,2.2-2.64,2.54-4.34,1.65,1.95,2.98,4.01,3.98,6.19ZM29.37,32.03c0-6.21,3.09-11.34,8.94-14.83,5.61-3.36,12.85-5.2,20.39-5.2s14.78,1.85,20.39,5.2t0,0c6.05,3.61,9.39,8.88,9.39,14.83,0,2.66-.22,5.45-1.8,7.86-.31.47-.65.93-1,1.38,0,0,0,0,0,0-5.25,6.6-15.6,10.78-26.97,10.78-8.32,0-16.08-2.2-21.81-6.1-.03-.03-.07-.05-.11-.07-.83-.57-1.61-1.18-2.35-1.82-3.45-3-5.06-6.83-5.06-12.04Zm29.33,24.03c11.85,0,22.78-4.25,29.03-11.06,2.82,1.48,5.34,3.07,7.54,4.78.08.22.19.42.35.61.73.87,1.1,1.94,1.04,3.03-.06,1.04-.51,1.97-1.27,2.62-1.61,1.36-4.13,1.04-5.61-.71-.71-.84-1.97-.95-2.82-.24-.44.37-.67.89-.7,1.43-.17.6-.05,1.27.37,1.79.99,1.22.81,3.02-.42,4.02-1.11.91-2.71.82-3.73-.13-.08-.14-.15-.29-.24-.43-.58-.94-1.81-1.24-2.75-.66-.85.52-1.16,1.56-.8,2.45.06.31.19.61.4.87.01.02.03.03.04.04.22.6.27,1.24.14,1.86-.18.81-.65,1.49-1.33,1.91-2.46,1.51-4.29,1.18-6.26-1.12-.13-.13-.26-.26-.39-.39,0,0-.02-.02-.02-.02-8.34-8.4-19.42-10.4-27.1-8.4-3.18.83-5.77,2.32-7.6,4.29-.31-3.57-.18-7.5.54-11.8,6.05,3.39,13.6,5.27,21.58,5.27Zm17.15,42.42c-2.41.18-5.21-.09-8.19-.79-.35-.22-.76-.32-1.17-.3-7.02-1.91-14.83-6.23-20.73-13.03-3.14-3.62-6.37-8.68-8.09-15.33.5-3.25,3.21-5.74,7.5-6.86,6.59-1.71,16.17.09,23.38,7.45.25.29.5.57.76.83.8.88,1.57,1.81,2.29,2.84,2.5,3.88,5.52,6.91,8.51,9.26.63.55,1.29,1.07,1.98,1.48,3.66,2.56,7.06,4.1,9.16,4.92-1.51,2.99-5.66,8.79-15.41,9.53Zm24.92-9.29c-1.23-.89-3.17-2.06-6.09-3.28-.04-.02-.08-.02-.12-.04-.03-.01-.06-.03-.1-.04-.05-.02-2.4-.71-5.62-2.41,1.29-1.01,2.12-2.44,2.41-4,.59.12,1.19.19,1.78.19,1.63,0,3.24-.46,4.42-1.42,1.46-1.19,2.1-3.01,2.09-4.86.38.05.76.09,1.15.09.03,0,.06,0,.09,0,2.22-.02,4.3-.91,5.86-2.5.03-.03.05-.06.08-.09.14,7.11-2.65,13.71-5.96,18.36Z"/>
  <path d="m34.1,38.12c.16.34.32.67.5.99.11.2.23.38.35.57.13.22.27.43.41.64.16.22.32.44.49.66.13.17.26.33.4.5.08.09.15.19.23.28.11.13.24.24.35.36.14.15.28.29.43.43.21.2.42.39.63.58.16.14.33.27.5.41.21.17.42.33.64.48.2.14.41.27.62.4.2.12.4.25.6.37.26.14.52.27.79.4.17.08.34.17.52.25.32.14.65.26.98.38.14.05.27.1.4.15.38.12.76.22,1.15.31.1.02.2.06.3.08.42.09.84.15,1.27.2.08,0,.16.03.24.04.51.05,1.02.08,1.54.08,1.1,0,2-.9,2-2s-.9-2-2-2c-.38,0-.75-.02-1.12-.06-.06,0-.12-.02-.17-.03-.31-.04-.62-.08-.93-.15-.07-.02-.14-.04-.21-.05-.28-.07-.57-.14-.85-.23-.1-.03-.19-.07-.29-.1-.24-.09-.48-.18-.72-.28-.12-.05-.25-.12-.37-.18-.2-.09-.39-.19-.58-.3-.15-.08-.29-.17-.43-.26-.15-.1-.31-.19-.46-.3-.16-.11-.31-.23-.46-.35-.12-.1-.25-.19-.36-.3-.16-.14-.31-.28-.46-.42-.11-.1-.21-.21-.31-.31-.15-.16-.29-.31-.43-.48-.09-.1-.17-.21-.26-.32-.14-.18-.28-.36-.42-.56-.05-.08-.1-.16-.15-.24-.15-.23-.29-.46-.42-.7-.01-.02-.02-.04-.03-.06-.74-1.38-1.18-2.95-1.25-4.61,0-.16-.02-.32-.02-.48,0-.18.02-.36.03-.54.01-.19.02-.38.04-.57.11-1.05.38-2.06.77-3,0-.01.01-.03.02-.04.13-.3.27-.59.42-.87.01-.03.03-.05.04-.08.15-.27.31-.54.49-.8.01-.02.03-.04.04-.07.76-1.12,1.73-2.09,2.85-2.85.02-.01.04-.03.06-.04.26-.17.52-.33.8-.48.03-.02.06-.03.1-.05.27-.15.55-.28.83-.4.03-.01.05-.02.08-.03.31-.13.63-.25.95-.35,0,0,0,0,0,0,.66-.2,1.34-.35,2.05-.42.22-.02.44-.03.66-.04.14,0,.29-.02.43-.02.35,0,.7.02,1.05.05.15.01.29.04.44.06.19.03.38.05.57.09.2.04.39.09.59.14.13.03.26.06.39.1.21.06.41.13.62.2.11.04.23.08.34.13.2.08.4.17.6.26.12.06.23.12.35.18.18.09.36.19.54.29.15.09.29.18.44.28.14.09.28.18.41.27.28.2.55.42.82.65.15.16.32.31.49.45.01.01.03.02.04.03,1.03.84,2.33,1.3,3.66,1.3s2.47-.4,3.49-1.16c.17-.13.34-.27.49-.41,0,0,.01-.01.02-.02.08-.08.15-.16.23-.24.02-.02.05-.04.07-.07.26-.22.53-.43.81-.63.14-.1.28-.18.42-.27.14-.09.27-.17.41-.25.19-.11.38-.21.57-.3.1-.05.19-.1.29-.14.22-.1.44-.19.66-.28.08-.03.15-.06.23-.08.24-.08.48-.16.72-.23.07-.02.13-.03.2-.05.25-.06.51-.13.76-.17.05,0,.1-.01.15-.02.39-.06.78-.1,1.18-.12.21-.01.42-.02.63-.02.21,0,.41.02.62.03.16.01.33.01.49.03,1.05.11,2.05.38,2.98.77.02,0,.04.02.05.02.29.12.57.26.84.41.04.02.08.04.11.06.26.14.51.29.75.46.04.03.08.05.12.08.25.17.5.36.74.55.02.01.04.03.05.04.52.43,1,.91,1.43,1.44,0,0,.01.02.02.03.2.24.39.5.57.76.03.04.05.08.08.12.16.24.31.48.45.74.02.04.05.09.07.13.14.26.27.53.39.81.01.03.03.06.04.09.39.93.65,1.93.77,2.98.02.19.02.38.03.57,0,.18.03.36.03.54,0,.16-.01.32-.02.49-.07,1.65-.51,3.21-1.25,4.59-.01.02-.02.04-.03.06-.13.24-.28.47-.43.7-.05.08-.1.15-.15.23-.13.2-.28.38-.42.57-.08.1-.16.2-.24.3-.14.17-.29.33-.45.49-.1.1-.2.2-.3.3-.15.15-.31.29-.47.43-.12.1-.24.19-.36.29-.15.12-.31.24-.47.35-.15.1-.3.2-.45.29-.14.09-.29.18-.44.26-.19.11-.38.2-.58.3-.12.06-.24.12-.37.18-.24.1-.48.19-.72.28-.09.03-.19.07-.28.1-.28.09-.57.16-.85.23-.07.02-.14.04-.21.05-.31.07-.62.11-.93.15-.06,0-.11.02-.17.03-.37.04-.74.06-1.12.06-1.1,0-2,.9-2,2s.9,2,2,2c.52,0,1.03-.03,1.54-.08.08,0,.16-.03.23-.04.43-.05.86-.12,1.28-.2.1-.02.19-.05.29-.07.39-.09.78-.19,1.16-.31.13-.04.26-.1.39-.14.33-.12.66-.24.99-.38.17-.08.34-.16.51-.25.27-.13.53-.26.79-.4.2-.11.4-.24.6-.37.21-.13.42-.26.62-.4.22-.15.43-.32.65-.48.17-.13.33-.26.49-.4.22-.19.43-.38.64-.58.14-.14.28-.28.42-.42.12-.12.25-.23.36-.36.08-.09.15-.2.23-.29.13-.16.26-.32.39-.48.17-.22.34-.44.5-.67.14-.2.27-.42.4-.63.12-.2.25-.39.36-.59.18-.32.33-.64.49-.97.05-.11.11-.21.15-.32.78-1.8,1.22-3.77,1.22-5.85,0-.03,0-.06,0-.09,0-.14-.02-.29-.02-.43-.01-.36-.02-.71-.06-1.06,0-.03,0-.07,0-.1-.1-.9-.29-1.78-.55-2.63-.02-.07-.05-.15-.08-.22-.12-.35-.24-.7-.38-1.04-.05-.12-.11-.24-.16-.37-.13-.28-.26-.56-.4-.83-.08-.15-.15-.29-.23-.43-.14-.24-.28-.47-.43-.7-.1-.15-.2-.31-.3-.46-.15-.21-.3-.41-.46-.62-.12-.15-.23-.3-.35-.45-.19-.23-.39-.44-.6-.66-.2-.21-.4-.41-.62-.61-.2-.19-.39-.37-.6-.55-.14-.12-.3-.23-.45-.35-.2-.16-.41-.32-.62-.46-.15-.1-.3-.2-.45-.29-.23-.15-.47-.3-.72-.44-.14-.08-.27-.15-.41-.23-.28-.15-.57-.29-.87-.42-.11-.05-.22-.1-.33-.15-.37-.15-.75-.29-1.14-.42-.04-.01-.08-.03-.13-.04-.84-.26-1.71-.45-2.61-.56-.05,0-.09,0-.14,0-.23-.03-.47-.03-.71-.04-.28-.02-.55-.04-.83-.04-.02,0-.04,0-.06,0-.29,0-.58.02-.87.04-.5.03-1,.08-1.49.16-.1.02-.21.03-.31.04-.35.06-.68.15-1.02.23-.1.03-.21.05-.31.08-.33.09-.65.2-.97.32-.12.04-.23.08-.34.13-.3.12-.6.24-.89.38-.14.07-.28.14-.42.21-.26.13-.52.27-.77.42-.2.12-.39.24-.58.37-.19.13-.39.25-.58.38-.35.25-.69.52-1.02.8,0,0-.01.01-.02.02-.03.02-.06.04-.08.07,0,0,0,0,0,0-.18.16-.35.33-.53.49-.22.16-.57.33-1.03.33-.54,0-.92-.22-1.14-.41,0,0-.02-.01-.03-.02-.06-.05-.11-.1-.16-.15-.04-.04-.08-.08-.13-.12-.37-.33-.76-.64-1.15-.93-.1-.08-.21-.14-.31-.21-.3-.21-.61-.41-.93-.6-.12-.07-.24-.13-.36-.2-.32-.17-.64-.34-.97-.49-.12-.05-.24-.11-.36-.16-.35-.15-.7-.28-1.05-.4-.11-.04-.22-.07-.33-.11-.38-.12-.77-.22-1.17-.31-.09-.02-.17-.04-.26-.06-.45-.09-.91-.16-1.37-.21-.03,0-.06,0-.09-.01-.49-.05-.98-.08-1.47-.08-.02,0-.03,0-.05,0-.13,0-.26.02-.39.02-.37.01-.75.02-1.11.06-.03,0-.05,0-.08,0-.92.1-1.81.29-2.67.56-.08.02-.15.05-.23.08-.36.12-.71.24-1.05.38-.11.05-.22.1-.33.14-.3.13-.6.28-.89.43-.12.06-.25.13-.37.2-.27.15-.54.32-.8.48-.12.08-.24.15-.36.24-.27.18-.52.38-.78.58-.1.08-.2.15-.29.23-.34.28-.67.58-.98.89-.03.03-.06.07-.09.1-.28.28-.55.58-.81.89-.09.1-.16.21-.25.31-.2.25-.39.5-.57.76-.08.12-.16.24-.23.36-.17.27-.34.54-.49.81-.06.11-.13.23-.19.35-.16.3-.31.61-.45.93-.04.1-.09.19-.13.29-.15.37-.29.75-.42,1.14-.02.05-.03.09-.05.14-.26.85-.46,1.73-.56,2.64,0,.04,0,.07,0,.11-.04.34-.05.68-.06,1.03,0,.16-.02.31-.02.47,0,.03,0,.06,0,.09,0,2.08.44,4.05,1.22,5.85.04.1.1.2.15.3Z"/>
  <path d="m55.16,34.74c1.1,0,2-.9,2-2,0-5.36-4.36-9.73-9.73-9.73s-9.73,4.36-9.73,9.73c0,1.1.9,2,2,2s2-.9,2-2c0-3.16,2.57-5.73,5.73-5.73s5.73,2.57,5.73,5.73c0,1.1.9,2,2,2Z"/>
  <path d="m70.02,27.02c3.16,0,5.73,2.57,5.73,5.73,0,1.1.9,2,2,2s2-.9,2-2c0-5.36-4.36-9.73-9.73-9.73s-9.73,4.36-9.73,9.73c0,1.1.9,2,2,2s2-.9,2-2c0-3.16,2.57-5.73,5.73-5.73Z"/>
  <path d="m58.72,38.16c-2.83,0-5.03,2.01-5.23,4.79-.01.2-.02.4-.02.61,0,3.02,1.63,5.84,4.25,7.36.31.18.66.27,1,.27s.69-.09,1-.27c2.62-1.52,4.25-4.34,4.25-7.36,0-.2,0-.41-.02-.61-.2-2.77-2.4-4.79-5.23-4.79Zm0,8.51c-.79-.83-1.25-1.94-1.25-3.11,0-.11,0-.22.01-.33.07-.97.89-1.07,1.24-1.07s1.17.1,1.24,1.07c0,.11.01.22.01.33,0,1.17-.46,2.28-1.25,3.11Z"/>
</svg>