<?xml version="1.0" encoding="UTF-8"?>
<svg id="Layer_13" data-name="Layer 13" xmlns="http://www.w3.org/2000/svg" viewBox="0 0 120 120">
  <path d="m86.96,42.88c-.27.18-.51.38-.73.61-2.34,1.22-7.16,4.64-9.72,9.09-3.25,5.64-1.24,12.93,4.56,16.31.3.17.63.25.95.25.69,0,1.37-.37,1.74-1.02.54-.95.19-2.18-.75-2.73-3.82-2.23-5.18-7.08-3.03-10.81,1.44-2.49,3.82-4.63,5.75-6.03.09.13.17.27.27.39.87,1.02,2.15,1.55,3.47,1.55.92,0,1.86-.26,2.68-.81,1.03-.69,1.72-1.76,1.88-2.93.16-1.13-.17-2.24-.92-3.12-1.48-1.73-4.18-2.06-6.14-.74Zm2.96,3.47c-.31.21-.75.14-.88.01,0,0,.01-.03.03-.05,0,0,0,0,0-.01.02-.03.06-.06.11-.1h0c.14-.1.31-.13.46-.13.18,0,.34.05.42.12,0,.02-.04.08-.15.16Z"/>
  <path d="m54.97,37.17c-.61-.92-1.85-1.18-2.77-.57-.92.61-1.18,1.85-.57,2.77l1.04,1.57c.09.13.19.25.31.36,2.83,2.63,6.51,3.98,10.68,3.98,1.68,0,3.44-.22,5.25-.66,5.6-1.37,10.51-4.68,11.91-7.95.02-.03.03-.07.04-.1.03-.08.07-.15.1-.23.02-.07.03-.14.05-.2.12-.39.21-.79.21-1.19,0-1.14-.51-2.24-1.4-3.01-1.72-1.5-4.44-1.47-6.19.06-.92.81-1.45,1.94-1.44,3.11,0,1.14.51,2.24,1.4,3.01.08.07.16.11.24.17-1.54.97-3.53,1.87-5.86,2.44-2.83.7-8.13,1.32-12.08-2.21l-.9-1.36Zm21.28-2.16c.14-.12.34-.18.53-.18.16,0,.32.04.42.12,0,.01-.02.05-.08.1-.27.23-.73.22-.95.06,0-.01.02-.05.08-.11Z"/>
  <path d="m17.68,10.61c-1.12-1.75-3.03-2.5-5-1.96-2.65.73-4.58,3.59-4.67,6.94-.1,3.48,1.34,5.44,2.57,6.48,1.03.87,2.24,1.39,3.45,1.68-1.84,2.21-3.05,5.2-1.95,8.74.81,2.58,2.55,4.45,4.91,5.28,2.33.82,5,.5,6.97-.82,2.74-1.85,3.32-4.47,2.67-6.25-.56-1.55-2-2.48-3.6-2.33-.4.04-.77.14-1.11.29.27-.4.67-.71.91-.79,1.87-.57,3.04.11,3.69.78.99,1.02,1.38,2.62.95,3.88-.65,1.91.35,4.11,2.33,5.11,1.25.63,2.03,1.44,2.3,2.41.34,1.2.01,2.56-.81,3.4-.59.6-1.39.9-2.37.9.53-.37.95-.88,1.25-1.5.74-1.52.49-3.13-.65-4.2-1.58-1.47-4.42-1.5-6.92-.07-3.62,2.08-5.35,5.49-4.64,9.12.77,3.87,4.21,6.86,8.46,7.42.11.02.43.07.94.07,1.56,0,4.87-.48,8.87-3.83l10-8.53c.51.73,1.09,1.51,1.73,2.31-4.88,3.17-12.16,9.89-15.56,13.71-.56-.38-1.27-.72-2.22-.97-1.18-.31-4.24-.47-6.16.98-1.45,1.1-3.42,2.87-3.83,5.62-.03.19-.06.53-.07,1.29-.01,1.33.08,2.73.29,4.15l2.02,14.04c.08.98.51,1.92,1.19,2.69,0,.01.01.02.02.03.01.02.03.03.05.05.04.05.08.1.12.14.04.04.08.07.12.11.02.02.04.04.07.06.68.62,1.53,1.07,2.45,1.28l11.14,4.22c2.14.81,4.38,1.21,6.6,1.21,3.15,0,6.24-.8,8.91-2.38,1.38-.82,2.25-1.56,2.72-2.33.68-1.12.99-2.37.89-3.6-.05-.56-.18-1.1-.38-1.61,5.71-2.57,14.31-9.14,17.95-12.21.47.38.94.75,1.39,1.09l-9.29,6.87c-4.28,3.31-4.6,6.75-4.62,7.41-.21,4.15,2.01,7.83,5.66,9.38,3.54,1.5,7.5.53,10.34-2.53,1.91-2.06,2.47-4.69,1.38-6.54-.82-1.4-2.4-2-4.12-1.58-.8.2-1.48.59-2.01,1.15.17-.55.6-1.15,1.19-1.64.96-.79,2.52-1.37,3.99-.64,1.24.62,1.83,1.77,2.1,2.63.66,2.07,2.62,3.38,4.65,3.14,1.54-.19,3.26.59,4.09,1.84.65.97.65,2.07-.02,3.25-.13.22-.59.57-1.11.74.18-.28.33-.59.44-.92.45-1.44-.15-2.99-1.5-3.84-1.65-1.04-4.42-1.06-6.9,1.24-1.7,1.58-2.55,4.04-2.21,6.4.36,2.49,1.96,4.56,4.51,5.83,3.42,1.71,6.72,1.06,9.32-.31.07,1.13.33,2.31.93,3.4.8,1.45,2.53,3.31,6.22,3.88.52.08,1.03.12,1.54.12,2.91,0,5.44-1.31,6.43-3.44.82-1.77.38-3.71-1.17-5.06-1.26-1.09-2.4-1.31-3.32-1.22.02-.02.04-.04.06-.06,3.77-3.84,6.91-9.79,7.26-10.47,4.04-6.86,2.16-11.22,1.26-13.32-.76-1.77-2.89-2.67-4.85-2.05-4.03,1.29-7-.03-8.77-1.36-2.7-2.02-4.16-5.08-4.36-7.35,4.16-5,6.64-10.34,7.41-15.94,1.36-9.94-3.15-17.48-4.57-19.55-.11-.24-.27-.47-.49-.66-.19-.22-.42-.39-.67-.5-3.28-2.25-19.96-12.37-41.07-1.56-2.88-.77-6.6-3.41-8.22-6.81-1.14-2.41-1.03-4.82.33-7.16,1.05-1.81.54-4.06-1.17-5.13-2.1-1.32-6.01-3.78-13.69-1.28-.73.2-7.41,2.04-12.05,4.87-.1.06-.2.12-.29.17.28-.89.28-2.07-.64-3.5Zm6.48,54.47c.19-1.28,1.32-2.28,2.28-3.01.55-.41,2.16-.46,2.75-.3,1.1.29,1.23.53,1.67,1.36l.15.28c.22.4.11.63.07.72-.1.21-.25.37-.48.49-.26.14-.61,0-.69-.11l-.49-.68c-.65-.9-1.9-1.1-2.79-.45-.9.65-1.1,1.9-.45,2.79l.49.68c1.28,1.78,3.84,2.35,5.83,1.29.97-.51,1.74-1.31,2.21-2.31.55-1.16.58-2.47.13-3.67,2.72-3.29,11.22-11.19,15.83-13.98,1.99,2.02,4.38,3.96,7.14,5.43,1.32.7,2.7,1.13,4,1.4l-8.06,6.16-6.44-6.49c-.78-.79-2.04-.79-2.83-.01s-.79,2.04-.01,2.83l6.08,6.13-5.12,3.92-5.17-5.21c-.78-.79-2.04-.79-2.83-.01s-.79,2.04-.01,2.83l4.81,4.85-4.95,3.79-3.47-3.38c-.79-.77-2.06-.75-2.83.04-.77.79-.75,2.06.04,2.83l3.05,2.97-7.83,5.98-1.85-12.84c-.18-1.22-.26-2.41-.25-3.53,0-.58.03-.76.03-.76Zm28.24,21.89s-.25.34-1.34.98c-3.51,2.08-8.02,2.4-12.06.87l-9.92-3.76,7.87-6.01,3.22,3.13c.39.38.89.57,1.39.57s1.04-.2,1.43-.61c.77-.79.75-2.06-.04-2.83l-2.79-2.72,4.89-3.74,5,5.04c.39.39.91.59,1.42.59s1.02-.19,1.41-.58c.78-.78.79-2.04.01-2.83l-4.64-4.68,5.12-3.92,6.99,7.05c.39.39.91.59,1.42.59s1.02-.19,1.41-.58c.78-.78.79-2.04.01-2.83l-6.63-6.68,8.2-6.27c.13,1.25.44,2.62,1.09,3.95,1.33,2.72,3.29,5.16,5.38,7.23-4.26,3.55-13.46,10.31-17.79,11.72-1.27-.69-2.72-.91-4.1-.59-1.12.26-2.08.8-2.8,1.59-.76.83-1.13,1.9-1.02,3,.11,1.13.71,2.18,1.65,2.88.89.66,2.11.44,2.77-.44.65-.87.45-2.13-.39-2.79.15-.15.4-.26.69-.33.45-.11.94-.02,1.39.25.6.35,1.01.95,1.06,1.56.03.4-.07.8-.31,1.18Zm42.35-8.74c3.57,2.68,7.97,3.38,12.39,1.97,0,0,.02,0,.03,0,.79,1.84,1.81,4.6-1.13,9.58-.02.03-.04.07-.06.1-.03.06-3.1,5.99-6.58,9.55-.77.78-3.09,3.16-2.24,5.45.26.68,1,1.86,3.1,2.02.83.07,1.49-.25,1.93-.46.13-.06.33-.15.32-.17,0,0,.12.04.38.26.24.21.21.27.17.36-.29.62-1.67,1.37-3.73,1.06-1.69-.26-2.78-.87-3.32-1.85-.98-1.77-.14-4.62.26-5.56.4-.92.06-1.99-.8-2.51-.85-.52-1.97-.33-2.6.45-.17.21-4.25,5.16-8.85,2.86-1.36-.68-2.17-1.65-2.33-2.83-.15-1.05.24-2.21.98-2.9.45-.42.86-.64,1.2-.75-.34.63-.48,1.35-.37,2.1.29,2.08,2.31,3.56,4.49,3.3,1.87-.22,3.68-1.36,4.51-2.84,1.4-2.49,1.34-5.2-.15-7.43-1.68-2.51-4.86-3.95-7.9-3.58-.08,0-.28-.15-.35-.39-.51-1.59-1.64-3.75-4.13-4.99-2.66-1.32-5.85-.89-8.31,1.13-2.16,1.78-3.17,4.37-2.56,6.61.17.62.5,1.06.74,1.33.75.87,1.86,1.31,3.05,1.24.99-.06,1.92-.49,2.6-1.16-.13.28-.34.61-.66.96-1.72,1.85-3.85,2.42-5.85,1.57-2.09-.89-3.36-3.05-3.23-5.56,0-.09.15-2.12,3.03-4.35l10.37-7.66c1.28.8,2.15,1.26,2.27,1.33.29.15.61.23.93.23.42,0,.84-.13,1.2-.4,2.22-1.66,4.21-3.36,6-5.11.99,2.68,2.86,5.27,5.22,7.04Zm1.48-26.97c-1.05,7.53-5.78,14.6-14.05,21.04-2.71-1.62-9.75-6.26-12.71-12.32-1-2.05-.79-4.32-.59-5.45.05-.08.09-.16.13-.24l24.13-18.54c1.54,2.72,4.08,8.47,3.1,15.5Zm-6.08-18.26l-23.98,18.43c-1.38.03-4.16-.1-6.5-1.34-6.16-3.26-10.32-9.54-11.96-12.35,2.2-1.64,4.36-3.01,6.46-4.16.42-.07.8-.27,1.09-.57,16.51-8.49,29.65-3.02,34.88,0ZM20.69,17.35c4.3-2.63,10.98-4.42,11.04-4.43.04,0,.07-.02.11-.03,5.68-1.86,8.38-.4,10.15.71-1.97,3.47-2.12,7.19-.42,10.77,1.6,3.37,4.52,6,7.47,7.6-1.69,1.07-3.41,2.29-5.14,3.66-.74.58-.97,1.6-.56,2.44.04.09.29.59.73,1.37l-10.43,8.89c-3.82,3.19-6.45,2.89-6.61,2.87-3.07-.4-4.8-2.42-5.16-4.24-.37-1.89.61-3.67,2.7-4.87.39-.22.75-.36,1.06-.44-.7.53-1.21,1.29-1.43,2.16-.29,1.15-.02,2.32.77,3.24.2.23.66.78,1.48,1,3.01.79,5.81.15,7.69-1.76,1.82-1.86,2.53-4.72,1.81-7.29-.58-2.06-2.08-3.75-4.34-4.89-.21-.11-.34-.28-.35-.26.91-2.67.16-5.86-1.86-7.95-1.98-2.05-4.8-2.71-7.72-1.83-1.63.5-3.18,2.04-3.75,3.76-.33,1-.25,2.11.23,3.05.47.93,1.28,1.62,2.26,1.93.74.24,1.51.23,2.21,0-.17.25-.45.54-.9.85-.75.51-2.1.82-3.41.36-1.17-.41-1.99-1.32-2.42-2.7-1.45-4.62,4.31-7.5,4.55-7.62.91-.44,1.34-1.48,1.03-2.43-.32-.96-1.3-1.52-2.29-1.33-1.12.22-4.38.49-6.04-.91-.81-.69-1.18-1.76-1.14-3.29.06-2,1.1-3.02,1.74-3.2.23-.06.37-.04.56.25.07.11.11.19.14.25-.05.07-.11.15-.16.21-.31.39-.77.98-.87,1.83-.22,2,.76,2.94,1.36,3.32,2.08,1.32,4.97-.44,5.92-1.02Z"/>
</svg>