<?xml version="1.0" encoding="UTF-8"?>
<svg id="Layer_13" data-name="Layer 13" xmlns="http://www.w3.org/2000/svg" viewBox="0 0 120 120">
  <path d="m15.09,34.73c-1.29.68-2.43,1.58-3.11,2.43-1.27,1.57-.95,2.82-.64,3.43.54,1.07,1.6,1.62,2.82,2.26,2.53,1.33,4.31,2.52,4.1,5.74-.84,13.36,3.54,18.62,10.2,23.59-2.23,4.38-4.9,10.16-6.61,15.75,0,0,0,0,0,0-.56,1.84-1.01,3.64-1.31,5.38-.05.16-.08.33-.08.5-.47,2.93-.49,5.63.22,7.78.89,2.72,4.23,4.02,6.14,4.55,1.54.43,3.28.68,4.97.68,2.43,0,4.78-.53,6.31-1.86,1.93-1.67,2.41-4.11,2.98-6.93.4-2.02.88-4.35,1.96-6.97l1.07,13.36c-.03,1.9.56,3.48,1.76,4.72,2.44,2.52,6.79,2.84,10.3,2.84s5.69-.57,7.07-1.95c1.49-1.49,1.67-3.54,1.67-5.15,0-1.32-.16-2.95-.37-4.81,0,0,0,0,0,0-.06-.55-.13-1.11-.19-1.69-.28-2.43-.6-5.19-.74-7.87v-.12c-.1-1.8-.21-3.83.05-4.38.12-.04.47-.1,1.32-.01.15.04.31.06.47.06,0,0,.02,0,.02,0,.17.02.34.05.54.09,1.39.25,2.29.66,2.67,1.24.73,1.11.28,3.63-.25,5.95-.23.99-.55,2.13-.89,3.35-1.37,4.9-2.79,9.96-.7,12.84.59.81,1.72,1.79,3.76,1.88.56.02,1.18.06,1.83.09,6.97.36,12.06.45,14.2-1.65.68-.67,1.05-1.55,1.02-2.49-.07-2.53-.02-4.85.04-7.3.04-1.81.08-3.68.08-5.83v-.91s0,.05.01.07c0,.04-.01.09-.01.13,0,.35.1.67.25.95.23,1.05.46,2.06.7,3.03,0,.02,0,.04.01.06,1.44,5.89,3.1,10.13,6.27,10.75.52.1,1.07.17,1.65.19,5.43.25,11.87-1.37,14.01-5.55.73-1.42.55-4.43-.88-14.62-.25-1.82-.48-3.39-.54-4.12-.49-5.77-3.06-16.88-8.11-25.95,1.15-.09,2.19-.44,3.1-1.07,3.44-2.41,3.31-7.65,3.28-8.23,0-.06-.02-.13-.03-.19,0-.04-.01-.08-.02-.12,0-.03,0-.07-.02-.1,0,0,0,0,0,0-.21-.84-.6-3.64,3.07-4.61,1.07-.28,1.7-1.38,1.42-2.45-.28-1.07-1.38-1.7-2.45-1.42-2.38.63-4.11,1.86-5.14,3.65-.14.24-.25.48-.36.72-.81-1.44-1.25-3.33-.27-5.48.46-1,.02-2.19-.99-2.65-1-.46-2.19-.02-2.65.99-1.52,3.32-1,6.33.22,8.72-1.16-.67-2.26-1.74-2.96-3.47-.42-1.02-1.58-1.52-2.6-1.1-1.02.42-1.52,1.58-1.1,2.6,2.03,5.01,6.43,6.7,9.72,7.01-.2,1.1-.61,2.3-1.43,2.87-.92.64-2.38.36-3.59-.08-2.33-3.22-5.05-5.93-8.19-7.67-10.86-6.03-22.92-5.96-27.33-5.7-.52-2.35-1.33-5.89-7.28-8.12-3.53-1.32-7.25-1.66-9.75-1.7-1.86-.03-3.73-.6-5.41-1.65-.25-.16-.52-.32-.81-.47-3.07-1.72-5.42-2.25-7.32-2.67-2.12-.47-3.09-.69-4.16-2.22-.94-1.34-.9-2-.86-2.07.08-.11.55-.28,1.04-.15,1.09.28,1.84,1,2.79,1.91,1.84,1.76,4.35,4.18,10.34,3.71,6.31-.5,8.65-5.35,9.21-8.98,2.7-.46,4.1-2.37,4.3-4.36.28-2.78-1.6-5.3-4.2-5.62-1.92-.23-3.32.27-4.3,1-1.2-.75-2.81-1.3-4.64-.98-2.51.44-4.12,2.75-3.74,5.35.21,1.44,1.08,2.87,2.61,3.55-.02.02-.03.03-.05.05-.08.07-.3.27-1.02.2-1.06-.1-1.67-.86-2.89-2.69-1.69-2.52-4-5.98-9.94-6.49-3.87-.34-7.72,1.14-10.56,4.04-2.29,2.34-3.66,5.35-4.04,8.72,0,0,0,0-.01,0-1.58-.96-3-.34-3.64.64-1.6,2.43.93,8.15,6.61,13.28Zm17.41,40.32l.56.39s.01,0,.02,0c.39.29,5.48,4.15,8.41,9.87-.82,1.35-1.47,2.64-2,3.88-1.61-.51-7.87-2.4-12.92-2.72,1.27-3.61,3.02-7.64,5.19-11.95.25.17.49.34.75.52Zm-7.52,16.66c.1-.41.21-.84.33-1.27,4,.03,10.11,1.68,12.84,2.53-.09.32-.17.63-.25.93-2.13-.57-8.27-2.1-12.92-2.19Zm2.9,10.58c-2.22-.62-3.27-1.51-3.41-1.93-.38-1.17-.45-2.75-.24-4.66,3.74-.09,9.98,1.35,12.81,2.11-.4,1.98-.75,3.43-1.57,4.14-1.03.89-4.33,1.24-7.59.34Zm32.36-4.54c-2.97-.5-7.82-.9-12.61.5l-.13-1.66c4.3-1.72,10.18-.94,12.56-.51.06.57.12,1.12.18,1.67Zm.16,9.47c-.51.52-1.94.78-4.24.78-3.88,0-6.38-.55-7.42-1.63-.29-.29-.66-.81-.63-1.93,0-.07,0-.15,0-.22l-.15-1.88c4.94-1.72,10.36-.93,12.75-.43.12,1.16.19,2.18.2,2.99,0,1.22-.16,1.97-.5,2.31Zm45.61-16.83c.02.14.04.29.06.43-.79,1.15-3.65,4.24-11.53,4.31,5.26-.85,9.08-2.98,11.47-4.75Zm-34.69,7.58c2.56.6,5.05.81,7.24.81,2.05,0,3.83-.18,5.15-.37,0,.31-.01.61-.02.91-2.42.58-7.75,1.46-12.63-.39.09-.34.18-.66.27-.96Zm12.43-4.22v.48s0,.07,0,.11c-2.2.36-6.71.82-11.41-.25.67-2.95.96-5.3.41-7.24,2.47.35,5.27.68,8.51.68.85,0,1.74-.03,2.65-.08-.15,1.6-.16,3.67-.16,6.29Zm-11.14,13.75c-.66-.03-1.29-.07-1.86-.09-.54-.02-.65-.17-.69-.23-.5-.69-.34-2.42.04-4.34,2.57.9,5.18,1.21,7.54,1.21s4.43-.3,5.97-.61c-.01,1.2-.01,2.41.02,3.68-1.66.87-8.4.52-11.01.39Zm34.41-6.27c-1.19,2.09-5.54,3.5-10.21,3.27-.38-.02-.75-.06-1.05-.12-.72-.29-1.55-2.06-2.48-5.27.31,0,.63.02.93.02,6.23,0,10.12-1.68,12.48-3.4.28,2.47.47,4.71.33,5.5Zm-41.69-26.51l3.21-3.04,1.9,3.51c-1.8-.09-3.5-.25-5.11-.47Zm17-14.64h-14.53c-.25,0-.37-.14-.38-.15l.06-5.36c1.1,2.73,4.04,4.69,7.5,4.69s6.45-1.99,7.53-4.75l-.02,5.55s-.08.03-.17.02Zm-11.3-7.85c0-1.64,1.82-3.03,3.97-3.03s3.97,1.39,3.97,3.03-1.82,3.03-3.97,3.03-3.97-1.39-3.97-3.03Zm11.52-2.23c-.69-1.81-2.19-3.29-4.12-4.11,1.36.34,2.74.74,4.13,1.24v2.87Zm-7.56-4.8c-3.4,0-6.31,1.9-7.45,4.55l.06-5.33c2.16.07,4.76.29,7.57.79-.06,0-.13,0-.19,0Zm-12.02,2.74c.25-.25.44-.54.61-.85l-.15,12.82c0,2.28,1.88,4.11,4.32,4.18h14.53c1.16.03,2.25-.4,3.05-1.18.76-.74,1.17-1.71,1.17-2.74l.05-11.36c.54.26,1.07.54,1.61.83l-.48,17.02c0,.28-.17.49-.31.61-.28.25-.67.38-1.09.35l-27-2.01c-.63-.05-1.12-.46-1.12-.94v-14.36c.59-.63,1.33-1.1,2.23-1.18.99-.09,1.91-.51,2.58-1.19Zm26,25.94l1.69-3.98,4.76-.72c-.07.2-.14.4-.22.59-.76,1.84-2.82,3.2-6.23,4.11Zm-14.93-.43l-1.53-2.84,3.29.24-1.76,2.59Zm-19.97-2.07c-.1-.06-.19-.13-.29-.19l3.52.39.53,1.42c-1.35-.47-2.6-1.01-3.76-1.62Zm.26-5.52c.14.51.34,1,.63,1.43l-1.67-.19,1.04-1.25Zm-1.14-4.89l-2.45,2.94c.04-1.46.27-2.92.56-4.2l1.89,1.26Zm7.69,8.77l3.6.27-2.59,2.45-1.01-2.72Zm30.85-5.31l1.4,1.04-1.43.22.04-1.26Zm1.15-7.44l-.95.42.03-1.03.92.61Zm-7.81,15.81l-1.12-1.34,1.64.12-.52,1.22Zm8.7-11.83l3.14-1.4c-.01.84-.06,2.12-.22,3.58l-2.92-2.17Zm-39.62-4.17l-.48-.32c.17-.14.33-.29.48-.43v.76Zm24.72,18.39c-.41.02-.81.03-1.21.04l1.9-2.8,2.15,2.58c-.91.07-1.84.14-2.84.18ZM19.03,14.91c1.97-2.01,4.71-3.07,7.36-2.85,4.03.35,5.45,2.47,6.96,4.73,1.3,1.95,2.78,4.15,5.83,4.45,2.08.21,3.39-.57,4.13-1.25,1.83-1.69,1.83-4.34,1.82-4.63-.01-.56-.26-1.09-.68-1.46-.42-.37-.98-.55-1.54-.48-.74.08-.88-.2-.92-.52,0-.03-.1-.74.48-.85,1.45-.26,2.61,1.1,2.61,1.1.47.6,1.21,1,1.95.83.75-.16,1.29-.61,1.48-1.35.1-.22.46-.72,1.71-.56.41.05.76.68.71,1.25-.08.83-1.14.92-2.02.85-.57-.04-1.12.15-1.53.54-.41.39-.64.93-.63,1.49,0,.26.06,6.42-5.66,6.88-4.18.33-5.61-1.03-7.25-2.61-1.15-1.1-2.45-2.36-4.56-2.9-2.06-.52-4.25.19-5.32,1.75-.7,1.02-1.52,3.23.87,6.64,1.96,2.79,4.2,3.29,6.56,3.82,1.72.39,3.68.82,6.24,2.25.23.13.44.25.65.38,2.3,1.43,4.88,2.21,7.45,2.25,2.19.04,5.42.32,8.41,1.44,3.94,1.48,4.35,3.32,4.79,5.27.13.6.29,1.22.52,1.82.01.04.03.08.04.12.01.03.02.07.04.1.29.67.43,1.28.5,1.75-1.35.13-3.56.76-5.44,3.24-.02.03-.05.06-.07.09-.49.67-.97,1.46-1.39,2.42-1.47,3.37-6.82,5.86-11.94,5.51-2.67-.17-7.38-1.25-8.92-6.52-.31-1.06-1.42-1.67-2.48-1.36-1.06.31-1.67,1.42-1.36,2.48,1.59,5.48,6.26,9,12.5,9.4.41.03.81.04,1.22.04,1.74,0,3.46-.25,5.09-.69-.03.18-.07.35-.1.52l-3.59.42c-1.1.13-1.88,1.12-1.75,2.22.12,1.02.98,1.77,1.98,1.77.08,0,.16,0,.23-.01l2.76-.32c0,.08,0,.15,0,.23l-3.01.89c-1.06.31-1.66,1.43-1.35,2.49.26.87,1.05,1.43,1.92,1.43.19,0,.38-.03.57-.08l2.41-.71c.03.1.05.2.08.3l-2.01,1.45c-.9.64-1.1,1.89-.46,2.79.39.54,1,.83,1.62.83.4,0,.81-.12,1.17-.38l1.56-1.12c.37.45.77.88,1.22,1.26l-.91,1.53c-.56.95-.25,2.18.7,2.74.32.19.67.28,1.02.28.68,0,1.35-.35,1.72-.98l.93-1.57c.2.09.4.19.6.27l-.55,1.38c-.41,1.03.09,2.19,1.12,2.6.24.1.49.14.74.14.79,0,1.55-.48,1.86-1.26l.61-1.54c.54.16,1.1.31,1.67.45l-.33,1.41c-.25,1.08.42,2.15,1.5,2.4.15.04.3.05.46.05.91,0,1.73-.62,1.95-1.55l.36-1.54c.64.1,1.3.19,1.98.27l-.11.88c-.14,1.1.64,2.1,1.74,2.23.08.01.17.02.25.02.99,0,1.85-.74,1.98-1.75l.13-1.03c.65.04,1.31.07,1.99.09v.39c0,1.1.9,2,2,2s2-.9,2-2v-.35c.45,0,.89-.01,1.35-.03l.21,1.77c.12,1.02.99,1.76,1.98,1.76.08,0,.16,0,.24-.01,1.1-.13,1.88-1.13,1.75-2.22l-.18-1.47c.42-.03.82-.07,1.22-.1l.38,1.48c.24.9,1.05,1.5,1.93,1.5.17,0,.34-.02.51-.06,1.07-.28,1.71-1.37,1.43-2.44l-.25-.95c.22-.03.43-.07.64-.11l.81,2c.31.78,1.06,1.25,1.85,1.25.25,0,.5-.05.75-.15,1.02-.41,1.52-1.58,1.1-2.6l-.58-1.44c.31-.1.6-.2.89-.3l1.34,1.94c.39.56,1.01.86,1.65.86.39,0,.79-.11,1.13-.35.91-.63,1.14-1.87.51-2.78l-1.01-1.47c.27-.19.53-.39.77-.59l1.88,1.2c.33.21.71.31,1.07.31.66,0,1.31-.33,1.69-.92.59-.93.32-2.17-.61-2.76l-1.57-1.01c.05-.1.1-.19.14-.3.53-1.29.92-2.69,1.22-4.06,0,0,0,0,0,0,0,0,0,0,0,0,.09-.45.18-.89.25-1.33,2.83,6.81,4.47,14.03,4.86,18.67.03.3.07.7.13,1.17-1.53,1.49-6.14,5.25-13.93,5.74-.25-1.14-.47-2.05-.68-2.7-1.12-3.38-2.15-5.94-4.41-5.58-.1.02-.18.04-.27.07-5.7.66-10.14.03-14.06-.54-2.16-.31-4.21-.6-6.21-.63-1.73-.23-3.54-.2-4.82.93-1.71,1.52-1.59,3.93-1.39,7.6v.11c.03.41.06.82.09,1.24-2.94-.45-8.07-.88-12.52.51l-.35-4.32c0-.13-.03-.26-.07-.38-.3-1.07-.69-2.1-1.13-3.09,0,0,0,0,0,0-3.33-7.46-9.93-12.27-10.25-12.5-.01,0-.02-.01-.03-.02l-.56-.39c-8.34-5.78-13.38-9.27-12.53-22.92.38-6.07-3.93-8.32-6.24-9.54-.12-.06-.24-.13-.37-.19.84-.68,2.22-1.4,3.03-1.47.07.04.14.08.22.11.73.45,1.59.67,2.48.64,1.19-.05,2.29-.57,3.02-1.43.12-.14,2.85-3.36,2.25-6.28-.25-1.19-1.01-2.15-2.15-2.71-4.52-2.2-6.78-3.52-8.45-4.6-.15-3.35.89-6.34,2.99-8.48Zm3.71,16.67c.02.51-.6,1.87-1.38,2.79-.06.05-.3.06-.4-.04-.01-.01-.02-.02-.03-.03-.19-.19-.38-.33-.57-.43-3.78-2.75-6-5.52-7.19-7.58,1.81,1.2,4.21,2.68,9.57,5.29Z"/>
  <path d="m35.15,46.09c1.43.9,2.76,1.25,3.97,1.25,2.72,0,4.9-1.75,6.51-3.04,2.67-2.14,3.69-2.71,5.62-1.3.89.65,2.14.46,2.79-.43.65-.89.46-2.14-.43-2.79-4.56-3.34-8.12-.48-10.48,1.4-2.64,2.11-3.83,2.79-5.85,1.52-.93-.59-2.17-.31-2.76.63-.59.94-.31,2.17.63,2.76Z"/>
  <path d="m31.51,34.65c.94,0,1.71-.7,1.71-1.55s-.76-1.55-1.71-1.55-1.71.7-1.71,1.55.76,1.55,1.71,1.55Z"/>
</svg>