<?xml version="1.0" encoding="UTF-8"?>
<svg id="Layer_13" data-name="Layer 13" xmlns="http://www.w3.org/2000/svg" viewBox="0 0 120 120">
  <path d="m107.22,80.84c-.25,0-.48-.12-.66-.38l-5.2-6.81c-.85-1.19-2.23-1.91-3.69-1.92h-.54s0-1.85,0-1.85c.13-4.61-1.21-8.98-3.79-12.6,6.12-1.57,11.94,1.13,15.29,4.19.38.35.87.52,1.35.52.54,0,1.08-.22,1.48-.65.75-.81.69-2.08-.12-2.83-4.15-3.8-11.42-7.11-19.11-5.08,4.64-3.13,10.73-2.44,16.53,2.08.87.68,2.13.52,2.81-.35.68-.87.52-2.13-.35-2.81-7.85-6.1-16.57-6.43-22.76-1.07,1.97-2.66,4.51-4.4,7.46-5.04,4.11-.9,8.67.41,12.87,3.67.87.68,2.13.52,2.81-.35.68-.87.52-2.13-.35-2.81-5.15-4-10.9-5.57-16.17-4.42-4.31.94-8.03,3.67-10.66,7.76-2.73-1.18-5.74-1.84-8.92-1.92h-16.46c-2.14,0-4.13-.82-5.65-2.17h5.96c.66,0,1.27-.32,1.65-.86.37-.54.46-1.23.22-1.85l-2.33-6.12-7.99-21.99c-.72-1.92-1.87-3.55-3.3-4.83-.05-.05-.09-.1-.15-.15-.03-.02-.06-.04-.09-.06-2.1-1.77-4.78-2.8-7.67-2.8h-4.15s0,0,0,0,0,0,0,0h-7.59s-.03,0-.04,0c-.08,0-.17.01-.25.03-.06,0-.11.01-.17.03-.01,0-.02,0-.03,0l-9.39,2.4c-.63.16-1.14.62-1.38,1.23s-.15,1.29.21,1.83l3.59,5.3-10.27,6.07c-.07.04-.14.09-.21.14-1.11.86-1.81,2.1-1.98,3.49-.17,1.39.21,2.76,1.07,3.86l.95,1.22c1.62,2.07,4.07,3.26,6.63,3.26h0l10.57.37c-4.59,11.51-5.4,21.74-2.55,30.05l-6.67,9.04c-.89.89-1.5,2.01-1.78,3.24l-5.56,25.01c-.24,1.09.19,2.22,1.11,2.86.48.34,1.03.5,1.59.5.51,0,1.02-.14,1.48-.43l9.63-6.08c1.78-1.12,2.34-3.5,1.26-5.3-.1-.17-.23-.32-.38-.46l-1.55-1.4,4.03-8c.37-.28,1.14-.77,2.05-1.32-.18,1.16.05,2.36.67,3.38l14.42,23.62c.51.83,1.4,1.32,2.35,1.32.14,0,.28-.01.42-.03,1.1-.17,1.99-.98,2.26-2.06l2.98-11.93c.39-1.56-.55-3.18-2.1-3.61-.08-.02-.17-.04-.25-.05l-3.44-.48-1.32-5.51-.56-3.14,1.44-1.81h18.32c1.73,7.57,9.16,13.47,17.41,13.47l6.18.03c.71,0,1.43.24,2.02.68l10.73,10.48s.1.09.16.14c.53.42,1.17.64,1.82.64.44,0,.88-.1,1.29-.3,1.03-.5,1.67-1.52,1.67-2.66v-8.94l.74.74c.05.05.11.1.17.15.53.42,1.16.63,1.8.63.43,0,.86-.1,1.27-.29,1.01-.49,1.64-1.49,1.64-2.61v-10.57c0-2.63-2.14-4.76-4.76-4.76ZM47.14,16.59l.78,2.16-2.28.58c-.38-.75-.87-1.44-1.42-2.06l1.99-2.42c.37.54.69,1.11.93,1.74Zm1.15,13.59h3.79l.51,1.4h-4l-.3-1.4Zm1.15,5.4h4.6l.52,1.43h-4.82l-.3-1.43Zm1.19-9.4h-3.19l-.64-3.02,2.51-.64,1.33,3.66Zm.21,15.84c-.06-.19-.11-.38-.15-.58l-.09-.43h5.46l.38,1.01h-5.6Zm-7.62-29.83l-2.24,2.72c-1.07-.47-2.23-.75-3.44-.8v-2.75h2.15c1.26,0,2.46.3,3.53.83Zm-9.68-.83v2.74h-1.73c-.38,0-.76.02-1.15.05l-.4-2.79h3.28Zm-7.25.49l.44,3.04c-.98.31-1.93.69-2.84,1.17l-2.08-3.07,4.48-1.15Zm-1.83,71.67l-4.14,8.22c-.71,1.25-.69,2.79.05,4.03.1.17.23.32.38.46l1.44,1.3-6.94,4.38,4.92-22.12c.11-.51.38-.97.76-1.33.09-.08.17-.17.24-.27l5.41-7.33c1.47,2.69,3.4,5.1,5.78,7.25l-.12.29c-2.09,1.13-7.07,3.9-7.77,5.14Zm77.92,20.48l-8.95-8.75s-.1-.1-.16-.14c-1.31-1.03-2.93-1.6-4.56-1.6l-6.18-.03c-6.1,0-11.62-4.08-13.29-9.47h9.31c2.99,2.35,6.75,3.76,10.85,3.76h4.71l3.49,6.35c.05.08.1.17.16.24.92,1.21,2.31,1.9,3.83,1.9.45,0,.8.35.8.8v6.93Zm5.61-10.49l-7.61-7.59c-.05-.05-.11-.1-.17-.15-1.24-.98-2.71-1.62-4.26-1.87-.29-.1-.61-.14-.92-.1-.19-.01-.37-.02-.56-.02h-5.07c-7.52,0-13.64-6.12-13.64-13.64,0-1.1-.9-2-2-2s-2,.9-2,2c0,3.66,1.12,7.06,3.03,9.88h-24.83l5.08-6.41c.69-.87.54-2.12-.33-2.81-.86-.68-2.12-.54-2.81.32l-7.32,9.23c-.34.23-.61.56-.76.95l-1.9,2.4c-.04.05-.08.11-.12.16-.44.69-.61,1.51-.46,2.31l.63,3.55s.02.08.03.12l1.45,6.05c.23,1.14,1.1,2.07,2.22,2.39.08.02.17.04.25.05l2.93.41-1.99,7.97-12.88-21.1c-.16-.27-.19-.6-.07-.89l1.52-3.66c.3-.34.48-.77.51-1.22l1.2-2.9c.02-.06.04-.12.06-.18l.52-1.67,2.49-6.25c.41-1.03-.09-2.19-1.12-2.6-1.02-.41-2.19.09-2.6,1.12l-2.52,6.32s-.04.1-.05.15l-.06.2c-8.32-8.48-9.12-21.38-2.25-37.54l.24-.57c.3-.73.22-1.56-.22-2.21-.44-.66-1.17-1.05-1.89-1.05h0l-12.99-.45c-1.4,0-2.7-.63-3.56-1.73l-.95-1.22c-.2-.26-.29-.58-.25-.91.04-.29.17-.56.39-.76l11.26-6.66c.07-.04.14-.09.21-.14,2.26-1.75,5.08-2.72,7.95-2.72h5.34c2.59,0,4.86,1.84,5.41,4.37l2.28,10.71c-.03.13-.04.26-.04.4,0,.43.14.83.37,1.16l1.61,7.54c.19.87.47,1.69.82,2.48.02.04.03.08.05.12,2.01,4.36,6.43,7.32,11.38,7.32h16.41c3.09.08,6,.83,8.55,2.16.09.06.17.13.27.18.08.04.17.07.26.1,1.53.86,2.93,1.93,4.13,3.21,3.06,3.23,4.61,7.36,4.48,12v2.98c0,1.6,1.31,2.92,2.91,2.92h1.62c.18,0,.34.09.49.29l5.2,6.81c.89,1.26,2.34,2.01,3.89,2.01.42,0,.76.34.76.76v7.91Z"/>
  <path d="m28.96,19.69c-2.02,0-3.66,1.64-3.66,3.66s1.64,3.66,3.66,3.66,3.66-1.64,3.66-3.66-1.64-3.66-3.66-3.66Zm0,4c-.19,0-.34-.15-.34-.34s.15-.34.34-.34.34.15.34.34-.15.34-.34.34Z"/>
</svg>