<?xml version="1.0" encoding="UTF-8"?>
<svg id="Layer_13" data-name="Layer 13" xmlns="http://www.w3.org/2000/svg" viewBox="0 0 120 120">
  <path d="m33.6,24.39c.17.04.34.06.5.06.89,0,1.7-.6,1.93-1.5.28-1.07-.36-2.16-1.43-2.44-1.65-.43-6.7-3.34-7.22-6.52-.18-1.09-1.21-1.83-2.29-1.66-1.09.18-1.83,1.2-1.66,2.29.91,5.6,7.86,9.16,10.16,9.75Z"/>
  <path d="m12.7,36.03l.56.49c.38.34.85.5,1.32.5.55,0,1.1-.23,1.5-.67.73-.83.65-2.09-.17-2.82l-.56-.49c-.86-.76-1.53-1.52-2.06-2.32-1.39-2.1-2.14-4.61-2.17-7.23-.04-3.55,1.32-6.94,3.74-9.34.03.09.08.18.11.27-2.34,2.1-3.41,4.88-3.41,8.82,0,3.46,1.29,6.87,3.45,9.13.39.41.92.62,1.44.62.5,0,1-.18,1.38-.56.8-.76.83-2.03.06-2.83-1.44-1.51-2.34-3.95-2.34-6.36,0-2.29.42-3.87,1.39-5.11.08.12.17.24.26.37-1.48,2.21-1.89,5.24.1,7.69.39.49.97.74,1.55.74.44,0,.89-.15,1.26-.45.86-.7.99-1.96.29-2.81-.48-.59-.53-1.22-.4-1.8.78.81,1.6,1.59,2.46,2.34l-3.36,5.78c-.32.56-.36,1.23-.1,1.82l1.49,3.35-1.3.89c-.91.63-1.14,1.87-.51,2.78.39.56,1.01.87,1.65.87.39,0,.79-.11,1.13-.35l2.67-1.84c.79-.55,1.09-1.58.69-2.46l-1.75-3.93,2.54-4.37c.96.71,1.92,1.38,2.88,2.01l-2.03,3.29c-.2.32-.3.68-.3,1.05v10.46c0,1.1.9,2,2,2h3.48c1.1,0,2-.9,2-2s-.9-2-2-2h-1.48v-7.89l1.73-2.81c2.82,1.62,5.26,2.76,6.63,3.3,1.57.62,3.19.92,4.78.92,3.07,0,6-1.13,8.12-3.28,3.7-3.74,4.4-9.67,2-16.38l3.03-1.31c1.01-.44,1.48-1.62,1.04-2.63s-1.62-1.48-2.63-1.04l-3.26,1.41c-1.54-1.93-3.66-2.83-5.94-2.38-2.36.46-4.24,2.5-4.68,5.06-.32,1.9.15,3.83,1.3,5.29.5.63,1.01,1.3,1.42,2.02.01.02.02.04.04.06.01.02.03.04.04.06,0,.01.02.03.03.04.18.26.3.53.35.81-.05.01-.11,0-.14-.02l-4.01-6.16c-4.29-6.14-7-9.36-17.01-9.71-2.76-.1-5.43.61-7.8,1.99-.06.03-.12.07-.18.11-1.02.61-1.99,1.34-2.87,2.21-3.23,3.16-5.06,7.64-5.01,12.31.04,3.4,1.02,6.65,2.83,9.39.73,1.1,1.63,2.12,2.75,3.11Zm23.97-17.18l3.98,6.1c1.05,1.61,3.07,2.26,4.9,1.59,1.79-.66,2.82-2.36,2.57-4.22-.11-.85-.44-1.69-.93-2.44,0-.02-.02-.03-.03-.05-.03-.05-.06-.08-.08-.13,0,0,0,0,0,0,0,0,0,0,0,0-.52-.89-1.12-1.69-1.66-2.37-.45-.57-.63-1.35-.5-2.14.15-.91.79-1.67,1.5-1.81,1.62-.31,2.59,1.74,2.85,2.37,2.29,5.64,2.03,10.45-.7,13.22-2.12,2.14-5.41,2.7-8.59,1.45-1.2-.47-4.17-1.88-7.54-3.94-.05-.04-.09-.08-.14-.11-.05-.03-.11-.05-.17-.08-3.69-2.27-7.81-5.29-10.64-8.7-.07-.12-.15-.25-.25-.36-.03-.04-.07-.06-.11-.1-.67-.85-1.25-1.71-1.73-2.6-.05-.22-.14-.44-.27-.64-.04-.06-.09-.11-.13-.16-.29-.64-.53-1.29-.69-1.94,1.43-.62,2.97-.94,4.53-.88,8.49.29,10.17,2.71,13.83,7.95Z"/>
  <path d="m110.43,24.54l.3-.09c.53-.15.97-.51,1.23-.99l.69-1.3c.52-.98.14-2.19-.83-2.7-.98-.52-2.19-.14-2.7.83l-.29.55-2.26.64-1.73-1.01-.33-.95c-.36-1.05-1.5-1.6-2.54-1.25-1.04.36-1.6,1.5-1.25,2.54l.57,1.66c.16.46.47.84.89,1.08l.77.45-1.1,3.82-1.09-.4c.1-.52.15-1.06.13-1.65-.15-3.53-2.48-6.31-5.65-7.03-.24-.1-.5-.16-.78-.16-.6,0-1.04-.21-1.4-.65-.63-.78-.85-2.15-.57-3.5.3-1.43,1.07-2.41,3.83-2.52.19,0,.38,0,.57.02,1.33.11,1.4.93,1.39,1.18-.03.63-.45.63-.63.63-1.1,0-1.99.9-1.99,2s.91,2,2.01,2c2.56,0,4.5-1.88,4.61-4.46.1-2.43-1.6-5.04-5.05-5.33-.35-.03-.7-.05-1.06-.03-5.33.21-7.07,3.21-7.59,5.7-.48,2.29-.11,4.58.98,6.27-.54.37-1.03.78-1.46,1.19l.28-8.28c.05-1.61-.45-3.01-1.45-4.04-1.18-1.22-2.95-1.84-5.33-1.84h0c-.41,0-.84.08-1.29.23-1.02.34-1.86.93-2.52,1.74-2.23-1.6-4.76-1.53-6.96.21-.87.69-1.01,1.94-.33,2.81.69.87,1.94,1.01,2.81.33.81-.64,1.37-.67,2.16-.09.35.26.38,1.27.2,1.73-.58.26-1.41.45-2.96-.31-.99-.49-2.19-.08-2.68.91-.49.99-.08,2.19.91,2.68,1.42.7,2.65.95,3.69.95.47,0,.9-.06,1.29-.15,0,.36,0,.69.01.99-1.43.84-3.01,2.39-3.57,4.8l-2.83-.83.94-2.51c.23-.62.14-1.31-.23-1.85l-1.17-1.67c-.63-.91-1.88-1.13-2.79-.49-.91.63-1.13,1.88-.49,2.79l.57.81-.32.85-.42-.36c-.36-.31-.83-.49-1.31-.49h-1.42c-1.1,0-2,.9-2,2s.9,2,2,2h.68l1.34,1.16v2.09l-.64.77c-.71.85-.59,2.11.25,2.82.37.31.83.46,1.28.46.57,0,1.14-.25,1.54-.72l1.11-1.33c.3-.36.46-.81.46-1.28v-1.06l3.33.97c.15,1.32.59,2.57,1.24,3.67-.36-.03-.73.02-1.07.19l-2.44,1.21c-.99.49-1.39,1.69-.9,2.68.49.99,1.69,1.39,2.68.9l1.21-.6.35.32-.68.5c-.73.54-1.01,1.51-.67,2.35l.99,2.47c.31.78,1.06,1.26,1.86,1.26.25,0,.5-.05.74-.14,1.03-.41,1.52-1.58,1.11-2.6l-.42-1.04.87-.64h2.12l.69.63c.81.75,2.08.69,2.83-.12.74-.81.69-2.05-.1-2.8.92.09,1.81.15,2.65.15,3.03,0,5.51-.55,7.45-1.24l1.66,1.08-1.79,3.18h-2.78c-.33,0-.66.08-.95.24l-1.59.86c-.97.53-1.33,1.74-.8,2.71.36.67,1.05,1.05,1.76,1.05.32,0,.65-.08.95-.24l.84-.45c-.2.32-.31.68-.31,1.06v1.49c0,1.1.9,2,2,2s2-.9,2-2v-.91l1.16-1.81h1.68l.69.63c.81.75,2.08.69,2.83-.12s.69-2.08-.12-2.83l-1.26-1.16c-.37-.34-.85-.53-1.35-.53h-.14l1.6-2.85c.51-.92.23-2.08-.65-2.65l-1.3-.85c.18-.13.35-.25.48-.35.25-.18.94-.7,1.65-1.54l3.49,1.29c.22.08.46.12.69.12.31,0,.62-.07.9-.21.5-.25.87-.7,1.02-1.23l1.15-3.99.83,1.16c.38.53.99.83,1.63.83.15,0,.3-.02.45-.05l2.13-.5c1.08-.25,1.74-1.33,1.49-2.4-.25-1.06-1.29-1.71-2.35-1.5Zm-17.3,5.94l-3.07-2.01c-.92-.6-2.16-.34-2.77.58-.6.92-.34,2.16.58,2.77l.31.2c-1.9.28-4.2.32-6.89-.13l1.27-2.25c.54-.96.21-2.18-.75-2.73-.96-.55-2.18-.21-2.73.75l-1.52,2.68c-.85-.91-1.41-2.21-1.41-3.56,0-.04-.01-.09-.01-.13.03-.17.04-.34.02-.51-.28-3.04,1.94-3.91,2.36-4.05.88-.26,1.47-1.08,1.43-2,0-.03-.12-3.26.05-5.65.14-2.05.67-3.24,1.66-3.56,1.15,0,2,.22,2.39.63.09.09.35.36.32,1.13l-.31,9.22c0,3.97,2,4.81,3.68,4.81.02,0,.04,0,.06,0,.07,0,.14-.01.21-.02.06,0,.13-.02.19-.03.07-.02.13-.04.19-.06.06-.02.11-.04.17-.06.08-.03.15-.08.22-.12.03-.02.07-.04.1-.06.09-.06.17-.13.25-.21,0,0,.02-.02.03-.03.12-.12.22-.24.31-.39.61-1.03,2.42-3.16,4.13-3.16,1.85,0,3.21,1.39,3.3,3.39,0,.02,0,.03,0,.05l-1.98-.73c-1.03-.38-2.19.15-2.57,1.18-.38,1.04.15,2.19,1.18,2.57l1.28.47c-.3.23-.85.6-1.66,1.02Z"/>
  <path d="m43.83,88.79c-.84,0-1.52.71-1.52,1.59s.68,1.59,1.52,1.59,1.52-.71,1.52-1.59-.68-1.59-1.52-1.59Z"/>
  <path d="m98.57,71.92c-1.1,0-2,.9-2,2s.9,2,2,2c4.36,0,7.9,3.76,7.9,8.39,0,4-2.3,7.05-4.98,8.37.61-1.05.96-2.26.96-3.53,0-.21-.03-.42-.05-.63,2.1-.49,2.89-2,3.11-2.59.77-2.05-.11-4.56-2-5.71-.94-.58-2.17-.28-2.75.67-.57.94-.28,2.17.67,2.75.12.08.29.3.34.58.04.2,0,.31,0,.32-.03.03-.25.15-.75.15-.7-.95-1.65-1.7-2.75-2.13-.32-.12-.65-.21-.98-.27-.02-.17-.01-.4.08-.52.07-.09.39-.1.75-.01,1.07.25,2.15-.42,2.4-1.5.25-1.08-.42-2.15-1.5-2.4-3.07-.71-5.01.98-5.57,2.97-.19.68-.21,1.36-.12,2-.41.19-.82.41-1.21.68-.03.02-.06.04-.1.07-1.08.8-1.9,1.9-2.36,3.15-1.34-.32-2.71-.51-4.12-.51-3.18,0-6.26.88-8.97,2.47-1-.47-2.39-1.58-1.97-4.06.07-.4.44-1.08,1.26-1.64,1.26-.86,3.07-1.12,5.1-.7,1.09.21,2.14-.48,2.36-1.57.22-1.08-.48-2.14-1.57-2.36-3.1-.62-6-.15-8.15,1.33-1.59,1.1-2.66,2.65-2.94,4.27-.59,3.52.82,5.86,2.54,7.27-.17.17-.33.35-.49.52-.8-.26-1.69-.26-2.53.06-1.83.69-2.82,2.58-2.54,4.81,0,.05.02.11.03.16l.12.56c.28,1.32.63,2.37,1.09,3.3.54,1.07,1.21,2.07,1.98,2.98-.82,1.17-1.77,2.53-2.89,4.14-.42.61-.47,1.41-.13,2.07.35.66,1.03,1.07,1.77,1.07h4.8c1.1,0,2-.9,2-2,0-.52-.2-.99-.53-1.35,1.7.87,3.57,1.48,5.53,1.78-.64.33-1.08,1-1.08,1.77,0,1.1.9,2,2,2h4.28c.62,0,1.21-.29,1.59-.79s.5-1.14.34-1.75l-.4-1.43c2.44-.53,4.77-1.53,6.81-2.87l.2.59c.28.81,1.04,1.35,1.89,1.35h3.66c1.1,0,2-.9,2-2s-.9-2-2-2h-2.24l-.24-.69c1.77-1.88,3.04-4.06,3.52-6.37.02-.11.03-.21.05-.31,4.97-1.63,8.66-6.81,8.66-12.54,0-6.83-5.34-12.39-11.9-12.39Zm-9.15,18.85s.01.04.02.06c.07.28.15.55.25.82.02.06.04.12.07.18.11.28.24.54.38.8.02.04.05.08.08.12.14.23.29.45.45.66.03.04.06.08.09.12.09.11.18.21.27.31-.12-.02-.24-.04-.37-.04h-3.24c-.99,0-1.8.72-1.97,1.66-.37-.12-.78-.14-1.18-.02l-1.88.55c-1.05.31-1.66,1.4-1.37,2.45l.94,3.39c-1.57-.28-2.82-.78-3.82-1.37,0-.01.02-.03.03-.04.47-.37.78-.94.78-1.58s-.3-1.19-.76-1.56h1.6c1.1,0,2-.9,2-2,0-.55-.22-1.04-.58-1.4.19.06.38.1.59.1h3.24c1.1,0,2-.9,2-2,0-.76-.43-1.42-1.06-1.75,1.17.04,2.31.22,3.42.55Zm3.69,4.6c.27.12.54.24.82.32.01,0,.03,0,.04.01.28.08.56.14.85.19.04,0,.07.02.11.02-.04.12-.09.24-.15.36,0,0,0,0,0,0-1.33,2.52-3.91,5.55-8.58,5.8l-.77-2.8c.75-.23,1.27-.86,1.39-1.59.2.06.4.11.62.11h3.24c1.1,0,2-.9,2-2,0-.27-.05-.52-.15-.75.14.08.27.16.42.23.06.03.12.06.18.09Zm-18.4,1.11c-.08-.22-.1-.45-.07-.67.17.62.63,1.12,1.22,1.34-.16.12-.35.29-.56.52-.25-.42-.45-.83-.59-1.19Zm5.69-3.09c-.19-.06-.38-.1-.59-.1h-2.87c.92-.74,1.92-1.35,2.97-1.83-.05.17-.08.34-.08.53,0,.55.22,1.04.58,1.4Zm14.01-6.61c.63-.42,1.56-.83,2.43-.5.67.26,1.22.93,1.41,1.71.02.06.03.12.05.18.11.31.16.63.16.97,0,.94-.43,1.8-1.15,2.33-.07.04-.13.09-.19.14-.22.14-.46.24-.71.3-.18.04-.37.07-.56.07-1.4,0-2.57-1.23-2.61-2.84,0-.95.44-1.84,1.17-2.36Zm-19.99,20.13h-.96c.14-.19.27-.38.4-.57.3.21.61.41.93.61-.12-.02-.25-.04-.37-.04Z"/>
  <path d="m82.15,12.56c-.74,0-1.34.6-1.34,1.34s.6,1.34,1.34,1.34,1.34-.6,1.34-1.34-.6-1.34-1.34-1.34Z"/>
  <path d="m47.11,14.77c-.72,0-1.31.59-1.31,1.31s.59,1.31,1.31,1.31,1.31-.59,1.31-1.31-.59-1.31-1.31-1.31Z"/>
  <path d="m61.68,88.26c-.73-.82-2-.9-2.82-.16l-2.61,2.33-2.66-.03c-.77-1.79-2.01-3.32-3.56-4.43,1.64-.38,2.87-1.87,2.87-3.66,0-2.07-1.65-3.76-3.68-3.76h-1.32c-1.1,0-2,.9-2,2s.9,2,2,2h.02c-.43.37-.7.91-.7,1.52,0,.17.03.34.07.5-.83-.28-1.71-.46-2.62-.52-1.22-.08-2.33.02-3.39.29-.61.16-1.22.37-1.83.61.13-.27.22-.57.22-.89,0-.61-.27-1.15-.7-1.52h.02c1.1,0,2-.9,2-2s-.9-2-2-2h-1.32c-2.03,0-3.68,1.69-3.68,3.76,0,1.9,1.39,3.45,3.17,3.71-1.37.73-2.64,1.55-3.65,2.26-.38.27-.91.2-1.29-.18-2.36-2.37-5.93-3.44-9.09-2.71-2.86.65-5.01,2.66-6.06,5.65-.16.46-.29.91-.41,1.36-1.27-1.59-1.27-3.46-.67-4.96.89-2.24,3.33-4.17,6.6-3.13.72.23,1.43.37,2.13.42,3.14.21,6.04-2,6.62-5.06.3-1.55-.17-3.25-1.25-4.56-1.15-1.39-2.8-2.15-4.66-2.15-1.1,0-2,.9-2,2s.9,2,2,2c.82,0,1.31.38,1.58.7.32.38.47.88.4,1.26-.21,1.08-1.27,1.91-2.41,1.82-.38-.03-.78-.11-1.2-.24-5.45-1.73-9.93,1.44-11.53,5.47-1.48,3.73-.68,8.59,4.24,11.44.16.6.39,1.16.69,1.68.46.79,1.1,1.47,1.87,2.03l-3.55,5.8h-3.04c-1.1,0-2,.9-2,2s.9,2,2,2h10.48c1.1,0,2-.9,2-2s-.9-2-2-2h-2.75l2.59-4.23c.1.02.2.05.31.07,1.32.24,2.75.25,4.26.05l2.52-.33c.71-.09,1.37-.25,2-.4.23-.05.46-.11.7-.16.43-.09.85.01,1.19.3,1.76,1.5,3.65,2.26,5.56,2.29l.73,2.4h-2.06c-1.1,0-2,.9-2,2s.9,2,2,2h10.21c1.1,0,2-.9,2-2s-.9-2-2-2h-3.97l-1.03-3.39c1.8-.96,2.96-2.23,3.44-3.78.29-.93.32-1.92.09-2.93l5.79-.15c1.08-.03,1.95-.92,1.95-2,0-.09-.01-.17-.01-.25l1.83.02,2.65,2.09c.37.29.8.43,1.24.43.59,0,1.18-.26,1.57-.76.68-.87.54-2.12-.33-2.81l-1.32-1.04,1.41-1.26c.82-.74.9-2,.16-2.82Zm-17.06,4.61c-.89.07-1.68.58-2.12,1.37-.44.8-.44,1.76-.01,2.56.21.39.53,1.13.33,1.75-.12.4-.45.73-.83,1.01l-.73-2.39c-.32-1.06-1.44-1.65-2.5-1.33-1.06.32-1.65,1.44-1.33,2.5l.57,1.87c-.51-.21-1.06-.53-1.65-1.04-.99-.84-2.22-1.29-3.48-1.29-.38,0-.77.04-1.15.12-.25.05-.51.11-.76.17-.57.13-1.1.26-1.62.33l-2.52.33c-.61.08-1.19.11-1.75.1l1.1-1.8c.58-.94.28-2.17-.66-2.75-.94-.58-2.17-.28-2.75.66l-1.61,2.63c-.2-.18-.38-.38-.52-.62-.75-1.29-.31-3.27.19-4.71.59-1.69,1.66-2.73,3.17-3.07,1.8-.41,4.01.26,5.37,1.64,1.75,1.76,4.45,2.02,6.43.63,1.7-1.2,4.2-2.75,6.46-3.33.66-.17,1.34-.22,2.15-.17,2.74.17,5.01,2.1,5.78,4.68l-5.58.15Z"/>
  <path d="m95.83,89.98c.68,0,1.24-.55,1.24-1.24s-.55-1.24-1.24-1.24-1.24.55-1.24,1.24.55,1.24,1.24,1.24Z"/>
  <path d="m75.14,69.55l5.07,1.02,1.38,4.26c.27.85,1.06,1.38,1.9,1.38.2,0,.4-.03.6-.09l3.91-1.23c1.05-.33,1.64-1.46,1.3-2.51s-1.46-1.64-2.51-1.3l-2.01.64-1.13-3.48c-.22-.69-.8-1.2-1.51-1.34l-5.09-1.03c.68-1.92,1.02-4.11.83-6.59-.06-.85-.18-1.6-.32-2.33l2.19-.27c.58-.07,1.09-.39,1.42-.87s.42-1.08.27-1.64l-1.59-5.84,1.84-1.39c.88-.67,1.06-1.92.39-2.8-.67-.88-1.92-1.06-2.8-.39l-2.92,2.21c-.65.49-.94,1.33-.72,2.12l1.34,4.92-.83.1c-.46-.78-1-1.52-1.62-2.18-1.64-1.71-3.69-2.85-5.93-3.32.09-.45.15-.91.15-1.38,0-1.29-.37-2.5-1.01-3.56,1-.84,1.63-2.03,1.63-3.37,0-2.52-2.21-4.57-4.92-4.57h-1.63c-1.1,0-2,.9-2,2s.9,2,2,2h1.63c.56,0,.92.34.92.57,0,.18-.24.43-.62.52-1.36-.77-2.98-1.23-4.71-1.23s-3.47.48-4.86,1.31c-.12-.02-.24-.04-.36-.04-.56,0-.92-.33-.92-.57s.36-.57.92-.57h1.63c1.1,0,2-.9,2-2s-.9-2-2-2h-1.63c-2.71,0-4.92,2.05-4.92,4.57,0,1.59.88,2.99,2.21,3.8-.16.31-.29.62-.41.94-1.14.71-2.12,1.61-2.89,2.66l-4.31-4.23c-.63-.62-1.58-.75-2.35-.33l-3.25,1.75-.36-1.12c-.34-1.05-1.46-1.62-2.52-1.28-1.05.34-1.62,1.47-1.28,2.52l1.1,3.4c.18.56.61,1.02,1.16,1.24.55.22,1.17.19,1.69-.1l4.06-2.19,4.31,4.23c-.12.6-.21,1.21-.21,1.84,0,3.17,1.48,6.15,3.96,8,1.63,1.21,4.48,1.75,5.63,1.92,4.33.65,6.01,1.45,6.62,1.86-.22.17-.54.36-.95.52-2.54.97-5.14,1.08-11.56-1.04-1.15-.38-2.3-.94-3.37-1.54.44-.37.72-.91.72-1.52,0-1.1-.9-2-2-2h-3.22l2.21-2.21c.78-.78.78-2.05,0-2.83s-2.05-.78-2.83,0l-1.56,1.56v-2.01c0-1.1-.9-2-2-2s-2,.9-2,2v3.19l-1.95-1.95c-.78-.78-2.05-.78-2.83,0s-.78,2.05,0,2.83l1.41,1.41h-2.32c-1.1,0-2,.9-2,2s.9,2,2,2h2.21l-1.62,1.62c-.78.78-.78,2.05,0,2.83.39.39.9.59,1.41.59s1.02-.2,1.41-.59l2.27-2.27v3.42c0,1.1.9,2,2,2s2-.9,2-2v-2.23c6.15,6.56,12.68,9.85,18.1,10.76l-.84,3.31-1.07.07c-1.1.07-1.94,1.02-1.87,2.12.07,1.06.95,1.87,1.99,1.87.04,0,.09,0,.13,0l2.52-.16c.87-.05,1.6-.66,1.81-1.5l1.39-5.46c1.09-.07,2.09-.25,3-.53,2.87-.9,6.82-3.13,9.46-6.88Zm-10.39-23.34c0,.64-.22,1.26-.63,1.82-.02.02-.04.04-.05.06-.06.07-.12.14-.17.2-.88.98-1.37,2.22-1.37,3.49v1.96s0,.04,0,.06h-4.7s0-.04,0-.06v-1.61c0-1.41-.54-2.75-1.48-3.69-.45-.45-.99-1.2-.99-2.22,0-2.01,2.11-3.64,4.7-3.64s4.71,1.63,4.71,3.64Zm-3.12,26.8s0,0,0,0c-.28-.07-.55-.08-.82-.03-3.88-.25-8.92-2.23-14-6.54.81.39,1.65.75,2.5,1.03,3.88,1.28,6.77,1.9,9.27,1.9,1.78,0,3.36-.31,4.97-.92,1.89-.71,4-2.36,3.76-4.66-.29-2.72-3.45-4.39-10.25-5.41-1.86-.28-3.34-.8-3.84-1.17-1.47-1.09-2.35-2.88-2.35-4.78,0-.6.11-1.18.29-1.71,0-.02.01-.03.02-.05.2-.56.48-1.08.83-1.54.36.79.87,1.52,1.52,2.17.19.19.3.51.3.86v1.61c0,2.09,1.55,3.87,3.52,4.05.06,0,.12,0,.19,0h5.29c.06,0,.12,0,.19,0,1.98-.18,3.52-1.96,3.52-4.05v-1.96c0-.14.03-.28.09-.42.31.01.62.04.94.1,1.53.27,2.93,1.03,4.05,2.19l-1.39.17c-1.1.13-1.88,1.13-1.74,2.23.12,1.01.99,1.76,1.98,1.76.08,0,.16,0,.25-.01l2.89-.35c.14.63.24,1.33.3,2.13.15,2.1-.19,3.91-.84,5.49l-2.2-.44c-1.09-.22-2.14.48-2.36,1.56-.22,1.08.48,2.14,1.56,2.36l.66.13c-1.94,2.08-4.39,3.37-6.24,3.95-.83.26-1.79.39-2.85.39Z"/>
  <circle cx="57.36" cy="46.66" r="1.57"/>
  <path d="m62.83,48.22c.87,0,1.57-.7,1.57-1.57s-.7-1.57-1.57-1.57-1.57.7-1.57,1.57.7,1.57,1.57,1.57Z"/>
</svg>