<?xml version="1.0" encoding="UTF-8"?>
<svg id="Layer_13" data-name="Layer 13" xmlns="http://www.w3.org/2000/svg" viewBox="0 0 120 120">
  <path d="m111.97,67.64c0-1.1-.9-2-2-2h-3.31c-1.1,0-2,.9-2,2s.9,2,2,2h1.31v15.41l.3,23.04H12.29l-.28-38.44h1.42c1.1,0,2-.9,2-2s-.9-2-2-2h-3.43c-.53,0-1.04.21-1.42.59-.38.38-.58.89-.58,1.42l.31,42.26c0,1.2.98,2.17,2.17,2.17h99.83c.54,0,1.05-.21,1.42-.59.38-.38.58-.9.58-1.43l-.33-25.04v-17.38Z"/>
  <path d="m37.68,23.83c.24-.12.48-.18.73-.2-.8.76-1.46,1.81-1.57,3.21-.16,1.91.43,3.7,1.67,5.05,1.39,1.51,3.5,2.36,5.94,2.37h.07c3.03,0,4.72-1.09,5.67-2.35.2.02.4.04.6.04.35,0,.7-.03,1.07-.11,1.08-.22,1.78-1.27,1.57-2.36-.22-1.08-1.27-1.78-2.35-1.57-1.3.25-3.15-1.71-4.79-3.45-2.56-2.71-6.05-6.43-10.42-4.21-.98.5-1.38,1.71-.88,2.69s1.71,1.38,2.69.88Zm3.14,3.35c.07-.8,1.26-1.18,1.26-1.18.03,0,.05-.02.08-.03.25.25.53.53.81.83-.65.65-1.05,1.55-1.05,2.54,0,.09.02.18.03.27-.18-.12-.35-.25-.49-.41-.48-.53-.7-1.23-.63-2.02Zm4.97,2.45c-.07.07-.17.12-.28.12-.23,0-.41-.18-.41-.41,0-.1.04-.19.1-.26.2.19.4.37.6.55Z"/>
  <path d="m51.99,32.47l-.47.13c-1.06.3-1.68,1.4-1.39,2.46.25.88,1.05,1.46,1.92,1.46.18,0,.36-.02.54-.08l.47-.13c1.06-.3,1.68-1.4,1.39-2.46s-1.4-1.69-2.47-1.39Z"/>
  <path d="m107.79,32.65c.28-1.26.06-2.26-.26-2.98-.62-1.38-1.84-2.24-3.01-2.77.56-1.3.64-2.54.24-3.73-.45-1.36-1.45-2.3-2.46-2.93.18-.48.29-1.01.29-1.58,0-2.02-1.35-3.86-4-5.47-3.97-2.42-8.73-4.96-15.03-4.58-2.4.12-7.27.77-10.1,1.97-9.48,4.03-11.8,9.62-12.07,13.58-.04.57-.45,2.62-.78,4.18-.23.26-.43.55-.61.85-.18-.3-.38-.59-.61-.85-.33-1.56-.73-3.61-.78-4.17-.27-3.98-2.59-9.57-12.07-13.6-2.83-1.2-7.7-1.85-10.08-1.97-6.78-.41-11.64,2.26-15.13,4.63-2.6,1.77-3.9,3.67-3.86,5.65,0,.46.1.91.25,1.33-1.01.63-2.02,1.58-2.47,2.95-.4,1.19-.31,2.43.24,3.73-1.17.53-2.4,1.39-3.01,2.77-.32.72-.54,1.72-.26,2.98-1.2.26-2.5.78-3.43,1.81-.75.82-1.56,2.27-1.16,4.54.2,1.12.69,2.07,1.43,2.81-3.97,15.12,4.38,21.1,7.96,22.91-.17,1.42-.53,2.84-1.08,4.23-.96,2.4-.66,4.74.85,6.6.1.12.21.23.33.32.58.45,1.33.82,2.24,1.11,0,0,0,0,.01,0,0,0,0,0,.01,0,0,0,0,0,0,0,0,0,0,0,0,0,1.49.48,3.42.74,5.48.74.16,0,.33,0,.49,0,2.54-.02,4.9-.44,6.46-1.13,1.33-.58,2.18-1.39,2.5-2.41.01-.04.02-.08.03-.12,1.16-4.59-.86-7.19-2.21-8.35,3.03-.31,5.74-.84,8.15-1.78.03,1.47.42,2.63.88,3.46.61,1.11,1.52,2.03,2.62,2.7-.31.84-.56,1.87-.56,3.04,0,4.95,4.02,8.97,8.97,8.97,3.35,0,6.28-1.85,7.81-4.58,1.54,2.73,4.46,4.58,7.82,4.58,4.95,0,8.97-4.02,8.97-8.97,0-1.16-.25-2.19-.56-3.04,1.1-.68,2.01-1.59,2.62-2.7.45-.83.85-1.99.88-3.46,2.41.94,5.12,1.46,8.14,1.78-1.35,1.17-3.37,3.76-2.21,8.35.01.04.02.08.03.12.33,1.02,1.17,1.83,2.49,2.41,1.57.7,3.94,1.11,6.46,1.14.17,0,.33,0,.5,0,2.08,0,4.01-.26,5.5-.74,0,0,0,0,0,0,0,0,0,0,0,0,0,0,0,0,.01,0,0,0,0,0,.01,0,.9-.29,1.66-.66,2.24-1.11.12-.09.23-.2.33-.32,1.51-1.86,1.81-4.2.85-6.6-.55-1.38-.91-2.79-1.08-4.19,1.82-.87,4.84-2.79,6.88-6.52,2.39-4.37,2.73-9.9,1.05-16.41.74-.74,1.24-1.7,1.44-2.82.4-2.28-.41-3.73-1.16-4.54-.94-1.02-2.23-1.54-3.43-1.81Zm-32.77-18.39c1.93-.82,6.08-1.52,8.76-1.66,5.17-.32,9.12,1.81,12.73,4,1.64,1,2.08,1.77,2.08,2.07,0,.23-.3.54-.51.67-.69.43-1.06,1.23-.92,2.03.13.8.74,1.44,1.53,1.62.7.16,2.05.78,2.27,1.44.16.48-.25,1.36-1.09,2.36-.47.56-.6,1.34-.33,2.02.27.68.89,1.17,1.62,1.26.96.12,2.45.64,2.71,1.24.12.27,0,.94-.73,1.97-.45.63-.48,1.47-.1,2.14.38.67,1.12,1.05,1.9,1,1-.08,2.75.1,3.33.74.08.09.3.33.16,1.14-.1.56-.34.75-.58.87-.77.38-2.21.22-3.26-.32l-5.89-3.4c-1.1-.91-1.62-2.12-1.74-2.51-.02-.21-.07-.42-.15-.61l-.99-2.35c-.75-3.85-4.1-5.98-4.95-6.46-.54-.42-.79-.65-.9-.77.02-.15.05-.37.08-.55.04-.24.08-.52.12-.82.12-.87.07-1.9-.16-3.05-.45-2.28-2.12-4.1-4.37-4.75-.23-.07-.48-.09-.72-.07-.22.02-5.52.5-9.83,3.12-2.33,1.42-4.04,2.79-5.42,3.9-1.99,1.6-2.95,2.31-4.02,2.31,1.18-4.25,5.61-6.98,9.36-8.58Zm13.41,44.76s0,.05,0,.07c.06.89.13,1.79.2,2.68-7.61-.75-11.36-2.71-14.18-7.33,0-.05.02-.1.02-.15,1.16-.06,2.79-.22,4.96-.56,3.29-.52,6.21-1.45,8.83-2.8-.14,2.3.02,5.65.17,8.1Zm-41.12,13.23c.07-.34.16-.65.27-.92.12.01.24.03.37.04-.26.25-.47.55-.64.88Zm7.58-18.87c0,1.49-1.22,2.69-2.72,2.69-.16,0-.31,0-.46.01-.54.02-.71.03-1.2-.3-.51-.34-1.03-.9-1.03-2.4s1.18-2.72,2.69-2.72c.23,0,.45.03.66.08.7.17,1.27.61,1.63,1.19.05.09.1.17.15.26.17.36.28.76.28,1.19Zm-23.53,8.38c.08-.89.14-1.79.2-2.68,0-.02,0-.04,0-.06.16-2.44.31-5.78.17-8.11,2.61,1.36,5.53,2.28,8.83,2.8,2.16.34,3.79.5,4.96.56,0,.05.02.1.02.15-2.82,4.62-6.57,6.58-14.18,7.33Zm2.53-40.2c-.03-.21-.07-.45-.11-.73-.04-.3-.05-.84.12-1.74.13-.69.6-1.26,1.24-1.55,1.2.16,4.81.75,7.68,2.5,2.1,1.28,3.64,2.51,5,3.6,2.29,1.84,4.33,3.47,7.19,3.17.24,1.26.52,2.56.6,2.95.09.43.32.81.65,1.09.3.26.5.62.54,1.02l.02.14c.03.22,0,.45-.09.67-1.12,2.86-2.67,4.88-3.7,4.81-.07,0-.07,0-.31,0h-1.05c-2.3-.02-4.57-.25-6.75-.67-5.62-1.09-6.92-1.75-7.12-1.88-.95-.57-2.18-.26-2.74.69-.57.95-.26,2.18.69,2.74.78.47,2.5,1.22,8.41,2.37,2.27.44,4.63.68,7.03.72-.43.7-1.2,1.49-2.56,1.69-.73.11-1.57,0-2.49-.33-1.84-.66-4.76-1.15-6.66-1.08-3.06.1-5.78-.19-7.84-.84-3.02-.97-5.19-2.63-6.42-3.78.88-1.11,1.52-2.37,1.72-3.4l1-2.37c.06-.15.11-.3.13-.46.39-2.47,3.04-3.89,3.06-3.9.11-.06.21-.12.31-.2,2.37-1.83,2.83-2.81,2.44-5.22Zm26.12,13.65c.71,1.58,1.76,3.41,3.17,4.69-1.05.68-2.21,1.67-3.07,3.09-.04.06-.07.13-.1.19-.04-.06-.07-.13-.1-.19-.86-1.42-2.01-2.41-3.06-3.08,1.41-1.28,2.46-3.11,3.17-4.69Zm12.19-11.57c1.36-1.09,2.89-2.32,5-3.6,2.88-1.75,6.49-2.35,7.68-2.5.64.29,1.1.86,1.24,1.55.18.89.16,1.44.12,1.74-.04.27-.07.51-.11.72-.39,2.41.07,3.39,2.44,5.22.09.07.2.14.3.19.03.01,2.68,1.43,3.07,3.9.03.16.07.31.13.46l1,2.37c.2,1.03.85,2.29,1.72,3.4-1.23,1.14-3.4,2.81-6.41,3.78-2.07.65-4.78.95-7.85.85-1.89-.07-4.82.41-6.74,1.1-.85.31-1.69.41-2.42.31-1.37-.2-2.13-.98-2.56-1.69,2.39-.04,4.75-.28,7.02-.72,5.91-1.15,7.63-1.9,8.41-2.37.95-.57,1.26-1.79.69-2.74-.57-.95-1.79-1.26-2.74-.69-.2.12-1.5.79-7.12,1.88-2.17.42-4.44.65-6.75.66h-1.05c-.24,0-.24,0-.28.01-1.04.05-2.61-1.95-3.73-4.8-.09-.22-.12-.44-.09-.66l.02-.15c.05-.4.24-.76.54-1.02.33-.28.56-.67.65-1.09.08-.39.36-1.69.6-2.95,2.85.31,4.9-1.33,7.19-3.17Zm1.58,26.66c-1.11-2.16-3.36-3.64-5.95-3.64-.55,0-1.1.07-1.62.19-1.61.39-2.95,1.36-3.85,2.64-.02.02-.04.05-.06.08-.05-1.26.22-2.86,1.23-4.51.46-.77,1.12-1.33,1.73-1.74.95,1.67,2.68,3.36,5.55,3.78,1.4.2,2.86.03,4.43-.53,1.36-.49,3.79-.88,5.17-.84,3.56.12,6.65-.23,9.19-1.03.44-.14.86-.29,1.27-.45-3.24,2.99-7.1,4.74-12.05,5.52-2.39.38-4.03.5-5.04.54Zm-27.54,0c-1-.04-2.64-.16-5.04-.54-4.96-.79-8.82-2.53-12.05-5.52.41.16.84.31,1.28.46,2.53.8,5.61,1.15,9.18,1.03,1.39-.04,3.81.35,5.25.87,1.49.54,2.95.71,4.35.51,2.87-.42,4.6-2.11,5.55-3.78.61.4,1.26.97,1.73,1.74,1,1.65,1.28,3.26,1.23,4.51-.02-.02-.03-.05-.05-.07-.91-1.28-2.24-2.25-3.85-2.65-.52-.13-1.07-.2-1.62-.2-2.59,0-4.83,1.48-5.95,3.65Zm3.91,22.51c.42,0,.75.32.81.72,0,.04-.01.07-.01.11s.01.07.01.11c-.06.4-.39.72-.81.72-.46,0-.83-.37-.83-.83s.37-.83.83-.83Zm3.15.72c.06-.4.39-.72.81-.72.46,0,.83.37.83.83s-.37.83-.83.83c-.42,0-.75-.32-.81-.72,0-.04.01-.07.01-.11s-.01-.07-.01-.11Zm3.55-2.06s.08,0,.12-.01c.1.33.17.76.18,1.36-.14-.51-.39-.96-.74-1.34.15,0,.3,0,.44-.01Zm8.55-19.29c.05-.09.09-.17.14-.26.36-.58.94-1.02,1.64-1.19.2-.05.43-.08.66-.08,1.51,0,2.69,1.19,2.69,2.72s-.52,2.06-1.04,2.4c-.49.33-.65.32-1.2.3-.15,0-.31-.01-.46-.01-1.5,0-2.72-1.21-2.72-2.69,0-.43.1-.83.28-1.19Zm-53.67-15.02c.58-.64,2.33-.82,3.32-.74.77.06,1.52-.32,1.91-.99.39-.67.35-1.51-.1-2.15-.73-1.03-.86-1.69-.73-1.97.26-.59,1.76-1.12,2.71-1.24.73-.08,1.36-.57,1.63-1.25s.14-1.46-.33-2.03c-.84-.99-1.25-1.87-1.09-2.35.21-.64,1.46-1.25,2.27-1.45.79-.18,1.39-.82,1.53-1.62.13-.8-.23-1.6-.92-2.03-.21-.13-.44-.37-.45-.54,0-.28.43-1.11,2.11-2.26,2.97-2.01,7.09-4.29,12.66-3.95,2.66.14,6.81.83,8.74,1.66,3.74,1.59,8.18,4.32,9.36,8.58-1.07,0-2.03-.71-4.02-2.31-1.38-1.11-3.1-2.49-5.42-3.9-4.31-2.62-9.6-3.1-9.83-3.12-.24-.02-.49,0-.72.07-2.25.65-3.93,2.47-4.37,4.75-.23,1.15-.28,2.18-.16,3.04.04.31.09.58.12.83.03.19.07.41.08.55-.11.12-.36.35-.9.77-.86.49-4.21,2.62-4.95,6.46l-.99,2.35c-.08.2-.13.4-.15.61-.12.39-.64,1.61-1.74,2.51l-5.81,3.36c-1.13.59-2.56.74-3.34.36-.24-.12-.48-.31-.58-.87-.14-.81.08-1.05.16-1.14Zm18.81,35.59c-.07.04-.18.1-.35.18-1.06.47-2.93.77-4.91.79-1.79.04-3.54-.17-4.7-.54,0,0,0,0-.01,0,0,0,0,0,0,0-.41-.13-.68-.26-.84-.35-.33-.49-.56-1.2-.09-2.38,1.54-3.82,1.9-7.85,1.04-11.64-.34-1.51-.65-2.61-.9-3.5-.18-.63-.33-1.18-.46-1.74-.19-.95-1.07-1.66-2.04-1.6-1.1.05-1.96.98-1.91,2.08,0,.13.03.28.06.41.14.62.31,1.23.5,1.94.25.89.53,1.89.85,3.3.02.09.03.18.05.27-2.84-2.17-6.4-6.93-4.04-16.59.14,0,.28.02.41.02,1.56,0,3.08-.47,4.21-1.06l3.71-2.14c.15.34.31.67.47.98l-2.73,1.3c-2.83,1.47-3.37,4.06-2.65,5.97.68,1.8,2.39,2.94,4.22,2.94.36,0,.72-.04,1.08-.13.57-.14,1.42-.56,1.87-.8.98-.51,1.36-1.72.85-2.7s-1.72-1.36-2.7-.85c-.38.2-.86.42-.98.46-.42.1-.58-.29-.6-.34-.17-.45.39-.82.68-.98l3.26-1.55c.87,1.04,1.77,2,2.73,2.86.5.68,1.02,2.38,1.12,3.69.11,1.67.05,4.35-.17,7.76,0,.02,0,.04,0,.06-.09,1.45-.21,2.94-.35,4.32-.03.29-.03.58-.02.87-1.74.01-2.97.6-3.07.65-.98.49-1.37,1.66-.9,2.64s1.66,1.4,2.65.95c.2-.09,2.03-.85,4,.79.77.89.99,2.09.65,3.66Zm17.03-14.22c.22.2.46.39.71.56,1.29.87,2.34,1,3.11,1,.17,0,.33,0,.47-.01.1,0,.21,0,.31,0,1.72,0,3.29-.65,4.48-1.72.02,1.04-.17,1.76-.35,2.2-1.63-.21-3.49.03-5.2,1.29-.89.66-1.08,1.91-.42,2.8.66.89,1.91,1.08,2.8.42,1.47-1.09,3.27-.36,3.9-.04.21.26.42.53.56.83.17.36-.03.76-.13.92-.26.42-.69.7-1.09.72-4.4.13-7.79.06-9.28-.21-.11-.02-.27-.06-.44-.1-.03,0-.05-.01-.08-.02-.7-.2-1.71-.66-2.27-1.68-.68-1.24-.38-2.83.08-4.07,1.01-.8,1.95-1.75,2.83-2.86Zm4.62,19.56c-1.54,0-2.9-.72-3.82-1.83.51.34,1.11.54,1.77.54.75,0,1.44-.28,1.98-.72.54.44,1.23.72,1.98.72.84,0,1.61-.34,2.18-.88-.9,1.3-2.4,2.16-4.09,2.16Zm15.63,0c-2.74,0-4.97-2.23-4.97-4.97,0-.77.07-1.28.19-1.66.04,0,.08.01.12.01,1.25.04,2.66.07,4.04.07,1.92,0,3.81-.06,5.21-.21.19.49.37,1.12.37,1.8,0,2.74-2.23,4.97-4.97,4.97Zm7.53-12.63c-.72,1.32-2.19,1.7-2.78,1.81-1.5.26-4.88.33-9.28.21-.41-.01-.83-.29-1.09-.72-.1-.16-.3-.56-.13-.92.14-.3.35-.57.56-.82.63-.31,2.44-1.04,3.9.04.89.66,2.14.47,2.8-.42.66-.89.47-2.14-.42-2.8-1.71-1.26-3.57-1.5-5.19-1.29-.18-.44-.36-1.16-.34-2.19,1.19,1.06,2.75,1.71,4.47,1.71.1,0,.21,0,.31,0,.14,0,.3.01.47.01.78,0,1.82-.12,3.11-1,.26-.17.49-.36.71-.56.87,1.11,1.81,2.06,2.83,2.86.45,1.25.76,2.83.08,4.07Zm27.83-5.46c.02-.11.04-.22.06-.33.32-1.41.6-2.42.85-3.3.2-.71.37-1.32.5-1.93.04-.16.06-.33.06-.49,0-1.1-.9-2-2-2-.98,0-1.79.7-1.96,1.63-.12.55-.27,1.09-.45,1.72-.25.89-.56,1.99-.9,3.5-.35,1.55-.49,3.14-.43,4.74,0,.04,0,.08,0,.12.09,2.27.57,4.56,1.46,6.78.48,1.18.24,1.9-.09,2.38-.17.1-.43.22-.84.35,0,0,0,0,0,0,0,0,0,0-.01,0-1.16.38-2.92.58-4.73.54-1.96-.02-3.83-.32-4.9-.8-.15-.07-.26-.12-.33-.17-.33-1.57-.12-2.77.65-3.66,1.96-1.64,3.79-.89,3.97-.81.99.49,2.19.09,2.68-.9.49-.99.09-2.19-.9-2.68-.09-.05-1.33-.64-3.07-.65.01-.29,0-.58-.02-.87-.14-1.38-.26-2.87-.35-4.31,0-.02,0-.05,0-.07-.22-3.41-.28-6.1-.17-7.74.1-1.34.62-3.04,1.12-3.72.96-.87,1.87-1.82,2.73-2.86l3.2,1.52c.35.18.92.55.75,1.01-.02.04-.18.45-.57.34-.15-.05-.63-.27-1.01-.47-.98-.51-2.19-.13-2.7.85s-.13,2.19.85,2.7c.45.24,1.29.65,1.87.8.36.09.72.13,1.08.13,1.84,0,3.54-1.14,4.22-2.94.72-1.92.19-4.51-2.71-6l-2.67-1.27c.16-.31.32-.64.47-.98l3.79,2.19c1.07.56,2.57,1.02,4.12,1.02.14,0,.28-.01.42-.02,2.35,9.8-1.22,14.53-4.04,16.64Z"/>
  <path d="m68.14,31.85c.36.07.72.11,1.07.11.2,0,.4-.01.6-.04.95,1.26,2.64,2.35,5.67,2.35h.07c2.45-.01,4.56-.85,5.94-2.37,1.24-1.35,1.83-3.15,1.67-5.05-.12-1.4-.77-2.45-1.57-3.21.25.02.49.07.73.2.98.5,2.19.11,2.69-.88.5-.98.11-2.19-.88-2.69-4.36-2.22-7.86,1.5-10.42,4.21-1.64,1.74-3.5,3.71-4.79,3.45-1.08-.21-2.14.48-2.35,1.57-.22,1.08.48,2.14,1.57,2.36Zm6.77-2.51c0,.23-.18.41-.41.41-.11,0-.21-.05-.28-.12.2-.18.4-.36.6-.55.06.07.1.16.1.26Zm3.64-.13c-.14.15-.31.28-.49.41,0-.09.03-.18.03-.27,0-.99-.4-1.89-1.05-2.54.28-.3.56-.58.81-.83.02,0,.04.02.06.02.01,0,1.22.39,1.28,1.19.07.8-.15,1.5-.63,2.02Z"/>
  <path d="m66.93,36.32l.47.13c.18.05.36.08.54.08.87,0,1.68-.58,1.92-1.46.3-1.06-.32-2.17-1.39-2.46l-.47-.13c-1.06-.3-2.17.32-2.46,1.39-.3,1.06.32,2.17,1.39,2.46Z"/>
  <path d="m16.94,85.43c-1.1,0-2,.9-2,2v14.54c0,.53.21,1.04.59,1.42.37.37.88.58,1.41.58h.01l15.95-.09c1.1,0,1.99-.9,1.99-2v-14.02c0-1.1-.9-2-2-2h-10.55c-1.1,0-2,.9-2,2v9.14c0,1.1.9,2,2,2h5.38c1.1,0,2-.9,2-2v-4.04c0-1.1-.9-2-2-2s-2,.9-2,2v2.04h-1.38v-5.14h6.55v10.04l-11.95.07v-12.53c0-1.1-.9-2-2-2Z"/>
  <path d="m45.41,90.96c-1.1,0-2,.9-2,2v4.04c0,1.1.9,2,2,2h5.38c1.1,0,2-.9,2-2v-9.14c0-1.1-.9-2-2-2h-10.55c-1.1,0-2,.9-2,2v14.02c0,1.1.89,1.99,1.99,2l15.95.09h.01c.53,0,1.04-.21,1.41-.58.38-.38.59-.89.59-1.42v-14.54c0-1.1-.9-2-2-2s-2,.9-2,2v12.53l-11.95-.07v-10.04h6.55v5.14h-1.38v-2.04c0-1.1-.9-2-2-2Z"/>
  <path d="m63.75,85.43c-1.1,0-2,.9-2,2v14.54c0,.53.21,1.04.59,1.42.37.37.88.58,1.41.58h.01l15.95-.09c1.1,0,1.99-.9,1.99-2v-14.02c0-1.1-.9-2-2-2h-10.55c-1.1,0-2,.9-2,2v9.14c0,1.1.9,2,2,2h5.38c1.1,0,2-.9,2-2v-4.04c0-1.1-.9-2-2-2s-2,.9-2,2v2.04h-1.38v-5.14h6.55v10.04l-11.95.07v-12.53c0-1.1-.9-2-2-2Z"/>
  <path d="m92.22,90.96c-1.1,0-2,.9-2,2v4.04c0,1.1.9,2,2,2h5.38c1.1,0,2-.9,2-2v-9.14c0-1.1-.9-2-2-2h-10.55c-1.1,0-2,.9-2,2v14.02c0,1.1.89,1.99,1.99,2l15.95.09h.01c.53,0,1.04-.21,1.41-.58.38-.38.59-.89.59-1.42v-14.54c0-1.1-.9-2-2-2s-2,.9-2,2v12.53l-11.95-.07v-10.04h6.55v5.14h-1.38v-2.04c0-1.1-.9-2-2-2Z"/>
</svg>