<?xml version="1.0" encoding="UTF-8"?>
<svg id="Layer_13" data-name="Layer 13" xmlns="http://www.w3.org/2000/svg" viewBox="0 0 120 120">
  <path d="m111.41,58.43c-1.75-2.92-4.03-5.54-6.67-7.67,1.64-3.09,2.69-6.42,3.14-9.93.09-.71-.21-1.41-.78-1.84-2.78-2.11-5.97-3.7-9.31-4.69.33-3.5.03-6.98-.91-10.37-.19-.69-.73-1.22-1.42-1.4-3.36-.88-6.92-1.13-10.38-.76-1.02-3.34-2.63-6.45-4.8-9.23-.44-.56-1.14-.86-1.85-.75-3.45.48-6.83,1.61-9.89,3.27-2.02-2.43-4.45-4.54-7.15-6.2-.37-.46-.93-.77-1.56-.77-.05,0-.1.01-.15.01-.39-.02-.78.06-1.12.26-3.05,1.78-5.69,4.07-7.89,6.81-3.08-1.63-6.47-2.71-9.92-3.14-.72-.09-1.41.21-1.84.78-2.11,2.78-3.71,5.97-4.69,9.3-3.5-.33-6.98-.03-10.37.91-.02,0-.04.02-.05.02-.13.04-.26.09-.38.16-.02.01-.04.02-.06.03-.12.07-.23.16-.34.26-.01,0-.02.02-.03.03-.03.03-.06.07-.09.1-.08.09-.15.18-.21.27-.03.04-.05.09-.07.13-.06.11-.1.22-.14.34,0,.03-.02.05-.03.08,0,.02,0,.04-.01.06,0,0,0,0,0,0-.87,3.35-1.11,6.88-.75,10.32-3.34,1.02-6.44,2.63-9.23,4.8-.56.44-.85,1.14-.75,1.85.47,3.44,1.6,6.82,3.27,9.9-2.69,2.23-4.99,4.96-6.7,7.98-.35.62-.35,1.38.01,1.99,1.78,3.05,4.07,5.69,6.81,7.89-1.63,3.08-2.71,6.47-3.14,9.92-.09.71.21,1.41.78,1.84,2.78,2.11,5.97,3.7,9.31,4.68-.33,3.48-.03,7.03.9,10.38.19.69.73,1.22,1.42,1.4,2.39.62,4.87.94,7.34.94,1.02,0,2.04-.07,3.05-.18,1.03,3.33,2.67,6.5,4.81,9.25.38.49.97.77,1.58.77.09,0,.18,0,.27-.02,3.44-.47,6.82-1.6,9.9-3.27,2.23,2.69,4.9,4.94,7.97,6.69.31.17.65.26.99.26s.7-.09,1.01-.27c3-1.76,5.69-4.09,7.89-6.8,3.08,1.63,6.48,2.7,9.92,3.13.08.01.17.02.25.02.62,0,1.21-.29,1.59-.79,2.11-2.78,3.71-5.97,4.69-9.31.91.09,1.81.14,2.72.14,2.58,0,5.14-.35,7.65-1.04.69-.19,1.22-.73,1.4-1.42.88-3.37,1.14-6.93.77-10.38,3.34-1.02,6.44-2.63,9.23-4.81.56-.44.85-1.15.75-1.85-.48-3.46-1.61-6.84-3.28-9.9,2.41-2,4.5-4.4,6.14-7.04.6-.35,1.01-.99,1.01-1.73,0-.55-.23-1.06-.59-1.42Zm-11.39,3.42h5.89c-1.39,1.75-3.02,3.33-4.84,4.65-.59.43-1.19.82-1.81,1.2-.09.05-.18.11-.27.16-.07.04-.15.08-.22.12-1.49-2.86-3.53-5.42-5.98-7.5.03-.12.05-.24.05-.36.04-.03.07-.06.11-.09,2.68-2.22,4.88-5,6.44-8.14.41.25.81.52,1.2.79.13.09.28.17.41.27,1.94,1.37,3.69,3.04,5.17,4.92h-6.14c-1.1,0-2,.9-2,2s.9,2,2,2Zm-5.95,15.83s0,0,0,0c0,0,0,0,0,0-1.18.52-2.4.92-3.64,1.22,1.66-1.02,3.02-2.55,3.8-4.5.72-1.8.86-3.73.44-5.58.51.85.96,1.74,1.34,2.66,0,0,0,0,0,0,.6,1.44,1.03,2.91,1.3,4.41-1.02.69-2.11,1.28-3.23,1.77Zm-22.5,18.98s0,0,0,0c0,0,0,0,0,0-1.2-.47-2.35-1.05-3.44-1.72.71.17,1.43.28,2.17.28,1.24,0,2.49-.24,3.7-.76,1.78-.76,3.24-2.02,4.25-3.62-.25.95-.55,1.89-.93,2.79,0,0,0,0,0,.01,0,0,0,0,0,0-.57,1.4-1.3,2.76-2.2,4.04-1.21-.24-2.4-.59-3.53-1.03Zm-20.87-1.68c-.26.15-.53.29-.79.42-.11.06-.22.12-.33.17-.38.19-.77.36-1.16.53,0,0,0,0,0,0-1.43.6-2.91,1.03-4.41,1.29-.7-1.05-1.29-2.13-1.77-3.25-.18-.4-.34-.8-.49-1.2-.05-.13-.09-.27-.14-.4-.1-.28-.19-.55-.28-.83-.05-.16-.09-.33-.14-.49-.06-.22-.12-.44-.17-.66,1.05,1.69,2.6,3,4.48,3.75,1.14.46,2.33.67,3.49.67.73,0,1.45-.11,2.15-.28-.01,0-.03.02-.04.03-.14.08-.27.16-.41.24Zm-22.64-16.95c-.21-.06-.41-.13-.62-.2-.34-.12-.68-.25-1.01-.38-.06-.02-.11-.04-.17-.06-1.4-.56-2.75-1.3-4.04-2.2.12-.6.27-1.19.44-1.79.17-.59.37-1.18.59-1.76.16-.41.33-.8.51-1.2.06-.14.14-.27.2-.41.12-.25.25-.51.38-.75.08-.16.18-.31.26-.46.11-.19.22-.38.33-.57-.45,1.94-.29,3.96.51,5.83.78,1.82,2.07,3.26,3.63,4.24-.16-.04-.32-.08-.47-.12-.19-.05-.37-.11-.56-.17Zm-7.48-19.8h-6.73c1.41-1.78,3.06-3.39,4.9-4.72.57-.41,1.17-.8,1.78-1.17.1-.06.19-.12.29-.18.08-.04.16-.08.23-.12.04.08.09.15.14.23.31.57.63,1.13.98,1.68.05.07.09.15.13.22.39.6.81,1.17,1.25,1.73.1.13.21.26.31.39.42.52.86,1.02,1.32,1.51.04.04.08.09.12.13.5.51,1.02,1,1.56,1.46.06.05.12.11.18.17-.03.12-.04.23-.05.35l-.12.1c-.38.31-.74.64-1.1.97-.11.1-.22.21-.32.32-.24.24-.49.48-.72.73-.12.12-.23.25-.35.38-.22.24-.44.49-.65.75-.11.13-.21.25-.31.38-.24.29-.46.59-.69.9-.07.09-.14.18-.2.27-.29.4-.57.82-.83,1.24-.03.05-.06.11-.09.16-.23.37-.44.74-.65,1.11-.07.13-.14.26-.2.38-.1.19-.2.37-.3.56-.5-.3-.99-.62-1.47-.96-.04-.03-.09-.05-.13-.08-1.96-1.38-3.68-3.01-5.14-4.86h6.88c1.1,0,2-.9,2-2s-.9-2-2-2Zm3.52-15.09c.54-.3,1.1-.57,1.67-.82.4-.18.8-.34,1.21-.49.11-.04.23-.07.34-.11.3-.1.6-.21.9-.3.14-.04.28-.07.42-.11.24-.07.49-.13.73-.19-1.65,1.02-3,2.55-3.77,4.48-.71,1.79-.86,3.71-.45,5.55-.07-.12-.14-.24-.21-.36-.14-.24-.27-.49-.4-.74-.06-.12-.13-.25-.19-.37-.18-.38-.36-.76-.52-1.15,0,0,0,0,0,0h0c-.59-1.43-1.03-2.91-1.3-4.42.51-.34,1.04-.66,1.58-.96Zm24.18-19.79c1.18.46,2.32,1.03,3.39,1.69-1.94-.45-3.97-.29-5.83.51-1.81.78-3.26,2.06-4.24,3.62.24-.95.55-1.9.93-2.81,0,0,0,0,0,0,0,0,0,0,0,0,.58-1.42,1.32-2.77,2.2-4.04,1.19.24,2.38.59,3.55,1.03Zm21.65,1.26c.1-.05.21-.11.31-.16.39-.19.78-.37,1.17-.53,0,0,0,0,0,0,1.43-.59,2.91-1.03,4.41-1.29.69,1.04,1.29,2.13,1.78,3.25.17.4.34.8.49,1.21.05.14.09.28.14.42.09.27.19.54.27.81.05.16.09.33.14.5.06.22.12.44.17.65-1.05-1.69-2.6-3.01-4.48-3.76-1.8-.72-3.72-.86-5.57-.44.12-.07.24-.14.36-.21.27-.15.54-.29.82-.43Zm23.62,18s0,0,0,0c1.42.58,2.78,1.32,4.05,2.21-.24,1.2-.59,2.39-1.04,3.56h0c-.46,1.19-1.04,2.33-1.7,3.41.44-1.89.32-3.93-.5-5.85-.76-1.77-2.02-3.23-3.61-4.24.95.24,1.89.55,2.8.92Zm-18.24,45.2c-.54,1.35-1.57,2.4-2.9,2.97-2.48,1.06-5.32.12-6.72-2.1.13-.15.27-.28.39-.43.12-.14.23-.28.36-.45.47-.61.85-1.19,1.16-1.73.63-1.05,1.14-2.14,1.53-3.23,1.87.88,4.12,1.4,6.38,1.56.3,1.12.25,2.3-.19,3.4Zm-27.9-58.58c1.33-.57,2.81-.59,4.15-.05,1.08.43,1.96,1.19,2.56,2.16-.12.14-.26.28-.38.42-.09.1-.17.2-.25.3l-.07.08s-.04.05-.06.08c-.37.49-.79,1.09-1.14,1.7-.67,1.1-1.22,2.3-1.65,3.57-1.14-.57-2.36-1.03-3.66-1.36-.71-.18-1.42-.31-2.12-.4-.1-.02-.2-.03-.3-.04-.06,0-.11,0-.17-.02-.72-2.58.56-5.36,3.09-6.45Zm24.73,50.53c3.45-2.26,5.9-5.29,7.42-7.58.26.72.49,1.45.63,2.22,0,0,0,.03.01.05,0,.02,0,.04.01.06.11.58.18,1.15.21,1.71.07,1.04.03,2.12-.13,3.2-.04.25-.08.5-.13.74-2.41.56-5.6.35-8.03-.41Zm-12.36,8.71s-.09-.06-.13-.1c-.12-.08-.23-.17-.37-.28-.92-.7-1.76-1.52-2.49-2.44-.03-.04-.06-.09-.1-.13-.02-.04-.05-.07-.08-.1-.32-.4-.64-.86-.97-1.42-.24-.4-.46-.81-.66-1.23,1.67.36,3.38.53,5.1.52,1.62-.01,3.21-.19,4.76-.52-.2.43-.43.86-.69,1.29-.24.42-.54.86-.93,1.38-.04.05-.07.1-.07.1,0,0,0,0,0,0-.05.05-.1.11-.15.16-.7.87-1.47,1.63-2.33,2.3-.26.21-.5.39-.76.57-.05-.03-.09-.06-.14-.09Zm-13.82-8.47c-.57.14-1.09.24-1.65.31-.1.01-.19.03-.38.04-1.07.12-2.16.11-3.29-.02-.27-.03-.55-.07-.84-.12-.03,0-.06-.01-.09-.02,0-.02,0-.04-.01-.06-.04-.22-.08-.45-.11-.71-.16-1.2-.17-2.41-.02-3.59,0-.04,0-.08.01-.11,0-.03,0-.06,0-.07.07-.59.18-1.15.33-1.7.11-.46.26-.91.42-1.35,1.8,2.78,4.19,5.17,6.97,6.97-.45.16-.9.31-1.35.43Zm-11.73-16.92c-.85-.68-1.62-1.46-2.3-2.33-.19-.24-.37-.51-.55-.78.14-.2.28-.4.45-.62.72-.94,1.57-1.8,2.54-2.57,0,0,.03-.02.05-.04.02-.01.04-.03.06-.04.47-.36.95-.68,1.43-.97.4-.24.82-.46,1.25-.66-.36,1.66-.53,3.36-.52,5.08.01,1.62.19,3.21.52,4.76-.43-.21-.86-.43-1.28-.68-.46-.27-.9-.57-1.35-.91-.08-.06-.15-.12-.3-.25Zm25.85-31.52s.07.05.1.07c.12.09.24.18.37.29.95.72,1.8,1.56,2.53,2.5.02.02.04.05.07.08.02.03.05.06.07.09.34.42.65.88.96,1.39.25.41.46.83.66,1.25-1.61-.35-3.26-.52-4.93-.52-.05,0-.11,0-.16,0-1.42.01-2.82.15-4.19.41-.03,0-.06.01-.09.02-.16.03-.33.06-.49.09.21-.44.44-.87.7-1.29.27-.46.6-.93.89-1.32l.07-.08s.06-.08.06-.08c0,0,0,0,0,0,.05-.05.11-.11.15-.17.66-.84,1.44-1.61,2.3-2.28.27-.21.52-.4.78-.57.05.04.11.07.16.11Zm13.8,8.44c.57-.14,1.1-.24,1.64-.31.09-.01.19-.03.36-.04,1.06-.12,2.17-.12,3.27,0,.33.04.65.11.97.17.05.24.09.48.12.76.15,1.16.16,2.37.02,3.58,0,.05-.01.1-.02.16,0,.02,0,.04,0,.06-.08.58-.19,1.13-.32,1.65-.12.47-.26.93-.42,1.37-1.8-2.78-4.19-5.18-6.98-6.98.45-.16.9-.31,1.36-.43Zm-9.21,1.34c.67.17,1.32.37,1.97.61-.13.44-.51.76-.98.76-.58,0-1.04-.47-1.04-1.04,0-.11.02-.22.06-.33Zm-8.94-.15c.11.11.17.26.18.47,0,.58-.47,1.04-1.04,1.04s-1-.44-1.03-.99c.62-.21,1.25-.38,1.89-.53Zm-5.58,2.21c.71,1.92,2.55,3.31,4.71,3.31,2.78,0,5.04-2.26,5.04-5.05,0-.27-.04-.59-.12-.94.3,0,.6.03.9.04-.05.3-.09.6-.09.9,0,2.78,2.26,5.04,5.04,5.04,2.02,0,3.78-1.22,4.58-2.97,3.29,2.1,5.93,5.17,7.46,8.77.01.03.04.06.06.09.02.05.02.09.04.14.46,1.11.8,2.26,1.04,3.43-.73-.42-1.57-.67-2.47-.67-2.78,0-5.04,2.26-5.04,5.04s2.26,5.04,5.04,5.04c.77,0,1.5-.19,2.15-.5-.2.73-.43,1.46-.72,2.17-.08.17-.68,1.44-1.82,3.1,0-.1.03-.2.03-.3,0-2.78-2.26-5.04-5.04-5.04s-5.04,2.26-5.04,5.04,2.26,5.04,5.04,5.04c.3,0,.59-.04.87-.09-.62.52-1.27,1.03-1.99,1.48-.91-1.35-2.44-2.23-4.18-2.23-2.76,0-5.01,2.24-5.04,5-.19,0-.37.03-.56.03-.05,0-.1,0-.14,0-.01-2.77-2.27-5.02-5.04-5.02-1.87,0-3.49,1.04-4.36,2.56-1.1-.62-2.14-1.35-3.1-2.18.63.28,1.33.45,2.06.45,2.78,0,5.04-2.26,5.04-5.04s-2.26-5.04-5.04-5.04-5.04,2.26-5.04,5.04c0,.66.14,1.29.37,1.87-1.07-1.35-1.98-2.84-2.65-4.44,0,0,0-.01-.01-.02,0,0,0-.02,0-.02,0-.03-.03-.06-.04-.09-.01-.03-.01-.06-.02-.09-.34-.84-.61-1.7-.83-2.57.81.56,1.8.89,2.86.89,2.78,0,5.04-2.26,5.04-5.04s-2.26-5.04-5.04-5.04c-1.2,0-2.28.44-3.15,1.14.24-1.33.6-2.64,1.12-3.91,0-.01,0-.02,0-.04,0-.01.01-.02.02-.03.02-.05.04-.1.06-.15,0,0,0,0,0,0,1.61-3.8,4.47-7.01,8.01-9.11Zm27.24,17.14c0,.58-.47,1.04-1.04,1.04s-1.04-.47-1.04-1.04.47-1.04,1.04-1.04,1.04.47,1.04,1.04Zm-5.4,9.51c0,.58-.47,1.04-1.04,1.04s-1.04-.47-1.04-1.04.47-1.04,1.04-1.04,1.04.47,1.04,1.04Zm-17.68,8.39c.16-.11.35-.19.56-.19.39,0,.73.23.9.55-.49-.11-.98-.22-1.46-.37Zm-5.88-8.39c0-.58.47-1.04,1.04-1.04s1.04.47,1.04,1.04-.47,1.04-1.04,1.04-1.04-.47-1.04-1.04Zm-5.38-9.51c0-.58.47-1.04,1.04-1.04s1.04.47,1.04,1.04-.47,1.04-1.04,1.04-1.04-.47-1.04-1.04Zm-2.7-13.15c-.16-.44-.31-.89-.42-1.34-.14-.56-.24-1.11-.32-1.7,0-.07-.02-.14-.03-.21,0-.04,0-.09-.01-.13-.12-1.07-.12-2.13,0-3.24.04-.33.11-.65.17-.97.24-.04.48-.08.75-.12,1.2-.16,2.41-.16,3.58-.02.04,0,.07,0,.11.01.02,0,.05,0,.07.01.56.07,1.11.17,1.67.31.47.12.93.26,1.38.42-2.78,1.8-5.17,4.19-6.98,6.97Zm24.52,31.23c.19-.22.46-.37.78-.37.1,0,.18.03.27.06-.35.11-.7.22-1.05.31Zm17.8-13.68c.36-1.67.54-3.37.52-5.1-.01-1.62-.18-3.21-.52-4.76.43.2.85.43,1.26.68.48.28.93.59,1.38.93.06.05.13.1.2.16.03.03.07.06.1.09.86.69,1.62,1.46,2.29,2.31.2.25.39.51.58.78-.15.22-.31.43-.45.62-.74.96-1.6,1.82-2.56,2.58,0,0-.03.03-.06.05-.02.01-.03.02-.05.04-.47.36-.95.69-1.43.97-.4.24-.82.47-1.25.67Zm5.92-10.71c-.14-.12-.27-.26-.42-.38-.15-.13-.29-.24-.43-.35-.54-.42-1.13-.82-1.74-1.18-1.15-.69-2.35-1.24-3.56-1.65.57-1.14,1.03-2.36,1.36-3.65.17-.69.31-1.39.41-2.13,0-.04,0-.08.01-.12,0-.02,0-.05,0-.07,0-.01,0-.02,0-.04,0-.08.01-.15.02-.23,1.14-.32,2.35-.28,3.47.17,1.35.54,2.4,1.57,2.97,2.9,1.07,2.49.12,5.33-2.1,6.73Zm-12.47-18.61c-.2.02-.4.03-.6.05-.19.01-.39.04-.55.06-.66.08-1.33.21-2.06.39-.66.17-1.3.37-1.93.6-.21.08-.41.18-.62.27-.37.15-.75.3-1.1.48-.01-.04-.03-.07-.04-.11-.19-.56-.41-1.12-.66-1.66-.02-.03-.03-.06-.05-.1-.27-.57-.56-1.13-.89-1.67-.37-.63-.76-1.2-1.19-1.73-.09-.14-.18-.25-.26-.33-.02-.02-.04-.05-.06-.07.58-1.04,1.46-1.87,2.58-2.35,1.33-.57,2.81-.59,4.15-.05,2.5,1,3.84,3.66,3.28,6.21Zm-40.57,8.19c.01.2.03.39.05.59.01.16.03.32.06.54.09.67.22,1.36.39,2.08.16.65.37,1.29.6,1.91.08.21.18.41.26.62.15.38.3.76.48,1.12-.41.14-.79.31-1.18.48-.2.09-.41.16-.61.25-.61.28-1.19.59-1.74.92-.59.35-1.18.75-1.76,1.19-.08.05-.15.11-.21.17-.06.04-.11.09-.16.14-1.04-.58-1.87-1.46-2.35-2.58-.57-1.33-.59-2.81-.05-4.15,1-2.51,3.68-3.85,6.23-3.27Zm-6.45,24.54c.43-1.08,1.19-1.96,2.16-2.57.17.14.32.3.49.44.13.11.26.22.37.29.55.43,1.14.83,1.72,1.17.29.18.59.35.89.51.1.05.19.1.29.15.2.1.41.21.62.31.12.06.25.11.37.16.18.08.37.16.55.23.13.05.26.09.39.14.15.05.29.11.44.16-.02.03-.03.07-.05.1-.26.53-.5,1.08-.71,1.64-.01.03-.02.06-.03.09-.21.59-.4,1.18-.55,1.79-.18.69-.33,1.44-.41,2.14-.02.11-.03.21-.04.32,0,.06,0,.11-.02.17-2.58.72-5.36-.56-6.45-3.08-.57-1.33-.59-2.81-.05-4.15Zm14.64,16.02c.19-.01.38-.01.57-.03.19-.01.37-.04.57-.06.67-.09,1.35-.21,2.07-.39.59-.15,1.18-.34,1.76-.55.04-.01.07-.02.11-.04.56-.21,1.11-.45,1.65-.71.04-.02.08-.03.12-.05.13.39.3.76.45,1.14.09.21.16.43.26.64.28.61.59,1.19.93,1.75.39.65.78,1.22,1.18,1.74.07.1.14.19.2.26.04.05.09.1.13.16-1.31,2.34-4.19,3.4-6.74,2.38-1.35-.54-2.4-1.57-2.97-2.9-.46-1.07-.54-2.22-.29-3.33Zm40.7-8.14c0-.09,0-.19,0-.28-.04-.69-.13-1.4-.26-2.12-.01-.09-.03-.18-.05-.24-.29-1.49-.77-2.96-1.43-4.35,1.16-.42,2.28-.92,3.28-1.53.59-.35,1.18-.75,1.77-1.2.07-.05.14-.11.2-.16.06-.05.12-.1.18-.15,1.04.58,1.86,1.46,2.34,2.57.57,1.33.59,2.81.05,4.15-.98,2.46-3.57,3.8-6.08,3.31Zm17.01-27.78s-.04-.02-.06-.04c-.01,0-.02-.01-.03-.02-.15-.09-.31-.18-.46-.27.4-1.29.69-2.59.88-3.9.1-.71-.18-1.41-.75-1.85-1.33-1.04-2.75-1.94-4.24-2.69.04-.14.07-.27.11-.41.07-.24.13-.49.19-.73.02-.09.05-.17.07-.26,2.34.74,4.57,1.83,6.59,3.21-.42,2.44-1.19,4.76-2.29,6.95Zm-10.47-22.69l-4.8,4.8c-.78.78-.78,2.05,0,2.83.39.39.9.59,1.41.59s1.02-.2,1.41-.59l4.73-4.73c.27,2.26.24,4.54-.12,6.83,0,0,0,0,0,0-.06.42-.14.84-.23,1.26-.03.15-.07.29-.1.44-.06.27-.13.54-.2.8-.02.06-.03.12-.05.18-2.45-.77-5-1.16-7.52-1.16-.68,0-1.36.03-2.03.08-.06-.09-.13-.18-.21-.27,0-.06,0-.11.01-.17,0,0,0,0,0,0,0,0,0,0,0,0,0-.02,0-.04,0-.06.04-.46.07-.93.08-1.39,0-.16,0-.33,0-.49,0-.33,0-.65,0-.98,0-.19-.01-.37-.02-.56-.02-.31-.04-.62-.06-.93-.02-.18-.03-.36-.05-.54-.04-.34-.08-.68-.13-1.02-.02-.14-.04-.29-.06-.43-.08-.47-.17-.95-.28-1.42-.03-.11-.06-.22-.08-.34-.09-.36-.18-.72-.28-1.08-.05-.17-.1-.34-.16-.51-.06-.18-.11-.36-.17-.54.55-.14,1.11-.25,1.67-.35.07-.01.14-.03.2-.04,2.31-.4,4.69-.46,7.02-.2Zm-13.16-9.82c1.42,2.02,2.53,4.2,3.29,6.53-.03,0-.06.02-.1.03-.03,0-.05.01-.08.02-.15.04-.3.08-.45.12-.05-.09-.11-.18-.16-.28-.22-.4-.44-.79-.68-1.18-.09-.15-.18-.3-.28-.45-.32-.5-.66-1-1.02-1.48-.1-.14-.22-.25-.35-.36-.03-.03-.07-.05-.11-.07-.1-.07-.21-.14-.32-.19-.04-.02-.09-.03-.13-.05-.11-.04-.22-.07-.34-.1-.05,0-.11-.01-.16-.02-.06,0-.12-.02-.19-.02-.08,0-.16,0-.23.01-.51.06-1.01.14-1.51.23-.15.03-.3.06-.45.09-.38.08-.75.16-1.13.26-.14.03-.28.07-.42.1-.47.13-.94.26-1.4.42-.12-.22-.25-.42-.37-.63-.06-.1-.12-.21-.18-.31-.06-.1-.11-.2-.17-.3,2.17-1.12,4.52-1.94,6.93-2.39Zm-20-2.24v6.38c0,1.1.9,2,2,2s2-.9,2-2v-6.02c1.74,1.39,3.3,3,4.6,4.78.41.56.8,1.16,1.17,1.78.06.1.12.19.18.29.04.08.08.16.12.23-.08.04-.16.1-.24.14-.57.3-1.13.63-1.67.97-.08.05-.16.09-.23.14-.6.39-1.17.81-1.73,1.25-.13.1-.26.21-.39.31-.51.42-1.02.85-1.49,1.31-.05.04-.09.08-.14.13-.51.49-.99,1.02-1.45,1.55-.05.06-.11.12-.17.18-.11-.03-.22-.04-.33-.05l-.1-.12c-2.23-2.68-5.02-4.87-8.15-6.43.3-.5.62-.99.95-1.47.03-.04.06-.09.09-.13,1.42-2.01,3.09-3.75,4.99-5.24Zm-16.41,2.49c2.41.42,4.76,1.2,6.95,2.3-.01.02-.03.04-.04.07-.01.02-.03.05-.04.07-.08.14-.16.27-.24.41-1.29-.4-2.59-.69-3.9-.88-.71-.1-1.42.19-1.86.75-1.04,1.33-1.93,2.75-2.67,4.23-.14-.04-.29-.07-.43-.11-.24-.07-.49-.13-.73-.19-.08-.02-.16-.05-.25-.06.74-2.33,1.83-4.56,3.21-6.58Zm-6.01,10.11c.42.06.84.14,1.26.23.14.03.27.06.4.09.29.07.58.13.86.21.05.01.1.03.16.04-.97,3.08-1.34,6.33-1.08,9.55-.1.06-.19.13-.28.21-.05,0-.11,0-.16-.01-.49-.04-.97-.07-1.46-.09-.16,0-.32,0-.48,0-.33,0-.66,0-.99,0-.18,0-.36.01-.55.02-.32.02-.63.04-.94.06-.18.02-.36.03-.54.05-.35.04-.69.08-1.04.14-.14.02-.27.04-.41.06-.48.08-.96.17-1.43.28-.09.02-.18.05-.27.07-.39.09-.77.19-1.15.3-.15.04-.3.09-.46.14-.19.06-.39.11-.58.18-.13-.52-.24-1.06-.34-1.6-.02-.09-.04-.18-.06-.28-.38-2.21-.44-4.48-.22-6.72l3.86,4.11c.39.42.92.63,1.46.63.49,0,.98-.18,1.37-.54.81-.76.85-2.02.09-2.83l-4.13-4.4c2.35-.31,4.73-.28,7.11.09Zm-13.02,12.51s.02.07.03.1c0,.02.01.05.02.07.04.15.08.3.12.45-.09.05-.18.11-.27.16-.41.22-.82.46-1.22.71-.14.09-.29.18-.43.27-.5.32-1,.66-1.47,1.02-.57.43-.87,1.13-.78,1.84.06.51.15,1.01.24,1.52.03.14.06.29.09.43.08.39.17.77.26,1.15.03.13.06.26.1.39.13.47.26.94.42,1.4-.22.12-.43.25-.64.37-.1.06-.2.12-.3.17-.1.06-.21.12-.31.18-1.13-2.18-1.94-4.54-2.39-6.93,2.02-1.43,4.2-2.53,6.54-3.29Zm-3.99,32.76s.05.03.08.04c.02.01.04.02.05.03.14.08.28.16.42.24-.03.1-.05.2-.08.3-.13.45-.26.91-.36,1.37-.04.16-.08.32-.11.48-.13.58-.24,1.17-.32,1.75-.1.71.19,1.42.75,1.86.42.32.84.63,1.27.92.12.08.24.16.37.24.34.22.67.43,1.02.64.11.07.22.14.34.2.41.24.82.46,1.25.67-.04.13-.07.26-.1.39-.07.25-.14.5-.2.75-.02.08-.05.17-.07.25-2.33-.73-4.57-1.82-6.59-3.21.42-2.41,1.2-4.76,2.3-6.95Zm10.86,22.71l4.54-4.54c.78-.78.78-2.05,0-2.83s-2.05-.78-2.83,0l-4.82,4.82c-.32-2.39-.3-4.84.08-7.23.07-.43.14-.85.23-1.27.03-.14.06-.28.1-.41.06-.28.13-.55.2-.82.01-.06.03-.11.05-.16.05.01.09.03.14.04.2.06.39.12.59.17.2.06.4.11.6.17.19.05.38.09.57.14.21.05.42.1.63.14.18.04.37.07.55.1.22.04.44.08.66.11.18.03.36.05.53.07.23.03.45.06.68.08.17.02.35.03.52.05.23.02.46.04.69.05.17,0,.35.01.52.02.23,0,.46.02.69.02.05,0,.11,0,.16,0,.1,0,.2,0,.29,0,.29,0,.59-.01.88-.03.17,0,.34-.02.5-.03.12,0,.24-.01.36-.02.06.09.13.18.21.27,0,.05,0,.11-.01.16-.05.49-.07.98-.09,1.47,0,.16,0,.31,0,.47,0,.34,0,.67,0,1.01,0,.18.01.36.02.54.02.32.04.63.06.94.02.18.03.37.05.55.04.33.08.66.13.99.02.16.04.31.07.47.08.47.17.93.27,1.39.03.15.07.29.11.44.08.33.16.65.26.98.05.19.11.37.17.56.05.17.1.34.16.51-.54.14-1.08.25-1.63.34-.08.02-.17.04-.25.05-2.17.37-4.41.44-6.63.22Zm12.77,9.81c-1.41-2-2.52-4.22-3.29-6.54.03,0,.05-.01.08-.02.01,0,.02,0,.04,0,.17-.04.34-.09.51-.13.05.09.11.18.16.27.21.39.44.79.68,1.17.09.15.18.3.28.44.32.5.66,1,1.02,1.48.1.14.22.25.35.36.04.03.09.06.13.08.09.06.19.12.29.17.05.03.11.04.17.06.1.03.2.07.3.08.06.01.13.02.19.02.06,0,.11.02.17.02.08,0,.16,0,.24-.01.51-.06,1.02-.14,1.52-.24.14-.03.27-.05.41-.08.39-.08.78-.17,1.17-.27.13-.03.25-.06.38-.09.47-.13.95-.26,1.41-.42.07.13.15.25.22.38.12.22.25.44.38.65.05.07.09.15.13.23-2.18,1.13-4.53,1.94-6.93,2.39Zm20.2,2.06v-6.91c0-1.1-.9-2-2-2s-2,.9-2,2v6.91c-1.82-1.42-3.42-3.08-4.8-4.96-.42-.58-.82-1.19-1.19-1.81-.06-.09-.11-.18-.17-.27-.04-.07-.08-.15-.12-.23.08-.04.15-.09.23-.14.57-.31,1.13-.63,1.68-.98.07-.05.15-.09.22-.13.59-.39,1.17-.81,1.73-1.25.13-.1.26-.21.39-.32.51-.42,1.01-.85,1.49-1.31.05-.04.1-.08.14-.13.51-.49.99-1.01,1.45-1.55.06-.06.12-.12.18-.19.12.03.23.04.35.05.03.04.06.08.1.11,2.23,2.68,5.02,4.87,8.15,6.43-.33.55-.68,1.09-1.04,1.61,0,0,0,0,0,0-1.34,1.89-2.96,3.6-4.78,5.05Zm16.2-2.31c-2.4-.42-4.76-1.19-6.95-2.29.01-.02.02-.04.04-.06,0,0,0-.02.01-.02.09-.15.18-.31.27-.47,1.26.39,2.57.68,3.9.87.71.1,1.42-.19,1.86-.75,1.05-1.34,1.94-2.76,2.68-4.23.14.04.28.07.42.11.24.07.48.13.73.19.09.02.17.05.26.07-.74,2.33-1.83,4.56-3.21,6.59Zm6.01-10.11c-.43-.07-.85-.15-1.27-.23-.13-.03-.25-.06-.38-.09-.29-.07-.58-.14-.87-.21-.05-.01-.11-.03-.16-.05.98-3.09,1.35-6.36,1.09-9.55.1-.06.19-.13.28-.21.05,0,.1,0,.15.01,3.47.33,7-.1,10.31-1.22.14.57.26,1.14.36,1.7.01.06.03.12.04.18.39,2.26.45,4.59.2,6.89l-4.72-4.72c-.78-.78-2.05-.78-2.83,0-.78.78-.78,2.05,0,2.83l4.77,4.77c-2.3.29-4.63.25-6.97-.11Zm13.03-12.51s-.01-.05-.02-.08c0-.01,0-.03-.01-.04-.04-.17-.09-.34-.13-.51,1.18-.62,2.31-1.34,3.38-2.15.57-.43.87-1.13.78-1.83-.2-1.65-.56-3.29-1.1-4.89.12-.07.24-.14.35-.21.23-.13.45-.26.67-.39.07-.04.15-.08.22-.13,1.13,2.17,1.94,4.52,2.4,6.93-2.02,1.43-4.21,2.53-6.54,3.29Z"/>
  <path d="m44.42,51.29c0,2.78,2.26,5.04,5.04,5.04s5.04-2.26,5.04-5.04-2.26-5.04-5.04-5.04-5.04,2.26-5.04,5.04Zm5.04-1.04c.58,0,1.04.47,1.04,1.04s-.47,1.04-1.04,1.04-1.04-.47-1.04-1.04.47-1.04,1.04-1.04Z"/>
  <path d="m60.16,56.33c2.78,0,5.04-2.26,5.04-5.04s-2.26-5.04-5.04-5.04-5.04,2.26-5.04,5.04,2.26,5.04,5.04,5.04Zm0-6.08c.58,0,1.04.47,1.04,1.04s-.47,1.04-1.04,1.04-1.04-.47-1.04-1.04.47-1.04,1.04-1.04Z"/>
  <path d="m49.82,60.54c0,2.78,2.26,5.04,5.04,5.04s5.04-2.26,5.04-5.04-2.26-5.04-5.04-5.04-5.04,2.26-5.04,5.04Zm5.04-1.04c.58,0,1.04.47,1.04,1.04s-.47,1.04-1.04,1.04-1.04-.47-1.04-1.04.47-1.04,1.04-1.04Z"/>
  <path d="m60.6,60.54c0,2.78,2.26,5.04,5.04,5.04s5.04-2.26,5.04-5.04-2.26-5.04-5.04-5.04-5.04,2.26-5.04,5.04Zm5.04-1.04c.58,0,1.04.47,1.04,1.04s-.47,1.04-1.04,1.04-1.04-.47-1.04-1.04.47-1.04,1.04-1.04Z"/>
  <path d="m70.94,56.33c2.78,0,5.04-2.26,5.04-5.04s-2.26-5.04-5.04-5.04-5.04,2.26-5.04,5.04,2.26,5.04,5.04,5.04Zm0-6.08c.58,0,1.04.47,1.04,1.04s-.47,1.04-1.04,1.04-1.04-.47-1.04-1.04.47-1.04,1.04-1.04Z"/>
  <path d="m60.16,65.01c-2.78,0-5.04,2.26-5.04,5.04s2.26,5.04,5.04,5.04,5.04-2.26,5.04-5.04-2.26-5.04-5.04-5.04Zm0,6.09c-.58,0-1.04-.47-1.04-1.04s.47-1.04,1.04-1.04,1.04.47,1.04,1.04-.47,1.04-1.04,1.04Z"/>
</svg>