<?xml version="1.0" encoding="UTF-8"?>
<svg id="Layer_13" data-name="Layer 13" xmlns="http://www.w3.org/2000/svg" viewBox="0 0 120 120">
  <path d="m111.52,19c-.15-1.04-1.08-1.78-2.14-1.71-6.08.48-11.98,3.55-16.19,8.41-4.24,4.9-6.21,10.98-5.39,16.69.14.99.99,1.72,1.98,1.72.05,0,.11,0,.16,0,6.1-.49,12-3.56,16.2-8.41,4.25-4.9,6.21-10.99,5.38-16.7Zm-8.41,14.08c-3.05,3.53-7.16,5.92-11.5,6.76,0-3.97,1.62-8.08,4.6-11.52,3.06-3.54,7.17-5.94,11.49-6.77.01,3.97-1.61,8.08-4.59,11.53Z"/>
  <path d="m31.52,73.95c-.07.03-.13.07-.19.11-.02.01-.04.01-.05.02,0,0-.02.01-.03.02-.27.18-.49.41-.65.68-.02.03-.03.06-.05.1-.05.11-.1.21-.13.33-.01.04-.03.09-.04.13-.03.13-.05.26-.05.39,0,.02,0,.04,0,.06v15.82c0,11.25,9.15,20.4,20.4,20.4h35.02c5.45,0,10.58-2.12,14.43-5.98,3.85-3.86,5.97-8.98,5.97-14.43v-14.34c0-.18-.02-.35-.06-.52,0-.01,0-.03-.01-.04-.04-.14-.09-.27-.16-.4,0-.02-.02-.03-.03-.05-.15-.27-.35-.51-.63-.69l-6.61-4.41v-.07c.32-.16.64-.34.98-.51.19-.1.38-.23.54-.37,1.02-.85,1.46-2.15,1.19-3.47-.28-1.38-1.29-2.48-2.62-2.87l-.09-.03v-9.88c0-3.52-2.87-6.39-6.45-6.39h-7.1v-10.69c0-3.12-2.54-5.66-5.66-5.66h-2.16v-.82c0-3.1-2.52-5.62-5.62-5.62h-6.14c-3.19,0-5.78,2.59-5.78,5.78v3.35c-.17-.01-.35-.03-.52-.03h-6.13c-2.57,0-4.73,1.79-5.3,4.19l-2.23-2.91c-.73-7.51-4.52-14.77-10.48-19.99-6.18-5.42-13.86-7.95-21.08-6.95-.04,0-.07.02-.11.03-.07.01-.13.03-.2.05-.06.02-.12.04-.17.07-.06.02-.12.05-.18.08-.06.03-.11.07-.17.11-.05.03-.1.06-.15.1-.06.05-.12.1-.17.16-.03.03-.06.05-.09.08,0,0-.01.02-.02.03-.05.06-.1.13-.15.21-.03.04-.05.08-.08.12-.04.07-.07.15-.1.23-.02.04-.04.08-.05.12-.04.11-.06.22-.07.34,0,.01,0,.02,0,.03-.01.1-.01.2,0,.3,0,.03,0,.06,0,.09,0,0,0,0,0,0,.56,7.71,4.41,15.21,10.55,20.59,5.3,4.64,11.7,7.17,17.97,7.17.64,0,1.28-.04,1.91-.09l1.05,1.37-1.25.53c-4.65-2.16-10.19-2.53-15.36-.97-5.55,1.68-9.95,5.34-12.07,10.06-.43.96-.04,2.1.9,2.59,2.97,1.56,6.34,2.35,9.77,2.35,2.17,0,4.37-.32,6.49-.96,5.26-1.59,9.45-4.97,11.67-9.32l2.36-.99,1.36,1.78v3.1s-3.4,0-3.4,0c-3.24,0-5.87,2.51-5.87,5.59v8.47c-1.9.92-2.92,2.13-2.99,3.62-.05.95.32,2.69,2.99,4.2v1.48l-6.86,3.04Zm-.42-24.8h0c-3.8,1.15-7.85,1.04-11.38-.27,1.86-2.81,4.9-4.99,8.6-6.11,3.82-1.16,7.86-1.05,11.38.26-1.86,2.82-4.9,5-8.61,6.12Zm22.83,8h4.07c.96,0,1.75.78,1.75,1.75v13.25c-2.47-.44-5.11-1.1-8.1-2.01v-3.9c.7,0,1.33-.01,1.71,0,.16.04.32.06.49.06.1,0,.19,0,.29-.02,1.29-.19,1.89-1.23,1.81-2.17-.16-1.91-1.65-1.9-4.13-1.86-.06,0-.12,0-.17,0v-2.8c0-1.26,1.02-2.28,2.28-2.28Zm15.63,3.56h2.45c.71,0,1.29.58,1.29,1.29v.85c-.11,0-.22,0-.33,0-.92.01-1.84.04-1.84.04-1.1.03-1.98.95-1.95,2.05.03,1.1.99,1.98,2.05,1.95.69-.02,1.43-.04,2.06-.04v6.04c-.79.04-1.56.07-2.11.07-2.76,0-5.15-.06-7.43-.27v-1.92c.67,0,1.26-.01,1.62,0,.16.04.32.06.49.06.1,0,.19,0,.29-.02,1.29-.19,1.89-1.24,1.81-2.17-.16-1.91-1.65-1.89-4.13-1.86-.03,0-.05,0-.08,0v-6.06h5.81Zm1.76,21.76c-.66.01-1.33.01-1.99.01-.38,0-.77,0-1.15-.01-.72-.01-1.43-.04-2.15-.07-.33-.01-.66-.02-.98-.04-.43-.02-.86-.07-1.29-.1v-5.55c2.31.2,4.7.24,7.43.24.59,0,1.33-.03,2.11-.07v5.52c-.28.01-.55.03-.83.04-.38.01-.77.02-1.15.03Zm-11.57-5.8l-2.48-.16c-1.1-.06-2.05.76-2.12,1.87-.07,1.1.76,2.05,1.87,2.12l2.73.18v1.2c-.1-.01-.21-.02-.31-.03-1.22-.15-2.44-.32-3.65-.53-.19-.03-.37-.07-.56-.1-1.03-.18-2.06-.39-3.08-.61-.17-.04-.33-.08-.5-.11v-6.18c2.94.86,5.59,1.48,8.1,1.9v.47Zm25.64,4.34c-.26.05-.52.1-.78.15-.36.06-.71.13-1.07.19-.58.1-1.17.19-1.75.27-.35.05-.69.1-1.04.15-.63.08-1.27.16-1.9.23-.3.03-.6.07-.89.1-.22.02-.44.03-.66.05v-.72l2.86-.18c1.1-.07,1.94-1.02,1.87-2.12s-1.01-1.94-2.12-1.87l-2.61.16v-.78c3.02-.24,5.51-.83,8.1-1.46v5.83Zm9.27-2.33c-.12.04-.25.08-.37.12-.54.17-1.08.33-1.63.49-.27.08-.54.16-.81.24-.67.19-1.35.36-2.03.53-.14.03-.28.07-.42.11v-5.96c1.77-.45,3.53-.97,5.27-1.56v6.04Zm-11.55-21.53h.92c.74,0,1.37.51,1.37,1.12v2.01c-.16,0-.3,0-.47,0-1.06.01-2.13.04-2.13.04-1.1.02-1.98.94-1.95,2.04.02,1.1.96,2.01,2.04,1.95.83-.02,1.76-.03,2.51-.04v6.79c-.2.05-.41.1-.61.15-2.55.63-4.8,1.18-7.49,1.42v-10.63c0-1.41-.56-2.69-1.47-3.64l-.02-1.17s.06-.04.14-.04h7.16Zm-35.46,22.36c-.15-.04-.3-.09-.45-.13-.66-.19-1.31-.38-1.97-.58-.29-.09-.58-.19-.87-.28-.53-.17-1.06-.34-1.58-.53-.13-.05-.27-.1-.4-.14v-5.67s0,0,0-.01v-.94c1.76.69,3.55,1.29,5.27,1.84v6.44Zm-9.27-3.19c-.41-.17-.81-.33-1.21-.51l1.21-.54v1.04Zm63.77,15.27h0c0,4.38-1.7,8.5-4.8,11.6-3.1,3.1-7.22,4.81-11.6,4.81h-35.02c-9.04,0-16.4-7.36-16.4-16.4v-12.66c1.76.79,3.55,1.53,5.35,2.2.77.29,1.54.56,2.32.83,0,0,.02,0,.02,0,2.34.79,4.73,1.48,7.14,2.06,4.04.99,8.21,1.69,12.38,2.08,1.25.12,2.51.21,3.78.27.48.02.97.03,1.45.05.8.03,1.59.05,2.38.06.2,0,.4.01.6.01.53,0,1.05-.02,1.58-.03.31,0,.62,0,.92-.02,1.01-.03,2.01-.07,2.99-.14.05,0,.11,0,.16,0,4.16-.26,8.32-.83,12.38-1.7,3.26-.68,6.45-1.55,9.49-2.59,1.65-.55,3.28-1.15,4.87-1.79v11.35Zm-2.2-14.78c-.43.17-.86.32-1.3.48v-1.34l1.3.86Zm-7.68-25.26c1.32,0,2.39,1.07,2.39,2.39v14.46c-1.74.63-3.5,1.2-5.27,1.68v-12.97c0-2.18-1.84-3.96-4.11-3.96h-.17v-1.6h7.16Zm-11.16-14.69v9.61c-.5-.02-1.06-.02-1.68,0-1.06.01-2.13.04-2.13.04-1.1.02-1.98.94-1.95,2.04.02,1.1.96,2.03,2.04,1.95,1.32-.03,2.87-.05,3.58-.04.05.01.1,0,.14.02v2.69h-5.16c-.28,0-.54.03-.8.08-.09.02-.17.05-.26.07-.17.04-.33.08-.49.15-.1.04-.19.09-.28.14-.13.07-.27.13-.4.21-.1.06-.18.13-.27.2-.11.08-.23.17-.33.26-.08.08-.16.16-.23.25-.09.1-.18.2-.27.31-.07.09-.13.19-.19.29-.07.11-.14.23-.2.35-.05.1-.09.21-.13.32-.05.13-.09.25-.13.39-.03.11-.05.23-.07.35-.01.07-.04.14-.04.21h-.29v-13.97c.67,0,1.26-.01,1.62,0,.16.04.32.06.49.06.1,0,.19,0,.29-.02,1.29-.19,1.89-1.24,1.81-2.17-.16-1.91-1.66-1.88-4.13-1.86-.03,0-.05,0-.08,0v-1.66c0-1.04.84-1.88,1.88-1.88h6.01c.91,0,1.66.74,1.66,1.66Zm-17.36-6.32c0-.98.8-1.78,1.78-1.78h6.14c.9,0,1.62.73,1.62,1.62v.82c-3.17.08-5.73,2.69-5.73,5.88v19.63h-2.35v-16.87c0-1.5-.56-2.87-1.47-3.92,0-.02,0-.04,0-.07v-5.33Zm-10.56,7.33h6.04c1.09,0,1.98.89,1.98,1.98v1.9l-2.28-.04h-.03c-1.09,0-1.98.88-2,1.97-.02,1.1.87,2.01,1.97,2.03l2.35.04v8.39c-.92-.62-2.02-.98-3.21-.98h-2.07c0-.3-.03-.58-.07-.86,0-.05-.02-.1-.02-.16-.05-.26-.12-.52-.21-.77-.02-.05-.04-.09-.05-.14-.1-.25-.2-.49-.33-.72,0,0,0-.01-.01-.02-.13-.24-.29-.46-.46-.67-.03-.04-.06-.08-.1-.12-.17-.2-.35-.39-.54-.57-.04-.03-.07-.06-.11-.1-.2-.17-.4-.33-.62-.48-.01,0-.03-.02-.04-.03-.23-.15-.47-.28-.72-.39-.05-.02-.1-.05-.15-.07-.25-.11-.5-.2-.77-.27-.02,0-.03-.01-.05-.02v-4.03s0-.06,0-.09v-4.33c0-.8.64-1.45,1.53-1.45Zm-27.7-9.94c-3.87-3.4-6.68-7.75-8.13-12.42l9.34,8.12c.38.33.85.49,1.31.49.56,0,1.11-.23,1.51-.69.73-.83.64-2.1-.2-2.82l-9.7-8.43c4.48.56,8.98,2.61,12.83,5.99,4.81,4.22,8.01,9.93,8.96,15.93-5.48.17-11.2-2.02-15.93-6.17Zm18.77,23.62h5.8c1.03,0,1.87.71,1.87,1.59v.34s-.06.03-.1.04c-.24.09-.48.19-.71.3-.04.02-.08.04-.12.06-.25.13-.49.28-.71.45-.05.04-.1.07-.15.11-.23.17-.45.36-.65.56,0,0-.01.01-.02.02-.2.2-.38.41-.54.64-.04.05-.07.1-.11.15-.16.23-.31.47-.44.72-.02.04-.04.09-.06.13-.12.23-.22.47-.3.72-.02.04-.03.09-.05.13-.09.27-.16.55-.21.84-.01.06-.02.13-.03.19-.04.3-.07.6-.07.91v9.43c-1.77-.58-3.57-1.23-5.27-1.97v-8.25c.98.18,1.73.2,1.87.2,1.1,0,2-.9,2-2s-.9-2-2-2c-.01,0-.93-.02-1.87-.31v-1.39c0-.88.84-1.59,1.87-1.59Z"/>
  <path d="m50.21,102.16c-4.55-1.13-8.19-4.64-9.49-9.16-.31-1.06-1.42-1.67-2.48-1.37-1.06.31-1.67,1.41-1.37,2.48,1.7,5.88,6.44,10.45,12.37,11.93.16.04.33.06.49.06.9,0,1.71-.61,1.94-1.52.27-1.07-.39-2.16-1.46-2.42Z"/>
</svg>