<?xml version="1.0" encoding="UTF-8"?>
<svg id="Layer_13" data-name="Layer 13" xmlns="http://www.w3.org/2000/svg" viewBox="0 0 120 120">
  <path d="m66.66,80.02c-3.33,5.61-7.09,11.97-4.42,18.5,2.27,7.86,11.76,13.54,22.66,13.54,8.66,0,15.02-2.88,20.63-9.33.03-.04.07-.09.1-.12.04-.05.07-.09.1-.14,4.87-7.83,5.81-16.31,5.98-19.6.06-1.17-.59-2.21-1.63-2.6-.97-.37-2.07-.05-2.73.78-.14.18-.3.4-.49.66-.65.91-1.74,2.44-2.81,2.55-.68.08-1.48-.49-2.03-.98-.09-.08-.19-.16-.3-.22-4.36-3.41-10.48-5.36-16.83-5.36-1.39,0-2.67.1-3.79.24,2.87-6.14,4.63-13.96-1.49-21.09-2.63-3.04-7.9-4.45-10.98-3.82-3.08.64-6.57,1.37-11.21,6.33-.56.6-1.05,1.15-1.51,1.67-1.11,1.26-1.98,2.25-3.24,3.13l-.85.59s-.08.06-.12.09c-.76.62-3.29,2.78-4.04,4.6-.75,1.82-.76,3.92-.03,6.23.8,2.53.77,6.27.51,8.7l-.02.22c-.28,2.38.77,4.51,2.54,5.19,1.11.43,3.33.63,5.78-2.82.69-.97,1.65-2.54,2.85-4.66.57-1,1-1.76,1.3-2.36.97-.61,2.71-2,3.07-4.32.37-2.38-.18-4.19-.76-5.32,2.37-3.4,5.38-6.21,6.64-6.51.51-.12,1.49-.05,2.09.66,1.88,2.17,1.14,4.88-3.57,13.15-.46.8-.93,1.61-1.42,2.42Zm4.89-.45c4.56-8,7.05-13.19,3.14-17.72-1.65-1.95-4.23-2.39-6.06-1.96-3.36.8-7.7,6-9.79,9.3-.49.77-.4,1.76.22,2.43,0,.01,1,1.2.66,3.37-.15.99-1.42,1.65-1.47,1.68-.38.18-.69.49-.89.86-.03.05-2.7,5.04-4.17,7.11-.44.62-.81.98-1.05,1.18-.05-.19-.07-.46-.04-.79l.03-.23c.16-1.43.57-6.41-.67-10.34-.44-1.39-.47-2.57-.08-3.5.24-.59,1.67-2.03,2.82-2.98l.79-.55c1.65-1.16,2.71-2.37,3.94-3.76.44-.49.9-1.02,1.43-1.59,3.77-4.04,6.36-4.57,9.1-5.14,1.9-.39,5.57.69,7.14,2.51,4.46,5.2,4.23,11.17-.77,19.99l-.17.3c-.41.72-.34,1.61.18,2.26.52.64,1.39.89,2.17.64.03,0,2.96-.94,6.89-.94,5.55,0,10.85,1.69,14.53,4.64.04.03.08.06.12.09,1.61,1.39,3.27,2,4.94,1.82,1.03-.11,1.92-.51,2.69-1.05-.63,3.57-1.96,8.47-4.77,13.03-4.82,5.5-10.07,7.84-17.51,7.84-9.21,0-17.14-4.53-18.85-10.77-.03-.13-.08-.25-.14-.36-1.86-4.67,1.21-9.85,4.19-14.87.5-.84.99-1.67,1.45-2.49Z"/>
  <path d="m74.54,94.79c3.41,2.59,6.94,3.54,10.2,3.54,5.11,0,9.57-2.32,11.9-4.24.85-.7.97-1.96.27-2.81-.7-.85-1.96-.97-2.81-.28-.35.29-8.74,6.99-17.13.61-.88-.67-2.13-.49-2.8.38-.67.88-.5,2.13.38,2.8Z"/>
  <path d="m57.12,73.63c-.05-.12-.11-.23-.18-.34-.08-.11-.16-.21-.25-.31-.09-.09-.2-.17-.31-.24-.1-.08-.22-.14-.34-.19s-.25-.09-.38-.11c-.65-.14-1.33.08-1.8.54-.37.38-.58.89-.58,1.42s.2,1.04.58,1.41c.19.19.41.34.65.44.24.1.5.15.76.15s.53-.05.77-.15c.24-.1.46-.25.65-.44.38-.37.58-.88.58-1.41,0-.13,0-.26-.03-.39-.03-.13-.07-.26-.12-.38Z"/>
  <path d="m9.91,35.36c-1.04.39-1.69,1.44-1.63,2.6.18,3.29,1.11,11.78,5.99,19.62.03.05.07.11.11.16.03.04.06.08.09.11,5.62,6.46,11.98,9.34,20.65,9.34,10.91,0,20.41-5.69,22.68-13.55,2.69-6.53-1.09-12.9-4.42-18.52-.48-.82-.96-1.63-1.42-2.43-4.72-8.28-5.45-10.98-3.56-13.18.58-.7,1.56-.76,2.08-.64,1.26.3,4.27,3.11,6.65,6.52-.57,1.14-1.13,2.94-.76,5.33.36,2.31,2.09,3.71,3.06,4.32.75,1.38,2.83,5.15,4.17,7.04,2.45,3.45,4.67,3.25,5.79,2.82,1.78-.68,2.82-2.82,2.54-5.18l-.03-.23c-.26-2.44-.29-6.18.51-8.71.73-2.32.72-4.41-.03-6.24-.75-1.82-3.29-3.98-4.04-4.6-.04-.03-.08-.06-.11-.09l-.85-.6c-1.26-.88-2.13-1.88-3.24-3.13-.46-.52-.95-1.08-1.51-1.68-4.64-4.97-8.14-5.69-11.22-6.34-3.09-.63-8.36.78-10.99,3.83-6.12,7.13-4.36,14.96-1.49,21.11-1.12-.14-2.4-.24-3.8-.24-6.35,0-12.47,1.95-16.84,5.36-.11.07-.21.14-.31.23-.54.49-1.34,1.07-2.03.99-1.07-.12-2.16-1.64-2.81-2.56-.18-.25-.34-.48-.49-.66-.66-.84-1.76-1.15-2.73-.78Zm5.6,7.98c1.67.18,3.33-.43,4.94-1.82.04-.03.08-.06.12-.09,3.68-2.95,8.98-4.64,14.54-4.64,3.94,0,6.87.94,6.9.94.78.26,1.65,0,2.17-.63.52-.64.6-1.54.19-2.25l-.18-.31c-5-8.82-5.23-14.81-.77-20,1.58-1.83,5.26-2.91,7.15-2.52,2.74.57,5.33,1.11,9.11,5.15.53.57,1,1.1,1.43,1.59,1.23,1.4,2.3,2.61,3.94,3.76l.79.55c1.15.95,2.58,2.39,2.82,2.98.38.93.36,2.11-.08,3.51-1.24,3.92-.83,8.91-.67,10.35l.03.25c.04.32,0,.58-.04.77-.25-.19-.61-.55-1.06-1.18-1.33-1.88-3.75-6.31-4.17-7.1h0c-.2-.37-.51-.68-.89-.87-.01,0-1.32-.68-1.47-1.68-.34-2.16.65-3.36.66-3.38.62-.67.71-1.66.22-2.43-2.1-3.3-6.44-8.51-9.8-9.31-1.83-.44-4.42,0-6.05,1.94-3.93,4.55-1.44,9.74,3.13,17.75.47.82.96,1.66,1.46,2.49,2.97,5.02,6.04,10.2,4.19,14.87-.06.12-.11.24-.14.37-1.71,6.25-9.65,10.79-18.87,10.79-7.45,0-12.7-2.35-17.53-7.85-2.81-4.57-4.14-9.48-4.77-13.05.77.53,1.67.94,2.7,1.05Z"/>
  <path d="m35.28,53.45c3.26,0,6.8-.95,10.21-3.54.88-.67,1.05-1.92.38-2.8-.67-.88-1.92-1.05-2.8-.38-8.4,6.39-16.8-.32-17.15-.6-.85-.7-2.11-.58-2.82.27-.7.85-.58,2.11.27,2.82,2.33,1.93,6.79,4.25,11.91,4.25Z"/>
  <path d="m64.78,31.49c.53,0,1.03-.21,1.41-.58.19-.19.34-.41.44-.65.1-.24.15-.5.15-.77,0-.52-.22-1.04-.59-1.41-.09-.09-.19-.18-.3-.25-.11-.07-.23-.14-.35-.19-.12-.04-.24-.08-.37-.11-.65-.13-1.34.08-1.81.55-.37.37-.58.89-.58,1.41s.21,1.04.58,1.42c.39.37.89.58,1.42.58Z"/>
</svg>