<?xml version="1.0" encoding="UTF-8"?>
<svg id="Layer_13" data-name="Layer 13" xmlns="http://www.w3.org/2000/svg" viewBox="0 0 120 120">
  <path d="m41.17,48.27c-2.82,0-5.11,2.29-5.11,5.11s2.29,5.11,5.11,5.11,5.11-2.29,5.11-5.11-2.29-5.11-5.11-5.11Zm0,6.22c-.61,0-1.11-.5-1.11-1.11s.5-1.11,1.11-1.11,1.11.5,1.11,1.11-.5,1.11-1.11,1.11Z"/>
  <path d="m11,45.62c0,5.72,4.65,10.37,10.37,10.37s10.37-4.65,10.37-10.37-4.65-10.37-10.37-10.37-10.37,4.65-10.37,10.37Zm16.75,0c0,3.51-2.86,6.37-6.37,6.37s-6.37-2.86-6.37-6.37,2.86-6.37,6.37-6.37,6.37,2.86,6.37,6.37Z"/>
  <path d="m16.26,45.62c0,2.82,2.29,5.11,5.11,5.11s5.11-2.29,5.11-5.11-2.29-5.11-5.11-5.11-5.11,2.29-5.11,5.11Zm6.22,0c0,.61-.5,1.11-1.11,1.11s-1.11-.5-1.11-1.11.5-1.11,1.11-1.11,1.11.5,1.11,1.11Z"/>
  <path d="m38.52,22.04c-5.72,0-10.37,4.65-10.37,10.37s4.65,10.37,10.37,10.37,10.37-4.65,10.37-10.37-4.65-10.37-10.37-10.37Zm0,16.75c-3.51,0-6.37-2.86-6.37-6.37s2.86-6.37,6.37-6.37,6.37,2.86,6.37,6.37-2.86,6.37-6.37,6.37Z"/>
  <path d="m38.52,27.31c-2.82,0-5.11,2.29-5.11,5.11s2.29,5.11,5.11,5.11,5.11-2.29,5.11-5.11-2.29-5.11-5.11-5.11Zm0,6.22c-.61,0-1.11-.5-1.11-1.11s.5-1.11,1.11-1.11,1.11.5,1.11,1.11-.5,1.11-1.11,1.11Z"/>
  <path d="m69.37,39.25c0-5.72-4.65-10.37-10.37-10.37s-10.37,4.65-10.37,10.37,4.65,10.37,10.37,10.37c0,0,0,0,0,0,.31.55.38,1.23.35,1.82-1.53.29-2.65,1.15-3.63,1.92-1.48,1.16-2.25,1.75-4.22.62.01-.2.03-.4.03-.6,0-5.72-4.65-10.37-10.37-10.37s-10.37,4.65-10.37,10.37,4.65,10.37,10.37,10.37c4.09,0,7.63-2.39,9.31-5.84,3.77,1.66,6.09-.14,7.71-1.41.73-.57,1.36-1.06,1.96-1.15,1.32-.2,1.92.58,2.17,1.06.42.84.46,2.27-.82,3.53-3.54,3.51-4.15,6.97-3.72,9.52h-14.93c-2.48,0-4.5,2.02-4.5,4.5v.38c0,6.16,2.07,12.24,5.84,17.12,2.66,3.45,6.85,5.51,11.21,5.51h11.91c4.67,0,9.05-2.29,11.7-6.14,3.16-4.57,4.83-9.93,4.83-15.5v-1.37c0-2.48-2.02-4.5-4.5-4.5h-17.45c-.42-1.22-.62-3.65,2.44-6.68.8-.79,1.38-1.71,1.76-2.68,3.38-.25,8.47-2.08,11.02-7.95.86-1.97,2.49-3.16,4.59-3.37,1.65-.16,3.35.32,4.85,1.27-4.07,1.4-7.01,5.26-7.01,9.8,0,5.72,4.65,10.37,10.37,10.37s10.37-4.65,10.37-10.37c0-4.98-3.53-9.16-8.23-10.15-2.27-2.9-5.51-4.68-8.88-4.93-.09-1.46.4-2.81,1.44-3.84.99-.98,2.29-1.48,3.66-1.45,0,.13-.02.26-.02.39,0,5.72,4.65,10.37,10.37,10.37s10.37-4.65,10.37-10.37-4.65-10.37-10.37-10.37c-4.18,0-7.78,2.49-9.42,6.06-2.73-.3-5.45.59-7.41,2.54-1.92,1.9-2.81,4.47-2.58,7.14-.68.22-1.33.51-1.93.87-.34-1.29-.64-3-.65-4.97-.01-5.33,2.15-10.01,6.42-13.95,1.73,1.3,3.87,2.07,6.19,2.07,5.72,0,10.37-4.65,10.37-10.37s-4.65-10.37-10.37-10.37-10.37,4.65-10.37,10.37c0,1.95.55,3.77,1.49,5.34-2.85,2.62-4.72,5.38-5.89,8.08-.6-.27-1.36-.76-2-1.51-.57-.67-1.15-1.67-1.08-2.88,3.72-1.58,6.33-5.27,6.33-9.55,0-5.72-4.65-10.37-10.37-10.37s-10.37,4.65-10.37,10.37,4.65,10.37,10.37,10.37c.02,0,.04,0,.06,0,.14,1.65.82,3.26,2.02,4.66,1.07,1.25,2.43,2.2,3.8,2.71-1.33,5.86.07,10.97.86,13.16-.25.4-.47.83-.67,1.28-1.79,4.11-5.08,5.2-7.05,5.48-.11-.49-.26-.97-.49-1.42-.58-1.16-1.48-2.05-2.55-2.61.07-.99,0-2.11-.35-3.2,3.74-1.57,6.38-5.27,6.38-9.57Zm-28.2,20.51c-3.51,0-6.37-2.86-6.37-6.37s2.86-6.37,6.37-6.37,6.37,2.86,6.37,6.37-2.86,6.37-6.37,6.37Zm38.67,14.22v1.37c0,4.75-1.43,9.32-4.12,13.22-1.91,2.76-5.05,4.41-8.41,4.41h-11.91c-3.13,0-6.14-1.48-8.05-3.95-3.23-4.18-5-9.39-5-14.67v-.38c0-.28.23-.5.5-.5h36.49c.28,0,.5.23.5.5Zm18.79-40.46c3.51,0,6.37,2.86,6.37,6.37s-2.86,6.37-6.37,6.37-6.37-2.86-6.37-6.37,2.86-6.37,6.37-6.37Zm-2.35,26.35c0,3.51-2.86,6.37-6.37,6.37s-6.37-2.86-6.37-6.37,2.86-6.37,6.37-6.37,6.37,2.86,6.37,6.37Zm-7.02-47.34c3.51,0,6.37,2.86,6.37,6.37s-2.86,6.37-6.37,6.37-6.37-2.86-6.37-6.37,2.86-6.37,6.37-6.37Zm-28.26,5.84c0-3.51,2.86-6.37,6.37-6.37s6.37,2.86,6.37,6.37c0,2.91-1.96,5.37-4.64,6.13,0,0,0,0,0,0-.55.16-1.13.25-1.73.25-3.51,0-6.37-2.86-6.37-6.37Zm-2,27.25c-3.51,0-6.37-2.86-6.37-6.37s2.86-6.37,6.37-6.37,6.37,2.86,6.37,6.37-2.86,6.37-6.37,6.37Z"/>
  <path d="m58.99,34.13c-2.82,0-5.11,2.29-5.11,5.11s2.29,5.11,5.11,5.11,5.11-2.29,5.11-5.11-2.29-5.11-5.11-5.11Zm0,6.22c-.61,0-1.11-.5-1.11-1.11s.5-1.11,1.11-1.11,1.11.5,1.11,1.11-.5,1.11-1.11,1.11Z"/>
  <path d="m89.26,24.02c2.82,0,5.11-2.29,5.11-5.11s-2.29-5.11-5.11-5.11-5.11,2.29-5.11,5.11,2.29,5.11,5.11,5.11Zm0-6.22c.61,0,1.11.5,1.11,1.11s-.5,1.11-1.11,1.11-1.11-.5-1.11-1.11.5-1.11,1.11-1.11Z"/>
  <path d="m72.48,18.37c0-2.82-2.29-5.11-5.11-5.11s-5.11,2.29-5.11,5.11,2.29,5.11,5.11,5.11,5.11-2.29,5.11-5.11Zm-6.22,0c0-.61.5-1.11,1.11-1.11s1.11.5,1.11,1.11-.5,1.11-1.11,1.11-1.11-.5-1.11-1.11Z"/>
  <path d="m98.63,45c2.82,0,5.11-2.29,5.11-5.11s-2.29-5.11-5.11-5.11-5.11,2.29-5.11,5.11,2.29,5.11,5.11,5.11Zm0-6.22c.61,0,1.11.5,1.11,1.11s-.5,1.11-1.11,1.11-1.11-.5-1.11-1.11.5-1.11,1.11-1.11Z"/>
  <path d="m84.79,59.87c0,2.82,2.29,5.11,5.11,5.11s5.11-2.29,5.11-5.11-2.29-5.11-5.11-5.11-5.11,2.29-5.11,5.11Zm6.22,0c0,.61-.5,1.11-1.11,1.11s-1.11-.5-1.11-1.11.5-1.11,1.11-1.11,1.11.5,1.11,1.11Z"/>
  <path d="m97.41,103.85c5.6,0,10.15-4.55,10.15-10.15,0-1.1-.9-2-2-2h-16.3c-1.1,0-2,.9-2,2,0,5.6,4.55,10.15,10.15,10.15Zm5.82-8.15c-.83,2.41-3.12,4.15-5.82,4.15s-4.99-1.74-5.82-4.15h11.63Z"/>
  <path d="m30.15,79.62H13.85c-1.1,0-2,.9-2,2,0,5.6,4.55,10.15,10.15,10.15s10.15-4.55,10.15-10.15c0-1.1-.9-2-2-2Zm-8.15,8.15c-2.69,0-4.99-1.74-5.82-4.15h11.63c-.83,2.41-3.12,4.15-5.82,4.15Z"/>
  <path d="m29.41,101.85c0,5.6,4.55,10.15,10.15,10.15s10.15-4.55,10.15-10.15c0-1.1-.9-2-2-2h-16.3c-1.1,0-2,.9-2,2Zm15.97,2c-.83,2.41-3.12,4.15-5.82,4.15s-4.99-1.74-5.82-4.15h11.63Z"/>
  <path d="m49.26,81.08h11.49c1.1,0,2-.9,2-2s-.9-2-2-2h-11.49c-1.1,0-2,.9-2,2s.9,2,2,2Z"/>
</svg>