<?xml version="1.0" encoding="UTF-8"?>
<svg id="Layer_13" data-name="Layer 13" xmlns="http://www.w3.org/2000/svg" viewBox="0 0 120 120">
  <path d="m98.79,45.98c-.78-.78-2.05-.78-2.83,0l-11.07,11.07-9.53-9.53,11.08-11.08c.38-.38.59-.88.59-1.41s-.21-1.04-.59-1.41l-12.61-12.61c-.78-.78-2.05-.78-2.83,0l-11.07,11.07-11.07-11.07c-.78-.78-2.05-.78-2.83,0l-12.61,12.61c-.38.38-.59.88-.59,1.41s.21,1.04.59,1.41l11.12,11.12-9.46,9.46-11.05-11.05c-.78-.78-2.05-.78-2.83,0l-12.61,12.61c-.38.38-.59.88-.59,1.41s.21,1.04.59,1.41l12.61,12.61c.38.38.88.59,1.41.59s1.04-.21,1.41-.59l11.05-11.05,9.46,9.46-11.12,11.12c-.38.38-.59.88-.59,1.41s.21,1.04.59,1.41l12.61,12.61c.39.39.9.59,1.41.59s1.02-.2,1.41-.59l11.07-11.07,11.07,11.07c.39.39.9.59,1.41.59s1.02-.2,1.41-.59l12.61-12.61c.38-.38.59-.88.59-1.41s-.21-1.04-.59-1.41l-11.07-11.07,9.53-9.53,11.07,11.07c.38.38.88.59,1.41.59s1.04-.21,1.41-.59l12.61-12.61c.38-.38.59-.88.59-1.41s-.21-1.04-.59-1.41l-12.61-12.61Zm-38.88,36.05l-9.48-9.48,9.53-9.53,9.48,9.48-9.53,9.53Zm.05-25.02l-9.53-9.53,9.49-9.49,9.53,9.54-9.49,9.49Zm12.44-31.76l9.79,9.79-9.79,9.79-9.79-9.79,9.79-9.79Zm-24.97,0l9.79,9.79-9.79,9.79-9.79-9.79,9.79-9.79Zm-24.82,44.55l-9.79-9.79,9.79-9.79,9.79,9.79-9.79,9.79Zm24.92-19.57l9.79,9.79-9.79,9.79-9.79-9.79,9.79-9.79Zm-.1,44.54l-9.79-9.79,9.79-9.79,9.79,9.79-9.79,9.79Zm24.97,0l-9.79-9.79,9.79-9.79,9.79,9.79-9.79,9.79Zm0-24.97l-9.79-9.79,9.79-9.79,9.79,9.79-9.79,9.79Zm24.97,0l-9.79-9.79,9.79-9.79,9.79,9.79-9.79,9.79Z"/>
</svg>