<?xml version="1.0" encoding="UTF-8"?>
<svg id="Layer_13" data-name="Layer 13" xmlns="http://www.w3.org/2000/svg" viewBox="0 0 120 120">
  <path d="m22.36,98.46c-.01.09-.03.18-.03.27v5.9c0,1.1.9,2,2,2s2-.9,2-2v-5.6h2.54v8.36c0,1.1.9,2,2,2s2-.9,2-2v-8.36h1.85l-1.47,10.34c-.08.57.09,1.14.46,1.58.37.44.92.69,1.49.7l6.94.11h13.99c.14.03.29.05.44.05h7.33c.15,0,.3-.02.44-.05h13.55l6.91-.11c.57,0,1.12-.26,1.49-.7.37-.44.54-1.01.46-1.58l-1.47-10.34h1.85v8.36c0,1.1.9,2,2,2s2-.9,2-2v-8.36h2.54v5.6c0,1.1.9,2,2,2s2-.9,2-2v-5.9c0-.09-.02-.18-.03-.27.66-.29,1.27-.69,1.81-1.19,1.34-1.25,2.11-3.04,2.11-4.91,0-1.1-.9-2-2-2s-2,.9-2,2c0,.78-.3,1.48-.84,1.99-.54.51-1.28.75-2.09.7-.05,0-.09,0-.14,0h-9.78l-1.34-9.43h6.42c3.33,0,6.2-2.48,6.66-5.77,0-.02,0-.05,0-.08.04-.29.06-.57.06-.87,0-1.1-.9-2-2-2s-2,.9-2,2c0,.13-.01.26-.03.38,0,.02,0,.04,0,.06-.21,1.3-1.35,2.28-2.69,2.28h-6.99l-1.29-9.12h3.74c1.68,0,3.26-.64,4.43-1.78,1.26-1.19,1.99-2.88,1.99-4.63,0-1.1-.9-2-2-2s-2,.9-2,2c0,.66-.26,1.28-.76,1.74-.44.43-1.03.67-1.66.67h-4.31l-1.37-9.7h3.04c.71,0,1.39-.12,2.04-.37.06-.02.12-.05.18-.08,2.15-.88,3.58-3.01,3.58-5.35,0-1.1-.9-2-2-2s-2,.9-2,2c0,.75-.47,1.42-1.16,1.67-.04.02-.09.03-.13.05-.16.05-.33.07-.51.07h-3.61l-1.08-7.62h2.01c2.63,0,4.76-2.13,4.76-4.76,0-1.1-.9-2-2-2s-2,.9-2,2c0,.42-.34.76-.76.76h-2.58l-.92-6.49h.36c2.63,0,4.76-2.13,4.76-4.76,0-1.1-.9-2-2-2s-2,.9-2,2c0,.42-.34.76-.76.76h-.93l-.82-5.82,5.44-.07c1-.01,1.84-.77,1.96-1.76.12-1-.52-1.93-1.49-2.17-7.51-1.93-17.17-7.94-19.03-13.48-.29-.85-1.08-1.37-1.93-1.35-.85-.01-1.64.51-1.92,1.35-1.86,5.54-11.52,11.56-19.03,13.48-.97.25-1.61,1.18-1.49,2.17.12,1,.96,1.75,1.96,1.76l5.44.07-.82,5.82h-.93c-.42,0-.76-.34-.76-.76,0-1.1-.9-2-2-2s-2,.9-2,2c0,2.62,2.14,4.76,4.76,4.76h.36l-.92,6.49h-2.58c-.42,0-.76-.34-.76-.76,0-1.1-.9-2-2-2s-2,.9-2,2c0,2.62,2.14,4.76,4.76,4.76h2.01l-1.08,7.62h-3.61c-.18,0-.35-.02-.51-.07-.04-.02-.09-.04-.13-.05-.7-.26-1.16-.93-1.16-1.67,0-1.1-.9-2-2-2s-2,.9-2,2c0,2.34,1.43,4.47,3.58,5.35.06.03.12.06.18.08.65.25,1.33.37,2.04.37h3.04l-1.37,9.7h-4.31c-.63,0-1.22-.24-1.69-.69-.47-.45-.73-1.06-.73-1.72,0-1.1-.9-2-2-2s-2,.9-2,2c0,1.75.73,3.44,1.96,4.61,1.19,1.16,2.78,1.8,4.46,1.8h3.74l-1.29,9.12h-6.99c-1.33,0-2.48-.97-2.69-2.27,0-.02,0-.05,0-.07-.02-.12-.03-.25-.03-.38,0-1.1-.9-2-2-2s-2,.9-2,2c0,.28.02.56.06.87,0,.03,0,.05,0,.08.46,3.29,3.32,5.77,6.66,5.77h6.42l-1.34,9.43h-9.78s-.09,0-.14,0c-.82.05-1.55-.19-2.09-.7-.54-.51-.84-1.21-.84-1.99,0-1.1-.9-2-2-2s-2,.9-2,2c0,1.87.77,3.66,2.11,4.91.54.5,1.15.9,1.81,1.19Zm16.4.58h.63v8.68l-1.85-.03,1.23-8.66Zm37.86,8.73h-6.03v-8.5c0-.08-.02-.15-.03-.22h6.06v8.73Zm-10.03,0h-.69v-4.05c0-1.67-.73-3.24-2-4.32-.15-.13-.31-.24-.47-.35h3.17c0,.07-.02.15-.02.23v8.5Zm-6.3,0c-.1,0-.19.02-.28.03-.09-.01-.18-.03-.28-.03h-1.15v-3.86c0-.91.6-1.71,1.37-1.84.68-.11,1.15.19,1.37.37.37.32.59.78.59,1.27v4.05h-1.62Zm.46-16.41h-1v-2.03c0-.3.19-.59.4-.63.16-.03.31.01.42.11.07.06.18.18.18.38v2.17Zm-.73-15.11c0-.19.12-.33.17-.34.05,0,.13-.01.2.05.04.03.08.09.08.17v1.7h-.45v-1.58Zm-2.91,22.79c-1.52,1.06-2.53,2.87-2.53,4.87v3.86h-1.16v-8.5c0-.08-.01-.15-.02-.23h3.71Zm-7.68.22v8.5h-6.03v-8.73h6.06c0,.07-.02.15-.02.22Zm33.05,8.43l-1.85.03v-8.68h.63l1.23,8.66Zm-1.79-12.66h-16.87c.56-.36.93-.97.93-1.68v-4.17c0-1.32-.58-2.57-1.59-3.43-.07-.06-.14-.09-.21-.14h16.4l1.34,9.43Zm-1.9-13.43h-15.43c.66-.33,1.11-1,1.11-1.78v-3.7c0-1.24-.54-2.41-1.49-3.22-.19-.16-.41-.3-.62-.42h15.13l1.29,9.12Zm-3.8-26.82h-12.16c.67-.32,1.14-1,1.14-1.8v-2.86c0-1.09-.48-2.12-1.31-2.83-.06-.05-.13-.09-.2-.13h11.45l1.08,7.62Zm-1.65-11.62h-9.96c.22-.32.36-.71.36-1.14v-2.49c0-1.03-.45-2-1.23-2.66-.1-.08-.21-.14-.31-.21h10.22l.92,6.49Zm-1.49-10.49h-8.55c.1-.23.15-.49.15-.76v-2.02c0-.94-.41-1.84-1.13-2.45-.2-.17-.41-.3-.64-.42l9.35-.13.82,5.76Zm-11.84-18.51c2.37,3.32,6.3,6.4,10.58,8.76l-10.58.14-10.58-.14c4.29-2.36,8.21-5.44,10.58-8.76Zm-11.02,12.75l9.82.13c-1.05.54-1.77,1.66-1.77,2.92v1.95c0,.27.05.52.15.76h-9.01l.82-5.76Zm-1.38,9.76h10.7c-.93.65-1.55,1.74-1.55,2.95v2.41c0,.42.13.81.36,1.14h-10.43l.92-6.49Zm-1.49,10.49h11.93c-.92.7-1.52,1.82-1.52,3.06v2.76c0,.8.47,1.48,1.14,1.8h-12.63l1.08-7.62Zm-1.65,11.62h15.36c-.08,0-.16,0-.24.01-1.9.31-3.34,2.05-3.34,4.05v3.22c0,1.1.9,2,2,2h4c1.1,0,2-.9,2-2v-3.33c0-1.17-.51-2.28-1.41-3.05-.62-.52-1.37-.83-2.17-.91h14.88l1.37,9.7h-33.83l1.37-9.7Zm-1.94,13.7h15.6c-1.26.76-2.1,2.18-2.1,3.76v3.58c0,.78.46,1.46,1.11,1.78h-15.9l1.29-9.12Zm-1.86,13.12h16.89c-1.1.85-1.82,2.21-1.82,3.71v4.03c0,.71.37,1.33.93,1.68h-17.34l1.34-9.43Z"/>
</svg>