<?xml version="1.0" encoding="UTF-8"?>
<svg id="Layer_13" data-name="Layer 13" xmlns="http://www.w3.org/2000/svg" viewBox="0 0 120 120">
  <path d="m8.06,98.4s0,0,0,0c0,0,0,0,0,0s0,0,0,0h0s0,0,0,0c0,0,0,0,0,0,0,0,0,0,0,0h0s0,0,0,0h0c.15,1.03,1.06,1.78,2.11,1.71,1.6.08,10.7.51,14.55.51,1.41,0,2.69,0,3.88-.02-1.5,2.76-2.11,6.42-1.2,8.63.6,1.45,1.85,2.32,3.3,2.32h0l21.69.41c3.41-.03,5.6-.75,6.92-2.27,1.72-1.99,1.35-4.65.99-7.22-.16-1.16-.33-2.37-.32-3.54.01-2.97-.2-8.33-.31-10.87l.42-.18,6.43-.89c-4.35,2.45-5.2,6.67-5.73,9.34-.06.29-.11.56-.17.82-.25,1.16.04,2.35.79,3.27.77.94,1.91,1.47,3.13,1.47h.05l14.15-.18c-1.74,3.78-1.27,8.01-1.23,8.29.12,1,.97,1.75,1.98,1.75.48,0,11.75.06,15.28,0,4.94-.08,13.16,0,13.24,0,.63.02,1.3-.32,1.68-.88,1.51-2.24,1.84-6.6,1.13-15.05-.16-1.93-1.16-8.76-1.55-11.45.49-.48,1.08-1.16,1.59-2,.02-.04.05-.07.06-.11.67-1.15,1.18-2.57,1.04-4.23-.62-7.2-4.17-11.35-6.81-13.48,2.45-1.92,5.54-5.52,5.79-11.53.28-6.57-1.8-9.37-3.17-11.23-.45-.61-.8-1.09-.85-1.42-.27-1.94-1.54-2.33-2.07-2.4-1.03-.15-2.18.15-3.75,3l-2-.57c-.28-1.62-1.2-3.56-3.46-4.7-.61-.31-.93-.51-1.1-.63.02-.15.06-.35.1-.52.04-.21.09-.45.13-.7.46-2.65-1.65-5.66-3.63-6.05-1.22-.25-2.36.46-2.69,1.64-.12.2-.52.65-.79.95-.78.87-1.75,1.95-2.21,3.28l-.58,1.68c-1.72.54-5.02,1.88-6.76,4.71-.77,1.25-1.31,2.68-1.7,4.02-.83-.65-1.85-.98-2.91-.92-1.5.08-2.88.9-3.8,2.25-1.54,2.27-2.41,2.81-6.59,4.15-5.12,1.64-6.78,1.51-7.28,1.1,5.8-.6,10.46-2.85,13.46-6.53,3.08-3.76,4.39-8.81,3.79-14.61-.72-6.99-4.13-11.18-6.22-13.13,1.16-2.12,1.28-4.44.77-6.07-.54-1.73-1.59-2.2-2.17-2.33-.83-.19-1.7.09-2.3.74-.51.56-1.92,1.16-2.94,1.28h-6.6c-2.46-.87-4.95.26-6.07.89h-.21c-2.5-1.13-5.69-2.2-7.5-1.32l-1.28.62c-2.07-.56-4.41-.22-5.56,1.86-.45.82-.66,1.66-.72,2.45-1.11-1.38-2.34-2.15-3.65-2.29-1.09-.12-2.13.2-3.04.92-.46.29-1.8,1.19-3,2.64-1.11,1.34-1.61,3.03-1.41,4.75.2,1.75,1.1,3.31,2.52,4.39.86.65,1.76,1.27,2.68,1.84,3.82,2.35,4.44,2.82,4.49,2.85.24.21.31.35.33.36-.04.08-.23.27-.58.38-.2.06-.7.18-1.14-.11-.05-.04-.11-.07-.17-.1l-3.4-1.75c-.12-.06-.25-.11-.39-.15-2.6-.72-3.89.34-4.42,1.03-1.79,2.33.12,6.18,1.02,7.72.17.3.39.59.6.88-2.58.95-3.68,2.6-4.72,4.48-1.09,1.99-2.34,4.43-2.39,4.53-.33.65-.28,1.43.13,2.04.41.6,1.11.93,1.85.86l3.9-.39c-.24.41-.52.84-.85,1.3-2.01,2.78-3.05,6.26-3.2,6.78-.27.8-2.66,8.35.09,14.41,1.89,4.15,3.95,6.6,5.08,7.74l-.34,3.53c-4.58.06-8.19,1.54-10.75,4.41-3.27,3.67-3.72,8.53-3.49,10.7,0,.03,0,.05,0,.08Zm81.06-6.76c1.36,1.42,2.22,3.12,2.37,4.02-.82.1-1.49.1-2.19.11-.06,0-.12,0-.18,0v-4.12Zm-24.55,6.29c.05-.25.1-.51.16-.79.74-3.78,1.58-8.06,10.74-8.06,1.1,0,2-.9,2-2v-1.57l.25-.03c1.2.7,3.99,2.25,7.4,3.7v7.12c-.2.06-.39.12-.6.19-.92.32-1.72.74-2.42,1.22l-17.53.22Zm37.71-14.08c.79.35,1.68.15,2.25-.43.08.09.15.21.19.35.09.32-.06.69-.43,1.1-.27.15-1.26.36-2.3.07-.79-.22-1.35-.64-1.66-1.27-.47-.96-.42-2.28.13-3.37.39-.76,1.17-1.73,2.71-1.99.15-.03.31-.04.46-.04.92,0,1.86.45,2.55,1.23.11.13.22.26.31.38-.66-.43-1.41-.67-2.15-.68-1.34,0-2.51.74-3.07,2.01-.45,1.01,0,2.19,1.01,2.64Zm-38.23-15.5s0,0-.01,0c-2.52.48-6.15.68-11.11.38.34-.58.58-1.19.71-1.83.03-.15.03-.28.05-.43,2.94.14,5.6.24,7.96.24,2.65,0,4.92-.13,6.84-.46-.04.06-.07.11-.11.18-.54.76-1.93,1.46-4.32,1.91Zm1.14-8.23c3.18-.66,5.45-1.71,7.27-3.18,0,.04,0,.08.01.11,0,.05.19,1.26-.75,3.25-1.21,2.56-7.79,2.64-17.17,2.21l1.16-1.2c2.38-.16,6.17-.49,9.48-1.19Zm-27.41-38.21s-.02,0-.04,0c.01,0,.02,0,.04,0Zm-16.86,23.58c.21-.39.42-.79.63-1.16.93-1.7,1.44-2.47,3.6-2.94,1.44-.31,1.98-1.21,2.17-1.73.58-1.54-.46-2.94-1.22-3.96-.18-.24-.36-.48-.48-.68-.69-1.18-1.04-2.21-1.16-2.86l2.98,1.54c2.52,1.56,5.56.59,6.96-1.22,1.14-1.49,1.34-3.86-.8-5.8-.21-.19-.55-.5-5.07-3.29-.82-.5-1.61-1.05-2.36-1.62-.55-.42-.89-1-.96-1.66-.07-.63.11-1.24.52-1.74.95-1.15,2.07-1.82,2.08-1.82.1-.06.2-.13.29-.2.11-.09.17-.11.17-.11.03,0,.41.1,1.08.97,1.22,1.59,2.27,2.82,3.86,2.94.43.03.82-.03,1.18-.14-.27.52-.44,1.1-.44,1.72,0,2.08,1.72,3.77,3.84,3.77.83,0,1.6-.27,2.23-.71-.04.99.66,1.89,1.66,2.05.11.02.22.03.33.03.96,0,1.81-.7,1.97-1.68.12-.75.62-4.58-1.63-6.52-.81-.69-2.23-1.34-4.46-.72-.03,0-.06,0-.1,0-.4,0-.78.08-1.14.19.2-.5.21-1.06-.01-1.57,0-.01-.64-1.5-.09-2.53.2-.1.98,0,1.55.26.75.35,1.63.2,2.23-.38l.13-.13,1.04-.5s.04,0,.05,0c.75,0,2.82.67,4.54,1.47.27.12.56.19.85.19h1.21c.41,0,.8-.12,1.14-.35.37-.26,2.1-1.19,3.15-.72.26.12.54.18.83.18h7.08c.06,0,.12,0,.17,0,1-.09,2.23-.42,3.36-.97-.12.72-.45,1.58-1.18,2.37-.4.43-.58,1.02-.51,1.61s.4,1.11.9,1.43c.21.14,5.21,3.49,6.04,11.49.48,4.72-.52,8.75-2.91,11.67-2.38,2.9-6.04,4.62-10.89,5.1-.91.02-5.8.2-8.36,2.32-2.82,2.33-5.19,1.24-5.21,1.23l-.3-.15c-2.12-1.01-3.02-1.64-2.78-3.43.29-2.19-.59-4.23-1.37-6.04-.39-.9-.85-1.97-.88-2.57.28.05.63.19,1.05.5.62.45,1.11,1.13,1.42,1.94.65,1.7,1.54,2.81,2.65,3.29.81.35,1.68.35,2.51,0,1.49-.62,1.99-2.07,2.21-3.29,2.55,1.24,5.52.66,7.11-.94,1.26-1.26,1.38-3.01.29-4.27-.06-.07-.12-.14-.19-.21,3.15-1.36,3.59-2.99,3.38-4.15-.46-2.54-3.81-2.86-6.67-2.86-1.1,0-2,.9-2,2s.95,2,2.08,2c-1.01.47-1.97,1.16-2.12,2.36-.18,1.39.82,2.19,1.51,2.68-.62.12-1.47.05-2.22-.6-1.09-.94-2.15-1.23-3.14-.84-1.37.53-1.66,1.9-1.81,3.02-.6-1.38-1.51-2.54-2.65-3.38-1.66-1.21-3.45-1.59-5.19-1.09-.02,0-.03.01-.04.02-.04.01-.09.03-.13.05-1.91.63-2.54,2.21-3.1,3.62-.2.5-.4,1.02-.67,1.58-1.16,2.36-4.87,4.7-6.56,5.6l-3.23.32Zm.29,24.79c-2.18-4.8.05-11.44.07-11.51.01-.04.03-.08.04-.12,0-.03.91-3.21,2.61-5.57,1.4-1.94,2.12-3.6,2.47-4.59,1.64-.91,5.31-3.17,7.28-6.12.59,1.36,1.18,2.76,1.03,3.82-.66,4.87,3.18,6.7,5.03,7.57l.29.14c2.15,1.04,5.93,1.2,9.49-1.75.46-.38,1.24-.68,2.12-.9.25.94.82,1.85,1.69,2.56,2.31,1.88,5.93,1.24,11.03-.39,4.67-1.5,6.47-2.48,8.67-5.71.21-.31.47-.5.71-.51.14-.01.24.04.3.1.08.23-.09.98-.34,1.47,0,0,0,0,0,0-2.28,4.27-4.17,6.36-9.32,7.43-3.09.65-6.73.97-8.99,1.11-.34-.09-.71-.08-1.07.03-.05.02-.13.04-.26.05-.33.02-.57.03-.71.03-1.5-.02-5.01-.5-12.86-3.15-5.9-1.99-10.51-1.26-14.54,2.31-.92.81-1.63,1.69-2.13,2.59-1.66,3.04-1.6,7.5.15,11.11,1.66,3.43,4.57,5.66,8.19,6.28.81.14,1.61.21,2.38.21,2.71,0,5.14-.83,7-2.43,2.33-1.99,3.59-4.94,3.56-8.3-.03-3.07-2.08-5.8-5.47-7.32-2.85-1.28-7-1.7-9.38.38-1.66,1.45-2.5,3.45-2.38,5.65.12,2.17,1.17,4.26,2.68,5.31,1.4.97,3.04,1.42,4.62,1.28,2.13-.2,3.75-1.76,4.04-3.87.3-2.18-.88-4.19-2.94-4.98-1.02-.4-2.19.11-2.59,1.14s.11,2.19,1.14,2.59c.44.17.44.55.42.7-.05.39-.33.42-.46.43-.63.06-1.33-.14-1.95-.58-.37-.26-.92-1.19-.98-2.25-.05-.97.29-1.78,1.02-2.42.73-.64,3-.68,5.11.26.93.41,3.08,1.61,3.1,3.71.02,2.16-.74,4.02-2.15,5.22-1.51,1.29-3.62,1.74-6.12,1.32-2.96-.5-4.5-2.5-5.26-4.08-1.17-2.42-1.27-5.56-.24-7.45.27-.5.7-1.01,1.27-1.52,2.92-2.59,6.09-3.04,10.6-1.52,5.2,1.76,8.73,2.64,11.14,3.05l-.84.88c-.67.7-.72,1.82-.14,2.6,0,0,.53.73.35,1.55-.18.82-1.01,1.66-2.4,2.43,0,0-.01,0-.02.01,0,0,0,0,0,0,0,0-.02.01-.03.02-.1.06-.2.13-.29.2-.04.03-.07.07-.1.1-.06.06-.12.11-.17.18-.04.04-.06.09-.1.14-.04.06-.08.12-.12.18-.03.06-.05.12-.07.18-.02.06-.05.12-.07.18-.03.08-.04.17-.05.26,0,.04-.02.08-.02.12,0,0,0,0,0,.01-.01.12-.01.24,0,.36,0,.01,0,.03,0,.04,0,.08.03.16.05.24.01.05.02.1.03.15,0,.03.02.05.03.08.04.1.07.2.12.29,0,0,0,0,0,.01.02.04.05.07.07.1.05.07.09.14.15.21.04.05.09.09.14.14.04.04.09.09.14.13.06.05.12.08.18.12.05.03.1.07.15.09.07.04.14.06.21.09.05.02.1.04.15.06.1.03.19.05.29.06.03,0,.05.01.08.02,0,0,0,0,.02,0,0,0,.01,0,.02,0,3.42.35,6.49.53,9.2.53s4.82-.16,6.76-.48c.36.25.66.8.61,1.43-.11,1.38-1.79,2.38-4.5,2.67-7.44.79-13.05.39-15-1.06-.89-.66-2.14-.47-2.8.41-.66.89-.48,2.14.41,2.8,2.02,1.51,5.55,2.26,10.52,2.26,2.16,0,4.59-.14,7.3-.43,7.07-.75,7.96-5.03,8.06-6.33.08-1-.11-1.98-.5-2.84,1.59-.65,2.76-1.5,3.51-2.55,1.18-1.66,1.49-3.09,1.48-4.17.97-.66,1.71-1.5,2.22-2.57,1.04-2.19,1.18-3.91,1.14-4.9.16-.29.35-.68.54-1.13,2.07,3.91,6.73,5.7,10.65,5.7.04,0,.07,0,.11,0,4.23-.04,7.39-2.01,8.27-5.14.01-.05.01-.09.02-.14.28-.53.33-1.18.04-1.77-.03-.07-.71-1.82,1.23-4.22.44-.54.92-.81,1.49-.83.86-.03,1.62.45,2.06.93.24.27.24.43.15.64-.16.37-.54.61-.73.66-.77-.71-1.99-.73-2.75,0-.79.75-.86,1.98-.12,2.78,1.54,1.68,4.12,1.64,6.01-.08,1.76-1.62,2.47-4.44.4-6.69-1.31-1.43-3.25-2.28-5.14-2.22-1.75.06-3.3.86-4.48,2.32-1.62,2.01-2.19,3.97-2.25,5.56-2.7-.11-4.69-.7-5.8-1.76-.78-.74-1.16-1.76-1.16-3.12,0-1.8.46-3.06,1.3-3.52.79-.44,1.85-.21,2.54.22.42.26.63.52.6.75-.02.16-.1.31-.19.44-.56-.62-1.47-.85-2.28-.5-1.01.44-1.48,1.62-1.04,2.63.63,1.44,1.94,2.26,3.4,2.13,1.81-.16,3.52-1.75,3.99-3.7.48-2.01-.41-3.93-2.37-5.15-2.06-1.27-4.65-1.4-6.6-.31-1.25.7-3.36,2.54-3.36,7.02,0,2.48.81,4.5,2.4,6.02,1.54,1.47,3.76,2.37,6.63,2.72-.74.24-1.56.36-2.31.37-.03,0-.05,0-.08,0-3.05,0-6.56-1.51-7.46-4.42l-.67-3.43v-.78c.11-1.24.65-4.66,2.01-6.87,1.21-1.96,4.2-2.96,5.25-3.18.67-.14,1.22-.6,1.47-1.23l1-2.76c.2-.57.84-1.29,1.41-1.92.06-.06.12-.13.17-.19.03.11.03.22.02.3-.04.22-.08.43-.12.61-.49,2.47-.15,3.84,3.13,5.49,1.42.71,1.36,2.17,1.34,2.42-.12.98.49,1.9,1.44,2.16l4.98,1.4c.94.26,1.95-.19,2.36-1.09.08-.16.16-.33.24-.5.12.16.23.32.35.48,1.16,1.57,2.61,3.53,2.39,8.69-.3,7.21-6.05,9.72-6.28,9.81-.74.3-1.22,1.02-1.24,1.82-.01.8.46,1.54,1.19,1.86.24.11,5.14,2.37,6.85,9.04-1.51-.95-3.29-1.36-5.01-1.06-2.44.42-4.48,1.92-5.6,4.12-1.12,2.21-1.18,4.88-.15,6.96.95,1.93,2.76,3.18,5.08,3.54.39.06.81.09,1.23.09.95,0,1.95-.16,2.8-.53.42,2.95.91,6.44,1.01,7.65.49,5.81.46,9.69-.08,11.58-2.54-.02-8.25-.05-12.05,0-2.62.04-9.79.02-13.26,0,.06-1.77.48-4.5,2.28-6.25.38-.15.7-.4.92-.73.35-.22.74-.41,1.17-.56,1.41-.49,2.29-.5,3.5-.51.91,0,1.94-.01,3.31-.23,1.56-.24,2.65-1.4,2.83-3.03.35-3.04-2.57-8.01-6.81-10.15,1.83-.64,3.56-1.69,5.1-3.16,2.43-2.31,3.39-5.62,2.57-8.83-.73-2.87-2.73-5.07-5.22-5.74-3.63-.98-7,1.16-8.45,3.78-1.34,2.42-1,5.1.86,6.82,1.68,1.55,4.25,1.71,5.99.38,1.6-1.23,1.95-3.32.89-5.31-.52-.98-1.73-1.35-2.7-.83-.98.52-1.35,1.73-.83,2.7.07.14.11.24.13.31-.16.05-.49.07-.76-.18-.63-.58-.39-1.38-.07-1.95.68-1.23,2.28-2.29,3.91-1.85,1.06.29,2.02,1.44,2.38,2.87.22.86.52,3.07-1.45,4.95-3.28,3.12-7.42,3.68-11.39,1.65-.27-.16-.43-.25-.43-.26-.02-.01-.05-.02-.07-.03-.02-.01-.03-.02-.05-.04-2.34-1.22-3.8-3.51-4-6.28-.23-3.2,1.3-6.29,4.08-8.29.82-.59,1.49-.56,1.91-.43.19.06.34.14.45.22-.1.03-.22.05-.37.08-1.09.18-1.83,1.2-1.66,2.29.18,1.09,1.2,1.83,2.29,1.65,3.05-.49,3.76-2.34,3.92-3.11.33-1.58-.47-3.26-2.05-4.29-1.61-1.05-4.25-1.51-6.83.34-3.92,2.81-6.07,7.23-5.74,11.82.17,2.4,1.04,4.6,2.42,6.4l-14.2,1.97c-.17.02-.34.07-.5.14l-1.94.82c-.77.33-1.26,1.1-1.22,1.93,0,.08.38,8.27.36,12.07,0,1.46.19,2.87.36,4.11.25,1.76.48,3.43-.06,4.05-.22.26-1.05.86-3.87.89l-21.38-.41c-.34-1.14.39-4.74,2.01-6.35,2.32-2.3,7.32-1.73,9.04-1.31.74.18,1.52-.07,2-.65.49-.58.61-1.39.3-2.09l-4-9.19s0,0,0,0v-.02s-.02-.02-.03-.04c-.02-.05-.06-.1-.08-.15-.03-.05-.05-.1-.08-.14-.01-.02-.02-.03-.03-.04-.03-.05-.07-.09-.11-.13-.04-.04-.07-.08-.11-.12-.01-.01-.03-.03-.04-.04-.04-.04-.09-.07-.13-.1-.04-.03-.09-.07-.13-.1-.02-.01-.03-.02-.05-.03-.04-.03-.09-.05-.13-.07-.05-.03-.1-.06-.16-.08-.02,0-.04-.01-.06-.02-.01,0-.02-.01-.04-.02-.06-.02-5.78-2.06-13.07-9.41-.04-.04-.08-.07-.12-.1-.02-.02-.04-.04-.06-.06-.02-.02-2.48-2.03-4.76-7.04Zm-6.67,19.99c1.82-2.04,4.52-3.07,8.14-3.07l1.54-.07c.99-.05,1.8-.81,1.9-1.8l.21-2.19c4.56,4.02,8.32,6.07,10.23,6.96-.07,3.57-.44,5.05-1.37,5.65-1.42.92-5.02.92-10.46.92-2.98,0-9.44-.28-12.66-.42.17-1.67.78-4.06,2.47-5.96Z"/>
  <path d="m29.54,18.44c-.84-.72-2.1-.62-2.82.22-.72.84-.62,2.1.22,2.82l.59.5c.38.32.84.48,1.3.48.56,0,1.13-.24,1.52-.7.72-.84.62-2.1-.22-2.82l-.59-.5Z"/>
  <path d="m46.9,25.7c1.42.97,3.08,1.12,4.53.41,1.26-.62,2.12-1.8,2.19-3.02.06-1-.4-1.92-1.24-2.46-.92-.6-2.16-.34-2.77.58-.26.39-.36.84-.32,1.27-.04-.02-.09-.05-.14-.08-.34-.23-.48-.74-.35-1.25.24-.9,1.24-1.5,2.68-1.62,2.08-.16,3.81-.51,5.07-.76.38-.08.81-.16,1.18-.22-.32,1.84-1.65,5.38-3.79,6.06-1.05.34-1.63,1.46-1.29,2.52.27.85,1.06,1.39,1.9,1.39.2,0,.41-.03.61-.1,3.18-1.02,4.88-4.25,5.62-6.08.29-.72,1.68-4.42.62-6.35-1.11-2.04-3.41-1.58-5.64-1.14-1.23.24-2.76.55-4.61.69-3.78.3-5.69,2.56-6.23,4.58-.57,2.15.22,4.39,1.96,5.58Z"/>
</svg>