<?xml version="1.0" encoding="UTF-8"?>
<svg id="Layer_13" data-name="Layer 13" xmlns="http://www.w3.org/2000/svg" viewBox="0 0 120 120">
  <path d="m111.8,61.47l-3.97-.48c.11-.92.17-1.87.17-2.83,0-2.08-.28-4.14-.82-6.12l3.86-1.06c.64,2.33.96,4.74.96,7.18,0,1.12-.07,2.23-.19,3.31Z"/>
  <path d="m8.2,61.47c-.14-1.13-.2-2.24-.2-3.31,0-2.4.32-4.81.96-7.17l3.86,1.04c-.54,2.02-.82,4.09-.82,6.13,0,.91.06,1.86.18,2.83l-3.97.48Z"/>
  <path d="m60,112c-13.61,0-26.46-5.26-36.2-14.8-9.72-9.52-15.26-22.26-15.61-35.87v-.1c-.02-.35-.02-.78-.02-1.23,0-2.88.25-5.84.75-8.82l3.95.66c-.46,2.76-.69,5.5-.69,8.16,0,.39,0,.76.02,1.14v.15c.32,12.51,5.44,24.27,14.41,33.06,8.98,8.81,20.85,13.66,33.4,13.66s24.42-4.85,33.41-13.66c8.97-8.79,14.09-20.55,14.41-33.11l4,.1c-.35,13.61-5.89,26.34-15.61,35.87-9.74,9.54-22.6,14.8-36.21,14.8Z"/>
  <path d="m85,85.24c-14.89,0-27-12.15-27-27.08,0-12.73-10.32-23.08-23-23.08-10.33,0-19.45,6.97-22.18,16.96l-3.9-.86C13.18,26.16,34.66,8,60,8s46.83,18.16,51.08,43.17c.5,2.92.75,5.88.75,8.82,0,.44,0,.86-.01,1.28v.25c-1.7,13.52-13.22,23.71-26.82,23.71ZM35,31.08c14.89,0,27,12.15,27,27.08,0,12.73,10.32,23.08,23,23.08,11.55,0,21.34-8.63,22.82-20.1,0-.38,0-.75,0-1.15,0-2.72-.23-5.46-.69-8.15h0c-3.93-23.09-23.75-39.84-47.14-39.84-18.1,0-34.06,10.04-42.18,25.28,4.73-3.91,10.75-6.21,17.18-6.21Z"/>
  <path d="m35,60.63c-4.61,0-8.36-3.76-8.36-8.38s3.75-8.4,8.36-8.4,8.36,3.77,8.36,8.4-3.75,8.38-8.36,8.38Zm0-12.78c-2.4,0-4.36,1.97-4.36,4.4s1.96,4.38,4.36,4.38,4.36-1.97,4.36-4.38-1.96-4.4-4.36-4.4Z"/>
  <path d="m85.07,75.25c-4.62,0-8.38-3.76-8.38-8.37s3.76-8.38,8.38-8.38,8.35,3.76,8.35,8.38-3.75,8.37-8.35,8.37Zm0-12.75c-2.42,0-4.38,1.97-4.38,4.38s1.96,4.37,4.38,4.37,4.35-1.96,4.35-4.37-1.95-4.38-4.35-4.38Z"/>
</svg>