<svg id="Symbols" xmlns="http://www.w3.org/2000/svg" viewBox="0 0 150 150"><defs><style>.cls-1{fill:#231f20;}</style></defs><title>healinghand-bold</title><path class="cls-1" d="M58,86.88a24.13,24.13,0,0,0,2,9.59,19.41,19.41,0,0,0,25.5,10.15,15.52,15.52,0,0,0,8.12-20.4,12.42,12.42,0,0,0-16.32-6.5,9.94,9.94,0,0,0-5.42,12.49l-4.7,1.69a15,15,0,0,1,8.15-18.78,17.43,17.43,0,0,1,22.89,9.12,20.53,20.53,0,0,1-10.74,27A24.4,24.4,0,0,1,55.41,98.44,34.07,34.07,0,0,1,53,85.88V57.81c0-2-2.24-3.43-3.86-3.45-3.1,0-4.85,3.06-4.85,5.37V92a31.94,31.94,0,0,0,.87,7.5,32.52,32.52,0,0,0,31.63,25c.52,0,1,0,1.56,0,15.4-.73,27.31-13.89,27.31-29.31V45.49a4,4,0,0,0-8,0V64.08a2.42,2.42,0,0,1-2.42,2.42h-.54a2.41,2.41,0,0,1-2.41-2.42V35.5a4,4,0,0,0-3.81-4,4.17,4.17,0,0,0-4.2,4.23V64.08A2.42,2.42,0,0,1,81.9,66.5h-.67a2.41,2.41,0,0,1-2.41-2.42V29.5a4,4,0,0,0-3.81-4,4.17,4.17,0,0,0-4.2,4.23V64.08a2.39,2.39,0,0,1-.71,1.71A2.42,2.42,0,0,1,66,64.08V35.5a4.06,4.06,0,0,0-1.16-2.83,4,4,0,0,0-2.62-1.16A4.15,4.15,0,0,0,58,35.72l0,26.17v2.49"/></svg>