<svg id="Symbols" xmlns="http://www.w3.org/2000/svg" viewBox="0 0 150 150"><defs><style>.cls-1{fill:#231f20;}</style></defs><title>kachinarattle-bold</title><path class="cls-1" d="M115,71.5A40.06,40.06,0,0,0,79.5,31.76V23.5h-9v8.26a40,40,0,0,0-3,79V126.5h15V110.78A40.06,40.06,0,0,0,115,71.5Zm-40,32a32,32,0,1,1,32-32A32,32,0,0,1,75,103.5Z"/><path class="cls-1" d="M97.64,72.58A9.53,9.53,0,0,0,95,71a18.47,18.47,0,0,0-.24-2.6c.18,0,.36.08.54.14a4.24,4.24,0,0,1,2.62,2.25l3.82-1.16a7.94,7.94,0,0,0-5.07-4.84,9.16,9.16,0,0,0-3-.59,21.73,21.73,0,0,0-1.12-2.39l.53,0h0A4.18,4.18,0,0,1,96.26,63l3.2-2.4A8,8,0,0,0,93,57.78a9.74,9.74,0,0,0-3.08.49,18.15,18.15,0,0,0-1.87-1.85,4.93,4.93,0,0,1,.53-.22,4.2,4.2,0,0,1,3.45,0l2.19-3.35a8,8,0,0,0-7-.45,9.61,9.61,0,0,0-2.71,1.49,20.75,20.75,0,0,0-2.4-1.09l.41-.38a4.24,4.24,0,0,1,3.26-1.14l.91-3.89a8,8,0,0,0-6.73,2,10,10,0,0,0-2,2.35,20.57,20.57,0,0,0-2.62-.22c.08-.17.16-.33.26-.5a4.19,4.19,0,0,1,2.67-2.18l-.48-4A7.94,7.94,0,0,0,72.14,49,9.43,9.43,0,0,0,71,51.9a21.83,21.83,0,0,0-2.55.71,5.21,5.21,0,0,1,.08-.55,4.19,4.19,0,0,1,1.76-3l-1.81-3.57a7.94,7.94,0,0,0-3.89,5.83,9.64,9.64,0,0,0-.05,3.12A18.87,18.87,0,0,0,62.42,56a4.88,4.88,0,0,1-.12-.55A4.16,4.16,0,0,1,62.94,52L60,49.3a8,8,0,0,0-1.67,6.82,9.85,9.85,0,0,0,1,2.94,19.43,19.43,0,0,0-1.5,2.17q-.16-.24-.3-.48A4.22,4.22,0,0,1,57,57.34l-3.68-1.57a7.93,7.93,0,0,0,.77,7,9.64,9.64,0,0,0,1.95,2.41,19.36,19.36,0,0,0-.68,2.54c-.14-.1-.29-.21-.43-.33a4.23,4.23,0,0,1-1.69-3l-4-.22a8,8,0,0,0,3.11,6.29A9.82,9.82,0,0,0,55,72a18.47,18.47,0,0,0,.24,2.59c-.18,0-.36-.08-.54-.14a4.24,4.24,0,0,1-2.62-2.25l-3.82,1.16a7.94,7.94,0,0,0,5.07,4.84,9.42,9.42,0,0,0,3,.59,22.63,22.63,0,0,0,1.12,2.39l-.53,0h0A4.18,4.18,0,0,1,53.74,80l-3.2,2.4A8,8,0,0,0,57,85.22h0a9.56,9.56,0,0,0,3-.49,18.15,18.15,0,0,0,1.87,1.85,4.93,4.93,0,0,1-.53.22,4.2,4.2,0,0,1-3.45,0l-2.19,3.35a6.88,6.88,0,0,0,3.77,1,9.33,9.33,0,0,0,3.23-.59,9.61,9.61,0,0,0,2.71-1.49,20.75,20.75,0,0,0,2.4,1.09l-.41.38a4.24,4.24,0,0,1-3.26,1.14l-.91,3.89a5.65,5.65,0,0,0,1.37.16A8.56,8.56,0,0,0,70,93.61a10,10,0,0,0,2-2.35,20.57,20.57,0,0,0,2.62.22c-.08.17-.16.33-.26.5a4.19,4.19,0,0,1-2.67,2.18l.48,4A7.94,7.94,0,0,0,77.86,94,9.43,9.43,0,0,0,79,91.1a21.83,21.83,0,0,0,2.55-.71,5.21,5.21,0,0,1-.08.55,4.19,4.19,0,0,1-1.76,3l1.81,3.57a7.94,7.94,0,0,0,3.89-5.83,9.64,9.64,0,0,0,.05-3.12A18.87,18.87,0,0,0,87.58,87a4.88,4.88,0,0,1,.12.55A4.16,4.16,0,0,1,87.06,91L90,93.7a8,8,0,0,0,1.67-6.82,9.85,9.85,0,0,0-1-2.94,19.43,19.43,0,0,0,1.5-2.17q.16.24.3.48A4.22,4.22,0,0,1,93,85.66l3.68,1.57a7.93,7.93,0,0,0-.77-7,9.64,9.64,0,0,0-2-2.41,19.36,19.36,0,0,0,.68-2.54c.14.1.29.21.43.33a4.23,4.23,0,0,1,1.69,3l4,.22A8,8,0,0,0,97.64,72.58ZM75,83.5a12,12,0,1,1,12-12A12,12,0,0,1,75,83.5Z"/><path class="cls-1" d="M81,68.91a3.08,3.08,0,0,1-2,1.37,4.34,4.34,0,0,1-1.27.12,7.81,7.81,0,0,0,0-3.87,6.77,6.77,0,0,0-3.71-4.7l-1.53,3.69a3.08,3.08,0,0,1,1.37,2,4.34,4.34,0,0,1,.12,1.27,7.81,7.81,0,0,0-3.87,0,6.77,6.77,0,0,0-4.7,3.71L69,74.09a3.08,3.08,0,0,1,2-1.37,4.34,4.34,0,0,1,1.27-.12,7.81,7.81,0,0,0,0,3.87,6.77,6.77,0,0,0,3.71,4.7l1.53-3.69a3.08,3.08,0,0,1-1.37-2,4.06,4.06,0,0,1-.12-1.28,7.66,7.66,0,0,0,1.8.24A8.29,8.29,0,0,0,80,74.15a6.77,6.77,0,0,0,4.7-3.71Z"/></svg>