<svg id="Symbols" xmlns="http://www.w3.org/2000/svg" viewBox="0 0 150 150"><defs><style>.cls-1{fill:#231f20;}</style></defs><title>tokchii-bold</title><path class="cls-1" d="M125.22,74.8c-.23-3.41-2.94-7.38-9.81-7.38h-.11a5.87,5.87,0,0,1-1-.06,6.54,6.54,0,0,1,2.61-3,7.73,7.73,0,0,0,3.52-7,10.39,10.39,0,0,0-5.43-8.78c-1.92-1-5.89-2.22-11,1-1.06.68-2,1.31-2.86,1.88s-1.66,1.1-2.38,1.55c-.23-.66-.52-1.63-.88-3.06C96,42,90.62,40,86.63,40.62A10,10,0,0,0,78.44,51.1v.12a2.58,2.58,0,0,1-1.68.54,7.81,7.81,0,0,1-6.25-3c-2.9-3.52-7.24-4.64-10.8-2.78-3.23,1.69-5.76,6-4.14,11.74a2.87,2.87,0,0,1,.12.59,5.47,5.47,0,0,1-1.81.33A9.28,9.28,0,0,0,45.11,56c-4.07.82-7,3.8-7.42,7.13A8.8,8.8,0,0,1,42,60.71c3.53-.93,6.94-.07,7.62,1.93S48,67,44.48,68a9.47,9.47,0,0,1-5.4,0,9.19,9.19,0,0,0,9,2.8,9.7,9.7,0,0,0,6.34-4.14c2-.09,5.47-.66,7.64-3.34,1.15-1.43,2.3-3.94,1.23-7.74-.43-1.54,0-2.37.09-2.46s.46.14,1,.75c4.82,5.85,12,7,16.65,5.12a8.27,8.27,0,0,0,5.43-8.5A2,2,0,0,1,88,48.51c.94-.16,1.82,1.58,2.27,3.36,1.1,4.37,2.28,8.09,5.58,9.37s6-.59,9.88-3.15c.81-.54,1.72-1.15,2.73-1.79,1.39-.89,2.45-1.07,3.15-.53a2.58,2.58,0,0,1,.93,1.92c-3.92,2.55-7.28,7.62-5.95,12.27.47,1.65,2.26,5.48,8.81,5.46a5.9,5.9,0,0,1,1.83.22A4,4,0,0,1,114.24,78c-4.13.54-6.39,4.9-7.12,13.71a12.36,12.36,0,0,1-5.78,8.51,9.1,9.1,0,0,1-12.5-3.06A6.5,6.5,0,0,1,91,88.21a4.47,4.47,0,0,1,3.33-.51,4.41,4.41,0,0,1,2.71,2,2.63,2.63,0,0,1,.35,1.79l7.91,1.21a10.65,10.65,0,0,0-1.43-7.16,12.38,12.38,0,0,0-17-4.17A14.48,14.48,0,0,0,82,101.27,17,17,0,0,0,92.56,109a17.34,17.34,0,0,0,4.09.5,17,17,0,0,0,8.85-2.5A20.33,20.33,0,0,0,115,92.88l0-.32v-.14a25,25,0,0,1,1.27-6.72C121.5,84.49,125.55,79.64,125.22,74.8Z"/><path class="cls-1" d="M44.31,66.63c2.36-.77,3.94-2.45,3.51-3.77s-2.68-1.75-5-1-3.94,2.45-3.51,3.76S41.94,67.39,44.31,66.63Zm-.92-2.86A5.41,5.41,0,0,1,45,63.5a2.87,2.87,0,0,1,.65.06,4.58,4.58,0,0,1-2,1.16,5.13,5.13,0,0,1-1.63.28,3.63,3.63,0,0,1-.66-.06A4.68,4.68,0,0,1,43.39,63.77Z"/><ellipse class="cls-1" cx="49.97" cy="53.16" rx="2" ry="3.5" transform="translate(-17.38 81.21) rotate(-69.39)"/><path class="cls-1" d="M53.45,69.64c-1.26,1.46-1.61,3.24-.77,4s2.54.12,3.8-1.35,1.61-3.23.77-4S54.71,68.18,53.45,69.64Z"/><path class="cls-1" d="M37.39,63.5s-6.38.41-8.63,5.1c0,0,5.1,2.35,9.85-.61C34.16,66.82,37.39,63.5,37.39,63.5Z"/></svg>