<svg id="Symbols" xmlns="http://www.w3.org/2000/svg" viewBox="0 0 150 150"><title>taknokwumu-bold</title><path d="M77,25a50,50,0,1,0,50,50A50.06,50.06,0,0,0,77,25Zm0,92a42,42,0,1,1,42-42A42,42,0,0,1,77,117Z"/><path d="M101.33,48.48l-.11-.09a6,6,0,0,0,.12-1.2,6.5,6.5,0,1,0-12.49,2.52,14.11,14.11,0,0,1-6.78,5.63A9.52,9.52,0,0,0,84,49.5c0-4.69-3.14-8.5-7-8.5s-7,3.81-7,8.5a9.55,9.55,0,0,0,1.93,5.85,14.11,14.11,0,0,1-6.78-5.63,6.5,6.5,0,1,0-12.49-2.53,6.78,6.78,0,0,0,.13,1.28l-.06.05a35.47,35.47,0,0,0,2.48,53.73l-.53.52,5.52,5.78,4-3.86a4,4,0,0,0,1.22-3.26l-.61-6.6L71.11,91c1.36,1.1,2.62,2,3.63,2.72l-8.55,13a1.49,1.49,0,0,0,.1,1.77h0l.06.07.05.05a12.16,12.16,0,0,0,4.69,3.29,16.06,16.06,0,0,0,11.81,0,12.1,12.1,0,0,0,4.7-3.3l0-.05a.6.6,0,0,0,.08-.08h0a1.49,1.49,0,0,0,.1-1.77l-8.55-13c1-.7,2.26-1.62,3.62-2.71l6.27,3.83-.61,6.6a4,4,0,0,0,1.22,3.26l4,3.86,5.52-5.78-.49-.47a35.47,35.47,0,0,0,2.5-53.82Zm-6.49-2.79a1.5,1.5,0,1,1-1.5,1.5A1.5,1.5,0,0,1,94.84,45.69ZM58.55,89.3a4,4,0,0,0-1.91,3.37,27.45,27.45,0,0,1,1.58-38.33l.23-.22a21.82,21.82,0,0,0,2.47,3.18,23.44,23.44,0,0,0-2.06,31.81Zm.61-43.61a1.5,1.5,0,1,1-1.5,1.5A1.5,1.5,0,0,1,59.16,45.69ZM43.6,74.33a33.59,33.59,0,0,1,10-23.83,6.5,6.5,0,0,0,3,2.65,29.46,29.46,0,0,0,.32,42.66l.41,4.44-.63.6A33.54,33.54,0,0,1,43.6,74.33Zm17,13.73A21.46,21.46,0,0,1,62.34,58.7l-.11-.12a22.1,22.1,0,0,0,3.54,2.63A18.63,18.63,0,0,0,60,74.82c0,3.62,2.22,7.29,5.06,10.5Zm10.6,20.61a9,9,0,0,1-1.83-1.27l4.14-6.32Zm4.82-9V110a12.62,12.62,0,0,1-3-.58Zm2,0,3,9.73a12.21,12.21,0,0,1-3,.57Zm2.49,1.34,4.16,6.34a9.25,9.25,0,0,1-1.84,1.28ZM77,85.49c-4.7-3.67-9-8.3-9-10.67a10.32,10.32,0,0,1,5.43-9.31h7.13A10.33,10.33,0,0,1,86,74.82C86,77,82,81.61,77,85.49Zm11.93-.17C91.77,82.11,94,78.44,94,74.82a18.6,18.6,0,0,0-5.78-13.61,22.17,22.17,0,0,0,7.08-6.72l.24.21,1-1.09-.69.73a27.46,27.46,0,0,1,1.48,38.45,4,4,0,0,0-1.91-3.49l-.24-.15a23.47,23.47,0,0,0-2.07-31.91L91.76,58.7a21.46,21.46,0,0,1,1.73,29.4Zm8.44,15.58-.68-.65.4-4.33a29.47,29.47,0,0,0,.4-42.8,6.57,6.57,0,0,0,3-2.69,33.46,33.46,0,0,1-3.09,50.47Z"/></svg>