<svg id="Symbols" xmlns="http://www.w3.org/2000/svg" viewBox="0 0 150 150"><defs><style>.cls-1{fill:#231f20;}</style></defs><title>nakwachrounded-bold</title><g id="Bold"><path class="cls-1" d="M116.61,68.54a29.81,29.81,0,0,1-1.42,9.14h-8.57a21.55,21.55,0,0,0,2-9.14,22,22,0,0,0-44,0,21.56,21.56,0,0,0,2,9.14H58a30,30,0,1,1,58.58-9.14Z"/><path class="cls-1" d="M33.39,81.46a29.81,29.81,0,0,1,1.42-9.14h8.57a21.55,21.55,0,0,0-2,9.14,22,22,0,0,0,44,0,21.56,21.56,0,0,0-2-9.14H92a30,30,0,1,1-58.58,9.14Z"/></g></svg>