<svg id="Symbols" xmlns="http://www.w3.org/2000/svg" viewBox="0 0 150 150"><defs><style>.cls-1{fill:#231f20;}</style></defs><title>kuwanlelenta-bold</title><polygon class="cls-1" points="68.47 91.83 68.47 83.83 53.47 83.83 68.47 91.83"/><polygon class="cls-1" points="81.54 91.83 96.54 83.83 81.54 83.83 81.54 91.83"/><path class="cls-1" d="M120,95.09h-6c0-.94-.14-1.86-.25-2.79l6-1L119,87.31l-6,1c-.21-.91-.45-1.82-.72-2.71L118,83.58l-1.37-3.76-5.68,2.07c-.37-.86-.77-1.7-1.2-2.53l5.25-3-2-3.47-5.25,3c-.51-.79-1-1.56-1.61-2.3l4.65-3.9-2.57-3.06-4.66,3.9q-.94-1-2-2l3.91-4.65-3.07-2.57L98.49,66c-.74-.56-1.51-1.09-2.29-1.6l3-5.26-3.46-2-3,5.25c-.83-.42-1.68-.83-2.54-1.19l2.07-5.69-3.76-1.37-2.07,5.69c-.89-.28-1.79-.51-2.71-.72l1-6-3.94-.7-1,6c-.92-.12-1.85-.21-2.79-.26V44l10,5.77,2-3.46L82.46,42.5H90v-4H82.46L89,34.73l-2-3.46L80.46,35l3.77-6.52-3.46-2L77,33V25.5H73V33l-3.77-6.52-3.46,2L69.54,35,63,31.27l-2,3.46,6.53,3.77H60v4h7.54L61,46.27l2,3.46L73,44V58.14c-.94,0-1.87.14-2.79.26l-1-6-3.94.7,1,6c-.92.21-1.82.45-2.71.72l-2.07-5.69-3.76,1.37,2.07,5.69c-.86.37-1.71.77-2.54,1.2l-3-5.26-3.46,2,3,5.26c-.78.51-1.55,1-2.29,1.61l-3.9-4.65-3.07,2.57,3.91,4.65q-1,1-2,2l-4.66-3.9L39.24,69.7l4.65,3.9c-.56.75-1.09,1.52-1.6,2.3l-5.26-3-2,3.47,5.25,3c-.42.83-.83,1.67-1.19,2.53L33.4,79.82,32,83.58l5.69,2.07c-.28.89-.51,1.8-.72,2.71l-6-1-.69,3.94,6,1c-.12.93-.21,1.85-.26,2.79H30v4h6.06a39,39,0,0,0,2.07,10.72l.94,2.69H61v13h4v-13h4v13h4v-13h4v13h4v-13h4v13h4v-13h21.94l.93-2.69A38.66,38.66,0,0,0,114,99.09h6ZM88.86,104.5v-6H61.14v6H44.9a30.62,30.62,0,0,1-.9-7.41,31,31,0,1,1,61.11,7.41Z"/></svg>