<svg id="Symbols" xmlns="http://www.w3.org/2000/svg" viewBox="0 0 150 150"><defs><style>.cls-1{fill:#231f20;}</style></defs><title>kokopelli-bold</title><path class="cls-1" d="M79.11,94.49l18-12.33L108,94.78l3-2.62L86.94,64.35a14,14,0,0,0-7.49-25.53C74.59,30,65.19,28,64.75,27.88l-.81,3.91a19.87,19.87,0,0,1,11.15,7.59,14.45,14.45,0,0,0-1.6.57C65.36,34,56,36.15,55.55,36.25l.93,3.89a19.94,19.94,0,0,1,13.31,2.18,13.36,13.36,0,0,0-1.19,1.19c-9.88-2-17.49,3.94-17.84,4.22l2.48,3.14a19.66,19.66,0,0,1,13-3.66,14.23,14.23,0,0,0-.59,1.58c-9.77,2.42-14.16,11-14.36,11.37L54.84,62a19.94,19.94,0,0,1,10.22-8.79,14,14,0,0,0,.73,4.11c-2,1.21-3.91,2.56-5.36,3.68h-.08l-1.13,1a33.67,33.67,0,0,0-5.89,6.62h-.09l-1.16,2a33.93,33.93,0,0,0-4.61,17.11c0,4.87,1.85,10.21,3.34,14.5.2.6.4,1.17.59,1.73l2.52,7.59H37.29V122h8v-2.53H65l-3.26-9.84,19-4.92,7.72,13.38,10.72-6.72L95,104.57l-3.69,2.32L84.65,95.42,59.21,102l-.23-.69h0v0l-.47-1.42h0c0-.12-.08-.24-.13-.36-1.29-3.72-2.89-8.36-2.89-11.88A25.86,25.86,0,0,1,56.62,80ZM79,84.88,60.15,72.75a24.51,24.51,0,0,1,2.18-2.7L79.12,81l10.56-7.4,2.14,2.47Zm5.45-17.34L79,71.36,68.89,64.78c.51-.34,1-.66,1.53-1a13.9,13.9,0,0,0,8.62,3,13.74,13.74,0,0,0,4.18-.64ZM85,52.8a6,6,0,1,1-6-6A6,6,0,0,1,85,52.8Z"/></svg>