<svg id="Symbols" xmlns="http://www.w3.org/2000/svg" viewBox="0 0 150 150"><defs><style>.cls-1{fill:#231f20;}</style></defs><title>mongko-bold</title><path class="cls-1" d="M118.57,58.82v-4.5H100.69v-1.2h-3v1.2h-14l-4.31,4.62-.89-.22V57.05h-3v1.14a43.25,43.25,0,0,0-5.37-.33,52.78,52.78,0,0,0-7.63.63V57.05h-3v2l-.62.16L54.3,54.32H43.9v-1.2h-3v1.2H17.27l7.6,9.5-7.6,9.5H40.9v1.8h3v-1.8H54.31l4.5-4.84.69.18V78.88l3-2.29V69.24a52.53,52.53,0,0,0,7.63.62,43.74,43.74,0,0,0,5.37-.33v7.06l3,2.29V69c.32-.07.64-.15,1-.24l4.25,4.56h14v1.8h3v-1.8h17.88v-4.5h12v-10ZM97.69,69.12v.2H96.12v-11h1.57v.8h3v-.8h1.56v11h-1.56v-.2Zm-56.79,0v.2H39.33v-11H40.9v.8h3v-.8h1.56v11H43.9v-.2ZM35,58.32h1.32v11H35Zm17.56,11H48.46v-11h4.11l2.29,2.46c-1.36.81-2.23,1.82-2.23,3.08s.85,2.25,2.18,3Zm3.11-5.45c.38-.49,1.75-1.13,3.82-1.7v3.39C57.43,65,56.06,64.35,55.68,63.87Zm14.45,3a45,45,0,0,1-7.63-.64V61.51a45,45,0,0,1,7.63-.65,38,38,0,0,1,5.37.37V66.5A39,39,0,0,1,70.13,66.86Zm8.37-5a9.07,9.07,0,0,1,3.93,1.77l.22.24,0,.08c-.31.64-1.77,1.42-4.11,2Zm4.91,5.34a6.44,6.44,0,0,0,1.33-1.1h2.13a2.5,2.5,0,0,0,0-5H84.1c-.22-.17-.47-.34-.74-.51l2.08-2.22h7.68v11H85.44Zm43.16-2.33h-12v4.5h-9.32v-11h9.32v4.5h12Z"/><path class="cls-1" d="M69,75.88c-7,0-12,4.62-12,11a12,12,0,0,0,24,0C81,80.5,76,75.88,69,75.88Zm0,19a8,8,0,0,1-8-8c0-4.81,4.15-7,8-7s8,2.19,8,7A8,8,0,0,1,69,94.88Z"/><rect class="cls-1" x="97.69" y="61.13" width="3" height="2"/><rect class="cls-1" x="97.69" y="65.13" width="3" height="2"/><path class="cls-1" d="M100.69,77.3v-.18h-.12c-.65-1-1.2-1.72-1.36-1.91v-.06l0,0,0,0v.06c-.15.19-.7.92-1.36,1.91h-.11v.18a19.86,19.86,0,0,0-2.49,5.06c-.85,3.2-.14,8.24-.14,8.24s3.15-4,4-7.21l.12-.52a4.37,4.37,0,0,0,.12.52c.85,3.2,4,7.21,4,7.21s.72-5-.14-8.24A19.51,19.51,0,0,0,100.69,77.3Z"/><rect class="cls-1" x="40.9" y="61.13" width="3" height="2"/><rect class="cls-1" x="40.9" y="65.13" width="3" height="2"/><path class="cls-1" d="M43.9,77.3v-.18h-.12c-.65-1-1.21-1.72-1.36-1.91v0l0,0v.06c-.15.19-.71.92-1.36,1.91H40.9v.18a19.54,19.54,0,0,0-2.49,5.06c-.86,3.2-.14,8.24-.14,8.24s3.15-4,4-7.21c0-.17.09-.34.13-.52a4.37,4.37,0,0,0,.12.52c.85,3.2,4,7.21,4,7.21s.72-5-.14-8.24A19.83,19.83,0,0,0,43.9,77.3Z"/><rect class="cls-1" x="66" y="71.25" width="6" height="4"/></svg>