<svg id="Symbols" xmlns="http://www.w3.org/2000/svg" viewBox="0 0 150 150"><defs><style>.cls-1{fill:#231f20;}</style></defs><title>mongwikoro-bold</title><rect class="cls-1" x="31" y="102.21" width="88" height="14"/><path class="cls-1" d="M112.66,45.07l13.25-1.77-15-4.1L113,30.11,98.69,40.7l5.09-10.91H46.22l7.42,15.89L40.58,41.87l-1.12,3.84,12.81,3.74a29.05,29.05,0,0,0-2.58,3.85L37.58,59.94l1.92,3.51,7.69-4.22A29,29,0,0,0,46,67.46c0,12.46,15.31,24,23,29H31v4h88v-4H81c7.68-5,23-16.54,23-29A28.87,28.87,0,0,0,98.9,51L120,53ZM110,48,98.36,47l9.44-1.26Zm-3.32-8.23-.49,2.1-2.87.38Zm-19.3,6.3H76V37.79H91.22ZM72,37.79V46.1H62.66l-3.88-8.31ZM54,67.46A20.93,20.93,0,0,1,61.71,51.2l1.34-1.1h9V88.86C63.64,83.16,54,74.35,54,67.46ZM76,90.18V50.1H87l1.34,1.1A20.93,20.93,0,0,1,96,67.46C96,74.91,84.73,84.6,76,90.18Z"/></svg>