<svg id="Symbols" xmlns="http://www.w3.org/2000/svg" viewBox="0 0 150 150"><title>palulukang-bold</title><path d="M113.47,73.18a2,2,0,1,0,2,2A2,2,0,0,0,113.47,73.18Z"/><path d="M136.64,85.93l-1.18-3.82-2.93.91-.35-.19a12.06,12.06,0,0,0-6.41-10.73A11.4,11.4,0,0,0,123,71a11.07,11.07,0,0,0-3.38-4.27,28.55,28.55,0,0,0-2.09-14.7l-1.38-2.89-2,2.5a33.1,33.1,0,0,0-3,4.47,27.06,27.06,0,0,0-3.49-4.57l-2.28-2.25-1,3a32.88,32.88,0,0,0-1.39,5.6A26.2,26.2,0,0,0,99,55.06L96.21,53.5,96,56.69c-.54,9.45,2.41,14.17,5.43,16.54L94,78l-5.17-6-2.3-2.69-3,2-9.78,6.51-4.78-6-2.45-3-3.1,2.38-8,6.12-3.87-5L49.14,69,46,71.47l-23.3,18,3.78,6.93,18.47-6.56,5.15,6.7,2.43,3.17,3.18-2.43L63.84,91l4.3,5.35,2.29,2.85,3-2,10.08-6.7,5,5.85,2.26,2.63,2.92-1.85,17-10.77a10.73,10.73,0,0,0,2.2.22,11.17,11.17,0,0,0,3.15-.46,12.94,12.94,0,0,0,1.65,1.07,12.12,12.12,0,0,0,12.62-.73l.36.19,1,3.14,3.82-1.18-.63-2.06ZM115.08,57.28a24.43,24.43,0,0,1,.72,7.61,11.59,11.59,0,0,0-1.2-.25,22.18,22.18,0,0,0-1.2-4A20.71,20.71,0,0,1,115.08,57.28Zm-8,0a24,24,0,0,1,3.41,7.49,10.9,10.9,0,0,0-1.62.51,23.59,23.59,0,0,0-2.21-3.37A18.79,18.79,0,0,1,107.11,57.3ZM100,60.73a23.52,23.52,0,0,1,5.49,6.71,11.58,11.58,0,0,0-1.93,2.36C101.9,68.31,100.32,65.61,100,60.73Zm23.44,23.82a8.1,8.1,0,0,1-6.52-3.3,7,7,0,0,1-4,1.26,7.08,7.08,0,0,1-2.84-.6l0,0L91.6,93.68l-7.32-8.54-13,8.66-6.75-8.4L53.24,94.05l-6.92-9L25.11,92.59l23.3-18,6.3,8.2,11.14-8.55,7.07,8.8,12.82-8.54,7.43,8.66,12.67-8,.1.15a7,7,0,0,1,7-6.83h0a7,7,0,0,1,6.92,6.18h.19A8.1,8.1,0,0,1,128.18,83,8.19,8.19,0,0,1,123.45,84.55Zm8.91.63Z"/><polygon points="42.41 81.53 37.52 84.33 38.51 86.07 43.41 83.26 43.4 84.93 47.37 79.84 40.98 80.69 42.41 81.53"/><polygon points="60.5 82.18 53.37 87.65 54.59 89.24 61.72 83.76 61.93 85.41 65.18 79.84 58.96 81.54 60.5 82.18"/><polygon points="80.5 81.64 74.45 85.67 75.55 87.34 81.61 83.31 81.86 84.61 85.01 79.84 79.4 80.91 80.5 81.64"/><polygon points="89.93 83.83 87.87 81.3 86.32 82.56 88.37 85.09 86.73 85.35 92.38 88.45 90.52 82.27 89.93 83.83"/><polygon points="70.28 83.84 68.22 81.31 66.67 82.57 68.73 85.1 67.08 85.36 72.74 88.46 70.87 82.29 70.28 83.84"/><polygon points="100.44 82.16 95.37 85.37 96.44 87.06 101.52 83.84 101.58 85.51 105.32 80.25 98.97 81.39 100.44 82.16"/></svg>