<svg id="Symbols" xmlns="http://www.w3.org/2000/svg" viewBox="0 0 150 150"><defs><style>.cls-1{fill:#231f20;}</style></defs><title>panaiyoikyasi-bold</title><path class="cls-1" d="M113.23,86.87l4-2-6-3v1h-7v-10H80.5V70.79A26.48,26.48,0,0,0,90,23c.79-4.93,4-8.64,7.81-8.64,2.93,0,5.62,2.23,7,5.81l.74,1.86,3.72-1.47-.74-1.86c-2-5.14-6.16-8.34-10.76-8.34-5.37,0-9.93,4.44-11.46,10.54a26.41,26.41,0,0,0-22.6,0c-1.53-6.1-6.09-10.54-11.46-10.54-4.6,0-8.73,3.2-10.76,8.34l-.74,1.86L44.46,22l.74-1.86c1.42-3.58,4.11-5.81,7-5.81,3.82,0,7,3.71,7.81,8.64A26.48,26.48,0,0,0,69.5,70.79v2.08H45.77v10h-7v-1l-6,3,4,2h0l2,1v-1h11v-10H56v32a7.89,7.89,0,0,1-2.75,1.91,6.63,6.63,0,0,1-5.49-.26c-3.13-1.59-4.61-6.16-3.23-10,.83-2.28,2.75-3.6,4.67-3.21l.8-3.92c-3.92-.79-7.71,1.58-9.23,5.77-2.07,5.72.26,12.41,5.19,14.91a10.69,10.69,0,0,0,4.84,1.17,10.51,10.51,0,0,0,3.92-.76,11.58,11.58,0,0,0,3.4-2.11L75,120.29l16.88-7.88a11.58,11.58,0,0,0,3.4,2.11,10.51,10.51,0,0,0,3.92.76,10.69,10.69,0,0,0,4.84-1.17c4.93-2.5,7.26-9.19,5.19-14.91-1.52-4.19-5.31-6.56-9.23-5.77l.8,3.92c1.92-.39,3.84.93,4.67,3.21,1.38,3.82-.1,8.39-3.23,10a6.63,6.63,0,0,1-5.49.26A7.89,7.89,0,0,1,94,108.89v-32h6.23v10h11v1l2-1ZM86,104.12H81.53V99.75h-4V97H74.62V94.78h3.91V97.5h6V88H73.62V86h3.75V83.37h4.16v-2.5H86ZM75,52.78a5,5,0,1,1-5,5A5,5,0,0,1,75,52.78ZM56.5,44.87A18.5,18.5,0,1,1,83.22,61.42,8.87,8.87,0,0,0,84,57.78,9,9,0,0,0,77,49V39.25A8,8,0,0,1,83,47v2h6.06V45H86.82a12,12,0,0,0-.58-2.17l1.93-1.12-2-3.47-1.93,1.12a12,12,0,0,0-1.59-1.6l1.11-1.93-3.46-2-1.12,1.94A12.3,12.3,0,0,0,77,35.16V32.93H73v2.23a12.3,12.3,0,0,0-2.18.59L69.7,33.81l-3.46,2,1.11,1.93a12,12,0,0,0-1.59,1.6l-1.93-1.12-2,3.47,1.93,1.12A12,12,0,0,0,63.18,45H60.94v4H67V47a8,8,0,0,1,6-7.73V49a9,9,0,0,0-7,8.77,8.87,8.87,0,0,0,.78,3.64A18.5,18.5,0,0,1,56.5,44.87Zm17,26.46c.5,0,1,0,1.5,0s1,0,1.5,0v1.54h-3Zm.87,9.54V83H70.62v2.5H66.47V91H81.56v3.5l0-2.72H66.47V97.5h5.15V100H74.5v2.75h4v1.37H64V80.87Zm-6.52,27.25h14.3L75,111.46Z"/><rect class="cls-1" x="72.13" y="55.21" width="2" height="2"/><rect class="cls-1" x="75.88" y="55.21" width="2" height="2"/><rect class="cls-1" x="73" y="58.71" width="4" height="2"/><path class="cls-1" d="M86.92,126.8v-6.18h-4v9.23h1.3l.1.06a3,3,0,1,1-4.24,3v-.2a10.87,10.87,0,0,0-11-10,9.17,9.17,0,0,0-9.16,9.17,7.74,7.74,0,0,0,7.73,7.73A6.59,6.59,0,0,0,74.25,133a5.65,5.65,0,0,0-4.65-5.58l-.71,3.94A1.65,1.65,0,0,1,70.25,133a2.59,2.59,0,0,1-2.58,2.59,3.74,3.74,0,0,1-3.73-3.73,5.17,5.17,0,0,1,5.16-5.17,6.84,6.84,0,0,1,7,6.32c0,.1,0,.21,0,.31v0h0a7,7,0,1,0,10.81-6.6Z"/></svg>