<svg id="Symbols" xmlns="http://www.w3.org/2000/svg" viewBox="0 0 150 150"><defs><style>.cls-1{fill:#231f20;}</style></defs><title>saviki-bold</title><path class="cls-1" d="M111.74,42.77c-.46,0-.92,0-1.39.06a39,39,0,0,0-70.7,0c-.47,0-.93-.06-1.39-.06a16.5,16.5,0,1,0,0,33c.46,0,.92,0,1.38-.06A39.39,39.39,0,0,0,50.06,89.23c-.48.65-.93,1.32-1.36,2A35.08,35.08,0,0,0,45,99.38a36.28,36.28,0,0,0-1.42,7.48,33.38,33.38,0,0,0-.12,4.6,10.74,10.74,0,0,0-.4,7.09c1.28,4.8,5.14,8,8.6,7s5.24-5.57,4-10.37a10.48,10.48,0,0,0-4.36-6.28c0-.51,0-1,.07-1.61a29.61,29.61,0,0,1,1-5.89,27.38,27.38,0,0,1,2.7-6.5c.32-.54.67-1.08,1-1.62a38.87,38.87,0,0,0,39.43-.82q.65.85,1.23,1.71A28.28,28.28,0,0,1,100,100.9l.5,1.65c.07.27.16.54.23.8l.15.78a23.09,23.09,0,0,1,.52,3c.06.5.12,1,.17,1.47l0,.35v0c0,.07,0-.08,0-.06v.27l0,.64c0,.85,0,1.62,0,2.32-.06,1.41-.18,2.51-.28,3.26s-.17,1.16-.17,1.16l2,.51s.11-.39.31-1.2a32.82,32.82,0,0,0,.65-3.46c.1-.75.18-1.59.24-2.5l0-.7c0-.15,0-.19,0-.42v-.36c0-.47,0-1,0-1.48a26.65,26.65,0,0,0-.27-3.36c0-.31-.07-.61-.11-.92s-.12-.61-.19-.92c-.13-.61-.26-1.24-.4-1.89a32.3,32.3,0,0,0-3.15-7.9c-.39-.69-.81-1.37-1.26-2.06a39.28,39.28,0,0,0,11.34-14.25c.46,0,.92.06,1.38.06a16.5,16.5,0,1,0,0-33Zm-82,16.5a8.52,8.52,0,0,1,7.16-8.39,38.67,38.67,0,0,0,0,16.77A8.5,8.5,0,0,1,29.76,59.27Zm31.94,28a23.64,23.64,0,0,1,5.09-3,12.64,12.64,0,0,1,2-.75l1-.31c.16,0,.33-.11.5-.15a5.54,5.54,0,0,0,9.83-.18,27.48,27.48,0,0,1,3.59,1,24.86,24.86,0,0,1,5.65,2.88,30.88,30.88,0,0,1-27.69.55Zm32.08-3.35A28.91,28.91,0,0,0,81,77.22c-.66-3-3-5.26-5.8-5.26a6.21,6.21,0,0,0-5.74,4.93c-.86.12-1.62.37-2.43.55a19.33,19.33,0,0,0-2.61.83,31,31,0,0,0-8.86,5.11,31,31,0,1,1,38.24.53Zm19.3-16.26a38.67,38.67,0,0,0,0-16.77,8.49,8.49,0,0,1,0,16.77Z"/><circle class="cls-1" cx="87" cy="53.77" r="7"/><circle class="cls-1" cx="63" cy="53.77" r="7"/></svg>