<svg id="Symbols" xmlns="http://www.w3.org/2000/svg" viewBox="0 0 150 150"><defs><style>.cls-1{fill:#231f20;}</style></defs><title>skunkritual-bold</title><path class="cls-1" d="M75,47a28,28,0,1,0,28,28A28,28,0,0,0,75,47Zm0,52A24,24,0,1,1,99,75,24,24,0,0,1,75,99Z"/><path class="cls-1" d="M75,52A23,23,0,1,0,98,75,23,23,0,0,0,75,52Zm0,42A19,19,0,1,1,94,75,19,19,0,0,1,75,94Z"/><path class="cls-1" d="M130.57,75l2-3.5-5.25.75a14.94,14.94,0,0,0-3-7.06l-.81-.93-9.36,2.38A40.13,40.13,0,0,0,83.36,35.88l2.38-9.38-.93-.81a15,15,0,0,0-7.06-3l.75-5.25-3.5,2-3.5-2,.75,5.25a14.94,14.94,0,0,0-7.06,3l-.93.81,2.38,9.36A40.13,40.13,0,0,0,35.88,66.64l-9.36-2.38-.81.93a14.94,14.94,0,0,0-3,7.06l-5.25-.75,2,3.5-2,3.5,5.25-.75a14.88,14.88,0,0,0,3,7l.81.94,9.38-2.38a40.13,40.13,0,0,0,30.76,30.76l-2.38,9.36.93.81a14.94,14.94,0,0,0,7.06,3l-.75,5.25,3.5-2,3.5,2-.75-5.25a15,15,0,0,0,7.06-3l.93-.81-2.38-9.38a40.13,40.13,0,0,0,30.76-30.76l9.38,2.38.81-.94a14.88,14.88,0,0,0,3-7l5.25.75ZM68.78,28.05a12.75,12.75,0,0,1,12.44,0l-1.83,7.2c-1-.11-1.92-.18-2.89-.21V30h-3V35c-1,0-1.94.1-2.89.21ZM28.05,81.22a12.75,12.75,0,0,1,0-12.44l7.2,1.83c-.11,1-.18,1.92-.21,2.89H30v3H35c0,1,.1,1.94.21,2.89ZM81.22,122a12.75,12.75,0,0,1-12.44,0l1.83-7.2c1,.11,1.92.18,2.89.21v5.09h3V115c1,0,1.94-.1,2.89-.21ZM75,107a32,32,0,1,1,32-32A32,32,0,0,1,75,107Zm47-25.78-7.2-1.83c.11-1,.18-1.92.21-2.89h5.09v-3H115c0-1-.1-1.94-.21-2.89l7.2-1.83a12.75,12.75,0,0,1,0,12.44Z"/><path class="cls-1" d="M79.63,69c3.56.55,5.45,4.82,2.13,6.71,0,0-1.47-9.06-12.49-4.17,1-3.74-5.74-4-4.31,1.76l-1.31,2.85,1.23-.84v1.16l1.45-2,1.12.64-1,3.67-5.34.48L61.8,82,69,81s.48-1.44,1.13-4c0,0,3.29,3.71,6.84,1.69a5.46,5.46,0,0,1,.74,1s-4.2.85-4,3.59c0,0,6.39-2.16,7.82-3.32,3,.48,6.1-2.19,7-5.12C89.94,70.43,86.25,62.82,79.63,69ZM66.8,71.85a.38.38,0,0,1-.39-.39.4.4,0,0,1,.39-.39.39.39,0,0,1,.39.39A.38.38,0,0,1,66.8,71.85Z"/></svg>