<svg id="Symbols" xmlns="http://www.w3.org/2000/svg" viewBox="0 0 150 150"><defs><style>.cls-1{fill:#1d1d1b;}</style></defs><title>tapuatrounded-bold</title><path class="cls-1" d="M75,27a48,48,0,0,0,0,96,46.71,46.71,0,0,0,9.1-.88,2.66,2.66,0,0,0,.39-.07.9.9,0,0,0,.16,0l.12,0,.4-.08.31-.08A48,48,0,0,0,75,27Zm9.64,90.93h0l-.23.06-.08,0-.42.09-.12,0-.22,0h-.07A10,10,0,0,1,72,108.58V98.8a23.67,23.67,0,0,0,3,.2,24,24,0,1,0-7-1.07v10.7h0v.1a14,14,0,0,0,5,10.22,44,44,0,1,1,11.7-1ZM72,90.18V75a2.5,2.5,0,0,1,5,0,2.4,2.4,0,0,1-.45,1.39,6.93,6.93,0,0,0-.79.86,8,8,0,0,0,6.24,13,8,8,0,0,0,4.49-1.38l.14-.11h0l.09-.08a7.39,7.39,0,0,0,.75-.61l.28-.3a7.17,7.17,0,0,0,.52-.58c.21-.23.4-.47.6-.71s.32-.36.47-.55.37-.53.55-.79.28-.39.41-.59.32-.56.47-.84.25-.41.35-.62.27-.58.4-.87.2-.44.29-.66.21-.61.31-.91.16-.44.23-.67.15-.65.23-1,.11-.44.15-.66.11-.7.15-1,.07-.41.09-.61c0-.57.08-1.13.08-1.7a18,18,0,1,0-35.47,4.35l1.94-.48-1.91.59.06.24c0,.07.05.14.07.23a.14.14,0,0,1,0,.06h0a.19.19,0,0,1,0,.07,4.85,4.85,0,0,0,4.55,3.1,4.8,4.8,0,0,0,4.84-4.75,4.69,4.69,0,0,0-.11-1c0-.09,0-.18-.08-.32a7.7,7.7,0,0,1-.24-1.94,8,8,0,0,1,16,0,7.61,7.61,0,0,1-.12,1.35,7.87,7.87,0,0,1-2,4l2.94,2.71a11.77,11.77,0,0,0,3-6.07,11.3,11.3,0,0,0,.18-2,12,12,0,0,0-24,0,11.49,11.49,0,0,0,.36,2.91l.06.23a.41.41,0,0,1,0,.11.8.8,0,0,1-.84.75.83.83,0,0,1-.77-.43l-.1-.34A14,14,0,1,1,89,75a13.37,13.37,0,0,1-.08,1.42,13.88,13.88,0,0,1-3.64,8.08h0l-.06.06a11.81,11.81,0,0,1-1.09,1,4,4,0,0,1-5.33-5.79,5.55,5.55,0,0,0,.85-.92A6.34,6.34,0,0,0,81,75a6.5,6.5,0,0,0-13,0V93.7A20,20,0,1,1,75,95a20.57,20.57,0,0,1-3-.24Z"/><path class="cls-1" d="M75,33a42,42,0,0,0-25.14,75.63c.88.65,1.7,1.21,2.52,1.73v.9h1.54A8,8,0,0,0,62.69,98.1V98l-.82-.6-.29-.19-.25-.18h0L61,96.91a26,26,0,1,1,27.58.24l-.17.1a25.34,25.34,0,0,1-6.91,2.92l-1,.23-.39.08H80.1l-.41.07h0l-.2,0a8,8,0,0,0,2.06,15.72,7.59,7.59,0,0,0,1.59-.16h0a41.47,41.47,0,0,0,11.53-4.1l.27-.15,0,0A42,42,0,0,0,75,33Zm17.83,75.55-.3.15h0a37.53,37.53,0,0,1-10.15,3.57l.38,2-.4-2a4.28,4.28,0,0,1-.81.08,4,4,0,0,1-1-7.85l.5-.09h.26l.19-.09,1.09-.26a29.84,29.84,0,0,0,8-3.4l.11-.07a30,30,0,1,0-32-.43l0,0v.89H60a4,4,0,0,1-4.58,6.46l0,0-.52-.32c-.84-.52-1.69-1.11-2.6-1.78a38,38,0,1,1,40.58,3.13Z"/><path class="cls-1" d="M75,39a36,36,0,0,0-23.91,62.88,35.5,35.5,0,0,0,4.46,3.4l2.16-3.36a32.63,32.63,0,0,1-4-3A32,32,0,1,1,92.14,102l-.14.08a30.5,30.5,0,0,1-5.06,2.59l-.36.14A32.25,32.25,0,0,1,82,106.23l.88,3.9A35.74,35.74,0,0,0,88,108.56l.47-.18a33.84,33.84,0,0,0,5.59-2.86l.14-.08A36,36,0,0,0,75,39Z"/></svg>