<svg id="Symbols" xmlns="http://www.w3.org/2000/svg" viewBox="0 0 150 150"><defs><style>.cls-1{fill:#231f20;}</style></defs><title>tawa-bold</title><path class="cls-1" d="M123,76.11a2.3,2.3,0,0,0,0-.26,2.11,2.11,0,0,0,0-.26,2,2,0,0,0,0-.26,2.67,2.67,0,0,0-.09-.26c0-.06,0-.13-.07-.19l0,0s0,0,0-.06a13.53,13.53,0,0,0-8.45-6.06,13.68,13.68,0,0,0,6.18-8.4.2.2,0,0,0,0-.07.14.14,0,0,0,0-.07c0-.06,0-.13,0-.2s0-.18,0-.27a2.38,2.38,0,0,0,0-.26,1.14,1.14,0,0,0-.06-.25,1,1,0,0,0-.11-.24,1.67,1.67,0,0,0-.12-.23,1.18,1.18,0,0,0-.18-.21,1.83,1.83,0,0,0-.13-.16l0,0,0,0a13.42,13.42,0,0,0-10-2.79,13.73,13.73,0,0,0,3-10s0,0,0-.07,0,0,0-.07a1.06,1.06,0,0,0-.06-.19c0-.09,0-.17-.08-.25s-.09-.16-.13-.24-.09-.14-.15-.21a1.62,1.62,0,0,0-.18-.19l-.2-.17a65.09,65.09,0,0,1-.41-.24l-.06,0-.06,0a13.44,13.44,0,0,0-10.29.83,13.79,13.79,0,0,0-.61-10.42l0-.06,0-.08c0-.06-.09-.1-.13-.16a1.39,1.39,0,0,0-.15-.19,1.43,1.43,0,0,0-.23-.2l-.17-.13a1.55,1.55,0,0,0-.29-.14l-.2-.08-.28,0-.19,0h-.14a13.47,13.47,0,0,0-9.38,4.33,13.75,13.75,0,0,0-4.09-9.57l-.07,0,0-.06-.16-.1-.23-.14-.25-.1a1,1,0,0,0-.25-.07,2.48,2.48,0,0,0-.27,0,2.26,2.26,0,0,0-.26,0,1.26,1.26,0,0,0-.27,0l-.18,0a.15.15,0,0,0-.07,0l-.08,0a13.58,13.58,0,0,0-7.34,7.31,13.57,13.57,0,0,0-7.08-7.57l-.07,0a.15.15,0,0,0-.07,0,.65.65,0,0,0-.19,0A1.22,1.22,0,0,0,68,27h-.53l-.26.07-.24.08a1.88,1.88,0,0,0-.24.14,1.29,1.29,0,0,0-.16.09l-.06.06-.07,0A13.78,13.78,0,0,0,62,36.93a13.43,13.43,0,0,0-9.21-4.66h-.15l-.2,0-.25,0a1.25,1.25,0,0,0-.27.1,1.45,1.45,0,0,0-.22.09,2,2,0,0,0-.24.16l-.19.16a1.24,1.24,0,0,0-.18.21,1.49,1.49,0,0,0-.12.14s0,.05,0,.07,0,0,0,.07a13.81,13.81,0,0,0-1,10.39,13.33,13.33,0,0,0-10.25-1.19l-.06,0-.06,0a1,1,0,0,0-.18.09,1.83,1.83,0,0,0-.24.13A1.12,1.12,0,0,0,39,43a1.71,1.71,0,0,0-.2.18l-.15.21a1.34,1.34,0,0,0-.13.23,1.86,1.86,0,0,0-.1.25c0,.06,0,.12-.07.19v.07a.14.14,0,0,0,0,.07,13.79,13.79,0,0,0,2.62,10.12A13.38,13.38,0,0,0,30.86,56.7l-.05,0,0,0-.14.15c-.06.07-.13.13-.18.2l-.13.23a1.79,1.79,0,0,0-.12.24,1.82,1.82,0,0,0-.07.25,2,2,0,0,0-.05.26,1.13,1.13,0,0,0,0,.26,1.47,1.47,0,0,0,0,.21s0,0,0,.06,0,0,0,.07A13.66,13.66,0,0,0,36,67.32a13.53,13.53,0,0,0-8.66,5.77l0,0,0,0a1.18,1.18,0,0,0-.07.2,1.22,1.22,0,0,0-.1.24,1.19,1.19,0,0,0-.05.26,2.3,2.3,0,0,0,0,.26,2.45,2.45,0,0,0,0,.27,2.17,2.17,0,0,0,0,.25,2.67,2.67,0,0,0,.09.26c0,.06,0,.13.07.19l0,0s0,0,0,.06a13.53,13.53,0,0,0,8.45,6.06,13.64,13.64,0,0,0-6.18,8.41.13.13,0,0,0,0,.06.14.14,0,0,0,0,.07c0,.06,0,.13,0,.2s0,.18,0,.27a2.38,2.38,0,0,0,0,.26,1.14,1.14,0,0,0,.06.25,1,1,0,0,0,.11.24,1.67,1.67,0,0,0,.12.23,9.17,9.17,0,0,1,.31.37l.06,0,0,0a13.07,13.07,0,0,0,8.37,2.85c.54,0,1.07,0,1.61-.08a13.76,13.76,0,0,0-3,10s0,0,0,.07,0,.05,0,.07a1.06,1.06,0,0,0,.06.19c0,.09,0,.17.08.25a2.36,2.36,0,0,0,.13.23,1.7,1.7,0,0,0,.15.22,1.62,1.62,0,0,0,.18.19l.2.17a1.09,1.09,0,0,0,.23.14,1.62,1.62,0,0,0,.18.1l.08,0,0,0a12.89,12.89,0,0,0,4.07.67,14.37,14.37,0,0,0,6.22-1.51,13.81,13.81,0,0,0,.61,10.43l0,.06,0,.08c0,.06.09.1.13.16s.09.13.15.19l.21.19.19.14.26.12a1.45,1.45,0,0,0,.22.09,2.47,2.47,0,0,0,.29.06c.07,0,.13,0,.19,0h.14a13.47,13.47,0,0,0,9.38-4.33,13.75,13.75,0,0,0,4.09,9.57l.08.06s0,0,0,0a.41.41,0,0,0,.11.07.38.38,0,0,0,.13.09l.19.1.13.06.23.07a.53.53,0,0,0,.12,0,2.2,2.2,0,0,0,.36,0h0a2.52,2.52,0,0,0,.54-.08l.06,0,.06,0a.32.32,0,0,0,.09,0,13.58,13.58,0,0,0,7.34-7.31,13.57,13.57,0,0,0,7.08,7.57l.09,0,0,0,.17.05.12,0a1.64,1.64,0,0,0,.38,0,2,2,0,0,0,.59-.1l.07,0a1.79,1.79,0,0,0,.51-.27l0,0s0,0,0,0l.09-.06A13.78,13.78,0,0,0,88,113.07a13.43,13.43,0,0,0,9.21,4.66h.24a2,2,0,0,0,.42-.06l.17-.07a1.6,1.6,0,0,0,.3-.13,1.77,1.77,0,0,0,.17-.12,2.23,2.23,0,0,0,.24-.19c.05-.05.09-.11.14-.17a2.09,2.09,0,0,0,.14-.17s0,0,0-.07,0,0,0-.07a13.78,13.78,0,0,0,1-10.4,14.2,14.2,0,0,0,6.62,1.74,12.75,12.75,0,0,0,3.64-.54l0,0,.08,0a1,1,0,0,0,.18-.09,1.83,1.83,0,0,0,.24-.13l.2-.17a1.71,1.71,0,0,0,.2-.18l.15-.21c.05-.08.1-.15.14-.23l.09-.25.07-.18v-.08a.19.19,0,0,0,0-.07,13.78,13.78,0,0,0-2.63-10.13,17.44,17.44,0,0,0,2.16.16,12.92,12.92,0,0,0,7.91-2.58s0,0,0,0l.07,0a2,2,0,0,0,.14-.16,1.62,1.62,0,0,0,.18-.19l.13-.23a1.79,1.79,0,0,0,.12-.24,1.82,1.82,0,0,0,.07-.25,2,2,0,0,0,.05-.26,1.13,1.13,0,0,0,0-.26,1.47,1.47,0,0,0,0-.21s0,0,0-.06,0,0,0-.07A13.66,13.66,0,0,0,114,82.67a13.48,13.48,0,0,0,8.65-5.76l0,0,0,0a1.18,1.18,0,0,0,.07-.2,1.22,1.22,0,0,0,.1-.24A1.32,1.32,0,0,0,123,76.11Zm-18.9,6.65c3.66.88,7.57,2.44,9.94,5.25L98,81.8c.88.08,1.92.2,3,.37C102,82.39,103,82.6,104.06,82.76ZM92.32,99.86c2.24,3,4.23,6.76,4.29,10.43l-8.23-15c.6.61,1.29,1.33,2,2.15S91.61,99,92.32,99.86Zm-26.2,4.22c.42-1,.79-2,1.11-2.94s.84-1.87,1.22-2.63l-3.23,16.81C64.16,111.82,64.92,107.66,66.12,104.08ZM48.73,81.25c1.11-.14,2.14-.22,3-.26L35.58,86.62C38,83.9,42,82.47,45.71,81.73,46.76,81.6,47.78,81.43,48.73,81.25Zm-2.88-14C42.21,66.35,38.34,64.78,36,62L52,68.2c-.85-.07-1.84-.18-2.92-.35S47,67.4,45.85,67.22ZM57.61,50.06c-2.21-3-4.17-6.71-4.22-10.36l8.23,15c-.58-.59-1.23-1.29-1.92-2.07S58.38,51,57.61,50.06Zm26.27-4.14c-.42,1-.79,2-1.11,2.94s-.84,1.87-1.22,2.63l3.23-16.81C85.84,38.18,85.08,42.34,83.88,45.92Zm13.93-5.43c-.18,3.67-2.3,7.32-4.64,10.27-.74.8-1.42,1.6-2,2.37s-1.44,1.49-2.06,2.08l4.39-7.4ZM75,90A15,15,0,0,1,61.25,69h27.5A15,15,0,0,1,75,90ZM73,60.15V65H63.84A14.94,14.94,0,0,1,73,60.15ZM86.16,65H77V60.15A14.94,14.94,0,0,1,86.16,65ZM58.86,96.88c.73-.79,1.44-1.5,2.07-2.09l-8.74,14.72c.18-3.67,2.3-7.32,4.64-10.27C57.57,98.44,58.24,97.65,58.86,96.88Zm57.2-23.15h0l-17.08-.3c.85-.23,1.87-.48,3-.7s2-.28,3.07-.49C108.7,71.78,112.9,71.9,116.06,73.73Zm-11.74-5.46c-1.07.13-2.09.3-3,.48s-2.14.22-3,.26l2.3-.8,13.88-4.83C112,66.1,108,67.52,104.32,68.27Zm7-8.84a11.23,11.23,0,0,1,1.84.15l-6.37,2.22L97,65.22c.71-.51,1.57-1.09,2.53-1.68s1.78-.95,2.71-1.52A20.91,20.91,0,0,1,111.32,59.43ZM97.56,60c-1,.5-1.9.92-2.7,1.27l2.49-2,10.75-8.82c-1.4,3.4-4.63,6.1-7.84,8.08C99.3,59,98.4,59.53,97.56,60Zm8.08-12.74-.08.06L92.39,58.16c.5-.72,1.1-1.54,1.78-2.4s1.37-1.54,2-2.4C98.79,50.6,102.08,48,105.64,47.3ZM94.41,38.38,85.67,53.1c.22-.83.5-1.79.85-2.81s.76-1.91,1.11-3C89.12,43.85,91.3,40.25,94.41,38.38ZM80.86,33.89,77.63,50.7c-.07-.85-.13-1.83-.15-2.89s.07-2.06,0-3.17C77.74,40.87,78.58,36.73,80.86,33.89ZM73.52,44.57c-.06,1.11-.07,2.17-.06,3.17s-.15,2-.25,2.88L70.56,33.71C72.74,36.63,73.44,40.79,73.52,44.57Zm-6.9-10.22L69,49.85l.22,1.43c-.34-.74-.71-1.61-1.09-2.57s-.66-2.08-1.08-3.17C66,41.93,65.43,37.79,66.62,34.35ZM63.33,46.9c.31,1.06.66,2.07,1,3s.56,2,.75,2.82l-8.23-15C59.91,39.69,62,43.37,63.33,46.9ZM56.5,55.09c.66.89,1.23,1.73,1.69,2.46L51,51.25l-5.69-5c3.53.8,6.72,3.55,9.2,6.4C55.19,53.51,55.86,54.34,56.5,55.09ZM42.76,49.3,55.62,60.61c-.79-.37-1.7-.83-2.66-1.37s-1.69-1.07-2.63-1.59C47.19,55.56,44.05,52.74,42.76,49.3Zm5.47,11.76c.9.6,1.8,1.14,2.66,1.62s1.77,1.23,2.47,1.76l-16-6.2C41,57.75,44.93,59.24,48.23,61.06Zm0,10.71c1.1.26,2.11.54,3,.81l-10.4-.19L34,72.28c3.23-1.72,7.44-1.68,11.16-1.11C46.21,71.42,47.22,71.61,48.18,71.77Zm-14.25,4.5,17.15.31c-.82.22-1.8.46-2.86.68s-2.14.3-3.28.53C41.23,78.22,37.07,78.09,33.93,76.27Zm2.9,14.15L53,84.78c-.69.49-1.52,1-2.44,1.63s-1.91,1-2.89,1.62C44.34,89.72,40.39,91,36.83,90.42ZM52.38,90c1-.51,1.95-.95,2.76-1.3L41.9,99.55c1.4-3.41,4.66-6.13,7.88-8.1C50.7,91,51.57,90.48,52.38,90Zm-8,12.72,4.74-3.88,8.53-7c-.48.69-1.06,1.49-1.72,2.33s-1.45,1.62-2.17,2.53C51.16,99.45,47.9,102.05,44.35,102.71Zm11.24,8.91L64.33,96.9c-.22.83-.5,1.79-.85,2.81s-.76,1.91-1.11,3C60.89,106.15,58.7,109.75,55.59,111.62Zm13.55,4.49L72.37,99.3c.07.85.13,1.83.15,2.89s-.07,2.06,0,3.17C72.26,109.13,71.42,113.27,69.14,116.11Zm7.34-10.68c.06-1.11.07-2.17.06-3.17s.15-2,.25-2.88l2.65,16.91C77.26,113.37,76.56,109.21,76.48,105.43Zm6.9,10.21L80.74,98.73c.35.78.74,1.68,1.12,2.67s.62,1.95,1,3C84,108,84.56,112.18,83.38,115.64Zm3.29-12.54c-.31-1.06-.66-2.07-1-3s-.56-2-.75-2.83l8.23,15C90.09,110.3,88,106.62,86.67,103.1Zm8.79-5.73c-.65-.88-1.31-1.7-2-2.45s-1.22-1.73-1.69-2.47l12.85,11.32C101.13,103,97.93,100.22,95.46,97.37Zm11.78,3.33L94.38,89.39c.79.37,1.72.84,2.69,1.38.81.53,1.67,1.06,2.59,1.58C102.8,94.43,106,97.25,107.24,100.7ZM101.79,89c-.92-.61-1.83-1.16-2.69-1.64s-1.76-1.22-2.46-1.76l4.65,1.81,11.32,4.4C109,92.25,105.08,90.77,101.79,89Zm.13-10.69c-1.14-.27-2.18-.57-3-.84l10,.18,7.13.12c-3.24,1.73-7.48,1.69-11.21,1.1C103.8,78.59,102.84,78.4,101.92,78.26Z"/><rect class="cls-1" x="62" y="70.92" width="10" height="4"/><rect class="cls-1" x="78" y="70.92" width="10" height="4"/><polygon class="cls-1" points="71.5 81.25 73.25 83.25 75 85.25 76.75 83.25 78.5 81.25 75 81.25 71.5 81.25"/></svg>