<svg id="Layer_40" data-name="Layer 40" xmlns="http://www.w3.org/2000/svg" viewBox="0 0 120 120"><defs><style>.cls-1{fill:none;stroke:#000;stroke-linecap:round;stroke-miterlimit:10;stroke-width:4px;}</style></defs><path class="cls-1" d="M22,32.42c9.83,6.1,14.26-2.48,22.71-4.89C54.34,24.78,55.86,38,49.53,47.34c-7.49,11-13.65,15-23,18.16"/><path class="cls-1" d="M36.66,61.16C53.3,55.55,62.47,73,52.67,93.7,44,112.1,28.53,112.32,20.17,107,10.45,100.76,10,88.09,10,88.09"/><path class="cls-1" d="M61.66,21.75c17.46,18.44,35.8,0,35.8,0"/><path class="cls-1" d="M71.64,10a40.09,40.09,0,0,1,9.85,5.24"/><path class="cls-1" d="M54.35,66.69C70.14,56.1,76.75,57,74.13,68.39S68.65,103.13,88.36,104c23.66,1,26.44-29.13,15.47-38.23A16.08,16.08,0,0,0,86.28,63.7"/></svg>