<svg id="Layer_40" data-name="Layer 40" xmlns="http://www.w3.org/2000/svg" viewBox="0 0 120 120"><defs><style>.cls-1{fill:none;stroke:#000;stroke-linecap:round;stroke-linejoin:round;stroke-width:4px;}</style></defs><path class="cls-1" d="M54.3,74.08C40.71,72.14,35,81.67,35,91.75A18.25,18.25,0,0,0,53.25,110c3.89,0,7.32-1.49,10.46-3.29C75.58,99.9,83.35,94.47,85.1,85.34A29.16,29.16,0,0,0,83,68.45"/><polyline class="cls-1" points="48.09 67.81 54.3 74.08 48.09 80.16"/><path class="cls-1" d="M63.7,85.92V10H46.36a1.84,1.84,0,0,0-1.84,1.84l-3,11.57a5.33,5.33,0,0,1-1,3.13l-5.9,12a.71.71,0,0,0,.73,1.11l11-2.6a2.66,2.66,0,0,1,2.09.38l5.07,3.43A.89.89,0,0,0,54.83,40L52.46,26.66a4.68,4.68,0,0,1,1-3.76L63.7,10"/></svg>