<svg id="Layer_40" data-name="Layer 40" xmlns="http://www.w3.org/2000/svg" viewBox="0 0 120 120"><defs><style>.cls-1{fill:none;stroke:#000;stroke-linecap:round;stroke-linejoin:round;stroke-width:4px;}</style></defs><path class="cls-1" d="M62.82,42.7c11.22,0,19.6,8.1,19.6,19s-9.45,20-20.66,20"/><path class="cls-1" d="M62,69.29c-7.82,0-13.34-5-13.34-12.63a14.19,14.19,0,0,1,14.16-14"/><path class="cls-1" d="M71.68,62c0,5.1-4.67,7.3-9.92,7.3"/><path class="cls-1" d="M61.76,17c-21.95,0-40,17.42-40,38.75S39.57,94.42,61.52,94.42h0c16.1,0,33.59-13.53,33.64-34.45,0-17.69-16.26-30.45-32.36-30.45l-1,.13"/><path class="cls-1" d="M61.76,81.72c-15.49,0-26.2-11.78-26.2-26s13.39-26,26.2-26h0"/><path class="cls-1" d="M10,11.38l50.34-.44v96.12h1.42c25.61,0,46.37-20.18,46.37-45.07S87.37,16.92,61.76,16.92"/></svg>