<svg id="Layer_40" data-name="Layer 40" xmlns="http://www.w3.org/2000/svg" viewBox="0 0 120 120"><defs><style>.cls-1{fill:none;stroke:#000;stroke-linecap:round;stroke-linejoin:round;stroke-width:4px;}</style></defs><path class="cls-1" d="M63.52,56.31v13.9a3.86,3.86,0,0,0,3.86,3.85h3.26a4.89,4.89,0,0,0,4.9-4.89V67.8"/><polyline class="cls-1" points="46.67 98.85 46.67 81.1 55.95 81.1 55.95 98.85"/><line class="cls-1" x1="46.67" y1="88.8" x2="55.94" y2="88.8"/><line class="cls-1" x1="46.67" y1="96.5" x2="55.94" y2="96.5"/><path class="cls-1" d="M51.81,109.94c12.76-3.4,11.71-15.4,11.71-28.84H73.84v28.84"/><line class="cls-1" x1="45.23" y1="19.39" x2="75.54" y2="19.39"/><path class="cls-1" d="M60.39,10v9.39s1.43,15.53-13.72,20.09"/><path class="cls-1" d="M60.42,56.31s1.4,13.87-13.75,18.44"/><path class="cls-1" d="M75.54,39.48c-15.12-3.3-15.15-21.65-15.15-21.65"/><line class="cls-1" x1="53.55" y1="50.61" x2="50.07" y2="45.75"/><line class="cls-1" x1="68.01" y1="50.61" x2="71.49" y2="45.75"/><line class="cls-1" x1="60.42" y1="54.62" x2="60.42" y2="41.7"/><line class="cls-1" x1="45.23" y1="56.31" x2="75.54" y2="56.31"/></svg>