<svg id="Layer_40" data-name="Layer 40" xmlns="http://www.w3.org/2000/svg" viewBox="0 0 120 120"><defs><style>.cls-1{fill:none;stroke:#000;stroke-linecap:round;stroke-linejoin:round;stroke-width:4px;}</style></defs><path class="cls-1" d="M81.45,10A30.38,30.38,0,0,1,60,18.83,30.38,30.38,0,0,1,38.55,10"/><path class="cls-1" d="M58.5,87a4.76,4.76,0,0,0-3.37,1.4,6,6,0,0,0,0,8.41,7.45,7.45,0,0,0,10.52,0,9.3,9.3,0,0,0,0-13.15,11.63,11.63,0,0,0-16.43,0,14.51,14.51,0,0,0,0,20.54c7.09,7.09,17.51,7.35,24.6.26a20.2,20.2,0,0,0,5-16.48C77.54,78.13,68.54,73.31,60,73.31H48.36a5.45,5.45,0,0,1-5.45-5.46h0a5.45,5.45,0,0,1,5.45-5.45H60v0H71.64A5.45,5.45,0,0,0,77.09,57h0a5.45,5.45,0,0,0-5.45-5.45H60v0H48.36a5.46,5.46,0,0,1-5.45-5.46h0a5.45,5.45,0,0,1,5.45-5.45H60.12v0H71.64a5.46,5.46,0,0,0,5.45-5.46h0a5.45,5.45,0,0,0-5.45-5.45H48.36a5.45,5.45,0,0,1-5.45-5.45h0a5.45,5.45,0,0,1,5.45-5.45H60.12"/></svg>