<svg id="Layer_40" data-name="Layer 40" xmlns="http://www.w3.org/2000/svg" viewBox="0 0 120 120"><defs><style>.cls-1{fill:none;stroke:#000;stroke-linecap:round;stroke-linejoin:round;stroke-width:4px;}</style></defs><path class="cls-1" d="M61.88,61.18c-.66-.34-1.29-.71-1.88-1.09-.59.38-1.23.75-1.9,1.11A16.93,16.93,0,0,1,59.86,60a.43.43,0,0,1,.14-.08c.59-.39,1.25-.76,1.91-1.13,6.77-3.63,16.15-5.87,26.52-5.87a66,66,0,0,1,14.95,1.66c8.83,2.05,8.83,8.79,0,10.84a66,66,0,0,1-14.95,1.66c-10.37,0-19.75-2.24-26.53-5.88C61.9,61.19,61.88,61.19,61.88,61.18Z"/><path class="cls-1" d="M31.57,67.08a66,66,0,0,1-14.95-1.66c-8.83-2.05-8.83-8.79,0-10.84a66,66,0,0,1,15-1.66c10.37,0,19.74,2.24,26.5,5.87h0c.66.37,1.32.74,1.91,1.13a.43.43,0,0,1,.14.08c.62.38,1.2.78,1.74,1.18-.66-.34-1.29-.71-1.88-1.09-.59.38-1.23.75-1.9,1.11C51.32,64.84,41.94,67.08,31.57,67.08Z"/><path class="cls-1" d="M58.79,61.88c.35-.66.71-1.29,1.09-1.88-.38-.59-.75-1.23-1.11-1.9A16.93,16.93,0,0,1,60,59.86a.43.43,0,0,1,.08.14c.39.59.76,1.25,1.13,1.91,3.63,6.77,5.87,16.15,5.87,26.52a66.6,66.6,0,0,1-1.65,14.95c-2.06,8.83-8.8,8.83-10.85,0a66,66,0,0,1-1.66-14.95c0-10.37,2.25-19.75,5.88-26.53Z"/><path class="cls-1" d="M52.89,31.57a66,66,0,0,1,1.66-14.95c2.05-8.83,8.79-8.83,10.85,0a66.6,66.6,0,0,1,1.65,15c0,10.37-2.24,19.74-5.87,26.5v0c-.37.66-.74,1.32-1.13,1.91a.43.43,0,0,1-.08.14c-.38.62-.77,1.2-1.18,1.74.35-.66.71-1.29,1.09-1.88-.38-.59-.75-1.23-1.11-1.9C55.14,51.32,52.89,41.94,52.89,31.57Z"/><circle class="cls-1" cx="60" cy="60" r="9.08"/><polygon class="cls-1" points="74.09 52.92 86.83 75.53 60.88 75.26 34.92 74.98 48.14 52.64 61.36 30.3 74.09 52.92"/></svg>