<svg id="Layer_40" data-name="Layer 40" xmlns="http://www.w3.org/2000/svg" viewBox="0 0 120 120"><defs><style>.cls-1{fill:none;stroke:#000;stroke-linecap:round;stroke-linejoin:round;stroke-width:4px;}</style></defs><polygon class="cls-1" points="60 58.12 36.76 58.12 36.76 58.12 60 21.99 83.24 58.12 83.24 58.12 60 58.12"/><polygon class="cls-1" points="60 58.12 83.24 58.12 71.62 70.53 60 82.95 48.38 70.53 36.76 58.12 60 58.12"/><polygon class="cls-1" points="60 107.78 36.76 107.78 48.38 95.37 60 82.95 71.62 95.37 83.24 107.78 60 107.78"/><ellipse class="cls-1" cx="60" cy="16.89" rx="5.12" ry="5.1"/><path class="cls-1" d="M61.35,83.94c-.48-.34-.92-.7-1.35-1.07-.43.37-.88.74-1.36,1.09a11.86,11.86,0,0,1,1.26-1.18.3.3,0,0,1,.1-.09c.43-.37.89-.74,1.37-1.1a32.3,32.3,0,0,1,19-5.79,35.38,35.38,0,0,1,10.74,1.63c6.34,2,6.34,8.67,0,10.69A35.38,35.38,0,0,1,80.4,89.75a32.36,32.36,0,0,1-19-5.79S61.35,84,61.35,83.94Z"/><path class="cls-1" d="M39.6,89.75a35.38,35.38,0,0,1-10.74-1.63c-6.34-2-6.34-8.66,0-10.69A35.38,35.38,0,0,1,39.6,75.8a32.34,32.34,0,0,1,19,5.78h0c.48.36.94.73,1.37,1.1a.3.3,0,0,1,.1.09,13.94,13.94,0,0,1,1.25,1.16c-.48-.34-.92-.7-1.35-1.07-.43.37-.88.74-1.36,1.09A32.36,32.36,0,0,1,39.6,89.75Z"/></svg>