<svg id="Layer_40" data-name="Layer 40" xmlns="http://www.w3.org/2000/svg" viewBox="0 0 120 120"><defs><style>.cls-1{fill:none;stroke:#000;stroke-linecap:round;stroke-linejoin:round;stroke-width:4px;}</style></defs><line class="cls-1" x1="58.1" y1="11.29" x2="58.1" y2="34.27"/><path class="cls-1" d="M45.57,27.66h0a12.63,12.63,0,0,0,8.18-3L58.1,21l5,3.09a15,15,0,0,0,9,2.32h0"/><path class="cls-1" d="M48.11,17.62h0a12.14,12.14,0,0,1,7.08-2.28H66.32"/><line class="cls-1" x1="54.15" y1="30.84" x2="62.11" y2="29.92"/><path class="cls-1" d="M47.63,41.83h0a14.05,14.05,0,0,1,9.61-2.55c.71.07,1.49.16,2.38.23h0c2.46.2,6.68.67,8.93-.35l1.83-.84"/><line class="cls-1" x1="63.89" y1="35.27" x2="49.33" y2="53.64"/><polyline class="cls-1" points="56.1 52.84 61.37 46.06 70.38 44.59 70.72 52.34"/><line class="cls-1" x1="63.39" y1="50.78" x2="65.6" y2="50.55"/><path class="cls-1" d="M47.5,60.52l1.42-.43A47.2,47.2,0,0,1,66,58.22l3.38.26"/><path class="cls-1" d="M61.76,81.25h0A14.39,14.39,0,0,0,73.7,89.43l0,0"/><path class="cls-1" d="M44.75,86.61a14.07,14.07,0,0,0,7-2,14.76,14.76,0,0,0,5.61-6h0"/><line class="cls-1" x1="60.39" y1="58.88" x2="60.39" y2="73.77"/><path class="cls-1" d="M51.77,65.71l0,.13a6.52,6.52,0,0,1,0,3.53h0"/><line class="cls-1" x1="60.91" y1="66.84" x2="68.34" y2="65.22"/><line class="cls-1" x1="60.66" y1="87.94" x2="55.57" y2="87.94"/><path class="cls-1" d="M50.25,95.05h0c3.9,1.22,9.3,0,13.15-2.83h0c-4.08,9.9-9.28,14.1-14.11,16.35h0"/><path class="cls-1" d="M76.26,107.88c-4.26,1.54-12.64,1.11-11.6-7.61"/><line class="cls-1" x1="70.42" y1="98.79" x2="70.42" y2="101.03"/><line class="cls-1" x1="75.57" y1="98.68" x2="75.57" y2="100.92"/></svg>