<svg id="Layer_40" data-name="Layer 40" xmlns="http://www.w3.org/2000/svg" viewBox="0 0 120 120"><defs><style>.cls-1{fill:none;stroke-linecap:round;stroke-linejoin:round;stroke-width:4px;}.cls-1,.cls-2,.cls-3{stroke:#000;}.cls-2{fill:#111;}.cls-2,.cls-3{stroke-miterlimit:10;}</style></defs><path class="cls-1" d="M26.18,19.85c15.47,0,26.47,12.3,26.47,27.52,0,9.26-4.36,17.89-11.77,22.45C30.23,76.38,21,64.14,34.5,47.92c6.66-8,19.57-11.21,27.35-11.79h0C82.35,36.13,99,52.46,99,72.62c.06,17.59-13,32.33-30.43,36a25.08,25.08,0,0,1-11.82,0c-10.37-2.8-12.62-16.45-3.87-22.59a16.69,16.69,0,0,1,9.62-3h0c8.52-.46,12.57,3.54,12.57,7.91a8,8,0,0,1-8,7.9"/><path class="cls-1" d="M21.07,35.18c5,0,4.71,7-2.81,7A8.1,8.1,0,0,1,12,39.21h0c-2-3.13-2.64-5.63-1.95-8.77C11.65,23.33,19.77,19.28,27.89,20"/><path class="cls-2" d="M93.46,41.86a18.53,18.53,0,0,1-1-2.81,6.34,6.34,0,0,0,5.19-1.57c8-6.59-8.2-9.9-5.19,1.57-3.27-.56-6.18-3.8-7.85-7.35,8.06-3.79,1.42-16-1.23-8-.68,2.06-.12,5.13,1.23,8a11.53,11.53,0,0,1-3.34.92c-4.63.59-7.72-1.39-9.47-4,4.85-2.83,4.93-10.08,1.25-10.08-3.37,0-4,5.89-1.25,10.08a9,9,0,0,1-5.17,1.09,9.41,9.41,0,0,1-6.94-3.41c3.74-3.15,5.72-9.28.4-9.13-2.83.08-3.39,5.44-.4,9.13-2.89,2.42-6.84,3.07-9.29-2.3l-5.07,3.19L31.44,18.63S44.78,8.51,65.65,9.39c19.33.82,36.4,10.24,42.85,26.9C114.56,52,98,52.16,93.46,41.86Z"/><path class="cls-2" d="M93.46,41.86a18.53,18.53,0,0,1-1-2.81,6.34,6.34,0,0,0,5.19-1.57c8-6.59-8.2-9.9-5.19,1.57-3.27-.56-6.18-3.8-7.85-7.35,8.06-3.79,1.42-16-1.23-8-.68,2.06-.12,5.13,1.23,8a11.53,11.53,0,0,1-3.34.92c-4.63.59-7.72-1.39-9.47-4,4.85-2.83,4.93-10.08,1.25-10.08-3.37,0-4,5.89-1.25,10.08a9,9,0,0,1-5.17,1.09,9.41,9.41,0,0,1-6.94-3.41c3.74-3.15,5.72-9.28.4-9.13-2.83.08-3.39,5.44-.4,9.13-2.89,2.42-6.84,3.07-9.29-2.3l-5.07,3.19L31.44,18.63S44.78,8.51,65.65,9.39c19.33.82,36.4,10.24,42.85,26.9C114.56,52,98,52.16,93.46,41.86Z"/><path class="cls-2" d="M93.46,41.86a18.53,18.53,0,0,1-1-2.81,6.34,6.34,0,0,0,5.19-1.57c8-6.59-8.2-9.9-5.19,1.57-3.27-.56-6.18-3.8-7.85-7.35,8.06-3.79,1.42-16-1.23-8-.68,2.06-.12,5.13,1.23,8a11.53,11.53,0,0,1-3.34.92c-4.63.59-7.72-1.39-9.47-4,4.85-2.83,4.93-10.08,1.25-10.08-3.37,0-4,5.89-1.25,10.08a9,9,0,0,1-5.17,1.09,9.41,9.41,0,0,1-6.94-3.41c3.74-3.15,5.72-9.28.4-9.13-2.83.08-3.39,5.44-.4,9.13-2.89,2.42-6.84,3.07-9.29-2.3l-5.07,3.19L31.44,18.63S44.78,8.51,65.65,9.39c19.33.82,36.4,10.24,42.85,26.9C114.56,52,98,52.16,93.46,41.86Z"/><path class="cls-3" d="M93.46,41.86a18.53,18.53,0,0,1-1-2.81,6.34,6.34,0,0,0,5.19-1.57c8-6.59-8.2-9.9-5.19,1.57-3.27-.56-6.18-3.8-7.85-7.35,8.06-3.79,1.42-16-1.23-8-.68,2.06-.12,5.13,1.23,8a11.53,11.53,0,0,1-3.34.92c-4.63.59-7.72-1.39-9.47-4,4.85-2.83,4.93-10.08,1.25-10.08-3.37,0-4,5.89-1.25,10.08a9,9,0,0,1-5.17,1.09,9.41,9.41,0,0,1-6.94-3.41c3.74-3.15,5.72-9.28.4-9.13-2.83.08-3.39,5.44-.4,9.13-2.89,2.42-6.84,3.07-9.29-2.3l-5.07,3.19L31.44,18.63S44.78,8.51,65.65,9.39c19.33.82,36.4,10.24,42.85,26.9C114.56,52,98,52.16,93.46,41.86Z"/></svg>