<svg id="Layer_40" data-name="Layer 40" xmlns="http://www.w3.org/2000/svg" viewBox="0 0 120 120"><defs><style>.cls-1{fill:none;stroke:#000;stroke-linecap:round;stroke-linejoin:round;stroke-width:4px;}</style></defs><path class="cls-1" d="M89.1,23.12H62.55a12.19,12.19,0,0,0,.13-1.82,11.81,11.81,0,1,0-23.61,0,12.19,12.19,0,0,0,.14,1.82H10"/><path class="cls-1" d="M87.57,80s-9-3.19-23.47-13.24A75.05,75.05,0,0,1,52.22,55.65C41.67,43.77,30.93,23.12,30.93,23.12"/><line class="cls-1" x1="92.1" y1="64.97" x2="84.56" y2="88.7"/><path class="cls-1" d="M22.76,78.18s11.2-4,16.31-6.8A27.83,27.83,0,0,0,52.22,55.65,25.43,25.43,0,0,0,53.11,52c1.78-10.46,17.76-28.87,17.76-28.87"/><line class="cls-1" x1="110" y1="87.69" x2="74.24" y2="101.47"/><path class="cls-1" d="M78.53,105.3c-5,6.12-11.34,4.59-11.84,0s8.56-10.72,8.56-10.72L62.68,99.69"/></svg>