<svg id="Layer_40" data-name="Layer 40" xmlns="http://www.w3.org/2000/svg" viewBox="0 0 120 120"><defs><style>.cls-1{fill:none;stroke:#000;stroke-linecap:round;stroke-linejoin:round;stroke-width:4px;}</style></defs><path class="cls-1" d="M91.11,44.86l5-30.52a.44.44,0,0,0-.48-.49,22.23,22.23,0,0,1-5.86-.19,31.16,31.16,0,0,1-6.29-2.38A15,15,0,0,0,77.41,10h0a10.54,10.54,0,0,0-5.09,1.31l-.78.43"/><path class="cls-1" d="M28.87,44.79l-5-29.8a.73.73,0,0,1,.74-.82l4.71.1a15.51,15.51,0,0,0,7.85-2.22A14.45,14.45,0,0,1,44.3,10h.06a15.26,15.26,0,0,1,5.87,1.17"/><path class="cls-1" d="M82.09,46.13h0a20,20,0,0,0-7.4,4.75,17.65,17.65,0,0,0-4.86,9.31c-1.77,10,5.07,19.29,13.88,21.16h0L80.43,110H39.9L36.68,81.25c8.64-2,15.23-11.22,13.5-21a17.62,17.62,0,0,0-4.91-9.36,20.28,20.28,0,0,0-7.19-4.65,21.52,21.52,0,0,0-6.48-1.37"/><path class="cls-1" d="M84.53,73.16c-4.93-1.38-8-7.4-7.06-12.52.67-3.93,4.55-7.17,9.14-8.09"/><path class="cls-1" d="M86.61,52.55a12.89,12.89,0,0,1,5.32,0"/><path class="cls-1" d="M85.35,73.35a4.45,4.45,0,0,1-.82-.19"/><path class="cls-1" d="M89.41,59.66A6,6,0,0,1,94.77,67c-.82,4.48-5.8,7-9.43,6.34"/><path class="cls-1" d="M84.78,64.14c-1.33-3,2.46-4.8,4.74-4.46"/><path class="cls-1" d="M83.7,81.36c.5.1,1,.17,1.54.23l.52,0"/><path class="cls-1" d="M83,88c14,3.22,24.2-7.68,26.33-16.16,3-12-5-24.8-15.59-26.63a23.22,23.22,0,0,0-4.2-.4h0"/><path class="cls-1" d="M91.93,52.56c9.51,2.18,11.9,12.78,9.76,18.3-3,7.83-9.76,11.82-15.93,10.75"/><path class="cls-1" d="M34.66,73.35a4.83,4.83,0,0,0,.89-.21c4.89-1.44,7.85-7.41,7-12.5-.71-4.13-5-7.51-9.88-8.21a12.68,12.68,0,0,0-4.59.13"/><path class="cls-1" d="M30.6,59.66A6,6,0,0,0,25.23,67c.83,4.48,5.8,7,9.43,6.34"/><path class="cls-1" d="M35.22,64.14c1.33-3-2.46-4.8-4.74-4.46"/><path class="cls-1" d="M34.25,81.61l.52,0a12.12,12.12,0,0,0,1.91-.34"/><path class="cls-1" d="M31.6,44.82l-1.17,0a23.42,23.42,0,0,0-4.21.4C15.64,47,7.64,59.83,10.64,71.82,12.76,80.3,23,91.2,37,88"/><path class="cls-1" d="M28.07,52.57c-9.51,2.17-11.91,12.77-9.76,18.29,3,7.83,9.76,11.81,15.94,10.75h0"/><path class="cls-1" d="M82.08,46.14a14.5,14.5,0,0,1,7.49-1.35"/></svg>