<svg id="Layer_40" data-name="Layer 40" xmlns="http://www.w3.org/2000/svg" viewBox="0 0 120 120"><defs><style>.cls-1{fill:none;stroke:#000;stroke-linecap:round;stroke-linejoin:round;stroke-width:4px;}</style></defs><path class="cls-1" d="M33,36.43,52.15,11.25a1.57,1.57,0,0,1,2.25-.18L77.45,31.93a1.27,1.27,0,0,1-.54,2.19l-24.46,7.8L33.88,38.48A1.29,1.29,0,0,1,33,36.43Z"/><path class="cls-1" d="M105.81,82.53,78.64,69.35A10.31,10.31,0,0,1,75.52,67L52.45,41.92,38.68,60.78"/><polyline class="cls-1" points="13.23 76.78 27 76.78 34.08 67.09"/><path class="cls-1" d="M68,62.7V80.61a2,2,0,0,1-2.12,1.92H36.2a2,2,0,0,1-2.12-1.92V62.7a2,2,0,0,1,2.12-1.92H65.87A2,2,0,0,1,68,62.7Z"/><polyline class="cls-1" points="24.18 90.17 13.23 106.84 5.81 110.68"/><line class="cls-1" x1="79.1" y1="82.53" x2="89.9" y2="100.42"/></svg>