<svg id="Layer_40" data-name="Layer 40" xmlns="http://www.w3.org/2000/svg" viewBox="0 0 120 120"><defs><style>.cls-1{fill:none;stroke:#000;stroke-linecap:round;stroke-linejoin:round;stroke-width:4px;}</style></defs><ellipse class="cls-1" cx="59.12" cy="26.79" rx="14.21" ry="5.05"/><path class="cls-1" d="M44.91,15s4.41-5.05,14.21-5.05c4.28,0,14.21,2.17,16.13,9.27.68,2.49.24,7.89-3.41,9.68"/><ellipse class="cls-1" cx="59.12" cy="43.91" rx="14.21" ry="5.05"/><ellipse class="cls-1" cx="59.12" cy="61.03" rx="14.21" ry="5.05"/><ellipse class="cls-1" cx="59.12" cy="78.15" rx="14.21" ry="5.05"/><ellipse class="cls-1" cx="59.12" cy="95.27" rx="14.21" ry="5.05"/><path class="cls-1" d="M71.93,24.79a13.77,13.77,0,0,1-.09,21.32"/><path class="cls-1" d="M71.93,41.81a13.77,13.77,0,0,1-.09,21.32"/><path class="cls-1" d="M71.93,58.93a13.77,13.77,0,0,1-.09,21.32"/><path class="cls-1" d="M71.93,76.05a13.77,13.77,0,0,1-.09,21.32"/><path class="cls-1" d="M71.93,93.17A13.42,13.42,0,0,1,74.8,96.4c2.14,3.4,1.78,5.72-.71,8.86h0c-2.33,2.94-7.06,4.69-15,4.68h0"/><polyline class="cls-1" points="39.74 78.15 30.79 87.99 10 68.17"/><line class="cls-1" x1="106.33" y1="12.11" x2="74.29" y2="44.29"/><polyline class="cls-1" points="75.77 75.12 88.59 87.99 110 68.3"/><line class="cls-1" x1="13.01" y1="12.11" x2="44.91" y2="43.91"/></svg>