<svg id="Layer_40" data-name="Layer 40" xmlns="http://www.w3.org/2000/svg" viewBox="0 0 120 120"><defs><style>.cls-1{fill:none;stroke:#000;stroke-linecap:round;stroke-linejoin:round;stroke-width:4px;}</style></defs><path class="cls-1" d="M31.11,17.45l16.34-4a28.43,28.43,0,0,1,13.29-.18c8.39,2,11.87,6.73,15.86,16.94A120.85,120.85,0,0,1,82.35,49.9L86,68c2.8,12.59,0,27.5-6,39-.3.57-.61,1.13-.92,1.7h0"/><path class="cls-1" d="M76.23,29.08a6.9,6.9,0,0,1,8.6,4.39,6.65,6.65,0,0,1-4.5,8.38"/><path class="cls-1" d="M82.32,49.44a6.86,6.86,0,0,1,8,5.31,6.69,6.69,0,0,1-5.45,7.83"/><path class="cls-1" d="M39.29,26.11c-.33,7.68-7.55,15-7.55,15l18-3.68s-1.45,10-20.22,17.43l2.88,6.6s19.67-7.69,23.34,1.08S52.52,92.07,32.07,101"/></svg>