<svg id="Layer_40" data-name="Layer 40" xmlns="http://www.w3.org/2000/svg" viewBox="0 0 120 120"><defs><style>.cls-1{fill:none;stroke:#000;stroke-linecap:round;stroke-linejoin:round;stroke-width:4px;}</style></defs><path class="cls-1" d="M37.48,18.33,34.21,28.87l28-3.27S57.47,20.15,64,14s14.54-6.18,18.9,7.45S84,50,80.37,54"/><path class="cls-1" d="M40.39,91.88c9,12.57,24,3.14,24,3.14s-.64,8-7.75,12.15c-8,4.69-22.82,4.94-29-10.14"/><path class="cls-1" d="M40.47,28.14c-.84.1-7.71,13.09-7.71,13.09S55.35,62.65,49.92,86.3"/><path class="cls-1" d="M47.47,63.06c10.36-8.38,23.08-3.66,23.08-3.66"/><line class="cls-1" x1="70.55" y1="35.98" x2="70.55" y2="84.48"/><path class="cls-1" d="M62.2,25.6a10.89,10.89,0,0,0,10.35-6.9"/></svg>