<svg id="Layer_40" data-name="Layer 40" xmlns="http://www.w3.org/2000/svg" viewBox="0 0 120 120"><defs><style>.cls-1{fill:none;stroke:#000;stroke-linecap:round;stroke-linejoin:round;stroke-width:4px;}</style></defs><polyline class="cls-1" points="10 10 110 10 10 110 110 110"/><path class="cls-1" d="M88.43,71.67A40,40,0,0,1,61.9,62l0,0c-.66-.57-1.29-1.18-1.88-1.8a.64.64,0,0,1-.14-.15,22.09,22.09,0,0,1-1.77-2c.66.6,1.32,1.22,1.91,1.85.59-.63,1.25-1.25,1.91-1.85a40,40,0,0,1,26.52-9.68,41.63,41.63,0,0,1,14.95,2.73c8.83,3.38,8.83,14.5,0,17.88A41.63,41.63,0,0,1,88.43,71.67Z"/><path class="cls-1" d="M61.88,62c-.66-.57-1.29-1.18-1.88-1.8A25.25,25.25,0,0,1,58.1,62a21.58,21.58,0,0,1,1.76-2,.46.46,0,0,1,.14-.14c.59-.63,1.25-1.25,1.91-1.85a40,40,0,0,1,26.52-9.68,41.63,41.63,0,0,1,14.95,2.73c8.83,3.38,8.83,14.5,0,17.88a41.63,41.63,0,0,1-14.95,2.73A40,40,0,0,1,61.9,62Z"/><path class="cls-1" d="M31.57,71.67a41.84,41.84,0,0,1-14.52-2.56c-9.31-3.45-9.31-14.77,0-18.22a41.84,41.84,0,0,1,14.52-2.56A40,40,0,0,1,58.07,58h0c.66.6,1.32,1.22,1.91,1.85.59-.63,1.25-1.25,1.91-1.85a22.09,22.09,0,0,1-1.77,2,.64.64,0,0,1-.14.15A25.25,25.25,0,0,1,58.1,62,40,40,0,0,1,31.57,71.67Z"/><path class="cls-1" d="M31.57,71.67a41.63,41.63,0,0,1-14.95-2.73c-8.83-3.38-8.83-14.5,0-17.88a41.63,41.63,0,0,1,15-2.73A40,40,0,0,1,58.07,58h0c.66.6,1.32,1.22,1.91,1.85a.46.46,0,0,1,.14.14,24.5,24.5,0,0,1,1.74,2c-.66-.57-1.29-1.18-1.88-1.8A25.25,25.25,0,0,1,58.1,62,40,40,0,0,1,31.57,71.67Z"/></svg>