<?xml version="1.0" encoding="UTF-8"?>
<svg id="icons" xmlns="http://www.w3.org/2000/svg" viewBox="0 0 120 120">
  <defs>
    <style>
      .cls-1 {
        fill: none;
        stroke: #000;
        stroke-linecap: round;
        stroke-linejoin: round;
        stroke-width: 3px;
      }
    </style>
  </defs>
  <line class="cls-1" x1="30.63" y1="109.97" x2="51.57" y2="109.97"/>
  <path class="cls-1" d="m51.5,67.49v22.45c0,13.72-4.37,12.74-13.74,13.68-5.03.5-7.13,3.64-7.13,6.35h0"/>
  <path class="cls-1" d="m78.56,104.43v5.37l-27.27.17h.28c0-2.47,1.75-5.3,5.86-6.16.68-.14,1.38-.19,2.07-.19h1.52"/>
  <path class="cls-1" d="m72.05,22.17v6.13c0,4.34-3.08,7.86-6.89,7.86h-3.33c-3.81,0-6.89-3.52-6.89-7.86v-6.12"/>
  <path class="cls-1" d="m47.34,39.68c-4.16-5.69,3.21-9.89,3.21-9.89,0,0-3.44-5.34,2.26-6.91,9.27-2.55,10.69-8.67,10.69-8.67,0,7.45,14.49,6.64,11.88,14.36,0,0,10.45,5.15,4.3,13.07,0,0,9.01-3.72,18.02,5.43,0,0,8.16,6.97,8.16,15.77,0,6.37-.09,33.3-.09,33.3,0,0-14.12,1.13-19.84-9.45"/>
  <path class="cls-1" d="m63.5,14.21c0-9.75-18.89,0-13.92,12.24"/>
  <path class="cls-1" d="m63.5,12.05c2.73-5.55,19.01.27,14.88,18.59"/>
  <path class="cls-1" d="m59.79,28.28c-1.05,0-1.96-.74-2.44-1.83.49-1.09,1.4-1.83,2.44-1.83s1.96.74,2.45,1.83c-.49,1.09-1.4,1.83-2.45,1.83Z"/>
  <path class="cls-1" d="m67.26,28.28c-1.05,0-1.96-.74-2.44-1.83.49-1.09,1.4-1.83,2.44-1.83s1.96.74,2.45,1.83c-.49,1.09-1.4,1.83-2.45,1.83Z"/>
  <path class="cls-1" d="m71.27,39.68l-29.95,26.45c-2.74,2.42-5.19,5.22-7.3,8.35h0c-.53.78-.04,1.91.82,1.91h7.78c1.91,0,3.45-1.76,3.45-3.93h0c0-1,.48-1.91,1.25-2.39l35.18-21.65"/>
  <path class="cls-1" d="m34.19,82.72c0-3.5,2.49-6.33,5.55-6.33s5.55,2.84,5.55,6.33"/>
  <path class="cls-1" d="m32.73,82.72h13.34v8.3c0,.67-.54,1.21-1.21,1.21h-10.92c-.67,0-1.21-.54-1.21-1.21v-8.3h0Z"/>
  <path class="cls-1" d="m83.14,55.5c2.97,18.69,22.68,22.51,22.68,22.51"/>
  <path class="cls-1" d="m79.05,31.26l22.94-21.23s21.83,18.56-6.13,35.35"/>
  <path class="cls-1" d="m93.88,17.53c9.98,8.36,5.03,17.4-4.3,24.24"/>
  <path class="cls-1" d="m57.62,39.68h-2.44l-6.68.4c-1.58.09-2.43.21-4.19,1.41l-4.47,2.87c-1.67.93-3.68.48-4.93-1.09l-7.9-9.95c-1.36-1.71-3.28-3.68-5.31-3.68h-11.15c-.48,0-.8.55-.62,1.06h0c.56,1.56,1.89,3.57,3.37,3.57h7.3s-4.99,4.06-3.68,5.42c2.01,2.1,5.82-2.57,5.82-2.57l7.42,12.57,1.71,2.53c1.98,2.94,5.41,4.05,8.45,2.76l8.44-3.6"/>
  <polyline class="cls-1" points="57.62 34.51 57.62 46.99 62.99 46.99"/>
  <line class="cls-1" x1="69.38" y1="34.51" x2="69.38" y2="41.04"/>
  <line class="cls-1" x1="61.61" y1="36.22" x2="61.61" y2="47.15"/>
  <line class="cls-1" x1="65.52" y1="36.51" x2="65.52" y2="44.14"/>
  <path class="cls-1" d="m57.15,21.18c2.99-1.08,5.09.2,5.09.2"/>
  <path class="cls-1" d="m65.52,21.18c2.99-1.08,5.09.2,5.09.2"/>
  <line class="cls-1" x1="63.5" y1="29.27" x2="63.5" y2="30.01"/>
  <path class="cls-1" d="m60.59,32.53c3.36,1.23,6.13-.26,6.13-.26"/>
  <line class="cls-1" x1="100.01" y1="75.93" x2="99.37" y2="95.16"/>
  <line class="cls-1" x1="94.16" y1="72.63" x2="91.64" y2="91.72"/>
  <line class="cls-1" x1="89.2" y1="68.37" x2="85.2" y2="78.62"/>
  <line class="cls-1" x1="98.38" y1="23.04" x2="107.49" y2="16.91"/>
  <line class="cls-1" x1="99.06" y1="29.85" x2="110.02" y2="27.7"/>
  <line class="cls-1" x1="96.36" y1="35.3" x2="105.85" y2="37.13"/>
  <line class="cls-1" x1="93.23" y1="38.76" x2="100.01" y2="42.61"/>
  <path class="cls-1" d="m69.38,39.68h5.47c4.23,0,7.66,3.91,7.66,8.74l4.99,56.01h-25.89v-2.52"/>
  <path class="cls-1" d="m51.5,71.86c11.34,1.09,10.06,31.5,10.06,31.5"/>
  <path class="cls-1" d="m48.75,47.57c-1.23,7.15,4.22,7.61,4.22,7.61"/>
  <path class="cls-1" d="m51.5,88.73c5.66-1.94,9.09,1.22,9.09,1.22"/>
  <path class="cls-1" d="m58.89,10.32c-.15,8.21-9.88,9.66-9.88,9.66"/>
  <path class="cls-1" d="m68.07,10.06c-.58,7.98,10.2,10.27,10.2,10.27"/>
  <path class="cls-1" d="m55.2,30.43c-5.85,3.68-4.09,8.14-3.02,9.25"/>
  <path class="cls-1" d="m71.79,30.43c5.99,3.07,3.43,9.27,3.43,9.27"/>
</svg>