<?xml version="1.0" encoding="UTF-8"?>
<svg id="icons" xmlns="http://www.w3.org/2000/svg" viewBox="0 0 120 120">
  <defs>
    <style>
      .cls-1 {
        fill: none;
        stroke: #000;
        stroke-linecap: round;
        stroke-linejoin: round;
        stroke-width: 3px;
      }
    </style>
  </defs>
  <g>
    <path class="cls-1" d="m54.34,17.51l1.53-2.08c2.48-3.38,6.33-5.42,10.44-5.43,1.03,0,1.83.06,2.14.13l5.71,1.31c3.25.74,5.81,3.38,6.41,6.75.03.15.04.27.04.34l.13,4.02s-5.55-2.55-12.52-5.04c-8.02-2.86-13.89,0-13.89,0Z"/>
    <path class="cls-1" d="m56.37,16.87l-2.03,6.61,3.49-.02-2.52,15.18,12.73.02h0c.28-4.07,1.08-7.03,1.95-11.01.1-.45.15-.91.15-1.38v-.68s5.04-2.21,3.45-4.24c-.6-.76-1.34-.98-2.04-.95-.32.01-.6.13-.85.29-.81.54-1.15,1.58-.97,2.56l.42,2.33"/>
    <path class="cls-1" d="m80.75,22.55h0c1.7,2.54,4.29,4.31,7.22,4.93l1.52.32s1.37,6.91-6.57,7.13"/>
    <line class="cls-1" x1="60.12" y1="19.97" x2="62.23" y2="19.97"/>
    <line class="cls-1" x1="61.03" y1="28.69" x2="59.18" y2="38.43"/>
    <line class="cls-1" x1="65.76" y1="28.78" x2="64.01" y2="38.43"/>
    <path class="cls-1" d="m80.62,64.19l.1.48c.14,1.89.6,3.76,1.42,5.57l1.75,4.01h0"/>
    <path class="cls-1" d="m48.13,62.23l-7.53,41.02s43.33,2.95,54.73-1.2l-10.19-22.59h0"/>
    <path class="cls-1" d="m56.15,33.6c-11.91-1.54-14.26,8.29-16.77,15.57,0,0,3.02-17.65.37-21.98s-13.61-5.21-13.62-1.89c0,2.46,5.51,3.39,5.51,3.39,0,0-3.53.37-4.29,3.03-1.56,5.46,2.26,5.59,6.5,6.33l-1.33,5.14c-2.4,12.86.08,16.92,2.89,17.92,7.2,2.55,14.87-10.55,14.87-10.55l-.84,4.74"/>
    <line class="cls-1" x1="83.08" y1="47.66" x2="79.97" y2="56.39"/>
    <path class="cls-1" d="m86.28,34.71c10.11,2.12,7.73,11.33,7.2,20.82-.53,9.49-5.81,8.16-16.3,7.92-8.94-.2-14.25,0-14.25,0l-2.71-5.53,22.66-1.75"/>
    <path class="cls-1" d="m50.41,63.64l4.69,3.04c.83.54,1.9.43,2.62-.26h0c1.04-.99,2.24-1.78,3.56-2.31l1.64-.67"/>
    <line class="cls-1" x1="45.94" y1="37.7" x2="73.91" y2="56.86"/>
    <line class="cls-1" x1="48.28" y1="63.64" x2="80.06" y2="41.97"/>
    <polyline class="cls-1" points="73.97 22.28 84.24 50.88 88.7 49.91 77.64 21.21"/>
    <line class="cls-1" x1="58.95" y1="65.41" x2="79.19" y2="75.65"/>
    <ellipse class="cls-1" cx="82.41" cy="77.26" rx="3.7" ry="3.28"/>
    <polygon class="cls-1" points="85.78 78.62 96.75 79.28 93.01 87.37 85.78 78.62"/>
    <path class="cls-1" d="m42.43,93.3c19.77,3.28,48.83.28,48.83.28"/>
    <path class="cls-1" d="m46.54,72.84c13.34-3.02,23.56-4.74,36.54-.44"/>
    <line class="cls-1" x1="64.32" y1="94.74" x2="63.69" y2="68.79"/>
    <path class="cls-1" d="m43.1,103.41s-7.16,1.18-10.73,1.82-8.72,1.43-9.12,4.47v.74l32.99-.55v-5.87"/>
    <path class="cls-1" d="m88.86,103.41l.38,5.97-29.21.69s3.84-5.8,10.65-5.8h0"/>
    <path class="cls-1" d="m58.89,23.47c8.66,1.91,7.72-2.8,7.79-5.96"/>
    <line class="cls-1" x1="65.91" y1="46.74" x2="65.97" y2="42.59"/>
    <line class="cls-1" x1="68.23" y1="44.67" x2="63.68" y2="44.67"/>
  </g>
  <line class="cls-1" x1="78.31" y1="34.38" x2="68.7" y2="34.38"/>
  <path class="cls-1" d="m49.44,62.5c-1.93,0-3.49-1.61-3.49-3.6s1.56-3.6,3.49-3.6,4.14,1.57,3.49,4.65"/>
  <path class="cls-1" d="m31.64,28.69c3.64.63,3.06,3.19,2.81,4.72"/>
</svg>