<?xml version="1.0" encoding="UTF-8"?>
<svg id="icons" xmlns="http://www.w3.org/2000/svg" viewBox="0 0 120 120">
  <defs>
    <style>
      .cls-1 {
        fill: none;
        stroke: #000;
        stroke-linecap: round;
        stroke-linejoin: round;
        stroke-width: 3px;
      }
    </style>
  </defs>
  <path class="cls-1" d="m43.87,12.24c0,6.32,17.59,7.53,21.46.62"/>
  <path class="cls-1" d="m53.59,30.67h5.37l1.51-4.81h2.26c.45,0,.76-.44.59-.84l-3.55-8.32v-4.21c0-1.23-1.04-2.23-2.33-2.23h-5.69c-1.29,0-2.33,1-2.33,2.23v21.72s-14.18.62-12.1,16.8"/>
  <path class="cls-1" d="m48.43,16.7c-6.44,4.16.39,10.99-5.73,14.45-6.12,3.46-11.35,8.76-8.63,14.34,2.71,5.58-6.22,6.93-5.42,2.5"/>
  <path class="cls-1" d="m56.95,30.67v2.19c0,1.34,1.13,2.43,2.53,2.43h3.73c2.35,0,4.68.47,6.83,1.38l9.43,4c1.33.56,2.82.61,4.18.14l9.37-3.27c1.66-.58,3.05-1.69,3.95-3.15h0c.57-.93,1.61-1.5,2.74-1.5h1.94c1.42,0,2.57,1.1,2.57,2.46v1.88c0,1.37-1.16,2.48-2.59,2.48h-2.27c-.7,0-1.38.16-2.01.46l-13.02,6.35c-1.78.87-3.86,1.01-5.76.4l-15.58-3.67-4.74,7.37v6.98l14.69,1.43c5.13.5,9.97,2.63,13.6,6.15,4.62,4.47,9.66,11.73,9.66,22.16h-26.41s2.41-11.07-6.02-11.07c-7.25,0-22.65,3.2-27.8-4.94-1.32-2.1-1.69-4.62-1.2-7.03l1.69-8.32c.4-1.96.21-3.99-.53-5.84l-1.57-3.92"/>
  <line class="cls-1" x1="36.28" y1="51.01" x2="58.26" y2="51.01"/>
  <path class="cls-1" d="m35.25,69.94c2.65,0,18.07-8.04,23.01-12.32"/>
  <path class="cls-1" d="m52.13,76.89c13.96-8.4,26.48-16.57,26.48-16.57"/>
  <path class="cls-1" d="m69.3,79.59c17.97-3.4,24.2-4.75,24.2-4.75"/>
  <path class="cls-1" d="m49.43,34.21s.74,8.6,13.57,9.05"/>
  <path class="cls-1" d="m10.36,104.86l4.35,4.76.44-20.08c.12-5.32,1.82-10.47,4.89-14.86l1.14-1.29"/>
  <line class="cls-1" x1="10.93" y1="96.96" x2="14.89" y2="101.29"/>
  <line class="cls-1" x1="11.11" y1="88.96" x2="15.07" y2="93.29"/>
  <line class="cls-1" x1="12.24" y1="81.74" x2="15.25" y2="85.03"/>
  <line class="cls-1" x1="19.27" y1="105.04" x2="14.71" y2="109.62"/>
  <line class="cls-1" x1="19.04" y1="97.12" x2="14.89" y2="101.29"/>
  <line class="cls-1" x1="19.22" y1="89.12" x2="15.07" y2="93.29"/>
  <line class="cls-1" x1="20.56" y1="83.3" x2="15.25" y2="85.03"/>
  <path class="cls-1" d="m24.67,104.86l4.35,4.76.19-8.54c.11-5.19.61-10.36,1.5-15.47l1.51-8.72"/>
  <line class="cls-1" x1="25.23" y1="96.96" x2="29.2" y2="101.29"/>
  <line class="cls-1" x1="25.41" y1="88.96" x2="29.37" y2="93.29"/>
  <line class="cls-1" x1="27.22" y1="81.42" x2="30.68" y2="85.21"/>
  <line class="cls-1" x1="33.57" y1="105.04" x2="29.01" y2="109.62"/>
  <line class="cls-1" x1="33.34" y1="97.12" x2="29.2" y2="101.29"/>
  <line class="cls-1" x1="34.85" y1="89.77" x2="29.37" y2="93.29"/>
  <line class="cls-1" x1="35.36" y1="82.9" x2="30.98" y2="85.39"/>
  <polyline class="cls-1" points="38.34 105.04 43.72 109.62 44.38 80.58"/>
  <line class="cls-1" x1="38.73" y1="97.12" x2="43.9" y2="101.29"/>
  <line class="cls-1" x1="39.37" y1="89.77" x2="44.08" y2="93.29"/>
  <line class="cls-1" x1="40.11" y1="83.53" x2="44.26" y2="86.02"/>
  <line class="cls-1" x1="49.43" y1="105.04" x2="43.72" y2="109.62"/>
  <line class="cls-1" x1="49.43" y1="96.96" x2="43.9" y2="101.29"/>
  <line class="cls-1" x1="49.43" y1="89.77" x2="44.08" y2="93.29"/>
  <line class="cls-1" x1="48.27" y1="83.53" x2="44.26" y2="86.02"/>
  <polyline class="cls-1" points="54.6 105.04 59.98 109.62 60.64 80.58"/>
  <line class="cls-1" x1="54.99" y1="97.12" x2="60.16" y2="101.29"/>
  <line class="cls-1" x1="55.63" y1="89.77" x2="60.34" y2="93.29"/>
  <line class="cls-1" x1="56.38" y1="83.53" x2="60.52" y2="86.02"/>
  <line class="cls-1" x1="65.69" y1="105.04" x2="59.98" y2="109.62"/>
  <line class="cls-1" x1="65.69" y1="96.96" x2="60.16" y2="101.29"/>
  <line class="cls-1" x1="65.69" y1="89.77" x2="60.34" y2="93.29"/>
  <line class="cls-1" x1="64.53" y1="83.53" x2="60.52" y2="86.02"/>
  <polyline class="cls-1" points="97.08 28.48 101.14 31.61 100.59 10.53"/>
  <line class="cls-1" x1="97.08" y1="22.72" x2="100.98" y2="25.56"/>
  <line class="cls-1" x1="97.29" y1="17.37" x2="100.82" y2="19.76"/>
  <line class="cls-1" x1="97.61" y1="12.82" x2="100.7" y2="14.48"/>
  <line class="cls-1" x1="105.11" y1="28.09" x2="101.14" y2="31.61"/>
  <line class="cls-1" x1="104.83" y1="22.23" x2="100.98" y2="25.56"/>
  <line class="cls-1" x1="104.58" y1="17.02" x2="100.82" y2="19.76"/>
  <line class="cls-1" x1="103.52" y1="12.53" x2="100.7" y2="14.48"/>
  <polyline class="cls-1" points="25.48 41.74 32.5 40.97 11.84 20.55"/>
  <line class="cls-1" x1="19.99" y1="36.02" x2="26.57" y2="35.12"/>
  <line class="cls-1" x1="15.08" y1="30.5" x2="20.87" y2="29.5"/>
  <line class="cls-1" x1="11.06" y1="25.67" x2="15.72" y2="24.37"/>
  <line class="cls-1" x1="33.09" y1="33.68" x2="32.5" y2="40.97"/>
  <line class="cls-1" x1="27.22" y1="28.13" x2="26.57" y2="35.12"/>
  <line class="cls-1" x1="21.99" y1="23.19" x2="20.87" y2="29.5"/>
  <line class="cls-1" x1="16.66" y1="19.74" x2="15.72" y2="24.37"/>
  <line class="cls-1" x1="42.7" y1="31.15" x2="24.13" y2="11.86"/>
  <line class="cls-1" x1="32.28" y1="27.33" x2="38.86" y2="26.44"/>
  <line class="cls-1" x1="27.37" y1="21.82" x2="33.16" y2="20.81"/>
  <line class="cls-1" x1="23.35" y1="16.99" x2="28" y2="15.69"/>
  <line class="cls-1" x1="39.51" y1="19.44" x2="38.86" y2="26.44"/>
  <line class="cls-1" x1="34.28" y1="14.51" x2="33.16" y2="20.81"/>
  <line class="cls-1" x1="28.95" y1="11.06" x2="28" y2="15.69"/>
  <polyline class="cls-1" points="66.64 29.6 67.95 35.57 86.25 13.77"/>
  <line class="cls-1" x1="71.74" y1="23.53" x2="73.34" y2="29.15"/>
  <line class="cls-1" x1="76.7" y1="18.06" x2="78.32" y2="23.71"/>
  <line class="cls-1" x1="81.07" y1="13.54" x2="82.86" y2="18.03"/>
  <line class="cls-1" x1="74.87" y1="35.79" x2="68.51" y2="35.17"/>
  <line class="cls-1" x1="80.36" y1="29.87" x2="73.34" y2="29.15"/>
  <line class="cls-1" x1="84.71" y1="24.15" x2="78.32" y2="23.71"/>
  <line class="cls-1" x1="87.56" y1="18.48" x2="82.86" y2="18.03"/>
  <path class="cls-1" d="m55.55,23.26c-.68,0-1.27-.35-1.58-.88.32-.53.91-.88,1.58-.88s1.27.35,1.59.88c-.32.52-.91.88-1.59.88Z"/>
  <path class="cls-1" d="m55.55,23.26c-.68,0-1.27-.35-1.58-.88.32-.53.91-.88,1.58-.88s1.27.35,1.59.88c-.32.52-.91.88-1.59.88Z"/>
  <path class="cls-1" d="m50.25,36.77c-10.13,3.6-9.68,19.02-10.77,27s6.35,8.98,24.31,8.68c13.57-.23,10.15,14.89,10.15,14.89"/>
  <polyline class="cls-1" points="71.69 87.34 71.69 93.59 82.4 93.59 75.87 90.17 75.87 87.34"/>
  <polyline class="cls-1" points="87.19 87.34 87.19 93.59 97.9 93.59 91.37 90.17 91.37 87.34"/>
  <polyline class="cls-1" points="15.99 74.83 18.02 78.07 23.28 78.07"/>
  <line class="cls-1" x1="77.04" y1="98.23" x2="77.04" y2="109.62"/>
  <polyline class="cls-1" points="72.81 101.29 77.04 103.71 81.4 101.29"/>
  <polyline class="cls-1" points="72.81 107.33 77.04 109.74 81.4 107.33"/>
  <line class="cls-1" x1="91.43" y1="98.23" x2="91.43" y2="109.62"/>
  <polyline class="cls-1" points="87.19 101.29 91.43 103.71 95.79 101.29"/>
  <polyline class="cls-1" points="87.19 107.33 91.43 109.74 95.79 107.33"/>
  <line class="cls-1" x1="105.28" y1="98.23" x2="105.28" y2="109.62"/>
  <polyline class="cls-1" points="101.04 101.29 105.28 103.71 109.64 101.29"/>
  <polyline class="cls-1" points="101.04 107.33 105.28 109.74 109.64 107.33"/>
  <path class="cls-1" d="m53.3,40.37c-7.52,4.67-6.29,8.62-6.73,19.94-.44,11.32,10.63,5.53,22.73,7.41s12.02,15.16,12.66,19.62"/>
  <path class="cls-1" d="m58.78,42.75c-6.62,5.5-5.65,9.26-5.82,13.13-.14,3,.45,6.42,3.41,6.9,3.47.55,10.33.43,17.02.9,12.45.86,15.86,17.43,16.38,23.67"/>
  <line class="cls-1" x1="53.97" y1="22.39" x2="52.64" y2="21.65"/>
</svg>