<?xml version="1.0" encoding="UTF-8"?>
<svg id="icons" xmlns="http://www.w3.org/2000/svg" viewBox="0 0 120 120">
  <defs>
    <style>
      .cls-1 {
        stroke: #231f20;
      }

      .cls-1, .cls-2 {
        fill: none;
        stroke-linecap: round;
        stroke-linejoin: round;
        stroke-width: 3px;
      }

      .cls-2 {
        stroke: #000;
      }
    </style>
  </defs>
  <path class="cls-2" d="m44.73,48.17l-.81,14.34c-.6,9.61-.41,19.26.58,28.85l.53,18.81h-3.61s-3.78.01-3.78.01h-3.39s-13.6.02-13.6.02l-10.66.02,12.93-61.81-.68-2.67-1.12-4.43-.25-1c-.52-2.05-.77-6.69-.63-8.78"/>
  <path class="cls-2" d="m36.91,25.9h.02c1.36,0,2.97.41,4.11.9"/>
  <path class="cls-2" d="m24.87,17.92c-1.31-2.96.76-6.21,4.09-7.36s6.11.45,7.4,2.15"/>
  <path class="cls-2" d="m41.2,16.71l-.02-.02-2.2-2.75c-.51-.63-1.25-1.26-2.13-1.23-.16,0-.33,0-.49.03-5.52.36-9.87,3.51-11.49,5.18-.15.14-.27.28-.37.4-.53.65-.65,1.76-.31,2.5l1.06,2.3s.48-.7,1.43-1.64c1.4-1.37,3.84-3.26,7.36-4.23,1.85-.5,3.25-.75,4.29-.84,2.05-.19,2.73.2,2.85.28"/>
  <path class="cls-2" d="m38.33,16.41s.51,1.21,1.06,2.54c.55,1.32,1.14,2.76,1.29,3.21.31.9-1.58.73-1.58.73,0,0-.39,1.85-2.17,3.01-.78.5-1.83.88-3.23.9-1.66.03-2.95-.29-3.97-.9-.94-.56-1.65-1.36-2.19-2.35-.35-.62-.62-1.31-.86-2.07"/>
  <line class="cls-2" x1="34.49" y1="20.39" x2="36.36" y2="20.39"/>
  <path class="cls-2" d="m22.45,28.12c1.04-.44,2.05-.42,2.05-.42,3.94-.39,10.22,7.57,11.32,9,.08.11.24.11.32-.01l5.06-7.08,3.06,1.54s-2.13,11.43-7.92,12.15c-.28.03-.57.04-.87.02-1.26-.08-3-.69-4.86-1.63-1.55-.79-3.19-1.8-4.69-2.91-3.12-2.31-5.66-5.06-5.68-7.09v-.16c.04-2,1.14-2.95,2.21-3.41Z"/>
  <path class="cls-2" d="m45.03,29.49c5.07,6.91,6.31,15.04,4.62,17.29-.57.75-2.54,1.15-4.92,1.36-4.73.41-11.04.03-11.04.03v-4.1l2.7-.24,8.37-.76"/>
  <path class="cls-2" d="m33.69,48.17c-7.14,1.28-5.58-3.36-3.74-3.95,1.84-.58,3.74-.15,3.74-.15"/>
  <polyline class="cls-2" points="25.25 23.12 27.54 23.55 27.63 23.57"/>
  <path class="cls-2" d="m39.45,18.91c0,.18,1.93-2.2,1.75-2.2"/>
  <path class="cls-2" d="m33.69,48.17s-2.49,32.66-3,45.08c-.07,1.83-.11,3.22-.08,4,.2,5.85,3.41,12.47,3.64,12.94.02.02.02.03.02.03"/>
  <path class="cls-2" d="m36.72,65.4s-1.58,17.85-1.72,25.83c-.09,4.92.38,9.83,1.47,14.62.62,2.68,1.17,4.33,1.17,4.33"/>
  <path class="cls-2" d="m40.71,53.48c-2.22,47.4.5,56.09.71,56.7.02.03.02.04.02.04"/>
  <path class="cls-2" d="m27.13,73.85c-.93,32.68-12.5,36.33-12.5,36.33"/>
  <path class="cls-2" d="m20.65,110.18c7.92-1.96,9.66-12.51,10.04-16.93.11-1.2.11-1.94.11-1.94"/>
  <path class="cls-2" d="m26.2,51.12c-3.96,19.91-7,54.29-15.75,57.04"/>
  <path class="cls-2" d="m21.34,41.26c1.8-1.9,4.58-2.48,4.58-2.48"/>
  <path class="cls-2" d="m22.24,45.74c3.05-4.13,8.36-4.04,8.36-4.04"/>
  <path class="cls-2" d="m41.2,29.61c-.19-1.09-.05-1.96.28-2.58.39-.73,1.03-1.12,1.72-1.13.91-.01,2.81.78,1.83,3.59-.07.21-.16.43-.27.66-.16.33-.31.68-.5,1"/>
  <path class="cls-2" d="m89.67,20c-4.19.9-4.84,4.02-2.51,5.93.89.71,2.22,1.26,3.96,1.43,6.27.61,7.56,5.91,7.56,5.91,0,0,6.34-3.12.75-8.17"/>
  <path class="cls-2" d="m99.43,25.1c-3.87-1.72-6.95-2.29-8.57-3.49-.78-.58-1.09-1.17-1.19-1.61-.11-.47,0-.79,0-.79"/>
  <path class="cls-2" d="m89.67,19.21c1.41-1.98,2.89-2,3.83-1.69.39.12.69.31.85.44,1.11.91,2.43,1.61,3.78,2.21.38.17.87.33,1.3.57,1.03.58,1.76,1.64,0,4.36"/>
  <path class="cls-2" d="m86.75,40.03c3.19-4.53,10.37-3.1,10.37-3.1,0,0,1.67-1.16,1.56-3.66"/>
  <line class="cls-2" x1="85.19" y1="40.37" x2="85.91" y2="40.11"/>
  <path class="cls-2" d="m87.01,26.1s-.01,3.17-1.66,5.05c-3.56,4.07,1.82,3.28,1.82,3.28l-.42,5.6c-3.39.41-8.05,1.77-8.31,6.13-.18,3.04-.72,7.93-.72,7.93,0,0-10.49-2.51-11.84-2.76l-1.8,3.78s12.5,4.58,16.44,5.92c2.2.75,3.39-.58,3.32-2.77v-3.15h0"/>
  <path class="cls-2" d="m97.12,36.93s.06,1.09.25,1.52c.59,1.33,2.11,2,3.69,2.91,2.1,1.2,3.96,2.56,5.67,6.68"/>
  <line class="cls-2" x1="89.67" y1="30.96" x2="91.56" y2="30.96"/>
  <polyline class="cls-2" points="86.72 40.46 86.73 43.07 86.76 48.3"/>
  <polyline class="cls-2" points="97.37 38.45 97.41 41.25 97.47 45.64 97.56 52.68"/>
  <path class="cls-2" d="m86.74,44.22c3.44-2.85,10.16-3.08,10.67-2.97.03.01.05.01.05.01"/>
  <path class="cls-2" d="m86.72,48.33s.03-.02.04-.03c3.63-2.99,10.35-2.66,10.35-2.66"/>
  <path class="cls-2" d="m95.57,53.48s-.44-1.06-2.94-1.64c-1.69-.4-3.26.51-3.5,1.86-.07.44-.01.94.24,1.45.46.93,2.47,1.93,4.48,1.93"/>
  <line class="cls-2" x1="83.84" y1="58.5" x2="83.81" y2="63.9"/>
  <path class="cls-2" d="m62.11,76.04c1.1-2.23,2.12-4.18,2.88-5.5,3.49-6.03,7.47-7.58,15.48-7.15.4.02,1.68.22,3.34.51,3.82.69,9.66,1.87,11.67,2.59.92.33,1.86.62,2.81.88.5.14.97.3,1.41.48,3.04,1.25,4.54,3.47,5.29,5.45.82,2.18.72,4.07.72,4.07"/>
  <path class="cls-2" d="m88.27,96.51l.3,7.41.25,6.25h4.28s3.99.02,3.99.02l8.11.02h4.79s-2.42-25.94-2.42-25.94c0,0,2.42-.73,2.34-3.15-.06-1.88-1.57-2.92-4.21-3.72-1.6-.5-3.63-.91-6-1.36-6.26-1.19-14.8-3.75-15.4.98-.46,3.67,3.15,3.89,3.15,3.89l.24,4.66.27,5.11.31,5.83c-2.5-.67-6-1.07-9.83-1.29-3.42-.2-7.11-.25-10.59-.22-2.25.01-4.42.05-6.37.1-4.98.15-8.55.38-8.55.38,0,0,1.18-2.62,2.85-6.21.96-2.07,2.08-4.45,3.22-6.85,1.04-2.2,2.11-4.4,3.1-6.38"/>
  <path class="cls-2" d="m88.78,110.22s-.51,0-1.4,0c-6.36-.02-32.33-.13-34.56-.09-5.03.1-4.85-6.18-.61-6.46.09-.01.19-.01.29-.01l12.55.09,5.64.05,14.14.1,3.7.03"/>
  <path class="cls-2" d="m67.85,95.37l-.3,5.36c-.05,1.04-.15,2.89-2.5,3.01-.02.01-.04.01-.06.01l-12.78-.09h-2.14c0-.6.16-1.53.67-2.32.51-.78,1.36-1.44,2.73-1.5l2.31-.15c.11-.01.24-.02.37-.04,2.27-.34,4.14-1,4.92-3.16.15-.44.3-.85.42-1.16"/>
  <path class="cls-2" d="m70.69,103.75c.16-1.51.57-4.18,3.33-4.39,1.93-.03,3.03-.92,3.66-1.8.62-.88.76-1.76.76-1.76"/>
  <polyline class="cls-2" points="85.14 96.51 84.83 103.89 84.83 103.92"/>
  <polyline class="cls-2" points="105.2 109.61 103.73 87.51 96.07 86.98 97.09 109.69"/>
  <polyline class="cls-2" points="93.1 109.63 91.94 82.59 107.57 84.27 109.22 109.88"/>
  <line class="cls-1" x1="101.21" y1="109.54" x2="100.18" y2="91.31"/>
  <path class="cls-2" d="m55.78,89.27c17.51-3.57,32.18,1.41,32.18,1.41"/>
  <path class="cls-2" d="m59,82.42c15.09-3.34,28.69,3.15,28.69,3.15"/>
  <path class="cls-2" d="m62.1,76.04h.01c11.3-3.58,22.19.98,22.19.98"/>
  <path class="cls-2" d="m64.99,70.54c14.98-3.65,40,2.76,40,2.76"/>
  <path class="cls-2" d="m106.73,48.04c3.87,10.82,4.52,14.25.83,13.83-1.92-.21-4.82-1.22-7.55-2.29-2.52-.99-4.87-2.01-6.16-2.5,0,0-.25-2.44,1.72-3.6l8.07,2.54"/>
  <polyline class="cls-1" points="100.01 59.58 99.7 67.85 99.7 67.86"/>
  <path class="cls-2" d="m65.88,51.33c-2.94-2.13-5.89-1.93-5.89,1.35,0,.81,1.07,1.43,2.11,1.84,1.01.39,1.98.59,1.98.59"/>
  <path class="cls-2" d="m22.45,28.12c3.32-1.58,7.28-2.22,7.28-2.22"/>
  <path class="cls-2" d="m93.5,17.52c3.43-4.81,8.97-1.47,5.93,3.22"/>
  <polyline class="cls-2" points="62.1 65.4 62.1 54.52 62.1 54.41"/>
  <line class="cls-2" x1="62.1" y1="49.93" x2="62.1" y2="38.91"/>
  <path class="cls-2" d="m86.76,48.3l-.02,3.34c0,1.31,1.05,2.38,2.37,2.38h0"/>
</svg>