<?xml version="1.0" encoding="UTF-8"?>
<svg id="icons" xmlns="http://www.w3.org/2000/svg" viewBox="0 0 120 120">
  <defs>
    <style>
      .cls-1 {
        fill: none;
        stroke: #000;
        stroke-linecap: round;
        stroke-linejoin: round;
        stroke-width: 3px;
      }
    </style>
  </defs>
  <path class="cls-1" d="m17.85,13.5l25.18,53.09c3.15,6.53,9.99,10.45,17.22,9.88l4.22-.23s-10.78,3.08-21.32-26.22c-.67-1.85-1.4-3.68-2.21-5.48l-13.49-30.05"/>
  <line class="cls-1" x1="11.45" y1="12.84" x2="108.55" y2="22.8"/>
  <path class="cls-1" d="m105.48,22.48s-14.38,55.61-29.78,57.35c0,0,10.33,2.21,13.89-3.6"/>
  <path class="cls-1" d="m108.55,22.8s-11.91,44.14-8.21,53.43h-10.75"/>
  <path class="cls-1" d="m27.44,81.74s15.25,3.34,15.09,20.85l5.87.6"/>
  <path class="cls-1" d="m100.34,76.23l-2.67,21.27-49.27,5.69s1.32-21.45-18.1-23.71"/>
  <line class="cls-1" x1="42.69" y1="103.01" x2="43.01" y2="109.74"/>
  <line class="cls-1" x1="48.13" y1="103.19" x2="48.45" y2="109.92"/>
  <line class="cls-1" x1="92.91" y1="98.01" x2="92.91" y2="103.11"/>
  <line class="cls-1" x1="96.87" y1="97.58" x2="96.87" y2="103.67"/>
  <path class="cls-1" d="m32.73,68.34c7.79-7.34-6.48-11.33-6.48-11.33"/>
  <path class="cls-1" d="m21.4,67.01c-11.33-5.07-3.56-7.93-3.56-7.93"/>
  <path class="cls-1" d="m30.3,79.48s-2.38,3.48-8.42,3.48c-8.98,0-8.98-3.99-8.98-3.99h0c0-1.17.73-2.3,2.06-3.19l4.24-2.86-.19-.25c-1.2-1.56-.79-3.38,1.07-4.72l.73-.53c1.09-.78,2.86-1.16,4.59-.98l4.28.44c2.57.27,5.11.71,7.62,1.32,3.68.9,7.19,2.4,10.43,4.36h0"/>
  <path class="cls-1" d="m20.57,67.61c-.72,4.39,5.6,3.77,14.27-.19"/>
  <line class="cls-1" x1="20.95" y1="77.42" x2="18.73" y2="78.6"/>
  <path class="cls-1" d="m32.73,75.59c-1.58,0-2.96-.69-3.7-1.73.74-1.03,2.12-1.73,3.7-1.73s2.96.69,3.69,1.73c-.73,1.04-2.11,1.73-3.69,1.73Z"/>
  <path class="cls-1" d="m32.73,75.59c-1.58,0-2.96-.69-3.7-1.73.74-1.03,2.12-1.73,3.7-1.73s2.96.69,3.69,1.73c-.73,1.04-2.11,1.73-3.69,1.73Z"/>
  <line class="cls-1" x1="37.39" y1="15.5" x2="61.96" y2="76.23"/>
  <line class="cls-1" x1="93.39" y1="21.24" x2="74.3" y2="79.48"/>
  <line class="cls-1" x1="84.92" y1="20.94" x2="72.07" y2="78.48"/>
  <line class="cls-1" x1="78.49" y1="20.29" x2="70.41" y2="77.42"/>
  <line class="cls-1" x1="71.18" y1="19.56" x2="67.8" y2="76.23"/>
  <line class="cls-1" x1="56.11" y1="18.05" x2="65.89" y2="76.23"/>
  <path class="cls-1" d="m68.93,76.23s3.24,3.04,6.77,3.6l6.96-12.54c3.8-6.84,6.99-14,9.56-21.39l8.12-23.42"/>
  <line class="cls-1" x1="47.37" y1="17.18" x2="65.02" y2="76.23"/>
  <line class="cls-1" x1="66.85" y1="76.23" x2="63.18" y2="18.76"/>
</svg>