<?xml version="1.0" encoding="UTF-8"?>
<svg id="icons" xmlns="http://www.w3.org/2000/svg" viewBox="0 0 120 120">
  <defs>
    <style>
      .cls-1 {
        fill: none;
        stroke: #000;
        stroke-linecap: round;
        stroke-linejoin: round;
        stroke-width: 3px;
      }
    </style>
  </defs>
  <path class="cls-1" d="m18.18,10.12h83.22c4.78,0,8.66,3.88,8.66,8.66v83.45c0,4.23-3.43,7.66-7.66,7.66H18.92c-5,0-9.05-4.06-9.05-9.05V18.43c0-4.59,3.73-8.32,8.32-8.32Z"/>
  <line class="cls-1" x1="10.43" y1="71.47" x2="110.06" y2="71.95"/>
  <line class="cls-1" x1="38.15" y1="10.24" x2="38.15" y2="71.47"/>
  <line class="cls-1" x1="82.84" y1="10.24" x2="82.84" y2="71.47"/>
  <ellipse class="cls-1" cx="60.18" cy="17.97" rx="3.09" ry="3.38"/>
  <ellipse class="cls-1" cx="69.93" cy="17.97" rx="3.09" ry="3.38"/>
  <ellipse class="cls-1" cx="90.83" cy="17.27" rx="3.09" ry="3.38"/>
  <ellipse class="cls-1" cx="100.58" cy="17.27" rx="3.09" ry="3.38"/>
  <path class="cls-1" d="m43.7,34.7V14.78c0-.29.32-.44.51-.24l6.31,5.6c.24.25.18.68-.12.84l-5.02,2.7c-.32.17-.39.63-.14.91l11.89,12.1,9.3-8.54h-17.7"/>
  <path class="cls-1" d="m42.45,38.85h4.67l1.17,8.82h0c.17.94.67,1.78,1.41,2.38l4.88,3.97c.3.15.19.6-.15.6h-10.5c-2.72,0-1.59-2.96-1.59-2.96l.44-.99,1.17-2.63-1.51-9.21Z"/>
  <polygon class="cls-1" points="42.83 63.69 48.53 58.79 53.92 63.69 59.84 59.15 65.87 63.69 59.84 68.23 53.92 63.69 48.53 68.12 42.83 63.69"/>
  <polygon class="cls-1" points="33.87 76.8 39.25 104.58 45.15 104.58 48.56 76.8 33.87 76.8"/>
  <line class="cls-1" x1="37.34" y1="94.73" x2="46.35" y2="94.73"/>
  <polyline class="cls-1" points="36.76 91.75 24.07 92.74 24.07 104.58 39.25 104.58"/>
  <path class="cls-1" d="m21.05,86.34c6.53-2.21.7-9.54-4.07-5.74-5.43,4.32-1.61,13.75,7.1,12.14"/>
  <polygon class="cls-1" points="53.62 88.92 58.98 80.44 63.41 80.44 69.71 88.92 53.62 88.92"/>
  <polygon class="cls-1" points="59.15 97.73 59.1 93.3 63.52 93.3 63.78 97.73 70.76 100.24 61.77 105.52 52.56 99.84 59.15 97.73"/>
  <line class="cls-1" x1="59.15" y1="97.73" x2="63.78" y2="97.73"/>
  <path class="cls-1" d="m58.98,80.44v-2.16c0-.54.22-1.06.61-1.4l1.57-1.4,1.48,1.02c.48.33.77.91.77,1.53v2.42"/>
  <path class="cls-1" d="m73.43,96.13l20.93-19.18c.98-.9,2.5-.9,3.51,0l6.46,5.76c1.19,1.06,1.2,2.9.04,3.95l-21.05,18.89"/>
  <line class="cls-1" x1="80.76" y1="89.56" x2="90.87" y2="98.48"/>
  <line class="cls-1" x1="84.72" y1="85.9" x2="95.1" y2="95.06"/>
  <line class="cls-1" x1="88.62" y1="82.22" x2="99" y2="91.38"/>
  <line class="cls-1" x1="92.74" y1="78.43" x2="102.75" y2="87.53"/>
  <polyline class="cls-1" points="104.69 40.42 87.05 40.42 87.05 25.43 104.57 25.43 104.57 36.68 90.83 36.68 90.83 29.3 100.58 29.3 100.58 32.93 95.07 32.93"/>
  <path class="cls-1" d="m100.34,67.88v-23.81h.29c3.13,0,5.67,3.18,5.67,7.09v3.49h-5.95"/>
  <line class="cls-1" x1="91.47" y1="44.07" x2="91.47" y2="67.87"/>
  <line class="cls-1" x1="91.47" y1="48.83" x2="96.13" y2="44.92"/>
  <line class="cls-1" x1="91.47" y1="53.64" x2="96.13" y2="49.73"/>
  <line class="cls-1" x1="91.47" y1="57.93" x2="96.13" y2="54.02"/>
  <line class="cls-1" x1="91.56" y1="62.27" x2="96.21" y2="58.36"/>
  <line class="cls-1" x1="91.51" y1="48.83" x2="86.85" y2="44.92"/>
  <line class="cls-1" x1="91.51" y1="53.64" x2="86.85" y2="49.73"/>
  <line class="cls-1" x1="91.51" y1="57.93" x2="86.85" y2="54.02"/>
  <line class="cls-1" x1="91.42" y1="62.27" x2="86.76" y2="58.36"/>
  <line class="cls-1" x1="74.19" y1="24.03" x2="74.19" y2="42.58"/>
  <line class="cls-1" x1="74.09" y1="28.9" x2="78.06" y2="25.57"/>
  <line class="cls-1" x1="74.19" y1="33.66" x2="78.16" y2="30.33"/>
  <line class="cls-1" x1="74.19" y1="37.95" x2="78.16" y2="34.62"/>
  <line class="cls-1" x1="74.26" y1="42.58" x2="78.23" y2="39.25"/>
  <line class="cls-1" x1="74" y1="28.87" x2="70.03" y2="25.54"/>
  <line class="cls-1" x1="74.22" y1="33.66" x2="70.26" y2="30.33"/>
  <line class="cls-1" x1="74.22" y1="37.95" x2="70.26" y2="34.62"/>
  <line class="cls-1" x1="74.15" y1="42.58" x2="70.18" y2="39.25"/>
  <line class="cls-1" x1="28.08" y1="13.72" x2="28.08" y2="35.58"/>
  <line class="cls-1" x1="28.08" y1="17.97" x2="32.56" y2="15.21"/>
  <line class="cls-1" x1="28.08" y1="23.59" x2="32.56" y2="20.83"/>
  <line class="cls-1" x1="28.08" y1="28.71" x2="32.56" y2="25.95"/>
  <line class="cls-1" x1="28.17" y1="33.88" x2="32.64" y2="31.13"/>
  <line class="cls-1" x1="28.12" y1="17.97" x2="23.65" y2="15.21"/>
  <line class="cls-1" x1="28.12" y1="23.59" x2="23.65" y2="20.83"/>
  <line class="cls-1" x1="28.12" y1="28.71" x2="23.65" y2="25.95"/>
  <line class="cls-1" x1="28.04" y1="33.88" x2="23.56" y2="31.13"/>
  <polygon class="cls-1" points="70.26 60.09 70.26 60.09 79.32 60.09 74.64 67.87 70.26 60.09"/>
  <line class="cls-1" x1="41.49" y1="63.63" x2="67.06" y2="63.63"/>
  <rect class="cls-1" x="58.61" y="41.92" width="6.94" height="13.13"/>
  <line class="cls-1" x1="58.61" y1="45.7" x2="65.54" y2="45.7"/>
  <path class="cls-1" d="m26,68.13h3.42c1.16,0,2.21-.75,2.63-1.88l2.51-8.36c.26-.83-.01-1.75-.68-2.28l-2.23-1.77v-6.58c0-.27-.21-.49-.47-.49h-4.26c-.27,0-.48.23-.47.51l.23,6.62-2.83,1.8c-.72.46-.91,1.47-.39,2.18l3.66,6.74h-2.25c-.97,0-1.75.78-1.75,1.75h0c0,.97.78,1.75,1.75,1.75h1.13Z"/>
  <line class="cls-1" x1="26.84" y1="50.67" x2="30.61" y2="50.67"/>
  <line class="cls-1" x1="23.47" y1="57.81" x2="30.4" y2="57.81"/>
  <line class="cls-1" x1="26.67" y1="61.44" x2="29.67" y2="61.44"/>
  <rect class="cls-1" x="17.01" y="38.62" width="15.63" height="4.46"/>
  <line class="cls-1" x1="28.68" y1="38.62" x2="28.68" y2="43.08"/>
  <path class="cls-1" d="m16.79,68.04h0c-.7,0-2.13-.94-2.46-2.99l-.69-9.43h6.06l-.57,9.43c-.31,2.28-1.58,2.99-2.33,2.99Z"/>
  <line class="cls-1" x1="14.33" y1="59.89" x2="19.12" y2="59.89"/>
  <line class="cls-1" x1="70.23" y1="55.04" x2="70.18" y2="48.18"/>
  <line class="cls-1" x1="70.18" y1="47.85" x2="78.78" y2="47.85"/>
  <line class="cls-1" x1="70.18" y1="51.51" x2="76.46" y2="51.51"/>
  <line class="cls-1" x1="70.23" y1="55.04" x2="74.15" y2="55.04"/>
  <line class="cls-1" x1="38.77" y1="82.22" x2="40.05" y2="88.92"/>
  <line class="cls-1" x1="44.29" y1="82.23" x2="43.42" y2="88.93"/>
</svg>