<?xml version="1.0" encoding="UTF-8"?>
<svg id="icons" xmlns="http://www.w3.org/2000/svg" viewBox="0 0 120 120">
  <defs>
    <style>
      .cls-1 {
        fill: none;
        stroke: #000;
        stroke-linecap: round;
        stroke-linejoin: round;
        stroke-width: 3px;
      }
    </style>
  </defs>
  <path class="cls-1" d="m64.56,17.27h16.35v9.77c0,4.13-3.35,7.48-7.48,7.48h-.97c-4.36,0-7.9-3.54-7.9-7.9v-9.35h0Z" transform="translate(145.47 51.79) rotate(-180)"/>
  <path class="cls-1" d="m80.44,22.96c.47,6.39-8.48,4.69-8.05,11.56"/>
  <path class="cls-1" d="m76.42,18.25c2.87,3.64.37,5.21-4.04,7.65-5.13,2.84-4.78,8.62-4.78,8.62"/>
  <path class="cls-1" d="m74.31,11.86c-5.1,1.05-3.99,5.72-3.99,5.72,0,0-2.43-4.24-7.09-1.94"/>
  <line class="cls-1" x1="67.59" y1="10.15" x2="70.32" y2="17.58"/>
  <path class="cls-1" d="m64.56,34.52s1.98,4.23-2.81,7.92-2.01,8.26,1.61,7.82c3.22-.39,6.27-1.82,7.33-5.1.23-.72.3-1.48.3-2.23v-8.41"/>
  <polyline class="cls-1" points="80.91 34.52 83.65 42.41 80.91 42.41 82.86 58 76.42 58 71 42.93"/>
  <line class="cls-1" x1="78.59" y1="38.14" x2="75.88" y2="38.14"/>
  <path class="cls-1" d="m71,38.49c2.27,6.15,10.09,5.3,10.09,5.3"/>
  <path class="cls-1" d="m84.39,64.94c1.51,2.19,6.15,4.88,9.3,6.54,1.62.85,3.59.63,4.98-.57,6.22-5.4,6.36-15.82,6.36-15.82,0,0,1.41-1.5,3.11-3.89,3.38-4.75.55-8.87-1.28-10.41-1.4-1.17-3.75,3.39-3.75,3.39,0,0-3.23,5.19-1.22,9.32l-7.68,10.81"/>
  <path class="cls-1" d="m95.13,63.01c-4.68-4.14-9.14-12.34-13.24-12.72"/>
  <path class="cls-1" d="m60.82,49.69c-9.54,14.11,15.13,33.45,27.7,33.01"/>
  <path class="cls-1" d="m68.81,53.6c5.41,7.03,8.42,16.61,8.42,16.61,0,0,6.12,2.29,11.34,6.26,1.43,1.09,2.66,2.42,3.66,3.92.7,1.05,1.9,2.5,3.8,3.79,3.49,2.37,7.76,2.37,5.85,4.66-1.92,2.28-9.45,4.32-13.36-6.14"/>
  <path class="cls-1" d="m82.86,58c2.72,7.03,1.3,15.57,1.3,15.57"/>
  <path class="cls-1" d="m75.12,64.69c-7.79-.11-8.14,7.54-8.14,7.54"/>
  <path class="cls-1" d="m92.37,60.15c-4.27-.31-4.77,7.69-4.77,7.69"/>
  <path class="cls-1" d="m79.46,61.78c1.31,4.04.61,6.07.61,6.07"/>
  <path class="cls-1" d="m61.36,65.3c.21,8.08,2.92,15.02,2.92,15.02,0,0,9.44,10.9,19.42,9.58l.69-7.65"/>
  <path class="cls-1" d="m64.28,80.32c-19.11,3.87-39.78,5.89-39.78,5.89v14.06s8.46-.44,19.89,5.45c11.43,5.89,27.83,5.54,33.5-1.41,5.67-6.94,5.81-14.41,5.81-14.41"/>
  <path class="cls-1" d="m24.5,92.97c22.16,3.78,22.6,3.87,22.6,3.87,0,0,27.74,5.91,32.37-7.06"/>
  <path class="cls-1" d="m24.5,86.21s-9.77-.53-11.17-9.75c0,0-6.37,11.42,2.53,16.43,0,0-8.23,3.25-4.68,13.53,0,0,4.51-6.59,13.32-6.15"/>
</svg>