<?xml version="1.0" encoding="UTF-8"?>
<svg id="icons" xmlns="http://www.w3.org/2000/svg" viewBox="0 0 120 120">
  <defs>
    <style>
      .cls-1 {
        fill: none;
        stroke: #000;
        stroke-linecap: round;
        stroke-linejoin: round;
        stroke-width: 3px;
      }
    </style>
  </defs>
  <g>
    <path class="cls-1" d="m55.66,24.13c-1.08,0-2.03-.39-2.54-.96.5-.58,1.45-.96,2.54-.96s2.03.39,2.53.96c-.5.58-1.45.96-2.53.96Z"/>
    <path class="cls-1" d="m64.8,55.39l-.89,1.81c-.48.96-1.22,1.8-2.18,2.27-3.23,1.56-5.72-2.05-6.53-4.08-.46-1.16-2.82-8.96-3.06-17.31,0,0,.19-6.49,5.01-10.23.58-.45,1.27-.74,2-.84h0s.39,0,.39,0"/>
    <path class="cls-1" d="m24.55,71.15h0c2.12,5.5,9.58,21.92,12.39,27.1,2.47,4.56,3.95,6.64,5.97,8.59.1.09.18.18.26.25,3.27,3.06,8.3,3.05,13.57,3.07.02,0-1.47,0-1.45,0"/>
    <path class="cls-1" d="m42.68,66.87s-.07-4.25,2.4-5.26"/>
    <path class="cls-1" d="m23.83,51.9l-3.05,7.18c-3.55,6.88-2.75,9.69-.4,11.09.59.35,1.52.61,2.67.79,3.84.6,9.13.37,13.49.09.03,0,.06,0,.08,0,3.74-.24,7.49-.37,11.24-.37h2.93c1.79,0,3.24-1.47,3.24-4.13v-3.3c0-1.18-1.45-2.14-3.24-2.14h-2.55c-1.14,0-2.21.18-3.16.51m-20.89-9.44"/>
    <polyline class="cls-1" points="42.26 28.48 46.64 29.71 46.28 49.14"/>
    <polyline class="cls-1" points="42.09 33.59 46.46 35.66 50.18 34.22"/>
    <polyline class="cls-1" points="42.34 42.67 46.46 44.34 50.66 42.55"/>
    <polyline class="cls-1" points="42.34 38.45 46.46 40.12 50.66 38.33"/>
    <path class="cls-1" d="m43.74,23.67c.03-5.55,5.59-4.66,5.59-4.66,0-1.4,1.56-5.04,9.68-5.04v-4.08c-1.99-.01-1.97,0-1.99,0-.72.13-13.59-1.58-17.23,8.31-2.56,6.95,2.46,10.29,2.46,10.29,0,0-2.74,14.91,1.65,20.37.57.71,1.36,1.13,2.28,1.14h.21c1.03.03,1.87-.48,2.47-1.31,1.75-2.46,4.51-8.53.92-19.83l-3.29,2.12"/>
    <path class="cls-1" d="m28.78,43.45c3.57-5.7,12.38-6.3,12.65-6.29,0,0,0,0,0,0"/>
    <path class="cls-1" d="m79.02,37.2h0c.27,0,9.35-.79,13.26,5.09"/>
    <path class="cls-1" d="m39.07,51.9c2.69,5.52,9.87,5.65,14.97,3.49"/>
    <line class="cls-1" x1="45.51" y1="53.16" x2="46.53" y2="53.16"/>
    <line class="cls-1" x1="71.47" y1="53.16" x2="72.49" y2="53.16"/>
    <line class="cls-1" x1="49.96" y1="70.67" x2="56.1" y2="75.19"/>
    <path class="cls-1" d="m42.09,65.57h0s-8.06-1.33-16.55-11.33c0,0-3.39-3.73-3.47-7.36-.15-6.76,6.45-7.18,6.79-1.87.5,7.91,17.13,16.36,17.13,16.36h0"/>
  </g>
  <path class="cls-1" d="m49.33,19.01s0,4.16.45,9.84"/>
  <path class="cls-1" d="m52.37,19.56c.96-.88,2.05-1.46,3.49-1.46.85,0,1.64.25,2.3.67"/>
  <path class="cls-1" d="m36.54,71.05s4.84,26.8,19.33,26.8h5.2s3.06,0,3.06,0c14.49,0,19.33-26.8,19.33-26.8"/>
  <polyline class="cls-1" points="56.74 110.15 58.93 110.15 61.07 110.15 63.26 110.15"/>
  <g>
    <path class="cls-1" d="m64.34,24.13c1.08,0,2.03-.39,2.54-.96-.5-.58-1.45-.96-2.54-.96s-2.03.39-2.53.96c.5.58,1.45.96,2.53.96Z"/>
    <path class="cls-1" d="m59.54,27.01c1.4,0,2.39.48,3.42,1.43,4.14,3.83,4.91,9.64,4.91,9.64,0,0,.82,9.33-3.06,17.31"/>
    <path class="cls-1" d="m64.72,110.15s-1.47,0-1.45,0c5.26-.02,10.3,0,13.57-3.07.08-.07.17-.16.26-.25,2.02-1.95,3.5-4.03,5.97-8.59,2.81-5.18,10.27-21.6,12.39-27.1h0"/>
    <path class="cls-1" d="m74.91,61.62c2.47,1,2.4,5.26,2.4,5.26"/>
    <path class="cls-1" d="m74.91,61.62c-.95-.33-2.02-.51-3.16-.51h-2.55c-1.79,0-3.24.96-3.24,2.14v3.3c0,2.66,1.45,4.13,3.24,4.13h2.93c3.76,0,7.51.13,11.24.37.03,0,.06,0,.08,0,4.35.28,9.65.51,13.49-.09,1.15-.18,2.08-.43,2.67-.79,2.35-1.39,3.15-4.21-.4-11.09-1.27-2.46-3.08-6.72-3.08-6.72"/>
    <polyline class="cls-1" points="77.74 28.48 73.36 29.71 73.72 49.14"/>
    <polyline class="cls-1" points="77.91 33.59 73.54 35.66 69.82 34.22"/>
    <polyline class="cls-1" points="77.66 42.67 73.54 44.34 69.34 42.55"/>
    <polyline class="cls-1" points="77.66 38.45 73.54 40.12 69.34 38.33"/>
    <path class="cls-1" d="m76.26,23.67c-.03-5.55-5.59-4.66-5.59-4.66,0-1.4-1.56-5.04-11.68-5.04v-4.08c3.99-.01,3.97,0,3.99,0,.72.13,13.59-1.58,17.23,8.31,2.56,6.95-2.46,10.29-2.46,10.29,0,0,2.74,14.91-1.65,20.37-.57.71-1.36,1.13-2.28,1.14h-.21c-1.03.03-1.87-.48-2.47-1.31-1.75-2.46-4.51-8.53-.92-19.83l3.29,2.12"/>
    <path class="cls-1" d="m80.12,52.18c-2.21,3.53-7.83,5.34-14.16,3.21"/>
    <line class="cls-1" x1="70.04" y1="70.67" x2="64.79" y2="74.59"/>
    <path class="cls-1" d="m77.22,65.57s7.02-.4,16.02-9.27c0,0,2.24-1.99,3.84-5.92.56-1.37.84-2.85.86-4.33h0c0-6.23-6.51-5.88-6.81-.04h0c-.5,7.91-17.13,15.36-17.13,15.36h0"/>
  </g>
  <path class="cls-1" d="m70.67,19.01s0,4.16-.45,9.84"/>
  <path class="cls-1" d="m67.63,19.89c-.77-1.09-2.05-1.8-3.49-1.8-.86,0-1.66.25-2.33.69"/>
  <line class="cls-1" x1="42.46" y1="70.93" x2="73.86" y2="93.03"/>
  <line class="cls-1" x1="78.28" y1="70.79" x2="45.99" y2="92.86"/>
  <path class="cls-1" d="m29.8,83.3s5.04,4.34,11.82,2.92"/>
  <path class="cls-1" d="m35.73,95.91c12.38,11.67,35.34,13.8,35.34,13.8"/>
  <path class="cls-1" d="m25.82,74.25c6.53,6.52,13.07,5.41,13.07,5.41"/>
  <path class="cls-1" d="m33.19,90.65c6.89,5.26,13.77,3.23,13.77,3.23"/>
  <path class="cls-1" d="m47.76,94.62c10.71,11.18,28.36,9.37,32.63,8.19"/>
  <path class="cls-1" d="m93.24,76.45c-4.74,6.4-12.57,4.44-12.57,4.44"/>
  <path class="cls-1" d="m88.5,87.02c-3.55,3.62-11.19,1.18-11.19,1.18"/>
  <path class="cls-1" d="m84.27,95.91c-6.95,3.1-14.45.42-14.45.42"/>
  <line class="cls-1" x1="61.84" y1="37.15" x2="61.84" y2="39.22"/>
  <line class="cls-1" x1="56.74" y1="35.66" x2="56.74" y2="37.73"/>
  <line class="cls-1" x1="58.19" y1="42.41" x2="58.19" y2="44.48"/>
  <line class="cls-1" x1="62.97" y1="44.81" x2="62.97" y2="46.88"/>
  <line class="cls-1" x1="59.54" y1="50.01" x2="59.54" y2="52.08"/>
</svg>