<?xml version="1.0" encoding="UTF-8"?>
<svg id="icons" xmlns="http://www.w3.org/2000/svg" viewBox="0 0 120 120">
  <defs>
    <style>
      .cls-1 {
        fill: none;
        stroke: #000;
        stroke-linecap: round;
        stroke-linejoin: round;
        stroke-width: 3px;
      }
    </style>
  </defs>
  <g>
    <path class="cls-1" d="m53.25,14.38h14.31c3.7,0,6.7,3,6.7,6.7v8.1c0,5.78-4.69,10.48-10.48,10.48h-6.77c-5.78,0-10.48-4.69-10.48-10.48v-8.1c0-3.7,3-6.7,6.7-6.7Z"/>
    <path class="cls-1" d="m54.21,25.75c-1.68,0-3.14-1.02-3.92-2.52.78-1.5,2.25-2.52,3.92-2.52s3.15,1.02,3.93,2.52c-.78,1.5-2.26,2.52-3.93,2.52Z"/>
    <path class="cls-1" d="m65.88,25.75c-1.68,0-3.14-1.02-3.92-2.52.78-1.5,2.25-2.52,3.92-2.52s3.15,1.02,3.93,2.52c-.78,1.5-2.26,2.52-3.93,2.52Z"/>
    <path class="cls-1" d="m53.25,14.38c-9.01,0-12.59,10.16-11.65,16.05.83,5.21-1.24,8.6-1.71,9.57"/>
    <line class="cls-1" x1="59.85" y1="26.81" x2="59.85" y2="30.43"/>
    <path class="cls-1" d="m54.22,32.3c4.26,4.74,11.06,1.76,11.66-.44"/>
    <path class="cls-1" d="m43.34,19.87c-4.06-.69-1.81-6.29,2.79-8.17,4.8-1.97,14.37-1.7,14.37-1.7,15.83,0,21.73,9.64,13.77,11.08"/>
    <path class="cls-1" d="m85.51,80.01v16.36h-7.67c-.29-.52-.64-.99-1.02-1.41-1.4-1.56-3.35-2.53-5.49-2.53-2.73,0-5.13,1.57-6.51,3.94h-9.53c-.29-.52-.64-.99-1.02-1.41-1.4-1.56-3.35-2.53-5.49-2.53-2.73,0-5.13,1.57-6.51,3.94h-7.85v-16.36c0-1.8.26-3.53.77-5.15.15-.5.32-.99.53-1.47.99-2.47,2.54-4.61,4.46-6.21h.03c2.42-2.03,5.4-3.22,8.65-3.22h22.2c3.61,0,6.92,1.47,9.45,3.91,1.57,1.5,2.84,3.38,3.7,5.52.2.47.37.97.53,1.47.5,1.62.77,3.36.77,5.15Z"/>
    <path class="cls-1" d="m97.67,78.71v21.06c0,9.61-8.12,10.23-13.2,10.23h-47.95c-.9,0,.86-.03,0,0-13.33.54-14.2-5.58-14.2-10.23v-21.06c0-2.13,1.56-3.86,3.48-3.86h9.38c-.5,1.62-.77,3.36-.77,5.15v16.36h7.85c-.7,1.19-1.15,2.59-1.23,4.09-.03.21-.03.4-.03.6v1.06h15.53v-1.06c0-.21,0-.4-.03-.6-.08-1.5-.53-2.9-1.23-4.09h9.53c-.45.78-.79,1.63-1.01,2.55-.04.15-.07.29-.09.44-.07.35-.12.71-.13,1.06,0,.01-.01.03,0,.04-.03.21-.03.4-.03.6v1.06h15.53v-1.06c0-.21,0-.4-.03-.6.01-.01,0-.03,0-.04-.01-.35-.07-.71-.13-1.06-.03-.15-.05-.29-.09-.44-.21-.91-.56-1.77-1.01-2.55h7.67v-16.36c0-1.8-.26-3.53-.77-5.15h9.46c1.92,0,3.47,1.72,3.47,3.86Z"/>
    <path class="cls-1" d="m40.2,67.17c-12.87-3.22-12.72-13.35-7.65-20.54,5.13-7.25,16.22-11,16.22-11"/>
    <path class="cls-1" d="m80.51,67.87c12.87-3.22,13.46-15.62,8.25-22.71-3.25-4.43-12.65-7.79-12.65-7.79l-4.07-1.74"/>
    <path class="cls-1" d="m60.12,50.31h6.03c2.56,0,4.63,2.08,4.63,4.63v2.18h-14.03v-3.45c0-1.86,1.51-3.36,3.36-3.36Z"/>
    <path class="cls-1" d="m51.13,57.13h14.03v2.18c0,2.56-2.08,4.63-4.63,4.63h-8.01c-.77,0-1.39-.62-1.39-1.39v-5.43h0Z" transform="translate(116.3 121.08) rotate(-180)"/>
    <line class="cls-1" x1="70.42" y1="52.62" x2="82.23" y2="52.62"/>
    <line class="cls-1" x1="39.28" y1="54.62" x2="52.98" y2="58.07"/>
    <path class="cls-1" d="m45.08,46.63c-4.52,1.02-4.43,8.35-.95,9.26"/>
    <path class="cls-1" d="m34.42,84.55c23.3,5.76,51.09,0,51.09,0"/>
    <path class="cls-1" d="m56.54,101.07v1.06h-15.53v-1.06c0-.21,0-.4.03-.6.08-1.5.53-2.9,1.23-4.09,1.38-2.37,3.78-3.94,6.51-3.94,2.14,0,4.09.97,5.49,2.53.38.43.73.9,1.02,1.41.7,1.19,1.15,2.59,1.23,4.09.03.21.03.4.03.6Z"/>
    <path class="cls-1" d="m79.09,101.07v1.06h-15.53v-1.06c0-.21,0-.4.03-.6-.01-.01,0-.03,0-.04.03-.35.07-.72.13-1.06.03-.15.05-.29.09-.44.21-.91.56-1.77,1.01-2.55,1.38-2.37,3.78-3.94,6.51-3.94,2.14,0,4.09.97,5.49,2.53.38.43.73.9,1.02,1.41.45.78.79,1.63,1.01,2.55.04.15.07.29.09.44.07.34.11.71.13,1.06,0,.01.01.03,0,.04.03.21.03.4.03.6Z"/>
    <path class="cls-1" d="m33.19,107.95v-4.69c0-1.55,1.12-2.8,2.51-2.8h5.33c-.03.21-.03.4-.03.6v1.06h15.53v-1.06c0-.21,0-.4-.03-.6h7.07c-.03.21-.03.4-.03.6v1.06h15.53v-1.06c0-.21,0-.4-.03-.6h4.59c1.39,0,2.53,1.25,2.53,2.8v3.41c0,1.84-1.35,3.33-2.99,3.33h-48.16"/>
    <path class="cls-1" d="m35.71,73.39c13.07-5.52,41.49-4.19,48.5,0"/>
  </g>
  <line class="cls-1" x1="70.79" y1="57.13" x2="71.06" y2="63.95"/>
  <path class="cls-1" d="m73.87,18.84c7.35,5.91,3.43,16.56,6.53,20.37"/>
</svg>