<?xml version="1.0" encoding="UTF-8"?>
<svg id="icons" xmlns="http://www.w3.org/2000/svg" viewBox="0 0 120 120">
  <defs>
    <style>
      .cls-1 {
        fill: none;
        stroke: #000;
        stroke-linecap: round;
        stroke-linejoin: round;
        stroke-width: 3px;
      }
    </style>
  </defs>
  <path class="cls-1" d="m32.04,34.71s-16.42,10.64-15.61,17.73l13.06-8.87.22,7.48"/>
  <path class="cls-1" d="m29.48,43.58s7.29-.32,10.7-4.38c1.08-1.29,2.76-2.2,4.67-2.59l7.24-1.45-5.79-5.04-4.48,1.38"/>
  <path class="cls-1" d="m33.1,39.59c-.64-.24-1.05-.76-1-1.31.85-9.1,8.5-13.71,11.11-14.11,2.33-.36-1.75,9.83-5.88,14.53-.94,1.06-2.73,1.44-4.23.89h0Z"/>
  <path class="cls-1" d="m34.63,30.91c-8.1-5.7-15.64-4.65-15.64-4.65,0,0,6.94,7.57,8.38,11.82"/>
  <path class="cls-1" d="m18.99,26.26c9.42,3.44,12.38,8.9,12.38,8.9"/>
  <path class="cls-1" d="m28.86,48.58s-4.64-1.98-5.98-.52c-1.7,1.85-1.34,3.96,8.49,6.05,9.82,2.09,16.15,5.01,20.73,1.98s9.15-8.59,9.15-8.59v-8.31s-4.85,2.82-6.86,5.53c-2.02,2.71-7.27,7.2-7.27,7.2l-15.75-2.66"/>
  <path class="cls-1" d="m61.25,39.2v-3.34s9.42,1.25,10.23-6.36l4.58,1.77v8.58s-8.61,4.15-10.09,9.42h-6.25"/>
  <path class="cls-1" d="m71.48,29.49l-.13-1.67h-10.09v2.3l-3.02,2.65c-.4.35-.08.9.52.9h2.49v2.19"/>
  <line class="cls-1" x1="64.77" y1="30.71" x2="66.32" y2="30.71"/>
  <path class="cls-1" d="m74.19,40.86c1.99,1.42,3.43,2.96,4.46,4.52,4.12,6.22,1.71,12.69,1.71,12.69l-18.18.94s3.16-4.82,3.78-9.75c0,0,4.04-3.29,13.19-3.06"/>
  <path class="cls-1" d="m65.18,53.44c7.78-3.39,15.88-1.51,15.88-1.51"/>
  <path class="cls-1" d="m62.18,59.02s-8.6,4.17-16.54,5.74c0,0,8.63,1.04,14.07,15.13,5.44,14.08,18.36,15.23,22.13,14.61,0,0,1.48-5.22-1.35-12h0c-1.86-4.47-2.46-9.2-1.75-13.86l1.61-10.55"/>
  <path class="cls-1" d="m45.64,64.75l-4.83,2.17c-1.78.8-3.02,2.18-3.37,3.76l-2.81,12.64-7.67,1.62c-3.69.86-4.85,2.55-4.85,4.64h0s15.52-.08,15.52-.08c2.29-.06,3.81-1.86,2.97-3.51h0c-.52-1.03-.37-2.19.42-3.11,1.75-2.03,4.57-5.95,3.75-9.38-.22-.94.78-1.78,2.01-1.73l8.87.39"/>
  <path class="cls-1" d="m52.95,62.75c8.57.76,12.34,13.28,16.91,20.06,4.58,6.78,12.28,6.24,12.28,6.24"/>
  <path class="cls-1" d="m60.22,59.91c9.51,1.4,10.4,10.81,12.9,15.07,2.93,4.98,6.47,4.98,6.47,4.98"/>
  <path class="cls-1" d="m70.55,58.58c7.12,1.33,8.34,9.1,8.34,9.1"/>
  <path class="cls-1" d="m49.91,66.56c13.76-2.43,21.56-8.02,21.56-8.02"/>
  <path class="cls-1" d="m54.58,70.77c17.7-3.2,23.62-12.58,23.62-12.58"/>
  <path class="cls-1" d="m57.29,74.74c15.94-2.37,20.91-9.4,20.91-9.4"/>
  <path class="cls-1" d="m59.92,80.4c12.63-1.56,18.54-7.51,18.54-7.51"/>
  <path class="cls-1" d="m63.04,85.97c11.26-1.08,16.21-7.23,16.21-7.23"/>
  <path class="cls-1" d="m69.19,91.54c9.82-1.96,12.07-6.91,12.07-6.91"/>
  <path class="cls-1" d="m74.14,93.71v4.84l-10.57,2.46c-1.99.46-3.35,1.88-3.35,3.49h0s18.08,0,18.08,0c1.85,0,3.1-1.47,2.36-2.79l-1.07-1.9v-5.2"/>
  <path class="cls-1" d="m76.05,39.85s10.41-4.24,16.97-3c6.51,1.23,8.81,6.89,7.54,11.21-2.59,8.85,3.38,7.95,4.88,13.33,1.5,5.38-5.28,7.35-1.37,11.5,3.91,4.15-4.95,10.29,1.07,15.2,6.01,4.91,6.53,15.04,1.04,18.61"/>
  <path class="cls-1" d="m76.42,42.73c10.65-3.8,15.73-.67,18.23,4.26,2.56,5.04-2.38,7.67,2.29,13.47,4.67,5.82-3.07,9.27.84,13,3.91,3.73.66,5.05-.84,8.89-1.5,3.85,3.73,8.08,5.99,11.36s-.05,11.08-2.31,12.99"/>
  <path class="cls-1" d="m58.68,40.86c-6.33-2.65-7.99,1.54-14.15,2.01s-9.15,7.07-9.15,7.07"/>
  <path class="cls-1" d="m31.37,54.11c-12.08,2.34-15.63,8.7-15.02,13.58s-1.68,9.07-6.35,11.05"/>
  <path class="cls-1" d="m53.5,45.8c-5.21.34-9.03,1.89-9.45,5.6"/>
  <path class="cls-1" d="m42.02,56.68c-.94,5.55-11.77,5.68-11.77,13.36s.54,12.28-5.07,15.46"/>
  <path class="cls-1" d="m79.85,61.39c10.09,2.11-3.8,12.5,7.63,20.96,7.31,5.41-3.56,8.48.27,17.45,3.84,8.98-5.53,9.23-5.53,9.23"/>
  <path class="cls-1" d="m89.87,51.89c.21,1.29-.51,2.51-1.76,3.23-1.44-.46-2.53-1.51-2.74-2.8-.21-1.29.51-2.51,1.76-3.23,1.44.46,2.53,1.51,2.74,2.8Z"/>
  <path class="cls-1" d="m89.87,51.89c.21,1.29-.51,2.51-1.76,3.23-1.44-.46-2.53-1.51-2.74-2.8-.21-1.29.51-2.51,1.76-3.23,1.44.46,2.53,1.51,2.74,2.8Z"/>
  <polyline class="cls-1" points="90.74 57.31 88.1 55.12 85.88 57.78"/>
  <path class="cls-1" d="m92.02,71.2c.21,1.29-.51,2.51-1.76,3.23-1.44-.46-2.53-1.51-2.74-2.8-.21-1.29.51-2.51,1.76-3.23,1.44.46,2.53,1.51,2.74,2.8Z"/>
  <path class="cls-1" d="m92.02,71.2c.21,1.29-.51,2.51-1.76,3.23-1.44-.46-2.53-1.51-2.74-2.8-.21-1.29.51-2.51,1.76-3.23,1.44.46,2.53,1.51,2.74,2.8Z"/>
  <polyline class="cls-1" points="92.9 76.62 90.26 74.43 88.04 77.09"/>
  <path class="cls-1" d="m96.9,95.24c.21,1.29-.51,2.51-1.76,3.23-1.44-.46-2.53-1.51-2.74-2.8-.21-1.29.51-2.51,1.76-3.23,1.44.46,2.53,1.51,2.74,2.8Z"/>
  <path class="cls-1" d="m96.9,95.24c.21,1.29-.51,2.51-1.76,3.23-1.44-.46-2.53-1.51-2.74-2.8-.21-1.29.51-2.51,1.76-3.23,1.44.46,2.53,1.51,2.74,2.8Z"/>
  <polyline class="cls-1" points="97.78 100.67 95.14 98.48 92.92 101.14"/>
  <path class="cls-1" d="m23.82,77.88c-.4,1.26-1.64,2.2-3.14,2.53-1.13-.83-1.66-2.11-1.26-3.37s1.64-2.2,3.14-2.53c1.13.83,1.66,2.11,1.26,3.37Z"/>
  <path class="cls-1" d="m23.82,77.88c-.4,1.26-1.64,2.2-3.14,2.53-1.13-.83-1.66-2.11-1.26-3.37s1.64-2.2,3.14-2.53c1.13.83,1.66,2.11,1.26,3.37Z"/>
  <polyline class="cls-1" points="22.13 83.18 20.68 80.4 17.37 82.27"/>
  <path class="cls-1" d="m29.46,62.55c-.87,1.11-2.41,1.72-3.97,1.69-.76-1.06-.78-2.4.09-3.51s2.41-1.72,3.97-1.69c.76,1.06.78,2.4-.09,3.51Z"/>
  <path class="cls-1" d="m29.46,62.55c-.87,1.11-2.41,1.72-3.97,1.69-.76-1.06-.78-2.4.09-3.51s2.41-1.72,3.97-1.69c.76,1.06.78,2.4-.09,3.51Z"/>
  <polyline class="cls-1" points="25.81 67.23 25.49 64.24 21.62 65.27"/>
  <path class="cls-1" d="m60.7,40.86c9.69-1.35,14.53-4.37,14.53-4.37"/>
  <line class="cls-1" x1="55.65" y1="26.18" x2="77.09" y2="26.26"/>
  <polyline class="cls-1" points="61.25 26.18 67.74 8.67 73.12 26.18"/>
  <line class="cls-1" x1="58.68" y1="13.87" x2="64.17" y2="15.38"/>
  <line class="cls-1" x1="55.78" y1="17.26" x2="63.33" y2="19.46"/>
  <line class="cls-1" x1="53.8" y1="20.82" x2="61.8" y2="23.11"/>
  <line class="cls-1" x1="61.33" y1="10.04" x2="66.52" y2="11.36"/>
  <line class="cls-1" x1="76.2" y1="13.87" x2="70.71" y2="15.38"/>
  <line class="cls-1" x1="79.1" y1="17.26" x2="71.55" y2="19.46"/>
  <line class="cls-1" x1="81.08" y1="20.82" x2="73.08" y2="23.11"/>
  <line class="cls-1" x1="73.56" y1="10.04" x2="68.36" y2="11.36"/>
</svg>