<?xml version="1.0" encoding="UTF-8"?>
<svg id="icons" xmlns="http://www.w3.org/2000/svg" viewBox="0 0 120 120">
  <defs>
    <style>
      .cls-1 {
        fill: none;
        stroke: #000;
        stroke-linecap: round;
        stroke-linejoin: round;
        stroke-width: 3px;
      }
    </style>
  </defs>
  <path class="cls-1" d="m70.78,24.81h0s13.3,3.98,13.3,3.98v3.28s-9.56,4.84-16.47,3.79l-.02-.96"/>
  <path class="cls-1" d="m84.08,32.06v3.69l-7.53,19.77h-8.42l-.52-19.67c6.91,1.06,16.47-3.79,16.47-3.79Z"/>
  <path class="cls-1" d="m67.62,35.85c-.06-.02-.15-.02-.22-.04"/>
  <path class="cls-1" d="m84.08,32.06c3.67-1.14,5.16,3.79,0,3.69"/>
  <path class="cls-1" d="m67.58,34.88h-4.18,0c1.07-3.3,3.09-6.32,5.88-8.76l1.5-1.31h0"/>
  <path class="cls-1" d="m73.85,32.02c-1.11,0-2.08-.52-2.6-1.29.52-.77,1.48-1.3,2.6-1.3s2.08.53,2.59,1.3c-.52.77-1.48,1.29-2.59,1.29Z"/>
  <path class="cls-1" d="m70.78,24.81c-7.38-2.29-4.38-9.17.47-6.75,4.85,2.42,12.98,3.4,14.31.6"/>
  <path class="cls-1" d="m84.08,28.79c4.55,1.63,5.41,1.62,7.09,1.62,3.99,0,3.99-3.43,1.58-4.34l-3.51-1.54c-7.1-3.82-3.68-5.87-3.68-5.87l3.07-4.4"/>
  <path class="cls-1" d="m71.25,18.06c4.6-5.22,11.49,2.9,17.99-4.71"/>
  <path class="cls-1" d="m89.24,13.34c-2.94,3.95-1.26,6.24,2.67,7.83,5.17,2.1,1.88,5.58,1.88,5.58"/>
  <path class="cls-1" d="m91.46,9.9c-1.46,3.82-7.23,3.18-11.22,3.44-3.99.25-5.03,2.73-5.03,2.73"/>
  <path class="cls-1" d="m91.46,9.9c-3.65,6.27,5.92,7.64,2.04,12.13"/>
  <path class="cls-1" d="m91.18,30.4c5.91,10.07-5.08,12.55-8.09,7.96"/>
  <path class="cls-1" d="m67.74,40.58c10.88,1.81,14.51,0,14.51,0"/>
  <path class="cls-1" d="m68.02,45.7c6.12,2.72,12.23,0,12.23,0"/>
  <path class="cls-1" d="m68.02,50.54c6.29,1.4,10.36,0,10.36,0"/>
  <path class="cls-1" d="m95.61,108.4v-29.17c-13.5,5.96-32.21-.02-32.21-.02l-.74,23.9-36.21-1.52,15.24-28.07c1.72-3.55,5.57-6,10.01-6.37l8.13-.67c2.61-.22,4.6-2.11,4.6-4.36v-10.67l-5.81,8.43c-1.47,2.14-4.61,2.92-7.18,1.79l-15.09-6.65c-7.98-1.02-8.72-6.62-4.73-8,3.99-1.37,7.54,3.28,7.54,3.28l12.33,4.06c1.08.35,2.27-.16,2.59-1.11l2.48-7.37c.89-2.65,3.71-4.48,6.91-4.48h3.91"/>
  <path class="cls-1" d="m84.86,39.91h0c1.57,1.42,3.57,2.42,5.76,2.95,4.1,1,7.38,4.07,8.36,7.76l2.27,8.58c.46,1.76.52,3.6,0,5.34-.47,1.55-1.41,3.23-3.27,4.34-1.95,1.16-3.35,4.85-1.63,6.24,0,0-.49-.29,0,0l-16.1-1.66.31-3.14c.26-2.59.59-5.18,1.2-7.72.45-1.87.64-4.6-1.51-5.82l17.73,2.29"/>
  <path class="cls-1" d="m62.9,93.59c-17.09,1.41-29.54-2.86-29.54-2.86"/>
  <path class="cls-1" d="m37.98,81.19c9.61,8.46,25.19,4.51,25.19,4.51"/>
  <path class="cls-1" d="m41.96,73.01c7.4,4.94,21.44,6.19,21.44,6.19"/>
  <path class="cls-1" d="m48.14,67.93c18.37,3.88,27.82,13.71,27.82,13.71"/>
  <line class="cls-1" x1="77.62" y1="55.45" x2="85.56" y2="44.55"/>
  <line class="cls-1" x1="67.09" y1="69.9" x2="72.54" y2="62.42"/>
  <path class="cls-1" d="m80.25,56.78s-7.94-1.78-9,2.68c-1.06,4.46,7.46,4.5,10.29,4.1"/>
  <path class="cls-1" d="m90.61,74.54c.12,4.92-2.86,6.83-2.86,6.83"/>
  <path class="cls-1" d="m67.09,109.73v-25.83s11.29,3.2,23.84.67v25.33"/>
  <path class="cls-1" d="m70.78,109.2v-20.13s10.77,1.25,15.58,0v20.39"/>
  <path class="cls-1" d="m75.21,109.01v-15.13s3.17.6,6.33.13v15.45"/>
  <path class="cls-1" d="m39.75,102.23l.53,7.76h-18.75v-.02c0-2.36,1.61-4.5,3.94-4.93.02,0,.03,0,.05,0l9.96-3.08h0"/>
  <path class="cls-1" d="m62.82,97.99l.08,11.91-20.2.19.13-.59c.51-2.23,2.23-4.05,4.48-4.46.02,0,.03,0,.05,0l7.74-2.26h0"/>
  <line class="cls-1" x1="83.66" y1="57.22" x2="98.66" y2="49.4"/>
  <path class="cls-1" d="m61.6,66.03c6.3,6.98,18.65,6.29,18.65,6.29"/>
  <line class="cls-1" x1="67.09" y1="109.73" x2="98.66" y2="109.9"/>
  <ellipse class="cls-1" cx="26.71" cy="49.4" rx="7.74" ry="6.67"/>
  <line class="cls-1" x1="35.62" y1="14.26" x2="32.37" y2="83.02"/>
  <path class="cls-1" d="m29.98,51.96c-5.29,1.39-11.2,27.39-5.88,29.23s6.87-26.21,6.87-26.21"/>
  <path class="cls-1" d="m27.93,55.99c-2.06,14.56-4.67,20.35-1.44,23.82"/>
  <line class="cls-1" x1="69.81" y1="109.9" x2="60.49" y2="109.93"/>
</svg>