<?xml version="1.0" encoding="UTF-8"?>
<svg id="icons" xmlns="http://www.w3.org/2000/svg" viewBox="0 0 120 120">
  <defs>
    <style>
      .cls-1 {
        stroke-miterlimit: 10;
        stroke-width: 0px;
      }

      .cls-1, .cls-2 {
        stroke: #000;
      }

      .cls-2 {
        fill: none;
        stroke-linecap: round;
        stroke-linejoin: round;
        stroke-width: 3px;
      }
    </style>
  </defs>
  <path class="cls-2" d="m58.72,35.13h0c-2.26,0-8.17-3.68-8.51-4.92v-5.07c0-1.43,1.54-2.59,3.44-2.59h6.52s3.45,0,3.45,0c1.9,0,3.44,1.16,3.44,2.59v5.07c0,.62-5.28,4.93-8.33,4.92h0"/>
  <path class="cls-2" d="m50.21,27.52s-5.8-.91-3.91-4.56,8.16-.41,10.7-3.52"/>
  <path class="cls-2" d="m48.95,21.1h0c-.5-1.57.82-3.14,2.93-3.46,2.33-.34,4.81-1.04,5.47-2.19"/>
  <path class="cls-2" d="m50.29,17.82h0c-.42-1.57.36-4.31,3.58-4.93,1.92-.37,4.81-.94,4.84-2.89"/>
  <path class="cls-2" d="m55.13,28.29c-.54,0-1.01-.22-1.27-.55.25-.33.73-.55,1.27-.55s1.02.22,1.27.55c-.26.33-.73.55-1.27.55Z"/>
  <path class="cls-2" d="m49.8,42.9s-3.48,8.31-6.97,8.65c-3.49.34-8.88-12.11-8.88-12.11h0s-.57-.62-2.76-3.91c-1.3-1.95.49-3.74,1.71-4.67.5-.38,1.34-.28,1.67.2l2.01,2.92c.32.46.44.99.36,1.51l-.4,2.45-.08.47,6.16,6.43,2.95-5.6c1.42-2.61,5.36-2.91,5.36-2.91h3.99v-2.23"/>
  <path class="cls-2" d="m50.36,40.64c-2.12,4.2,2.34,5.26,4.24,4.74"/>
  <path class="cls-2" d="m51.61,45.45l1.76,5.24-4.55,6.99c-.93,1.43-1.18,3.06-.7,4.61l4.37,14.2c.28.92.3,1.88.06,2.81l-.75,2.81c-.31,1.18-.37,2.39-.16,3.58l1.73,9.91,5.09-.13.91-33.47-4.1-2.06"/>
  <path class="cls-2" d="m40.33,50.2l-9.6,18.51s12.76.46,17.5-6.05"/>
  <line class="cls-2" x1="34.6" y1="61.24" x2="48.99" y2="57.42"/>
  <line class="cls-2" x1="38.53" y1="53.68" x2="53.37" y2="50.69"/>
  <line class="cls-2" x1="43.85" y1="52.61" x2="34.6" y2="68.55"/>
  <line class="cls-2" x1="47.86" y1="52.24" x2="39.48" y2="67.74"/>
  <path class="cls-2" d="m33.94,39.44s2.31.18,2.51-1.03"/>
  <path class="cls-2" d="m52.52,91.28s3.02,1.1,5.94-.2"/>
  <line class="cls-2" x1="53.37" y1="95.6" x2="45.95" y2="103.17"/>
  <line class="cls-2" x1="57.97" y1="95.6" x2="57.95" y2="105.92"/>
  <line class="cls-2" x1="55.53" y1="95.6" x2="51.61" y2="105.5"/>
  <path class="cls-2" d="m67.05,27.52s5.8-.91,3.91-4.56c-1.89-3.65-8.98.46-10.69-3.52"/>
  <path class="cls-2" d="m68.31,21.1h0c.5-1.57-.82-3.14-2.93-3.46-2.33-.34-4.58-1.04-4.86-2.19"/>
  <path class="cls-2" d="m66.96,17.82h0c.42-1.57.09-3.91-2.42-4.71-1.86-.59-5.79-1.17-5.82-3.11"/>
  <path class="cls-2" d="m55.13,28.29c.54,0,1.01-.22,1.27-.55-.25-.33-.73-.55-1.27-.55"/>
  <path class="cls-2" d="m67.73,42.9s3.48,8.31,6.97,8.65c3.49.34,8.88-12.11,8.88-12.11h0s.57-.62,2.76-3.91c1.3-1.95-.49-3.74-1.71-4.67-.5-.38-1.34-.28-1.67.2l-2.01,2.92c-.32.46-.44.99-.36,1.51l.4,2.45.08.47-5.92,6.43-3.19-5.6s-2.16-3.15-5.3-2.91h-3.99v-2.23"/>
  <path class="cls-2" d="m66.47,40.1c3.34,3.48-1.64,5.8-3.54,5.29"/>
  <path class="cls-2" d="m66.13,44.84l-1.97,5.86,4.77,7.32c.79,1.21,1,2.6.6,3.91l-4.53,14.7c-.26.83-.27,1.69-.05,2.52l.92,3.45c.23.85.26,1.72.11,2.57l-1.82,10.42-5.69-.13"/>
  <path class="cls-2" d="m77.19,50.2l9.6,18.51s-12.76.46-17.5-6.05"/>
  <line class="cls-2" x1="82.93" y1="61.24" x2="68.54" y2="57.42"/>
  <line class="cls-2" x1="79" y1="53.68" x2="64.16" y2="50.69"/>
  <line class="cls-2" x1="73.68" y1="52.61" x2="82.93" y2="68.55"/>
  <line class="cls-2" x1="69.72" y1="52.35" x2="78.05" y2="67.74"/>
  <path class="cls-2" d="m83.58,39.44s-2.31.18-2.51-1.03"/>
  <path class="cls-2" d="m64.94,91.08s-3.56,1.3-6.48,0"/>
  <line class="cls-2" x1="64.16" y1="95.6" x2="69.72" y2="102.72"/>
  <line class="cls-2" x1="61.44" y1="95.6" x2="64.74" y2="105.5"/>
  <path class="cls-2" d="m29.77,77.71h5.41c3.08,0,5.58,2.5,5.58,5.58v6.01c0,1.39-1.13,2.52-2.52,2.52h-11.53c-1.39,0-2.52-1.13-2.52-2.52v-6.01c0-3.08,2.5-5.58,5.58-5.58Z"/>
  <path class="cls-2" d="m41.9,95.48h-18.08c-3.65,0-6.44-2.78-5.92-5.88l2.06-12.19c0-2.15,2.03-3.89,4.53-3.89h16.48c2.5,0,4.53,1.74,4.53,3.89l2.31,12.09c.6,3.13-2.21,5.98-5.9,5.98Z"/>
  <path class="cls-2" d="m35.13,96.36l-3.89,5.9c-1,1.51-3.06,2.45-5.3,2.43h-.84c-6.19.47-5.54,5.3-5.54,5.3h8.9c3.19,0,6.16-1.22,7.89-3.24l6.92-8.07"/>
  <path class="cls-2" d="m32.47,86.95c0,.71-.77,1.29-1.72,1.29,0,0-1.91.36-2.73-1.29"/>
  <path class="cls-2" d="m37.05,86.95c-1.05,1.3-2.21,1.31-2.86,1.29-.95-.02-1.72-.58-1.72-1.29l-1.14-1.18c-.28-.29-.07-.75.34-.75h1.68c.38,0,.58.44.32.71l-1.2,1.22"/>
  <line class="cls-2" x1="27.97" y1="82.68" x2="29.48" y2="82.68"/>
  <line class="cls-2" x1="35.54" y1="82.68" x2="37.05" y2="82.68"/>
  <line class="cls-2" x1="47.86" y1="90.71" x2="52.85" y2="92.61"/>
  <path class="cls-2" d="m29.16,104c-3.6-3.6-2.18-8.52-2.18-8.52"/>
  <path class="cls-2" d="m34.43,108.35c2.8,1,6.32,1.79,16.91,1.62h15c10.59.17,14.11-.62,16.91-1.62"/>
  <path class="cls-2" d="m79.44,77.71h11.53c1.39,0,2.52,1.13,2.52,2.52v6.01c0,3.08-2.5,5.58-5.58,5.58h-5.41c-3.08,0-5.58-2.5-5.58-5.58v-6.01c0-1.39,1.13-2.52,2.52-2.52Z" transform="translate(170.41 169.53) rotate(180)"/>
  <path class="cls-2" d="m75.77,95.48h18.08c3.65,0,6.44-2.78,5.92-5.88l-2.06-12.19c0-2.15-2.03-3.89-4.53-3.89h-16.48c-2.5,0-4.53,1.74-4.53,3.89l-2.31,12.09c-.6,3.13,2.21,5.98,5.9,5.98Z"/>
  <path class="cls-2" d="m82.54,96.36l3.89,5.9c1,1.51,3.06,2.45,5.3,2.43h.84c6.19.47,5.54,5.3,5.54,5.3h-8.33s-.57,0-.57,0c-3.19,0-6.16-1.22-7.89-3.24l-6.92-8.07"/>
  <path class="cls-2" d="m85.2,86.95c0,.71.77,1.29,1.72,1.29,0,0,1.91.36,2.73-1.29"/>
  <path class="cls-2" d="m80.63,86.95c1.05,1.3,2.21,1.31,2.86,1.29.95-.02,1.72-.58,1.72-1.29l1.14-1.18c.28-.29.07-.75-.34-.75h-1.68c-.38,0-.58.44-.32.71l1.2,1.22"/>
  <line class="cls-2" x1="89.7" y1="82.68" x2="88.2" y2="82.68"/>
  <line class="cls-2" x1="82.13" y1="82.68" x2="80.63" y2="82.68"/>
  <line class="cls-2" x1="69.81" y1="90.71" x2="64.82" y2="92.61"/>
  <path class="cls-2" d="m88.52,104c3.6-3.6,2.18-8.52,2.18-8.52"/>
  <line class="cls-2" x1="58.07" y1="31.49" x2="59.23" y2="31.49"/>
  <path class="cls-2" d="m53.42,26.32c.88-.66,2.31-.66,3.19,0"/>
  <path class="cls-2" d="m62.37,28.29c-.54,0-1.01-.22-1.27-.55.25-.33.73-.55,1.27-.55s1.02.22,1.27.55c-.26.33-.73.55-1.27.55Z"/>
  <path class="cls-2" d="m62.38,28.29c.54,0,1.01-.22,1.27-.55-.25-.33-.73-.55-1.27-.55"/>
  <path class="cls-2" d="m60.66,26.32c.88-.66,2.31-.66,3.19,0"/>
  <path class="cls-2" d="m31.3,52.59c0,4.98-4.78,9.04-10.66,9.04s-10.7-4.07-10.7-9.04c0-1.18.26-2.3.78-3.33.71-1.53,1.94-2.89,3.49-3.86,1.78-1.15,4.01-1.83,6.43-1.83s4.62.68,6.4,1.83c1.55.97,2.78,2.3,3.49,3.86,0,0,.03,0,.03.03.48,1.03.74,2.12.74,3.3Z"/>
  <path class="cls-2" d="m14.2,45.4c.45-.15.94-.21,1.42-.21,2.78,0,5.01,2.03,5.01,4.54s-2.23,4.54-5.01,4.54-4.98-2.03-4.98-4.54c0-.15,0-.32.06-.47"/>
  <path class="cls-2" d="m30.52,49.26s.03,0,.03.03c.03.15.03.29.03.44,0,2.5-2.23,4.54-4.98,4.54s-4.98-2.03-4.98-4.54,2.23-4.54,4.98-4.54c.48,0,.97.06,1.42.21"/>
  <ellipse class="cls-1" cx="15.77" cy="49.93" rx="1.18" ry="1.07"/>
  <ellipse class="cls-1" cx="25.61" cy="49.93" rx="1.18" ry="1.07"/>
  <path class="cls-2" d="m19.24,56.81l.93,1.41c.21.32.7.33.92,0l1-1.44"/>
  <path class="cls-2" d="m110.06,52.59c0,4.98-4.78,9.04-10.66,9.04s-10.7-4.07-10.7-9.04c0-1.18.26-2.3.78-3.33.71-1.53,1.94-2.89,3.49-3.86,1.78-1.15,4.01-1.83,6.43-1.83s4.62.68,6.4,1.83c1.55.97,2.78,2.3,3.49,3.86,0,0,.03,0,.03.03.48,1.03.74,2.12.74,3.3Z"/>
  <path class="cls-2" d="m92.97,45.4c.45-.15.94-.21,1.42-.21,2.78,0,5.01,2.03,5.01,4.54s-2.23,4.54-5.01,4.54-4.98-2.03-4.98-4.54c0-.15,0-.32.06-.47"/>
  <path class="cls-2" d="m109.29,49.26s.03,0,.03.03c.03.15.03.29.03.44,0,2.5-2.23,4.54-4.98,4.54s-4.98-2.03-4.98-4.54,2.23-4.54,4.98-4.54c.48,0,.97.06,1.42.21"/>
  <ellipse class="cls-1" cx="94.53" cy="49.93" rx="1.18" ry="1.07"/>
  <ellipse class="cls-1" cx="104.37" cy="49.93" rx="1.18" ry="1.07"/>
  <path class="cls-2" d="m97.8,56.75l1.13,1.47c.21.32.69.33.91,0l1.19-1.48"/>
  <line class="cls-2" x1="59.38" y1="62.01" x2="63.51" y2="59.95"/>
  <path class="cls-2" d="m23,34.44c11.63,2.96,19.71-3.21,19.71-3.21"/>
  <path class="cls-2" d="m72.71,33.24c10.2,3.71,22.21,2.2,22.21,2.2"/>
  <ellipse class="cls-2" cx="83.99" cy="30.98" rx="4.71" ry="4.55"/>
</svg>