<?xml version="1.0" encoding="UTF-8"?>
<svg id="icons" xmlns="http://www.w3.org/2000/svg" viewBox="0 0 120 120">
  <defs>
    <style>
      .cls-1 {
        fill: none;
        stroke: #000;
        stroke-linecap: round;
        stroke-linejoin: round;
        stroke-width: 3px;
      }
    </style>
  </defs>
  <g>
    <path class="cls-1" d="m51,31.16c.59-.66,1.69-1.11,2.95-1.11s2.37.45,2.96,1.11c-.59.66-1.7,1.1-2.96,1.1s-2.36-.44-2.95-1.1Zm11.9,0"/>
    <path class="cls-1" d="m48.24,28.19s.95-1.83,5.71-1.83c2.15,0,4.09.57,6.02,1.73h0"/>
    <line class="cls-1" x1="59.99" y1="28.09" x2="59.99" y2="28.09"/>
    <path class="cls-1" d="m56.18,39.06c.12-.03,1.15-.28,2.12-.25,1.04.04,1.6.37,1.6.37"/>
    <path class="cls-1" d="m45.54,38.62s-.44,2.57-7.66,2.84c-2.93.11-4.36,1.54-5.25,3.23-.47.9-.76,1.88-.95,2.87l-.99,5.04-1.98,7.49c-.3,1.13-.2,2.37.43,3.36.27.42.6.8,1,1.11,1.07.86,2.53,1.05,3.85.67l3.19-.9,4.35-1.38s-1.53,21.82-2.08,25.39-1.5,5.49-2.73,7.08-.64,2.93-.82,7.54c-.11,2.97,0,5.75,0,5.75l5.32.93c9.23,1.3,18.66.78,18.66.78"/>
    <path class="cls-1" d="m60.22,9.46c-12.03,0-24.55,3.78-24.55,10.46v10.47c0,1.12.19,2.25.68,3.26,1.56,3.2,4.69,3.65,9.21,4.99h0c-1.7-1.96-1-4.08-1-6.24v-5.18c0-2.43,3.65-5.4,8.16-5.4h7.16"/>
    <path class="cls-1" d="m59.91,35.33c-.72,0-1.43-.18-1.98-.54"/>
    <path class="cls-1" d="m62.92,51.85l-3.11-.09c-1.1-.03-2.18.22-3,.7h0c-1.42.84-3.15,1.42-5.03,1.69l-12.63,1,1.3-5.32"/>
    <path class="cls-1" d="m41.53,62.97l12.63-5.04c2.35-.94,3.26-1.42,5.79-1.42h0"/>
    <path class="cls-1" d="m59.99,50.28c-.1-6.27-8.2-11.1-12.25-3.93-1.6,2.83,1.19,5.04-2.3,9.65-4.35,5.76,10.14,6.08,3.73,11.9s4.06,5.99-.39,9.06c-3.37,2.33-2.98,5.54-1.53,7.37s.38,4.7-2.37,5.2-6.47,1.93-6.7,3.49"/>
    <path class="cls-1" d="m53.73,59.02c0,5.17,4.86,5.54,6.01,5.54"/>
    <line class="cls-1" x1="42.68" y1="103.27" x2="42.68" y2="95.45"/>
    <path class="cls-1" d="m51.6,95.45s-.08,2.45-1.53,3.91-1.63,3.91-1.63,3.91"/>
    <line class="cls-1" x1="56.27" y1="95.45" x2="56.27" y2="103.27"/>
    <line class="cls-1" x1="62.94" y1="63.75" x2="62.94" y2="94.61"/>
  </g>
  <path class="cls-1" d="m35.67,27.69c0-12.72,24.22-11.63,24.22-11.63"/>
  <g>
    <path class="cls-1" d="m65.93,32.26c-1.26,0-2.37-.44-2.96-1.1.59-.66,1.7-1.11,2.96-1.11s2.36.45,2.95,1.11c-.59.66-1.69,1.1-2.95,1.1Zm-8.95-1.1"/>
    <path class="cls-1" d="m59.9,28.09h0c1.93-1.16,3.87-1.73,6.02-1.73,4.76,0,5.71,1.83,5.71,1.83"/>
    <line class="cls-1" x1="59.89" y1="28.09" x2="59.89" y2="28.09"/>
    <path class="cls-1" d="m59.98,39.18s.56-.33,1.6-.37c.97-.04,2,.22,2.12.25"/>
    <path class="cls-1" d="m82.7,64.35l-4.35-1.38s1.53,21.82,2.08,25.39,1.5,5.49,2.73,7.08.63,3.5.82,7.54c.14,2.97,0,5.75,0,5.75l-5.32.93c-9.23,1.3-18.66.78-18.66.78"/>
    <path class="cls-1" d="m82.82,64.35l3.19.9c1.32.37,2.78.18,3.85-.67.39-.31.73-.69,1-1.11.62-.99.73-2.22.43-3.36-.59-2.23,0,0,0,0l-3.78-14.42c-.23-.89-.62-1.74-1.23-2.42-.91-1.01-2.23-1.73-4.28-1.81-7.22-.26-7.66-2.84-7.66-2.84"/>
    <path class="cls-1" d="m59.66,9.46c12.03,0,24.55,3.78,24.55,10.46v6.11s0,4.36,0,4.36c0,1.12-.19,2.25-.68,3.26-1.56,3.2-4.69,3.65-9.21,4.99h0c1.7-1.96,1-4.08,1-6.24v-5.18c0-2.43-3.65-5.4-8.16-5.4h-7.16"/>
    <path class="cls-1" d="m59.97,35.33c.72,0,1.43-.18,1.98-.54"/>
    <path class="cls-1" d="m56.96,51.85l3.11-.09c1.1-.03,2.18.22,3,.7h0c1.42.84,3.15,1.42,5.03,1.69l12.63,1-1.53-5.32"/>
    <path class="cls-1" d="m81.7,93.02c-.22-1.56-3.94-2.99-6.7-3.49-2.76-.49-3.83-3.37-2.37-5.2s1.85-5.04-1.53-7.37c-4.44-3.07,6.5-4.55-.39-9.06-7.46-4.88,8.68-6.64,3.9-10.89-5.28-4.7.86-6.74-2.98-12.22-2.87-4.09-11.69-1.86-11.65,5.49v.44l-.05,5.8s2.28-.33,5.78,1.42l12.63,5.04"/>
    <path class="cls-1" d="m66.15,59.02c0,2.51-2.61,5.54-6.49,5.54"/>
    <line class="cls-1" x1="77.2" y1="103.27" x2="77.2" y2="95.45"/>
    <path class="cls-1" d="m68.28,95.45s.08,2.45,1.53,3.91,1.63,3.91,1.63,3.91"/>
    <line class="cls-1" x1="63.61" y1="95.45" x2="63.61" y2="103.27"/>
  </g>
  <path class="cls-1" d="m84.21,27.69c0-12.72-24.22-11.63-24.22-11.63"/>
  <line class="cls-1" x1="65.46" y1="50.91" x2="54.43" y2="50.91"/>
  <rect class="cls-1" x="42.68" y="94.61" width="34.52" height="8.66"/>
</svg>