<?xml version="1.0" encoding="UTF-8"?>
<svg id="icons" xmlns="http://www.w3.org/2000/svg" viewBox="0 0 120 120">
  <defs>
    <style>
      .cls-1 {
        fill: none;
        stroke: #000;
        stroke-linecap: round;
        stroke-linejoin: round;
        stroke-width: 3px;
      }
    </style>
  </defs>
  <path class="cls-1" d="m36.37,22.83h0c-3.42-2.01-12.68-1.57-15.87,1.19h0v-9.94c0-1.37,1.31-2.48,2.92-2.48h10.03c1.61,0,2.92,1.11,2.92,2.48v8.75Z"/>
  <path class="cls-1" d="m20.49,24.02c-1.52,3.56,1.4,4.86,1.4,4.86,0,0,3.68-4.86,14.48-2.43,0,0,2.41-2,0-3.62"/>
  <path class="cls-1" d="m25.57,11.59c-2.41-2.92-9.25-2.57-10.21,3.87-.84,5.65,1.42,12.41-1.88,15.65s-3.62,7.34-3.49,18.46c.13,11.13,0,18.55,0,18.55,3.49,1.22,6.3-2.2,6.3-2.2l3.75-5.94.71-3.56c.32-1.62.06-3.29-.76-4.78l-1.6-2.91c-1.21-2.2-1.84-4.59-1.84-7.01v-2.06c0-1.02.51-1.99,1.4-2.67l2.09-1.6h0"/>
  <path class="cls-1" d="m38.15,45.94l-3.68,14.96,1.84,2.86s23.81-7.35,31.43,1.94,6.1,32.3,6.1,32.3h-30.1v-18.59c0-1.2-1.14-2.17-2.55-2.17h-15.43c-5.36,0-9.71-3.7-9.71-8.26l.25-3.07"/>
  <path class="cls-1" d="m47.29,98.01v3.02l-.83,1.95c-.46,1.09.49,2.25,1.85,2.25h13.74c.58,0,.87-.6.45-.95l-1.74-1.41c-.99-.8-2.3-1.25-3.67-1.25h0c-2.33,0-4.22-1.61-4.22-3.59h0"/>
  <path class="cls-1" d="m65.57,98.01v3.02l-.83,1.95c-.46,1.09.49,2.25,1.85,2.25h13.74c.58,0,.87-.6.45-.95l-1.74-1.41c-.99-.8-2.3-1.25-3.67-1.25h0c-2.33,0-4.22-1.61-4.22-3.59h0"/>
  <path class="cls-1" d="m18.61,74.58c11.79-1.52,17.7-10.81,17.7-10.81"/>
  <path class="cls-1" d="m41.18,77.26c7.5-6.68,6.26-15.8,6.26-15.8"/>
  <path class="cls-1" d="m43.73,79.42c13.84-3.77,17.06-17.68,17.06-17.68"/>
  <path class="cls-1" d="m43.73,82.24c20.44.43,28.26-7.18,28.26-7.18"/>
  <path class="cls-1" d="m43.73,93.58c19.05-6.48,30.22-3.96,30.22-3.96"/>
  <path class="cls-1" d="m20.05,59.99c7.93-1.4,14.41.92,14.41.92"/>
  <path class="cls-1" d="m20.05,51.75c9.08,2.66,16.49.68,16.49.68"/>
  <path class="cls-1" d="m16.92,44.88c12.38,1.51,23.64,1.49,24.59.52s.82-6.54-1.08-6.78-9.44,1.81-12.98,1.06-6.67-3.83-10.35-1.77"/>
  <path class="cls-1" d="m43.73,81.7H15.29c-.42,0-.76-.29-.76-.65v-3.15c0-.36.34-.65.76-.65h26.8"/>
  <line class="cls-1" x1="110.53" y1="105.23" x2="107.87" y2="105.23"/>
  <polyline class="cls-1" points="100.02 105.23 80.34 105.23 66.61 105.23 62.06 105.23 48.32 105.23 43.74 105.23 38.91 105.23 34.47 105.23 29.33 105.23 24.5 105.23 20.06 105.23 16.56 105.23 16.56 81.7"/>
  <polygon class="cls-1" points="38.91 105.23 20.05 105.23 20.07 85.81 38.93 85.81 38.91 105.23"/>
  <line class="cls-1" x1="43.73" y1="98.01" x2="43.73" y2="105.23"/>
  <rect class="cls-1" x="24.5" y="89.86" width="9.96" height="15.37"/>
  <line class="cls-1" x1="29.32" y1="93.58" x2="29.32" y2="105.23"/>
  <path class="cls-1" d="m72.81,78.82c6.86-4.75,11.66-7.31,12.66-16.32,1-9.01,10.6-13.69,10.6-13.69v5.44l12.5,2.72v3.45l-8.52,3.21c-2.4.91-5.21.49-7.11-1.06l-.67-.54"/>
  <path class="cls-1" d="m73.95,95.84c4.74,0,8.7-.46,11.99-1.18"/>
  <path class="cls-1" d="m93.5,92.14c.1-.05.21-.1.31-.15,4.69-2.31,7.02-6.99,6.03-11.52l-1.26-5.74c-.27-1.23-.35-2.48-.22-3.73l.7-6.99"/>
  <polyline class="cls-1" points="96.12 51.75 100.06 49.58 100.06 55.12"/>
  <path class="cls-1" d="m93.5,92.14c.26.43.56.85.89,1.25l3.76,4.5c1.24,1.48,3.04,2.54,5.1,2.99,2.09.46,3.74,1.81,4.35,3.57l.27.78h-7.85c-1.09,0-2.01-.71-2.12-1.63-.14-1.25-.97-2.36-2.23-3.02l-6.35-3.29c-1.34-.7-2.48-1.59-3.38-2.63"/>
  <path class="cls-1" d="m92.17,85.81v1.67c0,1.63.46,3.23,1.33,4.66"/>
  <path class="cls-1" d="m83.57,85.05v3.53c0,2.22.85,4.35,2.37,6.08"/>
  <path class="cls-1" d="m36.37,26.45l1.53,3.48c.31.71-.11,1.5-.95,1.76l-1.35.42v2.32c0,.79-.71,1.44-1.63,1.51-1.74.13-1.76,1.5-4,3.9-2.54,2.72,5.28,4.94.94,8.36s3.48,4.81.22,8.96c-3.26,4.16-.19,7.04,1.29,8.78,1.86,2.19,5.02.81,13.59.74,6.82-.05.83,5.89,8.52,9.44,2.46,1.14-3.06,8.99,1.08,13.74,3.24,3.73,1.06,8.15,1.06,8.15"/>
  <line class="cls-1" x1="35.61" y1="33.38" x2="32.95" y2="33.38"/>
  <path class="cls-1" d="m21.73,37.72c6.33-2.5,6.2-5.83,0-6.59-2.54-.31-3.74,3.83,3.01,5.03"/>
  <path class="cls-1" d="m111.34,105.23v2.62c0,1.19-.97,2.15-2.16,2.15H15.8c-1.27,0-2.31-1.04-2.31-2.31v-2.46h97.85Z"/>
  <polyline class="cls-1" points="40.62 45.8 45 48.31 40.62 56.28 35.6 56.28"/>
  <path class="cls-1" d="m44.35,49.58l2.43.72s.9-5.15,5.48-10.94h0l-.58-2.22c0-1.17.37-2.31,1.08-3.31l4.02-5.7c.27-.39.95-.36,1.17.06l1.55,2.9c.81,1.51.68,3.26-.34,4.67l-1.76,2.43c-.99,1.36-1.59,2.89-1.75,4.49-.48,4.68-2.11,14.84-7.26,15.46-3.41.41-7.76-1.85-7.76-1.85"/>
  <line class="cls-1" x1="42.03" y1="43.79" x2="45.93" y2="37.21"/>
  <path class="cls-1" d="m45.93,37.21l-.15-3.32c-.14-.7.04-1.41.48-2l2.82-4.86c.43-.58,1.4-.62,1.9-.08l1.89,2.05c.65.7.87,1.62.6,2.48l-.73,2.36"/>
  <path class="cls-1" d="m23.61,38.25c-4.21,3.93,4.53,7.72.46,10.56-4.07,2.84,6.92,5.95,1.51,9.32s4.66,5.5,0,10.3,3.17,3.7,7.95,2.87,13.1-1.69,14,3.76c.91,5.45,4.41,5.3,1.29,10.75s5.89,7.21,1.16,12.2"/>
  <path class="cls-1" d="m63.54,98.01c4.53-4.81-10.02-8.3-2.75-15.75,7.27-7.45-7.53-6.46-5.58-14.13,1.96-7.67-9.21-6.48-9.21-6.48"/>
  <path class="cls-1" d="m56.99,61.14c9.89,5.17-.43,8.68,8.69,13.44s-2.52,8.62,1.52,12.71c4.8,4.85,2.03,10.72,2.03,10.72"/>
  <path class="cls-1" d="m36.55,39.03c-3.9,3.52.7,10.55.7,10.55"/>
  <path class="cls-1" d="m41.18,62.53c-.4,10.46-9.47,14.72-9.47,14.72"/>
  <line class="cls-1" x1="30.83" y1="29.59" x2="32.95" y2="29.59"/>
  <line class="cls-1" x1="95.06" y1="58.56" x2="97.18" y2="58.56"/>
</svg>