<?xml version="1.0" encoding="UTF-8"?>
<svg id="icons" xmlns="http://www.w3.org/2000/svg" viewBox="0 0 120 120">
  <defs>
    <style>
      .cls-1 {
        stroke: #231f20;
      }

      .cls-1, .cls-2 {
        fill: none;
        stroke-linecap: round;
        stroke-linejoin: round;
        stroke-width: 3px;
      }

      .cls-2 {
        stroke: #000;
      }
    </style>
  </defs>
  <path class="cls-2" d="m66.78,25.08v11.07c0,5.98,7.96,9.23,10.89,10.22.69.23,1.44.24,2.14,0,2.93-.97,10.87-4.15,10.87-10.23v-11.07h-23.89Z"/>
  <path class="cls-2" d="m70.29,25.08h-4.5c-1.73,0-1.96-1.41-1.47-3.07.31-1.05,1.26-1.73,2.69-1.92l3.3-.75h0c3.58-.7,6.09-1.99,6.09-1.99"/>
  <path class="cls-2" d="m65.86,20.31c-1.59-4.16,3.4-4.98,5.47-5.56,3.83-1.06,5.04-2.62,5.04-2.62"/>
  <path class="cls-2" d="m87.03,25.08h4.5c1.73,0,1.96-1.41,1.47-3.07-.31-1.05-1.26-1.73-2.69-1.92l-3.3-.75h0s-4.53-.26-6.36-1.99"/>
  <path class="cls-2" d="m91.46,20.31c1.59-4.16-3.4-4.98-5.47-5.56-3.83-1.06-5.07-2.62-5.07-2.62"/>
  <path class="cls-2" d="m73.4,32.01c1.08,0,2.02.68,2.52,1.69-.5,1.02-1.44,1.69-2.52,1.69s-2.01-.67-2.51-1.69c.5-1,1.43-1.69,2.51-1.69Z"/>
  <path class="cls-2" d="m84.21,32.01c1.08,0,2.02.68,2.52,1.69-.5,1.02-1.44,1.69-2.52,1.69s-2.01-.67-2.51-1.69c.5-1,1.43-1.69,2.51-1.69Z"/>
  <path class="cls-2" d="m75.14,40.6c1.61.86,3.75,1.82,7.17,0"/>
  <line class="cls-2" x1="78.74" y1="35.89" x2="78.74" y2="37.96"/>
  <path class="cls-2" d="m70.25,29.41c1.57-1.57,4.12-1.57,5.69,0"/>
  <path class="cls-2" d="m81.64,29.41c1.57-1.57,4.12-1.57,5.69,0"/>
  <line class="cls-2" x1="70.89" y1="33.7" x2="69.9" y2="33.7"/>
  <line class="cls-2" x1="86.73" y1="33.7" x2="87.41" y2="33.7"/>
  <path class="cls-2" d="m45.88,49.42c3.98,2.28,16.75,4.26,18.8,4.5h0"/>
  <path class="cls-2" d="m45.95,55.44c5.59,2.21,10.06,1.89,13.72,2.1"/>
  <path class="cls-2" d="m108.5,49.42c-7.18,2.59-14.94,3.6-19.29,3.92"/>
  <path class="cls-2" d="m107.59,54.64c-6.18,2.04-10.85,3.02-17.92,3.02"/>
  <path class="cls-2" d="m70.89,74.34l-5.34,35.21h28.16l-11.2-43.81v-8.05c.02-1.3-1.04-2.36-2.35-2.36h-4.82c-1.58,0-2.86,1.27-2.87,2.84l-.08,8.36s-11.48,1.38-14.75,2.57c-2.12.77-3.04,1.74-4.35,3.77,0,0-7.46,17.46-8.56,20.55h-2.3"/>
  <path class="cls-2" d="m83.81,74.65c-5.24-2.72-12.97,0-12.97,0l1.29-7.03c2.77-2.09,9.4-1.22,10.65,0"/>
  <path class="cls-2" d="m86.73,82.22c-9.4-4.72-16.97,0-16.97,0"/>
  <path class="cls-2" d="m88.55,89.34c-11.22-4.98-19.91.68-19.91.68"/>
  <path class="cls-2" d="m90.46,97.65c-9.62-4.49-20.13-1.17-22.94.17"/>
  <path class="cls-2" d="m92.65,105.37c-9.62-4.49-23.65-1.35-26.46,0"/>
  <line class="cls-2" x1="50.95" y1="89.34" x2="50.88" y2="94.57"/>
  <line class="cls-2" x1="50.4" y1="66.42" x2="33.18" y2="75.03"/>
  <path class="cls-2" d="m53.4,62.08c-7.04,0-7.52-4.44-7.52-7.55v-7.17c0-1.11,1.07-1.9,2.13-1.58h0c6,1.81,14.05,2.89,20.54,3.32.9.06,1.8.1,2.71.05l1.24-.07"/>
  <path class="cls-2" d="m90.67,62.11h5.78c6.63,0,12.05-5.42,12.05-12.05v-2.52c0-1.2-1.18-2.06-2.32-1.68h0c-5.31,1.75-10.81,2.86-16.38,3.31l-3.07.25s5.16,17.07,6.38,22.76h0l-3.56,1.08-7.24-16.56"/>
  <polyline class="cls-2" points="105.16 109.52 103.17 102.55 99.26 106.58 95.41 96.73 101.17 96.96 93.37 77.5"/>
  <line class="cls-2" x1="98.37" y1="40.27" x2="103.03" y2="28.89"/>
  <line class="cls-1" x1="103.18" y1="40.27" x2="106.66" y2="31.75"/>
  <line class="cls-1" x1="108.01" y1="40.27" x2="110.19" y2="34.93"/>
  <line class="cls-2" x1="59.08" y1="39.72" x2="54.43" y2="28.34"/>
  <line class="cls-2" x1="54.27" y1="39.72" x2="50.79" y2="31.2"/>
  <line class="cls-2" x1="49.45" y1="39.72" x2="47.26" y2="34.37"/>
  <path class="cls-2" d="m19.43,96.77c-.37-.62-.48-1.36-.42-2.08.24-2.72,1.63-3.02,3.78-4.86,2.32-1.98,5.4-6.75,2.37-9.29-4.79-4.01-1.63-11.73,5.65-7.28,7.71,4.73,8.05,13.24,3.92,19.36s-8.18,6.39-12.37,5.85c-1.66-.21-2.51-.99-2.94-1.71Z"/>
  <path class="cls-2" d="m21.03,91.27s-3.23,2.9-7.81,2.9c-3.58,0-2.67-4.28-1.24-4.22,4.57.19,7.72-8.04,0-11.45-.03-.01-.07-.03-.12-.06-1.71-.88-1.3-3.44.59-3.84.8-.17,1.8-.14,3.02-.05,5.88.44,7.71,3.42,7.71,3.42"/>
  <line class="cls-2" x1="11.3" y1="77.97" x2="11.3" y2="81.5"/>
  <line class="cls-2" x1="11.3" y1="87.17" x2="11.3" y2="90.02"/>
  <path class="cls-2" d="m65.3,83.61s-2.57-4.64-5.63-1.39c-3.89,4.13,5.74,5.84,3.83,16.73-.65,3.71-4.73,3.71-4.73,3.71"/>
  <polyline class="cls-2" points="37.21 86.34 38.53 86.34 47.17 86.4"/>
  <path class="cls-2" d="m47.17,86.4c3.81,0,3.7,2.84,3.7,2.84"/>
  <polyline class="cls-2" points="50.95 87.82 60 74.55 70.7 75.67"/>
  <path class="cls-2" d="m46.84,97.18c-4.4,2.72-1.57,8.05-1.57,8.05"/>
  <path class="cls-2" d="m67.43,15.6c0-6.21,4.94-5.41,4.94-5.41"/>
  <path class="cls-2" d="m89.38,15.6c.07-4.31-1.49-5.41-4.48-5.41"/>
  <polyline class="cls-2" points="74.18 44.92 74.18 49.12 72.5 49.08"/>
  <polyline class="cls-2" points="82.31 45.41 82.22 49.42 86.73 49.42"/>
  <path class="cls-2" d="m89.55,73.26c1,5.33,4.14,5.07,4.67,3.15s-1.11-4.24-1.11-4.24"/>
  <polyline class="cls-2" points="73.62 55.9 55.79 65.35 53.4 62.08 71.26 49.15"/>
  <path class="cls-2" d="m55.79,65.35c-4.6,5.35-8.37-.82-2.13-2.92"/>
  <path class="cls-2" d="m21.13,98.47s.72,6.66-6.4,6.56c-4.54-.06-4.54,4.77-4.54,4.77h0s7.37-.18,8.38-.16c4.09.1,7.63-2.57,8.25-6.61h0c3.26-.1,14.73-2.12,17.81-3.17h0"/>
  <path class="cls-2" d="m48.11,86.4c17.19,1.74,11.89,23.41,3.53,23.19h-12.76s-2.68-.07-2.68-.07c0,0,0-4.47,5.24-4.37,3.32.07-1.25,0-1.25,0l5.08.08"/>
  <path class="cls-2" d="m61.18,62.11h11.25c4.29-2.96,10.1-.57,10.1-.57"/>
  <line class="cls-2" x1="21.52" y1="81.78" x2="19.87" y2="81.78"/>
  <line class="cls-2" x1="97.25" y1="101.44" x2="100.93" y2="100.13"/>
</svg>