<?xml version="1.0" encoding="UTF-8"?>
<svg id="icons" xmlns="http://www.w3.org/2000/svg" viewBox="0 0 120 120">
  <defs>
    <style>
      .cls-1 {
        fill: none;
        stroke: #000;
        stroke-linecap: round;
        stroke-linejoin: round;
        stroke-width: 3px;
      }
    </style>
  </defs>
  <path class="cls-1" d="m54.88,37.44l-15.17-14.6c-.55-.56-.82-1.28-.66-1.97.71-2.97,4.06-5.21,8.1-5.21h3.12c4.31,0,7.81,2.71,7.81,6.05l-.08,1.17,2.51,2.1c.72.6.17,1.58-.89,1.58h-1.62l.08,2.78-8.68-3.56c-.99-.4-1.61-1.2-1.61-2.07v-.63c0-1.02.85-1.91,2.1-2.22l7.4-1.79h4.71c3.36,0,6.08-2.11,6.08-4.7v-.94"/>
  <path class="cls-1" d="m44.64,28.33c-.43,2.18-3.06,3.67-5.88,3.33s-4.74-2.37-4.3-4.55,3.06-3.67,5.88-3.33"/>
  <path class="cls-1" d="m62.69,10v1.19c0,2.46-2.58,4.46-5.75,4.46h-16.56c-3.36,0-6.08-2.11-6.08-4.7v-.94"/>
  <path class="cls-1" d="m29.31,13.42v.94c0,2.6,2.72,4.7,6.08,4.7h4.14"/>
  <line class="cls-1" x1="47.79" y1="23.52" x2="47.79" y2="30.61"/>
  <polygon class="cls-1" points="71.95 20 81.28 19.77 79.2 25.9 71.07 22.6 71.95 20"/>
  <line class="cls-1" x1="67.28" y1="20.56" x2="71.47" y2="21.42"/>
  <line class="cls-1" x1="73.22" y1="16.25" x2="68.94" y2="28.9"/>
  <line class="cls-1" x1="67.41" y1="33.55" x2="63.69" y2="44.38"/>
  <line class="cls-1" x1="84.36" y1="43.61" x2="90.69" y2="54.17"/>
  <line class="cls-1" x1="75.55" y1="28.93" x2="80.65" y2="37.44"/>
  <line class="cls-1" x1="82.55" y1="43.61" x2="83.12" y2="55.8"/>
  <line class="cls-1" x1="81.85" y1="28.93" x2="82.33" y2="38.97"/>
  <line class="cls-1" x1="81.51" y1="44.38" x2="76.44" y2="55.45"/>
  <line class="cls-1" x1="88.59" y1="28.93" x2="83.99" y2="38.97"/>
  <path class="cls-1" d="m38.77,31.67c-6.14,4.92-2.71,9.97-.72,14.76,1.99,4.79,1.6,5.73-1.02,9.84s-2.62,19.85-2.62,19.85h29.39s-.54-8.61-3.66-16.28c-1.37-3.37-2.17-6.85-2.14-10.38l.08-7.82"/>
  <path class="cls-1" d="m41.14,34.33c4.2-.73,7.38,1.25,9.39,2.96,1.15.98,3.1,1.06,4.35.15l6.05-4.41c.72-.53,1.28-1.17,1.65-1.88l.42-.82c.5-.98,1.49-1.76,2.73-2.17l1.36-.45c.54-.18,1.18.01,1.41.43l1.09,1.94c.68,1.2-.02,2.6-1.14,2.4h0s-3.68,3.73-3.68,3.73l-7.87,6.54c-1.83,1.94-5.06,2.76-8.02,2.04l-6.54-1.63"/>
  <path class="cls-1" d="m50.54,37.29c-5.89,1.7-3.39,7.09-3.39,7.09"/>
  <line class="cls-1" x1="58" y1="49.45" x2="39.15" y2="49.69"/>
  <line class="cls-1" x1="38.67" y1="54.38" x2="57.86" y2="54.38"/>
  <path class="cls-1" d="m57.86,44.38c7.85-2.83,19.35-2.83,19.35-2.83,0,0,1.94-1.99,4.4-2.48.24-.05.48-.08.72-.1.85-.06,1.74.09,2.62.57,3.76,2.05-3.87,4.88-6.52,5.48,0,0-12.77,4.87-20.43,4.44"/>
  <path class="cls-1" d="m34.4,76.12h0s.66,7.9.66,7.9c-2.02,2.37-2.7,4.52-2.02,7.05.37,1.36,0,12.68,0,12.68l-2.37,3.9c-.19.98.75,1.87,2.03,1.9,3.6.1,10.06.28,14.21.34,1.79.03,2.45-1.81.9-2.51l-7.55-3.38h0l6.63-27.89"/>
  <path class="cls-1" d="m33.04,91.07c1.25,2.33,4.23,2.03,5.11,0"/>
  <path class="cls-1" d="m55.84,91.7l3.2,13.86-.78,2.93c-.21.79.57,1.52,1.61,1.52h14.43c1.28,0,1.78-1.29.72-1.84l-9.34-4.15-2.87-27.89"/>
  <line class="cls-1" x1="54.19" y1="23.37" x2="52.6" y2="23.37"/>
  <path class="cls-1" d="m52.6,15.92c-10.05,1.13-10.17,7.81-8.43,11.45"/>
  <line class="cls-1" x1="58.37" y1="34.89" x2="58.08" y2="29.33"/>
  <line class="cls-1" x1="43.33" y1="54.38" x2="41.14" y2="76.12"/>
  <path class="cls-1" d="m49.1,54.38v21.73h1.99l2.54,10.35c-.99,5.13,3.87,6.76,5.41,4.36"/>
  <line class="cls-1" x1="54.9" y1="54.38" x2="57.86" y2="76.12"/>
  <line class="cls-1" x1="35.6" y1="60.61" x2="60.44" y2="60.61"/>
  <line class="cls-1" x1="35.6" y1="66.21" x2="62.17" y2="66.21"/>
  <line class="cls-1" x1="63.11" y1="71.51" x2="34.51" y2="71.71"/>
</svg>