<?xml version="1.0" encoding="UTF-8"?>
<svg id="icons" xmlns="http://www.w3.org/2000/svg" viewBox="0 0 120 120">
  <defs>
    <style>
      .cls-1 {
        fill: none;
        stroke: #000;
        stroke-linecap: round;
        stroke-linejoin: round;
        stroke-width: 3px;
      }
    </style>
  </defs>
  <path class="cls-1" d="m60.84,10.54c10.99-1.99,20.13,1.36,18.55,9.18l-1.14,3.93s10.06,1.28,7.2,7.52c-2.86,6.24-13.85,1.58-13.85,1.58"/>
  <path class="cls-1" d="m60.45,16.22h0l-.1-5.68c-10.95-2.2-20.15.97-18.74,8.81l1.06,3.96s-10.08,1.08-7.35,7.37c2.73,6.3,14.57,1.86,14.57,1.86"/>
  <path class="cls-1" d="m64.59,16.26c.04-3.82,3.39-6.25,3.39-6.25"/>
  <path class="cls-1" d="m55.99,16.18c.04-3.51-2.51-6.01-4.4-6.23"/>
  <path class="cls-1" d="m50.52,17.03c-.66-3.96-6.92-4.12-6.92-4.12"/>
  <path class="cls-1" d="m69.73,16.97c.41-3.85,6.39-4.83,6.39-4.83"/>
  <path class="cls-1" d="m73.08,20.14c1.27-3.03,6.49-2.2,6.49-2.2"/>
  <path class="cls-1" d="m48.38,20.91c-2.66-3.15-6.76-1.56-6.76-1.56"/>
  <path class="cls-1" d="m48.33,26.71c-5.68-.99-13.12,1.97-10.46,6.57"/>
  <path class="cls-1" d="m48.91,30.31c-4.51-.78-7.82,1.75-6.14,3.72"/>
  <path class="cls-1" d="m72.8,26.78c7.24-.15,11.02,2.11,12.23,5.16"/>
  <path class="cls-1" d="m72.64,31.05c5.37-1.66,7.93,1.79,7.44,3.35"/>
  <line class="cls-1" x1="58.9" y1="32.47" x2="61.03" y2="32.47"/>
  <path class="cls-1" d="m42.67,23.31c2.51-.01,5.67,1.56,5.67,1.56h0"/>
  <path class="cls-1" d="m78.26,23.65c-1.78-.33-4.34.3-5.21,1.45"/>
  <path class="cls-1" d="m48.32,25.23l.08-5.83c.02-1.82,3.4-3.26,5.74-3.24l12.53.12c2.51.02,6.43,1.9,6.41,3.86l-.06,5.06"/>
  <path class="cls-1" d="m56.77,29.91c-3.06-.64-6.67-2.21-8.43-4.09,0,0-.44,6.4,3.89,9.16,3.24,2.06,2.51,4.03,2.18,5.61h0l-.28,1.33c-.17.8.76,1.49,1.78,1.32l9.14.05c1.27.21,2.38-.69,2.06-1.67l-.1-.32c-.58-1.8-1.51-3.62.71-5.39,1.48-1.18,5.29-2.98,5.26-6.73l.06-3.38c-1.29,2.19-5.32,3.92-9.25,4.42"/>
  <path class="cls-1" d="m55.3,23.14c-1.12-.01-2.1-.49-2.62-1.2.53-.7,1.52-1.17,2.64-1.16s2.1.49,2.62,1.21c-.53.7-1.52,1.16-2.64,1.15Z"/>
  <path class="cls-1" d="m65.82,23.14c-1.12-.01-2.1-.49-2.62-1.2.53-.7,1.52-1.17,2.64-1.16s2.1.49,2.62,1.21c-.53.7-1.52,1.16-2.64,1.15Z"/>
  <line class="cls-1" x1="60.46" y1="25.85" x2="60.48" y2="24.76"/>
  <path class="cls-1" d="m53.95,32.58l.54-.78c1.11-1.62,3.29-2.65,5.64-2.59.04,0,.07,0,.11,0,2.33.08,4.42,1.17,5.55,2.75l.52.73"/>
  <line class="cls-1" x1="58.45" y1="36.91" x2="58.4" y2="42.25"/>
  <line class="cls-1" x1="62.38" y1="36.95" x2="62.54" y2="42.29"/>
  <line class="cls-1" x1="54.24" y1="36.87" x2="66.72" y2="36.99"/>
  <line class="cls-1" x1="59.87" y1="59.52" x2="59.37" y2="108.2"/>
  <line class="cls-1" x1="60.03" y1="43.29" x2="59.96" y2="50.31"/>
  <path class="cls-1" d="m49.89,32.54s-18.99,9.75-15.04,21.33c2.1,6.17,26.02,8.45,30.38,3.27,2.84-3.37-.29-7.35-9.22-6.59-8.42.72-13.33-2.22-13.33-2.22"/>
  <path class="cls-1" d="m75.23,34.4s16.62,9.76,12.55,18.93c-2.75,6.19-15.36.6-20.23-1.26-4.87-1.85-2.28-7.97,3.1-6.79s9.5,2.79,9.5,2.79"/>
  <line class="cls-1" x1="72.55" y1="45.28" x2="72.07" y2="39.58"/>
  <line class="cls-1" x1="47.45" y1="42.14" x2="45.62" y2="49.53"/>
  <polyline class="cls-1" points="55.08 108.1 59.37 108.2 63.24 108.22"/>
  <polyline class="cls-1" points="73.08 54.06 78.64 108.62 74.82 108.48"/>
  <polyline class="cls-1" points="43.67 107.85 36.53 107.69 43.73 58.86"/>
  <path class="cls-1" d="m55.4,109.98l-12.14-.12c0-.71.15-1.39.4-2.02.87-2.21,3.12-3.75,5.73-3.72s4.9,1.68,5.69,3.97c.21.6.33,1.23.32,1.89Z"/>
  <path class="cls-1" d="m75.06,110.15l-12.15-.12c0-.63.12-1.24.33-1.81.82-2.31,3.12-3.95,5.81-3.93s5.05,1.79,5.77,4.19c.17.53.25,1.09.25,1.67Z"/>
  <path class="cls-1" d="m37.87,98.6c6.29,3.63,33.48,3.52,39.61,1.57"/>
</svg>