<?xml version="1.0" encoding="UTF-8"?>
<svg id="icons" xmlns="http://www.w3.org/2000/svg" viewBox="0 0 120 120">
  <defs>
    <style>
      .cls-1 {
        fill: #231f20;
        stroke-miterlimit: 10;
        stroke-width: 0px;
      }

      .cls-1, .cls-2 {
        stroke: #000;
      }

      .cls-2 {
        fill: none;
        stroke-linecap: round;
        stroke-linejoin: round;
        stroke-width: 3px;
      }
    </style>
  </defs>
  <polyline class="cls-2" points="41.45 61.43 47.96 73.13 53.28 65.06"/>
  <line class="cls-2" x1="32.25" y1="44.88" x2="36.69" y2="52.86"/>
  <ellipse class="cls-2" cx="47.96" cy="78.98" rx="7.04" ry="5.85"/>
  <ellipse class="cls-2" cx="47.36" cy="90.58" rx="7.77" ry="5.75"/>
  <ellipse class="cls-2" cx="47.36" cy="103.42" rx="8.88" ry="6.6"/>
  <path class="cls-2" d="m41.37,63.6c-1.38,1.17-3.3,1.89-5.43,1.89-4.2,0-7.6-2.83-7.6-6.32s3.4-6.32,7.6-6.32"/>
  <line class="cls-2" x1="39.59" y1="48.12" x2="42.64" y2="53.58"/>
  <line class="cls-2" x1="46.72" y1="62.84" x2="48.49" y2="65.5"/>
  <rect class="cls-2" x="35.19" y="14.61" width="23.06" height="14.22"/>
  <line class="cls-2" x1="35.19" y1="14.6" x2="35.19" y2="10.02"/>
  <line class="cls-2" x1="39.59" y1="14.56" x2="39.59" y2="9.98"/>
  <line class="cls-2" x1="44.37" y1="14.6" x2="44.37" y2="10.02"/>
  <line class="cls-2" x1="49.16" y1="14.6" x2="49.16" y2="10.02"/>
  <line class="cls-2" x1="53.82" y1="14.6" x2="53.82" y2="10.02"/>
  <line class="cls-2" x1="58.35" y1="14.6" x2="58.35" y2="10.02"/>
  <path class="cls-2" d="m57.63,59.06l-.68-14.18v-6.3h3.39c.49,0,.84-.4.69-.79l-2.77-8.96"/>
  <path class="cls-2" d="m47.96,28.83l-4.21,3.98s-1.96-.93-3.19-.07c-2.03,1.42-1.42,2.79.26,3.8l1.82,1.09h0c-.8,1.01-1.01,2.26-.57,3.41l2.56,6.62s.02.07.03.1c1.38,4.58,5.38,8.32,10.55,10.3l1.73.67c5.73,2.8,8.22,5.75,8.22,5.75"/>
  <path class="cls-2" d="m35.19,28.83c-11.31,6.87-3.87,16.07,2.08,15.11"/>
  <polyline class="cls-2" points="56.94 38.58 50.92 40.83 44.37 32.22"/>
  <path class="cls-2" d="m43.19,43.93h-5.44c-6.82,0-12.76,3.87-14.39,9.37h0c-1.98,6.69-2.77,13.59-2.34,20.47l.2,3.28h9.83s2.24-11.97,2.24-11.97h0"/>
  <path class="cls-2" d="m56.94,44.88c14.81,5.73,16.31,25.28,11.91,27.26-6.54,2.93-18.42-9.86-18.42-9.86-10.28,2.82-13.62-5.35-11.76-9.52l10.69,2.24"/>
  <polyline class="cls-2" points="58.25 69.07 64.61 110.02 28.34 110.02 28.34 87.72"/>
  <path class="cls-2" d="m84.47,105.98l12.56.22c1.2,0,2.33.45,3.08,1.24l2.47,2.59h-37.66"/>
  <path class="cls-2" d="m61.86,92.3l6.91.04c3.96-.2,4.43-1.71,5.01-2.79s3.73-7.31,4.38-8.41h9.4c2.9,0,4.99.61,6.02,2.86h0c.31.54.97.88,1.7.88h6.54l-1.49,2.09c-1.21,1.69-3.39,2.73-5.76,2.73h-5.08c-2.54,0-4.84,1.26-5.85,3.2h0c-1.2,2.72,8.75,3.92,3.7,13.08"/>
  <line class="cls-2" x1="78.16" y1="81.14" x2="78.16" y2="70.13"/>
  <line class="cls-2" x1="84" y1="80.97" x2="84" y2="69.95"/>
  <ellipse class="cls-1" cx="85.12" cy="85.13" rx="1.28" ry="1.07"/>
  <path class="cls-2" d="m71.9,98.1c13.77.26,12.57,7.88,12.57,7.88"/>
  <path class="cls-2" d="m23.47,78.98s-7.01,3.63-5.16,10.57c1.04,3.92,3.87,2.98,4.04,7.27.17,4.24-6.56,5.49-4.55,9.16,1.88,3.41,5.04,1.52,5.04,1.52"/>
  <line class="cls-2" x1="51.21" y1="33.45" x2="54.6" y2="33.45"/>
  <path class="cls-2" d="m23.52,77.06c-.67,8.35,5.87,11.28,5.87,11.28v-11"/>
  <line class="cls-2" x1="40.49" y1="18.03" x2="40.49" y2="18.03"/>
  <line class="cls-2" x1="46.4" y1="18.03" x2="46.4" y2="18.03"/>
  <line class="cls-2" x1="52.08" y1="18.03" x2="52.08" y2="18.03"/>
  <line class="cls-2" x1="40.49" y1="21.72" x2="40.49" y2="21.72"/>
  <line class="cls-2" x1="46.4" y1="21.72" x2="46.4" y2="21.72"/>
  <line class="cls-2" x1="52.08" y1="21.72" x2="52.08" y2="21.72"/>
  <line class="cls-2" x1="40.49" y1="25.45" x2="40.49" y2="25.45"/>
  <line class="cls-2" x1="46.4" y1="25.45" x2="46.4" y2="25.45"/>
  <line class="cls-2" x1="52.08" y1="25.45" x2="52.08" y2="25.45"/>
</svg>