<?xml version="1.0" encoding="UTF-8"?>
<svg id="icons" xmlns="http://www.w3.org/2000/svg" viewBox="0 0 120 120">
  <defs>
    <style>
      .cls-1 {
        fill: none;
        stroke: #000;
        stroke-linecap: round;
        stroke-linejoin: round;
        stroke-width: 3px;
      }
    </style>
  </defs>
  <path class="cls-1" d="m69.75,59.82h-15.74l-6.17-30.07c-.41-3.39,3.08-6.31,7.52-6.31h11.47c5.26,0,9.29,3.57,8.55,7.55l-5.63,28.83Z"/>
  <path class="cls-1" d="m50.1,37.34c11.59,9.75,23.19.36,23.19.36"/>
  <path class="cls-1" d="m47.74,29.25c-13.44.15-2.77-9.48-2.77-9.48,0,0,4.79-10.08,16.26-9.62s15.6,9.62,15.6,9.62c0,0,13.25,11.24-1.17,9.77"/>
  <path class="cls-1" d="m55.83,32.74c-1.87,0-3.51-.78-4.4-1.94.88-1.16,2.53-1.95,4.4-1.95s3.53.79,4.39,1.95c-.88,1.16-2.51,1.94-4.39,1.94Z"/>
  <path class="cls-1" d="m67.98,32.74c-1.87,0-3.51-.78-4.4-1.94.88-1.16,2.53-1.95,4.4-1.95s3.53.79,4.39,1.95c-.88,1.16-2.51,1.94-4.39,1.94Z"/>
  <line class="cls-1" x1="61.67" y1="34.24" x2="61.64" y2="35.75"/>
  <path class="cls-1" d="m55.15,42.92l2.52-2.81c1.89-2.07,5.92-2,7.68.13l1.57,2.68"/>
  <path class="cls-1" d="m49.29,36.79l-12.04,7.34h0c3.4,2.99,9.22,3.47,13.37,1.1l.36-.2c7.16,4.51,19.44,3.39,21.39.46"/>
  <path class="cls-1" d="m74.25,36.79l11.28,8.21s-6.02,4.09-13.17.48"/>
  <path class="cls-1" d="m44.97,19.77s1.28-.8,3.94-1.59c8.45-2.5,10.46-.41,4.36,4.73-1.01.85-2.21,1.71-3.6,2.54"/>
  <path class="cls-1" d="m77.92,20.75l-1-.69c-2.15-1.49-4.75-2.58-7.6-3-5.06-.74-5.02,1.58.72,6.19.92.74,1.98,1.48,3.19,2.19"/>
  <path class="cls-1" d="m59.33,68.62s5.31,0,4.57-3.09h-9.52c-2.1,0-4.02.91-4.96,2.35h0c-1.4,2.14-.72,4.68,1.51,6.36l1.57,1.48c2.05,1.61,3.25,2.43,5.52,2.43h8.38s1.22-2.88-1.76-5.83"/>
  <path class="cls-1" d="m59.33,68.62c-5.73,0-3.65,3.97.01,3.68l5.3.02"/>
  <path class="cls-1" d="m63.89,65.53s1.89-.78,4.6-.85c3.79-.11,6.18,3.11,4.2,5.59l-6.3,7.88"/>
  <path class="cls-1" d="m72.52,46.33c8.03.47,12.44,5.07,12.44,11.59v5.43c0,3.3-3.49,5.98-7.8,5.98"/>
  <path class="cls-1" d="m48.69,69.79c-9.49,0-11.08-3.26-11.08-5.88v-7.21c0-5.85,6.19-10.59,13.82-10.59"/>
  <path class="cls-1" d="m44.97,69.59v4.9s-5.4,0-5.75,3.83l-4.62,28.64h8.52"/>
  <path class="cls-1" d="m73.23,69.32h3.3v3.94c1.65.06,2.9.37,3.83,1.12.91.75,1.48,1.94,1.74,3.76l3.44,28.81h-8.23"/>
  <line class="cls-1" x1="63.93" y1="106.95" x2="56.49" y2="106.95"/>
  <path class="cls-1" d="m56.72,108.32v1.55h-13.85v-1.55c0-.48.08-.94.24-1.37.78-2.27,3.48-3.94,6.68-3.94,1.91,0,3.64.59,4.91,1.55.84.66,1.47,1.47,1.79,2.39.15.43.24.89.24,1.37Z"/>
  <path class="cls-1" d="m77.54,108.32v1.55h-13.85v-1.55c0-.48.08-.94.24-1.37.78-2.27,3.48-3.94,6.68-3.94,1.91,0,3.64.59,4.91,1.55.84.66,1.47,1.47,1.79,2.39.15.43.24.89.24,1.37Z"/>
  <path class="cls-1" d="m46.08,56.36l.13,4.77c.03,1.08.83,2.07,2.09,2.56l6.85,1.83"/>
  <path class="cls-1" d="m77.05,56.36l.02,3.4c0,1.27-1.07,2.58-2.63,3.03l-4.99,1.94"/>
  <path class="cls-1" d="m52.89,54.36c7.37,3.15,17.93,0,17.93,0"/>
</svg>