<?xml version="1.0" encoding="UTF-8"?>
<svg id="icons" xmlns="http://www.w3.org/2000/svg" viewBox="0 0 120 120">
  <defs>
    <style>
      .cls-1 {
        fill: none;
        stroke: #000;
        stroke-linecap: round;
        stroke-linejoin: round;
        stroke-width: 3px;
      }
    </style>
  </defs>
  <path class="cls-1" d="m75.17,42.28l-9.55,5.59c-2.42,1.42-5.84,1.33-8.13-.21l-7.7-5.2c-1.45-.98-2.36-2.35-2.52-3.82l-1.71-15.13c-.82-7.27,6.75-13.52,16.38-13.52h0c9.26,0,16.7,5.8,16.43,12.81l-.59,15.58c-.06,1.53-1.02,2.95-2.61,3.89Z"/>
  <path class="cls-1" d="m53.28,35.53c-1.65-.52-2.84-1.53-3.41-2.72-.24-.51.03-1.13.56-1.35,1.55-.62,3.42-.74,5.17-.19,2.09.65,3.43,2.07,3.68,3.66-1.67.96-3.94,1.25-6.01.6Z"/>
  <path class="cls-1" d="m71.56,35.53c1.05-.33,1.91-.86,2.55-1.51.95-.97.4-2.65-.93-2.93s-2.64-.23-3.95.18c-2.09.65-3.43,2.07-3.68,3.66,1.67.96,3.94,1.25,6.01.6Z"/>
  <path class="cls-1" d="m49.57,26.59c8.66-1.01,11.87,3.24,11.87,3.24,0,0,5.72-5.33,12.8-3.05"/>
  <path class="cls-1" d="m58.84,38.72c1.54,2.35,5.15,2.1,6.06,0"/>
  <path class="cls-1" d="m56.36,41.92c5.08,4.55,9.19,1.96,11.5,0"/>
  <path class="cls-1" d="m45.55,23.41c-13.68-.66-13.18,13.35-7.02,16.89s10.16,1.23,10.16,1.23"/>
  <path class="cls-1" d="m78.35,23.39c13.68-.66,14.36,13.38,8.2,16.91-6.17,3.54-10.16,1.23-10.16,1.23"/>
  <path class="cls-1" d="m47.15,42.27v1.15c0,1.91-1.51,3.64-3.84,4.38l-19.47,6.19c-5.7,1.81-9.5,5.96-9.74,10.64l-1.61,30.87c-.11,2.08,2.09,3.81,4.84,3.81h0c3.27,0,6.42-.93,8.82-2.61l22.64-15.84s-8.48-3.17-4.52-6.17c3.96-3,11.12,3.85,11.12,3.85,0,0,7.65,3.17,8.89-.77.85-2.68-7.2-4.73-12.43-5.76-2.65-.52-5.45-.18-7.75.94l-27.74,13.56"/>
  <path class="cls-1" d="m63.08,75.64l15.29,5.33s3.83,2.45,1.38,17.43c-.65,3.99-1.81,7.88-3.38,11.6h0"/>
  <path class="cls-1" d="m75.17,42.28l.03,1.11c.05,1.89,1.71,3.55,4.11,4.08l13.38,2.96c6.25,1.38,10.81,5.45,11.58,10.35l3.24,49.22H20.47l1.07-11.24"/>
  <path class="cls-1" d="m48.78,80.85s4.95,3.35,10.5,1.21l20.67,15.02"/>
  <path class="cls-1" d="m34.39,65.16c1.59,7.03,0,12.53,0,12.53"/>
  <path class="cls-1" d="m87.38,49.26c-5.56,13.27-33.79,18.38-51.7,19.67"/>
  <path class="cls-1" d="m74.24,79.53c4.71-5.87,15.09-2.31,31.89,9.44"/>
</svg>