<?xml version="1.0" encoding="UTF-8"?>
<svg id="icons" xmlns="http://www.w3.org/2000/svg" viewBox="0 0 120 120">
  <defs>
    <style>
      .cls-1 {
        fill: none;
        stroke: #000;
        stroke-linecap: round;
        stroke-linejoin: round;
        stroke-width: 3px;
      }
    </style>
  </defs>
  <path class="cls-1" d="m90.52,63.76c6.14-.16,4.42-6.15,0-5.68-7.48.79-3.64,7.58-6.33,15.78s-9.21,6.16-14.77,1.26-12.66-2.21-10.36,5.21c2.3,7.42,3.45,22.25,1.53,28.72"/>
  <path class="cls-1" d="m36.26,100.78v3.06l-6.63,1.49c-2.03.46-3.78,1.55-4.86,3.03l-.59.81c-.26.36.05.82.56.82h15.52l2.27-8.5"/>
  <line class="cls-1" x1="82.63" y1="81.33" x2="84.81" y2="109.05"/>
  <path class="cls-1" d="m67.81,33.79h0c-4.35,1.01-7.78,3.76-9.12,7.31l-.31.82c-.26.68-.48,1.37-.68,2.07l-1.93,6.89-18.66-8.22c-1.03-.45-2.24-.09-2.84.87h0c-.96,1.52-.4,3.38,1.3,4.36l16.82,9.67c2.88,1.66,6.85,1.15,8.97-1.16l5.29-6.86"/>
  <path class="cls-1" d="m53.42,13.2c0,6.11-5.99,11.03-13.41,11.03s-13.41-4.93-13.41-11.03c0-1.12.2-2.19.59-3.2,1.66,4.53,6.78,7.81,12.82,7.81s11.16-3.29,12.84-7.81c.36,1.01.56,2.08.56,3.2Z"/>
  <path class="cls-1" d="m64.97,43.66c-2.18,6.1,5.01,7.18,5.01,7.18"/>
  <path class="cls-1" d="m66.66,49.53v10.22c.04,2.26-2.27,4.08-5.01,3.94-25.23-1.29-24.01,9.24-26.36,19.86-2.49,11.3-2.68,16.51-2.68,16.51,0,0,14.01,3.63,28.96,0"/>
  <path class="cls-1" d="m33.13,95.19c12.66,5.7,28.35,1.03,28.35,1.03"/>
  <line class="cls-1" x1="74.54" y1="78.54" x2="58.68" y2="78.54"/>
  <path class="cls-1" d="m67.81,28.41v13.99h5.23l5.67-19.56-2.74,2.79c-1.71,1.75-4.3,2.77-7.03,2.77h-1.13Z"/>
  <path class="cls-1" d="m67.81,19.26l-3.25-1.08s4.29-6.64,12-3.95c8.25,2.88,5.19,10,5.19,10l-3.05-1.39c-5.23-3.95-10.9-3.59-10.9-3.59l-4.14,8.07,4.14,1.08"/>
  <line class="cls-1" x1="69.99" y1="23.56" x2="72.99" y2="23.56"/>
  <path class="cls-1" d="m76.17,31.61c20.85,2.54,21.49,22.1,18.34,23.17-2.57.88-16.2.33-21.19.09-1.03-.05-1.83-.75-1.83-1.6v-.67c0-.89,1.02-1.55,2.08-1.32l3,.64,10.86-2.15s-1.74-6.1-4.8-8.43"/>
  <line class="cls-1" x1="87.43" y1="49.76" x2="90.26" y2="51.91"/>
</svg>