<?xml version="1.0" encoding="UTF-8"?>
<svg id="icons" xmlns="http://www.w3.org/2000/svg" viewBox="0 0 120 120">
  <defs>
    <style>
      .cls-1 {
        fill: none;
      }

      .cls-1, .cls-2 {
        stroke: #000;
        stroke-miterlimit: 10;
        stroke-width: 0px;
      }
    </style>
  </defs>
  <path class="cls-1" d="m55.97,60.5l5.85,11.42,3.88-.32.67-3.6c.11-.6.58-1.08,1.18-1.2s1.21.14,1.55.65l1.75,2.68h4.25s.93-3.16.93-3.16c.17-.57.66-.99,1.24-1.06.58-.09,1.17.19,1.48.69l5.12,8.27c.33-1.15.42-2.31.23-3.44-.91-5.47-8.77-11.2-28.13-10.93Z"/>
  <path class="cls-1" d="m68.44,73.28c-.03.17-.09.32-.17.46,0,0-1.19.8-2.85.9l-4.94.4.64,1.13,2.14.13c.54.03,1.02.35,1.26.84l1.21,2.48,5.42-1.03.55-1.71-3.06-4.67-.2,1.07Zm-1.13,3.23c-.47,0-.86-.38-.86-.85s.39-.85.86-.85.85.38.85.85-.38.85-.85.85Z"/>
  <path class="cls-1" d="m47.86,15.28c3.11,0,5.65,2.54,5.65,5.65v4.39c0,.47-.04.91-.1,1.32h.01c1.14-.47,2.13-1.3,2.85-2.43,1-1.57,1.25-3.43.64-4.74-.61-.96-6.4-5.95-7.76-6.3-1-.03-2.65.84-3.44,1.42-.41.3-.96.37-1.44.18l-1.14-.45c-.05-.03-.1-.05-.15-.08-3.51-1.88-4.27-1.1-7.1,1.79-.45.45-.93.93-1.45,1.44-2.78,2.69-2.04,4.47-1.8,5.05.38.92,1.11,1.72,1.95,2.39.84.67,1.79,1.21,2.61,1.58-.09-.4-.13-.81-.1-1.26v-4.3c-.01-3.11,2.53-5.65,5.64-5.65h5.13Z"/>
  <path class="cls-1" d="m72.83,73.13l.46.71c.06-.03.12-.05.18-.06.51-.12,1.04.03,1.41.4l.19.19,2.33,2.35,3.28,3.3c.62-.63,1.17-1.28,1.63-1.96l-4.35-7.03-.31,1.04c-.06.21-.17.38-.31.54h.02c-.37.31-1.64.53-1.64.53h-2.89Zm4.29.61c.51,0,.93.41.93.93s-.42.93-.93.93-.93-.42-.93-.93.41-.93.93-.93Z"/>
  <path class="cls-1" d="m92.88,72.16c-1.71,1.32-1.31,2.33-1.18,2.66.29.74.97,1.35,1.67,1.74.22-1.21.9-2.5,1.98-3.78-.51-.43-1.16-.86-1.77-.86-.24,0-.48.07-.7.24Z"/>
  <path class="cls-1" d="m16.1,29.67c-.05-.18-.08-.36-.1-.54-.48.34-.84.75-1.02,1.23-.38,1.01,0,2.25.94,3.09.22.2.56.35.94.47l.56-2.28c-.86-.72-1.2-1.51-1.32-1.97Z"/>
  <path class="cls-1" d="m47.86,19.26c1.02,0,1.97.46,2.6,1.24-.21-1.25-1.29-2.22-2.6-2.22h-5.13c-1.05,0-1.96.63-2.38,1.52.53-.34,1.16-.54,1.82-.54,1.16,0,2.23.6,2.84,1.58.61-.98,1.69-1.58,2.85-1.58Z"/>
  <path class="cls-1" d="m46.95,55.5c-.4.12-.72.38-.92.75-.19.37-.22.79-.09,1.18l.89,2.65c.24.72,1,1.13,1.73.92,1.29-.35,3.16-1,4.55-2.04.03-.02.07-.04.1-.07.62-.47,1.14-1.03,1.45-1.68-.62-.73-1.99-2-4.25-2.68l-3.46.97Z"/>
  <path class="cls-1" d="m30.51,79.24c7.15.11,9.31.14,14.46-.67,3.22-.5,6.96.89,9.78,2.32l-3.62-7.23c-3.46-.94-18.59-5.66-23.66-16.98-.36.57-.69,1.21-.97,1.97-1.54,4.25-5.06,16.51-6.72,22.38,2.33-.91,5.82-1.86,10.18-1.8h.55Zm-3.99-15.8c.16-.81.95-1.34,1.75-1.19.81.16,1.35.94,1.19,1.75-1.48,7.77,4.03,9.61,4.66,9.79.79.23,1.25,1.06,1.03,1.85-.19.66-.79,1.09-1.44,1.09-.13,0-.27-.02-.4-.05-.09-.02-8.84-2.57-6.8-13.24Z"/>
  <path class="cls-1" d="m37.73,95.38c-.09-2.82-.4-9.73-.92-13.09-1.73.02-3.72-.01-6.35-.05h-.55c-1.4-.04-2.7.06-3.89.23,0,6.07,2.33,11.75,3.78,14.7l1,1.88c.27.51.22,1.13-.12,1.59-.34.46-.92.69-1.48.59-3.22-.59-6.35.34-7.91,1.46-.43.31-.65.57-.76.74.93.02,3.29-.58,5.33-1.42.71-.3,1.52-.01,1.89.66.36.68.16,1.52-.46,1.95-.51.36-1.04.89-1.26,1.24.46.22,3.09.52,5.36-1.15,1.71-1.26,4.04-1.68,6.21-1.11,2.71.7,4.61.74,5.91.55-5.52-2.09-6.04-6.25-5.78-8.77Zm-10.9-8.85c-.25-.79.18-1.63.97-1.89,3.6-1.16,6.07-.05,6.34.08.75.36,1.06,1.26.7,2-.36.75-1.26,1.06-2,.7-.05-.02-1.65-.71-4.12.08-.15.05-.31.07-.46.07-.63,0-1.22-.41-1.43-1.04Zm1.1,4.49c-.25-.79.18-1.63.97-1.89,3.61-1.16,6.07-.05,6.34.08.75.36,1.06,1.26.7,2-.36.75-1.26,1.06-2,.7-.05-.02-1.65-.72-4.12.08-.15.05-.31.07-.46.07-.63,0-1.22-.41-1.43-1.04Zm9.3,5.25c-.44.71-1.36.92-2.06.49-.03-.02-1.38-.75-3.48.11-.19.08-.38.11-.57.11-.59,0-1.15-.35-1.39-.93-.32-.77.05-1.64.82-1.96,2.85-1.17,5.24-.48,6.2.11.71.44.92,1.36.49,2.06Z"/>
  <path class="cls-1" d="m103.37,91.48c-.57-1.8-2.18-6.88-16.81-7.93h-.05c-.05,0-.09,0-.15-.01-1.48-.1-3.1-.16-4.86-.17-2.09,1.75-4.66,3.23-7.61,4.28-.2,1.71-.18,4.32.97,5.05,6.32,4,20.25,2.27,23.23.22.68-.48,1.61-.31,2.08.37.47.69.3,1.62-.38,2.09-.2.14-.45.28-.71.42l.23,1.35c.25,1.44,1.21,2.65,2.53,3.24h.01c.31-.04.68-.2,1.04-.72,1.34-1.9,1.22-6.17.66-7.67-.06-.14-.11-.32-.18-.52Z"/>
  <path class="cls-1" d="m49.26,69.92l-3.22-6.43c-.93-.52-1.69-1.37-2.05-2.46l-.65-1.92c-.23.14-.5.22-.78.22h-.04c-6.81-.15-10.17-3.99-11.37-5.78-.41.16-.89.41-1.4.75,3.21,8.92,14.02,13.72,19.51,15.62Z"/>
  <path class="cls-1" d="m39.83,82.18c.63,4.47.89,12.8.9,13.21,0,.07,0,.14-.01.21-.32,2.8.92,4.64,3.85,5.73-2.1-3.75-3.1-8.62-3.92-19.21-.27.03-.55.05-.82.06Z"/>
  <path class="cls-1" d="m52.61,83.18c-2.36-1.1-5.06-1.98-7.18-1.64-.63.1-1.23.18-1.79.26.79,10.27,1.75,14.99,3.68,18.31,1.7,2.93,6.25,6.17,9.57,5.79l-3.54-2.36c-.69-.46-.88-1.39-.42-2.08s1.39-.88,2.08-.41l5.08,3.38c.29-.19.48-.34.59-.44-.2-.19-.65-.53-1.62-1-3.15-1.53-3.67-5.38-4.26-9.84-.41-3.06-.89-6.51-2.19-9.97Zm-7.75,4.18c-.32-.77.05-1.64.82-1.96,2.85-1.18,5.23-.48,6.2.11.7.44.92,1.36.49,2.07-.44.71-1.36.92-2.07.49-.03-.02-1.38-.75-3.47.11-.19.08-.38.11-.57.11-.59,0-1.15-.35-1.39-.93Zm.81,5.05c-.32-.77.05-1.64.82-1.96,2.85-1.18,5.24-.48,6.2.11.71.44.92,1.36.49,2.06-.43.71-1.36.92-2.06.49-.03-.02-1.38-.75-3.48.11-.19.08-.38.11-.57.11-.59,0-1.15-.35-1.39-.93Zm8.38,4.71c-.43.71-1.36.92-2.06.49-.03-.02-1.38-.75-3.48.11-.19.08-.38.11-.57.11-.59,0-1.15-.35-1.39-.93-.32-.77.05-1.64.82-1.96,2.85-1.18,5.24-.48,6.2.11.71.44.92,1.36.49,2.06Z"/>
  <path class="cls-1" d="m44.85,22.79h.01c.12,0,.24.02.35.04-.07-.09-.13-.19-.2-.29-.05.09-.1.17-.16.25Z"/>
  <path class="cls-1" d="m63.76,87.09c-.47-.05-.88-.31-1.13-.71l-2.24-3.69c-.26-.42-.29-.94-.09-1.39s.61-.77,1.09-.86l1.28-.24-.46-.96-2.09-.13c-.5-.03-.96-.31-1.21-.75l-2.2-3.89c-.26-.45-.26-.99-.02-1.44.24-.46.69-.75,1.2-.8l.69-.05-5.08-9.92c-1.27.7-2.65,1.21-3.93,1.57l13.85,27.7,3.38,1.74.52-4-.98-1.91-2.58-.27Z"/>
  <path class="cls-1" d="m78.39,81.96l-3.91-3.93-.76,2.33c-.03.1-.08.2-.14.29l-2.5,1-7,1.33.73,1.21,2.49.27h.13s.02.01.02.01c.02,0,.03,0,.05.01h.06l4.83.51c.11-.04.22-.07.33-.11l1.89-.75c1.38-.62,2.65-1.35,3.78-2.17Zm-5.43,1.59c-.46,0-.83-.37-.83-.83s.37-.83.83-.83.84.37.84.83-.38.83-.84.83Z"/>
  <path class="cls-1" d="m33.04,43.07c-1.23-1.3-1.75-3.06-1.56-5.23.08-.83.81-1.44,1.63-1.36.83.08,1.44.81,1.36,1.63-.12,1.31.14,2.27.78,2.94.99,1.02,2.8,1.19,3.49,1.18-1.36-2.46-2.31-5.43-2.44-8.98-3.34.36-5.47,1.48-6.94,3.55l1.72,5.71c.24.79-.21,1.63-1,1.87-.15.04-.29.06-.44.06-.64,0-1.24-.41-1.43-1.06l-2.42-8.03s-.01-.03-.01-.05c-.02-.06-.03-.11-.04-.16,0-.05-.01-.1-.01-.15,0-.02-.01-.04-.01-.06,0-.18-.09-4.07-3.68-6.13-1.4-.8-2.41-.69-2.84-.36-.13.1-.26.25-.21.45.09.32.75,1,2.63,1.24.82.1,1.4.86,1.3,1.68-.11.82-.86,1.4-1.68,1.29-.38-.04-.72-.11-1.05-.19l-.34,1.4c1,0,2.01-.08,2.82-.21h.04s.09,0,.13-.01h.21s.07.02.1.02c.05.01.1.02.15.03.05.02.1.04.15.05.04.02.08.04.12.06.05.02.1.05.14.08.04.02.07.04.1.07.05.03.09.07.13.1.03.03.06.06.09.1.03.03.06.08.09.12.03.03.05.07.08.11.02.05.04.09.06.14.02.04.04.08.06.13.02.05.03.1.04.15.01.04.02.07.03.1v.04s0,.1,0,.15v.19c0,.06-.55,5.93.83,9.83.33.91.86,1.47,1.59,1.68.79.23,2.55.24,5.6-2.08l.62-2.09Z"/>
  <path class="cls-1" d="m50.44,26.29c.04-.26.07-.58.07-.97v-2.49c-.63.81-1.61,1.29-2.65,1.29-.58,0-1.13-.15-1.61-.41.07.17.11.37.11.58v1.8c0,.17-.03.33-.08.48,1.64-.13,2.8-.49,2.82-.5.45-.14.96-.07,1.34.22Z"/>
  <path class="cls-1" d="m40.08,25.32c0,.31.06.61.18.89.37-.22.82-.28,1.24-.14.65.21,1.29.35,1.93.44-.04-.13-.07-.27-.07-.42v-1.8c0-.15.03-.28.07-.41-.4.16-.82.24-1.26.24-.77,0-1.5-.26-2.09-.73v1.93Z"/>
  <path class="cls-1" d="m46.29,30.68l1.77,1.46v-2.76c-1.39.23-3.38.4-5.53.03v2.77l1.86-1.51c.55-.45,1.35-.45,1.9.01Z"/>
  <path class="cls-1" d="m51.7,49.54v-4.33c-.05,0-.09.01-.13.02h-.06c-.8,0-1.47-.64-1.5-1.45-.03-.82.62-1.52,1.45-1.55,1.11-.04,1.91-.34,2.39-.87.52-.6.73-1.58.62-2.92-.07-.82.54-1.55,1.36-1.62.82-.07,1.55.54,1.63,1.36.1,1.24,0,2.32-.31,3.26l2.33,3.13c.45.61.37,1.46-.17,1.98l-6.11,5.84c1.44.72,2.51,1.59,3.23,2.33,1.56-1.62,4.33-4.51,5.98-6.28,1.7-1.81,1.43-3.34-.28-7.34l-.29-.7c-1.49-3.54-3.03-7.2-10.78-7.79v1.25c0,.85-.48,1.61-1.26,1.98-.77.37-1.67.25-2.33-.29l-2.14-1.78-2.23,1.81c-.4.32-.88.49-1.37.49-.33,0-.65-.07-.95-.22-.77-.36-1.25-1.12-1.25-1.98v-.75h-.23c.4,10.75,9.47,15.25,12.4,16.42Z"/>
  <path class="cls-1" d="m21.23,16.2l.08-.34-3.05-2.88-.83.76c-1.24,1.13-1.36,3-.28,4.27l.37.43,3.63-1.92.08-.32Z"/>
  <path class="cls-1" d="m35.68,44.72l-2.09,7.09c.78,1.21,3.38,4.4,9,4.52.11.01.22.02.32.05.07-.53.22-1.05.47-1.53.58-1.1,1.56-1.89,2.76-2.23l3.12-.89c-2.44-1.16-6.19-3.42-9.04-7.21-.25.39-.68.67-1.18.7-.02,0-.13.01-.31.01-.55,0-1.76-.07-3.05-.51Z"/>
  <path class="cls-1" d="m54.7,44.41v2.4l1.58-1.51-.95-1.27c-.19.14-.41.26-.63.38Z"/>
  <path class="cls-2" d="m33.73,76.74c.65,0,1.25-.43,1.44-1.09.22-.79-.24-1.62-1.03-1.85-.63-.18-6.15-2.02-4.66-9.79.16-.81-.38-1.6-1.19-1.75-.81-.15-1.6.38-1.75,1.19-2.04,10.67,6.71,13.22,6.8,13.24.13.04.27.05.4.05Z"/>
  <path class="cls-2" d="m72.96,81.89c-.46,0-.83.37-.83.83s.37.83.83.83.84-.37.84-.83-.38-.83-.84-.83Z"/>
  <circle class="cls-2" cx="77.12" cy="74.67" r=".93"/>
  <path class="cls-2" d="m67.31,74.81c-.47,0-.86.38-.86.85s.39.85.86.85.85-.38.85-.85-.38-.85-.85-.85Z"/>
  <path class="cls-2" d="m107.77,82.33c-.85-2.19-3.32-4.34-7.67-3.83-2.32.28-3.45-.16-3.72-.63-.01-.03-.02-.05-.03-.08-.28-.68.37-2.27,2.12-3.94.51-.48.6-1.24.26-1.83l1-.9h2.47c.83,0,1.5-.67,1.5-1.5s-.67-1.5-1.5-1.5h-1.02l.27-.88c.24-.79-.2-1.63-.99-1.87-.79-.24-1.63.2-1.88.99l-.75,2.43-1.27,1.15c-.9-.59-1.95-1.04-3.03-1.04-.82,0-1.66.25-2.48.88-3.16,2.44-2.55,5.11-2.14,6.14.82,2.09,3.14,3.79,5.3,4.04.87.98,2.64,1.95,6.24,1.52,2.26-.26,3.95.46,4.52,1.94.37.94.23,2.25-.72,3.43-2.32-2.82-6.96-5.44-16.82-6.23l-1.59-2.56h0c1.16-2.29,1.61-4.72,1.21-7.12-1.37-8.34-12.2-13.27-29.13-13.44.63-.66,1.82-1.89,3.09-3.22,1.27-1.32,2.62-2.74,3.6-3.79,3.06-3.28,2.05-6.45.28-10.57l-.29-.68c-1.47-3.51-3.43-8.16-11.39-9.4,2.28-.53,4.28-1.95,5.59-4.02,1.56-2.45,1.88-5.37.83-7.62-.62-1.33-7.76-7.87-10.22-8.01-1.83-.11-3.74.88-4.76,1.5l-.33-.13c-5.43-2.89-7.7-.57-10.59,2.36-.42.44-.88.91-1.39,1.4-4.48,4.34-2.93,8.07-1.61,9.9,1.97,2.71,6.6,5.16,8.8,4.8v.1c-.5-.01-.97,0-1.44.01-.08-.01-.16-.03-.24-.03-.18-.02-.35.01-.51.06-3.93.21-6.74,1.19-8.82,3.08-.39-1.93-1.55-5.07-4.99-7.04-.52-.3-1.02-.51-1.51-.67l1.89-7.69.14-.55,1.93.2c.18.01.37.02.55.02,1.37,0,2.7-.51,3.71-1.46.72-.67,1.05-1.71.87-2.71-.14-.7-.65-1.99-2.65-2.78-.77-.31-1.64.07-1.94.84-.31.77.06,1.64.83,1.94.65.26.8.52.84.52-.51.48-1.2.71-1.9.64l-1.52-.16.51-2.03c.19-.8-.3-1.62-1.1-1.81-.8-.2-1.62.29-1.82,1.09l-.22.93h-.01s-2.83-2.67-2.83-2.67c-.57-.54-1.46-.55-2.03-.02l-1.87,1.7c-2.43,2.21-2.66,5.91-.54,8.42l1.15,1.36c.3.34.72.52,1.15.52.24,0,.48-.05.7-.17l2.33-1.24-1.17,4.72c-4.89.41-6.41,3.01-6.85,4.17-.81,2.16-.1,4.72,1.75,6.38.6.53,1.38.89,2.22,1.14l-1.16,4.69c-.2.81.3,1.62,1.1,1.82.12.03.24.04.36.04.67,0,1.29-.46,1.46-1.14l1.22-4.95c.27.01.54.02.8.02.5,0,.96-.02,1.39-.05-.08,2.26,0,6.2,1.1,9.3.64,1.82,1.92,3.09,3.59,3.57.43.12.95.21,1.55.21.98,0,2.18-.25,3.61-.9l-.31,1.04c-1.75.53-5.38,2.21-7.17,7.15-2.08,5.73-7.46,24.98-7.69,25.8-.17.6.05,1.24.55,1.61.51.37,1.19.38,1.71.05.03-.02,1.8-1.16,4.79-1.99.13,6.1,2.31,11.72,3.85,14.94-4.13.06-7.75,1.83-8.97,3.9-.7,1.19-.62,2.51.21,3.52.92,1.1,2.77,1.11,4.81.66v.1c.05.57.34,1.64,1.78,2.34.6.29,1.5.47,2.55.47,1.8,0,4.02-.53,5.89-1.9,1-.73,2.38-.97,3.68-.63,4.23,1.1,7.58,1,9.97-.28.44-.23.78-.59.99-1.01,2.42,2.09,5.6,3.72,8.57,3.72,1.13,0,2.23-.24,3.24-.76.23-.12.45-.24.67-.36.46-.02.91-.25,1.18-.66.01,0,.02-.03.02-.04,1.38-.88,2.34-1.84,2.32-3.17-.03-1.77-1.85-2.88-3.44-3.65-1.69-.82-2.09-3.79-2.59-7.54-.3-2.2-.65-4.77-1.35-7.44.31.2.58.38.81.54l3.73,7.46c.14.28.37.52.65.66l5.71,2.94c.22.12.45.17.69.17s.48-.06.69-.17c.44-.23.73-.65.8-1.13l.86-6.58c.04-.31-.01-.62-.15-.89l-.29-.56.94.1c-.14,1.54-.13,3.83.8,5.59-.76,1.76-2.77,6.33-4.06,8.37-.44.71-1.07.62-1.38.52-.78-.3-1.64.09-1.94.87-.3.77.09,1.64.87,1.93.36.14.88.26,1.47.26,1.15,0,2.55-.44,3.52-1.98,1.2-1.9,2.88-5.59,3.84-7.78.14.08.27.16.41.23l-4.46,8.68c-.48.92-1.41,1.49-2.44,1.49h-1.4c-.83,0-1.5.67-1.5,1.5s.67,1.5,1.5,1.5h1.4c2.16,0,4.12-1.19,5.1-3.11l4.61-8.97c.24.08.48.15.72.21-.69,2.21-2.01,6.29-3.06,8.51-.96,2.03-2.13,1.91-2.22,1.9-.81-.19-1.61.3-1.8,1.11s.3,1.61,1.11,1.81c.04.01.32.07.75.07,1.15,0,3.38-.45,4.87-3.6,1.19-2.51,2.63-7,3.31-9.19,1.72.25,3.52.36,5.29.36.57,0,1.14-.01,1.7-.04-1.12,3.12-.34,5.62.74,7.16l-1.21,1.22c-.58.59-.58,1.54,0,2.12.3.3.68.44,1.06.44s.77-.15,1.07-.44l2.21-2.22c.3-.3.45-.71.43-1.13s-.22-.82-.54-1.09c-.28-.24-2.56-2.35-.34-6.33.3-.03.59-.07.87-.11.19,3.03,1.49,5.59,2.66,7.31.06.1.06.18.04.24s-.06.13-.16.18l-1.67.71c-.76.33-1.11,1.21-.79,1.97.25.57.8.91,1.38.91.2,0,.4-.04.6-.12l1.67-.72c.9-.39,1.58-1.15,1.85-2.09.28-.95.11-1.96-.44-2.77-1-1.46-2.12-3.65-2.17-6.17.38-.09.74-.19,1.09-.29l.14.78c.43,2.59,2.23,4.76,4.74,5.75v2.4c0,.77-.63,1.41-1.41,1.41h-.97c-.82,0-1.5.67-1.5,1.5s.68,1.5,1.5,1.5h.97c2.43,0,4.41-1.98,4.41-4.41v-2.4c0-.24-.03-.47-.09-.69.5-.32.95-.76,1.33-1.31,2.12-3.02,1.79-8.41,1.01-10.46-.03-.1-.07-.22-.12-.37-.11-.34-.23-.69-.38-1.05,2.09-1.99,2.87-4.76,1.92-7.19Zm-14.4-5.77c-.7-.39-1.38-1-1.67-1.74-.13-.33-.53-1.34,1.18-2.66.22-.17.46-.24.7-.24.61,0,1.26.43,1.77.86-1.08,1.28-1.76,2.57-1.98,3.78ZM16.86,33.92c-.38-.12-.72-.27-.94-.47-.94-.84-1.32-2.08-.94-3.09.18-.48.54-.89,1.02-1.23.02.18.05.36.1.54.12.46.46,1.25,1.32,1.97l-.56,2.28Zm67.24,37.51c.19,1.13.1,2.29-.23,3.44l-5.12-8.27c-.31-.5-.9-.78-1.48-.69-.58.07-1.07.49-1.24,1.06l-.93,3.17h-4.25s-1.75-2.69-1.75-2.69c-.34-.51-.95-.77-1.55-.65s-1.07.6-1.18,1.2l-.67,3.6-3.88.32-5.85-11.42c19.36-.27,27.22,5.46,28.13,10.93Zm-6.76,1.18c.14-.16.25-.33.31-.54l.31-1.04,4.35,7.03c-.46.68-1.01,1.33-1.63,1.96l-3.28-3.3-2.33-2.35-.19-.19c-.37-.37-.9-.52-1.41-.4-.06.01-.12.03-.18.06l-.46-.71h2.89s1.27-.21,1.64-.52h-.02Zm-5.64,4.27l-.55,1.71-5.42,1.03-1.21-2.48c-.24-.49-.72-.81-1.26-.84l-2.14-.13-.64-1.13,4.94-.4c1.66-.1,2.85-.9,2.85-.9.08-.14.14-.29.17-.46l.2-1.07,3.06,4.67ZM37.08,20.93v4.3c-.02.45.02.86.11,1.26-.82-.37-1.77-.91-2.61-1.58-.84-.67-1.57-1.47-1.95-2.39-.24-.58-.98-2.36,1.8-5.05.52-.51,1-.99,1.45-1.44,2.83-2.89,3.59-3.67,7.1-1.79.05.03.1.05.15.08l1.14.45c.48.19,1.03.12,1.44-.18.79-.58,2.44-1.45,3.44-1.42,1.36.35,7.15,5.34,7.76,6.3.61,1.31.36,3.17-.64,4.74-.72,1.13-1.71,1.96-2.85,2.43h-.01c.06-.41.1-.85.1-1.32v-4.39c0-3.11-2.54-5.65-5.65-5.65h-5.13c-3.11,0-5.65,2.54-5.65,5.65Zm7.93-.09c-.61-.98-1.68-1.58-2.84-1.58-.66,0-1.29.2-1.82.54.42-.89,1.33-1.52,2.38-1.52h5.13c1.31,0,2.39.97,2.6,2.22-.63-.78-1.58-1.24-2.6-1.24-1.16,0-2.24.6-2.85,1.58Zm.2,1.99c-.11-.02-.23-.04-.35-.04h-.01c.06-.08.11-.16.16-.25.07.1.13.2.2.29Zm-3.04,1.29c.44,0,.86-.08,1.26-.24-.04.13-.07.26-.07.41v1.8c0,.15.03.29.07.42-.64-.09-1.28-.23-1.93-.44-.42-.14-.87-.08-1.24.14-.12-.28-.19-.58-.18-.89v-1.93c.59.47,1.32.73,2.09.73Zm.36,5.29c2.15.37,4.14.2,5.53-.03v2.76l-1.77-1.46c-.55-.46-1.35-.46-1.9-.01l-1.86,1.51v-2.77Zm3.75-2.84c.05-.15.08-.31.08-.48v-1.8c0-.21-.04-.41-.11-.58.48.26,1.03.41,1.61.41,1.04,0,2.02-.48,2.65-1.29v2.49c0,.39-.03.71-.07.97-.38-.29-.89-.36-1.34-.22-.02,0-1.18.37-2.82.5Zm-6.75,6.55v.75c0,.86.48,1.62,1.25,1.98.3.15.62.22.95.22.49,0,.97-.17,1.37-.49l2.23-1.81,2.14,1.78c.66.54,1.56.66,2.33.29.78-.37,1.26-1.13,1.26-1.98v-1.25c7.75.59,9.29,4.25,10.78,7.79l.29.7c1.71,4,1.98,5.53.28,7.34-1.65,1.77-4.42,4.66-5.98,6.28-.72-.74-1.79-1.61-3.23-2.33l6.11-5.84c.54-.52.62-1.37.17-1.98l-2.33-3.13c.31-.94.41-2.02.31-3.26-.08-.82-.81-1.43-1.63-1.36-.82.07-1.43.8-1.36,1.62.11,1.34-.1,2.32-.62,2.92-.48.53-1.28.83-2.39.87-.83.03-1.48.73-1.45,1.55.03.81.7,1.45,1.5,1.45h.06s.08-.02.13-.02v4.33c-2.93-1.17-12-5.67-12.4-16.42h.23Zm15.13,24.09c-.31.65-.83,1.21-1.45,1.68-.03.03-.07.05-.1.07-1.39,1.04-3.26,1.69-4.55,2.04-.73.21-1.49-.2-1.73-.92l-.89-2.65c-.13-.39-.1-.81.09-1.18.2-.37.52-.63.92-.75l3.46-.97c2.26.68,3.63,1.95,4.25,2.68Zm.04-10.4v-2.4c.22-.12.44-.24.63-.38l.95,1.27-1.58,1.51Zm-14.48-2.29c2.85,3.79,6.6,6.05,9.04,7.21l-3.12.89c-1.2.34-2.18,1.13-2.76,2.23-.25.48-.4,1-.47,1.53-.1-.03-.21-.04-.32-.05-5.62-.12-8.22-3.31-9-4.52l2.09-7.09c1.29.44,2.5.51,3.05.51.18,0,.29-.01.31-.01.5-.03.93-.31,1.18-.7Zm-22.7-26.08l-.37-.43c-1.08-1.27-.96-3.14.28-4.27l.83-.76,3.05,2.88-.08.34-.08.32-3.63,1.92Zm9.3,28.8c-.73-.21-1.26-.77-1.59-1.68-1.38-3.9-.84-9.77-.83-9.83v-.19s0-.1,0-.15v-.04s-.02-.06-.03-.1c-.01-.05-.02-.1-.04-.15-.02-.05-.04-.09-.06-.13-.02-.05-.04-.09-.06-.14-.03-.04-.05-.08-.08-.11-.03-.04-.06-.09-.09-.12-.03-.04-.06-.07-.09-.1-.04-.03-.08-.07-.13-.1-.03-.03-.06-.05-.1-.07-.04-.03-.09-.06-.14-.08-.04-.02-.08-.04-.12-.06-.05-.01-.1-.03-.15-.05-.05-.01-.1-.02-.15-.03-.03,0-.07-.01-.1-.02h-.21s-.09.01-.13.01h-.04c-.81.13-1.82.21-2.82.21l.34-1.4c.33.08.67.15,1.05.19.82.11,1.57-.47,1.68-1.29.1-.82-.48-1.58-1.3-1.68-1.88-.24-2.54-.92-2.63-1.24-.05-.2.08-.35.21-.45.43-.33,1.44-.44,2.84.36,3.59,2.06,3.68,5.95,3.68,6.13,0,.02.01.04.01.06,0,.05.01.1.01.15.01.05.02.1.04.16,0,.02,0,.03.01.05l2.42,8.03c.19.65.79,1.06,1.43,1.06.15,0,.29-.02.44-.06.79-.24,1.24-1.08,1-1.87l-1.72-5.71c1.47-2.07,3.6-3.19,6.94-3.55.13,3.55,1.08,6.52,2.44,8.98-.69.01-2.5-.16-3.49-1.18-.64-.67-.9-1.63-.78-2.94.08-.82-.53-1.55-1.36-1.63-.82-.08-1.55.53-1.63,1.36-.19,2.17.33,3.93,1.56,5.23l-.62,2.09c-3.05,2.32-4.81,2.31-5.6,2.08Zm4.33,6.31c1.2,1.79,4.56,5.63,11.37,5.78h.04c.28,0,.55-.08.78-.22l.65,1.92c.36,1.09,1.12,1.94,2.05,2.46l3.22,6.43c-5.49-1.9-16.3-6.7-19.51-15.62.51-.34.99-.59,1.4-.75Zm-11.37,27.48c1.66-5.87,5.18-18.13,6.72-22.38.28-.76.61-1.4.97-1.97,5.07,11.32,20.2,16.04,23.66,16.98l3.62,7.23c-2.82-1.43-6.56-2.82-9.78-2.32-5.15.81-7.31.78-14.46.67h-.55c-4.36-.07-7.85.88-10.18,1.79Zm17.82,22.57c-2.17-.57-4.5-.15-6.21,1.11-2.27,1.67-4.9,1.37-5.36,1.15.22-.35.75-.88,1.26-1.24.62-.43.82-1.27.46-1.95-.37-.67-1.18-.96-1.89-.66-2.04.84-4.4,1.44-5.33,1.42.11-.17.33-.43.76-.74,1.56-1.12,4.69-2.05,7.91-1.46.56.1,1.14-.13,1.48-.59.34-.46.39-1.08.12-1.59l-1-1.88c-1.45-2.95-3.79-8.63-3.78-14.7,1.19-.17,2.49-.27,3.89-.24h.55c2.63.05,4.62.08,6.35.06.52,3.36.83,10.27.92,13.09-.26,2.52.26,6.68,5.78,8.77-1.3.19-3.2.15-5.91-.55Zm3.12-8c.01-.07.01-.14.01-.21-.01-.41-.27-8.74-.9-13.21.27-.01.55-.03.82-.06.82,10.59,1.82,15.46,3.92,19.21-2.93-1.09-4.17-2.93-3.85-5.73Zm18.34,7.39c.97.47,1.42.81,1.62,1-.11.1-.3.25-.59.44l-5.08-3.38c-.69-.47-1.62-.28-2.08.41s-.27,1.62.42,2.08l3.54,2.36c-3.32.38-7.87-2.86-9.57-5.79-1.93-3.32-2.89-8.04-3.68-18.31.56-.08,1.16-.16,1.79-.26,2.12-.34,4.82.54,7.18,1.64,1.3,3.46,1.78,6.91,2.19,9.97.59,4.46,1.11,8.31,4.26,9.84Zm7.74-9.72l-3.38-1.74-13.85-27.7c1.28-.36,2.66-.87,3.93-1.57l5.08,9.92-.69.05c-.51.05-.96.34-1.2.8-.24.45-.24.99.02,1.44l2.2,3.89c.25.44.71.72,1.21.75l2.09.13.46.96-1.28.24c-.48.09-.89.41-1.09.86s-.17.97.09,1.39l2.24,3.69c.25.4.66.66,1.13.71l2.58.27.98,1.91-.52,4Zm5.59-8.28l-4.83-.51h-.06s-.03-.01-.05-.01h-.15s-2.49-.28-2.49-.28l-.73-1.21,7-1.33,2.5-1c.06-.09.11-.19.14-.29l.76-2.33,3.91,3.93c-1.13.82-2.4,1.55-3.78,2.17l-1.89.75c-.11.04-.22.07-.33.11Zm30.5,14.68c-.36.52-.73.68-1.04.72h-.01c-1.32-.59-2.28-1.8-2.53-3.24l-.23-1.35c.26-.14.51-.28.71-.42.68-.47.85-1.4.38-2.09-.47-.68-1.4-.85-2.08-.37-2.98,2.05-16.91,3.78-23.23-.22-1.15-.73-1.17-3.34-.97-5.05,2.95-1.05,5.52-2.53,7.61-4.28,1.76.01,3.38.07,4.86.17.06.01.1.01.15.01h.05c14.63,1.05,16.24,6.13,16.81,7.93.07.2.12.38.18.52.56,1.5.68,5.77-.66,7.67Z"/>
  <path class="cls-2" d="m28.72,87.5c2.46-.79,4.07-.1,4.12-.08.74.36,1.64.05,2-.7.36-.75.05-1.64-.7-2-.27-.13-2.73-1.23-6.34-.08-.79.25-1.22,1.1-.97,1.89.21.64.79,1.04,1.43,1.04.15,0,.31-.02.46-.07Z"/>
  <path class="cls-2" d="m33.93,91.91c.74.36,1.64.05,2-.7.36-.75.05-1.64-.7-2-.27-.13-2.73-1.23-6.34-.08-.79.25-1.22,1.1-.97,1.89.2.64.79,1.04,1.43,1.04.15,0,.31-.02.46-.07,2.46-.79,4.07-.1,4.12-.08Z"/>
  <path class="cls-2" d="m36.74,94.21c-.96-.59-3.35-1.29-6.2-.11-.77.32-1.13,1.19-.82,1.96.24.58.8.93,1.39.93.19,0,.38-.04.57-.11,2.1-.87,3.44-.13,3.48-.11.71.44,1.63.22,2.06-.49.44-.7.22-1.63-.49-2.06Z"/>
  <path class="cls-2" d="m46.82,88.17c2.1-.86,3.44-.13,3.47-.11.7.43,1.63.22,2.07-.49.44-.71.22-1.63-.49-2.07-.96-.59-3.35-1.29-6.2-.11-.77.32-1.13,1.19-.82,1.96.24.58.8.93,1.39.93.19,0,.38-.04.57-.11Z"/>
  <path class="cls-2" d="m47.63,93.23c2.1-.87,3.44-.13,3.48-.11.7.44,1.63.22,2.06-.49.44-.7.22-1.63-.49-2.06-.96-.59-3.35-1.29-6.2-.11-.77.32-1.13,1.19-.82,1.96.24.58.8.93,1.39.93.19,0,.38-.04.57-.11Z"/>
  <path class="cls-2" d="m53.57,95.06c-.96-.59-3.35-1.29-6.2-.11-.77.32-1.13,1.19-.82,1.96.24.58.8.93,1.39.93.19,0,.38-.04.57-.11,2.1-.87,3.44-.13,3.48-.11.7.44,1.63.22,2.06-.49.44-.7.22-1.63-.49-2.06Z"/>
</svg>