<?xml version="1.0" encoding="UTF-8"?>
<svg id="icons" xmlns="http://www.w3.org/2000/svg" viewBox="0 0 120 120">
  <defs>
    <style>
      .cls-1 {
        fill: none;
        stroke: #000;
        stroke-linecap: round;
        stroke-linejoin: round;
        stroke-width: 3px;
      }
    </style>
  </defs>
  <line class="cls-1" x1="69.13" y1="31.65" x2="79.07" y2="31.65"/>
  <line class="cls-1" x1="70.76" y1="36.96" x2="79.07" y2="33.47"/>
  <path class="cls-1" d="m65.81,15.24c1.81,6.68-19.05,15.72-22.02,10.95-1.41-2.27,1.04-3.37,3.54-4.27,4.08-1.46,3.19-5.01,3.19-5.01,0,0,5.53,3.2,7.41-.58,2.54-5.09,7.21-3.57,7.88-1.09Z"/>
  <path class="cls-1" d="m62.47,15.59c-2.89,6.03-11.09,8.63-15.13,9.26"/>
  <path class="cls-1" d="m43.38,25.23c-3.7-1.22-3.4-3.93,1.37-5.57,3.73-1.29,3.95-4.3,2.58-6.02,0,0,6.21,2.81,7.87-.14,1.33-2.36,4.18-3.32,6.09-.38"/>
  <path class="cls-1" d="m41.51,21.52c-2.58-1.57-1.02-3.38.34-4.36,1.51-1.09,3.54-2.4,2.62-7.04,0,0,5.67,3.39,8.46.8,2.45-2.27,5.12.41,5.12.41"/>
  <line class="cls-1" x1="44.47" y1="10.11" x2="50.52" y2="16.91"/>
  <path class="cls-1" d="m65.92,16.91l6.18,10.61-4.16.27,5.72,18.6h-2.86c-3.36,0-6.31-1.62-7.25-3.99l-4.55-11.42s-1.1,4.91-7.17,4.01c-4.93-.73-6.01-5.05-2.74-7.62"/>
  <path class="cls-1" d="m68.73,30.35c-8.9.41-11.82-5.49-11.82-5.49"/>
  <line class="cls-1" x1="62.82" y1="25.23" x2="65.92" y2="25.23"/>
  <path class="cls-1" d="m49.88,34.43c-6.07.65-19.55,10.99-19.45,14.31.06,2.26,11.69,10.85,11.69,10.85l-.48,1.3c-.49,1.33-.09,2.75,1.08,3.83h0c1.1,1.02,2.85,1.64,4.63,1.64h1.8c.83,0,1.41-.6,1.13-1.17l-2.48-6.38c-.19-.4-.46-.78-.8-1.13l-8.72-8.94,10.56-4.97,8.08,12.74-16.05,53.48h40.63l-2.31-55.87h0c1.49-1.37,2.31-3.08,2.31-4.84v-11.15c0-.6-.21-1.18-.62-1.7l-.56-.71c-1.13-1.45-1.53-3.15-1.13-4.79l.83-3.42c.28-1.16,1.97-1.83,3.44-1.36h0c2.9.91,4.97,2.84,5.5,5.12l.51,2.19c.3,1.29-.1,2.61-1.13,3.67l-.86.89.49,16.21c.07,2.29-2.48,4.16-5.61,4.11l-3.01-.05"/>
  <path class="cls-1" d="m48.83,43.78s5.82-1.7,13.37-4.74"/>
  <line class="cls-1" x1="55.39" y1="54.13" x2="81.49" y2="43.28"/>
  <path class="cls-1" d="m53.93,66.43s12.95-11.6,27.56-15.67"/>
  <path class="cls-1" d="m52.35,71.7c6.22-4.13,27.34-5.27,27.34-5.27"/>
  <path class="cls-1" d="m50.25,78.71c11.25-5.26,29.85-2.55,29.85-2.55"/>
  <path class="cls-1" d="m48.37,84.97c14.66.66,32.07-.46,32.07-.46"/>
  <path class="cls-1" d="m46.19,92.22c.33,0,2.46.33,5.22.78,9.71,1.58,19.82,1.32,29.35-.78h0"/>
  <path class="cls-1" d="m43.37,101.62c15.51,4.77,37.83,1.37,37.83,1.37"/>
</svg>