<?xml version="1.0" encoding="UTF-8"?>
<svg id="icons" xmlns="http://www.w3.org/2000/svg" viewBox="0 0 120 120">
  <defs>
    <style>
      .cls-1 {
        fill: #c0bfbf;
        stroke-miterlimit: 10;
      }

      .cls-1, .cls-2 {
        stroke: #000;
      }

      .cls-2 {
        fill: none;
        stroke-linecap: round;
        stroke-linejoin: round;
        stroke-width: 3px;
      }
    </style>
  </defs>
  <path class="cls-2" d="m57.08,13.72h4.6c1.97,0,3.57,1.6,3.57,3.57v4.83h-11.74v-4.83c0-1.97,1.6-3.57,3.57-3.57Z"/>
  <path class="cls-2" d="m35.2,103.77l-7.71,1.43c-1.77.33-3.27,1.37-4.08,2.82l-1.1,1.98h17.44c1.35,0,2.45-.99,2.45-2.21v-2.51l11.9-19.67h-11.9l-7,18.16Z"/>
  <path class="cls-2" d="m77.62,99.61c-17.92,7.57-34.7,4.48-34.7,4.48"/>
  <path class="cls-2" d="m34.24,49.2c-10.5,20.93-9.54,37.05-9.54,37.05,0,0,24-4.18,24.14-31.92"/>
  <path class="cls-2" d="m51.78,34.96c-.64-4.03-12.8-13.9-12.8-13.9l-9.38-7.34s-13.16,15.66,9.52,27.38c0,0,1.73-.57,4.31-2.18s5.42-2.91,8.34-3.97h0"/>
  <path class="cls-2" d="m30.19,34.63l-8.66-5.41s-2.8,5.59.87,7.87c3.67,2.28,3.41,1.97,3.41,1.97,0,0,6.64,12.28,11.8,10.78,5.16-1.5,9.35-2.99,9.35-2.99,0,0,4.19,19.04,10.49,30.61s16.43,20.23,22.89,23.77l12.15-12.99s-7.17-5.82-13.89-10.7c-6.73-4.88-8.65-14.56-8.65-14.56,0,0-7.34,2.24-17.89,1.75"/>
  <path class="cls-2" d="m55.68,73.93c9.89.31,17.33-2.93,17.33-2.93"/>
  <path class="cls-2" d="m60.62,82.64c7.3-.06,15.51-4.57,17-5.86"/>
  <path class="cls-2" d="m68.01,91.54c11.28-2.04,16.52-9.56,16.52-9.56"/>
  <line class="cls-2" x1="54.1" y1="85.61" x2="62.81" y2="85.61"/>
  <line class="cls-2" x1="47.44" y1="64.68" x2="42.2" y2="85.61"/>
  <path class="cls-2" d="m46.59,98.03c14.69,1,24.56-3.48,24.56-3.48"/>
  <path class="cls-2" d="m86.59,94.54l1.52,9.52-2.93.73c-1.73.43-3.16,1.55-3.86,3.05l-.63,1.34h13.11l4.01-13.94c.57-1.99-.86-4-3.1-4.37l-4.05-.66"/>
  <path class="cls-2" d="m40.43,40.56c4.2,2.32,3.57,7.29,3.57,7.29"/>
  <path class="cls-2" d="m27.02,41.11c.72-2.74,6.04-3.84,6.04-3.84"/>
  <path class="cls-2" d="m88.22,34.29c.12,1.1-.25,2.17-.99,2.98-.45.5-1.04.91-1.73,1.17l-3.33,1.27-1.47.56c-.77.29-1.52.63-2.23,1.02l-2.2-8.09,2.98-.21,1.11-12.42.14-1.56c-.18-.64-.09-1.27.19-1.8.58-1.13,2-1.85,3.51-1.48l1.7.41c.4.1.76.27,1.05.5.62.46.99,1.16.99,1.9,0,.18-.02.36-.07.54,0,.03-.01.07-.02.1-.66,2.22-.86,4.54-.6,6.82l.97,8.29Z"/>
  <path class="cls-2" d="m69.93,33.64h.08s6.26-.44,6.26-.44"/>
  <path class="cls-2" d="m78.47,41.29c-1.99,1.06-3.75,2.44-5.18,4.08l-.12.13c-2.1,2.4-3.24,5.36-3.24,8.41v9.08c3.85,2.83,18.86,16.38,24.68,17.51s1.63-25.69-12.44-40.79"/>
  <path class="cls-2" d="m69.94,54.81c9.84-2.77,20.28.45,23.29,3.15"/>
  <line class="cls-1" x1="44.73" y1="51.7" x2="93.23" y2="71"/>
  <path class="cls-2" d="m40.8,22.59c-6.83,8.54.74,17.43.74,17.43"/>
  <path class="cls-2" d="m64.34,22.12c1.74,4.01,9.84,3.71,9.84,3.71,0,0-.23,7.5-6.85,8.84,0,0-8.51-3.3-7.96-12.54"/>
  <polyline class="cls-2" points="54.5 27.92 52.95 39.07 57.81 39.19 60.29 27.75"/>
  <line class="cls-2" x1="69.02" y1="34.15" x2="61.82" y2="57.96"/>
  <path class="cls-2" d="m53.51,22.12l-2.37,5.29h1.98s4.85.65,6.5-1.84"/>
  <path class="cls-2" d="m87.23,37.27c7.82-3.2,7.48-11.13,6.04-16.79-.91-3.58-2.26-6.26-2.26-6.26l-4.06,2.42"/>
  <line class="cls-2" x1="80.36" y1="20.57" x2="71.7" y2="25.73"/>
  <path class="cls-2" d="m70.29,10c10.25,1.87,7.74,11.51-1.6,8.9"/>
  <polyline class="cls-2" points="99.62 22.13 93.27 20.48 87.87 19.08"/>
  <polyline class="cls-2" points="80.69 17.21 76.81 16.2 67.3 13.73"/>
  <path class="cls-2" d="m27.2,67.72h0c6.21.75,12.47-1,17.11-4.78l4.29-3.49"/>
  <path class="cls-2" d="m81.83,49.32c-10.49-1.51-8.12,11.92,1.06,8.02"/>
  <polyline class="cls-2" points="78.47 41.29 78.47 49.39 78.47 49.4"/>
  <line class="cls-2" x1="43.68" y1="79.71" x2="58.73" y2="79.71"/>
  <path class="cls-2" d="m50.33,59.45c13.51.95,19.61-1.4,19.61-1.4"/>
</svg>