<?xml version="1.0" encoding="UTF-8"?>
<svg id="icons" xmlns="http://www.w3.org/2000/svg" viewBox="0 0 120 120">
  <defs>
    <style>
      .cls-1 {
        fill: none;
        stroke: #000;
        stroke-linecap: round;
        stroke-linejoin: round;
        stroke-width: 3px;
      }
    </style>
  </defs>
  <path class="cls-1" d="m47.34,59.79l-2.26-5.36c-.84,4.49-3.68,7.96-5.86,10.06-1.75,1.68-4.75,1.63-6.45-.09-4.74-4.8-10.58-16.14-10.58-16.14l-2.53-3.92c-1.16-1.79-1.41-3.91-.73-5.85.22-.63.65-1.16,1.18-1.56h0c1.28-.95,3.04-.92,4.28.07l2.14,1.71c1.77,1.42,2.65,3.52,2.35,5.62l-.27,1.87c-.1.69.15,1.39.68,1.91l6.21,6.06c.07.15.32.15.38,0l5.25-12.36c1.03-2.42,3.35-4.28,6.27-4.28"/>
  <path class="cls-1" d="m70.03,37.79h1.92c3.91,0,7.34,2.28,8.45,5.6l1.96,5.92,3.2,9.65c.67,2.03-.26,4.22-2.29,5.34l-22.26,12.28c-.91.5-2.11.06-2.35-.86l-3.38-12.95,9.91-5.86c4.8-2.84,9.95-5.18,15.35-6.98l1.81-.61"/>
  <path class="cls-1" d="m55.28,62.76l-.15-.18c-1.08-1.27-2.68-2.12-4.45-2.35l-3.76-.49c-.97-.13-1.83.54-1.83,1.4v2.02c0,1.75,1.1,3.36,2.85,4.18h0c.68.32,1.43.48,2.19.48h6.48"/>
  <path class="cls-1" d="m53.22,19.17h12.08c2.19,0,3.96,1.78,3.96,3.96v5.71c0,4.79-3.89,8.69-8.69,8.69h-1.9c-5.1,0-9.23-4.14-9.23-9.23v-5.34c0-2.09,1.7-3.78,3.78-3.78Z"/>
  <path class="cls-1" d="m48.61,24.02c-3.68.25-4.34-4.77.07-7.58,5.28-3.37,20.65-4.06,23.44,1.63,2.37,4.84-2.92,5.95-2.92,5.95"/>
  <path class="cls-1" d="m49.56,15.72h0c0-4.5,4.37-7.74,9.79-7.74h0c5.42,0,9.79,2.93,9.79,7.43h0"/>
  <path class="cls-1" d="m36.94,25.27c-.64,1.13-1.84,1.88-3.22,1.88s-2.58-.75-3.22-1.88c.64-1.13,1.84-1.89,3.22-1.89s2.58.76,3.22,1.89Z"/>
  <path class="cls-1" d="m63.36,28.23c-.86,0-1.6-.43-2-1.07.4-.64,1.14-1.08,2-1.08s1.6.43,2,1.08c-.4.64-1.14,1.07-2,1.07Z"/>
  <path class="cls-1" d="m61.43,23.26c1.5-1.22,3.78-.5,4.48.21"/>
  <line class="cls-1" x1="57.76" y1="34.07" x2="61.11" y2="34.07"/>
  <path class="cls-1" d="m49.44,26.75c-4.03,9.49-1.48,19.71,2.22,20.51s3.83-3.08,2.29-6.28-.44-5.45-.44-5.45"/>
  <path class="cls-1" d="m68.46,31.35c3.24,8.26.9,15.11-2.8,15.91s-3.83-3.08-2.29-6.28c1.54-3.2.6-3.93.6-3.93"/>
  <path class="cls-1" d="m45.41,55.15c8.97,1.8,22.07.44,22.07.44"/>
  <path class="cls-1" d="m43.5,37.54-4.34,8.9l-1.64-2.53-4.95-8.6c-.07-.11-.2-.17-.33-.14-2.89.66-6.12-.94-6.11-5.45h-2.67c-.44,0-.7-.43-.45-.75l3.12-6.07h0c.65-2.51,3.03-5.13,5.72-5.13,1.79,0,3.69,0,5.38.43,1.69.43,3.17,1.29,4.1,3.01.73,1.36.67,8.69.67,8.69h0c0,1.12.5,2.18,1.37,2.89l3.62,2.74h0m-13.27-8.38c-1.38,0-2.58-.75-3.22-1.88.64-1.13,1.84-1.89,3.22-1.89s2.58.76,3.22,1.89c-.64,1.13-1.84,1.88-3.22,1.88Z"/>
  <path class="cls-1" d="m81.05,25.27c.64,1.13,1.84,1.88,3.22,1.88s2.58-.75,3.22-1.88c-.64-1.13-1.84-1.89-3.22-1.89s-2.58.76-3.22,1.89Z"/>
  <path class="cls-1" d="m74.49,37.54-4.45-.95l1.95-1.67,2.63-2.13c.87-.71,1.38-1.77,1.37-2.89h0s-.06-7.33.67-8.69c.93-1.72,2.4-2.58,4.1-3.01,1.69-.43,3.59-.43,5.38-.43,2.68,0,5.07,2.62,5.72,5.13h0l3.12,6.07c.25.32-.01.75-.45.75h-2.67c.02,4.51-3.22,6.11-6.11,5.45-.13-.03-.26.02-.33.14l-5.03,8.08h0m.65-18.12c.64-1.13,1.84-1.89,3.22-1.89s2.58.76,3.22,1.89c-.65,1.13-1.84,1.88-3.22,1.88s-2.58-.75-3.22-1.88Z"/>
  <path class="cls-1" d="m63.36,40.99c-3.75,2.97-8.5,3.19-8.5,3.19"/>
  <path class="cls-1" d="m48.45,44.21h0c-1.59,0-2.45,1.04-2.59,2.44l-.78,7.78"/>
  <polyline class="cls-1" points="47.92 67.34 38.85 107.97 85.48 107.97 74.96 68.87"/>
  <line class="cls-1" x1="41.89" y1="94.17" x2="81.76" y2="94.17"/>
  <line class="cls-1" x1="44.91" y1="80.47" x2="78.08" y2="80.47"/>
  <path class="cls-1" d="m97.2,63.55h0c-3.77,0-6.83,3.06-6.83,6.83l2.57,15.3c0,2.4-1.94,4.34-4.34,4.34h0c-2.4,0-4.34-1.94-4.34-4.34v-1.62c0-1.3,1.05-2.36,2.36-2.36h0c1.3,0,2.36,1.05,2.36,2.36v1.26"/>
  <path class="cls-1" d="m97.2,63.55h0c3.77,0,6.83,3.06,6.83,6.83l-2.57,15.3c0,2.4,1.94,4.34,4.34,4.34h0c2.4,0,4.34-1.94,4.34-4.34v-1.62c0-1.3-1.05-2.36-2.36-2.36h0c-1.3,0-2.36,1.05-2.36,2.36v1.26"/>
  <path class="cls-1" d="m22.92,63.55h0c-3.77,0-6.83,3.06-6.83,6.83l2.57,15.3c0,2.4-1.94,4.34-4.34,4.34h0c-2.4,0-4.34-1.94-4.34-4.34v-1.62c0-1.3,1.05-2.36,2.36-2.36h0c1.3,0,2.36,1.05,2.36,2.36v1.26"/>
  <path class="cls-1" d="m22.92,63.55h0c3.77,0,6.83,3.06,6.83,6.83l-2.57,15.3c0,2.4,1.94,4.34,4.34,4.34h0c2.4,0,4.34-1.94,4.34-4.34v-1.62c0-1.3-1.05-2.36-2.36-2.36h0c-1.3,0-2.36,1.05-2.36,2.36v1.26"/>
  <line class="cls-1" x1="53.72" y1="67.82" x2="49.97" y2="107.97"/>
  <line class="cls-1" x1="70.53" y1="71.32" x2="76.54" y2="107.97"/>
  <line class="cls-1" x1="64.69" y1="74.54" x2="67.11" y2="107.97"/>
  <line class="cls-1" x1="59.47" y1="76.62" x2="59.15" y2="107.97"/>
  <line class="cls-1" x1="60.63" y1="59.59" x2="65.9" y2="73.87"/>
  <line class="cls-1" x1="66.42" y1="56.18" x2="72.73" y2="69.76"/>
  <line class="cls-1" x1="73.54" y1="52.62" x2="80.29" y2="65.73"/>
  <polyline class="cls-1" points="51.66 47.26 51.15 55.89 51.41 60.36"/>
  <polyline class="cls-1" points="58.82 43.91 58.54 56.12 58.54 60.83"/>
  <line class="cls-1" x1="68.37" y1="45.16" x2="70.85" y2="53.85"/>
  <path class="cls-1" d="m70.04,40.58s6.9,2.74,6.87,10.63"/>
  <line class="cls-1" x1="63.97" y1="47.26" x2="64.32" y2="55.62"/>
  <line class="cls-1" x1="65.36" y1="27.15" x2="65.91" y2="26.75"/>
  <path class="cls-1" d="m55.15,28.23c.86,0,1.6-.43,2-1.07-.4-.64-1.14-1.08-2-1.08s-1.6.43-2,1.08c.4.64,1.14,1.07,2,1.07Z"/>
  <path class="cls-1" d="m57.09,23.26c-1.5-1.22-3.78-.5-4.48.21"/>
  <line class="cls-1" x1="53.16" y1="27.15" x2="52.61" y2="26.75"/>
  <line class="cls-1" x1="59.35" y1="30.81" x2="59.35" y2="29.64"/>
</svg>