<?xml version="1.0" encoding="UTF-8"?>
<svg id="icons" xmlns="http://www.w3.org/2000/svg" viewBox="0 0 120 120">
  <defs>
    <style>
      .cls-1 {
        fill: none;
        stroke: #000;
        stroke-linecap: round;
        stroke-linejoin: round;
        stroke-width: 3px;
      }
    </style>
  </defs>
  <g>
    <path class="cls-1" d="m75.63,71.19c.14,2.65-1.15,4.03-3.48,4.12h-.07s-.22,0-.22,0l-1.36.02-1.87.03-3.46.04h-2.32c-2.44,0-4.36-2.06-4.2-4.49l.24-3.52c.1-.91-4.05.39-4.03-3.25s10.1-3,16.07-2.31c2.48.29,4.37,2.33,4.49,4.81l.21,4.54Z"/>
    <path class="cls-1" d="m23.77,73.61h0s-3.37,11.19,14.42,12.47c1.63.12,2.69,1.68,2.59,3.17l-.2,3.06c-.12,1.82.46,6.36,3.48,6.36h4.64c3.26.15,3.48-4.42,3.48-6.17v-.56c0-1.05.87-1.9,1.93-1.86l2.57.09h0c.79-1.73.17-3.8-1.45-4.79-5.69-3.47-10.09-4.02-13.95-6.17-1.54-.86-2.48-2.38-2.48-4.03v-1.57"/>
    <line class="cls-1" x1="40.54" y1="90.01" x2="30.42" y2="90.01"/>
    <path class="cls-1" d="m55.17,90.01c10.83,2.19,14.74,8.48,14.84,19.82h-20.95l-.36-11.16"/>
    <line class="cls-1" x1="56.47" y1="94.85" x2="56.47" y2="98.8"/>
    <line class="cls-1" x1="52.89" y1="101.97" x2="52.89" y2="104.93"/>
    <line class="cls-1" x1="58.07" y1="102.99" x2="58.07" y2="106.05"/>
    <line class="cls-1" x1="64.38" y1="103.17" x2="64.38" y2="106.05"/>
    <line class="cls-1" x1="61.55" y1="96.6" x2="61.55" y2="99.92"/>
    <line class="cls-1" x1="35.31" y1="17.49" x2="42.35" y2="34.64"/>
    <path class="cls-1" d="m35.31,17.49c.99-.22,1.7-1.08,1.75-2.1.1-2.25-.22-5.79-3.45-5.14-4.08.82-2.62,4.27-.43,6.58.55.58,1.36.84,2.13.66h0Z"/>
    <line class="cls-1" x1="27.62" y1="23.44" x2="38.55" y2="34.95"/>
    <path class="cls-1" d="m27.62,23.44c.85-.55,1.22-1.59.91-2.56-.69-2.15-2.25-5.39-5.05-3.69-3.54,2.15-.94,4.91,1.94,6.35.7.35,1.54.32,2.2-.1h0Z"/>
    <line class="cls-1" x1="22.99" y1="31.85" x2="30.55" y2="35.39"/>
    <path class="cls-1" d="m22.99,31.85c.55-.8.5-1.89-.14-2.62-1.51-1.71-4.32-4.18-6.23-1.52-2.41,3.37,1.25,4.9,4.53,5.08.73.04,1.43-.33,1.84-.94h0Z"/>
    <path class="cls-1" d="m60.71,29.67h-13.8l-.23-1.95c0-1.65,1.34-2.99,2.99-2.99h11.04"/>
    <path class="cls-1" d="m57.62,15.29s.03.06.04.09c.96,4.87-8.4,7.62-10.49,3.7-.02-.03-.03-.06-.04-.09-1.27-2.98-.26-6.33,2.28-8.82,3.73.28,6.94,2.14,8.21,5.12Z"/>
    <path class="cls-1" d="m47.37,19.51c-.09-.17-.17-.34-.24-.51-1.27-2.98-.26-6.33,2.28-8.82,3.73.28,6.94,2.14,8.21,5.12.07.17.14.35.2.53"/>
    <line class="cls-1" x1="49.41" y1="10.17" x2="54.5" y2="24.73"/>
    <line class="cls-1" x1="52.75" y1="17.43" x2="56.24" y2="13.19"/>
    <line class="cls-1" x1="46.98" y1="15.52" x2="51.52" y2="16.25"/>
    <line class="cls-1" x1="47.95" y1="20.26" x2="48.33" y2="24.8"/>
    <path class="cls-1" d="m47.7,76.16h-1.22c-2.51,0-3.72-1.01-4.54-4.54h0l-1.72-15.23c-1.15-10.52-15.97-10.52-16.69.42h0l-1.17,13.33c0,2.51-2.03,4.54-4.54,4.54h-1.22"/>
    <path class="cls-1" d="m52.91,55.35l-1.59,16.05h0c0,.76-.15,1.51-.45,2.21-.77,1.73-1.5,2.55-3.19,2.55h-1.12v-6.08s.13-9.42.13-9.42c0-19.67-13.88-21.86-22.24-16.85-3.84,2.3-6.38,6.26-6.45,10.74l-.23,14.05v6.08s-1.12,0-1.12,0c-2.01,0-3.64-1.63-3.64-3.64v-1.11s-1.28-14.82-1.2-19.16c.03-1.61.31-3.21.96-4.68,3.52-7.91,13.82-11.41,20.23-11.08h7.23c3.59,0,6.51-2.88,6.57-6.47h0"/>
    <path class="cls-1" d="m53.5,31.21c0,1.75-1.42,3.17-3.17,3.17s-3.17-1.42-3.17-3.17v-1.55h6.34v1.55Z"/>
    <path class="cls-1" d="m60.05,31.21c0,1.75-1.42,3.17-3.17,3.17s-3.17-1.42-3.17-3.17v-1.55h6.34v1.55Z"/>
    <path class="cls-1" d="m30.55,35.39c5.36,1.21,6.34,5.58,6.34,5.58"/>
    <path class="cls-1" d="m41.04,34.95c5.4,3.73,1.31,9.89,1.31,9.89"/>
    <path class="cls-1" d="m47.16,32.79c5.5,8.82-3.33,14.11-3.33,14.11"/>
    <path class="cls-1" d="m40.31,43.99c2.19,3.26-2.81,6.29-2.81,6.29"/>
    <path class="cls-1" d="m40.74,60.92s-.51-4.54,5.13-7.48"/>
    <path class="cls-1" d="m46.68,63.74c-4.1.87-5.1,4.61-5.1,4.61"/>
    <path class="cls-1" d="m46.68,68.35c3.73.56,4.18,5.25,4.18,5.25"/>
    <path class="cls-1" d="m46.62,58.54c4.35.21,5.55,4.42,5.55,4.42"/>
    <path class="cls-1" d="m22.52,45.07c2.74,1.44,3.11,5.21,3.11,5.21"/>
    <path class="cls-1" d="m19.3,49.27c-3.97-.77-7.46,4.09-7.46,4.09"/>
    <path class="cls-1" d="m18.01,57.32c.89.48,4.14,5.15,4.79,5.03"/>
    <path class="cls-1" d="m17.84,63.74c-3.29.2-5.04,3.87-5.04,3.87"/>
    <path class="cls-1" d="m18.01,67.61c3.06.08,4.28,3.37,4.28,3.37"/>
    <path class="cls-1" d="m17.55,40.08c6.86-2.75,8.97,2.66,8.97,2.66"/>
    <path class="cls-1" d="m33.56,41.61c2.12,4.05.09,6.95.09,6.95"/>
    <line class="cls-1" x1="85.69" y1="17.49" x2="78.65" y2="34.64"/>
    <path class="cls-1" d="m85.69,17.49c-.99-.22-1.7-1.08-1.75-2.1-.1-2.25.22-5.79,3.45-5.14,4.08.82,2.62,4.27.43,6.58-.55.58-1.36.84-2.13.66h0Z"/>
    <line class="cls-1" x1="93.38" y1="23.44" x2="82.45" y2="34.95"/>
    <path class="cls-1" d="m93.38,23.44c-.85-.55-1.22-1.59-.91-2.56.69-2.15,2.25-5.39,5.05-3.69,3.54,2.15.94,4.91-1.94,6.35-.7.35-1.54.32-2.2-.1h0Z"/>
    <line class="cls-1" x1="98.01" y1="31.85" x2="90.45" y2="35.39"/>
    <path class="cls-1" d="m98.01,31.85c-.55-.8-.5-1.89.14-2.62,1.51-1.71,4.32-4.18,6.23-1.52,2.41,3.37-1.25,4.9-4.53,5.08-.73.04-1.43-.33-1.84-.94h0Z"/>
    <path class="cls-1" d="m60.29,29.67h13.8s.23-1.95.23-1.95c0-1.65-1.34-2.99-2.99-2.99h-11.04"/>
    <path class="cls-1" d="m62.24,15.29s-.03.06-.04.09c-2.14,5.23,8.46,7.62,10.49,3.7.01-.03.03-.06.04-.09,1.27-2.98.26-6.33-2.28-8.82-3.73.28-6.94,2.14-8.21,5.12Z"/>
    <path class="cls-1" d="m72.49,19.51c.09-.17.17-.34.24-.51,1.27-2.98.26-6.33-2.28-8.82-3.73.28-6.94,2.14-8.21,5.12-.07.17-.14.35-.2.53"/>
    <polyline class="cls-1" points="70.45 10.17 64.5 24.73 64.5 24.73"/>
    <line class="cls-1" x1="66.92" y1="18.07" x2="63.24" y2="13.73"/>
    <line class="cls-1" x1="72.88" y1="15.52" x2="68.34" y2="16.25"/>
    <line class="cls-1" x1="70.45" y1="21.21" x2="70.67" y2="24.8"/>
    <path class="cls-1" d="m98.06,73.61c2.05,1.66-1.52,14.7-9.23,15.22s-17.32-13.5-17.32-13.5"/>
    <path class="cls-1" d="m101.39,74.68h-1.22c-2.51,0-4.54-2.03-4.54-4.54l-1.17-13.33h0c-.72-10.94-20.91-11.2-22.06-.68l-.05,5.03"/>
    <path class="cls-1" d="m74.23,28.53h0c.05,3.59,2.98,6.47,6.57,6.47h7.23c6.41-.33,15.71,3.17,19.23,11.08.65,1.47.93,3.07.96,4.68.08,4.34-2.01,16.85-2.01,16.85l-.13,2.32c-.06.97-.31,1.95-.86,2.75-.95,1.39-2.33,1.99-3.84,1.99h-1.12v-6.08s-.23-14.05-.23-14.05c-.07-4.48-2.61-8.44-6.45-10.74-6.9-4.13-18.81-6.14-21.78,5.74"/>
    <path class="cls-1" d="m67.5,31.21c0,1.75,1.42,3.17,3.17,3.17s3.17-1.42,3.17-3.17v-1.55s-6.34,0-6.34,0v1.55Z"/>
    <path class="cls-1" d="m60.03,31.21c0,1.75,1.42,3.17,3.17,3.17s3.17-1.42,3.17-3.17v-1.55s-6.34,0-6.34,0v1.55Z"/>
    <path class="cls-1" d="m90.45,35.39c-5.36,1.21-6.29,4.73-6.29,4.73"/>
    <path class="cls-1" d="m79.96,34.95c-9.29,6.66-1.31,14.24-1.31,14.24"/>
    <path class="cls-1" d="m73.77,31.85c-4.01,8.04-.72,13.64-.72,13.64"/>
    <path class="cls-1" d="m80.77,40.78c-.81,4.88,1.68,7.66,1.68,7.66"/>
    <path class="cls-1" d="m95.48,45.07c-2.74,1.44-3.11,5.21-3.11,5.21"/>
    <path class="cls-1" d="m98.7,49.27c3.97-.77,9.46,4.09,9.46,4.09"/>
    <path class="cls-1" d="m99.99,57.32c-3.5,0-4.79,5.03-4.79,5.03"/>
    <path class="cls-1" d="m100.16,63.74c3.29.2,6.04,3.87,6.04,3.87"/>
    <path class="cls-1" d="m103.43,41.01c-6.86-2.75-11.95,1.72-11.95,1.72"/>
    <path class="cls-1" d="m87.44,41.61c-2.12,4.05-.09,6.95-.09,6.95"/>
    <path class="cls-1" d="m71.97,42.07l.19,5.16c-.38,4.58-5.01,10.1-10.64,10.1h-2.54c-5.63,0-10.68-4.78-10.68-10.42v-5.15"/>
    <polyline class="cls-1" points="60.71 61.13 60.71 61.13 60.71 57.32"/>
    <line class="cls-1" x1="66.57" y1="55.97" x2="67.28" y2="61.13"/>
    <path class="cls-1" d="m55.52,45.49c-1.07,0-2.01-.82-2.52-2.05.51-1.23,1.45-2.04,2.52-2.04s2,.81,2.51,2.04c-.51,1.23-1.45,2.05-2.51,2.05Z"/>
    <path class="cls-1" d="m64.82,45.49c-1.07,0-2.01-.82-2.52-2.05.51-1.23,1.45-2.04,2.52-2.04s2,.81,2.51,2.04c-.51,1.23-1.45,2.05-2.51,2.05Z"/>
    <polyline class="cls-1" points="60.29 48.57 60.29 48.57 60.29 46.94"/>
    <path class="cls-1" d="m63.42,51.61c-1.86,1.86-4.88,1.86-6.75,0"/>
    <path class="cls-1" d="m52.66,38.69c1.7-1.34,4.04-1.34,5.72-.14"/>
    <path class="cls-1" d="m68.34,38.69c-1.7-1.34-4.04-1.34-5.72-.14"/>
    <line class="cls-1" x1="57.81" y1="66.95" x2="63.28" y2="66.95"/>
    <line class="cls-1" x1="58.62" y1="70.98" x2="63.24" y2="70.98"/>
    <path class="cls-1" d="m21.28,73.08s16.01,4.08,20.67-1.47"/>
    <path class="cls-1" d="m59.08,73.07s-2.75,12.64,4.82,13.01c8.07.39,6.29-7.31,3.03-7.31-3.03,0-2.8,3.03-2.8,3.03"/>
    <path class="cls-1" d="m65.48,86.09c7.33.13,7.43-5.18,7.3-9.05"/>
    <path class="cls-1" d="m72.6,61.9c9.35.5,16.23,8.49,16.23,8.49"/>
    <line class="cls-1" x1="57.42" y1="17.49" x2="61.92" y2="17.43"/>
    <line class="cls-1" x1="44.57" y1="98.21" x2="44.64" y2="94.17"/>
    <line class="cls-1" x1="48.25" y1="98.47" x2="48.31" y2="94.43"/>
  </g>
  <line class="cls-1" x1="53" y1="43.44" x2="51.63" y2="42.73"/>
  <line class="cls-1" x1="67.33" y1="43.44" x2="68.47" y2="42.73"/>
</svg>