<?xml version="1.0" encoding="UTF-8"?>
<svg id="icons" xmlns="http://www.w3.org/2000/svg" viewBox="0 0 120 120">
  <defs>
    <style>
      .cls-1 {
        fill: none;
        stroke: #000;
        stroke-linecap: round;
        stroke-linejoin: round;
        stroke-width: 3px;
      }
    </style>
  </defs>
  <rect class="cls-1" x="56.18" y="53.6" width="7.42" height="56.62"/>
  <path class="cls-1" d="m60.03,20.23h7.26c3.79,0,5.32,4.17,2.63,7.27l-2.3,3.03-3.36,7.95c-1.15,1.56-7.37,1.68-8.52.12l-3.29-8.07-3.4-4.59c-1.43-1.94-.01-5.71,3.82-5.71h7.17Z"/>
  <polyline class="cls-1" points="54.32 20.23 56.94 10.22 58.91 20.23 60.73 20.23 64.15 10.22 65.46 20.23"/>
  <path class="cls-1" d="m55.73,26.83c-.94,0-1.75-.36-2.19-.89.44-.53,1.25-.89,2.19-.89s1.75.36,2.19.89c-.44.53-1.25.89-2.19.89Z"/>
  <path class="cls-1" d="m64.25,26.83c-.94,0-1.75-.36-2.19-.89.44-.53,1.25-.89,2.19-.89s1.75.36,2.19.89c-.44.53-1.25.89-2.19.89Z"/>
  <line class="cls-1" x1="57.92" y1="33.74" x2="58.39" y2="36.17"/>
  <line class="cls-1" x1="62.25" y1="33.74" x2="61.82" y2="35.77"/>
  <path class="cls-1" d="m56.18,102.02h-11.9l4.38-19.39c-8.76-8.42-4.12-27.1-4.12-27.1,0,0-6.1-10.27.26-22.55.99-1.9,2.31-3.62,3.81-5.14l1.06-1.07"/>
  <path class="cls-1" d="m63.6,102.02h11.3l-4.94-19.76c9.58-12.02,7.15-26.74,7.15-26.74,0,0,3.49-6.37,2.11-15.08-.89-5.62-4.02-10.64-8.51-14.13h0"/>
  <path class="cls-1" d="m60.1,53.6s-4.91-3.98,0-10.25c0,0,5.35,4.58,0,10.25"/>
  <path class="cls-1" d="m100.72,20.46s-4.91-3.98,0-10.25c0,0,5.35,4.58,0,10.25"/>
  <path class="cls-1" d="m34.9,20.46s-4.91-3.98,0-10.25c0,0,5.35,4.58,0,10.25"/>
  <line class="cls-1" x1="70.51" y1="110.22" x2="48.8" y2="110.22"/>
  <path class="cls-1" d="m24.74,20.23v28.17c0,1,.17,1.97.49,2.91,2.01,5.93,10.05,10.36,19.65,10.36h4.79"/>
  <path class="cls-1" d="m53.13,61.67h27.55c9.6,0,17.64-4.43,19.65-10.36.32-.94.49-1.91.49-2.91v-28.17"/>
  <path class="cls-1" d="m35,20.23v25.12c0,3.29-3.16,5.96-7.05,5.96h-5.41c-3.89,0-5.2-2.67-5.2-5.96v-25.12"/>
  <path class="cls-1" d="m24.66,51.31h-7.33c-4.68,0-7.33-2.67-7.33-5.96v-25.12"/>
  <path class="cls-1" d="m110,20.23v25.12c0,3.29-.46,5.96-5.15,5.96h-3.18c-4.68,0-8.48-2.67-8.48-5.96v-25.12"/>
  <path class="cls-1" d="m102.75,51.31h-9.31c-4.1,0-7.43-2.67-7.43-5.96v-25.12"/>
  <line class="cls-1" x1="46.06" y1="94.15" x2="56.18" y2="94.15"/>
  <line class="cls-1" x1="63.6" y1="94.15" x2="72.94" y2="94.15"/>
  <line class="cls-1" x1="50.73" y1="98.08" x2="50.23" y2="102.02"/>
  <line class="cls-1" x1="68.4" y1="98.08" x2="69.14" y2="102.02"/>
  <polygon class="cls-1" points="86.01 14.35 87.95 12.21 87.8 15.1 90.69 14.95 88.54 16.89 90.69 18.82 87.8 18.68 87.95 21.56 86.01 19.42 84.07 21.56 84.22 18.68 81.33 18.82 83.48 16.89 81.33 14.95 84.22 15.1 84.07 12.21 86.01 14.35"/>
  <polygon class="cls-1" points="24.66 14.35 26.6 12.21 26.45 15.1 29.34 14.95 27.19 16.89 29.34 18.82 26.45 18.68 26.6 21.56 24.66 19.42 22.72 21.56 22.87 18.68 19.98 18.82 22.13 16.89 19.98 14.95 22.87 15.1 22.72 12.21 24.66 14.35"/>
  <path class="cls-1" d="m53.97,43.26c.13.76-.06,1.47-.47,2.06-.57.84-.95,1.76-.95,2.72v8.11h-3.82v-7.43c0-1.06-.47-2.08-1.31-2.87-.6-.56-.96-1.31-.96-2.12,0-1.89,1.95-3.39,4.24-3.16,1.66.17,3.03,1.29,3.26,2.69Z"/>
  <polyline class="cls-1" points="48.87 56.15 47.45 61.67 54.01 61.67 52.59 56.15"/>
  <path class="cls-1" d="m73.95,43.26c.13.76-.06,1.47-.47,2.06-.57.84-.95,1.76-.95,2.72v8.11h-3.82v-7.43c0-1.06-.47-2.08-1.31-2.87-.6-.56-.96-1.31-.96-2.12,0-1.89,1.95-3.39,4.24-3.16,1.66.17,3.03,1.29,3.26,2.69Z"/>
  <polyline class="cls-1" points="68.86 56.15 67.43 61.67 73.99 61.67 72.57 56.15"/>
</svg>