<?xml version="1.0" encoding="UTF-8"?>
<svg id="icons" xmlns="http://www.w3.org/2000/svg" viewBox="0 0 120 120">
  <defs>
    <style>
      .cls-1 {
        fill: none;
        stroke: #000;
        stroke-linecap: round;
        stroke-linejoin: round;
        stroke-width: 3px;
      }
    </style>
  </defs>
  <path class="cls-1" d="m74.15,86.68c-6.42,1.06-6.25,10.46-6.25,10.46"/>
  <line class="cls-1" x1="25.88" y1="69.44" x2="28.44" y2="69.44"/>
  <line class="cls-1" x1="33.4" y1="69.44" x2="35.96" y2="69.44"/>
  <path class="cls-1" d="m81.1,95.95s11.56-5.78,13.51-8.22"/>
  <line class="cls-1" x1="41.64" y1="94" x2="58.28" y2="94"/>
  <path class="cls-1" d="m93.37,79.36c14.49,2.05,12.73,14.64,12.73,14.64"/>
  <path class="cls-1" d="m103.97,97.23c-.08-1.41.75-2.67,2.05-3.38,1.38.6,2.35,1.79,2.43,3.2s-.75,2.67-2.05,3.38c-1.38-.6-2.35-1.79-2.43-3.2Z"/>
  <path class="cls-1" d="m22.34,58.08c0,3.21,4.61,5.82,10.29,5.82s10.29-2.6,10.29-5.82"/>
  <path class="cls-1" d="m31.15,83.08s.85.69.85,2.6v.73c-.05,5.34-1.27,10.62-3.52,15.6l-1.41,3.11h-1.97c-1.58,0-3.02.55-4.06,1.43s-1.69,2.1-1.69,3.45h11.79c.41,0,.77-.21.92-.54l6.26-13.81c.45-1,1.58-1.65,2.84-1.65h.49c1.71,0,3,1.2,2.95,2.55v.09c0,1.04.33,7.82.37,8.49h-1.55c-1.58,0-3.02.55-4.06,1.43s-1.67,2.1-1.67,3.45h11.47c.52,0,.97-.29,1.12-.7l.97-11.91c.74-2.02,2.94-3.39,5.43-3.39h10.29c.61,0,1.09.41,1.09.9,0,.09-.02.16-.05.25-.44,1.36-.1,2.82.91,3.95l2.99,3.3c.27.31.42.67.42,1.04s-.14.71-.4,1.01c-.37.43-.97.68-1.61.68h-.29c-1.6,0-3.02.55-4.06,1.43s-1.69,2.1-1.69,3.45h8.85c1.55,0,3-.62,3.92-1.68l1.71-1.97,1.43-1.85c.29-.38.44-.82.44-1.25,0-.47-.18-.95-.52-1.35-.7-.83-.86-1.89-.43-2.84l1.44-3.11c.06-.13.26-.16.37-.06l3.27,3.11c.97.94,2.35,1.5,3.84,1.55l1.96.07c1.81.06,3.45.93,4.3,2.28l1.72,2.75c-.54.24-1.05.55-1.48.91-1.04.88-1.67,2.1-1.67,3.45h8.94v-1.94c0-1.89-.55-3.75-1.62-5.41l-4.03-6.47s-2.21-2.92-2.17-4.31l.09-4.14c0-3.62.38-6.38-1.23-8.37-3.96-4.9-10.38-3.67-10.38-3.67"/>
  <line class="cls-1" x1="77.08" y1="75.25" x2="68.29" y2="75.09"/>
  <path class="cls-1" d="m18.55,73.35c3.79-8.62,9.38-9.45,14.16-9.45,1.88,0,3.7.38,5.33,1.09,1.63.7,3.06,1.73,4.15,3.02.55.64,1.12,1.32,1.69,1.98,2.61,3.07,6.8,4.9,11.27,4.91h3.79s3.54.08,3.54.08"/>
  <ellipse class="cls-1" cx="17.77" cy="79.18" rx="2.14" ry="1.81"/>
  <ellipse class="cls-1" cx="27.33" cy="79.18" rx="2.14" ry="1.81"/>
  <ellipse class="cls-1" cx="22.34" cy="78.96" rx="12.34" ry="5.89"/>
  <path class="cls-1" d="m82.65,20.94v3.56c0,2.7-2.48,5-5.66,5.11h-.2c-3.26,0-5.9-2.23-5.9-4.99v-3.62c1.77-.07,3.27-.98,3.98-2.27.31-.56,1-.89,1.73-.87.06,0,.1,0,.16,0h.02c.16,0,.31,0,.45.05.03,0,.07,0,.1.02.08.02.16.04.24.07.08.03.16.06.23.11.27.14.51.36.67.61.01.02.02.03.03.05.09.15.19.31.31.45.09.11.18.21.27.31.12.12.26.24.4.36.1.09.2.15.31.22.12.09.25.16.38.24.17.1.36.18.55.25.2.08.41.14.61.19.22.06.43.1.65.12.23.03.44.04.67.04Z"/>
  <path class="cls-1" d="m87.27,17.2c-.11,2.04-2.12,3.69-4.52,3.74-1.88.03-3.51-.88-4.27-2.22-.31-.55-.98-.86-1.69-.86,0,0,0,0-.01,0-.06,0-.11,0-.17,0-.73-.02-1.42.31-1.73.87-.71,1.29-2.22,2.2-3.98,2.27-.07,0-.15,0-.22,0-2.56,0-4.63-1.76-4.63-3.93s2.07-3.93,4.63-3.93c.53,0,1.04.08,1.52.22.32-1.9,2.25-3.36,4.58-3.36s4.18,1.4,4.56,3.25c.42-.11.86-.16,1.32-.16,2.63,0,4.75,1.86,4.63,4.12Z"/>
  <path class="cls-1" d="m77.37,56.38c.25.26.41.59.43.94-.01,1.05-.15,6.29-.37,11.52-.1,2.26-.21,4.5-.35,6.41-.17,2.53-.37,4.47-.59,5.04-.05.12-.07.25-.07.37,0,.63.61,1.2,1.41,1.2h10.31c.59,0,.84-.64.36-.93l-5.86-3.56.35-1.68,3.71-17.82s.01-.04.02-.06c.83-3.26.81-6.63.08-9.91l-1.71-8.41c.42,1.65,2.44,8.48,7.7,8.94,5.98.53,9.54-14.72,9.54-14.72l3.02.06c1.82.04,3.45-.97,3.97-2.45l.61-1.78c.29-.82-.57-1.59-1.55-1.41l-6.14,1.17c-.97.18-1.79.72-2.25,1.46l-6.76,10.92-3.26-6.48c-1.78-3.43-4.51-3.34-8.07-3.34l.15-5.18"/>
  <path class="cls-1" d="m71.43,26.71l.14,5.05h0c-5.56-.6-7.42,2.88-7.42,2.88l-7.97,8.7-5.25-9.62c-.68-1.24-1.99-2.15-3.55-2.48l-4.93-1.03c-1.23-.25-2.3.76-1.86,1.77l1.15,2.67c.48,1.1,1.71,1.82,3.08,1.82.89,0,1.72.26,2.39.71.66.44,1.14,1.08,1.34,1.8,1.05,3.92,3.5,11.01,7.34,10.84,5.28-.25,9.49-8.55,9.49-8.55.34.84.61,2.18.61,3.38,0,.75-.1,1.46-.37,1.96-1.4,2.63-3.5,7.82-2.68,14.31.53,4.29-.19,10.31-.46,14.07-.08.97-.11,1.79-.1,2.39l-6.93,3.6c-.49.25-.28.89.29.89h10.73c1.08,0,1.9-.83,1.73-1.73l-.55-3.01.63-2.03,5.56-18c.08-.34.28-.63.55-.86"/>
  <polyline class="cls-1" points="77.37 56.38 81.1 50.44 70.89 50.44 74.4 56.23 77.37 56.38 77.36 56.4"/>
  <path class="cls-1" d="m44.83,36.47c-6.84,27.43,18.23,30.73,18.23,30.73"/>
  <path class="cls-1" d="m47.38,31.23c1.18-4.52,7.34-10.23,7.34-10.23"/>
  <path class="cls-1" d="m99.77,21c2.53,2.72,5,7.84,5,7.84"/>
  <path class="cls-1" d="m106.21,33.72c2.24,33.48-21.42,33.48-21.42,33.48"/>
</svg>