<?xml version="1.0" encoding="UTF-8"?>
<svg id="icons" xmlns="http://www.w3.org/2000/svg" viewBox="0 0 120 120">
  <defs>
    <style>
      .cls-1 {
        fill: none;
        stroke: #000;
        stroke-linecap: round;
        stroke-linejoin: round;
        stroke-width: 3px;
      }
    </style>
  </defs>
  <path class="cls-1" d="m72.55,27.6c-2.9-.53-4.57-2.96-3.93-5.27,1.61-5.87,8.6-8.67,13.35-9.9.74-.19,1.36-.57,1.69-1.09.5-.78,1.51-1.82,3.23-1.42,1.92.44,2.14,1.76,1.84,2.66-.19.57-.11,1.17.28,1.67,1.47,1.84,4.35,6.4,3.25,12.83-.23,1.35-2.09,2.22-3.87,1.79-2.32-.55-5.55-1.2-8.52-1.34-2.75-.13-5.01-.02-6.57.13-.21.02-.47,0-.75-.05Z"/>
  <path class="cls-1" d="m71.9,17.48c-.74,8.03,5.68,6.17,10.63,6.32,8.93.28,9.73,3.28,9.73,3.28"/>
  <path class="cls-1" d="m76.95,14.64c-.59,2.29-2.23,6.83,7.64,5.03,4.4-.8,7.68,3.8,7.68,3.8"/>
  <path class="cls-1" d="m80.98,12.7c-.87,4.35,2.51,2.63,5.3,2.78,5.61.31,5.3,3.4,5.3,3.4"/>
  <polyline class="cls-1" points="72.03 56.29 72.22 44.67 72.29 41.44 72.29 41.44"/>
  <path class="cls-1" d="m80.69,64.89l-.43,2.24c-.19.97-1.33,1.69-2.68,1.69h-3.01c-1.5,0-2.72-.89-2.7-1.99l-.03-2.84"/>
  <path class="cls-1" d="m86.21,30.96s1.41-1.5,3.58-.99c1.89.44,2.05,1.71,1.4,2.95h0c-.31.59-.81,1.17-1.39,1.66-.41.34-.81.6-1.2.8h0c-1.32.7-2.38.7-2.38.7l-.52,2.72-4.1,21.41"/>
  <path class="cls-1" d="m78.1,39.33c-.33-.28-.73-.51-1.21-.68l-3.32-1.18c-.8-.28-1.64-.43-2.49-.43h-2.87c-.45,0-.67-.47-.36-.76.04-.03.07-.07.11-.1l3.26-6.06c.17-1.44.63-2.6.63-2.6"/>
  <path class="cls-1" d="m74.71,32.71c.85-1.07,2.45-1.79,4.27-1.79s3.42.72,4.27,1.79"/>
  <path class="cls-1" d="m91.19,32.92c6.83-.63,8.41,4.12,4.54,6.06-3.87,1.94-8.33-.34-7.13-3.6"/>
  <path class="cls-1" d="m97.36,62.79c-1.14-.84-2.66-1.35-4.27-1.52l-10.04-.92c-.95-.1-1.83-.42-2.51-.92l-1.34-.99c-5.95-3.94-9.78-.89-9.1,2.99.28,1.59,2.17,2.96,4.18,3.06.4.02.8.03,1.18.02h0c2.51-.05,5,.31,7.32,1.07l10.34,3.39c2.03.67,4.24,1.01,6.46,1.01h0c1.98,0,3.57-1.2,3.48-2.64l-.9-15.48c-.17-2.95-2.75-5.53-6.54-6.56l-2.19-.6c-1.53-.42-2.55-1.48-2.55-2.67v-2.62"/>
  <path class="cls-1" d="m57.6,55.21c-1.68-.82-12.68-3.44-12.68-3.44h0c-.71-1.26-2.07-2.26-3.78-2.81l-7.58-2.41c-.8-.26-1.75,0-2.1.59-.83,1.38-1.76,3.88.73,5.75,2.07,1.56,5.56,2.43,8.18,2.89l13.3,5.83h0c4.7,2.28,5.85,1.73,8.19.17,0,0,1.51-1.07,2.54-2.01.3-.28.91-.13.94.22v4.97c-.12,1.16-1.25,2.2-2.84,2.29-6.22.32-17.04,1.99-23.91,5.38-14.1,6.95-9.44,31.48-9.44,31.48h30.86v-20.78c0-1.43,1.6-2.6,3.57-2.6h24.14c4.54,0,8.23-2.68,8.23-5.99v-5.06"/>
  <path class="cls-1" d="m72.23,43.67v-1.07c-6.62,1-9.74,4.49-11.31,7.32l-3.31,5.3"/>
  <path class="cls-1" d="m57.14,104.09v2.16h39.8l-.52-23.93c-.02-.85-.88-1.53-1.94-1.54l-12.17-.06"/>
  <path class="cls-1" d="m57.14,106.25h37.75c2.04,0,3.7,1.66,3.7,3.7h-41.45v-3.7h0Z"/>
  <path class="cls-1" d="m65.67,85.85h22.87c1.61,0,2.92,1.31,2.92,2.92v17.48h-28.71v-17.48c0-1.61,1.31-2.92,2.92-2.92Z"/>
  <path class="cls-1" d="m47.35,104.09v.77c0,.52-.46.97-1.1,1.07l-5.39.83c-2.5.38-4.8,1.38-6.57,2.84l-.17.14c-.19.16-.05.42.22.42h17.85c1.52,0,2.75-.99,2.75-2.2v-3.87"/>
  <line class="cls-1" x1="37.24" y1="107.56" x2="37.24" y2="104.09"/>
  <path class="cls-1" d="m29.65,104.09v.83c0,.49-.43.91-1.03,1l-6.23.96c-2,.31-3.84,1.1-5.25,2.27h0c-.46.38-.12,1.02.54,1.02h16.67"/>
  <line class="cls-1" x1="38.75" y1="48.45" x2="31.27" y2="63.88"/>
  <line class="cls-1" x1="44.48" y1="36.87" x2="38.75" y2="48.45"/>
  <path class="cls-1" d="m38.75,46.55c0-3.95-4-7.16-8.94-7.16s-8.94,3.2-8.94,7.16,4,7.16,8.94,7.16h3.7"/>
  <path class="cls-1" d="m78.1,39.33c4.02-.81,7.59-.54,7.59-.54"/>
  <path class="cls-1" d="m78.1,39.33c.56.48.89,1.11.89,1.76l.28,3.17-4.27-1.85c-2.71-.96-4.97-1.76-4.3-5.37"/>
  <line class="cls-1" x1="77.86" y1="34.83" x2="79.35" y2="34.83"/>
</svg>