<?xml version="1.0" encoding="UTF-8"?>
<svg id="icons" xmlns="http://www.w3.org/2000/svg" viewBox="0 0 120 120">
  <defs>
    <style>
      .cls-1 {
        fill: none;
        stroke: #000;
        stroke-linecap: round;
        stroke-linejoin: round;
        stroke-width: 3px;
      }
    </style>
  </defs>
  <path class="cls-1" d="m86.84,96.8c3.03-2.73-3.21-3.27-.47-6.27,2.75-3-1.7-2.28.99-4.7.63-.3,1.21-.67,1.73-1.11.58.85,1.28,1.49,2.02,2,.63.44,1.29.77,1.96,1.02"/>
  <path class="cls-1" d="m92.36,96.7c.41-.03,3.16-2.22.73-4.48-2.33-2.17,0-4.48,0-4.48,1.22.46,2.47.65,3.53.72,1.7.11,2.97-.11,2.97-.11v8.23"/>
  <path class="cls-1" d="m109.63,78.82v.95c0,1.8-1.7,3.27-3.82,3.27h-2.62c-1.99,0-3.61,1.38-3.61,3.09v2.23s-1.27.22-2.97.11c-1.06-.07-2.31-.26-3.53-.72-.67-.25-1.34-.58-1.96-1.02-.74-.51-1.44-1.16-2.02-2,.57-.47.99-1.05,1.24-1.68.2-.49.31-1.01.31-1.53l-.04-1.74v-.11c0-3.32,3.16-6.04,7.05-6.04.99,0,1.96.22,2.82.65l9.16,4.55Z"/>
  <path class="cls-1" d="m75.28,97l-.07,3.17c-.03,1.45.42,2.86,1.27,4.02l3.49,4.75h-3.78c-1.13,0-2.2-.52-2.75-1.38l-4.28-6.56c-.47.75-1.09,1.43-1.82,2.03l-.62.5c-.81.65-.92,1.84-.24,2.63l2.39,2.78h-4.83l-.6-.51c-1.16-1-1.8-2.34-1.8-3.73v-.85c0-2.07.64-4.09,1.86-5.87l.54-.78v-5.18c0-1.32.61-2.5,1.6-3.4l.35-.27c.97-.75,2.24-1.19,3.64-1.23l13.7-.32c1.43-.04,2.81-.37,4.03-.97-2.69,2.43,1.76,1.7-.99,4.7-2.75,3,3.49,3.55.47,6.27l-11.56.2Z"/>
  <path class="cls-1" d="m93.08,96.8l4.51,9.52c.75,1.59,2.56,2.63,4.56,2.63h2.66l-1.61-1.8c-1.42-1.59-2.37-3.44-2.79-5.4l-1.1-5.14"/>
  <ellipse class="cls-1" cx="75.82" cy="76.09" rx="3.06" ry="2.62"/>
  <ellipse class="cls-1" cx="81.48" cy="74.41" rx="3.06" ry="2.62"/>
  <line class="cls-1" x1="78.87" y1="76.09" x2="81.26" y2="83.04"/>
  <path class="cls-1" d="m73.1,83.2c7.18,0,11.57.56,13.96-3.64"/>
  <polyline class="cls-1" points="64.06 94.62 55.59 101.01 55.59 101.01 55.59 101.01 55.59 96.6 55.59 96.6 65.65 88.63"/>
  <path class="cls-1" d="m97.81,79.81c-.95,0-1.79-.44-2.23-1.1.44-.66,1.28-1.11,2.23-1.11s1.79.45,2.23,1.11c-.44.66-1.28,1.1-2.23,1.1Z"/>
  <path class="cls-1" d="m97.81,79.81c-.95,0-1.79-.44-2.23-1.1.44-.66,1.28-1.11,2.23-1.11s1.79.45,2.23,1.11c-.44.66-1.28,1.1-2.23,1.1Z"/>
  <path class="cls-1" d="m106.08,77.06c-3.12,1.87-2.64,4.82-1.27,5.98"/>
  <path class="cls-1" d="m90.33,83.04c1.83,4.41,9.25,3.43,9.25,3.43v1.88"/>
  <path class="cls-1" d="m86.84,96.8l-3.61,6.06c-.86,1.46-.86,3.19,0,4.64l.07.14c.48.8,1.44,1.31,2.49,1.31h3.1l-1.21-2.02c-.52-.86-.48-1.89.12-2.73l5.28-7.4h-6.24Z"/>
  <path class="cls-1" d="m51.91,85.83v15.29c-1.03-2.92-4.2-5.05-7.94-5.05-1.54,0-3,.36-4.23,1-1.98,1-3.42,2.69-3.9,4.68h-9.73c-.52-2.23-2.27-4.07-4.6-4.99-1.08-.45-2.27-.68-3.53-.68-1.92,0-3.69.56-5.1,1.52v-9.58c0-1.21,1.14-2.18,2.55-2.18h36.48Z"/>
  <path class="cls-1" d="m26.11,101.74c-.52-2.23-2.27-4.07-4.6-4.99-1.08-.45-2.27-.68-3.53-.68-1.92,0-3.69.56-5.1,1.52-1.95,1.28-3.2,3.32-3.2,5.6,0,3.92,3.72,7.11,8.3,7.11s8.3-3.19,8.3-7.11c0-.5-.06-.98-.17-1.44Z"/>
  <path class="cls-1" d="m20.57,103.44c0,.52-.26,1-.72,1.42-1.04.94-2.7.95-3.74,0-.46-.42-.72-.9-.72-1.42,0-.32.1-.63.29-.91.07-.11.14-.21.23-.31,1.05-1.2,3.04-1.19,4.11-.01.1.1.18.21.25.33.19.28.29.59.29.91Z"/>
  <path class="cls-1" d="m46.56,103.44c0,.52-.26,1-.72,1.42-1.04.94-2.7.95-3.74,0-.46-.42-.72-.9-.72-1.42,0-.32.1-.63.29-.91.07-.11.14-.21.23-.31,1.05-1.2,3.04-1.19,4.11-.01.1.1.18.21.25.33.19.28.29.59.29.91Z"/>
  <path class="cls-1" d="m51.91,101.12c-1.03-2.92-4.2-5.05-7.94-5.05-1.54,0-3,.36-4.23,1-1.98,1-3.42,2.69-3.9,4.68-.12.46-.17.95-.17,1.44,0,3.92,3.71,7.11,8.3,7.11s8.3-3.19,8.3-7.11c0-.72-.13-1.42-.36-2.07Z"/>
  <path class="cls-1" d="m51.91,85.83l.99-5.16v-.02s1.44-7.42,1.44-7.42c-6.85-.62-8.98,1.95-9.63,3.35-.12.25-.46.23-.57-.03-2.12-4.92-10.48-2.93-10.48-2.93l1.43,5.5.39,1.52,1.34,5.19,2.46,9.45.47,1.79"/>
  <polyline class="cls-1" points="51.91 98.25 35.48 80.64 52.93 80.64 39.74 97.06"/>
  <line class="cls-1" x1="21.52" y1="85.77" x2="21.52" y2="96.75"/>
  <line class="cls-1" x1="31.72" y1="85.77" x2="31.72" y2="101.74"/>
  <line class="cls-1" x1="12.88" y1="90.76" x2="37.51" y2="90.76"/>
  <path class="cls-1" d="m54.34,73.23c4.76.76,8.25,4.67,8.25,4.67l-10.68,10.46,6.59,5.94"/>
  <line class="cls-1" x1="71.72" y1="68.59" x2="61.74" y2="77.06"/>
  <line class="cls-1" x1="68.48" y1="66.32" x2="58.5" y2="74.79"/>
  <line class="cls-1" x1="63.75" y1="65.19" x2="54.18" y2="73.31"/>
  <path class="cls-1" d="m22.07,63.69h2.9c2.01,0,3.64,1.63,3.64,3.64v2.86c0,.62-.5,1.13-1.13,1.13h-4.06c-1.57,0-2.85-1.28-2.85-2.85v-3.27c0-.82.67-1.49,1.49-1.49Z"/>
  <path class="cls-1" d="m27.53,65.48c-3.58.28-2.91,1.73-2.81,5.83"/>
  <path class="cls-1" d="m21.05,70.07h0c-2.85,0-5.16,3.65-5.16,6.09v9.67"/>
  <path class="cls-1" d="m26.07,71.31h0c2.69,0,4.87,2.72,4.87,5.02v9.44"/>
  <path class="cls-1" d="m17.98,71.54c3.05,8.3,12.96,10.38,12.96,10.38"/>
  <path class="cls-1" d="m28.7,72.82c.85,5.77-9.81,8.38-12.81,7.22"/>
  <line class="cls-1" x1="19.68" y1="80.64" x2="19.68" y2="85.77"/>
  <line class="cls-1" x1="30.94" y1="77.5" x2="34.67" y2="77.5"/>
  <line class="cls-1" x1="30.94" y1="81.93" x2="35.81" y2="81.93"/>
  <path class="cls-1" d="m70.36,94.35c1.75,3.07-1.18,6.66-1.18,6.66"/>
  <line class="cls-1" x1="75.28" y1="97" x2="70.91" y2="97"/>
  <g>
    <path class="cls-1" d="m32.49,55.03H9.68v-21.45c0-4.61,5.1-8.53,12.23-10.04"/>
    <polyline class="cls-1" points="43.79 39.29 43.79 55.03 39.13 55.03"/>
    <path class="cls-1" d="m32.1,22.88c.41,0,.82.01,1.23.03,5.87.36,10.46,3.19,10.46,6.65v4.47h-8.26c-.36.83-.58,1.68-.68,2.57-.05.18-.05.36-.05.54"/>
    <polyline class="cls-1" points="35.43 46.57 39.13 55.03 39.13 55.03 46.42 60.22 33.66 60.22 33.5 56.85 28.44 44.68 25.38 50.79 17.8 44.68"/>
    <path class="cls-1" d="m33.6,22.88s-.1.01-.27.03c-1.04.12-4.9.75-4.9,3.33v.14c.17,3.12,9.91,1.23,7.1,7.66"/>
    <path class="cls-1" d="m28.44,44.68l8.09,4.41s-2.64-3.63-1.73-11.95"/>
    <path class="cls-1" d="m18.35,55.03l-.68-12.82c-.1-1.9.05-3.81.61-5.68.08-.28.17-.56.27-.84.29-.9.65-1.73,1.09-2.47.92-1.55,2.13-2.71,3.77-3.22,3.45-1.06,4.95-2.44,5.03-3.63v-.14c-.05-1.55-2.56-2.79-6.52-2.69"/>
    <path class="cls-1" d="m18.53,35.69c5.57,2.77,8.64,5.61,11.07,3.91,2.31-1.61-1.44-3.95-1.44-3.95l-6.63-3.77"/>
    <line class="cls-1" x1="28.15" y1="35.64" x2="31.55" y2="32.93"/>
    <line class="cls-1" x1="13.91" y1="47" x2="23.58" y2="39.29"/>
    <path class="cls-1" d="m48.99,35.94c0-1.05-1.43-1.9-3.26-1.9h-10.2c-.36.83-.58,1.68-.68,2.57-.05.18-.19,1.99-.19,2.17,0,0,14.33,1.17,14.32-2.84Z"/>
    <polyline class="cls-1" points="15.12 55.03 15.12 55.03 15.12 55.03 22.37 60 9.89 60 9.68 55.03"/>
    <path class="cls-1" d="m30.76,23.54c-1.23-7.23-2.45-10.61,7.84-10.16"/>
    <path class="cls-1" d="m33.33,22.91c2.57-.63,5.27-3.2,5.27-3.2l3.22-.28c.92-.08,1.4-.68.89-1.13l-1.72-1.08h0c-.64-.41-1.04-.92-1.14-1.46-.61-3.12-4.75-5.54-9.77-5.54-2.99,0-5.67.86-7.48,2.21-2.11,1.58-2.6,3.68-1.62,5.58l1.18,2.3c.53,3.09-2.84,3.92-2.84,3.92"/>
    <line class="cls-1" x1="34.74" y1="16.55" x2="35.71" y2="16.55"/>
    <line class="cls-1" x1="24.13" y1="26.84" x2="33.24" y2="26.49"/>
    <polygon class="cls-1" points="109.63 44.6 109.63 60.22 86.63 60.22 86.63 45.08 103.32 44.73 107.91 44.64 109.63 44.6"/>
    <line class="cls-1" x1="91.14" y1="44.99" x2="91.14" y2="60"/>
    <line class="cls-1" x1="105.46" y1="45.08" x2="105.46" y2="59.78"/>
    <line class="cls-1" x1="101.06" y1="45.08" x2="101.06" y2="59.78"/>
    <line class="cls-1" x1="96.32" y1="45.08" x2="96.32" y2="59.78"/>
    <path class="cls-1" d="m78.65,31.87c-11.83,1.5-16.43,8.07-16.6,21.62,0,0,.64.2,1.83.47.81.2,1.88.41,3.17.61.88.14,1.86.27,2.95.39.31.04.64.07.97.1,1.79.16,3.83.26,6.07.24.98-.01,2.02-.04,3.09-.1.36-.01.72-.04,1.09-.07.64-.04,1.28-.1,1.93-.17,1.14-.11,2.29-.26,3.5-.44"/>
    <polyline class="cls-1" points="81.21 55.13 81.21 55.13 74.34 59.78 85.94 59.78"/>
    <polyline class="cls-1" points="67.02 54.67 67.02 54.67 59.37 59.78 70.96 59.78 70.96 54.87"/>
    <line class="cls-1" x1="66.43" y1="47.6" x2="65.66" y2="54.04"/>
    <line class="cls-1" x1="70.04" y1="48.23" x2="70.04" y2="54.74"/>
    <line class="cls-1" x1="74.14" y1="48.6" x2="74.56" y2="55.17"/>
    <line class="cls-1" x1="78.65" y1="48.57" x2="79.13" y2="55.13"/>
    <line class="cls-1" x1="82.97" y1="48.39" x2="83.13" y2="54.97"/>
    <path class="cls-1" d="m104.17,40.45h0c-.21-.04-.41-.09-.6-.17l-10.97-5.19c-.72-.34-1.14-.97-1.14-1.63,0-.24.05-.49.17-.73.53-1.07,2.14-1.47,3.31-.83l6.19,2.8c.31.16.71-.01.76-.31l.41-2.96"/>
    <path class="cls-1" d="m76.13,29.49c-.13-.1-.3-.26-.49-.46-1.16-1.24-.59-3.38,1.08-3.7.08-.01.15-.02.21-.02.55,0,1.09.17,1.53.51l3.91,2.59c.71.56,1.88.27,2.1-.51l1.1-1.61c.69-1,1.66-1.79,2.78-2.24h0c.48-.19.99-.29,1.5-.29h1.46c.74,0,1.35-.5,1.35-1.11v-1.24h-.31c-.97,0-1.76-.66-1.76-1.47v-2.34l-1.95-.39c-.33-.07-.45-.4-.24-.61l2.45-2.47v.04c.79-2.29,3.33-3.94,6.33-3.94,1.69,0,3.24.57,4.35,1.49,1.1.93,1.79,2.19,1.79,3.6v1.1c-.65,2.13-1.81,2.25-2.78,3.12v3.6c0,.53.43.99,1.03,1.16,1.67.43,6.02,1.82,6,4.68l.03,1.31v.09l-.57,8.55c-.31,1.1-1.6,1.74-2.88,1.54,1.29,2.73-.84,4.27-.84,4.27l-16.69.36c-.16-.17-.33-.35-.48-.53-2.89-3.27-2.6-8.31.78-11.08.04-.04.09-.07.13-.11-1.48,1.14-3.86,1.24-5.52.06l-5.41-3.93Z"/>
    <path class="cls-1" d="m87.06,33.37c.38-.29.69-.63.93-1.04l1.67-2.87"/>
    <line class="cls-1" x1="104.17" y1="40.45" x2="104.17" y2="40.44"/>
    <line class="cls-1" x1="90.18" y1="40.45" x2="92.28" y2="40.45"/>
    <line class="cls-1" x1="92.67" y1="21.4" x2="95.36" y2="21.4"/>
    <path class="cls-1" d="m96.65,15.72c-.5,0-.94-.22-1.17-.56.23-.34.67-.57,1.17-.57s.94.23,1.18.57c-.23.34-.67.56-1.18.56Z"/>
  </g>
</svg>