<?xml version="1.0" encoding="UTF-8"?>
<svg id="icons" xmlns="http://www.w3.org/2000/svg" viewBox="0 0 120 120">
  <defs>
    <style>
      .cls-1 {
        fill: none;
        stroke: #000;
        stroke-linecap: round;
        stroke-linejoin: round;
        stroke-width: 3px;
      }
    </style>
  </defs>
  <path class="cls-1" d="m89.16,52.93h-11.15c-1.5,0-2.71-1.07-2.71-2.39h0c0-.26.05-.52.12-.76.49-1.64,2.08-2.7,3.79-2.7h7.91"/>
  <path class="cls-1" d="m85.47,96.64l-6.98,5.98-.19.23c-.26.31,0,.75.44.75h11.06c1.08.01,1.88-.87,1.65-1.8l-.15-5.55"/>
  <path class="cls-1" d="m68.85,95.28s-1.04,1.36-8.02,7.34l-.19.23c-.26.31,0,.75.44.75h11.06c1.08.01,1.88-.87,1.65-1.8l-.15-5.55"/>
  <line class="cls-1" x1="74.49" y1="36.16" x2="78.88" y2="36.16"/>
  <path class="cls-1" d="m78.2,47.07c.2-2.56-1.55-5.78-3.06-7.1"/>
  <path class="cls-1" d="m76.25,52.35h0l-7.4,36.93s10.96,3.45,23.89.68"/>
  <path class="cls-1" d="m70.38,42.23c7.11,4.87-.68,14.07-.68,14.07"/>
  <path class="cls-1" d="m73.55,27.54v-.96c0-1.51,1.89-2.52,3.55-1.89l10,3.82c1.83.69,2.59,2.49,1.68,3.97l-.31.5-14.92-5.44Z"/>
  <path class="cls-1" d="m77.1,24.69c8.52-4.81,10.28,0,10,3.82"/>
  <path class="cls-1" d="m31.55,62.51c3.16,4.77,3.45,9.44,2.5,13.59h0c-.32,1.37-.63,2.68-.85,3.89-.67,3.84-1.09,7.72-1.19,11.61-.01.5.04,1.24.12,1.98.17,1.68.96,3.24,2.21,4.38h0s.5.23.5.23c2.76,1.24,2.72,4.01,2.72,4.01h0c.14.3-.16.61-.51.54l-9.84-1.7c-.81-.17-1.24-.96-.87-1.62l.15-.49c.42-1.4.58-2.87.45-4.33l-1.83-21.08c-.15-1.36-.34-2.57-.55-3.79-.88-5.02-1.31-10.64-2.1-16.81-.9-7.05,4.26-9.21,4.26-9.21,0,0-1.62-7.52-1.5-7.12l-.44-1.71"/>
  <path class="cls-1" d="m35.04,30.41l2.92,3.57c.22.27.06.66-.31.73l-1.65.33"/>
  <path class="cls-1" d="m34.05,76.1l2.44,5.48c.39.87-.37,2.28-.44,3.22h0c-.08,1.08.15,2.15.67,3.13l4.43,8.79c.72,1.09.83,2.41.32,3.59l-.07.17c-.33.76.24,1.6,1.15,1.7l12.3.53c.33.04.56-.28.39-.53l-.33-1.05c-.27-.85-.89-1.54-1.7-1.91h0s-1.73-.73-1.73-.73c-2.28-.96-4.63-1.21-5.36-3.34l-2.77-11.1c-.17-.42-.26-.87-.2-1.31.11-.9-.11-1.55-.39-1.98-.39-.6-.57-1.29-.47-1.97.28-2.01-.25-5.63-2.63-10.52-.89-1.83-1.33-3.85-1.3-5.89l.04-3.24"/>
  <path class="cls-1" d="m33.78,44.3l3.86,7.56s-3.15-1.74-5.99-3.63c-4.2-2.8-7.15,1.49-3.19,4.53,3.02,2.32,9.9,6.38,9.9,6.38l.9-.4c.56-.25.32.35.56-.25l5.63-10.15h0l3.07-2.16c1.59-.6,1.35-1.91,1.35-1.91-.05-.08-.1-.16-.16-.25-.08-.12-.17-.23-.26-.33"/>
  <path class="cls-1" d="m35.99,35.04l.74,3.58c.04.18,0,.35-.07.5,0,0,0,0,0,.01-.07.13-.16.24-.28.32,0,0,0,0,0,0-.24.17-.58.24-.92.15l-3.28.31,1.61,4.39,3.13-.08,5.86-.14c.6-.58,1.33-1.04,2.16-1.36.51-.19,1.03-.28,1.56-.28,1.14,0,2.26.43,2.97,1.24h3.8s-4.32-9.31-9.74-9.49c-3.52-.11-6.85,4.91-6.85,4.91,0,0,0,0,0,.01-.07.13-.16.24-.28.32,0,0,0,0,0,0"/>
  <path class="cls-1" d="m23.48,31.41c-.59-5.81,4.25-6.34,5.67-6.34,2.09,0,3.31.82,4.06,1.37.75.55,1.28,1.32,1.47,2.22l.36,1.75"/>
  <path class="cls-1" d="m29.66,32.55c-.78,0-1.46-.37-1.82-.93.36-.55,1.04-.93,1.82-.93s1.46.37,1.82.93c-.36.55-1.04.93-1.82.93Z"/>
  <path class="cls-1" d="m24.77,34.89c-6.33,7.4-10.14-5.5-1.29-3.48l1.29,3.48Z"/>
  <path class="cls-1" d="m38.36,59.14h0c1.45,5.13,6.12,5.02,6.12,5.02,0,0-.23,0,0,0h0s.26,0,.26,0c0,0,2.1,0,3.85-4.16l4.66-16.32"/>
  <line class="cls-1" x1="51.46" y1="43.68" x2="51.46" y2="43.68"/>
  <polyline class="cls-1" points="37.64 51.86 37.64 51.86 33.78 44.3 36.92 44.22 42.77 44.08 37.64 51.86 37.64 51.86 37.64 51.86"/>
  <line class="cls-1" x1="42.78" y1="44.08" x2="42.77" y2="44.08"/>
  <path class="cls-1" d="m36.66,39.12c-.1.11-.19.22-.28.32-1.36,1.94-2.6,4.85-2.6,4.85"/>
  <line class="cls-1" x1="41.55" y1="39.35" x2="40.98" y2="40.23"/>
  <line class="cls-1" x1="44.56" y1="37.94" x2="45.46" y2="38.75"/>
  <path class="cls-1" d="m84.16,31.42v1.51c0,.56.54,1.02,1.08.87,2.25-.66,2.69,2.91-1.19,3l-.28,1.23c-.27,1.16.3,2.36,1.38,2.86.27.12.55.27.86.44l1.33.48c2.89,1.04,4.81,3.79,4.79,6.86v.56c-.16,2.2-.77,3.71-2.96,3.71h-2.06l6.54,43.01c-12.86,1.44-30.23-1.42-30.81-1.41l6.86-38.23-1.09.72c-1.87,1.24-4.58.36-5.08-1.66l-2.66-11.07h0c-2.17.05-3.69-2.07-2.79-4.95.62-1.99,4.49-1.79,4.49-1.79v-.73c.15-3.38,2.69-2.64,2.69-2.64l.27,8.49c0,.53-.03-.53,0,0h0c.05.77,2.27,7.99,2.27,7.99h0l1.76-6.51c.18-.65.67-1.62,1.12-2.13,1.31-1.51,2.27-2.04,4.47-2.05h0l-1.59-5.62h-2.29c-.75,0-1.18-.7-.73-1.2l3.02-3.37v-2.24"/>
  <path class="cls-1" d="m108.03,24.82l-12.19,77.57c-1.02,6.47-7.23,11.28-14.56,11.28h-43.89c-7.5,0-13.79-5.02-14.61-11.66L13.07,23.54c0-.08-.01-.15-.02-.23,11.61-3.09,54.46-12.65,94.98,1.51Z"/>
  <path class="cls-1" d="m108.79,21.25s-.57-.18,0,0c.48.15.83.51.93.96l.26,1.21c.21.98-.88,1.77-1.92,1.41,0,0-.02,0-.02,0-40.52-14.16-83.37-4.6-94.98-1.51-.21.06-.41.11-.59.16-1.22.33-2.46-.48-2.46-1.62h0c0-.78.6-1.46,1.46-1.65h0c5-1.82,10.14-3.27,15.38-4.2,22.6-4.01,61.09-3.36,81.95,5.25,0,0-.08-.02,0,0"/>
</svg>