<?xml version="1.0" encoding="UTF-8"?>
<svg id="Livello_3" data-name="Livello 3" xmlns="http://www.w3.org/2000/svg" viewBox="0 0 120 120">
  <path d="m110,57.39h-11.63c.16-.21.33-.43.51-.61l7.72-9.27c.99-1.19,1.07-3.07.17-4.35l-3.5-5.03-3.46-5.09c-.51-.76-1.31-1.25-2.18-1.33-.85-.08-1.7.24-2.32.87l-10.73,10.87c-.64.65-.82,1.61-.46,2.46.34.82,1.13,1.34,2,1.34h6.28l-1.44,1.74-1.65,2.08-.11.15c-1.07,1.63-1.76,3.34-2.07,5.05-.31-.62-.74-1.18-1.28-1.64l-12.87-9.26,16.25-19.53c.99-1.19,1.07-3.06.17-4.35l-3.5-5.03-3.46-5.09c-.51-.77-1.31-1.25-2.18-1.33-.86-.08-1.7.24-2.32.87l-10.73,10.87c-.64.65-.82,1.61-.47,2.46.34.82,1.13,1.35,2,1.35h6.28l-15.01,18.04-15.02-18.05h6.28c.87,0,1.66-.53,2-1.35.35-.85.17-1.81-.47-2.46l-10.73-10.87c-.62-.63-1.47-.95-2.32-.87-.87.08-1.66.57-2.18,1.33l-2.08,3.1-4.88,7.02c-.9,1.29-.82,3.16.17,4.35l16.25,19.53-12.73,9.15-.14.11c-.54.46-.97,1.02-1.28,1.64-.31-1.71-1-3.42-2.07-5.05l-1.79-2.26-1.42-1.7h6.28c.87,0,1.66-.53,2-1.35.35-.85.17-1.81-.47-2.46l-10.73-10.87c-.62-.63-1.47-.95-2.32-.87-.87.08-1.67.57-2.18,1.33l-2.08,3.11-4.88,7.01c-.9,1.29-.82,3.16.17,4.35l7.62,9.16.1.11c.18.18.36.41.52.62h-11.64v4h9.79l-6.39,7.66c-.99,1.19-1.07,3.06-.17,4.35l3.5,5.03,3.46,5.09c.51.77,1.31,1.25,2.18,1.33.09,0,.18.01.26.01.76,0,1.5-.31,2.06-.88l10.73-10.87c.64-.65.82-1.61.47-2.46-.34-.82-1.13-1.35-2-1.35h-6.48l2.25-2.99,1.95-2.68.15-.24c.35-.66.61-1.33.82-2.01h.45c.25.42.55.82.9,1.17l1.42,1.37,11.71,10.68-16.29,19.57c-.99,1.19-1.07,3.06-.17,4.35l3.5,5.03,3.46,5.09c.51.76,1.3,1.25,2.17,1.33.09,0,.18.01.26.01.76,0,1.5-.31,2.06-.88l10.74-10.88c.64-.65.82-1.61.46-2.46-.34-.82-1.12-1.34-2-1.34h-6.28l15.01-18.04,15.02,18.05h-6.28c-.87,0-1.65.53-2,1.34-.35.85-.17,1.81.47,2.46l10.73,10.87c.56.57,1.3.88,2.06.88.09,0,.17,0,.26-.01.87-.08,1.66-.57,2.17-1.33l2.09-3.12,4.87-7c.89-1.29.82-3.15-.17-4.35l-16.29-19.57,11.75-10.72,1.38-1.33c.36-.35.66-.75.91-1.17h.45c.21.68.47,1.36.82,2.02l4.35,5.91h-6.48c-.87,0-1.66.53-2,1.34-.35.85-.17,1.81.47,2.46l10.73,10.87c.56.57,1.3.88,2.06.88.09,0,.17,0,.26-.01.87-.08,1.67-.57,2.18-1.33l2.09-3.11,4.87-7c.9-1.29.82-3.16-.17-4.35l-6.38-7.67h9.78v-4Zm-12.12-12.78c-.4-.84-1.2-1.37-2.11-1.37h-5.38l6.81-6.9,2.73,4.07,1.52,2.19.03-.04,1.83,2.62-7.37,8.85c-.59.62-1.66,1.91-1.95,3.34h-3c.16-1.29.66-2.64,1.49-3.92l1.56-1.97,3.5-4.2c.62-.74.75-1.8.34-2.69Zm-17.71-18.99c.62-.74.75-1.8.33-2.69-.4-.84-1.2-1.37-2.11-1.37h-5.37l6.81-6.9,2.73,4.07,1.52,2.19.03-.04,1.83,2.62-16.35,19.65c-.63.76-.91,1.78-.77,2.81.14.98.65,1.83,1.37,2.32l12.67,9.1h-6.5c-.37-.72-1.01-1.24-1.65-1.68l-12.52-8.49,17.98-21.61Zm-20.16,43.68l-8.99-7.91h17.97l-8.99,7.91Zm-10.07-11.91l10.06-6.82,10.06,6.82h-20.11Zm-.18-9.08c.76-.52,1.27-1.37,1.41-2.35.15-1.03-.13-2.05-.77-2.81l-16.35-19.65,1.84-2.64.06.07,4.21-6.28,6.81,6.9h-5.37c-.91,0-1.72.52-2.11,1.37-.42.89-.29,1.95.33,2.69l17.98,21.61-12.52,8.49c-.64.43-1.29.96-1.66,1.68h-6.51l12.63-9.08Zm-25.71,5.73l-7.37-8.85,1.83-2.62.06.07,4.22-6.3,6.81,6.9h-5.37c-.91,0-1.72.52-2.11,1.37-.42.89-.29,1.95.33,2.69l3.47,4.17,1.59,2c.82,1.28,1.33,2.64,1.49,3.93h-3c-.29-1.43-1.36-2.73-1.95-3.35Zm4.23,7.37l-5.87,7.9c-.58.74-.7,1.77-.29,2.64.4.84,1.2,1.37,2.11,1.37h5.37l-6.81,6.9-2.73-4.07-1.52-2.19-.03.04-1.83-2.62,7.6-9.13c.29-.28.52-.56.72-.84h3.28s0,.02,0,.02Zm11.54,32.98c-.62.74-.75,1.8-.33,2.68.39.84,1.2,1.36,2.11,1.36h5.38l-6.81,6.9-2.73-4.07-1.51-2.17-.03.04-1.84-2.64,16.35-19.65c.63-.76.91-1.78.77-2.81-.13-.91-.59-1.72-1.27-2.24l-11.4-10.4h6.46s.03.02.04.04l12.84,11.3-18.03,21.67Zm30.27-22.59c-.68.52-1.14,1.33-1.27,2.24-.15,1.03.13,2.05.77,2.81l16.35,19.65-1.84,2.64-.06-.07-4.21,6.28-6.81-6.9h5.38c.91,0,1.71-.52,2.11-1.36.42-.89.29-1.94-.33-2.68l-18.03-21.67,12.75-11.22.09-.08s.03-.03.05-.05h6.46l-11.41,10.41Zm25.62-9.56l7.6,9.13-1.83,2.62-.06-.07-4.22,6.3-6.81-6.9h5.38c.91,0,1.72-.52,2.11-1.37.41-.87.29-1.89-.29-2.64l-4.04-5.38-1.84-2.52s0-.02-.01-.03h3.28c.21.28.44.56.73.85Z"/>
</svg>