<?xml version="1.0" encoding="UTF-8"?>
<svg id="Livello_3" data-name="Livello 3" xmlns="http://www.w3.org/2000/svg" viewBox="0 0 120 120">
  <path d="m61.84,93.26l3.22-4.79h.96v-33.45c0-.53-.16-1.04-.45-1.49l-3.72-5.54c-.49-.74-1.32-1.17-2.2-1.17s-1.71.44-2.2,1.17l-3.73,5.54c-.3.44-.45.95-.45,1.49v31.45l.02,2.01h.94l3.23,4.79c.49.74,1.32,1.17,2.2,1.17s1.71-.44,2.2-1.18Zm-4.58-7.44v-30.39l2.37-3.53,2.37,3.53v30.39l-2.37,3.53-2.37-3.53Z"/>
  <path d="m49.91,21.04l-2.47-3.16-2.19,1.71-2.95-2.23,4.09-2.65,8.81,5.15-12.55,8.61h34.54l-14.17-8.73,8.61-5.03,4.09,2.65-2.95,2.23-2.19-1.71-2.47,3.16,4.62,3.6,9.98-7.54-10.97-7.11-12.6,7.36-.16-.1-.13.09-12.58-7.35-10.97,7.11,9.99,7.54,4.62-3.6Zm5.69,3.41l3.51-2.41,3.91,2.41h-7.42Z"/>
  <path d="m93.77,107.77l-21.95-16.26,18.36-6.72v-8l-5.81-3.12-6.63,3.33v4.71h4.01v-2.23l2.56-1.29,1.85.99v2.79l-14.84,5.43v-10.88l18.85-6.9v-8l-5.81-3.12-6.63,3.34v4.7h4.01v-2.23l2.56-1.29,1.85.99v2.79l-14.84,5.43v-10.37l18.85-6.9v-8l-5.81-3.12-6.63,3.34v4.7h4.01v-2.23l2.56-1.29,1.85.99v2.79l-14.84,5.43v-9.34l-9.69-8.84v-5.36s14.9,0,14.9,0l2.93,1.93-.09,3.61-1.83.96-1.55-1.28v-1.97h-4.01v3.86l5.07,4.17,6.29-3.28.21-8.2-5.79-3.82h-36.25l-5.79,3.82.21,8.2,6.29,3.28,5.07-4.17v-3.86h-4.01v1.97l-1.55,1.28-1.83-.96-.09-3.61,2.93-1.93h14.92v5.35s-9.71,8.85-9.71,8.85v9.5l-15.27-5.58v-2.79l1.85-.99,2.56,1.29v2.23h4.01v-4.7l-6.63-3.34-5.81,3.12v8l19.28,7.05v10.37l-15.27-5.59v-2.79l1.85-.99,2.56,1.29v2.23h4.01v-4.7l-6.63-3.34-5.81,3.12v8l19.28,7.05v10.88l-15.27-5.59v-2.79l1.85-.99,2.56,1.29v2.23h4.01v-4.71l-6.63-3.33-5.81,3.12v8l18.71,6.84-21.1,16.11h4.05v2.26h4.27v-2.26h2.64v2.26h4.27v-2.26h2.85v2.26h4.27v-2.25h2.59v2.25h4.27v-2.25h2.72v2.25h4.26v-2.25h2.67v2.25h4.26v-2.24h2.41v2.24h4.23v-2.24h2.67v2.24h4.25v-2.24h2.18v2.2h4.23v-2.2h4.44Zm-41.84-57.72l7.7-7.01,7.69,7.01v41.18l-7.69,7.01-7.7-7.01v-41.18Zm-2.08,44.72l9.78,8.91,9.8-8.94,12.18,9.02-43.5-.02,11.75-8.97Z"/>
</svg>