<?xml version="1.0" encoding="UTF-8"?>
<svg id="Livello_3" data-name="Livello 3" xmlns="http://www.w3.org/2000/svg" viewBox="0 0 120 120">
  <path d="m105.65,73.52h-38.89v-27.04h38.89l-2.39-1.53,6.74-4.08-2.07-3.42-8.42,5.1-1.09-.7,7.28-4.68-2.16-3.36-8.82,5.67-1.86-1.19,7.75-4.99-2.16-3.36-9.29,5.98-2.03-1.3,7.88-5.07-2.16-3.36-9.42,6.06-2.24-1.43,8.65-5.4-2.12-3.39-10.25,6.4-1.94-1.24,8.78-5.65-2.16-3.36-10.32,6.64-2.1-1.35,8.98-5.78-2.16-3.36-10.52,6.77-2.34-1.5,9.31-6.22-2.22-3.33-10.76,7.19-11.14-7.2-2.17,3.36,9.64,6.23-2.49,1.6-10.72-6.9-2.16,3.36,9.18,5.91-2.1,1.35-10.51-6.76-2.16,3.36,8.97,5.77-1.93,1.24-10.45-6.52-2.12,3.39,8.84,5.52-2.24,1.44-9.61-6.19-2.16,3.36,8.08,5.2-2.03,1.3-9.48-6.1-2.16,3.36,7.95,5.11-1.86,1.19-9.01-5.8-2.16,3.36,7.47,4.81-.92.59-8.45-5.11-2.07,3.42,6.77,4.1-2.36,1.52h38.45v27.04H14.4l2.36,1.52-6.77,4.1,2.07,3.42,8.45-5.11.92.59-7.47,4.81,2.16,3.36,9.01-5.8,1.86,1.19-7.95,5.11,2.16,3.36,9.48-6.1,2.03,1.3-8.08,5.2,2.16,3.36,9.61-6.19,2.24,1.44-8.84,5.52,2.12,3.39,10.45-6.52,1.93,1.24-8.97,5.77,2.16,3.36,10.51-6.76,2.1,1.35-9.18,5.91,2.16,3.36,10.72-6.9,2.49,1.6-9.64,6.23,2.17,3.36,11.14-7.2,10.76,7.19,2.22-3.33-9.31-6.22,2.34-1.5,10.52,6.77,2.16-3.36-8.98-5.78,2.1-1.35,10.32,6.64,2.16-3.36-8.78-5.65,1.94-1.24,10.25,6.4,2.12-3.39-8.65-5.4,2.24-1.43,9.42,6.06,2.16-3.36-7.88-5.07,2.03-1.3,9.29,5.98,2.16-3.36-7.75-4.99,1.86-1.19,8.82,5.67,2.16-3.36-7.28-4.68,1.09-.7,8.42,5.1,2.07-3.42-6.74-4.08,2.39-1.53Zm-48.79,4v-35.04h-28.81l31.98-20.51,31.98,20.51h-29.25v35.04h29.25l-31.98,20.51-31.98-20.51h28.81Z"/>
</svg>