<?xml version="1.0" encoding="UTF-8"?>
<svg id="Livello_3" data-name="Livello 3" xmlns="http://www.w3.org/2000/svg" viewBox="0 0 120 120">
  <path d="m46.28,38.7h27.23l-13.61-10.99-13.61,10.99Zm11.32-4l2.29-1.85,2.29,1.85h-4.58Z"/>
  <path d="m77.59,81.46l-17.17,14.03-15.27-12.32,48.18-46.62L59.89,10l-35.89,28.71,18.81-.02,17.14-14.19,16.04,12.35-49.4,46.75,33.87,26.39,35.56-28.54h-18.41Zm-17.18,23.44l-27.7-21.59,49.42-46.77-22.28-17.16-18.49,15.31h-5.94s24.48-19.57,24.48-19.57l27.37,21.73-48.16,46.6,21.32,17.2,18.58-15.18h5.61l-24.22,19.44Z"/>
  <path d="m74.35,81.46h-27.22l13.61,10.99,13.61-10.99Zm-11.32,4l-2.29,1.85-2.29-1.85h4.59Z"/>
</svg>