<?xml version="1.0" encoding="UTF-8"?>
<svg id="Livello_3" data-name="Livello 3" xmlns="http://www.w3.org/2000/svg" viewBox="0 0 120 120">
  <path d="m79.49,10h-34.78L10,32.12v15l6.67,5.38c1.21,3.45,4.61,5.81,8.52,5.81.48,0,.95-.05,1.42-.12l.11,1.36,3.99-.31-.2-2.59c.1-.07.2-.13.29-.21l2.37,1.3,1.93-3.51-1.71-.94c.51-1.06.8-2.24.8-3.48,0-2.25-.94-4.29-2.45-5.81l1.77-1.56-2.64-3-2.69,2.37c-.32-.11-.66-.2-1-.27l-1.27-3.14-3.71,1.49.69,1.72c-.27.07-.54.15-.81.24l-.54-.44v-2.77l18.19-11.6,6.04,14.74h18.83l-3.31-8.13h4.14l4.13,10.85h6.65v-4h-3.89l-2.8-7.36h1.33l15.05,15.22v9.14h4v-10.78l-17.38-17.57h-4.52l-.6-1.58h5.68s19.78,19.35,19.78,19.35v13.1h4v-14.78l-22.15-21.68-8.83.02-.68-1.78h9.79l23.48,22.08v20.55h11.54v-25.71l-30.51-28.69Zm-31.03,27.79l-5.3-12.92,4.86-3.1h4.12l6.52,16.02h-10.2Zm15.45-8.13h-4.25l-3.21-7.88h4.46l3,7.88Zm42.09,30.75h-3.54v-18.28l-25.89-24.35h-29.72l-29.31,18.68v6.88l3.99,3.22,1.16-.61c.76-.4,1.63-.61,2.5-.61,2.75,0,4.99,2.02,4.99,4.49s-2.24,4.49-4.99,4.49c-2.33,0-4.33-1.43-4.85-3.48l-.17-.64-6.17-4.98v-10.89l31.88-20.32h32.03l28.1,26.42v19.98Z"/>
  <path d="m100.36,77.32l-5.38-2.95.74-1.06-3.12-2.19-.98,1.4-1.11-.61.51-.91-3.32-1.87-.53.95-.82-.45.42-.75-3.32-1.87-.44.78-1.57-.86-4.56,7.81-1.96-1.65,3.01-4-3.05-2.29-2.88,3.84-1.9-1.59,2.34-2.94-2.98-2.38-2.28,2.86-.29-.25v-5.76s.64-1.07.64-1.07h11.56l-1.76,4.74,3.58,1.33,3.67-9.88h-17.67v-3.12s-3.31-8.79-3.31-8.79h-27.77v9.18h18.84v1.44l-.86-.4h-14.38v3.81h13.53l1.7.79v2.72l-13.77-.02,5.54,10.94h3.34v-3.81h-.99l-1.68-3.31h7.56v3.84l-5.92,6.74,7.48,11.83h17.03l1.7-1.55,5.94,2.74-2.27,1.16-31.58-2.66-2.88-5.1-5.62-14.73h-6.56s-21.97,0-21.97,0v3.81h16.93l.72,1.53H10v3.81h19.46l.76,1.61H10v3.81h22.02l1.15,2.44-1.38-1.16h-12.59s0,3.17,0,3.17l-3.53-2.69h-5.3v6.14h3.81v-2.32h.19l4.82,3.67v.69h-6.93l-1.59,2.41,3.18,2.1.46-.69h4.87v1.59l-5.76,2.38,1.45,3.53,4.3-1.78v3.4h11.35v-8.15l2.55,2.14,5.01-.3-.61.87v7.26h7.46l-.69.89,3.16,2.45,1.6-2.07,1.59,2.06,3.17-2.44-.69-.89h4.26l-.67,1,3.32,2.23,1.22-1.81,1.46,1.91,3.18-2.43-3.75-4.9h-20.61v-2l1.71-2.44,2.62-.16,30.7,2.59v1.28l-.38.39-6.44,1.06-1.83,2.94,3.39,2.12.79-1.27-.18,2.22,3.99.33.12-1.46,3.05-3.17,3.21,1.26,1.46-3.72-3.18-1.25v-.38l.53.04,20.58-12.64-1.15-1.59,4.98-.54,2.17-7.92-7.58-.55.3-.47Zm2.37,4.49l-.26.94-8.93.97,2.59,3.58-16,9.83-34.11-2.88h-.14s-11.49.67-11.49.67l-7.65-6.42v12.51h-3.73v-13.95h7.39s5.38,4.51,5.38,4.51l5.43-.32-3.61-6.4-6.45-13.65h4.75s4.73,12.41,4.73,12.41l3.58,6.38.67,1.04,1.05-.07,33.44,2.82,10.21-5.23-15.35-7.09-2.48,2.27h-13.45l-4.83-7.64,4.99-5.68v-21.27h-18.84v-1.55h21.31l2.13,5.67-.02,14.85,14.76,12.39.45-.86.12.06,4.46-7.65,12.08,6.62-1.52,2.35,9.33.77Z"/>
</svg>