<?xml version="1.0" encoding="UTF-8"?>
<svg id="Livello_3" data-name="Livello 3" xmlns="http://www.w3.org/2000/svg" viewBox="0 0 120 120">
  <path d="m102.61,67.9c-.31.27-.63.32-.85.32-.34-.01-.66-.17-.97-.51l-3.86-3.98,3.47-3.75-3.19-3.44,4.56-4.71c.25-.28.57-.44.91-.45.22-.01.54.04.85.32l3.35,4.17,3.12-2.5-3.43-4.28-.16-.17c-1.05-1.03-2.42-1.58-3.85-1.53-1.44.05-2.78.68-3.71,1.73l-4.35,4.49-5.51-5.94,4.54-4.69c.25-.28.57-.44.91-.45.22,0,.54.04.85.32l3.35,4.17,3.12-2.5-3.43-4.28-.16-.17c-1.05-1.03-2.43-1.57-3.85-1.53-1.44.05-2.78.68-3.71,1.73l-4.34,4.48-6.46-6.97,4.57-4.72c.25-.28.57-.44.91-.45.22,0,.54.04.85.32l3.35,4.17,3.12-2.5-3.43-4.28-.16-.17c-1.05-1.03-2.41-1.57-3.86-1.53-1.44.05-2.78.68-3.71,1.73l-4.37,4.51-6.42-6.93,4.58-4.73c.25-.28.57-.44.91-.45.22,0,.54.04.85.32l3.35,4.17,3.12-2.5-3.43-4.28-.16-.17c-1.05-1.03-2.4-1.58-3.85-1.53-1.44.05-2.78.68-3.71,1.73l-4.37,4.51-5.37-5.79,4.55-4.7c.25-.28.57-.44.91-.45.22,0,.54.04.85.32l3.35,4.17,3.12-2.5-3.43-4.28-.16-.17c-1.05-1.03-2.41-1.57-3.85-1.53-1.44.05-2.78.68-3.71,1.73l-4.34,4.49-.03-.03-.04.04-4.3-4.44c-.99-1.11-2.32-1.74-3.77-1.79-1.43-.04-2.81.49-3.85,1.53l-3.59,4.46,3.12,2.5,3.35-4.17c.31-.27.64-.31.85-.32.34.01.66.17.97.51l4.51,4.65-5.31,5.73-4.38-4.52c-.99-1.11-2.32-1.74-3.77-1.79-1.42-.04-2.81.49-3.85,1.53l-3.59,4.46,3.12,2.5,3.35-4.17c.31-.27.63-.33.85-.32.34.01.66.17.97.51l4.59,4.74-6.45,6.96-4.3-4.44c-.99-1.11-2.32-1.74-3.77-1.79-1.42-.04-2.81.49-3.85,1.53l-3.59,4.46,3.12,2.5,3.35-4.17c.31-.27.64-.31.85-.32.34.01.66.17.97.51l4.51,4.66-6.43,6.94-4.3-4.44c-.99-1.11-2.32-1.74-3.77-1.79-1.43-.05-2.81.49-3.85,1.53l-3.59,4.46,3.12,2.5,3.35-4.17c.31-.27.64-.32.85-.32.34.01.66.17.97.51l4.5,4.65-5.38,5.8-4.1-4.23c-.99-1.11-2.32-1.74-3.77-1.79-1.42-.05-2.81.49-3.85,1.53l-3.59,4.46,3.12,2.5,3.35-4.17c.31-.27.62-.33.85-.32.34.01.66.17.97.51l4.31,4.45-3.37,3.64,3.31,3.57-4.3,4.44c-.25.28-.57.44-.91.45-.21,0-.54-.04-.85-.32l-3.35-4.17-3.12,2.5,3.43,4.28.16.17c1.01.99,2.31,1.53,3.68,1.53.06,0,.12,0,.17,0,1.44-.05,2.78-.68,3.71-1.73l4.1-4.23,5.45,5.88-4.58,4.73c-.25.28-.57.44-.91.45-.21,0-.54-.04-.85-.32l-3.35-4.17-3.12,2.5,3.43,4.28.16.17c1.01.99,2.31,1.53,3.68,1.53.06,0,.12,0,.17,0,1.44-.05,2.78-.68,3.71-1.73l4.38-4.52,6.43,6.94-4.59,4.74c-.25.28-.57.44-.91.45-.21,0-.54-.04-.85-.32l-3.35-4.17-3.12,2.5,3.43,4.28.16.17c1.01.99,2.31,1.53,3.68,1.53.06,0,.12,0,.17,0,1.44-.05,2.78-.68,3.71-1.73l4.38-4.52,6.45,6.96-4.67,4.82c-.25.28-.57.44-.91.45-.21.01-.54-.04-.85-.31l-3.35-4.17-3.12,2.5,3.43,4.28.16.17c1.01.99,2.31,1.53,3.68,1.53.06,0,.11,0,.17,0,1.44-.05,2.78-.68,3.71-1.73l4.46-4.6,5.31,5.73-4.59,4.74c-.25.28-.57.44-.91.45-.21,0-.54-.04-.85-.32l-3.35-4.17-3.12,2.5,3.43,4.28.16.17c1.01.99,2.31,1.53,3.68,1.53.06,0,.12,0,.17,0,1.44-.05,2.78-.68,3.71-1.73l4.38-4.52.02.02h0s4.32,4.45,4.32,4.45c.99,1.11,2.32,1.74,3.77,1.79.06,0,.12,0,.17,0,1.37,0,2.68-.54,3.68-1.53l3.59-4.46-3.12-2.5-3.35,4.17c-.31.27-.63.32-.85.32-.34-.01-.66-.17-.97-.51l-4.52-4.67,5.37-5.79,4.34,4.48c.99,1.11,2.32,1.74,3.77,1.79.06,0,.12,0,.17,0,1.37,0,2.68-.54,3.68-1.53l3.59-4.46-3.12-2.5-3.35,4.17c-.31.27-.63.32-.85.32-.34-.01-.66-.17-.97-.51l-4.55-4.7,6.42-6.93,4.34,4.48c.99,1.11,2.32,1.74,3.77,1.79.06,0,.12,0,.17,0,1.37,0,2.68-.54,3.68-1.53l3.59-4.46-3.12-2.5-3.35,4.17c-.31.27-.63.33-.85.32-.34-.01-.66-.17-.97-.51l-4.55-4.69,6.46-6.97,4.31,4.45c.99,1.11,2.32,1.74,3.77,1.79.06,0,.11,0,.17,0,1.37,0,2.68-.54,3.68-1.53l3.59-4.46-3.12-2.5-3.35,4.17c-.31.27-.63.32-.85.32-.34-.01-.66-.17-.97-.51l-4.52-4.66,5.24-5.66,3.65,3.77c.99,1.11,2.32,1.74,3.77,1.79.06,0,.11,0,.17,0,1.37,0,2.68-.54,3.68-1.53l3.59-4.46-3.12-2.5-3.35,4.17Zm-7.66-7.93l-35.14,37.9L24.68,59.97,59.81,22.07l35.14,37.9Z"/>
  <path d="m69.38,53.66l-9.56-13.18-9.56,13.18h7.56v12.63h-7.56l9.56,13.18,9.56-13.18h-7.56v-12.63h7.56Zm-9.56,19l-1.72-2.37h3.44l-1.72,2.37Zm0-25.37l1.72,2.37h-3.44l1.72-2.37Z"/>
</svg>