<?xml version="1.0" encoding="UTF-8"?>
<svg id="Livello_3" data-name="Livello 3" xmlns="http://www.w3.org/2000/svg" viewBox="0 0 120 120">
  <path d="m19.75,83.45l-9.75,10.5,9.75,10.12,9.75-10.12-9.75-10.5Zm-4.25,10.45l4.25-4.57,4.25,4.57-4.25,4.41-4.25-4.41Z"/>
  <path d="m60.62,84.29l-9.75,10.5,9.75,10.12,9.75-10.12-9.75-10.5Zm-4.25,10.45l4.25-4.57,4.25,4.57-4.25,4.41-4.25-4.41Z"/>
  <path d="m100.25,83.45l-9.75,10.5,9.75,10.12,9.75-10.12-9.75-10.5Zm-4.25,10.45l4.25-4.57,4.25,4.57-4.25,4.41-4.25-4.41Z"/>
  <path d="m98.05,79.37l-30.4-33.78v-5.82l3.59,2.87,7.78-11.45-4.03-3.22,4.36-4.15-8.66-10.71-3.03,2.88v-5.99h-13.31v5.45l-2.46-2.34-8.66,10.71,4.36,4.15-4.03,3.22,7.78,11.45,3.02-2.41v5.62l-30.73,33.08,14.41,15.68-11.5,12.65,2.96,2.69,11.31-12.44,12.44,12.51,2.84-2.82-12.58-12.65,17.14-18.85,17.15,18.86-12.27,12.66,2.87,2.79,12.1-12.48,11.3,12.43,2.96-2.69-11.47-12.62,14.79-15.26Zm-50.91,5.19l-5.14-5.59,19.06-20.52,18.51,20.56-5.42,5.59-13.53-14.88-13.48,14.83Zm29.71,3.01l8.19-8.46-23.94-26.59-24.55,26.43,7.88,8.58-3.72,4.09-11.66-12.69,29.28-31.52v-15.51l-6.14,4.91-3.27-4.81,4.72-3.77-5.01-4.77,3.62-4.47,6.08,5.78v-10.77h5.31v11.31l6.65-6.32,3.62,4.47-5.01,4.77,4.72,3.77-3.27,4.81-6.71-5.36v15.67l28.93,32.14-12.02,12.39-3.72-4.09Z"/>
</svg>