<?xml version="1.0" encoding="UTF-8"?>
<svg id="Livello_3" data-name="Livello 3" xmlns="http://www.w3.org/2000/svg" viewBox="0 0 120 120">
  <path d="m45.22,89.44c.36.71,1.09,1.16,1.89,1.16h25.51c.8,0,1.52-.44,1.89-1.16.36-.71.3-1.56-.17-2.21l-12.75-17.59h0c-.4-.55-1.04-.88-1.71-.88s-1.31.33-1.71.88l-12.75,17.59c-.47.65-.54,1.49-.17,2.21Zm14.64-15.35l9.06,12.51h-18.13l9.06-12.51Z"/>
  <path d="m100.34,106v-4.35h6.71c.92,0,1.76-.5,2.19-1.32.43-.81.37-1.79-.14-2.55l-43.4-63.66,1.46-4.19h13.83l5.34,8.04h-7.78c-.8,0-1.51.44-1.88,1.15-.36.71-.29,1.55.17,2.19l5.77,7.97.68.87h1.02l1.11-.04,6.38-8.8c.46-.64.53-1.48.17-2.19-.12-.24-.29-.43-.48-.6l-8.36-12.59h-16.78l-3.01-2.04,1.96-2.84h8.01l-7.26-11.05h-12.62l-7.26,11.05h8.22l1.89,2.87-2.97,2.02h-16s-.73.33-.73.33l-.26.26-8.03,12.03c-.18.17-.34.35-.46.58-.36.71-.3,1.56.17,2.2l5.76,7.94c.39.55,1.03.87,1.71.88h0c.67,0,1.31-.33,1.71-.87l5.76-7.95c.47-.65.53-1.49.17-2.2-.36-.71-1.08-1.15-1.88-1.15h-7.76l5.34-8.04h13.7l1.45,4.19L10.44,97.73c-.44.64-.53,1.43-.31,2.15v10.11h13.66v-4h-9.66v-4.35h16.56v8.35h13.66v-4h-9.66v-4.35h18.54v8.35h13.66v-4h-9.66v-4.35h18.54v8.35h13.66v-4h-9.66v-4.35h16.56v8.35h13.66v-4h-9.66Zm-16.02-61.18l-2.06-2.84h4.12l-2.06,2.84Zm-48.84,0l-2.06-2.84h4.12l-2.06,2.84Zm24.37,14.91l27.49,37.92h-55.06l27.57-37.92Zm1.73-4.42c-.4-.55-1.04-.88-1.73-.89,0,0,0,0,0,0-.68,0-1.33.33-1.73.88l-30.79,42.35h-3.81l36.33-50.12,36.33,50.12h-3.9l-30.69-42.35Zm1.75-26.58l-1.28,3.69h-4.44l-1.28-3.69,3.5-2.38,3.5,2.38Zm-9.75-11.68l2-3.05h8.3l2,3.05h-2.7l-3.4,4.93-3.24-4.93h-2.96Zm3.65,19.37h5.18l41.74,61.23h-3.04l-39.54-54.55c-.4-.55-1.05-.88-1.73-.88s-1.33.33-1.73.88l-39.54,54.55h-3.25l41.9-61.23Z"/>
</svg>