<?xml version="1.0" encoding="UTF-8"?>
<svg id="Livello_3" data-name="Livello 3" xmlns="http://www.w3.org/2000/svg" viewBox="0 0 120 120">
  <path d="m105.33,48.49l-17.46-38.49h-53.94L10,58.69l23.4,51.31h54l22.6-51.62-4.67-9.89Zm-.68,7.92h-.71v-1.51l.71,1.51Zm-19.87,49.58h-48.81l-18.99-41.62-1.81-3.99h2.17v1.76h4v-1.74h1.48s9.23,8.16,9.23,8.16c1.62,1.35,3.18,1.33,4.21,1.08,2.04-.51,3.64-2.38,4.72-4.08l-.07,27.86h-1.37s0,4,0,4h1.35s0,0,0,0l17.98.03.08-1.92c.01-.27.06-2.73-1.96-4.89-1.78-1.91-4.52-2.93-8.15-3.03l-.11,4c3.05.09,4.6.95,5.4,1.83h-9.22s.01-5.39.01-5.39h3.43s0-4.01,0-4.01h-3.41s0-3.13,0-3.13h3.4s0-4,0-4h-3.4s0-2.69,0-2.69h3.39v-4h-3.38l.03-10.35h-4.35s-1.34,0-1.34,0l-.51,1.24c-.72,1.76-2.34,4.35-3.5,4.63-.1.02-.28.07-.64-.23l-8.03-7.1,7.99-7.07c.4-.33.58-.29.68-.26,1.15.29,2.77,2.88,3.49,4.63l.51,1.25h5.7s-.01-8.61-.01-8.61h3.37s0-4,0-4h-3.37s0-3.13,0-3.13h3.37s0-3.99,0-3.99h-3.39s0-2.68,0-2.68h3.39s0-4.01,0-4.01h-3.39s0-3.97,0-3.97h9.11c-.81.74-2.31,1.44-5.08,1.55l.16,4c3.66-.15,6.38-1.19,8.1-3.09,1.86-2.06,1.79-4.33,1.77-4.59l-.11-1.88h-15.96s0,.01,0,.01h-3.39s0,4,0,4h1.4s.04,24.71.04,24.71c-1.08-1.71-2.68-3.58-4.72-4.09-1.03-.26-2.59-.28-4.26,1.11l-8.62,7.62-.54.46h-1.51v-2.33h-4v2.32h-1.75S36.42,14,36.42,14h48.87l16.4,36.16,1.85,3.92h-3.61v2.33h-1.5l-8.88-8.12c-1.58-1.36-3.11-1.35-4.12-1.1-1.92.47-3.44,2.23-4.49,3.88l.04-24.5h.74v-4h-.74s-17.28-.01-17.28-.01l-.27,1.69c-.04.28-.38,2.8,1.45,5.05,1.55,1.9,4.09,2.93,7.54,3.08l.17-4c-2.2-.09-3.78-.64-4.58-1.57-.07-.08-.13-.16-.18-.24h9.14s0,3.98,0,3.98h-3.2s0,3.99,0,3.99h3.2s0,2.69,0,2.69h-3.19s0,4,0,4h3.19s0,3.13,0,3.13h-3.18s0,3.99,0,3.99h3.18s-.01,8.61-.01,8.61h5.63s.5-1.27.5-1.27c.69-1.75,2.29-4.36,3.33-4.62.07-.02.2-.05.5.21l7.78,7.13-7.73,7.09c-.34.29-.48.26-.54.25-.98-.24-2.55-2.63-3.33-4.61l-.5-1.27h-5.63s.03,10.35.03,10.35h-3.19s0,4,0,4h3.2s0,2.69,0,2.69h-3.21s0,4,0,4h3.21s0,3.13,0,3.13h-3.22s0,4,0,4h3.23s.01,5.38.01,5.38h-8.79c.75-.88,2.24-1.73,5.18-1.82l-.12-4c-3.47.1-6.11,1.1-7.84,2.96-2.03,2.18-1.99,4.68-1.97,4.96l.08,1.92,16.83-.03h1.34v-4h-.7l-.07-27.65c1.05,1.66,2.58,3.41,4.5,3.88,1.01.25,2.54.26,4.16-1.14l8.81-8.08h1.51v1.74h4v-1.74h.81l-19.96,45.58Z"/>
  <polygon points="95.18 50.42 98.82 48.78 83.62 14.95 37.54 14.95 21.99 48.07 25.61 49.77 40.09 18.95 81.03 18.95 95.18 50.42"/>
  <polygon points="80.52 100.67 39.57 100.67 25.1 69.84 21.48 71.54 37.03 104.67 83.11 104.67 98.31 70.83 94.66 69.19 80.52 100.67"/>
  <path d="m53.7,57.45c.29.07.58.1.87.1,1.08,0,2.12-.46,2.8-1.28.31-.37,1.33-1.2,4.11-1.16,2.98.07,4.02.97,4.27,1.25.9,1,2.36,1.42,3.72,1.04h0c3.04-.82,3.74-3.23,3.88-3.95.05-.25.07-.51.07-.78-.04-1.58-.62-2.94-1.66-3.92-2.04-1.93-5.45-2.1-8.42-2-3.03-1.37-6.38-1.25-9.45.32-2.49,1.28-4.35,3.33-4.73,5.24-.18.91-.4,3.95,4.54,5.13Zm2.02-6.81c1.14-.58,3.43-1.39,5.99-.23.53.24,1.1.36,1.67.34,1.12-.03,4.53-.13,5.65.92.18.17.38.44.41,1.07-.07.26-.28.58-.86.77-1.07-1.08-3.12-2.31-6.98-2.39-3.96-.1-6.02,1.22-7.11,2.41-.74-.19-1.15-.42-1.34-.55.22-.51,1.09-1.56,2.59-2.33Z"/>
  <path d="m63.33,72.78c2.41.06,9.75.25,10-5.83.02-.4-.03-.8-.13-1.18-.2-.77-.79-2.19-2.45-3.11h0c-1.69-.94-3.84-.6-5.24.82-.28.29-1.2.96-3.65,1.08-2.59.12-3.91-.77-4.46-1.31-1.1-1.08-2.71-1.49-4.21-1.08-4.51,1.25-4.29,4.16-4.12,5.02.38,1.88,2.2,3.92,4.64,5.19,1.67.88,3.44,1.32,5.19,1.32,1.42,0,2.83-.29,4.18-.87.13-.05.21-.06.24-.06Zm-7.76-3.93c-1.47-.77-2.32-1.8-2.53-2.3.17-.13.55-.33,1.22-.52.14-.04.27.01.34.08,1.24,1.22,3.53,2.63,7.45,2.45,2.84-.13,4.97-.9,6.32-2.27.13-.14.35-.18.44-.13.35.19.48.46.53.62-.03.75-.07,2.14-5.9,2-.64-.02-1.29.11-1.93.38-2.55,1.1-4.81.27-5.93-.31Z"/>
  <path d="m61.53,55.74c-2.45,0-3.98.96-5.27,3.32l-.57,1.04.64,1c1.29,2.01,2.85,2.87,5.2,2.87,2.57,0,4.5-.92,5.74-2.73l.66-.95-.5-1.04c-.76-1.6-2.41-3.51-5.9-3.51Zm-.89,4.13c.24-.13.5-.13.89-.13.43,0,.78.05,1.07.13-.55.12-1.47.17-1.96,0Z"/>
</svg>