<?xml version="1.0" encoding="UTF-8"?>
<svg id="Livello_3" data-name="Livello 3" xmlns="http://www.w3.org/2000/svg" viewBox="0 0 120 120">
  <path d="m90.09,39.51c.54-.91.42-2.04-.3-2.81l-10.17-10.99-10.12,14.71,22.53,21.79,17.98-26.51-23.33-25.7h-53.33s-23.33,25.7-23.33,25.7l17.98,26.51,22.53-21.79-10.12-14.71-10.17,10.99c-.71.77-.83,1.9-.3,2.81.53.9,1.56,1.33,2.57,1.09l.1-.02-2.66,2.57-4.28-6.31c4.83-5.29,11.22-12.28,13.14-14.36l14.75.1v23.56l-21.73,22.28,28.32,41.59,28.08-41.48-21.73-22.42v-23.53l14.75-.1c1.92,2.08,8.31,9.08,13.14,14.36l-4.28,6.31-2.66-2.57.09.02c1.01.25,2.04-.19,2.57-1.08Zm.63,9.81l7.7-11.35c.6-.88.52-2.05-.2-2.85q-14.98-16.41-15.58-16.58l-.28-.08-19.89.13v29.12l20.6,21.25-22.95,33.91-23.17-34.02,20.59-21.11v-29.16l-19.89-.13-.28.08q-.6.17-15.58,16.58c-.72.79-.8,1.96-.2,2.84l7.7,11.36,8.66-8.38c.99-.95,1.14-2.47.36-3.6l-.28-.41c-.39-.56-.94-.94-1.56-1.1l3.46-3.74,5.37,7.8-16.68,16.12-13.54-19.97,20.03-22.05h49.79l20.03,22.05-13.54,19.97-16.68-16.12,5.37-7.8,3.46,3.74c-.62.16-1.18.54-1.56,1.1l-.28.41c-.78,1.13-.63,2.65.36,3.6l8.67,8.38Z"/>
  <path d="m45.03,69.79l15.07,22.12,14.92-22.04-14.99-15.46-15,15.38Zm15.06,15l-9.91-14.55,9.84-10.09,9.86,10.17-9.79,14.47Z"/>
</svg>