<?xml version="1.0" encoding="UTF-8"?>
<svg id="Livello_3" data-name="Livello 3" xmlns="http://www.w3.org/2000/svg" viewBox="0 0 120 120">
  <path d="m24.26,60.28l35.82,36.15,35.72-36.19L59.97,23.43,24.26,60.28Zm65.94-.05l-30.13,30.52-30.21-30.49,30.11-31.07,30.23,31.05Z"/>
  <path d="m60.07,85.96l25.48-25.81-25.56-26.25-25.46,26.27,25.54,25.78Zm-.07-46.31l19.95,20.49-19.88,20.14-19.94-20.12,19.87-20.5Z"/>
  <path d="m60.05,72.12l11.93-12.09-11.97-12.29-11.93,12.31,11.96,12.07Zm-.03-18.64l6.36,6.53-6.34,6.42-6.36-6.42,6.33-6.54Z"/>
  <path d="m110,57.52l-2.8-2.85-2.38,2.33-.96-.98,2.51-2.39-2.76-2.9-2.54,2.42-.89-.91,2.5-2.42-2.78-2.88-2.52,2.43-.74-.76,2.53-2.48-2.8-2.86-2.52,2.47-.97-.99,2.42-2.39-2.81-2.84-2.4,2.37-.86-.88,2.38-2.32-2.79-2.86-2.37,2.31-1.25-1.29,2.24-2.16-2.78-2.87-2.24,2.17-.96-.98,2.28-2.19-2.77-2.88-2.3,2.21-.85-.88,2.18-2.13-2.79-2.86-2.18,2.12-.88-.9,2.1-2.04-2.79-2.87-2.1,2.04-.93-.95,2.04-1.95-2.77-2.89-2.06,1.98-.53-.54,2.1-2.03-2.78-2.87-2.1,2.04-.62-.63,1.91-1.86-2.79-2.86-1.91,1.86-.88-.9-.89.92-1.98-1.93-2.79,2.86,1.99,1.94-.61.63-2.19-2.11-2.77,2.88,2.18,2.1-.53.55-2.15-2.06-2.77,2.89,2.13,2.04-.92.95-2.19-2.13-2.79,2.87,2.2,2.14-.88.9-2.28-2.23-2.79,2.86,2.29,2.23-.86.88-2.4-2.32-2.78,2.88,2.4,2.32-.94.98-2.37-2.29-2.78,2.88,2.37,2.28-1.25,1.29-2.5-2.44-2.79,2.86,2.51,2.45-.86.89-2.52-2.51-2.82,2.84,2.56,2.55-.98,1.01-2.55-2.53-2.81,2.84,2.58,2.56-.74.76-2.65-2.59-2.8,2.86,2.66,2.6-.87.89-2.71-2.58-2.76,2.89,2.68,2.56-.94.97-2.57-2.5-2.79,2.87,2.51,2.44-2.49,2.36,2.75,2.91,2.62-2.48.94.95-2.67,2.55,2.76,2.89,2.73-2.6.9.91-2.7,2.6,2.77,2.88,2.75-2.64.74.75-2.65,2.6,2.8,2.86,2.67-2.61.98.99-2.68,2.64,2.81,2.85,2.69-2.65.88.89-2.68,2.58,2.78,2.88,2.72-2.62,1.24,1.25-2.56,2.5,2.79,2.86,2.59-2.52.97.98-2.64,2.55,2.78,2.88,2.68-2.59.83.84-2.56,2.56,2.83,2.83,2.55-2.55.97.98-2.55,2.37,2.73,2.93,2.64-2.46.87.88-2.5,2.41,2.78,2.88,2.54-2.45.54.55-2.59,2.49,2.77,2.88,2.63-2.53.63.63-2.44,2.35,2.78,2.88,2.47-2.39.53.53.52-.52,2.74,2.6,2.76-2.9-2.68-2.55.88-.89,2.22,2.12,2.77-2.89-2.17-2.08.91-.92,2.2,2.15,2.79-2.87-2.18-2.13.73-.74,2.2,2.13,2.79-2.87-2.17-2.11.98-1,2.19,2.15,2.8-2.85-2.18-2.15.88-.89,2.23,2.17,2.79-2.87-2.21-2.14,1.26-1.27,2.19,2.18,2.82-2.83-2.2-2.19.97-.98,2.21,2.18,2.8-2.85-2.21-2.17.83-.84,2.11,2.12,2.83-2.82-2.13-2.14.93-.95,2.33,2.17,2.73-2.93-2.24-2.09.89-.9,2.27,2.2,2.79-2.87-2.24-2.18.53-.54,2.31,2.22,2.77-2.88-2.27-2.19.61-.62,2.3,2.19,2.76-2.9-2.26-2.15,2.37-2.33Zm-7.98,2.34l-41.83,42.38L18.24,59.89,60.05,16.75l41.98,43.11Z"/>
</svg>