<?xml version="1.0" encoding="UTF-8"?>
<svg id="Livello_3" data-name="Livello 3" xmlns="http://www.w3.org/2000/svg" viewBox="0 0 120 120">
  <path d="m110.34,50.85h-41.07l.09-41.04-17.49-.04-.09,41.08H10.68v17.51h41.07l-.09,41.04,17.49.04.09-41.08h41.1v-17.51Zm-3.98,13.52h-41.09l-.09,41.07-9.53-.02.09-41.05H14.67v-9.54h41.09l.09-41.07,9.53.02-.09,41.05h41.07v9.54Z"/>
  <path d="m19.97,28.37c5.22,0,9.46-4.21,9.46-9.39s-4.24-9.39-9.46-9.39-9.46,4.21-9.46,9.39,4.24,9.39,9.46,9.39Zm0-14.79c3.02,0,5.48,2.42,5.48,5.41s-2.46,5.41-5.48,5.41-5.48-2.42-5.48-5.41,2.46-5.41,5.48-5.41Z"/>
  <path d="m19.97,90.82c-5.22,0-9.46,4.21-9.46,9.39s4.24,9.39,9.46,9.39,9.46-4.21,9.46-9.39-4.24-9.39-9.46-9.39Zm0,14.79c-3.02,0-5.48-2.42-5.48-5.41s2.46-5.41,5.48-5.41,5.48,2.42,5.48,5.41-2.46,5.41-5.48,5.41Z"/>
  <path d="m101.05,28.37c5.22,0,9.46-4.21,9.46-9.39s-4.24-9.39-9.46-9.39-9.46,4.21-9.46,9.39,4.24,9.39,9.46,9.39Zm0-14.79c3.02,0,5.48,2.42,5.48,5.41s-2.46,5.41-5.48,5.41-5.48-2.42-5.48-5.41,2.46-5.41,5.48-5.41Z"/>
  <path d="m101.05,90.82c-5.22,0-9.46,4.21-9.46,9.39s4.24,9.39,9.46,9.39,9.46-4.21,9.46-9.39-4.24-9.39-9.46-9.39Zm0,14.79c-3.02,0-5.48-2.42-5.48-5.41s2.46-5.41,5.48-5.41,5.48,2.42,5.48,5.41-2.46,5.41-5.48,5.41Z"/>
</svg>