<?xml version="1.0" encoding="UTF-8"?>
<svg id="Livello_3" data-name="Livello 3" xmlns="http://www.w3.org/2000/svg" viewBox="0 0 120 120">
  <path d="m64.95,86.66v-8.79s19.62-19.19,19.62-19.19l-7.01-6.87-12.58,12.31v-5.51s19.55-19.13,19.55-19.13l-7.01-6.87-12.52,12.25v-3.86s13.36-13.07,13.36-13.07l-18.33-17.94-18.33,17.94,13.42,13.13v3.95s-12.67-12.39-12.67-12.39l-7.01,6.87,19.66,19.24v5.41s-12.6-12.33-12.6-12.33l-7.01,6.87,19.6,19.18v8.77s-12.58-12.31-12.58-12.31l-7.01,6.87,19.58,19.16v9.64s9.87,0,9.87,0v-9.6s19.64-19.21,19.64-19.21l-7.01-6.87-12.6,12.33Zm-4.01,12.06v7.28s-1.88,0-1.88,0v-7.33s-17.85-17.48-17.85-17.48l1.3-1.27,16.57,16.21.02-19.95-17.88-17.5,1.3-1.27,16.59,16.23.02-16.59-17.95-17.56,1.3-1.27,16.65,16.3v-15.13s-11.69-11.45-11.69-11.45l12.61-12.34,12.61,12.34-11.64,11.39-.02,15.07,16.53-16.17,1.3,1.27-17.82,17.45-.02,16.71,16.59-16.24,1.3,1.27-17.89,17.51-.02,19.99,16.61-16.26,1.3,1.27-17.91,17.53Z"/>
  <path d="m60.02,18.13l-10.01,9.8,10.01,9.8,10.01-9.8-10.01-9.8Zm-4.3,9.8l4.3-4.2,4.3,4.2-4.3,4.2-4.3-4.2Z"/>
</svg>