<?xml version="1.0" encoding="UTF-8"?>
<svg id="Livello_3" data-name="Livello 3" xmlns="http://www.w3.org/2000/svg" viewBox="0 0 120 120">
  <path d="m108.74,57.61l-8.01-5.46c-.48-.32-1.03-.5-1.61-.5h-25.22v-13.05c0-2.18,1.74-3.95,3.89-3.95h9.91c2.82.15,3.96-.04,4.84-.78l7.77-6.57c1.2-1.01,1.42-2.73.53-3.99l-8.49-11.96c-.6-.85-1.61-1.36-2.7-1.36h-2.73c-1.79,0-3.25,1.37-3.25,3.06v9.79h-11.65l-8.68-3.13c-5.19-1.87-11.09-.29-14.69,3.92l-24.84,29.13-8.22-5.6c-1.11-.76-2.54-.83-3.72-.19-1.19.65-1.91,1.89-1.89,3.25l.2,9.73-.2,9.81c-.03,1.36.69,2.6,1.89,3.25,1.18.64,2.61.57,3.72-.19l8.22-5.6,24.2,28.38c3.98,4.67,10.51,6.41,16.25,4.34l7.75-2.8h11.65v9.79c0,1.69,1.46,3.06,3.25,3.06h2.73c1.09,0,2.09-.51,2.7-1.35l8.49-11.96c.9-1.26.67-2.98-.53-3.99l-7.61-6.43c-.77-.85-2.15-.91-4.32-.91h-10.34c-2.28,0-4.14-1.89-4.14-4.21v-12.8h25.22c.58,0,1.14-.17,1.62-.5l8-5.46c.79-.54,1.26-1.43,1.26-2.38s-.47-1.85-1.26-2.38Zm-9.97,6.72h-28.87v16.8c0,4.52,3.65,8.21,8.14,8.21h9.94c.09,0,.22,0,.39,0,1.02,0,1.56.03,1.86.06l6.79,5.74-7.7,10.85h-1.65v-9.24c0-1.99-1.61-3.61-3.59-3.61h-12.13c-.41,0-.82.07-1.21.21l-7.83,2.82c-4.25,1.53-8.9.29-11.85-3.17l-24.44-28.67c-1.19-1.4-3.23-1.67-4.74-.64l-7.87,5.36.18-9.11-.18-9.03,7.87,5.36c1.51,1.03,3.55.76,4.74-.64l25.08-29.42c2.56-3,6.6-4.08,10.29-2.75l8.75,3.16c.39.14.8.21,1.21.21h12.13c1.98,0,3.59-1.62,3.59-3.61v-9.24h1.65l7.7,10.85-6.87,5.81c-.25.03-.88.08-2.29,0h-10.07c-4.35,0-7.89,3.56-7.89,7.95v17.05h28.87l6.36,4.34-6.36,4.34Z"/>
  <path d="m61.05,33.61h-5.42c-2.66,0-4.83,2.17-4.83,4.83v43.62c0,2.66,2.17,4.83,4.83,4.83h5.42c2.66,0,4.83-2.17,4.83-4.83v-43.62c0-2.66-2.17-4.83-4.83-4.83Zm.83,48.45c0,.46-.37.83-.83.83h-5.42c-.46,0-.83-.37-.83-.83v-43.62c0-.46.37-.83.83-.83h5.42c.46,0,.83.37.83.83v43.62Z"/>
</svg>