<?xml version="1.0" encoding="UTF-8"?>
<svg id="Livello_3" data-name="Livello 3" xmlns="http://www.w3.org/2000/svg" viewBox="0 0 120 120">
  <path d="m91.75,57.43v4h18.25v-4h-6.63v-7.8h-41.67l-1.1-2.22h11.42l12.62-18.71-12.62-18.71h-24.67l-12.62,18.71,11.95,17.72,1.7,3.38h-31.72v7.63h-6.67v4h18.25v-4h-7.58v-3.63h29.73l4.97,9.87H16.67v8.52h-6.46v4h18.25v-4h-7.79v-4.52h36.71l2.47,4.91h-11.67l-12.62,18.71,12.62,18.71h24.67l12.62-18.71-11.95-17.71-2.92-5.9h28.93v4.52h-7.79v4h18.25v-4h-6.47v-8.52h-34.9l-4.96-10.04h35.69v3.8h-7.62Zm-31.7-32.3l-7.79-11.13h15.02l-7.23,11.13Zm7.23,18.28h-15.02l7.79-11.13,7.23,11.13Zm3.72-1.62l-7.2-11.08h7.17v-4h-7.17l7.2-11.08,8.83,13.08-8.83,13.08Zm-22.54-26.26l7.82,11.17h-7.85v4h7.85l-7.82,11.18-8.89-13.18,8.89-13.17Zm3.22,31.88h4.48l12.43,25.17h-4.24l-12.67-25.17Zm8.5,47.45l7.79,11.13h-15.02l7.23-11.13Zm-7.23-18.28h15.02l-7.79,11.13-7.23-11.13Zm-3.72,1.62l7.2,11.08h-7.59v4h7.59l-7.2,11.08-8.83-13.08,8.83-13.08Zm22.54,26.26l-7.82-11.18h7.43v-4h-7.43l7.82-11.18,8.89,13.18-8.89,13.18Z"/>
</svg>