<?xml version="1.0" encoding="UTF-8"?>
<svg id="Livello_3" data-name="Livello 3" xmlns="http://www.w3.org/2000/svg" viewBox="0 0 120 120">
  <path d="m95.36,74.88l14.64-14.95-14.64-14.95-11.06,11.29v-11.22l10.68-13.86-14.83-15.52.15,27.89-13.67,13.96v-18.66l10.26-13.35-14.82-15.51.05,18.48h-4.66V10.01l-14.8,15.49,10.26,13.35v18.19l-13.21-13.49V15.6s-14.67,15.61-14.67,15.61l10.67,13.85v11.22l-11.06-11.29-14.64,14.95,14.64,14.95,11.06-11.29v11.21l-10.61,13.78,14.66,16.96-.03-29.24,13.2-13.48v17.11l-10.26,10.74,14.86,19.34-.04-19.97h4.59l-.04,19.97,14.86-19.34-10.26-10.74v-17.58l13.66,13.95-.03,29.24,14.66-16.96-10.61-13.78v-11.21l11.06,11.29Zm0-24.19l9.04,9.23-9.04,9.23-9.04-9.23,9.04-9.23Zm-70.72,18.47l-9.04-9.23,9.04-9.23,9.04,9.23-9.04,9.23Zm11.06-43.47v12.81s-5.42-7.04-5.42-7.04l5.42-5.77Zm-5.46,62.74l5.47-7.1v13.45s-5.47-6.34-5.47-6.34Zm9.46-17.85v-.99s0,0,0,0v-20.33l10.44,10.66-10.43,10.65Zm31.92,20.36l-5.58,7.26.02-12.18h-12.6l.02,12.18-5.57-7.25,9-9.42v-44.03l-9-11.71,5.54-5.8v12.49h12.67l-.03-12.47,5.53,5.79-9,11.71v44.03l9,9.42Zm18.09-59.47l-5.44,7.07-.07-12.84,5.51,5.77Zm-5.44,63.3v-13.45s5.48,7.1,5.48,7.1l-5.48,6.34Zm-3.97-25.18v.99s-10.43-10.65-10.43-10.65l10.44-10.66v20.33h0Z"/>
</svg>