<?xml version="1.0" encoding="UTF-8"?>
<svg id="Livello_3" data-name="Livello 3" xmlns="http://www.w3.org/2000/svg" viewBox="0 0 120 120">
  <path d="m109.74,109.93l-20.87-41.74.16-.32h-.32L59.74,9.93l-20.48,40.96h-.23l.12.23-8.37,16.75h-.32l.16.32-20.87,41.74h100Zm-65.64-23.07l6.82-13.27,6.82,13.27h-13.64Zm-1.95-4.96l-5.15-10.03h10.31l-5.15,10.03Zm42.29,24.03h-14.02l7.01-13.71,7.01,13.71Zm-3.21-15.07h10.24l-5.12,10.01-5.12-10.01Zm-21.64,1.34l7.02,13.73h-14.04l7.02-13.73Zm-8.93,8.67l-5.12-10.01h10.24l-5.12,10.01Zm12.73-10.01h10.24l-5.12,10.01-5.12-10.01Zm11.99-4h-13.74l6.82-13.27.05.11.05-.1,6.82,13.26Zm-3.21-14.99h10.31l-5.15,10.03-5.15-10.03Zm-12.48,10.03l-5.15-10.03h10.31l-5.15,10.03Zm8.82-17.01l-5.1-10h10.2l-5.1,10Zm-6.02-14l6.69-13.13,6.56,13.13h-13.26Zm-2.75-3.41l-5.1-10h10.2l-5.1,10Zm5.8,20.39h-11.91l5.96-11.68,5.96,11.68Zm-14.88-2.98l-5.1-10h10.2l-5.1,10Zm-1.91,41.04h-13.72l6.86-13.41,6.86,13.41Zm-15.62-5.06l-5.12-10.01h10.24l-5.12,10.01Zm-1.91,5.06h-15.01l7.42-14.84,7.59,14.84Zm57.03,0l7.59-14.84,7.42,14.84h-15.01Zm5.48-19.07h-14.46l7.33-14.26,7.13,14.26Zm-22.25-18.99l6.44-12.63,6.31,12.63h-12.75Zm-4.44-34.39h-14.61l7.3-14.61,7.3,14.61Zm-16.75,4.28l6.69,13.12h-13.26l6.56-13.12Zm-8.89,17.78l6.28,12.32h-12.44l6.16-12.32Zm-1.2,31.31h-14.46l7.13-14.26,7.33,14.26Z"/>
</svg>