<?xml version="1.0" encoding="UTF-8"?>
<svg id="Livello_3" data-name="Livello 3" xmlns="http://www.w3.org/2000/svg" viewBox="0 0 120 120">
  <path d="m59.98,42.37l-16.06,25.62,32.14.02-16.09-25.64Zm0,7.41l8.97,14.29h-17.92s8.95-14.29,8.95-14.29Z"/>
  <path d="m100.88,88.01h9.12S59.92,10,59.92,10L10,87.96h9.11s0,7.71,0,7.71l-8.97,14.32h21.9s-8.99-14.32-8.99-14.32v-7.7s22.35.01,22.35.01v7.69s-8.98,14.32-8.98,14.32h21.9s-8.99-14.32-8.99-14.32v-7.69s21.34.01,21.34.01v7.68s-8.98,14.32-8.98,14.32h21.9s-8.99-14.32-8.99-14.32v-7.67s22.36.01,22.36.01v7.66s-8.98,14.32-8.98,14.32h21.9s-8.99-14.32-8.99-14.32v-7.66Zm-83.64,18.05l3.83-6.12,3.84,6.12h-7.67Zm26.28,0l3.83-6.12,3.84,6.12h-7.67Zm25.27,0l3.83-6.12,3.84,6.12h-7.67Zm-8.86-86.24l40.37,62.89-80.62-.04L59.93,19.82Zm35.15,86.24l3.83-6.12,3.84,6.12h-7.67Z"/>
</svg>