<?xml version="1.0" encoding="UTF-8"?>
<svg id="Livello_3" data-name="Livello 3" xmlns="http://www.w3.org/2000/svg" viewBox="0 0 120 120">
  <path d="m33.01,57.88l-7.55-4.41-2.01,3.46,5.15,3-5.19,3.21,2.1,3.4,7.47-4.62c.82-.56,1.24-1.25,1.23-2.07,0-.79-.4-1.44-1.19-1.96Z"/>
  <path d="m94.58,56.92l-2.01-3.46-7.43,4.33-.16.1c-.76.5-1.15,1.15-1.16,1.94,0,.82.41,1.52,1.3,2.12l7.4,4.58,2.1-3.4-5.19-3.21,5.15-3Z"/>
  <path d="m108.58,62.97l-5.24-3.18,5.24-3.18c.68-.42,1.18-1.1,1.35-1.88.17-.78.01-1.6-.43-2.27l-5.33-7.9c-1.05-1.55-3.12-2-4.71-1.03l-11.19,6.62c-1.39.82-3.16.52-4.2-.69l16.15-10.17c.73-.46,1.22-1.21,1.34-2.07.12-.85-.14-1.71-.71-2.36l-7.3-8.24c-.93-1.06-2.49-1.3-3.71-.58l-15.56,9.18-3.33-4.33,13.49-8.7c.73-.47,1.22-1.24,1.32-2.11.11-.87-.18-1.73-.77-2.36l-6.39-6.8c-.9-.96-2.35-1.21-3.53-.59l-15.08,7.95-15.09-7.95c-1.17-.62-2.62-.38-3.53.59l-6.39,6.8c-.6.64-.88,1.5-.77,2.36.11.87.59,1.63,1.32,2.11l13.49,8.7-3.33,4.33-15.56-9.18c-1.21-.72-2.77-.47-3.71.58l-7.3,8.24c-.57.65-.83,1.51-.71,2.36.12.85.61,1.61,1.34,2.07l16.15,10.17c-1.04,1.2-2.81,1.5-4.21.68l-10.93-6.43-.24-.15c-1.59-1-3.67-.57-4.72.99l-5.33,7.9c-.45.66-.6,1.49-.43,2.27.17.78.66,1.47,1.35,1.88l5.24,3.18-5.24,3.18c-.69.42-1.18,1.1-1.35,1.88-.17.78-.01,1.6.43,2.27l5.54,8.22c.86,1.27,2.58,1.67,3.91.9l12.26-6.58c1.25-.67,2.78-.45,3.79.45l-16.14,9.74c-.76.46-1.27,1.23-1.39,2.11-.12.88.16,1.76.77,2.41l7.9,8.39c.91.96,2.35,1.2,3.52.59l15.2-8,3.2,4.33-12.72,7.93c-.76.47-1.25,1.25-1.36,2.13-.11.88.18,1.75.8,2.4l6.72,6.96c.57.59,1.34.9,2.13.9.54,0,1.09-.15,1.57-.45l13.81-8.72,13.81,8.72c1.18.74,2.73.55,3.7-.45l6.71-6.96c.62-.64.91-1.51.8-2.4-.11-.88-.61-1.66-1.36-2.13l-12.72-7.94,3.2-4.33,15.2,8c1.17.62,2.62.37,3.52-.59l7.9-8.39c.61-.65.89-1.53.77-2.41-.12-.88-.63-1.65-1.39-2.11l-16.14-9.74c1.01-.9,2.54-1.12,3.79-.45l10.94,5.83,1.32.76c1.33.77,3.05.37,3.91-.91l5.54-8.21c.45-.66.6-1.49.43-2.27-.17-.78-.66-1.47-1.35-1.88Zm-7.4,9.31l-11.52-6.16c-3.53-1.88-7.84-.64-9.81,2.81-.8,1.4-.34,3.14,1.03,3.97l16.05,9.69-6.45,6.85-15.29-8.05c-1.3-.68-2.87-.32-3.75.86l-4.42,5.99c-.48.66-.67,1.49-.52,2.29.15.8.64,1.51,1.33,1.94l12.58,7.85-5.2,5.39-13.65-8.62c-.48-.3-1.03-.45-1.57-.45s-1.1.15-1.58.45l-13.65,8.62-5.2-5.39,12.58-7.85c.69-.43,1.18-1.14,1.33-1.94.15-.8-.04-1.63-.52-2.29l-4.42-5.99c-.87-1.18-2.45-1.54-3.75-.85l-15.29,8.05-6.45-6.85,16.05-9.69c1.38-.83,1.83-2.57,1.03-3.97-1.98-3.46-6.29-4.69-9.81-2.81l-11.05,5.89-.47.27-4.37-6.47,7.83-4.75v-2.54l-7.83-4.75,4.41-6.54,10.83,6.37c3.18,1.87,7.27,1.08,9.51-1.82l.61-.79c.5-.65.71-1.49.57-2.3-.14-.81-.63-1.53-1.33-1.97l-16.09-10.13,5.89-6.65,15.62,9.21c1.28.75,2.93.44,3.83-.74l4.61-5.99c.5-.65.71-1.48.57-2.29-.14-.81-.61-1.52-1.3-1.97l-13.39-8.64,4.97-5.28,14.87,7.84c.86.45,1.89.45,2.75,0l14.87-7.84,4.97,5.28-13.39,8.64c-.69.44-1.16,1.16-1.3,1.97-.14.8.07,1.64.57,2.29l4.61,5.99c.91,1.18,2.55,1.5,3.84.74l15.62-9.21,5.89,6.65-16.09,10.13c-.7.44-1.18,1.16-1.33,1.97-.14.81.06,1.65.57,2.3l.62.8c2.25,2.9,6.33,3.68,9.5,1.82l9.32-5.49,1.5-.91,4.43,6.56-7.83,4.75v2.54l7.83,4.75-4.37,6.47Z"/>
  <path d="m67.63,43.47h-16.64c-2.49,0-4.52,2.03-4.52,4.52v24.5c0,2.49,2.03,4.52,4.52,4.52h16.64c2.49,0,4.52-2.03,4.52-4.52v-24.5c0-2.49-2.03-4.52-4.52-4.52Zm.61,29.01c0,.34-.28.61-.61.61h-16.64c-.34,0-.61-.28-.61-.61v-24.5c0-.34.28-.61.61-.61h16.64c.34,0,.61.28.61.61v24.5Z"/>
  <polygon points="51.98 53.61 62.9 53.61 62.9 56.01 51.98 56.01 51.98 59.92 62.9 59.92 62.9 61.98 51.98 61.98 51.98 65.88 62.9 65.88 62.9 67.6 51.98 67.6 51.98 71.51 66.81 71.51 66.81 49.7 51.98 49.7 51.98 53.61"/>
  <path d="m42.96,40.5l-12.43-7.16-2,3.47,12.43,7.16c.1.06.15.15.15.26v31.84c0,.11-.06.21-.16.26l-12.4,6.87,1.94,3.5,12.4-6.87c1.37-.76,2.22-2.2,2.22-3.76v-31.84c0-1.53-.83-2.96-2.16-3.72Z"/>
  <path d="m79.6,43.19l11.09-6.39-2-3.47-11.09,6.39c-2.16,1.24-3.5,3.56-3.5,6.03v29.21c0,2.23,1.22,4.29,3.18,5.37l11.44,6.34,1.94-3.5-11.44-6.34c-.69-.38-1.11-1.1-1.11-1.87v-29.21c0-1.05.57-2.04,1.5-2.57Z"/>
  <path d="m66.8,78.47h-13.85c-.79,0-1.53.44-1.92,1.15-.41.74-.38,1.63.07,2.34l6.05,9.59-11.64,7.31,2.13,3.39,12.48-7.84,12.48,7.84,2.13-3.39-11.64-7.31,5.75-9.1c.52-.82.55-1.85.08-2.7-.43-.79-1.25-1.27-2.12-1.27Zm-6.68,10.29l-3.97-6.29h7.94l-3.97,6.29Z"/>
  <path d="m52.83,42h13.85c.87,0,1.68-.49,2.12-1.27.47-.85.44-1.89-.08-2.7l-5.75-9.1,11.64-7.31-2.13-3.39-12.48,7.84-12.48-7.84-2.13,3.39,11.64,7.31-6.05,9.59c-.45.71-.47,1.61-.07,2.34.39.71,1.13,1.14,1.92,1.14Zm7.17-10.29l3.97,6.29h-7.94l3.97-6.29Z"/>
</svg>