<?xml version="1.0" encoding="UTF-8"?>
<svg id="Livello_3" data-name="Livello 3" xmlns="http://www.w3.org/2000/svg" viewBox="0 0 120 120">
  <path d="m60.75,69.53l6.12-9.44-6.33-9.66-5.99,9.69,6.2,9.41Zm-.11-11.65l1.46,2.22-1.37,2.12-1.43-2.17,1.34-2.17Z"/>
  <path d="m90.41,78.24l-8.48-18.22,8.84-18.26h3.68l15.56-15.47-16.38-16.29-16.38,16.29,6.28,6.25-12.24,23.5-8.5-12.98,6.6-10.2-9.3-14.19-8.78,14.22,6.72,10.21-8.7,14.08-12.83-24.63,6.28-6.25L26.38,10,10,26.29l15.56,15.47h3.68l8.84,18.26-8.48,18.22h-4.03l-15.56,15.47,16.38,16.29,16.38-16.29-5.6-5.56,11.89-25.31,9.36,14.23-6.45,10.44,9.11,13.83,8.98-13.86-6.88-10.5,8.34-12.88,11.29,24.04-5.6,5.56,16.38,16.29,16.38-16.29-15.56-15.47h-4.03Zm-34.37-45.43l4.14-6.7,4.43,6.76-4.22,6.52-.04-.06h0s-4.3-6.52-4.3-6.52Zm-23.68,56.19l4.74,4.71-10.71,10.65-10.71-10.65,11.54-11.47h4.93l10.36-22.25-10.76-22.23h-4.53l-11.54-11.47,10.71-10.65,10.71,10.65-8.78,8.73,5.2.48,12.6,24.2-13.77,29.3Zm28.71,5.03l-4.34-6.59,4.14-6.7,4.43,6.76-4.23,6.53Zm-.27-20.7l-.03-.04-.02.03-8.62-13.09,8.31-13.44,8.82,13.48-8.47,13.07Zm32.82,31.04l-10.71-10.65,4.74-4.71-13.77-29.3,12.6-24.2,5.2-.48-8.78-8.73,10.71-10.65,10.71,10.65-11.54,11.47h-4.53l-10.76,22.23,10.36,22.25h4.93l11.54,11.47-10.71,10.65Z"/>
  <path d="m101.77,26.09l-8.15-8.1-8.15,8.1,8.15,8.1,8.15-8.1Zm-8.15-2.46l2.48,2.46-2.48,2.46-2.48-2.46,2.48-2.46Z"/>
  <path d="m93.62,102.23l8.15-8.1-8.15-8.1-8.15,8.1,8.15,8.1Zm2.48-8.1l-2.48,2.46-2.48-2.46,2.48-2.46,2.48,2.46Z"/>
  <path d="m26.38,17.99l-8.15,8.1,8.15,8.1,8.15-8.1-8.15-8.1Zm-2.48,8.1l2.48-2.46,2.48,2.46-2.48,2.46-2.48-2.46Z"/>
  <path d="m18.23,94.13l8.15,8.1,8.15-8.1-8.15-8.1-8.15,8.1Zm8.15,2.46l-2.48-2.46,2.48-2.46,2.48,2.46-2.48,2.46Z"/>
</svg>