<?xml version="1.0" encoding="UTF-8"?>
<svg id="Livello_3" data-name="Livello 3" xmlns="http://www.w3.org/2000/svg" viewBox="0 0 120 120">
  <path d="m90.11,87.22V28.82l-28.43,30.24,28.43,28.16Zm-22.85-28.26l9.44-10.03,6.64,9.22-7.8,9.01-8.28-8.2Zm11.13,11.02l7.72-8.92v16.56l-7.72-7.64Zm7.72-14.84l-6.62-9.19,6.62-7.04v16.23Z"/>
  <path d="m30.64,29.34v57.38l27.94-27.67-27.94-29.71Zm22.35,29.61l-8.42,8.34-8-9.25,6.76-9.38,9.67,10.29Zm-12.46-13.25l-5.89,8.18v-14.44l5.89,6.27Zm-5.89,16.23l7.08,8.19-7.08,7.01v-15.2Z"/>
  <path d="m88.19,18.86h-56.11l28.06,29.84,28.06-29.84Zm-25.81,21.61v-17.61h16.56l-16.56,17.61Zm-4-17.61v18.13l-17.05-18.13h17.05Z"/>
  <path d="m30.64,97.71v3.43h59.47v-2.94l-29.98-29.7-29.49,29.21Zm27.49-21.59v21.02h-21.23l21.23-21.02Zm4,21.02v-21.02l21.23,21.02h-21.23Z"/>
  <path d="m110,37.83v-12.86h-11.14v-2.11h10.91v-12.86H10v12.86h11.9v2.11h-11.9v12.86h11.9v1.12h-11.9v12.86h11.9v1.12h-11.9v12.86h11.9v1.12h-11.9v12.86h11.9v2.45h-11.9v12.86h11.9v2.06h-11.9v12.86h99.77v-12.86h-10.91v-2.06h11.14v-12.86h-11.14v-2.45h11.14v-12.86h-11.14v-1.12h11.14v-12.86h-11.14v-1.12h11.14v-12.86h-11.14v-1.12h11.14Zm-4,5.12v4.86h-11.14v9.12h11.14v4.86h-11.14v9.12h11.14v4.86h-11.14v10.45h11.14v4.86h-11.14v10.06h10.91v4.86H14v-4.86h11.9v-10.06h-11.9v-4.86h11.9v-10.45h-11.9v-4.86h11.9v-9.12h-11.9v-4.86h11.9v-9.12h-11.9v-4.86h11.9v-9.12h-11.9v-4.86h11.9v-10.11h-11.9v-4.86h91.77v4.86h-10.91v10.11h11.14v4.86h-11.14v9.12h11.14Z"/>
</svg>