<?xml version="1.0" encoding="UTF-8"?>
<svg id="Livello_3" data-name="Livello 3" xmlns="http://www.w3.org/2000/svg" viewBox="0 0 120 120">
  <path d="m100.54,60.21l9.39-13.71h-36.44V10l-13.39,9.46-13.71-9.39v36.44H10.06l8.91,13.71-8.97,13.39h36.39v36.33l13.71-8.91,13.39,8.97v-36.39h36.51l-9.46-13.39Zm-31.05,9.39v32.9l-9.36-6.27-9.74,6.33v-32.96H17.5l6.27-9.36-6.33-9.74h32.96V17.66l9.74,6.67,9.36-6.61v32.79h32.85l-6.67,9.74,6.61,9.36h-32.79Z"/>
  <path d="m49.29,60.19l10.89,10.52,10.52-10.89-10.89-10.52-10.52,10.89Zm15.75-.27l-4.96,5.13-5.13-4.96,4.96-5.13,5.13,4.96Z"/>
</svg>