<?xml version="1.0" encoding="UTF-8"?>
<svg id="Livello_3" data-name="Livello 3" xmlns="http://www.w3.org/2000/svg" viewBox="0 0 120 120">
  <polygon points="106.26 69.09 106.26 54.86 109.28 54.86 109.28 50.86 102.26 50.86 102.26 65.09 93.68 65.09 93.68 51.07 74.81 51.09 74.81 64.97 64.91 64.97 64.91 51.33 45.8 51.33 45.8 64.42 36.58 64.42 36.58 50.86 18.32 50.86 18.32 64.42 10.72 64.43 10.72 68.43 22.32 68.42 22.32 54.86 32.58 54.86 32.58 68.42 49.8 68.42 49.8 55.33 60.91 55.33 60.91 68.97 78.81 68.97 78.81 55.09 89.68 55.08 89.68 69.09 106.26 69.09"/>
  <polygon points="25.74 17.09 39.59 36.96 53.65 17.74 67.06 36.74 81.47 17.7 94.68 36.4 110 13.43 106.67 11.21 94.59 29.33 81.58 10.92 67.17 29.96 53.71 10.88 39.67 30.08 25.67 10 10 33.43 13.32 35.65 25.74 17.09"/>
  <path d="m39.71,22.18c2.51,0,4.55-2.07,4.55-4.6s-2.04-4.6-4.55-4.6-4.55,2.07-4.55,4.6,2.04,4.6,4.55,4.6Zm0-5.21c.3,0,.55.27.55.6s-.25.6-.55.6-.55-.27-.55-.6.25-.6.55-.6Z"/>
  <path d="m66.65,22.18c2.51,0,4.55-2.07,4.55-4.6s-2.04-4.6-4.55-4.6-4.55,2.07-4.55,4.6,2.04,4.6,4.55,4.6Zm0-5.21c.3,0,.55.27.55.6s-.25.6-.55.6-.55-.27-.55-.6.25-.6.55-.6Z"/>
  <path d="m94.63,22.18c2.51,0,4.55-2.07,4.55-4.6s-2.04-4.6-4.55-4.6-4.55,2.07-4.55,4.6,2.04,4.6,4.55,4.6Zm0-5.21c.3,0,.55.27.55.6s-.25.6-.55.6-.55-.27-.55-.6.25-.6.55-.6Z"/>
  <path d="m30.05,31.13c0-2.54-2.04-4.6-4.55-4.6s-4.55,2.07-4.55,4.6,2.04,4.6,4.55,4.6,4.55-2.07,4.55-4.6Zm-5.1,0c0-.33.25-.6.55-.6s.55.27.55.6-.25.6-.55.6-.55-.27-.55-.6Z"/>
  <path d="m57.8,31.13c0-2.54-2.04-4.6-4.55-4.6s-4.55,2.07-4.55,4.6,2.04,4.6,4.55,4.6,4.55-2.07,4.55-4.6Zm-5.1,0c0-.33.25-.6.55-.6s.55.27.55.6-.25.6-.55.6-.55-.27-.55-.6Z"/>
  <path d="m85.99,31.13c0-2.54-2.04-4.6-4.55-4.6s-4.55,2.07-4.55,4.6,2.04,4.6,4.55,4.6,4.55-2.07,4.55-4.6Zm-5.1,0c0-.33.25-.6.55-.6s.55.27.55.6-.25.6-.55.6-.55-.27-.55-.6Z"/>
  <path d="m81.06,99.37h-18.08v-5.38h.91v3.55h10.68v-14.14h-19.71l-8.61,15.97h-18.09v-5.38h.91v3.55h10.68v-14.14h-19.71l-9.42,17.47v9.14h98.76v-10.63h-11.59v-5.38h.91v3.55h10.68v-14.14h-19.71l-8.61,15.97Zm24.32-11.97v6.14h-2.68v-3.55h-8.91v13.38h11.59v2.63H14.62v-4.13l7.81-14.48h13.32v6.14h-2.68v-3.55h-8.91v13.38h24.47l8.61-15.97h13.32v6.14h-2.68v-3.55h-8.91v13.38h24.47l8.61-15.97h13.32Z"/>
</svg>