<?xml version="1.0" encoding="UTF-8"?>
<svg id="Livello_3" data-name="Livello 3" xmlns="http://www.w3.org/2000/svg" viewBox="0 0 120 120">
  <path d="m110.2,85.17v-43.01h-22.41v13.6h8.83v15.81h-18.85V26.66l-3.67-3.69-12.24-12.69c-.47-.49-1.12-.75-1.8-.71-.67.03-1.3.36-1.72.89l-11.96,15.22c-.56.72-.67,1.67-.27,2.49.4.81,1.2,1.32,2.1,1.32h15.8v4.47H10.2v42.65l23.1.39.23-13.6-9.75-.17v-15.68h18.97v44.92l2.88,2.86,13.04,13.51c.44.46,1.05.72,1.68.72.04,0,.08,0,.12,0,.67-.03,1.3-.36,1.72-.89l11.96-15.22c.56-.72.67-1.67.27-2.49-.4-.81-1.2-1.32-2.1-1.32h-15.8v-4.47h53.7Zm-41.3,8.47l-8.69,11.05-11.74-12.17-1.73-1.72v-47.26h-26.97v23.61l9.69.16-.09,5.6-15.17-.26v-34.72h53.83v-12.47h-16.4l8.69-11.05,10.94,11.34,2.53,2.54v47.26h26.85v-23.81h-8.83v-5.6h14.41v35.01h-53.7v12.47h16.4Z"/>
  <path d="m68.03,43.55h-15.52v32.02h15.52v-32.02Zm-4,28.02h-7.52v-24.02h7.52v24.02Z"/>
</svg>