<?xml version="1.0" encoding="UTF-8"?>
<svg id="Livello_3" data-name="Livello 3" xmlns="http://www.w3.org/2000/svg" viewBox="0 0 120 120">
  <path d="m109.75,49.61l-9.18-18.11c-.47-.92-1.49-1.4-2.49-1.16-.73.17-1.29.7-1.55,1.37l-12.02,19.57V10h-4v44.62h-3.87V10h-4v44.62h-3.19V10h-4v44.62h-3.27V10h-4v44.62h-3.87V10h-4v44.62h-3.19V10h-4v44.62h-3.87V10h-4v40.86l-11.76-19.15c-.26-.67-.83-1.19-1.55-1.37-1-.24-2.02.24-2.49,1.16l-9.18,18.11c-.44.86-.28,1.91.39,2.6l9.11,9.35c.44.45,1.02.69,1.61.69.28,0,.57-.05.85-.17.87-.35,1.42-1.19,1.42-2.13v-20.35l11.29,18.38v49.74c0,1.25,1.02,2.27,2.27,2.27h45.63c1.25,0,2.27-1.02,2.27-2.27v-49.74l11.29-18.38v20.35c0,.94.56,1.78,1.42,2.13.28.11.56.17.85.17.6,0,1.18-.24,1.61-.69l9.11-9.36c.67-.69.83-1.74.39-2.6Zm-90.12,6.11l-5.26-5.4,5.26-10.36v15.77Zm61.45,50.28h-42.16v-47.38h42.16v47.38Zm19.29-50.28v-15.77l5.26,10.36-5.26,5.4Z"/>
</svg>