<svg id="Symbols" xmlns="http://www.w3.org/2000/svg" viewBox="0 0 150 150"><path d="M118.82,51.35a3.67,3.67,0,0,0-3.52-3.22H115a3.08,3.08,0,0,0-2.79,3.21,36.17,36.17,0,0,1-.67,7.11,27.61,27.61,0,0,1-7,13.82,18,18,0,0,1-1.72,1.56c-.38.31-.88.68-1.28,1a53.26,53.26,0,0,0-19.77,28.61,18.83,18.83,0,0,1,3.58-1.82c.35-.14.58-.21.78-.27,0,0,.6-.21,1.19-.35a18.81,18.81,0,0,1,3.19-.54l.34,0,.55,0s.19,0,.49,0l.6,0c-.38.9-.74,1.82-1.07,2.79a14.57,14.57,0,0,1,4-.8s.2,0,.6,0h.49l.49,0c.3,0,.6,0,.9.07l1.45.17-.68,1.3c-.21.4-.43.79-.65,1.18l1.22-.11s.57,0,1.08,0h1c.75,0,1.5,0,2.24.09l.52,0s.77,0,1,.1a2.48,2.48,0,0,1,.57.14c-.13.32-.24.59-.36.92h.29a6.26,6.26,0,0,1,2.57.55,4.66,4.66,0,0,1,.88.49l.43.3a6.26,6.26,0,0,1,2.28,3.78,12.89,12.89,0,0,0,8.77-12.21q0-.44,0-.87a9.63,9.63,0,0,0,5.22-8.57,9.47,9.47,0,0,0-.47-3,16.89,16.89,0,0,0,0-18.82,6.41,6.41,0,0,1-5.67,3.71,6,6,0,0,1-1-.07,3,3,0,0,1-1.93-1.17c-1-1.54-.31-3.21,1.56-4.28a13.35,13.35,0,0,0,4.2-3.15c2.54-2.78,3.41-6.15,1.83-7.65a2.75,2.75,0,0,0-1.88-.73,2.23,2.23,0,0,0-.68.09c-1,.25-1,.62-1.8,1.13a7.14,7.14,0,0,1-1.53.72A9.74,9.74,0,0,0,118.82,51.35Zm-1.21,28.11a15.88,15.88,0,0,0,2.07.14h.22a8.88,8.88,0,0,1-1.21,2.64,8,8,0,0,0-1,6.94,1.69,1.69,0,0,1,.08.5,1.66,1.66,0,0,1-.89,1.47,8,8,0,0,0-4.31,7.62c0,.12,0,.23,0,.35a4.78,4.78,0,0,1-.08.84,11.7,11.7,0,0,0-1.1-.54c-.15-.07-.31-.14-.48-.2a7.79,7.79,0,0,0-2.32-1.39,10.88,10.88,0,0,0-2-.54,13.39,13.39,0,0,0-1.35-.17,8,8,0,0,0-4.87-2.43l-1.47-.17c-.34,0-.68-.08-1-.1a7.85,7.85,0,0,0-2.56-1.54,45.49,45.49,0,0,1,11-11.63l.16-.11c.44-.33,1-.73,1.5-1.16a22.67,22.67,0,0,0,2.55-2.35c.34-.38.68-.76,1-1.15A11.13,11.13,0,0,0,117.61,79.46Z"/><path d="M64.88,109.32a2.48,2.48,0,1,0,2.48,2.48A2.48,2.48,0,0,0,64.88,109.32Zm0,3.22a.75.75,0,1,1,.75-.74A.75.75,0,0,1,64.88,112.54Z"/><path d="M20.76,77.4a2,2,0,0,0,2.59,1.13.47.47,0,0,1,.64.28,101.31,101.31,0,0,0,10.82,21l.19.26a2.55,2.55,0,0,0-.17.33l-1.06,2.71-5.82,1a2,2,0,0,0,.34,4,2.07,2.07,0,0,0,.35,0l6.92-1.2a2,2,0,0,0,1.52-1.24l.72-1.84,1.27,1.56a.59.59,0,0,0,0,.08L38,108.13l-5.81,1a2,2,0,0,0,.34,4l.35,0,6.92-1.2a2,2,0,0,0,1.52-1.24l.77-2c.58.62,1.18,1.23,1.79,1.84l-1,2.5L37,114a2,2,0,0,0,.34,4,2.07,2.07,0,0,0,.35,0l6.92-1.2a2,2,0,0,0,1.52-1.24l.8-2c1.55,1.41,3.18,2.78,4.87,4.1a2,2,0,1,0,2.47-3.14A79.06,79.06,0,0,1,38.1,97.52,97,97,0,0,1,27.71,77.35a4.45,4.45,0,0,0-4.18-2.86,4.63,4.63,0,0,0-1.64.31A2,2,0,0,0,20.76,77.4Z"/><path d="M53.6,31.37a13.77,13.77,0,0,0-10.32-3.45,16.28,16.28,0,0,0-1.69.22A13.54,13.54,0,0,0,34,32.41a12.55,12.55,0,0,0-3.17,8.33c0,.31,0,.62,0,.92a11.07,11.07,0,0,0,5.44,8.63,9.33,9.33,0,0,0,5.12,1,10.42,10.42,0,0,0,3.72-1,7.79,7.79,0,0,0,3.17-2.67,4,4,0,0,0-6.54-4.59l-.09,0a2.5,2.5,0,0,1-.9.21h-.17a2.25,2.25,0,0,1-.48-.06,3.23,3.23,0,0,1-1.29-2.21,2,2,0,0,1,0-.25A4.62,4.62,0,0,1,40,37.71,5.54,5.54,0,0,1,43.07,36c.28,0,.55-.08.8-.1a5.81,5.81,0,0,1,4.38,1.41,8.55,8.55,0,0,1,2.43,5.77,47.19,47.19,0,0,1-.45,9.15c-.29,1.77-.46,3-.53,3.44a4,4,0,0,0,3.41,4.51,3.52,3.52,0,0,0,.56,0,4,4,0,0,0,3.95-3.44c.07-.46.23-1.59.51-3.31a55.3,55.3,0,0,0,.54-10.77c0-.06,0-.11,0-.17C58.21,36.68,55.67,33.24,53.6,31.37Z"/><path d="M21.8,64.64A13.87,13.87,0,0,1,26.25,68c2.62,3.09,3.63,7.72,5.23,12.46a62,62,0,0,0,2.45,6.28s.45,1,.75,1.55.61,1.18.93,1.77c0,0,.48.87.83,1.47l0,.07c1,1.66,2,3.3,3.11,4.89a76.76,76.76,0,0,0,15,15.89,11.37,11.37,0,0,1,.23-1.88c.09-.47.3-1.12.3-1.12a9.79,9.79,0,0,1,.65-1.52,11,11,0,0,1,.59-1A9.68,9.68,0,0,1,57,106a11,11,0,0,1,1.8-1.74c.25-.19.5-.38.77-.55a6.63,6.63,0,0,1,.86-.51,13.07,13.07,0,0,1,2.44-1,5.92,5.92,0,0,1,1-.26,13.07,13.07,0,0,1,1.52-.27l.28,0a7.56,7.56,0,0,1,1-.07h.63l.78,0c.18,0,.38,0,.58,0a5.77,5.77,0,0,1,1.08.16,11.59,11.59,0,0,1,1.51.4l.35.12a6.56,6.56,0,0,1,1.11.5c.31.16.63.34.94.54a10.12,10.12,0,0,1,.92.65,6.71,6.71,0,0,1,1.07,1,12.08,12.08,0,0,1,1.26,1.64,6.32,6.32,0,0,1,.45.85c.32-.32,1-1.15,1-1.15a20,20,0,0,1,2.22-2,53.94,53.94,0,0,1,5.84-14.16c.12-.2.27-.47.48-.81a13.31,13.31,0,0,1-7.5-9.41.71.71,0,0,0-.71-.83,13.3,13.3,0,0,1-9.24-7.46,1.4,1.4,0,0,0-.81-.74,15.53,15.53,0,0,1-10-6.95,3.38,3.38,0,0,1-.84-1.15,10.23,10.23,0,0,0-7.92-.5,10.45,10.45,0,0,0-12.7-.93A11.11,11.11,0,0,0,21.8,64.64Zm15.36,4.74a7.94,7.94,0,0,0,4.41-1.33,2.41,2.41,0,0,1,1.33-.39,2.34,2.34,0,0,1,1.62.62,8,8,0,0,0,5.34,2,7.75,7.75,0,0,0,2.64-.45,2.71,2.71,0,0,1,.41-.09,23.67,23.67,0,0,0,10.8,8,21.45,21.45,0,0,0,9.06,7.74,21.28,21.28,0,0,0,3.86,6c-.54,1.16-1,2.33-1.5,3.52l-.95-.37-.45-.14A19.14,19.14,0,0,0,71.48,94a14.62,14.62,0,0,0-2.09-.33c-.38,0-.73-.06-1.06-.07s-.71,0-1.06,0h-.63a15.22,15.22,0,0,0-1.89.12l-.38,0c-.71.08-1.43.21-2.13.36a17.44,17.44,0,0,0-1.8.49,21.62,21.62,0,0,0-3.74,1.58,14.91,14.91,0,0,0-1.56.93c-.39.26-.78.54-1.22.87a20.9,20.9,0,0,0-1.66,1.44,63.83,63.83,0,0,1-6.1-7.46c-.95-1.36-1.88-2.83-2.77-4.35h0a.41.41,0,0,0-.05-.09c-.29-.5-.69-1.22-.7-1.25-.3-.55-.56-1-.8-1.51l0,0c-.25-.48-.61-1.26-.61-1.26a57,57,0,0,1-2.14-5.5c-.31-.92-.61-1.87-.9-2.8-.6-1.92-1.21-3.88-2-5.78A8.22,8.22,0,0,0,37.16,69.38Z"/><path d="M94.24,45.76a5.19,5.19,0,0,1-1,.19,12.39,12.39,0,0,0-11.93-9.39,20.38,20.38,0,0,0-25.6-13.69A54.35,54.35,0,0,1,61,46.3a60.24,60.24,0,0,1-1.21,11.55l-.4,1.77c-.17.89-.33,1.83-.49,2.74A14.55,14.55,0,0,0,69.31,70l.56.1.2.52a12.3,12.3,0,0,0,9.34,7.62l.72.12.1.72A12.3,12.3,0,0,0,86.41,88s.65.31,1,.46c.3-.46.63-1,.81-1.22l.59-.84h0a54.31,54.31,0,0,1,13.68-13.45,16.28,16.28,0,0,0,1.33-1.32A26.51,26.51,0,0,0,111,53.49a3.91,3.91,0,0,1-5-5.71,37.14,37.14,0,0,1,4.79-5,2.94,2.94,0,0,0,.51-4,2.69,2.69,0,0,0-2.18-1,4.06,4.06,0,0,0-1.86.46,4.74,4.74,0,0,0-1.61,1.18,13,13,0,0,0-.3-5.3c-.81-3.06-2-4.63-4.27-4.63l-.43,0a3.88,3.88,0,0,0-3.62,4.06,3.82,3.82,0,0,0,.25,1.17,10.26,10.26,0,0,1-3.06,11ZM97.7,53A12,12,0,0,0,102,59.46a18.59,18.59,0,0,1-4,6.68l-.1.11a5,5,0,0,1-.39.4,62.67,62.67,0,0,0-10,8.68,8,8,0,0,0-6.1-4.87l-.69-.11a4.3,4.3,0,0,1-3.23-2.65l-.19-.48a8,8,0,0,0-6.06-5l-.55-.1h-.06a6.45,6.45,0,0,1-3.28-1.62l.2-.86a1,1,0,0,1,0-.17A68.9,68.9,0,0,0,69,46.3a62.24,62.24,0,0,0-1.83-15.1,12.42,12.42,0,0,1,6.48,7.61,8,8,0,0,0,7.61,5.75,4.39,4.39,0,0,1,4.23,3.33A8,8,0,0,0,93.24,54l.71,0a13.87,13.87,0,0,0,2.76-.55A8.53,8.53,0,0,0,97.7,53Z"/><path d="M101.89,117.07v0a14.71,14.71,0,0,0,3.79.67h.23a5.19,5.19,0,0,0,5-5.26,5.25,5.25,0,0,0-5.25-5.26c-.27,0-1.41.09-2.72.09h-.39c.33-.41.65-.84,1-1.27-.72-.06-1.44-.08-2.17-.08a29.59,29.59,0,0,0-3.9.26l-1.3.14q.92-1.4,1.71-2.88a14.12,14.12,0,0,0-1.59-.09,13.59,13.59,0,0,0-5.78,1.28,14.07,14.07,0,0,0-1.44.72,38.6,38.6,0,0,0,1.59-3.94,18.11,18.11,0,0,0-12.87,7.07h-.07l0,0-.73.9a9.39,9.39,0,0,0-3.94-5.25,10.59,10.59,0,0,0-5.83-1.64h-.13a12.62,12.62,0,0,0-7.7,2.52,10.05,10.05,0,0,0-2.75,3.26,9.45,9.45,0,0,0-1,3.84,6.31,6.31,0,0,0,.08,1,5.59,5.59,0,0,0,.64,1.61h0a.74.74,0,0,0-.58.71.77.77,0,0,0,.28.57,8.25,8.25,0,0,0-3.44,5.71,5.49,5.49,0,0,0,5.45,6.5,4.56,4.56,0,0,0,2.39-.63,3.75,3.75,0,0,0,1.83-2.82,3.92,3.92,0,0,0-.55-2.65,3.58,3.58,0,0,0-2.61-1.55,2,2,0,0,0-1.38,3.62,1.84,1.84,0,0,1-1.16-2A4.27,4.27,0,0,1,60,118.64a1.85,1.85,0,0,0,.62-.23,13,13,0,0,0,3.6.82.34.34,0,0,0,.14,0,2.6,2.6,0,0,0,.4,0H65c.21,0,.41,0,.62,0h.75a56,56,0,0,0,10.13-1.17l0,0a2,2,0,0,0,0,3.41c.06,0,5.92,3.64,8.76,7.6a2,2,0,0,0,1.63.84,1.94,1.94,0,0,0,1.16-.38,2,2,0,0,0,.46-2.79,34.33,34.33,0,0,0-7.58-7.11c1.09-1,1.93-2,2.08-2.14a2,2,0,0,0,.42-.84c1.12-.21,2.14-.38,3-.47a11.17,11.17,0,0,1-1.17.88,2,2,0,0,0,0,3.41c.05,0,5.91,3.64,8.76,7.6a2,2,0,0,0,1.62.84,2,2,0,0,0,1.17-.38,2,2,0,0,0,.46-2.79,34.55,34.55,0,0,0-7.58-7.11,26.89,26.89,0,0,0,2.07-2.14,1.59,1.59,0,0,0,.31-.51c.78,0,1.56,0,2.32.07l-.32.22a2,2,0,0,0,0,3.41s4.54,2.8,6.7,5.81A2,2,0,0,0,104,123.3,26,26,0,0,0,98.42,118c.65-.64,1.12-1.17,1.24-1.31C100.52,116.78,101.28,116.92,101.89,117.07ZM77.8,108.54v0s0,0,0,0ZM66,115.33h-.92l-.23,0-.25,0a6.48,6.48,0,0,1-4.4-1.83l-.05-.06a2.91,2.91,0,0,1-.36-.52,1.65,1.65,0,0,1-.19-.41.81.81,0,0,1,0-.15,5.28,5.28,0,0,1,.59-2.11,6.19,6.19,0,0,1,1.65-1.94,8.61,8.61,0,0,1,5.26-1.69h.3a6.61,6.61,0,0,1,3.53,1,5.27,5.27,0,0,1,1.65,1.7,5.32,5.32,0,0,1,.58,1.29,4,4,0,0,0,3,2.79,3.56,3.56,0,0,0,.8.08A4,4,0,0,0,80.12,112l.37-.45a4.05,4.05,0,0,0,.78-1,14,14,0,0,1,4.18-3.46,4,4,0,0,0,.94,1.25,4,4,0,0,0,4.71.48,10.33,10.33,0,0,1,1-.48l.13-.07.38-.16c0,.11.11.21.17.32a4,4,0,0,0,3.41,1.91,3,3,0,0,0,.43,0l1.3-.14H98c.54-.07,1.08-.13,1.62-.17a4,4,0,0,0,2.89,1.29H103c1,0,1.9,0,2.43-.07l.29,0a1.26,1.26,0,0,1,1.25,1.26,1.22,1.22,0,0,1-1.06,1.26h0a10.66,10.66,0,0,1-2.78-.49,3.92,3.92,0,0,0-.66-.15,58.4,58.4,0,0,0-11.36-1c-1.69,0-3.24.06-4.63.18a66.39,66.39,0,0,0-7,1.21,68.8,68.8,0,0,1-13,1.83Z"/></svg>