<svg id="Symbols" xmlns="http://www.w3.org/2000/svg" viewBox="0 0 150 150"><defs><style>.cls-1{fill:#221f20;}</style></defs><path class="cls-1" d="M75,39.28a2.28,2.28,0,1,1-2.28,2.28A2.28,2.28,0,0,1,75,39.28m0-3.71a6,6,0,1,0,6,6,6,6,0,0,0-6-6"/><path class="cls-1" d="M75,27.71a4.46,4.46,0,0,1,4.42,3.87l0,.15a6.47,6.47,0,0,0,6.39,5.37h5.89a4.46,4.46,0,0,1,0,8.92H90a9.39,9.39,0,1,0,0,18.77h12.53a19.61,19.61,0,0,1,19.59,19.59v35.46a2.45,2.45,0,0,1-4.9,0V96.15a6.49,6.49,0,1,0-13,0v23.69a2.45,2.45,0,0,1-4.9,0V96.15a6.49,6.49,0,1,0-13,0v23.69a2.45,2.45,0,1,1-4.89,0V96.15a6.49,6.49,0,1,0-13,0v23.69a2.45,2.45,0,1,1-4.89,0V96.15a6.49,6.49,0,1,0-13,0v23.69a2.45,2.45,0,0,1-4.9,0V96.15a6.49,6.49,0,1,0-13,0v23.69a2.45,2.45,0,0,1-4.9,0V84.38A19.61,19.61,0,0,1,47.46,64.79H60A9.39,9.39,0,1,0,60,46H58.27a4.46,4.46,0,0,1,0-8.92h5.89a6.49,6.49,0,0,0,6.4-5.37.77.77,0,0,1,0-.15A4.46,4.46,0,0,1,75,27.71M75,24a8.17,8.17,0,0,0-8.1,7.09,2.77,2.77,0,0,1-2.74,2.3H58.27a8.17,8.17,0,0,0,0,16.34H60a5.68,5.68,0,1,1,0,11.35H47.46a23.3,23.3,0,0,0-23.3,23.3v35.46a6.16,6.16,0,1,0,12.32,0V96.15a2.78,2.78,0,0,1,5.56,0v23.69a6.16,6.16,0,1,0,12.31,0V96.15a2.78,2.78,0,1,1,5.56,0v23.69a6.16,6.16,0,1,0,12.31,0V96.15a2.78,2.78,0,0,1,5.56,0v23.69a6.16,6.16,0,1,0,12.31,0V96.15a2.78,2.78,0,0,1,5.56,0v23.69a6.16,6.16,0,1,0,12.31,0V96.15a2.78,2.78,0,0,1,5.56,0v23.69a6.16,6.16,0,1,0,12.32,0V84.38a23.3,23.3,0,0,0-23.3-23.3H90a5.68,5.68,0,1,1,0-11.35h1.72a8.17,8.17,0,1,0,0-16.34H85.84a2.77,2.77,0,0,1-2.74-2.3A8.17,8.17,0,0,0,75,24"/><path class="cls-1" d="M75,24a8.17,8.17,0,0,1,8.1,7.09,2.77,2.77,0,0,0,2.74,2.3h5.89a8.17,8.17,0,1,1,0,16.34H90a5.68,5.68,0,1,0,0,11.35h12.53a23.3,23.3,0,0,1,23.3,23.3v35.46a6.16,6.16,0,1,1-12.32,0V96.15a2.78,2.78,0,0,0-5.56,0v23.69a6.16,6.16,0,1,1-12.31,0V96.15a2.78,2.78,0,0,0-5.56,0v23.69a6.16,6.16,0,1,1-12.31,0V96.15a2.78,2.78,0,0,0-5.56,0v23.69a6.16,6.16,0,1,1-12.31,0V96.15a2.78,2.78,0,1,0-5.56,0v23.69a6.16,6.16,0,1,1-12.31,0V96.15a2.78,2.78,0,0,0-5.56,0v23.69a6.16,6.16,0,1,1-12.32,0V84.38a23.3,23.3,0,0,1,23.3-23.3H60a5.68,5.68,0,1,0,0-11.35H58.27a8.17,8.17,0,0,1,0-16.34h5.89a2.77,2.77,0,0,0,2.74-2.3A8.17,8.17,0,0,1,75,24m0-3.71a11.91,11.91,0,0,0-11.61,9.39H58.27a11.88,11.88,0,0,0,0,23.75H60a2,2,0,0,1,0,4H47.46a27,27,0,0,0-27,27v35.46A9.86,9.86,0,0,0,39.26,124a9.86,9.86,0,0,0,17.87,0A9.86,9.86,0,0,0,75,124a9.86,9.86,0,0,0,17.87,0,9.86,9.86,0,0,0,17.87,0,9.86,9.86,0,0,0,18.8-4.18V84.38a27,27,0,0,0-27-27H90a2,2,0,0,1,0-4h1.72a11.88,11.88,0,0,0,0-23.75H86.61A11.91,11.91,0,0,0,75,20.29"/></svg>