<svg id="Symbols" xmlns="http://www.w3.org/2000/svg" viewBox="0 0 150 150"><defs><style>.cls-1{fill:#221f20;}</style></defs><path class="cls-1" d="M75,76.94a3.59,3.59,0,1,1-3.59,3.59A3.59,3.59,0,0,1,75,76.94m0-4a7.59,7.59,0,1,0,7.59,7.59A7.59,7.59,0,0,0,75,72.94Z"/><path class="cls-1" d="M75,32.94c1.34,1,2.91,2.22,4.71,3.52,6.11,4.41,6.83,5.06,7.73,7a4.72,4.72,0,0,1,.5,2.06,7.21,7.21,0,0,1-1.62,4.06L82,55.49a9,9,0,0,0-14,0l-4.31-5.92a7.19,7.19,0,0,1-1.62-4.07,4.72,4.72,0,0,1,.5-2.06c.9-1.92,1.62-2.57,7.72-7,1.81-1.3,3.38-2.48,4.72-3.52m0-10.33c-.85.74-4,3.49-9.4,7.37C59.26,34.56,57.16,36.13,55.32,40a12.84,12.84,0,0,0-1.26,5.47,14.75,14.75,0,0,0,3.15,8.76l13,17.9A9.53,9.53,0,0,1,74,70.94V61.19a1,1,0,0,1,2.08,0v9.75a9.53,9.53,0,0,1,3.75,1.22l13-17.9a14.75,14.75,0,0,0,3.15-8.76A12.84,12.84,0,0,0,94.68,40c-1.84-3.9-3.94-5.47-10.28-10C79,26.1,75.85,23.35,75,22.61Z"/><path class="cls-1" d="M44.29,57.19a4.45,4.45,0,0,1,1.39.21A7.17,7.17,0,0,1,49,60.19l4.31,5.93A9,9,0,0,0,49,79.46l-7,2.27a9.4,9.4,0,0,1-2.85.51,4.5,4.5,0,0,1-3.32-1.34c-1.55-1.45-1.94-2.34-4.25-9.5-.68-2.12-1.32-4-1.9-5.58,1.41-.95,3-2.08,4.81-3.39,6.08-4.44,6.93-4.93,9-5.2a6.18,6.18,0,0,1,.73,0m0-8a14,14,0,0,0-1.73.11c-4.27.54-6.42,2.06-12.74,6.67-5.34,3.91-8.94,6.09-9.91,6.66.45,1,2.07,4.91,4.1,11.22,2.4,7.44,3.25,9.93,6.39,12.88a12.82,12.82,0,0,0,4.82,2.9,13,13,0,0,0,4,.61,17.38,17.38,0,0,0,5.32-.9l21-6.84a9.51,9.51,0,0,1,0-3.94l-9.27-3a1,1,0,0,1,.32-2,1.19,1.19,0,0,1,.32,0l9.27,3a9.64,9.64,0,0,1,2.32-3.18l-13-17.9a14.76,14.76,0,0,0-7.35-5.7,12.41,12.41,0,0,0-3.87-.6Z"/><path class="cls-1" d="M54.61,96.67a9.09,9.09,0,0,0,3.73,6.84,9,9,0,0,0,7.62,1.4v7.32a7.28,7.28,0,0,1-1.08,4.25,4.76,4.76,0,0,1-1.61,1.37C61.7,118.71,61,119,54.6,119H52.36c-2,0-3.78,0-5.33.08-.48-1.63-1.05-3.51-1.75-5.63-2.34-7.15-2.54-8.1-2.15-10.18a4.7,4.7,0,0,1,.81-2,7.21,7.21,0,0,1,3.7-2.34l7-2.26M66.2,84.49l-21,6.84a14.75,14.75,0,0,0-7.69,5.23,12.79,12.79,0,0,0-2.2,5.17c-.8,4.23,0,6.75,2.41,14.18,2.07,6.29,3,10.38,3.27,11.48,1.1-.1,5.09-.43,11.41-.43H54.6c6.52,0,9-.18,12.52-2.09a13.11,13.11,0,0,0,4.24-3.69,14.85,14.85,0,0,0,2.6-8.94V90.12a9.52,9.52,0,0,1-3.75-1.22l-5.73,7.89a1.05,1.05,0,0,1-.85.43A1.08,1.08,0,0,1,63,97a1,1,0,0,1-.23-1.46l5.73-7.89a9.55,9.55,0,0,1-2.32-3.18Z"/><path class="cls-1" d="M95.39,96.67l7,2.26a7.26,7.26,0,0,1,3.7,2.33,4.81,4.81,0,0,1,.81,2c.4,2.09.19,3-2.15,10.19-.69,2.12-1.27,4-1.74,5.62-1.56,0-3.35-.08-5.36-.08H95.35c-6.32,0-7-.25-8.61-1.11a4.8,4.8,0,0,1-1.62-1.37,7.19,7.19,0,0,1-1.07-4.24v-7.33a9,9,0,0,0,11.34-8.24M83.8,84.49a9.55,9.55,0,0,1-2.32,3.18l5.73,7.89A1,1,0,0,1,87,97a1.08,1.08,0,0,1-.61.2,1.05,1.05,0,0,1-.85-.43L79.79,88.9a9.52,9.52,0,0,1-3.74,1.22v22.12a14.71,14.71,0,0,0,2.6,8.94,13,13,0,0,0,4.23,3.69c3.49,1.91,6,2.09,12.47,2.09h2.27c6.33,0,10.33.34,11.43.44.24-1.1,1.21-5.19,3.27-11.48,2.44-7.43,3.21-10,2.41-14.18a12.73,12.73,0,0,0-2.2-5.17,14.75,14.75,0,0,0-7.69-5.23l-21-6.84Z"/><path class="cls-1" d="M105.71,57.19a5.9,5.9,0,0,1,.72,0c2.1.27,2.95.76,9,5.2,1.79,1.31,3.4,2.44,4.81,3.39-.58,1.6-1.22,3.46-1.9,5.58-2.31,7.16-2.7,8-4.25,9.5a4.49,4.49,0,0,1-3.31,1.34,9.3,9.3,0,0,1-2.85-.51l-7-2.27a9,9,0,0,0-4.33-13.34L101,60.2a7.14,7.14,0,0,1,3.37-2.8,4.45,4.45,0,0,1,1.39-.21m0-8a12.37,12.37,0,0,0-3.87.6,14.76,14.76,0,0,0-7.35,5.7l-13,17.9a9.58,9.58,0,0,1,2.32,3.19l9.27-3a1.25,1.25,0,0,1,.32,0,1,1,0,0,1,.32,2l-9.27,3a9.51,9.51,0,0,1,0,3.94l21,6.84a17.39,17.39,0,0,0,5.33.9,12.6,12.6,0,0,0,8.79-3.51c3.14-3,4-5.44,6.39-12.88,2-6.31,3.65-10.18,4.1-11.22-1-.57-4.56-2.75-9.91-6.66-6.32-4.61-8.47-6.13-12.74-6.67a14,14,0,0,0-1.73-.11Z"/></svg>