<svg id="Symbols" xmlns="http://www.w3.org/2000/svg" viewBox="0 0 150 150"><defs><style>.cls-1{fill:#221f20;}</style></defs><path class="cls-1" d="M75.07,31.63l16.84,9.72V60.8L75.07,70.52,58.23,60.8V41.35l16.84-9.72m0-9.23-4,2.3L54.23,34.43l-4,2.3V65.42l4,2.31,16.84,9.72,4,2.31,4-2.31,16.84-9.72,4-2.31V36.73l-4-2.3L79.07,24.7l-4-2.3Z"/><path d="M77,51.2a2,2,0,1,1-2-2,2,2,0,0,1,2,2Z"/><path d="M80,44.55a1.93,1.93,0,0,1-.27,1,2.13,2.13,0,0,1-.49.58l-2.67,2a1.9,1.9,0,0,0-.44-.3V46.11a1.11,1.11,0,1,0-2.22,0v1.82a1.86,1.86,0,0,0-.32.23l-2.67-2a2.35,2.35,0,0,1-.5-.58,2,2,0,0,1,.75-2.75,1.93,1.93,0,0,1,1-.27,2.24,2.24,0,0,1,.57.08l.17,0v-.18a2.16,2.16,0,0,1,.65-1.5,2.2,2.2,0,0,1,1.52-.62,2.18,2.18,0,0,1,2.17,2.12v.18l.17,0a2.12,2.12,0,0,1,.57-.08,1.9,1.9,0,0,1,1,.27A2,2,0,0,1,80,44.55Z"/><path d="M68.45,52.29h2.82l-3.34,2.55a2.57,2.57,0,0,1-1.5.47,2.61,2.61,0,0,1-2.61-2.37v-.12h-1a1.64,1.64,0,0,1,0-3.28h1v-.13a2.55,2.55,0,0,1,.84-1.68,2.6,2.6,0,0,1,3.27-.21l3.34,2.54H68.45a1.12,1.12,0,0,0,0,2.23Z"/><path d="M80,57.84a2,2,0,0,1-1,1.75,2,2,0,0,1-1,.27,2.12,2.12,0,0,1-.57-.08l-.17-.05v.17a2.14,2.14,0,0,1-.65,1.5,2.2,2.2,0,0,1-1.52.62A2.17,2.17,0,0,1,72.9,59.9v-.17l-.17.05a2.12,2.12,0,0,1-.57.08,2,2,0,0,1-1-.27,2,2,0,0,1-.75-2.75,2.18,2.18,0,0,1,.5-.58l2.67-2a1.44,1.44,0,0,0,.32.23v1.89a1.11,1.11,0,1,0,2.22,0V54.53a1.94,1.94,0,0,0,.44-.31l2.67,2a2,2,0,0,1,.49.58A1.91,1.91,0,0,1,80,57.84Z"/><path d="M89,51.19a1.63,1.63,0,0,1-1.64,1.64h-1V53a2.62,2.62,0,0,1-4.12,1.89l-3.35-2.56h2.72a1.12,1.12,0,1,0,0-2.23H78.89l3.32-2.53a2.57,2.57,0,0,1,1.5-.47,2.62,2.62,0,0,1,2.61,2.36v.13h1A1.64,1.64,0,0,1,89,51.19Z"/><path d="M104.58,98.77a2,2,0,1,1-2-2,2,2,0,0,1,2,2Z"/><path d="M107.52,92.13a1.93,1.93,0,0,1-.27,1,2.13,2.13,0,0,1-.49.58l-2.67,2a1.9,1.9,0,0,0-.44-.3V93.69a1.11,1.11,0,1,0-2.22,0v1.82a1.86,1.86,0,0,0-.32.23l-2.67-2a2.35,2.35,0,0,1-.5-.58,2,2,0,0,1,.75-2.75,1.93,1.93,0,0,1,1-.27,2.24,2.24,0,0,1,.57.08l.17,0v-.18a2.16,2.16,0,0,1,.65-1.5,2.2,2.2,0,0,1,1.52-.62,2.18,2.18,0,0,1,2.17,2.12v.18l.17,0a2.12,2.12,0,0,1,.57-.08,1.9,1.9,0,0,1,1,.27A2,2,0,0,1,107.52,92.13Z"/><path d="M96,99.87H98.8l-3.34,2.55a2.57,2.57,0,0,1-1.5.47,2.61,2.61,0,0,1-2.61-2.37v-.12h-1a1.64,1.64,0,0,1,0-3.28h1V97a2.55,2.55,0,0,1,.84-1.68,2.6,2.6,0,0,1,3.27-.21l3.34,2.54H96a1.12,1.12,0,0,0,0,2.23Z"/><path d="M107.52,105.42a2,2,0,0,1-1,1.75,2,2,0,0,1-1,.27,2.12,2.12,0,0,1-.57-.08l-.17,0v.17a2.14,2.14,0,0,1-.65,1.5,2.2,2.2,0,0,1-1.52.62,2.17,2.17,0,0,1-2.17-2.12v-.17l-.17,0a2.12,2.12,0,0,1-.57.08,2,2,0,0,1-1-.27,2,2,0,0,1-.75-2.75,2.18,2.18,0,0,1,.5-.58l2.67-2a1.44,1.44,0,0,0,.32.23v1.89a1.11,1.11,0,0,0,2.22,0v-1.81a1.94,1.94,0,0,0,.44-.31l2.67,2a2,2,0,0,1,.49.58A1.91,1.91,0,0,1,107.52,105.42Z"/><path d="M116.48,98.77a1.63,1.63,0,0,1-1.64,1.64h-1v.13a2.62,2.62,0,0,1-4.12,1.89l-3.35-2.56h2.72a1.12,1.12,0,1,0,0-2.23h-2.68l3.32-2.53a2.57,2.57,0,0,1,1.5-.47A2.62,2.62,0,0,1,113.85,97v.13h1A1.64,1.64,0,0,1,116.48,98.77Z"/><path d="M49.51,98.77a2,2,0,1,1-2-2,2,2,0,0,1,2,2Z"/><path d="M52.45,92.13a1.93,1.93,0,0,1-.27,1,2.13,2.13,0,0,1-.49.58l-2.67,2a1.9,1.9,0,0,0-.44-.3V93.69a1.11,1.11,0,1,0-2.22,0v1.82a1.86,1.86,0,0,0-.32.23l-2.67-2a2.35,2.35,0,0,1-.5-.58,2,2,0,0,1,.75-2.75,1.93,1.93,0,0,1,1-.27,2.24,2.24,0,0,1,.57.08l.17,0v-.18a2.16,2.16,0,0,1,.65-1.5,2.2,2.2,0,0,1,1.52-.62,2.18,2.18,0,0,1,2.17,2.12v.18l.17,0a2.12,2.12,0,0,1,.57-.08,1.9,1.9,0,0,1,1,.27A2,2,0,0,1,52.45,92.13Z"/><path d="M40.91,99.87h2.82l-3.34,2.55a2.57,2.57,0,0,1-1.5.47,2.61,2.61,0,0,1-2.61-2.37v-.12h-1a1.64,1.64,0,0,1,0-3.28h1V97a2.55,2.55,0,0,1,.84-1.68,2.6,2.6,0,0,1,3.27-.21l3.34,2.54H40.91a1.12,1.12,0,0,0,0,2.23Z"/><path d="M52.45,105.42a2,2,0,0,1-1,1.75,2,2,0,0,1-1,.27,2.12,2.12,0,0,1-.57-.08l-.17,0v.17a2.14,2.14,0,0,1-.65,1.5,2.2,2.2,0,0,1-1.52.62,2.17,2.17,0,0,1-2.17-2.12v-.17l-.17,0a2.12,2.12,0,0,1-.57.08,2,2,0,0,1-1-.27,2,2,0,0,1-.75-2.75,2.18,2.18,0,0,1,.5-.58l2.67-2a1.44,1.44,0,0,0,.32.23v1.89a1.11,1.11,0,0,0,2.22,0v-1.81a1.94,1.94,0,0,0,.44-.31l2.67,2a2,2,0,0,1,.49.58A1.91,1.91,0,0,1,52.45,105.42Z"/><path d="M61.41,98.77a1.63,1.63,0,0,1-1.64,1.64h-1v.13a2.62,2.62,0,0,1-4.12,1.89l-3.35-2.56H54a1.12,1.12,0,1,0,0-2.23H51.35l3.32-2.53a2.57,2.57,0,0,1,1.5-.47A2.62,2.62,0,0,1,58.78,97v.13h1A1.64,1.64,0,0,1,61.41,98.77Z"/><path class="cls-1" d="M102.6,79.32,119.44,89v19.45l-16.84,9.72-16.84-9.72V89l16.84-9.72m0-9.24-4,2.31L81.76,82.12l-4,2.31v28.68l4,2.31,16.84,9.72,4,2.31,4-2.31,16.84-9.72,4-2.31V84.43l-4-2.31L106.6,72.39l-4-2.31Z"/><path class="cls-1" d="M47.53,79.17l17,9.8v19.6l-17,9.8-17-9.8V89l17-9.8m0-9.24-4,2.31-17,9.8-4,2.31v28.84l4,2.31,17,9.8,4,2.3,4-2.3,17-9.8,4-2.31V84.35l-4-2.31-17-9.8-4-2.31Z"/></svg>