<svg id="Symbols" xmlns="http://www.w3.org/2000/svg" viewBox="0 0 150 150"><defs><style>.cls-1{fill:#221f20;}</style></defs><path class="cls-1" d="M75,28A47,47,0,1,1,28,75,47,47,0,0,1,75,28m0-8a55,55,0,1,0,55,55A55,55,0,0,0,75,20Z"/><path d="M77.36,75A2.36,2.36,0,1,1,75,72.64,2.36,2.36,0,0,1,77.36,75"/><path d="M55.86,114a43.14,43.14,0,0,0,15.7,4.3,3.59,3.59,0,0,1,.27-1.29,23.35,23.35,0,0,1-3-1.39,42,42,0,0,1-3.73-2.51,8,8,0,0,0-9.21.89Z"/><path d="M94.13,114a9.06,9.06,0,0,0-1.23-.87,8,8,0,0,0-8,0,43.23,43.23,0,0,1-3.74,2.51,23.3,23.3,0,0,1-3,1.39,3.49,3.49,0,0,1,.27,1.28A43,43,0,0,0,94.13,114Z"/><path d="M94.14,36a43.14,43.14,0,0,0-15.7-4.3A3.59,3.59,0,0,1,78.17,33a23.35,23.35,0,0,1,3,1.39,42,42,0,0,1,3.73,2.51A8,8,0,0,0,94.14,36Z"/><path d="M55.87,36a9.06,9.06,0,0,0,1.23.87,7.93,7.93,0,0,0,8,0,43.23,43.23,0,0,1,3.74-2.51,23.3,23.3,0,0,1,3-1.39,3.49,3.49,0,0,1-.27-1.28A43,43,0,0,0,55.87,36Z"/><path d="M118.31,72.09a42.91,42.91,0,0,0-4.13-15.74,3.23,3.23,0,0,1-1.25.41,21.46,21.46,0,0,1,.31,3.32,40.09,40.09,0,0,1-.31,4.49,8,8,0,0,0,4,6.89,7.74,7.74,0,0,0,1.38.63Z"/><path d="M99.18,39A8.31,8.31,0,0,0,99,40.46a8,8,0,0,0,4,6.91,41.92,41.92,0,0,1,4,2,21.55,21.55,0,0,1,2.72,1.93,3.54,3.54,0,0,1,1-.88A43.05,43.05,0,0,0,99.18,39Z"/><path d="M31.69,77.91a43.09,43.09,0,0,0,4.12,15.74,3.34,3.34,0,0,1,1.26-.41,21.46,21.46,0,0,1-.31-3.32,40.09,40.09,0,0,1,.31-4.49,8,8,0,0,0-4-6.89,7.74,7.74,0,0,0-1.38-.63Z"/><path d="M50.82,111.05a8.31,8.31,0,0,0,.14-1.51,8,8,0,0,0-4-6.91,41.92,41.92,0,0,1-4-2,21.55,21.55,0,0,1-2.72-1.93,3.69,3.69,0,0,1-1,.88,43.05,43.05,0,0,0,11.56,11.44Z"/><path d="M50.83,39A42.8,42.8,0,0,0,39.26,50.39a3.58,3.58,0,0,1,1,.88A21.55,21.55,0,0,1,43,49.34a40.8,40.8,0,0,1,4-2,8,8,0,0,0,4-6.91A8.31,8.31,0,0,0,50.83,39Z"/><path d="M31.69,72.08a7.74,7.74,0,0,0,1.38-.63,7.94,7.94,0,0,0,4-6.89,42.46,42.46,0,0,1-.31-4.49,24.6,24.6,0,0,1,.31-3.32,3.41,3.41,0,0,1-1.24-.4,42.81,42.81,0,0,0-4.13,15.73Z"/><path d="M99.17,111.05a42.8,42.8,0,0,0,11.57-11.44,3.58,3.58,0,0,1-1-.88,21.55,21.55,0,0,1-2.72,1.93,40.8,40.8,0,0,1-4,2,8,8,0,0,0-4,6.91,8.31,8.31,0,0,0,.14,1.51Z"/><path d="M118.31,77.92a7.74,7.74,0,0,0-1.38.63,7.94,7.94,0,0,0-4,6.89,42.46,42.46,0,0,1,.31,4.49,24.6,24.6,0,0,1-.31,3.32,3.41,3.41,0,0,1,1.24.4,42.81,42.81,0,0,0,4.13-15.73Z"/><path class="cls-1" d="M80,58.92a3.32,3.32,0,0,1,3.32,3.32A3.39,3.39,0,0,1,82,65c-.34.17-.62.29-.9.4a24.9,24.9,0,0,0-3,1.53c-.14.08-.28.16-.41.25A8.27,8.27,0,0,0,75,66.73a8.44,8.44,0,0,0-2.61.42L72,66.92A24,24,0,0,0,69,65.39c-.28-.12-.56-.24-.86-.39a3.38,3.38,0,0,1-1.44-2.76,3.33,3.33,0,0,1,5.62-2.41L75,62.42l2.74-2.6a3.33,3.33,0,0,1,2.28-.9m0-4a7.29,7.29,0,0,0-5,2,7.32,7.32,0,1,0-8.72,11.65A34.62,34.62,0,0,1,70,70.38a18.14,18.14,0,0,1,2.14,1.48A4.19,4.19,0,0,1,75,70.73a4.24,4.24,0,0,1,2.88,1.13A18.14,18.14,0,0,1,80,70.38a34.62,34.62,0,0,1,3.7-1.81A7.32,7.32,0,0,0,80,54.92Z"/><path class="cls-1" d="M77.36,31.51A2.36,2.36,0,1,0,75,33.87a2.36,2.36,0,0,0,2.36-2.36"/><path class="cls-1" d="M77.61,39.35l.39.23a23,23,0,0,0,3.06,1.54c.28.12.56.24.86.39a3.38,3.38,0,0,1,1.44,2.76,3.33,3.33,0,0,1-5.6,2.42L75,44.09l-2.75,2.58a3.32,3.32,0,0,1-5.62-2.4,3.39,3.39,0,0,1,1.4-2.74c.34-.17.62-.29.9-.41a23.08,23.08,0,0,0,3-1.52l.41-.24a8.44,8.44,0,0,0,2.61.42,8.16,8.16,0,0,0,2.61-.43m.27-4.7A4.24,4.24,0,0,1,75,35.78a4.19,4.19,0,0,1-2.87-1.13A18.14,18.14,0,0,1,70,36.13a34.62,34.62,0,0,1-3.7,1.81A7.32,7.32,0,1,0,75,49.59a7.32,7.32,0,1,0,8.71-11.65A34.62,34.62,0,0,1,80,36.13a18.14,18.14,0,0,1-2.14-1.48Z"/><path class="cls-1" d="M38.52,51.21a2.36,2.36,0,1,0,.86,3.23,2.36,2.36,0,0,0-.86-3.23"/><path class="cls-1" d="M50.81,52a3.49,3.49,0,0,1,1.76.45,3.32,3.32,0,0,1-.71,6.05l-3.61,1.08.86,3.67a3.37,3.37,0,0,1-.36,2.45,3.34,3.34,0,0,1-4.54,1.22,3.42,3.42,0,0,1-1.67-2.59c0-.38.06-.68.1-1a24.5,24.5,0,0,0,.19-3.39v-.47a8.28,8.28,0,0,0,2.61-4.53l.39-.22a23,23,0,0,0,2.86-1.88l.77-.55A2.63,2.63,0,0,1,50.81,52m0-4a6.54,6.54,0,0,0-3.55,1,33.81,33.81,0,0,1-3.41,2.3,19,19,0,0,1-2.35,1.11A4.25,4.25,0,0,1,41,55.39a4.18,4.18,0,0,1-2.41,1.92,17,17,0,0,1,.21,2.59A34.59,34.59,0,0,1,38.55,64,7.32,7.32,0,1,0,53,62.29a7.32,7.32,0,0,0,1.57-13.36,7.54,7.54,0,0,0-3.76-1Z"/><path class="cls-1" d="M36.15,94.7a2.36,2.36,0,1,0,3.23.86,2.36,2.36,0,0,0-3.23-.86"/><path class="cls-1" d="M45.86,82.68a3.31,3.31,0,0,1,2.88,1.66,3.28,3.28,0,0,1,.36,2.43l-.87,3.67,3.6,1.09a3.32,3.32,0,0,1,.73,6.07,3.54,3.54,0,0,1-1.76.45,2.59,2.59,0,0,1-1.31-.3c-.32-.21-.56-.39-.8-.57a25.15,25.15,0,0,0-2.84-1.87l-.41-.23a8.34,8.34,0,0,0-.94-2.47,8.15,8.15,0,0,0-1.68-2c0-.15,0-.3,0-.45a22.8,22.8,0,0,0-.2-3.42c0-.3-.07-.6-.09-.94a3.37,3.37,0,0,1,1.67-2.63,3.32,3.32,0,0,1,1.65-.44m0-4a7.23,7.23,0,0,0-3.65,1A7.3,7.3,0,0,0,38.54,86a32.32,32.32,0,0,1,.29,4.11,20.09,20.09,0,0,1-.21,2.59A4.24,4.24,0,0,1,41,94.61a4.18,4.18,0,0,1,.46,3,19,19,0,0,1,2.35,1.11,37.41,37.41,0,0,1,3.42,2.3,6.48,6.48,0,0,0,3.54,1,7.53,7.53,0,0,0,3.76-1A7.32,7.32,0,0,0,53,87.7a7.32,7.32,0,0,0-7.13-9Z"/><path class="cls-1" d="M72.64,118.49A2.36,2.36,0,1,0,75,116.13a2.36,2.36,0,0,0-2.36,2.36"/><path class="cls-1" d="M80,102.41a3.33,3.33,0,0,1,2.35,1,3.29,3.29,0,0,1,1,2.35,3.39,3.39,0,0,1-1.4,2.74c-.34.17-.62.29-.9.41a23.08,23.08,0,0,0-3,1.52l-.41.24a8.23,8.23,0,0,0-5.22,0l-.39-.23a25.58,25.58,0,0,0-3.06-1.55c-.28-.12-.56-.23-.86-.38a3.38,3.38,0,0,1-1.44-2.76,3.33,3.33,0,0,1,1-2.35,3.32,3.32,0,0,1,4.63-.06L75,105.9l2.75-2.57a3.35,3.35,0,0,1,2.3-.92h0m0-4a7.33,7.33,0,0,0-5,2,7.29,7.29,0,0,0-5-2h0a7.32,7.32,0,0,0-3.68,13.65,34.62,34.62,0,0,1,3.7,1.81,18.14,18.14,0,0,1,2.14,1.48A4.24,4.24,0,0,1,75,114.22h0a4.19,4.19,0,0,1,2.87,1.13A18.14,18.14,0,0,1,80,113.87a34.62,34.62,0,0,1,3.7-1.81A7.32,7.32,0,0,0,80,98.41Z"/><path class="cls-1" d="M111.48,98.79a2.36,2.36,0,1,0-.86-3.23,2.36,2.36,0,0,0,.86,3.23"/><path class="cls-1" d="M104.13,82.69a3.35,3.35,0,0,1,1.66.44,3.39,3.39,0,0,1,1.67,2.59c0,.37-.06.67-.1,1a24.44,24.44,0,0,0-.19,3.38v.48a8.37,8.37,0,0,0-2.61,4.53l-.39.22a24.56,24.56,0,0,0-2.87,1.88c-.24.18-.48.36-.76.55a2.63,2.63,0,0,1-1.35.31,3.49,3.49,0,0,1-1.76-.45,3.32,3.32,0,0,1-1.21-4.53,3.3,3.3,0,0,1,1.92-1.52l3.61-1.08-.86-3.67a3.37,3.37,0,0,1,.36-2.45,3.34,3.34,0,0,1,2.88-1.66m0-4a7.33,7.33,0,0,0-7.13,9,7.32,7.32,0,0,0-1.57,13.36,7.57,7.57,0,0,0,3.76,1,6.49,6.49,0,0,0,3.55-1,32.19,32.19,0,0,1,3.41-2.3,19,19,0,0,1,2.35-1.11,4.29,4.29,0,0,1,.46-3.06,4.23,4.23,0,0,1,2.42-1.92,17,17,0,0,1-.21-2.59,34.59,34.59,0,0,1,.28-4.11,7.32,7.32,0,0,0-7.32-7.3Z"/><path class="cls-1" d="M113.85,55.3a2.36,2.36,0,1,0-3.23-.86,2.36,2.36,0,0,0,3.23.86"/><path class="cls-1" d="M99.2,52a2.59,2.59,0,0,1,1.31.3c.32.21.56.39.8.57a25.15,25.15,0,0,0,2.84,1.87l.41.23a8.16,8.16,0,0,0,1,2.48,8,8,0,0,0,1.67,2c0,.15,0,.3,0,.45a23,23,0,0,0,.2,3.43c0,.3.07.6.09.93a3.34,3.34,0,0,1-1.67,2.62,3.22,3.22,0,0,1-1.65.45,3.31,3.31,0,0,1-2.88-1.66,3.28,3.28,0,0,1-.36-2.43l.87-3.66-3.6-1.09a3.41,3.41,0,0,1-2-1.54,3.33,3.33,0,0,1,1.22-4.54A3.54,3.54,0,0,1,99.2,52m0-4a7.53,7.53,0,0,0-3.76,1A7.32,7.32,0,0,0,97,62.3,7.32,7.32,0,1,0,111.46,64a32.32,32.32,0,0,1-.29-4.11,20.09,20.09,0,0,1,.21-2.59A4.29,4.29,0,0,1,109,55.39a4.22,4.22,0,0,1-.45-3,19,19,0,0,1-2.35-1.11,37.41,37.41,0,0,1-3.42-2.3,6.48,6.48,0,0,0-3.54-1Z"/><path class="cls-1" d="M61.55,73.71h0a2.59,2.59,0,0,1,1.34.31c.31.21.55.38.84.6a27,27,0,0,0,2.79,1.83l.39.22a8.28,8.28,0,0,0,2.62,4.54c0,.14,0,.3,0,.45a25.76,25.76,0,0,0,.2,3.39c0,.3.07.6.1,1a3.42,3.42,0,0,1-1.68,2.63,3.32,3.32,0,0,1-4.53-1.23,3.21,3.21,0,0,1-.35-2.4l.9-3.69-3.65-1.09a3.33,3.33,0,0,1-.72-6.07,3.67,3.67,0,0,1,1.76-.44m0-4a7.52,7.52,0,0,0-3.76,1,7.32,7.32,0,0,0,1.58,13.36,7.22,7.22,0,0,0,.78,5.36,7.32,7.32,0,0,0,13.66-3.64,36.58,36.58,0,0,1-.29-4.11,19.6,19.6,0,0,1,.22-2.58,4.28,4.28,0,0,1-3-4.08,3.93,3.93,0,0,1,.1-.92A18,18,0,0,1,68.51,73a40.5,40.5,0,0,1-3.42-2.3,6.48,6.48,0,0,0-3.54-1Z"/><path class="cls-1" d="M88.49,73.69h0a3.67,3.67,0,0,1,1.76.44,3.33,3.33,0,0,1,1.21,4.55,3.23,3.23,0,0,1-1.92,1.51l-3.66,1.08.9,3.71a3.24,3.24,0,0,1-.34,2.4,3.35,3.35,0,0,1-2.89,1.67,3.32,3.32,0,0,1-1.65-.44A3.35,3.35,0,0,1,80.23,86c0-.37.06-.67.1-1a27,27,0,0,0,.19-3.37c0-.15,0-.29,0-.42a8.22,8.22,0,0,0,2.59-4.52l.42-.23a25.45,25.45,0,0,0,2.82-1.85c.25-.19.5-.37.81-.58a2.59,2.59,0,0,1,1.34-.31m0-4a6.48,6.48,0,0,0-3.54,1A37.41,37.41,0,0,1,81.53,73a18.6,18.6,0,0,1-2.37,1.12,3.46,3.46,0,0,1,.11.92,4.27,4.27,0,0,1-3,4.07,19.43,19.43,0,0,1,.22,2.57,39.74,39.74,0,0,1-.28,4.11A7.32,7.32,0,1,0,90.67,84a7.32,7.32,0,0,0,1.58-13.36,7.52,7.52,0,0,0-3.76-1Z"/></svg>