<svg id="Symbols" xmlns="http://www.w3.org/2000/svg" viewBox="0 0 150 150"><defs><style>.cls-1{fill:#221f20;}.cls-2,.cls-3{fill:none;stroke:#221f20;stroke-width:4px;}.cls-2{stroke-miterlimit:10;}.cls-3{stroke-linejoin:bevel;}</style></defs><path class="cls-1" d="M82,68V82H68V68H82m4-4H64V86H86V64Z"/><path class="cls-2" d="M66.38,39.62s1.31,1.26,4.24.5,4.38-2.56,5.5-2.06V60.44H75a6.25,6.25,0,0,0-3.85-3.71"/><path class="cls-2" d="M76.12,46.06A17.9,17.9,0,0,0,87.53,38"/><path class="cls-2" d="M78.88,45.23s3.87,7.46,14,11.46"/><path class="cls-2" d="M70.5,43.38S68,46.75,61,48.31"/><path class="cls-2" d="M72.56,45.23s-4.37,9.08-12.18,13"/><path class="cls-2" d="M72.56,31.44a14.58,14.58,0,0,0,6.32,2.06"/><path class="cls-2" d="M98.88,63.31c.68-.06,6.5.44,11.87-1.87l.87.56s-5.18,3-5.31,6.38L106,87.25"/><path class="cls-2" d="M117.25,88a7.85,7.85,0,0,1-5.63.65c-3.12-.84-10.74-4.27-14.81-4.46A8.48,8.48,0,0,0,90.69,86"/><path class="cls-2" d="M97.06,84.18s3.44-6.74,1.82-13.62c0,0,9.87-.31,15.24-3l-.68,19.25h-.27s0-2-3.09-3.35"/><path class="cls-2" d="M92.88,66.12s3.74,2.63,0,2.94"/><path class="cls-2" d="M89.38,77.62a9.42,9.42,0,0,0,6.54-3.74"/><path class="cls-2" d="M93.06,76.4a22.8,22.8,0,0,1,2.86,7.78"/><line class="cls-2" x1="98.97" y1="80.5" x2="112.22" y2="79.27"/><line class="cls-2" x1="98.97" y1="75.62" x2="112.22" y2="74.38"/><path class="cls-2" d="M91.88,109.69s-2.26-1.88-8.38-1.31-20.5,2.74-23.38-.69"/><path class="cls-2" d="M61.88,104.69s2.31-1.13,9-.88,9.5,1.44,9.56-2.06,1.68-9.37-2.44-8.81-5.25,1.68-8.62,1.12c0,0,2.15,5.85,1.4,9"/><path class="cls-2" d="M72.29,94.13s2.27-3.69,2.4-5.38"/><path class="cls-2" d="M71.62,99.59a12.71,12.71,0,0,1,6.07-1.25"/><path class="cls-2" d="M69.47,96.22a29.28,29.28,0,0,1-7.08,8.28"/><path class="cls-2" d="M65.93,99.59s-3.27-2.25-5.81-2.06"/><path class="cls-2" d="M63,96.69s2.13-1.37,3.35-5.25"/><path class="cls-2" d="M82.34,95.12a12.31,12.31,0,0,0,5.22-3.68"/><path class="cls-2" d="M82.34,96.69S85,99.41,86,100.56"/><path class="cls-3" d="M89.62,96.69,82.69,104s1.84-.56,6.56,0"/><path class="cls-2" d="M76.34,104.69s-1.15,8.84-.81,10.5-.22,2.12-1.09,1.87-1.26-1.37-3.1-2"/><path class="cls-2" d="M62.21,116.42a9.56,9.56,0,0,0,5.5-6.73"/><line class="cls-2" x1="87.56" y1="116.42" x2="81.06" y2="109.69"/><path class="cls-2" d="M54,74.54s-10.75,1.63-15.92,1c0,0,.75,7.5.42,8.92a70.68,70.68,0,0,1,14.25-.67A63.52,63.52,0,0,1,54,74.54Z"/><path class="cls-2" d="M35.67,64S54,65,57.79,62.75c0,0,3.79,1.67,2.08,2.58l-5,2.75"/><path class="cls-2" d="M31.5,68.63s5.79-2.17,3.42-8.59"/><path class="cls-2" d="M53.21,70.72a42.68,42.68,0,0,1,7.17,3.82"/><path class="cls-2" d="M34.75,90s5.75.56,9.31-6.19"/><path class="cls-2" d="M48.83,83.81c.12.16,1.52,4.68,9.23,6.94"/><path class="cls-2" d="M44.06,64.66s2.13-1.57,2.69-5.5"/><line class="cls-2" x1="39.41" y1="75" x2="40.94" y2="64.66"/><path class="cls-2" d="M52.29,66.58A29.38,29.38,0,0,1,51,74.86"/><path class="cls-1" d="M45.58,71.62a25.62,25.62,0,0,1-6.06,3.21,30.22,30.22,0,0,1-6.89,1.71l.07-4a27,27,0,0,0,6.38.34A24.93,24.93,0,0,0,45.58,71.62Z"/><polygon class="cls-1" points="37.65 78.31 50.04 78.63 38.19 82.27 37.65 78.31"/><path class="cls-1" d="M45,71a8.3,8.3,0,0,0,1.73-3.6,11.11,11.11,0,0,0,.24-1.89,12.89,12.89,0,0,0-.07-1.87l4,.64a16.21,16.21,0,0,1-1,2.14,13.49,13.49,0,0,1-1.32,1.91A9.24,9.24,0,0,1,45,71Z"/><path class="cls-1" d="M33.93,69.28a13.88,13.88,0,0,1,1.66-.69A7,7,0,0,1,37,68.24a2.71,2.71,0,0,1,1.29.11,8,8,0,0,0,1.36.37c.46,0,.93.11,1.41.13s1,.08,1.46.1c1,.06,2,0,3,.07l.12.38a18.51,18.51,0,0,1-2.77,1.51,16.21,16.21,0,0,1-3.07,1c-.54.1-1.08.29-1.64.4a3.14,3.14,0,0,1-1.69-.1,4.85,4.85,0,0,1-1.57-.89,3.55,3.55,0,0,1-1.16-1.69Z"/><path class="cls-1" d="M45,74.31a7.39,7.39,0,0,0,1.62-2.51,4.93,4.93,0,0,0,.31-1.29,4,4,0,0,0-.07-1.16l3.88,1A7.48,7.48,0,0,1,49.56,72a7.85,7.85,0,0,1-1.44,1.18A8.6,8.6,0,0,1,45,74.31Z"/><path class="cls-1" d="M75,28A47,47,0,1,1,28,75,47,47,0,0,1,75,28m0-8a55,55,0,1,0,55,55A55,55,0,0,0,75,20Z"/></svg>