<svg id="Symbols" xmlns="http://www.w3.org/2000/svg" viewBox="0 0 150 150"><path d="M79.49,130.11h8V114.18q0-.3,0-.6a71.18,71.18,0,0,0,26.55,16.53A70.81,70.81,0,0,0,85.8,73.53,53.51,53.51,0,0,0,75,20,53.51,53.51,0,0,0,64.2,73.53a70.78,70.78,0,0,0-28.27,56.58,71.26,71.26,0,0,0,26.55-16.53q0,.3,0,.6v15.93h8V114.18a19.23,19.23,0,0,0-1.73-7.68A69,69,0,0,0,73,100.44v29.67h4V100.44a69,69,0,0,0,4.22,6.06,19.23,19.23,0,0,0-1.73,7.68Zm-34.18-13.2A62.72,62.72,0,0,1,69,79.9l4.66-3.52-1.94-5.5A45.57,45.57,0,0,1,75,33.63a45.57,45.57,0,0,1,3.26,37.25l-1.94,5.5L81,79.9a62.72,62.72,0,0,1,23.71,37A62.75,62.75,0,0,1,82,93.2L75,80.32,68,93.2A62.75,62.75,0,0,1,45.31,116.91Z"/><path d="M104.82,64.43a3.5,3.5,0,0,0-5,.31l-.1.12a3.54,3.54,0,0,0-3.37-2.49h-.23a3.52,3.52,0,0,0-2.7,5.48,3.52,3.52,0,0,0,1.47,6.72h.23a3.62,3.62,0,0,0,.87-.17,3.77,3.77,0,0,0,0,.89,3.51,3.51,0,0,0,3.51,3.3h.23a3.53,3.53,0,0,0,3.13-2.45,3.67,3.67,0,0,0,1.58.37h.23a3.53,3.53,0,0,0,.38-7l.11-.12A3.53,3.53,0,0,0,104.82,64.43ZM106,72.9a1.54,1.54,0,0,1-1.43,1.62h-.1a1.58,1.58,0,0,1-.68-.16l-2.09-1-.71,2.23a1.55,1.55,0,0,1-1.36,1.06h-.1A1.53,1.53,0,0,1,98,75.17a1.59,1.59,0,0,1,0-.38l.65-3.33L95.4,72.51a1.59,1.59,0,0,1-.38.07h-.1a1.52,1.52,0,0,1-1.52-1.43,1.55,1.55,0,0,1,.89-1.48l2.13-1-1.32-2a1.49,1.49,0,0,1-.25-.75,1.54,1.54,0,0,1,1.43-1.62h.1a1.52,1.52,0,0,1,1.45,1.08L99,69l2.37-2.94,0,0A1.53,1.53,0,0,1,104,67a1.53,1.53,0,0,1-.41,1.13l0,0L101,70.85l3.69.64A1.53,1.53,0,0,1,106,72.9Z"/><path d="M119,79.68a3.53,3.53,0,0,0-2.73-1.29,3.47,3.47,0,0,0-2.23.8l-.13.1a3.53,3.53,0,0,0-3.14-3h-.35a3.52,3.52,0,0,0-3.51,3.17,3.48,3.48,0,0,0,.31,1.82,3.52,3.52,0,0,0,.6,6.9l.35,0a3.08,3.08,0,0,0,.53,0,3.45,3.45,0,0,0-.19.87,3.52,3.52,0,0,0,3.16,3.85l.35,0a3.53,3.53,0,0,0,3.14-1.93,3.64,3.64,0,0,0,1.72.65h.35a3.52,3.52,0,0,0,1.15-6.85l.13-.1A3.53,3.53,0,0,0,119,79.68Zm-.25,8.54a1.52,1.52,0,0,1-1.52,1.37h-.15a1.54,1.54,0,0,1-.75-.29l-1.9-1.37-1,2.09a1.54,1.54,0,0,1-1.36.84h-.15a1.53,1.53,0,0,1-1.37-1.68,1.45,1.45,0,0,1,.08-.36l1.16-3.18-3.34.51-.23,0H108a1.53,1.53,0,0,1-.25-3l2.25-.63-1-2.13a1.59,1.59,0,0,1-.13-.78,1.52,1.52,0,0,1,1.52-1.37h.15a1.51,1.51,0,0,1,1.36,1.31l.54,3.86,2.83-2.69a1.53,1.53,0,0,1,2.49,1.33,1.56,1.56,0,0,1-.57,1l-.06,0-2.93,2.27,3.5,1.21A1.51,1.51,0,0,1,118.76,88.22Z"/><path d="M124.83,43.92a.59.59,0,0,1-.44.09.29.29,0,0,1-.21-.12.5.5,0,0,1,.27-.61l4.93-3-1.06-.9a5.24,5.24,0,0,0-6.11-.48l-2,1.21a5.25,5.25,0,0,0-2.38,5.63l-1.79,1.37c.11-3.19.1-6.42-.09-9.53a5.3,5.3,0,0,0,1.77-1.42,5.22,5.22,0,0,0,1.08-3.88L118.53,30a5.25,5.25,0,0,0-4.15-4.51L113,25.19l.69,5.73a.63.63,0,0,1-.09.44.38.38,0,0,1-.21.15.39.39,0,0,1-.24-.09A.64.64,0,0,1,113,31l-.69-5.73-1.26.6a5.37,5.37,0,0,0-1.87,1.49,5.22,5.22,0,0,0-1.08,3.88l.28,2.31A5.26,5.26,0,0,0,112,37.93c.18,2.94.19,6,.07,9.07l-1.54-1.41a5.1,5.1,0,0,0,.28-2.06A5.24,5.24,0,0,0,109,39.92l-1.75-1.53a5.25,5.25,0,0,0-6.1-.58l-1.2.71,4.35,3.79a.67.67,0,0,1,.22.4.3.3,0,0,1-.06.24.32.32,0,0,1-.24.09.73.73,0,0,1-.41-.16l-4.35-3.8-.54,1.28a5.36,5.36,0,0,0-.39,2.36,5.26,5.26,0,0,0,1.79,3.61l1.75,1.53a5.24,5.24,0,0,0,3.45,1.29h.37a5.21,5.21,0,0,0,2-.54l3.87,3.56c-.21,2.85-.5,5.6-.82,8.13l-1.55-1.41a5.12,5.12,0,0,0-1.61-5.32L106,52h0a5.25,5.25,0,0,0-6.1-.58l-1.19.71L103.07,56a.67.67,0,0,1,.22.39.35.35,0,0,1-.06.25.5.5,0,0,1-.66-.07l-4.34-3.8L97.69,54a5.36,5.36,0,0,0-.39,2.36A5.22,5.22,0,0,0,99.09,60l1.75,1.53a5.28,5.28,0,0,0,6.1.58l3.32,3c-.74,4.87-1.41,8.12-1.43,8.2l3.91.83c.07-.34.76-3.64,1.5-8.52l5-2.75a5.32,5.32,0,0,0,2.22,1.19,5.42,5.42,0,0,0,1.26.15,5.19,5.19,0,0,0,2.72-.77l2-1.2h0a5.25,5.25,0,0,0,2.4-5.64l-.31-1.36-4.94,3a.62.62,0,0,1-.44.09.33.33,0,0,1-.21-.12.5.5,0,0,1,.27-.61l4.93-3-1.06-.9a5.24,5.24,0,0,0-6.11-.48l-2,1.21a5.24,5.24,0,0,0-2.5,4.84l-2.59,1.41c.32-2.57.61-5.38.83-8.3L120.12,49a5.28,5.28,0,0,0,1.59.7,5.42,5.42,0,0,0,1.26.15,5.19,5.19,0,0,0,2.72-.77l2-1.2h0a5.25,5.25,0,0,0,2.4-5.64l-.31-1.35Zm-19.09,3.22a3.19,3.19,0,0,1-2.36-.79l-1.75-1.53a3.26,3.26,0,0,1-1.11-2.15l2,1.71a2.54,2.54,0,0,0,1.76.66,2.32,2.32,0,0,0,1.72-.78,2.29,2.29,0,0,0,.53-1.81,2.59,2.59,0,0,0-.89-1.64l-1.95-1.71a3.22,3.22,0,0,1,2.27.8l1.75,1.52a3.26,3.26,0,0,1-1.93,5.72ZM102.15,60l-1.75-1.53a3.29,3.29,0,0,1-1.1-2.15l2,1.71a2.47,2.47,0,0,0,3.48-.12,2.29,2.29,0,0,0,.53-1.81,2.68,2.68,0,0,0-.89-1.65l-2-1.7a3.26,3.26,0,0,1,2.28.8l1.75,1.52a3.27,3.27,0,0,1-4.3,4.93ZM121,56.14l2-1.21a3.29,3.29,0,0,1,1.69-.47,3.33,3.33,0,0,1,.7.07l-2.23,1.35a2.46,2.46,0,0,0-.94,3.35,2.3,2.3,0,0,0,1.56,1.06,2.65,2.65,0,0,0,1.84-.35l2.22-1.35a3.22,3.22,0,0,1-1.45,1.93l-2,1.2a3.22,3.22,0,0,1-2.46.39,3.27,3.27,0,0,1-.93-6Zm-10.7-22.82L110.06,31a3.2,3.2,0,0,1,.61-2.34l.32,2.59a2.61,2.61,0,0,0,.86,1.66,2.27,2.27,0,0,0,3.41-.42,2.64,2.64,0,0,0,.44-1.82l-.31-2.58a3.27,3.27,0,0,1,1.15,2.12l.28,2.31a3.2,3.2,0,0,1-.67,2.4,3.26,3.26,0,0,1-5.81-1.61Zm16.3,12.89-2,1.21a3.27,3.27,0,0,1-3.39-5.59l2-1.21a3.29,3.29,0,0,1,1.69-.47,3.23,3.23,0,0,1,.69.07l-2.22,1.35a2.46,2.46,0,0,0-.94,3.35A2.26,2.26,0,0,0,124,46a2.6,2.6,0,0,0,1.84-.35l2.22-1.35A3.22,3.22,0,0,1,126.64,46.21Z"/><path d="M42.06,72.77a3.51,3.51,0,0,0,3.29,3.74h.23a3.67,3.67,0,0,0,1.58-.37,3.53,3.53,0,0,0,3.13,2.45h.23A3.51,3.51,0,0,0,54,75.3a3.77,3.77,0,0,0-.05-.89,3.62,3.62,0,0,0,.87.17h.23a3.52,3.52,0,0,0,1.47-6.72,3.52,3.52,0,0,0-2.7-5.48h-.23a3.54,3.54,0,0,0-3.37,2.49l-.1-.12a3.52,3.52,0,0,0-5.29,4.66l.11.12A3.52,3.52,0,0,0,42.06,72.77Zm3.25-1.28L49,70.85l-2.58-2.71,0,0,0,0,0,0A1.55,1.55,0,0,1,46,67a1.52,1.52,0,0,1,.52-1,1.5,1.5,0,0,1,2.14.12l0,0,2.37,3,1.12-3.66a1.52,1.52,0,0,1,1.45-1.08h.1A1.54,1.54,0,0,1,55.15,66a1.63,1.63,0,0,1-.25.75l-1.32,2,2.13,1a1.55,1.55,0,0,1,.89,1.49,1.52,1.52,0,0,1-1.52,1.42H55a1.59,1.59,0,0,1-.38-.07l-3.23-1.05L52,74.79a1.59,1.59,0,0,1,0,.38,1.53,1.53,0,0,1-1.52,1.43h-.1a1.55,1.55,0,0,1-1.36-1.06l-.71-2.23-2.09,1a1.58,1.58,0,0,1-.68.16h-.1a1.53,1.53,0,0,1-.17-3Z"/><path d="M29.25,88.42a3.53,3.53,0,0,0,3.51,3.17h.35a3.64,3.64,0,0,0,1.72-.65A3.53,3.53,0,0,0,38,92.86l.35,0A3.52,3.52,0,0,0,41.48,89a3.45,3.45,0,0,0-.19-.87,3.08,3.08,0,0,0,.53,0l.35,0a3.52,3.52,0,0,0,.6-6.9,3.48,3.48,0,0,0,.31-1.82,3.52,3.52,0,0,0-3.51-3.17h-.35a3.53,3.53,0,0,0-3.14,3l-.13-.1a3.47,3.47,0,0,0-2.23-.8,3.52,3.52,0,0,0-2.24,6.25l.13.1A3.53,3.53,0,0,0,29.25,88.42Zm3-1.79,3.49-1.22-2.94-2.27-.06,0a1.53,1.53,0,0,1,2-2.35l2.83,2.69.53-3.87a1.51,1.51,0,0,1,1.36-1.31h.15a1.52,1.52,0,0,1,1.52,1.37,1.59,1.59,0,0,1-.13.78l-1,2.13,2.25.63a1.52,1.52,0,0,1-.25,3h-.16l-.23,0-3.34-.51,1.16,3.18a1.43,1.43,0,0,1,.08.37,1.5,1.5,0,0,1-.34,1.12,1.53,1.53,0,0,1-1,.55H38A1.54,1.54,0,0,1,36.61,90l-1.06-2.09-1.89,1.38a1.63,1.63,0,0,1-.75.28h-.15a1.52,1.52,0,0,1-.5-3Z"/><path d="M22.32,47.92l2,1.2a5.19,5.19,0,0,0,2.72.77,5.42,5.42,0,0,0,1.26-.15,5.28,5.28,0,0,0,1.59-.7l4.37,3.34c.22,2.92.51,5.73.83,8.31l-2.59-1.42A5.24,5.24,0,0,0,30,54.43l-2-1.21a5.23,5.23,0,0,0-6.11.48l-1.06.9,4.93,3a.5.5,0,0,1,.27.61.33.33,0,0,1-.21.12.62.62,0,0,1-.45-.09l-4.93-3-.31,1.36a5.25,5.25,0,0,0,2.4,5.64l2,1.2a5.19,5.19,0,0,0,2.72.77,5.42,5.42,0,0,0,1.26-.15,5.32,5.32,0,0,0,2.22-1.19l5,2.75c.74,4.88,1.43,8.18,1.5,8.52l3.91-.83c0-.08-.69-3.33-1.43-8.2l3.32-3a5.28,5.28,0,0,0,6.1-.58L50.91,60a5.23,5.23,0,0,0,1.79-3.62A5.35,5.35,0,0,0,52.31,54l-.54-1.28-4.34,3.79a.51.51,0,0,1-.66.08.35.35,0,0,1-.06-.25.64.64,0,0,1,.23-.39l4.34-3.79-1.19-.71A5.23,5.23,0,0,0,44,52l-1.76,1.53a5.26,5.26,0,0,0-1.79,3.61,5.17,5.17,0,0,0,.19,1.71l-1.55,1.41c-.31-2.53-.61-5.28-.82-8.13l3.88-3.57a5.21,5.21,0,0,0,2.35.56,5.29,5.29,0,0,0,3.45-1.29l1.75-1.53a5.27,5.27,0,0,0,1.79-3.62,5.35,5.35,0,0,0-.39-2.35l-.54-1.28-4.35,3.8a.5.5,0,0,1-.65.07.3.3,0,0,1-.06-.24.67.67,0,0,1,.22-.4l4.35-3.79-1.2-.71a5.25,5.25,0,0,0-6.1.58L41,39.92a5.24,5.24,0,0,0-1.79,3.61,5.1,5.1,0,0,0,.28,2.06L38,47c-.12-3.06-.11-6.13.07-9.07a5.26,5.26,0,0,0,3.62-4.37l.28-2.31a5.22,5.22,0,0,0-1.09-3.89A5.33,5.33,0,0,0,39,25.88l-1.26-.6L37,31a.64.64,0,0,1-.2.41.37.37,0,0,1-.24.09.38.38,0,0,1-.21-.15.63.63,0,0,1-.09-.44L37,25.19l-1.36.28A5.25,5.25,0,0,0,31.47,30l-.28,2.31a5.22,5.22,0,0,0,1.08,3.88A5.3,5.3,0,0,0,34,37.59c-.19,3.11-.2,6.34-.09,9.53l-1.79-1.37a5.24,5.24,0,0,0-2.39-5.63l-2-1.21a5.23,5.23,0,0,0-6.11.48l-1.06.9,4.93,3a.4.4,0,1,1-.38.64l-4.94-3-.31,1.35A5.25,5.25,0,0,0,22.32,47.92ZM28,62.11a3.25,3.25,0,0,1-2.47-.39l-2-1.2a3.22,3.22,0,0,1-1.45-1.93l2.22,1.35a2.65,2.65,0,0,0,1.84.35,2.28,2.28,0,0,0,1.56-1.06,2.46,2.46,0,0,0-.94-3.35l-2.22-1.35a3.26,3.26,0,0,1,2.38.4l2,1.21a3.27,3.27,0,0,1-.93,6Zm15.52-7,1.75-1.52a3.24,3.24,0,0,1,2.28-.8l-2,1.7a2.68,2.68,0,0,0-.89,1.65,2.29,2.29,0,0,0,.53,1.81,2.47,2.47,0,0,0,3.48.12l2-1.71a3.24,3.24,0,0,1-1.1,2.15L47.85,60a3.27,3.27,0,0,1-4.61-.32,3.27,3.27,0,0,1,.31-4.61ZM42.33,41.42l1.75-1.52h0a3.26,3.26,0,0,1,2.14-.81h.13l-2,1.71a2.59,2.59,0,0,0-.89,1.64A2.29,2.29,0,0,0,44,44.26a2.47,2.47,0,0,0,3.48.12l2-1.71a3.21,3.21,0,0,1-1.11,2.15l-1.75,1.53a3.27,3.27,0,0,1-4.29-4.93Zm-9.15-8.89.28-2.31a3.27,3.27,0,0,1,1.15-2.12l-.31,2.58a2.64,2.64,0,0,0,.44,1.82,2.27,2.27,0,0,0,3.41.42A2.61,2.61,0,0,0,39,31.26l.32-2.59A3.21,3.21,0,0,1,39.94,31l-.28,2.31a3.26,3.26,0,0,1-6.48-.79Zm-9,13.1a2.38,2.38,0,1,0,2.46-4.06l-2.22-1.35a3.31,3.31,0,0,1,2.38.4l2,1.21a3.27,3.27,0,0,1-3.39,5.59l-2-1.21a3.22,3.22,0,0,1-1.45-1.93Z"/></svg>