<svg id="Symbols" xmlns="http://www.w3.org/2000/svg" viewBox="0 0 150 150"><defs><style>.cls-1{fill:#221f20;}.cls-2{fill:none;stroke:#221f20;stroke-miterlimit:10;stroke-width:4px;}</style></defs><path class="cls-1" d="M75,28A47,47,0,1,1,28,75,47,47,0,0,1,75,28m0-8a55,55,0,1,0,55,55A55,55,0,0,0,75,20Z"/><path class="cls-1" d="M51.63,64.9a7.57,7.57,0,0,1,7.56,7.56,7.41,7.41,0,0,1-1.69,4.76l-2.07,2.53,2.07,2.53A7.41,7.41,0,0,1,59.19,87a7.57,7.57,0,0,1-7.56,7.56,7.48,7.48,0,0,1-4.36-1.41,15.55,15.55,0,0,1-1.76-1.75l-.08-.1-.08-.1a24.29,24.29,0,0,1-3.26-5.61A50.69,50.69,0,0,0,39,79.75a49.87,49.87,0,0,0,3.06-5.87,24.52,24.52,0,0,1,3.27-5.62l.09-.1.07-.1a16,16,0,0,1,1.75-1.75,7.54,7.54,0,0,1,4.37-1.41m0-4a11.49,11.49,0,0,0-6.81,2.25h0a22.32,22.32,0,0,0-2.56,2.58,28,28,0,0,0-3.83,6.53,41.42,41.42,0,0,1-4.17,7.45v.1a41.42,41.42,0,0,1,4.17,7.45,28,28,0,0,0,3.83,6.53,22.32,22.32,0,0,0,2.56,2.58h0A11.55,11.55,0,0,0,60.6,79.75a11.56,11.56,0,0,0-9-18.85Z"/><path class="cls-1" d="M98.37,64.9a7.54,7.54,0,0,1,4.37,1.41,16,16,0,0,1,1.75,1.75l.08.1.08.1a24.29,24.29,0,0,1,3.26,5.61A50.69,50.69,0,0,0,111,79.75a49.87,49.87,0,0,0-3.06,5.87,24.52,24.52,0,0,1-3.27,5.62l-.09.1-.07.1a15.55,15.55,0,0,1-1.76,1.75,7.48,7.48,0,0,1-4.36,1.41A7.57,7.57,0,0,1,90.81,87a7.41,7.41,0,0,1,1.69-4.76l2.07-2.53L92.5,77.22a7.41,7.41,0,0,1-1.69-4.76,7.57,7.57,0,0,1,7.56-7.56m0-4a11.56,11.56,0,0,0-9,18.85,11.54,11.54,0,0,0,15.78,16.6h0a22.32,22.32,0,0,0,2.56-2.58,28,28,0,0,0,3.83-6.53,41.42,41.42,0,0,1,4.17-7.45v-.1a41.42,41.42,0,0,1-4.17-7.45,28,28,0,0,0-3.83-6.53,22.32,22.32,0,0,0-2.56-2.58h0a11.49,11.49,0,0,0-6.81-2.25Z"/><path class="cls-1" d="M75,39a51.27,51.27,0,0,0,5.87,3.07,24,24,0,0,1,5.62,3.26l.1.09.1.07a17.73,17.73,0,0,1,1.75,1.76A7.55,7.55,0,0,1,77.53,57.53L75,55.46l-2.53,2.07a7.47,7.47,0,0,1-4.76,1.69,7.57,7.57,0,0,1-7.56-7.56,7.49,7.49,0,0,1,1.41-4.37,17.73,17.73,0,0,1,1.75-1.76l.1-.07.1-.09a24.08,24.08,0,0,1,5.61-3.26A49.18,49.18,0,0,0,75,39m0-4.76H75a41.42,41.42,0,0,1-7.45,4.17A27.68,27.68,0,0,0,61,42.29a22.5,22.5,0,0,0-2.58,2.55h0A11.54,11.54,0,0,0,75,60.62a11.44,11.44,0,0,0,7.29,2.6A11.54,11.54,0,0,0,91.6,44.84h0A22.5,22.5,0,0,0,89,42.29a27.68,27.68,0,0,0-6.53-3.84,41.42,41.42,0,0,1-7.45-4.17Z"/><path class="cls-2" d="M75,58.36V114H58v-1.22s28.77-25.71,2.29-33"/><path class="cls-2" d="M75,58.36V114H92v-1.22S63.23,87,89.71,79.75"/></svg>