<svg id="Symbols" xmlns="http://www.w3.org/2000/svg" viewBox="0 0 150 150"><path d="M68.42,45.72c-9.15,4-21.22,3-23.34,2.59a4,4,0,0,0-2,7.75,45.18,45.18,0,0,0,8.56.66c5.69,0,13.27-.73,20-3.67a18.23,18.23,0,0,0,7.75-5.95c4.74,4.87,11.91,7.33,21.37,7.33,1.45,0,2.94-.06,4.49-.17a4,4,0,1,0-.58-8c-9.59.71-16.3-1-20-5.2-.25-.3-.48-.6-.7-.91,8.76-.42,17-.72,21.41-.57a4,4,0,0,0,2.75-7l-4.88-4.23a4,4,0,0,0-6.61,3.31c-4.5.12-9.78.35-15.12.62a3.47,3.47,0,0,0-.16-.55v-.09a4,4,0,0,0,1.71-7.42l-7.68-4.63a4,4,0,0,0-4.13,6.86l2.28,1.37a28.66,28.66,0,0,0-.14,4.9C62,33.37,52,34.07,51.16,34.12a4,4,0,0,0,.28,8h.28c.21,0,10.38-.73,22.06-1.39C73.13,42.6,71.59,44.33,68.42,45.72Z"/><path d="M120.52,74.59a4,4,0,0,0,3.11-6.7l-3.31-3.61a4,4,0,0,0-6.94,2.41l-4.66.22a3.83,3.83,0,0,0,.44-.73,4,4,0,0,0-1.23-4.82l-5.22-4a4,4,0,1,0-4.83,6.37l1.31,1c0,.67-.07,1.61,0,2.75-8,.56-14.93,1.17-15.5,1.22a4,4,0,0,0,.34,8l.36,0c.14,0,7.07-.62,15-1.18a6,6,0,0,1-3.23,4.07c-5.49,3-12.89,2.39-14.56,2a4,4,0,0,0-2.37,7.64,26.33,26.33,0,0,0,6.49.67A30,30,0,0,0,100,86.62a15.3,15.3,0,0,0,3.81-2.93,18,18,0,0,0,1.82,2.2c3.62,3.69,8.46,5.56,14.42,5.56.94,0,1.9,0,2.89-.14a4,4,0,0,0-.74-8c-4.84.46-8.38-.54-10.84-3A13.37,13.37,0,0,1,108.28,75C113.35,74.66,118,74.48,120.52,74.59Z"/><path d="M43.05,82.9c-5.49,3-12.89,2.39-14.56,2a4,4,0,0,0-2.37,7.63,26,26,0,0,0,6.49.67A29.92,29.92,0,0,0,46.92,89.9,15.51,15.51,0,0,0,50.74,87a18.53,18.53,0,0,0,1.81,2.2C56.17,92.87,61,94.73,67,94.73c.94,0,1.9,0,2.89-.13a4,4,0,1,0-.74-8c-4.84.45-8.38-.54-10.83-3a12.12,12.12,0,0,1-2.21-3.2c3.93-.09,7.41-.1,9.42.06A4,4,0,0,0,69,74.08l-2.78-3.71a4,4,0,0,0-7.18,2c-1.55,0-3.21.06-4.91.11a1,1,0,0,1,0-.15s0,0,0,0c0-.28,0-.55,0-.81a4,4,0,0,0,.77-6.83l-5.21-4a4,4,0,1,0-4.84,6.38l1.31,1a38.45,38.45,0,0,0,0,4.53s0,0,0,.06,0,.08,0,.11c-6.68.31-12.4.67-12.89.7a4,4,0,0,0,.25,8h.25c.12,0,5.36-.34,11.66-.63A6.66,6.66,0,0,1,43.05,82.9Z"/><path d="M87.53,66.36a4,4,0,0,0,.09-8c-9.1-.23-22.93-.58-23.83-.62a4,4,0,0,0-.5,8c.63,0,17.09.46,24.13.64Z"/><path d="M67.55,104.75h0a4,4,0,0,0,0-8L34,96.63h0a4,4,0,0,0,0,8l10.43,0a29,29,0,0,1-.66,4.22,4.31,4.31,0,0,0-.23.89c-1.35,4.93-4.48,10.37-11.66,11.73a4,4,0,0,0,.74,7.93,3.78,3.78,0,0,0,.74-.07c9.52-1.8,14.62-8.3,17.12-15.11,2.56-.11,6.63-.31,11.43-.68a18.55,18.55,0,0,1-2.75,6.53,18,18,0,0,0-4.51-2.82,4,4,0,0,0-3.33,7.27,7.73,7.73,0,0,1,3,2.06,4,4,0,0,0,6.34,3.21c10.06-7.26,9.75-20.24,9.73-20.79A4,4,0,0,0,69,106.17a4,4,0,0,0-3-1c-5.34.51-10.24.8-13.68,1,.06-.5.1-1,.13-1.46Z"/><path d="M110.11,113.31c-2.48.09-17.13,1.18-17.75,1.22a4,4,0,0,0-3.54,2.86,9.86,9.86,0,0,0-.31,1.8,11.51,11.51,0,0,1-2.08,5.68,4,4,0,0,0,3.4,6.11h.06c16.82-.23,17.7-.39,18.08-.46a4,4,0,0,0,3.3-3.94c0-1.34,1.33-5,2.57-7.51a4,4,0,0,0-.24-3.93A4,4,0,0,0,110.11,113.31Zm-6.22,9.41-7.89.16c0-.21.1-.41.14-.6,2.42-.18,5.41-.4,8-.58Q104,122.21,103.89,122.72Z"/><path d="M103.07,87.11a4,4,0,0,0-4,4v3.28L83.13,95a4,4,0,0,0,.14,8h.15l15.65-.57v2.37l-13.39.31a4,4,0,0,0,.09,8h.1l17-.39.23,0c.12,0,.24,0,.36,0l18-.42a4,4,0,0,0,3-6.56l-1.19-1.43a4,4,0,0,0-5.64-.51,3.65,3.65,0,0,0-.58.6l-10,.23V102.1l10.15-.36a4,4,0,0,0,2.24-7.21L117.35,93a4,4,0,0,0-5.6.81l-.11.16-4.57.17v-3A4,4,0,0,0,103.07,87.11Z"/></svg>