<svg id="Symbols" xmlns="http://www.w3.org/2000/svg" viewBox="0 0 150 150"><path d="M75,77.58A2.58,2.58,0,1,0,72.43,75,2.58,2.58,0,0,0,75,77.58Z"/><path d="M24.91,85A12.57,12.57,0,0,0,24,86.68a12.34,12.34,0,0,0,8.53,16.7,12.27,12.27,0,0,0,14.08,14.09,12.63,12.63,0,0,0,.58,1.84A12.26,12.26,0,0,0,65,125.09,12.3,12.3,0,0,0,75,130.17h0A12.14,12.14,0,0,0,85,125.1a13.26,13.26,0,0,0,1.72.88,12.34,12.34,0,0,0,16.11-6.67,12.75,12.75,0,0,0,.58-1.85,12.43,12.43,0,0,0,1.92.16A12.29,12.29,0,0,0,114,114h0a12.37,12.37,0,0,0,3.45-10.64A12.34,12.34,0,0,0,126,86.68a12.57,12.57,0,0,0-.89-1.71,12.29,12.29,0,0,0,0-19.93,12.32,12.32,0,0,0-5.77-17.82,11.67,11.67,0,0,0-1.85-.59,12.23,12.23,0,0,0-14.09-14.09A12.31,12.31,0,0,0,86.68,24a12.17,12.17,0,0,0-1.72.89,12.29,12.29,0,0,0-19.92,0,12.29,12.29,0,0,0-18.4,7.62,12.49,12.49,0,0,0-1.94-.17h0A12.32,12.32,0,0,0,32.54,46.63a12.42,12.42,0,0,0-1.85.59A12.31,12.31,0,0,0,24.92,65a12.29,12.29,0,0,0,0,19.93ZM73.72,68.54h0a6.89,6.89,0,0,1,2.48,0h.08a6.33,6.33,0,0,1,2.25.92l.11.07a6.42,6.42,0,0,1,1.78,1.78l.05.08a6.45,6.45,0,0,1,.94,2.26l0,.1a6.52,6.52,0,0,1,0,2.49l0,.08a6.2,6.2,0,0,1-.9,2.23l-.09.13a6.42,6.42,0,0,1-1.78,1.78l-.12.08a6.34,6.34,0,0,1-2.24.91l-.09,0a6.78,6.78,0,0,1-2.46,0l-.09,0a6.34,6.34,0,0,1-2.24-.91l-.12-.08a6.42,6.42,0,0,1-1.78-1.78l-.09-.13a6.2,6.2,0,0,1-.9-2.23l0-.08a6.52,6.52,0,0,1,0-2.49l0-.08a6.2,6.2,0,0,1,.9-2.23l.09-.13a6.42,6.42,0,0,1,1.78-1.78l.11-.07a6.33,6.33,0,0,1,2.25-.92ZM33.06,79.24a4.43,4.43,0,0,1-.91.1,4.34,4.34,0,0,1,0-8.67,4,4,0,0,1,.86.09L54.37,75Zm83.93,0L95.63,75,117,70.75a4.44,4.44,0,0,1,.84-.08,4.33,4.33,0,1,1-.86,8.58ZM31.42,93.06a4.25,4.25,0,0,1,0-3.32,4.3,4.3,0,0,1,2.34-2.34,5.18,5.18,0,0,1,.82-.26l21.36-4.25L37.81,95a4.23,4.23,0,0,1-.73.39A4.34,4.34,0,0,1,31.42,93.06Zm10.23,15.31a4.35,4.35,0,0,1,0-6.16,3,3,0,0,1,.63-.52L60.4,89.6,48.3,107.72a3.91,3.91,0,0,1-.54.64A4.32,4.32,0,0,1,41.65,108.37Zm18.61,10.22a4.3,4.3,0,0,1-3.32,0,4.32,4.32,0,0,1-2.34-5.65,4,4,0,0,1,.41-.76l12.1-18.11-4.25,21.35a3.87,3.87,0,0,1-.26.84A4.26,4.26,0,0,1,60.26,118.59Zm17.8,2.32a4.24,4.24,0,0,1-3,1.26h0a4.32,4.32,0,0,1-4.33-4.32,5.19,5.19,0,0,1,.08-.86L75,95.64,79.25,117a3.8,3.8,0,0,1,.08.84A4.27,4.27,0,0,1,78.06,120.91Zm17.34-4.66a4.34,4.34,0,0,1-2.34,2.33h0a4.32,4.32,0,0,1-3.31,0,4.26,4.26,0,0,1-2.34-2.34,4,4,0,0,1-.26-.83L82.89,94.06,95,112.2a4.13,4.13,0,0,1,.39.72A4.37,4.37,0,0,1,95.4,116.25Zm13-7.88a4.34,4.34,0,0,1-6.67-.67L89.6,89.6l18.12,12.11a3.11,3.11,0,0,1,.64.54A4.34,4.34,0,0,1,108.36,108.37Zm10.22-15.31h0a4.34,4.34,0,0,1-5.66,2.34,5,5,0,0,1-.75-.4L94.06,82.89l21.34,4.25a4.81,4.81,0,0,1,.84.26,4.3,4.3,0,0,1,2.34,2.34A4.25,4.25,0,0,1,118.58,93.06Zm0-36.11a4.32,4.32,0,0,1-2.34,5.66,4.58,4.58,0,0,1-.82.25L94.05,67.11,112.2,55a4.18,4.18,0,0,1,.73-.39,4.3,4.3,0,0,1,1.65-.33,4.32,4.32,0,0,1,4,2.68Zm-10.22-15.3a4.33,4.33,0,0,1,0,6.12,4.46,4.46,0,0,1-.67.55L89.6,60.4l12.07-18.06a4,4,0,0,1,.57-.7,4.31,4.31,0,0,1,6.12,0ZM89.74,31.42a4.3,4.3,0,0,1,1.65-.33,4.44,4.44,0,0,1,1.67.33,4.33,4.33,0,0,1,2.34,5.65,4.7,4.7,0,0,1-.41.77L82.89,56,87.14,34.6a3.87,3.87,0,0,1,.26-.84A4.26,4.26,0,0,1,89.74,31.42ZM75,27.83a4.33,4.33,0,0,1,4.33,4.33,4.17,4.17,0,0,1-.08.86L75,54.37,70.75,33a3.86,3.86,0,0,1-.08-.84A4.33,4.33,0,0,1,75,27.83ZM57,31.42a4.35,4.35,0,0,1,1.66-.33,4.33,4.33,0,0,1,4,2.67,4,4,0,0,1,.26.83L67.11,56,55,37.81a4.46,4.46,0,0,1-.39-.72A4.35,4.35,0,0,1,57,31.42ZM41.64,41.64a4.32,4.32,0,0,1,6.16,0,4.11,4.11,0,0,1,.51.63L60.4,60.4,42.33,48.34a5.11,5.11,0,0,1-.69-.57A4.34,4.34,0,0,1,41.64,41.64ZM31.42,57a4.32,4.32,0,0,1,4-2.68,4.22,4.22,0,0,1,1.66.34,3.87,3.87,0,0,1,.75.4l18.11,12.1L34.53,62.85a4.48,4.48,0,0,1-.77-.24A4.32,4.32,0,0,1,31.42,57Z"/></svg>