<svg id="Symbols" xmlns="http://www.w3.org/2000/svg" viewBox="0 0 150 150"><defs><style>.cls-1{fill:#221f20;}</style></defs><path class="cls-1" d="M75,20a55,55,0,1,0,55,55A55,55,0,0,0,75,20Zm0,102a47,47,0,1,1,47-47A47,47,0,0,1,75,122Z"/><path class="cls-1" d="M73.19,62.37c-.11,2-.3,4-.56,6,.93,1.2,1.76,2.16,2.37,2.84V64.92C74.42,64.15,73.8,63.29,73.19,62.37Zm1.2-30c-9.65.45-10.77,10.81-10.88,14.17.23-.18.47-.35.7-.51L65.73,45l2.07-1.43h0l.06,0v0a15.19,15.19,0,0,1,.87-2.88c1.19-2.79,3-4.11,5.78-4.25h.12l.36,0v-4C74.67,32.34,74.41,32.36,74.39,32.36ZM63.81,49.11l-.2,0c0,.25,0,.51.08.76v0a21,21,0,0,0,.4,2.07l.49-3Z"/><path class="cls-1" d="M61.65,53.3l-.74,1.27.57,0h0l.5,0C61.87,54.1,61.75,53.71,61.65,53.3ZM43.8,43.8a44.26,44.26,0,0,0-6.54,8.32c4,1.59,10,2.31,15.86,2.49A5,5,0,0,1,54.35,54l.81-.26A4.78,4.78,0,0,1,56.5,53L57,52.8h0a5.53,5.53,0,0,1,1.7-1.3l.41-.2a4.81,4.81,0,0,1,1-1.08,3.6,3.6,0,0,1,.89-.56,20.84,20.84,0,0,1-.15-2.5,25.67,25.67,0,0,1,.32-4c.11-.77.26-1.53.26-1.53h0c.06-.27.13-.54.2-.81a20.54,20.54,0,0,1,.71-2.18,14.13,14.13,0,0,1,5.53-7l.32-.2A44,44,0,0,0,43.8,43.8Zm13.69-3s-.16.83-.28,1.66a28.85,28.85,0,0,0-.37,4.67,26,26,0,0,0,.24,3.49H56.3a74.84,74.84,0,0,1-12.48-.92c.88-1.08,1.82-2.12,2.8-3.11a40.31,40.31,0,0,1,11.28-8Z"/><path class="cls-1" d="M72.49,113.35a3.75,3.75,0,0,1-2.95-1.64h0a4,4,0,0,1-2.75-1.64c.73,1.56,1.39,3.1,1.93,4.57a40.46,40.46,0,0,1-16.84-6.81c.4-.09.79-.18,1.18-.29s.6-.16.9-.26.95-.28,1.8-.61a30.26,30.26,0,0,0,4.23-2c.36-.21.71-.43,1.06-.66a6.74,6.74,0,0,1-.4-1.75A3.88,3.88,0,0,1,59,100.53q-.51.34-1.05.66a26.58,26.58,0,0,1-3.68,1.75c-.8.32-1.47.51-1.47.51l-.8.23c-.74.19-1.49.35-2.24.47a18.69,18.69,0,0,1-2.59.19A13,13,0,0,1,41,102.86a2.68,2.68,0,0,1-.33-.18,44,44,0,0,0,23,14.95,44.62,44.62,0,0,0,10.47,1.5A29.2,29.2,0,0,0,72.49,113.35Z"/><path class="cls-1" d="M56.55,97.19a3.34,3.34,0,0,1-2.28-2.14,15,15,0,0,1-7.07,2.14,5.45,5.45,0,0,1-5-2.73l-.05-.07,0-.07h0a4.21,4.21,0,0,1-.27-.49l0-.06,0-.06c-.81-1.56-1.45-3.73.78-6.68a17,17,0,0,1,4.19-3.75,1.83,1.83,0,0,1-.13-.16,16.45,16.45,0,0,1-1.93-3.27c-2.94,1.88-10.59,7.73-6.46,15.7a10.47,10.47,0,0,0,.54,1l.07.09a9.42,9.42,0,0,0,8.4,4.58,18.9,18.9,0,0,0,9.19-2.74c.22-.13.44-.26.65-.4A4.12,4.12,0,0,1,56.55,97.19Z"/><path class="cls-1" d="M36.31,53.76a44.81,44.81,0,0,0-3.13,7.14c.2-.17.42-.33.63-.48a7.6,7.6,0,0,1,8.38-.34A35.4,35.4,0,0,0,36.31,53.76Zm6.86,20.89,0-.23c-.56-.3-1.14-.63-1.72-1-.81.51-2.33,1.5-3.31,2.27a12.28,12.28,0,0,0-1.58,1.37l-.68.65-.84.88a40.34,40.34,0,0,1,.23-9.05c-1.17-.78-2.06-1.42-2.47-1.76s-.86-.7-1.15-.92a43.89,43.89,0,0,0,2.22,24c0-.13,0-.25,0-.38a14,14,0,0,1,3.3-8.28,20.73,20.73,0,0,1,1.53-1.71l.6-.58c.49-.47,1.16-1,1.17-1,.55-.44,1.4-1,2.12-1.51l1-.66A17,17,0,0,1,43.17,74.65Z"/><path class="cls-1" d="M72.74,111.34c-.28-2.06-.56-4.2-.76-6h0c-.22-1.92-.29-3.67-.34-5.46a1.71,1.71,0,0,1-.79.2h0a1.68,1.68,0,0,1-.74-.18c0,2.85.26,6.19.48,8.77.23,2.89,2.15,2.66,2.15,2.66Z"/><path class="cls-1" d="M72.32,93.87c.13,1.61.19,3.06.24,4.44.07,2.36.1,4.53.37,6.93h0c.18,1.54.41,3.35.66,5.16.28-1.89.51-5.87-.64-13-.2-1.23-.41-2.41-.63-3.52Z"/><path class="cls-1" d="M61.32,68.62c.43,3.95-1.25,7.41-4.73,7.78s-5.88-2.54-6.31-6.48l1.63,1.68,1.13-2,1.63,1.68,1.13-2L57.43,71l1.13-2,1.63,1.68,1.13-2Z"/><path class="cls-1" d="M51.51,69.47l.33.67.8-1.41c-.17-.35-.33-.68-.48-1,0-.11-.45-.11-.74.25s-.2.88.09,1.5Z"/><path class="cls-1" d="M54.1,66c-.08-.23-.56-.25-.88.12a1.23,1.23,0,0,0-.08,1.44c.31.66.66,1.35,1,2.12l.33.34.7-1.25c-.4-1-.78-1.91-1.11-2.77"/><path class="cls-1" d="M57.82,68.68c-.19-.52-.35-1-.49-1.43h0c-.41-1.32-1-3.13-1-3.13-.05-.19-.56-.19-.93.16a1.45,1.45,0,0,0-.29,1.63c.31.79,1.05,2.61,1.05,2.63l1.1,1.12.55-1Z"/><path class="cls-1" d="M58.54,67.81,60,69.34l.33-.53c-.34-1.14-.66-2.27-.91-3.3h0c-.33-1.33-.78-3.37-.78-3.37-.06-.22-.59-.29-1,.06s-.57,1-.28,1.9.55,1.7.91,2.84h0c.08.27.18.56.29.87Z"/><path class="cls-1" d="M62.15,69.73a7,7,0,0,1,.58-.51c-.37-1.69-.78-3.5-1.12-5.31h0c-.23-1.25-.56-3.49-.56-3.49,0-.26-.59-.21-1,.09-.57.41-.57,1-.35,1.91s.41,1.74.68,2.84h0c.18.77.41,1.59.65,2.44l.64-1s.43,2.43.48,3.07Z"/><path class="cls-1" d="M69.55,68.62a6.74,6.74,0,0,1,1,.62q.59-4.15.77-8.46c0-1.22.08-2.46.08-3.67,0,0,0-.34,0-.66s-.42-.72-1-.6a1.35,1.35,0,0,0-1,1.43c0,3.38.17,6.71.19,9h0c0,.58,0,1.37,0,2.32Z"/><path class="cls-1" d="M67.59,68a6.78,6.78,0,0,1,1,.25c0-.76,0-1.41,0-1.9h0c0-2.28-.15-5.61-.15-9h0c0-.22,0-.68,0-.88s-.57-.29-.94-.12c-.8.37-.62,1.17-.6,1.86h0c.15,3.5.5,6.6.7,9.68h0s0,.08,0,.12Zm-2,0a5.05,5.05,0,0,1,1-.08h0c-.2-3.06-.58-6.86-.74-10.39,0-.21-.52-.19-.93.08s-.69.61-.55,1.57.23,2,.36,3h0c.28,2.07.58,4.12.83,5.87Zm-2,.68a6.61,6.61,0,0,1,1.06-.45c-.26-1.76-.56-3.85-.84-6h0c-.15-1.11-.27-2.24-.36-3.35,0-.29-.6-.21-1,.09s-.62.76-.44,1.88c.12.89.32,1.85.51,2.87h0c.31,1.66.68,3.33,1,4.92Z"/><path class="cls-1" d="M68,55.22h0v-.48h0a35.59,35.59,0,0,1,.34-5.55h0a6.3,6.3,0,0,1,1.54-3.69,6.89,6.89,0,0,1,4.57-1.76c-2.7,2.38-4.09,4.27-4.5,9.86,0,.39,0,.86-.07,1.38a2.22,2.22,0,0,0-.85.59h0a1.58,1.58,0,0,0-.56-.29h0a2.52,2.52,0,0,0-.47-.06Z"/><path class="cls-1" d="M67,55.43v-.2h0v-.49h0A42.85,42.85,0,0,1,67.36,49a7.58,7.58,0,0,1,1.57-3.8,5.15,5.15,0,0,0-2.59,2.27,8.68,8.68,0,0,0-.67,2.71h0a23.58,23.58,0,0,0-.22,3.65h0c0,.81,0,1.66.06,2.52h.11a1.25,1.25,0,0,1,.44.07h0a.08.08,0,0,1,0,0h0a2,2,0,0,1,.92-1Z"/><line class="cls-1" x1="67.8" y1="43.54" x2="65.73" y2="44.97"/><path class="cls-1" d="M64.56,56.67v-.13h0c0-.91-.07-1.83-.07-2.69h0A25,25,0,0,1,64.72,50h0a12.53,12.53,0,0,1,.62-2.37,4.75,4.75,0,0,0-2.11,2.44A6.18,6.18,0,0,0,63,51.81c0,.59-.08,1.59-.08,2.52h0c0,1,.06,2.19.16,3.39h.11a2.29,2.29,0,0,1,.4.06h0a1.4,1.4,0,0,1,.15-.3h0a2.08,2.08,0,0,1,.69-.72h0l.14-.08Z"/><path class="cls-1" d="M67.81,43.53l.06,0h0Z"/><path class="cls-1" d="M62.13,58v0h0C62,56.71,62,55.47,62,54.33h0a18.94,18.94,0,0,1,.16-2.63h0c0-.09,0-.24.06-.33a1.67,1.67,0,0,0-.76.37,2.25,2.25,0,0,0-.89,1.58,23.93,23.93,0,0,0-.13,2.83h0a23,23,0,0,0,.22,3.12h.16a1.56,1.56,0,0,1,.35,0h0a1.2,1.2,0,0,1,.13-.31h0a2.37,2.37,0,0,1,.63-.77h0l.25-.19Z"/><path class="cls-1" d="M61.1,50.49a.25.25,0,0,1,0-.12l0,0A.68.68,0,0,0,61.1,50.49Z"/><path class="cls-1" d="M59.67,59.58a26.07,26.07,0,0,1-.24-3.43h0c0-.6,0-1.21.07-1.84h0a8.9,8.9,0,0,1,.11-1,3.25,3.25,0,0,0-1.46,1.42,7,7,0,0,0-.41,2.51c0,.33,0,.7,0,1h0A11.68,11.68,0,0,0,58.06,61l.23,0h0a1.53,1.53,0,0,1,.36,0h0a2,2,0,0,1,.16-.51h0a2.27,2.27,0,0,1,.68-.79h0l.18-.12Z"/><path class="cls-1" d="M61.1,50.49a.25.25,0,0,1,0-.12l0,0A.68.68,0,0,0,61.1,50.49Z"/><path class="cls-1" d="M57.15,61.33a12.89,12.89,0,0,1-.38-3.06h0c0-.36,0-.74,0-1.14h0a12,12,0,0,1,.4-2.26,2.76,2.76,0,0,0-1.62,1.68,9.48,9.48,0,0,0-.33,2.69h0c0,.14,0,.28,0,.42h0A10.38,10.38,0,0,0,55.8,63l.27,0h.14A2.2,2.2,0,0,1,57,61.41h0l.11-.08Z"/><path class="cls-1" d="M54.91,63.42a11.53,11.53,0,0,1-.61-3.76h0c0-.15,0-.3,0-.45h0A9.31,9.31,0,0,1,55,56,2.81,2.81,0,0,0,53,58a9.48,9.48,0,0,0-.32,2.66h0a.76.76,0,0,0,0,.15h0a11.19,11.19,0,0,0,.88,4l.23,0h0a1.33,1.33,0,0,1,.28,0h0a2.28,2.28,0,0,1,.69-1.3h0l.15-.12Z"/><path class="cls-1" d="M71.41,50a21.37,21.37,0,0,0-.52,3.64h0c0,.26,0,.56-.06.89,0,.1,0,.19.08.28a1.69,1.69,0,0,1,.56.19,22.84,22.84,0,0,1,2.1-7.38s-.42.31-.71.58-.34.32-.49.47a6.1,6.1,0,0,0-1,1.33Z"/><path class="cls-1" d="M51,67c-.13-.33-.24-.67-.35-1-1.09-3.27-.68-6.79,1.71-8.73a9.31,9.31,0,0,0-.62,3.32h0v.17h0a12,12,0,0,0,1,4.45,1.7,1.7,0,0,0-.19.19h0A2.09,2.09,0,0,0,52,66.66h0A1.82,1.82,0,0,0,51,67Z"/><path class="cls-1" d="M66.85,86.36l-.24.16c.08.39.17.8.25,1.21h0A48,48,0,0,1,67.67,97a.75.75,0,0,0,.73.76.76.76,0,0,0,.74-.76,47.35,47.35,0,0,0-1.06-9.42h0c0-.1,0-.19-.07-.29-.35-.25-.68-.52-1-.76l-.19-.18Z"/><path class="cls-1" d="M64.63,87.53c0,.21.07.42.11.63h0a52.08,52.08,0,0,1,.48,7,.73.73,0,1,0,1.45,0,44.15,44.15,0,0,0-.75-7.19h0c-.06-.31-.13-.61-.19-.91a12.11,12.11,0,0,1-1.1.51Z"/><path class="cls-1" d="M62.52,88.14c0,.15,0,.3,0,.45h0c.14,1.26.22,2.73.25,4.38a.69.69,0,1,0,1.38,0,41.55,41.55,0,0,0-.42-4.66h0c0-.15,0-.31-.07-.46a9.83,9.83,0,0,1-1.19.29Z"/><path class="cls-1" d="M60.35,88.29c0,.24,0,.49,0,.74h0c0,.86.07,1.61.09,2.3a.66.66,0,1,0,1.32,0c0-1-.11-1.85-.19-2.64h0l-.06-.44a6.51,6.51,0,0,1-.77,0h-.44Z"/><path class="cls-1" d="M57.25,90.51v.81c0,1.51,0,2.67-.14,4,0,0-1.3-.12-1.22-2.65,0-.66.06-1.35.08-2.12a1.44,1.44,0,0,0,.65.15A1.52,1.52,0,0,0,57.25,90.51Z"/><path class="cls-1" d="M57.25,90.51v.81c0,1.51,0,2.67-.14,4,0,0-1.3-.12-1.22-2.65,0-.66.06-1.35.08-2.12a1.44,1.44,0,0,0,.65.15A1.52,1.52,0,0,0,57.25,90.51Z"/><path class="cls-1" d="M59.35,97.38c.13-1.8.2-3.1.2-4.55h0c0-.31,0-.62,0-1a1.46,1.46,0,0,1-.69.16h0a1.74,1.74,0,0,1-.64-.13c0,1,0,1.84-.09,2.7-.09,2.51,1.23,2.77,1.23,2.77Z"/><path class="cls-1" d="M61.65,100.5l0-.49h0c.12-2.19.18-4.2.18-6h0c0-.4,0-.8,0-1.18a1.5,1.5,0,0,1-.7.16h0a1.53,1.53,0,0,1-.64-.13c0,1.38-.06,2.62-.17,4.24-.06,3,1.31,3.39,1.31,3.39Z"/><path class="cls-1" d="M63.07,103v0h0l-.46-.15.27-.2Z"/><path class="cls-1" d="M64.07,104.82c0-1.9.08-3.76.12-5.16h0c0-1.32.07-2.55.07-3.7h0c0-.5,0-1,0-1.46a1.59,1.59,0,0,1-.74.18h0a1.58,1.58,0,0,1-.69-.15c0,1.68-.07,3.53-.18,5.53h0q0,.59-.06,1.11c0,3,1.49,3.65,1.49,3.65Z"/><path class="cls-1" d="M66.79,107.57c-.06-2.1-.11-4.49-.11-6.66h0c0-.57,0-1.12,0-1.64h0c0-.59,0-1.16,0-1.71h0c0-.3,0-.59,0-.88a1.74,1.74,0,0,1-.76.19h0a2,2,0,0,1-.72-.17c0,.94,0,1.94-.06,3h0c0,1.29-.08,3-.12,4.73,0,2.72,1.75,3.15,1.75,3.15Z"/><path class="cls-1" d="M63.07,103v0h0Z"/><path class="cls-1" d="M69.71,109.72c-.25-2.76-.57-6.79-.57-10.13h0c0-.22,0-.44,0-.66h0v-.34a1.84,1.84,0,0,1-.75.18h0a1.72,1.72,0,0,1-.74-.18v.69h0c0,.52,0,1.07,0,1.63h0c0,1.89,0,4,.08,5.84.11,2.8,2,3,2,3Z"/><path class="cls-1" d="M58.15,88.2c0,.39,0,.81.05,1.23h0c0,.33,0,.65,0,1a.65.65,0,1,0,1.29,0c0-.41,0-.85-.06-1.31h0c0-.28,0-.54-.06-.81-.42,0-.83,0-1.23-.07Z"/><path class="cls-1" d="M56,87.92v.61h0V89a.61.61,0,1,0,1.21,0c0-.32,0-.63,0-.93q-.6-.07-1.17-.18Z"/><path class="cls-1" d="M53.88,87.38c0,.75,0,1.67-.12,2.76-.19,2.7,1.14,3,1.14,3,.06-1.07.1-2.23.14-3.66h0V89c0-.17,0-.34,0-.51h0c0-.28,0-.55,0-.82a10.39,10.39,0,0,1-1.16-.33Z"/><path class="cls-1" d="M69.16,88a52.11,52.11,0,0,1,1,10.21h0v.15a.74.74,0,1,0,1.48,0c0-1.51-.11-3.1-.27-4.87h0a39.28,39.28,0,0,0-.8-4.87"/><path class="cls-1" d="M67.67,85.78a13.33,13.33,0,0,0,1.43-1.29h0l.22-.23c.28.84.6,1.91.91,3.12a10.91,10.91,0,0,1-1.45-.76,8.72,8.72,0,0,1-1.11-.84Z"/><path class="cls-1" d="M74.49,45.73v-.52l-.07-.15a11.65,11.65,0,0,0-1.83,2.11h0l.39-.3h0l1.5-1.13Z"/><path class="cls-1" d="M38.24,62.94h0a3.75,3.75,0,0,1,1.93.59c3.23,1.89,4.84,4,6.72,6.47l.73,1A11.27,11.27,0,0,0,50,76.38a8.73,8.73,0,0,0,1.4,1.32A7.61,7.61,0,0,0,56,79.23a8.7,8.7,0,0,0,.89,0,7.58,7.58,0,0,0,5.56-3.32,9.57,9.57,0,0,0,1.5-3.68l.1-.12a3.36,3.36,0,0,1,2.57-1.19,3.56,3.56,0,0,1,3.47,3.64c0,6.36-4.89,10.78-9.28,10.78-6.31,0-8.67-1.56-11-4.63a14.46,14.46,0,0,1-2.6-6.49v-.13c-.22-1.34-.22-1.34-.24-1.43l-.22-.87-.81-.42-.15-.07-.08,0a93.08,93.08,0,0,1-10.3-6.48l-.23-.19.13-.12,0,0,0,0a7.37,7.37,0,0,1,.86-.71,4.82,4.82,0,0,1,.42-.26h0a3.4,3.4,0,0,1,1.63-.45m0-2a5.46,5.46,0,0,0-2.57.68,5.53,5.53,0,0,0-.71.44,8,8,0,0,0-1.07.89c-.51.45-.55.57-.55.57a10.34,10.34,0,0,0-1,1.37s.73.54,1.74,1.39A95.43,95.43,0,0,0,44.7,73l.25.12.21,1.27a16.3,16.3,0,0,0,3,7.51c3,3.87,6.17,5.41,12.62,5.41,5.3,0,11.28-5.12,11.28-12.78a5.56,5.56,0,0,0-5.47-5.64,5.4,5.4,0,0,0-4.08,1.88l-.47.57a7.94,7.94,0,0,1-1.27,3.4,5.6,5.6,0,0,1-4.12,2.47c-.23,0-.45,0-.68,0h0a5.67,5.67,0,0,1-3.4-1.13,6.26,6.26,0,0,1-1-1,9.39,9.39,0,0,1-2-4.93,1.56,1.56,0,0,0-.16-.2c-2.36-3-4.09-5.75-8.19-8.16a5.8,5.8,0,0,0-2.94-.86Z"/><circle class="cls-1" cx="66.84" cy="74.38" r="1"/><path class="cls-1" d="M75,64.92v6.31c.61-.68,1.44-1.64,2.37-2.84-.26-2-.45-4-.56-6C76.2,63.29,75.58,64.15,75,64.92Zm0-32.58v4l.36,0h.12c2.8.14,4.59,1.46,5.78,4.25a15.19,15.19,0,0,1,.87,2.88v0l.06,0h0L84.27,45,85.79,46c.23.16.47.33.7.51-.11-3.36-1.23-13.72-10.88-14.17C75.59,32.36,75.33,32.34,75,32.34ZM85.42,49l.49,3a21,21,0,0,0,.4-2.07v0c0-.25.06-.51.08-.76l-.2,0Z"/><path class="cls-1" d="M88,54.51l.5,0h0l.57,0-.74-1.27C88.25,53.71,88.13,54.1,88,54.51ZM81.78,31.39l.32.2a14.13,14.13,0,0,1,5.53,7,20.54,20.54,0,0,1,.71,2.18c.07.27.14.54.2.81h0s.15.76.26,1.53a25.67,25.67,0,0,1,.32,4,20.84,20.84,0,0,1-.15,2.5,3.6,3.6,0,0,1,.89.56,4.81,4.81,0,0,1,.95,1.08l.41.2A5.53,5.53,0,0,1,93,52.8h0l.53.21a4.78,4.78,0,0,1,1.34.77l.81.26a5,5,0,0,1,1.23.57c5.9-.18,11.86-.9,15.86-2.49a44.26,44.26,0,0,0-31-20.73ZM92.1,38.68a40.31,40.31,0,0,1,11.28,8c1,1,1.92,2,2.8,3.11a74.84,74.84,0,0,1-12.48.92h-.78a26,26,0,0,0,.24-3.49,28.85,28.85,0,0,0-.37-4.67c-.12-.83-.27-1.63-.28-1.66Z"/><path class="cls-1" d="M76,119.13a44.62,44.62,0,0,0,10.47-1.5,44,44,0,0,0,23-14.95,2.68,2.68,0,0,1-.33.18,13,13,0,0,1-6.24,1.48,18.69,18.69,0,0,1-2.59-.19c-.75-.12-1.5-.28-2.24-.47l-.8-.23s-.67-.19-1.47-.51A26.58,26.58,0,0,1,92,101.19q-.54-.31-1-.66a3.88,3.88,0,0,1-1.62,1.71A6.74,6.74,0,0,1,89,104c.35.23.7.45,1.06.66a30.26,30.26,0,0,0,4.23,2c.85.33,1.57.55,1.8.61s.6.18.9.26.78.2,1.18.29a40.46,40.46,0,0,1-16.84,6.81c.54-1.47,1.2-3,1.93-4.57a4,4,0,0,1-2.75,1.64h0a3.75,3.75,0,0,1-2.95,1.64A29.2,29.2,0,0,0,76,119.13Z"/><path class="cls-1" d="M93,98.05c.21.14.43.27.65.4a18.9,18.9,0,0,0,9.19,2.74,9.42,9.42,0,0,0,8.4-4.58l.07-.09a10.47,10.47,0,0,0,.54-1c4.13-8-3.52-13.82-6.46-15.7a16.45,16.45,0,0,1-1.93,3.27,1.83,1.83,0,0,1-.13.16A17,17,0,0,1,107.48,87c2.23,3,1.59,5.12.78,6.68l0,.06,0,.06a4.21,4.21,0,0,1-.27.49h0l0,.07,0,.07a5.45,5.45,0,0,1-5,2.73,15,15,0,0,1-7.07-2.14,3.34,3.34,0,0,1-2.28,2.14A4.12,4.12,0,0,1,93,98.05Z"/><path class="cls-1" d="M107.81,60.08a7.6,7.6,0,0,1,8.38.34c.21.15.43.31.63.48a44.81,44.81,0,0,0-3.13-7.14A35.4,35.4,0,0,0,107.81,60.08Zm-1.4,16.72,1,.66c.72.48,1.57,1.07,2.12,1.51,0,0,.68.55,1.17,1l.6.58a20.73,20.73,0,0,1,1.53,1.71,14,14,0,0,1,3.3,8.28c0,.13,0,.25,0,.38a43.89,43.89,0,0,0,2.22-24c-.29.22-.68.54-1.15.92s-1.3,1-2.47,1.76a40.34,40.34,0,0,1,.23,9.05l-.84-.88-.68-.65a12.28,12.28,0,0,0-1.58-1.37c-1-.77-2.5-1.76-3.31-2.27-.58.34-1.16.67-1.72,1l0,.23A17,17,0,0,1,106.41,76.8Z"/><path class="cls-1" d="M77.26,111.34c.28-2.06.56-4.2.76-6h0c.22-1.92.29-3.67.34-5.46a1.74,1.74,0,0,0,.79.2h0a1.68,1.68,0,0,0,.74-.18c0,2.85-.26,6.19-.48,8.77-.23,2.89-2.15,2.66-2.15,2.66Z"/><path class="cls-1" d="M77.68,93.87c-.13,1.61-.19,3.06-.24,4.44-.07,2.36-.1,4.53-.37,6.93h0c-.18,1.54-.41,3.35-.65,5.16-.29-1.89-.52-5.87.63-13,.2-1.23.41-2.41.63-3.52Z"/><path class="cls-1" d="M88.68,68.62c-.43,3.95,1.25,7.41,4.74,7.78s5.87-2.54,6.3-6.48L98.09,71.6,97,69.6l-1.63,1.68-1.13-2L92.57,71l-1.13-2-1.63,1.68-1.13-2Z"/><path class="cls-1" d="M98.49,69.47l-.33.67-.8-1.41c.17-.35.33-.68.48-1,0-.11.45-.11.74.25s.2.88-.09,1.5Z"/><path class="cls-1" d="M95.9,66c.08-.23.56-.25.88.12a1.23,1.23,0,0,1,.08,1.44c-.31.66-.66,1.35-1,2.12L95.5,70l-.71-1.25c.4-1,.78-1.91,1.11-2.77"/><path class="cls-1" d="M92.18,68.68c.19-.52.35-1,.49-1.43h0c.41-1.32,1-3.13,1-3.13,0-.19.56-.19.93.16a1.45,1.45,0,0,1,.29,1.63c-.31.79-1,2.61-1,2.63l-1.1,1.12-.55-1Z"/><path class="cls-1" d="M91.46,67.81,90,69.34l-.33-.53c.34-1.14.66-2.27.91-3.3h0c.33-1.33.78-3.37.78-3.37.06-.22.59-.29,1,.06s.57,1,.28,1.9-.55,1.7-.91,2.84h0c-.08.27-.18.56-.29.87Z"/><path class="cls-1" d="M87.85,69.73a7,7,0,0,0-.58-.51c.37-1.69.78-3.5,1.12-5.31h0c.23-1.25.56-3.49.56-3.49,0-.26.59-.21,1,.09.57.41.57,1,.35,1.91s-.41,1.74-.68,2.84h0c-.18.77-.41,1.59-.65,2.44l-.64-1s-.43,2.43-.48,3.07Z"/><path class="cls-1" d="M80.45,68.62a7.37,7.37,0,0,0-1,.62q-.59-4.15-.77-8.46c0-1.22-.08-2.46-.08-3.67,0,0,0-.34,0-.66s.42-.72,1-.6a1.35,1.35,0,0,1,1,1.43c0,3.38-.17,6.71-.19,9h0c0,.58,0,1.37,0,2.32Z"/><path class="cls-1" d="M82.41,68s0-.08,0-.12h0c.2-3.08.55-6.18.7-9.68h0c0-.69.2-1.49-.6-1.86-.37-.17-.94-.07-.94.12s0,.66,0,.88h0c0,3.4-.13,6.73-.15,9h0c0,.49,0,1.14,0,1.9a6.78,6.78,0,0,1,1-.25Zm2,0c.25-1.75.55-3.8.83-5.87h0c.13-1,.23-2,.36-3s-.2-1.34-.55-1.57-.92-.29-.93-.08c-.16,3.53-.54,7.33-.74,10.39h0a5,5,0,0,1,1,.08Zm2,.68c.35-1.59.72-3.26,1-4.92h0c.19-1,.39-2,.51-2.87.18-1.12,0-1.47-.44-1.88s-.93-.38-1-.09c-.09,1.11-.21,2.24-.36,3.35h0c-.28,2.11-.58,4.2-.84,6a6.61,6.61,0,0,1,1.06.45Z"/><path class="cls-1" d="M82,55.22h0v-.48h0a35.59,35.59,0,0,0-.34-5.55h0a6.3,6.3,0,0,0-1.54-3.69,6.87,6.87,0,0,0-4.57-1.76c2.7,2.38,4.09,4.27,4.5,9.86,0,.39,0,.86.07,1.38a2.33,2.33,0,0,1,.86.59h0a1.47,1.47,0,0,1,.55-.29h0a2.52,2.52,0,0,1,.47-.06Z"/><path class="cls-1" d="M83,55.43v-.2h0v-.49h0A42.85,42.85,0,0,0,82.64,49a7.58,7.58,0,0,0-1.57-3.8,5.19,5.19,0,0,1,2.6,2.27,8.72,8.72,0,0,1,.66,2.71h0a23.58,23.58,0,0,1,.22,3.65h0c0,.81,0,1.66-.06,2.52h-.11a1.25,1.25,0,0,0-.44.07h0a.08.08,0,0,0,0,0h0a2,2,0,0,0-.92-1Z"/><line class="cls-1" x1="84.27" y1="44.97" x2="82.2" y2="43.54"/><path class="cls-1" d="M85.45,56.67v-.13h0c0-.91.07-1.83.07-2.69h0A25,25,0,0,0,85.28,50h0a12.53,12.53,0,0,0-.62-2.37,4.75,4.75,0,0,1,2.11,2.44A6.18,6.18,0,0,1,87,51.81c0,.59.08,1.59.08,2.52h0c0,1-.06,2.19-.16,3.39h-.1a2.25,2.25,0,0,0-.41.06h0a1.4,1.4,0,0,0-.15-.3h0a2.08,2.08,0,0,0-.69-.72h0l-.13-.08Z"/><path class="cls-1" d="M82.19,43.53l-.06,0h0Z"/><path class="cls-1" d="M87.87,58v0h0c.12-1.3.18-2.54.18-3.68h0a17.51,17.51,0,0,0-.16-2.63h0c0-.09,0-.24-.06-.33a1.67,1.67,0,0,1,.76.37,2.25,2.25,0,0,1,.89,1.58,23.93,23.93,0,0,1,.13,2.83h0a23,23,0,0,1-.22,3.12h-.16a1.56,1.56,0,0,0-.35,0h0a1.2,1.2,0,0,0-.13-.31h0a2.37,2.37,0,0,0-.63-.77h0L87.87,58Z"/><path class="cls-1" d="M88.9,50.49a.25.25,0,0,0,0-.12l0,0A.68.68,0,0,1,88.9,50.49Z"/><path class="cls-1" d="M90.33,59.58a26.07,26.07,0,0,0,.24-3.43h0c0-.6,0-1.21-.07-1.84h0a8.9,8.9,0,0,0-.11-1,3.25,3.25,0,0,1,1.46,1.42,7,7,0,0,1,.41,2.51c0,.33,0,.7,0,1h0A11.68,11.68,0,0,1,91.94,61l-.23,0h0a1.53,1.53,0,0,0-.36,0h0a2,2,0,0,0-.16-.51h0a2.27,2.27,0,0,0-.68-.79h0l-.18-.12Z"/><path class="cls-1" d="M88.9,50.49a.25.25,0,0,0,0-.12l0,0A.68.68,0,0,1,88.9,50.49Z"/><path class="cls-1" d="M92.85,61.33a12.89,12.89,0,0,0,.38-3.06h0c0-.36,0-.74,0-1.14h0a11.27,11.27,0,0,0-.4-2.26,2.76,2.76,0,0,1,1.62,1.68,9.48,9.48,0,0,1,.33,2.69h0c0,.14,0,.28,0,.42h0A10.38,10.38,0,0,1,94.2,63l-.27,0h-.14A2.2,2.2,0,0,0,93,61.41h0l-.11-.08Z"/><path class="cls-1" d="M95.09,63.42a11.53,11.53,0,0,0,.61-3.76h0v-.45h0A9.53,9.53,0,0,0,95.05,56,2.81,2.81,0,0,1,97,58a9.82,9.82,0,0,1,.33,2.66h0v.15h0a11.19,11.19,0,0,1-.88,4l-.23,0h0a1.33,1.33,0,0,0-.28,0h0a2.28,2.28,0,0,0-.69-1.3h0l-.15-.12Z"/><path class="cls-1" d="M78.59,50a21.37,21.37,0,0,1,.52,3.64h0c0,.26,0,.56.06.89,0,.1,0,.19-.08.28a1.69,1.69,0,0,0-.56.19,22.59,22.59,0,0,0-2.1-7.38s.42.31.71.58.34.32.49.47a6.1,6.1,0,0,1,1,1.33Z"/><path class="cls-1" d="M99,67c.13-.33.25-.67.35-1,1.09-3.27.68-6.79-1.71-8.73a9.31,9.31,0,0,1,.62,3.32h0v.17h0a12,12,0,0,1-1,4.45,1.7,1.7,0,0,1,.19.19h0A2.09,2.09,0,0,1,98,66.66h0A1.82,1.82,0,0,1,99,67Z"/><path class="cls-1" d="M83.15,86.36l.24.16c-.08.39-.17.8-.25,1.21h0A48,48,0,0,0,82.33,97a.75.75,0,0,1-.73.76.76.76,0,0,1-.74-.76,47.35,47.35,0,0,1,1.06-9.42h0c0-.1,0-.19.07-.29.35-.25.69-.52,1-.76l.19-.18Z"/><path class="cls-1" d="M85.37,87.53c0,.21-.07.42-.11.63h0a52.08,52.08,0,0,0-.48,7,.73.73,0,1,1-1.45,0,44.15,44.15,0,0,1,.75-7.19h0c.06-.31.13-.61.19-.91a12.11,12.11,0,0,0,1.1.51Z"/><path class="cls-1" d="M87.48,88.14c0,.15,0,.3,0,.45h0c-.14,1.26-.22,2.73-.25,4.38a.69.69,0,1,1-1.38,0,41.55,41.55,0,0,1,.42-4.66h0c0-.15,0-.31.07-.46a9.83,9.83,0,0,0,1.19.29Z"/><path class="cls-1" d="M89.65,88.29c0,.24,0,.49-.05.74h0c0,.86-.07,1.61-.09,2.3a.66.66,0,1,1-1.32,0c0-1,.11-1.85.19-2.64h0l.06-.44a6.51,6.51,0,0,0,.77,0h.44Z"/><path class="cls-1" d="M92.75,90.51v.81c0,1.51,0,2.67.14,4,0,0,1.3-.12,1.22-2.65,0-.66-.06-1.35-.08-2.12a1.44,1.44,0,0,1-.65.15A1.52,1.52,0,0,1,92.75,90.51Z"/><path class="cls-1" d="M92.75,90.51v.81c0,1.51,0,2.67.14,4,0,0,1.3-.12,1.22-2.65,0-.66-.06-1.35-.08-2.12a1.44,1.44,0,0,1-.65.15A1.52,1.52,0,0,1,92.75,90.51Z"/><path class="cls-1" d="M90.65,97.38c-.13-1.8-.2-3.1-.2-4.55h0c0-.31,0-.62,0-1a1.46,1.46,0,0,0,.69.16h0a1.7,1.7,0,0,0,.64-.13c0,1,0,1.84.09,2.7.09,2.51-1.23,2.77-1.23,2.77Z"/><path class="cls-1" d="M88.35,100.5l0-.49h0c-.12-2.19-.18-4.2-.18-6h0c0-.4,0-.8,0-1.18a1.5,1.5,0,0,0,.7.16h0a1.53,1.53,0,0,0,.64-.13c0,1.38.06,2.62.17,4.24.06,3-1.31,3.39-1.31,3.39Z"/><path class="cls-1" d="M86.93,103v0h0l.46-.15-.27-.2Z"/><path class="cls-1" d="M85.93,104.82c0-1.9-.08-3.76-.12-5.16h0c0-1.32-.07-2.55-.07-3.7h0c0-.5,0-1,0-1.46a1.59,1.59,0,0,0,.74.18h0a1.58,1.58,0,0,0,.69-.15c0,1.68.07,3.53.18,5.53h0q0,.59.06,1.11c0,3-1.49,3.65-1.49,3.65Z"/><path class="cls-1" d="M83.21,107.57c.06-2.1.11-4.49.11-6.66h0c0-.57,0-1.12,0-1.64h0c0-.59,0-1.16,0-1.71h0v-.88a1.74,1.74,0,0,0,.76.19h0a1.9,1.9,0,0,0,.72-.17c0,.94,0,1.94.06,3h0c0,1.29.08,3,.12,4.73,0,2.72-1.75,3.15-1.75,3.15Z"/><path class="cls-1" d="M86.93,103v0h0Z"/><path class="cls-1" d="M80.29,109.72c.25-2.76.57-6.79.57-10.13h0c0-.22,0-.44,0-.66h0v-.34a1.84,1.84,0,0,0,.75.18h0a1.72,1.72,0,0,0,.74-.18v.69h0c0,.52,0,1.07,0,1.63h0c0,1.89,0,4-.08,5.84-.11,2.8-2,3-2,3Z"/><path class="cls-1" d="M91.85,88.2c0,.39,0,.81,0,1.23h0c0,.33,0,.65,0,1a.65.65,0,1,1-1.29,0c0-.41,0-.85.06-1.31h0c0-.28,0-.54.06-.81.42,0,.83,0,1.23-.07Z"/><path class="cls-1" d="M94,87.92v.61h0V89a.61.61,0,1,1-1.21,0c0-.32,0-.63,0-.93q.6-.07,1.17-.18Z"/><path class="cls-1" d="M96.12,87.38c0,.75,0,1.67.12,2.76.19,2.7-1.14,3-1.14,3C95,92.07,95,90.91,95,89.48h0V89c0-.17,0-.34,0-.51h0c0-.28,0-.55,0-.82a10.39,10.39,0,0,0,1.16-.33Z"/><path class="cls-1" d="M80.84,88a52.11,52.11,0,0,0-1,10.21h0v.15a.74.74,0,1,1-1.48,0c0-1.51.11-3.1.27-4.87h0a39.28,39.28,0,0,1,.8-4.87"/><path class="cls-1" d="M82.33,85.78a13.33,13.33,0,0,1-1.43-1.29h0l-.22-.23c-.28.84-.6,1.91-.91,3.12a10.91,10.91,0,0,0,1.45-.76,8.72,8.72,0,0,0,1.11-.84Z"/><path class="cls-1" d="M75.51,45.73v-.52l.07-.15a11.65,11.65,0,0,1,1.83,2.11h0l-.39-.3h0l-1.5-1.13Z"/><path class="cls-1" d="M111.76,62.94a3.4,3.4,0,0,1,1.63.45h0a4.82,4.82,0,0,1,.42.26,6.63,6.63,0,0,1,.86.71l0,0,0,0,.13.12-.23.19a93.08,93.08,0,0,1-10.3,6.48l-.08,0-.15.07-.81.42-.22.87c0,.09,0,.09-.24,1.43v.13a14.46,14.46,0,0,1-2.6,6.49c-2.37,3.07-4.73,4.63-11,4.63-4.39,0-9.28-4.42-9.28-10.78a3.56,3.56,0,0,1,3.47-3.64A3.36,3.36,0,0,1,86,72.07l.1.12a9.57,9.57,0,0,0,1.5,3.68,7.58,7.58,0,0,0,5.56,3.32,8.7,8.7,0,0,0,.89,0,7.67,7.67,0,0,0,4.61-1.53A9.11,9.11,0,0,0,100,76.38,11.27,11.27,0,0,0,102.38,71l.73-1c1.88-2.45,3.49-4.58,6.72-6.47a3.77,3.77,0,0,1,1.93-.59h0m0-2a5.8,5.8,0,0,0-2.94.86c-4.1,2.41-5.83,5.13-8.19,8.16l-.16.2a9.39,9.39,0,0,1-2,4.93,6.26,6.26,0,0,1-1,1A5.67,5.67,0,0,1,94,77.23h0c-.23,0-.45,0-.68,0a5.6,5.6,0,0,1-4.12-2.47A7.94,7.94,0,0,1,88,71.33l-.47-.57a5.4,5.4,0,0,0-4.08-1.88,5.56,5.56,0,0,0-5.47,5.64c0,7.66,6,12.78,11.28,12.78,6.45,0,9.63-1.54,12.62-5.41a16.3,16.3,0,0,0,3-7.51l.21-1.27.25-.12A95.43,95.43,0,0,0,116,66.28c1-.85,1.74-1.39,1.74-1.39a10.34,10.34,0,0,0-1-1.37s0-.12-.55-.57a8,8,0,0,0-1.07-.89,5.53,5.53,0,0,0-.71-.44,5.46,5.46,0,0,0-2.57-.68Z"/><circle class="cls-1" cx="83.16" cy="74.38" r="1"/><polygon class="cls-1" points="75 75 72.01 73.67 71.97 76.25 75 75"/><polygon class="cls-1" points="75 75 77.99 73.67 78.03 76.25 75 75"/></svg>