<svg id="Symbols" xmlns="http://www.w3.org/2000/svg" viewBox="0 0 150 150"><defs><style>.cls-1{fill:#221f20;}</style></defs><path class="cls-1" d="M119.25,58.79a47.24,47.24,0,0,1,1.4,4.71c2.77,11.37,1,22.94-4.7,31.73a18.43,18.43,0,0,1-7.17,6.41l-.06,0-.06,0a16.83,16.83,0,0,1-7.77,1.9,16.55,16.55,0,0,1-7.86-2,14.69,14.69,0,0,1-7.35-9,13.67,13.67,0,0,1,1.46-10.71,16,16,0,0,1,13.79-7.57,16.63,16.63,0,0,1,5.94,1.09l7.95,3,2.55-8.12a41.41,41.41,0,0,0,1.88-11.57M81.35,20.2a44.33,44.33,0,0,1,11.78,5.44c14.32,9.41,21.48,26.79,16.61,42.32a24.74,24.74,0,0,0-8.81-1.62,23.92,23.92,0,0,0-20.67,11.5c-6.45,10.87-2.43,24.68,9,30.83a24.5,24.5,0,0,0,11.65,2.93,24.75,24.75,0,0,0,11.48-2.81,26.38,26.38,0,0,0,10.27-9.18c15-22.92,6.24-57.68-20.07-72.56A57.33,57.33,0,0,0,81.35,20.2Z"/><path class="cls-1" d="M70.45,29.19q1,0,2,.06a18.21,18.21,0,0,1,9.13,3l.06,0,.06,0A16.62,16.62,0,0,1,89.4,45.89,14.72,14.72,0,0,1,85.33,56.7a13.64,13.64,0,0,1-9.88,4.15h-.17C67.69,60.76,61,54.81,59.8,47l-1.34-8.41-8.31,1.85A41.5,41.5,0,0,0,39.2,44.6c.78-.91,1.58-1.79,2.43-2.64,8-8.12,18.54-12.77,28.82-12.77m0-8c-26.43,0-50.66,24.39-50.4,53.72a57.27,57.27,0,0,0,4.67,21.81A44.35,44.35,0,0,1,23.55,83.8c1-17.11,12.46-32,28.35-35.55,1.82,11.5,11.67,20.47,23.29,20.6h.26c12.52,0,22.32-10.33,22-23.2A24.73,24.73,0,0,0,85.93,25.56a26.34,26.34,0,0,0-13.08-4.3c-.8-.05-1.6-.07-2.4-.07Z"/><path class="cls-1" d="M50.89,74.59h0A13.67,13.67,0,0,1,63,81.65C66.68,88.27,64.85,97,58.71,102l-6.62,5.36,5.77,6.27A41.45,41.45,0,0,0,67,121.05c-13.15-2.37-24.43-10.13-30-21.1a18.28,18.28,0,0,1-2-9.41V90.4A16.61,16.61,0,0,1,43,76.9a15.15,15.15,0,0,1,7.94-2.31m0-8a23.08,23.08,0,0,0-12.14,3.5,24.71,24.71,0,0,0-11.67,20,26.33,26.33,0,0,0,2.81,13.48C38.19,120,56.5,129.8,75.53,129.8a53.48,53.48,0,0,0,27.23-7.35,57.54,57.54,0,0,0,16.55-15,44.54,44.54,0,0,1-10.6,7.48,41.07,41.07,0,0,1-18.43,4.4A35.73,35.73,0,0,1,63.75,108.2c9-7.33,11.88-20.34,6.19-30.47a21.72,21.72,0,0,0-19-11.14Z"/></svg>