<svg id="Symbols" xmlns="http://www.w3.org/2000/svg" viewBox="0 0 150 150"><path d="M81.92,73.93a6.44,6.44,0,1,0-6.44,6.43A6.44,6.44,0,0,0,81.92,73.93Zm-8.87,0a2.44,2.44,0,1,1,2.43,2.43A2.44,2.44,0,0,1,73.05,73.93Z"/><path d="M75.55,66.3h.54a7.63,7.63,0,0,1,3.14,1A16.32,16.32,0,0,0,75.48,46a16.33,16.33,0,0,0-3.74,21.28,7.63,7.63,0,0,1,3.14-1Zm-.87-4h-.11l-.68.08a12.46,12.46,0,0,1-.55-3.65,12.3,12.3,0,0,1,2.14-7,12.23,12.23,0,0,1,2.15,7,12.46,12.46,0,0,1-.55,3.65l-.68-.08h-.13s-.24,0-.72,0h-.87Z"/><path d="M85.56,86.84A16.3,16.3,0,0,0,93.71,89a16.48,16.48,0,0,0,6-1.13A16.33,16.33,0,0,0,83.56,74h-.43a7.76,7.76,0,0,1-.75,3.2,4.43,4.43,0,0,1-.6,1,7.53,7.53,0,0,1-2.4,2.24A16.27,16.27,0,0,0,85.56,86.84ZM85,80.6a8.76,8.76,0,0,0,1-1.79c.08-.16.15-.33.22-.49A12.31,12.31,0,0,1,94.65,85c-.31,0-.63,0-.94,0a12.42,12.42,0,0,1-9-4Z"/><path d="M69.19,78.26a5.51,5.51,0,0,1-.6-1,7.46,7.46,0,0,1-.75-3.2h-.42A16.33,16.33,0,0,0,51.29,87.9a16.29,16.29,0,0,0,14.12-1.06,16.27,16.27,0,0,0,6.18-6.34A7.53,7.53,0,0,1,69.19,78.26Zm-5.78,5.11A12.23,12.23,0,0,1,57.26,85c-.31,0-.63,0-.94,0a12.31,12.31,0,0,1,8.38-6.67l.24.55a10.25,10.25,0,0,0,1,1.71c.11.17.24.33.36.5A12.11,12.11,0,0,1,63.41,83.37Z"/><path d="M44.93,119.13C52.49,124.75,64,129,76.47,129a52,52,0,0,0,26.5-7.1,67.58,67.58,0,0,0,12.53-9.93s-11.63,4.66-18.22,5.34a58.63,58.63,0,0,1-6,.32,45.22,45.22,0,0,1-32.18-12.82,30.9,30.9,0,0,1-9-17.17,17.88,17.88,0,0,1,1.28-4.34,14.66,14.66,0,0,1,.77-1.54l.2-.34c.26-.42.46-.75.69-1.07a17.31,17.31,0,0,1,2.64-3,10.32,10.32,0,0,1,1.09-.9A17.67,17.67,0,0,1,67.42,72.8h.5c0-.31.12-.62.2-.93A9.9,9.9,0,0,1,70,68.57a7.24,7.24,0,0,1,.71-.63l0,0a16.94,16.94,0,0,1-2.57-9.15A18.13,18.13,0,0,1,73.93,46a29.73,29.73,0,0,0-6.13-.55c-7.9,0-22,2.43-33.49,17.53C19.25,82.76,28.53,106.93,44.93,119.13ZM40.68,67.82c6.4-8.41,13.62-12.12,19.91-13.57a25.72,25.72,0,0,0-.45,4.36,24.5,24.5,0,0,0,.91,7,25.13,25.13,0,0,0-6.38,2.61A24.42,24.42,0,0,0,52,70a18.55,18.55,0,0,0-1.77,1.46,25.34,25.34,0,0,0-3.76,4.26c-.35.5-.62.94-.89,1.37l0,.09c-.08.12-.15.24-.22.37h0l-.08.13A25.34,25.34,0,0,0,44,80.1a26,26,0,0,0-1.83,6.22L42,87.37l.12,1.07a38.56,38.56,0,0,0,11.37,22A53.11,53.11,0,0,0,66.86,120a43.14,43.14,0,0,1-17.15-7.28c-8-5.91-13.45-14.82-14.72-23.83A27.36,27.36,0,0,1,40.68,67.82Z"/><path d="M129.5,78.07c1.62-15.92-5.6-38.5-27-51.06a72,72,0,0,0-15-5.85L87,21.05S97.4,27.59,101.7,33.67c3.38,4.79,14,18.18,9.58,39.17-2.56,12.07-11.69,16.52-11.69,16.52a18.36,18.36,0,0,1-4.4,1.06,14,14,0,0,1-1.69.1h-.42c-.49,0-.88,0-1.27-.06a16.78,16.78,0,0,1-3.91-.8,10,10,0,0,1-1.32-.49,16.6,16.6,0,0,1-2-1,17.47,17.47,0,0,1-6.64-6.8l0-.05c-.3.12-.6.21-.91.3a5.58,5.58,0,0,1-1.62.2,13.45,13.45,0,0,1-2.2-.2,7.91,7.91,0,0,1-.9-.3l0,.05a17.74,17.74,0,0,1-6.64,6.8,18.37,18.37,0,0,1-9.11,2.15,21.71,21.71,0,0,1-3.3-.23c5.59,16.33,21.28,24.21,33,25.26,1.53.14,3,.2,4.49.2C112.89,115.55,127.26,100.06,129.5,78.07ZM90.66,107.55c-1.23,0-2.5,0-3.78-.17A32.4,32.4,0,0,1,66.12,96.73a21,21,0,0,0,3.54-1.67,25.92,25.92,0,0,0,5.41-4.21,25.37,25.37,0,0,0,5.47,4.24,24.86,24.86,0,0,0,2.83,1.41,17.71,17.71,0,0,0,2.15.8,24.91,24.91,0,0,0,5.57,1.12c.62.06,1.16.08,1.73.09h.68a21.33,21.33,0,0,0,2.64-.16,25.44,25.44,0,0,0,6.3-1.53l.34-.12.32-.16c1.29-.63,12.73-6.61,16-22a55.29,55.29,0,0,0,1.25-11.67,41.9,41.9,0,0,1,1.19,14.43c-.93,9.15-4.26,16.8-9.61,22.13S99.21,107.55,90.66,107.55Z"/><path d="M22.62,90.09c-.09-.32-.18-.65-.26-1-.13.62-.2,1-.2,1Z"/><path d="M54.21,44.94A33.9,33.9,0,0,1,65,43.12a24.27,24.27,0,0,1,11.41,2.5A18.29,18.29,0,0,1,79.5,48.9a14.37,14.37,0,0,1,1,1.44l.19.34c.24.44.42.78.59,1.13A17.78,17.78,0,0,1,82.5,55.6,10.25,10.25,0,0,1,82.73,57a16.78,16.78,0,0,1,.14,2.25,17.38,17.38,0,0,1-2.57,9.15l0,0a8.42,8.42,0,0,1,.7.64,9.91,9.91,0,0,1,1.91,3.3,7.33,7.33,0,0,1,.2.93h.52a17.11,17.11,0,0,1,8.74,2.35,18.1,18.1,0,0,1,8.43,11.29c12.08-14,9.77-32,4.82-42.69-7.36-15.87-21.81-23-36.26-23a44.91,44.91,0,0,0-17.73,3.66C36.92,31.26,20.12,50,20.29,74.27a67.87,67.87,0,0,0,2.07,14.85A162,162,0,0,1,26.7,71.76C28.62,66.29,33.86,51.76,54.21,44.94Zm.57-12.68a37.13,37.13,0,0,1,14.56-3c13,0,23.59,6.69,29,18.36,2.94,6.35,4.58,15.37,2,23.95a26.18,26.18,0,0,0-3.9-2.8,24.37,24.37,0,0,0-6.48-2.68,25,25,0,0,0,.93-6.83,25.53,25.53,0,0,0-.19-3.16,17.3,17.3,0,0,0-.38-2.26,25.51,25.51,0,0,0-1.81-5.39c-.27-.57-.53-1.06-.79-1.54l-.21-.37v0l-.07-.13a25.33,25.33,0,0,0-1.5-2.28,26.18,26.18,0,0,0-4.48-4.69L81,39l-.53-.31A32.11,32.11,0,0,0,65,35.12a41.81,41.81,0,0,0-13.3,2.24A58.31,58.31,0,0,0,41.6,41.78,41.21,41.21,0,0,1,54.78,32.26Z"/></svg>