<svg id="Symbols" xmlns="http://www.w3.org/2000/svg" viewBox="0 0 150 150"><defs><style>.cls-1{fill:#221f20;}</style></defs><path class="cls-1" d="M75,73.63a5.11,5.11,0,1,1-5.1,5.1,5.11,5.11,0,0,1,5.1-5.1m0-4a9.11,9.11,0,1,0,9.1,9.1,9.1,9.1,0,0,0-9.1-9.1Z"/><path class="cls-1" d="M75,29.22a10.41,10.41,0,0,1,2.91,20.4L75,50.47l-2.9-.85A10.41,10.41,0,0,1,75,29.22m0-8a18.41,18.41,0,0,0-5.13,36.09l3.21,9.87a11.6,11.6,0,0,1,3.84,0l3.21-9.87A18.41,18.41,0,0,0,75,21.22Z"/><path class="cls-1" d="M88.58,60.21H82.85l-2.62,8a11.52,11.52,0,0,1,3.12,2.27l6.94-5-1.71-5.26Z"/><path class="cls-1" d="M37.8,56.24A10.41,10.41,0,0,1,48.21,67l-.1,3-1.69,2.5A10.41,10.41,0,1,1,37.8,56.24m0-8A18.41,18.41,0,1,0,53,77H63.42a11.87,11.87,0,0,1,.44-1.88,12.13,12.13,0,0,1,.74-1.78l-8.39-6.1a18.4,18.4,0,0,0-18.41-19Z"/><path class="cls-1" d="M67.11,60.09H61.58l-1.77,5.45,6.84,5a11.52,11.52,0,0,1,3.12-2.26l-2.66-8.17Z"/><path class="cls-1" d="M52,100a10.26,10.26,0,0,1,3.51.62l2.85,1L60.24,104a10.46,10.46,0,0,1,.19,12.5A10.41,10.41,0,1,1,52,100M66.65,87l-8.4,6.1a18.39,18.39,0,1,0,8.31,6l3.2-9.87a10.74,10.74,0,0,1-1.64-1A11.9,11.9,0,0,1,66.65,87Z"/><path class="cls-1" d="M54.84,80.47l-1.71,5.27,4.63,3.37,6.85-5a11.64,11.64,0,0,1-1.19-3.66Z"/><path class="cls-1" d="M98,100a10.41,10.41,0,1,1-8.4,16.53,10.46,10.46,0,0,1,.19-12.5l1.86-2.39,2.84-1A10.22,10.22,0,0,1,98,100M83.35,87a11.8,11.8,0,0,1-1.46,1.26,12.29,12.29,0,0,1-1.65,1l3.2,9.87a18.44,18.44,0,1,0,8.31-6L83.35,87Z"/><path class="cls-1" d="M73.08,90.29l-2.66,8.16,4.48,3.25,4.64-3.37-2.62-8a12.21,12.21,0,0,1-1.91.16,12.46,12.46,0,0,1-1.93-.16Z"/><path class="cls-1" d="M112.2,56.24a10.41,10.41,0,1,1-8.62,16.26L101.88,70l-.09-3A10.41,10.41,0,0,1,112.2,56.24m0-8a18.4,18.4,0,0,0-18.41,19l-8.4,6.1a11.17,11.17,0,0,1,.75,1.78A11.87,11.87,0,0,1,86.58,77H97a18.46,18.46,0,0,0,15.23,8.07,18.41,18.41,0,0,0,0-36.82Z"/><path class="cls-1" d="M95,80.47H86.58a11.4,11.4,0,0,1-1.19,3.66l7,5.05,4.47-3.26L95,80.47Z"/></svg>