<svg id="Symbols" xmlns="http://www.w3.org/2000/svg" viewBox="0 0 150 150"><defs><style>.cls-1{fill:#221f20;}.cls-2{fill:none;stroke:#221f20;stroke-miterlimit:10;stroke-width:4px;}</style></defs><path class="cls-1" d="M75,30.44a54.21,54.21,0,0,1,36.53,13.71,131.64,131.64,0,0,0-73.06,0A54.27,54.27,0,0,1,75,30.44m0-4c-21,0-39.34,10.63-48.65,26.27a126.49,126.49,0,0,1,97.3,0C114.34,37.07,96.05,26.44,75,26.44Z"/><path class="cls-2" d="M86.45,29.43c-1.39-4.53-6-7.86-11.45-7.86S64.94,24.9,63.55,29.43"/><path class="cls-1" d="M75,50.26c2.81,0,5.67.1,8.55.3l1,.06c1.21.09,2.47.22,3.59.34l1,.1c2.57.29,4.94.64,7.23,1l1,.18c1.19.22,2.34.45,3.54.71l.95.2c1.53.34,3,.72,4.55,1.12-6.65.72-13.19,1.21-19.73,1.48h-.35l-.63,0a15,15,0,0,0-21,0l-1.32-.06h-.07c-6.54-.27-13.07-.76-19.72-1.47,1.64-.44,3.3-.85,5-1.21l1-.21c1-.23,2.29-.49,3.47-.7L54.07,52c2.37-.4,4.81-.74,7.26-1h.05l.95-.12c1.13-.11,2.34-.21,3.58-.3l1-.07c2.77-.17,5.48-.26,8-.26m0-4c-2.78,0-5.55.1-8.28.27l-1.07.07c-1.25.09-2.5.19-3.74.31l-1,.13q-3.81.41-7.51,1l-1.06.18c-1.22.21-2.44.47-3.64.72l-1,.21A118.9,118.9,0,0,0,26.36,56a316.66,316.66,0,0,0,36.76,3.75s1.26.07,3.36.15a10.84,10.84,0,0,1,17.44,0h0q1.47-.06,2.94-.15A319,319,0,0,0,123.64,56a119.55,119.55,0,0,0-20.88-6.75l-1-.21c-1.22-.27-2.43-.51-3.66-.73l-1-.19q-3.69-.64-7.47-1.08l-1-.1c-1.23-.13-2.47-.26-3.72-.35l-1.08-.06c-2.89-.2-5.83-.31-8.79-.31Z"/><path class="cls-2" d="M95.5,50.15s-2,6-4.94,7.46"/><path class="cls-2" d="M81.55,49.64a10.91,10.91,0,0,1-4.71,4.29"/><path class="cls-2" d="M89.49,49.27s-2.47,5.5-6.61,7.67"/><path class="cls-2" d="M54.65,50.15s2,6,4.94,7.46"/><path class="cls-2" d="M68.6,49.64a10.84,10.84,0,0,0,4.71,4.29"/><path class="cls-2" d="M60.66,49.27s2.46,5.5,6.61,7.67"/><path class="cls-1" d="M75,61.85a54.22,54.22,0,0,1,36.53,13.71,131.76,131.76,0,0,0-73.06,0A54.26,54.26,0,0,1,75,61.85m0-4c-21,0-39.34,10.63-48.65,26.26a126.55,126.55,0,0,1,97.3,0C114.34,68.48,96.05,57.85,75,57.85Z"/><path class="cls-1" d="M75,81.67c2.83,0,5.7.1,8.56.3l1,.06c1.21.09,2.42.21,3.58.33l1,.11c2.57.29,4.93.63,7.2,1l1,.18c1.18.21,2.33.44,3.55.71l.94.2c1.53.34,3,.71,4.56,1.12-6.65.72-13.19,1.21-19.74,1.48h-.21l-.77.05a15,15,0,0,0-21,0l-1.32-.07h-.07c-6.53-.27-13.07-.76-19.72-1.48,1.64-.44,3.3-.84,5-1.21l1-.21c1-.21,2.23-.47,3.46-.69l1.08-.18c2.36-.41,4.8-.75,7.26-1h.05l.95-.11c1.14-.11,2.35-.22,3.58-.3l1-.07c2.74-.17,5.44-.26,8-.26m0-4c-2.78,0-5.55.09-8.28.26L65.64,78c-1.25.08-2.5.19-3.74.31l-1,.12q-3.81.41-7.51,1l-1.06.18c-1.22.21-2.44.46-3.64.72l-1,.21a118.88,118.88,0,0,0-21.34,6.84A314.48,314.48,0,0,0,63.12,91.2s1.26.07,3.36.15a10.84,10.84,0,0,1,17.44,0h0c1,0,2-.1,2.94-.15a319,319,0,0,0,36.77-3.76,118.69,118.69,0,0,0-20.88-6.74l-1-.21c-1.22-.27-2.43-.51-3.66-.74l-1-.18c-2.46-.44-5-.79-7.47-1.08l-1-.1c-1.23-.14-2.47-.26-3.72-.35L83.78,78c-2.89-.21-5.83-.31-8.79-.31Z"/><path class="cls-2" d="M96.51,81.39s-2.14,6.25-5.18,7.84"/><path class="cls-2" d="M82.53,80.64a12.48,12.48,0,0,1-5.43,4.94"/><path class="cls-2" d="M90.21,80.48s-2.59,5.76-6.95,8"/><path class="cls-2" d="M53.63,81.39s2.15,6.25,5.19,7.84"/><path class="cls-2" d="M67.61,80.64A12.55,12.55,0,0,0,73,85.58"/><path class="cls-2" d="M59.94,80.48s2.59,5.76,6.94,8"/><path class="cls-1" d="M75,93.25A54.21,54.21,0,0,1,111.53,107a131.76,131.76,0,0,0-73.06,0A54.26,54.26,0,0,1,75,93.25m0-4c-21,0-39.34,10.63-48.65,26.26a126.61,126.61,0,0,1,97.3,0C114.34,99.88,96.05,89.25,75,89.25Z"/><path class="cls-2" d="M83.34,105.08a24.7,24.7,0,0,1-8.45,8.71,28.06,28.06,0,0,1-15,4.21,27.46,27.46,0,0,1-20-8.3"/><path class="cls-2" d="M66.44,105.09a24.59,24.59,0,0,0,8.45,8.7A28,28,0,0,0,89.82,118a27.49,27.49,0,0,0,20-8.35"/><path class="cls-2" d="M88.14,104.61s4.66,11.38,21.7,23.82"/><path class="cls-2" d="M62.25,104.61S57.59,116,40.55,128.43"/></svg>