<svg id="Symbols" xmlns="http://www.w3.org/2000/svg" viewBox="0 0 150 150"><defs><style>.cls-1{fill:#c4a62f;}.cls-2{fill:#221f20;}.cls-3{fill:none;stroke:#221f20;stroke-miterlimit:10;stroke-width:3.71px;}</style></defs><path class="cls-1" d="M87.8,67a2.79,2.79,0,0,1-.89.67Z"/><path class="cls-2" d="M92,32.5a29.08,29.08,0,0,1,6.4,5.72,35,35,0,0,1,7.78,22.15,32.36,32.36,0,0,1-.58,6.15L105,69.58l2.92,1.1c3.54,1.34,7.84,4.66,8.18,12.87.38,8.9-3.45,18-10.77,25.64a46.68,46.68,0,0,1-7.81,6.52,59.28,59.28,0,0,0,12.2-20.82v0l0,0a19.93,19.93,0,0,0,.75-4.35c.31-4.7-1.91-8.56-5.8-10.09a9,9,0,0,0-3.26-.63,9.06,9.06,0,0,0-8.25,6.09c-2.74,7.38-6,13.44-9,16.74a63.62,63.62,0,0,0,.51-7.37c.15-10.51,4.65-19.29,11.76-22.92l3.73-1.87L97.9,66.93a11.56,11.56,0,0,1-1.16-2.81c-1.11-3.9-1.33-7.16-1-14.54.3-6.79-.8-11.94-3.72-17.08M76.38,24a23.09,23.09,0,0,1,11,8c3.66,5.36,5,10.22,4.67,17.37-.33,7.7-.08,11.36,1.15,15.71A14.83,14.83,0,0,0,94.79,69C86.59,73.15,81.18,83.12,81,95.13c-.15,11-2.92,16.37-2.92,16.37s2.36-.74,7.21-4.84c5.82-4.93,10.23-16.41,11.4-19.56a5.31,5.31,0,0,1,4.77-3.67,5.07,5.07,0,0,1,1.91.38c2.71,1.06,3.61,3.83,3.45,6.38a16.35,16.35,0,0,1-.61,3.55C101.79,107.25,91.05,119.8,78,126c19.72,0,42.83-20,41.88-42.59-.34-8-4-13.71-10.58-16.18a36.64,36.64,0,0,0,.64-6.84C109.9,42.67,98,24.75,76.38,24"/><path class="cls-2" d="M58,32.5c-2.92,5.14-4,10.29-3.72,17.08.32,7.38.1,10.64-1,14.54a12.52,12.52,0,0,1-1.13,2.78h0l-2.31,3.46,3.7,1.9c7.11,3.63,11.61,12.41,11.76,22.92a63.62,63.62,0,0,0,.51,7.37c-3-3.3-6.27-9.36-9-16.74a8.66,8.66,0,0,0-11.51-5.46c-3.89,1.53-6.11,5.39-5.8,10.09a19.83,19.83,0,0,0,.75,4.35l0,0v0a59.2,59.2,0,0,0,12.2,20.82,46.68,46.68,0,0,1-7.81-6.52c-7.32-7.64-11.15-16.74-10.77-25.64.34-8.21,4.64-11.53,8.18-12.87L45,69.58l-.58-3.06a32.36,32.36,0,0,1-.58-6.15,35,35,0,0,1,7.78-22.15A29.08,29.08,0,0,1,58,32.5M73.62,24C52,24.75,40.1,42.67,40.1,60.37a36.64,36.64,0,0,0,.64,6.84C34.2,69.68,30.5,75.38,30.16,83.39,29.21,106,52.32,126,72,126,59,119.8,48.21,107.25,43.78,93.74a15.81,15.81,0,0,1-.6-3.55c-.17-2.55.73-5.32,3.44-6.38a5.07,5.07,0,0,1,1.91-.38A5.31,5.31,0,0,1,53.3,87.1c1.17,3.15,5.58,14.63,11.4,19.56,4.85,4.1,7.21,4.84,7.21,4.84S69.14,106.16,69,95.13c-.17-12-5.58-22-13.78-26.17a14.83,14.83,0,0,0,1.62-3.83c1.23-4.35,1.48-8,1.15-15.71-.31-7.15,1-12,4.67-17.37a23.09,23.09,0,0,1,11-8"/><path class="cls-2" d="M76.38,24C98,24.76,109.9,42.67,109.9,60.37a36.64,36.64,0,0,1-.64,6.84c6.54,2.47,10.24,8.17,10.58,16.18C120.79,106,97.68,126,78,126H72c-19.72,0-42.83-20-41.88-42.59.34-8,4-13.71,10.58-16.18a36.64,36.64,0,0,1-.64-6.84C40.1,42.67,52,24.76,73.62,24h2.76m.07-3.71h-3c-11.18.38-20.72,4.93-27.59,13.14a42,42,0,0,0-9.51,26.92A40,40,0,0,0,36.66,65c-6.26,3.46-9.85,9.82-10.21,18.22-.46,10.93,4.1,22,12.84,31.08C48.52,124,60.76,129.69,72,129.69H78c11.28,0,23.52-5.74,32.75-15.37,8.74-9.11,13.3-20.15,12.84-31.08-.35-8.4-4-14.76-10.21-18.22a40,40,0,0,0,.27-4.65,42,42,0,0,0-9.51-26.92c-6.87-8.21-16.41-12.76-27.59-13.14Z"/><path class="cls-3" d="M75,120.63a59.09,59.09,0,0,0,14.88-10.14,45.5,45.5,0,0,0,12.72-24.2"/><path class="cls-3" d="M47.4,86.29a45.5,45.5,0,0,0,12.72,24.2A58.79,58.79,0,0,0,75,120.62"/><path class="cls-3" d="M67,72.83a8.09,8.09,0,0,0,7,6.9"/><path class="cls-3" d="M76,79.73a8.12,8.12,0,0,0,7-6.9"/><path class="cls-3" d="M78.68,32.1A3.68,3.68,0,1,1,75,28.42,3.68,3.68,0,0,1,78.68,32.1Z"/><path class="cls-3" d="M86.43,42.3a3.09,3.09,0,1,1-3.08-3.08A3.08,3.08,0,0,1,86.43,42.3Z"/><path class="cls-3" d="M69.74,42.3a3.09,3.09,0,1,1-3.09-3.08A3.09,3.09,0,0,1,69.74,42.3Z"/><path class="cls-3" d="M86.43,55.46a3.09,3.09,0,1,1-3.08-3.08A3.09,3.09,0,0,1,86.43,55.46Z"/><path class="cls-3" d="M69.74,55.46a3.09,3.09,0,1,1-3.09-3.08A3.09,3.09,0,0,1,69.74,55.46Z"/><path class="cls-3" d="M86.43,68.62a3.09,3.09,0,1,1-3.08-3.09A3.08,3.08,0,0,1,86.43,68.62Z"/><path class="cls-3" d="M69.74,68.62a3.09,3.09,0,1,1-3.09-3.09A3.08,3.08,0,0,1,69.74,68.62Z"/><line class="cls-3" x1="75" y1="36.28" x2="75" y2="126.02"/><line class="cls-3" x1="81.01" y1="57.47" x2="75" y2="61.49"/><line class="cls-3" x1="75" y1="61.49" x2="68.99" y2="57.47"/><line class="cls-3" x1="81.01" y1="44.72" x2="75" y2="48.74"/><line class="cls-3" x1="75" y1="48.74" x2="68.99" y2="44.72"/></svg>