<svg id="Symbols" xmlns="http://www.w3.org/2000/svg" viewBox="0 0 150 150"><defs><style>.cls-1{fill:#221f20;}</style></defs><path class="cls-1" d="M112.2,31.62a30.81,30.81,0,0,1,7.87,5.65c2,2.14,2.3,5.56,1.81,6.22a1.62,1.62,0,0,1-.53.23,12.93,12.93,0,0,1-3.49.37,95.63,95.63,0,0,1-13-1.45,151.49,151.49,0,0,0-23.37-2.26c-2.79,0-4.85,0-6.51-.05l-3.24,0c-2.38,0-4.4.07-7.21.25a201.42,201.42,0,0,0-23.34,2.86,27.06,27.06,0,0,1-5.34.76,4.24,4.24,0,0,1-.79,0,18.25,18.25,0,0,1-1.47-1.35l-.7-.68L31.74,41a39.24,39.24,0,0,1-3.21-3.23c2.19-2.56,3.69-4.26,4.79-5.47,7.84,3,18.59,4.57,32,4.57,17.33,0,30.58-1.16,40.51-3.55,2.74-.66,4.82-1.24,6.38-1.73m.41-8.66s-2,1-8.67,2.62C97.88,27,86.69,28.9,65.31,28.9S35.86,24.77,34.11,24a5.53,5.53,0,0,0-2.2-.6,2.75,2.75,0,0,0-2,1c-1.53,1.51-3.62,3.75-8.57,9.58-4.4,5.18,2.75,10.8,6,14,2.59,2.48,4,4.3,8.49,4.3a34.27,34.27,0,0,0,7-.94,194.41,194.41,0,0,1,22.16-2.7c2.87-.18,4.69-.23,6.69-.23,2.34,0,4.94.07,9.75.07,14.33,0,27.22,3.71,36.37,3.71a20.62,20.62,0,0,0,5.72-.69c9-2.62,7.49-14,2.36-19.56S112.61,23,112.61,23Z"/><path class="cls-1" d="M75,62.65A10.59,10.59,0,1,1,64.42,73.23,10.59,10.59,0,0,1,75,62.65m0-8A18.59,18.59,0,1,0,93.58,73.23,18.58,18.58,0,0,0,75,54.65Z"/><path class="cls-1" d="M54.45,97.87a10.59,10.59,0,1,1-10.59,10.59A10.6,10.6,0,0,1,54.45,97.87m0-8A18.59,18.59,0,1,0,73,108.46,18.59,18.59,0,0,0,54.45,89.87Z"/><path class="cls-1" d="M95.55,97.87A10.59,10.59,0,1,1,85,108.46,10.6,10.6,0,0,1,95.55,97.87m0-8a18.59,18.59,0,1,0,18.59,18.59A18.58,18.58,0,0,0,95.55,89.87Z"/></svg>