<svg id="Symbols" xmlns="http://www.w3.org/2000/svg" viewBox="0 0 150 150"><defs><style>.cls-1{fill:#221f20;}</style></defs><path class="cls-1" d="M75.07,31.63l16.84,9.72V60.8L75.07,70.52,58.23,60.8V41.35l16.84-9.72m0-9.23-4,2.3L54.23,34.43l-4,2.3V65.42l4,2.31,16.84,9.72,4,2.31,4-2.31,16.84-9.72,4-2.31V36.73l-4-2.3L79.07,24.7l-4-2.3Z"/><path class="cls-1" d="M102.6,79.32,119.44,89v19.45l-16.84,9.72-16.84-9.72V89l16.84-9.72m0-9.24-4,2.31L81.76,82.12l-4,2.31v28.68l4,2.31,16.84,9.72,4,2.31,4-2.31,16.84-9.72,4-2.31V84.43l-4-2.31L106.6,72.39l-4-2.31Z"/><path class="cls-1" d="M47.53,79.17l17,9.8v19.6l-17,9.8-17-9.8V89l17-9.8m0-9.24-4,2.31-17,9.8-4,2.31v28.84l4,2.31,17,9.8,4,2.3,4-2.3,17-9.8,4-2.31V84.35l-4-2.31-17-9.8-4-2.31Z"/><path d="M77,51.63a2,2,0,1,1-2-2,2,2,0,0,1,2,2Z"/><path d="M75,34.85A13,13,0,0,0,73,49.1a3.41,3.41,0,0,1,1.58-.68,2,2,0,0,1,.94,0,3.41,3.41,0,0,1,1.58.68,13,13,0,0,0-2-14.25Z"/><path d="M83.77,53a12.79,12.79,0,0,0-5.46-1.7A3.33,3.33,0,0,1,78.1,53a2.12,2.12,0,0,1-.47.81,3.39,3.39,0,0,1-1.37,1,13,13,0,0,0,13.36,5.35A12.91,12.91,0,0,0,83.77,53Z"/><path d="M72.37,53.79A1.51,1.51,0,0,1,71.9,53a3.33,3.33,0,0,1-.21-1.7,13,13,0,0,0-11.31,8.9,13,13,0,0,0,13.36-5.35A3.39,3.39,0,0,1,72.37,53.79Z"/><path d="M104.81,98.63a2,2,0,1,1-2-2,2,2,0,0,1,2,2Z"/><path d="M102.83,81.84a13,13,0,0,0-2,14.25,3.39,3.39,0,0,1,1.58-.67,2,2,0,0,1,.94,0,3.39,3.39,0,0,1,1.58.67,13,13,0,0,0-2-14.25Z"/><path d="M111.6,100a13,13,0,0,0-5.46-1.71,3.36,3.36,0,0,1-.21,1.71,2.12,2.12,0,0,1-.47.81,3.39,3.39,0,0,1-1.37,1,13,13,0,0,0,13.37,5.34A13,13,0,0,0,111.6,100Z"/><path d="M100.2,100.79a1.51,1.51,0,0,1-.47-.81,3.36,3.36,0,0,1-.21-1.71,13,13,0,0,0-11.31,8.91,13,13,0,0,0,13.36-5.35A3.39,3.39,0,0,1,100.2,100.79Z"/><path d="M49.33,98.63a2,2,0,1,1-2-2,2,2,0,0,1,2,2Z"/><path d="M47.36,81.84a13,13,0,0,0-2,14.25,3.39,3.39,0,0,1,1.58-.67,2,2,0,0,1,.94,0,3.39,3.39,0,0,1,1.58.67,13.05,13.05,0,0,0-2-14.25Z"/><path d="M56.13,100a13,13,0,0,0-5.46-1.71,3.36,3.36,0,0,1-.21,1.71,2.12,2.12,0,0,1-.47.81,3.46,3.46,0,0,1-1.37,1A13,13,0,0,0,62,107.17,12.93,12.93,0,0,0,56.13,100Z"/><path d="M44.73,100.79a1.51,1.51,0,0,1-.47-.81,3.36,3.36,0,0,1-.21-1.71,13,13,0,0,0-11.32,8.91,13,13,0,0,0,13.37-5.35A3.32,3.32,0,0,1,44.73,100.79Z"/></svg>