<svg id="Symbols" xmlns="http://www.w3.org/2000/svg" viewBox="0 0 150 150"><defs><style>.cls-1{fill:#221f20;}.cls-2,.cls-3,.cls-4{fill:none;}.cls-3,.cls-4{stroke:#221f20;stroke-linecap:round;stroke-miterlimit:10;}.cls-3{stroke-width:8px;}.cls-4{stroke-width:4px;}</style></defs><path class="cls-1" d="M75,28A47,47,0,1,1,28,75,47,47,0,0,1,75,28m0-8a55,55,0,1,0,55,55A55,55,0,0,0,75,20Z"/><path class="cls-2" d="M80,90.8l.68-.67a.59.59,0,1,0-.92-.73l-.5.82a.47.47,0,0,0,.08.66A.47.47,0,0,0,80,90.8Z"/><path class="cls-2" d="M70.27,89.4a.59.59,0,1,0-.92.73l.68.67a.47.47,0,0,0,.66.08.47.47,0,0,0,.08-.66Z"/><path class="cls-2" d="M75,89.26a.47.47,0,0,0,.47-.47l.12-1a.59.59,0,0,0-1.18,0l.12,1A.47.47,0,0,0,75,89.26Z"/><path d="M68.88,89.07a2.43,2.43,0,0,0-1.47,1.22,16.52,16.52,0,0,0,3.91,1,1.81,1.81,0,0,1,.19-.29l-1-1.82A2.42,2.42,0,0,0,68.88,89.07Z"/><path d="M75,89.42a1.84,1.84,0,0,1,.84.22l.78-1.51a2,2,0,0,0-3.24,0l.78,1.51A1.84,1.84,0,0,1,75,89.42Z"/><path class="cls-1" d="M75,61a2,2,0,1,1-2,2,2,2,0,0,1,2-2m0-4a6,6,0,1,0,6,6,6,6,0,0,0-6-6Z"/><path d="M82.59,90.29a2.43,2.43,0,0,0-3.15-1.11l-1,1.82a3,3,0,0,1,.2.29A16.57,16.57,0,0,0,82.59,90.29Z"/><path class="cls-1" d="M100.42,52.5a13.37,13.37,0,0,1,7.79,2.77,19.33,19.33,0,0,1-3.07,8.38,20.69,20.69,0,0,0-1.47-5.8,9.89,9.89,0,0,0-.74-1.6,20,20,0,0,0-2.51-3.75m-1.67-4.06h-.56A30.37,30.37,0,0,0,89,50a15.14,15.14,0,0,1,7.56,4.21,16,16,0,0,1,2.89,4,4.27,4.27,0,0,1,.5,1.09,17.16,17.16,0,0,1,1.29,5.8c0,.4,0,.8,0,1.2a26.54,26.54,0,0,1-1.52,8.88,44.67,44.67,0,0,0,7.65-7.8c5.35-7.23,4.85-13.69,4.85-13.69s-3.58-5.29-13.5-5.29Z"/><path class="cls-1" d="M75,36.69c2.31,1.71,6,5,7.65,9.19A19.46,19.46,0,0,0,75,48.83a19.46,19.46,0,0,0-7.65-2.95C69,41.66,72.69,38.4,75,36.69m0-4.81S62.81,38.8,62.52,49.74a16.6,16.6,0,0,1,1.74-.1h0A15.49,15.49,0,0,1,74.4,53.36h1.2a15.47,15.47,0,0,1,10.09-3.72h0a16.6,16.6,0,0,1,1.74.1C87.19,38.8,75,31.88,75,31.88Z"/><path class="cls-1" d="M49.58,52.5A19.8,19.8,0,0,0,47,56.41a13.92,13.92,0,0,0-.68,1.47,21.16,21.16,0,0,0-1.45,5.77,19.28,19.28,0,0,1-3.07-8.38,13.33,13.33,0,0,1,7.79-2.77m1.67-4.06c-9.92,0-13.5,5.29-13.5,5.29s-.5,6.46,4.85,13.69a44.67,44.67,0,0,0,7.65,7.8,26.54,26.54,0,0,1-1.52-8.88q0-.6,0-1.2A16.91,16.91,0,0,1,50,59.34a8.75,8.75,0,0,1,.5-1.09,16,16,0,0,1,2.89-4A15.14,15.14,0,0,1,61,50a30.37,30.37,0,0,0-9.18-1.56Z"/><path class="cls-1" d="M99.37,90a11.35,11.35,0,0,1,8.32,3.65,20.94,20.94,0,0,1-16.55,8.15h-.49a6.39,6.39,0,0,0-.8-1.26l0-.06,0-.06A7.08,7.08,0,0,0,88.3,99.1,11.25,11.25,0,0,1,99.37,90m0-4a15.21,15.21,0,0,0-15.26,15.16q0,.5,0,1a2.46,2.46,0,0,1,.6-.07,2.55,2.55,0,0,1,1.14.27,3.34,3.34,0,0,1,.85.69,2.51,2.51,0,0,1,.56,1.59,2.45,2.45,0,0,1-.14.85,24.9,24.9,0,0,0,25.42-11.92A15.26,15.26,0,0,0,99.37,86Z"/><path class="cls-1" d="M50.63,90A11.25,11.25,0,0,1,61.7,99.09a7.11,7.11,0,0,0-1.49,1.33l0,0,0,0a6.7,6.7,0,0,0-.8,1.26h-.49a20.94,20.94,0,0,1-16.55-8.15A11.35,11.35,0,0,1,50.63,90m0-4a15.26,15.26,0,0,0-13.2,7.56,24.9,24.9,0,0,0,25.42,11.92,2.45,2.45,0,0,1-.14-.85,2.51,2.51,0,0,1,.56-1.59,2.76,2.76,0,0,1,.85-.69,2.55,2.55,0,0,1,1.14-.27,2.32,2.32,0,0,1,.59.07c0-.33,0-.66,0-1A15.21,15.21,0,0,0,50.63,86Z"/><line class="cls-3" x1="75" y1="97.49" x2="75" y2="115.22"/><polyline class="cls-4" points="75 109.29 80.78 109.29 84.11 105.13"/><polyline class="cls-4" points="75 109.29 69.22 109.29 65.89 105.13"/><path class="cls-1" d="M84.54,57c4.79,0,8.57,3.86,8.8,9a19.19,19.19,0,0,1-8.88,16.89,8.62,8.62,0,0,0-2.29-1.09,8.44,8.44,0,0,0-1.86-.33,8.4,8.4,0,0,0-10.62,0,8.18,8.18,0,0,0-4.15,1.42,19.19,19.19,0,0,1-8.88-16.89c.23-5.11,4-9,8.8-9a8.76,8.76,0,0,1,6.19,2.54l1.17,1.16h4.36l1.17-1.16A8.76,8.76,0,0,1,84.54,57m0-4a12.74,12.74,0,0,0-9,3.7H74.46a12.74,12.74,0,0,0-9-3.7C58.4,53,53,58.69,52.67,65.75a23.13,23.13,0,0,0,13.68,22A4.29,4.29,0,0,1,69,85.56a4.38,4.38,0,0,1,1.24-.18,4.13,4.13,0,0,1,1.11.15,4.34,4.34,0,0,1,7.34,0,4.13,4.13,0,0,1,1.11-.15,4.38,4.38,0,0,1,1.24.18,4.29,4.29,0,0,1,2.63,2.23,23.13,23.13,0,0,0,13.68-22C97,58.69,91.6,53,84.54,53Z"/><path class="cls-1" d="M77.15,59.51A11.93,11.93,0,0,1,79,59.27a15.07,15.07,0,0,1,1.78,0,12.24,12.24,0,0,1,3.55.67,8.22,8.22,0,0,1,3.16,2,7.89,7.89,0,0,1,1.82,3.14,11,11,0,0,1-.13,6.64,16.53,16.53,0,0,1-3.1,5.53,16.18,16.18,0,0,0,2.11-5.76,9.51,9.51,0,0,0-.77-5.67,5.25,5.25,0,0,0-3.92-3,8.94,8.94,0,0,0-2.64-.06,12.1,12.1,0,0,0-1.34.23,9.08,9.08,0,0,0-1.23.37Z"/><path class="cls-1" d="M79.18,62.63a7.71,7.71,0,0,1,.64,1c.17.32.31.64.46,1a14.76,14.76,0,0,1,.67,2,14.33,14.33,0,0,1,.47,4,16.1,16.1,0,0,1-1.25,5.59c-.24.57-.54,1.12-.8,1.67.11-.61.24-1.2.32-1.8a15.69,15.69,0,0,0,.12-1.8,13.21,13.21,0,0,0-.38-3.46,12,12,0,0,0-1.27-3.08,10.28,10.28,0,0,0-.91-1.32c-.17-.2-.33-.4-.51-.58a2.56,2.56,0,0,0-.48-.42Z"/><path class="cls-1" d="M71.72,63.35A9.08,9.08,0,0,0,70.49,63a12.1,12.1,0,0,0-1.34-.23,8.94,8.94,0,0,0-2.64.06,5.25,5.25,0,0,0-3.92,3,9.51,9.51,0,0,0-.77,5.67,16.18,16.18,0,0,0,2.11,5.76,16.53,16.53,0,0,1-3.1-5.53,11,11,0,0,1-.13-6.64,7.89,7.89,0,0,1,1.82-3.14,8.22,8.22,0,0,1,3.16-2,12.24,12.24,0,0,1,3.55-.67,15.07,15.07,0,0,1,1.78,0,11.93,11.93,0,0,1,1.84.24Z"/><path class="cls-1" d="M73.74,65.37a2.56,2.56,0,0,0-.48.42c-.18.18-.34.38-.51.58a10.28,10.28,0,0,0-.91,1.32,12,12,0,0,0-1.27,3.08,13.21,13.21,0,0,0-.38,3.46,15.69,15.69,0,0,0,.12,1.8c.08.6.21,1.19.32,1.8-.26-.55-.56-1.1-.8-1.67a16.1,16.1,0,0,1-1.25-5.59,14.33,14.33,0,0,1,.47-4,14.76,14.76,0,0,1,.67-2c.15-.32.29-.64.46-1a7.71,7.71,0,0,1,.64-1Z"/></svg>