<svg id="Symbols" xmlns="http://www.w3.org/2000/svg" viewBox="0 0 150 150"><defs><style>.cls-1,.cls-2,.cls-3{fill:none;stroke:#221f20;stroke-miterlimit:10;}.cls-1,.cls-3{stroke-width:8px;}.cls-2,.cls-3{stroke-linecap:round;}.cls-2{stroke-width:4px;}</style></defs><path class="cls-1" d="M75,24.89c14,0,23,5,22,8a52.72,52.72,0,0,1-4.39,8,39.18,39.18,0,0,0-35.22,0,52.72,52.72,0,0,1-4.39-8C52,29.89,61,24.89,75,24.89Z"/><path class="cls-2" d="M62.05,49.94a29,29,0,0,1,25.9,0"/><path d="M90.4,50.58a2.71,2.71,0,1,1-2.71-2.7A2.72,2.72,0,0,1,90.4,50.58Z"/><path d="M65,50.57a2.71,2.71,0,1,1-2.7-2.7A2.7,2.7,0,0,1,65,50.57Z"/><line class="cls-3" x1="75" y1="64.83" x2="75" y2="55.98"/><line class="cls-3" x1="80" y1="57.89" x2="76" y2="65.89"/><line class="cls-3" x1="74" y1="65.89" x2="70" y2="57.89"/><line class="cls-3" x1="64.48" y1="72.47" x2="56.06" y2="69.74"/><line class="cls-3" x1="59.43" y1="65.57" x2="65.8" y2="71.85"/><line class="cls-3" x1="65.18" y1="73.75" x2="56.34" y2="75.09"/><line class="cls-3" x1="68.5" y1="84.84" x2="63.3" y2="92"/><line class="cls-3" x1="60.37" y1="87.52" x2="68.31" y2="83.39"/><line class="cls-3" x1="69.93" y1="84.57" x2="68.46" y2="93.39"/><line class="cls-3" x1="81.5" y1="84.84" x2="86.7" y2="92"/><line class="cls-3" x1="81.53" y1="93.39" x2="80.07" y2="84.57"/><line class="cls-3" x1="81.69" y1="83.39" x2="89.62" y2="87.52"/><line class="cls-3" x1="85.52" y1="72.47" x2="93.94" y2="69.74"/><line class="cls-3" x1="93.66" y1="75.09" x2="84.82" y2="73.75"/><line class="cls-3" x1="84.2" y1="71.85" x2="90.57" y2="65.58"/><path class="cls-1" d="M26.5,60.13C30.82,46.82,38.36,39.8,40.9,41.68a51.74,51.74,0,0,1,6.3,6.66,39.24,39.24,0,0,0-10.88,33.5,52.67,52.67,0,0,1-9,1.69C24.14,83.55,22.17,73.45,26.5,60.13Z"/><path class="cls-2" d="M46.32,80.19a29,29,0,0,1,8-24.63"/><path d="M55.68,53.43a2.71,2.71,0,1,1-3.4,1.74A2.7,2.7,0,0,1,55.68,53.43Z"/><path d="M47.84,77.56a2.7,2.7,0,1,1-3.41,1.73A2.69,2.69,0,0,1,47.84,77.56Z"/><path class="cls-1" d="M45,117.15c-11.32-8.23-15.67-17.56-13.09-19.4a52.58,52.58,0,0,1,8.28-3.93,39.2,39.2,0,0,0,28.49,20.7,51.72,51.72,0,0,1-1.18,9.09C66.57,126.63,56.35,125.38,45,117.15Z"/><path class="cls-2" d="M70.22,104.5A29,29,0,0,1,49.27,89.27"/><path d="M47.67,87.32a2.7,2.7,0,1,1,.6,3.78A2.7,2.7,0,0,1,47.67,87.32Z"/><path d="M68.19,102.24a2.71,2.71,0,1,1,.6,3.78A2.7,2.7,0,0,1,68.19,102.24Z"/><path class="cls-1" d="M105,117.15c-11.33,8.23-21.55,9.48-22.5,6.46a51.72,51.72,0,0,1-1.18-9.09,39.2,39.2,0,0,0,28.49-20.7,52.58,52.58,0,0,1,8.28,3.93C120.65,99.59,116.3,108.92,105,117.15Z"/><path class="cls-2" d="M100.73,89.27a29,29,0,0,1-21,15.23"/><path d="M77.42,105.42a2.71,2.71,0,1,1,3.78.6A2.7,2.7,0,0,1,77.42,105.42Z"/><path d="M98,90.51a2.71,2.71,0,1,1,3.78.6A2.7,2.7,0,0,1,98,90.51Z"/><path class="cls-1" d="M123.5,60.13c4.33,13.32,2.36,23.42-.81,23.4a52.67,52.67,0,0,1-9-1.69,39.24,39.24,0,0,0-10.88-33.5,51.74,51.74,0,0,1,6.3-6.66C111.64,39.8,119.18,46.82,123.5,60.13Z"/><path class="cls-2" d="M95.68,55.56a29,29,0,0,1,8,24.63"/><path d="M103.83,82.71a2.7,2.7,0,1,1,1.74-3.41A2.7,2.7,0,0,1,103.83,82.71Z"/><path d="M96,58.58a2.71,2.71,0,1,1,1.73-3.41A2.71,2.71,0,0,1,96,58.58Z"/><circle cx="75" cy="75.89" r="3"/></svg>