<svg id="Symbols" xmlns="http://www.w3.org/2000/svg" viewBox="0 0 150 150"><path d="M73.29,130.43,75,129.37l1.71,1.06.12.07H87.47l-2.22-1c-2.18-.94-4.24-1.91-6.15-2.9.71-.49,1.41-1,2.12-1.53a2,2,0,0,0,.83-1.63,2,2,0,0,0-.4-1.21,2.09,2.09,0,0,0-2.84-.43c-1.13.83-2.41,1.68-3.81,2.52-1.4-.84-2.68-1.69-3.81-2.52a2.08,2.08,0,0,0-2.84.43,2,2,0,0,0,.42,2.84q1.07.8,2.13,1.53c-1.91,1-4,2-6.15,2.9l-2.22,1H73.17Z"/><path d="M90,58.25a4.2,4.2,0,0,0-3.75,0,4.17,4.17,0,0,0-7.28-3,4.17,4.17,0,0,0-7.88,0,4.17,4.17,0,0,0-7.28,3,4.17,4.17,0,0,0-5.58,5.57,4.18,4.18,0,0,0-3,7.29,4.17,4.17,0,0,0,0,7.88,4.17,4.17,0,0,0,3,7.28,4.17,4.17,0,0,0,5.58,5.58,4.17,4.17,0,0,0,7.28,3,4.17,4.17,0,0,0,7.88,0,4.17,4.17,0,0,0,7.28-3,4.17,4.17,0,0,0,5.58-5.58,4.17,4.17,0,0,0,3-7.28,4.17,4.17,0,0,0,0-7.88,4.19,4.19,0,0,0,.42-5.8,4.14,4.14,0,0,0-3.44-1.48A4.19,4.19,0,0,0,90,58.25ZM76.75,79.1l.71,8-2.41-7.65-2.4,7.65.7-8L68.2,85.25l3.71-7.11L64.8,81.85,71,76.7l-8,.71L70.61,75,63,72.59l8,.71L64.8,68.15l7.11,3.71-3.72-7.12,5.15,6.16-.69-8,2.4,7.65,2.4-7.65-.7,8,5.15-6.15-3.71,7.11,7.11-3.71L79.15,73.3l8-.71L79.49,75l7.65,2.4-8-.7,6.15,5.15-7.11-3.71,3.71,7.11Z"/><path d="M75.05,71.92A3.08,3.08,0,1,0,78.13,75,3.08,3.08,0,0,0,75.05,71.92Z"/><path d="M124.72,50.75a12.11,12.11,0,0,0-5.74-10,12.24,12.24,0,0,0-4.06,4.9,9.49,9.49,0,0,0-4.47,7.07c0,.32,0,.64,0,1,0,.67.06.76,0,1a1.21,1.21,0,0,1-1.19,1.06h-.13a1.24,1.24,0,0,1-1.07-1.3c0-2.47,2-3.28,2-8.29a9.34,9.34,0,0,0-2.77-6.65,9,9,0,0,0,.29-2.28,9.36,9.36,0,0,0-9.35-9.29,9.54,9.54,0,0,0-12.41-5.75A9.49,9.49,0,0,0,79.69,20a10.09,10.09,0,0,0-3.87.62,9.66,9.66,0,0,0-.61,3.75,9.18,9.18,0,0,0,2.14,5.9,8.75,8.75,0,0,0-.89,3.85,8.84,8.84,0,0,0,2.85,6.48,8.94,8.94,0,0,0-.55,3.12,9.3,9.3,0,0,0,6,8.66h0a6.17,6.17,0,0,1,3.11,3.4h.27a6,6,0,0,1,2.78.7,6.14,6.14,0,0,1,3.32,5.68,6.18,6.18,0,0,1,3.46,8.33,6.11,6.11,0,0,1,1.66,2.65,6.17,6.17,0,0,1-1.66,6.37,6.2,6.2,0,0,1-3.45,8.33,6.18,6.18,0,0,1-6.22,6.37h-.16a6.11,6.11,0,0,1-1.81,2.56,6.22,6.22,0,0,1-4,1.41,6.3,6.3,0,0,1-1.88-.28l-3.62,3.53-.14.08a14.67,14.67,0,0,0,1.81,6.81,14.85,14.85,0,0,0-1,5.39,14.55,14.55,0,0,0,1.83,7.06,3.07,3.07,0,0,1,.9-.14,2.93,2.93,0,0,1,1.71.55,3,3,0,0,1,.85,1,2.81,2.81,0,0,1,.34,1.34,2.91,2.91,0,0,1-.15.92,15.29,15.29,0,0,0,17.86-2.59,8.92,8.92,0,0,0,12.15-4.67,11.73,11.73,0,0,0,10.34-11.58c0-.23,0-.46,0-.69a14.8,14.8,0,0,0,5.21-15.4,15.23,15.23,0,0,0-7.88,3.2,10.31,10.31,0,0,0-1.24-.07,11.6,11.6,0,0,0-4.84,1.07c-1.83.86-3.12,2.54-4,3.07a1.84,1.84,0,0,1-2.52-.56,1.78,1.78,0,0,1,.58-2.48c.85-.53,6.55-1.92,9.67-3.58a13.06,13.06,0,0,0,6.74-9.43,13,13,0,0,0,3.47-15.86,10.6,10.6,0,0,0-3.54-14.08Zm0,15.85a8.86,8.86,0,0,1,.93,4,9,9,0,0,1-3.34,7l-1.17,1L120.84,80a9,9,0,0,1-4.67,6.56,44.35,44.35,0,0,1-6.29,2.34,16.88,16.88,0,0,0-3.59,1.36,5.78,5.78,0,0,0-1.89,8l0,0,0,0a5.83,5.83,0,0,0,8,1.79,11.22,11.22,0,0,0,1.7-1.39A8.23,8.23,0,0,1,116,97.3a7.51,7.51,0,0,1,3.16-.7,7.34,7.34,0,0,1,.81.05l1.62.17,1.29-1a12.07,12.07,0,0,1,1.78-1.16,10.83,10.83,0,0,1-4.07,7.08L119,103l.08,2c0,.17,0,.35,0,.52a7.73,7.73,0,0,1-6.83,7.61l-2.36.29-.87,2.21a4.83,4.83,0,0,1-4.53,3,5,5,0,0,1-2.16-.49L99.77,117l-2,2a11.15,11.15,0,0,1-7.88,3.21,11.35,11.35,0,0,1-3.25-.47,7.29,7.29,0,0,0-.52-1.34,7,7,0,0,0-4.4-3.52,10.35,10.35,0,0,1-.48-3.14,10.73,10.73,0,0,1,.75-3.94l.67-1.74-.89-1.63a10.56,10.56,0,0,1-1.16-3.3l1-.93h.53a10.25,10.25,0,0,0,6.58-2.35,10.39,10.39,0,0,0,1.74-1.89,10.13,10.13,0,0,0,6.72-5.2A10.34,10.34,0,0,0,98,90.36a10.12,10.12,0,0,0,4.22-7.4,10,10,0,0,0-.09-2.56A10.13,10.13,0,0,0,103.2,72a10.43,10.43,0,0,0-1.06-2.33,10.16,10.16,0,0,0-2.26-8.23A10.31,10.31,0,0,0,98,59.66a10.21,10.21,0,0,0-5.2-6.72,10.45,10.45,0,0,0-2.41-.9,10.19,10.19,0,0,0-3.15-2.87l-.19-.2-.85-.33a5.26,5.26,0,0,1-3.44-4.92,5,5,0,0,1,.3-1.73l.93-2.5L82,37.67a4.8,4.8,0,0,1-1.58-3.55A4.66,4.66,0,0,1,81,32l1.13-2.32-1.66-2a5.18,5.18,0,0,1-1.21-3.34V24h.48a5.51,5.51,0,0,1,3.53,1.26L85,26.75l2.18-.84a5.62,5.62,0,0,1,2-.36,5.44,5.44,0,0,1,5.19,3.66l.91,2.7,2.85,0a5.37,5.37,0,0,1,5.38,5.29,5,5,0,0,1-.16,1.28l-.58,2.22,1.63,1.62A5.32,5.32,0,0,1,106,46.15a8.14,8.14,0,0,1-.88,4A9.61,9.61,0,0,0,104,54.44a5.25,5.25,0,0,0,4.65,5.28l.55,0a5.24,5.24,0,0,0,5.15-4.48,4.88,4.88,0,0,0,0-1.2c0-.07,0-.17,0-.34s0-.36,0-.56a5.44,5.44,0,0,1,2.6-4.08l1-.64.5-1.1a7.33,7.33,0,0,1,.59-1.06,8,8,0,0,1,1.57,4.56l.06,2.11,1.76,1.14a6.6,6.6,0,0,1,2.22,8.79l-1,1.83Z"/><path d="M37.28,117.14a8.92,8.92,0,0,0,12.15,4.67,15.29,15.29,0,0,0,17.86,2.59,2.91,2.91,0,0,1-.15-.92,2.81,2.81,0,0,1,.34-1.34,3,3,0,0,1,.85-1,2.93,2.93,0,0,1,1.71-.55,3.07,3.07,0,0,1,.9.14,14.55,14.55,0,0,0,1.83-7.06,14.85,14.85,0,0,0-1-5.39,14.67,14.67,0,0,0,1.81-6.81l-.14-.08L69.8,97.9a6.3,6.3,0,0,1-1.88.28,6.22,6.22,0,0,1-4-1.41,6.11,6.11,0,0,1-1.81-2.56H62a6.18,6.18,0,0,1-6.22-6.37,6.2,6.2,0,0,1-3.45-8.33,6.17,6.17,0,0,1-1.66-6.37,6.11,6.11,0,0,1,1.66-2.65,6.18,6.18,0,0,1,3.46-8.33,6.14,6.14,0,0,1,3.32-5.68,6,6,0,0,1,2.78-.7h.27a6.17,6.17,0,0,1,3.11-3.4h0a9.3,9.3,0,0,0,6-8.66,8.94,8.94,0,0,0-.55-3.12,8.84,8.84,0,0,0,2.85-6.48,8.75,8.75,0,0,0-.89-3.85,9.18,9.18,0,0,0,2.14-5.9,9.66,9.66,0,0,0-.61-3.75A10.09,10.09,0,0,0,70.31,20a9.49,9.49,0,0,0-6.08,2.18,9.54,9.54,0,0,0-12.41,5.75,9.36,9.36,0,0,0-9.35,9.29,9,9,0,0,0,.29,2.28A9.34,9.34,0,0,0,40,46.15c0,5,2,5.82,2,8.29a1.24,1.24,0,0,1-1.07,1.3h-.13a1.21,1.21,0,0,1-1.19-1.06c0-.2,0-.29,0-1,0-.33,0-.65-.05-1a9.49,9.49,0,0,0-4.47-7.07A12.24,12.24,0,0,0,31,40.79a12.11,12.11,0,0,0-5.74,10,10.6,10.6,0,0,0-3.54,14.08,13,13,0,0,0,3.47,15.86A13.06,13.06,0,0,0,32,90.12c3.12,1.66,8.82,3,9.67,3.58a1.78,1.78,0,0,1,.58,2.48,1.84,1.84,0,0,1-2.52.56c-.85-.53-2.14-2.21-4-3.07a11.6,11.6,0,0,0-4.84-1.07,10.31,10.31,0,0,0-1.24.07,15.23,15.23,0,0,0-7.88-3.2A14.8,14.8,0,0,0,27,104.87c0,.23,0,.46,0,.69A11.73,11.73,0,0,0,37.28,117.14ZM25.37,94.65a12.07,12.07,0,0,1,1.78,1.16l1.29,1,1.62-.17a7.34,7.34,0,0,1,.81-.05,7.49,7.49,0,0,1,3.14.69,8.21,8.21,0,0,1,1.85,1.45,11.74,11.74,0,0,0,1.72,1.41,5.88,5.88,0,0,0,3.08.87,5.79,5.79,0,0,0,4.9-2.68l0,0,0,0a5.78,5.78,0,0,0-1.89-8,16.88,16.88,0,0,0-3.59-1.36,44.35,44.35,0,0,1-6.29-2.34A9,9,0,0,1,29.16,80l-.25-1.49-1.17-1a9,9,0,0,1-3.34-7,8.86,8.86,0,0,1,.93-4l.93-1.88-1-1.83a6.6,6.6,0,0,1,2.22-8.79L29.22,53l.06-2.11a8,8,0,0,1,1.57-4.56,7.33,7.33,0,0,1,.59,1.06l.5,1.1,1,.64a5.44,5.44,0,0,1,2.6,4c0,.23,0,.42,0,.59s0,.27,0,.34a4.88,4.88,0,0,0,0,1.2,5.24,5.24,0,0,0,5.15,4.48l.55,0A5.25,5.25,0,0,0,46,54.44a9.61,9.61,0,0,0-1.09-4.28,8.14,8.14,0,0,1-.88-4,5.32,5.32,0,0,1,1.59-3.81l1.63-1.62-.58-2.22a5,5,0,0,1-.16-1.28,5.37,5.37,0,0,1,5.38-5.29l2.85,0,.91-2.7a5.44,5.44,0,0,1,5.19-3.66,5.62,5.62,0,0,1,2,.36l2.18.84,1.8-1.49A5.51,5.51,0,0,1,70.31,24h.48v.36a5.18,5.18,0,0,1-1.21,3.34l-1.66,2L69.05,32a4.66,4.66,0,0,1,.49,2.1A4.8,4.8,0,0,1,68,37.67L66,39.49l.93,2.5a5,5,0,0,1,.3,1.73,5.26,5.26,0,0,1-3.44,4.92l-.86.34-.18.19A10.19,10.19,0,0,0,59.61,52a9.94,9.94,0,0,0-2.4.9A10.19,10.19,0,0,0,52,59.66a10.39,10.39,0,0,0-1.89,1.74,10.12,10.12,0,0,0-2.25,8.22,10.36,10.36,0,0,0-1.06,2.32,10.12,10.12,0,0,0,1.07,8.45A10,10,0,0,0,47.78,83,10.13,10.13,0,0,0,52,90.36a10.34,10.34,0,0,0,.88,2.38,10.16,10.16,0,0,0,6.72,5.2,10.48,10.48,0,0,0,1.75,1.9,10.25,10.25,0,0,0,6.57,2.34h.53l1,.93a10.56,10.56,0,0,1-1.16,3.3L67.35,108l.67,1.74a10.73,10.73,0,0,1,.75,3.94,10.35,10.35,0,0,1-.48,3.14A7.13,7.13,0,0,0,66,118a6.68,6.68,0,0,0-2.07,2.41,7.29,7.29,0,0,0-.52,1.34,11.35,11.35,0,0,1-3.25.47A11.15,11.15,0,0,1,52.24,119l-2-2-2.54,1.23a5,5,0,0,1-2.16.49,4.83,4.83,0,0,1-4.53-3l-.87-2.21-2.36-.29a7.73,7.73,0,0,1-6.83-7.61c0-.17,0-.35,0-.52l.08-2-1.6-1.27A10.83,10.83,0,0,1,25.37,94.65Z"/></svg>