<svg id="Symbols" xmlns="http://www.w3.org/2000/svg" viewBox="0 0 150 150"><defs><style>.cls-1{fill:#221f20;}.cls-2{fill:none;stroke:#221f20;stroke-linejoin:round;stroke-width:7.83px;}</style></defs><path class="cls-1" d="M127,72.29a4,4,0,1,1-4-4,4,4,0,0,1,4,4"/><path class="cls-1" d="M110,75.29a4,4,0,1,1-4-4,4,4,0,0,1,4,4"/><path class="cls-1" d="M99,55.29a4,4,0,1,1-4-4,4,4,0,0,1,4,4"/><path class="cls-1" d="M48,84.29a4,4,0,1,1-4-4,4,4,0,0,1,4,4"/><path class="cls-1" d="M31,95.29a4,4,0,1,1-4-4,4,4,0,0,1,4,4"/><path class="cls-2" d="M59.29,67.51c-2.28,1.75-5.36,2.21-6.49,5.81a7.58,7.58,0,0,0,5.13,9.45c8.71,2.66,8.82-8.13,17.95-5.37,4.57,1.39,6.54,7.61,2.84,12.08-4,4.24-20.58,14.89-39.71,10.84,0,0,20.7,13.89,41.63,1a70.43,70.43,0,0,0,45.65,2.11S101.57,100,83.59,69.7C66.66,41.14,43.77,37.89,33.72,49.46a16.06,16.06,0,0,0-3.09,5.86,9.72,9.72,0,0,0,6.5,12.12C41.77,68.8,45,67.61,47,63.3a7.78,7.78,0,0,0,.55-1.41,1.47,1.47,0,0,0,.08-.3,28.68,28.68,0,0,1,1.19-2.78h0A6.94,6.94,0,1,1,59.3,67.48Z"/></svg>