<svg id="Symbols" xmlns="http://www.w3.org/2000/svg" viewBox="0 0 150 150"><path d="M44.14,51.08H32.9V62.31H44.14Zm-4,7.23H36.9V55.08h3.24Z"/><path d="M80.8,51.08H69.56V62.31H80.8Zm-4,7.23H73.56V55.08H76.8Z"/><path d="M110.78,75a18.34,18.34,0,1,0,1.78,0,18.34,18.34,0,1,0-1.78,0ZM122,93.29A10.34,10.34,0,1,1,111.67,83,10.35,10.35,0,0,1,122,93.29ZM111.67,46.37a10.34,10.34,0,1,1-10.34,10.34A10.35,10.35,0,0,1,111.67,46.37Z"/><path d="M117.48,51.08H106.24V62.31h11.24Zm-4,7.23h-3.24V55.08h3.24Z"/><path d="M20,93.29a18.34,18.34,0,0,0,36.67.17A18.34,18.34,0,1,0,75.88,75,18.33,18.33,0,1,0,56.66,56.54,18.34,18.34,0,1,0,37.44,75,18.33,18.33,0,0,0,20,93.29Zm65.34,0A10.34,10.34,0,1,1,75,83,10.35,10.35,0,0,1,85.33,93.29ZM75,46.37A10.34,10.34,0,1,1,64.65,56.71,10.35,10.35,0,0,1,75,46.37ZM56.66,56.87A18.32,18.32,0,0,0,74.1,75,18.32,18.32,0,0,0,56.66,93.13,18.32,18.32,0,0,0,39.22,75,18.32,18.32,0,0,0,56.66,56.87ZM28,56.71A10.34,10.34,0,1,1,38.33,67,10.35,10.35,0,0,1,28,56.71ZM38.33,83A10.34,10.34,0,1,1,28,93.29,10.35,10.35,0,0,1,38.33,83Z"/><path d="M44.14,87.67H32.9V98.9H44.14Zm-4,7.23H36.9V91.67h3.24Z"/><path d="M69.56,98.9H80.8V87.67H69.56Zm4-7.23H76.8V94.9H73.56Z"/><path d="M106.24,98.9h11.24V87.67H106.24Zm4-7.23h3.24V94.9h-3.24Z"/></svg>