<svg id="Symbols" xmlns="http://www.w3.org/2000/svg" viewBox="0 0 150 150"><path d="M61.15,43.29c-1.86,5.12-1.94,7.44-1.94,12.94,6.63,0,13.42-2.67,15.79-5.28,2.37,2.61,9.16,5.28,15.79,5.28,0-5.5-.08-7.82-1.94-12.94,4.49-2.08,7.59-6.35,9.76-12a43,43,0,0,0-8.5-.85A24.91,24.91,0,0,0,85,30.9C81.7,25.15,75.84,20,75,20S68.3,25.15,65,30.9a24.91,24.91,0,0,0-5.15-.46,43,43,0,0,0-8.5.85C53.56,36.94,56.66,41.21,61.15,43.29Zm8.76-4.75L72,34.84a28,28,0,0,1,3-4.17,28,28,0,0,1,3,4.17l2.09,3.7-1.26.59,2.41,6.65a3.61,3.61,0,0,1-.37-.27L75,39l-5.87,6.47a3.61,3.61,0,0,1-.37.27l2.41-6.65Z"/><path d="M28.93,57c-.06,3.91.43,5.5,1.71,9.23,4.5-1.55,8.48-4.95,9.47-7.27a11.8,11.8,0,0,0,5.26,1,20.84,20.84,0,0,0,6.68-1.09c-1.28-3.73-1.88-5.29-4.33-8.32,2.56-2.47,3.66-6.08,3.81-10.42A27,27,0,0,0,42.18,43c-3.4-3-8.3-5.09-9.21-5.09h-.09c-.57.19-3.34,5.07-4.2,9.73a27.33,27.33,0,0,0-9.17,3.45C22.3,54.46,25.4,56.63,28.93,57Zm.22-5.34,2.93-.34.53-2.9a23.73,23.73,0,0,1,1.93-5.64,23.76,23.76,0,0,1,5,3.25l2.21,2,2.52-1.53a12.64,12.64,0,0,1,2.2-1,7.16,7.16,0,0,1-1.52,2.22L42.3,50.19,44.61,53a17.83,17.83,0,0,1,2,2.85c-.4,0-.81,0-1.21,0A8.46,8.46,0,0,1,42,55.44l-3.87-2.13-1.73,4.06a10.73,10.73,0,0,1-3.31,3.15,18.44,18.44,0,0,1-.2-3.46L33,53.39,29.35,53a6.85,6.85,0,0,1-2.56-.8A13.44,13.44,0,0,1,29.15,51.65Z"/><path d="M43.59,61.62,43,61.55a14,14,0,0,1-2.09-.42A14.51,14.51,0,0,1,39,63.19l.13.39a38.66,38.66,0,0,1,4.61-1.48Z"/><path d="M121.32,47.68c-.86-4.66-3.63-9.54-4.2-9.73H117c-.91,0-5.81,2.08-9.21,5.09a27,27,0,0,0-9.35-2.93c.15,4.34,1.25,7.95,3.81,10.42-2.45,3-3,4.59-4.33,8.32a20.84,20.84,0,0,0,6.68,1.09,11.8,11.8,0,0,0,5.26-1c1,2.32,5,5.72,9.47,7.27,1.28-3.73,1.77-5.32,1.71-9.23,3.53-.36,6.63-2.53,9.42-5.86A27.33,27.33,0,0,0,121.32,47.68ZM120.65,53l-3.64.38.06,3.67a18.44,18.44,0,0,1-.2,3.46,10.73,10.73,0,0,1-3.31-3.15l-1.73-4.06L108,55.44a8.46,8.46,0,0,1-3.33.49c-.4,0-.81,0-1.21,0a17.83,17.83,0,0,1,2-2.85l2.31-2.85-2.64-2.54a7.16,7.16,0,0,1-1.52-2.22,12.64,12.64,0,0,1,2.2,1L108.26,48l2.21-2a23.76,23.76,0,0,1,5-3.25,23.73,23.73,0,0,1,1.93,5.64l.53,2.9,2.93.34a13.44,13.44,0,0,1,2.36.56A6.85,6.85,0,0,1,120.65,53Z"/><path d="M109.13,61.13a14,14,0,0,1-2.09.42l-.63.07-.17.48a38.66,38.66,0,0,1,4.61,1.48l.13-.39A14.51,14.51,0,0,1,109.13,61.13Z"/><path d="M20.38,87A80.88,80.88,0,0,0,36.6,89.15a44,44,0,0,1,8.08-13.38,11.56,11.56,0,0,1,1.53-1.62,37.25,37.25,0,0,1,5.38-4.49,28.54,28.54,0,0,1,9.11-4.15,38.25,38.25,0,0,0-8-.8C38.59,64.71,25.92,74.36,20.38,87ZM44.94,69.84c-.48.43-.95.88-1.42,1.34a17.7,17.7,0,0,0-1.86,2A46.91,46.91,0,0,0,34,85a75.81,75.81,0,0,1-7.6-.88A33.06,33.06,0,0,1,44.94,69.84Z"/><path d="M75,130.08s14.53-13.53,14.53-39.91c0-12.84-5.86-23.24-13.72-23.91a6.39,6.39,0,0,0-.75,0c-.48,0-.87,0-.87,0-7.86.67-13.72,11.07-13.72,23.91C60.47,116.55,75,130.08,75,130.08Zm-.13-55.85h0l.13,0h.14c2.17.19,6.4,6,6.4,15.94A53.84,53.84,0,0,1,75,116.69a53.84,53.84,0,0,1-6.53-26.52C68.47,80.21,72.7,74.42,74.87,74.23Z"/><path d="M114.68,116.8s.45-4.5.45-9.29c0-16.15-7.37-29.5-17.64-36.52a26.83,26.83,0,0,0-15.28-4.76c-.44,0-.89,0-1.33,0a13.76,13.76,0,0,1,1.37.93,21.4,21.4,0,0,1,6.52,9.37A31.79,31.79,0,0,1,90,80.67a15.87,15.87,0,0,1,.43,2,42.31,42.31,0,0,1,.68,7.52,68.51,68.51,0,0,1-.92,11.31A81.66,81.66,0,0,0,114.68,116.8ZM107,104.05a73.54,73.54,0,0,1-8.26-5.81,76.9,76.9,0,0,0,.42-8.07,51.14,51.14,0,0,0-.56-7.48A37.84,37.84,0,0,1,107,104.05Z"/><path d="M89.3,65.51a28.54,28.54,0,0,1,9.11,4.15,37.25,37.25,0,0,1,5.38,4.49,21.7,21.7,0,0,1,1.53,1.62,44,44,0,0,1,8.08,13.38A80.88,80.88,0,0,0,129.62,87c-5.54-12.64-18.21-22.29-32.33-22.29A38.18,38.18,0,0,0,89.3,65.51Zm34.3,18.63A75.81,75.81,0,0,1,116,85a47,47,0,0,0-7.67-11.88c-.85-1-1.53-1.65-1.75-1.86-.5-.49-1-1-1.52-1.44A33.06,33.06,0,0,1,123.6,84.14Z"/><path d="M60,80.67a31.79,31.79,0,0,1,1.27-4.11,21.4,21.4,0,0,1,6.52-9.37,13.76,13.76,0,0,1,1.37-.93c-.44,0-.89,0-1.33,0A26.83,26.83,0,0,0,52.51,71c-10.27,7-17.64,20.37-17.64,36.52,0,4.79.45,9.29.45,9.29a81.66,81.66,0,0,0,24.45-15.32,68.51,68.51,0,0,1-.92-11.31,42.31,42.31,0,0,1,.68-7.52S59.67,81.76,60,80.67ZM51.27,98.24A72.64,72.64,0,0,1,43,104.05a37.82,37.82,0,0,1,8.4-21.36,51.35,51.35,0,0,0-.56,7.48A77,77,0,0,0,51.27,98.24Z"/><path d="M75,55.37a2,2,0,0,0-2,2v.29a6.61,6.61,0,0,0-2-.72,2,2,0,0,0-2.26,1.62,2,2,0,0,0,1.59,2.32,5.27,5.27,0,0,1,3,2.38h3.32a5.28,5.28,0,0,1,3-2.37,2,2,0,0,0,1.66-2.3A2,2,0,0,0,79,56.94a6.61,6.61,0,0,0-2,.72v-.29A2,2,0,0,0,75,55.37Z"/></svg>