<svg id="Symbols" xmlns="http://www.w3.org/2000/svg" viewBox="0 0 150 150"><defs><style>.cls-1{fill:#221f20;}.cls-2{stroke:#221f20;stroke-miterlimit:10;}</style></defs><path class="cls-1" d="M75,28A47,47,0,1,1,28,75,47,47,0,0,1,75,28m0-8a55,55,0,1,0,55,55A55,55,0,0,0,75,20Z"/><path d="M44.07,62.89V59.76l-4.36,4.37,4.36-1.24Zm-.94-4.07H40l-1.24,4.37,4.36-4.37Z"/><path class="cls-1" d="M72.82,42.25A38.59,38.59,0,0,0,67,67a38.36,38.36,0,0,0-24.67,5.83,27.33,27.33,0,0,1,3.34-4,26.94,26.94,0,0,1,12.92-7.2L61,61l.56-2.43A27.18,27.18,0,0,1,72.82,42.25M87,33.73A31,31,0,0,0,57.64,57.64,31,31,0,0,0,33.73,87,34.42,34.42,0,0,1,71.92,71.92,34.46,34.46,0,0,1,87,33.73Z"/><path class="cls-1" d="M53.84,43.71a9.75,9.75,0,0,1,3.82.75,36.26,36.26,0,0,0-4.34,8.86,35.57,35.57,0,0,0-4,1.59V53.59H43.46a9.64,9.64,0,0,1,3.06-7.07,10.62,10.62,0,0,1,7.32-2.81m0-4a14.59,14.59,0,0,0-10.15,4A13.89,13.89,0,0,0,40,57.59h5.33V62a31.92,31.92,0,0,1,11.23-5.42,32.15,32.15,0,0,1,6.78-12.92l-.26-.26a12.88,12.88,0,0,0-9.22-3.65Z"/><path class="cls-2" d="M73.31,92.13V89l-4.37,4.37,4.37-1.24Zm-.94-4.07H69.25L68,92.43l4.37-4.37Z"/><path class="cls-1" d="M102.06,71.49a38.59,38.59,0,0,0-5.87,24.7A38.36,38.36,0,0,0,71.52,102,27.15,27.15,0,0,1,87.78,90.77l2.43-.56.56-2.43a27.18,27.18,0,0,1,11.29-16.29M116.27,63A31,31,0,0,0,86.88,86.88,31,31,0,0,0,63,116.27a34.42,34.42,0,0,1,38.19-15.11A34.46,34.46,0,0,1,116.27,63Z"/><path class="cls-1" d="M83.08,73a9.7,9.7,0,0,1,3.81.75,36.59,36.59,0,0,0-4.33,8.86,36.49,36.49,0,0,0-4,1.59V82.83H72.7a9.68,9.68,0,0,1,3.06-7.08A10.65,10.65,0,0,1,83.08,73m0-4a14.57,14.57,0,0,0-10.15,4,13.89,13.89,0,0,0-3.71,13.9h5.32V91.2a32,32,0,0,1,11.24-5.42,32.19,32.19,0,0,1,6.77-12.92,3.07,3.07,0,0,0-.25-.26A12.88,12.88,0,0,0,83.08,69Z"/><path d="M50.29,48.88a1.9,1.9,0,1,1-1.9-1.9A1.9,1.9,0,0,1,50.29,48.88Z"/><path class="cls-2" d="M79.08,78.29a1.9,1.9,0,1,1-1.9-1.9A1.9,1.9,0,0,1,79.08,78.29Z"/></svg>