<svg id="Symbols" xmlns="http://www.w3.org/2000/svg" viewBox="0 0 150 150"><path d="M75,130A55,55,0,1,0,20,75,55,55,0,0,0,75,130ZM75,28A47,47,0,1,1,28,75,47,47,0,0,1,75,28Z"/><path d="M72,75.37,51.63,60.93,31.79,75,52.14,89.43ZM51.63,70.74l6.51,4.63-6,4.25L45.62,75Z"/><path d="M55,91.48l20,14.16L94.83,91.57l-20-14.15Zm20,4.35-6.13-4.35,6-4.25L81,91.58Z"/><path d="M95.35,58.8,75,44.36,54.53,58.88,74.87,73.31ZM75,54.17l6.52,4.62-6.64,4.72-6.53-4.63Z"/><path d="M97.74,89.52,118.21,75l-20-14.15L77.77,75.37Zm.51-18.86L104.38,75l-6.65,4.71-6.12-4.34Z"/></svg>