<svg id="Symbols" xmlns="http://www.w3.org/2000/svg" viewBox="0 0 150 150"><path d="M128.31,50a1.77,1.77,0,0,0,.31-.46l1.12-1.19c-.48-.38-1-.74-1.46-1.11l-.07-.07a2,2,0,0,0-.42-.29,88.62,88.62,0,0,0-105.58,0,2,2,0,0,0-.42.29l-.07.07c-.48.37-1,.73-1.46,1.11l1.12,1.19a1.77,1.77,0,0,0,.31.46L48.14,78.34l24.1,25.34L63,113.44a2,2,0,0,0,.07,2.83,2,2,0,0,0,1.38.55,2,2,0,0,0,1.45-.63l2.87-3-2.32,5.71a2,2,0,0,0,1.09,2.6,2.06,2.06,0,0,0,.76.15,2,2,0,0,0,1.85-1.24l2.89-7.1v7.3a2,2,0,0,0,4,0v-5.16l1.91,4.93a2,2,0,0,0,3.73-1.45l-2.82-7.26,4.32,4.54a2,2,0,0,0,1.45.63,2,2,0,0,0,1.38-.55,2,2,0,0,0,.07-2.83l-9.28-9.76,24.12-25.36ZM77,70.12a48,48,0,0,1,8.79,1.17L77,92.87Zm-4,24-8.87-22.8A48,48,0,0,1,73,70.12ZM60.26,72.38,68.74,94.2l-17.16-18A48.3,48.3,0,0,1,60.26,72.38Zm29.42,0a48.24,48.24,0,0,1,8.74,3.8l-18,18.92ZM75,37.41a79.88,79.88,0,0,1,42.63,12.16L100.34,68.11a56.18,56.18,0,0,0-50.68,0L32.37,49.57A79.88,79.88,0,0,1,75,37.41Z"/><path d="M75,58.07a8.26,8.26,0,1,0-8.26-8.26A8.27,8.27,0,0,0,75,58.07Zm0-12.52a4.26,4.26,0,1,1-4.26,4.26A4.26,4.26,0,0,1,75,45.55Z"/></svg>