<svg id="Symbols" xmlns="http://www.w3.org/2000/svg" viewBox="0 0 150 150"><defs><style>.cls-1{fill:#221f20;}</style></defs><path class="cls-1" d="M45.5,67.05l11.85,8.41-11.21,8L34.29,75l11.21-8m0-9.81L20.46,75,46.14,93.21l25-17.74L45.5,57.24Z"/><path class="cls-1" d="M104.35,66.94,115.71,75l-12,8.52L92.33,75.46l12-8.52m0-9.8L78.5,75.47l25.2,17.86L129.54,75l-25.2-17.86Z"/><path class="cls-1" d="M74.84,87.86l11.37,8.06-11.21,8L63.64,95.81l11.2-8m0-9.8L49.8,95.8,75,113.68l25-17.76L74.84,78.06Z"/><path class="cls-1" d="M75,46.13l11.86,8.41-12,8.52L63,54.65l12-8.52m0-9.81L49.16,54.65,74.84,72.87l25.84-18.33L75,36.32Z"/><path class="cls-1" d="M104.35,66.94,115.71,75l-12,8.52L92.33,75.46l12-8.52m0-9.8L78.5,75.47l25.2,17.86L129.54,75l-25.2-17.86Z"/></svg>