<svg id="Symbols" xmlns="http://www.w3.org/2000/svg" viewBox="0 0 150 150"><path d="M75,130A55,55,0,1,0,20,75,55,55,0,0,0,75,130ZM75,28A47,47,0,1,1,28,75,47,47,0,0,1,75,28Z"/><path d="M63.5,47.16C63.5,57.45,72,67.87,75,71.23c3-3.37,11.5-13.8,11.5-24.07,0-2.39-.52-14.32-10.86-14.8-.23,0-.41,0-.59,0-.35,0-.64,0-.66,0C64,32.84,63.5,44.77,63.5,47.16Zm11-10.8h.12l.41,0h.41c2.82.13,4.61,1.44,5.8,4.25a18,18,0,0,1,1.24,6.55c0,6.52-4.24,13.42-7.5,17.76-3.26-4.33-7.5-11.22-7.5-17.76a18,18,0,0,1,1.24-6.55C69.93,37.82,71.72,36.5,74.52,36.36Z"/><path d="M62,54.51a24.64,24.64,0,0,1-.83-11.4c.11-.77.25-1.52.25-1.52h.05c.06-.27.13-.54.2-.81a20.54,20.54,0,0,1,.71-2.18,14.13,14.13,0,0,1,5.53-7l.32-.2a44.26,44.26,0,0,0-31,20.73C42,54,49.45,54.66,56.3,54.66,58.28,54.66,60.2,54.61,62,54.51ZM46.62,46.63a40.31,40.31,0,0,1,11.28-8l-.41,2.16s-.16.83-.28,1.66a28.85,28.85,0,0,0-.37,4.67,26,26,0,0,0,.24,3.49H56.3a74.84,74.84,0,0,1-12.48-.92C44.7,48.66,45.64,47.62,46.62,46.63Z"/><path d="M87.63,38.59a20.54,20.54,0,0,1,.71,2.18c.07.27.14.54.2.81a12.58,12.58,0,0,1,.3,1.53A24.64,24.64,0,0,1,88,54.51c1.79.1,3.72.15,5.69.15,6.85,0,14.32-.66,19-2.54a44.26,44.26,0,0,0-31-20.73l.32.2A14.08,14.08,0,0,1,87.63,38.59Zm15.74,8c1,1,1.93,2,2.81,3.12a74.84,74.84,0,0,1-12.48.92h-.78a26.06,26.06,0,0,0,.24-3.5,28.82,28.82,0,0,0-.37-4.66,17.5,17.5,0,0,0-.36-1.88c-.07-.3-.15-.59-.23-.89S92,39,91.86,38.57A40.28,40.28,0,0,1,103.37,46.62Z"/><path d="M99.25,74a24.54,24.54,0,0,1,10.29,5,11.18,11.18,0,0,1,1.18,1l.6.58a20.73,20.73,0,0,1,1.53,1.71,14,14,0,0,1,3.3,8.28c0,.13,0,.25,0,.38a44,44,0,0,0,1.47-27.36,44.82,44.82,0,0,0-3.94-9.82C108.55,57.82,102.88,66.83,99.25,74Zm14.51-9.36a40.34,40.34,0,0,1,1.23,14c-.27-.29-.55-.59-.83-.87l-.68-.66A17.74,17.74,0,0,0,112,75.81a28.63,28.63,0,0,0-3.82-2.62,26.77,26.77,0,0,0-3.13-1.54,78.82,78.82,0,0,1,7.42-11A40.31,40.31,0,0,1,113.76,64.62Z"/><path d="M104.61,79.39c-3.74-2.16-8.68-3.25-14.69-3.25a57.75,57.75,0,0,0-11,1.12c1.59,4.66,6.28,16.34,14.7,21.19a18.9,18.9,0,0,0,9.2,2.74,9.42,9.42,0,0,0,8.39-4.58,10.38,10.38,0,0,0,.58-1C116.36,86.76,106.61,80.55,104.61,79.39Zm3.62,14.38c-.13.24-.27.49-.4.69a5.44,5.44,0,0,1-5,2.73A15.11,15.11,0,0,1,95.6,95c-5.3-3-9-9.73-11.15-14.53a50.38,50.38,0,0,1,5.47-.31c5.3,0,9.57.92,12.69,2.72A17.29,17.29,0,0,1,107.47,87C109.21,89.34,109.45,91.42,108.23,93.77Z"/><path d="M102.81,104.35a18.7,18.7,0,0,1-2.59-.2c-.76-.12-1.51-.28-2.24-.47l-.8-.23a13,13,0,0,1-1.47-.51A26.58,26.58,0,0,1,92,101.19a25.92,25.92,0,0,1-5.79-4.67c-4.38,6.72-9.35,16.14-10.29,22.61a44.62,44.62,0,0,0,10.47-1.5,44,44,0,0,0,23-14.95,2.68,2.68,0,0,1-.33.18A13,13,0,0,1,102.81,104.35Zm-17.42,9.42a40.92,40.92,0,0,1-4.1.87,77.68,77.68,0,0,1,5.83-11.94,28,28,0,0,0,2.91,2,30.5,30.5,0,0,0,4.21,2,19.27,19.27,0,0,0,1.85.64l.85.24c.4.11.79.2,1.19.29A40.51,40.51,0,0,1,85.39,113.77Z"/><path d="M63.58,117.63a44.62,44.62,0,0,0,10.47,1.5c-.94-6.47-5.91-15.89-10.29-22.61A25.92,25.92,0,0,1,58,101.19a26.58,26.58,0,0,1-3.68,1.75c-.8.32-1.47.51-1.47.51l-.8.23c-.74.19-1.49.35-2.24.47a18.69,18.69,0,0,1-2.59.19A13,13,0,0,1,41,102.86a2.68,2.68,0,0,1-.33-.18A44,44,0,0,0,63.58,117.63ZM53.05,107.54c.3-.08.6-.16.9-.26a17.88,17.88,0,0,0,1.8-.62,29.11,29.11,0,0,0,4.23-2,27.25,27.25,0,0,0,2.9-2,78.6,78.6,0,0,1,5.83,11.94,40.46,40.46,0,0,1-16.84-6.81C52.27,107.74,52.66,107.65,53.05,107.54Z"/><path d="M56.39,98.45c8.44-4.87,13.12-16.53,14.7-21.19a57.65,57.65,0,0,0-11-1.12c-6,0-10.95,1.09-14.69,3.25-2,1.16-11.75,7.37-7.2,16.15a10.47,10.47,0,0,0,.54,1l.07.09a9.42,9.42,0,0,0,8.4,4.58A18.9,18.9,0,0,0,56.39,98.45Zm-14.22-4-.05-.07,0-.07h0a4.21,4.21,0,0,1-.27-.49l0-.06,0-.06c-.81-1.56-1.45-3.73.78-6.68a17.52,17.52,0,0,1,4.87-4.16c3.12-1.8,7.39-2.72,12.69-2.72a50.23,50.23,0,0,1,5.47.31C63.45,85.24,59.72,91.91,54.39,95a15.13,15.13,0,0,1-7.19,2.2A5.45,5.45,0,0,1,42.17,94.46Z"/><path d="M38.68,80.57l.6-.58c.5-.48,1.17-1,1.17-1v0a26.47,26.47,0,0,1,3.36-2.31A25.73,25.73,0,0,1,50.75,74c-3.63-7.15-9.3-16.16-14.44-20.22a44.82,44.82,0,0,0-3.94,9.82,44,44,0,0,0,1.47,27.36c0-.13,0-.25,0-.38a14,14,0,0,1,3.3-8.28A20.73,20.73,0,0,1,38.68,80.57Zm-2.83-2.83-.84.88a40.7,40.7,0,0,1,2.52-18,78.82,78.82,0,0,1,7.42,11c-.85.36-1.66.74-2.45,1.16l-.23-.65-4.41,3.73c-.07.07-.76.65-1.33,1.19Z"/></svg>