<svg id="Symbols" xmlns="http://www.w3.org/2000/svg" viewBox="0 0 150 150"><defs><style>.cls-1{fill:#221f20;}.cls-2{fill:none;stroke:#221f20;stroke-linecap:round;stroke-miterlimit:10;stroke-width:8px;}</style></defs><path class="cls-1" d="M75,28A47,47,0,1,1,28,75,47,47,0,0,1,75,28m0-8a55,55,0,1,0,55,55A55,55,0,0,0,75,20Z"/><path class="cls-1" d="M87.54,42.46a6.81,6.81,0,0,1,3.3,12.81l-.23.11-.2.12c-3.56,2-10.68,6.11-15.2,8.75-4.52-2.64-11.66-6.8-15.21-8.76h0l-.14-.08-.08,0-.08,0a6.81,6.81,0,0,1,3.22-12.85,6.92,6.92,0,0,1,5.72,3l6.61,9.68,6.6-9.68a6.92,6.92,0,0,1,5.72-3m0-8A14.89,14.89,0,0,0,75.21,41,14.86,14.86,0,1,0,56,62.39l0,0c5.18,2.85,19.22,11.1,19.22,11.1s14.05-8.25,19.23-11.1l0,0a14.81,14.81,0,0,0-6.94-27.93Z"/><path class="cls-1" d="M46.08,70.21a6.87,6.87,0,0,1,3.59,1l.13.09.23.13c3.45,2.09,10.68,6.23,15.26,8.84,0,5.26-.06,13.57,0,17.61v.32a6.8,6.8,0,0,1-3.39,6.19,6.59,6.59,0,0,1-3.37.91,6.93,6.93,0,0,1-6.23-9.92l5.09-10.57-11.69-.88a6.91,6.91,0,0,1-5.47-3.44,6.82,6.82,0,0,1-.7-5.24,6.73,6.73,0,0,1,3.16-4.14,6.64,6.64,0,0,1,3.36-.9m0-8a14.68,14.68,0,0,0-7.36,2,14.91,14.91,0,0,0,6.4,27.73A14.93,14.93,0,0,0,58.56,113.3,14.78,14.78,0,0,0,73.31,97.88v0c-.12-5.92,0-22.21,0-22.21s-14.17-8-19.23-11.09l0,0a15,15,0,0,0-8-2.3Z"/><path class="cls-1" d="M103.33,70.79a6.65,6.65,0,0,1,3.36.91,6.78,6.78,0,0,1,3.17,4.14,6.94,6.94,0,0,1-6.17,8.68L92,85.4,97.08,96a6.93,6.93,0,0,1-6.23,9.92,6.68,6.68,0,0,1-3.37-.91,6.79,6.79,0,0,1-3.39-6.14v-.37c.08-4,.05-12.35,0-17.61C88.71,78.24,96,74.09,99.4,72l.12-.07.14-.09a6.91,6.91,0,0,1,3.67-1.06m0-8a14.94,14.94,0,0,0-8,2.31l0,0c-5.07,3.07-19.23,11.1-19.23,11.1s.12,16.29,0,22.2v0a14.84,14.84,0,1,0,28.19-6,14.91,14.91,0,0,0,6.4-27.73,14.69,14.69,0,0,0-7.36-2Z"/><line class="cls-2" x1="75" y1="41.92" x2="75" y2="25.38"/><line class="cls-2" x1="46.35" y1="91.54" x2="32.02" y2="99.81"/><line class="cls-2" x1="103.65" y1="91.54" x2="117.98" y2="99.81"/></svg>