<svg id="Symbols" xmlns="http://www.w3.org/2000/svg" viewBox="0 0 150 150"><defs><style>.cls-1{fill:none;stroke:#221f20;stroke-linecap:round;stroke-miterlimit:10;stroke-width:4px;}.cls-2{fill:#221f20;}</style></defs><line class="cls-1" x1="108.84" y1="64.46" x2="108.84" y2="33.61"/><line class="cls-1" x1="112.97" y1="35.05" x2="109.66" y2="41.06"/><line class="cls-1" x1="108.01" y1="41.06" x2="104.7" y2="35.05"/><line class="cls-1" x1="108.84" y1="51.17" x2="121.13" y2="44.25"/><line class="cls-1" x1="121.94" y1="48.56" x2="115.08" y2="48.68"/><line class="cls-1" x1="114.26" y1="47.25" x2="117.82" y2="41.38"/><line class="cls-1" x1="96.54" y1="44.25" x2="108.84" y2="51.17"/><line class="cls-1" x1="102.59" y1="48.68" x2="95.73" y2="48.56"/><line class="cls-1" x1="99.85" y1="41.38" x2="103.41" y2="47.25"/><line class="cls-1" x1="108.84" y1="64.46" x2="121.13" y2="57.55"/><line class="cls-1" x1="121.94" y1="61.85" x2="115.08" y2="61.98"/><line class="cls-1" x1="114.26" y1="60.54" x2="117.82" y2="54.68"/><line class="cls-1" x1="96.54" y1="57.55" x2="108.84" y2="64.46"/><line class="cls-1" x1="102.59" y1="61.98" x2="95.73" y2="61.85"/><line class="cls-1" x1="99.85" y1="54.68" x2="103.41" y2="60.54"/><line class="cls-1" x1="41.17" y1="64.46" x2="41.16" y2="33.61"/><line class="cls-1" x1="45.3" y1="35.05" x2="41.99" y2="41.06"/><line class="cls-1" x1="40.34" y1="41.06" x2="37.03" y2="35.05"/><line class="cls-1" x1="41.17" y1="51.17" x2="53.46" y2="44.25"/><line class="cls-1" x1="54.28" y1="48.56" x2="47.41" y2="48.68"/><line class="cls-1" x1="46.59" y1="47.25" x2="50.15" y2="41.38"/><line class="cls-1" x1="28.87" y1="44.25" x2="41.17" y2="51.17"/><line class="cls-1" x1="34.92" y1="48.68" x2="28.06" y2="48.56"/><line class="cls-1" x1="32.18" y1="41.38" x2="35.74" y2="47.25"/><line class="cls-1" x1="41.17" y1="64.46" x2="53.46" y2="57.55"/><line class="cls-1" x1="54.28" y1="61.85" x2="47.41" y2="61.98"/><line class="cls-1" x1="46.59" y1="60.54" x2="50.15" y2="54.68"/><line class="cls-1" x1="28.87" y1="57.55" x2="41.17" y2="64.46"/><line class="cls-1" x1="34.92" y1="61.98" x2="28.06" y2="61.85"/><line class="cls-1" x1="32.18" y1="54.68" x2="35.74" y2="60.54"/><line class="cls-1" x1="75" y1="67.11" x2="75" y2="20.7"/><line class="cls-1" x1="79.14" y1="22.14" x2="75.83" y2="28.15"/><line class="cls-1" x1="74.17" y1="28.15" x2="70.86" y2="22.14"/><line class="cls-1" x1="75" y1="38.26" x2="87.29" y2="31.35"/><line class="cls-1" x1="88.11" y1="35.65" x2="81.25" y2="35.78"/><line class="cls-1" x1="80.42" y1="34.34" x2="83.98" y2="28.47"/><line class="cls-1" x1="62.71" y1="31.35" x2="75" y2="38.26"/><line class="cls-1" x1="68.75" y1="35.78" x2="61.89" y2="35.65"/><line class="cls-1" x1="66.02" y1="28.47" x2="69.58" y2="34.34"/><line class="cls-1" x1="75" y1="53.08" x2="87.29" y2="46.17"/><line class="cls-1" x1="88.11" y1="50.47" x2="81.25" y2="50.6"/><line class="cls-1" x1="80.42" y1="49.16" x2="83.98" y2="43.29"/><line class="cls-1" x1="62.71" y1="46.17" x2="75" y2="53.08"/><line class="cls-1" x1="68.75" y1="50.6" x2="61.89" y2="50.47"/><line class="cls-1" x1="66.02" y1="43.29" x2="69.58" y2="49.16"/><line class="cls-1" x1="75" y1="67.9" x2="87.29" y2="60.99"/><line class="cls-1" x1="88.11" y1="65.29" x2="81.25" y2="65.41"/><line class="cls-1" x1="80.42" y1="63.98" x2="83.98" y2="58.11"/><line class="cls-1" x1="62.71" y1="60.99" x2="75" y2="67.9"/><line class="cls-1" x1="68.75" y1="65.41" x2="61.89" y2="65.29"/><line class="cls-1" x1="66.02" y1="58.11" x2="69.58" y2="63.98"/><path class="cls-2" d="M102,71.11c6.7,0,11.74,1.86,14,3.45,3.61,2.51,5.26,5.31,5.07,8.55l-.11,1.79,1.27,1.27s1.91,2.2,1.38,6.28c-.44,3.46-2.47,4.51-2.9,4.7l-2.75.66v3.11s-.15,4.22-2.74,5.44a8.75,8.75,0,0,1-3.79.88,6.88,6.88,0,0,1-2.1-.3l-2.19-1-1.71,1.51a7.59,7.59,0,0,1-1.35.41c0-.3-.05-.6-.09-.91-1.09-8.7-4.06-15.2-10.24-22.42l-.64-.72c-.62-.69-1.28-1.32-1.43-1.47a35.88,35.88,0,0,0-6.15-4.66c-.79-.49-1.16-.71-1.35-.81l-.65-.37a6.8,6.8,0,0,0,.09-.86,49.53,49.53,0,0,1,11.2-3.76,34.08,34.08,0,0,1,7.17-.75m0-4a38.27,38.27,0,0,0-8,.84,60.6,60.6,0,0,0-14.85,5.36,4.59,4.59,0,0,1,.45,1.62,2.35,2.35,0,0,1,0,1.13,4.57,4.57,0,0,1-1.07,2.26c1.07.56,2.37,1.22,3.78,2,0,0,.22.11,1.15.7a32.43,32.43,0,0,1,5.53,4.18s.65.61,1.21,1.24l.56.63c6.17,7.2,8.43,13.17,9.32,20.32a12.07,12.07,0,0,1,.1,1.55,10.11,10.11,0,0,1-.57,3.37c6.55-.18,8.27-1.69,8.27-1.69a10.25,10.25,0,0,0,3.61.59,12.83,12.83,0,0,0,5.49-1.26c5-2.37,5-9,5-9s4.78-1.51,5.62-8c.81-6.29-2.52-9.62-2.52-9.62.28-4.69-2-8.73-6.77-12.06-3.48-2.43-9.55-4.17-16.3-4.17Z"/><path class="cls-2" d="M72.37,83.47a8.49,8.49,0,0,0,1.41.33,8.12,8.12,0,0,0,1.21.1,6.91,6.91,0,0,0,1.23-.11,7.58,7.58,0,0,0,1.41-.32,30.44,30.44,0,0,1,9.28,6.84c5.8,6.78,7.42,11.82,8.17,17.73.44,3.48-1.71,4.77-2.46,5.1l-2.76.94.24,3.09a4.51,4.51,0,0,1-1.66,2.92,4.92,4.92,0,0,1-3.25,1.07,5.44,5.44,0,0,1-.93-.07l-2.36-.58-1.6,2S78,125.3,75,125.3s-5.3-2.78-5.3-2.78l-1.5-2-2.47.61a5.17,5.17,0,0,1-.92.07,4.92,4.92,0,0,1-3.25-1.07,4.41,4.41,0,0,1-1.65-3l.6-2.92-3.13-1.07c-.74-.33-2.9-1.62-2.46-5.1.75-5.91,2.37-10.94,8.17-17.73a30.44,30.44,0,0,1,9.28-6.84M59.9,117h0M77.71,79a4.53,4.53,0,0,1-2.13.84,2.68,2.68,0,0,1-.59.06,2.35,2.35,0,0,1-.57-.06A4.53,4.53,0,0,1,72.29,79c-3.1,1.65-8.27,4.06-12.24,8.71-6.07,7.1-8.21,12.8-9.1,19.83a8.56,8.56,0,0,0,5,9.32,8.11,8.11,0,0,0,3,6.22,8.83,8.83,0,0,0,5.9,2.08,8.65,8.65,0,0,0,1.75-.16S70,129.3,75,129.3s8.44-4.3,8.44-4.3a8.65,8.65,0,0,0,1.75.16,8.87,8.87,0,0,0,5.91-2.08,8.12,8.12,0,0,0,3-6.22,8.56,8.56,0,0,0,5-9.32c-.89-7-3-12.73-9.1-19.83-4-4.65-9.14-7.06-12.24-8.71Z"/><path class="cls-2" d="M48.05,71.11a34.08,34.08,0,0,1,7.17.75,48.72,48.72,0,0,1,11.21,3.77c0,.26,0,.55.08.85l-.75.43s-.68.4-1.21.73a35.78,35.78,0,0,0-6.19,4.68c-.14.14-.82.78-1.44,1.48-.21.23-.42.46-.62.7-6.19,7.23-9.16,13.73-10.24,22.41,0,.31-.08.62-.1.93a7.73,7.73,0,0,1-1.3-.39L43,105.86l-2.33,1.08a6.88,6.88,0,0,1-2.1.3,8.75,8.75,0,0,1-3.79-.88c-2.59-1.22-2.73-5.39-2.73-5.4V98l-2.8-.88s-2.37-.91-2.86-4.69a8.2,8.2,0,0,1,1.41-6.31L29.08,85,29,83.11c-.19-3.24,1.47-6,5.07-8.55,2.28-1.59,7.31-3.45,14-3.45m-20.18,15h0m20.18-19c-6.75,0-12.82,1.74-16.3,4.17C27,74.61,24.7,78.65,25,83.34c0,0-3.33,3.33-2.52,9.62.84,6.48,5.63,8,5.63,8s0,6.66,5,9a12.86,12.86,0,0,0,5.49,1.26,10.25,10.25,0,0,0,3.61-.59s1.73,1.51,8.27,1.69a10.11,10.11,0,0,1-.57-3.37,12.07,12.07,0,0,1,.1-1.55c.89-7.15,3.15-13.12,9.32-20.32l.56-.63c.56-.63,1.21-1.24,1.21-1.24a32.43,32.43,0,0,1,5.53-4.18l1.15-.7c1.41-.81,2.71-1.47,3.78-2a4.57,4.57,0,0,1-1.07-2.26,3.69,3.69,0,0,1,0-1.13,4.39,4.39,0,0,1,.45-1.62A60.43,60.43,0,0,0,56.06,68a38.27,38.27,0,0,0-8-.84Z"/><path class="cls-2" d="M75,71.71a3.62,3.62,0,1,0,3.62,3.62A3.62,3.62,0,0,0,75,71.71Z"/></svg>