<svg id="Symbols" xmlns="http://www.w3.org/2000/svg" viewBox="0 0 150 150"><defs><style>.cls-1{fill:#221f20;}</style></defs><path d="M76.85,55.93A1.85,1.85,0,1,1,75,54.08a1.85,1.85,0,0,1,1.85,1.85"/><path d="M79.61,49.7a1.79,1.79,0,0,1-.25.94,2,2,0,0,1-.46.54l-2.5,1.9A2.36,2.36,0,0,0,76,52.8V51.16a1,1,0,1,0-2.08,0v1.71a2,2,0,0,0-.3.21l-2.5-1.9a2.23,2.23,0,0,1-.47-.54,1.91,1.91,0,0,1,.71-2.58,1.76,1.76,0,0,1,.93-.25,2.5,2.5,0,0,1,.54.07l.16,0v-.17a2,2,0,0,1,.61-1.4A2,2,0,0,1,77,47.76v.17l.16,0a2.35,2.35,0,0,1,.54-.07,1.73,1.73,0,0,1,.92.25,1.87,1.87,0,0,1,1,1.64"/><path d="M68.8,57h2.64l-3.13,2.38a2.37,2.37,0,0,1-1.41.45,2.45,2.45,0,0,1-2.44-2.23v-.11h-.92a1.54,1.54,0,1,1,0-3.07h.92v-.12a2.35,2.35,0,0,1,.78-1.58A2.47,2.47,0,0,1,66.9,52a2.43,2.43,0,0,1,1.41.44l3.13,2.39H68.8a1,1,0,0,0,0,2.09"/><path d="M79.61,62.16a1.89,1.89,0,0,1-1,1.64,2,2,0,0,1-.93.25,1.91,1.91,0,0,1-.54-.08l-.16,0v.16a2,2,0,0,1-.61,1.4A2,2,0,0,1,73,64.09v-.16l-.16,0a1.91,1.91,0,0,1-.54.08,2,2,0,0,1-.93-.25,1.89,1.89,0,0,1-1-1.64,1.85,1.85,0,0,1,.24-.94,2,2,0,0,1,.47-.55l2.5-1.91a1.54,1.54,0,0,0,.3.22v1.77a1,1,0,0,0,2.08,0v-1.7a1.66,1.66,0,0,0,.42-.29l2.5,1.91a2,2,0,0,1,.71,1.49"/><path d="M88,55.92a1.53,1.53,0,0,1-1.54,1.54h-.92v.12a2.44,2.44,0,0,1-.78,1.58,2.47,2.47,0,0,1-3.08.19L78.54,57h2.55a1,1,0,1,0,0-2.09H78.58l3.11-2.37a2.35,2.35,0,0,1,1.41-.45,2.45,2.45,0,0,1,2.44,2.21v.13h.92A1.54,1.54,0,0,1,88,55.92"/><path d="M103.11,94a1.85,1.85,0,1,1-1.85-1.85A1.85,1.85,0,0,1,103.11,94"/><path d="M105.87,87.73a1.81,1.81,0,0,1-.26.94,2,2,0,0,1-.45.55l-2.51,1.9a1.65,1.65,0,0,0-.41-.28V89.2a1,1,0,1,0-2.08,0v1.7a1.66,1.66,0,0,0-.3.22l-2.5-1.9a2.1,2.1,0,0,1-.47-.55,1.88,1.88,0,0,1,2.17-2.75l.16,0v-.17a2,2,0,0,1,4.07,0V86l.16,0a1.89,1.89,0,0,1,.53-.08,1.86,1.86,0,0,1,.93.25,1.88,1.88,0,0,1,1,1.64"/><path d="M95.05,95H97.7l-3.13,2.39a2.47,2.47,0,0,1-3.86-1.78v-.12h-.91a1.54,1.54,0,1,1,0-3.07h.91v-.12a2.45,2.45,0,0,1,2.45-2.22,2.46,2.46,0,0,1,1.41.45L97.7,92.9H95.05a1,1,0,0,0,0,2.09"/><path d="M105.87,100.19a1.89,1.89,0,0,1-1.89,1.89,2.33,2.33,0,0,1-.53-.07l-.16-.05v.16a2,2,0,0,1-.61,1.41,2.07,2.07,0,0,1-1.42.58,2,2,0,0,1-2-2V102l-.16.05a2.26,2.26,0,0,1-.53.07,1.89,1.89,0,0,1-.94-.25,1.92,1.92,0,0,1-.7-2.58,2.06,2.06,0,0,1,.47-.54l2.5-1.91a1.25,1.25,0,0,0,.3.21v1.77a1,1,0,1,0,2.08,0V97.09a2,2,0,0,0,.41-.29l2.51,1.91a2,2,0,0,1,.45.54,1.78,1.78,0,0,1,.26.94"/><path d="M114.26,94a1.52,1.52,0,0,1-1.53,1.53h-.92v.13a2.45,2.45,0,0,1-3.86,1.77L104.8,95h2.55a1,1,0,1,0,0-2.09h-2.51L108,90.53a2.4,2.4,0,0,1,1.4-.44,2.45,2.45,0,0,1,2.45,2.21v.12h.92A1.53,1.53,0,0,1,114.26,94"/><path d="M50.79,94.22a1.85,1.85,0,1,1-1.85-1.85,1.85,1.85,0,0,1,1.85,1.85"/><path d="M53.55,88a1.81,1.81,0,0,1-.26.94,2,2,0,0,1-.46.54l-2.5,1.9a2,2,0,0,0-.41-.28V89.45a1,1,0,1,0-2.08,0v1.71a1.61,1.61,0,0,0-.3.21L45,89.47a2.23,2.23,0,0,1-.47-.54,1.92,1.92,0,0,1,.7-2.58,1.79,1.79,0,0,1,.94-.25,2.41,2.41,0,0,1,.53.07l.16,0v-.17a2.08,2.08,0,0,1,.61-1.41,2.1,2.1,0,0,1,1.43-.58,2,2,0,0,1,2,2v.17l.16,0a2.33,2.33,0,0,1,.53-.07,1.76,1.76,0,0,1,.93.25,1.87,1.87,0,0,1,1,1.64"/><path d="M42.73,95.25h2.64l-3.13,2.38a2.34,2.34,0,0,1-1.4.45,2.47,2.47,0,0,1-2.45-2.23v-.11h-.92a1.54,1.54,0,0,1,0-3.07h.92v-.13a2.46,2.46,0,0,1,2.45-2.21,2.4,2.4,0,0,1,1.4.44l3.13,2.39H42.73a1,1,0,0,0,0,2.09"/><path d="M53.55,100.44a1.87,1.87,0,0,1-.95,1.64,1.82,1.82,0,0,1-1.47.18l-.16,0v.16a2,2,0,0,1-.61,1.4,2,2,0,0,1-3.46-1.4v-.16l-.16,0a1.84,1.84,0,0,1-.53.08,1.91,1.91,0,0,1-.94-.26,1.91,1.91,0,0,1-.7-2.57A2,2,0,0,1,45,99l2.5-1.91a1.29,1.29,0,0,0,.3.22V99a1,1,0,1,0,2.08,0v-1.7a1.69,1.69,0,0,0,.41-.29L52.83,99a2,2,0,0,1,.72,1.48"/><path d="M61.94,94.21a1.53,1.53,0,0,1-1.53,1.54h-.92v.12a2.5,2.5,0,0,1-.79,1.58,2.46,2.46,0,0,1-3.07.19l-3.14-2.39H55a1,1,0,1,0,0-2.09H52.52l3.11-2.38a2.4,2.4,0,0,1,1.4-.44,2.46,2.46,0,0,1,2.45,2.21v.13h.92a1.53,1.53,0,0,1,1.53,1.53"/><path class="cls-1" d="M75,35.9a14.74,14.74,0,0,1,8.29,2.62c1.32.94,1.86,2.33,1.58,2.81l0,.08a15.27,15.27,0,0,0-19.64,0,.56.56,0,0,0,0-.08c-.28-.48.26-1.88,1.58-2.82A14.74,14.74,0,0,1,75,35.9h0m0-3.74h0a18.45,18.45,0,0,0-10.43,3.28c-2.63,1.86-4.16,5.22-2.68,7.78a13.93,13.93,0,0,0,3.7,3.84A4.78,4.78,0,0,1,67,44.77a11.85,11.85,0,0,1,8-3.18h0a11.8,11.8,0,0,1,8,3.18,4.71,4.71,0,0,1,1.44,2.29,14.21,14.21,0,0,0,3.69-3.85c1.48-2.56,0-5.92-2.69-7.77A18.32,18.32,0,0,0,75,32.16"/><path class="cls-1" d="M57.21,49.4a13.6,13.6,0,0,0,0,13.26c-2.13-1-3.66-3.59-3.66-6.64a8,8,0,0,1,1.82-5.2,5.57,5.57,0,0,1,1.83-1.42m1.93-4.19h0c-5.15,0-9.32,4.84-9.32,10.82S54,66.84,59.14,66.84h0A8.57,8.57,0,0,0,65,64.4c-3.32-.85-5.8-4.28-5.81-8.38s2.49-7.53,5.8-8.38a8.53,8.53,0,0,0-5.89-2.43"/><path class="cls-1" d="M84.81,70.62l0,.07c.28.49-.26,1.88-1.58,2.82a14.41,14.41,0,0,1-16.57,0c-1.32-.93-1.86-2.33-1.58-2.81a.43.43,0,0,1,0-.07,15.27,15.27,0,0,0,19.64,0M84.4,65A4.78,4.78,0,0,1,83,67.26a11.81,11.81,0,0,1-8,3.19h0a11.85,11.85,0,0,1-8-3.18A4.78,4.78,0,0,1,65.58,65a13.79,13.79,0,0,0-3.7,3.84c-1.48,2.57,0,5.92,2.69,7.77A18.33,18.33,0,0,0,75,79.88h0a18.38,18.38,0,0,0,10.43-3.29c2.64-1.86,4.17-5.21,2.68-7.78A13.79,13.79,0,0,0,84.4,65"/><path class="cls-1" d="M92.75,49.37c2.14,1,3.66,3.59,3.66,6.64s-1.52,5.64-3.65,6.64a13.57,13.57,0,0,0,0-13.28m-1.92-4.18h0a8.53,8.53,0,0,0-5.9,2.45c3.32.84,5.81,4.27,5.81,8.37s-2.48,7.53-5.8,8.38a8.57,8.57,0,0,0,5.9,2.44h0c5.15,0,9.32-4.85,9.32-10.82S96,45.19,90.83,45.19"/><path class="cls-1" d="M48.94,73.87a14.7,14.7,0,0,1,8.28,2.61c1.32.94,1.86,2.33,1.58,2.82l0,.07a15.27,15.27,0,0,0-19.64,0l0-.07c-.28-.49.26-1.88,1.58-2.82a14.71,14.71,0,0,1,8.28-2.62h0m0-3.75h0a18.35,18.35,0,0,0-10.42,3.29c-2.64,1.86-4.17,5.21-2.68,7.78A13.94,13.94,0,0,0,39.53,85,4.74,4.74,0,0,1,41,82.74a11.81,11.81,0,0,1,8-3.19h0a11.85,11.85,0,0,1,8,3.18A4.78,4.78,0,0,1,58.35,85a13.79,13.79,0,0,0,3.7-3.84c1.48-2.57,0-5.92-2.69-7.78a18.44,18.44,0,0,0-10.42-3.28"/><path class="cls-1" d="M31.17,87.35A13.4,13.4,0,0,0,29.44,94a13.24,13.24,0,0,0,1.74,6.63C29,99.63,27.52,97,27.51,94s1.53-5.64,3.66-6.64m1.92-4.18c-5.15,0-9.33,4.85-9.32,10.82s4.17,10.81,9.32,10.81h0A8.5,8.5,0,0,0,39,102.36c-3.31-.84-5.8-4.27-5.8-8.37s2.48-7.53,5.8-8.38a8.52,8.52,0,0,0-5.9-2.44"/><path class="cls-1" d="M58.77,108.58a.59.59,0,0,0,0,.08c.28.48-.26,1.88-1.57,2.81a14.4,14.4,0,0,1-16.58,0c-1.32-.94-1.86-2.33-1.58-2.81a.35.35,0,0,1,.05-.08,15.27,15.27,0,0,0,19.64,0m-.41-5.64a4.73,4.73,0,0,1-1.44,2.29,11.81,11.81,0,0,1-8,3.18h0a11.8,11.8,0,0,1-8-3.18,4.64,4.64,0,0,1-1.44-2.29,14.05,14.05,0,0,0-3.69,3.85c-1.49,2.56,0,5.91,2.68,7.77a18.18,18.18,0,0,0,20.85,0c2.64-1.85,4.17-5.21,2.69-7.77a13.93,13.93,0,0,0-3.7-3.84"/><path class="cls-1" d="M66.71,87.34c2.13,1,3.66,3.59,3.66,6.63s-1.53,5.65-3.66,6.64a13.59,13.59,0,0,0,0-13.27m-1.92-4.18h0a8.57,8.57,0,0,0-5.9,2.44c3.32.85,5.8,4.28,5.8,8.38s-2.48,7.53-5.8,8.38a8.58,8.58,0,0,0,5.91,2.43c5.15,0,9.32-4.84,9.32-10.82s-4.18-10.81-9.33-10.81"/><path class="cls-1" d="M101.06,73.85a14.72,14.72,0,0,1,8.28,2.61c1.32.94,1.86,2.33,1.58,2.82l0,.07a15.27,15.27,0,0,0-19.64,0l0-.07c-.28-.49.26-1.88,1.58-2.82a14.68,14.68,0,0,1,8.28-2.62h0m0-3.75h0a18.33,18.33,0,0,0-10.42,3.29c-2.64,1.86-4.17,5.21-2.69,7.78A13.93,13.93,0,0,0,91.64,85a4.68,4.68,0,0,1,1.44-2.29,11.58,11.58,0,0,1,16,0A4.73,4.73,0,0,1,110.47,85a13.8,13.8,0,0,0,3.69-3.84c1.49-2.56,0-5.92-2.68-7.78a18.44,18.44,0,0,0-10.42-3.28"/><path class="cls-1" d="M83.28,87.34a13.62,13.62,0,0,0,0,13.27c-2.13-1-3.66-3.6-3.66-6.64a8,8,0,0,1,1.82-5.2,5.6,5.6,0,0,1,1.83-1.43m1.93-4.19c-5.16,0-9.33,4.85-9.33,10.82s4.18,10.82,9.33,10.82h0a8.58,8.58,0,0,0,5.9-2.45c-3.32-.84-5.8-4.27-5.8-8.37s2.48-7.53,5.8-8.38a8.59,8.59,0,0,0-5.9-2.44"/><path class="cls-1" d="M110.88,108.56l.05.08c.28.49-.26,1.88-1.58,2.82a14.41,14.41,0,0,1-16.57,0c-1.32-.94-1.86-2.33-1.58-2.81,0,0,0-.05,0-.08a15.27,15.27,0,0,0,19.64,0m-.4-5.64a4.8,4.8,0,0,1-1.44,2.29,11.8,11.8,0,0,1-8,3.18h0a11.78,11.78,0,0,1-8-3.18,4.71,4.71,0,0,1-1.43-2.28,13.79,13.79,0,0,0-3.7,3.84c-1.48,2.56,0,5.92,2.69,7.77a18.37,18.37,0,0,0,10.42,3.28h0a18.44,18.44,0,0,0,10.42-3.28c2.64-1.86,4.17-5.22,2.68-7.78a14,14,0,0,0-3.69-3.84"/><path class="cls-1" d="M75,32.16a18.43,18.43,0,0,1,10.4,3.26,7,7,0,0,1,3.27,5.9l-.22,3.49,3.46.46c4.71.63,8.27,5.24,8.27,10.74a11.53,11.53,0,0,1-2.94,7.85l-6.15,6.73,9.1-.45h.23c.22,0,.43,0,.65,0a18.44,18.44,0,0,1,10.4,3.27,7,7,0,0,1,3.27,5.9l-.22,3.49,3.46.46c4.72.63,8.27,5.24,8.27,10.73a11.62,11.62,0,0,1-2.73,7.65,8.69,8.69,0,0,1-5.51,3.09l-3.49.46.23,3.5a7,7,0,0,1-3.22,5.87,18.21,18.21,0,0,1-20.85,0,7.05,7.05,0,0,1-3.26-5.9l.22-3.49-3.47-.46a9,9,0,0,1-6.1-3.85l-3-4.24-3,4.24a9,9,0,0,1-6.1,3.85l-3.47.46.22,3.5a7,7,0,0,1-3.21,5.87,18.21,18.21,0,0,1-20.85,0,7,7,0,0,1-3.27-5.9l.22-3.5L32,104.72c-4.71-.62-8.26-5.23-8.26-10.73S27.32,83.88,32,83.25l3.47-.46-.23-3.5a7,7,0,0,1,3.22-5.86,18.53,18.53,0,0,1,10.44-3.31l.65,0,.23,0,9.1.44-6.15-6.72A11.55,11.55,0,0,1,49.81,56a11.67,11.67,0,0,1,2.73-7.64,8.75,8.75,0,0,1,5.52-3.1l3.48-.45-.23-3.5a7,7,0,0,1,3.22-5.87A18.52,18.52,0,0,1,75,32.16m0-3.75a22.23,22.23,0,0,0-12.59,4,10.7,10.7,0,0,0-4.82,9.19,12.48,12.48,0,0,0-7.87,4.36A15.75,15.75,0,0,0,50,66.41c-.35,0-.7,0-1.06,0a22.27,22.27,0,0,0-12.58,4,10.7,10.7,0,0,0-4.82,9.19C25.05,80.4,20,86.55,20,94s5,13.59,11.52,14.45a10.73,10.73,0,0,0,4.87,9.22A22.22,22.22,0,0,0,49,121.59h0a22.2,22.2,0,0,0,12.58-4,10.66,10.66,0,0,0,4.82-9.19A12.83,12.83,0,0,0,75,103.05a12.82,12.82,0,0,0,8.66,5.37,10.73,10.73,0,0,0,4.87,9.22,22.19,22.19,0,0,0,12.53,3.93h0a22.2,22.2,0,0,0,12.58-4,10.68,10.68,0,0,0,4.82-9.19,12.48,12.48,0,0,0,7.87-4.36A15.41,15.41,0,0,0,130,94c0-7.44-5-13.58-11.52-14.45a10.73,10.73,0,0,0-4.87-9.21,22.15,22.15,0,0,0-12.54-3.94c-.36,0-.71,0-1.06,0A15.35,15.35,0,0,0,103.91,56c0-7.44-5-13.58-11.52-14.44a10.76,10.76,0,0,0-4.87-9.22A22.22,22.22,0,0,0,75,28.41"/><path class="cls-1" d="M118.82,87.32c2.14,1,3.66,3.59,3.67,6.64a7.92,7.92,0,0,1-1.83,5.2,5.64,5.64,0,0,1-1.82,1.42,13.57,13.57,0,0,0,0-13.26m-1.91-4.18h0A8.54,8.54,0,0,0,111,85.58c3.31.85,5.8,4.28,5.8,8.38s-2.48,7.53-5.8,8.38a8.56,8.56,0,0,0,5.9,2.43h0c5.15,0,9.33-4.84,9.32-10.82s-4.17-10.81-9.32-10.81"/></svg>