<svg id="Symbols" xmlns="http://www.w3.org/2000/svg" viewBox="0 0 150 150"><path d="M85.58,82.74A2.46,2.46,0,1,0,88,80.28,2.47,2.47,0,0,0,85.58,82.74Z"/><path d="M78.22,116.06c1.31.21,2.63-1,3.54-3.48a10.29,10.29,0,0,0,.47-1.93v0A80.42,80.42,0,0,1,89.5,85.89a3.58,3.58,0,0,1-1.46.32,3.4,3.4,0,0,1-.45,0,81.94,81.94,0,0,0-7,24.24,6.91,6.91,0,0,1-1.26,3.25,1.4,1.4,0,0,0-1.08-.5,1.43,1.43,0,0,0-1.43,1.43A1.48,1.48,0,0,0,78.22,116.06Z"/><path d="M88,64.79a2.47,2.47,0,1,0,2.46,2.47A2.47,2.47,0,0,0,88,64.79Z"/><path d="M82.23,39.35a10.29,10.29,0,0,0-.47-1.93c-.91-2.53-2.23-3.69-3.54-3.48a1.48,1.48,0,0,0-1.35,1.46,1.43,1.43,0,0,0,1.43,1.43,1.4,1.4,0,0,0,1.08-.5,6.91,6.91,0,0,1,1.26,3.25,81.94,81.94,0,0,0,7,24.24,3.4,3.4,0,0,1,.45,0,3.58,3.58,0,0,1,1.46.32,80.42,80.42,0,0,1-7.27-24.74Z"/><path d="M122.19,52.73a9.57,9.57,0,0,0,.42-2.79,9.34,9.34,0,0,0-5.77-8.64,6,6,0,0,0-1-.38,9.53,9.53,0,0,0-9.46-8.53h-.18a11,11,0,0,0-13.62-6.8,13.27,13.27,0,0,0-8.24-4.86,12.88,12.88,0,0,0-2.22-.19,13.54,13.54,0,0,0-3.72.53,24.81,24.81,0,0,1,4.36,12.59,79.93,79.93,0,0,0,1.19,10s.13.69.24,1.23c.19.95.39,1.89.61,2.83,0,0,.08.38.32,1.28A79.28,79.28,0,0,0,92.5,67.72c.62-.13,1.25-.24,1.89-.32s1.06-.11,1.06-.11c.52,0,1-.07,1.59-.08h1.07c.58,0,1.16,0,1.73.11a9.42,9.42,0,0,1,1.09.13c.66.1,1.31.22,1.95.37a4.78,4.78,0,0,1,1.07.27c.67.19,1.32.41,2,.65s1,.42,1,.42a25.23,25.23,0,0,1,2.38,1.2,2.22,2.22,0,0,0,.63.07,3.39,3.39,0,0,0,.38,0,17.36,17.36,0,0,1,7.52-1.71h.54c.94,0,.93,0,.93,0,.63.06,1.24.14,1.85.26a5.68,5.68,0,0,1,1,.22,17.11,17.11,0,0,1,2.35.8,6.18,6.18,0,0,1,.91.41,17.33,17.33,0,0,1,4.07,2.8,8.18,8.18,0,0,0,.35-2.39,7.89,7.89,0,0,0-3-6.2,8.53,8.53,0,0,0-4.69-11.94Zm-2.36,8c-.56-.05-1-.05-1.41-.05h-.55a25.08,25.08,0,0,0-7.63,1.17l0,0c-.26-.11-.81-.35-1.51-.61s-1.46-.52-2.21-.74A14.33,14.33,0,0,0,104.6,60c-.8-.19-1.62-.34-2.45-.46s-1.3-.18-1.66-.21c-.71-.06-1.43-.11-2.14-.13H97.16A71.57,71.57,0,0,1,92.82,47c-.15-.55-.22-.84-.23-.89s0-.14,0-.21c-.2-.83-.39-1.69-.56-2.57-.1-.46-.21-1.07-.21-1.09a71.06,71.06,0,0,1-1.06-8.82,8.46,8.46,0,0,0,1.82.21,8.06,8.06,0,0,0,2.32-.35,3.14,3.14,0,0,1,.91-.14,3.07,3.07,0,0,1,2.87,2,8,8,0,0,0,7.55,5.26h.15a1.47,1.47,0,0,1,.58.12,1.5,1.5,0,0,1,.92,1.25,8,8,0,0,0,5.73,6.84l.21.09a1.35,1.35,0,0,1,.83,1.25,1.34,1.34,0,0,1-.06.4,8,8,0,0,0,4.93,9.92.51.51,0,0,1,.35.49Z"/><path d="M129.84,79.13a8.18,8.18,0,0,0-.35-2.39,17.33,17.33,0,0,1-4.07,2.8,6.18,6.18,0,0,1-.91.41,17.11,17.11,0,0,1-2.35.8,5.68,5.68,0,0,1-1,.22c-.61.12-1.22.2-1.85.26,0,0,0,0-.93,0h-.54a17.36,17.36,0,0,1-7.52-1.71,3.39,3.39,0,0,0-.38,0,2.65,2.65,0,0,0-.63.07,25.23,25.23,0,0,1-2.38,1.2s-.44.2-1,.42-1.3.46-2,.65a4.78,4.78,0,0,1-1.07.27c-.64.15-1.29.27-1.95.37a9.42,9.42,0,0,1-1.09.13c-.57.06-1.15.1-1.73.11H97c-.54,0-1.07,0-1.59-.08,0,0-.44,0-1.06-.11s-1.27-.19-1.89-.32A79.28,79.28,0,0,0,85.08,101c-.24.91-.32,1.28-.32,1.28-.22.94-.42,1.88-.61,2.84-.11.53-.24,1.22-.24,1.22a79.93,79.93,0,0,0-1.19,10,24.81,24.81,0,0,1-4.36,12.59,13.54,13.54,0,0,0,3.72.53,12.88,12.88,0,0,0,2.22-.19,13.27,13.27,0,0,0,8.24-4.86,11.05,11.05,0,0,0,13.62-6.8h.18a9.35,9.35,0,0,0,3.64-.73,9.49,9.49,0,0,0,5.82-7.8,6,6,0,0,0,1-.38,9.34,9.34,0,0,0,5.77-8.64,9.57,9.57,0,0,0-.42-2.79,8.53,8.53,0,0,0,4.69-11.94A7.89,7.89,0,0,0,129.84,79.13Zm-10,10.12a.51.51,0,0,1-.35.49,8,8,0,0,0-4.93,9.92,1.34,1.34,0,0,1,.06.4,1.35,1.35,0,0,1-.83,1.25l-.21.09a8,8,0,0,0-5.73,6.84,1.52,1.52,0,0,1-1.52,1.37h-.16a8,8,0,0,0-7.52,5.26,3,3,0,0,1-1.42,1.65,3,3,0,0,1-1.45.38,3.14,3.14,0,0,1-.91-.14,8.06,8.06,0,0,0-2.32-.35,7.88,7.88,0,0,0-1.82.22,72.31,72.31,0,0,1,1.06-8.84s.11-.62.21-1.1c.17-.86.36-1.72.56-2.55a1.36,1.36,0,0,1,0-.17c0-.08.08-.38.24-1a71.37,71.37,0,0,1,4.33-12.2h1.18c.72,0,1.44-.07,2.15-.13.36,0,.92-.09,1.66-.21s1.65-.27,2.45-.46a12.92,12.92,0,0,0,1.89-.49c.75-.22,1.49-.47,2.21-.74s1.25-.5,1.51-.61l0,0a25.08,25.08,0,0,0,7.63,1.17h.55c.36,0,.85,0,1.41,0Z"/><path d="M110.86,71.34a1.82,1.82,0,0,1-1.11.28l-.34,0h0a22.9,22.9,0,0,0-12-3.35,22.25,22.25,0,0,0-2.73.16l-1.08.15c-.72.12-1.43.28-2.12.46a1.37,1.37,0,0,0-.87.52,3.46,3.46,0,0,1-6-1.44,7.74,7.74,0,0,0,0,13.8,3.46,3.46,0,0,1,6-1.44,3,3,0,0,0,.87.52c.69.18,1.4.34,2.12.46a6.59,6.59,0,0,0,1.08.15,22.25,22.25,0,0,0,2.73.16,23,23,0,0,0,12.33-3.58h0a4,4,0,0,1,1.08.49c.51.24,1,.46,1.58.66a7.87,7.87,0,0,0,1.56.46,16,16,0,0,0,3.87.47A16.13,16.13,0,0,0,129.8,75a16.13,16.13,0,0,0-11.93-5.25,16,16,0,0,0-3.87.47,7.55,7.55,0,0,0-1.56.46h0C111.9,70.88,111.37,71.1,110.86,71.34ZM97.44,77.75a18.79,18.79,0,0,1-2.26-.13H95.1l-.39,0c-.1,0-.12-.06-.16-.06h0l-.24,0c-.39-.06-.78-.14-1.18-.24a7.49,7.49,0,0,0-8.49-1.14,3.93,3.93,0,0,1,0-2.22,7.49,7.49,0,0,0,8.49-1.14c.37-.09.76-.17,1.14-.23l1-.14a18.13,18.13,0,0,1,2.22-.13A19,19,0,0,1,107.29,75,19,19,0,0,1,97.44,77.75Zm15.33-2.89c.31-.14.61-.26.92-.38a2.74,2.74,0,0,0,.4-.15,5,5,0,0,1,.74-.2l.12,0a12.41,12.41,0,0,1,2.92-.35A12.27,12.27,0,0,1,123.24,75a12.27,12.27,0,0,1-5.37,1.25A12.41,12.41,0,0,1,115,75.9l-.12,0a4.79,4.79,0,0,1-.78-.22l-.27-.1a10,10,0,0,1-1-.42l-.24-.13A2.8,2.8,0,0,0,112.77,74.86Z"/><path d="M64.42,67.26A2.46,2.46,0,1,0,62,69.72,2.47,2.47,0,0,0,64.42,67.26Z"/><path d="M71.78,33.94c-1.31-.21-2.63,1-3.54,3.48a10.29,10.29,0,0,0-.47,1.93v0A80.42,80.42,0,0,1,60.5,64.11,3.58,3.58,0,0,1,62,63.79a3.4,3.4,0,0,1,.45,0,81.94,81.94,0,0,0,7-24.24,6.91,6.91,0,0,1,1.26-3.25,1.4,1.4,0,0,0,1.08.5,1.43,1.43,0,0,0,1.43-1.43A1.48,1.48,0,0,0,71.78,33.94Z"/><path d="M62,85.21a2.47,2.47,0,1,0-2.46-2.47A2.47,2.47,0,0,0,62,85.21Z"/><path d="M67.77,110.65a10.29,10.29,0,0,0,.47,1.93c.91,2.53,2.23,3.69,3.54,3.48a1.48,1.48,0,0,0,1.35-1.46,1.43,1.43,0,0,0-1.43-1.43,1.4,1.4,0,0,0-1.08.5,6.91,6.91,0,0,1-1.26-3.25,81.94,81.94,0,0,0-7-24.24,3.4,3.4,0,0,1-.45,0,3.58,3.58,0,0,1-1.46-.32,80.42,80.42,0,0,1,7.27,24.74Z"/><path d="M23.12,85.33a8.53,8.53,0,0,0,4.69,11.94,9.57,9.57,0,0,0-.42,2.79,9.34,9.34,0,0,0,5.77,8.64,6,6,0,0,0,1,.38,9.53,9.53,0,0,0,9.46,8.53h.18a11.06,11.06,0,0,0,13.62,6.8,13.27,13.27,0,0,0,8.24,4.86,12.88,12.88,0,0,0,2.22.19,13.54,13.54,0,0,0,3.72-.53,24.81,24.81,0,0,1-4.36-12.59,79.93,79.93,0,0,0-1.19-10s-.13-.69-.24-1.23c-.19-1-.39-1.89-.61-2.83,0,0-.08-.38-.32-1.28A79.28,79.28,0,0,0,57.5,82.28c-.62.13-1.25.24-1.89.32s-1.06.11-1.06.11c-.52,0-1,.07-1.59.08H51.89c-.58,0-1.16,0-1.73-.11a9.42,9.42,0,0,1-1.09-.13c-.66-.1-1.31-.22-2-.37a4,4,0,0,1-1.07-.28c-.67-.18-1.32-.4-2-.64s-1-.42-1-.42a25.23,25.23,0,0,1-2.38-1.2,2.22,2.22,0,0,0-.63-.07,3.39,3.39,0,0,0-.38,0,17.36,17.36,0,0,1-7.52,1.71h-.54c-.94,0-.93,0-.93,0-.63-.06-1.24-.14-1.85-.26a5.68,5.68,0,0,1-1-.22,17.11,17.11,0,0,1-2.35-.8,6.18,6.18,0,0,1-.91-.41,17.33,17.33,0,0,1-4.07-2.8,8.18,8.18,0,0,0-.35,2.39A7.89,7.89,0,0,0,23.12,85.33Zm7.05,3.9c.56,0,1,0,1.41,0h.55a25.08,25.08,0,0,0,7.63-1.17l0,0c.26.11.81.35,1.51.61s1.46.52,2.21.74A14.33,14.33,0,0,0,45.4,90c.8.19,1.62.34,2.45.46s1.3.18,1.66.21c.71.06,1.43.11,2.14.13h1.19A71.57,71.57,0,0,1,57.18,103c.15.55.22.84.23.89s0,.14,0,.21c.2.83.39,1.69.56,2.57.1.46.21,1.07.21,1.09a71.06,71.06,0,0,1,1.06,8.82,8.46,8.46,0,0,0-1.82-.21,8.06,8.06,0,0,0-2.32.35,3.13,3.13,0,0,1-.91.13,3,3,0,0,1-2.87-2,8,8,0,0,0-7.55-5.26h-.15a1.47,1.47,0,0,1-.58-.12,1.5,1.5,0,0,1-.92-1.25,8,8,0,0,0-5.73-6.84,1,1,0,0,0-.21-.09,1.35,1.35,0,0,1-.83-1.25,1.34,1.34,0,0,1,.06-.4,8,8,0,0,0-4.93-9.92.51.51,0,0,1-.35-.49Z"/><path d="M20.16,70.87a8.18,8.18,0,0,0,.35,2.39,17.33,17.33,0,0,1,4.07-2.8,6.18,6.18,0,0,1,.91-.41,17.11,17.11,0,0,1,2.35-.8,5.68,5.68,0,0,1,1-.22c.61-.12,1.22-.2,1.85-.26,0,0,0,0,.93,0h.54a17.36,17.36,0,0,1,7.52,1.71,3.39,3.39,0,0,0,.38,0,2.65,2.65,0,0,0,.63-.07A25.23,25.23,0,0,1,43,69.17s.44-.2,1-.42,1.3-.46,2-.65a4.78,4.78,0,0,1,1.07-.27c.64-.15,1.29-.27,2-.37a9.42,9.42,0,0,1,1.09-.13c.57-.06,1.15-.1,1.73-.11H53c.54,0,1.07,0,1.59.08,0,0,.44,0,1.06.11s1.27.19,1.89.32A79.28,79.28,0,0,0,64.92,49c.24-.91.32-1.28.32-1.28.22-.94.42-1.88.61-2.84.11-.53.24-1.22.24-1.22a79.93,79.93,0,0,0,1.19-10,24.81,24.81,0,0,1,4.36-12.59,13.54,13.54,0,0,0-3.72-.53,12.88,12.88,0,0,0-2.22.19,13.27,13.27,0,0,0-8.24,4.86,11.05,11.05,0,0,0-13.62,6.8h-.18a9.35,9.35,0,0,0-3.64.73,9.49,9.49,0,0,0-5.82,7.8,6,6,0,0,0-1,.38,9.34,9.34,0,0,0-5.77,8.64,9.57,9.57,0,0,0,.42,2.79,8.53,8.53,0,0,0-4.69,11.94A7.89,7.89,0,0,0,20.16,70.87Zm10-10.12a.51.51,0,0,1,.35-.49,8,8,0,0,0,4.93-9.92,1.34,1.34,0,0,1-.06-.4,1.35,1.35,0,0,1,.83-1.25l.21-.09a8,8,0,0,0,5.73-6.84,1.52,1.52,0,0,1,1.52-1.37h.16a8,8,0,0,0,7.52-5.26,3,3,0,0,1,1.42-1.65,3,3,0,0,1,1.45-.38,3.14,3.14,0,0,1,.91.14,8.06,8.06,0,0,0,2.32.35,7.88,7.88,0,0,0,1.82-.22,72.31,72.31,0,0,1-1.06,8.84s-.11.62-.21,1.1c-.17.86-.36,1.72-.56,2.55a1.36,1.36,0,0,1,0,.17c0,.08-.08.38-.24,1a71.37,71.37,0,0,1-4.33,12.2H51.66c-.72,0-1.44.07-2.15.13-.36,0-.92.09-1.66.21s-1.65.27-2.45.46a12.92,12.92,0,0,0-1.89.49c-.75.22-1.49.47-2.21.74s-1.25.5-1.51.61l0,0a25.08,25.08,0,0,0-7.63-1.17h-.55c-.36,0-.85,0-1.41.05Z"/><path d="M39.14,78.66a1.82,1.82,0,0,1,1.11-.28l.34,0h0a22.9,22.9,0,0,0,12,3.35,22.25,22.25,0,0,0,2.73-.16l1.08-.15c.72-.12,1.43-.28,2.12-.46a1.37,1.37,0,0,0,.87-.52,3.46,3.46,0,0,1,6,1.44,7.74,7.74,0,0,0,0-13.8,3.46,3.46,0,0,1-6,1.44,3,3,0,0,0-.87-.52,21,21,0,0,0-2.12-.46,6.59,6.59,0,0,0-1.08-.15,22.25,22.25,0,0,0-2.73-.16,23,23,0,0,0-12.33,3.58h0a4,4,0,0,1-1.08-.49c-.51-.24-1-.46-1.58-.66A7.87,7.87,0,0,0,36,70.22a16,16,0,0,0-3.87-.47A16.13,16.13,0,0,0,20.2,75a16.13,16.13,0,0,0,11.93,5.25A16,16,0,0,0,36,79.78a7.55,7.55,0,0,0,1.56-.46h0C38.1,79.12,38.63,78.9,39.14,78.66Zm13.42-6.41a18.79,18.79,0,0,1,2.26.13h.08l.39,0c.1,0,.12.06.16.06h0l.24,0c.39.06.78.14,1.18.24a7.49,7.49,0,0,0,8.49,1.14,3.93,3.93,0,0,1,0,2.22,7.49,7.49,0,0,0-8.49,1.14c-.37.09-.76.17-1.14.23l-1,.14a18.13,18.13,0,0,1-2.22.13A19,19,0,0,1,42.71,75,19,19,0,0,1,52.56,72.25ZM37.23,75.14c-.31.14-.62.26-.93.38a3.12,3.12,0,0,0-.39.15,5,5,0,0,1-.74.2l-.12,0a12.41,12.41,0,0,1-2.92.35A12.27,12.27,0,0,1,26.76,75a12.27,12.27,0,0,1,5.37-1.25,12.41,12.41,0,0,1,2.92.35l.12,0a4.79,4.79,0,0,1,.78.22l.27.1a10,10,0,0,1,1,.42l.24.13A2.8,2.8,0,0,0,37.23,75.14Z"/></svg>