<svg id="Livello_3" data-name="Livello 3" xmlns="http://www.w3.org/2000/svg" viewBox="0 0 120 120"><defs><style>.cls-1{fill:none;stroke:#211f1f;stroke-linecap:round;stroke-linejoin:round;stroke-width:4px;}</style></defs><g id="Ammit-Bold"><path class="cls-1" d="M56.57,18a10.47,10.47,0,0,1,11.55,1.54c-2.31,3.66-4.05,3.41-8.66,5,0,0-4.43,12.53-13.09,19.26-1.34-4.23-1.92-6.34-1.92-6.34s-34-4.17-34.73-5.13c-1.15-1.35.35-4,1.25-9.69l4.62-.77,27.13-4.93S50.8,15.13,55.61,18"/><path class="cls-1" d="M47.45,16.37s11.62-4.92,19.87-4.32c14.78,1.08,28.77,9.25,33.39,49.33,0,0-19.54-16.41-33.39-10.21-11.82,5.3-12.58,13.9-9.95,30.43,0,0-23.32-20.45-11-37.81"/><path class="cls-1" d="M100.71,61.38l8,9.38v39l-26.64-.34s-5.46-13.11-6.93-16.74"/><path class="cls-1" d="M74,72s4.4,7.94,8.12,8.27c-3.56,5.62-18.57,29.1-18.57,29.1H49.29L57.37,81.6"/><polyline class="cls-1" points="49.63 72.84 40.38 109.38 49.29 109.38"/><path class="cls-1" d="M9.91,27.73s6.12,3,10.42,0c4.3,1.94,6.09,3.43,11.14,2.35"/><path class="cls-1" d="M38.71,24.05a11.47,11.47,0,0,1,10.58-1.32"/><line class="cls-1" x1="108.74" y1="70.76" x2="82.1" y2="109.38"/></g></svg>