<svg id="Livello_3" data-name="Livello 3" xmlns="http://www.w3.org/2000/svg" viewBox="0 0 120 120"><defs><style>.cls-1{fill:none;stroke:#211f1f;stroke-linecap:round;stroke-linejoin:round;stroke-width:4px;}</style></defs><g id="Amun-Bold"><path class="cls-1" d="M50.24,46.23h0L72.12,16.3A18.32,18.32,0,0,1,75.3,13c1.51-1.27,4.14-.88,5.84-.07s2.17,2.94.19,6L65,46.23"/><path class="cls-1" d="M66.42,46.16l15.14-23.9s1.87-3.09,4.67-7.27c2.08-3.08,10.75-2.78,8.65,3.53-.18.52-5.28,11.09-7.1,15.4-5.35,12-5.11,12.31-5.11,12.31"/><path class="cls-1" d="M75.82,75.48l6.85-29.25c-10.55-.15-32.43,0-32.43,0s.71,4.84,1.46,8.51a37.92,37.92,0,0,1,8.54.23A7,7,0,0,1,65,57.7s1.83.12,3,0c1.5-2.17,2.61-2.57,3.11-2.11,1.37,1.25-.5,6.15-.5,7.92.93.14,1.15.46,2.08.61q2.73,11.43,3.12,11.35s0,0,0,0l1.81,12.78s-.89,5.55-9.85,5.55c-6.76,0-8.93-4.49-8.93-4.49l-2-11.38H50.67a6.7,6.7,0,0,0,0-4.12,21.75,21.75,0,0,1-1.12-2.47,4.08,4.08,0,0,1-.09-.69,3.27,3.27,0,0,0-2.75-3.2h0c-.66-.08-.92-1-.6-1.63.62-1.1,1.22-2.23,1.83-3.38.83-1.57,2.8-3.46,3.82-7.71"/><path class="cls-1" d="M50.81,77.63l-2,6a5.49,5.49,0,0,1-2.56,3.11c-1.18.65-2.64,1-3.76-.36"/><polyline class="cls-1" points="81.37 52.74 85.49 55.94 85.49 90.63"/><path class="cls-1" d="M56.59,77.93c3.43-.66,5.69-1.86,7.17-6.38"/><path class="cls-1" d="M67.58,66.19s1.85,1.39,3-3.92"/><path class="cls-1" d="M55,60.59a7.55,7.55,0,0,1,3.06-.38,7.67,7.67,0,0,1,3.9,1.5"/><path class="cls-1" d="M12.25,79.49a35.4,35.4,0,0,1,5.51,2.18v29.24H41.87l3-5.82,3,5.82,23.79,0"/><path class="cls-1" d="M16.7,73.77S11,79.14,10.16,85.22"/><polyline class="cls-1" points="108.97 110.91 95.9 110.91 92.87 105.08 89.86 110.91 66.07 110.87"/><path class="cls-1" d="M58.85,89.32,34.48,93.8s-6.32,2.67-6.24,7.77c.09,5.8,0,9.34,0,9.34"/><path class="cls-1" d="M78.36,89.32l24.37,4.48s6.32,2.67,6.24,7.77c-.09,5.8,0,9.34,0,9.34"/><path class="cls-1" d="M47.4,91.59s1.66,16.41,22.91,14.9c0,0,18.74,1.51,20.37-14.9"/></g></svg>