<svg id="Livello_3" data-name="Livello 3" xmlns="http://www.w3.org/2000/svg" viewBox="0 0 120 120"><defs><style>.cls-1,.cls-2{fill:none;stroke:#211f1f;stroke-width:4px;}.cls-1{stroke-miterlimit:10;}.cls-2{stroke-linecap:round;stroke-linejoin:round;}</style></defs><g id="Amunet-Bold"><path class="cls-1" d="M57.2,36.75S43.64,32.6,42.39,20.37c-.28-2.73,0-5.81,4-6.29a3,3,0,0,1,3.33,3.79c-.53,1.13-2.81,2-3.55,0"/><path class="cls-1" d="M77.18,71.58l1.29,16.75s.18,4.63-7.65,6a18,18,0,0,1-4,.13,40.19,40.19,0,0,1-4.73-.76c-2.76-.62-3.85-1.3-4-4.13l-1-6.69A1.14,1.14,0,0,0,55.66,82a34.25,34.25,0,0,1-4.86.93c-4.13.49-4.91-.17-5.2-.56-.44-.58-.69-1-.13-2.23s.61-1.68-.57-2.93c-.51-.53-.51-.53-.52-1.82a33.56,33.56,0,0,1,.09-4.12c.09-1.08-2.57,0-2.93-.84-.46-1.06,2.34-7.62,5.43-13a5.06,5.06,0,0,0,.63-3L60,54.47c4.6,1.29,4.62,3.77,4.62,3.77h2.66s1.18-4,3.28-4.11,1.09,6.54,1.09,6.54a4.11,4.11,0,0,1,4,3.35,52.7,52.7,0,0,0,1.52,7.56L92.83,14.89a1.1,1.1,0,0,0-2-.76L90,15.81A37.28,37.28,0,0,1,55.7,36.76h-.43a55.57,55.57,0,0,1-11.45-1A.8.8,0,0,0,43,36.91c2.6,4.67,4.52,13.31,4.65,17.48"/><path class="cls-1" d="M71.62,60.67l-1,3.66a8.2,8.2,0,0,1-1.1,2.51c-.64,1-1.55,1.76-2.31.39"/><path class="cls-1" d="M50.84,63s5.46-3.51,10.5-.55"/><path class="cls-1" d="M58.64,91.88l-27,7.84s-6.43,2-7.54,5,0,8.78,0,8.78h86.56v-4.15a13.27,13.27,0,0,0-2.38-7.72,6.29,6.29,0,0,0-2.78-2.41c-3-1-27-10.89-27-10.89"/><path class="cls-1" d="M40.45,97.15s3,11.37,27,11.4c29.12,0,29.12-13,29.12-13"/><path class="cls-2" d="M12.62,82.83a9.47,9.47,0,0,1,4.21,2.63v28h7.24"/><path class="cls-2" d="M16.53,77.66s-5.28,5.17-6,11"/><line class="cls-1" x1="40.65" y1="113.48" x2="35.16" y2="97.43"/><line class="cls-1" x1="33.59" y1="99.14" x2="33.59" y2="113.48"/><line class="cls-1" x1="100.8" y1="113.48" x2="102.66" y2="98.15"/><polyline class="cls-1" points="100.84 97.43 92.88 113.48 93.22 113.48"/></g></svg>