<svg id="Livello_3" data-name="Livello 3" xmlns="http://www.w3.org/2000/svg" viewBox="0 0 120 120"><defs><style>.cls-1,.cls-2{fill:none;stroke:#211f1f;stroke-width:4px;}.cls-1{stroke-miterlimit:10;}.cls-2{stroke-linecap:round;stroke-linejoin:round;}</style></defs><g id="Anubis-Bold"><path class="cls-1" d="M65,69.06c0,21.11-.13,24.72-.13,24.72h9.44s-.11-12-.17-22.36c0-6.83,4.25-8.15,4.25-8.15l11.43,4.55,4.25.72c4.24.72,5.89,7.67,5.89,7.67l-.12,17.57H107V82.21a35.07,35.07,0,0,0-2.64-13.55c-8.47-20.18-20-27.47-29.81-30"/><path class="cls-1" d="M64.55,39.61c.77-5.88-2.67-21.89-3.47-26.27a.22.22,0,0,0-.44,0l-5.76,25s.45.51,1.15,1.19a25.18,25.18,0,0,0-11.66,5.65L22.75,47.41a23.4,23.4,0,0,0,1.5,4.28c1.12,2.51,3.72,2.75,7.65,3.24,14,2.18,16.91.34,20,6.5l4.57,9.14a68.83,68.83,0,0,0,8.56.05c-.36-6.14.13-12.72-2-15.71,0,0,7.43-2.48,6.49-8.24l2.93-.83s2.35,0,2-9.37S72,19.86,70.59,13.25a.52.52,0,0,0-1,0l-5,26.34Z"/><path class="cls-1" d="M51.89,61.43s-7.23,7.88-7.13,13.64,0,18.71,0,18.71h11.7V70.57"/><path class="cls-1" d="M50.61,46.78a20.9,20.9,0,0,1,9.15-1.85"/><path class="cls-1" d="M48.49,65.8l-17.5,5s-6.69,3.75-6.82,8.06,0,29.66,0,29.66"/><path class="cls-2" d="M56.92,85.59c2,.78,4.58.89,8,.39"/><path class="cls-2" d="M36,69.33A26.79,26.79,0,0,0,44.81,81"/><path class="cls-2" d="M74.5,84.66S88.58,81.79,90.3,67.9"/><polyline class="cls-2" points="35.68 108.39 36.41 95.02 43.56 107.89 81.31 108.11 87.74 95.34 87.74 108.08 99.76 108.08 99.87 93.78"/><path class="cls-2" d="M12.55,66a9.69,9.69,0,0,1,4.1,3.49v39l19-.08"/><path class="cls-2" d="M16.35,59.14S11.2,66,10.48,73.78"/><line class="cls-1" x1="24.11" y1="101.51" x2="36" y2="101.51"/><line class="cls-1" x1="87.74" y1="101.51" x2="99.87" y2="101.51"/></g></svg>