<svg id="Livello_3" data-name="Livello 3" xmlns="http://www.w3.org/2000/svg" viewBox="0 0 120 120"><defs><style>.cls-1{fill:none;stroke:#211f1f;stroke-miterlimit:10;stroke-width:4px;}</style></defs><g id="Anuket-Bold"><path class="cls-1" d="M95.84,19.86C96,18.32,93,15.7,88.1,17.3c-1.57-2.44-6-3.29-8.36-2.44C77.22,13,74.3,13,71.54,13.77c-2.45-1.42-6.49-1.48-8.69-1-2.07-.47-5.88-.41-8.2,1-2.6-.73-5.36-.73-7.74,1.09-2.24-.85-6.41,0-7.9,2.44-5.21-.24-8.34,1.46-7,3.33,10.06,11.17,11.2,24.5,11.21,33.68a81.39,81.39,0,0,1,3.45,12.35s5.15-.52,11.13-.52c2.24.73,4.86,3.75,4.86,3.75l2.12,0c2.91-4.29,4.4-1.29,4.4-1.29l.94,2.64A23.82,23.82,0,0,1,69,78.61l3.41,2.61S81,59,81.91,54.84C84,41.31,98.75,27.36,103.44,23A10,10,0,0,0,95.84,19.86Z"/><path class="cls-1" d="M82.11,54.31s25.73,25.2,27,48h-5.66S94.35,66.62,82.11,54.31Z"/><path class="cls-1" d="M82.59,55.32S97.28,78.84,93.76,96.47l-4.31-1S89.51,66.75,82.59,55.32Z"/><path class="cls-1" d="M46.67,66.66s-8.8,12.77-8.06,14.56,4,1.06,4,1.06-.8,8.63,1.91,9.57c.89.31,9.83-1.17,9.83-1.17v5.79s-.45,7.1,8.11,5.88,11-5.39,11-5.39L72.38,81.22"/><line class="cls-1" x1="43.22" y1="54.31" x2="82.11" y2="54.31"/><line class="cls-1" x1="47.99" y1="72.58" x2="56.01" y2="72.58"/><path class="cls-1" d="M54.74,98.86,33.48,102.5c-7.26,1.24-13.79,1.52-20,5.47l-.06,2.4h95.64v-2.88a55.09,55.09,0,0,0-7-3.82L73.45,97"/><path class="cls-1" d="M42.46,23.12s6.76,8.53,8.52,25.8"/><line class="cls-1" x1="53.87" y1="19.87" x2="56.77" y2="48.92"/><path class="cls-1" d="M84.74,23.12S78,31.65,76.22,48.92"/><line class="cls-1" x1="73.33" y1="19.87" x2="70.43" y2="48.92"/><line class="cls-1" x1="63.59" y1="19.63" x2="63.59" y2="48.68"/><path class="cls-1" d="M33.82,102.49s-.14,7.88,14,7.88"/><path class="cls-1" d="M91.7,101.24s-.36,8.46-21.58,9.13"/></g></svg>