<svg id="Livello_3" data-name="Livello 3" xmlns="http://www.w3.org/2000/svg" viewBox="0 0 120 120"><defs><style>.cls-1{fill:none;stroke:#211f1f;stroke-linecap:round;stroke-linejoin:round;stroke-width:4px;}</style></defs><g id="Apophis-Bold"><path class="cls-1" d="M108.4,102.86a1.82,1.82,0,0,0-1-1.15c-1.83-.95-5.34-2.47-7.4-2.6-3.13-.2-7.41,1.46-8.83,2.06a2.67,2.67,0,0,1-1,.2c-3.73-.05-8.5,0-13.13,0-5.31,0-10.32,0-12.68-.06-4.4-.15-8.6-2.21-12-4.55a2.82,2.82,0,0,1-.52-4.09q1.13-1.38,2.28-2.91c.83-1.07,1.65-2,2.45-3a2.67,2.67,0,0,1,3.85-.19,19.77,19.77,0,0,0,2.25,1.86C69,92.85,76.86,94,82.36,91.36A10.11,10.11,0,0,0,88.25,83c.4-4.91-3.3-10.26-8.61-12.43-3-1.23-9.56-2.62-18.26,3A2.64,2.64,0,0,1,57.79,73c-.13-.16-.25-.33-.37-.49-2.15-2.87-4.46-6-7-8.9a2.81,2.81,0,0,1,.18-3.84c1.23-1.2,2.36-2.33,3.44-3.39l.29-.3A2.63,2.63,0,0,1,57.91,56a23.31,23.31,0,0,0,17.22,5.62c6.09-.38,10.72-3,12.7-7.31a11,11,0,0,0-1.11-11c-2.91-4.17-8.2-6.23-14.15-5.52a26.64,26.64,0,0,0-14,5.41,2.65,2.65,0,0,1-3.73-.56l-1.31-1.78c-4.92-6.7-10-13.63-18.75-14.8,0,0-8.77-.51-13.85-5.91-8.23-11.51-6.95-5-6.95-5,.24,5.2,4.71,15.57,19.94,17.63,6,.8,9.87,6.07,14.35,12.17.62.84,1.25,1.7,1.89,2.55a2.8,2.8,0,0,1-.26,3.67l-.46.45C48.26,52.71,47,54,45.57,55.35a2.7,2.7,0,0,1-3.5.22,25.86,25.86,0,0,0-12.59-5.35c-6.89-.78-11.93.57-15,4-3.85,4.35-2.83,10-2.7,10.64a2,2,0,0,0,.09.33,13.48,13.48,0,0,0,9.86,9.42c6.19,1.46,13.5-1,20.19-6.6a2.7,2.7,0,0,1,3.79.29C48,71,50.13,73.85,52.19,76.6c.23.32.47.63.7.94a2.8,2.8,0,0,1-.2,3.6c-1.22,1.33-2.47,2.8-3.74,4.43-.7.92-1.38,1.79-2.05,2.62a2.68,2.68,0,0,1-3.82.3,25.52,25.52,0,0,0-16-6.33,15.29,15.29,0,0,0-13.24,6.27,13.18,13.18,0,0,0-1.08,12.69,12.72,12.72,0,0,0,10.43,7.59,16.45,16.45,0,0,0,2.17.14c3.94,0,10.44-1.29,18.23-7.76a2.69,2.69,0,0,1,3.35-.07c4.43,3.38,10.52,6.78,17.22,7,2.47.08,7.55.07,12.92.06,4.83,0,9.82,0,13.57,0l14.26.18,3.71-2.22.59-.35Zm-31.21-26c3.13,1.28,4.62,4.07,4.49,5.6a3.26,3.26,0,0,1-2.14,2.84c-2.78,1.35-8.07,1.17-13.13-2.39l0,0a2.8,2.8,0,0,1,.31-4.68C71.84,75.4,75.44,76.1,77.19,76.82ZM73.34,44.43c3.53-.43,6.53.6,8,2.74a4.21,4.21,0,0,1,.51,4.2c-.92,2-3.53,3.25-7.15,3.48A17,17,0,0,1,64,52.14a2.81,2.81,0,0,1,0-4.68A20.69,20.69,0,0,1,73.34,44.43ZM23.22,68.05a6.72,6.72,0,0,1-4.87-4.31,2.73,2.73,0,0,1-.17-.85,5.76,5.76,0,0,1,1.21-4.14c1.55-1.71,4.79-2.35,9.36-1.82a17.9,17.9,0,0,1,7.11,2.51,2.84,2.84,0,0,1,.22,4.71C30.89,68,26.24,68.76,23.22,68.05ZM24,102c-2.51-.34-4.46-1.64-5.2-3.48a6.41,6.41,0,0,1,.39-6.25,8.68,8.68,0,0,1,7.15-3.39h.42a18.46,18.46,0,0,1,10.94,3.88,2.81,2.81,0,0,1-.1,4.47C30.8,102.29,25.84,102.26,24,102Z"/><path class="cls-1" d="M54.86,42.57s4.93,6.5,10.07,10.1"/><path class="cls-1" d="M49.82,46.64S54,53.33,59.14,56.92"/><path class="cls-1" d="M46.26,69s-5-5.95-10-9.21"/><path class="cls-1" d="M53,66.72A101,101,0,0,0,42.8,56"/><path class="cls-1" d="M60.43,86.57c-1.24-1.67-3.89-4.23-8.75-10.64"/><path class="cls-1" d="M65.83,82.31a58.79,58.79,0,0,1-7.4-8.71"/><path class="cls-1" d="M47.9,101.74a74,74,0,0,1-9.62-8.4"/><path class="cls-1" d="M52,96.4a110.18,110.18,0,0,0-8.91-7.91"/></g></svg>