<svg id="Livello_3" data-name="Livello 3" xmlns="http://www.w3.org/2000/svg" viewBox="0 0 120 120"><defs><style>.cls-1{fill:none;stroke:#211f1f;stroke-linecap:round;stroke-linejoin:round;stroke-width:4px;}</style></defs><g id="Atum-Bold"><path class="cls-1" d="M37.59,48.32c-2.73,0-4.67.72-5.06-1.25s7.4-10.22,7.4-10.22l1.56-7.31S54,28.29,55.12,32.94s6.43,8.23,8.48,3,14.51-.71,8.86,6.08S68,51.54,63.6,51.36c-.3,9.75-.3,25.42-.3,25.42S51.08,80.59,51,68.17c-.39-4.82,0-5.72,0-5.72s-5-.13-9,.06c-2.34.12-2.58-.9-2.59-1.7Z"/><path class="cls-1" d="M41.49,29.54s.2-7.15,4.18-11.62C47.32,16.06,53.12,14,60.46,14"/><path class="cls-1" d="M58.13,14.08c8.73-.49,26.22-3.68,40.23,18.35,9,14.12,10.9,26.88,10.9,33.33v44.63h-5.43c-.11-2.9-.12-12,0-20.78.08-5.32-6.08-9.81-10.74-11.87a86.18,86.18,0,0,0-16.87-5.09L76,103.82H63.27l.13-31.16"/><path class="cls-1" d="M13.83,68.44a9.61,9.61,0,0,1,4.1,3.49v38.84l19-.08.72-13.32,7.27,13,37.67,0,6.43-12.72v12.7h20.19"/><path class="cls-1" d="M17.64,61.62s-5.15,6.83-5.87,14.58"/><path class="cls-1" d="M40.19,62.32c-.32,4.32-2.57,11.76-3.46,16-.62,2.67-1.3,5.79-2.78,7.5-.13.09-.16.17-.22.17s-.08,0-.13,0a5.72,5.72,0,0,0-1.18-.22,2.11,2.11,0,0,0-2.19,2.13c-.19,2.24,1.89,3.18,3.38,3.33,2.28.27,4.38-2.14,5.37-4a102.68,102.68,0,0,0,8.23-24.9"/><line class="cls-1" x1="51.53" y1="71.92" x2="44.42" y2="73.39"/><path class="cls-1" d="M37.41,74.94,30.29,77.5C26.5,79.16,24,83.59,24,88.56v21.83"/><path class="cls-1" d="M45.19,37.72a15.53,15.53,0,0,1,6.81.56"/><path class="cls-1" d="M93.3,77.74s-4.23,13.5-16.92,14.92"/><path class="cls-1" d="M63.3,92.66s-17.13,1-22.82-7.55"/><line class="cls-1" x1="24.32" y1="102.86" x2="37.41" y2="102.86"/><line class="cls-1" x1="89.07" y1="102.86" x2="103.73" y2="102.86"/></g></svg>