<svg id="Livello_3" data-name="Livello 3" xmlns="http://www.w3.org/2000/svg" viewBox="0 0 120 120"><defs><style>.cls-1{fill:none;stroke:#211f1f;stroke-linecap:round;stroke-linejoin:round;stroke-width:4px;}</style></defs><g id="Bastet-regular"><path class="cls-1" d="M58.53,26.26s13-.19,19.28,6.21c4.47,7.72,7.68,14.51,10.89,16-.35,1.89-6.07,11.3-8.21,11.87s-6.16-1.29-10.71-2.15c-1.63-.43-1.51-.59-1.81-.41s-.38,2.34-.34,11.45a11.44,11.44,0,0,1-3,7.83,10.21,10.21,0,0,1-8.23,3.36c.36-13.11,0-24,0-24s-7.5-3-7.14-16c-4.11-5.65-5-10.55,6.61-26.37C56.57,18.72,58.53,26.26,58.53,26.26Z"/><path class="cls-1" d="M58.24,24.81s4.64-9.24,8.56-13.35c.12,6.19,3.69,17,3.69,17"/><path class="cls-1" d="M57.81,22.74s1.5,6.14,3,10.3"/><path class="cls-1" d="M75,39.72s-5.13-5-10.26,0"/><path class="cls-1" d="M48.4,25.42c-16.14,0-17.72,15.39-28.4,32a31.58,31.58,0,0,1-4.26,5.73c-3.3,3.21-5.94,7.66-6.07,12.55-.39,15.4-.39,22.8-.39,21.31l14.35-.15C26.53,75,46.79,74.21,46.79,74.21v36.87h9.66V78"/><path class="cls-1" d="M66.92,73.57a55.45,55.45,0,0,1,8.14,2.77A22.55,22.55,0,0,1,88.77,97.15v13.93"/><path class="cls-1" d="M30.53,81.65s3.23,11.76,15.93,13.26"/><path class="cls-1" d="M82.63,81.65S79.84,97.4,56.45,94.91"/><line class="cls-1" x1="84.1" y1="56.61" x2="76.39" y2="53.17"/><path class="cls-1" d="M104.54,66.3c-.13-3.77-2.5-7-5.73-7.83l-.13,0-.13,0c-3.23.82-5.59,4.06-5.73,7.83-.42,11.75,5.86,17.87,5.86,17.87S105,78.05,104.54,66.3Z"/><line class="cls-1" x1="88.63" y1="67.1" x2="109.22" y2="67.1"/><line class="cls-1" x1="88.63" y1="72.79" x2="109.22" y2="72.79"/><line class="cls-1" x1="88.63" y1="78.13" x2="109.22" y2="78.13"/><path class="cls-1" d="M98.68,84.17s-7,3.16-7.13,4.79,4.39,5.42,7.37,5.42,8-4.2,8.25-5.1S101.12,84.35,98.68,84.17Z"/><polyline class="cls-1" points="98.92 94.38 98.92 111.08 23.63 111.08 23.63 96.84"/></g></svg>