<svg id="Egyptian" xmlns="http://www.w3.org/2000/svg" viewBox="0 0 150 150"><title>Khephra Egyptian symbol-bold</title><path d="M35.23,103.47c-.07-.18-6.51-18.57,5.47-27.1a17.35,17.35,0,0,1,3.18-1.79V88.41a29.52,29.52,0,0,0,1.55,9.44c-2,3.31-5.79,11-3.23,18.73,2.15,6.52,8.07,11.26,17.58,14.09L62.06,123c-6.84-2-11-5-12.25-8.9a12,12,0,0,1,.33-7.55,29.46,29.46,0,0,0,23.24,11.37h3.45a29.46,29.46,0,0,0,23.24-11.37,12,12,0,0,1,.33,7.55C99.11,118,95,121,88.15,123l2.28,7.67c9.51-2.83,15.42-7.57,17.58-14.09,2.55-7.74-1.22-15.42-3.23-18.73a29.52,29.52,0,0,0,1.55-9.44V74.59a17.05,17.05,0,0,1,3.18,1.78c12,8.53,5.54,26.92,5.47,27.1l3.76,1.36,3.76,1.37c.36-1,8.61-24.27-8.35-36.35a24.84,24.84,0,0,0-3.58-2.13c5.21-7.85,6.84-15.37,4.8-22.44-4.86-16.82-28.89-23.69-29.92-24L83.3,29c.21.06,20.78,6,24.39,18.51,1.28,4.47.18,9.49-3.26,15A29.6,29.6,0,0,0,95.5,50.07a20.42,20.42,0,0,0-40.8,0,29.58,29.58,0,0,0-8.92,12.42c-3.44-5.48-4.54-10.5-3.26-15C46.12,35,66.7,29.07,66.9,29l-1.07-3.85L64.75,21.3c-1,.29-25.06,7.16-29.91,24-2,7.07-.41,14.59,4.8,22.44a25.5,25.5,0,0,0-3.59,2.13c-17,12.08-8.7,35.37-8.34,36.35ZM73.38,51.39h3.45a21.54,21.54,0,0,1,20,13.54h-6.4A19.12,19.12,0,0,0,75.1,72.59a19.09,19.09,0,0,0-15.28-7.66h-6.4A21.53,21.53,0,0,1,73.38,51.39Zm-21.5,37V72.94h7.94A11.16,11.16,0,0,1,71,84.08v25.69A21.52,21.52,0,0,1,51.88,88.41Zm27.36,21.36V84.08A11.16,11.16,0,0,1,90.39,72.93h7.94V88.41A21.53,21.53,0,0,1,79.24,109.77ZM75.1,38.53a12.44,12.44,0,0,1,10.81,6.3,29.31,29.31,0,0,0-9.08-1.44H73.38a29.31,29.31,0,0,0-9.08,1.44A12.44,12.44,0,0,1,75.1,38.53Z"/></svg>