<svg id="Egyptian" xmlns="http://www.w3.org/2000/svg" viewBox="0 0 150 150"><title>Menat Egyptian symbol-bold</title><path d="M99.65,57.05l3.88-18.2a9,9,0,0,0-8.76-11H87.28l-1,2.43C84.79,33.63,80.15,36,75,36s-9.85-2.36-11.29-5.74l-1-2.43h-7.5a9,9,0,0,0-8.75,11L50.22,57l0,.1a9,9,0,0,0,6.64,6.63V89c-6.5,4.28-10.74,11.57-10.74,18.84,0,12.43,12.93,22.55,28.82,22.55s28.81-10.12,28.81-22.55A23.21,23.21,0,0,0,94.67,90.1V63.24h-.28A8.94,8.94,0,0,0,99.65,57.05Zm-13,30.22H64.87V63.94H86.67Zm9.09,20.55c0,8-9.34,14.55-20.81,14.55s-20.82-6.53-20.82-14.55c0-4.7,3.23-9.84,7.79-12.55H88l.55.33C92.81,98.2,95.76,103.22,95.76,107.82Zm0-70.78L91.87,55.21a1,1,0,0,1-1,.73H59a1,1,0,0,1-.95-.73L54.19,37.14l0-.1a.94.94,0,0,1,.19-.84.93.93,0,0,1,.77-.38h2.52C61,40.8,67.63,44,75,44s13.91-3.19,17.31-8.17h2.51a1,1,0,0,1,.78.38A1,1,0,0,1,95.73,37Z"/></svg>