<svg id="Egyptian" xmlns="http://www.w3.org/2000/svg" viewBox="0 0 150 150"><title>Duat Egyptian symbol-bold</title><path d="M111,63a4,4,0,0,0-5-2.55l-24.74,8.1A8.88,8.88,0,0,0,79.09,67V41.54a4,4,0,1,0-8,0V67a8.58,8.58,0,0,0-2.24,1.63L44.06,60.43A4,4,0,1,0,41.54,68l24.89,8.24a8.78,8.78,0,0,0,.76,2.39L51.31,99.72a4,4,0,0,0,.79,5.6h0a4,4,0,0,0,5.6-.78L73.58,83.48a8.27,8.27,0,0,0,3,0l15.88,21.06a4,4,0,0,0,5.6.78h0a4,4,0,0,0,.79-5.6L83,78.66a8.85,8.85,0,0,0,.78-2.56L108.44,68A4,4,0,0,0,111,63Z"/><path d="M75,23.74a51.38,51.38,0,1,0,51.38,51.38A51.44,51.44,0,0,0,75,23.74Zm0,94.76a43.38,43.38,0,1,1,43.38-43.38A43.43,43.43,0,0,1,75,118.5Z"/></svg>