<svg id="Egyptian" xmlns="http://www.w3.org/2000/svg" viewBox="0 0 150 150"><title>Uraeus Egyptian symbol-bold</title><path d="M74.81,84.72A9.72,9.72,0,1,0,65.08,75,9.73,9.73,0,0,0,74.81,84.72Zm0-11.44A1.72,1.72,0,1,1,73.08,75,1.72,1.72,0,0,1,74.81,73.28Z"/><path d="M27.68,66.45a48,48,0,0,0,5.49-2.34l.06,0a5.65,5.65,0,0,1,2.2.68,16.4,16.4,0,0,0-9.08,5.37,18.78,18.78,0,0,0-3.7,7.34c-2,7.62-.42,17.19,4.09,24.37,3.45,5.5,8.2,9,13.77,10.27a14.36,14.36,0,0,0,6,1.33,14.6,14.6,0,0,0,8.65-2.83,14.3,14.3,0,0,0,5.74-10A29.08,29.08,0,0,0,98.3,92.19c4.46,11.87,13.91,18,19.64,19.78l2.41-7.62c-.68-.23-16.76-5.71-16.52-26.9.06-.81.11-1.62.11-2.45A29.13,29.13,0,0,0,46.2,69.53c0-.53,0-1.06-.09-1.56a13,13,0,0,0-4.66-8.74l-.21-.18,0,0,0,0a15.38,15.38,0,0,0-4.61-2.71c-7.28-2.71-11.56-1.23-14,1A5.35,5.35,0,0,0,27.68,66.45Zm2.7,13.09a10.89,10.89,0,0,1,2.08-4.23,8.91,8.91,0,0,1,5.68-2.91,53.4,53.4,0,0,1-3.76,14.26,33.93,33.93,0,0,0-2.18,8.49C29.92,90.22,29.16,84.15,30.38,79.54Zm20.08,24.63a6.57,6.57,0,0,1-7.75,0c-3.15-2.41-3.47-7.88-.87-14.63A69.6,69.6,0,0,0,45.71,76.1a29,29,0,0,0,6.48,17.23C53.82,98.23,53.2,102.16,50.46,104.17Zm24.35-50.3A21.13,21.13,0,1,1,53.68,75,21.16,21.16,0,0,1,74.81,53.87Z"/></svg>