<svg id="Egyptian" xmlns="http://www.w3.org/2000/svg" viewBox="0 0 150 150"><title>Lotus Egyptian symbol-bold</title><path d="M120.77,58.69c-1.6.46-15.75,4.59-21.67,8.78-6.19,4.39-7.29,8.43-6.87,11.34-4.77,4-8.4,8.89-8.4,17.2v34.74h8V96c0-4.84,1.58-7.71,5.18-10.78a8.24,8.24,0,0,0,3.52.76h.34c2.65-.1,5.53-1.27,8.81-3.6,5.92-4.19,14.5-16.19,15.45-17.54l6.59-9.29ZM105.05,75.87c-3.35,2.38-4.66,2.12-4.68,2.12h0a.62.62,0,0,1-.11-.13l-.08-.13c0-.08.25-1.39,3.55-3.73a35.34,35.34,0,0,1,6.63-3.3A36.09,36.09,0,0,1,105.05,75.87Z"/><path d="M57.88,77.87c.07-2.82-1.39-6.46-6.94-10.4C45,63.28,30.87,59.15,29.27,58.69L18.32,55.56l6.59,9.29c.95,1.35,9.53,13.35,15.45,17.54,3.28,2.33,6.16,3.5,8.81,3.6h.34a8.17,8.17,0,0,0,4.28-1.16c4,3.22,5.68,6.13,5.68,11.18v34.74h8V96C67.47,87,63.23,82,57.88,77.87Zm-8.1,0-.1.12c-.08,0-1.4.22-4.69-2.11a36.09,36.09,0,0,1-5.31-5.17A35.34,35.34,0,0,1,46.31,74c3.38,2.4,3.55,3.72,3.55,3.72h0A.53.53,0,0,1,49.78,77.86Z"/><path d="M116.48,27.37l-4.08-1.88c-39.79-18.28-73.56-.65-75,.11l-3.7,2L65.87,81.44H71v49.31h8V81.44h4.61ZM80.76,52.42l6.08-7.52-1,12.8,4.59-2.9L80.84,70.62a28.07,28.07,0,0,0,1.07-8.81A56.25,56.25,0,0,0,80.76,52.42ZM104.92,31,95.1,47.15l-4.64,2.92L91.82,32.4l-12.13,15c-2.08-9-4.88-17.66-4.88-17.66S72.09,38,70,46.72L58.72,32l.46,17.46-5.33-3.73-8.8-14.75A82.18,82.18,0,0,1,104.92,31ZM58.85,54.07l4.53,3.17L63,44.19l5.86,7.66a53.37,53.37,0,0,0-1.19,10.09,26.06,26.06,0,0,0,1.45,9.41Z"/></svg>