<svg id="Egyptian" xmlns="http://www.w3.org/2000/svg" viewBox="0 0 150 150"><title>Tyet Egyptian symbol-bold</title><path d="M106,99.93V58.77A10.87,10.87,0,0,0,95.11,47.91H88.84a16.58,16.58,0,0,0,2.31-7.63A16.79,16.79,0,0,0,78.7,24V21h-8V24A16.79,16.79,0,0,0,58.26,40.28a16.4,16.4,0,0,0,2.29,7.63H54.42A10.88,10.88,0,0,0,43.56,58.77V99.93a10.86,10.86,0,1,0,21.72,0V72.49a2.87,2.87,0,0,1,2.86-2.86h.13v2.25h13V69.63h.13a2.86,2.86,0,0,1,2.85,2.86V99.93a10.86,10.86,0,1,0,21.72,0ZM66.26,40.28a8.45,8.45,0,1,1,16.89,0c0,.62-.31,2.87-3.76,7.63H70C66.56,43.16,66.26,40.91,66.26,40.28ZM98,99.93a2.86,2.86,0,1,1-5.72,0V72.49A10.87,10.87,0,0,0,81.4,61.63h-.13V58.82h-13v2.81h-.13A10.88,10.88,0,0,0,57.28,72.49V99.93a2.86,2.86,0,1,1-5.72,0V58.77a2.87,2.87,0,0,1,2.86-2.86H95.11A2.86,2.86,0,0,1,98,58.77Z"/><path d="M78.7,76.33h-8v25.48c0,6.45-2.79,9.4-9.47,14L50,123.51l4.52,6.6,11.26-7.72a36.45,36.45,0,0,0,9-8,36.45,36.45,0,0,0,9,8l11.26,7.72,4.52-6.6-11.26-7.72c-6.68-4.58-9.47-7.53-9.47-14V76.33Z"/></svg>