<svg id="Egyptian" xmlns="http://www.w3.org/2000/svg" viewBox="0 0 150 150"><title>Shu Egyptian symbol -bold</title><path d="M69.25,37.53A12.36,12.36,0,0,0,57,48.08H56.9v81.29h8V112.28A15.7,15.7,0,0,1,75,103.21a27,27,0,0,1,9.3-1.3,4.2,4.2,0,0,0,3.47-1.55,4.24,4.24,0,0,0,.76-3.78L77.67,58.93a12.35,12.35,0,0,0-8.42-21.4Zm-4.35,62V49.88a4.36,4.36,0,1,1,6.32,3.88l-2.93,1.5,3.28,11.43-5,1.74,1.32,3.77,4.77-1.66.68,2.33-6.77,2.36L67.91,79l6.55-2.29.74,2.55-8.61,3,1.32,3.78,8.4-2.94L77,85.51,66.56,89.33l1.38,3.76,10.17-3.73,1.37,4.76A30.17,30.17,0,0,0,64.9,99.56Z"/></svg>