<svg id="Egyptian" xmlns="http://www.w3.org/2000/svg" viewBox="0 0 150 150"><title>Sa Egyptian symbol-bold</title><polygon points="55.33 128.94 74.85 95.14 94.37 128.94 101.29 124.94 79.14 86.56 88.81 86.56 88.81 78.56 60.88 78.56 60.88 86.56 70.56 86.56 48.4 124.94 55.33 128.94"/><path d="M53.08,48.84h3.16c1.32,7.43,8.9,16.28,13.24,20.84h-8.6v8H88.81v-8h-8.6c4.34-4.56,11.92-13.41,13.24-20.84h3.16v-8H92.77a18.66,18.66,0,0,0-35.84,0H53.08ZM74.85,35.39A11.08,11.08,0,0,1,85.66,46.7c0,3.91-5.66,11.47-10.81,17C69.69,58.18,64,50.62,64,46.7A11.08,11.08,0,0,1,74.85,35.39Z"/></svg>