<svg id="Egyptian" xmlns="http://www.w3.org/2000/svg" viewBox="0 0 150 150"><title>Crook and flail-bold</title><path d="M96.84,29A18.4,18.4,0,0,0,75.29,52.09a22.47,22.47,0,0,1,.85,9.08l-.09.66,7.93,1,.09-.66A30.36,30.36,0,0,0,83,49.88a10.4,10.4,0,0,1,12.19-13,10.4,10.4,0,0,1,2.36,19.5A23,23,0,0,0,84.72,73.46l-8.29,55.32L84.35,130l8.29-55.32a15,15,0,0,1,8.41-11.1A18.39,18.39,0,0,0,96.84,29Z"/><polygon points="41.02 100.71 50.17 79.63 45.15 107.92 53.02 109.32 58.38 79.16 66.11 129.97 74.02 128.77 59.87 35.73 51.96 36.93 53.1 44.47 24.98 86.8 31.65 91.23 45.41 70.52 33.68 97.53 41.02 100.71"/></svg>