<svg id="Egyptian" xmlns="http://www.w3.org/2000/svg" viewBox="0 0 150 150"><title>Sema Egyptian symbol-bold</title><path d="M65.94,94.43h-.45a9,9,0,0,0-7.75,4.48,9.58,9.58,0,0,0-.16,9.47l.16.29,1.58,2a43.79,43.79,0,0,1,7.24,13.63l.35,1.07.18.34a9,9,0,0,0,15.82,0l.18-.34.34-1a44,44,0,0,1,7.24-13.64l1.59-2,.16-.29a9.58,9.58,0,0,0-.16-9.47,9,9,0,0,0-7.75-4.48h-.43l-.93.2c-1.27.27-2.55.47-3.83.62l5.25-67h6.7v-8H58.52v8h6.71l5.24,67a38.41,38.41,0,0,1-4.09-.7Zm18.83,8a1.14,1.14,0,0,1,.61.52,1.56,1.56,0,0,1,.12,1.34l-1.12,1.43a52,52,0,0,0-8.56,16.12l-.07.22a.93.93,0,0,1-1.5,0l-.08-.24a51.91,51.91,0,0,0-8.56-16.11l-1.11-1.42a1.56,1.56,0,0,1,.12-1.34,1.1,1.1,0,0,1,.61-.52A46.3,46.3,0,0,0,84.77,102.46Zm-8.23-74.2-1.64,21-1.65-21Z"/></svg>