<svg id="Egyptian" xmlns="http://www.w3.org/2000/svg" viewBox="0 0 150 150"><title>Djed Egyptian symbol-bold</title><path d="M46.76,130.37H103l-7.32-40a190.07,190.07,0,0,1-2.51-25h9.3v-8H93V52.68h9.42v-8H93V40.33h9.42v-8H93V28h9.42V20H47.56v8h9.15v4.33H47.56v8h9.15v4.35H47.56v8h9.15V57.4H47.56v8h9a190.32,190.32,0,0,1-2.5,24.94ZM64.71,28H85v4.33H64.71Zm0,12.33H85v4.35H64.71Zm0,12.35H85V57.4H64.71ZM62,91.72A196.52,196.52,0,0,0,64.59,65.4H85.14a198.24,198.24,0,0,0,2.63,26.38l5.6,30.59h-37Z"/></svg>