<svg id="Egyptian" xmlns="http://www.w3.org/2000/svg" viewBox="0 0 150 150"><title>Ha Egyptian symbol-bold</title><path d="M119.28,47.49a5.06,5.06,0,0,0-.55-8.94l-17.52-7.89A5.06,5.06,0,0,0,94.13,36l.39,2.63L89.75,53.76A5,5,0,0,0,92.45,60l1.19.54L79,94.68V50.52h1.42a5.06,5.06,0,0,0,5-4.62l1.85-16,1.27-1.86a5.05,5.05,0,0,0-4.17-7.92H65.2a5.06,5.06,0,0,0-4.26,7.79l1.44,2.24,1.84,15.74a5.07,5.07,0,0,0,5,4.61H71V94.86L56.28,60.57,57.47,60a5,5,0,0,0,2.71-6.27L55.4,38.65,55.79,36a5.06,5.06,0,0,0-7.08-5.36L31.19,38.55a5.06,5.06,0,0,0-.55,8.94l1.93,1.17,8.24,13.81a5,5,0,0,0,4.41,2.59,4.94,4.94,0,0,0,2.08-.45L49,63.86l18,42H63.6l-4.45,24.49h32l-4.45-24.49H82.9l18-42,1.69.75a4.89,4.89,0,0,0,2.07.45,5.08,5.08,0,0,0,4.42-2.59l8.24-13.81ZM70.18,28.14h9.28l0,.28L77.8,42.52H71.88L70.26,28.71C70.24,28.51,70.21,28.33,70.18,28.14ZM46.41,56.24,39.14,44.06,39,43.81,47.46,40a4.94,4.94,0,0,0,.15.55l4.2,13.26Zm22.32,66.13,1.55-8.49H80l1.55,8.49Zm42.06-78.31-7.27,12.18-5.4-2.43,4.19-13.26c.06-.18.11-.36.16-.55l8.46,3.81A2,2,0,0,0,110.79,44.06Z"/></svg>