<svg id="Egyptian" xmlns="http://www.w3.org/2000/svg" viewBox="0 0 150 150"><title>Ka Egyptian symbol-bold</title><path d="M27.35,30C23.67,34.62,19.8,48,30.89,65.74v64.63h87V66.21c11.45-18,7.55-31.55,3.84-36.26-2.06-2.61-4.77-3.65-7.25-2.76-1.52.53-4,2.2-4,7.32a30.52,30.52,0,0,1-1.73,11.32,19.1,19.1,0,0,1-.15-2.34l-4-.14-4-.16a31.52,31.52,0,0,0,9.25,22.18v57h-71V65.64a31.5,31.5,0,0,0,9.55-22.45l-8,.3a16,16,0,0,1-.14,2.33,30.54,30.54,0,0,1-1.73-11.31c.08-5.12-2.46-6.79-4-7.32C32.12,26.3,29.41,27.34,27.35,30Zm90,15.07a34.53,34.53,0,0,1-3.76,12.57,20.72,20.72,0,0,1-1.3-1.84A28.23,28.23,0,0,0,117.35,45ZM36.76,55.75c-.4.61-.82,1.23-1.3,1.83A34.28,34.28,0,0,1,31.69,45,28.23,28.23,0,0,0,36.76,55.75Z"/></svg>