<svg id="Egyptian" xmlns="http://www.w3.org/2000/svg" viewBox="0 0 150 150"><title>Shen Egyptian symbol-bold</title><path d="M117.3,130v-4c0-11.72-9-21.25-20-21.25h-1.2a33.42,33.42,0,0,0-17.44-59V36.06h-8v9.65a33.42,33.42,0,0,0-17.45,59H52c-11,0-20,9.51-20,21.16L31.92,130ZM49,78.93A25.47,25.47,0,0,1,74.42,53.49h.44a25.44,25.44,0,1,1,0,50.87h-.44A25.46,25.46,0,0,1,49,78.93ZM108.74,122H78.64v-9.25H97.28C102.64,112.75,107.19,116.64,108.74,122ZM52,112.75H70.64V122H40.54C42.08,116.64,46.64,112.75,52,112.75Z"/></svg>