<svg id="Livello_3" data-name="Livello 3" xmlns="http://www.w3.org/2000/svg" viewBox="0 0 120 120"><defs><style>.cls-1{fill:none;stroke:#211f1f;stroke-linecap:round;stroke-linejoin:round;stroke-width:4px;}</style></defs><g id="Geb-Bold"><path class="cls-1" d="M38.83,75.06c-2.39,0-3.24.48-3.58-.86s7-8.61,7-8.61l1.22-4.41S58,61.38,59,64.53s3.13,6.47,4.92,3,6.2-5.38,5.36.76c-.87,6.4-2.93,9-6.77,8.88C62.22,83.73,62.19,97,62.19,97c-.43,2.14-10.77,4.3-9.88-2l-.75-7.22-4.12-1.58c-1.89-.73-7.18.13-7.19-.41Z"/><path class="cls-1" d="M73.35,91.55c12.42,2.3,25.89,8.32,28.1,11.22a3.55,3.55,0,0,1,.71,2.34v7.59"/><path class="cls-1" d="M43.42,61.18s-.75-3,1.79-6.55c4.47-6.29,10.34-6.49,16.25-6.49,0,0,16.44-3.08,31.55,24.35,10.1,16.53,14.63,26.19,14.63,30.57v9.64"/><polyline class="cls-1" points="73.35 91.56 73.14 112.7 62.19 112.7 62.19 96.76"/><path class="cls-1" d="M46.34,67.86a17.48,17.48,0,0,1,6,.38"/><path class="cls-1" d="M89.05,96.07s-5.35,12.23-15.57,13.2"/><path class="cls-1" d="M11.63,82.59a9.31,9.31,0,0,1,4.13,2.59V112.7H35.24L38,107.18l2.72,5.52H84.42l2.52-4.82,1.86,4.82h18.84"/><path class="cls-1" d="M15.46,77.51S10.28,82.6,9.55,88.36"/><circle class="cls-1" cx="57.95" cy="18.09" r="3.74"/><path class="cls-1" d="M80.31,36.75s-20.25-.82-18.62-8.18,18,4.75,18.62,8.18"/><path class="cls-1" d="M61,20.23s-3.6,7.43-9,9.44S66.88,40.51,80.29,41.82l-4.94-5.53"/><path class="cls-1" d="M62.61,26.91s-5-1.08-3.21-3.94"/><line class="cls-1" x1="54.21" y1="19.74" x2="50.32" y2="20.72"/><path class="cls-1" d="M40.25,85.8,37,98.43A6,6,0,0,1,35.65,101c-1,1.09-2.77,2.09-5.57,1.12"/><path class="cls-1" d="M46.34,86s7.13-1,8.14-4.16"/><polyline class="cls-1" points="65.28 38.36 65.7 47.93 61.6 47.92"/><polyline class="cls-1" points="61.69 37.07 59.01 47.92 51.11 47.92"/><path class="cls-1" d="M52,92.28,28.57,96.49s-5.71,2.53-5.64,7.37c.08,5.49,0,8.84,0,8.84"/><path class="cls-1" d="M40.24,94.39S39,111.45,62.19,110.48"/></g></svg>