<svg id="Livello_3" data-name="Livello 3" xmlns="http://www.w3.org/2000/svg" viewBox="0 0 120 120"><defs><style>.cls-1{fill:none;stroke:#211f1f;stroke-linecap:round;stroke-linejoin:round;stroke-width:4px;}</style></defs><g id="Hathor-Bold"><path class="cls-1" d="M90.19,110.68H104.3V95.81A12.42,12.42,0,0,1,109,92.23"/><path class="cls-1" d="M105.8,88.72s4,1.93,4.71,9"/><ellipse class="cls-1" cx="56.2" cy="29.29" rx="8.12" ry="7.34" transform="translate(-4.18 10.06) rotate(-9.86)"/><path class="cls-1" d="M42.77,12.46s3.69.61,4.24,6.64c.31,3.39.05,12.21,2.79,14.89"/><path class="cls-1" d="M69.4,12.46s-3.69.61-4.24,6.64c-.32,3.39.72,10.78-2.79,14.75"/><line class="cls-1" x1="56.13" y1="36.57" x2="56.13" y2="42.4"/><line class="cls-1" x1="64.29" y1="42.4" x2="47.97" y2="42.4"/><path class="cls-1" d="M72.58,50.71s-23.4,2.63-36.94,0c0,0-3.85-.61-4.64-3.47-1.16-4.2,4.69-5.11,5.77-2,.61,1.77-6,26.3,1.89,34.14"/><path class="cls-1" d="M36.05,50.87s-22.67,9.94-25.54,23"/><path class="cls-1" d="M52.74,110.69l-1.47-30.9S49,71,45.48,66.65s0-12.25,3.36-5.59c2.25,4.47,1.66,3.43,1.66,3.43h1.92a17.25,17.25,0,0,1,14-8.65,27.37,27.37,0,0,0,7.18-.29s.57-8.94-9.86-12.11c-9.07-2.76-18.82.12-25.6,7.13A131.88,131.88,0,0,0,20.85,72.45c-9.62,14.94-9.62,20.6-9.62,20.6v17.63h6.38"/><line class="cls-1" x1="41.6" y1="89.65" x2="40.59" y2="110.68"/><path class="cls-1" d="M52.08,95.92c10.15,1.59,11.25-7.44,11.25-7.44s23,1.47,24.61,6.64a77,77,0,0,1,3.15,10.33c1.21,4.73,1.25,5.24,1.25,5.24H79.94l-1.72-6c-1.79-1.19-2.84-.71-3.07-.46-.67.72.48,3.54,1.17,6.49H33.91s1-3.16-4.07-6.39v6.37H17.61v-5.25S18,95,20.92,93.59c2.34-1.54,20.68-3.78,20.68-3.78"/><path class="cls-1" d="M74.67,90s-3.17,17-21.81,16.06"/><path class="cls-1" d="M40.91,104.46A15.33,15.33,0,0,1,29.84,91.63"/><path class="cls-1" d="M73.63,54.21a42.27,42.27,0,0,0,.43,4.32c.14,1.09,3.58,7.89,4.87,10.59S76,71.35,76,71.35s-.2,6.88-1.34,9.17-11.34-.19-11.34-.19v8.15"/><path class="cls-1" d="M73.63,55.21l.43,3.32c.14,1.09,3.58,7.89,4.87,10.59S76,71.35,76,71.35s-.2,6.88-1.34,9.17-11.34-.19-11.34-.19v8.15"/><path class="cls-1" d="M70.7,63.27a8.25,8.25,0,0,0-9.23,1.14"/><path class="cls-1" d="M48.15,71.35s4.05,4.73,4.05-.93"/><path class="cls-1" d="M68.68,28.46H67.23s-.28,4.33-4.05,4.33"/><line class="cls-1" x1="47.85" y1="29.29" x2="45.09" y2="33.99"/></g></svg>