<svg id="Livello_3" data-name="Livello 3" xmlns="http://www.w3.org/2000/svg" viewBox="0 0 120 120"><defs><style>.cls-1,.cls-2{fill:none;stroke:#211f1f;stroke-width:4px;}.cls-1{stroke-linecap:round;stroke-linejoin:round;}.cls-2{stroke-miterlimit:10;}</style></defs><g id="Heh-Bold"><path class="cls-1" d="M99.81,109.19V23.52s-.32-10.9-7.82-10.9"/><line class="cls-1" x1="109.22" y1="21.97" x2="99.81" y2="21.97"/><line class="cls-1" x1="109.22" y1="34.08" x2="100.5" y2="34.08"/><line class="cls-1" x1="109.22" y1="46.18" x2="100.5" y2="46.18"/><line class="cls-1" x1="109.22" y1="58.29" x2="100.5" y2="58.29"/><line class="cls-1" x1="109.22" y1="70.39" x2="100.5" y2="70.39"/><line class="cls-1" x1="109.22" y1="82.5" x2="100.5" y2="82.5"/><line class="cls-1" x1="109.22" y1="94.6" x2="100.5" y2="94.6"/><line class="cls-1" x1="109.22" y1="106.7" x2="100.5" y2="106.7"/><path class="cls-1" d="M21.21,109.19V23.52s.33-10.9,7.83-10.9"/><line class="cls-1" x1="11.8" y1="21.97" x2="21.21" y2="21.97"/><line class="cls-1" x1="11.8" y1="34.08" x2="20.52" y2="34.08"/><line class="cls-1" x1="11.8" y1="46.18" x2="20.52" y2="46.18"/><line class="cls-1" x1="11.8" y1="58.29" x2="20.52" y2="58.29"/><line class="cls-1" x1="11.8" y1="70.39" x2="20.52" y2="70.39"/><line class="cls-1" x1="11.8" y1="82.5" x2="20.52" y2="82.5"/><line class="cls-1" x1="11.8" y1="94.6" x2="20.52" y2="94.6"/><line class="cls-1" x1="11.8" y1="106.7" x2="20.52" y2="106.7"/><path class="cls-1" d="M44.7,98.64l-9.09-8.53S32.73,82,42.07,83.53L62.26,91"/><path class="cls-2" d="M78.48,110.11l-5.22-47H45.64l17,28.47L39.89,102.17a6.67,6.67,0,0,0-3.39,3.39c-.63,1.5-.63,3.31,1.88,4.55H90.32"/><line class="cls-1" x1="31.76" y1="63.13" x2="85.89" y2="63.13"/><circle class="cls-1" cx="56.46" cy="24.36" r="12.32"/><circle class="cls-1" cx="60.51" cy="44.84" r="8.16"/></g></svg>