<svg id="Livello_3" data-name="Livello 3" xmlns="http://www.w3.org/2000/svg" viewBox="0 0 120 120"><defs><style>.cls-1{fill:none;stroke:#211f1f;stroke-linecap:round;stroke-linejoin:round;stroke-width:4px;}</style></defs><g id="Heqet-Bold"><path class="cls-1" d="M56,21.07s1.35-5.7,8.21-5.46,8,6.82,8,6.82,15.31-.87,16.91,4.34v4.62a3.49,3.49,0,0,1-1.85,3.14c-.45.22-1.26.79-3.46,3.36C81.36,40.7,72.19,53.17,71.21,57H54.42V53.34a10.27,10.27,0,0,0-3.73-7.92c-.47-.39-1-.82-1.6-1.28-2.9-1.43-4.84-7.8-3.86-12.66C46.37,25.85,49.44,20.87,56,21.07Z"/><ellipse class="cls-1" cx="63.57" cy="25.38" rx="3.88" ry="3.93"/><path class="cls-1" d="M72,21.68S70.58,9.22,54.11,16.17c-6.43,0-35.4,2.48-39.95,30.67-2.69,10.94-2.43,29.82-2.43,29.82h8.21l.65-12.56s4.56-10.45,19.58-7.9c0,9-.14,19.2-.14,19.2H54.38V56.91"/><path class="cls-1" d="M19.94,76.66V110.2H30.7V76.66s10.39,13.9,9.57,22.4S37.5,110.2,37.5,110.2h35l.17-25a8,8,0,0,0,5.58-8.55l4.32,19.7a41.55,41.55,0,0,0,4.52,13.84H99.24a52.7,52.7,0,0,1-3.65-5.43c-.78-2.64-1.28-3.78-3.24-13.89L87.91,68.37a10.39,10.39,0,0,0-7-8.41c-2.26-.75-5.94-1.72-9.67-2.94"/><path class="cls-1" d="M99.67,65.41a3.89,3.89,0,0,0,4-2.11l1.77-3.07,2.67-4.64H91.63l4.9,7.85a4.22,4.22,0,0,0,3.07,2Z"/><polyline class="cls-1" points="100.29 65.72 100.29 110.2 98.6 110.2"/><line class="cls-1" x1="78.25" y1="76.66" x2="89.55" y2="76.66"/><line class="cls-1" x1="80.09" y1="83.61" x2="90.92" y2="83.61"/><line class="cls-1" x1="19.51" y1="76.66" x2="30.81" y2="76.66"/><line class="cls-1" x1="19.94" y1="83.61" x2="30.7" y2="83.61"/><line class="cls-1" x1="72.67" y1="92.24" x2="39.32" y2="92.24"/><path class="cls-1" d="M26.08,58.29s2.3,11.56,14,12.66"/><path class="cls-1" d="M54.58,71s16.83,0,21.29-12.66L62,85.21"/><line class="cls-1" x1="72.67" y1="85.21" x2="36.08" y2="85.21"/><line class="cls-1" x1="78.03" y1="59.09" x2="70.68" y2="85.21"/><path class="cls-1" d="M87.44,34.33C81.55,32.48,77.57,33.11,75,34s-3.65,2.05-6.56,2.68a16.91,16.91,0,0,1-8.85-.63"/></g></svg>