<svg id="Livello_3" data-name="Livello 3" xmlns="http://www.w3.org/2000/svg" viewBox="0 0 120 120"><defs><style>.cls-1,.cls-2{fill:none;stroke:#211f1f;stroke-width:4px;}.cls-1{stroke-linecap:round;stroke-linejoin:round;}.cls-2{stroke-miterlimit:10;}</style></defs><g id="Horus-Bold"><line class="cls-1" x1="50.06" y1="103.9" x2="58.86" y2="103.9"/><line class="cls-1" x1="66.03" y1="103.9" x2="75.06" y2="103.9"/><path class="cls-1" d="M66.34,109.65,66,84.87l-2.81-2.94a.73.73,0,0,1,.16-1.14c1.91-1.1,6.51-4.26,6.78-9.15.34-6.19-5.2-14.29-11.55-14a45,45,0,0,1,32.8,10.79c14.89,13.08,16.92,22.75,16.92,22.75V103.9H99.9V97.85s-2.21-4.8-5.92-6.34-18.92-1.34-18.92-1.34v19.5"/><line class="cls-1" x1="58.87" y1="109.65" x2="58.87" y2="92.17"/><path class="cls-1" d="M53.67,82.64s-3,1.35-3.51,3.79-.1,23.34-.1,23.34"/><path class="cls-1" d="M50.06,100.25s-13.45-2.32-13.45-8.74c3.06-1.34,13.11-1.34,13.11-1.34"/><path class="cls-1" d="M65.37,100.25c-2.5,0-4.29,0-6.5,0"/><path class="cls-1" d="M88.75,90.58s-2.69,8.9-13.69,9.67"/><path class="cls-1" d="M36.61,91.51s-4.39.35-5.94,2.5-1.85,8.28-1.85,8.28l-.46,7.38,13.52,0,1.42-6.35,2.5,6.35,36.59,0s1-2.39,5.67-5.78v5.87H99.9V103.9"/><line class="cls-1" x1="28.6" y1="103.29" x2="43.3" y2="103.29"/><line class="cls-1" x1="88.06" y1="103.97" x2="103.55" y2="103.92"/><path class="cls-1" d="M14.22,90.17A9,9,0,0,1,18.79,94v15.66l11.36,0"/><path class="cls-1" d="M17.31,86.43S13.4,88.49,12.69,96"/><path class="cls-1" d="M58.61,57.6,44.75,60.48,43,63.24s-4.4,1.5-4.4,5.47c2.75-1.49,7.47,0,10,4,0,0,8.34,15.83,10.28,19.48,1.13.59,5,2.37,7.16-.93"/><path class="cls-1" d="M51.26,65s4.09,1.86,5.56-1.14"/><path class="cls-2" d="M54,58.55s-2.29-13,5.35-24.33A92.08,92.08,0,0,1,67,24.27a16,16,0,0,0,3.58-7.82,4,4,0,0,1,5.56-3.24c3.13,1.16.32,6.31-.59,7.45,0,0-.15,31.55-2.59,38.11"/><path class="cls-2" d="M58.79,35.14h-13s3.66,9,4.26,24.06"/><path class="cls-2" d="M75,40.62c-.5-.51,11.34-27.7,11.34-27.7h5L74.56,59.2"/><path class="cls-2" d="M58.88,34.64s-13.63-3.72-17-13.16c-1.71-4.82-.38-10,6.89-8.59,3.65.7,4.05,5.45,1.85,7.05-1.39,1-5,.7-3.39-2.81"/><path class="cls-2" d="M69.46,67s-.43,8.37-7.34,6.29"/></g></svg>