<svg id="Livello_3" data-name="Livello 3" xmlns="http://www.w3.org/2000/svg" viewBox="0 0 120 120"><defs><style>.cls-1{fill:none;stroke:#211f1f;stroke-miterlimit:10;stroke-width:4px;}</style></defs><g id="Isis-Bold"><path class="cls-1" d="M68.77,49.14c.54,0-.06,4.72-.19,6.37a1.26,1.26,0,0,0,.26.88l4.22,5.43A1.28,1.28,0,0,1,72,63.88h0a1.31,1.31,0,0,0-1.32,1.29v6a1.27,1.27,0,0,1-.25.75,6.42,6.42,0,0,1-3.17,2.12c-2.51.81-12.19-1.76-16.61-5.57a1.25,1.25,0,0,1-.4-.68,3.56,3.56,0,0,1-.06-.44A1.29,1.29,0,0,0,49,66.15c-2.2-.19-6.22-1.17-5.88-6a1.43,1.43,0,0,1,.09-.41,3.59,3.59,0,0,1,4.49-2.42,1.34,1.34,0,0,0,1.61-.87C50,54.08,49.05,48.47,68.77,49.14Z"/><path class="cls-1" d="M67.56,49.14l8.15,0S74.3,39.78,58.2,39.78c-13.21,0-20.43,3.52-30,27.59,4.49,7.68,12.09,10.88,21.06,11.91"/><path class="cls-1" d="M50.19,67.37l-1.14,14c1.09,3.91,3.58,4.77,7.63,5.41a10.7,10.7,0,0,0,10.88-5.12c-2.64-1.87-2.23-1.42-2.65-3.91a8.09,8.09,0,0,1,0-3.62h0"/><path class="cls-1" d="M56.36,56.66c4.7-3,7.69,0,7.69,0"/><path class="cls-1" d="M73.33,44.78s-18.77.46-31.55-.44c-9-2.76-9.17-5.23-9.13-6.64"/><path class="cls-1" d="M40.49,45.76s-7.84,5.08-12.33,2.76"/><path class="cls-1" d="M49.05,81.38c-.66-.28-12.24,3.39-12.24,3.39S43.38,95.51,58.2,95.35s20-9.8,20-9.8L67.56,81.67"/><path class="cls-1" d="M67.56,93.76s9.7,9.95,5.77,15.14c7,0,14.06-9-2.41-16.66"/><path class="cls-1" d="M49.05,93.92s-5.51,10-2.09,15H60.21a83.69,83.69,0,0,0,0-13.63"/><path class="cls-1" d="M36.81,84.77l-4.29,1.12a5.53,5.53,0,0,0-3.73,3.2L12.5,108.9H25.2l9.58-10.83s4.2,9,4.41,10.83H73.33"/><path class="cls-1" d="M78.15,85.55h30.37v9.77l-32.2,0"/><line class="cls-1" x1="83.04" y1="85.55" x2="83.04" y2="95.36"/><line class="cls-1" x1="91.17" y1="85.55" x2="91.17" y2="95.36"/><line class="cls-1" x1="20.98" y1="98.59" x2="30.53" y2="102.88"/><line class="cls-1" x1="17.32" y1="102.88" x2="26.87" y2="107.17"/><path class="cls-1" d="M49.86,22.46a8.71,8.71,0,0,1,8.78-8.85c5,0,9.34,3.44,9.34,8.33"/><path class="cls-1" d="M59,33.11c-6,3.09-15.31-1.63-14.62-8.22.53-5,1.59-10.57,0-12.75,7.19-1.09,4.8,9.85,5.87,13.24,2,6.31,8.57,5.78,8.57,5.78h.35s7.27-.33,8.62-5.95c.82-3.47-1.37-14.16,5.82-13.07-1.58,2.18-.53,7.71,0,12.75.7,6.64-5.82,12.53-14.61,8.22v6.67"/></g></svg>