<svg id="Livello_3" data-name="Livello 3" xmlns="http://www.w3.org/2000/svg" viewBox="0 0 120 120"><defs><style>.cls-1,.cls-2{fill:none;stroke:#211f1f;stroke-width:4px;}.cls-1{stroke-miterlimit:10;}.cls-2{stroke-linecap:round;stroke-linejoin:round;}</style></defs><g id="Iusaaset-Bold"><path class="cls-1" d="M76.15,57.66a5,5,0,0,1-.06-1.19l-10.52.07c-3.92,1.1-3.94,3.21-3.94,3.21H59.37s-1-3.43-2.8-3.5-.92,5.57-.92,5.57a3.49,3.49,0,0,0-3.44,2.85,44.28,44.28,0,0,1-1.3,6.44"/><path class="cls-1" d="M50.91,71.11l-.1,16.67s-1.15,1.53,5.52,2.69a15,15,0,0,0,3.42.1,32,32,0,0,0,4-.64c2.35-.53,3.27-1.11,3.38-3.51l.88-5.7a1,1,0,0,1,1.19-.78,29.9,29.9,0,0,0,4.14.79c3.51.42,4.18-.15,4.43-.48.37-.49.59-.83.11-1.9s-.53-1.43.49-2.49c.43-.45.43-.45.43-1.55a28.22,28.22,0,0,0-.07-3.51c-.08-.91,2.19,0,2.49-.71.39-.91-2-6.49-4.62-11.07a3.87,3.87,0,0,1-.48-1.36"/><path class="cls-1" d="M55.65,61.82l.82,3.12a6.92,6.92,0,0,0,.93,2.14c.55.81,1.32,1.49,2,.33"/><path class="cls-1" d="M73.33,63.78s-4.64-3-8.94-.47"/><path class="cls-1" d="M66.69,88.39l23,6.67s5.47,1.7,6.41,4.26,0,7.47,0,7.47H22.44v-3.53a11.25,11.25,0,0,1,2-6.57,5.32,5.32,0,0,1,2.36-2.06l13.62-4"/><path class="cls-1" d="M40.45,99.07c-5.25-2.45-5.89-6.71-5.89-6.71"/><path class="cls-1" d="M82.18,92.88s-2.56,9.67-23,9.7a31.4,31.4,0,0,1-8.5-1.18"/><path class="cls-2" d="M105.86,80.68a8,8,0,0,0-3.57,2.25v23.84H96.12"/><path class="cls-2" d="M102.54,76.28s4.5,4.41,5.12,9.4"/><line class="cls-1" x1="82.01" y1="106.77" x2="86.35" y2="94.09"/><line class="cls-1" x1="88.02" y1="94.57" x2="88.02" y2="106.77"/><line class="cls-1" x1="30.81" y1="106.77" x2="29.23" y2="93.73"/><polyline class="cls-1" points="30.78 93.11 37.55 106.77 37.26 106.77"/><line class="cls-1" x1="50.81" y1="88.66" x2="50.73" y2="106.77"/><line class="cls-1" x1="40.45" y1="106.79" x2="40.45" y2="83.03"/><path class="cls-1" d="M51.51,69,47.76,85.72s-8.53-.79-10.93-7.24c-.49-3.11,1.91-12.92,1.91-12.92S31.6,67.83,31,71.24c0,0,.33-5,2.25-6.67.72-2.35-.48-3.79,1.44-5.22-.24-2.39-7.44.24-7.92-4.55a37.45,37.45,0,0,1,0-8.16l7.68,2.43a19.74,19.74,0,0,1,11.46-5.5c5.74-.84,17.23-.41,22.55-.15a8.75,8.75,0,0,1,5.4,2.22,11.33,11.33,0,0,1,3,3.78c.87,2.51,1.86-5.18,6-6.34,6.7-1.88,11.87,3.79,1.5,4.1-2.81.08,5,7.19-8.26,9.29"/><path class="cls-1" d="M26.74,54.8S12.83,74.93,12.34,95.13v11.66H24.57"/><line class="cls-1" x1="45" y1="43.72" x2="45" y2="37.46"/><line class="cls-1" x1="51.26" y1="43.24" x2="51.26" y2="37.46"/><line class="cls-1" x1="57.27" y1="43.24" x2="57.27" y2="37.46"/><line class="cls-1" x1="63.53" y1="43.24" x2="63.53" y2="37.46"/><line class="cls-1" x1="68.86" y1="43.24" x2="68.86" y2="37.46"/><line class="cls-1" x1="40.56" y1="37.14" x2="73.68" y2="37.14"/><ellipse class="cls-1" cx="58.38" cy="28.17" rx="12.91" ry="8.97"/><line class="cls-1" x1="90.03" y1="44.35" x2="94.56" y2="45.11"/><line class="cls-1" x1="45.47" y1="26.45" x2="33.37" y2="9.99"/><line class="cls-1" x1="71.29" y1="26.45" x2="81.68" y2="9.99"/></g></svg>