<svg id="Livello_3" data-name="Livello 3" xmlns="http://www.w3.org/2000/svg" viewBox="0 0 120 120"><defs><style>.cls-1{fill:none;stroke:#211f1f;stroke-miterlimit:10;stroke-width:4px;}</style></defs><g id="Ra-Regular"><path class="cls-1" d="M27.23,110.44H17.4V70.31a10,10,0,0,0-4.22-3.61"/><path class="cls-1" d="M17.1,59.65s-5.3,7.06-6,15.07"/><path class="cls-1" d="M79.56,39.38h0a4.12,4.12,0,0,0-1.28-2.62,9.11,9.11,0,0,0-4.17-2,4.53,4.53,0,0,0,.43-1.91,4.85,4.85,0,0,0-4.93-4.74H60a4.85,4.85,0,0,0-4.93,4.74,4.52,4.52,0,0,0,.43,1.9A9.11,9.11,0,0,0,50,39.38h0a5,5,0,0,0,.68,2.47,5.28,5.28,0,0,0,1.77,1.81,10.55,10.55,0,0,0-1.62,5.59V61.93A11.19,11.19,0,0,0,62.23,72.86h5.14A11.18,11.18,0,0,0,78.73,61.93V49.25a10.55,10.55,0,0,0-1.62-5.59A5.05,5.05,0,0,0,79.56,39.38Z"/><path class="cls-1" d="M78,45.52S87,47.7,87,55.27c0,7.77-8.06-6.76-8.06-6.76"/><path class="cls-1" d="M51.55,45.52s-8.92,2.18-8.92,9.75c0,7.77,8.06-6.76,8.06-6.76"/><path class="cls-1" d="M53.6,12.43s-2.22,2.9-6.69,7.89C40.59,27.37,48.36,37.77,50,40.4"/><path class="cls-1" d="M74.87,12.43s2.23,2.9,6.69,7.89c6.32,7.05-.3,16.66-2,19.29"/><path class="cls-1" d="M78.93,64.65s6.39,6.83.63,15"/><path class="cls-1" d="M50.43,64.65s-6.38,6.83-.62,15"/><polyline class="cls-1" points="54.81 70.61 54.81 92.62 61.24 92.62 61.24 72.86"/><polyline class="cls-1" points="68.44 72.29 68.44 92.62 74.87 92.62 74.87 70.12"/><path class="cls-1" d="M54.29,71.51,33.42,76.18s-8.24,1.31-8.87,8.13-4.62,26.13-4.62,26.13H30.57l6.1-16.79a1,1,0,0,1,1.87.1c1.76,7,5.16,16.69,5.16,16.69H79.38L90.11,94a.73.73,0,0,1,1.35.41l.28,16h11.72V91.16c0-13.5-5.67-13.73-5.67-13.73L75.17,71.32"/><path class="cls-1" d="M78.93,40.4h0c18.16,2.38,31,18.44,31,38.12V97.07h-6.51"/><line class="cls-1" x1="21.94" y1="97.07" x2="34.07" y2="99.94"/><line class="cls-1" x1="91.53" y1="102.65" x2="103.46" y2="102.65"/><line class="cls-1" x1="64.37" y1="27.65" x2="64.37" y2="18.57"/><line class="cls-1" x1="58.63" y1="27.99" x2="53.17" y2="19.82"/><line class="cls-1" x1="70.99" y1="27.9" x2="76.45" y2="19.73"/><path class="cls-1" d="M61.24,78.48s4.23,3,7.2,0"/><path class="cls-1" d="M36.45,75.51s6.18,10.92,18.36,13.06"/><path class="cls-1" d="M91.69,75.51S87,86.43,74.87,88.57"/><line class="cls-1" x1="61.24" y1="89.32" x2="68.44" y2="89.32"/></g></svg>