<svg id="Livello_3" data-name="Livello 3" xmlns="http://www.w3.org/2000/svg" viewBox="0 0 120 120"><defs><style>.cls-1{fill:none;stroke:#211f1f;stroke-miterlimit:10;stroke-width:4px;}</style></defs><g id="Khnum-bold"><path class="cls-1" d="M24.66,101s2.79,6.41,8.77,8.56"/><path class="cls-1" d="M43.92,45.88s-2-7.62.43-12.14,6.36-7.6,6.36-9.8"/><path class="cls-1" d="M77,45.88s2-7.68-.43-12.19-6.36-7.61-6.36-9.81"/><path class="cls-1" d="M50.65,24.41C51.44,23,45.54,24,46,21c.5-3.16,8.37-3,9.94-1.38s3.23,3-2.68,12.23C49,39.67,52.16,43,52.16,43"/><path class="cls-1" d="M70.32,24.42c-1.43-.93,4.9-.48,4.62-3.5-.3-3.18-8.38-3-9.94-1.38s-3.24,3,2.68,12.23c4.24,7.85,1.12,11.17,1.12,11.17"/><path class="cls-1" d="M67.11,18.62s4.54-5.14,2.14-5.72a6.59,6.59,0,0,0-4,.7,1.55,1.55,0,0,1-2.06-.74,2.28,2.28,0,0,0-2.29-1.43A2.56,2.56,0,0,0,58.39,13a1.08,1.08,0,0,1-1.48.48,6.09,6.09,0,0,0-4.13-.69C50.55,13.49,56,19.6,56,19.6"/><path class="cls-1" d="M64.15,55.9c.72-2.16,1.92-5.13,3.7-6.52.17-.12.25-.14.26-.16h.15c2.28-.2,4.07.86,6.34,1.74,3.85,1.72,9,1.65,12.19-1.43a6.57,6.57,0,0,1,3.6-1.58,1.36,1.36,0,0,1,.54.07c1.78.63,3.89,2.19,5.94,2.91a11.58,11.58,0,0,0,9.78-.7,1.78,1.78,0,0,0,.61-2.63l0,0a1.92,1.92,0,0,0-2.37-.62c-3.08,1.53-5.93.91-9.07-1.23-1.43-.88-3.67-2.34-5.78-2.14a11.54,11.54,0,0,0-6.16,2.09c-2.37,1.83-4.32,1.4-6.81.23l-.12-.07C71.15,42.62,65.49,41.06,61,47.1c-.19.26-.37.51-.54.77-.18-.26-.35-.51-.54-.77-4.48-6-10.13-4.48-15.9-1.29l-.12.07c-2.49,1.17-4.44,1.6-6.81-.23a11.61,11.61,0,0,0-6.17-2.09c-2.1-.2-4.34,1.26-5.77,2.14-3.14,2.14-6,2.76-9.08,1.23a1.91,1.91,0,0,0-2.36.62l0,0a1.77,1.77,0,0,0,.61,2.63,11.56,11.56,0,0,0,9.77.7c2.06-.72,4.16-2.28,5.94-2.91a1.41,1.41,0,0,1,.55-.07,6.51,6.51,0,0,1,3.59,1.58c3.22,3.08,8.35,3.15,12.2,1.43,2.26-.88,4-1.94,6.34-1.74h.15s.09,0,.26.16c1.77,1.39,3,4.36,3.7,6.52"/><path class="cls-1" d="M71,58.57C65,54.68,58,54.4,52.75,57.16a15.42,15.42,0,0,0-5.87,5.73,17.66,17.66,0,0,0-2.07,13.28,16.78,16.78,0,0,0,7,10c8.55,5.43,19.41.86,21.11-1.88.72-1.17.92-2,.17-2.47a1.23,1.23,0,0,0-.93,0c-1.42.45-8.77,3.55-13.17.83-2.46-1.52-3.5-4.77-3.38-7.55a8,8,0,0,1,2.18-4.9c3-3.5,7.5-3.34,9.62-3.41"/><path class="cls-1" d="M52.75,57.16s-15.4-1-21.38,8.41a23.25,23.25,0,0,0-1.57,3A69.18,69.18,0,0,1,17.24,87a17.25,17.25,0,0,0-4.62,12v10.87H108.4v-4.24a9.15,9.15,0,0,0-7.33-5.1L73.51,97.65"/><path class="cls-1" d="M70.73,72.49c-.53,1.1-1,2.2-1.57,3.3-1.64,2.49-1.23,1.57-4.2,2.45-1.46.44-2.27-2.69-2-4.1.76-3.68,4.5-5.5,5.25-5.85,0,0-3.38-10.35,7.1-10.8a8.78,8.78,0,0,1,8.16,5.4c9.29,5.4,9.26,8.4,13,12.9,6.23,4.8,6.23,6.75,4.68,9.83s-.36,4.57-4.68,5.47a7.67,7.67,0,0,1-6.74-1.42S78.12,90.91,75.09,91.3c-2,.25-1.88,3.85-1.58,6.35.28,2.29-.93,3.47-2.9,4.79-1.51,1-3.77,1.65-9.16,1"/><line class="cls-1" x1="61" y1="88.75" x2="61.45" y2="109.81"/><path class="cls-1" d="M47.94,109.81l1.3-7.14-6.36-3.39L18.8,102c-3.34.38-5.87,2.51-6,5.09l-.16,2.71"/><path class="cls-1" d="M101.07,100.47s-.56,7.2-16.21,9.34"/><path class="cls-1" d="M73.63,69.87a7,7,0,0,1,4.86-1.73c2.61.29,3.48,3.11,3.48,3.11"/><circle class="cls-1" cx="60.48" cy="36.7" r="3.55"/></g></svg>