<svg id="Livello_3" data-name="Livello 3" xmlns="http://www.w3.org/2000/svg" viewBox="0 0 120 120"><defs><style>.cls-1{fill:none;stroke:#211f1f;stroke-miterlimit:10;stroke-width:4px;}</style></defs><g id="Kneph-Bold"><ellipse class="cls-1" cx="91.65" cy="17.89" rx="0.35" ry="0.09"/><path class="cls-1" d="M86.47,14.78l3.19-.67c2.42-.6,5.41.06,6.09.66,0,0,5.1,3.69,8.35,4s-.17,4.46-7.55,4.22c-4.67.77-6,.21-8-.3l-1.22-.3A45.28,45.28,0,0,0,80.12,25c-12.13,4.82-6,13.51-3.94,25.44,1.19,7.56-.49,16.68-7.54,21.07C63,75.06,55.5,74.41,50.11,70.82c-7.57-5.21-8.42-12.73-5.89-21a151.61,151.61,0,0,0,3-15.07c1.36-10.45-1.43-14.62-11.31-15.5-5.35-.6-12,1.63-14.91,5.74-1.84,2.55-2,6.12-1.33,9.24.77,3.7,2.85,6.14,4.93,9.68a21,21,0,0,1,2.94,8.41,11.89,11.89,0,0,1-3.08,9.08c-2.64,3.18-6,4.59-7.6,7.79-.94,2.49,1.24,5,2.35,7.23C22,82.33,22.07,89,21.38,95.08c-.68,4.77-1.63,9.65-4.14,13.82a2.08,2.08,0,0,1-3.17.49l0,0a2.06,2.06,0,0,1-.4-2.61,12.67,12.67,0,0,0,.7-1.43,41.51,41.51,0,0,0,2.83-18.19,21.72,21.72,0,0,0-2.51-9.3c-.08-.12-.23-.43-.31-.54-1.81-2.7-3.29-6.35-2-9.75,2.94-7.26,13.23-8.65,9.32-17.86-1.4-3.67-3.87-6.12-5.74-10a21,21,0,0,1-2-8.71c-.46-12.68,13.64-19.08,24.62-17.18,20.89,2.63,14.9,23.15,11.87,37.51-1.07,4.17-2.05,8.56,1.09,12.07a11.3,11.3,0,0,0,10.9,3.48c5.24-1.18,7.23-6.93,7-11.92,0-3.69-1.1-6.85-2.11-10.6C64.27,34.46,64,25,74.31,19.43a34.32,34.32,0,0,1,6.07-2.56Z"/><path class="cls-1" d="M55.41,72.83l-.09,6.41L53.7,90.93l.75,7.56a7.23,7.23,0,0,0,2.24,5.12,6.77,6.77,0,0,0,3.39,1.59c2.52.43,8,1.73,8,4.72H50.26L48.37,90.8l1.56-11.3L47.49,68.39"/><path class="cls-1" d="M63.41,73.17S65,73.9,65,80.08s3,17.24,5.08,20.49-.78,2.44,0,9.35H90a3,3,0,0,0-2.32-2.85c-8.37-2-11.74-3.48-13.9-12.36-2.93-12-5-23.66-5-23.66"/><path class="cls-1" d="M96.55,23V39.75s2.55,2.11,3.88,0"/></g></svg>