<svg id="Livello_3" data-name="Livello 3" xmlns="http://www.w3.org/2000/svg" viewBox="0 0 120 120"><defs><style>.cls-1{fill:none;stroke:#211f1f;stroke-linecap:round;stroke-linejoin:round;stroke-width:4px;}</style></defs><g id="Maat-Bold"><path class="cls-1" d="M58.34,44.42s-19.08,2.1-29,0c0,0-2.81-.49-3.39-2.78a2.25,2.25,0,1,1,4.21-1.59c.45,1.41-4.35,21,1.39,27.28"/><path class="cls-1" d="M30.19,44.58s-16.56,8-18.66,18.35"/><path class="cls-1" d="M45.84,85.19s8.23,2.61,8.26-6.63c.26-3.59,0-4.26,0-4.26s6.41.4,6.92-2a5.84,5.84,0,0,0,0-3.45s2-.27,1.92-5.06c1.8,0,3.08.54,3.33-.93s-4.86-7.6-4.86-7.6l-1-5.43s-8.2-.94-9,2.52-4.22,6.12-5.57,2.26S36.3,54.08,40,59.14s3,7,5.83,6.92C46.29,70.05,45.84,85.19,45.84,85.19Z"/><path class="cls-1" d="M60.38,49.83s-.9-5.33-3.84-8.65c-1.23-1.39-5.52-2.88-11-2.88"/><path class="cls-1" d="M53.7,81.63l32.91-18.7L109.49,35V72.58s-1.51,10.8-6.9,14.31-38.7,23.65-38.7,23.65L46,99.19"/><path class="cls-1" d="M45.57,45.28V18.83s-1.43-5.42-6-4.35-2.51,2.86-2.51,2.86a3.5,3.5,0,0,1,3.64,4c-.3,4.14-2.92,11.93-2.92,11.93s7.86.36,7.74,1.74"/><line class="cls-1" x1="24.38" y1="99.19" x2="35.61" y2="106"/><path class="cls-1" d="M87.4,72.5s-16.77,12.08-28,21.19c4.77,8.2-1,13.36-1,13.36"/><path class="cls-1" d="M45.84,85.19V110H35.65l-.38-28.07s-9.22.66-14.73,5.6,3.84,11.7,3.84,11.7V110H12.5V87.81c0-13.9,9.45-32,16.75-42.31,3.66-5.17,9.49-7.57,16.32-7.2"/></g></svg>