<svg id="Livello_3" data-name="Livello 3" xmlns="http://www.w3.org/2000/svg" viewBox="0 0 120 120"><defs><style>.cls-1{fill:none;stroke:#211f1f;stroke-linecap:round;stroke-linejoin:round;stroke-width:4px;}</style></defs><g id="Min-Bold"><path class="cls-1" d="M31,50.06h0L55.18,17a21,21,0,0,1,3.51-3.66c1.67-1.41,4.58-1,6.47-.08s2.39,3.25.2,6.62l-18,30.2"/><path class="cls-1" d="M48.88,50,65.62,23.57s2.06-3.41,5.16-8c2.29-3.41,11.88-3.08,9.55,3.89-.19.58-5.83,12.27-7.84,17-5.92,13.22-5.64,13.61-5.64,13.61"/><path class="cls-1" d="M59.27,82.38l7.58-32.32c-11.67-.16-35.85,0-35.85,0s.79,5.35,1.62,9.41a41.33,41.33,0,0,1,9.44.25,7.74,7.74,0,0,1,5.22,3s2,.12,3.32,0c1.66-2.4,2.88-2.84,3.44-2.33,1.5,1.38-.56,6.79-.56,8.75,1,.16,1.28.51,2.3.67q3,12.65,3.45,12.55s0,0,0-.05l2,14.13s-6.4,6.28-10.89,6.13c-7.46,0-9.87-5-9.87-5L38.3,85.11H31.48a7.48,7.48,0,0,0,0-4.56c-.42-1.2-1-1.62-1.24-2.73a4.76,4.76,0,0,1,.08-2.23A1.27,1.27,0,0,0,29.24,74c-.78-.1-1.5-.41-2.2-.49s-1-1.16-.66-1.8c.67-1.22,1.35-2.46,2-3.73.91-1.74,3.09-3.83,4.22-8.52"/><path class="cls-1" d="M31.63,84.75l-2.19,6.63a6.09,6.09,0,0,1-2.84,3.44c-1.3.72-2.91,1.07-4.15-.41"/><path class="cls-1" d="M61.61,95.81c5.15-.08,5.15-.08,11.65-.37,2.12-2.92,7-5.38,10.49-6.6l15-7.63V49.36L94,40.24l4.75-14.39h9.91L108.5,84.3a7.29,7.29,0,0,1-3.25,6L76,109.72H11.53a9.19,9.19,0,0,1,7.66-9.07L40.4,97.06"/><polyline class="cls-1" points="65.4 57.26 69.96 60.79 69.96 95.58"/><path class="cls-1" d="M38,85.09c4.29-.82,6.91-2.41,8.52-9.19"/><path class="cls-1" d="M50.17,72.11s2,1.54,3.31-4.33"/><path class="cls-1" d="M36.26,65.92a8.13,8.13,0,0,1,3.39-.42A8.48,8.48,0,0,1,44,67.15"/><path class="cls-1" d="M73.26,95.44c.69,9.65-6.5,14.28-24.38,14.28C28.17,109.72,27,99.32,27,99.32"/><line class="cls-1" x1="98.71" y1="49.36" x2="108.57" y2="49.36"/><line class="cls-1" x1="98.71" y1="54.04" x2="108.57" y2="54.04"/><path class="cls-1" d="M95.81,34.61h2.47l-.76,5.18s2.93,2.09,3.77,3.85"/></g></svg>