<svg id="Livello_3" data-name="Livello 3" xmlns="http://www.w3.org/2000/svg" viewBox="0 0 120 120"><defs><style>.cls-1{fill:none;stroke:#211f1f;stroke-linecap:round;stroke-linejoin:round;stroke-width:4px;}</style></defs><g id="Montu-Bold"><path class="cls-1" d="M66.49,33.09,76.5,16a7.19,7.19,0,0,1,2.44-2.75c2.29-1.41,5.39.3,5,2.83A43.14,43.14,0,0,1,81.5,21,207.6,207.6,0,0,1,71,39.11"/><path class="cls-1" d="M57.37,33.06l10.84-18.6a7.19,7.19,0,0,1,2.44-2.75c2.29-1.41,5.39.3,5,2.83a41.54,41.54,0,0,1-2.43,4.92A126.33,126.33,0,0,1,65.67,32.9"/><ellipse class="cls-1" cx="61.97" cy="39.88" rx="7.76" ry="9.03" transform="translate(15.34 96.95) rotate(-83.51)"/><path class="cls-1" d="M71,39.11c.25.44,2,2.39,3.2,3.85"/><path class="cls-1" d="M52.3,41.5a3.3,3.3,0,0,1-2.43-1.27c-.57-.74-.64-2.62-.63-3.71.14-.28-1.12-.53-1.26-.89"/><line class="cls-1" x1="51.06" y1="95.35" x2="60.17" y2="95.35"/><line class="cls-1" x1="67.58" y1="95.35" x2="76.93" y2="95.35"/><path class="cls-1" d="M61,47.58a44.1,44.1,0,0,1,32.9,11c15.4,13.54,17.51,23.55,17.51,23.55V95.35h-8.72V89.08s-2.3-5-6.13-6.56-19.58-1.39-19.58-1.39V99.94H67.58V75.64l-2.91-3a.76.76,0,0,1,.17-1.18c2-1.14,6.73-4.41,7-9.47C72.21,55.55,67.52,47.32,61,47.58Z"/><path class="cls-1" d="M54.79,73.34s-3.13,1.4-3.64,3.92,0,22.68,0,22.68h9V83.2"/><path class="cls-1" d="M51,91s-13.84-1.85-13.84-8.49c3.16-1.39,13.56-1.39,13.56-1.39"/><path class="cls-1" d="M67.58,91.07c-2.58,0-5.12,0-7.41,0"/><path class="cls-1" d="M91.1,81.55s-2.79,8.6-14.17,9.4"/><path class="cls-1" d="M37.14,82.52s-4.55.36-6.15,2.58-1.92,8.58-1.92,8.58l-1,16.44H42.5l1.56-15.41L48,110.12H83.48s2.1-11.27,6.9-14.77v14.77h12.26V95.35"/><line class="cls-1" x1="28.85" y1="94.71" x2="44.06" y2="94.71"/><line class="cls-1" x1="90.38" y1="95.41" x2="106.41" y2="95.36"/><path class="cls-1" d="M28.05,110.12H18.7v-25a9.27,9.27,0,0,0-4.74-4"/><path class="cls-1" d="M17.17,77.26s-4.05,2.14-4.79,9.95"/><path class="cls-1" d="M59.9,47.43l-14.34,3L43.7,53.27s-4.56,1.54-4.56,5.65c2.84-1.53,7.73,0,10.4,4.12,0,0,8.36,16.44,10.36,20.21,1.18.61,5.44,2.41,7.68-1"/><path class="cls-1" d="M52.3,55.1s4.23,1.93,5.75-1.17"/><path class="cls-1" d="M63.88,63.25s9.1-.86,6.91-7.56"/></g></svg>