<svg id="Livello_3" data-name="Livello 3" xmlns="http://www.w3.org/2000/svg" viewBox="0 0 120 120"><defs><style>.cls-1{fill:none;stroke:#211f1f;stroke-miterlimit:10;stroke-width:4px;}</style></defs><g id="Mut-Bold"><path class="cls-1" d="M68.49,43.32S70.12,34,64.69,26a67.24,67.24,0,0,0-5.39-7.1,11.23,11.23,0,0,1-2.55-5.57,2.87,2.87,0,0,0-4-2.3c-2.23.83-.23,4.49.42,5.3,0,0,.1,22.47,1.84,27.15"/><path class="cls-1" d="M65.11,26.65h9.25s-2.61,6.39-3,17.13"/><path class="cls-1" d="M53.57,30.55c.35-.36-8.08-19.73-8.08-19.73H41.91l12,33"/><path class="cls-1" d="M65.05,26.29s9.7-2.65,12.08-9.37c1.22-3.43.27-7.12-4.9-6.12a2.92,2.92,0,0,0-1.32,5c1,.72,3.53.5,2.41-2"/><path class="cls-1" d="M85.23,59.24A4.41,4.41,0,0,1,85.17,58l-11.85.07c-4.41,1.14-4.43,3.32-4.43,3.32H66.34s-1.13-3.55-3.14-3.61-1,5.75-1,5.75a3.87,3.87,0,0,0-3.88,2.95,42.07,42.07,0,0,1-1.46,6.64"/><path class="cls-1" d="M56.82,73.13l-.11,17.23s-1.29,1.58,6.21,2.77a19.05,19.05,0,0,0,3.85.11,42,42,0,0,0,4.54-.66C74,92,75,91.43,75.12,89l1-5.89a1.09,1.09,0,0,1,1.35-.81,36.64,36.64,0,0,0,4.65.82c4,.43,4.7-.15,5-.49.42-.51.66-.86.12-2s-.59-1.48.55-2.58c.49-.47.49-.47.49-1.6a27,27,0,0,0-.08-3.63c-.09-.94,2.46,0,2.81-.74.43-.93-2.24-6.69-5.21-11.42a3.87,3.87,0,0,1-.54-1.41"/><path class="cls-1" d="M62.16,63.54l.92,3.22a7,7,0,0,0,1,2.21c.62.84,1.49,1.54,2.22.34"/><path class="cls-1" d="M82.06,65.56S76.84,62.48,72,65.08"/><path class="cls-1" d="M74.59,91l25.9,6.89s6.16,1.76,7.22,4.4,0,7.72,0,7.72H24.77v-3.64a11,11,0,0,1,2.29-6.79,5.88,5.88,0,0,1,2.66-2.13l15.33-4.14"/><path class="cls-1" d="M45.05,102c-5.91-2.54-6.63-6.94-6.63-6.94"/><path class="cls-1" d="M92,95.62s-2.88,10-25.83,10a38.41,38.41,0,0,1-9.57-1.22"/><line class="cls-1" x1="91.83" y1="109.97" x2="96.72" y2="96.87"/><line class="cls-1" x1="98.6" y1="97.37" x2="98.6" y2="109.97"/><line class="cls-1" x1="34.19" y1="109.97" x2="32.42" y2="96.5"/><polyline class="cls-1" points="34.16 95.86 41.79 109.97 41.46 109.97"/><line class="cls-1" x1="56.71" y1="91.26" x2="56.62" y2="109.97"/><line class="cls-1" x1="45.05" y1="109.99" x2="45.05" y2="85.45"/><path class="cls-1" d="M57.5,70.92l-4.22,17.3s-9.6-.81-12.31-7.48c-.54-3.21,2.15-13.34,2.15-13.34s-8,2.35-8.74,5.87c0,0,.37-5.2,2.53-6.89.81-2.43-.54-3.92,1.62-5.4-.27-2.47-8.37.25-8.91-4.69a35.65,35.65,0,0,1,0-8.44l8.64,2.51s4.32-4.52,12.9-5.67c6.46-.87,19.39-.43,25.38-.16a10.32,10.32,0,0,1,6.08,2.29A11.9,11.9,0,0,1,86,50.73c1,2.59,2.1-5.36,6.74-6.55,7.54-2,13.36,3.91,1.68,4.23-3.16.09,5.63,7.44-9.29,9.6"/><path class="cls-1" d="M29.62,56.29S14,77.08,13.4,98v12H27.18"/><line class="cls-1" x1="93.66" y1="45.49" x2="98.34" y2="46.28"/></g></svg>