<svg id="Livello_3" data-name="Livello 3" xmlns="http://www.w3.org/2000/svg" viewBox="0 0 120 120"><defs><style>.cls-1{fill:none;stroke:#211f1f;stroke-linecap:round;stroke-linejoin:round;stroke-width:4px;}</style></defs><g id="Nefertem-Bold"><path class="cls-1" d="M45,69.67c-2.43,0-3.29.47-3.63-.85s7-8.52,7-8.52l1.23-4.36s14.74.21,15.78,3.32,3.17,6.39,5,2.92,6.29-5.32,5.44.74c-.89,6.34-3,8.9-6.87,8.78-.27,6.54-.3,19.64-.3,19.64-.42,2.12-10.91,4.25-10-2-.34-3.23-.76-7.13-.76-7.13L53.7,80.68c-1.91-.71-7.28.14-7.28-.4Z"/><path class="cls-1" d="M49.62,55.94s-.75-2.95,1.82-6.47c4.54-6.21,10.48-6.41,16.48-6.41,0,0,23.23-4.68,27.25,24.21C96.18,83,88,83,80,86"/><polyline class="cls-1" points="79.97 85.97 79.76 106.88 68.66 106.88 68.66 91.11"/><path class="cls-1" d="M52.59,62.55a18.41,18.41,0,0,1,6,.37"/><path class="cls-1" d="M96.29,89.62s-5.83,12.91-16.19,13.86"/><path class="cls-1" d="M17.4,77.11a9.44,9.44,0,0,1,4.19,2.56v27.21H41.33l2.78-5.46,2.76,5.46H91.2l2.54-4.78,1.89,4.78H110V98.31"/><path class="cls-1" d="M21.29,72.09s-5.26,5-6,10.73"/><path class="cls-1" d="M46.42,80.28,43.1,92.85a5.79,5.79,0,0,1-1.28,2.39c-1,1.11-2.82,2.16-5.71,1.18"/><path class="cls-1" d="M52.59,80.45s7.22-1,8.25-4.11"/><path class="cls-1" d="M58.35,86.68,34.57,90.85s-5.79,2.5-5.71,7.28c.08,5.43,0,8.75,0,8.75"/><path class="cls-1" d="M80.5,86.86,104.29,91S110,93.53,110,98.31"/><path class="cls-1" d="M46.4,88.78s-1.24,16.85,22.25,15.9"/><line class="cls-1" x1="67.92" y1="43.06" x2="67.92" y2="35.52"/><polygon class="cls-1" points="67.92 10.8 49.52 10.8 67.92 35.52 86.32 10.8 67.92 10.8"/><path class="cls-1" d="M49.52,10.81,64.13,23.16,67.56,11a.33.33,0,0,1,.63,0l2.55,12.1L86,10.81"/><line class="cls-1" x1="68.65" y1="101.39" x2="79.82" y2="101.39"/></g></svg>