<svg id="Livello_3" data-name="Livello 3" xmlns="http://www.w3.org/2000/svg" viewBox="0 0 120 120"><defs><style>.cls-1,.cls-2{fill:none;stroke:#211f1f;stroke-width:4px;}.cls-1{stroke-linecap:round;stroke-linejoin:round;}.cls-2{stroke-miterlimit:10;}</style></defs><g id="Neith-Bold"><path class="cls-1" d="M14.27,90.81a12.46,12.46,0,0,1,4.48,4v14.28h12"/><path class="cls-1" d="M17.31,86.92s-3.83,2.14-4.53,10"/><path class="cls-1" d="M49.25,51.19s22.5,2.47,35.52,0c0,0,3.7-.58,4.46-3.27,1.12-4-4.51-4.8-5.54-1.87-.59,1.66,5.73,24.72-1.82,32.09"/><path class="cls-1" d="M83.69,51.38S105.48,60.73,108.24,73"/><path class="cls-1" d="M68.19,108.7l1.55-29.16S71.92,71,75.31,66.83s0-11.85-3.23-5.41c-2.17,4.33-1.59,3.32-1.59,3.32H68.64a16.58,16.58,0,0,0-13.49-8.36,25.85,25.85,0,0,1-6.9-.29s-.54-8.65,9.48-11.71c8.72-2.66,18.1.12,24.62,6.9A126.77,126.77,0,0,1,99,72.44c9.25,14.45,9.25,19.92,9.25,19.92v16.7"/><line class="cls-1" x1="79.04" y1="88.04" x2="80.89" y2="108.98"/><path class="cls-1" d="M79,88s17.64,2.26,19.88,3.81c2.85,1.39,3.19,12,3.19,12v5.12H90.35v-6.25c-4.91,3.25-3.2,6.38-3.2,6.38l-38.9-.13c-.89-3.9-.46-5.22-1.47-6.36-.22-.26-1.23-.74-3,.46l-2.67,6H29.55L34.49,93.4c1.57-5.22,23.65-6.7,23.65-6.7S59.2,95.81,69,94.21"/><path class="cls-1" d="M47.24,88.16s3,16,21,15.1"/><path class="cls-1" d="M80.23,101.83A14.57,14.57,0,0,0,90.35,89.66"/><path class="cls-1" d="M48.25,54.48a38.26,38.26,0,0,1-.42,4.06c-.14,1-3.45,7.42-4.68,10S46,70.59,46,70.59s.19,6.47,1.28,8.62S58.14,79,58.14,79V86.7"/><path class="cls-1" d="M48.25,55.42l-.42,3.12c-.14,1-3.45,7.42-4.68,10S46,70.59,46,70.59s.19,6.47,1.28,8.62S58.14,79,58.14,79V86.7"/><path class="cls-1" d="M73.45,69.71s-4.6,5.33-4.6,0"/><path class="cls-2" d="M52,63.3s1.18-3.36,7.4.86"/><rect class="cls-1" x="59.91" y="20.08" width="10.12" height="17.92" rx="4.97"/><path class="cls-1" d="M62.78,37.47s-1,9.63-6.7,5.23"/><path class="cls-1" d="M67.17,37.47s1,9.63,6.7,5.23"/><path class="cls-1" d="M62.78,20.08s-1-9.62-6.7-5.22"/><path class="cls-1" d="M67.17,20.08s1-9.62,6.7-5.22"/></g></svg>