<svg id="Livello_3" data-name="Livello 3" xmlns="http://www.w3.org/2000/svg" viewBox="0 0 120 120"><defs><style>.cls-1{fill:none;stroke:#211f1f;stroke-linecap:round;stroke-linejoin:round;stroke-width:4px;}</style></defs><g id="Nekhmet-Bold"><path class="cls-1" d="M66.85,55.06s2.32-3-2.88-5.37S52.55,54,57.08,60.94c4.57,7.64,16.44,3,18.36-4.78S75.76,49.39,74,41.5,69.79,30.93,77.78,32c7.72,1,14.3,3,20.58,4-.53-4.79-9.07-7-9.07-7-4.36-1.54-8.53-1.45-13.11-4.11,2.26-1.94,21.35-1.42,23.83,2.07.57-4.65-4.44-11.82-14-10.69-6.41.76-13.1-3.28-20.11-1.8s-6.55,11.77-6.55,11.77S61,34.23,64.08,39.41,69.85,52.34,66.85,55.06Z"/><path class="cls-1" d="M63.15,64.79V87H49.53l-.46-28.54-22,6.08s-4.37,2.26-4.39,6.67c0,7.76,0,14,0,14"/><path class="cls-1" d="M22.65,83.93v25.62H36.12V80.41s4.5,10.7,10.65,29.14H80.6l2.7-17,7.87-8.64-2.93-6h5.14v31.58H108V69.8c0-4.7-3.94-5.28-3.94-5.28L76,53.76"/><path class="cls-1" d="M90.19,59.21S85,76.51,63.15,79"/><path class="cls-1" d="M49.4,77.24a24.11,24.11,0,0,1-17.55-14"/><path class="cls-1" d="M22.52,85.63l-11.29,0,0-19.71c.13-5.58,3.79-10.84,8.87-14.14C30,45.3,34.9,42,37,36.24c5.35-14.75,12.44-25.82,27.87-23,2,.37,2.3.79,2.3.79"/><line class="cls-1" x1="44.38" y1="102.51" x2="81.72" y2="102.51"/><line class="cls-1" x1="42.9" y1="74.99" x2="49.73" y2="102.51"/><line class="cls-1" x1="82.88" y1="70.22" x2="73.72" y2="102.51"/><line class="cls-1" x1="36.12" y1="102.51" x2="22.65" y2="102.51"/><line class="cls-1" x1="107.97" y1="102.51" x2="93.32" y2="102.51"/><path class="cls-1" d="M67.16,19.88s5.57-1.29,6.56.91"/></g></svg>