<svg id="Livello_3" data-name="Livello 3" xmlns="http://www.w3.org/2000/svg" viewBox="0 0 120 120"><defs><style>.cls-1,.cls-2{fill:none;stroke:#211f1f;stroke-width:4px;}.cls-1{stroke-linecap:round;stroke-linejoin:round;}.cls-2{stroke-miterlimit:10;}</style></defs><g id="Nephthys-Bold"><path class="cls-1" d="M49,55.46s22.85,2.34,36.07,0c0,0,3.76-.54,4.53-3.09C90.74,48.63,85,47.82,84,50.59,83.37,52.17,89.79,74,82.12,81"/><path class="cls-1" d="M84,55.64S106.1,64.5,108.9,76.08"/><path class="cls-1" d="M68.23,109.91,69.81,82.3s2.21-8.07,5.65-12,0-11.22-3.27-5.12c-2.21,4.09-1.62,3.14-1.62,3.14H68.69A16.83,16.83,0,0,0,55,60.37a28,28,0,0,1-7-.27S47.44,51.92,57.62,49a25.89,25.89,0,0,1,25,6.53,122.47,122.47,0,0,1,16.9,20c9.39,13.68,9.39,19.12,9.39,19.12l.18,15.47-8,0"/><line class="cls-1" x1="79.25" y1="90.34" x2="81.14" y2="110.17"/><path class="cls-1" d="M79.25,90.34S97.16,92.49,99.44,94c2.89,1.31,3.24,11.32,3.24,11.32v4.84H90.74v-5.91c-5,3.08-3.25,6-3.25,6L48,110.12c-.91-3.69-.47-4.94-1.49-6-.23-.24-1.25-.69-3,.44l-2.71,5.71H29l5-14.82c1.61-5,24-6.35,24-6.35s1.07,8.63,11,7.11"/><path class="cls-1" d="M47,90.46s3.1,15.15,21.3,14.3"/><path class="cls-1" d="M80.46,103.41s8.81-2.08,10.28-11.53"/><path class="cls-1" d="M48,58.58a33.48,33.48,0,0,1-.43,3.84c-.14,1-3.5,7-4.75,9.43s2.85,2,2.85,2S45.86,80,47,82,58,81.83,58,81.83v7.25"/><path class="cls-1" d="M48,59.47l-.43,3c-.14,1-3.5,7-4.75,9.43s2.85,2,2.85,2S45.86,80,47,82,58,81.83,58,81.83v7.25"/><path class="cls-1" d="M73.58,73s-4.67,5-4.67,0"/><path class="cls-2" d="M51.8,66.93s1.2-3.19,7.51.81"/><path class="cls-1" d="M18.14,89.52a4.4,4.4,0,0,1-2.43-.45,4.45,4.45,0,0,1-2.09-4L9.79,79.85H26.06c-1.33,1.75-2.67,3.49-4,5.23a5.19,5.19,0,0,1-2.12,3.81A4.36,4.36,0,0,1,18.14,89.52Z"/><polyline class="cls-1" points="17.53 89.83 17.53 110.25 29.6 110.25"/><polyline class="cls-1" points="71.1 22.3 71.1 48.07 59.81 48.07 59.81 22.57"/><path class="cls-1" d="M65.52,23.26c7.14,0,12.93-4.42,12.93-9.89H52.6C52.6,18.84,58.38,23.26,65.52,23.26Z"/><polyline class="cls-1" points="71.1 34.88 66.4 34.88 66.4 48.07"/></g></svg>