<svg id="Livello_3" data-name="Livello 3" xmlns="http://www.w3.org/2000/svg" viewBox="0 0 120 120"><defs><style>.cls-1{fill:none;stroke:#211f1f;stroke-linecap:round;stroke-linejoin:round;stroke-width:4px;}</style></defs><g id="Nun-Bold"><path class="cls-1" d="M49.85,37.44s23.74,2.34,36.05,0c0,0,3.5-.55,4.22-3.1,1.06-3.75-4.26-4.57-5.24-1.79C84.32,34.13,90.3,56,83.16,63"/><path class="cls-1" d="M84.88,37.62s20.61,8.88,23.22,20.5"/><path class="cls-1" d="M63.73,80.92s-5.66,1.28-8.22-2.6c-.28-3.85-1-9.09-1-9.09s-7.11.42-7.68-2.14,0-3.71,0-3.71S44.6,63.09,44.74,58c-2,0-3.41.58-3.7-1s5.41-8.16,5.41-8.16L47.58,43s11.2-.34,12.05,3.37c.28,1.2.24,2.95,1.07,2.95,1.13,0,2.35.81,3-1.19,1.41-4.16,10.59-.57,6.47,4.86s-3.27,7.56-6.47,7.42C63.23,64.66,63.73,80.92,63.73,80.92Z"/><path class="cls-1" d="M47.58,43s1-5.71,4.27-9.28C53.21,32.2,58,30.6,64,30.6"/><path class="cls-1" d="M64,38.09V16.4a5.8,5.8,0,0,1,6.61-3.56"/><line class="cls-1" x1="64.02" y1="108.27" x2="63.73" y2="80.92"/><path class="cls-1" d="M92.78,108.16,96.28,95a15.79,15.79,0,0,0,.62-9.42C92.69,77.52,73,79.71,73,79.71l.7,28.56"/><path class="cls-1" d="M64,30.6c8.5-.41,17.48,2.27,22,8,9.09,11.52,20.85,31.74,20.85,47.27v22.19L64,108.27"/><path class="cls-1" d="M48.43,68.55l-3,20.15s-2.19,4.74-3.94,0"/><path class="cls-1" d="M55.51,78.32,37.33,82.61s-3.11,3.13-3.66,6.56-6.36,19.1-6.36,19.1H41.75L45.4,94.73l2.73,13.54S64,107.43,64,98.64"/><path class="cls-1" d="M48.43,80.32s2.74,13.32,15.3,13.53"/><path class="cls-1" d="M87.13,80.92s-3.9,12.62-13.76,12.62"/><path class="cls-1" d="M11.22,21.43s-1-7.7,6.12-8.63c8.63-1.12,7.44,9,7.44,9v86.52"/><path class="cls-1" d="M50.93,49.35a5.72,5.72,0,0,1,4.87,1.56"/></g></svg>