<svg id="Livello_3" data-name="Livello 3" xmlns="http://www.w3.org/2000/svg" viewBox="0 0 120 120"><defs><style>.cls-1,.cls-2{fill:none;stroke:#211f1f;stroke-width:4px;}.cls-1{stroke-linecap:round;stroke-linejoin:round;}.cls-2{stroke-miterlimit:10;}</style></defs><g id="Nut-Bold"><path class="cls-1" d="M36.4,46.54s27.06,2.77,42.71,0c0,0,4.46-.65,5.37-3.67,1.35-4.42-5.42-5.38-6.66-2.1-.71,1.87,6.89,27.72-2.19,36"/><path class="cls-1" d="M77.82,46.75S104,57.24,107.35,71"/><path class="cls-1" d="M59.17,111,61,78.33s2.62-9.57,6.7-14.25,0-13.29-3.89-6.07c-2.6,4.85-1.91,3.72-1.91,3.72H59.72A19.94,19.94,0,0,0,43.5,52.35,33,33,0,0,1,35.2,52s-.66-9.69,11.4-13.13a30.62,30.62,0,0,1,29.6,7.73,144.91,144.91,0,0,1,20,23.73C107.35,86.57,107.35,93,107.35,93l.21,18.33-9.47,0"/><line class="cls-1" x1="72.22" y1="87.86" x2="74.46" y2="111.34"/><path class="cls-1" d="M72.22,87.86s21.22,2.54,23.92,4.28c3.42,1.55,3.83,13.4,3.83,13.4v5.75H85.83v-7c-5.9,3.65-3.85,7.15-3.85,7.15l-46.79-.14c-1.07-4.38-.55-5.86-1.76-7.14-.27-.28-1.48-.82-3.56.52l-3.2,6.76h-14l5.93-17.55c1.9-5.86,28.45-7.52,28.45-7.52s1.27,10.22,13,8.42"/><path class="cls-1" d="M34,88s3.67,17.94,25.22,16.93"/><path class="cls-1" d="M73.66,103.33s10.43-2.46,12.17-13.66"/><path class="cls-1" d="M35.19,50.23a40.52,40.52,0,0,1-.5,4.55c-.16,1.15-4.15,8.32-5.63,11.17s3.38,2.34,3.38,2.34S32.67,75.54,34,78s13.11-.19,13.11-.19v8.59"/><path class="cls-1" d="M35.19,51.28l-.5,3.5c-.16,1.15-4.15,8.32-5.63,11.17s3.38,2.34,3.38,2.34S32.67,75.54,34,78s13.11-.19,13.11-.19v8.59"/><path class="cls-1" d="M65.5,67.31s-5.53,6-5.53,0"/><path class="cls-2" d="M39.71,60.12s1.41-3.77,8.89,1"/><path class="cls-1" d="M60.91,17.32l2-4H48.79l1.47,4.28a10.09,10.09,0,0,0-5.14,8.76v1.35A10.1,10.1,0,0,0,55.19,37.78h1.34A10.1,10.1,0,0,0,66.6,27.71V26.36A10.08,10.08,0,0,0,60.91,17.32Z"/></g></svg>