<svg id="Livello_3" data-name="Livello 3" xmlns="http://www.w3.org/2000/svg" viewBox="0 0 120 120"><defs><style>.cls-1{fill:none;stroke:#211f1f;stroke-linecap:round;stroke-linejoin:round;stroke-width:4px;}</style></defs><g id="Osiris-Bold"><path class="cls-1" d="M24.63,65.71C24.44,65,23.45,61.5,20.28,60a6.18,6.18,0,0,0-3-.66,6.8,6.8,0,0,0-4.59,2.41,7.78,7.78,0,0,0-1.89,7.36c.86,2.72,3.58,5.15,8.86,5.92,5,34.31,5.64,34.31,5.64,34.31"/><path class="cls-1" d="M73.12,59c-5.46,3.56-6.78,8.73-8.28,10-6.9-4.15-5.41-6-5.41-6,4.68-4.64-2.82-12.42-5.42-4.85-.25,1-2.08-.43-3.13-.26-.74-2.07-1.55-4.75-2.8-5.39L38.32,51s5.46-14.32,19.49-22.06c15.57-8.61,7.88-12.3,13.81-16.4s11.94,3.68,4.29,10.14c-2.46,3.34-.31,7.61-.8,14.3"/><path class="cls-1" d="M84.11,35.32s-1.61,5.28.78,18.29A2.12,2.12,0,0,1,83.18,56c-4,1-10.5,1.39-13.89,6.56,0,0,2.71-6,5.34-23.73,0,0,2.11-11.35,10.06-11A4.55,4.55,0,0,1,89,31.08a2.38,2.38,0,0,1-.8,2.54s-.53,2.66-5.68,1"/><path class="cls-1" d="M57.81,28.91s8.23-10.1.1-12.17c-5.07-1.29-6.85,5.09-3.35,6,0,0,.51.91-6.92,4.85S29.17,41.84,33,42.73c5.24,1.22,7.49,3.55,6.42,5.91"/><path class="cls-1" d="M38.46,51.37l-.65,5.74s-4.71,5-5.4,7.83C31,67.49,35.23,66.6,35.23,66.6s-.24,8.53.48,8.78,10.84,0,10.84,0,3.68-3.53,4.28-7.17"/><path class="cls-1" d="M65.66,78s7.81,2.65,7.45,10.2c-.43,9.06-10.16,12.89-16.88,12.88-16.15,0-22.32-14.27-8.8-20.88"/><path class="cls-1" d="M46.55,75.38l1.55,10.3s2,7,9.39,6.34,8.71-8,8.71-8L64.84,69"/><path class="cls-1" d="M88,60.68c-2.16,13.62-7.87,47.63-7.87,47.63"/><path class="cls-1" d="M90.24,87.28c-4.68-1.39-16.91-1.6-16.91-1.6"/><path class="cls-1" d="M40,85.68s-8.82.21-13.5,1.6c-5.63.25-10.73,13.83-15.5,22H109L88,60.68l3.71,43.21"/><path class="cls-1" d="M35.71,75.38,32.12,89.5s-.4,3.56-4.4,2.57"/><line class="cls-1" x1="97.93" y1="103.51" x2="95.89" y2="93.08"/></g></svg>