<svg id="Livello_3" data-name="Livello 3" xmlns="http://www.w3.org/2000/svg" viewBox="0 0 120 120"><defs><style>.cls-1{fill:none;stroke:#211f1f;stroke-miterlimit:10;stroke-width:4px;}</style></defs><g id="Ptah-Bold"><path class="cls-1" d="M79.48,29.44,82.08,41s7.41,9,6.6,10.11-5.13,1.47-5.13,1.47,1.08,9.65,0,11.07c-3.12,3.4-13,2.69-15.73,3.68s-5.29,10.5-5.29,10.5-3.2,5.78-7.12,5.78-10.35.92-11.3-6.85"/><polyline class="cls-1" points="82.52 64.46 92.26 88.56 86.34 90.86 78.08 65.98"/><path class="cls-1" d="M52.2,63.62c3.67,0,8.52-1.14,7.72-4.71,0,0-8.43-14.62-7.72-18.47s5.89-4.79,7.72,0c2.33-6.6,19.56-11,19.56-11-9.19-21.65-37.16-19-43.71-2.51S50.61,59.37,52.2,63.62c-1.9,5.15-8.09,13.11-8.09,13.11L31.88,80.07S28.5,80.9,28,86.12,28,109,28,109H80.15S73,79.55,62.31,78.17"/><path class="cls-1" d="M57.42,54.77s4.84,2.43,4.5-2.44"/><path class="cls-1" d="M79.48,29.44s8.28-2.17,5.49-4.09-2.46-4.15-2.46-4.15H85"/><path class="cls-1" d="M18.18,79.85s0-6.57,6.21-7.4c7.15,0,6.17,8.32,6.17,8.32"/><polygon class="cls-1" points="13.68 108.97 22.68 108.97 20.64 84.63 18.18 79.85 15.05 84.63 13.68 108.97"/><path class="cls-1" d="M103.09,40.25s8.28,1.58,8.28,20.48"/><polyline class="cls-1" points="109.46 47.63 102.98 53.28 102.98 61.43"/><path class="cls-1" d="M100.71,72.45s-7.42-11.11,2.27-11,1.88,11,1.88,11Z"/><line class="cls-1" x1="94.9" y1="74.02" x2="110.57" y2="74.02"/><line class="cls-1" x1="95.16" y1="78.76" x2="110.57" y2="78.76"/><line class="cls-1" x1="95.45" y1="83.62" x2="110.57" y2="83.62"/><polyline class="cls-1" points="103.09 83.61 103.09 108.97 80.15 108.97"/><path class="cls-1" d="M77.26,43.27s-1.72-5-10.84,1.27"/><path class="cls-1" d="M35,79.21s4,13,18.82,12.37c17.21-.72,15.42-8.46,15.42-8.46"/><path class="cls-1" d="M27.77,92.37s5.32,12.12,26.53,11.5c21.4-.58,21.24-9,21.24-9"/></g></svg>