<svg id="Livello_3" data-name="Livello 3" xmlns="http://www.w3.org/2000/svg" viewBox="0 0 120 120"><defs><style>.cls-1{fill:none;stroke:#211f1f;stroke-linecap:round;stroke-linejoin:round;stroke-width:4px;}</style></defs><g id="Ra-Bold"><path class="cls-1" d="M15.14,74.69s-4,2.2-4.72,10.26"/><ellipse class="cls-1" cx="61.99" cy="28.91" rx="17.03" ry="18.96" transform="translate(23.51 85.46) rotate(-80.77)"/><ellipse class="cls-1" cx="61.99" cy="28.91" rx="11.4" ry="12.69" transform="translate(23.51 85.46) rotate(-80.77)"/><path class="cls-1" d="M43.94,35.49a6.8,6.8,0,0,1-5.1-2.79c-1.19-1.62-1.33-5.76-1.32-8.15.3-.62-2.34-1.16-2.64-1.95,0,0-1.06-1.37.85-1.65s6.11-.16,6.63,5.51"/><line class="cls-1" x1="49.3" y1="94.47" x2="58.27" y2="94.47"/><line class="cls-1" x1="65.57" y1="94.47" x2="74.78" y2="94.47"/><path class="cls-1" d="M59,45.24s17.22-2.6,32.39,11.35,17.25,24.27,17.25,24.27V94.47h-8.59V88s-2.26-5.12-6-6.76-19.27-1.43-19.27-1.43V99.2H65.57v-25L62.71,71a.8.8,0,0,1,.16-1.21c1.95-1.19,6.63-4.55,6.91-9.77C70.13,53.46,65.51,45,59,45.24Z"/><path class="cls-1" d="M53,71.79s-3.09,1.44-3.58,4,0,23.36,0,23.36h8.87V82"/><path class="cls-1" d="M49.23,90S35.6,88.1,35.6,81.25C38.71,79.82,49,79.82,49,79.82"/><path class="cls-1" d="M65.57,90.06h-7.3"/><path class="cls-1" d="M88.73,80.26s-2.75,8.85-14,9.68"/><path class="cls-1" d="M35.6,81.25s-4.48.38-6.06,2.66-1.88,8.84-1.88,8.84l-1,16.94H40.88l1.53-15.88,3.83,15.88h35S83.29,98.08,88,94.47v15.22h12.07V94.47"/><line class="cls-1" x1="27.43" y1="93.81" x2="42.41" y2="93.81"/><line class="cls-1" x1="88.02" y1="94.54" x2="103.8" y2="94.49"/><path class="cls-1" d="M26.65,109.69H17.44V83.91a9.3,9.3,0,0,0-4.66-4.09"/><path class="cls-1" d="M58,45.09,43.89,48.17l-1.83,2.94s-4.49,1.59-4.49,5.83c2.8-1.59,7.61,0,10.24,4.24,0,0,8.23,16.94,10.2,20.83,1.16.63,5.36,2.48,7.56-1.05"/><path class="cls-1" d="M50.52,53s4.17,2,5.67-1.21"/><path class="cls-1" d="M68,51.79s1.28,9.37-8,9.37"/><path class="cls-1" d="M79,38c2.26,3.09,5.43,7.59,5.54,7.45s-.6-.72-1.36-2.08c-.89-1.61-2.4-9.22-2.65-10.37"/></g></svg>