<svg id="Livello_3" data-name="Livello 3" xmlns="http://www.w3.org/2000/svg" viewBox="0 0 120 120"><defs><style>.cls-1{fill:none;stroke:#211f1f;stroke-miterlimit:10;stroke-width:4px;}</style></defs><g id="Satis-Bold"><path class="cls-1" d="M58.27,48.37a7.62,7.62,0,0,1-.56-1.81A15.45,15.45,0,0,1,60,34.76c3.24-4.77,8.51-8.51,13.28-13,6-5.75,5.31-9.29,6.17-6.34,1.63,4.21.58,7.72-6.39,14.17-4,3.66-8,7.58-8.94,12.84"/><path class="cls-1" d="M86.71,63.09c2,0,6.26-2.66,6.26-2.66,7-5.21,8-14,10.78-22.93,2.44-7.91,5.57-7.27,3.4-7.77-4.22-1.15-9.33,6.94-11.25,13.56-1.49,5.13-2.62,8.76-7.1,11.44"/><path class="cls-1" d="M76.69,82S86,71.75,89,53.67,91.27,31.16,95.42,26s7.54-12.89,3-12.57-7.2,4.37-10,10.12-11.31,6.64-25.3,20.22C49.35,57.16,49.37,59.52,50,63.37"/><path class="cls-1" d="M49.79,61.22c-2.19.65-4.42-2.49-1.88-6.58"/><ellipse class="cls-1" cx="46.48" cy="52.2" rx="2.87" ry="2.83"/><path class="cls-1" d="M43.61,52.31a2.45,2.45,0,0,0-3.32.63"/><path class="cls-1" d="M83.71,70.49a37,37,0,0,1,6.56,4.23c.7-1.65,3.14-7.17,3.14-7.17S87,67.79,85.22,67"/><path class="cls-1" d="M73,74.72s-2.5,3.94-5.21,1.75"/><path class="cls-1" d="M34.28,99.77s-7.3,4.86-10.74,9.65h84.71a50.74,50.74,0,0,0-7.66-9.6"/><path class="cls-1" d="M79.19,94.47l21.4,5.35a50.74,50.74,0,0,1,7.66,9.6H23.54c3.44-4.79,10.74-9.65,10.74-9.65l25-4"/><path class="cls-1" d="M22.46,58.54a80.73,80.73,0,0,1-6.53,9.2c-3.16,3.65-3.16,11.1-3.16,11.1"/><path class="cls-1" d="M15.93,67.74a17.35,17.35,0,0,1,3.8,7.79c-.31,11.84,0,33.89,0,33.89H33"/><path class="cls-1" d="M95.56,98.63s-2.15,10.87-15.49,10.79"/><path class="cls-1" d="M37.48,99.3s1,10.2,16.76,10.2"/><path class="cls-1" d="M50,63.37,43.72,75c-.58.42.31,1.08,1.54.82h.92a1.53,1.53,0,0,1,1.51,1.27A16.54,16.54,0,0,1,48,80a31.55,31.55,0,0,0,0,4.53c.17.63-1.82,3.07-1.57,4.3s12.14.85,12.86,6.92c0,0,3.33,5.56,9.45,5.25s10.84-5.11,10.48-7L77,82.49a74.88,74.88,0,0,0-4.21-6.66c-.16-1.72,1.79-3.86,3.12-5.73,1.68-2.36-.06-3.74-1.21-4.7-1-.79-5.37-.94-5.76,2.63-.71,3.75-3.78,2.52-4.75-1s-1.94-4.36-5.5-4.46A74.69,74.69,0,0,0,50,63.37Z"/></g></svg>