<svg id="Egyptian" xmlns="http://www.w3.org/2000/svg" viewBox="0 0 150 150"><title>Seba Egyptian symbol-bold</title><path d="M108.44,68.27a4,4,0,0,0,2.56-5h0a4,4,0,0,0-5-2.55l-24.74,8.1a8.88,8.88,0,0,0-2.12-1.51V41.79a4,4,0,1,0-8,0V67.26a8.58,8.58,0,0,0-2.24,1.63L44.06,60.68a4,4,0,1,0-2.52,7.59l24.89,8.25a8.89,8.89,0,0,0,.76,2.39L51.31,100a4,4,0,0,0,.79,5.6h0a4,4,0,0,0,5.6-.78L73.58,83.73a8.27,8.27,0,0,0,3,0l15.88,21.06a4,4,0,0,0,5.6.78h0a4,4,0,0,0,.79-5.6L83,78.91a8.85,8.85,0,0,0,.78-2.56Z"/></svg>