<svg id="Livello_3" data-name="Livello 3" xmlns="http://www.w3.org/2000/svg" viewBox="0 0 120 120"><defs><style>.cls-1,.cls-2{fill:none;stroke:#211f1f;stroke-width:4px;}.cls-1{stroke-linecap:round;stroke-linejoin:round;}.cls-2{stroke-miterlimit:10;}</style></defs><g id="Sekhmet-Bold"><ellipse class="cls-1" cx="61.76" cy="28.7" rx="16.63" ry="18.37" transform="translate(22.74 84.51) rotate(-79.97)"/><ellipse class="cls-1" cx="61.76" cy="28.7" rx="11.13" ry="12.3" transform="translate(22.74 84.51) rotate(-79.97)"/><path class="cls-1" d="M44.27,35.13a6.57,6.57,0,0,1-4.94-2.72c-1.16-1.59-1.29-5.64-1.28-8,.3-.61-2.26-1.13-2.56-1.91,0,0-1-1.34.83-1.61s6.61,1.52,7.11,7.06"/><path class="cls-1" d="M78.21,37.54c2.19,3,5.26,7.42,5.37,7.28s-.58-.7-1.31-2c-.87-1.57-2.34-9-2.57-10.14"/><line class="cls-1" x1="44.85" y1="101.59" x2="56.62" y2="101.59"/><line class="cls-1" x1="67.04" y1="101.59" x2="78.81" y2="101.59"/><path class="cls-1" d="M50.11,78.26s-5.49,2.1-5.42,5.11c.16,7.11.29,24.21.29,24.21H56.62V90.25"/><path class="cls-2" d="M44.69,88c-7.07,1.23-13,2.59-14.65,7.24a6.23,6.23,0,0,0-.27,1.09l0,10.76H18.46V90.81"/><path class="cls-2" d="M67.11,95c-8.65.77-10.83-6.34-10.83-6.34l-1.91-8.35a2.87,2.87,0,0,0-2.19-2.08"/><path class="cls-2" d="M19,90.57a4.81,4.81,0,0,1-2.29-.36,3.42,3.42,0,0,1-1.95-3.13.12.12,0,0,0,0-.08L11.4,83.08a.14.14,0,0,1,.11-.24H26.15a.15.15,0,0,1,.11.25L22.74,87a.09.09,0,0,0,0,.07,4,4,0,0,1-2,3A4.87,4.87,0,0,1,19,90.57Z"/><path class="cls-2" d="M56.62,102.28c2.67.74,6.83.24,10.42.19"/><path class="cls-2" d="M97.77,90.25s0,10.83-18.48,12.22"/><path class="cls-2" d="M62.43,46.75C75.61,49.92,70.82,58.46,65,58.63a1.54,1.54,0,0,0-1.4,2.07c1.25,3.49,1.62,6.94-2.73,12.76,0,0,6.29,6.35,6.29,12.62v21H78.68s0-13.69,0-20.45c0-1.68,5.67-1.82,14.35.57,4.56,1.14,7.68,5.18,7.68,9.08v9.89h7.52V89.07a56,56,0,0,0-8.94-22.8C88.85,51.57,71.34,45.73,60.46,46.88c0,0-5.62-.78-7,4.76l-10.94,5.2-1.21,3.38-9.15,6S32,68.8,34,68.2l2.5,5.69s1.74,3.74,4.88,4c4.59.37,10.83.37,10.83.37"/><polyline class="cls-2" points="36.47 73.27 43.33 72.02 46.72 72.65"/><path class="cls-2" d="M47.1,62.55s2.47-2.84,7.27-1.44"/></g></svg>