<svg id="Livello_3" data-name="Livello 3" xmlns="http://www.w3.org/2000/svg" viewBox="0 0 120 120"><defs><style>.cls-1{fill:none;stroke:#211f1f;stroke-linecap:round;stroke-linejoin:round;stroke-width:4px;}</style></defs><g id="Serket-Bold"><path class="cls-1" d="M28.7,110.94H17.75V87a12.51,12.51,0,0,0-4.61-3.8"/><path class="cls-1" d="M16.26,79.46s-3.94,2-4.66,9.53"/><path class="cls-1" d="M66.27,37.53c-12.42.25-22.4-2.43-22.16-7.74,0,0-1.22-7.72,10.49-8.56,8.71.34,19.38,2.59,27.28-.13C94,18.21,99.15,10.61,109.61,14.47c0,0-4.18-.27-9.82,8.65C94,33.21,83.68,38.35,66.27,37.53Z"/><path class="cls-1" d="M63.17,21.89S61.49,33.37,61.8,37.55"/><path class="cls-1" d="M44.11,29.79s0,3.42,5.47,5.66c2.78,1.91-10.31,3.95-12.44-4"/><path class="cls-1" d="M44.51,26.8S45,22.25,53,21.09c3.68-1-13.55-6.78-15.86,3.29"/><path class="cls-1" d="M49.17,45.12s17.76,1,36.59,0c0,0,3.82-.55,4.6-3.14,1.15-3.79-4.64-4.61-5.71-1.8C84,41.78,90.56,63.93,82.77,71"/><path class="cls-1" d="M84.65,45.3s22.45,9,25.3,20.75"/><path class="cls-1" d="M48,50.12s-.42-8.68,9.91-11.56a26.62,26.62,0,0,1,25.36,6.49A122.57,122.57,0,0,1,100.42,65C110,78.59,110,83.75,110,83.75v22.58h-6.32"/><path class="cls-1" d="M69.48,87.14c-10.06,1.69-11.15-7.89-11.15-7.89S35.59,80.8,34,86.3c0,0-3.25,7.57-3.12,11-1.21,5-2.9,13.82-2.9,13.82H39.35l4.23-14.65c1.78-1.27,2.82-.76,3.05-.49,1,1.2-2.38,7.93-1.47,12,.5,2.22,1,2.71,3.3,3.11,12.58,0,25.36,0,37.94,0,0,0,.06-11.6,5.11-15v15h12.12V97.24s-.35-11.12-3.29-12.57c-2.31-1.63-20.48-4-20.48-4"/><path class="cls-1" d="M47.1,80.65S50.24,96,68.7,95.16"/><path class="cls-1" d="M80.54,93.68s9.48-2,11-11.59"/><path class="cls-1" d="M48.14,48.28a34.59,34.59,0,0,1-.43,3.91c-.14,1-3.55,7.13-4.83,9.56s2.9,2,2.9,2S46,70,47.1,72.05s11.23-.17,11.23-.17v7.37"/><path class="cls-1" d="M48.14,49.19l-.43,3c-.14,1-3.55,7.13-4.83,9.56s2.9,2,2.9,2S46,70,47.1,72.05s11.23-.17,11.23-.17v7.37"/><path class="cls-1" d="M51.64,56.58a9.84,9.84,0,0,1,8.21,0"/><path class="cls-1" d="M73.37,63.76s-4,4.28-4-.84"/><line class="cls-1" x1="31.38" y1="93.68" x2="43.58" y2="96.43"/><line class="cls-1" x1="30.3" y1="98.63" x2="42.17" y2="101.31"/><line class="cls-1" x1="91.51" y1="103.63" x2="103.63" y2="103.63"/><line class="cls-1" x1="91.51" y1="98.63" x2="103.63" y2="98.63"/><line class="cls-1" x1="68.88" y1="100.01" x2="80.72" y2="100.01"/><path class="cls-1" d="M48,50.12H58.74c9.72.39,10.41,7.61,10.41,7.61h1.9s-.59,1,1.64-3.12C76,48.54,79.51,55.76,76,59.7s-5.74,12-5.74,12l-1.69,32.76H81.11L79.86,80.65"/></g></svg>