<svg id="Livello_3" data-name="Livello 3" xmlns="http://www.w3.org/2000/svg" viewBox="0 0 120 120"><defs><style>.cls-1{fill:none;stroke:#211f1f;stroke-linecap:round;stroke-linejoin:round;stroke-width:4px;}</style></defs><g id="Seshat-Bold"><path class="cls-1" d="M49.67,43.46s17.64,1,36.33,0c0,0,3.79-.55,4.57-3.12,1.14-3.76-4.62-4.58-5.68-1.79-.6,1.59,5.87,23.59-1.86,30.63"/><path class="cls-1" d="M84.89,43.64s22.3,8.93,25.12,20.6"/><path class="cls-1" d="M48.51,48.43s-.42-8.62,9.84-11.49a26.4,26.4,0,0,1,25.17,6.45,121.64,121.64,0,0,1,17,19.79C110,76.69,110,81.81,110,81.81v22.42h-6.27"/><path class="cls-1" d="M69.84,85.18c-10,1.68-11.07-7.84-11.07-7.84s-22.59,1.55-24.2,7c0,0-3.23,7.52-3.1,10.89-1.2,5-2.88,13.72-2.88,13.72H39.92l4.2-14.55c1.76-1.25,2.8-.75,3-.49,1,1.2-2.37,7.88-1.46,12,.49,2.2,1,2.69,3.28,3.09,12.49,0,25.17,0,37.66,0,0,0,.06-11.52,5.08-14.92V109h12V95.21s-.35-11-3.26-12.49c-2.3-1.62-20.34-4-20.34-4"/><path class="cls-1" d="M47.61,78.74S50.73,94,69.06,93.15"/><path class="cls-1" d="M80.82,91.67s9.41-2,10.89-11.51"/><path class="cls-1" d="M48.64,46.6a34.94,34.94,0,0,1-.42,3.88c-.14,1-3.53,7.08-4.79,9.5s2.87,2,2.87,2,.2,6.17,1.31,8.22S58.77,70,58.77,70v7.31"/><path class="cls-1" d="M48.64,47.5l-.42,3c-.14,1-3.53,7.08-4.79,9.5s2.87,2,2.87,2,.2,6.17,1.31,8.22S58.77,70,58.77,70v7.31"/><path class="cls-1" d="M52.12,54.84a9.76,9.76,0,0,1,8.15,0"/><path class="cls-1" d="M73.7,62s-4,4.24-4-.83"/><line class="cls-1" x1="32.01" y1="91.67" x2="44.12" y2="94.4"/><line class="cls-1" x1="30.93" y1="96.59" x2="42.72" y2="99.25"/><line class="cls-1" x1="91.71" y1="101.55" x2="103.74" y2="101.55"/><line class="cls-1" x1="91.71" y1="96.59" x2="103.74" y2="96.59"/><line class="cls-1" x1="69.24" y1="97.96" x2="81" y2="97.96"/><path class="cls-1" d="M48.51,48.43H59.17C68.82,48.81,69.5,56,69.5,56h1.89s-.59,1,1.63-3.1c3.3-6,6.77,1.15,3.3,5.06s-5.69,11.88-5.69,11.88L69,102.35H81.38L80.14,78.74"/><path class="cls-1" d="M13.45,20.11s-1-7.88,6.35-8.83c8.93-1.15,7.7,9.16,7.7,9.16V109h6.34"/><line class="cls-1" x1="64.86" y1="36.01" x2="64.86" y2="9.55"/><polyline class="cls-1" points="58.39 10.96 64.86 17.18 72.52 10.96"/><line class="cls-1" x1="57.17" y1="17.18" x2="72.52" y2="17.18"/><polyline class="cls-1" points="58.39 22.86 64.86 17.18 71.96 23.85"/><line class="cls-1" x1="60.27" y1="81.46" x2="47.61" y2="88.41"/><line class="cls-1" x1="64.86" y1="84.94" x2="61.28" y2="97.96"/><line class="cls-1" x1="80.28" y1="81.46" x2="93.37" y2="88.41"/></g></svg>