<svg id="Livello_3" data-name="Livello 3" xmlns="http://www.w3.org/2000/svg" viewBox="0 0 120 120"><defs><style>.cls-1{fill:none;stroke:#211f1f;stroke-linecap:round;stroke-linejoin:round;stroke-width:4px;}</style></defs><g id="Set-Bold"><path class="cls-1" d="M12,75.75a9.52,9.52,0,0,1,4.23,2.83v31.53L35.85,110"/><path class="cls-1" d="M15.91,70.2s-5.32,5.55-6.06,11.85"/><path class="cls-1" d="M63.05,76.63S63,63.26,60.76,59.83c2.82-1.06,8.62-3.24,6-8.17a9.77,9.77,0,0,1-1.67-3.36l3.87-3.14,10.56-31-9.37-2L62.26,43.64l3.52-31.49H57.33L55,44.39s-8.27,1.19-12.23,5.06c-6.07,3.25-20.06,13.1-19.88,17.24,0,2.72,6.69-1,6.69-1s11.34-9.41,20.84-6.07c0,0,3.42.62,5.8,17Z"/><path class="cls-1" d="M50.48,52.3s4.84-2.67,8-1.84"/><path class="cls-1" d="M68.94,45.16S106,47.93,108.51,76.63v19H102V88.12A10,10,0,0,0,96.16,79c-5.58-2.57-15-3.27-20.32-3.71C76,81.23,76,99,76,99H63V74.28"/><path class="cls-1" d="M44,76.63S26,83.15,26,87.82v22.29H37.82l.12-13.29,6,13.29H80.67s6.33-10.44,8.67-13v13H102v-22"/><path class="cls-1" d="M52.15,61.57S44,65.15,44,75.6V99H56l.19-22.32"/><path class="cls-1" d="M35.85,80.05s.29,6.51,8.13,8.27"/><path class="cls-1" d="M90.18,77.14S88.91,85.44,76,88.32"/><line class="cls-1" x1="63" y1="89.69" x2="56.19" y2="89.69"/><line class="cls-1" x1="44.56" y1="93.37" x2="56.03" y2="93.37"/><line class="cls-1" x1="63.32" y1="93.37" x2="75.95" y2="93.37"/></g></svg>