<svg id="Livello_3" data-name="Livello 3" xmlns="http://www.w3.org/2000/svg" viewBox="0 0 120 120"><defs><style>.cls-1,.cls-2{fill:none;stroke:#211f1f;stroke-width:4px;}.cls-1{stroke-linecap:round;stroke-linejoin:round;}.cls-2{stroke-miterlimit:10;}</style></defs><g id="Shu-Bold"><path class="cls-1" d="M66.18,91.34s-2.82,2.83-8.8,1.6c-7.58-1.56-9.26-2.76-9.26-2.76l3.41-8.82"/><path class="cls-1" d="M60.11,70.86c1.46-10.18,2.47-12,2.47-12,.93-3.35,15-1.66,15-1.66l1.23,5.25s6.16,5.94,5.85,7.35-1.85.9-4,.9l-1.46,9c0,.58-.19,1.32-2,1.23-3.16-.14-7.12,0-7.12,0s-2.71,7.9-3.85,10.5"/><path class="cls-1" d="M77.58,57.17c-.27-5-2.46-11.73-7.47-13.05a32.47,32.47,0,0,0-9.81-.93c-4.51.46-8.89.46-12.39,2.21-5.26,3.5-8.76,9.64-9.64,16.65-.88,6.13,2.63,12.26,3.51,18.4,4.38,1.75,8.76,1.75,12.26,0s5.26-6.14,6.07-9.59l3.76,5.47"/><path class="cls-1" d="M106.25,90.86c-1,.46-2.91.46-2.91,1.43v17.36H93.59"/><path class="cls-1" d="M102.69,85.27s4.82,5.59,5.49,11.94"/><path class="cls-1" d="M56.21,12.93l1.59,3L69,36.93a3.24,3.24,0,0,0-1.79.84s-2.56,2.49.37,5.42"/><line class="cls-1" x1="49.78" y1="12.93" x2="62.06" y2="36.93"/><line class="cls-1" x1="42.6" y1="12.93" x2="54.88" y2="36.93"/><path class="cls-1" d="M35.62,12.93,46.54,38.24s7.58,2.38,6.34,5.4"/><path class="cls-1" d="M48.12,90.18l-18.71,2.4A24.28,24.28,0,0,0,19.07,96.3c-3.23,2.11-6.46,5.14-6.21,8.72v4.79h84v-7.35a8.1,8.1,0,0,0-5.38-7.9c-3.72-1-25.34-2.89-25.34-2.89"/><path class="cls-1" d="M43.89,48.94s-.5-7.86-5.59-5.52S41,51.17,43.89,48.94Z"/><path class="cls-1" d="M43.89,48.94s26.11,1.94,31.64,0"/><polyline class="cls-1" points="39.49 56.74 25.52 78.65 33.2 80.67 38.49 67.66"/><path class="cls-1" d="M35.41,91.81s5.89,11.33,27.34,11.33c15.62,0,21.92-9.89,21.92-9.89"/><path class="cls-1" d="M77.14,80.7,79.28,87s.23,3.19,4.3,1.8"/><path class="cls-2" d="M73.6,61.93a8.1,8.1,0,0,1-7.42,1.65"/></g></svg>