<svg id="Livello_3" data-name="Livello 3" xmlns="http://www.w3.org/2000/svg" viewBox="0 0 120 120"><defs><style>.cls-1{fill:none;stroke:#211f1f;stroke-miterlimit:10;stroke-width:4px;}</style></defs><g id="Sobek-Bold"><path class="cls-1" d="M72.19,48.51,70.08,20.79s3.68-3.12,1.31-6.74-6.92-.4-7.54,2.61c-.05.67-.1,3.43-.16,7.07,0-3.64-.11-6.4-.15-7.07-.62-3-5.18-6.23-7.55-2.61s1.32,6.74,1.32,6.74L55.2,48.43"/><path class="cls-1" d="M63.69,57S60.37,43.11,50.39,50C40.92,55.52,34,49.9,33.76,48.31"/><path class="cls-1" d="M63.69,57s5.53-13.8,15.19-7c9.17,5.57,14.81-1,16.1-1.64"/><path class="cls-1" d="M72.19,46.85c4.94,1.16,10.25-.92,8.55-4-3.17-5.67-1.65-7.27-.47-7.28,0,0,3,.07,2.48,1.35s-2.29.45-2.29.45"/><path class="cls-1" d="M55.29,46.85c-4.94,1.16-10.25-.92-8.55-4,3.17-5.67,1.65-7.27.47-7.28,0,0-3,.07-2.48,1.35s2.29.45,2.29.45"/><path class="cls-1" d="M61.05,57.64c-3.19,0-7.75,1.11-12.89,5.49L29.1,65.2s.59,5.92,8,6.07,16.4,1.18,20.25,6.22a24,24,0,0,1,4.39,9,41.51,41.51,0,0,0,6.26,0C67.24,82.22,64.42,76,64.42,76s9.43-7.14,4.86-14.12A9.67,9.67,0,0,0,61.05,57.64Z"/><path class="cls-1" d="M68,86.52c0,19.55-.12,22.89-.12,22.89h8.88s-.11-11.14-.16-20.71c0-6.33,4-7.55,4-7.55l10.75,4.22,4,.67c4,.66,5.54,7.1,5.54,7.1l-.11,16.27h6.65V98.69a32.15,32.15,0,0,0-2.48-12.55c-15.28-35.87-43.86-28.5-43.86-28.5"/><path class="cls-1" d="M57.33,77.49s-6,2.53-6.32,15c-.4,14.84-.26,16.94-.26,16.94h8.31V92.81s.11-4.76,2.66-6.29"/><path class="cls-1" d="M8,70.42a.14.14,0,0,0,.26.09c1.28-2.27,6-10.44,9.49-12.6,4-2.51-2-6.16-5.44-2.45C9.37,58.64,8.28,67.84,8,70.42Z"/><path class="cls-1" d="M13.72,61.56s3.68,3.43,3.6,5.53,0,42.18,0,42.18h89.49"/><path class="cls-1" d="M53.63,81.66l-12.69,5s-4.32-.38-6.21,2.59a11.87,11.87,0,0,0-1.83,5.94v14.23"/><path class="cls-1" d="M56.22,65.2s2.61-2,7.4-1"/><ellipse class="cls-1" cx="63.69" cy="41.39" rx="3.95" ry="4.15"/><ellipse class="cls-1" cx="49.32" cy="28.54" rx="2.85" ry="2.99"/><ellipse class="cls-1" cx="78.3" cy="28.54" rx="2.85" ry="2.99"/><line class="cls-1" x1="52.72" y1="57.01" x2="76.02" y2="57.01"/><path class="cls-1" d="M40.94,86.65s1.92,10.86,9.78,12.89"/><path class="cls-1" d="M95.31,86S93.14,96,76.65,99.54"/><line class="cls-1" x1="59.06" y1="99.54" x2="67.93" y2="99.54"/></g></svg>