<svg id="Livello_3" data-name="Livello 3" xmlns="http://www.w3.org/2000/svg" viewBox="0 0 120 120"><defs><style>.cls-1{fill:none;stroke:#211f1f;stroke-linecap:round;stroke-linejoin:round;stroke-width:4px;}</style></defs><g id="Thots-Bold"><path class="cls-1" d="M58.45,77.42V102H46.86s-.92-16.06-.92-24.6c-2.78-.45-6.92,1.3-9.22,2.14-15,5.53-15.81,6.47-16.44,16.32l0,6.21-11-.07A255.24,255.24,0,0,1,10,73.14c3.07-31.88,37.82-35.68,46.61-33.82,0,0-16.9,6.21-2.57,23.64a19.55,19.55,0,0,1,4.4,12.41Z"/><path class="cls-1" d="M56.62,39.33s20.82-4.39,23.6,13.54l-7.08,5.3,7.08,4.09s-5.78,5.48-11.27,7c0,7.94.64,20.58.64,20.58s-1.77,8.8-11.14,4.59"/><path class="cls-1" d="M80.22,62.26s21.85,1,26,16.56a.42.42,0,0,0,.83-.15C105.84,68.26,97,54.22,80.22,52.87"/><path class="cls-1" d="M68.8,51S64,47.58,58.39,52.3"/><circle class="cls-1" cx="59.89" cy="25.18" r="13.03"/><path class="cls-1" d="M75.34,22.75a15.46,15.46,0,1,1-30.91,0"/><polyline class="cls-1" points="69.51 90.14 69.51 102.08 80.22 102.02 80.22 63.23"/><path class="cls-1" d="M80.22,80.16l14.14,5.89a7.27,7.27,0,0,1,4.31,6.64v16H20.28V97.37"/><path class="cls-1" d="M32.19,81.27s-2.77,27.4,29.07,27.4"/><path class="cls-1" d="M89.41,84s2.64,23.32-20.61,24.68"/></g></svg>