<svg id="Symbols" xmlns="http://www.w3.org/2000/svg" viewBox="0 0 150 150"><title>Abe Dua-bold</title><path id="Bold" d="M100.87,53.06A27.42,27.42,0,0,1,125,67.42l7-3.81A35.51,35.51,0,0,0,89.22,47a27.45,27.45,0,0,1,20.69-9.45,27.11,27.11,0,0,1,17,5.9l5-6.28a35,35,0,0,0-22-7.62A35.5,35.5,0,0,0,81.57,43.74a35.64,35.64,0,0,0,.35-4.86,35.25,35.25,0,0,0-6.32-20.2L69,23.24a27.42,27.42,0,0,1,3,25.58l-.41.11A35.47,35.47,0,0,0,40.09,29.56a35,35,0,0,0-22,7.62l5,6.28a27.11,27.11,0,0,1,17-5.9A27.45,27.45,0,0,1,60.78,47,35.51,35.51,0,0,0,18,63.61l7,3.81A27.42,27.42,0,0,1,49.13,53.06a27.11,27.11,0,0,1,14.31,4c-.1.33-.19.66-.26,1a35.35,35.35,0,0,0-18.72,1.8l-.15,0v0A35.34,35.34,0,0,0,28.19,72.49l6.52,4.63a27.48,27.48,0,0,1,19-11.34A35.33,35.33,0,0,0,32,105.22l7.86-1.48A27.17,27.17,0,0,1,42.48,86a27.47,27.47,0,0,1,27.4-14.5A27.38,27.38,0,0,1,81.32,89.88l.05.32c0,.1,0,.21,0,.32h0l0,.27a27,27,0,0,1,.18,3.14,27.36,27.36,0,0,1-13.86,23.85l4,6.94A35.46,35.46,0,0,0,83.19,114.3,35.31,35.31,0,0,0,103,132.79l2.82-7.49a27.44,27.44,0,0,1-14.07-11.86,35.38,35.38,0,0,0,23.36,10.28l.35-8A27.43,27.43,0,0,1,89.58,92.42c0-.83-.09-1.66-.19-2.47h0c0-.28-.06-.56-.1-.83l0-.32a35.34,35.34,0,0,0-7.81-17.47A27.47,27.47,0,0,1,107.52,86a27.17,27.17,0,0,1,2.66,17.79l7.86,1.48a35,35,0,0,0-3.44-23A35.4,35.4,0,0,0,96.28,65.78a27.48,27.48,0,0,1,19,11.34l6.52-4.63a35.43,35.43,0,0,0-35-14.38c-.07-.35-.16-.68-.26-1A27.11,27.11,0,0,1,100.87,53.06ZM70.94,60.5A4.06,4.06,0,1,1,75,64.56,4.06,4.06,0,0,1,70.94,60.5Z"/></svg>