<?xml version="1.0" encoding="UTF-8"?>
<svg id="Symbols" xmlns="http://www.w3.org/2000/svg" viewBox="0 0 150 150">
  <path d="m109.07,72.91l21.4-28.08-5.85-5.17-19.53,25.62c-1.1-1.2-2.34-2.48-3.72-3.77l7.73-10.15-5.85-5.17-7.88,10.35c-1.45-1.05-2.99-2.04-4.6-2.94l5.13-12.98-6.96-3.19-5.18,13.12c-1.51-.47-3.07-.83-4.66-1.06v-14.49h-7.56v14.49c-1.55.22-3.06.57-4.54,1.02l-5.17-13.09-6.96,3.19,5.1,12.92c-1.59.88-3.1,1.85-4.54,2.87l-7.87-10.33-5.85,5.17,7.7,10.11c-1.41,1.32-2.69,2.63-3.81,3.85l-19.28-25.54-5.87,5.14,21.16,28.01c.04.09.06.25.07.4,0,.04,0,.07,0,.11,0,.13,0,.24-.03.29l-21.2,28.08,5.87,5.14,9.09-12.04c9.76,12.73,24.33,20.2,39.93,20.2s30.32-7.49,40.05-20.24l9.22,12.1,5.85-5.17-21.36-28.01c-.09-.18-.09-.65-.05-.77Zm-44.08,13.61c.33-6.2,4.75-11.13,10.16-11.13s9.91,5.02,10.17,11.3c-3.13,1.49-6.5,2.46-9.98,2.46s-7.12-1.05-10.34-2.63Zm27.34-4.2c-1.96-8.65-8.91-15.08-17.18-15.08s-15.1,6.31-17.13,14.84c-3.82-2.98-6.83-6.22-8.57-8.26-.12-.14-.18-.34-.18-.55v-.03c0-.2.06-.4.19-.55,3.93-4.61,14.32-15.33,25.89-15.33s21.95,10.72,25.89,15.33c.25.29.25.83,0,1.12-1.79,2.1-4.92,5.46-8.89,8.5Zm-16.97,24.53c-13.84,0-26.75-6.86-35.06-18.5l5.32-7.04c6.17,6.73,16.98,15.99,29.71,15.99s23.61-9.32,29.77-16.06l5.41,7.1c-8.28,11.64-21.22,18.51-35.15,18.51Z"/>
</svg>