<?xml version="1.0" encoding="UTF-8"?>
<svg id="Symbols" xmlns="http://www.w3.org/2000/svg" viewBox="0 0 150 150">
  <path d="m115.68,66.02c-6.2,0-11.15,2.1-13.35,5.34h-17.66c5.54-5.5,12.72-12.63,22.44-22.28h-.01c3.68-3.68,5.29-9.49,3.86-14.78-1.07-3.97-3.85-7.34-7.81-9.47-4.33-2.33-9.49-2.9-13.81-1.51-1.65.53-7.19,2.71-9.2,8.51h0c-1.59,4.61-.2,10.02,3.71,14.48,2.33,2.66,5.6,4.78,9.11,5.83-.39.39-.78.77-1.16,1.15-9.67-2.07-18.16-4.71-25-7.46.27-.1.55-.19.81-.3,4.08-1.78,6.89-4.97,7.69-8.75.8-3.78-.46-7.82-3.48-11.09-2.73-2.95-6.67-5.09-11.09-6.02-9.77-2.05-18.68,2.27-20.29,9.81-.6,2.85-.07,5.68,1.35,8.23,5.53,11.33,30.8,18.87,43.51,22.01-4.77,4.73-8.58,8.51-11.71,11.62h-24.18c-2.33-3.17-7.46-5.23-13.89-5.23-8.84,0-15.26,3.88-15.26,9.23s6.42,9.23,15.26,9.23c6.59,0,11.83-2.16,14.07-5.46h16.17c-1.97,1.95-3.64,3.6-5.26,5.2-3.82,3.78-7.37,7.28-13.91,13.78h0c-3.92,3.64-5.68,9.66-4.21,15.11,1.07,3.97,3.85,7.34,7.81,9.47,2.77,1.49,5.87,2.26,8.88,2.26,1.7,0,3.37-.25,4.93-.75,1.65-.53,7.19-2.71,9.2-8.51h0c2.36-6.83-2.24-12.81-3.71-14.48-2.33-2.66-5.59-4.76-9.09-5.82.96-.95,1.87-1.85,2.74-2.71,12.26,2.57,22.68,5.98,30.35,9.43-9.11,2.8-14.66,10.37-12.71,17.58,1.01,3.73,3.98,6.77,8.16,8.33,2.08.78,4.38,1.17,6.75,1.17,1.94,0,3.92-.26,5.89-.78,9.65-2.57,15.63-10.41,13.62-17.86-.09-.34-.22-.67-.34-.99h.01c-.02-.07-.05-.12-.08-.18-.06-.14-.12-.28-.18-.42-4.91-11.73-31.65-19.52-44.93-22.72,2-1.98,4.28-4.23,7.16-7.09h25.39c2.16,3.31,7.16,5.46,13.44,5.46,8.46,0,14.6-3.9,14.6-9.28s-6.14-9.28-14.6-9.28ZM48.11,31.1c.59-2.77,5.26-5.03,11.02-3.82,2.8.59,5.33,1.92,6.94,3.66.76.82,1.97,2.46,1.59,4.24-.38,1.78-2.15,2.8-3.18,3.24-2.18.95-5.04,1.16-7.84.57-3.96-.83-6.79-2.94-7.97-5.09h0s0,0,0,0c-.54-.97-.74-1.95-.56-2.82Zm41.66,10.12c-.77-.88-3.21-3.97-2.21-6.87h0c.85-2.45,3.65-3.47,4.21-3.65,2.25-.72,5.26-.35,7.66.95,1.19.64,3.3,2.1,3.99,4.66.7,2.6-.11,6.29-2.67,7.97-3.44,2.25-8.58-.33-10.98-3.06Zm-54.23,35.61c-3.47,0-5.78-.83-6.88-1.47,1.1-.63,3.4-1.47,6.88-1.47s5.78.83,6.88,1.47c-1.1.63-3.4,1.47-6.88,1.47Zm28.07,29.47c.77.88,3.21,3.97,2.21,6.87h0c-.85,2.46-3.65,3.47-4.21,3.65-2.25.72-5.26.35-7.66-.95-1.19-.64-3.3-2.1-3.99-4.66-.7-2.6.11-6.29,2.67-7.97.92-.6,1.96-.86,3.04-.86,2.95,0,6.18,1.92,7.93,3.92Zm35.95,14.6c-2.76.74-5.63.68-7.86-.15-1.05-.39-2.88-1.31-3.35-3.07-.74-2.74,2.4-6.84,8.09-8.35,1.29-.34,2.6-.51,3.86-.51,1.44,0,2.81.22,4,.67,1.05.39,2.88,1.31,3.35,3.07.74,2.74-2.4,6.84-8.09,8.35Zm16.12-44.08c-3.37,0-5.51-.9-6.41-1.52.9-.62,3.05-1.52,6.41-1.52s5.51.9,6.41,1.52c-.9.62-3.05,1.52-6.41,1.52Z"/>
</svg>