<?xml version="1.0" encoding="UTF-8"?>
<svg id="Symbols" xmlns="http://www.w3.org/2000/svg" viewBox="0 0 150 150">
  <rect x="81.04" y="45.1" width="6" height="6"/>
  <rect x="89.91" y="45.1" width="6" height="6"/>
  <polygon points="104.79 51.1 104.79 45.1 98.79 45.1 98.79 51.1 98.79 51.1 104.79 51.1"/>
  <rect x="81.04" y="62.85" width="6" height="5.97"/>
  <rect x="89.91" y="62.85" width="6" height="5.97"/>
  <polygon points="104.79 62.85 98.79 62.85 98.79 62.85 98.79 68.82 104.79 68.82 104.79 62.85"/>
  <rect x="81.04" y="53.97" width="6" height="6"/>
  <polygon points="95.91 59.94 95.91 53.97 95.91 53.97 89.91 53.97 89.91 59.97 95.91 59.97 95.91 59.94"/>
  <rect x="98.79" y="53.97" width="6" height="6"/>
  <path d="m130.23,74.82c0-9.42-6.7-17.32-15.58-19.18v-20.35h-20.15c-1.84-8.91-9.74-15.63-19.19-15.63s-17.35,6.72-19.19,15.63h-20.53v20.41c-8.76,1.95-15.36,9.83-15.36,19.12s6.6,17.16,15.36,19.12v20.41h20.47c1.97,8.73,9.85,15.32,19.1,15.32s17.12-6.58,19.1-15.32h20.38v-20.35c8.88-1.86,15.58-9.76,15.58-19.18Zm-54.92-47.23c5.04,0,9.35,3.22,10.97,7.71h-21.95c1.62-4.49,5.93-7.71,10.97-7.71Zm31.41,43.1h-27.62v-27.47h27.62v27.47Zm-35.54-27.47v27.47h-27.66v-27.47h27.66Zm-43.03,31.6c0-4.9,3.1-9.13,7.44-10.84v21.68c-4.34-1.71-7.44-5.94-7.44-10.84Zm15.36,3.79h27.66v27.81h-27.66v-27.81Zm31.65,43.12c-4.87,0-9.1-3.08-10.82-7.39h21.64c-1.72,4.31-5.94,7.39-10.82,7.39Zm3.94-15.32v-27.81h27.62v27.81h-27.62Zm35.54-20.66v-21.88c4.46,1.64,7.66,5.92,7.66,10.94s-3.2,9.3-7.66,10.94Z"/>
  <rect x="45.5" y="45.08" width="6" height="6"/>
  <rect x="54.38" y="45.08" width="6" height="6"/>
  <polygon points="69.25 51.08 69.25 45.08 63.25 45.08 63.25 51.08 63.26 51.08 69.25 51.08"/>
  <rect x="45.5" y="62.84" width="6" height="5.97"/>
  <rect x="54.38" y="62.84" width="6" height="5.97"/>
  <polygon points="69.25 62.84 63.26 62.84 63.25 62.84 63.25 68.8 69.25 68.8 69.25 62.84"/>
  <rect x="45.5" y="53.96" width="6" height="6"/>
  <polygon points="60.38 59.93 60.38 53.96 60.38 53.96 54.38 53.96 54.38 59.96 60.38 59.96 60.38 59.93"/>
  <rect x="63.25" y="53.96" width="6" height="6"/>
  <rect x="81.04" y="80.81" width="6" height="6"/>
  <rect x="89.91" y="80.81" width="6" height="6"/>
  <polygon points="98.79 86.81 98.79 86.81 104.79 86.81 104.79 80.81 98.79 80.81 98.79 86.81"/>
  <rect x="81.04" y="98.57" width="6" height="5.97"/>
  <rect x="89.91" y="98.57" width="6" height="5.97"/>
  <polygon points="98.79 98.57 98.79 104.53 104.79 104.53 104.79 98.57 98.79 98.57 98.79 98.57"/>
  <rect x="81.04" y="89.69" width="6" height="6"/>
  <polygon points="89.91 95.69 95.91 95.69 95.91 95.66 95.91 89.69 95.91 89.69 89.91 89.69 89.91 95.69"/>
  <rect x="98.79" y="89.69" width="6" height="6"/>
  <rect x="45.5" y="80.8" width="6" height="6"/>
  <rect x="54.38" y="80.8" width="6" height="6"/>
  <polygon points="63.25 80.8 63.25 86.8 63.26 86.8 69.25 86.8 69.25 80.8 63.25 80.8"/>
  <rect x="45.5" y="98.55" width="6" height="5.97"/>
  <rect x="54.38" y="98.55" width="6" height="5.97"/>
  <polygon points="63.25 98.55 63.25 104.52 69.25 104.52 69.25 98.55 63.26 98.55 63.25 98.55"/>
  <rect x="45.5" y="89.68" width="6" height="6"/>
  <polygon points="54.38 95.67 60.38 95.67 60.38 95.64 60.38 89.68 60.38 89.68 54.38 89.68 54.38 95.67"/>
  <rect x="63.25" y="89.68" width="6" height="6"/>
</svg>