<svg id="Symbols" xmlns="http://www.w3.org/2000/svg" viewBox="0 0 150 150"><title>Dame Dame-bold</title><g id="Bold"><path d="M75,26C51.57,26,32.5,48,32.5,75S51.57,124,75,124s42.5-22,42.5-49S98.43,26,75,26Zm34.32,44.83h-8.5v-5h-14V61.18h-3v-12h-5V34.26C94.9,36.38,107.69,51.67,109.32,70.83Zm-16.5,3v2h-4v-2Zm-19-16.64h2v4h-2Zm2.36,35.64h-2V89.18h2ZM70.82,34.31V49.18h-5v12h-3v5H49.18v5H40.66C42.15,52,54.81,36.62,70.82,34.31ZM61.18,74.18v2h-4v-2Zm-20.5,5h8.5v5H62.82v5h3.36v11.64h5v14.92C55.1,113.62,42.32,98.33,40.68,79.18Zm38.5,36.51V100.82h5V89.18h2.64V83.82h14v-5h8.52C107.84,98,95.18,113.38,79.18,115.69Z"/></g></svg>