<svg id="Symbols" xmlns="http://www.w3.org/2000/svg" viewBox="0 0 150 150"><title>Aban-bold</title><g id="Bold"><path d="M93.39,75l12.72-12.73-6.36-6.36,5.66-5.66-5.66-5.66-5.66,5.66-6.36-6.36L75,56.61,62.27,43.89l-6.36,6.36-5.66-5.66-5.66,5.66,5.66,5.66-6.36,6.36L56.61,75,43.89,87.73l6.36,6.36-5.66,5.66,5.66,5.66,5.66-5.66,6.36,6.36L75,93.39l12.73,12.72,6.36-6.36,5.66,5.66,5.66-5.66-5.66-5.66,6.36-6.36ZM87.73,55.2l7.07,7.07-7.07,7.07-7.07-7.07ZM82.07,75,75,82.07,67.93,75,75,67.93ZM55.2,62.27l7.07-7.07,7.07,7.07-7.07,7.07ZM62.27,94.8,55.2,87.73l7.07-7.07,7.07,7.07Zm18.39-7.07,7.07-7.07,7.07,7.07L87.73,94.8Z"/></g></svg>