<svg id="Symbols" xmlns="http://www.w3.org/2000/svg" viewBox="0 0 150 150"><title>Nsoromma-bold</title><path id="Bold" d="M98.29,80.16c3.73-2.61,8.6-5.08,15-8l14.3-6.46L112,64.55a94.58,94.58,0,0,1-16.85-2.37c.79-4.48,2.49-9.67,5-16.27l5.55-14.68L93.75,41.46c-5.35,4.6-9.64,8-13.59,10.25-2.61-3.73-5.08-8.6-8-15l-6.46-14.3L64.54,38a93.79,93.79,0,0,1-2.36,16.85c-4.48-.79-9.67-2.49-16.27-5L31.23,44.35l10.23,11.9c4.6,5.35,8,9.64,10.25,13.59-3.73,2.61-8.6,5.08-15,8l-14.3,6.46L38,85.45a94.58,94.58,0,0,1,16.85,2.37c-.79,4.48-2.49,9.67-5,16.27l-5.55,14.68,11.9-10.23c5.35-4.6,9.64-8,13.59-10.25,2.61,3.73,5.08,8.6,8,15l6.46,14.3L85.46,112a93.79,93.79,0,0,1,2.36-16.85c4.48.79,9.67,2.49,16.27,5l14.68,5.55-10.23-11.9C103.94,88.4,100.57,84.11,98.29,80.16ZM64,75A11,11,0,1,1,75,86,11,11,0,0,1,64,75Z"/></svg>