<svg id="Symbols" xmlns="http://www.w3.org/2000/svg" viewBox="0 0 150 150"><title>Osram ne Nsoromma-bold</title><g id="Bold"><path d="M123,50.77l-3.73-9.49-3.72,9.5a43.52,43.52,0,0,1-81,0l-3.72-9.51L27,50.77A51.51,51.51,0,1,0,126.5,69.54,51,51,0,0,0,123,50.77ZM75,113A43.55,43.55,0,0,1,32,63.25a51.58,51.58,0,0,0,86.1,0A43.55,43.55,0,0,1,75,113Z"/><path d="M56.7,47.73a2.77,2.77,0,0,0,3.38,1.94,1.11,1.11,0,0,0,.26-.07l.15.41-.24.11a2.54,2.54,0,1,0,2.5,4.33A1.59,1.59,0,0,0,63,54.3c.09.11.19.22.29.32l-.2.2A2.54,2.54,0,1,0,66.88,58c.06-.07.11-.15.16-.22l.37.22a1.75,1.75,0,0,0-.11.24A2.54,2.54,0,1,0,72,60a2.27,2.27,0,0,0,.06-.25l.43.06a2.45,2.45,0,0,0,0,.27,2.54,2.54,0,1,0,5,0,2.48,2.48,0,0,0,0-.27l.43-.06a2.33,2.33,0,0,0,.07.25,2.54,2.54,0,1,0,4.7-1.71L82.52,58l.37-.22c0,.07.1.15.16.22a2.54,2.54,0,1,0,3.83-3.21l-.19-.2L87,54.3a1.7,1.7,0,0,0,.22.15,2.54,2.54,0,1,0,2.5-4.33L89.44,50l.15-.41a1.25,1.25,0,0,0,.26.07,2.78,2.78,0,0,0,3.39-1.94,2.78,2.78,0,0,0-2.52-3l-.26,0c0-.07,0-.14,0-.21s0-.14,0-.21l.26,0a2.78,2.78,0,0,0,2.52-3,2.78,2.78,0,0,0-3.39-1.94,1.25,1.25,0,0,0-.26.07L89.44,39l.25-.11A2.79,2.79,0,0,0,91,35.23a2.78,2.78,0,0,0-3.84-.66,1.7,1.7,0,0,0-.22.15l-.28-.32.19-.2a2.78,2.78,0,0,0,0-3.9,2.78,2.78,0,0,0-3.84.69c-.06.07-.11.15-.16.22L82.52,31l.12-.24A2.54,2.54,0,1,0,77.94,29a2.33,2.33,0,0,0-.07.25l-.43-.06a2.48,2.48,0,0,0,0-.27,2.54,2.54,0,1,0-5,0,2.45,2.45,0,0,0,0,.27l-.42.06c0-.08,0-.17-.07-.25a2.54,2.54,0,1,0-4.7,1.71,1.75,1.75,0,0,0,.11.24l-.37.22c-.05-.07-.1-.15-.16-.22A2.78,2.78,0,0,0,63,30.3a2.78,2.78,0,0,0,0,3.9l.2.2c-.1.1-.2.21-.29.32a1.59,1.59,0,0,0-.21-.15,2.79,2.79,0,0,0-3.85.66,2.79,2.79,0,0,0,1.35,3.67l.24.11-.15.41a1.11,1.11,0,0,0-.26-.07,2.77,2.77,0,0,0-3.38,1.94,2.78,2.78,0,0,0,2.52,3,2.06,2.06,0,0,0,.26,0c0,.07,0,.14,0,.21s0,.14,0,.21a2.06,2.06,0,0,0-.26,0A2.78,2.78,0,0,0,56.7,47.73ZM75,37a7.5,7.5,0,1,1-7.5,7.5A7.51,7.51,0,0,1,75,37Z"/></g></svg>