<svg id="Symbols" xmlns="http://www.w3.org/2000/svg" viewBox="0 0 150 150"><title>Nkonsonkonson-bold</title><g id="Bold"><path d="M89.83,28.5c-5.47,0-10.59,2.93-14.83,8.36-4.24-5.43-9.36-8.36-14.83-8.36a17.17,17.17,0,0,0-11.31,4.6C40.11,40.74,34.67,56.79,34.67,75c0,17.88,5.29,33.8,13.8,41.55a17.31,17.31,0,0,0,11.7,5c5.47,0,10.59-2.93,14.83-8.36,4.24,5.43,9.36,8.36,14.83,8.36,14.3,0,25.5-20.43,25.5-46.5S104.13,28.5,89.83,28.5Zm0,85c-3.93,0-8-3.51-11.3-9.63L75,97.22l-3.53,6.65c-3.25,6.12-7.37,9.63-11.3,9.63a9.45,9.45,0,0,1-6.31-2.86C47.06,104.45,42.67,90.46,42.67,75s4.6-29.9,11.45-35.88a9.24,9.24,0,0,1,6.05-2.62c3.93,0,8,3.51,11.3,9.63L75,52.78l3.53-6.65C81.78,40,85.9,36.5,89.83,36.5c8.28,0,17.5,15.81,17.5,38.5S98.11,113.5,89.83,113.5Z"/><path d="M61.2,65.48a6,6,0,0,1,6-6h-.16l.81-7.95a5.48,5.48,0,0,0-.7,0A14,14,0,0,0,56.92,75a14,14,0,0,0,10,23.5l.13-8a6,6,0,0,1-5.89-6A5.94,5.94,0,0,1,64.92,79H72V71H64.78A6,6,0,0,1,61.2,65.48Z"/><path d="M83,51.52l-.13,8a6,6,0,0,1,5.89,6A5.94,5.94,0,0,1,85.08,71H78v8h7.22a6,6,0,0,1-2.47,11.48h.16l-.81,8a5.48,5.48,0,0,0,.7,0A14,14,0,0,0,93.08,75a14,14,0,0,0-10-23.5Z"/></g></svg>