<svg id="Symbols" xmlns="http://www.w3.org/2000/svg" viewBox="0 0 150 150"><title>Adwo-bold</title><path id="Bold" d="M122.07,73l-.69-3C117.83,54.89,98.32,43.87,75,43.87s-42.83,11-46.38,26.21l-.69,3,3.56,2-3.56,2,.69,3C32.17,95.11,51.67,106.13,75,106.13s42.83-11,46.38-26.21l.69-3-3.56-2ZM75,51.87c17.72,0,33.13,7.24,37.64,17.24L109.23,71H91.64l-5.59-5.6L80.46,71H69.74l-5.59-5.6L58.56,71H40.77l-3.41-1.89C41.87,59.11,57.28,51.87,75,51.87ZM90.57,75c0,1.25-2,2.26-4.52,2.26s-4.52-1-4.52-2.26,2-2.26,4.52-2.26S90.57,73.75,90.57,75Zm-21.9,0c0,1.25-2,2.26-4.52,2.26s-4.52-1-4.52-2.26,2-2.26,4.52-2.26S68.67,73.75,68.67,75ZM75,98.13c-17.72,0-33.14-7.24-37.64-17.24L40.77,79H58.56l5.59,5.6L69.74,79H80.46l5.59,5.6L91.64,79h17.59l3.41,1.89C108.14,90.89,92.72,98.13,75,98.13Z"/></svg>