<svg id="Symbols" xmlns="http://www.w3.org/2000/svg" viewBox="0 0 150 150"><title>Menso Wo Kenten-bold</title><g id="Bold"><path d="M122.6,47.61l-30.87-.49L75,20.48,58.27,47.12l-30.87.49L43.37,75l-16,27.39,30.87.49L75,129.52l16.73-26.64,30.87-.49L106.63,75Zm-13.8,47L87.27,95,75,114.48,62.73,95,41.2,94.61,52.63,75,41.2,55.39l21.53-.34L75,35.52,87.27,55.05l21.53.34L97.37,75Z"/><path d="M105.35,57.34,86.15,57,75,39.28,63.85,57l-19.2.31L55,75,44.65,92.66l19.2.31L75,110.72,86.15,93l19.2-.31L95.05,75ZM91.56,84.88,81.68,85,75,95.68,68.32,85l-9.88-.16L64.21,75l-5.77-9.88L68.32,65,75,54.32,81.68,65l9.88.16L85.79,75Z"/><polygon points="80.01 67.93 75 59.96 69.99 67.93 63.62 68.03 67.68 75 63.62 81.97 69.99 82.07 75 90.04 80.01 82.07 86.38 81.97 82.32 75 86.38 68.03 80.01 67.93"/></g></svg>