<svg id="Symbols" xmlns="http://www.w3.org/2000/svg" viewBox="0 0 150 150"><title>Eban-bold</title><g id="Bold"><path d="M99.58,54.19H95.81V50.42c-5.31,0-16.7-11.4-16.7-16.7h-8c0,5.3-11.4,16.7-16.71,16.7v4h-4c0,5.31-11.4,16.71-16.7,16.71v8c5.3,0,16.7,11.39,16.7,16.7h3.77v3.77c5.31,0,16.7,11.4,16.7,16.7h8c0-5.3,11.4-16.7,16.71-16.7v-4h4c0-5.31,11.4-16.71,16.7-16.71v-8C111,70.89,99.58,59.5,99.58,54.19ZM75.11,44.07A41.55,41.55,0,0,0,85.46,54.42,41.55,41.55,0,0,0,75.11,64.77,41.72,41.72,0,0,0,64.76,54.42,41.72,41.72,0,0,0,75.11,44.07Zm-31,31A41.72,41.72,0,0,0,54.42,64.76,41.72,41.72,0,0,0,64.77,75.11,41.55,41.55,0,0,0,54.42,85.46,41.55,41.55,0,0,0,44.07,75.11Zm30.82,30.82A41.55,41.55,0,0,0,64.54,95.58,41.55,41.55,0,0,0,74.89,85.23,41.72,41.72,0,0,0,85.24,95.58,41.72,41.72,0,0,0,74.89,105.93ZM95.58,85.24A41.72,41.72,0,0,0,85.23,74.89,41.55,41.55,0,0,0,95.58,64.54a41.55,41.55,0,0,0,10.35,10.35A41.72,41.72,0,0,0,95.58,85.24Z"/></g></svg>