<svg id="Symbols" xmlns="http://www.w3.org/2000/svg" viewBox="0 0 150 150"><title>Duafe-bold</title><path id="Bold" d="M117,62.83H89V60.89c11.89-3.32,20-10.77,20-19.66,0-12-14.93-21.5-34-21.5s-34,9.45-34,21.5c0,8.89,8.11,16.34,20,19.66v1.94H33v8h0v50.44h8V70.83h7v50.44h8V70.83h7.18v50.44h8V70.83h7.16v50.44h8V70.83h7v50.44h8V70.83H109v50.44h8V70.83h0ZM49,41.23c0-4,4.25-8.34,11.23-11A3.9,3.9,0,0,0,60,31.51c0,4.15,6.72,7.5,15,7.5s15-3.35,15-7.5a3.9,3.9,0,0,0-.23-1.26c7,2.64,11.23,7,11.23,11,0,6.39-10.68,13.5-26,13.5S49,47.62,49,41.23Z"/></svg>