<svg id="Symbols" xmlns="http://www.w3.org/2000/svg" viewBox="0 0 150 150"><title>Akoko Nan-bold</title><path id="Bold" d="M122.6,54a39.09,39.09,0,0,0-36.25-38.9l-10.63-.74,7.51,7.55A31,31,0,0,1,76.08,71H59.88q-.06-.8-.06-1.59a23.46,23.46,0,0,1,9.32-18.8l10.5-8-13.16.81A31.67,31.67,0,0,0,37.08,71H31.4v8h5.68a31.67,31.67,0,0,0,29.4,27.57l13.16.81-10.5-8a23.46,23.46,0,0,1-9.32-18.8q0-.8.06-1.59h16.2a31,31,0,0,1,7.15,49.1l-7.51,7.55,10.63-.74A39,39,0,0,0,116.46,75,38.68,38.68,0,0,0,122.6,54ZM100.27,43.78a38.84,38.84,0,0,0-4.55-18.32A31,31,0,0,1,109.53,71H89.24A38.85,38.85,0,0,0,100.27,43.78ZM55,55.59a31.51,31.51,0,0,0-3.15,13.82c0,.53,0,1.06,0,1.59h-6.7A23.69,23.69,0,0,1,55,55.59Zm0,38.82A23.69,23.69,0,0,1,45.16,79h6.7c0,.53,0,1.06,0,1.59A31.51,31.51,0,0,0,55,94.41Zm40.75,30.13A39.12,39.12,0,0,0,89.24,79h20.29a31,31,0,0,1-13.81,45.54Z"/></svg>