<svg id="Symbols" xmlns="http://www.w3.org/2000/svg" viewBox="0 0 150 150"><title>Akoma Ntoaso-bold</title><path id="Bold" d="M105.23,84.76,103,84.13l-6.6,6.59-7.17-7.17a16.65,16.65,0,0,0,0-17.1l7.17-7.17,6.6,6.59,2.25-.63A16.6,16.6,0,1,0,84.76,44.77L84.13,47l6.59,6.6-7.17,7.17a16.65,16.65,0,0,0-17.1,0l-7.17-7.17L65.87,47l-.63-2.25A16.71,16.71,0,0,0,61,37.52h0A16.6,16.6,0,1,0,44.77,65.24l2.25.63,6.6-6.59,7.17,7.17a16.49,16.49,0,0,0,0,17.1l-7.17,7.17L47,84.13l-2.25.63A16.6,16.6,0,1,0,61,112.48h0a16.71,16.71,0,0,0,4.24-7.25l.63-2.25-6.59-6.6,7.17-7.17a16.55,16.55,0,0,0,17.1,0l7.17,7.17L84.13,103l.63,2.25a16.58,16.58,0,0,0,16,12.11A16.6,16.6,0,0,0,112.48,89,16.71,16.71,0,0,0,105.23,84.76ZM94.66,43.17a8.6,8.6,0,1,1,12.16,12.17,8.48,8.48,0,0,1-1.72,1.34L93.32,44.9A8.82,8.82,0,0,1,94.66,43.17ZM44.9,56.68a8.48,8.48,0,0,1-1.72-1.34A8.6,8.6,0,0,1,55.34,43.17a8.82,8.82,0,0,1,1.34,1.73Zm10.44,50.15A8.6,8.6,0,0,1,43.18,94.66a8.48,8.48,0,0,1,1.72-1.34L56.68,105.1A8.82,8.82,0,0,1,55.34,106.83ZM68.92,81.08A8.6,8.6,0,1,1,81.08,68.92,8.6,8.6,0,0,1,68.92,81.08Zm37.9,25.75a8.61,8.61,0,0,1-12.16,0,8.82,8.82,0,0,1-1.34-1.73L105.1,93.32a8.48,8.48,0,0,1,1.72,1.34A8.61,8.61,0,0,1,106.82,106.83Z"/></svg>