<svg id="Symbols" xmlns="http://www.w3.org/2000/svg" viewBox="0 0 150 150"><title>Denkyem-bold</title><path id="Bold" d="M111,109.38a4.36,4.36,0,0,0-3.51-1.41v-16h-13a27.93,27.93,0,0,0-.07-40.37h13v-16a4.34,4.34,0,0,0,3.5-1.42c1.53-1.53,1.92-3.63.86-4.69s-3.16-.67-4.69.86l-.14.16h-.83c0-2.13-1.22-3.84-2.7-3.84s-2.68,1.71-2.7,3.84H100a1,1,0,0,0-.14-.16c-1.53-1.53-3.63-1.91-4.69-.86s-.67,3.16.86,4.69a4.43,4.43,0,0,0,3.37,1.43v8h-17A19.62,19.62,0,0,0,86,31.69c0-8.8-4.92-15.93-11-15.93S64,22.89,64,31.69a19.62,19.62,0,0,0,3.68,11.87H50.56v-8a4.41,4.41,0,0,0,3.36-1.43c1.53-1.53,1.92-3.63.86-4.69s-3.16-.67-4.69.86l-.14.16h-.69c0-2.13-1.23-3.84-2.7-3.84s-2.68,1.71-2.71,3.84H43l-.14-.16c-1.54-1.53-3.64-1.91-4.69-.86s-.68,3.16.85,4.69a4.37,4.37,0,0,0,3.51,1.42v16H55.73a28,28,0,0,0-.07,40.37h-13v16a4.33,4.33,0,0,0-3.5,1.41c-1.53,1.53-1.92,3.63-.86,4.69s3.16.68,4.69-.86l.14-.16h.83c0,2.13,1.22,3.85,2.7,3.85s2.68-1.72,2.7-3.85H50a.7.7,0,0,0,.14.16c1.53,1.54,3.63,1.92,4.69.86s.67-3.16-.86-4.69A4.47,4.47,0,0,0,50.62,108v-8H71.08V100h4c3.67,0,7.77,5.36,7.77,13.05s-3.92,12.87-7.59,13l-4,.18.36,8,4-.18c8.54-.38,15.23-9.61,15.23-21a25.85,25.85,0,0,0-3.37-13.11h12v8a4.45,4.45,0,0,0-3.36,1.43c-1.53,1.53-1.92,3.63-.86,4.69s3.16.68,4.69-.86l.14-.16h.69c0,2.13,1.23,3.85,2.7,3.85s2.68-1.72,2.71-3.85H107l.14.16c1.54,1.54,3.64,1.92,4.69.86S112.48,110.91,111,109.38ZM55.08,71.78a19.86,19.86,0,0,1,4-12L59.26,84A19.88,19.88,0,0,1,55.08,71.78Zm16,19.59a20.08,20.08,0,0,1-3.79-1.17l-.2-36.75a20,20,0,0,1,4-1.27Zm11-.88a20.29,20.29,0,0,1-3,.88V52.18a20.29,20.29,0,0,1,3,.88Zm8-31.9a19.88,19.88,0,0,1,0,26.37Z"/></svg>