<svg id="Symbols" xmlns="http://www.w3.org/2000/svg" viewBox="0 0 150 150"><title>Nea Onnim-bold</title><path id="Bold" d="M129,29V21H84.64V51.91H79V21H71V51.91H65.36V21H21v8H57.36v5.64H26.45v8H57.36v5.63H26.45v8h3.64V93.73H26.45v8H57.36v5.63H26.45v8H57.36V121H21v8H65.36V98.1H71V129h8V98.1h5.64V129H129v-8H92.64v-5.64h30.91v-8H92.64v-5.63h30.91v-8h-3.64V56.27h3.64v-8H92.64V42.64h30.91v-8H92.64V29ZM79,59.91h5.64V71H65.36V59.91H79ZM38.09,93.73V56.27h5.64V93.73ZM51.73,56.27h5.63V93.73H51.73ZM71,90.09H65.36V79H84.64V90.1H71Zm40.91-33.82V93.73h-5.64V56.27ZM98.27,93.73H92.64V56.27h5.63Z"/></svg>