<?xml version="1.0" encoding="UTF-8"?>
<svg id="Symbols" xmlns="http://www.w3.org/2000/svg" viewBox="0 0 150 150">
  <path d="m114.6,74.65c8.47-5.25,14.18-14.46,14.3-24.88.09-7.96-2.92-15.47-8.48-21.16-5.56-5.69-13-8.87-20.95-8.96-7.98-.12-15.46,2.93-21.14,8.49-1.71,1.67-3.18,3.51-4.42,5.49-1.24-1.97-2.71-3.82-4.42-5.49-5.68-5.56-13.16-8.6-21.14-8.49-7.95.09-15.39,3.27-20.95,8.96-5.56,5.69-8.57,13.2-8.48,21.16.11,10.41,5.83,19.63,14.3,24.88-8.47,5.25-14.18,14.46-14.3,24.88-.09,7.96,2.92,15.47,8.48,21.16,5.56,5.69,13,8.87,20.95,8.96.11,0,.23,0,.34,0,7.82,0,15.2-3.01,20.8-8.49,1.71-1.67,3.18-3.51,4.42-5.49,1.24,1.97,2.71,3.82,4.42,5.49,5.6,5.49,12.98,8.49,20.8,8.49.11,0,.23,0,.34,0,7.95-.09,15.39-3.27,20.95-8.96,5.56-5.69,8.57-13.2,8.48-21.16-.11-10.41-5.83-19.63-14.3-24.88Zm-.73,39.63c-3.85,3.94-9,6.14-14.5,6.2-5.48.04-10.7-2.03-14.64-5.88-3.5-3.42-5.63-7.88-6.1-12.7l8.02-8.2-6.55-6.41-6.2,6.34-6.26-6.4-6.55,6.41,8.08,8.27c-.47,4.82-2.6,9.27-6.1,12.7-3.93,3.85-9.14,5.92-14.64,5.88-5.5-.06-10.66-2.26-14.5-6.2-3.85-3.94-5.93-9.14-5.87-14.65.12-10.49,8.5-19.23,19.06-20.29l7.56,7.73,6.55-6.41-5.87-6.01,6.01-6.15-6.55-6.41-7.7,7.87c-10.56-1.06-18.94-9.8-19.06-20.29-.06-5.51,2.03-10.71,5.87-14.65,3.85-3.94,9-6.14,14.5-6.2,5.52-.03,10.7,2.03,14.64,5.88,3.5,3.43,5.63,7.88,6.1,12.7l-7.86,8.06,6.55,6.4,6.04-6.19,6.05,6.19,6.55-6.41-7.88-8.06c.47-4.82,2.6-9.27,6.1-12.7,3.93-3.85,9.14-5.93,14.64-5.88,5.5.06,10.66,2.26,14.5,6.2,3.85,3.94,5.93,9.14,5.87,14.65-.12,10.49-8.5,19.23-19.06,20.29l-7.77-7.95-6.55,6.41,6.09,6.23-5.93,6.07,6.55,6.41,7.61-7.79c10.56,1.06,18.94,9.8,19.06,20.29.06,5.51-2.03,10.71-5.87,14.65Z"/>
</svg>