<?xml version="1.0" encoding="UTF-8"?>
<svg id="Symbols" xmlns="http://www.w3.org/2000/svg" viewBox="0 0 150 150">
  <path d="m127.01,69.55c-3.2-6.88-8.89-12.22-16.03-15.05-2.18-.87-4.36-1.5-6.51-1.91-.98-2.08-2.03-5.94,1.5-8.98l-4.75-6.17c-4.21,3.62-5.96,8.65-4.92,14.16.03.17.07.33.1.49-.99.05-1.98.13-2.97.25-1.72-1.08-4.49-3.82-2.52-9.61l-7.08-2.68c-2.08,6.14-1.07,10.88.99,14.25-6.41,2.15-12.07,5.71-15.63,10.13l-2.8,3.25-.03-.03c-.08.11-.14.21-.22.31l-.76.88-.16.2c-6.52,8.63-14.62,12.13-22.79,9.84-5.16-1.45-9.8-5.19-12.47-9.66-.03-.06-.06-.12-.09-.18h0c-1.1-1.87-1.86-3.87-2.16-5.88-.77-5.23.78-9.81,4.15-12.25,1.28-.93,2.91-1.48,4.72-1.59,1.42-.09,2.77.03,3.98.34.23.06,5.55,1.6,5.58,7.44,0,3.03-2.33,5.49-5.2,5.49-1.55,0-2.66-.73-3.07-1.46-.12-.21-.47-.83.16-2.06l-6.62-3.78c-1.69,3.31-1.7,6.92,0,9.91,1.86,3.29,5.51,5.34,9.53,5.34,7.01,0,12.72-6.03,12.72-13.47-.05-9.51-7.35-14.04-11.25-15.12-1.99-.52-4.11-.71-6.28-.58-3.18.2-6.13,1.23-8.53,2.98-5.73,4.16-8.53,11.84-7.32,20.03.44,2.96,1.51,5.85,3.04,8.55h0c3.92,7.39,4.37,14.01,4.84,21.03.31,4.56.63,9.28,2,14.01.73,2.52,2.55,4.22,4.75,4.45,2.29.24,4.5-1.17,5.78-3.67,1.35-2.65,2.39-4.91,3.23-6.72.63-1.36,1.2-2.6,1.68-3.5.48.9,1.05,2.14,1.67,3.5.84,1.82,1.88,4.08,3.23,6.73,1.18,2.32,3.17,3.69,5.27,3.69.17,0,.33,0,.5-.03,2.2-.23,4.02-1.93,4.75-4.45,1.14-3.94,1.74-7.66,2.32-11.26,1.22-7.6,2.39-14.79,8.65-23.69l2.84-3.29.09-.11c3.94-4.93,13.89-9.97,24.56-9.62,2.85.1,5.84.75,8.88,1.96,5.33,2.11,9.56,6.06,11.92,11.12,1.47,3.16,2.22,6.56,2.22,10.11,0,6.08-2.37,11.95-6.67,16.54-5.33,5.68-13.2,4.61-13.29,4.59-8.08-1.2-14.17-8.07-14.17-15.98,0-3.71,1.27-7.21,3.67-10.1,2.03-2.44,4.88-3.78,7.75-3.79.19,0,.38,0,.57.02,4.25.25,6.4,2.28,6.4,6.02s-3.18,6.7-7.1,6.7v7.95c8.06,0,14.62-6.57,14.62-14.65s-5.3-13.47-13.51-13.96c-.3-.02-.6-.03-.9-.03-.06,0-.12,0-.18,0-5.03,0-9.88,2.36-13.31,6.5-3.57,4.3-5.54,9.75-5.54,15.34,0,11.85,8.88,22.1,20.61,23.85.14.02,1.17.17,2.76.17,3.91,0,11.23-.93,16.96-7.04,5.71-6.08,8.85-13.94,8.85-22.13,0-4.78-1.01-9.36-2.99-13.62Zm-71.11,25.82c-.29,1.8-.57,3.54-.91,5.28-.35-.76-.68-1.46-.98-2.1-1.26-2.75-2.18-4.73-3.3-6.17-1.26-1.62-3.18-2.53-5.25-2.49-2.01.03-3.86.96-5.07,2.55-1.1,1.44-2.01,3.4-3.26,6.12-.26.57-.54,1.18-.85,1.84-.3-2.26-.46-4.59-.62-7-.2-2.92-.41-5.99-.9-9.21,1.82,1.01,3.75,1.82,5.75,2.37,5.94,1.66,11.89,1.1,17.43-1.47-.95,3.55-1.51,6.94-2.04,10.29Z"/>
</svg>