<?xml version="1.0" encoding="UTF-8"?>
<svg id="Symbols" xmlns="http://www.w3.org/2000/svg" viewBox="0 0 150 150">
  <path d="m54.71,32.63c-1.66.17-2.86,1.73-2.7,3.48s1.65,3.03,3.31,2.86,2.86-1.73,2.7-3.48c-.17-1.75-1.65-3.03-3.31-2.86Z"/>
  <path d="m45.42,30.37c-1.66.17-2.86,1.73-2.7,3.48s1.65,3.03,3.31,2.86c1.66-.17,2.86-1.73,2.7-3.48s-1.65-3.03-3.31-2.86Z"/>
  <path d="m39.07,37.44c-1.66.17-2.86,1.73-2.7,3.48.17,1.75,1.65,3.03,3.31,2.86,1.66-.17,2.86-1.73,2.7-3.48-.17-1.75-1.65-3.03-3.31-2.86Z"/>
  <path d="m116.72,26.33c-12.56-11.41-27.69-4.65-31.78-.9-.66.61-1.24,1.32-1.68,2.09l-8.26,13.92-8.24-13.89c-.46-.8-1.03-1.51-1.7-2.12-4.09-3.75-19.22-10.51-31.78.9-13.99,12.71-13.3,34.02-13.26,34.92l.39,9.61,6.49-7c4.96-5.35,28.42-22.15,42.97-14.09l-4.88,7.63c-1.79-.47-3.67-.49-5.51-.03-3.06.76-5.64,2.73-7.25,5.54-2.47,4.29-2.05,9.6.66,13.41l-5.77,9.02c-1.77-.45-3.63-.47-5.45-.02-3.06.76-5.64,2.73-7.25,5.54-2.46,4.28-2.05,9.55.62,13.36l-13.66,21.36,6.68,4.41,13.56-21.21c.89.23,1.8.36,2.72.36s1.81-.11,2.71-.34c3.06-.76,5.64-2.73,7.25-5.54,2.45-4.27,2.05-9.55-.62-13.36l5.81-9.07c.87.22,1.76.35,2.66.35s1.81-.11,2.71-.34c3.06-.76,5.64-2.73,7.25-5.54,2.44-4.26,2.06-9.5-.58-13.31l3.47-5.42,3.47,5.42c-2.64,3.8-3.03,9.05-.58,13.31,1.62,2.81,4.19,4.78,7.25,5.54.9.22,1.81.34,2.71.34s1.79-.13,2.66-.35l5.81,9.08c-2.67,3.81-3.07,9.08-.62,13.35,1.62,2.81,4.19,4.78,7.25,5.54.9.22,1.81.34,2.71.34s1.83-.14,2.72-.36l13.56,21.21,6.68-4.41-13.66-21.36c2.67-3.81,3.08-9.08.62-13.36-1.62-2.81-4.19-4.78-7.25-5.54-1.82-.45-3.68-.44-5.45.02l-5.77-9.02c2.71-3.81,3.13-9.11.66-13.41h0c-1.62-2.81-4.19-4.78-7.25-5.54-1.84-.46-3.72-.44-5.51.03l-4.88-7.63c14.55-8.07,38.01,8.74,42.97,14.09l6.49,7,.39-9.61c.04-.9.73-22.21-13.26-34.92ZM28.78,51.86c1.11-6.08,3.72-13.97,9.81-19.5,3.57-3.24,7.36-4.3,10.74-4.3,5.21,0,9.45,2.51,10.39,3.37.07.06.13.14.2.26l4.79,8.08c-12.76-1.57-26.97,5.71-35.93,12.09Zm18.59,47.34c-.56.9-1.43,1.53-2.45,1.76-.97.22-1.97.07-2.83-.44-1.94-1.15-2.54-3.65-1.35-5.57.56-.9,1.43-1.53,2.45-1.76.29-.07.58-.1.87-.1.69,0,1.36.18,1.97.54,1.94,1.15,2.54,3.65,1.35,5.57Zm59.47-6.01c1.03.24,1.91.86,2.47,1.76,1.2,1.93.6,4.42-1.36,5.57-.86.51-1.88.67-2.85.44-1.03-.24-1.91-.86-2.47-1.76-1.2-1.93-.6-4.42,1.36-5.57.61-.36,1.29-.54,1.98-.54.29,0,.58.03.87.1Zm-17.93-53.63c-1.22,0-2.43.07-3.62.22l4.81-8.11c.05-.09.11-.17.18-.23,1.56-1.43,12.06-7.31,21.13.93,6.06,5.5,8.67,13.39,9.79,19.49-8.13-5.78-20.54-12.29-32.28-12.29Z"/>
  <path d="m95.29,32.63c-1.66-.17-3.14,1.11-3.31,2.86-.17,1.75,1.04,3.31,2.7,3.48s3.14-1.11,3.31-2.86-1.04-3.31-2.7-3.48Z"/>
  <path d="m104.58,30.37c-1.66-.17-3.14,1.11-3.31,2.86s1.04,3.31,2.7,3.48c1.66.17,3.14-1.11,3.31-2.86s-1.04-3.31-2.7-3.48Z"/>
  <path d="m107.62,40.3c-.17,1.75,1.04,3.31,2.7,3.48,1.66.17,3.14-1.11,3.31-2.86.17-1.75-1.04-3.31-2.7-3.48-1.66-.17-3.14,1.11-3.31,2.86Z"/>
</svg>