<svg id="Symbols" xmlns="http://www.w3.org/2000/svg" viewBox="0 0 150 150"><title>Akoma-bold</title><path id="Bold" d="M75,121.24,72.41,119c-1.71-1.45-41.89-35.79-41.89-59.71a42.44,42.44,0,0,1,.9-8.8,3.07,3.07,0,0,1,.09-.49,33.45,33.45,0,0,1,.94-3.63l0-.11A24.21,24.21,0,0,1,55.37,30C63.18,30,71,35.07,75,38.11c4-3,11.82-8.1,19.63-8.1A24.21,24.21,0,0,1,117.52,46.3l0,.11a33.45,33.45,0,0,1,.94,3.63,3.07,3.07,0,0,1,.09.49,42.44,42.44,0,0,1,.9,8.8c0,23.92-40.18,58.26-41.89,59.71ZM39.37,51.51v.07l-.09.41a35.2,35.2,0,0,0-.76,7.34c0,15.6,24.3,40.5,36.48,51.36,12.18-10.87,36.48-35.78,36.48-51.36a35.2,35.2,0,0,0-.76-7.34l-.09-.48c-.19-.88-.41-1.75-.69-2.65A16.21,16.21,0,0,0,94.63,38c-6.51,0-14.43,5.93-16.93,8.22L75,48.7l-2.7-2.47C69.79,43.94,61.84,38,55.37,38A16.21,16.21,0,0,0,40.06,48.86C39.78,49.76,39.56,50.63,39.37,51.51Z"/></svg>