<?xml version="1.0" encoding="UTF-8"?>
<svg id="Symbols" xmlns="http://www.w3.org/2000/svg" viewBox="0 0 150 150">
  <path d="m101.01,20h-.38c-10.94,0-20.5,6.12-25.56,15.18-4.96-9.05-14.46-15.18-25.34-15.18h-.38c-16.19,0-29.36,13.41-29.36,29.89v50.23c0,16.48,13.17,29.89,29.36,29.89,11,0,20.61-6.19,25.64-15.32,5.03,9.13,14.64,15.32,25.64,15.32,16.19,0,29.36-13.41,29.36-29.89v-50.61c0-16.27-13-29.5-28.99-29.5Zm-51.65,102.54c-12.08,0-21.91-10.06-21.91-22.43v-50.23c0-12.37,9.83-22.43,21.91-22.43h.38c11.87,0,21.53,9.89,21.53,22.04v10.92c-10.79-.78-20.65-4.9-28.55-11.34,1.95,8.16,6.9,15.14,13.63,19.72-3.14,1.61-5.04,3.62-5.04,5.82,0,2.35,2.15,4.49,5.69,6.14-7.05,4.57-12.28,11.73-14.28,20.14,7.9-6.44,17.76-10.56,28.55-11.34v10.54c0,12.37-9.83,22.43-21.91,22.43Zm17.29-50.27c-2.24,0-4.05-1.81-4.05-4.05s1.81-4.05,4.05-4.05,4.05,1.81,4.05,4.05-1.81,4.05-4.05,4.05Zm4.05,9.5c0,2.24-1.81,4.05-4.05,4.05s-4.05-1.81-4.05-4.05,1.81-4.05,4.05-4.05,4.05,1.81,4.05,4.05Zm51.84,18.34c0,12.37-9.83,22.43-21.91,22.43s-21.91-10.06-21.91-22.43v-10.54c10.79.78,20.65,4.9,28.55,11.34-2.01-8.42-7.23-15.58-14.28-20.14,3.54-1.65,5.69-3.8,5.69-6.14,0-2.2-1.89-4.21-5.04-5.82,6.72-4.58,11.68-11.57,13.63-19.72-7.9,6.44-17.76,10.56-28.55,11.34v-10.54c0-12.36,9.83-22.42,21.91-22.42h.38c11.87,0,21.53,9.89,21.53,22.04v50.61Zm-39.19-22.39c2.24,0,4.05,1.81,4.05,4.05s-1.81,4.05-4.05,4.05-4.05-1.81-4.05-4.05,1.81-4.05,4.05-4.05Zm-4.05-9.5c0-2.24,1.81-4.05,4.05-4.05s4.05,1.81,4.05,4.05-1.81,4.05-4.05,4.05-4.05-1.81-4.05-4.05Z"/>
</svg>