<?xml version="1.0" encoding="UTF-8"?>
<svg id="Symbols" xmlns="http://www.w3.org/2000/svg" xmlns:xlink="http://www.w3.org/1999/xlink" viewBox="0 0 150 150">
  <defs>
    <style>
      .cls-1 {
        fill: none;
      }
    </style>
    <clipPath id="clippath">
      <rect class="cls-1" x="176.53" y="176.56" width="110" height="111"/>
    </clipPath>
  </defs>
  <path d="m68.78,79.55c-1.04-4.65,3.03-8.72,7.68-7.68,2.34.52,4.23,2.41,4.76,4.75,1.04,4.65-3.03,8.72-7.68,7.68-2.34-.52-4.23-2.41-4.76-4.75Z"/>
  <path d="m54.74,130c-.97,0-1.96-.14-2.95-.42-1.83-.52-3.39-1.17-4.63-1.91-1.24-.74-2.54-1.81-3.87-3.17-.96-.99-1.71-2.08-2.22-3.26-1.37-3.16-1.26-6.45.32-9.5l.43-.71,12.88-18.12-21.11,7.22c-3.47.65-6.66-.29-9.25-2.73-.93-.88-1.71-1.95-2.31-3.19-.57-1.17-1.33-2.94-1.69-4.73-.36-1.77-.37-3.71-.31-5.03.06-1.35.34-2.64.84-3.8,1.38-3.25,3.89-5.42,7.27-6.27l.86-.15,21.54-2.19-19.64-10.9-.22-.17c-2.73-2.11-4.19-5.06-4.23-8.55-.02-1.28.21-2.57.67-3.85.64-1.79,1.38-3.32,2.19-4.52.82-1.21,1.96-2.46,3.38-3.72,1.04-.91,2.18-1.6,3.39-2.04,3.33-1.21,6.64-.79,9.58,1.21l.67.53,18.04,16.48-2.72-25.16v-.41c.1-3.21,1.42-5.99,3.82-8.01,1.23-1.04,2.68-1.78,4.3-2.21,1.22-.32,3.04-.71,4.81-.71,1.45,0,3.11.25,4.94.75,1.35.37,2.56.94,3.6,1.72,2.76,2.06,4.28,4.99,4.38,8.47v.41s-2.71,25.17-2.71,25.17l18.49-16.87.22-.15c2.94-2,6.26-2.42,9.59-1.21,1.2.43,2.35,1.12,3.39,2.04,1.42,1.25,2.56,2.5,3.38,3.71.98,1.46,1.71,3.19,2.14,4.38.56,1.55.79,3.12.69,4.68-.21,3.18-1.67,5.89-4.2,7.85l-.71.47-18.69,10.57,22.55,2.31.26.07c3.37.86,5.89,3.02,7.26,6.27.49,1.16.78,2.45.84,3.81.06,1.31.06,3.24-.31,5.02-.35,1.73-1.08,3.46-1.63,4.6-.72,1.5-1.7,2.78-2.91,3.79-2.49,2.08-5.5,2.85-8.71,2.25l-.84-.22-21.44-7.39,13.6,19.22c1.59,3.05,1.7,6.34.32,9.5-.51,1.18-1.26,2.28-2.22,3.26-.91.93-2.32,2.24-3.87,3.17-1.25.75-2.8,1.39-4.63,1.91-1.35.38-2.69.51-3.99.37-3.47-.36-6.27-2.16-8.08-5.2l-.37-.74-10.34-24.52-10.57,25.03-.13.22c-1.81,3.04-4.61,4.83-8.09,5.2-.33.03-.68.05-1.02.05Zm-6.78-14.72c-.5,1.01-.51,1.94-.05,2.99.15.34.39.69.72,1.03.85.88,1.7,1.58,2.36,1.98.67.4,1.67.8,2.84,1.13.41.12.8.16,1.16.12,1.05-.11,1.76-.53,2.34-1.41l12.9-30.55c.72-1.72,2.36-2.75,4.14-2.61.17.01.35.02.54.02,1.75,0,3.32,1.06,4.02,2.7l12.8,30.35c.59.94,1.31,1.39,2.39,1.5.35.04.74,0,1.17-.13,1.16-.33,2.17-.73,2.84-1.13.67-.4,1.51-1.11,2.37-1.98.32-.33.56-.68.72-1.02.44-1.02.44-1.92,0-2.89l-18.61-26.21c-1.09-1.53-1.1-3.65-.02-5.16l.11-.15c1.07-1.49,3.01-2.13,4.8-1.51l30.42,10.48c.96.15,1.69-.05,2.43-.66.38-.32.71-.75.96-1.29.52-1.09.9-2.11,1.05-2.88.16-.8.22-1.93.16-3.19-.02-.47-.11-.89-.25-1.23-.43-1.02-1.04-1.6-2.01-1.9l-32.57-3.34c-1.62-.15-3-1.36-3.42-3-.46-1.82.34-3.73,1.94-4.64l27.78-15.71c.78-.64,1.17-1.38,1.23-2.39.04-.52-.05-1.06-.26-1.63-.41-1.14-.88-2.11-1.31-2.76-.45-.66-1.2-1.47-2.12-2.28-.34-.3-.67-.51-1-.63-.99-.36-1.8-.29-2.66.24l-24.58,22.43c-1.21,1.1-2.96,1.37-4.46.67-1.62-.75-2.59-2.49-2.39-4.32l3.6-33.27c-.05-1.15-.47-1.94-1.38-2.62-.29-.22-.66-.39-1.09-.5-1.16-.31-2.22-.49-2.99-.49s-1.78.16-2.89.46c-.55.15-1.03.38-1.4.7-.75.63-1.11,1.39-1.16,2.44l3.64,33.68c.18,1.69-.65,3.28-2.12,4.06-1.39.78-3.2.58-4.45-.53l-24.83-22.68c-.91-.59-1.71-.67-2.74-.3-.34.12-.68.33-1.01.63-.92.81-1.68,1.62-2.13,2.29-.45.66-.93,1.68-1.35,2.86-.16.44-.24.86-.23,1.25.01,1.12.36,1.91,1.15,2.59l28.05,15.57c.87.35,1.61.97,2.09,1.76.58.95.75,2.1.46,3.16-.38,1.41-1.54,2.51-3.01,2.87l-.5.08-32.28,3.29c-1.03.29-1.67.87-2.12,1.93-.15.35-.23.76-.25,1.23-.06,1.26,0,2.39.16,3.19.16.8.55,1.86,1.1,2.97.2.42.44.76.71,1.01.78.73,1.54.99,2.53.86l30.64-10.54c1.64-.58,3.44.03,4.46,1.53.94,1.36.93,3.21-.03,4.59l-19.09,26.85Zm17.11-25.92l-.05.02s.03-.01.05-.02Zm23.61-4.51h0s0,0,0,0Zm-.26-13.92h.06s-.04,0-.06,0Zm-10.16-8.45s0,0-.01.01h.01Z"/>
</svg>