<?xml version="1.0" encoding="UTF-8"?>
<svg id="Symbols" xmlns="http://www.w3.org/2000/svg" xmlns:xlink="http://www.w3.org/1999/xlink" viewBox="0 0 150 150">
  <defs>
    <style>
      .cls-1, .cls-2 {
        fill: none;
      }

      .cls-3 {
        clip-path: url(#clippath);
      }

      .cls-2 {
        stroke: #000;
        stroke-miterlimit: 10;
      }
    </style>
    <clipPath id="clippath">
      <rect class="cls-1" x="176.53" y="19.5" width="110" height="111"/>
    </clipPath>
  </defs>
  <g class="cls-3">
    <g>
      <rect class="cls-2" x="145.6" y="82.36" width="24.43" height="24.43" transform="translate(77.73 -71.07) rotate(33.26)"/>
      <rect class="cls-2" x="151.62" y="88.46" width="12.21" height="12.21" transform="translate(77.71 -71.02) rotate(33.26)"/>
    </g>
  </g>
  <g>
    <path d="m15.48,16v118h118V16H15.48Zm110,18.6l-7.7-5.05-6.7,10.21,10.21,6.7,4.18-6.38v5.82l-3.22,4.9-15.41-10.11,10.11-15.41,8.52,5.59v3.72Zm0,45.54l-1.76,2.69-4.61,7.03,6.37,4.18v3.72l-10.6-6.95,10.11-15.41.49.32v4.43Zm-2.22-13.06l-16.69,25.44,18.91,12.4v8.44l-22.78-14.94-16.69,25.44,3.26,2.14h-12.87l-22.85-14.99-9.83,14.99h-4.5l11.18-17.05-25.44-16.69-1.49,2.27v-11.69l2.22,1.46,16.69-25.44-18.91-12.4v-8.44l22.78,14.94,16.69-25.44-5.36-3.52h12.87l24.95,16.37,10.74-16.37h4.5l-12.09,18.43,25.44,16.69,1.49-2.27v11.69l-2.22-1.46Zm-9.44,58.92h-3.82l5.46-8.32-10.21-6.7-6.7,10.21,7.32,4.8h-5.66l-5.89-3.86,10.11-15.41,15.41,10.11-6.01,9.16Zm-57.72-2.42l-1.59,2.42h-3.61l4.38-6.68,10.18,6.68h-5.66l-3.7-2.42Zm-24.23,2.42l-8.39-5.5v-3.67l7.53,4.94,6.7-10.21-10.21-6.7-4.02,6.12v-5.51l3.22-4.91,15.41,10.11-10.05,15.32h-.18Zm-8.39-55.08l6.2-9.46-6.2-4.07v-3.76l10.6,6.95-10.11,15.41-.49-.32v-4.74Zm12.56-46.92h3.61l-1.71,2.61-4.61,7.03,10.21,6.7,6.07-9.26.62-.95-9.33-6.12h5.74l7.99,5.24-10.11,15.41-15.41-10.11,6.92-10.54Zm56.65,3.74l2.46-3.74h3.82l-5.29,8.06-12.28-8.06h5.59l5.71,3.74Zm-63.82-3.74l-5.39,8.21v-8.21h5.39Zm92.13,102l4.48-6.83v6.83h-4.48Z"/>
    <path d="m57.42,105.11l25.44,16.69,16.69-25.44-25.44-16.69-16.69,25.44Zm33.82-7.03l-10.11,15.41-15.41-10.11,10.11-15.41,15.41,10.11Z"/>
    <rect x="72.31" y="94.58" width="12.21" height="12.21" transform="translate(-48.79 111.03) rotate(-56.74)"/>
    <path d="m45.53,60.92l-16.69,25.44,25.44,16.69,16.69-25.44-25.44-16.69Zm7.03,33.82l-15.41-10.11,10.11-15.41,15.41,10.11-10.11,15.41Z"/>
    <rect x="43.7" y="75.87" width="12.21" height="12.21" transform="translate(-46.05 78.66) rotate(-56.74)"/>
    <path d="m77.98,73.77l25.44,16.69,16.69-25.44-25.44-16.69-16.69,25.44Zm33.82-7.03l-10.11,15.41-15.41-10.11,10.11-15.41,15.41,10.11Z"/>
    <path d="m91.53,46.27l-25.44-16.69-16.69,25.44,25.44,16.69,16.69-25.44Zm-33.82,7.03l10.11-15.41,15.41,10.11-10.11,15.41-15.41-10.11Z"/>
    <polygon points="100.73 77.8 101.36 76.85 107.43 67.59 97.22 60.89 92.61 67.92 90.52 71.1 100.73 77.8"/>
    <polygon points="68.61 42.17 65.83 46.42 61.91 52.39 72.13 59.08 76.74 52.06 78.83 48.87 68.61 42.17"/>
  </g>
</svg>