<?xml version="1.0" encoding="UTF-8"?>
<svg id="Symbols" xmlns="http://www.w3.org/2000/svg" xmlns:xlink="http://www.w3.org/1999/xlink" viewBox="0 0 150 150">
  <defs>
    <style>
      .cls-1 {
        fill: none;
      }
    </style>
    <clipPath id="clippath">
      <rect class="cls-1" x="176.53" y="-137.56" width="110" height="111"/>
    </clipPath>
  </defs>
  <path d="m108.26,93.52l21.74-18.66-21.41-18.38c4.89-1.28,8.78-3.59,11.6-6.92,5.01-5.94,4.89-13.2,4.61-16.04-.65-6.56-6.08-12.3-12.62-13.35-5.48-.88-10.95,1.82-13.94,6.88-.93,1.57-1.42,3.43-1.42,5.38,0,5.28,3.86,9.7,8.6,9.86,2.34.08,4.6-.83,6.32-2.56,1.8-1.81,2.84-4.38,2.84-7.05h-7.18c0,.66-.24,1.27-.65,1.69-.22.22-.61.48-1.1.47-.88-.03-1.66-1.15-1.66-2.41,0-.56.13-1.09.36-1.48,1.49-2.53,4.07-3.84,6.72-3.41,2.88.46,6.22,3.18,6.57,6.75.19,1.87.28,6.63-2.87,10.36-2.73,3.24-7.33,5.06-13.63,5.46l-26.15-22.44-26.14,22.43c-6.2-.42-10.73-2.24-13.43-5.44-3.15-3.73-3.05-8.49-2.87-10.36.36-3.58,3.69-6.29,6.57-6.75,2.65-.43,5.23.88,6.72,3.41.23.39.36.92.36,1.48,0,1.25-.77,2.38-1.66,2.41-.5.01-.88-.24-1.1-.47-.41-.42-.65-1.03-.65-1.69h-7.18c0,2.67,1.03,5.23,2.84,7.05,1.72,1.73,3.96,2.64,6.32,2.56,4.74-.16,8.6-4.58,8.6-9.86,0-1.95-.49-3.81-1.42-5.38-2.98-5.06-8.45-7.76-13.94-6.88-6.54,1.05-11.97,6.79-12.62,13.35-.28,2.84-.4,10.1,4.61,16.04,2.78,3.3,6.62,5.6,11.43,6.88l-21.46,18.42,21.74,18.66c-4.89,1.28-8.78,3.59-11.59,6.92-5.01,5.94-4.89,13.2-4.61,16.04.65,6.56,6.08,12.3,12.62,13.35.69.11,1.38.16,2.06.16,4.76,0,9.27-2.62,11.88-7.05.93-1.57,1.42-3.43,1.42-5.38,0-5.28-3.86-9.7-8.6-9.86-2.35-.08-4.6.83-6.32,2.56-1.8,1.81-2.84,4.38-2.84,7.05h7.18c0-.66.24-1.27.65-1.69.22-.22.6-.48,1.1-.47.88.03,1.66,1.15,1.66,2.41,0,.56-.13,1.09-.36,1.48-1.49,2.53-4.07,3.83-6.72,3.41-2.88-.46-6.22-3.18-6.57-6.75-.19-1.87-.28-6.63,2.87-10.36,2.73-3.24,7.33-5.06,13.63-5.46l25.82,22.16,25.82-22.16c6.3.39,10.9,2.21,13.63,5.46,3.15,3.73,3.05,8.49,2.87,10.36-.36,3.58-3.69,6.29-6.57,6.75-2.65.43-5.23-.88-6.72-3.41-.23-.39-.36-.92-.36-1.48,0-1.25.77-2.38,1.65-2.41.51-.01.88.25,1.1.47.41.42.65,1.03.65,1.69h7.18c0-2.67-1.03-5.23-2.84-7.05-1.72-1.73-3.96-2.65-6.32-2.56-4.74.16-8.6,4.58-8.6,9.86,0,1.95.49,3.81,1.42,5.38,2.61,4.43,7.12,7.05,11.88,7.05.68,0,1.37-.05,2.06-.16,6.54-1.05,11.97-6.79,12.62-13.35.28-2.84.4-10.1-4.61-16.04-2.81-3.34-6.7-5.65-11.6-6.92Zm-8.64-2.26l-18.87-16.19,19.19-16.33,18.78,16.12-19.11,16.4Zm-21.03-50.84l15.71,13.48-15.71,13.37v-26.85Zm-7.18,26.63l-15.52-13.32,15.52-13.32v26.63Zm0,42.26l-15.38-13.2,15.38-13.09v26.29Zm7.18-26.43l15.4,13.21-15.4,13.21v-26.43Zm-28.33-24.32l19.2,16.47-19.07,16.22-19.12-16.41,18.99-16.29Z"/>
  <path d="m53.39,75.11c0-1.73-1.35-3.13-3.01-3.13s-3.01,1.4-3.01,3.13,1.35,3.13,3.01,3.13,3.01-1.4,3.01-3.13Z"/>
  <path d="m99.62,71.98c-1.66,0-3.01,1.4-3.01,3.13s1.35,3.13,3.01,3.13,3.01-1.4,3.01-3.13-1.35-3.13-3.01-3.13Z"/>
  <path d="m65.7,56.56c1.66,0,3.01-1.4,3.01-3.13s-1.35-3.13-3.01-3.13-3.01,1.4-3.01,3.13,1.35,3.13,3.01,3.13Z"/>
  <path d="m84.57,50.3c-1.66,0-3.01,1.4-3.01,3.13s1.35,3.13,3.01,3.13,3.01-1.4,3.01-3.13-1.35-3.13-3.01-3.13Z"/>
  <path d="m65.7,100.3c1.66,0,3.01-1.4,3.01-3.13s-1.35-3.13-3.01-3.13-3.01,1.4-3.01,3.13,1.35,3.13,3.01,3.13Z"/>
  <path d="m84.57,94.04c-1.66,0-3.01,1.4-3.01,3.13s1.35,3.13,3.01,3.13,3.01-1.4,3.01-3.13-1.35-3.13-3.01-3.13Z"/>
</svg>