<?xml version="1.0" encoding="UTF-8"?>
<svg id="Symbols" xmlns="http://www.w3.org/2000/svg" viewBox="0 0 150 150">
  <path d="m113.61,54.59c-3.44-3.9-6.52-6.52-11.74-9.12-2.43,1.48-5.02,3.41-7.63,5.97-3.04,2.98-5.61,6.33-7.69,9.96,2.55.86,5.78,2.5,8.7,5.1,3.88,3.67,7.65,9.41,7.65,16.99,0,22.6-14.32,40.51-44.47,43.68,5.4,1.99,9.96,3.29,21.1,2.68,24.38-1.34,45.16-21.57,45.47-45.27.15-11.51-4.19-22.02-11.39-29.99Z"/>
  <path d="m81.15,114.28c-4.4-11.65-3.99-25.96-2.87-35.89,1.24-10.98,6.03-21.37,14.08-29.11,10.93-10.52,21.36-10.42,21.36-10.42-9.16-3.83-19.91-3.49-27.81-2.39-2.2-5.59-5.65-11.98-10.91-16.47h0s0,0,0,0c0,0,0,0,0,0h0c-5.26,4.49-8.71,10.88-10.91,16.47-7.9-1.1-18.65-1.44-27.81,2.39,0,0,10.61-.1,21.65,10.69,7.93,7.75,12.65,18.08,13.8,28.99,1.01,9.57,1.32,23.26-2.69,34.71-12.1-3.64-21.93-14.88-21.93-29.77,0-2.68.48-5.13,1.26-7.35,0,0,0,0,.01.01.1-.31.23-.61.34-.91,1.28-3.18,3.18-5.82,5.19-7.9,3.14-3.09,6.78-5,9.6-5.95-2.08-3.62-4.64-6.98-7.69-9.96-2.55-2.49-5.07-4.39-7.45-5.86-3.41,1.85-7.53,4.36-10.53,7.51-8.06,8.13-12.99,19.24-12.83,31.49.23,18.19,11.81,33.9,28.13,40.55,0,0,20.08,0,35.44-12.87-2.43,1.03-4.93,1.69-7.43,2.01Z"/>
</svg>