<?xml version="1.0" encoding="UTF-8"?>
<svg id="Symbols" xmlns="http://www.w3.org/2000/svg" viewBox="0 0 150 150">
  <g>
    <g>
      <polygon points="20 77.96 20 89.73 45.25 103.98 33.16 77.96 20 77.96"/>
      <polygon points="70.51 77.96 57.35 77.96 45.25 103.98 70.51 89.73 70.51 77.96"/>
      <polygon points="20 130 33.16 130 45.25 103.98 20 118.23 20 130"/>
      <polygon points="70.51 130 70.51 118.23 45.25 103.98 57.35 130 70.51 130"/>
    </g>
    <g>
      <polygon points="20 20 20 31.77 45.25 46.02 33.16 20 20 20"/>
      <polygon points="70.51 20 57.35 20 45.25 46.02 70.51 31.77 70.51 20"/>
      <polygon points="20 72.04 33.16 72.04 45.25 46.02 20 60.27 20 72.04"/>
      <polygon points="70.51 72.04 70.51 60.27 45.25 46.02 57.35 72.04 70.51 72.04"/>
    </g>
  </g>
  <g>
    <polygon points="79.49 77.96 79.49 89.73 104.75 103.98 92.65 77.96 79.49 77.96"/>
    <polygon points="130 77.96 116.84 77.96 104.75 103.98 130 89.73 130 77.96"/>
    <polygon points="79.49 130 92.65 130 104.75 103.98 79.49 118.23 79.49 130"/>
    <polygon points="130 130 130 118.23 104.75 103.98 116.84 130 130 130"/>
  </g>
  <g>
    <polygon points="79.49 20 79.49 31.77 104.75 46.02 92.65 20 79.49 20"/>
    <polygon points="130 20 116.84 20 104.75 46.02 130 31.77 130 20"/>
    <polygon points="79.49 72.04 92.65 72.04 104.75 46.02 79.49 60.27 79.49 72.04"/>
    <polygon points="130 72.04 130 60.27 104.75 46.02 116.84 72.04 130 72.04"/>
  </g>
</svg>