<?xml version="1.0" encoding="UTF-8"?>
<svg id="Symbols" xmlns="http://www.w3.org/2000/svg" viewBox="0 0 150 150">
  <path d="m97.9,76.14c5.03-3.53,8.11-9.24,8.47-15.69.31-5.55-.34-8.09-1.8-11.37-.75-1.68-1.73-3.26-2.92-4.71-4.33-5.28-14.39-15.49-20.39-21.6-1.59-1.62-2.87-2.92-3.65-3.72l-2.16-2.24-2.16,2.24c-.77.8-2.05,2.1-3.65,3.72-6.01,6.1-16.06,16.32-20.39,21.6-1.19,1.45-2.17,3.03-2.92,4.71-1.47,3.28-2.11,5.81-1.8,11.37.36,6.45,3.44,12.16,8.47,15.69-5.03,3.53-8.11,9.24-8.47,15.69-.31,5.56.34,8.09,1.8,11.37.75,1.68,1.73,3.26,2.92,4.71,4.33,5.28,14.38,15.49,20.39,21.59,1.59,1.62,2.88,2.92,3.65,3.72l2.16,2.24,2.16-2.24c.77-.8,2.05-2.1,3.64-3.72,6.01-6.1,16.07-16.32,20.4-21.6,1.19-1.45,2.17-3.03,2.92-4.71,1.47-3.27,2.11-5.81,1.8-11.37-.36-6.45-3.44-12.16-8.47-15.69Zm-46.1-24.61c.53-1.19,1.23-2.32,2.08-3.35,4.16-5.07,14.1-15.16,20.03-21.19.55-.56,1.06-1.08,1.53-1.56.47.48.98,1,1.53,1.56,5.94,6.03,15.87,16.12,20.03,21.19.85,1.04,1.55,2.16,2.08,3.35.97,2.17,1.56,3.75,1.29,8.58-.25,4.62-2.43,8.68-5.98,11.15-2.3,1.6-5.07,2.2-7.82,1.7-2.76-.5-5.15-2.06-6.75-4.38-2.45-3.56-1.57-8.46,1.97-10.92.95-.66,2.06-1.01,3.19-1.01.33,0,.67.03,1.01.09,1.48.27,2.77,1.1,3.62,2.34,1.23,1.79.78,4.26-.99,5.5-.55.38-1.22.53-1.87.41-.66-.12-1.24-.49-1.62-1.04-.17-.25-.26-.53-.26-.84l-6,.05c.01,1.5.46,2.94,1.31,4.19,1.3,1.88,3.25,3.14,5.49,3.55,2.24.41,4.5-.09,6.37-1.39,4.47-3.12,5.6-9.31,2.51-13.82-1.77-2.57-4.43-4.29-7.5-4.84-3.06-.55-6.14.12-8.69,1.89-1.14.79-2.12,1.72-2.94,2.75-.82-1.03-1.8-1.96-2.93-2.75-2.55-1.78-5.64-2.45-8.7-1.89-3.06.56-5.72,2.28-7.5,4.85-3.08,4.5-1.96,10.7,2.51,13.81,1.87,1.3,4.13,1.8,6.37,1.39,2.24-.41,4.19-1.67,5.5-3.56.84-1.23,1.29-2.68,1.31-4.17l-6-.05c0,.31-.09.59-.25.83-.39.56-.96.93-1.62,1.05-.66.12-1.32-.03-1.87-.41-1.78-1.24-2.22-3.71-1-5.49.86-1.25,2.15-2.08,3.63-2.35,1.48-.27,2.96.06,4.2.92,3.54,2.46,4.42,7.36,1.97,10.92-1.59,2.32-3.99,3.87-6.75,4.38-2.75.5-5.52-.1-7.82-1.7-3.54-2.46-5.72-6.53-5.98-11.15-.27-4.83.32-6.41,1.29-8.58Zm27.2,24.61c-1.33.94-2.53,2.07-3.55,3.39-1.02-1.32-2.22-2.45-3.55-3.39,1.33-.94,2.53-2.07,3.55-3.39,1.02,1.32,2.22,2.45,3.55,3.39Zm20.09,24.61c-.53,1.19-1.23,2.32-2.08,3.35-4.16,5.07-14.1,15.17-20.04,21.2-.55.56-1.06,1.08-1.53,1.55-.47-.48-.98-1-1.53-1.56-5.94-6.03-15.87-16.12-20.03-21.19-.85-1.03-1.55-2.16-2.08-3.35-.97-2.17-1.56-3.75-1.29-8.58.25-4.62,2.43-8.68,5.98-11.15,1.75-1.22,3.78-1.86,5.86-1.87.02,0,.04,0,.06,0s.04,0,.06,0c.61,0,1.23.06,1.84.17,2.76.5,5.16,2.06,6.75,4.38,2.45,3.56,1.57,8.46-1.97,10.92-1.23.86-2.72,1.18-4.2.92-1.48-.27-2.77-1.1-3.62-2.34-1.23-1.79-.78-4.26.99-5.5.55-.38,1.21-.53,1.87-.41.66.12,1.24.49,1.62,1.04.17.25.26.53.26.84l6-.05c-.01-1.5-.46-2.94-1.31-4.19-1.3-1.88-3.25-3.14-5.49-3.55-2.24-.41-4.5.09-6.37,1.39-4.47,3.12-5.6,9.31-2.51,13.82,1.77,2.57,4.43,4.29,7.5,4.84,3.06.55,6.14-.12,8.69-1.89,1.14-.79,2.12-1.72,2.94-2.75.82,1.03,1.8,1.96,2.93,2.75,2.55,1.78,5.64,2.45,8.69,1.89,3.06-.56,5.72-2.28,7.5-4.85,3.09-4.5,1.96-10.7-2.51-13.81-1.87-1.3-4.13-1.8-6.37-1.39-2.24.41-4.19,1.67-5.5,3.56-.84,1.23-1.29,2.68-1.31,4.17l6,.05c0-.31.09-.59.25-.83.39-.56.96-.93,1.62-1.05.66-.12,1.32.03,1.87.41,1.78,1.24,2.22,3.71,1,5.49-.86,1.25-2.15,2.08-3.63,2.35-1.47.27-2.96-.06-4.2-.92-3.54-2.46-4.42-7.36-1.97-10.92,1.59-2.32,3.99-3.87,6.75-4.38,2.75-.5,5.52.1,7.82,1.7,3.54,2.46,5.72,6.53,5.98,11.15.27,4.83-.32,6.41-1.29,8.58Z"/>
</svg>