<?xml version="1.0" encoding="UTF-8"?>
<svg id="Symbols" xmlns="http://www.w3.org/2000/svg" viewBox="0 0 150 150">
  <path d="m97.78,94.3v-6.05l32.12-12.76-32.12-13.14v-5.93c15.8-5.98,26.59-17.93,26.59-31.7,0-1.37-.17-3.15-.38-4.47h-1.78c-6.3,14.53-25.15,25.25-47.37,25.25s-41.17-10.63-47.4-25.25c-.86,0-1.02-.01-1.85,0-.23,1.39-.39,3.04-.39,4.47,0,13.77,10.79,25.71,26.59,31.7v5.77l-31.88,13.3,31.88,12.91v5.9c-15.8,5.98-26.59,17.93-26.59,31.7,0,1.43.12,2.86.35,4.25h1.99c6.23-14.62,24.99-25.03,47.3-25.03s40.99,10.49,47.3,25.03h1.86c.21-1.33.37-2.88.37-4.25,0-13.77-10.79-25.71-26.59-31.7Zm0-23.2l15.02,4.19-.09.03.14.04-15.02,4.19v-.08h-.05s0-8.37,0-8.37Zm-45.94,8.59l-15.28-4.33.09-.03-.14-.04,15.28-4.33v.08h.05s0,8.65,0,8.65Zm14.3-4.42c-1.79,2.31-2.7,5.3-2.47,8.42.19,2.66,1.26,5.12,2.91,7.03-3.21.39-6.33,1-9.3,1.82v-34.37c3.01.82,6.17,1.44,9.42,1.83-1.62,1.83-2.66,4.16-2.92,6.7-.33,3.12.56,6.2,2.36,8.57Zm8.62,11.33c-2.15,0-3.89-1.74-3.89-3.89s1.74-3.89,3.89-3.89,3.89,1.74,3.89,3.89-1.74,3.89-3.89,3.89Zm0-14.71c-2.15,0-3.89-1.74-3.89-3.89s1.74-3.89,3.89-3.89,3.89,1.74,3.89,3.89-1.74,3.89-3.89,3.89Zm17.54,20.6c-2.97-.8-6.07-1.4-9.28-1.79,1.6-1.83,2.62-4.15,2.89-6.69.33-3.2-.59-6.34-2.45-8.75,1.72-2.28,2.6-5.21,2.38-8.26-.19-2.65-1.26-5.1-2.92-6.99,3.24-.38,6.39-.99,9.39-1.8v34.27Z"/>
</svg>