<?xml version="1.0" encoding="UTF-8"?>
<svg id="Symbols" xmlns="http://www.w3.org/2000/svg" viewBox="0 0 150 150">
  <path d="m117.1,102.54c-.31-.73-.66-1.45-1.07-2.14L75.89,20.18l-40.12,80.19c-.42.7-.78,1.44-1.1,2.19l-13.79,27.56,55.01.06,54.99-.06-13.8-27.58Zm-75.95,3.08l.86-1.73c.32-.51.69-.99,1.1-1.45,1.87-2.03,4.45-3.21,7.25-3.32,4.17-.15,7.71,3.01,7.9,7.05l7.15-.32c-.36-7.94-7.22-14.16-15.31-13.88-.76.03-1.51.12-2.24.24l24.46-48.89v43.91c-.02,9.28-2.47,18.54-6.74,25.42-3.91,6.32-8.87,9.94-13.61,9.94h0c-5.99,0-11.12-5.87-11.44-13.08-.06-1.35.16-2.67.63-3.9Zm52.37.55c.18-4.04,3.71-7.2,7.89-7.05,2.81.11,5.39,1.29,7.26,3.32.42.45.78.94,1.1,1.45l.85,1.71c.47,1.23.7,2.56.64,3.91-.32,7.21-5.45,13.08-11.44,13.08h0c-4.74,0-9.7-3.62-13.61-9.94-4.27-6.9-6.73-16.18-6.74-25.47,0-.02,0-.04,0-.05h0v-43.8l24.46,48.89c-.74-.12-1.49-.22-2.25-.25-8.08-.29-14.94,5.94-15.3,13.88l7.15.32Zm-21.86,10.25c.22-.36.44-.73.65-1.1v7.69h-5.82c1.86-1.86,3.61-4.06,5.17-6.59Zm7.81-1.1c.22.37.43.74.65,1.1,1.57,2.53,3.31,4.73,5.17,6.58h-5.83s0-7.69,0-7.69Zm37.21,2.38l2.64,5.27h-5.78c1.27-1.55,2.34-3.32,3.15-5.27Zm-81.57,0c.81,1.94,1.88,3.72,3.15,5.27h-5.78s2.63-5.27,2.63-5.27Z"/>
</svg>