<?xml version="1.0" encoding="UTF-8"?>
<svg id="Symbols" xmlns="http://www.w3.org/2000/svg" viewBox="0 0 150 150">
  <path d="m51.67,101.67c-1.99.56-3.73,1.25-5.21,1.97-2.95,1.43-5.41,3.58-6.85,6.29-4.37,8.18,7.27,8.32,7.27,8.32,9.33-.56,13.88-5.19,16.07-9.28,1.38-2.57,2.03-5.4,2.03-8.24-2.73-.35-7.64-.65-13.32.95Z"/>
  <path d="m103.12,118.25s11.64-.13,7.27-8.32c-1.44-2.7-3.9-4.86-6.85-6.29-1.48-.72-3.22-1.41-5.21-1.97-5.68-1.6-10.59-1.3-13.32-.95,0,2.84.64,5.67,2.03,8.24,2.2,4.09,6.74,8.71,16.07,9.28Z"/>
  <path d="m101.72,78.96c6.72-.31,12.84,3.22,16.2,8.68,4.48,7.25,12.14,3.09,12.07-.18.07-7.84-16.07-9.97-16.07-9.97,0,0,0,.01,0,.01-10.54-1.86-25.45-.77-34.94,6.48v-13.23c4.96-4.17,12.12-6,18.96-6.32,5.77-.27,11.03,2.77,13.92,7.45,3.85,6.22,10.43,2.65,10.37-.15.06-6.74-13.8-8.56-13.8-8.56,0,0,0,0,0,.01-8.85-1.57-21.28-.69-29.45,5.17v-11.62c4.28-3.33,10.24-4.82,15.96-5.08,5.02-.23,9.59,2.41,12.1,6.48,3.34,5.41,9.06,2.3,9.02-.13.05-5.86-12-7.44-12-7.44h0c-7.51-1.32-17.98-.63-25.08,4.13v-9.76c3.75-2.71,8.82-3.92,13.67-4.15,4.44-.21,8.49,2.13,10.72,5.74,2.96,4.79,8.03,2.04,7.98-.12.05-5.19-10.62-6.59-10.62-6.59,0,0,0,0,0,0-6.48-1.15-15.48-.6-21.75,3.34v-8.75c3.32-2.23,7.67-3.25,11.86-3.45,3.99-.18,7.62,1.91,9.62,5.15,2.66,4.3,7.2,1.83,7.16-.11.04-4.65-9.53-5.92-9.53-5.92h0c-5.68-1-13.5-.55-19.11,2.77v-9.18c2.79-1.63,6.32-2.39,9.72-2.54,3.45-.15,6.71,1.54,8.31,4.3,1.24,2.13,3.03,3.94,5.33,3.05,1.02-.39,1.75-1.28,1.9-2.27.68-4.59-9.28-5.8-9.28-5.8,0,0,0,0,0,0-6.25-1.07-15.5-.18-19.98,5.11-4.48-5.3-13.74-6.18-19.98-5.11h0s-9.96,1.21-9.28,5.8c.15.99.88,1.88,1.9,2.27,2.3.89,4.09-.92,5.33-3.05,1.61-2.76,4.87-4.45,8.31-4.3,3.4.15,6.92.91,9.72,2.54v9.18c-5.61-3.31-13.43-3.77-19.11-2.76h0s-9.58,1.25-9.53,5.91c-.04,1.94,4.51,4.41,7.16.11,2-3.24,5.63-5.33,9.62-5.15,4.19.19,8.54,1.21,11.86,3.45v8.75c-6.27-3.94-15.26-4.49-21.75-3.34,0,0,0,0,0,0,0,0-10.67,1.41-10.62,6.59-.04,2.16,5.02,4.91,7.98.12,2.23-3.61,6.27-5.94,10.72-5.74,4.86.22,9.92,1.44,13.67,4.15v9.76c-7.1-4.76-17.57-5.45-25.08-4.12h0s-12.05,1.58-12,7.44c-.05,2.44,5.67,5.54,9.02.13,2.52-4.07,7.08-6.71,12.1-6.48,5.71.26,11.68,1.75,15.96,5.08v11.62c-8.17-5.86-20.6-6.73-29.45-5.17,0,0,0-.01,0-.01,0,0-13.86,1.83-13.8,8.56-.06,2.8,6.52,6.38,10.37.15,2.89-4.68,8.15-7.72,13.92-7.45,6.84.32,14,2.15,18.96,6.32v13.23c-9.49-7.25-24.4-8.34-34.94-6.48h0s-16.14,2.11-16.07,9.96c-.06,3.26,7.59,7.42,12.07.18,3.37-5.45,9.49-8.99,16.2-8.68,8.28.38,16.94,2.68,22.72,7.95v2.81c-7.28-.43-14.64.33-21.53,2.28-3.52,1-6.96,2.31-10.22,3.9-6.4,3.12-11.33,7.71-14.27,13.28-3.46,6.54-2.21,10.97-.55,13.54,4.48,6.93,16.08,7.26,17.39,7.27h.15s.15,0,.15,0c19.22-1.17,28.41-11.09,32.73-19.2.05-.09.09-.19.14-.28.05.09.09.19.14.28,4.33,8.11,13.52,18.03,32.73,19.2h.15s.15,0,.15,0c1.31-.01,12.91-.35,17.39-7.27,1.66-2.57,2.91-7-.55-13.54-2.94-5.56-7.88-10.15-14.28-13.28-3.26-1.59-6.7-2.9-10.22-3.9-6.89-1.96-14.25-2.72-21.53-2.28v-2.81c5.78-5.27,14.45-7.57,22.72-7.95Zm-34.01,28.44c-4.9,9.19-13.63,14.26-25.94,15.05-2.81-.07-8.84-1.04-10.52-3.66-.88-1.37-.58-3.47.88-6.24,2.18-4.12,5.91-7.56,10.79-9.94,2.82-1.38,5.8-2.51,8.85-3.38,4.91-1.39,10.1-2.1,15.3-2.1,1.25,0,2.5.04,3.74.12-.4,3.62-1.44,7.02-3.1,10.15Zm30.51-8.17c3.05.87,6.03,2,8.85,3.38,4.88,2.38,8.61,5.82,10.79,9.94,1.46,2.77,1.76,4.87.88,6.24-1.69,2.63-7.73,3.59-10.52,3.66-12.31-.79-21.03-5.85-25.94-15.05-1.67-3.13-2.71-6.53-3.1-10.15,6.44-.42,12.96.25,19.04,1.98Z"/>
</svg>