<svg id="Symbols" xmlns="http://www.w3.org/2000/svg" viewBox="0 0 150 150"><title>Bese Saka-bold</title><path id="Bold" d="M106.47,84.55a30.34,30.34,0,0,0-13.76-8.18A19.48,19.48,0,0,0,89,75.83a11.5,11.5,0,0,0,0-1.66,19.48,19.48,0,0,0,3.76-.54,30.43,30.43,0,0,0,13.76-8.18,30.32,30.32,0,0,0,8.17-13.75c1.33-5.41.28-10.32-2.87-13.47S103.71,34,98.3,35.36a30.32,30.32,0,0,0-13.75,8.17,30.43,30.43,0,0,0-8.18,13.76,19.48,19.48,0,0,0-.54,3.76,11.5,11.5,0,0,0-1.66,0,19.48,19.48,0,0,0-.54-3.76,30.43,30.43,0,0,0-8.18-13.76A30.32,30.32,0,0,0,51.7,35.36c-5.41-1.33-10.32-.28-13.47,2.87S34,46.29,35.36,51.7a30.32,30.32,0,0,0,8.17,13.75,30.43,30.43,0,0,0,13.76,8.18,19.48,19.48,0,0,0,3.76.54,11.5,11.5,0,0,0,0,1.66,18.73,18.73,0,0,0-3.76.54,30.34,30.34,0,0,0-13.76,8.18c-9.12,9.12-11.45,21.07-5.3,27.22a12.44,12.44,0,0,0,9,3.43,18.65,18.65,0,0,0,4.46-.56,30.32,30.32,0,0,0,13.75-8.17,30.43,30.43,0,0,0,8.18-13.76A19.48,19.48,0,0,0,74.17,89c.28,0,.55,0,.83,0s.55,0,.83,0a19.48,19.48,0,0,0,.54,3.76A32.44,32.44,0,0,0,98.3,114.64a18.59,18.59,0,0,0,4.46.56,12.44,12.44,0,0,0,9-3.43C117.92,105.62,115.59,93.67,106.47,84.55ZM90.2,49.19a22.73,22.73,0,0,1,10-6.06,10.85,10.85,0,0,1,2.59-.34,4.56,4.56,0,0,1,3.31,1.1c1.13,1.13,1.41,3.28.76,5.9a22.73,22.73,0,0,1-6.06,10,22.68,22.68,0,0,1-10,6.06,12.14,12.14,0,0,1-1.24.23l6.67-6.66a5,5,0,1,0-5.66-5.66l-6.66,6.67a12.14,12.14,0,0,1,.23-1.24A22.68,22.68,0,0,1,90.2,49.19Zm-41,10.61a22.73,22.73,0,0,1-6.06-10c-.65-2.62-.37-4.77.76-5.9a4.57,4.57,0,0,1,3.31-1.1,10.85,10.85,0,0,1,2.59.34,22.73,22.73,0,0,1,10,6.06,22.68,22.68,0,0,1,6.06,10,12.14,12.14,0,0,1,.23,1.24l-6.66-6.67a5,5,0,1,0-5.66,5.66l6.67,6.66a12.14,12.14,0,0,1-1.24-.23A22.68,22.68,0,0,1,49.19,59.8Zm10.61,41a22.73,22.73,0,0,1-10,6.06c-2.63.65-4.78.37-5.9-.76-2.51-2.5-.77-9.84,5.3-15.91a22.68,22.68,0,0,1,10-6.06c.43-.1.84-.18,1.24-.24l-6.67,6.67a5,5,0,1,0,5.66,5.66l6.67-6.67C65.64,92.83,63.55,97.06,59.8,100.81Zm11-21.57a6,6,0,1,1,8.48,0A6,6,0,0,1,70.76,79.24Zm35.35,26.87c-1.13,1.13-3.27,1.41-5.9.76a22.73,22.73,0,0,1-10-6.06c-3.75-3.75-5.84-8-6.3-11.25l6.67,6.67a5,5,0,1,0,5.66-5.66L89.56,83.9c.4.06.81.14,1.24.24a22.68,22.68,0,0,1,10,6.06C106.88,96.27,108.62,103.61,106.11,106.11Z"/></svg>