<?xml version="1.0" encoding="UTF-8"?>
<svg id="Symbols" xmlns="http://www.w3.org/2000/svg" viewBox="0 0 150 150">
  <path d="m127.95,78.04c-1.87-2.32-4.8-3.7-8.24-3.99,3.86-2.8,7.67-6.38,8.5-10.81.5-2.67-.15-5.34-1.9-7.71-1.06-1.44-2.63-2.28-4.42-2.38-1.81-.1-3.82.65-5.82,1.87,1.92-4.15,3.47-9.28,2.03-13.65-.96-2.91-3.11-5.13-6.22-6.41-2.33-.96-4.89-.68-7.21.79-2.6,1.65-4.78,4.71-6.32,7.94-.02-12.3-1.29-19.41-5.52-22.35-1.64-1.14-4.45-2.14-8.58-.44-3.2,1.31-4.62,4.28-5.07,7.83-1.84-2.48-4.25-4.11-7.53-3.8-2.74.25-4.94,1.58-6.2,3.74-1.35,2.31-1.57,5.47-.67,9.44-1.94-1.39-3.95-2.25-6.09-1.82-2.97.59-5.15,2.33-6.16,4.91-1.57,4.02.2,8.65,2.37,11.64.58.79.94,1.61,1.08,2.41.11.63.06.96.03,1.08-.23.12-1.33.54-4.42,0-.39-.07-.94-.18-1.61-.31-11.89-2.39-24.54-3.83-28.3,3.59-3.22,6.37-1.17,10.47.34,12.35,1.86,2.32,4.8,3.7,8.24,3.99-3.86,2.8-7.67,6.38-8.5,10.81-.5,2.67.15,5.34,1.9,7.71,1.06,1.44,2.63,2.28,4.42,2.38,1.82.1,3.82-.65,5.82-1.87-1.92,4.15-3.47,9.27-2.03,13.65.96,2.91,3.11,5.13,6.22,6.41,2.33.96,4.89.68,7.21-.79,2.6-1.65,4.78-4.71,6.32-7.94.02,12.3,1.29,19.41,5.52,22.35,1.01.7,2.46,1.35,4.39,1.35,1.21,0,2.6-.25,4.19-.91,3.2-1.32,4.62-4.28,5.07-7.83,1.84,2.48,4.25,4.11,7.53,3.8,2.32-.21,4.23-1.32,5.36-3.1,1.98-3.12,1.16-7.38-.12-11.37,2.57,2.18,5.1,3.64,7.72,3.11,3.13-.62,5.37-2.5,6.3-5.29,1.44-4.31-.73-9.38-3.51-12.49-1.46-1.63-1.99-2.64-2.18-3.16.03-.03.05-.06.08-.08.64-.3,2.97-.29,5.67.79,2.88,1.15,25.57,6.97,30.64-3.07,3.22-6.37,1.17-10.47-.34-12.35Zm-6.31,8.98c-.43.84-3.25,1.98-9.3,1.63-5.49-.31-10.69-1.63-11.93-2.12-4.01-1.6-9.52-2.37-12.93.17l-.51.05-.98,1.12c-3.92,4.49-.09,10.08,2.53,13.01,1.68,1.87,2.29,4.27,2,5.16-.02.04-.04.13-.26.22-1.27-.64-3.87-3.19-5.32-4.61-2.84-2.78-4.4-4.25-6.24-4.69-2.11-.5-3.76-.11-4.91,1.18-1.84,2.06-1.03,4.31.2,7.72.23.64.5,1.37.78,2.2.16.46.34.96.54,1.5.64,1.74,2.22,6.1,2.13,7.98-1.21-.72-2.76-4.34-4.6-10.78-.44-1.55-.82-2.89-1.22-3.87-1.93-4.84-5.19-5.77-7.4-5.09-1.99.61-3.99,2.79-3.08,6.91.09.39.21.91.37,1.55,3.27,13.36,1.69,15.64,1.38,15.93-1.08.44-1.47.34-1.47.34-.01,0-1.24-.78-1.89-6.43-.5-4.32-.57-10.53-.24-20.15v-.08s0-.08,0-.08c-.07-7.91-4.33-8.62-5.63-8.65-.04,0-.07,0-.11,0-3.78,0-6.62,4.17-6.92,10.2-.2,4.01-3.98,10.61-5.69,10.8-1.41-.58-1.8-1.3-1.99-1.86-.82-2.48.74-7.03,4.64-13.52.28-.46.5-.84.65-1.11.04-.08,4.35-8.1.1-11.16-1.53-1.1-4.05-1.66-7.4,1.99-3.38,3.7-6.29,5.89-7.79,6.63-.14-.41-.12-.72-.07-.99.59-3.12,6.87-7.12,9.89-9.03.51-.33.99-.63,1.42-.91,1.72-1.12,6.29-4.1,4.54-8.08-1.82-4.13-7.74-2.61-10.26-1.97-3.35.86-5.97.22-6.83-.86-.93-1.16.04-3.4.5-4.32.28-.56,2.59-3.19,20.18.35.75.15,1.36.27,1.79.35,5.1.89,8.71.21,11.01-2.09,1.29-1.29,2.69-3.66,2.01-7.62-.34-1.94-1.14-3.79-2.4-5.52-1.37-1.88-1.73-3.84-1.46-4.53.03-.08.14-.15.27-.2,1,.52,2.99,2.38,4.09,3.42,2.6,2.45,4.7,4.42,7.18,4.46,2.23.57,3.55-.61,4.03-1.15,1.76-2.01.87-3.99-.74-7.58-3.17-7.05-2.71-10.03-2.46-10.4.03-.02.19-.08.46-.11,1.25.37,2.87,4.04,4.83,10.88.44,1.55.82,2.89,1.22,3.87,1.93,4.84,5.19,5.77,7.4,5.09,1.99-.61,3.99-2.79,3.09-6.91-.09-.39-.21-.91-.37-1.55-3.27-13.36-1.69-15.64-1.38-15.94,1.07-.44,1.47-.34,1.47-.34.01,0,1.24.78,1.89,6.43.5,4.32.57,10.53.24,20.15v.08s0,.08,0,.08c.07,7.91,4.33,8.62,5.63,8.65,3.79.07,6.72-4.11,7.03-10.2.2-4.01,3.98-10.61,5.69-10.8,1.41.58,1.8,1.3,1.98,1.86.82,2.48-.74,7.03-4.64,13.52-.28.46-.5.84-.65,1.11-.05.08-4.35,8.1-.11,11.16,1.53,1.1,4.06,1.66,7.4-1.99,3.38-3.7,6.29-5.89,7.79-6.63.14.41.12.72.07.99-.59,3.12-6.87,7.12-9.89,9.03-.51.33-.99.63-1.42.91-1.72,1.12-6.28,4.1-4.54,8.08,1.82,4.13,7.74,2.61,10.26,1.97,3.35-.86,5.97-.22,6.83.86.93,1.16-.04,3.4-.5,4.32Z"/>
  <path d="m76.32,68.63c-2.57,1.3-6.44,3.27-7.64,2.36-.31-.23-.31-.32-.31-.45-.03-1.97,3.65-6.35,6.97-9.03l-2.34-2.9-2.34-2.9c-1.64,1.33-9.84,8.27-9.74,14.95.04,2.52,1.16,4.69,3.26,6.28,4.92,3.74,10.8.75,15.53-1.66,1.45-.74,3.71-1.89,4.96-2.17-.74,2.57-5.84,8.59-11.32,13.24l4.82,5.69c3.2-2.71,13.66-12.1,14.03-19.13.11-2.01-.53-3.8-1.84-5.17-4.01-4.2-9.57-1.37-14.03.9Z"/>
</svg>