<svg id="Symbols" xmlns="http://www.w3.org/2000/svg" viewBox="0 0 150 150"><g id="Layer_5" data-name="Layer 5"><path d="M110.45,75.11A35.17,35.17,0,0,0,95.06,46l4.37-6.19H49.85l4.6,6.53a35.16,35.16,0,0,0-.15,57.37L49.85,110h17.8v15.53H81.28V110H99.43l-4.21-6A35.16,35.16,0,0,0,110.45,75.11ZM67.83,45H81.45V58.61H67.83ZM82,102a7.58,7.58,0,0,1-14.72-.23h0a8,8,0,0,1-.19-1.7,7.59,7.59,0,1,1,15.18,0A7.19,7.19,0,0,1,82,102Zm8.91-4.07L87,92.46,74.68,74.94l0,.06,0-.06L62.25,92.46l-3.61,5.12a27.64,27.64,0,0,1,.16-45l3.45,4.89L74.6,74.94l0-.06,0,.06L87,57.42l3.69-5.23a27.65,27.65,0,0,1,.16,45.73Z"/><path d="M75,39.84a7.6,7.6,0,1,1,7.59-7.59A7.59,7.59,0,0,1,75,39.84Z"/></g></svg>