<?xml version="1.0" encoding="UTF-8"?>
<svg id="Symbols" xmlns="http://www.w3.org/2000/svg" viewBox="0 0 150 150">
  <path d="m102.15,104.19l-14.42-29.07,14.42-29.07c2.56-5.16,1.84-11.75-1.74-16.02-5.2-6.2-15.2-9.91-26.74-9.91s-21.54,3.7-26.74,9.91c-3.58,4.27-4.3,10.86-1.74,16.02l14.42,29.07-14.42,29.07c-2.56,5.16-1.84,11.75,1.74,16.02,5.2,6.2,15.2,9.91,26.74,9.91s21.54-3.7,26.74-9.91c3.58-4.27,4.3-10.86,1.74-16.02Zm-7.03,11.08c-3.76,4.49-12.18,7.39-21.45,7.39s-17.68-2.9-21.45-7.39c-1.66-1.98-1.98-5.18-.77-7.62l16.14-32.53-16.14-32.53c-1.21-2.44-.88-5.64.77-7.62,3.76-4.49,12.18-7.39,21.45-7.39s17.68,2.9,21.45,7.39c1.66,1.98,1.98,5.18.77,7.62l-16.14,32.54,16.14,32.53c1.21,2.44.88,5.64-.77,7.62Z"/>
</svg>