<?xml version="1.0" encoding="UTF-8"?>
<svg id="Symbols" xmlns="http://www.w3.org/2000/svg" viewBox="0 0 150 150">
  <path d="m119,130H31v-14.6h3.85c9.14,0,16.64-7.59,16.64-16.93s-7.5-16.94-16.72-16.94h-.11s-3.67,0-3.67,0v-13.07h3.85c9.14,0,16.64-7.59,16.64-16.93s-7.5-16.94-16.72-16.94h-.11s-3.67,0-3.67,0v-14.6h88v14.6h-3.67c-9.22,0-16.72,7.6-16.72,16.94s7.5,16.93,16.72,16.93h3.67v13.06h-3.67c-9.22,0-16.72,7.6-16.72,16.94s7.5,16.93,16.72,16.93h3.67v14.6Zm-80.35-7.46h72.81c-11.43-1.88-20.18-11.96-20.18-24.08,0-11.14,7.4-20.56,17.48-23.47-10.08-2.91-17.48-12.33-17.48-23.47,0-12.11,8.75-22.19,20.18-24.08H38.66c11.43,1.89,20.17,11.96,20.17,24.08,0,11.14-7.4,20.56-17.48,23.47,10.08,2.91,17.48,12.33,17.48,23.47,0,12.11-8.75,22.19-20.18,24.08Z"/>
</svg>