<svg id="Symbols" xmlns="http://www.w3.org/2000/svg" viewBox="0 0 150 150"><title>Dwannini Mmen-bold</title><path id="Bold" d="M109.72,84.53a15.7,15.7,0,0,0-12-2.68,15.87,15.87,0,0,0-10.39,6.82,14.07,14.07,0,0,0,3.44,19.2,11.56,11.56,0,0,0,16.33-3,10.48,10.48,0,0,0,1.77-5.76l-8-.06a2.51,2.51,0,0,1-.4,1.35A3.7,3.7,0,0,1,98.13,102a3.52,3.52,0,0,1-2.68-.61A6,6,0,0,1,94,93.14a8,8,0,0,1,5.19-3.42,7.78,7.78,0,0,1,5.9,1.33A11.63,11.63,0,0,1,107.88,107a14.6,14.6,0,0,1-9.55,6.31,14.26,14.26,0,0,1-10.91-2.45A20.3,20.3,0,0,1,79,94.93V86.55L86.55,79h31V71H86.55L79,63.45V55.07a20.3,20.3,0,0,1,8.42-15.89,14.26,14.26,0,0,1,10.91-2.45A14.65,14.65,0,0,1,107.89,43,11.63,11.63,0,0,1,105.08,59a7.75,7.75,0,0,1-5.89,1.33A8,8,0,0,1,94,56.87a6,6,0,0,1,1.44-8.22A3.52,3.52,0,0,1,98.13,48a3.67,3.67,0,0,1,2.37,1.57,2.5,2.5,0,0,1,.41,1.36l8-.06a10.47,10.47,0,0,0-1.78-5.77,11.55,11.55,0,0,0-16.32-3,14.07,14.07,0,0,0-3.43,19.21,15.85,15.85,0,0,0,10.38,6.81,16,16,0,0,0,2.84.26,15.72,15.72,0,0,0,9.11-2.94,19.67,19.67,0,0,0,4.81-26.91,22.61,22.61,0,0,0-14.75-9.7,22.24,22.24,0,0,0-17,3.8A27.77,27.77,0,0,0,75,41.14a27.9,27.9,0,0,0-7.79-8.48,22.26,22.26,0,0,0-17-3.8,22.56,22.56,0,0,0-14.74,9.7,19.67,19.67,0,0,0,4.79,26.91,15.62,15.62,0,0,0,9.12,2.93,15.85,15.85,0,0,0,13.23-7.07,14.07,14.07,0,0,0-3.44-19.2,11.45,11.45,0,0,0-8.74-2,11.58,11.58,0,0,0-7.59,5,10.48,10.48,0,0,0-1.77,5.76l8,.06a2.51,2.51,0,0,1,.4-1.35A3.7,3.7,0,0,1,51.86,48a3.52,3.52,0,0,1,2.68.61A6,6,0,0,1,56,56.86a8,8,0,0,1-5.18,3.42A7.79,7.79,0,0,1,44.9,59,11.62,11.62,0,0,1,42.11,43a14.6,14.6,0,0,1,9.55-6.31,14.26,14.26,0,0,1,10.91,2.45A20.24,20.24,0,0,1,71,55.37a5.42,5.42,0,0,0,0,.57v7.5L63.44,71H32.5v8H63.44L71,86.56V94c0,.22,0,.42,0,.62a20.3,20.3,0,0,1-8.43,16.23,14.26,14.26,0,0,1-10.91,2.45A14.65,14.65,0,0,1,42.1,107a11.62,11.62,0,0,1,2.81-15.91,7.75,7.75,0,0,1,5.9-1.33A8,8,0,0,1,56,93.13a6,6,0,0,1-1.44,8.22,3.52,3.52,0,0,1-2.68.61,3.67,3.67,0,0,1-2.37-1.57A2.5,2.5,0,0,1,49.08,99l-8,.06a10.47,10.47,0,0,0,1.78,5.77,11.56,11.56,0,0,0,16.32,3,14.07,14.07,0,0,0,3.43-19.21,15.85,15.85,0,0,0-10.38-6.81,15.66,15.66,0,0,0-11.95,2.68,19.67,19.67,0,0,0-4.81,26.91,22.61,22.61,0,0,0,14.75,9.7,23.1,23.1,0,0,0,4.05.36,22.25,22.25,0,0,0,12.94-4.16A27.9,27.9,0,0,0,75,108.86a27.87,27.87,0,0,0,7.78,8.48,22.25,22.25,0,0,0,12.94,4.16,23.1,23.1,0,0,0,4-.36,22.61,22.61,0,0,0,14.75-9.7A19.68,19.68,0,0,0,109.72,84.53ZM71,75a4,4,0,0,1,8,0h0a4,4,0,0,1-4,4H75A4,4,0,0,1,71,75Z"/></svg>