<?xml version="1.0" encoding="UTF-8"?>
<svg id="Symbols" xmlns="http://www.w3.org/2000/svg" viewBox="0 0 150 150">
  <path d="m89.25,130c-4.91,0-9.8-1.56-14.27-4.52-4.47,2.96-9.35,4.52-14.26,4.52-19.7,0-35.72-24.67-35.72-55S41.02,20,60.72,20c4.91,0,9.79,1.56,14.26,4.52,4.47-2.96,9.36-4.52,14.27-4.52,19.71,0,35.75,24.67,35.75,55s-16.04,55-35.75,55Zm-14.27-13.66l2.03,1.59c3.86,3.03,7.98,4.56,12.24,4.56,15.89,0,28.82-21.31,28.82-47.5s-12.93-47.5-28.82-47.5c-4.26,0-8.37,1.54-12.24,4.56l-2.03,1.59-2.03-1.59c-3.86-3.03-7.97-4.56-12.22-4.56-15.88,0-28.79,21.31-28.79,47.5s12.92,47.5,28.79,47.5c4.25,0,8.36-1.53,12.22-4.56l2.03-1.59Z"/>
  <path d="m69.85,97.93c.26-1.32-.05-2.75-.94-3.7-.56-.6-1.39-1.09-2.6-1.21-.55-.05-1.02.07-1.74.63-.78.6-1.49,2.02-3.1,1.94-1.75-.09-2.73-2.59-2.18-5.54l.03-.15c.65-3.04,2.35-4.89,4-4.24,1.52.6,1.66,2.2,2.17,3.09.47.82.85,1.13,1.38,1.31.19.07.38.12.56.16,2.13.48,4.16-1.2,4.46-3.53h0c.3-2.24.34-3.1.49-5.49.16-2.52-1.79-4.68-4.11-4.45-.04,0-.07,0-.11.01-.55.07-.98.29-1.59.99-.66.76-1.09,2.3-2.69,2.56-1.74.28-3.07-1.89-3.15-5.01v-.16c0-3.01,1.41-5.24,3.15-4.96,1.6.26,2.03,1.81,2.69,2.56.61.7,1.04.94,1.59.99,1.12.1,1.95-.02,2.57-.25,1.1-.4,1.82-1.55,1.82-2.81h0c-.08-2.82-.27-5.46-.57-8.18h0c-.15-.94-.68-1.77-1.48-2.18s-1.87-.62-3.39-.16c-.54.16-.93.45-1.43,1.25-.54.86-.74,2.46-2.28,2.99-1.67.57-3.31-1.35-3.84-4.41l-.03-.16c-.44-2.97.64-5.42,2.39-5.44,1.62-.02,2.27,1.44,3.03,2.07.7.59,1.16.73,1.72.71,1.75-.09,2.71-.91,3.23-1.71.44-.67.61-1.5.57-2.32h0c-2.69-12.21-7.63-20.4-13.29-20.4-8.52,0-15.43,18.57-15.43,41.47s6.91,41.47,15.43,41.47c5.42,0,9.94-6.38,12.69-17.74h0Z"/>
  <path d="m78.25,97.93c-.26-1.32.05-2.75.94-3.7.56-.6,1.39-1.09,2.6-1.21.55-.05,1.02.07,1.74.63.78.6,1.49,2.02,3.1,1.94,1.75-.09,2.73-2.59,2.18-5.54l-.03-.15c-.65-3.04-2.35-4.89-4-4.24-1.52.6-1.66,2.2-2.17,3.09-.47.82-.85,1.13-1.38,1.31-.19.07-.38.12-.56.16-2.13.48-4.16-1.2-4.46-3.53h0c-.3-2.24-.34-3.1-.49-5.49-.16-2.52,1.79-4.68,4.11-4.45.04,0,.07,0,.11.01.55.07.98.29,1.59.99.66.76,1.09,2.3,2.69,2.56,1.74.28,3.07-1.89,3.15-5.01v-.16c0-3.01-1.41-5.24-3.15-4.96-1.6.26-2.03,1.81-2.69,2.56-.61.7-1.04.94-1.59.99-1.12.1-1.95-.02-2.57-.25-1.1-.4-1.82-1.55-1.82-2.81h0c.08-2.82.27-5.46.57-8.18h0c.15-.94.68-1.77,1.48-2.18s1.87-.62,3.39-.16c.54.16.93.45,1.43,1.25.54.86.74,2.46,2.28,2.99,1.67.57,3.31-1.35,3.84-4.41l.03-.16c.44-2.97-.64-5.42-2.39-5.44-1.62-.02-2.27,1.44-3.03,2.07-.7.59-1.16.73-1.72.71-1.75-.09-2.71-.91-3.23-1.71-.44-.67-.61-1.5-.57-2.32h0c2.69-12.21,7.63-20.4,13.29-20.4,8.52,0,15.43,18.57,15.43,41.47,0,22.9-6.91,41.47-15.43,41.47-5.42,0-9.94-6.38-12.69-17.74h0Z"/>
</svg>