<?xml version="1.0" encoding="UTF-8"?>
<svg id="Symbols" xmlns="http://www.w3.org/2000/svg" viewBox="0 0 150 150">
  <path d="m130.11,75.64l-6.42-3.59c-5.09-2.85-9.92-6.07-14.48-9.62,6.82-2.09,11.79-8.44,11.79-15.93,0-9.19-7.47-16.66-16.66-16.66-7.43,0-13.73,4.89-15.88,11.62-3.59-4.72-6.84-9.71-9.69-14.98l-3.5-6.47-3.56,6.44c-2.86,5.17-6.12,10.07-9.71,14.67-2.12-6.77-8.45-11.69-15.9-11.69-9.19,0-16.66,7.47-16.66,16.66,0,7.33,4.77,13.56,11.37,15.78-4.48,3.34-9.22,6.37-14.2,9.03l-6.49,3.47,6.42,3.59c5.21,2.92,10.15,6.23,14.8,9.88-6.87,2.05-11.9,8.43-11.9,15.96,0,9.19,7.47,16.66,16.66,16.66,7.43,0,13.74-4.89,15.88-11.62,3.51,4.63,6.69,9.54,9.48,14.7l3.5,6.47,3.56-6.44c2.91-5.26,6.23-10.23,9.89-14.91,2.09,6.82,8.44,11.79,15.93,11.79,9.19,0,16.66-7.47,16.66-16.66,0-7.34-4.78-13.58-11.4-15.79,4.43-3.29,9.11-6.27,14.02-8.89l6.49-3.47Zm-25.77-37.75c4.75,0,8.61,3.86,8.61,8.61s-3.86,8.61-8.61,8.61-8.61-3.86-8.61-8.61,3.86-8.61,8.61-8.61Zm-58.24,16.81c-4.75,0-8.61-3.86-8.61-8.61s3.86-8.61,8.61-8.61,8.61,3.86,8.61,8.61c0,2.21-.84,4.22-2.21,5.74-.32.32-.66.63-.99.95-1.48,1.2-3.36,1.92-5.41,1.92Zm0,57.71c-4.75,0-8.61-3.86-8.61-8.61s3.86-8.61,8.61-8.61,8.61,3.86,8.61,8.61-3.86,8.61-8.61,8.61Zm66.85-8.61c0,4.75-3.86,8.61-8.61,8.61s-8.61-3.86-8.61-8.61,3.86-8.61,8.61-8.61,8.61,3.86,8.61,8.61Zm-37.91,9.86c-9.74-15.8-22.9-29.15-38.57-39.12,7.54-4.61,14.51-10.02,20.8-16.12.29-.26.56-.52.83-.8,6.46-6.38,12.2-13.5,17.09-21.24,9.74,15.8,22.9,29.15,38.57,39.12-15.69,9.59-28.9,22.62-38.72,38.17Z"/>
  <path d="m45.99,39.08c-3.81,0-6.9,3.1-6.9,6.9s3.1,6.9,6.9,6.9,6.9-3.1,6.9-6.9-3.1-6.9-6.9-6.9Zm0,8.05c-.63,0-1.14-.51-1.14-1.14s.51-1.14,1.14-1.14,1.14.51,1.14,1.14-.51,1.14-1.14,1.14Z"/>
  <path d="m104.24,53.3c3.81,0,6.9-3.1,6.9-6.9s-3.1-6.9-6.9-6.9-6.9,3.1-6.9,6.9,3.1,6.9,6.9,6.9Zm0-8.05c.63,0,1.14.51,1.14,1.14s-.51,1.14-1.14,1.14-1.14-.51-1.14-1.14.51-1.14,1.14-1.14Z"/>
  <path d="m45.99,96.79c-3.81,0-6.9,3.1-6.9,6.9s3.1,6.9,6.9,6.9,6.9-3.1,6.9-6.9-3.1-6.9-6.9-6.9Zm0,8.05c-.63,0-1.14-.51-1.14-1.14s.51-1.14,1.14-1.14,1.14.51,1.14,1.14-.51,1.14-1.14,1.14Z"/>
  <path d="m97.33,103.69c0,3.81,3.1,6.9,6.9,6.9s6.9-3.1,6.9-6.9-3.1-6.9-6.9-6.9-6.9,3.1-6.9,6.9Zm8.05,0c0,.63-.51,1.14-1.14,1.14s-1.14-.51-1.14-1.14.51-1.14,1.14-1.14,1.14.51,1.14,1.14Z"/>
  <path d="m73.79,70.48c.48.91,1.78.91,2.26,0l5.91-11.26c.19-.37.19-.81,0-1.18l-5.91-11.26c-.48-.91-1.78-.91-2.26,0l-5.91,11.26c-.19.37-.19.81,0,1.18l5.91,11.26Z"/>
  <path d="m76.04,78.89c-.48-.91-1.78-.91-2.26,0l-5.91,11.26c-.19.37-.19.81,0,1.18l5.91,11.26c.48.91,1.78.91,2.26,0l5.91-11.26c.19-.37.19-.81,0-1.18l-5.91-11.26Z"/>
  <path d="m71.32,74.01l-11.26-5.91c-.37-.19-.81-.19-1.18,0l-11.26,5.91c-.91.48-.91,1.78,0,2.26l11.26,5.91c.37.19.81.19,1.18,0l11.26-5.91c.91-.48.91-1.78,0-2.26Z"/>
  <path d="m90.99,68.1l-11.26,5.91c-.91.48-.91,1.78,0,2.26l11.26,5.91c.37.19.81.19,1.18,0l11.26-5.91c.91-.48.91-1.78,0-2.26l-11.26-5.91c-.37-.19-.81-.19-1.18,0Z"/>
</svg>