<?xml version="1.0" encoding="UTF-8"?>
<svg id="Symbols" xmlns="http://www.w3.org/2000/svg" viewBox="0 0 150 150">
  <path d="m128.18,83.67c-2.93-8.59-9.07-15.22-17.29-18.66-6.58-2.75-12.71-3.4-17.63-3.22,3.21-1.64,7.04-2.63,10.69-1.16,1.63.66,3.23,1.25,4.77,1.75,9.07,3,16.32-2.24,18.78-8.96,2.24-6.1.68-14.27-8.05-17.8-3.42-1.38-7.39-1.89-11.81-1.49-10.95.98-18.1,7.29-22.4,14.02-.74-1.3-1.62-2.44-2.61-3.41,1.01-1.53,1.6-3.38,1.6-5.38,0-2.44-.89-4.67-2.35-6.36.91-2.26,2.46-4.92,4.17-5.44,1.65-.5,3.89,1.24,5.09,2.32l5-5.53c-4.2-3.8-8.32-5.12-12.26-3.92-4.67,1.42-7.37,6.07-8.75,9.39-.02,0-.05,0-.07,0s-.05,0-.07,0c-1.38-3.32-4.08-7.97-8.75-9.39-3.94-1.2-8.06.12-12.26,3.92l5,5.53c1.19-1.08,3.43-2.82,5.08-2.32,1.66.5,3.23,3.07,4.18,5.44-1.46,1.69-2.35,3.92-2.35,6.36,0,1.93.56,3.72,1.51,5.23-1.01.95-1.91,2.1-2.67,3.39-4.27-6.67-11.41-12.93-22.38-13.91-4.42-.4-8.39.11-11.81,1.49-8.72,3.53-10.28,11.7-8.05,17.8,2.47,6.72,9.71,11.96,18.78,8.96,1.53-.51,3.13-1.1,4.76-1.75,3.65-1.47,7.5-.45,10.74,1.21-4.95-.2-11.09.42-17.67,3.17-8.22,3.44-14.36,10.06-17.29,18.65-3.36,9.85-2.05,20.81,3.68,30.87,6.32,11.09,14.64,15.47,21.84,15.47,2.86,0,5.55-.69,7.86-1.93,8.58-4.61,9.42-14.27,5.81-21.43-.67-1.33-1.36-2.66-2.05-3.97-3.84-7.36-7.47-14.31-5.64-19.03.53-1.37,1.58-2.64,3.12-3.82-.15,4.79,1.09,9.67,3.82,13.97l9.74,15.43,5.69,8.34,4.97-8.42,9.32-15.34c2.73-4.3,3.98-9.18,3.83-13.96,1.51,1.15,2.54,2.4,3.06,3.74,1.8,4.67-1.82,11.55-5.64,18.84-.74,1.42-1.49,2.85-2.22,4.28-3.61,7.16-2.78,16.83,5.81,21.43,2.31,1.24,4.99,1.93,7.86,1.93,7.19,0,15.52-4.38,21.84-15.47,5.73-10.05,7.03-21.01,3.68-30.86Zm-53.03-.81c-3.86,0-7.22.91-10.47,2.85-.43-1.35-.69-2.74-.78-4.13,2.99-3.14,6.79-4.81,11.09-4.81,4.04,0,8.17,1.81,11.32,4.87-.1,1.43-.38,2.87-.84,4.27-2.95-1.68-6.43-3.06-10.33-3.06Zm-.2-33.96c2.56,0,5.4,3.88,5.4,9.46,0,.3-.02.6-.04.9-1.68-.68-3.39-1.07-5.09-1.11h-.28c-1.76.04-3.56.48-5.33,1.24-.04-.35-.06-.7-.06-1.03,0-5.57,2.85-9.46,5.4-9.46Zm8.38,22.07c-2.69-1.07-5.52-1.65-8.33-1.65s-5.41.48-7.89,1.4c.49-.66,1.03-1.29,1.64-1.87,2.1-2.02,4.42-3.2,6.28-3.24h.11c1.95.04,4.27,1.23,6.36,3.24.68.66,1.29,1.37,1.83,2.12Zm24.98-29.41c3.22-.29,6.03.04,8.34.98,4.43,1.79,4.89,5.47,3.84,8.32-.92,2.51-3.95,6.27-9.45,4.45-1.38-.46-2.83-.99-4.32-1.59-2.22-.89-4.42-1.27-6.55-1.27-3.74,0-7.26,1.16-10.28,2.69,2.69-5.58,8.1-12.65,18.41-13.58Zm-33.24-4.28c.93,0,1.72.96,1.72,2.09s-.79,2.09-1.72,2.09-1.72-.96-1.72-2.09.79-2.09,1.72-2.09Zm-31.8,16.38c-1.49.6-2.94,1.13-4.32,1.59-5.5,1.82-8.53-1.94-9.45-4.45-1.04-2.85-.58-6.53,3.85-8.32,1.77-.72,3.83-1.08,6.14-1.08.71,0,1.44.03,2.2.1,10.56.95,15.92,8.12,18.52,13.66-4.77-2.45-10.79-3.99-16.94-1.51Zm3.09,27.23c-3.04,7.87,1.55,16.67,5.99,25.17.67,1.28,1.35,2.58,2,3.88,2.76,5.47.65,9.72-2.67,11.51-5.02,2.69-13.33.51-19.69-10.66-4.66-8.17-5.76-16.97-3.1-24.77,2.23-6.54,6.88-11.58,13.11-14.18,4.82-2.02,9.35-2.65,13.13-2.65,1.46,0,2.81.1,4.02.24-.1.2-.22.39-.31.59-6.6,2.69-10.69,6.25-12.47,10.87Zm28.92,22.68l-7.11-11.27c2.21-1.38,4.37-1.98,6.97-1.98,2.41,0,4.72.96,6.84,2.2l-6.71,11.04Zm42.74,7.28c-6.37,11.17-14.67,13.35-19.69,10.66-3.32-1.78-5.43-6.03-2.67-11.51.71-1.4,1.44-2.79,2.16-4.17,4.43-8.44,9.01-17.16,6-24.98-1.77-4.59-5.83-8.13-12.4-10.8-.1-.22-.23-.42-.34-.64,4.32-.47,10.34-.27,16.93,2.49,6.23,2.6,10.88,7.64,13.11,14.18,2.66,7.8,1.56,16.6-3.1,24.77Z"/>
</svg>