<?xml version="1.0" encoding="UTF-8"?>
<svg id="Symbols" xmlns="http://www.w3.org/2000/svg" viewBox="0 0 150 150">
  <path d="m118.04,30.52h-23.45l-19.78,25.24-19.39-25.07h-23.45c2.04,18.59,22.72,36.66,42.95,36.66s41.09-18.24,43.13-36.84Z"/>
  <path d="m74.91,82.25c-20.23,0-40.91,18.07-42.95,36.66h23.45l19.39-25.07,19.78,25.24h23.45c-2.04-18.59-22.9-36.84-43.13-36.84Z"/>
  <path d="m94.55,75c20.41-7.95,35.11-27.9,35.4-51.22l.05-3.78h-40.2l-14.8,18.8-14.8-18.8H20l.05,3.78c.3,23.32,15,43.28,35.4,51.22-20.41,7.95-35.11,27.9-35.4,51.22l-.05,3.78h40.2l14.8-18.8,14.8,18.8h40.2l-.05-3.78c-.3-23.32-15-43.28-35.4-51.22ZM27.71,27.46h28.86l18.43,23.41,18.43-23.41h28.86c-2.21,24.46-22.69,43.77-47.29,43.77S29.92,51.92,27.71,27.46Zm65.72,95.08l-18.43-23.41-18.43,23.41h-28.86c2.21-24.46,22.69-43.77,47.29-43.77s45.08,19.31,47.29,43.77h-28.86Z"/>
</svg>