<?xml version="1.0" encoding="UTF-8"?>
<svg id="Symbols" xmlns="http://www.w3.org/2000/svg" viewBox="0 0 150 150">
  <path d="m105.58,53.85c-3.65,1.13-6.4.4-7.14-.86-.62-1.05-.13-2.9,1.23-4.71l1.38-1.84-2.64-5.34h-45.17l-2.64,5.34,1.38,1.84c1.36,1.81,1.85,3.66,1.23,4.71-.74,1.26-3.49,1.99-7.14.86l-1.8-.55-4,2.95v38.52l4,2.95,1.8-.55c3.65-1.13,6.4-.4,7.14.86.85,1.44-.35,4.19-2.78,6.4l-1.92,1.74,2.41,6.04h49.81l2.41-6.04-1.92-1.74c-2.43-2.2-3.63-4.96-2.78-6.4.74-1.26,3.49-1.99,7.14-.86l1.8.55,4-2.95v-38.52l-4-2.95-1.8.55Zm-1.66,35.39c-5.2-.52-9.74,1.3-11.91,5.01-1.8,3.08-1.67,6.89.16,10.49h-32.67c1.82-3.6,1.96-7.41.16-10.49-2.17-3.71-6.71-5.53-11.91-5.01v-27.47c5.2.52,9.74-1.3,11.91-5.01,1.42-2.43,1.66-5.3.78-8.2h30.8c-.88,2.9-.64,5.78.78,8.2,2.17,3.71,6.71,5.53,11.91,5.01v27.47Z"/>
  <path d="m127.11,48c1.73-.65,2.89-2.33,2.89-4.18v-9.63c0-1.58-.85-3.06-2.21-3.86-1.36-.8-3.07-.82-4.45-.05-3.53,1.97-5.58,1.95-6.12,1.8-.07-.51.08-2.28,1.96-5.16.9-1.38.97-3.14.18-4.58-.78-1.44-2.29-2.34-3.93-2.34h-7.78c-1.65,0-3.17.76-4.18,2.1-1.81,2.4-12.54,5.72-27.97,5.72-16.92,0-26.73-3.82-28.01-5.77-.84-1.29-2.25-2.06-3.76-2.06h-9.55c-1.64,0-3.14.89-3.93,2.33-.79,1.44-.72,3.2.17,4.57,1.71,2.64,2.02,4.49,1.91,5.08-.51.14-2.43.18-5.75-1.59-1.38-.73-3.07-.69-4.41.11-1.36.82-2.17,2.25-2.17,3.84v10.11c0,1.75,1.01,3.34,2.57,4.05,1.71.92,5.86,10.43,5.95,28.46.09,18.03-3.96,27.58-5.62,28.5-1.74.64-2.91,2.33-2.91,4.19v5.96c0,1.59.81,3.02,2.17,3.84,1.34.81,3.03.85,4.41.11,3.32-1.77,5.24-1.73,5.75-1.59.11.6-.21,2.45-1.93,5.1-.89,1.38-.96,3.13-.18,4.58.78,1.44,2.29,2.34,3.93,2.34h10.58c1.21,0,2.35-.48,3.2-1.35,2.26-2.3,12.38-5.55,27.82-5.55s25.57,3.24,27.82,5.55c.85.87,1.99,1.35,3.2,1.35h8.67c1.64,0,3.15-.9,3.93-2.34.78-1.45.71-3.2-.19-4.59-1.89-2.89-2.04-4.67-1.97-5.18.55-.15,2.59-.17,6.12,1.8,1.38.77,3.08.75,4.45-.05,1.36-.8,2.21-2.28,2.21-3.86v-6.79c0-1.74-1.01-3.33-2.55-4.04-1.71-.92-5.86-10.43-5.95-28.46-.09-18.03,3.96-27.58,5.62-28.5Zm-4.57-5.87c-6.34,4.98-8.57,21.14-8.51,34.41.07,12.9,2.37,28.81,8.51,34.04v.63c-4.62-1.51-8.54-.95-10.91,1.69h0c-2.1,2.34-2.42,5.78-1.03,9.65h-2.68c-6.31-5.07-21.02-6.9-32.16-6.9s-25.84,1.83-32.16,6.9h-4.59c1.38-3.85,1.03-7.21-1.08-9.56-2.22-2.47-5.82-3.12-10.08-1.94,6.06-5.29,8.21-21.09,8.15-34.11-.07-12.92-2.38-28.85-8.53-34.05v-4.05c4.43,1.33,8.18.72,10.46-1.83,2.11-2.35,2.46-5.7,1.09-9.54h3.31c5.62,5.74,21.03,7.82,33.18,7.82s27.58-2.07,33.18-7.82h1.92c-1.38,3.87-1.05,7.29,1.04,9.63,2.37,2.64,6.28,3.2,10.91,1.69v3.36Z"/>
</svg>