<?xml version="1.0" encoding="UTF-8"?>
<svg id="Symbols" xmlns="http://www.w3.org/2000/svg" viewBox="0 0 150 150">
  <path d="m115.06,84.17l-22.62-7.67c.06-.66.08-1.32.06-2l23.29-6.88c3.46,3.11,8.81,2.87,11.97-.55,3.18-3.44,2.95-8.79-.51-11.95-3.46-3.16-8.84-2.93-12.02.51-1.2,1.3-1.91,2.86-2.15,4.48l-22.78,6.73c-.43-.74-.91-1.44-1.45-2.12l14.7-18.25c2.66.35,5.43-.55,7.38-2.66,3.18-3.44,2.95-8.79-.51-11.95-3.46-3.16-8.84-2.93-12.02.51-2.44,2.64-2.86,6.41-1.36,9.45l-14.48,17.99c-1.1-.5-2.23-.89-3.4-1.16v-22.52c1.01-.46,1.94-1.12,2.73-1.98,3.18-3.44,2.95-8.79-.51-11.95-3.46-3.16-8.84-2.93-12.02.51-3.18,3.44-2.95,8.79.51,11.95.4.37.83.68,1.28.96v22.98c-.92.2-1.81.48-2.69.82l-13.64-18.7c1.82-3.33,1.21-7.58-1.72-10.25-3.46-3.16-8.84-2.93-12.02.51-3.18,3.44-2.95,8.79.51,11.95,1.84,1.68,4.22,2.39,6.53,2.18l13.74,18.84c-.54.59-1.03,1.22-1.47,1.86l-22.89-6.98c-.21-1.98-1.11-3.89-2.7-5.34-3.46-3.16-8.84-2.93-12.02.51s-2.95,8.79.51,11.95c3.17,2.89,7.94,2.93,11.16.28l23.17,7.07c-.09.81-.13,1.62-.1,2.45,0,.15.03.29.04.44l-22.82,6.73c-.17-.18-.34-.36-.52-.52-3.46-3.16-8.84-2.93-12.02.51-3.18,3.44-2.95,8.79.51,11.95,3.46,3.16,8.84,2.93,12.02-.51,1-1.09,1.67-2.37,1.99-3.71l23.28-6.86c.4.64.86,1.25,1.35,1.84l-14.45,17.97c-2.8-.53-5.81.33-7.88,2.58-3.18,3.44-2.95,8.79.51,11.95,3.46,3.16,8.84,2.93,12.02-.51,2.32-2.52,2.82-6.05,1.56-9l14.63-18.19c1.09.47,2.21.83,3.35,1.08v22.5c-.88.45-1.7,1.05-2.41,1.83-3.18,3.44-2.95,8.79.51,11.95,3.46,3.16,8.84,2.93,12.02-.51,3.18-3.44,2.95-8.79-.51-11.95-.49-.45-1.04-.81-1.6-1.12v-22.76c.86-.2,1.72-.46,2.54-.78l13.58,18.42c-1.94,3.35-1.37,7.71,1.62,10.44,3.46,3.16,8.84,2.93,12.02-.51,3.18-3.44,2.95-8.79-.51-11.95-1.78-1.63-4.07-2.35-6.31-2.2l-13.84-18.77c.58-.65,1.12-1.33,1.59-2.05l22.73,7.7c.31,1.77,1.18,3.45,2.62,4.76,3.46,3.16,8.84,2.93,12.02-.51,3.18-3.44,2.95-8.79-.51-11.95-3.33-3.03-8.42-2.93-11.63.13Zm-32.99-3.13c-3.56,3.71-9.62,3.96-13.51.54-1.84-1.61-2.91-3.8-3.01-6.17-.1-2.35.76-4.6,2.44-6.34,1.88-1.96,4.45-2.95,7.04-2.95,2.31,0,4.63.8,6.47,2.41,1.84,1.61,2.91,3.8,3.01,6.17.1,2.35-.76,4.6-2.44,6.34Z"/>
</svg>