<?xml version="1.0" encoding="UTF-8"?>
<svg id="Symbols" xmlns="http://www.w3.org/2000/svg" viewBox="0 0 150 150">
  <path d="m128.69,81.96l-4.23.57c-4.65.63-28.5,3.19-40.72-7.95-4.35-3.97-6.7-9.18-7.16-15.93-.68-9.9,1.3-17.57,5.89-22.82,7.81-8.94,20.92-8.36,21.04-8.36h.19c4.15,0,8.42,2.2,11.71,6.02,3.45,4.01,5.31,9.19,5.11,14.21-.36,8.79-7.98,16.64-15.98,16.53-12.25-.22-13.21-10.17-13.21-13.22,0-3.27.92-5.88,2.82-7.97,2.78-3.06,6.93-4.17,8.97-4.12,1.02,0,2.24.34,3.61,1,1.8.86,3.87,2.45,3.87,7.21,0,3.79-2.65,5.71-5.14,6.26-1.86.41-3.05-.22-3.33-.4l-.39-.27c-.28-.17-.6-.7-.65-1.36-.06-.79.29-1.51,1.03-2.15l-4.65-6.62c-2.75,2.38-4.18,5.82-3.92,9.44.24,3.32,1.91,6.35,4.37,7.94.97.7,4.25,2.68,8.98,1.65,6.72-1.46,11.24-7.29,11.24-14.49s-3-12.33-8.45-14.92c-2.33-1.11-4.46-1.66-6.52-1.67-4.15,0-10.2,1.98-14.36,6.56-3.31,3.64-5.05,8.46-5.05,13.93,0,7.89,4.35,21.32,20.64,21.61.11,0,.22,0,.33,0,11.92,0,22.78-11.38,23.32-24.54.3-7.29-2.32-14.73-7.19-20.39-4.68-5.44-10.9-8.58-17.08-8.6-1.55-.07-16.78-.43-26.69,10.85-2.73,3.11-4.79,6.78-6.16,10.97l-51.5-.12-.04,24.34,4.1-.38c4.67-.44,28.58-2.03,40.43,9.59,4.22,4.14,6.39,9.44,6.63,16.2.35,9.92-1.88,17.51-6.63,22.57-8.1,8.62-21.17,7.52-21.3,7.51h-.19c-4.15-.18-8.34-2.54-11.5-6.49-3.32-4.15-5.01-9.4-4.64-14.4.65-8.77,8.52-16.33,16.51-15.87,12.24.71,12.86,10.7,12.76,13.74-.11,3.27-1.11,5.84-3.08,7.85-2.88,2.95-7.02,3.86-9.1,3.76-1.02-.05-2.23-.43-3.58-1.14-1.77-.93-3.78-2.6-3.63-7.36.12-3.78,2.84-5.6,5.34-6.04,1.87-.33,3.04.34,3.32.53l.38.28c.27.18.58.73.61,1.38.03.79-.34,1.5-1.1,2.11l4.43,6.8c2.83-2.27,4.37-5.65,4.23-9.27-.13-3.33-1.7-6.42-4.11-8.11-.94-.73-4.15-2.85-8.92-2.01-6.77,1.19-11.47,6.83-11.71,14.03-.23,7.03,2.59,12.45,7.95,15.26,2.29,1.2,4.4,1.83,6.46,1.94,4.15.2,10.25-1.56,14.56-5.97,3.42-3.51,5.33-8.25,5.51-13.71.26-7.89-3.65-21.49-19.92-22.43-12.26-.71-23.44,10.08-24.43,23.56-.54,7.28,1.84,14.81,6.52,20.67,4.5,5.63,10.62,9.01,16.79,9.29.29.03,1.07.08,2.21.08,4.9,0,16.48-1.02,24.82-9.84,3.32-3.52,5.73-7.84,7.22-12.91l52.36.09v-24.45Zm-59.76-13.91c-11.84-11.62-31.89-12.4-41.97-11.94v-6.9s42.22.1,42.22.1c-.33,3.12-.39,6.45-.15,9.99.31,4.55,1.31,8.66,2.99,12.32-.93-1.26-1.96-2.45-3.1-3.57Zm52.2,29.95l-43.23-.07c.23-2.45.31-5.01.21-7.71-.18-4.95-1.19-9.43-3.01-13.4,1.13,1.53,2.41,2.95,3.84,4.25,12.15,11.08,32.09,11.09,42.19,10.25v6.68Z"/>
</svg>