<svg id="Symbols" xmlns="http://www.w3.org/2000/svg" viewBox="0 0 150 150"><title>Gye Nyame-bold</title><g id="Bold"><path d="M114.85,76.9a33.52,33.52,0,0,0-6.31-12.45l-10.44-13,3.41,16.29A26,26,0,0,1,85.15,97.42l-.52-1.93h0l-.78-2.9H84a11,11,0,1,0-5.61-20.44l-2.54-9.48H76a11.18,11.18,0,0,0,2.86-.38,11,11,0,0,0,7.78-13.48h0a11,11,0,0,0-13.47-7.77,10.79,10.79,0,0,0-2.79,1.18l-2.07-7.74-1.17-4.35h0l-1.2-4.47L58.2,27.74l1,3.72a34,34,0,0,0-24,41.64,33.63,33.63,0,0,0,6.31,12.46l10.44,13L48.49,82.23A26,26,0,0,1,64.85,52.58l1.3,4.84a11.18,11.18,0,0,0-3,.37,11,11,0,0,0-2.65,20.15A10.89,10.89,0,0,0,66,79.42a11.07,11.07,0,0,0,5.65-1.56l1.77,6.58h0l.78,2.9a11.08,11.08,0,0,0-3,.37A11,11,0,0,0,74,109.34a11.71,11.71,0,0,0,2.86-.38,10.87,10.87,0,0,0,2.79-1.19l4.44,16.56,7.72-2.07-1-3.72A34,34,0,0,0,114.85,76.9ZM73.4,50.17a3,3,0,0,1,1.82-1.4,3,3,0,1,1-1.82,1.4ZM66.76,71.31a3,3,0,0,1-3.67-2.12,3,3,0,1,1,3.67,2.12Zm16.48,7.38a3,3,0,0,1,.77-.1,3,3,0,1,1-2.9,3.78h0A3,3,0,0,1,83.24,78.69ZM42,65.27A26,26,0,0,1,61.26,39.19l1.51,5.64A34,34,0,0,0,42,65.27Zm32.77,36a3,3,0,0,1-3.67-2.12h0a3,3,0,1,1,5.79-1.56h0A3,3,0,0,1,74.78,101.23Zm14,9.59-1.51-5.64A34,34,0,0,0,108,84.73,26,26,0,0,1,88.74,110.82Z"/></g></svg>