<?xml version="1.0" encoding="UTF-8"?>
<svg id="Symbols" xmlns="http://www.w3.org/2000/svg" viewBox="0 0 150 150">
  <path d="m120.72,75.88c5.84-3.29,8.83-10.73,9.21-17.64.5-9.06-3.26-17.66-9.58-21.9-8.39-5.64-18.1-3.16-25.32,6.49-1.66,2.22-3.02,4.7-4.08,7.39-2.84-9.25-7.19-17.88-12.92-25.37l-3.01-3.93-3.01,3.93c-5.76,7.52-10.12,16.2-12.96,25.5-1.07-2.74-2.44-5.25-4.13-7.51-7.22-9.65-16.93-12.13-25.32-6.49-6.32,4.25-10.08,12.84-9.58,21.9.38,6.9,3.37,14.35,9.21,17.64-5.84,3.29-8.83,10.73-9.21,17.64-.5,9.06,3.26,17.66,9.58,21.9,3.01,2.02,6.31,3.05,9.65,3.05,1.88,0,3.77-.33,5.62-.98,6.39-2.27,12.01-8.46,14.29-15.62,2.84,9.16,7.16,17.7,12.84,25.12l3.01,3.93,3.01-3.93c5.65-7.38,9.96-15.87,12.8-24.97,2.31,7.1,7.9,13.23,14.25,15.48,1.86.66,3.75.98,5.62.98,3.34,0,6.65-1.03,9.65-3.05,6.32-4.25,10.08-12.84,9.58-21.9-.38-6.9-3.37-14.35-9.21-17.64Zm-68.44,23.09c-1.42,5.39-5.53,10.26-10,11.84-2.86,1.01-5.68.61-8.39-1.21-4.86-3.26-6.73-10.24-6.43-15.71.31-5.59,2.91-11.68,7.28-12.5.35-.07.68-.1,1-.1,1.1,0,2.05.39,2.92,1.21,2.14,2,3.24,6.01,2.6,9.52l7.35,1.22c1.06-5.83-.84-12.2-4.73-15.83-.63-.59-1.3-1.09-2-1.52.7-.43,1.37-.94,2-1.52,3.89-3.63,5.79-9.99,4.73-15.83l-7.35,1.22c.64,3.51-.45,7.52-2.6,9.52-1.12,1.05-2.36,1.4-3.91,1.11-4.38-.82-6.98-6.91-7.28-12.5-.3-5.47,1.57-12.44,6.43-15.71,6.24-4.2,11.58.3,14.96,4.81,2.2,2.94,3.8,6.64,4.63,10.7,1.58,7.73,3.52,23.38-1.21,41.29Zm22.74,19.55c-7.97-12.21-12.31-27.14-12.31-42.61s4.34-30.4,12.31-42.61c7.5,11.5,11.79,25.4,12.26,39.9-.04,1.66-.04,3.39,0,5.18-.44,14.58-4.72,28.58-12.27,40.14Zm41.04-8.93c-2.71,1.82-5.53,2.23-8.39,1.21-4.46-1.58-8.57-6.45-10-11.84-1.96-7.42-2.76-14.43-2.93-20.67.02-.79.05-1.59.05-2.39,0-.88-.03-1.75-.05-2.63.17-6.56.99-11.97,1.73-15.61.83-4.06,2.43-7.76,4.63-10.7,3.65-4.88,7.05-6.47,9.92-6.47,1.94,0,3.65.73,5.04,1.66,4.86,3.26,6.73,10.24,6.43,15.71-.31,5.59-2.91,11.68-7.28,12.5-1.55.29-2.79-.06-3.91-1.11-2.14-2-3.24-6.01-2.6-9.52l-7.35-1.22c-1.06,5.83.84,12.2,4.73,15.83.63.59,1.3,1.09,2,1.52-.7.43-1.37.94-2,1.52-3.89,3.63-5.79,9.99-4.73,15.83l7.35-1.22c-.64-3.51.45-7.52,2.6-9.52,1.12-1.05,2.37-1.4,3.91-1.11,4.38.82,6.98,6.91,7.28,12.5.3,5.47-1.57,12.44-6.43,15.71Z"/>
</svg>