<?xml version="1.0" encoding="UTF-8"?>
<svg id="Symbols" xmlns="http://www.w3.org/2000/svg" viewBox="0 0 150 150">
  <path d="m122.54,20v9.66h-5.36v-9.66h-7.46v9.66h-5.36v-9.66h-7.46v9.66h-5.36v-9.66h-7.46v9.66h-5.36v-9.66h-7.46v9.66h-5.36v-9.66h-7.46v9.66h-5.36v-9.66h-7.46v9.66h-5.36v-9.66h-7.46v9.66h-5.36v-9.66h-7.46v110h7.46v-9.66h5.36v9.66h7.46v-9.66h5.36v9.66h7.46v-9.66h5.36v9.66h7.46v-9.66h5.36v9.66h7.46v-9.66h5.36v9.66h7.46v-9.66h5.36v9.66h7.46v-9.66h5.36v9.66h7.46v-9.66h5.36v9.66h7.46V20h-7.46Zm-43.81,78.48v-5.61h5.36v5.61h-5.36Zm0-13.61v-5.74h5.36v5.74h-5.36Zm-7.46-5.74v5.74h-5.36v-5.74h5.36Zm0,13.74v5.61h-5.36v-5.61h5.36Zm12.82-21.74h-5.36v-5.74h5.36v5.74Zm-12.82,0h-5.36v-5.74h5.36v5.74Zm20.28,27.35v-5.61h5.36v5.61h-5.36Zm0-13.61v-5.74h5.36v5.74h-5.36Zm0-13.74v-5.74h5.36v5.74h-5.36Zm-33.09-5.74v5.74h-5.36v-5.74h5.36Zm0,13.74v5.74h-5.36v-5.74h5.36Zm0,13.74v5.61h-5.36v-5.61h5.36Zm38.45-35.48h-5.36v-5.74h5.36v5.74Zm-12.82,0h-5.36v-5.74h5.36v5.74Zm-12.82,0h-5.36v-5.74h5.36v5.74Zm-12.82,0h-5.36v-5.74h5.36v5.74Zm-5.36,49.22h5.36v5.61h-5.36v-5.61Zm12.82,0h5.36v5.61h-5.36v-5.61Zm12.82,0h5.36v5.61h-5.36v-5.61Zm12.82,0h5.36v5.61h-5.36v-5.61Zm12.82,0h5.36v5.61h-5.36v-5.61Zm0-8.13v-5.61h5.36v5.61h-5.36Zm0-13.61v-5.74h5.36v5.74h-5.36Zm0-13.74v-5.74h5.36v5.74h-5.36Zm0-13.74v-5.74h5.36v5.74h-5.36Zm-58.73-5.74v5.74h-5.36v-5.74h5.36Zm0,13.74v5.74h-5.36v-5.74h5.36Zm0,13.74v5.74h-5.36v-5.74h5.36Zm0,13.74v5.61h-5.36v-5.61h5.36Zm0,13.74v5.61h-5.36v-5.61h5.36Zm64.09-62.95h-5.36v-5.99h5.36v5.99Zm-12.82,0h-5.36v-5.99h5.36v5.99Zm-12.82,0h-5.36v-5.99h5.36v5.99Zm-12.82,0h-5.36v-5.99h5.36v5.99Zm-12.82,0h-5.36v-5.99h5.36v5.99Zm-12.82,0h-5.36v-5.99h5.36v5.99Zm-12.82,0h-5.36v-5.99h5.36v5.99Zm0,8v5.74h-5.36v-5.74h5.36Zm0,13.74v5.74h-5.36v-5.74h5.36Zm0,13.74v5.74h-5.36v-5.74h5.36Zm0,13.74v5.61h-5.36v-5.61h5.36Zm0,13.74v5.61h-5.36v-5.61h5.36Zm84.36,5.61v-5.61h5.36v5.61h-5.36Zm0-13.74v-5.61h5.36v5.61h-5.36Zm0-13.61v-5.74h5.36v5.74h-5.36Zm0-13.74v-5.74h5.36v5.74h-5.36Zm0-13.74v-5.74h5.36v5.74h-5.36Zm0-13.74v-5.99h5.36v5.99h-5.36Z"/>
</svg>