<?xml version="1.0" encoding="UTF-8"?>
<svg id="Symbols" xmlns="http://www.w3.org/2000/svg" viewBox="0 0 150 150">
  <g id="Bold">
    <path d="m116.68,75c8.03-5.4,13.32-14.57,13.32-24.95,0-16.57-13.48-30.05-30.05-30.05-10.38,0-19.55,5.29-24.95,13.32-5.4-8.03-14.57-13.32-24.95-13.32-16.57,0-30.05,13.48-30.05,30.05,0,10.38,5.29,19.55,13.32,24.95-8.03,5.4-13.32,14.57-13.32,24.95,0,16.57,13.48,30.05,30.05,30.05,10.38,0,19.55-5.29,24.95-13.32,5.4,8.03,14.57,13.32,24.95,13.32,16.57,0,30.05-13.48,30.05-30.05,0-10.38-5.29-19.55-13.32-24.95Zm-16.73-44.79c10.94,0,19.85,8.9,19.85,19.85,0,9.37-6.54,17.23-15.28,19.3-2.3-12.04-11.81-21.55-23.86-23.86,2.07-8.75,9.92-15.28,19.3-15.28Zm-18.89,25.9c6.08,1.95,10.88,6.76,12.84,12.84-6.08-1.95-10.88-6.76-12.84-12.84Zm12.84,24.95c-1.95,6.08-6.76,10.88-12.84,12.84,1.95-6.08,6.76-10.88,12.84-12.84Zm-63.69-31c0-10.94,8.9-19.85,19.85-19.85,9.37,0,17.23,6.54,19.3,15.28-12.04,2.3-21.55,11.81-23.86,23.86-8.75-2.07-15.28-9.92-15.28-19.3Zm25.9,18.89c1.95-6.08,6.76-10.88,12.84-12.84-1.95,6.08-6.76,10.88-12.84,12.84Zm12.84,24.95c-6.08-1.95-10.88-6.76-12.84-12.84,6.08,1.95,10.88,6.76,12.84,12.84Zm-18.89,25.9c-10.94,0-19.85-8.9-19.85-19.85,0-9.37,6.54-17.23,15.28-19.3,2.3,12.04,11.81,21.55,23.86,23.86-2.07,8.75-9.92,15.28-19.3,15.28Zm24.95-36.58c-2.18-3.24-4.97-6.03-8.21-8.21,3.24-2.18,6.03-4.97,8.21-8.21,2.18,3.24,4.97,6.03,8.21,8.21-3.24,2.18-6.03,4.97-8.21,8.21Zm24.95,36.58c-9.37,0-17.23-6.54-19.3-15.28,12.04-2.3,21.55-11.81,23.86-23.86,8.75,2.07,15.28,9.92,15.28,19.3,0,10.94-8.9,19.85-19.85,19.85Z"/>
  </g>
</svg>