<?xml version="1.0" encoding="UTF-8"?>
<svg id="Symbols" xmlns="http://www.w3.org/2000/svg" viewBox="0 0 150 150">
  <path d="m75.34,129.6l-46.32-52.84,5.59-4.78,39.98,45.62,20.39-30.01c4.15-6.11,8.37-12.67,10.36-19.79,3.97-14.18-2.67-26.33-2.74-26.45-5.77-10.67-18.22-14.45-27.95-14.45-14.65,0-26.72,12.25-26.92,27.32-.08,6.39,2.37,12.42,6.91,16.96,4.46,4.46,10.33,6.91,16.55,6.91h4.8c12.96-.65,17.56-12.37,17.56-22.23,0-15.65-16.77-16.47-20.13-16.47-.74,0-1.46.08-2.15.24-7.04,1.62-10.32,5.62-10.32,12.58,0,5.4,3.72,9.56,9.26,10.37,1.74.25,3.45.14,5.09-.32l2.09-.79c2.2-1.7,3.33-4.48,2.98-7.35-.14-1.18-.57-2.33-1.22-3.34l6.21-3.95c1.26,1.93,2.07,4.14,2.34,6.41.7,5.7-1.76,11.23-6.41,14.45l-.37.26-3.38,1.27c-2.72.81-5.55,1-8.41.59-9.17-1.33-15.57-8.57-15.57-17.59,0-10.31,5.69-17.31,16.03-19.69,1.24-.29,2.53-.43,3.84-.43,7.11.01,13.66,1.91,18.45,5.33,5.93,4.24,9.06,10.62,9.06,18.43,0,16.97-9.92,28.83-24.68,29.52h-.17s-4.89,0-4.89,0c-8.21,0-15.95-3.23-21.81-9.08-5.94-5.94-9.15-13.82-9.04-22.18.25-19.04,15.64-34.52,34.31-34.52,11.87,0,27.15,4.8,34.44,18.26.3.53,8.18,14.73,3.37,31.89-2.29,8.18-6.86,15.31-11.35,21.91l-25.78,37.95Z"/>
</svg>