<?xml version="1.0" encoding="UTF-8"?>
<svg id="Symbols" xmlns="http://www.w3.org/2000/svg" viewBox="0 0 150 150">
  <path d="m109.47,75.81l14.7-14.75c3.76-3.77,5.83-8.78,5.83-14.12s-2.06-10.35-5.81-14.13l-5.78-5.82c-7.74-7.79-20.34-7.81-28.09-.02l-14.76,14.81-15.89-15.95c-7.75-7.78-20.36-7.77-28.09.02l-5.78,5.82c-3.75,3.78-5.81,8.79-5.81,14.13s2.08,10.35,5.83,14.12l15.84,15.9-14.2,14.26c-7.75,7.78-7.76,20.45-.02,28.25l5.78,5.82c3.75,3.78,8.74,5.86,14.04,5.86h.02c5.3,0,10.28-2.07,14.03-5.84l14.26-14.31,13.12,13.17c3.87,3.89,8.95,5.83,14.03,5.83,5.09,0,10.19-1.95,14.06-5.85l5.78-5.82c7.74-7.79,7.73-20.47-.02-28.25l-13.06-13.11Zm-55.05,12.81l8.38,8.41-10.82,10.87c-2.31,2.32-6.07,2.32-8.37,0-2.31-2.32-2.3-6.1,0-8.42l10.81-10.85Zm0-25.62l-12.44-12.49c-2.31-2.32-2.31-6.1,0-8.42,1.12-1.13,2.6-1.75,4.19-1.75h0c1.58,0,3.06.62,4.18,1.74l12.46,12.5-8.38,8.41Zm21.14,4.4l8.38,8.41-8.38,8.41-8.38-8.41,8.38-8.41Zm21.14-4.4l-8.38-8.41,11.32-11.36c1.12-1.12,2.6-1.74,4.18-1.74h0c1.58,0,3.07.62,4.19,1.75,2.31,2.32,2.3,6.1,0,8.42l-11.3,11.35Zm0,25.62l9.67,9.71c1.12,1.12,1.74,2.62,1.74,4.21,0,1.59-.61,3.09-1.73,4.21-2.31,2.32-6.06,2.33-8.37,0l-9.68-9.72,8.38-8.41Zm-1.12-56.34c2.34-2.35,5.45-3.65,8.76-3.65h.01c3.31,0,6.43,1.3,8.77,3.66l5.78,5.82c2.34,2.36,3.63,5.49,3.63,8.82,0,3.33-1.3,6.46-3.64,8.82l-35.85,35.98-2.2-2.21,32.44-32.56c2.53-2.54,3.92-5.92,3.93-9.51,0-3.59-1.39-6.97-3.91-9.52-2.53-2.54-5.88-3.95-9.46-3.95h-.01c-3.57,0-6.93,1.4-9.45,3.93l-11.33,11.37-2.2-2.21,14.75-14.8ZM31.1,54.61c-2.34-2.35-3.64-5.48-3.64-8.82,0-3.33,1.28-6.47,3.63-8.82l5.78-5.82c4.83-4.87,12.7-4.87,17.54-.02l37.03,37.17-2.2,2.21-11.06-11.1-22.55-22.64c-5.22-5.24-13.71-5.23-18.92.02-5.21,5.25-5.21,13.79.02,19.03l12.43,12.48-2.2,2.21-15.85-15.9Zm24.94,64.24c-2.34,2.35-5.45,3.65-8.76,3.65h-.01c-3.31,0-6.43-1.3-8.77-3.66l-5.78-5.82c-4.83-4.87-4.83-12.78.02-17.64l35.35-35.49,2.2,2.21-31.94,32.06c-5.22,5.24-5.23,13.78-.02,19.03,2.61,2.63,6.04,3.94,9.47,3.94,3.42,0,6.85-1.31,9.45-3.93l10.83-10.87,2.2,2.21-14.25,14.31Zm61.24-6.98l-5.78,5.82c-2.34,2.36-5.45,3.66-8.77,3.66h-.01c-3.31,0-6.42-1.29-8.76-3.65l-34.25-34.38,2.2-2.21,30.84,30.95c2.61,2.62,6.03,3.93,9.45,3.93s6.86-1.31,9.47-3.94c2.52-2.54,3.91-5.92,3.91-9.52s-1.4-6.97-3.93-9.51l-9.66-9.7,2.2-2.21,13.07,13.12c4.84,4.86,4.85,12.77.02,17.64Z"/>
</svg>