<svg id="Symbols" xmlns="http://www.w3.org/2000/svg" viewBox="0 0 150 150"><title>Kuronti ne Akwamu-bold</title><path id="Bold" d="M48.38,36H35.88v78h78V36Zm57.5,46.62h-3.5V79h3.5Zm-11.5,0H90.62V79h3.76Zm-11.76,0H78.88V79h3.74Zm-3.74,8h3.74v3.76H78.88Zm0,11.76h3.74V106H78.88Zm11.74,0h3.76V106H90.62Zm0-8V90.62h3.76v3.76Zm11.76-3.76h3.5v3.76h-3.5ZM105.88,71h-27V44h27ZM55.62,44h3.76v3.62H55.62ZM70.88,59.38h-3.5V55.62h3.5Zm0-11.76h-3.5V44h3.5Zm-11.5,8v3.76H55.62V55.62ZM47.62,59.38H43.88V55.62h3.74Zm-3.74,8h3.74V71H43.88Zm11.74,0h3.76V71H55.62Zm11.76,0h3.5V71h-3.5ZM47.44,44h.18v3.62H43.88V44ZM43.88,79h27v27h-27Zm58.5,27v-3.62h3.5V106Z"/></svg>