<?xml version="1.0" encoding="UTF-8"?>
<svg id="Symbols" xmlns="http://www.w3.org/2000/svg" viewBox="0 0 150 150">
  <path d="m108.71,76.93c-6.33-.14-11.41,1.61-15.05,5.18-5.12,5.01-5.28,11.48-5.26,12.72.09,5.96,2.66,10.14,7.84,12.78,6.1,3.11,13.32,2.17,17.96-2.35,2.34-2.28,3.11-5.91,3.07-8.32-.06-3.17-1.3-5.83-3.48-7.49-2.25-1.71-5.26-2.23-8.49-1.45-5.74,1.37-7.03,7.27-6.91,10.19l7.45-.3s.04-2.48,1.21-2.76c.95-.22,1.78-.18,2.18.13.35.27.56.93.58,1.81.02,1.07-.4,2.51-.86,2.96-2.33,2.27-6.06,2.69-9.29,1.05-2.37-1.21-3.76-2.64-3.81-6.37-.02-1.5.59-4.98,3.06-7.4,2.16-2.11,5.39-3.14,9.64-3.05,7.67.16,10.79,6.99,11.14,12.79.27,4.57-1.14,8.77-3.86,11.53-2.84,2.87-7.03,4.23-12.57,4.04-2.4-.02-9.13-1.58-13.49-6.06-3-3.08-4.44-7.08-4.29-11.88.33-10.2,4.17-23.74,33.5-23.19,2.76.05,5.38-.97,7.35-2.86,1.88-1.8,2.97-4.27,2.99-6.77.02-2.47-.97-4.83-2.78-6.64-1.98-1.97-4.79-3.11-7.72-3.13l-27.51-.12c-.51,0-.99-.18-1.29-.48-.16-.16-.24-.33-.24-.49,0-.46.69-.99,1.57-.99h.01l27.26.15h.06c5.54,0,10.07-4.13,10.12-9.23.02-2.53-.96-4.92-2.76-6.72-1.81-1.81-4.27-2.82-6.94-2.84H52.9c-2.78-.92-5.33-1.34-7.11-1.36-9.49-.35-15.09,3.17-18.1,6.19-4.21,4.21-6.41,10.43-6.04,17.07.64,11.57,8.34,19.5,19.17,19.72,6.44.12,11.42-1.49,14.83-4.82,3.2-3.12,4.79-7.48,4.73-12.94-.07-5.96-2.61-10.15-7.79-12.81-6.09-3.14-13.31-2.22-17.97,2.28-2.35,2.27-3.14,5.89-3.1,8.31.05,3.17,1.27,5.84,3.45,7.51,2.24,1.72,5.25,2.25,8.49,1.49,5.75-1.35,7.06-7.24,6.95-10.17l-7.45.23s-.04,2.51-1.23,2.79c-.95.22-1.78.17-2.18-.14-.35-.27-.56-.93-.57-1.81-.02-1.08.41-2.51.87-2.96,2.34-2.26,6.08-2.67,9.29-1.01,2.37,1.22,3.74,2.65,3.78,6.38.04,3.4-.81,5.97-2.52,7.64-1.93,1.88-5.1,2.78-9.43,2.7-8.24-.17-11.54-6.71-11.88-12.78-.25-4.57,1.17-8.77,3.91-11.51,2.85-2.86,7.05-4.2,12.59-3.99,2.4.03,9.12,1.62,13.47,6.12,2.99,3.09,4.41,7.1,4.24,11.89-.38,10.2-4.28,23.7-33.6,23.06-2.77-.06-5.38.95-7.36,2.83-1.89,1.79-2.99,4.26-3.02,6.76-.03,2.47.94,4.83,2.75,6.65,1.97,1.98,4.78,3.13,7.71,3.16l27.51.23c.51,0,.99.18,1.29.48.16.16.24.33.24.49,0,.46-.69.98-1.57.98,0,0-.01,0-.02,0l-27.26-.26s-.07,0-.1,0c-5.52,0-10.05,4.1-10.12,9.19-.03,2.36.9,4.62,2.63,6.36,1.88,1.89,4.55,3,7.37,3.03l65.88.19c2.92.99,5.61,1.43,7.46,1.45.4.01.79.02,1.18.02,8.79,0,14.02-3.38,16.9-6.28,4.19-4.23,6.37-10.46,5.97-17.09-.69-11.57-8.1-19.49-18.43-19.71ZM27.72,110.18c-.23-.24-.51-.63-.51-1.14.01-1.06,1.23-1.97,2.69-1.94l27.26.26s.06,0,.09,0c4.92,0,8.96-3.68,9.02-8.23.03-2.13-.81-4.16-2.37-5.73-1.68-1.69-4.07-2.67-6.55-2.69l-27.51-.23c-.96,0-1.85-.35-2.44-.95-.29-.29-.63-.77-.62-1.41,0-.55.28-1.12.74-1.57.31-.3.99-.8,2.02-.77.69.01,1.35.02,2.02.02,31.41,0,38.69-16.31,39.2-30.16.25-6.69-1.77-12.38-6-16.91h54.31c.83,0,1.36.35,1.65.65.4.4.62.94.62,1.5,0,1.06-1.26,1.93-2.68,1.95l-27.26-.15h-.05c-4.94,0-8.98,3.7-9.03,8.27-.02,2.13.83,4.16,2.39,5.72,1.68,1.68,4.08,2.65,6.56,2.66l27.51.12c.96,0,1.85.35,2.45.94.29.29.64.77.63,1.41,0,.55-.27,1.12-.74,1.57-.31.3-.98.8-2.02.78-33.11-.58-40.62,16.16-41.09,30.3-.22,6.6,1.77,12.21,5.89,16.69l-54.11-.16c-.83,0-1.59-.3-2.09-.81Z"/>
</svg>