<?xml version="1.0" encoding="UTF-8"?>
<svg id="Symbols" xmlns="http://www.w3.org/2000/svg" viewBox="0 0 150 150">
  <g>
    <g>
      <polygon points="75.52 20.05 75.52 47.55 48.02 47.55 75.52 20.05"/>
      <polygon points="20.53 20.05 48.02 20.05 48.02 47.55 20.53 20.05"/>
      <polygon points="75.52 75.05 48.02 75.05 48.02 47.55 75.52 75.05"/>
      <polygon points="20.52 75.05 20.53 47.55 48.02 47.55 20.52 75.05"/>
    </g>
    <g>
      <polygon points="75.53 20.05 103.03 20.05 103.03 47.55 75.53 20.05"/>
      <polygon points="75.53 75.05 75.53 47.55 103.03 47.55 75.53 75.05"/>
      <polygon points="130.53 20.05 130.53 47.55 103.03 47.55 130.53 20.05"/>
      <polygon points="130.52 75.05 103.02 75.05 103.03 47.55 130.52 75.05"/>
    </g>
  </g>
  <g>
    <g>
      <polygon points="75.52 75.04 75.52 102.54 48.02 102.54 75.52 75.04"/>
      <polygon points="20.53 75.04 48.02 75.04 48.02 102.54 20.53 75.04"/>
      <polygon points="75.52 130.04 48.02 130.04 48.02 102.54 75.52 130.04"/>
      <polygon points="20.52 130.04 20.53 102.54 48.02 102.54 20.52 130.04"/>
    </g>
    <g>
      <polygon points="75.53 75.04 103.03 75.04 103.03 102.54 75.53 75.04"/>
      <polygon points="75.53 130.04 75.53 102.54 103.03 102.54 75.53 130.04"/>
      <polygon points="130.53 75.04 130.53 102.54 103.03 102.54 130.53 75.04"/>
      <polygon points="130.52 130.04 103.02 130.04 103.03 102.54 130.52 130.04"/>
    </g>
  </g>
</svg>