<svg id="Symbols" xmlns="http://www.w3.org/2000/svg" viewBox="0 0 150 150"><title>Mako-bold</title><g id="Bold"><path d="M75,101a26,26,0,1,1,26-26A26,26,0,0,1,75,101Zm0-44A18,18,0,1,0,93,75,18,18,0,0,0,75,57Z"/><circle cx="75" cy="75" r="6"/><path d="M81,32c0,3.31-6,15-6,15s-6-11.69-6-15a6,6,0,0,1,12,0Z"/><path d="M65.93,32.54c1.13,3.11-.51,16.15-.51,16.15s-9.63-8.93-10.77-12a6,6,0,0,1,11.28-4.11Z"/><path d="M52,38.2c2.13,2.54,5,15.35,5,15.35s-12.11-5.09-14.24-7.63A6,6,0,0,1,52,38.2Z"/><path d="M40.76,48.3c2.87,1.66,10,12.7,10,12.7s-13.12-.65-16-2.3a6,6,0,0,1,6-10.4Z"/><path d="M33.7,61.62c3.26.58,13.73,8.52,13.73,8.52S34.87,74,31.61,73.44A6,6,0,1,1,33.7,61.62Z"/><path d="M31.61,76.56c3.26-.58,15.82,3.3,15.82,3.3S37,87.8,33.7,88.38a6,6,0,1,1-2.09-11.82Z"/><path d="M34.76,91.3c2.87-1.65,16-2.3,16-2.3s-7.12,11-10,12.7a6,6,0,0,1-6-10.4Z"/><path d="M42.76,104.08C44.89,101.54,57,96.45,57,96.45s-2.91,12.81-5,15.35a6,6,0,1,1-9.2-7.72Z"/><path d="M54.65,113.35c1.14-3.11,10.77-12,10.77-12s1.64,13,.51,16.15a6,6,0,0,1-11.28-4.11Z"/><path d="M69,118c0-3.31,6-15,6-15s6,11.69,6,15a6,6,0,0,1-12,0Z"/><path d="M84.07,117.46c-1.13-3.11.51-16.15.51-16.15s9.63,8.93,10.77,12a6,6,0,0,1-11.28,4.11Z"/><path d="M98,111.8c-2.13-2.54-5-15.35-5-15.35s12.11,5.09,14.24,7.63A6,6,0,0,1,98,111.8Z"/><path d="M109.24,101.7c-2.87-1.66-10-12.7-10-12.7s13.12.65,16,2.3a6,6,0,0,1-6,10.4Z"/><path d="M116.3,88.38c-3.26-.58-13.73-8.52-13.73-8.52s12.56-3.88,15.82-3.3a6,6,0,1,1-2.09,11.82Z"/><path d="M118.39,73.44c-3.26.58-15.82-3.3-15.82-3.3S113,62.2,116.3,61.62a6,6,0,1,1,2.09,11.82Z"/><path d="M115.24,58.7c-2.87,1.65-16,2.3-16,2.3s7.12-11,10-12.7a6,6,0,0,1,6,10.4Z"/><path d="M107.24,45.92C105.11,48.46,93,53.55,93,53.55s2.91-12.81,5-15.35a6,6,0,0,1,9.2,7.72Z"/><path d="M95.35,36.65c-1.14,3.11-10.77,12-10.77,12s-1.64-13-.51-16.15a6,6,0,0,1,11.28,4.11Z"/></g></svg>