<?xml version="1.0" encoding="UTF-8"?>
<svg id="Symbols" xmlns="http://www.w3.org/2000/svg" viewBox="0 0 150 150">
  <path d="m108.27,75c7.59-5.03,12.73-14.63,12.73-25.63,0-16.2-11.14-29.37-24.84-29.37-8.94,0-16.78,5.61-21.16,14.01-4.38-8.4-12.22-14.01-21.16-14.01-13.7,0-24.84,13.18-24.84,29.37,0,11,5.14,20.6,12.73,25.63-7.59,5.03-12.73,14.63-12.73,25.63,0,16.2,11.14,29.37,24.84,29.37,8.94,0,16.78-5.61,21.16-14.01,4.38,8.4,12.22,14.01,21.16,14.01,13.7,0,24.84-13.18,24.84-29.37,0-11-5.14-20.6-12.73-25.63Zm-12.11-47.54c9.64,0,17.48,9.83,17.48,21.91,0,7.24-2.81,13.66-7.14,17.66.54-1.55.84-3.26.84-5.05,0-7.2-4.82-13.04-10.76-13.04s-10.76,5.84-10.76,13.04c0,2.21.46,4.29,1.26,6.11-5.03-3.85-8.4-10.8-8.4-18.72,0-12.08,7.84-21.91,17.48-21.91Zm-12.11,47.54c-3.7,2.46-6.82,6-9.05,10.27-2.22-4.27-5.34-7.81-9.05-10.27,3.7-2.46,6.82-6,9.05-10.27,2.22,4.27,5.34,7.81,9.05,10.27Zm-47.69-25.63c0-12.08,7.84-21.91,17.48-21.91s17.48,9.83,17.48,21.91c0,7.24-2.81,13.66-7.14,17.66.54-1.55.84-3.26.84-5.05,0-7.2-4.82-13.04-10.76-13.04s-10.76,5.84-10.76,13.04c0,2.21.46,4.29,1.26,6.11-5.03-3.85-8.4-10.8-8.4-18.72Zm27.82,68.91c.54-1.55.84-3.26.84-5.05,0-7.2-4.82-13.04-10.76-13.04s-10.76,5.84-10.76,13.04c0,2.21.46,4.29,1.26,6.11-5.03-3.85-8.4-10.8-8.4-18.72,0-11.9,7.61-21.61,17.05-21.9.14,0,.28.01.43.01s.28,0,.43-.01c9.44.29,17.05,10,17.05,21.9,0,7.24-2.81,13.66-7.14,17.66Zm42.32,0c.54-1.55.84-3.26.84-5.05,0-7.2-4.82-13.04-10.76-13.04s-10.76,5.84-10.76,13.04c0,2.21.46,4.29,1.26,6.11-5.03-3.85-8.4-10.8-8.4-18.72,0-11.9,7.61-21.61,17.05-21.9.14,0,.28.01.43.01s.28,0,.43-.01c9.44.29,17.05,10,17.05,21.9,0,7.24-2.81,13.66-7.14,17.66Z"/>
</svg>