<?xml version="1.0" encoding="UTF-8"?>
<svg id="Symbols" xmlns="http://www.w3.org/2000/svg" viewBox="0 0 150 150">
  <path d="m110.04,75.01c11.47-3.81,19.75-14.35,19.75-26.74,0-15.58-13.09-28.26-29.18-28.26-11.19,0-20.93,6.14-25.82,15.12-4.89-8.98-14.63-15.12-25.82-15.12-16.09,0-29.18,12.68-29.18,28.26,0,12.39,8.28,22.93,19.75,26.74-11.47,3.81-19.75,14.35-19.75,26.74,0,15.58,13.09,28.26,29.18,28.26,11.19,0,20.93-6.14,25.82-15.12,4.89,8.98,14.63,15.12,25.82,15.12,16.09,0,29.18-12.68,29.18-28.26,0-12.39-8.28-22.93-19.75-26.74Zm-13.15-47.22l-.02,14.21c-2.25,1.25-3.77,3.59-3.77,6.27,0,4,3.36,7.24,7.51,7.24s7.51-3.24,7.51-7.24c0-2.69-1.53-5.04-3.79-6.28l.02-14.2c10.2,1.7,17.99,10.23,17.99,20.48,0,11.46-9.74,20.79-21.72,20.79s-21.72-9.33-21.72-20.79c0-10.25,7.79-18.78,18-20.48Zm-5.71,47.22c-7.08,2.35-12.94,7.26-16.39,13.6-3.45-6.33-9.31-11.25-16.39-13.6,7.08-2.35,12.94-7.26,16.39-13.6,3.45,6.33,9.31,11.25,16.39,13.6Zm-63.93-26.74c0-10.25,7.79-18.78,18-20.48l-.02,14.21c-2.25,1.25-3.77,3.59-3.77,6.27,0,4,3.36,7.24,7.51,7.24s7.51-3.24,7.51-7.24c0-2.69-1.53-5.04-3.79-6.28l.02-14.2c10.2,1.7,17.99,10.23,17.99,20.48,0,11.46-9.74,20.79-21.72,20.79s-21.72-9.33-21.72-20.79Zm21.72,74.27c-11.98,0-21.72-9.33-21.72-20.79,0-10.25,7.79-18.78,18-20.48v14.21c-2.27,1.25-3.79,3.59-3.79,6.27,0,4,3.36,7.24,7.51,7.24s7.51-3.24,7.51-7.24c0-2.69-1.53-5.04-3.79-6.28v-14.2c10.22,1.7,18,10.23,18,20.48,0,11.46-9.74,20.79-21.72,20.79Zm51.64,0c-11.98,0-21.72-9.33-21.72-20.79,0-10.25,7.79-18.78,18-20.48v14.21c-2.27,1.25-3.79,3.59-3.79,6.27,0,4,3.36,7.24,7.51,7.24s7.51-3.24,7.51-7.24c0-2.69-1.53-5.04-3.79-6.28v-14.2c10.22,1.7,18,10.23,18,20.48,0,11.46-9.74,20.79-21.72,20.79Z"/>
</svg>