<?xml version="1.0" encoding="UTF-8"?>
<svg id="Symbols" xmlns="http://www.w3.org/2000/svg" viewBox="0 0 150 150">
  <path d="m109.26,63.08c0-3.05-2.65-5.52-5.91-5.52h-12.41l9.07-30.49c.49-1.63.13-3.36-.98-4.72-1.18-1.45-3.09-2.32-5.12-2.32h-39.3c-2.02,0-3.94.87-5.12,2.32-1.11,1.37-1.47,3.09-.98,4.72l4.04,13.57c-12.53,8.32-13.26,19.82-13.27,22.18,0,.09-.01.17-.01.26v23.42c0,3.05,2.65,5.52,5.91,5.52h12.55l-9.21,30.96c-.49,1.63-.13,3.36.98,4.72,1.18,1.45,3.09,2.32,5.12,2.32h39.3c2.02,0,3.94-.87,5.12-2.32,1.11-1.37,1.47-3.09.98-4.72l-4.04-13.58c12.82-8.52,13.28-20.39,13.26-22.34.02-.19.03-.37.03-.56v-23.42Zm-54.37-14.59l2.7,9.07h-9.22c.98-2.7,2.87-6.02,6.52-9.07Zm2.12,74.02l11.3-38h-21v-19.44h20.86l-11.17-37.53h34.52l-11.17,37.53h20.86v19.44h-21l11.3,38h-34.52Zm36.63-20.96l-2.83-9.52h9.51c-.92,2.77-2.82,6.3-6.67,9.52Z"/>
  <ellipse cx="74.94" cy="42.39" rx="7.08" ry="6.62"/>
  <path d="m74.94,101.32c-3.91,0-7.08,2.96-7.08,6.62s3.17,6.62,7.08,6.62,7.08-2.96,7.08-6.62-3.17-6.62-7.08-6.62Z"/>
  <path d="m93.37,74.86c0-2.57-8.4-4.65-18.76-4.65s-18.76,2.08-18.76,4.65,8.4,4.65,18.76,4.65,18.76-2.08,18.76-4.65Z"/>
</svg>