<svg id="Symbols" xmlns="http://www.w3.org/2000/svg" viewBox="0 0 150 150"><title>Mmere Dane-bold</title><g id="Bold"><circle cx="75" cy="43.74" r="4.5"/><circle cx="75" cy="106.26" r="4.5"/><path d="M103.37,114.6C113.94,104.87,120,90.43,120,75s-6.06-29.87-16.63-39.6a3.36,3.36,0,0,0-.43-.31L110,25H40l7.06,10.08a4.35,4.35,0,0,0-.43.32C36.06,45.14,30,59.57,30,75s6.06,29.85,16.63,39.6a3.43,3.43,0,0,0,.43.32L40,125h70l-7-10.08A4.23,4.23,0,0,0,103.37,114.6ZM75,33H94.64L86,45.41,75,61.05,64.06,45.41,55.37,33ZM38,75c0-13,5-25.12,13.67-33.34L57.5,50,72.2,71H48v8H72.2L57.5,100l-5.83,8.34C43,100.11,38,88,38,75Zm37,42H55.37l8.69-12.41L75,89l11,15.64L94.64,117Zm17.5-17L77.8,79H102V71H77.8L92.5,50l5.84-8.33C107,49.88,112,62,112,75s-5,25.12-13.66,33.34Z"/></g></svg>