<?xml version="1.0" encoding="UTF-8"?>
<svg id="Symbols" xmlns="http://www.w3.org/2000/svg" viewBox="0 0 150 150">
  <path d="m130.05,48.19v-8h-9.96v-3.46h9.95l-.02-16.68h-8s.01,8.68.01,8.68h-1.93v-8.48h-8v8.48h-2.27v-8.48h-8v8.48h-2.27v-8.48h-8v8.48h-2.27v-8.48h-8v8.48h-2.27v-8.48h-8v8.48h-2.27v-8.48h-8v8.48h-2.27v-8.48h-8v8.48h-2.27v-8.48h-8v8.48h-2.27v-8.48h-8v8.48h-.04s-1.94,0-1.94,0v-8.74h-8v16.74h9.94v3.46h-9.87v8h9.87v4.23h-9.87v8h9.87v4.23h-9.87v8h9.87v4.23h-9.87v8h9.87v4.23h-9.87v8h9.87v4.22h-9.87v8h9.87v4.01h-9.96l.1,16.67,8-.05-.05-8.62h1.91s.04,0,.04,0v8.39h8v-8.39h2.27v8.39h8v-8.39h2.27v8.39h8v-8.39h2.27v8.39h8v-8.39h2.27v8.39h8v-8.39h2.27v8.39h8v-8.39h2.27v8.39h8v-8.39h2.27v8.39h8v-8.39h2.27v8.39h8v-8.39h1.94v8.67h8v-16.67h-9.95v-4.01h9.96v-8h-9.96v-4.22h9.96v-8h-9.96v-4.23h9.96v-8h-9.96v-4.23h9.96v-8h-9.96v-4.23h9.96v-8h-9.96v-4.23h9.96Zm-60.62,26.84l-31.51,32.44V42.59l31.51,32.44Zm-26.05-38.3h63.25l-31.63,32.56-31.63-32.56Zm31.63,44.04l31.63,32.56h-63.25l31.62-32.56Zm5.58-5.74l31.51-32.44v64.88l-31.51-32.44Z"/>
</svg>