<?xml version="1.0" encoding="UTF-8"?>
<svg id="Symbols" xmlns="http://www.w3.org/2000/svg" viewBox="0 0 150 150">
  <path d="m19.91,19.37v110h110V19.37H19.91Zm33.42,90.53c7.34-7.42,12.84-16.14,15.92-25.2l2.44-7.2-7.17,2.52c-9.03,3.17-17.68,8.77-25.02,16.2-4.49,4.54-8.29,9.57-11.27,14.87V37.65c2.98,5.29,6.78,10.32,11.27,14.87,7.34,7.42,15.99,13.03,25.02,16.2l7.17,2.52-2.44-7.2c-3.07-9.06-8.58-17.78-15.92-25.2-4.35-4.4-9.17-8.16-14.25-11.15h71.66c-5.08,2.99-9.9,6.75-14.25,11.15-7.34,7.42-12.84,16.14-15.92,25.2l-2.44,7.2,7.17-2.52c9.03-3.17,17.68-8.77,25.02-16.2,4.49-4.54,8.29-9.57,11.27-14.87v73.43c-2.98-5.29-6.78-10.32-11.27-14.87-7.34-7.42-15.99-13.03-25.02-16.2l-7.17-2.52,2.44,7.19c3.07,9.06,8.57,17.77,15.92,25.2,4.35,4.4,9.17,8.16,14.25,11.15H39.08c5.08-2.99,9.9-6.75,14.25-11.15Zm-18.95,5.34c2.7-4.91,6.2-9.59,10.38-13.81,4.18-4.23,8.82-7.79,13.7-10.54-2.7,4.91-6.2,9.59-10.38,13.81-4.18,4.23-8.82,7.79-13.7,10.54Zm0-81.73c4.88,2.75,9.52,6.31,13.7,10.54,4.18,4.23,7.69,8.91,10.38,13.81-4.88-2.75-9.52-6.31-13.7-10.54-4.18-4.23-7.69-8.91-10.38-13.81Zm81.07,0c-2.7,4.91-6.2,9.59-10.38,13.81-4.18,4.23-8.82,7.79-13.7,10.54,2.7-4.91,6.2-9.59,10.38-13.81,4.18-4.23,8.82-7.79,13.7-10.54Zm0,81.73c-4.88-2.75-9.52-6.31-13.7-10.54-4.18-4.23-7.69-8.91-10.38-13.81,4.88,2.75,9.52,6.31,13.7,10.54,4.18,4.23,7.69,8.91,10.38,13.81Z"/>
</svg>