<?xml version="1.0" encoding="UTF-8"?>
<svg id="Symbols" xmlns="http://www.w3.org/2000/svg" viewBox="0 0 150 150">
  <path d="m74.1,61.6c-6.12,0-11.1,4.98-11.1,11.1s4.98,11.1,11.1,11.1,11.1-4.98,11.1-11.1-4.98-11.1-11.1-11.1Zm0,14.2c-1.71,0-3.1-1.39-3.1-3.1s1.39-3.1,3.1-3.1,3.1,1.39,3.1,3.1-1.39,3.1-3.1,3.1Z"/>
  <path d="m121.82,65.65c-1.45,0-2.79.44-3.91,1.18-2.65-19.62-18.28-35.17-37.94-37.7.77-1.14,1.23-2.51,1.23-3.99,0-3.92-3.18-7.1-7.1-7.1s-7.1,3.18-7.1,7.1c0,1.5.47,2.89,1.27,4.04-19.43,2.69-34.84,18.1-37.52,37.53-1.08-.66-2.35-1.05-3.71-1.05-3.92,0-7.1,3.18-7.1,7.1s3.18,7.1,7.1,7.1c1.36,0,2.63-.39,3.71-1.05,2.67,19.34,17.96,34.71,37.26,37.49-.64,1.06-1.01,2.3-1.01,3.63,0,3.92,3.18,7.1,7.1,7.1s7.1-3.18,7.1-7.1c0-1.31-.36-2.53-.98-3.58,19.54-2.63,35.04-18.13,37.69-37.67,1.12.74,2.47,1.18,3.91,1.18,3.92,0,7.1-3.18,7.1-7.1s-3.18-7.1-7.1-7.1Zm-27.03,7.69c-.34.17-.69.35-1.03.53-.27.14-.54.29-.8.44-.33.19-.66.38-.99.57-.26.15-.52.31-.78.47-.33.2-.65.41-.96.62-.25.17-.5.33-.75.5-.32.22-.63.45-.95.67-.24.17-.48.34-.71.52-.32.24-.63.49-.94.74-.22.17-.44.34-.65.52-.34.28-.66.57-.99.86-.18.16-.37.32-.55.48-.46.42-.92.86-1.37,1.3-.07.07-.13.13-.2.2-.44.45-.88.9-1.3,1.36-.16.18-.32.37-.48.55-.29.33-.58.65-.85.98-.18.22-.35.44-.53.66-.25.31-.5.62-.74.94-.18.24-.35.48-.52.71-.23.31-.45.62-.67.94-.17.25-.34.5-.5.76-.21.32-.41.64-.61.96-.16.26-.32.52-.47.79-.19.32-.38.65-.57.98-.15.27-.3.54-.44.81-.18.34-.35.67-.52,1.01-.14.27-.27.55-.4.83-.06.13-.13.25-.19.38-.06-.13-.13-.25-.19-.38-.13-.28-.27-.55-.4-.83-.17-.34-.34-.68-.52-1.01-.14-.27-.29-.54-.44-.81-.18-.33-.37-.66-.57-.98-.16-.26-.31-.53-.47-.79-.2-.32-.41-.64-.61-.96-.17-.25-.33-.51-.5-.76-.22-.32-.44-.63-.67-.94-.17-.24-.34-.48-.52-.71-.24-.32-.49-.63-.74-.94-.18-.22-.35-.44-.53-.66-.28-.33-.57-.66-.85-.98-.16-.18-.32-.37-.48-.55-.42-.46-.86-.92-1.3-1.36-.07-.07-.13-.13-.2-.2-.45-.44-.9-.88-1.37-1.3-.18-.16-.37-.32-.55-.48-.33-.29-.65-.58-.99-.86-.21-.18-.43-.35-.65-.52-.31-.25-.62-.5-.94-.74-.23-.18-.47-.35-.71-.52-.31-.23-.63-.45-.95-.67-.25-.17-.5-.33-.75-.5-.32-.21-.64-.42-.96-.62-.26-.16-.52-.32-.78-.47-.33-.19-.66-.39-.99-.57-.27-.15-.53-.29-.8-.44-.34-.18-.68-.35-1.03-.53-.27-.13-.54-.27-.81-.4-.13-.06-.26-.13-.39-.19.13-.06.26-.13.39-.19.27-.13.54-.26.81-.4.34-.17.69-.35,1.03-.53.27-.14.54-.29.8-.44.33-.19.66-.38.99-.57.26-.15.52-.31.78-.47.33-.2.65-.41.96-.62.25-.17.5-.33.75-.5.32-.22.63-.45.95-.67.24-.17.48-.34.71-.52.32-.24.63-.49.94-.74.22-.17.44-.34.65-.52.34-.28.66-.57.99-.86.18-.16.37-.32.55-.48.46-.42.92-.86,1.37-1.3.07-.07.13-.13.2-.2.44-.45.88-.9,1.3-1.36.16-.18.32-.37.48-.55.29-.33.58-.65.85-.98.18-.22.35-.44.53-.66.25-.31.5-.62.74-.94.18-.24.35-.48.52-.71.23-.31.45-.62.67-.94.17-.25.34-.5.5-.76.21-.32.41-.64.61-.96.16-.26.32-.52.47-.79.19-.32.38-.65.57-.98.15-.27.3-.54.44-.81.18-.34.35-.67.52-1.01.14-.27.27-.55.4-.83.06-.13.13-.25.19-.38.06.13.13.25.19.38.13.28.27.55.4.83.17.34.34.68.52,1.01.14.27.29.54.44.81.18.33.37.66.57.98.16.26.31.53.47.79.2.32.41.64.61.96.17.25.33.51.5.76.22.32.44.63.67.94.17.24.34.48.52.71.24.32.49.63.74.94.18.22.35.44.53.66.28.33.57.66.85.98.16.18.32.37.48.55.42.46.86.92,1.3,1.36.07.07.13.13.2.2.45.44.9.88,1.37,1.3.18.16.37.32.55.48.33.29.65.58.99.86.21.18.43.35.65.52.31.25.62.5.94.74.23.18.47.35.71.52.31.23.63.45.95.67.25.17.5.33.75.5.32.21.64.42.96.62.26.16.52.32.78.47.33.19.66.39.99.57.27.15.53.29.8.44.34.18.68.35,1.03.53.27.13.54.27.81.4.13.06.26.13.39.19-.13.06-.26.13-.39.19-.27.13-.54.26-.81.4Zm15.28-4.85c-.27-.03-.55-.07-.82-.1-.18-.03-.36-.05-.54-.08-.5-.08-1-.17-1.5-.27-.05-.01-.1-.02-.16-.03-.55-.11-1.1-.24-1.64-.38-.14-.04-.29-.08-.43-.12-.39-.11-.79-.22-1.17-.33-.18-.06-.37-.12-.55-.18-.35-.11-.69-.23-1.04-.35-.19-.07-.38-.14-.56-.21-.34-.13-.67-.26-1.01-.4-.18-.07-.36-.15-.53-.22-.36-.15-.71-.32-1.06-.48-.14-.07-.29-.13-.43-.2-.99-.48-1.95-1-2.89-1.57-.12-.07-.24-.15-.36-.22-.34-.21-.68-.43-1.02-.65-.15-.1-.3-.21-.45-.31-.3-.21-.6-.42-.89-.64-.15-.11-.3-.23-.45-.34-.29-.22-.58-.45-.86-.68-.14-.11-.28-.23-.42-.34-.31-.26-.61-.52-.91-.79-.11-.09-.21-.19-.32-.28-.81-.74-1.58-1.51-2.31-2.31-.09-.1-.19-.21-.28-.32-.27-.3-.53-.6-.79-.91-.11-.14-.23-.28-.34-.42-.23-.28-.46-.57-.68-.86-.11-.15-.23-.3-.34-.45-.22-.29-.43-.59-.64-.89-.1-.15-.21-.3-.31-.45-.22-.33-.44-.67-.65-1.01-.08-.12-.15-.24-.23-.36-.57-.93-1.09-1.9-1.57-2.88-.07-.15-.14-.29-.21-.44-.16-.35-.32-.7-.47-1.05-.08-.18-.15-.36-.23-.55-.13-.33-.27-.66-.39-.99-.07-.19-.14-.39-.21-.58-.12-.33-.23-.67-.34-1.01-.06-.19-.13-.38-.18-.57-.11-.37-.22-.75-.32-1.13-.04-.16-.09-.32-.13-.48-.14-.54-.26-1.08-.38-1.62-.02-.08-.03-.16-.04-.24-.09-.47-.18-.94-.25-1.41-.03-.2-.05-.39-.08-.59-.04-.26-.07-.52-.1-.78,16.45,1.95,29.54,15.04,31.49,31.49Zm-40.01-31.49c-.03.26-.06.52-.1.78-.03.2-.05.39-.08.59-.07.47-.16.94-.25,1.41-.02.08-.03.16-.04.24-.11.55-.24,1.09-.38,1.62-.04.16-.09.32-.13.48-.1.38-.21.75-.32,1.13-.06.19-.12.38-.18.57-.11.34-.22.68-.34,1.01-.07.19-.14.39-.21.58-.13.33-.26.66-.39.99-.08.18-.15.37-.23.55-.15.35-.31.7-.47,1.05-.07.15-.14.3-.21.44-.48.99-1,1.95-1.57,2.88-.07.12-.15.24-.23.36-.21.34-.43.68-.65,1.01-.1.15-.21.3-.31.45-.21.3-.42.6-.64.89-.11.15-.23.3-.34.45-.22.29-.45.58-.68.86-.11.14-.22.28-.34.42-.26.31-.52.61-.79.91-.09.1-.18.21-.28.32-.74.81-1.51,1.58-2.31,2.31-.1.1-.21.19-.32.28-.3.27-.6.53-.91.79-.14.12-.28.23-.42.34-.28.23-.57.46-.86.68-.15.11-.3.23-.45.34-.29.22-.59.43-.89.64-.15.1-.3.21-.45.31-.33.22-.67.44-1.02.65-.12.07-.24.15-.36.22-.94.57-1.9,1.09-2.89,1.57-.14.07-.29.13-.43.2-.35.17-.7.33-1.06.48-.18.08-.36.15-.53.22-.33.14-.67.27-1.01.4-.19.07-.38.14-.56.21-.34.12-.69.24-1.04.35-.18.06-.36.12-.55.18-.39.12-.78.23-1.17.33-.14.04-.29.08-.43.12-.54.14-1.09.27-1.64.38-.05.01-.1.02-.16.03-.5.1-1,.19-1.5.27-.18.03-.36.05-.54.08-.27.04-.54.07-.82.1,1.95-16.45,15.04-29.54,31.49-31.49Zm-31.49,40.01c.27.03.55.07.82.1.18.03.36.05.54.08.5.08,1,.17,1.5.27.05.01.1.02.16.03.55.11,1.1.24,1.64.38.14.04.29.08.43.12.39.11.79.22,1.17.33.18.06.37.12.55.18.35.11.69.23,1.04.35.19.07.38.14.56.21.34.13.67.26,1.01.4.18.07.36.15.53.22.36.15.71.32,1.06.48.14.07.29.13.43.2.99.48,1.95,1,2.89,1.57.12.07.24.15.36.22.34.21.68.43,1.02.65.15.1.3.21.45.31.3.21.6.42.89.64.15.11.3.23.45.34.29.22.58.45.86.68.14.11.28.23.42.34.31.26.61.52.91.79.11.09.21.19.32.28.81.74,1.58,1.51,2.31,2.31.09.1.19.21.28.32.27.3.53.6.79.91.11.14.23.28.34.42.23.28.46.57.68.86.11.15.23.3.34.45.22.29.43.59.64.89.1.15.21.3.31.45.22.33.44.67.65,1.01.08.12.15.24.23.36.57.93,1.09,1.9,1.57,2.88.07.15.14.29.21.44.16.35.32.7.47,1.05.08.18.15.36.23.55.13.33.27.66.39.99.07.19.14.39.21.58.12.33.23.67.34,1.01.06.19.13.38.18.57.11.37.22.75.32,1.13.04.16.09.32.13.48.14.54.26,1.08.38,1.62.02.08.03.16.04.24.09.47.18.94.25,1.41.03.2.05.39.08.59.04.26.07.52.1.78-16.45-1.95-29.54-15.04-31.49-31.49Zm40.01,31.49c.03-.26.06-.52.1-.78.03-.2.05-.39.08-.59.07-.47.16-.94.25-1.41.02-.08.03-.16.04-.24.11-.55.24-1.09.38-1.62.04-.16.09-.32.13-.48.1-.38.21-.75.32-1.13.06-.19.12-.38.18-.57.11-.34.22-.68.34-1.01.07-.19.14-.39.21-.58.13-.33.26-.66.39-.99.08-.18.15-.37.23-.55.15-.35.31-.7.47-1.05.07-.15.14-.3.21-.44.48-.99,1-1.95,1.57-2.88.07-.12.15-.24.23-.36.21-.34.43-.68.65-1.01.1-.15.21-.3.31-.45.21-.3.42-.6.64-.89.11-.15.23-.3.34-.45.22-.29.45-.58.68-.86.11-.14.22-.28.34-.42.26-.31.52-.61.79-.91.09-.1.18-.21.28-.32.74-.81,1.51-1.58,2.31-2.31.1-.1.21-.19.32-.28.3-.27.6-.53.91-.79.14-.12.28-.23.42-.34.28-.23.57-.46.86-.68.15-.11.3-.23.45-.34.29-.22.59-.43.89-.64.15-.1.3-.21.45-.31.33-.22.67-.44,1.02-.65.12-.07.24-.15.36-.22.94-.57,1.9-1.09,2.89-1.57.14-.07.29-.13.43-.2.35-.17.7-.33,1.06-.48.18-.08.36-.15.53-.22.33-.14.67-.27,1.01-.4.19-.07.38-.14.56-.21.34-.12.69-.24,1.04-.35.18-.06.36-.12.55-.18.39-.12.78-.23,1.17-.33.14-.04.29-.08.43-.12.54-.14,1.09-.27,1.64-.38.05-.01.1-.02.16-.03.5-.1,1-.19,1.5-.27.18-.03.36-.05.54-.08.27-.04.54-.07.82-.1-1.95,16.45-15.04,29.54-31.49,31.49Z"/>
</svg>