<svg id="Symbols" xmlns="http://www.w3.org/2000/svg" viewBox="0 0 150 150"><title>Mpatapo-bold</title><g id="Bold"><path d="M40,66.5q-.8,0-1.56-.06A21.56,21.56,0,0,1,20,52.92,21.06,21.06,0,0,1,18.5,45a21.5,21.5,0,0,1,43,0,4,4,0,0,1-8,0,13.5,13.5,0,0,0-27,0,13.26,13.26,0,0,0,.95,5A13.55,13.55,0,0,0,39,58.46a13.22,13.22,0,0,0,2,0,4,4,0,1,1,.56,8Q40.79,66.5,40,66.5Z"/><path d="M40,55.5a9.09,9.09,0,0,1-1.24-.08A10.5,10.5,0,1,1,50.5,45a4,4,0,0,1-8,0,2.5,2.5,0,0,0-5,0,2.53,2.53,0,0,0,2.19,2.48,3.52,3.52,0,0,0,.65,0,4,4,0,1,1,.92,7.94A9.37,9.37,0,0,1,40,55.5Z"/><path d="M110,66.5q-.8,0-1.56-.06a4,4,0,0,1,.56-8,13.35,13.35,0,0,0,2,0A13.53,13.53,0,0,0,122.54,50a13.25,13.25,0,0,0,1-5A13.52,13.52,0,0,0,110,31.5a13.15,13.15,0,0,0-5,1A13.43,13.43,0,0,0,96.5,45a4,4,0,0,1-8,0A21.39,21.39,0,0,1,102,25a21.07,21.07,0,0,1,8-1.54A21.53,21.53,0,0,1,131.5,45,21.05,21.05,0,0,1,130,52.94a21.55,21.55,0,0,1-18.4,13.5C111.05,66.48,110.53,66.5,110,66.5Z"/><path d="M110,55.5a9.09,9.09,0,0,1-1.24-.08,4,4,0,0,1,.9-7.94,3.86,3.86,0,0,0,.68,0A2.5,2.5,0,1,0,107.5,45a4,4,0,0,1-8,0,10.5,10.5,0,1,1,11.78,10.42A9.87,9.87,0,0,1,110,55.5Z"/><path d="M40,126.5a21.5,21.5,0,1,1,0-43,4,4,0,0,1,0,8,13.5,13.5,0,0,0,0,27,13.24,13.24,0,0,0,5-1A13.44,13.44,0,0,0,53.5,105a4,4,0,0,1,8,0A21.5,21.5,0,0,1,40,126.5Z"/><path d="M40,115.5a10.5,10.5,0,0,1,0-21,4,4,0,0,1,0,8,2.5,2.5,0,1,0,2.5,2.5,4,4,0,0,1,8,0A10.51,10.51,0,0,1,40,115.5Z"/><path d="M110,126.5a21,21,0,0,1-8-1.56A21.36,21.36,0,0,1,88.5,105a4,4,0,0,1,8,0A13.4,13.4,0,0,0,105,117.52a13.05,13.05,0,0,0,5,1A13.52,13.52,0,0,0,123.5,105a13.24,13.24,0,0,0-1-5A13.42,13.42,0,0,0,110,91.5a4,4,0,0,1,0-8,21.5,21.5,0,0,1,0,43Z"/><path d="M110,115.5A10.51,10.51,0,0,1,99.5,105a4,4,0,0,1,8,0,2.5,2.5,0,1,0,2.5-2.5,4,4,0,0,1,0-8,10.5,10.5,0,0,1,0,21Z"/><path d="M46.5,109a4,4,0,0,1-4-4V98.5a4,4,0,0,1,8,0V105A4,4,0,0,1,46.5,109Z"/><path d="M46.5,91.5a4,4,0,0,1-4-4V45a4,4,0,0,1,8,0V87.5A4,4,0,0,1,46.5,91.5Z"/><path d="M57.5,109a4,4,0,0,1-4-4V98.5a4,4,0,0,1,8,0V105A4,4,0,0,1,57.5,109Z"/><path d="M57.5,91.5a4,4,0,0,1-4-4V45a4,4,0,0,1,8,0V87.5A4,4,0,0,1,57.5,91.5Z"/><path d="M92.5,109a4,4,0,0,1-4-4V98.5a4,4,0,0,1,8,0V105A4,4,0,0,1,92.5,109Z"/><path d="M92.5,91.5a4,4,0,0,1-4-4V45a4,4,0,0,1,8,0V87.5A4,4,0,0,1,92.5,91.5Z"/><path d="M103.5,91.5a4,4,0,0,1-4-4V45a4,4,0,0,1,8,0V87.5A4,4,0,0,1,103.5,91.5Z"/><path d="M103.5,109a4,4,0,0,1-4-4V98.5a4,4,0,0,1,8,0V105A4,4,0,0,1,103.5,109Z"/><path d="M46.5,55.45H39.21a4,4,0,1,1,0-8H46.5a4,4,0,0,1,0,8Z"/><path d="M92.5,55.45h-35a4,4,0,0,1,0-8h35a4,4,0,0,1,0,8Z"/><path d="M110.8,55.45h-7.3a4,4,0,0,1,0-8h7.3a4,4,0,0,1,0,8Z"/><path d="M46.5,66.45H38.72a4,4,0,0,1,0-8H46.5a4,4,0,0,1,0,8Z"/><path d="M111.28,66.45H103.5a4,4,0,0,1,0-8h7.78a4,4,0,0,1,0,8Z"/><path d="M92.5,66.45h-35a4,4,0,0,1,0-8h35a4,4,0,0,1,0,8Z"/><path d="M110,91.5H40a4,4,0,0,1,0-8h70a4,4,0,0,1,0,8Z"/><path d="M110,102.5H40a4,4,0,0,1,0-8h70a4,4,0,0,1,0,8Z"/></g></svg>