<svg id="Symbols" xmlns="http://www.w3.org/2000/svg" viewBox="0 0 150 150"><title>Mpuannum-bold</title><g id="Bold"><path d="M97,79a18.59,18.59,0,0,0-3.52.34A18.82,18.82,0,0,0,94,75a19,19,0,0,0-.31-3.31A19.12,19.12,0,1,0,78.31,56.31,19,19,0,0,0,75,56a18.59,18.59,0,0,0-3.52.34A18.82,18.82,0,0,0,72,52,19,19,0,1,0,53,71a18.59,18.59,0,0,0,3.52-.34,18.37,18.37,0,0,0,0,8.68A18.59,18.59,0,0,0,53,79,19,19,0,1,0,72,98a18.82,18.82,0,0,0-.52-4.34,18.39,18.39,0,0,0,7,0A18.82,18.82,0,0,0,78,98,19,19,0,1,0,97,79Zm0-37A11,11,0,1,1,86,53,11,11,0,0,1,97,42ZM42,52A11,11,0,1,1,53,63,11,11,0,0,1,42,52Zm11,57A11,11,0,1,1,64,98,11,11,0,0,1,53,109ZM64,75A11,11,0,1,1,75,86,11,11,0,0,1,64,75Zm33,34a11,11,0,1,1,11-11A11,11,0,0,1,97,109Z"/></g></svg>