<?xml version="1.0" encoding="UTF-8"?>
<svg id="Symbols" xmlns="http://www.w3.org/2000/svg" viewBox="0 0 150 150">
  <path d="m77.9,130h52.02v-52.06c.05-.96.08-1.93.08-2.9s-.03-1.94-.08-2.9V20.08h-52.02c-.96-.05-1.93-.08-2.91-.08s-1.94.03-2.91.08H20.08v52.05c-.05.96-.08,1.93-.08,2.91s.03,1.95.08,2.91v52.05h57.82Zm42.86-9.17h-15.28c6.04-4.04,11.24-9.24,15.28-15.29v15.29ZM29.24,72.44c.27-4.76,1.26-9.32,2.88-13.58l37.13,61.67c-21.73-2.73-38.77-20.73-40.01-42.9v-5.19Zm91.51,0v5.18c-1.24,22.1-18.18,40.06-39.81,42.88l36.96-61.57c1.6,4.24,2.58,8.78,2.85,13.51Zm-41.16,32.49l-.02-75.54c13.87,1.38,25.94,8.98,33.38,19.96l-33.36,55.57Zm-9.17-.22l-33.36-55.4c7.44-10.95,19.49-18.53,33.34-19.91l.02,75.32ZM120.76,29.25v7.13l-2.69,4.48c-3.57-4.49-7.81-8.42-12.59-11.61h15.28Zm-76.23,0c-4.76,3.19-9,7.1-12.56,11.58l-2.72-4.52v-7.06h15.28Zm-15.28,91.58v-15.29c4.04,6.05,9.24,11.25,15.28,15.29h-15.28Z"/>
</svg>