<?xml version="1.0" encoding="UTF-8"?>
<svg id="Symbols" xmlns="http://www.w3.org/2000/svg" viewBox="0 0 150 150">
  <path d="m21.12,50.03c.38-4.26,1.49-8.51,3.29-12.6,1.82-4.08,4.37-8.07,8.21-11.39,1.92-1.64,4.19-3.07,6.72-4.11,2.53-1.03,5.31-1.65,8.09-1.84,2.62-.19,5.37-.06,8.16.47,2.78.53,5.58,1.53,8.07,2.99,2.49,1.46,4.7,3.29,6.51,5.31,1.81,2.02,3.26,4.18,4.48,6.38,1.24,2.19,2.18,4.43,2.97,6.66.8,2.23,1.46,4.47,1.99,6.69,1.02,4.47,1.7,8.89,2.06,13.28.18,2.2.32,4.39.4,6.57.04,1.09.09,2.18.1,3.27l.02,3.19c.05,8.11.44,16.19,1.83,23.77.34,1.9.79,3.74,1.31,5.54.49,1.8,1.11,3.52,1.83,5.14,1.47,3.23,3.33,6.04,5.84,7.99,1.25.99,2.65,1.82,4.25,2.43,1.6.6,3.39,1.03,5.26,1.26,3.62.45,7.29.02,10.76-1.57,3.47-1.55,6.64-4.17,9.3-7.31,1.33-1.58,2.54-3.28,3.61-5.08,1.09-1.8,2-3.71,2.69-5.74.18,4.29-.91,8.65-2.8,12.74-1.9,4.09-4.78,8-8.93,11.01-4.11,3.02-9.58,4.79-14.97,4.9-2.64.09-5.35-.11-8.07-.75-2.71-.63-5.41-1.69-7.82-3.14-4.87-2.94-8.43-7.19-10.83-11.51-2.48-4.34-4.01-8.81-5.15-13.24-1.18-4.44-1.81-8.86-2.3-13.25-.5-4.39-.64-8.75-.72-13.09l-.1-6.14c-.05-2.02-.14-4.02-.27-6.01-.26-3.98-.62-7.92-1.34-11.7-1.28-7.53-3.84-14.74-8.66-18.46-1.22-.93-2.61-1.65-4.18-2.22-1.57-.56-3.35-.89-5.24-1.07-1.74-.17-3.47-.08-5.19.29-1.73.35-3.46.99-5.11,1.91-3.35,1.81-6.39,4.62-9.05,7.81-1.33,1.6-2.57,3.31-3.74,5.09-1.2,1.77-2.25,3.63-3.26,5.55Z"/>
  <path d="m101.07,20.23c4.2.5,8.37,1.74,12.36,3.7,3.98,1.97,7.86,4.7,11.04,8.73,1.57,2.02,2.92,4.38,3.89,7.01.95,2.63,1.49,5.5,1.61,8.37.12,2.7-.08,5.53-.67,8.38-.59,2.85-1.66,5.7-3.16,8.23-1.5,2.53-3.37,4.75-5.41,6.56-2.04,1.81-4.22,3.25-6.41,4.45-2.19,1.22-4.43,2.13-6.66,2.89-2.23.77-4.45,1.39-6.66,1.88-4.44.94-8.82,1.52-13.17,1.79-2.18.13-4.34.21-6.5.24-1.08.01-2.16.03-3.23.02l-3.15-.06c-8.01-.15-16,.05-23.53,1.29-1.89.3-3.72.72-5.5,1.21-1.79.46-3.51,1.05-5.13,1.75-3.23,1.43-6.05,3.27-8.04,5.81-1.01,1.26-1.87,2.68-2.51,4.31-.63,1.63-1.1,3.46-1.38,5.38-.54,3.71-.21,7.5,1.27,11.1,1.44,3.61,3.95,6.94,6.98,9.75,1.52,1.4,3.17,2.7,4.93,3.84,1.75,1.16,3.61,2.15,5.6,2.91-4.24.08-8.52-1.15-12.51-3.2-3.99-2.06-7.78-5.12-10.64-9.46-2.88-4.3-4.49-9.97-4.45-15.52-.02-2.72.25-5.49.95-8.28.7-2.77,1.81-5.52,3.31-7.97,3.03-4.93,7.32-8.49,11.65-10.85,4.35-2.44,8.81-3.91,13.22-4.96,4.41-1.1,8.8-1.64,13.14-2.03,4.35-.41,8.66-.44,12.95-.42l6.07.05c1.99,0,3.98-.04,5.95-.13,3.94-.17,7.84-.44,11.59-1.08,7.47-1.13,14.66-3.58,18.46-8.45.95-1.23,1.7-2.64,2.3-4.24.6-1.61.97-3.42,1.19-5.36.21-1.78.17-3.57-.15-5.35-.3-1.79-.89-3.58-1.75-5.31-1.7-3.49-4.4-6.68-7.48-9.51-1.55-1.41-3.2-2.73-4.93-3.97-1.72-1.27-3.52-2.41-5.4-3.49Z"/>
</svg>