<?xml version="1.0" encoding="UTF-8"?>
<svg id="Symbols" xmlns="http://www.w3.org/2000/svg" xmlns:xlink="http://www.w3.org/1999/xlink" viewBox="0 0 150 150">
  <defs>
    <style>
      .cls-1 {
        clip-path: url(#clippath);
      }

      .cls-2 {
        fill: none;
        stroke: #000;
        stroke-miterlimit: 10;
      }
    </style>
    <clipPath id="clippath">
      <rect class="cls-2" x="177.07" y="177.07" width="109.98" height="109.98"/>
    </clipPath>
  </defs>
  <path d="m124.96,100.58v-50.76c.14-11.11-2.26-19.28-7.16-24.27-5.42-5.53-12.11-5.55-14.57-5.53-15.02-.32-20.63,6.43-26.12,16.29-4.52-11.88-12.96-16.43-28.34-16.25-6.64.09-12.04,2.33-16.04,6.67-7.5,8.13-7.18,20.81-7.1,22.44l-.6,50.76c-.28,11.06,2.04,19.23,6.88,24.29,5.42,5.66,12.23,5.73,14.72,5.76.53.02,1.05.03,1.56.03,14.6,0,20.01-7.12,25.69-17.16,4.5,12.11,12.66,17.13,26.94,17.13.52,0,1.05,0,1.59-.02,6.53-.16,11.82-2.44,15.73-6.77,7.41-8.21,6.93-20.98,6.84-22.6Zm-50.44-16.3c-5.27,0-9.56-4.14-9.56-9.22s4.29-9.22,9.56-9.22,9.56,4.14,9.56,9.22-4.29,9.22-9.56,9.22Zm-27.74,38.25c-2.92-.03-6.65-.46-9.55-3.48-3.42-3.57-5.04-9.93-4.81-18.97l.61-50.93v-.14s0-.13,0-.13c0-.11-.54-10.95,5.15-17.09,2.6-2.81,6.1-4.21,10.69-4.27,13.34-.2,20.01,2.48,23.27,18.35l-8.4,16.31c-3.78,3.06-6.19,7.7-6.19,12.87,0,9.2,7.61,16.68,16.97,16.68.71,0,1.41-.06,2.09-.14l-8.89,17.04c-5.27,9.41-8.62,14.3-20.94,13.89Zm65.83-4.33c-2.52,2.79-5.93,4.19-10.4,4.31-12.68.31-19.86-2.61-23.35-19.18l10.02-19.19-.1-.06c1.71-2.6,2.71-5.69,2.71-9.02,0-9.2-7.61-16.68-16.97-16.68-.17,0-.33.02-.49.02l8.63-16.77c5.1-9.48,8.33-14.41,20.49-14.16,1.84,0,6.13,0,9.38,3.31,3.45,3.52,5.14,9.89,5.02,18.99v51.19c.02.11.68,11.03-4.94,17.23Z"/>
  <g>
    <g class="cls-1">
      <line class="cls-2" x1="252.55" y1="149.11" x2="123.82" y2="274.91"/>
    </g>
    <rect class="cls-2" x="177.07" y="177.07" width="109.98" height="109.98"/>
  </g>
</svg>