<?xml version="1.0" encoding="UTF-8"?>
<svg id="Symbols" xmlns="http://www.w3.org/2000/svg" xmlns:xlink="http://www.w3.org/1999/xlink" viewBox="0 0 150 150">
  <defs>
    <style>
      .cls-1 {
        clip-path: url(#clippath);
      }

      .cls-2 {
        fill: none;
        stroke: #000;
        stroke-miterlimit: 10;
      }
    </style>
    <clipPath id="clippath">
      <rect class="cls-2" x="177.07" y="-137.05" width="109.98" height="109.98"/>
    </clipPath>
  </defs>
  <g>
    <g class="cls-1">
      <g>
        <line class="cls-2" x1="105.75" y1="-95.54" x2="225.16" y2="39.14"/>
        <line class="cls-2" x1="113.66" y1="-102.55" x2="233.07" y2="32.13"/>
        <line class="cls-2" x1="121.57" y1="-109.56" x2="240.97" y2="25.12"/>
        <line class="cls-2" x1="129.48" y1="-116.57" x2="248.88" y2="18.11"/>
      </g>
    </g>
    <rect class="cls-2" x="177.07" y="-137.05" width="109.98" height="109.98"/>
  </g>
  <path d="m101.3,20.15h-1.82c-10.55,0-19.77,5.76-24.7,14.29-4.92-8.53-14.14-14.29-24.7-14.29h-1.82c-15.71,0-28.48,12.76-28.48,28.43v53.13c0,15.68,12.78,28.43,28.48,28.43h1.82c10.55,0,19.77-5.76,24.7-14.29,4.92,8.53,14.14,14.29,24.7,14.29h1.82c15.71,0,28.48-12.76,28.48-28.43v-53.13c0-15.68-12.78-28.43-28.48-28.43Zm-1.82,7.46h1.82c10.67,0,19.5,7.98,20.83,18.28h-43.49c1.33-10.3,10.16-18.28,20.83-18.28Zm5.26,69.96v-44.22h17.58v44.22h-17.58Zm-59.29-44.22v44.22h-18.19v-44.22h18.19Zm7.47,0h18.08v44.22h-18.08v-44.22Zm25.66,0h18.69v44.22h-18.69v-44.22Zm-30.3-25.74h1.82c10.67,0,19.5,7.98,20.83,18.28H27.43c1.33-10.3,10.16-18.28,20.83-18.28Zm1.82,95.08h-1.82c-10.46,0-19.15-7.67-20.75-17.67h43.32c-1.6,10-10.29,17.67-20.75,17.67Zm51.21,0h-1.82c-10.46,0-19.15-7.67-20.75-17.67h43.32c-1.6,10-10.29,17.67-20.75,17.67Z"/>
</svg>