<?xml version="1.0" encoding="UTF-8"?>
<svg id="Symbols" xmlns="http://www.w3.org/2000/svg" viewBox="0 0 150 150">
  <path d="m117.5,75.05c0-7.16-7.01-13.36-17.91-17.1,10.9-3.74,17.91-9.94,17.91-17.1,0-11.69-18.67-20.85-42.5-20.85s-42.5,9.16-42.5,20.85c0,7.16,7.01,13.36,17.91,17.1-10.9,3.74-17.91,9.94-17.91,17.1s6.95,13.31,17.78,17.05c-10.82,3.74-17.78,9.92-17.78,17.05,0,11.69,18.67,20.85,42.5,20.85s42.5-9.16,42.5-20.85c0-7.13-6.95-13.31-17.78-17.05,10.82-3.74,17.78-9.92,17.78-17.05ZM41.18,40.85c0-6.33,13.89-13.38,33.82-13.38s33.82,7.05,33.82,13.38-13.42,13.13-32.79,13.37c-.34,0-.68-.01-1.03-.01s-.69,0-1.03.01c-19.38-.24-32.79-7.15-32.79-13.37Zm67.64,68.31c0,6.33-13.89,13.38-33.82,13.38s-33.82-7.05-33.82-13.38c0-6,12.48-12.64,30.76-13.32,1.01.03,2.03.06,3.06.06s2.05-.02,3.06-.06c18.28.68,30.76,7.32,30.76,13.32Zm-30.76-20.79c-1.01-.03-2.03-.06-3.06-.06s-2.05.02-3.06.06c-18.28-.68-30.76-7.32-30.76-13.32s13.42-13.13,32.79-13.37c.34,0,.68.01,1.03.01s.69,0,1.03-.01c19.38.24,32.79,7.15,32.79,13.37s-12.49,12.64-30.76,13.32Z"/>
  <ellipse cx="60.66" cy="75" rx="5.05" ry="6.99"/>
  <ellipse cx="89.33" cy="75" rx="5.05" ry="6.99"/>
  <polygon points="84.28 44.21 92.52 40.29 92.55 40.28 83.07 35.85 75 32.02 63.89 37.2 57.39 40.28 57.42 40.29 57.39 40.31 61.36 42.21 75 48.56 92.49 40.31 84.28 44.21"/>
  <polygon points="57.88 110.11 57.92 110.12 57.88 110.14 61.85 112.04 75.49 118.4 92.98 110.14 84.78 114.04 93.01 110.12 93.05 110.11 83.56 105.68 75.49 101.85 64.38 107.03 57.88 110.11"/>
</svg>