<?xml version="1.0" encoding="UTF-8"?>
<svg id="Symbols" xmlns="http://www.w3.org/2000/svg" viewBox="0 0 150 150">
  <path d="m129.95,101.7c-.99-6.87-4.64-13.33-10.29-18.18-10.18-8.74-24.06-11.31-34.54-12.33,5.61-3.68,12.87-9.74,20.25-17.14,13.99-14.03,23.11-27.56,20.38-30.23-2.73-2.67-16.29,6.54-30.27,20.56-10.19,10.22-17.79,20.17-20.11,25.85-1.2-.34-2.53-.3-3.91,0l-6.77-.44c-8.94-1.32-21.69-4.01-29.93-11.97-3.75-3.62-6.02-8.18-6.39-12.84-.35-4.37,1.19-8.78,4.22-12.07,2.96-3.21,6.93-5.02,11.2-5.08,5.2-.1,10.95,3.17,13.92,7.89,1.55,2.47,2.94,6.31.73,10.6-1.06,2.07-3.3,3.81-5.7,4.43-1.29.33-3.18.49-4.89-.64-1.16-.76-1.75-1.69-1.75-2.75,0-1.37.92-2.87,2.44-3.9l-4.59-6.61c-3.75,2.55-5.98,6.5-5.95,10.56.03,3.72,1.98,7.13,5.36,9.37,3.29,2.17,7.35,2.79,11.44,1.73,4.68-1.21,8.74-4.4,10.87-8.54,3.02-5.86,2.63-12.6-1.07-18.47-4.46-7.09-12.85-11.75-20.91-11.67-6.53.09-12.6,2.82-17.08,7.69-4.54,4.93-6.83,11.53-6.31,18.11.53,6.6,3.66,12.97,8.81,17.95,8.52,8.22,20.35,11.66,29.89,13.41-5.28,3.85-11.23,9.03-17.06,14.88h0c-6.88,6.9-12.82,13.95-16.74,19.85-3.58,5.38-7.17,12.06-3.22,15.93,1.2,1.17,2.66,1.66,4.25,1.66,3.65,0,8.04-2.53,11.8-5.04,5.91-3.96,12.95-9.93,19.83-16.83,6.88-6.9,12.82-13.95,16.74-19.85,1.85-2.78,3.69-5.9,4.5-8.81l2.85.19c9.49.75,23.18,2.68,32.42,10.62,4.18,3.59,6.87,8.3,7.58,13.26.67,4.63-.61,9.4-3.51,13.09-2.6,3.31-6.26,5.37-10.32,5.81-5.03.53-10.71-2.03-14.16-6.38-1.67-2.11-4.19-6.44-2.27-11.68.86-2.34,2.97-4.43,5.38-5.33,1.22-.46,3.06-.8,4.88.18,1.35.73,2.08,1.72,2.19,2.95.13,1.53-.73,3.22-2.25,4.41l5.03,6.29c3.68-2.88,5.66-7.14,5.29-11.39-.34-3.91-2.67-7.3-6.4-9.31-3.53-1.9-7.65-2.12-11.61-.63-4.59,1.72-8.47,5.59-10.12,10.09-2.38,6.49-1.1,13.55,3.51,19.37,4.7,5.93,12.04,9.52,19.18,9.52.74,0,1.48-.04,2.21-.12,6.25-.67,11.88-3.81,15.84-8.86,4.24-5.4,6.11-12.37,5.14-19.15Zm-77.88.09c-10,10.03-18.03,15.82-22.48,18.2,2.35-4.44,8.08-12.45,18.09-22.48h0c10-10.03,18.02-15.82,22.47-18.2-2.35,4.44-8.08,12.45-18.09,22.48Z"/>
</svg>