<?xml version="1.0" encoding="UTF-8"?>
<svg id="Symbols" xmlns="http://www.w3.org/2000/svg" viewBox="0 0 150 150">
  <path d="m129.97,119.34c-.57-8.2-1.66-16.87-2.53-23.84l-.02-.15c-.06-.41-.68-4.11-3.93-7.76-4.9-5.49-19.29-8.49-22.13-9.04-4.4-.85-8.88-1.52-13.34-2.03.07-.53.11-1.07.11-1.62,0-.49-.03-.96-.08-1.44,4.45-.51,8.92-1.18,13.31-2.02,2.84-.55,17.24-3.54,22.13-9.04,3.25-3.65,3.87-7.35,3.93-7.75l.02-.16c.87-6.97,1.96-15.64,2.53-23.84.06-.86.03-1.72-.09-2.55-.73-5.22-5.32-8.67-10.66-8.04-.24.03-.41.06-.49.07-3.33.53-6.77,1.03-10.11,1.52-4.5.66-9.14,1.34-13.42,2.07l-.12.02c-.41.08-4.07.87-7.57,4.28-5.26,5.14-7.6,19.67-8.02,22.53-.56,3.83-.98,7.72-1.29,11.63-1.03-.26-2.11-.42-3.22-.42s-2.17.15-3.22.42c-.3-3.89-.73-7.79-1.29-11.63-.42-2.86-2.75-17.38-8.02-22.53-3.5-3.42-7.16-4.2-7.61-4.29l-.11-.02c-4.24-.73-8.89-1.41-13.38-2.07-3.33-.49-6.78-.99-10.11-1.52-.08-.01-.25-.04-.48-.07-5.36-.64-9.94,2.82-10.67,8.03-.12.83-.15,1.69-.09,2.55.57,8.19,1.66,16.87,2.53,23.84l.02.15c.06.41.68,4.11,3.93,7.76,4.9,5.49,19.29,8.49,22.13,9.04,4.39.84,8.86,1.52,13.32,2.02-.05.48-.09.95-.09,1.44,0,.55.04,1.09.11,1.62-4.46.51-8.94,1.18-13.34,2.03-2.84.55-17.24,3.54-22.13,9.04-3.25,3.65-3.87,7.35-3.93,7.77l-.02.14c-.87,6.97-1.96,15.65-2.53,23.84-.06.86-.03,1.72.09,2.55.67,4.8,4.61,8.11,9.42,8.11.42,0,.84-.02,1.26-.07.23-.03.39-.05.47-.07,3.32-.53,6.77-1.03,10.1-1.52,4.5-.66,9.15-1.34,13.43-2.07l.12-.02c.41-.08,4.07-.87,7.57-4.28,5.26-5.14,7.6-19.67,8.02-22.53.56-3.89,1-7.84,1.3-11.81,1.03.26,2.1.41,3.21.41s2.18-.15,3.21-.41c.3,3.95.73,7.9,1.3,11.81.42,2.86,2.75,17.38,8.02,22.53,3.5,3.42,7.16,4.2,7.48,4.26l.24.05c4.24.73,8.89,1.41,13.39,2.07,3.33.49,6.77.99,10.1,1.52.08.01.25.04.48.07.42.05.84.07,1.26.07,4.8,0,8.74-3.31,9.41-8.11.12-.83.14-1.69.08-2.55Zm-37.23-85.96c1.89-1.85,3.75-2.29,3.77-2.29,4.15-.71,8.54-1.36,13.2-2.04,3.37-.49,6.86-1,10.25-1.54l.14-.02c1.3-.15,2.24.5,2.4,1.66.04.32.06.65.03,1-.56,7.99-1.63,16.55-2.48,23.37-.01.08-.37,1.96-2.13,3.93-2.38,2.67-11.94,5.51-17.97,6.68-3.37.65-6.79,1.19-10.21,1.64l22.55-22.55-5.27-5.27-21.02,21.02c.25-2.45.54-4.89.89-7.31.89-6.08,3.29-15.76,5.85-18.27Zm-60.65,24.07c-1.76-1.98-2.12-3.86-2.12-3.88-.86-6.88-1.94-15.45-2.49-23.43-.02-.34-.01-.68.03-1,.15-1.05.93-1.68,2.06-1.68.12,0,.25,0,.39.02l.1.02c3.39.54,6.88,1.05,10.25,1.54,4.63.68,9,1.32,13.17,2.03.28.07,2.02.57,3.8,2.3,2.56,2.5,4.96,12.19,5.85,18.26.37,2.53.67,5.1.93,7.66l-22.28-22.28-5.27,5.27,23.41,23.41c-3.3-.43-6.59-.96-9.84-1.58-6.03-1.16-15.59-4-17.97-6.68Zm25.18,59.17c-1.89,1.85-3.75,2.29-3.77,2.3-4.15.71-8.55,1.36-13.21,2.04-3.37.49-6.85,1-10.3,1.55h-.08c-1.3.18-2.24-.49-2.4-1.65-.04-.32-.06-.65-.03-1,.56-7.99,1.63-16.55,2.49-23.43,0-.02.37-1.91,2.12-3.88,2.38-2.67,11.94-5.51,17.97-6.68,3.21-.62,6.47-1.14,9.74-1.57l-24,24,5.27,5.27,22.98-22.98c-.25,2.6-.56,5.2-.94,7.76-.89,6.08-3.29,15.76-5.85,18.26Zm12.07-41.71c0-1.2.39-2.33,1.08-3.29l.08-.1s.02-.03.03-.05c.11-.15.21-.3.34-.43h0c1.08-1.16,2.56-1.8,4.14-1.8,1.76,0,3.33.8,4.37,2.06.05.07.09.15.14.22l.21.25c.6.9.95,1.98.95,3.14,0,3.13-2.54,5.67-5.67,5.67s-5.67-2.54-5.67-5.67Zm53.17,45.95c-.16,1.17-1.11,1.82-2.44,1.66l-.11-.02c-3.38-.54-6.87-1.05-10.23-1.54-4.66-.68-9.06-1.32-13.15-2.03-.08-.02-1.94-.46-3.83-2.31-2.56-2.5-4.96-12.19-5.85-18.26-.41-2.84-.75-5.72-1.01-8.59l22.29,22.29,5.27-5.27-22.35-22.35c2.97.41,5.93.89,8.86,1.45,6.03,1.16,15.59,4,17.97,6.68,1.76,1.97,2.12,3.85,2.12,3.88.86,6.88,1.93,15.43,2.49,23.43.02.34.01.68-.03,1Z"/>
</svg>