<svg id="Symbols" xmlns="http://www.w3.org/2000/svg" viewBox="0 0 150 150"><title>Nteasee-bold</title><g id="Bold"><polygon points="97.62 32.39 89.62 32.39 89.62 63.39 80.12 63.39 80.12 50.09 83.05 50.09 79.55 43.09 76.05 36.09 72.55 43.09 69.05 50.09 72.12 50.09 72.12 63.39 62.62 63.39 62.62 32.39 54.62 32.39 54.62 71.39 74.19 71.39 71.22 77.39 74.19 83.39 54.62 83.39 54.62 122.39 62.62 122.39 62.62 91.39 72.12 91.39 72.12 104.69 69.05 104.69 72.55 111.69 76.05 118.69 79.55 111.69 83.05 104.69 80.12 104.69 80.12 91.39 89.62 91.39 89.62 122.39 97.62 122.39 97.62 83.39 78.05 83.39 81.02 77.39 78.05 71.39 97.62 71.39 97.62 32.39"/></g></svg>