<svg id="Symbols" xmlns="http://www.w3.org/2000/svg" viewBox="0 0 150 150"><title>Nyame Dua-bold</title><path id="Bold" d="M123.58,65.3a14,14,0,0,0-9.41-13.22l-.11,0a18.19,18.19,0,0,0-2-.5l-.32-.07a23.59,23.59,0,0,0-4.71-.47c-4.12,0-8.68,2.08-13,5,2.87-4.34,5-8.9,5-13a23.41,23.41,0,0,0-.47-4.7c0-.12,0-.23-.06-.32-.14-.66-.3-1.31-.51-2l0-.11A14,14,0,0,0,84.7,26.42c-3.8,0-7.28,2.42-9.7,4.67-2.42-2.25-5.9-4.67-9.7-4.67a14,14,0,0,0-13.22,9.41l0,.11c-.21.66-.37,1.31-.51,2,0,.09,0,.2-.06.32a23.41,23.41,0,0,0-.47,4.7c0,4.12,2.08,8.68,5,13-4.34-2.87-8.9-5-13-5a23.59,23.59,0,0,0-4.71.47l-.32.07a18.19,18.19,0,0,0-2,.5l-.11,0A14,14,0,0,0,26.42,65.3c0,3.79,2.42,7.28,4.67,9.7-2.25,2.42-4.67,5.91-4.67,9.7a14,14,0,0,0,9.41,13.22l.11,0a18.19,18.19,0,0,0,2,.5l.32.07a23.59,23.59,0,0,0,4.71.47c4.12,0,8.68-2.08,13-5-2.87,4.34-5,8.9-5,13a23.41,23.41,0,0,0,.47,4.7c0,.12,0,.23.06.32.14.66.3,1.31.51,2l0,.11a14,14,0,0,0,13.22,9.41c3.8,0,7.28-2.42,9.7-4.67,2.42,2.25,5.9,4.67,9.7,4.67a14,14,0,0,0,13.22-9.41l0-.11c.21-.66.37-1.31.51-2,0-.09,0-.2.06-.32a23.41,23.41,0,0,0,.47-4.7c0-4.12-2.08-8.68-5-13,4.34,2.87,8.9,5,13,5a23.59,23.59,0,0,0,4.71-.47l.32-.07a18.19,18.19,0,0,0,2-.5l.11,0a14,14,0,0,0,9.41-13.22c0-3.79-2.42-7.28-4.67-9.7C121.16,72.58,123.58,69.09,123.58,65.3ZM59.33,39.73l.09-.42v0c.07-.29.14-.59.24-.89a6,6,0,0,1,5.64-4,5.22,5.22,0,0,1,2.56,1.15,4.5,4.5,0,0,0,2.45,8.27c.14,0,.28,0,.43,0a4.47,4.47,0,0,0,8.52,0c.15,0,.29,0,.43,0a4.5,4.5,0,0,0,2.46-8.27,5.11,5.11,0,0,1,2.55-1.15,6,6,0,0,1,5.64,4c.1.3.17.6.24.89l.09.45a15.16,15.16,0,0,1,.33,3.2c0,5.92-9,16.15-16,22.65-7-6.5-16-16.73-16-22.65A15.16,15.16,0,0,1,59.33,39.73ZM39.73,90.67l-.42-.09h0c-.29-.07-.58-.14-.89-.24a6,6,0,0,1-4-5.64,5.22,5.22,0,0,1,1.15-2.56,4.5,4.5,0,0,0,8.27-2.45c0-.14,0-.28,0-.43a4.47,4.47,0,0,0,0-8.52c0-.15,0-.29,0-.43a4.5,4.5,0,0,0-8.27-2.45,5.22,5.22,0,0,1-1.15-2.56,6,6,0,0,1,4-5.64c.31-.1.6-.17.89-.24l.45-.09a15.16,15.16,0,0,1,3.2-.33c5.92,0,16.15,9,22.65,16-6.5,7-16.73,16-22.65,16A15.16,15.16,0,0,1,39.73,90.67Zm50.94,19.6-.09.42v0c-.07.29-.14.59-.24.89a6,6,0,0,1-5.64,4,5.22,5.22,0,0,1-2.56-1.15,4.5,4.5,0,0,0-2.45-8.27c-.14,0-.28,0-.43,0a4.47,4.47,0,0,0-8.52,0c-.15,0-.29,0-.43,0a4.5,4.5,0,0,0-2.46,8.27,5.11,5.11,0,0,1-2.55,1.15,6,6,0,0,1-5.64-4c-.1-.3-.17-.6-.24-.89l-.09-.45a15.16,15.16,0,0,1-.33-3.2c0-5.92,9-16.15,16-22.65,7,6.5,16,16.73,16,22.65A15.16,15.16,0,0,1,90.67,110.27Zm23.76-42.41a4.5,4.5,0,0,0-8.27,2.45c0,.14,0,.28,0,.43a4.47,4.47,0,0,0,0,8.52c0,.15,0,.29,0,.43a4.5,4.5,0,0,0,8.27,2.45,5.22,5.22,0,0,1,1.15,2.56,6,6,0,0,1-4,5.64c-.31.1-.6.17-.89.24l-.45.09a15.16,15.16,0,0,1-3.2.33c-5.92,0-16.15-9-22.65-16,6.5-7,16.73-16,22.65-16a15.16,15.16,0,0,1,3.2.33l.42.09h0c.29.07.58.14.89.24a6,6,0,0,1,4,5.64A5.22,5.22,0,0,1,114.43,67.86Z"/></svg>