<?xml version="1.0" encoding="UTF-8"?>
<svg id="Symbols" xmlns="http://www.w3.org/2000/svg" viewBox="0 0 150 150">
  <path d="m91.84,20c-6.06,0-11.78,2.04-16.86,5.66-5.08-3.62-10.8-5.66-16.85-5.66-21.06,0-38.12,24.62-38.12,55s17.07,55,38.12,55c6.05,0,11.77-2.04,16.85-5.66,5.09,3.62,10.81,5.66,16.86,5.66,21.08,0,38.16-24.62,38.16-55s-17.09-55-38.16-55Zm-22.79,64.26c4.94,11.09,2.92,24.32,2.83,24.88l-.02.15-.04.15c-2.13,8.98-7.87,12.17-12.54,12.17-13.56,0-23.79-20.04-23.79-46.61s10.23-46.61,23.79-46.61c4.67,0,10.41,3.2,12.54,12.17l.04.15.02.15c.09.56,2.11,13.79-2.83,24.88-.92,2.05-3.39,6.11-6.37,9.38,2.85,3.16,5.42,7.02,6.37,9.13Zm21.67,37.35c-4.67,0-10.41-3.2-12.54-12.17l-.04-.15-.02-.15c-.09-.56-2.11-13.79,2.83-24.88.94-2.12,3.52-5.97,6.37-9.13-2.98-3.27-5.45-7.33-6.37-9.38-4.94-11.09-2.92-24.32-2.83-24.88l.02-.15.04-.15c2.13-8.98,7.87-12.17,12.54-12.17,13.56,0,23.79,20.04,23.79,46.61s-10.23,46.61-23.79,46.61Z"/>
</svg>