<?xml version="1.0" encoding="UTF-8"?>
<svg id="Symbols" xmlns="http://www.w3.org/2000/svg" viewBox="0 0 150 150">
  <path d="m73.84,110.81c-2.25,0-3.73-.94-4.45-1.55-2.49-2.11-3.15-5.8-1.77-9.85.94-2.78,4.03-5.59,9.41-10.32.44-.39.95-.83,1.48-1.3-6.65,3.75-13.2,6.87-16.37,1.45-2.72-4.64,1.38-9.22,7.33-14.27-2.09.78-4.07,1.09-5.92.6-1.73-.46-3.13-1.57-4.04-3.2-3.57-6.39,3.91-11.98,11.13-17.38,2.57-1.92,6.95-5.19,8.74-7.35-.41.24-.83.51-1.16.71-2.22,1.4-4.74,2.99-7.59,2.1-1.06-.33-2.5-1.14-3.51-3.1-.33.1-.84.38-1.26.93-.64.85-.76,1.91-.35,3.17l1.05,3.22-3.47,2.02c-5.99,3.43-20.01,11.47-7.87,38.97l-7.11,3.42c-6.37-14.43-7.24-26.54-2.6-35.99,3.23-6.56,8.43-10.32,11.94-12.46-.23-5.12,2.84-9.2,6.52-10.77,3.5-1.48,7.11-.57,9.16,2.15.36-.21.73-.45,1.04-.64,2.23-1.41,5.29-3.34,8.58-2.32,1.35.42,3.22,1.51,4.54,4.35,3.17,6.83-4.6,12.63-12.1,18.24-1.55,1.16-3.62,2.71-5.37,4.17,1.58-.89,3.21-1.92,4.39-2.66,4.9-3.09,8.76-5.53,12.14-4.59,1.41.39,2.58,1.35,3.29,2.69,2.83,5.35-3.34,10.36-11.15,16.69-.67.55-1.44,1.17-2.23,1.82.12-.07.24-.14.36-.21,6.95-3.98,13.52-7.74,16.6-2.23,3.07,5.5-3.52,11.3-11.16,18.01-2.56,2.25-6.41,5.63-7.11,6.9-.01.04-.02.08-.04.12.38-.16.85-.4,1.4-.75,5.13-3.24,7.98-2.12,10.46-.69.8.46,1.16.67,1.9.67.29,0,.53-.04.77-.51.41-.82.41-2.28-.39-3.5l-2.77-4.21,4.55-1.89c5.8-2.41,9.53-5.84,11.11-10.19,2.52-6.95-1.05-14.42-1.08-14.5l6.96-3.74c.21.43,5.19,10.66,1.48,21.04-2,5.59-6.02,10.04-12,13.28.51,2.57.21,5.25-.94,7.52-1.54,3.05-4.41,4.87-7.69,4.87-2.76,0-4.52-1.02-5.69-1.69-.26-.15-.62-.36-.75-.4,0,.01-.53.08-1.86.92-2.64,1.67-4.82,2.22-6.55,2.22Z"/>
  <path d="m29.16,87.79c1.19-2.09.66-4.74-1.23-6.15-3.08-2.3-6.3-5.23-6.28-7.4,0,0,0,0,0,0,0,0,0-.01,0-.02,0,0,0-.01,0-.02,0,0,0,0,0,0-.15-2.32,3.39-5.82,6.51-8.45,1.61-1.35,2.19-3.58,1.41-5.51-1.56-3.86-3.21-9.02-1.89-11.1,0,0,0,0,0,0,0,0,0-.01.01-.02,0,0,0-.01,0-.02,0,0,0,0,0,0,1-1.87,5.07-2.93,8.82-3.51,2.35-.37,4.08-2.41,4.09-4.81,0-4.04.43-8.85,2.27-10.2,0,0,0,0,0,0,0,0,.01,0,.02-.01,0,0,0,0,.01-.01,0,0,0,0,0,0,1.79-1.54,6.73-.72,10.66.26,2.17.55,4.44-.53,5.44-2.58,1.79-3.68,4.32-7.97,6.59-8.38h0s.01,0,.02,0c0,0,.01,0,.02,0h0c2.36-.61,6.64,2.62,9.74,5.35,1.69,1.49,4.2,1.56,6,.15,3.2-2.5,7.29-5.18,9.47-4.53,0,0,0,0,0,0,0,0,.01,0,.02,0,0,0,.01,0,.02,0,0,0,0,0,0,0,2.2.48,4.43,4.71,5.99,8.41.92,2.19,3.3,3.34,5.59,2.7,3.65-1.02,7.79-1.75,9.43-.46,0,0,0,0,0,0,0,0,0,0,.01.01,0,0,.01,0,.02.01,0,0,0,0,0,0,2.01,1.35,2.47,6.77,2.52,10.96.02,2.09,1.42,3.9,3.4,4.46,3.87,1.1,8.46,2.84,9.21,5.02,0,0,0,0,0,0,0,0,0,.01,0,.02,0,0,0,.01,0,.02,0,0,0,0,0,0,.85,1.98-.98,6.01-2.92,9.4-1.19,2.09-.66,4.74,1.23,6.16,3.08,2.31,6.31,5.25,6.29,7.42,0,0,0,0,0,0,0,0,0,.01,0,.02,0,0,0,.01,0,.02,0,0,0,0,0,0,.15,2.42-3.71,6.13-6.93,8.78-1.7,1.4-2.25,3.78-1.32,5.76,1.72,3.68,3.47,8.38,2.33,10.44,0,0,0,0,0,0,0,0,0,.01,0,.02,0,0,0,.01,0,.02,0,0,0,0,0,0-.96,2.09-5.6,3.46-9.53,4.26-2.27.46-3.89,2.49-3.86,4.82.05,3.95-.3,8.49-2.04,9.84,0,0,0,0,0,0,0,0-.01,0-.02.01,0,0,0,0-.01.01,0,0,0,0,0,0-1.72,1.55-6.56.9-10.48.02-2.15-.48-4.35.61-5.32,2.63-1.72,3.62-4.11,7.66-6.3,8.09,0,0,0,0,0,0,0,0-.01,0-.02,0,0,0-.01,0-.02,0,0,0,0,0,0,0-2.37.65-6.75-2.58-9.9-5.28-1.66-1.42-4.08-1.5-5.85-.17-3.26,2.44-7.44,5.05-9.61,4.35,0,0,0,0,0,0,0,0-.01,0-.02,0,0,0-.01,0-.02,0,0,0,0,0,0,0-2.12-.51-4.18-4.53-5.64-8.17-.86-2.15-3.13-3.33-5.39-2.8-3.92.91-8.69,1.59-10.37.08,0,0,0,0,0,0,0,0,0,0-.01-.01,0,0-.01,0-.01-.01,0,0,0,0,0,0-1.83-1.41-2.03-6.44-1.87-10.54.09-2.2-1.32-4.16-3.42-4.73-3.97-1.08-8.93-2.87-9.72-5.15,0,0,0,0,0,0,0,0,0-.01,0-.02,0,0,0-.01,0-.02,0,0,0,0,0,0-.86-1.98.98-6.02,2.92-9.42Zm54.52,29.23c24.17-4.44,39.89-28.59,34.27-52.63-5.1-21.81-26.34-35.78-48.27-31.75-24.17,4.44-39.89,28.59-34.27,52.63,5.1,21.81,26.34,35.78,48.27,31.76Z"/>
</svg>