<svg id="Symbols" xmlns="http://www.w3.org/2000/svg" viewBox="0 0 150 150"><title>Nyame Nwu na Maw-bold</title><path id="Bold" d="M106.62,99.92a8,8,0,0,0-1,.22,3.91,3.91,0,0,0-.61-.81L80.72,75l24.34-24.34a3.91,3.91,0,0,0,.61-.81,7.75,7.75,0,0,0,1,.22,8,8,0,1,0-6.44-5.68,3.86,3.86,0,0,0-.8.61L75.06,69.35,50.59,44.88a4.18,4.18,0,0,0-.8-.6,7.75,7.75,0,0,0,.22-1A8,8,0,1,0,40.86,50a7.9,7.9,0,0,0,3.47-.23,3.66,3.66,0,0,0,.61.81L69.41,75,45,99.46a3.66,3.66,0,0,0-.61.81,7.87,7.87,0,0,0-3.46-.23A8,8,0,1,0,50,106.7a7.75,7.75,0,0,0-.22-1,4.25,4.25,0,0,0,.81-.6L75.06,80.67,99.38,105a4.65,4.65,0,0,0,.81.61,7.86,7.86,0,0,0-.22,3.46,8,8,0,1,0,6.65-9.14Z"/></svg>