<?xml version="1.0" encoding="UTF-8"?>
<svg id="Symbols" xmlns="http://www.w3.org/2000/svg" viewBox="0 0 150 150">
  <path d="m109,63.77c-.04-8.93-7-20.13-19.89-24.07v-19.69h-8v18.13c-1.93-.21-3.88-.33-5.82-.33-2.22,0-4.7.04-7.46.38v-18.2h-8v20.13c-11.78,4.46-18.76,13.11-18.82,23.64-.02,4.03.98,7.85,2.77,11.23-1.79,3.38-2.79,7.2-2.77,11.23.06,10.52,7.04,19.18,18.82,23.64v20.13h8v-18.2c2.76.33,5.25.38,7.46.38,1.95,0,3.89-.12,5.84-.33v18.13s7.99,0,7.99,0v-19.68c12.87-3.91,19.85-15.13,19.89-24.07.02-4.02-1.03-7.84-2.86-11.23,1.83-3.39,2.88-7.21,2.86-11.23Zm-8,.03c0,1.42-.2,2.79-.57,4.12-3.16-2.72-7.04-4.71-11.32-5.67v-14.07c7.48,3.23,11.87,10.06,11.89,15.62Zm-41.18-14.96v13.62c-3.91,1-7.41,2.87-10.31,5.36-.33-1.29-.52-2.63-.51-4.01.05-7.9,5.78-12.48,10.82-14.97Zm-10.82,37.34c0-1.38.18-2.72.51-4.01,2.9,2.49,6.4,4.36,10.31,5.36v13.62c-5.04-2.49-10.77-7.07-10.82-14.97Zm26.28,17.99c-2.31,0-4.76-.04-7.46-.44v-23.09l-3.55-.4c-4.27-.48-8.01-2.42-10.73-5.24,2.71-2.82,6.46-4.75,10.73-5.24l3.55-.44v-23.06c2.71-.4,5.16-.44,7.46-.44,1.95,0,3.9.14,5.82.38v19.31l.33,3.88,3.37.27c4.55.37,8.61,2.36,11.52,5.33-2.91,2.97-6.97,4.96-11.52,5.33l-3.37.27-.3,3.36v19.83c-1.95.25-3.9.39-5.85.39Zm13.82-2.35v-14.07c4.29-.96,8.16-2.95,11.32-5.67.37,1.32.57,2.7.57,4.11-.02,5.57-4.42,12.41-11.89,15.63Z"/>
</svg>