<?xml version="1.0" encoding="UTF-8"?>
<svg id="Symbols" xmlns="http://www.w3.org/2000/svg" viewBox="0 0 150 150">
  <path d="m129.91,129.49H19.91V19.49h110v110Zm-102.54-7.46h95.08V26.94H27.36v95.08Z"/>
  <path d="m74.86,115.26l-3.04-4.49c-9.19-13.56-13.88-20.86-22.39-34.29l-1.28-2.02,1.3-2c3.54-5.47,7.08-10.85,10.5-16.06,4.21-6.4,8.19-12.44,11.81-18.12l3.09-4.85,6.33,9.6c6.69,10.13,12.46,18.88,19.19,29.45l1.25,1.97-1.22,1.99c-6.86,11.18-15.46,24.35-22.44,34.37l-3.1,4.45Zm-17.85-40.75c6.72,10.6,11.12,17.44,17.92,27.55,5.81-8.52,12.33-18.56,17.89-27.54-6.17-9.65-11.62-17.91-17.87-27.37v-.02c-2.78,4.28-5.72,8.74-8.78,13.38-3,4.55-6.08,9.24-9.17,14Z"/>
</svg>