<svg id="Symbols" xmlns="http://www.w3.org/2000/svg" viewBox="0 0 150 150"><title>Odo Nyera Fie Kwan-bold</title><path id="Bold" d="M129.12,116.44c-.78-7.58-8.77-13.81-15.81-19.3-1.83-1.43-3.59-2.8-5.09-4.1,4.06-7.49,6.84-15,6.84-21.67,0-20.5-25.15-33.4-35.24-37.75A7.88,7.88,0,1,0,69,33.6C59,37.94,33.76,50.85,33.76,71.37c0,6.83,3,14.64,7.21,22.35-1.31,1.09-2.76,2.23-4.28,3.42-7,5.49-15,11.72-15.81,19.3a16,16,0,0,0,14.24,17.49,13.26,13.26,0,0,0,1.4.07A13.56,13.56,0,0,0,50,121.83a11.64,11.64,0,0,0-10.39-12.77l-.82,8A3.64,3.64,0,0,1,42,121a5.56,5.56,0,0,1-6.09,5,7.94,7.94,0,0,1-7.09-8.71c.43-4.19,7.27-9.53,12.77-13.82q1.83-1.43,3.53-2.79c10.79,16.66,25.5,31.24,26.47,32.2l2.8,2.76,2.81-2.76c1-1,16-15.92,26.87-32.83,1.35,1.12,2.8,2.25,4.3,3.42,5.5,4.29,12.34,9.63,12.77,13.82a7.94,7.94,0,0,1-7.09,8.71,5.56,5.56,0,0,1-6.09-5,3.64,3.64,0,0,1,3.25-4l-.82-8A11.64,11.64,0,0,0,100,121.83,13.56,13.56,0,0,0,113.48,134a13.26,13.26,0,0,0,1.4-.07,16,16,0,0,0,14.24-17.49ZM107.06,71.37c0,13.95-17,35.78-28.65,48.63V73.86c1.23-1,2.34-2,3.42-3,3-2.7,4.89-4.34,7-4.18a4,4,0,0,1,3.71,4.36,2.44,2.44,0,0,1-.84,1.66,2.47,2.47,0,0,1-1.78.57l-.63,8q.42,0,.84,0a10.44,10.44,0,0,0,10.39-9.61,12,12,0,0,0-11-13c-4.6-.37-8,1.92-11,4.48V41.77C88,46.14,107.06,56.71,107.06,71.37ZM70.41,41.77v20.5c-2.71-2.14-5.84-3.84-9.85-3.52a12,12,0,0,0-11.05,13A10.44,10.44,0,0,0,59.9,81.32q.42,0,.84,0l-.63-8a2.42,2.42,0,0,1-2.62-2.23,4,4,0,0,1,3.71-4.36c2.09-.16,4,1.48,7,4.18.73.66,1.47,1.34,2.24,2V120C58.79,107.16,41.76,85.34,41.76,71.37,41.76,56.71,60.85,46.14,70.41,41.77Z"/></svg>