<?xml version="1.0" encoding="UTF-8"?>
<svg id="Symbols" xmlns="http://www.w3.org/2000/svg" viewBox="0 0 150 150">
  <path d="m75,41.77c-18.18,0-32.98,14.79-32.98,32.98s14.79,32.98,32.98,32.98,32.98-14.79,32.98-32.98-14.79-32.98-32.98-32.98Zm25.28,29.5h-21.55v-21.77c11.18,1.64,20.02,10.56,21.55,21.77Zm-29.01-21.77v21.77h-21.55c1.53-11.21,10.37-20.13,21.55-21.77Zm-21.48,29.23h21.48v21.26c-11.01-1.62-19.75-10.29-21.48-21.26Zm28.94,21.26v-21.26h21.48c-1.73,10.97-10.47,19.65-21.48,21.26Z"/>
  <path d="m130,74.45c0-6.56-5.48-12.38-12.25-13.61-4.54-13.65-15.43-24.43-29.16-28.78-1.3-6.68-7.09-12.06-13.58-12.06s-12.45,5.4-13.74,12.11c-13.66,4.39-24.49,15.13-29,28.73-6.77,1.23-12.25,7.06-12.25,13.61s5.3,12.35,11.93,13.71c4.31,14.07,15.34,25.23,29.33,29.72,1.3,6.71,7.16,12.11,13.74,12.11s12.28-5.37,13.58-12.06c14.07-4.46,25.17-15.65,29.49-29.78,6.62-1.37,11.93-7.19,11.93-13.71Zm-55-46.99c1.83,0,3.6,1.12,4.82,2.76-1.58-.17-3.19-.26-4.82-.26s-3.29.1-4.9.27c1.25-1.64,3.07-2.77,4.9-2.77Zm-47.54,46.99c0-1.86,1.15-3.66,2.84-4.88-.21,1.78-.34,3.59-.34,5.43,0,1.45.08,2.89.21,4.3-1.61-1.25-2.71-3.04-2.71-4.85Zm47.54,48.09c-1.83,0-3.65-1.13-4.9-2.77,1.61.18,3.25.27,4.9.27s3.24-.09,4.82-.26c-1.21,1.65-2.99,2.76-4.82,2.76Zm0-9.96c-20.72,0-37.58-16.86-37.58-37.58s16.86-37.58,37.58-37.58,37.58,16.86,37.58,37.58-16.86,37.58-37.58,37.58Zm44.83-33.28c.14-1.42.21-2.85.21-4.3,0-1.84-.12-3.65-.34-5.43,1.69,1.22,2.84,3.02,2.84,4.88s-1.1,3.6-2.71,4.85Z"/>
</svg>