<?xml version="1.0" encoding="UTF-8"?>
<svg id="Symbols" xmlns="http://www.w3.org/2000/svg" viewBox="0 0 150 150">
  <path d="m74.28,52.48c-20.89,0-41.32-9.02-56.04-24.74l5.84-5.47c13.22,14.12,31.51,22.21,50.2,22.21s34.29-7.44,48.07-22.11l5.83,5.48c-15.35,16.35-33.49,24.64-53.9,24.64Z"/>
  <g>
    <rect x="19.95" y="83.56" width="14.75" height="8" transform="translate(-10.19 3.86) rotate(-6.81)"/>
    <rect x="28.44" y="50.05" width="8" height="16.24" transform="translate(-34.15 56.82) rotate(-59.69)"/>
    <rect x="24.04" y="64.98" width="8" height="14.82" transform="translate(-49.31 79.03) rotate(-73.73)"/>
    <rect x="22.49" y="97.03" width="15.32" height="8" transform="translate(-28.23 13.24) rotate(-17.01)"/>
  </g>
  <g>
    <rect x="118.68" y="80.19" width="8" height="14.75" transform="translate(21.19 199) rotate(-83.19)"/>
    <rect x="109.44" y="54.17" width="16.24" height="8" transform="translate(-13.29 67.28) rotate(-30.31)"/>
    <rect x="114.55" y="68.39" width="14.82" height="8" transform="translate(-15.4 37.07) rotate(-16.27)"/>
    <rect x="115.85" y="93.37" width="8" height="15.32" transform="translate(-11.82 186.1) rotate(-73)"/>
  </g>
  <path d="m107.13,114.94H42.74l-1.2-1.42c-7.15-8.48-11.08-19.37-11.08-30.66,0-17.11,8.42-32.2,22.52-40.36l4.01,6.92c-11.6,6.71-18.52,19.21-18.52,33.43,0,8.78,2.85,17.26,8.06,24.08h56.84c5.21-6.82,8.06-15.3,8.06-24.08,0-14.27-7.44-27.3-19.42-33.99l3.9-6.98c14.51,8.1,23.52,23.8,23.52,40.97,0,11.29-3.94,22.18-11.08,30.66l-1.2,1.42Z"/>
  <path d="m75.27,114.98c-17.37,0-31.51-14.55-31.51-32.43s14.13-32.43,31.51-32.43,31.51,14.55,31.51,32.43-14.13,32.43-31.51,32.43Zm0-56.85c-12.96,0-23.51,10.96-23.51,24.43s10.54,24.43,23.51,24.43,23.51-10.96,23.51-24.43-10.54-24.43-23.51-24.43Z"/>
  <path d="m129.45,129H21.75v-22.06h107.7v22.06Zm-99.7-8h91.7v-6.06H29.75v6.06Z"/>
</svg>