<?xml version="1.0" encoding="UTF-8"?>
<svg id="Symbols" xmlns="http://www.w3.org/2000/svg" viewBox="0 0 150 150">
  <path d="m113.72,87.69s5.06-21.8-.7-30.88c-6.93-10.93-20.33-15.64-33.32-17.1v-6.16h8.57v-8.07h-8.53v-3.95s-7.99-.02-7.99-.02v3.97h-8.57v8.07h8.54v6.17c-12.96,1.47-26.3,6.19-33.2,17.08-5.76,9.09-.7,30.88-.7,30.88,2.43-6.06,6-11.62,10.18-15.98l21.58,40.15h-17.64v11.98h12.14v7.68h23.33v-7.68h12.14v-11.98h-17.33l21.21-40.25c4.23,4.38,7.84,9.98,10.28,16.09Zm-16.57-21.35l-4.44,8.43-.14-.14-3.19-3.04-.02.02-11.47-10.84c5.79.2,11.33,1.51,15.79,3.62,1.17.55,2.33,1.21,3.46,1.96Zm-33.27,14.4l10.9,10.49,13.06-10,.98.93-12.91,24.51-13.44-24.99,1.42-.94Zm6.7-4.7l6.64-4.85,4.7,4.45-6.56,5.02-4.79-4.61Zm4.38-15.31h0c.27,0,.54,0,.81,0,.27,0,.54,0,.81,0h0c.43,0,.85.02,1.28.03l-15.77,11.52-3.44,2.28-4.38-8.14c1.18-.78,2.37-1.47,3.59-2.04,4.81-2.26,10.84-3.63,17.11-3.66Z"/>
</svg>