<?xml version="1.0" encoding="UTF-8"?>
<svg id="Symbols" xmlns="http://www.w3.org/2000/svg" viewBox="0 0 150 150">
  <path d="m99.44,102.6c4.67-7.42,9.11-17.05,9.29-26.95.24-13.39-7.43-27.82-29.29-29.8v-.23s-.44,0-.44,0v-5.7h23.32s0-8,0-8h-23.32v-11.91s-8,0-8,0v11.91h-23.32s0,8,0,8h23.32v5.72s-.42,0-.42,0v.21c-9.53.83-16.96,4.01-22.11,9.47-4.93,5.23-7.48,12.48-7.18,20.42.31,8.01,3.69,17.03,10.05,26.86h-31.26s13.91,13.7,13.91,13.7l-13.91,13.7h109.85s-13.91-13.7-13.91-13.7l13.91-13.7h-30.49Zm1.29-27.09c-.18,10.07-6.02,20.26-10.94,27.09h-9.48c1.56-1.5,3.75-3.78,5.91-6.58,4.9-6.37,7.44-12.53,7.54-18.31.12-6.9-3.71-14.93-14.56-16.7v-.36s-.22,0-.22,0v-6.8c19.83,1.92,21.84,15.6,21.73,21.66Zm-21.73-6.38c4.47,1.08,6.86,3.99,6.78,8.43-.09,5.12-3.41,10.56-6.78,14.7v-23.13Zm-8,22.86c-3.22-4.17-6.59-9.68-6.77-14.51-.06-1.67.23-4.05,1.96-5.89,1.13-1.2,2.74-2.03,4.81-2.49v22.89Zm-21.72-16.56c-.16-4.09.58-9.94,5-14.63,3.72-3.94,9.33-6.28,16.72-6.96v6.82s-.21,0-.21,0v.33c-4.36.68-7.86,2.39-10.42,5.11-2.84,3.01-4.31,7.16-4.14,11.69.39,10.24,9.3,20.56,13.43,24.81h-8.64c-7.39-10.22-11.46-19.61-11.75-27.17Z"/>
</svg>