<?xml version="1.0" encoding="UTF-8"?>
<svg id="Symbols" xmlns="http://www.w3.org/2000/svg" viewBox="0 0 150 150">
  <path d="m129.18,83.84c-.07-.39-1.77-9.79-9.39-19.31-11.34-14.16-27.66-18.65-40.61-19.74v-3.42c2-1.37,3.6-3.45,4.45-6.06,2-6.17-.96-12.96-6.61-15.16-.15-.06-.29-.11-.44-.16,3.07,2.84,4.38,7.56,2.96,11.94-1.78,5.48-5.27,7.4-10.25,5.22-.94,1.1-1.9,2.19-2.87,3.26.97.89,2.09,1.61,3.35,2.1.68.26,1.36.44,2.05.56v1.65c-13.09.93-29.98,5.29-41.61,19.81-7.62,9.52-9.32,18.91-9.39,19.31l-.82,4.74h4.31c.6.18,2.14,1.19,3.17,1.86,4.26,2.79,12.19,8,18.04.25,1.14-1.51,2.48-2.52,3.76-2.85.91-.23,1.66-.09,2.23.42.23.21.78.86,1.21,1.39,2.07,2.5,5.19,6.27,9.38,6.29h.03c1.57,0,3.9-.56,6.13-3.2,1.1-1.3,2.29-2.4,3.56-3.32v40.57h7.35v-39.81c.9.75,1.75,1.6,2.55,2.55,2.23,2.64,4.56,3.2,6.13,3.2h.04c4.19-.02,7.31-3.79,9.38-6.29.44-.53.98-1.18,1.21-1.39.57-.51,1.33-.66,2.23-.42,1.28.33,2.61,1.34,3.76,2.85,5.85,7.74,13.78,2.54,18.04-.25,1.03-.67,2.57-1.68,3.17-1.86h4.31l-.82-4.74Zm-10.45-.25c-5.36,3.52-7.12,3.93-8.56,2.02-2.19-2.9-4.87-4.82-7.75-5.56-3.17-.81-6.22-.09-8.59,2.03-.66.59-1.28,1.34-2,2.21-.82,1-3.01,3.64-3.95,3.64-.03,0-.29-.11-.71-.61-2.27-2.69-4.86-4.83-7.69-6.35-1.42-.76-2.94-1.14-4.46-1.14s-3.04.38-4.46,1.14c-2.83,1.52-5.42,3.66-7.69,6.35-.42.5-.68.61-.71.61-.94,0-3.13-2.65-3.95-3.64-.72-.87-1.35-1.63-2-2.21-2.37-2.12-5.42-2.84-8.59-2.03-2.88.74-5.56,2.66-7.75,5.56-1.44,1.91-3.2,1.49-8.56-2.02-.81-.53-1.58-1.03-2.33-1.47,2.75-8.02,12.96-28.38,46.05-29.56,33.34,1.19,43.39,21.49,46.08,29.55-.76.44-1.54.96-2.35,1.49Z"/>
</svg>