<?xml version="1.0" encoding="UTF-8"?>
<svg id="Symbols" xmlns="http://www.w3.org/2000/svg" viewBox="0 0 150 150">
  <path d="m74.81,124.54c-2.75-.06-5.03-2.27-5.03-4.94v-13.6c0-1.37-.62-2.67-1.75-3.65-1.15-1-2.74-1.57-4.37-1.57-.09,0-.19,0-.28,0-9.11.36-14.13,1.09-14.18,1.1-.3.04-.59.06-.87.06h0c-2.54,0-4.7-1.62-5.14-3.85-.24-1.22.07-2.44.85-3.45.81-1.04,2.03-1.72,3.43-1.92.25-.04,6.19-.9,16.44-1.27,3.29-.12,5.87-2.41,5.87-5.21v-2.76c0-3.67-3.38-6.65-7.52-6.65h-10.3c-1.45,0-2.79-.51-3.79-1.44-.96-.9-1.47-2.08-1.44-3.33.07-2.49,2.57-4.52,5.56-4.52h11.37c3.37,0,6.11-2.34,6.11-5.22v-4.93c0-2.88-2.74-5.22-6.11-5.22h-.37c-2.88,0-5.22-2.08-5.22-4.64,0-.97-.83-1.84-2.02-2.15l-.47-.08c-5.53-.52-8.86-1.14-10.36-1.46-1.38-.29-2.54-1.04-3.27-2.12-.71-1.06-.93-2.3-.6-3.5.57-2.08,2.65-3.54,5.06-3.54.4,0,.81.04,1.2.12.07.01,6.99,1.39,18.5,1.87h.18c.92,0,1.82-.32,2.47-.89.64-.56,1.01-1.33,1.01-2.11v-3.59c0-1.25.54-2.41,1.53-3.29.99-.87,2.3-1.35,3.69-1.35h.15c2.8.06,5.08,2.28,5.08,4.94v3.19c0,.79.37,1.57,1.02,2.13.65.56,1.56.88,2.51.88h.18c6.27-.32,12.6-.94,18.79-1.84.29-.04.57-.06.85-.06,1.14,0,2.22.32,3.13.93,1.11.74,1.83,1.82,2.03,3.04.17,1.06-.1,2.15-.79,3.08-.87,1.18-2.28,1.99-3.88,2.22-3.85.55-6.5.87-9.74,1.17l-.44.07c-1.61.39-2.33,1.44-2.33,2.33,0,2.56-2.34,4.64-5.22,4.64-3.37,0-6.11,2.34-6.11,5.22v4.93c0,2.88,2.74,5.22,6.11,5.22h11.71c1.45,0,2.79.51,3.78,1.44.96.9,1.47,2.08,1.44,3.33-.07,2.49-2.57,4.52-5.56,4.52h-11.37c-3.37,0-6.11,2.34-6.11,5.22v4.74c0,2.55,2.28,4.64,5.18,4.77,5.29.22,10.71.59,16.13,1.1,2.92.27,5.11,2.4,4.98,4.85-.13,2.49-2.42,4.44-5.21,4.44-.19,0-.38,0-.57-.03-4.66-.44-9.39-.78-14.08-1.01-.11,0-.22,0-.33,0-1.61,0-3.19.56-4.32,1.55-1.14.99-1.77,2.29-1.77,3.67v13.76c0,1.25-.54,2.42-1.53,3.29-.98.87-2.27,1.36-3.61,1.36-.09,0-.18,0-.27,0Z"/>
</svg>