<svg id="Symbols" xmlns="http://www.w3.org/2000/svg" viewBox="0 0 150 150"><title>Okuafo Pa-bold</title><path id="Bold" d="M107.26,87.67a27.77,27.77,0,0,0-1.52-4.25A27.91,27.91,0,0,1,89,111.84l-2.33-8.69a12.47,12.47,0,0,0,1.73.13A13,13,0,1,0,85,77.72,12.84,12.84,0,0,0,80.44,80l-.77-2.9-.38-1.42,14-3.75-.83-20.48L74.11,56.35l-5.36-20a28.36,28.36,0,0,1,3.3-.2A27.92,27.92,0,0,1,97.47,52.56a26.78,26.78,0,0,0-.81-4.44A27.91,27.91,0,0,0,69.72,27.44a28.36,28.36,0,0,0-3.3.2l-1.82-6.8-7.73,2.07,1.82,6.8A27.92,27.92,0,0,0,42.74,62.57a28.56,28.56,0,0,0,1.52,4.25A27.91,27.91,0,0,1,61,38.4l2.32,8.67a12.86,12.86,0,0,0-5.08.33,13,13,0,1,0,11.3,22.86l1.15,4.31-14,3.76.83,20.48,18.35-4.92,5.36,20a28.39,28.39,0,0,1-3.3.21A27.93,27.93,0,0,1,52.53,97.67a26.71,26.71,0,0,0,.81,4.45A27.92,27.92,0,0,0,80.28,122.8a26.35,26.35,0,0,0,3.3-.21l1.76,6.57,7.73-2.07-1.76-6.56A27.93,27.93,0,0,0,107.26,87.67Zm-23.21.11A5,5,0,0,1,93.21,89a5,5,0,1,1-9.66,2.59h0A4.93,4.93,0,0,1,84.05,87.78Zm.83-26,.16,4.1-7.82,2.1-1-3.87ZM66,62.46a5,5,0,1,1-5.62-7.33A4.77,4.77,0,0,1,61.62,55,5,5,0,0,1,66,62.46Zm-.83,26L65,84.4l7.82-2.1,1,3.86Z"/></svg>