<?xml version="1.0" encoding="UTF-8"?>
<svg id="Symbols" xmlns="http://www.w3.org/2000/svg" viewBox="0 0 150 150">
  <path d="m128.89,44.35c-.03-.23-.07-.42-.1-.55-.31-1.48-.69-2.91-1.16-4.39l-.03-.09c-4.07-11.55-15.21-19.31-27.72-19.31-10.08,0-20.28,6.85-24.87,10.38-4.59-3.54-14.78-10.38-24.87-10.38-12.51,0-23.65,7.76-27.72,19.31l-.03.09c-.48,1.48-.86,2.92-1.16,4.39-.03.13-.08.32-.11.55-.74,3.43-1.11,7.03-1.11,10.68,0,29.05,50.46,71.2,52.61,72.98l2.39,1.98,2.39-1.98c2.15-1.78,52.61-43.93,52.61-72.98,0-3.66-.37-7.25-1.11-10.68Zm-56.38-6.44l2.5,2.23,2.5-2.23c3.28-2.93,13.68-10.52,22.37-10.52,3.76,0,7.35.95,10.5,2.63l-19.96,19.78c-3.98-2.9-8.9-4.62-14.21-4.62s-10.03,1.65-13.97,4.45l-20.63-20.54c2.65-1.09,5.54-1.7,8.54-1.7,10.42,0,22.25,10.42,22.37,10.52Zm.01,35.03v5.88l-5.94-5.88h5.94Zm-5.94-7.38l5.94-5.88v5.88h-5.94Zm13.39,7.38h5.94l-5.94,5.88v-5.88Zm0-7.38v-5.88l5.94,5.88h-5.94Zm-51.52-19.85l.09-.39v-.08c.25-1.18.55-2.34.94-3.54,1.18-3.33,3.17-6.23,5.7-8.54l21.73,21.63c-2.98,3.97-4.75,8.88-4.75,14.19s1.75,10.16,4.7,14.11l-9.55,9.46c-10.56-12.38-19.84-26.42-19.84-37.52,0-3.21.33-6.35.99-9.34Zm46.55,74.61c-4.25-3.71-13.54-12.07-22.78-22.18l9.93-9.84c3.93,2.81,8.74,4.47,13.93,4.5l.16.16.17-.16c5.24-.05,10.08-1.75,14.01-4.62l8.62,8.58c-9.65,10.72-19.59,19.69-24.04,23.56Zm28.91-29.18l-8.24-8.21c2.87-3.92,4.57-8.74,4.57-13.94s-1.7-10.03-4.58-13.95l20.62-20.43c1.84,2.04,3.3,4.43,4.25,7.11.38,1.19.69,2.35.94,3.54l.09.46c.66,2.99.99,6.13.99,9.34,0,10.67-8.58,24.07-18.63,36.09Z"/>
</svg>