<?xml version="1.0" encoding="UTF-8"?>
<svg id="Symbols" xmlns="http://www.w3.org/2000/svg" viewBox="0 0 150 150">
  <path d="m78.49,79.07h12.75c1.32,1.98,3.65,3.3,6.3,3.51,4.12.45,7.46-2.44,7.46-7.34s-3.34-7.79-7.46-7.34c-2.49.2-4.69,1.38-6.04,3.16h-13v-8.15h12.94c1.35,1.82,3.58,3.03,6.1,3.24,4.12.45,7.46-2.44,7.46-7.34s-3.34-7.79-7.46-7.34c-2.62.21-4.91,1.5-6.25,3.44h-12.8v-8.13c11.12-.33,20.63-3.12,20.68-26.67l-8-.02c-.02,9.1-1.38,14.57-4.16,16.73-2.58,2-7.2,2-13.06,2-5.29,0-9.86,0-12.7-2.08-3.16-2.32-4.69-7.8-4.69-16.76h-8c0,11.85,2.52,19.22,7.95,23.21,4.02,2.95,8.97,3.5,13.98,3.61v8.11h-11.78c-1.33-1.94-3.63-3.22-6.25-3.44-4.12-.45-7.46,2.44-7.46,7.34s3.34,7.79,7.46,7.34c2.53-.21,4.75-1.41,6.1-3.24h11.93v8.15h-11.99c-1.36-1.78-3.55-2.96-6.04-3.16-4.12-.45-7.46,2.44-7.46,7.34s3.34,7.79,7.46,7.34c2.65-.22,4.97-1.54,6.3-3.51h11.73v8.15h-12.07c-1.36-1.72-3.52-2.85-5.96-3.05-4.12-.45-7.46,2.44-7.46,7.34s3.34,7.79,7.46,7.34c2.7-.22,5.06-1.59,6.37-3.62h11.66v7.96c-5.01.1-9.95.66-13.98,3.61-5.43,3.99-7.96,11.36-7.95,23.21h8c0-8.96,1.53-14.45,4.69-16.76,2.84-2.08,7.41-2.08,12.7-2.08,5.86,0,10.48,0,13.06,2,2.78,2.16,4.14,7.63,4.16,16.73l8-.02c-.04-23.55-9.55-26.34-20.68-26.67v-7.99h12.68c1.31,2.04,3.67,3.4,6.37,3.62,4.12.45,7.46-2.44,7.46-7.34s-3.34-7.79-7.46-7.34c-2.44.2-4.59,1.33-5.96,3.05h-13.09v-8.15Z"/>
</svg>