<?xml version="1.0" encoding="UTF-8"?>
<svg id="Symbols" xmlns="http://www.w3.org/2000/svg" viewBox="0 0 150 150">
  <path d="m114.23,92.82c-.37-.05-.73-.07-1.09-.1l16.86-16.67-16.98-16.78c.4-.03.8-.05,1.21-.11,9.26-1.3,14.02-9.29,14.52-16.16.57-7.78-3.64-15.1-10.73-18.67-8.9-4.47-18.87-2.48-26.68,5.3-1.51,1.51-2.82,3.2-3.91,5.02l-12.08-14.66-12.97,14.75c-1.1-1.85-2.42-3.57-3.96-5.11-7.81-7.79-17.78-9.77-26.68-5.3-7.09,3.56-11.31,10.89-10.73,18.67.51,6.87,5.27,14.86,14.52,16.16.48.07.96.1,1.43.13l-16.96,16.76,16.84,16.65c-.44.03-.87.06-1.31.12-9.26,1.3-14.02,9.29-14.52,16.16-.57,7.78,3.64,15.1,10.73,18.67,3.14,1.57,6.41,2.35,9.67,2.35,5.99,0,11.96-2.61,17.01-7.65,2.04-2.04,3.71-4.4,4.96-6.96l11.97,13.62,11.09-13.47c1.24,2.51,2.89,4.82,4.89,6.81,5.06,5.04,11.02,7.65,17.01,7.65,3.26,0,6.53-.77,9.67-2.35,7.09-3.56,11.31-10.89,10.73-18.67-.5-6.87-5.27-14.86-14.52-16.16Zm-17-58.23c3.07-3.06,9.36-7.64,16.94-3.84,5.31,2.67,6.88,8,6.6,11.75-.21,2.91-2.11,8.62-7.75,9.41-2.29.32-4.15-.2-5.54-1.56-1.55-1.51-2.25-3.9-1.76-5.94l-7.81-1.59c-1.08,4.43.35,9.23,3.72,12.53,1.53,1.5,3.35,2.57,5.37,3.23l-14.41,14.25v-30.47c.89-2.97,2.44-5.58,4.64-7.78Zm-32.07,13.84h19.43v52.12h-19.43v-52.12Zm17.57-7.32h-15.68l8.1-9.21,7.58,9.21Zm-53.75,1.4c-.28-3.76,1.29-9.09,6.6-11.75,7.58-3.8,13.86.77,16.94,3.84,2.2,2.19,3.76,4.81,4.64,7.78v30.23l-14.23-14.07c1.94-.66,3.71-1.71,5.19-3.16,3.37-3.3,4.8-8.1,3.72-12.53l-7.81,1.59c.5,2.04-.21,4.42-1.76,5.94-1.39,1.36-3.25,1.89-5.54,1.56-5.64-.79-7.54-6.51-7.75-9.41Zm23.54,74.88c-3.07,3.07-9.36,7.64-16.94,3.84-5.31-2.67-6.88-8-6.6-11.76.21-2.91,2.11-8.62,7.75-9.41,2.28-.32,4.15.2,5.54,1.56,1.55,1.51,2.25,3.9,1.76,5.94l7.81,1.59c1.08-4.43-.35-9.23-3.72-12.53-1.46-1.43-3.19-2.47-5.1-3.13l14.14-13.98v30.1c-.88,2.97-2.44,5.58-4.64,7.77Zm22.62-.31l-8.1-9.21h15.68l-7.59,9.21Zm39.02,4.14c-7.58,3.8-13.86-.77-16.94-3.84-2.2-2.19-3.75-4.8-4.64-7.77v-30.35l14.32,14.15c-1.98.66-3.77,1.72-5.28,3.19-3.37,3.3-4.8,8.1-3.72,12.53l7.81-1.59c-.5-2.04.21-4.42,1.76-5.94,1.39-1.36,3.25-1.88,5.54-1.56,5.64.79,7.54,6.5,7.75,9.41.28,3.76-1.29,9.09-6.6,11.76Z"/>
</svg>