<?xml version="1.0" encoding="UTF-8"?>
<svg id="Symbols" xmlns="http://www.w3.org/2000/svg" viewBox="0 0 150 150">
  <path d="m20.33,48.28h1.28l19.93,57.38h-21.2v12.47h110v-12.47h-1.69l-19.93-57.38h21.61v-12.47H20.33v12.47Zm49.47,30.67l-3.41-9.81,6.01-17.32,3.41,9.81-6.01,17.32Zm9.96-5.95l3.52,10.14-6.01,17.32-3.52-10.14,6.01-17.32Zm-13.91,17.32l-3.41,9.81-3.41-9.81,3.41-9.81,3.41,9.81Zm-9.38,15.34h-2.76l1.38-3.97,1.38,3.97Zm13.33-3.97l1.38,3.97h-2.76l1.38-3.97Zm17.43-7.18l3.87,11.15h-7.74l3.87-11.15Zm3.95-11.37l3.52-10.14,11.34,32.66h-7.04l-7.82-22.51Zm-3.95-11.37l-3.52-10.14,3.52-10.14,3.52,10.14-3.52,10.14Zm6.78-23.5h1.38l-.69,1.99-.69-1.99Zm-14.25,1.99l-.69-1.99h1.38l-.69,1.99Zm-17.32,7.51l-3.3-9.5h6.6l-3.3,9.5Zm-3.95,11.37l-3.41,9.81-10.65-30.67h6.81l7.25,20.87Zm-7.35,21.18l-3.52,10.14-18.12-52.18h7.04l14.6,42.04Zm62.79,15.34l-15.29-44.02,3.41-9.81,18.69,53.83h-6.81Z"/>
  <rect x="20.33" y="21.97" width="110" height="12.47"/>
  <rect x="20.33" y="119.5" width="110" height="12.47"/>
</svg>