<?xml version="1.0" encoding="UTF-8"?>
<svg id="Symbols" xmlns="http://www.w3.org/2000/svg" viewBox="0 0 150 150">
  <path d="m112.98,35.83c-1.73-1.4-4.29-1.15-5.71.54-1.43,1.69-1.18,4.2.55,5.6,15.39,12.41,14.08,29.13,14.01,29.92-.67,9.25-6.01,16.81-15.86,22.45-5.81,3.33-11.6,5.02-14.19,5.67l12.13-39.08c.42-1.36.07-2.84-.92-3.87-.99-1.04-2.47-1.48-3.88-1.16l-8.79,2c.94-2.22,1.46-4.65,1.46-7.19,0-8.08-5.22-14.96-12.52-17.63.41-.34.8-.72,1.16-1.15,2.91-3.4,2.88-8.11-.05-10.53-2.93-2.42-7.67-1.62-10.57,1.78-1.95,2.28-2.58,5.16-1.89,7.54-.5-.79-1.25-1.46-2.21-1.88l-4.55-2c-2.4-1.06-5.14-.16-6.13,2l-.4.87c-.3.66-.38,1.36-.31,2.05-22.86,6.64-37.08,28.8-33.88,53.11,1.98,15.1,7.49,23.95,17.48,40.02l.09.14c.76,1.23,2.1,1.91,3.47,1.91.72,0,1.45-.19,2.11-.58,1.91-1.14,2.52-3.59,1.35-5.46l-.09-.14c-9.72-15.63-14.6-23.47-16.36-36.9-2.72-20.68,9.46-39.49,28.95-44.71.03,0,.05-.02.08-.03-2.56,3.2-4.11,7.23-4.11,11.6,0,5.62,2.54,10.66,6.53,14.11l-15.04,3.42c-1.41.32-2.54,1.36-2.96,2.71s-.07,2.83.91,3.87l31.01,32.57c-1.47-.14-3-.11-4.57.11-8.11,1.17-13.94,7.11-13.02,13.27s8.25,10.2,16.36,9.03c8.11-1.17,13.94-7.11,13.02-13.27-.05-.3-.12-.6-.2-.89.16-.07.31-.15.46-.24,1.02,1.67,2.57,3.2,4.56,4.33,5.06,2.86,10.98,2.08,13.24-1.76,2.19-3.72.12-8.92-4.6-11.85,3.1-1.07,6.88-2.62,10.73-4.8,12.27-6.96,19.21-16.94,20.07-28.78.08-.87,1.87-21.54-16.94-36.72Zm-29.3,14.87c0,6-4.97,10.87-11.07,10.87s-11.07-4.88-11.07-10.87,4.97-10.87,11.07-10.87,11.07,4.88,11.07,10.87Zm-15.05-18.41s-.05.01-.07.02c0-.05,0-.11-.02-.16.03.05.06.09.09.14Zm25.48,32.91l-12.13,39.06-28.4-29.83,40.53-9.22Z"/>
</svg>