<?xml version="1.0" encoding="UTF-8"?>
<svg id="Symbols" xmlns="http://www.w3.org/2000/svg" viewBox="0 0 150 150">
  <path d="m103.18,84.09v-14.57c6.25-1,12.86,4.58,17.53,9.78l8.27,9.21-1.75-12.56c-3.29-23.6-17.01-28.54-24.01-29.5l.02-21.54-18.39-4.91-16.18,10.56.23,10.91-.13,4.39-14.55,7.23-.11,2.41c0,.09-.08,1.77-.11,7.83-3.89-4.56-6.19-12.97-4.22-23.08l2.32-11.96-8.59,8.17c-12.98,12.34-19.27,24.32-18.71,35.61.39,7.77,3.99,13.61,7.38,17.45-7.89,4.3-12.67,9.79-12.67,15.69,0,6.41,5.82,12.76,15.97,17.4,10.42,4.77,24.28,7.39,39.03,7.39s28.61-2.63,39.03-7.39c10.15-4.65,15.97-10.99,15.97-17.4,0-8.54-10.09-16.6-26.32-21.11Zm-3.46-29.82c1.34-.12,10.89-.51,16.52,10.79-7.79-4.87-14.02-4.17-18.32-2.24l-2.31,1.04-.02,18.52c-1.76-.3-3.87-.62-6.31-.91V29.47l6.36,1.7-.02,23.46,4.11-.35Zm-60,31.8c-2.85-2.58-7-7.49-7.34-14.43-.33-6.64,2.73-13.91,9.12-21.67.24,4.22,1.12,8.21,2.64,11.81,2.71,6.43,7.3,11.03,12.59,12.63l4.84,1.46v-5.32c0-6.39.04-10.16.07-12.28l14.58-7.24.28-9.53-.14-6.53,5.32-3.47v49.29c-2.76-.18-5.78-.31-9.07-.36h-.11c-6.05.1-11.85.66-17.27,1.59-.04,0-.09.02-.13.02-1.24.22-2.46.45-3.66.7-.32.07-.64.14-.96.21-.83.19-1.65.38-2.45.58-.72.18-1.43.37-2.14.57-.43.12-.86.24-1.28.37-1.67.49-3.31,1.01-4.89,1.59Zm70.79,29.17c-9.49,4.34-22.28,6.73-36.01,6.73s-26.52-2.39-36.01-6.73c-7.83-3.58-11.39-7.71-11.39-10.03,0-2.68,3.92-6.68,11.43-10.1l1.85-.75c8.88-3.58,20.32-5.67,32.24-5.87,8.12.12,14.54.76,19.22,1.43.29.04.59.09.86.13.15.02.31.05.46.07,4.61.74,7.03,1.44,7.1,1.46l.2.06c14.78,3.96,21.43,10.31,21.43,13.56,0,2.32-3.56,6.45-11.39,10.03Z"/>
</svg>