<?xml version="1.0" encoding="UTF-8"?>
<svg id="Symbols" xmlns="http://www.w3.org/2000/svg" viewBox="0 0 150 150">
  <defs>
    <style>
      .cls-1 {
        fill: #b3b3b3;
      }

      .cls-2 {
        fill: #ccc;
      }
    </style>
  </defs>
  <path class="cls-2" d="m63.74,106.86c-.43-.99-.95-1.93-1.58-2.81-2.5-3.46-6.33-5.62-10.26-5.78-7.46-.3-11.81,4.04-13.2,6.66l6.58,3.51s1.67-2.92,6.32-2.71c1.22.05,3.14.79,4.52,2.7,1.09,1.51,2.13,4.19.92,8.42-1.08,3.78-5.96,6.18-11.88,5.83-6.88-.4-14.86-4.62-16.62-15.29-2.16-13.11,4.18-23.01,18.87-29.43l7.82-3.42-7.82-3.42c-19.66-8.59-20.18-20.2-18.87-28.19,1.76-10.67,9.74-14.89,16.62-15.29,5.92-.33,10.79,2.06,11.87,5.83,1.21,4.23.17,6.91-.92,8.42-1.38,1.91-3.3,2.65-4.52,2.7-4.45.21-6.17-2.48-6.32-2.71l-6.58,3.51c1.4,2.61,5.73,6.95,13.2,6.66,3.92-.16,7.76-2.32,10.26-5.78.58-.8,1.07-1.66,1.47-2.55,1.78,7.78,4.02,19.58,4.62,31.81-.58,11.98-2.75,23.56-4.51,31.34Zm59.04.52c-1.76,10.66-9.74,14.89-16.62,15.29-5.92.34-10.79-2.06-11.88-5.83-1.21-4.23-.17-6.91.92-8.42,1.38-1.91,3.3-2.65,4.52-2.7,4.47-.19,6.17,2.48,6.35,2.78l3.25-1.82,3.29-1.76c-1.4-2.62-5.75-6.96-13.2-6.66-3.92.16-7.76,2.32-10.26,5.78-.63.88-1.16,1.82-1.58,2.81-1.76-7.78-3.92-19.35-4.51-31.33.6-12.23,2.84-24.04,4.62-31.81.41.89.89,1.75,1.47,2.55,2.5,3.46,6.33,5.62,10.26,5.78,7.47.31,11.81-4.04,13.2-6.66l-6.54-3.58c-.18.3-1.89,2.97-6.35,2.78-1.22-.05-3.14-.79-4.52-2.7-1.09-1.51-2.13-4.19-.92-8.42,1.08-3.77,5.97-6.15,11.88-5.83,6.88.4,14.86,4.62,16.62,15.29,1.32,7.99.8,19.6-18.87,28.19l-7.82,3.42,7.82,3.42c14.68,6.42,21.03,16.32,18.87,29.43Z"/>
  <path class="cls-1" d="m113.61,74.55c13.28-7.83,18.84-18.85,16.53-32.84-2.48-15.02-14.24-20.98-23.55-21.52-9.42-.56-17.43,4.07-19.47,11.22-.3,1.04-.51,2.07-.65,3.09h-21.61c-.14-1.02-.35-2.05-.65-3.09-2.05-7.15-10.07-11.77-19.47-11.22-9.31.54-21.07,6.5-23.55,21.52-2.31,13.98,3.25,25,16.53,32.84-16.46,9.89-18.24,23.68-16.53,34.04,2.48,15.02,14.23,20.98,23.55,21.52.5.03,1,.04,1.5.04,8.76,0,16.04-4.5,17.98-11.27.23-.79.4-1.58.53-2.35h21.85c.13.78.31,1.56.53,2.35,1.94,6.77,9.22,11.27,17.98,11.27.49,0,.99-.01,1.5-.04,9.31-.54,21.07-6.5,23.55-21.52,1.71-10.36-.07-24.15-16.53-34.04Zm-49.87,32.31c-.43-.99-.95-1.93-1.58-2.81-2.5-3.46-6.33-5.62-10.26-5.78-7.46-.3-11.81,4.04-13.2,6.66l6.58,3.51s1.67-2.92,6.32-2.71c1.22.05,3.14.79,4.52,2.7,1.09,1.51,2.13,4.19.92,8.42-1.08,3.78-5.96,6.18-11.88,5.83-6.88-.4-14.86-4.62-16.62-15.29-2.16-13.11,4.18-23.01,18.87-29.43l7.82-3.42-7.82-3.42c-19.66-8.59-20.18-20.2-18.87-28.19,1.76-10.67,9.74-14.89,16.62-15.29,5.92-.33,10.79,2.06,11.87,5.83,1.21,4.23.17,6.91-.92,8.42-1.38,1.91-3.3,2.65-4.52,2.7-4.45.21-6.17-2.48-6.32-2.71l-6.58,3.51c1.4,2.61,5.73,6.95,13.2,6.66,3.92-.16,7.76-2.32,10.26-5.78.58-.8,1.07-1.66,1.47-2.55,1.78,7.78,4.02,19.58,4.62,31.81-.58,11.98-2.75,23.56-4.51,31.34Zm59.04.52c-1.76,10.66-9.74,14.89-16.62,15.29-5.92.34-10.79-2.06-11.88-5.83-1.21-4.23-.17-6.91.92-8.42,1.38-1.91,3.3-2.65,4.52-2.7,4.47-.19,6.17,2.48,6.35,2.78l3.25-1.82,3.29-1.76c-1.4-2.62-5.75-6.96-13.2-6.66-3.92.16-7.76,2.32-10.26,5.78-.63.88-1.16,1.82-1.58,2.81-1.76-7.78-3.92-19.35-4.51-31.34.6-12.23,2.84-24.03,4.62-31.81.41.89.89,1.75,1.47,2.55,2.5,3.46,6.33,5.62,10.26,5.78,7.47.31,11.81-4.04,13.2-6.66l-6.54-3.58c-.18.3-1.89,2.97-6.35,2.78-1.22-.05-3.14-.79-4.52-2.7-1.09-1.51-2.13-4.19-.92-8.42,1.08-3.77,5.97-6.15,11.88-5.83,6.88.4,14.86,4.62,16.62,15.29,1.32,7.99.8,19.6-18.87,28.19l-7.82,3.42,7.82,3.42c14.68,6.42,21.03,16.32,18.87,29.43Z"/>
</svg>