<svg id="Symbols" xmlns="http://www.w3.org/2000/svg" viewBox="0 0 150 150"><g id="Layer_6" data-name="Layer 6"><circle cx="70.59" cy="68.32" r="4.45"/><path d="M97,94.31l3.21.33,2.1.27a.5.5,0,0,0,.53-.69l-.82-2-1-2.4h0l2.17-.06,2.12,0a.5.5,0,0,0,.41-.76l-1.1-1.81-1.44-2.35h0l2.24-.37,1.82-.3a.66.66,0,0,0,.4-1.07l-1.18-1.43-1.55-1.88h0l2.06-1.2,1.59-.92a.66.66,0,0,0,0-1.14l-1.6-.92-1.19-.68h0s8.91-.15,10.28-.25a17.86,17.86,0,0,0,7.23-2.1,1.31,1.31,0,0,0,.06-2.26,17.94,17.94,0,0,0-10.7-2.56c-.3,0-.59,0-.88.09h0a17.7,17.7,0,0,0,3.52-1,18,18,0,0,0,6.55-3.72,1.31,1.31,0,0,0-.47-2.21c-3.46-1.12-7.67-2.33-11.4-1.15l1.42-.61c.8-.3.17-.06.94-.49a17.93,17.93,0,0,0,5.67-5,1.31,1.31,0,0,0-.9-2.07c-3.61-.4-8.38-.32-11.8,1.58h0a17.68,17.68,0,0,0,3.08-2.81A18.06,18.06,0,0,0,112,43.8a1.32,1.32,0,0,0-1.56-1.64,17.08,17.08,0,0,0-9.4,5.72,31.23,31.23,0,0,0-3.83,6.72l-.39.8h0s.18-.27-.86,1.68A33.73,33.73,0,0,1,83.22,70.37,31.35,31.35,0,0,1,66.14,75c-6,0-17.87-3-24-11.12h0a10.41,10.41,0,0,1-2.33-6.27A7.81,7.81,0,0,1,40,55.2v-.06c1.36-4.27,4.86-7,11.1-5a13.8,13.8,0,0,1,1.55.6,16.66,16.66,0,0,1,3.34,2,22.23,22.23,0,0,1,3.5,3.33c3.41,4,4,5.95,4,5.95l.79,1.67a.37.37,0,0,0,.65,0l1.87-6.9a.39.39,0,0,1,.67-.15l4.75,5.6h0a.35.35,0,0,0,.54-.3,69.35,69.35,0,0,0-1.59-14.35s0-.06,0-.09c-.21-.85-.45-1.68-.71-2.47v0a9.38,9.38,0,0,0-.56-1.31s0,0,0,0,0,0,0,0a16.73,16.73,0,0,0-2.14-3.35h0A16.57,16.57,0,0,0,50.3,35l-.06,0c-.66.23-1.31.47-2,.73A36.19,36.19,0,0,0,25.73,69.29C25.73,83.75,34.93,97,46,103h0c6.83,3.89,15.62,5.55,22.09,5.78a.65.65,0,0,1,.63.66v11.46H61.21a.72.72,0,0,0-.72.72v.55A2.82,2.82,0,0,0,63.31,125H89.94a2.82,2.82,0,0,0,2.82-2.82v-.55a.72.72,0,0,0-.72-.72H85.26V105.82h0l4-3.24,2.83,1,2,.69a.49.49,0,0,0,.63-.55l-.42-2.11-.21-1.06-.24-1.16,2.47.32,2.13.28a.48.48,0,0,0,.51-.67l-.82-2-1.22-3ZM64.28,42.92a4.27,4.27,0,0,1,2.23,3.9c0,.13,0,.26,0,.37a4.6,4.6,0,0,1-4.59,4.35,4.52,4.52,0,0,1-2.36-.65,4.59,4.59,0,0,1-2.25-4A4.67,4.67,0,0,1,64.28,42.92ZM36.48,64.79l-7.33,6.42C30.48,64.33,36.48,64.79,36.48,64.79ZM31.86,76.87a8.49,8.49,0,0,1,8.91-6,.19.19,0,0,1,.09.35l-8.7,5.86A.2.2,0,0,1,31.86,76.87Zm14.06-1.4-9.2,9.18a.2.2,0,0,1-.33-.17c1.18-7.88,7.5-9.13,9.37-9.33A.19.19,0,0,1,45.92,75.47ZM42.2,91c.18-10.36,8.26-12.81,10.38-13.28a.19.19,0,0,1,.19.31L42.55,91.16A.2.2,0,0,1,42.2,91Zm37.39,29.88H74.37V108.84a.41.41,0,0,1,.35-.39,34,34,0,0,0,4.3-.89.45.45,0,0,1,.57.44Zm1-22A22.09,22.09,0,0,1,76.81,101a23.88,23.88,0,0,1-4.53,1.45A25.61,25.61,0,0,1,59.54,102a15.63,15.63,0,0,1-8.06-5.16C46.37,90,56.81,94.14,63.26,98.3s11.89,3,9.28,0S56.7,94.88,52.87,91s3.28-4.29,10.5-.44a52.46,52.46,0,0,0,11.71,4.64c3.26.78,5.83.74,6.62-.69,1-1.87-1.08-3.09-4.77-4.12-2.22-.62-5-1.17-8-1.76-8-1.56-13.56-3.34-11.56-5.9S72.11,85.57,78,87.62l.18.06c5.78,2,10.33-.44,8.11-2.66-.9-.9-3.45-1.41-6.58-1.83-4.63-.62-10.51-1-14.09-2.11-6-1.84-3.89-3.07,1.91-3,3.74.06,10,.27,14,.42l2.15.09c1.43.05,4.84.82,5.93,1.76C94.39,84.57,88.81,93.26,80.59,98.91ZM94,76.39a.23.23,0,0,1-.32.3L90.6,74.93l-3-1.75a.48.48,0,0,1,0-.84l3-1.75,3-1.74a.25.25,0,0,1,.34.33l-1.62,3.09a1,1,0,0,0,0,1Zm6.86-4.19-1.21.63-1.73.9,1.47-2.55.09-.16,1.17-2a.24.24,0,0,1,.43,0l1.25,2.18,1.49,2.55Z"/></g></svg>