<?xml version="1.0" encoding="UTF-8"?>
<svg id="Symbols" xmlns="http://www.w3.org/2000/svg" viewBox="0 0 150 150">
  <path d="m104.56,65.1l-20.43-3.12-9.13-19.46-9.13,19.46-20.43,3.12,14.78,15.15-3.49,21.39,18.27-10.1,18.27,10.1-3.49-21.39,14.78-15.15Zm-29.61,18.74c-4.82,0-8.74-3.91-8.74-8.74s3.91-8.74,8.74-8.74,8.74,3.91,8.74,8.74-3.91,8.74-8.74,8.74Z"/>
  <path d="m72.88,123.03c-1.09,3.62-.2,6.95,2.45,6.97,2.65.03,5.81-3.55,6.61-7.48.36-1.48.5-3.54.44-5.59-.1-3.11,1.75-5.92,4.52-6.98.05-.02.09-.04.14-.05,4.02-1.56,8.42,1.08,9.18,5.54.19,1.14.39,2.16.57,2.93,1.06,3.86,4.11,5.33,6.69,3.13,2.58-2.18,3.41-6.84,1.95-10.43-.52-1.39-1.63-3.28-2.91-5.01-1.77-2.39-1.74-5.66.03-8.05l.09-.11c2.36-3.18,6.85-3.35,9.42-.36.82.95,1.57,1.76,2.15,2.33,2.69,2.42,5.98,2.57,7.45.36,1.48-2.2.26-6.27-2.83-8.95-1.2-1.1-3.18-2.36-5.24-3.36-.05-.03-.1-.06-.15-.09-2.56-1.4-3.85-4.13-3.24-6.7.01-.05.02-.1.04-.16.86-3.7,4.85-5.79,8.79-4.24l3.33,1.25c3.97,1.34,7.61.26,7.64-2.98.03-3.24-3.88-7.09-8.18-8.08-1.92-.52-4.75-.67-7.36-.47-2.91.23-5.62-1.58-6.65-4.47-.02-.05-.03-.1-.05-.14-1.46-4.02,1-8.45,5.02-9.18,1.27-.23,2.4-.47,3.24-.69,3.65-1.12,5.04-4.33,2.97-7.07-2.06-2.72-6.47-3.61-9.87-2.06-1.35.57-3.18,1.77-4.86,3.18-2.23,1.86-5.35,1.8-7.58-.06-.38-.32-.78-.59-1.23-1.34-1.78-2.9-1.2-6.76,1.21-9.11.75-.73,1.4-1.41,1.86-1.94,2.29-2.85,2.43-6.32.35-7.87-2.07-1.56-5.93-.28-8.47,2.99-.72.87-1.5,2.13-2.22,3.53-.02-.03-.03-.06-.05-.09-.14.32-.27.65-.4.98-.22.47-.43.94-.64,1.42-1.24,2.22-3.45,3.44-5.71,3.13-.05,0-.1-.01-.16-.02-1.59-.21-2.95-1.15-3.89-2.49-1.36-1.94-1.54-4.55-.69-6.8.19-.5.36-.96.5-1.37,1.1-3.63.21-6.99-2.45-7.01-2.66-.03-5.82,3.55-6.63,7.5-.37,1.51-.51,3.63-.44,5.71.11,3.14-1.76,5.97-4.55,7.05-.06.02-.11.04-.17.07-4,1.56-8.34-1.11-9.08-5.55-.2-1.21-.41-2.28-.59-3.09-1.06-3.86-4.11-5.33-6.69-3.13-2.58,2.18-3.41,6.84-1.95,10.43.53,1.4,1.65,3.31,2.96,5.07,1.79,2.4,1.76,5.69-.03,8.09l-.09.11c-2.36,3.16-6.85,3.33-9.4.34-.84-.98-1.62-1.82-2.21-2.41-2.69-2.42-5.98-2.57-7.45-.36-1.48,2.19-.26,6.27,2.83,8.95,1.35,1.25,3.7,2.68,6.03,3.72,2.12,1.4,3.23,3.82,2.81,6.23,0,.05-.02.11-.03.16-.36,2.18-1.88,3.85-3.85,4.67-1.71.71-3.65.56-5.34-.18-1.21-.53-2.3-.98-3.16-1.33-3.97-1.34-7.61-.26-7.64,2.98-.03,3.24,3.88,7.09,8.18,8.08,1.91.51,4.73.67,7.33.47,2.93-.23,5.61,1.61,6.65,4.51.02.05.03.1.05.14,1.45,4.02-1.02,8.42-5.02,9.15-1.26.23-2.37.47-3.2.68-3.65,1.12-5.04,4.34-2.97,7.07,2.06,2.73,6.47,3.61,9.87,2.06,1.32-.56,3.12-1.74,4.78-3.11,2.24-1.86,5.36-1.79,7.59.08.04.03.07.06.11.09,2.98,2.48,3.24,7.16.43,9.85-.94.9-1.74,1.73-2.3,2.36-2.29,2.84-2.43,6.32-.35,7.87,2.07,1.56,5.93.28,8.47-2.99.94-1.13,1.99-2.94,2.88-4.86.33-.72.77-1.39,1.26-2.02,0,0,0,0,0-.01,1.83-2.37,4.65-3.15,6.95-1.99.05.02.09.05.14.07,1.84.91,2.95,2.85,3.2,5.04.14,1.29-.1,2.6-.55,3.82l-.62,1.66Zm5.49-15.4c-19.71,2.21-36.24-15.26-34.15-36.09,1.52-15.17,13.07-27.37,27.42-28.98,19.71-2.21,36.24,15.26,34.15,36.09-1.53,15.29-12.96,27.36-27.43,28.98Z"/>
</svg>