<?xml version="1.0" encoding="UTF-8"?>
<svg id="Symbols" xmlns="http://www.w3.org/2000/svg" viewBox="0 0 150 150">
  <path d="m129.14,101.9c-.86-6.78-4.43-12.52-9.79-15.74-5.55-3.34-11.98-5.14-17.99-5.15.32-1.7.49-3.44.49-5.23,0-2.12-.23-4.18-.67-6.17,5.89-.1,12.18-1.9,17.56-5.14,5.36-3.23,8.93-8.97,9.79-15.74.99-7.78-1.68-15.53-7.33-21.28-5.27-5.37-12.34-7.89-19.39-6.93-6.91.95-13.04,5.15-16.4,11.25-2.87,5.22-4.45,11.14-4.56,16.8-2.11-.52-4.31-.81-6.58-.81-2.44,0-4.8.33-7.05.93-.09-5.69-1.67-11.66-4.56-16.92-3.36-6.1-9.49-10.3-16.4-11.25-7.05-.97-14.12,1.56-19.39,6.93-5.64,5.75-8.31,13.51-7.33,21.28.86,6.78,4.43,12.52,9.79,15.74,5.55,3.34,12.02,5.16,18.04,5.16-.44,1.98-.67,4.03-.67,6.14,0,1.79.17,3.55.49,5.25-5.8.17-11.99,1.98-17.25,5.14-5.36,3.23-8.93,8.97-9.79,15.74-.99,7.78,1.68,15.53,7.33,21.28,4.53,4.61,10.39,7.13,16.42,7.13.98,0,1.97-.07,2.96-.2,6.91-.95,13.04-5.15,16.4-11.25,2.7-4.9,4.27-10.47,4.53-15.85,2.08.51,4.25.79,6.48.79,2.49,0,4.91-.34,7.21-.97.23,5.43,1.8,11.06,4.54,16.04,3.36,6.1,9.49,10.3,16.4,11.25.99.14,1.98.2,2.96.2,6.04,0,11.89-2.51,16.42-7.13,5.64-5.75,8.31-13.51,7.33-21.28Zm-37.19-66.54c2.23-4.04,6.3-6.83,10.89-7.46,4.76-.66,9.4,1.04,13.05,4.76,4.04,4.11,5.95,9.62,5.25,15.12-.57,4.5-2.84,8.25-6.24,10.29-5.09,3.07-11.39,4.56-16.6,3.96-2.35-4.23-5.75-7.78-9.85-10.28-.59-5.22.7-11.32,3.49-16.39Zm-.97,24.17v33.6h-16.39l16.36-16.62-16.71-16.98h16.75Zm-33.07,33.6v-16.62l16.37,16.62h-16.37Zm16.22-33.6l-16.22,16.49v-16.49h16.22Zm-40.95-1.46c-3.39-2.04-5.66-5.79-6.24-10.29-.7-5.5,1.22-11.01,5.25-15.12,3.65-3.72,8.29-5.41,13.05-4.76,4.59.63,8.66,3.42,10.89,7.46,2.85,5.17,4.14,11.41,3.46,16.7-3.85,2.47-7.06,5.87-9.31,9.9-5.31.76-11.82-.71-17.1-3.89Zm23.56,57.18c-2.23,4.04-6.3,6.83-10.89,7.46-4.76.65-9.4-1.04-13.05-4.76-4.04-4.11-5.95-9.62-5.25-15.12.57-4.5,2.84-8.25,6.24-10.29,4.94-2.97,10.82-4.42,15.95-4,2.39,4.74,6.08,8.69,10.58,11.38.31,4.97-.98,10.62-3.57,15.33Zm59.75,2.7c-3.65,3.72-8.29,5.42-13.05,4.76-4.59-.63-8.66-3.42-10.88-7.46-2.69-4.88-3.97-10.72-3.54-15.81,4.13-2.66,7.52-6.41,9.77-10.84,5.24-.64,11.55.83,16.72,3.94,3.39,2.04,5.66,5.79,6.24,10.29.7,5.5-1.22,11.01-5.25,15.12Z"/>
</svg>