<?xml version="1.0" encoding="UTF-8"?>
<svg id="Symbols" xmlns="http://www.w3.org/2000/svg" viewBox="0 0 150 150">
  <path d="m75.6,130c-.6,0-1.2-.03-1.81-.1-7.26-.8-13.27-6.62-14.29-13.84-.74-5.2.97-10.29,4.68-13.96,1.88-1.86,2.92-4.2,2.92-6.59v-6.12c0-1.53-.62-3.02-1.7-4.1-1.14-1.15-2.63-1.76-4.16-1.76h-6.75c-2.39,0-4.74,1.04-6.61,2.93-3.08,3.12-7.2,4.83-11.58,4.83-4.63,0-9.06-1.98-12.15-5.43-3.09-3.45-4.56-8.08-4.05-12.71.8-7.26,6.62-13.27,13.84-14.29,5.2-.74,10.29.97,13.95,4.68,1.86,1.88,4.2,2.92,6.59,2.92h6.75c1.53,0,3.02-.62,4.1-1.7l.07-.07c1.08-1.07,1.7-2.56,1.7-4.09v-6.12c0-2.39-1.04-4.74-2.93-6.61-3.12-3.08-4.83-7.2-4.83-11.58,0-4.63,1.98-9.06,5.43-12.15,3.45-3.09,8.08-4.57,12.71-4.05,7.26.8,13.27,6.62,14.29,13.84.74,5.21-.97,10.29-4.68,13.96-1.88,1.86-2.92,4.2-2.92,6.59v6.12c0,1.53.62,3.02,1.7,4.09l.07.07c.72.73,2.01,1.7,4.85,1.7h4.73c2.39,0,4.74-1.04,6.59-2.92,3.66-3.71,8.75-5.42,13.95-4.68,7.21,1.02,13.03,7.03,13.84,14.29.51,4.63-.96,9.27-4.05,12.71-3.09,3.45-7.52,5.43-12.15,5.43-4.38,0-8.49-1.72-11.58-4.83-1.87-1.89-4.22-2.93-6.61-2.93h-5.48c-1.53,0-3.02.62-4.1,1.7l-.09.09c-1.05,1.04-1.67,2.54-1.67,4.07v6.12c0,2.39,1.04,4.74,2.93,6.61,3.12,3.08,4.83,7.2,4.83,11.58,0,4.63-1.98,9.06-5.43,12.15-3,2.68-6.89,4.15-10.9,4.15Zm-21.12-53.92h6.75c3.5,0,6.92,1.42,9.39,3.9,2.51,2.5,3.93,5.92,3.93,9.42v6.12c0,4.4-1.82,8.63-5.14,11.9-2.01,1.99-2.94,4.76-2.53,7.6.55,3.89,3.8,7.04,7.73,7.47,2.57.28,5.02-.5,6.92-2.2,1.87-1.68,2.95-4.08,2.95-6.59,0-2.38-.93-4.61-2.62-6.28-3.32-3.28-5.14-7.51-5.14-11.91v-6.12c0-3.5,1.42-6.92,3.9-9.39,2.5-2.51,5.92-3.93,9.42-3.93h5.48c4.4,0,8.63,1.83,11.91,5.14,1.67,1.69,3.9,2.62,6.28,2.62,2.51,0,4.91-1.07,6.59-2.95,1.7-1.9,2.48-4.35,2.2-6.92-.43-3.92-3.58-7.17-7.47-7.72h0c-2.84-.4-5.61.52-7.6,2.53-3.27,3.31-7.5,5.14-11.9,5.14h-4.73c-4.16,0-7.57-1.31-10.14-3.9-2.51-2.49-3.93-5.92-3.93-9.42v-6.12c0-4.4,1.82-8.63,5.14-11.9,2.01-1.99,2.94-4.76,2.53-7.6-.55-3.89-3.8-7.04-7.73-7.47-2.56-.28-5.02.5-6.92,2.2-1.87,1.68-2.95,4.08-2.95,6.59,0,2.38.93,4.61,2.62,6.28,3.32,3.28,5.14,7.51,5.14,11.91v6.12c0,3.5-1.42,6.92-3.9,9.39-2.49,2.51-5.92,3.93-9.42,3.93h-6.75c-4.4,0-8.63-1.82-11.9-5.14-1.99-2.01-4.76-2.94-7.6-2.54-3.9.55-7.04,3.8-7.47,7.72-.28,2.56.5,5.02,2.2,6.92,1.68,1.87,4.08,2.95,6.59,2.95,2.38,0,4.61-.93,6.28-2.62,3.28-3.32,7.51-5.14,11.91-5.14Z"/>
</svg>