<svg id="Symbols" xmlns="http://www.w3.org/2000/svg" viewBox="0 0 150 150"><title>Tamfo Bebre-bold</title><path id="Bold" d="M114.86,77.85c-7.62.46-14.17,8.18-19.94,15l-1.47,1.73c-.61-6.17-1-12.74-1-19.57s.34-13.4,1-19.57l1.47,1.73c5.77,6.81,12.32,14.53,19.94,15,.33,0,.65,0,1,0a16,16,0,0,0,15.9-15A13.56,13.56,0,0,0,119,42.86a11.65,11.65,0,0,0-12.33,10.91l8,.49a3.64,3.64,0,0,1,3.85-3.42,5.56,5.56,0,0,1,3.82,1.87,5.5,5.5,0,0,1,1.39,4,8,8,0,0,1-8.41,7.44C111.14,63.91,105.53,57.3,101,52c-2.16-2.54-4.2-4.95-6.22-6.9a101.73,101.73,0,0,1,5.15-20C94.2,29,85.16,31.5,75,31.5s-19.2-2.52-25-6.43a101.73,101.73,0,0,1,5.15,20c-2,2-4.06,4.36-6.22,6.9C44.47,57.3,38.86,63.91,34.65,64.17a8,8,0,0,1-8.41-7.44,5.5,5.5,0,0,1,1.39-4,5.56,5.56,0,0,1,3.82-1.87,3.64,3.64,0,0,1,3.85,3.42l8-.49A11.65,11.65,0,0,0,31,42.86a13.56,13.56,0,0,0-12.7,14.35,16,16,0,0,0,15.9,15l1,0c7.62-.46,14.17-8.18,19.94-15l1.47-1.73c.61,6.17,1,12.74,1,19.57s-.34,13.4-1,19.57l-1.47-1.73c-5.77-6.81-12.32-14.53-19.94-15A15.94,15.94,0,0,0,18.26,92.79,13.56,13.56,0,0,0,31,107.14c.24,0,.48,0,.72,0A11.64,11.64,0,0,0,43.29,96.23l-8-.49a3.64,3.64,0,0,1-3.85,3.42,5.56,5.56,0,0,1-3.82-1.87,5.5,5.5,0,0,1-1.39-4,8,8,0,0,1,8.41-7.44C38.86,86.09,44.47,92.7,49,98c2.16,2.54,4.2,5,6.22,6.9a101.73,101.73,0,0,1-5.15,20c5.75-3.91,14.79-6.43,25-6.43s19.2,2.52,25,6.43a101.73,101.73,0,0,1-5.15-20c2-2,4.06-4.36,6.22-6.9,4.51-5.32,10.12-11.93,14.33-12.19a8,8,0,0,1,8.41,7.44,5.5,5.5,0,0,1-1.39,4,5.56,5.56,0,0,1-3.82,1.87,3.64,3.64,0,0,1-3.85-3.42l-8,.49a11.64,11.64,0,0,0,11.61,10.93c.24,0,.48,0,.72,0a13.56,13.56,0,0,0,12.7-14.35A16,16,0,0,0,114.86,77.85ZM87.92,111.77a66.35,66.35,0,0,0-25.84,0A187.71,187.71,0,0,0,65.5,75a187.71,187.71,0,0,0-3.42-36.77A65.23,65.23,0,0,0,75,39.5a65.23,65.23,0,0,0,12.92-1.27A187.71,187.71,0,0,0,84.5,75,187.71,187.71,0,0,0,87.92,111.77Z"/></svg>