<?xml version="1.0" encoding="UTF-8"?>
<svg id="Symbols" xmlns="http://www.w3.org/2000/svg" viewBox="0 0 150 150">
  <path d="m130,29.23c-1.5,11.45-4.89,22.29-10.02,29.85-5.45-10.84-14.85-19.45-26.37-24.05,2.05-1.54,3.38-3.94,3.38-6.64,0-4.64-3.9-8.4-8.71-8.4s-8.71,3.76-8.71,8.4c0,1.18.25,2.3.71,3.31-1.88-.21-3.79-.33-5.73-.33-1.82,0-3.61.1-5.38.28.44-1,.68-2.11.68-3.27,0-4.64-3.9-8.4-8.71-8.4s-8.71,3.76-8.71,8.4c0,2.65,1.28,5.01,3.26,6.55-11.34,4.46-20.65,12.82-26.19,23.37-4.85-7.53-8.06-18.02-9.52-29.09l.11,12.3c0,10.12,2.24,18.49,6.12,24.65-1.45,4.59-2.24,9.46-2.24,14.52,0,27.19,22.68,49.3,50.56,49.3s50.56-22.12,50.56-49.3c0-4.7-.69-9.25-1.96-13.56,4.27-6.24,6.74-14.95,6.74-25.61l.11-12.3Zm-15.82,36.32c-3.28,2.63-7.03,4.12-11.21,4.09-13.05-.09-23.96-13.04-26.75-30.5,17.28.66,31.94,11.42,37.96,26.4Zm-40.39-26.43c-2.78,17.46-13.7,30.43-26.75,30.52-4.47.03-8.44-1.69-11.88-4.66,6.27-14.94,21.18-25.55,38.63-25.85Zm28.1,73.41c0-4.64-3.9-8.4-8.71-8.4s-8.71,3.76-8.71,8.4c0,3.13,1.78,5.86,4.41,7.31-4.48,1.57-9.31,2.43-14.34,2.43s-9.96-.88-14.48-2.48c2.59-1.46,4.33-4.16,4.33-7.26,0-4.64-3.9-8.4-8.71-8.4s-8.59,3.66-8.7,8.22c-9.17-7.63-15.01-18.99-15.01-31.66,0-2.52.24-4.98.68-7.37,4.07,3.07,8.95,4.71,14.38,4.71,13.69,0,25.13-13.76,27.95-32.15,2.82,18.38,14.26,32.15,27.95,32.15,5.08,0,9.68-1.44,13.58-4.14.38,2.22.58,4.49.58,6.81,0,12.77-5.93,24.21-15.23,31.84Z"/>
</svg>