<?xml version="1.0" encoding="UTF-8"?>
<svg id="Symbols" xmlns="http://www.w3.org/2000/svg" viewBox="0 0 150 150">
  <ellipse cx="77.82" cy="52.45" rx="12.16" ry="21.8"/>
  <path d="m100.9,110.5c-.76-1.07-1.19-2.33-1.23-3.63l-.41-13.32-.02-.26c0-.06-.01-.13-.02-.16v-.07s-.04-1.77-.04-1.77c0-.14.05-.29.16-.44l.34-.44.2-.53c.86-2.31,2.52-4.45,4.27-6.71,1.61-2.08,3.27-4.23,4.59-6.8,1.67-3.26,1.65-7.31-.07-11.41-1.88-4.48-5.53-8.58-9.37-10.82.01-.43.02-.85.02-1.28,0-18.42-9.41-32.86-21.43-32.86-10.93,0-19.7,11.94-21.2,27.96-4.45-1.66-8.03-.49-10.1.63-4.08,2.23-6.97,6.84-6.58,10.49l1.76,16.18c.27,2.5,1.41,4.85,3.2,6.62,2.79,2.75,7.22,6.48,12.47,8.6.4.16.66.49.65.81l-.47,15.59c-.04,1.3-.46,2.56-1.23,3.63l-7.16,10.07c-1.28,1.8-1.47,4.14-.5,6.13.99,2.03,2.98,3.3,5.2,3.3h49.41c2.22,0,4.21-1.26,5.2-3.3.97-1.99.77-4.34-.5-6.13l-7.16-10.07Zm-22.99-83.05c7.72,0,14.25,11.63,14.25,25.4s-6.53,25.4-14.25,25.4-14.25-11.63-14.25-25.4,6.53-25.4,14.25-25.4Zm-21.13,95.08l5.41-7.61c1.63-2.3,2.54-5,2.63-7.82l.47-15.59c.11-3.47-1.99-6.69-5.22-7.99-4.38-1.77-8.23-5.19-10.14-7.06-.58-.57-.93-1.28-1.01-2.04l-1.74-16c.16-.73,1.33-2.71,3.37-3.5,1.8-.7,3.82-.23,6.03,1.34,1.08,16.77,10.05,29.46,21.32,29.46,9.78,0,17.84-9.57,20.5-23.07,1.48,1.43,2.86,3.29,3.7,5.29.58,1.39,1.11,3.37.31,4.92-1.01,1.96-2.39,3.75-3.86,5.65-1.92,2.48-3.9,5.04-5.18,8.2-.94,1.43-1.42,3.12-1.37,4.82l.04,1.27c-.01.36,0,.73.03,1.12l.4,13.2c.09,2.82.99,5.53,2.63,7.82l5.41,7.61h-43.75Z"/>
  <path d="m52.67,57.86c-1.4,0-2.54,1.13-2.54,2.53s1.14,2.53,2.54,2.53,2.54-1.13,2.54-2.53-1.14-2.53-2.54-2.53Z"/>
</svg>