<?xml version="1.0" encoding="UTF-8"?>
<svg id="Symbols" xmlns="http://www.w3.org/2000/svg" viewBox="0 0 150 150">
  <polygon points="78.55 116.27 75.83 110.72 73.11 116.27 67.03 117.16 71.43 121.48 70.39 127.59 75.83 124.7 81.28 127.59 80.24 121.48 84.64 117.16 78.55 116.27"/>
  <path d="m21.34,79.49c1.54.73,3.26,1.15,5.07,1.15,6.6,0,11.95-5.39,11.95-12.04s-5.35-12.03-11.95-12.03c-.86,0-1.7.1-2.51.27,4.06,1.92,6.88,6.07,6.88,10.88,0,5.78-4.05,10.61-9.45,11.77Z"/>
  <path d="m112.97,68.6c0,6.65,5.35,12.04,11.95,12.04,1.82,0,3.53-.42,5.07-1.15-5.4-1.16-9.45-5.98-9.45-11.77,0-4.82,2.82-8.96,6.88-10.88-.81-.17-1.65-.27-2.51-.27-6.6,0-11.95,5.39-11.95,12.03Z"/>
  <path d="m121.61,109.3c.49-5.35-3.2-10.12-8.25-10.64-.84-.09-1.66-.04-2.45.1-2.12-2.95-4.25-5.89-6.39-8.82.34-.87.57-1.82.67-2.81.49-5.35-3.2-10.12-8.25-10.64-.78-.08-1.55-.04-2.29.08-2.12-2.85-4.23-5.71-6.33-8.56l35.95-43.15c.59-.71.53-1.76-.14-2.4-.67-.64-1.72-.64-2.39,0l-.2.19-2.41-2.65-5.93,5.47,2.43,2.67,3.85-3.55-37.18,35.19c-2.43-3.35-4.83-6.7-7.19-10.07-1.42-2.22-3.01-4.7-4.6-7.2-9.32-16.24-15.85-21.26-19.1-21.49-3.25-.23-21.42,2.57-29.43,11.23-8.01,8.66,10.17,8.07,20.36,11.14,4.07,1.23,9.82,5.83,14.65,10.23,4.9,5.45,9.89,10.76,14.91,16l-17.11,16.19-1.56-1.71,2.51-2.23c1.67-1.48,1.83-4.04.36-5.71-1.47-1.68-4.01-1.84-5.68-.36l-10.29,9.14c-1.67,1.48-1.83,4.04-.36,5.71.8.91,1.9,1.37,3.02,1.37.94,0,1.89-.33,2.66-1.01l1.75-1.55,1.74,1.9-25.91,24.52c-.73.69-.73,1.86,0,2.55l11.64,11.08c.73.69,1.89.63,2.53-.15l18.61-22.34c2.69,2.42,6.66,4.09,10.07,4.17.1,0,.2,0,.3,0,7.87,0,14.37-6.74,14.55-15.17.11-5-2.56-9.78-5.36-12.48l4.64-5.56c2.25,2.31,4.5,4.61,6.75,6.9.06.06.11.11.17.17,0,.06-.02.13-.03.19-.49,5.35,3.2,10.12,8.25,10.64.78.08,1.54.04,2.27-.08,2.41,2.49,4.81,4.99,7.19,7.5-.69,1.21-1.16,2.59-1.29,4.1-.49,5.35,3.2,10.12,8.25,10.64,1.99.21,3.88-.28,5.48-1.27,3.28,3.68,6.51,7.41,9.66,11.21l2.6-1.92c-2.8-4.5-5.7-8.94-8.66-13.33.5-1.05.84-2.21.95-3.44Zm-48.93-13.44c-.09,4.07-3.06,7.3-6.64,7.24-1.56-.03-3.87-1.08-5.07-2.28l9.2-11.05c1.33,1.46,2.55,3.88,2.51,6.08Z"/>
</svg>