<svg id="Symbols" xmlns="http://www.w3.org/2000/svg" viewBox="0 0 150 150"><title>UAC Nkanea-bold</title><g id="Bold"><polygon points="32.41 32.41 71.3 32.41 71.3 68.98 78.7 68.98 78.7 55.56 109.72 55.56 109.72 48.15 78.7 48.15 78.7 32.41 78.7 28.7 78.7 25 25 25 25 63.89 32.41 63.89 32.41 32.41"/><polygon points="32.41 78.7 68.98 78.7 68.98 71.3 55.56 71.3 55.56 40.28 48.15 40.28 48.15 71.3 32.41 71.3 30.02 71.3 25 71.3 25 125 63.89 125 63.89 117.59 32.41 117.59 32.41 78.7"/><polygon points="117.59 117.59 78.7 117.59 78.7 81.02 71.3 81.02 71.3 94.45 40.28 94.45 40.28 101.86 71.3 101.86 71.3 117.59 71.3 121.3 71.3 125 125 125 125 86.11 117.59 86.11 117.59 117.59"/><polygon points="86.11 25 86.11 32.41 117.59 32.41 117.59 71.3 81.02 71.3 81.02 78.7 94.45 78.7 94.45 109.73 101.85 109.73 101.85 78.7 117.59 78.7 122.61 78.7 125 78.7 125 25 86.11 25"/></g></svg>