<?xml version="1.0" encoding="UTF-8"?>
<svg id="Symbols" xmlns="http://www.w3.org/2000/svg" viewBox="0 0 150 150">
  <path d="m129.67,74.58c0-17.94-14.88-33.27-35.74-39.23l1.17-4.51c.42-1.63,1.92-2.76,3.65-2.76h9.07v-8.29h-9.07c-5.03,0-9.47,3.6-10.81,8.76l-1.34,5.16c-2.67-.45-5.41-.75-8.2-.9v-12.83h-7.46v12.83c-2.97.15-5.87.49-8.7.98l-1.32-5.07c-1.34-5.16-5.79-8.76-10.81-8.76h-9.07v8.3h9.07c1.72,0,3.22,1.14,3.65,2.77l1.16,4.48c-20.6,6.06-35.25,21.29-35.25,39.08s14.98,33.37,35.94,39.29l-1.21,4.72c-.43,1.67-1.93,2.84-3.64,2.84h-9.07v8.29h9.07c5.03,0,9.48-3.65,10.82-8.87l1.37-5.36c2.6.43,5.27.72,7.99.86v13.43h7.46v-13.43c2.54-.13,5.03-.38,7.46-.77l1.35,5.26c1.34,5.22,5.78,8.87,10.82,8.87h9.07v-8.29h-9.07c-1.72,0-3.21-1.17-3.64-2.84l-1.17-4.57c21.23-5.81,36.46-21.29,36.46-39.43Zm-102.54,0c0-17.63,19.34-32.13,43.81-33.48v66.95c-24.48-1.35-43.81-15.84-43.81-33.48Zm51.27,33.48V41.1c24.48,1.35,43.81,15.84,43.81,33.48s-19.34,32.13-43.81,33.48Z"/>
</svg>