<?xml version="1.0" encoding="UTF-8"?>
<svg id="Symbols" xmlns="http://www.w3.org/2000/svg" viewBox="0 0 150 150">
  <path d="m90.31,20c-5.51,0-10.71,2.04-15.33,5.66-4.62-3.62-9.82-5.66-15.32-5.66-19.14,0-34.66,24.62-34.66,55s15.52,55,34.66,55c5.5,0,10.7-2.04,15.32-5.66,4.62,3.62,9.83,5.66,15.33,5.66,19.16,0,34.69-24.62,34.69-55s-15.53-55-34.69-55Zm-24.67,45.12c-2.76,2.11-4.58,5.67-4.58,9.72,0,4.64,2.4,8.65,5.88,10.55l-8.63,16.84h9.44c-2.65,11.31-6.82,17.62-11.78,17.62-8.12,0-14.71-19.93-14.71-44.51s6.59-44.51,14.71-44.51c4.97,0,9.37,7.47,12.03,18.89l.23,1.09h-9.92l7.33,14.31Zm9.36,16.34c-3.57,0-6.46-2.89-6.46-6.46s2.89-6.46,6.46-6.46,6.46,2.89,6.46,6.46-2.89,6.46-6.46,6.46Zm18.66,38.38c-5.09,0-9.36-6.31-12.08-17.6h1.09s8.59-.01,8.59-.01l-8.84-16.84c3.56-1.9,6.02-5.9,6.02-10.55,0-4.04-1.86-7.61-4.69-9.72l7.51-14.31h-10.17l.23-1.09c2.73-11.43,7.24-18.89,12.33-18.89,8.33,0,15.08,19.93,15.08,44.51s-6.75,44.51-15.08,44.51Z"/>
</svg>