<?xml version="1.0" encoding="UTF-8"?>
<svg id="Symbols" xmlns="http://www.w3.org/2000/svg" viewBox="0 0 150 150">
  <path d="m129.7,106.35c-.89-4.94-3.66-9.23-7.8-12.08-7.12-4.91-16.93-3.13-21.88,3.97-2.02,2.93-2.79,6.47-2.16,9.96.64,3.51,2.61,6.57,5.55,8.6,5.16,3.56,12.26,2.27,15.85-2.89,1.13-1.64,1.74-3.56,1.75-5.56l-7.4-.06c0,.34-.08.86-.42,1.36-1.26,1.81-3.77,2.26-5.59,1-1.3-.9-2.17-2.24-2.45-3.78-.28-1.53.06-3.08.94-4.35,2.62-3.77,7.84-4.71,11.63-2.09,2.49,1.72,4.16,4.29,4.69,7.26.53,2.94-.12,5.91-1.83,8.38-4.74,6.83-14.18,8.55-21.04,3.81-5.33-3.67-7.72-7.89-8.01-14.12-.22-4.79,2.19-9.07,4.32-11.28,3.83-3.98,6.73-5.62,10.75-7.9,2.77-1.57,5.92-3.35,10.04-6.24,4.5-3.16,6.77-7.6,6.39-12.52-.6-7.69-7.48-15.47-18.34-20.77l-.09-.05c-.09-.06-.19-.12-.29-.17-7.06-4.09-45.01-20.87-50.04-23.09-10.17-6.72-23.95-4.11-30.92,5.93-2.85,4.1-3.93,9.07-3.05,13.99.89,4.94,3.66,9.23,7.8,12.08,7.12,4.91,16.93,3.13,21.88-3.97,2.02-2.93,2.79-6.47,2.16-9.96-.64-3.51-2.61-6.56-5.55-8.6-5.15-3.56-12.26-2.27-15.85,2.89-1.13,1.64-1.74,3.56-1.75,5.56l7.4.06c0-.5.15-.96.42-1.36,1.26-1.81,3.77-2.26,5.59-1,1.3.9,2.17,2.24,2.45,3.78.28,1.53-.06,3.08-.94,4.35-2.62,3.77-7.84,4.71-11.63,2.09-2.49-1.72-4.16-4.29-4.69-7.26-.53-2.94.12-5.92,1.83-8.38,4.74-6.83,14.18-8.55,21.04-3.81,5.32,3.67,7.72,7.89,8.01,14.12.22,4.79-2.19,9.07-4.32,11.28-3.83,3.98-6.73,5.62-10.75,7.9-2.77,1.57-5.92,3.35-10.04,6.24-4.5,3.16-6.77,7.6-6.39,12.52.6,7.67,7.46,15.44,18.36,20.78l.07.04c.1.06.19.12.29.17,7.08,4.1,45.22,20.96,50.08,23.11,3.8,2.5,8.09,3.71,12.35,3.71,7.14,0,14.17-3.38,18.53-9.66,2.85-4.1,3.93-9.07,3.05-13.99Zm-62.41-8.93s-8.4.75-14.2-3.88c-5.28-4.33-.71-8.94-.71-8.94h0s0,0,0,0c0,0,4.23-4.79,9.4-.32,5.61,4.84,5.62,13.02,5.62,13.03.02.14-.11.12-.11.12Zm7.72-15.29c-3.97,0-7.18-3.19-7.18-7.12s3.22-7.12,7.18-7.12,7.18,3.19,7.18,7.12-3.22,7.12-7.18,7.12Zm11.65-18.09c-6.04-4.39-7.19-12.38-7.19-12.39,0,0-.05-.12.1-.13.01,0,8.33-1.79,14.54,2.38,5.72,3.84,1.82,8.83,1.82,8.84h0s0,0,0,0c0,0-3.65,5.28-9.27,1.31Z"/>
</svg>