<?xml version="1.0" encoding="UTF-8"?>
<svg id="icons" xmlns="http://www.w3.org/2000/svg" viewBox="0 0 120 120">
  <path d="m33.36,110.16c-.66,0-1.32-.13-1.95-.4-1.55-.66-2.66-2.04-2.97-3.71-1.08-5.77-1.27-13.7-1.29-17.57-2.95,4.26-4.76,12.33-5.43,15.74-.22,1.11-.9,2.08-1.87,2.65-.96.56-2.11.69-3.17.35-1.71-.56-2.83-2.23-2.71-4.06.39-6,4.04-13.48,6.18-17.4l-7.07,9.26c-.99,1.29-2.73,1.77-4.23,1.15-1.06-.43-1.84-1.31-2.15-2.43-.31-1.12-.08-2.29.62-3.21l7.45-10.94c1.35-1.79,3.42-2.81,5.58-2.81h1.89c.25,0,.41-.13.48-.21.08-.08.21-.27.21-.54l-.73-28.96c-.04-1.36.89-2.58,2.22-2.88l6.17-1.39c.1-.02.15-.08.18-.13.03-.05.06-.14.03-.25-1.19-4.3-5.28-18.75-7.72-24.18-1.87-4.14-.64-7.15,1.4-8.3,2.09-1.17,5.38-.59,8.37,3.11,2.2-2.28,7.17-6.24,14.91-5.85,7.98.39,11.43,4.27,14.04,7.88,1.89,2.62,2.46,5.5,2.62,7.33,2.58.19,4.32,1.68,4.69,4.11.55,3.57-3.32,6.24-5.46,7.42,1.07,11.3-2.86,18.02-4.79,20.58l14.88,16.08.32-.17c2.2-.83,6.29-2.39,9.64-1.81,6.33,1.09,13.42,9.87,18.59,16.28,1.67,2.07,3.11,3.85,4.21,4.99,3.5,3.63,3.54,6.58,2.41,8.12-1.06,1.45-3.09,1.71-5.17.68-1.72-.85-5.03-4.36-10.29-10.02-2.87-3.09-6.81-7.33-9.28-9.55,1.2,1.52,3.13,3.58,4.91,5.48l.78.83c9.79,10.47,10.59,14.33,10.34,16.33-.13,1.08-.68,1.95-1.57,2.52-3.82,2.46-8.08-3.38-12.59-9.56-1.25-1.71-2.54-3.48-3.77-4.99-4.61-5.67-6.49-6.73-7.07-6.93.25,1.95,6.12,8.85,8.97,12.21,1.75,2.06,3.27,3.85,4.24,5.15,2.17,2.92,1.71,5.69.14,6.91-1.79,1.4-5.42,1.15-9.74-4.14-3.01-3.69-5.45-8.06-7.41-11.57-1.21-2.17-2.67-4.79-3.57-5.78.02,1.46,1.21,5.37,4.93,10.39,4.3,5.8,6.68,9.21,5.71,11.77-.29.76-1.02,1.75-2.86,2.13-5.43,1.12-9.23-6.31-13.26-14.18-1.37-2.67-2.1-4.71-2.48-6.28-.03,1.59.07,3.59.37,5.87.43,3.27-.5,6-2.48,7.29-1.41.92-3.14.94-4.63.05-.96-.58-1.65-1.82-2.11-3.79-1.02-4.37-.87-13.23,2.08-17.84,2.01-3.14,4.4-4.96,7.76-5.9.16-.04.31-.08.47-.11.11-.02.25-.05.3-.07.2-.14.26-.36.28-.48.02-.12.02-.36-.16-.58l-9.87-12.11c-7.69,4.84-17.15,4.88-20.75,4.68l.34,10.53c.01.36.27.65.62.7,8.46,1.13,12.07,4.49,12.07,11.24,0,4.5,1.42,8.56,2.03,10.1.45,1.14.03,2.43-1.01,3.08-1.07.67-3.84,1.79-6.4-2.08-2.06-3.12-2.73-6.96-3.22-9.76-.17-1-.33-1.86-.5-2.52-.19-.7-.19-.7-.91-.69h-.15s-.08.01-.11.03c.16,1,.7,3.78,1.22,6.49.89,4.59,1.99,10.31,2.36,12.86.07.47.27,1.89-1.33,2.95-.83.55-1.78.83-2.75.83Zm-5.95-25.23c.1,0,.2,0,.3.02,1.39.15,2.44,1.32,2.44,2.73,0,2.63.1,11.7,1.25,17.83.13.68.56,1.23,1.19,1.5.62.27,1.31.2,1.87-.17,0,0,.01,0,.02-.01,0,0,0,0,0-.01-.35-2.48-1.45-8.15-2.33-12.71q-1.4-7.22-1.27-7.71c.36-1.4,1.63-2.38,3.1-2.38h.14c.89-.02,3.04-.02,3.83,2.91.21.79.37,1.71.56,2.78.47,2.69,1.06,6.03,2.77,8.63.93,1.41,1.55,1.51,1.97,1.36-.73-1.93-2.09-6.14-2.09-10.81,0-4.32-1.58-7.21-9.47-8.26-1.81-.24-3.16-1.75-3.22-3.57l-.36-11.17c-.02-.69.25-1.35.74-1.82.49-.47,1.17-.71,1.84-.66,2.77.2,12.37.5,19.84-4.35,1.11-.72,2.59-.5,3.43.5l10.11,12.4c.67.8.97,1.87.82,2.92-.15,1.05-.74,1.98-1.62,2.57-.49.32-.97.42-1.33.5-.09.02-.18.04-.26.06-2.67.75-4.42,2.09-6.04,4.63-3.25,5.08-2.31,16.3-.92,17.46.47.28.97.29,1.41,0,.73-.48,1.48-1.92,1.15-4.39-.41-3.13-1.1-10.6,1.38-12.45.72-.54,1.64-.62,2.51-.23,1.44.64,1.38,1.9,1.34,2.65-.06,1.1-.18,3.38,2.54,8.69,3.85,7.52,7.05,13.24,9.98,12.61.54-.11.66-.26.66-.26.51-1.05-3.28-6.17-5.31-8.91-3.5-4.72-6.47-10.82-5.22-13.83.38-.91,1.14-1.52,2.09-1.66,2.36-.34,3.93,2.48,6.81,7.63,1.9,3.41,4.27,7.65,7.11,11.13,3.05,3.73,5.15,3.99,5.57,3.67.3-.24.33-1.36-.71-2.75-.91-1.23-2.47-3.06-4.12-5-7.18-8.46-10.47-12.71-9.53-15.21.55-1.47,1.61-1.85,2.19-1.95,1.62-.27,3.95.53,10.06,8.04,1.27,1.57,2.59,3.37,3.86,5.11,2.48,3.4,7.1,9.74,8.55,8.8.12-.08.18-.15.21-.37.1-.76-.31-4.02-9.55-13.91l-.78-.83c-5.17-5.52-7.25-7.84-6.83-9.96.15-.8.68-1.45,1.49-1.82,1.89-.88,4,.88,14.11,11.76,3.61,3.88,8.1,8.72,9.42,9.37.81.4,1.33.35,1.41.23.23-.31.14-1.89-2.15-4.27-1.19-1.24-2.67-3.07-4.38-5.19-4.6-5.7-11.55-14.31-16.77-15.21-2.54-.44-6.27.98-8.06,1.66l-.42.16c-1.12.42-2.36.12-3.17-.76l-15.04-16.25c-.91-.98-.98-2.46-.16-3.51,1.67-2.15,5.42-8.3,4.27-19.11-.1-.92.38-1.82,1.19-2.24,2.33-1.2,4.57-3.07,4.34-4.54-.07-.45-.24-1.62-2.41-1.58-1.19.03-2.23-.93-2.27-2.14-.04-1.11-.33-3.98-2.09-6.42-2.4-3.31-5.1-6.31-11.76-6.64-7.74-.38-12.18,4.33-13.35,5.79h0c-.38.47-.92.73-1.55.7-.61-.02-1.17-.34-1.52-.84-2.25-3.3-4.37-3.77-5.24-3.28-.85.48-1.17,2.16-.13,4.45,2.46,5.47,6.33,19.03,7.88,24.61.24.87.12,1.82-.35,2.6-.46.77-1.23,1.32-2.1,1.52l-6.05,1.36.73,28.85c.03,1.01-.34,1.98-1.05,2.72-.7.72-1.64,1.12-2.64,1.12h-1.89c-1.23,0-2.41.58-3.15,1.56l-7.45,10.94c-.22.3-.19.54-.16.67.03.12.13.34.38.44.25.1.55.02.71-.2l7.91-10.37c.8-1.05,2.24-1.37,3.41-.78l.26.13c.67.34,1.18.95,1.4,1.68.21.72.12,1.51-.25,2.16-1.42,2.48-6.07,11.08-6.47,17.33-.03.46.24.88.65,1.02.33.11.6,0,.72-.08.14-.08.37-.27.45-.64.93-4.74,3.01-13.35,6.55-17.73.51-.63,1.27-.99,2.09-.99Zm47.78-2.26h0Zm.04-.02h0ZM25.18,46.99h0s0,0,0,0Zm38.4-13.56h0s0,0,0,0Zm.86-10.29h0s0,0,0,0ZM31.91,14.09s0,0,0,0c0,0,0,0,0,0Z"/>
</svg>