<?xml version="1.0" encoding="UTF-8"?>
<svg id="icons" xmlns="http://www.w3.org/2000/svg" viewBox="0 0 120 120">
  <path d="m103.22,36.76c-3.65-.4-8.65-.96-14.81-2.8-5.27-1.57-9.39-3.18-13.01-4.6-5.99-2.34-10.33-4.02-15.4-3.79-8.53.41-11.87,13.83-13.65,23.89-.41,2.33-1.29,3.16-1.74,3.27-.24.06-.48-.05-.72-.34-.64-.79-1.23-3.13.63-6.9,6.59-13.35,8.46-23.69,5.55-30.74-1.91-4.64-6.11-7.55-10.46-7.24-4.37.31-7.92,3.74-9.66,9.24-3.55-.27-13.12-.15-17.85,8.37-2.06,3.71-2.02,9.39-1.9,11.67.04.78.67,1.42,1.45,1.47.77.06,1.49-.51,1.64-1.25.31-1.59,1.63-5.51,7.15-7.56,3.14-1.17,5.61-.73,7.41.19-.95-.02-2.02.05-3.18.24-5.67.97-9.97,7.06-11.22,11.07-.36,1.15-.76,2.46.06,3.39.75.85,1.78.67,2.78.5.76-.13,1.81-.32,3.15-.24,5.62.32,6.89,2.43,7.54,12.56.63,9.9,12.99,10.96,20.38,11.6.8.07,1.57.13,2.27.21.25.03.49.06.72.11-3.28,1.75-10.34,2.34-19.43-2.53-.54-.29-2.45-1.07-4.11,1.26-3.71,5.21-3.83,20.82-1,23.42.99.91,1.93.8,2.4.65,1.79-.57,2.39-3.01,3.3-7.26.32-1.48.8-3.75,1.29-4.91.31,1.5.14,4.74.06,6.46-.19,3.84-.24,5.58.7,6.53.89.89,1.7,1.15,2.34,1.15.41,0,.74-.1.98-.21,1.24-.56,3.21-3.05,2.53-13.37v-1.92c.2-.02.36,0,.44.05.16.1.35.5.35,1.3,0,1.05.56,1.57.89,1.78,1.02.65,2.15.14,3.34-.42.52-.24,1.05-.48,1.57-.65,1.89-.61,5.49-2.78,7.87-4.3-.27,1.48-.83,2.98-1.67,4.27-.8,1.21-1.88,1.24-3.86,1.2-2.61-.06-6.55-.14-7.86,6.17-1.59,7.65-1.4,18.51,1.24,21.05.66.63,1.48.87,2.3.66,2.21-.54,2.32-3.73,2.48-8.55.08-2.35.24-7.12.98-8.07.18,1.52-.13,5.49-.33,7.98-.53,6.76-.61,8.55.87,9.22.54.25,1.03.34,1.46.34.58,0,1.05-.17,1.39-.37,1.98-1.13,2.34-4.41,2.76-8.21.11-.97.22-1.96.36-2.88.15-1.02.42-1.9.71-2.61-.74,10.36.09,12.22.94,13.13.45.48,1.02.74,1.67.74,2.31,0,2.84-2.64,3.4-5.43.43-2.17.97-4.87,2.24-6.32.46-.46,3.4-3.61,3.4-8.56,0-2.17-.34-3.87-.63-5.37-.57-2.86-.88-4.44,1.39-7.26,1.31-1.63,2.83-2.55,4.44-3.53,3.01-1.82,6.12-3.7,7.25-9.88l.15-.82q1.31-7.19,2.73-7.26c.37,0,.96.21,1.63.47,2.56.99,6.43,2.49,13.19-2.87,3.42-2.71,6.98-4.32,9.84-5.61,3.85-1.74,7.49-3.38,6.19-6.97-1.12-3.1-4.38-3.46-9.32-4Zm-58.13,40.78c-.69.22-1.34.52-1.91.78-.03.02-.07.03-.1.05-.29-1.4-1.02-2.14-1.65-2.54-1.14-.7-2.67-.67-4.19.09-.51.25-.83.77-.83,1.34v3.08c.34,5.13-.1,8.82-.62,10.15-.11-.84-.01-2.75.06-4.19.24-4.78.28-8.03-1.25-9.46-.56-.52-1.29-.75-2.06-.67-2.35.28-3.06,3.6-3.96,7.8-.28,1.3-.7,3.25-1.1,4.37-.67-1.9-.98-7.05-.1-12.61.72-4.57,1.77-6.21,2.17-6.52,11,5.89,19.78,4.64,23.61,1.6.13.19.25.39.36.61.16.34.28.72.37,1.11-2.28,1.5-6.93,4.41-8.79,5.01Zm60.03-32.53c-3.01,1.36-6.76,3.05-10.47,5.99-5.42,4.29-7.99,3.3-10.25,2.42-.94-.36-1.84-.71-2.84-.66-3.8.17-4.06,1.63-5.54,9.71l-.15.82c-.89,4.85-3.08,6.17-5.85,7.85-1.68,1.02-3.58,2.17-5.23,4.21-3.15,3.91-2.59,6.73-2,9.72.28,1.43.58,2.91.58,4.78,0,3.94-2.51,6.43-2.53,6.45-.03.03-.06.06-.08.09-1.83,2.05-2.46,5.22-2.97,7.76-.08.42-.18.89-.28,1.34-.13-1.63-.13-4.59.28-9.93.25-3.18-.94-3.99-1.98-4.1-2.47-.27-4.32,4.02-4.77,7.01-.14.96-.26,1.98-.37,3-.16,1.47-.43,3.9-.86,5.17.02-1.46.2-3.76.34-5.58.63-8.05.62-10.18-.99-10.94-.59-.28-1.12-.38-1.57-.38-.63,0-1.12.2-1.49.42-2.28,1.39-2.44,5.89-2.6,10.65-.05,1.42-.11,3.33-.28,4.63-.85-2.91-1.24-10.24.19-17.09.81-3.87,2.25-3.84,4.86-3.78,1.97.04,4.68.1,6.43-2.55,2-3.04,3.33-8.06,1.51-11.88-.8-1.68-2.54-3.76-6.28-4.15-.72-.07-1.5-.14-2.32-.21-9.05-.78-17.21-2.04-17.64-8.8-.59-9.23-1.58-14.86-10.36-15.37-1.35-.08-2.46.05-3.28.19,1.05-3.32,4.69-8.25,8.84-8.96,4.33-.74,6.82.72,6.91.77.58.36,1.34.29,1.83-.19s.61-1.23.27-1.82c-1.69-2.99-6.96-7.89-14.79-4.96-2.66.99-4.55,2.38-5.89,3.81.23-1.39.61-2.77,1.22-3.87,4.78-8.62,15.55-6.81,16.05-6.72.77.14,1.53-.34,1.72-1.11,1.26-5,3.93-8,7.32-8.25,3.03-.22,6.05,1.95,7.47,5.39,2.56,6.22.72,15.73-5.47,28.27-2.37,4.8-1.69,8.38-.26,10.12.99,1.21,2.41,1.71,3.8,1.35,1.96-.51,3.4-2.57,3.94-5.66,2.47-13.98,6.11-21.19,10.84-21.41,4.44-.21,8.52,1.38,14.17,3.59,3.68,1.44,7.86,3.07,13.25,4.68,6.42,1.92,11.57,2.49,15.33,2.9,4.28.48,6.36.76,6.83,2.05.3.83-.88,1.54-4.6,3.22Z"/>
  <path d="m61.13,45.21c-4.34,0-7.88,3.53-7.88,7.88s3.53,7.88,7.88,7.88,7.88-3.53,7.88-7.88-3.53-7.88-7.88-7.88Zm0,12.76c-2.69,0-4.88-2.19-4.88-4.88s2.19-4.88,4.88-4.88,4.88,2.19,4.88,4.88-2.19,4.88-4.88,4.88Z"/>
  <path d="m41.32,33.65c1.39-.4,2.46-1.61,2.94-3.31.41-1.47.37-3.22-.13-4.93-1.11-3.84-4.09-6.24-6.78-5.46-2.69.78-3.92,4.4-2.81,8.24.5,1.71,1.39,3.21,2.53,4.24.99.9,2.13,1.37,3.22,1.37.35,0,.7-.05,1.03-.15Zm-2.25-3.45c-.71-.64-1.32-1.68-1.66-2.84-.7-2.42-.02-4.3.76-4.52.06-.02.13-.03.2-.03.83,0,2.22,1.21,2.87,3.44.34,1.16.38,2.36.12,3.29-.19.67-.52,1.13-.89,1.24-.37.11-.9-.11-1.41-.57Z"/>
</svg>