<?xml version="1.0" encoding="UTF-8"?>
<svg id="icons" xmlns="http://www.w3.org/2000/svg" viewBox="0 0 120 120">
  <path d="m60.2,92.94c-.29,3.27-.46,5.24-.46,7.4,0,1.2-.12,2.53-.24,3.81-.27,2.97-.49,5.31.66,6.57.46.5,1.09.78,1.79.78s8.15-.84,14.3-1.55c1.15-.13,2.15-.9,2.59-2,.44-1.09.25-2.33-.49-3.22-1.72-2.07-5-3.8-9.36-3.04,0-3.78.27-12.34,2.31-16.87,2.32-5.14,1.77-9.87,1.32-13.68-.1-.87-.2-1.69-.25-2.46-.23-3.57-2.62-26.88-3.92-33.21-.03-.15.04-.29.23-.38,2.58-1.17,9.44-4.29,8.24-14.03-.54-4.4-3.54-8.23-8.24-10.5-5.4-2.61-11.7-2.58-16.04.07-5.53,3.38-8.06,8.83-6.77,14.56.98,4.34,3.96,7.89,7.41,9.06-5.17.29-7.55-.76-8.64-1.73-.92-.82-1.49-4.55-1.16-7.53.29-2.56,1.07-5.06,2.62-8.34,1.51-3.19,1.91-5.23,1.28-6.62-.32-.72-.92-1.24-1.69-1.47-.97-.29-2.15.09-3.5,1.14-3.49,2.69-7.46,9.15-7.17,18.47.39,12.28,3.68,14.42,10.92,14.58,3.26.07,5.82.07,7.52.04-1.92,7.35-7.53,29.31-7.96,36.34-.41,6.53,2.05,8.25,3.76,8.66l.55,12.37c-6.81,1.21-7.97,3.76-7.74,5.7.15,1.31.86,2.43,2.04,3.23,2.46,1.68,6.45,1.67,9.31.92,2.31-.61,4.01-2.65,4.24-5.08,2.04-22.51,3.04-38.27,2.99-46.84l-.04-4.91c-.07-8.46-.11-13.57.38-14.26.04-.02.16-.05.54-.07.02,0,.03,0,.05,0,1.29,1.82,1.21,14.93-.25,38.98-.44,7.27-.84,11.8-1.13,15.11Zm2.29,11.48c.12-1.35.25-2.75.25-4.09,0-2.02.17-3.95.45-7.13.29-3.32.69-7.88,1.14-15.19,2.15-35.46.96-39.71-.69-41.36-.7-.7-1.5-.8-1.99-.8-.12,0-.22,0-.29.01-2.19.13-3.18,1.15-3.54,3.65-.31,2.18-.28,6.03-.21,13.7l.04,4.9c.04,5.82-.44,18.62-2.97,46.55-.11,1.18-.92,2.16-2.01,2.45-2.52.66-5.47.45-6.86-.5-.6-.41-.71-.82-.75-1.1-.07-.59,1.52-1.73,5.29-2.39,1.46-.26,2.51-1.59,2.45-3.09l-.54-12.67c-.05-1.24-.95-2.25-2.19-2.46-1.16-.2-1.76-2.34-1.56-5.58.44-7.1,6.74-31.44,8-36.25.21-.81.04-1.65-.48-2.3-.5-.64-1.29-.99-2.06-.98-1.65.03-4.37.05-7.95-.03-4.92-.11-7.63-.17-7.99-11.68-.32-10.2,4.87-15.46,6.65-16.44-.04.51-.26,1.6-1.27,3.74-1.13,2.39-2.48,5.61-2.89,9.3-.23,2.07-.29,7.92,2.14,10.1,2.35,2.1,6.45,2.91,12.1,2.4,1.47-.06,2.4-1.58,2.45-3.02.04-1.34-.75-2.37-1.92-2.49-2.84-.3-5.63-3.35-6.48-7.11-.48-2.12-.91-7.48,5.4-11.34,3.44-2.1,8.74-2.07,13.17.07,3.76,1.82,6.15,4.79,6.56,8.16.93,7.55-3.91,9.75-6.58,10.96-1.4.64-2.17,2.15-1.85,3.68,1.25,6.06,3.65,29.35,3.87,32.8.05.83.15,1.69.26,2.61.42,3.62.9,7.71-1.08,12.1-2.94,6.52-2.58,19.51-2.56,20.06.01.47.25.91.64,1.18s.88.35,1.33.2c4.92-1.6,7.42.84,8.07,1.62.04.05.04.11.01.19-.01.03-.06.13-.15.14-7.01.8-12.11,1.37-13.57,1.5-.14-.82.03-2.73.15-4.04Z"/>
  <path d="m83.95,70.2c1.03-.56,3.32-2.35,2.28-6.82-1.2-5.17-4.14-16.65-5.52-19.76-.14-.32-.24-.62-.29-.91-.33-1.68-1.47-5.73-4.84-7.04-1.39-.54-2.99-.42-4.09-.23-.58.1-1.1.44-1.43.94-.33.5-.44,1.12-.31,1.7.68,3.02,2.17,4.58,3.29,5.37.14.1.24.29.27.51.18,1.38.35,3.96.54,6.95.76,11.67,1.3,16.78,2.69,18.23,1.01,1.05,2.78,1.76,4.58,1.76.97,0,1.96-.21,2.83-.68Zm-5.2-3.11c-.93-1.4-1.57-11.15-1.91-16.39-.2-3.04-.37-5.67-.56-7.15-.14-1.06-.7-2-1.53-2.58-.48-.33-1.3-1.1-1.83-2.69.63-.04,1.18.02,1.57.18,2.04.8,2.8,3.9,2.99,4.83.1.51.26,1.02.5,1.54,1.15,2.61,3.89,12.95,5.34,19.22.29,1.25.39,2.87-.79,3.51-1.15.63-3.09.23-3.77-.47Z"/>
  <path d="m55.15,16.54c-2.96,0-5.36,2.47-5.36,5.5s2.4,5.5,5.36,5.5,5.36-2.47,5.36-5.5-2.4-5.5-5.36-5.5Zm0,8c-1.3,0-2.36-1.12-2.36-2.5s1.06-2.5,2.36-2.5,2.36,1.12,2.36,2.5-1.06,2.5-2.36,2.5Z"/>
  <path d="m72.69,22.64c0-3.36-2.66-6.09-5.93-6.09s-5.93,2.73-5.93,6.09,2.66,6.09,5.93,6.09,5.93-2.73,5.93-6.09Zm-8.86,0c0-1.71,1.31-3.09,2.93-3.09s2.93,1.39,2.93,3.09-1.32,3.09-2.93,3.09-2.93-1.39-2.93-3.09Z"/>
  <path d="m54.08,20.21c-.48.5-.54,1.26-.2,1.83-.35.55-.3,1.29.15,1.8.3.33.71.5,1.12.5.36,0,.71-.13,1-.38.14-.13.86-.82.88-1.88,0-.49-.13-1.22-.84-1.9-.6-.58-1.54-.55-2.12.04Z"/>
  <path d="m67.76,24.55c.14-.13.86-.82.88-1.88,0-.49-.13-1.22-.84-1.9-.59-.57-1.54-.55-2.12.04-.48.5-.54,1.26-.2,1.83-.35.55-.3,1.29.15,1.8.3.33.71.5,1.12.5.36,0,.71-.13,1-.38Z"/>
</svg>