<?xml version="1.0" encoding="UTF-8"?>
<svg id="icons" xmlns="http://www.w3.org/2000/svg" viewBox="0 0 120 120">
  <g id="icons-2" data-name="icons">
    <path d="m101.88,64.67c-.43-.14-9.38-2.87-16.09.43.22-.68.56-1.39,1.12-2.02,1.86-2.13,5.6-3.04,10.83-2.62.81.06,1.55-.55,1.61-1.38.07-.83-.55-1.55-1.38-1.61-6.31-.51-10.81.73-13.35,3.67-2.02,2.34-2.22,5.13-2.13,6.73-1.19.44-3.33,1.19-6.07,1.91-2.63-2.3-3.86-3.94-3.83-5.14.05-1.6,2.5-3.54,5.69-5.9,1.17-.87,2.18-1.68,3.05-2.46,0,0,.02-.01.02-.02,4.22-3.8,4.91-6.76,2.98-10.94-.35-.75-1.24-1.08-1.99-.73-.75.35-1.08,1.24-.73,1.99.83,1.81,1.5,3.27-.63,5.8-.85-1.24-2.25-1.86-3.65-2.26-1.16-2.7-.71-5.83,1.25-8.14,0,0,.05-.05.05-.06.54-.63.41-1.52-.23-2.05-.63-.54-1.63-.4-2.17.23-2.17,2.55-2.96,5.95-2.29,9.15-2.1-.64-3.45-1.67-3.21-5.06.06-.83-.56-1.54-1.39-1.6-.82-.07-1.54.56-1.6,1.39-.49,6.84,4.23,7.93,7.34,8.66,2.49.58,3.4.94,3.63,1.95-.64.54-1.37,1.12-2.21,1.74-2.56,1.9-4.58,3.47-5.75,5.11l-1.69-1.2c-1.44-1.02-3.05-1.75-4.77-2.17.23-.41.57-.9.81-1.25,1.08-1.56,2.42-3.49,1.8-5.79-.5-1.85-2.19-3.44-5.18-4.85-.75-.35-1.64-.03-2,.71-.35.75-.04,1.64.71,2,2.64,1.25,3.39,2.28,3.57,2.92.22.81-.35,1.8-1.02,2.79-1.69-2.34-4.9-6.03-9-7.1-.8-.21-1.62.27-1.83,1.07-.21.8.27,1.62,1.07,1.83,3.88,1.01,7,5.39,8.06,7.04-.03.07-.04.14-.07.21-2.53-.08-5.86-.74-7.44-3.39-.43-.71-1.35-.94-2.06-.52-.71.42-.94,1.35-.52,2.06,1.81,3.03,5.26,4.71,9.98,4.86.31,0,.62.03.93.07.18.07.36.12.55.12.06,0,.12-.01.18-.02,1.63.28,3.15.91,4.48,1.86l2.3,1.63c0,.08-.02.15-.02.23-.06,1.87.94,3.72,3.31,6.06-3.82.8-8.31,1.38-12.86,1.19-2.22-2.23-9.24-6.89-15.1-10.6-.05-.04-.1-.08-.15-.12l1.36-11.43c.04-.46.04-.91,0-1.36,2.34-1.52,5.08-3.46,7.68-5.37,1.52.76,3.39,1.2,5.46,1.2,2.32,0,4.91-.55,7.57-1.81.75-.35,1.07-1.25.71-2-.36-.75-1.25-1.07-2-.71-3.54,1.68-6.62,1.81-8.89,1.21,3.72-2.78,6.65-5.08,6.88-5.26.65-.51.76-1.45.25-2.11s-1.45-.76-2.11-.25c-.06.05-3.66,2.87-7.97,6.07-.28-.26-.5-.54-.67-.82-1.05-1.79.42-3.21,1.39-3.91.67-.48.83-1.42.35-2.09-.48-.67-1.42-.83-2.09-.35-2.93,2.1-3.81,5.19-2.23,7.87.23.39.51.74.82,1.09-2.04,1.49-4.12,2.96-5.98,4.2-.43-.85-1-1.64-1.72-2.31-1.92-1.8-4.6-3.64-7.44-5.6-.02-.01-.04-.03-.06-.04,2.11-.85,4.89-2.25,6.73-4.27.44-.44.9-.91,1.4-1.44,1.12-1.16,2.38-2.47,3.81-3.7,3.38,2.47,8.24,3.4,8.97,3.53.09.02.17.02.26.02.71,0,1.35-.51,1.48-1.24.14-.82-.4-1.59-1.22-1.74-1.39-.24-4.58-1.08-6.94-2.49,2.34-1.52,5.08-2.64,8.35-2.69.83-.01,1.49-.69,1.48-1.52-.01-.83-.68-1.45-1.52-1.48-4.29.07-7.78,1.64-10.63,3.64-.13-.21-.25-.42-.34-.64-.48-1.25-.06-2.71,1.3-4.44.51-.65.39-1.6-.26-2.11-.65-.51-1.6-.39-2.11.26-2.03,2.6-2.62,5.08-1.73,7.37.19.5.47.97.78,1.41-1.48,1.28-2.74,2.6-3.84,3.74-.69.71-1.29,1.35-1.84,1.86-.42-2.1-.23-7.68-.05-12.69.08-2.36.17-4.92.23-7.6.02-.83-.64-1.51-1.47-1.53-.84-.03-1.51.64-1.53,1.47-.06,2.67-.15,5.21-.23,7.56-.29,8.33-.38,12.6.52,14.65-1.79,1.01-3.66,1.66-4.62,1.97-1.43-1.01-2.85-2.05-4.22-3.15.48-.52.88-1.16,1.15-1.89,1.24-3.35.03-8.11-3.34-13.07-.46-.69-1.4-.86-2.08-.4-.69.47-.86,1.4-.4,2.08,4.11,6.05,3.34,9.45,3.01,10.34-.16.42-.38.75-.63.99-2.89-2.61-5.31-5.52-6.61-8.85-.3-.77-1.17-1.15-1.94-.86-.77.3-1.16,1.17-.86,1.94,1.61,4.16,4.72,7.67,8.25,10.73.02.02.04.04.07.06,2.91,2.51,6.11,4.72,8.98,6.7,2.74,1.89,5.33,3.67,7.08,5.31.77.72,1.28,1.63,1.5,2.61,0,.06.02.12.03.18.09.47.12.95.07,1.43l-1.23,10.33c-2.02-1.04-4.49-2.38-7.02-3.92,1.5-2.57,4.07-8.21.74-12.56-.5-.66-1.45-.78-2.1-.28-.66.5-.78,1.44-.28,2.1,1.98,2.6.62,6.27-.53,8.47-1.41-2.3-3.71-6.84-4.96-13.66-.15-.82-.94-1.36-1.75-1.2-.81.15-1.35.93-1.2,1.75.84,4.58,2.12,8.19,3.34,10.88-3.98-2.98-7.26-6.18-8.16-9.07-.25-.79-1.09-1.24-1.88-.99-.79.25-1.23,1.09-.99,1.88,2.96,9.53,24.35,19.76,26.08,20.58,9.41,6,14.31,9.64,14.86,10.44,0,0,0,0,0,0,.51,1.14-.49,6.93-1.83,12.23-1.03-.23-1.65-.3-1.65-.3-12.69-1.96-19.95,10.17-11.21,19.88,1.6,1.78,3.9,2.78,6.29,2.78h14.29c2.63,0,5.17-1.17,6.71-3.29,1.79-2.46,2.93-6.15-.63-10.49-3.56-4.34-7.79-6.57-10.92-7.71,1.01-3.9,2.15-9.11,2.02-12.34.22,0,.45.02.67.02,10.01,0,19.13-3.17,21.98-4.27,3.82,3.03,11.52,3.36,14.68,3.36.63,0,1.08-.01,1.28-.02.83-.03,1.47-.73,1.44-1.55-.03-.83-.74-1.47-1.55-1.44-2.87.11-10.42-.18-13.69-2.47,5.59-3.79,14.91-.96,15.01-.92.79.24,1.63-.19,1.88-.98.25-.79-.19-1.63-.98-1.88Zm-34.1,37.09c-.63,4.55-17.69,4.25-20.25,2.31-1.96-1.49-2.58-2.88-3.17-4.88-1.47-4.96,2.61-9.28,7.8-9.36.17,0,.35,0,.53,0,2.11.08,4.11.9,6.06,1.74,5.65,2.43,9.73,5.07,9.02,10.19Z"/>
  </g>
</svg>