<?xml version="1.0" encoding="UTF-8"?>
<svg id="icons" xmlns="http://www.w3.org/2000/svg" viewBox="0 0 120 120">
  <path d="m15.22,38.51c.85.43,1.72.62,2.61.62,1.56,0,3.17-.57,4.79-1.34.01,0,.02,0,.03-.01,0,0,0,0,.01,0,.66-.32,1.32-.67,1.98-1.03,1.85,3.36,3.86,5.84,6.38,7.3-.85,2.6-3.45,4.13-6.44,5.03-.96-3.27-3.3-6.09-6.76-6.54-.82-.1-1.57.48-1.68,1.3-.1.82.48,1.57,1.3,1.68,2.06.26,3.55,2.07,4.22,4.24-4.51.78-8.93.51-9.01.5-.82-.07-1.55.56-1.61,1.38-.06.83.56,1.55,1.38,1.61.17.01,1.15.08,2.61.08,1.82,0,4.38-.11,7.04-.57,0,.11,0,.21-.01.32-.32,4.11-3.35,6.53-8.13,6.53-.14,0-.28,0-.42,0-.82-.04-1.52.63-1.54,1.46-.02.83.63,1.52,1.46,1.54.18,0,.35,0,.52,0,7.64,0,10.76-4.96,11.1-9.29.03-.4.03-.81.02-1.22,3.89-1.1,7.48-3.15,8.76-6.91.9.23,1.84.36,2.84.36,1.95,0,4.09-.45,6.49-1.34.88,2.65,1.93,5.03,3.26,6.8.37,2.95.56,5.68.6,8.19-1.33,3.17-3.75,5.3-6.69,5.86-2.47.47-4.96-.25-6.49-1.88-.57-.61-1.52-.64-2.12-.07-.61.57-.64,1.52-.07,2.12,1.37,1.47,3.26,2.43,5.32,2.8.08,1.76.06,3.34-.07,4.73-1.95.08-5.82-.11-6.83-2.82-.29-.78-1.15-1.17-1.93-.88-.78.29-1.17,1.15-.88,1.93,1.54,4.14,6.23,4.79,9.03,4.79.04,0,.07,0,.1,0-.44,1.62-1.09,2.8-1.98,3.49-1.81,1.43-4.58.82-7.04.03-.79-.25-1.63.19-1.88.97-.25.79.19,1.63.97,1.88,1.58.5,3.37.96,5.15.96,1.63,0,3.25-.39,4.65-1.49,2.78-2.18,3.99-6.61,3.71-13.49.3-.03.61-.07.91-.13,2.29-.44,4.33-1.58,5.99-3.24-.76,10.21-4.09,15.95-6.46,18.8-2.61,3.14-5.91,5.04-9.06,5.22-8.6.48-15.26,0-15.33,0-.84-.05-1.54.56-1.61,1.39-.06.83.56,1.54,1.39,1.61.15.01,2.1.15,5.22.2.31,1.53.54,2.91.69,4.17-1.45.67-4.51,1.82-7.03.91-.78-.28-1.64.12-1.92.9s.12,1.64.9,1.92c1.02.37,2.07.51,3.09.51,1.97,0,3.83-.54,5.19-1.08,0,2.12-.34,3.61-1.04,4.45-1.1,1.31-3.39,1.23-6.05,1.13l-.63-.02c-.82-.01-1.52.62-1.55,1.45-.03.83.62,1.52,1.45,1.55l.62.02c.68.02,1.36.05,2.03.05,2.47,0,4.83-.34,6.43-2.25,1.98-2.36,2.26-6.63.88-13.7,2.19,0,4.7-.07,7.43-.22.91-.05,1.81-.22,2.7-.47.17.3.3.77.39,1.42,0,.07,0,.13,0,.2,0,.11.03.21.06.31.34,3.32-.08,9.81-1.16,16.55-.13.82.43,1.59,1.24,1.72.08.01.16.02.24.02.72,0,1.36-.52,1.48-1.26.47-2.92,1.58-10.63,1.24-16.05.27,0,.54-.01.8-.01,1.22,1.16,1.41,7.69.35,14.25-.13.82.42,1.59,1.24,1.72.08.01.16.02.24.02.72,0,1.36-.52,1.48-1.26.43-2.67,1.4-9.87.11-14.28.51.18.94.4,1.25.69,1.34,1.22,1.36,3.85,1.4,7.5.01,1.38.03,2.94.12,4.61.05.8.71,1.42,1.5,1.42.03,0,.06,0,.09,0,.83-.05,1.46-.76,1.41-1.58-.09-1.59-.1-3.05-.12-4.46-.04-4.24-.07-7.58-2.37-9.68-1.35-1.23-3.3-1.85-6.14-1.92-.06,0-.11,0-.17,0-.5,0-1.03,0-1.59.03-.09-.37-.2-.72-.32-1.02,2.07-1.07,4.02-2.66,5.74-4.73,3.01-3.63,7.45-11.44,7.29-25.87,0-.09,0-.17,0-.25-.03-1.79-.12-3.69-.3-5.69.64.24,1.33.38,2.08.38.02,0,.04,0,.07,0,.43,4.02,1.98,7.72,4.52,10.39,2.58,2.71,5.88,4.13,9.57,4.13.21,0,.43,0,.65-.01,6.22-.27,12.16-4.33,14.38-7.12,2.17-2.73,3.04-5.24,3.3-7.27,8.47,7.77,25.13,6.31,25.86,6.24.83-.08,1.43-.81,1.35-1.63-.08-.82-.78-1.44-1.63-1.35-.17.02-17.18,1.5-24.29-6.2-.72-.78-1.4-1.57-2.07-2.37-.03-.04-.07-.09-.1-.13-1.03-1.24-2-2.5-2.96-3.73-4.98-6.42-9.68-12.49-17.9-10.52-4.5,1.08-8.19,5.1-9.86,10.77-.57,1.92-.87,3.86-.93,5.77-3.71-.22-5.63-6.52-7.85-15.22-.31-1.22-.62-2.43-.94-3.6-2.51-9.26-5.56-21.06-5.59-21.18-.21-.8-1.02-1.29-1.83-1.08-.8.21-1.28,1.03-1.08,1.83.02.09,1.74,6.74,3.66,13.97-.33.14-.65.28-.96.41-.39.05-.72-.04-1.07-.32-1.16-.9-3.19-4.16-3.83-15.86-.04-.83-.77-1.48-1.58-1.42-.83.04-1.46.75-1.42,1.58.49,8.98,1.86,14.66,4.19,17.29-1.03.22-1.88.21-2.51-.19-1.91-1.21-2.99-6.17-3.32-15.18-.03-.83-.74-1.47-1.55-1.44-.83.03-1.48.73-1.45,1.55.38,10.63,1.75,15.73,4.71,17.61.91.57,1.87.81,2.91.81,1.74,0,3.69-.68,5.87-1.6.01,0,.02,0,.03-.01.25-.1.49-.2.74-.31.39,1.46.78,2.92,1.16,4.31.31,1.15.62,2.35.93,3.56.41,1.59.82,3.22,1.27,4.81-3.69,1.4-6.55,1.58-8.9.56-5.33-2.3-8.55-11.17-13.01-23.43l-.23-.63c-.28-.78-1.14-1.18-1.92-.9-.78.28-1.18,1.14-.9,1.92l.23.63c2.09,5.74,3.87,10.64,5.74,14.6-.56.31-1.1.59-1.62.86-.65-.56-3.11-3.43-6.19-16.45-.19-.81-1-1.31-1.81-1.11-.81.19-1.3,1-1.11,1.8,1.46,6.15,3.59,13.46,6.12,16.88-.78.14-1.49.12-2.1-.19-2.32-1.19-4.04-6.3-5.09-15.2-.1-.82-.85-1.41-1.67-1.31-.82.1-1.41.84-1.31,1.67,1.23,10.38,3.3,15.78,6.71,17.52Zm40.34,7.53c1.37-4.63,4.24-7.88,7.68-8.7.8-.19,1.55-.28,2.27-.28,5.02,0,8.41,4.37,12.56,9.72.95,1.22,1.91,2.47,2.94,3.71.29.76,1.36,4.35-2.37,9.03-1.57,1.97-6.75,5.76-12.17,6-3.1.14-5.77-.93-7.91-3.18-4.12-4.33-4.48-11.3-3-16.29Z"/>
</svg>