<?xml version="1.0" encoding="UTF-8"?>
<svg id="icons" xmlns="http://www.w3.org/2000/svg" viewBox="0 0 120 120">
  <g id="Layer_4" data-name="Layer 4">
    <path d="m8.69,93.58c.82.62,1.78.95,2.78.95,1.4,0,2.71-.63,3.59-1.73l22.04-27.97c-.15,3.8-.51,8.62-1.05,12.85l-2.02,15.75c-.04.34-.27.67-.61.85-12.46,6.84-13.1,9.06-13.44,10.25-.27.95-.17,1.92.29,2.75.55.99,1.48,1.64,2.58,1.83.09,1.12.7,2.1,1.66,2.71.57.36,1.27.56,1.99.56.77,0,1.51-.22,2.25-.6.06.06.12.11.18.16.63.54,1.43.83,2.27.83.91,0,2.01-.26,3.84-1.78.27.23.58.43.93.58.44.19.91.29,1.4.29.98,0,1.82-.38,2.58-.96.12.19.26.37.42.55.71.78,1.7,1.2,2.77,1.2,1.53,0,2.45-.76,3.01-1.76.49.25,1.06.4,1.73.4.36,0,.73-.05,1.09-.16,3.22-.96,2.92-4.93,2.01-9.19l3.93-30.73c.12-.58.2-1.22.27-1.89.55.34,1.15.55,1.72.68.38.09.77.13,1.15.13.47,0,.93-.07,1.37-.2.25-.05.48-.13.69-.22l-1.56,24.41s0,.03,0,.05c-.04.76-.21,1.1-.52,1.46-.5.58-1.15,1.17-1.78,1.73-1.31,1.18-2.34,2.11-2.64,3.53-.23,1.1.01,2.15.68,2.97.39.48,1.28,1.29,2.87,1.29.09,0,.19,0,.29,0,.2,1.42.66,2.01.89,2.3.58.75,1.4,1.22,2.31,1.33.12.01.28.02.39.02.46,0,.89-.08,1.28-.24.59.4,1.26.59,1.9.59.81,0,1.59-.29,2.24-.83.3.22.65.39,1.02.51.36.11.72.17,1.09.17s1.08,0,2.11-.6c.9.91,1.92,1.06,2.48,1.06,2.11,0,3.23-1.7,3.84-3.33,4.96-.02,6.6-.72,7.61-1.82.67-.73.99-1.67.9-2.65-.31-3.68-4.45-3.78-6.93-3.83-.16,0-.33,0-.51-.01.22-6.42,1.75-26.19,2.37-30.13.88-.48,3.51-1.05,6.93-1.05,1.37,0,2.15.1,2.37.14.47.19,1.34.93,2.05,1.53,2,1.7,4.75,4.02,8.7,4.02.92,0,1.86-.13,2.8-.39,1.57-.43,2.26-1.38,2.56-2.11.3.03.61.04.92.04,1.35,0,2.71-.29,4.06-.85,1.14-.47,1.93-1.53,2.03-2.75.18-2.02-1.16-3.61-5.96-7.05-2.15-1.55-4.57-3.14-6.38-4.3-.67-4.62-3.08-5.36-4.5-5.37-.79,0-1.7.21-2.56.89-.59-.43-1.28-.68-2.09-.68-.08,0-.19,0-.26.01-1.62.13-3.61,1.12-4.41,4.97l-9.13,1.44c-.1.02-.21.02-.32.02-.41,0-.82-.12-1.18-.34-10.41-6.28-21.95-10.03-30.88-10.03-1.85,0-3.47.17-4.82.51-1.03.26-2.06.57-3.05.86-.54.16-1.14.34-1.71.5L54.3,13.47c.58-1.07.71-2.3.36-3.47-.35-1.17-1.15-2.14-2.24-2.71-.66-.35-1.39-.53-2.13-.53-1.68,0-3.22.91-4.02,2.37l-21.98,40.35c-.97,1.77-1,3.92-.08,5.74.94,1.82,2.68,3.06,4.68,3.35l1.37.2-22.39,28.4c-.75.95-1.09,2.15-.94,3.36.15,1.22.77,2.3,1.75,3.04Zm1.54-4.54l23.93-30.36s.02-.1.11-.2c.68-.87.91-1.94-.19-2.17l-4.77-.7c-1.05-.15-1.95-.8-2.43-1.73-.47-.93-.46-2.04.04-2.95L48.9,10.58c.28-.52.82-.81,1.38-.81.25,0,.5.06.74.18.76.4,1.05,1.34.64,2.09l-19.18,35.21.05-.05c-1.67,3.08-1.11,4.03.52,4.03,1.87,0,5.13-1.24,8.1-1.99,1.07-.27,2.44-.42,4.08-.42,6.62,0,17.49,2.46,29.33,9.6.83.5,1.78.77,2.73.77.26,0,.52-.02.79-.06l10.44-1.65c.52-.09.92-.5.98-1.02.15-1.31.6-3.61,1.88-3.71.01,0,.02,0,.03,0,.76,0,1.71,2.17,2.13,3.19.03.07.1.11.16.11.07,0,.15-.04.17-.13.26-1.09.96-3.38,2.16-3.38,1.13.01,1.5,2.15,1.62,3.34.05.51.33.95.76,1.22,2.82,1.8,13.05,8.42,11.29,9.15-1.05.44-2.01.62-2.9.62-3.95,0-6.35-3.52-7.44-3.52-.08,0-.16.02-.23.07-2.33,1.5,6.33,4.82,3.39,5.63-.71.19-1.38.28-2.01.28-4.56,0-7.16-4.51-9.85-5.41-.49-.16-1.73-.28-3.28-.28-3.76,0-9.27.68-9.78,2.97-.71,3.23-2.91,32.1-2.49,33.5.43,1.41,7.26-.06,7.42,1.83.09,1.03-3.44,1.2-5.79,1.2-1.16,0-2.03-.04-2.03-.04,0,0-.64,3.37-1.54,3.37-.15,0-.31-.1-.48-.32-.42-.57-.3-3.9-.3-3.9,0,0-2.46,3.76-3.81,3.76-.07,0-.13,0-.19-.03-1.46-.46,2.47-4.28,2.47-4.28,0,0-3.04-.22-2.75-1.16.24-.8,1.6-.48,2.5-.82.9-.34.87-1.37.89-2.32l1.05-30.45c.03-2.84-.97-3.96-1.98-4.27-.05,0-.1,0-.15,0-.18,0-.38.02-.59.06-1.82.4-2.35,4.28-2.5,6.06-.25,4.06-1.79,28.73-1.77,32.75.01,3.25-.76,4.61-1.33,4.61-.24,0-.45-.25-.53-.71-.17-.87-.57-4.31-.57-4.31,0,0-1.05,4.66-2.08,4.66-.01,0-.03,0-.04,0-1.1-.13-.46-4.77-.46-4.77,0,0-2.26,1.13-3.38,1.13-.44,0-.7-.17-.61-.64.17-.81,2.3-2.23,3.75-3.91.84-.97,1.19-2,1.25-3.28l1.71-26.81s0-.03.01-.05c.37-3.18-.05-4.9-1.12-4.9s-2.19,4.25-3.39,4.45c-.02,0-.02-.01-.03-.01-.2.09-.42.14-.68.14-.15,0-.32-.02-.5-.06-3.14-.7.14-4.21-2.71-4.49-.05,0-.09,0-.14,0-.56,0-1,.34-1.36.87-.4.61-.64,1.54-.8,2.58l-.21,1.61c-.12,1.15-.21,2.27-.39,3.07l-4.01,31.37s1.31,5.84.2,6.17c-.09.03-.17.04-.25.04-1.49,0-1.73-4.12-2.8-4.12-.03,0-.06,0-.09,0-1.21.24-.56,5.47-1.85,5.47h0c-1.86,0-.07-4.77-1.06-4.91-.01,0-.03,0-.04,0-.98,0-3.39,4.11-4.67,4.11-.07,0-.14-.01-.21-.04-1.5-.65,1.9-4.28,3.69-6.05.67-.67,1.13-1.51,1.33-2.43l6.07-31.88h0s.08-.4.08-.4c.18-1.03.57-3.81-.3-4.6-.25-.18-.53-.3-.89-.3-2.28,0-3.28,8.85-3.28,8.85,0,0-1.67,25.33-4.09,28.98-2.25,3.38-6.98,8.79-8.57,8.79-.13,0-.23-.03-.32-.11-1.15-.99,4.61-4.65,3.85-5.77-.07-.1-.17-.15-.3-.15-1.4,0-6,5.63-7.94,5.63-.15,0-.28-.03-.4-.11-1.88-1.17,7.07-6.9,6.53-7.68-.13-.19-.32-.27-.56-.27-1.86,0-6.68,4.85-8.55,4.85-.27,0-.48-.1-.61-.34-.89-1.61,8.03-6.75,12-8.93,1.16-.65,1.95-1.79,2.12-3.09l2.02-15.75c.99-7.8,1.72-21.02.52-21.02-.07,0-.15.05-.24.14l-26.6,33.76c-.31.39-.77.6-1.24.6-.34,0-.67-.11-.96-.33-.68-.52-.81-1.49-.28-2.16Z"/>
  </g>
</svg>