<?xml version="1.0" encoding="UTF-8"?>
<svg id="icons" xmlns="http://www.w3.org/2000/svg" viewBox="0 0 120 120">
  <g id="Layer_4" data-name="Layer 4">
    <path d="m46.65,54.45c-.26,2.46.3,6.16,3.91,10.59.3.37.54.69.77,1.01l-27.16,35.7s-.03.04-.04.06c-1.44,1.98-1.03,4.82.9,6.32.78.61,1.75.94,2.74.94,1.42,0,2.77-.68,3.62-1.83.17-.22,2.39-3.15,5.53-7.29,0,0,0,0,0,0,.78.64,1.76.99,2.81.99,1.42,0,2.73-.66,3.59-1.8l1.74-2.31c.76.55,1.67.84,2.6.84,1.39,0,2.73-.66,3.58-1.77l.29-.39c.04,1.84.25,3.24.3,3.52.34,2.21,2.22,3.83,4.45,3.83.15,0,.46,0,.84-.08.41-.08.81-.22,1.17-.4.53.34,1.14.57,1.8.67.13.02.35.05.62.05,1.08,0,2.09-.39,2.87-1.05.5.19,1.04.29,1.59.29,2.2,0,4.06-1.59,4.44-3.78,0-.03.27-1.7.29-3.83l10.66,8.95s.06.05.09.07c.79.62,1.74.94,2.73.94,1.45,0,2.78-.69,3.62-1.84l2.72,2.11c.78.62,1.76.97,2.76.97,1.45,0,2.78-.69,3.62-1.85l9.89,7.77c.75.59,1.69.92,2.64.92,1.39,0,2.7-.69,3.51-1.85,1.35-1.92.95-4.54-.89-5.97l-10.92-8.57c.37-.37.68-.8.91-1.29.94-2,.31-4.4-1.51-5.72l-4.77-3.49c.21-.27.39-.56.54-.87.95-1.96.34-4.37-1.47-5.71-.02-.02-.04-.03-.06-.05l-9.5-6.64,6.72-7.69c1.61-1.84,1.47-4.7-.32-6.38-.67-.63-1.5-1.03-2.39-1.16-.28-.75-.75-1.44-1.41-1.97-.76-.63-1.77-1-2.81-1-.14,0-.28,0-.41.02-.21-.28-.47-.54-.75-.78-.82-.66-1.82-1.01-2.83-1.01-.08,0-.16,0-.24,0l2.86-5.01c1.21-2.13.51-4.9-1.56-6.18-.5-.31-1.05-.51-1.61-.61l1.77-3.75c.57-1.24.59-2.64.04-3.86-.48-1.08-1.37-1.93-2.46-2.36l4.59-9.33c1.11-2.24.25-4.91-1.94-6.08-.65-.34-1.37-.52-2.09-.52-1.72,0-3.27.97-4.04,2.53l-16.22,32.83c-1.39-1.61-3.34-2.61-5.46-2.61-.36,0-.72.03-1.08.08L14.69,8.14c-.86-.89-2.01-1.38-3.23-1.38s-2.37.49-3.22,1.37c-1.71,1.74-1.72,4.61,0,6.38l38.41,39.94ZM10.4,10.22c.29-.3.68-.46,1.07-.46s.77.15,1.07.46l39.41,40.99c.68-.33,1.35-.49,1.98-.49,2.45,0,4.33,2.29,4.55,4.86h.01c.04.76.37,1.08.71,1.08.24,0,.49-.16.62-.44h0s18.47-37.39,18.47-37.39c.27-.54.8-.86,1.35-.86.23,0,.46.05.68.17.75.4,1.04,1.34.66,2.11l-18.31,37.2c-.28.57-.11,1.29.42,1.61.02,0,.03.02.05.02.16.09.33.14.5.14.43,0,.86-.28,1.07-.71l11.33-23.98c.27-.57.82-.94,1.41-.94.14,0,.27.02.41.06.92.28,1.33,1.33.93,2.19l-11.42,24.16c-.25.53.17.95.61.95.22,0,.43-.1.57-.34,0,0,0,0,0,0l9.14-16.03c.28-.49.78-.77,1.3-.77.26,0,.53.07.77.22.71.44.95,1.4.53,2.14l-9.89,17.34c-.31.54-.33,1.23.04,1.73,0,.01.01.02.01.02.23.3.56.44.9.44.37,0,.75-.17,1-.5l6.75-8.94c.29-.4.74-.6,1.18-.6.33,0,.66.11.94.33.65.53.77,1.51.26,2.19l-4.48,5.94c-.43.66-.13.99.27.99.25,0,.55-.13.75-.39l5.07-6.69c.3-.39.74-.6,1.19-.6.33,0,.66.11.93.34.66.53.77,1.51.26,2.19l-5.34,7.04c-.5.74-.21,1.08.23,1.08.3,0,.66-.16.9-.45l5.44-6.76c.3-.34.72-.52,1.13-.52.36,0,.72.13,1.01.4.62.58.67,1.57.11,2.21l-6.97,7.97c-.27.31-.64.49-1.04.52h-.08c-.37,0-.73-.15-1.01-.41l-3.2-2.64c-.33-.22-.67-.32-.96-.32-.88,0-1.34.88.04,1.92l3.13,2.35,13.42,9.37c.61.45.88,1.31.54,2.01-.27.57-.81.87-1.35.87-.31,0-.62-.09-.88-.29l-12.04-8.81c-.37-.35-.71-.49-.99-.49-.8,0-1.12,1.12-.38,1.55l20.82,15.25c.62.45.89,1.31.56,2.01-.27.57-.81.89-1.36.89-.3,0-.6-.1-.87-.29l-20.96-16.11c-.16-.12-.34-.18-.52-.18-.24,0-.48.1-.65.3-.16.18-.24.4-.24.62,0,.27.13.55.37.73l35.12,27.56c.57.44.69,1.27.27,1.87-.26.37-.66.57-1.06.57-.27,0-.55-.09-.79-.28l-35.07-27.55c-.15-.12-.33-.18-.5-.18-.24,0-.48.11-.65.32-.01,0-.01.01-.02.02-.31.38-.24.95.14,1.25l21.57,16.71c.6.46.85,1.31.51,2-.28.57-.81.87-1.35.87-.31,0-.63-.1-.9-.32l-20.12-15.61c-.15-.12-.33-.18-.51-.18-.22,0-.44.09-.6.26-.17.17-.25.4-.25.62,0,.27.12.53.35.71l13.77,10.41c.42.32.67.83.67,1.34,0,.23-.05.45-.15.66-.28.57-.81.87-1.36.87-.31,0-.62-.1-.89-.31l-13.76-11.55c-.48-.37-.69-.98-.58-1.55.04-.22-.07-.45-.26-.57l-3.12-2.45c-.16-.13-.33-.18-.49-.18-.27,0-.52.15-.68.37-.02.02-.02.04-.04.06-.03.06-.07.12-.09.19,0,0,0,.02,0,.03-.01.06-.01.12-.02.18.06.99,2.2,2.17,2.77,3.89,0,.01,0,.02,0,.03,1.06,2.66.59,7.2.42,8.22-.13.76-.76,1.29-1.48,1.29-.18,0-.36-.03-.53-.1-.7-.26-1.07-1.04-.95-1.8.31-1.94.4-5-.26-6.45h0c-.19-.37-.41-.52-.61-.52-.36,0-.66.49-.61,1.13,0,.01,0,.02,0,.03.37,3.82.01,6.94,0,7.1-.1.79-.75,1.38-1.5,1.38-.06,0-.12-.01-.18-.02-.83-.1-1.42-.88-1.32-1.74,0-.03.46-4.86.2-6.96-.1-.58-.36-.8-.64-.8-.23,0-.46.15-.62.35-.86,2.14-.57,5.77-.36,7.12.13.85-.43,1.65-1.25,1.79-.08.02-.16.02-.24.02-.73,0-1.37-.54-1.49-1.31-.09-.55-.68-4.62.25-7.91.3-1.6,2.53-5.07,7.31-10.99.18-.2.27-.46.27-.71,0-.32-.15-.65-.42-.86-.19-.14-.4-.21-.62-.21-.3,0-.6.14-.8.4l-.92,1.19-11,14.62c-.3.39-.75.6-1.2.6-.32,0-.65-.11-.92-.33-.66-.54-.78-1.52-.27-2.2l12.37-16.44c.42-.56.14-1.29-.35-1.29-.2,0-.45.13-.69.45l-16.88,22.48c-.3.4-.74.6-1.19.6-.33,0-.65-.1-.93-.33-.66-.53-.78-1.51-.26-2.19.03-.04,4.13-5.5,8.51-11.31,4.02-5.34,8.26-10.97,9.81-13.02.44-.59.22-1.31-.32-1.31-.22,0-.49.12-.8.42-4.45,5.85-26.74,35.2-26.77,35.25-.3.41-.75.62-1.21.62-.31,0-.63-.1-.9-.31-.67-.52-.81-1.5-.31-2.19l27.66-36.36c.1-.14.22-.31.35-.46.26-.34.28-.81.05-1.17-.55-.86-1-1.53-1.74-2.44-3.72-4.55-3.56-7.87-2.99-9.64L10.39,12.43c-.59-.61-.59-1.6.01-2.21Z"/>
  </g>
</svg>