<?xml version="1.0" encoding="UTF-8"?>
<svg id="icons" xmlns="http://www.w3.org/2000/svg" viewBox="0 0 120 120">
  <path d="m61.49,110.17h-.87c-1.38,0-2.56-.99-2.74-2.3l-6.17-44.87h-6.26c-.4,0-.76.17-.96.44l-2.95,4.11c-.56.8-1.52,1.29-2.55,1.29h-4.4c-1.19,0-2.26-.63-2.78-1.65-.49-.96-.41-2.05.21-2.93l4.73-6.66c1.24-1.75,3.34-2.8,5.62-2.8h7.66l-4.05-25.83-8.16.43h-.01c-1.45,0-2.82-.31-4.04-.9l-15.75-7.27s-.07-.04-.11-.06l-4.44-2.51s-.08-.05-.12-.07c-2.66-1.85-3.9-3.32-4.02-4.78-.11-1.33.73-2.15,1.05-2.46,1.03-1.02,2.66-.7,6.15,1.27.04-3,.95-4.59,2.69-4.73,2.88-.27,3.55,4.1,3.79,6.11h.03c.24-4.53,1.48-6.82,3.69-6.82,1.83,0,2.95,1.6,3.33,4.75.49-2.72,1.55-4.14,3.17-4.2.62-.02,1.25.2,1.71.64.72.68,1.09,1.78,1.18,3.54,3.33-2.49,5.7-3.13,7.26-1.96.55.41.85,1.04.79,1.73-.13,1.76-3.69,4.61-10.58,8.47l2.64,1.1c.83.34,1.77.51,2.68.47l12.2-.51c-1.73-1.5-3.23-3.66-3.02-6.58.39-5.31,5.95-7.39,10.67-7.57.03,0,.06,0,.09-.01,2.09-.19,4.81-.03,5.66.08.08,0,.17.02.25.04,5.56.62,9.05,3.41,9.35,7.47.21,2.92-1.29,5.08-3.02,6.58l12.19.51c.94.04,1.86-.12,2.7-.47l2.62-1.09c-6.9-3.86-10.46-6.71-10.59-8.47-.05-.69.24-1.32.8-1.74,1.58-1.17,3.9-.55,7.26,1.97.08-1.73.45-2.86,1.16-3.54.47-.44,1.08-.67,1.71-.65,1.62.07,2.68,1.48,3.17,4.2.38-3.16,1.49-4.75,3.33-4.75,2.21,0,3.45,2.29,3.69,6.82h.03c.24-2.02.9-6.33,3.79-6.1,1.75.14,2.65,1.75,2.69,4.79,3.45-2.01,5.09-2.36,6.14-1.32h0c.85.83.98,1.72.93,2.32-.11,1.47-1.29,2.94-3.84,4.78-.04.03-.08.06-.13.08l-5.15,2.96s-.08.04-.12.06l-15.15,6.96c-1.2.58-2.58.89-3.95.89h-8.07l-4.17,25.4h7.65c2.27,0,4.36,1.05,5.61,2.8l4.73,6.66c.62.88.71,1.97.21,2.93-.52,1.02-1.59,1.65-2.78,1.65h-4.41c-1.03,0-1.99-.48-2.56-1.3l-2.93-4.1c-.2-.27-.57-.44-.97-.44h-6.26l-6.17,44.87c-.18,1.31-1.36,2.3-2.74,2.3Zm-.23-2.7h0s0,0,0,0Zm-.45-.3h.49l6.31-45.87c.1-.74.74-1.3,1.49-1.3h7.56c1.36,0,2.63.63,3.4,1.69l2.95,4.12s.05.03.11.03h4.42l-4.62-6.5c-.67-.95-1.88-1.54-3.16-1.54h-9.42c-.44,0-.86-.19-1.14-.53-.29-.33-.41-.78-.34-1.21l4.66-28.4c.12-.72.75-1.26,1.48-1.26h9.34c.93,0,1.85-.21,2.68-.6l15.11-6.94,5.02-2.89c1.14-.83,1.77-1.44,2.12-1.85-.53.23-1.31.61-2.43,1.25-.91.52-2.02.51-2.91-.02-.84-.5-1.33-1.36-1.32-2.3,0-.45,0-.82-.03-1.12-.17.59-.36,1.46-.5,2.72-.15,1.44-1.47,2.47-3.03,2.35l-.37-.03c-1.41-.11-2.51-1.21-2.56-2.56-.09-2.16-.42-3.36-.67-3.92-.21.55-.47,1.69-.5,3.72-.01.76-.37,1.49-.97,1.99-.66.54-1.52.75-2.37.59-1.25-.24-2.18-1.25-2.26-2.46-.06-1.01-.18-1.77-.3-2.34,0,.14-.01.29-.01.45-.02,1.01-.62,1.9-1.55,2.35-.49.24-1.02.33-1.54.28,2.07,1.3,4.51,2.72,6.8,3.94.51.27.82.82.79,1.4-.03.58-.39,1.09-.92,1.31l-5.52,2.3c-1.25.51-2.62.75-3.98.69l-17.28-.72c-.72-.03-1.32-.57-1.42-1.28-.1-.71.32-1.4,1-1.63.06-.02,5.96-2.11,5.66-6.23-.27-3.64-4.83-4.51-6.78-4.72-.05,0-.09-.01-.14-.02-.02,0-.04,0-.05,0-.51-.08-3-.23-4.86-.08-.08.02-.17.03-.25.03-1.27.04-7.62.44-7.95,4.8-.3,4.12,5.61,6.21,5.67,6.23.68.24,1.1.92,1,1.64-.1.71-.7,1.25-1.42,1.28l-17.29.72c-1.36.06-2.73-.18-3.96-.69l-5.53-2.3c-.54-.22-.89-.73-.92-1.31s.28-1.12.79-1.4c2.29-1.22,4.73-2.63,6.8-3.94-.52.05-1.06-.04-1.55-.28-.93-.45-1.51-1.35-1.52-2.35,0-.17,0-.33-.02-.48-.13.57-.25,1.35-.31,2.37-.08,1.21-1,2.22-2.25,2.46-.86.16-1.72-.06-2.37-.59-.61-.5-.96-1.22-.98-1.99-.03-2.03-.29-3.17-.5-3.72-.25.56-.58,1.75-.67,3.92-.05,1.35-1.15,2.45-2.56,2.55l-.37.03c-1.55.13-2.88-.91-3.03-2.37-.14-1.26-.33-2.12-.5-2.71-.03.3-.04.67-.03,1.12.01.95-.48,1.81-1.32,2.31-.89.53-2.01.53-2.91.02-1.34-.76-2.19-1.16-2.71-1.36.31.4.98,1.07,2.43,2.09l4.33,2.45,15.71,7.25c.84.4,1.77.61,2.7.61l9.44-.5c.75-.03,1.44.51,1.56,1.27l4.54,28.9c.07.43-.06.87-.34,1.21-.29.33-.7.53-1.14.53h-9.41c-1.28,0-2.5.59-3.17,1.54l-4.62,6.5h4.42c.07,0,.11-.02.11-.03l2.95-4.11c.76-1.06,2.03-1.7,3.4-1.7h7.56c.75,0,1.38.55,1.49,1.3l6.31,45.87ZM99.09,14.3s0,0,0,.01c0,0,0,0,0-.01Zm-76.08-.01s0,0,0,0c0,0,0,0,0,0Zm-.02,0h0s0,0,0,0Zm76.12,0h0s0,0,0,0Zm-7.17-.12h0s0,0,0,0Zm-79.49-.68h0s0,0,0,0Zm23.63-1.1h0s0,0,0,0Zm27.76-2.37h0Zm0,0s0,0,0,0c0,0,0,0,0,0Z"/>
</svg>