<?xml version="1.0" encoding="UTF-8"?>
<svg id="icons" xmlns="http://www.w3.org/2000/svg" viewBox="0 0 120 120">
  <g id="Layer_4" data-name="Layer 4">
    <g>
      <path d="m86.34,59.12c-1.97,0-3.57,1.6-3.57,3.56s1.6,3.56,3.57,3.56,3.57-1.6,3.57-3.56-1.6-3.56-3.57-3.56Zm0,4.12c-.31,0-.57-.25-.57-.56s.25-.56.57-.56.57.25.57.56-.25.56-.57.56Z"/>
      <path d="m102.41,59.83c4.09-1.33,6.33,1.04,6.41,1.13.41.47,1.07.64,1.66.41.58-.22.97-.78.97-1.4,0-3.46-1.15-5.92-3.43-7.31-4.85-2.96-13.11.38-17.2,2.38-.58-.38-1.2-.67-1.85-.86-2.77-.78-6.03.14-8.5,2.41-2.79,2.56-3.97,6.2-3.23,9.98,1.07,5.55,5.28,7.88,7.76,8.79-.05.03-.1.05-.15.07-1.53.42-5.57-2.34-9.04-6.15-4.56-5.02-7.82-7-10.25-6.26-.76.23-2.1.97-2.43,3.25-.13.91-1.06,3.08-3.7,5.45-.22.19-.42.39-.63.58-1.94,1.79-2.75,2.54-5.12,1.28-.67-.36-1.75-1.38-2.99-2.57-1.23-1.18-2.77-2.64-4.55-4.06-.08-.07-.17-.12-.27-.17,0,0-.56-.33-.75-1.12-.3-1.25.42-3.12,2.02-5.27,1.87-2.51,2.98-2.81,3.37-2.82.1,0,.31,0,.61.22-.07.73-.45,2.23-2.18,3.79-.99.9-2.1,2.12-1.79,3.54.35,1.63,2.06,2.19,4.44,2.97.44.15.92.3,1.42.48,1.03.36,2.02.25,2.89-.32,2.24-1.48,2.66-5.75,2.72-6.59,0-.07,0-.15,0-.22-.2-2.63-.6-4.57-.88-5.99-.42-2.06-.49-2.65-.14-3.13.51.29,1.49,1.3,2.23,2.06,2.66,2.75,6.68,6.9,13.1,7.37,4.19.28,5.66-4.55,6.56-9.33.81-4.33.79-21.2.7-30.87-.04-3.85-2.83-7.1-6.65-7.72l-32.68-5.31c-.4-.06-.81.03-1.13.28-.33.24-.54.6-.59,1-1.44,10.64,1.48,13.29,2.42,13.84,5.66,3.39,11.98,3.18,17.56,3.01,2.71-.08,5.26-.17,7.53.15,1.18.17,2.12,1.08,2.34,2.28l.54,3.01c-11.68-3-20.98-2.41-24.51-2.19-.39.02-.71.04-.95.05-1.67.07-2.84,1.27-2.96,3.06-.19,2.67,1.89,6.08,5.18,6.7,1.13.21,2.66.24,4.59.29,5.14.11,12.91.28,19.87,4.13.57.31.16,2.9.03,3.75-.01.09-.03.18-.04.27-7.4-3.62-16.11-6.45-19.39-6.22-3.72.24-5.46,3.59-7,6.54-.45.87-.88,1.7-1.35,2.45-.8,1.28-2.43,1.76-3.79,1.12-2.97-1.39-6.25-2.84-9.76-4.31-6.82-2.86-9.69-7.6-11.79-11.06-1.83-3.03-3.57-5.88-7.08-4.59-1.07.4-1.79,1.29-2.01,2.53-.68,3.83,3.46,10.56,9.85,16.01,4.91,4.19,11.01,6.6,15.46,8.37,1.62.64,3.55,1.41,4.45,1.95-1.08.31-4.41.4-11.61-2.32-6.19-2.34-7.98-4.67-9.55-6.73-.62-.81-1.26-1.65-2.11-2.42-1.8-1.64-3.65-1.31-4.6-.3-1.74,1.84-1.07,6.08,4.36,11.43,6.53,6.44,14.73,7.98,19.13,8.81.84.16,1.57.29,2.05.42.75.2,1.16.49,1.3.65-.17.29-1.28,1.66-7.13,3.24-5.87,1.58-9.3.46-11.81-.35-2.02-.65-3.92-1.27-5.68.32-1.15,1.04-1.5,2.46-.95,3.88,1.28,3.32,6.88,5.63,13.61,5.63s10.63-2.09,13.9-3.94c.63-.36,1.26-.71,1.9-1.04,1.95-1.01,3.31-1.4,5.87,1.76,1.79,2.21,3.96,3.42,6.45,3.57,3.57.22,7.12-1.88,9.23-3.92.58-.56,1.21-1.1,1.83-1.6-.97,2.72-1.51,5.17-1.79,6.73-3.1-.63-7.56-.27-9.57,4.2-1.94,4.3-2.91,7.57-4.14,11.71l-.21.72c-.98,3.3.25,5.3,1.91,5.81,1.8.57,4.18-.57,5.24-3.83.3-.93.61-1.98.93-3.04.53-1.8,1.41-4.77,2.19-6.39.06,2.06-.45,6.03-2.09,10.11-2.13,5.32.25,6.86,1.03,7.2.4.18.82.26,1.25.26,1.6,0,3.3-1.18,4.23-3.1,1.23-2.54,5.33-11.37,6.44-18.35.9-5.63,2.21-9.93,3.21-11.73.1,2.82-.84,9.34-2.01,14.88-1.81,7.29-1.54,12.51.79,15.49,1.43,1.83,3.64,2.8,6.37,2.8,2.92,0,4.5-1.92,4.56-3.82.05-1.79-1.29-3.8-4.35-3.98-.09,0-.2-.01-.35-.32-.68-1.3-.4-4.19,0-6.2.83,1,1.81,2.15,2.55,2.96,1.68,1.86,2.01,3.12,2.51,5.04.16.63.34,1.3.57,2.03.84,2.63,3.09,4.3,5.13,3.79.81-.2,3.38-1.28,2.39-6.69-.92-5.04-4.6-9.54-7.29-12.49l-.27-.29c-1-1.08-2.85-3.11-2.78-4.27l.19-2.9c.71,1.07,1.41,2.19,1.82,3.06,1.69,3.57,5.68,5.85,9.5,5.42,3.52-.4,6.05-2.98,6.95-7.07.68-3.09-3.29-12-5.06-15.75.59.03,1.16.05,1.7.05,4.76,0,7.97-1.05,9.54-3.14,1.33-1.77,1.11-3.81.77-4.75-.27-.72-1.03-1.13-1.78-.94-2.56.65-6.93,1.52-9.34,1.48-.03-.21-.07-.41-.11-.62,1.69-.5,4.66-1.39,7.31-2.25Zm4.05-4.6c.65.4,1.14.97,1.47,1.73-1.59-.59-3.77-.86-6.45.01-2.64.86-5.61,1.75-7.28,2.24-.32-.71-.68-1.35-1.1-1.94,5.9-2.74,10.92-3.54,13.36-2.06Zm-10.03,29.88c-.61,2.8-2.16,4.48-4.36,4.73-2.53.29-5.31-1.31-6.45-3.72-1.21-2.57-4.42-6.8-4.56-6.98-.38-.5-1.03-.71-1.63-.53-.6.18-1.02.71-1.07,1.34l-.47,7.1c-.16,2.45,1.99,4.79,3.56,6.5l.26.29c3.82,4.19,5.97,7.79,6.55,11.01.42,2.33-.03,3.17-.16,3.25-.23.07-1.13-.47-1.55-1.79-.22-.68-.38-1.3-.53-1.88-.52-2.01-1.01-3.9-3.19-6.3-1.49-1.64-4.12-4.87-4.15-4.9-.28-.34-.7-.54-1.14-.55h-.02c-.44,0-.85.19-1.14.52-1.18,1.37-2.5,8.05-1.16,11.21.59,1.39,1.66,2.2,3.01,2.28.93.05,1.54.42,1.52.9-.01.45-.55.91-1.56.91-1.83,0-3.14-.54-4.01-1.65-1.19-1.53-2.2-5-.23-12.97,1.24-5.85,3.07-16.02,1.38-18.45-.35-.5-.85-.82-1.41-.91-3.01-.46-5.37,4.62-7.05,15.05-.84,5.22-3.74,12.47-6.18,17.52-.55,1.13-1.38,1.44-1.54,1.42-.12-.13-.4-1.08.52-3.36,1.78-4.44,3.31-12.13,1.43-14.42-.44-.53-1.03-.82-1.67-.82-.14,0-.27.01-.41.04-2.32.43-3.45,3.9-5.11,9.51-.31,1.04-.61,2.05-.9,2.96-.5,1.55-1.32,1.94-1.48,1.91-.09-.07-.37-.68.06-2.1l.21-.72c1.2-4.03,2.14-7.21,4-11.33,1.89-4.2,7.3-2.21,7.53-2.13.44.17.92.12,1.32-.12.4-.24.66-.66.71-1.12,0-.06.73-6.55,3.95-12.4.33-.59.22-1.33-.27-1.8-.49-.47-1.23-.56-1.81-.21-.16.09-3.85,2.29-6.71,5.06-1.58,1.52-4.35,3.23-6.96,3.08-1.64-.1-3.05-.91-4.31-2.46-3.04-3.76-5.82-4.5-9.58-2.54-.67.35-1.33.72-1.99,1.09-3.23,1.83-6.29,3.55-12.42,3.55-6.63,0-10.31-2.42-10.81-3.71-.09-.22-.08-.35.17-.58.4-.36.81-.32,2.74.31,2.7.88,6.79,2.2,13.52.39,6.4-1.72,9.37-3.68,9.37-6.16,0-1.61-1.33-2.93-3.54-3.52-.6-.16-1.37-.31-2.27-.48-4.09-.77-11.7-2.21-17.58-8-4-3.94-4.41-6.38-4.32-7.08.1.05.25.14.43.31.65.59,1.16,1.25,1.75,2.02,1.73,2.26,3.89,5.08,10.88,7.72,4.19,1.58,11.68,3.92,14.72,1.82.82-.57,1.27-1.41,1.27-2.38,0-2.02-2.37-2.96-6.67-4.67-4.26-1.69-10.09-4-14.62-7.86-5.59-4.77-8.69-9.97-8.86-12.65-.04-.6.1-.78.11-.79,1.02-.37,1.53.13,3.47,3.33,2.18,3.6,5.47,9.04,13.19,12.27,3.47,1.45,6.71,2.89,9.65,4.26,2.73,1.28,6,.31,7.61-2.25.53-.85,1.01-1.77,1.47-2.66,1.55-2.99,2.64-4.81,4.53-4.93,2.25-.15,10.63,2.25,18.7,6.33.69.35,1.5.34,2.17-.03.67-.36,1.11-1.03,1.19-1.79.03-.32.09-.69.15-1.09.34-2.19.85-5.5-1.54-6.83-7.61-4.22-15.82-4.39-21.26-4.51-1.73-.04-3.22-.07-4.11-.24-1.26-.24-2.11-1.32-2.49-2.26-.35-.88-.25-1.47-.15-1.55.26-.01.6-.03,1.02-.06,3.46-.22,12.65-.8,24.13,2.24.88.23,1.8,0,2.46-.61.66-.61.96-1.49.8-2.37l-.65-3.61c-.44-2.48-2.4-4.38-4.88-4.73-2.52-.35-5.2-.27-8.04-.18-5.42.17-11.02.35-15.92-2.58-1.19-.71-1.52-5.19-1.15-9.33l31.12,5.06c2.37.39,4.11,2.4,4.13,4.79.15,16.27-.09,27.31-.65,30.29-1.33,7.05-2.89,6.93-3.39,6.9-5.28-.39-8.68-3.9-11.16-6.46-1.77-1.83-3.06-3.16-4.67-3.04-.57.04-1.4.29-2.12,1.27-1.18,1.61-.85,3.25-.39,5.52.28,1.39.63,3.12.82,5.51-.14,1.67-.73,3.78-1.37,4.2-.04.03-.08.05-.25,0-.52-.18-1.01-.34-1.46-.49-.77-.25-1.69-.56-2.2-.8.13-.16.33-.37.64-.65,3.58-3.24,3.17-6.69,3.15-6.83-.04-.28-.15-.55-.34-.77-1.18-1.4-2.45-1.65-3.35-1.64-1.85.05-3.71,1.37-5.69,4.03-2.21,2.96-3.06,5.57-2.53,7.76.44,1.82,1.68,2.72,2.16,3.01,1.64,1.32,3.03,2.64,4.26,3.82,1.46,1.39,2.61,2.49,3.65,3.04,4.25,2.26,6.54.15,8.56-1.72.19-.18.39-.36.6-.55,2.56-2.3,4.35-5.08,4.67-7.25.07-.49.22-.78.34-.81.02,0,1.82-.47,7.16,5.41,1.26,1.38,7.74,8.22,12.06,7.02,1.05-.29,2.41-1.16,2.91-3.62.08-.4,0-.81-.23-1.14-.23-.33-.58-.56-.98-.63-.25-.04-6.05-1.15-7.16-6.92-.53-2.73.32-5.36,2.32-7.2,1.68-1.55,3.9-2.23,5.65-1.73.55.16,1.07.45,1.55.87,0,0,0,0,0,0,.78.68,1.45,1.68,1.93,2.91.4,1.04.64,2.14.7,3.24,0,0,0,0,0,0,.1,1.82-.26,3.59-1.07,4.91-.27.43-.3.98-.07,1.44,2.79,5.8,5.58,13.05,5.23,14.65Zm7.02-20.55c-.07.19-.17.38-.32.56-.64.81-2.52,2.06-7.99,1.9.08-.44.14-.88.17-1.34,2.55,0,6.01-.65,8.14-1.12Z"/>
    </g>
  </g>
</svg>