<?xml version="1.0" encoding="UTF-8"?>
<svg id="icons" xmlns="http://www.w3.org/2000/svg" viewBox="0 0 120 120">
  <path d="m109.42,43.33c-2.43-4.75-7.89-7.41-13.61-6.61l-.16.02c-.17.02-.35.05-.43.07-.21.03-.39.06-.62.12h-.01c-.17.04-.34.07-.43.11l-.15.04c-.11.03-.22.06-.26.07-2.36.65-4.89,1.86-7.42,3.08h-1.16v.47c-5.37,1.91-9.05,1.04-10.11-.31-.07-.19-.13-.38-.18-.56l.08-.14-.17-.47c.49-2.54,2.54-4.28,10.18-8.72l1.1-.65c3.58-2.29,5.57-6.01,5.33-9.97-.4-6.31-6.43-11.18-13.47-10.82-3.57.17-6.87,1.66-9.14,4.13h-.83v1.02c-.55.8-1.08,1.83-1.6,3.06l-.15.28v.12c-1.12,2.82-1.79,5.99-1.79,8.55,0,4.49-3.46,5.02-3.97,5.07h-2.84c-.59-.07-3.96-.65-3.96-5.07,0-2.56-.67-5.74-1.8-8.57v-.15s-.16-.26-.16-.26c-.5-1.2-1.03-2.21-1.59-3.03v-1.02h-.83c-2.27-2.46-5.56-3.95-9.13-4.12-7-.34-13.07,4.51-13.47,10.82-.24,3.96,1.76,7.68,5.38,10l1.06.62c7.65,4.45,9.7,6.19,10.18,8.73l-.15.48.06.1c-.05.18-.11.38-.18.57-1.06,1.35-4.74,2.22-10.11.3v-.47h-1.16c-2.48-1.2-5.03-2.43-7.35-3.06-.1-.03-.21-.06-.32-.09h-.07c-.16-.07-.32-.11-.51-.14h-.02c-.22-.06-.41-.1-.53-.11-.17-.04-.35-.06-.59-.09h-.14c-5.7-.79-11.14,1.86-13.56,6.6-2.41,4.72-.87,10.48,3.67,13.71,2.81,2.01,6.31,2.85,9.83,2.38.5-.06.96-.14,1.39-.25,2.23-.59,6.23-2.27,8.4-3.22,1.05-.46,2.21-.82,3.44-1.08l.19-.05c2.93-.68,4.77-.49,5.94.62.7.66,1.08,1.5,1.1,2.42.02.98-.37,1.94-1.04,2.63-.08.08-.16.15-.25.25-.96.9-2.24,1.35-3.85,1.92-2.75.97-6.16,2.17-9.47,6.3-.08.08-.13.15-.16.19-.42.55-.81,1.09-1.19,1.67-.62.95-1.05,1.84-1.31,2.72-.81,2.75-.46,5.65.99,8.17,3.29,5.74,11.95,8.24,17.84,5.15.52-.28,1.15-.8,1.93-1.6,2.1-2.17,3.66-4.71,4.63-7.56.4-1.18.68-2.48.86-3.97l.56-4.42c.16-1.25.26-2.52.33-3.61.02-.29.05-.57.09-.81.07-.47.28-.45.35-.45.11,0,.38.09.38.63l.23,45.48c0,.83.67,1.49,1.5,1.49h0c.83,0,1.5-.68,1.49-1.51l-.23-45.47c.01-2.22-1.57-3.5-3.15-3.62-1.51-.12-3.23.87-3.55,2.99-.05.32-.09.67-.11,1.05-.08,1.05-.17,2.26-.32,3.44l-.57,4.43c-.15,1.29-.39,2.4-.72,3.37-.83,2.43-2.16,4.59-3.94,6.44-.78.81-1.13,1.01-1.18,1.04-4.47,2.35-11.32.38-13.83-4-1.04-1.81-1.29-3.88-.71-5.83.18-.59.48-1.22.94-1.92.32-.49.65-.95,1.02-1.44l.11-.12c2.79-3.51,5.53-4.48,8.17-5.41,1.85-.65,3.6-1.27,5.05-2.7l.45-.45v-.03c1.09-1.28,1.67-2.87,1.64-4.51-.04-1.72-.76-3.33-2.03-4.53-2.54-2.41-6.13-1.96-8.67-1.37h-.17s-.15.07-.15.07c-1.36.3-2.65.71-3.84,1.22-3.58,1.56-6.49,2.68-7.97,3.07-.29.07-.6.13-1,.17-2.79.37-5.54-.28-7.73-1.84-3.31-2.36-4.46-6.52-2.73-9.9,1.82-3.57,6.17-5.63,10.57-5h.15c.1.03.2.04.38.08.07.01.14.02.21.04l.25.06s.08.01.18.04l.46.13c1.95.54,4.15,1.56,6.37,2.63v.08l.94.38s0,0,0,0l.2.09h.04c7.43,2.91,12.72,1.4,14.5-1.28l.14-.27c.25-.62.42-1.25.5-1.83l.07-.56-.03-.04s0-.04,0-.07c0-.07,0-.24-.05-.44-.76-4.12-4.14-6.47-11.6-10.8l-1.03-.59c-2.65-1.69-4.13-4.41-3.96-7.26.29-4.68,4.92-8.28,10.33-8.01,2.94.14,5.62,1.41,7.36,3.48l.36.64h.09c.34.55.7,1.25,1.05,2.06l.11.29c1.03,2.51,1.68,5.45,1.68,7.69,0,5.97,4.43,7.89,6.77,8.06h3.11s.04,0,.05,0c.02,0,.04,0,.06,0,2.34-.18,6.77-2.09,6.77-8.06,0-2.24.65-5.18,1.68-7.69l.11-.28v-.02c.35-.81.71-1.51,1.04-2.04h.13s.35-.66.35-.66c1.74-2.07,4.41-3.33,7.35-3.47,5.42-.26,10.03,3.33,10.33,8.01.17,2.86-1.31,5.57-3.91,7.24l-.85.5-.23.13c-7.46,4.34-10.83,6.68-11.59,10.8-.04.2-.04.36-.04.43v.03l-.03.05.05.43.03.19c.08.57.26,1.19.5,1.8l.14.27c1.78,2.69,7.1,4.21,14.58,1.25l.16-.06s0,0,.01,0l.94-.38v-.08c2.19-1.06,4.42-2.1,6.44-2.65l.45-.13s.08-.02.17-.03l.24-.06c.07-.01.15-.03.27-.05.08-.02.17-.03.29-.05h.15c4.4-.65,8.75,1.41,10.57,4.98,1.73,3.38.58,7.54-2.74,9.9-2.19,1.56-4.93,2.22-7.76,1.84-.36-.04-.68-.1-.96-.17-2.04-.54-5.87-2.16-7.98-3.07-1.19-.51-2.48-.92-3.84-1.22l-.17-.08h-.17c-2.54-.59-6.12-1.03-8.64,1.37-1.28,1.21-2,2.82-2.03,4.54-.04,1.63.53,3.2,1.64,4.5l.45.5c1.45,1.43,3.2,2.05,5.05,2.7,2.65.93,5.38,1.9,8.17,5.41l.1.12c.56.73,1.07,1.48,1.57,2.32.93,2.02.8,4.38-.39,7.01-1.11,2.47-3.35,4.48-5.84,5.24-2.5.76-5.2.31-7.82-1.32-.26-.16-.73-.53-1.27-1.09-1.77-1.83-3.08-3.97-3.92-6.37-.49-2.31-.74-4.69-.75-7.06v-7.8c-.02-.29.05-.58.18-.82l.13-.23c1.16-2.09,4.67-8.45,1.59-15.49-1.41-3.21-4.08-5.69-7.35-6.8-3-1.02-6.21-.8-8.83.59-1.97.71-6.39,4.72-6.39,11.03v.74c0,2.18,1.65,3.96,3.69,3.96,1.89,0,3.47-1.54,3.67-3.58.09-.93.44-3.2,1.76-4.25.63-.5,1.43-.68,2.46-.55,1.68.21,2.87,1.01,3.51,2.38.99,2.08.6,5.17-.96,7.68-1.45,2.33-1.33,4.73-1.22,7.05.03.64.07,1.31.07,1.99l.12,44.88c0,.83.67,1.5,1.5,1.5h0c.83,0,1.5-.68,1.5-1.5l-.12-44.87c0-.73-.04-1.45-.07-2.14-.1-2.11-.19-3.79.77-5.32,2.12-3.4,2.56-7.54,1.12-10.55-1.08-2.28-3.16-3.73-5.85-4.07-1.85-.24-3.43.16-4.71,1.18-2.13,1.7-2.72,4.68-2.87,6.3-.05.49-.35.87-.68.87s-.69-.4-.69-.96v-.74c0-5.02,3.58-7.95,4.34-8.19l.2-.05.18-.1c1.91-1.05,4.3-1.22,6.55-.45,2.5.85,4.48,2.68,5.57,5.16,2.49,5.69-.39,10.88-1.47,12.83l-.13.24c-.37.68-.57,1.46-.57,2.26v7.8c.02,2.61.3,5.23.85,7.78,0,.03.02.06.03.09,0,.03.01.06.02.08.01.03.03.06.04.09,0,.01,0,.02.01.04.98,2.8,2.51,5.3,4.58,7.43.63.65,1.3,1.22,1.84,1.55,2.6,1.61,4.98,2.13,6.97,2.13,1.28,0,2.4-.21,3.31-.49,3.35-1.02,6.23-3.59,7.7-6.88,1.57-3.5,1.68-6.72.33-9.59l-.07-.13c-.58-.97-1.18-1.86-1.82-2.69-.04-.06-.1-.13-.17-.21-3.31-4.13-6.72-5.34-9.47-6.31-1.61-.57-2.89-1.02-3.85-1.92-.07-.08-.14-.15-.21-.22-.71-.75-1.09-1.7-1.07-2.66.02-.92.4-1.76,1.1-2.42,1.16-1.11,2.99-1.3,5.93-.62l.2.05c1.23.26,2.38.62,3.43,1.08,2.18.95,6.18,2.63,8.42,3.22.43.11.88.19,1.35.24,3.55.47,7.05-.37,9.87-2.37,4.53-3.23,6.08-8.99,3.67-13.71Z"/>
</svg>