<?xml version="1.0" encoding="UTF-8"?>
<svg id="icons" xmlns="http://www.w3.org/2000/svg" viewBox="0 0 120 120">
  <g id="Layer_4" data-name="Layer 4">
    <path d="m110.81,69.52c-2.77-4.95-6.9-9.2-9.42-11.54.89-1.45,1.6-3.3,1.12-5.12-.38-1.5-1.33-2.59-2.59-3.07-.93-3.43-3.27-7.38-8.1-7.38h0c-.27,0-.54.01-.81.04-4.76.46-7.13,3.41-8.13,6.01-.49.19-.92.45-1.31.78-2.49-2.87-5.69-5.38-9.23-5.38-.37,0-.75.03-1.12.08-6.67,1.04-19.42,10.35-25.4,19.87-.35-.23-.81-.59-1.34-1.17-1.91-2.09-4.7-3.17-7.92-4.42-1.73-.67-3.63-1.41-5.65-2.39.77.09,1.5.13,2.22.13,7.23,0,14.07-3.91,17.84-10.2,3.76-6.26,4.74-13.56,2.73-20.53-2.03-7.1-7-13.12-12.95-15.72-2.58-1.13-5.77-1.75-8.97-1.75h0c-3.63,0-9.04.77-14.16,4.43-4.35,3.09-9.68,9.2-10.44,20.7-.03.17-.06.32-.08.44v.05c-.03.12-.04.25-.05.37-.94,22.88,12.34,30.3,19.48,34.29.35.19.68.38,1.01.57,4.19,2.38,9.01,3.78,12.53,4.8,1.36.4,3,.87,3.78,1.2.94,2.5,3.5,11.6,4.27,16.82.5,3.46.12,4.88-.06,5.32-1.67.18-2.99,1.07-3.65,2.47-.95,2-.35,4.74,1.64,7.51.05.06,4.31,5.92,7.54,5.92,1.17,0,2.25-.62,2.81-1.63.01-.02.02-.04.03-.06.06-.11.11-.22.15-.33,2.1,1.93,5.19,3.14,6.78,3.14.15,0,.28,0,.41-.02,1.26-.14,2.28-.88,2.74-1.98.05-.12.09-.24.13-.36.54-.08,1.02-.25,1.46-.52.9-.57,1.45-1.46,1.56-2.46.09-.87-.15-1.61-.53-2.25.59-.78.8-1.78.53-2.75-.31-1.12-1.07-1.84-2.26-2.35,1.94-4.24,4.45-11.69,2.92-19.53-1.6-8.29-5.68-15.58-7.84-19.01,3.88-4.01,8.71-7.89,10.61-7.94,2.09,1.17,4.48,4.87,5.92,7.55-3.23,3.65-10.03,12.54-8.05,20.67,1.79,7.41,6.62,13.68,8.65,16.06-.02,2.83,1.06,6.82,5.18,8.89,1.9.95,3.32,1.4,4.48,1.4,1.96,0,3.08-1.2,3.46-2.32.06-.17.1-.34.13-.52.52.07,1.03.11,1.52.11,2.83,0,4.06-1.18,4.6-2.16.58-1.07.54-2.32-.08-3.37.25-.12.48-.26.71-.41.53,1.23,1.48,2.51,3.34,2.51.3,0,.6-.04.89-.12,2.53-.7,2.55-3.25,2.57-4.94.02-1.92.05-4.55,1.55-6.44,6.57-8.23,5.78-16.76,2.85-21.99Zm-53.33,18.37c-1.28-3.81-2.68-12.83-3.21-16.39l.14-.13c2.38,3.84,6.12,10.83,6.05,16.76-.06,5.28-1.62,8.8-3.13,11.44-.05-.04-.09-.08-.14-.12.79-2.71,1.69-7.39.29-11.56Zm48.14,1.76c-3.31,4.17-1.59,10.08-2.57,10.35-.03,0-.06.01-.1.01-.89,0-1.04-3.64-1.99-3.9-.04-.01-.08-.02-.12-.02-.91,0-2.78,2.33-3.94,2.33-.17,0-.33-.05-.47-.17-1.1-.93,3.31-3.89,3.18-4.56-.11-.67-6.24-.27-6.61-1.35-.36-1.07,3.43-.8,5.15-1.07,1.54-.24,1.3-1.68-.19-1.68-.17,0-.35.02-.55.06-.98.21-2.08.44-2.88.44s-1.28-.24-1.04-.97c.49-1.48,6.12-1.68,6.12-1.68,0,0,0-.88-1.71-1.95-.28-.18-.57-.25-.86-.25-1.47,0-2.98,1.91-3.8,2.14-.04.01-.08.02-.11.02-.8,0,0-3.29,3.3-4.19.29-.08.57-.12.84-.12,2.98,0,5.04,4.35,5.04,4.35,0,0,4.04-1.41,4.41-6.12.79-9.95-10.33-18.67-10.33-18.67-1.56,2.98-3.71,3.82-5.63,3.82-2.49,0-4.62-1.41-4.62-1.41,0,0-9.93,9.67-9.2,15.72.74,6.05,9.2,15.46,9.2,15.46,0,0,3.27-2.46,4.51-2.46.18,0,.32.05.39.17.61.95-1.97,1.89-2.7,3.23-.27.5-.17.7.16.7,1.23,0,5.61-2.71,5.61-2.71,2.49,1.89-4.66,4.7-4.66,4.7-.25,1.61,6.24,1.61,6.86,2.56.35.53-.42,1.02-1.92,1.02-1.13,0-2.67-.28-4.47-1.02-.8-.33-1.34-.47-1.69-.47-1.47,0,.52,2.47,1.22,3.02.53.41.78,1.21-.17,1.21-.56,0-1.55-.28-3.14-1.08-4.28-2.15-3.44-7.25-3.44-7.25,0,0-6.74-7.12-8.82-15.73-2.09-8.6,8.75-19.44,8.75-19.44,0,0-3.85-8.52-8.26-10.8-.37-.19-.78-.28-1.23-.28-4.98,0-14.46,10.63-14.46,10.63,0,0,6.62,9.14,8.7,19.89,2.09,10.75-4.41,20.96-4.41,20.96,0,0,4.53.68,3.71,1.35s-1.75.4-2,.94c-.23.53,2.7,2.42,1.85,2.96-.13.08-.32.12-.55.12-1.05,0-2.88-.73-3.53-.73-.11,0-.19.02-.22.07-.24.41,2.45,2.82,1.23,2.96-.03,0-.06,0-.09,0-1.41,0-6.98-2.62-5.91-5.38,1.1-2.82,5.88-7.39,6-17.21.12-9.8-8.57-21.49-8.57-21.49l-3.8,3.75s1.83,13.31,3.55,18.42c1.72,5.1-.98,11.69-.98,11.69,0,0,3.3,2.15,2.7,3.1l-2.09.53s1.84,2.02,1.47,3.09c-.08.22-.2.31-.35.31-.55,0-1.53-1.13-2.29-1.13-.06,0-.12,0-.18.02-.98.27,1.22,2.41.86,3.09-.04.07-.1.1-.19.1-.8,0-3.54-2.5-5.11-4.67-1.74-2.42-2.3-5.11,0-5.25,2.31-.12,3.46-2.82,2.61-8.73-.87-5.92-3.93-16.66-4.79-18.28-.85-1.61-10.17-2.68-17.28-6.72-6.88-3.9-19.88-10.03-18.97-32.12.02-.12.05-.32.1-.55,0-.03,0-.05.01-.07.64-10.41,5.32-15.87,9.2-18.63,3.88-2.77,8.36-3.87,12.42-3.87,2.94,0,5.66.57,7.77,1.5,5.16,2.25,9.48,7.55,11.27,13.8,1.77,6.16.91,12.62-2.42,18.16-3.27,5.45-9.17,8.74-15.27,8.74-.92,0-1.83-.08-2.75-.22-6.55-1.1-11.58-6-13.45-13.1-2.56-9.72,1.7-16.84,6.52-20.26,2.74-1.94,5.78-2.9,8.73-2.9,3.28,0,6.44,1.19,8.96,3.55,5.2,4.88,6.74,12.89,3.72,19.51-2.29,5.04-6.48,7.88-11.36,7.88-1.05,0-2.13-.13-3.23-.4-4.8-1.17-8.21-5.29-8.9-10.75-.68-5.38,1.42-10.5,5.22-12.75,1.69-1,3.46-1.5,5.2-1.5,1.87,0,3.69.58,5.27,1.75,2.96,2.15,4.5,5.96,4.13,10.18-.48,5.21-4.06,7.78-7.4,8.03-.19.01-.37.02-.55.02-3.4,0-6.14-2.27-6.9-5.83-.98-4.57,1.19-7.22,3.34-8.11.64-.26,1.29-.38,1.93-.38,1.74,0,3.34.93,4.12,2.54,1.22,2.51.56,4.66-.64,5.68-.53.46-1.15.68-1.77.68-.68,0-1.35-.27-1.9-.8-.64-.63-.69-1.7-.12-2.4.3-.37.72-.56,1.14-.56.28,0,.57.09.82.26.05-.23.04-.66-.25-1.28-.26-.52-.81-.74-1.38-.74-.3,0-.6.06-.87.17-.64.26-2.06,1.19-1.42,4.17.53,2.41,2.41,3.22,3.96,3.22.09,0,.18,0,.28,0,1.9-.15,4.22-1.54,4.53-5,.27-2.99-.74-5.55-2.76-7.03-1.06-.77-2.29-1.16-3.57-1.16s-2.5.36-3.72,1.08c-2.64,1.56-4.13,5.38-3.64,9.31.52,4.08,2.96,7.03,6.52,7.9.89.22,1.74.32,2.53.32,4.3,0,7.23-2.91,8.63-6,2.01-4.41,1.87-10.9-2.96-15.41-1.95-1.83-4.41-2.75-6.98-2.75-2.36,0-4.81.78-7.03,2.35-5.05,3.58-7.01,9.74-5.24,16.48,1.56,5.89,5.54,9.78,10.95,10.69.77.13,1.55.19,2.31.19,5.08,0,9.96-2.73,12.67-7.23,3.6-5.99,3.11-11.61,2.06-15.28-1.53-5.31-5.16-9.78-9.48-11.68-1.8-.78-4.11-1.27-6.62-1.27-3.5,0-7.38.95-10.74,3.34-.26.18-.51.36-.74.56,0,0-.02,0-.03.01-.01.02-.03.03-.06.05-.58.39-4.39,3.2-6.07,9.74-.02.03-.03.07-.03.1-.06.25-.12.51-.19.77-.58,2.68-.8,5.96-.34,9.88.96,8.08,6.17,14.51,13.7,18.75,6.73,3.79,12.4,4.51,14.98,7.34,1.73,1.9,3.35,2.52,4.34,2.52.48,0,.81-.15.93-.37,5.01-9.15,18.02-18.95,24.14-19.9.22-.03.44-.05.67-.05,5.92,0,11.71,11.51,11.71,11.51l.39-1.01s-1.91-3.07-1.37-5.06c.27-.97,1.06-1.16,1.62-1.16.34,0,.59.07.59.07,0,0,.37-5.23,6.01-5.77.18-.02.36-.03.53-.03,5.13,0,5.59,7.42,5.59,7.42,0,0,.49-.3,1.02-.3.46,0,.96.23,1.18,1.11.5,1.87-2.32,4.73-2.32,4.73,0,0,6.99,5.62,10.91,12.62,3.92,6.99.74,14.5-2.58,18.66Zm-15.74-2.18c.08.56.28,1.08.57,1.51-.07.52-.02.98.08,1.38-.09.14-.18.29-.25.44-.59.05-1.69.29-3.61,1.45-2.9-3.59-6.38-8.75-6.76-11.82-.33-2.7,3.51-8.06,6.87-11.71,1.08.41,2.46.77,3.97.77,2.31,0,4.37-.83,6.04-2.4,2.86,2.86,7.38,8.34,6.93,14.01-.07.87-.34,1.55-.69,2.07-1.31-1.53-3.26-3.05-5.77-3.05-.55,0-1.1.08-1.64.23-3.87,1.06-6.1,4.55-5.75,7.15Z"/>
  </g>
</svg>