<?xml version="1.0" encoding="UTF-8"?>
<svg id="icons" xmlns="http://www.w3.org/2000/svg" viewBox="0 0 120 120">
  <g id="Layer_4" data-name="Layer 4">
    <g>
      <path d="m100.45,64.28c4.26-.4,10.01-1.35,10.84-4.89,1.39-5.88-5.81-7.99-13.43-10.23l-1.12-.33c-.82-.24-1.6-.48-2.35-.71-6.5-1.97-11.19-3.39-14.81-.4-2.37,1.97-6.47,4.74-8.67,6.19-2.33-3.2-9.06-10.67-21.15-10.45l14.75-31.19c.39-.83.33-1.79-.16-2.56-.49-.78-1.34-1.24-2.26-1.24-.84,0-1.62.38-2.11,1.03l-24.53,31.67c-.07.09-.19.15-.31.13-10.15-.85-18.79-1.01-23.03-1.03-1-.04-1.89.36-2.58,1.05-.69.69-1.07,1.6-1.07,2.57,0,1.87,1.4,3.42,3.25,3.61l26.29,2.8c.43.04.77.37.84.81.79,4.75,3.51,16.56,11.84,23.44.69.58,1.01,1.41.84,2.23l-5.55,27.05c-.38,1.84.56,3.65,2.3,4.43l.57.24c.98.43,2.11.45,3.1.04,1.01-.41,1.78-1.19,2.18-2.2l9.19-22.91,6.97,1.5,7.17,23.72c.52,1.68,2.05,2.81,3.8,2.81,1.03,0,2-.39,2.74-1.09.75-.71,1.19-1.67,1.23-2.69l1.06-22.39c0-.1.13-.2.23-.2,5.67.21,15.88.18,20.54-2.2,4.47-2.29,4.42-5,4.19-6.06-.52-2.39-3.22-3.97-7.03-4.14-.35-.02-1.06-.07-1.75-.12-.74-.06-1.47-.11-1.8-.13-2.22-.08-3.96-1.88-3.96-4.1,0-1.02.38-2,1.07-2.75.7-.76,1.65-1.24,2.68-1.34Zm.08,11.18c.3.01,1,.07,1.71.12.72.05,1.45.11,1.83.13,2.86.13,4.11,1.13,4.25,1.78.14.63-.62,1.73-2.62,2.75-2.92,1.49-10.05,2.19-19.06,1.87-.86-.03-1.67.26-2.31.84-.63.58-1,1.37-1.04,2.22l-1.06,22.39c-.01.31-.17.53-.3.65-.18.17-.41.26-.67.26-.42,0-.8-.29-.93-.69l-7.21-23.84c-.29-.95-1.08-1.68-2.06-1.9l-7.32-1.58c-.18-.04-.37-.05-.55-.05-1.12,0-2.15.67-2.58,1.73l-9.26,23.09c-.1.24-.28.43-.53.53-.25.1-.51.09-.78-.02l-.57-.24c-.42-.19-.65-.63-.56-1.08l5.55-27.05c.39-1.89-.33-3.86-1.87-5.14-7.55-6.24-10.07-17.2-10.8-21.62-.29-1.77-1.73-3.12-3.49-3.3l-26.29-2.8c-.32-.03-.56-.3-.56-.62,0-.23.12-.38.19-.44.07-.07.21-.17.45-.18,4.2.02,12.76.18,22.81,1.02,1.14.1,2.22-.39,2.92-1.28l22.69-29.29-13.56,28.69c-.43.89-.36,1.92.18,2.75.55.84,1.49,1.3,2.48,1.3,11.63-.33,17.7,7.41,19.29,9.77.67.99,2.03,1.26,3.02.6,1.97-1.29,6.85-4.54,9.59-6.82,2.26-1.88,5.68-.96,12.02.96.76.23,1.55.47,2.38.71l1.12.33c7.3,2.14,12.04,3.76,11.35,6.66-.07.31-.81,1.89-8.21,2.59h0c-1.76.17-3.39.98-4.6,2.29-1.2,1.31-1.86,3.01-1.86,4.78,0,3.84,3.01,6.96,6.83,7.1Z"/>
      <path d="m83.61,58.82c-2.59,0-4.81,1.27-6.1,3.48-1.29,2.2-1.36,4.86-.2,6.93,1.42,2.52,3.99,3.54,6.54,2.6,2.5-.92,3.96-3.38,3.48-5.86-.47-2.42-2.49-3.38-4.14-3.06-1.55.3-2.98,1.81-2.55,4.02.16.81.94,1.34,1.75,1.19.81-.16,1.35-.94,1.19-1.75-.09-.46.1-.5.18-.52.23-.04.52.11.63.69.23,1.16-.62,2.13-1.57,2.48-.54.2-1.91.48-2.89-1.26-.64-1.13-.57-2.68.17-3.94.44-.75,1.47-2,3.52-2,2.23,0,4.2,1.61,4.78,3.91.64,2.57-.63,4.99-3.41,6.48-6.05,3.24-15.44-5.12-15.54-5.21-.61-.55-1.56-.51-2.12.11-.55.61-.51,1.56.11,2.12.37.33,7.52,6.72,14.45,6.72,1.54,0,3.07-.32,4.52-1.09,4.79-2.56,5.67-6.77,4.9-9.85-.91-3.64-4.07-6.18-7.69-6.18Z"/>
    </g>
  </g>
</svg>