<?xml version="1.0" encoding="UTF-8"?>
<svg id="icons" xmlns="http://www.w3.org/2000/svg" viewBox="0 0 120 120">
  <path d="m81.99,111.83c-.83,0-1.75-.21-2.78-.62-1.96-.8-3.4-3.36,2.36-24.61,2.29-8.45,4.93-16.86,5.98-20.15-1.37-.46-3.44-1.28-5.3-2.48-2.67-1.73-2.47-5.98-2.04-8.62-3.4.33-6.48,1.06-6.96,1.73-.87,1.69-.52,8.21-.22,13.95.62,11.76,1.15,21.91-4.06,22.35-1.38.11-2.64-.29-3.61-1.19-3.01-2.78-2.99-9.66-2.97-17.63,0-2.28.01-4.64-.06-6.83-.22-6.13-1.29-7.59-1.6-7.88l-.22.02s-1,.39-1.22,5.56c-.17,4.08.17,9.66.54,15.57l.09,1.48c.52,8.52-2.23,12.66-5.2,12.99-2.2.24-4.84-1.5-5.75-7.11-.65-4.02-.57-9.42-.5-14.19.06-3.91.14-9.14-.45-10.68-10.01,2.88-20.58,16.91-21.28,25.59-.28,3.44,0,6.51.21,8.97.3,3.33.49,5.53-.84,6.81-.67.64-1.59.89-2.74.74-2.42-.32-5.37-2.61-7.51-5.83-1.99-3-4.95-9.37-2.49-18.39,2.17-7.93,7.89-12.04,12.4-14.57-1.67.38-3.65.6-5.96.36-6.83-.69-10-4.55-11.04-6.18-.4-.62-.38-1.41.05-2.01.42-.59,1.15-.86,1.85-.69,5.37,1.33,15.74.28,16.87-1.28-.04-.08-.14-.25-.39-.5-2.87-2.84-10.48-1.07-16.12,1.31-.71.3-1.53.11-2.03-.48-.51-.59-.58-1.43-.17-2.1,1.57-2.55,7.46-10.69,17.71-8.47.46.1.9-.1,1.12-.5,1.23-2.24,4.17-6,10.24-5.76,6.59.23,9.65,4.12,10.66,5.78l.79-.08c.05,0,.11-.08.11-.18l-.22-29.36c-.02-2.51,1.8-4.7,4.22-5.07,1.37-.21,2.78.17,3.87,1.07,1.12.92,1.8,2.3,1.85,3.77l1.06,27.72,2.65-.57-.51-26.95c-.04-2.75,2.02-5.02,4.7-5.17h.26c1.3-.09,2.57.36,3.55,1.24,1.02.91,1.62,2.18,1.69,3.56l1.26,24.06c0,.07.04.11.06.13l8.12-1.49c.72-.13,1.25-.77,1.29-1.54.44-8.56,1.86-23.5,6.38-27.44.96-.83,2.06-1.22,3.21-1.12,1.57.14,3.18.38,4.09,1.66,1.29,1.81.65,4.41-1.26,12.12-1.65,6.65-4.13,16.7-7.02,32.67-.32,1.78,1.05,2.64,1.66,2.93,1.08.51,2.34.49,2.8-.05,1.29-1.71,4.18-17.01,5.9-26.16.6-3.18,1.15-6.11,1.61-8.41,1.5-7.47,2.56-10.24,4.36-11.41,1.23-.8,2.58-.63,3.62-.4.99.22,1.74.74,2.22,1.54,1.43,2.37.38,6.61-3.16,19.66-3.83,14.11-5.62,24.4-6,28.93-.18,2.15-1.2,3.33-2.02,3.95-1.23.92-2.7,1.13-3.79,1.13h-.02c-1.34,6.27-6.95,32.55-8.1,37.06-.92,3.6-1.73,6.24-3.87,7.31-.59.3-1.23.45-1.94.45Zm-1.4-3.31c.9.34,1.57.4,1.99.18,1-.5,1.69-2.93,2.31-5.38,1.26-4.97,8.28-37.91,8.35-38.24l.31-1.46,1.46.3c.51.1,2.03.21,2.92-.46.48-.36.75-.95.82-1.79.4-4.88,2.22-15.18,6.09-29.47,2.51-9.25,4.32-15.94,3.49-17.32-.03-.05-.07-.11-.31-.17-.88-.2-1.15-.12-1.33,0-1.17.76-2.24,5.46-3.05,9.48-.46,2.29-1.01,5.2-1.61,8.37-3.33,17.63-5.06,25.79-6.57,27.55-1.37,1.6-3.99,1.94-6.37.81-2.52-1.2-3.8-3.56-3.33-6.17,2.91-16.06,5.41-26.17,7.06-32.85,1.24-5.01,2.22-8.97,1.73-9.66-.06-.08-.35-.27-1.92-.41-.2-.02-.53,0-.98.39-2.61,2.27-4.66,11.98-5.35,25.33-.11,2.16-1.65,3.94-3.73,4.33l-8.06,1.51c-.86.16-1.76-.06-2.46-.61-.71-.56-1.15-1.41-1.2-2.33l-1.26-24.06c-.03-.58-.28-1.11-.7-1.48-.39-.35-.89-.52-1.38-.49h-.26c-1.07.07-1.89,1.01-1.87,2.14l.44,27c.02,1.41-.94,2.64-2.29,2.93l-2.78.6c-.83.18-1.69-.02-2.36-.54-.69-.53-1.1-1.35-1.14-2.23l-1.07-27.8c-.02-.62-.3-1.19-.76-1.57-.43-.35-.97-.5-1.5-.42-.97.15-1.7,1.05-1.69,2.09l.22,29.36c.01,1.58-1.09,2.91-2.62,3.16l-.71.12c-1.25.21-2.48-.36-3.14-1.44-.94-1.55-3.25-4.17-8.19-4.34-4.19-.15-6.41,2.21-7.51,4.21-.86,1.57-2.62,2.36-4.38,1.98h0c-5.48-1.19-9.48,1.36-11.94,3.84,4.93-1.56,11.68-2.73,15.29.83,1.86,1.84,1.28,3.43.94,4.03-1.83,3.26-11.01,3.74-16.73,3.29,1.43,1.11,3.57,2.18,6.65,2.49,3.85.39,6.6-.7,8.6-1.5,1.51-.6,2.71-1.08,3.82-.51.43.22.99.69,1.23,1.69.46,1.9-1.45,2.89-4.09,4.26-4.17,2.17-11.16,5.79-13.41,14.04-2.16,7.88.39,13.37,2.09,15.94,2.03,3.06,4.34,4.38,5.4,4.52.13.02.22.02.28.02.25-.6.06-2.66-.09-4.33-.23-2.58-.52-5.79-.21-9.48.82-10.02,12.27-25.39,23.97-28.37.74-.19,1.47-.04,2.05.42,1.79,1.41,1.81,5.54,1.69,13.33-.07,4.64-.15,9.91.46,13.66.54,3.31,1.78,4.69,2.46,4.61,1.09-.12,2.95-3.13,2.54-9.83l-.09-1.48c-.88-14.2-1.47-23.66,3.23-24.29.57-.17,1.35-.15,2.13.32,1.92,1.16,2.91,4.46,3.12,10.41.08,2.24.07,4.63.07,6.94-.02,6.34-.04,13.53,2,15.42.36.33.76.46,1.32.41,2.31-.19,1.61-13.51,1.32-19.2-.42-8.1-.62-13.18.56-15.49,1.4-2.74,8.46-3.34,11.43-3.47l2.04-.09-.52,1.97c-.67,2.55-.93,6.53.34,7.36,2.63,1.7,5.9,2.55,5.93,2.56l1.55.4-.5,1.52c-5.95,18.22-11.49,39.44-10.29,42.6ZM11.31,59.35s0,0,0,0c0,0,0,0,0,0Z"/>
</svg>