<?xml version="1.0" encoding="UTF-8"?>
<svg id="icons" xmlns="http://www.w3.org/2000/svg" viewBox="0 0 120 120">
  <path d="m22.59,87.58c1.65-1.4,7.82-7.23,14.35-13.41,5.21-4.92,10.91-10.32,14.12-13.26-.06,8.7-.2,20.02-.41,22.46l-2.25,1.95c-.5.43-.81,1.06-.84,1.72-.04.66.2,1.31.65,1.79l.11.12c.3.32.67.55,1.06.67l-.5,1.35c-.46,1.25.18,2.66,1.52,3.17.49.19,1,.21,1.47.1.09,1.27,1.15,2.28,2.45,2.28,2.2,0,2.84-1.96,3.13-3.47l1.23-7.59c.01-.07.02-.14.02-.22.1-6.13.42-13.96.88-19.78.17,5.23.17,12.18.04,18.71v9.12c0,1.35,1.1,2.45,2.46,2.45.99,0,1.84-.58,2.23-1.42.53.18,1.11.19,1.67-.03,0,0,.1-.04.11-.04,1.25-.48,1.88-1.88,1.45-3.05l-.47-1.54c.38-.13.72-.35,1.01-.66l.11-.11c.45-.48.69-1.14.65-1.8-.03-.61-.3-1.19-.74-1.62l-1.64-1.93c.01-.17.02-.34.03-.52l1.09-23.97c1.06-.69,1.27-.56,1.72-.27.58.38,1.47.94,2.94.94s2.61-.67,3.57-1.2c.42-.24,1.06-.59,1.21-.61,0,0,.11.07.29.38l-1.2,26.93-3.51,4.32c-.08.1-.15.21-.2.32-.2.44-.78,1.96.19,3l.11.12c.87.93,2.29,1.05,3.29.28v2.33c-.26,1.16.37,2.38,1.52,2.82,0,0,.09.04.1.04.34.13.69.2,1.04.22.06,0,.13,0,.19,0,1.62,0,3.05-1.21,3.38-2.84.45.55,1.13.9,1.9.9,1.35,0,2.46-1.1,2.46-2.45,0-.2-.04-.39-.11-.57l-2.41-5.85c-.41-2.02-.07-13.01.16-20.33.12-4.01.23-7.47.23-9.26,0-.11.02-.26.05-.37.01,0,.03.02.04.03.08.07.17.2.17.44l1.14,22.2.89,10.45c.04,1.31,1.13,2.37,2.45,2.37s2.37-1.02,2.45-2.29c.49.12,1.03.09,1.56-.12,1.19-.45,1.83-1.76,1.48-2.97l-.31-1.83c1.53.4,2.63-.12,3.22-.89.97-1.26.61-3.21-.84-4.63-.08-.08-.17-.15-.26-.2l-3.14-1.93c-.18-1.9-.67-7.26-1.16-14.05-.14-1.96-.33-3.75-.5-5.33-.21-1.98-.44-4.18-.37-5.28.8.85,1.1,3.59,1.29,5.31.18,1.64.35,3.2.83,4.28.74,1.7,2.8,2.4,5.49,1.89,3.73-.71,9.05-3.96,9.22-8.94.15-4.34-3.58-5.98-6.86-7.44-2.41-1.07-4.69-2.07-5.57-3.93-1.02-2.15-.57-3.33-.02-3.61.12-.06.27-.1.34.03,1.48,2.81,2.87,3.35,6.02,3.47,1.13.04,2.33,2.45,2.98,3.75.5.99.85,1.71,1.35,2.15.66.58,1.89.84,3.2-.35,1.6-1.45,2.96-4.73.97-7.5-.41-.58-10.28-14.1-19.68-12.31-6.74,1.28-22.33,6.86-32.64,10.56l-3.94,1.41c-9.63,3.42-13.19,7.8-20.98,17.4-3.01,3.71-6.75,8.32-11.77,14-6.45,7.31-13.93,16.67-12.9,19.73.23.69.76,1.2,1.45,1.39,1.64.46,4.31-.65,12.51-7.59Zm72.15-4.64c.11.12.18.22.24.32-.15-.05-.34-.13-.58-.27l-1.11-.93s-.06-.05-.09-.07l1.54.95Zm-70.96-6.9c5.05-5.73,8.82-10.37,11.85-14.1,7.65-9.43,10.82-13.33,19.65-16.47l3.94-1.41c10.23-3.66,25.68-9.19,32.19-10.43,6.27-1.2,14.16,7.62,16.68,11.12.4.55.51,1.21.33,1.95-.11.45-.31.84-.5,1.12-.08-.16-.16-.32-.23-.46-1.05-2.11-2.64-5.31-5.56-5.41-2.46-.09-2.63-.27-3.48-1.87-.83-1.57-2.69-2.13-4.33-1.31-1.92.96-3.16,3.74-1.35,7.58,1.36,2.86,4.39,4.2,7.07,5.39,3.2,1.41,5.15,2.39,5.08,4.59-.11,3.15-4.01,5.56-6.78,6.1-1.48.28-2.12-.03-2.17-.15-.29-.67-.44-2.06-.59-3.41-.36-3.25-.76-6.93-3.48-7.99-1.29-.5-2.15-.16-2.65.22-1.52,1.16-1.27,3.58-.76,8.4.17,1.56.35,3.32.49,5.23.62,8.52,1.23,14.8,1.24,14.86.05.47.31.89.71,1.13l1.91,1.17c-.45-.24-.99-.23-1.45.03-.54.31-.84.93-.73,1.55l.27,1.64c-.34-.31-.83-.45-1.3-.36-.23.05-.44.14-.62.28l-.4-4.64-1.13-22.08c0-1.01-.44-1.96-1.2-2.63-.72-.63-1.66-.91-2.59-.78-1.76.24-2.51,1.96-2.47,3.42,0,1.71-.1,5.16-.23,9.14-.35,11.18-.56,19.24-.05,21.24.02.07.04.14.07.21l.16.4c-.16-.02-.33-.01-.49.02-.64.13-1.12.67-1.18,1.33l-.43,4.54c-.02.2-.14.38-.3.46v-5.19c0-.55-.3-1.06-.79-1.32-.22-.12-.46-.18-.71-.18s-.47.05-.68.16l1.93-2.38c.2-.25.32-.56.33-.88l1.24-27.82c.01-.24-.04-.48-.14-.69-.56-1.23-1.29-1.97-2.21-2.27-1.36-.44-2.56.23-3.63.83-.72.4-1.46.82-2.1.82-.59,0-.86-.18-1.32-.47-1.58-1.01-2.95-1.19-5.68.77-.37.27-.6.69-.62,1.15l-1.18,25.83c-.02.38.11.75.35,1.04l.5.59c-.12.03-.24.08-.35.15-.46.27-.74.76-.74,1.28-.13-.02-.26-.01-.4,0-.06,0-.12.02-.18.04v-2.9c.59-28.24-1.1-28.92-2.11-29.33-.67-.27-1.42-.09-1.94.47-2.18,2.33-2.73,21.48-2.86,29.74l-.84,5.16v-.93c0-.72-.5-1.33-1.21-1.47-.14-.03-.28-.04-.41-.02l.11-.31c.24-.64.01-1.35-.54-1.75-.07-.05-.14-.09-.21-.12l.42-.36c.67-.58.95-.82,1.06-27.71,0-.57-.32-1.09-.82-1.35-.5-.26-1.12-.2-1.57.14-1.24.92-7.46,6.78-16.81,15.62-6.21,5.88-12.64,11.95-14.23,13.3-5,4.24-7.54,5.91-8.8,6.57,1.21-2.59,5.47-8.51,11.93-15.82Z"/>
</svg>