<?xml version="1.0" encoding="UTF-8"?>
<svg id="icons" xmlns="http://www.w3.org/2000/svg" viewBox="0 0 120 120">
  <g id="Layer_4" data-name="Layer 4">
    <path d="m9.95,92.36c.09,0,.17,0,.26-.02.35-.06,34.61-6,41.15-7.32,1.1-.22,1.92-1.17,2-2.29l.24-3.18s0-.08,0-.11c0-1.17-.94-2.11-2.11-2.11h-4.99s0-3.54,0-3.54c0-.7-.3-1.36-.84-1.82l-1.21-1.03c-.83-.71-2-.78-2.92-.19l-3.2,2.09s-.02.01-.02.02l-5.94,4.01-4.01-5.12c-.04-.05-.08-.1-.13-.15-.62-.6-1.5-.82-2.32-.56l-4.66,1.45-.83-1.67,6.75-1.83,4.41,4.19c.79.75,2,.84,2.88.21l4.39-2.85s.06-.04.09-.06c.65-.49.91-1.34.65-2.11-.21-.64-.75-1.11-1.39-1.24l-3.78-1.51-1.16-3.63c-.18-.67-.62-1.24-1.22-1.58l-3.09-1.77.52-.51,4.33,2.61c.14.39.35,1.06.48,1.53.2.67.62,1.27,1.19,1.68l3.53,2.54c.63.45,1.37.69,2.14.69h4.53c.19,0,.35.12.43.31l1.42,3.53c.31.77.97,1.32,1.78,1.47l1.82.35c1.29.25,2.51-.57,2.78-1.86l1.25-5.86c.27-1.3-.46-2.6-1.79-3.04l-3.29-.97v-1.31c0-2.7-2.17-4.9-4.83-4.9h-8.72l-2.17-2.71c-.49-.61-1.21-.96-1.98-.96h-2.23v-1.36s5.09.12,5.09.12v1.1c0,1.37,1.1,2.48,2.46,2.48h5.11c1.34,0,2.45-1.1,2.46-2.46v-1.5c.02-.67-.24-1.3-.71-1.78-.46-.47-1.08-.73-1.74-.73h-1.6v-1.35c.01-.72-.26-1.39-.81-1.95l-2.91-2.68.62-.63,3.78,3.55,3.53,2.95c.82.69,1.52,1.5,2.07,2.43.02.03.04.07.07.1l3.03,4.27s.07.09.1.13c.1.12.23.28.29.39l.21,2.6c0,.07.02.14.03.2.17.77.66,1.43,1.34,1.81.05.03.1.05.15.07l1.17.5c.62.32,1.34.34,1.99.06.68-.3,1.18-.88,1.37-1.69l.86-4.65c.33-1.33-.07-2.72-1.04-3.67l-2.73-3.4c-.05-.06-.1-.12-.16-.17-.16-.15-.26-.35-.28-.58l-.42-5.6c-.07-.9-.57-1.7-1.37-2.18l-9.72-5.38c-.16-.1-.26-.27-.28-.47l-.21-3.32c-.04-.67-.41-1.27-.98-1.62l-3.29-1.98.65-.72,5.19,3.45-.32,2.98c-.09.85.34,1.65,1.1,2.04.75.38,1.64.27,2.27-.3l1.6-1.45c.38-.34.61-.81.66-1.32l.79-5.6s.01-.08.01-.13c.03-.56-.17-1.12-.56-1.53l-1.26-1.32.28-.2,2.26,2.19-.81,5.31c0,.06-.01.12-.02.17l-.02.52c0,.06,0,.12,0,.18l.37,4.28s0,.08.02.12c.14.8.61,1.49,1.25,1.87l3.41,2.21.26,6.42c.06.6.31,1.18.72,1.63.04.04.08.08.12.12l1.7,1.47c.45.44,1.07.65,1.7.58.66-.08,1.25-.47,1.58-1.05l.97-1.73c.33-.59.45-1.27.32-1.93l-.04-4c0-.19,0-.45.04-.58l4.52-7c.45-.7.57-1.55.32-2.35-.05-.15-.11-.29-.2-.41l-4.01-5.77,1.18-3,.22-.68c.18-.57.31-1.16.37-1.76l.43-3.93.7-.47.25.29-.05.05c-.66.61-.85,1.57-.5,2.4l.7,1.62-1.39,3.75c-.37,1-.12,2.13.64,2.87l1.08,1.06c.45.44,1.07.66,1.7.6.63-.06,1.2-.4,1.55-.93.04-.06.07-.11.1-.17l2.51-5.02c.54-.85.71-1.91.46-2.88l-.07-2.62s0-.1-.01-.15l1.74-2.55.8.38-1.61,2.44c-.4.61-.59,1.35-.52,2.08l.39,4.2c.02.22-.03.44-.15.62l-2.51,3.91c-.34.53-.53,1.14-.54,1.78l-.07,3.2c0,.11-.04.21-.11.29l-5.93,6.89c-.51.6-.77,1.36-.71,2.15l.41,6.03c.05.71.48,1.32,1.13,1.59.65.27,1.38.16,1.92-.3l2.48-2.12c.56-.48.93-1.15,1.03-1.89l.23-1.6c.02-.11.06-.2.14-.27.04-.03.07-.07.1-.11l4.65-5.38c.41-.42.67-.96.75-1.54l.25-1.82,4.39-11.31,4.86-.69-.25,1.17-3.1.42c-.99.12-1.78.88-1.94,1.86l-2.11,6.79c-.21.58-.19,1.22.05,1.79.26.58.75,1.05,1.35,1.26l.82.3c.11.04.23.07.35.08.69.07,1.37-.19,1.84-.7l4.7-5.19,4.27.2v.86s-.06.1-.09.15l-3.92.34c-.23.02-.45.09-.65.21l-.71.43c-.14.08-.26.19-.37.31l-5.25,6.12c-.05.05-.09.11-.12.17l-1.31-.03c-.92-.02-1.79.45-2.28,1.2-.16.19-.58.64-1.09,1.18-.69.74-1.53,1.64-2.14,2.33l-5.95,6.84c-.56.5-.91,1.21-.95,1.97,0,.1,0,.19.01.29l.53,3.77c.04.68.44,1.29,1.07,1.59.24.11.5.17.76.17.47,0,.94-.19,1.34-.56l3.8-3.98,4.07-2.8c.09-.06.17-.13.24-.21,0,0,0,0,0,0l6.86-7.44c.16-.18,1.03-1.33,1.22-1.64.73-1.2,1.65-2.5,3.41-2.79.29-.05.8-.08,1,.21.15.22.15.59-.01.85-.29.49-1.07.9-1.95,1.02-.67.09-1,.14-5.17,5.27-.96,1.18-.79,2.93.37,3.91.74.63,1.73.82,2.65.51.85-.29,1.8-.83,2.07-.99.57-.33,1.06-.68,1.54-1.01,1.27-.88,2.37-1.64,4.56-2.03,1.56-.27,2.46.11,2.66.61.13.32-.04.69-.42.95-.03.02-.66.43-3.36.59-1.61.1-3.12.7-4.36,1.75l-1.46,1.23c-.1.05-.2.1-.31.14l-.1.04c-.57.24-1.18.36-1.8.36h-1.65c-1.38,0-2.66.69-3.43,1.85l-2.38,3.56c-.21.32-.5.57-.83.74-.42.21-.82.36-1.25.52-1.26.48-2.68,1.01-4.12,2.99-.41.56-.83,1.09-1.23,1.6-1.72,2.19-3.35,4.26-3.16,7.19.15,2.41.5,3.89,1.8,4.26.29.08,1.3.27,2.12-.87.44-.61,1.7-2.04,3.91-2.21.78-.06,1.4.02,1.99.09,1.39.18,2.97.38,4.64-1.83,1.55-2.04,5.16-5.28,6.83-6.3,2.03-1.24,5.24-3.95,7.43-6.74,1.67-2.13,4.87-2.29,5.5-2.08.14.05.58.22.56.45-.01.17-.17.35-.35.38-1.77.32-4.74.85-6.27,3.15-.37.56-.61,1.06-.83,1.51-.48,1-.72,1.49-2.36,2.1-2.92,1.08-3.26,2.86-3.27,3.57-.01,1.21.76,2.31,1.98,2.79,1.26.5,2.16.27,3.4-.04.75-.19,1.77-.44,3.32-.67.83-.12,2.04,0,3.5.34,1.33.31,2.69.81,4.04,1.5,1.05.53,1.89.91,2.5,1.13l-1.94,1.99-3.7-2.31c-.64-.4-1.4-.53-2.14-.35l-4.38,1.03c-.19.05-.39.03-.57-.04l-4.02-1.57c-1.39-.54-2.97-.33-4.18.55l-7.26,4.11c-.06.04-.12.08-.18.12-.25.19-.52.34-.81.43l-3.35,1.09c-2,.65-3.88,1.6-5.61,2.81l-4.03,2.85-.58-25.23c.01-.58-.22-1.15-.63-1.56-.41-.4-.97-.63-1.54-.61l-2.1.06c-.99.03-1.84.77-2.02,1.76l-5.46,31.61-9.59,1.83c-1.26.24-2.29,1.18-2.61,2.39-.04.13-.06.26-.09.47l-1.19,15.51c-.13,1,.17,2.01.83,2.77.66.76,1.61,1.2,2.61,1.2,1.71,0,3.19-1.3,3.44-3.11l.9-12.09c0-.08.07-.15.22-.11.02.02.05.07.05.11l-.38,12.84c-.06,1.13.29,2.19.98,2.92.62.65,1.47,1.01,2.4,1.01,1.92,0,3.4-1.43,3.52-3.44l.44-14.94.93,14.24c.13,2.02,1.87,3.57,3.85,3.43.98-.06,1.87-.5,2.51-1.24.65-.75.97-1.72.89-2.72-.1-1.32-.23-3.05-.37-4.87-.3-4.08-.65-8.7-.83-10.25v-.05s3.98,15.14,3.98,15.14c0,.03.02.07.03.1.32.93,1.01,1.71,1.89,2.12.89.41,1.87.45,2.79.09,1.81-.71,2.73-2.7,2.11-4.55l-3.67-13.3c.66,1.37,1.48,3.15,2.33,4.99,2.13,4.61,4.54,9.83,6.06,12.36.92,1.53,2.87,2.05,4.44,1.19.78-.43,1.35-1.15,1.6-2.02.25-.88.15-1.8-.25-2.52l-8.68-18.11,34.42-.85c.83-.02,1.48-.71,1.46-1.54s-.68-1.5-1.54-1.46l-36.1.9c-.63,0-1.22.32-1.57.85-.35.54-.41,1.21-.13,1.85l9.47,19.74c.07.13.05.25.03.31-.02.07-.07.16-.17.22-.15.08-.33.03-.41-.11-1.44-2.39-3.91-7.76-5.9-12.07-1.43-3.09-2.66-5.76-3.37-7.08-.41-.75-1.16-1.26-2.01-1.37l-.23-.03c-.83-.1-1.66.19-2.25.78-.67.69-.93,1.7-.68,2.63l4.27,15.46s.02.06.03.1c.12.33-.04.7-.35.82-.18.07-.33.03-.43-.01-.08-.04-.23-.13-.31-.33l-4.01-15.23c-.17-.82-.68-1.53-1.39-1.96-.7-.42-1.56-.53-2.34-.3-1.38.4-2.28,1.75-2.13,3.2l.04.36c.18,1.5.52,6.09.82,10.14.14,1.83.27,3.56.37,4.89.02.26-.1.43-.17.52-.06.07-.21.2-.43.22-.34.01-.65-.26-.67-.63l-.94-14.28c-.13-1.38-1.17-2.5-2.52-2.72-.87-.14-1.75.1-2.43.67-.69.58-1.08,1.43-1.09,2.3l-.38,14.8c-.04.58-.39.58-.52.58-.15,0-.19-.04-.21-.07-.09-.1-.19-.33-.17-.73l.38-12.9c.01-.86-.31-1.67-.91-2.29-.59-.6-1.38-.93-2.22-.93-1.61,0-2.95,1.22-3.12,2.88l-.89,12.03c-.03.25-.23.43-.46.43-.17,0-.28-.09-.34-.16-.06-.07-.15-.22-.12-.43,0-.03,0-.07.01-.1l1.19-15.47c.03-.1.14-.19.27-.21l9.74-1.86c1.08-.07,1.98-.88,2.17-1.97l5.41-31.33h.47s.61,26.62.61,26.62c-.02.68.35,1.3.95,1.62.6.32,1.31.27,1.87-.12l5.89-4.16c1.48-1.04,3.09-1.85,4.8-2.41l3.35-1.09c.59-.19,1.14-.47,1.63-.84l7.26-4.11c.06-.04.12-.08.18-.12.39-.3.89-.37,1.34-.2l4.02,1.57c.75.3,1.57.35,2.35.17l4.3-1.01,3.76,2.35c1.13.71,2.58.53,3.52-.42l2.16-2.21c.7-.72.98-1.73.74-2.7-.23-.97-.93-1.73-1.87-2.05-.46-.15-1.27-.52-2.28-1.03-1.56-.79-3.15-1.37-4.71-1.74-1.85-.43-3.4-.56-4.62-.39-1.7.25-2.81.53-3.62.73-1.1.28-1.24.29-1.57.16-.01,0-.02-.01-.03-.02.13-.16.48-.46,1.26-.74,2.78-1.03,3.44-2.4,4.03-3.62.19-.39.36-.76.62-1.14.81-1.23,2.91-1.6,4.35-1.86,1.47-.27,2.63-1.56,2.75-3.08.1-1.23-.52-2.81-2.56-3.52-1.77-.62-6.36-.12-8.86,3.06-1.95,2.48-4.87,4.96-6.63,6.03-1.94,1.18-5.85,4.67-7.66,7.05-.62.82-.69.81-1.87.67-.67-.09-1.52-.19-2.6-.11-2.03.16-3.54.99-4.59,1.85,0-.07-.01-.15-.02-.22-.11-1.79.99-3.2,2.53-5.15.42-.54.86-1.1,1.29-1.69.91-1.25,1.64-1.53,2.75-1.95.46-.17.98-.37,1.54-.65.79-.4,1.48-1.01,1.97-1.75l2.38-3.56c.21-.32.56-.51.93-.51h1.65c1.02,0,2.01-.2,2.96-.59l.1-.04c.24-.1.48-.21.71-.34.09-.05.18-.11.25-.17l1.58-1.34c.74-.63,1.64-.99,2.62-1.05,3.53-.2,4.52-.88,4.84-1.1,1.55-1.05,2.17-2.93,1.51-4.56-.64-1.57-2.54-3.04-5.96-2.43-2.84.5-4.39,1.57-5.75,2.52-.43.3-.87.6-1.35.89-.19.11-.44.25-.69.38,1.98-2.41,2.79-3.28,3.09-3.58,1.65-.32,3.02-1.21,3.73-2.4.74-1.26.7-2.89-.1-4.06-.83-1.21-2.27-1.75-3.95-1.48-3.27.52-4.83,3.09-5.49,4.18-.12.18-.81,1.1-.91,1.22l-6.71,7.27-4.06,2.8c-.09.06-.16.13-.23.2l-2.25,2.36-.18-1.25s.07-.07.1-.11l6.04-6.94c.56-.63,1.38-1.51,2.05-2.23.87-.94,1.15-1.24,1.3-1.42l1.33.03c1,.02,1.89-.5,2.37-1.35l4.99-5.81.2-.12,3.85-.33c.37-.01.87-.14,1.39-.62.4-.38,1.17-1.34,1.17-2.31v-1.76c0-1.22-.95-2.2-2.13-2.24l-5.42-.25c-.7-.02-1.37.29-1.8.85l-3.73,4.12,1.63-5.23,3.13-.43c1.01-.12,1.81-.92,1.95-1.92l.58-2.69c.01-.07.02-.13.03-.2.05-.65-.18-1.29-.65-1.76-.46-.46-1.08-.69-1.83-.64l-6.37.9c-.15.01-.3.04-.44.08-.55.05-1.05.4-1.26.93h0c-.15.24-.25.5-.31.79l-4.46,11.51s0,.02,0,.02c-.02.04-.03.09-.04.14-.01.05-.03.11-.04.16,0,0,0,.01,0,.02l-.26,1.9s-.02.02-.02.03l-4.65,5.38c-.53.53-.87,1.22-.98,1.97l-.24,1.63-.74.63-.26-3.74,5.93-6.89c.52-.6.82-1.38.83-2.18l.07-3.2c0-.08.02-.16.07-.22l2.51-3.91c.48-.74.69-1.64.61-2.52l-.39-4.2c0-.05,0-.11.04-.15l2.05-3.1c.37-.56.48-1.25.3-1.89-.18-.64-.62-1.17-1.22-1.46l-2.09-1c-1.02-.49-2.22-.16-2.86.77l-2.22,3.25c-.38.55-.51,1.24-.37,1.89l.07,2.65c0,.15.03.29.07.43.07.2.04.42-.08.59-.04.06-.07.11-.1.17l-1.98,3.96-.09-.08,1.38-3.73c.23-.63.21-1.31-.05-1.92l-.52-1.21.22-.2c.84-.78.91-2.08.15-2.94l-1.34-1.53c-.66-.76-1.77-.94-2.71-.38l-1.7,1.14c-.73.43-1.13,1.26-1.03,2.08l-.41,3.8c-.04.4-.13.79-.25,1.17l-1.41,3.7c-.23.57-.25,1.21-.06,1.8.05.15.11.28.2.41l4,5.75-4.47,6.92c-.45.7-.48,1.71-.46,2.2l.04,4.1c0,.12.03.16.06.27l-.43.76-.77-.67-.26-6.44c-.08-.88-.58-1.67-1.28-2.09l-3.42-2.21-.34-3.97.84-5.8c.2-.72,0-1.49-.55-2.02l-3.21-3.11c-.7-.68-1.79-.76-2.58-.19l-1.84,1.32c-.48.34-.79.88-.84,1.47-.06.59.15,1.17.56,1.6l1.69,1.77-.29,2.05c-.15-.26-.36-.48-.62-.66l-6.38-4.24c-.84-.56-1.94-.42-2.62.33l-2,2.2c-.41.45-.6,1.06-.51,1.67.09.61.44,1.13.96,1.45l3.86,2.32.18,2.83c.08,1.18.73,2.25,1.78,2.88l9.6,5.31.41,5.47c.07.95.48,1.83,1.16,2.48l2.73,3.4c.05.06.1.12.16.17.22.2.32.53.23.91l-.72,3.9-.29-.12-.2-2.51c0-.07-.02-.13-.03-.2-.14-.65-.62-1.29-.94-1.65l-2.96-4.16c-.72-1.19-1.62-2.25-2.69-3.14l-3.47-2.89-4.3-4.04c-.79-.81-2.19-.81-2.98,0l-1.88,1.92c-.8.81-.8,2.14.05,3.01l3.46,3.19-.02,1.7c0,.68.25,1.32.73,1.8.47.48,1.1.74,1.76.74h1.57v.46h-4.04v-1.12c0-1.35-1.09-2.45-2.4-2.45h0l-6.56-.15c-1.18,0-2.14.97-2.14,2.16v3.08c.01,1.18.97,2.15,2.15,2.15h2.86l2.2,2.75c.47.58,1.16.92,1.9.92h8.99c1.01,0,1.83.85,1.83,1.9v1.31c0,1.32.83,2.49,2.15,2.93l2.92.81-1.06,4.94-.91-.17-1.3-3.24c-.53-1.33-1.8-2.19-3.21-2.19h-4.53c-.14,0-.27-.04-.39-.13l-3.53-2.54s-.05-.06-.07-.1c-.16-.52-.38-1.27-.54-1.7-.23-.62-.66-1.15-1.22-1.49l-4.71-2.86c-.96-.59-2.19-.45-3,.33l-1.63,1.58c-.46.45-.7,1.07-.65,1.71.05.64.38,1.22.9,1.59.04.03.08.05.12.08l3.99,2.28,1.15,3.61c.13.96.87,1.73,1.81,1.89l1.98.79-2.14,1.38-4.27-4.06c-.6-.56-1.42-.78-2.21-.56l-7.96,2.16c-.66.18-1.2.64-1.48,1.27-.28.63-.27,1.35.04,1.97l1.49,2.98c.5,1.01,1.64,1.49,2.71,1.16l4.81-1.5,4.14,5.29c.04.05.08.1.13.15.75.74,1.91.87,2.84.28l6.48-4.38.09-.06s.06-.04.09-.06l2.69-1.75.67.57v3.56c0,.73.28,1.41.8,1.93.51.5,1.17.78,1.88.78h4.35s-.14,1.82-.14,1.82c-7.32,1.45-40.36,7.18-40.7,7.23-.82.14-1.36.92-1.22,1.73.13.73.76,1.24,1.48,1.24Z"/>
  </g>
</svg>