<?xml version="1.0" encoding="UTF-8"?>
<svg id="icons" xmlns="http://www.w3.org/2000/svg" viewBox="0 0 120 120">
  <g id="Layer_4" data-name="Layer 4">
    <g>
      <path d="m8.87,57.46l.42.24c.61.36,1.32.55,2.04.55.37,0,.74-.05,1.1-.15.58.65,1.45,1.12,2.52,1.35.27.06.55.09.83.09.36,0,.72-.05,1.07-.14.44.57,1.04,1.02,1.75,1.28l2.36.87c.43.16.91.25,1.4.25.71,0,1.41-.19,2.03-.54.03-.02.06-.03.09-.05l.45-.28c.51.69,1.26,1.19,2.15,1.38l1.39.31c-.93.58-1.77,1.33-2.19,2.31-.28.65-.35,1.35-.23,2.01-1.71.82-2.63,1.62-3.09,2.74-.38.92-.34,1.94.1,2.82.37.74,1.33,1.96,3.55,1.98.36.9,1.41,2.48,4.38,2.48.84,0,1.79-.13,2.81-.39,2.6-.65,4.69-1.25,6.3-1.93,0,.87.15,1.66.67,2.4.55.77,1.29,1.32,2.12,1.57l-8.69,23.75c-.38,1.06-.3,2.23.2,3.22.52,1.02,1.45,1.79,2.57,2.13l4.49,1.34c.42.12.85.18,1.27.18,1.02,0,1.97-.35,2.71-.94,0,.95.34,1.89.98,2.65.82.96,2.02,1.51,3.31,1.51h2.4c1,0,1.93-.33,2.66-.89.75.57,1.69.89,2.66.89h.73c1.18,0,2.31-.48,3.12-1.31.03-.03.06-.06.09-.1.77.7,1.8,1.12,2.93,1.12h1.25c1.27,0,2.46-.54,3.28-1.48,0,0,0,0,0,0,.67.41,1.46.65,2.29.65h.46c1.01,0,1.97-.34,2.72-.95.75.6,1.7.95,2.72.95h.81c1.41,0,2.72-.67,3.52-1.79.76-1.07.96-2.45.52-3.69l-10.83-30.55c.1.05.21.09.32.12.45.15.92.23,1.38.23,1.25,0,2.2-.51,2.91-1.14.72.66,1.52,1.23,2.39,1.71,3.7,2.03,5.41,2.27,6.38,2.27.33,0,.66-.03.96-.1,2.06-.43,2.92-1.9,3.02-3.13,0-.03,0-.06,0-.09.72-.31,1.3-.84,1.65-1.53.46-.88.5-1.92.11-2.85-.27-.64-.69-1.18-1.31-1.66,0,0,0-.02.01-.03.5-1.37.08-2.88-1.07-3.87-1.96-1.67-4.4-2.56-7.04-2.56-1.29,0-2.41.21-3.29.47l-3.79-2.66c-.49-1.82-2.17-3.19-4.19-3.3l-3.91-2.86-.12-.65,17.64,9.11c.58.29,1.21.44,1.84.44,1.91,0,3.55-1.33,3.89-3.17,0-.02,0-.05.01-.07l.42-2.57s0-.03,0-.05l3.75,1.17s.03.01.05.02c.37.11.75.16,1.13.16,1.94,0,3.57-1.35,3.9-3.21l.31-1.7c.03-.16.05-.31.06-.47l.22.04s.04,0,.05,0c.21.03.43.05.65.05,1.28,0,2.48-.6,3.21-1.61l.26-.34s.02-.03.04-.05c.32-.44.53-.92.64-1.42.99-.29,1.83-.95,2.33-1.85.08-.15.15-.3.21-.45l1.88.36c.24.05.5.07.76.07,1.64,0,3.13-1.01,3.69-2.52l.32-.87c.39-1.05.29-2.22-.28-3.21-.59-1.01-1.6-1.7-2.78-1.89l-21.03-3.62c-.88-.15-1.77-.23-2.66-.23-.72,0-1.46.05-2.17.15l-19.06,2.69c.04-.26.07-.52.07-.79.07-1.98-.86-3.56-2.11-4.6V11.5c0-1.39-.31-2.5-.93-3.37-.01-.02-.02-.03-.04-.05-.79-1.05-1.99-1.65-3.31-1.65-2.35,0-4.27,1.86-4.27,4.14v22.68c-1.45,1.2-2.27,2.97-2.1,4.79.06.66.2,1.27.39,1.81l-19.32,1.66c-2.47.21-4.88.81-7.14,1.8l-16.72,7.32c-1.38.63-2.25,1.9-2.32,3.33-.07,1.42.67,2.76,1.92,3.49Zm1.61-4.07l16.71-7.32c1.95-.85,4.05-1.38,6.2-1.56l20.34-1.75c2.45-.18,2.83-1.22,3.04-2.24,0,0-1.54-.58-1.73-2.75-.12-1.27.86-2.36,2.11-2.81V10.57c0-.63.57-1.14,1.27-1.14.35,0,.67.13.91.45.23.32.37.84.37,1.62v23.45s2.19.69,2.11,2.81c-.03,1.06-.59,1.98-1.5,2.53,0,0-.61,1.75,1.48,1.75.17,0,.36-.01.56-.04l21.86-3.08c.59-.08,1.17-.12,1.76-.12.72,0,1.44.06,2.15.18l21.06,3.63c.56.09.9.61.72,1.09l-.32.86c-.13.34-.49.57-.88.57-.07,0-.13,0-.2-.02l-21.86-4.14c-.11-.02-.23-.03-.34-.03-.46,0-.92.16-1.39.2-1.53.14-2.53.81-1.59,1.07.96.28,19.25,3.29,19.25,3.29.6.11.93.7.66,1.2-.16.29-.49.47-.86.47-.04,0-.09,0-.14-.01l-25.57-3.53c-.07,0-.15-.01-.23-.01-.28,0-.58.07-.65.29-.27.93,2.21.99,8.4,2.1,6.17,1.12,15.64,2.37,15.64,2.37.67.09,1.01.77.64,1.28l-.28.37c-.17.25-.48.38-.79.38-.06,0-.11,0-.17-.01l-25.61-4.63h-.02c-.77-.2-1.34-.3-1.76-.32h-.03s-.03-.01-.04-.01c-.08,0-.16,0-.23,0-1.11,0-.65.63-.12.86.04.01.08.03.12.04,1.86.52,4.49,1.15,6.91,1.76,4.43,1.12,16.33,4.21,16.33,4.21.47.11.77.52.69.95l-.31,1.72c-.07.43-.49.72-.94.72-.1,0-.19-.01-.29-.04l-23.17-7.2s-.06-.02-.09-.03c-.04-.01-.08-.03-.11-.04-.48-.15-.86-.21-1.17-.21-1.09,0-1.1.79-.36,1.18.05.03.11.05.16.07s.08.03.12.05l16.44,6.52c.4.16.64.52.57.91l-.42,2.59c-.08.44-.5.72-.94.72-.15,0-.31-.03-.46-.11l-22.39-11.56c-.06-.03-.12-.05-.19-.05-.21,0-.4.17-.36.39l1.12,6.13c.11.63.47,1.19.99,1.6l5,3.66c.18-.07.38-.11.58-.11.88,0,1.59.64,1.59,1.41,0,.18-.04.34-.11.48l.11.08,5.76,4.04c.15.13.36.19.56.19.11,0,.23-.02.33-.06.9-.37,2.05-.64,3.29-.64,1.67,0,3.5.48,5.09,1.84.51.43.14,1-.79,1-.43,0-.99-.12-1.64-.44-.59-.29-1.27-.4-1.89-.4-1.51,0-2.7.67-1.65,1.05,1.49.55,8.14,2.32,7.51,3.54-.08.15-.28.22-.56.22-1.59,0-5.9-2.05-6.89-2.15-.08,0-.16-.01-.23-.01-1.04,0-1.7.76,1.35,1.94,3.26,1.26,5.53,2.81,3.69,3.19-.1.02-.21.03-.33.03-1.22,0-3.37-1.04-4.95-1.9-1.14-.62-2.1-1.46-2.85-2.45-.4-.53-.86-1.03-1.15-1.03-.05,0-.1.02-.14.06-.73.66-1.39,2.49-2.59,2.49-.13,0-.28-.02-.43-.07-1.16-.39,1.21-3.24,2.25-4.41.26-.28.21-.69-.1-.93l-5.38-4.16c-.86,0-1.57-.64-1.57-1.42,0-.08.01-.16.04-.25l-1.4-.82-2.85-1.66s-.08-.03-.12-.03c-.12,0-.24.1-.21.22l1.16,5.68,14.91,42.04c.26.74-.35,1.49-1.21,1.49h-.81c-.56,0-1.07-.33-1.21-.82l-12.32-38.3s-.03-.04-.06-.04c-.04,0-.08.03-.06.07l9.45,37.69c.18.72-.42,1.4-1.24,1.4h-.46c-.59,0-1.11-.37-1.24-.9l-8.76-36.89s-.04-.04-.07-.04c-.04,0-.08.02-.07.06l5.84,37.29c.1.7-.49,1.31-1.27,1.31h-1.25c-.66,0-1.21-.45-1.27-1.04l-3.62-35.25c-.13.01-.07.01-.2.01l.22,35.4c.02.64-.56,1.16-1.27,1.16h-.73c-.72,0-1.3-.53-1.28-1.18l1.09-39.3c-.12-.01-.07-.01-.19-.01l-3.66,39.43c-.06.6-.61,1.06-1.28,1.06h-2.4c-.78,0-1.38-.62-1.27-1.3l6.38-42.44c-.13-.02-.07-.01-.2-.04l-10.67,39.69c-.15.53-.67.88-1.24.88-.13,0-.27-.02-.41-.06l-4.49-1.34c-.67-.2-1.02-.85-.81-1.44l16.59-45.35c.07-.18-.09-.34-.27-.34-.05,0-.1.01-.15.04l-3.36,1.91c0,.1-.01.19-.04.29-.14.8-.93,1.41-1.86,1.41-.11,0-.21,0-.31-.02l-4.96,3.14c-.4.26-.34.79.09.99,1.07.49,2.73,1.73,2.96,4.75.28,3.74-.77,5.56-1.72,5.56-.28,0-.56-.16-.78-.48-.35-.49.22-2.88.09-4.2-.07-.73-.53-1.07-1.07-1.07-.43,0-.91.22-1.27.62-1.09,1.23-4.84,2.25-7.9,3.02-.83.21-1.52.3-2.07.3-1.74,0-2.08-.86-1.01-1.44,1.41-.78,6.83-1.61,9.11-3.36.71-.55.57-.94-.32-.94-.36,0-.85.06-1.45.21-1.49.35-8.14,3.05-10.66,3.05-.48,0-.81-.1-.93-.33-.84-1.67,11.94-4.69,11.64-5.41-.09-.21-.4-.29-.85-.29-1.75,0-5.62,1.26-6.99,1.26-.24,0-.41-.04-.47-.13-.61-.9,2.38-2.29,4.05-2.58,2.12-.36,4-.43,5.13-.43.16,0,.31,0,.44,0,.02,0,.03,0,.05,0,.57,0,1.14-.16,1.6-.47l5.69-3.4v-.05c0-.9.78-1.67,1.79-1.71.23,0,.46.01.66.08l1.36-.93,2.64-1.81c.56-.39.86-1,.78-1.64l-.27-2.07c-.04-.35-.37-.57-.72-.57-.17,0-.35.05-.49.17l-12.58,10.36c-.08.07-.19.11-.31.11-.02,0-.05,0-.07,0l-2.05-.22c-.4-.03-.57-.45-.31-.71l9.41-9.3s.46-.7-.61-.99c-.09-.02-.17-.03-.26-.03-.23,0-.45.07-.63.2l-12.53,9.47c-.12.09-.27.14-.42.14-.05,0-.1,0-.15-.02l-3.54-.8c-.54-.12-.68-.75-.22-1.04l12.28-7.76c.59-.38.46-1.18-.22-1.4l-.42-.13c-.09-.03-.19-.04-.29-.04-.18,0-.35.04-.51.13l-15.44,9.51c-.17.1-.35.15-.54.15-.12,0-.24-.02-.36-.07l-2.36-.87c-.73-.27-.79-1.17-.1-1.53l14.65-7.23c1.39-.55-.77-1.18-.77-1.18-.15-.03-.29-.04-.44-.04-.33,0-.66.08-.95.22l-15.76,8.32c-.15.07-.32.11-.49.11-.07,0-.14,0-.21-.02,0,0-2.2-.46,0-1.39l15.03-7.96c.32-.17.25-.29-.08-.29-.35,0-1.01.14-1.82.5l-16.96,7.8c-.13.06-.26.08-.4.08-.18,0-.37-.05-.53-.14l-.42-.24c-.62-.36-.56-1.18.1-1.48Zm60.24,14.74c-.65.88-1.1,1.65-1.38,2.35l-1.64-4.61s.1.03.15.04l2.87,2.22Zm-23.68-2.89l.95-.6-.48,1.32c-.14-.25-.3-.49-.46-.72Z"/>
      <path d="m59.95,50.49c.14,1.85,1.43,9.58,1.82,11.85-.62-4.32-1.54-10.53-1.92-13.04v-.03c-.07-.47-.12-.81-.15-.97-.03-.2-.05-.39-.06-.56-.09.54.05,1.18.18,1.82.05.31.11.63.13.93Z"/>
      <path d="m69.47,45.03h.01c.51-.26,1.03-.54,1.55-.82l-1.62.81h0c-.1,0-.15.03-.21.11l-1.05.53c.33-.14.66-.3,1-.46.11-.06.22-.11.33-.17Z"/>
      <path d="m61.87,62.95s-.01-.07-.02-.1c.01.08.02.12.02.12v-.02Z"/>
    </g>
  </g>
</svg>