<?xml version="1.0" encoding="UTF-8"?>
<svg id="icons" xmlns="http://www.w3.org/2000/svg" viewBox="0 0 120 120">
  <g id="Layer_4" data-name="Layer 4">
    <path d="m14.05,106.29c.92-.3,1.67-.93,2.09-1.79.42-.83.48-1.78.17-2.66-.01-.04-1.39-4.23-.31-7.29.52-1.47,1.55-3.29,2.47-4.94,1.81-3.24,3.68-6.58,3.92-10.02.23-3.24-1.01-6.51-2.12-9.43-.51-1.34-1.21-3.17-1.21-3.87,0-2.98.41-4.2,10.78-4.58h.35c2.05-.09,4.37-.18,6.75-.36.04,0,.09,0,.13,0,.08,0,.12,0,.12,0,.02,0,.07.08.09.21.03.16,0,.29,0,.32-.02,0-.03,0-.05,0-.03,0-.07,0-.11.01-1.91.23-3.51.27-4.92.32-3.04.09-5.44.17-7.03,2.3-1.83,2.45-1.43,5.42-.98,7.43.15.72.44,1.48.77,2.36l.05.13c1.08,2.88,2.57,6.82.72,9.81-3.62,5.87-7.16,12.9-5.91,20.53.29,1.7,1.76,2.93,3.52,2.93.21,0,.38-.02.62-.05,1.88-.35,3.17-2.2,2.89-4.12-.81-5.34,2.07-10.92,4.99-15.68,3.62-5.86,1.18-12.33-.14-15.83-.12-.3-.47-1.22-.54-1.53-.14-.61-.13-.82-.15-.82.03-.04.06-.08.1-.13l.03-.04c.42-.2,1.97-.19,3.24-.19,1.79,0,4.03,0,6.74-.29l.52-.06c.06,0,.12,0,.17-.01-.18.09-.39.18-.63.28,0,0-.01,0-.02,0,0,0,0,0-.01,0-.06.03-.38.16-.49.21-.04.02-.09.03-.13.06-3.48,1.67-7.59,7.1-4.61,15.23,2.5,6.83,8.41,10.27,17.59,10.27,1.14,0,2.33-.05,3.56-.16,3.61-.31,6.71-1.93,8.96-4.69,2.57-3.15,3.92-7.79,3.45-11.78-.54-6.8-5.39-9.52-9.26-10.3,7.05.22,9.36,1.03,10.01,1.72.49.51.44.85.43.94-.42,3.23-.24,9.85,3.15,14.18,2.36,3.03,3.75,6.58,4.11,10.56.37,4.03.09,8.46,0,9.73,0,.01,0,.03,0,.05-.08.91.21,1.8.81,2.51.61.72,1.47,1.16,2.42,1.25.11.01.22.02.33.02,1.85,0,3.41-1.4,3.55-3.18,0-.06.5-5.65,0-10.99-.48-5.31-2.35-10.07-5.54-14.17-1.83-2.35-2.04-6.81-1.74-9.07.31-2.37-.5-4.7-2.28-6.58-3.02-3.16-7.88-3.85-16.39-4.05-.21,0-.44,0-.69,0-.74,0-1.99.03-2.16-.39,0-.01-.01-.03-.02-.04-.03-.18,0-.44.06-.51,0,0,.06-.03.16-.04,10.3-1.3,22.05,2,24.19,6.79,1.2,2.69,1.17,5.1,1.14,7.65-.04,3.35-.09,7.16,3,10.78,3.57,4.19,3.92,8.39,3.99,13.02v.18c.07,5.07.16,11.39,7.61,12.37,2.78.36,6.18.44,8.55.44,1.37,0,2.43-.03,2.86-.04h.22c1.95-.07,3.5-1.69,3.44-3.62-.07-1.91-1.75-3.41-3.73-3.36-1.08.03-6.68.15-10.39-.35-1.17-.15-1.35-.18-1.43-5.53v-.19c-.07-5.31-.58-11.47-5.65-17.41-1.34-1.58-1.38-3.13-1.34-6.29.03-2.87.07-6.43-1.73-10.46-3.39-7.55-13.53-11.09-22.85-11.51,2.65-1.23,6.39-2.88,8.54-3.49,1.13-.32,2.41-.69,3.78-1.13,3.92-1.29,6.48-3.94,6.85-7.09.49-4.15-2.12-8.27-4.64-10.7.16-.3.38-.68.55-.99,1.73-3.03,4.61-8.11,3.48-17.77-.22-1.91-1.99-3.29-3.93-3.07-.97.1-1.83.57-2.43,1.32-.58.73-.83,1.63-.72,2.54.87,7.49-1.24,11.16-2.64,13.6-1.22,2.16-3.27,5.76.49,9.16,1.99,1.81,2.69,3.66,2.54,4.34,0,.02-.02.12-.03.13-.13.65-.4,1.44-1.43,1.78-.79.26-1.82.54-2.72.78-.47.13-.91.25-1.29.35-2.75.77-5.01,1.54-8.39,3.17-.06.02-.12.05-.17.08,0,0,0,0-.01,0-.02.01-.05.02-.08.03-1.19.42-3.14,1.33-3.2,1.36-.13.07-.26.13-.39.19l-.19.1c-.51.17-.78,0-.84-.17-.07-.2.2-.55.85-.81.1-.04.2-.1.29-.16.57-.36,1.21-.66,1.94-.9l1.43-.53c.66-.29,1.32-.55,1.96-.81,2.73-1.1,5.08-2.05,6.05-3.85,1.5-2.8.13-5.49-.32-6.38-.36-.7-.73-1.32-1.08-1.88-.26-.42-.54-.89-.66-1.14.09-.12.29-.32.69-.69,4.56-4.19,4.64-7.38,4.71-10.11l.02-.21c.04-1.62.04-3.69,0-6.15v-.21c-.03-.92-.42-1.79-1.11-2.44-.69-.65-1.63-1-2.55-.97-.97.02-1.87.42-2.53,1.12-.64.67-.97,1.54-.95,2.49.02.83.06,3.7,0,5.89v.21c-.07,2.31-.09,3.09-2.49,5.3-4.56,4.19-3.68,7.21-2.06,9.84l.19.32c.21.35.43.7.62,1.1.03.06.06.11.08.16-.31.18-.82.42-1.61.66-.39.13-.91.33-1.49.56-.86.34-2.84,1.11-4.02,1.32.12-.14.27-.3.47-.48,2.64-2.38,2.55-5.52,2.47-8.05-.03-1.01-.06-1.96.06-2.81.28-1.96.29-4.63-1.21-6.2-.79-.83-1.86-1.21-3.1-1.09-3.57.35-3.29,5.03-3.15,7.28l.03.58c.01.29-.06.51-.22.68-.15.15-.32.21-.34.21-.08-.02-.13-.03-.17-.04-.04-.13-.09-.46-.07-1.16.11-2.7-1.3-4.15-2.66-4.61-1.49-.51-3.08.04-4.04,1.39-.92,1.3-1.1,3.02-1.25,4.55-.05.5-.12,1.22-.22,1.59-.42.09-.6.04-.63.01-.18-.17-.44-1.18,0-3.07.39-1.67.8-4.7-.74-6.18-.43-.41-1.37-1.03-2.9-.61-3.18.89-4.71,5.77-3.71,11.86.73,4.42,2.45,5.94,3.8,6.98-3.39-1.28-4.94-2.24-5.62-2.8-.15-.3-.06-1.73-.01-2.41.18-2.45.43-5.81-1.79-9.14-1.52-2.3-.98-6.49.04-9.65.28-.88.19-1.81-.24-2.63-.44-.84-1.2-1.46-2.14-1.74-1.88-.55-3.87.48-4.43,2.28-.94,2.89-2.76,10.19.78,15.53.9,1.35.79,2.89.65,4.87l-.04.53c-.18,2.32-.42,5.49,2.32,7.75,2.38,1.96,6.46,3.49,10.16,4.72.38.25.48.55.5.68.04.18-.01.28-.01.29-.03.02-.17.04-.49-.05-.11-.03-.22-.06-.38-.12-3.04-1-6.37-1.95-9.89-2.82-4.65-1.16-5.74-2.32-4.91-10.25.46-4.45-.55-7.29-1.36-9.58-1.07-2.98-1.84-5.13,1.35-11.81.4-.85.44-1.79.12-2.67-.33-.89-1.01-1.6-1.89-1.98-1.77-.78-3.88-.01-4.7,1.71-4.4,9.23-2.93,13.37-1.62,17.04.76,2.12,1,4.55.72,7.22-1.14,10.81,1.4,15.19,10.05,17.33,1.39.34,2.75.65,4.04.95,2.3.52,4.3.98,5.84,1.48-.05,0-.09,0-.12,0-.15,0-.3,0-.42.03-1.6.1-3.14.16-4.64.22l-.89.03c-7.15.25-16.93.6-16.93,11.71,0,1.95.77,3.96,1.67,6.32.84,2.23,1.79,4.76,1.67,6.51-.13,1.91-1.63,4.58-3.1,7.21-1.09,1.95-2.22,3.97-2.92,5.94-1.86,5.26.08,11.17.31,11.83.61,1.75,2.59,2.79,4.49,2.17Zm-1.97-13c.62-1.73,1.68-3.63,2.74-5.53,1.61-2.87,3.27-5.84,3.45-8.42.17-2.4-.91-5.26-1.87-7.81-.79-2.06-1.46-3.83-1.46-5.23,0-7.03,4.33-8.37,14.04-8.72l.9-.03c1.53-.06,3.12-.12,4.78-.23.04,0,.07,0,.12-.02v-.04s.09,0,.14,0v.02s.1-.01.14-.02c.34,0,.72-.01,1.14-.03l1.37-.06c.1,0,.2-.02.3-.04.91-.23,1.62-.91,1.84-1.76.22-.86-.07-1.77-.79-2.44-.64-.6-1.5-.95-2.64-1.36-.1-.04-.2-.07-.3-.1-1.69-.56-3.79-1.04-6.2-1.59-1.27-.29-2.61-.59-3.98-.93-6.38-1.58-8.87-3.89-7.79-14.11.33-3.12.03-6-.88-8.55-1.21-3.41-2.36-6.62,1.51-14.73.12-.26.49-.38.78-.25.14.06.24.16.29.29.04.11.03.22-.02.33-3.73,7.81-2.68,10.73-1.47,14.11.78,2.21,1.59,4.49,1.2,8.26-.84,8.03-.03,11.68,7.18,13.47,3.45.85,6.71,1.78,9.63,2.75.21.08.41.14.57.18,2.07.6,3.53-.43,4.06-1.72.71-1.74-.12-3.8-1.94-4.79-.1-.05-.21-.1-.32-.13-3.26-1.08-7.23-2.53-9.26-4.21-1.44-1.18-1.42-2.75-1.24-5.21l.04-.59c.16-2.21.32-4.5-1.15-6.7-2.89-4.36-1.06-11.01-.42-12.96.08-.26.42-.41.72-.32.2.06.3.19.34.27.04.07.08.19.04.32-.77,2.37-2.27,8.31.31,12.22,1.65,2.48,1.46,5.02,1.29,7.27-.15,2.14-.26,3.82,1.07,4.9,1.31,1.09,3.49,2.19,6.66,3.38.1.04.19.07.27.09.56.19,2.07.65,3.26-.13.69-.45,1.1-1.19,1.21-2.19.03-.14.03-.28.02-.42-.05-.59-.32-1.14-.77-1.57-.34-.33-.7-.6-1.04-.86-1.19-.9-2.31-1.76-2.89-5.26-.81-4.95.41-8.16,1.55-8.48.02,0,.04-.01.06-.02.15.41.23,1.57-.15,3.24-.44,1.93-.65,4.52.89,5.94.66.61,1.87,1.2,3.9.56,1.62-.51,1.8-2.32,1.98-4.06.11-1.1.25-2.46.71-3.11.18-.26.41-.37.63-.29.34.12.67.67.63,1.66-.07,1.78.17,3.68,2.53,4.24.94.23,2.04-.06,2.88-.75.92-.76,1.43-1.92,1.37-3.18,0-.19-.02-.4-.04-.63-.23-3.75.28-4.09.43-4.1.44-.04.58.11.65.18.37.39.71,1.6.41,3.72-.15,1.11-.12,2.23-.09,3.32.07,2.3.13,4.28-1.48,5.74-1.13,1.02-1.72,2.02-1.82,3.04,0,.05,0,.12,0,.17.01.88.39,1.61,1.06,2.06,1.58,1.07,4.18.18,7.42-1.08.53-.21.99-.39,1.31-.5,1.12-.35,3.08-1.11,3.62-2.19.52-.92.12-1.96-.33-2.83-.22-.45-.48-.88-.73-1.3l-.19-.32c-.99-1.6-1.84-2.99,1.52-6.08,3.18-2.94,3.37-4.57,3.44-7.35v-.21c.08-2.33.03-5.26.01-6.16,0-.14.07-.25.12-.31.06-.07.2-.18.45-.18.14,0,.29.05.4.16.06.06.16.17.16.29v.21c.04,2.42.04,4.45,0,5.93l-.02.21c-.07,2.65-.12,4.74-3.74,8.07-2.33,2.14-2,3.24-.55,5.62.32.51.65,1.06.96,1.67.52,1.02,1.02,2.34.35,3.6-.46.85-2.62,1.72-4.53,2.49-.66.27-1.35.55-1.95.81l-1.3.48c-.91.3-1.76.69-2.53,1.18-2.43,1.06-2.94,3.11-2.37,4.59.58,1.52,2.41,2.71,4.65,1.92.08-.02.16-.06.24-.09l.26-.13c.13-.06.27-.13.41-.2.24-.1,1.41-.6,2.27-.96.13-.03.25-.06.37-.13.13-.07.26-.13.39-.19l.2-.1c.06-.02.11-.05.16-.07,3.21-1.55,5.27-2.25,7.94-3,.37-.11.8-.22,1.25-.34.95-.26,2.02-.54,2.88-.83,1.29-.43,2.94-1.47,3.45-4.1.46-2.06-.9-4.89-3.46-7.22-1.78-1.61-1.31-2.96.1-5.45,1.49-2.6,4-6.96,3.01-15.44-.02-.14.04-.25.09-.31.05-.07.18-.18.41-.21.31-.03.6.16.63.43,1.02,8.69-1.57,13.23-3.11,15.95-1.12,1.98-1.74,3.06-.3,4.37,2.26,2.04,4.37,5.45,4.02,8.45-.23,1.96-2.03,3.68-4.8,4.59-1.31.43-2.56.78-3.66,1.1-3.69,1.04-11.2,4.69-12.05,5.11-1.32.51-2.09,1.66-1.84,2.75.07.29.51,1.73,2.6,1.51,11.12-.53,20.86,3.47,23.68,9.74,1.54,3.42,1.5,6.36,1.47,9.26-.04,3.06-.08,5.7,2.06,8.21,4.43,5.18,4.87,10.5,4.94,15.48v.19c.07,5.3.11,7.96,4.03,8.48,3.84.52,9.29.42,10.92.37.32-.01.59.21.6.46,0,.27-.24.5-.5.51h-.24c-.42.01-1.45.04-2.79.04-2.28,0-5.54-.07-8.16-.41-4.65-.61-4.93-3.82-5-9.42v-.18c-.07-4.85-.5-10.01-4.71-14.95-2.35-2.76-2.32-5.69-2.28-8.79.03-2.64.07-5.62-1.4-8.91-2.99-6.69-16.79-9.87-27.31-8.54-1.04.13-1.88.67-2.37,1.51-.62,1.06-.56,2.41-.23,3.21.03.08.07.16.12.23,1.02,2.05,3.51,2.02,4.87,2,.21,0,.4,0,.58,0,7.5.18,12,.74,14.27,3.12,1.15,1.21,1.67,2.68,1.48,4.13-.32,2.45-.24,7.97,2.35,11.3,2.84,3.63,4.49,7.87,4.92,12.6.47,5.07,0,10.39,0,10.46-.02.23-.26.43-.56.44-.02,0-.03,0-.05,0-.22-.02-.35-.13-.41-.2-.05-.06-.12-.17-.1-.4.1-1.32.38-5.96,0-10.22-.42-4.56-2.01-8.64-4.74-12.13-2.78-3.56-2.88-9.37-2.54-11.96.1-.85-.03-2.12-1.23-3.38-1.26-1.33-3.88-2.58-14.39-2.7-.11-.01-.22-.02-.34,0-.24,0-.48,0-.74,0-.33,0-.63.11-.88.29-.6.25-1.1.65-1.43,1.19-.52.84-.53,1.9-.04,2.76.57,1,1.7,1.56,3.06,1.57.35-.02,8.2-.03,8.83,7.85.29,2.48-.26,6.49-2.79,9.58-1.75,2.14-4.07,3.35-6.89,3.6-9.85.84-15.76-1.82-18.08-8.15-2.26-6.18.53-10.2,3-11.45.16-.05.37-.14.63-.27,1.66-.71,3.23-1.56,3.47-2.99.08-.45.07-1.33-.83-2.15,0,0,0,0,0,0-.03-.03-.07-.06-.11-.09-.83-.63-2.05-.9-3.55-.77l-.56.06c-2.55.28-4.69.28-6.41.27-2.78,0-4.6-.01-5.66,1.41-.64.84-.9,1.6-.48,3.44.09.38.27.92.67,1.95,1.21,3.2,3.23,8.57.39,13.17-3.21,5.23-6.37,11.42-5.41,17.71.04.29-.14.67-.43.72-.32.05-.62-.14-.67-.41-1.09-6.66,2.17-13.07,5.5-18.47,2.62-4.25.69-9.38-.47-12.45l-.05-.13c-.3-.8-.54-1.42-.65-1.94-.35-1.57-.62-3.55.45-4.99.7-.94,1.88-1.01,4.72-1.1,1.4-.04,3.14-.1,5.18-.34.02,0,.04,0,.07,0,0,0,.02,0,.02,0,.04,0,.07,0,.11-.01,1.67-.22,2.79-1.75,2.6-3.56-.19-1.82-1.6-3.03-3.35-2.95-.06,0-.11,0-.17,0-2.33.19-4.64.27-6.68.35h-.34c-9.29.35-13.67,1.21-13.67,7.59,0,1.16.55,2.71,1.41,4.97.99,2.6,2.1,5.54,1.92,8.12-.19,2.77-1.9,5.82-3.56,8.8-.96,1.71-2.05,3.64-2.66,5.36-1.47,4.18.31,9.29.31,9.29.05.13.01.25-.02.32-.04.07-.13.2-.32.27-.39.13-.66-.07-.74-.3-.08-.22-1.86-5.48-.31-9.84Z"/>
  </g>
</svg>