<?xml version="1.0" encoding="UTF-8"?>
<svg id="icons" xmlns="http://www.w3.org/2000/svg" viewBox="0 0 120 120">
  <path d="m111.06,33.17h-21.69c-4.69,0-9.16,1.72-12.57,4.84l-.15.14c-4.37,4-6.58,8.84-6.59,14.38,0,7.14,3.76,13.87,7.26,17.09,4.16,3.83,7.67,3.93,9.88,3.34,2.82-.75,5.09-3.09,6.08-6.25,1.05-3.37-.13-8.56-2.83-9.46-.78-.26-2.64-.47-4.05,2.64-.33-.57-.67-1.46-.67-2.49,0-1.2.44-2.89,2.64-4.12.74-.42,1.49-.41,2.34.01,2.31,1.15,4.52,4.98,5.03,8.72.38,2.81-.4,7.11-3.01,10.36-1.99,2.47-4.63,3.85-7.84,4.11-7.83.61-14.19-10.98-17.61-17.21-.41-.75-.81-1.49-1.2-2.21-3.42-6.32-6.37-11.77-13.64-18.57-4.42-4.14-11.61-6.08-18.76-5.06-7.62,1.08-13.94,5.27-17.8,11.77-6.8,11.47-5.74,24.26,2.84,34.22,3.58,4.15,8.39,6.22,13.57,5.81,4.77-.37,9.13-2.85,11.37-6.46,1.73-2.78,1.8-5.47.18-6.84-.6-.51-2.84-1.91-6.52,1.31-1.69,1.48-4.35,2.2-6.92,1.88-1.96-.25-4.74-1.2-6.88-4.32-2.94-4.3-3.77-10.74-2.12-16.41,1.54-5.28,5.07-9.33,9.94-11.41,6-2.56,15.32-3.64,26.81,16.48,9.05,15.85,15.72,26.25,25.52,26.38,5.26.08,10.89-2.51,14.75-6.73,3.02-3.31,6.43-9.16,5.49-18.27-.95-9.19-5.61-13.11-8.31-14.63-3.19-1.79-6.9-2.09-9.68-.77-2.26,1.07-3.55,2.37-4.49,3.32-.37.37-.88.88-1.06.93,0,0-.13,0-.44-.18-.08-.05-.26-.46-.11-1.31.41-2.32,2.99-6.11,8.41-7.07,7.46-1.32,15.41,4.68,17.71,13.37.65,2.47,3.49,15.3-4.69,25.89-3.25,4.21-8.58,7.15-14.25,7.87-3.74.47-9.3.19-14.5-3.86-4.45-3.46-10.14-13.11-14.71-20.86-2.81-4.77-5.24-8.89-7.21-11.43-3.8-4.89-8.62-7.44-13.6-7.13-4.62.27-8.92,2.99-11.51,7.29-3.57,5.92-2.42,13.09.48,16.83,1.94,2.51,4.61,3.49,7.32,2.68,4.89-1.46,6.71-5.52,5.98-8.79-.57-2.55-2.58-4.11-4.93-3.83-.01,0-.02,0-.04,0-.7,0-1.71.3-2.5,1.3-.4-2.37,1.73-5.36,4.51-6.26,4.06-1.32,8.03,1.83,10.88,8.64,2.8,6.68,2.55,13.05-.69,17.93-3.11,4.67-8.65,7.35-15.21,7.35H11.06c-.83,0-1.5.67-1.5,1.5s.67,1.5,1.5,1.5h20.19c7.58,0,14.03-3.17,17.71-8.69,3.82-5.74,4.16-13.11.96-20.75-5.15-12.31-12.46-11.02-14.58-10.33-4.37,1.42-7.38,6.1-6.46,10.01.24,1.03.81,3.45,2.61,3.55.73.04,1.71-.28,2.34-2.03.18-.5.38-.67.46-.71.1,0,.19,0,.29-.02,1.22-.18,1.63,1.1,1.72,1.5.41,1.84-.63,4.28-3.91,5.25-1.9.57-3.27-.58-4.09-1.64-2.32-3-3.06-8.85-.28-13.45,2.08-3.45,5.49-5.63,9.12-5.84,3.97-.22,7.88,1.89,11.05,5.98,1.85,2.39,4.35,6.63,7,11.12,4.94,8.39,10.54,17.89,15.45,21.71,3.92,3.05,8.7,4.66,13.72,4.66.99,0,1.99-.06,3-.19,6.44-.82,12.51-4.19,16.24-9.01,9.04-11.7,5.93-25.79,5.21-28.49-2.69-10.16-12.16-17.12-21.13-15.55-6.21,1.1-10.16,5.61-10.84,9.5-.35,2,.23,3.66,1.57,4.43,2.49,1.43,3.95-.04,5.13-1.22.83-.83,1.87-1.87,3.65-2.72,1.92-.91,4.57-.65,6.93.67,2.19,1.23,5.99,4.47,6.8,12.32.82,8-2.11,13.09-4.72,15.94-3.3,3.61-8.12,5.79-12.49,5.75-7.5-.1-13.38-8.1-22.95-24.87-9.51-16.66-19.52-22.47-30.59-17.75-5.71,2.43-9.85,7.17-11.65,13.33-1.9,6.5-.91,13.93,2.52,18.94,2.16,3.15,5.34,5.14,8.98,5.6,3.41.43,6.96-.57,9.28-2.6,1.64-1.44,2.52-1.34,2.6-1.28.15.12.33,1.19-.78,2.97-1.72,2.78-5.28,4.76-9.06,5.05-4.2.34-8.13-1.37-11.07-4.78-7.81-9.07-8.74-20.27-2.53-30.73,3.39-5.71,8.94-9.38,15.64-10.33,6.18-.88,12.57.8,16.28,4.28,6.91,6.47,9.76,11.73,13.05,17.81.39.73.79,1.47,1.21,2.22,3.75,6.82,10.74,19.52,20.47,18.76,4.01-.31,7.45-2.12,9.95-5.21,2.79-3.47,4.23-8.43,3.65-12.64-.56-4.09-3.03-9.19-6.66-11-1.75-.87-3.52-.85-5.14.05-3.29,1.84-4.77,5.02-3.97,8.52.46,1.99,1.79,4.18,3.62,4.29.83.04,1.86-.38,2.33-1.72.32-.9.6-1.33.76-1.52.64.69,1.47,3.36.77,5.59-.68,2.17-2.17,3.76-3.99,4.24-2.12.57-4.56-.35-7.07-2.65-2.54-2.33-6.3-8.22-6.29-14.88,0-4.67,1.89-8.77,5.62-12.18l.13-.12c2.88-2.62,6.63-4.07,10.56-4.07h21.69c.83,0,1.5-.67,1.5-1.5s-.67-1.5-1.5-1.5Z"/>
</svg>