<?xml version="1.0" encoding="UTF-8"?>
<svg id="icons" xmlns="http://www.w3.org/2000/svg" viewBox="0 0 120 120">
  <path d="m24.69,110.95c.3.36.73.55,1.16.55.33,0,.67-.11.95-.34l28.97-23.63h4.27l-19.63,21.46c-.56.61-.52,1.56.09,2.12.29.26.65.39,1.01.39.41,0,.81-.16,1.11-.49l21.48-23.48h30.05c.54,0,1.03-.29,1.3-.75.27-.46.27-1.04,0-1.5l-14.9-25.82-8.25-41.04,2.84-7.92c.28-.78-.13-1.64-.91-1.92-.78-.28-1.64.13-1.92.9l-2.98,8.31s0,.03,0,.04c-.05.16-.08.33-.08.5,0,0,0,.01,0,.02l.83,22.97-4.68-8.11c-.27-.46-.76-.75-1.3-.75s-1.03.29-1.3.75l-30.05,52.06c-.27.46-.27,1.04,0,1.5.27.46.76.75,1.3.75h16.98l-26.12,21.31c-.64.52-.74,1.47-.21,2.11Zm48.23-74.24l2.94,14.62-2.57-4.45-.37-10.17Zm-8.82.26l13.75,23.81s0,0,0,0l13.71,23.74h-54.91l27.46-47.56Z"/>
</svg>