<svg id="Symbols" xmlns="http://www.w3.org/2000/svg" viewBox="0 0 120 120"><defs><style>.cls-1{fill:none;stroke:#211f1f;stroke-linecap:round;stroke-linejoin:round;stroke-width:4px;}</style></defs><circle class="cls-1" cx="60" cy="60" r="47.87"/><path class="cls-1" d="M78.49,26.7c-2.12-1-18.45-8-34.91.59A39.56,39.56,0,0,0,26,46.27L41.12,60,26,70.34A37.09,37.09,0,0,0,58.71,95.66c16.23.93,31.49-9.4,36.95-25.32L79.94,60l6.7-5.66"/><path class="cls-1" d="M47.36,67.14q-4.29,3.08-8.6,6.13c.44.72,7.54,12,21.24,12.2,13.52.22,21-10.53,21.47-11.28l-9.09-7"/><path class="cls-1" d="M46.49,51.14,39.21,45a27,27,0,0,1,30.41-9"/><path class="cls-1" d="M53.71,74.42a9.24,9.24,0,0,0,12.56-.29"/><path class="cls-1" d="M52.31,44.74a14.52,14.52,0,0,1,5.42-2.28,14.69,14.69,0,0,1,7,.35"/></svg>