<svg id="Symbols" xmlns="http://www.w3.org/2000/svg" viewBox="0 0 120 120"><defs><style>.cls-1{fill:none;stroke:#211f1f;stroke-linecap:round;stroke-linejoin:round;stroke-width:4px;}</style></defs><circle class="cls-1" cx="60" cy="60" r="47.18"/><path class="cls-1" d="M81.41,47.64A37.41,37.41,0,0,1,69.16,43,37.18,37.18,0,0,1,60,35.28,35.46,35.46,0,0,1,38.59,47.64a36.44,36.44,0,0,1,0,24.72A34.36,34.36,0,0,1,60,84.72,31.8,31.8,0,0,1,81.41,72.36a32.9,32.9,0,0,1,0-24.72Z"/><polyline class="cls-1" points="60 83.09 60 60 49.86 65.49"/><line class="cls-1" x1="60" y1="35.28" x2="60" y2="45.63"/><line class="cls-1" x1="38.59" y1="47.64" x2="60" y2="60"/><line class="cls-1" x1="81.09" y1="71.55" x2="69.6" y2="64"/><line class="cls-1" x1="80.28" y1="48.26" x2="75.42" y2="50.76"/><path class="cls-1" d="M64.07,30.44c-.6.15-1.12.75-2.15,1.94A14.22,14.22,0,0,0,60,35.28"/><path class="cls-1" d="M31,50.93A12.51,12.51,0,0,0,28.55,54,12.91,12.91,0,0,0,27,60a12.5,12.5,0,0,0,2.82,7.84,13,13,0,0,0,8.8,4.52c-3.53,7.88.54,16.42,6.94,18.45C50.48,92.38,56.61,90,60,84.72A12.36,12.36,0,0,0,81.41,72.36a12.36,12.36,0,0,0,0-24.72,13.2,13.2,0,0,0,2.18-8.84,13.43,13.43,0,0,0-5.43-9"/><path class="cls-1" d="M36,40.77a13.47,13.47,0,0,0,2.58,6.87"/><path class="cls-1" d="M60,107.18q2.32-4,4.66-7.93c-1.56-1.59-3.11-3.19-4.66-4.78l-4.55,4.71Q57.72,103.18,60,107.18Z"/><path class="cls-1" d="M20.35,83.83l9.19-.21,1.62-6.48-6.41-1.39Z"/><path class="cls-1" d="M98.93,83.57Q97,79.39,95.16,75.18l-6.59,1,1.2,6.44Z"/><path class="cls-1" d="M100.93,37l-9.19-.28c-.65,2.13-1.31,4.25-2,6.38l6.32,1.74Z"/><path class="cls-1" d="M59.82,13.9,55.45,22l4.82,4.61,4.38-4.86Z"/><path class="cls-1" d="M20.52,36.68q1.93,4.17,3.89,8.33L31,43.88q-.66-3.21-1.3-6.42Z"/></svg>