<svg id="Symbols" xmlns="http://www.w3.org/2000/svg" viewBox="0 0 120 120"><defs><style>.cls-1{fill:none;stroke:#211f1f;stroke-linecap:round;stroke-linejoin:round;stroke-width:4px;}</style></defs><circle class="cls-1" cx="64.54" cy="56.49" r="8.96"/><path class="cls-1" d="M61.26,48.17a32.49,32.49,0,0,0-20.41-3.43C28.63,46.89,18.48,56.67,14.39,69.86c.94-1.4,10.51-15.31,21.4-14,1.5.19,5.32.66,7.44,3.77a8.85,8.85,0,0,1,.3,9c-2.23,4-8.14,6-14,3.87a12.56,12.56,0,0,0,6.73,4.58,11.73,11.73,0,0,0,3.26.35"/><path class="cls-1" d="M55.11,57.81A32.49,32.49,0,0,0,41,73c-4.94,11.38-2.37,25.24,6.39,35.92-.65-1.56-7-17.2.13-25.55,1-1.15,3.48-4.08,7.24-4.14a8.85,8.85,0,0,1,7.64,4.69C64.57,88,63,94,57.93,97.71A11.9,11.9,0,0,0,69.3,86.79"/><path class="cls-1" d="M73.94,55.37a32.5,32.5,0,0,0,.53-20.68C70.63,22.89,59.53,14.2,45.9,12c1.52.73,16.63,8.26,16.82,19.24,0,1.51.09,5.35-2.69,7.89a8.86,8.86,0,0,1-8.83,1.55c-4.31-1.64-7.08-7.22-5.8-13.35a11.94,11.94,0,0,0-1.29,15.72"/><path class="cls-1" d="M71.4,63.52a32.55,32.55,0,0,0,19.68-6.38c9.85-7.56,14.34-20.92,11.87-34.51-.19,1.68-2.25,18.43-12.53,22.27-1.42.53-5,1.87-8.34.09a8.85,8.85,0,0,1-4.4-7.8c.11-4.61,4.44-9.08,10.65-9.91a11.91,11.91,0,0,0-15.25,4"/><path class="cls-1" d="M56.83,63a32.53,32.53,0,0,0,9.08,18.59c8.85,8.69,22.71,11.27,35.82,6.93-1.69,0-18.56.34-23.8-9.3-.72-1.33-2.56-4.71-1.26-8.24a8.86,8.86,0,0,1,7.11-5.45c4.59-.54,9.62,3.12,11.31,9.15A11.93,11.93,0,0,0,89,60.14"/></svg>