<svg id="Symbols" xmlns="http://www.w3.org/2000/svg" viewBox="0 0 120 120"><defs><style>.cls-1{fill:none;stroke:#211f1f;stroke-linecap:round;stroke-linejoin:round;stroke-width:4px;}</style></defs><circle class="cls-1" cx="60" cy="23.45" r="7.32"/><path class="cls-1" d="M70.45,25.61a35.94,35.94,0,1,1-20.9,0"/><path class="cls-1" d="M70.45,25.61a35.94,35.94,0,1,1-20.9,0,18.05,18.05,0,0,1-.2-6.41,18.26,18.26,0,0,1,1.75-5.53C28.67,18.75,12.82,38.32,12.82,60A47.18,47.18,0,1,0,68.9,13.67a13.46,13.46,0,0,1,1.55,11.94Z"/><path class="cls-1" d="M70.45,25.61c3.89,6.76,4.13,14.54.39,20-.54.8-3.75,5.51-9.22,6.44a7.87,7.87,0,1,0-1.62.17h0c-5.54.12-9.24-3.83-10-4.65-4.6-5.18-4.83-14-.48-22-8.46,7-11.31,18.12-7.39,26.8A20.75,20.75,0,0,0,52,62.48h0C46.56,70.16,49.32,84,60,95.94,70.34,85.1,73.3,71.77,68.17,63.56c-.19-.3-.42-.64-.68-1A21.49,21.49,0,0,0,78.44,51C81.86,42.2,78.67,31.69,70.45,25.61Zm-9,26.51c-.14,0-.28.05-.42.06A3,3,0,0,0,61.49,52.12Z"/></svg>