<svg id="Symbols" xmlns="http://www.w3.org/2000/svg" viewBox="0 0 120 120"><defs><style>.cls-1{fill:none;stroke:#211f1f;stroke-linecap:round;stroke-linejoin:round;stroke-width:4px;}</style></defs><path class="cls-1" d="M60,107.66V53.38L41.59,42"/><polyline class="cls-1" points="60.02 53.38 78.81 42.03 92.73 48.77 98.32 43.91"/><line class="cls-1" x1="92.73" y1="48.77" x2="93.83" y2="55.88"/><polyline class="cls-1" points="41.59 42.03 27.67 48.77 22.09 43.91"/><line class="cls-1" x1="27.67" y1="48.77" x2="26.58" y2="55.88"/><polyline class="cls-1" points="85.28 22.26 78.81 26.2 78.81 42.03"/><line class="cls-1" x1="78.81" y1="26.2" x2="71.63" y2="22.26"/><polyline class="cls-1" points="48.06 22.26 41.59 26.2 41.59 42.03"/><line class="cls-1" x1="41.59" y1="26.2" x2="34.41" y2="22.26"/><path class="cls-1" d="M12.14,44l10,20.18H34.41l5.33-8.28"/><path class="cls-1" d="M12.14,44l7.12-11.83L29,33"/><polyline class="cls-1" points="107.77 45.4 98.35 64.16 86.03 64.16 80.7 55.88"/><path class="cls-1" d="M108.29,44l-7.12-11.83-9.68.8"/><path class="cls-1" d="M52.36,31.61l4.89-8.32q-2.45-5.4-4.9-10.81L29.79,12,23.91,22.8,29,33"/><path class="cls-1" d="M91.49,33l4-9.66q-2.45-5.4-4.9-10.81L68,12,62.14,22.8q2.17,4.36,4.34,8.74"/><line class="cls-1" x1="54.78" y1="107.66" x2="65.22" y2="107.66"/></svg>