<svg id="Symbols" xmlns="http://www.w3.org/2000/svg" viewBox="0 0 120 120"><defs><style>.cls-1{fill:none;stroke:#211f1f;stroke-linecap:round;stroke-linejoin:round;stroke-width:4px;}</style></defs><circle class="cls-1" cx="15.88" cy="15.6" r="2.83"/><circle class="cls-1" cx="25.87" cy="25.59" r="4.34"/><circle class="cls-1" cx="40.55" cy="40.27" r="9.47"/><circle class="cls-1" cx="104.09" cy="103.81" r="2.83"/><circle class="cls-1" cx="94.1" cy="93.82" r="4.34"/><circle class="cls-1" cx="79.42" cy="79.14" r="9.47"/><path class="cls-1" d="M18.94,58.56c1.74.24,17.7,2.15,29.75-10.05,11.5-11.65,10.06-26.66,9.84-28.6A28.45,28.45,0,0,1,18.94,58.56Z"/><circle class="cls-1" cx="59.89" cy="59.61" r="5.99"/><circle class="cls-1" cx="59.89" cy="59.61" r="27.61"/><path class="cls-1" d="M60.44,100.66C60.2,99,58.34,83.37,70.26,71.6c11.38-11.23,26-9.83,27.93-9.62a27.56,27.56,0,0,0-37.75,38.68Z"/></svg>