<svg id="Symbols" xmlns="http://www.w3.org/2000/svg" viewBox="0 0 120 120"><defs><style>.cls-1{fill:none;stroke:#211f1f;stroke-linecap:round;stroke-linejoin:round;stroke-width:4px;}</style></defs><circle class="cls-1" cx="60.11" cy="60" r="29.39"/><circle class="cls-1" cx="60.11" cy="60" r="12.5"/><path class="cls-1" d="M12.25,12.25c5.62-.21,41.71-1,69.54,27.9,26.47,27.47,25.75,61.28,25.52,67.16-6,.21-39.54.75-66.88-25.48C11.47,54,12.06,17.92,12.25,12.25Z"/><path class="cls-1" d="M50.46,68,40.1,71.45,38.58,80,48,78.39Q49.24,73.17,50.46,68Z"/><path class="cls-1" d="M69.31,69.49,71.5,80.21l8,1.87-.14-8.84Z"/><path class="cls-1" d="M51.07,50.51q-1-5.37-2-10.75l-8-2v8.85Z"/><path class="cls-1" d="M59.71,73.06l-6.17,9,4.23,7L64,82.88Q61.86,78,59.71,73.06Z"/><path class="cls-1" d="M60.62,46.75l6.3-8.94q-2.06-3.56-4.12-7.11l-6.34,6.17Q58.53,41.8,60.62,46.75Z"/><path class="cls-1" d="M47.09,59.4l-9-6.17-7,4.23,6.26,6.25Z"/><path class="cls-1" d="M73.4,60.31l8.94,6.3,7.11-4.12-6.16-6.34Z"/><path class="cls-1" d="M71.4,52.1l8.72-1.32c1-2.71,2-5.43,3-8.15l-9.55-.05Z"/></svg>