<svg id="Symbols" xmlns="http://www.w3.org/2000/svg" viewBox="0 0 120 120"><defs><style>.cls-1{fill:none;stroke:#211f1f;stroke-linecap:round;stroke-linejoin:round;stroke-width:4px;}</style></defs><circle class="cls-1" cx="60" cy="60" r="47.18"/><circle class="cls-1" cx="60" cy="60" r="24.87"/><polygon class="cls-1" points="46.66 51.66 59.99 46.08 73.09 51.66 73.09 67.22 59.99 73.27 46.66 68.15 46.66 51.66"/><line class="cls-1" x1="59.75" y1="57.8" x2="59.75" y2="73.26"/><polyline class="cls-1" points="43.43 41.45 60 12.82 76.57 41.45"/><polyline class="cls-1" points="78.55 43.43 107.18 60 78.55 76.57"/><polyline class="cls-1" points="76.57 78.55 60 107.18 43.43 78.55"/><polyline class="cls-1" points="41.45 76.57 12.82 60 41.45 43.43"/><polyline class="cls-1" points="61.4 35.17 93.36 26.64 84.83 58.6"/><polyline class="cls-1" points="84.83 61.4 93.36 93.36 61.4 84.83"/><polyline class="cls-1" points="58.6 84.83 26.64 93.36 35.17 61.4"/><polyline class="cls-1" points="35.17 58.6 26.64 26.64 58.6 35.17"/><polyline class="cls-1" points="71.02 37.7 103.76 42.38 83.39 68.44"/><polyline class="cls-1" points="82.3 71.02 77.62 103.76 51.56 83.4"/><polyline class="cls-1" points="48.98 82.3 16.24 77.62 36.6 51.56"/><polyline class="cls-1" points="37.7 48.98 42.38 16.24 68.44 36.6"/><polyline class="cls-1" points="83.4 51.58 103.75 77.66 71 82.31"/><polyline class="cls-1" points="68.42 83.4 42.34 103.75 37.69 71"/><polyline class="cls-1" points="36.6 68.42 16.25 42.34 49 37.69"/><polyline class="cls-1" points="51.58 36.6 77.66 16.25 82.31 49"/></svg>