<svg id="Symbols" xmlns="http://www.w3.org/2000/svg" viewBox="0 0 120 120"><defs><style>.cls-1{fill:none;stroke:#211f1f;stroke-linecap:round;stroke-linejoin:round;stroke-width:4px;}</style></defs><circle class="cls-1" cx="65.44" cy="61.35" r="10.64"/><circle class="cls-1" cx="65.44" cy="61.35" r="10.64"/><circle class="cls-1" cx="98.71" cy="70.34" r="8.98"/><circle class="cls-1" cx="39.34" cy="81.6" r="8.98"/><circle class="cls-1" cx="48.66" cy="31.65" r="8.98"/><circle class="cls-1" cx="48.66" cy="31.65" r="8.98"/><circle class="cls-1" cx="48.54" cy="63.54" r="6.05"/><circle class="cls-1" cx="76.96" cy="19.65" r="6.05"/><circle class="cls-1" cx="85.72" cy="24.97" r="4.2"/><circle class="cls-1" cx="90.95" cy="31.19" r="3.43"/><circle class="cls-1" cx="94.08" cy="37.84" r="2.46"/><circle class="cls-1" cx="94.02" cy="42.85" r="1.85"/><circle class="cls-1" cx="92.8" cy="47.24" r="1.23"/><circle class="cls-1" cx="71.01" cy="77.18" r="6.05"/><circle class="cls-1" cx="74.1" cy="47.09" r="6.05"/><circle class="cls-1" cx="88.36" cy="55.75" r="7.1"/><circle class="cls-1" cx="56.12" cy="83.52" r="7.1"/><circle class="cls-1" cx="45.17" cy="49.05" r="7.1"/><circle class="cls-1" cx="61.86" cy="20.14" r="7.1"/><circle class="cls-1" cx="85.88" cy="100.45" r="6.05"/><circle class="cls-1" cx="75.94" cy="102.93" r="4.2"/><circle class="cls-1" cx="67.84" cy="102.28" r="3.43"/><circle class="cls-1" cx="60.91" cy="99.82" r="2.46"/><circle class="cls-1" cx="57.39" cy="96.25" r="1.85"/><circle class="cls-1" cx="55.14" cy="92.29" r="1.23"/><circle class="cls-1" cx="96.16" cy="89.38" r="7.1"/><circle class="cls-1" cx="18.55" cy="56.05" r="6.05"/><circle class="cls-1" cx="19.36" cy="45.83" r="4.2"/><circle class="cls-1" cx="22.56" cy="38.36" r="3.43"/><circle class="cls-1" cx="27.1" cy="32.57" r="2.46"/><circle class="cls-1" cx="31.59" cy="30.37" r="1.85"/><circle class="cls-1" cx="36.07" cy="29.5" r="1.23"/><circle class="cls-1" cx="22.31" cy="71.96" r="7.1"/></svg>