<svg id="Symbols" xmlns="http://www.w3.org/2000/svg" viewBox="0 0 120 120"><defs><style>.cls-1{fill:none;stroke:#211f1f;stroke-linecap:round;stroke-linejoin:round;stroke-width:4px;}</style></defs><circle class="cls-1" cx="60" cy="60" r="47.7"/><path class="cls-1" d="M87.39,74.41A32.79,32.79,0,0,0,76.73,33.23L79,28.6C60.24,18.06,36.39,25.36,26.87,43.75c-9.75,18.86-1.22,43.18,19.07,51.89.76-1.54,1.53-3.08,2.29-4.63A32.77,32.77,0,0,0,87.39,74.41Z"/><circle class="cls-1" cx="60" cy="60" r="10.24"/><circle class="cls-1" cx="60" cy="17.15" r="4.85"/><path class="cls-1" d="M60,49.76V43.38a16.88,16.88,0,0,1,0,33.75c-.17,2.25-.33,4.5-.5,6.75A26.06,26.06,0,0,1,35.38,58.75,26.07,26.07,0,0,1,60,32.5V24.79"/></svg>