<svg id="Symbols" xmlns="http://www.w3.org/2000/svg" viewBox="0 0 120 120"><defs><style>.cls-1{fill:none;stroke:#211f1f;stroke-linecap:round;stroke-linejoin:round;stroke-width:4px;}</style></defs><path class="cls-1" d="M100.64,60.56a8.34,8.34,0,0,0-8.3-7.48c-4.31,0-7.86,2-8.29,6.23H84c-.43-4.2-4-6.23-8.29-6.23a8.18,8.18,0,0,0-3.73.89,13.49,13.49,0,0,0-8.78-7,8.33,8.33,0,0,0,5.18-7.71c0-4.32-2.39-7.87-6.59-8.3V29.05c4.2-.42,6.59-4,6.59-8.29A8.33,8.33,0,0,0,60,12.42v7.35a8.34,8.34,0,0,0-7.48,8.29c0,4.32,2,7.87,6.23,8.3v.09c-4.2.42-6.23,4-6.23,8.29a8.27,8.27,0,0,0,.78,3.51,13.52,13.52,0,0,0-6.61,9,8.32,8.32,0,0,0-8-6.15c-4.31,0-7.86,2.38-8.29,6.59H28.49c-.43-4.21-4-6.59-8.29-6.59a8.33,8.33,0,0,0-8.34,8.34h7.35a8.33,8.33,0,0,0,8.29,7.48c4.32,0,7.87-2,8.3-6.23h.08c.43,4.2,4,6.23,8.3,6.23a8.28,8.28,0,0,0,3.68-.87,13.51,13.51,0,0,0,8.8,7,8.33,8.33,0,0,0-5.15,7.7c0,4.32,2.38,7.87,6.58,8.3v1.86c-4.2.43-6.58,4-6.58,8.3a8.34,8.34,0,0,0,8.33,8.34v-7.35a8.34,8.34,0,0,0,7.49-8.29c0-4.32-2-7.87-6.24-8.3v-.09c4.21-.43,6.24-4,6.24-8.29a8.24,8.24,0,0,0-.8-3.54,13.48,13.48,0,0,0,6.59-9.1,8.33,8.33,0,0,0,8.07,6.28c4.32,0,7.87-2.39,8.3-6.59h1.86c.43,4.2,4,6.59,8.3,6.59A8.34,8.34,0,0,0,108,60.56Z"/><circle class="cls-1" cx="19.36" cy="80.56" r="7.5"/><circle class="cls-1" cx="81.61" cy="100.08" r="7.5"/><circle class="cls-1" cx="99.42" cy="38.39" r="7.5"/><circle class="cls-1" cx="37.55" cy="19.92" r="7.5"/></svg>