<svg id="Symbols" xmlns="http://www.w3.org/2000/svg" viewBox="0 0 120 120"><defs><style>.cls-1{fill:none;stroke:#211f1f;stroke-linecap:round;stroke-linejoin:round;stroke-width:4px;}</style></defs><circle class="cls-1" cx="42.56" cy="72.34" r="10.72"/><circle class="cls-1" cx="62.87" cy="96.58" r="10.72"/><circle class="cls-1" cx="22.94" cy="49.45" r="10.72"/><circle class="cls-1" cx="97.21" cy="91.11" r="10.72"/><circle class="cls-1" cx="57.96" cy="45.35" r="10.72"/><circle class="cls-1" cx="38.34" cy="22.46" r="10.72"/><circle class="cls-1" cx="38.34" cy="22.46" r="3.13"/><circle class="cls-1" cx="57.96" cy="45.35" r="3.13"/><circle class="cls-1" cx="57.96" cy="45.35" r="3.13"/><circle class="cls-1" cx="97.21" cy="91.11" r="3.13"/><circle class="cls-1" cx="62.87" cy="96.58" r="3.13"/><circle class="cls-1" cx="42.56" cy="72.34" r="3.13"/><circle class="cls-1" cx="22.94" cy="49.45" r="3.13"/><path class="cls-1" d="M79.56,64a7.26,7.26,0,0,1,7.21-6c3.85.19,7.14,4,6.51,8.47A17.28,17.28,0,0,1,91,71.88c-3.56,5.57-9.45,7.79-11.65,8.51-1.9-.54-8.24-2.55-11.79-8.3a15.38,15.38,0,0,1-2.11-5.58c-.44-2.52,1.2-7.25,5.09-8.29C74.09,57.28,78.34,59.66,79.56,64Z"/></svg>