<svg id="Symbols" xmlns="http://www.w3.org/2000/svg" viewBox="0 0 120 120"><defs><style>.cls-1{fill:none;stroke:#211f1f;stroke-linecap:round;stroke-linejoin:round;stroke-width:4px;}</style></defs><circle class="cls-1" cx="61.7" cy="45.22" r="15.51"/><path class="cls-1" d="M91.41,76a15.88,15.88,0,0,0-4.59.68L78.34,62A23.63,23.63,0,0,0,85,49.32l6.52.43L92,42.48,85.14,42A23.66,23.66,0,0,0,51.23,24a23.51,23.51,0,0,0-9.09,7.91L35.5,29.67l2.59-7.89L32.74,20l-2.59,7.89L24.63,26l3.43-10.12-8.8-2.93L15.82,23.05,12.3,33.43l25.94,8.75A23.66,23.66,0,0,0,72.16,66.43q.69-.34,1.35-.72l8,13.84A15.76,15.76,0,1,0,91.41,76Z"/></svg>