<svg id="Symbols" xmlns="http://www.w3.org/2000/svg" viewBox="0 0 120 120"><defs><style>.cls-1{fill:none;stroke:#211f1f;stroke-linecap:round;stroke-linejoin:round;stroke-width:4px;}</style></defs><circle class="cls-1" cx="18.57" cy="69.39" r="6.71"/><circle class="cls-1" cx="101.63" cy="69.39" r="6.71"/><path class="cls-1" d="M68.08,22.49A41.78,41.78,0,0,1,85,30.25c14.65,11.34,16.36,28.91,16.63,32.43a28.54,28.54,0,1,0-57,0A15.94,15.94,0,0,1,60,45.25,15.94,15.94,0,0,1,75.62,62.68a28.83,28.83,0,0,0-29-29.32A28.83,28.83,0,0,0,18.57,62.68c.27-3.46,2-21.38,16.93-32.8a42,42,0,0,1,17.25-7.73"/><path class="cls-1" d="M52.75,22.15,60,12.63l7.75,9.52"/><circle class="cls-1" cx="37.69" cy="82.9" r="3.62"/><circle class="cls-1" cx="82.52" cy="82.9" r="3.62"/><path class="cls-1" d="M64.41,57.59a22.53,22.53,0,0,1,9.13,4.18c7.91,6.13,8.83,15.61,9,17.51a15.41,15.41,0,1,0-30.8,0,8.44,8.44,0,1,1,16.76,0,15.4,15.4,0,1,0-30.79,0c.14-1.87,1.07-11.54,9.14-17.71a22.71,22.71,0,0,1,9.31-4.17"/><path class="cls-1" d="M56.14,57.4c1.3-1.71,2.6-3.43,3.91-5.14l4.18,5.14"/><path class="cls-1" d="M62.43,77.28a12.13,12.13,0,0,1,4.94,2.27A13.51,13.51,0,0,1,72.23,89a8.33,8.33,0,1,0-16.66,0,4.57,4.57,0,1,1,9.07,0A8.33,8.33,0,1,0,48,89a13.6,13.6,0,0,1,4.94-9.58,12.16,12.16,0,0,1,5-2.26"/><path class="cls-1" d="M58,77.18l2.11-2.78,2.27,2.78"/><circle class="cls-1" cx="60.25" cy="98.16" r="9.15"/></svg>