<svg id="Symbols" xmlns="http://www.w3.org/2000/svg" viewBox="0 0 120 120"><defs><style>.cls-1{fill:none;stroke:#211f1f;stroke-linecap:round;stroke-linejoin:round;stroke-width:4px;}</style></defs><circle class="cls-1" cx="60" cy="60" r="46.84"/><circle class="cls-1" cx="60" cy="60" r="37.6"/><circle class="cls-1" cx="60" cy="60" r="5.5"/><polygon class="cls-1" points="60 22.4 68.44 48.38 95.76 48.38 73.66 64.44 82.1 90.42 60 74.36 37.9 90.42 46.34 64.44 24.24 48.38 51.56 48.38 60 22.4"/><path class="cls-1" d="M46.34,64.44l-22.06,7.3"/><line class="cls-1" x1="29.88" y1="62.25" x2="39.44" y2="59.43"/><line class="cls-1" x1="33.97" y1="75.96" x2="43.54" y2="73.14"/><path class="cls-1" d="M75.27,64.82l20.41,7.07"/><line class="cls-1" x1="87.02" y1="76.56" x2="77.7" y2="72.99"/><line class="cls-1" x1="92.09" y1="63.19" x2="82.78" y2="59.61"/><path class="cls-1" d="M60.53,74.92Q60.26,85.73,60,96.56"/><line class="cls-1" x1="53.32" y1="89.88" x2="53.62" y2="79.91"/><line class="cls-1" x1="67.62" y1="90.26" x2="67.92" y2="80.29"/><path class="cls-1" d="M50.48,47.47,37.75,30.37"/><line class="cls-1" x1="47.31" y1="31.17" x2="53.04" y2="39.34"/><line class="cls-1" x1="35.62" y1="39.42" x2="41.35" y2="47.59"/><path class="cls-1" d="M69,47.81,83.08,30.32"/><path class="cls-1" d="M84.17,41.16l-6,6.57"/><line class="cls-1" x1="73.57" y1="31.56" x2="66.84" y2="38.92"/></svg>