<svg id="Symbols" xmlns="http://www.w3.org/2000/svg" viewBox="0 0 120 120"><defs><style>.cls-1{fill:none;stroke:#211f1f;stroke-linecap:round;stroke-linejoin:round;stroke-width:4px;}</style></defs><circle class="cls-1" cx="60" cy="60" r="46.84"/><circle class="cls-1" cx="60" cy="60" r="19.28"/><path class="cls-1" d="M13.16,60C16.34,56.84,33.25,40.72,60,40.72S103.66,56.84,106.84,60C103.66,63.16,86.75,79.28,60,79.28,55.52,79.28,32.15,78.83,13.16,60Z"/><path class="cls-1" d="M18.57,38.12A75.6,75.6,0,0,1,68,41.22"/><path class="cls-1" d="M37.69,19.88A76.59,76.59,0,0,1,60.3,32.63a74.51,74.51,0,0,1,9,8.76"/><path class="cls-1" d="M60,13.16A81.53,81.53,0,0,1,74.09,33.65,80,80,0,0,1,78,43.23"/><path class="cls-1" d="M84.28,20A55,55,0,0,1,85.55,34a55.72,55.72,0,0,1-1.62,11.23"/><path class="cls-1" d="M97.6,32.05A36.58,36.58,0,0,1,90,48"/><path class="cls-1" d="M95.78,51.27c1.57-.78,3.21-1.66,4.92-2.66,1.44-.85,2.78-1.7,4-2.55"/><path class="cls-1" d="M104.17,75.41a74,74,0,0,1-24.89,6.23,74,74,0,0,1-23.92-2.22"/><path class="cls-1" d="M88.46,96.15A76.42,76.42,0,0,1,64.25,86.8,76.16,76.16,0,0,1,54,79.45"/><path class="cls-1" d="M67.36,106a81.56,81.56,0,0,1-16.9-18.24,79.7,79.7,0,0,1-5.22-8.93"/><path class="cls-1" d="M42.35,102.81A54.68,54.68,0,0,1,39,77.73"/><path class="cls-1" d="M27.42,92.77a36.74,36.74,0,0,1,5.26-16.84"/><path class="cls-1" d="M29.12,71.62c-1.92,1.29-3.91,2.72-6,4.32-1.73,1.35-3.34,2.69-4.83,4"/></svg>