<svg id="Symbols" xmlns="http://www.w3.org/2000/svg" viewBox="0 0 120 120"><defs><style>.cls-1{fill:none;stroke:#211f1f;stroke-linecap:round;stroke-linejoin:round;stroke-width:4px;}</style></defs><path class="cls-1" d="M59.74,13.18A46.82,46.82,0,1,0,106.56,60,46.82,46.82,0,0,0,59.74,13.18Zm0,81.16A34.34,34.34,0,1,1,94.07,60,34.35,34.35,0,0,1,59.74,94.34Z"/><path class="cls-1" d="M59.74,25.66A34.34,34.34,0,1,0,94.07,60,34.35,34.35,0,0,0,59.74,25.66Zm18.4,42.05a26.81,26.81,0,0,1-5.35,13.73,60.09,60.09,0,0,0-2.06-8.16,26.23,26.23,0,0,1-23.65.2A58.74,58.74,0,0,0,44.92,82a26.91,26.91,0,0,1-5.38-14,26.83,26.83,0,0,1-6.39-10.84A58.7,58.7,0,0,0,40.06,60a26.28,26.28,0,0,1,4.75-10.37,25.92,25.92,0,0,1,5-5,58.11,58.11,0,0,0-7.24-4.47,26.92,26.92,0,0,1,17.21-.28,26.9,26.9,0,0,1,15.38.79,59.38,59.38,0,0,0-6.56,4,25.68,25.68,0,0,1,4.31,4.46,26.36,26.36,0,0,1,4.8,10.6,57.1,57.1,0,0,0,6.64-2.84A26.76,26.76,0,0,1,78.14,67.71Z"/><path class="cls-1" d="M59.08,53c-.41.46-.82.92-1.23,1.4A56.38,56.38,0,0,0,52,62.62a57,57,0,0,0,11.09.2c1-.08,1.92-.19,2.85-.31a56.42,56.42,0,0,0-6.08-8.66C59.6,53.54,59.34,53.26,59.08,53Z"/><path class="cls-1" d="M44.92,82a58.74,58.74,0,0,1,2.16-8.47A26.8,26.8,0,0,1,39.54,68,26.91,26.91,0,0,0,44.92,82Z"/><path class="cls-1" d="M40.06,60A58.44,58.44,0,0,0,52,62.62a56.38,56.38,0,0,1,5.85-8.26c.41-.48.82-.94,1.23-1.4"/><path class="cls-1" d="M42.56,40.12a58.11,58.11,0,0,1,7.24,4.47,26.78,26.78,0,0,1,10-4.75A26.92,26.92,0,0,0,42.56,40.12Z"/><path class="cls-1" d="M59.08,53a57.56,57.56,0,0,1,9.51-8.35"/><path class="cls-1" d="M77.7,59.67a26.82,26.82,0,0,1,.44,8,26.76,26.76,0,0,0,6.2-10.88A57.1,57.1,0,0,1,77.7,59.67Z"/><path class="cls-1" d="M65.94,62.51a59.32,59.32,0,0,1,4.79,10.77"/></svg>