<svg id="Symbols" xmlns="http://www.w3.org/2000/svg" viewBox="0 0 120 120"><defs><style>.cls-1{fill:none;stroke:#211f1f;stroke-linecap:round;stroke-linejoin:round;stroke-width:4px;}</style></defs><circle class="cls-1" cx="60" cy="60" r="29.97"/><path class="cls-1" d="M30,60c.37-5.9,2.17-21.45,14.09-34.95A55.63,55.63,0,0,1,60,12.62,50.4,50.4,0,0,1,77,24.94C89.31,38.68,90,55.11,90,60"/><path class="cls-1" d="M60,30c5.9.37,21.45,2.17,35,14.09A55.63,55.63,0,0,1,107.38,60,50.4,50.4,0,0,1,95.06,77C81.32,89.31,64.89,90,60,90"/><path class="cls-1" d="M90,60c-.37,5.9-2.17,21.45-14.09,35A55.63,55.63,0,0,1,60,107.38,50.4,50.4,0,0,1,43,95.06C30.69,81.32,30,64.89,30,60"/><path class="cls-1" d="M60,90c-5.9-.37-21.45-2.17-34.95-14.09A55.63,55.63,0,0,1,12.62,60,50.4,50.4,0,0,1,24.94,43C38.68,30.69,55.11,30,60,30"/><path class="cls-1" d="M38.81,38.81c4.44-3.91,16.7-13.63,34.68-14.76a55.92,55.92,0,0,1,20,2.45,50.26,50.26,0,0,1,3.32,20.73c-1,18.42-12.18,30.49-15.63,34"/><path class="cls-1" d="M81.19,38.81C85.1,43.25,94.82,55.51,96,73.49a55.92,55.92,0,0,1-2.45,20,50.26,50.26,0,0,1-20.73,3.32c-18.42-1-30.49-12.18-34-15.63"/><path class="cls-1" d="M81.19,81.19C76.75,85.1,64.49,94.82,46.51,96a55.92,55.92,0,0,1-20-2.45,50.26,50.26,0,0,1-3.32-20.73c1-18.42,12.18-30.49,15.63-34"/><path class="cls-1" d="M38.81,81.19c-3.91-4.44-13.63-16.7-14.76-34.68a55.92,55.92,0,0,1,2.45-20,50.26,50.26,0,0,1,20.73-3.32c18.42,1,30.49,12.18,34,15.63"/></svg>