<svg id="Graphics" xmlns="http://www.w3.org/2000/svg" viewBox="0 0 150 150"><path d="M32.5,67.76a37.06,37.06,0,0,1-3.43,15.72l-2.94,6.27,6.9-.58.4,0c7.1,0,12.87,7.29,12.88,16.24v7.69l6.29-4.42c2.83-2,7-3.54,9.56-2.64,3.73,1.32,4.66,2.62,8.44,8.55l4.44,6.92,3.34-5.38c.79-1.27,1.46-2.39,2-3.38,2.7-4.52,3.19-5.33,6.23-6.49,2.14-.82,8,.5,10.72,2.43l6.28,4.38v-7.66c0-9,5.78-16.24,12.88-16.24l.4,0,6.9.58-2.94-6.27a37.06,37.06,0,0,1-3.43-15.72,35.55,35.55,0,0,1,6.71-21.2l5.44-7.3-9,.93c-13.25,1.34-24.06,8.15-34,21.42l0,0a1.51,1.51,0,0,1-.3-1v-.12c0-3.07.36-12.42.36-12.51l.24-6.34L81,44.19a25.28,25.28,0,0,1-6.14,1.92,25.28,25.28,0,0,1-6.16-1.56l-5.6-2,.24,5.94c0,.09.36,9,.36,12.06h1.87l0,.07-1.86,0a1.52,1.52,0,0,1-.29,1l0,0c-10-13.28-20.77-20.09-34-21.43l-9-.93,5.44,7.3A35.55,35.55,0,0,1,32.5,67.76Zm7.92,14.81c4-2.55,8.28-4.75,12.22-6.77,2.89-1.47,5.65-2.89,8.09-4.33a199.13,199.13,0,0,0-9,22.3A22.19,22.19,0,0,0,40.42,82.57ZM64.83,98.48a13,13,0,0,0-4.36-.72A19,19,0,0,0,54.3,98.9a180.88,180.88,0,0,1,9.1-23.65c.12,8.39,2.05,17.12,4.25,24.43A24.15,24.15,0,0,0,64.83,98.48Zm19,.28c-.35.13-.68.27-1,.41a83.52,83.52,0,0,0,3.75-24.63,184.08,184.08,0,0,1,9.24,24.72C91.87,98,87.25,97.46,83.83,98.76Zm14.46-5.05a185.69,185.69,0,0,0-8.58-21.94c2.32,1.35,4.91,2.68,7.62,4.06,3.93,2,8.21,4.21,12.2,6.76A22.13,22.13,0,0,0,98.29,93.71ZM93,66.41c6.24-8.32,12.76-13.66,20.07-16.35a45.09,45.09,0,0,0-3.56,17.7,46,46,0,0,0,1.3,10.88c-3.86-2.39-7.9-4.46-11.64-6.37-2.77-1.41-5.48-2.8-7.83-4.19A8.48,8.48,0,0,0,93,66.41ZM75.1,54.11a15.06,15.06,0,0,0,3.32-.54c-.08,2.62-.16,5.45-.16,7v.15A9.28,9.28,0,0,0,82,68.23c1.41,9.88-.25,22.31-4.64,34.74a25.65,25.65,0,0,0-2.51,3.5c-.49-.7-1-1.36-1.46-2-4.22-12-7-25.49-5.6-36.17a9.19,9.19,0,0,0,3.91-7.65v-.15c0-1.52-.08-4.3-.17-6.83A15.83,15.83,0,0,0,75.1,54.11ZM57,66.42a8.39,8.39,0,0,0,1.63,1.63c-2.34,1.39-5,2.78-7.82,4.19-3.73,1.9-7.75,4-11.61,6.35A46.11,46.11,0,0,0,40.5,67.76a45.09,45.09,0,0,0-3.56-17.7C44.26,52.75,50.77,58.09,57,66.42Z"/></svg>