<svg id="Graphics" xmlns="http://www.w3.org/2000/svg" viewBox="0 0 150 150"><circle cx="41.17" cy="57" r="2.5"/><path d="M126.67,64.39l1-.84-.35-1.23A10.31,10.31,0,0,0,113,55.8a26.24,26.24,0,0,0-18.5-7.56h0c-.16,0-15.7.29-20.7-.2-4.45-.43-16.38-2.76-21-3.67-.67-3.83-3.06-6.81-6.44-7.62a8.47,8.47,0,0,0-7.63,2.14,13.22,13.22,0,0,0-3.94,6.81c0,.18-.08.37-.11.56l-2.86,2.26c-2.36,1.85-2.94,3.43-3.11,5.37a2,2,0,0,1-.26,1A34.6,34.6,0,0,1,25.16,58c-3.1,2.75-4.66,4.13-4.66,6.46,0,1,1.31,6.53,5,9.31a8.15,8.15,0,0,0,7.15,1.36L43.74,73a8.72,8.72,0,0,1,4.59,1.49,8.83,8.83,0,0,1,2.1,2l.37.42c3.34,3.32,6.33,17,5.84,24.43a6.58,6.58,0,0,0-6,3.44c-.83,1.41-1.92,4.38-.71,6.6l1.14,2.08H64.69c4,0,6.32-4.09,7-5.55a46.17,46.17,0,0,0,5.65-19.4,26.22,26.22,0,0,0,12.42,3.1A27,27,0,0,0,97,90.45a42.8,42.8,0,0,1,1,5.4,32.42,32.42,0,0,1,.06,4.22,11.07,11.07,0,0,0-1.38-.1,7.56,7.56,0,0,0-6.53,4c-.9,1.52-2.25,5-.91,7.47l1.14,2.08h14.92c4.54,0,7.35-5,8.19-6.68A60.14,60.14,0,0,0,121,77.68c0-1.87-.09-3.75-.27-5.55a26,26,0,0,0-1-5.28h.3A10.33,10.33,0,0,0,126.67,64.39ZM106.45,103l-.11.21a9.68,9.68,0,0,1-.86,1.43,31.18,31.18,0,0,0,.51-9.38,79.76,79.76,0,0,0-2.31-11.11l-1.23-4.46-4.24,1.86a25.62,25.62,0,0,1-8.42,2.06A18.26,18.26,0,0,1,76.68,78.1a8.52,8.52,0,0,0-.7-.63l-6.49-5.06,0,8.16s0,3.52,0,5.05a38.11,38.11,0,0,1-4.78,18.51l-.11.22c-.11.2-.24.44-.38.66,1.71-9.21-1.63-27.34-7.55-33.56A16.78,16.78,0,0,0,43.39,65H43L31,67.34l-.36.08-.2,0A4.6,4.6,0,0,1,29,65.35L30.47,64c2.62-2.32,4.27-3.85,5.07-5.41a10,10,0,0,0,1.12-3.71l.12-.09L40,52.3l.18-.08,2.51-1.1-.11-2.73a3.52,3.52,0,0,1,0-.85,4.59,4.59,0,0,1,1.88-3A3.89,3.89,0,0,1,45,47.33l-.48,4.06,5.12.49C51.68,52.3,67.34,55.46,73,56c5.46.53,21,.24,21.54.23a18.33,18.33,0,0,1,18.23,16.64c.15,1.57.23,3.18.23,4.8A52.15,52.15,0,0,1,106.45,103Zm9.32-44a6.25,6.25,0,0,1,3.43.06,6.32,6.32,0,0,1,3.73,3,6.28,6.28,0,0,1-4.79.47h0l-.2-.07A24.78,24.78,0,0,0,115.77,59Z"/></svg>