<svg id="Graphics" xmlns="http://www.w3.org/2000/svg" viewBox="0 0 150 150"><defs><style>.cls-1{fill:#231f20;}</style></defs><path class="cls-1" d="M33.24,73.33c-.32,7.3-2.37,10.59-8.21,13.81L23,88.28V112h8V92.91c7.92-5.11,10-11.5,10.3-19.82l28.43-6.86a31.48,31.48,0,0,0,15.22-9,14.55,14.55,0,0,1,4.53-3.16,14.24,14.24,0,0,1,5.88-1.25h13.21l5.59,8.61,3.44,15.35-3.75,3.74-13.2-13.39L98.5,73.22c-1.74,5-9.46,14.7-14.35,17.1l-2.23,1.1V112h8V96.19c4.84-3.26,10.12-9.39,13.44-14.86l10.4,10.56,12.57-12.54-4.72-21-4.5-6.93A23.24,23.24,0,0,0,121.69,49a22.7,22.7,0,0,0,7.49-8.24l-3.36-2.18a17.56,17.56,0,0,1-7,5.15A16.53,16.53,0,0,1,113,45l-.07-.11H95.32a22.49,22.49,0,0,0-16.21,6.91,23.48,23.48,0,0,1-11.3,6.7l-31,7.49a11.06,11.06,0,0,1-7.51-2.81,11.56,11.56,0,0,1-3.8-8,12,12,0,0,1,3.1-8.68,12.48,12.48,0,0,1,5.92-3.64A6.66,6.66,0,0,0,45,41.38l.59-1-.59-1a6.67,6.67,0,0,0-11.05-.78,17.25,17.25,0,0,0-8.85,4.35A17.56,17.56,0,0,0,19.5,55.15a18.07,18.07,0,0,0,4.85,12.93A18.53,18.53,0,0,0,33.24,73.33Zm7.27-33a2.72,2.72,0,0,1-2.68,0A2.72,2.72,0,0,1,40.51,40.37Z"/><path class="cls-1" d="M59,83.75l-4-.06a10.41,10.41,0,0,1-2.23,4.91,19.29,19.29,0,0,1-4.26,3.94,20.61,20.61,0,0,1-5.15,2.6,14.86,14.86,0,0,1-2,.5c-1.23.09-2.29.16-3.1.2l-4-.43V112h8V103.6c8.45-.62,20.07-2.18,28.84-6.07V112h8V82.4l-6.47,5.06c-4.06,3.18-10.81,5.17-17.4,6.41A21.64,21.64,0,0,0,57,91.3,14.78,14.78,0,0,0,59,83.75Z"/></svg>