<svg id="Graphics" xmlns="http://www.w3.org/2000/svg" viewBox="0 0 150 150"><path d="M43.8,90.31A40.54,40.54,0,0,0,34.88,108l-.93,4.1,4.14.72a31.65,31.65,0,0,0,24.49-5.91c2.5,6.86,5.9,12.28,9.85,15.6L75,124.67l2.57-2.17c4-3.32,7.35-8.74,9.85-15.6a31.65,31.65,0,0,0,24.49,5.91l4.14-.72-.93-4.1a40.54,40.54,0,0,0-8.92-17.68,59.74,59.74,0,0,0,23.47-27l1.09-2.52-1.95-1.93A31.84,31.84,0,0,0,89,54.93a61.93,61.93,0,0,0-2.86-8.16,12,12,0,0,0-5.42-5.86A11.84,11.84,0,0,1,86,34.14a3.7,3.7,0,0,0,2.69.67,3.76,3.76,0,1,0-4.21-4.39,15.75,15.75,0,0,0-7.62,9.24A13.14,13.14,0,0,0,75,39.52a13.38,13.38,0,0,0-1.8.12,15.77,15.77,0,0,0-7.62-9.22,3.75,3.75,0,1,0-4.21,4.39,3.7,3.7,0,0,0,2.69-.67,11.76,11.76,0,0,1,5.33,6.73,12,12,0,0,0-5.49,5.9A61.93,61.93,0,0,0,61,54.93a31.84,31.84,0,0,0-39.85,3.9l-2,1.93,1.09,2.52A59.74,59.74,0,0,0,43.8,90.31ZM77,69.54V48A3.94,3.94,0,0,1,78.77,50a58.22,58.22,0,0,1,3.42,11A31.52,31.52,0,0,0,77,69.54ZM73,48V69.54A31.52,31.52,0,0,0,67.81,61a58.22,58.22,0,0,1,3.42-11A3.94,3.94,0,0,1,73,48Zm-4.07,52.54a32.91,32.91,0,0,0,2.56-4A29.77,29.77,0,0,0,73,93.35v17.2A47,47,0,0,1,68.93,100.57Zm8.07,10V93.35a29.77,29.77,0,0,0,1.51,3.24,32.14,32.14,0,0,0,2.56,4A47,47,0,0,1,77,110.55ZM121.11,62.7A51.73,51.73,0,0,1,97.88,85.78l-5.32,2.64L97,92.36a33,33,0,0,1,8.33,11.41,61.36,61.36,0,0,1-5.75-3.57,41.67,41.67,0,0,1-5.46-4.51,24.12,24.12,0,0,1-4.2-5.53L88.12,91a26.16,26.16,0,0,0,4.18,6.4,44.77,44.77,0,0,0,5.48,5.19c.76.63,1.56,1.23,2.36,1.81A23.75,23.75,0,0,1,82.69,81.48c0-.37,0-.75,0-1.12A23.8,23.8,0,0,1,121.11,62.7Zm-77.6-5A23.75,23.75,0,0,1,67.28,80.37c0,.36,0,.74,0,1.11a23.75,23.75,0,0,1-18.07,23.08c.88-.63,1.74-1.28,2.58-2A44.77,44.77,0,0,0,57.3,97.4,26.16,26.16,0,0,0,61.48,91l-1.81-.84a24.12,24.12,0,0,1-4.2,5.53A41.67,41.67,0,0,1,50,100.2a57.29,57.29,0,0,1-5.23,3.27A32.94,32.94,0,0,1,53,92.36l4.45-3.94-5.32-2.64A51.73,51.73,0,0,1,28.89,62.7,23.65,23.65,0,0,1,43.51,57.68Z"/><path d="M54.78,80.41l6.72,3.32-.23-3.46A17.83,17.83,0,0,0,43.51,63.68,18.26,18.26,0,0,0,40,64l-3.14.64,1.94,2.54A46,46,0,0,0,54.78,80.41Zm1.71-3.62a41.63,41.63,0,0,1-12.08-9.08A13.85,13.85,0,0,1,56.49,76.79Z"/><path d="M88.5,83.73l6.72-3.32a46,46,0,0,0,16-13.2l1.94-2.54L110,64a18.26,18.26,0,0,0-3.55-.35A17.83,17.83,0,0,0,88.74,80.26Zm17.09-16a41.63,41.63,0,0,1-12.08,9.08A13.84,13.84,0,0,1,105.59,67.71Z"/></svg>