<svg id="Graphics" xmlns="http://www.w3.org/2000/svg" viewBox="0 0 150 150"><defs><style>.cls-1{fill:#231f20;}</style></defs><path class="cls-1" d="M20,71.44A13.33,13.33,0,0,0,33.31,84.75H43.63a4.25,4.25,0,0,1,4.07,3v0a4.14,4.14,0,0,1,.11,2,4.44,4.44,0,0,1-4.43,3.5H37.91a14.46,14.46,0,0,0-14.48,14.48v4H93.27a36.73,36.73,0,0,0,0-73.46v8A28.71,28.71,0,0,1,115.63,93,22.71,22.71,0,0,0,93.27,66.27h-25A13.58,13.58,0,0,1,59.1,62.7C57.76,61.48,50.51,52.24,44.27,44L40,38.42l-2.64,6.51c-1.15,2.82-3.68,7.24-5.46,8.19-4.12,2.21-5.35,5.69-6.33,8.48a26.34,26.34,0,0,1-1,2.59,13.21,13.21,0,0,1-2.11,3.18,10.07,10.07,0,0,1-.9.9h0L20,69.47Zm8.41,1.28a21.27,21.27,0,0,0,3.39-5.1,32.27,32.27,0,0,0,1.33-3.36c.89-2.53,1.29-3.4,2.57-4.09,2.44-1.31,4.5-3.84,6-6.29C45.91,59.3,51.91,67,53.7,68.61a21.56,21.56,0,0,0,14.59,5.66h25A14.73,14.73,0,0,1,108,89.53c-.28,7.77-7,14.08-15,14.19a5.66,5.66,0,0,1,.25-11.31v-8a13.64,13.64,0,0,0-12.42,19.32h-48a4,4,0,0,1,.51-.58,6.44,6.44,0,0,1,4.59-1.9h5.48A12.37,12.37,0,0,0,55.7,91.13,12.25,12.25,0,0,0,43.63,76.75H33.31a5.3,5.3,0,0,1-5.09-3.81Z"/></svg>