<svg id="Graphics" xmlns="http://www.w3.org/2000/svg" viewBox="0 0 150 150"><defs><style>.cls-1{fill:#231f20;}</style></defs><path class="cls-1" d="M108.07,104.5v-11L102.73,77l-4.11,1.91c-8.33,3.89-17,4.47-26.56,1.77L67,79.21V104.5h8v-15a46.31,46.31,0,0,0,12,.62,16.21,16.21,0,0,0,12.18,4.92l.88,0v9.45ZM97.83,87.85l1,3.22a12.76,12.76,0,0,1-6.47-1.7A45.67,45.67,0,0,0,97.83,87.85Z"/><path class="cls-1" d="M127.56,88.45c.06-18.07-1.91-27.21-6.89-32.26a14.52,14.52,0,0,0-2.91-2.27,16.2,16.2,0,0,0-11.43-4.73H57.49c.06-.39.1-.71.14-1.06l.15-1.41L58.05,44h-8v0H40.2a11.44,11.44,0,0,1-6-2.48,12.33,12.33,0,0,1-4.48-8.39h-4A17.4,17.4,0,0,0,30,45.73a18,18,0,0,0,2.91,2.67L20.6,61.32l3.51,10.19H37.27A18.78,18.78,0,0,1,56.06,90.3v14.2h8V90.3A26.79,26.79,0,0,0,37.27,63.51H29.81l-.07-.2L40.53,52h9.23c-.08.18-.15.36-.25.54a8.35,8.35,0,0,1-2.78,3,8.65,8.65,0,0,1-1.92,1,7.59,7.59,0,0,1-1.06.31,2.59,2.59,0,0,1-.54.11l-.28.05-.14,0h-.13v4h.79a5.34,5.34,0,0,0,.8,0,12.21,12.21,0,0,0,1.59-.15A13.72,13.72,0,0,0,49,60a14,14,0,0,0,4.4-2.85v.06h53A8.19,8.19,0,0,1,114,68.27l-3.19,8.51V104.5h8V78.23l2.68-7.15a15.72,15.72,0,0,0,.69-2.38c1,4.79,1.4,11.22,1.37,19.76a7.33,7.33,0,0,0,1,12l1,.58,1-.58a7.32,7.32,0,0,0,1-12Zm-2,7.7a3.35,3.35,0,0,1,0-4.07,3.35,3.35,0,0,1,0,4.07Z"/></svg>