<svg id="Graphics" xmlns="http://www.w3.org/2000/svg" viewBox="0 0 150 150"><defs><style>.cls-1{fill:#231f20;}</style></defs><path class="cls-1" d="M37.05,57a2.76,2.76,0,0,0,2.46.05,2.79,2.79,0,0,0,1.54-1.93,2.81,2.81,0,0,0-2.47,0A2.78,2.78,0,0,0,37.05,57Z"/><path class="cls-1" d="M129,75.08c-.15-.7-.22-1.41-.42-2.1l-.64-2.08a21.61,21.61,0,0,0-4.52-7.53,17,17,0,0,0-13-5.25C107.31,55.4,103.08,54,97.78,54c-3.66,0-6.88,0-9.76.08-9.82.12-15.23.2-20.83-1.48-3-.89-8-3.72-11.74-5.79l-.91-.51c.77-4.43.57-9-1.2-11.34a5.11,5.11,0,0,0-6.41-1.54c-2.14,1-7.29,5.68-9.76,9.74-4.42,2.09-9.08,7-9.81,10a9.11,9.11,0,0,0-.16,2.95c0,.21,0,.49,0,.66l-2.31,2.38c-1.48,1.53-3.19,3.3-4.22,4.38-1.36,1.43-1.83,4,.4,6.29a13.53,13.53,0,0,0,18.52-.15c.3-.27.61-.55.9-.83,1.38,3.8,4.24,8.88,11.47,13,2.37,10.83,2.25,21-.37,30.25l7.7,2.18c3.14-11.09,3.15-23.21,0-36l-.32-1.31c-.08-.43-.16-.87-.22-1.31-.16-1.09-.26-2.18-.31-3.27a19.68,19.68,0,0,1,.69-6.35l-3.58-1.79a24.18,24.18,0,0,0-3.07,7.46c-.06.24-.1.49-.16.74a15.89,15.89,0,0,1-5.11-8.83c-.46-1.78-1-4-3.39-4.91-3-1.15-5.26,1-8.12,3.7-.49.47-1,1-1.53,1.43A5.67,5.67,0,0,1,30,65.38l.67-.69L33,62.26a8.07,8.07,0,0,0,2.15-6.76c0-.11,0-.24,0-.35.85-1.31,3.88-4.35,6-5l1.8-.53.74-1.72a17.61,17.61,0,0,1,3.15-4.11c-.33,2.67-1.13,5.72-2.22,7l6,5.28a11.21,11.21,0,0,0,1.37-2c4.18,2.33,9.24,5.12,12.91,6.22,6.76,2,13,1.95,23.22,1.82,2.86,0,6-.08,9.66-.08s6.11.82,7.69,2.43c2.9,3,2.77,8.76,2.68,13,0,.74,0,1.43,0,2.06,0,6.35,3.21,12,4.77,14.42v19.2h8v-3.89c2-4.5,3.82-9,5.54-13.6.45-1.25.9-2.49,1.31-3.8.21-.64.41-1.3.6-2a18.62,18.62,0,0,0,.48-2.19c.17-1.38.39-2.74.5-4.12l.08-2.1a16.35,16.35,0,0,0,0-2.1A30.48,30.48,0,0,0,129,75.08Zm-5.68,6-.17,1.76c-.18,1.17-.45,2.34-.67,3.51a10.92,10.92,0,0,1-.45,1.55c-.18.53-.38,1.09-.61,1.65s-.41,1-.63,1.55l-.68-.89s-3.95-5.3-3.95-10.74c0-.58,0-1.21,0-1.89.09-4.11.2-9.84-2.15-14.71.14.05.29.09.43.15a12.7,12.7,0,0,1,5.25,3.69,16.21,16.21,0,0,1,3,5.83l.39,1.64c.12.55.14,1.14.22,1.7a23.26,23.26,0,0,1,.13,3.45A11.44,11.44,0,0,1,123.28,81.11Z"/><path class="cls-1" d="M107.36,88.59l-2.3-.54c-5.59-1.31-9-8.19-9-8.25l-1.58-4.28-.24.16c-.1-.29-.19-.57-.28-.86a15.25,15.25,0,0,1-.65-5.6l-3.84-1.14A20,20,0,0,0,88,75.48c0,1,0,1.94.08,2.91a67.32,67.32,0,0,1-8.34.43A55,55,0,0,1,69.18,78l-4.87-1.08v36.24h8V86.47a73.89,73.89,0,0,0,7.41.35,66.32,66.32,0,0,0,10.79-.7c1.88,2.81,5.32,6.94,10.3,8.95a33.11,33.11,0,0,1-.49,16.89l7.65,2.31a41.38,41.38,0,0,0,0-23.4Z"/></svg>