<svg id="Graphics" xmlns="http://www.w3.org/2000/svg" viewBox="0 0 150 150"><path d="M103,127.29l2.25-3.84V93.17l-4.5.57a119.27,119.27,0,0,1-14.76.9,117.36,117.36,0,0,1-13.23-.8l-4.45-.5v27.94l-1.15,2,6.9,4.05,2.25-3.84V102.23c3.39.28,6.58.41,9.68.41,3.79,0,7.56-.16,11.26-.49v19.13l-1.15,2Z"/><path d="M38.18,76.67a.65.65,0,0,1,.67,0,.65.65,0,0,1,.36.48,19.8,19.8,0,0,0,9.55,16.75,11.64,11.64,0,0,1,5.55,10V121l-1,3.05L61,126.48l1.36-4.24V103.9A19.62,19.62,0,0,0,52.9,87a11.78,11.78,0,0,1-5.69-10.11v-.3a8.7,8.7,0,0,0-13.06-6.87l-.66.4,11.71-12a1.44,1.44,0,0,1,1-.28l.72.55a11.14,11.14,0,0,1,3.84-3.17,11.27,11.27,0,0,1,6.88-1.12,11.24,11.24,0,0,1-5,4.9,11.4,11.4,0,0,1-6.23,1.19l-.38,4c.48,0,1,.06,1.45.06A16.37,16.37,0,0,0,50,64.08a21.06,21.06,0,0,0,17.79,9.81h46.34a3,3,0,0,1,3,3V79c0,4.24-1.58,9-3,13.18a56.9,56.9,0,0,0-2.07,7.25A23,23,0,0,0,112,104v17L111,124l7.62,2.44,1.36-4.24V103.66c-.06-1.13-.08-2.49-.05-2.79a52.5,52.5,0,0,1,1.8-6.18c1.58-4.76,3.37-10.16,3.37-15.69V76.93a11.13,11.13,0,0,0-.29-2.47,10.51,10.51,0,0,1,1.83,5.93h4a14.59,14.59,0,0,0-14.58-14.57h-5.93v.07H67.75a13,13,0,0,1-10.38-5.16,15.32,15.32,0,0,0,4.9-7.37l.57-1.84L61,50.88A15.34,15.34,0,0,0,50.58,51a9.52,9.52,0,0,0-3-1l8.67-8.66a12.8,12.8,0,0,0,0-18l-2.83,2.83a8.78,8.78,0,0,1,0,12.38l-.89.89a12.7,12.7,0,0,0-3.72-8.68L46,33.57A8.78,8.78,0,0,1,46,46l-.68.68A12.68,12.68,0,0,0,41.61,38L38.79,40.8a8.78,8.78,0,0,1,0,12.39h0L31.9,60.08l.13.13L19.78,72.73l7.54,10.4Z"/></svg>