<svg id="Graphics" xmlns="http://www.w3.org/2000/svg" viewBox="0 0 150 150"><defs><style>.cls-1{fill:#231f20;}</style></defs><path class="cls-1" d="M70,84.87a21.49,21.49,0,0,1-.27,3.44c-.88,5.44-3.67,7.58-3.72,7.62l-1.74,1.19v19.93h8V101A20.15,20.15,0,0,0,77,92.36l15.14-3c1.68,2.55,4.62,7.47,7.2,12v15.76h8V99.16l-.53-.92c-3.6-6.3-8.21-14.08-10-16h0l0,0L96.62,82l-1.5-1.44h0c-.28-.3-.55-.62-.81-1a17.73,17.73,0,0,1-2-3.14,14.8,14.8,0,0,1-1.43-7.34L87,68.4a20,20,0,0,0-.35,9.93,23.26,23.26,0,0,0,1.14,3.73l-14.1,2.81Z"/><path class="cls-1" d="M130,50.66A23,23,0,0,0,124,39a36.53,36.53,0,0,0-10.11-7.29l-1.93,3.51a31.62,31.62,0,0,1,8.26,7.06,17.48,17.48,0,0,1,3.89,9.19,12.13,12.13,0,0,1-.45,4.64,9.36,9.36,0,0,1-2.07,3.68,4,4,0,0,1-2.74,1.35,3.74,3.74,0,0,1-2.39-1,18.69,18.69,0,0,0-13-5.27H69.59L55.75,47.54l-.15-.27a15.23,15.23,0,0,0-13.08-7.55,15.07,15.07,0,0,0-12.47,6.6c-.13.18-.24.37-.35.55h0a2.53,2.53,0,0,0-.13.22l-.14.21-1.14,2h0c-1,1.6-2.52,3.41-6.62,6.08l-2,1.28L19.85,59c.49,7,7.31,11.9,11.77,13,2.84.69,6.63.24,9.38-.29L53,98.36v18.69h8V96.64L45.54,62.32l-3.3.91c-2.43.67-6.89,1.45-8.73,1a9.52,9.52,0,0,1-5-3.85,28.66,28.66,0,0,0,4.95-4.56,15,15,0,0,0,8.52,3,5.15,5.15,0,0,0,.56,0,15.08,15.08,0,0,0,10.12-3.91l15,7.88h35.8A10.74,10.74,0,0,1,114,75.22L110.36,89v28.07h8V90l3.44-12.94.08-.35a18.63,18.63,0,0,0-.52-8.54,11.32,11.32,0,0,0,2.44-1.12,12.55,12.55,0,0,0,3.06-2.71A17.28,17.28,0,0,0,130,50.66Zm-87.57.19h-.18a7.06,7.06,0,0,1-4.22-1.55,7.06,7.06,0,0,1,8.88,0A7.21,7.21,0,0,1,42.47,50.85Z"/></svg>