<svg id="Graphics" xmlns="http://www.w3.org/2000/svg" viewBox="0 0 150 150"><path d="M22.67,75.09a8.3,8.3,0,0,0,9.46.93,39,39,0,0,1,20.54-4.59C55.22,84.38,66.14,90.6,72,92.12l6.88,1.79-2-6.81a46.74,46.74,0,0,1-1.69-9.44A39.61,39.61,0,0,1,95.73,90.92c-4.17,7.77-3.6,16,1.68,22.59l3.81,4.72,2.84-5.36c2.89-5.44,6.75-10.88,8.19-11.61,1.44-.46,7.46.19,12.88,1.39l5.11,1.14L130,98.56c-.39-8.12-5.74-16.33-15.34-17.82C110.38,65.9,99.74,55.1,90.05,47.09,92.42,43,96.34,37.55,98,35.4l3.88-5.18-6.37-1.16c-.57-.1-13.59-2.3-25.9,8.73-2.75-.9-7.42-1.78-14.56-1.2A40.24,40.24,0,0,0,28.44,49a14.49,14.49,0,0,0-4,11.79L22.22,63a8.27,8.27,0,0,0,.45,12.1Zm5.21-6.45,3.71-3.71L33.4,63.2l-.85-2.39a6.4,6.4,0,0,1,1.65-6.25,32.15,32.15,0,0,1,21.45-10c8.38-.67,12.12,1.07,12.6,1.32l2.58,1.94,2.46-2.52a27.36,27.36,0,0,1,13.42-7.87,67.44,67.44,0,0,0-5.37,9.1l-1.25,2.82,2.42,1.92C93,59.62,104.2,70.2,107.6,85.38l.7,3.12h3.2a9.62,9.62,0,0,1,9,5.18c-4-.58-8.52-.88-11.1.09-2.88,1.08-6,4.86-8.46,8.6-.3-3,.64-6.14,2.83-9.38l1.41-2.1-1.29-2.18c-.38-.65-9.7-16-31.67-19.88l-3.54-.63-1,3.45a24.6,24.6,0,0,0-.32,9.3,18.21,18.21,0,0,1-7.22-13.52L60,64.17l-3.25-.41a47.65,47.65,0,0,0-28.51,5.29.26.26,0,0,1-.3,0,.33.33,0,0,1-.09-.19A.23.23,0,0,1,27.88,68.64Z"/><circle cx="38.5" cy="58" r="2.5"/></svg>