<svg id="Graphics" xmlns="http://www.w3.org/2000/svg" viewBox="0 0 150 150"><path d="M52.21,60.68a4,4,0,1,0-4-4A4,4,0,0,0,52.21,60.68Z"/><path d="M31.06,110.12A3.06,3.06,0,0,1,28,107.07H20a11.06,11.06,0,0,0,22.12,0V84.5a29.52,29.52,0,0,0,10-3.82v37.44H75.83V101.39a101.08,101.08,0,0,0,10.81.77,101.08,101.08,0,0,0,10.82-.77v16.73h23.71V83.41a44.21,44.21,0,0,0-.22-4.48,86,86,0,0,1,5,28.1h4c0-14-4.62-38.45-20-52.78A44.1,44.1,0,0,0,83.07,40.31,15.16,15.16,0,0,0,61.75,34,28.22,28.22,0,0,0,34.12,62.18V80.83A25.08,25.08,0,0,1,26,78.58l-1.71,3.61a29,29,0,0,0,9.79,2.67v22.21A3.06,3.06,0,0,1,31.06,110.12ZM54.69,43.49a15.32,15.32,0,0,0-.45,3.61h8a7.23,7.23,0,1,1,7.22,7.22v8A15.24,15.24,0,0,0,84.6,48.68a35.26,35.26,0,0,1,28.57,34.73v26.71h-7.71V92l-4.69.82a110.35,110.35,0,0,1-14.13,1.3,110.34,110.34,0,0,1-14.12-1.3L67.83,92v18.08H60.12V70.63h-8v5.2a25.28,25.28,0,0,1-10,4.58V62.18A20.2,20.2,0,0,1,54.69,43.49Z"/></svg>