<svg id="Graphics" xmlns="http://www.w3.org/2000/svg" viewBox="0 0 150 150"><defs><style>.cls-1{fill:#231f20;}</style></defs><path class="cls-1" d="M80.28,105.38a17.5,17.5,0,0,1-10.82-3.68l-1.08-.84H20.22l5,6.45a54,54,0,0,0,78.65,7.31c8.28,1.63,14.13,8.77,14.13,15.23h4V76.53c0-.77.06-1.54.06-2.31a54,54,0,0,0-13-35.14c-.23-.27-.47-.52-.7-.78C110,30,117.14,24.17,123.62,24.17v-4H68.81l-.82,0A54.11,54.11,0,0,0,27.15,38.77L26,40.05l.15,1.68A30.94,30.94,0,0,0,56.86,69.91H80.28a17.74,17.74,0,1,1,0,35.47ZM118,118.93a23.76,23.76,0,0,0-10.85-7.48A54.34,54.34,0,0,0,118,94.75Zm-5.42-94.76a22.65,22.65,0,0,0-7.45,10.76,54,54,0,0,0-16.7-10.76ZM80.28,61.91H71A72.82,72.82,0,0,0,83.05,49.59a18.34,18.34,0,0,1,9,10.56l3.8-1.25A22.33,22.33,0,0,0,83.2,45.25l-1.46-.61-.93,1.29c-.1.14-8.27,11.33-17.05,16h-6.9a22.92,22.92,0,0,1-22.5-19.18,46.06,46.06,0,1,1,3.24,66.13H65.71a25.44,25.44,0,0,0,14.57,4.52,25.74,25.74,0,1,0,0-51.47Z"/><circle class="cls-1" cx="56.85" cy="40.12" r="4"/></svg>