<svg id="Graphics" xmlns="http://www.w3.org/2000/svg" viewBox="0 0 150 150"><defs><style>.cls-1{fill:#231f20;}</style></defs><path class="cls-1" d="M45.7,89.08,36.53,77.62l1.06,13c1.6,19.56,11,29.21,18.71,33.86A38.92,38.92,0,0,0,76.36,130a35.91,35.91,0,0,0,35.77-30.67c1.68-12.68-3.68-25-15.11-35.16,2.55-3.58,4.41-7.47,4.45-11.23a2.33,2.33,0,0,0,0-.28c1.8-11.35-.56-22.27-6.31-29.22L93,20.73l-3,1.89a29.68,29.68,0,0,0-8.68,8.9c-.39,0-.78-.06-1.17-.06s-.92,0-1.37.07a29.63,29.63,0,0,0-8.69-8.91l-3-1.89-2.25,2.72c-5.74,7-8.1,17.87-6.31,29.23.15.94.33,1.88.53,2.8h0c.8,3.8,3.16,7.64,6,11.07A57.5,57.5,0,0,0,64.71,80c.84,8.63,3.76,15.88,8.53,21.34C64,102.05,53.3,96.3,45.7,89.08Zm58.5,9.21a27.8,27.8,0,0,1-17,21.65,30.83,30.83,0,0,1-26.72-2.26c-6-3.62-10.26-9.26-12.71-16.59,15,10.49,29.59,10,38.32,4,10.73-7.32,11.73-20.38,8.67-32.09C102,80.72,105.37,89.48,104.2,98.29ZM80.13,39.46A13.36,13.36,0,0,1,93.2,50.1,28.66,28.66,0,0,0,80.13,64.79,28.67,28.67,0,0,0,67.05,50.1,13.37,13.37,0,0,1,80.13,39.46Zm3.38,27.72a24.73,24.73,0,0,1,9.6-12.38C91.9,58.44,87.82,63.18,83.51,67.18Zm-6.77,0c-4.31-4-8.38-8.74-9.6-12.38A24.67,24.67,0,0,1,76.74,67.18Zm1,11.25,2.38,1.75,2.37-1.75c.82-.6,2.46-1.86,4.46-3.57,2.93,10.55,1.09,19.14-5.3,23.58-7.8-6.62-9.25-17.08-9.18-24.29C74.84,76.23,76.83,77.75,77.75,78.43ZM91.2,31.87a22.77,22.77,0,0,1,1.48,3.71,21,21,0,0,0-3.09-1.88A24.17,24.17,0,0,1,91.2,31.87Zm-20.68,1.9a20.18,20.18,0,0,0-3.22,2,24.88,24.88,0,0,1,1.55-3.91A22.22,22.22,0,0,1,70.52,33.77Z"/></svg>