<svg id="Graphics" xmlns="http://www.w3.org/2000/svg" viewBox="0 0 150 150"><path d="M26.6,71.15c-5.94,4.17-9.22,12.53-4,20.45.47.71.95,1.41,1.44,2.11h0A81.08,81.08,0,0,0,43.44,113.6H24.31v8H61.72v-.13l.16,0,.46-4.63a36.4,36.4,0,0,0,0-6.44A61.36,61.36,0,0,0,73,118.29l2,1.17,2-1.17a60.28,60.28,0,0,0,10.65-7.88,35.8,35.8,0,0,0,0,6.47l.46,4.63.16,0v.13h37.41v-8H106.56A81.08,81.08,0,0,0,126,93.71h0c.49-.7,1-1.4,1.44-2.11,5.23-7.92,2-16.28-4-20.45a14.83,14.83,0,0,0-16.07-.91c.14-1.66.22-3.34.22-5,0-.7,0-1.41,0-2.11a35.5,35.5,0,0,0-1-7.33A16.2,16.2,0,0,0,83.37,33.1a35.7,35.7,0,0,0-17.22.11,16.2,16.2,0,0,0-22.8,23,36.57,36.57,0,0,0-.88,6.9c0,.7,0,1.41,0,2.11,0,1.68.08,3.36.22,5A14.81,14.81,0,0,0,26.6,71.15Zm48.39,39A53.66,53.66,0,0,1,57.06,90.89a18.26,18.26,0,0,1,35.88,0A53.63,53.63,0,0,1,75,110.14Zm34.25-31a6.43,6.43,0,0,1,5.25-2.9,7.64,7.64,0,0,1,4.32,1.45c2.57,1.8,4.62,5.37,1.9,9.48-.42.65-.86,1.29-1.31,1.93-7,10-15.73,17.88-23.76,21.66.8-8.84,5.23-19.73,12.24-29.73C108.33,80.41,108.78,79.78,109.24,79.16ZM103,44.61a8.2,8.2,0,0,1-8.2,8.2A8.21,8.21,0,0,1,88,39.93h0A8.2,8.2,0,0,1,103,44.61Zm-23.85-4.2c0,.1,0,.2-.07.3S79,41,79,41.15s-.09.47-.13.71,0,.28-.07.43-.07.52-.09.78,0,.25,0,.37c0,.39,0,.78,0,1.17a16.22,16.22,0,0,0,16.2,16.2c.41,0,.82,0,1.22-.05l.4,0,.8-.1.47-.08.72-.14.48-.12.37-.09a29.22,29.22,0,0,1,.28,3.16q0,.93,0,1.86a53.17,53.17,0,0,1-4.07,20.32,22.27,22.27,0,0,0-41,0,53.09,53.09,0,0,1-4.08-20.34c0-.62,0-1.24,0-1.85,0-.93.11-1.84.22-2.74l.32.08.47.12.73.14.45.08.81.1.4,0c.4,0,.81,0,1.21,0A16.23,16.23,0,0,0,71.28,45c0-.41,0-.83,0-1.24,0-.13,0-.26,0-.39s-.05-.56-.09-.83L71,42.1c0-.25-.09-.51-.15-.76l-.12-.46c0-.15-.07-.3-.11-.44A27.6,27.6,0,0,1,79.13,40.41ZM55.07,36.83a8.2,8.2,0,1,1,0,16.4A8.2,8.2,0,0,1,46.88,45,8.21,8.21,0,0,1,55.07,36.83ZM40.76,79.16c.46.62.91,1.25,1.36,1.89,7,10,11.44,20.89,12.24,29.73-8-3.78-16.75-11.66-23.76-21.66-.45-.64-.89-1.28-1.31-1.93-2.72-4.11-.67-7.68,1.9-9.48S37.82,75.2,40.76,79.16Z"/><circle cx="55.08" cy="45.02" r="4.5"/><circle cx="94.8" cy="44.63" r="4.5"/></svg>