<svg id="Graphics" xmlns="http://www.w3.org/2000/svg" viewBox="0 0 150 150"><path d="M85.67,130V114.78A11.92,11.92,0,0,0,75,102.92c-1-3.61-5.19-5.65-9.32-4.55a8.44,8.44,0,0,0-4.74,3.25,6.55,6.55,0,0,0-1,5.47,5.73,5.73,0,0,0,.23.7A19.81,19.81,0,0,0,49.94,125.1V130h8v-4.9a11.86,11.86,0,0,1,7.18-10.9l7.08-3a3.92,3.92,0,0,1,5.47,3.61V130ZM64.2,103.91a4.32,4.32,0,0,1,2.48-1.67,4.78,4.78,0,0,1,1.23-.16,3.59,3.59,0,0,1,2.81,1.18,11.7,11.7,0,0,0-1.67.56l-5.3,2.27,0,0A2.58,2.58,0,0,1,64.2,103.91Z"/><path d="M63.43,79.73A36.62,36.62,0,0,0,54,84.62c-1.15.53-2.17,1.07-3.24,1.65q-2,1.11-4,2.37a51.09,51.09,0,0,0-7.37,5.7,31.4,31.4,0,0,0-5.95,7.34,21.89,21.89,0,0,0-1.92,4.41,19.71,19.71,0,0,0-.77,4.74l2.79.24a16.34,16.34,0,0,1,3.21-7.24,26.89,26.89,0,0,1,5.74-5.47A35.18,35.18,0,0,0,39,113.6V130h8V113.6a27.4,27.4,0,0,1,5.05-15.82A7.8,7.8,0,0,0,56.5,99.1a8.82,8.82,0,0,0,2.87-.48c4.12-1.43,6.46-5.56,5.2-9.2h0a6.6,6.6,0,0,0-.63-1.31c.68-.29,1.38-.57,2.1-.81A41,41,0,0,0,83.56,75.88a7.74,7.74,0,0,0,3.36.75c3.9,0,7.08-2.83,7.08-6.3a6.25,6.25,0,0,0-3.73-5.54c.22-.58.44-1.16.63-1.75l5.93-19.29-3.75-1.21a35.16,35.16,0,0,1-3.4-1.27,10.63,10.63,0,0,1-3.75-3.92,12.87,12.87,0,0,1,5.51.37,9.8,9.8,0,0,1,3.3,1.73l2.35,1.91,2.48-1.75a5,5,0,0,1,5.73,0l7.94,5.5a1.35,1.35,0,0,1,.6,1.11,1.23,1.23,0,0,1-.06.36,1.33,1.33,0,0,1-1.54,1l-4-.72a8.87,8.87,0,0,0-10.26,7l-4.9,25.33A10.43,10.43,0,0,0,91.17,79c-4.4,0-7.84,2.57-7.84,5.84s3.27,5.71,7.5,5.84l-2.26,11.7V130h8V103.14l9.24-47.8a.85.85,0,0,1,1-.67l4,.73a9.32,9.32,0,0,0,10.67-6.74,9.67,9.67,0,0,0,.34-2.47,9.38,9.38,0,0,0-4-7.69l-8-5.49a12.85,12.85,0,0,0-1.46-.88v-5.2a3.76,3.76,0,1,0-4,0v3.91c-.45-.06-.9-.12-1.36-.14a13.14,13.14,0,0,0-3.31.31V26.93a3.76,3.76,0,1,0-4,0v3.85a19.69,19.69,0,0,0-1.91-.7c-4.82-1.5-12-1.13-15.75,2.1L76.19,33.8l.62,2.4c1.07,4.17,4.3,9.54,9.08,12.11a11,11,0,0,0,1,.48L83.28,60.62C80.35,69.55,73.31,76.33,63.43,79.73Zm-2.64,11c.53,1.54-.72,3.42-2.73,4.12a4.39,4.39,0,0,1-3.42-.18A28.37,28.37,0,0,1,60.36,90,2.19,2.19,0,0,1,60.79,90.72Zm30.38-4c-2.31,0-3.84-1.11-3.84-1.85S88.86,83,91.17,83a6.57,6.57,0,0,1,1.12.1l-.68,3.56C91.46,86.67,91.32,86.69,91.17,86.69ZM90,70.33c0,1.25-1.41,2.3-3.08,2.3a3.67,3.67,0,0,1-.75-.08,37,37,0,0,0,2.47-4.11A2.25,2.25,0,0,1,90,70.33Z"/><path d="M78.14,98.14a5.06,5.06,0,0,0,4.51-2.43c1.48-2.56.25-5.95-2.8-7.71a7,7,0,0,0-4.37-.94,5,5,0,0,0-3.72,2.36c-1.48,2.57-.25,6,2.81,7.72A7.19,7.19,0,0,0,78.14,98.14Zm-2.91-6.72A1,1,0,0,1,76,91l.28,0a3.17,3.17,0,0,1,1.56.45c1.21.7,1.61,1.8,1.35,2.25s-1.42.66-2.62,0S75,91.88,75.23,91.42Z"/></svg>