<svg id="Graphics" xmlns="http://www.w3.org/2000/svg" viewBox="0 0 150 150"><path d="M128.71,48.11A15.13,15.13,0,0,0,130,41.67a18.23,18.23,0,0,0-6.73-14.21A21.45,21.45,0,0,0,106.54,23c-5.28,1-13.8,5.13-17.33,12.47a15.54,15.54,0,0,0-11,4.73C66.57,52.35,32.74,89.79,32.4,90.17l-4.12,4.55,5.83,1.93c.22.07,3.4,1.11,7.24,2.08L20.88,119.67l5.7,2.18a28.75,28.75,0,0,0,10.27,1.88c6.27,0,16.71,0,23-6.8l6.08-5.5,2.31,2.83a30.33,30.33,0,0,0-9.71,13.38l7.5,2.78A22.47,22.47,0,0,1,100.25,120l4.68-6.49a30.32,30.32,0,0,0-16.77-5.74l-4.24-6,34.16-41.11.18-.23c2.1-2.94,1.56-6.39,1.13-9.16a21.68,21.68,0,0,1-.36-3.53.64.64,0,0,1,1.08-.51c.87.76,2.21,2,2.22,2.06l4,3.82Zm-9-9.09A8.7,8.7,0,0,0,111,47.61a28.56,28.56,0,0,0,.46,4.86,12.83,12.83,0,0,1,.27,3.25L73.84,101.35l5.28,7.46-.9.25a29.69,29.69,0,0,0-3,1.09l-8.4-10.29L54.35,111.12l-.28.29c-3.6,4-10.48,4.32-17.22,4.32l-.91,0,14.83-15.17a20.46,20.46,0,0,0,2.06.11c14.63,0,27.7-16.25,36.61-27.33,1.16-1.44,2.25-2.8,3.26-4l-6.15-5.11c-1,1.25-2.16,2.64-3.35,4.12-8,9.88-19.68,24.46-30.54,24.33l-2.81-.35a58.48,58.48,0,0,1-7.23-1.49l5.14-5.68a13.79,13.79,0,0,0,14.73-3.56L82.77,60.74,79.91,58,59.6,78.8a9.81,9.81,0,0,1-8.8,3c10.93-12,26.15-28.7,33.15-36,1.55-1.62,4.38-2.82,6.42-2l4.43,1.78,1-4.68c1.08-5.24,7.79-9.15,12.21-10a13.47,13.47,0,0,1,10.23,2.76,9.9,9.9,0,0,1,3.47,5.59A8.52,8.52,0,0,0,119.67,39Z"/></svg>