<svg id="Graphics" xmlns="http://www.w3.org/2000/svg" viewBox="0 0 150 150"><defs><style>.cls-1{fill:#231f20;}</style></defs><path class="cls-1" d="M36.87,67.38a11.07,11.07,0,0,0-3.46-.63,11.19,11.19,0,0,0-8.82,3.94c-5.46,6.39-3.73,18.37-3.51,19.71L29,89.14c-.49-3.11-.72-10.45,1.7-13.27a3.2,3.2,0,0,1,2.73-1.12c1.61,0,5.61,2.53,8.35,4.89C54.13,93.3,60.16,109.8,60.14,130h8A87.57,87.57,0,0,0,62.9,99.23a38.6,38.6,0,0,0,19.83.68l.26.3a21.18,21.18,0,0,0-9.25,17.57v1.59h8v-1.59a13.22,13.22,0,0,1,7.32-11.88,67,67,0,0,0,10.22,5.61,7.37,7.37,0,0,1,3,2.51l0,.07h0c2,2.92,2.28,7.75,2,15.8l8,.24c.21-6.94.44-14.53-3.08-20.1-2.47-6-2.46-7.74-1.82-10.33a7.11,7.11,0,0,1,1.59-2.78,19.58,19.58,0,0,0,4.63-12.65A18.17,18.17,0,0,0,110,73.36a16.16,16.16,0,0,1,2.15-.22,9.19,9.19,0,0,1,6,1.57,8.42,8.42,0,0,1,2.83,5,24.9,24.9,0,0,1,.38,7h8a31.89,31.89,0,0,0-1.69-9.08,17.69,17.69,0,0,0-2.33-4.47,12.63,12.63,0,0,0-4-3.58A12.87,12.87,0,0,0,116.41,68a17.27,17.27,0,0,0-4.78.13,23,23,0,0,0-4.37,1.13l-.87.33a19.14,19.14,0,0,0-12.78-4.49A30.47,30.47,0,0,0,87,66.58,27.22,27.22,0,0,1,80.34,68c-1.13,0-2.23-1.14-3.61-2.95h2V55.21a35.54,35.54,0,0,0-35.5-35.49H34V26.5H21V65H37.46c-.13.39-.25.78-.35,1.17S36.94,67,36.87,67.38ZM32.21,57H29V34.5H43.3A21,21,0,0,1,64.23,55.44V57H55.32v8H66.26c.66.16,2.2,2.27,3,3.4,2.32,3.19,5.49,7.55,11,7.55a32.66,32.66,0,0,0,8.94-1.74A26.77,26.77,0,0,1,94,73.13a11.52,11.52,0,0,1,8.07,3.35,10.8,10.8,0,0,1,3.62,7.78A11.62,11.62,0,0,1,103,91.74a14.67,14.67,0,0,0-3.25,6,18.29,18.29,0,0,0-.58,4.8c-4.93-2.48-8.86-5.07-11.17-9.22l-.38-.69a21.38,21.38,0,0,1-2.44-9.9h-8a29.35,29.35,0,0,0,1.68,9.75C72,93.61,65.24,92.36,58,88.68A78.49,78.49,0,0,0,47.3,73.86h0c-.49-.54-1-1.09-1.48-1.62a4.16,4.16,0,0,1-1-4A32.21,32.21,0,0,1,47.9,61.7c2.89-5.23,6.49-11.73,3.75-19.39L44.12,45a9.81,9.81,0,0,1,.34,1.26A15,15,0,0,0,32.21,57ZM42,55.91,40.9,57.83c-.38.68-.76,1.37-1.13,2.06A6.9,6.9,0,0,1,42,55.91Z"/></svg>