<svg id="Graphics" xmlns="http://www.w3.org/2000/svg" viewBox="0 0 150 150"><path d="M116.54,45.55a43,43,0,0,1,6.11-1.28,32.22,32.22,0,0,1,6.17-.3l.62-4a37.22,37.22,0,0,0-7.06-.74,50.31,50.31,0,0,0-7,.4,38.29,38.29,0,0,0-7.08,1.57A28.28,28.28,0,0,0,105,42.6a18.8,18.8,0,0,0-11.32-5.87,19.66,19.66,0,0,0-2.71-.16,18.84,18.84,0,0,0-12.75,5.14l-.49.49-6.18,11h0c-.73-.22-1.44-.44-2.16-.68A108.48,108.48,0,0,1,27.65,27.46L20.24,20.3l.64,10.28a60.27,60.27,0,0,0,34.67,51l-4.26,7.57h0l-2,3.5-2.06,3.65h0l-19,33.76,10.06-3.58A49.11,49.11,0,0,0,67.31,99.08a39.79,39.79,0,0,0,34.05-29.19l.16-.6h0a38.35,38.35,0,0,0,1.12-7.7v-.1l0-.67a9.14,9.14,0,0,1-.1-1.34,10.39,10.39,0,0,1,.08-1.45l0-.22A10.79,10.79,0,0,1,106.46,51l2.65-2.18h0c.58-.37,1.17-.73,1.81-1.06A32.27,32.27,0,0,1,116.54,45.55ZM66.84,60.14l2.08.65a8.44,8.44,0,0,1,4.92,7.52q0,.42,0,.84s0,.08,0,.12a5.52,5.52,0,0,1-.1.71s0,0,0,0a8.36,8.36,0,0,1-6.4,6.52h0c-.25,0-.5.09-.76.12l-.07,0a7.92,7.92,0,0,1-.85,0,5.78,5.78,0,0,1-.72,0c-.78-.25-1.51-.5-2.22-.78l-.06,0c-.92-.35-1.73-.68-2.5-1-.43-.19-.85-.41-1.27-.61A13.1,13.1,0,0,0,64,69.56L62.3,68.44A10.87,10.87,0,0,1,57,71.87a12,12,0,0,1-2,.39,54.55,54.55,0,0,1-5.1-3.34,12.55,12.55,0,0,0,6.08-4l-1.47-1.35a10.17,10.17,0,0,1-5.62,2.57,12,12,0,0,1-2.4,0,52.17,52.17,0,0,1-4.35-4.32,11.53,11.53,0,0,0,2-.41,7.86,7.86,0,0,0,3.46-2.1l-1.38-1.45a7.06,7.06,0,0,1-5.71,1c-.33-.06-.66-.15-1-.24a53.08,53.08,0,0,1-3.65-5.51,5.72,5.72,0,0,0,2.25.36,4.5,4.5,0,0,0,2.7-1.07l-1.23-1.58a2.77,2.77,0,0,1-3.11-.15,12.47,12.47,0,0,1-3-2.7c-.15-.17-.28-.36-.42-.54a53,53,0,0,1-2.38-6.79A116.61,116.61,0,0,0,66.84,60.14ZM47.32,112.57l7.89-14c.7.15,1.4.26,2.1.37l.48.06.72.1A41.2,41.2,0,0,1,47.32,112.57ZM94.64,57l0,.33v0a17.39,17.39,0,0,0-.1,2.14c0,.7,0,1.36.12,2a30.8,30.8,0,0,1-1,6.27l-.1.39A31.75,31.75,0,0,1,67.17,91l-3,.26c-.23,0-.46,0-.68,0-.74,0-1.47,0-2.2-.06-.27,0-.53,0-.79-.06l-1.1-.11,3.69-6.56.12,0,.36.05c.33,0,.67.07,1,.09H65l.53,0h.18c.55,0,1.1,0,1.65-.1l.27,0A12.43,12.43,0,0,0,69,84.37l.08,0A16.31,16.31,0,0,0,81.52,71.6l0-.1c.08-.44.14-.89.19-1.35,0-.09,0-.18,0-.28,0-.54.07-1.09.06-1.65a15.81,15.81,0,0,0-.11-1.69c0-.17,0-.34-.07-.51-.06-.39-.13-.78-.22-1.17,0-.18-.07-.36-.12-.53-.11-.43-.24-.85-.38-1.27,0-.1-.07-.22-.11-.32-.18-.5-.39-1-.61-1.45l-.3-.56c-.15-.29-.31-.57-.49-.85s-.25-.41-.39-.61-.36-.51-.56-.77-.27-.36-.42-.54l0,0,6-10.76A10.82,10.82,0,0,1,91,44.57a12.25,12.25,0,0,1,1.58.09,10.84,10.84,0,0,1,6,2.91A18.72,18.72,0,0,0,94.64,57Z"/><path d="M90.38,46.69a2.54,2.54,0,0,0-2.51,2.57,2.53,2.53,0,0,0,2.54,2.51h0A2.54,2.54,0,0,0,93,49.21a2.56,2.56,0,0,0-2.57-2.52Z"/></svg>