<svg id="Graphics" xmlns="http://www.w3.org/2000/svg" viewBox="0 0 150 150"><defs><style>.cls-1{fill:#231f20;}</style></defs><path class="cls-1" d="M119.16,53.92c-5.07-7.31-15.64-8.23-18.92-8.33-3.79-.14-11.19,1.25-18.45,2.65l-.45.09a17.75,17.75,0,0,0,4.53-4.09l1.92-2.46-1.92-2.46a17.45,17.45,0,0,0-18.93-6,11.34,11.34,0,0,0-8.52-3.87H49.9a11.32,11.32,0,0,0-8.52,3.87,17.48,17.48,0,0,0-18.94,5.94l-1.93,2.47,1.93,2.46A17.4,17.4,0,0,0,38.61,50.8a14.66,14.66,0,0,0,6.15,10.82,8.16,8.16,0,0,0,.62,1c0,3.52.13,10.23,1.4,13.24,3.28,7.75,8.78,14,14.18,16.56V116.5h8V86.13l-3.38-.53c-2.59-.41-8-4.77-11.43-12.83a26.91,26.91,0,0,1-.69-6c.23,0,.46,0,.69,0,4.19,0,7.84-2.1,9.39-5.21a14.7,14.7,0,0,0,4.35-4.84c3.58.22,9.55.43,13.25-.27l2.17-.41C88,55.19,96.77,53.47,100,53.59c1,0,10.29.46,13,5.53h0a7.38,7.38,0,0,1,.79,3.64,16.53,16.53,0,0,1-.8,5.72h0l-.33.76c-.17.4-.32.78-.46,1.14l-.15.37h0c-.68,1.91-.91,3.76-1,8.62-.29,10.27,0,36.05,0,37.14l8-.09c0-.26-.28-26.71,0-36.82,0-1.13.07-2,.11-2.76a17.53,17.53,0,0,0,6.21,1.74l3.12.28,1-3a17.4,17.4,0,0,0-10.29-22ZM40.66,41.84A9.18,9.18,0,0,1,36.2,43a9.4,9.4,0,0,1-4.59-1.19,9.64,9.64,0,0,1,9.18,0Zm21.09,7.81a6.67,6.67,0,0,1-3.43,5.82l-1.61.89-.35,1.73a3.67,3.67,0,0,1-4.42,0l-.35-1.73L50,55.47a6.66,6.66,0,0,1-3.41-5.82V40.3l.2-.57A3.3,3.3,0,0,1,49.9,37.5h8.52a3.32,3.32,0,0,1,3.13,2.23l.2.57Zm15-7.87a9.59,9.59,0,0,1-9,.06l-.13-.07A9.62,9.62,0,0,1,76.7,41.78Zm44.5,27a23.4,23.4,0,0,0,.38-2.49,9.2,9.2,0,0,1,.81,3.25A10,10,0,0,1,121.2,68.82Z"/><path class="cls-1" d="M77.61,78.3a40.86,40.86,0,0,0-2.44-4.5A29,29,0,0,0,72,69.62a17.64,17.64,0,0,0-4.28-3.39l-2.16,3.36a13,13,0,0,1,2.47,3.08,23.76,23.76,0,0,1,1.76,3.82A35.42,35.42,0,0,1,71,80.64c.16.71.31,1.42.43,2.13.07.42.15.87.2,1.29V116.5h8V87.74a78.5,78.5,0,0,0,13.41-3.32,38.21,38.21,0,0,0,7.56,8.86V116.5h8V89.32L107,88.12A29,29,0,0,1,98.6,77.78L96.83,73.7l-.08,0a15.19,15.19,0,0,1-.38-2.5,20.19,20.19,0,0,1,.1-3.8,15.81,15.81,0,0,1,.84-3.6l-3.44-2a18.79,18.79,0,0,0-2.24,4.39,24.52,24.52,0,0,0-1.24,4.67,21.06,21.06,0,0,0-.26,5c0,.34.07.68.11,1A75.41,75.41,0,0,1,78.3,79.86C78.08,79.34,77.86,78.81,77.61,78.3Z"/><path class="cls-1" d="M56.32,42.92A33.3,33.3,0,0,0,56,46.5s2.92-2.85,2.39-3.58S56.52,42.13,56.32,42.92Z"/><path class="cls-1" d="M48.79,42.92c-.53.73,2.39,3.58,2.39,3.58s-.14-2.78-.33-3.58S49.32,42.19,48.79,42.92Z"/></svg>