<svg id="Graphics" xmlns="http://www.w3.org/2000/svg" viewBox="0 0 150 150"><defs><style>.cls-1{fill:#231f20;}</style></defs><path class="cls-1" d="M19.93,50.66A7.4,7.4,0,0,0,27,58l1.63,2.38A30,30,0,0,0,25.1,74.58c0,6,3,12.71,8.86,20A24.67,24.67,0,0,1,39.4,110V126.5h8V110A32.33,32.33,0,0,0,46,100.46,19.84,19.84,0,0,1,54.51,80.9,20,20,0,0,1,60,78.3a28,28,0,0,0,9-4.41L89.75,87a23.69,23.69,0,0,1,11.15,20.18A11.35,11.35,0,0,1,89.57,118.5H74.12a4.85,4.85,0,0,1,2.73-.85h2.22v-8H76.85c-.16,0-.31,0-.46,0,0-.21,0-.41,0-.62a9.46,9.46,0,0,1,.62-3.38h0l1.13-3a10,10,0,0,1,1.77-2.25,10.81,10.81,0,0,1,5.92-2.84v-4a15.85,15.85,0,0,0-9.32,1.9A16.64,16.64,0,0,0,71.28,100c-5.36-.85-7.93-3.07-9.69-8l-.94-2.67H57.82a6.78,6.78,0,0,0-5,1.91c-2.1,2.1-2.08,5-2.06,7.51v27.8h8v-24a18.65,18.65,0,0,0,9.68,5.12q-.06.73-.06,1.47a17.21,17.21,0,0,0,.36,3.51A12.84,12.84,0,0,0,64,122.5v4H89.57a19.38,19.38,0,0,0,17.8-11.79,25.14,25.14,0,0,0,9.77-3.28,24.78,24.78,0,0,0,8.85-8.94,24.46,24.46,0,0,0,.31-24,24.34,24.34,0,0,0-8.41-8.85,23.53,23.53,0,0,0-11.55-3.53l-1.48,0A4.76,4.76,0,0,1,104,66a4,4,0,0,1-1.57-.65,4.18,4.18,0,0,1-1.78-2.89,4.3,4.3,0,0,1,1-3.36,4.53,4.53,0,0,1,2.07-1.36,6.76,6.76,0,0,0,10.88-1.21l.59-1-.59-1a6.78,6.78,0,0,0-11.17-.88,8.59,8.59,0,0,0-4.93,2.6A8.74,8.74,0,0,0,99.63,69.2,8.85,8.85,0,0,0,103,70.79a9.68,9.68,0,0,0,1.85.25l1.23.09a18.3,18.3,0,0,1,8.86,3.16,17.44,17.44,0,0,1,3.5,3.14A18.36,18.36,0,0,1,121,81.31a17.94,17.94,0,0,1-1,17.56,17.48,17.48,0,0,1-6.55,6,17,17,0,0,1-4.57,1.63A31.65,31.65,0,0,0,94,80.2L74.75,68.09a28,28,0,0,0,5.51-16.57A27.4,27.4,0,0,0,72.09,32,28.93,28.93,0,0,0,51.75,23.5h-.27c-3,0-5.43,1.78-7.18,3.09a15.08,15.08,0,0,1-1.61,1.1c-6.75.4-10.17,3-11.88,5.16h-.54A10.35,10.35,0,0,0,19.93,43.19Zm90.26,4.9a2.89,2.89,0,0,1-3,0A2.84,2.84,0,0,1,110.19,55.56ZM72.26,51.49A19.69,19.69,0,0,1,65.9,66h0a20,20,0,0,1-8.13,4.58A28.27,28.27,0,0,0,42.51,81.75a28.27,28.27,0,0,0-3.29,6.6l0,0v-.09c-.07-.88-.2-1.76-.22-2.63a31.76,31.76,0,0,1,.1-5.17,20.35,20.35,0,0,1,3.33-9.31,32,32,0,0,1,7.14-7.28c2.73-2.24,5.73-4.34,8.51-6.9a13.74,13.74,0,0,0,1.08-1.08c.35-.4.66-.8,1-1.21a22.87,22.87,0,0,0,1.55-2.53,23.85,23.85,0,0,0,2-5.42A23,23,0,0,0,64.4,41a17.41,17.41,0,0,0-1-5.71l-.06-.15a20.68,20.68,0,0,1,3.08,2.54A19.42,19.42,0,0,1,72.26,51.49Zm-42-10.64h2.84l3.55.6L37,38c.3-.45,1.67-2.06,6.35-2.3,2.33-.12,4.15-1.47,5.75-2.67a9.81,9.81,0,0,1,2.4-1.5h.27a20.48,20.48,0,0,1,9.14,2.2,11.38,11.38,0,0,1,.65,2.13,19,19,0,0,1-.84,10,25.91,25.91,0,0,1-2.11,4.6,18.46,18.46,0,0,1-1.39,2c-.26.31-.51.61-.78.88a10.29,10.29,0,0,1-.88.79C52.9,56.38,50,58.43,47,60.72a34.67,34.67,0,0,0-7.82,8.35A22.17,22.17,0,0,0,36,80.22a27.78,27.78,0,0,0,.13,3.42c-2-3.4-3-6.51-3-9.06A22.24,22.24,0,0,1,36.72,62.4l1.3-2a35.16,35.16,0,0,1,3-3.75,42.72,42.72,0,0,1,5.81-5.26l-2-3.49A48.69,48.69,0,0,0,37.18,52c-1,.69-2.07,1.45-3.08,2.24l-.68-1a7.4,7.4,0,0,0-5.49-3.2V47.92h8.4v-4h-8.4v-.73A2.34,2.34,0,0,1,30.27,40.85Z"/></svg>