<svg id="Graphics" xmlns="http://www.w3.org/2000/svg" viewBox="0 0 150 150"><path d="M127.86,81.18a9.37,9.37,0,0,0-7.34-3.2c-4.88,0-8.71,3.29-8.71,7.49a7.41,7.41,0,0,0,2.47,6.06c-2,6.32-8.84,15.14-17,17.61-11.72,3.54-21.81,0-26.89-4.2l-.34-.27a27,27,0,0,1-6.29-6.93l4.39-3.45,7.12,11.19L86,91.63l-6.33-4.89-3.73,4.84-5.75-9L60.65,90a31.44,31.44,0,0,1,0-13c1.5-7.59,6.12-11.86,11-15.38L72.46,69,84,74.06l3.24-7.31-7.26-3.22-.59-5.63c1.11-.41,2.15-.76,2.93-1l.3.23c2.13,1.61,6.1,4.6,11,3.59,7.55-1.56,19.52-5.16,22.22-12.65l8.45-1.42v-4l-8.81-1.49C111.63,34,97,30.77,92.46,30.49A14.64,14.64,0,0,0,80.3,35.35c-1.26,0-3,.1-5.09.28l-1.44-4.38,3.81-4-5.83-5.49-7.06,7.51,2.46,7.5c-10.77,2-24.42,7-31.29,19.05C25.48,74,30,87.06,33.28,96.6l.23.68c.15.44.34.9.54,1.37l-13.59,1.64,8.61,12.13L21.89,112l-.44,8,23.73,1.3-10.42-14.7,4-.47c8.55,10.91,25.43,23.39,43.43,23.39,28.21,0,38-14.57,42.22-20.79,4-5.87,5.22-15.08,5.91-20A10.08,10.08,0,0,0,127.86,81.18Zm-10.14,23.1c-3.77,5.6-11.63,17.26-35.58,17.26-19.8,0-38.24-18.66-41.06-26.86L40.84,94c-3.1-9-6.62-19.19,2-34.25,9-15.78,34.94-16.4,38.91-16.4h.52l2.52.08,1.15-2.25s1.66-3,6.07-2.69c6.25.37,15.43,4.26,16.4,6.41-.09,2.3-6.17,5.87-16.4,8-1.37.29-3.16-1.06-4.59-2.14-1.61-1.21-3.27-2.46-5.53-2-1.54.31-10.11,3.09-13.37,5.35-4.63,3.22-13.25,9.21-15.65,21.39C50,89.91,54.35,102.52,65.12,111l.22.18c6.6,5.39,19.53,10.12,34.27,5.65,9.75-3,17.33-11.65,20.94-19.48A23.62,23.62,0,0,1,117.72,104.28Z"/></svg>