<svg id="Graphics" xmlns="http://www.w3.org/2000/svg" viewBox="0 0 150 150"><defs><style>.cls-1{fill:#231f20;}</style></defs><path class="cls-1" d="M87.36,48.6A5.36,5.36,0,1,0,92.72,54,5.37,5.37,0,0,0,87.36,48.6Zm0,6.72A1.36,1.36,0,1,1,88.72,54,1.36,1.36,0,0,1,87.36,55.32Z"/><path class="cls-1" d="M108.07,54a5.36,5.36,0,1,0-5.35,5.36A5.36,5.36,0,0,0,108.07,54Zm-5.35,1.36A1.36,1.36,0,1,1,104.07,54,1.36,1.36,0,0,1,102.72,55.32Z"/><path class="cls-1" d="M109.19,117.53V71A24,24,0,0,0,114,66.23a13.18,13.18,0,0,0,2.08.18,13.51,13.51,0,0,0,0-27c-.33,0-.65,0-1,0-.27-.42-.55-.84-.84-1.24l.11-.21-.41-.19a23.54,23.54,0,0,0-37.52,0,4.06,4.06,0,0,0-.51.26l.13.24c-.32.45-.62.9-.91,1.36v-.23l-.77,0A13.52,13.52,0,0,0,60.83,52.9a13.39,13.39,0,0,0,2.57,7.89A28.05,28.05,0,0,0,46.67,86.42v22.89H43.83a5,5,0,0,1-4.95-5V61.72a9.21,9.21,0,0,0-18.42,0v7.87h8V61.72a1.21,1.21,0,1,1,2.42,0v42.64a13,13,0,0,0,13,13H66A17.9,17.9,0,0,0,83.92,99.43V98.09a48.83,48.83,0,0,0,4.72-1.83v21.27h8v-35l-6.1,3.76a50.25,50.25,0,0,1-8.38,3.95A17.9,17.9,0,0,0,66,80.06H64.55A17.76,17.76,0,0,0,55,82.84,20,20,0,0,1,74.68,66.41h0a12.17,12.17,0,0,0,1.59-.13l0-.15a23.55,23.55,0,0,0,25,8.71v42.7ZM64.55,88.06H66a9.89,9.89,0,0,1,9.88,9.88v1.49A9.89,9.89,0,0,1,66,109.31H54.67V97.94A9.89,9.89,0,0,1,64.55,88.06Zm57-35.16a5.51,5.51,0,0,1-3.61,5.17,23.55,23.55,0,0,0,.41-10.17A5.52,5.52,0,0,1,121.54,52.9Zm-20.3-15.19a14.4,14.4,0,0,0-6.1,5.62A14.46,14.46,0,0,0,89,37.71a15.62,15.62,0,0,1,12.2,0ZM71.93,48A23.14,23.14,0,0,0,72.34,58,5.5,5.5,0,0,1,71.93,48ZM79.56,52a15.53,15.53,0,0,1,5.21-11.59A10.37,10.37,0,0,1,93.14,50.6h4a10.37,10.37,0,0,1,8.37-10.15A15.57,15.57,0,1,1,79.56,52Z"/></svg>