<svg id="Graphics" xmlns="http://www.w3.org/2000/svg" viewBox="0 0 150 150"><defs><style>.cls-1{fill:#231f20;}</style></defs><path class="cls-1" d="M61.25,111v-8c-15.82,0-25.54-2.09-29.72-6.4a9.6,9.6,0,0,1-1.42-1.9,15.68,15.68,0,0,0,3.62,1H65.57v.14a13.38,13.38,0,0,0,1.8-.14l52.65,0,.33-.05a11.6,11.6,0,0,0,1.51-22.51c-4-2.11-8.59-4.71-10.55-6a11.6,11.6,0,0,0-21.25-4.33,117.29,117.29,0,0,0-37-8.53,35.2,35.2,0,0,0-25,9.06c-5,4.6-7.87,10.21-8,15.8,0,.26,0,.53,0,.81,0,8.38,0,16.29,5.79,22.25S42.65,111,61.25,111ZM28,79.54V79.4c.1-3.43,2-7.05,5.46-10.2a27,27,0,0,1,19.09-7A110.26,110.26,0,0,1,88.4,70.78a11.61,11.61,0,0,0,11.46,9.81v-8A3.6,3.6,0,0,1,96.26,69a2.17,2.17,0,0,1,0-.26l.07-.49a3.6,3.6,0,0,1,7.13.75c0,3.5,4.72,6,15,11.41l.48.24.49.12a3.59,3.59,0,0,1-.2,6.91H77.54A12.87,12.87,0,0,0,65.57,70v8a4.89,4.89,0,0,1,1.05,9.67H34.56A7.9,7.9,0,0,1,28,80.3v-.76Z"/></svg>