<svg id="Graphics" xmlns="http://www.w3.org/2000/svg" viewBox="0 0 150 150"><path d="M74,37A1,1,0,0,0,76,37,21.56,21.56,0,0,1,88.62,25.05l.86-.3-.73-.56a22.5,22.5,0,0,0-27.5,0l-.73.56.86.3A21.56,21.56,0,0,1,74,37Zm1.48-.19Z"/><path d="M39.7,45.35A22.88,22.88,0,0,0,41,52.85a57.39,57.39,0,0,0-1.83,13.21c0,.46,0,.92,0,1.39A58.08,58.08,0,0,0,52,104c.4.52.82,1,1.24,1.5,1.09,1.27,2.25,2.49,3.44,3.65-.54,1.46-1.15,2.91-1.82,4.31a49.55,49.55,0,0,1-3.28,5.8L49,123.11l4.26,1.94A52.21,52.21,0,0,0,75.08,130a51.46,51.46,0,0,0,21.67-5l4.22-2-2.56-3.88a49.55,49.55,0,0,1-3.28-5.8c-.67-1.4-1.28-2.85-1.82-4.31,1.19-1.16,2.34-2.38,3.43-3.64.43-.49.85-1,1.22-1.46a58.17,58.17,0,0,0,13-36.55c0-.47,0-.93,0-1.39a57.39,57.39,0,0,0-1.83-13.21,23,23,0,0,0-3.9-22,34.22,34.22,0,0,1,6.77-.73l0-8a43,43,0,0,0-22.64,6.65l-1,.66A42.19,42.19,0,0,0,75.67,42.3c-.25.41-.5.83-.74,1.26-.21-.37-.42-.73-.64-1.08a42.55,42.55,0,0,0-12.6-13,42.61,42.61,0,0,0-23.56-7.36l-.05,8a33.33,33.33,0,0,1,6.76.75A22.76,22.76,0,0,0,39.7,45.35Zm7.39,22.1c0-.35,0-.69,0-1v-.13A51.31,51.31,0,0,1,47.65,60l.11.11.67.62c.26.25.53.5.81.73s.49.39.74.57.56.44.86.65l.8.5c.3.19.6.38.92.55s.55.29.83.43l.67.34a51.86,51.86,0,0,1,7.55,23c.12,1.46.18,2.91.18,4.33a51.49,51.49,0,0,1-.81,9.13c0,.32-.13.63-.19.94-.51-.53-1-1.06-1.51-1.62-.34-.39-.67-.78-1-1.24A49.45,49.45,0,0,1,47.09,67.45Zm38,34.13c.21,1.18.46,2.36.74,3.54A52.1,52.1,0,0,1,75,112a52.1,52.1,0,0,1-10.82-6.89c.28-1.18.53-2.36.74-3.54a55.62,55.62,0,0,0,.87-9.83c0-1.52-.07-3.09-.2-4.66a55.51,55.51,0,0,0-5.77-20.46c10.06,3.9,12.81,6.66,13.24,8.35a2,2,0,0,0,3.88,0c.72-2.85,7-5.94,13.24-8.36a55.56,55.56,0,0,0-5.77,20.47c-.13,1.57-.2,3.14-.2,4.66A55.62,55.62,0,0,0,85.08,101.58ZM60.76,119.46c.46-.86.91-1.72,1.33-2.6s.75-1.62,1.1-2.44a73.63,73.63,0,0,0,10.12,5.65,4,4,0,0,0,3.38,0,73.63,73.63,0,0,0,10.12-5.65c.35.82.72,1.64,1.11,2.45s.86,1.75,1.33,2.61A41,41,0,0,1,60.76,119.46ZM91.7,99c-.31.41-.64.8-1,1.2-.48.55-1,1.08-1.5,1.61-.06-.31-.14-.63-.19-.94a51.49,51.49,0,0,1-.81-9.13c0-1.42.06-2.87.18-4.33a51.86,51.86,0,0,1,7.55-23c.23-.11.45-.23.67-.35s.56-.27.83-.42.63-.37.94-.56.52-.32.77-.49.6-.43.89-.66l.72-.55c.28-.24.55-.5.82-.75s.45-.4.66-.61l.11-.11a51.31,51.31,0,0,1,.54,6.32v.13c0,.35,0,.69,0,1A49.5,49.5,0,0,1,91.7,99Zm3.81-57.13a7.39,7.39,0,0,1-13.08,4.71l0-.09c.53-.86,1.11-1.69,1.72-2.5a4.46,4.46,0,1,0,5.94-6.09c.6-.48,1.21-.94,1.84-1.38l.65-.43.06,0A7.4,7.4,0,0,1,95.51,41.88Zm-4.92,0a2.46,2.46,0,0,1-4.91.3,34.87,34.87,0,0,1,2.69-2.75A2.47,2.47,0,0,1,90.59,41.88ZM75,58h0l3.16-.06.77-3a29.07,29.07,0,0,1,1.58-4.57A11.39,11.39,0,0,0,96.31,34l.45-.23a15,15,0,0,1,4.4,17.36l-.55,1.3.39,1.35c.11.4.2.81.3,1.21A17.06,17.06,0,0,1,93.81,61c-.28.12-.8.3-1.49.54C85.49,64,78.43,66.89,75,70.64,71.57,66.89,64.51,64,57.68,61.56c-.69-.24-1.21-.42-1.49-.54A17,17,0,0,1,48.7,55c.1-.4.19-.81.3-1.21l.39-1.35-.55-1.3a15,15,0,0,1,4.34-17.31l.46.24A11.38,11.38,0,0,0,69.43,50.39,29.37,29.37,0,0,1,71,54.92,4.08,4.08,0,0,0,75,58Zm-13.5-18.5a37.12,37.12,0,0,1,2.84,2.91,2.47,2.47,0,1,1-2.84-2.91Zm-4.23-3.32c.86.58,1.69,1.2,2.5,1.84a4.46,4.46,0,1,0,6,6.16c.63.83,1.22,1.67,1.76,2.55h0A7.39,7.39,0,1,1,57.23,36.13Z"/></svg>