<svg id="Graphics" xmlns="http://www.w3.org/2000/svg" viewBox="0 0 150 150"><defs><style>.cls-1{fill:#231f20;}</style></defs><path class="cls-1" d="M115.48,75.47a20.94,20.94,0,0,0,5.59-.7,12.41,12.41,0,0,0,5.25-2.91,13.74,13.74,0,0,0,3.23-4.76L126,65.37a8.18,8.18,0,0,1-6,4.54,22.33,22.33,0,0,1-8.62-.74A65.37,65.37,0,0,1,102.44,66a52.55,52.55,0,0,0-5-1.79,20,20,0,0,0-4.17-.76,28.91,28.91,0,0,0-5.2-3.71L65.29,47.12c-6.92-4-14.79-7.92-22.48-6.24-1.56-2.33-4.1-5-7.79-3.94-2.86.82-4.87,4.1-6,9.77l-2.43,1.23a7.89,7.89,0,0,0-4.35,5.51L19.7,60l4.79,6.08a5.72,5.72,0,0,0,8.43.62l3.81-3.61h0l.54.09c-2.29,2.45-4.66,5-5.11,5.51l-.3.37A7,7,0,0,0,35,79.65a6.06,6.06,0,0,0,7.23-2.54,31.15,31.15,0,0,1,5.7-5.65l9.71,0c4.18,2,13.66,7.5,17.55,14.26,2.17,3.77,6.65,8.63,12.12,9.93,4.2,1,15.5,10.26,22.19,16.51l2.07,2,2.52-1.32c3.23-1.7,6-6.77,4.63-10.75a8,8,0,0,0-4.13-4.69l-.86-.43-2.61-5.33a35.59,35.59,0,0,0-6-8.63,12.22,12.22,0,0,1-2.75-4.82,33.3,33.3,0,0,0-2.15-5.49,70.14,70.14,0,0,0,9.89,2.38A37.43,37.43,0,0,0,115.48,75.47ZM103.93,95.15l1.36,2.78c-5.44-4.41-11.88-9-16.12-10-2.36-.56-5.32-3.15-7-6.15l-.06-.11c-.21-.38-.4-.78-.58-1.19a20.19,20.19,0,0,1-1-3.16,11.47,11.47,0,0,1,0-6.26l-3.49-2A12.84,12.84,0,0,0,75,73.36a.09.09,0,0,0,0,0A64,64,0,0,0,62.42,65c0-.33,0-.67-.07-1a14.74,14.74,0,0,0-1.16-4.48,13.9,13.9,0,0,0-1.12-2A12.88,12.88,0,0,0,55,53.2l-2.09,3.41a8.3,8.3,0,0,1,1.81,2.22,8,8,0,0,1,.53,1.2,9.36,9.36,0,0,1,.25,1.26,8.15,8.15,0,0,1-.08,2.2l-7.44,0a4.84,4.84,0,0,0-3.75-7.14l-6.9-1.23H37a8.57,8.57,0,0,0-5.14,1.72l-2.58,2.41-.43-.55,1-2.7.11-.35.07-.45L36.27,52l.3-2c.15-1,.36-2,.6-2.91.22.38.4.69.54.89l1.91,2.79,3.07-1.42c5.3-2.44,12.39,1.17,18.66,4.77L84.23,66.77A22.67,22.67,0,0,1,94.75,80.43a20,20,0,0,0,4.57,8A27.75,27.75,0,0,1,103.93,95.15Z"/></svg>