<svg id="Graphics" xmlns="http://www.w3.org/2000/svg" viewBox="0 0 150 150"><path d="M126.55,40.14c0-.13,0-.28,0-.41a24.56,24.56,0,0,0,4-2.95L128,33.72a22.38,22.38,0,0,1-2.14,1.45c-.1-.22-.19-.44-.3-.64a9.6,9.6,0,0,0-.62-.94,16.06,16.06,0,0,0-1.22-1.44,10.63,10.63,0,0,0-3.4-2.39,7.66,7.66,0,0,0-4.75-.47,6.52,6.52,0,0,0-4.15,3,5.9,5.9,0,0,0-.57,1.22c0,.12-.06.19-.1.35s-.07.32-.1.48a5.84,5.84,0,0,0-.06.92,5.59,5.59,0,0,0,.89,2.69,8.22,8.22,0,0,0,3.21,2.85,10.14,10.14,0,0,0,3.72,1h.11a22.37,22.37,0,0,1-1.62,2.34c-11-9.11-26.75-12.89-36.22-12-17,1.55-30.27,7.6-39.48,18a30.16,30.16,0,0,0-5.49-1.22,19.51,19.51,0,0,1-8.76-4.14L20,38.6l.25,9.26c0,.83.31,8.23,3.33,13.52,2.1,3.68,6.44,6.7,9.36,8.43-.65,2.09-1.64,4-2.57,4.45a15.11,15.11,0,0,1-5.69.87l-5.41-.24,4.6,17.78,1.7.8a72.53,72.53,0,0,0,30.14,7.16c.5,4.58-.32,9.33-1.24,13.51L53.4,119H66.78l1.2-1.63a61,61,0,0,0,6.94-13.28,63.91,63.91,0,0,0,14.69.78,61.46,61.46,0,0,0,14.12-2.46c.6,4,1.17,9.24.8,12.07l-.59,4.52h14.23l1.07-2.35c.56-1.24,13.74-30.68,9.64-53a31,31,0,0,0-6.54-14,29.59,29.59,0,0,0,1.73-2.7A18.53,18.53,0,0,0,126.55,40.14Zm-10.42-5.06a.2.2,0,0,1,0,.07h0C116.07,35,116.11,34.91,116.13,35.08Zm1,1.12a2.87,2.87,0,0,1-.93-.9.84.84,0,0,1,.51-.17,3,3,0,0,1,2.16,1.39c.1.12.19.25.29.38a1.64,1.64,0,0,1-.22,0A4.9,4.9,0,0,1,117.16,36.2ZM112.94,111h-.32a107.88,107.88,0,0,0-1.82-14.76l-1-5-4.66,2.2a47.36,47.36,0,0,1-16,3.49A50.71,50.71,0,0,1,73.47,95.6l-3.81-1.16-1.18,3.8a55.82,55.82,0,0,1-5.06,11.4,36.33,36.33,0,0,0-.51-14l-.81-3.12-3.22.12A62.93,62.93,0,0,1,30.67,87l-1.1-4.24a17.09,17.09,0,0,0,4.18-1.25c6-2.79,7.47-11.49,7.71-13.21l.4-2.88-2.62-1.27c-2.6-1.27-7.27-4.22-8.71-6.74a11.9,11.9,0,0,1-.85-1.87,22.63,22.63,0,0,0,4.86,1.29c6.71,1,9.86,3.39,11.21,8.66l7.75-2a18.75,18.75,0,0,0-5.26-9.25C56,46.15,67.15,41.39,81.37,40.1c10.3-.92,36.23,6.44,39.64,25C124,81.59,115.86,103.81,112.94,111Z"/></svg>