<svg id="Graphics" xmlns="http://www.w3.org/2000/svg" viewBox="0 0 150 150"><path d="M61.43,120.19a9.74,9.74,0,0,0,9.74,8.37H94.53a20.83,20.83,0,0,0,12-3.81,15.11,15.11,0,0,0,4.17,2,19.26,19.26,0,0,0,5.63.81,22,22,0,0,0,5.61-.73c.41-.1.81-.22,1.2-.34a9.77,9.77,0,0,0-5-18.86q-.59.11-1.17.27c-.3.07-.58.18-.87.26a40.69,40.69,0,0,0-39.81-49.4l-4.78,0H65.87a20,20,0,0,0,.4-3.95,19.71,19.71,0,0,0-1.45-7.4,25.78,25.78,0,0,0,2-3.75c3.18-7.37,2.79-15.45-1-20.59l-1.39-1.89-2.32.29c-6.34.78-12.48,6.05-15.67,13.43a27.93,27.93,0,0,0-1,2.78,19.84,19.84,0,0,0-12.15,2.09l-7.44,4.86-.43.31a14.63,14.63,0,0,0,1.9,23.82,14.36,14.36,0,0,0,4,1.64v.07c-.09,1.07-.14,2.2-.14,3.37a40.78,40.78,0,0,0,7.83,24l-.13,11.48h-.41a9.62,9.62,0,0,0-9.54,10.86,9.74,9.74,0,0,0,9.74,8.38h5.41a13.17,13.17,0,0,0,13.15-13.15v-4.68c1.89.55,4.12,1.21,6.48,1.92A9.61,9.61,0,0,0,61.43,120.19Zm57.6-4.52.76-.18a1.58,1.58,0,0,1,2,1.34,1.51,1.51,0,0,1-1,2.07l-.78.22h0a12.91,12.91,0,0,1-6.87,0l-.12,0a10.27,10.27,0,0,1,1.67-1.43A14,14,0,0,1,119,115.67ZM52.31,44.15a18.33,18.33,0,0,1,1.47-6.09,15.48,15.48,0,0,1,6.74-7.81A15.46,15.46,0,0,1,59.46,40.5h0a16.66,16.66,0,0,1-5.47,7,11.3,11.3,0,0,1-1.25.76A12.59,12.59,0,0,1,52.31,44.15Zm1.85,57.43-4.94-1.2v15a5.16,5.16,0,0,1-5.15,5.15H38.66a1.78,1.78,0,0,1-1.81-1.4,1.58,1.58,0,0,1,.39-1.29,1.62,1.62,0,0,1,1-.55,12.39,12.39,0,0,1,2,1.05c3.12,1.84,5,0,5.56-.61l2.17-2.61-1.22-1.44L47,96.57v-.84l-.53-1.26-.33-.42a32.33,32.33,0,0,1-6.11-12.66,33,33,0,0,1-.88-7.55c0-.94,0-1.84.11-2.69a33,33,0,0,1,.49-3.6l1.08-5.35-5.43.59a6.52,6.52,0,0,1-4-.9,6.67,6.67,0,0,1-3.26-5.71,6.58,6.58,0,0,1,2.26-5l6.76-4.44a11.68,11.68,0,0,1,7.14-1.17,17.43,17.43,0,0,0,3.14,9.9l1.38,1.88,2.32-.28a16.57,16.57,0,0,0,7.09-2.76c0,.16,0,.32,0,.48a11.49,11.49,0,0,1-1.63,5.92L53,66.88l7.16-.09c3.26-.05,7.58,0,11.4,0l4.81,0A32.7,32.7,0,0,1,106,113.43l0,.11a12.6,12.6,0,0,1-11.39,7H71.17a1.79,1.79,0,0,1-1.81-1.39A1.62,1.62,0,0,1,71,117.32a1.58,1.58,0,0,1,1.19.52l1.19,1.31H87v-8h0c-.31,0-.62,0-.93-.05l-4.52-1.4a11.33,11.33,0,0,1-2.57-2A10.88,10.88,0,0,1,76,99.27a11,11,0,0,1,20.82-3.84L104,92a19,19,0,0,0-35.19,13.88C62.54,103.94,56.46,102.14,54.16,101.58Z"/><path d="M39.13,48.59a3,3,0,1,0,3,3A3,3,0,0,0,39.13,48.59Z"/></svg>