<svg id="Graphics" xmlns="http://www.w3.org/2000/svg" viewBox="0 0 150 150"><path d="M129.25,56.44c-.17-10-4.7-19.57-11.82-25-4.32-3.29-9-4.51-13.21-3.43a6.83,6.83,0,0,0-2.72,1.45,16.88,16.88,0,0,0-3-.28,16.09,16.09,0,0,0-13.32,7.05L80.55,43,89,42.47c.26,0,.52,0,.78,0a15.24,15.24,0,0,1,9.7,3.49,8.74,8.74,0,0,0,1.29,1.29l.73.58.6.56a1.82,1.82,0,0,1-.87,2.49L43.57,71.46l2.56,4.2q1.15,1.86,2.46,3.62L21,87.55l10.72,4.54c6.54,2.77,10.49,4.44,18.72,4.44a69.44,69.44,0,0,0,18.28-2.7,38.52,38.52,0,0,0,13.83,2.81c.77,0,1.55,0,2.33-.1l0,9.14,5,6.53a28.26,28.26,0,0,0-6,2.73L88,121.79A20.44,20.44,0,0,1,95.72,119a20.06,20.06,0,0,1,4.46-.17c.75.05,1.5.14,2.21.26a20.73,20.73,0,0,1,4.57,1.36l3.15-7.36a28.68,28.68,0,0,0-6.35-1.88,27.72,27.72,0,0,0-3-.36c-.62-.05-1.24-.06-1.85-.07l-6-7.84,0-7.89c1.87-.49,3.73-1.08,5.56-1.75l4.29,6.55,9.2,2.1a21.49,21.49,0,0,0,.86,8.22l7.64-2.39a13.59,13.59,0,0,1-.52-5.54,16.65,16.65,0,0,1,.67-3.22c.17-.55.37-1.09.58-1.6a18.81,18.81,0,0,1,3.31-5.23l-6-5.32a26.78,26.78,0,0,0-4.64,7.32l-6.19-1.42L105.79,90C119.17,82.92,129.49,70.9,129.25,56.44ZM50.4,88.53a39,39,0,0,1-4.13-.2l8.36-2.51A28.86,28.86,0,0,0,57.47,88,54.2,54.2,0,0,1,50.4,88.53Zm35.26-.13c-4.92.75-10-.37-14.51-2.18L70.69,86l-2.07-1c-1.11-.53-2.17-1-3.19-1.57A45.32,45.32,0,0,1,59.11,79c-.13-.14-.28-.27-.41-.41L57,76.76l-.13,0c-.35-.41-.71-.81-1-1.23l9.82-3.51L69.5,75a22.28,22.28,0,0,0,21.59,3l12.16-4.84-1.48-3.71L89.61,74.21A18.26,18.26,0,0,1,71.92,71.8l-1.77-1.35,33.42-12,.36-.13a3.28,3.28,0,0,0,.57-.24,9.81,9.81,0,0,0,3.9-14.74l-.39-.46-.4-.37c-.52-.5-1.07-1-1.63-1.43l-.54-.55a2.65,2.65,0,0,1-.23-1.26,6.21,6.21,0,0,1,1.31-3.62c1.71-.3,3.9.46,6.07,2.11,3.9,3,8.5,9.67,8.66,18.77C121.47,69.52,108.21,85,85.66,88.4Z"/></svg>