<svg id="Graphics" xmlns="http://www.w3.org/2000/svg" viewBox="0 0 150 150"><path d="M100.67,76.21l13.45,2.86v9.55h8v-16l-21-4.46,0-.69a20.57,20.57,0,0,0-.39-5.39l9-6.8V39.86l12-6.92-4-6.94-8,4.63V20.5h-8V51.27L97.54,54.5a20.59,20.59,0,0,0-6.88-6.22A16.94,16.94,0,0,0,91,45a17.78,17.78,0,0,0-.09-1.8A16.49,16.49,0,0,0,84.64,32a14.45,14.45,0,0,0,4-10h-8A6.56,6.56,0,0,1,75,28.5l-.54,0c-.37,0-.73,0-1.09.05A6.57,6.57,0,0,1,67.54,22h-8a14.53,14.53,0,0,0,4.3,10.32A16.5,16.5,0,0,0,58,43.21a17.78,17.78,0,0,0-.09,1.8,16.19,16.19,0,0,0,.32,3.27,20.33,20.33,0,0,0-6.79,6.09L48,51.42V20.5H40v10L32.14,26l-4,6.94L40,39.75V55.11L48.1,62a20.45,20.45,0,0,0-.4,5.43l0,.63L26.54,72.6v16h8V79.07l13.68-2.9.88,14.71L26.24,98.43V129.5h8V104.21l15.43-5.09A20.55,20.55,0,0,0,70,116.67h9A20.55,20.55,0,0,0,99.21,99.19l15.21,5V129.5h8V98.43L99.79,91ZM57.91,59.08a12.59,12.59,0,0,1,6.47-4.79l4.42-1.4-2-4.17A8.4,8.4,0,0,1,65.92,45a7.06,7.06,0,0,1,0-.93,8.51,8.51,0,0,1,7.49-7.54l.63,0c.38,0,.76,0,1.14-.06a8.53,8.53,0,0,1,7.7,7.56c0,.3,0,.62,0,.94a8.4,8.4,0,0,1-.84,3.71l-2,4.17,4.42,1.4A12.58,12.58,0,0,1,91,59.09a12.38,12.38,0,0,1,2.22,7.65H88.33a16.07,16.07,0,0,0-14,8.3,16,16,0,0,0-14-8.3H55.68A12.37,12.37,0,0,1,57.91,59.08Zm-.44,37.8L55.91,70.74h4.33a12.05,12.05,0,0,1,12,12v25.89H70A12.54,12.54,0,0,1,57.47,96.88Zm21.45,11.79H76.28V82.78a12.06,12.06,0,0,1,12-12H93L91.42,96.88A12.54,12.54,0,0,1,78.92,108.67Z"/></svg>