<svg id="Graphics" xmlns="http://www.w3.org/2000/svg" viewBox="0 0 150 150"><defs><style>.cls-1{fill:#231f20;}</style></defs><path class="cls-1" d="M96.57,79.53l6.24,6.24,5.66-5.65-8.59-8.59H88.55c0-.26,0-.51,0-.76h9.68v-8H88c0-.25-.06-.5-.1-.75H98.59l8.59-8.59-5.66-5.66L95.28,54H86.15A29.13,29.13,0,0,0,99.07,37.9l.05,0,.38-1.4c2-7.2-.89-12.29-8.13-14.33L83.75,20l2.87,7.62L76,27.5l5.7,6.69c1.24,1.45,4,4.65,7.62,5.9a21.37,21.37,0,0,1-7,6.92C80,44.31,77.49,43,75,43s-5,1.27-7.18,3.9a21.28,21.28,0,0,1-6.89-6.82c3.65-1.25,6.38-4.45,7.62-5.9l5.7-6.69-10.64.12L66.49,20l-7.62,2.14c-7.25,2-10.14,7.13-8.14,14.33l.38,1.4,0,0A29.12,29.12,0,0,0,64,54L64,54H55l-6.25-6.25-5.65,5.66L51.7,62H62.09c0,.25-.07.5-.1.75H51.78v8h9.68c0,.25,0,.5,0,.76H50.12l-8.59,8.59,5.66,5.65,6.24-6.24h8.49a43.28,43.28,0,0,0,3.19,12.28,12.4,12.4,0,0,0-.92,4.69,12.15,12.15,0,0,0,3,8,11.14,11.14,0,0,0-2.11,6.56,10.64,10.64,0,0,0,8.51,10.65,8.65,8.65,0,0,0,.29,1.22,10.15,10.15,0,0,0,4.61,5.65A10.28,10.28,0,0,0,83.59,130a9.55,9.55,0,0,0,5.24-1.56A9.53,9.53,0,0,0,94.07,130a10.28,10.28,0,0,0,5.11-1.38,10.15,10.15,0,0,0,4.61-5.65,9.32,9.32,0,0,0,.28-4.56,10,10,0,0,0,4.32-8.29,10.17,10.17,0,0,0-2.07-6.18,9.14,9.14,0,0,0,1.18-4.52,8.9,8.9,0,0,0-4.82-8,21.43,21.43,0,0,0-.71-2.81,11.84,11.84,0,0,0-1.67-3.28,6.73,6.73,0,0,0-3.93-2.64,6.17,6.17,0,0,0-4.63.85,7.69,7.69,0,0,0-2.53,2.86,12.88,12.88,0,0,0-1.09,3,11.85,11.85,0,0,0-.3,3.19h4a8.76,8.76,0,0,1,.61-1.81,7.17,7.17,0,0,1,1-1.65,2,2,0,0,1,1-.74.25.25,0,0,1,.2.06s.13.08.11.13-.1.08,0,.4a6.74,6.74,0,0,1,.31,1.41,11,11,0,0,1,.08,1.19,8.92,8.92,0,0,0-4.54,7.86,9.15,9.15,0,0,0,1.19,4.52,10.11,10.11,0,0,0-2.08,6.18,10.29,10.29,0,0,0,.27,2.31l-.18.09h0a11.51,11.51,0,0,0-1.06.71c-.34-.25-.69-.49-1.06-.71h0a10.83,10.83,0,0,0-2.37-1c0-.15,0-.29,0-.43a11.14,11.14,0,0,0-2.11-6.56,12.15,12.15,0,0,0,3-8,12.31,12.31,0,0,0-1.16-5.24,44.12,44.12,0,0,0,2.94-11.73ZM75.24,100.28h0c-1.68,0-3-1.7-3-3.78a4.31,4.31,0,0,1,.73-2.43,2.83,2.83,0,0,1,2.32-1.35,2.73,2.73,0,0,1,.41,0,2.91,2.91,0,0,1,1.8,1.16h0a4.19,4.19,0,0,1,.84,2.59c0,2.08-1.36,3.77-3,3.78Zm4.38-38.86a22.82,22.82,0,0,1-9.24,0A38.34,38.34,0,0,1,71.52,57a26,26,0,0,0,7,0A38,38,0,0,1,79.62,61.42ZM75,65.89a27.06,27.06,0,0,0,5.21-.51c.15,1.36.25,2.8.3,4.33a23,23,0,0,1-11,0c0-1.52.16-3,.3-4.32A27.26,27.26,0,0,0,75,65.89Zm3.76,19.44c-.32-.11-.65-.21-1-.29l-.5-.1-.51-.09c-.23,0-.46-.06-.69-.08l-.28,0c-.19,0-.38,0-.57,0a10,10,0,0,0-1.81.18l-.51.1-.52.13a7.3,7.3,0,0,0-.79.26l-.27.09,0,0c-.28-.92-.53-1.91-.75-2.94a27,27,0,0,0,8.95-.09C79.28,83.47,79,84.43,78.77,85.33Zm1.4-7.1a22.87,22.87,0,0,1-10.31.13c-.18-1.47-.3-3-.36-4.54a27.78,27.78,0,0,0,5.51.57,27,27,0,0,0,5.5-.57C80.45,75.33,80.33,76.81,80.17,78.23ZM75,51c.49.12,1.18.86,1.9,2.14a22.12,22.12,0,0,1-3.73,0C73.84,51.86,74.5,51.13,75,51Zm.27,57.27h0c1.18,0,2.17,1.29,2.17,2.81s-1,2.81-2.18,2.81-2.17-1.29-2.17-2.81S74.06,108.29,75.23,108.28Zm9.49,13.2a1.68,1.68,0,0,1-2.24.2,2.16,2.16,0,0,1-1-1.17,1,1,0,0,1,.05-.87,1.06,1.06,0,0,1,.73-.47,1.58,1.58,0,0,1,.38,0,2.23,2.23,0,0,1,1.12.31,2.17,2.17,0,0,1,1,1.16A1.09,1.09,0,0,1,84.72,121.48Zm11.45-1a2.16,2.16,0,0,1-1,1.17,1.68,1.68,0,0,1-2.24-.2,1.09,1.09,0,0,1,0-.88,2.13,2.13,0,0,1,1-1.16,1.66,1.66,0,0,1,2.23.2A1.07,1.07,0,0,1,96.17,120.51Zm2.93-12.24c.61,0,1.29.76,1.29,1.84S99.71,112,99.1,112s-1.3-.76-1.3-1.84S98.48,108.27,99.1,108.27Zm-.41-8.86c0-.58.33-.86.41-.86a1.12,1.12,0,0,1,0,1.72C99,100.27,98.69,100,98.69,99.41Z"/></svg>