<svg id="Graphics" xmlns="http://www.w3.org/2000/svg" viewBox="0 0 150 150"><defs><style>.cls-1{fill:#231f20;}</style></defs><path class="cls-1" d="M32.5,125.31h85a12.75,12.75,0,0,0,8.75-3.42,11.62,11.62,0,0,0,.54-16.57,11.57,11.57,0,0,0,3.21-8,12.28,12.28,0,0,0-12.5-12H105.22a27.21,27.21,0,0,0,8.88-20V52.61l5-10h0a12.06,12.06,0,0,0-.54-11.82,13.08,13.08,0,0,0-11.24-6.13H95.79a13.08,13.08,0,0,0-11.18,6,12.05,12.05,0,0,0-.68,11.7L89.1,53.25v8.06c0,4.42-3.92,8-8.75,8H66.5a30.16,30.16,0,0,0-20.77,8.12,28.28,28.28,0,0,0-5.88,7.88H32.5a12.72,12.72,0,0,0-8.76,3.43,11.65,11.65,0,0,0-.54,16.57,11.63,11.63,0,0,0-3.2,8A12.27,12.27,0,0,0,32.5,125.31Zm13.55-8H32.5a4.27,4.27,0,0,1-4.5-4,3.76,3.76,0,0,1,1.23-2.74,4.74,4.74,0,0,1,3.27-1.26h7.41c.09.19.21.36.31.55.24.44.49.88.75,1.31.16.27.34.53.51.79q.41.62.84,1.2.28.39.57.75c.31.4.64.77,1,1.15.19.22.39.45.59.66.38.41.78.8,1.18,1.18C45.78,117,45.91,117.18,46.05,117.31Zm71.45-24a4.28,4.28,0,0,1,4.5,4,3.7,3.7,0,0,1-1.23,2.74,4.69,4.69,0,0,1-3.27,1.26h-51A4.72,4.72,0,0,1,63,99.87a3.75,3.75,0,0,1-1-2.82c.14-2.06,2.28-3.74,4.78-3.74H117.5ZM91.38,35a5.12,5.12,0,0,1,4.41-2.31h11.53A5.13,5.13,0,0,1,111.76,35a4,4,0,0,1,.21,4l-5.79,11.58a5.14,5.14,0,0,1-4.74,2.76h0a5.13,5.13,0,0,1-4.73-2.77l0-.09L91.14,39A4,4,0,0,1,91.38,35ZM51.21,83.26a22.18,22.18,0,0,1,15.29-6H80.35c9.24,0,16.75-7.17,16.75-16v-.66l.25.07.63.18.37.09.63.12.37.07h.06v2.15L97.2,66.1l3.13,2.5,1.09-1.37,1.1,1.37,3.12-2.5-2.23-2.8V61.2l.23,0,.36-.06.78-.17.28-.07c.34-.09.68-.2,1-.31h0v4.77c0,11-9.64,20-21.5,20H66.79c-6.73,0-12.34,4.92-12.76,11.2a11.65,11.65,0,0,0,3.16,8.82,12.77,12.77,0,0,0,9.31,4h51a4.28,4.28,0,0,1,4.5,4,3.7,3.7,0,0,1-1.23,2.74,4.69,4.69,0,0,1-3.27,1.26H67.07q-.87,0-1.74-.06c-8.65-.62-16.19-5.84-19.1-13.38v0A17.82,17.82,0,0,1,45,98.3c0-.21,0-.42,0-.63a18.6,18.6,0,0,1,1.2-7h0A20,20,0,0,1,51.21,83.26Zm-22,11.31a4.74,4.74,0,0,1,3.27-1.26h4.79c0,.07,0,.13,0,.2-.09.64-.16,1.28-.21,1.93,0,.11,0,.21,0,.31,0,.68-.06,1.35,0,2v0h0c0,.69.06,1.38.13,2.07,0,.21,0,.41.08.62s0,.53.09.79H32.5a4.27,4.27,0,0,1-4.5-4A3.76,3.76,0,0,1,29.23,94.57Z"/><path class="cls-1" d="M95.87,42a4.15,4.15,0,0,0,1.92.36,4.22,4.22,0,0,0,.92-1.72,1.79,1.79,0,0,0-1-2.09,4.1,4.1,0,0,0-1.91-.36,4.05,4.05,0,0,0-.91,1.72A1.86,1.86,0,0,0,95,41.09,1.84,1.84,0,0,0,95.87,42Z"/><path class="cls-1" d="M105.33,42.31a4.12,4.12,0,0,0,1.92-.36,1.91,1.91,0,0,0,.89-.86,2,2,0,0,0,.11-1.23,4.22,4.22,0,0,0-.92-1.72,4.13,4.13,0,0,0-1.91.36,1.79,1.79,0,0,0-1,2.09A4.22,4.22,0,0,0,105.33,42.31Z"/></svg>