<svg id="Graphics" xmlns="http://www.w3.org/2000/svg" viewBox="0 0 150 150"><path d="M98.23,66.4c18.86-6.07,29.08-16.51,29.08-30.1V28h-8V36.3c0,11.09-10.17,17.69-20.88,21.57A43.74,43.74,0,0,0,106.5,32V19.94h-8V32c0,9.47-3.46,18.32-9,24a15,15,0,0,0-6.92-9,10,10,0,0,0,2.25-6.33h-4a6.05,6.05,0,0,1-2.25,4.71,14.48,14.48,0,0,0-7.46.1,6,6,0,0,1-2.39-4.81h-4a10,10,0,0,0,2.43,6.54,15,15,0,0,0-6.58,8.81c-5.58-5.72-9-14.57-9-24.05l0-12.09-8,0L43.5,32a43.59,43.59,0,0,0,8.39,26.26c-15.14-4.81-22-11.84-22-22V28h-8V36.3c0,18.14,16,26.27,29.4,30.23C33.65,71.29,20,79.77,20,102.27h8c0-14.33,5.9-21.34,18.67-26-8.32,9.54-13.21,23-13.21,37.49v16.27h8V113.79a54.4,54.4,0,0,1,2.37-16,31.5,31.5,0,0,0,62.34,0,54.4,54.4,0,0,1,2.37,16v16.27h8V113.79c0-14.35-4.8-27.72-13-37.24,12.25,4.73,18.45,12,18.45,26.24h8C130,79.68,116.08,71.15,98.23,66.4ZM69.65,64.5a6,6,0,0,1-.63-.89,5.94,5.94,0,0,1-.5-1A6.55,6.55,0,0,1,68,60a7,7,0,1,1,14,0,6.8,6.8,0,0,1-.54,2.69,6.94,6.94,0,0,1-.52,1,5.86,5.86,0,0,1-.59.82,4,4,0,0,0-.91,3.29,30.71,30.71,0,0,0-3.07-2.09,2.64,2.64,0,0,0-2.74,0,30.71,30.71,0,0,0-3.07,2.09A4,4,0,0,0,69.65,64.5ZM75,116.8H75c-2.79-5.52-4.46-13.9-4.46-22.84S72.16,76.62,75,71.06C77.84,76.62,79.49,85,79.49,94S77.82,111.28,75,116.8ZM69.44,74.1A64,64,0,0,0,66.51,94a63.78,63.78,0,0,0,2.89,19.78A29,29,0,0,1,61.54,94,28.63,28.63,0,0,1,69.44,74.1Zm11.12,0A28.63,28.63,0,0,1,88.46,94a29,29,0,0,1-7.86,19.78A63.78,63.78,0,0,0,83.49,94,64,64,0,0,0,80.56,74.1ZM51.5,93.3A23.43,23.43,0,0,1,60.28,75l.14-.1h0a23.14,23.14,0,0,1,6.15-3.5,32.72,32.72,0,0,0-1.82,43.06A23.51,23.51,0,0,1,51.5,93.3Zm33.75,21.14a32.72,32.72,0,0,0-1.82-43.06,23.14,23.14,0,0,1,6.15,3.5h0l.14.1a23.5,23.5,0,0,1-4.47,39.46Z"/></svg>