<svg id="Graphics" xmlns="http://www.w3.org/2000/svg" viewBox="0 0 150 150"><path d="M120.66,68.05a20.68,20.68,0,0,0,4.25-4.21l.67-.89.11-1.12c.07-.75.11-1.48.11-2.17a20.61,20.61,0,0,0-15.57-20,25.14,25.14,0,0,0-2.64-6.29A25.51,25.51,0,0,0,94.93,22.51L91.2,21l-1.46,3.74A25.49,25.49,0,0,0,88,34.06c0,.4,0,.81,0,1.22a24.86,24.86,0,0,0,2,8.8A16.32,16.32,0,0,1,85.73,55a15,15,0,0,1-4.89,2.86c1.6-4.3,3-9.43,2.55-13.39C82.25,34.56,77.54,27,70.15,23.21a23.89,23.89,0,0,0-5.86-2.12l-6.66-1.46,2,6.53a17.24,17.24,0,0,1,.66,3.48c0,.42.06.87.06,1.37,0,5.72-2.46,10.72-6.41,13C34.2,55.66,24.2,70.23,24.2,87.36A41.68,41.68,0,0,0,65.84,129l37.52-.06.14-3.85c.24-6.69-2-9.73-4.93-11.6a12.58,12.58,0,0,0,4.43-9c0-8.13-4.08-12.29-7.5-14.34a22.58,22.58,0,0,0-11.24-2.82,12.7,12.7,0,0,1,5.86-1.44,12.35,12.35,0,0,1,9,3.77c3.78,3.93,9.24,3.73,11,3.66,7.43-.28,12-7.2,13.48-11.24l2.09-5.61-6,.21c-3.08.12-8-.72-9.1-2.56a8.25,8.25,0,0,1-1-2,20.55,20.55,0,0,0,8.48-2.4A19.88,19.88,0,0,0,120.66,68.05ZM117.8,59.9a12.46,12.46,0,0,1-1.9,1.72,11.4,11.4,0,0,1-1.53,1,12.6,12.6,0,0,1-5.93,1.49,11.64,11.64,0,0,1-1.58-.11L104,63.58l-1.25,2.62a11.76,11.76,0,0,0-1.15,5.11,13.31,13.31,0,0,0,2.22,6.91c2,3.33,5.73,5,9.11,5.73a5,5,0,0,1-3.05,1.34c-.91,0-3.68.13-5-1.22a20.28,20.28,0,0,0-14.75-6.22A20.59,20.59,0,0,0,70.56,91.92l-3.17,9.51,8.85-4.71c2.33-1.24,10.31-2.66,15.14.25,1.55.93,3.62,2.72,3.62,7.48,0,1.56-2.23,4.16-5.84,5.63l-6.5,2.64L88.25,117a20,20,0,0,0,4.26,2.36A6,6,0,0,1,95,121l-29.18,0A33.67,33.67,0,0,1,32.2,87.36C32.2,73.27,40.87,61,58,51c6.27-3.69,10.21-11.14,10.35-19.5,5.18,3.75,6.68,10.2,7.11,14,.47,4.09-3,12.65-5.37,17.08l-4,7.65,8.42-1.89c2.1-.47,12.81-3.06,17.15-7.82A24.3,24.3,0,0,0,98,44c0-.39,0-.76,0-1.13l-.06-.7-.3-.63A17.18,17.18,0,0,1,96,35v-.19c0-.25,0-.51,0-.76,0-.61,0-1.22.09-1.82a17.66,17.66,0,0,1,4.6,5.17,17.28,17.28,0,0,1,2.21,6.28l.44,3.1,3.11.31a12.63,12.63,0,0,1,10.7,8.55,12.48,12.48,0,0,1,.65,4Z"/><path d="M108.85,52.69a4.43,4.43,0,0,0-4.44-.45l-.26.11,0,.28a4.42,4.42,0,0,0,4.39,4.95,4.35,4.35,0,0,0,1.83-.4l.26-.12,0-.28A4.42,4.42,0,0,0,108.85,52.69Z"/></svg>