<svg id="Graphics" xmlns="http://www.w3.org/2000/svg" viewBox="0 0 150 150"><defs><style>.cls-1{fill:#231f20;}</style></defs><path class="cls-1" d="M129.81,63.94l-4,.64c.27,1.69.27,4.85-.86,6.14a1.86,1.86,0,0,1-1.62.59C118,71.14,107,66.84,101.11,59.5a16.5,16.5,0,0,0-2.5-2.61c-11-9.16-24.59-2.13-27.45-.46H61.81l-6.74-6.74-7.89,3-4.87-1.58a4.85,4.85,0,0,0,0-.66A5.77,5.77,0,0,0,40,46.22,4.41,4.41,0,0,0,34.5,46a9.11,9.11,0,0,0-3.13,4.88l-7.79,7.46v2.55L19.13,66l5.07,4,3.25,6,6.61-3.93,4,3.27,1.67-4.11L44,73.72A20.2,20.2,0,0,0,51.45,84.2v20.67H58.4l5.5-14.24.52,1.08v13.16h9.29V83.62c.36,0,.72,0,1.08,0a38.59,38.59,0,0,0,12.93-2.29,41.59,41.59,0,0,0,8.85,11.44L91,104.87h11.13l5.69-11.25-1.64-3.83a27,27,0,0,0,3.14,1l4.43,14.06h10L118.18,86,108.05,70.29c5.55,3.15,11.43,4.9,15.2,5h.24a5.81,5.81,0,0,0,4.52-2C130.74,70.24,129.91,64.58,129.81,63.94Zm-60.1,36.93H68.42V90.81L65.89,85.5l1-2.7c.93.2,1.86.37,2.78.5Zm30,0H97.25l4.25-9.2-1.25-1a37.74,37.74,0,0,1-7.7-8.9,6.81,6.81,0,0,1,1.52-4.35l-1.51-1.31A8,8,0,0,0,91,79a25.36,25.36,0,0,1-2.71-11.13h-4a28.42,28.42,0,0,0,1.81,9.84,33.6,33.6,0,0,1-18.25,1.21c.11-3-.41-8.69-5.44-12.62l-2.46,3.15a10.09,10.09,0,0,1,3.64,6c-2-.26-4.77-.38-6.16.52l1.09,1.68c.83-.54,3.24-.44,5.34-.15a14.06,14.06,0,0,1-.1,2.45l-8.09,20.94h-.21v-19l-1.08-.56a14.64,14.64,0,0,1-5.11-5.44c.16-1.68.66-3.74,1.94-4.65L50,69.6a6.24,6.24,0,0,0-2.16,3.16,21.55,21.55,0,0,1-1.09-7h-4c0,1,.06,1.87.14,2.75l-1.66-.94L42.74,64l-3.34-4.3L36.24,62.1l1.93,2.48-1.75,4.34-2-1.63L29,70.52l-1.65-3-2.46-2,2.71-3.14V60l6.31-6L35,53.62c-.21-.79.65-3.61,1.84-4.39.19-.12.28-.18.67.13a1.8,1.8,0,0,1,.79,1.38c.1,1.54-1.4,3.61-2.1,4.32l2.84,2.81A14,14,0,0,0,41.15,55l6.14,2,3.76-1.45c-1.51,2.88-2.8,6.84-1.36,10.61l1.87-.72c-1.55-4,.9-8.64,2.53-11l4.7,4.71A6.33,6.33,0,0,0,57,64.64l1.95-.43a4.42,4.42,0,0,1,1.32-3.78H70.74c.11,3.88.6,9.73,2.55,10.85l1-1.73c-.75-.5-1.41-4.69-1.55-9.4l.07,0a27.24,27.24,0,0,1,11-3.75A17,17,0,0,0,83,62.58l2-.21a16.29,16.29,0,0,1,1-6.1,15.9,15.9,0,0,1,6.71,1.54c-.81,1.82-1.82,4.65-1.42,6.79l2-.36c-.27-1.51.48-3.77,1.21-5.45A15.73,15.73,0,0,1,96.05,60a11.87,11.87,0,0,1,4.17,8.47,5.56,5.56,0,0,0-4.85,1.22l1.28,1.53a3.68,3.68,0,0,1,3.62-.67,25.91,25.91,0,0,1-2.11,8.94l-.39.81,5.64,13.22Zm18.71,0h-1.7l-4.25-13.48-1.16-.23c-1.54-.31-6.23-1.66-7.86-3.86l-1.27-3a30.29,30.29,0,0,0,2.1-8.55L114.51,87.7Z"/></svg>