<svg id="Graphics" xmlns="http://www.w3.org/2000/svg" viewBox="0 0 150 150"><defs><style>.cls-1{fill:#231f20;}</style></defs><path class="cls-1" d="M84.21,25.51A12.8,12.8,0,0,0,75,21.69a13,13,0,0,0-13,13v7c-.41.18-.82.37-1.22.57a14.47,14.47,0,0,0-10-3.38h-.23C43,39,35.22,50.15,28,62.24c-.5.84-.88,1.47-1.1,1.8a4.27,4.27,0,0,0,.24,5.23,3.94,3.94,0,0,0,3.18,1.46c2.29,0,5.61-1.41,11.19-3.93h0a37.38,37.38,0,0,0-1.08,8.86,38.72,38.72,0,0,0,3.36,15.78c-4.24,2.51-9,7.64-11.42,15.62-1.88,6.06-.16,9,1.62,10.33a6.35,6.35,0,0,0,4,1.25,18.44,18.44,0,0,0,7.78-2.24c4.1-2,8.63-5.24,11.29-9a33.3,33.3,0,0,0,7,3.57c1.4,7.15,7,14.82,7.73,15.78l3.12,4.16,3.22-4.07c.79-1,7-9.08,8.31-16.45a35.23,35.23,0,0,0,5.89-3.1c2.65,3.85,7.23,7.11,11.37,9.14a18.33,18.33,0,0,0,7.79,2.25,6.35,6.35,0,0,0,4-1.25c1.78-1.37,3.5-4.27,1.62-10.33-2.43-7.83-7-12.91-11.18-15.47a37,37,0,0,0,3.67-15.93,37.73,37.73,0,0,0-1.07-8.84c5.56,2.51,8.87,3.91,11.15,3.91a3.94,3.94,0,0,0,3.18-1.46,4.27,4.27,0,0,0,.24-5.23c-.22-.33-.6-1-1.1-1.8C114.78,50.15,107,39,99.33,38.86c-4.8,0-8.07,1.52-10.15,3.36L88,41.67v-7A12.79,12.79,0,0,0,84.21,25.51ZM48.5,77.82h7.44l7.79,13.5L59,98.93A30.49,30.49,0,0,1,48.5,77.82ZM82.33,48.06l.36.11a25.84,25.84,0,0,1,5,2.41l-4.83,7.71H67.17l-4.83-7.7a25.59,25.59,0,0,1,5-2.42A23.23,23.23,0,0,1,82.33,48.06Zm.51,41.29H67.21L59.4,75.82l7.81-13.53H82.84l7.81,13.53ZM59.09,52.94l4.64,7.39L55.94,73.82H48.5A30.27,30.27,0,0,1,59.09,52.94Zm8.09,40.41h15.7l4.66,7.56a24.79,24.79,0,0,1-13.08,3.86,23.41,23.41,0,0,1-12.17-3.5Zm23.61,5.21-4.47-7.24,7.79-13.5h7.43A30.31,30.31,0,0,1,90.79,98.56Zm10.76-24.74H94.11L86.33,60.33,91,52.94A30.31,30.31,0,0,1,101.55,73.82ZM70.07,34.65a5,5,0,0,1,5-5,5,5,0,0,1,5,5v4.62a30.27,30.27,0,0,0-9.93,0ZM39.52,58.91c7.61-11.34,10.63-12,11.23-12a9.82,9.82,0,0,1,2.72.29,37.53,37.53,0,0,0-7.36,8.66C44,56.86,41.67,57.93,39.52,58.91Zm9.08,46a27.24,27.24,0,0,1-8.84,5.37,25,25,0,0,1,4.39-8.55,14.34,14.34,0,0,1,3.57-3.42,36,36,0,0,0,3.18,3.86A12,12,0,0,1,48.6,104.89Zm26.53,12.22A37.7,37.7,0,0,1,73,112.73c.49,0,1,0,1.48,0,1,0,2-.06,3-.16A39.39,39.39,0,0,1,75.13,117.11Zm30.22-15.4a25,25,0,0,1,4.39,8.55,27.2,27.2,0,0,1-8.85-5.37,12,12,0,0,1-2.31-2.77,40.85,40.85,0,0,0,3.27-3.78A14.49,14.49,0,0,1,105.35,101.71ZM99.09,46.86h.16s2.32.11,7.64,7c1.27,1.64,2.51,3.39,3.64,5.1-2.14-1-4.4-2-6.56-3.09a37.2,37.2,0,0,0-7.39-8.7A10.12,10.12,0,0,1,99.09,46.86Z"/></svg>