<?xml version="1.0" encoding="UTF-8"?>
<svg id="Layer_2" data-name="Layer 2" xmlns="http://www.w3.org/2000/svg" viewBox="0 0 120 120">
  <defs>
    <style>
      .cls-1 {
        fill: none;
        stroke: #000;
        stroke-linecap: round;
        stroke-linejoin: round;
        stroke-width: 3px;
      }
    </style>
  </defs>
  <polygon class="cls-1" points="73.83 67.67 74.16 83.23 60.39 75.6 46.81 83.61 46.49 67.89 32.73 60.26 46.16 52.34 45.85 36.77 59.61 44.4 73.18 36.39 73.5 52.11 87.27 59.74 73.83 67.67"/>
  <polygon class="cls-1" points="100.49 19.65 100.49 45.66 105.69 45.66 105.69 34.14 110 34.14 110 85.38 105.69 85.38 105.69 74.33 100.49 74.33 100.49 100.34 74.16 100.43 74.16 105.6 85.71 105.6 85.71 109.9 34.28 109.9 34.28 105.6 45.38 105.6 45.38 100.43 19.5 100.34 19.5 73.87 14.32 73.87 14.32 85.38 10 85.38 10 34.14 14.32 34.14 14.32 45.2 19.5 45.2 19.5 19.65 45.61 19.57 45.61 14.4 34.06 14.4 34.06 10.1 85.48 10.1 85.48 14.4 74.39 14.4 74.39 19.57 100.49 19.65"/>
  <polygon class="cls-1" points="73.5 52.03 59.67 44.37 46.17 52.33 46.5 67.97 60.33 75.63 73.83 67.67 73.5 52.03"/>
  <polygon class="cls-1" points="81.11 48.21 59.7 35.88 38.59 47.68 38.89 71.79 60.31 84.12 81.41 72.32 81.11 48.21"/>
  <ellipse class="cls-1" cx="60" cy="60" rx="7.22" ry="7.19"/>
  <g>
    <path class="cls-1" d="m52.16,32.44c0-5.31,3.52-9.96,8.74-12.43,5.23,2.47,8.54,7.69,8.54,13"/>
    <path class="cls-1" d="m37.4,42.29c-3.13-4.3-3.03-10.12-.26-15.18,5.68-1.06,11.44,1.22,14.58,5.52"/>
    <path class="cls-1" d="m31.28,58.91c-5.07-1.64-8.42-6.41-9.16-12.13,3.97-4.19,9.97-5.72,15.05-4.07"/>
    <path class="cls-1" d="m36.12,75.95c-5.07,1.64-10.59-.26-14.56-4.45.74-5.72,4.7-10.47,9.77-12.11"/>
    <path class="cls-1" d="m50.08,86.89c-3.13,4.3-8.72,6-14.41,4.93-2.77-5.06-2.37-11.22.76-15.52"/>
    <path class="cls-1" d="m67.84,87.56c0,5.31-3.52,9.96-8.74,12.43-5.23-2.47-8.54-7.69-8.54-13"/>
    <path class="cls-1" d="m82.6,77.71c3.13,4.3,3.03,10.12.26,15.18-5.68,1.06-11.44-1.22-14.58-5.52"/>
    <path class="cls-1" d="m88.73,61.09c5.07,1.64,8.42,6.41,9.16,12.13-3.97,4.19-9.97,5.72-15.05,4.07"/>
    <path class="cls-1" d="m83.88,44.05c5.07-1.64,10.59.26,14.56,4.45-.74,5.72-4.7,10.47-9.77,12.11"/>
    <path class="cls-1" d="m69.92,33.11c3.13-4.3,8.72-6,14.41-4.93,2.77,5.06,2.37,11.22-.76,15.52"/>
  </g>
  <circle class="cls-1" cx="60" cy="60" r="28.44"/>
</svg>