<?xml version="1.0" encoding="UTF-8"?>
<svg id="Layer_2" data-name="Layer 2" xmlns="http://www.w3.org/2000/svg" viewBox="0 0 120 120">
  <defs>
    <style>
      .cls-1 {
        fill: none;
        stroke: #000;
        stroke-linecap: round;
        stroke-linejoin: round;
        stroke-width: 3px;
      }
    </style>
  </defs>
  <polygon class="cls-1" points="60.07 51.03 71.93 51.03 66 61.84 60.07 72.66 54.13 61.84 48.2 51.03 60.07 51.03"/>
  <polygon class="cls-1" points="60 44.07 84.16 44.07 72.08 66.57 60 89.07 47.92 66.57 35.84 44.07 60 44.07"/>
  <circle class="cls-1" cx="60" cy="60" r="29.07"/>
  <polygon class="cls-1" points="100.49 19.57 100.49 45.63 105.69 45.63 105.69 34.09 110 34.09 110 85.44 105.69 85.44 105.69 74.36 100.49 74.36 100.49 100.43 74.16 100.51 74.16 105.69 85.71 105.69 85.71 110 34.28 110 34.28 105.69 45.38 105.69 45.38 100.51 19.5 100.43 19.5 73.9 14.31 73.9 14.31 85.44 10 85.44 10 34.09 14.31 34.09 14.31 45.17 19.5 45.17 19.5 19.57 45.61 19.49 45.61 14.3 34.05 14.3 34.05 10 85.48 10 85.48 14.3 74.39 14.3 74.39 19.49 100.49 19.57"/>
  <g>
    <path class="cls-1" d="m48.99,32.12c0-6.19,4.48-11.6,11.14-14.48,6.65,2.88,10.87,8.96,10.87,15.15"/>
    <path class="cls-1" d="m32.5,48.07c-4.38-4.38-5.04-11.37-2.36-18.11,6.74-2.67,14.02-1.36,18.4,3.02"/>
    <path class="cls-1" d="m32.12,71.01c-6.19,0-11.6-4.48-14.48-11.14,2.88-6.65,8.96-10.87,15.15-10.87"/>
    <path class="cls-1" d="m48.07,87.5c-4.38,4.38-11.37,5.04-18.11,2.36-2.67-6.74-1.36-14.02,3.02-18.4"/>
    <path class="cls-1" d="m71.01,87.88c0,6.19-4.48,11.6-11.14,14.48-6.65-2.88-10.87-8.96-10.87-15.15"/>
    <path class="cls-1" d="m87.5,71.93c4.38,4.38,5.04,11.37,2.36,18.11-6.74,2.67-14.02,1.36-18.4-3.02"/>
    <path class="cls-1" d="m87.88,48.99c6.19,0,11.6,4.48,14.48,11.14-2.88,6.65-8.96,10.87-15.15,10.87"/>
    <path class="cls-1" d="m71.93,32.5c4.38-4.38,11.37-5.04,18.11-2.36,2.67,6.74,1.36,14.02-3.02,18.4"/>
  </g>
  <circle class="cls-1" cx="60" cy="58.55" r="14.11"/>
</svg>