<?xml version="1.0" encoding="UTF-8"?>
<svg id="Layer_2" data-name="Layer 2" xmlns="http://www.w3.org/2000/svg" viewBox="0 0 120 120">
  <defs>
    <style>
      .cls-1 {
        fill: none;
        stroke: #000;
        stroke-linecap: round;
        stroke-linejoin: round;
        stroke-width: 3px;
      }
    </style>
  </defs>
  <polygon class="cls-1" points="100.39 19.57 100.39 45.63 105.58 45.63 105.58 34.09 109.9 34.09 109.9 85.44 105.58 85.44 105.58 74.36 100.39 74.36 100.39 100.43 74.05 100.51 74.05 105.69 85.61 105.69 85.61 110 34.18 110 34.18 105.69 45.28 105.69 45.28 100.51 19.4 100.43 19.4 73.9 14.21 73.9 14.21 85.44 9.9 85.44 9.9 34.09 14.21 34.09 14.21 45.17 19.4 45.17 19.4 19.57 45.5 19.49 45.5 14.3 33.95 14.3 33.95 10 85.38 10 85.38 14.3 74.28 14.3 74.28 19.49 100.39 19.57"/>
  <g>
    <ellipse class="cls-1" cx="59.81" cy="60.25" rx="27.46" ry="27.43"/>
    <path class="cls-1" d="m49.71,34.3c0-6.23,4.4-12.51,10.91-15.54,6.52,3.09,10.91,8.9,10.91,15.54"/>
    <path class="cls-1" d="m34.61,49.22c-4.71-4.7-5.71-11.91-3.29-18.7,6.8-2.42,14.09-.64,18.8,4.06"/>
    <path class="cls-1" d="m34.27,70.66c-9.88,0-13.92-5.38-15.94-10.54,3.09-6.51,9.62-10.9,16.28-10.9"/>
    <path class="cls-1" d="m48.92,85.43c-4.71,4.7-11.79,5.7-18.34,3.52-2.39-6.33-.82-12.82,3.7-18.29"/>
    <path class="cls-1" d="m70.19,85.7c0,6.65-4.39,12.46-10.91,15.54-6.52-3.09-10.36-9.17-10.36-15.82"/>
    <path class="cls-1" d="m85.12,71.17c4.86,4.54,6.1,11.72,3.9,18.58-6.71,2.64-16.08.3-18.82-4.05"/>
    <path class="cls-1" d="m85.36,50.15c6.65,0,13.01,4.39,16.1,10.9-3.09,6.51-9.69,10.11-16.34,10.11"/>
    <path class="cls-1" d="m70.77,35.16c4.71-4.7,11.93-5.71,18.72-3.28,2.43,6.79.57,13.58-4.14,18.28"/>
    <g>
      <polygon class="cls-1" points="54.64 65.65 38.87 65.65 46.75 52.49 54.64 39.34 62.52 52.49 70.41 65.65 54.64 65.65"/>
      <polygon class="cls-1" points="64.57 65.65 48.85 65.65 56.71 52.49 64.57 39.34 72.43 52.49 80.29 65.65 64.57 65.65"/>
      <polyline class="cls-1" points="48.85 65.65 43.87 74.24 59.59 74.24 75.32 74.24 70.41 65.65"/>
      <polygon class="cls-1" points="59.99 47.95 80.92 48.05 70.41 66.05 59.9 84.05 49.38 66.05 38.97 48.05 59.99 47.95"/>
    </g>
  </g>
</svg>