<?xml version="1.0" encoding="UTF-8"?>
<svg id="Layer_2" data-name="Layer 2" xmlns="http://www.w3.org/2000/svg" viewBox="0 0 120 120">
  <defs>
    <style>
      .cls-1 {
        stroke-width: 2px;
      }

      .cls-1, .cls-2 {
        fill: none;
        stroke: #000;
        stroke-linecap: round;
        stroke-linejoin: round;
      }

      .cls-2 {
        stroke-width: 3px;
      }
    </style>
  </defs>
  <g>
    <polygon class="cls-1" points="60.08 54.16 70.58 54.16 65.33 62.95 60.08 71.74 54.82 62.95 49.57 54.16 60.08 54.16"/>
    <polygon class="cls-1" points="60.08 65.84 49.57 65.84 54.82 57.05 60.08 48.26 65.33 57.05 70.58 65.84 60.08 65.84"/>
  </g>
  <ellipse class="cls-2" cx="60" cy="60.22" rx="24.79" ry="24.76"/>
  <path class="cls-2" d="m50.88,36.8c0-5.62,3.97-11.3,9.85-14.03,5.89,2.79,9.85,8.03,9.85,14.03"/>
  <path class="cls-2" d="m37.24,50.27c-4.25-4.24-5.16-10.75-2.97-16.88,6.14-2.19,12.72-.58,16.97,3.66"/>
  <path class="cls-2" d="m36.94,69.63c-8.92,0-12.57-4.86-14.39-9.52,2.79-5.88,8.69-9.84,14.69-9.84"/>
  <path class="cls-2" d="m50.16,82.96c-4.25,4.24-10.65,5.15-16.56,3.18-2.16-5.72-.74-11.58,3.34-16.51"/>
  <path class="cls-2" d="m69.37,83.2c0,6-3.97,11.25-9.85,14.03-5.89-2.79-9.36-8.28-9.36-14.28"/>
  <path class="cls-2" d="m82.85,70.08c4.38,4.1,5.51,10.58,3.52,16.78-6.06,2.39-14.52.28-16.99-3.65"/>
  <path class="cls-2" d="m83.06,51.11c6.01,0,11.75,3.96,14.54,9.84-2.79,5.88-8.75,9.13-14.76,9.13"/>
  <path class="cls-2" d="m69.9,37.58c4.25-4.24,10.77-5.15,16.9-2.97,2.19,6.13.51,12.26-3.74,16.5"/>
  <polygon class="cls-2" points="59.96 72.22 38.42 72.12 49.24 53.79 60.05 35.46 70.86 53.79 81.58 72.12 59.96 72.22"/>
  <ellipse class="cls-2" cx="60.08" cy="60" rx="37.53" ry="37.48"/>
  <polygon class="cls-2" points="100.57 19.57 100.57 45.63 105.76 45.63 105.76 34.09 110.08 34.09 110.08 85.44 105.76 85.44 105.76 74.36 100.57 74.36 100.57 100.43 74.23 100.51 74.23 105.69 85.79 105.69 85.79 110 34.36 110 34.36 105.69 45.46 105.69 45.46 100.51 19.58 100.43 19.58 73.9 14.39 73.9 14.39 85.44 10.08 85.44 10.08 34.09 14.39 34.09 14.39 45.17 19.58 45.17 19.58 19.57 45.68 19.49 45.68 14.3 34.13 14.3 34.13 10 85.56 10 85.56 14.3 74.46 14.3 74.46 19.49 100.57 19.57"/>
</svg>