<?xml version="1.0" encoding="UTF-8"?>
<svg id="Layer_2" data-name="Layer 2" xmlns="http://www.w3.org/2000/svg" viewBox="0 0 120 120">
  <defs>
    <style>
      .cls-1 {
        fill: none;
        stroke: #000;
        stroke-linecap: round;
        stroke-linejoin: round;
        stroke-width: 3px;
      }
    </style>
  </defs>
  <polygon class="cls-1" points="100.93 19.57 100.93 45.63 106.12 45.63 106.12 34.09 110.43 34.09 110.43 85.44 106.12 85.44 106.12 74.36 100.93 74.36 100.93 100.43 74.59 100.51 74.59 105.69 86.15 105.69 86.15 110 34.72 110 34.72 105.69 45.82 105.69 45.82 100.51 19.94 100.43 19.94 73.9 14.75 73.9 14.75 85.44 10.43 85.44 10.43 34.09 14.75 34.09 14.75 45.17 19.94 45.17 19.94 19.57 46.04 19.49 46.04 14.3 34.49 14.3 34.49 10 85.92 10 85.92 14.3 74.82 14.3 74.82 19.49 100.93 19.57"/>
  <path class="cls-1" d="m51.41,30.39c0-4.68,3.61-8.76,8.97-10.94,5.36,2.19,8.97,6.26,8.97,10.94"/>
  <path class="cls-1" d="m35.85,41.31c-2.75-3.79-2.23-9.21.82-14.13,5.62-1.38,10.94-.21,13.69,3.58"/>
  <path class="cls-1" d="m29.68,59.29c-4.45-1.45-7.21-6.14-7.64-11.91,3.74-4.42,8.73-6.6,13.18-5.15"/>
  <path class="cls-1" d="m35.25,77.47c-4.45,1.45-9.45-.73-13.18-5.15.42-5.77,3.19-10.47,7.64-11.91"/>
  <path class="cls-1" d="m50.45,88.9c-2.75,3.79-8.07,4.96-13.69,3.58-3.05-4.92-3.58-10.34-.82-14.13"/>
  <path class="cls-1" d="m69.46,89.21c0,4.68-3.61,8.76-8.97,10.94-5.36-2.19-8.97-6.26-8.97-10.94"/>
  <path class="cls-1" d="m85.02,78.29c2.75,3.79,2.23,9.21-.82,14.13-5.62,1.38-10.94.21-13.69-3.58"/>
  <path class="cls-1" d="m91.19,60.31c4.45,1.45,7.21,6.14,7.64,11.91-3.74,4.42-8.73,6.6-13.18,5.15"/>
  <path class="cls-1" d="m85.62,42.13c4.45-1.45,9.45.73,13.18,5.15-.42,5.77-3.19,10.47-7.64,11.91"/>
  <path class="cls-1" d="m70.42,30.71c2.75-3.79,8.07-4.96,13.69-3.58,3.05,4.92,3.58,10.34.82,14.13"/>
  <ellipse class="cls-1" cx="60.43" cy="59.8" rx="30.48" ry="30.44"/>
  <g>
    <polygon class="cls-1" points="60.42 51.71 72.94 51.71 72.94 51.71 60.42 74.96 47.9 51.71 47.9 51.71 60.42 51.71"/>
    <polygon class="cls-1" points="60.45 67.89 47.93 67.89 54.19 57.19 60.45 44.64 66.71 57.19 72.97 67.89 60.45 67.89"/>
  </g>
  <ellipse class="cls-1" cx="60.43" cy="59.8" rx="3.67" ry="3.67"/>
  <ellipse class="cls-1" cx="60.43" cy="59.8" rx="16.49" ry="16.47"/>
  <g>
    <path class="cls-1" d="m54.32,44.37c0-3.99,2.64-7.48,6.55-9.33,3.92,1.85,6.55,5.34,6.55,9.33"/>
    <path class="cls-1" d="m45.25,53.33c-2.83-2.82-3.43-7.15-1.98-11.23,4.08-1.45,8.42-.85,11.24,1.97"/>
    <path class="cls-1" d="m44.82,66.42c-4,0-7.49-2.63-9.35-6.54,1.86-3.91,5.35-6.54,9.35-6.54"/>
    <path class="cls-1" d="m53.82,74.97c-2.83,2.82-7.06,3.53-11,2.22-1.31-3.93-.6-8.16,2.22-10.98"/>
    <path class="cls-1" d="m66.62,75.24c0,3.99-2.64,7.48-6.55,9.33-3.92-1.85-6.55-5.34-6.55-9.33"/>
    <path class="cls-1" d="m75.58,66.51c2.92,2.73,3.66,7.04,2.34,11.16-4.03,1.59-8.39,1.12-11.3-1.61"/>
    <path class="cls-1" d="m76.05,53.89c4,0,7.49,2.63,9.35,6.54-1.86,3.91-5.35,6.54-9.35,6.54"/>
    <path class="cls-1" d="m67.07,44.72c2.75-2.38,7.06-3.27,11.14-1.81,1.46,4.08.85,8.41-1.98,11.23"/>
  </g>
</svg>