<?xml version="1.0" encoding="UTF-8"?>
<svg id="Layer_2" data-name="Layer 2" xmlns="http://www.w3.org/2000/svg" viewBox="0 0 120 120">
  <defs>
    <style>
      .cls-1 {
        fill: none;
        stroke: #000;
        stroke-linecap: round;
        stroke-linejoin: round;
        stroke-width: 3px;
      }
    </style>
  </defs>
  <g>
    <ellipse class="cls-1" cx="60.79" cy="60.1" rx="21.91" ry="21.88"/>
    <path class="cls-1" d="m52.65,39.78c0-5.3,2.72-10.22,7.92-12.68,5.2,2.46,8.53,7.38,8.53,12.68"/>
    <path class="cls-1" d="m40.47,51.62c-3.75-3.75-5.21-9.72-3.27-15.13,5.42-1.93,11.7-.46,15.45,3.29"/>
    <path class="cls-1" d="m40.47,68.3c-5.31,0-11.17-3-13.63-8.2,2.47-5.2,8.32-8.48,13.63-8.48"/>
    <path class="cls-1" d="m51.22,80.15c-3.75,3.75-9.38,4.68-14.61,2.95-1.74-5.22.02-11.27,3.78-15.02"/>
    <path class="cls-1" d="m67.83,80.82c0,5.3-3.12,9.62-8.32,12.08-5.2-2.46-8.71-7.1-8.71-12.4"/>
    <path class="cls-1" d="m80.74,69.53c3.87,3.62,4.24,8.72,2.49,14.2-5.36,2.11-11.52.72-15.4-2.91"/>
    <path class="cls-1" d="m81.24,52.23c5.31,0,9.46,3.42,11.92,8.61-2.47,5.2-7.11,8.69-12.42,8.69"/>
    <path class="cls-1" d="m69.1,39.78c3.75-3.75,9.09-4.15,14.51-2.22,1.94,5.41,1.38,10.91-2.38,14.66"/>
  </g>
  <polygon class="cls-1" points="100.67 19.57 100.67 45.63 105.87 45.63 105.87 34.09 110.18 34.09 110.18 85.44 105.87 85.44 105.87 74.36 100.67 74.36 100.67 100.43 74.34 100.51 74.34 105.69 85.89 105.69 85.89 110 34.46 110 34.46 105.69 45.56 105.69 45.56 100.51 19.68 100.43 19.68 73.9 14.5 73.9 14.5 85.44 10.18 85.44 10.18 34.09 14.5 34.09 14.5 45.17 19.68 45.17 19.68 19.57 45.79 19.49 45.79 14.3 34.24 14.3 34.24 10 85.66 10 85.66 14.3 74.57 14.3 74.57 19.49 100.67 19.57"/>
  <ellipse class="cls-1" cx="60.18" cy="60" rx="40.48" ry="40.43"/>
  <ellipse class="cls-1" cx="60.18" cy="60" rx="34.26" ry="34.22"/>
  <g>
    <polygon class="cls-1" points="65.25 52.32 78.77 60.14 65.3 67.79 51.83 75.45 51.78 59.97 51.72 44.5 65.25 52.32"/>
    <polygon class="cls-1" points="56.33 67.68 42.81 59.86 56.28 52.21 69.75 44.55 69.8 60.03 69.86 75.5 56.33 67.68"/>
  </g>
</svg>