<?xml version="1.0" encoding="UTF-8"?>
<svg id="Layer_2" data-name="Layer 2" xmlns="http://www.w3.org/2000/svg" viewBox="0 0 120 120">
  <defs>
    <style>
      .cls-1 {
        fill: none;
        stroke: #000;
        stroke-linecap: round;
        stroke-linejoin: round;
        stroke-width: 3px;
      }
    </style>
  </defs>
  <polygon class="cls-1" points="60.9 44.1 83.9 44.1 60.9 85.81 37.9 44.1 60.9 44.1"/>
  <path class="cls-1" d="m60.63,85.81c-15.06,0-27.32-12.26-27.32-27.32s12.26-27.32,27.32-27.32,27.32,12.26,27.32,27.32-12.26,27.32-27.32,27.32Z"/>
  <polygon class="cls-1" points="99.99 20.02 99.99 45.79 105.12 45.79 105.12 34.38 109.38 34.38 109.38 85.15 105.12 85.15 105.12 74.2 99.99 74.2 99.99 99.98 73.98 100.06 73.98 105.18 85.39 105.18 85.39 109.44 34.6 109.44 34.6 105.18 45.57 105.18 45.57 100.06 20.01 99.98 20.01 73.75 14.88 73.75 14.88 85.15 10.62 85.15 10.62 34.38 14.88 34.38 14.88 45.33 20.01 45.33 20.01 20.02 45.79 19.94 45.79 14.81 34.38 14.81 34.38 10.56 85.17 10.56 85.17 14.81 74.21 14.81 74.21 19.94 99.99 20.02"/>
  <path class="cls-1" d="m50.1,31.81c0-5.92,4.29-11.1,10.66-13.85,6.37,2.75,10.4,8.57,10.4,14.49"/>
  <path class="cls-1" d="m34.32,47.07c-4.19-4.19-4.82-10.88-2.26-17.33,6.45-2.56,13.42-1.3,17.6,2.89"/>
  <path class="cls-1" d="m33.96,69.02c-5.92,0-11.1-4.29-13.85-10.66,2.75-6.37,8.57-10.4,14.49-10.4"/>
  <path class="cls-1" d="m49.22,84.8c-4.19,4.19-10.88,4.82-17.33,2.26-2.56-6.45-1.3-13.42,2.89-17.6"/>
  <path class="cls-1" d="m71.16,85.17c0,5.92-4.29,11.1-10.66,13.85-6.37-2.75-10.4-8.57-10.4-14.49"/>
  <path class="cls-1" d="m86.94,69.91c4.19,4.19,4.82,10.88,2.26,17.33-6.45,2.56-13.42,1.3-17.6-2.89"/>
  <path class="cls-1" d="m87.31,47.96c5.92,0,11.1,4.29,13.85,10.66-2.75,6.37-8.57,10.4-14.49,10.4"/>
  <path class="cls-1" d="m72.05,32.18c4.19-4.19,10.88-4.82,17.33-2.26,2.56,6.45,1.3,13.42-2.89,17.6"/>
  <polygon class="cls-1" points="60.9 48.34 75.05 48.34 60.9 74.29 46.75 48.34 60.9 48.34"/>
  <polygon class="cls-1" points="65.4 53.41 60.9 63.17 56.41 53.41 65.4 53.41"/>
</svg>