<?xml version="1.0" encoding="UTF-8"?>
<svg id="Layer_2" data-name="Layer 2" xmlns="http://www.w3.org/2000/svg" viewBox="0 0 120 120">
  <defs>
    <style>
      .cls-1 {
        fill: none;
        stroke: #000;
        stroke-linecap: round;
        stroke-linejoin: round;
        stroke-width: 3px;
      }
    </style>
  </defs>
  <polygon class="cls-1" points="100.49 19.57 100.49 45.63 105.69 45.63 105.69 34.09 110 34.09 110 85.44 105.69 85.44 105.69 74.36 100.49 74.36 100.49 100.43 74.16 100.51 74.16 105.69 85.71 105.69 85.71 110 34.28 110 34.28 105.69 45.38 105.69 45.38 100.51 19.5 100.43 19.5 73.9 14.31 73.9 14.31 85.44 10 85.44 10 34.09 14.31 34.09 14.31 45.17 19.5 45.17 19.5 19.57 45.61 19.49 45.61 14.3 34.05 14.3 34.05 10 85.48 10 85.48 14.3 74.39 14.3 74.39 19.49 100.49 19.57"/>
  <ellipse class="cls-1" cx="60" cy="60" rx="30.07" ry="30.03"/>
  <g>
    <path class="cls-1" d="m49.21,31.96c0-7.28,4.44-13.74,11.58-17.12,7.14,3.38,11.39,10.42,11.39,17.7"/>
    <path class="cls-1" d="m32.31,48.2c-5.15-5.15-6.26-13.04-3.6-20.47,7.44-2.65,15.35-1.55,20.5,3.6"/>
    <path class="cls-1" d="m31.53,72.07c-7.29,0-13.66-4.8-17.04-11.93,3.38-7.13,9.76-11.93,17.04-11.93"/>
    <path class="cls-1" d="m47.95,87.66c-5.15,5.15-12.88,6.43-20.05,4.04-2.39-7.16-1.1-14.88,4.05-20.03"/>
    <path class="cls-1" d="m71.28,88.14c0,7.28-4.81,13.64-11.95,17.02-7.14-3.38-11.38-10.23-11.38-17.5"/>
    <path class="cls-1" d="m87.25,72.71c5.32,4.98,7.05,12.34,4.63,19.86-7.35,2.89-15.29.54-20.61-4.43"/>
    <path class="cls-1" d="m88.07,49.22c7.29,0,14.06,4.8,17.44,11.93-3.38,7.13-10.98,11.56-18.26,11.56"/>
    <path class="cls-1" d="m72.18,32.54c5.15-5.15,12.79-5.98,20.23-3.33,2.66,7.43.81,14.87-4.34,20.01"/>
  </g>
  <g>
    <polygon class="cls-1" points="60 45.48 85.56 45.48 72.78 67.34 60 89.2 47.22 67.34 34.44 45.48 60 45.48"/>
    <polygon class="cls-1" points="60 74.52 34.44 74.52 47.22 52.66 60 30.8 72.78 52.66 85.56 74.52 60 74.52"/>
    <ellipse class="cls-1" cx="59.72" cy="60.15" rx="7.5" ry="7.49"/>
  </g>
  <path class="cls-1" d="m57.17,52.88c0-2.09,1.14-3.91,2.83-4.88,1.7.97,2.84,2.8,2.84,4.88"/>
  <path class="cls-1" d="m52.77,56.81c-1.48-1.48-1.96-3.58-1.46-5.45,1.89-.51,3.99-.03,5.46,1.44"/>
  <path class="cls-1" d="m52.44,62.7c-2.09,0-3.91-1.14-4.88-2.83.97-1.7,2.8-2.84,4.88-2.84"/>
  <path class="cls-1" d="m56.38,67.1c-1.48,1.48-3.58,1.96-5.45,1.46-.51-1.89-.03-3.99,1.44-5.46"/>
  <path class="cls-1" d="m62.26,67.42c0,2.09-1.14,3.91-2.83,4.88-1.7-.97-2.84-2.8-2.84-4.88"/>
  <path class="cls-1" d="m66.66,63.49c1.48,1.48,1.96,3.58,1.46,5.45-1.89.51-3.99.03-5.46-1.44"/>
  <path class="cls-1" d="m66.99,57.6c2.09,0,3.91,1.14,4.88,2.83-.97,1.7-2.8,2.84-4.88,2.84"/>
  <path class="cls-1" d="m63.06,53.21c1.48-1.48,3.58-1.96,5.45-1.46.51,1.89.03,3.99-1.44,5.46"/>
</svg>