<?xml version="1.0" encoding="UTF-8"?>
<svg id="Layer_2" data-name="Layer 2" xmlns="http://www.w3.org/2000/svg" viewBox="0 0 120 120">
  <defs>
    <style>
      .cls-1 {
        stroke-width: 2px;
      }

      .cls-1, .cls-2 {
        fill: none;
        stroke: #000;
        stroke-linecap: round;
        stroke-linejoin: round;
      }

      .cls-2 {
        stroke-width: 3px;
      }
    </style>
  </defs>
  <polygon class="cls-2" points="60 51.97 75.18 51.97 67.59 64.39 60 76.8 52.41 64.39 44.82 51.97 60 51.97"/>
  <polygon class="cls-2" points="100.49 19.57 100.49 45.63 105.69 45.63 105.69 34.09 110 34.09 110 85.44 105.69 85.44 105.69 74.36 100.49 74.36 100.49 100.43 74.16 100.51 74.16 105.69 85.71 105.69 85.71 110 34.28 110 34.28 105.69 45.38 105.69 45.38 100.51 19.5 100.43 19.5 73.9 14.32 73.9 14.32 85.44 10 85.44 10 34.09 14.32 34.09 14.32 45.17 19.5 45.17 19.5 19.57 45.61 19.49 45.61 14.3 34.06 14.3 34.06 10 85.48 10 85.48 14.3 74.39 14.3 74.39 19.49 100.49 19.57"/>
  <g>
    <ellipse class="cls-2" cx="60" cy="60" rx="17.16" ry="17.13"/>
    <path class="cls-2" d="m53.62,43.86c0-3.58,2.6-6.72,6.46-8.38,3.86,1.66,6.84,5.02,6.84,8.6"/>
    <path class="cls-2" d="m44.06,53.09c-2.54-2.53-2.92-6.58-1.37-10.49,3.91-1.55,8.39-1.28,10.93,1.25"/>
    <path class="cls-2" d="m43.84,66.37c-3.59,0-6.73-2.59-8.39-6.45,1.67-3.85,5.15-6.56,8.73-6.56"/>
    <path class="cls-2" d="m53.08,75.92c-2.54,2.53-6.59,2.92-10.5,1.37-1.55-3.9-1.05-8.38,1.49-10.92"/>
    <path class="cls-2" d="m66.45,75.88c0,3.58-2.67,6.98-6.53,8.64-3.86-1.66-6.5-5.07-6.5-8.65"/>
    <path class="cls-2" d="m75.94,66.91c2.54,2.53,2.92,6.58,1.37,10.49-3.91,1.55-8.32,1.02-10.86-1.51"/>
    <path class="cls-2" d="m76.16,53.63c3.59,0,6.73,2.59,8.39,6.45-1.67,3.85-5.03,6.83-8.62,6.83"/>
    <path class="cls-2" d="m66.92,44.08c2.54-2.53,6.59-2.92,10.5-1.37,1.55,3.9,1.28,8.38-1.26,10.92"/>
  </g>
  <polygon class="cls-1" points="63.68 59.42 63.68 59.42 59.9 65.42 59.9 65.42 59.9 65.42 56.32 59.43 63.68 59.42"/>
  <g>
    <path class="cls-2" d="m52.63,34.07c0-5,3.31-9.37,8.22-11.69,4.91,2.32,8.03,7.23,8.03,12.23"/>
    <path class="cls-2" d="m38.8,43.36c-2.94-4.04-2.83-9.53-.22-14.29,5.34-1.01,10.75,1.13,13.68,5.17"/>
    <path class="cls-2" d="m33.07,59c-4.75-1.54-7.89-6.04-8.58-11.43,3.73-3.96,9.36-5.4,14.11-3.86"/>
    <path class="cls-2" d="m37.62,75.02c-4.75,1.54-9.93-.25-13.66-4.21.69-5.39,4.4-9.87,9.15-11.42"/>
    <path class="cls-2" d="m50.72,85.31c-2.94,4.04-8.19,5.63-13.53,4.62-2.61-4.77-2.25-10.57.69-14.61"/>
    <path class="cls-2" d="m67.37,85.93c0,5-3.31,9.37-8.22,11.69-4.91-2.32-8.03-7.23-8.03-12.23"/>
    <path class="cls-2" d="m81.2,76.64c2.94,4.04,2.83,9.53.22,14.29-5.34,1.01-10.75-1.13-13.68-5.17"/>
    <path class="cls-2" d="m86.94,61c4.75,1.54,7.89,6.04,8.58,11.43-3.73,3.96-9.36,5.4-14.11,3.86"/>
    <path class="cls-2" d="m82.38,44.98c4.75-1.54,9.93.25,13.66,4.21-.69,5.39-4.4,9.87-9.15,11.42"/>
    <path class="cls-2" d="m69.28,34.69c2.94-4.04,8.19-5.63,13.53-4.62,2.61,4.77,2.25,10.57-.69,14.61"/>
    <ellipse class="cls-2" cx="60" cy="60" rx="26.97" ry="26.88"/>
  </g>
  <polygon class="cls-1" points="60.04 65.68 53.16 65.54 53.16 65.54 60.04 52.02 66.84 65.68 66.84 65.68 60.04 65.68"/>
  <circle class="cls-2" cx="60" cy="60" r="38.06"/>
</svg>