<?xml version="1.0" encoding="UTF-8"?>
<svg id="Layer_2" data-name="Layer 2" xmlns="http://www.w3.org/2000/svg" viewBox="0 0 120 120">
  <defs>
    <style>
      .cls-1 {
        fill: none;
        stroke: #000;
        stroke-linecap: round;
        stroke-linejoin: round;
        stroke-width: 3px;
      }
    </style>
  </defs>
  <g>
    <polygon class="cls-1" points="60.07 49.25 78.97 49.25 69.52 65.43 60.07 81.62 50.62 65.43 41.17 49.25 60.07 49.25"/>
    <polygon class="cls-1" points="60.07 70.75 41.17 70.75 50.62 54.57 60.07 38.38 69.52 54.57 78.97 70.75 60.07 70.75"/>
  </g>
  <circle class="cls-1" cx="60.07" cy="60" r="28.64"/>
  <polygon class="cls-1" points="100.44 19.57 100.44 45.63 105.62 45.63 105.62 34.09 109.93 34.09 109.93 85.44 105.62 85.44 105.62 74.36 100.44 74.36 100.44 100.43 74.14 100.51 74.14 105.69 85.68 105.69 85.68 110 34.32 110 34.32 105.69 45.4 105.69 45.4 100.51 19.56 100.43 19.56 73.9 14.38 73.9 14.38 85.44 10.07 85.44 10.07 34.09 14.38 34.09 14.38 45.17 19.56 45.17 19.56 19.57 45.63 19.49 45.63 14.3 34.09 14.3 34.09 10 85.45 10 85.45 14.3 74.37 14.3 74.37 19.49 100.44 19.57"/>
  <g>
    <path class="cls-1" d="m49.08,33.54c0-5.99,4.67-11.75,11.11-14.53,6.44,2.78,10.86,8.54,10.86,14.53"/>
    <path class="cls-1" d="m33.56,49.14c-4.24-4.24-4.97-11.69-2.39-18.21,6.52-2.59,13.67-1.62,17.91,2.62"/>
    <path class="cls-1" d="m33.09,70.65c-5.99,0-11.23-4.34-14.01-10.78,2.78-6.44,8.11-10.63,14.1-10.63"/>
    <path class="cls-1" d="m48.52,86.6c-4.24,4.24-11.01,4.87-17.53,2.29-2.59-6.52-1.57-13.57,2.66-17.8"/>
    <path class="cls-1" d="m70.85,86.54c0,5.99-4.47,11.67-10.91,14.45-6.44-2.78-10.96-8.59-10.96-14.58"/>
    <path class="cls-1" d="m86.67,71.55c4.24,4.24,4.87,11.01,2.29,17.53-6.52,2.59-13.88,1.7-18.11-2.53"/>
    <path class="cls-1" d="m87.04,49.35c5.99,0,11.23,4.34,14.01,10.78-2.78,6.44-8.66,10.96-14.65,10.96"/>
    <path class="cls-1" d="m71.16,33.4c4.24-4.24,11.46-4.87,17.98-2.29,2.59,6.52,1.71,13.9-2.52,18.14"/>
  </g>
</svg>