<?xml version="1.0" encoding="UTF-8"?>
<svg id="Layer_2" data-name="Layer 2" xmlns="http://www.w3.org/2000/svg" viewBox="0 0 120 120">
  <defs>
    <style>
      .cls-1 {
        stroke-width: 2px;
      }

      .cls-1, .cls-2 {
        fill: none;
        stroke: #000;
        stroke-linecap: round;
        stroke-linejoin: round;
      }

      .cls-2 {
        stroke-width: 3px;
      }
    </style>
  </defs>
  <g>
    <polygon class="cls-2" points="100.49 19.57 100.49 45.63 105.69 45.63 105.69 34.09 110 34.09 110 85.44 105.69 85.44 105.69 74.36 100.49 74.36 100.49 100.43 74.16 100.51 74.16 105.69 85.71 105.69 85.71 110 34.28 110 34.28 105.69 45.38 105.69 45.38 100.51 19.5 100.43 19.5 73.9 14.31 73.9 14.31 85.44 10 85.44 10 34.09 14.31 34.09 14.31 45.17 19.5 45.17 19.5 19.57 45.61 19.49 45.61 14.3 34.05 14.3 34.05 10 85.48 10 85.48 14.3 74.39 14.3 74.39 19.49 100.49 19.57"/>
    <path class="cls-2" d="m54.09,31.87c0-2.67,2.58-3.38,6.09-4.2,3.51.82,6.06,1.65,5.88,4.17"/>
    <path class="cls-2" d="m41.07,38.59c-1.33-2.31.54-4.21,3.17-6.68,3.45-1.04,6.07-1.6,7.18.68"/>
    <path class="cls-2" d="m33.16,50.9c-2.31-1.33-1.64-3.92-.6-7.36,2.47-2.63,4.46-4.42,6.56-3"/>
    <path class="cls-2" d="m32.48,65.52c-2.67,0-3.38-2.57-4.2-6.08.82-3.51,1.65-6.05,4.18-5.87"/>
    <path class="cls-2" d="m39.2,78.52c-2.31,1.33-4.22-.54-6.68-3.17-1.04-3.45-1.6-6.06.68-7.17"/>
    <path class="cls-2" d="m51.54,86.41c-1.33,2.31-3.92,1.64-7.37.6-2.63-2.46-4.42-4.45-3-6.55"/>
    <path class="cls-2" d="m66.17,87.1c0,2.67-2.58,3.38-6.09,4.2-3.51-.82-6.06-1.65-5.88-4.17"/>
    <path class="cls-2" d="m79.19,80.38c1.33,2.31-.54,4.21-3.17,6.68-3.45,1.04-6.07,1.6-7.18-.68"/>
    <path class="cls-2" d="m87.09,68.07c2.31,1.33,1.64,3.92.6,7.36-2.47,2.63-4.46,4.42-6.56,3"/>
    <path class="cls-2" d="m87.78,53.45c2.67,0,3.38,2.57,4.2,6.08-.82,3.51-1.65,6.05-4.18,5.87"/>
    <path class="cls-2" d="m81.05,40.46c2.31-1.33,4.22.54,6.68,3.17,1.04,3.45,1.6,6.06-.68,7.17"/>
    <path class="cls-2" d="m68.72,32.56c1.33-2.31,3.92-1.64,7.37-.6,2.63,2.46,4.42,4.45,3,6.55"/>
    <ellipse class="cls-2" cx="60.12" cy="59.62" rx="28.03" ry="28.25"/>
    <ellipse class="cls-2" cx="60.12" cy="59.62" rx="34.92" ry="35.19"/>
  </g>
  <g>
    <polygon class="cls-1" points="46.31 66.56 43.14 72.23 50.6 72.23 48.77 69.81 46.31 66.56"/>
    <polygon class="cls-1" points="66.51 53.44 66.43 53.3 66.36 53.44 66.51 53.44"/>
    <polygon class="cls-1" points="41.06 59.62 41.32 59.96 46.28 53.44 36.39 53.44 41.32 59.97 41.32 59.96 41.06 59.62"/>
    <polygon class="cls-1" points="50.81 72.23 50.6 72.23 50.66 72.31 50.73 72.4 50.81 72.23"/>
    <polygon class="cls-1" points="46.31 53.42 46.28 53.44 46.32 53.44 46.31 53.42"/>
    <polygon class="cls-1" points="53.5 53.44 46.32 53.44 49.95 60 53.56 53.54 56.79 60.02 60.01 53.44 53.61 53.44 56.84 47.64 50.69 47.64 55.11 41.84 47.71 41.84 50.61 47.64 43.1 47.64 46.31 53.42 50.64 47.71 53.5 53.44"/>
    <polygon class="cls-1" points="48.77 69.81 50.6 72.23 50.6 72.23 48.77 69.81"/>
    <polygon class="cls-1" points="64.54 78.63 64.99 78.04 59.97 78.04 58.57 78.04 54.99 78.04 59.98 84.64 64.99 78.04 64.99 78.04 64.54 78.63"/>
    <polygon class="cls-1" points="50.66 72.31 50.73 72.4 50.73 72.4 50.66 72.31"/>
    <polyline class="cls-1" points="83.61 66.56 78.68 60.04 76.1 63.42 73.76 66.5 73.76 66.5 73.44 66.92 69.41 72.23 76.94 72.23 73.79 66.56 83.61 66.56"/>
    <rect class="cls-1" x="69.4" y="72.23" width=".01" height="0" transform="translate(-30.75 70.23) rotate(-45)"/>
    <polygon class="cls-1" points="54.99 78.04 54.99 78.04 51.98 74.06 54.99 78.04"/>
    <polygon class="cls-1" points="50.73 72.4 47.96 78.04 54.99 78.04 51.98 74.06 50.73 72.4"/>
    <polygon class="cls-1" points="76.89 47.64 69.31 47.64 73.68 53.42 76.89 47.64"/>
    <polygon class="cls-1" points="78.68 60.04 78.68 60.03 76.1 63.42 78.68 60.04"/>
    <polygon class="cls-1" points="72.29 78.04 69.4 72.24 64.99 78.04 72.29 78.04"/>
    <polygon class="cls-1" points="83.69 53.44 73.69 53.44 78.68 60.03 83.69 53.44"/>
    <polygon class="cls-1" points="66.36 66.56 66.56 66.56 73.72 66.56 73.44 66.92 73.76 66.5 70.08 59.87 66.47 66.38 66.36 66.56"/>
    <polygon class="cls-1" points="72.05 41.84 64.94 41.84 69.25 47.55 72.05 41.84"/>
    <polygon class="cls-1" points="36.31 66.56 46.31 66.56 41.32 59.97 36.31 66.56"/>
    <polygon class="cls-1" points="66.36 53.44 60.01 53.44 63.21 59.86 66.36 53.44"/>
    <polygon class="cls-1" points="69.4 72.24 69.4 72.23 69.39 72.23 69.4 72.24"/>
    <polygon class="cls-1" points="73.66 53.44 66.51 53.44 70.08 59.87 73.66 53.44"/>
    <polygon class="cls-1" points="69.21 47.64 63.29 47.64 66.43 53.3 69.21 47.64"/>
    <polygon class="cls-1" points="69.31 47.64 69.25 47.55 69.21 47.64 69.31 47.64"/>
    <polygon class="cls-1" points="60.07 41.84 61.44 41.84 64.94 41.84 60.03 35.36 55.11 41.84 60.07 41.84"/>
    <polygon class="cls-1" points="73.69 53.44 73.68 53.42 73.66 53.44 73.69 53.44"/>
    <polygon class="cls-1" points="46.31 66.56 48.77 69.81 50.6 72.23 50.81 72.23 53.59 66.56 46.31 66.56"/>
    <polygon class="cls-1" points="46.31 66.56 46.31 66.56 48.77 69.81 46.31 66.56"/>
    <polygon class="cls-1" points="63.2 72.23 66.36 66.56 59.99 66.56 53.59 66.56 56.74 72.23 58.07 72.23 63.2 72.23"/>
    <polygon class="cls-1" points="59.97 78.04 56.74 72.23 50.81 72.23 50.73 72.4 51.98 74.06 54.99 78.04 58.57 78.04 59.97 78.04"/>
    <polygon class="cls-1" points="50.73 72.4 50.73 72.4 51.98 74.06 50.73 72.4"/>
    <polygon class="cls-1" points="64.99 78.04 64.99 78.04 69.4 72.24 69.4 72.24 64.99 78.04"/>
    <polygon class="cls-1" points="63.2 72.23 59.97 78.04 64.99 78.04 69.4 72.24 69.39 72.23 63.2 72.23"/>
    <polygon class="cls-1" points="69.4 72.23 69.41 72.23 73.44 66.92 69.4 72.23"/>
    <polygon class="cls-1" points="66.56 66.56 69.39 72.23 69.4 72.23 73.44 66.92 73.72 66.56 66.56 66.56"/>
    <polygon class="cls-1" points="63.21 59.86 60.01 53.44 56.79 60.02 59.99 66.44 63.21 59.86"/>
    <polygon class="cls-1" points="63.21 59.86 66.47 66.38 70.08 59.87 66.51 53.44 66.36 53.44 63.21 59.86"/>
    <polygon class="cls-1" points="56.79 60.02 53.56 53.54 49.95 60 53.59 66.56 56.79 60.02"/>
    <polygon class="cls-1" points="76.1 63.42 73.76 66.5 73.76 66.5 76.1 63.42"/>
    <polygon class="cls-1" points="70.08 59.87 73.76 66.5 76.1 63.42 78.68 60.03 73.69 53.44 73.66 53.44 70.08 59.87"/>
    <polygon class="cls-1" points="66.43 53.3 66.51 53.44 73.66 53.44 73.68 53.42 69.31 47.64 69.21 47.64 66.43 53.3"/>
    <polygon class="cls-1" points="53.5 53.44 50.64 47.71 46.31 53.42 46.32 53.44 53.5 53.44"/>
    <polygon class="cls-1" points="56.84 47.64 53.61 53.44 60.01 53.44 66.36 53.44 66.43 53.3 63.29 47.64 61.97 47.64 56.84 47.64"/>
    <polygon class="cls-1" points="56.84 47.64 60.07 41.84 55.11 41.84 50.69 47.64 56.84 47.64"/>
    <polygon class="cls-1" points="60.07 41.84 63.29 47.64 69.21 47.64 69.25 47.55 64.94 41.84 61.44 41.84 60.07 41.84"/>
    <polygon class="cls-1" points="61.97 47.64 63.29 47.64 60.07 41.84 56.84 47.64 61.97 47.64"/>
    <rect class="cls-1" x="43.81" y="59.13" width="0" height="8.26" transform="translate(-33.14 62.88) rotate(-55.01)"/>
    <polygon class="cls-1" points="46.31 66.56 49.95 60 46.32 53.44 46.28 53.44 41.32 59.96 46.31 66.56"/>
    <polygon class="cls-1" points="49.95 60 46.31 66.56 46.31 66.56 53.59 66.56 49.95 60"/>
    <polygon class="cls-1" points="46.31 66.56 46.31 66.56 46.31 66.56 46.31 66.56"/>
    <polygon class="cls-1" points="59.99 66.56 66.36 66.56 66.47 66.38 63.21 59.86 59.99 66.44 56.79 60.02 53.59 66.56 59.99 66.56"/>
    <polygon class="cls-1" points="69.39 72.23 66.56 66.56 66.36 66.56 63.2 72.23 69.39 72.23"/>
    <polygon class="cls-1" points="50.81 72.23 56.74 72.23 53.59 66.56 50.81 72.23"/>
    <polygon class="cls-1" points="58.07 72.23 56.74 72.23 59.97 78.04 63.2 72.23 58.07 72.23"/>
    <polygon class="cls-1" points="50.6 72.23 50.66 72.31 50.6 72.23 50.6 72.23"/>
    <line class="cls-1" x1="46.31" y1="66.56" x2="41.32" y2="59.96"/>
    <line class="cls-1" x1="51.98" y1="74.06" x2="50.73" y2="72.4"/>
    <line class="cls-1" x1="50.6" y1="72.23" x2="50.66" y2="72.31"/>
    <line class="cls-1" x1="54.99" y1="78.04" x2="51.98" y2="74.06"/>
    <line class="cls-1" x1="50.66" y1="72.31" x2="50.73" y2="72.4"/>
    <line class="cls-1" x1="55.44" y1="78.63" x2="54.99" y2="78.04"/>
    <line class="cls-1" x1="41.32" y1="59.96" x2="41.06" y2="59.62"/>
    <line class="cls-1" x1="46.31" y1="66.56" x2="46.31" y2="66.56"/>
    <line class="cls-1" x1="50.6" y1="72.23" x2="48.77" y2="69.81"/>
    <line class="cls-1" x1="48.77" y1="69.81" x2="46.31" y2="66.56"/>
    <line class="cls-1" x1="73.44" y1="66.92" x2="73.76" y2="66.5"/>
    <line class="cls-1" x1="76.1" y1="63.42" x2="73.76" y2="66.5"/>
    <line class="cls-1" x1="64.99" y1="78.04" x2="69.4" y2="72.24"/>
    <line class="cls-1" x1="73.44" y1="66.92" x2="69.4" y2="72.23"/>
    <line class="cls-1" x1="76.1" y1="63.42" x2="78.68" y2="60.04"/>
    <line class="cls-1" x1="64.99" y1="78.04" x2="64.54" y2="78.63"/>
    <line class="cls-1" x1="69.4" y1="72.24" x2="69.4" y2="72.23"/>
    <line class="cls-1" x1="78.75" y1="59.94" x2="78.68" y2="60.04"/>
  </g>
  <path class="cls-2" d="m54.09,24.81c0-2.54,2.13-5.02,5.81-6.21,3.99,1.06,6.53,3.67,6.53,6.21"/>
  <path class="cls-2" d="m42.54,28.97c-.87-2.39.28-5.45,3.34-7.82,4.12-.37,7.39,1.21,8.26,3.6"/>
  <path class="cls-2" d="m33.12,36.83c-1.63-1.95-1.6-5.22.46-8.49,3.74-1.75,7.36-1.39,9,.56"/>
  <path class="cls-2" d="m26.95,47.44c-2.2-1.27-3.29-4.36-2.47-8.14,2.92-2.93,6.44-3.82,8.64-2.55"/>
  <path class="cls-2" d="m24.78,59.52c-2.5-.44-4.58-2.97-5.11-6.8,1.74-3.75,4.75-5.8,7.25-5.36"/>
  <path class="cls-2" d="m26.88,71.61c-2.5.44-5.32-1.22-7.12-4.64.35-4.12,2.48-7.07,4.98-7.51"/>
  <path class="cls-2" d="m32.98,82.25c-2.2,1.27-5.41.67-8.28-1.93-1.08-3.99-.09-7.49,2.11-8.76"/>
  <path class="cls-2" d="m42.36,90.17c-1.63,1.95-4.86,2.48-8.44,1.02-2.38-3.38-2.65-7.01-1.01-8.96"/>
  <path class="cls-2" d="m53.88,94.4c-.87,2.39-3.72,3.99-7.58,3.85-3.39-2.36-4.88-5.68-4.02-8.07"/>
  <path class="cls-2" d="m66.15,94.44c0,2.54-2.13,5.02-5.81,6.21-3.99-1.06-6.53-3.67-6.53-6.21"/>
  <path class="cls-2" d="m77.69,90.28c.87,2.39-.28,5.45-3.34,7.82-4.12.37-7.39-1.21-8.26-3.6"/>
  <path class="cls-2" d="m87.12,82.42c1.63,1.95,1.6,5.22-.46,8.49-3.74,1.75-7.36,1.39-9-.56"/>
  <path class="cls-2" d="m93.28,71.81c2.2,1.27,3.29,4.36,2.47,8.14-2.92,2.93-6.44,3.82-8.64,2.55"/>
  <path class="cls-2" d="m95.45,59.73c2.5.44,4.58,2.97,5.11,6.8-1.74,3.75-4.75,5.8-7.25,5.36"/>
  <path class="cls-2" d="m93.36,47.64c2.5-.44,5.32,1.22,7.12,4.64-.35,4.12-2.48,7.07-4.98,7.51"/>
  <path class="cls-2" d="m87.25,36.99c2.2-1.27,5.41-.67,8.28,1.93,1.08,3.99.09,7.49-2.11,8.76"/>
  <path class="cls-2" d="m77.88,29.08c1.63-1.95,4.86-2.48,8.44-1.02,2.38,3.38,2.65,7.01,1.01,8.96"/>
  <path class="cls-2" d="m66.36,24.84c.87-2.39,3.72-3.99,7.58-3.85,3.39,2.36,4.88,5.68,4.02,8.07"/>
</svg>