<?xml version="1.0" encoding="UTF-8"?>
<svg id="Layer_2" data-name="Layer 2" xmlns="http://www.w3.org/2000/svg" viewBox="0 0 120 120">
  <defs>
    <style>
      .cls-1 {
        stroke-width: .75px;
      }

      .cls-1, .cls-2 {
        fill: none;
        stroke: #000;
        stroke-linecap: round;
        stroke-linejoin: round;
      }

      .cls-3 {
        fill: #fff;
      }

      .cls-2 {
        stroke-width: 3px;
      }
    </style>
  </defs>
  <polygon class="cls-2" points="100.49 19.57 100.49 45.63 105.69 45.63 105.69 34.09 110 34.09 110 85.44 105.69 85.44 105.69 74.36 100.49 74.36 100.49 100.43 74.16 100.51 74.16 105.69 85.71 105.69 85.71 110 34.28 110 34.28 105.69 45.38 105.69 45.38 100.51 19.5 100.43 19.5 73.9 14.32 73.9 14.32 85.44 10 85.44 10 34.09 14.32 34.09 14.32 45.17 19.5 45.17 19.5 19.57 45.61 19.49 45.61 14.3 34.06 14.3 34.06 10 85.48 10 85.48 14.3 74.39 14.3 74.39 19.49 100.49 19.57"/>
  <ellipse class="cls-2" cx="60" cy="60" rx="21.63" ry="21.6"/>
  <path class="cls-2" d="m51.96,39.65c0-4.52,3.28-8.47,8.14-10.57,4.86,2.1,7.95,6.54,7.95,11.06"/>
  <path class="cls-2" d="m51.96,29.76c0-2.77,3.28-5.19,8.14-6.48,4.86,1.29,7.95,4.01,7.95,6.78"/>
  <path class="cls-2" d="m37.13,38.61c-1.47-2.35.02-6.14,3.47-9.8,4.81-1.48,8.87-.81,10.33,1.54"/>
  <path class="cls-2" d="m29.26,53.96c-2.49-1.21-3.24-5.22-2.26-10.15,3.29-3.8,7.09-5.38,9.58-4.16"/>
  <path class="cls-2" d="m30.73,71.15c-2.76.29-5.51-2.71-7.3-7.41.77-4.97,3.16-8.31,5.92-8.6"/>
  <path class="cls-2" d="m41.09,84.95c-2.19,1.7-6.11.62-10.12-2.42-1.98-4.62-1.73-8.72.45-10.43"/>
  <path class="cls-2" d="m57.2,91.16c-.95,2.6-4.86,3.76-9.87,3.31-4.13-2.87-6.1-6.48-5.15-9.08"/>
  <path class="cls-2" d="m74.16,87.91c.58,2.71-2.12,5.76-6.61,8.03-5.03-.25-8.61-2.27-9.18-4.98"/>
  <path class="cls-2" d="m86.82,76.17c1.93,1.99,1.25,6.01-1.35,10.31-4.39,2.45-8.5,2.63-10.43.64"/>
  <path class="cls-2" d="m91.33,59.52c2.69.67,4.25,4.43,4.32,9.45-2.43,4.4-5.81,6.73-8.51,6.06"/>
  <path class="cls-2" d="m86.31,43.02c2.64-.86,5.96,1.51,8.68,5.73.28,5.02-1.36,8.79-4,9.64"/>
  <path class="cls-2" d="m73.3,31.67c1.78-2.12,5.85-1.87,10.4.26,2.9,4.11,3.51,8.17,1.73,10.29"/>
  <path class="cls-2" d="m39.9,51.29c-3.2-3.2-3.68-8.3-1.73-13.22,4.93-1.95,10.25-.99,13.45,2.21"/>
  <path class="cls-2" d="m39.62,68.03c-4.52,0-8.48-3.27-10.58-8.13,2.1-4.86,6.55-7.94,11.07-7.94"/>
  <path class="cls-2" d="m51.28,80.07c-3.2,3.2-8.31,3.68-13.24,1.73-1.95-4.92-.99-10.23,2.21-13.43"/>
  <path class="cls-2" d="m68.04,80.35c0,4.52-3.28,8.47-8.14,10.57-4.86-2.1-7.95-6.54-7.95-11.06"/>
  <path class="cls-2" d="m80.1,68.71c3.2,3.2,3.68,8.3,1.73,13.22-4.93,1.95-10.25.99-13.45-2.21"/>
  <path class="cls-2" d="m80.38,51.97c4.52,0,8.48,3.27,10.58,8.13-2.1,4.86-6.55,7.94-11.07,7.94"/>
  <path class="cls-2" d="m68.72,39.93c3.2-3.2,8.31-3.68,13.24-1.73,1.95,4.92.99,10.23-2.21,13.43"/>
  <ellipse class="cls-2" cx="60" cy="60" rx="31.24" ry="31.2"/>
  <ellipse class="cls-2" cx="60" cy="60" rx="37.22" ry="37.17"/>
  <ellipse class="cls-2" cx="60" cy="60" rx="41.58" ry="41.52"/>
  <path class="cls-2" d="m26.61,23.97c.89.89,1.21,2.13.96,3.27-1.14.25-2.38-.08-3.27-.96s-1.21-2.13-.96-3.27c1.14-.25,2.38.07,3.27.96Z"/>
  <path class="cls-2" d="m32.51,24.49c-.24.82-.88,1.41-1.64,1.64-.52-.6-.73-1.45-.49-2.26s.88-1.42,1.64-1.64c.52.6.73,1.44.49,2.27Z"/>
  <path class="cls-2" d="m24.88,31.81c-.79.32-1.66.18-2.3-.28.15-.78.69-1.47,1.48-1.78s1.65-.18,2.3.28c-.15.78-.68,1.47-1.48,1.79Z"/>
  <path class="cls-2" d="m95.84,26.18c-.89.89-2.13,1.21-3.27.96-.25-1.14.08-2.38.96-3.27s2.13-1.21,3.27-.96c.25,1.14-.07,2.38-.96,3.27Z"/>
  <path class="cls-2" d="m95.23,31.77c-.82-.24-1.41-.88-1.64-1.64.6-.52,1.45-.73,2.26-.49s1.42.88,1.64,1.64c-.6.52-1.44.73-2.27.49Z"/>
  <path class="cls-2" d="m87.68,24.72c-.32-.79-.18-1.66.28-2.3.78.15,1.47.69,1.78,1.48s.18,1.65-.28,2.3c-.78-.15-1.47-.68-1.79-1.48Z"/>
  <path class="cls-2" d="m26.6,95.89c.9-.88,1.23-2.12,1-3.26-1.14-.26-2.38.05-3.28.92s-1.24,2.11-1,3.26c1.14.26,2.38-.04,3.28-.92Z"/>
  <path class="cls-2" d="m32.51,95.44c-.23-.82-.86-1.42-1.62-1.66-.53.59-.75,1.44-.52,2.26s.86,1.43,1.62,1.66c.53-.59.75-1.44.52-2.26Z"/>
  <path class="cls-2" d="m24.97,88.03c-.79-.33-1.65-.2-2.3.25.14.78.67,1.47,1.46,1.8s1.65.2,2.3-.25c-.14-.78-.67-1.48-1.46-1.8Z"/>
  <path class="cls-2" d="m95.82,93.52c-.89-.89-2.13-1.21-3.27-.96-.25,1.14.08,2.38.96,3.27s2.13,1.21,3.27.96c.25-1.14-.07-2.38-.96-3.27Z"/>
  <path class="cls-2" d="m95.32,88.01c-.82.24-1.41.88-1.64,1.64.6.52,1.45.73,2.26.49s1.42-.88,1.64-1.64c-.6-.52-1.44-.73-2.27-.49Z"/>
  <path class="cls-2" d="m88.1,95.23c-.32.79-.18,1.66.28,2.3.78-.15,1.47-.69,1.78-1.48s.18-1.65-.28-2.3c-.78.15-1.47.68-1.79,1.48Z"/>
  <g>
    <g>
      <polygon class="cls-3" points="52.8 50.44 54.99 54.85 49.46 54.85 49.45 54.84 49.45 54.83 52.8 50.44"/>
      <polygon points="78.25 54.85 74.44 59.85 74.39 59.93 70.55 54.85 78.25 54.85"/>
      <polygon points="74.39 59.93 78.19 64.96 70.62 64.96 70.57 64.96 70.6 64.9 72.4 62.54 74.39 59.93"/>
      <polygon class="cls-3" points="70.55 54.85 74.39 59.93 72.4 62.54 70.6 64.9 67.77 59.81 70.52 54.85 70.55 54.85"/>
      <polygon points="70.62 64.96 73.05 69.33 67.25 69.33 70.35 65.23 70.57 64.96 70.62 64.96"/>
      <polygon points="73.01 50.38 70.54 54.83 67.17 50.38 73.01 50.38"/>
      <polygon points="70.6 64.9 70.57 64.96 70.56 64.96 65.05 64.96 64.9 64.96 64.98 64.81 67.77 59.81 70.6 64.9"/>
      <polygon class="cls-3" points="70.57 64.96 70.35 65.23 70.56 64.96 70.57 64.96"/>
      <polygon class="cls-3" points="70.56 64.96 70.35 65.23 67.24 69.33 67.23 69.33 65.05 64.96 70.56 64.96"/>
      <polygon class="cls-3" points="70.54 54.83 70.54 54.84 70.52 54.85 65.02 54.85 64.96 54.75 67.09 50.38 67.17 50.38 70.54 54.83"/>
      <polygon points="70.52 54.85 67.77 59.81 65.02 54.85 70.52 54.85"/>
      <polygon points="70.35 65.23 67.25 69.33 67.24 69.33 70.35 65.23"/>
      <polygon points="67.24 69.33 69.47 73.8 63.85 73.8 67.24 69.33"/>
      <polygon points="69.28 45.92 67.13 50.31 63.8 45.92 69.28 45.92"/>
      <polygon class="cls-3" points="65.02 54.85 67.77 59.81 64.98 64.81 62.47 59.8 64.9 54.85 65.02 54.85"/>
      <polygon class="cls-3" points="67.24 69.33 67.24 69.33 63.84 73.8 59.97 73.8 62.47 69.33 67.23 69.33 67.24 69.33"/>
      <polygon points="67.24 69.33 63.85 73.8 63.84 73.8 67.24 69.33"/>
      <polygon points="65.05 64.96 67.23 69.33 62.47 69.33 64.9 64.96 65.05 64.96"/>
      <polygon class="cls-3" points="63.8 45.92 67.13 50.31 67.09 50.38 62.54 50.38 60.05 45.92 61.11 45.92 63.8 45.92"/>
      <polygon points="67.09 50.38 64.96 54.75 62.54 50.38 67.09 50.38"/>
      <polygon points="62.47 59.8 64.98 64.81 64.9 64.96 59.99 64.96 59.99 64.87 62.47 59.8"/>
      <polygon class="cls-3" points="62.54 50.38 64.96 54.75 64.9 54.85 60.01 54.85 55.08 54.85 57.56 50.38 61.52 50.38 62.54 50.38"/>
      <polygon points="64.9 54.85 62.47 59.8 60.01 54.85 64.9 54.85"/>
      <polygon class="cls-3" points="64.9 64.96 62.47 69.33 58.51 69.33 57.49 69.33 55.06 64.96 59.99 64.96 64.9 64.96"/>
      <polygon points="63.84 73.8 63.85 73.8 59.98 78.88 56.48 74.25 56.15 73.8 58.9 73.8 59.97 73.8 63.84 73.8"/>
      <polygon points="60.03 40.93 63.8 45.92 61.11 45.92 60.05 45.92 56.23 45.92 60.03 40.93"/>
      <polygon points="60.05 45.92 62.54 50.38 61.52 50.38 57.56 50.38 60.05 45.92"/>
      <polygon class="cls-3" points="60.01 54.85 62.47 59.8 59.99 64.87 57.53 59.92 60.01 54.85"/>
      <polygon points="62.47 69.33 59.97 73.8 57.49 69.33 58.51 69.33 62.47 69.33"/>
      <polygon class="cls-3" points="60.05 45.92 57.56 50.38 52.83 50.38 56.23 45.92 60.05 45.92"/>
      <polygon points="60.01 54.85 57.53 59.92 55.04 54.93 55.08 54.85 60.01 54.85"/>
      <polygon points="59.99 64.87 59.99 64.96 55.06 64.96 57.53 59.92 59.99 64.87"/>
      <polygon class="cls-3" points="57.49 69.33 59.97 73.8 58.9 73.8 56.15 73.8 53.82 70.73 52.86 69.46 52.86 69.45 52.92 69.33 57.49 69.33"/>
      <polygon points="57.56 50.38 55.08 54.85 54.99 54.85 52.8 50.44 52.77 50.38 52.83 50.38 57.56 50.38"/>
      <polygon class="cls-3" points="55.04 54.93 57.53 59.92 55.06 64.96 52.26 59.9 55.04 54.93"/>
      <polygon points="55.06 64.96 57.49 69.33 52.92 69.33 55.06 64.96"/>
      <polygon points="56.23 45.92 52.83 50.38 52.77 50.38 50.54 45.92 56.23 45.92"/>
      <polygon points="53.82 70.73 56.15 73.8 50.73 73.8 52.86 69.46 53.82 70.73"/>
      <polygon points="55.08 54.85 55.04 54.93 52.26 59.9 49.46 54.85 54.99 54.85 55.08 54.85"/>
      <polygon points="52.26 59.9 55.06 64.96 49.45 64.96 49.45 64.95 52.26 59.9"/>
      <polygon class="cls-3" points="55.06 64.96 52.92 69.33 52.76 69.33 51.35 67.46 49.45 64.96 55.06 64.96"/>
      <polygon points="52.77 50.38 52.8 50.44 49.45 54.83 46.98 50.38 52.77 50.38"/>
      <polygon points="51.35 67.46 52.76 69.33 47.02 69.33 49.45 64.96 51.35 67.46"/>
      <polygon class="cls-3" points="49.46 54.85 52.26 59.9 49.45 64.95 45.62 59.88 49.44 54.85 49.46 54.85"/>
      <polygon points="49.45 64.95 49.45 64.96 41.75 64.96 45.62 59.88 49.45 64.95"/>
      <polygon points="49.44 54.85 45.62 59.88 45.41 59.6 41.81 54.85 49.44 54.85"/>
    </g>
    <g>
      <polyline class="cls-1" points="49.45 64.96 47.02 69.33 52.76 69.33"/>
      <polyline class="cls-1" points="49.44 54.85 41.81 54.85 45.41 59.6"/>
      <line class="cls-1" x1="49.45" y1="54.84" x2="49.44" y2="54.85"/>
      <polyline class="cls-1" points="56.23 45.92 50.54 45.92 52.77 50.38 46.98 50.38 49.45 54.83"/>
      <polyline class="cls-1" points="56.48 74.25 59.98 78.88 63.85 73.8"/>
      <polyline class="cls-1" points="67.25 69.33 73.05 69.33 70.62 64.96 78.19 64.96 74.39 59.93"/>
      <line class="cls-1" x1="67.24" y1="69.33" x2="67.25" y2="69.33"/>
      <polyline class="cls-1" points="52.86 69.46 50.73 73.8 56.15 73.8"/>
      <polyline class="cls-1" points="70.54 54.83 73.01 50.38 67.17 50.38"/>
      <polyline class="cls-1" points="63.85 73.8 69.47 73.8 67.24 69.33"/>
      <polyline class="cls-1" points="74.44 59.85 78.25 54.85 70.55 54.85"/>
      <polyline class="cls-1" points="67.13 50.31 69.28 45.92 63.8 45.92"/>
      <polyline class="cls-1" points="45.62 59.88 41.75 64.96 49.45 64.96"/>
      <line class="cls-1" x1="67.17" y1="50.38" x2="67.13" y2="50.31"/>
      <polyline class="cls-1" points="63.8 45.92 60.03 40.93 56.23 45.92"/>
      <line class="cls-1" x1="70.55" y1="54.85" x2="70.54" y2="54.84"/>
      <line class="cls-1" x1="52.76" y1="69.33" x2="52.92" y2="69.33"/>
      <polyline class="cls-1" points="56.15 73.8 58.9 73.8 59.97 73.8"/>
      <line class="cls-1" x1="52.92" y1="69.33" x2="52.86" y2="69.45"/>
      <polyline class="cls-1" points="63.84 73.8 63.85 73.8 67.24 69.33"/>
      <line class="cls-1" x1="59.97" y1="73.8" x2="63.84" y2="73.8"/>
      <polyline class="cls-1" points="67.24 69.33 67.25 69.33 70.35 65.23"/>
      <line class="cls-1" x1="70.35" y1="65.23" x2="70.57" y2="64.96"/>
      <line class="cls-1" x1="67.23" y1="69.33" x2="67.24" y2="69.33"/>
      <polyline class="cls-1" points="62.47 59.8 60.01 54.85 57.53 59.92"/>
      <polyline class="cls-1" points="64.98 64.81 67.77 59.81 65.02 54.85 64.9 54.85 62.47 59.8"/>
      <polyline class="cls-1" points="57.53 59.92 55.04 54.93 52.26 59.9"/>
      <polyline class="cls-1" points="74.39 59.93 70.55 54.85 70.52 54.85 67.77 59.81 70.6 64.9"/>
      <polygon class="cls-1" points="64.96 54.75 65.02 54.85 70.52 54.85 70.54 54.84 70.54 54.83 67.17 50.38 67.09 50.38 64.96 54.75"/>
      <polygon class="cls-1" points="54.99 54.85 52.8 50.44 49.45 54.83 49.45 54.84 49.46 54.85 54.99 54.85"/>
      <polyline class="cls-1" points="57.56 50.38 55.08 54.85 60.01 54.85 64.9 54.85 64.96 54.75 62.54 50.38"/>
      <polyline class="cls-1" points="60.05 45.92 56.23 45.92 52.83 50.38 57.56 50.38"/>
      <polyline class="cls-1" points="62.54 50.38 67.09 50.38 67.13 50.31 63.8 45.92 61.11 45.92 60.05 45.92"/>
      <polygon class="cls-1" points="57.56 50.38 61.52 50.38 62.54 50.38 60.05 45.92 57.56 50.38"/>
      <polyline class="cls-1" points="52.26 59.9 49.46 54.85 49.44 54.85 45.62 59.88"/>
      <polygon class="cls-1" points="52.26 59.9 49.45 64.95 49.45 64.96 55.06 64.96 52.26 59.9"/>
      <polygon class="cls-1" points="59.99 64.96 64.9 64.96 64.98 64.81 62.47 59.8 59.99 64.87 57.53 59.92 55.06 64.96 59.99 64.96"/>
      <polygon class="cls-1" points="67.23 69.33 65.05 64.96 64.9 64.96 62.47 69.33 67.23 69.33"/>
      <polygon class="cls-1" points="52.92 69.33 57.49 69.33 55.06 64.96 52.92 69.33"/>
      <polygon class="cls-1" points="62.47 69.33 58.51 69.33 57.49 69.33 59.97 73.8 62.47 69.33"/>
      <line class="cls-1" x1="49.45" y1="64.95" x2="45.62" y2="59.88"/>
      <polyline class="cls-1" points="53.82 70.73 52.86 69.46 52.86 69.45"/>
      <line class="cls-1" x1="52.76" y1="69.33" x2="52.8" y2="69.38"/>
      <line class="cls-1" x1="56.15" y1="73.8" x2="53.82" y2="70.73"/>
      <line class="cls-1" x1="52.8" y1="69.38" x2="52.86" y2="69.45"/>
      <line class="cls-1" x1="56.48" y1="74.25" x2="56.15" y2="73.8"/>
      <line class="cls-1" x1="45.62" y1="59.88" x2="45.41" y2="59.6"/>
      <line class="cls-1" x1="52.76" y1="69.33" x2="51.35" y2="67.46"/>
      <line class="cls-1" x1="51.35" y1="67.46" x2="49.45" y2="64.96"/>
      <line class="cls-1" x1="70.57" y1="64.96" x2="70.6" y2="64.9"/>
      <line class="cls-1" x1="72.4" y1="62.54" x2="70.6" y2="64.9"/>
      <polyline class="cls-1" points="63.84 73.8 67.24 69.33 67.24 69.33"/>
      <line class="cls-1" x1="70.35" y1="65.23" x2="67.24" y2="69.33"/>
      <line class="cls-1" x1="72.4" y1="62.54" x2="74.39" y2="59.93"/>
      <line class="cls-1" x1="63.84" y1="73.8" x2="63.49" y2="74.25"/>
      <line class="cls-1" x1="74.44" y1="59.85" x2="74.39" y2="59.93"/>
    </g>
  </g>
</svg>