<?xml version="1.0" encoding="UTF-8"?>
<svg id="Layer_2" data-name="Layer 2" xmlns="http://www.w3.org/2000/svg" viewBox="0 0 120 120">
  <defs>
    <style>
      .cls-1 {
        stroke-width: 2px;
      }

      .cls-1, .cls-2 {
        fill: none;
        stroke: #000;
        stroke-linecap: round;
        stroke-linejoin: round;
      }

      .cls-2 {
        stroke-width: 3px;
      }
    </style>
  </defs>
  <g>
    <polygon class="cls-1" points="60.16 56.58 66.16 56.57 63.16 61.71 60.16 66.85 57.16 61.72 54.16 56.59 60.16 56.58"/>
    <polygon class="cls-1" points="60.16 63.41 54.16 63.41 57.16 58.27 60.16 53.13 63.16 58.27 66.16 63.4 60.16 63.41"/>
  </g>
  <polygon class="cls-2" points="100.38 19.57 100.38 45.63 105.57 45.63 105.57 34.09 109.88 34.09 109.88 85.44 105.57 85.44 105.57 74.36 100.38 74.36 100.38 100.43 74.07 100.51 74.07 105.69 85.61 105.69 85.61 110 34.24 110 34.24 105.69 45.32 105.69 45.32 100.51 19.47 100.43 19.47 73.9 14.29 73.9 14.29 85.44 9.98 85.44 9.98 34.09 14.29 34.09 14.29 45.17 19.47 45.17 19.47 19.57 45.55 19.49 45.55 14.3 34.01 14.3 34.01 10 85.38 10 85.38 14.3 74.3 14.3 74.3 19.49 100.38 19.57"/>
  <ellipse class="cls-2" cx="59.99" cy="59.99" rx="29.89" ry="29.88"/>
  <path class="cls-2" d="m59.99,100.72s-2.04-3.23-11.09-3.23h0c-1.16-.05-2.29-.16-3.37-.31-7.32-1.05-10.69-9.71-6.09-15.5h0s-1.39.92-1.39.92c-5.78,3.83-13.57.48-14.8-6.34-.26-1.43-.43-2.95-.5-4.53h0c0-9.05-3.23-11.09-3.23-11.09,0,0,3.23-2.04,3.23-11.09h0c.04-.85.1-1.68.2-2.48.91-7.84,9.15-12.34,15.8-8.09h0c-4.66-6.72.24-15.68,8.39-16.44.58-.05,1.17-.1,1.77-.12h0c9.05,0,11.09-3.23,11.09-3.23,0,0,2.04,3.23,11.09,3.23h0c1.29.06,2.54.18,3.74.37,7.26,1.12,11.15,9.15,7.5,15.52l-.65,1.13h0c6.46-4.3,15.21-.32,16.17,7.37.11.89.19,1.81.23,2.75h0c0,9.05,3.23,11.09,3.23,11.09h0s-3.23,2.04-3.23,11.09h0c-.03.66-.08,1.32-.14,1.95-.8,8.01-10.1,12.01-16.5,7.13h0s.45.72.45.72c3.9,6.28.11,14.52-7.2,15.62-1.15.17-2.35.29-3.59.34h0c-9.05,0-11.09,3.23-11.09,3.23"/>
  <polygon class="cls-1" points="60.16 50.59 51.55 50.59 55.85 43.14 60.16 35.68 64.47 43.14 68.77 50.59 60.16 50.59"/>
  <polygon class="cls-1" points="60.16 45.56 51.55 45.56 55.85 38.1 60.16 30.65 64.47 38.1 68.77 45.56 60.16 45.56"/>
  <polygon class="cls-1" points="60.16 50.59 54.35 50.59 57.25 45.56 60.16 40.52 63.07 45.56 65.97 50.59 60.16 50.59"/>
  <polygon class="cls-1" points="60.16 69.6 68.77 69.6 64.47 77.06 60.16 84.51 55.85 77.06 51.55 69.6 60.16 69.6"/>
  <polygon class="cls-1" points="60.16 74.64 68.77 74.64 64.47 82.09 60.16 89.54 55.85 82.09 51.55 74.64 60.16 74.64"/>
  <polygon class="cls-1" points="60.16 69.6 65.97 69.6 63.07 74.64 60.16 79.67 57.25 74.64 54.35 69.6 60.16 69.6"/>
  <polygon class="cls-1" points="69.55 60 69.55 51.39 77.01 55.7 84.47 60 77.01 64.3 69.55 68.61 69.55 60"/>
  <polygon class="cls-1" points="74.59 60 74.59 51.39 82.04 55.7 89.5 60 82.04 64.3 74.59 68.61 74.59 60"/>
  <polygon class="cls-1" points="69.55 60 69.55 54.19 74.59 57.09 79.62 60 74.59 62.91 69.55 65.81 69.55 60"/>
  <polygon class="cls-1" points="50.42 60 50.42 68.61 42.97 64.3 35.51 60 42.97 55.7 50.42 51.39 50.42 60"/>
  <polygon class="cls-1" points="45.39 60 45.39 68.61 37.93 64.3 30.47 60 37.93 55.7 45.39 51.39 45.39 60"/>
  <polygon class="cls-1" points="50.42 60 50.42 65.81 45.39 62.91 40.35 60 45.39 57.09 50.42 54.19 50.42 60"/>
  <circle class="cls-1" cx="60.16" cy="60" r="8.61"/>
</svg>