<?xml version="1.0" encoding="UTF-8"?>
<svg id="Layer_2" data-name="Layer 2" xmlns="http://www.w3.org/2000/svg" viewBox="0 0 120 120">
  <defs>
    <style>
      .cls-1, .cls-2 {
        fill: none;
        stroke: #000;
        stroke-linecap: round;
        stroke-linejoin: round;
      }

      .cls-3 {
        fill: #050606;
      }

      .cls-4 {
        fill: #fff;
      }

      .cls-2 {
        stroke-width: 3px;
      }
    </style>
  </defs>
  <g>
    <g>
      <polygon class="cls-3" points="85 65.12 74.85 65.1 74.72 65.1 74.85 64.97 79.37 60.38 85 65.12"/>
      <polygon class="cls-3" points="84.71 55.66 79.37 60.38 74.79 55.64 84.71 55.66"/>
      <polygon class="cls-3" points="74.85 65.1 74.89 70 69.93 70 69.9 70 69.93 69.97 74.72 65.1 74.85 65.1"/>
      <polygon class="cls-3" points="74.82 60.39 74.85 64.97 74.72 65.1 69.94 65.09 74.73 60.39 74.82 60.39"/>
      <polygon class="cls-3" points="74.78 55.64 74.82 60.39 74.73 60.39 69.99 55.64 74.78 55.64"/>
      <polygon class="cls-3" points="74.78 50.43 74.78 55.63 69.93 50.63 69.93 50.43 74.78 50.43"/>
      <polygon class="cls-3" points="69.9 70 69.99 74.86 64.96 74.86 69.9 70"/>
      <polygon class="cls-3" points="69.93 65.11 69.93 69.97 69.9 70 64.96 70 64.96 69.99 69.93 65.11"/>
      <polygon class="cls-3" points="69.93 60.28 69.93 65.09 64.96 65.09 64.96 65.08 69.93 60.28"/>
      <polygon class="cls-3" points="69.93 55.64 69.93 60.28 64.96 55.63 65.18 55.63 69.93 55.64"/>
      <polygon class="cls-3" points="69.93 50.63 69.93 55.57 64.96 50.59 64.96 50.43 69.74 50.43 64.98 45.52 69.93 45.52 69.93 50.43 69.93 50.63"/>
      <polygon class="cls-3" points="64.96 74.86 64.96 84.6 60 80.05 60.03 80.02 64.96 74.86"/>
      <polygon class="cls-3" points="64.96 70 64.96 74.86 60 74.86 64.95 70 64.96 70"/>
      <polygon class="cls-3" points="64.96 65.09 64.96 69.99 64.96 70 64.95 70 59.87 70 64.96 65.09"/>
      <polygon class="cls-3" points="64.96 65.08 64.96 65.09 59.78 65.08 64.96 60.41 64.96 65.08"/>
      <polygon class="cls-3" points="64.96 55.63 64.96 60.41 59.78 55.62 59.83 55.62 64.96 55.63"/>
      <polygon class="cls-3" points="64.96 55.42 64.96 55.63 59.87 50.43 64.81 50.43 64.96 50.43 64.96 50.59 64.96 55.42"/>
      <polygon class="cls-3" points="64.96 45.52 64.96 50.43 64.81 50.43 59.94 45.55 59.94 45.43 64.96 45.52"/>
      <polygon class="cls-3" points="64.96 35.63 64.96 45.5 60.03 40.41 60 40.38 64.96 35.63"/>
      <polygon class="cls-3" points="61.76 60.57 59.78 62.56 57.79 60.57 59.78 58.59 61.76 60.57"/>
      <polygon class="cls-3" points="60.03 80.02 60 80.05 59.96 80.02 54.55 84.71 54.55 74.9 54.75 74.9 60.03 80.02"/>
      <polygon class="cls-3" points="60.03 40.41 54.73 45.33 54.52 45.32 54.52 35.29 59.96 40.41 60 40.38 60.03 40.41"/>
      <polygon class="cls-3" points="60 74.86 54.75 74.9 54.55 74.9 54.55 74.71 54.55 70.73 54.52 70.01 54.55 70.01 60 74.86"/>
      <polygon class="cls-3" points="59.94 45.43 59.94 45.55 59.91 45.55 54.52 50.43 54.52 45.52 54.52 45.32 54.73 45.33 59.94 45.43"/>
      <polygon class="cls-3" points="59.87 50.43 54.52 55.61 54.52 55.51 54.52 55.17 54.52 50.43 59.22 50.43 59.87 50.43"/>
      <polygon class="cls-3" points="59.87 70 58.92 70 54.55 70 54.55 70.01 54.52 70.01 54.52 70 54.52 69.97 54.52 65.07 54.73 65.07 59.87 70"/>
      <polygon class="cls-3" points="59.78 55.62 54.52 60.46 54.52 55.61 59.73 55.62 59.78 55.62"/>
      <polygon class="cls-3" points="59.78 65.08 54.73 65.07 54.52 65.07 54.52 64.86 54.52 60.46 59.78 65.08"/>
      <polygon class="cls-3" points="54.55 74.71 54.55 74.9 49.62 74.94 49.62 70 54.55 74.71"/>
      <polygon class="cls-3" points="54.52 69.97 54.52 70 49.62 70 49.62 69.95 49.62 65.13 49.65 65.1 54.49 69.97 54.52 69.97"/>
      <polygon class="cls-3" points="54.52 64.86 54.52 65.07 49.62 65.06 49.62 65.05 49.62 60.16 54.52 64.86"/>
      <polygon class="cls-4" points="54.52 60.46 54.52 64.86 49.62 60.16 54.52 55.61 54.52 60.46"/>
      <polygon class="cls-4" points="54.52 55.51 54.52 55.61 49.62 55.6 49.62 55.52 54.52 50.43 54.52 55.17 54.52 55.51"/>
      <polygon class="cls-4" points="54.52 45.52 54.52 50.43 49.62 50.43 54.52 45.52"/>
      <polygon class="cls-3" points="54.52 45.32 54.52 45.52 49.62 50.43 49.62 45.23 54.52 45.32"/>
      <polygon class="cls-3" points="54.52 50.43 49.62 55.52 49.62 55.23 49.62 50.43 54.52 50.43"/>
      <polygon class="cls-3" points="54.52 55.61 49.62 60.16 49.62 55.6 54.52 55.61"/>
      <polygon class="cls-3" points="49.62 65.06 49.65 65.1 49.62 65.13 44.64 65.05 44.64 60.35 49.62 65.05 49.62 65.06"/>
      <polygon class="cls-4" points="49.62 55.23 49.62 55.52 49.54 55.6 44.71 55.59 49.62 50.43 49.62 55.23"/>
      <polygon class="cls-3" points="49.62 50.43 44.71 55.59 44.61 55.59 44.58 50.43 49.62 50.43"/>
      <polygon class="cls-3" points="49.57 69.95 44.64 69.92 44.64 65.1 49.57 69.95"/>
      <polygon class="cls-3" points="49.54 55.6 44.64 60.35 44.61 55.69 44.61 55.59 44.71 55.59 49.54 55.6"/>
      <polygon class="cls-3" points="44.61 55.59 44.61 55.69 39.82 60.43 35 55.57 44.61 55.59"/>
      <polygon class="cls-3" points="44.58 65.05 35.29 65.03 39.82 60.43 44.58 65.05"/>
    </g>
    <g>
      <polygon class="cls-1" points="69.9 70 69.93 70 74.89 70 74.85 65.1 85 65.12 79.37 60.38 74.85 64.97 74.82 60.39 74.78 55.64 69.99 55.64 74.73 60.39 69.94 65.09 74.72 65.1 69.93 69.97 69.93 65.11 64.96 69.99 64.96 65.09 69.93 65.09 69.93 60.28 64.96 65.08 64.96 60.41 59.78 65.08 64.96 65.09 59.87 70 64.95 70 60 74.86 64.96 74.86 64.96 70 69.9 70"/>
      <polygon class="cls-1" points="44.64 65.1 44.64 69.92 49.57 69.95 44.64 65.1"/>
      <polyline class="cls-1" points="49.62 69.95 49.57 69.95 49.62 70"/>
      <polygon class="cls-1" points="49.62 55.52 49.54 55.6 49.62 55.6 49.62 55.52"/>
      <polygon class="cls-1" points="44.64 60.35 49.54 55.6 44.71 55.59 49.62 50.43 44.58 50.43 44.61 55.59 35 55.57 39.82 60.43 44.61 55.69 44.64 60.35"/>
      <polygon class="cls-1" points="49.62 55.52 54.52 50.43 49.62 50.43 49.62 55.23 49.62 55.52"/>
      <polygon class="cls-1" points="54.75 74.9 60 74.86 54.55 70.01 54.55 70 58.92 70 59.87 70 54.73 65.07 59.78 65.08 54.52 60.46 54.52 64.86 49.62 60.16 49.62 65.05 44.64 60.35 44.64 65.05 49.62 65.13 49.62 69.95 49.62 70 54.52 70 54.52 70.01 54.55 70.73 54.55 74.71 49.62 70 49.62 74.94 54.55 74.9 54.55 84.71 59.96 80.02 60 80.05 64.96 84.6 64.96 74.86 60.03 80.02 54.75 74.9"/>
      <polygon class="cls-1" points="54.52 69.97 54.49 69.97 49.65 65.1 49.62 65.06 54.52 65.07 54.52 69.97"/>
      <polygon class="cls-1" points="39.82 60.43 35.29 65.03 44.58 65.05 39.82 60.43"/>
      <polygon class="cls-1" points="79.37 60.38 84.71 55.66 74.79 55.64 79.37 60.38"/>
      <polygon class="cls-1" points="44.58 65.05 44.64 65.1 44.64 65.05 44.58 65.05"/>
      <polygon class="cls-1" points="49.62 55.6 49.62 60.16 54.52 55.61 49.62 55.6"/>
      <polyline class="cls-1" points="74.78 55.63 74.78 55.64 74.79 55.64"/>
      <polygon class="cls-1" points="64.98 45.52 64.96 45.5 64.96 45.52 64.98 45.52"/>
      <polygon class="cls-1" points="54.52 50.43 59.91 45.55 59.94 45.55 64.81 50.43 59.87 50.43 64.96 55.63 64.96 55.42 64.96 50.59 69.93 55.57 69.93 50.63 74.78 55.63 74.78 50.43 69.93 50.43 69.93 45.52 64.98 45.52 69.74 50.43 64.96 50.43 64.96 45.52 59.94 45.43 54.73 45.33 60.03 40.41 64.96 45.5 64.96 35.63 60 40.38 59.96 40.41 54.52 35.29 54.52 45.32 49.62 45.23 49.62 50.43 54.52 45.52 54.52 50.43"/>
      <polygon class="cls-1" points="69.93 55.64 65.18 55.63 64.96 55.63 69.93 60.28 69.93 55.64"/>
      <polygon class="cls-1" points="69.93 55.64 69.99 55.64 69.93 55.57 69.93 55.64"/>
      <polygon class="cls-1" points="54.52 50.43 54.52 55.17 54.52 55.51 54.52 55.61 59.87 50.43 59.22 50.43 54.52 50.43"/>
      <polygon class="cls-1" points="64.96 55.63 59.83 55.62 59.78 55.62 64.96 60.41 64.96 55.63"/>
      <polygon class="cls-1" points="69.93 65.11 69.94 65.09 69.93 65.09 69.93 65.11"/>
      <polygon class="cls-1" points="59.78 55.62 59.73 55.62 54.52 55.61 54.52 60.46 59.78 55.62"/>
      <polygon class="cls-1" points="64.96 74.86 69.99 74.86 69.9 70 64.96 74.86"/>
    </g>
  </g>
  <g>
    <polygon class="cls-2" points="100.49 19.57 100.49 45.63 105.69 45.63 105.69 34.09 110 34.09 110 85.44 105.69 85.44 105.69 74.36 100.49 74.36 100.49 100.43 74.16 100.51 74.16 105.69 85.71 105.69 85.71 110 34.28 110 34.28 105.69 45.38 105.69 45.38 100.51 19.5 100.43 19.5 73.9 14.31 73.9 14.31 85.44 10 85.44 10 34.09 14.31 34.09 14.31 45.17 19.5 45.17 19.5 19.57 45.61 19.49 45.61 14.3 34.05 14.3 34.05 10 85.48 10 85.48 14.3 74.39 14.3 74.39 19.49 100.49 19.57"/>
    <path class="cls-2" d="m54.09,31.87c0-2.67,2.58-3.38,6.09-4.2,3.51.82,6.06,1.65,5.88,4.17"/>
    <path class="cls-2" d="m41.07,38.59c-1.33-2.31.54-4.21,3.17-6.68,3.45-1.04,6.07-1.6,7.18.68"/>
    <path class="cls-2" d="m33.16,50.9c-2.31-1.33-1.64-3.92-.6-7.36,2.47-2.63,4.46-4.42,6.56-3"/>
    <path class="cls-2" d="m32.48,65.52c-2.67,0-3.38-2.57-4.2-6.08.82-3.51,1.65-6.05,4.18-5.87"/>
    <path class="cls-2" d="m39.2,78.52c-2.31,1.33-4.22-.54-6.68-3.17-1.04-3.45-1.6-6.06.68-7.17"/>
    <path class="cls-2" d="m51.54,86.41c-1.33,2.31-3.92,1.64-7.37.6-2.63-2.46-4.42-4.45-3-6.55"/>
    <path class="cls-2" d="m66.17,87.1c0,2.67-2.58,3.38-6.09,4.2-3.51-.82-6.06-1.65-5.88-4.17"/>
    <path class="cls-2" d="m79.19,80.38c1.33,2.31-.54,4.21-3.17,6.68-3.45,1.04-6.07,1.6-7.18-.68"/>
    <path class="cls-2" d="m87.09,68.07c2.31,1.33,1.64,3.92.6,7.36-2.47,2.63-4.46,4.42-6.56,3"/>
    <path class="cls-2" d="m87.78,53.45c2.67,0,3.38,2.57,4.2,6.08-.82,3.51-1.65,6.05-4.18,5.87"/>
    <path class="cls-2" d="m81.05,40.46c2.31-1.33,4.22.54,6.68,3.17,1.04,3.45,1.6,6.06-.68,7.17"/>
    <path class="cls-2" d="m68.72,32.56c1.33-2.31,3.92-1.64,7.37-.6,2.63,2.46,4.42,4.45,3,6.55"/>
    <ellipse class="cls-2" cx="60.12" cy="59.62" rx="28.03" ry="28.25"/>
    <g>
      <ellipse class="cls-2" cx="60.23" cy="59.9" rx="34.92" ry="35.19"/>
      <path class="cls-2" d="m54.2,25.09c0-2.54,2.13-5.02,5.81-6.21,3.99,1.06,6.53,3.67,6.53,6.21"/>
      <path class="cls-2" d="m42.66,29.25c-.87-2.39.28-5.45,3.34-7.82,4.12-.37,7.39,1.21,8.26,3.6"/>
      <path class="cls-2" d="m33.23,37.11c-1.63-1.95-1.6-5.22.46-8.49,3.74-1.75,7.36-1.39,9,.56"/>
      <path class="cls-2" d="m27.07,47.72c-2.2-1.27-3.29-4.36-2.47-8.14,2.92-2.93,6.44-3.82,8.64-2.55"/>
      <path class="cls-2" d="m24.9,59.79c-2.5-.44-4.58-2.97-5.11-6.8,1.74-3.75,4.75-5.8,7.25-5.36"/>
      <path class="cls-2" d="m26.99,71.89c-2.5.44-5.32-1.22-7.12-4.64.35-4.12,2.48-7.07,4.98-7.51"/>
      <path class="cls-2" d="m33.1,82.53c-2.2,1.27-5.41.67-8.28-1.93-1.08-3.99-.09-7.49,2.11-8.76"/>
      <path class="cls-2" d="m42.47,90.45c-1.63,1.95-4.86,2.48-8.44,1.02-2.38-3.38-2.65-7.01-1.01-8.96"/>
      <path class="cls-2" d="m53.99,94.68c-.87,2.39-3.72,3.99-7.58,3.85-3.39-2.36-4.88-5.68-4.02-8.07"/>
      <path class="cls-2" d="m66.26,94.72c0,2.54-2.13,5.02-5.81,6.21-3.99-1.06-6.53-3.67-6.53-6.21"/>
      <path class="cls-2" d="m77.81,90.55c.87,2.39-.28,5.45-3.34,7.82-4.12.37-7.39-1.21-8.26-3.6"/>
      <path class="cls-2" d="m87.23,82.69c1.63,1.95,1.6,5.22-.46,8.49-3.74,1.75-7.36,1.39-9-.56"/>
      <path class="cls-2" d="m93.4,72.09c2.2,1.27,3.29,4.36,2.47,8.14-2.92,2.93-6.44,3.82-8.64,2.55"/>
      <path class="cls-2" d="m95.57,60.01c2.5.44,4.58,2.97,5.11,6.8-1.74,3.75-4.75,5.8-7.25,5.36"/>
      <path class="cls-2" d="m93.47,47.92c2.5-.44,5.32,1.22,7.12,4.64-.35,4.12-2.48,7.07-4.98,7.51"/>
      <path class="cls-2" d="m87.37,37.27c2.2-1.27,5.41-.67,8.28,1.93,1.08,3.99.09,7.49-2.11,8.76"/>
      <path class="cls-2" d="m77.99,29.35c1.63-1.95,4.86-2.48,8.44-1.02,2.38,3.38,2.65,7.01,1.01,8.96"/>
      <path class="cls-2" d="m66.47,25.12c.87-2.39,3.72-3.99,7.58-3.85,3.39,2.36,4.88,5.68,4.02,8.07"/>
    </g>
  </g>
</svg>