<?xml version="1.0" encoding="UTF-8"?>
<svg id="Layer_2" data-name="Layer 2" xmlns="http://www.w3.org/2000/svg" viewBox="0 0 120 120">
  <defs>
    <style>
      .cls-1 {
        fill: none;
        stroke: #000;
        stroke-linecap: round;
        stroke-linejoin: round;
        stroke-width: 3px;
      }
    </style>
  </defs>
  <ellipse class="cls-1" cx="59.93" cy="60.22" rx="24.79" ry="24.76"/>
  <path class="cls-1" d="m50.8,36.8c0-5.62,3.97-11.3,9.85-14.03,5.89,2.79,9.85,8.03,9.85,14.03"/>
  <path class="cls-1" d="m37.17,50.27c-4.25-4.24-5.16-10.75-2.97-16.88,6.14-2.19,12.72-.58,16.97,3.66"/>
  <path class="cls-1" d="m36.87,69.63c-8.92,0-12.57-4.86-14.39-9.52,2.79-5.88,8.69-9.84,14.69-9.84"/>
  <path class="cls-1" d="m50.09,82.96c-4.25,4.24-10.65,5.15-16.56,3.18-2.16-5.72-.74-11.58,3.34-16.51"/>
  <path class="cls-1" d="m69.3,83.2c0,6-3.97,11.25-9.85,14.03-5.89-2.79-9.36-8.28-9.36-14.28"/>
  <path class="cls-1" d="m82.77,70.08c4.38,4.1,5.51,10.58,3.52,16.78-6.06,2.39-14.52.28-16.99-3.65"/>
  <path class="cls-1" d="m82.99,51.11c6.01,0,11.75,3.96,14.54,9.84-2.79,5.88-8.75,9.13-14.76,9.13"/>
  <path class="cls-1" d="m69.82,37.58c4.25-4.24,10.77-5.15,16.9-2.97,2.19,6.13.51,12.26-3.74,16.5"/>
  <ellipse class="cls-1" cx="60" cy="60" rx="37.53" ry="37.48"/>
  <polygon class="cls-1" points="100.49 19.57 100.49 45.63 105.69 45.63 105.69 34.09 110 34.09 110 85.44 105.69 85.44 105.69 74.36 100.49 74.36 100.49 100.43 74.16 100.51 74.16 105.69 85.71 105.69 85.71 110 34.28 110 34.28 105.69 45.38 105.69 45.38 100.51 19.5 100.43 19.5 73.9 14.31 73.9 14.31 85.44 10 85.44 10 34.09 14.31 34.09 14.31 45.17 19.5 45.17 19.5 19.57 45.61 19.49 45.61 14.3 34.05 14.3 34.05 10 85.48 10 85.48 14.3 74.39 14.3 74.39 19.49 100.49 19.57"/>
  <polygon class="cls-1" points="84.69 60.12 60 84.78 35.31 60.12 60 35.46 84.69 60.12"/>
  <ellipse class="cls-1" cx="59.69" cy="59.95" rx="10.9" ry="10.89"/>
  <line class="cls-1" x1="59.69" y1="49.06" x2="59.69" y2="35.46"/>
  <line class="cls-1" x1="55.96" y1="49.72" x2="51.31" y2="36.94"/>
  <line class="cls-1" x1="52.69" y1="51.61" x2="48.65" y2="46.8"/>
  <line class="cls-1" x1="50.25" y1="54.51" x2="38.46" y2="47.71"/>
  <line class="cls-1" x1="48.96" y1="58.06" x2="39.11" y2="56.32"/>
  <line class="cls-1" x1="48.96" y1="61.84" x2="35.55" y2="64.2"/>
  <line class="cls-1" x1="50.25" y1="65.39" x2="44.12" y2="68.93"/>
  <line class="cls-1" x1="52.69" y1="68.29" x2="43.93" y2="78.71"/>
  <line class="cls-1" x1="55.96" y1="70.18" x2="53.14" y2="77.93"/>
  <line class="cls-1" x1="59.69" y1="70.83" x2="59.69" y2="84.44"/>
  <line class="cls-1" x1="63.42" y1="70.18" x2="66.41" y2="78.38"/>
  <line class="cls-1" x1="66.7" y1="68.29" x2="75.45" y2="78.71"/>
  <line class="cls-1" x1="69.13" y1="65.39" x2="75.65" y2="69.15"/>
  <line class="cls-1" x1="70.43" y1="61.84" x2="84.72" y2="64.36"/>
  <line class="cls-1" x1="70.43" y1="58.06" x2="80.8" y2="56.23"/>
  <line class="cls-1" x1="69.13" y1="54.51" x2="80.93" y2="47.71"/>
  <line class="cls-1" x1="66.7" y1="51.61" x2="71.08" y2="46.4"/>
  <line class="cls-1" x1="63.42" y1="49.72" x2="68.08" y2="36.94"/>
</svg>