<?xml version="1.0" encoding="UTF-8"?>
<svg id="Layer_2" data-name="Layer 2" xmlns="http://www.w3.org/2000/svg" viewBox="0 0 120 120">
  <defs>
    <style>
      .cls-1 {
        stroke-width: 2px;
      }

      .cls-1, .cls-2 {
        fill: none;
        stroke: #000;
        stroke-linecap: round;
        stroke-linejoin: round;
      }

      .cls-2 {
        stroke-width: 3px;
      }
    </style>
  </defs>
  <polygon class="cls-2" points="100.49 19.51 100.49 45.61 105.69 45.61 105.69 34.06 110 34.06 110 85.47 105.69 85.47 105.69 74.38 100.49 74.38 100.49 100.48 74.16 100.56 74.16 105.75 85.71 105.75 85.71 110.07 34.28 110.07 34.28 105.75 45.38 105.75 45.38 100.56 19.5 100.48 19.5 73.92 14.32 73.92 14.32 85.47 10 85.47 10 34.06 14.32 34.06 14.32 45.15 19.5 45.15 19.5 19.51 45.61 19.43 45.61 14.24 34.06 14.24 34.06 9.93 85.48 9.93 85.48 14.24 74.39 14.24 74.39 19.43 100.49 19.51"/>
  <circle class="cls-2" cx="60.04" cy="60.03" r="23.45"/>
  <path class="cls-2" d="m51.32,37.94c0-4.9,3.55-9.19,8.82-11.47,5.27,2.28,8.98,7.03,8.98,11.94"/>
  <path class="cls-2" d="m53.35,26.83c0-3.01,3.53-5.25,8.8-6.65,5.27,1.4,8.67,4.5,8.67,7.51"/>
  <path class="cls-2" d="m35.25,36.82c-1.59-2.55.03-6.66,3.76-10.64,5.21-1.61,9.72-1.15,11.31,1.4"/>
  <path class="cls-2" d="m26.72,53.48c-2.7-1.32-3.51-5.66-2.45-11.01,3.57-4.13,7.68-6.17,10.39-4.85"/>
  <path class="cls-2" d="m28.31,72.13c-2.99.31-5.97-2.94-7.91-8.04.84-5.39,3.24-9.29,6.23-9.61"/>
  <path class="cls-2" d="m39.55,87.11c-2.37,1.85-6.63.67-10.97-2.62-2.15-5.01-2.06-9.31.31-11.16"/>
  <path class="cls-2" d="m57.01,93.85c-1.03,2.82-5.26,4.08-10.69,3.59-4.48-3.11-6.62-6.77-5.59-9.59"/>
  <path class="cls-2" d="m75.39,90.32c.62,2.94-2.3,6.25-7.17,8.71-5.45-.27-9.27-2.24-9.9-5.18"/>
  <path class="cls-2" d="m89.11,77.58c2.09,2.16,1.36,6.52-1.46,11.19-4.76,2.66-9.22,3.11-11.3.95"/>
  <path class="cls-2" d="m93.99,59.51c2.92.73,4.61,4.81,4.69,10.26-2.63,4.78-6.17,7.53-9.09,6.81"/>
  <path class="cls-2" d="m88.56,41.6c2.86-.93,6.46,1.64,9.41,6.22.3,5.45-1.47,9.54-4.33,10.46"/>
  <path class="cls-2" d="m74.46,29.29c1.93-2.3,6.34-2.03,11.28.29,3.14,4.46,3.97,8.72,2.04,11.02"/>
  <path class="cls-2" d="m38.26,50.58c-3.47-3.47-3.99-9.01-1.87-14.35,5.34-2.12,11.47-1.75,14.94,1.72"/>
  <path class="cls-2" d="m37.95,68.75c-4.9,0-9.19-3.55-11.47-8.82,2.28-5.27,6.87-9.35,11.78-9.35"/>
  <path class="cls-2" d="m50.59,81.82c-3.47,3.47-9.01,3.99-14.35,1.87-2.12-5.34-1.29-11.11,2.18-14.58"/>
  <path class="cls-2" d="m68.76,81.81c0,4.9-3.55,9.51-8.82,11.78-5.27-2.28-8.61-6.88-8.61-11.78"/>
  <path class="cls-2" d="m81.82,69.49c3.47,3.47,3.99,9.01,1.87,14.35-5.34,2.12-11.11,1.29-14.58-2.18"/>
  <path class="cls-2" d="m81.75,51.17c4.9,0,9.87,3.59,12.15,8.86-2.28,5.27-7.31,9.02-12.21,9.02"/>
  <path class="cls-2" d="m69.49,38.25c3.47-3.47,9.01-3.99,14.35-1.87,2.12,5.34,1.38,11.33-2.09,14.79"/>
  <circle class="cls-2" cx="60.04" cy="60.03" r="33.86"/>
  <polygon class="cls-1" points="59.88 65.79 39.05 65.79 39.05 65.79 59.92 38.3 59.92 38.3 80.66 65.79 59.88 65.79"/>
  <polygon class="cls-1" points="59.9 54.23 80.73 54.23 80.73 54.23 59.87 81.72 59.87 81.72 39.12 54.23 59.9 54.23"/>
  <polygon class="cls-1" points="58.63 75.9 49.3 75.9 49.3 75.9 59.9 54.23 59.9 54.23 70.7 75.9 58.63 75.9"/>
  <polygon class="cls-1" points="61.15 44.01 70.49 44.01 70.49 44.01 59.88 65.69 59.88 65.69 49.08 44.01 61.15 44.01"/>
  <polygon class="cls-1" points="61.62 49.13 74.75 49.13 74.75 49.13 59.85 75.9 59.85 75.9 45.01 49.13 61.62 49.13"/>
  <polygon class="cls-1" points="58.19 70.79 45.06 70.79 45.06 70.79 59.95 44.01 59.95 44.01 74.8 70.79 58.19 70.79"/>
</svg>