<?xml version="1.0" encoding="UTF-8"?>
<svg id="Layer_2" data-name="Layer 2" xmlns="http://www.w3.org/2000/svg" viewBox="0 0 120 120">
  <defs>
    <style>
      .cls-1, .cls-2 {
        fill: none;
      }

      .cls-3 {
        fill: #fff;
      }

      .cls-2 {
        stroke: #000;
        stroke-linecap: round;
        stroke-linejoin: round;
        stroke-width: 3px;
      }
    </style>
  </defs>
  <polygon class="cls-2" points="100.49 19.57 100.49 45.63 105.69 45.63 105.69 34.09 110 34.09 110 85.44 105.69 85.44 105.69 74.36 100.49 74.36 100.49 100.43 74.16 100.51 74.16 105.69 85.71 105.69 85.71 110 34.28 110 34.28 105.69 45.38 105.69 45.38 100.51 19.5 100.43 19.5 73.9 14.32 73.9 14.32 85.44 10 85.44 10 34.09 14.32 34.09 14.32 45.17 19.5 45.17 19.5 19.57 45.61 19.49 45.61 14.3 34.06 14.3 34.06 10 85.48 10 85.48 14.3 74.39 14.3 74.39 19.49 100.49 19.57"/>
  <ellipse class="cls-2" cx="60" cy="60" rx="22.38" ry="22.35"/>
  <path class="cls-2" d="m51.73,39.06c0-4.65,3.27-7.92,8.28-10.08,5,2.16,8.97,5.72,8.97,10.37"/>
  <path class="cls-2" d="m51.86,29.39c0-2.8,3.32-5.26,8.24-6.56,4.92,1.3,8.38,3.93,8.38,6.73"/>
  <path class="cls-2" d="m36.85,38.35c-1.49-2.38.02-6.21,3.51-9.92,4.87-1.5,8.98-1.12,10.46,1.26"/>
  <path class="cls-2" d="m28.88,53.89c-2.52-1.23-3.28-5.28-2.29-10.27,3.33-3.85,7.18-5.44,9.7-4.22"/>
  <path class="cls-2" d="m30.37,71.29c-2.79.29-5.58-2.75-7.39-7.5.78-5.03,3.2-8.42,5.99-8.71"/>
  <path class="cls-2" d="m40.86,85.26c-2.21,1.73-6.19.63-10.25-2.45-2-4.68-1.94-8.73.27-10.46"/>
  <path class="cls-2" d="m57.17,91.56c-.96,2.63-4.92,3.81-9.99,3.35-4.18-2.91-6.17-6.56-5.21-9.19"/>
  <path class="cls-2" d="m74.35,88.26c.58,2.74-2.15,5.83-6.7,8.13-5.09-.25-8.72-2.3-9.3-5.04"/>
  <path class="cls-2" d="m87.16,76.38c1.95,2.02,1.27,6.08-1.37,10.44-4.45,2.48-8.61,2.9-10.56.89"/>
  <path class="cls-2" d="m91.73,59.52c2.72.68,4.3,4.49,4.38,9.57-2.46,4.46-5.77,7.04-8.5,6.36"/>
  <path class="cls-2" d="m86.65,42.81c2.67-.87,6.03,1.53,8.79,5.8.28,5.08-1.38,8.9-4.05,9.76"/>
  <path class="cls-2" d="m73.48,31.32c1.8-2.15,5.92-1.9,10.53.27,2.93,4.16,3.55,8.27,1.75,10.42"/>
  <path class="cls-2" d="m39.32,51.04c-3.29-3.29-3.57-7.63-1.56-12.69,5.07-2.01,10.67-2.57,13.96.71"/>
  <path class="cls-2" d="m39.04,68.26c-4.66,0-7.93-3.27-10.09-8.26,2.16-5,5.35-8.24,10-8.24"/>
  <path class="cls-2" d="m51.03,80.65c-3.29,3.29-7.5,3.7-12.56,1.7-2.01-5.06-2.41-10.31.88-13.6"/>
  <path class="cls-2" d="m68.28,80.94c0,4.65-3.27,7.92-8.28,10.08-5-2.16-8.28-5.49-8.28-10.14"/>
  <path class="cls-2" d="m80.68,68.96c3.29,3.29,3.09,8.11,1.08,13.17-5.07,2.01-9.57,1.72-12.86-1.56"/>
  <path class="cls-2" d="m80.97,51.74c4.66,0,7.93,3.27,10.09,8.26-2.16,5-5.45,8.75-10.1,8.75"/>
  <path class="cls-2" d="m68.97,39.35c3.29-3.29,7.72-3.01,12.79-1,2.01,5.06,2.2,9.76-1.09,13.04"/>
  <ellipse class="cls-2" cx="60" cy="60" rx="31.06" ry="31.02"/>
  <ellipse class="cls-2" cx="60" cy="60" rx="40.48" ry="40.43"/>
  <polygon class="cls-1" points="100.49 19.57 100.49 45.63 105.69 45.63 105.69 34.09 110 34.09 110 85.44 105.69 85.44 105.69 74.36 100.49 74.36 100.49 100.43 74.16 100.51 74.16 105.69 85.71 105.69 85.71 110 34.28 110 34.28 105.69 45.38 105.69 45.38 100.51 19.5 100.43 19.5 73.9 14.31 73.9 14.31 85.44 10 85.44 10 34.09 14.31 34.09 14.31 45.17 19.5 45.17 19.5 19.57 45.61 19.49 45.61 14.3 34.05 14.3 34.05 10 85.48 10 85.48 14.3 74.39 14.3 74.39 19.49 100.49 19.57"/>
  <ellipse class="cls-1" cx="60" cy="60" rx="40.48" ry="40.43"/>
  <g>
    <polygon class="cls-3" points="54.11 54.29 49.62 54.29 52.33 50.72 54.11 54.29"/>
    <polygon class="cls-3" points="74.7 60.02 72.78 62.55 71.23 64.59 68.62 59.89 71.15 55.33 74.7 60.02"/>
    <polygon class="cls-3" points="70.38 65.7 67.7 69.23 65.93 65.7 70.38 65.7"/>
    <polygon class="cls-3" points="70.37 54.29 65.77 54.29 67.58 50.6 70.37 54.29"/>
    <polygon class="cls-3" points="67.76 59.89 65.27 64.37 63.02 59.88 65.24 55.36 67.76 59.89"/>
    <polygon class="cls-3" points="66.89 70.31 63.86 74.28 60.61 74.28 62.82 70.31 66.89 70.31"/>
    <polygon class="cls-3" points="66.82 49.58 62.89 49.58 60.69 45.62 63.82 45.62 66.82 49.58"/>
    <polygon class="cls-3" points="64.65 54.29 55.45 54.29 57.65 50.33 62.45 50.33 64.65 54.29"/>
    <polygon class="cls-3" points="64.53 65.7 62.38 69.56 57.57 69.56 55.43 65.7 64.53 65.7"/>
    <polygon class="cls-3" points="62.19 59.89 59.99 64.39 57.81 60.01 60.01 55.51 62.19 59.89"/>
    <polygon class="cls-3" points="59.42 45.62 57.21 49.58 53.19 49.58 56.21 45.62 59.42 45.62"/>
    <polygon class="cls-3" points="59.33 74.28 56.12 74.28 53.78 71.19 53.11 70.31 57.13 70.31 59.33 74.28"/>
    <polygon class="cls-3" points="56.97 60.02 54.77 64.51 52.27 60 54.74 55.56 56.97 60.02"/>
    <polygon class="cls-3" points="54.19 65.7 52.39 69.36 51.17 67.74 49.63 65.7 54.19 65.7"/>
    <polygon class="cls-3" points="51.41 60 48.82 64.64 45.3 59.97 48.82 55.33 51.41 60"/>
    <path d="m75.64,60.03l3.91-5.14c.08-.11.1-.26.03-.39-.06-.13-.19-.21-.33-.21h-7.51l2.31-4.15c.06-.12.06-.26-.01-.37-.06-.12-.19-.19-.32-.19h-5.64l2.04-4.17c.06-.12.05-.25-.02-.36-.06-.11-.18-.18-.31-.18h-5.6l-3.86-5.11c-.08-.1-.19-.15-.3-.15-.12,0-.23.05-.3.14l-3.89,5.12h-5.83c-.13,0-.25.07-.32.18-.06.11-.07.25-.01.36l2.08,4.17h-5.5c-.13,0-.25.07-.32.19-.07.11-.07.25,0,.37l2.31,4.15h-7.44c-.14,0-.27.08-.33.21-.07.13-.05.28.04.39l3.79,5.02.05.06-3.91,5.13c-.09.11-.1.26-.04.39.07.13.2.21.34.21h7.48l-2.26,4.05c-.06.12-.06.26.01.37.07.12.19.19.32.19h5.63l-2.05,4.18c-.05.12-.05.25.02.36.07.11.19.18.32.18h5.52l.25.33,3.69,4.88c.07.09.18.15.3.15s.23-.06.3-.15l3.96-5.21h5.74c.13,0,.25-.07.32-.18.07-.11.08-.25.02-.36l-2.08-4.18h5.52c.13,0,.25-.07.32-.19.07-.11.07-.25.01-.37l-2.26-4.05h7.35c.14,0,.27-.08.34-.21.06-.12.05-.28-.04-.39l-3.84-5.07Zm-5.27-5.74h-4.6l1.81-3.69,2.79,3.69Zm-14.92,0l2.2-3.96h4.8l2.2,3.96h-9.2Zm6.74,5.6l-2.2,4.5-2.18-4.38,2.2-4.5,2.18,4.38Zm-5.22.13l-2.2,4.49-2.5-4.51,2.47-4.44,2.23,4.46Zm8.27-4.66l2.52,4.53-2.49,4.48-2.25-4.49,2.22-4.52Zm1.58-5.78h-3.93l-2.2-3.96h3.13l3,3.96Zm-10.61-3.96h3.21l-2.21,3.96h-4.02l3.02-3.96Zm-3.88,5.1l1.78,3.57h-4.49l2.71-3.57Zm-7.03,9.25l3.52-4.64,2.59,4.67-2.59,4.64-3.52-4.67Zm5.87,7.77l-1.54-2.04h4.56l-1.8,3.66-1.22-1.62Zm4.95,6.54l-2.34-3.09-.67-.88h4.02l2.2,3.97h-3.21Zm1.45-4.72l-2.14-3.86h9.1l-2.15,3.86h-4.81Zm6.29,4.72h-3.25l2.21-3.97h4.07l-3.03,3.97Zm3.84-5.05l-1.77-3.53h4.45l-2.68,3.53Zm5.08-6.68l-1.55,2.04-2.61-4.7,2.53-4.56,3.55,4.69-1.92,2.53Z"/>
  </g>
</svg>