<?xml version="1.0" encoding="UTF-8"?>
<svg id="Layer_2" data-name="Layer 2" xmlns="http://www.w3.org/2000/svg" viewBox="0 0 120 120">
  <defs>
    <style>
      .cls-1 {
        fill: none;
        stroke: #000;
        stroke-linecap: round;
        stroke-linejoin: round;
        stroke-width: 3px;
      }
    </style>
  </defs>
  <polygon class="cls-1" points="60 52.75 72.76 52.75 66.38 63.65 60 74.54 53.62 63.65 47.24 52.75 60 52.75"/>
  <polygon class="cls-1" points="60 67.23 47.24 67.23 53.62 56.33 60 45.44 66.38 56.33 72.76 67.23 60 67.23"/>
  <ellipse class="cls-1" cx="59.34" cy="60.08" rx="16.81" ry="16.76"/>
  <path class="cls-1" d="m53.16,44.22c0-4.06,2.69-7.61,6.68-9.5,3.99,1.89,6.68,5.44,6.68,9.5"/>
  <path class="cls-1" d="m52.82,34.72c0-4.87,3.23-9.13,8.02-11.4,4.79,2.26,7.83,7.05,7.83,11.92"/>
  <path class="cls-1" d="m39.28,43.76c-2.87-3.94-2.78-9.28-.23-13.92,5.21-.98,10.49,1.12,13.36,5.06"/>
  <path class="cls-1" d="m33.66,59c-4.65-1.51-7.72-5.88-8.4-11.12,3.64-3.84,9.14-5.24,13.79-3.74"/>
  <path class="cls-1" d="m38.11,74.62c-4.65,1.51-9.71-.24-13.35-4.08.68-5.24,4.31-9.6,8.96-11.1"/>
  <path class="cls-1" d="m50.91,84.66c-2.87,3.94-8,5.5-13.21,4.52-2.54-4.64-2.18-10.29.7-14.23"/>
  <path class="cls-1" d="m67.18,85.28c0,4.87-3.23,9.13-8.02,11.4-4.79-2.26-7.83-7.05-7.83-11.92"/>
  <path class="cls-1" d="m80.72,76.24c2.87,3.94,2.78,9.28.23,13.92-5.21.98-10.49-1.12-13.36-5.06"/>
  <path class="cls-1" d="m86.34,61c4.65,1.51,7.72,5.88,8.4,11.12-3.64,3.84-9.14,5.24-13.79,3.74"/>
  <path class="cls-1" d="m81.89,45.38c4.65-1.51,9.71.24,13.35,4.08-.68,5.24-4.31,9.6-8.96,11.1"/>
  <path class="cls-1" d="m69.09,35.34c2.87-3.94,8-5.5,13.21-4.52,2.54,4.64,2.18,10.29-.7,14.23"/>
  <path class="cls-1" d="m43.91,53.34c-2.88-2.87-3.5-7.28-2.01-11.42,4.16-1.48,8.58-.86,11.46,2.01"/>
  <path class="cls-1" d="m43.48,66.66c-4.07,0-7.64-2.68-9.53-6.66,1.89-3.98,5.45-6.66,9.53-6.66"/>
  <path class="cls-1" d="m52.66,75.36c-2.88,2.87-7.2,3.59-11.21,2.26-1.34-4-.62-8.3,2.26-11.17"/>
  <path class="cls-1" d="m65.7,75.63c0,4.06-2.69,7.61-6.68,9.5-3.99-1.89-6.68-5.44-6.68-9.5"/>
  <path class="cls-1" d="m74.83,66.75c2.97,2.78,3.73,7.16,2.39,11.35-4.11,1.61-8.55,1.14-11.52-1.63"/>
  <path class="cls-1" d="m75.31,53.91c4.07,0,7.64,2.68,9.53,6.66-1.89,3.98-5.45,6.66-9.53,6.66"/>
  <path class="cls-1" d="m66.05,44.75c2.88-2.87,7.3-3.49,11.46-2.01,1.48,4.15.87,8.55-2.01,11.42"/>
  <polygon class="cls-1" points="100.57 19.57 100.57 45.63 105.77 45.63 105.77 34.09 110.09 34.09 110.09 85.44 105.77 85.44 105.77 74.36 100.57 74.36 100.57 100.43 74.18 100.51 74.18 105.69 85.76 105.69 85.76 110 34.24 110 34.24 105.69 45.36 105.69 45.36 100.51 19.43 100.43 19.43 73.9 14.23 73.9 14.23 85.44 9.91 85.44 9.91 34.09 14.23 34.09 14.23 45.17 19.43 45.17 19.43 19.57 45.58 19.49 45.58 14.3 34.01 14.3 34.01 10 85.53 10 85.53 14.3 74.41 14.3 74.41 19.49 100.57 19.57"/>
  <ellipse class="cls-1" cx="60" cy="60" rx="26.29" ry="26.21"/>
  <ellipse class="cls-1" cx="60" cy="60" rx="2.79" ry="2.78"/>
  <ellipse class="cls-1" cx="60" cy="60" rx="37.04" ry="36.93"/>
</svg>