<?xml version="1.0" encoding="UTF-8"?>
<svg id="Layer_2" data-name="Layer 2" xmlns="http://www.w3.org/2000/svg" viewBox="0 0 120 120">
  <defs>
    <style>
      .cls-1 {
        fill: none;
        stroke: #000;
        stroke-linecap: round;
        stroke-linejoin: round;
        stroke-width: 3px;
      }
    </style>
  </defs>
  <polygon class="cls-1" points="60.59 40.06 86.19 40.06 73.39 64.93 60.59 89.81 47.79 64.93 35.54 40.06 60.59 40.06"/>
  <ellipse class="cls-1" cx="60.86" cy="58.51" rx="31.36" ry="31.29"/>
  <polygon class="cls-1" points="100.71 19.64 100.71 45.68 105.91 45.68 105.91 34.15 110.22 34.15 110.22 85.46 105.91 85.46 105.91 74.39 100.71 74.39 100.71 100.43 74.38 100.52 74.38 105.7 85.93 105.7 85.93 110 34.5 110 34.5 105.7 45.6 105.7 45.6 100.52 19.72 100.43 19.72 73.93 14.54 73.93 14.54 85.46 10.22 85.46 10.22 34.15 14.54 34.15 14.54 45.22 19.72 45.22 19.72 19.64 45.83 19.55 45.83 14.37 34.27 14.37 34.27 10.07 85.7 10.07 85.7 14.37 74.61 14.37 74.61 19.55 100.71 19.64"/>
  <path class="cls-1" d="m49.2,29.03c0-6.55,4.75-12.27,11.8-15.31,7.05,3.04,11.52,9.18,11.52,15.73"/>
  <path class="cls-1" d="m31.73,45.9c-4.64-4.63-5.34-12.03-2.5-19.15,7.14-2.83,14.86-1.72,19.49,2.91"/>
  <path class="cls-1" d="m31.32,70.15c-6.56,0-12.29-4.74-15.34-11.78,3.05-7.04,9.11-11.98,15.67-11.98"/>
  <path class="cls-1" d="m48.22,87.59c-4.64,4.63-12.05,5.32-19.19,2.5-2.83-7.12-1.64-14.33,3-18.95"/>
  <path class="cls-1" d="m72.52,87.99c0,6.55-4.75,12.27-11.8,15.31-7.05-3.04-12-9.38-12-15.93"/>
  <path class="cls-1" d="m90,71.13c4.64,4.63,5.34,12.03,2.5,19.15-7.14,2.83-15.34,1.92-19.98-2.71"/>
  <path class="cls-1" d="m90.4,46.88c6.56,0,12.29,4.74,15.34,11.78-3.05,7.04-9.36,11.88-15.92,11.88"/>
  <path class="cls-1" d="m73.51,29.44c4.64-4.63,12.05-5.32,19.19-2.5,2.83,7.12,1.72,14.82-2.92,19.45"/>
</svg>