<?xml version="1.0" encoding="UTF-8"?>
<svg id="icons" xmlns="http://www.w3.org/2000/svg" viewBox="0 0 150 150">
  <defs>
    <style>
      .cls-1 {
        fill: none;
        stroke: #231f20;
        stroke-linecap: round;
        stroke-linejoin: round;
        stroke-width: 3px;
      }
    </style>
  </defs>
  <ellipse class="cls-1" cx="35.15" cy="114.63" rx="10.14" ry="10.28"/>
  <polygon class="cls-1" points="28.68 122.61 36.19 104.41 39.7 123.78 25.91 110.4 45.06 112.47 28.68 122.61"/>
  <g>
    <path class="cls-1" d="m53.5,80.76c-4.18,4.23-10.94,4.24-15.11.02-.59-.6-1.09-1.24-1.51-1.93,4.12,2.6,9.62,2.08,13.2-1.55s4.1-9.2,1.53-13.37c.68.43,1.32.94,1.91,1.53,4.17,4.22,4.16,11.08-.01,15.31Z"/>
    <path class="cls-1" d="m68.62,95.63c-4.18,4.23-4.18,11.08-.01,15.31.59.6,1.23,1.11,1.91,1.53-2.57-4.18-2.06-9.74,1.53-13.37,3.59-3.63,9.08-4.15,13.2-1.55-.42-.69-.93-1.33-1.51-1.93-4.17-4.22-10.93-4.22-15.11.02Z"/>
    <path class="cls-1" d="m68.91,95.34c-3.1,3.14-7.65,3.92-11.46,2.34-1.25-.53-2.43-1.3-3.45-2.33s-1.78-2.22-2.3-3.49c-1.56-3.86-.8-8.47,2.31-11.61,4.12-4.17,10.81-4.18,14.92-.01,4.11,4.17,4.11,10.94-.01,15.11Z"/>
  </g>
  <line class="cls-1" x1="39.24" y1="104.48" x2="51.7" y2="91.85"/>
  <line class="cls-1" x1="57.45" y1="97.68" x2="44.99" y2="110.3"/>
  <line class="cls-1" x1="82.91" y1="109.51" x2="72.34" y2="98.81"/>
  <line class="cls-1" x1="50.57" y1="76.76" x2="40.01" y2="66.07"/>
  <g>
    <polyline class="cls-1" points="56.76 77.27 56.76 77.27 125 24.91"/>
    <polyline class="cls-1" points="125 24.91 72.35 92.05 72.35 92.05"/>
  </g>
  <line class="cls-1" x1="68.93" y1="80.23" x2="81.15" y2="67.84"/>
</svg>