<?xml version="1.0" encoding="UTF-8"?>
<svg id="icons" xmlns="http://www.w3.org/2000/svg" viewBox="0 0 150 150">
  <defs>
    <style>
      .cls-1 {
        fill: none;
        stroke: #231f20;
        stroke-linecap: round;
        stroke-linejoin: round;
        stroke-width: 4px;
      }
    </style>
  </defs>
  <path class="cls-1" d="m120.32,101.56c.25-.25.66.05.47.35-9.23,13.89-25.43,23.1-43.89,23.1-29.9,0-53.93-24.2-51.96-53.34,1.66-24.59,22.25-44.62,47.84-46.51,23.25-1.72,43.59,11.24,52.02,30.23.12.28-.27.48-.44.23-7.19-10.33-19.68-16.96-33.72-16.35-19.42.84-35.39,15.89-36.62,34.51-1.41,21.47,16.32,39.34,38.4,39.34,11,0,20.91-4.44,27.91-11.55Z"/>
</svg>