<?xml version="1.0" encoding="UTF-8"?>
<svg id="icons" xmlns="http://www.w3.org/2000/svg" viewBox="0 0 150 150">
  <defs>
    <style>
      .cls-1 {
        fill: none;
        stroke: #231f20;
        stroke-linecap: round;
        stroke-linejoin: round;
        stroke-width: 4px;
      }
    </style>
  </defs>
  <path class="cls-1" d="m42.75,83.61c-.15-.41-.25-.83-.3-1.22.09.41.19.82.3,1.22Z"/>
  <path class="cls-1" d="m43.38,64.29c-.06.4-.18.78-.35,1.13.11-.38.23-.75.35-1.13Z"/>
  <path class="cls-1" d="m81,51.04c10.56,2.53,18.7,11.88,18.7,23.96,0,2.08-.26,4.1-.75,6.02.01.02,0,.03-.01.05-.26,1.27-.03,2.74.85,3.81,1.53,1.87,4.29,2.14,6.16.61.61-.51,1.08-1.28,1.35-2.07.01,0,0-.01,0-.01.1-.37.19-.73.27-1.1.52-2.35.8-4.8.8-7.31,0-3.31-.48-6.5-1.38-9.52-.04-.14-.08-.27-.12-.41"/>
  <path class="cls-1" d="m68.35,51.21c-7.44,2.07-13.46,7.54-16.29,14.63-1.5,3.76-1.91,7.86-1.44,11.88l.25,2.15c.09.78.15,1.57.16,2.36.01,1.16-.14,1.78-.86,2.66-1.53,1.87-4.29,2.14-6.16.61-.57-.47-.99-1.15-1.26-1.87"/>
  <path class="cls-1" d="m114.37,62.74c1.2,3.88,1.85,7.99,1.85,12.26,0,20.28-12.42,37.13-31.71,40.58-.14.02-.28.04-.42.07-.92.14-1.78.2-2.63-.16-2.02-.84-2.97-3.16-2.13-5.17.53-1.26,1.85-2.1,3.09-2.35,7.01-1.1,11.09-4.38,15.93-9.13.85-1.15,1.26-2.69.74-4.13-.82-2.31-3.42-3.66-5.67-2.69-.52.23-1.39.91-2.01,1.43-.08.07-.17.15-.24.21-.26.23-.44.39-.44.39-4.27,3.53-9.75,5.65-15.73,5.65-6.82,0-13-2.76-17.46-7.24"/>
  <path class="cls-1" d="m50.13,52.75c-.19.29-.43.57-.71.82-.71.64-1.66,1.1-2.64,1.1-2.19,0-3.96-1.77-3.96-3.96,0-.91.36-1.85.89-2.55.09-.11.18-.22.28-.32,7.55-8.62,18.64-14.06,31.01-14.06s22.71,5.08,30.24,13.21"/>
  <path class="cls-1" d="m100.24,53.16c-.13-.14-.25-.28-.38-.43"/>
  <path class="cls-1" d="m51,98.19c4.7,4.85,10.16,8.42,17.07,9.72.16.03.33.06.5.1.76.18,1.6.51,2.19,1.14,1.49,1.59,1.42,4.09-.17,5.59-.84.8-1.93,1.15-3,1.07-19.57-3.21-33.81-20.33-33.81-40.81,0-4.33.67-8.5,1.9-12.42.04-.12.08-.24.12-.36.32-.82.9-1.62,1.71-2.08,1.9-1.08,4.32-.42,5.4,1.47.47.82.61,1.78.47,2.67h0c-.12.39-.24.76-.35,1.14-.91,3.04-1.4,6.25-1.4,9.58,0,2.52.28,4.98.81,7.34,0,.02,0,.03.01.05.05.39.15.81.3,1.22h0"/>
  <path class="cls-1" d="m42.75,83.61c-.15-.41-.25-.83-.3-1.22.09.41.19.82.3,1.22Z"/>
  <path class="cls-1" d="m43.38,64.29c-.06.4-.18.78-.35,1.13.11-.38.23-.75.35-1.13Z"/>
  <path class="cls-1" d="m99.7,75c0,2.08-.26,4.1-.75,6.02.01.02,0,.03-.01.05-.26,1.27-.03,2.74.85,3.81,1.53,1.87,4.29,2.14,6.16.61.61-.51,1.08-1.28,1.35-2.07.01,0,0-.01,0-.01.1-.37.19-.73.27-1.1.52-2.35.8-4.8.8-7.31,0-3.31-.48-6.5-1.38-9.52-.04-.14-.08-.27-.12-.41"/>
  <path class="cls-1" d="m84.51,115.58c-.14.02-.28.04-.42.07-.92.14-1.78.2-2.63-.16-2.02-.84-2.97-3.16-2.13-5.17.53-1.26,1.85-2.1,3.09-2.35,7.01-1.1,11.09-4.38,15.93-9.13.85-1.15,1.26-2.69.74-4.13-.82-2.31-3.42-3.66-5.67-2.69-.52.23-1.39.91-2.01,1.43-.08.07-.17.15-.24.21-.26.23-.44.39-.44.39"/>
  <path class="cls-1" d="m114.37,62.74c1.2,3.88,1.67,7.99,1.85,12.26"/>
  <path class="cls-1" d="m67.7,42.47c-6.14.75-12.77,4.93-17.57,10.28-.19.29-.43.57-.71.82-.71.64-1.66,1.1-2.64,1.1-2.19,0-3.96-1.77-3.96-3.96,0-.91.36-1.85.89-2.55.09-.11.18-.22.28-.32,7.55-8.62,18.64-14.06,31.01-14.06s22.71,5.08,30.24,13.21l.83.98c.69.71,1.11,1.68,1.11,2.74,0,2.19-1.77,3.96-3.96,3.96-1.19,0-2.11-.59-2.98-1.51-.13-.14-.25-.28-.38-.43"/>
  <path class="cls-1" d="m100.24,53.16c-.13-.14-.25-.28-.38-.43-4.7-5.23-8.37-8.27-16.49-9.99"/>
  <path class="cls-1" d="m43.38,64.29c-.06.4-.18.78-.35,1.13.11-.38.23-.75.35-1.13Z"/>
  <path class="cls-1" d="m49.42,53.57c.23-.28.46-.55.71-.82-.19.29-.43.57-.71.82Z"/>
  <path class="cls-1" d="m82.61,70.03l-6.72.94-.28-5-3.25,6.38-4.53-2.49,4.06,6.28-4.5,2.83,7.05-.05.56,5.11,2.67-6.78,4.94,1.67-4.33-5.78,4.33-3.11Zm-7.61,6.57c-.88,0-1.6-.72-1.6-1.6s.72-1.6,1.6-1.6,1.6.72,1.6,1.6-.72,1.6-1.6,1.6Z"/>
  <circle class="cls-1" cx="75" cy="75" r="17"/>
  <path class="cls-1" d="m50.13,52.75c-.19.29-.43.57-.71.82-.71.64-1.66,1.1-2.64,1.1-2.19,0-3.96-1.77-3.96-3.96,0-.91.36-1.85.89-2.55.09-.11.18-.22.28-.32"/>
  <path class="cls-1" d="m114.37,62.74c-.28-.95-1.03-2.07-1.96-2.6-1.89-1.08-4.31-.42-5.39,1.47-.61,1.07-.48,2.23-.15,3.46.04.14.08.27.12.41"/>
  <path class="cls-1" d="m43.38,64.29c-.06.4-.18.78-.35,1.13"/>
  <path class="cls-1" d="m67.59,115.81c-.2-.02-.39-.04-.58-.09"/>
  <path class="cls-1" d="m84.51,115.58c-.14.02-.28.04-.42.07-.92.14-1.78.2-2.63-.16-2.02-.84-2.97-3.16-2.13-5.17.53-1.26,1.85-2.1,3.09-2.35"/>
  <path class="cls-1" d="m57.74,92.67c-.07-.07-.14-.14-.2-.21-1.1-1.11-1.99-1.7-3.43-1.75-2.45-.07-4.5,1.86-4.57,4.31-.04,1.2.72,2.35,1.46,3.17"/>
  <path class="cls-1" d="m90.73,94.05s.18-.16.44-.39c.6-.52,1.65-1.38,2.25-1.64,2.25-.97,4.85.38,5.67,2.69.52,1.44.11,2.98-.74,4.13"/>
  <path class="cls-1" d="m107.57,82.31c-.04.35-.13.73-.27,1.1,0,0,.01.01,0,.01-.27.79-.74,1.56-1.35,2.07-1.87,1.53-4.63,1.26-6.16-.61-.88-1.07-1.11-2.54-.85-3.81.01-.02.02-.03.01-.05.03-.11.06-.21.09-.31"/>
  <g>
    <path class="cls-1" d="m68.05,51.22c.1-.03.19-.05.28-.07,1.51-.4,2.47-.88,3.23-2.1,1.28-2.09.63-4.83-1.45-6.11-1.02-.63-2.4-.55-3.48-.32"/>
    <path class="cls-1" d="m81.67,51.26c-1.37-.32-2.55-1.3-3.09-2.71-.86-2.26.29-4.79,2.54-5.64.69-.26,1.49-.28,2.25-.16"/>
  </g>
  <circle class="cls-1" cx="75" cy="75" r="50"/>
</svg>