<?xml version="1.0" encoding="UTF-8"?>
<svg id="icons" xmlns="http://www.w3.org/2000/svg" viewBox="0 0 150 150">
  <defs>
    <style>
      .cls-1 {
        fill: none;
        stroke: #231f20;
        stroke-linecap: round;
        stroke-linejoin: round;
        stroke-width: 4px;
      }
    </style>
  </defs>
  <path class="cls-1" d="m104.85,57.74c-4.88-1.14-7.82-4.5-7.82-9.74s2.96-8.78,7.4-10.98"/>
  <path class="cls-1" d="m58.32,47.4c0,6.03-4.88,10.93-10.9,10.93-.85,0-1.68-.1-2.47-.28,4.83-1.12,8.43-5.46,8.43-10.64s-3.6-9.52-8.43-10.64c.79-.19,1.62-.28,2.47-.28,6.02,0,10.9,4.89,10.9,10.93Z"/>
  <path class="cls-1" d="m100.39,112.97c4.88-1.14,8.07-5.4,8.07-10.64s-3.32-9.24-8.21-10.38"/>
  <path class="cls-1" d="m49.37,113.35c-3.41-.74-7.56-5.54-7.56-10.58s2.95-9.58,7.64-10.67"/>
  <circle class="cls-1" cx="75" cy="114.04" r="10.93"/>
  <line class="cls-1" x1="35.46" y1="64.48" x2="35.46" y2="85.59"/>
  <line class="cls-1" x1="114.54" y1="63.7" x2="114.54" y2="85.54"/>
  <g>
    <circle class="cls-1" cx="75" cy="35.96" r="10.93"/>
    <line class="cls-1" x1="66.18" y1="42.4" x2="83.83" y2="29.54"/>
    <line class="cls-1" x1="64.07" y1="35.96" x2="78.83" y2="25.74"/>
    <line class="cls-1" x1="71.45" y1="46.3" x2="85.92" y2="35.96"/>
  </g>
  <g>
    <circle class="cls-1" cx="47.4" cy="47.4" r="10.93"/>
    <line class="cls-1" x1="37.8" y1="52.71" x2="51.63" y2="43.04"/>
    <line class="cls-1" x1="36.47" y1="47.4" x2="49.05" y2="38.68"/>
    <line class="cls-1" x1="41.35" y1="56.5" x2="53.38" y2="47.88"/>
  </g>
  <g>
    <circle class="cls-1" cx="35.96" cy="75" r="10.93"/>
    <line class="cls-1" x1="26.43" y1="80.33" x2="35.46" y2="74"/>
    <line class="cls-1" x1="25.04" y1="75" x2="34.82" y2="68.22"/>
    <line class="cls-1" x1="30.11" y1="84.21" x2="34.82" y2="80.93"/>
  </g>
  <g>
    <circle class="cls-1" cx="47.4" cy="102.6" r="10.93"/>
    <line class="cls-1" x1="38.58" y1="109.04" x2="42.39" y2="106.26"/>
    <line class="cls-1" x1="36.47" y1="102.6" x2="42.39" y2="98.5"/>
  </g>
  <circle class="cls-1" cx="75" cy="114.04" r="10.93"/>
  <g>
    <circle class="cls-1" cx="102.6" cy="102.6" r="10.93"/>
    <line class="cls-1" x1="112.52" y1="98.02" x2="108.33" y2="100.55"/>
    <line class="cls-1" x1="112.87" y1="105.16" x2="106.48" y2="108.87"/>
  </g>
  <g>
    <circle class="cls-1" cx="114.04" cy="75" r="10.93"/>
    <line class="cls-1" x1="123.01" y1="69.85" x2="114.69" y2="75.9"/>
    <line class="cls-1" x1="124.61" y1="75.21" x2="114.54" y2="82.78"/>
    <line class="cls-1" x1="118.69" y1="66.08" x2="115.14" y2="68.61"/>
  </g>
  <circle class="cls-1" cx="114.04" cy="74.61" r="10.93"/>
  <g>
    <circle class="cls-1" cx="102.6" cy="47.4" r="10.93"/>
    <line class="cls-1" x1="112.09" y1="41.99" x2="97.81" y2="52.19"/>
    <line class="cls-1" x1="113.53" y1="47.4" x2="100.94" y2="56.12"/>
    <line class="cls-1" x1="108.71" y1="38.34" x2="97.08" y2="46.89"/>
  </g>
</svg>