<?xml version="1.0" encoding="UTF-8"?>
<svg id="icons" xmlns="http://www.w3.org/2000/svg" viewBox="0 0 150 150">
  <defs>
    <style>
      .cls-1 {
        fill: none;
        stroke: #231f20;
        stroke-linecap: round;
        stroke-linejoin: round;
        stroke-width: 4px;
      }
    </style>
  </defs>
  <path class="cls-1" d="m97.6,65.21c0,11.42,10,20.68,22.33,20.68,1.74,0,3.43-.18,5.06-.53-9.9-2.13-17.27-10.34-17.27-20.14,0-9.81,7.37-18.02,17.27-20.14-1.63-.35-3.32-.53-5.06-.53-12.34,0-22.33,9.26-22.33,20.68Z"/>
  <path class="cls-1" d="m52.4,65.21c0,11.42-10,20.68-22.33,20.68-1.74,0-3.43-.18-5.06-.53,9.9-2.13,17.27-10.34,17.27-20.14,0-9.81-7.37-18.02-17.27-20.14,1.63-.35,3.32-.53,5.06-.53,12.34,0,22.33,9.26,22.33,20.68Z"/>
  <path class="cls-1" d="m64.86,71.84c4.55-4.63,3.67-9.99,3.32-12.43h0c-.43-1.91-1.48-3.64-3.03-4.91,0,0,0,0,0,0-5.64-4.56-7.06-9.68-6.83-14.59.33-7.04,6.37-13.9,13.68-14.77.65-.08,1.29-.12,1.93-.12h2.01c.63,0,1.28.04,1.93.12,7.31.87,13.35,7.73,13.68,14.77.23,4.91-1.19,10.04-6.83,14.59,0,0,0,0,0,0-1.55,1.26-2.61,3-3.03,4.91h0c-.34,2.45-1.23,7.81,3.32,12.43"/>
  <path class="cls-1" d="m74.03,125.01l-8.89-17.38c-2.59-5.07-7.53-15.08-7.98-20.76-.03-.42-.05-.76-.05-1.01,0-8.79,4.7-11.34,7.44-13.76"/>
  <path class="cls-1" d="m75.82,125.01l8.89-17.38c2.59-5.07,7.53-15.08,7.98-20.76.03-.42.05-.76.05-1.01,0-8.79-4.7-11.34-7.44-13.76"/>
  <ellipse class="cls-1" cx="75" cy="40.17" rx="5.79" ry="5.55"/>
  <path class="cls-1" d="m75.66,84.81c1.93.4,5.13-1.69,2.12-4.77-2.65-2.71-8.57,1.19-7.28,5.84,2.07,7.44,14.09,4.55,13.78-3.65-.17-4.44-2.55-8.67-9.36-8.67-7.88,0-12.94,9.67-8.19,16.97,3.46,5.31,9.2,12.01,9.07,19.87-.13,7.86-.78,14.61-.78,14.61"/>
  <ellipse class="cls-1" cx="75" cy="40.04" rx="10.86" ry="10.4"/>
</svg>