<?xml version="1.0" encoding="UTF-8"?>
<svg id="icons" xmlns="http://www.w3.org/2000/svg" viewBox="0 0 150 150">
  <defs>
    <style>
      .cls-1 {
        fill: none;
        stroke: #111;
        stroke-linecap: round;
        stroke-linejoin: round;
        stroke-width: 4px;
      }
    </style>
  </defs>
  <path class="cls-1" d="m52.71,76.62c0,12.5-10.11,22.63-22.59,22.63-1.76,0-3.47-.2-5.12-.59,10.01-2.33,17.46-11.31,17.46-22.05s-7.45-19.72-17.46-22.05c1.65-.38,3.36-.59,5.12-.59,12.48,0,22.59,10.13,22.59,22.63Z"/>
  <path class="cls-1" d="m97.29,75.96c0,12.5,10.11,22.63,22.59,22.63,1.76,0,3.47-.2,5.12-.59-10.01-2.33-17.46-11.31-17.46-22.05,0-10.73,7.45-19.72,17.46-22.05-1.65-.38-3.36-.59-5.12-.59-12.48,0-22.59,10.13-22.59,22.63Z"/>
  <ellipse class="cls-1" cx="75" cy="75.08" rx="22.29" ry="22.33"/>
</svg>