<?xml version="1.0" encoding="UTF-8"?>
<svg id="icons" xmlns="http://www.w3.org/2000/svg" viewBox="0 0 150 150">
  <defs>
    <style>
      .cls-1 {
        fill: none;
        stroke: #231f20;
        stroke-linecap: round;
        stroke-linejoin: round;
        stroke-width: 4px;
      }
    </style>
  </defs>
  <path class="cls-1" d="m89.61,77.66c1.14-4.32,1.76-8.97,1.76-13.8,0-15.64-6.48-29.31-16.12-36.61-9.63,7.31-16.11,20.97-16.11,36.61,0,4.47.16,8.89,1.51,12.82,7.13,20.75,15.61,25.12,15.61,25.12,2.73,2.54,5.82,4.87,9.23,6.9,13.38,7.96,28.37,9.29,39.52,4.66-1.35-12.07-9.74-24.63-23.12-32.59-3.43-2.04-8.17-4.19-11.79-5.13,0,0-12.45-3.19-24.02-.94-6.31,1.23-11.68,2.68-17.28,5.86-.04.02-.07.04-.11.06-13.52,7.72-22.13,20.14-23.69,32.18,11.07,4.83,26.07,3.76,39.6-3.96,3.74-2.13,7.25-4.47,10.04-7.37,10.94-11.4,14.97-23.82,14.97-23.82Z"/>
  <ellipse class="cls-1" cx="74.92" cy="83.57" rx="38.93" ry="39.19"/>
</svg>