<?xml version="1.0" encoding="UTF-8"?>
<svg id="icons" xmlns="http://www.w3.org/2000/svg" viewBox="0 0 150 150">
  <defs>
    <style>
      .cls-1 {
        fill: none;
        stroke: #231f20;
        stroke-linecap: round;
        stroke-linejoin: round;
        stroke-width: 4px;
      }
    </style>
  </defs>
  <circle class="cls-1" cx="74.82" cy="75" r="25"/>
  <path class="cls-1" d="m84.72,49.99c0,9.77-3.79,18.61-9.91,25.01-6.12-6.4-9.89-15.24-9.89-25.01s3.78-18.61,9.89-24.99c6.12,6.39,9.91,15.24,9.91,24.99Z"/>
  <path class="cls-1" d="m84.72,99.99c0,9.77-3.79,18.61-9.91,25.01-6.12-6.4-9.89-15.24-9.89-25.01s3.78-18.61,9.89-24.99c6.12,6.39,9.91,15.24,9.91,24.99Z"/>
  <path class="cls-1" d="m99.83,84.9c-9.77,0-18.61-3.79-25.01-9.91,6.4-6.12,15.24-9.89,25.01-9.89s18.61,3.78,24.99,9.89c-6.39,6.12-15.24,9.91-24.99,9.91Z"/>
  <path class="cls-1" d="m49.83,84.9c-9.77,0-18.61-3.79-25.01-9.91,6.4-6.12,15.24-9.89,25.01-9.89s18.61,3.78,24.99,9.89c-6.39,6.12-15.24,9.91-24.99,9.91Z"/>
</svg>