<svg id="expanded" xmlns="http://www.w3.org/2000/svg" viewBox="0 0 150 150"><title>Chamomile-bold</title><path d="M129.51,75.07a8,8,0,0,0-3.45-6.6,8,8,0,0,0-3.83-12.66A8.08,8.08,0,0,0,116,43.73a8,8,0,0,0-8-9.32,9.15,9.15,0,0,0-1.71.16,8.17,8.17,0,0,0-4-6.9,7.89,7.89,0,0,0-4-1.05,8.65,8.65,0,0,0-3.35.68,8,8,0,0,0-5.5-5,7.82,7.82,0,0,0-2-.26,8.31,8.31,0,0,0-5.59,2.18,8.18,8.18,0,0,0-6.95-3.94,7.88,7.88,0,0,0-6.41,3.25,8.21,8.21,0,0,0-5.18-1.83,7.87,7.87,0,0,0-2.1.28,8.07,8.07,0,0,0-5.58,5.52,9,9,0,0,0-4.1-1h0a8,8,0,0,0-4,1.07,7.88,7.88,0,0,0-3.91,5.94,9.77,9.77,0,0,0-1.2-.07,8.08,8.08,0,0,0-7.93,10,8.38,8.38,0,0,0-7,4.09,7.91,7.91,0,0,0-.42,7.12,7.86,7.86,0,0,0-4.86,5.42,8.19,8.19,0,0,0,2,7.73,8.2,8.2,0,0,0-4.13,7.07,7.93,7.93,0,0,0,3.23,6.39,7.78,7.78,0,0,0-1.45,7A8.12,8.12,0,0,0,27.51,94a8.08,8.08,0,0,0,6.18,12.26,8,8,0,0,0,8,8.87,9,9,0,0,0,1.62-.14,8.28,8.28,0,0,0,4.06,7.33,7.92,7.92,0,0,0,4,1,8.83,8.83,0,0,0,3.44-.71,8,8,0,0,0,7.34,4.93,8.32,8.32,0,0,0,5.5-2.08,8.23,8.23,0,0,0,7.1,4.17,8,8,0,0,0,6.53-3.34,8.08,8.08,0,0,0,4.86,1.59,7.94,7.94,0,0,0,2.11-.28,8,8,0,0,0,5.51-5.32,9.19,9.19,0,0,0,4.35,1.13,8,8,0,0,0,8-7.32,7.25,7.25,0,0,0,.93,0,8.06,8.06,0,0,0,5.82-2.38,8,8,0,0,0,2.12-7.31,8.43,8.43,0,0,0,7.18-4.1,8,8,0,0,0,.32-7.43,8.05,8.05,0,0,0,4.77-5.44,8,8,0,0,0-1.84-7.41A8.18,8.18,0,0,0,129.51,75.07ZM86.24,119.94s-2.1-.43-5.16-10.91a112.52,112.52,0,0,0-.74-13.29c1.07,2.33,2.24,4.75,3.49,7.13C87.37,114.12,86.92,119.32,86.24,119.94ZM74.86,121.7c-1.47-.61-2.56-7.15-2.23-17.19l0-.07h0A142.26,142.26,0,0,1,74,89c.31,0,.63,0,.94,0l.35,0C78.61,106.33,76.72,120.79,74.86,121.7ZM62.3,119.62s-1.59-1.5,1-12.2a111.24,111.24,0,0,0,5.92-11.75c-.24,2.62-.44,5.39-.55,8.15C66.14,115.18,63.19,119.42,62.3,119.62ZM41.75,107.18c0-.08-.56-2,7-10a112.13,112.13,0,0,0,10.9-7.15c-1.47,2.06-3,4.26-4.38,6.5C47.33,105.23,42.62,107.45,41.75,107.18ZM63.39,29.73c.58.07,2.79,2.26,5.36,11a110.6,110.6,0,0,0,.73,13.53c-1.12-2.45-2.36-5-3.68-7.52C62.28,35.53,62.72,30.35,63.39,29.73Zm9.35,10.41C72.93,33.32,74,28.8,75,28.3c2.12.88,3.45,14.17.83,32.51-.27,0-.54,0-.82,0l-.51,0a100,100,0,0,1-1.74-20.38h0v-.28ZM87.48,30.06c.48.35,1.34,3.37-.83,12.27a109.56,109.56,0,0,0-6.07,12c.25-2.69.46-5.53.56-8.36C83.72,34.42,86.57,30.27,87.48,30.06Zm20.69,12.32c.23.56-.57,3.64-6.92,10.29a112.2,112.2,0,0,0-11.09,7.26c1.59-2.24,3.21-4.64,4.74-7.07C102.83,44.22,107.29,42.09,108.17,42.38ZM95.58,80.67c2.6.24,5.34.44,8.07.55,12.48,2.78,15.77,5.59,15.95,6.28-.35.46-3.36,1.28-12.21-.87A110.54,110.54,0,0,0,95.58,80.67ZM46.91,84c-10.48,3.28-16.27,3.1-17.18,2.25.16-.35,1.44-2.22,11.21-5.07h.74a112.11,112.11,0,0,0,12.51-.75C51.82,81.51,49.33,82.71,46.91,84ZM42.18,63.22a110.74,110.74,0,0,0,12.06,6.11c-2.65-.25-5.46-.45-8.25-.56-10.88-2.42-15.75-5.53-16-6.58C30.05,62.17,31.52,60.62,42.18,63.22ZM60.87,74.13c0,.26,0,.53,0,.8s0,.32,0,.48c-17.27,3.29-31.73,1.4-32.63-.47C29.09,72.81,42.45,71.49,60.87,74.13Zm4,.8A10.16,10.16,0,1,1,75,85.08,10.17,10.17,0,0,1,64.83,74.93Zm38.24-9c12.15-3.82,16.37-3,16.86-2.54-.08.59-2.29,2.85-11.12,5.43a112.49,112.49,0,0,0-13.16.74C98.07,68.46,100.6,67.24,103.07,65.94Zm-14,10c0-.32,0-.64,0-1,0-.13,0-.25,0-.37,17.21-3.25,31.58-1.36,32.49.5C120.73,77.18,107.44,78.51,89.09,75.89Zm-1.43-7.22A13.37,13.37,0,0,0,87,67.5c13.27-11.4,26.66-17,28.37-15.8C115.69,54,104.85,61.76,87.66,68.67ZM82.8,63.14c-.37-.25-.76-.48-1.16-.7C87.4,46,96.14,34.59,98.27,34.59h0C99.71,36.41,94.22,48.56,82.8,63.14Zm-14.19-.83a11.74,11.74,0,0,0-1.15.65C56,49.67,50.46,36.25,51.61,34.53,53.89,34.26,61.69,45.09,68.61,62.31ZM52.43,48.39a111,111,0,0,0,7.41,11.36c-2.19-1.56-4.55-3.15-6.94-4.66-8.66-8-10.83-12.71-10.53-13.6C42.39,41.48,44.6,40.91,52.43,48.39Zm10.72,18.8a12.74,12.74,0,0,0-.67,1.12c-16.57-5.79-28.12-14.64-28-16.71C36.32,50.19,48.53,55.71,63.15,67.19Zm-.81,14.06A11.11,11.11,0,0,0,63,82.37C49.64,93.86,36.16,99.46,34.44,98.3,34.14,96,45.05,88.18,62.34,81.25Zm4.81,5.46c.35.23.72.46,1.1.66-5.76,16.5-14.56,28.05-16.69,28h0C50.11,113.59,55.64,101.35,67.15,86.71Zm14,.92A12.66,12.66,0,0,0,82.33,87c11.46,13.31,17,26.75,15.88,28.47h-.1C95.71,115.47,88,104.65,81.19,87.63ZM90,90.25c2.11,1.5,4.37,3,6.66,4.48,8.73,8,10.9,12.57,10.63,13.46,0,0-2.24.56-10.08-6.93A111.23,111.23,0,0,0,90,90.25Zm-3.26-7.41c.24-.37.47-.74.68-1.13a98.84,98.84,0,0,1,18.21,8.49h0l.27.17h.06c6,3.63,9.47,6.86,9.39,8C113.5,99.8,101.31,94.29,86.72,82.84Z"/></svg>