<svg id="expanded" xmlns="http://www.w3.org/2000/svg" viewBox="0 0 150 150"><title>Camellia-bold</title><path d="M119.31,50.32a29.53,29.53,0,0,0-6.77-13.42,22.25,22.25,0,0,0-11.29-6.78A27.88,27.88,0,0,0,82,22.81a27.38,27.38,0,0,0-8.24,1.24,41.26,41.26,0,0,0-8.18-.85c-10.43,0-19.48,4.43-23.91,11.62-3.6,1.75-7.49,5.72-10.6,10.88C27.74,51.28,25.91,57.22,26,62.2,21.76,69.8,21.35,82.45,28,91a24.47,24.47,0,0,0,13.76,18.21,17.37,17.37,0,0,0,6.34,3c5,6.27,14,9.14,20.58,9.14a20.65,20.65,0,0,0,3.22-.24,28.85,28.85,0,0,0,8.9,1.33c6.94,0,13.22-2,17.42-5.66,4.8-.79,9.47-3.93,13.24-8.92a33.11,33.11,0,0,0,6.11-13.69c4.94-5.78,6.11-16.29,4.38-23.91C124,62.69,123.11,55.65,119.31,50.32ZM28.54,67.52a12.14,12.14,0,0,0,1,1.91,29,29,0,0,0,.07,9.4,20,20,0,0,0,4.63,9.88c0,.8,0,1.64.11,2.5a18.23,18.23,0,0,1-6.25-9.74A25.16,25.16,0,0,1,28.54,67.52Zm2.8-11.64A33.89,33.89,0,0,1,40.77,40.8a14.36,14.36,0,0,0-.33,3.51,20.39,20.39,0,0,0-2.21,3.76,22.16,22.16,0,0,0-1.84,7,22,22,0,0,0-5.68,9.55A18,18,0,0,1,31.34,55.88ZM48.83,33.27c5-4.29,12.38-6.18,20.33-5.36a14.93,14.93,0,0,0-3.22,2.95,21.93,21.93,0,0,0-9.18,4.6A25.29,25.29,0,0,0,43.9,40.7,15.35,15.35,0,0,1,48.83,33.27Zm57.4,63.39a14.81,14.81,0,0,0-.74-3.7,16.82,16.82,0,0,0,2-7.3,12,12,0,0,0-.72-4.46,16.08,16.08,0,0,0,2.71-5.92c3.22,2.31,3.14,7.49,3,9.19C112.11,89.39,109.75,94.77,106.23,96.66Zm-5.39,7.4a18.19,18.19,0,0,1-13.66,6.2,9.4,9.4,0,0,0,.91-3.73A17.47,17.47,0,0,0,90,105.29a15,15,0,0,0,3-3.08,17.3,17.3,0,0,0,10.16-5.86A10.27,10.27,0,0,1,100.84,104.06Zm-37.1,5.7a10.74,10.74,0,0,0,2.48-2,13.47,13.47,0,0,0,1.94.31l.83,0a9.83,9.83,0,0,0,3-.44,15.86,15.86,0,0,0,6.62,1.39A19.38,19.38,0,0,0,84.85,108a7.14,7.14,0,0,1-4.68,4.59C75,114.51,67.8,113.14,63.74,109.76ZM36.44,59.49A13.28,13.28,0,0,0,38,64.58a16.51,16.51,0,0,0,1.77,8.32c-3,4.2-3.53,10.24-1.49,15.5a16.25,16.25,0,0,1-5.7-10.11C31.43,71.87,33.11,64.23,36.44,59.49ZM41,49.31c1.67-3.7,5.19-8.18,12.55-10.16A18.55,18.55,0,0,0,51.27,44a16.5,16.5,0,0,0-3,3.57,13.69,13.69,0,0,0-1.41,3,16.09,16.09,0,0,0-7.46,8.16A19.05,19.05,0,0,1,41,49.31Zm37.6-16a10.33,10.33,0,0,0-2.34,2.12,17,17,0,0,0-2.25.35,13.77,13.77,0,0,0-5.2,2.37,28.62,28.62,0,0,0-12.7,2.61C60.14,34.74,68.4,32,78.57,33.34ZM99,39.51a22.77,22.77,0,0,0-8.81-.18,22.74,22.74,0,0,0-9.58-3.76,14,14,0,0,1,9.45-1.42A13,13,0,0,1,99,39.51ZM75.23,105.65a9.23,9.23,0,0,0,2-3c2.81-.61,7.14-2.19,9.27-5.47a11.68,11.68,0,0,0,6-2.09,10.21,10.21,0,0,1-4.28,7.85A16.08,16.08,0,0,1,75.23,105.65ZM54.79,94a13.84,13.84,0,0,0,3.18.37,14.29,14.29,0,0,0,1.83-.12,7.91,7.91,0,0,0,1.38.51c1.81,5.87,7.83,8,12.45,8.2a5.73,5.73,0,0,1-5.26,2.15C63.36,104.73,57.13,100.23,54.79,94Zm-2.84,1a10.48,10.48,0,0,1-9.84-5.5,14.45,14.45,0,0,1-.54-13.72,19.09,19.09,0,0,0,2.56,2.7,19,19,0,0,0,2.28,8.91,13.7,13.7,0,0,0,4.86,5.21A17.79,17.79,0,0,0,52,94.93ZM46.24,54.46a11.78,11.78,0,0,0,1.09,4.87,14.58,14.58,0,0,0-.78,2.31,14.41,14.41,0,0,0,.14,7.72,13.39,13.39,0,0,0-2.19,5.19,13.9,13.9,0,0,1,1.74-20.09Zm4.55-5.36C53,45.58,58,41.94,65.86,41.28A13.83,13.83,0,0,0,64.07,45a14.76,14.76,0,0,0-4.69,3.42,11.43,11.43,0,0,0-1.54,2.21,15.14,15.14,0,0,0-8.48,5.24A9.49,9.49,0,0,1,50.79,49.1Zm38.89-6.42a24.35,24.35,0,0,0-4.66.8,15.48,15.48,0,0,0-3.09-.26,13.92,13.92,0,0,0-4,.66,21,21,0,0,0-10.06-.17,10.19,10.19,0,0,1,6.81-5C79.48,37.61,85.24,39.2,89.68,42.68Zm7.86,28a30.66,30.66,0,0,0-3.12-3.75c.55-3.55.33-6.73-.64-8.64a1.51,1.51,0,0,0-.59-.61,29.24,29.24,0,0,0-4-1.9,13.73,13.73,0,0,0-4.63-4.64,18.54,18.54,0,0,1,6.23.41c2.9.66,5.26,1.88,6,3.09C98.56,57.5,99.68,65.29,97.54,70.67ZM92.87,90.9A11.36,11.36,0,0,1,87.65,94a9.82,9.82,0,0,0-1.08-5.64c2-2.43,3.85-5.52,3.73-8.87a8.56,8.56,0,0,0-.14-1.24,28.65,28.65,0,0,0,3.47-7.71c1.84,2.17,4.41,5.83,4.55,9.4C98.32,83.18,96.08,87.8,92.87,90.9Zm-8.68,4.23c-1.7,3.19-7,4.62-9.12,4.79-2.39.18-8.39-.47-10.59-5a10.42,10.42,0,0,0,5.39-2.7,52.59,52.59,0,0,0,8.82,1.05c.82,0,1.75.1,1.9.13a1.39,1.39,0,0,0,.53.1,1.51,1.51,0,0,0,1.19-.59c.19-.24.66-.72,1.16-1.22l.88-.9A5.3,5.3,0,0,1,84.19,95.13ZM49,85.88a15.87,15.87,0,0,1-.8-13.23,11.42,11.42,0,0,0,1.76,2c0,.33.08.65.14,1a8.34,8.34,0,0,0,2.53,4.49,16.23,16.23,0,0,0,3.39,11A10.11,10.11,0,0,1,49,85.88ZM61.62,50.45c2.68-3,7.46-4.54,12.25-4.21a8.63,8.63,0,0,0-2.07,3.08,10.2,10.2,0,0,0-4,3.09,15.49,15.49,0,0,0-8,3.18A6.81,6.81,0,0,1,61.62,50.45Zm22.16,3.73c-5.21-1-10.82-.57-14.74,3.08l-.46-.18c1.34-3.48,3.65-5.37,6.91-5.58A13.36,13.36,0,0,1,83.78,54.18Zm3.53,25.4A8.3,8.3,0,0,1,86,83.91s0,0,0,0a23,23,0,0,0-.12-7.47l.12-.2A5.82,5.82,0,0,1,87.31,79.58Zm-21.07,8a9.45,9.45,0,0,0,3.69-2.68,12,12,0,0,0,5.16-1.1,12.75,12.75,0,0,0,6.67,1.61,18.78,18.78,0,0,0,3-.24,1.43,1.43,0,0,0,.6-.27,32.9,32.9,0,0,1-4.07,4.71c-.3.3-.57.57-.8.82-.41,0-.94-.07-1.68-.11C76,90.13,69.16,89.73,66.24,87.56ZM53.08,75.05c-.56-2.69.72-5.79,3.08-7.86A13.15,13.15,0,0,0,58,70.42c-.86,1.94-1.83,4-2.85,4.24a1.51,1.51,0,0,0-.63,2.57,14.3,14.3,0,0,1,1.46,1.55A5.45,5.45,0,0,1,53.08,75.05Zm21.76-3.91A2.84,2.84,0,1,1,72,74,2.84,2.84,0,0,1,74.84,71.14ZM79.13,70A5.79,5.79,0,0,0,76,68.26a3.9,3.9,0,0,0-.19-.35,4.75,4.75,0,0,1,1.9.12,8.1,8.1,0,0,0,1.76.2A8.33,8.33,0,0,1,80,70.1,8.66,8.66,0,0,0,79.13,70Zm-6.71-1.58c.07,0,.12.1.18.14a5.84,5.84,0,0,0-3.16,3.22,2.8,2.8,0,0,1-1-1.18,3.11,3.11,0,0,1,.29-2.5A5.85,5.85,0,0,1,72.42,68.45ZM68,81.71A14.28,14.28,0,0,0,68,77.63a11.17,11.17,0,0,1-.07-3.23,8.92,8.92,0,0,0,1.23.66,5.84,5.84,0,0,0,5.72,4.75l.34,0a2.75,2.75,0,0,1-.88,1C72.67,81.92,69.83,82,68,81.71ZM78.52,78.5A5.84,5.84,0,0,0,80.68,74q0-.3,0-.6a3.18,3.18,0,0,1,1,.68c1.57,1.67,1.86,5.18,1.58,8.28a13,13,0,0,1-5.63-.65A5.8,5.8,0,0,0,78.52,78.5Zm5.88-5.74a6.26,6.26,0,0,0-.6-.76,7.31,7.31,0,0,0-.72-.64,10.47,10.47,0,0,0-1.53-5.59,1.48,1.48,0,0,0-1.76-.6,3,3,0,0,1-1.51-.09,6.63,6.63,0,0,0-4.83.53l-.38-.16c1-1.11,2.35-1.1,4.69-1a12.77,12.77,0,0,0,5.95-.66,6.19,6.19,0,0,1,1.07,2.33A11.42,11.42,0,0,1,84.4,72.76ZM69.83,65a11.64,11.64,0,0,0-2.55.4,1.54,1.54,0,0,0-.9.7l-.12.24c-.57-1.86.2-4,1.24-6.42h0a27.54,27.54,0,0,0,4.64,1.24c.66.14,1.36.29,2,.46A5.82,5.82,0,0,0,69.83,65Zm-4.5-7.73h0c-.13.39-.34.89-.59,1.47A21.55,21.55,0,0,0,63.29,63a8.56,8.56,0,0,0-3.85,4.19A6.76,6.76,0,0,1,59,61.16c1.07-2.47,3.69-4.46,6.81-5.34C65.66,56.28,65.49,56.75,65.33,57.25ZM57.85,76.39a17,17,0,0,0,3-5.21,19.46,19.46,0,0,1,2.39-4.41,7.36,7.36,0,0,0,2,3.53,4.84,4.84,0,0,0,.36,1.5s0,.1.07.14c-1.21,1.8-1,4.11-.74,6,.18,1.57.35,3-.17,4a1.51,1.51,0,0,0-.11,1.16,1.49,1.49,0,0,0,.76.89,6.49,6.49,0,0,0,.64.27,2.46,2.46,0,0,1-1.39.51c-1.13-.08-2.39-2-3.73-4.08A37.12,37.12,0,0,0,57.85,76.39Zm29.57-3.16a14.65,14.65,0,0,0,.27-7.83c-.6-2.32-1.76-4-3.19-4.71a1.47,1.47,0,0,0-1.41.07,5.19,5.19,0,0,1-2.15.7c-1.8-1.9-5-2.6-8.14-3.26,5.42-3.08,13.69-.8,18.47,1.83,1,2.69.45,9.13-2.56,14.77A12.33,12.33,0,0,0,87.42,73.23Zm-30.17-15a9.89,9.89,0,0,0-1,1.74,9.21,9.21,0,0,0-.77,3.94,12.69,12.69,0,0,0-5,6.61,10.91,10.91,0,0,1-1-8.15,11.77,11.77,0,0,1,7.32-8.25A10.1,10.1,0,0,0,57.25,58.23ZM55.66,82a13.48,13.48,0,0,0,3.08.8,15.47,15.47,0,0,0,3.41,4.1,7.19,7.19,0,0,0,4.24,4.23,5.4,5.4,0,0,1-5.38.37C58.05,90,55.9,86.05,55.66,82ZM80.54,49.22a14.48,14.48,0,0,0-4.71-.72c2-2,5-2.26,6.16-2.28a11.83,11.83,0,0,1,7,2C86.09,47.84,82.9,48,80.54,49.22ZM95.31,92.7c3.63-3.69,6-8.93,5.87-12.9,0-.3-.05-.6-.09-.9,3.09,1.69,3.41,5.1,3.38,6.7a14.74,14.74,0,0,1-9.6,13A12.86,12.86,0,0,0,95.31,92.7Zm4.83-17.37a17.65,17.65,0,0,0-.75-1.65c2.69-4.63,2.7-11.14,1.67-15.88a13.94,13.94,0,0,1,4.72,6.61c1.46,4,1.91,9.45-.72,13.92A9.6,9.6,0,0,0,100.14,75.33Zm-.31-21.4a7.68,7.68,0,0,0-.45-.86c-1.16-1.91-3.61-3.11-5.61-3.81a9,9,0,0,0-3.26-3.64,11.24,11.24,0,0,1,6.79,1.74c2.31,1.54,4,4.17,5,7.7A9.43,9.43,0,0,0,99.83,53.93ZM37.42,91.45a17.79,17.79,0,0,0,3.94,2A13.37,13.37,0,0,0,46,96.84a14.34,14.34,0,0,0,5.57,11.4,13,13,0,0,1-7.67-3C39.79,101.88,37.91,96.36,37.42,91.45Zm18.51,15.91A11.73,11.73,0,0,1,49,97.74a14.33,14.33,0,0,0,2.38.2,15,15,0,0,0,1.88-.13A21.62,21.62,0,0,0,63,106.69,6.88,6.88,0,0,1,55.93,107.36ZM113.1,74.75a8.7,8.7,0,0,0-3.19-2.66,22.15,22.15,0,0,0-1.32-8.72,19.72,19.72,0,0,0-2.42-4.61c-.09-.69-.19-1.38-.32-2a7.28,7.28,0,0,1,5.44,3.17C113.79,63.39,114.43,69.42,113.1,74.75Zm-8-21.06c-1.27-3.95-3.32-7-6.1-8.83a13.21,13.21,0,0,0-4.6-1.92c-.29-.31-.58-.62-.88-.92a16.13,16.13,0,0,1,11.34,3.62,13.48,13.48,0,0,1,4.52,8.9A10.9,10.9,0,0,0,105.06,53.69Zm2.85-9.21a14.53,14.53,0,0,0-1.12-1.1,16.78,16.78,0,0,0-3.82-2.5,13.39,13.39,0,0,0-5.07-6.73,16.47,16.47,0,0,1,7.41,2.55,21.32,21.32,0,0,1,8,10A14.83,14.83,0,0,0,107.91,44.48ZM92.22,31.55c-.54-.14-1.08-.26-1.63-.36a18.93,18.93,0,0,0-6.85.07A41.72,41.72,0,0,0,71.34,30a19.28,19.28,0,0,1,8.93-2.68A24.68,24.68,0,0,1,95.2,31.14,20.14,20.14,0,0,0,92.22,31.55ZM35,95.19a29.15,29.15,0,0,0,1.26,4.16,19.53,19.53,0,0,1-2.91-5.2C33.87,94.52,34.42,94.86,35,95.19Zm22,15.63A10.51,10.51,0,0,0,59,111a8.65,8.65,0,0,0,1.54-.14c3,3.24,7.54,5,12,5.46a13.15,13.15,0,0,1-2.84.5,24.27,24.27,0,0,1-16.5-5.6A22.12,22.12,0,0,0,57,110.82Zm21,5.4a16.2,16.2,0,0,0,3.31-.83A11.64,11.64,0,0,0,85,113.13a17.66,17.66,0,0,0,2.06.13,22.25,22.25,0,0,0,10.53-2.77,12.82,12.82,0,0,1-4.51,4.38c-4.43,2.66-11,3.67-16.56,2.79A6.72,6.72,0,0,0,77.92,116.22Zm22.65-4.88a13.35,13.35,0,0,0,1.32-4,15.16,15.16,0,0,0,1.28-1.39,13.57,13.57,0,0,0,2.84-6c3-.92,5.38-3.45,7-6.6a25.24,25.24,0,0,1-1.79,5.8C109.24,103.74,105.45,109,100.57,111.34Zm14.65-24.69a18.72,18.72,0,0,0,.24-2,17.53,17.53,0,0,0-.51-6,26,26,0,0,0,1.81-9.63,24.23,24.23,0,0,1,1.3,6.82,26.83,26.83,0,0,1-2.17,12.4A6.73,6.73,0,0,0,115.22,86.65Zm3.06-21.56a13.39,13.39,0,0,0-2.77-3.53,14.29,14.29,0,0,0-1.78-3.4,12,12,0,0,0-1.3-1.51,17.71,17.71,0,0,0-1.64-8,14.29,14.29,0,0,1,5.12,4.77A17.09,17.09,0,0,1,118.28,65.09Z"/></svg>