<svg id="expanded" xmlns="http://www.w3.org/2000/svg" viewBox="0 0 150 150"><title>Lilac-bold</title><path d="M72.51,74.18c-.24.22-.47.45-.69.68a2.09,2.09,0,0,0-.22.2l.08.08c.78.77,1.57,1.51,2.39,2.23,0,0,0,0,0,0,.22.24.45.47.68.69l.2.22.08-.08c.77-.78,1.51-1.57,2.22-2.39,0,0,0,0,0,0,.24-.22.47-.45.69-.68l.22-.2-.08-.08c-.78-.78-1.58-1.52-2.4-2.24l0,0c-.23-.24-.45-.47-.68-.69l-.2-.22-.08.08c-.77.77-1.52,1.57-2.23,2.38C72.54,74.15,72.52,74.16,72.51,74.18Z"/><path d="M130,75.06l-.14-.9c-2-13-11.15-20.73-24.54-20.73a41.13,41.13,0,0,0-9.77,1.26c2-8.26,1.63-16-1.37-22.06-2.34-4.74-7.38-10.73-18.08-12.36l-.91-.14-.9.14c-10.7,1.62-15.74,7.61-18.09,12.34-3,6-3.41,13.75-1.39,22a40.94,40.94,0,0,0-9.87-1.29C31.51,53.3,22.33,61.05,20.35,74l-.14.91.14.9c2,13,11.15,20.73,24.53,20.73a41.32,41.32,0,0,0,9.79-1.27c-2.05,8.26-1.64,16,1.36,22.06,2.34,4.74,7.38,10.74,18.08,12.37l.91.14.9-.14c10.7-1.63,15.74-7.61,18.09-12.35,3-6,3.41-13.75,1.39-22a41.08,41.08,0,0,0,9.88,1.29c13.38,0,22.55-7.75,24.53-20.72Zm-48.5-6.93q-4.64-4.47-4.91-13.48l-4,.09c.08,5.77-1.3,10.2-4.09,13.28l-1.94-3.56c-5.8-10.62-7.25-21.55-3.8-28.52C65,31.44,69.07,28.67,75,27.72c5.91,1,10,3.72,12.27,8.23,3.46,7,2,17.94-3.84,28.59Zm3,6.59a17.54,17.54,0,0,0-9.37,9.73,17.92,17.92,0,0,0-9.67-9.39,17.62,17.62,0,0,0,9.38-9.68A17.58,17.58,0,0,0,84.42,74.72ZM68.05,68.46c-3,3-7.44,4.62-13.36,4.8l.1,4c5.71-.12,10.15,1.3,13.26,4.16l-3.66,2C53.76,89.2,42.83,90.66,35.86,87.2c-4.5-2.23-7.27-6.36-8.22-12.26.95-5.91,3.73-10,8.24-12.28,7-3.45,17.95-2,28.59,3.84Zm.39,13.32c3,3,4.68,7.47,4.86,13.33l4-.09c-.08-5.72,1.27-10.12,4-13.2l2,3.71c5.79,10.62,7.24,21.55,3.79,28.52-2.24,4.51-6.37,7.28-12.27,8.23-5.91-1-10-3.73-12.27-8.24-3.46-7-2-17.94,3.84-28.59Zm13.2-.33q4.47-4.67,13.51-5l-.09-4c-5.71.09-10.09-1.26-13.17-4l3.55-1.94C96.07,60.79,107,59.34,114,62.79c4.51,2.24,7.28,6.37,8.23,12.27-1,5.91-3.73,10-8.24,12.27-7,3.46-17.94,2-28.58-3.84Z"/></svg>