<svg id="expanded" xmlns="http://www.w3.org/2000/svg" viewBox="0 0 150 150"><title>Tansy-bold</title><path d="M128,77.74a5.3,5.3,0,0,0,.38-2.5,5.9,5.9,0,0,0-2.41-4.4,5,5,0,0,0-.16-1.51,6,6,0,0,0-4.1-4.26c-.06-.19-.14-.39-.22-.58a6.11,6.11,0,0,0-5.23-3.41,4.58,4.58,0,0,0-.53,0,5.94,5.94,0,0,0-4.7-2.19,5,5,0,0,0-2.27.51,5.44,5.44,0,0,0-3-.83,5.72,5.72,0,0,0-4.13,1.63,4.75,4.75,0,0,0-1.75-.07,5,5,0,0,0,.7-.9,4.66,4.66,0,0,0,.25-.5,6,6,0,0,0,4.65-3.82,4.89,4.89,0,0,0,.3-1.37,6,6,0,0,0,3-4.22,5.2,5.2,0,0,0-.1-2.37A5.64,5.64,0,0,0,110,43.09a5.28,5.28,0,0,0-1-3.25,5.14,5.14,0,0,0,.38-2.49A5.86,5.86,0,0,0,107,32.94a4.63,4.63,0,0,0-.16-1.5,6,6,0,0,0-4.1-4.26,4.71,4.71,0,0,0-.22-.59,6.1,6.1,0,0,0-5.23-3.41,3.15,3.15,0,0,0-.53,0A5.91,5.91,0,0,0,92.08,21a4.94,4.94,0,0,0-2.28.52,5.33,5.33,0,0,0-3-.84,5.71,5.71,0,0,0-4.14,1.64,4.79,4.79,0,0,0-1.09-.12A6.1,6.1,0,0,0,76.51,25a4.74,4.74,0,0,0-.26.5,6,6,0,0,0-4.65,3.81,4.87,4.87,0,0,0-.29,1.37,6,6,0,0,0-3,4.22,4.89,4.89,0,0,0,.1,2.36A5.62,5.62,0,0,0,67,41.19a5.37,5.37,0,0,0,1,3.26,5.09,5.09,0,0,0-.38,1.74c-.09-.06-.16-.13-.25-.18a4.6,4.6,0,0,0-.16-1.5,6,6,0,0,0-4.1-4.27,4.58,4.58,0,0,0-.22-.58,6.08,6.08,0,0,0-5.23-3.41,4.58,4.58,0,0,0-.53,0,5.91,5.91,0,0,0-4.69-2.19,5.07,5.07,0,0,0-2.28.51,5.41,5.41,0,0,0-3-.83A5.73,5.73,0,0,0,43,35.4a4.79,4.79,0,0,0-1.09-.12,6.1,6.1,0,0,0-5.07,2.82c-.1.17-.18.33-.26.5A6,6,0,0,0,32,42.42a4.54,4.54,0,0,0-.29,1.37,6,6,0,0,0-3,4.21,5.06,5.06,0,0,0,.11,2.37,5.6,5.6,0,0,0-1.44,3.89,5.33,5.33,0,0,0,1,3.26A5.3,5.3,0,0,0,28,60a5.9,5.9,0,0,0,2.41,4.4,4.54,4.54,0,0,0,.16,1.49,6,6,0,0,0,4.1,4.27,4.58,4.58,0,0,0,.22.58,6.11,6.11,0,0,0,5.24,3.41,4.53,4.53,0,0,0,.52,0,5.71,5.71,0,0,0,3.58,2.09c.73,7.81,8,11,13.35,13.42,2.3,1,5.16,2.28,5.35,3.26.09.44.19,1.17.31,2.1,1.1,8.28,4.45,33.47,27,33.47a1.5,1.5,0,0,0,.67-2.84,4.14,4.14,0,0,1-2.15-3.39,1.5,1.5,0,0,0-1.5-1.47,12.61,12.61,0,0,1-9.94-4.44c-5.7-6.55-6.23-18.69-5.87-22.2a21.12,21.12,0,0,1,2.77.73c4,1.24,10.67,3.26,17.67-.42a4.7,4.7,0,0,0,1.33.56,4.58,4.58,0,0,0,.22.58A6.08,6.08,0,0,0,98.66,99a4.41,4.41,0,0,0,.52,0,6,6,0,0,0,4.7,2.2,5.07,5.07,0,0,0,2.28-.52,5.38,5.38,0,0,0,3,.83,5.72,5.72,0,0,0,4.13-1.63,4.94,4.94,0,0,0,1.1.12,6.09,6.09,0,0,0,5.07-2.82,4.74,4.74,0,0,0,.26-.5,6,6,0,0,0,4.65-3.82,4.87,4.87,0,0,0,.29-1.37,6,6,0,0,0,3-4.22,4.89,4.89,0,0,0-.1-2.36A5.69,5.69,0,0,0,129,81,5.33,5.33,0,0,0,128,77.74ZM78.74,26.29a3.63,3.63,0,0,1,3.15-1.44,1.44,1.44,0,0,1,1,.58,1.66,1.66,0,0,0,.33,3,1.58,1.58,0,0,0-.61,1.11,1.63,1.63,0,0,0-1-.3A2.37,2.37,0,0,0,81,28.09a2.34,2.34,0,0,0-1.81-.7h0l-.18,0a2.05,2.05,0,0,0-.58.18A1.61,1.61,0,0,1,78.74,26.29ZM73.88,42.81a1.66,1.66,0,0,0,.68.62,2,2,0,0,0-.33.31v0a1.08,1.08,0,0,0-.69-.86,1.21,1.21,0,0,0-1.18.22,1.06,1.06,0,0,0-.37,1,.49.49,0,0,0,.59.36.56.56,0,0,0,.42-.63.17.17,0,0,1,.24,0,.84.84,0,0,1-.29.88.69.69,0,0,1-.74.06.87.87,0,0,1-.41-.69,1.38,1.38,0,0,1,0-.61l0-.13a1.31,1.31,0,0,1,.91-.78A1.27,1.27,0,0,1,73.88,42.81Zm.36-5.11a1.25,1.25,0,0,0-1.18-.2,1.07,1.07,0,0,0-.71.84.48.48,0,0,0,.44.54.56.56,0,0,0,.61-.44.16.16,0,0,1,.21.12.82.82,0,0,1-.58.73.69.69,0,0,1-.71-.19.91.91,0,0,1-.16-.79,1.34,1.34,0,0,1,.23-.57l.09-.11a1.3,1.3,0,0,1,1.11-.42,1.32,1.32,0,0,1,1,.55,1.71,1.71,0,0,0,.43.83,1.74,1.74,0,0,0-.41.17v0A1.05,1.05,0,0,0,74.24,37.7ZM74.5,33a1.41,1.41,0,0,1,.41-.46l.12-.07a1.31,1.31,0,0,1,1.19,0,1.29,1.29,0,0,1,.73.86,1.79,1.79,0,0,0,.12.91,2.06,2.06,0,0,0-.44,0h0a1.08,1.08,0,0,0,0-1.1,1.22,1.22,0,0,0-1-.59h0a1.06,1.06,0,0,0-.94.55.48.48,0,0,0,.22.66.56.56,0,0,0,.72-.21c.08,0,.16,0,.16.19a.81.81,0,0,1-.79.48.68.68,0,0,1-.6-.42A.9.9,0,0,1,74.5,33Zm4-4.23a1.47,1.47,0,0,1,.54-.3l.14,0a1.33,1.33,0,0,1,1.12.4,1.28,1.28,0,0,1,.4,1.05,1.72,1.72,0,0,0-.2.9,1.9,1.9,0,0,0-.43-.13h0a1.06,1.06,0,0,0,.4-1,1.23,1.23,0,0,0-.78-.92,1.07,1.07,0,0,0-1.07.2.47.47,0,0,0,0,.69.55.55,0,0,0,.75.05.16.16,0,0,1,.08.23.82.82,0,0,1-.91.19.71.71,0,0,1-.42-.61A.89.89,0,0,1,78.53,28.72Zm4.63-2.07a.88.88,0,0,1,.6-.53,1.35,1.35,0,0,1,.61-.09l.14,0a1.34,1.34,0,0,1,.92.76,1.28,1.28,0,0,1,0,1.13,1.75,1.75,0,0,0-.49.78,2.25,2.25,0,0,0-.37-.28h0a1.07,1.07,0,0,0,.72-.82,1.22,1.22,0,0,0-.42-1.13,1.06,1.06,0,0,0-1.08-.19.48.48,0,0,0-.25.65.55.55,0,0,0,.69.3.18.18,0,0,1,0,.25.84.84,0,0,1-.92-.14A.68.68,0,0,1,83.16,26.65Zm7.36-.44a1.06,1.06,0,0,0-1-.55.49.49,0,0,0-.46.52.57.57,0,0,0,.55.53c0,.06,0,.15-.09.22a.81.81,0,0,1-.81-.44.69.69,0,0,1,.06-.73,1.25,1.25,0,0,1,1.36-.17l.11.07a1.3,1.3,0,0,1,.61,1,1.32,1.32,0,0,1-.38,1.08,1.75,1.75,0,0,0-.74.56,2.38,2.38,0,0,0-.25-.39h0a1.07,1.07,0,0,0,1-.52A1.2,1.2,0,0,0,90.52,26.21Zm5.37,1.65a1.06,1.06,0,0,0-.7-.84.48.48,0,0,0-.61.33.55.55,0,0,0,.33.68c0,.07,0,.16-.16.19a.81.81,0,0,1-.61-.7.7.7,0,0,1,.31-.67.88.88,0,0,1,.8,0,1.63,1.63,0,0,1,.53.32l.09.11a1.37,1.37,0,0,1-.5,2,1.67,1.67,0,0,0-.89.28,1.87,1.87,0,0,0-.1-.45l0,0A1.07,1.07,0,0,0,95.49,29,1.2,1.2,0,0,0,95.89,27.86ZM100,30.22a.48.48,0,0,0-.69.11.54.54,0,0,0,.08.74c0,.08-.07.15-.21.13a.83.83,0,0,1-.34-.87.69.69,0,0,1,.52-.52.92.92,0,0,1,.76.26,1.43,1.43,0,0,1,.39.48l0,.13a1.36,1.36,0,0,1-1.17,1.75,1.84,1.84,0,0,0-.92,0,2.54,2.54,0,0,0,.06-.45s0,0,0,0a1.06,1.06,0,0,0,1.08.21,1.23,1.23,0,0,0,.77-.92A1.09,1.09,0,0,0,100,30.22ZM101.44,36a0,0,0,0,1,0,0,1.07,1.07,0,0,0,.94.56h0a1.22,1.22,0,0,0,1-.6,1.08,1.08,0,0,0,0-1.1.49.49,0,0,0-.69-.13.55.55,0,0,0-.18.73.16.16,0,0,1-.24,0,.82.82,0,0,1,0-.93.68.68,0,0,1,.66-.31.88.88,0,0,1,.63.51,1.49,1.49,0,0,1,.2.58v.13a1.33,1.33,0,0,1-.59,1,1.26,1.26,0,0,1-1.11.21,1.7,1.7,0,0,0-.86-.35A2.28,2.28,0,0,0,101.44,36Zm1.37,4.81v0a1.05,1.05,0,0,0,.69.85,1.21,1.21,0,0,0,1.18-.22,1,1,0,0,0,.37-1,.49.49,0,0,0-.59-.37.56.56,0,0,0-.42.63.17.17,0,0,1-.24,0,.84.84,0,0,1,.29-.89.73.73,0,0,1,.74-.06.91.91,0,0,1,.41.69,1.38,1.38,0,0,1,0,.61l0,.13a1.29,1.29,0,0,1-.91.78,1.27,1.27,0,0,1-1.11-.19,1.73,1.73,0,0,0-.68-.62A2.46,2.46,0,0,0,102.81,40.79Zm0,6A1.21,1.21,0,0,0,104,47a1.08,1.08,0,0,0,.7-.84.49.49,0,0,0-.44-.54.55.55,0,0,0-.61.44c-.06,0-.16,0-.21-.12a.82.82,0,0,1,.58-.73.69.69,0,0,1,.71.19.87.87,0,0,1,.16.79,1.44,1.44,0,0,1-.23.58l-.09.1a1.3,1.3,0,0,1-1.11.42,1.28,1.28,0,0,1-1-.55,1.79,1.79,0,0,0-.43-.83,2,2,0,0,0,.42-.18v0A1.05,1.05,0,0,0,102.8,46.82Zm-.26,4.75a1.32,1.32,0,0,1-.41.46l-.12.07a1.37,1.37,0,0,1-1.92-.84,1.84,1.84,0,0,0-.12-.92h.12a1.66,1.66,0,0,0,.33,0l0,0a1.09,1.09,0,0,0,0,1.09,1.22,1.22,0,0,0,1,.59h0a1.06,1.06,0,0,0,.94-.55.47.47,0,0,0-.22-.65.54.54,0,0,0-.72.2c-.08,0-.16,0-.16-.18a.83.83,0,0,1,.79-.49.71.71,0,0,1,.61.42A.93.93,0,0,1,102.54,51.57Zm-6,3.36a1.23,1.23,0,0,0,.78.92,1.09,1.09,0,0,0,1.08-.19.49.49,0,0,0,0-.7.55.55,0,0,0-.75-.05.16.16,0,0,1-.08-.23.84.84,0,0,1,.91-.19.72.72,0,0,1,.42.61.89.89,0,0,1-.39.7,1.43,1.43,0,0,1-.55.3l-.12,0a1.3,1.3,0,0,1-1.13-.39,1.33,1.33,0,0,1-.4-1.07,1.68,1.68,0,0,0,.2-.89,3,3,0,0,0,.44.13h0A1.07,1.07,0,0,0,96.53,54.93Zm1.77,3.3a3.63,3.63,0,0,1-3.15,1.44,1.44,1.44,0,0,1-1-.58,1.68,1.68,0,0,0,.73-.92,1.66,1.66,0,0,0-1.06-2.09A1.58,1.58,0,0,0,94.4,55a1.61,1.61,0,0,0,.89.29h.08A2.37,2.37,0,0,0,96,56.43a2.31,2.31,0,0,0,1.65.7h.2l.15,0a2.05,2.05,0,0,0,.58-.18A1.6,1.6,0,0,1,98.3,58.23ZM81.15,56.66a1.06,1.06,0,0,0,.7.84.48.48,0,0,0,.61-.33.56.56,0,0,0-.33-.68c0-.07,0-.16.16-.18a.8.8,0,0,1,.61.69.7.7,0,0,1-.31.67.88.88,0,0,1-.8,0,1.38,1.38,0,0,1-.53-.31l-.08-.11a1.36,1.36,0,0,1,.48-2,1.73,1.73,0,0,0,.9-.28,1.9,1.9,0,0,0,.09.44s0,0,0,0a1,1,0,0,0-1.08.16A1.2,1.2,0,0,0,81.15,56.66ZM77,54.3a.49.49,0,0,0,.69-.1.56.56,0,0,0-.08-.75c0-.07.08-.14.21-.12a.81.81,0,0,1,.34.86.68.68,0,0,1-.52.52.86.86,0,0,1-.76-.26,1.52,1.52,0,0,1-.38-.48l-.05-.13a1.36,1.36,0,0,1,1.17-1.75,1.48,1.48,0,0,0,.49.08,2.27,2.27,0,0,0,.43-.05,2.68,2.68,0,0,0,0,.46,0,0,0,0,1,0,0,1.1,1.1,0,0,0-1.08-.21,1.2,1.2,0,0,0-.76.92A1.06,1.06,0,0,0,77,54.3Zm-6.82-8.54a1.5,1.5,0,0,1,.75-.92,1.67,1.67,0,0,0,.79.88,1.53,1.53,0,0,0,.76.19,1.72,1.72,0,0,0,1-.33A1.84,1.84,0,0,0,74,45a1.57,1.57,0,0,0,1,.8,1.58,1.58,0,0,0-.46.91,2.31,2.31,0,0,0-1.25.42,2.35,2.35,0,0,0-1,1.67V49a2.05,2.05,0,0,0,.07.6,1.62,1.62,0,0,1-1.23-.5A3.65,3.65,0,0,1,70.22,45.76Zm6.36-10.47c.06-.1.44-.19,1.11.06a2.68,2.68,0,0,0-.31.42,2.27,2.27,0,0,0-.22.54C76.61,35.83,76.5,35.42,76.58,35.29Zm3.1-3.66c.11-.08.5,0,1,.43a2.39,2.39,0,0,0-.44.29,2.06,2.06,0,0,0-.38.41C79.56,32.14,79.57,31.72,79.68,31.63Zm4.17-2.38c.13-.05.48.16.83.75a3,3,0,0,0-.52.12,2.36,2.36,0,0,0-.5.26C83.56,29.69,83.71,29.3,83.85,29.25Zm3.44,3.13a2,2,0,0,0,1.28.46,1.12,1.12,0,0,0,.84-.36,1.17,1.17,0,0,0,.27-.76,1.13,1.13,0,0,0-1.11-1.16.5.5,0,0,0,0,1c.11,0,.11.14.11.16a.13.13,0,0,1-.11.12.81.81,0,0,1-.81-.44.7.7,0,0,1,0-.74l0-.05a1.29,1.29,0,0,1,1.44-.06,1.31,1.31,0,0,1,.61,1,1.34,1.34,0,0,1-.4,1.12.47.47,0,0,0-.16.32c-.27,0-.54,0-.82,0a10.25,10.25,0,0,0-1.36.11A2,2,0,0,0,87.29,32.38ZM91,28.66c.14,0,.4.41.33,1.34-.06.13-.12.26-.17.4a1.57,1.57,0,0,0-.39.46,2.31,2.31,0,0,0-.65-.94v0C90.38,29,90.8,28.61,91,28.66Zm4.51,1.66c.13.08.21.56-.15,1.37-.1.1-.2.2-.3.32a1.78,1.78,0,0,0-.54.3,2.16,2.16,0,0,0-.28-1.09l0,0C94.83,30.39,95.34,30.23,95.49,30.32Zm3.66,3.1c.09.11,0,.57-.61,1.24l-.38.19a1.36,1.36,0,0,0-.6.1,2.26,2.26,0,0,0,.1-1.12h0l.09-.06C98.53,33.27,99,33.3,99.15,33.42Zm2.38,4.17c0,.13-.14.55-1,.95l-.45.06a1.51,1.51,0,0,0-.59-.11,2.3,2.3,0,0,0,.48-1l.09,0C101,37.23,101.48,37.43,101.53,37.59Zm-1.07,11.64c-.07.11-.47.18-1.11-.06a2.68,2.68,0,0,0,.31-.42,2.2,2.2,0,0,0,.22-.53C100.43,48.7,100.54,49.1,100.46,49.23Zm-7.27,6c-.12,0-.47-.11-.83-.75a2.44,2.44,0,0,0,.52-.12,2.36,2.36,0,0,0,.5-.26C93.48,54.83,93.33,55.22,93.19,55.27Zm.7,2.6a.9.9,0,0,1-.61.53,1.55,1.55,0,0,1-.62.1l-.13,0a1.31,1.31,0,0,1-.92-.76,1.28,1.28,0,0,1,0-1.13,1.81,1.81,0,0,0,.49-.78,2.77,2.77,0,0,0,.37.28h0a1.07,1.07,0,0,0-.72.83A1.21,1.21,0,0,0,92.13,58a1.06,1.06,0,0,0,1.08.19.48.48,0,0,0,.25-.65.57.57,0,0,0-.69-.3.18.18,0,0,1,0-.25.84.84,0,0,1,.92.14A.71.71,0,0,1,93.89,57.87Zm-5.43-1.78h0c-.14,0-.39-.32-.51-1a2.25,2.25,0,0,0,.52.07,2.36,2.36,0,0,0,.55-.07C88.88,55.77,88.61,56.09,88.46,56.09Zm-2.4-.22c-.16,0-.4-.46-.33-1.35a3.7,3.7,0,0,0,.17-.4,1.5,1.5,0,0,0,.4-.47,2.23,2.23,0,0,0,.63.93v0l0,.1C86.63,55.59,86.22,55.89,86.06,55.87ZM81.55,54.2c-.12-.07-.24-.52.15-1.37.1-.1.2-.2.3-.32a1.62,1.62,0,0,0,.54-.31,2.3,2.3,0,0,0,.28,1.1l0,.06C82.21,54.13,81.7,54.29,81.55,54.2Zm-6-5.66v0a1.08,1.08,0,0,0-.94-.57h0a1.23,1.23,0,0,0-1,.61,1,1,0,0,0,0,1.09.48.48,0,0,0,.68.14.55.55,0,0,0,.18-.73.16.16,0,0,1,.24-.05.84.84,0,0,1,0,.93.72.72,0,0,1-.67.32.9.9,0,0,1-.63-.51,1.59,1.59,0,0,1-.2-.59V49a1.33,1.33,0,0,1,.59-1,1.29,1.29,0,0,1,1.14-.2,1.81,1.81,0,0,0,.83.33A2.06,2.06,0,0,0,75.6,48.54Zm2.29-5.81A1.23,1.23,0,0,1,79,43a.51.51,0,0,0,.4.14,8.67,8.67,0,0,0,.48,2,2.22,2.22,0,0,0-.89,0,1.94,1.94,0,0,0,.24-1.35,1.06,1.06,0,0,0-.68-.85,1.21,1.21,0,0,0-1.18.21,1.08,1.08,0,0,0-.38,1,.5.5,0,1,0,1-.17A.09.09,0,0,1,78,44s.14-.06.23,0a.83.83,0,0,1-.28.88.72.72,0,0,1-.74.08.91.91,0,0,1-.42-.7,1.47,1.47,0,0,1,0-.73l0-.1A1.34,1.34,0,0,1,77.89,42.73Zm4.32-2.4a1.78,1.78,0,1,1-1.78,1.78A1.78,1.78,0,0,1,82.21,40.33Zm3.14-3.85a1.77,1.77,0,1,1-2.51,0A1.76,1.76,0,0,1,85.35,36.48Zm8.8.12a1.77,1.77,0,1,1-2.51,0A1.76,1.76,0,0,1,94.15,36.6Zm2.56,1a1.06,1.06,0,0,0,1.52.39,1.11,1.11,0,0,0,.45-1.54.5.5,0,1,0-.86.5c.05.09-.07.17-.09.18s-.13,0-.16,0a.87.87,0,0,1,0-1,.71.71,0,0,1,.66-.31h0a1,1,0,0,1,.64.51,1.36,1.36,0,0,1,.2.72,1.35,1.35,0,0,1-.61,1.06,1.31,1.31,0,0,1-1.2.17.5.5,0,0,0-.38,0,9.13,9.13,0,0,0-1.1-1.8,2.23,2.23,0,0,0,.71-.25A2,2,0,0,0,96.71,37.6Zm3.11,1.95a.89.89,0,0,1,.42.7,1.5,1.5,0,0,1,0,.76l0,.06a1.32,1.32,0,0,1-1,.72,1.26,1.26,0,0,1-1.12-.3.53.53,0,0,0-.38-.14,9,9,0,0,0-.4-2,2.71,2.71,0,0,0,.4,0,2.63,2.63,0,0,0,.39-.06,1.93,1.93,0,0,0-.24,1.35,1.06,1.06,0,0,0,.68.85,1.22,1.22,0,0,0,1.19-.21,1.08,1.08,0,0,0,.37-1,.48.48,0,0,0-.59-.36.55.55,0,0,0-.42.62c-.06.05-.15.06-.24,0a.82.82,0,0,1,.28-.88A.71.71,0,0,1,99.82,39.55Zm-3.38,2.73a1.78,1.78,0,1,1-1.78-1.78A1.78,1.78,0,0,1,96.44,42.28Zm-3.37,8.85a1.9,1.9,0,0,0-1.37,0A1.05,1.05,0,0,0,91,52a1.21,1.21,0,0,0,.42,1.13,1.07,1.07,0,0,0,1.07.18.49.49,0,0,0,.26-.64.56.56,0,0,0-.69-.31.15.15,0,0,1,0-.24.85.85,0,0,1,.88.1.68.68,0,0,1,.25.66c0,.27-.26.48-.63.62a1.51,1.51,0,0,1-.83.06h0a1.38,1.38,0,0,1-.89-.94,1.21,1.21,0,0,1,.2-1.17A.48.48,0,0,0,91.1,51a8.91,8.91,0,0,0,1.83-.75A2.29,2.29,0,0,0,93.07,51.13Zm-3.31,1a2,2,0,0,0-1.29-.46,1.09,1.09,0,0,0-.84.36,1.17,1.17,0,0,0-.27.75A1.13,1.13,0,0,0,88.47,54a.5.5,0,0,0,0-1c-.1,0-.11-.12-.11-.16a.13.13,0,0,1,.11-.11.82.82,0,0,1,.82.44.7.7,0,0,1-.06.74,1.27,1.27,0,0,1-1.48.1,1.32,1.32,0,0,1-.61-1.16,1.23,1.23,0,0,1,.59-1.1A.51.51,0,0,0,88,51.3c.18,0,.36,0,.55,0A8.57,8.57,0,0,0,90,51.2,2.19,2.19,0,0,0,89.76,52.15Zm-3.19-3.73a1.78,1.78,0,1,1,1.78,1.77A1.78,1.78,0,0,1,86.57,48.42Zm5-.51a1.77,1.77,0,1,1,2.51,0A1.76,1.76,0,0,1,91.52,47.91Zm.74-5.15a1.78,1.78,0,1,1-2.18-1.26A1.77,1.77,0,0,1,92.26,42.76Zm-2.48-1.63a1.78,1.78,0,0,1-2.52-2.52,1.77,1.77,0,0,1,2.52,0A1.79,1.79,0,0,1,89.78,41.13ZM90.3,36a1.78,1.78,0,1,1-1.78-1.78A1.78,1.78,0,0,1,90.3,36Zm-3.41,5.5a1.78,1.78,0,1,1-2.18,1.26A1.79,1.79,0,0,1,86.89,41.47Zm-4.17,6.32a1.77,1.77,0,1,1,2.51,0A1.76,1.76,0,0,1,82.72,47.79Zm-2.38-.86a1,1,0,0,0-1-.56,1.21,1.21,0,0,0-1,.62,1.07,1.07,0,0,0,0,1.08.48.48,0,0,0,.68.14.55.55,0,0,0,.18-.73.18.18,0,0,1,.25,0,.84.84,0,0,1,0,.93.7.7,0,0,1-.66.32,1,1,0,0,1-.65-.51,1.37,1.37,0,0,1-.2-.73,1.32,1.32,0,0,1,.66-1.08,1.28,1.28,0,0,1,1.22-.1.51.51,0,0,0,.45,0A9.06,9.06,0,0,0,81.44,48a2.24,2.24,0,0,0-.87.29A1.93,1.93,0,0,0,80.34,46.93Zm-4.83,0c-.05-.15.19-.56,1-1a3.49,3.49,0,0,0,.44,0,1.72,1.72,0,0,0,.59.12h0a2.23,2.23,0,0,0-.48,1h-.13l0,0C76,47.28,75.56,47.08,75.51,46.93Zm1.61,1.25a3.37,3.37,0,0,0,.2.49,2.19,2.19,0,0,0,.35.44c-.67.22-1.08.14-1.15,0S76.6,48.63,77.12,48.18Zm.77,2.92c-.1-.12,0-.6.61-1.24l.37-.18h0a1.67,1.67,0,0,0,.58-.12,2.25,2.25,0,0,0-.11,1.12l-.06,0C78.53,51.26,78,51.23,77.89,51.1Zm2.51-.37a1.3,1.3,0,0,1,.26-1.25A1.25,1.25,0,0,1,81.8,49a.52.52,0,0,0,.43-.16A8.71,8.71,0,0,0,83.85,50a2.22,2.22,0,0,0-.74.59,1.94,1.94,0,0,0-.69-1.18,1.07,1.07,0,0,0-1.56.14,1.12,1.12,0,0,0,.1,1.6.5.5,0,1,0,.64-.76c-.08-.07,0-.18,0-.2s.11,0,.16,0a.83.83,0,0,1,.34.87.69.69,0,0,1-.52.52.94.94,0,0,1-.77-.26A1.45,1.45,0,0,1,80.4,50.73ZM83.8,53a1.33,1.33,0,0,1-.18-1.3,1.24,1.24,0,0,1,.91-.84.48.48,0,0,0,.35-.28,9,9,0,0,0,1.93.58,2.18,2.18,0,0,0-.51.82,1.93,1.93,0,0,0-1-.88,1.08,1.08,0,0,0-1.08.17,1.22,1.22,0,0,0-.4,1.14,1.06,1.06,0,0,0,.71.83.49.49,0,0,0,.61-.34.56.56,0,0,0-.34-.67c0-.07,0-.16.16-.19a.84.84,0,0,1,.62.69.71.71,0,0,1-.31.68.94.94,0,0,1-.81,0A1.36,1.36,0,0,1,83.8,53Zm6.31,1.31a1.54,1.54,0,0,0,.22-.57,2.33,2.33,0,0,0,.92.66v.07c.06,1-.23,1.39-.39,1.42s-.53-.3-.77-1.15C90.1,54.6,90.11,54.46,90.11,54.31Zm4.16-.85c0-.13-.08-.27-.12-.41s0,0,0,0a1.67,1.67,0,0,0,0-.59,2.26,2.26,0,0,0,1.09.32v.08l.07.07c.32.81.22,1.3.08,1.37S94.81,54.22,94.27,53.46Zm1.86-2.05a1.36,1.36,0,0,1-.67.31,1.28,1.28,0,0,1-1.2-.48A1.26,1.26,0,0,1,94,50a.48.48,0,0,0-.07-.45,9,9,0,0,0,1.48-1.35,2.42,2.42,0,0,0,.44.82,1.94,1.94,0,0,0-1.28.46,1.09,1.09,0,0,0-.14,1.57,1.12,1.12,0,0,0,1.6.18.5.5,0,0,0,.07-.7.5.5,0,0,0-.71-.07c-.08.07-.17,0-.19-.05s0-.12,0-.16a.85.85,0,0,1,.92-.19.69.69,0,0,1,.42.6A.94.94,0,0,1,96.13,51.41Zm.17-3.69a.56.56,0,0,0-.21-.38,8.94,8.94,0,0,0,1-1.78,2.27,2.27,0,0,0,.66.57,2,2,0,0,0-1,.88,1.07,1.07,0,0,0,0,1.09,1.21,1.21,0,0,0,1.05.6h0a1.06,1.06,0,0,0,.94-.55.48.48,0,0,0-.22-.66.55.55,0,0,0-.72.21.17.17,0,0,1-.17-.18.86.86,0,0,1,.74-.49h0a.71.71,0,0,1,.62.34.85.85,0,0,1-.09.88,1.38,1.38,0,0,1-.43.49l-.08,0a1.32,1.32,0,0,1-1.29,0A1.27,1.27,0,0,1,96.3,47.72Zm2.42-2.26a1.32,1.32,0,0,1-1-.64.47.47,0,0,0-.12-.2.48.48,0,0,0-.22-.12,9.65,9.65,0,0,0,.3-2,2.09,2.09,0,0,0,.76.3A2,2,0,0,0,97.79,44a1.07,1.07,0,0,0,.36,1,1.19,1.19,0,0,0,1.18.2,1,1,0,0,0,.7-.84.48.48,0,0,0-.43-.54.56.56,0,0,0-.61.44c-.07,0-.16,0-.21-.12a.8.8,0,0,1,.91-.75c.33.06.65.36.54,1a1.39,1.39,0,0,1-.31.67A1.34,1.34,0,0,1,98.72,45.46ZM96.64,33.78a1.39,1.39,0,0,1-1.24,1.78h0v.51a9.26,9.26,0,0,0-2-1.71,2.1,2.1,0,0,0,.57-.46,1.9,1.9,0,0,0,.68,1.17,1.06,1.06,0,0,0,1.55-.13,1.12,1.12,0,0,0-.09-1.61.49.49,0,0,0-.7.05.51.51,0,0,0,.05.71c.09.07,0,.19,0,.2s-.1.06-.15,0a.81.81,0,0,1-.34-.86.68.68,0,0,1,.52-.52.94.94,0,0,1,.77.26A1.4,1.4,0,0,1,96.64,33.78Zm-3.48-2.36.08.11a1.27,1.27,0,0,1,.22,1.17,1.25,1.25,0,0,1-.76.89.49.49,0,0,0-.27.26,8.39,8.39,0,0,0-2-.69,2.42,2.42,0,0,0,.35-.6,2,2,0,0,0,1,.86,1.07,1.07,0,0,0,1.08-.17,1.19,1.19,0,0,0,.4-1.13,1.08,1.08,0,0,0-.7-.84.48.48,0,0,0-.61.34.54.54,0,0,0,.33.67c0,.08,0,.16-.16.19a.84.84,0,0,1-.62-.69.7.7,0,0,1,.32-.67.88.88,0,0,1,.8,0A1.53,1.53,0,0,1,93.16,31.42Zm-7,1.5a.53.53,0,0,0,0,.37,9.47,9.47,0,0,0-2,.8A2.76,2.76,0,0,0,84,33.4a1.9,1.9,0,0,0,1.35,0A1.08,1.08,0,0,0,86,32a1.1,1.1,0,0,0-1.43-.7.5.5,0,1,0,.34.93c.1,0,.15.1.16.12s0,.13-.06.15A.8.8,0,0,1,83.9,32c-.12-.32,0-.74.6-1a1.47,1.47,0,0,1,.74-.07,1.39,1.39,0,0,1,.92,1.93Zm-3,1.39a.5.5,0,0,0,.09.36,8.87,8.87,0,0,0-1.6,1.46,2.16,2.16,0,0,0-.35-.63A2,2,0,0,0,82.51,35a1.08,1.08,0,0,0,.12-1.57A1.1,1.1,0,0,0,81,33.27.49.49,0,0,0,81,34a.5.5,0,0,0,.7.07c.08-.07.16,0,.19,0s0,.13,0,.17a.8.8,0,0,1-1.18,0c-.22-.26-.28-.69.23-1.12a1.36,1.36,0,0,1,.67-.31,1.29,1.29,0,0,1,1.12.38A1.32,1.32,0,0,1,83.11,34.31ZM80,35.73a1.29,1.29,0,0,1,.75.92.53.53,0,0,0,.21.33,9.42,9.42,0,0,0-1,1.92,2.05,2.05,0,0,0-.59-.51,1.93,1.93,0,0,0,1-.89,1,1,0,0,0,0-1.08,1.21,1.21,0,0,0-1-.6h0a1.06,1.06,0,0,0-.94.55.47.47,0,0,0,.22.65.54.54,0,0,0,.72-.2.17.17,0,0,1,.17.18.87.87,0,0,1-.74.5.69.69,0,0,1-.62-.35.85.85,0,0,1,.09-.88,1.21,1.21,0,0,1,.42-.47l.09-.06A1.32,1.32,0,0,1,80,35.73Zm-.68,4a.51.51,0,0,0,.33.24,9.17,9.17,0,0,0-.28,2.11,2.24,2.24,0,0,0-.76-.28,2,2,0,0,0,.67-1.19,1.06,1.06,0,0,0-.36-1,1.22,1.22,0,0,0-1.18-.21,1.06,1.06,0,0,0-.7.84.48.48,0,0,0,.43.54.57.57,0,0,0,.61-.44.17.17,0,0,1,.21.12.8.8,0,0,1-.91.75c-.33-.06-.65-.36-.54-1a1.34,1.34,0,0,1,.31-.67,1.38,1.38,0,0,1,2.17.23Zm-3.51,4.21a3.26,3.26,0,0,0,0,.54A2.31,2.31,0,0,0,76,45c-.69,0-1-.24-1.07-.39S75.09,44.16,75.78,43.91Zm-2.86,6.78a1.74,1.74,0,0,0,1,.56h.22a1.64,1.64,0,0,0,1.65-1.41,1.57,1.57,0,0,0,1.14.41H77a1.62,1.62,0,0,0-.12,1,2.37,2.37,0,0,0-1,.82A2.35,2.35,0,0,0,75.49,54v0l.06.17a1.91,1.91,0,0,0,.28.55,1.63,1.63,0,0,1-1.33,0,3.6,3.6,0,0,1-2-2.86A1.42,1.42,0,0,1,72.92,50.69Zm6.91,1a1.9,1.9,0,0,0,.36.39,2.24,2.24,0,0,0,.47.31c-.55.43-1,.49-1.08.4S79.49,52.29,79.83,51.71Zm3.77,2.41a1.92,1.92,0,0,0,1,.37c-.37.61-.75.79-.89.74S83.48,54.8,83.6,54.12Zm2.91,2.66a1.72,1.72,0,0,0,.74-.57,1.58,1.58,0,0,0,.26.38h0a1,1,0,0,0-1,.53,1.22,1.22,0,0,0,0,1.2,1.05,1.05,0,0,0,1,.54.49.49,0,0,0,.46-.52.56.56,0,0,0-.55-.52.17.17,0,0,1,.09-.23.83.83,0,0,1,.81.44.7.7,0,0,1-.06.74,1.27,1.27,0,0,1-1.36.17l-.11-.07a1.32,1.32,0,0,1-.61-1A1.28,1.28,0,0,1,86.51,56.78ZM89,59.37a1.7,1.7,0,0,0,.16-1.78,1.54,1.54,0,0,0-.44-.54,1.59,1.59,0,0,0,1-.82,1.68,1.68,0,0,0,.82.61,2.36,2.36,0,0,0,.19,1.3,2.33,2.33,0,0,0,1.48,1.27l.17.05a2,2,0,0,0,.42,0l.19,0a1.65,1.65,0,0,1-.71,1.14,3.65,3.65,0,0,1-3.46.27A1.44,1.44,0,0,1,88,60,1.71,1.71,0,0,0,89,59.37Zm8.34-6.47c-.1.08-.48.05-1-.43a2.8,2.8,0,0,0,.46-.3,1.84,1.84,0,0,0,.38-.41C97.48,52.38,97.47,52.8,97.36,52.9Zm.37-2.11-.24-.33a1.63,1.63,0,0,0-.21-.57,2.87,2.87,0,0,0,.41,0,2.24,2.24,0,0,0,.72-.14l0,.05c.66.7.73,1.22.62,1.35S98.48,51.31,97.73,50.79Zm2.38-3.65a2.88,2.88,0,0,0-.34-.23s0,0,0,0a1.81,1.81,0,0,0-.39-.44,2.3,2.3,0,0,0,1-.46h0l.13.07h0c.78.41,1,.84,1,1S101,47.36,100.11,47.14Zm.94-2.08a2.16,2.16,0,0,0,.16-.51,1.91,1.91,0,0,0,0-.58c.68.26.92.6.9.75S101.8,45.07,101.05,45.06Zm0-2.19a2.59,2.59,0,0,0-.4-.09,1.63,1.63,0,0,0-.52-.31,2.4,2.4,0,0,0,.78-.74l.1,0h0c.92.11,1.31.46,1.31.62S102,42.79,101.07,42.87Zm.19-2.27a3.14,3.14,0,0,0,0-.53,1.83,1.83,0,0,0-.17-.53c.71,0,1.07.24,1.09.38S101.9,40.36,101.26,40.6Zm-1.34-4.26a2.33,2.33,0,0,0-.21-.49,2.11,2.11,0,0,0-.33-.44c.66-.21,1.07-.13,1.14,0S100.44,35.9,99.92,36.34ZM97.21,32.8a2.58,2.58,0,0,0-.36-.38,2.24,2.24,0,0,0-.47-.31c.55-.43,1-.49,1.08-.4S97.55,32.22,97.21,32.8Zm-3.77-2.4a2.84,2.84,0,0,0-.46-.24,2.34,2.34,0,0,0-.56-.12c.37-.62.74-.8.88-.75S93.56,29.72,93.44,30.4Zm-4.86-2h0c.13,0,.38.31.5,1a2.37,2.37,0,0,0-1.06,0C88.16,28.75,88.43,28.44,88.58,28.44Zm-1.65,1.72v0a1.54,1.54,0,0,0-.2.58,2.19,2.19,0,0,0-.92-.65s0-.05,0-.08c-.05-.95.23-1.4.4-1.42s.52.29.76,1.15C86.94,29.91,86.93,30,86.93,30.16Zm-4.15.91a3.71,3.71,0,0,0,.12.41,1.57,1.57,0,0,0,0,.61,2.34,2.34,0,0,0-1.08-.3v-.08l-.07-.07c-.33-.82-.22-1.3-.08-1.38S82.23,30.34,82.78,31.07Zm-3.49,2.64a3.85,3.85,0,0,0,.26.34,1.59,1.59,0,0,0,.19.58,2.28,2.28,0,0,0-1.1.09l0,0c-.66-.7-.73-1.23-.62-1.36S78.56,33.21,79.29,33.71Zm-2.36,3.68a3,3,0,0,0,.35.22s0,0,0,0a1.51,1.51,0,0,0,.39.44,2.41,2.41,0,0,0-1,.46l-.06,0c-.86-.42-1.1-.89-1-1.05S76.07,37.16,76.93,37.39ZM76,39.45a2.4,2.4,0,0,0-.16.52,1.91,1.91,0,0,0,0,.58c-.68-.26-.92-.61-.9-.75S75.24,39.44,76,39.45Zm0,2.2.41.09a1.49,1.49,0,0,0,.51.31,2.41,2.41,0,0,0-.74.68l-.07.11H76c-.93-.11-1.32-.47-1.31-.64S75.09,41.73,76,41.65Zm.79,15.06a1.42,1.42,0,0,1,0-1.19,1.88,1.88,0,0,0,.81.21,1.34,1.34,0,0,0,.35,0,1.68,1.68,0,0,0,1.27-1.26,1.75,1.75,0,0,0,0-.72,1.26,1.26,0,0,0,.57.14,2.1,2.1,0,0,0,.69-.15,1.7,1.7,0,0,0,.23,1A2.38,2.38,0,0,0,80,55.83a2.32,2.32,0,0,0,.3,1.91l.11.16a2.52,2.52,0,0,0,.45.41,1.6,1.6,0,0,1-1.27.41A3.62,3.62,0,0,1,76.76,56.71Zm5.47,2.06a1.63,1.63,0,0,0,.9-.26,1.7,1.7,0,0,0,.77-1.62,1.74,1.74,0,0,0-.24-.67l.12,0a1.66,1.66,0,0,0,1.07-.46,1.67,1.67,0,0,0,.55.86,2.42,2.42,0,0,0-.26,1.29,2.36,2.36,0,0,0,.94,1.7l.15.1a2.87,2.87,0,0,0,.57.24,1.62,1.62,0,0,1-1,.81,3.58,3.58,0,0,1-3.34-.92A1.45,1.45,0,0,1,82,58.75Zm16.65-5.19a1.63,1.63,0,0,0-.69-.13,1.55,1.55,0,0,0,.2-1.25,1.94,1.94,0,0,0,.46.06,1.36,1.36,0,0,0,.56-.11,2.39,2.39,0,0,0,1,.87,2.48,2.48,0,0,0,1,.23,2.14,2.14,0,0,0,.9-.19h0l.16-.08a2.52,2.52,0,0,0,.49-.37,1.6,1.6,0,0,1,.17,1.32,3.59,3.59,0,0,1-2.47,2.43,1.41,1.41,0,0,1-1.17-.2,1.66,1.66,0,0,0-.65-2.58Zm4.71-3.19a1.71,1.71,0,0,0-1.46-1,1.81,1.81,0,0,0-.7.12,1.55,1.55,0,0,0-.25-1.26,1.67,1.67,0,0,0,.94-.39,2.34,2.34,0,0,0,1.24.49h.22a2.29,2.29,0,0,0,1.62-.65l.13-.12a2.3,2.3,0,0,0,.33-.52,1.6,1.6,0,0,1,.62,1.18,3.6,3.6,0,0,1-1.49,3.13,1.45,1.45,0,0,1-1.17.22A1.67,1.67,0,0,0,103.59,50.39Zm2.3-4.55a1.66,1.66,0,0,0-2.16-1.57,1.74,1.74,0,0,0-.61.34,1.59,1.59,0,0,0-.66-1.09,1.74,1.74,0,0,0,.75-.68,2.26,2.26,0,0,0,.69.11,2.72,2.72,0,0,0,.63-.08,2.34,2.34,0,0,0,1.5-1.2l.09-.19a2,2,0,0,0,.14-.6,1.6,1.6,0,0,1,1,.9,3.59,3.59,0,0,1-.33,3.45A1.45,1.45,0,0,1,105.89,45.84Zm.93-7.08a1.47,1.47,0,0,1-.75.92,1.67,1.67,0,0,0-.79-.88,1.69,1.69,0,0,0-1.78.15,1.8,1.8,0,0,0-.46.53,1.55,1.55,0,0,0-1-.8,1.61,1.61,0,0,0,.46-.91,2.37,2.37,0,0,0,2.24-2.06l0-.2a2.12,2.12,0,0,0-.07-.61,1.62,1.62,0,0,1,1.23.5A3.65,3.65,0,0,1,106.82,38.76Zm-2.7-4.93a1.65,1.65,0,0,0-1-.55,1.66,1.66,0,0,0-1.87,1.4,1.58,1.58,0,0,0-1.19-.41,1.65,1.65,0,0,0,.12-1,2.4,2.4,0,0,0,1-.82,2.33,2.33,0,0,0,.37-1.9v0l0-.16a2.2,2.2,0,0,0-.28-.55,1.6,1.6,0,0,1,1.33.06,3.6,3.6,0,0,1,2,2.85A1.42,1.42,0,0,1,104.12,33.83ZM100.3,29a1.64,1.64,0,0,0-1.16-.16,1.67,1.67,0,0,0-1.27,1.25,1.65,1.65,0,0,0,0,.7,1.57,1.57,0,0,0-1.26,0,1.62,1.62,0,0,0-.23-1,2.39,2.39,0,0,0,.68-1.12,2.35,2.35,0,0,0-.3-1.92l-.11-.15a1.81,1.81,0,0,0-.45-.42,1.62,1.62,0,0,1,1.27-.4,3.61,3.61,0,0,1,2.83,2A1.43,1.43,0,0,1,100.3,29Zm-6.39-3a1.7,1.7,0,0,0-.77,1.62,1.85,1.85,0,0,0,.23.66,1.58,1.58,0,0,0-1.18.46,1.75,1.75,0,0,0-.56-.86,2.37,2.37,0,0,0,.27-1.29A2.33,2.33,0,0,0,91,24.9l-.15-.11a2.87,2.87,0,0,0-.57-.24,1.65,1.65,0,0,1,1.06-.81,3.59,3.59,0,0,1,3.34.93,1.45,1.45,0,0,1,.42,1.11A1.71,1.71,0,0,0,93.91,26ZM88,25.15a1.7,1.7,0,0,0-.16,1.78,1.54,1.54,0,0,0,.44.54,1.53,1.53,0,0,0-1,.82,1.57,1.57,0,0,0-.82-.61,2.31,2.31,0,0,0-.19-1.29,2.35,2.35,0,0,0-1.46-1.27l-.19-.06a3,3,0,0,0-.61,0,1.62,1.62,0,0,1,.71-1.12,3.62,3.62,0,0,1,3.46-.28,1.44,1.44,0,0,1,.77.9A1.74,1.74,0,0,0,88,25.15Zm-9.86,5.79a1.64,1.64,0,0,0,.68.15,1.58,1.58,0,0,0-.19,1.23,1.56,1.56,0,0,0-1,0,2.47,2.47,0,0,0-1-.87,2.34,2.34,0,0,0-1.92,0h0l-.17.09a1.87,1.87,0,0,0-.48.37,1.62,1.62,0,0,1-.18-1.32,3.59,3.59,0,0,1,2.47-2.43,1.41,1.41,0,0,1,1.17.19,1.66,1.66,0,0,0,.65,2.58Zm-4.71,3.2a1.7,1.7,0,0,0,1.46,1H75a1.66,1.66,0,0,0,.58-.11,1.53,1.53,0,0,0,.23,1.23,1.61,1.61,0,0,0-.94.4,2.47,2.47,0,0,0-1.22-.48,2.34,2.34,0,0,0-1.84.64l-.13.13a2.23,2.23,0,0,0-.33.51,1.62,1.62,0,0,1-.62-1.18,3.63,3.63,0,0,1,1.49-3.13A1.45,1.45,0,0,1,73.42,33,1.7,1.7,0,0,0,73.45,34.14Zm-2.3,4.55a1.65,1.65,0,0,0,1.68,1.63,1.59,1.59,0,0,0,.48-.07,1.74,1.74,0,0,0,.61-.34A1.59,1.59,0,0,0,74.58,41a1.59,1.59,0,0,0-.75.69,2.37,2.37,0,0,0-1.32,0A2.29,2.29,0,0,0,71,42.87l-.08.18a2.21,2.21,0,0,0-.14.59,1.61,1.61,0,0,1-1-.89,3.59,3.59,0,0,1,.33-3.45A1.38,1.38,0,0,1,71.15,38.69Zm-32.05.66a3.62,3.62,0,0,1,3.15-1.43,1.4,1.4,0,0,1,1,.58,1.68,1.68,0,0,0-.73.92,1.66,1.66,0,0,0,1.06,2.09A1.56,1.56,0,0,0,43,42.62a1.63,1.63,0,0,0-1-.3,2.37,2.37,0,0,0-.63-1.16,2.33,2.33,0,0,0-1.81-.7h0l-.18,0a2.05,2.05,0,0,0-.58.18A1.63,1.63,0,0,1,39.1,39.35Zm2.41,30.38a1.08,1.08,0,0,0,.7.84.48.48,0,0,0,.61-.34.54.54,0,0,0-.33-.67c0-.08,0-.16.16-.19a.81.81,0,0,1,.61.69.68.68,0,0,1-.31.67.85.85,0,0,1-.8,0,1.53,1.53,0,0,1-.53-.32l-.08-.11a1.35,1.35,0,0,1,.48-2,1.94,1.94,0,0,0,.9-.28,1.82,1.82,0,0,0,.09.43h0a1.07,1.07,0,0,0-1.08.17A1.19,1.19,0,0,0,41.51,69.73ZM37.4,67.37a.49.49,0,0,0,.69-.11.56.56,0,0,0-.08-.75c0-.07.08-.14.21-.12a.83.83,0,0,1,.34.87.69.69,0,0,1-.52.52.92.92,0,0,1-.76-.26,1.56,1.56,0,0,1-.39-.48l0-.13A1.33,1.33,0,0,1,37,65.73a1.29,1.29,0,0,1,1-.57,1.78,1.78,0,0,0,.48.08,1.72,1.72,0,0,0,.44-.06,2.79,2.79,0,0,0,0,.47l0,0a1.06,1.06,0,0,0-1.08-.21,1.2,1.2,0,0,0-.76.92A1.07,1.07,0,0,0,37.4,67.37ZM36,61.6s0,0,0,0A1.1,1.1,0,0,0,35,61h0a1.23,1.23,0,0,0-1,.61,1.06,1.06,0,0,0,0,1.1.48.48,0,0,0,.68.13.55.55,0,0,0,.18-.73.16.16,0,0,1,.24,0,.82.82,0,0,1,0,.93.68.68,0,0,1-.66.31.88.88,0,0,1-.63-.51,1.49,1.49,0,0,1-.2-.58v-.14a1.34,1.34,0,0,1,.59-1,1.31,1.31,0,0,1,1.14-.2,1.71,1.71,0,0,0,.83.33A2.74,2.74,0,0,0,36,61.6Zm-1.37-4.8v0a1.05,1.05,0,0,0-.69-.85,1.23,1.23,0,0,0-1.18.21,1.07,1.07,0,0,0-.37,1,.48.48,0,0,0,.59.36.55.55,0,0,0,.42-.62c.06,0,.15-.06.24,0a.83.83,0,0,1-.29.88.71.71,0,0,1-.74.07.91.91,0,0,1-.41-.69,1.43,1.43,0,0,1,0-.62l0-.13a1.3,1.3,0,0,1,.91-.77,1.27,1.27,0,0,1,1.11.19,1.81,1.81,0,0,0,.68.62A2.46,2.46,0,0,0,34.59,56.8Zm0-6a1.2,1.2,0,0,0-1.18-.2,1.06,1.06,0,0,0-.71.84.5.5,0,0,0,.44.54.57.57,0,0,0,.61-.44c.07,0,.16,0,.21.12a.84.84,0,0,1-.58.73.71.71,0,0,1-.71-.19.88.88,0,0,1-.16-.79,1.6,1.6,0,0,1,.22-.58l.1-.1a1.37,1.37,0,0,1,2.09.13,1.72,1.72,0,0,0,.43.82,2,2,0,0,0-.42.18v0A1.05,1.05,0,0,0,34.6,50.77ZM34.86,46a1.42,1.42,0,0,1,.41-.46l.12-.07a1.37,1.37,0,0,1,1.92.85,1.81,1.81,0,0,0,.12.91,1.57,1.57,0,0,0-.44,0v0a1.09,1.09,0,0,0,0-1.09,1.22,1.22,0,0,0-1-.59h0a1.07,1.07,0,0,0-.94.54.48.48,0,0,0,.22.66.55.55,0,0,0,.72-.2c.08,0,.16,0,.16.18a.81.81,0,0,1-.79.49.68.68,0,0,1-.6-.42A.89.89,0,0,1,34.86,46Zm4-4.23a1.39,1.39,0,0,1,.54-.3l.13,0a1.37,1.37,0,0,1,1.53,1.45,1.81,1.81,0,0,0-.21.9,1.69,1.69,0,0,0-.42-.13h0a1.07,1.07,0,0,0,.4-1,1.23,1.23,0,0,0-.78-.92,1.07,1.07,0,0,0-1.08.19.49.49,0,0,0,0,.7.55.55,0,0,0,.75,0,.16.16,0,0,1,.08.23.86.86,0,0,1-.91.19.72.72,0,0,1-.42-.61A.88.88,0,0,1,38.89,41.79Zm4.63-2.08a.88.88,0,0,1,.6-.53,1.49,1.49,0,0,1,.61-.09l.14,0a1.32,1.32,0,0,1,.92.75,1.28,1.28,0,0,1,0,1.13,1.85,1.85,0,0,0-.49.79,2.77,2.77,0,0,0-.37-.28h0a1.07,1.07,0,0,0,.72-.82,1.23,1.23,0,0,0-.42-1.13,1.08,1.08,0,0,0-1.08-.18.47.47,0,0,0-.25.64.56.56,0,0,0,.69.31.17.17,0,0,1,0,.24.84.84,0,0,1-.92-.13A.7.7,0,0,1,43.52,39.71Zm7.36-.44a1.06,1.06,0,0,0-1-.55.5.5,0,0,0-.46.53.56.56,0,0,0,.55.52.17.17,0,0,1-.09.23.83.83,0,0,1-.81-.44.7.7,0,0,1,.06-.74,1.26,1.26,0,0,1,1.35-.17l.12.07a1.32,1.32,0,0,1,.61,1,1.27,1.27,0,0,1-.38,1.06,1.82,1.82,0,0,0-.74.58,1.73,1.73,0,0,0-.26-.4h.06a1.06,1.06,0,0,0,1-.53A1.2,1.2,0,0,0,50.88,39.27Zm5.37,1.65a1,1,0,0,0-.7-.83.48.48,0,0,0-.61.33.56.56,0,0,0,.33.68c0,.07,0,.15-.16.18a.81.81,0,0,1-.61-.69.68.68,0,0,1,.31-.67.91.91,0,0,1,.8,0,1.53,1.53,0,0,1,.53.32l.08.11a1.36,1.36,0,0,1-.5,2.05,1.67,1.67,0,0,0-.88.28,1.87,1.87,0,0,0-.1-.45h0a1,1,0,0,0,1.08-.16A1.21,1.21,0,0,0,56.25,40.92Zm4.11,2.37a.49.49,0,0,0-.69.1.56.56,0,0,0,.08.75c0,.07-.07.15-.21.12a.81.81,0,0,1-.34-.86.66.66,0,0,1,.52-.52.86.86,0,0,1,.76.26,1.45,1.45,0,0,1,.39.48l0,.13a1.37,1.37,0,0,1-1.17,1.75,1.74,1.74,0,0,0-.92,0,2.48,2.48,0,0,0,0-.45,0,0,0,0,1,0,0,1.1,1.1,0,0,0,1.08.21,1.2,1.2,0,0,0,.76-.93A1.05,1.05,0,0,0,60.36,43.29ZM61.8,49a0,0,0,0,1,0,0,1.08,1.08,0,0,0,.94.57h0a1.23,1.23,0,0,0,1-.61,1,1,0,0,0,0-1.09.49.49,0,0,0-.68-.14.55.55,0,0,0-.18.73c0,.07-.12.11-.24,0a.83.83,0,0,1,0-.92.69.69,0,0,1,.67-.32.9.9,0,0,1,.63.51,1.55,1.55,0,0,1,.2.58v.14a1.33,1.33,0,0,1-.59,1,1.26,1.26,0,0,1-1.11.2,1.89,1.89,0,0,0-.86-.35A2,2,0,0,0,61.8,49Zm1.37,4.81v0a1.08,1.08,0,0,0,.69.86A1.21,1.21,0,0,0,65,54.51a1.06,1.06,0,0,0,.37-1,.49.49,0,0,0-.59-.36.55.55,0,0,0-.42.62c-.06,0-.15.06-.24,0a.84.84,0,0,1,.29-.88.69.69,0,0,1,.74-.06.87.87,0,0,1,.41.69,1.38,1.38,0,0,1,0,.61l0,.13a1.37,1.37,0,0,1-2,.59,1.73,1.73,0,0,0-.68-.62A2,2,0,0,0,63.17,53.85ZM58.66,71.3a3.63,3.63,0,0,1-3.15,1.44,1.44,1.44,0,0,1-1-.58,1.66,1.66,0,0,0-.33-3,1.6,1.6,0,0,0,.62-1.1,1.63,1.63,0,0,0,.89.3h.08a2.42,2.42,0,0,0,.63,1.16,2.34,2.34,0,0,0,1.81.7h0l.18,0a2.05,2.05,0,0,0,.58-.18A1.61,1.61,0,0,1,58.66,71.3Zm-9.84-2.15h0c-.14,0-.39-.32-.51-1a3,3,0,0,0,.52.06,1.93,1.93,0,0,0,.55-.07C49.24,68.84,49,69.15,48.82,69.15Zm-2.4-.22c-.16,0-.4-.46-.33-1.35a3.52,3.52,0,0,0,.17-.39,1.5,1.5,0,0,0,.4-.47,2.3,2.3,0,0,0,.63.93v0l0,.1C47,68.65,46.58,69,46.42,68.93Zm-4.51-1.66c-.12-.08-.24-.52.15-1.38.1-.09.2-.2.3-.31a1.62,1.62,0,0,0,.54-.31,2.33,2.33,0,0,0,.28,1.1l0,.06C42.57,67.2,42.06,67.35,41.91,67.27Zm-3.66-3.1c-.1-.12,0-.61.61-1.24l.37-.18h0a1.67,1.67,0,0,0,.58-.12,2.27,2.27,0,0,0-.11,1.12l-.06,0C38.89,64.32,38.36,64.3,38.25,64.17ZM35.87,60c0-.14.19-.56,1-.94l.44,0a1.7,1.7,0,0,0,.58.11h0a2.23,2.23,0,0,0-.48,1l-.14,0,0,0C36.38,60.34,35.92,60.15,35.87,60Zm1.07-11.63c.06-.11.44-.19,1.11,0a3.25,3.25,0,0,0-.31.42,2.45,2.45,0,0,0-.22.54C37,48.89,36.86,48.49,36.94,48.36ZM40,44.69c.1-.08.5,0,1,.44a2.85,2.85,0,0,0-.45.29,2,2,0,0,0-.37.41C39.92,45.21,39.93,44.79,40,44.69Zm4.17-2.38c.12,0,.48.17.82.76a3.14,3.14,0,0,0-.51.12,2.36,2.36,0,0,0-.5.26C43.92,42.75,44.07,42.36,44.21,42.31Zm3.44,3.14a2,2,0,0,0,1.28.46,1.1,1.1,0,0,0,.84-.37,1.17,1.17,0,0,0,.27-.75,1.12,1.12,0,0,0-1.11-1.17.5.5,0,0,0-.5.5.5.5,0,0,0,.5.5c.11,0,.11.14.11.17a.14.14,0,0,1-.11.12.86.86,0,0,1-.82-.44.72.72,0,0,1,.06-.74l0,0a1.33,1.33,0,0,1,1.65,2.07.45.45,0,0,0-.16.32c-.27,0-.54,0-.82,0a8.81,8.81,0,0,0-1.36.11A2,2,0,0,0,47.65,45.45Zm3.69-3.72c.14,0,.4.4.33,1.34a3.7,3.7,0,0,0-.17.4,1.67,1.67,0,0,0-.39.45,2.27,2.27,0,0,0-.65-.93v0C50.74,42,51.17,41.7,51.34,41.73Zm4.51,1.65c.13.08.21.57-.15,1.38-.1.09-.2.2-.3.31a1.62,1.62,0,0,0-.54.31,2.16,2.16,0,0,0-.28-1.09.21.21,0,0,0,0-.06C55.19,43.46,55.7,43.3,55.85,43.38Zm3.66,3.11c.09.11.05.57-.61,1.24l-.38.19a1.52,1.52,0,0,0-.6.1A2.26,2.26,0,0,0,58,46.9h0l.09-.06C58.89,46.33,59.4,46.36,59.51,46.49Zm2.38,4.17c0,.13-.14.54-1,1l-.46,0a1.71,1.71,0,0,0-.59-.11,2.22,2.22,0,0,0,.48-1l.09,0C61.35,50.3,61.84,50.5,61.89,50.66Zm1.27,9.22a1.22,1.22,0,0,0,1.18.21,1.09,1.09,0,0,0,.71-.84.5.5,0,0,0-.44-.55.58.58,0,0,0-.61.45c-.07,0-.16,0-.21-.13a.82.82,0,0,1,.58-.72.67.67,0,0,1,.71.19.87.87,0,0,1,.16.79,1.62,1.62,0,0,1-.22.57l-.1.11a1.37,1.37,0,0,1-2.09-.13A1.71,1.71,0,0,0,62.4,59a1.62,1.62,0,0,0,.42-.19s0,0,0,0A1,1,0,0,0,63.16,59.88Zm-.26,4.76a1.54,1.54,0,0,1-.41.46l-.12.06a1.36,1.36,0,0,1-1.92-.83,1.87,1.87,0,0,0-.12-.93h.12a1.69,1.69,0,0,0,.33,0l0,0a1.08,1.08,0,0,0,0,1.1,1.22,1.22,0,0,0,1,.59h0a1.06,1.06,0,0,0,.94-.55.48.48,0,0,0-.22-.66.55.55,0,0,0-.72.21c-.08,0-.16,0-.16-.19a.81.81,0,0,1,.79-.48.67.67,0,0,1,.6.42A.9.9,0,0,1,62.9,64.64Zm-6,3.36a1.2,1.2,0,0,0,.78.91,1.07,1.07,0,0,0,1.08-.19.48.48,0,0,0,0-.69A.56.56,0,0,0,58,68c-.07,0-.13-.09-.08-.22a.84.84,0,0,1,.91-.19.7.7,0,0,1,.42.6.91.91,0,0,1-.39.71,1.36,1.36,0,0,1-.54.29l-.14,0a1.33,1.33,0,0,1-1.12-.4,1.31,1.31,0,0,1-.4-1.06,1.72,1.72,0,0,0,.2-.9,1.56,1.56,0,0,0,.44.13s0,0,0,0A1.05,1.05,0,0,0,56.89,68Zm-3.34.34c-.12,0-.47-.11-.83-.75a2.47,2.47,0,0,0,.52-.13,2.34,2.34,0,0,0,.5-.25C53.84,67.9,53.69,68.29,53.55,68.34Zm-3.44-3.12a1.91,1.91,0,0,0-1.28-.47,1.12,1.12,0,0,0-.84.36,1.17,1.17,0,0,0-.27.76A1.13,1.13,0,0,0,48.83,67a.5.5,0,0,0,.5-.5.5.5,0,0,0-.5-.5c-.1,0-.11-.13-.11-.16a.13.13,0,0,1,.11-.12.82.82,0,0,1,.82.45.69.69,0,0,1-.06.73,1.27,1.27,0,0,1-1.48.11h0a1.32,1.32,0,0,1-.61-1.17,1.25,1.25,0,0,1,.59-1.1.49.49,0,0,0,.24-.4l.55,0a9.76,9.76,0,0,0,1.44-.12A2.32,2.32,0,0,0,50.11,65.22Zm-7-4.36a1.78,1.78,0,1,1,2.51,0A1.77,1.77,0,0,1,43.08,60.86ZM40.69,60a1.05,1.05,0,0,0-.93-.55h0a1.22,1.22,0,0,0-1,.61,1.09,1.09,0,0,0,0,1.09.49.49,0,0,0,.68.13.54.54,0,0,0,.18-.72.17.17,0,0,1,.25,0,.82.82,0,0,1,0,.93.67.67,0,0,1-.65.32,1,1,0,0,1-.65-.52,1.27,1.27,0,0,1,.46-1.8,1.25,1.25,0,0,1,1.22-.1.52.52,0,0,0,.44,0,9.54,9.54,0,0,0,1.13,1.73,2.26,2.26,0,0,0-.87.3A1.92,1.92,0,0,0,40.69,60Zm-3.11-1.94a.9.9,0,0,1-.42-.7,1.47,1.47,0,0,1,0-.73l0-.11a1.33,1.33,0,0,1,1-.71,1.23,1.23,0,0,1,1.11.31.47.47,0,0,0,.4.13,8.67,8.67,0,0,0,.48,2,2.42,2.42,0,0,0-.89,0,1.93,1.93,0,0,0,.24-1.35,1.09,1.09,0,0,0-.68-.85,1.21,1.21,0,0,0-1.18.22,1.06,1.06,0,0,0-.38,1,.51.51,0,0,0,.58.41.5.5,0,0,0,.4-.58s0-.07,0-.09.14-.07.23,0a.83.83,0,0,1-.28.88A.74.74,0,0,1,37.58,58.05Zm5-4.65a1.78,1.78,0,1,1-1.78,1.77A1.77,1.77,0,0,1,42.57,53.4Zm3.14-3.86a1.78,1.78,0,1,1-2.51,0A1.77,1.77,0,0,1,45.71,49.54Zm-.64,6.25A1.78,1.78,0,1,1,46.33,58,1.78,1.78,0,0,1,45.07,55.79Zm9.44-6.13a1.78,1.78,0,1,1-2.51,0A1.77,1.77,0,0,1,54.51,49.66Zm2.55,1a1.08,1.08,0,0,0,1.53.39A1.11,1.11,0,0,0,59,49.52a.49.49,0,0,0-.68-.18.5.5,0,0,0-.19.68c.06.09-.06.16-.08.18s-.13,0-.16,0a.87.87,0,0,1,0-1,.72.72,0,0,1,.65-.32h0a.93.93,0,0,1,.63.51,1.31,1.31,0,0,1,.2.72,1.36,1.36,0,0,1-.61,1.06,1.31,1.31,0,0,1-1.2.16.52.52,0,0,0-.39,0,9.19,9.19,0,0,0-1.09-1.8,2.29,2.29,0,0,0,.71-.24A2,2,0,0,0,57.06,50.67Zm3.12,1.94a.93.93,0,0,1,.42.7,1.49,1.49,0,0,1-.05.76l0,.07a1.37,1.37,0,0,1-1,.72,1.32,1.32,0,0,1-1.12-.3.46.46,0,0,0-.38-.14,9,9,0,0,0-.4-2,1.81,1.81,0,0,0,.4,0,2.63,2.63,0,0,0,.39-.06,2,2,0,0,0-.24,1.36,1.09,1.09,0,0,0,.68.85A1.23,1.23,0,0,0,60,54.37a1.07,1.07,0,0,0,.37-1,.5.5,0,0,0-.59-.37.56.56,0,0,0-.42.63.17.17,0,0,1-.24,0,.82.82,0,0,1,.29-.88A.69.69,0,0,1,60.18,52.61Zm.64,9.68c-.07.12-.47.18-1.12,0a2.22,2.22,0,0,0,.32-.42,2.6,2.6,0,0,0,.22-.53C60.79,61.77,60.9,62.17,60.82,62.29Zm-5,2.5a1.3,1.3,0,0,1-1.2-.48,1.28,1.28,0,0,1-.29-1.22.44.44,0,0,0-.08-.44,9.13,9.13,0,0,0,1.49-1.35,2.28,2.28,0,0,0,.44.81,2,2,0,0,0-1.28.47,1.07,1.07,0,0,0-.14,1.56,1.12,1.12,0,0,0,1.6.19.52.52,0,0,0,.07-.71.51.51,0,0,0-.71-.06c-.08.07-.17,0-.19-.06s0-.12,0-.15a.82.82,0,0,1,.92-.19.7.7,0,0,1,.42.6.93.93,0,0,1-.39.71A1.3,1.3,0,0,1,55.82,64.79ZM51.88,61a1.78,1.78,0,1,1,2.51,0A1.77,1.77,0,0,1,51.88,61Zm4.78-.19a.54.54,0,0,0-.21-.38,8.75,8.75,0,0,0,.95-1.79,2.24,2.24,0,0,0,.65.58,1.87,1.87,0,0,0-1,.88,1.07,1.07,0,0,0,0,1.09,1.23,1.23,0,0,0,1,.6h0a1.06,1.06,0,0,0,.94-.55.48.48,0,0,0-.22-.66.55.55,0,0,0-.72.21c-.08,0-.16-.05-.17-.19a.88.88,0,0,1,.74-.49h0a.73.73,0,0,1,.62.34.87.87,0,0,1-.09.89,1.43,1.43,0,0,1-.42.48l-.09.05a1.32,1.32,0,0,1-1.29,0A1.27,1.27,0,0,1,56.66,60.79Zm2.42-2.26a1.3,1.3,0,0,1-1-.65.39.39,0,0,0-.12-.19.42.42,0,0,0-.22-.13,9.56,9.56,0,0,0,.3-2,2.09,2.09,0,0,0,.76.3A2,2,0,0,0,58.15,57a1.08,1.08,0,0,0,.36,1,1.19,1.19,0,0,0,1.18.2,1.08,1.08,0,0,0,.7-.84.49.49,0,0,0-.43-.55.57.57,0,0,0-.61.45c-.07,0-.16,0-.21-.12a.8.8,0,0,1,.91-.75c.33.06.65.35.53,1a1.23,1.23,0,0,1-.31.68A1.34,1.34,0,0,1,59.08,58.53Zm-2.29-3.18A1.78,1.78,0,1,1,55,53.57,1.77,1.77,0,0,1,56.79,55.35Zm-4.17.47a1.78,1.78,0,1,1-2.18-1.26A1.78,1.78,0,0,1,52.62,55.82Zm-2.48-1.63a1.77,1.77,0,0,1-2.52,0,1.78,1.78,0,1,1,2.52,0ZM50.66,49a1.78,1.78,0,1,1-1.78-1.78A1.78,1.78,0,0,1,50.66,49ZM48.71,59.7a1.78,1.78,0,1,1-1.78,1.78A1.78,1.78,0,0,1,48.71,59.7Zm2.66,4.77a.49.49,0,0,0,.09-.45,8.94,8.94,0,0,0,1.83-.76,2.27,2.27,0,0,0,.14.93,2,2,0,0,0-1.37,0,1.07,1.07,0,0,0-.72.82,1.2,1.2,0,0,0,.42,1.13,1,1,0,0,0,1.07.19.5.5,0,0,0,.26-.65.55.55,0,0,0-.69-.3c-.06,0-.09-.14,0-.25a.85.85,0,0,1,.88.1.7.7,0,0,1,.25.66.84.84,0,0,1-.63.62,1.45,1.45,0,0,1-.73.09h-.05l-.06,0a1.38,1.38,0,0,1-.9-.93A1.25,1.25,0,0,1,51.37,64.47Zm3.26,2.06c0-.14-.08-.27-.12-.42s0,0,0,0a1.73,1.73,0,0,0,0-.6,2.16,2.16,0,0,0,1.09.32v.09l.07.06c.32.82.22,1.3.08,1.38S55.17,67.28,54.63,66.53ZM57.72,66c-.1.08-.48.06-1-.43a2.22,2.22,0,0,0,.46-.29,2.89,2.89,0,0,0,.38-.41C57.84,65.45,57.83,65.87,57.72,66Zm.37-2.1a3.43,3.43,0,0,0-.24-.33,1.68,1.68,0,0,0-.21-.58,2.87,2.87,0,0,0,.41,0,2.28,2.28,0,0,0,.72-.13s0,0,0,.05c.66.69.73,1.22.62,1.34S58.84,64.37,58.09,63.86Zm2.38-3.66L60.12,60a0,0,0,0,0,0,0,1.51,1.51,0,0,0-.39-.44,2.35,2.35,0,0,0,1-.46h0l.13.06h0c.78.41,1,.85,1,1S61.34,60.42,60.47,60.2Zm.94-2.07a2.16,2.16,0,0,0,.16-.51,2,2,0,0,0,0-.59c.68.27.92.61.9.76S62.16,58.14,61.41,58.13Zm0-2.2L61,55.84a1.79,1.79,0,0,0-.51-.31,2.37,2.37,0,0,0,.78-.73l.1,0h0c.92.11,1.31.45,1.3.62S62.31,55.86,61.43,55.93ZM57,46.85A1.33,1.33,0,0,1,56.81,48a1.31,1.31,0,0,1-1.05.59h0v.52a9,9,0,0,0-2-1.71A2.34,2.34,0,0,0,54.3,47,1.87,1.87,0,0,0,55,48.13,1.07,1.07,0,0,0,56.54,48a1.13,1.13,0,0,0-.1-1.61.49.49,0,0,0-.7.05.51.51,0,0,0,0,.71c.09.07,0,.19,0,.2s-.1,0-.15,0a.82.82,0,0,1-.34-.86A.69.69,0,0,1,55.8,46a.92.92,0,0,1,.77.27A1.48,1.48,0,0,1,57,46.85Zm-3.48-2.37.08.11a1.38,1.38,0,0,1-.54,2.07.51.51,0,0,0-.27.25,9.34,9.34,0,0,0-2-.69,2.25,2.25,0,0,0,.35-.6,2,2,0,0,0,1,.86,1,1,0,0,0,1.08-.16,1.2,1.2,0,0,0,.4-1.13,1.06,1.06,0,0,0-.7-.84.48.48,0,0,0-.61.33.56.56,0,0,0,.33.68c0,.07,0,.16-.16.19a.85.85,0,0,1-.62-.7.72.72,0,0,1,.31-.67.91.91,0,0,1,.81,0A1.52,1.52,0,0,1,53.52,44.48Zm-7,1.51a.53.53,0,0,0,0,.37,8.79,8.79,0,0,0-2,.8,2.62,2.62,0,0,0-.11-.69,1.9,1.9,0,0,0,1.35,0,1.07,1.07,0,0,0,.71-.83A1.21,1.21,0,0,0,46,44.5a1,1,0,0,0-1.07-.19.5.5,0,0,0-.26.65.55.55,0,0,0,.69.3c.06.05.09.14,0,.26a.81.81,0,0,1-1.11-.42c-.12-.32,0-.74.6-1a1.37,1.37,0,0,1,.74-.07,1.27,1.27,0,0,1,.91.74A1.35,1.35,0,0,1,46.52,46Zm-3.05,1.39a.48.48,0,0,0,.09.35A9.26,9.26,0,0,0,42,49.19a2.3,2.3,0,0,0-.35-.63,2,2,0,0,0,1.26-.48A1.09,1.09,0,0,0,43,46.5a1.11,1.11,0,0,0-1.59-.16.49.49,0,0,0-.07.7.51.51,0,0,0,.71.06c.08-.06.16,0,.19,0s0,.13,0,.16a.8.8,0,0,1-1.18,0c-.22-.26-.28-.69.23-1.12a1.3,1.3,0,0,1,.67-.32,1.39,1.39,0,0,1,1.53,1.52ZM40.33,48.8a1.3,1.3,0,0,1,.75.92.53.53,0,0,0,.21.33,8.87,8.87,0,0,0-1,1.91,2.41,2.41,0,0,0-.59-.51,1.87,1.87,0,0,0,1-.88,1.07,1.07,0,0,0,0-1.09,1.23,1.23,0,0,0-1.05-.6h0a1.06,1.06,0,0,0-.94.55.48.48,0,0,0,.22.66.55.55,0,0,0,.72-.21c.08,0,.16,0,.17.19a.86.86,0,0,1-.74.49h0a.71.71,0,0,1-.62-.34.87.87,0,0,1,.09-.89,1.37,1.37,0,0,1,.42-.47l.09,0A1.29,1.29,0,0,1,40.33,48.8Zm-.68,4A.48.48,0,0,0,40,53a9.26,9.26,0,0,0-.28,2.12,2.49,2.49,0,0,0-.76-.29,1.94,1.94,0,0,0,.67-1.18,1.08,1.08,0,0,0-.36-1,1.19,1.19,0,0,0-1.18-.2,1.06,1.06,0,0,0-.7.83.49.49,0,0,0,.43.55.56.56,0,0,0,.61-.44.16.16,0,0,1,.21.12.8.8,0,0,1-.91.74c-.33-.06-.65-.35-.54-1a1.38,1.38,0,0,1,.31-.68,1.39,1.39,0,0,1,2.17.23Zm1.11,11A1.39,1.39,0,0,1,42.16,62a.48.48,0,0,0,.43-.15,9.68,9.68,0,0,0,1.62,1.22,2.1,2.1,0,0,0-.74.59,2,2,0,0,0-.69-1.19,1.07,1.07,0,0,0-1.56.15,1.12,1.12,0,0,0,.1,1.6.49.49,0,0,0,.7-.06.51.51,0,0,0-.06-.71c-.08-.06,0-.18,0-.19s.11-.06.16,0a.82.82,0,0,1,.34.86.69.69,0,0,1-.52.53.92.92,0,0,1-.77-.27A1.48,1.48,0,0,1,40.76,63.8Zm3.4,2.27A1.35,1.35,0,0,1,44,64.76a1.24,1.24,0,0,1,.91-.83.47.47,0,0,0,.35-.29,9,9,0,0,0,1.93.59,2.18,2.18,0,0,0-.51.82,1.93,1.93,0,0,0-1-.88,1,1,0,0,0-1.08.17,1.21,1.21,0,0,0-.4,1.14,1,1,0,0,0,.71.82.48.48,0,0,0,.61-.33.56.56,0,0,0-.34-.67.17.17,0,0,1,.16-.2.85.85,0,0,1,.62.7.69.69,0,0,1-.31.67.91.91,0,0,1-.81,0A1.42,1.42,0,0,1,44.16,66.07Zm6.31,1.31a1.58,1.58,0,0,0,.22-.58,2.37,2.37,0,0,0,.91.66.17.17,0,0,1,0,.07c.06,1-.23,1.4-.39,1.42s-.53-.29-.77-1.15C50.46,67.67,50.47,67.53,50.47,67.38ZM52,69.65a1.7,1.7,0,0,0,.49-.79,2.12,2.12,0,0,0,.37.28h0a1.07,1.07,0,0,0-.72.82,1.23,1.23,0,0,0,.42,1.13,1.06,1.06,0,0,0,1.08.19.48.48,0,0,0,.25-.65.56.56,0,0,0-.69-.31c-.05,0-.08-.13,0-.24a.82.82,0,0,1,.92.14.68.68,0,0,1,.19.71.86.86,0,0,1-.6.53,1.35,1.35,0,0,1-.61.09l-.14,0a1.34,1.34,0,0,1-.92-.76A1.28,1.28,0,0,1,52,69.65Zm7.28-3a2,2,0,0,0-.69-.13,1.52,1.52,0,0,0,.2-1.24,1.94,1.94,0,0,0,.46.06,1.36,1.36,0,0,0,.56-.11,2.37,2.37,0,0,0,1,.86,2.36,2.36,0,0,0,1.92,0h0l.17-.09a2.12,2.12,0,0,0,.48-.37A1.58,1.58,0,0,1,63.53,67a3.59,3.59,0,0,1-2.47,2.43,1.41,1.41,0,0,1-1.17-.19,1.7,1.7,0,0,0,.37-1.12A1.72,1.72,0,0,0,59.24,66.64ZM64,63.45a1.7,1.7,0,0,0-1.46-1,1.81,1.81,0,0,0-.7.12,1.55,1.55,0,0,0-.25-1.26,1.67,1.67,0,0,0,.94-.4,2.34,2.34,0,0,0,1.24.49h.22a2.32,2.32,0,0,0,1.6-.62l.15-.15A2.23,2.23,0,0,0,66,60.1a1.62,1.62,0,0,1,.62,1.18,3.63,3.63,0,0,1-1.49,3.13,1.45,1.45,0,0,1-1.17.22A1.7,1.7,0,0,0,64,63.45Zm2.3-4.55a1.66,1.66,0,0,0-2.16-1.56,1.6,1.6,0,0,0-.61.34,1.59,1.59,0,0,0-.66-1.09,1.74,1.74,0,0,0,.75-.68,2.23,2.23,0,0,0,1.32,0,2.32,2.32,0,0,0,1.51-1.21l.08-.17a2.39,2.39,0,0,0,.14-.6,1.61,1.61,0,0,1,1,.89,3.59,3.59,0,0,1-.33,3.45A1.41,1.41,0,0,1,66.25,58.9Zm-4.63-5.24a3.08,3.08,0,0,0,0-.52,2.27,2.27,0,0,0-.17-.54c.71,0,1.07.24,1.09.39S62.26,53.42,61.62,53.66ZM60.28,49.4a2.89,2.89,0,0,0-.21-.49,2.34,2.34,0,0,0-.33-.43c.66-.22,1.07-.14,1.14,0S60.8,49,60.28,49.4Zm-2.71-3.53a2.64,2.64,0,0,0-.36-.39,2.19,2.19,0,0,0-.47-.3c.55-.44,1-.5,1.08-.4S57.91,45.28,57.57,45.87Zm-3.77-2.4a2.22,2.22,0,0,0-.46-.24,2.3,2.3,0,0,0-.55-.13c.37-.6.74-.8.87-.74S53.92,42.79,53.8,43.47Zm-4.86-2h0c.13,0,.38.32.5,1a2.69,2.69,0,0,0-1.06,0C48.52,41.82,48.79,41.5,48.94,41.5Zm-1.65,1.73v0a1.54,1.54,0,0,0-.2.58,2.3,2.3,0,0,0-.92-.66s0,0,0-.07c0-1,.23-1.4.4-1.43s.52.3.76,1.16C47.3,43,47.29,43.1,47.29,43.23Zm-4.15.91c0,.12.07.26.12.4a1.62,1.62,0,0,0,0,.62,2.34,2.34,0,0,0-1.08-.3v-.09l-.07-.06c-.33-.82-.22-1.31-.08-1.38S42.59,43.41,43.14,44.14Zm-3.49,2.64.25.34a2,2,0,0,0,.2.58,2.16,2.16,0,0,0-1.1.09l0,0c-.66-.7-.73-1.22-.62-1.35S38.92,46.28,39.65,46.78Zm-2.36,3.68c.11.07.22.15.35.22a.06.06,0,0,0,0,0,1.81,1.81,0,0,0,.39.44,2.29,2.29,0,0,0-1,.46l-.06,0c-.86-.42-1.1-.89-1-1.05S36.43,50.24,37.29,50.46Zm-.94,2.07a2.16,2.16,0,0,0-.16.51,1.89,1.89,0,0,0,0,.58c-.68-.27-.93-.61-.9-.76S35.62,52.53,36.35,52.53Zm0,2.19.41.09a1.66,1.66,0,0,0,.51.31,2.38,2.38,0,0,0-.74.67l-.07.12h-.07c-.93-.11-1.32-.46-1.31-.63S35.45,54.79,36.33,54.72ZM36.14,57a3.26,3.26,0,0,0,0,.54,2.64,2.64,0,0,0,.16.54c-.7,0-1-.25-1.07-.39S35.44,57.23,36.14,57Zm1.34,4.27a3.26,3.26,0,0,0,.2.48,2.25,2.25,0,0,0,.35.45c-.67.22-1.08.14-1.15,0S37,61.69,37.48,61.25Zm2.71,3.53a2.12,2.12,0,0,0,.83.69c-.55.44-1,.5-1.08.41S39.85,65.36,40.19,64.78ZM44,67.19a2.88,2.88,0,0,0,.46.24,2.38,2.38,0,0,0,.56.13c-.37.61-.75.79-.89.74S43.84,67.87,44,67.19Zm2.91,2.66a1.76,1.76,0,0,0,.74-.58,2.38,2.38,0,0,0,.25.39h0a1.07,1.07,0,0,0-1,.52,1.2,1.2,0,0,0,0,1.2,1.06,1.06,0,0,0,.95.55.49.49,0,0,0,.46-.52.57.57,0,0,0-.55-.53c0-.06,0-.15.09-.22a.81.81,0,0,1,.81.44.69.69,0,0,1-.06.73,1.27,1.27,0,0,1-1.35.18l-.12-.08a1.3,1.3,0,0,1-.61-1A1.27,1.27,0,0,1,46.87,69.85Zm2.51,2.59a1.7,1.7,0,0,0,.16-1.78,1.67,1.67,0,0,0-.44-.55,1.53,1.53,0,0,0,.95-.82,1.57,1.57,0,0,0,.82.61,2.36,2.36,0,0,0,1.66,2.58l.18,0a1.84,1.84,0,0,0,.41,0l.2,0a1.6,1.6,0,0,1-.71,1.13,3.59,3.59,0,0,1-3.46.27,1.4,1.4,0,0,1-.77-.89A1.71,1.71,0,0,0,49.38,72.44Zm17.8-20.61a1.45,1.45,0,0,1-.75.91A1.69,1.69,0,0,0,63.86,52a1.93,1.93,0,0,0-.46.53,1.57,1.57,0,0,0-1-.79,1.64,1.64,0,0,0,.46-.91,2.36,2.36,0,0,0,1.24-.42,2.32,2.32,0,0,0,1-1.66l0-.19a2.16,2.16,0,0,0-.07-.61,1.63,1.63,0,0,1,1.23.51A3.65,3.65,0,0,1,67.18,51.83Zm-2.7-4.93a1.69,1.69,0,0,0-1-.56,1.71,1.71,0,0,0-1.62.75,1.79,1.79,0,0,0-.26.66,1.5,1.5,0,0,0-1.18-.41,1.66,1.66,0,0,0,.12-1,2.4,2.4,0,0,0,1-.82,2.36,2.36,0,0,0,.37-1.9h0l-.06-.18a2.31,2.31,0,0,0-.28-.54,1.63,1.63,0,0,1,1.33.05,3.63,3.63,0,0,1,2,2.86A1.47,1.47,0,0,1,64.48,46.9Zm-3.82-4.83a1.7,1.7,0,0,0-1.16-.17,1.68,1.68,0,0,0-1.27,1.26,1.65,1.65,0,0,0,0,.7,1.57,1.57,0,0,0-1.26,0,1.65,1.65,0,0,0-.23-1,2.37,2.37,0,0,0,.38-3L57,39.69a1.78,1.78,0,0,0-.45-.41,1.59,1.59,0,0,1,1.27-.41,3.62,3.62,0,0,1,2.82,2A1.42,1.42,0,0,1,60.66,42.07Zm-6.4-3a1.7,1.7,0,0,0-.76,1.62,1.85,1.85,0,0,0,.23.66,1.57,1.57,0,0,0-1.17.45A1.7,1.7,0,0,0,52,41a2.44,2.44,0,0,0,.26-1.29A2.37,2.37,0,0,0,51.33,38l-.16-.11a2,2,0,0,0-.57-.24,1.62,1.62,0,0,1,1.06-.81,3.59,3.59,0,0,1,3.34.92,1.47,1.47,0,0,1,.42,1.11A1.75,1.75,0,0,0,54.26,39.08Zm-5.88-.86A1.7,1.7,0,0,0,48.22,40a1.54,1.54,0,0,0,.44.54,1.58,1.58,0,0,0-.95.82,1.59,1.59,0,0,0-.82-.62,2.42,2.42,0,0,0-.19-1.29,2.36,2.36,0,0,0-1.45-1.27l-.2,0a2.05,2.05,0,0,0-.61,0A1.65,1.65,0,0,1,45.15,37a3.62,3.62,0,0,1,3.46-.27,1.44,1.44,0,0,1,.77.9A1.71,1.71,0,0,0,48.38,38.22ZM38.52,44a1.81,1.81,0,0,0,.68.15A1.56,1.56,0,0,0,39,45.38a1.62,1.62,0,0,0-1,.06,2.39,2.39,0,0,0-1-.87,2.3,2.3,0,0,0-1.92,0h0l-.17.09a2.46,2.46,0,0,0-.48.37,1.57,1.57,0,0,1-.18-1.32,3.59,3.59,0,0,1,2.47-2.43,1.44,1.44,0,0,1,1.17.19,1.72,1.72,0,0,0-.37,1.12A1.68,1.68,0,0,0,38.52,44ZM33.81,47.2a1.71,1.71,0,0,0,1.46,1h.12a1.66,1.66,0,0,0,.58-.11,1.54,1.54,0,0,0,.23,1.23,1.61,1.61,0,0,0-.94.4,2.37,2.37,0,0,0-3,.13l-.15.15a2.55,2.55,0,0,0-.33.52,1.62,1.62,0,0,1-.62-1.18,3.6,3.6,0,0,1,1.49-3.13A1.45,1.45,0,0,1,33.78,46,1.67,1.67,0,0,0,33.81,47.2Zm-2.3,4.55a1.65,1.65,0,0,0,1.68,1.64,2,2,0,0,0,.48-.07,1.92,1.92,0,0,0,.61-.34,1.55,1.55,0,0,0,.66,1.08,1.66,1.66,0,0,0-.75.7,2.36,2.36,0,0,0-1.32,0,2.33,2.33,0,0,0-1.51,1.22l-.08.17a2.39,2.39,0,0,0-.14.6,1.63,1.63,0,0,1-1-.9,3.59,3.59,0,0,1,.33-3.45A1.45,1.45,0,0,1,31.51,51.75Zm-.93,7.08a1.44,1.44,0,0,1,.75-.92,1.71,1.71,0,0,0,.79.88,1.64,1.64,0,0,0,.76.18,1.72,1.72,0,0,0,1-.33,1.8,1.8,0,0,0,.46-.53,1.57,1.57,0,0,0,1,.8,1.58,1.58,0,0,0-.46.91,2.38,2.38,0,0,0-1.25.41,2.35,2.35,0,0,0-1,1.68v.17a2.12,2.12,0,0,0,.07.61,1.63,1.63,0,0,1-1.23-.51A3.63,3.63,0,0,1,30.58,58.83Zm2.7,4.93a1.67,1.67,0,0,0,1,.55l.22,0a1.72,1.72,0,0,0,1.4-.76,1.61,1.61,0,0,0,.25-.66,1.57,1.57,0,0,0,1.14.42h.06a1.63,1.63,0,0,0-.12,1,2.39,2.39,0,0,0-1,.83,2.34,2.34,0,0,0-.37,1.89v0l.06.17a2.2,2.2,0,0,0,.28.55,1.64,1.64,0,0,1-1.33-.06,3.6,3.6,0,0,1-2-2.85A1.41,1.41,0,0,1,33.28,63.76Zm3.82,4.82a1.76,1.76,0,0,0,.81.22,1.34,1.34,0,0,0,.35,0,1.67,1.67,0,0,0,1.27-1.25,1.75,1.75,0,0,0,0-.72,1.26,1.26,0,0,0,.57.14,1.9,1.9,0,0,0,.69-.16,1.67,1.67,0,0,0,.23,1,2.48,2.48,0,0,0-.68,1.12,2.32,2.32,0,0,0,.3,1.91l.11.16a1.81,1.81,0,0,0,.45.42,1.62,1.62,0,0,1-1.27.4,3.59,3.59,0,0,1-2.82-2A1.42,1.42,0,0,1,37.1,68.58Zm5.49,3.26a1.63,1.63,0,0,0,.9-.26A1.7,1.7,0,0,0,44.26,70a1.78,1.78,0,0,0-.24-.68l.12,0a1.64,1.64,0,0,0,1.07-.45,1.6,1.6,0,0,0,.55.85,2.38,2.38,0,0,0,.66,3l.17.12a2.87,2.87,0,0,0,.57.24,1.65,1.65,0,0,1-1.06.81,3.6,3.6,0,0,1-3.34-.93,1.45,1.45,0,0,1-.42-1.11ZM54.73,75a4.82,4.82,0,0,0,1.1.12,6.11,6.11,0,0,0,5.07-2.82c.09-.16.18-.33.25-.49A6,6,0,0,0,65.8,68a4.89,4.89,0,0,0,.3-1.37,6,6,0,0,0,3-4.21,5.2,5.2,0,0,0-.1-2.37,5.69,5.69,0,0,0,1.43-3.9,5.27,5.27,0,0,0-1-3.24,4.82,4.82,0,0,0,.39-1.74c.08.06.15.13.24.19a4.6,4.6,0,0,0,.16,1.49,6,6,0,0,0,4.1,4.26c.06.2.14.39.22.59a6.2,6.2,0,0,0,3.09,2.92A27.17,27.17,0,0,1,64,83.2c-.37.18-1.37.11-3-.67a20.1,20.1,0,0,1-7.41-6.66A5.13,5.13,0,0,0,54.73,75Zm31-11.81a5.07,5.07,0,0,0,1.49-.45,5.4,5.4,0,0,0,3,.83A5.71,5.71,0,0,0,94.37,62a4.81,4.81,0,0,0,1.1.13,4.87,4.87,0,0,0,.65,0,5,5,0,0,0-.7.9c-.09.17-.18.33-.25.5a6,6,0,0,0-4.65,3.82,4.9,4.9,0,0,0-.3,1.36,6.05,6.05,0,0,0-3,4.22,5.15,5.15,0,0,0,.1,2.36,5.69,5.69,0,0,0-1.44,3.89,5.29,5.29,0,0,0,1,3.26,5.2,5.2,0,0,0-.38,2.51,6.53,6.53,0,0,0,.78,2.59,9.63,9.63,0,0,1-5.82.9c-2.61-.34-4.94-1.51-5.81-2.92C75,84.33,78,79.23,79.84,76.18,82.48,71.7,85.2,67.1,85.75,63.21Zm31.47,32.92a3.65,3.65,0,0,1-3.16,1.44,1.45,1.45,0,0,1-1-.58,1.69,1.69,0,0,0,.72-.92,1.68,1.68,0,0,0-.45-1.73,1.72,1.72,0,0,0-.61-.37,1.52,1.52,0,0,0,.62-1.09,1.66,1.66,0,0,0,.9.3h.08A2.35,2.35,0,0,0,116.71,95l0,0,.18,0a2.11,2.11,0,0,0,.59-.18A1.61,1.61,0,0,1,117.22,96.13Zm-15.9,1.62a1.39,1.39,0,0,1-.42-1.11l.24,0a1.57,1.57,0,0,0,.91-.26,1.69,1.69,0,0,0,.76-1.61,1.62,1.62,0,0,0-.23-.68l.12,0a1.61,1.61,0,0,0,1.06-.46,1.66,1.66,0,0,0,.56.86,2.37,2.37,0,0,0,.68,3l.15.11a2.13,2.13,0,0,0,.56.23,1.59,1.59,0,0,1-1,.82A3.62,3.62,0,0,1,101.32,97.75Zm20.76-18.14a1.73,1.73,0,0,0-.68-.62,2,2,0,0,0,.33-.31v0a1.06,1.06,0,0,0,.68.85,1.23,1.23,0,0,0,1.19-.21,1.08,1.08,0,0,0,.37-1,.5.5,0,0,0-.6-.36.56.56,0,0,0-.42.62c0,.05-.15.06-.24,0a.84.84,0,0,1,.3-.88.67.67,0,0,1,.73-.06.88.88,0,0,1,.42.69,1.37,1.37,0,0,1,0,.61l0,.13a1.36,1.36,0,0,1-.91.78A1.32,1.32,0,0,1,122.08,79.61Zm-.36,5.1a1.22,1.22,0,0,0,1.18.21,1.08,1.08,0,0,0,.7-.84.49.49,0,0,0-.43-.55.56.56,0,0,0-.61.45c-.07,0-.16,0-.21-.13a.83.83,0,0,1,.57-.72.68.68,0,0,1,.72.19.9.9,0,0,1,.15.79,1.39,1.39,0,0,1-.22.57l-.09.11a1.35,1.35,0,0,1-1.12.42,1.32,1.32,0,0,1-1-.55,1.71,1.71,0,0,0-.43-.83,2.22,2.22,0,0,0,.41-.19s0,0,0,0A1.06,1.06,0,0,0,121.72,84.71Zm-.27,4.75a1.44,1.44,0,0,1-.4.47l-.12.06a1.31,1.31,0,0,1-1.19,0,1.3,1.3,0,0,1-.73-.85,1.78,1.78,0,0,0-.13-.93H119a3.31,3.31,0,0,0,.34,0,0,0,0,0,0,0,0,1,1,0,0,0,0,1.09,1.21,1.21,0,0,0,1,.6h0a1.07,1.07,0,0,0,1-.55.49.49,0,0,0-.23-.66.55.55,0,0,0-.72.21c-.07,0-.15,0-.16-.19a.84.84,0,0,1,.79-.48.68.68,0,0,1,.61.42A.88.88,0,0,1,121.45,89.46Zm-6,3.37a1.24,1.24,0,0,0,.78.91,1.06,1.06,0,0,0,1.08-.19.49.49,0,0,0,0-.69.56.56,0,0,0-.75-.06c-.07,0-.13-.09-.09-.22a.82.82,0,0,1,.91-.19.7.7,0,0,1,.43.6.94.94,0,0,1-.39.71,1.59,1.59,0,0,1-.54.29l-.14,0a1.32,1.32,0,0,1-1.13-.39,1.3,1.3,0,0,1-.39-1.06,1.82,1.82,0,0,0,.2-.9,1.6,1.6,0,0,0,.43.13l0,0A1.07,1.07,0,0,0,115.44,92.83Zm-3.33.33c-.12,0-.47-.1-.84-.74a3,3,0,0,0,.52-.13,2.42,2.42,0,0,0,.51-.25C112.4,92.73,112.25,93.12,112.11,93.16Zm.69,2.61a.92.92,0,0,1-.61.53,1.34,1.34,0,0,1-.61.09l-.13,0a1.32,1.32,0,0,1-.92-.76,1.3,1.3,0,0,1,0-1.14,1.75,1.75,0,0,0,.49-.78,2.25,2.25,0,0,0,.37.28h0a1.07,1.07,0,0,0-.72.82,1.23,1.23,0,0,0,.42,1.13,1.06,1.06,0,0,0,1.07.19.5.5,0,0,0,.26-.65.57.57,0,0,0-.69-.31c-.06,0-.09-.13,0-.24a.85.85,0,0,1,.92.13A.72.72,0,0,1,112.8,95.77Zm-7.37.44a1.07,1.07,0,0,0,.95.55h0a.49.49,0,0,0,.46-.53.55.55,0,0,0-.54-.52h0c0-.06,0-.15.08-.23a.82.82,0,0,1,.82.45.69.69,0,0,1-.06.73,1.25,1.25,0,0,1-1.36.17l-.12-.07a1.33,1.33,0,0,1-.61-1,1.3,1.3,0,0,1,.38-1,1.82,1.82,0,0,0,.74-.58,2.38,2.38,0,0,0,.25.39h0a1,1,0,0,0-1,.53A1.22,1.22,0,0,0,105.43,96.21Zm-5.37-1.65a1.09,1.09,0,0,0,.71.84.5.5,0,0,0,.61-.34.55.55,0,0,0-.33-.67c0-.08,0-.16.15-.19a.83.83,0,0,1,.62.69.7.7,0,0,1-.31.67.9.9,0,0,1-.81,0,1.48,1.48,0,0,1-.52-.32l-.09-.11A1.33,1.33,0,0,1,99.87,94a1.31,1.31,0,0,1,.71-.87,1.74,1.74,0,0,0,.89-.27,1.81,1.81,0,0,0,.1.43h0a1.07,1.07,0,0,0-1.08.17A1.22,1.22,0,0,0,100.06,94.56ZM96,92.2a.48.48,0,0,0,.68-.11.56.56,0,0,0-.07-.75c0-.07.07-.14.21-.12a.85.85,0,0,1,.34.87.72.72,0,0,1-.52.52.93.93,0,0,1-.77-.26,1.45,1.45,0,0,1-.38-.49l0-.12a1.33,1.33,0,0,1,.2-1.18,1.27,1.27,0,0,1,1-.57,1.6,1.6,0,0,0,.51.08,2.12,2.12,0,0,0,.42,0,1.86,1.86,0,0,0-.06.45s0,0,0,0a1.06,1.06,0,0,0-1.07-.22,1.24,1.24,0,0,0-.77.93A1.08,1.08,0,0,0,96,92.2Zm-1.45-5.77s0,0,0,0a1.05,1.05,0,0,0-.93-.57h0a1.22,1.22,0,0,0-1,.61,1.08,1.08,0,0,0,0,1.1.49.49,0,0,0,.68.13A.57.57,0,0,0,93.4,87c0-.06.11-.11.24,0a.84.84,0,0,1,0,.93.72.72,0,0,1-.67.31.91.91,0,0,1-.63-.51,1.47,1.47,0,0,1-.19-.58v-.14a1.37,1.37,0,0,1,1.72-1.24,1.74,1.74,0,0,0,.84.33A2.14,2.14,0,0,0,94.51,86.43Zm7.56-21.88a.91.91,0,0,1,.61-.54,1.65,1.65,0,0,1,.6-.09l.14,0a1.35,1.35,0,0,1,.93,1.88,1.88,1.88,0,0,0-.49.79,1.9,1.9,0,0,0-.37-.28h0a1.07,1.07,0,0,0,.72-.82,1.22,1.22,0,0,0-.41-1.13,1.09,1.09,0,0,0-1.08-.19.5.5,0,0,0-.26.65.57.57,0,0,0,.69.31c.06,0,.09.13,0,.24a.85.85,0,0,1-.92-.13A.71.71,0,0,1,102.07,64.55Zm7.37-.45a1.07,1.07,0,0,0-1-.55h0a.49.49,0,0,0-.46.53.55.55,0,0,0,.54.52h0c0,.06,0,.15-.08.23a.85.85,0,0,1-.82-.44.7.7,0,0,1,.06-.74,1.27,1.27,0,0,1,1.36-.17l.12.07a1.34,1.34,0,0,1,.61,1,1.3,1.3,0,0,1-.39,1.07,1.78,1.78,0,0,0-.73.57,2.13,2.13,0,0,0-.26-.4h0a1.05,1.05,0,0,0,1-.53A1.22,1.22,0,0,0,109.44,64.1Zm5.37,1.65a1.06,1.06,0,0,0-.71-.83.48.48,0,0,0-.61.33.55.55,0,0,0,.33.67c0,.08,0,.16-.15.19a.84.84,0,0,1-.62-.69.7.7,0,0,1,.31-.67.93.93,0,0,1,.81,0,1.48,1.48,0,0,1,.52.32l.09.11a1.3,1.3,0,0,1,.22,1.17,1.28,1.28,0,0,1-.72.87,1.87,1.87,0,0,0-.88.28,2.6,2.6,0,0,0-.1-.44h0a1,1,0,0,0,1.08-.17A1.22,1.22,0,0,0,114.81,65.75Zm4.1,2.36a.49.49,0,0,0-.68.11.55.55,0,0,0,.08.75c0,.07-.08.13-.22.12a.84.84,0,0,1-.34-.86.72.72,0,0,1,.52-.53A.92.92,0,0,1,119,68a1.42,1.42,0,0,1,.38.48l0,.13a1.38,1.38,0,0,1-1.18,1.75,1.86,1.86,0,0,0-.92,0,2,2,0,0,0,.06-.47s0,0,0,0a1.07,1.07,0,0,0,1.07.22,1.24,1.24,0,0,0,.77-.93A1.08,1.08,0,0,0,118.91,68.11Zm1.45,5.76a0,0,0,0,0,0,0,1.06,1.06,0,0,0,.93.57h0a1.22,1.22,0,0,0,1-.61,1.07,1.07,0,0,0,0-1.09.48.48,0,0,0-.68-.14.55.55,0,0,0-.18.73c0,.07-.12.11-.24,0a.83.83,0,0,1,0-.92.7.7,0,0,1,.67-.32.94.94,0,0,1,.63.51,1.36,1.36,0,0,1,.19.58v.14a1.29,1.29,0,0,1-.58,1,1.31,1.31,0,0,1-1.12.2,1.85,1.85,0,0,0-.86-.35A1.64,1.64,0,0,0,120.36,73.87Zm-1,13.25c-.07.12-.47.18-1.12-.05a2.68,2.68,0,0,0,.31-.42,2.09,2.09,0,0,0,.23-.54C119.34,86.59,119.45,87,119.38,87.12Zm-5,2.5a1.32,1.32,0,0,1-1.2-.48,1.25,1.25,0,0,1-.28-1.22.51.51,0,0,0-.08-.45,9,9,0,0,0,1.49-1.34,2.08,2.08,0,0,0,.44.81,1.91,1.91,0,0,0-1.29.47,1.07,1.07,0,0,0-.13,1.56,1.12,1.12,0,0,0,1.6.19.5.5,0,0,0-.64-.78c-.09.08-.18,0-.19,0s0-.12,0-.15A.84.84,0,0,1,115,88a.69.69,0,0,1,.43.59,1,1,0,0,1-.39.72A1.33,1.33,0,0,1,114.37,89.62Zm-3.65,1.81h0l-.06,0a1.36,1.36,0,0,1-.9-.93,1.25,1.25,0,0,1,.2-1.18.47.47,0,0,0,.1-.45,9.17,9.17,0,0,0,1.83-.76A2.1,2.1,0,0,0,112,89a2,2,0,0,0-1.37,0,1.07,1.07,0,0,0-.72.82,1.23,1.23,0,0,0,.43,1.13,1,1,0,0,0,1.07.19.48.48,0,0,0,.25-.65.56.56,0,0,0-.68-.31c-.06,0-.09-.13,0-.24a.85.85,0,0,1,.88.1.73.73,0,0,1,.26.66.87.87,0,0,1-.64.62A1.43,1.43,0,0,1,110.72,91.43Zm-2-1.38a2,2,0,0,0-1.28-.47,1.09,1.09,0,0,0-.84.36,1.17,1.17,0,0,0,.84,1.91.5.5,0,0,0,.5-.5.51.51,0,0,0-.5-.5c-.11,0-.11-.12-.11-.15a.12.12,0,0,1,.11-.12.84.84,0,0,1,.82.44.7.7,0,0,1-.07.74,1.26,1.26,0,0,1-1.47.11h0a1.38,1.38,0,0,1-.61-1.17,1.25,1.25,0,0,1,.59-1.1.5.5,0,0,0,.24-.41,5.25,5.25,0,0,0,.56,0,9.76,9.76,0,0,0,1.44-.12A2.17,2.17,0,0,0,108.67,90.05ZM105,93.76c-.15,0-.39-.46-.32-1.35a3.52,3.52,0,0,0,.17-.39,1.64,1.64,0,0,0,.4-.47,2.2,2.2,0,0,0,.63.93v0l0,.09C105.55,93.48,105.13,93.78,105,93.76Zm-4.5-1.66c-.12-.08-.24-.52.15-1.38.1-.1.2-.2.29-.31a1.74,1.74,0,0,0,.55-.31,2.33,2.33,0,0,0,.27,1.1l0,.06C101.12,92,100.62,92.18,100.47,92.1ZM96.81,89c-.1-.12,0-.61.61-1.24l.36-.18h0a1.67,1.67,0,0,0,.58-.12,2.16,2.16,0,0,0-.12,1.12l-.05,0C97.44,89.15,96.92,89.13,96.81,89Zm-3.67-7.37v0a1.06,1.06,0,0,0-.68-.85,1.2,1.2,0,0,0-1.18.21,1.07,1.07,0,0,0-.38,1,.49.49,0,0,0,.6.36.55.55,0,0,0,.42-.62c.06,0,.15-.06.24,0a.83.83,0,0,1-.3.88.69.69,0,0,1-.73.07.91.91,0,0,1-.42-.69,1.42,1.42,0,0,1,0-.62l0-.13a1.3,1.3,0,0,1,.9-.77,1.28,1.28,0,0,1,1.11.18,1.82,1.82,0,0,0,.68.63A2.46,2.46,0,0,0,93.14,81.63ZM89,77.19a1.47,1.47,0,0,1,1-.61,1.7,1.7,0,0,0,.44,1.09,1.66,1.66,0,0,0,1.24.54,2,2,0,0,0,.48-.06,1.72,1.72,0,0,0,.62-.35,1.55,1.55,0,0,0,.65,1.09,1.75,1.75,0,0,0-.75.69,2.38,2.38,0,0,0-2.83,1.19l-.08.17a2.38,2.38,0,0,0-.13.6,1.64,1.64,0,0,1-1-.9A3.65,3.65,0,0,1,89,77.19Zm8-8.35a2,2,0,0,0,.68.15,1.56,1.56,0,0,0-.18,1.22,1.73,1.73,0,0,0-1,.05,2.29,2.29,0,0,0-1-.86,2.32,2.32,0,0,0-2,0h0l-.14.07a2.18,2.18,0,0,0-.49.37,1.65,1.65,0,0,1-.18-1.32,3.63,3.63,0,0,1,2.47-2.43,1.47,1.47,0,0,1,1.18.19,1.66,1.66,0,0,0-.37,1.12A1.7,1.7,0,0,0,97.07,68.84Zm5.7-1.7c.13,0,.47.16.82.76a2,2,0,0,0-.52.12,2.81,2.81,0,0,0-.49.25C102.48,67.58,102.63,67.19,102.77,67.14Zm3.44,3.13a1.93,1.93,0,0,0,1.27.47,1.07,1.07,0,0,0,.84-.37,1.12,1.12,0,0,0,.28-.75,1.14,1.14,0,0,0-1.12-1.17.51.51,0,0,0-.5.5.5.5,0,0,0,.5.5c.11,0,.12.14.12.17a.14.14,0,0,1-.12.12.83.83,0,0,1-.81-.44.7.7,0,0,1,.06-.74l0,0a1.32,1.32,0,0,1,1.64,2.06.6.6,0,0,0-.16.33,7.32,7.32,0,0,0-.81,0,8.61,8.61,0,0,0-1.36.11A2.11,2.11,0,0,0,106.21,70.27Zm3.68-3.72c.14,0,.41.41.34,1.35a3.7,3.7,0,0,0-.18.4,1.53,1.53,0,0,0-.39.45,2.11,2.11,0,0,0-.64-.93v0C109.3,66.85,109.74,66.55,109.89,66.55Zm4.51,1.66c.14.08.22.57-.15,1.38a2.87,2.87,0,0,0-.29.31,1.62,1.62,0,0,0-.54.31,2.27,2.27,0,0,0-.28-1.09.21.21,0,0,1,0-.06C113.75,68.29,114.26,68.12,114.4,68.21Zm3.66,3.11c.09.11,0,.57-.6,1.23l-.39.19a1.8,1.8,0,0,0-.6.1,2.26,2.26,0,0,0,.11-1.12l0,0C117.43,71.16,118,71.19,118.06,71.32Zm2.39,4.17c0,.13-.15.54-1,1l-.46,0a1.71,1.71,0,0,0-.59-.11,2.29,2.29,0,0,0,.49-1l.09,0C119.91,75.13,120.39,75.33,120.45,75.49Zm-2.37,4.19a1.26,1.26,0,0,1-1.12-.3.51.51,0,0,0-.38-.13,9.64,9.64,0,0,0-.4-2,1.75,1.75,0,0,0,.4,0,2.63,2.63,0,0,0,.39-.06,1.9,1.9,0,0,0-.24,1.36,1.09,1.09,0,0,0,.68.85,1.21,1.21,0,0,0,1.18-.22,1.05,1.05,0,0,0,.38-1,.49.49,0,0,0-.6-.37.55.55,0,0,0-.42.62.16.16,0,0,1-.24,0,.84.84,0,0,1,.29-.88.7.7,0,0,1,.73-.07.93.93,0,0,1,.43.7,1.39,1.39,0,0,1-.06.76l0,.07A1.35,1.35,0,0,1,118.08,79.68ZM113.57,82a1.78,1.78,0,1,1,1.78-1.78A1.78,1.78,0,0,1,113.57,82Zm-3.14,3.86a1.78,1.78,0,1,1,2.52,0A1.79,1.79,0,0,1,110.43,85.81Zm-4.94.5a1.78,1.78,0,1,1,1.77,1.78A1.78,1.78,0,0,1,105.49,86.31Zm-3.86-.62a1.79,1.79,0,0,1,0-2.52,1.77,1.77,0,0,1,2.52,0,1.78,1.78,0,1,1-2.52,2.52Zm-2.38-.87a1.09,1.09,0,0,0-.94-.56h0a1.25,1.25,0,0,0-1,.62,1,1,0,0,0,0,1.08.48.48,0,0,0,.68.14.54.54,0,0,0,.18-.72c0-.06.11-.12.25-.06a.86.86,0,0,1,0,.94.71.71,0,0,1-.65.32.93.93,0,0,1-.65-.52,1.31,1.31,0,0,1-.2-.72,1.29,1.29,0,0,1,.66-1.08,1.22,1.22,0,0,1,1.22-.1.52.52,0,0,0,.44,0,9,9,0,0,0,1.12,1.73,2.25,2.25,0,0,0-.86.29A2,2,0,0,0,99.25,84.82ZM93.16,75.6A1.22,1.22,0,0,0,92,75.4a1,1,0,0,0-.7.84.48.48,0,0,0,.43.54.55.55,0,0,0,.61-.44c.07,0,.16,0,.21.12a.83.83,0,0,1-.57.72.71.71,0,0,1-.72-.18.93.93,0,0,1-.15-.8,1.45,1.45,0,0,1,.22-.57l.09-.1a1.38,1.38,0,0,1,2.1.13,1.79,1.79,0,0,0,.42.82,3.17,3.17,0,0,0-.41.17v0A1.09,1.09,0,0,0,93.16,75.6Zm.26-4.75a1.35,1.35,0,0,1,.41-.47l.11-.06a1.33,1.33,0,0,1,1.2,0,1.29,1.29,0,0,1,.73.87,1.81,1.81,0,0,0,.12.91,1.66,1.66,0,0,0-.45,0v0a1.07,1.07,0,0,0,0-1.09,1.23,1.23,0,0,0-1-.6h0a1.08,1.08,0,0,0-1,.55.5.5,0,0,0,.23.66.55.55,0,0,0,.72-.21c.08,0,.15,0,.16.19a.85.85,0,0,1-.79.49.7.7,0,0,1-.61-.43A.88.88,0,0,1,93.42,70.85Zm10.85,3.52a1.78,1.78,0,1,1-2.52,0A1.79,1.79,0,0,1,104.27,74.37ZM102.91,80a1.78,1.78,0,1,1-1.78-1.78A1.78,1.78,0,0,1,102.91,80Zm-5.41-.34a1.89,1.89,0,0,0,.66-1.18,1.05,1.05,0,0,0-.35-1,1.22,1.22,0,0,0-1.19-.2,1.06,1.06,0,0,0-.7.83.5.5,0,0,0,.44.55.56.56,0,0,0,.6-.44c.07,0,.16,0,.22.12a.79.79,0,0,1-.91.74c-.34-.06-.65-.35-.54-1a1.38,1.38,0,0,1,.31-.68A1.29,1.29,0,0,1,97.18,77a1.32,1.32,0,0,1,1,.64.48.48,0,0,0,.32.24A8.73,8.73,0,0,0,98.26,80,2.07,2.07,0,0,0,97.5,79.66Zm-2-6.47c.07-.11.44-.19,1.12,0a2.68,2.68,0,0,0-.31.42,2.09,2.09,0,0,0-.23.54C95.53,73.72,95.42,73.32,95.49,73.19Zm3.37,3.6a2.61,2.61,0,0,0-.59-.51,1.9,1.9,0,0,0,1-.88,1.07,1.07,0,0,0,0-1.09,1.23,1.23,0,0,0-1-.6h0a1.07,1.07,0,0,0-1,.55.49.49,0,0,0,.23.66.55.55,0,0,0,.72-.21c.08,0,.16.05.16.19a.85.85,0,0,1-.74.49h0a.72.72,0,0,1-.62-.34.91.91,0,0,1,.09-.89,1.49,1.49,0,0,1,.42-.47l.1-.06a1.35,1.35,0,0,1,1.21,0,1.31,1.31,0,0,1,.75.93.45.45,0,0,0,.21.32A8.73,8.73,0,0,0,98.86,76.79Zm-.65-5.18.25.34a1.74,1.74,0,0,0,.2.58,2.19,2.19,0,0,0-1.11.09l0-.05c-.66-.7-.73-1.22-.62-1.35S97.48,71.11,98.21,71.61Zm-2.36,3.68.34.22s0,0,0,0a1.77,1.77,0,0,0,.38.44,2.11,2.11,0,0,0-1,.46l-.06,0c-.86-.42-1.11-.9-1.05-1S95,75.06,95.85,75.29Zm-.95,2.07a2.64,2.64,0,0,0-.15.5,2.39,2.39,0,0,0,0,.59c-.67-.27-.92-.61-.89-.76S94.17,77.35,94.9,77.36Zm0,2.19.4.09a1.71,1.71,0,0,0,.52.31,2.27,2.27,0,0,0-.74.67l-.07.12h-.07c-.94-.11-1.32-.47-1.32-.63S94,79.62,94.89,79.55Zm1.25,3.33a.91.91,0,0,1-.43-.7,1.58,1.58,0,0,1,.06-.77l0-.07a1.34,1.34,0,0,1,1-.71,1.24,1.24,0,0,1,1.11.31.45.45,0,0,0,.39.13,9.19,9.19,0,0,0,.48,2,2.18,2.18,0,0,0-.88,0,1.92,1.92,0,0,0,.23-1.35,1.07,1.07,0,0,0-.68-.85,1.24,1.24,0,0,0-1.18.21,1.09,1.09,0,0,0-.38,1,.51.51,0,0,0,.58.41.51.51,0,0,0,.41-.58.09.09,0,0,1,0-.1.17.17,0,0,1,.24,0,.84.84,0,0,1-.29.88A.72.72,0,0,1,96.14,82.88Zm7.49-2.26a1.78,1.78,0,1,1,1.25,2.18A1.76,1.76,0,0,1,103.63,80.62Zm9.44-6.13a1.78,1.78,0,1,1-2.52,0A1.79,1.79,0,0,1,113.07,74.49Zm-1.89,6.16A1.78,1.78,0,1,1,109,79.39,1.79,1.79,0,0,1,111.18,80.65ZM108.69,79a1.78,1.78,0,1,1,0-2.52A1.78,1.78,0,0,1,108.69,79Zm.52-5.15a1.78,1.78,0,1,1-1.77-1.78A1.78,1.78,0,0,1,109.21,73.87Zm5.46.53a2,2,0,0,0,.71-.25,2,2,0,0,0,.24,1.34,1.08,1.08,0,0,0,1.53.4,1.12,1.12,0,0,0,.45-1.54.5.5,0,1,0-.87.5c0,.09-.06.16-.08.17s-.14,0-.16,0a.85.85,0,0,1,0-1,.67.67,0,0,1,.64-.31h0a1,1,0,0,1,.64.52,1.51,1.51,0,0,1,.2.72,1.31,1.31,0,0,1-.62,1,1.26,1.26,0,0,1-1.19.17.52.52,0,0,0-.39,0A9.43,9.43,0,0,0,114.67,74.4Zm.88-2.72a1.25,1.25,0,0,1-.19,1.17,1.32,1.32,0,0,1-1,.6h0V74a9.49,9.49,0,0,0-2-1.72,2.06,2.06,0,0,0,.56-.46,2,2,0,0,0,.68,1.17,1.07,1.07,0,0,0,1.56-.12,1.15,1.15,0,0,0-.09-1.62.52.52,0,0,0-.71.06.5.5,0,0,0,.06.7c.09.08,0,.19,0,.21s-.1,0-.15,0a.84.84,0,0,1-.35-.87.71.71,0,0,1,.52-.52.92.92,0,0,1,.77.26A1.34,1.34,0,0,1,115.55,71.68Zm-3.48-2.36.09.1a1.33,1.33,0,0,1,.22,1.17,1.29,1.29,0,0,1-.76.9.48.48,0,0,0-.27.25,9.34,9.34,0,0,0-2-.69,2.25,2.25,0,0,0,.35-.6,1.93,1.93,0,0,0,1,.86,1,1,0,0,0,1.08-.16,1.23,1.23,0,0,0,.41-1.13,1.06,1.06,0,0,0-.71-.84.48.48,0,0,0-.61.33.57.57,0,0,0,.33.68c0,.07,0,.16-.15.18a.84.84,0,0,1-.62-.69.7.7,0,0,1,.31-.67.93.93,0,0,1,.81,0A1.37,1.37,0,0,1,112.07,69.32Zm-7,1.5a.42.42,0,0,0,0,.36,9.58,9.58,0,0,0-2,.8,2.26,2.26,0,0,0-.12-.68,1.93,1.93,0,0,0,1.36,0,1.08,1.08,0,0,0,.65-1.43,1.11,1.11,0,0,0-1.44-.71.49.49,0,0,0-.29.64.5.5,0,0,0,.64.3c.09,0,.15.1.15.11s0,.14-.06.15a.79.79,0,0,1-1.1-.42c-.12-.31,0-.74.6-1a1.36,1.36,0,0,1,.74-.08,1.31,1.31,0,0,1,.91.75A1.35,1.35,0,0,1,105.08,70.82Zm-3,1.39a.48.48,0,0,0,.09.35A9.28,9.28,0,0,0,100.51,74a2.27,2.27,0,0,0-.34-.63,1.93,1.93,0,0,0,1.25-.48,1.09,1.09,0,0,0,.13-1.58,1.13,1.13,0,0,0-1.6-.17.51.51,0,0,0-.06.71.49.49,0,0,0,.7.06c.09-.07.17,0,.19,0s0,.13,0,.16a.81.81,0,0,1-1.19,0c-.22-.26-.27-.7.23-1.12a1.33,1.33,0,0,1,.68-.32,1.25,1.25,0,0,1,1.11.39A1.32,1.32,0,0,1,102,72.21Zm-2.85-2a2.89,2.89,0,0,0-.38.41c-.33-.62-.32-1-.2-1.13s.5,0,1,.44A2.39,2.39,0,0,0,99.18,70.24ZM92.37,72a1.7,1.7,0,0,0,1.46,1H94a1.8,1.8,0,0,0,.57-.11,1.59,1.59,0,0,0,.24,1.23,1.67,1.67,0,0,0-1,.4,2.35,2.35,0,0,0-3,.15l-.13.13a1.77,1.77,0,0,0-.33.52,1.62,1.62,0,0,1-.62-1.18,3.59,3.59,0,0,1,1.49-3.13,1.38,1.38,0,0,1,1.16-.22A1.73,1.73,0,0,0,92.37,72Zm2.33,9.78a2,2,0,0,0,0,.54,2.65,2.65,0,0,0,.15.54c-.69,0-1-.25-1.07-.39S94,82.06,94.7,81.81Zm-.27,3c-.06-.14.18-.56,1-.94l.45,0a1.66,1.66,0,0,0,.58.11h0a2.34,2.34,0,0,0-.48,1h-.14l0,0C94.93,85.17,94.48,85,94.43,84.82Zm4.89,3.81a1.29,1.29,0,0,1,.25-1.25,1.28,1.28,0,0,1,1.15-.51.44.44,0,0,0,.42-.16,9.29,9.29,0,0,0,1.63,1.23,2.14,2.14,0,0,0-.75.59,1.91,1.91,0,0,0-.69-1.19,1.07,1.07,0,0,0-1.56.15,1.12,1.12,0,0,0,.11,1.6.49.49,0,0,0,.7-.06.51.51,0,0,0-.06-.71c-.08-.07,0-.18,0-.19s.11-.06.15,0A.83.83,0,0,1,101,89a.72.72,0,0,1-.52.53.94.94,0,0,1-.77-.27A1.32,1.32,0,0,1,99.32,88.63Zm3.39,2.26a1.33,1.33,0,0,1-.18-1.3,1.23,1.23,0,0,1,.91-.83.51.51,0,0,0,.36-.29,9.6,9.6,0,0,0,1.93.59,2.11,2.11,0,0,0-.51.82,2,2,0,0,0-1-.88,1,1,0,0,0-1.08.16,1.23,1.23,0,0,0-.4,1.15,1.05,1.05,0,0,0,.7.82.48.48,0,0,0,.61-.33.55.55,0,0,0-.33-.67.17.17,0,0,1,.16-.2.84.84,0,0,1,.61.7.7.7,0,0,1-.3.67.93.93,0,0,1-.82,0A1.36,1.36,0,0,1,102.71,90.89Zm12.5-5.27a.51.51,0,0,0-.21-.38,9.3,9.3,0,0,0,1-1.79,2,2,0,0,0,.65.58,1.92,1.92,0,0,0-1,.88,1.09,1.09,0,0,0,0,1.09,1.26,1.26,0,0,0,1,.6h0a1.07,1.07,0,0,0,1-.55.49.49,0,0,0-.22-.66.56.56,0,0,0-.73.21c-.08,0-.16,0-.16-.19a.8.8,0,0,1,1.36-.15.91.91,0,0,1-.09.89,1.45,1.45,0,0,1-.43.48l-.09.05a1.35,1.35,0,0,1-1.29,0A1.27,1.27,0,0,1,115.21,85.62Zm2.42-2.26a1.34,1.34,0,0,1-1-.65.46.46,0,0,0-.13-.2.48.48,0,0,0-.22-.12,8.5,8.5,0,0,0,.3-2,2.07,2.07,0,0,0,.77.3,1.86,1.86,0,0,0-.66,1.17,1.07,1.07,0,0,0,.35,1,1.24,1.24,0,0,0,1.19.2,1.09,1.09,0,0,0,.7-.85.49.49,0,0,0-.44-.54.57.57,0,0,0-.61.45c-.06,0-.15,0-.21-.12a.8.8,0,0,1,.92-.75c.33.06.65.35.53,1a1.3,1.3,0,0,1-.31.68A1.35,1.35,0,0,1,117.63,83.36Zm2.54-4.87a2.27,2.27,0,0,0,0-.52,2.84,2.84,0,0,0-.17-.54c.7,0,1.06.24,1.08.39S120.82,78.25,120.17,78.49Zm-1.34-4.26a2.53,2.53,0,0,0-.2-.49,2.38,2.38,0,0,0-.34-.43c.67-.22,1.07-.14,1.15,0S119.36,73.79,118.83,74.23Zm-2.7-3.53a2.64,2.64,0,0,0-.36-.39,3.17,3.17,0,0,0-.47-.31c.55-.43,1-.49,1.07-.4S116.47,70.12,116.13,70.7Zm-3.77-2.4a2.6,2.6,0,0,0-.47-.24,2.23,2.23,0,0,0-.54-.13c.37-.6.73-.8.87-.75S112.48,67.62,112.36,68.3Zm-4.87-2h0c.14,0,.38.32.5,1a2.52,2.52,0,0,0-1.06,0C107.07,66.65,107.35,66.33,107.49,66.33Zm-1.65,1.73h0v0a1.81,1.81,0,0,0-.2.58,2.24,2.24,0,0,0-.92-.66.17.17,0,0,0,0-.07c0-1,.24-1.4.4-1.43s.53.29.77,1.16ZM101.7,69c0,.13.07.26.11.4a1.79,1.79,0,0,0,0,.61,2.21,2.21,0,0,0-1.07-.29V69.6l-.07-.07c-.33-.81-.23-1.3-.09-1.38S101.15,68.24,101.7,69Zm-2.06-1.22a1.72,1.72,0,0,0-.2.9,3,3,0,0,0-.42-.14h0a1.09,1.09,0,0,0,.4-1,1.23,1.23,0,0,0-.78-.92,1.06,1.06,0,0,0-1.08.19.49.49,0,0,0,0,.7.56.56,0,0,0,.75.05c.07,0,.12.1.08.23a.83.83,0,0,1-.91.18.69.69,0,0,1-.42-.6.88.88,0,0,1,.39-.71,1.47,1.47,0,0,1,.53-.29l.14,0a1.36,1.36,0,0,1,1.52,1.45ZM89.14,83.66a1.41,1.41,0,0,1,.75-.92,1.73,1.73,0,0,0,.78.88,1.7,1.7,0,0,0,.76.18,1.72,1.72,0,0,0,1-.33,1.66,1.66,0,0,0,.46-.53,1.6,1.6,0,0,0,1,.8,1.69,1.69,0,0,0-.46.9,2.52,2.52,0,0,0-1.25.42,2.36,2.36,0,0,0-1,1.65l0,.2a2.55,2.55,0,0,0,.08.61A1.62,1.62,0,0,1,90,87,3.58,3.58,0,0,1,89.14,83.66ZM96,86.08a2.45,2.45,0,0,0,.2.48,2.65,2.65,0,0,0,.34.45c-.67.22-1.08.13-1.15,0S95.51,86.52,96,86.08Zm2.7,3.53a2.72,2.72,0,0,0,.37.39,2.19,2.19,0,0,0,.47.3c-.56.44-1,.5-1.08.4S98.4,90.19,98.74,89.61ZM102.51,92a2.6,2.6,0,0,0,.47.24,2.25,2.25,0,0,0,.56.12c-.38.62-.75.8-.89.75S102.39,92.7,102.51,92Zm4.87,2h0c-.13,0-.39-.32-.5-1a3,3,0,0,0,.52.06,2.51,2.51,0,0,0,.55-.07C107.79,93.67,107.52,94,107.38,94ZM109,92.2a1.73,1.73,0,0,0,.22-.57,2.23,2.23,0,0,0,.91.66.17.17,0,0,0,0,.07c0,1-.23,1.4-.4,1.42s-.53-.29-.77-1.15A2.9,2.9,0,0,0,109,92.2Zm4.16-.85c0-.13-.08-.27-.13-.41s0,0,0,0a1.73,1.73,0,0,0,0-.6,2.16,2.16,0,0,0,1.09.32v.09l.06.06c.33.81.22,1.3.08,1.38S113.73,92.11,113.19,91.35Zm3.09-.56c-.1.08-.48.06-1-.43a2.52,2.52,0,0,0,.46-.29,2.89,2.89,0,0,0,.38-.41C116.4,90.28,116.39,90.7,116.28,90.79Zm.37-2.1a3.59,3.59,0,0,0-.25-.33,1.67,1.67,0,0,0-.2-.58,2.73,2.73,0,0,0,.4,0,2.18,2.18,0,0,0,.72-.13l.05,0c.66.69.73,1.22.62,1.34S117.39,89.2,116.65,88.69ZM119,85l-.35-.23s0,0,0,0a1.6,1.6,0,0,0-.39-.43,2.22,2.22,0,0,0,1-.47h0l.13.07h0c.78.41,1,.85.94,1S119.89,85.25,119,85ZM120,83a3.53,3.53,0,0,0,.16-.52,2.89,2.89,0,0,0,0-.58c.68.27.92.61.89.76S120.72,83,120,83Zm0-2.2-.4-.09a1.63,1.63,0,0,0-.52-.31,2.19,2.19,0,0,0,.78-.73H120v0c.92.11,1.3.45,1.3.61S120.87,80.69,120,80.76Zm5.75-4.11a1.39,1.39,0,0,1-.75.92,1.67,1.67,0,0,0-3-.2,1.62,1.62,0,0,0-1-.79,1.67,1.67,0,0,0,.47-.91,2.39,2.39,0,0,0,1.24-.42,2.35,2.35,0,0,0,1-1.66l0-.19a2.18,2.18,0,0,0-.08-.61,1.62,1.62,0,0,1,1.23.51A3.58,3.58,0,0,1,125.73,76.65ZM123,71.73a1.66,1.66,0,0,0-2.66.19,1.61,1.61,0,0,0-.25.66,1.57,1.57,0,0,0-1.19-.42,1.55,1.55,0,0,0,.12-1,2.37,2.37,0,0,0,1.41-2.72v0l0-.17a2.31,2.31,0,0,0-.28-.54,1.63,1.63,0,0,1,1.33,0,3.63,3.63,0,0,1,2,2.86A1.43,1.43,0,0,1,123,71.73Zm-3.82-4.83a1.68,1.68,0,0,0-1.17-.17A1.71,1.71,0,0,0,116.78,68a1.65,1.65,0,0,0,0,.7,1.57,1.57,0,0,0-1.26,0,1.52,1.52,0,0,0-.23-1,2.32,2.32,0,0,0,.69-1.12,2.35,2.35,0,0,0-.3-1.91l-.11-.16a2.24,2.24,0,0,0-.45-.42,1.62,1.62,0,0,1,1.27-.4,3.59,3.59,0,0,1,2.82,2A1.45,1.45,0,0,1,119.22,66.9Zm-6.4-3a1.69,1.69,0,0,0-.76,1.61,1.58,1.58,0,0,0,.23.67,1.52,1.52,0,0,0-1.18.45,1.55,1.55,0,0,0-.56-.86,2.36,2.36,0,0,0,.26-1.29,2.33,2.33,0,0,0-.94-1.7l-.15-.1a1.86,1.86,0,0,0-.56-.24,1.62,1.62,0,0,1,1-.82,3.61,3.61,0,0,1,3.34.93,1.39,1.39,0,0,1,.42,1.11A1.67,1.67,0,0,0,112.82,63.91Zm-5.88-.86a1.7,1.7,0,0,0-.17,1.78,1.8,1.8,0,0,0,.45.54,1.56,1.56,0,0,0-1,.82,1.63,1.63,0,0,0-.82-.62,2.33,2.33,0,0,0-.2-1.29A2.31,2.31,0,0,0,103.8,63l-.19,0a2.07,2.07,0,0,0-.61,0,1.63,1.63,0,0,1,.71-1.13,3.6,3.6,0,0,1,3.45-.27,1.43,1.43,0,0,1,.78.9A1.66,1.66,0,0,0,106.94,63.05ZM101.57,66a1.64,1.64,0,0,0,.61.36,1.57,1.57,0,0,0-.62,1.1,1.75,1.75,0,0,0-1-.3A2.26,2.26,0,0,0,100,66a2.36,2.36,0,0,0-1.8-.7h0l-.17,0a2.54,2.54,0,0,0-.59.19,1.64,1.64,0,0,1,.29-1.31,3.57,3.57,0,0,1,3.15-1.43,1.42,1.42,0,0,1,1,.58,1.63,1.63,0,0,0-.73.92A1.68,1.68,0,0,0,101.57,66Zm-9.74,22.6a1.66,1.66,0,0,0,1,.56l.21,0a1.72,1.72,0,0,0,1.41-.77,1.57,1.57,0,0,0,.25-.65,1.55,1.55,0,0,0,1.14.42h.06a1.71,1.71,0,0,0-.13,1,2.4,2.4,0,0,0-1,.82,2.35,2.35,0,0,0-.37,1.91v0l.06.16a1.74,1.74,0,0,0,.28.54,1.62,1.62,0,0,1-1.34,0,3.61,3.61,0,0,1-2-2.85A1.44,1.44,0,0,1,91.83,88.58Zm3.82,4.83a1.78,1.78,0,0,0,.81.21,1.47,1.47,0,0,0,.36,0,1.7,1.7,0,0,0,1.27-1.25,1.75,1.75,0,0,0,0-.72,1.23,1.23,0,0,0,.57.14,2,2,0,0,0,.69-.16,1.67,1.67,0,0,0,.23,1,2.32,2.32,0,0,0-.69,1.12,2.35,2.35,0,0,0,.3,1.91l.11.16a2.24,2.24,0,0,0,.45.42,1.62,1.62,0,0,1-1.27.4,3.59,3.59,0,0,1-2.82-2A1.45,1.45,0,0,1,95.65,93.41Zm12.28,3.86a1.71,1.71,0,0,0,.17-1.78,1.73,1.73,0,0,0-.45-.55,1.56,1.56,0,0,0,.95-.82,1.6,1.6,0,0,0,.82.61,2.37,2.37,0,0,0,.2,1.3,2.3,2.3,0,0,0,1.46,1.27l.18,0a2,2,0,0,0,.42,0h.2a1.64,1.64,0,0,1-.72,1.13,3.6,3.6,0,0,1-3.45.27,1.4,1.4,0,0,1-.78-.9A1.65,1.65,0,0,0,107.93,97.27Zm9.87-5.8a1.84,1.84,0,0,0-.69-.13,1.62,1.62,0,0,0,.2-1.25,2,2,0,0,0,.46.07,1.4,1.4,0,0,0,.56-.11,2.38,2.38,0,0,0,2,1.09,2.15,2.15,0,0,0,.94-.2h0l.13-.07a2.18,2.18,0,0,0,.49-.37,1.65,1.65,0,0,1,.18,1.32,3.63,3.63,0,0,1-2.47,2.43,1.44,1.44,0,0,1-1.17-.19,1.69,1.69,0,0,0-.65-2.59Zm4.7-3.19a1.7,1.7,0,0,0-1.46-1,1.62,1.62,0,0,0-.69.11,1.63,1.63,0,0,0-.25-1.26,1.6,1.6,0,0,0,.94-.39,2.34,2.34,0,0,0,1.24.49h.21a2.31,2.31,0,0,0,1.62-.64l.13-.13a2,2,0,0,0,.34-.51,1.61,1.61,0,0,1,.61,1.18,3.59,3.59,0,0,1-1.49,3.12,1.43,1.43,0,0,1-1.16.23A1.7,1.7,0,0,0,122.5,88.28Zm2.31-4.55a1.67,1.67,0,0,0-2.16-1.56,1.6,1.6,0,0,0-.61.34,1.57,1.57,0,0,0-.66-1.09,1.65,1.65,0,0,0,.74-.68,2.31,2.31,0,0,0,.69.11A2.45,2.45,0,0,0,125,79.54l.08-.17a2,2,0,0,0,.13-.59,1.63,1.63,0,0,1,1,.89,3.65,3.65,0,0,1-.33,3.45A1.47,1.47,0,0,1,124.81,83.73ZM75.08,92c-2.4-.74-4.13-1.27-5.43-.44a2.57,2.57,0,0,0-1.15,1.9c-.34,2.46-.58,16.66,6.55,24.85A15.39,15.39,0,0,0,86,123.74a7.86,7.86,0,0,0,.52,1.46c-16.58-2.62-19.25-22.7-20.29-30.59-.13-1-.24-1.75-.34-2.28-.5-2.51-3.4-3.79-7.08-5.42C53.62,84.62,47.83,82,47.21,76a2.71,2.71,0,0,0,.39-.17,5.4,5.4,0,0,0,3,.83h.08c1.6,3.26,5.66,6.89,9,8.56a8.75,8.75,0,0,0,3.81,1.07,4.16,4.16,0,0,0,1.79-.38C69.19,84,79.83,75.65,80.56,61.42a5.72,5.72,0,0,0,2.21,1.45c-.49,3.28-3.14,7.76-5.51,11.78-3.21,5.43-5.75,9.72-4.12,12.35,1.36,2.2,4.41,3.85,8,4.31a14.51,14.51,0,0,0,2,.13A11.61,11.61,0,0,0,89,90a5.32,5.32,0,0,0,.14.78,6,6,0,0,0,.6,1.44C84.07,94.74,78.73,93.12,75.08,92Z"/></svg>