<svg id="expanded" xmlns="http://www.w3.org/2000/svg" viewBox="0 0 150 150"><title>BlackEyedSusan-bold</title><path d="M84.72,74.27A9.72,9.72,0,1,0,75,84,9.73,9.73,0,0,0,84.72,74.27Zm-15.44,0A5.72,5.72,0,1,1,75,80,5.73,5.73,0,0,1,69.28,74.27Z"/><path d="M78.72,74.27A3.72,3.72,0,1,0,75,78,3.73,3.73,0,0,0,78.72,74.27Zm-4,0a.28.28,0,1,1,.56,0C75.28,74.58,74.72,74.58,74.72,74.27Z"/><path d="M135.43,67.21c-.51-4.24-3.8-9.29-16.56-9.33.9-.81,1.83-1.71,2.72-2.66,3-3.24,7.47-9.53,3.52-15.26a9.35,9.35,0,0,0-8-3.94c-3.56,0-7.67,1.64-11,3.37.41-1.13.82-2.36,1.16-3.61,1.16-4.27,2.19-11.91-4-15.15a9,9,0,0,0-4.14-1c-5.16,0-9.67,4.59-12.94,9.28C85.33,22.11,82.67,13.65,75,13.65c-7.08,0-9.7,7.27-10.63,11.6-.26,1.22-.46,2.46-.61,3.64-3.18-4.5-7.77-9.27-13-9.27h0a8.68,8.68,0,0,0-4.06,1c-6.27,3.29-5.21,10.94-4,15.21.34,1.23.75,2.43,1.17,3.56-3.31-1.69-7.45-3.33-11.06-3.33a9.19,9.19,0,0,0-7.9,3.88c-4,5.82.47,12.11,3.51,15.34.88.93,1.81,1.82,2.71,2.62a33.21,33.21,0,0,0-8.28,1c-6.54,1.8-8,6-8.27,8.29-.86,7,6,10.5,10.23,11.95,1.21.42,2.45.77,3.62,1.06-1.06.58-2.18,1.23-3.27,1.94-3.7,2.43-9.54,7.46-7.07,14,.87,2.3,3.41,6.16,10.6,6.16a33.83,33.83,0,0,0,7.65-1.06c-3.82,5.68-7.45,13.79-1.71,18.88a9,9,0,0,0,6,2.25c4.34,0,8.89-3,12.54-6.2-.13,1.19-.23,2.46-.26,3.74-.11,4.42.72,12.09,7.48,13.76a9,9,0,0,0,2.12.26c4.51,0,8.29-3.21,11.25-9.54.45-1,.86-2,1.22-2.91.37,1,.79,2,1.26,2.94,1.12,2.35,4.51,9.51,11.2,9.51a8.59,8.59,0,0,0,2.08-.26c6.88-1.69,7.68-9.37,7.55-13.8,0-1.26-.14-2.53-.28-3.72,3.51,3,8.21,6.2,12.59,6.2a8.78,8.78,0,0,0,5.94-2.21c5.3-4.69,2.45-11.87.27-15.73-.63-1.12-1.32-2.2-2-3.21a34.28,34.28,0,0,0,7.72,1c7.2,0,9.72-3.81,10.58-6.08,2.51-6.62-3.35-11.65-7.07-14.06-1.06-.68-2.15-1.31-3.21-1.87C128.26,78.49,136.36,74.83,135.43,67.21ZM124.43,93c-.7,1.86-8.54.7-14.46-1.55-8.56-3.25-19.62-9.31-20.23-11.65,1.25-1,9.68-.23,22.84,4.76C119.47,87.21,125.12,91.23,124.43,93ZM87.64,125.61c-.77.18-2.27-1.13-3.93-4.49a46,46,0,0,1-3-8.3c-2.19-8.88-3.49-21.43-1.9-23.27,1.51.48,5.69,7.84,9,21.51a46.71,46.71,0,0,1,1.26,8.75C89.2,123.09,88.63,125.37,87.64,125.61Zm-25.31,0c-.76-.19-1.48-2-1.39-5.79a45.94,45.94,0,0,1,1.19-8.76c2.19-8.88,6.87-20.59,9.13-21.48,1.11,1.12,1.39,9.57-2,23.25C67.52,120,64.21,126.08,62.33,125.6Zm-22.4-11.76c-1.48-1.32,2.38-8.24,6.58-13,6-6.74,15.36-14.79,17.95-14.79h.12C65,87.59,61.36,95.21,52,105.75,47.13,111.26,41.37,115.11,39.93,113.84ZM25.56,93c-.7-1.86,5.93-6.19,11.85-8.43,7.05-2.68,16.63-5,20.92-5a3.8,3.8,0,0,1,2,.35C60,81.44,53.19,86.47,40,91.46a47.08,47.08,0,0,1-8.54,2.3C28.25,94.25,25.92,94,25.56,93ZM55.32,30.86a46.28,46.28,0,0,1,4.91,7.34c4.26,8.1,8.52,20,7.42,22.13-1.58-.1-7.4-6.24-13.94-18.71h0a46.69,46.69,0,0,1-3.31-8.19c-.88-3.16-.87-5.51,0-6a.75.75,0,0,1,.35-.08C51.62,27.37,53.24,28.39,55.32,30.86Zm43.86-3.5a1,1,0,0,1,.42.1c.69.36,1,2.35,0,6a46,46,0,0,1-3.25,8.21C92.05,49.73,84.7,60,82.3,60.31c-.81-1.37.94-9.64,7.49-22.1a46.48,46.48,0,0,1,4.86-7.38C96.47,28.65,98.17,27.36,99.18,27.36ZM63.28,74.27A11.72,11.72,0,1,1,75,86,11.73,11.73,0,0,1,63.28,74.27Zm55.25-30c1.13,1.63-4.28,7.42-9.5,11-7.53,5.2-18.8,10.86-21.08,10-.09-1.58,5.31-8.09,16.9-16.08C110.92,45,117.44,42.66,118.53,44.25ZM75,58.51c-1.35-.82-3.65-9-3.65-23,0-7.37,1.75-14.08,3.68-14.08s3.68,7.74,3.68,14.08C78.68,44.62,76.94,57.11,75,58.51ZM62,65.34c-1.45.65-9.45-2.09-21-10.09a47,47,0,0,1-6.74-5.71c-2.25-2.39-3.33-4.48-2.75-5.31.18-.27.62-.43,1.31-.43A13.15,13.15,0,0,1,37.4,45a45.8,45.8,0,0,1,7.76,4.21C52.7,54.39,62,62.92,62,65.34Zm-30.13.3a42,42,0,0,1,5,.29C46,67,58.2,70.27,59.36,72.4c-1,1.24-9.34,2.54-23.32.84h0a47.29,47.29,0,0,1-8.62-1.93c-3.11-1.07-5-2.41-4.91-3.42C22.69,66.43,27.07,65.64,31.89,65.64ZM85.47,86c1.56-.29,8.67,4.29,18,14.84,4.88,5.51,8,11.7,6.57,13-.59.52-2.53.06-5.56-2.14A46.77,46.77,0,0,1,98,105.76C91.9,98.91,84.92,88.4,85.47,86Zm5.17-13.7c.65-1.44,8.46-4.7,22.44-6.39,7.31-.89,14.18,0,14.41,2,.1.78-1.39,2.12-4.92,3.36a46.68,46.68,0,0,1-8.61,2C104.88,74.36,92.27,74.14,90.64,72.34Z"/></svg>