<svg id="expanded" xmlns="http://www.w3.org/2000/svg" viewBox="0 0 150 150"><title>Nasturtium-bold</title><path d="M130.22,60.92C128,54,122,50,117,47.33a8.14,8.14,0,0,0-3.83-1.12c-3.57,0-4.91,3-5.72,4.85a6,6,0,0,1-1.23,2.1.87.87,0,0,1-.56.19,9,9,0,0,1-2-.42,24,24,0,0,0-6.74-1c-.6,0-1.22,0-1.84.07l-.43,0-.09-.41A23,23,0,0,0,91,43.73c-1.12-1.7-1.13-1.86-1-2.35a6.11,6.11,0,0,1,1.62-1.82c1.29-1.16,3.06-2.75,3.1-5.22,0-1.72-.79-3.36-2.5-5-4.1-3.91-9.73-8.4-17-8.4s-12.93,4.49-17,8.4c-1.72,1.65-2.54,3.29-2.51,5,0,2.47,1.81,4.06,3.1,5.22a6.11,6.11,0,0,1,1.62,1.82c.13.49.12.65-1,2.35a23,23,0,0,0-3.57,7.87L55.7,52l-.42,0c-.62,0-1.24-.07-1.84-.07a23.89,23.89,0,0,0-6.74,1,9.27,9.27,0,0,1-2,.42.91.91,0,0,1-.57-.19,6.09,6.09,0,0,1-1.23-2.11c-.8-1.81-2.15-4.84-5.71-4.84a8.14,8.14,0,0,0-3.83,1.12c-5,2.68-11,6.65-13.25,13.59s.27,13.69,2.73,18.79c1.33,2.76,3.18,4.16,5.48,4.16a8.82,8.82,0,0,0,4.43-1.56,6.18,6.18,0,0,1,2.2-1c.53,0,.69.08,2,1.68a22.89,22.89,0,0,0,6.38,5.82c.12.07.24.15.37.21l-.18.4a23,23,0,0,0-1.73,8.45c-.1,2-.18,2.18-.58,2.5a6.33,6.33,0,0,1-2.38.52c-1.72.17-4.09.42-5.58,2.39a6.83,6.83,0,0,0-.91,5.52c1,5.58,2.94,12.52,8.84,16.81,3.38,2.46,7.53,3.66,12.69,3.66a44.89,44.89,0,0,0,6-.45c2.36-.32,4-1.16,5-2.57,1.42-2,.92-4.35.56-6a6,6,0,0,1-.24-2.42c.17-.47.28-.6,2.18-1.31a23,23,0,0,0,7.52-4.28l.31-.28.32.28A23,23,0,0,0,83,116.49c1.9.71,2,.84,2.18,1.3a6,6,0,0,1-.24,2.43c-.36,1.7-.86,4,.56,6,1,1.41,2.62,2.25,5,2.57a45,45,0,0,0,6,.45c5.17,0,9.32-1.2,12.71-3.66,5.9-4.29,7.82-11.24,8.82-16.81a6.75,6.75,0,0,0-.91-5.52c-1.48-2-3.85-2.22-5.57-2.39a6.29,6.29,0,0,1-2.38-.52c-.4-.32-.48-.46-.58-2.5a22.89,22.89,0,0,0-1.74-8.46c0-.13-.11-.26-.17-.39l.38-.22A22.81,22.81,0,0,0,113.42,83c1.27-1.59,1.42-1.65,1.92-1.67h0a6.13,6.13,0,0,1,2.23,1A8.82,8.82,0,0,0,122,83.87c2.3,0,4.15-1.4,5.48-4.15C130,74.61,132.48,67.87,130.22,60.92ZM91.1,124.38c-1.41-.19-1.8-.55-1.9-.7-.29-.41-.06-1.48.16-2.51a8.67,8.67,0,0,0,0-5c-.93-2.49-2.82-3.2-4.82-4a18.76,18.76,0,0,1-6.17-3.48,6,6,0,0,1-1.66-2.28,11.7,11.7,0,0,0,0-5.58,17.69,17.69,0,0,1,3.76-6.5.75.75,0,0,0,0,.16,11,11,0,0,0,1.69,3.08,17.54,17.54,0,0,0,2.25,2.45,22.15,22.15,0,0,0,2.54,2,20.61,20.61,0,0,1-2-2.52,15.32,15.32,0,0,1-1.53-2.73,9.33,9.33,0,0,1-.79-2.82,5.31,5.31,0,0,1,.2-2l.53-.41a17.54,17.54,0,0,1,4,2.58,23.73,23.73,0,0,1,3.89,4.48c1.16,1.66,2.23,3.43,3.36,5.16a54.29,54.29,0,0,0,3.62,5,53.46,53.46,0,0,1-3-5.4c-.91-1.84-1.75-3.72-2.73-5.57a25,25,0,0,0-3.59-5.3,19.89,19.89,0,0,0-2.86-2.56,11.24,11.24,0,0,1,2.3-.2,9.88,9.88,0,0,1,3.35.58,9.53,9.53,0,0,1,3,1.84,18.52,18.52,0,0,1,2.45,2.76,18.85,18.85,0,0,0-1.89-3.27,10.64,10.64,0,0,0-2.88-2.66A10.83,10.83,0,0,0,90.14,88a16.48,16.48,0,0,1,5.94-.89,8.68,8.68,0,0,1,4.59,1.45l.07.05a5.89,5.89,0,0,1,2,2.53,18.67,18.67,0,0,1,1.4,6.95c.1,2.13.19,4.15,2.27,5.8a8.58,8.58,0,0,0,4.72,1.48c1,.11,2.14.22,2.44.63.11.14.34.63.09,2-1.28,7-3.46,11.35-7.06,14S98.19,125.34,91.1,124.38ZM61,121.17c.22,1,.45,2.1.16,2.51-.1.15-.49.51-1.89.7-7.1,1-11.87.23-15.46-2.39s-5.78-6.92-7.06-14c-.25-1.39,0-1.88.09-2,.3-.41,1.39-.52,2.44-.63A8.58,8.58,0,0,0,44,103.9c2.08-1.65,2.17-3.67,2.27-5.8a18.67,18.67,0,0,1,1.4-6.95,6,6,0,0,1,1.65-2.28,11.62,11.62,0,0,0,5.3-1.75A17.58,17.58,0,0,1,62,88.69a.67.67,0,0,0-.14.09,10.89,10.89,0,0,0-2.4,2.55,17.07,17.07,0,0,0-1.64,2.9,20.43,20.43,0,0,0-1.14,3,20.9,20.9,0,0,1,1.78-2.66,16,16,0,0,1,2.12-2.29A9.13,9.13,0,0,1,63,90.7a5.45,5.45,0,0,1,2-.43l.55.37a17.43,17.43,0,0,1-1.2,4.64,24.06,24.06,0,0,1-3.06,5.09c-1.22,1.61-2.57,3.17-3.87,4.78a57.8,57.8,0,0,0-3.67,5,57.86,57.86,0,0,1,4.22-4.49c1.48-1.43,3-2.81,4.46-4.32a25.48,25.48,0,0,0,3.93-5,20,20,0,0,0,1.55-3.51,11.34,11.34,0,0,1,.9,2.13,9.22,9.22,0,0,1-.34,6.78,19,19,0,0,1-1.87,3.18,19.35,19.35,0,0,0,2.52-2.81,10.65,10.65,0,0,0,1.65-3.56,10.9,10.9,0,0,0,.31-2.61,16.19,16.19,0,0,1,2.68,5.37,8.68,8.68,0,0,1,0,4.82l0,.07a5.9,5.9,0,0,1-1.8,2.64,18.76,18.76,0,0,1-6.17,3.48c-2,.75-3.89,1.46-4.82,3.94A8.7,8.7,0,0,0,61,121.17Zm27.61-85a8.62,8.62,0,0,0-3,4c-.7,2.56.41,4.24,1.58,6a18.6,18.6,0,0,1,3,6.44,6,6,0,0,1,0,2.82A11.71,11.71,0,0,0,86.92,60a17.62,17.62,0,0,1-6.85,3l.06-.16a11.09,11.09,0,0,0,.44-3.48,17.11,17.11,0,0,0-.38-3.3A20.48,20.48,0,0,0,79.33,53a22.89,22.89,0,0,1,.12,3.2,17.4,17.4,0,0,1-.37,3.1,9.49,9.49,0,0,1-1,2.75,5.23,5.23,0,0,1-1.35,1.51l-.68,0a17.67,17.67,0,0,1-1.74-4.46,23.12,23.12,0,0,1-.52-5.91c0-2,.21-4.09.32-6.15a55.77,55.77,0,0,0,0-6.2A54.74,54.74,0,0,1,73.34,47c-.35,2-.77,4-1.07,6.11a25.26,25.26,0,0,0-.2,6.4,19.33,19.33,0,0,0,.8,3.74,11.63,11.63,0,0,1-2-1.18,9.82,9.82,0,0,1-2.36-2.45,9.41,9.41,0,0,1-1.34-3.24,18.57,18.57,0,0,1-.36-3.67,18.64,18.64,0,0,0-.39,3.75,10.56,10.56,0,0,0,.76,3.85,11,11,0,0,0,1.28,2.3,16.17,16.17,0,0,1-5.32-2.77,8.74,8.74,0,0,1-2.87-3.88.19.19,0,0,0,0-.07,6,6,0,0,1-.09-3.2,18.6,18.6,0,0,1,3-6.44c1.17-1.79,2.28-3.47,1.58-6a8.62,8.62,0,0,0-3-4c-.78-.71-1.6-1.44-1.6-1.94,0-.18.1-.71,1.12-1.68,5.17-5,9.46-7.16,13.91-7.16s8.74,2.21,13.91,7.15c1,1,1.13,1.51,1.12,1.69C90.21,34.77,89.39,35.5,88.61,36.21ZM75.18,96.84a22.11,22.11,0,0,0-2.51-3.75,12.63,12.63,0,0,0,2.6-2A12.88,12.88,0,0,0,77.73,93,21.77,21.77,0,0,0,75.18,96.84ZM86,72.08a26.64,26.64,0,0,0,.76,3A24.12,24.12,0,0,0,88,78.09a9.16,9.16,0,0,1-3.86,2.37,7.27,7.27,0,0,1-6.39-1.38,10.49,10.49,0,0,0,4.55-7A9.59,9.59,0,0,1,86,72.08ZM82.36,88.69a25.47,25.47,0,0,0-2.5,2.1,9.3,9.3,0,0,1-3.34-2.85,7.33,7.33,0,0,1-.66-6.54,11,11,0,0,0,6.51,2.32,9.4,9.4,0,0,0,1.54-.13A9.78,9.78,0,0,1,85.06,87,26.39,26.39,0,0,0,82.36,88.69ZM65.42,80.28a9.73,9.73,0,0,1-3.07-2.23,25,25,0,0,0,1.21-3,25.7,25.7,0,0,0,.75-2.93,9.34,9.34,0,0,1,4.55.32,7.31,7.31,0,0,1,4.36,4.88A10.52,10.52,0,0,0,65.42,80.28Zm14-9.41a7.27,7.27,0,0,1-3.3,5.67A10.48,10.48,0,0,0,70.9,70a10,10,0,0,1,1.19-3.65,26.15,26.15,0,0,0,3.09.2,25.09,25.09,0,0,0,3.14-.21A9.23,9.23,0,0,1,79.44,70.87ZM68,69.12A13,13,0,0,0,64.74,69a22.35,22.35,0,0,0-.16-4.79A22.28,22.28,0,0,0,69,65.84,12.74,12.74,0,0,0,68,69.12ZM60.86,80.79a12.42,12.42,0,0,0,2.8,2,12.3,12.3,0,0,0-1.08,2.93A22.28,22.28,0,0,0,58,84.38,23.09,23.09,0,0,0,60.86,80.79ZM65.37,87A9.22,9.22,0,0,1,67.05,83a7.32,7.32,0,0,1,6-2.65,10.47,10.47,0,0,0,.41,8.33,9.83,9.83,0,0,1-2.93,2.16A26,26,0,0,0,68,88.69,26.85,26.85,0,0,0,65.37,87Zm22.5-1.39a12.52,12.52,0,0,0-1.07-3,12.37,12.37,0,0,0,2.72-1.83,21.36,21.36,0,0,0,2.81,3.58A22,22,0,0,0,87.87,85.65ZM85.61,69a12.83,12.83,0,0,0-3.29.06,12.63,12.63,0,0,0-.94-3.2,22.76,22.76,0,0,0,4.4-1.61A22.62,22.62,0,0,0,85.61,69Zm-28-11.64a11.75,11.75,0,0,0,3.3,4.5,17.58,17.58,0,0,1,.78,7.46l-.13-.11a11.28,11.28,0,0,0-3.17-1.49A17.81,17.81,0,0,0,55.14,67a22.29,22.29,0,0,0-3.26-.14,22.77,22.77,0,0,1,3.09.87,16.24,16.24,0,0,1,2.83,1.32,8.9,8.9,0,0,1,2.3,1.82,5.07,5.07,0,0,1,1,1.75c0,.21-.12.43-.18.64a17.39,17.39,0,0,1-4.78.29,23,23,0,0,1-5.78-1.34c-1.92-.66-3.82-1.46-5.75-2.2a55.57,55.57,0,0,0-5.89-1.94,56.71,56.71,0,0,1,5.58,2.62c1.81,1,3.6,2,5.48,2.91a25.39,25.39,0,0,0,6,2.17,19.49,19.49,0,0,0,3.82.39A11.85,11.85,0,0,1,57.9,77.7a9.89,9.89,0,0,1-3.06,1.49,9.51,9.51,0,0,1-3.5.28,18.3,18.3,0,0,1-3.6-.8,18.46,18.46,0,0,0,3.45,1.53,10.52,10.52,0,0,0,3.89.47,10.83,10.83,0,0,0,2.58-.51,16.25,16.25,0,0,1-4.28,4.21A8.68,8.68,0,0,1,48.8,85.9h-.08a6,6,0,0,1-3-.9,18.59,18.59,0,0,1-5.22-4.79c-1.33-1.67-2.59-3.25-5.24-3.37a8.61,8.61,0,0,0-4.69,1.58c-.92.53-1.86,1.08-2.35.93-.17,0-.64-.31-1.25-1.58C23.81,71.31,23,66.54,24.41,62.32s4.8-7.63,11.11-11c1.24-.67,1.77-.6,1.94-.54.48.16.93,1.16,1.35,2.13a8.6,8.6,0,0,0,2.87,4c2.21,1.46,4.16.93,6.22.36a18.75,18.75,0,0,1,7-.81A6.11,6.11,0,0,1,57.62,57.33ZM104.69,85a5.94,5.94,0,0,1-2.72.88,11.68,11.68,0,0,0-5.25-1.69,17.61,17.61,0,0,1-5-5.59h.17a11,11,0,0,0,3.44-.66,17,17,0,0,0,3-1.38A22.8,22.8,0,0,0,101,74.77a20.9,20.9,0,0,1-3,1.1,15.89,15.89,0,0,1-3.07.61A9.41,9.41,0,0,1,92,76.36a5.27,5.27,0,0,1-1.86-.82L90,74.91a17.49,17.49,0,0,1,3.7-3,23.13,23.13,0,0,1,5.46-2.32c1.94-.59,4-1.06,6-1.6a54.69,54.69,0,0,0,5.9-1.88,57.05,57.05,0,0,1-6,1.15c-2,.29-4.08.51-6.15.87a25.17,25.17,0,0,0-6.15,1.78A19.31,19.31,0,0,0,89.3,71.8a12,12,0,0,1,.51-2.25,9.87,9.87,0,0,1,1.6-3,9.4,9.4,0,0,1,2.67-2.29,18.57,18.57,0,0,1,3.38-1.47,18.56,18.56,0,0,0-3.69.79,10.59,10.59,0,0,0-3.43,1.91,10.88,10.88,0,0,0-1.78,1.93,16.42,16.42,0,0,1,1-5.92,8.77,8.77,0,0,1,2.81-3.93l.07,0a6,6,0,0,1,3-1.07,18.75,18.75,0,0,1,7,.81c2.06.57,4,1.1,6.22-.36a8.6,8.6,0,0,0,2.87-4c.42-1,.87-2,1.35-2.13.17-.07.7-.13,1.94.54,6.31,3.4,9.73,6.79,11.1,11s.61,9-2.5,15.44c-.61,1.27-1.08,1.53-1.25,1.58-.49.15-1.43-.4-2.35-.93a8.45,8.45,0,0,0-4.69-1.58c-2.65.12-3.91,1.7-5.24,3.37A18.59,18.59,0,0,1,104.69,85Z"/></svg>