<svg id="expanded" xmlns="http://www.w3.org/2000/svg" viewBox="0 0 150 150"><title>Rose-bold</title><path d="M21.53,75.92c-2.78,3.2-2.82,7.85-.1,13.84a58.71,58.71,0,0,0,11.4,16C37.06,110,43.46,115,49.94,115h.5c5.53,6.44,15.24,10.32,28.94,11.55,7.53.68,13,1,17.08,1,6.2,0,9.82-.72,12.51-2.5,3.52-2.31,4.26-5.68,4.75-7.91a14.25,14.25,0,0,1,.65-2.34,53.72,53.72,0,0,0,3.13-14.06c4.11-4.76,5.86-11.59,7.43-17.71.87-3.42,1.86-7.29,2.89-8.71a8.64,8.64,0,0,0,1.53-6.72,11.89,11.89,0,0,0-4.13-6.55,13.28,13.28,0,0,0,0-6.45c-1.57-6.3-7.19-11.44-14.7-13.47-1.26-.76-4.37-3.88-6.46-6C96.37,27.48,90.89,22.43,85,22.43h0a9.08,9.08,0,0,0-4.64,1.24,38.91,38.91,0,0,1-7.56,2.63c-6,1.72-13.47,3.83-19.9,8.8-2.63.3-5.08.63-7.19.93l-3.57.53-2.61.38c-2.83.39-6.68,2.37-9,9.53a50.46,50.46,0,0,0-1.79,18.78,44.4,44.4,0,0,0,1,6.49A11.72,11.72,0,0,0,21.53,75.92ZM98.39,41.2l.34.34A20.47,20.47,0,0,0,93,40.28a42.37,42.37,0,0,0-12.61.85c-3.72-2.24-10.11-2.78-17.56-2.44A70,70,0,0,1,75,34.36c3.75-1.06,7-2,9.43-3.42S94.32,37.13,98.39,41.2Zm13,46.38a7.2,7.2,0,0,0-4-3c0-.27,0-.55.06-.82,3.05-6.29.69-16.44-1.8-25.39,1.83,1.2,3.84,2.38,5.84,3.54,4,2.35,9.54,5.56,10,7.53a.64.64,0,0,1-.17.58c-1.9,2.64-3,6.89-4.14,11.39-1,3.94-2.11,8.23-3.82,11.54A13.42,13.42,0,0,0,111.43,87.58Zm-8.52,31.84c-3.38.81-10.41.68-22.81-.44-17.16-1.55-23.38-7.29-25.57-11.83a12.11,12.11,0,0,1-.71-8.61l.47.49a6.36,6.36,0,0,0,.25,6c2.65,4.63,10.3,7.3,20,7.3a59.16,59.16,0,0,0,7.36-.47c12.14-1.54,21.32-6.33,24.56-12.8a10.9,10.9,0,0,0,.12-9.78c.06-.23.11-.46.17-.69a3.33,3.33,0,0,1,1.35,1.2c2.93,4.31,1.22,16.35-1.18,22.43a21.09,21.09,0,0,0-1,3.57C105.4,118.15,105.24,118.85,102.91,119.42ZM89.18,44.13c6.32-.05,9.32,1.44,9.46,2,.06,2.23,1.06,5.74,2.32,10.18,1.47,5.16,3.25,11.45,3.81,16.87a10.88,10.88,0,0,0-2.87-2.62,8.25,8.25,0,0,0-1.48-6,18.94,18.94,0,0,0-8.53-7.13c-1-2.3-3.11-4.24-6.17-5.78a36.31,36.31,0,0,0-12.51-3.2C75.8,46.17,81.52,44.21,89.18,44.13ZM59.69,104.84A6.16,6.16,0,0,1,58,103.07a2.68,2.68,0,0,1-.12-.24C58.57,103.58,59.17,104.24,59.69,104.84Zm12.37-38c.12-.41.9-1,2.67-1.39,3.41-.76,7.11.37,8.27,2.53a4.13,4.13,0,0,1-.18,3.73c-1.4-2.57-4.31-4-7.95-3.73a19.91,19.91,0,0,0-2.45.27A2.13,2.13,0,0,1,72.06,66.79Zm25,.06c2.47,3.71-.9,7.38-6,11.32a7.6,7.6,0,0,0-2-3.4c-.92-1-1.71-1.9-1.71-5.61h0A7.25,7.25,0,0,0,86.52,66a9.09,9.09,0,0,0-4.79-4,7.15,7.15,0,0,1,4.4-1.63C90.15,60.27,94.34,62.72,97.09,66.85Zm3.31,7.58a8.47,8.47,0,0,1,2.91,5.33C104.42,86,101.18,94,98.55,96.6c-3.68,3.6-3.68,3.6-13.11,3.47L81,100c-7.79-.06-13.78-2.17-16.44-5.78a7,7,0,0,1-1.24-2.77,22.21,22.21,0,0,0,5.87,3.09,34.66,34.66,0,0,0,11.08,2.18,14.73,14.73,0,0,0,4.48-.63c7.38-.58,11.62-4,13.89-6.81a16.56,16.56,0,0,0,3.22-6.24L98,82.19a13.38,13.38,0,0,1-7.49,8.45,5.71,5.71,0,0,0-.07-3.38,5,5,0,0,0-1.79-2.38l1.57-1.12C93.66,81.29,98.07,78.13,100.4,74.43Zm-30.13,4.8a2.18,2.18,0,0,1-.56-1.84,20.71,20.71,0,0,0,3.66,2.4A3.23,3.23,0,0,1,70.27,79.23Zm9.08-3.09c-.31.29-.61.56-.91.81a2.32,2.32,0,0,1-1.2.08,5.63,5.63,0,0,1-.1-2.68,3.75,3.75,0,0,1,1-1.93,2.81,2.81,0,0,1,1.3,1.34A2.79,2.79,0,0,1,79.35,76.14Zm-6.12-2.62a9.41,9.41,0,0,0-.18,1.4A6.46,6.46,0,0,1,71,72.84a6.31,6.31,0,0,1,2.71-.78A8.83,8.83,0,0,0,73.23,73.52Zm7.42,6.79a5.16,5.16,0,0,0,1.13-.82,6.43,6.43,0,0,0,.68-.79,23.62,23.62,0,0,0,2.46-2.78,13,13,0,0,0,1.19,1.53,3.94,3.94,0,0,1,1.22,3.45,40.33,40.33,0,0,0-3.81,3L82,84a35.42,35.42,0,0,1-8-.19A15.5,15.5,0,0,0,80.65,80.31ZM68.08,67.75a6.59,6.59,0,0,0,.56,1.84A3.86,3.86,0,0,0,67,72a3.79,3.79,0,0,0,0,1.61,6.67,6.67,0,0,0-.63,7,2.27,2.27,0,0,1,.2.89c-.51-.22-1-.46-1.54-.72l-1.8,3.57a33.57,33.57,0,0,0,19,3.53c3.7-.23,4.15-.06,4.47.77A2.67,2.67,0,0,1,85.82,91c-1.1,1.12-4.79,3.35-15.29-.24-8.8-3-12.82-11.13-11.5-16.92C60,69.86,63.2,67.69,68.08,67.75ZM81,104l4.37,0c1.52,0,2.83,0,4,0,6.62,0,7.84-.59,12-4.65a7.41,7.41,0,0,0,.6-.64c-3.86,5.24-12.89,8.13-20.53,9.1a46.71,46.71,0,0,1-13.68-.12,11.58,11.58,0,0,0-.15-6.37A32.88,32.88,0,0,0,81,104ZM83.93,55.3a14.46,14.46,0,0,1,1.9,1.14,11.15,11.15,0,0,0-8.67,4.73,13.75,13.75,0,0,0-3.3.33,8.61,8.61,0,0,0-4.56,2.3C63,63.38,59,65.76,56.88,69c0-.15,0-.3,0-.43.47-6,5.41-14.67,8.16-15.63C68.32,51.76,77.9,52.27,83.93,55.3ZM54.82,74.94a16.2,16.2,0,0,0,2,9.12c-1.34-1.44-2.79-2.9-4.39-4.38l-2.72,2.93c9,8.32,13.59,16.51,14.38,21.2C62,101.3,58.39,97.36,52.23,91.25,46.27,85.34,44,78.13,46.07,72a12.19,12.19,0,0,1,7.56-7.69,22.49,22.49,0,0,0-.72,3.93C52.63,71.77,53.62,73.79,54.82,74.94ZM117,60.55c-1.11-.68-2.28-1.36-3.49-2.06-3.84-2.24-7.78-4.54-9.69-6.67a30.41,30.41,0,0,1-1.21-5.76,4.12,4.12,0,0,0-.11-.81c2.33,2.17,4.12,3.54,5.66,3.94,5.78,1.48,8.6,5.09,9.26,7.74A4.8,4.8,0,0,1,117,60.55ZM74.27,43.16c-2.74,1.29-4.89,3-5.93,5.23a17,17,0,0,0-4.6.74c-3.11,1.08-6.38,5.65-8.51,10.6a16.5,16.5,0,0,0-12.95,11,18.53,18.53,0,0,0-.92,7.46c-3.29-3-4.82-10.09-4.85-17,0-9.95,2.69-15.75,4.09-15.95l2.6-.38C49.87,43.86,65.61,41.5,74.27,43.16ZM39.41,81.75a8.91,8.91,0,0,0,3,1.52,28.05,28.05,0,0,0,7,10.82l1.33,1.32a15.92,15.92,0,0,0-.44,12c-3.32.29-8.67-3.2-14.09-9.38-7-8-9.63-15.31-8.65-16.45,1.84-2.1,3.75-1.59,6.73-.59A10.09,10.09,0,0,0,39.41,81.75Z"/></svg>