<svg id="expanded" xmlns="http://www.w3.org/2000/svg" viewBox="0 0 150 150"><title>ForgetMeNot-bold copia</title><path d="M49.61,112.57H50a12,12,0,0,0,6.71-2.21A21.76,21.76,0,0,0,62.25,121a28.77,28.77,0,0,0,19.61,8.36c.42,0,.83,0,1.22,0,9.33-.66,16.75-9.89,20-18.75a11.84,11.84,0,0,0,.08-7.39,22.43,22.43,0,0,0,2.44.13c12.93,0,21.83-11.57,23.78-19.39,2.26-9.08-4.23-19-11.67-24.78a11.93,11.93,0,0,0-7-2.36,21.77,21.77,0,0,0,1.61-12.72,28.34,28.34,0,0,0-11.82-18.16,17.47,17.47,0,0,0-9.4-2.51c-5.63,0-12.27,2.22-17.77,5.95a11.8,11.8,0,0,0-4.41,5.93,22.14,22.14,0,0,0-15.2-5.72c-7.13,0-13.85,3-17.33,5.89-7.18,6-7.75,17.86-5.12,26.91a11.89,11.89,0,0,0,4.28,6,21.78,21.78,0,0,0-8.79,9.34A28.38,28.38,0,0,0,25.6,99.38C29.12,108.06,40.19,112.25,49.61,112.57ZM72.06,42.05c.32-4.5,1.58-7.51,3.73-9,6.38-4.32,16.07-7.2,22.27-3.34a24.35,24.35,0,0,1,9.77,15.09A17.89,17.89,0,0,1,104,59.16,63.31,63.31,0,0,0,88.7,66c-1,.25-1.9.52-2.8.79a15.92,15.92,0,0,0,1.59-3.64c.68-2.32.45-3.9-.67-4.72-2-1.48-5.58,1.17-7.65,3.46C78.86,47.25,75.94,47.24,75,47.24c-1.17,0-2,1.08-2.64,2.75A43.15,43.15,0,0,1,72.06,42.05ZM60.65,104.54A63.38,63.38,0,0,0,69,90c.62-.76,1.22-1.52,1.79-2.27C71.1,90.83,72.38,95,75,95s3.83-4.22,4.16-7.29c6.26,8.26,9.29,9.83,10.8,9.83a2,2,0,0,0,1.24-.44c.94-.68,1-2,.52-3.76a43,43,0,0,1,4.88,6.28c2.37,3.81,3.12,7,2.24,9.43-2.62,7.25-8.76,15.28-16.05,15.79A24.27,24.27,0,0,1,66,118.39,17.87,17.87,0,0,1,60.65,104.54Zm-8.07-37A54.07,54.07,0,0,1,64.79,70.2a5.77,5.77,0,0,0,.68,1.3c.08.11.18.22.27.33a3,3,0,0,0-.41.09,5.27,5.27,0,0,0-1.33.64A57.24,57.24,0,0,1,52.58,67.51Zm44.76.06c-1.72,1.17-5.61,3-11.47,5a5.31,5.31,0,0,0-1.31-.64c-.14,0-.28-.06-.42-.1.09-.11.2-.2.29-.32a5.85,5.85,0,0,0,.7-1.3A56.53,56.53,0,0,1,97.34,67.57ZM65.86,79.78a2.67,2.67,0,0,1-1.35-1.58,2.72,2.72,0,0,1,1.75-3.43,2.69,2.69,0,0,1,.84-.14,2.63,2.63,0,0,1,1.23.3,2.74,2.74,0,0,1,1.36,1.59A2.74,2.74,0,0,1,67.94,80h0A2.74,2.74,0,0,1,65.86,79.78Zm19.36-3.66A2.74,2.74,0,0,1,84,79.79a2.73,2.73,0,0,1-3.66-1.19,2.74,2.74,0,0,1,1.19-3.67,2.79,2.79,0,0,1,2.08-.16A2.74,2.74,0,0,1,85.22,76.12Zm-13,6.94A2.73,2.73,0,1,1,75,85.78,2.72,2.72,0,0,1,72.22,83.06ZM82,69.73a2.69,2.69,0,0,1-1.78,1.09,2.75,2.75,0,0,1-2-.48,2.72,2.72,0,1,1,3.2-4.41A2.73,2.73,0,0,1,82,69.73Zm-13.5-3.8a2.72,2.72,0,0,1,4.29,2.63,2.72,2.72,0,1,1-4.29-2.63ZM75,88.78a5.36,5.36,0,0,0,1-.09,10.42,10.42,0,0,1-1,3,10.55,10.55,0,0,1-1-3A5.39,5.39,0,0,0,75,88.78Zm5.7-6.14c.13,0,.24.12.38.16a5.45,5.45,0,0,0,1.44.26,56.78,56.78,0,0,1,6.28,10.81c-1.64-1.27-4.62-4.39-8.28-9.35a5.36,5.36,0,0,0,.2-1.46C80.67,82.92,80.66,82.78,80.65,82.64Zm7.59-3.51a5.52,5.52,0,0,0,.21-1A10.54,10.54,0,0,1,91,80a10.63,10.63,0,0,1-3.14,0A7.52,7.52,0,0,0,88.24,79.13Zm-4.33-15a4.84,4.84,0,0,0-.75-.67,5.43,5.43,0,0,0-.87-.5,10.68,10.68,0,0,1,2.57-1.83A10.36,10.36,0,0,1,83.91,64.17Zm-8.74.6c-.09.12-.14.25-.22.38-.08-.13-.14-.26-.22-.38a6.11,6.11,0,0,0-1-1.07A56.8,56.8,0,0,1,75,51.27c.58,2,1.17,6.27,1.21,12.45A6,6,0,0,0,75.17,64.77ZM66.73,63.5a6.78,6.78,0,0,0-.75.67,10.55,10.55,0,0,1-.94-3A10.87,10.87,0,0,1,67.6,63,6.38,6.38,0,0,0,66.73,63.5ZM61.44,78.15a5.1,5.1,0,0,0,.22,1,4.93,4.93,0,0,0,.4.91,10.3,10.3,0,0,1-3.15,0A10.63,10.63,0,0,1,61.44,78.15Zm6,4.91a6.06,6.06,0,0,0,1.45-.26,3.17,3.17,0,0,0,.38-.17c0,.15,0,.29,0,.43a5.85,5.85,0,0,0,.2,1.46,56.47,56.47,0,0,1-8.33,9.3A54.59,54.59,0,0,1,67.42,83.06ZM98.78,97.57A62.3,62.3,0,0,0,87.55,85.19c-.53-.84-1.08-1.66-1.62-2.43a17.13,17.13,0,0,0,3.53.4h.42c2.41-.08,3.86-.78,4.28-2.1s-.34-2.74-2.28-4.23a16.58,16.58,0,0,0-3.37-2c13.85-4.82,13-7.6,12.65-8.55-.36-1.11-1.64-1.59-3.43-1.66a43.75,43.75,0,0,1,7.51-2.7c4.35-1.07,7.6-.81,9.64.78C121,67.45,126.71,75.77,125,82.85a24.35,24.35,0,0,1-11.34,14A17.82,17.82,0,0,1,98.78,97.57ZM70.85,59c-.06,1-.1,2-.12,2.91a16.64,16.64,0,0,0-3-2.64c-2-1.35-3.58-1.63-4.7-.82s-1.33,2.42-.64,4.77A16.25,16.25,0,0,0,64,66.82a73.74,73.74,0,0,0-8-1.93c-3.2-.55-6.56-.81-7.28,1.4-.36,1.11.4,2.25,1.79,3.35a43.3,43.3,0,0,1-7.65-2.21c-4.15-1.71-6.62-3.83-7.34-6.31-2.15-7.4-1.91-17.51,3.69-22.21A24.29,24.29,0,0,1,56.6,34.28a17.88,17.88,0,0,1,12.45,8.11A61.43,61.43,0,0,0,70.85,59ZM42.26,70.4a63.84,63.84,0,0,0,16.41,3.43c.92.36,1.83.7,2.71,1a16.5,16.5,0,0,0-3.42,2c-1.91,1.48-2.66,2.9-2.23,4.21s1.89,2,4.34,2.09h.38A16.78,16.78,0,0,0,64,82.75c-8.38,12-6,13.78-5.22,14.36a1.87,1.87,0,0,0,1.13.35,5.06,5.06,0,0,0,2.63-1A43,43,0,0,1,58,103c-2.89,3.42-5.68,5.14-8.26,5-7.71-.26-17.25-3.61-20-10.38a24.29,24.29,0,0,1,1-18A17.84,17.84,0,0,1,42.26,70.4Z"/></svg>