<svg id="expanded" xmlns="http://www.w3.org/2000/svg" viewBox="0 0 150 150"><title>Heliotrope-bold</title><path d="M61.62,49.47c-.72,2.21,1.73,3.9,3.69,5.26a9.9,9.9,0,0,1,1.89,1.49,8.86,8.86,0,0,1-.63,2.36c-.79,2.28-1.77,5.1.11,6.47a2.49,2.49,0,0,0,1.48.48c1.55,0,3.24-1.29,4.67-2.38a10.14,10.14,0,0,1,2-1.33,10.14,10.14,0,0,1,2,1.33C78.8,64.6,81.17,66.4,83.05,65s.89-4.16.1-6.42a10.15,10.15,0,0,1-.65-2.32,9.73,9.73,0,0,1,1.9-1.54c2-1.37,4.42-3.09,3.71-5.29S84.42,47.34,82,47.39a9.76,9.76,0,0,1-2.41-.1A9.13,9.13,0,0,1,78.75,45c-.7-2.3-1.58-5.16-3.89-5.16S71.69,42.7,71,45a10.18,10.18,0,0,1-.83,2.26,9.34,9.34,0,0,1-2.44.13C65.32,47.33,62.33,47.27,61.62,49.47Zm9.71-.59c.77-.56,1.13-1.77,1.59-3.31s1.11-3.72,1.94-3.72,1.55,2.34,2,3.74.84,2.75,1.6,3.31,2,.52,3.64.49c1.45,0,3.88-.09,4.13.7s-1.74,2.2-2.94,3-2.36,1.65-2.65,2.54.12,2.1.65,3.61,1.28,3.66.61,4.15-2.61-1-3.77-1.87-2.3-1.74-3.24-1.74-2,.77-3.24,1.74-3.1,2.35-3.77,1.87.13-2.81.61-4.19c.52-1.53.94-2.73.65-3.62S67.77,54,66.45,53.08s-3.19-2.2-2.93-3c.2-.63,1.79-.73,3.17-.73l1,0C69.29,49.41,70.57,49.43,71.33,48.88Z"/><path d="M70.38,52.84c-.09.84,1.88,1.6,2.05,2.12.11.34-.34,1.23-.51,2l-2.39,4.18,2.78-3c.79.13,2.06-1.51,2.55-1.32.49-.19,1.78,1.47,2.56,1.32l2.78,3-2.41-4.23c-.18-.73-.6-1.57-.5-1.9.17-.52,2.15-1.3,2-2.14L83.49,51l-6.06,1.26a2.19,2.19,0,0,1-1.06-.11c-.34-.25-.5-1.59-.94-2.25l-.57-5.16-.57,5.16c-.43.66-.58,2-.93,2.24a2.25,2.25,0,0,1-1.12.12l-6-1.25Z"/><path d="M56,83.3a9.76,9.76,0,0,1-2.41-.1,9.13,9.13,0,0,1-.87-2.28c-.7-2.3-1.57-5.16-3.89-5.16s-3.17,2.85-3.85,5.15a10.49,10.49,0,0,1-.84,2.25,8.91,8.91,0,0,1-2.44.13c-2.41-.05-5.4-.11-6.11,2.1s1.73,3.89,3.69,5.25a9.9,9.9,0,0,1,1.89,1.49,9,9,0,0,1-.63,2.37c-.79,2.27-1.77,5.1.11,6.46a2.42,2.42,0,0,0,1.48.48c1.55,0,3.24-1.29,4.68-2.37a9.57,9.57,0,0,1,2-1.34,9.84,9.84,0,0,1,2,1.34c1.91,1.44,4.29,3.24,6.16,1.89s.89-4.17.1-6.43a10.1,10.1,0,0,1-.65-2.31,9.38,9.38,0,0,1,1.9-1.54c2-1.38,4.42-3.09,3.71-5.29S58.34,83.25,56,83.3ZM57.18,89c-1.32.92-2.36,1.65-2.65,2.54s.12,2.1.65,3.61,1.28,3.66.61,4.15-2.61-1-3.77-1.87-2.29-1.74-3.24-1.74-2,.77-3.23,1.74-3.11,2.35-3.78,1.87.13-2.81.61-4.19.94-2.73.65-3.62S41.69,89.91,40.37,89s-3.19-2.2-2.93-3c.2-.63,1.8-.72,3.17-.72h1c1.61,0,2.88,0,3.64-.5s1.13-1.77,1.59-3.31,1.11-3.72,1.94-3.72,1.55,2.34,2,3.74.84,2.76,1.6,3.31,2,.52,3.64.49c1.45,0,3.88-.08,4.13.7S58.38,88.2,57.18,89Z"/><path d="M50.29,88c-.34-.25-.5-1.59-.94-2.25l-.57-5.16-.57,5.16c-.43.67-.58,2-.92,2.25a2.45,2.45,0,0,1-1.13.11l-6-1.25,4.14,1.87c-.09.84,1.88,1.6,2.05,2.12.11.34-.34,1.23-.51,2L43.46,97l2.77-3c.79.13,2.06-1.51,2.55-1.32.49-.19,1.78,1.47,2.57,1.32l2.77,3-2.41-4.23c-.18-.73-.6-1.57-.49-1.9.17-.52,2.14-1.3,2.05-2.14l4.14-1.87-6.06,1.25A2.19,2.19,0,0,1,50.29,88Z"/><path d="M108.07,83.3a9.76,9.76,0,0,1-2.41-.1,9.13,9.13,0,0,1-.87-2.28c-.7-2.3-1.57-5.16-3.89-5.16s-3.17,2.85-3.85,5.15a10,10,0,0,1-.84,2.25,8.91,8.91,0,0,1-2.44.13c-2.41-.05-5.4-.11-6.11,2.1s1.73,3.89,3.69,5.25a9.9,9.9,0,0,1,1.89,1.49,9,9,0,0,1-.63,2.37c-.79,2.27-1.77,5.1.11,6.46a2.44,2.44,0,0,0,1.48.48c1.55,0,3.24-1.29,4.68-2.37a9.57,9.57,0,0,1,2-1.34,9.84,9.84,0,0,1,2,1.34c1.91,1.44,4.29,3.24,6.16,1.89s.89-4.17.1-6.43a10.1,10.1,0,0,1-.65-2.31,9.38,9.38,0,0,1,1.9-1.54c2-1.38,4.42-3.09,3.71-5.29S110.46,83.25,108.07,83.3ZM109.3,89c-1.32.92-2.36,1.65-2.65,2.54s.12,2.1.65,3.61,1.28,3.66.61,4.15-2.61-1-3.77-1.87-2.29-1.74-3.24-1.74-2,.77-3.23,1.74-3.11,2.35-3.78,1.87.13-2.81.61-4.19.94-2.73.65-3.62S93.81,89.91,92.49,89s-3.19-2.2-2.93-3c.2-.63,1.8-.72,3.17-.72h1c1.61,0,2.88,0,3.64-.5S98.5,83,99,81.48s1.11-3.72,1.94-3.72,1.55,2.34,2,3.74.84,2.76,1.6,3.31,2,.52,3.64.49,3.88-.08,4.14.7S110.5,88.2,109.3,89Z"/><path d="M102.41,88c-.34-.25-.5-1.59-.94-2.25l-.57-5.16-.57,5.16c-.43.67-.58,2-.92,2.25a2.45,2.45,0,0,1-1.13.11l-6-1.25,4.14,1.87c-.09.84,1.88,1.6,2,2.12.11.34-.34,1.23-.51,2L95.58,97l2.77-3c.79.13,2.06-1.51,2.55-1.32.49-.19,1.78,1.47,2.57,1.32l2.77,3-2.41-4.23c-.18-.73-.6-1.57-.49-1.9.17-.52,2.14-1.3,2-2.14l4.14-1.87-6.06,1.25A2.19,2.19,0,0,1,102.41,88Z"/><path d="M127.76,81a11.59,11.59,0,0,0-11.39-8.13,14,14,0,0,0-3.42.43A14,14,0,0,0,111,67.17a11.46,11.46,0,0,0-10-5.62,11.76,11.76,0,0,0-5.42,1.27,13.83,13.83,0,0,0-1.32-2.74,13.77,13.77,0,0,0,5.88-4.54,11.38,11.38,0,0,0,1.58-10.46A11.6,11.6,0,0,0,90.32,37a14.47,14.47,0,0,0-3.41.42A13.9,13.9,0,0,0,85,31.26a11.77,11.77,0,0,0-20.06,0,13.79,13.79,0,0,0-1.89,6.1,14.09,14.09,0,0,0-3.38-.41A11.65,11.65,0,0,0,48.2,45.08a11.3,11.3,0,0,0,1.56,10.41A13.47,13.47,0,0,0,55.68,60a14.26,14.26,0,0,0-1.35,2.81,11.77,11.77,0,0,0-5.45-1.28,11.42,11.42,0,0,0-10,5.6A13.82,13.82,0,0,0,37,73.25a14.23,14.23,0,0,0-3.39-.41A11.65,11.65,0,0,0,22.12,81a11.32,11.32,0,0,0,1.56,10.42,13.65,13.65,0,0,0,5.88,4.51,13.86,13.86,0,0,0-2,6.08,11.45,11.45,0,0,0,4.82,10.45,11.59,11.59,0,0,0,6.84,2.31,13.08,13.08,0,0,0,9.7-4.78,13.08,13.08,0,0,0,9.7,4.78,11.62,11.62,0,0,0,6.84-2.31A11.4,11.4,0,0,0,70.23,102,13.77,13.77,0,0,0,68.17,96a13.8,13.8,0,0,0,5.89-4.54A11.45,11.45,0,0,0,74.94,90a12.49,12.49,0,0,0,.86,1.37,13.65,13.65,0,0,0,5.88,4.51,13.86,13.86,0,0,0-2,6.08,11.45,11.45,0,0,0,4.82,10.45,11.59,11.59,0,0,0,6.84,2.31A13.08,13.08,0,0,0,101,110a13.08,13.08,0,0,0,9.7,4.78,11.59,11.59,0,0,0,6.84-2.31A11.4,11.4,0,0,0,122.35,102,13.77,13.77,0,0,0,120.29,96a13.8,13.8,0,0,0,5.89-4.54A11.38,11.38,0,0,0,127.76,81ZM114,92.42a1.5,1.5,0,0,0-.92,2.83,9.12,9.12,0,0,1,4.73,7.18,7.27,7.27,0,0,1-10,7.24,9.17,9.17,0,0,1-5.39-6.72,1.5,1.5,0,0,0-3,0,9.2,9.2,0,0,1-5.4,6.72,7.29,7.29,0,0,1-10-7.29,9.2,9.2,0,0,1,4.71-7.23,1.5,1.5,0,0,0-.92-2.83,9.15,9.15,0,0,1-8-3,7.27,7.27,0,0,1,3.84-11.74,9.19,9.19,0,0,1,8.33,2.25,1.5,1.5,0,0,0,2.4-1.75,9.17,9.17,0,0,1,.4-8.59,7.27,7.27,0,0,1,12.35,0,9.18,9.18,0,0,1,.44,8.62,1.5,1.5,0,0,0,2.4,1.74,9.17,9.17,0,0,1,8.3-2.28A7.28,7.28,0,0,1,122,89.34,9.2,9.2,0,0,1,114,92.42Zm-52.12,0a1.5,1.5,0,0,0-.92,2.83,9.12,9.12,0,0,1,4.73,7.18,7.27,7.27,0,0,1-10,7.24A9.17,9.17,0,0,1,50.27,103a1.5,1.5,0,0,0-3,0,9.2,9.2,0,0,1-5.4,6.72,7.29,7.29,0,0,1-10-7.29,9.2,9.2,0,0,1,4.71-7.23,1.5,1.5,0,0,0-.92-2.83,9.15,9.15,0,0,1-8-3,7.27,7.27,0,0,1,3.84-11.74,9.19,9.19,0,0,1,8.33,2.25,1.5,1.5,0,0,0,2.4-1.75,9.17,9.17,0,0,1,.4-8.59A7.27,7.27,0,0,1,55,69.5a9.18,9.18,0,0,1,.44,8.62,1.5,1.5,0,0,0,2.4,1.74,9.17,9.17,0,0,1,8.3-2.28,6.83,6.83,0,0,1,5.15,4.8,6.9,6.9,0,0,1-1.36,7A9.2,9.2,0,0,1,61.84,92.42ZM68.3,42.15a9.17,9.17,0,0,1,.4-8.59,7.27,7.27,0,0,1,12.35,0,9.19,9.19,0,0,1,.44,8.62A1.5,1.5,0,0,0,83.89,44a9.15,9.15,0,0,1,8.3-2.28,6.83,6.83,0,0,1,5.15,4.8,6.91,6.91,0,0,1-1.36,7,9.2,9.2,0,0,1-8.06,3.08A1.5,1.5,0,0,0,87,59.34a9.15,9.15,0,0,1,4.73,7.18,7.15,7.15,0,0,1-.39,3.1l0,.06a7,7,0,0,1-2.55,3.22,6.86,6.86,0,0,1-7,.85A9.15,9.15,0,0,1,76.35,67a1.51,1.51,0,0,0-1.49-1.29A1.49,1.49,0,0,0,73.38,67,9.19,9.19,0,0,1,68,73.75a6.82,6.82,0,0,1-7-.85,6.91,6.91,0,0,1-3-6.43,9.2,9.2,0,0,1,4.71-7.23,1.5,1.5,0,0,0-.92-2.83,9.15,9.15,0,0,1-8.05-3,7.27,7.27,0,0,1,3.85-11.73A9.19,9.19,0,0,1,65.9,43.9a1.51,1.51,0,0,0,2,.16A1.48,1.48,0,0,0,68.3,42.15Zm-9.06,33.2Zm13.51.84A13.87,13.87,0,0,0,75,74.08a13.65,13.65,0,0,0,2.21,2.09,11.5,11.5,0,0,0-2.24,3.1A11.39,11.39,0,0,0,72.75,76.19Z"/></svg>