<svg id="expanded" xmlns="http://www.w3.org/2000/svg" viewBox="0 0 150 150"><title>Pansy-bold</title><path d="M85.62,89.06C81.78,87.57,77,85.72,77,83.24H73c0,2.48-4.78,4.33-8.62,5.82-4.58,1.76-8.9,3.43-8.57,7.12l4-.3c.3-.88,3.88-2.26,6-3.09,3.35-1.3,7-2.71,9.18-4.92,2.19,2.21,5.83,3.62,9.18,4.92,2.15.83,5.73,2.21,6,3.09v0l4,.34C94.52,92.49,90.2,90.82,85.62,89.06Z"/><path d="M17.06,83.41a25.08,25.08,0,0,0,17.29,14.2,21.1,21.1,0,0,0-.55,4.32c-.25,10.63,3.82,17.08,7.28,20.61A20.49,20.49,0,0,0,55.5,129a13.12,13.12,0,0,0,7.65-2.26c2.32,2,6.06,4.92,11.81,4.92s9.5-3,11.82-4.92A13.14,13.14,0,0,0,94.43,129a20.49,20.49,0,0,0,14.42-6.45c3.46-3.53,7.53-10,7.28-20.61a21.1,21.1,0,0,0-.55-4.31,25,25,0,0,0,17.3-14.17c3.37-7.61,2.49-16.2-2.2-21.38l-.26-.3c2.18-6.61-1.69-11.32-9.66-17.28a17,17,0,0,0-2.28-9.92c-3.34-6-9.33-9.86-15.24-9.86a13.85,13.85,0,0,0-3.08.35l-.17,0c-.76,0-2.83-1.68-4.34-2.9C91.49,18.84,85.2,13.76,75,13.76s-16.53,5.08-20.69,8.43c-1.51,1.23-3.58,2.9-4.34,2.9l-.16,0a13.92,13.92,0,0,0-3.08-.35c-5.91,0-11.9,3.87-15.24,9.86a17,17,0,0,0-2.28,9.92c-8,6-11.84,10.67-9.66,17.28l-.26.3C14.57,67.24,13.69,75.82,17.06,83.41ZM27.24,59.52c-.49-1.3-1.09-2.91,7.89-9.45,6.69-4.87,13.68-3.33,18.35-1.17C63.44,53.48,72.16,65,73,74.67c0,.39-.54.84-1.35,1.33-3.37-9-15-15.53-21.44-14.86l.43,4c4.47-.48,14.85,5.09,17.4,12.62l-.32.12c-3.31-3-8.23-4.77-13.79-4.92-6.87-.17-13.58,2.16-17.54,6.1l2.82,2.84c3.21-3.2,8.81-5.07,14.61-4.94a19,19,0,0,1,9.51,2.59l-.32.12c-6.73,2.45-15,5.49-20.23,10.86-12,.23-16.73-6.87-18.21-10-2.25-4.78-2-10.15.65-13.06C28.47,63.85,28,61.56,27.24,59.52Zm12-22.27c2-2.74,5.44-5.15,8.77-4.39,4.53,1,7.83-1.62,11.33-4.44,3.86-3.13,8.24-6.66,15.66-6.66s11.8,3.53,15.66,6.66c3.5,2.82,6.8,5.49,11.33,4.44,3.32-.76,6.8,1.65,8.77,4.39a9.38,9.38,0,0,1,2,7.09c-5.47-2.22-11.66-1.94-17.88.92a36.67,36.67,0,0,0-8,5.19c3.12-4.07,6.58-7.08,8.12-7.79L93.25,39C89.67,40.66,78.83,50.93,77,61.94V35.83H73V62C71.19,51,60.33,40.66,56.74,39l-1.66,3.64c1.55.71,5,3.71,8.11,7.77a36.46,36.46,0,0,0-8-5.17c-6.22-2.86-12.41-3.14-17.88-.92A9.38,9.38,0,0,1,39.24,37.25Zm85.55,30.2c2.64,2.92,2.92,8.31.66,13.1-1.48,3.12-6.19,10.22-18.22,10C102,85.14,93.73,82.1,87,79.65l-.65-.24a19.24,19.24,0,0,1,9.49-2.54c6-.16,11.7,1.77,15,5L113.62,79c-4-4-10.86-6.34-17.88-6.16-5.58.14-10.5,1.9-13.78,4.85l-.12,0c2.55-7.51,13-13,17.53-12.56l.43-4c-6.46-.68-18.17,5.78-21.57,14.78C77.5,75.47,77,75,77,74.67,77.84,65,86.56,53.48,96.52,48.9c4.68-2.16,11.66-3.7,18.35,1.17,9,6.54,8.38,8.15,7.89,9.45C122,61.56,121.53,63.85,124.79,67.45ZM82,120.34c-1.9,1.63-3.87,3.31-7,3.31s-5.08-1.68-7-3.31c-1.32-1.13-3.05-2.61-5.06-2.61a5.35,5.35,0,0,0-4,2.09c-1.1,1.21-4,1.71-7.4.35-2.37-.94-10.07-5-9.76-18C42.08,91.53,54.44,87,64.37,83.41,69,81.72,72.81,80.33,75,78.49c2.19,1.84,6,3.23,10.63,4.92,9.93,3.62,22.29,8.12,22.53,18.71.31,13-7.4,17.11-9.76,18-3.41,1.37-6.3.86-7.4-.35C87.33,115.78,84.11,118.52,82,120.34Z"/></svg>