<svg id="expanded" xmlns="http://www.w3.org/2000/svg" viewBox="0 0 150 150"><title>Goldenrod-bold</title><path d="M128,75.59a3,3,0,0,0-.68-2.24,2,2,0,0,0-.19-.21c.08-.29.13-.52.16-.68a3.06,3.06,0,0,0-1.54-3.22A3.08,3.08,0,0,0,125,68a3,3,0,0,0-1.6-.81A3.09,3.09,0,0,0,121,66.06a3,3,0,0,0-.66.07l-.1,0a3.16,3.16,0,0,0-.44-2.06h0c.12-.13.24-.28.36-.43a3.18,3.18,0,0,0,.66-2.36,3.12,3.12,0,0,0-1.21-2.14,2.51,2.51,0,0,0-.53-.34,8.15,8.15,0,0,0,0-1.13,3.19,3.19,0,0,0-2.53-3A3.19,3.19,0,0,0,113.76,53l-.38,0a3.21,3.21,0,0,0-3.54-.56,6.34,6.34,0,0,0-.92.53,2.93,2.93,0,0,0-.39-.21,3.15,3.15,0,0,0-1.34-.3,3.23,3.23,0,0,0-2,.72,3.23,3.23,0,0,0-1-.73c0-.18,0-.37,0-.56a3.21,3.21,0,0,0-.78-2.33,3.14,3.14,0,0,0-2.2-1.09H101l-.41,0a7.87,7.87,0,0,0-.6-1,3.2,3.2,0,0,0-3.78-1.09A3.14,3.14,0,0,0,94.7,46h-.16a3.15,3.15,0,0,0-1.94.78,2.89,2.89,0,0,0-.5,0,3.14,3.14,0,0,0-1.29.27,2.6,2.6,0,0,0-.5-.39c0-.11,0-.22,0-.34a3.15,3.15,0,0,0-2.68-3.51l-.42,0h0a8.45,8.45,0,0,0-.43-.78,3.12,3.12,0,0,0-2.63-1.44,2.76,2.76,0,0,0-.86.13,3.11,3.11,0,0,0-1.51-.42h0a3.1,3.1,0,0,0-1.79.57,2.76,2.76,0,0,0-.57-.06,3.09,3.09,0,0,0-2.56,1.34,4.28,4.28,0,0,0-.43.72l-.26,0A3.13,3.13,0,0,0,74,44a3.07,3.07,0,0,0-.69,2.29c0,.08,0,.15,0,.21a3.11,3.11,0,0,0-1.05,1.22A3.18,3.18,0,0,0,72,49.21h-.27l-.4,0a7.55,7.55,0,0,0-.61-1A3.21,3.21,0,0,0,67,47.17a3.13,3.13,0,0,0-1.53-.38h-.15a3.14,3.14,0,0,0-1.94.78,2.74,2.74,0,0,0-.5,0,3.23,3.23,0,0,0-2.75,1.55,6.26,6.26,0,0,0-.46,1,2.3,2.3,0,0,0-.45.05,3.13,3.13,0,0,0-2.08,1.29,3.18,3.18,0,0,0-.56,2.39,2.45,2.45,0,0,0,.08.39,3.19,3.19,0,0,0-1.37,2.92h0a3.23,3.23,0,0,0-1.55-.76,3.81,3.81,0,0,0-.59,0,3.2,3.2,0,0,0-1.48.36,3.3,3.3,0,0,0-1.21-.24,3.23,3.23,0,0,0-2.3,1,6.73,6.73,0,0,0-.68.82,3,3,0,0,0-.43-.06h-.22a3.24,3.24,0,0,0-3.21,3c0,.13,0,.27,0,.39a3.2,3.2,0,0,0-2,3.53,6.13,6.13,0,0,0,.81,2.07l-.08.13a3.21,3.21,0,0,0,.88,4.45,5.38,5.38,0,0,0,1.92.74l.25,0a7.22,7.22,0,0,0,1.07,1.07,3.22,3.22,0,0,0-2.74,2.56,6.1,6.1,0,0,0,0,2.23l-.14.09a3.23,3.23,0,0,0-.74,4.48,5.26,5.26,0,0,0,1.53,1.37l.21.12a8.12,8.12,0,0,0,7.69,5.55,8.78,8.78,0,0,0,1.35-.11c.09.07.18.12.27.18a5.52,5.52,0,0,0,2.37.8h.22a3.2,3.2,0,0,0,3.17-2.75,7.59,7.59,0,0,0,1.8-.74,3.22,3.22,0,0,0,1-4.39l.36-.43.16-.24a4.83,4.83,0,0,0,1.45-.41l.22-.11a8.11,8.11,0,0,0,9.65-4.27l.31-.12a5.54,5.54,0,0,0,2-1.47,3.22,3.22,0,0,0,.58-3,5.53,5.53,0,0,0,1.46-.49l.22-.11a8.49,8.49,0,0,0,2,.25,8.1,8.1,0,0,0,7.45-4.92l.3-.14a5.37,5.37,0,0,0,2-1.56,3.11,3.11,0,0,0,.62-1.59,8.08,8.08,0,0,0,3.86,1h.39a8,8,0,0,0,4.49-1.63,3.48,3.48,0,0,0,.22.36,5,5,0,0,0,1.52,1.37l.22.13a8.11,8.11,0,0,0,7.69,5.54,7.39,7.39,0,0,0,1.33-.11,3,3,0,0,0-.59,3.28,4.66,4.66,0,0,0,1.06,1.5l0,0a7,7,0,0,0,6.43,6.12l.07.07a4.84,4.84,0,0,0,1.92,1.16,3.13,3.13,0,0,0,.86.12,3.06,3.06,0,0,0,2.74-1.7,5.14,5.14,0,0,0,1.4-.28,3,3,0,0,0,2-3.53l.14-.1A3.09,3.09,0,0,0,128,75.59Zm-7.83,3.12-.59.27.4.5a1.75,1.75,0,0,0,.79.6.19.19,0,0,1,.11.23.15.15,0,0,1-.2.11A1.91,1.91,0,0,1,120,80a2.74,2.74,0,0,1-.48-.64l-.17-.29-.33,0a4.14,4.14,0,0,1-4.68-4.42l0-.32-.28-.15a2.66,2.66,0,0,1-.61-.44,1.63,1.63,0,0,1-.41-.55.17.17,0,0,1,.09-.23.19.19,0,0,1,.13,0,.16.16,0,0,1,.09.09,1.65,1.65,0,0,0,.47.55l.53.44.25-.64a4.1,4.1,0,0,1,.36-.69l.14-.22-.1-.25a3.25,3.25,0,0,1-.11-2.35c0-.06.07-.09.1-.09a.14.14,0,0,1,.13,0,.13.13,0,0,1,.09.09.19.19,0,0,1,0,.15,2.49,2.49,0,0,0-.11,1.32l.13.84.67-.53a4.24,4.24,0,0,1,1-.57l.38-.15-.09-.5a1.94,1.94,0,0,1,.53-1.83.14.14,0,0,1,.12-.07.17.17,0,0,1,.13,0,.22.22,0,0,1,.07.12.21.21,0,0,1,0,.13,1.63,1.63,0,0,0-.46,1.57l.08.45.46,0a3.58,3.58,0,0,1,.73,0l.44,0,.09-.44a1.12,1.12,0,0,1,.08-.26A2.51,2.51,0,0,1,121,69a.18.18,0,0,1,.21.13.22.22,0,0,1,0,.13.24.24,0,0,1-.12.08s-1.09.26-1.38.93a.94.94,0,0,0-.07.28l0,.38.36.13a4.37,4.37,0,0,1,.92.5l.35.25,1.59-1.65a.18.18,0,0,1,.24,0,.19.19,0,0,1,0,.24l-1.59,1.66.26.34a4.17,4.17,0,0,1,.59,1l.13.33h.35a.87.87,0,0,0,.36-.08c.76-.36,1-1.67,1-1.72a.16.16,0,0,1,.2-.14.18.18,0,0,1,.14.2c0,.06-.29,1.53-1.22,2a1.24,1.24,0,0,1-.31.1l-.45.08,0,.45a3.86,3.86,0,0,1,0,.68l0,.52.71,0a2.05,2.05,0,0,0,1.67-.61.13.13,0,0,1,.12,0,.15.15,0,0,1,.12.06.19.19,0,0,1,0,.13.15.15,0,0,1-.06.12,2.42,2.42,0,0,1-1.91.69,1.61,1.61,0,0,0-.61,0l-.24.06-.09.23a4.19,4.19,0,0,1-.57,1l-.47.6.73.2a3.47,3.47,0,0,0,1.82,0,.18.18,0,0,1,.12.33,4,4,0,0,1-2.7-.25l-.25-.12-.24.15A4.29,4.29,0,0,1,120.2,78.71ZM91,60.56l-.3.1a3.38,3.38,0,0,1-.94.18,2.72,2.72,0,0,1-.89-.1.33.33,0,0,1-.19-.43.35.35,0,0,1,.17-.19.39.39,0,0,1,.28,0,2.12,2.12,0,0,0,.81,0l.67-.09-.29-.62a5.33,5.33,0,0,1-.33-.92L90,58.27l-.25-.09a4.06,4.06,0,0,1-2.26-2,.28.28,0,0,1,0-.25.27.27,0,0,1,.18-.18.31.31,0,0,1,.25,0,.41.41,0,0,1,.19.2,3.12,3.12,0,0,0,1,1.16l.71.49.08-.85a5.08,5.08,0,0,1,.32-1.41l.13-.38-.42-.28a2.54,2.54,0,0,1-1.25-2.12.35.35,0,0,1,.06-.24A.37.37,0,0,1,89,52.2a.34.34,0,0,1,.38.28c.18,1.11.49,1.37,1,1.67l.38.25L91,54a5.89,5.89,0,0,1,.63-.68l.32-.3-.25-.36a1.14,1.14,0,0,1-.18-.32,3.25,3.25,0,0,1,.37-2.53.34.34,0,0,1,.46-.11.31.31,0,0,1,.15.2.32.32,0,0,1,0,.25,2.63,2.63,0,0,0-.33,1.94,1,1,0,0,0,.17.26l.25.28.34-.16a5.32,5.32,0,0,1,1.26-.41l.42-.08-.13-2.73a.38.38,0,0,1,.09-.24.33.33,0,0,1,.23-.1A.33.33,0,0,1,95,49a.33.33,0,0,1,.1.23L95.2,52l.43,0a5.14,5.14,0,0,1,1.45.36l.33.13.23-.27a1.17,1.17,0,0,0,.21-.35c.3-.93-.64-2.26-.65-2.27a.33.33,0,1,1,.53-.39c0,.06,1.16,1.6.75,2.86a2.05,2.05,0,0,1-.19.4l-.25.37.36.29a4.93,4.93,0,0,1,.62.58l.35.39.54-.54a2.41,2.41,0,0,0,.82-1.93.38.38,0,0,1,.11-.23.27.27,0,0,1,.24-.08.38.38,0,0,1,.23.11.33.33,0,0,1,.08.25,3,3,0,0,1-1,2.36,2.26,2.26,0,0,0-.45.56l-.12.22.1.22a5.05,5.05,0,0,1,.42,1.39l.11.75.65-.4a4.06,4.06,0,0,0,1.49-1.57.33.33,0,1,1,.61.27,5.05,5.05,0,0,1-2.57,2.26l-.26.11,0,.27a7.44,7.44,0,0,1-.2.78l-.21.61.64.05a2.09,2.09,0,0,0,1.14-.18.35.35,0,0,1,.45.13A.33.33,0,0,1,102,60a2.63,2.63,0,0,1-1.1.27,3.74,3.74,0,0,1-1-.11l-.32-.08-.2.27a5.24,5.24,0,0,1-8.11.46ZM45.28,80.81a.28.28,0,0,1,.25-.06.28.28,0,0,1,.2.12,1.92,1.92,0,0,0,.68.51l.61.31.11-.67a5.19,5.19,0,0,1,.24-1l.09-.24-.15-.22a4,4,0,0,1-.77-2.9.3.3,0,0,1,.14-.21.36.36,0,0,1,.25,0,.33.33,0,0,1,.25.42,3.26,3.26,0,0,0,.22,1.54l.31.8.54-.67a5.41,5.41,0,0,1,1.06-1l.3-.34-.17-.38a2.53,2.53,0,0,1,.15-2.45.32.32,0,0,1,.19-.17.31.31,0,0,1,.25,0,.32.32,0,0,1,.17.19.31.31,0,0,1,0,.25,1.94,1.94,0,0,0-.14,1.92l.18.43.44-.14a6.53,6.53,0,0,1,.9-.22L52,76.6v-.44a1.05,1.05,0,0,1,0-.36c.22-1.19,1.67-1.87,1.73-1.89a.31.31,0,0,1,.25,0,.35.35,0,0,1,.19.17.34.34,0,0,1-.17.44s-1.19.58-1.35,1.42a.78.78,0,0,0,0,.3l0,.38.37.06a5.05,5.05,0,0,1,1.27.36l.4.17,1.42-2.33a.32.32,0,0,1,.6.1.32.32,0,0,1,0,.25l-1.42,2.33.33.27a5.56,5.56,0,0,1,1,1.11l.2.29.34-.09a.9.9,0,0,0,.37-.17c.77-.6.73-2.23.73-2.25a.33.33,0,0,1,.32-.34.26.26,0,0,1,.12,0s0,0,0,0l.15.14s0,.05,0,.08.06,2-1,2.8a2,2,0,0,1-.38.22l-.42.17.13.44a4.64,4.64,0,0,1,.2.82l.07.53.74-.15a2.4,2.4,0,0,0,1.77-1.14.3.3,0,0,1,.22-.12.3.3,0,0,1,.24.07.32.32,0,0,1,.13.22.36.36,0,0,1-.07.24,3.08,3.08,0,0,1-2.18,1.39,2,2,0,0,0-.69.21l-.22.11,0,.24a5,5,0,0,1-.43,1.39l-.33.68.76,0a4.11,4.11,0,0,0,2.12-.47.35.35,0,0,1,.46.11.34.34,0,0,1-.11.46,5,5,0,0,1-3.4.43l-.27-.06-.19.2a6.35,6.35,0,0,1-.61.54l-.51.38.5.41a2.19,2.19,0,0,0,1.05.49.34.34,0,0,1,.3.36.32.32,0,0,1-.34.3,2.52,2.52,0,0,1-1.07-.38,3.62,3.62,0,0,1-.78-.67l-.22-.25-.32.11a5.24,5.24,0,0,1-7-4.16l0-.31-.31-.09a3.68,3.68,0,0,1-.87-.38,2.48,2.48,0,0,1-.69-.58.31.31,0,0,1-.05-.25A.3.3,0,0,1,45.28,80.81Zm.39-11.17a2.36,2.36,0,0,1-.85-.3.34.34,0,0,1-.09-.46.3.3,0,0,1,.21-.14.33.33,0,0,1,.23,0A2,2,0,0,0,46,69l.68.07-.14-.67a5.55,5.55,0,0,1-.11-1v-.26L46.2,67a4,4,0,0,1-1.75-2.43.31.31,0,0,1,0-.25.32.32,0,0,1,.22-.13.29.29,0,0,1,.24,0,.33.33,0,0,1,.14.24,3.22,3.22,0,0,0,.76,1.37l.57.63.27-.81a5.18,5.18,0,0,1,.64-1.29L47.5,64l-.3-.3a2.52,2.52,0,0,1-.72-2.34.33.33,0,0,1,.35-.31.35.35,0,0,1,.23.12.3.3,0,0,1,.08.24,1.92,1.92,0,0,0,.57,1.86l.32.31.34-.28a5.21,5.21,0,0,1,.77-.52l.39-.22-.17-.41a1.5,1.5,0,0,1-.11-.34,3.22,3.22,0,0,1,1-2.38.29.29,0,0,1,.23-.1.37.37,0,0,1,.24.09.34.34,0,0,1,.1.23.31.31,0,0,1-.1.24s-.91,1-.76,1.81A1.25,1.25,0,0,0,50,62l.18.34.37-.09a5.2,5.2,0,0,1,1.32-.1h.43l.5-2.68a.28.28,0,0,1,.14-.21.35.35,0,0,1,.24-.06.37.37,0,0,1,.22.14.32.32,0,0,1,.05.25L53,62.26l.41.14a5.57,5.57,0,0,1,1.33.68l.29.2.28-.2a1,1,0,0,0,.29-.3c.51-.83-.11-2.34-.12-2.36a.36.36,0,0,1,0-.25.32.32,0,0,1,.18-.18.33.33,0,0,1,.43.17c0,.08.76,1.83.08,3a1.49,1.49,0,0,1-.28.34l-.33.32.28.35a5.43,5.43,0,0,1,.47.71l.26.46.64-.4a2.41,2.41,0,0,0,1.25-1.69.3.3,0,0,1,.16-.19.28.28,0,0,1,.25,0,.35.35,0,0,1,.22.42,3.09,3.09,0,0,1-1.54,2.07,1.9,1.9,0,0,0-.58.44l-.16.18,0,.24a5.08,5.08,0,0,1,.09,1.45l-.06.75.71-.24a4,4,0,0,0,1.82-1.19.34.34,0,0,1,.47-.06.33.33,0,0,1,.06.46,4.89,4.89,0,0,1-3,1.62l-.28,0-.11.26a4.44,4.44,0,0,1-.38.71l-.33.55.6.19a2.24,2.24,0,0,0,1.16.09.35.35,0,0,1,.41.23.33.33,0,0,1-.22.41,2.53,2.53,0,0,1-1.12,0,3.56,3.56,0,0,1-1-.35l-.3-.16-.26.22a5.22,5.22,0,0,1-8-1.41l-.16-.28-.32,0A3.27,3.27,0,0,1,45.67,69.64Zm1.18-5.59h0Zm11.51-7.52a.36.36,0,0,1,.25,0,.34.34,0,0,1,.19.2,3.09,3.09,0,0,0,1.05,1.16l.7.49.08-.85A5.57,5.57,0,0,1,61,56.12l.12-.38-.42-.28a2.55,2.55,0,0,1-1.24-2.11.34.34,0,0,1,.27-.39.36.36,0,0,1,.25.06.32.32,0,0,1,.13.22c.19,1.11.49,1.38,1,1.67l.39.25.28-.36a4.52,4.52,0,0,1,.62-.68l.33-.3-.26-.36a2,2,0,0,1-.18-.32,3.19,3.19,0,0,1,.38-2.53.3.3,0,0,1,.2-.15.31.31,0,0,1,.25,0,.32.32,0,0,1,.11.45,2.68,2.68,0,0,0-.32,1.94,1.08,1.08,0,0,0,.16.26l.25.28.35-.16a5.39,5.39,0,0,1,1.25-.41l.42-.08-.12-2.73a.33.33,0,0,1,.66,0l.13,2.73.43,0a5.23,5.23,0,0,1,1.45.36l.33.13.23-.27a1.17,1.17,0,0,0,.21-.35c.3-.93-.65-2.26-.66-2.27a.33.33,0,1,1,.54-.39c0,.06,1.15,1.6.75,2.86a1.45,1.45,0,0,1-.2.39l-.24.38.35.29a4.36,4.36,0,0,1,.62.58l.36.39.53-.54a2.38,2.38,0,0,0,.82-1.93.35.35,0,0,1,.12-.23.31.31,0,0,1,.24-.08.33.33,0,0,1,.22.11.38.38,0,0,1,.09.25,3.09,3.09,0,0,1-1,2.36,2.09,2.09,0,0,0-.46.56l-.11.22.1.22A5.39,5.39,0,0,1,71,57.22l.12.75.64-.4A4.13,4.13,0,0,0,73.3,56a.34.34,0,0,1,.44-.17.33.33,0,0,1,.16.44,5,5,0,0,1-2.57,2.26l-.26.11,0,.27a4.47,4.47,0,0,1-.2.78l-.2.61.63.05a2.17,2.17,0,0,0,1.15-.18.35.35,0,0,1,.45.13.32.32,0,0,1-.12.45,2.62,2.62,0,0,1-1.09.27,3.39,3.39,0,0,1-1-.11l-.33-.08-.2.27a5.24,5.24,0,0,1-8.1.46l-.22-.24-.31.1a3.31,3.31,0,0,1-.93.18,2.35,2.35,0,0,1-.89-.1.32.32,0,0,1-.19-.17.33.33,0,0,1,0-.26.35.35,0,0,1,.17-.19.36.36,0,0,1,.27,0,2,2,0,0,0,.82,0l.68-.09-.29-.62a5.15,5.15,0,0,1-.33-.93L60.7,59l-.25-.09a4.15,4.15,0,0,1-2.27-2,.36.36,0,0,1,0-.25A.37.37,0,0,1,58.36,56.53ZM75,49a.22.22,0,0,1,.14-.12.21.21,0,0,1,.18,0,.24.24,0,0,1,.13.15,2.91,2.91,0,0,0,.89,1.13l.67.53.13-.85a4.55,4.55,0,0,1,.37-1.22l.09-.43L77.23,48a2.19,2.19,0,0,1-1-1.92.25.25,0,0,1,.22-.27.35.35,0,0,1,.18,0,.26.26,0,0,1,.09.17,1.79,1.79,0,0,0,.79,1.59l.37.27.3-.35a3.89,3.89,0,0,1,.59-.56l.35-.28-.24-.38a1.47,1.47,0,0,1-.14-.28,2.78,2.78,0,0,1,.48-2.19.22.22,0,0,1,.16-.1.23.23,0,0,1,.18,0,.27.27,0,0,1,.1.15.25.25,0,0,1,0,.19,2.38,2.38,0,0,0-.41,1.76.89.89,0,0,0,.14.25l.24.3.34-.14A4.54,4.54,0,0,1,81.1,46l.42,0,0-2.49a.24.24,0,0,1,.24-.24.23.23,0,0,1,.24.25l0,2.48.43.07a5,5,0,0,1,1.26.4l.32.16.25-.26a.85.85,0,0,0,.21-.32c.34-.84-.45-2.1-.45-2.11a.24.24,0,1,1,.41-.26,3.33,3.33,0,0,1,.5,2.55,1.82,1.82,0,0,1-.19.33l-.27.36.34.31a5.06,5.06,0,0,1,.51.54l.33.42.55-.49a2.2,2.2,0,0,0,.86-1.71.25.25,0,0,1,.1-.16.26.26,0,0,1,.18,0,.22.22,0,0,1,.16.1.26.26,0,0,1,0,.18,2.65,2.65,0,0,1-1,2,2.13,2.13,0,0,0-.45.49l-.13.21.09.23a4.48,4.48,0,0,1,.29,1.24l.06.76.67-.36a3.72,3.72,0,0,0,1.45-1.34.25.25,0,0,1,.33-.1.24.24,0,0,1,.1.33,4.41,4.41,0,0,1-2.39,1.85l-.27.08-.07.27a3.61,3.61,0,0,1-.22.68l-.24.6.63.09a1.86,1.86,0,0,0,1.06-.1.25.25,0,0,1,.33.12.25.25,0,0,1-.11.32,2.34,2.34,0,0,1-1,.18,3.35,3.35,0,0,1-.89-.16l-.32-.1-.21.25a4.48,4.48,0,0,1-3.65,1.68,4.62,4.62,0,0,1-3.54-1.73l-.2-.25-.31.08a4.31,4.31,0,0,1-.83.11,2.15,2.15,0,0,1-.77-.14.25.25,0,0,1-.13-.33.22.22,0,0,1,.14-.12.25.25,0,0,1,.15,0,1.73,1.73,0,0,0,.8.11l.68,0-.24-.64a4.42,4.42,0,0,1-.24-.84l-.05-.26-.24-.1A3.56,3.56,0,0,1,75,49.19.24.24,0,0,1,75,49ZM62.24,79.39a.29.29,0,0,1-.1-.23.34.34,0,0,1,.09-.24.34.34,0,0,1,.23-.1,2,2,0,0,0,.8-.25l.6-.32-.49-.48a6.36,6.36,0,0,1-.64-.75l-.15-.22h-.3A4.25,4.25,0,0,1,59.7,76a1.27,1.27,0,0,0-.24-.28.29.29,0,0,1-.05-.13.37.37,0,0,1,.1-.24.39.39,0,0,1,.23-.09.36.36,0,0,1,.25.11,3.1,3.1,0,0,0,1.39.72l.83.2L62,75.42A5.35,5.35,0,0,1,61.79,74l-.11-.43-.41-.08c-.65-.13-1.21-.32-1.91-1.53a.37.37,0,0,1,0-.25.32.32,0,0,1,.15-.21.37.37,0,0,1,.25,0,.36.36,0,0,1,.21.15c.56,1,.94,1.11,1.52,1.23l.43.06.13-.41a4.4,4.4,0,0,1,.34-.86l.2-.39L62.19,71a1.64,1.64,0,0,1-.28-.23,3.16,3.16,0,0,1-.55-2.5.32.32,0,0,1,.13-.22.32.32,0,0,1,.25-.05.3.3,0,0,1,.21.13.4.4,0,0,1,.06.26,2.56,2.56,0,0,0,.38,1.92.94.94,0,0,0,.25.18l.34.18.26-.28a5.24,5.24,0,0,1,1-.82l.37-.23-1.09-2.5a.31.31,0,0,1,0-.25.37.37,0,0,1,.18-.19.35.35,0,0,1,.44.17l1.09,2.51.42-.12a4.86,4.86,0,0,1,1.47-.18h.36l.12-.33a1,1,0,0,0,.07-.4c-.05-1-1.41-1.88-1.42-1.89a.33.33,0,1,1,.36-.56c.07,0,1.65,1.09,1.72,2.41a1.36,1.36,0,0,1,0,.44l-.09.44.43.14a5.74,5.74,0,0,1,.78.32l.48.24.31-.69a2.45,2.45,0,0,0,.08-2.1.31.31,0,0,1,0-.25.34.34,0,0,1,.2-.17.37.37,0,0,1,.25,0,.33.33,0,0,1,.16.19,3,3,0,0,1-.12,2.58,2.67,2.67,0,0,0-.23.69l0,.24.17.18a5,5,0,0,1,.88,1.14l.38.66.46-.6a4,4,0,0,0,.83-2,.31.31,0,0,1,.36-.31.32.32,0,0,1,.31.34,5.06,5.06,0,0,1-1.6,3l-.21.19.06.27a5.29,5.29,0,0,1,.09.8l0,.64.62-.18a2.06,2.06,0,0,0,1-.57.34.34,0,0,1,.47,0,.33.33,0,0,1,0,.46,2.4,2.4,0,0,1-.93.65,3.5,3.5,0,0,1-1,.25l-.33,0-.09.33a5.25,5.25,0,0,1-7.41,3.31l-.29-.14-.25.2a3.86,3.86,0,0,1-.81.51,2.38,2.38,0,0,1-.87.22A.34.34,0,0,1,62.24,79.39Zm14-9.57a.36.36,0,0,1,.09-.24.32.32,0,0,1,.2-.1,2,2,0,0,0,.81-.29l.59-.35-.51-.46a4.54,4.54,0,0,1-.67-.72l-.16-.21-.27,0a4.07,4.07,0,0,1-2.85-.92.34.34,0,0,1-.11-.23.37.37,0,0,1,.1-.24.33.33,0,0,1,.23-.1.43.43,0,0,1,.25.11,3.1,3.1,0,0,0,1.42.65l.84.17-.27-.81a5.44,5.44,0,0,1-.25-1.42l-.13-.43-.41-.07a2.51,2.51,0,0,1-2-1.44.34.34,0,0,1,.1-.46.36.36,0,0,1,.25-.05.35.35,0,0,1,.21.15c.6.95,1,1.07,1.55,1.16l.45.06.11-.43a5.69,5.69,0,0,1,.31-.88l.18-.4L76,61.66a2,2,0,0,1-.29-.22A3.21,3.21,0,0,1,75,59a.33.33,0,1,1,.65.1s-.16,1.32.46,1.9a1.78,1.78,0,0,0,.26.18l.35.16L77,61a5.68,5.68,0,0,1,1-.87l.35-.24-1.19-2.45a.31.31,0,0,1,0-.25.34.34,0,0,1,.17-.2.33.33,0,0,1,.44.16l1.2,2.45.41-.13a5.27,5.27,0,0,1,1.47-.25h.36l.11-.33a1.09,1.09,0,0,0,0-.41c-.08-1-1.48-1.82-1.49-1.83a.33.33,0,1,1,.33-.57c.07,0,1.7,1,1.83,2.33a1.76,1.76,0,0,1,0,.45l-.07.44.43.12a5,5,0,0,1,.8.29l.48.22.28-.71a2.38,2.38,0,0,0,0-2.1.31.31,0,0,1,0-.25.35.35,0,0,1,.19-.17.36.36,0,0,1,.25,0,.35.35,0,0,1,.17.19,3.05,3.05,0,0,1,0,2.59,2.51,2.51,0,0,0-.2.69l0,.25.19.16a5.18,5.18,0,0,1,.93,1.11l.4.64.43-.62a3.88,3.88,0,0,0,.75-2c0-.18.2-.35.34-.32a.33.33,0,0,1,.33.33,5,5,0,0,1-1.47,3.1L86,63l.07.27a5.14,5.14,0,0,1,.12.8l0,.64.61-.21a2.15,2.15,0,0,0,1-.61.33.33,0,0,1,.46-.06.31.31,0,0,1,.07.45,2.42,2.42,0,0,1-.89.69,3.84,3.84,0,0,1-1,.3l-.33,0-.07.33a5.24,5.24,0,0,1-7.27,3.62l-.29-.13-.24.21a3.71,3.71,0,0,1-.79.54,2.36,2.36,0,0,1-.86.26.36.36,0,0,1-.24-.09A.38.38,0,0,1,76.24,69.82ZM102.63,62a.33.33,0,0,1,.46.07,2,2,0,0,0,.67.51l.61.31.11-.68a4.9,4.9,0,0,1,.24-1l.09-.25-.15-.22a4.09,4.09,0,0,1-.78-2.89.33.33,0,0,1,.4-.26.28.28,0,0,1,.2.13.36.36,0,0,1,0,.27,3.09,3.09,0,0,0,.22,1.55l.31.8.54-.66a5.17,5.17,0,0,1,1.06-1l.29-.34-.17-.38a2.5,2.5,0,0,1,.16-2.44.33.33,0,0,1,.44-.17.35.35,0,0,1,.17.19.31.31,0,0,1,0,.25,1.94,1.94,0,0,0-.14,1.93l.18.42L108,58a4.88,4.88,0,0,1,.9-.21l.44-.07v-.44a1.43,1.43,0,0,1,0-.36c.23-1.19,1.67-1.86,1.73-1.89a.34.34,0,0,1,.26,0,.3.3,0,0,1,.18.17.32.32,0,0,1-.16.44s-1.2.58-1.36,1.42a1.07,1.07,0,0,0,0,.31l0,.38.37,0a5.08,5.08,0,0,1,1.27.37l.4.17L113.53,56a.28.28,0,0,1,.2-.15.31.31,0,0,1,.25,0,.32.32,0,0,1,.11.45l-1.42,2.33L113,59a5,5,0,0,1,1,1.1l.2.3.35-.09a1.16,1.16,0,0,0,.37-.18c.77-.6.73-2.23.72-2.25a.34.34,0,0,1,.32-.34.36.36,0,0,1,.35.32c0,.08.06,2-1,2.79a2,2,0,0,1-.38.22l-.42.18.13.43a4.48,4.48,0,0,1,.19.83l.08.52.74-.15a2.37,2.37,0,0,0,1.76-1.13.36.36,0,0,1,.23-.13.3.3,0,0,1,.24.07.33.33,0,0,1,.06.46,3,3,0,0,1-2.18,1.39,2,2,0,0,0-.69.21l-.22.11,0,.25a5.4,5.4,0,0,1-.43,1.38l-.33.68.76,0a4.22,4.22,0,0,0,2.12-.47.34.34,0,0,1,.46.12.33.33,0,0,1-.11.45,4.89,4.89,0,0,1-3.4.43l-.27-.06-.2.21a6.29,6.29,0,0,1-.6.53l-.51.39.5.4a2.21,2.21,0,0,0,1,.49.34.34,0,0,1,.3.36.3.3,0,0,1-.34.3,2.26,2.26,0,0,1-1.06-.38,3.2,3.2,0,0,1-.78-.67l-.23-.25-.31.12a5.23,5.23,0,0,1-7-4.16l0-.32-.31-.09a3.53,3.53,0,0,1-.88-.37,2.45,2.45,0,0,1-.68-.59A.33.33,0,0,1,102.63,62Zm3.68-3.76h0l0,0Z"/><path d="M94.2,104.31a3.07,3.07,0,0,0,.22-1.49h0a3.22,3.22,0,0,0,1.55.75,3.8,3.8,0,0,0,.59.06,3.21,3.21,0,0,0,1.48-.37,3.3,3.3,0,0,0,1.21.24,3.26,3.26,0,0,0,2.3-1,6.38,6.38,0,0,0,.67-.83l.44.07h.22a3.22,3.22,0,0,0,3.2-3c0-.14,0-.27,0-.4a3.19,3.19,0,0,0,1.43-1.12,3.25,3.25,0,0,0,.55-2.4,6.11,6.11,0,0,0-.82-2.08,1,1,0,0,0,.09-.13,3.2,3.2,0,0,0-.89-4.44,5.26,5.26,0,0,0-1.92-.75l-.24,0a8.32,8.32,0,0,0-1.07-1.07A3.21,3.21,0,0,0,106,83.79a6.35,6.35,0,0,0,0-2.23,1,1,0,0,0,.13-.09,3.21,3.21,0,0,0,.75-4.47,5.25,5.25,0,0,0-1.53-1.38l-.22-.11A8.11,8.11,0,0,0,97.43,70a8.68,8.68,0,0,0-1.35.11l-.28-.18a5.29,5.29,0,0,0-2.36-.79h-.22a3.19,3.19,0,0,0-3.17,2.75,6.78,6.78,0,0,0-1.8.74,3.21,3.21,0,0,0-1,4.39q-.18.2-.36.42l-.17.24a5.72,5.72,0,0,0-1.45.41l-.22.11a8.11,8.11,0,0,0-9.64,4.28l-.31.11a5.37,5.37,0,0,0-2,1.48,3.22,3.22,0,0,0-.58,3,5.45,5.45,0,0,0-1.46.48l-.22.11a8.5,8.5,0,0,0-2-.24,8.06,8.06,0,0,0-7.45,4.92l-.3.13a5.37,5.37,0,0,0-2,1.56,3.22,3.22,0,0,0-.61,1.6,8,8,0,0,0-3.86-1h-.39a8,8,0,0,0-4.49,1.63,3.37,3.37,0,0,0-.22-.35A5,5,0,0,0,48,94.48l-.21-.13a8.1,8.1,0,0,0-7.7-5.55,7.35,7.35,0,0,0-1.32.11,3,3,0,0,0,.59-3.28,4.65,4.65,0,0,0-1.06-1.49l0,0A7,7,0,0,0,31.82,78l-.07-.08a5,5,0,0,0-1.92-1.15,2.87,2.87,0,0,0-.87-.13,3.06,3.06,0,0,0-2.73,1.7,5.47,5.47,0,0,0-1.4.28,3.05,3.05,0,0,0-2,3.54l-.13.1a3.06,3.06,0,0,0-.41,4.29,2,2,0,0,0,.19.22c-.08.28-.13.51-.16.67a3.08,3.08,0,0,0,1.54,3.23,3,3,0,0,0,2.38,2,3.1,3.1,0,0,0,2.39,1.15,2.81,2.81,0,0,0,.65-.07l.11,0a3.15,3.15,0,0,0,.43,2.06h0a3.71,3.71,0,0,0-.35.42,3.21,3.21,0,0,0,.55,4.51,3.67,3.67,0,0,0,.53.34,10.66,10.66,0,0,0,0,1.13,3.21,3.21,0,0,0,2.54,3,3.11,3.11,0,0,0,1.17,1.25,3.17,3.17,0,0,0,1.67.47l.38,0a3.19,3.19,0,0,0,3.54.57,7.52,7.52,0,0,0,.92-.53,2.42,2.42,0,0,0,.39.21,3.21,3.21,0,0,0,3.36-.43,3,3,0,0,0,1,.74c0,.17,0,.36-.06.55a3.25,3.25,0,0,0,.79,2.33,3.19,3.19,0,0,0,2.2,1.1h.22a2.82,2.82,0,0,0,.41,0,7.39,7.39,0,0,0,.6,1,3.2,3.2,0,0,0,2.58,1.31,3.23,3.23,0,0,0,1.2-.22,3.23,3.23,0,0,0,1.52.38h.16a3.24,3.24,0,0,0,1.94-.78,4.21,4.21,0,0,0,.5,0,3.15,3.15,0,0,0,1.29-.28,2.38,2.38,0,0,0,.5.4c0,.11,0,.22,0,.33a3.09,3.09,0,0,0,.61,2.31,3.14,3.14,0,0,0,2.07,1.2,2.75,2.75,0,0,0,.41,0h0a5.38,5.38,0,0,0,.43.78,3.13,3.13,0,0,0,3.49,1.32,3.08,3.08,0,0,0,1.51.42h0a3.12,3.12,0,0,0,1.78-.57,2.75,2.75,0,0,0,.57,0,3.12,3.12,0,0,0,2.57-1.34,6.23,6.23,0,0,0,.43-.72h.26a3.17,3.17,0,0,0,2.11-1.13,3.07,3.07,0,0,0,.69-2.29l0-.21a3.11,3.11,0,0,0,1.37-2.72h.27a2.68,2.68,0,0,0,.4,0,8.49,8.49,0,0,0,.6,1,3.25,3.25,0,0,0,2.59,1.3,3.15,3.15,0,0,0,1.19-.23,3.15,3.15,0,0,0,1.53.38h.15a3.14,3.14,0,0,0,1.94-.77,4.38,4.38,0,0,0,.5,0,3.23,3.23,0,0,0,2.75-1.56,5.39,5.39,0,0,0,.47-1,3.29,3.29,0,0,0,.44,0,3.2,3.2,0,0,0,2.65-3.69c0-.13,0-.26-.08-.38A3.22,3.22,0,0,0,94.2,104.31Zm-2.9-1a.36.36,0,0,1-.25,0,.34.34,0,0,1-.18-.19A3.21,3.21,0,0,0,89.82,102l-.7-.48-.08.85a5.4,5.4,0,0,1-.33,1.4l-.06.45.35.22a2.5,2.5,0,0,1,1.25,2.11.37.37,0,0,1-.06.25.32.32,0,0,1-.22.13.34.34,0,0,1-.24-.06.31.31,0,0,1-.14-.21c-.18-1.11-.49-1.38-1-1.68l-.38-.24-.28.36a5.06,5.06,0,0,1-.62.68l-.33.3.26.36a1.34,1.34,0,0,1,.17.31,3.22,3.22,0,0,1-.37,2.54.36.36,0,0,1-.21.15.37.37,0,0,1-.25,0,.35.35,0,0,1-.11-.46,2.6,2.6,0,0,0,.33-1.93.83.83,0,0,0-.17-.26l-.25-.29-.34.17a4.94,4.94,0,0,1-1.25.4l-.43.09.13,2.72a.36.36,0,0,1-.09.24.34.34,0,0,1-.23.11.32.32,0,0,1-.23-.09.3.3,0,0,1-.11-.23l-.13-2.72-.43-.05a4.81,4.81,0,0,1-1.45-.35l-.33-.13-.23.26a1.08,1.08,0,0,0-.21.36c-.3.93.65,2.25.66,2.27a.33.33,0,0,1-.08.46.32.32,0,0,1-.46-.07c0-.07-1.16-1.61-.75-2.86a1.81,1.81,0,0,1,.19-.4l.25-.38-.35-.28a5,5,0,0,1-.62-.58l-.36-.39-.54.53a2.43,2.43,0,0,0-.82,1.93.3.3,0,0,1-.11.23.31.31,0,0,1-.24.08.3.3,0,0,1-.23-.11.31.31,0,0,1-.08-.24,3.07,3.07,0,0,1,1-2.37,2.09,2.09,0,0,0,.46-.56l.11-.22-.1-.22a5,5,0,0,1-.42-1.39l-.11-.75-.64.4a4,4,0,0,0-1.5,1.58.35.35,0,0,1-.44.16.33.33,0,0,1-.17-.43,4.94,4.94,0,0,1,2.58-2.27l.26-.1,0-.28a6,6,0,0,1,.21-.78l.2-.6-.64-.06a2.16,2.16,0,0,0-1.14.18.33.33,0,0,1-.45-.13.32.32,0,0,1,.11-.44,2.47,2.47,0,0,1,1.1-.28,3.77,3.77,0,0,1,1,.12l.33.08.19-.27a5.24,5.24,0,0,1,8.11-.46l.22.23.3-.09a3.92,3.92,0,0,1,.94-.19,2.52,2.52,0,0,1,.89.11.33.33,0,0,1,.2.42.37.37,0,0,1-.18.19.32.32,0,0,1-.2,0A1.84,1.84,0,0,0,89,99l-.68.08.29.62a5.15,5.15,0,0,1,.33.93l.06.26.25.09a4,4,0,0,1,2.26,2,.28.28,0,0,1,0,.25A.32.32,0,0,1,91.3,103.36Zm-16.59,7.53a.26.26,0,0,1-.14.13.28.28,0,0,1-.19,0,.31.31,0,0,1-.13-.16,2.73,2.73,0,0,0-.88-1.12l-.67-.53-.14.84a4.53,4.53,0,0,1-.36,1.22l-.17.37.41.31a2.18,2.18,0,0,1,1,1.92.25.25,0,0,1-.06.18.24.24,0,0,1-.16.09.25.25,0,0,1-.18-.06.26.26,0,0,1-.09-.16c-.1-1-.37-1.29-.79-1.59l-.37-.27-.3.34a6.29,6.29,0,0,1-.59.57l-.35.27.24.38a1.75,1.75,0,0,1,.13.28,2.86,2.86,0,0,1-.47,2.2.26.26,0,0,1-.16.1.27.27,0,0,1-.18,0,.25.25,0,0,1-.06-.35,2.35,2.35,0,0,0,.41-1.75.92.92,0,0,0-.14-.25l-.23-.31-.36.14a4.57,4.57,0,0,1-1.13.29l-.43.06,0,2.48a.25.25,0,0,1-.24.25h0a.26.26,0,0,1-.24-.25l0-2.49-.42-.07a4.31,4.31,0,0,1-1.26-.4l-.32-.15-.25.25a1.21,1.21,0,0,0-.22.32c-.33.84.45,2.1.46,2.12a.24.24,0,0,1-.41.26,3.33,3.33,0,0,1-.5-2.55,1.22,1.22,0,0,1,.19-.34l.27-.36-.34-.3a4.26,4.26,0,0,1-.51-.55l-.33-.41-.55.48a2.2,2.2,0,0,0-.87,1.71.24.24,0,0,1-.27.21.24.24,0,0,1-.21-.27,2.66,2.66,0,0,1,1-2,2,2,0,0,0,.46-.49l.13-.21-.09-.23a4.28,4.28,0,0,1-.29-1.25l-.07-.75-.66.35a3.69,3.69,0,0,0-1.45,1.34.25.25,0,0,1-.34.1.24.24,0,0,1-.1-.32,4.36,4.36,0,0,1,2.4-1.85l.27-.09.06-.27a5.44,5.44,0,0,1,.23-.68l.24-.59-.63-.09a2,2,0,0,0-1.06.09.25.25,0,0,1-.33-.11.24.24,0,0,1,.1-.32,2.41,2.41,0,0,1,1-.18,3.19,3.19,0,0,1,.89.15l.32.11.22-.26a4.62,4.62,0,0,1,7.18.06l.21.24.31-.07a2.75,2.75,0,0,1,.83-.11,2,2,0,0,1,.77.14.24.24,0,0,1,.12.32.23.23,0,0,1-.13.13.26.26,0,0,1-.15,0,1.73,1.73,0,0,0-.8-.11l-.69,0,.25.64a4.42,4.42,0,0,1,.24.84l0,.26.24.11a3.57,3.57,0,0,1,1.88,1.86A.21.21,0,0,1,74.71,110.89ZM59,105.5l-.28.36a5.89,5.89,0,0,1-.63.68l-.33.3.26.36a1.92,1.92,0,0,1,.18.31,3.21,3.21,0,0,1-.38,2.54.34.34,0,0,1-.45.11.33.33,0,0,1-.15-.2.34.34,0,0,1,0-.26,2.6,2.6,0,0,0,.33-1.93,1,1,0,0,0-.17-.26l-.25-.29-.34.17a5.15,5.15,0,0,1-1.26.4l-.42.09.12,2.72a.31.31,0,0,1-.08.24.34.34,0,0,1-.23.11.34.34,0,0,1-.24-.09.38.38,0,0,1-.11-.23l-.13-2.72-.43,0a4.75,4.75,0,0,1-1.44-.35l-.33-.13-.23.26a.82.82,0,0,0-.21.36c-.31.93.64,2.25.65,2.27a.33.33,0,0,1-.53.39c0-.07-1.16-1.61-.76-2.86a1.87,1.87,0,0,1,.2-.4l.25-.38-.36-.28a7.12,7.12,0,0,1-.62-.58l-.35-.39-.54.53a2.4,2.4,0,0,0-.82,1.93.35.35,0,0,1-.12.23.33.33,0,0,1-.46,0,.31.31,0,0,1-.08-.24,3.06,3.06,0,0,1,1-2.37,2.09,2.09,0,0,0,.46-.56l.12-.22-.11-.22a5.39,5.39,0,0,1-.41-1.39l-.12-.75-.64.4a4.19,4.19,0,0,0-1.5,1.58.33.33,0,0,1-.6-.27,5,5,0,0,1,2.57-2.27l.26-.1.05-.28a4.47,4.47,0,0,1,.2-.78l.21-.61-.64,0a2.08,2.08,0,0,0-1.14.18.34.34,0,0,1-.46-.13.32.32,0,0,1,.12-.44,2.41,2.41,0,0,1,1.09-.28,3.68,3.68,0,0,1,1,.12l.33.08.2-.27a5.24,5.24,0,0,1,8.11-.46l.21.23.31-.09a3.75,3.75,0,0,1,.93-.19,2.35,2.35,0,0,1,.9.11.33.33,0,0,1,.19.42.32.32,0,0,1-.17.19.29.29,0,0,1-.22,0,1.88,1.88,0,0,0-.87-.05l-.68.08.29.62a5.75,5.75,0,0,1,.33.93l.07.26.24.09a4.06,4.06,0,0,1,2.27,2,.36.36,0,0,1,0,.25.35.35,0,0,1-.18.18.36.36,0,0,1-.25,0,.35.35,0,0,1-.19-.19,3.1,3.1,0,0,0-1.05-1.17l-.7-.48-.08.85a5,5,0,0,1-.32,1.4l-.06.45.35.22A2.48,2.48,0,0,1,61,107.31a.29.29,0,0,1-.06.25.3.3,0,0,1-.21.13.36.36,0,0,1-.25-.06.32.32,0,0,1-.13-.21c-.18-1.11-.49-1.38-1-1.68Zm-14.06-5.16-.31-.79-.54.66a5.17,5.17,0,0,1-1.06,1l-.29.34.16.37a2.53,2.53,0,0,1-.15,2.45.32.32,0,0,1-.19.17.31.31,0,0,1-.25,0,.32.32,0,0,1-.17-.19.31.31,0,0,1,0-.25,1.94,1.94,0,0,0,.14-1.92l-.18-.43-.44.14a4.53,4.53,0,0,1-.9.22l-.44.06v.45a1.1,1.1,0,0,1,0,.36c-.22,1.18-1.67,1.86-1.73,1.89a.34.34,0,0,1-.44-.17.36.36,0,0,1,0-.25.33.33,0,0,1,.18-.19s1.19-.57,1.35-1.41a1.12,1.12,0,0,0,0-.32l0-.37-.37-.06a5.05,5.05,0,0,1-1.27-.36l-.4-.17-1.42,2.33a.34.34,0,0,1-.45.11.32.32,0,0,1-.15-.21.32.32,0,0,1,0-.25L37,101.19l-.33-.27a5.27,5.27,0,0,1-1-1.11l-.2-.29-.34.09a1,1,0,0,0-.37.18C34,100.39,34,102,34,102a.33.33,0,0,1-.32.34.34.34,0,0,1-.34-.31c0-.08-.07-2,1-2.8a2.24,2.24,0,0,1,.38-.22l.42-.17L35,98.44a6.07,6.07,0,0,1-.19-.83l-.07-.52-.74.14a2.4,2.4,0,0,0-1.77,1.14.34.34,0,0,1-.46.06.36.36,0,0,1-.13-.22.37.37,0,0,1,.07-.25,3,3,0,0,1,2.18-1.38,2.28,2.28,0,0,0,.69-.21l.22-.12,0-.24a4.93,4.93,0,0,1,.43-1.38l.32-.69-.75,0a4.19,4.19,0,0,0-2.12.47.35.35,0,0,1-.46-.11.32.32,0,0,1,.11-.45,4.92,4.92,0,0,1,3.4-.44l.27.06.19-.2a6.35,6.35,0,0,1,.61-.54l.51-.38-.5-.4a2.17,2.17,0,0,0-1-.5.34.34,0,0,1-.31-.36.33.33,0,0,1,.34-.3,2.52,2.52,0,0,1,1.07.38,4.29,4.29,0,0,1,.78.67l.22.25.32-.11a5.23,5.23,0,0,1,7,4.16l0,.32.31.08a4,4,0,0,1,.88.38,2.72,2.72,0,0,1,.68.58.35.35,0,0,1-.08.47.31.31,0,0,1-.25,0,.34.34,0,0,1-.19-.09,1.75,1.75,0,0,0-.69-.54l-.61-.31-.11.67a5.19,5.19,0,0,1-.24,1l-.1.24.16.22a4,4,0,0,1,.77,2.9.3.3,0,0,1-.14.21.31.31,0,0,1-.25,0,.38.38,0,0,1-.21-.14.33.33,0,0,1,0-.26A3.3,3.3,0,0,0,44.92,100.34Zm-1.56,1.35h0ZM28.57,90.57c.05,0,1.1-.26,1.39-.94a.89.89,0,0,0,.07-.27l0-.38-.36-.14a4.37,4.37,0,0,1-.92-.5l-.35-.25-1.59,1.65a.18.18,0,0,1-.25,0,.18.18,0,0,1,0-.25l1.59-1.65-.27-.34a4.19,4.19,0,0,1-.58-1l-.13-.33h-.36a.94.94,0,0,0-.36.09c-.76.36-1,1.66-1,1.71a.18.18,0,0,1-.2.15.17.17,0,0,1-.14-.21c0-.06.29-1.52,1.21-2a1.53,1.53,0,0,1,.32-.1l.44-.08,0-.45a5,5,0,0,1,0-.67l0-.53-.71,0a2,2,0,0,0-1.66.62.14.14,0,0,1-.13,0,.17.17,0,0,1-.09-.3,2.43,2.43,0,0,1,1.9-.7,1.64,1.64,0,0,0,.62,0l.23-.07.1-.23a3.75,3.75,0,0,1,.57-1l.46-.6-.73-.19a3.31,3.31,0,0,0-1.81,0,.19.19,0,0,1-.23-.11h0a.18.18,0,0,1,.11-.22,4,4,0,0,1,2.7.25l.25.12.23-.16a4.4,4.4,0,0,1,.56-.31l.58-.27-.4-.5a1.81,1.81,0,0,0-.78-.6.19.19,0,0,1-.12-.22.18.18,0,0,1,.21-.12,2.12,2.12,0,0,1,.74.47,3,3,0,0,1,.48.64l.16.3.34,0a4.16,4.16,0,0,1,4.68,4.42l0,.32.28.16a3,3,0,0,1,.61.43,1.75,1.75,0,0,1,.41.55.17.17,0,0,1-.09.23.12.12,0,0,1-.13,0l-.08,0a1.59,1.59,0,0,0-.48-.6l-.53-.44-.26.64a3.52,3.52,0,0,1-.35.7l-.14.22.1.24A3.28,3.28,0,0,1,34.79,90a.26.26,0,0,1-.1.09.18.18,0,0,1-.14,0,.19.19,0,0,1-.09-.09.2.2,0,0,1,0-.15,2.59,2.59,0,0,0,.11-1.31l-.13-.85-.67.53a4.5,4.5,0,0,1-1,.58l-.36.24.08.41A1.93,1.93,0,0,1,32,91.29a.2.2,0,0,1-.24,0,.18.18,0,0,1,0-.24,1.65,1.65,0,0,0,.46-1.58l-.08-.45-.46,0a4.48,4.48,0,0,1-.73,0l-.45,0-.08.44a1.12,1.12,0,0,1-.08.26,2.52,2.52,0,0,1-1.63,1.14.17.17,0,0,1-.21-.14A.18.18,0,0,1,28.57,90.57Zm75.82-11.48a.37.37,0,0,1-.25.06.36.36,0,0,1-.23-.16,2.06,2.06,0,0,0-.65-.48l-.61-.31-.11.68a4.91,4.91,0,0,1-.25,1l-.09.25.16.21a4.14,4.14,0,0,1,.77,2.9.34.34,0,0,1-.14.21.31.31,0,0,1-.25,0,.31.31,0,0,1-.21-.14.34.34,0,0,1,0-.27,3.06,3.06,0,0,0-.21-1.54l-.31-.8-.55.66a5.12,5.12,0,0,1-1,1l-.3.34.17.38a2.51,2.51,0,0,1-.15,2.44.35.35,0,0,1-.19.17.31.31,0,0,1-.25,0,.32.32,0,0,1-.18-.18.39.39,0,0,1,0-.26,2,2,0,0,0,.14-1.94l-.19-.4L99,83a5,5,0,0,1-.89.21l-.44.06v.45a2.19,2.19,0,0,1,0,.36C97.41,85.28,96,86,95.91,86a.31.31,0,0,1-.25,0,.32.32,0,0,1-.19-.17.33.33,0,0,1,0-.26.3.3,0,0,1,.17-.18S96.83,84.81,97,84a1.72,1.72,0,0,0,0-.31l0-.38-.38,0a5.46,5.46,0,0,1-1.26-.37l-.4-.17L93.49,85a.34.34,0,0,1-.46.11.34.34,0,0,1-.15-.2.35.35,0,0,1,0-.25l1.42-2.33L94,82.07A5,5,0,0,1,93,81l-.2-.29-.34.09a1.06,1.06,0,0,0-.37.18c-.77.6-.73,2.23-.73,2.24a.34.34,0,0,1-.32.35l-.11,0a.56.56,0,0,0,0-.08l-.17-.15s0,0,0-.07-.07-2,1-2.79a1.27,1.27,0,0,1,.38-.22l.42-.18-.14-.43a5.75,5.75,0,0,1-.19-.83l-.07-.52-.75.14a2.43,2.43,0,0,0-1.76,1.14.32.32,0,0,1-.22.13.37.37,0,0,1-.25-.07.3.3,0,0,1-.12-.22.32.32,0,0,1,.07-.25,3.06,3.06,0,0,1,2.17-1.38,2.18,2.18,0,0,0,.7-.21l.21-.11,0-.25a5.3,5.3,0,0,1,.44-1.38l.32-.68-.75,0a4.58,4.58,0,0,0-2.13.47.33.33,0,0,1-.35-.56,5,5,0,0,1,3.4-.44l.28.06.19-.2a4.46,4.46,0,0,1,.61-.53l.51-.39-.5-.4a2.16,2.16,0,0,0-1-.49.34.34,0,0,1-.3-.36.33.33,0,0,1,.34-.31,2.43,2.43,0,0,1,1.06.39A3.65,3.65,0,0,1,95,73l.22.26.32-.12a5.24,5.24,0,0,1,7,4.16l0,.32.3.09a3.38,3.38,0,0,1,.88.37,2.12,2.12,0,0,1,.68.59A.33.33,0,0,1,104.39,79.09ZM104,90.25a2.38,2.38,0,0,1,.84.31.33.33,0,0,1,.1.46.37.37,0,0,1-.22.14.35.35,0,0,1-.23,0,1.93,1.93,0,0,0-.81-.24L103,90.8l.13.67a4.75,4.75,0,0,1,.11,1v.27l.22.14a4,4,0,0,1,1.75,2.44.27.27,0,0,1-.06.24.31.31,0,0,1-.21.14.36.36,0,0,1-.25-.06.34.34,0,0,1-.14-.23,3,3,0,0,0-.75-1.37l-.57-.63-.27.81a5.36,5.36,0,0,1-.64,1.29l-.21.34.34.37a2.54,2.54,0,0,1,.73,2.34.33.33,0,0,1-.36.31.36.36,0,0,1-.22-.11.31.31,0,0,1-.08-.24,2,2,0,0,0-.57-1.86l-.32-.32-.35.28a4.1,4.1,0,0,1-.76.52l-.39.22.17.41a1.54,1.54,0,0,1,.1.35,3.25,3.25,0,0,1-.94,2.38.35.35,0,0,1-.24.1.26.26,0,0,1-.23-.1.29.29,0,0,1-.1-.23A.33.33,0,0,1,99,100s.91-1,.76-1.8a.88.88,0,0,0-.11-.29l-.17-.34-.38.08a5.08,5.08,0,0,1-1.31.11l-.43,0-.5,2.68a.34.34,0,0,1-.39.27.32.32,0,0,1-.26-.39l.5-2.68-.41-.14A5.07,5.07,0,0,1,95,96.81l-.29-.2-.29.21a1,1,0,0,0-.28.29c-.51.84.11,2.35.12,2.36a.34.34,0,0,1-.18.44.33.33,0,0,1-.43-.18c0-.07-.77-1.83-.08-3a2.1,2.1,0,0,1,.28-.34l.33-.31-.28-.36a5.48,5.48,0,0,1-.48-.7l-.25-.47-.65.4a2.42,2.42,0,0,0-1.24,1.69.29.29,0,0,1-.16.2.31.31,0,0,1-.25,0,.29.29,0,0,1-.2-.16.31.31,0,0,1,0-.25,3.07,3.07,0,0,1,1.54-2.07,2.18,2.18,0,0,0,.57-.44l.17-.19-.05-.24a5,5,0,0,1-.09-1.44l.06-.76-.72.24a4.18,4.18,0,0,0-1.82,1.19.32.32,0,0,1-.46.06h0a.33.33,0,0,1-.06-.46,5,5,0,0,1,3-1.62l.28,0,.11-.25a4.89,4.89,0,0,1,.37-.72l.34-.54-.61-.2a2.2,2.2,0,0,0-1.15-.09.34.34,0,0,1-.41-.23.31.31,0,0,1,.21-.4,2.58,2.58,0,0,1,1.13,0,3.68,3.68,0,0,1,1,.35l.3.15.25-.22a5.25,5.25,0,0,1,8,1.41l.16.28.32,0A3.66,3.66,0,0,1,104,90.25Zm-3.29-7.41ZM87.43,80.5a.37.37,0,0,1,.1.24.32.32,0,0,1-.32.33,1.89,1.89,0,0,0-.8.26l-.6.32.49.48a5.08,5.08,0,0,1,.64.75l.15.21h.3A4.22,4.22,0,0,1,90,84a1.16,1.16,0,0,0,.23.26.32.32,0,0,1,0,.38.3.3,0,0,1-.23.09.34.34,0,0,1-.24-.11,3.17,3.17,0,0,0-1.4-.72l-.83-.2.23.82a5.09,5.09,0,0,1,.2,1.43l.11.44.4.08c.66.13,1.21.32,1.92,1.53a.34.34,0,0,1-.38.49.39.39,0,0,1-.2-.16c-.56-1-1-1.11-1.52-1.22L87.78,87l-.13.42a5.38,5.38,0,0,1-.34.85l-.2.4.37.25a1.56,1.56,0,0,1,.28.23,3.2,3.2,0,0,1,.55,2.5.28.28,0,0,1-.14.21.32.32,0,0,1-.51-.33,2.63,2.63,0,0,0-.38-1.93,1.08,1.08,0,0,0-.26-.18l-.33-.17-.26.27a5.35,5.35,0,0,1-1,.83l-.36.22,1.09,2.51a.31.31,0,0,1,0,.25.3.3,0,0,1-.17.18.33.33,0,0,1-.44-.17l-1.09-2.5-.42.11a5.27,5.27,0,0,1-1.48.19h-.35l-.13.33a1,1,0,0,0-.06.41c0,1,1.4,1.88,1.42,1.89a.32.32,0,0,1,.09.45.32.32,0,0,1-.45.1c-.07,0-1.66-1.08-1.72-2.4a1.66,1.66,0,0,1,0-.44l.1-.45L81,90.88a6.49,6.49,0,0,1-.79-.32l-.47-.24-.31.69a2.44,2.44,0,0,0-.08,2.1.31.31,0,0,1,0,.25.35.35,0,0,1-.2.16.36.36,0,0,1-.25,0,.35.35,0,0,1-.16-.2,3,3,0,0,1,.11-2.58,2,2,0,0,0,.23-.69l0-.24L79,89.62a5.14,5.14,0,0,1-.89-1.15l-.37-.66-.46.6a4.17,4.17,0,0,0-.84,2,.31.31,0,0,1-.35.31.33.33,0,0,1-.31-.35,4.94,4.94,0,0,1,1.6-3l.2-.19,0-.28a5.29,5.29,0,0,1-.09-.8l0-.64-.62.18a2.21,2.21,0,0,0-1,.57.33.33,0,0,1-.47,0,.32.32,0,0,1,0-.45,2.42,2.42,0,0,1,.92-.65,3.66,3.66,0,0,1,1-.26l.33,0,.09-.32A5.24,5.24,0,0,1,85,81.19l.29.14.25-.2a3.7,3.7,0,0,1,.81-.5,2.38,2.38,0,0,1,.87-.22A.25.25,0,0,1,87.43,80.5Zm-14,9.57a.3.3,0,0,1-.08.24.33.33,0,0,1-.21.11,2,2,0,0,0-.8.29l-.59.34.51.46a5.61,5.61,0,0,1,.67.72l.16.21h.26a4.08,4.08,0,0,1,2.86.91.33.33,0,0,1,0,.47.34.34,0,0,1-.48,0,3.12,3.12,0,0,0-1.42-.66L73.47,93l.26.81A5,5,0,0,1,74,95.22l.12.43.41.06a2.51,2.51,0,0,1,2,1.45.31.31,0,0,1,0,.25.34.34,0,0,1-.14.21.32.32,0,0,1-.25,0,.34.34,0,0,1-.21-.14c-.61-1-1-1.07-1.56-1.16l-.44-.07-.12.44a5.56,5.56,0,0,1-.3.87l-.18.41.38.23a1.46,1.46,0,0,1,.28.21,3.23,3.23,0,0,1,.66,2.48.33.33,0,0,1-.37.28.3.3,0,0,1-.22-.12.37.37,0,0,1-.07-.25,2.55,2.55,0,0,0-.46-1.91.84.84,0,0,0-.26-.17l-.34-.16-.25.28a4.94,4.94,0,0,1-1,.87l-.36.25,1.2,2.45a.36.36,0,0,1,0,.25.35.35,0,0,1-.17.19.34.34,0,0,1-.45-.15l-1.19-2.45-.41.13a5.32,5.32,0,0,1-1.47.24h-.36l-.11.34a1.18,1.18,0,0,0-.05.41c.09,1,1.49,1.81,1.5,1.82a.33.33,0,1,1-.34.57c-.07,0-1.69-1-1.82-2.33a2.23,2.23,0,0,1,0-.44l.08-.45-.44-.12a5.34,5.34,0,0,1-.8-.28l-.48-.22-.28.7a2.42,2.42,0,0,0,0,2.1.31.31,0,0,1,0,.25.35.35,0,0,1-.19.17.33.33,0,0,1-.26,0,.3.3,0,0,1-.16-.19,3.07,3.07,0,0,1,0-2.58,2,2,0,0,0,.2-.7l0-.24-.18-.17a5.08,5.08,0,0,1-.93-1.1l-.4-.65-.44.62a4.11,4.11,0,0,0-.75,2,.35.35,0,0,1-.34.33.34.34,0,0,1-.32-.34,5,5,0,0,1,1.47-3.1l.2-.19-.07-.28a5,5,0,0,1-.12-.79l-.05-.64-.61.2a2.14,2.14,0,0,0-1,.62.36.36,0,0,1-.47.06.34.34,0,0,1-.07-.46,2.52,2.52,0,0,1,.9-.68,3.52,3.52,0,0,1,1-.3l.34-.06.07-.32a5.24,5.24,0,0,1,7.26-3.63l.3.13.24-.21a4.12,4.12,0,0,1,.79-.54,2.4,2.4,0,0,1,.86-.25A.34.34,0,0,1,73.42,90.07Z"/></svg>