<svg id="expanded" xmlns="http://www.w3.org/2000/svg" viewBox="0 0 150 150"><title>Carnation-bold</title><path d="M72,72.73l-.18.13a8,8,0,0,0-1.07,1,10.89,10.89,0,0,0-1,1.3c-.14.22-.27.44-.39.67a9.19,9.19,0,0,0-.72,1.71,6.42,6.42,0,0,0-.23.86,1.84,1.84,0,0,0,.15,1.45,1.25,1.25,0,0,0,.61.5h0a5.45,5.45,0,0,0,4.79,5,8.67,8.67,0,0,0,1.63.15,10.32,10.32,0,0,0,3-.46c.23-.07.46-.15.65-.23a6.15,6.15,0,0,0,.62-.28,8.21,8.21,0,0,0,1.85-1.82,6.47,6.47,0,0,0,1.38-.76c.78-.58,2.62-1.94,1.8-3.76a3.35,3.35,0,0,0-.7-1,18.5,18.5,0,0,0-1.7-1.56c-.58-.5-1.25-1.07-2-1.75-.18-.16-.35-.34-.53-.52A5.92,5.92,0,0,0,72,72.73Zm6,10.38a8.15,8.15,0,0,1-3.72.26,3.56,3.56,0,0,1-3.19-3.52l.11-.06c.32-.2.69-.46,1.08-.72l.51-.35a10.19,10.19,0,0,1,1.68-1,5.35,5.35,0,0,0,.69,2.65,5.2,5.2,0,0,0,1.71,1.84,5,5,0,0,0,1.45.66l.17,0h0C78.39,83,78.22,83.05,78.05,83.11Zm1.16-7.77c.74.7,1.43,1.29,2,1.8s1.16,1,1.51,1.38h0a2.15,2.15,0,0,1,.34.43c.14.33-.67,1-1.16,1.36a3.47,3.47,0,0,1-2.84.68L79,81a3,3,0,0,1-1-.43A3.22,3.22,0,0,1,77,79.4a3.45,3.45,0,0,1-.44-1.73,2,2,0,0,0-.73-1.6,1.62,1.62,0,0,0-1.38-.4l-.08,0a8.43,8.43,0,0,0-2.62,1.38l-.51.35-.57.39a8.13,8.13,0,0,1,.47-1.07,6,6,0,0,1,.33-.54,8.14,8.14,0,0,1,.79-1,6.38,6.38,0,0,1,.84-.75l.1-.07a4,4,0,0,1,5.46.39Z"/><path d="M19,93.35l7,3.12c1.71.77,3.21,1.48,4.54,2.12l-.15.31,2.84,3a10.55,10.55,0,0,1,2.33,4.64c1.71,5.42,4.09,10.67,14.28,15.37a31,31,0,0,0,12.93,2.81,30.46,30.46,0,0,0,12.12-2.47A30.46,30.46,0,0,0,87,124.73a31,31,0,0,0,12.93-2.81c10.19-4.7,12.57-10,14.29-15.37a10.44,10.44,0,0,1,2.32-4.64l2.84-3-.15-.31c1.33-.64,2.83-1.35,4.54-2.12l7-3.12-4.57-5.87a20.61,20.61,0,0,1,.08-4.73c.25-3,.61-7.24-1.18-10.58A30,30,0,0,0,125.32,58c-2-9-6.4-12.12-8.21-13.07a25.72,25.72,0,0,0-5.55-2.13A35.87,35.87,0,0,0,88.42,26a26,26,0,0,0-6.1-.73,27.81,27.81,0,0,0-6.38.76,23.34,23.34,0,0,0-6.31-.79h0a28.77,28.77,0,0,0-6.7.76A35.66,35.66,0,0,0,40,42.43,25.13,25.13,0,0,0,32.65,45C26.73,48,18.29,55.66,24.78,72.7,23.15,76,23.42,80,23.6,82.79a19.38,19.38,0,0,1,0,4.66Zm99.55-11.27c-.22,2.64-.46,5.54.32,8-1.18.54-2.23,1-3.2,1.51-1.22.59-2.28,1.09-3.25,1.52a80.81,80.81,0,0,0-4.12-7.84,20.81,20.81,0,0,0,10.37-7.86A25.16,25.16,0,0,1,118.54,82.08ZM38.47,91.49c-.22.56-.43,1.08-.64,1.57-1-.43-2-.93-3.23-1.51-1-.46-2-1-3.19-1.51.79-2.37.6-5.2.43-7.78a22.76,22.76,0,0,1,0-4.78A21.09,21.09,0,0,0,41.56,85,43.56,43.56,0,0,0,38.47,91.49ZM56,55a9.57,9.57,0,0,1,5.5-2.71l.34-.08a16.52,16.52,0,0,0,7.56-3.27c6.07-4.83,15.26-.18,18.93,2A42.06,42.06,0,0,1,94,55.08a32.21,32.21,0,0,1,5.65,6.25,9.44,9.44,0,0,1,1.54,4.2,10.17,10.17,0,0,1,0,2.4,1,1,0,0,0-.06-.16c-.09-.22-.2-.45-.31-.67-1.85-3.55-4.3-7.42-8.43-9.19a13.61,13.61,0,0,0-4.72-1.08,20,20,0,0,0-3.42.11,10.23,10.23,0,0,0-6.31-4c-4.6-.82-11-.11-16.31,1.8A26.71,26.71,0,0,0,57,56.88a17.19,17.19,0,0,0-4.56,3.77l.36-.77A18.27,18.27,0,0,1,56,55ZM99.86,81.31c-.12,1-.25,2.07-.39,3.07l-.13,1c-.3,2.22-.55,4.18-.59,5.73a5.14,5.14,0,0,1-1.24,3.13c-1.46,1.85-4.15,3.51-7.8,4.82q-.83.3-1.71.57c3.65-2.49,5.27-7,6-10.38a32,32,0,0,0,.42-9.52,24.67,24.67,0,0,0-.59-3.25,14.18,14.18,0,0,0-.58-1.74c-.11-.28-.23-.55-.37-.84l-.08-.39,0-.16-.06-.19,0-.07c.13-.38.24-.72.46-1.54.75-2.65,1.2-5.43-.53-7.75a7.45,7.45,0,0,0-4.17-2.9,9.27,9.27,0,0,0-3.57-.17q-.63.07-1.29.21l-.21,0a21.32,21.32,0,0,0-2.87-1.36c1-.25,2-.44,2.9-.57a18.75,18.75,0,0,1,4.13-.24,11.85,11.85,0,0,1,4,.91C94.45,61,96.61,63.37,99,68c.1.18.19.37.27.55a13.63,13.63,0,0,1,.9,4,38.4,38.4,0,0,1-.12,6.85L100,80c0,.38-.09.75-.13,1.13l-.1.12ZM80.94,105.78c-4.07,1.07-8-.43-11.56-1.75a18.67,18.67,0,0,0-6-1.61c-4,0-7.64-3.83-9.35-9.76,0,0,0-.1,0-.15a24.3,24.3,0,0,1,5.82,4.58,23.1,23.1,0,0,0,9.59,6.31,14.62,14.62,0,0,0,4.27.72,7.66,7.66,0,0,0,4.89-1.6l1.39.3a8.92,8.92,0,0,0,1.63.16,9.93,9.93,0,0,0,1.68-.16c1.27-.22,2.5-.48,3.69-.79A12.92,12.92,0,0,1,80.94,105.78ZM59.83,69.63h0l.05,0a4,4,0,0,1,.73-.3,13.42,13.42,0,0,1,2.56-.59h0c.26,0,.51-.06.78-.07s.77,0,1.16,0a1.74,1.74,0,0,0-.11.18l-.11.21a16.16,16.16,0,0,0-1.3,8.46c0,.44.08,1.7.11,2.64,0,.44,0,.8,0,1,0,1.25-.06,2.25-.12,3.13,0,.29,0,.56-.05.82-1.12-2.35-2.1-4.17-3.43-5a5.54,5.54,0,0,1-1.92-2.36c-.09-.16-.15-.33-.22-.48s-.14-.38-.2-.56C57.06,74.1,57.36,71,59.83,69.63Zm16.23-3.81a8.68,8.68,0,0,1,1.41,2l.41.7c-.61,0-1.27.12-2,.23a15.18,15.18,0,0,0-6.76,2.63c-.26.18-.49.36-.72.55a10.81,10.81,0,0,0-2.81,3.71,13.13,13.13,0,0,1,1.16-5.83l0-.09a8.21,8.21,0,0,1,1.53-2.12A9.3,9.3,0,0,1,72,65.39C74.35,64.59,75.4,65.2,76.06,65.82Zm14.72,8,0,.16a4.06,4.06,0,0,1,.12,1.31,4.22,4.22,0,0,1-.1.62,3.71,3.71,0,0,1-.24.63l-.19.18v.17a.09.09,0,0,0,0,.05,29.6,29.6,0,0,0-1.75,3.76A4.23,4.23,0,0,0,88.72,79l-1,.15,1-.16a1.8,1.8,0,0,0-.06-.31,5.46,5.46,0,0,0-.93-1.94,25.77,25.77,0,0,1-2.16-3.54A11.56,11.56,0,0,0,83.46,70a4.34,4.34,0,0,0-.44-.38l-.29-.18a3.08,3.08,0,0,1,1-.48,3.48,3.48,0,0,1,.41-.1c1.78-.32,4.83,1.79,5.68,3l.12.16A6.38,6.38,0,0,1,90.78,73.81ZM88.94,85.12a13.17,13.17,0,0,1-.14,2.76C88,93,84,96.28,77.46,97.05l-.4,0a9.69,9.69,0,0,1-1.92.13A11.16,11.16,0,0,1,70.72,96a8.85,8.85,0,0,1-1.37-1.12,16.61,16.61,0,0,1-2.17-2.94,18.23,18.23,0,0,0,4.36,1.51,20.35,20.35,0,0,0,4.49.51l.83,0c4.2-.18,7.41-1.76,9.28-4.57l.15-.21c.29-.45.57-.87.82-1.27.8-1.24,1.38-2.22,1.83-3C88.94,84.91,88.93,85,88.94,85.12Zm-20.26,3v.21l.53.22a6.55,6.55,0,0,0,4,1.45,6.8,6.8,0,0,0,.89-.07,5.94,5.94,0,0,0,1.39-.36l.94-.36c.81-.32,1.69-.67,2.59-1,3.37-1.43,7.53-3.49,9.12-6.23a33.61,33.61,0,0,1-2.7,4.85c-.24.39-.51.8-.8,1.23l-.14.22c-1.9,2.84-5.24,3.57-7.71,3.67a18,18,0,0,1-4.8-.44c-2.93-.65-5-1.8-5.6-2.59l0-.08h0L66,88.07a4.14,4.14,0,0,1-.26-.82,11.09,11.09,0,0,1,0-2.92c0-.12,0-.26,0-.39A12.06,12.06,0,0,0,68.68,88.12ZM81.84,71.25a1.8,1.8,0,0,1,.23.2,10.12,10.12,0,0,1,1.73,2.64,30.22,30.22,0,0,0,2.31,3.79,3.19,3.19,0,0,1,.6,1.22l0,.16c.34,2.14-2.53,4.51-8.54,7.06-.87.37-1.74.72-2.53,1l-.94.36a3.71,3.71,0,0,1-.94.24,4.42,4.42,0,0,1-3.49-1.08L70,86.65a10.88,10.88,0,0,1-3.2-5.51,7,7,0,0,1-.14-.84l0-.88a8.34,8.34,0,0,1,3-6c.17-.15.34-.28.56-.44a13.43,13.43,0,0,1,5.92-2.28C79.83,70.17,81.07,70.67,81.84,71.25ZM59.13,81.72c1,.65,2.08,2.88,3.2,5.25.23.5.47,1,.72,1.51.16.35.34.71.53,1.08.33.64.7,1.31,1.08,2A17.85,17.85,0,0,1,60,87.36a.6.6,0,0,0-.08-.08,11.8,11.8,0,0,1-2.18-6.8A6.33,6.33,0,0,0,59.13,81.72Zm5.72,12.35c.39.26.77.51,1.08.75l.27.21a14.75,14.75,0,0,0,1.65,1.14l.1.1a10.84,10.84,0,0,0,1.65,1.35,6.82,6.82,0,0,0,1.11.58l.11.14a9,9,0,0,0,5,3.41,9.44,9.44,0,0,1-5.84-.26,21,21,0,0,1-8.73-5.79,31,31,0,0,0-2.72-2.51,11.73,11.73,0,0,0,3.8.62A10.91,10.91,0,0,1,64.85,94.07Zm21.67,4.18a9.84,9.84,0,0,1-3.85,1.33,12.18,12.18,0,0,1-5.15-.16,2.66,2.66,0,0,1-.65-.28l.45,0,.38,0c7.37-.87,12.13-4.83,13.07-10.84A15.1,15.1,0,0,0,90.94,85a20,20,0,0,1,.84-6.39l0-.15.26-.49c.13.64.24,1.29.32,2a29.83,29.83,0,0,1-.39,8.9C91.36,92,89.89,96.21,86.52,98.25Zm4.91-28h-.35c-1.43-1.61-4.83-3.8-7.32-3.34a4.2,4.2,0,0,0-.65.15,5.13,5.13,0,0,0-1.68.85c-.67.51-1,.5-1.05.48-.33-.06-.8-.88-1.17-1.54a13.27,13.27,0,0,0-1.31-2l.84-.3A39.57,39.57,0,0,1,83.5,63a4.05,4.05,0,0,1,.47-.12c.39-.07.76-.14,1.15-.18a7.08,7.08,0,0,1,2.83.12A5.35,5.35,0,0,1,91,65C92,66.38,92,68.11,91.43,70.25ZM78,62.7c-.72.27-1.4.5-2,.72a6.28,6.28,0,0,0-4.63.08,11.3,11.3,0,0,0-4.46,2.71c-.11.11-.21.22-.31.34h-.76c-.68,0-1.32,0-2,.07l-.85.08h0a16.32,16.32,0,0,0-2.1.43,6.28,6.28,0,0,1,1-1.84,10.19,10.19,0,0,1,1.18-1.19l.33-.29c2.45-2,5.76-3.09,10.09-3.36.34,0,.67,0,1,0a15.46,15.46,0,0,1,6,1.36C79.66,62.09,78.82,62.4,78,62.7Zm-2.27-4.18c-.42,0-.83-.07-1.25-.07h0a27.64,27.64,0,0,1-5.73-.92c-2.37-.56-4.61-1.09-6.8-.7a3.56,3.56,0,0,0-.47.1l.78-.3c5-1.8,11-2.47,15.28-1.71a8.07,8.07,0,0,1,4.34,2.37c-1.19.22-2.46.53-3.84.93A10.22,10.22,0,0,1,75.77,58.52Zm-13.44.28a14.38,14.38,0,0,1,5.57.57,15.64,15.64,0,0,0-6.13,3.23l-.34.3h0A10.15,10.15,0,0,0,60.36,64,9.81,9.81,0,0,0,58.5,68.1a6.06,6.06,0,0,0-2.25,2.48c0-.31.07-.63.11-1,.31-3,.64-6.08,2.87-8.9a1.47,1.47,0,0,0,.1-.13A4.83,4.83,0,0,1,62.33,58.8ZM55.47,74.43a10.43,10.43,0,0,0,.44,2.67h0a.59.59,0,0,0,0,.13l0,.12c0,.27-.07.54-.08.74a14.61,14.61,0,0,0,2.56,10.45l.07.09a17.4,17.4,0,0,0,3.11,3.13,9.51,9.51,0,0,1-6.76-3.52,11.87,11.87,0,0,1-1.61-2.66c-.16-.37-.31-.76-.44-1.16a10.34,10.34,0,0,1-.49-2.85,6.84,6.84,0,0,1,.29-2.32,3,3,0,0,1,.31-.77l.13-.24h0a3.29,3.29,0,0,1,.57-.7A7.63,7.63,0,0,0,55.47,74.43Zm-6.28-1.84a23.2,23.2,0,0,0,1.5-2.44A12.8,12.8,0,0,0,51.22,69,13,13,0,0,0,52,66.1c.57-3.62,3.58-6.08,6-7.5.44-.26.9-.5,1.39-.74a7.61,7.61,0,0,0-1.66,1.52l-.07.08c-2.61,3.28-3,6.83-3.31,10a23.17,23.17,0,0,1-.64,3.94,5.64,5.64,0,0,1-1.57,2.71,5.13,5.13,0,0,0-1.08,1.45l0,.08a4.86,4.86,0,0,0-.44,1.1,8.75,8.75,0,0,0-.37,2.93,12.76,12.76,0,0,0,.58,3.4c.16.48.33.94.52,1.37a13.83,13.83,0,0,0,1.89,3.11c.18.21.37.4.55.6l-.39-.22-.32-.18a9,9,0,0,1-4.35-5.21c-.23-.56-.46-1.2-.75-2.1l-.15-.51,0-.13a13,13,0,0,1-.59-4.3A9,9,0,0,1,49.19,72.59ZM40.8,96.21l.22-.48c.39-.84.77-1.76,1.16-2.74a29,29,0,0,1,4.47-8.26c.07.19.14.36.21.53a11,11,0,0,0,4.69,5.87c.15.68.32,1.41.52,2.09,2,6.91,6.32,11.2,11.27,11.2a17.6,17.6,0,0,1,5.33,1.48c2.73,1,6,2.24,9.39,2.24.37,0,.75,0,1.13,0-.19,2.11-1.55,3.55-5.11,5.72a22.79,22.79,0,0,1-20.64.85c-7.83-3.61-8.85-6.81-10-10.52a19.1,19.1,0,0,0-3.22-6.66Zm38.3,19c2.41-1.89,4.23-4.33,4.1-8.14a17.09,17.09,0,0,0,6.51-5.2,4.11,4.11,0,0,1,.64-.58c.23-.19.46-.38.68-.6,3.67-1.4,6.45-3.19,8-5.21a7.09,7.09,0,0,0,1.67-4.34,54.74,54.74,0,0,1,.57-5.5l.14-1,.21-1.63a22.43,22.43,0,0,1,1.73,2.08,65.91,65.91,0,0,1,5.83,10.63l.22.47c.21.43.41.86.6,1.28a19.28,19.28,0,0,0-3.22,6.66c-1.17,3.71-2.18,6.91-10,10.52A23.12,23.12,0,0,1,79.1,115.23Zm39.07-48.07c-.58,5.14-3.21,11.72-12.26,14.66a24.72,24.72,0,0,0-3.61-3.68l-.15.18a36.83,36.83,0,0,0,0-5.93,17.81,17.81,0,0,0,1-7.08,11.39,11.39,0,0,0-1.86-5.08A31.7,31.7,0,0,0,96.8,54.9a12,12,0,0,1,10.58-4.74A16.58,16.58,0,0,1,113.66,52C116,53.26,119,59.92,118.17,67.16ZM93.77,52.28a42.35,42.35,0,0,0-4.4-3.06c-8.51-5.15-16.24-5.84-21.21-1.9A12.67,12.67,0,0,1,64,49.53a22.5,22.5,0,0,1,0-3.76c.32-3.76,5.43-9.28,12.5-11.51a19.12,19.12,0,0,1,10.25-.46,27.66,27.66,0,0,1,17.71,12.42A15.9,15.9,0,0,0,93.77,52.28ZM60,45.42a29.09,29.09,0,0,0,.07,5.09,11.75,11.75,0,0,0-3.85,1.61,16,16,0,0,0-9-5.67A27.62,27.62,0,0,1,65.08,33.8a20.47,20.47,0,0,1,4.14-.52C64.11,36.47,60.42,41.14,60,45.42ZM42.81,50.16h.09c4.15-.34,7.68,1.29,10.49,4.8A23.92,23.92,0,0,0,51,59c-1.71,3.58-2.45,6.28-2.42,8.76a16.05,16.05,0,0,0,.15,1.77,22.35,22.35,0,0,1-1.19,1.92,11,11,0,0,0-2.35,5.87,13,13,0,0,0,.22,3c-.49.43-.94.87-1.37,1.33-4.93-1.83-8.25-4.6-10.09-8.47L33.83,73c-7.33-15.62.28-19.6,2.78-20.91A16.63,16.63,0,0,1,42.81,50.16Z"/></svg>