<svg id="expanded" xmlns="http://www.w3.org/2000/svg" viewBox="0 0 150 150"><title>Chrysanthemum-bold</title><path d="M130.11,80.06c2.5-4.32,2.74-10.18.58-13.93-.18-.36-.57-1.62-.86-2.53-1.46-4.71-4.18-13.44-12.68-13.58l-.52-.9a10.61,10.61,0,0,0,2.07-6.73c-.15-5.76-4.67-11.81-9.87-13.21A23.81,23.81,0,0,1,106.42,28c-3.06-1.61-6.88-3.61-11-3.61a10.61,10.61,0,0,0-7.72,3.15l-.34,0-.49-.21a10.68,10.68,0,0,0-1.48-4.17c-2.75-4.49-8.23-6.08-12.08-6.08a12.23,12.23,0,0,0-6.07,1.47c-.35.18-1.6.57-2.51.86-4.34,1.35-10.28,3.19-12.68,8.56a10.53,10.53,0,0,0-.91,4c-.34.2-.67.4-1,.61a10.59,10.59,0,0,0-6.34-2c-5.78,0-12.09,4.62-13.51,9.88a26.29,26.29,0,0,1-1.18,2.39c-2.11,4-5,9.52-2.9,15a10.37,10.37,0,0,0,2.2,3.49c-.1.37-.2.73-.29,1.1a11.08,11.08,0,0,0-7.92,5.66c-2.49,4.32-2.74,10.18-.58,13.93.19.36.58,1.62.87,2.53C22,89.22,24.69,98,33.21,98.09c.14.31.3.62.46.93a10.58,10.58,0,0,0-2,6.7c.15,5.75,4.67,11.8,9.87,13.2a26.29,26.29,0,0,1,2.39,1.18c3.07,1.61,6.9,3.62,11,3.62a10.62,10.62,0,0,0,7.53-3l1.06.25a10.66,10.66,0,0,0,1.44,4c2.76,4.49,8.24,6.08,12.09,6.08a12.14,12.14,0,0,0,6-1.46,26.67,26.67,0,0,1,2.55-.87c4.33-1.35,10.27-3.19,12.67-8.56a10.52,10.52,0,0,0,.91-4.08l.89-.59a10.57,10.57,0,0,0,6.44,2.1c5.79,0,12.1-4.62,13.51-9.89.12-.36.73-1.52,1.17-2.37,2.12-4,5-9.52,2.91-15a10.38,10.38,0,0,0-2.18-3.47q.18-.57.33-1.14A11.06,11.06,0,0,0,130.11,80.06ZM90.82,117.22c-.93,2.08-4.87,3.3-7.75,4.2A21.7,21.7,0,0,0,78.94,123c-1.33.77-5,.52-6.83-1.22a2.8,2.8,0,0,1-.72-3.08c.42,0,.84,0,1.22,0a8.36,8.36,0,0,0,3.63-.7,10,10,0,0,0,3.21.47,29.35,29.35,0,0,0,8.47-1.59c1.11-.39,2.13-.76,3.09-1.13A2.71,2.71,0,0,1,90.82,117.22ZM59.18,31.55c.93-2.07,4.87-3.3,7.75-4.19a22.4,22.4,0,0,0,4.13-1.56c1.33-.77,5-.52,6.83,1.22a2.77,2.77,0,0,1,.73,3c-1.06-.08-2-.1-2.77-.08-6.76.15-11.1.65-13.37,2.59A10.36,10.36,0,0,0,59,33,2.83,2.83,0,0,1,59.18,31.55Zm41,74.28s0,0,0,0-.11-.24-.18-.38a.08.08,0,0,0,0,0l.11-.08c.15-.09.29-.19.43-.29l.18-.13c.19-.14.38-.28.56-.43l0,0c.17-.14.33-.27.48-.42l.15-.14c.12-.11.24-.23.35-.35l.13-.15c.15-.16.29-.33.42-.5v0a4.21,4.21,0,0,0,.34-.52l.09-.16c.07-.14.14-.28.2-.42s.05-.11.07-.17a4.62,4.62,0,0,0,.19-.6c0-.13,0-.27.07-.41s0-.1,0-.14,0-.22,0-.33v-.18c0-.11,0-.23,0-.35a1.23,1.23,0,0,0,0-.19c0-.14,0-.28-.08-.42l0-.13a12.21,12.21,0,0,0,1.15-1.35l.07,0,.27-.14a4.59,4.59,0,0,0,.49-.26l.31-.19.44-.32.31-.25.43-.38.3-.29c.14-.15.28-.3.41-.46s.2-.22.29-.34.28-.35.42-.54l.26-.36.45-.68.21-.33c.22-.36.43-.74.64-1.13s.37-.67.59-1l.11-.19.06-.11.13-.06a.92.92,0,0,1,.32.44c.56,1.88-3.86,7.61-5.53,9.76A23.31,23.31,0,0,1,100.22,105.83Zm-31.4,2.32-.17-.18h0a1.79,1.79,0,0,1-.06-1.89l.23.08,1.05.38.33.11c.42.13.83.26,1.23.36l.14,0c.34.09.67.16,1,.22l.3.06.84.12.19,0c.28,0,.56,0,.82,0H75a5.79,5.79,0,0,0,.61,0l.28,0a4.28,4.28,0,0,0,.54-.12l.24-.07a4.7,4.7,0,0,0,.7-.29l.42-.24.12-.09.34-.26.12-.11a3.71,3.71,0,0,0,.43-.45l.06-.08a4.69,4.69,0,0,0,.34-.49l.06-.08.36,0,.34,0,.26,0A6.12,6.12,0,0,1,82,108.88h0c0,.43-.08.54-.12.58-.4.38-1.7.76-5.67.36l-.29,0c-.83-.09-1.59-.17-2.21-.22a16.19,16.19,0,0,1-2.24-.28A5.47,5.47,0,0,1,68.82,108.15ZM40,94.38h0a3.45,3.45,0,0,0,.44-.13h0l.1.21.12.25c.15.31.3.62.47.91l0,0c.17.29.36.57.55.84l.14.2a9.09,9.09,0,0,0,.63.74h0a5.09,5.09,0,0,0,.72.6l.19.14a5,5,0,0,0,.82.44,3.7,3.7,0,0,0,.64.2l.15,0a4.64,4.64,0,0,0,.79.09h0l.47,0h0a12.49,12.49,0,0,0,1.16,1.37l0,.08c0,.1.06.2.09.3s.11.35.18.52.1.22.15.33.15.33.24.49l.2.34c.09.16.2.32.31.48l.24.34c.12.16.25.33.39.49l.28.33.48.5.3.31.61.55.29.25c.32.27.66.54,1,.8l.58.45.62.49s0,.12.05.16a.87.87,0,0,1-.49.23c-2,.3-6.91-5-8.78-7A23.25,23.25,0,0,1,40,94.38ZM42.5,50.53v0c.07.1.17.21.27.33l0,0-.08.1c-.12.13-.23.26-.34.4l-.15.17-.43.56,0,0c-.13.18-.25.36-.36.53l-.11.18a4.63,4.63,0,0,0-.24.43l-.1.18c-.09.2-.19.39-.26.59v0c-.07.2-.14.39-.19.59a1.16,1.16,0,0,0,0,.18,3.58,3.58,0,0,0-.09.45,1.37,1.37,0,0,0,0,.19,4.43,4.43,0,0,0,0,.63c0,.13,0,.27,0,.41a.59.59,0,0,0,0,.14c0,.11,0,.21.07.32s0,.12,0,.18.07.21.12.32l.06.18c.06.13.13.26.2.4a.93.93,0,0,1,.05.1,12.41,12.41,0,0,0-.78,1.64s0,0-.05,0l-.22.18-.42.39c-.08.08-.15.17-.23.26l-.35.42c-.08.11-.16.21-.23.32s-.21.31-.32.48l-.21.36c-.1.18-.19.36-.28.55s-.13.26-.19.39-.18.42-.26.63l-.17.42c-.08.25-.17.51-.25.77l-.12.38c-.11.4-.22.82-.32,1.25s-.2.78-.32,1.23l-.07.27-.11.1a.93.93,0,0,1-.41-.35c-1-1.68,1.75-8.35,2.81-10.87A22.8,22.8,0,0,1,42.5,50.53Zm15.15-7.38c.63-1.11,4.29-1.88,6.06-2.25l.89-.2.16-.05.62-.14.19,0c.37-.09.71-.16,1-.22l.31,0,.59-.08.31,0,.49,0h.41l.58,0,.16,0a3.51,3.51,0,0,1,.42.08l.11,0,.34.12h0l.25.13a1.63,1.63,0,0,1,.7,1.51l-1,0h-.71c-.26,0-.52,0-.76,0l-.53,0-.57.07c-.17,0-.33.06-.48.09l-.51.11-.42.12-.48.18-.34.14a5,5,0,0,0-.46.26l-.26.14a5,5,0,0,0-.62.49c-.1.1-.21.21-.32.34l-.1.11-.24.33-.09.14a4.68,4.68,0,0,0-.3.54.08.08,0,0,1,0,0c-.07.19-.14.38-.2.59a.32.32,0,0,0,0,.09h-.1l-.26,0-.5.07-.29,0-.51.11-.29.08-.6.18-.22.07,0,0a5.89,5.89,0,0,1-2.39-2.71.32.32,0,0,1,0-.09C57.56,43.31,57.62,43.2,57.65,43.15Zm53.8,13.72A23,23,0,0,1,114,64.14h0a3,3,0,0,0-.51,0c0-.08,0-.17,0-.25s0-.17,0-.25c-.07-.35-.14-.7-.23-1h0a9,9,0,0,0-.32-1l-.09-.23a7.13,7.13,0,0,0-.41-.88h0a5.25,5.25,0,0,0-.53-.77l-.15-.18a5.15,5.15,0,0,0-.68-.64c-.1-.08-.22-.15-.34-.23l-.13-.07-.28-.15-.17-.08-.32-.11-.18-.07a3.86,3.86,0,0,0-.49-.1l-.07,0a11.15,11.15,0,0,0-.77-1.61v-.08c0-.1,0-.2,0-.3s0-.37,0-.56l-.06-.35a5.17,5.17,0,0,0-.11-.54c0-.12-.06-.25-.1-.38s-.11-.36-.17-.54l-.15-.4c-.07-.18-.16-.37-.25-.56s-.12-.27-.19-.4-.21-.4-.32-.6-.14-.26-.22-.39l-.44-.68-.22-.33c-.24-.35-.5-.69-.77-1s-.46-.61-.72-1l-.2-.28h0V48a1,1,0,0,1,.53-.11C106.73,48.11,110.16,54.47,111.45,56.87ZM113.28,87h0a4.2,4.2,0,0,0-.38-.24l0,0,.06-.14c.07-.15.13-.31.2-.46a1.43,1.43,0,0,1,.08-.22c.08-.2.15-.4.22-.6a.19.19,0,0,1,0-.07c.07-.22.13-.43.19-.65s0-.13,0-.2a4.1,4.1,0,0,0,.1-.48,1.18,1.18,0,0,0,0-.2c0-.21,0-.41.07-.62v0q0-.32,0-.63a1.1,1.1,0,0,0,0-.18,3.78,3.78,0,0,0-.06-.47l0-.18a4.63,4.63,0,0,0-.17-.61,3.89,3.89,0,0,0-.16-.38l-.07-.13c0-.09-.1-.19-.16-.28l-.1-.15a2.83,2.83,0,0,0-.2-.28l-.12-.15c-.1-.11-.2-.21-.32-.32a.6.6,0,0,0-.08-.08,13.07,13.07,0,0,0,.24-1.78l.09-.14.18-.31a4.53,4.53,0,0,0,.23-.44,3.54,3.54,0,0,0,.16-.34l.18-.49c0-.12.09-.25.12-.37s.1-.36.14-.54.07-.27.09-.41.07-.4.1-.61,0-.27,0-.42,0-.45,0-.68l0-.43c0-.26,0-.54,0-.81s0-.25,0-.38c0-.41,0-.84-.08-1.27,0-.26,0-.56-.06-.87,0-.1,0-.2,0-.3s0-.23,0-.35v0l.09-.14a.88.88,0,0,1,.49.22c1.5,1.25.91,8.47.69,11.19A23.45,23.45,0,0,1,113.28,87Zm-6,1.69c-.25.43-.47.83-.66,1.18a16.12,16.12,0,0,1-.9,1.52c-1.23,1.85-2.2,2.31-2.61,2.43a1.78,1.78,0,0,1-1.75-.71l.09-.1.42-.44c.25-.27.5-.53.72-.78l.4-.46c.2-.24.39-.46.56-.69l.34-.45c.16-.21.3-.42.44-.63l.27-.43c.12-.2.23-.4.33-.59s.14-.27.2-.41.16-.39.22-.58a2.72,2.72,0,0,0,.13-.37c.06-.2.1-.41.14-.61s0-.2,0-.3a5.19,5.19,0,0,0,0-.88,4.49,4.49,0,0,0-.06-.48l0-.15a3.2,3.2,0,0,0-.1-.42c0-.05,0-.1-.05-.15a3.56,3.56,0,0,0-.24-.58s0-.07,0-.11a5.7,5.7,0,0,0-.31-.5.47.47,0,0,0-.06-.09,2,2,0,0,0,.16-.24l.24-.38.12-.18a6.22,6.22,0,0,1,4-.1c.4.15.45.29.47.34.27.76-.39,2.54-2,5.29l0,.1-.09.18a.22.22,0,0,0,0,.08Zm-7.42,11.34a.9.9,0,0,1-.13.31.47.47,0,0,1-.06.09c-.06.08-.11.16-.19.25a1.14,1.14,0,0,1-.11.11l-.27.27-.17.14-.34.27-.21.14-.41.29-.27.17c-.16.1-.31.2-.49.3l-.31.18-.56.32-.33.18-.67.36-.26.13-.08,0-.53.27c-.53.27-1,.51-1.4.74a14.9,14.9,0,0,1-2.19,1A4.79,4.79,0,0,1,88,106L88,106a1.78,1.78,0,0,1-1.08-1.55l.08,0c.47-.1.92-.21,1.34-.32l.24-.06c.42-.11.81-.23,1.19-.35l.17-.06c.38-.13.75-.26,1.08-.4l.06,0c.33-.14.64-.28.93-.43l.1,0a7.32,7.32,0,0,0,.78-.47l.12-.08a6.72,6.72,0,0,0,.64-.49.94.94,0,0,0,.1-.1,4.56,4.56,0,0,0,.53-.55l.06-.08a5.47,5.47,0,0,0,.44-.63c.07-.13.15-.28.22-.43s0-.1.05-.14.1-.27.14-.41l0-.15a3.8,3.8,0,0,0,.11-.62.34.34,0,0,0,0-.1,5.72,5.72,0,0,0,0-.59V97.8c.14,0,.29-.13.43-.19l.3-.14.14-.06a6.2,6.2,0,0,1,3.43,2.11C99.9,99.87,99.87,100,99.85,100.06ZM76,102.58c-.14.62-.35.73-.44.77-.43.22-1.93.5-6.64-1.43l-.39-.15h0c-.56-.23-1.15-.49-1.74-.76a8.45,8.45,0,0,1-1.31-.72,4.86,4.86,0,0,1-.51-.37l-.06,0c-.13-.11-.23-.22-.32-.31l0,0a4.89,4.89,0,0,0,.21-.68s0-.06,0-.09a.19.19,0,0,1,0-.08,5.93,5.93,0,0,0,.12-.83,5.08,5.08,0,0,1,3.76-.34c3.16.85,5.8,2.23,6.87,3.59a2.59,2.59,0,0,1,.38.62.56.56,0,0,1,0,.12,1,1,0,0,1,.07.44v.14A.82.82,0,0,1,76,102.58ZM59.72,99h-.1c-.58-.13-2.06-.93-4.94-5.17q-.51-.73-1-1.59a9.92,9.92,0,0,1-.7-1.3,6.64,6.64,0,0,1-.25-.68c0-.07,0-.12,0-.18s0-.2-.06-.28a5,5,0,0,0,.56-.47,6.59,6.59,0,0,0,.66-.74,5,5,0,0,1,3.34,1.77c2.16,2.4,3.61,5,3.81,6.71v0a2.51,2.51,0,0,1,0,.79.29.29,0,0,0,0,.09,1.23,1.23,0,0,1-.19.4l-.06.08a.57.57,0,0,1-.12.13C60.06,99,59.82,99,59.72,99ZM39.91,69.69,40.1,69c.13-.51.26-1,.35-1.39L40.6,67c.06-.23.13-.45.19-.66.74-2.42,1.63-3.19,2-3.42a1.79,1.79,0,0,1,1.89.22.75.75,0,0,0-.07.12c-.1.17-.18.33-.27.49-.18.33-.36.66-.52,1s-.17.35-.25.53-.26.55-.38.82-.14.35-.2.52a6.93,6.93,0,0,0-.26.72c-.06.16-.11.33-.16.49s-.11.44-.16.65l-.09.45c0,.21-.05.42-.07.62l0,.39c0,.21,0,.42,0,.62s0,.21,0,.31a5.69,5.69,0,0,0,.2.86,2.82,2.82,0,0,0,.18.45l.06.14a2.71,2.71,0,0,0,.21.37l.08.15a5.41,5.41,0,0,0,.38.49l.09.09c.12.13.26.26.4.39l.09.08a3,3,0,0,0-.1.32c0,.13-.09.26-.13.4s0,.13-.06.21a6.26,6.26,0,0,1-3.86,1.12h0l-.17,0-.08,0-.11,0h0l-.07,0h0l0,0a1.11,1.11,0,0,1-.14-.31l0-.15a1.72,1.72,0,0,1,0-.26,1.41,1.41,0,0,1,0-.21c0-.11,0-.2,0-.32s0-.17,0-.25,0-.26,0-.4,0-.2,0-.3,0-.29.06-.46l.06-.36.09-.51c0-.13.06-.29.09-.44s.08-.35.12-.54.09-.38.14-.58.08-.32.13-.5l.09-.34a.14.14,0,0,1,0-.06ZM56,52.85c.77-.46,1.74-1,3-1.56h0c.52-.25,1.07-.5,1.66-.76l.12-.05a7.46,7.46,0,0,1,2.49-.65h.05l0,.07c.09.16.19.32.29.47a1.7,1.7,0,0,0,.15.22,5.38,5.38,0,0,0,.54.64,5.06,5.06,0,0,1-2.28,3c-2.74,1.78-5.52,2.82-7.26,2.7h0a1.86,1.86,0,0,1-.26,0l-.15,0a2,2,0,0,1-.39-.13.84.84,0,0,1-.36-.23l-.14-.13-.08-.1a3.62,3.62,0,0,1-.2-.34h0a.9.9,0,0,1-.1-.41h0a.65.65,0,0,0,0-.11l.09-.22C53.39,54.79,54.05,54,56,52.85Zm11-6.36,0,0,.14-.09h0l.19-.08.08,0,.24-.07.09,0,.28-.06.15,0,.35,0,.2,0,.39,0h.74a23.5,23.5,0,0,1,2.78.15c1.07.12,2.19.28,3.34.47l.56.11.15,0,.34.08.08,0a1.14,1.14,0,0,0,0,.26,1.36,1.36,0,0,0,0,.2,5.15,5.15,0,0,0,0,.68,7.65,7.65,0,0,0,.15.92c0,.1.06.2.09.3s.12.42.2.63l0,0a5.54,5.54,0,0,1-2.51.57c-3.27,0-6.17-.64-7.58-1.7a2.45,2.45,0,0,1-.35-.29,1.61,1.61,0,0,1-.44-.76,1.21,1.21,0,0,1,0-.25c0-.63.16-.8.23-.86A.73.73,0,0,1,67,46.49ZM79.17,38.7A24.68,24.68,0,0,1,83.34,40l2,.76c.42.14.8.28,1.15.42,2.41,1,3.1,2,3.29,2.41a1.84,1.84,0,0,1-.42,1.86l-.1-.07L89,45.14c-.34-.23-.67-.46-1-.66l-.4-.26-.89-.53-.3-.17c-.38-.2-.75-.38-1.1-.53l-.19-.08c-.28-.12-.56-.22-.83-.31l-.3-.08a6.62,6.62,0,0,0-.71-.17l-.24,0a5.07,5.07,0,0,0-.86-.07h0a5.77,5.77,0,0,0-.94.08l-.42.11-.14,0-.33.12-.16.07a2.79,2.79,0,0,0-.34.18l-.15.08a3.72,3.72,0,0,0-.49.35h0l-.09,0a10.88,10.88,0,0,0-1.29-.39l-.07,0a6,6,0,0,1-.53-3.55l0-.12c.09-.34.19-.39.25-.42a2.18,2.18,0,0,1,1.22-.11A4.64,4.64,0,0,1,79.17,38.7Zm17.62,7.21.09,0,.29.15.12.09.31.23.16.15a4,4,0,0,1,.32.28l.21.22.32.33.28.32.29.34.39.48c.08.1.16.19.24.3l.5.65.17.23.18.24.09.14.48.65c.29.4.56.76.8,1.07,2.2,2.79,2.25,4.29,2.17,4.8h0A1.78,1.78,0,0,1,102.84,58l0-.07c-.17-.46-.35-.88-.53-1.29l-.09-.21c-.18-.4-.36-.77-.54-1.12a1.3,1.3,0,0,0-.08-.17c-.19-.35-.37-.69-.56-1l0-.06c-.19-.3-.38-.58-.57-.85l-.06-.08a8.29,8.29,0,0,0-.58-.7l-.1-.11a6,6,0,0,0-.59-.55L99,51.65a6.37,6.37,0,0,0-.62-.44l-.09,0a6.3,6.3,0,0,0-.69-.34c-.2-.07-.44-.14-.69-.2H96.8a4.12,4.12,0,0,0-.81-.08h-.35l-.32,0-.22,0-.16,0c0-.09-.12-.17-.18-.26a2.92,2.92,0,0,0-.21-.32l-.13-.2A6.19,6.19,0,0,1,96,46.12c.3-.31.45-.3.5-.29A.79.79,0,0,1,96.79,45.91Zm13,21.73h0V68c0,.81.09,1.55.14,2.17.33,3.53-.44,4.81-.79,5.2a.22.22,0,0,0-.07.09,1.87,1.87,0,0,1-1.8.29l0-.14c0-.21.07-.41.11-.61s.13-.7.18-1,.06-.41.08-.61.08-.59.1-.87,0-.38,0-.57,0-.52,0-.76,0-.35,0-.51,0-.46,0-.68,0-.3,0-.45-.08-.41-.12-.61-.06-.26-.1-.38a5.77,5.77,0,0,0-.22-.58c0-.09-.07-.2-.11-.28a4.75,4.75,0,0,0-.45-.76c-.09-.13-.2-.25-.31-.38l-.11-.11c-.1-.1-.2-.2-.32-.3l-.11-.1a4,4,0,0,0-.52-.36l-.11-.06a5,5,0,0,0-.52-.25.47.47,0,0,1-.1-.05,2.8,2.8,0,0,1,0-.29c0-.15,0-.29,0-.44v-.21a6.2,6.2,0,0,1,3.26-2.26l.07,0,.26,0a.47.47,0,0,1,.32.07c.56.42,1,1.9,1.16,4.41C109.75,66.88,109.78,67.25,109.8,67.64ZM84.5,100.85h0c-.59.11-1.21.22-1.89.31a9,9,0,0,1-1.43.12,5.92,5.92,0,0,1-.64,0h-.08a3.53,3.53,0,0,1-.44-.08h0a4,4,0,0,0-.16-.57l0-.1a6.46,6.46,0,0,0-.42-.94h0a5.12,5.12,0,0,1,3-2.32c3.11-1,6.07-1.29,7.72-.74a2.52,2.52,0,0,1,.72.36,1.24,1.24,0,0,1,.33.37l.07.12a.39.39,0,0,1,.07.16c.22.59.1.79,0,.88C91,98.79,89.87,99.89,84.5,100.85ZM47.37,79.64h0c0-.61,0-1.25,0-1.92a9.71,9.71,0,0,1,.12-1.48,5.31,5.31,0,0,1,.12-.6l.06-.17a2.53,2.53,0,0,1,.12-.33l0,0a4.91,4.91,0,0,0,.67-.08,6.59,6.59,0,0,0,1-.27h0A4.92,4.92,0,0,1,51.31,78c.52,3.24.33,6.21-.47,7.75h0a2.53,2.53,0,0,1-.47.64,1.52,1.52,0,0,1-.5.31l-.21.06c-.62.12-.8,0-.88-.09s-.1-.1-.17-.17C48.18,86,47.47,84.41,47.37,79.64Zm34.8-33.4h.14l.14,0h0l.16,0h0l.18.05h0l.21.07,0,0,.24.08,0,0c.17.06.36.15.57.25l.07,0,.22.11.19.1.23.13.24.13.23.14.28.17.24.16L86,48l.26.17.35.25.27.19.41.29.27.2.5.38.22.17c.48.37,1,.78,1.51,1.2a8.71,8.71,0,0,1,1.06,1,4.61,4.61,0,0,1,.39.49l0,.06a3.5,3.5,0,0,1,.23.38l0,0a4.87,4.87,0,0,0-.36.59,5.75,5.75,0,0,0-.43.94,5.09,5.09,0,0,1-3.71-.65,16.55,16.55,0,0,1-5.24-4.4,3.51,3.51,0,0,1-.69-1.66,1.35,1.35,0,0,1,.14-.72l.1-.14c.27-.46.47-.49.57-.51A.72.72,0,0,1,82.17,46.24Zm18.14,34.39-.55,0h0A5,5,0,0,1,98.82,77c.34-3.25,1.29-6.07,2.46-7.34a2.57,2.57,0,0,1,.69-.55,1.31,1.31,0,0,1,.46-.14,1,1,0,0,1,.25,0c.64,0,.78.24.84.33.29.39.82,1.89-.48,7.18v0q-.19.87-.48,1.86a7.94,7.94,0,0,1-.5,1.38,3.63,3.63,0,0,1-.29.56l0,.06a3.3,3.3,0,0,1-.26.37l0,0a4.92,4.92,0,0,0-.67-.1A3.62,3.62,0,0,0,100.31,80.63Zm-29,10c0,.14,0,.17-.12.21s-1.39.84-6-.29c-2.46-.61-3.8-1.58-4-2.28a1.31,1.31,0,0,1,.19-1l.14,0,.25-.06a2.44,2.44,0,0,0,.46-.14l.25-.1a2.94,2.94,0,0,0,.46-.25,2.25,2.25,0,0,0,.21-.12,5.66,5.66,0,0,0,.62-.5,3.08,3.08,0,0,0,.37-.42l.12-.19a2.08,2.08,0,0,0,.19-.29c2.38.18,5.61,2.88,6.7,4.93a2.52,2.52,0,0,1,.21.46Zm-12.8-20c-.09-.12-.84-1.39.3-6,.6-2.45,1.57-3.78,2.27-4a.85.85,0,0,1,.23,0,1.69,1.69,0,0,1,.74.22v0a4.76,4.76,0,0,0,.13.57l0,.12c0,.15.11.29.17.44l.09.17c.07.13.14.25.22.37l.11.16a5.84,5.84,0,0,0,.39.48,3.79,3.79,0,0,0,.42.38l.13.09a3.52,3.52,0,0,0,.38.24c-.17,2.38-2.87,5.61-4.91,6.71h0c-.29.16-.45.2-.43.21C58.6,70.71,58.58,70.68,58.53,70.6Zm34.72,4s0,0-.08,0l-.47-.2-.18-.06-.43-.1-.18,0a6.12,6.12,0,0,0-.63-.06H91.2a2.31,2.31,0,0,0-.37,0H90.7a3.57,3.57,0,0,0-.55.11c-1.56-1.81-1.93-6-1.26-8.24.09-.31.17-.44.15-.43.15-.14.2-.13.28-.12s1.58.41,4.05,4.48c1.32,2.16,1.57,3.79,1.24,4.45a1.29,1.29,0,0,1-.81.55l0,0A4.33,4.33,0,0,0,93.25,74.55ZM65.38,81.32A16.83,16.83,0,0,0,65,76.39h5.59l-5,5ZM85,72.39H80.24L84.59,68A16.39,16.39,0,0,0,85,72.39Zm-7.61-2.83V63.25a17.15,17.15,0,0,0,3.51,2.8Zm-4,0-4.77-4.77.53,0a16.83,16.83,0,0,0,4.24-.54Zm-6.75-1.09,3.92,3.92H63.41A16.81,16.81,0,0,0,66.66,68.47ZM81.93,84a16.81,16.81,0,0,0-4.52.3V79.22L82,83.79A2.25,2.25,0,0,1,81.93,84Zm1.73-4.2-3.42-3.42h6.35A16.43,16.43,0,0,0,83.66,79.81Zm1.15-21.6c2.46.61,3.79,1.58,4,2.28a1.28,1.28,0,0,1-.18,1h0a3.87,3.87,0,0,0-.59.13l-.09,0a3.9,3.9,0,0,0-.47.2l-.17.08-.39.24-.15.1a4.72,4.72,0,0,0-.5.41,5,5,0,0,0-.37.42l-.14.22c-.06.09-.12.16-.17.25-2.37-.17-5.61-2.87-6.7-4.89a3.52,3.52,0,0,1-.21-.49v0a.63.63,0,0,1,0-.13s0,0,0,0l0,0a.05.05,0,0,1,0,0C78.91,57.83,80.18,57.08,84.81,58.21Zm-9.33-2.58a3.21,3.21,0,0,0-.31.5l0,.1a4.32,4.32,0,0,0-.19.45l-.06.18c0,.14-.08.29-.11.44l0,.17c0,.21,0,.42-.06.64h0a5.07,5.07,0,0,0,0,.55l0,.12a3.58,3.58,0,0,0,.09.45c-1.8,1.56-6,1.94-8.23,1.27-.27-.08-.4-.14-.44-.15h0c-.13-.14-.12-.18-.1-.28s.39-1.57,4.47-4c2.16-1.31,3.79-1.57,4.45-1.24a1.32,1.32,0,0,1,.54.81S75.49,55.62,75.48,55.63ZM69.58,83l3.83-3.82v6.67l-.31.2A17.3,17.3,0,0,0,69.58,83Zm4.94,10.11a3.76,3.76,0,0,0,.31-.5l0-.11c.07-.14.13-.29.19-.44l.06-.19c0-.14.07-.28.1-.42a1.29,1.29,0,0,0,0-.19,6,6,0,0,0,.06-.61v0h0V90.6a4.15,4.15,0,0,0,0-.49l-.06-.27c0-.1,0-.2-.06-.3,1.8-1.56,6-1.94,8.21-1.27a2.2,2.2,0,0,1,.5.19c.1.11.09.15.08.23h0c0,.16-.41,1.6-4.48,4.06-2.16,1.32-3.79,1.57-4.44,1.24a1.29,1.29,0,0,1-.55-.82ZM85.84,85c.18-2.38,2.88-5.61,4.92-6.71.29-.16.45-.2.44-.21.19,0,.22,0,.27.13s.84,1.39-.3,6h0c-.6,2.45-1.57,3.78-2.27,4a1.32,1.32,0,0,1-1-.19.08.08,0,0,1,0,0,5.43,5.43,0,0,0-.13-.58l0-.09a3.8,3.8,0,0,0-.18-.47l-.09-.16c-.07-.13-.14-.26-.22-.38l-.11-.16a5.84,5.84,0,0,0-.39-.48A3.57,3.57,0,0,0,85.84,85ZM80.29,53.6a9.74,9.74,0,0,0-1.25.1l0-.09a7,7,0,0,0,.86-.44C80,53.32,80.14,53.46,80.29,53.6ZM55.39,74.43a1.34,1.34,0,0,1,.82-.54.05.05,0,0,0,0,0,4.26,4.26,0,0,0,.5.32l.09,0,.46.19.18.06a3,3,0,0,0,.43.1l.18,0a6.12,6.12,0,0,0,.63.06h.08l.23,0,.28,0,.3-.06.24-.05c1.56,1.8,1.94,6,1.27,8.22v0a4.38,4.38,0,0,1-.15.43c-.14.13-.16.13-.25.11h-.06c-.27-.07-1.68-.61-4-4.47C55.32,76.72,55.06,75.09,55.39,74.43ZM86.75,91.89a5,5,0,0,0,1.16.31,14.46,14.46,0,0,0-1.47.07Zm8.94-10.25a3.11,3.11,0,0,0,.2.41l-.26.16Zm.58-27c.54.31,1.74,1.52,3.39,6.23.2.57.4,1.17.6,1.83a7.74,7.74,0,0,1,.33,1.43,5.59,5.59,0,0,1,.07.62v.08a3.08,3.08,0,0,1,0,.44v0a3.81,3.81,0,0,0-.61.29,5.51,5.51,0,0,0-.88.57h0a5.14,5.14,0,0,1-2.76-2.58c-1.49-2.92-2.23-5.79-1.92-7.54a1.75,1.75,0,0,1,.22-.69l0-.1a1.15,1.15,0,0,1,.29-.36l.1-.08.12-.08c.56-.3.78-.22.88-.18A.9.9,0,0,1,96.27,54.64ZM50.91,61a6,6,0,0,1,.45-.44l.06,0,.35-.28,0,0a4.12,4.12,0,0,0,.6.29,5.68,5.68,0,0,0,1,.33h0a5,5,0,0,1-.27,3.76h0c-1.33,3-3.1,5.38-4.61,6.23a2.27,2.27,0,0,1-.78.29,1.23,1.23,0,0,1-.54,0L47,71a2.79,2.79,0,0,1-.3-.15l0,0a.65.65,0,0,1-.15-.12l-.05,0a.33.33,0,0,1-.06-.08.75.75,0,0,1-.08-.14,1.19,1.19,0,0,1,0-.24c-.08-.68.2-2.41,2.73-6.47.31-.51.65-1,1-1.61A10.42,10.42,0,0,1,50.91,61ZM55.43,84.1a12.11,12.11,0,0,0,.87,1,8.46,8.46,0,0,0-1-.29C55.36,84.56,55.39,84.33,55.43,84.1Zm42,7.3v0c-.44.41-.91.84-1.42,1.29a12.08,12.08,0,0,1-1.15.89,5.58,5.58,0,0,1-.56.31l-.07,0a3.37,3.37,0,0,1-.42.17h0a5.41,5.41,0,0,0-.5-.44,5.55,5.55,0,0,0-.88-.57h0a5.06,5.06,0,0,1,1.23-3.57c2-2.55,4.38-4.4,6.07-4.82a2.86,2.86,0,0,1,.79-.1,1.36,1.36,0,0,1,.47.13l.1,0a.84.84,0,0,1,.19.12c.51.38.52.62.52.72C101.73,86.13,101.36,87.67,97.39,91.4ZM43.13,89.91l-.33-1c-.17-.53-.33-1-.48-1.43-1.24-3.33-.82-4.78-.58-5.25a1.75,1.75,0,0,1,1.7-.83v.07c0,.49.07,1,.11,1.4a1.64,1.64,0,0,1,0,.22c0,.44.1.85.17,1.24l0,.17c.06.4.14.79.22,1.14,0,0,0,0,0,.06.08.35.18.68.28,1l0,.1a8.16,8.16,0,0,0,.34.84l.06.14a6.85,6.85,0,0,0,.39.71,1,1,0,0,0,.08.11,4.64,4.64,0,0,0,.46.61l.07.07a4.59,4.59,0,0,0,.55.53,3.82,3.82,0,0,0,.49.34l.19.1a2.46,2.46,0,0,0,.43.21l.26.1.49.14.32.06.24,0c0,.1.06.2.09.3a2.85,2.85,0,0,0,.11.39,2.1,2.1,0,0,0,.06.24,6.22,6.22,0,0,1-2.63,3.05l-.09,0-.08,0c-.25.1-.35.07-.39,0C45,94.61,44.13,92.93,43.13,89.91Zm59-45.35a3.73,3.73,0,0,0-.36.24l-.06,0-.08-.09c-.12-.14-.25-.27-.37-.39l-.15-.15a11.32,11.32,0,0,0-1-.94l-.16-.12-.41-.29-.16-.11a7.34,7.34,0,0,0-1.15-.59L98,42.1,97.55,42l-.18,0a3.2,3.2,0,0,0-.62-.09l-.3,0H96l-.25,0-.19,0a1.64,1.64,0,0,0-.28.07l-.18,0-.3.12a1,1,0,0,0-.16.06,13.07,13.07,0,0,0-1.54-.94l0-.06c0-.09-.12-.17-.18-.26s-.21-.29-.33-.44a3,3,0,0,0-.24-.26c-.12-.14-.25-.27-.38-.4l-.29-.26-.45-.36L90.86,39c-.16-.12-.33-.23-.51-.34L90,38.42l-.61-.33-.39-.2-.74-.33-.36-.15c-.39-.16-.79-.31-1.21-.45l-.81-.3-.43-.16-.19-.07-.1-.14a.89.89,0,0,1,.81-.47c2-.22,6.22,1.91,10.08,4a23.14,23.14,0,0,1,6.08,4.71ZM81.58,34.46l-.11.19c-.07.14-.13.29-.16.37l0,0-.11,0L81,35c-.31-.08-.62-.15-.92-.2l-.2,0a8.78,8.78,0,0,0-1-.12l-.23,0a8.61,8.61,0,0,0-.88,0h-.13a6.93,6.93,0,0,0-.91.16l-.21.06a4.62,4.62,0,0,0-.87.34,4,4,0,0,0-.84.57l-.21.22a4.78,4.78,0,0,0-.47.54,1.49,1.49,0,0,1-.12.14l-1.83.08h0l-.08,0a3.88,3.88,0,0,0-.36-.15l-.43-.16-.4-.1-.48-.11L70,36.14l-.51-.06-.47,0h-.49a12.59,12.59,0,0,0-1.47.09l-.27,0c-.45.06-.92.14-1.4.24l-.24,0-.06,0a1.42,1.42,0,0,1-.31-.13.88.88,0,0,1,.15-.51C66,34.19,73.22,34,76,34A26.18,26.18,0,0,1,81.58,34.46ZM54.28,47.21a1.76,1.76,0,0,1,1.45,1.21l-.07,0c-.43.22-.83.44-1.22.66l-.2.11c-.38.22-.73.44-1.06.65L53,50c-.34.23-.65.45-.94.67a.1.1,0,0,0-.05,0c-.29.22-.55.44-.79.65a.27.27,0,0,1-.08.07q-.35.33-.63.66l-.1.11a7.25,7.25,0,0,0-.49.64l-.07.12a4.91,4.91,0,0,0-.37.67.36.36,0,0,1,0,.09,4.37,4.37,0,0,0-.25.72,4.8,4.8,0,0,0-.1.47s0,.1,0,.15l0,.43v.16a4.49,4.49,0,0,0,0,.62l0,.12a4,4,0,0,0,.13.55s0,.07,0,.11l-.25.21-.3.26-.18.15a5.92,5.92,0,0,1-3.85-1.17l-.09-.06-.08-.08-.07-.07,0-.07a.09.09,0,0,1,0-.05l0,0a0,0,0,0,1,0,0,.11.11,0,0,1,0,0c0-.7.87-1.92,2.7-3.68.25-.24.51-.49.8-.75h0l.06-.06.08-.06.14-.13.47-.42c.42-.39.81-.74,1.12-1C52.27,47.39,53.76,47.19,54.28,47.21ZM34.75,72.09a3,3,0,0,0,.48.15l0,.25,0,.25a9.72,9.72,0,0,0-.1,1.06h0a8.51,8.51,0,0,0,0,1,2,2,0,0,0,0,.25,6.28,6.28,0,0,0,.13,1h0a5.5,5.5,0,0,0,.27.9l.09.21A3.86,3.86,0,0,0,36,78a3.59,3.59,0,0,0,.25.33l.1.11c.07.07.14.15.23.23l.13.12L37,79l.16.12.38.22.1.06a13.76,13.76,0,0,0,.23,1.76s0,.05,0,.07-.05.2-.08.3-.1.35-.14.54l-.06.35c0,.18,0,.36-.06.55s0,.26,0,.39,0,.38,0,.58,0,.27,0,.41l.06.62.06.43c0,.23.08.45.12.68l.09.43c.06.26.14.52.21.79l.11.38c.12.4.26.81.41,1.22s.28.83.44,1.31l.06.16h0a1.27,1.27,0,0,1,0,.14.93.93,0,0,1-.53-.06c-1.79-.86-3.08-8-3.56-10.65A22.9,22.9,0,0,1,34.75,72.09Zm22,32.68-.63-.5c-.5-.41-1-.79-1.37-1.08s-.67-.52-.95-.76c-2-1.7-2.34-2.86-2.39-3.33a1.79,1.79,0,0,1,1-1.63l0,.07c.29.39.57.75.84,1.09l.15.19c.27.34.54.65.8,1l.13.13c.27.3.54.58.8.83l0,0c.26.25.52.47.77.68l.08.06c.25.2.5.37.74.53l.13.08c.24.14.47.27.71.38l.13.06a5.49,5.49,0,0,0,.71.25l.1,0a6.58,6.58,0,0,0,.75.14,3.64,3.64,0,0,0,.48,0h.13a4.38,4.38,0,0,0,.5,0l.1,0a4.49,4.49,0,0,0,.59-.13l.14,0a4.78,4.78,0,0,0,.64-.26h0a2.5,2.5,0,0,0,.24.22l.27.24c.07,0,.12.11.19.17a6.11,6.11,0,0,1-.53,4h0c-.21.38-.36.4-.41.41a.9.9,0,0,1-.24,0C60.76,107.51,59.43,106.94,56.73,104.77Zm22.36,9.28s0,0,0,0c2.14,0,4.17-.36,5.52-1.66a2.93,2.93,0,0,0,.29-.31l.09-.11c.07-.08.13-.17.2-.26l.09-.15.18-.31.08-.17a4.08,4.08,0,0,0,.17-.42,1,1,0,0,0,0-.1,11.62,11.62,0,0,0,1.71-.51l.13,0,.3,0c.2,0,.41,0,.62,0h.71l.59-.06.23,0,.85-.18.18,0c.23-.06.47-.13.7-.21l.32-.11.62-.23.34-.15q.33-.13.66-.3c.1,0,.21-.09.31-.15.33-.16.66-.33,1-.52s.78-.42,1.24-.65l.11-.06h0l.14,0a1.1,1.1,0,0,1,0,.33.62.62,0,0,1,0,.21c-.56,1.9-7.38,4.28-10,5.18A23.27,23.27,0,0,1,79,114.5C79.05,114.37,79.07,114.21,79.09,114.05Zm38.83-47.73c.42-2.48-.47-5.59-1.39-7.95a2.81,2.81,0,0,1,1.31.2c2.07.93,3.3,4.87,4.19,7.75a22.4,22.4,0,0,0,1.56,4.13c.77,1.33.52,5-1.22,6.83a2.8,2.8,0,0,1-3.13.7C119.63,72.3,119.45,68.52,117.92,66.32Zm-9.17-20.63a7.38,7.38,0,0,0-2.16-1.45c-1.79-4.13-8.34-7.74-8.64-7.91-1.85-1-3.5-1.85-5-2.55a2.81,2.81,0,0,1,1.14-.87c2.12-.81,5.78,1.11,8.45,2.52a22.32,22.32,0,0,0,4,1.82c1.48.39,3.89,3.16,4,5.68A2.82,2.82,0,0,1,108.75,45.69Zm-48-9h0c0,.12,0,.24,0,.37s0,.09,0,.13,0,.16.05.24l-.08,0-.84.21-.11,0-.87.26-.2.07c-.29.09-.58.19-.86.3l-.05,0c-.26.1-.52.22-.77.34l-.17.08a7.33,7.33,0,0,0-.73.42.57.57,0,0,0-.13.08,6.61,6.61,0,0,0-.6.44l-.11.08a5.92,5.92,0,0,0-.56.56l-.12.14a4.33,4.33,0,0,0-.46.66,4,4,0,0,0-.35.79l0,.13a3.3,3.3,0,0,0-.15.76,1.79,1.79,0,0,0,0,.23.88.88,0,0,0,0,.16l-.16,0c-.22,0-.44.06-.67.11l-.33.09a5.6,5.6,0,0,0-.54.17l-.35.14L51,44l-.36.19a6,6,0,0,0-.55.31l-.36.22c-.19.12-.39.26-.58.4l-.35.25-.64.51-.3.25c-.31.27-.63.56-1,.87l-1,1-.12.1-.13,0a.83.83,0,0,1-.15-.53c.05-2,6-6,8.26-7.58A23.29,23.29,0,0,1,60.73,36.68Zm-19,9.43c-3.92,2.23-6.83,9.11-7,9.43l-.36.89a2.67,2.67,0,0,1-.86-1.15c-.81-2.12,1.11-5.77,2.51-8.44a21.64,21.64,0,0,0,1.82-4c.4-1.48,3.16-3.89,5.69-4a2.8,2.8,0,0,1,2.69,1.68C43.78,42.54,42.24,44.31,41.72,46.11ZM31,70.85c-1,4.05,0,9.36,0,9.65a43.69,43.69,0,0,0,2.61,9.9,2.79,2.79,0,0,1-1.43-.19c-2.07-.93-3.3-4.87-4.19-7.75a22.53,22.53,0,0,0-1.56-4.14c-.77-1.33-.52-5,1.22-6.82A2.83,2.83,0,0,1,31,70.85Zm10.17,32.31.29.32c4.64,4.93,7.91,7.82,10.88,8.2a13.31,13.31,0,0,0,4.7,3.37,2.75,2.75,0,0,1-1.09.81c-2.13.81-5.78-1.11-8.45-2.51a21.64,21.64,0,0,0-4-1.82c-1.48-.4-3.89-3.16-4-5.69A2.79,2.79,0,0,1,41.12,103.16Zm15.41,7.06h0c.09-.09.18-.2.29-.33l0,0c.27.18.54.34.82.49a1.71,1.71,0,0,0,.23.13c.21.12.42.22.63.32l.24.12c.28.12.56.23.85.33h0a8.22,8.22,0,0,0,.82.21l.24,0a4.48,4.48,0,0,0,.64.06l.15,0h.08a5.83,5.83,0,0,0,.83-.08,3.34,3.34,0,0,0,.4-.1l.14,0,.31-.11.16-.07.31-.17.16-.09a3.18,3.18,0,0,0,.37-.27l.09-.06a13,13,0,0,0,1.71.5.1.1,0,0,0,0,0,2.41,2.41,0,0,0,.24.21l.43.34.3.2c.15.1.31.19.47.28l.35.18.53.24.39.15.58.2.43.12.66.16.44.1.8.13.4.06q.62.08,1.29.12c.26,0,.56,0,.87.07l.38,0,.29,0h0a1.35,1.35,0,0,1,.11.09.9.9,0,0,1-.27.46c-1.49,1.28-8.53-.43-11.18-1.07A23.12,23.12,0,0,1,56.53,110.22ZM109,103h0c3.62-4.67,5.87-8.07,6.32-10.86a2.92,2.92,0,0,1,1.16,1.34c.81,2.13-1.11,5.78-2.51,8.45a21.64,21.64,0,0,0-1.82,4c-.4,1.48-3.16,3.89-5.69,4a2.81,2.81,0,0,1-2.69-1.68A31.42,31.42,0,0,0,109,103Z"/></svg>