<svg id="expanded" xmlns="http://www.w3.org/2000/svg" viewBox="0 0 150 150"><title>Jasmine-bold</title><path d="M121.13,86.15a5.35,5.35,0,0,0-1-4.37c-3-4.31-13.54-9.59-23.37-12.17a97.61,97.61,0,0,0,8.4-7.71c4.82-5,7.48-9,7.9-12a5.07,5.07,0,0,0-1-4A5.57,5.57,0,0,0,107.41,44c-5.43,0-15.7,4.85-23.57,10.73A97.84,97.84,0,0,0,83,43.38c-.91-6.88-2.41-11.46-4.44-13.62A5,5,0,0,0,74.88,28a5.36,5.36,0,0,0-4,2C67.34,34,64.54,45.4,64.22,55.57a99.5,99.5,0,0,0-9-6.25C49.44,45.83,45,44.06,42,44.06a5.17,5.17,0,0,0-4.26,1.85,5.35,5.35,0,0,0-.94,4.4c.86,5.19,8.06,14.52,15.8,21.11A97,97,0,0,0,41.7,74.73c-6.5,2.42-10.63,4.9-12.29,7.36a5,5,0,0,0-.85,4c.84,3.72,6.06,5.61,15.5,5.61a72.76,72.76,0,0,0,13.71-1.33A100.74,100.74,0,0,0,53.56,101c-2.16,6.6-2.8,11.37-1.91,14.2a5,5,0,0,0,2.6,3.17,4.74,4.74,0,0,0,2.06.45c5.71,0,14.47-10.87,19.57-20.63,4.18,8.35,11.57,20.68,17.57,20.68a4.58,4.58,0,0,0,2-.46,5.32,5.32,0,0,0,2.75-3.54c1.49-5.06-.95-16.6-5.07-25.89A85.74,85.74,0,0,0,110,91C114.31,91,120.14,90.46,121.13,86.15Zm-4.82-.65c-3.36,2-16.81.8-27.95-2.38-2.07-3.24-4.2-5.45-6.35-6.59l-.06,0c0-.11,0-.22,0-.33a5.21,5.21,0,0,0-.17-1.42,8.09,8.09,0,0,0-.28-1.54,11.7,11.7,0,0,1,3.62-.66h.3c.27,0,.54,0,.83,0h.49l.67,0,.67,0,.26,0,1,.1c10.45,1.26,24,7.58,27,11.56.43.57.41.83.41.84A1,1,0,0,1,116.31,85.5ZM74.12,33.1c.47-.54.72-.57.72-.57s.21.07.44.31c2.71,2.88,4.6,16.7,3.89,28.43,0,.48-.07.94-.1,1.4,0,.15,0,.29,0,.43l-.09.92c0,.16,0,.31,0,.46,0,.31-.08.62-.12.91s0,.34-.07.5-.09.59-.14.88-.07.37-.1.55l-.09.46c0,.2-.09.39-.13.58a2.81,2.81,0,0,1-.08.31c0,.19-.09.38-.14.56a5.83,5.83,0,0,0-4.11-.82,5,5,0,0,0-1.43.5,8.78,8.78,0,0,0-1.42.6,2.33,2.33,0,0,1-.17-.26,2.26,2.26,0,0,1-.16-.26c-.11-.19-.21-.4-.31-.61l-.1-.21q-.19-.44-.36-.93a1.69,1.69,0,0,1-.08-.24c-.09-.26-.17-.52-.25-.8,0-.12-.06-.25-.1-.38l-.18-.77-.09-.44c-.05-.28-.11-.57-.15-.87,0-.13,0-.26-.07-.4-.06-.44-.12-.89-.17-1.36h0C67.77,51.48,70.9,36.81,74.12,33.1Zm15,36.6a27.21,27.21,0,0,0-2.76-.17h-.25c-.4,0-.79,0-1.17,0h-.32c-.4,0-.8.06-1.18.11l-.54.08-.55.09c-.22,0-.44.09-.65.15l-.23.06c-.22.06-.45.11-.66.18,0-.12.07-.26.1-.39l.09-.33c.09-.36.17-.73.25-1.1l0-.12c.08-.42.16-.84.23-1.27,0-.11,0-.22,0-.33l.15-1c0-.12,0-.23,0-.35,0-.41.1-.81.14-1.22v0c0-.43.08-.85.11-1.26l0-.29,0-.49c7.6-7.25,20.61-13.69,25.48-13.49.71,0,.89.2.89.21s.08.2,0,.53C108,53.15,98.63,63,89.17,69.7ZM74,79.56a2,2,0,0,1-.34,0,1.55,1.55,0,0,0-.13-.48,1.52,1.52,0,0,0-1-.8,3.19,3.19,0,0,1-1.36-.84,1.74,1.74,0,0,1-.22-.27,1.49,1.49,0,0,0,.28-.38,1.52,1.52,0,0,0,0-1.27,3.24,3.24,0,0,1-.2-1.62.22.22,0,0,1,0-.08,1.64,1.64,0,0,1,.19-.55,1.81,1.81,0,0,1,.44-.57l0,0h0a4.27,4.27,0,0,1,1.62-.87,1.62,1.62,0,0,0,.41-.17,1.8,1.8,0,0,1,.64-.23,3.4,3.4,0,0,1,2.53.77,7.47,7.47,0,0,1,.79.6,1.25,1.25,0,0,0,.4.24l0,0a2,2,0,0,0,.1.21,4.23,4.23,0,0,1,.5,1.8,1.77,1.77,0,0,0,.07.46,1.61,1.61,0,0,1,.09.62,2,2,0,0,1-.15.71,1.24,1.24,0,0,0-.09.39,5.05,5.05,0,0,1-1,1.23,1.42,1.42,0,0,0-.25.3,2.3,2.3,0,0,1-.42.45,2.41,2.41,0,0,1-.68.34,4.66,4.66,0,0,1-2,.06A1.36,1.36,0,0,0,74,79.56ZM66,62.87c0,.29.08.57.12.85l.06.41q.12.78.27,1.5c0,.09,0,.17.07.26.08.38.17.76.27,1.11,0,.15.09.29.13.42.09.3.18.59.28.87l.15.4c.11.29.23.57.35.84,0,.1.09.2.13.29.17.35.35.69.54,1l.1.14c.13.21.26.42.4.61,0,.09-.1.18-.14.27a4.63,4.63,0,0,0-.52,1.56s0,.07,0,.1a6.08,6.08,0,0,0,0,1.27,8.65,8.65,0,0,1-1.78-.27l-.17,0-.79-.24-.31-.11-.7-.28L64,73.64l-.61-.29-.54-.27-.48-.26-.7-.39,0,0c-.35-.2-.71-.42-1.07-.65C51.56,66,42.05,54.42,41.22,49.6a1.41,1.41,0,0,1,0-.88s.18-.12.51-.15H42C46.14,48.56,57.47,55.32,66,62.87ZM33.11,84.6c2.17-3.23,14.83-8,26.27-10l.75.44.15.09c.41.23.8.45,1.19.65l.09,0a20.86,20.86,0,0,0,3.57,1.46l.19,0q.44.12.87.21l.36.07.65.1.42,0,.37,0c0,.09.07.18.11.27a5.21,5.21,0,0,0,.92,1.4,6.14,6.14,0,0,0,1,.87,8,8,0,0,1-1,1l-.2.17-.51.36L68,82c-.17.12-.36.23-.54.34l-.38.22-.6.31c-.14.08-.29.15-.44.22l-.65.3-.48.2-.72.3-.47.17-.78.28C53,87.77,38,88,33.64,85.68c-.64-.34-.73-.58-.73-.58A.92.92,0,0,1,33.11,84.6ZM64.47,87c.92-.33,1.76-.68,2.56-1a.61.61,0,0,1,.14-.07q.64-.3,1.23-.63l.08,0q.63-.34,1.2-.72h0c.35-.23.68-.47,1-.72l.13-.1a11.81,11.81,0,0,0,.9-.79,41.93,41.93,0,0,0,2.43,8c-3.71,9.85-12.66,21.33-17.1,23.21-.65.27-.88.19-.89.19a.91.91,0,0,1-.25-.47C54.73,110.09,58.87,97.19,64.47,87Zm12.7,3.28a41.24,41.24,0,0,1-2.43-7.67,7.06,7.06,0,0,0,2.52-.26,5.27,5.27,0,0,0,1.62-.82,5.35,5.35,0,0,0,1-1,8.69,8.69,0,0,0,1-1.14,17.52,17.52,0,0,1,5.16,5.81,1.45,1.45,0,0,0,.17.18c5.49,9,9,23.43,7.68,28.15-.19.68-.4.82-.4.82l.64,1.35-.65-1.35a.86.86,0,0,1-.52-.09C89.28,112.8,81.6,101.18,77.17,90.3Z"/></svg>