<svg id="expanded" xmlns="http://www.w3.org/2000/svg" viewBox="0 0 150 150"><title>Hyacinth-bold</title><path d="M36.78,86.18c-1.34,2.34-.83,5.36,1.45,8.65-2.24,3.26-2.75,6.24-1.42,8.55.82,1.43,2.68,3.12,6.86,3.12.42,0,.85,0,1.29,0,1.43,3,3.3,4.86,5.45,5.38-2,3.1-2.42,5.93-1.15,8.15.83,1.43,2.69,3.12,6.87,3.12.41,0,.85,0,1.29,0,1.7,3.59,4,5.53,6.72,5.53s5-2,6.76-5.55c.47,0,.92,0,1.36,0a12,12,0,0,0,2.64-.27,12.25,12.25,0,0,0,2.74.29c.41,0,.84,0,1.29,0,1.7,3.59,4,5.53,6.71,5.53s5-2,6.76-5.55c.47,0,.93,0,1.36,0,4.14,0,6-1.68,6.81-3.1,1.28-2.22.87-5-1.12-8.15,2.15-.53,4-2.39,5.46-5.4.47,0,.93.06,1.36.06,4.15,0,6-1.69,6.81-3.11,1.35-2.33.83-5.35-1.44-8.64,2.24-3.26,2.75-6.24,1.41-8.56a6,6,0,0,0-3.83-2.75l.12-.2c1.35-2.34.83-5.35-1.44-8.64,2.24-3.26,2.75-6.25,1.42-8.56-.82-1.42-2.66-3.1-6.79-3.12a5.55,5.55,0,0,0,2.06-2c1.34-2.34.83-5.35-1.45-8.64,2.25-3.26,2.75-6.25,1.42-8.56-.82-1.43-2.68-3.12-6.86-3.12-.41,0-.85,0-1.3,0a16.12,16.12,0,0,0-1.14-2c-1.5-2.24-3.3-3.42-5.34-3.5a6.45,6.45,0,0,0-.09-5.8C89,27.85,87.15,26.16,83,26.16c-.42,0-.85,0-1.3.05a15,15,0,0,0-1.15-2c-1.94-2.91-4.1-3.53-5.56-3.53s-3.69.64-5.68,3.67a16.41,16.41,0,0,0-1.07,1.91c-.45,0-.91-.06-1.38-.06-4.14,0-6,1.69-6.8,3.11a6.53,6.53,0,0,0-.09,5.85c-1.4.23-3.18,1.11-4.81,3.6a16.93,16.93,0,0,0-1.08,1.9c-.44,0-.9-.05-1.37-.05-4.14,0-6,1.68-6.8,3.1C44.54,46,45.05,49,47.32,52.32c-2.24,3.26-2.75,6.25-1.41,8.56A5.49,5.49,0,0,0,48,62.94h-.68c-4.14,0-6,1.68-6.8,3.1-1.34,2.33-.82,5.35,1.45,8.64-2.24,3.26-2.75,6.25-1.42,8.56l.11.19A6,6,0,0,0,36.78,86.18Zm10.31,3.25a8.47,8.47,0,0,0,0,2.71,9.15,9.15,0,0,0-2.32,1.34A10.84,10.84,0,0,1,42,89.16,10.83,10.83,0,0,1,47.09,89.43Zm9.09-42.51a8.82,8.82,0,0,0,0,2.72A8.63,8.63,0,0,0,53.88,51a10.92,10.92,0,0,1-2.78-4.33A10.93,10.93,0,0,1,56.18,46.92Zm3.65-4.49v7.38a3.71,3.71,0,0,0-1.65-.49C57.73,47.25,58.82,44.23,59.83,42.43Zm10.51-9.91a8.47,8.47,0,0,0,0,2.71A8.71,8.71,0,0,0,68,36.57a10.78,10.78,0,0,1-2.78-4.32A11,11,0,0,1,70.34,32.52ZM74,28v7.41a3.75,3.75,0,0,0-1.66-.49C71.88,32.84,73,29.79,74,28ZM88.72,42.44v7.37a3.78,3.78,0,0,0-1.65-.49C86.61,47.25,87.7,44.24,88.72,42.44ZM45.39,95.56a6.42,6.42,0,0,1,3.1-1.72,1.94,1.94,0,0,1,1.31.24l-.14.24a1.67,1.67,0,0,0-.19.61l-6.75,3.91A14,14,0,0,1,45.39,95.56ZM49.15,75.4a6.42,6.42,0,0,1,3.1-1.72,1.92,1.92,0,0,1,1.31.24l-.14.24a1.67,1.67,0,0,0-.19.61l-6.75,3.91A14,14,0,0,1,49.15,75.4Zm5.34-22.35a6.34,6.34,0,0,1,3.1-1.72,1.94,1.94,0,0,1,1.31.24l-.14.24a1.67,1.67,0,0,0-.19.61l-6.76,3.91A14.27,14.27,0,0,1,54.49,53.05Zm14.15-14.4a6.42,6.42,0,0,1,3.1-1.72,1.94,1.94,0,0,1,1.31.24l-.14.24a1.67,1.67,0,0,0-.19.61L66,41.91A14.34,14.34,0,0,1,68.64,38.65Zm34.94,40.06L97.11,75a3.77,3.77,0,0,0,1.27-1.2,7.32,7.32,0,0,1,2.46,1.54A14,14,0,0,1,103.58,78.71Zm3.73,20.15-6.47-3.72a3.91,3.91,0,0,0,1.28-1.2,7.22,7.22,0,0,1,2.45,1.54A13.73,13.73,0,0,1,107.31,98.86Zm-12.9,1.06a13.79,13.79,0,0,1-4.25.67l6.44-3.73A3.92,3.92,0,0,0,97,98.57,7.26,7.26,0,0,1,94.41,99.92Zm-6.08,11.81a3.81,3.81,0,0,0,1.28-1.2,7.38,7.38,0,0,1,2.45,1.54,14.06,14.06,0,0,1,2.75,3.41Zm-11.64,3.68a14.34,14.34,0,0,1,2.66-3.26,6.41,6.41,0,0,1,3.11-1.72,1.91,1.91,0,0,1,1.3.24l-.14.24a1.65,1.65,0,0,0-.18.61Zm-9.86-3.68a3.77,3.77,0,0,0,1.27-1.2,7.41,7.41,0,0,1,2.46,1.54,13.93,13.93,0,0,1,2.73,3.39Zm-11.64,3.68a14.07,14.07,0,0,1,2.66-3.26,6.34,6.34,0,0,1,3.1-1.72,2,2,0,0,1,1.31.24l-.14.24a1.67,1.67,0,0,0-.19.61Zm.4-15.53a6.2,6.2,0,0,1-3-1.81h0a1.94,1.94,0,0,1-.44-1.33h.26a1.55,1.55,0,0,0,.56-.11l6.84,3.94A13.56,13.56,0,0,1,55.59,99.88ZM52.84,71.67c-.45-2.08.66-5.13,1.68-6.92l0,7.41A3.75,3.75,0,0,0,52.84,71.67Zm6.39-17.32a3.79,3.79,0,0,0,.41,1.71A7.35,7.35,0,0,1,57,57.42a14.11,14.11,0,0,1-4.26.67ZM73.38,40a3.79,3.79,0,0,0,.41,1.71A7.51,7.51,0,0,1,71.19,43a13.92,13.92,0,0,1-4.28.66Zm9.38,11A11,11,0,0,1,80,46.65a11,11,0,0,1,5.09.27,8.47,8.47,0,0,0,0,2.71A8.71,8.71,0,0,0,82.76,51ZM75,43.21a8.84,8.84,0,0,0,2.3,1.34A10.89,10.89,0,0,1,75,49.1a10.78,10.78,0,0,1-2.31-4.52A8.58,8.58,0,0,0,75,43.21Zm-4.48,3.44A10.86,10.86,0,0,1,67.8,50.9a8.58,8.58,0,0,0-2.33-1.33,9,9,0,0,0,0-2.69A10.84,10.84,0,0,1,70.56,46.65Zm1.49,1.71c.83,1.58,1.88,2.81,2.93,2.81s2.38-1.54,3.26-3.39a14.23,14.23,0,0,0,3,4.53,12.2,12.2,0,0,0-3.19,5.2,12.4,12.4,0,0,0-.74-1.28c-1.62-2.42-3.11-2.39-4.75.12-.09.13-.17.27-.26.42a14,14,0,0,0-3-4.54A15.58,15.58,0,0,0,72.05,48.36Zm16.06,6a3.92,3.92,0,0,0,.41,1.71,7.35,7.35,0,0,1-2.6,1.36,13.76,13.76,0,0,1-4.26.66Zm1.08,44.49a13.81,13.81,0,0,1,2.68-3.28A6.34,6.34,0,0,1,95,93.84a1.9,1.9,0,0,1,1.3.24l-.13.24a1.5,1.5,0,0,0-.19.61Zm-27.65,9.58c-.45-2.06.63-5.06,1.64-6.86l0,0v7.39A3.78,3.78,0,0,0,61.54,108.42ZM53.65,86.78c.72,1.89,1.16,4.16.56,5.64a2,2,0,0,1-.91,1l-.17-.29a1.51,1.51,0,0,0-.39-.44V85.47A9.09,9.09,0,0,0,53.65,86.78Zm5.06,6.62a8.58,8.58,0,0,0-2.34-1.32,9,9,0,0,0,0-2.69,10.84,10.84,0,0,1,5.07-.23A10.72,10.72,0,0,1,58.71,93.4Zm-3.07.54a7.16,7.16,0,0,1,2.46,1.54,14,14,0,0,1,2.74,3.38l-6.47-3.72A3.78,3.78,0,0,0,55.64,93.94Zm4.56.79c2-2,3.9-5.13,3-6.61-.76-1.31-3.73-1.36-6.32-.89a12.74,12.74,0,0,0,2.82-5.31,16.73,16.73,0,0,0,3.85.5c1.6,0,3-.32,3.44-1.15.78-1.35-.74-4-2.5-6.06a6.83,6.83,0,0,0,2.45.37,16.6,16.6,0,0,0,3.79-.48,14.12,14.12,0,0,0,2.33,4.78,7.69,7.69,0,0,0-.53.73,15.56,15.56,0,0,0-1.84,4.11c-2.76-.69-6.43-.84-7.29.65s1.1,4.63,3.08,6.69c-1.82,1.89-3.61,4.68-3.2,6.26a2.22,2.22,0,0,0-.38.27A15.79,15.79,0,0,0,60.2,94.73ZM56.34,77.92h0a2,2,0,0,1-.44-1.33h.26a1.74,1.74,0,0,0,.56-.11l6.84,3.94a14.18,14.18,0,0,1-4.21-.69A6.33,6.33,0,0,1,56.34,77.92ZM60.9,57.61a8.47,8.47,0,0,0,2.29,1.33,10.67,10.67,0,0,1-2.36,4.56A10.81,10.81,0,0,1,58.53,59,9.08,9.08,0,0,0,60.9,57.61Zm4.19,2a17.27,17.27,0,0,0,2.23.4,8.25,8.25,0,0,0-2.42.22C65,60,65,59.77,65.09,59.57Zm20.42,0c.08.28.18.57.28.86A5.28,5.28,0,0,0,83.56,60,19.28,19.28,0,0,0,85.51,59.61ZM84.74,69a11,11,0,0,1,5.09.27,8.53,8.53,0,0,0,0,2.72,8.63,8.63,0,0,0-2.33,1.34A16.19,16.19,0,0,1,86.39,72a12.05,12.05,0,0,0-1.55-2.66A2.54,2.54,0,0,1,84.74,69Zm5.94,10.77a13.76,13.76,0,0,1-4.26.66l6.45-3.73a3.79,3.79,0,0,0,.41,1.71A7.51,7.51,0,0,1,90.68,79.77Zm1.72-5.61a1.67,1.67,0,0,0-.19.61l-6.75,3.91a13.75,13.75,0,0,1,2.67-3.28,6.38,6.38,0,0,1,3.1-1.72,1.94,1.94,0,0,1,1.31.24ZM81.94,90.65a8.48,8.48,0,0,0-2.34-1.33,8.35,8.35,0,0,0,0-2.69,10.88,10.88,0,0,1,5.08-.23A10.86,10.86,0,0,1,81.94,90.65Zm-3.06.54a7.3,7.3,0,0,1,2.46,1.53,14.12,14.12,0,0,1,2.73,3.39L77.6,92.38A3.89,3.89,0,0,0,78.88,91.19Zm2.59,12.88a16.54,16.54,0,0,0-4.18-.5,15.09,15.09,0,0,0,1.93-4.25,16.83,16.83,0,0,0,3.86.51h.32l-.1.14A15.56,15.56,0,0,0,81.47,104.07ZM74,82.19v7.37a3.74,3.74,0,0,0-1.65-.49C71.86,87,73,84,74,82.19Zm4.85,14.94a6.16,6.16,0,0,1-3-1.81h0A2,2,0,0,1,75.37,94h.27a1.74,1.74,0,0,0,.55-.11L83,97.82A13.88,13.88,0,0,1,78.82,97.13Zm-8.47-7.74A8.63,8.63,0,0,0,68,90.73a10.78,10.78,0,0,1-2.78-4.32,10.74,10.74,0,0,1,5.08.26A8.52,8.52,0,0,0,70.35,89.39ZM68.63,92.8a6.34,6.34,0,0,1,3.1-1.72,2,2,0,0,1,1.31.24l-.14.24a1.5,1.5,0,0,0-.19.61L66,96.07A14,14,0,0,1,68.63,92.8Zm4.74,1.3a3.78,3.78,0,0,0,.4,1.71,7.14,7.14,0,0,1-2.59,1.36,14.05,14.05,0,0,1-4.28.67ZM75,97.36a8.79,8.79,0,0,0,2.29,1.33A10.82,10.82,0,0,1,75,103.26a10.82,10.82,0,0,1-2.3-4.52A8.85,8.85,0,0,0,75,97.36Zm2.41-7.7a1.91,1.91,0,0,1-.91,1l-.16-.28A1.56,1.56,0,0,0,76,90v-7.9C77.1,84,78.29,87.6,77.44,89.66ZM75.25,78.73a1.3,1.3,0,0,0-.52,0,12.24,12.24,0,0,1-2-4.25A8.85,8.85,0,0,0,75,73.1a8.57,8.57,0,0,0,2.3,1.34A12.34,12.34,0,0,1,75.25,78.73ZM68.64,68.54a6.42,6.42,0,0,1,3.1-1.72,2,2,0,0,1,1.31.24l-.14.24a1.67,1.67,0,0,0-.19.61L66.18,71.7c.21-.35.4-.71.56-1A14.53,14.53,0,0,1,68.64,68.54Zm4.74,1.3a3.79,3.79,0,0,0,.41,1.71,7.35,7.35,0,0,1-2.6,1.36,14.11,14.11,0,0,1-4.26.67Zm5.45,3a6.39,6.39,0,0,1-3-1.81h0a1.94,1.94,0,0,1-.44-1.33h.26a1.8,1.8,0,0,0,.56-.11l6.84,3.94A14,14,0,0,1,78.83,72.87ZM82,66.38a8.41,8.41,0,0,0-2.35-1.32,9,9,0,0,0,0-2.69,10.84,10.84,0,0,1,5.07-.23A10.77,10.77,0,0,1,82,66.38Zm-2.75-6c-.08-.29-.17-.57-.26-.85a5.19,5.19,0,0,0,2.14.5A16,16,0,0,0,79.22,60.42Zm-.33,6.51a7.12,7.12,0,0,1,2.46,1.53,14.35,14.35,0,0,1,1.74,1.9,10.08,10.08,0,0,0,.63,1.28l-6.1-3.52A3.76,3.76,0,0,0,78.89,66.93ZM77.46,65.4a2,2,0,0,1-.91,1l-.17-.28a1.51,1.51,0,0,0-.39-.44V57.83C77.13,59.8,78.3,63.35,77.46,65.4ZM74,65.3a4,4,0,0,0-1.66-.49c-.45-2.08.66-5.12,1.67-6.92Zm-3-5.46c-.07.2-.13.41-.19.62a18,18,0,0,0-2.28-.41l.46,0A7.71,7.71,0,0,0,71,59.84Zm-.61,2.57a8.47,8.47,0,0,0,0,2.71A8.71,8.71,0,0,0,68,66.46a10.78,10.78,0,0,1-2.78-4.32A11,11,0,0,1,70.34,62.41ZM65,69.65a12.3,12.3,0,0,0-1.23,2.08,15.51,15.51,0,0,1-1.29,1.51,8.54,8.54,0,0,0-2.35-1.33,8.58,8.58,0,0,0,0-2.68A10.84,10.84,0,0,1,65.22,69,2.47,2.47,0,0,1,65,69.65Zm-5.59,4.13a7.38,7.38,0,0,1,2.45,1.54,14,14,0,0,1,2.74,3.39L58.13,75A3.81,3.81,0,0,0,59.41,73.78ZM58,72.26a2,2,0,0,1-.91,1L56.89,73a1.81,1.81,0,0,0-.39-.44l0-7.87C57.64,66.66,58.81,70.21,58,72.26ZM65.76,110l-.17-.29a1.81,1.81,0,0,0-.39-.44v-7.87c1.13,2,2.3,5.52,1.45,7.57A1.92,1.92,0,0,1,65.76,110Zm.78-10.2H67a16.75,16.75,0,0,0,3.79-.48,15.24,15.24,0,0,0,1.89,4.2,16.06,16.06,0,0,0-4.23.47A15.55,15.55,0,0,0,66.54,99.84ZM68.85,106a10.84,10.84,0,0,1,5.07-.23A10.86,10.86,0,0,1,71.16,110a8.58,8.58,0,0,0-2.33-1.33A9,9,0,0,0,68.85,106Zm6.08,2.39a16.75,16.75,0,0,0,2.32,3,17.22,17.22,0,0,0-2.27,3,16.75,16.75,0,0,0-2.32-3A16.73,16.73,0,0,0,74.93,108.37Zm3.81,1.7A10.84,10.84,0,0,1,76,105.75a10.93,10.93,0,0,1,5.08.27,8.47,8.47,0,0,0,0,2.71A8.71,8.71,0,0,0,78.74,110.07Zm4.31-1.65c-.46-2.08.65-5.13,1.67-6.92l0,7.41A3.74,3.74,0,0,0,83.05,108.42ZM87.26,110l-.16-.29a2.1,2.1,0,0,0-.4-.44l0-7.87c1.12,2,2.29,5.52,1.45,7.57A1.94,1.94,0,0,1,87.26,110Zm-.61-11.69c.46-1.59-1.37-4.45-3.21-6.37,2-2,3.9-5.14,3-6.61S82,84,79.21,84.68a15.55,15.55,0,0,0-1.89-4.19q-.22-.33-.45-.6a14.16,14.16,0,0,0,2.37-4.83,16.73,16.73,0,0,0,3.85.5,6.63,6.63,0,0,0,2.46-.38c-1.78,2-3.35,4.74-2.57,6.09.49.84,1.88,1.17,3.5,1.17A16.75,16.75,0,0,0,90.27,82a12.45,12.45,0,0,0,2.84,5.32c-2.62-.51-5.65-.49-6.42.84-.87,1.5,1.09,4.63,3.08,6.69A15.29,15.29,0,0,0,87,98.64,3.27,3.27,0,0,0,86.65,98.35ZM97.21,85.53v6.78a3.86,3.86,0,0,0-1.65-.48,9.39,9.39,0,0,1,.79-5.07A8.57,8.57,0,0,0,97.21,85.53Zm-6,7.94a10.83,10.83,0,0,1-2.77-4.31,10.79,10.79,0,0,1,5.08.27,8.46,8.46,0,0,0,0,2.71A8.9,8.9,0,0,0,91.25,93.47Zm5.16-10.91a7.93,7.93,0,0,0-.6.8,14.6,14.6,0,0,0-1.22,2.38.6.6,0,0,1-.12.11,10.8,10.8,0,0,1-2.3-4.52A8.41,8.41,0,0,0,94.54,80a8.64,8.64,0,0,0,2.29,1.34C96.7,81.73,96.56,82.16,96.41,82.56ZM96,73.29,95.87,73a1.81,1.81,0,0,0-.39-.44V64.69c1.13,2,2.3,5.52,1.45,7.57A2,2,0,0,1,96,73.29Zm-2.56-1.13a3.78,3.78,0,0,0-1.66-.49c-.45-2.08.66-5.13,1.67-6.92Zm-3.24-4.84c-2.13-.54-4.8-.74-6.31-.12a11.41,11.41,0,0,0,2.72-4.69c.85,1.7,2,3.06,3.07,3.06a2.2,2.2,0,0,0,1.44-.7A16.83,16.83,0,0,0,90.24,67.32Zm-.52-3.82a10.64,10.64,0,0,1-2.3-4.5,8.41,8.41,0,0,0,2.36-1.39,8.79,8.79,0,0,0,2.29,1.33A10.81,10.81,0,0,1,89.72,63.5Zm-25-6.12a6.16,6.16,0,0,1-3-1.81h0a2,2,0,0,1-.44-1.33h.26a1.68,1.68,0,0,0,.55-.11l6.85,3.94A14,14,0,0,1,64.68,57.38Zm-3.85,8.19c1,0,1.89-1,2.68-2.3A13.26,13.26,0,0,0,66,67.17c-1.52-.59-4.13-.4-6.24.11a15.41,15.41,0,0,0-1.88-4.19c-1-1.44-1.87-2-2.8-1.71l1.75-1.21C57.65,62.76,59.24,65.57,60.83,65.57ZM55.56,80a8.81,8.81,0,0,0,2.29,1.34,10.81,10.81,0,0,1-2.35,4.56s-.08-.08-.12-.11a14.14,14.14,0,0,0-1.29-2.5q-.24-.34-.48-.63c-.15-.4-.29-.83-.42-1.28A8.41,8.41,0,0,0,55.56,80Zm4,28.78a8.93,8.93,0,0,0-2.34,1.34,10.84,10.84,0,0,1-2.77-4.32,10.93,10.93,0,0,1,5.08.27A8.76,8.76,0,0,0,59.57,108.73ZM92.67,110a8.63,8.63,0,0,0-2.34-1.33,8.64,8.64,0,0,0,0-2.69,10.88,10.88,0,0,1,5.08-.23A11,11,0,0,1,92.67,110Zm8-17.58a2,2,0,0,1-.91,1l-.16-.29a1.7,1.7,0,0,0-.4-.44V84.81C100.34,86.78,101.53,90.36,100.68,92.42ZM98.32,79.73a6.24,6.24,0,0,1-3-1.81h0a2,2,0,0,1-.44-1.33h.26a1.68,1.68,0,0,0,.55-.11l6.85,3.94A14.29,14.29,0,0,1,98.32,79.73ZM95.37,61.56a1.78,1.78,0,0,0-2.3.43,18.26,18.26,0,0,0,.9-2.42,17.18,17.18,0,0,0,2,.36Zm-1.8-4.18a6.25,6.25,0,0,1-3-1.81h0a2,2,0,0,1-.44-1.33h.26a1.74,1.74,0,0,0,.56-.11l6.84,3.94A13.86,13.86,0,0,1,93.57,57.38Zm-5.93-5.57a1.67,1.67,0,0,0-.19.61L80.7,56.33a14.2,14.2,0,0,1,2.67-3.28,6.41,6.41,0,0,1,3.11-1.72,2,2,0,0,1,1.3.24ZM78.83,43a6.39,6.39,0,0,1-3-1.81h0a2,2,0,0,1-.44-1.33h.26a1.56,1.56,0,0,0,.56-.12l6.84,4A14.29,14.29,0,0,1,78.83,43Zm-13.46.19.23.4-.32-.08A1.77,1.77,0,0,1,65.37,43.17Zm-.63,8.26A7.41,7.41,0,0,1,67.2,53a14.24,14.24,0,0,1,2.74,3.39l-6.47-3.73A3.77,3.77,0,0,0,64.74,51.43Zm-8.11,8.18,0,.12-1,.08ZM47.44,80.43l6.45-3.73a3.92,3.92,0,0,0,.41,1.71,7.51,7.51,0,0,1-2.6,1.36A13.76,13.76,0,0,1,47.44,80.43Zm3.3,11.88a3.86,3.86,0,0,0-1.66-.48c-.45-2.09.66-5.13,1.67-6.93Zm-.61,4.55a3.79,3.79,0,0,0,.41,1.71,7.34,7.34,0,0,1-2.6,1.35,13.81,13.81,0,0,1-4.26.67Zm1.67,3.25a8.52,8.52,0,0,0,2.29,1.33,13.82,13.82,0,0,1-1.27,3.08c0,.07-.11.13-.15.2a.7.7,0,0,0-.08.2,4.86,4.86,0,0,1-.85,1.09,10.77,10.77,0,0,1-2.3-4.5A8.7,8.7,0,0,0,51.8,100.11Zm4.19,2a16.66,16.66,0,0,0,3.85.5l.64,0c-.19.48-.37,1-.52,1.51a15.34,15.34,0,0,0-4.49-.48C55.67,103.08,55.85,102.57,56,102.08Zm6.6,11.37a3.92,3.92,0,0,0,.4,1.71,7.21,7.21,0,0,1-2.59,1.36,14,14,0,0,1-4.28.67Zm1.66,3.26a8.67,8.67,0,0,0,2.29,1.34,10.7,10.7,0,0,1-2.35,4.55,10.81,10.81,0,0,1-2.3-4.51A8.85,8.85,0,0,0,64.25,116.71Zm3.79-.23a6.34,6.34,0,0,1-3-1.81h0a2,2,0,0,1-.45-1.33h.27a1.68,1.68,0,0,0,.55-.11l6.85,3.94A14,14,0,0,1,68,116.48Zm16-3a3.92,3.92,0,0,0,.41,1.71,7.35,7.35,0,0,1-2.6,1.36,14,14,0,0,1-4.28.67Zm1.67,3.26a8.52,8.52,0,0,0,2.29,1.34,10.82,10.82,0,0,1-2.35,4.55,10.79,10.79,0,0,1-2.31-4.51A8.92,8.92,0,0,0,85.76,116.71Zm3.79-.23a6.38,6.38,0,0,1-3-1.81h0a2,2,0,0,1-.44-1.33h.26a1.74,1.74,0,0,0,.56-.11l6.82,3.94A14,14,0,0,1,89.55,116.48ZM89.93,104c-.14-.5-.31-1-.49-1.47q.38,0,.78,0a16.59,16.59,0,0,0,3.78-.48c.14.48.31,1,.5,1.47A15.6,15.6,0,0,0,89.93,104Zm6-2.52a8.55,8.55,0,0,0,2.36-1.4,8.52,8.52,0,0,0,2.29,1.33A10.82,10.82,0,0,1,98.21,106,10.9,10.9,0,0,1,95.91,101.51Zm6.15-1.63a6.25,6.25,0,0,1-3-1.81h0a1.94,1.94,0,0,1-.44-1.33h.26a1.51,1.51,0,0,0,.56-.11l6.85,3.94A13.57,13.57,0,0,1,102.06,99.88Zm3.12-6.48a8.58,8.58,0,0,0-2.34-1.32,8.35,8.35,0,0,0,0-2.69,10.88,10.88,0,0,1,5.08-.23A10.9,10.9,0,0,1,105.18,93.4Zm-5.29-11-.26-.27.36.08-.22,0Zm1.56-9.13a8.63,8.63,0,0,0-2.34-1.33,9,9,0,0,0,0-2.69A10.84,10.84,0,0,1,104.2,69,10.92,10.92,0,0,1,101.45,73.25ZM96.69,50.9a8.63,8.63,0,0,0-2.34-1.33,8.64,8.64,0,0,0,0-2.69,10.83,10.83,0,0,1,5.07-.23A10.8,10.8,0,0,1,96.69,50.9Zm-3.06.53A7.38,7.38,0,0,1,96.08,53a13.76,13.76,0,0,1,2.74,3.39l-6.47-3.73A3.81,3.81,0,0,0,93.63,51.43Zm-1.44-1.52a1.94,1.94,0,0,1-.91,1l-.17-.28a1.69,1.69,0,0,0-.39-.45V42.3C91.85,44.27,93,47.85,92.19,49.91ZM82,36.5a8.37,8.37,0,0,0-2.34-1.33,9,9,0,0,0,0-2.69,10.84,10.84,0,0,1,5.07-.23A10.92,10.92,0,0,1,82,36.5ZM78.89,37a7.16,7.16,0,0,1,2.46,1.54A14,14,0,0,1,84.09,42l-6.47-3.73A3.68,3.68,0,0,0,78.89,37Zm-1.43-1.52a2,2,0,0,1-.91,1l-.17-.29a1.65,1.65,0,0,0-.39-.44V27.93C77.13,29.91,78.3,33.46,77.46,35.51ZM63.3,49.91a1.92,1.92,0,0,1-.9,1l-.17-.28a1.56,1.56,0,0,0-.4-.45V42.3C63,44.27,64.15,47.85,63.3,49.91ZM50.87,72a8.59,8.59,0,0,0-2.32,1.34A11,11,0,0,1,45.76,69a11,11,0,0,1,5.09.27A8.53,8.53,0,0,0,50.87,72Zm-.56,10.17a6.2,6.2,0,0,0-.61.69l.38-.63H50ZM53,107.53v0l-.07,0Zm43.91,0,.19.17-.22-.1ZM86.48,42.36a.14.14,0,0,1,0-.06l.25-.39ZM63.8,41.77l0,0,.12-.2C63.87,41.62,63.83,41.69,63.8,41.77Z"/></svg>