<svg id="expanded" xmlns="http://www.w3.org/2000/svg" viewBox="0 0 150 150"><title>Verbana-bold</title><path d="M31.85,64.67C32.58,67.05,35,69,38.06,70c-3.34,3.33-4.14,5.42-3.17,7.4a3.77,3.77,0,0,0,3.25,2.22A4.55,4.55,0,0,0,42.25,82c2.2,0,4.87-1.46,6.9-4.26,1.33,2.62,2.42,4,3.47,4.72a11.79,11.79,0,0,0-.89,4.63c-3.47-1.77-4.71-1.77-5.34-1.77a3.74,3.74,0,0,0-2.68,1,3.8,3.8,0,0,0-1.1,3.77,4.49,4.49,0,0,0-1.06,4.57c.72,2.38,3.1,4.33,6.22,5.33-3.35,3.34-4.15,5.42-3.18,7.4a3.78,3.78,0,0,0,3.26,2.23,4.55,4.55,0,0,0,4.1,2.41c2.22,0,4.88-1.46,6.9-4.25,2.22,4.36,3.78,5.34,5.56,5.34a2.63,2.63,0,0,0,.49,0A3.8,3.8,0,0,0,68,110.73a4.58,4.58,0,0,0,3.62-3.32c.59-2.06,0-5-2-7.72,2.7-.43,4.46-1,5.55-1.84a11.5,11.5,0,0,0,4.13,2.27c-3.33,3.33-4.14,5.42-3.17,7.4a3.74,3.74,0,0,0,3.26,2.22,4.54,4.54,0,0,0,4.1,2.41c2.71,0,5.13-1.81,6.9-4.28,2.23,4.4,3.77,5.37,5.56,5.37a4.38,4.38,0,0,0,.51,0,3.8,3.8,0,0,0,3.1-2.41,4.51,4.51,0,0,0,3.59-3.22c.65-2.09.08-5-1.94-7.82,4.67-.73,6.54-1.93,6.92-4.11a3.81,3.81,0,0,0-1.33-3.71,4.5,4.5,0,0,0-.76-3.22,6.45,6.45,0,0,0-5.46-2.39,12.2,12.2,0,0,0-3.76.63c.43-2.71.42-4.58-.06-5.86a11.66,11.66,0,0,0,3.45-3.22c2.22,4.37,3.78,5.35,5.56,5.35a4.38,4.38,0,0,0,.51,0,3.8,3.8,0,0,0,3.1-2.41,4.56,4.56,0,0,0,3.64-3.4c.57-2.07,0-4.94-2-7.63,4.65-.73,6.54-1.95,6.92-4.12a3.81,3.81,0,0,0-1.33-3.71,4.47,4.47,0,0,0-.76-3.21,6.46,6.46,0,0,0-5.46-2.39,12,12,0,0,0-3.77.63c.75-4.67.18-6.83-1.78-7.86a4.1,4.1,0,0,0-1.91-.5,3.52,3.52,0,0,0-2,.62,4.38,4.38,0,0,0-2-.46h0a5.1,5.1,0,0,0-4.19,2.4,10.57,10.57,0,0,0-1.64,6c-3.49-1.79-4.73-1.79-5.36-1.79h-.23a11.48,11.48,0,0,0-2-4.29c4.65-.73,6.53-1.94,6.91-4.11a3.81,3.81,0,0,0-1.33-3.71,4.49,4.49,0,0,0-.76-3.22,6.47,6.47,0,0,0-5.47-2.39,12,12,0,0,0-3.76.63c.75-4.67.18-6.83-1.78-7.86a4.1,4.1,0,0,0-1.91-.5h0a3.57,3.57,0,0,0-2,.62,4.39,4.39,0,0,0-2-.46,5.15,5.15,0,0,0-4.22,2.45,10.58,10.58,0,0,0-1.61,6c-3.47-1.78-4.72-1.78-5.35-1.78a3.74,3.74,0,0,0-2.68,1,3.8,3.8,0,0,0-1.1,3.77,4.48,4.48,0,0,0-1.06,4.56c.73,2.39,3.1,4.34,6.22,5.35-1.94,1.93-3,3.44-3.41,4.75a9.1,9.1,0,0,0-.91,0,12.31,12.31,0,0,0-3.77.63c.75-4.66.18-6.82-1.77-7.86a4.16,4.16,0,0,0-1.92-.5,3.6,3.6,0,0,0-2,.62,4.39,4.39,0,0,0-2-.46h0a5.16,5.16,0,0,0-4.24,2.48,10.57,10.57,0,0,0-1.59,6c-3.47-1.78-4.72-1.78-5.35-1.78a3.74,3.74,0,0,0-2.68,1,3.8,3.8,0,0,0-1.1,3.77A4.52,4.52,0,0,0,31.85,64.67ZM85.58,42.24a1.89,1.89,0,0,1,1.07.4.19.19,0,0,1,0,.11,3.53,3.53,0,0,0-.1,2.76,2.2,2.2,0,0,0,.53.71,43.6,43.6,0,0,1-6.85,1,.81.81,0,0,0,0-.16A4.43,4.43,0,0,0,79,44.55,9.18,9.18,0,0,1,85.58,42.24Zm25.51,18.61a1.87,1.87,0,0,1,1.08.41.38.38,0,0,1,0,.11,3.57,3.57,0,0,0-.1,2.76,2.09,2.09,0,0,0,.54.71,44.18,44.18,0,0,1-6.85,1s0-.1,0-.15a4.51,4.51,0,0,0-1.24-2.49A9.24,9.24,0,0,1,111.09,60.85Zm-9.82,30a1.87,1.87,0,0,1,1.08.41.3.3,0,0,1,0,.1,3.56,3.56,0,0,0-.1,2.77,2.09,2.09,0,0,0,.54.71,45.44,45.44,0,0,1-6.85,1s0-.11,0-.15a4.46,4.46,0,0,0-1.25-2.49A9.22,9.22,0,0,1,101.27,90.87ZM81.79,105.26a2.29,2.29,0,0,0-.85-.26,43.49,43.49,0,0,1,5-4.8l.1.11a4.49,4.49,0,0,0,2.47,1.28,9.2,9.2,0,0,1-4,5.76,1.93,1.93,0,0,1-1.11.31.39.39,0,0,1,0-.11A3.56,3.56,0,0,0,81.79,105.26ZM76,90.65l-.22.16a3,3,0,0,0-1.39,2.33,3.05,3.05,0,0,0-.92-.53l.08-.26a3.07,3.07,0,0,0-1.32-3.78,5.11,5.11,0,0,0-.94-.45,11.94,11.94,0,0,0,3.55-4.61,35.76,35.76,0,0,0,1.83,3.71,2.07,2.07,0,0,0-.37.3A2.27,2.27,0,0,0,76,90.65ZM56.65,98.23s-.1-.11,0-.45a1.49,1.49,0,0,0,0-.42l.3,0c.31,0,.61,0,.91,0a8.68,8.68,0,0,0,.33,1,2.29,2.29,0,0,0,.1.23l-.18.05A2.49,2.49,0,0,1,56.65,98.23Zm-6.44,7a2.14,2.14,0,0,0-.86-.25,43.66,43.66,0,0,1,5-4.81l.1.12a4.5,4.5,0,0,0,2.47,1.27,9.23,9.23,0,0,1-4,5.77,2,2,0,0,1-1.11.3.39.39,0,0,1,0-.1A3.63,3.63,0,0,0,50.21,105.19ZM47,68.17a.3.3,0,0,1-.06-.19l.64-.13a9.78,9.78,0,0,0,1-.31,9.84,9.84,0,0,0,.65.94,1.37,1.37,0,0,0-.77.12A2.59,2.59,0,0,1,47,68.17Zm-6.44,7a2.27,2.27,0,0,0-.85-.25,43.41,43.41,0,0,1,5-4.81l.1.12a4.41,4.41,0,0,0,2.47,1.27,9.2,9.2,0,0,1-4,5.77,1.78,1.78,0,0,1-1.11.3.24.24,0,0,1,0-.1A3.62,3.62,0,0,0,40.51,75.13ZM63.77,62.55c0-.07,0-.16.09-.26a3,3,0,0,0-.25-2.7,2.92,2.92,0,0,0,1.06-.11l.08.26a3,3,0,0,0,3,2.29H68a5.41,5.41,0,0,0,2-.59,10.89,10.89,0,0,0-.74,7.22,34.21,34.21,0,0,0-4.53-2.29,1.81,1.81,0,0,0,.55-1.1A2.26,2.26,0,0,0,63.77,62.55ZM75,45.05s.14,0,.29.33a1.64,1.64,0,0,0,.25.36c-.08,0-.18.09-.26.15a7.67,7.67,0,0,0-.74.53c-.27-.21-.55-.42-.84-.61a2.39,2.39,0,0,1-.22-.12s.08-.09.12-.15A2.4,2.4,0,0,1,75,45.05ZM85.39,59.66a3.26,3.26,0,0,0,.43,1l-.22.15a3.06,3.06,0,0,0-1.15,3.84A5.64,5.64,0,0,0,86,66.69a11.09,11.09,0,0,0-6.82,1.57,31.82,31.82,0,0,0,.77-5.16l.25,0a3.45,3.45,0,0,0,.38,0,2.25,2.25,0,0,0,2.08-2.36h.28A3,3,0,0,0,85.39,59.66ZM102.73,66s0,.15-.22.39a1.4,1.4,0,0,0-.26.34L102,66.5a9,9,0,0,0-.73-.53,8.13,8.13,0,0,0,.31-1l.06-.23.15,0A2.42,2.42,0,0,1,102.73,66Zm-4.68,2.29s-.1-.11,0-.44a1.51,1.51,0,0,0-.38-1.26,5.2,5.2,0,0,1-.11-.67l.17.16a11.54,11.54,0,0,0,1,.73,11,11,0,0,0-.35,1.06l-.12.57A.66.66,0,0,1,98.05,68.27Zm2.16-4a9.41,9.41,0,0,0-.6.81,9.81,9.81,0,0,0-1.08-.37,1.55,1.55,0,0,0,.56-.55,2.4,2.4,0,0,1,1.4-.49s.08,0,.16.12C100.5,63.94,100.35,64.11,100.21,64.27ZM63.7,87a3.14,3.14,0,0,0,1-.11l.08.26a3.25,3.25,0,0,0,.65,1.22,14.71,14.71,0,0,0-2.16,1C63.43,88.52,63.59,87.73,63.7,87Zm-3.86,3.69-.15,0a4.52,4.52,0,0,0-2.75.42,9.22,9.22,0,0,1-.15-7,1.87,1.87,0,0,1,.72-.89l.1,0a3.63,3.63,0,0,0,2.59,1,2.26,2.26,0,0,0,.84-.3A42.64,42.64,0,0,1,59.84,90.72Zm-3.7,5.34a1.82,1.82,0,0,1,0-1s.08-.13.41-.18a1.48,1.48,0,0,0,.92-.54v.09a7.23,7.23,0,0,0,0,1.14,8.63,8.63,0,0,0-.86.28Zm3.27-.84a10.85,10.85,0,0,0-.34-1.06c-.07-.17-.15-.35-.23-.52a1.06,1.06,0,0,1,.24,0s.15,0,.3.33a1.47,1.47,0,0,0,1,.79,5.72,5.72,0,0,1,.5.48l-.23,0A9,9,0,0,0,59.41,95.22Zm4.9.38a4.43,4.43,0,0,0-1.25-2.48,9.23,9.23,0,0,1,6.63-2.32,1.93,1.93,0,0,1,1.07.41.19.19,0,0,1,0,.11,3.58,3.58,0,0,0-.11,2.76,2.37,2.37,0,0,0,.54.71,42.81,42.81,0,0,1-6.85,1S64.31,95.65,64.31,95.6Zm4.48-9.44a1.87,1.87,0,0,1-1.11.3.39.39,0,0,1,0-.1,3.63,3.63,0,0,0-1.54-2.3,2.31,2.31,0,0,0-.86-.25,44.53,44.53,0,0,1,5-4.81l.1.12a4.5,4.5,0,0,0,2.47,1.27A9.23,9.23,0,0,1,68.79,86.16ZM63.45,69a44.56,44.56,0,0,1,6.11,3.25l-.08.13A4.5,4.5,0,0,0,69,75.17a9.19,9.19,0,0,1-6.72-2,1.86,1.86,0,0,1-.63-1s0,0,.08-.07a3.6,3.6,0,0,0,1.71-2.18A2.2,2.2,0,0,0,63.45,69Zm8.63-22.57a.32.32,0,0,1,.18-.12c.1.19.2.39.31.57a8.13,8.13,0,0,0,.59.82,8.7,8.7,0,0,0-.69.91,1.55,1.55,0,0,0-.35-.7A2.5,2.5,0,0,1,72.08,46.47Zm1.42,3.4a11.18,11.18,0,0,0,1-.77,7.44,7.44,0,0,0,.9.66c.16.1.34.19.52.29a.93.93,0,0,1-.22.16s-.13.06-.44-.09a1.51,1.51,0,0,0-1.31,0,4.85,4.85,0,0,1-.68-.09A2.39,2.39,0,0,1,73.5,49.87Zm3.15-3.38a1.88,1.88,0,0,1,.57.87s0,.15-.23.39a1.54,1.54,0,0,0-.43,1,.59.59,0,0,0,0-.08,10.41,10.41,0,0,0-.68-.92c.18-.23.36-.47.53-.73S76.56,46.66,76.65,46.49Zm-1.81,9.58c.54,1.25,1,2.29,1.51,3.14a3.14,3.14,0,0,0-.78.71l-.22-.17A3.08,3.08,0,0,0,73,59.1,13.37,13.37,0,0,0,74.84,56.07ZM86.53,73a2.2,2.2,0,0,0,.53.71,43.6,43.6,0,0,1-6.85,1,.81.81,0,0,0,0-.16A4.43,4.43,0,0,0,79,72a9.24,9.24,0,0,1,6.63-2.32,1.93,1.93,0,0,1,1.07.41.19.19,0,0,1,0,.11A3.53,3.53,0,0,0,86.53,73ZM72.47,76.09a1.55,1.55,0,0,0-.35-.7,2.5,2.5,0,0,1,0-1.48.32.32,0,0,1,.18-.12c.1.19.2.39.31.57a8.13,8.13,0,0,0,.59.82A8.7,8.7,0,0,0,72.47,76.09Zm1.21-2.84a2.39,2.39,0,0,1-.22-.12s.08-.09.12-.15a2.4,2.4,0,0,1,1.4-.49s.14,0,.29.33a1.64,1.64,0,0,0,.25.36c-.08,0-.18.09-.26.15a7.67,7.67,0,0,0-.74.53C74.25,73.65,74,73.44,73.68,73.25Zm2.69,1.19c.1-.16.19-.34.28-.51a1.88,1.88,0,0,1,.57.87s0,.15-.23.39a1.54,1.54,0,0,0-.43,1,.59.59,0,0,0,0-.08,9.12,9.12,0,0,0-.68-.92C76,74.94,76.2,74.69,76.37,74.44ZM72.68,63a1.87,1.87,0,0,1,.72-.89l.1,0a3.59,3.59,0,0,0,2.59,1,2.26,2.26,0,0,0,.84-.3,42.64,42.64,0,0,1-1.2,6.82l-.15,0a4.52,4.52,0,0,0-2.75.42A9.27,9.27,0,0,1,72.68,63Zm3,14.7s-.13.06-.44-.1a1.51,1.51,0,0,0-1.31,0,3.71,3.71,0,0,1-.68-.1l.22-.11a11.18,11.18,0,0,0,1-.77,7.44,7.44,0,0,0,.9.66c.16.1.34.19.52.28A.77.77,0,0,1,75.71,77.65ZM77,80.38a4.5,4.5,0,0,0,2-1.95A9.18,9.18,0,0,1,83.17,84a2,2,0,0,1,0,1.15H83a3.55,3.55,0,0,0-2.66.76,2.26,2.26,0,0,0-.51.73,43.78,43.78,0,0,1-3-6.22ZM92.62,84a42.55,42.55,0,0,1-1.2,6.81l-.15,0a4.35,4.35,0,0,0-2.74.42,9.17,9.17,0,0,1-.15-7,1.89,1.89,0,0,1,.71-.9s0,0,.1.06a3.59,3.59,0,0,0,2.6,1A2,2,0,0,0,92.62,84Zm-7.85,3.68A14.23,14.23,0,0,0,85,89.84c-.91-.53-1.74-1-2.46-1.35a1.55,1.55,0,0,0,0-.32h.28A3.16,3.16,0,0,0,84.77,87.65ZM77.45,93.3a3.57,3.57,0,0,0,1.71-2.17,2.19,2.19,0,0,0,0-.89h0a2.49,2.49,0,0,0,.66.28,47.33,47.33,0,0,1,5.45,3,.57.57,0,0,0-.08.13,4.46,4.46,0,0,0-.45,2.74,9.21,9.21,0,0,1-6.72-2,1.86,1.86,0,0,1-.63-1Zm10.25,2a.73.73,0,0,1,.08-.25s.07-.13.41-.18a1.52,1.52,0,0,0,1.08-.74,3.77,3.77,0,0,1,.59-.32l-.09.22a8.86,8.86,0,0,0-.37,1.21,10.28,10.28,0,0,0-1.11,0Zm3.62-.89a1.43,1.43,0,0,0,.67.34,2.48,2.48,0,0,1,.92,1.2.38.38,0,0,1-.06.19l-.6-.28c-.32-.12-.64-.22-1-.31A10.85,10.85,0,0,0,91.32,94.46Zm-.06-13.35L91,81A3.07,3.07,0,0,0,87,81a5.22,5.22,0,0,0-1.16,1.4,11.82,11.82,0,0,0-3.35-5,34.89,34.89,0,0,0,4.7-.74c0,.05,0,.09.07.14a2.26,2.26,0,0,0,2.88,1.25,1.15,1.15,0,0,1,.08.26,3,3,0,0,0,1.8,2A3,3,0,0,0,91.26,81.11ZM89.7,71.64c-.11,0-.21-.11-.34-.16s0-.16.09-.26a3,3,0,0,0-.21-2.64,13.23,13.23,0,0,0,3,.67C91.19,70.15,90.36,71,89.7,71.64ZM83.12,57.73H83a3.59,3.59,0,0,0-2.66.76,2.26,2.26,0,0,0-.51.73,43.24,43.24,0,0,1-3-6.22l.14-.06a4.5,4.5,0,0,0,2-1.95,9.18,9.18,0,0,1,4.24,5.59A2,2,0,0,1,83.12,57.73Zm-12.8-6A4.44,4.44,0,0,0,72.79,53a9.23,9.23,0,0,1-4,5.77,1.78,1.78,0,0,1-1.11.3.24.24,0,0,1,0-.1,3.63,3.63,0,0,0-1.54-2.3,2.31,2.31,0,0,0-.86-.25,44.53,44.53,0,0,1,5-4.81ZM60.49,76.82a4.66,4.66,0,0,0,.14-1.13,11.49,11.49,0,0,0,6.05,2.39,34.8,34.8,0,0,0-3.1,3.06,1.89,1.89,0,0,0-.83-.78,2.26,2.26,0,0,0-3.07.69l-.22-.17a3.06,3.06,0,0,0-2.65-.6,3,3,0,0,0,.22-1h.28A3.05,3.05,0,0,0,60.49,76.82Zm-3-.58h-.11a3.58,3.58,0,0,0-2.66.75,2.26,2.26,0,0,0-.51.73,43,43,0,0,1-3-6.21l.14-.06a4.57,4.57,0,0,0,2-2,9.18,9.18,0,0,1,4.24,5.59A2,2,0,0,1,57.53,76.24ZM46.82,66.45l-.19.17a1.4,1.4,0,0,0-.1-.16,2.5,2.5,0,0,1,0-1.48s.08-.13.41-.18a1.4,1.4,0,0,0,.41-.13c0,.1,0,.2.07.3a8,8,0,0,0,.28.87A10,10,0,0,0,46.82,66.45Zm3.85,1.65c0-.07,0-.15-.05-.23a9.3,9.3,0,0,0-.42-1.19,8.35,8.35,0,0,0,.91-.65l.44-.4a1,1,0,0,1,.08.24s0,.15-.23.39A1.52,1.52,0,0,0,51,67.5,5.59,5.59,0,0,1,50.67,68.1Zm-1-4.2a1.49,1.49,0,0,0,.79.71l-.08,0a7.73,7.73,0,0,0-1.09.36c-.17-.25-.34-.5-.53-.73s-.25-.29-.38-.43a1.92,1.92,0,0,1,1-.27S49.53,63.59,49.69,63.9ZM47.56,90.17a44.56,44.56,0,0,1,6.11,3.25l-.09.13a4.57,4.57,0,0,0-.44,2.75,9.14,9.14,0,0,1-6.72-2,1.93,1.93,0,0,1-.64-1,.28.28,0,0,1,.09-.07,3.6,3.6,0,0,0,1.71-2.18A2.2,2.2,0,0,0,47.56,90.17Zm12.26,8.61a.3.3,0,0,1-.2,0c0-.22.06-.44.07-.66s0-.67,0-1a10.51,10.51,0,0,0,1.09-.33,1.55,1.55,0,0,0-.12.77A2.54,2.54,0,0,1,59.82,98.78Zm1.24,2.73a4.42,4.42,0,0,0,2-2,9.16,9.16,0,0,1,4.25,5.59,2,2,0,0,1,0,1.15h-.11a3.59,3.59,0,0,0-2.66.76,2.11,2.11,0,0,0-.51.73,43.78,43.78,0,0,1-3-6.22Zm27.17-3.22s-.1-.11,0-.45a1.52,1.52,0,0,0-.23-1l.08,0a8.58,8.58,0,0,0,1.09.34c0,.3,0,.6,0,.91l.06.57A1.84,1.84,0,0,1,88.23,98.29Zm3.18.55s-.14.07-.44-.09a1.53,1.53,0,0,0-.41-.14c0-.09.09-.18.13-.28a8,8,0,0,0,.28-.87,8.85,8.85,0,0,0,1,0l.25,0a1.08,1.08,0,0,0,0,.18A2.55,2.55,0,0,1,91.41,98.84Zm1.23,2.74a4.52,4.52,0,0,0,2-2,9.2,9.2,0,0,1,4.24,5.59,2,2,0,0,1,0,1.15H98.7a3.58,3.58,0,0,0-2.66.75,2.37,2.37,0,0,0-.51.73,43,43,0,0,1-3-6.21ZM94.3,77.34a1.87,1.87,0,0,1-1.11.3.39.39,0,0,1,0-.1,3.56,3.56,0,0,0-1.54-2.3,2.29,2.29,0,0,0-.85-.26,44.36,44.36,0,0,1,5-4.8l.1.12a4.54,4.54,0,0,0,2.47,1.27A9.22,9.22,0,0,1,94.3,77.34Zm6.93-8.51s-.14.06-.44-.1a1.5,1.5,0,0,0-1.06-.1s0,0,0-.07a8.39,8.39,0,0,0,.67-.93c.28.1.56.2.86.28l.56.12A1.9,1.9,0,0,1,101.23,68.83Zm1.23,2.73a4.5,4.5,0,0,0,2-2,9.25,9.25,0,0,1,4.25,5.58,1.89,1.89,0,0,1-.06,1.15h-.11a3.55,3.55,0,0,0-2.66.76,2.26,2.26,0,0,0-.51.73,43.78,43.78,0,0,1-3-6.22Zm-1.21-10.8-.16,0a4.42,4.42,0,0,0-2.74.42,9.17,9.17,0,0,1-.15-7,1.94,1.94,0,0,1,.72-.9l.09.06a3.51,3.51,0,0,0,2.6,1,2.14,2.14,0,0,0,.84-.29A44.75,44.75,0,0,1,101.25,60.76ZM89,60.22a43.43,43.43,0,0,1,6.11,3.25L95,63.6a4.48,4.48,0,0,0-.45,2.74,9.24,9.24,0,0,1-6.72-2,1.9,1.9,0,0,1-.63-1,.45.45,0,0,1,.08-.08A3.51,3.51,0,0,0,89,61.11,2.19,2.19,0,0,0,89,60.22ZM75.73,42.15l-.15,0a4.52,4.52,0,0,0-2.75.42,9.27,9.27,0,0,1-.15-7,1.87,1.87,0,0,1,.72-.89l.1.05a3.59,3.59,0,0,0,2.59,1,2.26,2.26,0,0,0,.84-.3A42.64,42.64,0,0,1,75.73,42.15Zm-12.28-.54a44.29,44.29,0,0,1,6.11,3.24l-.08.13A4.5,4.5,0,0,0,69,47.73a9.19,9.19,0,0,1-6.72-2,1.86,1.86,0,0,1-.63-1s0,0,.08-.07a3.6,3.6,0,0,0,1.71-2.18A2.15,2.15,0,0,0,63.45,41.61ZM60,60.75a2,2,0,0,1,1.08.4.31.31,0,0,1,0,.11,3.56,3.56,0,0,0-.1,2.77,2.15,2.15,0,0,0,.53.7,43.6,43.6,0,0,1-6.85,1,.81.81,0,0,0,0-.16,4.43,4.43,0,0,0-1.25-2.48A9.22,9.22,0,0,1,60,60.75Zm-.16,7.4a2.82,2.82,0,0,0,.48,1.31l-.22.16A3.13,3.13,0,0,0,59,70.87a14.12,14.12,0,0,0-2-2.35C58,68.41,59,68.29,59.83,68.15Zm-9.69-7.49-.15,0a4.49,4.49,0,0,0-2.74.42,9.21,9.21,0,0,1-.16-7,1.87,1.87,0,0,1,.72-.9.29.29,0,0,1,.1.06,3.59,3.59,0,0,0,2.59,1,2.44,2.44,0,0,0,.84-.29A42.74,42.74,0,0,1,50.14,60.66Zm-12.28-.54A44.29,44.29,0,0,1,44,63.36a1,1,0,0,0-.08.14,4.46,4.46,0,0,0-.45,2.74,9.2,9.2,0,0,1-6.72-2,1.82,1.82,0,0,1-.63-1s0,0,.08-.07A3.6,3.6,0,0,0,37.88,61,2.15,2.15,0,0,0,37.86,60.12Z"/></svg>