<svg id="expanded" xmlns="http://www.w3.org/2000/svg" viewBox="0 0 150 150"><title>Crocus-bold</title><path d="M86,76.45c-.45.58-1.72,2.25-3.39,4.6,1.19-4.34,2.86-7.62,4.68-9.25a82.92,82.92,0,0,0,11-11.33,28.52,28.52,0,0,0,4.68-6.56c4.89-9.36,8.38-22,2.53-27.6l-.07-.08L105.1,26l-.16-.13h0l0,0,0,0-.4-.32-.13-.07a9.86,9.86,0,0,0-5.68-1.63,15.05,15.05,0,0,0-1.74.11A9.65,9.65,0,0,0,93,19.68l-.13-.09-.54-.24-.46-.21-.13,0a9,9,0,0,0-3.09-.53,12.28,12.28,0,0,0-4.55,1c-2.52-3.43-5.34-5.28-8.41-5.51l-.12,0H74.44l-.13,0c-3.08.23-5.9,2.08-8.42,5.51a12.28,12.28,0,0,0-4.55-1,9,9,0,0,0-3.08.53l-.11,0-.33.15-.15.06-.54.24-.13.1a9.56,9.56,0,0,0-3.93,4.22,15.05,15.05,0,0,0-1.74-.11,9.8,9.8,0,0,0-5.67,1.63l-.14.07-.42.34-.46.37-.09.11C41.74,29,41,33.66,42.36,40.5a48.75,48.75,0,0,0,4.81,13.58,34.13,34.13,0,0,0,3.35,5c1,1.41,4.12,5.49,12.24,12.71,1.77,1.58,3.39,4.74,4.58,8.9-1.55-2.16-2.72-3.7-3.14-4.25-7.35-9.54-22.4-27-40.64-36.67l-3.29-1.5V54.4l1.55,1.12C36.06,66,45.88,79.16,51.82,88.8c7.77,12.62,13,26.25,13.77,35.58l.51,6.46h18l.51-6.46c.72-9.33,6-23,13.77-35.58,5.94-9.64,15.76-22.77,30-33.28l1.55-1.12V38.28l-3.29,1.5C108.34,49.46,93.29,66.91,86,76.45ZM69.46,25.05l1.73,1c1.8-3.11,3.21-4,3.75-4h.12c.54.05,2,.93,3.75,4l1.73-1h0l.5.88a38.94,38.94,0,0,0-3.29,2.8l-1,1.07A5,5,0,0,0,75,29.49h0a4.89,4.89,0,0,0-1.64.29l-1.14-1.1a37.91,37.91,0,0,0-3.3-2.8l.56-.83ZM50.07,32.1l0,0a.1.1,0,0,0,0,0l0,0c.33-.23,1.42-.43,3.54.14l1.37.42a48.83,48.83,0,0,0,1.29,13.55,24.08,24.08,0,0,0,3.26,7.78l1.72,2.92a23.22,23.22,0,0,0,.19,2.8,42.35,42.35,0,0,1-4.47-5.13,2.35,2.35,0,0,0-.23-.32,21.12,21.12,0,0,1-2.67-4C49.13,40.56,48.82,33.26,50.07,32.1Zm10.77-5.41.1,0,.05,0c.79-.29,3.8.54,8.45,4.95l.57.55c-3.49,3.72-6.39,10.84-7.94,18a20.77,20.77,0,0,1-1.8-4.93C57.81,34.59,59.37,27.44,60.84,26.69Zm5,25C68.18,40.05,73,33.62,74.92,33.49h.16c1.9.13,6.74,6.56,9.09,18.24,1.15,5.67.21,11-2.49,14.28l0,0c-3.2,3-5.35,7.63-6.71,12.3C73.64,73.67,71.49,69,68.29,66l0,0C65.62,62.74,64.68,57.4,65.83,51.73ZM89.11,26.67h0c1.5.8,3,7.94.59,18.55a20.77,20.77,0,0,1-1.8,4.93C86.38,43,83.49,35.87,80,32.15l.55-.57c4.65-4.42,7.67-5.24,8.45-5Zm5.81,6,1.5-.53c2-.53,3.09-.33,3.41-.11l0,0,0,0,0,0c1.25,1.16.94,8.46-4.1,18.1a20.79,20.79,0,0,1-3.58,5,2.09,2.09,0,0,0-.2.22,42.49,42.49,0,0,1-3.59,4.18,22.07,22.07,0,0,0,.19-2.73l1.72-2.92a24.08,24.08,0,0,0,3.26-7.78A48.59,48.59,0,0,0,94.92,32.66ZM20.28,46C44.43,58.78,66.3,88.68,73,103.48v20.36h-.43C71,104.1,52.11,66.32,20.28,46Zm57.3,77.88H77v-20C83.53,89.12,105.55,58.87,129.87,46,98,66.32,79.12,104.1,77.58,123.84Z"/></svg>