<svg id="expanded" xmlns="http://www.w3.org/2000/svg" viewBox="0 0 150 150"><title>Rhododendron-bold</title><path d="M46.68,43.76a8.39,8.39,0,0,0-5.14,1.93c-.34.26-.47.26-.56.26a6.49,6.49,0,0,1-.81-.1,10.65,10.65,0,0,0-2-.21,8.57,8.57,0,0,0-4.71,1.49,9.92,9.92,0,0,0-3.69,5.24c-.86,2.21-1.1,2.68-2.85,2.78a3.89,3.89,0,0,0-3.27,2.39A4.42,4.42,0,0,0,24.1,62c1.48,1.88,1.26,2.9.87,4.75a9.83,9.83,0,0,0,.15,6,8.47,8.47,0,0,0,4.65,5c.87.43.87.43,1,1C32.68,85,37.94,85,40.47,85h.88a14.94,14.94,0,0,1,1.87.09,20.84,20.84,0,0,1-1.85,1.44c-2.33,1.66-6.67,4.74-4.5,11,.17.5.17.5-.27,1.35a8.48,8.48,0,0,0-.85,6.78,9.81,9.81,0,0,0,3.84,5.12c1.8,1.48,2.21,1.89,1.78,3.58a3.72,3.72,0,0,0,.71,3.25,4.66,4.66,0,0,0,3.61,1.8,3.89,3.89,0,0,0,1.36-.24,5.78,5.78,0,0,1,2-.41,5.52,5.52,0,0,1,2.81,1,10.13,10.13,0,0,0,5.32,1.74h.48a8.53,8.53,0,0,0,6.18-2.9c.66-.67.66-.68,1.13-.68h.35c6.34,0,7.9-5,8.74-7.66a18.67,18.67,0,0,1,.8-2.21,20.32,20.32,0,0,1,.81,2.21c.84,2.68,2.4,7.66,8.74,7.66h.34c.48,0,.48,0,1.14.68a8.5,8.5,0,0,0,6.18,2.9h.42a10.2,10.2,0,0,0,5.64-2.08,5.71,5.71,0,0,1,2.45-1.15,2.92,2.92,0,0,1,1.49.57,3.7,3.7,0,0,0,2,.57,4.4,4.4,0,0,0,3.16-1.43,4.12,4.12,0,0,0,1.21-3.07c-.09-2.36.68-3.06,2.09-4.33a9.88,9.88,0,0,0,3.44-5,8.52,8.52,0,0,0-.85-6.78c-.45-.85-.45-.85-.27-1.35,2.17-6.21-2.17-9.29-4.5-11a23,23,0,0,1-1.86-1.44,15.05,15.05,0,0,1,1.87-.09h.89c2.53,0,7.79,0,9.67-6.21.15-.52.15-.52,1-1a8.48,8.48,0,0,0,4.66-5,9.86,9.86,0,0,0-.1-6.41c-.59-2.25-.67-2.82.68-3.93a3.89,3.89,0,0,0,1.24-3.85,4.44,4.44,0,0,0-3-3.39c-2.32-.64-2.74-1.6-3.51-3.32a9.88,9.88,0,0,0-3.67-4.81,8.57,8.57,0,0,0-4.71-1.49,10.56,10.56,0,0,0-2,.21,6.62,6.62,0,0,1-.82.1c-.08,0-.21,0-.56-.26A8.39,8.39,0,0,0,103,43.76c-2.53,0-4.69,1.35-6.65,2.81a19.76,19.76,0,0,1-2,1.32A17.93,17.93,0,0,1,95,45.63c.91-2.7,2.6-7.74-2.8-11.49-.44-.3-.44-.3-.58-1.26a8.47,8.47,0,0,0-3.29-6A9.86,9.86,0,0,0,82.22,25c-2.33-.14-2.9-.23-3.54-1.86a3.89,3.89,0,0,0-3.77-2.39,4.33,4.33,0,0,0-3.65,1.83c-1.32,2-2.36,2.09-4.25,2.29a9.87,9.87,0,0,0-5.71,2,8.51,8.51,0,0,0-3.29,6c-.14,1-.14,1-.57,1.26-5.41,3.75-3.71,8.79-2.8,11.5a22.11,22.11,0,0,1,.65,2.25,17.2,17.2,0,0,1-1.95-1.32C51.07,44.89,49.07,43.76,46.68,43.76ZM74.79,25.44c1.78,3.75,4.89,3.93,7.19,4.07a6,6,0,0,1,3.54.88,4.08,4.08,0,0,1,1.68,3.14,5.48,5.48,0,0,0,2.47,4.31c2.08,1.44,2.31,2.75,1.09,6.36-.73,2.19-1.28,4.21-.77,6.08a7.87,7.87,0,0,0-2.85,1.91A4.67,4.67,0,0,0,86,54.84a6.8,6.8,0,0,0,.32,2.52,1.37,1.37,0,0,1-.46,1.44,11,11,0,0,1-1.75,1.28c-1.25.8-2.73,1.64-3.36,3.08.86-1.3,2.33-1.82,3.7-2.42a10.42,10.42,0,0,0,2.13-1.08,3.18,3.18,0,0,0,.94-1,2.53,2.53,0,0,0,.28-1.5,8.93,8.93,0,0,1-.07-1.07,3.36,3.36,0,0,1,.12-.92,2.56,2.56,0,0,1,.88-1.35A6.9,6.9,0,0,1,92,52.65c2.56.61,4.7-.75,7-2.47,3-2.26,4.36-2.45,6.38-.91a5.48,5.48,0,0,0,4.85,1,4.07,4.07,0,0,1,3.51.64,5.67,5.67,0,0,1,2,2.85c.89,2,2,4.45,6,5.71-3,2.85-2.23,5.86-1.65,8.09a6.06,6.06,0,0,1,.26,3.64,4.09,4.09,0,0,1-2.46,2.57,5.51,5.51,0,0,0-3.34,3.68c-.74,2.45-1.87,3-5.71,3-2.32,0-4.41.08-6,1.14a7.64,7.64,0,0,0-2.7-2.1,4.63,4.63,0,0,0-2.86-.27A6.83,6.83,0,0,0,95,80.32a1.37,1.37,0,0,1-1.51,0,10.36,10.36,0,0,1-1.76-1.27c-1.15-.94-2.41-2.08-4-2.23,1.5.41,2.45,1.65,3.45,2.77a10.79,10.79,0,0,0,1.69,1.69,3.09,3.09,0,0,0,1.27.57,2.57,2.57,0,0,0,1.52-.2c.42-.18.65-.29,1-.4a4.39,4.39,0,0,1,.91-.17,2.67,2.67,0,0,1,1.56.42,6.94,6.94,0,0,1,2.06,2.73c.22,2.63,2.17,4.26,4.53,5.93,3.14,2.23,3.7,3.37,2.85,5.8a5.44,5.44,0,0,0,.54,4.92,4.12,4.12,0,0,1,.48,3.54,5.84,5.84,0,0,1-2.09,2.78c-1.62,1.45-3.63,3.26-3.59,7.46-3.64-2-6.27-.31-8.21.93-1.19.77-2.23,1.45-3.38,1.37a4.07,4.07,0,0,1-3.21-1.55,5.52,5.52,0,0,0-4.51-2c-2.57,0-3.48-.82-4.64-4.49-.69-2.21-1.42-4.17-2.94-5.38a7.81,7.81,0,0,0,1.17-3.22,4.77,4.77,0,0,0-.63-2.81,6.8,6.8,0,0,0-1.75-1.85,1.38,1.38,0,0,1-.47-1.44A10.06,10.06,0,0,1,76,92.12c.53-1.39,1.24-2.94.89-4.47.08,1.56-.81,2.85-1.57,4.14a11.69,11.69,0,0,0-1.08,2.12,3.16,3.16,0,0,0-.15,1.39,2.45,2.45,0,0,0,.66,1.38c.3.36.48.54.68.83a3.84,3.84,0,0,1,.45.81A2.62,2.62,0,0,1,76,99.93a6.86,6.86,0,0,1-2,2.82c-2.44,1-3.38,3.37-4.24,6.13-1.16,3.67-2.07,4.57-4.64,4.49a5.46,5.46,0,0,0-4.51,2A4.08,4.08,0,0,1,57.38,117a5.91,5.91,0,0,1-3.29-1.13A9.55,9.55,0,0,0,49,114.17a10.09,10.09,0,0,0-3.15.55c.77-4.08-1.64-6-3.43-7.51-1.1-.9-2.05-1.68-2.34-2.79a4.12,4.12,0,0,1,.48-3.54A5.44,5.44,0,0,0,41.14,96c-.85-2.43-.29-3.57,2.85-5.8,1.89-1.34,3.52-2.64,4.21-4.46a7.81,7.81,0,0,0,3.42.12,4.7,4.7,0,0,0,2.48-1.47,7.07,7.07,0,0,0,1.22-2.23,1.36,1.36,0,0,1,1.22-.89,10.35,10.35,0,0,1,2.16,0c1.49.08,3.18.27,4.53-.53-1.45.56-2.95.11-4.42-.21a10.7,10.7,0,0,0-2.35-.37,3,3,0,0,0-1.37.28A2.48,2.48,0,0,0,54,81.45c-.24.39-.36.62-.57.9a4.17,4.17,0,0,1-.64.68,2.61,2.61,0,0,1-1.51.57,7,7,0,0,1-3.28-1c-1.72-2-4.25-2.17-7.14-2.14-3.85,0-5-.55-5.71-3a5.52,5.52,0,0,0-3.33-3.68,4.08,4.08,0,0,1-2.47-2.57,5.76,5.76,0,0,1,.06-3.48c.45-2.14,1-4.77-1.49-8.15C32,59.06,33.16,56.16,34,54c.52-1.33,1-2.47,1.93-3.09a4.07,4.07,0,0,1,3.51-.64,5.48,5.48,0,0,0,4.85-1c2-1.54,3.33-1.35,6.39.91,1.85,1.39,3.6,2.54,5.54,2.63a7.72,7.72,0,0,0,1,3.29A4.67,4.67,0,0,0,59.33,58a6.84,6.84,0,0,0,2.5.48,1.35,1.35,0,0,1,1.22.88,10,10,0,0,1,.68,2.06c.38,1.43.72,3.1,1.9,4.14-1-1.21-1-2.78-1.16-4.27a10.82,10.82,0,0,0-.38-2.36,3,3,0,0,0-.69-1.21A2.54,2.54,0,0,0,62.06,57c-.46-.11-.71-.15-1-.26a4.08,4.08,0,0,1-.84-.4,2.6,2.6,0,0,1-1-1.25,6.87,6.87,0,0,1-.06-3.45c1.35-2.24.73-4.7-.18-7.43-1.22-3.61-1-4.92,1.1-6.36a5.5,5.5,0,0,0,2.46-4.31,4.06,4.06,0,0,1,1.69-3.14,5.74,5.74,0,0,1,3.33-1C69.67,29.14,72.35,28.85,74.79,25.44Z"/><path d="M73.51,54.32c-.48-.26-1,0-.92.25s.73.76,1,.68C74.1,55.06,74,54.59,73.51,54.32Z"/><path d="M73.34,55.42c-.23,0-.63-.49-.94-.65s-.16.73.26.92S73.56,55.45,73.34,55.42Z"/><path d="M73.14,56c-.42,0-1.25-.33-1.43-.26s-.4.37.35.77S73.44,56,73.14,56Z"/><path d="M71.3,55.48c.31-.18-.24-1-.81-.73S71,55.64,71.3,55.48Z"/><path d="M71.07,53.21c-.23.18.18,1,.44,1.16s.86-.37.69-.62S71.31,53,71.07,53.21Z"/><path d="M69.5,54.44c-.34.15.19.82.51.51S70,54.21,69.5,54.44Z"/><path d="M68.39,54.46c.57,0,0-.7.36-.76s.64.46,1.2.5.59-.29.24-.52a6.68,6.68,0,0,0-1.61-.49C68.18,53.08,67.83,54.42,68.39,54.46Z"/><path d="M68.16,54.8c-.66.14-.66.7.22.46S68.82,54.65,68.16,54.8Z"/><path d="M71.28,56.54c-.51-.09-.8.74,0,.85S71.77,56.63,71.28,56.54Z"/><path d="M69.68,55.93c-.34.17.15.91.84.32C70.85,56,70,55.76,69.68,55.93Z"/><path d="M68.19,56c.27-.41-.28,0-.57-.19s0-.31-.29-.21C66.77,55.77,67.92,56.41,68.19,56Z"/><path d="M72.33,57c-.35.12-.31.58.16.59S72.86,56.8,72.33,57Z"/><path d="M74.08,52.73c-.59-.2-.47.27-.92.15s0-.65-.64-.56-.5,1.14.44,1.29S74.67,52.94,74.08,52.73Z"/><path d="M72.54,51.93c.48-.16-.12-1-.77-.82s-.63,1.71-.18,1.53-.07-.63.31-.82S72,52.13,72.54,51.93Z"/><path d="M71.48,41.37c.45-.18-.07-.63.32-.82s0,.31.63.12-.11-1-.77-.82S71,41.55,71.48,41.37Z"/><path d="M70.44,52.57c.49-.24-.2-1-.74-.68s0,1.27.37,1.35S70,52.81,70.44,52.57Z"/><path d="M68.52,51.1c-.55.09-.71,1.47.16,1.54.4,0-.16-.65.15-.89S69.08,51,68.52,51.1Z"/><path d="M74,50.62c-.6,0-.45.64-.75.8s.82,1.07,1.2.86S74.26,50.62,74,50.62Z"/><path d="M70.36,50.35a.7.7,0,0,0-.1,1.17c.69.19.46-.64.88-.9S71,49.9,70.36,50.35Z"/><path d="M69.47,49.34c-.23.39-.29,1.49-.15,1.45.36-.09.19-.62.47-.79s.73-.37.51-.65S69.71,49,69.47,49.34Z"/><path d="M69.77,41.16c-.23.39-.29,1.49-.15,1.45.36-.09.19-.62.47-.79s.73-.37.51-.65S70,40.77,69.77,41.16Z"/><path d="M71.81,50.25c.59.13.92-.66.71-1.11s-1.13-.2-1.31.11S71.54,50.19,71.81,50.25Z"/><path d="M74.35,49.8c.5-.35-.34-1.28-.87-1.25s-.17.46-.54.76S73.84,50.16,74.35,49.8Z"/><path d="M70.51,48.83c.5.05.15-.18.59-.41s.41.17.86-.08-.8-1.23-1.55-.46S70.51,48.83,70.51,48.83Z"/><path d="M67.27,51.25c-.07-.49,1-1.32.17-1.37-.49,0-.57.56-1.34,1S67.34,51.75,67.27,51.25Z"/><path d="M68.66,48.8c-.6,0-.73.81-.16.85S69.05,48.79,68.66,48.8Z"/><path d="M68.59,50.64c.42-.18.25-.65-.24-.52S68.16,50.82,68.59,50.64Z"/><path d="M71.13,42.3c.42-.18.26-.65-.24-.51S70.71,42.48,71.13,42.3Z"/><path d="M67.2,52.26c-.44.22-.24.73.39.56S67.65,52.05,67.2,52.26Z"/><path d="M67.37,54.49c.24-.14,0-.42-.05-.69s1.05-.6.26-.73c-.37-.06-.36.18-.85.41S67.13,54.63,67.37,54.49Z"/><path d="M67.12,47.5c-.53.2.23,1.38.69,1.25C68.75,48.49,67.66,47.3,67.12,47.5Z"/><path d="M69.73,47.82c.6-.06,0-.55.85-.75s-.57-.74-1.19-.19S69.39,47.86,69.73,47.82Z"/><path d="M68.5,47c-.16-.34-1.89-.42-2.09-.23S68.63,47.3,68.5,47Z"/><path d="M73.68,45.72c-.48.1-.38,2.14.33,2.23s0-.39.17-1.15S74.16,45.61,73.68,45.72Z"/><path d="M72.29,46.67c-.9.29-.51,1,.14,1.09S73.18,46.37,72.29,46.67Z"/><path d="M71.4,46.24c0,.35,1.49.07,1.43-.29S71.36,45.86,71.4,46.24Z"/><path d="M69.76,46.21c-.22.23.6.36.81.14S70,46,69.76,46.21Z"/><path d="M72.74,41.33c.32-.33-.6-.35-.81-.13S72.53,41.55,72.74,41.33Z"/><path d="M71.93,39.22c-.22.22.6.35.81.13S72.14,39,71.93,39.22Z"/><path d="M74.15,44c-.67-.44-1,.3-.53.73s-.27.22,0,.53S74.82,44.43,74.15,44Z"/><path d="M73,40.32c.44.43-.28.22,0,.54s1.18-.82.51-1.26S72.58,39.89,73,40.32Z"/><path d="M72.63,45.38c.52-.13.15-1.5-.61-1.3S71.42,45.69,72.63,45.38Z"/><path d="M70.21,45.56c.27-.3-.27-.8-.73-.3S69.93,45.87,70.21,45.56Z"/><path d="M68.29,45.47c.59-.32-.44-1.12-1.23-.85S67.54,45.88,68.29,45.47Z"/><path d="M69.07,44.07c.25-.31-1.47-1.14-1.8-.89S68.81,44.38,69.07,44.07Z"/><path d="M70.93,43.56c.44-.44.53-.92-.13-.74s-.86,1.38,0,1.49C71.38,44.39,70.5,44,70.93,43.56Z"/><path d="M72.64,43.56c.62-.11.5-1.3-.12-1.21S72,43.68,72.64,43.56Z"/><path d="M74.18,42.38c-.67.16-.39,1.06,0,1.13C75,43.67,74.85,42.23,74.18,42.38Z"/><path d="M69.05,58.08c.35-.06.88-1.39.44-1.39S68.69,58.13,69.05,58.08Z"/><path d="M68.48,56.63c0-.22-.23-.44-.89,0S68.49,57.14,68.48,56.63Z"/><path d="M68.11,58.33c.62-.37.54-.89-.09-.78S67.74,58.55,68.11,58.33Z"/><path d="M70,58.67c.39-.08,0-.67.48-.61s1-.2.5-.37-.33-.06-.93.12S69.59,58.75,70,58.67Z"/><path d="M72.1,57.93c-.37-.08-.24.34-.58.46s-.31.38.19.41S72.48,58,72.1,57.93Z"/><path d="M70.92,59.15c.43-.12.15-.58-.26-.46S70.49,59.26,70.92,59.15Z"/><path d="M73.15,59.81c.33-.09-.51-.94-1.3-.7-.58.18-.09.65.4.52S72.81,59.91,73.15,59.81Z"/><path d="M71.35,60c.42-.41-.43-.62-.61-.4A.37.37,0,0,0,71.35,60Z"/><path d="M71.84,60.17c-.4.31,0,.74.39.46S72,60,71.84,60.17Z"/><path d="M76.12,55.25c.25.08.89-.38,1-.68s-.44-.51-.92-.25S75.59,55.06,76.12,55.25Z"/><path d="M77,55.69c.42-.19.45-1,.26-.92s-.71.62-.94.65S76.61,55.89,77,55.69Z"/><path d="M78,55.7c-.19-.07-1,.26-1.44.26s.33.9,1.08.51S78.17,55.76,78,55.7Z"/><path d="M79.21,54.75c-.58-.29-1.13.55-.82.73S79.78,55.05,79.21,54.75Z"/><path d="M78.18,54.37c.26-.14.67-1,.44-1.16s-1,.29-1.13.54S77.82,54.55,78.18,54.37Z"/><path d="M80.19,54.44c-.54-.23-.83.21-.51.51S80.53,54.59,80.19,54.44Z"/><path d="M79.74,54.2c.56,0,.81-.57,1.2-.5s-.21.79.36.76.21-1.38-.19-1.27a6.68,6.68,0,0,0-1.61.49C79.15,53.91,79.31,54.11,79.74,54.2Z"/><path d="M81.53,54.8c-.66-.15-1.1.22-.22.46S82.19,54.94,81.53,54.8Z"/><path d="M78.38,57.39c.84-.11.54-.94,0-.85S77.55,57.5,78.38,57.39Z"/><path d="M80,55.93c-.35-.17-1.17,0-.84.32C79.86,56.84,80.35,56.1,80,55.93Z"/><path d="M82.36,55.6c-.34-.1,0,0-.29.21s-.84-.22-.57.19S82.92,55.77,82.36,55.6Z"/><path d="M77.2,57.58c.47,0,.51-.47.16-.59C76.83,56.8,76.73,57.59,77.2,57.58Z"/><path d="M76.73,53.61c.94-.15,1.12-1.2.44-1.29s-.17.43-.64.56-.33-.35-.92-.15S75.79,53.76,76.73,53.61Z"/><path d="M77.15,51.93c.58.2.25-.31.64-.11s-.14.64.31.82.48-1.33-.17-1.53S76.68,51.77,77.15,51.93Z"/><path d="M79.62,53.24c.41-.08.91-1.05.37-1.35s-1.23.44-.74.68S79.25,53.31,79.62,53.24Z"/><path d="M80.86,51.75c.31.24-.25.93.15.89.87-.07.71-1.45.16-1.54S80.56,51.52,80.86,51.75Z"/><path d="M75.25,52.28c.39.21,1.5-.7,1.2-.86s-.14-.82-.75-.8C75.43,50.62,74.87,52.08,75.25,52.28Z"/><path d="M78.55,50.62c.42.26.19,1.09.88.9a.7.7,0,0,0-.1-1.17C78.67,49.9,78.14,50.36,78.55,50.62Z"/><path d="M80.22,49.34c-.24-.39-.61-.27-.83,0s.24.48.51.65.11.7.47.79C80.51,50.83,80.45,49.73,80.22,49.34Z"/><path d="M77.17,49.14c-.21.45.12,1.24.71,1.11.28-.06.78-.7.6-1S77.38,48.68,77.17,49.14Z"/><path d="M75.35,49.8c.5.36,1.77-.2,1.4-.49s-.08-.74-.54-.76S74.84,49.45,75.35,49.8Z"/><path d="M77.73,48.34c.45.25.42-.14.86.08s.09.46.59.41c0,0,.85-.18.1-.95S77.28,48.09,77.73,48.34Z"/><path d="M82.25,49.88c-.79,0,.24.88.17,1.37s2,.13,1.17-.34S82.74,49.85,82.25,49.88Z"/><path d="M81,48.8c-.39,0-.41.88.16.85S81.64,48.82,81,48.8Z"/><path d="M81.34,50.12c-.49-.13-.66.34-.24.52S81.84,50.26,81.34,50.12Z"/><path d="M73.3,41.5c-.49-.13-.66.33-.24.51S73.8,41.64,73.3,41.5Z"/><path d="M82.1,52.82c.63.17.83-.34.39-.56S81.57,52.68,82.1,52.82Z"/><path d="M83,53.48c-.49-.23-.48-.47-.85-.41-.79.13.35.47.27.73s-.3.55-.06.69S83.46,53.71,83,53.48Z"/><path d="M82.57,47.5c-.54-.2-1.63,1-.69,1.25C82.34,48.88,83.1,47.7,82.57,47.5Z"/><path d="M79.11,47.07c.8.2.25.69.85.75.34,0,1-.39.34-.94S78.31,46.88,79.11,47.07Z"/><path d="M81.19,47c-.13.27,2.29,0,2.09-.23S81.35,46.69,81.19,47Z"/><path d="M75.68,48c.72-.09.82-2.13.33-2.23s-.72.32-.5,1.08S75.05,48,75.68,48Z"/><path d="M74.42,40c-.38-.09-.57.25-.4.85s-.36,1,.14.9S74.8,40.12,74.42,40Z"/><path d="M77.26,47.76c.65-.1,1-.8.15-1.09S76.61,47.86,77.26,47.76Z"/><path d="M76.86,46c-.06.36,1.39.64,1.43.29S76.92,45.59,76.86,46Z"/><path d="M79.12,46.35c.21.22,1,.09.81-.14S78.8,46,79.12,46.35Z"/><path d="M75.54,44c-.67.44.16,1.64.51,1.26s-.42-.1,0-.53S76.21,43.55,75.54,44Z"/><path d="M77.67,44.08c-.76-.2-1.13,1.17-.61,1.3C78.27,45.69,78.42,44.29,77.67,44.08Z"/><path d="M80.21,45.26c-.46-.5-1,0-.72.3S80.67,45.77,80.21,45.26Z"/><path d="M81.4,45.47c.75.41,2-.58,1.23-.85S80.81,45.15,81.4,45.47Z"/><path d="M80.62,44.07c.26.31,2.14-.63,1.8-.89S80.37,43.76,80.62,44.07Z"/><path d="M78.89,42.82c-.66-.18-.57.3-.13.74s-.45.83.14.75C79.75,44.2,79.55,43,78.89,42.82Z"/><path d="M73.86,38c-.66-.18-.57.3-.13.74s-.45.83.14.75C74.72,39.34,74.52,38.14,73.86,38Z"/><path d="M78.23,39.86c-.66-.19-1.25.66-.77.82s.25-.31.63-.12-.13.65.32.83S78.89,40.05,78.23,39.86Z"/><path d="M79.29,41.18c-.22.28.24.49.51.66s.11.69.47.79c.14,0,.08-1.06-.15-1.45S79.51,40.9,79.29,41.18Z"/><path d="M79,41.8c-.5-.13-.66.34-.24.52S79.49,41.94,79,41.8Z"/><path d="M77.15,41.35c.21.22,1,.09.81-.13S76.83,41,77.15,41.35Z"/><path d="M77.15,39.36c.21.22,1,.09.81-.13S76.83,39,77.15,39.36Z"/><path d="M76.35,39.61c-.67.44.16,1.64.51,1.26s-.43-.1,0-.53S77,39.17,76.35,39.61Z"/><path d="M76.83,42c.42-.18.25-.65-.24-.51S76.4,42.21,76.83,42Z"/><path d="M75.73,41.81c.5.06,0-.31.14-.9s0-.94-.4-.86S75.17,41.74,75.73,41.81Z"/><path d="M76,38c-.66.18-.86,1.38,0,1.5.59.07-.29-.31.14-.75S76.69,37.79,76,38Z"/><path d="M77.05,43.56c.62.12.74-1.12.12-1.21S76.43,43.45,77.05,43.56Z"/><path d="M75.55,43.51c.36-.07.63-1,0-1.13S74.71,43.67,75.55,43.51Z"/><path d="M80.2,56.69c-.44,0,.09,1.33.45,1.39S80.6,56.69,80.2,56.69Z"/><path d="M81.21,56.63c0,.51,1.55.45.89,0S81.22,56.41,81.21,56.63Z"/><path d="M81.68,57.55c-.64-.11-.72.41-.1.78C82,58.55,82.31,57.67,81.68,57.55Z"/><path d="M79.72,58.67c.39.08.56-.68,0-.86s-.48-.26-.93-.12,0,.42.5.37S79.33,58.59,79.72,58.67Z"/><path d="M78.17,58.39c-.34-.12-.21-.54-.58-.46s-.11.89.39.87S78.52,58.51,78.17,58.39Z"/><path d="M79,58.69c-.41-.12-.69.34-.26.46S79.44,58.81,79,58.69Z"/><path d="M77.84,59.11c-.79-.24-1.63.61-1.3.7s.42-.32.9-.18S78.42,59.29,77.84,59.11Z"/><path d="M79,59.58c-.18-.22-1,0-.61.4A.37.37,0,0,0,79,59.58Z"/><path d="M77.46,60.63c.41.28.79-.15.39-.46C77.65,60,77.05,60.36,77.46,60.63Z"/><path d="M79.24,66.67a1.66,1.66,0,0,0,.13-.64,1.69,1.69,0,0,0-1.68-1.68,1.86,1.86,0,0,0-.63.12,4.67,4.67,0,0,0-4.79,1.59,1.6,1.6,0,0,0-.36-.54,1.68,1.68,0,0,0-2.38,0,1.77,1.77,0,0,0-.36.53,4.63,4.63,0,0,0-2.26,4.5,1.69,1.69,0,0,0-2.32,1.56,1.8,1.8,0,0,0,.12.62,4.65,4.65,0,0,0,1.6,4.8,1.44,1.44,0,0,0-.55.35,1.67,1.67,0,0,0-.5,1.19,1.66,1.66,0,0,0,.5,1.19,1.86,1.86,0,0,0,.52.36,4.81,4.81,0,0,0,3.91,2.32,4.07,4.07,0,0,0,.6-.06,1.67,1.67,0,0,0,1.56,2.32,1.58,1.58,0,0,0,.61-.12,6.24,6.24,0,0,0,1.19.12,4.33,4.33,0,0,0,3.61-1.7,1.6,1.6,0,0,0,.36.54,1.69,1.69,0,0,0,2.38,0,1.84,1.84,0,0,0,.36-.53A4.65,4.65,0,0,0,83.12,79a1.67,1.67,0,0,0,2.32-1.55,1.68,1.68,0,0,0-.12-.63A4.63,4.63,0,0,0,83.73,72a1.64,1.64,0,0,0,.55-.36,1.7,1.7,0,0,0,0-2.38,1.81,1.81,0,0,0-.53-.35A4.66,4.66,0,0,0,79.24,66.67Zm2.3,4.47a6.92,6.92,0,0,0-5.19,1.52c.86-1.76,2.05-3,3.21-3.23a1.9,1.9,0,0,1,1.87.76A1.72,1.72,0,0,0,81.54,71.14Zm1.25,4.93a1.74,1.74,0,0,0-.59.75,6.86,6.86,0,0,0-4.74-2.6c1.85-.63,3.57-.67,4.55,0A1.91,1.91,0,0,1,82.79,76.07Zm-3.21,5.14a1.74,1.74,0,0,0-.93.1,6.89,6.89,0,0,0-1.51-5.2c1.75.86,3,2,3.22,3.22A1.91,1.91,0,0,1,79.58,81.21Zm-5.86,1.35A1.69,1.69,0,0,0,73,82a6.86,6.86,0,0,0,2.6-4.74c.63,1.85.67,3.57,0,4.55A1.92,1.92,0,0,1,73.72,82.56Zm-5.24-4.17a4.92,4.92,0,0,0,.86.09,7.08,7.08,0,0,0,4.35-1.6c-.86,1.76-2.06,3-3.22,3.24a1.9,1.9,0,0,1-1.87-.76,1.36,1.36,0,0,0,0-.29A1.64,1.64,0,0,0,68.48,78.39Zm-1.24-4.91a1.66,1.66,0,0,0,.6-.76,6.85,6.85,0,0,0,4.74,2.61C70.73,76,69,76,68,75.34A1.89,1.89,0,0,1,67.24,73.48Zm3.19-5.12a1.43,1.43,0,0,0,.29,0,1.66,1.66,0,0,0,.66-.14,6.89,6.89,0,0,0,1.52,5.2c-1.76-.87-3-2.06-3.23-3.22A1.91,1.91,0,0,1,70.43,68.36Zm4-.58A1.91,1.91,0,0,1,76.31,67a1.74,1.74,0,0,0,.75.59,6.89,6.89,0,0,0-2.6,4.75C73.83,70.48,73.79,68.77,74.45,67.78ZM78.37,66a.69.69,0,1,1-.68-.68A.69.69,0,0,1,78.37,66Zm-5.71,1.32a3.35,3.35,0,0,1,3.48-2A1.65,1.65,0,0,0,76,66a2.86,2.86,0,0,0-2.39,1.22c-.82,1.23-.85,3.19-.17,5.29A5.5,5.5,0,0,1,72.66,67.35Zm-2.42-1.12a.65.65,0,0,1,.48-.2.63.63,0,0,1,.48.2.66.66,0,0,1,.2.48.68.68,0,0,1-1.36,0A.66.66,0,0,1,70.24,66.23Zm-1.08,1.1a1.77,1.77,0,0,0,.34.53,2.82,2.82,0,0,0-.81,2.56c.28,1.44,1.65,2.85,3.62,3.86A5.53,5.53,0,0,1,68.1,71.2,3.34,3.34,0,0,1,69.16,67.33Zm-2.89,4.1a.68.68,0,1,1-.68.68A.68.68,0,0,1,66.27,71.43Zm-.66,2.22a1.81,1.81,0,0,0,.61.14,2.83,2.83,0,0,0,1.24,2.38c1.22.82,3.18.85,5.29.17a5.5,5.5,0,0,1-5.16.79A3.32,3.32,0,0,1,65.61,73.65Zm.85,4.94a.69.69,0,0,1,1.17.48.66.66,0,0,1-.2.48.7.7,0,0,1-1,0,.66.66,0,0,1-.2-.48A.67.67,0,0,1,66.46,78.59Zm1.11,2a1.6,1.6,0,0,0,.53-.34,2.8,2.8,0,0,0,2.56.81c1.44-.28,2.85-1.64,3.86-3.62a5.5,5.5,0,0,1-3.09,4.21A3.31,3.31,0,0,1,67.57,80.63Zm4.09,2.89a.69.69,0,1,1,.69.68A.68.68,0,0,1,71.66,83.52Zm2.23.67a1.93,1.93,0,0,0,.14-.64,2.81,2.81,0,0,0,2.38-1.22c.82-1.22.85-3.18.17-5.29a5.5,5.5,0,0,1,.79,5.16A3.34,3.34,0,0,1,73.89,84.19Zm5.9-.86a.68.68,0,0,1-1.16-.48.66.66,0,0,1,.2-.48.69.69,0,0,1,1,0,.66.66,0,0,1,.2.48A.67.67,0,0,1,79.79,83.33Zm1.08-1.1a1.42,1.42,0,0,0-.34-.53,2.81,2.81,0,0,0,.81-2.57c-.28-1.44-1.65-2.85-3.62-3.85a5.49,5.49,0,0,1,4.21,3.08A3.34,3.34,0,0,1,80.87,82.23Zm2.89-4.1a.69.69,0,1,1,.68-.68A.68.68,0,0,1,83.76,78.13Zm.66-2.23a1.75,1.75,0,0,0-.61-.13,2.85,2.85,0,0,0-1.24-2.39c-1.22-.81-3.18-.84-5.29-.17a5.53,5.53,0,0,1,5.16-.79A3.32,3.32,0,0,1,84.42,75.9ZM83.57,71a.68.68,0,0,1-1-1,.71.71,0,0,1,.49-.2A.68.68,0,0,1,83.57,71Zm-1.11-2a1.77,1.77,0,0,0-.53.34,2.82,2.82,0,0,0-2.56-.81c-1.44.29-2.85,1.65-3.86,3.62a5.52,5.52,0,0,1,3.09-4.21A3.33,3.33,0,0,1,82.46,68.92Z"/><path d="M70.84,32.93c-.25.57-1,.8-1.78,1.07a3.64,3.64,0,0,0-1.11.6,1.27,1.27,0,0,0-.39,1.15,1.22,1.22,0,0,1,.56-.94,3.12,3.12,0,0,1,1.07-.34,9.48,9.48,0,0,0,1.2-.29,2.13,2.13,0,0,0,1.11-.84A7.58,7.58,0,0,1,73,31.66a3,3,0,0,1,1.85-.77,3,3,0,0,1,1.85.77,8,8,0,0,1,1.49,1.67,2.1,2.1,0,0,0,1.11.85,9.48,9.48,0,0,0,1.2.29,3.12,3.12,0,0,1,1.07.34,1.22,1.22,0,0,1,.56.94,1.27,1.27,0,0,0-.39-1.15,3.64,3.64,0,0,0-1.11-.6c-.75-.27-1.53-.5-1.78-1.07a7.34,7.34,0,0,0-1.54-2,3.42,3.42,0,0,0-4.93,0A7.34,7.34,0,0,0,70.84,32.93Z"/><path d="M38.88,56a3.56,3.56,0,0,0-.91.86c-.49.64-.95,1.3-1.57,1.37a7.41,7.41,0,0,0-2.37.85,3.41,3.41,0,0,0-1.52,4.68,7.42,7.42,0,0,0,1.42,2.09c.46.42.44,1.22.46,2a3.58,3.58,0,0,0,.23,1.24,1.26,1.26,0,0,0,1,.73,1.26,1.26,0,0,1-.73-.82,3.3,3.3,0,0,1,0-1.13,11.56,11.56,0,0,0,.1-1.23,2.14,2.14,0,0,0-.46-1.32,7.62,7.62,0,0,1-1.13-1.94,2.9,2.9,0,0,1-.17-2,3,3,0,0,1,1.31-1.52,7.9,7.9,0,0,1,2-.91,2.07,2.07,0,0,0,1.15-.79,9.24,9.24,0,0,0,.64-1,3.14,3.14,0,0,1,.66-.92A1.24,1.24,0,0,1,40.1,56,1.29,1.29,0,0,0,38.88,56Z"/><path d="M56,110.81a9.31,9.31,0,0,0-1.14-.47,2.08,2.08,0,0,0-1.39,0,7.76,7.76,0,0,1-2.19.48,2.61,2.61,0,0,1-3-2.18,8.2,8.2,0,0,1-.22-2.23,2.08,2.08,0,0,0-.4-1.33,9.59,9.59,0,0,0-.8-.94,3.19,3.19,0,0,1-.67-.91,1.25,1.25,0,0,1,.1-1.09,1.27,1.27,0,0,0-.36,1.16,3.64,3.64,0,0,0,.54,1.14c.46.66.94,1.3.82,1.91a7.14,7.14,0,0,0,.08,2.52,3.39,3.39,0,0,0,4,2.89,7.6,7.6,0,0,0,2.42-.7c.54-.31,1.29,0,2.07.18a3.41,3.41,0,0,0,1.24.16,1.25,1.25,0,0,0,1-.7,1.26,1.26,0,0,1-1,.44A3.22,3.22,0,0,1,56,110.81Z"/><path d="M93.19,111.23a3.44,3.44,0,0,0,1.25-.16c.77-.23,1.53-.49,2.07-.18a7.6,7.6,0,0,0,2.42.7,3.41,3.41,0,0,0,4-2.89,7.14,7.14,0,0,0,.08-2.52c-.13-.61.36-1.25.82-1.91a3.62,3.62,0,0,0,.53-1.14A1.24,1.24,0,0,0,104,102a1.25,1.25,0,0,1,.1,1.09,3.19,3.19,0,0,1-.67.91,10.74,10.74,0,0,0-.8.93,2.13,2.13,0,0,0-.4,1.34,7.83,7.83,0,0,1-.23,2.23,2.59,2.59,0,0,1-3,2.18,7.76,7.76,0,0,1-2.19-.48,2.11,2.11,0,0,0-1.4,0,10.84,10.84,0,0,0-1.14.47,3.08,3.08,0,0,1-1.07.36,1.25,1.25,0,0,1-1-.44A1.25,1.25,0,0,0,93.19,111.23Z"/><path d="M110.9,55.87a3.06,3.06,0,0,1,.65.91,9.37,9.37,0,0,0,.65,1,2.06,2.06,0,0,0,1.14.8,8,8,0,0,1,2.06.9,2.59,2.59,0,0,1,1.14,3.52A7.62,7.62,0,0,1,115.41,65a2.12,2.12,0,0,0-.46,1.32,8.06,8.06,0,0,0,.1,1.23,3,3,0,0,1,0,1.12,1.26,1.26,0,0,1-.72.83,1.27,1.27,0,0,0,1-.74,3.58,3.58,0,0,0,.24-1.23c0-.81,0-1.61.46-2a7.54,7.54,0,0,0,1.41-2.09,3.38,3.38,0,0,0-1.52-4.68,7.43,7.43,0,0,0-2.37-.86c-.61-.06-1.07-.72-1.56-1.36a3.44,3.44,0,0,0-.92-.86,1.24,1.24,0,0,0-1.21,0A1.22,1.22,0,0,1,110.9,55.87Z"/></svg>