<svg id="expanded" xmlns="http://www.w3.org/2000/svg" viewBox="0 0 150 150"><title>Poppy-bold</title><path d="M122.22,47.74a30.62,30.62,0,0,0-22.94-15,30.46,30.46,0,0,0-49,0A30.46,30.46,0,0,0,25.87,75.15a30.46,30.46,0,0,0,24.51,42.38,30.45,30.45,0,0,0,48.95,0,30.46,30.46,0,0,0,24.46-42.42A30.62,30.62,0,0,0,122.22,47.74ZM99.5,109.57a26.31,26.31,0,0,0,2-10.06c0-6.64-4.87-13.34-14.49-19.93l-2.26,3.3c5.82,4,12.75,10.11,12.75,16.63a22.47,22.47,0,0,1-44.94,0c0-5.94,5.85-11.55,10.75-15.2l-1.19-1.6-.79-1.84c-5.63,2.43-13.42,4.7-18.57,1.72A22.46,22.46,0,0,1,34.53,51.9a22.58,22.58,0,0,1,16-11,26.26,26.26,0,0,0-2,10.05c0,6.65,4.9,13.38,14.57,20l2.26-3.3C59.5,63.67,52.52,57.53,52.52,51a22.47,22.47,0,1,1,44.94,0c0,5.94-5.84,11.54-10.74,15.19l1.19,1.61.79,1.83c5.63-2.42,13.41-4.69,18.56-1.71a22.47,22.47,0,0,1-7.76,41.66ZM33,79.32a26.66,26.66,0,0,0,7.72,6.74,15.72,15.72,0,0,0,8,2,26.37,26.37,0,0,0,5.12-.55c-3.52,4-5.31,8-5.31,12a26.23,26.23,0,0,0,2,10.08,22.61,22.61,0,0,1-16-11A22.27,22.27,0,0,1,33,79.32Zm84-8.16a26.6,26.6,0,0,0-7.72-6.72c-3.46-2-7.86-2.46-13.11-1.41,3.52-4,5.31-8.05,5.31-12a26.24,26.24,0,0,0-2-10.09,22.23,22.23,0,0,1,16,11A22.59,22.59,0,0,1,117,71.16Z"/><path d="M85.41,74.14a1.38,1.38,0,0,0-1.29.89H81.2a5.81,5.81,0,0,0-.28-1.39l2.7-1.12a1.38,1.38,0,0,0,1,.44,1.32,1.32,0,0,0,.53-.11,1.37,1.37,0,0,0,.76-.75,1.39,1.39,0,0,0-1.82-1.82,1.38,1.38,0,0,0-.75.75,1.23,1.23,0,0,0-.1.57l-2.7,1.11a6.67,6.67,0,0,0-.79-1.17l2.06-2.07a1.39,1.39,0,0,0,.57.12,1.34,1.34,0,0,0,1-.41,1.4,1.4,0,0,0,0-2,1.43,1.43,0,0,0-2,0,1.37,1.37,0,0,0-.28,1.54L79,70.83a5.75,5.75,0,0,0-1.18-.78L79,67.34h0a1.39,1.39,0,1,0-1.28-1.93A1.38,1.38,0,0,0,78.06,67l-1.13,2.7a5.71,5.71,0,0,0-1.38-.26V66.46a1.4,1.4,0,1,0-1,0V69.4a6.34,6.34,0,0,0-1.39.27L72,67a1.39,1.39,0,1,0-1,.39h0l1.13,2.72a6.16,6.16,0,0,0-1.17.79L69,68.76a1.32,1.32,0,0,0,.13-.56,1.39,1.39,0,0,0-.41-1,1.42,1.42,0,0,0-2,0,1.39,1.39,0,0,0,0,2,1.35,1.35,0,0,0,1,.41,1.38,1.38,0,0,0,.56-.12l2.08,2.08a6.7,6.7,0,0,0-.78,1.18L66.85,71.6a1.23,1.23,0,0,0-.1-.57,1.38,1.38,0,0,0-.75-.75,1.39,1.39,0,0,0-1.07,2.57,1.49,1.49,0,0,0,.54.11,1.38,1.38,0,0,0,1-.44l2.73,1.13A6.25,6.25,0,0,0,68.93,75H66a1.39,1.39,0,1,0,0,1h3a6.25,6.25,0,0,0,.27,1.38l-2.73,1.13a1.43,1.43,0,0,0-1.53-.33,1.4,1.4,0,0,0-.76.75,1.42,1.42,0,0,0,0,1.07,1.38,1.38,0,0,0,1.82.75,1.35,1.35,0,0,0,.75-.75,1.23,1.23,0,0,0,.1-.57l2.73-1.13a6.7,6.7,0,0,0,.78,1.18L68.27,81.6a1.38,1.38,0,0,0-1.54,2.24,1.39,1.39,0,0,0,2,0,1.39,1.39,0,0,0,.41-1A1.32,1.32,0,0,0,69,82.3l2.09-2.09a6.16,6.16,0,0,0,1.17.79l-1.13,2.72a1.39,1.39,0,1,0,0,2.78,1.38,1.38,0,0,0,1.28-.86,1.33,1.33,0,0,0,0-1.07A1.51,1.51,0,0,0,72,84.1l1.12-2.71a6.34,6.34,0,0,0,1.39.27V84.6a1.39,1.39,0,1,0,1,0V81.67a6.25,6.25,0,0,0,1.38-.27l1.13,2.7a1.38,1.38,0,0,0-.33.47,1.33,1.33,0,0,0,0,1.07A1.38,1.38,0,0,0,79,86.5a1.32,1.32,0,0,0,.53-.11,1.37,1.37,0,0,0,.76-.75,1.42,1.42,0,0,0,0-1.07A1.4,1.4,0,0,0,79,83.72L77.86,81A5.75,5.75,0,0,0,79,80.23l2.07,2.07a1.32,1.32,0,0,0-.13.56,1.39,1.39,0,0,0,.41,1,1.39,1.39,0,0,0,2,0,1.38,1.38,0,0,0-1.54-2.24l-2.07-2.08a6.67,6.67,0,0,0,.79-1.17l2.7,1.11a1.23,1.23,0,0,0,.1.57,1.38,1.38,0,0,0,.75.75A1.38,1.38,0,0,0,85.91,80a1.42,1.42,0,0,0,0-1.07,1.38,1.38,0,0,0-.75-.75,1.44,1.44,0,0,0-1.54.33l-2.7-1.12A5.81,5.81,0,0,0,81.2,76h2.92a1.39,1.39,0,1,0,1.29-1.89Z"/></svg>