<svg id="expanded" xmlns="http://www.w3.org/2000/svg" viewBox="0 0 150 150"><title>Peony-bold</title><path d="M81.9,71.58a2.42,2.42,0,1,0-3.3-.89.76.76,0,0,0,.08.11l-3.07,3.07v-.65a2.41,2.41,0,1,0-1,0v.82L71.32,70.8a.76.76,0,0,0,.08-.11,2.47,2.47,0,1,0-.79.81l3.27,3.26h-.8a2.41,2.41,0,1,0,0,1h.66l-3.09,3.1a2.4,2.4,0,1,0,.78.81l-.08-.1,3.29-3.29v.82a2.4,2.4,0,1,0,1,0V76.5l3.07,3.07-.08.1a2.45,2.45,0,1,0,.79-.81l-3.1-3.1H77a2.43,2.43,0,1,0,0-1h-.79l3.26-3.26A2.41,2.41,0,0,0,81.9,71.58Z"/><path d="M122.79,47.44l-.15-.27c-5.19-8.89-14.1-17.24-22.3-16.28-1.46-3.3-4.6-6-9.21-8a42.51,42.51,0,0,0-16.23-3h-.16c-10.36,0-22.12,3.54-25.36,11.2-8.24-.95-17.12,7.49-22.25,16.44l-.15.26c-5.15,9-8,20.89-3,27.53-4.85,6.6-2.1,18.3,3,27.19l.31.53c4.39,7.58,12.53,16.43,21,16.43h0a11.2,11.2,0,0,0,1.3-.08c3.35,7.56,15.08,11,25.42,11h.18c10.4,0,22.22-3.54,25.41-11.26a10.39,10.39,0,0,0,1.37.09c8.48,0,16.59-8.92,21-16.54l.15-.26c5.14-9,7.94-20.93,2.93-27.55C130.88,68.25,128,56.37,122.79,47.44Zm-22.56-9.71c4.2-1.46,11.68,4.3,16.67,12.87l.07.11.06.1c5,8.54,6.3,17.88,3,20.83a1.89,1.89,0,0,1-2.74-.27c-1-1-1.21-2.17-.84-4.29a8.71,8.71,0,0,0-5.67-9.73,4.84,4.84,0,0,1-2.38-1.64v0a4.85,4.85,0,0,1-.25-2.88,8.73,8.73,0,0,0-5.67-9.73c-2-.72-2.92-1.49-3.32-2.84A1.89,1.89,0,0,1,100.23,37.73Zm3.44,42a4.94,4.94,0,0,0-.92-1.63,4.61,4.61,0,0,1-1.15-2.84,5.27,5.27,0,0,1,.38-1.63,6,6,0,0,1,.79-1.21A4.79,4.79,0,0,0,103.9,70a4.9,4.9,0,0,0-.65-3.18,4.15,4.15,0,0,0-.46-.64h0c-.15-.18-.3-.37-.44-.57l-.09-.12a5.09,5.09,0,0,1-.7-1.35.14.14,0,0,1,0-.06,4,4,0,0,1-.17-.78h0a4,4,0,0,1,.1-1.39,2.81,2.81,0,0,1,3.31-2.22,6.21,6.21,0,0,1,3.76,2.91l.09.14c.13.2.25.4.37.61l.13.22c.11.21.22.42.32.64l.13.27c.1.22.19.44.29.67s.08.2.11.3l.27.71s0,.09,0,.14c.16.46.3,1,.43,1.45,0,.18.1.36.14.55s.09.38.13.58.09.42.13.63.06.38.1.57.07.46.1.69.06.37.08.55.06.51.08.77,0,.34,0,.52,0,.57,0,.86l0,.44c0,.44,0,.89,0,1.33h0v.2c0,.45,0,.89,0,1.33l0,.44-.06.87c0,.17,0,.35-.05.52l-.09.77c0,.18-.05.36-.08.54s-.07.47-.11.71-.07.37-.1.55-.1.44-.14.66-.08.37-.13.55-.11.41-.16.61c-.13.48-.27,1-.43,1.39a1.09,1.09,0,0,1,0,.17l-.24.64-.15.37-.27.61c-.06.11-.11.23-.16.34s-.2.39-.3.57-.11.2-.17.29l-.33.55-.16.23c-.12.18-.25.36-.38.52a1.34,1.34,0,0,0-.11.14,7.33,7.33,0,0,1-1.61,1.47h0a4.52,4.52,0,0,1-1.61.67,2.82,2.82,0,0,1-3.3-2.25,4,4,0,0,1,0-2.06,1.42,1.42,0,0,0,0-.16,5.82,5.82,0,0,1,.7-1.33l.11-.15c.14-.19.29-.38.45-.56h0A4.87,4.87,0,0,0,103.67,79.73Zm-8.6-35.18c.24.16.48.32.71.49l.43.31.61.45.44.35c.19.14.36.29.54.44l.44.38.47.42.45.41.37.38c.38.38.75.77,1.09,1.16l.06.07c.17.2.33.41.49.61l.19.23c.15.2.3.4.44.61l.15.23c.14.2.27.41.4.61l.11.2a6.88,6.88,0,0,1,.35.65l.06.12a7.74,7.74,0,0,1,.84,3h0a4.65,4.65,0,0,1-.22,1.79,2.83,2.83,0,0,1-3.61,1.72,3.68,3.68,0,0,1-1.22-.61h0a3.77,3.77,0,0,1-.59-.53L98,57.93a5.56,5.56,0,0,1-.8-1.29l-.07-.14c-.09-.22-.18-.45-.26-.67a5.37,5.37,0,0,0-.31-.69l-.13-.21a4,4,0,0,0-.29-.43,1.92,1.92,0,0,0-.19-.23c-.1-.12-.21-.24-.32-.35l-.24-.21L95,53.43l-.27-.18L94.34,53l-.3-.14c-.16-.06-.33-.1-.49-.15l-.31-.08a5.54,5.54,0,0,0-.6-.06l-.26,0a4.26,4.26,0,0,0-.93.07,6.47,6.47,0,0,1-1,.09h-.08a5.83,5.83,0,0,1-.59,0l-.1,0a5.05,5.05,0,0,1-.56-.12l-.17,0a4.29,4.29,0,0,1-.59-.24h0a4.9,4.9,0,0,1-1.81-2.49,4.48,4.48,0,0,0-.38-.83L86,48.72a3.28,3.28,0,0,0-.33-.47,2.39,2.39,0,0,0-.22-.23,3.91,3.91,0,0,0-.36-.35l-.26-.2-.41-.26a1.82,1.82,0,0,0-.27-.15,4.43,4.43,0,0,0-.45-.2c-.09,0-.18-.07-.27-.09a3.53,3.53,0,0,0-.54-.13l-.21,0a4.73,4.73,0,0,0-.75-.05,4.43,4.43,0,0,0-.81.07l-.64.09H80.3l-.47,0h-.46a1.66,1.66,0,0,1-.32,0l-.21,0-.33-.07-.19-.05a3.08,3.08,0,0,1-.47-.19h0a4.05,4.05,0,0,1-1.08-.75,2.82,2.82,0,0,1-.26-4,5,5,0,0,1,2.16-1.37h0a7.39,7.39,0,0,1,.84-.23l.25,0,.69-.11.42,0q.3,0,.6,0h.13l.29,0a7.63,7.63,0,0,1,.82,0l.46,0,.86.11.45.08c.35.06.71.14,1.07.22l.27.06q.69.18,1.38.39l.37.13c.34.11.69.23,1,.36l.5.19.94.39.51.22,1,.47.45.22c.46.25.93.5,1.39.77l0,0,0,0,.05,0,0,0h0c.37.22.75.45,1.11.69ZM92.45,87.42a6.17,6.17,0,0,0-2.73-4.56,5,5,0,0,0,.34-1.78,5.8,5.8,0,0,0-2.61-4.68,3.23,3.23,0,0,1-1.09-1.22A3.29,3.29,0,0,1,87.45,74a5.8,5.8,0,0,0,2.61-4.68,6.05,6.05,0,0,0-2.61-4.75,6.55,6.55,0,0,1-1.13-1l-.09-.11c-.33-.43-.26-.65-.2-.79.26-.68,1.67-1.13,3-1,4.61.57,8.2,5.31,8.86,11.42a17.13,17.13,0,0,1,0,4.31C97.39,81.79,95.33,85.53,92.45,87.42Zm1.6,3.7A11.9,11.9,0,0,0,93,93.36a.89.89,0,0,1-.77.58.82.82,0,0,1-.21,0,7.9,7.9,0,0,0-.85-.11,12.38,12.38,0,0,0,.76-1.71A11.78,11.78,0,0,0,94.05,91.12Zm-42-13.89a22.1,22.1,0,0,1,0-4.31c.52-4.4,2.58-8.09,5.46-10a6.12,6.12,0,0,0,2.72,4.55,5,5,0,0,0-.34,1.79A5.77,5.77,0,0,0,62.55,74a3.38,3.38,0,0,1,1.09,1.22,3.23,3.23,0,0,1-1.09,1.22,5.8,5.8,0,0,0-2.61,4.68,6,6,0,0,0,2.61,4.74c1.67,1.26,1.51,1.69,1.42,1.92-.26.67-1.67,1.12-3,1C56.33,88.11,52.74,83.35,52.08,77.23Zm6.67,16.41c-.3,0-.61.07-.91.12l-.2,0a.88.88,0,0,1-.77-.59,11.88,11.88,0,0,0-1-2.13,12.66,12.66,0,0,0,2.17,1A12.55,12.55,0,0,0,58.75,93.64ZM56,59.28a11.36,11.36,0,0,0,1.1-2.3.9.9,0,0,1,.76-.57.86.86,0,0,1,.22,0c.27,0,.55.08.83.11a12.68,12.68,0,0,0-.77,1.73A11.61,11.61,0,0,0,56,59.28ZM82.34,75.43A6.14,6.14,0,0,0,85,79.59a1.64,1.64,0,0,1,0,3l.07.1a8.76,8.76,0,0,0-2.66,2.49,2.19,2.19,0,0,1-1.56,1,2.15,2.15,0,0,1-1.48-1,6.16,6.16,0,0,0-4.17-2.7h-.48a6.16,6.16,0,0,0-4.17,2.7,2.15,2.15,0,0,1-1.48,1,2.19,2.19,0,0,1-1.56-1l-.09.08A8.83,8.83,0,0,0,65,82.63a1.64,1.64,0,0,1,0-3,6.14,6.14,0,0,0,2.7-4.16,2.18,2.18,0,0,0,0-.25,1.93,1.93,0,0,0,0-.24A6.16,6.16,0,0,0,65,70.77a2.19,2.19,0,0,1-1-1.48,2.19,2.19,0,0,1,1-1.55l-.08-.11a8.82,8.82,0,0,0,2.67-2.49,2.2,2.2,0,0,1,1.56-1,2.17,2.17,0,0,1,1.48,1,6.09,6.09,0,0,0,4.17,2.7l.24,0,.24,0a6.09,6.09,0,0,0,4.17-2.7,2.17,2.17,0,0,1,1.48-1,2.2,2.2,0,0,1,1.56,1l.07.09.9,1.06h0A10.67,10.67,0,0,0,85,67.74a2.19,2.19,0,0,1,1,1.55,2.19,2.19,0,0,1-1,1.48,6.16,6.16,0,0,0-2.7,4.17,1.93,1.93,0,0,0,0,.24A2.18,2.18,0,0,0,82.34,75.43Zm.34-15a5.25,5.25,0,0,0-1.79-.33,5.77,5.77,0,0,0-4.67,2.6A3.22,3.22,0,0,1,75,63.82a3.22,3.22,0,0,1-1.22-1.09,5.77,5.77,0,0,0-4.67-2.6,6.07,6.07,0,0,0-4.75,2.6c-1.26,1.67-1.68,1.52-1.91,1.42-.68-.26-1.13-1.67-1-3,.64-5.12,6.41-9,13.48-9h.13c5.34,0,10,2.25,12.13,5.59A6.14,6.14,0,0,0,82.68,60.46ZM67.33,89.91a5.24,5.24,0,0,0,1.78.33,5.75,5.75,0,0,0,4.67-2.61A3.17,3.17,0,0,1,75,86.55a3.17,3.17,0,0,1,1.22,1.08,5.75,5.75,0,0,0,4.67,2.61,6.05,6.05,0,0,0,4.75-2.61c1.26-1.67,1.69-1.51,1.91-1.42.68.26,1.13,1.67,1,3-.64,5.12-6.41,9-13.48,9H74.9c-5.31,0-10-2.24-12.14-5.59A6.17,6.17,0,0,0,67.33,89.91Zm23.91-33.2.9-.12.2,0a.89.89,0,0,1,.77.59,11,11,0,0,0,1,2.13,12.71,12.71,0,0,0-2.18-1A12.63,12.63,0,0,0,91.24,56.71Zm-36-22.16c.86-4.37,9.59-7.94,19.47-7.95h.34c9.86,0,18.58,3.53,19.44,7.89a1.89,1.89,0,0,1-1.6,2.24c-1.37.34-2.49,0-4.13-1.43a8.72,8.72,0,0,0-11.26,0,4.81,4.81,0,0,1-2.61,1.23h0a4.79,4.79,0,0,1-2.61-1.22,8.72,8.72,0,0,0-11.26,0c-1.64,1.38-2.75,1.78-4.12,1.44h0A1.9,1.9,0,0,1,55.27,34.55ZM51.51,47.19l.51-.45.43-.36.56-.45.44-.33c.2-.16.41-.31.62-.46l.43-.3.72-.48.38-.24c.36-.23.73-.45,1.11-.67l0,0,.06,0,.05,0,.06,0c.46-.26.92-.51,1.39-.74.15-.08.3-.14.44-.22l1-.45.52-.22.91-.37.51-.19q.48-.18,1-.33l.44-.14c.46-.14.91-.26,1.35-.37h0c.46-.11.9-.19,1.34-.27l.4-.06.89-.12.46,0c.26,0,.53,0,.79,0h.45l.63,0,.41,0c.24,0,.47.06.69.1l.27,0a6.87,6.87,0,0,1,.81.22l.08,0a4.94,4.94,0,0,1,2.18,1.42,2.81,2.81,0,0,1-.3,4,3.85,3.85,0,0,1-2.35,1.07l-.21,0h-.45l-.52,0-.19,0-.65-.1h0a3.86,3.86,0,0,0-.84-.08,4.6,4.6,0,0,0-.74,0l-.1,0a5,5,0,0,0-.65.14l-.24.09a4.89,4.89,0,0,0-.48.2l-.26.14a4.94,4.94,0,0,0-.42.27l-.25.19a3.92,3.92,0,0,0-.37.34l-.22.23a5.48,5.48,0,0,0-.34.46l-.16.24a5.66,5.66,0,0,0-.39.82,5.31,5.31,0,0,1-.77,1.46,4.4,4.4,0,0,1-1.06,1h0a4,4,0,0,1-.82.29l-.26,0a5.35,5.35,0,0,1-.7.07l-.18,0h-.1a5.94,5.94,0,0,1-1-.1,5.15,5.15,0,0,0-1-.08h-.13a5.49,5.49,0,0,0-.72.07l-.28.07c-.18,0-.35.09-.52.15l-.29.13-.43.22-.27.17c-.13.09-.25.19-.37.29a1.64,1.64,0,0,0-.24.21,3.55,3.55,0,0,0-.33.34L54,54.3a3.13,3.13,0,0,0-.29.42l-.13.21a4.49,4.49,0,0,0-.31.67h0c-.08.23-.17.45-.27.67l-.07.15a5.26,5.26,0,0,1-.82,1.28l-.08.09a4.22,4.22,0,0,1-.59.52h0a4.11,4.11,0,0,1-1.21.57,2.81,2.81,0,0,1-3.58-1.76,5.62,5.62,0,0,1,.25-3.8L47,53.1c.07-.18.16-.37.25-.55s.09-.19.14-.29.19-.36.29-.53l.19-.32c.11-.17.22-.35.34-.52l.23-.34.38-.51c.09-.12.19-.23.29-.35s.26-.33.4-.49.47-.53.73-.79l.38-.38c.15-.16.31-.31.47-.46ZM48.75,63h0a3.29,3.29,0,0,1-.16.77s0,.1,0,.15a5.48,5.48,0,0,1-.71,1.33l-.1.14-.45.57a5,5,0,0,0-.47.64q-.2.35-.36.72a5.15,5.15,0,0,0-.35,1.61,4.67,4.67,0,0,0,.23,1.68,4.72,4.72,0,0,0,.36.84,6.61,6.61,0,0,0,.55.79,5.16,5.16,0,0,1,.51.7,4.3,4.3,0,0,1,.27.52,3.66,3.66,0,0,1,0,3.25c-.09.17-.17.34-.28.52a6.23,6.23,0,0,1-.52.69A4.78,4.78,0,0,0,46,81.21a4.61,4.61,0,0,0,.11.82,5,5,0,0,0,1,2.16c.15.18.3.37.44.57l.09.12a5.31,5.31,0,0,1,.7,1.36l0,.07a3.88,3.88,0,0,1,.06,2.15,2.82,2.82,0,0,1-3.32,2.22,5.71,5.71,0,0,1-3.31-2.3h0q-.21-.28-.42-.6l-.11-.16q-.18-.28-.36-.6l-.13-.23-.32-.63c0-.09-.08-.19-.13-.28s-.19-.43-.28-.66L40,84.91c-.09-.23-.18-.46-.26-.7v0c-.17-.51-.32-1-.46-1.58-.05-.18-.1-.36-.14-.55s-.09-.38-.13-.58-.09-.42-.13-.63-.06-.38-.1-.57-.07-.46-.1-.7-.05-.36-.08-.55-.05-.5-.08-.76,0-.35,0-.52,0-.58-.06-.87c0-.14,0-.29,0-.44,0-.44,0-.88,0-1.33V75h0v-.13h0c0-.44,0-.89,0-1.33,0-.14,0-.29,0-.43,0-.29,0-.59.07-.88s0-.34,0-.51l.09-.77c0-.18,0-.36.08-.54s.07-.48.11-.71.07-.37.11-.55.09-.44.14-.66L39.2,68c0-.21.11-.4.16-.6.14-.49.28-1,.45-1.44l0-.12c.08-.23.17-.44.26-.66a3.65,3.65,0,0,1,.14-.35c.09-.22.18-.42.28-.63l.15-.32c.1-.2.2-.4.31-.59l.15-.27c.12-.19.23-.38.35-.56l.14-.21c.13-.19.26-.37.4-.54l.08-.1a5.69,5.69,0,0,1,3.26-2.17,2.81,2.81,0,0,1,3.29,2.26,3.93,3.93,0,0,1,.1,1.3Zm-16-11.83,0-.06.11-.19C37.83,42.33,45.27,36.52,49.48,38a1.89,1.89,0,0,1,1.14,2.51c-.39,1.35-1.28,2.13-3.3,2.86a8.72,8.72,0,0,0-5.61,9.76A4.94,4.94,0,0,1,41.48,56l0,0a4.89,4.89,0,0,1-2.37,1.65,8.72,8.72,0,0,0-5.6,9.77c.38,2.11.16,3.27-.81,4.29h0a1.88,1.88,0,0,1-2.74.28C26.58,69.06,27.85,59.71,32.76,51.15Zm16.92,61.44C45.47,114,38,108.26,33,99.7l0-.1-.06-.1,0,0C28,90.92,26.64,81.58,30,78.64a1.89,1.89,0,0,1,2.74.27c1,1,1.2,2.18.83,4.29a8.7,8.7,0,0,0,5.65,9.74,4.92,4.92,0,0,1,2.37,1.64l0,0a4.91,4.91,0,0,1,.25,2.87,8.71,8.71,0,0,0,5.65,9.74h0c2,.72,2.91,1.5,3.31,2.85A1.88,1.88,0,0,1,49.68,112.59Zm5.21-6.79c-.24-.16-.49-.33-.72-.5l-.42-.3-.62-.46-.43-.34-.55-.45-.43-.37-.49-.44-.43-.4-.39-.4c-.38-.38-.74-.77-1.08-1.16l-.06-.06-.47-.59c-.07-.09-.14-.17-.2-.26s-.29-.39-.43-.59L48,99.24c-.13-.2-.26-.4-.38-.61l-.13-.21-.34-.63c0-.06,0-.11-.07-.16a7.55,7.55,0,0,1-.82-2.94h0a4.6,4.6,0,0,1,.23-1.78,2.81,2.81,0,0,1,3.6-1.71,3.93,3.93,0,0,1,1.81,1.13l.06.08a4.89,4.89,0,0,1,.8,1.29.91.91,0,0,1,.07.14c.09.23.18.45.26.68h0a4.54,4.54,0,0,0,.3.68c0,.08.09.14.13.22a3.93,3.93,0,0,0,.29.42,2.11,2.11,0,0,0,.19.23c.1.12.21.24.32.35s.16.14.24.21.24.2.37.29l.27.18.42.22.3.13a4,4,0,0,0,.49.15l.31.08a3.81,3.81,0,0,0,.59.07l.27,0a4.12,4.12,0,0,0,.92-.07,5.41,5.41,0,0,1,1-.08h.08a3.81,3.81,0,0,1,.59,0l.11,0a3.15,3.15,0,0,1,.55.11l.17,0a3.8,3.8,0,0,1,.59.23h0s0,0,0,0h0a3.87,3.87,0,0,1,.55.45,4.91,4.91,0,0,1,.91,1.24,7.4,7.4,0,0,1,.34.8,4.48,4.48,0,0,0,.38.83l.16.23a3.28,3.28,0,0,0,.33.47l.22.24a3.92,3.92,0,0,0,.37.34,2.43,2.43,0,0,0,.25.2c.13.1.27.18.41.27l.27.15.45.19.27.1.53.13.22,0a4.74,4.74,0,0,0,.75.06,4.43,4.43,0,0,0,.81-.07h0a6.17,6.17,0,0,1,.62-.09l.2,0,.47,0h.47a1.53,1.53,0,0,1,.3,0l.24,0,.27.06.26.08a2.34,2.34,0,0,1,.24.09l.27.11h0a4.15,4.15,0,0,1,1,.73,2.81,2.81,0,0,1,.26,4,5.4,5.4,0,0,1-3,1.6l-.12,0a7.19,7.19,0,0,1-.83.13l-.39,0-.65,0H68l-.83,0-.46,0-.86-.12-.45-.07c-.35-.07-.69-.14-1-.23l-.3-.06-1.37-.39-.36-.12-1-.37-.5-.19-.93-.39-.51-.23-1-.47-.45-.22c-.47-.25-.93-.5-1.38-.77h0l-.07,0h0l0,0-.05,0h0c-.38-.23-.76-.46-1.13-.7Zm39.76,10c-.86,4.36-9.6,7.92-19.48,7.92h-.28c-9.89,0-18.63-3.56-19.48-7.92a1.89,1.89,0,0,1,1.6-2.24,4,4,0,0,1,.89-.11,5,5,0,0,1,3.24,1.55,8.72,8.72,0,0,0,11.26,0A4.84,4.84,0,0,1,75,113.82h0a4.84,4.84,0,0,1,2.62,1.23,8.72,8.72,0,0,0,11.26,0c1.64-1.39,2.76-1.77,4.12-1.44h0A1.89,1.89,0,0,1,94.65,115.85Zm3.89-12.71-.52.46-.42.35-.57.46-.43.33-.63.47-.42.29c-.24.17-.49.33-.74.49l-2.13,1.28-.93.49-.45.22q-.48.24-1,.45l-.52.23c-.3.13-.61.25-.91.36l-.52.2-1,.33-.45.14c-.46.14-.92.27-1.37.38h-.05c-.43.1-.86.19-1.28.26l-.42.07-.88.11-.46,0-.79,0h-.45c-.22,0-.44,0-.65,0l-.4,0c-.26,0-.52-.07-.77-.12l-.2,0a5.45,5.45,0,0,1-3-1.65,2.8,2.8,0,0,1,.3-4,3.87,3.87,0,0,1,2.34-1.08l.2,0h.47l.51,0,.2,0,.65.1h0a5.69,5.69,0,0,0,.83.08,6.27,6.27,0,0,0,.74,0l.11,0c.21,0,.43-.09.64-.15a2.34,2.34,0,0,0,.24-.09,4,4,0,0,0,.48-.2l.26-.14c.15-.08.28-.17.42-.26l.25-.2a3.92,3.92,0,0,0,.37-.34l.22-.23c.12-.15.23-.3.34-.46l.16-.24a4.76,4.76,0,0,0,.38-.82h0a6.46,6.46,0,0,1,.35-.79,5.64,5.64,0,0,1,.43-.68,4.31,4.31,0,0,1,1.05-1h0l0,0h0a4.16,4.16,0,0,1,.82-.28l.26-.05a4.06,4.06,0,0,1,.71-.08l.17,0h.1a5.93,5.93,0,0,1,1,.1h0a5,5,0,0,0,.93.08h.17a5.38,5.38,0,0,0,.69-.07l.28-.08a3.8,3.8,0,0,0,.51-.15c.1,0,.19-.08.29-.12a3.55,3.55,0,0,0,.43-.23l.27-.17c.13-.09.26-.18.38-.28l.23-.21a3.61,3.61,0,0,0,.33-.35c.06-.07.13-.14.19-.22a4,4,0,0,0,.29-.43l.13-.2a6.14,6.14,0,0,0,.32-.69c.08-.22.17-.45.27-.67l.07-.15a5.53,5.53,0,0,1,.81-1.28l.1-.1a3.72,3.72,0,0,1,.59-.52h0a4.09,4.09,0,0,1,1.19-.56,2.81,2.81,0,0,1,3.59,1.75,5.2,5.2,0,0,1,0,3.1s0,.07,0,.1c-.06.19-.12.38-.19.57a2,2,0,0,0-.1.26c-.07.18-.16.36-.24.53l-.15.32c-.09.17-.19.34-.29.51a3.79,3.79,0,0,1-.2.34c-.1.17-.21.34-.32.51l-.25.35-.36.49-.32.39c-.12.15-.24.31-.38.46s-.47.54-.73.8l-.36.36-.49.48Zm18.7-4,0,.09-.06.1,0,0c-4.9,8.58-12.33,14.4-16.55,13a1.89,1.89,0,0,1-1.14-2.51c.39-1.35,1.28-2.13,3.3-2.87a8.71,8.71,0,0,0,5.59-9.77,4.8,4.8,0,0,1,.23-2.88l0,0a4.76,4.76,0,0,1,2.36-1.66,8.72,8.72,0,0,0,5.59-9.78c-.39-2.11-.17-3.27.8-4.29a1.89,1.89,0,0,1,2.74-.29C123.42,81.23,122.16,90.58,117.24,99.18Z"/></svg>