<svg id="expanded" xmlns="http://www.w3.org/2000/svg" viewBox="0 0 150 150"><title>LilyoftheValley-bold</title><path d="M114.74,65.72a9,9,0,0,1,9,9h6a15,15,0,0,0-25-11.25V61c0-26.35-13.21-41.46-36.23-41.46-13.11,0-27.63,9.86-29.93,23.57l-.22.07a17.32,17.32,0,0,0-8.26,2.36c-5.25,3.3-5.63,8.85-5.85,12.17,0,.53-.08,1.2-.14,1.64a4,4,0,0,0-.64,5A7.4,7.4,0,0,0,30,68.11,10.36,10.36,0,0,0,35,66.59a9.38,9.38,0,0,0,5,2,2.82,2.82,0,0,0,.41,0,3,3,0,0,0,.42,0,9.38,9.38,0,0,0,5-2,10.43,10.43,0,0,0,5.08,1.52,7.39,7.39,0,0,0,6.42-3.74,4,4,0,0,0-.64-5c-.06-.45-.11-1.12-.14-1.64-.22-3.12-.58-8.35-5.16-11.69a16.43,16.43,0,0,0-8.63-2.8c2.11-9.91,12.47-19.67,25.84-19.67,20.78,0,32.23,13.3,32.23,37.46v.89A23,23,0,0,0,59,71l-.31.09a17.21,17.21,0,0,0-8.26,2.36c-5.25,3.3-5.62,8.85-5.85,12.17,0,.53-.08,1.19-.14,1.64a4,4,0,0,0-.63,5A7.36,7.36,0,0,0,50.21,96a10.36,10.36,0,0,0,5.08-1.52,9.38,9.38,0,0,0,5,2l.41,0,.42,0a9.38,9.38,0,0,0,5-2A10.43,10.43,0,0,0,71.14,96a7.37,7.37,0,0,0,6.42-3.74,4,4,0,0,0-.64-5c-.06-.45-.11-1.12-.14-1.65-.22-3.12-.58-8.34-5.16-11.68A16.37,16.37,0,0,0,63,71.1a19,19,0,0,1,36.67-2.38v6s0,0,0,.06l0,19.78a15.68,15.68,0,0,0-25.83,7.77c-.16,0-.33.07-.49.12a17.31,17.31,0,0,0-8.25,2.36c-5.25,3.3-5.63,8.85-5.85,12.17,0,.53-.08,1.19-.15,1.64a4,4,0,0,0-.63,5,7.37,7.37,0,0,0,6.42,3.74A10.39,10.39,0,0,0,70,125.79a9.38,9.38,0,0,0,5,2,2.75,2.75,0,0,0,.41,0,3,3,0,0,0,.42,0,9.42,9.42,0,0,0,5-2,10.36,10.36,0,0,0,5.08,1.52,7.4,7.4,0,0,0,6.42-3.74,4,4,0,0,0-.64-5c-.06-.45-.11-1.12-.15-1.64-.21-3.12-.57-8.35-5.15-11.69a16.31,16.31,0,0,0-8.36-2.78,11.71,11.71,0,0,1,21.72-1.36v1h0v27.47h6V101.21a9,9,0,0,1,18,1h6a15,15,0,0,0-24-12V74.7A9,9,0,0,1,114.74,65.72ZM32.29,49a10.56,10.56,0,0,1,1.65-.81,37.81,37.81,0,0,0-1.32,4.21c-1.17,4.29-2.12,7.11-4.52,7.77C28.58,57.07,27.87,51.75,32.29,49ZM26.94,62.27Zm27,0a3.41,3.41,0,0,1-3,1.84c-2.86,0-6-3.25-6-3.25a4.93,4.93,0,0,1-4.47,3.79A4.92,4.92,0,0,1,36,60.86s-3.14,3.25-6,3.25a3.44,3.44,0,0,1-.84-.1c4.81-1.23,6.27-6.57,7.37-10.6,1-3.58,1.67-5.6,2.91-6.23.33,0,.67,0,1,0,4.14,0,6.82.84,8.59,2.13C54.28,53.13,51.23,61,53.89,62.27ZM52.55,76.81A10.56,10.56,0,0,1,54.2,76a38.32,38.32,0,0,0-1.32,4.2c-1.17,4.3-2.12,7.12-4.52,7.77C48.84,84.91,48.13,79.6,52.55,76.81ZM47.2,90.12Zm27,0a3.41,3.41,0,0,1-3,1.84c-2.86,0-6-3.25-6-3.25a4.93,4.93,0,0,1-4.47,3.79,4.92,4.92,0,0,1-4.46-3.79S53.08,92,50.21,92a3.44,3.44,0,0,1-.84-.1c4.81-1.23,6.27-6.57,7.37-10.6,1-3.59,1.67-5.6,2.91-6.24l1,0c4.14,0,6.82.84,8.59,2.13C74.54,81,71.49,88.86,74.15,90.12Zm-6.92,18a10.56,10.56,0,0,1,1.65-.81,40.11,40.11,0,0,0-1.33,4.21c-1.17,4.29-2.12,7.11-4.51,7.77C63.52,116.27,62.8,111,67.23,108.16Zm-5.35,13.31Zm26.95,0a3.41,3.41,0,0,1-3,1.84c-2.86,0-6-3.25-6-3.25a4.53,4.53,0,0,1-8.93,0s-3.14,3.25-6,3.25a3.44,3.44,0,0,1-.84-.1c4.81-1.23,6.26-6.57,7.36-10.6,1-3.58,1.68-5.6,2.92-6.23q.49,0,1,0c4.14,0,6.82.84,8.59,2.13C89.22,112.33,86.17,120.21,88.83,121.47Z"/></svg>