<svg id="expanded" xmlns="http://www.w3.org/2000/svg" viewBox="0 0 150 150"><title>Valerian-bold</title><path d="M45.67,41.59a12.25,12.25,0,0,0-9.78,8.35c-1.36,4.31-.22,8.9,3.13,12.59,3.49,3.85,9.07,6.56,15.27,7.55-4.43,4.49-7.52,10.1-8.18,15.47-.61,5,1.08,9.41,4.64,12.09a11.33,11.33,0,0,0,6.85,2.3,12.72,12.72,0,0,0,3.14-.41,36.65,36.65,0,0,0,6.76,18.69l0,0c1.77,2.7,3,4.65,3.36,8.06l.29,3.19h8.13l.29-3.19c.31-3.42,1.59-5.32,3.36-8,2.62-3.88,5.79-8.58,6.8-18.64a12.42,12.42,0,0,0,2.83.33,11.26,11.26,0,0,0,6.83-2.31c3.55-2.67,5.25-7.08,4.64-12.1-.65-5.34-3.7-10.91-8.09-15.39,6.24-1,11.87-3.7,15.38-7.58,3.33-3.69,4.47-8.26,3.13-12.55a12.33,12.33,0,0,0-9.81-8.37A18.58,18.58,0,0,0,101,41.4a22.63,22.63,0,0,0-3,.21q.2-1.44.33-2.94a5.6,5.6,0,0,0,1.34-3.48,5.51,5.51,0,0,0-5.33-5.67h-.14A5.53,5.53,0,0,0,89.58,38a49.46,49.46,0,0,1-1.08,6.72l-.3.15c1-6.26.3-12.61-2.19-17.31-2.37-4.48-6.3-7-10.77-7s-8.4,2.57-10.79,7.06c-2.47,4.66-3.17,11-2.2,17.18l-.5-.26a49.25,49.25,0,0,1-1-6.47,5.47,5.47,0,0,0,.86-3v-.06a5.48,5.48,0,0,0-5.45-5.37H56a5.32,5.32,0,0,0-3.76,1.69,5.49,5.49,0,0,0-1.52,4A5.59,5.59,0,0,0,52,38.64c.09,1,.2,1.89.32,2.81a23.77,23.77,0,0,0-3-.2A18.53,18.53,0,0,0,45.67,41.59Zm29.6-14.94c2.15,0,3.91,1.19,5.23,3.55,2.73,4.87,3,14.47-1.09,22.23a10.78,10.78,0,0,0-8.32,0c-4-7.73-3.8-17.31-1.08-22.17C71.34,27.85,73.11,26.65,75.27,26.65ZM54.46,92.71C52.15,91,52,88.23,52.24,86.22,53,80.6,58.1,73,65.61,69.28a11.3,11.3,0,0,0,6.73,5.13C71.26,83.13,65.65,90.75,60.71,93,58.31,94.14,56.21,94,54.46,92.71ZM75.18,55.09a7.72,7.72,0,0,1,6.95,4.53,14.25,14.25,0,0,1-13.9,0A7.72,7.72,0,0,1,75.18,55.09Zm8.67.69A25.26,25.26,0,0,1,89,51.43a20.12,20.12,0,0,1-4.06,6A11.81,11.81,0,0,0,83.85,55.78Zm-8.67,9.16a17.68,17.68,0,0,0,7.75-1.78v0a7.76,7.76,0,1,1-15.5,0v0A17.68,17.68,0,0,0,75.18,64.94ZM75.1,78.59a30.77,30.77,0,0,0,8.88,15c-.14,12.45-3.28,17.16-6.07,21.3a35.27,35.27,0,0,0-2.63,4.36,36.46,36.46,0,0,0-2.64-4.45c-2.8-4.26-6-9.09-6.08-21.59A30.62,30.62,0,0,0,75.1,78.59Zm2.77-4.14a11.31,11.31,0,0,0,6.8-5C92.15,73.13,97.27,80.7,98,86.3c.26,2,.08,4.78-2.23,6.52-1.75,1.31-3.84,1.42-6.22.32C84.59,90.85,79,83.21,77.87,74.45Zm28.76-15.69c-3.81,4-12.21,6.88-20.23,5.33,0-.3,0-.6,0-.9a11.62,11.62,0,0,0-.2-2.15c2.9-2.36,5.63-6.1,7.48-12a18.67,18.67,0,0,1,9.68-1.3c2.78.52,4.55,1.93,5.26,4.2C109.57,54.88,108.06,57.27,106.63,58.76Zm-40-3.1a11.07,11.07,0,0,0-1.22,1.79,20.31,20.31,0,0,1-4.18-6.28A25.69,25.69,0,0,1,66.62,55.66ZM64.12,61a11.62,11.62,0,0,0-.2,2.15c0,.25,0,.5,0,.74-8,1.55-16.36-1.35-20.15-5.31-1.44-1.5-3-3.9-2-6.83.71-2.26,2.47-3.66,5.23-4.18a18.7,18.7,0,0,1,9.59,1.27C58.43,54.86,61.19,58.65,64.12,61Z"/></svg>