<svg id="expanded" xmlns="http://www.w3.org/2000/svg" viewBox="0 0 150 150"><title>Honeysuckle-bold</title><path d="M79.92,52.88,80,54.7c.07,1.22.13,2.43.17,3.65.13,2.43.18,4.87.3,7.31s.23,4.9.46,7.38a44.67,44.67,0,0,0,1.1-7.35,63.5,63.5,0,0,0,.13-7.43,51.43,51.43,0,0,0-.84-7.4,27.54,27.54,0,0,0-2.29-7.1c.34,2.47.56,4.88.75,7.3C79.83,51.67,79.87,52.28,79.92,52.88Z"/><path d="M29.3,88.68a6,6,0,0,0,1.53,4.37,6.06,6.06,0,0,0,4.5,2h.1a19.11,19.11,0,0,0,11.45,3.89,21.82,21.82,0,0,0,4.32-.45,11.85,11.85,0,0,1-2.31,1.74,5.58,5.58,0,0,0-1.48-.8A6,6,0,0,0,39.64,103a5.92,5.92,0,0,0,.17,4.58,6,6,0,0,0,9.59,2c5.07-1,8.77-5.17,11.52-8.24a19.43,19.43,0,0,1,3.86-3.61c-.84,4.87.79,11,2.26,16.55a45.37,45.37,0,0,1,1.72,8.13A3,3,0,0,0,70.47,125a2.93,2.93,0,0,0,1.29.29,3,3,0,0,0,1.81-.61,2.07,2.07,0,0,1,1.05-.49c.71,0,1.81,1.38,2.25,2.34a3,3,0,0,0,2.73,1.73l.38,0a3,3,0,0,0,2.57-2.43c.11-.59.35-1.61.63-2.79,1.49-6.32,4.13-17.49,2.19-25.13h0c.53,0,1.83.45,4.5,3.43s6.45,7.2,11.52,8.24a6,6,0,0,0,4.1,1.6,6.16,6.16,0,0,0,2.08-.37,6.05,6.05,0,0,0-2.09-11.73,6.22,6.22,0,0,0-2.09.37,5.92,5.92,0,0,0-1.48.81,11.28,11.28,0,0,1-2.31-1.74,21.74,21.74,0,0,0,4.32.45,19.13,19.13,0,0,0,11.45-3.89h.09a6.06,6.06,0,0,0,4.5-2A6.05,6.05,0,0,0,115.51,83a6.08,6.08,0,0,0-4.5,2,6,6,0,0,0-1.49,3.22,10.09,10.09,0,0,1-5.62,1.74c-.34,0-.69,0-1-.05a12.25,12.25,0,0,0,2.8-1.22,11.48,11.48,0,0,0,3-2.55,6,6,0,0,0-2.19-11.67l-.62,0a6,6,0,0,0-5.39,6.65v.08a4.7,4.7,0,0,1-1.47.22,10.24,10.24,0,0,1-3.35-.67c-1.28-.45-2.44-.83-3.54-1.14,1.16-6.71.7-15.45-1.39-26a133.22,133.22,0,0,0-5-18.69c-1.53-3.79-3.75-4.58-5.34-4.58-3.57,0-6.05,4.07-7.8,7.62a6.52,6.52,0,0,1-.89,1.46l-.18,0c-3.51.52-5.78,2.54-10,13.14-3.53,8.92-4.51,19-2.75,27.09-1.08.3-2.22.68-3.48,1.13a10.31,10.31,0,0,1-3.33.66,4.77,4.77,0,0,1-1.48-.22v-.08a6,6,0,0,0-5.37-6.65l-.64,0a6,6,0,0,0-2.17,11.68,11.08,11.08,0,0,0,2.92,2.53A11.82,11.82,0,0,0,48,89.88c-.35,0-.7.05-1.05.05a10.09,10.09,0,0,1-5.62-1.74A6,6,0,0,0,39.84,85a6.09,6.09,0,0,0-4.5-2,6.08,6.08,0,0,0-6,5.71Zm8.38,1.8c7.67,6.13,15.06,2.71,21,0s10.41-2.43,13,1.07a10.13,10.13,0,0,0-1,.35c-3-3.78-7.73-2.32-11.63-.51-3.44,1.59-7.71,3.58-12.21,3.58a15.33,15.33,0,0,1-10-3.8l-.42-.35L36,91a2.08,2.08,0,0,1-2.16-.58,2,2,0,0,1,3-2.73,2,2,0,0,1,.47,1.82l-.15.62Zm4.7-10.21a2.06,2.06,0,0,1,2.25-1.82A2,2,0,0,1,46,79.2a2,2,0,0,1,.45,1.5,2.07,2.07,0,0,1-.41,1l-.45.62.48.6a6.27,6.27,0,0,0,1.67,1.44c1.58.94,4.39,1.73,8.84.16a39.65,39.65,0,0,1,6-1.71c3.56-.66,6.28-.39,8.34.84a8.65,8.65,0,0,1,3.5,4.28c-.17.49-.34,1-.48,1.53a8.47,8.47,0,0,0-3.54-4.95c-1.74-1-4-1.31-7-.83a38.65,38.65,0,0,0-6.51,1.78c-4.8,1.71-7.91.81-9.67-.24A7.29,7.29,0,0,1,44.88,83l-.25-.39-.46-.06A2.07,2.07,0,0,1,42.38,80.27ZM65.65,54.19c3.93-10,5.44-10.19,6.43-10.34,1.47-.22,2.82-.66,4.44-3.94,2.48-5,3.76-5.12,3.78-5.12s.58.33,1.16,1.76c1.31,3.25,9.38,29.2,5.78,44.08a12.92,12.92,0,0,0-8.37,1.3,9.66,9.66,0,0,0-3.36,3.64A10,10,0,0,0,72,81.93c-2.2-1.31-4.93-1.73-8.33-1.3C61.38,73.13,62.12,63.09,65.65,54.19Zm39.14,27.5a2,2,0,0,1-.4-1,2,2,0,0,1,.44-1.49,2,2,0,0,1,1.38-.75,2,2,0,0,1,1.5.44,2,2,0,0,1,.75,1.38,2.05,2.05,0,0,1-1.78,2.24l-.46.06L106,83a7.36,7.36,0,0,1-2.35,2.26c-1.77,1-4.89,2-9.7.24-6.55-2.32-10.71-2.61-13.5-.95-1.77,1.06-3,3.3-3.8,6.61-.33,0-.66-.06-1-.07.82-3.69,2.25-6.18,4.28-7.4,3.95-2.35,9.75-.77,14.37.87,4.44,1.58,7.25.78,8.83-.16a6.27,6.27,0,0,0,1.67-1.44l.49-.61Zm8.73,7.78a2,2,0,0,1,3.35-2,2,2,0,0,1,.16,2.88h0a2,2,0,0,1-2.14.57l-.52-.17-.41.35a15.33,15.33,0,0,1-10,3.8c-4.5,0-8.77-2-12.21-3.59a16.48,16.48,0,0,0-6.55-1.78,6.28,6.28,0,0,0-5.32,2.67,7.56,7.56,0,0,0-.89-.47c3.3-4.54,8.9-3.3,13.18-1.32,5.93,2.74,13.32,6.16,21,0l.5-.39Zm-9.7,16.74-.26-.41-.48,0c-4.17-.42-7.36-4-10.18-7.12-2.55-2.85-4.93-4.77-7.45-4.77a5.76,5.76,0,0,0-3,.92c-.19-.29-.39-.56-.6-.82,3.65-2.22,7.35-.94,11.8,4,2.68,3,5.45,6.09,9,6.7l.72.12.34-.64a2,2,0,0,1,1.08-1,2,2,0,1,1-1,3ZM44.61,107a2.05,2.05,0,0,1-.15-3.78,2.15,2.15,0,0,1,.86-.19,1.89,1.89,0,0,1,.7.13,2,2,0,0,1,1.09,1l.34.64.72-.12c3.57-.61,6.34-3.71,9-6.7,3.52-3.92,7.06-7.17,11.36-4.66a7.19,7.19,0,0,0-.68.77c-3.61-1.94-6.55.79-9.92,4.55-2.82,3.15-6,6.7-10.18,7.12l-.48,0-.26.41A2.07,2.07,0,0,1,44.61,107Zm21-20.45c-.16-.31-.35-.69-.51-1.07a7.26,7.26,0,0,1,4.35.73,5.37,5.37,0,0,1,1.88,2A9,9,0,0,0,65.56,86.57Zm19.15.1a9.36,9.36,0,0,0-5,1.6,4.9,4.9,0,0,1,1.73-2,7,7,0,0,1,4-.74C85.17,85.92,84.92,86.34,84.71,86.67Zm-14.83,9.8a4,4,0,0,1,1.52-1.58l.1-.06a6.33,6.33,0,0,1,2.2-.7h.2a4.78,4.78,0,0,1,.56-.06c.23,0,.47,0,.74,0a7,7,0,0,1,1.68.18H77a4.5,4.5,0,0,1,1.94,1l.06,0a6,6,0,0,1,1.41,1.93c2.81,5.94,0,18.25-1.49,24.46a6.53,6.53,0,0,0-3-1.81,5.07,5.07,0,0,0-1.24-.15,5.3,5.3,0,0,0-1.63.26c-.34-2-1-4.39-1.62-6.85C69.84,107.28,67.92,100,69.88,96.47Z"/></svg>