<svg id="expanded" xmlns="http://www.w3.org/2000/svg" viewBox="0 0 150 150"><title>Daffodil-bold</title><path d="M61.66,77.86a2.13,2.13,0,0,0,1,.25,6.92,6.92,0,0,0,2.39-.68c.39-.16.81-.33,1.26-.49a4.62,4.62,0,0,1,2.42,0c-2.27,1-4.64,2.68-5.36,4.62-.34.93-.58,2.73,1.69,4.29h0a3.35,3.35,0,0,0,1.87.71,2.1,2.1,0,0,0,.56-.08c1.1-.32,1.57-1.43,2.1-2.71.17-.39.34-.8.55-1.23a4.53,4.53,0,0,1,1.71-1.71C71,83.16,70.48,86,71.35,87.9a3.26,3.26,0,0,0,3.17,1.94,5.79,5.79,0,0,0,1-.1h0a2.83,2.83,0,0,0,2.16-1.27c.56-1,.1-2.12-.42-3.41-.16-.39-.33-.81-.49-1.26a4.52,4.52,0,0,1,0-2.42c1,2.27,2.68,4.64,4.62,5.36a3.62,3.62,0,0,0,1.2.22,3.72,3.72,0,0,0,3.09-1.91,2.86,2.86,0,0,0,.63-2.43c-.32-1.1-1.43-1.56-2.71-2.1-.39-.17-.81-.34-1.23-.55a4.53,4.53,0,0,1-1.71-1.71,13.68,13.68,0,0,0,4.66,1,5.82,5.82,0,0,0,2.39-.45c.91-.42,2.35-1.52,1.85-4.23a2.86,2.86,0,0,0-1.28-2.16c-1-.55-2.12-.1-3.4.43-.39.15-.81.33-1.26.48a4.48,4.48,0,0,1-2.41,0c2.26-1,4.63-2.68,5.35-4.62.34-.93.58-2.73-1.69-4.29h0a2.86,2.86,0,0,0-2.43-.63c-1.1.33-1.57,1.43-2.11,2.72-.16.38-.33.8-.54,1.23a4.57,4.57,0,0,1-1.71,1.7c.89-2.31,1.38-5.18.51-7.05-.41-.9-1.51-2.34-4.22-1.84a2.8,2.8,0,0,0-2.16,1.27c-.56,1-.1,2.12.42,3.41.16.38.33.8.49,1.25a4.52,4.52,0,0,1,0,2.42c-1-2.27-2.68-4.64-4.62-5.35-.93-.35-2.73-.59-4.29,1.68a2.86,2.86,0,0,0-.63,2.43c.32,1.1,1.43,1.57,2.71,2.11.39.16.81.33,1.23.54A4.56,4.56,0,0,1,69.28,72c-2.31-.9-5.18-1.38-7.05-.52-.91.41-2.35,1.52-1.85,4.22A2.88,2.88,0,0,0,61.66,77.86ZM74.09,73.1a1.42,1.42,0,0,0,.79.24,1.72,1.72,0,0,0,.91-.29A1.5,1.5,0,0,0,77,74.21a1.53,1.53,0,0,0,.06,1.7,1.51,1.51,0,0,0-1.17,1.24,1.49,1.49,0,0,0-1.69,0A1.52,1.52,0,0,0,73,76a1.53,1.53,0,0,0-.06-1.7A1.53,1.53,0,0,0,74.09,73.1Zm-5.74,8.58c-.23.46-.41.91-.59,1.32a5.33,5.33,0,0,1-.82,1.57s-.19,0-.74-.35h0c-1.25-.87-1.14-1.58-.85-2.15,1.05-2.16,5.41-4,6.87-4.11-.12.28-.47.55-1.23,1.06A6.8,6.8,0,0,0,68.35,81.68ZM76,87.5s-.13.15-.77.27h0c-1.5.28-1.92-.3-2.13-.91-.78-2.27,1-6.68,2-7.77a3.22,3.22,0,0,1-.12,1.62,6.81,6.81,0,0,0,0,3.75c.17.49.35.94.52,1.35A5.49,5.49,0,0,1,76,87.5Zm5.58-5.73c.46.23.91.42,1.32.59a5.33,5.33,0,0,1,1.57.82s0,.2-.36.74c-.86,1.26-1.57,1.14-2.15.86-2.15-1-4-5.42-4.11-6.88.29.12.56.47,1.07,1.23A6.73,6.73,0,0,0,81.56,81.77Zm2.78-6.58c.48-.17.93-.35,1.35-.52a5.49,5.49,0,0,1,1.69-.53s.15.13.27.77c.28,1.5-.31,1.92-.91,2.13-2.27.78-6.68-1-7.77-2,.28-.13.72-.07,1.62.11A6.8,6.8,0,0,0,84.34,75.19Zm-2.69-6.63c.23-.46.41-.9.59-1.32a5.33,5.33,0,0,1,.82-1.57h0a1.63,1.63,0,0,1,.74.36h0c1.25.87,1.14,1.57.85,2.15-1.05,2.15-5.41,4-6.87,4.11.12-.29.47-.56,1.23-1.07A6.73,6.73,0,0,0,81.65,68.56ZM74,62.74s.13-.15.77-.27a3.76,3.76,0,0,1,.7-.07,1.33,1.33,0,0,1,1.43,1c.78,2.26-1,6.68-2,7.76a3.22,3.22,0,0,1,.12-1.62,6.8,6.8,0,0,0,0-3.75c-.17-.48-.35-.93-.52-1.35A5.41,5.41,0,0,1,74,62.74Zm-5.58,5.73c-.46-.22-.91-.41-1.32-.59a5.62,5.62,0,0,1-1.57-.81s0-.2.36-.74c.55-.8,1-1,1.46-1a1.62,1.62,0,0,1,.69.19c2.15,1,4,5.41,4.11,6.87-.29-.11-.56-.47-1.07-1.23A6.73,6.73,0,0,0,68.44,68.47Zm-5.18,4.74a4.08,4.08,0,0,1,1.35-.2A12.48,12.48,0,0,1,71,75.16,3.22,3.22,0,0,1,69.41,75a6.9,6.9,0,0,0-3.75,0c-.48.17-.93.36-1.35.53a5.78,5.78,0,0,1-1.69.53,1.59,1.59,0,0,1-.27-.78C62.07,73.83,62.66,73.41,63.26,73.21Z"/><path d="M21.88,105.56C27.35,115,39.18,115,43.07,115c2.9,0,5.91-.21,8.77-.5C56.16,124.29,62.64,136,74.61,136s18.45-11.71,22.77-21.47c2.86.29,5.87.5,8.77.5,3.89,0,15.71,0,21.18-9.47,6-10.36-.92-21.82-7.2-30.44,6.28-8.62,13.17-20.08,7.21-30.43-5.48-9.48-17.3-9.48-21.19-9.48-2.91,0-5.92.21-8.77.5C93.05,26,86.56,14.24,74.61,14.24S56.17,26,51.84,35.71c-2.86-.29-5.87-.5-8.77-.5-3.89,0-15.72,0-21.19,9.47-6,10.35.93,21.82,7.21,30.44C22.8,83.74,15.91,95.2,21.88,105.56Zm31.23-61.7c-.17.41-.35.83-.52,1.25l-.75,1.8a16.19,16.19,0,0,0-1.31,6.17,12.44,12.44,0,0,0,.08,1.37,1.49,1.49,0,0,0,0,.21,11,11,0,0,0,.22,1.28c0,.08,0,.16,0,.25a12,12,0,0,0,.37,1.26,1.34,1.34,0,0,0,.07.18,12.55,12.55,0,0,0,.52,1.27l0,.06c.2.42.43.84.68,1.26l.12.21q.38.6.81,1.2c.06.08.12.15.17.23.31.4.63.8,1,1.2l.14.15q.53.59,1.11,1.17l.07.08a4.85,4.85,0,0,0-1,2.24,8.94,8.94,0,0,0,.48,4.61l.21.72a7.38,7.38,0,0,0-2.91,3.19c-2.15-.5-4.91-2.28-7.72-5.07C39,64.22,35,56,36.65,52.88L33.1,51c-2.91,5.55,2.5,15.46,9.07,22,3.88,3.83,7.65,6,10.89,6.3a4.58,4.58,0,0,0,.85.92c.44.37,1.3,1.08,2.18,1.93l-.29.09-.6.18-.58.15-.38.09c-.27.07-.53.12-.79.17H53.4a14.73,14.73,0,0,1-2.72.27A9.67,9.67,0,0,1,44,80.64l-.06,0c-.27-.24-.53-.5-.79-.77l-.18-.2c-.28-.31-.56-.63-.82-1l-.83-1.07c-.91-1.19-1.82-2.37-2.71-3.55l-.07-.1C30.19,62.83,25.71,54.75,29.2,48.68,32.48,43,40.78,42.49,53.11,43.86Zm2.43,4.59.74-1.8c.52-1.25,1-2.48,1.54-3.69C63.24,30.17,68,22.24,75,22.24c6.54,0,11.13,6.93,16.13,18.29l-.19,0L87.85,41c-.45.06-.88.13-1.3.21l-.4.1c-.29.06-.57.12-.84.2l-.46.14-.72.23-.46.19c-.22.08-.43.17-.64.27l-.46.22c-.2.1-.4.2-.59.31l-.44.26-.54.35c-.15.09-.28.2-.42.3s-.34.25-.5.39l-.4.34-.46.43c-.13.12-.25.25-.37.38s-.29.31-.43.47l-.34.42q-.21.26-.39.51c-.11.15-.22.3-.32.46l-.36.56-.29.49c-.11.19-.21.4-.32.6s-.18.35-.26.53-.2.43-.29.65l-.24.57c-.09.22-.17.46-.25.69s-.15.4-.21.6-.15.5-.23.75l-.18.63c0,.05,0,.1,0,.15l-.41.15a4.19,4.19,0,0,0-2.28,2l-.12,0a16.54,16.54,0,0,1-1.76-.67c-1.58-.66-3.37-1.42-5.74.65a7.39,7.39,0,0,0-.56.54c-.7-2.09-.57-5.45.47-9.39,2.14-8.15,7.28-15.71,10.78-15.85l-.16-4c-6.26.26-12.14,9.9-14.49,18.84-1.75,6.66-1.26,11.85,1.3,14.63,0,.09-.07.17-.12.27a4.77,4.77,0,0,1-2.26,1.61L59.13,62l-.52-.51L58,60.77l-.45-.52q-.28-.33-.54-.66c-.13-.17-.26-.34-.38-.52s-.3-.44-.44-.67l-.31-.5c-.13-.23-.24-.46-.35-.69s-.16-.33-.22-.5-.18-.48-.26-.72-.11-.31-.15-.47-.12-.54-.17-.81-.06-.27-.08-.4a10.16,10.16,0,0,1-.08-1.23A12.11,12.11,0,0,1,55.54,48.45Zm38.73-4.28c13.77-1.72,23-1.56,26.53,4.51,3.26,5.67-.45,13.11-7.78,23.12l-1.19-1.56L111,69.17a14.13,14.13,0,0,0-11.69-6c-.51,0-1,0-1.58.08l-.43,0c-.46.05-.92.12-1.39.21l-.29.05c-.48.09-1,.2-1.46.33a6.1,6.1,0,0,0-1.63-3.09C91.1,59.32,89,59,87.21,58.81c-.4-.05-.95-.12-1.34-.2a5.59,5.59,0,0,0-.53-1.67c.42-2.15,3.61-4.27,8.51-5.61,8.12-2.21,17.63-1.39,19.59,1.7l3.37-2.14c-3.71-5.87-16.27-5.53-24-3.42-5.16,1.41-8.76,3.64-10.44,6.36a8,8,0,0,0-3.31-1l.06-.16a16,16,0,0,1,.6-1.52v0a12.77,12.77,0,0,1,.72-1.32l.13-.2a10.07,10.07,0,0,1,.81-1.1l.17-.19a9.36,9.36,0,0,1,1-.94l.12-.09a7.81,7.81,0,0,1,1.06-.75l.12-.08a9.73,9.73,0,0,1,1.21-.6l.25-.1a13,13,0,0,1,1.33-.44l.24-.05a14.66,14.66,0,0,1,1.55-.3C90.36,44.66,92.33,44.4,94.27,44.17Zm-2.09,63.1h0C86.77,120.07,82,128,75,128c-6.56,0-11.15-6.93-16.13-18.29l1.79-.23,1.49-.2c.41,0,.81-.12,1.2-.19l.38-.09.76-.17.44-.13.64-.2.45-.16.59-.23.44-.2.54-.26.42-.23.51-.29.4-.26c.16-.11.32-.22.47-.34l.38-.29.45-.37.35-.32.42-.4.33-.35.39-.45L72,104l.36-.49c.09-.13.19-.26.28-.4s.23-.36.34-.55.17-.27.25-.41l.33-.61.21-.42c.11-.22.22-.46.32-.7l.18-.4c.11-.28.22-.58.33-.89l.11-.27v0a11.14,11.14,0,0,0,3-1.64,16.83,16.83,0,0,1,2.62-1.57,8.12,8.12,0,0,0,3-2.52,6,6,0,0,1,.88-.94,2,2,0,0,1,.74.3l.29.15c1.65,1.59,1.86,5.8.48,11-2.14,8.15-7.28,15.71-10.78,15.86l.16,4c6.26-.25,12.14-9.89,14.49-18.84,1.24-4.72,1.36-8.7.41-11.61.18-.08.35-.16.49-.24a5.4,5.4,0,0,0,2.22-2.52l.31.36.21.28c.27.37.53.74.75,1.11l.09.16c.19.33.36.65.51,1,0,.09.09.19.13.29a9.42,9.42,0,0,1,.41,1.12s0,.07,0,.1a9.86,9.86,0,0,1,.23,1c0,.1,0,.2,0,.3a9.2,9.2,0,0,1,.08,1.17,12.32,12.32,0,0,1-1,4.73C93.68,103.7,92.94,105.51,92.18,107.27Zm-36.45-1.19c-13.78,1.71-23,1.55-26.53-4.52-3.27-5.67.44-13.11,7.78-23.11L38.17,80,39,81.08a14.24,14.24,0,0,0,11.68,6c.55,0,1.11,0,1.68-.09l.29,0c.55-.06,1.12-.15,1.7-.26l.33-.07c.59-.13,1.2-.27,1.82-.45l.16,0c.61-.18,1.23-.39,1.86-.62l.19-.06a1.33,1.33,0,0,1,.11.43,5.65,5.65,0,0,0-.59,6.28A4.34,4.34,0,0,0,62.91,94l1.59-.26c-1.24,1.87-4.43,3.67-8.81,4.86-8.14,2.22-17.25,1.55-19.13-1.41l-3.37,2.14C35.24,102.61,40.29,104,46,104a42,42,0,0,0,10.79-1.48c5.74-1.57,9.7-4,11.39-7a8.52,8.52,0,0,0,2.55,2.73s0,0,0,.06c-.19.47-.39.91-.61,1.33,0,.07-.07.14-.11.22a12.84,12.84,0,0,1-.7,1.14c0,.07-.09.12-.13.19a11.49,11.49,0,0,1-.82,1l-.09.1a9.37,9.37,0,0,1-.93.85l-.07.06a9.24,9.24,0,0,1-1.06.7L66,104a10.94,10.94,0,0,1-1.15.53l-.22.09c-.41.15-.84.28-1.29.4l-.19,0c-.48.11-1,.21-1.49.28l-1.49.19ZM57.9,75.33c2.49-1.45,1.74-3.89,1.33-5.2a5.45,5.45,0,0,1-.37-2.69c0-.29.18-.62,1.14-1.15h0c.34-.19.69-.36,1-.53a8,8,0,0,0,4.17-3.49,23.16,23.16,0,0,0,1.05-2.52c.29-.81.31-.86.75-1.24a4.7,4.7,0,0,1,.5-.37,5.83,5.83,0,0,1,1.06.39c.56.23,1.25.52,2.12.8,3,.94,4.11-.41,4.75-1.69a1,1,0,0,1,.26-.38,10,10,0,0,1,1.12-.34h0a4.54,4.54,0,0,1,4.07.73,2.57,2.57,0,0,1,1,1.55c-.12,2.94,3.07,3.36,4.79,3.58,1.06.14,2.52.33,3,.8s.64,1.39.67,2.63v.35h0c0,1.07.07,3.26,2.16,4.4a1,1,0,0,1,.37.28s.12.59-1.08,2.16a4,4,0,0,0,0,5.25,2.4,2.4,0,0,1,.58,1.29,5.46,5.46,0,0,1,0,.63c-.23.06-.57.12-.87.18l-.19,0c-1,.19-2.78,1.06-2.68,4.7h0a25.58,25.58,0,0,0,.28,2.8c0,.16,0,.29.06.39a1,1,0,0,1-1.57.52,5,5,0,0,0-.53-.37l-.05.08c-3.6-2-5.56.31-6.62,1.58a4.92,4.92,0,0,1-1.53,1.42,19.57,19.57,0,0,0-3.29,1.94A6.6,6.6,0,0,1,73.34,95h0c-.49,0-1.33-.56-2.47-2.83-1.67-3.37-5.55-2.67-8.74-2.09-.16,0-.45,0-.51,0a1.93,1.93,0,0,1,.44-1.81c.88-1.21,1.44-3.31-.91-6.46h0a29.41,29.41,0,0,0-4.68-4.66L56.33,77l0,0A3.19,3.19,0,0,1,57.9,75.33Zm39,30.94c.4-1,.81-1.94,1.22-2.94a16.19,16.19,0,0,0,1.31-6.17,14,14,0,0,0-.1-1.59s0-.07,0-.11A12.61,12.61,0,0,0,99.08,94a1.36,1.36,0,0,1,0-.17,14.93,14.93,0,0,0-.47-1.43c0-.06,0-.13-.07-.2-.19-.46-.4-.92-.64-1.38l-.12-.22c-.24-.45-.52-.9-.82-1.35L96.78,89c-.31-.45-.65-.89-1-1.34l-.17-.19c-.38-.45-.78-.9-1.21-1.34L94.23,86c-.46-.46-.94-.91-1.45-1.36l0,0c1.68-.34,3.79-1.07,3.66-4.78a6.19,6.19,0,0,0-1.26-3.39,5.08,5.08,0,0,1-.27-.43.92.92,0,0,1,.11-.15c.24-.32.45-.62.64-.93,2.25-.31,5.78,1.61,9.38,5.18,6,5.94,10,14.17,8.34,17.27l3.55,1.86c2.91-5.55-2.5-15.46-9.07-22-3.9-3.86-7.69-6-10.94-6.33,0-.17,0-.35-.07-.52A4.19,4.19,0,0,0,95,67.78c.45-.12.89-.23,1.32-.32l.18,0a15.29,15.29,0,0,1,2.84-.29,9.82,9.82,0,0,1,7.53,3.32l.18.19c.27.3.55.62.81,1l.83,1.07c.91,1.19,1.82,2.37,2.71,3.55l.07.11c8.37,11.07,12.85,19.15,9.36,25.22-3.28,5.68-11.58,6.19-23.9,4.82Z"/></svg>