<svg id="expanded" xmlns="http://www.w3.org/2000/svg" viewBox="0 0 150 150"><title>Cornflower-bold</title><path d="M118.23,65.11a3,3,0,0,0-2.35-4.86,2.86,2.86,0,0,0-.77.1H115c-.7,0-2.15-.88-3.42-1.69.58-2.13,0-4.45-.44-6.09a8.37,8.37,0,0,1-.48-3.29,3,3,0,0,0-1-3.28,13.49,13.49,0,0,0-7.82-2.71,11,11,0,0,0-3.49.57A15.31,15.31,0,0,0,91,41l-.34,0a3,3,0,0,0-1.74.56,28.23,28.23,0,0,0-1.56-8.68A3,3,0,0,0,84.52,31h-.16a3,3,0,0,0-2.74,2.19c-.15.56-1.92,1.53-3.21,2.2-1.56-1.57-3.88-2.21-5.5-2.66a8.42,8.42,0,0,1-3.1-1.23,3,3,0,0,0-3.33-.78c-.28.11-6.29,2.57-7.51,8.73a15.31,15.31,0,0,0-6.17,5,3,3,0,0,0-.58,2.09,28.26,28.26,0,0,0-8.3-3l-.45,0a3,3,0,0,0-2.13,5.11c.41.41.36,2.42.3,3.87-2.1.53-3.71,2.11-5.06,3.43A8.45,8.45,0,0,1,34,58a3,3,0,0,0-2.34,2.5c-.05.3-.92,6.73,3.8,10.86a15.18,15.18,0,0,0,1.26,7.86,3,3,0,0,0,1.51,1.54,28.24,28.24,0,0,0-6.74,5.7,3,3,0,0,0,2.35,4.86,2.91,2.91,0,0,0,.77-.1h.08c.7,0,2.15.87,3.41,1.68-.58,2.14,0,4.46.45,6.09a8.39,8.39,0,0,1,.48,3.3,3,3,0,0,0,1,3.27,13.5,13.5,0,0,0,7.83,2.71,11,11,0,0,0,3.48-.56,15.3,15.3,0,0,0,7.43,2.84,1.88,1.88,0,0,0,.34,0,3,3,0,0,0,1.74-.56,28.25,28.25,0,0,0,1.58,8.69,3,3,0,0,0,2.78,1.89h.17a3,3,0,0,0,2.73-2.2c.15-.56,1.91-1.52,3.21-2.2,1.56,1.57,3.87,2.21,5.49,2.66a8.59,8.59,0,0,1,3.1,1.23,3,3,0,0,0,2.23,1,3,3,0,0,0,1.1-.21c.28-.11,6.29-2.57,7.51-8.72a15.19,15.19,0,0,0,6.18-5,3,3,0,0,0,.57-2.08,28.26,28.26,0,0,0,8.3,3,3.4,3.4,0,0,0,.45,0,3,3,0,0,0,2.13-5.1c-.4-.41-.35-2.42-.29-3.88,2.1-.52,3.71-2.11,5-3.43a8.61,8.61,0,0,1,2.61-2.07,3,3,0,0,0,2.34-2.49c0-.3.92-6.73-3.79-10.87A15.18,15.18,0,0,0,113,72.35a3,3,0,0,0-1.51-1.53A28.48,28.48,0,0,0,118.23,65.11Zm-4.57,24.44A13.56,13.56,0,0,0,110,92.43c-1.52,1.49-2.45,2.29-3.34,2.3a12,12,0,0,0-1.83-6.23A8.84,8.84,0,0,0,110,86a9.42,9.42,0,0,0,1.58-2.13A8,8,0,0,1,113.66,89.55Zm-10,13.28c-7.38-2.62-20.07-11.27-25.53-22.6a52.44,52.44,0,0,0,10.75,4,81,81,0,0,1,9.49,3.22A13.73,13.73,0,0,0,100,88c4,2.35,3.78,6.42,3.6,10.35A23.24,23.24,0,0,0,103.64,102.83Zm-60.76-5c-.54-2.06-.76-3.27-.32-4a12.55,12.55,0,0,0,5.68,1.56l.61,0a8.8,8.8,0,0,0-.41,5.75,9.15,9.15,0,0,0,1.05,2.42,7.91,7.91,0,0,1-6-1A13.52,13.52,0,0,0,42.88,97.86ZM69.34,76.38a52.81,52.81,0,0,0-8.82,7.31A82.72,82.72,0,0,1,53,90.3a13.9,13.9,0,0,0-1.35,1.13c-4,2.22-7.42,0-10.72-2.07A24.2,24.2,0,0,0,37,87.19C43,82.12,56.81,75.46,69.34,76.38ZM36,62a13.4,13.4,0,0,0,3.71-2.89c1.52-1.49,2.45-2.28,3.34-2.29a12,12,0,0,0,1.83,6.22,8.8,8.8,0,0,0-5.2,2.52,9.6,9.6,0,0,0-1.58,2.12A8,8,0,0,1,36,62Zm10-13.28C53.43,51.35,66.12,60,71.58,71.33a52.44,52.44,0,0,0-10.75-4,80.42,80.42,0,0,1-9.49-3.23,15,15,0,0,0-1.65-.6c-3.93-2.35-3.75-6.4-3.57-10.32A23.21,23.21,0,0,0,46.05,48.74Zm60.76,5c.54,2.06.76,3.26.32,4a12,12,0,0,0-6.29-1.53,8.84,8.84,0,0,0,.41-5.76,9.36,9.36,0,0,0-1-2.43,8,8,0,0,1,6,1A13.58,13.58,0,0,0,106.81,53.71ZM94.93,58.85A85.86,85.86,0,0,0,87.1,65.7a74.07,74.07,0,0,1-6,5.37c5.78-8.53,9.53-21.21,10.66-25.37,3.36.74,5.9,2.83,6.63,5.54S97.83,56.7,94.93,58.85ZM77.08,70.71a53.18,53.18,0,0,0-1.92-11.29,81.16,81.16,0,0,1-2-9.84,15.58,15.58,0,0,0-.31-1.73c.08-4.57,3.67-6.45,7.16-8.25a23.13,23.13,0,0,0,3.81-2.28C85.29,45,84.15,60.33,77.08,70.71ZM70.9,43.49a8.89,8.89,0,0,0-4.79-3.24,9.68,9.68,0,0,0-2.62-.3,7.94,7.94,0,0,1,3.87-4.66,13.62,13.62,0,0,0,4.35,1.77c2.05.57,3.21,1,3.66,1.74A12.1,12.1,0,0,0,70.9,43.49Zm-5.56-.34c2.69.72,4.47,3.19,4.88,6.78a85.61,85.61,0,0,0,2,10.2A73.86,73.86,0,0,1,73.87,68c-4.49-9.27-13.6-18.86-16.64-21.92C59.56,43.59,62.63,42.43,65.34,43.15Zm-25,33.06c-1-3.29-.5-6.53,1.48-8.51A6,6,0,0,1,46.22,66a9.86,9.86,0,0,1,3.92.9A86.06,86.06,0,0,0,60,70.21a74.74,74.74,0,0,1,7.66,2.54C57.38,72,44.52,75.11,40.35,76.21Zm14.41,16.5a83.08,83.08,0,0,0,7.83-6.85,75.5,75.5,0,0,1,6-5.36C62.85,89,59.1,101.71,58,105.86c-3.36-.74-5.9-2.82-6.63-5.53S51.86,94.86,54.76,92.71ZM72.61,80.85a53.07,53.07,0,0,0,1.92,11.29,81.16,81.16,0,0,1,2,9.84,13.26,13.26,0,0,0,.31,1.73c-.08,4.58-3.67,6.45-7.16,8.25a23.13,23.13,0,0,0-3.81,2.28C64.4,106.55,65.54,91.24,72.61,80.85Zm6.18,27.22a8.83,8.83,0,0,0,4.79,3.24,9.24,9.24,0,0,0,2.4.31h.22a8,8,0,0,1-3.87,4.67A13.39,13.39,0,0,0,78,114.51c-2-.57-3.21-1-3.66-1.75A12,12,0,0,0,78.79,108.07Zm5.56.34c-2.69-.72-4.47-3.19-4.88-6.77a85.61,85.61,0,0,0-2-10.2,71.48,71.48,0,0,1-1.63-7.91c4.49,9.26,13.6,18.85,16.64,21.91C90.13,108,87.06,109.14,84.35,108.41Zm25-33c1,3.28.5,6.52-1.48,8.51s-5,2.28-8.31.84a83,83,0,0,0-9.85-3.35A74.7,74.7,0,0,1,82,78.81C92.3,79.55,105.17,76.46,109.34,75.36Zm-29-.18a52.33,52.33,0,0,0,8.82-7.31,84.08,84.08,0,0,1,7.54-6.61,12.61,12.61,0,0,0,1.35-1.13c4-2.22,7.42,0,10.72,2.08a23.37,23.37,0,0,0,3.89,2.16C106.71,69.45,92.88,76.11,80.35,75.18ZM87,50.93a57.8,57.8,0,0,0,.43-6l1.25.54C88.3,46.78,87.74,48.69,87,50.93ZM55.51,48.66c1,1,2.32,2.41,3.89,4.18a59.06,59.06,0,0,0-5-3.37C54.78,49.2,55.14,48.92,55.51,48.66ZM41.69,79c1.31-.33,3.25-.8,5.56-1.28a57.74,57.74,0,0,0-5.4,2.64C41.79,79.87,41.73,79.42,41.69,79Zm21,21.67a58,58,0,0,0-.43,6c-.42-.17-.83-.35-1.25-.54C61.39,104.78,62,102.88,62.7,100.63Zm31.48,2.27c-1-1-2.32-2.41-3.89-4.17a58.12,58.12,0,0,0,5,3.36C94.91,102.37,94.54,102.64,94.18,102.9ZM108,72.6c-1.31.33-3.24.8-5.55,1.28,1.91-.82,3.73-1.71,5.39-2.63C107.9,71.7,108,72.15,108,72.6Z"/></svg>