<svg id="expanded" xmlns="http://www.w3.org/2000/svg" viewBox="0 0 150 150"><title>Sunflower-bold</title><path d="M129.66,74.8l-6.75-4.86c-.11-.08-1.42-1-3.36-2.27,2.72-3.4,4.73-6.48,4.86-6.69l4.69-7.22-8.4-1.89c-.16,0-2.21-.5-5-1a112.41,112.41,0,0,0,2.75-12l1.35-8.21L111.53,32c-.29,0-5.22.84-10.75,2.32-.38-2.38-.73-4-.75-4.17l-1.8-8.42L91,26.32A96.34,96.34,0,0,0,83,32c-1.7-2.76-3.15-4.78-3.26-4.93l-4.86-6.75L70,27.1c-.07.11-1,1.43-2.28,3.38-3.41-2.74-6.52-4.77-6.73-4.9l-7.22-4.69-1.89,8.4c0,.16-.5,2.21-1,5.05a112.48,112.48,0,0,0-12-2.73l-8.21-1.35L32,38.48c0,.29.84,5.21,2.32,10.72-2.4.38-4.09.74-4.22.76l-8.42,1.8L26.31,59a95.55,95.55,0,0,0,5.74,8c-2.75,1.7-4.76,3.14-4.9,3.25L20.4,75.16,27.15,80c.1.07,1.4,1,3.32,2.25-2.74,3.42-4.77,6.53-4.9,6.74l-4.69,7.22,8.41,1.89c.15,0,2.23.5,5.1,1a116.74,116.74,0,0,0-2.74,12l-1.35,8.21L38.52,118c.29,0,5.18-.84,10.68-2.31.38,2.39.73,4.06.76,4.19l1.79,8.42,7.28-4.6a93.67,93.67,0,0,0,8-5.76c1.71,2.77,3.16,4.8,3.27,4.94l4.87,6.75,4.86-6.75c.08-.1,1-1.4,2.24-3.31,3.4,2.73,6.49,4.74,6.7,4.87l7.22,4.69,1.9-8.41c0-.15.49-2.23,1-5.09a115.17,115.17,0,0,0,12,2.75l8.21,1.34L118,111.49c0-.3-.84-5.2-2.31-10.71,2.36-.37,4-.72,4.14-.74l8.42-1.8L123.67,91c-.39-.61-2.73-4.26-5.73-8,2.78-1.71,4.82-3.17,5-3.28ZM95.29,99.37a13.77,13.77,0,0,0-2.67-4.27,4.94,4.94,0,0,0,1.22-2.23A14,14,0,0,0,99,96.73a17.49,17.49,0,0,0,6.55,1h.86a92.76,92.76,0,0,1,3.2,12.24,83,83,0,0,1-13.53-3.8A18.46,18.46,0,0,0,95.29,99.37Zm-42-.36a18.81,18.81,0,0,0-1,7.36,90.82,90.82,0,0,1-12.22,3.19,83.51,83.51,0,0,1,3.78-13.47l1,0a16.59,16.59,0,0,0,5.8-.81A13.44,13.44,0,0,0,55.56,92a4.23,4.23,0,0,0,.5.45,4.81,4.81,0,0,0,.64,1.78A14.1,14.1,0,0,0,53.26,99Zm1.43-48.38a13.8,13.8,0,0,0,2.85,4.46,5,5,0,0,0-1.31,2.12A14,14,0,0,0,51,53.27a18.65,18.65,0,0,0-7.33-1A91.51,91.51,0,0,1,40.45,40,82.19,82.19,0,0,1,53.9,43.8,18.75,18.75,0,0,0,54.69,50.63Zm42,.36a18.86,18.86,0,0,0,1-7.37A92.11,92.11,0,0,1,110,40.4a82.69,82.69,0,0,1-3.79,13.51,18.75,18.75,0,0,0-6.83.79,13.59,13.59,0,0,0-5.11,3.52,2.8,2.8,0,0,0-.31-.28,5,5,0,0,0-.8-2A14.09,14.09,0,0,0,96.72,51Zm9.15,18.67a10.09,10.09,0,0,1-4.12.7,5,5,0,0,0-1.81-2.52,5,5,0,0,0-2-3.3,5,5,0,0,0-1.39-2.76,9.15,9.15,0,0,1,4.28-3.36c2.77-1.09,9.88-.31,15.2.66C113,63.32,108.61,68.58,105.87,69.66ZM96.5,81.78a1.5,1.5,0,0,1-1.5,1.5,1.1,1.1,0,0,1-.31,0,2.59,2.59,0,0,0-.83-.5,1.46,1.46,0,0,1,0-1.92,2.74,2.74,0,0,0,.82-.5,1.12,1.12,0,0,1,.32,0,1.55,1.55,0,0,1,.31,0,2.4,2.4,0,0,0,.84.51A1.47,1.47,0,0,1,96.5,81.78Zm-2,3.3a1.5,1.5,0,0,1-1.5,1.5,1.1,1.1,0,0,1-.31,0,2.59,2.59,0,0,0-.83-.5,1.46,1.46,0,0,1,0-1.92,2.62,2.62,0,0,0,.83-.51,1.63,1.63,0,0,1,.31,0,1.66,1.66,0,0,1,.32,0,2.62,2.62,0,0,0,.83.51A1.47,1.47,0,0,1,94.5,85.08Zm-2,3.3a1.5,1.5,0,0,1-1.5,1.5,1.1,1.1,0,0,1-.31,0,2.59,2.59,0,0,0-.83-.5,1.46,1.46,0,0,1,0-1.92,2.62,2.62,0,0,0,.83-.51,1.63,1.63,0,0,1,.31,0,1.66,1.66,0,0,1,.32,0,2.62,2.62,0,0,0,.83.51A1.47,1.47,0,0,1,92.5,88.38Zm-2,3.3a1.5,1.5,0,0,1-3,0,1.48,1.48,0,0,1,.36-1,2.62,2.62,0,0,0,.83-.51,1.63,1.63,0,0,1,.31,0,1.66,1.66,0,0,1,.32,0,2.62,2.62,0,0,0,.83.51A1.47,1.47,0,0,1,90.5,91.68Zm-6,3.3a1.5,1.5,0,1,1-3,0,1.48,1.48,0,0,1,.36-1,2.62,2.62,0,0,0,.83-.51,1.63,1.63,0,0,1,.31,0,1.66,1.66,0,0,1,.32,0,2.62,2.62,0,0,0,.83.51A1.47,1.47,0,0,1,84.5,95Zm-31-26.4a1.5,1.5,0,0,1,1.5-1.5,1.55,1.55,0,0,1,.31,0,2.62,2.62,0,0,0,.83.51,1.46,1.46,0,0,1,0,1.92,2.59,2.59,0,0,0-.83.5,1.06,1.06,0,0,1-.31,0,1.17,1.17,0,0,1-.32,0,2.44,2.44,0,0,0-.82-.5A1.48,1.48,0,0,1,53.5,68.58Zm2-3.3a1.5,1.5,0,0,1,1.5-1.5,1.55,1.55,0,0,1,.31,0,2.62,2.62,0,0,0,.83.51,1.46,1.46,0,0,1,0,1.92,2.59,2.59,0,0,0-.83.5,1.06,1.06,0,0,1-.31,0,1.17,1.17,0,0,1-.32,0,2.44,2.44,0,0,0-.82-.5A1.48,1.48,0,0,1,55.5,65.28Zm2-3.3a1.51,1.51,0,0,1,.61-1.21l.13,0v0a1.44,1.44,0,0,1,.77-.22,1.55,1.55,0,0,1,.31,0,2.62,2.62,0,0,0,.83.51,1.46,1.46,0,0,1,0,1.92,2.59,2.59,0,0,0-.83.5,1.06,1.06,0,0,1-.31,0,1.12,1.12,0,0,1-.32,0,2.55,2.55,0,0,0-.82-.5A1.48,1.48,0,0,1,57.5,62Zm2-3.3a1.5,1.5,0,0,1,3,0,1.48,1.48,0,0,1-.36,1,2.59,2.59,0,0,0-.83.5,1.06,1.06,0,0,1-.31,0,1.17,1.17,0,0,1-.32,0,2.44,2.44,0,0,0-.82-.5A1.48,1.48,0,0,1,59.5,58.68Zm6-3.3a1.5,1.5,0,1,1,3,0,1.48,1.48,0,0,1-.36,1,2.59,2.59,0,0,0-.83.5,1.06,1.06,0,0,1-.31,0,1.12,1.12,0,0,1-.32,0,2.55,2.55,0,0,0-.82-.5A1.48,1.48,0,0,1,65.5,55.38Zm7,0a1.48,1.48,0,0,1-.36,1,2.59,2.59,0,0,0-.83.5,1.06,1.06,0,0,1-.31,0,1.12,1.12,0,0,1-.32,0,2.55,2.55,0,0,0-.82-.5,1.48,1.48,0,0,1-.36-1,1.5,1.5,0,1,1,3,0ZM93.32,79.94A1.65,1.65,0,0,1,93,80a1.55,1.55,0,0,1-.31,0,2.45,2.45,0,0,0-.83-.51,1.46,1.46,0,0,1,0-1.92,2.47,2.47,0,0,0,.82-.51A1.73,1.73,0,0,1,93,77a1.55,1.55,0,0,1,.31,0,2.62,2.62,0,0,0,.83.51,1.46,1.46,0,0,1,0,1.92A2.74,2.74,0,0,0,93.32,79.94Zm-2,3.3a1.12,1.12,0,0,1-.32,0,1.1,1.1,0,0,1-.31,0,2.59,2.59,0,0,0-.83-.5,1.46,1.46,0,0,1,0-1.92,2.74,2.74,0,0,0,.82-.5,1.12,1.12,0,0,1,.32,0,1.55,1.55,0,0,1,.31,0,2.4,2.4,0,0,0,.84.51,1.49,1.49,0,0,1,0,1.92A2.59,2.59,0,0,0,91.32,83.24Zm-2,3.3a1.12,1.12,0,0,1-.32,0,1.1,1.1,0,0,1-.31,0,2.59,2.59,0,0,0-.83-.5,1.46,1.46,0,0,1,0-1.92,2.62,2.62,0,0,0,.83-.51,1.63,1.63,0,0,1,.31,0,1.66,1.66,0,0,1,.32,0,2.62,2.62,0,0,0,.83.51,1.49,1.49,0,0,1,0,1.92A2.59,2.59,0,0,0,89.32,86.54Zm-2,3.3a1.12,1.12,0,0,1-.32,0,1.1,1.1,0,0,1-.31,0,2.59,2.59,0,0,0-.83-.5,1.46,1.46,0,0,1,0-1.92,2.62,2.62,0,0,0,.83-.51,1.63,1.63,0,0,1,.31,0,1.66,1.66,0,0,1,.32,0,2.62,2.62,0,0,0,.83.51,1.49,1.49,0,0,1,0,1.92A2.59,2.59,0,0,0,87.32,89.84Zm-4,0a1.12,1.12,0,0,1-.32,0,1.1,1.1,0,0,1-.31,0,2.59,2.59,0,0,0-.83-.5,1.46,1.46,0,0,1,0-1.92,2.62,2.62,0,0,0,.83-.51,1.63,1.63,0,0,1,.31,0,1.66,1.66,0,0,1,.32,0,2.62,2.62,0,0,0,.83.51,1.49,1.49,0,0,1,0,1.92A2.59,2.59,0,0,0,83.32,89.84Zm-2,3.3a1.12,1.12,0,0,1-.32,0,1.1,1.1,0,0,1-.31,0,2.59,2.59,0,0,0-.83-.5,1.46,1.46,0,0,1,0-1.92,2.62,2.62,0,0,0,.83-.51,1.63,1.63,0,0,1,.31,0,1.66,1.66,0,0,1,.32,0,2.62,2.62,0,0,0,.83.51,1.49,1.49,0,0,1,0,1.92A2.59,2.59,0,0,0,81.32,93.14Zm-4,0a1.12,1.12,0,0,1-.32,0,1.1,1.1,0,0,1-.31,0,2.59,2.59,0,0,0-.83-.5,1.46,1.46,0,0,1,0-1.92,2.62,2.62,0,0,0,.83-.51,1.63,1.63,0,0,1,.31,0,1.66,1.66,0,0,1,.32,0,2.62,2.62,0,0,0,.83.51,1.49,1.49,0,0,1,0,1.92A2.59,2.59,0,0,0,77.32,93.14Zm-4,0a1.12,1.12,0,0,1-.32,0,1.1,1.1,0,0,1-.31,0,2.59,2.59,0,0,0-.83-.5,1.46,1.46,0,0,1,0-1.92,2.62,2.62,0,0,0,.83-.51,1.63,1.63,0,0,1,.31,0,1.66,1.66,0,0,1,.32,0,2.62,2.62,0,0,0,.83.51,1.49,1.49,0,0,1,0,1.92A2.59,2.59,0,0,0,73.32,93.14Zm-4,0a1.12,1.12,0,0,1-.32,0,1.1,1.1,0,0,1-.31,0,2.59,2.59,0,0,0-.83-.5,1.46,1.46,0,0,1,0-1.92,2.62,2.62,0,0,0,.83-.51,1.63,1.63,0,0,1,.31,0,1.66,1.66,0,0,1,.32,0,2.62,2.62,0,0,0,.83.51,1.49,1.49,0,0,1,0,1.92A2.59,2.59,0,0,0,69.32,93.14Zm-3.46-3.8a1.46,1.46,0,0,1,0-1.92,2.62,2.62,0,0,0,.83-.51,1.63,1.63,0,0,1,.31,0,1.66,1.66,0,0,1,.32,0,2.62,2.62,0,0,0,.83.51,1.49,1.49,0,0,1,0,1.92,2.59,2.59,0,0,0-.83.5,1.12,1.12,0,0,1-.32,0,1.1,1.1,0,0,1-.31,0A2.59,2.59,0,0,0,65.86,89.34Zm-2.54.5a1.12,1.12,0,0,1-.32,0,1.1,1.1,0,0,1-.31,0,2.59,2.59,0,0,0-.83-.5,1.46,1.46,0,0,1,0-1.92,2.62,2.62,0,0,0,.83-.51,1.63,1.63,0,0,1,.31,0,1.66,1.66,0,0,1,.32,0,2.62,2.62,0,0,0,.83.51,1.49,1.49,0,0,1,0,1.92A2.59,2.59,0,0,0,63.32,89.84ZM59.86,86a1.46,1.46,0,0,1,0-1.92,2.62,2.62,0,0,0,.83-.51,1.63,1.63,0,0,1,.31,0,1.66,1.66,0,0,1,.32,0,2.62,2.62,0,0,0,.83.51,1.49,1.49,0,0,1,0,1.92,2.59,2.59,0,0,0-.83.5,1.12,1.12,0,0,1-.32,0,1.1,1.1,0,0,1-.31,0A2.59,2.59,0,0,0,59.86,86Zm-2.54.5a1.12,1.12,0,0,1-.32,0,1.5,1.5,0,0,1-1.5-1.5,1.48,1.48,0,0,1,.36-1,2.62,2.62,0,0,0,.83-.51,1.63,1.63,0,0,1,.31,0,1.66,1.66,0,0,1,.32,0,2.62,2.62,0,0,0,.83.51,1.49,1.49,0,0,1,0,1.92A2.59,2.59,0,0,0,57.32,86.54Zm-1.46-7.1a1.46,1.46,0,0,1,0-1.92,2.47,2.47,0,0,0,.82-.51A1.73,1.73,0,0,1,57,77a1.55,1.55,0,0,1,.31,0,2.62,2.62,0,0,0,.83.51,1.46,1.46,0,0,1,0,1.92,2.74,2.74,0,0,0-.82.5A1.65,1.65,0,0,1,57,80a1.55,1.55,0,0,1-.31,0A2.45,2.45,0,0,0,55.86,79.44Zm-2-3.3a1.46,1.46,0,0,1,0-1.92,2.57,2.57,0,0,0,.82-.51,1.66,1.66,0,0,1,.32,0,1.55,1.55,0,0,1,.31,0,2.62,2.62,0,0,0,.83.51,1.46,1.46,0,0,1,0,1.92,2.59,2.59,0,0,0-.83.5,1.06,1.06,0,0,1-.31,0,1.17,1.17,0,0,1-.32,0A2.44,2.44,0,0,0,53.86,76.14Zm2.82-5.73a1.73,1.73,0,0,1,.32,0,1.55,1.55,0,0,1,.31,0,2.62,2.62,0,0,0,.83.51,1.46,1.46,0,0,1,0,1.92,2.59,2.59,0,0,0-.83.5,1.06,1.06,0,0,1-.31,0,1.12,1.12,0,0,1-.32,0,2.55,2.55,0,0,0-.82-.5,1.46,1.46,0,0,1,0-1.92A2.47,2.47,0,0,0,56.68,70.41Zm2-3.3a1.73,1.73,0,0,1,.32,0,1.55,1.55,0,0,1,.31,0,2.62,2.62,0,0,0,.83.51,1.46,1.46,0,0,1,0,1.92,2.59,2.59,0,0,0-.83.5,1.06,1.06,0,0,1-.31,0,1.17,1.17,0,0,1-.32,0,2.44,2.44,0,0,0-.82-.5,1.46,1.46,0,0,1,0-1.92A2.47,2.47,0,0,0,58.68,67.11Zm2-3.3a1.66,1.66,0,0,1,.32,0,1.55,1.55,0,0,1,.31,0,2.62,2.62,0,0,0,.83.51,1.46,1.46,0,0,1,0,1.92,2.59,2.59,0,0,0-.83.5,1.06,1.06,0,0,1-.31,0,1.17,1.17,0,0,1-.32,0,2.44,2.44,0,0,0-.82-.5,1.46,1.46,0,0,1,0-1.92A2.57,2.57,0,0,0,60.68,63.81Zm2-3.3a1.73,1.73,0,0,1,.32,0,1.55,1.55,0,0,1,.31,0,2.62,2.62,0,0,0,.83.51,1.46,1.46,0,0,1,0,1.92,2.59,2.59,0,0,0-.83.5,1.06,1.06,0,0,1-.31,0,1.12,1.12,0,0,1-.32,0,2.55,2.55,0,0,0-.82-.5,1.46,1.46,0,0,1,0-1.92A2.47,2.47,0,0,0,62.68,60.51Zm4,0a1.73,1.73,0,0,1,.32,0,1.55,1.55,0,0,1,.31,0,2.62,2.62,0,0,0,.83.51,1.46,1.46,0,0,1,0,1.92,2.59,2.59,0,0,0-.83.5,1.06,1.06,0,0,1-.31,0,1.12,1.12,0,0,1-.32,0,2.55,2.55,0,0,0-.82-.5,1.46,1.46,0,0,1,0-1.92A2.47,2.47,0,0,0,66.68,60.51Zm2-3.3a1.66,1.66,0,0,1,.32,0,1.55,1.55,0,0,1,.31,0,2.62,2.62,0,0,0,.83.51,1.46,1.46,0,0,1,0,1.92,2.59,2.59,0,0,0-.83.5,1.06,1.06,0,0,1-.31,0,1.17,1.17,0,0,1-.32,0,2.44,2.44,0,0,0-.82-.5,1.46,1.46,0,0,1,0-1.92A2.57,2.57,0,0,0,68.68,57.21Zm4,0a1.66,1.66,0,0,1,.32,0,1.55,1.55,0,0,1,.31,0,2.62,2.62,0,0,0,.83.51,1.46,1.46,0,0,1,0,1.92,2.59,2.59,0,0,0-.83.5,1.06,1.06,0,0,1-.31,0,1.17,1.17,0,0,1-.32,0,2.44,2.44,0,0,0-.82-.5,1.46,1.46,0,0,1,0-1.92A2.57,2.57,0,0,0,72.68,57.21Zm4,0a1.66,1.66,0,0,1,.32,0,1.55,1.55,0,0,1,.31,0,2.62,2.62,0,0,0,.83.51,1.46,1.46,0,0,1,0,1.92,2.59,2.59,0,0,0-.83.5,1.06,1.06,0,0,1-.31,0,1.17,1.17,0,0,1-.32,0,2.44,2.44,0,0,0-.82-.5,1.46,1.46,0,0,1,0-1.92A2.57,2.57,0,0,0,76.68,57.21Zm4,0a1.66,1.66,0,0,1,.32,0,1.55,1.55,0,0,1,.31,0,2.62,2.62,0,0,0,.83.51,1.46,1.46,0,0,1,0,1.92,2.59,2.59,0,0,0-.83.5,1.06,1.06,0,0,1-.31,0,1.17,1.17,0,0,1-.32,0,2.44,2.44,0,0,0-.82-.5,1.46,1.46,0,0,1,0-1.92A2.57,2.57,0,0,0,80.68,57.21ZM84.14,61a1.46,1.46,0,0,1,0,1.92,2.59,2.59,0,0,0-.83.5,1.06,1.06,0,0,1-.31,0,1.12,1.12,0,0,1-.32,0,2.55,2.55,0,0,0-.82-.5,1.46,1.46,0,0,1,0-1.92,2.47,2.47,0,0,0,.82-.51,1.73,1.73,0,0,1,.32,0,1.55,1.55,0,0,1,.31,0A2.62,2.62,0,0,0,84.14,61Zm2.54-.51a1.73,1.73,0,0,1,.32,0,1.55,1.55,0,0,1,.31,0,2.62,2.62,0,0,0,.83.51,1.46,1.46,0,0,1,0,1.92,2.59,2.59,0,0,0-.83.5,1.06,1.06,0,0,1-.31,0,1.12,1.12,0,0,1-.32,0,2.55,2.55,0,0,0-.82-.5,1.46,1.46,0,0,1,0-1.92A2.47,2.47,0,0,0,86.68,60.51Zm3.46,3.81a1.46,1.46,0,0,1,0,1.92,2.59,2.59,0,0,0-.83.5,1.06,1.06,0,0,1-.31,0,1.17,1.17,0,0,1-.32,0,2.44,2.44,0,0,0-.82-.5,1.46,1.46,0,0,1,0-1.92,2.57,2.57,0,0,0,.82-.51,1.66,1.66,0,0,1,.32,0,1.55,1.55,0,0,1,.31,0A2.62,2.62,0,0,0,90.14,64.32Zm2.54-.51a1.66,1.66,0,0,1,.32,0,1.5,1.5,0,0,1,1.5,1.5,1.48,1.48,0,0,1-.36,1,2.59,2.59,0,0,0-.83.5,1.06,1.06,0,0,1-.31,0,1.17,1.17,0,0,1-.32,0,2.44,2.44,0,0,0-.82-.5,1.46,1.46,0,0,1,0-1.92A2.57,2.57,0,0,0,92.68,63.81Zm1.46,7.11a1.46,1.46,0,0,1,0,1.92,2.59,2.59,0,0,0-.83.5,1.06,1.06,0,0,1-.31,0,1.12,1.12,0,0,1-.32,0,2.55,2.55,0,0,0-.82-.5,1.46,1.46,0,0,1,0-1.92,2.47,2.47,0,0,0,.82-.51,1.73,1.73,0,0,1,.32,0,1.55,1.55,0,0,1,.31,0A2.62,2.62,0,0,0,94.14,70.92Zm-2.83,5.72a1.06,1.06,0,0,1-.31,0,1.17,1.17,0,0,1-.32,0,2.44,2.44,0,0,0-.82-.5,1.46,1.46,0,0,1,0-1.92,2.57,2.57,0,0,0,.82-.51,1.66,1.66,0,0,1,.32,0,1.55,1.55,0,0,1,.31,0,2.62,2.62,0,0,0,.83.51,1.46,1.46,0,0,1,0,1.92A2.59,2.59,0,0,0,91.31,76.64Zm-2,3.3A1.65,1.65,0,0,1,89,80a1.55,1.55,0,0,1-.31,0,2.45,2.45,0,0,0-.83-.51,1.46,1.46,0,0,1,0-1.92,2.47,2.47,0,0,0,.82-.51A1.73,1.73,0,0,1,89,77a1.55,1.55,0,0,1,.31,0,2.62,2.62,0,0,0,.83.51,1.46,1.46,0,0,1,0,1.92A2.74,2.74,0,0,0,89.32,79.94Zm-2,3.3a1.12,1.12,0,0,1-.32,0,1.1,1.1,0,0,1-.31,0,2.59,2.59,0,0,0-.83-.5,1.46,1.46,0,0,1,0-1.92,2.74,2.74,0,0,0,.82-.5,1.12,1.12,0,0,1,.32,0,1.55,1.55,0,0,1,.31,0,2.4,2.4,0,0,0,.84.51,1.49,1.49,0,0,1,0,1.92A2.59,2.59,0,0,0,87.32,83.24Zm-2,3.3a1.12,1.12,0,0,1-.32,0,1.1,1.1,0,0,1-.31,0,2.59,2.59,0,0,0-.83-.5,1.46,1.46,0,0,1,0-1.92,2.62,2.62,0,0,0,.83-.51,1.63,1.63,0,0,1,.31,0,1.66,1.66,0,0,1,.32,0,2.62,2.62,0,0,0,.83.51,1.49,1.49,0,0,1,0,1.92A2.59,2.59,0,0,0,85.32,86.54Zm-4,0a1.12,1.12,0,0,1-.32,0,1.1,1.1,0,0,1-.31,0,2.59,2.59,0,0,0-.83-.5,1.46,1.46,0,0,1,0-1.92,2.62,2.62,0,0,0,.83-.51,1.63,1.63,0,0,1,.31,0,1.66,1.66,0,0,1,.32,0,2.62,2.62,0,0,0,.83.51,1.49,1.49,0,0,1,0,1.92A2.59,2.59,0,0,0,81.32,86.54Zm-2,3.3a1.12,1.12,0,0,1-.32,0,1.1,1.1,0,0,1-.31,0,2.59,2.59,0,0,0-.83-.5,1.46,1.46,0,0,1,0-1.92,2.62,2.62,0,0,0,.83-.51,1.63,1.63,0,0,1,.31,0,1.66,1.66,0,0,1,.32,0,2.62,2.62,0,0,0,.83.51,1.49,1.49,0,0,1,0,1.92A2.59,2.59,0,0,0,79.32,89.84Zm-4,0a1.12,1.12,0,0,1-.32,0,1.1,1.1,0,0,1-.31,0,2.59,2.59,0,0,0-.83-.5,1.46,1.46,0,0,1,0-1.92,2.62,2.62,0,0,0,.83-.51,1.63,1.63,0,0,1,.31,0,1.66,1.66,0,0,1,.32,0,2.62,2.62,0,0,0,.83.51,1.49,1.49,0,0,1,0,1.92A2.59,2.59,0,0,0,75.32,89.84Zm-4,0a1.12,1.12,0,0,1-.32,0,1.1,1.1,0,0,1-.31,0,2.59,2.59,0,0,0-.83-.5,1.46,1.46,0,0,1,0-1.92,2.62,2.62,0,0,0,.83-.51,1.63,1.63,0,0,1,.31,0,1.66,1.66,0,0,1,.32,0,2.62,2.62,0,0,0,.83.51,1.49,1.49,0,0,1,0,1.92A2.59,2.59,0,0,0,71.32,89.84ZM67.86,86a1.46,1.46,0,0,1,0-1.92,2.62,2.62,0,0,0,.83-.51,1.63,1.63,0,0,1,.31,0,1.66,1.66,0,0,1,.32,0,2.62,2.62,0,0,0,.83.51,1.49,1.49,0,0,1,0,1.92,2.59,2.59,0,0,0-.83.5,1.12,1.12,0,0,1-.32,0,1.1,1.1,0,0,1-.31,0A2.59,2.59,0,0,0,67.86,86Zm-2.54.5a1.12,1.12,0,0,1-.32,0,1.1,1.1,0,0,1-.31,0,2.59,2.59,0,0,0-.83-.5,1.46,1.46,0,0,1,0-1.92,2.62,2.62,0,0,0,.83-.51,1.63,1.63,0,0,1,.31,0,1.66,1.66,0,0,1,.32,0,2.62,2.62,0,0,0,.83.51,1.49,1.49,0,0,1,0,1.92A2.59,2.59,0,0,0,65.32,86.54Zm-3.46-3.8a1.46,1.46,0,0,1,0-1.92,2.74,2.74,0,0,0,.82-.5,1.12,1.12,0,0,1,.32,0,1.55,1.55,0,0,1,.31,0,2.4,2.4,0,0,0,.84.51,1.49,1.49,0,0,1,0,1.92,2.59,2.59,0,0,0-.83.5,1.12,1.12,0,0,1-.32,0,1.1,1.1,0,0,1-.31,0A2.59,2.59,0,0,0,61.86,82.74Zm-2.54.5a1.12,1.12,0,0,1-.32,0,1.1,1.1,0,0,1-.31,0,2.59,2.59,0,0,0-.83-.5,1.46,1.46,0,0,1,0-1.92,2.74,2.74,0,0,0,.82-.5,1.12,1.12,0,0,1,.32,0,1.55,1.55,0,0,1,.31,0,2.4,2.4,0,0,0,.84.51,1.49,1.49,0,0,1,0,1.92A2.59,2.59,0,0,0,59.32,83.24Zm-1.46-7.1a1.46,1.46,0,0,1,0-1.92,2.57,2.57,0,0,0,.82-.51,1.66,1.66,0,0,1,.32,0,1.55,1.55,0,0,1,.31,0,2.62,2.62,0,0,0,.83.51,1.46,1.46,0,0,1,0,1.92,2.59,2.59,0,0,0-.83.5,1.06,1.06,0,0,1-.31,0,1.17,1.17,0,0,1-.32,0A2.44,2.44,0,0,0,57.86,76.14Zm2.82-5.73a1.73,1.73,0,0,1,.32,0,1.55,1.55,0,0,1,.31,0,2.62,2.62,0,0,0,.83.51,1.46,1.46,0,0,1,0,1.92,2.59,2.59,0,0,0-.83.5,1.06,1.06,0,0,1-.31,0,1.12,1.12,0,0,1-.32,0,2.55,2.55,0,0,0-.82-.5,1.46,1.46,0,0,1,0-1.92A2.47,2.47,0,0,0,60.68,70.41Zm2-3.3a1.73,1.73,0,0,1,.32,0,1.55,1.55,0,0,1,.31,0,2.62,2.62,0,0,0,.83.51,1.46,1.46,0,0,1,0,1.92,2.59,2.59,0,0,0-.83.5,1.06,1.06,0,0,1-.31,0,1.17,1.17,0,0,1-.32,0,2.44,2.44,0,0,0-.82-.5,1.46,1.46,0,0,1,0-1.92A2.47,2.47,0,0,0,62.68,67.11Zm2-3.3a1.66,1.66,0,0,1,.32,0,1.55,1.55,0,0,1,.31,0,2.62,2.62,0,0,0,.83.51,1.46,1.46,0,0,1,0,1.92,2.59,2.59,0,0,0-.83.5,1.06,1.06,0,0,1-.31,0,1.17,1.17,0,0,1-.32,0,2.44,2.44,0,0,0-.82-.5,1.46,1.46,0,0,1,0-1.92A2.57,2.57,0,0,0,64.68,63.81Zm4,0a1.66,1.66,0,0,1,.32,0,1.55,1.55,0,0,1,.31,0,2.62,2.62,0,0,0,.83.51,1.46,1.46,0,0,1,0,1.92,2.59,2.59,0,0,0-.83.5,1.06,1.06,0,0,1-.31,0,1.17,1.17,0,0,1-.32,0,2.44,2.44,0,0,0-.82-.5,1.46,1.46,0,0,1,0-1.92A2.57,2.57,0,0,0,68.68,63.81Zm2-3.3a1.73,1.73,0,0,1,.32,0,1.55,1.55,0,0,1,.31,0,2.62,2.62,0,0,0,.83.51,1.46,1.46,0,0,1,0,1.92,2.59,2.59,0,0,0-.83.5,1.06,1.06,0,0,1-.31,0,1.12,1.12,0,0,1-.32,0,2.55,2.55,0,0,0-.82-.5,1.46,1.46,0,0,1,0-1.92A2.47,2.47,0,0,0,70.68,60.51Zm4,0a1.73,1.73,0,0,1,.32,0,1.55,1.55,0,0,1,.31,0,2.62,2.62,0,0,0,.83.51,1.46,1.46,0,0,1,0,1.92,2.59,2.59,0,0,0-.83.5,1.06,1.06,0,0,1-.31,0,1.12,1.12,0,0,1-.32,0,2.55,2.55,0,0,0-.82-.5,1.46,1.46,0,0,1,0-1.92A2.47,2.47,0,0,0,74.68,60.51Zm4,0a1.73,1.73,0,0,1,.32,0,1.55,1.55,0,0,1,.31,0,2.62,2.62,0,0,0,.83.51,1.46,1.46,0,0,1,0,1.92,2.59,2.59,0,0,0-.83.5,1.06,1.06,0,0,1-.31,0,1.12,1.12,0,0,1-.32,0,2.55,2.55,0,0,0-.82-.5,1.46,1.46,0,0,1,0-1.92A2.47,2.47,0,0,0,78.68,60.51Zm3.46,3.81a1.46,1.46,0,0,1,0,1.92,2.59,2.59,0,0,0-.83.5,1.06,1.06,0,0,1-.31,0,1.17,1.17,0,0,1-.32,0,2.44,2.44,0,0,0-.82-.5,1.46,1.46,0,0,1,0-1.92,2.57,2.57,0,0,0,.82-.51,1.66,1.66,0,0,1,.32,0,1.55,1.55,0,0,1,.31,0A2.62,2.62,0,0,0,82.14,64.32Zm2.54-.51a1.66,1.66,0,0,1,.32,0,1.55,1.55,0,0,1,.31,0,2.62,2.62,0,0,0,.83.51,1.46,1.46,0,0,1,0,1.92,2.59,2.59,0,0,0-.83.5,1.06,1.06,0,0,1-.31,0,1.17,1.17,0,0,1-.32,0,2.44,2.44,0,0,0-.82-.5,1.46,1.46,0,0,1,0-1.92A2.57,2.57,0,0,0,84.68,63.81Zm3.46,3.81a1.46,1.46,0,0,1,0,1.92,2.59,2.59,0,0,0-.83.5,1.06,1.06,0,0,1-.31,0,1.17,1.17,0,0,1-.32,0,2.44,2.44,0,0,0-.82-.5,1.46,1.46,0,0,1,0-1.92,2.47,2.47,0,0,0,.82-.51,1.73,1.73,0,0,1,.32,0,1.55,1.55,0,0,1,.31,0A2.62,2.62,0,0,0,88.14,67.62Zm2.54-.51a1.73,1.73,0,0,1,.32,0,1.55,1.55,0,0,1,.31,0,2.62,2.62,0,0,0,.83.51,1.46,1.46,0,0,1,0,1.92,2.59,2.59,0,0,0-.83.5,1.06,1.06,0,0,1-.31,0,1.17,1.17,0,0,1-.32,0,2.44,2.44,0,0,0-.82-.5,1.46,1.46,0,0,1,0-1.92A2.47,2.47,0,0,0,90.68,67.11Zm-1.37,6.23a1.06,1.06,0,0,1-.31,0,1.12,1.12,0,0,1-.32,0,2.55,2.55,0,0,0-.82-.5,1.46,1.46,0,0,1,0-1.92,2.47,2.47,0,0,0,.82-.51,1.73,1.73,0,0,1,.32,0,1.55,1.55,0,0,1,.31,0,2.62,2.62,0,0,0,.83.51,1.46,1.46,0,0,1,0,1.92A2.59,2.59,0,0,0,89.31,73.34Zm-2,3.3a1.06,1.06,0,0,1-.31,0,1.17,1.17,0,0,1-.32,0,2.44,2.44,0,0,0-.82-.5,1.46,1.46,0,0,1,0-1.92,2.57,2.57,0,0,0,.82-.51,1.66,1.66,0,0,1,.32,0,1.55,1.55,0,0,1,.31,0,2.62,2.62,0,0,0,.83.51,1.46,1.46,0,0,1,0,1.92A2.59,2.59,0,0,0,87.31,76.64Zm-2,3.3A1.65,1.65,0,0,1,85,80a1.55,1.55,0,0,1-.31,0,2.45,2.45,0,0,0-.83-.51,1.46,1.46,0,0,1,0-1.92,2.47,2.47,0,0,0,.82-.51A1.73,1.73,0,0,1,85,77a1.55,1.55,0,0,1,.31,0,2.62,2.62,0,0,0,.83.51,1.46,1.46,0,0,1,0,1.92A2.74,2.74,0,0,0,85.32,79.94Zm-2,3.3a1.12,1.12,0,0,1-.32,0,1.1,1.1,0,0,1-.31,0,2.59,2.59,0,0,0-.83-.5,1.46,1.46,0,0,1,0-1.92,2.74,2.74,0,0,0,.82-.5,1.12,1.12,0,0,1,.32,0,1.55,1.55,0,0,1,.31,0,2.4,2.4,0,0,0,.84.51,1.49,1.49,0,0,1,0,1.92A2.59,2.59,0,0,0,83.32,83.24Zm-4,0a1.12,1.12,0,0,1-.32,0,1.1,1.1,0,0,1-.31,0,2.59,2.59,0,0,0-.83-.5,1.46,1.46,0,0,1,0-1.92,2.74,2.74,0,0,0,.82-.5,1.12,1.12,0,0,1,.32,0,1.55,1.55,0,0,1,.31,0,2.4,2.4,0,0,0,.84.51,1.49,1.49,0,0,1,0,1.92A2.59,2.59,0,0,0,79.32,83.24Zm-2,3.3a1.12,1.12,0,0,1-.32,0,1.1,1.1,0,0,1-.31,0,2.59,2.59,0,0,0-.83-.5,1.46,1.46,0,0,1,0-1.92,2.62,2.62,0,0,0,.83-.51,1.63,1.63,0,0,1,.31,0,1.66,1.66,0,0,1,.32,0,2.62,2.62,0,0,0,.83.51,1.49,1.49,0,0,1,0,1.92A2.59,2.59,0,0,0,77.32,86.54Zm-4,0a1.12,1.12,0,0,1-.32,0,1.1,1.1,0,0,1-.31,0,2.59,2.59,0,0,0-.83-.5,1.46,1.46,0,0,1,0-1.92,2.62,2.62,0,0,0,.83-.51,1.63,1.63,0,0,1,.31,0,1.66,1.66,0,0,1,.32,0,2.62,2.62,0,0,0,.83.51,1.49,1.49,0,0,1,0,1.92A2.59,2.59,0,0,0,73.32,86.54Zm-3.46-3.8a1.46,1.46,0,0,1,0-1.92,2.74,2.74,0,0,0,.82-.5,1.12,1.12,0,0,1,.32,0,1.55,1.55,0,0,1,.31,0,2.4,2.4,0,0,0,.84.51,1.49,1.49,0,0,1,0,1.92,2.59,2.59,0,0,0-.83.5,1.12,1.12,0,0,1-.32,0,1.1,1.1,0,0,1-.31,0A2.59,2.59,0,0,0,69.86,82.74Zm-2.54.5a1.12,1.12,0,0,1-.32,0,1.1,1.1,0,0,1-.31,0,2.59,2.59,0,0,0-.83-.5,1.46,1.46,0,0,1,0-1.92,2.74,2.74,0,0,0,.82-.5,1.12,1.12,0,0,1,.32,0,1.55,1.55,0,0,1,.31,0,2.4,2.4,0,0,0,.84.51,1.49,1.49,0,0,1,0,1.92A2.59,2.59,0,0,0,67.32,83.24Zm-3.46-3.8a1.46,1.46,0,0,1,0-1.92,2.47,2.47,0,0,0,.82-.51A1.73,1.73,0,0,1,65,77a1.55,1.55,0,0,1,.31,0,2.62,2.62,0,0,0,.83.51,1.46,1.46,0,0,1,0,1.92,2.74,2.74,0,0,0-.82.5A1.65,1.65,0,0,1,65,80a1.55,1.55,0,0,1-.31,0A2.45,2.45,0,0,0,63.86,79.44Zm-2.54.5A1.65,1.65,0,0,1,61,80a1.55,1.55,0,0,1-.31,0,2.45,2.45,0,0,0-.83-.51,1.46,1.46,0,0,1,0-1.92,2.47,2.47,0,0,0,.82-.51A1.73,1.73,0,0,1,61,77a1.55,1.55,0,0,1,.31,0,2.62,2.62,0,0,0,.83.51,1.46,1.46,0,0,1,0,1.92A2.74,2.74,0,0,0,61.32,79.94Zm1.36-6.23a1.66,1.66,0,0,1,.32,0,1.55,1.55,0,0,1,.31,0,2.62,2.62,0,0,0,.83.51,1.46,1.46,0,0,1,0,1.92,2.59,2.59,0,0,0-.83.5,1.06,1.06,0,0,1-.31,0,1.17,1.17,0,0,1-.32,0,2.44,2.44,0,0,0-.82-.5,1.46,1.46,0,0,1,0-1.92A2.57,2.57,0,0,0,62.68,73.71Zm2-3.3a1.73,1.73,0,0,1,.32,0,1.55,1.55,0,0,1,.31,0,2.62,2.62,0,0,0,.83.51,1.46,1.46,0,0,1,0,1.92,2.59,2.59,0,0,0-.83.5,1.06,1.06,0,0,1-.31,0,1.12,1.12,0,0,1-.32,0,2.55,2.55,0,0,0-.82-.5,1.46,1.46,0,0,1,0-1.92A2.47,2.47,0,0,0,64.68,70.41Zm2-3.3a1.73,1.73,0,0,1,.32,0,1.55,1.55,0,0,1,.31,0,2.62,2.62,0,0,0,.83.51,1.46,1.46,0,0,1,0,1.92,2.59,2.59,0,0,0-.83.5,1.06,1.06,0,0,1-.31,0,1.17,1.17,0,0,1-.32,0,2.44,2.44,0,0,0-.82-.5,1.46,1.46,0,0,1,0-1.92A2.47,2.47,0,0,0,66.68,67.11Zm4,0a1.73,1.73,0,0,1,.32,0,1.55,1.55,0,0,1,.31,0,2.62,2.62,0,0,0,.83.51,1.46,1.46,0,0,1,0,1.92,2.59,2.59,0,0,0-.83.5,1.06,1.06,0,0,1-.31,0,1.17,1.17,0,0,1-.32,0,2.44,2.44,0,0,0-.82-.5,1.46,1.46,0,0,1,0-1.92A2.47,2.47,0,0,0,70.68,67.11Zm2-3.3a1.66,1.66,0,0,1,.32,0,1.55,1.55,0,0,1,.31,0,2.62,2.62,0,0,0,.83.51,1.46,1.46,0,0,1,0,1.92,2.59,2.59,0,0,0-.83.5,1.06,1.06,0,0,1-.31,0,1.17,1.17,0,0,1-.32,0,2.44,2.44,0,0,0-.82-.5,1.46,1.46,0,0,1,0-1.92A2.57,2.57,0,0,0,72.68,63.81Zm4,0a1.66,1.66,0,0,1,.32,0,1.55,1.55,0,0,1,.31,0,2.62,2.62,0,0,0,.83.51,1.46,1.46,0,0,1,0,1.92,2.59,2.59,0,0,0-.83.5,1.06,1.06,0,0,1-.31,0,1.17,1.17,0,0,1-.32,0,2.44,2.44,0,0,0-.82-.5,1.46,1.46,0,0,1,0-1.92A2.57,2.57,0,0,0,76.68,63.81Zm3.46,3.81a1.46,1.46,0,0,1,0,1.92,2.59,2.59,0,0,0-.83.5,1.06,1.06,0,0,1-.31,0,1.17,1.17,0,0,1-.32,0,2.44,2.44,0,0,0-.82-.5,1.46,1.46,0,0,1,0-1.92,2.47,2.47,0,0,0,.82-.51,1.73,1.73,0,0,1,.32,0,1.55,1.55,0,0,1,.31,0A2.62,2.62,0,0,0,80.14,67.62Zm2.54-.51a1.73,1.73,0,0,1,.32,0,1.55,1.55,0,0,1,.31,0,2.62,2.62,0,0,0,.83.51,1.46,1.46,0,0,1,0,1.92,2.59,2.59,0,0,0-.83.5,1.06,1.06,0,0,1-.31,0,1.17,1.17,0,0,1-.32,0,2.44,2.44,0,0,0-.82-.5,1.46,1.46,0,0,1,0-1.92A2.47,2.47,0,0,0,82.68,67.11Zm3.46,3.81a1.46,1.46,0,0,1,0,1.92,2.59,2.59,0,0,0-.83.5,1.06,1.06,0,0,1-.31,0,1.12,1.12,0,0,1-.32,0,2.55,2.55,0,0,0-.82-.5,1.46,1.46,0,0,1,0-1.92,2.47,2.47,0,0,0,.82-.51,1.73,1.73,0,0,1,.32,0,1.55,1.55,0,0,1,.31,0A2.62,2.62,0,0,0,86.14,70.92Zm-2.83,5.72a1.06,1.06,0,0,1-.31,0,1.17,1.17,0,0,1-.32,0,2.44,2.44,0,0,0-.82-.5,1.46,1.46,0,0,1,0-1.92,2.57,2.57,0,0,0,.82-.51,1.66,1.66,0,0,1,.32,0,1.55,1.55,0,0,1,.31,0,2.62,2.62,0,0,0,.83.51,1.46,1.46,0,0,1,0,1.92A2.59,2.59,0,0,0,83.31,76.64Zm-2,3.3A1.65,1.65,0,0,1,81,80a1.55,1.55,0,0,1-.31,0,2.45,2.45,0,0,0-.83-.51,1.46,1.46,0,0,1,0-1.92,2.47,2.47,0,0,0,.82-.51A1.73,1.73,0,0,1,81,77a1.55,1.55,0,0,1,.31,0,2.62,2.62,0,0,0,.83.51,1.46,1.46,0,0,1,0,1.92A2.74,2.74,0,0,0,81.32,79.94Zm-4,0A1.65,1.65,0,0,1,77,80a1.55,1.55,0,0,1-.31,0,2.45,2.45,0,0,0-.83-.51,1.46,1.46,0,0,1,0-1.92,2.47,2.47,0,0,0,.82-.51A1.73,1.73,0,0,1,77,77a1.55,1.55,0,0,1,.31,0,2.62,2.62,0,0,0,.83.51,1.46,1.46,0,0,1,0,1.92A2.74,2.74,0,0,0,77.32,79.94Zm-2,3.3a1.12,1.12,0,0,1-.32,0,1.1,1.1,0,0,1-.31,0,2.59,2.59,0,0,0-.83-.5,1.46,1.46,0,0,1,0-1.92,2.74,2.74,0,0,0,.82-.5,1.12,1.12,0,0,1,.32,0,1.55,1.55,0,0,1,.31,0,2.4,2.4,0,0,0,.84.51,1.49,1.49,0,0,1,0,1.92A2.59,2.59,0,0,0,75.32,83.24Zm-3.46-3.8a1.46,1.46,0,0,1,0-1.92,2.47,2.47,0,0,0,.82-.51A1.73,1.73,0,0,1,73,77a1.55,1.55,0,0,1,.31,0,2.62,2.62,0,0,0,.83.51,1.46,1.46,0,0,1,0,1.92,2.74,2.74,0,0,0-.82.5A1.65,1.65,0,0,1,73,80a1.55,1.55,0,0,1-.31,0A2.45,2.45,0,0,0,71.86,79.44Zm-2.54.5A1.65,1.65,0,0,1,69,80a1.55,1.55,0,0,1-.31,0,2.45,2.45,0,0,0-.83-.51,1.46,1.46,0,0,1,0-1.92,2.47,2.47,0,0,0,.82-.51A1.73,1.73,0,0,1,69,77a1.55,1.55,0,0,1,.31,0,2.62,2.62,0,0,0,.83.51,1.46,1.46,0,0,1,0,1.92A2.74,2.74,0,0,0,69.32,79.94Zm-3.46-3.8a1.46,1.46,0,0,1,0-1.92,2.57,2.57,0,0,0,.82-.51,1.66,1.66,0,0,1,.32,0,1.55,1.55,0,0,1,.31,0,2.62,2.62,0,0,0,.83.51,1.46,1.46,0,0,1,0,1.92,2.59,2.59,0,0,0-.83.5,1.06,1.06,0,0,1-.31,0,1.17,1.17,0,0,1-.32,0A2.44,2.44,0,0,0,65.86,76.14Zm2.82-5.73a1.73,1.73,0,0,1,.32,0,1.55,1.55,0,0,1,.31,0,2.62,2.62,0,0,0,.83.51,1.46,1.46,0,0,1,0,1.92,2.59,2.59,0,0,0-.83.5,1.06,1.06,0,0,1-.31,0,1.12,1.12,0,0,1-.32,0,2.55,2.55,0,0,0-.82-.5,1.46,1.46,0,0,1,0-1.92A2.47,2.47,0,0,0,68.68,70.41Zm4,0a1.73,1.73,0,0,1,.32,0,1.55,1.55,0,0,1,.31,0,2.62,2.62,0,0,0,.83.51,1.46,1.46,0,0,1,0,1.92,2.59,2.59,0,0,0-.83.5,1.06,1.06,0,0,1-.31,0,1.12,1.12,0,0,1-.32,0,2.55,2.55,0,0,0-.82-.5,1.46,1.46,0,0,1,0-1.92A2.47,2.47,0,0,0,72.68,70.41Zm2-3.3a1.73,1.73,0,0,1,.32,0,1.55,1.55,0,0,1,.31,0,2.62,2.62,0,0,0,.83.51,1.46,1.46,0,0,1,0,1.92,2.59,2.59,0,0,0-.83.5,1.06,1.06,0,0,1-.31,0,1.17,1.17,0,0,1-.32,0,2.44,2.44,0,0,0-.82-.5,1.46,1.46,0,0,1,0-1.92A2.47,2.47,0,0,0,74.68,67.11Zm3.46,3.81a1.46,1.46,0,0,1,0,1.92,2.59,2.59,0,0,0-.83.5,1.06,1.06,0,0,1-.31,0,1.12,1.12,0,0,1-.32,0,2.55,2.55,0,0,0-.82-.5,1.46,1.46,0,0,1,0-1.92,2.47,2.47,0,0,0,.82-.51,1.73,1.73,0,0,1,.32,0,1.55,1.55,0,0,1,.31,0A2.62,2.62,0,0,0,78.14,70.92Zm2.54-.51a1.73,1.73,0,0,1,.32,0,1.55,1.55,0,0,1,.31,0,2.62,2.62,0,0,0,.83.51,1.46,1.46,0,0,1,0,1.92,2.59,2.59,0,0,0-.83.5,1.06,1.06,0,0,1-.31,0,1.12,1.12,0,0,1-.32,0,2.55,2.55,0,0,0-.82-.5,1.46,1.46,0,0,1,0-1.92A2.47,2.47,0,0,0,80.68,70.41Zm-1.37,6.23a1.06,1.06,0,0,1-.31,0,1.17,1.17,0,0,1-.32,0,2.44,2.44,0,0,0-.82-.5,1.46,1.46,0,0,1,0-1.92,2.57,2.57,0,0,0,.82-.51,1.66,1.66,0,0,1,.32,0,1.55,1.55,0,0,1,.31,0,2.62,2.62,0,0,0,.83.51,1.46,1.46,0,0,1,0,1.92A2.59,2.59,0,0,0,79.31,76.64Zm-4,0a1.06,1.06,0,0,1-.31,0,1.17,1.17,0,0,1-.32,0,2.44,2.44,0,0,0-.82-.5,1.46,1.46,0,0,1,0-1.92,2.57,2.57,0,0,0,.82-.51,1.66,1.66,0,0,1,.32,0,1.55,1.55,0,0,1,.31,0,2.62,2.62,0,0,0,.83.51,1.46,1.46,0,0,1,0,1.92A2.59,2.59,0,0,0,75.31,76.64Zm-4,0a1.06,1.06,0,0,1-.31,0,1.17,1.17,0,0,1-.32,0,2.44,2.44,0,0,0-.82-.5,1.46,1.46,0,0,1,0-1.92,2.57,2.57,0,0,0,.82-.51,1.66,1.66,0,0,1,.32,0,1.55,1.55,0,0,1,.31,0,2.62,2.62,0,0,0,.83.51,1.46,1.46,0,0,1,0,1.92A2.59,2.59,0,0,0,71.31,76.64Zm23.69,0a1.17,1.17,0,0,1-.32,0,2.44,2.44,0,0,0-.82-.5,1.46,1.46,0,0,1,0-1.92,2.57,2.57,0,0,0,.82-.51,1.66,1.66,0,0,1,.32,0,1.55,1.55,0,0,1,.31,0,2.62,2.62,0,0,0,.83.51,1.46,1.46,0,0,1,0,1.92,2.59,2.59,0,0,0-.83.5A1.06,1.06,0,0,1,95,76.68Zm2-3.3a1.12,1.12,0,0,1-.32,0,2.55,2.55,0,0,0-.82-.5,1.46,1.46,0,0,1,0-1.92,2.47,2.47,0,0,0,.82-.51,1.73,1.73,0,0,1,.32,0,1.5,1.5,0,0,1,0,3Zm-.86-3.84a2.59,2.59,0,0,0-.83.5,1.06,1.06,0,0,1-.31,0,1.17,1.17,0,0,1-.32,0,2.44,2.44,0,0,0-.82-.5,1.46,1.46,0,0,1,0-1.92,2.47,2.47,0,0,0,.82-.51,1.73,1.73,0,0,1,.32,0,1.5,1.5,0,0,1,1.5,1.5A1.48,1.48,0,0,1,96.14,69.54Zm-4-6.6a2.59,2.59,0,0,0-.83.5,1.06,1.06,0,0,1-.31,0,1.12,1.12,0,0,1-.32,0,2.55,2.55,0,0,0-.82-.5,1.46,1.46,0,0,1,0-1.92,2.47,2.47,0,0,0,.82-.51,1.73,1.73,0,0,1,.32,0A1.5,1.5,0,0,1,92.5,62,1.48,1.48,0,0,1,92.14,62.94Zm-2-3.3a2.59,2.59,0,0,0-.83.5,1.06,1.06,0,0,1-.31,0,1.17,1.17,0,0,1-.32,0,2.44,2.44,0,0,0-.82-.5,1.48,1.48,0,0,1-.36-1,1.5,1.5,0,0,1,3,0A1.48,1.48,0,0,1,90.14,59.64Zm-4,0a2.59,2.59,0,0,0-.83.5,1.06,1.06,0,0,1-.31,0,1.17,1.17,0,0,1-.32,0,2.44,2.44,0,0,0-.82-.5,1.46,1.46,0,0,1,0-1.92,2.57,2.57,0,0,0,.82-.51,1.66,1.66,0,0,1,.32,0,1.5,1.5,0,0,1,1.5,1.5A1.48,1.48,0,0,1,86.14,59.64Zm-2-3.3a2.59,2.59,0,0,0-.83.5,1.06,1.06,0,0,1-.31,0,1.12,1.12,0,0,1-.32,0,2.55,2.55,0,0,0-.82-.5,1.48,1.48,0,0,1-.36-1,1.5,1.5,0,1,1,3,0A1.48,1.48,0,0,1,84.14,56.34Zm-3.64-1a1.48,1.48,0,0,1-.36,1,2.59,2.59,0,0,0-.83.5,1.06,1.06,0,0,1-.31,0,1.12,1.12,0,0,1-.32,0,2.55,2.55,0,0,0-.82-.5,1.48,1.48,0,0,1-.36-1,1.5,1.5,0,1,1,3,0Zm-4.36,1a2.59,2.59,0,0,0-.83.5,1.06,1.06,0,0,1-.31,0,1.12,1.12,0,0,1-.32,0,2.55,2.55,0,0,0-.82-.5,1.48,1.48,0,0,1-.36-1,1.5,1.5,0,1,1,3,0A1.48,1.48,0,0,1,76.14,56.34Zm-10.83.87a2.62,2.62,0,0,0,.83.51,1.46,1.46,0,0,1,0,1.92,2.59,2.59,0,0,0-.83.5,1.06,1.06,0,0,1-.31,0,1.17,1.17,0,0,1-.32,0,2.44,2.44,0,0,0-.82-.5,1.48,1.48,0,0,1-.36-1,1.5,1.5,0,0,1,1.5-1.5A1.55,1.55,0,0,1,65.31,57.21Zm-12,13.2a2.62,2.62,0,0,0,.83.51,1.46,1.46,0,0,1,0,1.92,2.59,2.59,0,0,0-.83.5,1.06,1.06,0,0,1-.31,0,1.5,1.5,0,0,1,0-3A1.55,1.55,0,0,1,53.31,70.41ZM53,77a1.55,1.55,0,0,1,.31,0,2.62,2.62,0,0,0,.83.51,1.46,1.46,0,0,1,0,1.92,2.74,2.74,0,0,0-.82.5A1.65,1.65,0,0,1,53,80a1.5,1.5,0,0,1,0-3Zm.86,3.84a2.74,2.74,0,0,0,.82-.5,1.12,1.12,0,0,1,.32,0,1.55,1.55,0,0,1,.31,0,2.4,2.4,0,0,0,.84.51,1.49,1.49,0,0,1,0,1.92,2.59,2.59,0,0,0-.83.5,1.12,1.12,0,0,1-.32,0,1.5,1.5,0,0,1-1.5-1.5A1.48,1.48,0,0,1,53.86,80.82Zm4,6.6a2.62,2.62,0,0,0,.83-.51,1.63,1.63,0,0,1,.31,0,1.66,1.66,0,0,1,.32,0,2.62,2.62,0,0,0,.83.51,1.49,1.49,0,0,1,0,1.92,2.59,2.59,0,0,0-.83.5,1.12,1.12,0,0,1-.32,0,1.5,1.5,0,0,1-1.5-1.5A1.48,1.48,0,0,1,57.86,87.42Zm2,3.3a2.62,2.62,0,0,0,.83-.51,1.63,1.63,0,0,1,.31,0,1.66,1.66,0,0,1,.32,0,2.62,2.62,0,0,0,.83.51,1.47,1.47,0,0,1,.35,1,1.5,1.5,0,0,1-3,0A1.48,1.48,0,0,1,59.86,90.72Zm4,0a2.62,2.62,0,0,0,.83-.51,1.63,1.63,0,0,1,.31,0,1.66,1.66,0,0,1,.32,0,2.62,2.62,0,0,0,.83.51,1.49,1.49,0,0,1,0,1.92,2.59,2.59,0,0,0-.83.5,1.12,1.12,0,0,1-.32,0,1.5,1.5,0,0,1-1.5-1.5A1.48,1.48,0,0,1,63.86,90.72Zm2,3.3a2.62,2.62,0,0,0,.83-.51,1.63,1.63,0,0,1,.31,0,1.66,1.66,0,0,1,.32,0,2.62,2.62,0,0,0,.83.51,1.47,1.47,0,0,1,.35,1,1.5,1.5,0,1,1-3,0A1.48,1.48,0,0,1,65.86,94Zm4,0a2.62,2.62,0,0,0,.83-.51,1.63,1.63,0,0,1,.31,0,1.66,1.66,0,0,1,.32,0,2.62,2.62,0,0,0,.83.51,1.47,1.47,0,0,1,.35,1,1.5,1.5,0,1,1-3,0A1.48,1.48,0,0,1,69.86,94Zm4,0a2.62,2.62,0,0,0,.83-.51,1.63,1.63,0,0,1,.31,0,1.66,1.66,0,0,1,.32,0,2.62,2.62,0,0,0,.83.51,1.47,1.47,0,0,1,.35,1,1.5,1.5,0,1,1-3,0A1.48,1.48,0,0,1,73.86,94Zm4,0a2.62,2.62,0,0,0,.83-.51,1.63,1.63,0,0,1,.31,0,1.66,1.66,0,0,1,.32,0,2.62,2.62,0,0,0,.83.51,1.47,1.47,0,0,1,.35,1,1.5,1.5,0,1,1-3,0A1.48,1.48,0,0,1,77.86,94Zm6.83-.88a2.59,2.59,0,0,0-.83-.5,1.46,1.46,0,0,1,0-1.92,2.62,2.62,0,0,0,.83-.51,1.63,1.63,0,0,1,.31,0,1.66,1.66,0,0,1,.32,0,2.62,2.62,0,0,0,.83.51,1.47,1.47,0,0,1,.35,1,1.5,1.5,0,0,1-1.5,1.5A1.1,1.1,0,0,1,84.69,93.14ZM96.69,80a2.45,2.45,0,0,0-.83-.51,1.46,1.46,0,0,1,0-1.92,2.47,2.47,0,0,0,.82-.51A1.73,1.73,0,0,1,97,77a1.5,1.5,0,0,1,0,3A1.55,1.55,0,0,1,96.69,80ZM93.05,49.39a9.71,9.71,0,0,1-3.61,4.33c-.15,0-.29,0-.44,0a4.71,4.71,0,0,0-1.25.16A5,5,0,0,0,83,50.38a4.94,4.94,0,0,0-2,.42h0A8.9,8.9,0,0,1,81.54,45c1.19-2.74,6.76-7.21,11.21-10.28C93.61,39.87,94.22,46.69,93.05,49.39Zm-15.18-6a13.21,13.21,0,0,0-1,7.34A4.89,4.89,0,0,0,75,50.38a5.4,5.4,0,0,0-.91.09,13.64,13.64,0,0,0-.72-7.81,12,12,0,0,0-1.83-3c1.11-2.06,2.35-4,3.31-5.5a69,69,0,0,1,4.21,7.26A10.4,10.4,0,0,0,77.87,43.42Zm-8.22.7a9.56,9.56,0,0,1,.3,6.37,4.4,4.4,0,0,0-1,.31,4.94,4.94,0,0,0-2-.42,5,5,0,0,0-4.76,3.46h0l0-.08a8.92,8.92,0,0,1-3.83-4.59c-1.1-2.77-.32-9.88.65-15.2C63.31,37,68.57,41.38,69.65,44.12ZM49.38,56.94a9.59,9.59,0,0,1,4.69,4.23.14.14,0,0,1,0,.07,5,5,0,0,0-2,3.3,5,5,0,0,0-2,3.3,5,5,0,0,0-1.29,1.41,9.74,9.74,0,0,1-3.76-.8c-2.74-1.19-7.21-6.76-10.28-11.21C39.86,56.38,46.67,55.77,49.38,56.94ZM41.45,71a10.24,10.24,0,0,0,2,1.16,13.82,13.82,0,0,0,4.8,1.12,4.87,4.87,0,0,0,1,1.94,4.49,4.49,0,0,0-.37.49,14,14,0,0,0-6.23,1,11.93,11.93,0,0,0-3,1.83c-2-1.11-4-2.34-5.45-3.29A68.58,68.58,0,0,1,41.45,71Zm2.67,9.38a9.94,9.94,0,0,1,4-.71,5,5,0,0,0,1.92,2.89,5,5,0,0,0,2,3.3,4.94,4.94,0,0,0,1.24,2.6,9.32,9.32,0,0,1-4.15,3.16c-2.77,1.09-9.88.31-15.2-.66C37,86.68,41.37,81.42,44.12,80.34Zm12.81,20.27a10,10,0,0,1,3.16-4,4.53,4.53,0,0,0,.91.09,5.16,5.16,0,0,0,1.25-.16A5,5,0,0,0,67,100a4.94,4.94,0,0,0,2-.42l.1,0a9.17,9.17,0,0,1-.66,5.4c-1.19,2.74-6.76,7.21-11.21,10.28C56.37,110.14,55.76,103.31,56.93,100.61Zm15.18,6a13.25,13.25,0,0,0,1-7A5,5,0,0,0,75,100a4.49,4.49,0,0,0,.83-.09,13.81,13.81,0,0,0,.78,7.45,12.09,12.09,0,0,0,1.87,3c-1.11,2-2.33,4-3.27,5.42A67.8,67.8,0,0,1,71,108.51,11,11,0,0,0,72.11,106.58Zm8.22-.7a9.67,9.67,0,0,1-.42-6A4.9,4.9,0,0,0,81,99.56a5,5,0,0,0,6.76-3,5.17,5.17,0,0,0,.54.11,9.15,9.15,0,0,1,3.27,4.21c1.09,2.77.31,9.88-.66,15.2C86.67,113,81.41,108.62,80.33,105.88ZM100.6,93.06a9.63,9.63,0,0,1-4.57-4A5,5,0,0,0,98,85.82a5,5,0,0,0,2-3.31,5,5,0,0,0,1.51-1.78,9.7,9.7,0,0,1,3.52.82c2.74,1.19,7.21,6.76,10.28,11.21C110.12,93.62,103.3,94.23,100.6,93.06Zm7.93-14a10,10,0,0,0-2-1.16,13.72,13.72,0,0,0-4.89-1.14,4.83,4.83,0,0,0-.93-1.56,5,5,0,0,0,.59-.85c.28,0,.55,0,.82,0a14.1,14.1,0,0,0,5.17-1,12.13,12.13,0,0,0,3-1.87c2.05,1.11,4,2.34,5.47,3.29A67.43,67.43,0,0,1,108.53,79Z"/></svg>