<svg id="expanded" xmlns="http://www.w3.org/2000/svg" viewBox="0 0 150 150"><title>Clover-bold</title><path d="M22.93,103.3a13.49,13.49,0,0,0,6.23,5.64,13.45,13.45,0,0,0,1.77,8.22,11.19,11.19,0,0,0,9.51,5.78,9.24,9.24,0,0,0,4.61-1.22,8.15,8.15,0,0,0,.89-.58c3.32-2.24,5.82-5.87,7.56-10,1.74,4.13,4.24,7.76,7.57,10a7.91,7.91,0,0,0,.88.58,9.27,9.27,0,0,0,4.62,1.22,11.16,11.16,0,0,0,9.5-5.78,13.66,13.66,0,0,0,1.86-7.33,8.65,8.65,0,0,0-.08-.89,13.59,13.59,0,0,0,6.23-5.64C87.1,98,85.7,91.52,81,88.77l-.07,0c-.29-.16-.57-.29-.84-.42a19.9,19.9,0,0,0-8.75-1.81,29.13,29.13,0,0,0-3.68.24A22.26,22.26,0,0,0,72.46,75.2a8.82,8.82,0,0,0-.33-3.62,9,9,0,0,0,3.28.63,7.29,7.29,0,0,0,1-.07l.8-.07c0,.27-.06.54-.08.82s-.05.64-.05,1c0,5.5,4.94,10,11,10a13.39,13.39,0,0,0,8-2.57,13.39,13.39,0,0,0,8,2.57c6.07,0,11-4.48,11-10,0-.37,0-.7-.05-1s0-.55-.08-.82l.8.07a7.29,7.29,0,0,0,1,.07c5.5,0,10-4.94,10-11a13.46,13.46,0,0,0-2.56-8,13.42,13.42,0,0,0,2.56-8c0-6.08-4.48-11-10-11a9,9,0,0,0-1,.06l-.81.07c0-.27.06-.54.08-.81s.05-.64.05-1c0-5.51-4.93-10-11-10a13.39,13.39,0,0,0-8,2.56,13.39,13.39,0,0,0-8-2.56c-6.06,0-11,4.47-11,10,0,.36,0,.68.05,1s0,.54.08.81l-.8-.07a9.12,9.12,0,0,0-1-.06c-5.5,0-10,4.93-10,11a13.36,13.36,0,0,0,2.57,8,13.39,13.39,0,0,0-2.57,8,11.88,11.88,0,0,0,.67,3.93,11.79,11.79,0,0,0-4.59-.92,13.39,13.39,0,0,0-8,2.56,13.39,13.39,0,0,0-8-2.56c-6.06,0-11,4.47-11,10,0,.37,0,.7,0,1,.28,4,2.17,8,4.86,11.54a29.28,29.28,0,0,0-3.69-.24A19.74,19.74,0,0,0,27,88.32c-.25.11-.55.26-.87.44a9.51,9.51,0,0,0-4.56,6.53A11.65,11.65,0,0,0,22.93,103.3Zm50.3-48.6a1.5,1.5,0,0,0,0-3c-1,0-3.3-2.53-3.3-6.51,0-3.59,2.46-6.51,5.48-6.51a5.6,5.6,0,0,1,.65,0,13.7,13.7,0,0,1,4.47,1.16A34.67,34.67,0,0,0,91.62,52.19l-9.11,1,11.15,1.23C90.39,59.64,85.59,64.18,81,66.31a14.23,14.23,0,0,1-5,1.36,5.09,5.09,0,0,1-.56,0c-3,0-5.48-2.92-5.48-6.51C69.93,57.44,72.1,54.7,73.23,54.7ZM94.61,30.31a1.5,1.5,0,1,0,3,0c0-1.13,2.75-3.29,6.51-3.29,3.58,0,6.5,2.46,6.5,5.48a5.71,5.71,0,0,1,0,.64,13.69,13.69,0,0,1-1.16,4.48A34.67,34.67,0,0,0,97.11,48.71l-1-9.11L94.88,50.75C89.66,47.48,85.12,42.68,83,38.09A14,14,0,0,1,81.63,33a3.26,3.26,0,0,1,0-.54c0-3,2.91-5.48,6.5-5.48C91.86,27,94.61,29.18,94.61,30.31ZM119,51.7a1.5,1.5,0,0,0,0,3c1.13,0,3.3,2.74,3.3,6.5,0,3.59-2.46,6.51-5.48,6.51a5.58,5.58,0,0,1-.64,0,13.56,13.56,0,0,1-4.49-1.16,34.54,34.54,0,0,0-11.09-12.3l9.11-1L98.56,52c3.27-5.21,8.06-9.75,12.66-11.88a14,14,0,0,1,5-1.36,3.43,3.43,0,0,1,.56,0c3,0,5.48,2.92,5.48,6.51C122.29,49.17,120,51.7,119,51.7ZM94.61,76.08c0,1-2.53,3.3-6.51,3.3-3.59,0-6.5-2.46-6.5-5.48a5.33,5.33,0,0,1,0-.65,13.75,13.75,0,0,1,1.16-4.49A34.54,34.54,0,0,0,95.1,57.68l1,9.11,1.23-11.14c5.22,3.26,9.76,8.06,11.89,12.65a14,14,0,0,1,1.36,5,4.8,4.8,0,0,1,0,.55c0,3-2.92,5.48-6.5,5.48-4,0-6.51-2.32-6.51-3.3a1.5,1.5,0,0,0-3,0ZM74.07,105a1.5,1.5,0,0,0-2,.55,1.46,1.46,0,0,0-.2.75,1.5,1.5,0,0,0,.75,1.3c1,.56,1.48,4-.4,7.28a7.12,7.12,0,0,1-3.79,3.22,5.08,5.08,0,0,1-4.21-.32c-.16-.1-.32-.2-.47-.31l-.06,0c-4.81-3.2-8.33-11.65-8.63-20.27l10.27,4.51-9-6.64c7.62-4,16.7-5.22,21.95-2.63.17.07.33.16.5.25a5,5,0,0,1,2.37,3.48,7.05,7.05,0,0,1-.88,4.89,9.21,9.21,0,0,1-3.59,3.53A3.12,3.12,0,0,1,74.07,105ZM68,74.75a.22.22,0,0,1,0,.08c-.36,5.76-5.92,13-13.24,17.61L53.5,81.29,52.27,92.44C45,87.86,39.4,80.58,39,74.75a5.25,5.25,0,0,1,0-.56c0-3,2.92-5.48,6.5-5.48,3.76,0,6.51,2.17,6.51,3.3a1.5,1.5,0,0,0,3,0c0-1.13,2.75-3.3,6.51-3.3,3.59,0,6.51,2.46,6.51,5.48A5.27,5.27,0,0,1,68,74.75ZM52,97.18c-.3,8.62-3.82,17.08-8.69,20.32a5.46,5.46,0,0,1-.47.31c-2.61,1.51-6.2.21-8-2.9A9.26,9.26,0,0,1,33.57,110a3.08,3.08,0,0,1,.87-2.41,1.5,1.5,0,0,0,.75-1.3,1.47,1.47,0,0,0-.21-.75,1.49,1.49,0,0,0-2-.55c-1,.56-4.23-.73-6.11-4a7.06,7.06,0,0,1-.89-4.89,5,5,0,0,1,2.38-3.48,4.66,4.66,0,0,1,.5-.25l.08,0c5.17-2.56,14.25-1.38,21.86,2.67l-9,6.64Z"/></svg>