<svg id="expanded" xmlns="http://www.w3.org/2000/svg" viewBox="0 0 150 150"><title>Daisy-bold</title><path d="M20.1,85.63A13.51,13.51,0,0,0,18.73,98a13.33,13.33,0,0,0,9.68,7.83c-.05.3-.1.61-.13.91a13.31,13.31,0,0,0,3.65,11,13.07,13.07,0,0,0,9.33,3.74,15.1,15.1,0,0,0,2.59-.22,15.56,15.56,0,0,0,.79,2.51,13.05,13.05,0,0,0,7,7.17,12.43,12.43,0,0,0,4.81,1,14.09,14.09,0,0,0,7.55-2.29,13,13,0,0,0,21.83,0,14.09,14.09,0,0,0,7.57,2.3,12.59,12.59,0,0,0,4.82-1,13.45,13.45,0,0,0,7.78-9.67,15.69,15.69,0,0,0,2.64.23,12.8,12.8,0,0,0,13.08-13.09,14.79,14.79,0,0,0-.23-2.57,13,13,0,0,0,8.84-19.41c-.15-.28-.31-.54-.47-.8a13,13,0,0,0,0-21.83,13,13,0,0,0-8.33-20.21,14.32,14.32,0,0,0-.92-7.91,12.67,12.67,0,0,0-11.84-7.89,14.31,14.31,0,0,0-2.68.26c-.06-.27-.13-.54-.21-.8a13.29,13.29,0,0,0-7.6-8.79,12.33,12.33,0,0,0-4.81-1A14.08,14.08,0,0,0,86,19.87a12.95,12.95,0,0,0-21.82,0,14.15,14.15,0,0,0-7.58-2.3,12.41,12.41,0,0,0-4.82,1,13.44,13.44,0,0,0-7.79,9.67,15.49,15.49,0,0,0-2.63-.23A12.78,12.78,0,0,0,28.23,41a15.83,15.83,0,0,0,.22,2.57A13,13,0,0,0,19.62,63c.15.27.31.54.47.8a12.95,12.95,0,0,0,0,21.82ZM36.54,39.11l26,26c0,.06-.09.11-.12.16a4.83,4.83,0,0,0-.43.59l-.21.31-.49-.38-.6-.46c-.24-.18-.48-.36-.71-.55l-.63-.48-.64-.5-.7-.55-.52-.4L55.9,61.59l-.42-.34-.79-.63-.51-.4-.75-.62-.52-.42-.75-.61-.5-.4-.75-.62-.46-.38-.74-.61-.46-.39-.69-.57-.46-.39-.69-.57L47,54.29l-.66-.56-.42-.36-.62-.53L45,52.55l-1.55-1.33c-2.12-1.84-3.69-3.25-4.33-3.9A9.11,9.11,0,0,1,36.23,41,5.83,5.83,0,0,1,36.54,39.11Zm19.69,84.81L66.53,99.3c-.08.73-.16,1.44-.23,2.15,0,.13,0,.25,0,.37-.07.7-.14,1.38-.2,2.06,0,.13,0,.27,0,.4-.07.76-.14,1.51-.21,2.24a2.83,2.83,0,0,0,0,.29c-.07.69-.13,1.37-.18,2l0,.2c-.06.72-.12,1.41-.17,2.08v.18c0,.66-.1,1.29-.15,1.9v0c-.81,2.42-1.5,4.35-1.85,5.2C62,121.9,59,124.08,56.23,123.92ZM52,120.74a9.19,9.19,0,0,1,.22-6.93c.22-.54.82-1.85,2.39-5l.11-.13,1.08-1.26.22-.25,1.28-1.51.23-.27,1.2-1.43c.09-.1.16-.2.25-.29L60.4,102l.31-.38,1.07-1.3L52.71,122A6.38,6.38,0,0,1,52,120.74ZM39,102.13c.61-.6,2-1.85,3.75-3.39h0l.56-.49,1.71-1.47.24-.2c.56-.49,1.16-1,1.77-1.51.12-.1.24-.19.36-.3l1.88-1.56.39-.33c.65-.54,1.31-1.09,2-1.64l.38-.31L54.2,89.2l.25-.2,2.23-1.78.11-.1,2.29-1.79.29-.22,2.2-1.7.21-.15c.06.1.13.19.19.28a6.15,6.15,0,0,0,.35.51l.24.31L36.51,110.41C35.62,108,36.54,104.63,39,102.13Zm7-36.31-.5,0-2.15-.2-.43,0-1.84-.16-.35,0-2-.16-.33,0L36.74,65h-.17c-2.81-.93-4.55-1.57-5.25-1.86a9.44,9.44,0,0,1-4.7-4,6.1,6.1,0,0,1-.78-2.44L48.2,66l-.3,0Zm65-18.46c-1.45,1.34-3.06,2.78-4.79,4.29-2.45,2.11-5.51,4.69-8.83,7.4-3,2.39-6,4.82-9.14,7.2l0,0c-.24-.37-.49-.73-.75-1.07l26-25.95C114.18,41.47,113.66,44.6,111,47.36Zm13.21,9.35c-.19,2.55-2.29,5.19-5.48,6.51-.82.34-2.72,1-5.24,1.86h-.09l-1.77.13-.3,0-2,.16-.33,0-1.87.16-.4,0-2.16.2-.52,0-1.91.19-.46,0-.54.06Zm-98.38,36c.22-2.53,2.32-5.14,5.48-6.45.71-.29,2.46-.93,5.23-1.86l.25,0,1.54-.12.41,0,1.94-.16.41,0,1.79-.16.44,0,2.18-.2.44,0,2-.2.35,0,.39,0Zm52-29.35h0l0,0h0l1.4.47.5.2.14.06h0l.13.06c.11.06.23.11.38.2a6.34,6.34,0,0,1,.63.35,11.6,11.6,0,0,1,1.12.77l.27.22c.11.09.22.18.39.34a11.71,11.71,0,0,1,1.28,1.38l.14.16.14.19.07.1a11,11,0,0,1,.82,1.33l.35.71c.07.14.13.29.19.44l.07.16c.12.32.23.65.32,1v.07a10.53,10.53,0,0,1,.32,1.56v0l.08.56c0,.34,0,.68,0,1s0,.61,0,.91l0,.31c0,.26-.06.52-.11.78a1.87,1.87,0,0,1,0,.25c0,.25-.11.49-.17.72s-.08.29-.13.45-.15.47-.24.7c0,.07,0,.14-.07.2l-.46,1c-.07.15-.15.29-.22.42s-.09.16-.15.25a.41.41,0,0,1,0,.09l-.09.14v0l-.36.51v0l0,0-.24.32-.11.13c-.09.12-.18.23-.28.34l-.12.14-.29.32-.41.4c-.25.24-.51.47-.8.7l-.37.28-.15.1-.31.21c-.19.13-.37.24-.55.34l-1.2.61-.16.07,0,0-.48.18h0c-.24.09-.48.17-.73.24l-.22.06-.55.13a12.22,12.22,0,0,1-2.43.27l-1.15-.08,0,0a11.63,11.63,0,0,1-6.18-2.5,11.82,11.82,0,0,1-.91-.8,11.66,11.66,0,0,1-2-2.65l-.39-.78c0-.07-.07-.14-.11-.22l-.13-.31a11.71,11.71,0,0,1-.6-2l0-.11c0-.25-.08-.49-.11-.74v0l-.08-.51c0-.34,0-.69,0-1v0c0-.36,0-.72,0-1.07,0-.06,0-.12,0-.19a11.28,11.28,0,0,1,.43-2.11l0-.12,0,0c.07-.21.15-.41.23-.62l.46-1c.09-.19.19-.38.29-.56a11.44,11.44,0,0,1,1-1.53c.09-.12.19-.23.29-.35a11.71,11.71,0,0,1,3.18-2.59l.6-.3.41-.21.23-.09c.28-.12.57-.22.86-.32l.43-.12.78-.2h0c.29-.06.59-.1.89-.14h0l.39-.06c.3,0,.6,0,.9,0h.31a11.66,11.66,0,0,1,1.46.11h.07l.21,0,.44.08C77.52,63.32,77.67,63.34,77.83,63.39ZM59.41,76.75l0,.2a6.45,6.45,0,0,0,.11.73,1.42,1.42,0,0,1,0,.2s0,.05,0,.07,0,.06,0,.08l-.67.09-.63.09-1.11.14-.54.07-1.29.16-.38,0L51.6,79l-.22,0-1.46.16-.4,0-1.25.14-.49,0-1.14.12-.53,0-1.07.1-.55.06-1,.09-.53,0-1,.09-.49,0-1,.09-.44,0-1,.08-.4,0-1.17.09h-.14l-1.28.1h0c-2.74.19-4.83.3-5.74.3-3.51,0-6.49-1.68-7.61-4ZM50.78,86.82l-.61.5-.44.35L48,89.1l-.18.15c-.54.44-1.07.87-1.58,1.31l-.34.27-1.59,1.34-.29.25-1.33,1.12-.26.23-1.13,1-.38.32c-3.13,1.55-4.45,2.15-5,2.38-3.33,1.38-6.84.92-8.73-.93Zm14.6.37.11.09.09.07.22.15c.22.17.44.32.64.45q-.18.26-.39.51l-.45.59-.61.79-.42.54-.68.87-.37.48-2.11,2.66c-.13.15-.25.31-.37.46l-.7.87-.41.5-.64.79-.45.55-.59.72-.46.56-.55.66-.46.57-.54.64-.45.54-.52.63-.43.51-.49.57-.44.53-.42.49-.47.55-.3.35-1.27,1.48c-1.81,2.09-3.22,3.66-3.87,4.32-2.49,2.48-5.78,3.4-8.23,2.54ZM69.22,114l0-.06v-.26c0-.39.06-.79.09-1.21a1.23,1.23,0,0,1,0-.2c0-.35.05-.7.08-1.06l0-.43c0-.31.05-.61.08-.92s0-.34,0-.5,0-.61.08-.92,0-.38,0-.58.05-.57.08-.86l.06-.69c0-.27.05-.55.08-.83s0-.48.07-.72,0-.58.08-.88,0-.47.07-.71l.09-.9c0-.24.05-.49.08-.74l.09-.89c0-.26,0-.52.08-.78s.07-.59.1-.88,0-.53.08-.79.09-.76.13-1.15L71,95.8c0-.3.07-.61.11-.92s.07-.56.1-.84.07-.57.11-.85.07-.56.1-.84.07-.55.11-.82.08-.58.11-.86,0-.36.08-.54l.2.06H72l.5.08c.18,0,.35,0,.51.07v36.85c-2.36-1.1-4.06-4.11-4.06-7.64C68.93,118.65,69,116.63,69.22,114ZM77,127.16V90.35l.27,0,.45-.07.47-.09.1,0c0,.17,0,.35.07.53s.08.56.11.84.08.56.11.84.07.54.11.81.07.62.11.93l.09.72c.06.48.11,1,.17,1.44a1.49,1.49,0,0,1,0,.21c.07.56.13,1.12.19,1.68l.06.49c0,.39.08.79.13,1.18l.06.61c0,.35.07.69.11,1s0,.44.07.66l.09,1c0,.22,0,.45.07.67l.09.94.06.64.09.93c0,.21,0,.41,0,.62l.09.93c0,.19,0,.37,0,.55,0,.34.06.66.09,1,0,.15,0,.3,0,.45,0,.36,0,.71.08,1l0,.34q0,.6.09,1.17v.16c0,.44.07.87.1,1.28v0c.19,2.72.3,4.81.3,5.72C81,123.06,79.33,126.05,77,127.16Zm7.69-13.91v0c0-.61-.09-1.24-.14-1.9v-.21c-.06-.67-.11-1.36-.17-2.08l0-.21c-.06-.68-.12-1.37-.18-2.08a1.5,1.5,0,0,1,0-.22c-.07-.75-.14-1.51-.21-2.29,0-.11,0-.22,0-.33,0-.44-.08-.88-.13-1.33l8.74,21.29a6.44,6.44,0,0,1-1.94-.71,9.47,9.47,0,0,1-4-4.7C86.19,117.64,85.52,115.75,84.68,113.25Zm11.73,9.63L86.11,97.79l.2.25c.5.61,1,1.22,1.47,1.81l.26.32,1.25,1.53.34.41L91,103.77l.27.32c.38.46.75.91,1.12,1.34l.3.35c.41.5.82,1,1.21,1.43l.28.33.93,1.08c.06.06.12.14.17.2,1.2,2.38,2.07,4.2,2.4,5C99.15,117.36,98.54,121.08,96.41,122.88Zm2.07-16.49-.79-.91-.16-.19-.67-.79-.24-.28-.64-.75c-.1-.11-.2-.23-.29-.35l-.63-.74-.32-.39-.65-.76-.33-.4-.65-.79-.36-.44-.66-.79c-.12-.15-.25-.3-.37-.46s-.44-.53-.66-.81-.26-.31-.39-.48L90,96.21l-.36-.44-.76-.94-.31-.39-1-1.24-.24-.31-.88-1.11-.46-.6c-.2-.24-.39-.49-.58-.74l-.5-.65-.54-.69-.5-.66L83.51,88c.38-.24.75-.5,1.1-.77l26.05,26c-2.45.89-5.78,0-8.29-2.52C101.72,110.07,100.3,108.49,98.48,106.39Zm15,4-26-26,0,0a3.72,3.72,0,0,0,.22-.3c.14-.19.28-.38.4-.58h0l.1-.11.51.39.54.41.87.67c.15.12.3.24.46.35l.94.74.39.31c.9.7,1.79,1.4,2.67,2.11l.25.2,1.06.85.37.3.91.74.44.36.82.67.48.39.76.63.47.39.73.6.47.4.67.56.51.43.56.47.56.47.5.43.53.45.51.44.49.41.34.3.57.49c2.12,1.83,3.69,3.25,4.33,3.9a9.11,9.11,0,0,1,2.85,6.3A5.83,5.83,0,0,1,113.46,110.4ZM109,95.11l-.22-.2L107.71,94l-.37-.32-1.44-1.23-.34-.28c-.44-.38-.9-.76-1.37-1.15l-.32-.27c-.55-.46-1.11-.93-1.69-1.4l-.31-.26-1.43-1.17L122.26,97c-2,1.47-5.17,1.75-8.21.49C113.21,97.16,111.34,96.27,109,95.11ZM99.7,83.25l2,.21.37,0,2.06.21.39,0,2.24.21.31,0,2,.17.25,0,2,.16.25,0,1.8.14h.1c2.44.81,4.37,1.5,5.21,1.85a9.44,9.44,0,0,1,4.7,4,5.88,5.88,0,0,1,.8,3.11Zm20.09-2.42c-.92,0-3-.11-5.78-.31l-1.24-.09-.46,0-.88-.07-.53,0-.84-.07-.64-.06-.79-.06-.71-.06-.79-.08-.72-.06-.83-.08-.73-.07-.83-.08-.8-.08-.79-.08-.83-.08-.81-.09-.83-.08-.9-.1-.75-.08-1.6-.19-.65-.07-1-.12-.77-.1-.9-.11-.74-.1-.94-.12-.7-.09-.62-.09,0-.11c0-.07,0-.15,0-.22l0-.13c0-.12,0-.24.05-.35s0-.35.08-.52h36.84C126.33,79.13,123.33,80.83,119.79,80.83Zm-29.2-8.07,0-.2a5.81,5.81,0,0,0-.09-.58s0-.09,0-.13v0l-.06-.35.67-.09.63-.09,1.09-.14.57-.07,1.19-.15.49-.06,3.39-.39.22,0,1.43-.16.5,0,1.16-.12.54-.06,1.08-.11.59-.06,1-.09.55-.06,1-.09.55,0,1-.09.54,0,1-.09.45,0,1-.08.36,0,1.16-.09h.15l1.28-.09h0c2.73-.19,4.81-.3,5.73-.3,3.51,0,6.49,1.68,7.61,4Zm8.78-10.19c3.45-2.79,6.72-5.52,9.66-8.09l0,0c3.17-1.57,4.48-2.17,5-2.39a9.41,9.41,0,0,1,6.17-.48,6,6,0,0,1,2.5,1.38Zm-14.74-.26c-.34-.26-.69-.51-1-.74,2-2.64,4.11-5.29,6.19-7.91,3.29-4.07,6.45-7.82,8.78-10.51l.1-.11q2.26-2.55,4.56-4.91c2.76-2.11,5.46-2.76,7.5-1.91ZM97.75,35.69h0c-.22.54-.82,1.85-2.38,5-3,3.32-5.83,6.82-8.67,10.38L96.79,27a6,6,0,0,1,1.44,2.57A9.39,9.39,0,0,1,97.75,35.69Zm-14,12.14s0-.1,0-.15c.07-.67.13-1.33.19-2,0-.17,0-.34,0-.51.07-.72.14-1.43.2-2.12,0-.17,0-.34,0-.51,0-.57.1-1.12.14-1.67,0-.17,0-.34,0-.5q.08-1,.15-1.86c0-.18,0-.34,0-.52,0-.48.07-.95.1-1.4l0-.31c.81-2.44,1.5-4.39,1.85-5.22C87.9,27.92,90.5,25.83,93,25.6Zm-3-12.06c0,.38-.05.78-.08,1.19l0,.34c0,.31-.05.62-.07,1,0,.13,0,.27,0,.4,0,.31-.05.63-.07,1,0,.15,0,.31,0,.46l-.09,1c0,.15,0,.3,0,.45l-.09,1.06c0,.15,0,.31,0,.46,0,.36-.07.72-.1,1.09,0,.16,0,.33,0,.49,0,.37-.07.75-.11,1.12,0,.17,0,.33,0,.49l-.12,1.2c0,.15,0,.29,0,.44,0,.44-.09.89-.14,1.33,0,.12,0,.23,0,.34-.06.54-.11,1.09-.18,1.64v.05c-.13,1.16-.26,2.32-.4,3.49a2.51,2.51,0,0,0,0,.27c-.06.47-.11,1-.17,1.42,0,.16,0,.33-.07.49l-.15,1.19c0,.2-.05.39-.08.59s-.06.49-.1.73l-.52-.1-.2,0-.38-.06h0l-.21,0V22.33c2.36,1.1,4.06,4.11,4.06,7.64C81.07,30.9,81,33,80.76,35.77ZM73,22.36V59.17l-.2,0h-.1l-.62.11-.37.07-.09-.66c0-.2,0-.4-.08-.6,0-.37-.1-.74-.14-1.11,0-.18,0-.36-.07-.55-.06-.42-.11-.85-.16-1.28,0-.12,0-.24-.05-.36-.13-1.14-.27-2.28-.39-3.42v0c-.06-.55-.12-1.09-.17-1.64,0-.12,0-.24,0-.36,0-.43-.09-.86-.14-1.29,0-.16,0-.33,0-.5,0-.37-.07-.75-.11-1.12l-.06-.57c0-.35-.07-.69-.1-1,0-.19,0-.38,0-.57,0-.34-.07-.68-.1-1s0-.37,0-.56-.06-.65-.08-1,0-.37,0-.56-.06-.6-.08-.9,0-.39-.05-.58,0-.55-.07-.82,0-.4,0-.59l-.06-.75c0-.2,0-.4,0-.6s0-.31,0-.46,0-.52,0-.76C69.1,32.89,69,30.85,69,30,69,26.46,70.67,23.47,73,22.36Zm-7.7,13.88,0,.29c0,.48.07,1,.11,1.47,0,.17,0,.33,0,.5.05.61.1,1.23.15,1.87,0,.19,0,.38,0,.57,0,.52.09,1.05.14,1.59,0,.2,0,.4,0,.6.07.68.13,1.37.2,2.08l.06.6c0,.59.11,1.18.17,1.78l.06.58.21,2L56.48,25.54a6,6,0,0,1,3,.81,9.47,9.47,0,0,1,4,4.7C63.83,31.91,64.52,33.84,65.31,36.24Zm-3.43,13-1.2-1.46c-.1-.12-.19-.24-.29-.35-.48-.59-1-1.16-1.42-1.71l-.19-.23L57.53,44a2,2,0,0,1-.19-.22c-.44-.52-.87-1-1.29-1.51,0-.07-.11-.13-.16-.19L54.8,40.8l-.09-.11c-1.2-2.39-2.07-4.21-2.4-5-1.29-3.11-1-6.37.59-8.33ZM47.63,38.78c.66.67,2.08,2.24,3.89,4.34l.78.9.21.25c.21.24.42.48.63.74.08.08.15.17.23.26.21.26.43.51.66.78l.26.31.66.79.29.34.67.8.33.39.65.79.37.44.63.77.4.49.64.78.4.5.66.81.4.49.66.83.41.51c.26.32.52.64.77,1l.66.82.66.84.58.75.45.57.6.78.43.56.6.78.28.38-.16.11c-.17.11-.36.23-.51.35l-.43.31-26-26.05a5.88,5.88,0,0,1,2-.33A9.25,9.25,0,0,1,47.63,38.78ZM41,54.41l.18.15,1.15,1,.35.3,1.45,1.23.33.28,1.36,1.15.34.27,1.67,1.4.34.27,1.63,1.34L50,62l1.25,1-24-10a6,6,0,0,1,2.54-1.42A9.52,9.52,0,0,1,36,52C36.77,52.35,38.6,53.22,41,54.41ZM30.21,68.68c.94,0,3,.11,5.59.3l.07,0h.25l1.23.09.5,0,.81.06.61,0,.76.06.69.06.71.06.78.07.7.06.79.07.76.08.76.07.84.08.74.07.86.09.76.08.9.09.73.08,1.09.12.55.06,1.66.19.22,0,1.45.17.52.07L56.7,71l.55.07,1.11.14.58.08.7.1a.36.36,0,0,0,0,.1.09.09,0,0,0,0,0,.5.5,0,0,0,0,.12c0,.18-.08.37-.1.54s-.05.35-.08.52H22.57C23.67,70.38,26.67,68.68,30.21,68.68Z"/></svg>