<svg id="expanded" xmlns="http://www.w3.org/2000/svg" viewBox="0 0 150 150"><title>Tulip-bold</title><path d="M32.33,60l-.9,3.35a44.81,44.81,0,0,0,48.95,56.07l.1.39,5.83-1.55A44.87,44.87,0,0,0,118,63.38l-.9-3.35-3.35-.89A44.11,44.11,0,0,0,108.18,58a33.21,33.21,0,0,0-1-11.93l-.89-3.35-3.35-.9a33.21,33.21,0,0,0-8.62-1.13H94.1A44.83,44.83,0,0,0,76.48,30.46l-1.76-.54L73,30.46A44.84,44.84,0,0,0,55.33,40.73h-.65A33.48,33.48,0,0,0,46,41.85l-3.34.9-.9,3.35a33.53,33.53,0,0,0-1,12,45,45,0,0,0-5.14,1ZM49.54,49.19a25.5,25.5,0,0,1,22.48,6,29.38,29.38,0,0,0-5.76,10.92,40.38,40.38,0,0,0-16.33-4.49A25.36,25.36,0,0,1,49.54,49.19Zm38.19,60.24a41.23,41.23,0,0,0,.64-7.11A40.66,40.66,0,0,0,77.82,75a36.49,36.49,0,0,1,24.62-9.46,37.07,37.07,0,0,1,8.4,1,36.9,36.9,0,0,1-23.11,43ZM99.64,61.62A40.47,40.47,0,0,0,75,72.13a40.45,40.45,0,0,0-5.14-4,25.43,25.43,0,0,1,30.19-19A25.28,25.28,0,0,1,99.64,61.62ZM74.79,52.27a29.39,29.39,0,0,0-12.63-6.76A36.77,36.77,0,0,1,75,38.17a37,37,0,0,1,12.76,7.25A29.52,29.52,0,0,0,74.79,52.27ZM39.17,66.47A36.82,36.82,0,0,1,83.4,110.72,36.82,36.82,0,0,1,39.17,66.47Z"/></svg>