<svg id="expanded" xmlns="http://www.w3.org/2000/svg" viewBox="0 0 150 150"><title>Iris-bold</title><path d="M43.72,91.49a39.79,39.79,0,0,0,12.47-2.1l.45.42a17.94,17.94,0,0,1,1.74,1.76,1.35,1.35,0,0,1-.17.17c-3.6,3.22-10.08,11.84-8.87,21.36,1,7.94,7,12.61,11.93,15.13a19.55,19.55,0,0,0,9.1,2.22c10.31,0,19.82-7.83,25.28-15.16,5.58-7.5,7.95-15.21,6.33-20.62-.37-1.23-.7-2.45-1-3.64-.39-1.44-.78-2.84-1.21-4.19h.66c18,0,20.67-7.12,22.61-12.32.89-2.38,1.47-3.77,2.94-4.68a3.2,3.2,0,0,0,1.16-4.15C127,65.38,123.11,58,112,58c-.51,0-1,0-1.54,0-6.22.38-9.73,3.77-12.83,6.77a24.79,24.79,0,0,1-4.46,3.72c3.18-12.35-.21-20.43-1.47-22.84A20.27,20.27,0,0,0,79.06,35.48c-1-3.75.69-9,1.54-10.84a3.23,3.23,0,0,0-.14-2.92A3.19,3.19,0,0,0,78,20.14a11.49,11.49,0,0,0-1.33-.07,21.77,21.77,0,0,0-12,4.27A29.91,29.91,0,0,0,54.71,36c-6.69,14-.67,28.1,5.58,37.48a16.6,16.6,0,0,0-4.86,3.25c-.25.23-.49.47-.72.7-2-1.79-3.24-4.31-4.53-6.94C48.1,66.28,45.51,61,38.85,61a12.76,12.76,0,0,0-1.61.1c-6.88.82-9.4,3.64-11.42,5.91-1.37,1.53-2.19,2.45-4.48,2.91a3.2,3.2,0,0,0-2.51,3.67C20.64,84.13,30.87,91.49,43.72,91.49ZM54,82.85a5.08,5.08,0,0,0,.53,2c-8.49,2.77-16.77,2.38-23-1.15a16,16,0,0,1-7.73-9.52,12.14,12.14,0,0,0,5.52-4c1.72-1.92,3.34-3.74,8.43-4.35,4.27-.51,5.7,2,8,6.78C47.66,76.28,49.68,80.39,54,82.85Zm68.06-16.08c-1.93,1.73-2.75,3.93-3.55,6.07-1.86,5-3.79,10.1-22.63,9.07a11.27,11.27,0,0,0-7.33-5.35c.3-.63.6-1.28.88-2,5.48-.52,8.69-3.62,11.54-6.38s5.33-5.16,9.78-5.43C117.4,62.38,120.73,65.17,122.09,66.77ZM85.25,76.09a34.49,34.49,0,0,0-7.51.59c6.74-14.93,8.4-26.87,4.53-33a8.34,8.34,0,0,0-4.07-3.43,15.67,15.67,0,0,1,8.53,6.31C92.41,55.22,89,68.84,85.25,76.09Zm-4.08,19c-1.5.45-2.62,2.13-3.79,3.88-.47.71-1,1.47-1.54,2.21-.26-2.12-.93-4.89-2.61-6.07a3.21,3.21,0,0,0-1.41-.56c.52-2.12,1.1-5.63-.25-7.4a2.8,2.8,0,0,0-1-.79A11.42,11.42,0,0,0,71,79a8.29,8.29,0,0,0,1.07-.3c.62.51,1.27,1,2,1.53a1.59,1.59,0,0,0,.92.29,1.47,1.47,0,0,0,.36,0h0l1.58-.34c.42,1.89,1.44,4.87,3.86,6.35A23,23,0,0,0,81.17,95.08ZM65.64,39a33.85,33.85,0,0,1,11.41.83A9,9,0,0,0,75,39.62c-3.11,0-5.41,1-6.84,3a6.45,6.45,0,0,0-.65,1.08A6,6,0,0,1,65.64,39Zm5.62,17.35C69,49,69.68,45.84,70.7,44.46c.8-1.11,2.2-1.64,4.26-1.64a5.12,5.12,0,0,1,4.6,2.53c1.26,2,4.49,10-5.08,30.79a6.52,6.52,0,0,1-1-3A20.22,20.22,0,0,1,74,67.12c.43-2.08,1-4.16,1.47-6.28a16.74,16.74,0,0,0,.46-6.45,16.52,16.52,0,0,1-1.23,6.24c-.71,2-1.53,4-2.24,6.06a21.78,21.78,0,0,0-1.37,6.61v0a12.72,12.72,0,0,1-3.51-8.17,8.74,8.74,0,0,1,3.12-7A1.6,1.6,0,0,0,71.26,56.39Zm3-20.34A44.15,44.15,0,0,0,64,36,1.59,1.59,0,0,0,62.6,37.3a9.47,9.47,0,0,0,4,9.73,25.86,25.86,0,0,0,1.29,9.31,12.22,12.22,0,0,0-3.53,8.87c0,2.8,1,6.65,4.75,10.72a5.36,5.36,0,0,1-1.27-.22C52.68,56.9,56.14,43.41,59.58,37,63.41,29.92,70.22,25.6,75.35,25,74.48,27.56,73.41,32,74.28,36.05ZM65.61,78.33a11.2,11.2,0,0,0,3.13.78c1.49,3.56-.54,7.46-.56,7.5a1.1,1.1,0,0,0,0,1.08,1.06,1.06,0,0,0,1,.49c.44,0,.6.11.71.26.84,1.1.2,4.75-.53,7a1.08,1.08,0,0,0,.28,1.09,1.06,1.06,0,0,0,1.1.23,1.27,1.27,0,0,1,1.27.08c1.38,1,1.89,4.78,1.89,7a1.07,1.07,0,0,0,.65,1,1,1,0,0,0,.42.08,1.1,1.1,0,0,0,.74-.29,26.16,26.16,0,0,0,3.45-4.41c1.55-2.32,2.32-3.31,3.22-3a1.08,1.08,0,0,0,1.15-.29,1.05,1.05,0,0,0,.16-1.18C82,92.16,83,86.08,83,86a1.07,1.07,0,0,0-.63-1.16c-2.06-.88-3-3.49-3.34-5.16l1.07-.16a17.48,17.48,0,0,1,3.66,1.79A13.44,13.44,0,0,1,87,84.47a13.57,13.57,0,0,1,2.55,9,14.37,14.37,0,0,0-1.18-9.85,15.63,15.63,0,0,0-3.16-4.18l-.24-.2c7.9.38,9.32,5.6,11.35,13.07.33,1.21.67,2.45,1,3.72,1.69,5.66-4,16.58-12.19,23.37-4.38,3.63-13,9.06-21.73,4.56-5.62-2.9-8.77-6.77-9.37-11.49-.89-7,3.88-14.11,7.31-17.18a5,5,0,0,0,1.92-3.63c0-2.19-1.72-3.81-3.41-5.38-1.34-1.24-2.72-2.53-2.71-3.66a3.57,3.57,0,0,1,1.45-2.32C62.2,77.1,63.55,77.59,65.61,78.33Z"/></svg>