<svg id="expanded" xmlns="http://www.w3.org/2000/svg" viewBox="0 0 150 150"><title>MorningGlory-bold</title><path d="M134.74,70.59C122.18,59.71,113.51,44.64,109,25.79l-1.51-6.29-6.16,2a85.39,85.39,0,0,1-26.14,4.27,79.77,79.77,0,0,1-25.45-4.24l-6.77-2.28-1.08,7.06c-2.75,18-11.1,32.45-25.52,44.18l-5.69,4.62,5.65,4.66C28.87,90.12,37.49,105.14,42,124.4l1.44,6.25,6.14-1.86A88.65,88.65,0,0,1,75.16,125a94.8,94.8,0,0,1,26.31,3.86l6.3,1.82,1.26-6.43c3.65-18.63,12-33.17,25.62-44.47l5.43-4.52ZM48.38,32.3,65.56,62.75a18.84,18.84,0,0,1-1.11,3.76L50.76,58.6l-2,3.47L62.49,70a19.39,19.39,0,0,1-2.92,3.12H24.74A75.46,75.46,0,0,0,48.38,32.3ZM90.47,73.12a18.64,18.64,0,0,1-2.63-3L101,62.48,99,59l-13.16,7.6a25.36,25.36,0,0,1-1.38-3.91l18.29-31c4.69,16.77,12.62,30.66,23.64,41.38ZM80.86,85.4a28.06,28.06,0,0,0-5.94-.65,27.42,27.42,0,0,0-5.84.64A24.43,24.43,0,0,0,63.3,75.15a21.4,21.4,0,0,0,5.89-10.22,24.71,24.71,0,0,0,11.75-.05,25.55,25.55,0,0,0,5.81,10.21A23.11,23.11,0,0,0,80.86,85.4ZM81,60.71a23.33,23.33,0,0,1-4,.8V46H73v15.5a20.87,20.87,0,0,1-4-.81L51.64,29.94a87.65,87.65,0,0,0,47.57,0ZM59.55,77.12A17.23,17.23,0,0,1,62,79.84L48.52,87.63l2,3.46L64,83.29a26.12,26.12,0,0,1,1.49,4.27L48.15,118.35c-4.62-17-12.5-30.87-23.5-41.23ZM69,89.55a23.85,23.85,0,0,1,3.55-.66v15.19h4V88.81a25.25,25.25,0,0,1,4.48.75l17.3,30.68a100.23,100.23,0,0,0-23.16-2.76,95.18,95.18,0,0,0-23.6,3Zm15.47-2a22.44,22.44,0,0,1,1.15-3.64L98.79,91.5l2-3.46L87.52,80.38a18.39,18.39,0,0,1,2.93-3.26h35.83c-11.93,11.14-19.93,25.32-23.87,42.23Z"/><path d="M75,69.93a5.19,5.19,0,1,0,5.19,5.19A5.2,5.2,0,0,0,75,69.93Zm0,6.38a1.19,1.19,0,1,1,1.19-1.19A1.19,1.19,0,0,1,75,76.31Z"/></svg>