<svg id="expanded" xmlns="http://www.w3.org/2000/svg" viewBox="0 0 150 150"><title>Violet-bold</title><path d="M32.56,62.19a25,25,0,0,1,1.09,8.07c.07,3.77.16,8,4.23,10.85a41.71,41.71,0,0,0,10.71,5C41.18,90.72,41,96.42,41.8,99.92c3.21,13.81,16.38,17.46,22.9,17.46.5,0,1,0,1.41-.07a12.72,12.72,0,0,0,7-3.48,9.7,9.7,0,0,1,1.58-1.18,10.15,10.15,0,0,1,1.58,1.18,12.72,12.72,0,0,0,7,3.48c.43,0,.9.07,1.41.07,6.51,0,19.68-3.65,22.9-17.45.81-3.51.61-9.21-6.8-13.79a41.39,41.39,0,0,0,10.71-5c4.08-2.81,4.16-7.08,4.24-10.85a25,25,0,0,1,1.09-8.07c2.36-6.94-1.91-11.46-5.62-14.59a20.89,20.89,0,0,0-.22-5.21,24.57,24.57,0,0,0-2.65-8.24c-1.74-2.95-3.77-3.57-5.18-3.57a4.92,4.92,0,0,0-2.59.75,13.08,13.08,0,0,1-6.35,1.76c-2.27.2-5,.43-7.4,2.84a13.09,13.09,0,0,0-6.45-1.62,24.58,24.58,0,0,0-4.2.43,17.26,17.26,0,0,1-2.36.28c-.61,0-.76-.12-.83-.18a5.47,5.47,0,0,1-1.74-2.27A5.46,5.46,0,0,0,65.83,29h-.32a21.66,21.66,0,0,1-2.26-.24,37.69,37.69,0,0,0-5.06-.43c-5.62,0-9.78,2.26-12.35,6.73a16.18,16.18,0,0,1-4.7,5.15c-2.3,1.77-4.22,3.7-2.91,7.35C34.51,50.69,30.18,55.22,32.56,62.19Zm34.8-27.66a10,10,0,0,0,3,3.84c2.07,1.63,4.43,1.22,6.71.84s4.87-.83,7.67.71c-1.28.84-2.83,1.71-4.35,2.56C76,44.92,71.23,47.62,69.53,51l-.08-.07a9.57,9.57,0,0,0-2.6-1.63,6.06,6.06,0,0,0-3.41-.4,4.79,4.79,0,0,0-1.22.43,12.08,12.08,0,0,0-4-3.9A23.41,23.41,0,0,0,52,42.65a10.31,10.31,0,0,0-3.67-.32,6.89,6.89,0,0,0-3.65,1.55c-.49.43-1,1-1.24,1.24a10.4,10.4,0,0,1-.95.92c-.32-.86.1-1.21,1.48-2.27a20.45,20.45,0,0,0,5.86-6.48c3.12-5.41,8.78-4.64,12.91-4.08a19.29,19.29,0,0,0,3,.27C66.84,33.46,66.84,33.46,67.36,34.53Zm16.55,78.3c-1.89-.19-3.26-1.34-4.6-2.45s-2.68-2.26-4.47-2.26-3.14,1.15-4.47,2.26-2.7,2.26-4.59,2.45c-3.15.34-16.49-1.13-19.46-13.93-1.63-7,7.23-10.68,12.81-12.27q1.73.12,3.45.09A36.54,36.54,0,0,0,69,86a10.46,10.46,0,0,1-1.65,1.18,33.78,33.78,0,0,1-4.21,1.94,29.5,29.5,0,0,0-4.34,2,6.41,6.41,0,0,0-3,3.61,6.16,6.16,0,0,1,3.26-3.17,28.11,28.11,0,0,1,4.42-1.53A35.75,35.75,0,0,0,68,88.54a13.75,13.75,0,0,0,1.46-.78c0,.14,0,.29.06.44s.06.23.09.34a10.23,10.23,0,0,1-2.32,2.59c-1.24,1.05-2.65,2-4,3a24.14,24.14,0,0,0-3.95,3.28,6.72,6.72,0,0,0-2,4.63,6.48,6.48,0,0,1,2.31-4.28,23,23,0,0,1,4.13-2.78c1.46-.83,3-1.61,4.41-2.61a13.74,13.74,0,0,0,2.19-1.82,9.27,9.27,0,0,0,.86,1.25.76.76,0,0,0,.09.09,4,4,0,0,1-.3.83,12.53,12.53,0,0,1-1.26,1.94,17.67,17.67,0,0,0-1.39,2.06,4.16,4.16,0,0,0-.57,2.39,4,4,0,0,1,1-2.11,15.84,15.84,0,0,1,1.71-1.66,12.88,12.88,0,0,0,1.79-1.82c.1-.13.19-.27.28-.41A11.21,11.21,0,0,0,74,94l.85,7.2L75.7,94a10.07,10.07,0,0,0,1.06-.67l.1.14a12.88,12.88,0,0,0,1.79,1.82A15.84,15.84,0,0,1,80.36,97a4,4,0,0,1,1,2.11,4.16,4.16,0,0,0-.57-2.39,17.67,17.67,0,0,0-1.39-2.06,12.53,12.53,0,0,1-1.26-1.94c-.06-.13-.11-.26-.16-.39a7.44,7.44,0,0,0,1.11-1.48A14,14,0,0,0,81,92.32c1.44,1,3,1.78,4.41,2.61a22.62,22.62,0,0,1,4.13,2.78A6.48,6.48,0,0,1,91.82,102a6.72,6.72,0,0,0-1.95-4.63,24.14,24.14,0,0,0-4-3.28c-1.39-1-2.8-1.9-4-3a11.1,11.1,0,0,1-2.08-2.22,2.1,2.1,0,0,0,.06-.24c0-.25.07-.5.1-.75a12.57,12.57,0,0,0,1.21.62,35.75,35.75,0,0,0,4.57,1.56,28.11,28.11,0,0,1,4.42,1.53,6.16,6.16,0,0,1,3.26,3.17,6.41,6.41,0,0,0-3-3.61,29.5,29.5,0,0,0-4.34-2,33.78,33.78,0,0,1-4.21-1.94,10,10,0,0,1-1.8-1.3c.79.17,1.58.33,2.37.45a37.24,37.24,0,0,0,8.17.28c5.58,1.6,14.4,5.27,12.77,12.26C100.39,111.7,87.06,113.15,83.91,112.83ZM72.5,87.63a4.38,4.38,0,0,1,.19-2.28c0-.11.1-.21.15-.32.4-.13.81-.26,1.21-.41l.63.06H75c.2,0,.43,0,.67-.06s.38.15.58.21.18.06.27.09a6.67,6.67,0,0,1,.23.72,5.63,5.63,0,0,1,.15,2.48,4,4,0,0,1-1.17,2.16,6.41,6.41,0,0,1-.87.72,7.61,7.61,0,0,1-1.28-1.17A5,5,0,0,1,72.5,87.63Zm18.16-4h0a34.13,34.13,0,0,1-7.76-.24,31.2,31.2,0,0,1-3.79-.81l-.45-.14.06,0c1.15-.49,2.27-1,3.39-1.54,2.24-1.06,4.46-2.12,6.71-3.09a44.08,44.08,0,0,1,6.93-2.41,15.22,15.22,0,0,1,3.62-.46,6.43,6.43,0,0,1,3.49.94,6.61,6.61,0,0,0-3.48-1.19,16.06,16.06,0,0,0-3.73.22,44.17,44.17,0,0,0-7.19,2c-2.34.82-4.64,1.74-6.94,2.64-.6.23-1.2.47-1.81.69l3.42-2.3a86.24,86.24,0,0,0,7.7-5.81A34.21,34.21,0,0,0,97.31,65a16,16,0,0,0,2-4.37,10.84,10.84,0,0,0,.28-4.77,12.61,12.61,0,0,1-2.74,8.86,33.61,33.61,0,0,1-6.73,6.64,86.42,86.42,0,0,1-7.89,5.32l-1.13.68c.81-.8,1.62-1.62,2.41-2.46A19.64,19.64,0,0,0,87.06,70a7.59,7.59,0,0,0,.46-5.79,7.3,7.3,0,0,1-.91,5.56,19.12,19.12,0,0,1-3.75,4.34c-1,.88-2,1.72-3,2.56a7.26,7.26,0,0,0,1.44-2.41,8.3,8.3,0,0,0,.41-3.11,12.83,12.83,0,0,0-.45-2.9c-.47-1.84-1.16-3.47-1.69-5.06a11.67,11.67,0,0,1-.82-4.52,4.83,4.83,0,0,1,.17-1,4.44,4.44,0,0,1,.35-1,9.23,9.23,0,0,1,1.25-1.84A9.64,9.64,0,0,1,84,52.06a2.52,2.52,0,0,1,2.51.11,6.41,6.41,0,0,0,2.17,5.35,16.94,16.94,0,0,1,.87-4.88c.25-.67.47-1.3.78-1.94A5.28,5.28,0,0,1,91.63,49a12,12,0,0,1,2-1.32c.73-.43,1.47-.82,2.21-1.17a11.83,11.83,0,0,1,4.47-1.23,4.85,4.85,0,0,1,1.93.37l.42.21.38.29a2.24,2.24,0,0,1,.36.33c.12.13.21.2.4.41a39.26,39.26,0,0,0,4.14,3.65A22.5,22.5,0,0,1,111.45,54a7.16,7.16,0,0,1,1.67,4,4.71,4.71,0,0,1,0,.53l-.05.54c0,.18,0,.36-.06.54l-.15.54-.13.54-.2.66c-.13.45-.29.9-.38,1.36a27.86,27.86,0,0,0-.72,5.53c-.08,1.81,0,3.58-.22,5.17a7.4,7.4,0,0,1-.53,2.12,6,6,0,0,1-.48.86,6.68,6.68,0,0,1-.7.71l-.4.32-.5.34c-.35.22-.7.45-1.07.65-.72.43-1.48.82-2.23,1.19a42.21,42.21,0,0,1-4.72,2A41.44,41.44,0,0,1,90.66,83.63ZM106,44.9a7.15,7.15,0,0,0-5.79-2.62,14.51,14.51,0,0,0-5.68,1.51c-.85.4-1.67.83-2.47,1.3a14.88,14.88,0,0,0-2.41,1.66,12.77,12.77,0,0,0-2.05,2.33l-.14.22a5.1,5.1,0,0,0-1.21-.42,5.89,5.89,0,0,0-3.41.4,9.57,9.57,0,0,0-2.6,1.63,16.17,16.17,0,0,0-2,2.05,11.91,11.91,0,0,0-1.66,2.48A7,7,0,0,0,76,56.93a7.5,7.5,0,0,0-.26,1.55,14.47,14.47,0,0,0,1,5.7c.57,1.71,1.24,3.3,1.63,4.85a9.55,9.55,0,0,1,.35,2.24,5.3,5.3,0,0,1-.25,2A4.42,4.42,0,0,1,77.4,75c-.52.56-1.23,1.21-1.85,2a8,8,0,0,0-.7,1,8,8,0,0,0-.7-1c-.63-.8-1.33-1.45-1.86-2a4.55,4.55,0,0,1-1.07-1.66,5.5,5.5,0,0,1-.25-2A10.1,10.1,0,0,1,71.32,69c.39-1.55,1.06-3.14,1.63-4.85a14.47,14.47,0,0,0,1-5.7,7.5,7.5,0,0,0-.26-1.55,7,7,0,0,0-.54-1.49,10.79,10.79,0,0,0-1.23-1.95c.08-2.84,5.53-5.91,10-8.39,3.46-2,6.46-3.63,7.9-5.5,1.31-1.7,2.71-1.82,5-2a17.72,17.72,0,0,0,8.29-2.4c.19-.12.35-.21.79.22,1.85,1.79,3,7.27,3.1,10.44C106.61,45.53,106.29,45.22,106,44.9ZM42,50.41c.8-.65,1.63-1.32,2.46-2a17.24,17.24,0,0,0,1.25-1.19c.46-.49.68-.72,1-1,1.14-1,2.86-1.11,4.66-.63A20,20,0,0,1,56.61,48a8.42,8.42,0,0,1,2.1,1.69,7.19,7.19,0,0,1,1.17,2.22,17.1,17.1,0,0,1,.79,2.5A27.82,27.82,0,0,1,61,57.52a6,6,0,0,0,1.9-3,6.53,6.53,0,0,0,.25-2.38,2.53,2.53,0,0,1,2.53-.12,9.64,9.64,0,0,1,3.44,2.82,9.37,9.37,0,0,1,1.25,1.84,5.58,5.58,0,0,1,.52,2,11.89,11.89,0,0,1-.82,4.52c-.53,1.59-1.22,3.22-1.69,5.06a12.83,12.83,0,0,0-.45,2.9,8.52,8.52,0,0,0,.42,3.11,7.11,7.11,0,0,0,1.45,2.43c-1-.85-2-1.7-3-2.58a19.12,19.12,0,0,1-3.75-4.34,7.3,7.3,0,0,1-.91-5.56A7.59,7.59,0,0,0,62.63,70a19.64,19.64,0,0,0,3.5,4.82c.78.84,1.6,1.66,2.41,2.46l-1.13-.68a85.06,85.06,0,0,1-7.89-5.32,33.61,33.61,0,0,1-6.73-6.64,12.61,12.61,0,0,1-2.74-8.86,10.84,10.84,0,0,0,.28,4.77A16,16,0,0,0,52.38,65a34.21,34.21,0,0,0,6.51,7.13,86.24,86.24,0,0,0,7.7,5.81L70,80.19c-.61-.22-1.21-.46-1.81-.69-2.3-.9-4.6-1.82-6.94-2.64a44.45,44.45,0,0,0-7.19-2,16.06,16.06,0,0,0-3.73-.22,6.61,6.61,0,0,0-3.48,1.19,6.43,6.43,0,0,1,3.49-.94,15.22,15.22,0,0,1,3.62.46,44.08,44.08,0,0,1,6.93,2.41c2.25,1,4.47,2,6.71,3.09,1.12.52,2.24,1.05,3.39,1.54l.06,0A36,36,0,0,1,50.56,82a39.38,39.38,0,0,1-5.68-2.18c-.92-.42-1.82-.89-2.68-1.39a12.62,12.62,0,0,1-2.29-1.56c-1.12-1.09-1.5-2.78-1.57-4.81s-.05-4.2-.31-6.4a27.21,27.21,0,0,0-.59-3.3L37,60.73c-.1-.43-.23-.86-.32-1.29a6.57,6.57,0,0,1,1.19-4.88A21.38,21.38,0,0,1,42,50.41Z"/></svg>