<svg id="expanded" xmlns="http://www.w3.org/2000/svg" viewBox="0 0 150 150"><title>Sweetpea-bold</title><path d="M75.18,48.05a40.37,40.37,0,0,0-.78,5.51c-.14,1.84-.22,3.68-.22,5.52s.07,3.67.22,5.51a38.87,38.87,0,0,0,.78,5.51A38.87,38.87,0,0,0,76,64.59c.15-1.84.22-3.68.22-5.51S76.1,55.4,76,53.56A40.37,40.37,0,0,0,75.18,48.05Z"/><path d="M111.85,80.17c3.47-7.61,3.82-16.71.89-23.16a14.67,14.67,0,0,0-9.22-8.39c-3.08-.92-5.38-2.94-8-5.27-4.38-3.85-9.84-8.63-20.26-8.63S59.34,39.5,55,43.35c-2.66,2.33-5,4.35-8,5.27A14.65,14.65,0,0,0,37.7,57c-2.93,6.45-2.58,15.55.89,23.17,2.46,5.37,6.78,9.36,12.89,11.89a19.59,19.59,0,0,0-1.71,7.44,9.59,9.59,0,0,0,.3,2.46l0,.12,0,.13A9.29,9.29,0,0,0,61.47,108c1.76,3.88,4.72,7.35,9.09,10.71A8.24,8.24,0,0,1,72.68,121l2.6,4.4L77.85,121a8.06,8.06,0,0,1,2.1-2.33c4.37-3.37,7.33-6.84,9.1-10.71a9.41,9.41,0,0,0,2.61.37,9.22,9.22,0,0,0,8.73-6.11l0-.11,0-.12c.78-2.8,0-6.67-1.42-9.93C105.17,89.52,109.38,85.61,111.85,80.17ZM60,88.19c2.43-1.22,3.73-4,5-6.66s2.36-5,4.29-5.88c1.82,4.44-.34,8.69-2.63,13.17-1.65,3.25-3.37,6.61-3.37,10,0,2.67-1.36,4.5-3.64,4.91a4.74,4.74,0,0,1-5.31-3C53.59,97.71,56.29,90.06,60,88.19Zm6.27,10.65c0-2.69,1.48-5.59,3-8.66.12-.22.23-.44.34-.66a21,21,0,0,1,2.07-.93c-1.69,4.74-2.24,11.16-1,15.38,1,3.18,2.68,4.31,4,4.7l.43.12.43-.12c1.3-.39,3.06-1.54,4-4.78,1.25-4.21.74-10.57-.9-15.27a19.26,19.26,0,0,1,2,.92l.33.64c1.57,3.07,3,6,3,8.66a8.5,8.5,0,0,0,1.56,5.08c-1.24,4.12-3.89,7.6-8.53,11.17a13.1,13.1,0,0,0-2,1.83,13.69,13.69,0,0,0-2-1.83c-4.63-3.56-7.28-7-8.52-11.15A8.47,8.47,0,0,0,66.31,98.84ZM76.76,103a4.64,4.64,0,0,1-1.58,2.57,4.48,4.48,0,0,1-1.53-2.49C72.42,99,73.28,92,75.25,87.94,77.18,91.93,78,98.91,76.76,103Zm10.38-4.19c0-3.41-1.71-6.77-3.36-10-2.29-4.48-4.46-8.73-2.63-13.17,1.93.86,3.08,3.31,4.28,5.88s2.56,5.44,5,6.66c3.76,1.87,6.46,9.52,5.69,12.54a4.74,4.74,0,0,1-5.31,3C88.5,103.34,87.14,101.51,87.14,98.84ZM95.31,88.6a10.68,10.68,0,0,0-3.55-3.1c-1.36-.68-2.34-2.56-3.32-4.64a17,17,0,0,0,3.07-1.09,12.48,12.48,0,0,0,4.2-3.23A11.2,11.2,0,0,0,98,71.94a13.71,13.71,0,0,0,.29-5,13.35,13.35,0,0,1-1,4.74,10.13,10.13,0,0,1-2.69,3.79,10.74,10.74,0,0,1-3.95,2.18,15.83,15.83,0,0,1-3.49.59,15.89,15.89,0,0,0-2.38-3.59,20.42,20.42,0,0,0,5.74-7.89,17,17,0,0,0,1.28-5.62,15,15,0,0,0-.8-5.59,14.55,14.55,0,0,1,0,5.5,15.6,15.6,0,0,1-1.88,5.06,18.85,18.85,0,0,1-3.29,4.19,17.59,17.59,0,0,1-3.49,2.6,6.79,6.79,0,0,0-1.87-.55l-1-.14-.5.9c-2.42,4.37-1.69,8.51-.14,12.35-.62-.21-1.27-.42-2-.62-.17-.25-.35-.48-.52-.7l-1.15-1.36-1.15,1.36c-.17.2-.33.43-.49.66-.73.21-1.41.43-2.05.65,1.55-3.83,2.28-8-.14-12.34l-.5-.9-1,.14a7.18,7.18,0,0,0-1.86.54,16.83,16.83,0,0,1-3.48-2.59,18.85,18.85,0,0,1-3.29-4.19,15.85,15.85,0,0,1-1.89-5.06,14.76,14.76,0,0,1,.06-5.5,15,15,0,0,0-.8,5.59,17,17,0,0,0,1.28,5.62,20.53,20.53,0,0,0,5.72,7.88,16,16,0,0,0-2.38,3.6,15.65,15.65,0,0,1-3.47-.59,10.74,10.74,0,0,1-3.95-2.18,10.13,10.13,0,0,1-2.69-3.79,13.35,13.35,0,0,1-1-4.74,13.71,13.71,0,0,0,.29,5,11.2,11.2,0,0,0,2.32,4.6A12.48,12.48,0,0,0,59,79.77,17.6,17.6,0,0,0,62,80.86c-1,2.08-2,4-3.32,4.64a10.7,10.7,0,0,0-3.57,3.12C49,86.57,44.88,83.2,42.64,78.31c-3-6.49-3.3-14.12-.89-19.44a10.33,10.33,0,0,1,6.42-5.94c4-1.2,6.91-3.74,9.72-6.2,4.21-3.69,8.56-7.51,17.29-7.51S88.26,43,92.47,46.73c2.8,2.46,5.7,5,9.72,6.2a10.29,10.29,0,0,1,6.41,5.94c2.42,5.32,2.07,12.95-.89,19.44C105.5,83.18,101.42,86.54,95.31,88.6Z"/></svg>