<svg id="expanded" xmlns="http://www.w3.org/2000/svg" viewBox="0 0 150 150"><title>Hollyhock-bold</title><path d="M42.12,62.53a21.61,21.61,0,0,0-3.94-.34,10.64,10.64,0,0,0-3.92.67,30.46,30.46,0,0,1,3.86.3c1.26.16,2.53.37,3.79.6,2.53.43,5,1,7.67,1.28A20.6,20.6,0,0,0,46,63.5,27.89,27.89,0,0,0,42.12,62.53Z"/><path d="M38.14,85.49a22.59,22.59,0,0,1-3.88.26,9.66,9.66,0,0,0,3.94.71,19.57,19.57,0,0,0,4-.45A25.34,25.34,0,0,0,46,84.89a19.67,19.67,0,0,0,3.58-1.73c-2.62.46-5.13,1.12-7.66,1.63C40.67,85.07,39.4,85.31,38.14,85.49Z"/><path d="M33.74,75.18a45,45,0,0,0,7.92.62,43.15,43.15,0,0,0,7.92-.62,45,45,0,0,0-7.92-.62A45,45,0,0,0,33.74,75.18Z"/><path d="M62.37,107.76a21.72,21.72,0,0,0-.34,3.95,10.62,10.62,0,0,0,.67,3.91,32.6,32.6,0,0,1,.29-3.86c.17-1.26.38-2.52.61-3.78.43-2.54,1-5,1.28-7.67a20,20,0,0,0-1.54,3.63A27.4,27.4,0,0,0,62.37,107.76Z"/><path d="M85.59,115.62a9.59,9.59,0,0,0,.7-3.94,19,19,0,0,0-.44-4,26.06,26.06,0,0,0-1.12-3.81A20,20,0,0,0,83,100.31c.46,2.62,1.11,5.12,1.63,7.65.28,1.26.52,2.52.7,3.79A22.48,22.48,0,0,1,85.59,115.62Z"/><path d="M74.4,108.22a45,45,0,0,0,.62,7.92,50.83,50.83,0,0,0,0-15.83A43.12,43.12,0,0,0,74.4,108.22Z"/><path d="M107.81,86.28c-2.53-.43-5-1-7.67-1.28a21.42,21.42,0,0,0,3.63,1.55,29.38,29.38,0,0,0,3.83,1,20.8,20.8,0,0,0,4,.35,10.63,10.63,0,0,0,3.91-.68,30.47,30.47,0,0,1-3.86-.29C110.34,86.72,109.07,86.52,107.81,86.28Z"/><path d="M111.59,64.56a22.48,22.48,0,0,1,3.87-.26,9.5,9.5,0,0,0-3.94-.71,19.57,19.57,0,0,0-4,.44,26.59,26.59,0,0,0-3.82,1.13,19.62,19.62,0,0,0-3.58,1.72c2.62-.46,5.13-1.11,7.66-1.63C109.05,65,110.32,64.74,111.59,64.56Z"/><path d="M100.14,74.86a50.1,50.1,0,0,0,15.84,0,50.9,50.9,0,0,0-15.84,0Z"/><path d="M87.35,42.29a21.73,21.73,0,0,0,.35-3.95A10.9,10.9,0,0,0,87,34.42a32.44,32.44,0,0,1-.29,3.86c-.17,1.27-.38,2.53-.61,3.79-.43,2.53-1,5-1.28,7.67a20.29,20.29,0,0,0,1.54-3.63A28.13,28.13,0,0,0,87.35,42.29Z"/><path d="M64.39,38.3a21.57,21.57,0,0,1-.25-3.88,9.52,9.52,0,0,0-.71,3.95,18.86,18.86,0,0,0,.44,4A26.55,26.55,0,0,0,65,46.16a20,20,0,0,0,1.73,3.58c-.46-2.62-1.11-5.12-1.63-7.65C64.82,40.83,64.58,39.57,64.39,38.3Z"/><path d="M75.33,41.82a46,46,0,0,0-.63-7.92,45,45,0,0,0-.62,7.92,45,45,0,0,0,.62,7.92A44.06,44.06,0,0,0,75.33,41.82Z"/><path d="M128.36,69.68a7.26,7.26,0,0,0-4.27-6.13.53.53,0,0,1,0-.12,6.34,6.34,0,0,0,1-7.3c-.35-4.12-2.81-7.48-6.11-8.21a2.78,2.78,0,0,1-.86-.85,7.43,7.43,0,0,0-1.71-5.43,7.09,7.09,0,0,0-5.47-2.8h-.06A6.84,6.84,0,0,0,109,34.13a7.86,7.86,0,0,0-5.59-2.57,5.85,5.85,0,0,0-.73,0,2.6,2.6,0,0,1-.85-.87c-.75-3.3-4.11-5.75-8.22-6.1a7.14,7.14,0,0,0-3-.71,6.12,6.12,0,0,0-4.26,1.72h-.12a7.25,7.25,0,0,0-6.49-4.28,6.39,6.39,0,0,0-5,2.4,6.36,6.36,0,0,0-5-2.4,7.21,7.21,0,0,0-5.92,3.25H61.66a6.17,6.17,0,0,0-2.81-.68,7.07,7.07,0,0,0-3,.71c-4.13.35-7.49,2.8-8.23,6.11a2.63,2.63,0,0,1-.84.86,5.85,5.85,0,0,0-.73,0,7.82,7.82,0,0,0-5.59,2.57,6.82,6.82,0,0,0-1.92,4.69h0A7.07,7.07,0,0,0,33,41.64a7.41,7.41,0,0,0-1.71,5.43,2.8,2.8,0,0,1-.87.85c-3.31.74-5.77,4.12-6.11,8.24a6.53,6.53,0,0,0,0,5.8v2.18a7.21,7.21,0,0,0-3.21,5.54A6.32,6.32,0,0,0,23.44,75a6.31,6.31,0,0,0-2.39,5.36,7.22,7.22,0,0,0,4.27,6.11v.13l-1-.68V88a6.44,6.44,0,0,0,0,5.86c.34,4.13,2.8,7.51,6.1,8.24a2.91,2.91,0,0,1,.87.85,7.46,7.46,0,0,0,1.7,5.43,7.1,7.1,0,0,0,5.48,2.8h0a6.85,6.85,0,0,0,1.92,4.69A7.82,7.82,0,0,0,46,118.49a6,6,0,0,0,.73,0,2.7,2.7,0,0,1,.85.87c.74,3.31,4.12,5.77,8.24,6.1a7,7,0,0,0,3,.71,6,6,0,0,0,2.78-.67h2.19a7.2,7.2,0,0,0,5.9,3.23,6.36,6.36,0,0,0,5-2.4,6.36,6.36,0,0,0,5,2.4,7.23,7.23,0,0,0,5.93-3.26h2.11a6.1,6.1,0,0,0,2.83.69,7.06,7.06,0,0,0,3-.71c4.13-.34,7.51-2.8,8.24-6.11a2.78,2.78,0,0,1,.85-.86,5.74,5.74,0,0,0,.73,0,7.86,7.86,0,0,0,5.59-2.57,6.86,6.86,0,0,0,1.91-4.69H111a7.09,7.09,0,0,0,5.47-2.8,7.5,7.5,0,0,0,1.71-5.43,2.78,2.78,0,0,1,.86-.85c3.31-.74,5.77-4.11,6.11-8.22a6.51,6.51,0,0,0,0-5.82V86.8l-.62.32c-.14-.17-.28-.33-.44-.49a.61.61,0,0,1,0-.14,7.21,7.21,0,0,0,4.26-6.11A6.32,6.32,0,0,0,126,75,6.34,6.34,0,0,0,128.36,69.68Zm-15.65,33.95a2,2,0,0,1-.58,1.35,1.47,1.47,0,0,1-1.07.62,5.51,5.51,0,0,0-4,1.67,5.41,5.41,0,0,0-1.64,4,1.52,1.52,0,0,1-.62,1.08,2.08,2.08,0,0,1-1.36.57,5,5,0,0,0-3.74.9,9.15,9.15,0,0,0-1,.76c.92-5.6-.35-12.24-2.44-18.07a42.85,42.85,0,0,0,14.1,2.75,23.47,23.47,0,0,0,4-.32,10.63,10.63,0,0,0-.77,1A5,5,0,0,0,112.71,103.63ZM81.25,122a1.67,1.67,0,0,1-1.36,1,.83.83,0,0,1-.83-.54,4.76,4.76,0,0,0-8.4,0c-.28.51-.59.56-.83.55a1.67,1.67,0,0,1-1.36-1,5.22,5.22,0,0,0-4-3.11,5.7,5.7,0,0,0-5.14,1.44.47.47,0,0,1-.49.16c-.72-.08-1.91-.92-2.9-2.54-2.75-5-1.84-14.19,2.26-23.51.89-.42,1.76-.85,2.61-1.3.12.26.23.53.36.79.33-.54.67-1.07,1-1.56,1-.58,2-1.18,2.89-1.79,0,.15,0,.29,0,.44a20.27,20.27,0,0,0,.71,4.56,22.28,22.28,0,0,1,2.6-7.42c.55-.45,1.06-.89,1.56-1.34,0,.67-.09,1.34-.11,2-.06,1.43-.06,2.86,0,4.28a15.76,15.76,0,0,0,.6,4.22,15.71,15.71,0,0,1,.33-4.16c.24-1.37.55-2.73.91-4.07s.75-2.67,1.21-3.95c.15-.43.32-.86.48-1.28l1.41,13.46L76.15,85c.39,1.08.75,2.19,1.06,3.32.41,1.47.76,3,1,4.46a16.67,16.67,0,0,1,.36,4.56,16.74,16.74,0,0,0,.57-4.63c0-1.57,0-3.13-.12-4.7a45.41,45.41,0,0,0-.55-4.73c-.05-.28-.11-.57-.17-.85a20.64,20.64,0,0,1,2.72,4.43,23.89,23.89,0,0,1,2.23,8.72,24.74,24.74,0,0,0-.46-9.33,24.26,24.26,0,0,0-1.64-4.77,19.17,19.17,0,0,1,2.78,3,25.93,25.93,0,0,1,4,8,26.24,26.24,0,0,0-.8-4.53,26.76,26.76,0,0,0-.84-2.58,49.65,49.65,0,0,1,4.89,8.46c4.33,9.52,5.33,19,2.57,24-1,1.7-2.23,2.54-3,2.62a.47.47,0,0,1-.49-.16,5.7,5.7,0,0,0-5.14-1.44A5.22,5.22,0,0,0,81.25,122Zm-35-9.15a2,2,0,0,1-1.35-.57,1.47,1.47,0,0,1-.61-1.07,5.65,5.65,0,0,0-5.63-5.63,1.5,1.5,0,0,1-1.07-.62,2,2,0,0,1-.58-1.36,4.88,4.88,0,0,0-.89-3.73,8,8,0,0,0-.76-1,23.94,23.94,0,0,0,3.92.31,43,43,0,0,0,14.15-2.76c-2.1,5.83-3.36,12.46-2.43,18.09a7.65,7.65,0,0,0-1-.78A5,5,0,0,0,46.25,112.87ZM37,46.42a2,2,0,0,1,.58-1.35,1.48,1.48,0,0,1,1.07-.62,5.63,5.63,0,0,0,5.63-5.62,1.47,1.47,0,0,1,.61-1.08,2.08,2.08,0,0,1,1.36-.57,5,5,0,0,0,3.74-.9,7.14,7.14,0,0,0,1-.76c-.92,5.6.35,12.24,2.45,18.07C47.6,51.5,41,50.23,35.34,51.17a9.56,9.56,0,0,0,.78-1A4.92,4.92,0,0,0,37,46.42Zm33.65-18.9a4.76,4.76,0,0,0,8.4,0c.28-.52.6-.57.84-.56a1.7,1.7,0,0,1,1.35,1,5.25,5.25,0,0,0,4,3.13,5.7,5.7,0,0,0,5.14-1.44.49.49,0,0,1,.49-.16c.72.08,1.91.92,2.91,2.54,2.74,5,1.84,14.19-2.27,23.5-.89.42-1.76.85-2.61,1.3-.12-.26-.23-.53-.36-.78-.32.53-.67,1-1,1.55-1,.57-2,1.17-2.9,1.79,0-.14,0-.29,0-.44a20.76,20.76,0,0,0-.7-4.55,22.68,22.68,0,0,1-2.61,7.42c-.54.44-1.06.88-1.56,1.33,0-.67.09-1.34.11-2,.06-1.43.06-2.86,0-4.29a15.74,15.74,0,0,0-.6-4.21,15.63,15.63,0,0,1-.33,4.15c-.24,1.38-.55,2.74-.91,4.08s-.75,2.66-1.21,4c-.15.43-.31.85-.48,1.27L74.86,52.68,73.57,65c-.39-1.08-.75-2.19-1.06-3.32-.4-1.46-.76-3-1-4.45a16.72,16.72,0,0,1-.36-4.57,16.86,16.86,0,0,0-.57,4.64c0,1.56,0,3.13.12,4.7a45,45,0,0,0,.56,4.72c0,.29.1.57.16.86a20.88,20.88,0,0,1-2.72-4.43,23.94,23.94,0,0,1-2.23-8.73,25.7,25.7,0,0,0,2.1,14.11,19.61,19.61,0,0,1-2.78-3,26.27,26.27,0,0,1-4-8,26.13,26.13,0,0,0,.8,4.52,26.76,26.76,0,0,0,.84,2.58,49.35,49.35,0,0,1-4.88-8.46c-4.34-9.52-5.34-19-2.58-24,1-1.7,2.23-2.54,3-2.62a.49.49,0,0,1,.49.16,5.7,5.7,0,0,0,5.14,1.44,5.24,5.24,0,0,0,4-3.12A1.69,1.69,0,0,1,69.82,27,.85.85,0,0,1,70.66,27.52Zm43,22.65a7.8,7.8,0,0,0,.76,1c-5.6-.93-12.24.34-18.08,2.43,2.1-5.81,3.37-12.45,2.43-18.08a7.47,7.47,0,0,0,1,.78,5,5,0,0,0,3.75.9,2.06,2.06,0,0,1,1.35.57,1.52,1.52,0,0,1,.62,1.07,5.63,5.63,0,0,0,5.62,5.63,1.43,1.43,0,0,1,1.07.62,2,2,0,0,1,.58,1.36A5,5,0,0,0,113.61,50.17Zm8.26,31.23a5.25,5.25,0,0,0-3.12,4,5.7,5.7,0,0,0,1.44,5.15.5.5,0,0,1,.16.48c-.08.73-.92,1.92-2.55,2.91-5,2.74-14.19,1.84-23.5-2.26-.42-.89-.86-1.77-1.31-2.61l.8-.37c-.55-.33-1.08-.67-1.58-1-.57-1-1.17-2-1.78-2.89h.45a20.85,20.85,0,0,0,4.56-.7A22.63,22.63,0,0,1,88,81.42c-.44-.55-.88-1.06-1.33-1.56l2,.12c1.44,0,2.86,0,4.29,0a16.24,16.24,0,0,0,4.22-.61A15.71,15.71,0,0,1,93,79c-1.37-.24-2.73-.55-4.07-.91s-2.67-.75-4-1.21c-.43-.15-.86-.31-1.28-.48L97.2,75,84.86,73.73c1.08-.39,2.19-.75,3.32-1.06,1.46-.4,2.95-.76,4.46-1a16.24,16.24,0,0,1,4.56-.37,16.82,16.82,0,0,0-4.64-.57c-1.56,0-3.12,0-4.69.13a42.86,42.86,0,0,0-4.73.55l-.86.16a21.56,21.56,0,0,1,4.43-2.72,24,24,0,0,1,8.73-2.23,25,25,0,0,0-9.33.46,23.66,23.66,0,0,0-4.77,1.65,18.35,18.35,0,0,1,3-2.79,26.27,26.27,0,0,1,8-4,26.24,26.24,0,0,0-4.53.8,25.85,25.85,0,0,0-2.62.86,49,49,0,0,1,8.49-4.91c9.53-4.33,19-5.32,24-2.56,1.7,1,2.54,2.22,2.62,3a.51.51,0,0,1-.17.49,5.67,5.67,0,0,0-1.43,5.13,5.19,5.19,0,0,0,3.11,3.95,1.69,1.69,0,0,1,1,1.35c0,.24,0,.55-.56.84a4.78,4.78,0,0,0,0,8.4c.52.29.57.6.56.84A1.65,1.65,0,0,1,121.87,81.4ZM56,91.37C46.51,95.71,37,96.7,32,94c-1.7-1-2.55-2.23-2.63-3a.51.51,0,0,1,.17-.49A5.73,5.73,0,0,0,31,85.36a5.28,5.28,0,0,0-3.13-4,1.65,1.65,0,0,1-1-1.34c0-.24,0-.55.55-.83A4.9,4.9,0,0,0,29.87,75a5,5,0,0,0-2.5-4.22c-.52-.28-.57-.59-.56-.83a1.67,1.67,0,0,1,1-1.34,5.24,5.24,0,0,0,3.13-4,5.68,5.68,0,0,0-1.45-5.14.5.5,0,0,1-.16-.48c.08-.73.93-1.92,2.55-2.91,5-2.74,14.18-1.84,23.5,2.25.42.9.86,1.77,1.31,2.62-.26.12-.54.23-.79.36.54.33,1.07.68,1.57,1,.57,1,1.17,2,1.78,2.89-.15,0-.3,0-.45,0a20.85,20.85,0,0,0-4.56.71,22.45,22.45,0,0,1,7.45,2.61c.43.54.88,1.06,1.32,1.55-.67-.05-1.35-.08-2-.11-1.43-.06-2.86-.06-4.29,0a16.53,16.53,0,0,0-4.21.6,15.67,15.67,0,0,1,4.15.33c1.37.25,2.73.55,4.08.91s2.66.76,3.95,1.21c.43.15.85.32,1.27.49L52.52,75l12.34,1.29c-1.08.39-2.19.75-3.32,1.06-1.46.41-2.95.76-4.46,1a17,17,0,0,1-4.56.37,17.2,17.2,0,0,0,4.64.56c1.56,0,3.13,0,4.69-.12a45.41,45.41,0,0,0,4.73-.55l.86-.17A21.6,21.6,0,0,1,63,81.23a24,24,0,0,1-8.73,2.22,25.37,25.37,0,0,0,14.1-2.1,19.09,19.09,0,0,1-3,2.78,26,26,0,0,1-8,4,26.27,26.27,0,0,0,4.52-.79c.88-.24,1.74-.53,2.6-.85A48.73,48.73,0,0,1,56,91.37ZM74.09,77.79a2.72,2.72,0,0,1-2-2.62,2.73,2.73,0,0,1,2.72-2.71,2.32,2.32,0,0,1,.68.09,2.7,2.7,0,0,1,2,2.62,2.25,2.25,0,0,1-.08.64A2.69,2.69,0,0,1,74.09,77.79Zm-11,46.61h.1a6.25,6.25,0,0,0,.33.63Zm22.71.64a6.25,6.25,0,0,0,.33-.63h.1Z"/></svg>