<svg id="expanded" xmlns="http://www.w3.org/2000/svg" viewBox="0 0 150 150"><defs><style>.cls-1,.cls-2{fill:none;stroke:#000;stroke-miterlimit:10;}.cls-1{stroke-width:4px;}.cls-2{stroke-width:8px;}</style></defs><title>Yarrow-bold</title><path d="M80.87,36.84a6.56,6.56,0,1,1-3,.74,6.45,6.45,0,0,1,3-.74m0-4A10.62,10.62,0,0,0,76,34,10.56,10.56,0,0,0,80.88,54a10.66,10.66,0,0,0,4.88-1.19,10.56,10.56,0,0,0-4.89-19.93Z"/><path class="cls-1" d="M82.86,37.14a22,22,0,0,0-1.79-6.25c-4.71-10-15-3-10.68,5.56"/><path class="cls-1" d="M77,38.14a24,24,0,0,0-6.57-1.69c-11-.92-10.14,11.5-.54,12"/><path class="cls-1" d="M74.39,43.82l0,0a22,22,0,0,0-4.49,4.62C63.54,57.6,74.78,63,80,54.94"/><path class="cls-1" d="M78.38,49.46A21,21,0,0,0,80,54.94c4.72,10,15,3.05,10.69-5.54"/><path class="cls-1" d="M85.38,48.17a21.65,21.65,0,0,0,5.33,1.23c11,.93,10.14-11.51.53-12"/><path class="cls-1" d="M87.19,41.63a21.27,21.27,0,0,0,4-4.27c6.31-9.1-4.91-14.53-10.17-6.47"/><path d="M74.73,68.85a6.57,6.57,0,1,1-4.16,1.5,6.55,6.55,0,0,1,4.16-1.5m0-4a10.56,10.56,0,1,0,8.16,3.85,10.5,10.5,0,0,0-8.16-3.85Z"/><path class="cls-1" d="M75.37,68.88a22.11,22.11,0,0,0-3-5.75C65.65,54.3,57,63.29,63,70.79"/><path class="cls-1" d="M69.81,71.08A24.07,24.07,0,0,0,63,70.79c-11,1.39-7.53,13.36,2,11.89"/><path class="cls-1" d="M68.48,77.17l0,0A22.45,22.45,0,0,0,65,82.68c-4.29,10.22,7.83,13.2,11.29,4.2"/><path class="cls-1" d="M73.55,81.86a20.54,20.54,0,0,0,2.75,5c6.69,8.86,15.34-.14,9.3-7.64"/><path class="cls-1" d="M80.13,79.15a21.62,21.62,0,0,0,5.47.09c11-1.37,7.54-13.36-2-11.89"/><path class="cls-1" d="M80.54,72.37a21.07,21.07,0,0,0,3.08-5c4.28-10.21-7.81-13.19-11.28-4.22"/><path d="M44.13,81.38A6.55,6.55,0,1,1,40,82.87a6.54,6.54,0,0,1,4.17-1.49m0-4a10.57,10.57,0,1,0,8.16,3.85,10.55,10.55,0,0,0-8.16-3.85Z"/><path class="cls-1" d="M44.77,81.4a21.89,21.89,0,0,0-3-5.74c-6.68-8.83-15.33.16-9.3,7.66"/><path class="cls-1" d="M39.21,83.6a24,24,0,0,0-6.78-.28c-11,1.39-7.53,13.35,2,11.89"/><path class="cls-1" d="M37.88,89.7s0,0-.05,0a21.79,21.79,0,0,0-3.42,5.46c-4.29,10.22,7.83,13.2,11.28,4.2"/><path class="cls-1" d="M43,94.38a21.17,21.17,0,0,0,2.74,5c6.69,8.85,15.35-.14,9.3-7.64"/><path class="cls-1" d="M49.53,91.67a21.59,21.59,0,0,0,5.46.1c11-1.37,7.54-13.36-2-11.89"/><path class="cls-1" d="M49.94,84.9a21.27,21.27,0,0,0,3.08-5c4.28-10.21-7.82-13.2-11.29-4.22"/><path d="M48.09,48.52a6.57,6.57,0,1,1-3.54,1,6.58,6.58,0,0,1,3.54-1m0-4A10.57,10.57,0,1,0,57,49.37a10.56,10.56,0,0,0-8.89-4.85Z"/><path class="cls-1" d="M49.49,48.67a22.15,22.15,0,0,0-2.34-6.06C41.54,33.06,31.9,41,37,49.13"/><path class="cls-1" d="M43.71,50.21A24,24,0,0,0,37,49.13c-11.08.1-9,12.39.58,12"/><path class="cls-1" d="M41.68,56.1l0,0a22.22,22.22,0,0,0-4,5c-5.45,9.65,6.24,14,10.72,5.49"/><path class="cls-1" d="M46.17,61.35a20.89,20.89,0,0,0,2.14,5.31c5.61,9.58,15.25,1.65,10.13-6.5"/><path class="cls-1" d="M53,59.42a21.41,21.41,0,0,0,5.42.74c11.07-.09,9-12.39-.58-12"/><path class="cls-1" d="M54.22,52.75a21.17,21.17,0,0,0,3.64-4.63c5.44-9.64-6.22-14-10.71-5.51"/><path d="M106.56,58a6.57,6.57,0,1,1-3,.75,6.55,6.55,0,0,1,3-.75m0-4a10.57,10.57,0,1,0,4.9,19.92A10.56,10.56,0,0,0,106.56,54Z"/><path class="cls-1" d="M108.52,58.26a21.87,21.87,0,0,0-1.8-6.24c-4.73-10-15-3-10.67,5.59"/><path class="cls-1" d="M102.63,59.27a24.33,24.33,0,0,0-6.58-1.66c-11-.89-10.1,11.53-.5,12"/><path class="cls-1" d="M100.08,65,100,65a22.14,22.14,0,0,0-4.47,4.64c-6.29,9.12,5,14.52,10.19,6.42"/><path class="cls-1" d="M104.08,70.59a20.48,20.48,0,0,0,1.66,5.48c4.74,10,15,3,10.67-5.57"/><path class="cls-1" d="M111.08,69.28a21.14,21.14,0,0,0,5.33,1.22c11,.9,10.11-11.54.5-12"/><path class="cls-1" d="M112.86,62.74a21.56,21.56,0,0,0,4-4.28c6.28-9.12-5-14.52-10.19-6.44"/><path d="M100,90.1a6.57,6.57,0,1,1-3,.75,6.56,6.56,0,0,1,3-.75m0-4A10.57,10.57,0,0,0,90,93.52a10.57,10.57,0,0,0,10.09,13.71,10.57,10.57,0,0,0,0-21.13Z"/><path class="cls-1" d="M102,90.4a22.2,22.2,0,0,0-1.8-6.24c-4.74-10-15-3-10.67,5.59"/><path class="cls-1" d="M96.11,91.41a24.18,24.18,0,0,0-6.57-1.66c-11.05-.89-10.11,11.53-.5,12"/><path class="cls-1" d="M93.56,97.11l-.06,0A21.81,21.81,0,0,0,89,101.79c-6.3,9.12,5,14.52,10.18,6.42"/><path class="cls-1" d="M97.56,102.73a21.36,21.36,0,0,0,1.66,5.48c4.74,10,15,3,10.67-5.57"/><path class="cls-1" d="M104.56,101.42a21.59,21.59,0,0,0,5.33,1.22c11,.9,10.12-11.54.5-12"/><path class="cls-1" d="M106.35,94.88a21.47,21.47,0,0,0,4-4.28c6.28-9.12-5-14.52-10.18-6.44"/><path d="M69.71,100.64a6.57,6.57,0,1,1-3.55,1,6.54,6.54,0,0,1,3.55-1m0-4a10.57,10.57,0,1,0,5.73,19.44,10.56,10.56,0,0,0-5.73-19.44Z"/><path class="cls-1" d="M71.11,100.79a22.33,22.33,0,0,0-2.35-6.06c-5.62-9.55-15.24-1.63-10.13,6.53"/><path class="cls-1" d="M65.33,102.33a24,24,0,0,0-6.7-1.07c-11.08.1-9,12.38.58,12"/><path class="cls-1" d="M63.3,108.22s0,0,0,0a22.22,22.22,0,0,0-4,5c-5.45,9.65,6.24,14,10.72,5.49"/><path class="cls-1" d="M67.79,113.47a20.89,20.89,0,0,0,2.14,5.31c5.62,9.57,15.26,1.64,10.13-6.51"/><path class="cls-1" d="M74.64,111.54a21.41,21.41,0,0,0,5.42.73c11.07-.09,9-12.39-.58-12"/><path class="cls-1" d="M75.83,104.86a21.25,21.25,0,0,0,3.65-4.63c5.44-9.64-6.23-14-10.72-5.5"/><path class="cls-2" d="M125.84,61.47a9.48,9.48,0,0,0-5.45-4.65,8.4,8.4,0,0,0-.07-6.85,7.65,7.65,0,0,0-6.54-4.2,9.45,9.45,0,0,0-6.73,2.41,8.39,8.39,0,0,0-6-3.37H101a8.08,8.08,0,0,0-.81-4.42,9.46,9.46,0,0,0-5.45-4.66,8.39,8.39,0,0,0,0-6.85,7.63,7.63,0,0,0-6.53-4.21,9.49,9.49,0,0,0-6.74,2.38,8.41,8.41,0,0,0-5.93-3.38,7.63,7.63,0,0,0-6.93,3.53,9.45,9.45,0,0,0-1.31,7,8.39,8.39,0,0,0-5.91,3.46,6.91,6.91,0,0,0-.83,1.65,7.68,7.68,0,0,0-6.88-3.59,9.44,9.44,0,0,0-6.49,3,8.19,8.19,0,0,0-6.22-2.82,7.59,7.59,0,0,0-6.57,4.15,9.48,9.48,0,0,0-.67,7.13,8.34,8.34,0,0,0-5.56,4A7.6,7.6,0,0,0,28.42,59a9.43,9.43,0,0,0,5.84,4.14,8.47,8.47,0,0,0,.58,6.64h-.08a7.59,7.59,0,0,0-6,4.89,9.41,9.41,0,0,0,.17,7.16,8.37,8.37,0,0,0-5.06,4.61A7.62,7.62,0,0,0,25,94.09a9.48,9.48,0,0,0,6.29,3.44,8.36,8.36,0,0,0,1.47,6.68,7.49,7.49,0,0,0,6,2.86,8.9,8.9,0,0,0,1.26-.09,9.4,9.4,0,0,0,6.1-3.74,9.68,9.68,0,0,0,2.93,1.7,7.74,7.74,0,0,0,.95,6.15,9.44,9.44,0,0,0,5.84,4.15,8.36,8.36,0,0,0,.69,6.81,7.58,7.58,0,0,0,6.62,3.6h.27a9.44,9.44,0,0,0,6.49-3,8.41,8.41,0,0,0,6.11,2.83h.12a7.64,7.64,0,0,0,6.57-4.15,9.5,9.5,0,0,0,.65-7.14,9.3,9.3,0,0,0,3.76-1.83,7.87,7.87,0,0,0,5,2.12l.53,0a9.56,9.56,0,0,0,6.21-2.43,8.41,8.41,0,0,0,5.95,3.38l.53,0a7.67,7.67,0,0,0,6.38-3.57,9.49,9.49,0,0,0,1.29-7.06,8.38,8.38,0,0,0,5.89-3.46,7.61,7.61,0,0,0,.39-7.76A9.46,9.46,0,0,0,113.87,89a8.62,8.62,0,0,0,.27-6,7.9,7.9,0,0,0,4.13-3.19,9.44,9.44,0,0,0,1.29-7.06,8.38,8.38,0,0,0,5.9-3.46A7.63,7.63,0,0,0,125.84,61.47Z"/></svg>