<svg id="expanded" xmlns="http://www.w3.org/2000/svg" viewBox="0 0 150 150"><title>Anemone-bold</title><path d="M19.57,91.54l0,1,.52.79c4.65,7.07,10,12.1,15.91,15,.12,3.87.88,10.68,4.57,13.37a10.68,10.68,0,0,0,6.36,1.7,29.26,29.26,0,0,0,9.49-1.84c4.22,4.54,10,8.16,17.22,10.79l.9.32.92-.25c8.16-2.24,14.59-5.76,19.16-10.49a30.37,30.37,0,0,0,8.18,1.33,10.07,10.07,0,0,0,6-1.55c3.74-2.74,4.91-9.3,4.76-15.22a43.06,43.06,0,0,0,15.58-13l.54-.68.08-.87a41.65,41.65,0,0,0-4.11-21.56c2.18-3.18,5.64-9.2,4.22-13.58-1.48-4.55-7.73-7.75-13.56-9.39a40.16,40.16,0,0,0-6.94-18.65l-.53-.8-.9-.33a46.88,46.88,0,0,0-16.41-3.3,31.65,31.65,0,0,0-5.32.44c-2.52-3.25-7-8-11.5-8s-9.41,4.59-12.75,9.43a36.06,36.06,0,0,0-6.83-.64,49.07,49.07,0,0,0-13.43,2l-.92.27-.6.74c-5.28,6.61-8.41,13.24-9.34,19.75-3.89,1.39-9.9,4.17-11.3,8.49s1.46,10.35,5,15C21.49,77.25,19.83,83.87,19.57,91.54Zm86.48-59.87a39.27,39.27,0,0,1,6.57,16.46,40.22,40.22,0,0,0-14-.19c-7.07,1.31-9.33,6.39-11.51,11.31-.66,1.47-1.32,3-2.12,4.38a2,2,0,0,0-.56-2.24,1.62,1.62,0,0,0-1.14-.28L85.05,59c3.85-4.43,7.84-9,7.72-14.79-.09-4.61-2.22-10.2-5.18-15C93.05,28.36,99.24,29.17,106.05,31.67Zm5.76,70.76A40.42,40.42,0,0,0,107.66,89c-3.43-6.31-9-6.89-14.32-7.45-1.59-.17-3.2-.34-4.8-.67,1.37-.1,1.81-.81,1.94-1.22a1.59,1.59,0,0,0-.08-1.16c.83.33,1.67.69,2.52,1,4,1.72,8.14,3.47,12.25,3.47a12.79,12.79,0,0,0,4.2-.69c4.35-1.51,9-5.27,12.69-9.57,2.51,4.92,3.65,11.07,3.38,18.31A38.62,38.62,0,0,1,111.81,102.43ZM44.89,90.56c2.64-3.8,7.75-5,13.15-6.22,1.11-.25,2.22-.51,3.31-.79a1.6,1.6,0,0,0,.29.91,1.68,1.68,0,0,0,1.44.67,4.75,4.75,0,0,0,2.21-.69,5.91,5.91,0,0,0-.56,1.37,2.44,2.44,0,0,0,0,1.6l-6,9.43,7-8.54a1.68,1.68,0,0,0,.41.06,2.6,2.6,0,0,0,1.37-.46,5.7,5.7,0,0,0,1.16-1c-.29,1.56-.07,3,1.12,3.44a1.89,1.89,0,0,0,.38.06c.21,1.6.54,3.15.85,4.64,1.09,5.12,2,9.16-1.91,13.23C61,117,47.09,120.69,43.4,118S39.22,98.7,44.89,90.56ZM37.79,104c-4.94-2.51-9.47-6.8-13.5-12.82A38.52,38.52,0,0,1,28.65,74a40.32,40.32,0,0,0,11.24,8.4,12.93,12.93,0,0,0,5.64,1.36c3.85,0,7.12-1.89,10.32-3.74,1.39-.8,2.8-1.61,4.27-2.29a1.94,1.94,0,0,0-.84,2.13,1.56,1.56,0,0,0,.74.89c-.87.22-1.75.42-2.65.63-5.72,1.31-11.64,2.67-14.95,7.43C39.79,92.63,38.23,98.41,37.79,104Zm32-36.11a1.77,1.77,0,0,0,.65-1.66.91.91,0,0,0,.16.11,14.51,14.51,0,0,1,1,3.56,9.8,9.8,0,0,1-2.66-1.73A1.61,1.61,0,0,0,69.77,67.93Zm14,5.61c-.38,0-.77-.06-1.15-.07l1.2-.47.43.14A2.37,2.37,0,0,0,83.77,73.54Zm-4.5,9.65a2.45,2.45,0,0,0-.54-.35c-.08-.38-.18-.75-.29-1.11l.83,1A3.36,3.36,0,0,0,79.27,83.19Zm-13.42-10,.2-.11.21.09Zm2.75,8.24a2.49,2.49,0,0,0-.44.14,2,2,0,0,0,.16-.62c.34-.19.66-.4,1-.62Zm2.09,1c0,.13-.07.27-.1.4,0-.08,0-.15,0-.22ZM81,81.23l-.12-.18.35.22ZM83,70.7a1.86,1.86,0,0,0-.1.2l-.22,0Zm-16.75-.22h.17a2.09,2.09,0,0,0,.46,0c.29.26.59.5.9.74l-1.27-.33A1.94,1.94,0,0,0,66.29,70.48Zm.52,7a1.76,1.76,0,0,0-1.38-1.13,1.22,1.22,0,0,0,.19-.12,14.77,14.77,0,0,1,3.67.13,9.68,9.68,0,0,1-2.47,2A1.55,1.55,0,0,0,66.81,77.45Zm6.64,6.72a1.17,1.17,0,0,0-.06-.2,14.94,14.94,0,0,1,1.27-3.47,9.68,9.68,0,0,1,1.13,3,1.49,1.49,0,0,0-.84-.26A1.76,1.76,0,0,0,73.45,84.17Zm10-5.2-.23,0a14.47,14.47,0,0,1-2.89-2.26,9.9,9.9,0,0,1,3.18-.16,1.48,1.48,0,0,0-.51.71A1.78,1.78,0,0,0,83.4,79ZM79.74,67.8a1.61,1.61,0,0,0,.94.29l.3,0a2.47,2.47,0,0,0,.55-.17c0,.07-.06.14-.08.2a14.48,14.48,0,0,1-3.06,2.06,10.3,10.3,0,0,1,.82-3.06A1.64,1.64,0,0,0,79.74,67.8Zm-3.5-2.52a2.78,2.78,0,0,0,.23.6c-.15.35-.29.7-.42,1.06L76,65.64A2.42,2.42,0,0,0,76.24,65.28Zm-2.54.57v.22l-.15-.38Zm-2.32,44.5c4.94-5.21,3.79-10.65,2.67-15.91-.34-1.58-.67-3.17-.86-4.79.36.87.93,1.48,1.76,1.48A1.6,1.6,0,0,0,76,90.69c-.07.89-.15,1.8-.23,2.72-.52,5.85-1,11.9,2.45,16.51,2.78,3.67,7.79,7,13,9.11-3.9,3.92-9.38,6.9-16.36,8.87a38.61,38.61,0,0,1-15-9.45A40.16,40.16,0,0,0,71.38,110.35Zm9.27-2.24c-2.8-3.69-2.34-8.91-1.85-14.43.1-1.13.2-2.27.27-3.4a1.45,1.45,0,0,0,.48.09,1.59,1.59,0,0,0,.47-.08c.41-.13,1.13-.57,1.23-2a6.3,6.3,0,0,0-.12-1.52,6.08,6.08,0,0,0,1.13,1,2.65,2.65,0,0,0,1.38.46l.15,0,7.12,8.63L85,87.5a2.3,2.3,0,0,0,.17-1.82,6.22,6.22,0,0,0-.58-1.4,4.72,4.72,0,0,0,2.18.67,1.68,1.68,0,0,0,1.44-.67,1.62,1.62,0,0,0,.17-.35c1.59.3,3.16.47,4.68.63,5.2.55,9.31,1,12,5.9,5.72,10.53,5,24.86,1.27,27.55S86.64,116,80.65,108.11Zm27.74-28.58c-4.38,1.52-9.2-.54-14.3-2.71-1-.44-2.09-.89-3.14-1.3a1.5,1.5,0,0,0,.3-.9c0-1.27-1.37-1.94-3-2.14a5.8,5.8,0,0,0,1.25-.78,2.45,2.45,0,0,0,.9-1.31L101,66.23,90.13,69c-.62-.74-1.88-.86-3.2-.6a6.08,6.08,0,0,0,1-1.13A1.94,1.94,0,0,0,88.05,65a1.41,1.41,0,0,0-.27-.29c.77-1.41,1.42-2.85,2-4.24,2.12-4.78,3.8-8.56,9.32-9.58,11.78-2.19,25.18,3,26.59,7.3S117.75,76.27,108.39,79.53ZM89.78,44.31c.09,4.63-3.35,8.58-7,12.76-.75.85-1.49,1.71-2.21,2.58a1.63,1.63,0,0,0-.77-.56,2,2,0,0,0-2.15.87,6.61,6.61,0,0,0-.8,1.29,3.63,3.63,0,0,0-1.32-2.69l-.69-11.4-.69,11.28c-.9.35-1.39,1.52-1.56,2.85A5.64,5.64,0,0,0,71.82,60c-.9-1.07-1.73-1-2.15-.87a1.23,1.23,0,0,0-.35.17c-1.11-1.17-2.28-2.23-3.41-3.25-3.89-3.5-7-6.26-6.23-11.82,1.56-11.88,10.6-23,15.16-23S89.57,34.4,89.78,44.31Zm-33.07-.44c-.94,7.12,3.2,10.84,7.2,14.44,1.19,1.08,2.4,2.17,3.5,3.37a2,2,0,0,0-2.3-.16,1.62,1.62,0,0,0-.61,1c-.48-.76-1-1.54-1.42-2.34-3-5-6.14-10.24-11.68-11.92-4.41-1.33-10.4-1-15.9.29.87-5.45,3.56-11.09,8-16.79a38.55,38.55,0,0,1,17.68-1.17A40.27,40.27,0,0,0,56.71,43.87ZM24,58.19c1.41-4.31,17.08-9.93,26.57-7.06,4.43,1.34,7.12,5.83,10,10.59.58,1,1.16,1.94,1.77,2.9a1.5,1.5,0,0,0-.77.55c-.74,1,0,2.38,1.14,3.47a5.87,5.87,0,0,0-1.47-.11,2.55,2.55,0,0,0-1.51.54L48.86,66.28l10.28,4.06a2.26,2.26,0,0,0,.94,1.57,6.17,6.17,0,0,0,1.29.8c-1.58.2-2.93.87-2.93,2.13a1.67,1.67,0,0,0,.06.38c-1.45.69-2.83,1.48-4.15,2.24-4.53,2.62-8.11,4.69-13.17,2.27C30.37,74.58,22.55,62.54,24,58.19Z"/></svg>