<svg id="expanded" xmlns="http://www.w3.org/2000/svg" viewBox="0 0 150 150"><title>Zinnia-bold</title><path d="M20.87,86.43A11.41,11.41,0,0,0,28.11,96a14.66,14.66,0,0,0,.17,7.89,11.73,11.73,0,0,0,11.29,8.41h0a15.07,15.07,0,0,0,1.69,5,12.11,12.11,0,0,0,10.62,6.6,11.61,11.61,0,0,0,4.62-.94,14.8,14.8,0,0,0,1.38,1.94,13.17,13.17,0,0,0,10,4.92,11.41,11.41,0,0,0,8.27-3.51,14.59,14.59,0,0,0,8.5,2.91,11.63,11.63,0,0,0,9.66-4.91,12.08,12.08,0,0,0,1.3-2.38,15.61,15.61,0,0,0,3.67.44A12.39,12.39,0,0,0,111,115.23a11.81,11.81,0,0,0,1-4.85c5.67-.85,10.16-4.66,11.3-9.83a11.68,11.68,0,0,0-.68-7,13.69,13.69,0,0,0,6.87-11.22,11.57,11.57,0,0,0-3.5-8.5,14.27,14.27,0,0,0,2.84-9.71,11.57,11.57,0,0,0-7.27-9.74,14.67,14.67,0,0,0-.11-7.72,11.72,11.72,0,0,0-11.35-8.59H110a14.91,14.91,0,0,0-1.57-4.82,12.15,12.15,0,0,0-10.72-6.77,11.78,11.78,0,0,0-4.61.94,15.17,15.17,0,0,0-1.28-1.81,13.16,13.16,0,0,0-10.11-5h0A11.48,11.48,0,0,0,73.45,24,14.65,14.65,0,0,0,65,21.15h0a11.64,11.64,0,0,0-9.67,4.91A12.08,12.08,0,0,0,54,28.44,15.55,15.55,0,0,0,50.32,28a12.38,12.38,0,0,0-11.63,7.11,11.65,11.65,0,0,0-1,4.87c-5.63.86-10.11,4.63-11.28,9.76a11.66,11.66,0,0,0,.67,7.11,13.73,13.73,0,0,0-6.87,11.09,11.54,11.54,0,0,0,3.5,8.6A14.21,14.21,0,0,0,20.87,86.43ZM80.38,28.89A4.32,4.32,0,0,1,85.23,30c2.08,2,3.52,5.89,1.63,11.22-1.78.27-3.77,1.46-5.56,3.84A12.88,12.88,0,0,0,80.22,42,6.26,6.26,0,0,0,77,38.89C76.82,33.72,78,30,80.38,28.89Zm21.36,8.48c1.17,2.6,1,6.79-2.79,11-1.75-.44-4-.09-6.61,1.42.63-3.64-.2-6-1.57-7.35,1.78-4.86,4.31-7.8,6.92-8A4.36,4.36,0,0,1,101.74,37.37ZM69.61,121.49a4.36,4.36,0,0,1-4.86-1.13c-2.07-2-3.51-5.89-1.63-11.23,1.79-.26,3.77-1.45,5.56-3.83a12.46,12.46,0,0,0,1.09,3.09A6.28,6.28,0,0,0,73,111.48C73.17,116.65,72,120.34,69.61,121.49ZM48.25,113c-1.18-2.6-1-6.8,2.8-11a5.74,5.74,0,0,0,1.47.2,10.2,10.2,0,0,0,5.12-1.61c-.62,3.64.21,6,1.58,7.37-1.78,4.85-4.31,7.79-6.92,8A4.34,4.34,0,0,1,48.25,113ZM29.34,83c1-2.66,4.1-5.5,9.74-5.8.93,1.55,2.79,2.93,5.67,3.67-2.38,1.67-3.78,3.58-4,5.57a3.78,3.78,0,0,0,0,.75c-4.69,2.17-8.56,2.46-10.51.73A4.36,4.36,0,0,1,29.34,83ZM75.41,42.57c.28,0,.78.33,1.26,1.26a11.52,11.52,0,0,1,1.06,4.35,5,5,0,0,0-1.52.37,5.11,5.11,0,0,0-1.78,1.27A7,7,0,0,0,73,49l-.24-.08C73,44.42,74.67,42.57,75.41,42.57Zm22.94,9.84c.5.5.19,2.63-2.32,5.61a5.57,5.57,0,0,0-1.34-.81,5.07,5.07,0,0,0-2.16-.36,6.82,6.82,0,0,0-.44-1.6c0-.07-.08-.14-.11-.22C95.33,52,97.83,51.9,98.35,52.41ZM74.58,107.8c-.28,0-.78-.33-1.27-1.26a11.73,11.73,0,0,1-1.06-4.36,5,5,0,0,0,1.53-.36,5.07,5.07,0,0,0,1.78-1.26,7.16,7.16,0,0,0,1.44.81l.24.08C77,106,75.31,107.8,74.58,107.8ZM51.63,98c-.49-.5-.19-2.63,2.33-5.61a5,5,0,0,0,3.24,1.18h.25a6.86,6.86,0,0,0,.45,1.6,1.51,1.51,0,0,0,.11.22C54.66,98.36,52.16,98.48,51.63,98ZM52,72.42a2.68,2.68,0,0,1,.83-2.58,2.36,2.36,0,0,1,1.75-.77c.25.12.51.24.78.35l.12-.29a8.29,8.29,0,0,0,3,2.77,12,12,0,0,0-2.33.59,5.33,5.33,0,0,0-1.51.85v-.15a7.61,7.61,0,0,0-1.08.09A1.9,1.9,0,0,1,52,72.42Zm12.88-16a7.86,7.86,0,0,0,.3.79l.28-.12a8.45,8.45,0,0,0,.14,4A11.77,11.77,0,0,0,63.58,60a5.48,5.48,0,0,0-1.67-.47l.11-.1a7.4,7.4,0,0,0-.81-.69,1.87,1.87,0,0,1-.49-1.7,2.7,2.7,0,0,1,2.42-1.24h0A2.35,2.35,0,0,1,64.92,56.46ZM86.33,55A2.65,2.65,0,0,1,88.4,56.8a2.33,2.33,0,0,1,0,1.91c-.2.18-.41.37-.62.58l.22.22a8.36,8.36,0,0,0-3.7,1.69,8.21,8.21,0,0,0,.14-4.11l.14.06a6.22,6.22,0,0,0,.32-1C85.28,55.58,85.76,55,86.33,55Zm6.85,5.87a2.7,2.7,0,0,1,1.24,2.42,2.37,2.37,0,0,1-.7,1.78l-.8.3.12.29a8.21,8.21,0,0,0-4.05.14,8.3,8.3,0,0,0,1.69-3.74l.11.11a6.35,6.35,0,0,0,.68-.81A1.93,1.93,0,0,1,93.18,60.91Zm4.76,17a2.66,2.66,0,0,1-.83,2.58,2.36,2.36,0,0,1-1.75.77c-.24-.12-.5-.23-.78-.35l-.1.26a8.34,8.34,0,0,0-3-2.74,12.62,12.62,0,0,0,2.32-.59A5.33,5.33,0,0,0,95.34,77v.14a6,6,0,0,0,1-.09A1.89,1.89,0,0,1,97.94,78ZM89.26,93.37a2.69,2.69,0,0,1-2.41,1.24h0a2.36,2.36,0,0,1-1.77-.69c-.09-.26-.19-.53-.3-.8l-.29.12a8.21,8.21,0,0,0-.14-4,8.32,8.32,0,0,0,3.73,1.69L88,91a7.4,7.4,0,0,0,.81.69A1.89,1.89,0,0,1,89.26,93.37Zm-25.61,2h0a2.67,2.67,0,0,1-2.06-1.76,2.33,2.33,0,0,1,0-1.91c.2-.18.41-.37.62-.58l-.21-.2a8.47,8.47,0,0,0,3.68-1.69,8.23,8.23,0,0,0-.13,4.09l-.15-.06a6.55,6.55,0,0,0-.32,1C64.7,94.79,64.23,95.33,63.65,95.33Zm-6.84-5.87A2.68,2.68,0,0,1,55.57,87a2.35,2.35,0,0,1,.7-1.78l.79-.3L57,84.69a5.16,5.16,0,0,0,1.48.19A11.42,11.42,0,0,0,61,84.54a11.68,11.68,0,0,0-1.21,2.06,5.21,5.21,0,0,0-.47,1.67l-.11-.11a7.3,7.3,0,0,0-.68.81A1.91,1.91,0,0,1,56.81,89.46Zm4.5-28c.21-.16,1.4,0,3.41,1.48a3.57,3.57,0,0,0-1.93,1.94C61.28,62.9,61.15,61.7,61.31,61.5Zm6.28-4.19c.24-.07,1.3.5,2.59,2.68a3.66,3.66,0,0,0-1.37.26,3.49,3.49,0,0,0-1.16.78C67,58.58,67.37,57.43,67.59,57.31Zm14.81,0c.23.13.56,1.28-.06,3.72a3.8,3.8,0,0,0-1.17-.78A3.61,3.61,0,0,0,79.81,60C81.09,57.82,82.15,57.24,82.4,57.31Zm6.28,4.2c.16.2,0,1.39-1.49,3.41a3.51,3.51,0,0,0-.77-1.16A3.36,3.36,0,0,0,85.26,63C87.28,61.47,88.48,61.34,88.68,61.51Zm0,27.36c-.2.16-1.39,0-3.41-1.48a3.56,3.56,0,0,0,1.16-.77h0a3.41,3.41,0,0,0,.77-1.16C88.71,87.47,88.83,88.67,88.67,88.87Zm-6.28,4.19c-.24.08-1.29-.5-2.58-2.67h0a3.57,3.57,0,0,0,1.35-.27,3.63,3.63,0,0,0,1.17-.78C83,91.79,82.62,92.94,82.39,93.06Zm-14.81,0c-.22-.13-.56-1.28.07-3.72a3.49,3.49,0,0,0,1.16.78,3.66,3.66,0,0,0,1.36.27h0C68.88,92.56,67.83,93.13,67.58,93.06Zm-6.27-4.2c-.16-.2,0-1.39,1.48-3.41a3.71,3.71,0,0,0,.77,1.17,3.79,3.79,0,0,0,1.16.77C62.7,88.9,61.51,89,61.31,88.86Zm5.34-17.13h0a3.53,3.53,0,0,0,.22-2l.17-.05c.43,2.2,1.95,3.56,5.35,5.31-3.94,1.26-5.09,1-6.45-.28a3.57,3.57,0,0,0-.53-1.46A3.52,3.52,0,0,0,66.65,71.73Zm3.52-4.61a3.63,3.63,0,0,0,1.37-.27,3.59,3.59,0,0,0,1.55-1.24l.15.09c-1.25,1.86-1.13,3.89,0,7.52-3.68-1.89-4.32-2.88-4.36-4.75a3.75,3.75,0,0,0,.66-1.4A4,4,0,0,0,70.17,67.12Zm6.73-1.51a3.56,3.56,0,0,0,2.91,1.51,4.18,4.18,0,0,0,.61-.05c0,.06,0,.12,0,.18-2.19.43-3.55,2-5.3,5.33-1.26-3.94-1-5.09.28-6.45A3.7,3.7,0,0,0,76.9,65.61Zm6.43,13a3.52,3.52,0,0,0-.21,2l-.18,0c-.43-2.2-2-3.55-5.34-5.3,3.94-1.26,5.09-1,6.45.29a3.56,3.56,0,0,0,.52,1.45A3.59,3.59,0,0,0,83.33,78.64Zm-4.88,4.88a3.59,3.59,0,0,0-1.55,1.24l-.15-.09c1.25-1.86,1.13-3.89,0-7.52C80.39,79,81,80,81.08,81.9a3.45,3.45,0,0,0-.66,1.41A3.61,3.61,0,0,0,78.45,83.52Zm-5.36,1.24a3.59,3.59,0,0,0-1.55-1.24,3.52,3.52,0,0,0-2-.21.84.84,0,0,0,0-.17c2.21-.43,3.56-2,5.31-5.35,1.26,3.94,1,5.09-.29,6.45A3.66,3.66,0,0,0,73.09,84.76Zm10.24-13a3.59,3.59,0,0,0,1.24,1.55,1.09,1.09,0,0,0-.08.15c-1.86-1.28-3.85-1.16-7.53,0,1.9-3.69,2.89-4.32,4.77-4.36a3.56,3.56,0,0,0,1.39.66A3.52,3.52,0,0,0,83.33,71.73ZM65.5,77a5,5,0,0,0,3,.91,15.4,15.4,0,0,0,4.57-1c-1.9,3.67-2.9,4.3-4.76,4.36a3.47,3.47,0,0,0-1.4-.66,3.57,3.57,0,0,0-1.46-3.52Zm-.77,6.36h0a3.89,3.89,0,0,0,.69-.4l.19-.16c.08-.07.18-.13.26-.21A1.57,1.57,0,0,1,67.2,83a1.55,1.55,0,0,1,.38,1.57h0a1.5,1.5,0,0,1-.38.64l-.12.11a1.57,1.57,0,0,1-2.35-2ZM69.1,86c0-.06.07-.14.11-.21a1.73,1.73,0,0,0,.16-.3,1.56,1.56,0,0,1,2.36,1.18v0a1.54,1.54,0,0,1-.09.72.6.6,0,0,1-.06.11l-.06.11a1.57,1.57,0,0,1-2.9-1A3.66,3.66,0,0,0,69.1,86Zm4.38,2.2a4.18,4.18,0,0,0,.21-.77c0-.09,0-.17,0-.25s0-.23,0-.34A1.56,1.56,0,0,1,75,86.21a1.56,1.56,0,0,1,1.57,1.57.75.75,0,0,1,0,.15v0a1.59,1.59,0,0,1-3.1.24Zm5-1.21c0-.07,0-.15-.07-.23s-.06-.22-.1-.33a1.52,1.52,0,0,1,.91-1,1.58,1.58,0,0,1,1.63.27,1.55,1.55,0,0,1,.45.64l0,.09a1.57,1.57,0,0,1-2.75,1.4A4.16,4.16,0,0,0,78.47,87Zm4.64-1.53h0a3,3,0,0,0-.3-.56l-.06-.09a2.68,2.68,0,0,0-.4-.48h0A1.51,1.51,0,0,1,82.79,83a1.57,1.57,0,0,1,1.57-.39A1.6,1.6,0,0,1,85,83l.11.12a1.57,1.57,0,0,1-2,2.35Zm5-4.84a1.58,1.58,0,0,1-1.66,1,4.11,4.11,0,0,0-.62-.48L85.59,81l-.3-.17a1.52,1.52,0,0,1-.11-1.39,1.55,1.55,0,0,1,1.31-1,1.44,1.44,0,0,1,.72.09l.11.06.11.06A1.58,1.58,0,0,1,88.08,80.61ZM88,76.71h0a3.79,3.79,0,0,0-.77-.21l-.24,0c-.11,0-.22,0-.33,0h0A1.58,1.58,0,0,1,86,75.19a1.56,1.56,0,0,1,1.57-1.57.33.33,0,0,1,.14,0h0A1.58,1.58,0,0,1,88,76.71Zm-.44-5.09h0a3.57,3.57,0,0,0-1.25.25h0a1.54,1.54,0,0,1-1-.91,1.58,1.58,0,0,1,.27-1.63,1.39,1.39,0,0,1,.59-.43l.14,0a1.61,1.61,0,0,1,.44-.06,1.57,1.57,0,0,1,1,2.82Zm-2.32-4.55h0a3.71,3.71,0,0,0-.56.29l-.1.07a3,3,0,0,0-.47.4h0a1.53,1.53,0,0,1-1.33-.44,1.56,1.56,0,0,1-.39-1.58,1.63,1.63,0,0,1,.39-.64l.12-.11a1.55,1.55,0,0,1,1-.35,1.57,1.57,0,0,1,1.37,2.36Zm-4.37-2.69-.12.21-.16.3a1.54,1.54,0,0,1-1.4.11,1.58,1.58,0,0,1-.86-2,.31.31,0,0,1,.05-.1.67.67,0,0,0,.06-.12,1.57,1.57,0,0,1,2-.65,1.59,1.59,0,0,1,1,1.66A3.55,3.55,0,0,0,80.89,64.38Zm-4.38-2.19a3.29,3.29,0,0,0-.21.76,2.46,2.46,0,0,0,0,.26,1.84,1.84,0,0,0,0,.33,1.58,1.58,0,0,1-1.26.62,1.58,1.58,0,0,1-1.57-1.57.61.61,0,0,1,0-.14v0a1.57,1.57,0,0,1,3.08-.23Zm-5.09.41a3.49,3.49,0,0,0,.1.79c0,.08,0,.15.07.23s.06.22.1.33a1.53,1.53,0,0,1-.92,1,1.57,1.57,0,0,1-1.62-.27,1.46,1.46,0,0,1-.45-.64l0-.09a1.58,1.58,0,0,1,.9-1.9,1.57,1.57,0,0,1,1.85.5Zm-5.33,2.11a1.55,1.55,0,0,1,.78.21h0a5,5,0,0,0,.3.56l.07.1a3.6,3.6,0,0,0,.39.47h0a1.56,1.56,0,0,1-.44,1.33h0a1.59,1.59,0,0,1-1.58.39,1.56,1.56,0,0,1-.64-.39l-.11-.12a1.57,1.57,0,0,1,.11-2.1A1.58,1.58,0,0,1,66.09,64.71Zm-4.18,5.05a1.58,1.58,0,0,1,1.66-1,3.59,3.59,0,0,0,.61.48l.21.11a3.07,3.07,0,0,0,.31.17,1.53,1.53,0,0,1,.11,1.4,1.57,1.57,0,0,1-1.31,1,1.42,1.42,0,0,1-.72-.09l-.11,0a.3.3,0,0,0-.11-.06A1.58,1.58,0,0,1,61.91,69.76Zm.05,3.9h0a3.66,3.66,0,0,0,1.16.25h.2A1.58,1.58,0,0,1,64,75.19a1.56,1.56,0,0,1-.83,1.38,1.6,1.6,0,0,1-.74.19h-.19A1.59,1.59,0,0,1,62,73.66Zm.45,5.1a3.33,3.33,0,0,0,.78-.1l.23-.07.33-.1a1.55,1.55,0,0,1,1.06.92A1.52,1.52,0,0,1,64.56,81l0,0a1.55,1.55,0,0,1-.64.45l-.09,0a1.57,1.57,0,0,1-1.4-2.75ZM75,94.53c-.26,0-1-1-1.36-3.46a3.45,3.45,0,0,0,1.36.28,3.64,3.64,0,0,0,1.37-.27C76,93.57,75.25,94.51,75,94.53ZM89.93,81.37A3.66,3.66,0,0,0,90.19,80c2.17,1.29,2.75,2.34,2.68,2.59s-1.28.56-3.72-.06A3.76,3.76,0,0,0,89.93,81.37Zm.95-7.55c2.5.36,3.43,1.11,3.46,1.37s-1,1-3.46,1.36a3.47,3.47,0,0,0,0-2.73ZM89.93,69a3.76,3.76,0,0,0-.78-1.16c2.44-.62,3.6-.28,3.72,0s-.51,1.29-2.68,2.58A3.66,3.66,0,0,0,89.93,69ZM75,55.84c.25,0,1,1,1.36,3.46a3.47,3.47,0,0,0-2.73,0C74,56.8,74.74,55.87,75,55.84ZM60.06,69a3.66,3.66,0,0,0-.26,1.37c-2.18-1.29-2.75-2.34-2.68-2.59s1.28-.56,3.72.06A3.44,3.44,0,0,0,60.06,69Zm-1,7.55c-2.49-.36-3.43-1.11-3.45-1.37s1-1,3.45-1.36a3.59,3.59,0,0,0,0,2.73Zm1,4.82a3.59,3.59,0,0,0,.78,1.16c-2.45.62-3.6.28-3.72.06s.5-1.3,2.68-2.59A3.66,3.66,0,0,0,60.06,81.37ZM69.64,97.3a2.32,2.32,0,0,1-.77-1.74c.12-.25.24-.51.35-.78l-.28-.12a8.29,8.29,0,0,0,2.77-3A11.3,11.3,0,0,0,72.3,94a5.1,5.1,0,0,0,.84,1.51H73a6.15,6.15,0,0,0,.09,1.06,1.93,1.93,0,0,1-.87,1.55A2.68,2.68,0,0,1,69.64,97.3Zm7.24-1.81a8.31,8.31,0,0,0,1.4-3.79,8.25,8.25,0,0,0,2.8,3l-.14.06a6.39,6.39,0,0,0,.48.94,1.9,1.9,0,0,1-.2,1.76,2.69,2.69,0,0,1-2.7.22,2.34,2.34,0,0,1-1.38-1.32c0-.28,0-.56,0-.86Zm14.59-6.86c-.18-.2-.37-.41-.59-.62l-.19.2A8.39,8.39,0,0,0,89,84.55a11.66,11.66,0,0,0,2.57.34,5.64,5.64,0,0,0,1.5-.19l0,.12a7.39,7.39,0,0,0,1,.32c.56.34,1.09.81,1.1,1.39a2.69,2.69,0,0,1-1.76,2.06A2.33,2.33,0,0,1,91.47,88.63Zm6-17A2.31,2.31,0,0,1,96.15,73l-.85,0v.28a8.42,8.42,0,0,0-3.79-1.41,8.11,8.11,0,0,0,3-2.79l.06.14a6.08,6.08,0,0,0,1-.49,1.93,1.93,0,0,1,1.76.21A2.67,2.67,0,0,1,97.47,71.66ZM80.34,53.07a2.34,2.34,0,0,1,.77,1.75c-.12.24-.24.5-.35.78l.29.11a8.29,8.29,0,0,0-2.77,3,12.74,12.74,0,0,0-.59-2.33,5.33,5.33,0,0,0-.85-1.51H77a7.33,7.33,0,0,0-.09-1.06,1.92,1.92,0,0,1,.86-1.55A2.67,2.67,0,0,1,80.34,53.07ZM73.1,54.88a8.55,8.55,0,0,0-1.4,3.79,8.25,8.25,0,0,0-2.8-3l.15-.06a6.45,6.45,0,0,0-.49-.94,1.9,1.9,0,0,1,.21-1.76,2.69,2.69,0,0,1,2.7-.22A2.36,2.36,0,0,1,72.85,54a7.85,7.85,0,0,0,0,.85ZM58.52,61.74c.18.2.37.41.58.62l.2-.2A8.28,8.28,0,0,0,61,65.83a8.23,8.23,0,0,0-4.09-.13l.06-.14a6.61,6.61,0,0,0-1-.33c-.56-.34-1.1-.81-1.1-1.39a2.65,2.65,0,0,1,1.75-2.06A2.35,2.35,0,0,1,58.52,61.74Zm-4,15.61h.13v-.27a8.64,8.64,0,0,0,3.79,1.4,8.28,8.28,0,0,0-3,2.79l-.06-.14a6.45,6.45,0,0,0-.94.49,1.93,1.93,0,0,1-1.76-.21,2.67,2.67,0,0,1-.22-2.7,2.34,2.34,0,0,1,1.32-1.38ZM49,83a5.07,5.07,0,0,0,.93,1.27,5.12,5.12,0,0,0,1.85,1.16,7.22,7.22,0,0,0-.2,1.64,1.94,1.94,0,0,0,0,.24c-3.28,1.15-5.71,1-6.64.28a.58.58,0,0,1-.28-.61C44.77,86.2,45.83,84.62,49,83Zm13.14,22.17c-.65-.27-1.18-2.35,0-6.07a5.19,5.19,0,0,0,1.52.24h0a5,5,0,0,0,2.12-.49,7.39,7.39,0,0,0,1,1.3l.19.17C65.07,104.38,62.8,105.45,62.13,105.16Zm21.94-4.9a5.12,5.12,0,0,0,1.15-1.85,7.11,7.11,0,0,0,1.62.2h0l.26,0c1.5,4.25.65,6.61,0,6.89s-2.5-.83-4.3-4.31A5.31,5.31,0,0,0,84.07,100.26ZM93,94.88a5.14,5.14,0,0,0,.36-2.15,6.78,6.78,0,0,0,1.59-.45l.22-.11c2.32,2.59,3.1,4.9,2.8,6a.58.58,0,0,1-.46.49c-.74.2-2.61-.17-5.33-2.47A5.13,5.13,0,0,0,93,94.88Zm5.68-10.5a6.61,6.61,0,0,0,1.3-1c.06,0,.1-.12.16-.18,3.13,1.5,4.74,3.33,4.89,4.49a.58.58,0,0,1-.23.64c-.61.46-2.49.83-5.87-.25a5.5,5.5,0,0,0,.24-1.55A5.15,5.15,0,0,0,98.65,84.38ZM102,77.92a5.29,5.29,0,0,0-.37-1.52,5.11,5.11,0,0,0-1.27-1.78,6.74,6.74,0,0,0,.82-1.44c0-.08,0-.16.08-.24,4.5.24,6.35,1.93,6.35,2.66,0,.28-.33.78-1.26,1.26A11.52,11.52,0,0,1,102,77.92Zm-1-10.54a5.49,5.49,0,0,0-.92-1.27A5.12,5.12,0,0,0,98.22,65a7.38,7.38,0,0,0,.2-1.65c0-.08,0-.16,0-.24,3.28-1.15,5.71-1,6.63-.28a.57.57,0,0,1,.29.61C105.21,64.17,104.16,65.75,101,67.38ZM87.86,45.21c.65.27,1.18,2.35,0,6.07A5.25,5.25,0,0,0,86.34,51h0a5,5,0,0,0-2.13.49,6.56,6.56,0,0,0-1-1.3L83,50.06C84.91,46,87.19,44.93,87.86,45.21Zm-21.94,4.9A5,5,0,0,0,64.76,52a7,7,0,0,0-1.61-.2h0l-.25,0c-1.51-4.25-.66-6.61,0-6.89s2.5.83,4.3,4.29A5.61,5.61,0,0,0,65.92,50.11ZM57,55.49a4.84,4.84,0,0,0-.36,2.15,7.38,7.38,0,0,0-1.6.45l-.22.11c-2.31-2.59-3.1-4.89-2.79-6a.56.56,0,0,1,.45-.49c.75-.2,2.62.17,5.33,2.47A5.1,5.1,0,0,0,57,55.49ZM51.34,66A6.56,6.56,0,0,0,50,67l-.16.18c-3.14-1.5-4.74-3.33-4.89-4.49a.57.57,0,0,1,.23-.63c.61-.47,2.49-.84,5.87.24a5.17,5.17,0,0,0-.24,1.55A5.06,5.06,0,0,0,51.34,66ZM48,72.45A5.3,5.3,0,0,0,48.36,74a4.94,4.94,0,0,0,1.26,1.78,7.16,7.16,0,0,0-.81,1.44c0,.08-.05.16-.08.24-4.51-.24-6.36-1.92-6.36-2.66,0-.28.34-.78,1.27-1.26A11.4,11.4,0,0,1,48,72.45ZM42.59,90.8a7.85,7.85,0,0,0,4.72,1.35A14.91,14.91,0,0,0,49.26,92c-2,3.13-2.14,5.68-1.38,7.42-3.5,3.81-7,5.56-9.43,4.71a4.34,4.34,0,0,1-2.64-4.23C35.73,97,37.49,93.24,42.59,90.8Zm38.1,14.62c2.09,3,4.34,4.09,6.22,4.09H87c2.18,4.69,2.47,8.57.73,10.52a4.34,4.34,0,0,1-4.91.82c-2.67-1-5.5-4.1-5.8-9.74C78.57,110.17,79.94,108.31,80.69,105.42Zm9.92,2.17c1.07-1.45,1.63-3.7,1.21-6.65a10,10,0,0,0,5.23,1.8,5.49,5.49,0,0,0,1.47-.19,4.16,4.16,0,0,0,.7-.25c3.8,3.5,5.56,7,4.7,9.43a4.35,4.35,0,0,1-4.23,2.64C96.85,114.46,93,112.69,90.61,107.59Zm11.21-8.44c.49-1.93,0-4.25-1.45-6.63a13.89,13.89,0,0,0,2.4.25,7.11,7.11,0,0,0,4.43-1.3,6.77,6.77,0,0,0,.56-.51c4.85,1.78,7.79,4.31,7.95,6.92a4.34,4.34,0,0,1-2.9,4.05C110.21,103.1,106,102.93,101.82,99.15ZM109,87.06c-.29-2-1.66-3.9-3.86-5.56a12.62,12.62,0,0,0,3.11-1.09,6.28,6.28,0,0,0,3.09-3.18c5.17-.22,8.86,1,10,3.34a4.34,4.34,0,0,1-1.13,4.86C118.21,87.5,114.28,88.94,109,87.06Zm11.69-19.7c-1,2.67-4.09,5.5-9.74,5.8-.92-1.55-2.78-2.92-5.67-3.67,2.38-1.67,3.79-3.57,4-5.56a6.51,6.51,0,0,0,0-.75c4.68-2.18,8.55-2.47,10.51-.74A4.34,4.34,0,0,1,120.64,67.36ZM107.4,59.57c-1.6-1.18-3.94-1.58-6.67-1.19,2-3.13,2.14-5.68,1.38-7.42,3.49-3.81,7-5.56,9.43-4.71a4.35,4.35,0,0,1,2.63,4.23C114.26,53.34,112.5,57.13,107.4,59.57ZM69.3,45c-2.13-3-4.42-4.12-6.32-4.09-2.17-4.68-2.46-8.56-.73-10.51a4.36,4.36,0,0,1,4.92-.82c2.66,1,5.5,4.1,5.8,9.74C71.42,40.2,70,42.07,69.3,45Zm-9.92-2.17c-1.08,1.45-1.64,3.7-1.22,6.65-2.45-1.56-4.75-2.13-6.69-1.61a4.26,4.26,0,0,0-.71.25c-3.8-3.5-5.55-7-4.7-9.43A4.37,4.37,0,0,1,50.29,36C53.14,35.92,56.94,37.68,59.38,42.78ZM48.16,51.22c-.48,1.93.05,4.25,1.45,6.62-2.87-.5-5.23-.16-6.82,1.06a4.59,4.59,0,0,0-.56.51c-4.85-1.78-7.79-4.31-7.95-6.92a4.34,4.34,0,0,1,2.9-4.05C39.78,47.27,44,47.44,48.16,51.22ZM41,63.31c.29,2,1.66,3.9,3.86,5.56A12.48,12.48,0,0,0,41.79,70a6.26,6.26,0,0,0-3.09,3.19c-5.17.21-8.86-1-10-3.35A4.34,4.34,0,0,1,29.82,65C31.78,62.87,35.71,61.43,41,63.31Z"/><path d="M63.35,32.05c-1,1.42-1.1,3.7-.2,7l1.93-.53c-.7-2.53-.74-4.4-.11-5.26a1.91,1.91,0,0,1,1.59-.68l-.08-2A3.82,3.82,0,0,0,63.35,32.05Z"/><path d="M50.89,39l-.84-1.82a3.86,3.86,0,0,0-2.32,2.58c-.42,1.71.4,3.84,2.48,6.52l1.58-1.23c-1.62-2.07-2.37-3.78-2.11-4.82A1.9,1.9,0,0,1,50.89,39Z"/><path d="M36.26,52.91c.27,1.75,1.84,3.41,4.79,5.08l1-1.74c-2.28-1.3-3.63-2.59-3.79-3.64A2,2,0,0,1,38.88,51l-1.46-1.36A3.84,3.84,0,0,0,36.26,52.91Z"/><path d="M37.05,72.29l.25-2c-2.61-.32-4.35-1-4.91-1.91a2,2,0,0,1,0-1.73L30.5,66a3.82,3.82,0,0,0,.19,3.46C31.6,70.94,33.69,71.87,37.05,72.29Z"/><path d="M31.86,86.83a5,5,0,0,0,3,.83A15.11,15.11,0,0,0,38.83,87L38.3,85.1c-2.53.7-4.4.74-5.26.11a1.91,1.91,0,0,1-.68-1.59l-2,.08A3.86,3.86,0,0,0,31.86,86.83Z"/><path d="M39.59,102.45a3.91,3.91,0,0,0,.91.1c1.55,0,3.39-.85,5.62-2.59l-1.24-1.57c-2.07,1.61-3.78,2.37-4.81,2.11a1.91,1.91,0,0,1-1.24-1.21l-1.81.84A3.86,3.86,0,0,0,39.59,102.45Z"/><path d="M57.8,109.13l-1.74-1c-1.3,2.29-2.59,3.64-3.65,3.8a1.92,1.92,0,0,1-1.6-.65l-1.36,1.47a4,4,0,0,0,2.73,1.2,3.27,3.27,0,0,0,.54,0C54.46,113.65,56.12,112.08,57.8,109.13Z"/><path d="M68.2,117.78a1.92,1.92,0,0,1-1.73,0l-.69,1.88a4.86,4.86,0,0,0,1.65.32,3.39,3.39,0,0,0,1.81-.51c1.51-.92,2.44-3,2.86-6.36l-2-.25C69.79,115.49,69.11,117.23,68.2,117.78Z"/><path d="M86.63,118.32c1-1.42,1.11-3.7.2-7l-1.92.53c.7,2.53.74,4.4.11,5.26a1.91,1.91,0,0,1-1.59.68l.07,2A3.85,3.85,0,0,0,86.63,118.32Z"/><path d="M99.1,111.34l.83,1.82a3.81,3.81,0,0,0,2.32-2.58c.42-1.71-.39-3.84-2.48-6.52l-1.57,1.23c1.61,2.07,2.36,3.78,2.11,4.82A1.9,1.9,0,0,1,99.1,111.34Z"/><path d="M111.75,97.76a1.93,1.93,0,0,1-.65,1.61l1.47,1.36a3.89,3.89,0,0,0,1.16-3.27c-.28-1.75-1.84-3.41-4.79-5.08l-1,1.74C110.24,95.42,111.59,96.71,111.75,97.76Z"/><path d="M112.93,78.08l-.24,2c2.61.32,4.35,1,4.9,1.91a1.92,1.92,0,0,1,0,1.73l1.87.69a3.82,3.82,0,0,0-.18-3.46C118.38,79.43,116.3,78.5,112.93,78.08Z"/><path d="M118.13,63.55c-1.42-1-3.71-1.11-7-.21l.54,1.93c2.53-.7,4.4-.74,5.26-.11a1.91,1.91,0,0,1,.67,1.59l2-.07A3.8,3.8,0,0,0,118.13,63.55Z"/><path d="M110.39,47.92c-1.71-.41-3.85.4-6.52,2.49L105.1,52c2.07-1.61,3.79-2.37,4.82-2.11a1.92,1.92,0,0,1,1.23,1.21l1.82-.84A3.86,3.86,0,0,0,110.39,47.92Z"/><path d="M92.19,41.24l1.74,1c1.29-2.29,2.59-3.64,3.64-3.8a1.91,1.91,0,0,1,1.6.65l1.36-1.47a3.82,3.82,0,0,0-3.27-1.16C95.52,36.72,93.86,38.29,92.19,41.24Z"/><path d="M81.79,32.59a1.92,1.92,0,0,1,1.73,0l.69-1.87a3.79,3.79,0,0,0-3.46.18c-1.51.92-2.44,3-2.86,6.36l2,.25C80.2,34.88,80.88,33.14,81.79,32.59Z"/></svg>