<svg id="Symbols" xmlns="http://www.w3.org/2000/svg" viewBox="0 0 150 150"><title>Mjolnir-bold</title><path d="M75,118.28A14.26,14.26,0,1,0,60.75,104,14.26,14.26,0,0,0,75,118.28Zm0-24.51A10.26,10.26,0,1,1,64.75,104,10.27,10.27,0,0,1,75,93.77Z"/><path d="M72.17,85V82.94h1.89V78.23l.93-.94,1,.94v4.71h1.89V85a11.38,11.38,0,0,1,5.64,2.08h0l-.94-11.31H78l-1.63-2.15,4-6.06-2-3.07,2-3.06L76.79,56,79,52.76l-2.19-3.22L79,46.32l-4-5.89-4,5.89,2.19,3.22L71,52.76,73.21,56l-3.54,5.43,2,3.06-2,3.07,4,6.06L72,75.78H67.46l-.94,11.31h0A11.38,11.38,0,0,1,72.17,85Z"/><polygon points="75 32.55 72 36.49 75 40.43 78 36.49 75 32.55"/><rect x="44.7" y="93.45" width="4.24" height="4.24" transform="translate(-37.43 30.55) rotate(-26.24)"/><rect x="50.39" y="95.38" width="4.24" height="4.24" transform="translate(-37.7 33.26) rotate(-26.24)"/><path d="M62,95.18l-6.65,3.29,3.27,6.64A12.36,12.36,0,0,1,62,95.18Z"/><rect x="101.05" y="93.45" width="4.24" height="4.24" transform="translate(-28.17 145.86) rotate(-63.76)"/><rect x="95.37" y="95.38" width="4.24" height="4.24" transform="translate(-33.07 141.84) rotate(-63.76)"/><path d="M91.38,105.11l3.27-6.64L88,95.18a12.36,12.36,0,0,1,3.38,9.93Z"/><path d="M75.52,106.68l-.52,0-.52,0a8.28,8.28,0,0,1-1.58-.27,7.72,7.72,0,0,1-1.55-.62,7.77,7.77,0,0,0,1,4.65c.08.14.17.28.26.41a7.86,7.86,0,0,0,1,1.26A8.36,8.36,0,0,0,75,113.17a7.1,7.1,0,0,0,1.34-1.06,8.5,8.5,0,0,0,1-1.26c.09-.13.18-.27.26-.41a7.77,7.77,0,0,0,1-4.65,7.57,7.57,0,0,1-1.56.62A8,8,0,0,1,75.52,106.68Z"/><path d="M67.51,101.18a7.92,7.92,0,0,0,3.84,4.61,7.23,7.23,0,0,1,.23-1.3c0-.11.07-.22.1-.33a7.32,7.32,0,0,1,.63-1.47c.1-.17.2-.35.31-.51A7.56,7.56,0,0,1,75,99.88a1.75,1.75,0,0,0-.25-.16,7.79,7.79,0,0,0-4.44-1,7.93,7.93,0,0,0-1.51.25l-.07,0a8.06,8.06,0,0,0-1.55.61A8.62,8.62,0,0,0,67.51,101.18Z"/><path d="M77.06,101.74c.11.14.21.29.31.44a5.33,5.33,0,0,1,.31.51,7.16,7.16,0,0,1,.63,1.48c0,.1.07.22.1.32a7.25,7.25,0,0,1,.24,1.3,7.94,7.94,0,0,0,3.2-3.12,8.07,8.07,0,0,0,.64-1.48,8.62,8.62,0,0,0,.33-1.62A7.35,7.35,0,0,0,81.27,99a7.06,7.06,0,0,0-1.58-.27,7.74,7.74,0,0,0-4.45,1,1.25,1.25,0,0,0-.24.16,7,7,0,0,1,1.33,1A7.23,7.23,0,0,1,77.06,101.74Z"/><path d="M74.7,105.11h.6a5.67,5.67,0,0,0,1.56-.28,5.32,5.32,0,0,0-.61-1.46A2.5,2.5,0,0,0,76,103a6.13,6.13,0,0,0-1-1.19h0A6.38,6.38,0,0,0,74,103c-.08.12-.15.24-.22.36a5.65,5.65,0,0,0-.61,1.46A5.74,5.74,0,0,0,74.7,105.11Z"/><path d="M56.51,119l1.2,1.5.13.16c5,5.71,10.45,8.38,17.12,8.39h.15c6.69,0,12.14-2.67,17.17-8.39L93.59,119c3.65-4.56,9.9-10.13,18.94-10.78l.37,0,3.92-.21V83.22h-23L87.2,21H62.92l-6.6,62.22h-23v24.72l3.78.2h.14l.31,0C46.62,108.83,52.88,114.4,56.51,119ZM41.29,91.22H63.52L70.11,29H80l6.6,62.22h22.22v9.37c-8.21,1.42-15.58,6-21.49,13.39L86.2,115.4c-3.47,3.94-6.66,5.57-11,5.6h-.39c-4.29,0-7.47-1.67-11-5.6L62.77,114C56.88,106.6,49.53,102,41.29,100.59Z"/></svg>