<svg id="Symbols" xmlns="http://www.w3.org/2000/svg" viewBox="0 0 150 150"><title>Huginnandmuninn-bold</title><path d="M37.69,81.57l1.77.19,1.33-1.18a22.28,22.28,0,0,1,9.08-4.88,22.58,22.58,0,0,1,5.25-.78,22.2,22.2,0,0,1,8.65,1.46l1.26.48.06.11,2.17,3.26.09.12.06.07a23,23,0,0,0,2.84,24.07A22.89,22.89,0,0,0,73.74,108l1.25,1,1.27-1c.39-.32.76-.65,1.07-1s.54-.49.78-.74.47-.48.67-.71.57-.65.78-.92l.34-.42c.19-.24.37-.48.5-.67.26-.36.52-.73.74-1.09l.29-.46c.13-.2.24-.4.35-.61a1.45,1.45,0,0,0,.12-.22,8.34,8.34,0,0,0,.43-.82,22.66,22.66,0,0,0,1.74-4.73,21,21,0,0,0,.44-2.21c.06-.4.11-.81.15-1.24,0-.22,0-.44,0-.67s0-.43,0-.59,0-.56,0-.85,0-.77,0-1.15c0-.12,0-.24,0-.36,0-.37,0-.75-.1-1.08s-.1-.81-.16-1.21l0-.15c-.07-.38-.13-.73-.22-1.09l0-.18c-.05-.24-.11-.48-.18-.74-.14-.48-.28-1-.44-1.44,0-.08,0-.16,0-.16h0l-.29-.78c-.1-.26-.21-.51-.33-.8s-.17-.38-.26-.57a24.49,24.49,0,0,0,1.85-2.66c.17-.29.34-.6.51-.91l1.27-.48a22.17,22.17,0,0,1,8.65-1.46,22.58,22.58,0,0,1,5.25.78,22.28,22.28,0,0,1,9.08,4.88l1.33,1.18,1.77-.19a22.54,22.54,0,0,0,15.82-9.06l1.36-1.89-1-2.11A30.64,30.64,0,0,0,90.59,52.22a31.89,31.89,0,0,0-3,1.23,13.14,13.14,0,0,0-.72-1.11,7.19,7.19,0,0,0,.25-1.86,6.88,6.88,0,0,0-.21-1.67c0-.22-.12-.44-.19-.65l4-2.59a5,5,0,0,0-7-1.1l-.48-.28a7.24,7.24,0,0,0-3.23-.77A7,7,0,0,0,75,45.57a7,7,0,0,0-5.06-2.15,7.17,7.17,0,0,0-3.22.77l-.49.28a5,5,0,0,0-7,1.1l4.05,2.59a6.13,6.13,0,0,0-.18.61,7,7,0,0,0-.22,1.71,7.19,7.19,0,0,0,.25,1.86c-.18.26-.36.51-.52.77l-.2.34a29.16,29.16,0,0,0-3-1.22,30.26,30.26,0,0,0-10.05-1.7,30.71,30.71,0,0,0-27.9,18l-1,2.11,1.36,1.89A22.54,22.54,0,0,0,37.69,81.57Zm54-21.18c.52-.22,1-.43,1.57-.61a22.35,22.35,0,0,1,7.41-1.25,22.69,22.69,0,0,1,19.46,11.08A14.61,14.61,0,0,1,113,73.35,30.26,30.26,0,0,0,102.22,68a30.68,30.68,0,0,0-7.09-1.06h-.94a31.19,31.19,0,0,0-3.35.18,27.25,27.25,0,0,0,.82-6.16C91.66,60.75,91.66,60.57,91.65,60.39ZM79.58,47.47a2.33,2.33,0,0,0,0,.38,1.69,1.69,0,0,0,3.07,1,3.15,3.15,0,0,1,.43,1,2.69,2.69,0,0,1,.09.7,3,3,0,0,1-.45,1.58,3,3,0,0,1-2.62,1.48,3.05,3.05,0,0,1-.48-6.07Zm.48,10.07A7.12,7.12,0,0,0,83,56.91L83.43,59a8.91,8.91,0,0,1,.23,1.94A25.44,25.44,0,0,1,82.28,68c-.31,1-.7,2-1.15,3.06l-3.71,8.65.54-.2a7.51,7.51,0,0,1-1,.72V56.84A7,7,0,0,0,80.06,57.54ZM73.17,83l-.35,1.53a5.71,5.71,0,0,0,.71.19l.08,0,.47.08h.06l.31,0a4.93,4.93,0,0,0,.55,0,7.9,7.9,0,0,0,4.51-1.5l.19.51,0,.12c.13.41.26.82.37,1.23.06.23.11.46.17.7l0,.15c.06.26.11.52.16.8l0,.11c.05.33.1.67.14,1s.06.54.08.88c0,.06,0,.11,0,.16v.14c0,.31,0,.63,0,.93s0,.48,0,.78c0,.11,0,.22,0,.32v.13c0,.19,0,.37,0,.53,0,.32-.07.63-.13,1a16.68,16.68,0,0,1-.36,1.82,18.45,18.45,0,0,1-1.48,4,5.12,5.12,0,0,1-.29.57l-.13.23c-.07.13-.14.26-.22.39L78,100c-.07.12-.15.24-.25.39s-.38.58-.63.92l-.37.51c-.08.09-.15.19-.3.36s-.41.51-.66.78-.34.37-.55.58l-.25.25a19.64,19.64,0,0,1-1.62-1.8,18.84,18.84,0,0,1-4.13-11.86,19.07,19.07,0,0,1,1.25-6.77l.07,0,.31.2a9.06,9.06,0,0,0,1.11.59,6.85,6.85,0,0,0,.68.26L73.14,83ZM67,49.74a2.8,2.8,0,0,1,.42-.93,1.69,1.69,0,0,0,3.07-1,2.33,2.33,0,0,0,0-.38,3.05,3.05,0,1,1-3.11,4.58,3,3,0,0,1-.44-1.57A2.8,2.8,0,0,1,67,49.74ZM66.56,59,67,56.91a7.13,7.13,0,0,0,2.9.63,7,7,0,0,0,3.06-.7V80.22h0l-.24-.16a6,6,0,0,1-.68-.53l.51.2-3.7-8.65c-.43-1-.83-2.1-1.18-3.17a25.39,25.39,0,0,1-1.34-7A9.09,9.09,0,0,1,66.56,59Zm-17.19-.46a22.45,22.45,0,0,1,7.42,1.25c.53.18,1.05.39,1.56.61,0,.18,0,.36,0,.54a28,28,0,0,0,.82,6.16A30.52,30.52,0,0,0,47.78,68,30.26,30.26,0,0,0,37,73.35a14.61,14.61,0,0,1-7.07-3.74A22.69,22.69,0,0,1,49.37,58.53Z"/></svg>