<svg id="Symbols" xmlns="http://www.w3.org/2000/svg" viewBox="0 0 150 150"><title>Triplehornofodin-bold</title><path d="M75,26a49,49,0,1,0,49,49A49.05,49.05,0,0,0,75,26Zm37.24,38.84c-.55-.06-2.3-2.26-3.71-7a27.78,27.78,0,0,1,4.23,2.72C112.9,63.16,112.52,64.64,112.24,64.84Zm-8.37-18.92a41.25,41.25,0,0,1,8.25,11.7,31.61,31.61,0,0,0-4.24-2.36,32.8,32.8,0,0,1-.75-4.94l-1,.06-.74-.67a19.28,19.28,0,0,0-2.6,3.7A38.78,38.78,0,0,0,93.24,52a20,20,0,0,1-2.87-8c.83-.17,1.64-.3,2.46-.4,2.53,2.62,6.59,6,9.2,6a2.09,2.09,0,0,0,1.49-.54C104.27,48.34,104.28,47.22,103.87,45.92Zm1.78,8.42-.93-.33c.21-.36.45-.71.69-1.06C105.48,53.41,105.56,53.87,105.65,54.34ZM94.77,101.91a21.58,21.58,0,0,0-7.84-1.61A28.08,28.08,0,0,0,96,93.47,36.42,36.42,0,0,1,94.77,101.91Zm2.28,3.5-1.39.24.33-.93C96.35,104.93,96.7,105.17,97.05,105.41ZM75,99A24,24,0,1,1,99,75,24,24,0,0,1,75,99Zm3.67,9.21a21.69,21.69,0,0,0-6-5.31c.76.06,1.54.1,2.32.1a27.88,27.88,0,0,0,8.94-1.47A36.79,36.79,0,0,1,78.67,108.19Zm.22,4.17c-.43-.17-.87-.33-1.32-.49.25-.21.5-.42.74-.64C78.53,111.6,78.71,112,78.89,112.36Zm-9.41-9.93a36.68,36.68,0,0,1-7.9,3.15A21.56,21.56,0,0,0,59.05,98,27.79,27.79,0,0,0,69.48,102.43Zm-21-18.49a36.79,36.79,0,0,1-6.68-5.27,21.82,21.82,0,0,0,5.31-6c-.06.76-.1,1.53-.1,2.31A27.88,27.88,0,0,0,48.49,83.94ZM44.43,61.59A21.71,21.71,0,0,0,52,59.08a27.69,27.69,0,0,0-4.44,10.4A36.06,36.06,0,0,1,44.43,61.59ZM49.7,86.94a28,28,0,0,0,6.83,9,36.42,36.42,0,0,1-8.44-1.22A21.37,21.37,0,0,0,49.7,86.94Zm5.53-38.85a21.57,21.57,0,0,0,7.83,1.61A28.18,28.18,0,0,0,54,56.53,36.42,36.42,0,0,1,55.23,48.09Zm-2.29-3.5,1.4-.24-.33.93C53.64,45.07,53.29,44.83,52.94,44.59Zm18.39-2.78a21.52,21.52,0,0,0,6,5.31c-.77-.06-1.53-.1-2.31-.1a27.88,27.88,0,0,0-8.94,1.47A36.79,36.79,0,0,1,71.33,41.81Zm-.23-4.17,1.33.49-.75.64C71.47,38.4,71.29,38,71.1,37.64Zm9.42,9.93a36.68,36.68,0,0,1,7.9-3.15A21.56,21.56,0,0,0,91,52,27.79,27.79,0,0,0,80.52,47.57Zm21.91,32.95a36.68,36.68,0,0,1,3.15,7.9A21.63,21.63,0,0,0,98,91,27.79,27.79,0,0,0,102.43,80.52Zm-.92-14.46a36.79,36.79,0,0,1,6.68,5.27,21.5,21.5,0,0,0-5.31,6c.06-.76.1-1.53.1-2.31A27.88,27.88,0,0,0,101.51,66.06Zm-1.21-3A28.18,28.18,0,0,0,93.47,54a36.42,36.42,0,0,1,8.44,1.22A21.57,21.57,0,0,0,100.3,63.06ZM90.25,42c0-.43,0-.85.06-1.27l.9,1.09Zm11.92,5.61c-.5.23-3.12-.8-6.73-4.23a27.91,27.91,0,0,1,5,.24C101.9,45.8,102.31,47.27,102.17,47.58Zm-3.74-6.19a30.08,30.08,0,0,0-4.83.08,33.33,33.33,0,0,1-3.12-3.91l-.83.55-1-.21a18.53,18.53,0,0,0-.41,4.51,38.5,38.5,0,0,0-9,3.55,20,20,0,0,1-6.49-5.52c.62-.56,1.27-1.08,1.93-1.57a30.83,30.83,0,0,0,7.69,1.26c2.16,0,3.89-.48,4.3-1.86.3-1-.27-2-1.3-2.92A40.74,40.74,0,0,1,98.43,41.39ZM84.82,37.67c-.32.44-3.1.86-7.95-.3a28,28,0,0,1,4.48-2.31C83.7,36.26,84.79,37.32,84.82,37.67ZM75,34c1.18,0,2.35.06,3.51.16a30.88,30.88,0,0,0-4.17,2.5,33.14,33.14,0,0,1-4.65-1.83l-.44.9-1,.3a19.44,19.44,0,0,0,1.9,4.11,38.36,38.36,0,0,0-6,7.57,20.11,20.11,0,0,1-8.39-1.54c.27-.79.57-1.57.89-2.33,4.31-1.08,10.79-3.53,10.09-6.51-.24-1-1.23-1.59-2.58-1.88A40.9,40.9,0,0,1,75,34ZM60.53,37.24c2.63-.14,4.11.24,4.31.52-.06.55-2.26,2.3-7,3.71A27.78,27.78,0,0,1,60.53,37.24Zm-2.91.64a31.61,31.61,0,0,0-2.36,4.24,32.8,32.8,0,0,1-4.94.75l.06,1-.67.74a19,19,0,0,0,3.7,2.61A38.69,38.69,0,0,0,52,56.76a20.06,20.06,0,0,1-8,2.86c-.17-.82-.3-1.64-.4-2.45,3.19-3.09,7.58-8.46,5.49-10.69-.72-.75-1.84-.76-3.14-.35A41.11,41.11,0,0,1,57.62,37.88Zm-14,11.65c2.21-1.43,3.67-1.84,4-1.7.22.5-.8,3.12-4.23,6.73A27.91,27.91,0,0,1,43.59,49.53ZM42,59.75c-.43,0-.85,0-1.28-.06.37-.29.73-.59,1.1-.9Q41.87,59.27,42,59.75Zm-.58-8.18a30.08,30.08,0,0,0,.08,4.83,33.33,33.33,0,0,1-3.91,3.12l.55.83-.21,1a19.06,19.06,0,0,0,4,.43l.47,0a38.7,38.7,0,0,0,3.55,9,20,20,0,0,1-5.52,6.49c-.56-.63-1.08-1.27-1.57-1.93,1.21-4.27,2.33-11.11-.6-12-1-.3-2,.27-2.92,1.3A40.64,40.64,0,0,1,41.39,51.57ZM38.77,78.31c-.37.22-.75.4-1.13.59.17-.44.33-.88.49-1.33C38.34,77.82,38.55,78.07,38.77,78.31Zm-1.1-13.13c.44.32.86,3.1-.3,7.95a28,28,0,0,1-2.31-4.48C36.26,66.3,37.32,65.21,37.67,65.18ZM35.45,85.79A40.9,40.9,0,0,1,34,75c0-1.18.06-2.35.16-3.51a30.88,30.88,0,0,0,2.5,4.17,33.14,33.14,0,0,1-1.83,4.65l.9.44.31,1a19.59,19.59,0,0,0,4.1-1.9,38.67,38.67,0,0,0,7.56,6,19.86,19.86,0,0,1-1.53,8.39c-.79-.27-1.57-.57-2.33-.89C42.76,89,40.3,82.5,37.33,83.21,36.32,83.45,35.74,84.44,35.45,85.79ZM45.28,96c-.21.37-.45.72-.69,1.07-.07-.46-.15-.93-.24-1.4ZM37.76,85.16c.55.06,2.3,2.26,3.71,7a27.78,27.78,0,0,1-4.23-2.72C37.1,86.84,37.48,85.36,37.76,85.16Zm8.37,18.92a41.25,41.25,0,0,1-8.25-11.7,31.61,31.61,0,0,0,4.24,2.36,32.8,32.8,0,0,1,.75,4.94l1-.06.74.67a18.61,18.61,0,0,0,2.61-3.7A38.69,38.69,0,0,0,56.75,98a19.84,19.84,0,0,1,2.88,8c-.82.17-1.64.3-2.46.4-3.09-3.19-8.45-7.58-10.69-5.49C45.73,101.66,45.72,102.78,46.13,104.08Zm13.63,4c0,.43,0,.86-.06,1.28-.3-.37-.6-.74-.92-1.11C59.11,108.15,59.43,108.1,59.76,108Zm-11.93-5.61c.5-.22,3.12.8,6.73,4.23a27.91,27.91,0,0,1-5-.24C48.1,104.2,47.69,102.73,47.83,102.42Zm3.75,6.2c.58,0,1.17.06,1.76.06,1,0,2-.07,3-.16a33.67,33.67,0,0,1,3.14,3.92l.83-.56,1,.22a19.71,19.71,0,0,0,.41-4.52A38.69,38.69,0,0,0,70.69,104a20,20,0,0,1,6.51,5.52c-.63.56-1.27,1.08-1.93,1.57-4.27-1.21-11.11-2.33-12,.6-.3,1,.27,2,1.3,2.92A40.66,40.66,0,0,1,51.58,108.62Zm13.6,3.71c.32-.44,3.1-.86,7.95.3a28,28,0,0,1-4.48,2.31C66.3,113.74,65.21,112.68,65.18,112.33ZM75,116c-1.18,0-2.35-.06-3.51-.16a30.88,30.88,0,0,0,4.17-2.5,33.14,33.14,0,0,1,4.65,1.83l.45-.9.94-.3a18.92,18.92,0,0,0-1.89-4.11,38.62,38.62,0,0,0,6-7.56,20,20,0,0,1,8.4,1.53c-.27.8-.57,1.57-.89,2.33-4.31,1.08-10.79,3.53-10.09,6.51.24,1,1.22,1.59,2.57,1.88A40.82,40.82,0,0,1,75,116Zm14.47-3.24c-2.63.14-4.11-.24-4.31-.52.06-.55,2.26-2.3,7-3.71A27.78,27.78,0,0,1,89.47,112.76Zm2.91-.64a31.61,31.61,0,0,0,2.36-4.24,32.8,32.8,0,0,1,4.94-.75l-.06-1,.67-.74a19.79,19.79,0,0,0-3.7-2.61A38.62,38.62,0,0,0,98,93.24a20.08,20.08,0,0,1,8-2.87c.17.82.3,1.64.4,2.46-3.19,3.09-7.58,8.46-5.49,10.69a2.18,2.18,0,0,0,1.62.62,5.14,5.14,0,0,0,1.52-.27A41,41,0,0,1,92.38,112.12Zm14-11.65c-2.21,1.43-3.67,1.84-4,1.7-.22-.5.8-3.12,4.23-6.73A27.91,27.91,0,0,1,106.41,100.47ZM108,90.24c.43,0,.85,0,1.28.07-.37.29-.73.59-1.1.9C108.16,90.89,108.1,90.57,108,90.24Zm.58,8.19a30.08,30.08,0,0,0-.08-4.83,33.33,33.33,0,0,1,3.91-3.12l-.56-.83.21-1a19.49,19.49,0,0,0-4.5-.41,38.36,38.36,0,0,0-3.55-9,20,20,0,0,1,5.52-6.5c.56.62,1.08,1.27,1.57,1.93-1.21,4.27-2.33,11.11.6,12a1.68,1.68,0,0,0,.54.08,3.41,3.41,0,0,0,2.38-1.38A40.74,40.74,0,0,1,108.61,98.43Zm2.62-26.75c.37-.21.75-.39,1.13-.58-.17.44-.33.88-.49,1.33Zm1.1,13.14c-.44-.32-.86-3.1.3-7.95a28,28,0,0,1,2.31,4.48C113.74,83.7,112.68,84.79,112.33,84.82Zm1-10.48a33.14,33.14,0,0,1,1.83-4.65l-.91-.45-.3-.95a19.36,19.36,0,0,0-4.1,1.9,38.67,38.67,0,0,0-7.56-6,20,20,0,0,1,1.53-8.39c.8.27,1.57.57,2.33.89,1,4.09,3.29,10.14,6.06,10.14a1.73,1.73,0,0,0,.45,0c1-.24,1.59-1.23,1.88-2.58A40.9,40.9,0,0,1,116,75c0,1.18-.06,2.35-.16,3.51A30.88,30.88,0,0,0,113.34,74.34Z"/><path d="M60.34,82.43a9.5,9.5,0,0,0,3.9-.2c.28-.08.56-.15.83-.25.06-.27.14-.53.22-.8a11.52,11.52,0,0,1,.57-1.62.54.54,0,0,0,0-.11,12.2,12.2,0,0,1,5.14-5.58,6.78,6.78,0,0,1,.93-.48c.12-.06.24-.09.36-.15.38-.15.77-.3,1.16-.42l.21-.06c.4-.11.79-.2,1.2-.28-.07-.25-.14-.51-.23-.76a10.9,10.9,0,0,0-1.81-3.26,11,11,0,0,0-1.31-1.34,9.1,9.1,0,0,0-1.17-.87l-.14,0c-.22.07-.44.13-.66.21s-.64.26-1,.4a14.11,14.11,0,0,0-4.26,2.9,15.16,15.16,0,0,0-1.68,2,15.45,15.45,0,0,0-1.37,2.41v0a14.35,14.35,0,0,0-1,8.22Z"/><path d="M84.52,81.15a9.71,9.71,0,0,0-.93-1.37,1.43,1.43,0,0,0-.11-.15A10.13,10.13,0,0,1,82,79.7a9.75,9.75,0,0,1-1.52-.13A10.9,10.9,0,0,1,76.42,78a10,10,0,0,1-1.27-1,10.72,10.72,0,0,1-1.29-1.32l0,0A11.71,11.71,0,0,1,73,74.53c-.14,0-.29.1-.44.17s-.58.28-.86.44a10.73,10.73,0,0,0-4.53,5c-.12.26-.22.53-.32.8a11.21,11.21,0,0,0-.45,1.77A15,15,0,0,0,67.64,84a.6.6,0,0,0,.08.08c.39.37.8.71,1.23,1s.9.64,1.38.93A15.8,15.8,0,0,0,75,88c.35.08.69.15,1,.2a13.34,13.34,0,0,0,1.52.17,15.86,15.86,0,0,0,8.42-1.79A10.86,10.86,0,0,0,84.52,81.15Z"/><path d="M66.79,66.21a14.6,14.6,0,0,1,1.88-.88l.43-.19c.49-.17,1-.33,1.5-.46a.61.61,0,0,0,.13,0c.55-.13,1.12-.23,1.69-.31a11.42,11.42,0,0,1,.89-1.56,10.9,10.9,0,0,1,2.36-2.48,11.26,11.26,0,0,1,1.38-.9,10.07,10.07,0,0,1,1.57-.71,10.82,10.82,0,0,1,9.22,1A15.86,15.86,0,0,0,75.26,57a15.44,15.44,0,0,0-2.51.75,15,15,0,0,0-2.24,1.09,16.12,16.12,0,0,0-4.09,3.44,17.15,17.15,0,0,0-1.19,1.61,15.43,15.43,0,0,0-1.33,2.51A16.9,16.9,0,0,0,63,69.12a14.9,14.9,0,0,1,2.06-1.83A16.67,16.67,0,0,1,66.79,66.21Z"/><path d="M86.44,72a17.17,17.17,0,0,1-.26,4.41c-.12.59-.25,1.17-.42,1.74a10.8,10.8,0,0,1-1.18,14.21A15.67,15.67,0,0,0,89,86.49a15.86,15.86,0,0,0-3-17.41A17.51,17.51,0,0,1,86.44,72Z"/><path d="M68.75,86.78a15.78,15.78,0,0,1-1.38-1.06,15.09,15.09,0,0,1-1.17-1.09,12.23,12.23,0,0,1-5.65.73,10,10,0,0,1-3-1.73,10.32,10.32,0,0,1-1.54-1.56,14.53,14.53,0,0,0,1.65,2.05,11,11,0,0,0,.92.88,15.65,15.65,0,0,0,2.82,2,15.83,15.83,0,0,0,11,1.68A18.42,18.42,0,0,1,70,87.57C69.58,87.33,69.16,87.06,68.75,86.78Z"/><path d="M80.73,78.14a8.35,8.35,0,0,0,1.93.11l.66,0,.59-.08.19,0,.11,0c.15-.48.29-.8.41-1.29s.23-1.1.3-1.65a15.43,15.43,0,0,0-.26-5.34c0-.22-.08-.45-.14-.67a17.59,17.59,0,0,0-1.88-4.37,15.5,15.5,0,0,0-4.18-4.45,10.81,10.81,0,0,0-1.42.77,9.57,9.57,0,0,0-1.88,1.66,9.34,9.34,0,0,0-1,1.45,11,11,0,0,0-.7,1.47c-.1.31-.2.62-.28.94A12.07,12.07,0,0,1,76,71.25c.13.35.22.71.32,1.07a11.67,11.67,0,0,1,.27,1.41,14.36,14.36,0,0,1,.11,1.45c0,.42,0,.84-.06,1.26A9.29,9.29,0,0,0,80.73,78.14Z"/></svg>