<svg id="Symbols" xmlns="http://www.w3.org/2000/svg" viewBox="0 0 150 150"><title>Aegishjalmur-bold</title><path d="M33.51,95.24a5,5,0,0,1,9.24-3.52c2.68,4.66,1.36,9.15,5.86,18.1s16.85,8.29,17.2.64a9.27,9.27,0,0,0-.46-3.6A31.24,31.24,0,0,0,108,84a35.54,35.54,0,0,0,1.63,3.27,38.34,38.34,0,0,0,3.19-2.89c-4.14-9.36,2.51-9.58,3.3-6,1.1,5-3.78,8.78-6,10.59-4.79,4-15.23,12.74-8.45,21.09,6.24,7.68,14.13,4,15.68,1.51-2,.92-4-2.77-3.2-4.23a5,5,0,0,1-7.66-6.25c2.69-4.65,7.24-5.75,12.74-14.13s-1.24-18.73-8-15.21A9.45,9.45,0,0,0,108.31,74a31.23,31.23,0,0,0-41.1-25.52,32.14,32.14,0,0,0,2-3,37.51,37.51,0,0,0-4.09-1.33c-6,8.27-9.56,2.62-6.86.15,3.77-3.44,9.49-1.12,12.16-.13,5.82,2.17,18.64,6.83,22.49-3.22,3.53-9.24-3.62-14.23-6.54-14.33,1.78,1.24-.39,4.86-2.07,4.88,5.79,2.32,3.81,9.76-1.57,9.76s-8.6-3.39-18.61-4S48.55,47.67,55,51.81a9.43,9.43,0,0,0,3.36,1.4,31.19,31.19,0,0,0-1.53,48.35,34.28,34.28,0,0,0-3.68-.24,39.21,39.21,0,0,0,.9,4.21c10.18,1.09,7,7,3.55,5.86-4.86-1.53-5.71-7.66-6.18-10.46-1-6.13-3.41-19.56-14-17.86-9.77,1.55-10.51,10.24-9.14,12.82C28.44,93.73,32.65,93.8,33.51,95.24ZM50.1,78a27.24,27.24,0,1,1,27.24,27.24A27.27,27.27,0,0,1,50.1,78Z"/><path d="M28.39,97.62c.34,5.13,6.58,6.18,8,6a3.76,3.76,0,0,1,4.06,4.63c1.31-1.36,1.8-4.33-5-7.31-3.45-1.51-2-5-2-5C31.59,94.89,28.2,94.82,28.39,97.62Z"/><path d="M122,94.82c-1.84-.45-4.65.61-3.82,8,.42,3.75-3.36,4.25-3.36,4.25,0,2.11,1.65,5.08,4,3.52,4.27-2.86,2.06-8.79,1.21-9.95A3.76,3.76,0,0,1,122,94.82Z"/><path d="M35.15,97.13A1.6,1.6,0,0,0,36.08,99l.15.09c4.12,1.8,6.45,3.93,6.94,6.34a4.63,4.63,0,0,1-.53,3.2,46.22,46.22,0,0,0,62.18,6.62,15,15,0,0,1-4.68-4A13.3,13.3,0,0,1,99,109.65a38.2,38.2,0,0,1-32.55,5.1,9.08,9.08,0,0,1-7.65,3.62h0a13.42,13.42,0,0,1-11.93-7.65,42.37,42.37,0,0,1-4-12.08A18.44,18.44,0,0,0,41,92.72a3,3,0,0,0-4.88-.56,3.35,3.35,0,0,0-.66,2.63l-.2,1.9C35.23,96.83,35.19,97,35.15,97.13Z"/><path d="M37.08,81.09a14.41,14.41,0,0,1,2.05-.17Q39,79.48,39,78A38.22,38.22,0,0,1,51,50.19a8.43,8.43,0,0,1-.37-6A13.06,13.06,0,0,1,63.4,35.21l.87,0a42.81,42.81,0,0,1,12.44,2.6,18.08,18.08,0,0,0,6.05,1.37,3,3,0,0,0,1-5.83L81.82,31.9c-.67-.07-1.35-.12-2-.16s-1.63-.06-2.45-.06c-.39,0-.78,0-1.17,0a21.23,21.23,0,0,0,2.25-1.47c3-2.24,5.36.79,5.36.79,1.82-1.08,3.57-4,1-5.21-4.61-2.27-8.64,2.6-9.22,3.92a4.08,4.08,0,0,1-2.53,2.14l-1,.11a4.42,4.42,0,0,1-2.52-1,2.83,2.83,0,0,0,.75,1.27q-1.09.16-2.19.39A46.32,46.32,0,0,0,31.3,83.17,15.4,15.4,0,0,1,37.08,81.09Z"/><path d="M114.62,69.12a9.15,9.15,0,0,1,7.13,5.11,13.53,13.53,0,0,1-.83,13.85,42.44,42.44,0,0,1-8.47,9.48,18.09,18.09,0,0,0-4.21,4.56,3,3,0,0,0,0,3,2.91,2.91,0,0,0,2.5,1.5,3.58,3.58,0,0,0,2.1-.78L115,105c.42-.58.82-1.17,1.22-1.77,0-.06,0-.1,0-.16-.47-4.17.06-7,1.61-8.77a4.62,4.62,0,0,1,3.47-1.56A46.28,46.28,0,0,0,95.89,35.57a15.09,15.09,0,0,1-1.09,6,13.23,13.23,0,0,1-.87,1.86A38.45,38.45,0,0,1,114.62,69.12Z"/><path d="M82.7,78a5.36,5.36,0,1,0-5.36,5.37A5.43,5.43,0,0,0,82.7,78ZM74,78a3.36,3.36,0,1,1,3.36,3.37A3.41,3.41,0,0,1,74,78Z"/><path d="M76.34,56.86v1.23H73.85v2h2.49v2.14H73.85v2h2.49V66.6H73.85v2h2.49V72h2V68.6h2.49v-2H78.34V64.23h2.49v-2H78.34V60.09h2.49v-2H78.34V56.86A5.44,5.44,0,0,0,82.7,51.6h-2a3.41,3.41,0,0,1-2.36,3.19V51.55l-2,.05v3.19A3.41,3.41,0,0,1,74,51.6H72A5.44,5.44,0,0,0,76.34,56.86Z"/><path d="M78.34,99.16V97.94h2.49v-2H78.34V93.79h2.49v-2H78.34V89.43h2.49v-2H78.34V84h-2v3.44H73.85v2h2.49v2.36H73.85v2h2.49v2.15H73.85v2h2.49v1.22A5.46,5.46,0,0,0,72,104.43h2a3.4,3.4,0,0,1,2.36-3.19v3.23l2,0v-3.19a3.4,3.4,0,0,1,2.36,3.19h2A5.46,5.46,0,0,0,78.34,99.16Z"/><path d="M82.94,67.47l-1.41,1.41,1.76,1.77-2.43,2.42,1.42,1.42,2.42-2.43,1.77,1.76,1.41-1.41-1.76-1.76L87.79,69l1.76,1.77L91,69.32l-1.76-1.76L90.72,66l1.76,1.76,1.42-1.41-1.76-1.76.87-.87a5.43,5.43,0,0,0,6.8-.63L98.4,61.71a3.41,3.41,0,0,1-3.93.59L96.75,60l-.7-.72-.74-.67-2.25,2.25A3.41,3.41,0,0,1,93.64,57l-1.41-1.41a5.45,5.45,0,0,0-.64,6.81l-.87.86L89,61.45l-1.41,1.42,1.76,1.76-1.52,1.52L86,64.38,84.62,65.8l1.76,1.76L84.7,69.23Z"/><path d="M59.37,97.4l2.25-2.26A3.4,3.4,0,0,1,61,99.07l1.41,1.41a5.43,5.43,0,0,0,.64-6.8l.87-.87,1.76,1.76,1.41-1.41-1.76-1.77,1.52-1.51,1.76,1.76,1.41-1.41L68.3,88.46,70,86.79l1.77,1.76,1.41-1.41-1.76-1.76L73.82,83,72.4,81.53,70,84,68.21,82.2,66.8,83.62l1.76,1.76-1.67,1.67-1.76-1.76L63.71,86.7l1.76,1.76L64,90l-1.77-1.76-1.41,1.41,1.76,1.76-.87.87a5.45,5.45,0,0,0-6.8.64l1.41,1.41a3.41,3.41,0,0,1,3.93-.58L57.92,96Z"/><path d="M61.67,63.76l.87.87-1.76,1.76,1.41,1.41L64,66l1.51,1.52-1.76,1.76,1.42,1.42L66.89,69l1.67,1.68L66.8,72.41l1.41,1.41L70,72.06l2.43,2.43,1.42-1.42-2.43-2.42,1.76-1.77-1.41-1.41L70,69.23,68.3,67.56l1.76-1.76-1.41-1.42-1.76,1.77-1.52-1.52,1.76-1.76-1.41-1.42L64,63.21l-.87-.86a5.45,5.45,0,0,0-.64-6.81L61,57a3.41,3.41,0,0,1,.58,3.93L59.34,58.6,58,60l2.26,2.26a3.41,3.41,0,0,1-3.93-.59l-1.41,1.42a5.43,5.43,0,0,0,6.8.63Z"/><path d="M93,92.26l-.87-.86,1.76-1.77-1.42-1.41L90.72,90l-1.51-1.52L91,86.7l-1.42-1.41-1.76,1.76-1.67-1.67,1.76-1.76L86.47,82.2,84.7,84l-2.42-2.43L80.86,83l2.43,2.43-1.76,1.76,1.41,1.41,1.76-1.76,1.68,1.67-1.76,1.77L86,91.64l1.76-1.76,1.52,1.52-1.76,1.76L89,94.57l1.76-1.76.87.87a5.43,5.43,0,0,0,.64,6.8l1.41-1.41a3.4,3.4,0,0,1-.58-3.93l2.28,2.29L96.73,96l-2.26-2.25a3.41,3.41,0,0,1,3.93.58l1.41-1.41A5.45,5.45,0,0,0,93,92.26Z"/><path d="M97.27,77V74.52h-2V77H93.12V74.52h-2V77H88.76V74.52h-2V77H83.32v2h3.44V81.5h2V79h2.36V81.5h2V79h2.15V81.5h2V79h1.22a5.46,5.46,0,0,0,5.27,4.37v-2A3.41,3.41,0,0,1,100.57,79h3.23l0-2h-3.19a3.4,3.4,0,0,1,3.19-2.36v-2A5.46,5.46,0,0,0,98.49,77Z"/><path d="M57.41,79V81.5h2V79h2.15V81.5h2V79h2.36V81.5h2V79h3.44V77H67.92V74.52h-2V77H63.56V74.52h-2V77H59.41V74.52h-2V77H56.19a5.46,5.46,0,0,0-5.27-4.36v2A3.4,3.4,0,0,1,54.11,77H50.88l0,2h3.19a3.41,3.41,0,0,1-3.19,2.37v2A5.46,5.46,0,0,0,56.19,79Z"/></svg>