<svg id="Symbols" xmlns="http://www.w3.org/2000/svg" viewBox="0 0 150 150"><title>Valknut-bold</title><path d="M26,75A49,49,0,1,0,75,26,49.05,49.05,0,0,0,26,75ZM75,34A41,41,0,1,1,34,75,41,41,0,0,1,75,34Z"/><path d="M75,111.47A36.47,36.47,0,1,0,38.53,75,36.51,36.51,0,0,0,75,111.47Zm0-64.94A28.47,28.47,0,1,1,46.53,75,28.5,28.5,0,0,1,75,46.53Z"/><polygon points="81.36 84.7 80.23 82.61 78.33 79.11 78.24 78.94 77.49 77.56 77.11 76.85 76.3 75.36 75.97 74.75 75.11 73.16 71.43 66.37 66.88 74.75 64.62 78.94 64.52 79.11 57.62 91.86 85.22 91.86 82.49 86.8 81.36 84.7"/><polygon points="64.5 74.75 71.43 61.97 76.3 70.96 77.89 68.02 79.08 65.82 78.15 64.1 71.25 51.35 64.35 64.1 57.44 76.85 63.37 76.85 64.5 74.75"/><polygon points="78.14 71.95 77.48 73.16 77.48 73.17 78.35 74.75 78.68 75.37 79.48 76.85 80.61 78.94 82.61 82.61 83.74 84.7 98.84 84.7 91.95 71.95 85.05 59.21 81.46 65.82 80.28 68.02 79.08 70.22 78.14 71.95"/></svg>