<svg id="Symbols" xmlns="http://www.w3.org/2000/svg" viewBox="0 0 150 150"><title>Trollcross-bold</title><path d="M109,63.67A34,34,0,1,0,53.71,90.15c-2.55,3.92-6,9.56-6.5,10.88a13.87,13.87,0,0,0-1,5.3,14,14,0,0,0,28,0,13.82,13.82,0,0,0-2.6-8.11l-6.5,4.66a5.9,5.9,0,0,1,1.1,3.45,6,6,0,0,1-12,0,5.92,5.92,0,0,1,.42-2.21c.47-1,3.66-6.29,5.89-9.72a33.87,33.87,0,0,0,29,0c2.23,3.43,5.41,8.69,5.87,9.69a5.81,5.81,0,0,1,.44,2.24,6,6,0,0,1-12,0,5.9,5.9,0,0,1,1.1-3.45l-6.5-4.66a13.82,13.82,0,0,0-2.6,8.11,14,14,0,0,0,28,0,13.7,13.7,0,0,0-1-5.26,126.55,126.55,0,0,0-6.51-10.92A34,34,0,0,0,109,63.67Zm-34,26a26,26,0,1,1,26-26A26,26,0,0,1,75,89.67Z"/></svg>