<svg id="Symbols" xmlns="http://www.w3.org/2000/svg" viewBox="0 0 150 150"><title>Yggdrasil-bold</title><path d="M75,26a49,49,0,1,0,49,49A49.05,49.05,0,0,0,75,26Zm38.55,35a6.69,6.69,0,0,0-1.5,2.1,15.86,15.86,0,0,1-4.49-3.49,13.21,13.21,0,0,1,4.58-2C112.66,58.76,113.13,59.88,113.55,61Zm.65,2a42.35,42.35,0,0,1,1.11,4.54l-2-3.52A8.38,8.38,0,0,0,114.2,63Zm-8.14-6.59c3-2,2.87-4.31,2.56-4.8-1.75.68-3.69,4-4,4.41a3.81,3.81,0,0,1-2.47.39c2.37-1.37,3.86-4.12,3.74-5.18-2.9.21-4,2.74-5,4.61a2.33,2.33,0,0,1-3.06.07,20.33,20.33,0,0,1,3.68-4.18c1.13.37,3.87-.75,4.18-1-.22-.24-.43-.49-.64-.69,1.06.27,2.07.54,3,.79a39.71,39.71,0,0,1,2.28,3.46C110,55.45,108.88,56,106.06,56.4ZM94,52.53a10.89,10.89,0,0,0-5,5.62,11.93,11.93,0,0,0-2.05,1c1.24-1.43,3.85-4.24,1.23-6.78a12.46,12.46,0,0,0-2.17,6.29,29.9,29.9,0,0,1-2.5,2.25c.63-1.43,2.62-4.87,2-6.86-2.43,1.24-3.11,1.12-3.48,6.23a3.23,3.23,0,0,1-2.06,1.5c-1-4.26,5.67-11,8.54-10.85a16.59,16.59,0,0,1,3.31.37c2.11.81,4.73-.93,4.8-1.62A11.77,11.77,0,0,0,92,50c-.87-.12.93-2.11,5.3-1.62.54.06,1.18.17,1.86.29a14.15,14.15,0,0,1-2,3.08c-1,1-3.74,5-6.54,5.93C93,55.53,94.52,53.47,94,52.53Zm7.3,52.26c2.87-1.15-1.58-3.5-1.8-3.61,2.62,2.5-1.69,5.36-1.07.85.42-3,2.62-1.86,2.62-1.86,2.06,5,5.05,3.12,3.18-.06.38,2.81-2.77,1.3-1.21-1.07s5.52-1.86,3.21,1.69a8.47,8.47,0,0,0-.9,1.81,43.11,43.11,0,0,1-3.7,3.58c-6.19-.26-9.3-2.1-4.75-5.26-2,.42-7.75-2.12-.94-1.93C99.85,99,94.21,107,101.32,104.79ZM95,107.35a32.63,32.63,0,0,0,5,.1,41.06,41.06,0,0,1-8.5,5.06A25.83,25.83,0,0,0,95,107.35Zm-4.37,5.53a39.65,39.65,0,0,1-5.42,1.82,12.67,12.67,0,0,0,4.94-4.86c4.72-9.26-8-10.71-9.08-11.74C76.8,94.17,88,97.28,91.49,104,93.37,107.69,92.1,110.36,90.66,112.88ZM60,113.14c-.53-.58-1-1.2-1.57-1.84-6-10.48,11.34-15.06,11.34-15.06-.56,2.88-3,3.21-7.61,5.65s-3.43,10.07.75,11.82c-1.9-3.25-3.43-8.86,4.17-10.92,1.19,9.85,6.7,12.74,7.74,13.21A40.8,40.8,0,0,1,60,113.14Zm-14.79-10a32.92,32.92,0,0,0-2.07-5.07,25.36,25.36,0,0,1,3.93.62c-4.15,2.31.15,8.7,2.24,1.12a2.8,2.8,0,0,0,1.71.87c-2.49,1-2.76,4.25-1.71,4.68S54,105.29,53.4,102c2.65-.06,3.44,1.11,2.34,2.5-1.46,1.82-4.72,1.84-7.37,1.65A38.91,38.91,0,0,1,45.21,103.13Zm10.21,4.47a8.17,8.17,0,0,0,.94,3.9,41.43,41.43,0,0,1-5.85-3.64A29.27,29.27,0,0,0,55.42,107.6Zm20-8.21c6.61,5.43,3.09,12.94,3.09,12.94,4.49-3.24,5.17-9.1,5.17-9.1,9.53,3.31,3.28,9.39.25,11.78A40.91,40.91,0,0,1,75,116C74.67,115.06,66.7,106,75.41,99.39Zm-4.33-54.5a5,5,0,0,1,0,3.36c-1.91-.12-6.45-6-7.06-6.65-.23-1.35,1.41-1.17.34-5.5-2.3,1.62-2.18,2.37-1.23,4.89a21.43,21.43,0,0,1-3.37-1.3L64,35.52s4.49,1.45,4.16,3.32A7.59,7.59,0,0,0,65,37.25c.6,1.64.17,2.5,4.24,3,2.2,2,2.42,3.25,2.27,3.39-1.64-2.38-6.17-3.49-6.17-3.49C65.71,42.32,65.47,43.15,71.08,44.89Zm0,15.79c.43,2.67-1.44,2.42-2.83.92.09-2.14-.22-4.55-3.81-5.17-.18,1.69.42,2.34,2.53,4.54,0,0-2,.09-5.1-3.47a10.29,10.29,0,0,0-.89-6.26c-1.63,1.54-1.5,3.36-.38,5.65a7.74,7.74,0,0,1-1.81-1.59,12.61,12.61,0,0,0-.94-5.89c-1.22.89-1.12,2.48-.42,5.66-1.45-.93-1.75-5-1.07-5.75,1.58-2,1.58-2.11,1-4.35a10.26,10.26,0,0,0-1.12,3.09,1.68,1.68,0,0,1-.89.65s2.67-6.22,2.38-7c0,0,2.91.94,3.42,2.76,0,0-1.84-2.1-3-1.76.12,3.12,4.3,2,6,4.76,0,0-2.41-.27-6.28-2.73.28,3.8,2.91,4.08,6.79,4.17-2,.16-2.1-.1-4.2.79,2.08,2,2.77,1.49,5.19.24,0,0,1.77,2.29,3.74,4.41,0,0,.14.27-.61.23-2.62-2.53-5.69-1.13-6.44.51.52.75,4.87.38,6.74.18a17.77,17.77,0,0,1,2.14,3.8h-.66c-.61-2.58-1.7-3-3.53-2.72A10.13,10.13,0,0,0,71,60.68ZM47.84,52c-.83,2.06.29,3.65,2.16,5.29,0,0-.7.37-2.48-1.55-.51-2.05-.7-2.43-3.55-3.27,0,1.17,0,3.65,2.29,4.07a5,5,0,0,1,1.68,1.49c-5.78-1-7.57-2.85-8-4.24.53-.89,1.11-1.75,1.72-2.59.36,0,.77-.1,1.26-.13,0,0,5-.42,6.82-.42s3.7.65,3.24,2.8a3.34,3.34,0,0,0-3.37-2s1.08,2.62,2.71,2.76c.56.15,1.45.75,1.78,2.85-1.78.71-2.86.71-3.84-.7C50.23,56.38,51.26,51.19,47.84,52Zm-1-6.82c.17,1,0,4.74-1.8,3.21l-.73-.61C45.15,46.9,46,46,46.88,45.21Zm4.92-4c-.62,1.52-.56,2.41.63,4.14,1.37,2-1.06,3-2.18,2.37-.65-.36-.29-2.92.08-5.45C50.81,41.92,51.3,41.57,51.8,41.22Zm1.94,3.89c0-2-.24-3.56-1.24-4.36l.64-.41a33.67,33.67,0,0,0,3.59.59A26.86,26.86,0,0,0,53.74,45.11Zm48.08,4.1,1.48.35a6.69,6.69,0,0,0-1.79,1C101.63,50.06,101.73,49.62,101.82,49.21Zm-1.63-3.65a8.69,8.69,0,0,0-2.92-.2,4.63,4.63,0,0,0,1.85-3.48c.38.27.75.56,1.12.84A17.56,17.56,0,0,0,100.19,45.56Zm-4.54-1.07a2.16,2.16,0,0,1-2.12.25c.62-2.62,2.55-3.81,2.55-4.25s-.39-.67-.76-1.08c.93.54,1.84,1.1,2.72,1.69A10.65,10.65,0,0,0,95.65,44.49Zm-9.27-5.93c.73,2.2,1.28,3.7,1.62,4.58.22.62.35.94.35,1a3.89,3.89,0,0,1-1.54,3.23c.79-4.21.79-4.76-1.45-6.4-1.36,3.23.79,5.47.21,6.49-.43.78-6.63,5.11-7.55,5.61-1.41-.56-.24-3.6,1.25-4.07,2.82,0,3.33-.74,3.37-1.72-2.52-.89-3.08-.88-4.2,1.35-1.55,1-1.46.28-1.27-.28a3.33,3.33,0,0,1,1.55-1.59c.88-.14,4.49-.76,4.71-4.48A6,6,0,0,0,78,46.05a14.7,14.7,0,0,1,2.73-4.68c1.1.44,3.94,1.39,4.68-1.68a2.73,2.73,0,0,0,.1-.54,1.17,1.17,0,0,0-.66-.19,7.87,7.87,0,0,0-3.23,1.14c.74-.79,2.34-2.33,2.34-2.33,1.21.37,2.92-1.8,2.92-1.8.85-.23,6.49,6.27,2.53,9.05C90,41.51,90.63,39.15,86.38,38.56Zm6.6-.4c-.06.2-.13.33-.24.36-.29.06-.94-.46-1.61-1.21C91.75,37.58,92.37,37.86,93,38.16Zm-12-2.78c-.52-.36-1-.75-1.5-1.14,1.2.13,2.39.31,3.55.55Zm-4,3.23c.28-1.17.13-2.84-.91-3.26-1.4,1.36-1.68,2.87-.09,3.9-.28,1.67-2.08.81-2-.78C74,37.12,76.19,35.41,75.8,34l.65,0C77.48,35.45,78.29,37.55,76.94,38.61ZM74.17,34a4.83,4.83,0,0,0-1.26,3.38A2.63,2.63,0,0,1,73.75,34Zm-3.35.19c-1,.78-1.68,1.3-1.68,1.3a13.24,13.24,0,0,0-2.09-.73C68.29,34.54,69.54,34.34,70.82,34.21ZM59.5,37.05A10.44,10.44,0,0,0,58,38.84a4.93,4.93,0,0,0,0-1.12C58.48,37.49,59,37.26,59.5,37.05Zm42.88,9.18c.1-.64.13-1,.13-1,.17-.05.32-.11.47-.17.9.85,1.77,1.73,2.59,2.65A26.34,26.34,0,0,0,102.38,46.23Zm-64,10.38c.85.52,1.26.88,2.33,1.6,1.5,1,2.81,1,1.44,2s-5.8,5.3-5.8,6.3A13.94,13.94,0,0,1,39.71,65c-1.81,5.55-1.81,6.18,1.62,7.3.25-3.3-1.12-4.8-.56-6.61a6.3,6.3,0,0,1,7-4.62c-4,2.13-5.42,3.68-4.11,7.24C47.38,64,47.25,66,47.07,63.2c1.62-1.87,2.68-2.5,6.92-2.37-7.42,5.55-6.36,5.61-4.87,9.72a10.61,10.61,0,0,0,2.69-6.17,14.76,14.76,0,0,1,1.8-2.3c-.75,1.69-2.3,3-.56,6a7.86,7.86,0,0,0,1.38-5.55c.93-1.62,3.49-1.74,7.79.63-5,.75-5.43,1.61-6,5.17C60,67.06,61.1,65,61.41,64.51a4.65,4.65,0,0,1,4.18,1.43c-4.12-.75-5,1.56-6,3.18,4.06.12,5.31-2,5.31-2l.93-.07c3.8,4.3,3.49,1.62,4.87,6a19,19,0,0,1-.19,10.73c-.56,1.37-4.37,8-5.43,8.79s-5.49,3.67-7.79,3.86a29.08,29.08,0,0,1-7.55-.31c-1.68-.44-2.4-.37-6,.09-1.58.21-2.92.11-3.71.22a40.9,40.9,0,0,1-1.69-39.82Zm72,39a38.86,38.86,0,0,0-12.32.81C90.6,98.33,87.73,92.69,86.67,92s-3.37-1.38-4.31-3.62a14,14,0,0,1,0-11.85c2.5-5-.94-4.44,0-6.92,1.27-3.51,2.75-4.26,5.06-3.51.28,2.11,2.74,3.64,5,4.63.81-2.75.87-4.86-4.37-5.48a19.27,19.27,0,0,1,7.48,1C94.28,62.7,92,61.9,86.85,64c5.49-3.18,8.74-3.32,10.61-1.64-.5,5,1,6.74,1,6.74,2.75-2.87,2-5.37.56-7.05,3.93,3.18,1.88,4.68,5.12,7.17C106.87,63,99,60.7,99,60.7c6.8.25,7.68,3.43,7.68,3.43a7.36,7.36,0,0,0,3,6.05c1.06-3-.56-5.67-2.12-7.42,4.86,2.43,3.8,5.23,3.8,5.23-1.61,1.88-1,5.5-1,5.5,3-1.87,3.55-5.24,2.68-6.8a22.51,22.51,0,0,0,2.36,1.77A40.27,40.27,0,0,1,116,75,40.77,40.77,0,0,1,110.4,95.65Z"/></svg>