<svg id="Symbols" xmlns="http://www.w3.org/2000/svg" viewBox="0 0 150 150"><title>Webofwyrd-bold</title><path d="M52.19,25.22l-.1-.1-.1.1H45.2V125H52l.1.1.1-.1h1v-1L71,106.18V125h8V106.18L96.8,124v1h1l.1.1.1-.1h6.79V25.22H98l-.1-.1-.1.1h-1v1L79,44V25.22H71V44L53.2,26.23v-1ZM96.8,92.12,91,86.29l5.82-5.83Zm0-22.36-6.19-6.2,6.19-6.19Zm-.3,5.35-8.35,8.35-8.73-8.71,8.36-8.36ZM71,92.61l-6.32-6.32L71,80ZM79,80l6.32,6.31L79,92.61Zm0-10.47V57.61l6,6Zm-8,0-6-6,6-6Zm-.42,5.24-8.73,8.71L53.5,75.11l8.72-8.72ZM53.2,80.46,59,86.29,53.2,92.12Zm0-10.7V57.37l6.19,6.19Zm0,48.57V97.78l8.65-8.66L71,98.27v2.25ZM79,100.52V98.27l9.15-9.15,8.65,8.66v20.55ZM96.8,31.89V51.72l-9,9L79,52V49.7ZM71,49.7V52l-8.78,8.79-9-9V31.89Z"/></svg>