<svg id="Symbols" xmlns="http://www.w3.org/2000/svg" viewBox="0 0 150 150"><title>Svefnthorn-bold</title><path d="M30.42,90.5a10.11,10.11,0,1,0,12.11-9.91v-6.2h6v-4h-6v-2h6v-4h-6v-2h6v-4h-6v-2h6v-4h-6V21.19l-9.4,16.28-6.84-5-2.36,3.23L31.12,41,27.74,46.8l3.47,2,3.16-5.47,4.16,3v6h-6v4h6v2h-6v4h6v2h-6v4h6v2h-6v4h6v6.2A10.13,10.13,0,0,0,30.42,90.5Zm6-50.66,2.15-3.72v5.29Zm-2,50.66a6.1,6.1,0,0,1,4.11-5.76V96.26A6.1,6.1,0,0,1,34.42,90.5Zm12.22,0a6.1,6.1,0,0,1-4.11,5.76V84.74A6.1,6.1,0,0,1,46.64,90.5Z"/><path d="M53.76,103.77a10.11,10.11,0,1,0,12.11-9.91V68.39h6v-4h-6v-2h6v-4h-6v-2h6v-4h-6V23.07L51.08,49l3.47,2,7.32-12.84V52.39h-6v4h6v2h-6v4h6v2h-6v4h6V93.86A10.13,10.13,0,0,0,53.76,103.77Zm4,0A6.11,6.11,0,0,1,61.87,98v11.53A6.11,6.11,0,0,1,57.76,103.77Zm12.22,0a6.11,6.11,0,0,1-4.11,5.76V98A6.11,6.11,0,0,1,70,103.77Z"/><path d="M108.9,101.2l.44-.19a6.8,6.8,0,0,0,3.94-6.14V92.08a6.12,6.12,0,0,1,3.29,2.66A5.32,5.32,0,1,0,123,87.79l-1.07,3.86a1.32,1.32,0,1,1-1.6,1.69l0-.14a10.27,10.27,0,0,0-7-5.29V74.39h6v-4h-6v-2h6v-4h-6v-2h6v-4h-6v-2h6v-4h-6v-32l-11.66,16.3-.13.17,3.17,2.45.25-.36,4.37-6.1V52.39h-6v4h6v2h-6v4h6v2h-6v4h6v2h-6v4h6v13.2a16.53,16.53,0,0,0-4.66.73,6.63,6.63,0,0,0-4.92,6.53,6.71,6.71,0,0,0,.79,3.17l.14.28,0,0a6.79,6.79,0,0,0,8.24,2.88Zm-4.87-5,0-.09a2.83,2.83,0,0,1-.28-1.22,2.66,2.66,0,0,1,2-2.68l.22-.07a12.5,12.5,0,0,1,3.34-.51v3.26a2.77,2.77,0,0,1-1.48,2.46l-.15.08a2.69,2.69,0,0,1-1.16.25A2.78,2.78,0,0,1,104,96.16Z"/><path d="M80.79,109.44A6.63,6.63,0,0,0,75.87,116a6.71,6.71,0,0,0,.79,3.17l.15.28,0,0a6.79,6.79,0,0,0,8.24,2.88l.44-.19A6.8,6.8,0,0,0,89.45,116v-2.8a6.17,6.17,0,0,1,3.29,2.67,5.32,5.32,0,1,0,6.42-7l-1.07,3.86a1.31,1.31,0,0,1-.35,2.58,1.34,1.34,0,0,1-1.25-.89l0-.14a10.24,10.24,0,0,0-7-5.29V68.39h6v-4h-6v-2h6v-4h-6v-2h6v-4h-6V21.19L77.69,41.57a2.14,2.14,0,0,1-.13.22c-.28.43-.55.59-.66.59s-1-.69-1.25-2.25l-4,.62c.52,3.32,2.66,5.63,5.2,5.63a4.87,4.87,0,0,0,4-2.45c.1-.16.2-.33.25-.43l4.26-7.38V52.39h-6v4h6v2h-6v4h6v2h-6v4h6v40.32A16.18,16.18,0,0,0,80.79,109.44ZM85.45,116A2.78,2.78,0,0,1,84,118.43l-.15.08a2.84,2.84,0,0,1-1.16.25,2.79,2.79,0,0,1-2.46-1.48l0-.09a2.83,2.83,0,0,1-.28-1.22,2.65,2.65,0,0,1,2-2.68l.23-.08a12.84,12.84,0,0,1,3.33-.5Z"/></svg>