<svg id="Symbols" xmlns="http://www.w3.org/2000/svg" viewBox="0 0 150 150"><title>Vegvisir-bold</title><path d="M117.41,69.38h7.48v-2h-9.48v6h-9.14a6.07,6.07,0,0,1,5.71-4v-2a8.07,8.07,0,0,0-7.8,6h-.93V70.49h-2v2.86H100a8.06,8.06,0,0,0-7.8-6v2a6.07,6.07,0,0,1,5.71,4H89.39a14.45,14.45,0,0,0-3.53-7.59l8.65-8.53a5.84,5.84,0,0,1-.2,5.53,1.49,1.49,0,0,0,.23-.8,1.58,1.58,0,0,0-.48-1.14,1.63,1.63,0,0,0-2.28,0h0a1.59,1.59,0,0,0,0,2.28,1.62,1.62,0,0,0,2.28,0,1.24,1.24,0,0,0,.18-.22,6.16,6.16,0,0,1-.9,1.15l1.4,1.42A7.88,7.88,0,0,0,96,55.77l1.2-1.19a8.15,8.15,0,0,0,9.8-1.21L105.59,52A6.15,6.15,0,0,1,98.7,53.1L104,47.9l4.28,4.22,6.7-6.6-1.4-1.43-5.3,5.22-2.86-2.82,5.35-5.27-1.41-1.42-.7-.72h0l-.7-.71-5.38,5.31-2.87-2.82,5.28-5.2-1.41-1.43-6.71,6.63,4.28,4.23-5.29,5.22A5.89,5.89,0,0,1,97,43.51l-1.41-1.42a7.88,7.88,0,0,0-2.36,5.64,7.8,7.8,0,0,0,1.12,4L93.14,53a8.14,8.14,0,0,0-9.8,1.21l1.41,1.42a5.87,5.87,0,0,1,1.09-.84l-.11.09A1.61,1.61,0,0,0,88,57.13h0a1.61,1.61,0,0,0,0-2.29,1.64,1.64,0,0,0-1.56-.4,6.14,6.14,0,0,1,5.2,0l-8.83,8.71a14.72,14.72,0,0,0-6-2.19V49.63h3.76v-2H76.85V44.77h4.58v-2H76.85V39.9h3.76v-2H76.85V34.83h6.07V25.47h-2v7.36H76.85V25.35h-4v7.48H68.79V25.47h-2v9.36h6.06V37.9H69.1v2h3.75v2.87H68.28v2h4.57v2.86H69.1v2h3.75V61a14.77,14.77,0,0,0-6.79,2.78L52.38,50.25a6.11,6.11,0,0,1,6.89,1.15L60.68,50a8.15,8.15,0,0,0-9.8-1.22l-1.17-1.15L54,43.38l-8.87-8.75-1.41,1.42,7.44,7.33L48.28,46.2l-1.09-1.08L49,43.38,47.55,42l-.6.59a5,5,0,0,0-1.48-3.46,5.17,5.17,0,0,0-7.22,0,5,5,0,0,0,0,7.16,5.08,5.08,0,0,0,3.47,1.46l-.56.56,1.4,1.42,1.78-1.76L45.44,49l-2.86,2.83-7.46-7.36-1.4,1.43,8.86,8.74,4.28-4.23L48,51.58a7.88,7.88,0,0,0,1.25,9.68l1.4-1.42A5.89,5.89,0,0,1,49.51,53L63.2,66.54a14.36,14.36,0,0,0-2.87,6.81H35.42V60.41H25.94v2h7.48v5.32H25.94v2h7.48v3.62H25v4h8.42v4.32H25.94v2h7.48V88.3H25.94v2h9.48v-13H60.33a14.43,14.43,0,0,0,3,6.94l-12,11.83a5.88,5.88,0,0,1,1.17-6.79L51.06,87.9a7.9,7.9,0,0,0-2.36,5.64,7.78,7.78,0,0,0,1.12,4l-.67.66-1.78-1.76L46,97.91l1.76,1.73-.83.82-4.28-4.22L33.76,105l1.4,1.43,7.46-7.35,2.85,2.82-1.67,1.65L42,101.76l-1.41,1.43,1.77,1.73-1.29,1.27-1.78-1.75-1.41,1.42,1.76,1.74-1.59,1.57L40.88,112l1.63-1.61,1.79,1.76,1.4-1.42L43.93,109l1.29-1.27L47,109.49l1.4-1.42-1.76-1.74,1.67-1.65,2.87,2.82-7.44,7.33,1.41,1.43L54,107.5l-4.28-4.23.83-.82,1.78,1.76,1.4-1.42L52,101.05l.66-.65a8.2,8.2,0,0,0,4.1,1.11,8.08,8.08,0,0,0,5.7-2.32l-1.4-1.43a6.12,6.12,0,0,1-6.9,1.15l12-11.85a14.6,14.6,0,0,0,6.67,2.68v18.51h-12v14.42H59v2h5.76v-2H62.84V110.25h2V113h2v-2.74h6v4.91H67.64v5.91h2v-3.91h3.21v8.19h4v-8.19h3.22v3.91h2v-5.91H76.85v-4.91H82.9V113h2v-2.74h2v12.49H85v2h5.76v-2H88.88V108.25h-12V89.74a14.59,14.59,0,0,0,7.18-3l7.72,7.6-2.64,2.6,1.41,1.43,2.65-2.62,2.06,2L92,100.91l1.4,1.42,3.24-3.19,2.06,2-2.63,2.59,1.4,1.43,2.65-2.62,2.21,2.18L98.07,109l6.72,6.62,1.4-1.42-5.27-5.2,2.86-2.83,2.09,2.07-1.74,1.71,1.41,1.43,1.75-1.74,1.87,1.85,2.81-2.85-1.83-1.81,1.79-1.76-1.41-1.42-1.8,1.78-2.09-2.07,2.86-2.82,5.29,5.22,1.41-1.42-6.7-6.61L105.2,102,103,99.77l2.64-2.6-1.41-1.42-2.65,2.62-2.07-2,3.22-3.17-1.4-1.43-3.24,3.19-2.06-2,2.63-2.6-1.4-1.42-2.66,2.61-7.8-7.69a14.47,14.47,0,0,0,2.6-6.44h8.52a6.07,6.07,0,0,1-5.71,4v2a8.06,8.06,0,0,0,7.8-6h1.25v2.87h2V77.35h.93a8.07,8.07,0,0,0,7.8,6v-2a6.07,6.07,0,0,1-5.71-4h9.14v6h9.48v-2h-7.48v-4H125v-4h-7.59ZM93.19,62.24a.38.38,0,0,1-.54,0,.41.41,0,0,1-.11-.28.39.39,0,0,1,.11-.28.39.39,0,0,1,.54,0,.39.39,0,0,1,.11.28A.41.41,0,0,1,93.19,62.24Zm-6.32-6.65a.38.38,0,0,1,.26.11.4.4,0,0,1,.12.29.4.4,0,0,1-.11.27l-.54-.56A.39.39,0,0,1,86.87,55.59Zm-.27.12.54.55h0a.37.37,0,0,1-.53,0,.39.39,0,0,1-.12-.28A.36.36,0,0,1,86.6,55.71Zm-47.85-13a3,3,0,0,1,.9-2.15,3.15,3.15,0,0,1,4.41,0A3,3,0,0,1,45,42.67a2,2,0,0,1,0,.24l-3-3L39.1,42.76l3,3a3.16,3.16,0,0,1-2.43-.88A3,3,0,0,1,38.75,42.67ZM74.86,81.9a6.55,6.55,0,1,1,6.68-6.55A6.63,6.63,0,0,1,74.86,81.9Z"/></svg>