<svg id="Symbols" xmlns="http://www.w3.org/2000/svg" viewBox="0 0 150 150"><title>Gungnir-bold</title><path d="M84.28,95.12a34.48,34.48,0,0,1,10.28,4.8l1.26.87,1.17-1a34.13,34.13,0,0,0,9.94-14.28l.52-1.45-1.27-.88a55.5,55.5,0,0,0-8.46-4.8l-2-.9-.75,2A21.56,21.56,0,0,1,84,91.38l-.06,0A56.9,56.9,0,0,1,90.22,68L91,66.58l-12.1-42.3L78,21.38H72L59,66.58l.73,1.4a57.33,57.33,0,0,1,6.3,23.42l-.07,0A21.58,21.58,0,0,1,55,79.5l-.75-2-2,.9a55.5,55.5,0,0,0-8.46,4.8l-1.27.88L43,85.52A34.13,34.13,0,0,0,53,99.8l1.17,1,1.26-.87a34.48,34.48,0,0,1,10.28-4.8l.45-.13v.7a33.72,33.72,0,0,0-8.86,3.81l-2.78,1.71,2.78,1.7a33.85,33.85,0,0,0,7.92,3.54A56,56,0,0,1,63,114.9l-.82,2.37L75,130.08l12.78-12.77L87,114.94a56.17,56.17,0,0,1-2.2-8.49,33.73,33.73,0,0,0,7.91-3.54l2.79-1.7L92.68,99.5a33.57,33.57,0,0,0-8.86-3.81V95ZM97.9,82.91a51.81,51.81,0,0,1,4.69,2.7,30,30,0,0,1-7.08,10.15,37.92,37.92,0,0,0-5.91-3A25.61,25.61,0,0,0,97.9,82.91ZM54.46,95.76a30.18,30.18,0,0,1-7.09-10.15,53.38,53.38,0,0,1,4.7-2.7,25.67,25.67,0,0,0,8.29,9.81A37.82,37.82,0,0,0,54.46,95.76Zm12.39,7a30,30,0,0,1-4.28-1.56A30.08,30.08,0,0,1,67,99.61a8,8,0,0,0-.25,2A7.72,7.72,0,0,0,66.85,102.76Zm8.16,16-3.66-3.66c.55-1.84,1-3.72,1.41-5.61a8.36,8.36,0,0,0,2.24.32,8.19,8.19,0,0,0,2.21-.31q.58,2.86,1.42,5.64Zm3.28-14.52a4.25,4.25,0,0,1-6.58,0,4.29,4.29,0,0,1-.95-2.69,4.24,4.24,0,0,1,8.48,0A4.19,4.19,0,0,1,78.29,104.25ZM75.86,93.38c-.29,0-.57,0-.86,0a8.85,8.85,0,0,0-.89,0,66.14,66.14,0,0,0-6.53-27.63L75,39.87l7.4,25.89A66.06,66.06,0,0,0,75.86,93.38Zm11.53,7.82a29.06,29.06,0,0,1-4.24,1.55,7.68,7.68,0,0,0,.09-1.17,7.92,7.92,0,0,0-.25-2A30.72,30.72,0,0,1,87.39,101.2Z"/><path d="M118,51.36l1.24-2.31-2.47-.7a15.53,15.53,0,0,0-7.19-.45,11.36,11.36,0,0,0-1.08-2.71,11.5,11.5,0,0,0-7.74-5.69l-1.68-.34-.21.56L92,33.48l-.77,3.3a17.15,17.15,0,0,0,1,10.27A17.45,17.45,0,0,0,98,54.51l-2.42-.63-.22,5.34,3.85,3.46,1.34-2.26A17.36,17.36,0,0,0,101.69,70a17.1,17.1,0,0,0,6.51,8l2.87,1.8.51-9.31.54.25.95-1.43a11.46,11.46,0,0,0,1.48-9.49,11.32,11.32,0,0,0-1.27-2.87A15.34,15.34,0,0,0,118,51.36ZM95.94,45.52a14.55,14.55,0,0,1-1-4l2.92,2.63a11.45,11.45,0,0,0,1.42,6.22l0,0A14,14,0,0,1,95.94,45.52Zm5.88-1.47A7.53,7.53,0,0,1,105,47.13a7.83,7.83,0,0,1,.74,1.95,15.61,15.61,0,0,0-1.8,1,7.81,7.81,0,0,1-1.25-1.64A7.58,7.58,0,0,1,101.82,44.05Zm5.67,28a14.54,14.54,0,0,1-2.1-3.58,13.93,13.93,0,0,1-1.08-5.81s0,0,0,.06a11.56,11.56,0,0,0,3.37,5.41Zm3.11-6.69a7.39,7.39,0,0,1-2.42-3.73,7.55,7.55,0,0,1-.28-2.2,15.39,15.39,0,0,0,1.86-.58,7.44,7.44,0,0,1,.84,6.51Zm-1.86-10.39a11.33,11.33,0,0,1-5.33.88,11.32,11.32,0,0,1,9.65-4.11A11.49,11.49,0,0,1,108.74,54.93Z"/><path d="M36.93,69.27l1,1.43.54-.25.51,9.31L41.8,78a17.1,17.1,0,0,0,6.51-8,17.36,17.36,0,0,0,1.16-9.53l1.34,2.26,3.85-3.46-.22-5.34L52,54.51a17.45,17.45,0,0,0,5.74-7.46,17.15,17.15,0,0,0,1-10.27L58,33.48,51.1,39.72l-.21-.56-1.68.34a11.5,11.5,0,0,0-7.74,5.69,11.36,11.36,0,0,0-1.08,2.71,15.42,15.42,0,0,0-7.14.44l-2.52.71,1.21,2.26a15.6,15.6,0,0,0,4.78,5.6,11.32,11.32,0,0,0-1.27,2.87A11.46,11.46,0,0,0,36.93,69.27ZM50.76,50.35a11.47,11.47,0,0,0,1.42-6.22L55.1,41.5a14.55,14.55,0,0,1-1,4,13.91,13.91,0,0,1-3.33,4.87ZM41.83,61.59a7.48,7.48,0,0,1-2.43,3.73,7.5,7.5,0,0,1-.1-4.45,7.42,7.42,0,0,1,.94-2.06,13.79,13.79,0,0,0,1.86.58A7.9,7.9,0,0,1,41.83,61.59Zm2.78,6.84A14.54,14.54,0,0,1,42.51,72l-.21-3.92a11.56,11.56,0,0,0,3.38-5.42.11.11,0,0,1,0-.05A13.93,13.93,0,0,1,44.61,68.43ZM45,47.13a7.45,7.45,0,0,1,3.21-3.08,7.55,7.55,0,0,1-.91,4.35A7.63,7.63,0,0,1,46,50.05a15.61,15.61,0,0,0-1.8-1A7.35,7.35,0,0,1,45,47.13Zm-2.7,5.44a11.46,11.46,0,0,1,4.31,3.24,11.43,11.43,0,0,1-5.32-.88,11.29,11.29,0,0,1-4.32-3.24A11.45,11.45,0,0,1,42.27,52.57Z"/></svg>