<svg xmlns="http://www.w3.org/2000/svg" viewBox="0 0 150 150"><title>Toki-adze-bold</title><g id="Toki_-_Adze" data-name="Toki - Adze"><path d="M103.29,53.16,101,51.8V33.5H87.19L88.88,32h-6.5L79.84,33.5H79.5v-5h-9v5h-.34L67.62,32h-6.5l1.69,1.51H49V51.8l-2.29,1.36v16.5l2.29-2V125.5h52V67.61l2.29,2ZM92.65,115.29l-.32-.55c-.22-.36-.44-.71-.67-1.06-.09-.12-.16-.26-.25-.38-.32-.46-.65-.91-1-1.34-.07-.1-.15-.19-.22-.28-.27-.33-.55-.66-.83-1l-.39-.41c-.24-.26-.48-.51-.73-.75l-.44-.41c-.24-.23-.49-.45-.74-.66l-.46-.38-.81-.61-.43-.31c-.34-.24-.7-.46-1.06-.67a1.64,1.64,0,0,0-.22-.14,14.07,14.07,0,0,0-1.33-.7l-.38-.17c-.32-.15-.65-.29-1-.42l-.51-.18c-.3-.11-.6-.21-.91-.29a4.94,4.94,0,0,0-.55-.15c-.3-.08-.6-.15-.91-.21l-.55-.11c-.33-.06-.66-.1-1-.14l-.47,0c-.5,0-1-.07-1.5-.07s-1,0-1.5.07L73,104c-.34,0-.67.08-1,.14l-.55.11c-.31.06-.61.13-.91.21a4.94,4.94,0,0,0-.55.15c-.31.08-.61.18-.91.29l-.5.18c-.34.13-.67.27-1,.42l-.37.17a14.07,14.07,0,0,0-1.33.7,1.64,1.64,0,0,0-.22.14c-.36.21-.72.43-1.06.67l-.43.31-.81.61-.46.38c-.25.21-.5.43-.74.66l-.44.41c-.25.24-.49.49-.73.75l-.39.41c-.28.32-.56.65-.83,1-.07.09-.15.18-.22.28-.34.43-.67.88-1,1.34l-.25.38c-.23.35-.45.7-.67,1.06l-.32.55c-.11.21-.24.41-.35.61V63.35H93V115.9C92.89,115.7,92.76,115.5,92.65,115.29ZM76.07,45.35H73.93l1.07-1Zm-6.62,4h11.1l3.36,3H66.09Zm-7.84,7H88.39l3.35,3H58.26ZM93,47.05,83.64,41.5H93ZM57,41.5h9.36L57,47.05Z"/></g></svg>