<svg xmlns="http://www.w3.org/2000/svg" viewBox="0 0 150 150"><title>Hei-matau-bold</title><g id="Hei_matau" data-name="Hei matau"><path d="M108.67,53.92a1.2,1.2,0,0,0-1.6-1.4l-9.92,3.95.06-.13.07-.15A24.84,24.84,0,0,0,98.8,41a23.28,23.28,0,0,0-23-18.86h0l-1,0A24.35,24.35,0,0,0,57.05,63a1.21,1.21,0,0,1,0,1.61l-7.81,9-.45.31L48,75.25l-.13.19A32.7,32.7,0,0,0,42,94.79a33.31,33.31,0,0,0,30.25,32.36c.93.07,1.87.11,2.79.11a33.08,33.08,0,0,0,33-33,32.66,32.66,0,0,0-2-11.35,30.72,30.72,0,0,1-.53-16.11ZM75,119.26q-1.05,0-2.13-.09A25.16,25.16,0,0,1,50,94.65,24.77,24.77,0,0,1,54.43,80l.19-.28h0L69.89,62A16.33,16.33,0,0,1,75,30.16h0l.82,0A15.31,15.31,0,0,1,90.94,42.48,17.13,17.13,0,0,1,90,52.79a21.26,21.26,0,0,1-1.54,2.85l-20.74,33-.43.75a9,9,0,0,0,5.84,13.65,9.62,9.62,0,0,0,1.83.18,9.05,9.05,0,0,0,7.21-3.58A3.79,3.79,0,0,0,83,97.42a3.73,3.73,0,0,0-3.73-3.73,3.8,3.8,0,0,0-3.7,3.67v-.19A35.33,35.33,0,0,1,97.73,64.85a38.62,38.62,0,0,0,.76,20.67h0A25.06,25.06,0,0,1,75,119.26Z"/><path d="M73.51,52.67a6.64,6.64,0,0,0,1.45.16,6.34,6.34,0,0,0,1.45-12.51A6.57,6.57,0,0,0,75,40.16a6.34,6.34,0,0,0-1.45,12.51Z"/><path d="M75.54,97.36v.18c0-.06,0-.12,0-.18"/></g></svg>