<svg xmlns="http://www.w3.org/2000/svg" viewBox="0 0 150 150"><title>Rongo-bold</title><g id="Rongo"><path d="M75,21a54,54,0,1,0,54,54A54.06,54.06,0,0,0,75,21Zm33.44,22.45,0,0c-2.57-.7-5.2-1.32-7.87-1.86v0a9.9,9.9,0,0,0-2.12-6.11A46.53,46.53,0,0,1,108.44,43.45Zm-14.51-3c-2.86-.53-5.77-.94-8.7-1.22a5.92,5.92,0,0,1,11.32,1.62C95.68,40.72,94.81,40.6,93.93,40.47ZM52.86,41a5.93,5.93,0,0,1,11.36-1.69c-3,.3-5.94.74-8.84,1.29ZM69.17,38.9a5.94,5.94,0,0,1,11.26,0A105.72,105.72,0,0,0,69.17,38.9ZM90.4,31.67a9.9,9.9,0,0,0-7.35,3.58,9.92,9.92,0,0,0-16.57.13,9.9,9.9,0,0,0-6.94-3.69,45.76,45.76,0,0,1,30.86,0ZM41.56,43.45a46.31,46.31,0,0,1,8.92-7.35,9.92,9.92,0,0,0-1.66,5.49s0,.1,0,.15c-2.47.51-4.91,1.09-7.3,1.74Zm8,2.21.07.3,1.93-.47c1.86-.45,3.76-.83,5.67-1.18.88-.12,1.76-.24,2.64-.34-.29,1.66-1.25,7.59-.6,9.37.75,2.08,6.83,7.09,6.83,7.09s1.44-7.75.69-9.82c-.63-1.73-5-5.49-6.38-6.7a127.67,127.67,0,0,1,14.54-.84c-.46.79-4,6.84-4,8.91s4,9,4,9,4-6.8,4-9-3.48-8.12-3.94-8.91a127.67,127.67,0,0,1,14.54.84c-1.43,1.21-5.75,5-6.38,6.7-.75,2.07.69,9.82.69,9.82s6.08-5,6.83-7.09c.65-1.78-.31-7.71-.6-9.37l2.08.27c1.92.33,3.83.71,5.7,1.15l2,.47.07-.31A113.66,113.66,0,0,1,111,48.4a45.22,45.22,0,0,1-18.2,14.37l-.19-.89H57.37l-.19.88A45.29,45.29,0,0,1,39,48.4Q44.11,46.8,49.55,45.66ZM60.3,67.38l.32-1.5H89.37l.32,1.5Zm18.53,4A12.14,12.14,0,0,0,75,75a12.25,12.25,0,0,0-3.83-3.65Zm-16.69,0a11.53,11.53,0,0,0-3.3,2.93l.62-2.93Zm28.39,0,.62,2.92a11.42,11.42,0,0,0-3.28-2.92ZM33.68,95.22a45.93,45.93,0,0,1,2.17-44.33A49.2,49.2,0,0,0,56.34,66.75h0L54.16,77.12l-.08,0a.93.93,0,0,1-.67-.12.91.91,0,0,1-.39-.56.26.26,0,0,1,.09-.29l-2.67-3a4.28,4.28,0,0,0-1.33,4.12,4.91,4.91,0,0,0,2.13,3.07,5,5,0,0,0,2.08.74h0l-4.51,21.41,3.83,3.67.42.4,1.33,1.27-8.13,3A46.31,46.31,0,0,1,33.68,95.22Zm24.69,22.67a45.46,45.46,0,0,1-8.19-4.19L57.6,111l9.8,9.4A45.45,45.45,0,0,1,58.37,117.89ZM72,107a2.56,2.56,0,0,1,.67-2h0a2.09,2.09,0,0,1,1,.57L75,106.59l1.28-1.07c.63-.52,1-.58,1-.56a2.56,2.56,0,0,1,.67,2c0,1-1.36,4-3,7C73.36,111,72,108,72,107Zm4.17,14h-.65l1.19-2c1.12-1.83,4.49-7.59,5.16-11,3.19-2.72,6.38-2.69,7.48-2.21l1.6-3.66c-2.37-1-6.17-.76-9.73,1.41A4.88,4.88,0,0,0,79,101.33a4.37,4.37,0,0,0-4,.25,4.37,4.37,0,0,0-4-.25,4.93,4.93,0,0,0-2.19,2.25c-3.56-2.17-7.36-2.45-9.74-1.41l1.6,3.66c1.11-.48,4.3-.52,7.49,2.21.67,3.39,4.05,9.15,5.16,11l1.2,2h-.67l-2.93-2.81L56.47,104.35h0a13.43,13.43,0,0,1,5.84-4.72l2.61-1.23-2.07-2c-2.3-2.23-3.68-6.06-3.68-10.26a17.61,17.61,0,0,1,.7-5,5.52,5.52,0,1,0,3.27-5.56s0,0,0,0l0,0a5.28,5.28,0,0,1,3.47-1.43c2.22,0,4.34,1.66,5.79,4.42l-1,13.4,3.5,5,3.5-5-1-13.4c1.44-2.75,3.56-4.42,5.79-4.42a5.28,5.28,0,0,1,3.47,1.43l0,0,0,0a5.43,5.43,0,0,0-2.2-.47,5.5,5.5,0,1,0,5.47,6,17.61,17.61,0,0,1,.7,5c0,4.2-1.38,8-3.68,10.26l-2.07,2,2.61,1.24a13.53,13.53,0,0,1,5.83,4.73L79.1,118.17ZM62.84,80.62a2.5,2.5,0,1,1,2.5,2.5A2.51,2.51,0,0,1,62.84,80.62Zm24.32,0a2.5,2.5,0,1,1-2.5-2.5A2.5,2.5,0,0,1,87.16,80.62Zm-4.57,39.75,9.8-9.4,7.43,2.73A45.37,45.37,0,0,1,82.59,120.37Zm21.15-9.49-8.13-3,1.74-1.67,3.83-3.67L96.67,81.14h0a4.86,4.86,0,0,0,4.22-3.82,4.27,4.27,0,0,0-1.33-4.11l-2.67,3a.25.25,0,0,1,.09.28.9.9,0,0,1-.39.57.91.91,0,0,1-.66.12l-.1,0L93.65,66.76h0a49.27,49.27,0,0,0,20.5-15.87,45.91,45.91,0,0,1-10.41,60Z"/><path d="M104.52,47.07s-7.43,2.63-8.85,4.32S93,60.86,93,60.86s7.43-2.63,8.85-4.33S104.52,47.07,104.52,47.07Z"/><path d="M57.05,60.86s-1.3-7.78-2.72-9.47-8.85-4.32-8.85-4.32,1.3,7.77,2.72,9.46S57.05,60.86,57.05,60.86Z"/><path d="M71,93.51A1.5,1.5,0,0,0,69.24,96a28.3,28.3,0,0,0,4.54,1.38A28.73,28.73,0,0,0,71,93.51Z"/><path d="M79,93.51a28.73,28.73,0,0,0-2.8,3.83A28.3,28.3,0,0,0,80.76,96,1.5,1.5,0,0,0,79,93.51Z"/></g></svg>