<svg xmlns="http://www.w3.org/2000/svg" viewBox="0 0 150 150"><title>Pikorua-singletwist-bold</title><g id="Pikorua_-_Single_twist" data-name="Pikorua - Single twist"><path d="M73.24,29.1A16.31,16.31,0,0,1,85.17,56.54l-6.65-7.65a6.21,6.21,0,0,0,1-3.46,6.33,6.33,0,1,0-12.65,0,6.49,6.49,0,0,0,.73,2.94A14,14,0,0,0,69,50.07L92,76.56l.16.18.3.35h0A25,25,0,1,1,60.86,71.4L69.39,85a9,9,0,1,0,12.89,8.17,8.94,8.94,0,0,0-1.38-4.78.63.63,0,0,1-.08-.23L60,54.92h0a16.18,16.18,0,0,1-3.06-9.48A16.35,16.35,0,0,1,73.24,29.1m0-8a24.32,24.32,0,0,0-23.3,31.32h0a36.77,36.77,0,0,0,3.24,6.74h0l3.42,5.45A33.05,33.05,0,1,0,102.7,78.23h0l-4.24-6.39-.3-.34,0,0L98,71.31h0l-7.56-8.7L91,62A24.3,24.3,0,0,0,73.24,21.1Zm0,73.1a1,1,0,0,1-.43-2l.86-.41,0,0a7.44,7.44,0,0,0,.44.78,1,1,0,0,1,.15.53,1.05,1.05,0,0,1-1,1Z"/></g></svg>