<svg xmlns="http://www.w3.org/2000/svg" viewBox="0 0 150 150"><title>Mangopare-bold</title><g id="Mangopare"><path d="M122.12,68.06a61,61,0,0,0-14.3-31.86c-8.73-9.8-20-15-32.82-15-27.76,0-43.85,24.28-47,46.84A47.44,47.44,0,0,0,35.1,100.5l.22.31c5.06,6.38,11,9.47,18.07,9.47A14.73,14.73,0,0,0,68.1,95.57,10.43,10.43,0,0,0,57.67,85.15,7.86,7.86,0,0,0,49.82,93a6.32,6.32,0,0,0,6.31,6.32A5.37,5.37,0,0,0,59.64,98a6.72,6.72,0,0,1-6.25,4.27c-4.64,0-8.14-1.88-11.68-6.29a39.11,39.11,0,0,1-5-11.64,31.91,31.91,0,0,0,5.8.53,36.36,36.36,0,0,0,6.17-.55c6.61-1.15,14.8-5.8,18.18-13.6a15.31,15.31,0,0,0-8-20.13,10.78,10.78,0,0,0-14.18,5.61,8.06,8.06,0,0,0,4.2,10.61,6.44,6.44,0,0,0,8.47-3.35,5.41,5.41,0,0,0,.07-4.18,4.68,4.68,0,0,0-.2-.45,7.32,7.32,0,0,1,2.27,8.71c-2.18,5-7.86,8.14-12.21,8.9a25.51,25.51,0,0,1-11.78-.57,39.57,39.57,0,0,1,.37-6.69C38.44,51.1,50.43,31.73,71,29.45v95h8v-95c20.59,2.2,32.63,21.62,35.2,39.74a39.69,39.69,0,0,1,.37,6.7,25.51,25.51,0,0,1-11.78.57c-4.35-.76-10-3.86-12.21-8.9a7.33,7.33,0,0,1,2.28-8.72,5.45,5.45,0,0,0-.14,4.64,6.45,6.45,0,0,0,8.47,3.35,8.08,8.08,0,0,0,4.2-10.61A10.79,10.79,0,0,0,91.21,50.6a15.32,15.32,0,0,0-8,20.13c3.38,7.8,11.57,12.45,18.18,13.6a36.36,36.36,0,0,0,6.17.55,31.91,31.91,0,0,0,5.8-.53,39.11,39.11,0,0,1-5,11.64c-3.54,4.41-7,6.29-11.68,6.29A6.71,6.71,0,0,1,90.44,98,5.37,5.37,0,0,0,94,99.32,6.32,6.32,0,0,0,100.26,93a7.86,7.86,0,0,0-7.85-7.85A10.43,10.43,0,0,0,82,95.57a14.73,14.73,0,0,0,14.71,14.71c7.1,0,13-3.09,18.07-9.47l.22-.31A47.44,47.44,0,0,0,122.12,68.06Z"/></g></svg>