<svg xmlns="http://www.w3.org/2000/svg" viewBox="0 0 150 150"><title>Wera-bold</title><g id="Wera"><path d="M120.42,79.23a36.35,36.35,0,0,0-13.16-8.38l-.06,0-.07,0A24,24,0,0,1,90.85,49l-.36-7.63H60.28a.81.81,0,0,0-.81.78L59.15,49A24,24,0,0,1,42.87,70.8l-.07,0-.06,0a36.35,36.35,0,0,0-13.16,8.38A27.73,27.73,0,0,0,21.84,98.5a26.61,26.61,0,0,0,4,14.36L32.11,123a.81.81,0,0,0,1.39,0l6-10.32a9.59,9.59,0,0,1,1.16-1.62,12.4,12.4,0,0,1,9.37-4.14h.25A28.66,28.66,0,0,0,75,92.86a28.66,28.66,0,0,0,24.68,14.08h.25a12.4,12.4,0,0,1,9.37,4.14,9.59,9.59,0,0,1,1.16,1.62l6,10.32a.81.81,0,0,0,1.39,0l6.29-10.18a26.61,26.61,0,0,0,4-14.36A27.73,27.73,0,0,0,120.42,79.23ZM50.32,98.94h-.61A19.82,19.82,0,0,0,35.39,105a18.52,18.52,0,0,0-2,2.5.81.81,0,0,1-1.39-.09,18.83,18.83,0,0,1-2.11-9,19.83,19.83,0,0,1,5.55-13.77,28.19,28.19,0,0,1,10.15-6.39A31.93,31.93,0,0,0,67.1,50.12a.81.81,0,0,1,.8-.76H71v28.9A20.68,20.68,0,0,1,50.32,98.94Zm67.73,8.51a.81.81,0,0,1-1.39.09,18.52,18.52,0,0,0-2-2.5,19.82,19.82,0,0,0-14.32-6.1h-.61A20.68,20.68,0,0,1,79,78.26V50.17a.81.81,0,0,1,.81-.81h3a31.94,31.94,0,0,0,21.6,29,28.19,28.19,0,0,1,10.15,6.39,19.83,19.83,0,0,1,5.55,13.77A18.83,18.83,0,0,1,118.05,107.45Z"/></g></svg>