<svg xmlns="http://www.w3.org/2000/svg" viewBox="0 0 150 150"><title>Moana-bold</title><g id="Moana"><path d="M59.49,32.73A43.38,43.38,0,0,1,95.92,52.51H96a18.94,18.94,0,0,1,1.59,2.77A43.27,43.27,0,0,1,103,76.18c0,16.19-6.44,32.88-20.63,39.4a22.33,22.33,0,0,1-9.7,2h-.15A20.87,20.87,0,0,1,51.78,96.73,15.5,15.5,0,0,1,55.12,87a10,10,0,0,1,7.6-3.53,8.73,8.73,0,0,1,5.54,1.92,7.56,7.56,0,0,1,2.87,6.18c0-.52-2.09-3-4.89-3a5.2,5.2,0,0,0-3.09,1.07c-3.5,2.49-2.93,8.55.08,11.56a11,11,0,0,0,7.91,3.2,11.58,11.58,0,0,0,4-.7c9.5-3.9,14-14,14.27-24.15a19.57,19.57,0,0,1-8.6,2.06,18.52,18.52,0,0,1-18.5-18.51,13.72,13.72,0,0,1,3-8.66A8.86,8.86,0,0,1,72,51.26,7.81,7.81,0,0,1,77,53a6.74,6.74,0,0,1,2.55,5.49c0-.46-1.85-2.67-4.34-2.67a4.64,4.64,0,0,0-2.75.95c-3.1,2.21-2.6,7.6.07,10.27a8.43,8.43,0,0,0,6.12,2.59c6.18,0,12.39-6.39,9.4-14.52A36.6,36.6,0,0,0,59.24,32.73h.25m0-8h-.28L58.14,40.66a28.25,28.25,0,0,1,9.61,3.16,16.76,16.76,0,0,0-8.66,5.51,21.84,21.84,0,0,0-4.77,13.73,26.34,26.34,0,0,0,3.45,13.08,17.82,17.82,0,0,0-8.85,5.77,23.58,23.58,0,0,0-5.14,14.82,28.92,28.92,0,0,0,28.55,28.84h.29a30.14,30.14,0,0,0,13-2.72c15.6-7.16,25.29-25,25.29-46.67a51.6,51.6,0,0,0-6.23-24.55,26.88,26.88,0,0,0-2.16-3.71l-2.65-3.8h-.17a51.29,51.29,0,0,0-40.25-19.4ZM79,89.57v-.06h0l0,.06Z"/></g></svg>