<svg xmlns="http://www.w3.org/2000/svg" viewBox="0 0 150 150"><title>Koru-honu-bold</title><g id="Koru_Honu" data-name="Koru Honu"><path d="M116,61.58c-.19-.19-.39-.35-.57-.53a32,32,0,0,0-2.53-9.58,11.31,11.31,0,0,0,4.76-2.87h0A11.5,11.5,0,1,0,101.4,32.34a11.31,11.31,0,0,0-2.87,4.76A31.74,31.74,0,0,0,89,34.58c-.18-.19-.34-.39-.53-.58-9.16-9.16-23-10.27-30.76-2.47a17.35,17.35,0,0,0-3.17,4.36l7.11,3.66a9.47,9.47,0,0,1,1.72-2.37c3.18-3.18,8.23-3.68,13-1.77a46.39,46.39,0,0,0-17.52,8.33c-9-6.46-20.42-6.47-27.31.42-4.21,4.2-6,10.32-4.92,16.77l7.89-1.32a11,11,0,0,1,2.69-9.8c3.66-3.66,10-3.72,15.5-.55A49,49,0,0,0,43.46,63a6.41,6.41,0,0,1-1.18-5.81,6.32,6.32,0,0,1,4.35-3.89l-1.16-3.83a10.29,10.29,0,0,0-7,6.45c-1.3,3.89.1,8.2,3.37,11.25-3.67,11.2-2.5,22.85,3.87,31.37l-5.5,11.21,11.2-5.51a31.09,31.09,0,0,0,18.78,5.93,40.61,40.61,0,0,0,12.58-2.07A11.45,11.45,0,0,0,91.06,112a9.58,9.58,0,0,0,3-.48,10.29,10.29,0,0,0,6.45-7l-3.83-1.16a6.32,6.32,0,0,1-3.89,4.35A6.41,6.41,0,0,1,87,106.53a48.55,48.55,0,0,0,13.78-9.23c3.18,5.47,3.12,11.85-.54,15.51a11,11,0,0,1-9.8,2.69l-1.32,7.89a22.74,22.74,0,0,0,3.65.3,18.3,18.3,0,0,0,13.12-5.22c6.89-6.89,6.88-18.35.42-27.31a46.39,46.39,0,0,0,8.33-17.52c1.91,4.81,1.41,9.86-1.77,13a9.47,9.47,0,0,1-2.37,1.72l3.66,7.11a17.35,17.35,0,0,0,4.36-3.17C126.27,84.54,125.16,70.74,116,61.58ZM106,40.47A3.5,3.5,0,1,1,112,43h0a3.59,3.59,0,0,1-5,0h0A3.45,3.45,0,0,1,106,40.47ZM101.4,48.6a20.86,20.86,0,0,1,4.42,6.6A22.66,22.66,0,0,0,96,54.05a22.67,22.67,0,0,0-1.14-9.84A20.83,20.83,0,0,1,101.4,48.6ZM57.13,98.53l3-3c3.66,1.86,7.47,3.68,12.24,3.68a19.55,19.55,0,0,0,2.13-.12c4.53-.51,8.38-2.49,10.56-5.42A8.64,8.64,0,0,0,86.73,87c-.92-5-6.61-8.16-13.24-7.43l.88,8a5.89,5.89,0,0,1,4.49,1,1.19,1.19,0,0,1-.22.41,7.58,7.58,0,0,1-5,2.24c-3.66.4-6.64-1.11-10.41-3l-.88-.44-.44-.88c-1.91-3.77-3.42-6.74-3-10.41a7.58,7.58,0,0,1,2.24-5,1.19,1.19,0,0,1,.41-.22c.45.38,1.27,2.06,1,4.49l8,.88c.73-6.63-2.46-12.32-7.43-13.24a8.64,8.64,0,0,0-6.71,1.66c-2.93,2.18-4.91,6-5.42,10.57-.64,5.79,1.44,10.17,3.56,14.37l-3,3c-7-10.56-4-27.14,7.85-39,7.55-7.55,17-11.53,25.67-11.59,4,5.74,4.28,12.76.25,16.78a9.36,9.36,0,0,1-2.63,1.84,7.48,7.48,0,0,1-2,.42,2.46,2.46,0,0,1-2.14-2.75,1.13,1.13,0,0,1,.43-.77,1.16,1.16,0,0,1,.86-.24l1-7.94a9.17,9.17,0,0,0-10.21,8A10.49,10.49,0,0,0,79.62,69.3a8,8,0,0,0,1,.06h0a8.73,8.73,0,0,0,0,1,10.5,10.5,0,0,0,10.36,9.18,11.13,11.13,0,0,0,1.28-.08,9.17,9.17,0,0,0,8-10.21l-7.94,1a1.16,1.16,0,0,1-.24.86,1.18,1.18,0,0,1-.79.44,2.45,2.45,0,0,1-2.72-2.13,6.56,6.56,0,0,1,.41-2,9.36,9.36,0,0,1,1.84-2.63c4-4,11-3.75,16.77.25,0,8.62-4,18.12-11.58,25.67C84.27,102.5,67.69,105.57,57.13,98.53Z"/></g></svg>