<svg xmlns="http://www.w3.org/2000/svg" viewBox="0 0 150 150"><title>Pikorua-triple-bold</title><g id="Pikorua_-_Triple" data-name="Pikorua - Triple"><path d="M95.78,72.07l-.8-.52.32-.81-.2.31c0,.16-.1.32-.16.47l-.1-.07.26-.4a32.75,32.75,0,0,0,1.78-8.55,22.18,22.18,0,0,0-5.52-14.71l.51-2.7A17.71,17.71,0,1,0,57.28,46l.47,1.48-1.19,1.58a22.36,22.36,0,0,0-3.44,20.21l1.05,2.24-.82,1a31,31,0,1,0,42.43-.47Zm-21.3-40a9.71,9.71,0,0,1,9.7,9.71A9.83,9.83,0,0,1,84,43.6L78.81,41a4.41,4.41,0,0,0-4.33-3.6,3.92,3.92,0,0,0-4,4.22c0,1.61,1.32,3,2.62,3.73,2.81,2,9.34,5,11.36,6.8v0A14.33,14.33,0,0,1,88.88,62.5a14.12,14.12,0,0,1-1,5.29l-7.93-4.12a5.06,5.06,0,0,0,.13-1.17A5.56,5.56,0,0,0,78,58.17L67.11,48.09h0a9.69,9.69,0,0,1,7.37-16Zm.34,85.76a23,23,0,0,1-15.41-40L70.08,89.59a7.09,7.09,0,1,0,10,.48h0L63.82,72.18h0A14.3,14.3,0,0,1,63,53.88L69.51,60a5.56,5.56,0,0,0,3,7.75l0,0L85,74.24l.32.17.79.41v0a23,23,0,0,1-11.25,43Z"/></g></svg>