<svg id="Koru" xmlns="http://www.w3.org/2000/svg" viewBox="0 0 150 150"><title>Koru-bold</title><path d="M75,25a50,50,0,1,0,50,50A50.06,50.06,0,0,0,75,25ZM33,75a42,42,0,0,1,83.8-4h0a39,39,0,0,1-3.46,16.5,39.8,39.8,0,0,1-10.16,13.61,39.37,39.37,0,0,1-15.08,8l-2.08.56-2.13.36c-.72.1-1.42.28-2.14.31l-2.16.14a30.71,30.71,0,0,1-4.29,0c-.71,0-1.4-.18-2.11-.26a14.73,14.73,0,0,1-2.09-.36l-2.08-.5c-.68-.2-1.34-.46-2-.69l-1-.35-1-.44c-.65-.31-1.3-.59-1.94-.91a34.8,34.8,0,0,1-6.94-5,31.48,31.48,0,0,1-8.68-14.66A32.17,32.17,0,0,1,46.58,83c-.1-.72-.1-1.45-.17-2.17a15.62,15.62,0,0,1,0-2.16c0-.71,0-1.42.11-2.13l.29-2.12.5-2.08c.18-.69.46-1.35.68-2a25.33,25.33,0,0,1,10.93-12.9,25.65,25.65,0,0,1,8.1-3,19.92,19.92,0,0,1,2.15-.32L71.3,54c.72,0,1.43,0,2.15.09s1.42.17,2.12.32A20.21,20.21,0,0,1,91.66,72.59,16.14,16.14,0,0,1,90.25,81a16.22,16.22,0,0,1-13.72,9.43,13.08,13.08,0,0,1-8.31-2.12A13.48,13.48,0,0,1,63,81.47a11.74,11.74,0,0,1,.38-8.61,10.56,10.56,0,0,1,6.55-5.6,10.14,10.14,0,0,1,4.41-.34,8.55,8.55,0,0,1,7.05,9.85A6.94,6.94,0,0,1,75,82.31a5.6,5.6,0,0,1-4.22-1.46,5.68,5.68,0,0,1-1.85-4.12,5.71,5.71,0,0,0,1.77,4.21A5.79,5.79,0,0,0,75,82.56a7.2,7.2,0,0,0,4.38-1.66,7.41,7.41,0,0,0,2.5-4,9.19,9.19,0,0,0-3-8.72,9.35,9.35,0,0,0-4.36-2.1,11.09,11.09,0,0,0-4.83.23A11.79,11.79,0,0,0,61,77.05a15.75,15.75,0,0,0,.58,4.87,15.08,15.08,0,0,0,5.68,7.87,14.89,14.89,0,0,0,9.4,2.68,18.47,18.47,0,0,0,9.34-3A18.76,18.76,0,0,0,94.4,72.39a23.31,23.31,0,0,0-2.63-9.53A23.74,23.74,0,0,0,76.32,51c-.82-.2-1.66-.3-2.49-.44s-1.68-.12-2.52-.18l-2.49.09c-.83,0-1.65.2-2.48.29A29.29,29.29,0,0,0,43.75,68.69c-.28.79-.63,1.56-.86,2.38l-.66,2.44L41.81,76c-.14.83-.13,1.68-.2,2.52a17.52,17.52,0,0,0,0,2.51c0,.84,0,1.67.13,2.5a37.79,37.79,0,0,0,.85,4.94,36.82,36.82,0,0,0,9.69,17.36,39.81,39.81,0,0,0,8,6.12c.75.4,1.51.76,2.27,1.14l1.14.56,1.18.45c.8.3,1.58.62,2.39.88l2.45.67a18.92,18.92,0,0,0,2.49.5c.84.12,1.67.32,2.52.37a37.24,37.24,0,0,0,5,.15l.36,0A41.6,41.6,0,0,1,75,117,42,42,0,0,1,33,75Z"/></svg>