<svg xmlns="http://www.w3.org/2000/svg" viewBox="0 0 150 150"><title>Tane-bold</title><g id="Tane"><path d="M63.36,71.63s.52-1.75,3.36-3.44a8.11,8.11,0,0,1,5.86-.81l-.38-2.27c-1.41-8.31-4.81-14.3-10.1-17.81A20.7,20.7,0,0,0,51.78,44,11.32,11.32,0,0,0,39,37.63l-1.21.28-.28,1.21a11.34,11.34,0,0,0,6.79,13c.52,6.32,3.78,15.64,17.8,19.2ZM41.23,41.37a7.16,7.16,0,0,1,6,2.8c-.68.09-1.11.19-1.18.2h0l-1.19.27-.23,1-.06.25a.37.37,0,0,1,0,.08,14.51,14.51,0,0,0-.26,1.63A7.12,7.12,0,0,1,41.23,41.37ZM56.86,55.63l-1.2.29-.29,1.2A10.65,10.65,0,0,0,56.72,65a16.09,16.09,0,0,1-8.54-13.44l0-.86a21.09,21.09,0,0,1,.11-2.59A21.39,21.39,0,0,1,50.44,48h.35a16.22,16.22,0,0,1,15.1,9.92,8.45,8.45,0,0,0-1.08-.81A11.05,11.05,0,0,0,56.86,55.63Zm2.28,3.79a6.5,6.5,0,0,1,3.49,1c1.63,1.06,2.72,3,3.24,5.76l-1.21-.34C59.93,64.51,59.16,61.3,59.14,59.42Z"/><path d="M83.16,68.2a7.91,7.91,0,0,1,3.36,3.43l1.28-.33c14-3.56,17.28-12.88,17.8-19.2a11.34,11.34,0,0,0,6.79-13l-.29-1.21-1.2-.28A11.34,11.34,0,0,0,98.09,44,20.67,20.67,0,0,0,87.78,47.3c-5.29,3.51-8.69,9.5-10.1,17.81l-.39,2.27A8.54,8.54,0,0,1,83.16,68.2Zm2.06-2.37L84,66.17c.52-2.74,1.6-4.67,3.21-5.74a6.53,6.53,0,0,1,3.53-1C90.72,61.28,90,64.5,85.22,65.83Zm23.42-24.46a7.12,7.12,0,0,1-3.07,6.19,14.69,14.69,0,0,0-.27-1.7L105,44.64l-1.2-.27h0c-.08,0-.5-.11-1.18-.2A7.2,7.2,0,0,1,108.64,41.37ZM90,50.66A17.54,17.54,0,0,1,100.63,48l1,.08a19.49,19.49,0,0,1,.1,2.59l0,1.25A16,16,0,0,1,93.15,65a10.61,10.61,0,0,0,1.35-7.86l-.28-1.2L93,55.63a11,11,0,0,0-2.18-.21,10.52,10.52,0,0,0-5.78,1.64,9.12,9.12,0,0,0-1.07.81A17.22,17.22,0,0,1,90,50.66Z"/><path d="M64.5,75.43a6,6,0,0,0,4.56,5.82,7.36,7.36,0,0,0-.06.81,6,6,0,0,0,12,0,7.36,7.36,0,0,0-.06-.81A6,6,0,1,0,75,71.48a6,6,0,0,0-10.5,4Zm15-2a2,2,0,1,1-2,2A2,2,0,0,1,79.5,73.43ZM75,80.06a2,2,0,1,1-2,2A2,2,0,0,1,75,80.06Zm-2.5-4.63a2,2,0,1,1-2-2A2,2,0,0,1,72.5,75.43Z"/><path d="M91.15,82.5a13,13,0,0,0-9.26,3.84l-.13.13a42,42,0,0,0-7.09,8.78,42,42,0,0,0-7.09-8.78l-.13-.13a13.1,13.1,0,1,0-9.26,22.37v-8a5.11,5.11,0,1,1,3.55-8.77l.38.39c5,4.39,8.87,12.79,8.91,12.88l3.64,8,3.64-8C79.37,102.87,83,96,87.22,92.33l.38-.39a5.1,5.1,0,1,1,3.55,8.77v8a13.11,13.11,0,0,0,0-26.21Z"/><path d="M56.39,93.61v4a7.1,7.1,0,1,1-5,12.12l-2.83,2.83a11.1,11.1,0,1,0,7.85-19Z"/><path d="M93.49,111.81a7.1,7.1,0,1,1,0-14.2v-4a11.1,11.1,0,1,0,7.85,19l-2.83-2.83A7,7,0,0,1,93.49,111.81Z"/><path d="M116.6,95.88a25.12,25.12,0,0,0-12.15-21.49,29.12,29.12,0,0,0,10-15.9,21.39,21.39,0,0,0,7.43-21.38l-.56-2.41-1.13-4.82-4.82-1.14L113,28.17a21.78,21.78,0,0,0-4.69-.5,21,21,0,0,0-14.77,5.78A40.48,40.48,0,0,0,75,28.85h-.12a40.36,40.36,0,0,0-18.47,4.56A21.81,21.81,0,0,0,37,28.17l-2.44.57-4.82,1.14L28.63,34.7l-.56,2.41A21.39,21.39,0,0,0,35.5,58.49a29.12,29.12,0,0,0,10,15.9,25,25,0,0,0-8.95,33.72l-4.72,4.72,5.66,5.65,2.82,2.83a23.1,23.1,0,0,0,26.89,4.22h15.5a23.09,23.09,0,0,0,26.88-4.22l2.83-2.83,5.66-5.65-4.72-4.72A25.07,25.07,0,0,0,116.6,95.88Zm-41.66-59a32,32,0,0,1,9,1.28A29.11,29.11,0,0,0,75,45.76a29.06,29.06,0,0,0-9-7.65A32.22,32.22,0,0,1,74.94,36.85Zm31.86,76L104,115.66a15.11,15.11,0,0,1-24-3.49l-5,11,0,0,0,0-5-11a15.11,15.11,0,0,1-24,3.49l-2.82-2.83,4.08-4.08a17.08,17.08,0,0,1,11.22-30,18.12,18.12,0,0,1,2.87.25,9.9,9.9,0,0,1-.25-5.74C47.39,69.5,43.58,60.41,42.73,53.69a13.29,13.29,0,0,1-6.87-14.75l.56-2.41L38.83,36a13.11,13.11,0,0,1,2.85-.29,13,13,0,0,1,11.67,6.69c6.79.72,18.08,4.69,21.13,22.69l.25,1.47a1.23,1.23,0,0,0,.54,0l.25-1.47c3-18,14.34-22,21.13-22.69a13,13,0,0,1,11.67-6.69,13.11,13.11,0,0,1,2.85.29l2.41.57.56,2.41a13.29,13.29,0,0,1-6.87,14.75c-.85,6.72-4.66,15.81-18.39,19.6A9.9,9.9,0,0,1,88.63,79a18.12,18.12,0,0,1,2.87-.25,17.08,17.08,0,0,1,11.22,30Z"/></g></svg>