<svg xmlns="http://www.w3.org/2000/svg" viewBox="0 0 150 150"><title>Pekapeka-bold</title><g id="Pekapeka"><circle cx="114.08" cy="55.22" r="4"/><circle cx="36.34" cy="55.22" r="4"/><path d="M109.8,68.35l3.48-1.93c.26,0,.53,0,.8,0a9.79,9.79,0,0,0,1.33-.08A11.23,11.23,0,0,0,114.08,44c-.3,0-.59,0-.88,0l-3.11-1c-4.53-1.45-8.62-2.64-12.72-2.64-5,0-11.84,1.86-16,10.73a2,2,0,0,0-.11.26,25.7,25.7,0,0,0-6.3-.78,26,26,0,0,0-6.28.77l-.12-.26c-4.12-8.86-10.95-10.72-16-10.72-4.1,0-8.19,1.19-12.72,2.64l-3,1h0l-.54,0c-.37,0-.74,0-1.1,0l-.38.05c-.23,0-.46.07-.69.12l-.46.1-.54.14-.52.16-.27.11a12,12,0,0,0-1.36.62l-.08,0-.7.43-.11.07A11.35,11.35,0,0,0,28,47.68a6.06,6.06,0,0,0-.47.56,11.13,11.13,0,0,0-2.44,7,11,11,0,0,0,.56,3.5c.12.33.24.65.37,1a11.24,11.24,0,0,0,6.56,6.12,11,11,0,0,0,3.74.64l.41,0,3.46,1.92a8.28,8.28,0,0,1,1,.67s0,0,0,.06a12.15,12.15,0,0,0,.49,24.3,11.82,11.82,0,0,0,3.41-.5A33.74,33.74,0,0,0,75,110.62a34.22,34.22,0,0,0,30-18.1,12.16,12.16,0,1,0,4.47-23.46q-.37,0-.75,0s0-.06,0-.07A8.28,8.28,0,0,1,109.8,68.35Zm11.52-13.13a7.24,7.24,0,0,1-6.42,7.18,6.56,6.56,0,0,1-.82.05,7.31,7.31,0,0,1-2.41-.41,7.21,7.21,0,0,1-4.21-3.93c-.09-.21-.18-.44-.26-.66a7.23,7.23,0,0,1,1.21-6.71l0,0,0,0c.08-.1.15-.19.21-.25l0,0,0,0A7.16,7.16,0,0,1,114.08,48,7.24,7.24,0,0,1,121.32,55.22ZM75,64.77a27.14,27.14,0,0,1,2.87.17c-.05.39-.11.77-.15,1.17v.07c-.31,2.74-.54,5.78-.69,9v.38a1.94,1.94,0,0,1,0,.24v.11a2,2,0,0,1-4,0,2.81,2.81,0,0,1,0-.29h0c0-.53,0-1,0-1.44l0-.28c-.17-3.29-.44-6.27-.78-9A26.6,26.6,0,0,1,75,64.77ZM44.46,63l.1-.11ZM42.23,45.66h0ZM33.93,62a7.21,7.21,0,0,1-4.21-3.93c-.09-.21-.18-.44-.26-.66a7.23,7.23,0,0,1,1.21-6.71l0,0,0,0c.08-.1.15-.19.21-.25l0,0,0,0A7.16,7.16,0,0,1,36.34,48a7.23,7.23,0,0,1,.82,14.41,6.56,6.56,0,0,1-.82.05A7.31,7.31,0,0,1,33.93,62ZM43.8,63.6l-.18.15Zm-.82.66-.24.17Zm-.88.59-.29.17Zm-.94.5-.33.16Zm-2.08.75-.32.08ZM37.59,81.22A4.16,4.16,0,0,1,41,77.13a33.79,33.79,0,0,0,1.13,8.21c-.13,0-.26,0-.4,0A4.16,4.16,0,0,1,37.59,81.22Zm61.65,4.83A26,26,0,0,1,49,76.62a25.11,25.11,0,0,1,.25-3.6c.07-.83.11-1.6.11-2.32,0-4.58-1.3-6.8-4.12-8.65.15-.19.29-.4.43-.6a1.63,1.63,0,0,1,.11-.17c.12-.19.23-.38.34-.57s.1-.17.14-.26.19-.36.27-.54l.15-.34c.07-.17.14-.34.2-.52s.1-.27.14-.41a4.58,4.58,0,0,0,.15-.49c0-.16.08-.33.12-.5s.07-.29.09-.44.07-.41.09-.62,0-.24.05-.36c0-.33,0-.67,0-1h0a10.73,10.73,0,0,0-.1-1.4c0-.11,0-.22,0-.33-.06-.38-.14-.75-.23-1.12l-.06-.21A10.8,10.8,0,0,0,46,49.55h0a25.35,25.35,0,0,1,6.61-1.14c3.64,0,6.58,1.52,8.71,6.09,1.85,4,3.08,10.26,3.6,19.84,0,.41.07,1.27.06,1.28,0,.34,0,.68,0,1a10,10,0,0,0,19.91,0v0c0-.32.05-.65.05-1v0c.15-3.18.37-6,.65-8.52.67-5.63,1.68-9.68,3-12.55,2.13-4.57,5.08-6.1,8.71-6.1a25.93,25.93,0,0,1,7,1.24,11.16,11.16,0,0,0-1.48,5.57,11,11,0,0,0,.56,3.5c.12.33.24.65.37,1a11,11,0,0,0,1.27,2.18c-3,1.89-4.45,4.1-4.41,8.83,0,.71,0,1.48.12,2.32a26.76,26.76,0,0,1,.25,3.6A25.87,25.87,0,0,1,99.24,86.05Zm-54-37.65v0Zm68.4,32.82a4.17,4.17,0,0,1-4.16,4.16,4,4,0,0,1-1.56-.31,33.84,33.84,0,0,0,1.06-8,4.09,4.09,0,0,1,4.66,4.12Z"/></g></svg>