<svg xmlns="http://www.w3.org/2000/svg" viewBox="0 0 150 150"><title>Hei-tiki-bold</title><g id="Hei_tiki" data-name="Hei tiki"><path d="M109,84.19l0-1.14,0-.33h0a11.83,11.83,0,0,0-1.18-4A25.48,25.48,0,0,0,82.27,37.12,36.93,36.93,0,0,0,37,82.36a25.48,25.48,0,0,0,24.4,32h.24a25.32,25.32,0,0,0,17-6.55,11.33,11.33,0,0,0,3.52,1l25.32,1.27h.08l2.28.17-.13-2.26Zm-6.6,16a24.34,24.34,0,0,0-6.32-13.14,2.87,2.87,0,0,1,.83-.19,4,4,0,0,1,3,1.5c3.52,3.52,5.16,12.38,5.72,17.51-5.06-.65-13.78-2.41-17.3-5.93A4.09,4.09,0,0,1,86.79,97a2.76,2.76,0,0,1,.19-.87,24.7,24.7,0,0,0,13.18,6.29l2.54.31ZM54,50.75a28.84,28.84,0,0,1,16.57-6.81,25.34,25.34,0,0,0-7.21,16.34Zm-2.86,2.79,9.66,9.85a25.27,25.27,0,0,0-16.91,7.22A28.87,28.87,0,0,1,51.09,53.54Zm10.4,52.81A17.5,17.5,0,0,1,49.27,76.5l.13-.13a17.35,17.35,0,0,1,12.25-5V64.3l2.91,3h0c1,1.07,1.31,4.29.59,7.33l3.9.92a18.36,18.36,0,0,0,.41-6.11,15.31,15.31,0,0,0,2,.13,19.5,19.5,0,0,0,3.89-.4l-.8-3.92c-3,.63-6.13.3-7.17-.75l-2.67-2.73h6.52a17.4,17.4,0,0,1,5-12.24l.13-.12a17.49,17.49,0,0,1,25.55,23.85,12,12,0,0,0-5.33-1,11.67,11.67,0,0,0,1.32-1.12A12.75,12.75,0,1,0,89,74.74c.25,0,.49,0,.74,0a10.76,10.76,0,0,0-1,.89,12,12,0,0,0-3.45,7l-1.05-1.07h0c-1-1.07-1.31-4.27-.6-7.31l-3.89-.91a18.29,18.29,0,0,0-.4,6.1,18.16,18.16,0,0,0-6,.27l.82,3.91c3.07-.65,6.18-.33,7.23.74h0l.9.91a11.91,11.91,0,0,0-6.71,3.28,11.2,11.2,0,0,0-1.19,1.39c0-.33.05-.65.05-1a12.73,12.73,0,1,0-3.81,9A13.29,13.29,0,0,0,72,96.27c0,.23,0,.45,0,.67a11.89,11.89,0,0,0,1.11,5.13A17.43,17.43,0,0,1,61.49,106.35ZM95.13,68.24a8.74,8.74,0,1,1,2.62-6.17A8.7,8.7,0,0,1,95.13,68.24ZM70.4,88.93a8.74,8.74,0,1,1-2.5-6.21A8.65,8.65,0,0,1,70.4,88.93Zm13.49,16-.43,0-.6,0h0a7.91,7.91,0,0,1-4.47-13.49,8,8,0,0,1,8.8-1.58L91.89,92,89.8,87.21a7.92,7.92,0,1,1,15.16-4l.18,5.72a14.25,14.25,0,0,0-2.45-3.39,7.84,7.84,0,0,0-6-2.66,7.59,7.59,0,0,0-5.2,2.75l-1.21,1.52,1.49,1.25a22,22,0,0,1,6.07,9.46,22.34,22.34,0,0,1-9.51-6l-1.25-1.47-1.52,1.2a7.62,7.62,0,0,0-2.74,5.2,7.81,7.81,0,0,0,2.65,6,15,15,0,0,0,3.29,2.41Z"/><path d="M84.71,57.62A6.14,6.14,0,0,0,89,68.13h0a6.07,6.07,0,0,0,4.3-1.76,6.13,6.13,0,0,0-8.59-8.75Zm5.79,5.9a2.07,2.07,0,0,1-1.52.61,2.12,2.12,0,0,1-1.5-.64A2.09,2.09,0,0,1,86.87,62a2.14,2.14,0,0,1,.64-1.51A2.1,2.1,0,0,1,89,59.86a2.14,2.14,0,0,1,1.5,3.66Z"/><path d="M55.52,88.8a6.13,6.13,0,1,0,1.84-4.33A6.12,6.12,0,0,0,55.52,88.8Zm4.64-1.47a2.09,2.09,0,0,1,1.49-.61h0a2.1,2.1,0,0,1,1.51.64,2.14,2.14,0,0,1-3,3,2.16,2.16,0,0,1-.61-1.52A2.12,2.12,0,0,1,60.16,87.33Z"/><polygon points="77.2 71.65 72.71 72.78 71.5 77.24 75.99 76.11 77.2 71.65"/></g></svg>