<svg xmlns="http://www.w3.org/2000/svg" viewBox="0 0 150 150"><title>heitaiaha-bold</title><g id="Hei_taiaha" data-name="Hei taiaha"><path d="M84.29,49.54a5.2,5.2,0,1,0,7.36,0A5.22,5.22,0,0,0,84.29,49.54Zm5.52,5.52a2.6,2.6,0,1,1,0-3.68A2.61,2.61,0,0,1,89.81,55.06Z"/><path d="M65.72,56.9a5.2,5.2,0,1,0-7.36,0A5.22,5.22,0,0,0,65.72,56.9ZM60.2,51.38a2.6,2.6,0,1,1,0,3.68A2.61,2.61,0,0,1,60.2,51.38Z"/><path d="M107.27,43.51a26.28,26.28,0,0,0-.36-9l-.76-3-.76-3-3-.77-3-.76A29.92,29.92,0,0,0,92,26.09c-.89,0-1.8.05-2.82.15a82.2,82.2,0,0,0-28.39,0c-1-.1-1.92-.15-2.81-.15a29.86,29.86,0,0,0-7.41.93l-3,.76-3,.77-.76,3-.76,3a27.41,27.41,0,0,0-.4,9.13,24.67,24.67,0,0,0,6.13,21A21.45,21.45,0,0,0,54.72,96l3.05,1.86c.39,1.22.85,2.62,1,3.06h0a46.54,46.54,0,0,0,2.34,5.35,65.32,65.32,0,0,0,10,15.09l3.74,4,3.82-4a63.53,63.53,0,0,0,10.12-15.14c.55-1.09,1.42-3.1,2.12-4.72l.12-.27.05-.1.09-.23c.06-.16.21-.53,1.09-3.15l3-1.86a21.45,21.45,0,0,0,5.78-31.34A25,25,0,0,0,107.27,43.51Zm-28.89-8a25.28,25.28,0,0,0-3.3,2.66,25.63,25.63,0,0,0-3.33-2.67Q75.07,35.32,78.38,35.47ZM53.17,37.09a19.49,19.49,0,0,1,18.59,5.07,19.8,19.8,0,0,1,3.34,4.48,18.84,18.84,0,0,1,3.35-4.53A19.11,19.11,0,0,1,92,36.49a19.54,19.54,0,0,1,4.8.6,10.45,10.45,0,0,1,.27,2,19.87,19.87,0,0,0-3.85-.38A19.38,19.38,0,0,0,75,51.4,19.38,19.38,0,0,0,56.75,38.71a20,20,0,0,0-3.86.38A10.47,10.47,0,0,1,53.17,37.09ZM79,59.81a2.59,2.59,0,0,1,2.47,1.83,2.44,2.44,0,0,1,.13.77,2.6,2.6,0,1,1-2.6-2.6Zm-5.39,2.6a2.55,2.55,0,0,1-.17.88,2.59,2.59,0,0,1-5-.88,2.49,2.49,0,0,1,.13-.77,2.59,2.59,0,0,1,5.07.77Zm-20.45-18a14.45,14.45,0,0,1,3.58-.45A14.25,14.25,0,0,1,71,57.13a5.16,5.16,0,0,0-5,4.29,4.52,4.52,0,0,0-.1.75,14.51,14.51,0,0,1-2.77-.5,14.23,14.23,0,0,1-9.94-17.31ZM85.87,77.9c0,.68-.09,1.35-.15,2,0,.45-.09.9-.15,1.36l-.12,1c-.07.54-.15,1.08-.23,1.62l-.06.35c-.11.63-.21,1.25-.33,1.87l-.11.52c-.15.77-.31,1.53-.5,2.29a1.33,1.33,0,0,1,0,.19l-.74,2.66c-.76,2.27-1.62,4.79-1.83,5.38l-.13.29c-.34.8-1.39,3.22-1.91,4.26A62.65,62.65,0,0,1,75,109.47a61,61,0,0,1-4.55-7.77c-.59-1.18-1.77-3.93-2-4.47-.32-.88-2.38-7.3-2.64-8.25v0c-.19-.78-.36-1.56-.53-2.34l-.1-.49c-.11-.58-.22-1.16-.32-1.74,0-.19-.07-.38-.1-.58-.08-.5-.16-1-.23-1.49l-.15-1.2c0-.4-.1-.79-.14-1.19-.07-.74-.13-1.49-.18-2.23,0-.07,0-.14,0-.21a4.3,4.3,0,0,1,.84-.2,5.83,5.83,0,0,1,1-.08,5.89,5.89,0,0,1,4.84,2.55L75,85.93l4.27-6.17a5.89,5.89,0,0,1,4.84-2.55,5.7,5.7,0,0,1,.95.08,2.61,2.61,0,0,1,.27.06,5.27,5.27,0,0,1,.57.14C85.9,77.63,85.88,77.76,85.87,77.9Zm4.06,9.24h0l.06-.36c.1-.53.19-1.07.28-1.61s.17-1,.24-1.52l.12-1c0-.25.07-.51.1-.77.08-.7.15-1.4.21-2.12,0-.47.08-.94.11-1.43s0-.74.06-1.11c0-.88.08-1.76.09-2.67-.12-.1-.24-.18-.36-.27A11.05,11.05,0,0,0,75,76.8a11.07,11.07,0,0,0-16-2.39l-.21.16c0,.92,0,1.82.08,2.7l.06,1.1c0,.49.08,1,.13,1.44q.09,1.06.21,2.1c.07.57.15,1.13.23,1.69,0,0,0,.05,0,.08l.24,1.48c.12.67.24,1.35.37,2A11.08,11.08,0,1,1,75,71.4,11.09,11.09,0,1,1,89.93,87.14Zm3.16-29.08a14.18,14.18,0,0,1-6.19,3.61,14.65,14.65,0,0,1-2.77.5,6.15,6.15,0,0,0-.1-.75,5.18,5.18,0,0,0-5-4.29A14.25,14.25,0,0,1,93.26,43.91a14.38,14.38,0,0,1,3.57.45A14.32,14.32,0,0,1,93.09,58.06Z"/></g></svg>