<svg xmlns="http://www.w3.org/2000/svg" viewBox="0 0 150 150"><title>Rūaumoko-bold</title><g id="Rūaumoko"><path d="M84.75,99.36A5.67,5.67,0,0,0,80,101.92L78,105,80,108.16a5.67,5.67,0,1,0,4.74-8.8Zm0,7.36a1.69,1.69,0,0,1-1.41-.77l-.6-.91.6-.92a1.71,1.71,0,0,1,1.41-.76,1.68,1.68,0,0,1,0,3.36Z"/><path d="M65.25,99.36a5.68,5.68,0,1,0,4.74,8.8L72.05,105,70,101.92A5.67,5.67,0,0,0,65.25,99.36ZM66.66,106a1.68,1.68,0,1,1,0-1.83l.6.92Z"/><path d="M109.23,90.1A13.08,13.08,0,0,0,102,78.45c0-.52,0-1,0-1.56V23.31l-6.52,5.28L87.55,35a16.84,16.84,0,0,0-3.74-4.6,13.4,13.4,0,0,0-17.61,0A16.59,16.59,0,0,0,62.45,35l-7.94-6.43L48,23.31V76.89c0,.51,0,1,0,1.56a13,13,0,0,0-.14,23.22,17.26,17.26,0,0,0-.32,3.37,17.71,17.71,0,0,0,13.76,17.24s1.44.44,13.66.44,13.66-.44,13.66-.44A17.71,17.71,0,0,0,102.42,105a17.26,17.26,0,0,0-.32-3.37A13.09,13.09,0,0,0,109.23,90.1ZM84.75,114.72a9.66,9.66,0,0,1-8.08-4.36L75,107.83l-1.67,2.53a9.68,9.68,0,1,1,0-10.64L75,102.24l1.67-2.52a9.67,9.67,0,1,1,8.08,15ZM75,35.11c4.6,0,6.67,5.43,7.29,9.31l-7,5.69a.41.41,0,0,1-.5,0l-7-5.7C68.34,40.55,70.4,35.11,75,35.11ZM72.23,53.23a4.44,4.44,0,0,0,5.54,0L94,40.08v10.7L81.45,79.4l0,0L75,84.6l-6.43-5.24,0,0L56,50.78V40.08ZM59.58,70.85A4.47,4.47,0,0,0,56,72.66V60.74l4.47,10.2A4.41,4.41,0,0,0,59.58,70.85Zm1.5,4.5a1.5,1.5,0,1,1-1.5-1.5A1.5,1.5,0,0,1,61.08,75.35Zm-1.5,4.5a4.48,4.48,0,0,0,3.84-2.18l2.5,5.71-3.31,5a9,9,0,0,0-6-6.84,18.82,18.82,0,0,1-.54-3.44A4.47,4.47,0,0,0,59.58,79.85Zm9.89,5.41L75,89.76l5.53-4.5,4,6.11A13.63,13.63,0,0,0,75,95.45a13.63,13.63,0,0,0-9.56-4.08Zm14.61-1.89,2.5-5.7a4.46,4.46,0,0,0,7.35.46,18.7,18.7,0,0,1-.53,3.43,9,9,0,0,0-6,6.84Zm6.34-9.52a1.5,1.5,0,1,1-1.5,1.5A1.51,1.51,0,0,1,90.42,73.85Zm-.89-2.91L94,60.74V72.65a4.49,4.49,0,0,0-3.58-1.8A4.33,4.33,0,0,0,89.53,70.94Zm6.7,14.16a5,5,0,1,1-5,5A5,5,0,0,1,96.23,85.1Zm-42.46,0a5,5,0,1,1-5,5A5,5,0,0,1,53.77,85.1Z"/></g></svg>