<svg id="Koru" xmlns="http://www.w3.org/2000/svg" viewBox="0 0 150 150"><title>Koru-double-bold</title><path d="M75,24.58a50.14,50.14,0,1,0,50.13,50.13A50.19,50.19,0,0,0,75,24.58Zm0,92.27a41.72,41.72,0,0,1-9.54-1.11,41.38,41.38,0,0,0,14.11-.58A36.51,36.51,0,0,0,101,100.74,35.74,35.74,0,0,0,107.47,76,28.59,28.59,0,0,0,81.62,51.22c-1.07,0-2.12-.1-3.18-.06a22.57,22.57,0,0,0-3.18.34,25.74,25.74,0,0,0-3.09.75c-.5.17-1,.38-1.48.57a9.89,9.89,0,0,0-1.45.65A21.52,21.52,0,0,0,64,57,22.22,22.22,0,0,0,57.6,67.59a23.32,23.32,0,0,0-.76,6.16,23.58,23.58,0,0,1,1-6.09,21.42,21.42,0,0,1,2.64-5.52,21,21,0,0,1,4.06-4.55,20.42,20.42,0,0,1,5.13-3.22,8.52,8.52,0,0,1,1.4-.56c.48-.16,1-.34,1.43-.48a23.17,23.17,0,0,1,3-.6,21.39,21.39,0,0,1,3-.2c1,0,2,.13,3,.18a26.81,26.81,0,0,1,11.17,4.1,26.18,26.18,0,0,1,11.85,19.56,32.26,32.26,0,0,1-26,33.9c-.94.17-1.9.25-2.84.39s-1.92.08-2.87.14a23.44,23.44,0,0,1-2.89-.12l-1.45-.1c-.24,0-.48,0-.72-.06l-.72-.13-2.85-.49c-.95-.2-1.87-.51-2.8-.75L60,108.76l-1.34-.53c-.89-.37-1.81-.66-2.67-1.09a39.76,39.76,0,0,1-17-15,40.85,40.85,0,0,1-4.54-10.36A42.94,42.94,0,0,1,33.1,70.66h0a42.1,42.1,0,0,1,51.47-37,41.14,41.14,0,0,0-14.11.59A36.51,36.51,0,0,0,49,48.69a35.72,35.72,0,0,0-6.44,24.69A28.56,28.56,0,0,0,68.38,98.2c1.07,0,2.12.1,3.18.07a22.57,22.57,0,0,0,3.18-.34,25.74,25.74,0,0,0,3.09-.75c.5-.18,1-.38,1.48-.57A11.07,11.07,0,0,0,80.76,96,22.24,22.24,0,0,0,92.4,81.83a23.24,23.24,0,0,0,.76-6.15,23.57,23.57,0,0,1-1,6.08,21.48,21.48,0,0,1-2.64,5.53,21.17,21.17,0,0,1-4.06,4.54,20.42,20.42,0,0,1-5.13,3.22,9.55,9.55,0,0,1-1.4.57c-.48.16-1,.34-1.43.48a23.13,23.13,0,0,1-3,.59,21.39,21.39,0,0,1-3,.2c-1,0-2-.12-3-.18a26.66,26.66,0,0,1-11.17-4.09A26.22,26.22,0,0,1,45.51,73.06a32.26,32.26,0,0,1,26-33.9c.94-.17,1.9-.26,2.84-.39s1.92-.09,2.87-.14a20.08,20.08,0,0,1,2.89.12l1.45.1.72,0L83,39l2.85.5c1,.19,1.87.51,2.8.75l1.39.39,1.34.53c.89.37,1.81.65,2.67,1.09a39.76,39.76,0,0,1,17,15,40.94,40.94,0,0,1,4.54,10.35,42.94,42.94,0,0,1,1.39,11.16h0A42.18,42.18,0,0,1,75,116.85Z"/></svg>