<svg xmlns="http://www.w3.org/2000/svg" viewBox="0 0 150 150"><title>Tūmatauenga-bold</title><g id="Tūmatauenga"><path d="M75.1,39.19A35.81,35.81,0,1,0,110.91,75,35.85,35.85,0,0,0,75.1,39.19Zm18,25.88a3.42,3.42,0,0,1-6.52,1.44l6.29-2.65A3.47,3.47,0,0,1,93.1,65.07ZM57.65,63.86l6.29,2.65a3.42,3.42,0,0,1-6.52-1.44A3.47,3.47,0,0,1,57.65,63.86ZM49.36,85.52a4,4,0,0,1,7.46,1.24,22.29,22.29,0,0,0-3,6.14A27.72,27.72,0,0,1,49.36,85.52ZM59.77,98.19A15.32,15.32,0,0,1,71.56,84.45l3.54,2.76,3.51-2.73A15.32,15.32,0,0,1,90.26,98.3a27.74,27.74,0,0,1-30.49-.11ZM96.24,93A22.09,22.09,0,0,0,93.35,87a4,4,0,0,1,7.48-1.44A27.89,27.89,0,0,1,96.24,93Zm6-12a7.93,7.93,0,0,0-11.87,2.33,22.32,22.32,0,0,0-5.42-3.85l.06,0V73H79.38v4H81v.52l-5.9,4.59-5.92-4.6V77h1.6V73h-5.6V79.5h0a22.19,22.19,0,0,0-5.43,3.8A7.93,7.93,0,0,0,48,81.08a27.64,27.64,0,0,1,3.08-20L54,62.3a7.51,7.51,0,0,0-.54,2.77,7.42,7.42,0,0,0,14.21,3l.11,0a4,4,0,0,0,1.55.31,3.91,3.91,0,0,0,2.21-.67,4,4,0,0,0,1.79-3.33V53.75h-8V58.4l-9.05-3.82a27.75,27.75,0,0,1,37.82.1L85.23,58.4V53.75h-8V64.42A4,4,0,0,0,79,67.75a3.91,3.91,0,0,0,2.21.67,4,4,0,0,0,1.55-.31l.11,0a7.42,7.42,0,0,0,14.21-3,7.22,7.22,0,0,0-.54-2.76l2.66-1.12a27.64,27.64,0,0,1,3,19.89Z"/><path d="M78.57,89.17a10,10,0,0,0-3.24.51,10,10,0,0,0-3.24-.51c-3.07,0-5.7,1.26-6.69,3.22L69,94.21a2,2,0,0,1,1-.67c.67,2.29,2.86,4.93,3.89,6.08l1.49,1.67,1.49-1.67c1-1.15,3.23-3.79,3.9-6.08a2,2,0,0,1,1,.67l3.56-1.82C84.26,90.43,81.63,89.17,78.57,89.17Zm-3.25,5.94c-.4-.55-.75-1.08-1-1.54a1,1,0,0,1,.18.07l.86.41.86-.41.16-.06C76.07,94,75.72,94.57,75.32,95.11Z"/><path d="M125.66,71.5a26.32,26.32,0,0,0-3.73-11.6,8,8,0,0,0-.52-5.48,26.2,26.2,0,0,0-7.47-9.62,8,8,0,0,0-2.36-5,26.37,26.37,0,0,0-10.3-6.46,8,8,0,0,0-3.93-3.9A26.85,26.85,0,0,0,86.22,26.9h-.76a8,8,0,0,0-5-2.31c-.83-.07-1.66-.1-2.46-.1a25.29,25.29,0,0,0-9.59,1.77A8,8,0,0,0,65,25.52a8.29,8.29,0,0,0-2.14.29A26.33,26.33,0,0,0,52.1,31.5a5.44,5.44,0,0,0-.57,0h-.1A8,8,0,0,0,46.78,33a26.29,26.29,0,0,0-8.17,9,8,8,0,0,0-4.5,3.19,26.35,26.35,0,0,0-4.59,11.28A8,8,0,0,0,26.39,61a26.41,26.41,0,0,0-.47,12.18,8,8,0,0,0-1.39,5.33,26.45,26.45,0,0,0,3.73,11.6,8,8,0,0,0,.52,5.48,26.2,26.2,0,0,0,7.47,9.62,8,8,0,0,0,2.36,5,26.44,26.44,0,0,0,10.3,6.46,8,8,0,0,0,3.94,3.9A26.77,26.77,0,0,0,64,123.1h.76a8,8,0,0,0,5,2.31c.83.07,1.66.1,2.46.1a25.29,25.29,0,0,0,9.59-1.77,8,8,0,0,0,3.37.75,8.29,8.29,0,0,0,2.14-.29A26.44,26.44,0,0,0,98.1,118.5q.33,0,.66,0a8,8,0,0,0,4.65-1.49,26.33,26.33,0,0,0,8.18-9,8,8,0,0,0,4.49-3.19,26.25,26.25,0,0,0,4.6-11.28A8.07,8.07,0,0,0,123.81,89a26.53,26.53,0,0,0,.46-12.18A8,8,0,0,0,125.66,71.5Zm-8,.77c-.08,0-3.41-1.57-5.34-1.57a2.63,2.63,0,0,0-.41,0s0,0,0,.07c2.32,2,6.5,7.06,4.14,16.21h0C116,87,113,84,111.18,83.59h0a0,0,0,0,0,0,.06c1.5,2.67,3.7,8.85-1.65,16.64h0s-1.83-3.9-3.42-4.88h0a0,0,0,0,0,0,0c.49,3,.45,9.59-7.24,15.08h0s-.39-4.3-1.55-5.76h0s0,0,0,0c-.57,3-2.86,9.16-12,11.69h0s1.11-4.17.52-5.94a.05.05,0,0,0,0,0,.05.05,0,0,0,0,0c-1.46,2.46-5.25,7-13.4,7-.59,0-1.2,0-1.83-.07,0,0,2.46-3.54,2.51-5.4a0,0,0,0,0,0,0h0A13.91,13.91,0,0,1,64,115.1a18.82,18.82,0,0,1-7.81-1.84s3.52-2.48,4.21-4.22c0,0,0-.05,0-.05h0a13.94,13.94,0,0,1-4.53.76c-3.2,0-7.33-1.11-11.57-5.28,0,0,4.15-1.12,5.39-2.52a0,0,0,0,0,0-.07c-3.07,0-9.52-1.22-13.59-9.75h0c.18,0,1,.06,2,.06a9.43,9.43,0,0,0,3.86-.58,0,0,0,0,0,0-.07c-2.86-1.09-8.52-4.41-9.43-13.81h0c.08,0,3.41,1.57,5.35,1.57a2.5,2.5,0,0,0,.4,0s0,0,0-.07c-2.31-2-6.5-7.06-4.14-16.21h0C34.19,63,37.2,66,39,66.41h0a0,0,0,0,0,0-.06c-1.5-2.67-3.7-8.85,1.65-16.64h0s1.83,3.9,3.42,4.88h0s.05,0,0,0c-.49-3-.45-9.59,7.24-15.08h0s.39,4.3,1.55,5.76h0s0,0,0,0c.57-3,2.86-9.16,12-11.69h0s-1.1,4.17-.52,5.94a.05.05,0,0,0,0,0l0,0c1.46-2.46,5.26-7,13.4-7,.59,0,1.2,0,1.84.07,0,0-2.47,3.54-2.52,5.4a0,0,0,0,0,0,.05h0a13.93,13.93,0,0,1,8.86-3.11A18.82,18.82,0,0,1,94,36.74S90.51,39.22,89.82,41c0,0,0,0,0,0h0a14,14,0,0,1,4.53-.76c3.2,0,7.33,1.11,11.58,5.28,0,0-4.16,1.12-5.4,2.52,0,0,0,.07,0,.07,3.06,0,9.51,1.22,13.58,9.75h0c-.17,0-1-.06-2-.06a9.43,9.43,0,0,0-3.86.58s0,.06,0,.07c2.87,1.09,8.53,4.41,9.44,13.81Z"/></g></svg>