<svg xmlns="http://www.w3.org/2000/svg" viewBox="0 0 150 150"><title>Koru-aihe-bold</title><g id="Koru_Aihe" data-name="Koru Aihe"><circle cx="63.5" cy="41.35" r="2"/><path d="M85.73,122.94c23.8-4.8,33.47-29.77,35.19-34.84a64.51,64.51,0,0,0,3.19-20A82.18,82.18,0,0,0,122.05,53l.27-.1,9.32-3.66L126,40.93c-5.8-8.55-17.82-11.15-21.77-11.79-6.72-2.68-16.46-6-26.56-6-12.9,0-22.74,5.41-28.64,15.69A47.75,47.75,0,0,0,43,42.32C37.6,46.1,37.2,50.21,37.81,53c1.71,7.79,10.93,7.79,14.86,7.79,1.44,0,3,0,4.86-.13,3.93-.19,6.63-.27,8.45-.3l.94,1.49c6,9.55,11.67,18.58,24.07,18.58.32,0,.64,0,1,0l5.14-.19c2.08,2,4.4,7.57,4.36,11.3.32,4.31-1.34,10.74-3.91,14.29a26.28,26.28,0,0,1-5,4.59,15.31,15.31,0,0,0-3.13-14.91,10.81,10.81,0,0,0-15.23-.86,8.08,8.08,0,0,0-.64,11.4,6.44,6.44,0,0,0,9.09.51,5.41,5.41,0,0,0,1.82-3.76c0-.17,0-.33,0-.5a7.32,7.32,0,0,1-1.6,8.86c-4.09,3.66-10.55,4.09-14.81,3a26.41,26.41,0,0,1-11.95-6.76,20.79,20.79,0,0,1-4.82-9.7c-.85-4.06.33-8.67,2.86-11.2a5.2,5.2,0,0,1,3.66-1.53h.11a5.09,5.09,0,0,0-1.11.86,6,6,0,0,0,0,8.46,7.32,7.32,0,0,0,10.34,0,9.52,9.52,0,0,0,0-13.45,13.07,13.07,0,0,0-9.31-3.86h0a13.11,13.11,0,0,0-9.32,3.88s0,0,0,0c.12-.56.25-1.12.39-1.65a17.8,17.8,0,0,0-2.88-15.46,11.66,11.66,0,0,0-16.38-1.8A8.59,8.59,0,0,0,28.2,74a6.76,6.76,0,0,0,9.49,1,5.66,5.66,0,0,0,1.65-6.68c.11.12.23.24.33.36a10,10,0,0,1,1.38,8.42,42.46,42.46,0,0,0-1.41,10.06,36.54,36.54,0,0,0,36.5,36.5A59.51,59.51,0,0,0,85.73,122.94ZM107,91C107.18,74.53,96.88,60.88,82.5,55c0,0,3.65,13,9.15,17.45H91c-9.41,0-12.77-8-20.59-20a21.33,21.33,0,0,0-2.57-.08c-1.91,0-5.18.07-10.68.33-1.6.08-3.11.12-4.48.12-8.28,0-11.29-1.65,2.23-7.87,5-10.61,13.88-13.77,22.79-13.77,9.78,0,19.62,3.81,24.46,5.77,0,0,12.5,1.5,17.25,8.5l-6.72,2.63s3.43,13,3.43,20.07a61.69,61.69,0,0,1-14.81,39.43A26.83,26.83,0,0,0,107,91Z"/></g></svg>