<svg id="Symbols" xmlns="http://www.w3.org/2000/svg" viewBox="0 0 150 150"><title>Cuauhtli aztec symbol - bold</title><path d="M130.34,60.38c-6-11-19.64-16.2-32.19-19.8A61.86,61.86,0,0,0,81,38.46c-2.42,0-4.86.1-7.26.31-31.34,2.74-54.08,22-54.08,45.81a45.82,45.82,0,0,0,1.79,14.24c3.87,13,8.56,16,11.81,16.32,5,.44,7.34-4.3,9-7.78.27-.56.63-1.3,1-2,.23.72.45,1.52.62,2.11,1,3.74,2.46,8.85,7.47,9.31s7.34-4.31,9-7.79c.27-.56.63-1.3,1-2,.23.72.45,1.52.62,2.12,1,3.73,2.45,8.84,7.47,9.3.25,0,.5,0,.74,0,6.69,0,10.93-8.42,13-12.54l0-.09c.12-.24.25-.46.39-.69l.32-.54c.92-1.58,1.79-3.07,6.07-5.69s11.29-.66,16.49.72,9.18,2.43,11.78-.42c1.54-1.67,1.79-4,.76-6.79a17.21,17.21,0,0,0-1.92-3.78,5.77,5.77,0,0,0-1.51-4.44,7.23,7.23,0,0,0-5.4-1.84c-.73-.41-1.47-.78-2.21-1.11l3.53-4c1-1.12,1.82-1.47,2.12-1.4s1.61,1,2.86,3.79c1.67,3.8,3.28,6.41,4.92,8a5.91,5.91,0,0,0,5.63,1.48,6,6,0,0,0,4.26-4.07C134.4,75.32,134.06,67.22,130.34,60.38ZM82.84,94.21a19.38,19.38,0,0,0-5.73,6.4l-.27.46c-.24.4-.47.8-.72,1.31-2.81,5.58-4.5,7.34-5.33,7.89a30.62,30.62,0,0,1-1-3.24c-1-3.74-2.45-8.85-7.47-9.31l-.66,0c-4.56,0-6.76,4.5-8.38,7.82-.27.56-.63,1.3-1,2-.23-.72-.45-1.51-.62-2.11-1-3.73-2.46-8.84-7.47-9.3s-7.34,4.31-9,7.79c-.39.79-1,2-1.45,2.75-1.28-1.58-3.16-5.45-4.57-10.15a38,38,0,0,1-1.43-11.87c0-16.77,16.07-35.15,46.78-37.84,2.16-.19,4.37-.28,6.56-.28a57.3,57.3,0,0,1,12.74,1.26c2.37,3.38,8.87,14.25,1,22.34-1.33,1.37-2.58,2.61-3.74,3.75C84.54,80.24,79.27,85.47,82.84,94.21Zm42-15.72c-.29-.57-.6-1.22-.93-2-2.21-5-5.22-7.88-8.93-8.46-3.27-.53-6.59.89-9.34,4-1.58,1.77-4.67,5.24-6.91,7.77a4.73,4.73,0,0,0,2.73,7.8,14.88,14.88,0,0,1,8.46,4.69l-1.29-.34c-5.41-1.43-12.46-3.29-18.72-1.53-1-3.07.87-5.09,6.75-10.92,1.19-1.17,2.48-2.45,3.85-3.86,7.47-7.7,6.88-17.12,4-24.56,10,3.69,15.9,7.87,18.75,13.13C125.43,68.11,125.94,72.81,124.84,78.49Z"/><path d="M95,61.83,92.73,60.2a29.44,29.44,0,0,0-34.24,0l-2.27,1.63,2.27,1.62a29.38,29.38,0,0,0,34.23,0Zm-31.6,0a25.15,25.15,0,0,1,8.05-2.77,5,5,0,0,0,0,5.53A25.13,25.13,0,0,1,63.4,61.83Zm16.37,2.76a5,5,0,0,0,0-5.53,25,25,0,0,1,8,2.77A25,25,0,0,1,79.77,64.59Z"/></svg>