<svg id="Symbols" xmlns="http://www.w3.org/2000/svg" viewBox="0 0 150 150"><title>Acatl aztec symbol - bold</title><path d="M50.2,90.68c0-.2-.06-.51-.09-.9a12.2,12.2,0,0,0-24.06-1.69,12.12,12.12,0,0,0,2.36,10.26A12.41,12.41,0,0,0,38.14,103V95a4.52,4.52,0,0,1-3.49-1.68,4.1,4.1,0,0,1-.79-3.51,4.2,4.2,0,0,1,8.28.65,15,15,0,0,0,.2,1.69L45.55,109h59.33l3.24-16.8a15,15,0,0,0,.21-1.78,4.12,4.12,0,0,1,1.49-2.86,4.25,4.25,0,0,1,6.93,2.7,4.11,4.11,0,0,1-1,3.31A4.32,4.32,0,0,1,112.5,95v8a12.33,12.33,0,0,0,9.23-4.16,12.23,12.23,0,1,0-21.38-9,7.41,7.41,0,0,1-.09.85l-2,10.31H94.85c3.75-15.65,11.91-22.73,12-22.81l-1.14-1.37,12.6-3.59a6.94,6.94,0,1,0-3.79-13.35L97,64.88l.31-.15L114.2,54.8a6.94,6.94,0,0,0-7-12l-15.5,9.09L93.8,39.5h-37L59,52.2,43,42.83a6.94,6.94,0,0,0-7,12L53,64.73l.31.15-17.56-5a7,7,0,0,0-8.57,4.78,6.94,6.94,0,0,0,4.77,8.57l12.63,3.59L43.4,78.19c.08.08,8.25,7.16,12,22.81H52.17Zm25.11,3.26a3.44,3.44,0,1,1,3.44-3.44A3.45,3.45,0,0,1,75.31,93.94Zm0-15.19a19.65,19.65,0,0,1-4.09-6.25h8.17A19.7,19.7,0,0,1,75.31,78.75Zm-4-14.25a20,20,0,0,1,4-6,20,20,0,0,1,4,6ZM86.65,101H79.84a11.4,11.4,0,0,0,6.09-14.72,18,18,0,0,0,7.59-8.7,7.06,7.06,0,0,0,.65.4,6.66,6.66,0,0,0,1.81.7A60.46,60.46,0,0,0,86.65,101Zm29-37.27a3.21,3.21,0,0,1,.8-.11,2.94,2.94,0,0,1,.81,5.76l-14.31,4.08-3.64,1-.93.26a2.94,2.94,0,0,1-3.63-2l0-.19c0-.53,0-1,0-1.4a3,3,0,0,1,2-2ZM92.28,56.21l16.93-9.93a2.92,2.92,0,0,1,1.47-.4,2.76,2.76,0,0,1,.75.1,2.91,2.91,0,0,1,2.1,3.58,2.91,2.91,0,0,1-1.35,1.79L95.25,61.27a2.93,2.93,0,1,1-3-5.06Zm-2.61,8.13a7,7,0,0,0,4.11,1.34,6.8,6.8,0,0,0,.9-.06,6.94,6.94,0,0,0-3.17,2.88H89.05Zm1,8.16c0,.12,0,.23,0,.35-.3,2.63-1.67,6.83-6.85,10a11.52,11.52,0,0,0-4.21-3,21,21,0,0,0,4-7.4h7Zm-6.31-25-1.64,9.58-.61,4a25.79,25.79,0,0,0-5.48-6.87l-1.28-1.08L74,54.22A25.65,25.65,0,0,0,68.58,61L68,57.17,66.32,47.5ZM67,72.5a21.2,21.2,0,0,0,4,7.4A11.5,11.5,0,0,0,66.7,83c-5.58-3.36-6.84-7.85-7.06-10.48H67Zm-5.44-4H58.7a6.91,6.91,0,0,0-3.16-2.88,6.54,6.54,0,0,0,.89.06,7.11,7.11,0,0,0,1.77-.23A6.93,6.93,0,0,0,60.93,64ZM38,51.35A2.93,2.93,0,0,1,38.78,46a2.84,2.84,0,0,1,.76-.1,3,3,0,0,1,1.47.4l16.93,9.93a2.93,2.93,0,1,1-3,5.06Zm13.83,23.4L51,74.5l-3.65-1L33,69.38a2.93,2.93,0,0,1,.8-5.76,3.09,3.09,0,0,1,.8.11L53.48,69.1a2.94,2.94,0,1,1-1.61,5.65Zm2.39,3.92A6.63,6.63,0,0,0,56.05,78a6,6,0,0,0,.75-.49,18.07,18.07,0,0,0,7.83,8.92A11.39,11.39,0,0,0,70.77,101H63.59A60.6,60.6,0,0,0,54.26,78.67Z"/><rect x="48" y="111.5" width="54" height="8"/></svg>