<svg id="Symbols" xmlns="http://www.w3.org/2000/svg" viewBox="0 0 150 150"><title>Cuetzpalin2 aztec symbol - bold</title><path d="M122.38,64.71l-30.6-6.27,0-.7.83-3.65a15.77,15.77,0,0,0,.29-5.37c.49.27,1,.55,1.48.85,3.13,1.88,18.38,7.51,18.38,7.51a1.5,1.5,0,0,0,1.39-2.66l-3.56-1.86h11a1.5,1.5,0,0,0,0-3H110.48a1.81,1.81,0,0,0,.16-1l10.1-.91a1.5,1.5,0,1,0-.27-3l-9,.85L118.7,43a1.5,1.5,0,0,0-.76-2.9s-13.49,4.31-14.17,4.44c-1.33.24-2.66-.25-5.22-1.79-3.42-2.05-12-6.65-18.08-5a7.9,7.9,0,0,0-5,3.91c-1,1.91-1.2,4.4-1.4,7.27-.19,2.7-.41,5.86-1.38,8.27a10,10,0,0,0-.47-1.8,9.47,9.47,0,0,0-12-5.94c-5.8,1.86-12.25,3.58-7.85,1l15-6a1.5,1.5,0,0,0-1.18-2.76l-9.21,4L62.9,42a1.5,1.5,0,1,0-1.59-2.55l-6.59,4.12,1.19-3.37a1.5,1.5,0,0,0-2.82-1l-1.08,3-1.32-3.06a1.5,1.5,0,0,0-2.76,1.19l1.22,2.81-.33.17c-4.24,2.12-7,3.51-8.88,5.18a7.2,7.2,0,0,0-1.63,9.18,5.31,5.31,0,0,0,1.64,2,1.28,1.28,0,0,1-.33,2.26,17.1,17.1,0,0,0-5.32,2.88,12.66,12.66,0,0,0-4.65,9.49c-.06,1.33-.11,2.55-.15,3.68-.43,10.86-.46,11.51-6.23,18.93C20,101.07,17,105.45,19.54,109a5,5,0,0,0,4.36,2.11,12.32,12.32,0,0,0,3.8-.73c4.45-1.49,17.16-9.92,17.16-28.54,0-1,7.14-.81,13.47,6.13.8.88,1.94,2,.7,8.36a.66.66,0,0,1-1.22.2A39.79,39.79,0,0,1,55,91s-2-4-6.5,2.3c-.58.81-9.8,15.24-9.8,15.24a1.51,1.51,0,0,0,.55,2,1.49,1.49,0,0,0,2-.55l5-8.68-3.25,9.11a1.5,1.5,0,1,0,2.82,1l3.33-9.34-1.8,10a1.5,1.5,0,0,0,3,.53l2.22-12.29c2.84,6.17,3.76,7.64,7.33,7.36,3.19-.24,5.36-2.8,6.47-7.61,1.31-5.65,1.47-9.39.81-12.19,1.55-.49,5.2-.81,10.28-.2a7.35,7.35,0,0,1,2.69.66c.06.35.15,1.86-1.74,6.12-2,4.44-.49,7.25.57,8.54,2,2.45,5.62,3.18,9.14,3.18a36.45,36.45,0,0,0,7.28-.83,6.81,6.81,0,0,1,1.19-.16l16.09,3a1.5,1.5,0,0,0,.5-3l-9-1.5,0-.35h10.6a1.5,1.5,0,0,0,0-3H104.65l.15-1,10.75-1a1.5,1.5,0,1,0-.27-3l-9.58.86,2.91-1.87a1.5,1.5,0,0,0,.44-2.07h0a1.49,1.49,0,0,0-2.07-.45l-11,5.3a18.46,18.46,0,0,0-2,.16c-2.08.28-8,1.61-8.27.32-.53-2.64,1.48-5.2,2.2-7.72,4.11.38,8.63.38,11.68.41,1.42,0,2.76,0,3.87.08.39,0,.81,0,1.25,0,2.2,0,4.85-.35,6.71-2.13a6.24,6.24,0,0,0,1.94-3.17h1.79a3,3,0,0,0,1.19,1.13,2,2,0,0,0,.92.24,2.62,2.62,0,0,0,2.14-1.4h.6a2.61,2.61,0,0,0,2.14,1.41,2,2,0,0,0,.92-.24,3.69,3.69,0,0,0,1.71-2.22,10.32,10.32,0,0,0-2.43-19.4Zm-2.11,12.45-10.78.08a4,4,0,0,0-4,4v1.25a12.16,12.16,0,0,1-1.62,0c-1.27-.06-2.69-.08-4.19-.09-4.06,0-14-.28-16.71-1.55v0a17.28,17.28,0,0,0-4.54-1.12c-5.16-.62-11.66-.78-15.69,1.43-3.62-3.15-14-11.33-20.91-8.51-1.58.64-4.25,2.93-4.21,2A4.63,4.63,0,0,1,39.38,71c3.54-2.9,12.11-3.14,19-2.08.64.09,5.35.5,6.9.5a16.34,16.34,0,0,0,10.43-3.19c5.46-4.33,6-11.51,6.31-16.75,0-.52.08-1.1.12-1.66a1.11,1.11,0,0,1,2.06-.49l0,0a7,7,0,0,1,.59,5L82.31,63.56V64a5,5,0,0,0,4,4.86,4.52,4.52,0,0,0,5-2.35l29.47,6a2.33,2.33,0,0,1-.51,4.61Z"/><path d="M121,93.7c1.91-.94,3.3-3.6,3.33-6.77a8.12,8.12,0,0,1-9.68,0c0,3.17,1.42,5.83,3.33,6.77a3.05,3.05,0,0,0,3,0Z"/><path d="M92.43,70.24c-.39,2.3,1.78,4.51,4.93,5a7.62,7.62,0,0,0,1.33.11c2.57,0,4.65-1.3,5-3.26l.21-1.5-11-2.36Zm3.37.82a2.24,2.24,0,0,0,1.86,1.43,2.29,2.29,0,0,0,2.21-.56l1.51.32a3.86,3.86,0,0,1-3.67,1c-2-.33-3.23-1.53-3.22-2.42Z"/></svg>