<svg id="Symbols" xmlns="http://www.w3.org/2000/svg" viewBox="0 0 150 150"><title>Calli aztec symbol - bold</title><path d="M20.5,115.57h109V93.14H85.25v-18h33.67V54.67H42.62v20.5h20.2v18H20.5Zm30.12-48.4v-4.5h60.3v4.5H77.25v26H70.82v-26Zm-22.12,34h93v6.43h-93Z"/><rect x="35.97" y="86.49" width="24.05" height="4"/><polygon points="35.97 81.83 60.02 81.83 60.02 77.83 39.97 77.83 39.97 52.01 118.92 52.01 118.92 48.01 35.97 48.01 35.97 81.83"/><polygon points="95.82 46.04 103.82 46.04 110.92 46.04 111.82 46.04 118.92 46.04 118.92 40.97 111.82 40.97 111.82 35.9 103.82 35.9 103.82 29.81 95.82 29.81 95.82 46.04"/><polygon points="36.28 29.81 36.28 46.04 44.28 46.04 51.38 46.04 52.28 46.04 59.38 46.04 59.38 40.97 52.28 40.97 52.28 35.9 44.28 35.9 44.28 29.81 36.28 29.81"/><polygon points="66.05 46.04 74.05 46.04 81.15 46.04 82.05 46.04 89.15 46.04 89.15 40.97 82.05 40.97 82.05 35.9 74.05 35.9 74.05 29.81 66.05 29.81 66.05 46.04"/></svg>