<svg id="Symbols" xmlns="http://www.w3.org/2000/svg" viewBox="0 0 150 150"><title>Ozomahtli aztec symbol - bold</title><circle cx="84.46" cy="62.4" r="5.25"/><path d="M121.63,105.14a3,3,0,0,0,3-3V97a8.36,8.36,0,0,0-8.54-8.15H88.31a7.6,7.6,0,0,1,5.15-4.68v4.66h4V84h3v4.84h4V84h3v4.84h4V84h2.6V73.62H97.58A17.24,17.24,0,0,0,101,57.23c8.09-4.43,9.54-14.57,9-20.12l-.35-3.61H65.71a42.5,42.5,0,0,0-.22,85h43V109h5.6V99h-2.6V94.86h4.63A2.38,2.38,0,0,1,118.63,97v5.13A3,3,0,0,0,121.63,105.14ZM93.46,94.86v4a7.33,7.33,0,0,1-4.87-4Zm0-53.36h8.46c-.33,3-1.49,7-5.11,8.83a17.53,17.53,0,0,0-3.35-2.65Zm-14,0h10v4.36a17.26,17.26,0,0,0-10,0Zm5,11.62a9.28,9.28,0,1,1-9.28,9.28A9.29,9.29,0,0,1,84.46,53.12ZM65.71,41.5h9.75v6.18a17.08,17.08,0,0,0-3.25,2.55,22.92,22.92,0,0,0-5.89.2l-.76-8.93Zm-4.14.26.83,9.69a20.12,20.12,0,0,0-5.11,2.73l-6.46-9.27A33.94,33.94,0,0,1,61.57,41.76ZM47.33,46.88l7,10c-.4.46-.8.94-1.18,1.45a9.58,9.58,0,0,0-5.81,3.26l-9-6.44A34.56,34.56,0,0,1,47.33,46.88ZM36.14,58.49l9.29,6.68a9.23,9.23,0,0,0-.35,2.48v3.54L32,69.58A34.36,34.36,0,0,1,36.14,58.49ZM31.37,76c0-.82,0-1.64.1-2.45l13.61,1.67v1.31a10.41,10.41,0,0,0-7.47,7.12l-5.22.74A35.17,35.17,0,0,1,31.37,76Zm69.09,34.5h-35A34.18,34.18,0,0,1,33.6,88.26l3.65-.52a10.39,10.39,0,0,0,1.94,5s.54.68.71.87l7.67,9,7.68-9,.71-.87a10.37,10.37,0,0,0-2.88-14.92V67.65a1.55,1.55,0,0,1,1.6-1.44,1.6,1.6,0,0,1,0,3.19v8a9.6,9.6,0,0,0,6.78-16.35,12.27,12.27,0,0,1,6.21-2.78A17.18,17.18,0,0,0,82,79.49,17.73,17.73,0,0,0,94.87,109h5.59Zm0-11.5h-3V94.86h3Zm7,0h-3V94.86h3Z"/></svg>