<svg id="Symbols" xmlns="http://www.w3.org/2000/svg" viewBox="0 0 150 150"><title>Atl aztec symbol - bold</title><path d="M49.52,40H28.84l.43,2.36c1.16,6.38,7,13.23,13.32,15.59a13.39,13.39,0,0,0,4.7.9,10.84,10.84,0,0,0,6.89-2.43c4.28-3.42,4.63-7,4.17-9.34A8.92,8.92,0,0,0,49.52,40Zm2.16,13.3c-2.13,1.71-4.72,2-7.69.9A19.08,19.08,0,0,1,33.9,44H49.52a4.91,4.91,0,0,1,4.9,3.84C54.79,49.77,53.9,51.56,51.68,53.33Z"/><path d="M95.43,56.45a10.86,10.86,0,0,0,6.89,2.43A13.39,13.39,0,0,0,107,58c6.31-2.36,12.16-9.21,13.32-15.59l.43-2.36H100.1a8.93,8.93,0,0,0-8.84,7.08C90.8,49.48,91.15,53,95.43,56.45Zm-.24-8.58A4.92,4.92,0,0,1,100.1,44h15.62a19.1,19.1,0,0,1-10.1,10.2c-3,1.11-5.55.81-7.69-.9S94.82,49.77,95.19,47.87Z"/><polygon points="100.12 64.89 121.44 64.89 121.44 60.89 96.12 60.89 96.12 84.21 53.49 84.21 53.49 60.89 28.18 60.89 28.18 64.89 49.49 64.89 49.49 88.21 100.12 88.21 100.12 64.89"/><path d="M74.81,64.14a8.76,8.76,0,1,0,8.75,8.75,8.58,8.58,0,0,0-.24-2A8.72,8.72,0,0,0,74.81,64.14Zm4.53,10.2a4.76,4.76,0,1,1,.09-2.55,4.53,4.53,0,0,1,.13,1.1A4.72,4.72,0,0,1,79.34,74.34Z"/><rect x="56.82" y="55.53" width="8" height="25.08"/><rect x="84.8" y="55.53" width="8" height="25.08"/><path d="M83.94,48.44a9.13,9.13,0,0,0-18.26,0V63.36h8V48.44a1.13,1.13,0,0,1,2.26,0V63.36h8Z"/><polygon points="30.79 96.34 36.24 102.19 46.42 92.72 46.42 68.22 27.92 68.22 27.92 76.22 38.42 76.22 38.42 89.24 30.79 96.34"/><polygon points="121.69 76.22 121.69 68.22 103.19 68.22 103.19 92.72 113.37 102.19 118.82 96.34 111.19 89.24 111.19 76.22 121.69 76.22"/><polygon points="63.88 107.66 63.88 91.53 50.85 91.53 36.65 104.73 42.09 110.59 53.99 99.53 55.88 99.53 55.88 107.66 63.88 107.66"/><polygon points="93.73 99.53 95.62 99.53 107.52 110.59 112.97 104.73 98.76 91.53 85.73 91.53 85.73 107.66 93.73 107.66 93.73 99.53"/><polygon points="83.87 107.66 83.87 91.53 65.75 91.53 65.75 107.66 73.75 107.66 73.75 99.53 75.87 99.53 75.87 107.66 83.87 107.66"/></svg>