<svg id="Symbols" xmlns="http://www.w3.org/2000/svg" viewBox="0 0 150 150"><title>Mazatl aztec symbol - bold</title><path d="M33.76,92.06a49.41,49.41,0,0,0,6.09,3.55,20.09,20.09,0,0,0,7.89,19.69l1,.7H84.21l1-.67c2.67-1.78,3.61-4.76,3.87-7.33h27c4.83,0,7.46-2,8.82-3.76,2.41-3,2.37-6.88,2.13-8.87V85a5,5,0,0,0,2-4V77.59a7,7,0,0,0-1.21-3.86,4.74,4.74,0,0,1-1-3h0a5.25,5.25,0,0,0-5-7.53c-11.77.59-17.71-1.6-20.63-3.55C95.4,55.79,90.08,52.93,84,51.81l-2.65,7.68c4.6.6,9.12,2.62,15.45,6.84,4.88,3.25,11.87,4.91,20.8,5a3.27,3.27,0,0,0-.08.7c0,2.61,2.94,4.5,7,4.5h.25a2.75,2.75,0,0,1,.25,1.1V81a1,1,0,0,1-1,1H99.43l-.49.3c-.44.28-4.32,2.82-4.49,6.91-.11,2.65,1.35,5.14,4.35,7.39l.53.4H119.1a3.77,3.77,0,0,1-.5,2.27c-.5.63-1.81.73-2.55.73h-32a21.79,21.79,0,0,1-16.66-9.09L65.5,87.78l-3.29,1.64C49.7,95.68,36,84.55,29.66,78.3a103.94,103.94,0,0,1,21.08-6.37c11.45-2.14,13.2,3.32,13.36,3.95l0-.1,7.84-1.56c-.72-3.59-4.24-9.13-12.54-10.47C55.1,53.21,43.53,37.88,24.15,42.09l-4.83,1L31,69.13a83.07,83.07,0,0,0-10,4.36l-4.2,2.29,3,3.73A70.09,70.09,0,0,0,33.76,92.06ZM113.5,87.5h-6V86h6Zm4-1.5H123v1.5h-5.5Zm-4,5.5V93h-6V91.5Zm4,0H123V93h-5.5ZM100.64,86h2.86v1.5H99.19A7.2,7.2,0,0,1,100.64,86Zm-1.4,5.5h4.26V93h-2.81A9.36,9.36,0,0,1,99.24,91.5ZM62.72,97.88a30.13,30.13,0,0,0,18.34,9.85c0,.09,0,.19,0,.27H51.42a12,12,0,0,1-3.86-9.56A26.57,26.57,0,0,0,62.72,97.88ZM30.92,49.39c10.52.21,16.71,8.79,19.66,14.46-.43.06-.87.13-1.32.22-3.83.72-7.38,1.6-10.58,2.53Z"/><path d="M72.58,69.79A25.92,25.92,0,0,0,86,78.29a26.45,26.45,0,0,0,6.53.83,25.91,25.91,0,0,0,9.37-1.76l2.61-1-1.79-2.15a26.05,26.05,0,0,0-29.37-7.57l-2.61,1Zm14.49,4.52a2.39,2.39,0,0,1,.59-4.7,2.47,2.47,0,0,1,.6.08,2.39,2.39,0,1,1-1.19,4.62Zm6.18.79a6.53,6.53,0,0,0,.6-1.5,6.42,6.42,0,0,0,.2-1.62,21.79,21.79,0,0,1,3.49,2.57A21.54,21.54,0,0,1,93.25,75.1ZM82.09,68.9a6.21,6.21,0,0,0-.61,1.5A6,6,0,0,0,81.29,72a20.93,20.93,0,0,1-3.49-2.57A21.45,21.45,0,0,1,82.09,68.9Z"/><path d="M76.67,36.21l-4.48,13v-13h-8V49.22l-4.49-13-7.56,2.61,6.7,19.39a61.07,61.07,0,0,1,18.7,0l6.7-19.39Z"/></svg>