<svg id="Symbols" xmlns="http://www.w3.org/2000/svg" viewBox="0 0 150 150"><title>Quiahuitl aztec symbol - bold</title><path d="M21,50.62v3.76A6.63,6.63,0,0,0,27.62,61H33V53H29V52h7V68.38A6.63,6.63,0,0,0,42.62,75h6.76A6.63,6.63,0,0,0,56,68.38V52H86v4h8V50.62A6.63,6.63,0,0,0,87.38,44H54.62A6.63,6.63,0,0,0,48,50.62V67H44V50.62A6.63,6.63,0,0,0,37.38,44H27.62A6.63,6.63,0,0,0,21,50.62Z"/><path d="M33,98V90H29V89h7v25.38A6.63,6.63,0,0,0,42.62,121h6.76A6.63,6.63,0,0,0,56,114.38V89h45V81H54.62A6.63,6.63,0,0,0,48,87.62V113H44V87.62A6.63,6.63,0,0,0,37.38,81H27.62A6.63,6.63,0,0,0,21,87.62v3.76A6.63,6.63,0,0,0,27.62,98Z"/><rect x="86" y="63" width="8" height="5"/><rect x="86" y="70" width="8" height="5"/><path d="M120,32v8a2,2,0,0,1,0,4H98v8h22a10,10,0,0,0,0-20Z"/><path d="M127,62.18A7.19,7.19,0,0,0,119.82,55H98v8h21v7.82A7.19,7.19,0,0,0,126.18,78H130V70h-3Z"/><path d="M102,66H98v8l4,0v7a8,8,0,0,0,8,8l7,0,0,2h-3v8h3a8,8,0,0,0,8-8V89a8,8,0,0,0-8-8l-7,0V74A8,8,0,0,0,102,66Z"/><circle cx="114.23" cy="69.23" r="3.23"/><circle cx="114.23" cy="76.77" r="3.23"/><path d="M61,65A10,10,0,1,0,71,55,10,10,0,0,0,61,65Zm16,0a6,6,0,1,1-6-6A6,6,0,0,1,77,65Z"/><polygon points="91.4 119.8 94.6 122.2 98 117.67 98 99 101 99 101 91 61 91 61 99 64 99 64 116.33 61.4 119.8 64.6 122.2 68 117.67 68 99 74 99 74 116.33 71.4 119.8 74.6 122.2 78 117.67 78 99 84 99 84 116.33 81.4 119.8 84.6 122.2 88 117.67 88 99 94 99 94 116.33 91.4 119.8"/></svg>