<svg id="Symbols" xmlns="http://www.w3.org/2000/svg" viewBox="0 0 150 150"><title>Tecpatl aztec symbol - bold</title><path d="M119.37,125.65c1.45-.08,3.1-.18,4.29-1.7.51-.64,1.71-2.16.67-14.75A124.64,124.64,0,0,0,119,81.76c-3.89-12.1-9.54-22.36-16.79-30.5-.86-1-1.76-1.92-2.66-2.82-24-24-62.22-24.58-71.5-24.36l-2.19-1-1.94,2.77c-.61.88-1.05,1.51-.77,9.75a129,129,0,0,0,2,18.46c2.45,13.46,8.31,32.45,22.35,46.49,20.92,20.92,53.74,25.24,68.47,25.24C117.21,125.75,118.37,125.71,119.37,125.65ZM96.19,56.58A69.24,69.24,0,0,1,107,73.21L94.37,59.32a4,4,0,1,0-5.91,5.39l18.17,20a4,4,0,0,0,5.07.69,113,113,0,0,1,3.82,17.07,105.49,105.49,0,0,1-21.09-3A4,4,0,0,0,98,92.79l-18.17-20A4,4,0,1,0,74,78.21l5.32,5.84c-2,1.1-4.44,2-6.28,1.5-1.53-.39-2.79-1.87-3.75-4.4h0C68.12,76.46,70.6,71.75,79.6,64c4.76-4.08,7.08-8.75,6.9-13.87a16.18,16.18,0,0,0-.33-2.54,59.83,59.83,0,0,1,7.68,6.47C94.65,54.89,95.44,55.73,96.19,56.58Zm-4.06,41.6a4,4,0,0,0,1.66,1.07l-.35-.09a55.89,55.89,0,0,1-15.16-6.09,24.26,24.26,0,0,0,6.5-3ZM52.07,38.28a20,20,0,0,1,6.57-2.81A95.83,95.83,0,0,1,70,39.05c-.33,0-.67,0-1,0a12,12,0,0,0-9,20,11.93,11.93,0,0,1-5.57.08c-3-.66-6.77-2.69-7.5-8.53C46.29,45.09,48,41.1,52.07,38.28ZM73,51a4,4,0,1,1-4-4A4,4,0,0,1,73,51ZM53.1,94.85c-20-20-22-52.22-22-62.8a121.83,121.83,0,0,1,14.68,1c-4.1,3.45-7.87,9.19-6.72,18.44C40.4,62.43,49.1,67.32,57.13,67.32h0c4.93,0,9-1.68,11.24-4.35.19,0,.38,0,.58,0h0C58.9,73.52,58.5,82,66.77,93.35c5.23,7.2,16.28,11.34,24.63,13.54a112.08,112.08,0,0,0,25,3.56c.23,3,.3,5.53.3,7.33C106.19,117.91,73.43,115.18,53.1,94.85Z"/><path d="M81.22,65.56A4,4,0,0,0,81,71.21l18.17,20A4,4,0,0,0,105,85.79l-18.17-20A4,4,0,0,0,81.22,65.56Z"/></svg>