<svg id="Symbols" xmlns="http://www.w3.org/2000/svg" viewBox="0 0 150 150"><title>Cipactli2 aztec symbol - bold</title><path d="M22,97.61a3.81,3.81,0,0,0,1.54.33,3.62,3.62,0,0,0,.46-.06,11.67,11.67,0,0,0,.07,6.2,4,4,0,0,0,2.26,2.58,3.9,3.9,0,0,0,1.6.34,3.86,3.86,0,0,0,1.75-.42,7,7,0,0,0,.81-.49,13.42,13.42,0,0,0,.54,4.74,4.27,4.27,0,0,0,2.39,2.7,4.42,4.42,0,0,0,1.74.37,4.33,4.33,0,0,0,1.86-.43,13.1,13.1,0,0,0,3.63-3.18,13.49,13.49,0,0,0,.79,3.12,4.14,4.14,0,0,0,2.35,2.38,3.82,3.82,0,0,0,1.33.25,3.76,3.76,0,0,0,1.66-.4,12.49,12.49,0,0,0,2.81-2.08,17.18,17.18,0,0,0,14.33,7H118v-8H87.41c2.43-2.41,3.45-6.05,3.86-9.07a17.62,17.62,0,0,0,7.34-7.08h0c.2-.4.4-.77.6-1.15l.91,7a.85.85,0,0,0,1.27.65c4.52-3,5.3-12.61,5.31-18.84l.93-1,2.92,11.6a.84.84,0,0,0,1.33.49c4.33-3.43,3-12.07,2.09-17.27a4.31,4.31,0,0,0,1.55-6L126.06,63a3,3,0,0,0,.1-4.53c-3.43-3.1-7.69-2.92-11.61-1.57l3.09-3.21a3,3,0,0,0,.85-2.33,3,3,0,0,0-1.21-2.18,10.31,10.31,0,0,0-7.72-1.87l.08-.07a3,3,0,0,0-.08-4.53c-6.33-5.31-15.15-.54-19.79,2.73C81,38.51,73.48,39.57,71,40.19a5.65,5.65,0,0,0-4.08,4c-.89,3.37-1.57,11.68,8.75,21.69l-1.79.87c-2.12,1-4.33,2-6.75,3.07a42.64,42.64,0,0,0-4.28,2.1,10.9,10.9,0,0,0-1.84,1.35c.51-15-6.13-20.57-9.27-22.36A5.61,5.61,0,0,0,46.1,51c-3.1,1.86-9.7,7.71-8.69,23.24H29.94a4.92,4.92,0,0,0-4.61,6.64c0,.1.07.2.11.3-3.09,2.54-7.48,7.48-5.63,13.95A3.86,3.86,0,0,0,22,97.61ZM27.89,103c-1.26-4.41,1.86-8.56,4.51-11.14,1,1.09,2,2.24,3.23,3.43C32,99.81,28.77,102.55,27.89,103Zm7.35,6.89a.26.26,0,0,1-.23,0,.33.33,0,0,1-.16-.17c-1.53-5.16,1.51-9.17,4-11.43,1.15,1,2.39,2.08,3.74,3.17C39.81,105.12,36.58,109.22,35.24,109.87ZM45.15,112a9.59,9.59,0,0,1,.66-8c1.34,1,2.78,2,4.3,3.06C47.54,110.23,46,111.48,45.15,112Zm77.37-51.2-9.75,8.13-4.15-4.15C112.19,62.12,118.41,58.4,122.52,60.76Zm-8.61-8.94L105,61.09l-3.66-3.66L100.2,56.3C103.58,53.61,109.53,49.76,113.91,51.82ZM106,45.13l-8.83,7.95-1.31-1.53a43.56,43.56,0,0,0-3-3.32C96.48,45.83,102.08,43,106,45.13ZM81.09,49.34a23.33,23.33,0,0,1,5.24,3.72,3.65,3.65,0,0,1-5.24-3.72ZM66.85,78.9a33.63,33.63,0,0,1,3.45-1.69c2.55-1.09,4.88-2.15,7.13-3.25l7-3.41a4.11,4.11,0,0,0,.81-7c-9.46-7.35-10.76-13.12-10.73-15.83a11.58,11.58,0,0,1,2.75.24,7.67,7.67,0,0,0,11.91,8c.18.21.36.4.54.62,1.64,2,3.53,4,6,6.45L106.1,73.54c-3.85,3.08-9.48,8.92-14.66,19.27-.11.22-2.9,5.42-12.23,5.42v8a30.92,30.92,0,0,0,4.59-.35,18.79,18.79,0,0,0-.13,6.63H76.22a3.22,3.22,0,0,1,0-6.43v-8A11.23,11.23,0,0,0,65,109.3a11.38,11.38,0,0,0,.47,3.21H63.9a9.46,9.46,0,0,1-7.56-3.23l14-16.79-2.41-2.41a13.75,13.75,0,0,0,5.62-1.81A7.1,7.1,0,0,0,87.34,85.9a7,7,0,0,0-.3-2,12.83,12.83,0,0,1,2.94.62l3-7.42c-.44-.18-11-4.35-22.18,3.49C68.57,82.14,67,82.31,66.37,82a1.44,1.44,0,0,1-.67-1.26A2,2,0,0,1,66.85,78.9ZM52,64a23.18,23.18,0,0,1,.93,5A2.89,2.89,0,0,1,52,64ZM83.34,85.9a3.1,3.1,0,0,1-6.19.14,17.49,17.49,0,0,1,5.57-2A3.12,3.12,0,0,1,83.34,85.9ZM49,58.82a10.13,10.13,0,0,1,1.29,1.55A6.9,6.9,0,0,0,53,73.18c0,.35,0,.7,0,1.06H45.43C44.72,64.84,47.32,60.56,49,58.82Zm8.79,23.42a9.44,9.44,0,0,0,1.87,4.33l-3.3,3.3L59.51,93l-5.7,6.85C43.05,92.39,37.68,86.22,35,82.24ZM27.28,84.89a41.66,41.66,0,0,0,2.45,3.66,22.31,22.31,0,0,1-6.12,5.31C22.63,90.08,25.11,86.87,27.28,84.89Z"/><path d="M96.5,105.76v5.74h11C103.44,102.79,96.5,105.76,96.5,105.76Z"/><path d="M117.79,111c-.5-2.44-2.07-7.71-6.57-9.94a6.17,6.17,0,0,0-5.91.2l-.07,0a1.76,1.76,0,0,0,0,3,15.12,15.12,0,0,1,5.66,6.71Z"/><path d="M120.68,108.71c1.75-1.93,6-7.63.35-12.6a5.44,5.44,0,0,0-7.33.21l-1.27,1.27a.51.51,0,0,0,.16.85c1.77.77,6.2,3.34,7.3,10A.46.46,0,0,0,120.68,108.71Z"/><path d="M126.2,103.21a11,11,0,0,1-4,6.63s2.44,4.48,2,7.51S134.5,112.5,126.2,103.21Z"/><path d="M122.47,86c.74,3-1.26,7.67-1.26,7.67a11,11,0,0,1,4.69,6.2C134.6,88.24,121.74,83,122.47,86Z"/><rect x="86.34" y="59.78" width="4.69" height="4" transform="translate(-18.64 74.52) rotate(-41.63)"/></svg>