<svg id="Symbols" xmlns="http://www.w3.org/2000/svg" viewBox="0 0 150 150"><title>Coatl aztec symbol - bold</title><path d="M126,56.9a18.27,18.27,0,0,0,1.24-6.29l-8-.22a9,9,0,0,1-5.06,8.14l-.4.14,0,.06c-.29.14-.58.28-.88.4,3.65-7.3,2.09-15.51,2-15.91L114.28,40H53.33a35,35,0,0,0-.18,70H87.76l11-28.9c5.89-.23,10.22-2,12.87-5.4a12.65,12.65,0,0,0,2.58-8.57A25.45,25.45,0,0,0,117,66c6.56-2.52,9.43-.72,9.46-.7a1.22,1.22,0,0,1-.15-.12l5.1-6.16A11.66,11.66,0,0,0,126,56.9Zm-42.78-4a2.59,2.59,0,1,1-2.59-2.59A2.59,2.59,0,0,1,83.21,52.85Zm22.1,17.89c-.94,1.19-2.85,2-5.48,2.26H52v8H90.2l-8,21H53.15a27,27,0,0,1,.18-54H71.22A10.59,10.59,0,1,0,90,48h17.3c0,2.73-.48,6.65-2.87,9.56S97.94,62,92.25,62v8h13.51A3.41,3.41,0,0,1,105.31,70.74Z"/><path d="M104.67,82a3.5,3.5,0,0,0-4.52,2l-9,23.34a3.5,3.5,0,0,0,6.54,2.51l9-23.34A3.51,3.51,0,0,0,104.67,82Z"/><path d="M112.83,85.45a3.52,3.52,0,0,0-4.53,2l-7.63,19.88a3.5,3.5,0,1,0,6.53,2.51L114.84,90A3.52,3.52,0,0,0,112.83,85.45Z"/><path d="M112.56,111.87a3.5,3.5,0,0,0,4.52-2L122,97.08a3.5,3.5,0,0,0-6.53-2.51l-4.91,12.78A3.51,3.51,0,0,0,112.56,111.87Z"/><path d="M127.25,99.66a3.51,3.51,0,0,0-4.53,2l-2.18,5.68a3.5,3.5,0,0,0,6.54,2.51l2.18-5.68A3.51,3.51,0,0,0,127.25,99.66Z"/></svg>