<svg id="Symbols" xmlns="http://www.w3.org/2000/svg" viewBox="0 0 150 150"><title>Cozcacuauhtli aztec symbol - bold</title><path d="M48.93,58.59a9.78,9.78,0,0,0,7-.36C72.59,51.14,78.81,63,79.07,63.49l3.58-1.78c-2.71-5.49-12.11-14-28.28-7.16a5.81,5.81,0,0,1-4.14.26c-1.18-.41-1.74-1-1.32-2.74.66-2.82,5.15-1.83,5.34-1.79l.91-3.9c-.44-.1-4.44-1-7.4.87A6.16,6.16,0,0,0,45,51.17C44.18,54.74,45.61,57.45,48.93,58.59Z"/><path d="M57.62,60.19l-3.69,1.54c1.57,3.81,6.56,9.45,15.56,9.45a27.56,27.56,0,0,0,9-1.64l-1.31-3.78C62.36,70.86,57.81,60.63,57.62,60.19Z"/><circle cx="67.68" cy="61.3" r="4.12"/><path d="M125.85,44.73a5.91,5.91,0,0,0-6.19-3.92c-20.25,1.95-25.8-.18-32.23-2.65-5.24-2-11.19-4.3-24.46-4.77a40.25,40.25,0,0,0-29.59,11.7A42.82,42.82,0,0,0,20,75.57c0,22,19.21,40,42.83,40,2.65,0,14.55-.38,20.21-6.27,4.65,1.11,10.34.62,16.72-1.58l.32-.14,0,.08c2,4.48,4.91,6,7.51,6a6.75,6.75,0,0,0,2.71-.58c5.44-2.4,7-10.22,5.67-18.47a5.33,5.33,0,0,0,.55-.92c3.15-7.21,3.49-13.89,1-19.88-2.74-6.6-8.32-11-13.52-13.94,8.16-2.17,14.72-4.92,19.55-8.21A5.88,5.88,0,0,0,125.85,44.73ZM28,75.57A34.76,34.76,0,0,1,38.93,50.85a32.55,32.55,0,0,1,22.65-9.49l1.1,0c11.94.43,17,2.37,21.88,4.24.69.27,1.38.54,2.08.79,1.61,2.28,1.36,6.24.92,8.76H87.5v.29c-.11.57-.23,1.06-.33,1.41l-.11.43C85.05,68.37,80.52,74,76.52,79,72.35,84.18,68,89.55,71.23,98.5a21.26,21.26,0,0,0,.91,2.11l-.38,0c-3.61-.41-8.84-7-11.59-11.82,0-.23,0-.46,0-.69,0-8.38-3.51-18.17-13.4-18.17S33.37,79.7,33.37,88.08a20.57,20.57,0,0,0,.82,5.65A30,30,0,0,1,28,75.57Zm18.78,24.51c-2.34-2.7-5.41-7.17-5.41-12,0-2.39.39-10.17,5.41-10.17s5.4,7.78,5.4,10.17C52.18,92.91,49.11,97.38,46.78,100.08Zm16,7.46A37.47,37.47,0,0,1,52.2,106a35.87,35.87,0,0,0,5.08-7.15c2.46,3.2,5.72,6.61,9.44,8.43C65.36,107.44,64,107.53,62.83,107.54Zm44.82-2.71c-.07-.13-.14-.28-.22-.45-2.25-5.06-5.15-8-8.64-8.91a8.33,8.33,0,0,0-3.2-.13,7,7,0,0,1-1.09-3.93,7.15,7.15,0,0,1,6.86-6.86c1.77,0,3.51,1.74,4.66,4,.37.87.7,1.72,1,2.54a13.69,13.69,0,0,1,.28,1.36,4.72,4.72,0,0,0,.6,1.75C109.09,99.46,108.4,103.13,107.65,104.83Zm2.53-27.95a13.56,13.56,0,0,1,1,5c-2.51-3.21-6-5.38-10.07-5.28a15.07,15.07,0,0,0-10.73,25.2c-5,.57-9.72-.56-11.64-6-1.61-4.5-.23-6.55,4-11.8,3.56-4.43,8.26-10.28,11-20.16C98.73,65.85,107.26,69.83,110.18,76.88ZM95.83,53.59a24.36,24.36,0,0,0-.08-4.73,76.33,76.33,0,0,0,14.53.62A95.57,95.57,0,0,1,95.83,53.59Z"/></svg>