<svg id="Symbols" xmlns="http://www.w3.org/2000/svg" viewBox="0 0 150 150"><title>Ehecatl2 aztec symbol - bold</title><path d="M29.61,110.83q.45,0,.9,0c6.11-.43,12.27-5.17,14.69-8.4.7-.93,2.22-3,3.66-4.64.52,2.23,1.32,4.2,3.26,5.44a7.25,7.25,0,0,0,5.85.68c1.94-.49,5.56-1.39,7.22-5.2,2-4.63.17-11.54-6.19-23.11l-1.07.6A11.48,11.48,0,0,0,58,75a10,10,0,0,0-2.87-7h3.95A6.63,6.63,0,0,0,59,69a7,7,0,0,0,14,0,6.63,6.63,0,0,0-.08-1h6.92A18.56,18.56,0,0,1,74,73.29a25,25,0,0,0-4.81,3.65l-.13.12h0a11.25,11.25,0,0,0-3.42,6.44,9.58,9.58,0,0,0,3,7.9c3.86,3.86,11,3.81,13.06,3.7C83,95,84.51,95,86.29,95H120l.33,0a4.15,4.15,0,0,1,2.85.61A3.08,3.08,0,0,1,124,98h4a6.82,6.82,0,0,0-2.24-5.47,7.93,7.93,0,0,0-5.9-1.53H86.29c-1.85,0-3.39,0-4.85.11-3.29.17-7.88-.38-10-2.52A5.72,5.72,0,0,1,69.59,84a7.45,7.45,0,0,1,2.27-4.09c1-.56,4.07-1,8.64-1.45V88s8-3,8-10v-.1l3-.16V87s7.65-2.89,8-9.58l3-.09V87s7.88-3,8-9.86l3,0V87s8-3,8-10h8.06l-.62-2.48A15.11,15.11,0,0,0,123.59,66H124V35.48L89.69,52.94l.6,1.18A7.83,7.83,0,0,0,89,54a7,7,0,0,0-7,7l0,.25A8.69,8.69,0,0,1,81.71,64h-24C69.92,55.5,77,61.65,77.27,61.92L80,59l2.77-2.88a18.16,18.16,0,0,0-8.63-4.2c-4.71-1-12.23-.75-21.41,5.79-.92.61-1.6,1.13-2.14,1.55a8,8,0,0,1-1,.69A2.29,2.29,0,0,1,49,60a1,1,0,0,1,0-2V50a9,9,0,0,0-5.52,16.09A10,10,0,0,0,38.64,78.5a103.79,103.79,0,0,1-12.43,7.92c-4.67,2.34-7.74,6-8.41,10.15-.43,2.7,0,6.85,4.37,11.26A10.29,10.29,0,0,0,29.61,110.83ZM86,60.92A3,3,0,0,1,92,61h4a7.14,7.14,0,0,0-.33-2.13L116,48.52V62.77a31.24,31.24,0,0,0-10.41.12A101,101,0,0,1,87.71,64H85.8A11.94,11.94,0,0,0,86,60.92ZM84.47,68h3.24a104.53,104.53,0,0,0,18.53-1.16c5.42-.89,14.48-1.12,17.94,6.17-4.64,0-14.36.09-24.21.4s-16.39.72-20.88,1.17A19.29,19.29,0,0,0,84.47,68Zm-21.3.06h5.66A2.79,2.79,0,0,1,69,69a3,3,0,0,1-6,0A2.79,2.79,0,0,1,63.17,68.06ZM54,66.65V67l-.27-.2ZM48,69a6,6,0,0,1,4.1,10.37l-.1.06v0A6,6,0,1,1,48,69ZM25.7,97.85c.24-1.5,1.81-3.13,4.09-4.27a118.16,118.16,0,0,0,14.5-9.3,9.93,9.93,0,0,0,9.62-1.23c5.14,10.21,4,12.43,4,12.44a3.86,3.86,0,0,1-1.21.47c-.14-.62-.28-1.38-.4-2s-.21-1.12-.33-1.72a5.5,5.5,0,0,0-4.12-4.69c-4.32-1-8.11,3.56-13,10.07-1.45,1.93-5.72,5-8.85,5.22a2.44,2.44,0,0,1-2.12-.65C26.72,101.06,25.45,99.41,25.7,97.85Z"/><rect x="20" y="31" width="68" height="8"/><rect x="52.08" y="42" width="35.92" height="8"/><rect x="20" y="42" width="19.71" height="8"/><path d="M85.5,107.75c1.93,0,3.5-2.24,3.5-5,0-.74-.08-2.53-.23-4.75H82.41a10.89,10.89,0,0,0,.59,4.75C84,105.75,84,107.75,85.5,107.75Z"/><path d="M77.5,107.75c1.93,0,3.5-2.24,3.5-5,0-.74-.08-2.53-.23-4.75H74.41a10.89,10.89,0,0,0,.59,4.75C76,105.75,76,107.75,77.5,107.75Z"/><path d="M69.5,107.75c1.93,0,3.5-2.24,3.5-5,0-.74-.08-2.53-.23-4.75H66.41a10.89,10.89,0,0,0,.59,4.75C68,105.75,68,107.75,69.5,107.75Z"/><path d="M90.41,98a10.89,10.89,0,0,0,.59,4.75c1,3,1,5,2.5,5,1.93,0,3.5-2.24,3.5-5,0-.74-.08-2.53-.23-4.75Z"/><path d="M101.5,107.75c1.93,0,3.5-2.24,3.5-5,0-.74-.08-2.53-.23-4.75H98.41a10.89,10.89,0,0,0,.59,4.75C100,105.75,100,107.75,101.5,107.75Z"/><path d="M109.5,107.75c1.93,0,3.5-2.24,3.5-5,0-.74-.08-2.53-.23-4.75h-6.36a10.89,10.89,0,0,0,.59,4.75C108,105.75,108,107.75,109.5,107.75Z"/><path d="M117.5,107.75c1.93,0,3.5-2.24,3.5-5,0-.74-.08-2.53-.23-4.75h-6.36a10.89,10.89,0,0,0,.59,4.75C116,105.75,116,107.75,117.5,107.75Z"/></svg>