<svg id="Symbols" xmlns="http://www.w3.org/2000/svg" viewBox="0 0 150 150"><title>Itzcuintli aztec symbol - bold</title><path d="M24.43,84.15v15A18.58,18.58,0,0,0,43,117.72H67.17a41.57,41.57,0,0,0,5.21.31l1.69,0H110a11.18,11.18,0,0,0,7.83-3.58,11.57,11.57,0,0,0,2-3.14,5,5,0,0,0,9.59-2v-5.73A14.36,14.36,0,0,0,119.3,90H124V71H105.27a40.8,40.8,0,0,0-14-12.87C78.93,51.23,65,51.48,52.86,54.2L39.41,40.75,34.67,53.6,22.19,41.78l-2,5.95c-.29.85-6.82,20.93,2.5,34.25A24.46,24.46,0,0,0,24.43,84.15Zm8,15V90a34,34,0,0,0,10.66,2.77c.39,4.35,1.88,11.37,7.13,17H43A10.57,10.57,0,0,1,32.43,99.16Zm61.7-7c1.13,2.27,2.25,4.55,3.38,6.82h-5a4.2,4.2,0,0,1-2.05-.53Zm6.26,5.27-.77,1.33L95.27,90h9.43Zm5.17-5.27L108.94,99h-7.33Zm6.06,6.6L107.27,90h9.43ZM26.32,56.71l7.28,6.9A6.46,6.46,0,0,0,36,65.83L41.4,71H35a8,8,0,1,0,14.26-5A8.12,8.12,0,0,0,47,64.09C86,51.27,98.87,75.69,99.41,76.77l1.1,2.23H116v3H92.38a12.22,12.22,0,0,0-9.73,4.78,12.08,12.08,0,0,0-2.15,10.5,16.62,16.62,0,0,0,.71,2.13A12.08,12.08,0,0,0,92.54,107h20.34a4.5,4.5,0,0,1-.9,2,3.28,3.28,0,0,1-2,1H74.38v-.28H67.83c-4.93-.65-8.83-2.41-11.62-5.3-5.78-6-5.23-15-5.22-15.11l.32-4.19L47.11,85c-8.46-.23-14.46-2.79-17.83-7.59C25,71.3,25.37,62.6,26.32,56.71Z"/><path d="M75,82.24a29.27,29.27,0,0,0,17.12-5.49l2.27-1.63L92.12,73.5a29.39,29.39,0,0,0-34.24,0l-2.27,1.62,2.27,1.63A29.27,29.27,0,0,0,75,82.24Zm4.16-4.35a5,5,0,0,0,0-5.54,25.39,25.39,0,0,1,8,2.77A25.15,25.15,0,0,1,79.16,77.89Zm-8.32-5.54a5,5,0,0,0,0,5.54,25.15,25.15,0,0,1-8.05-2.77A25.39,25.39,0,0,1,70.84,72.35Z"/></svg>