<svg id="Symbols" xmlns="http://www.w3.org/2000/svg" viewBox="0 0 150 150"><title>Malinalli aztec symbol - bold</title><path d="M81.53,75.41a7.56,7.56,0,1,0,7.56-7.56A7.57,7.57,0,0,0,81.53,75.41Zm11.12,0a3.56,3.56,0,1,1-3.56-3.56A3.56,3.56,0,0,1,92.65,75.41Z"/><rect x="70.46" y="97.03" width="8.92" height="10.03" rx="2"/><rect x="80.17" y="97.03" width="8.92" height="10.03" rx="2"/><rect x="89.66" y="97.03" width="8.92" height="10.03" rx="2"/><path d="M50.17,106.62h.33v1.32a8.07,8.07,0,0,0,7,8.54l56,0v-17h-5.42V99a2,2,0,0,0-2-2h-4.92a2,2,0,0,0-2,2v6a2,2,0,0,0,2,2h4.92a2,2,0,0,0,2-2V103.5h1.42v9H58a4.1,4.1,0,0,1-3.55-4.35V94.46l-.69-.59a14.66,14.66,0,0,1-5-8.87H66.91a3.12,3.12,0,0,1,2,1c.83.92,1.2,2.58,1.08,4.8L69.77,95h40.06c.23,0,.57,0,1,0,2.13,0,6.37-.45,9.15-3.65A4.48,4.48,0,0,0,117.11,84a1.43,1.43,0,0,1-1-.68A1.53,1.53,0,0,1,116,82a1.59,1.59,0,0,1,1.53-1h4.84l-.91-4.75a51.7,51.7,0,0,0-5.64-15.54L110,67h0c.31.63.61,1.27.88,1.92l0,.09c.3.73.58,1.47.85,2.22.06.19.13.39.2.58.26.77.51,1.56.73,2.35v0a9.33,9.33,0,0,0-4.34,5.13A9.58,9.58,0,0,0,109,87H85.18L77,80.89l-.09-.06a11.38,11.38,0,0,1,11.7-19.47,11.09,11.09,0,0,1,2,1.41L102,73l2.71-3,19.48-21.38-2.1-1.91L105.21,65.11l-1.49-1.33,16.85-18.49-2.1-1.91L101.6,61.88l-1.49-1.33L117,42l-2.1-1.92L98,58.65,96.5,57.32l16.91-18.55-2.1-1.92-17,18.67a17.22,17.22,0,0,0-1.71-1.08L94,52.89A35.77,35.77,0,0,0,74.27,47H50V44H74.27a38.63,38.63,0,0,1,21.78,6.63l5.43-6A46.52,46.52,0,0,0,74.27,36H42v9.65C24.31,48.32,19.2,58.38,19,58.83l-.88,1.82L19,62.43c3.09,5.93,8.54,9,12,10.41v5.48c-3.35,1.58-8.87,4.92-12,10.86l-.84,1.61.66,1.68C19.08,93.07,24.61,106.62,50.17,106.62ZM68.57,59H50V57H70.55A18.7,18.7,0,0,0,68.57,59Zm-3.43,6H50V63H66A19.26,19.26,0,0,0,65.14,65ZM50,69H64.18A19.08,19.08,0,0,0,64,71.5H50ZM39,75.5H64.45a19.73,19.73,0,0,0,.7,2.5H39ZM74.27,51a32.08,32.08,0,0,1,8.49,1.15,19.83,19.83,0,0,0-5.57,1c-1-.09-2-.15-2.92-.15H50V51ZM27.42,60.7c1.88-2,6.16-5.43,14.58-6.94V66H35.55A17.62,17.62,0,0,1,27.42,60.7ZM35.7,85h9.07A18.49,18.49,0,0,0,50.5,96.27v2.34c-15.1.09-21.13-5-23.22-7.54A20.1,20.1,0,0,1,35.7,85Z"/></svg>