<svg id="Symbols" xmlns="http://www.w3.org/2000/svg" viewBox="0 0 150 150"><title>Miquiztli aztec symbol - bold</title><path d="M54,60.5A15.5,15.5,0,1,0,69.5,45,15.51,15.51,0,0,0,54,60.5Zm23,0A7.5,7.5,0,1,1,69.5,53,7.5,7.5,0,0,1,77,60.5Z"/><path d="M127.73,78a9.91,9.91,0,0,0,0-8.59c-2.1-4.88-5.75-5.71-7.93-6.21s-3.39-.77-5-5.48c-2.62-7.86-6.79-9.77-9.83-10a9.49,9.49,0,0,0-5.69,1.51,42,42,0,1,0-43.39,64,4.38,4.38,0,0,1,3.52,4.08c.24,3.33,1.38,5.69,3.38,7,.89.59,2.94,2,28.43,2,6.38,0,14.22-.09,23.87-.29l1.61,0,1.14-1.13c.77-.77,7.47-7.71,6.09-14.61l-.64-3.22H120v-6h-8v6h-1v-6h-8v6h-1v-6H94v6H93v-6H86V95h7V85H85v.79a11,11,0,0,0-7.42-6.23A14.33,14.33,0,0,0,65.1,82.31l-.33-.14v-.09L64.37,82,50.63,76.39a8.68,8.68,0,0,1-5-5.61c-1.24-4.2-.87-11.05-.61-13.34L41,57l-4-.44c0,.4-1.06,9.88.9,16.5A16.64,16.64,0,0,0,47.6,83.79L52.91,86a10.93,10.93,0,0,0-1.58,2.92,12,12,0,0,0,5.75,14.62,8.54,8.54,0,0,1,3.07,2.74,11.94,11.94,0,0,0-2.73-.88A34,34,0,1,1,97.88,69.16a16.41,16.41,0,0,0,7.19,12.57c2.87,1.89,7.78,3.8,14.9,2.15C120.54,83.74,125.57,82.37,127.73,78ZM58.85,91.62c.58-1.61,2-1.93,3.43-1.82l.68.28a6.46,6.46,0,0,0,6.75-1.2,6.36,6.36,0,0,1,6-1.54A3.19,3.19,0,0,1,78,90.49V115h37.22a19.39,19.39,0,0,1-2,3c-18,.35-37.31.3-44.26-.33,1.57-6.61,1.18-16.21-8-21.22A4,4,0,0,1,58.85,91.62Zm61.72-17.18A4.73,4.73,0,0,1,118,76.12c-3.42.77-6.31.41-8.58-1.08a8.48,8.48,0,0,1-3.59-6.54A41.5,41.5,0,0,0,103,56.41a2.45,2.45,0,0,1,1.43-.68c.37.05,1.59,1,2.79,4.54C110,68.55,114,70.11,118,71c1.76.4,1.86.43,2.35,1.57A2.55,2.55,0,0,1,120.57,74.44Z"/><rect x="94" y="85" width="8" height="10"/><rect x="103" y="85" width="8" height="10"/><rect x="112" y="85" width="8" height="10"/></svg>