<svg id="Symbols" xmlns="http://www.w3.org/2000/svg" viewBox="0 0 150 150"><title>Ocelotl aztec symbol - bold</title><circle cx="39.01" cy="78.87" r="3.75"/><circle cx="42.18" cy="91.03" r="3.75"/><circle cx="49.56" cy="101.19" r="3.75"/><circle cx="61.18" cy="106.56" r="3.75"/><circle cx="54.56" cy="78.87" r="3.75"/><circle cx="74.48" cy="107.56" r="3.75"/><circle cx="47.56" cy="63.4" r="3.75"/><circle cx="61.18" cy="58.7" r="3.75"/><circle cx="88.96" cy="107.56" r="3.75"/><circle cx="103.44" cy="107.56" r="3.75"/><path d="M75.61,76.76a29.15,29.15,0,0,0,17.11-5.5L95,69.64,92.73,68a29.44,29.44,0,0,0-34.24,0l-2.27,1.63,2.27,1.62A29.21,29.21,0,0,0,75.61,76.76Zm4.16-4.35a5,5,0,0,0,0-5.54,25,25,0,0,1,8,2.77A25.25,25.25,0,0,1,79.77,72.41Zm-8.32-5.54a5,5,0,0,0,0,5.54,25.39,25.39,0,0,1-8.05-2.77A25.15,25.15,0,0,1,71.45,66.87Z"/><path d="M36.7,110.67C43.57,117.33,53.18,121,63.76,121h40.35c5.73,0,14.06-3.48,14.69-13.06a4,4,0,0,0,7.64-1.63v-3.07a15.13,15.13,0,0,0-14-15.07,8.78,8.78,0,0,0,4.78-7.44c.22-4.7.58-12.55-4.31-17.82-3-3.24-7.51-5-13.37-5.14-7.18-.2-10-2.91-13.56-6.33-4.3-4.14-9.65-9.28-22.54-9.28h-.07c-7.71,0-12.61,1.8-17.39,5a55,55,0,0,0-13.64-9.22l-3.4-1.56-1.78,3.29c-10.84,20-4.61,32.74-1.69,37-.12,1.25-.18,2.52-.18,3.78C25.24,92.94,29.2,103.38,36.7,110.67ZM97.25,95.05h-1l-3.26-5.92h7.58Zm-9.09-5.92h1.57L93,95.06l-8.13,0Zm30.27,19.17a6.1,6.1,0,0,0,.23-.76l0,.12A4.3,4.3,0,0,1,118.43,108.3ZM32.38,47c3,1.73,7.2,4.55,9.86,7.94l2.45,3.11,3.14-2.42c4.9-3.78,8.3-5.47,15.5-5.48h.07c9.66,0,13.05,3.26,17,7S89,65.48,99.27,65.77a16.41,16.41,0,0,1,4.42.66,5.3,5.3,0,0,0-.09.91,5,5,0,0,0,5,5c.09,0,.16,0,.25,0a33,33,0,0,1,.33,8,.81.81,0,0,1-.8.78h0l-30,0h0a7.27,7.27,0,0,0-5.17,2.14,7,7,0,0,0-1.26,1.68H56.25v3H71c0,.17,0,.33,0,.5v1.78H56.25v3H71V95.5H56.25v3H71.53a7.31,7.31,0,0,0,6.8,4.61l31.85-.11a3.25,3.25,0,0,1,.67.07l0,1.36c0,1.13,0,1.64,0,1.87s0,.44,0,.68c-.1,5.56-5.26,6-6.86,6H63.76c-8.49,0-16.12-2.87-21.48-8.07-5.92-5.75-9-14.21-9-24.47a31.62,31.62,0,0,1,.3-4.36l.3-1.85-1.31-1.4C32.19,72.47,24.8,63.83,32.38,47Z"/></svg>