<svg id="Symbols" xmlns="http://www.w3.org/2000/svg" viewBox="0 0 150 150"><title>Ollin aztec symbol - bold</title><path d="M114,58.62l4.09-3.51a9.35,9.35,0,0,0,.4-13.85L107.18,30.4a9.35,9.35,0,0,0-13.82.94L86.9,39.51,82,30.82A7.46,7.46,0,0,0,75.49,27h0a7.49,7.49,0,0,0-6.55,3.78l-5.07,8.79-6.55-8.27A9.35,9.35,0,0,0,43.5,30.4L32.2,41.26a9.35,9.35,0,0,0,.4,13.85l4.06,3.49C26,59,19.74,65.22,19.74,75.34s6.33,16.33,17,16.75L32.6,95.63a9.35,9.35,0,0,0-.4,13.85l11.3,10.87A9.38,9.38,0,0,0,50,123l.63,0a9.38,9.38,0,0,0,6.72-3.56l2.16-2.76A23.59,23.59,0,0,0,90.65,116l2.71,3.43a9.38,9.38,0,0,0,6.7,3.53l.63,0a9.38,9.38,0,0,0,6.49-2.61l11.3-10.87a9.35,9.35,0,0,0-.4-13.85l-4.15-3.56c10.26-.64,16.33-6.79,16.33-16.73S124.22,59.29,114,58.62ZM92.87,75.69A17.38,17.38,0,0,1,87.49,88h0A17.53,17.53,0,0,1,57.81,75c0-.35,0-.7.07-1H68.12A7,7,0,0,0,68,75.34a7.36,7.36,0,0,0,14.72,0A7,7,0,0,0,82.56,74H92.82A16.58,16.58,0,0,1,92.87,75.69Zm-13.43,26a7.42,7.42,0,0,1-4.47,1.5,7.5,7.5,0,0,1-4-1.21l1-1.29a27.87,27.87,0,0,0,2.9.22h.51a25.92,25.92,0,0,0,3.31-.22ZM75.33,57.81h.36A17.48,17.48,0,0,1,88,63.19,17.94,17.94,0,0,1,90.16,66H60.55a17,17,0,0,1,2.64-3.25A17.39,17.39,0,0,1,75.33,57.81ZM99.63,36.3a1.37,1.37,0,0,1,1-.51,1.32,1.32,0,0,1,1,.38L112.94,47a1.34,1.34,0,0,1,.41,1,1.38,1.38,0,0,1-.47,1L97.33,62.36a25.69,25.69,0,0,0-3.58-4.71,25.35,25.35,0,0,0-6.94-5.13Zm-24.15-.81,6,10.81-3,3.72a24.7,24.7,0,0,0-2.74-.21A25.82,25.82,0,0,0,72.1,50l-2.89-3.66ZM37.75,47l11.3-10.86a1.32,1.32,0,0,1,1-.38,1.35,1.35,0,0,1,1,.51L63.88,52.52a25.58,25.58,0,0,0-6.24,4.42,25.86,25.86,0,0,0-4.29,5.42L37.8,49a1.38,1.38,0,0,1-.47-1A1.36,1.36,0,0,1,37.75,47Zm-10,28.31c0-6,3.23-8.79,10.16-8.79,4.94,0,9.59,1.59,12.34,4.12a25.6,25.6,0,0,0,0,9.35c-2.74,2.54-7.37,4.12-12.33,4.12C31,84.14,27.74,81.34,27.74,75.34Zm23.31,39.1a1.34,1.34,0,0,1-2,.14l-11.3-10.87a1.35,1.35,0,0,1-.42-1,1.38,1.38,0,0,1,.47-1L53.37,88.37a25.92,25.92,0,0,0,10.4,9.75Zm13.37-4.14,1.58-2a15.42,15.42,0,0,0,18.35-.3l1.33,1.7a15.59,15.59,0,0,1-21.26.63Zm48.52-6.59-11.3,10.87a1.35,1.35,0,0,1-2-.14l-6.42-8.11-6.36-8.18a25.73,25.73,0,0,0,10.46-9.78l15.57,13.34a1.38,1.38,0,0,1,.47,1A1.34,1.34,0,0,1,112.94,103.71Zm-.84-19.57A19.58,19.58,0,0,1,101,81l-.63-.53a26.13,26.13,0,0,0,.51-4.61,25.65,25.65,0,0,0-.5-5.55l1.06-.9a20,20,0,0,1,10.67-2.84c6.93,0,10.16,2.8,10.16,8.79S119,84.14,112.1,84.14Z"/><path d="M47.57,50.16a3.9,3.9,0,1,0-4.12-3.66A3.92,3.92,0,0,0,47.57,50.16Z"/><path d="M49.27,52.4a3.9,3.9,0,1,0,3.66-4.12A3.89,3.89,0,0,0,49.27,52.4Z"/><path d="M103.11,50.16A3.9,3.9,0,1,0,99.45,46,3.89,3.89,0,0,0,103.11,50.16Z"/><path d="M97.29,56.06a3.9,3.9,0,1,0-3.66-4.12A3.89,3.89,0,0,0,97.29,56.06Z"/><path d="M47.57,100.59a3.9,3.9,0,1,0,3.67,4.12A3.89,3.89,0,0,0,47.57,100.59Z"/><path d="M53.39,94.68a3.9,3.9,0,1,0,3.67,4.13A3.89,3.89,0,0,0,53.39,94.68Z"/><path d="M103.11,100.59a3.9,3.9,0,1,0,4.12,3.66A3.89,3.89,0,0,0,103.11,100.59Z"/><path d="M101.41,98.34a3.9,3.9,0,1,0-3.66,4.13A3.89,3.89,0,0,0,101.41,98.34Z"/></svg>