<svg id="Symbols" xmlns="http://www.w3.org/2000/svg" viewBox="0 0 150 150"><title>Tochtli aztec symbol - bold</title><path d="M128.66,57.45c-.61-3.28-2.42-4.08-5.62-3.76a8.13,8.13,0,0,0-5.47-2.8c-5.34-.47-16-2.53-27.14-11.07-8.51-6.51-19.17-7-29.23-1.29a35.13,35.13,0,0,0-4.59,3.1C51.83,38.75,38,32,23.21,39.42l-2.93,1.47.86,3.16c.13.47,3,10.41,14.7,18.76A73.08,73.08,0,0,0,22.31,72l-3.88,3.52,4.42,2.81a115.4,115.4,0,0,0,17.8,8.95c-.61,4.13-.67,12.44,7,17.93,4.45,3.18,11.75,3.94,17.72,3.94a78.28,78.28,0,0,0,9-.52A57.09,57.09,0,0,0,87.48,110c.85,0,1.71,0,2.58,0h24.5l.54-.15a10.49,10.49,0,0,0,6.34-5.49c.9-2,1.48-5.46-.86-10.15L119.47,92h-4.81l.65-4.89a20.4,20.4,0,0,0,8.27-5.38c4-4.51,5.27-10.59,3.68-18.09A7.26,7.26,0,0,0,128.66,57.45ZM30.27,45.16c8.65-2.74,16.55.28,20.58,2.4C48.25,51.08,46.8,54.79,47,58c-.84.27-1.66.56-2.47.86l-.43-.27L44,58.53C36.07,54,32.11,48.55,30.27,45.16ZM52.33,98.75a9.83,9.83,0,0,1-3.92-8.81,50.4,50.4,0,0,0,7.68,1.54,17.55,17.55,0,0,0,4.3,9.49C57.05,100.66,54.06,100,52.33,98.75Zm65.3-22.36a9.94,9.94,0,0,1-1.87,1.6,3.11,3.11,0,0,0-2.22-1.5A3.24,3.24,0,0,0,110,79.35l0,1.05c-.89.22-1.79.39-2.7.53l.09-.69a3.16,3.16,0,1,0-6.25-.83l0,2A41.47,41.47,0,0,1,95.57,81l-1.64-.23-1.33,1c-4.43,3.32-5.25,6.77-5.15,9.08.22,5.11,4.9,8.18,5.43,8.51l1,.61h7.71v.15a3,3,0,0,0,1.36-.15h7.47v.09a3,3,0,0,0,1.21-.09h2.59a2.18,2.18,0,0,1-.07,1.11,2,2,0,0,1-.91.89H89.88c-14,.44-20.32-3-23.12-5.89a10,10,0,0,1-2.57-4.72,17.86,17.86,0,0,0,9.52-4.45l-5.42-5.88c-7.34,6.77-25.76-.93-36.17-6.55A64.6,64.6,0,0,1,52,64.86c4.72-1.25,8.39-1,10.89.75C66.53,68.14,67,73.27,67,73.32l8-.61c0-.36-.72-8.83-7.39-13.59-3.39-2.41-7.56-3.39-12.45-2.94.83-2.85,4.41-7.54,10-10.69,4.2-2.37,12.44-5.43,20.44.69A62,62,0,0,0,113.88,58.5a4.61,4.61,0,0,0,0,1.69,7.15,7.15,0,0,0,5.59,5.49C120.44,70.4,119.83,73.92,117.63,76.39ZM110.24,92h-4.41l.38-2.9c1.29-.13,2.62-.31,4-.57Zm-8.84,0h-5a3,3,0,0,1-.94-1.47,2.44,2.44,0,0,1,.85-1.37c1.22.11,3,.21,5.06.2Z"/><circle cx="86" cy="61" r="4"/><path d="M86,51A10,10,0,1,0,96,61,10,10,0,0,0,86,51Zm0,16a6,6,0,1,1,6-6A6,6,0,0,1,86,67Z"/></svg>