<svg id="Symbols" xmlns="http://www.w3.org/2000/svg" viewBox="0 0 150 150"><title>Xochitl aztec symbol - bold</title><circle cx="104.94" cy="33.4" r="4.5"/><path d="M104.94,44.4a11,11,0,1,0-11-11A11,11,0,0,0,104.94,44.4Zm0-18a7,7,0,1,1-7,7A7,7,0,0,1,104.94,26.4Z"/><circle cx="44.4" cy="33.33" r="4.5"/><path d="M44.4,22.33a11,11,0,1,0,11,11A11,11,0,0,0,44.4,22.33Zm0,18a7,7,0,1,1,7-7A7,7,0,0,1,44.4,40.33Z"/><circle cx="74.89" cy="93" r="9"/><path d="M118.67,46.18a11.52,11.52,0,0,0-13.42,5.35c-.21-.29-.43-.57-.67-.85a10.51,10.51,0,0,0-7.85-3.53H93.25l.3-2.95A10,10,0,0,0,83.63,33H66.16a10,10,0,0,0-9.93,11.12l.31,3H53.27a10.51,10.51,0,0,0-7.85,3.53c-.24.28-.46.56-.67.85a11.5,11.5,0,0,0-21,9L31.1,84.46a30,30,0,0,0,21.71,20.25,25,25,0,0,0,44.14.05,30,30,0,0,0,22-20.33l7.36-23.88a11.51,11.51,0,0,0-7.6-14.37Zm-21.94,10a1.45,1.45,0,0,1,1.11.5,1.47,1.47,0,0,1,.37,1.17L96,79.55h0a25.21,25.21,0,0,0-5.4-6l1.77-17.39ZM64.67,41.67A2,2,0,0,1,66.16,41H83.63a2,2,0,0,1,1.49.67,2.06,2.06,0,0,1,.48,1.64L83,69.34a24.88,24.88,0,0,0-16.11,0l-2.66-26.1A2,2,0,0,1,64.67,41.67Zm-12.51,15a1.45,1.45,0,0,1,1.11-.5h4.18l1.77,17.39a25.2,25.2,0,0,0-5.28,5.86l-.14-.22-2-21.24,0-.12A1.47,1.47,0,0,1,52.16,56.65Zm1.61,22.49a9.27,9.27,0,0,1-.44-.82ZM50,95.24A22.12,22.12,0,0,1,38.73,82.07L31.38,58.2a3.45,3.45,0,0,1,.25-2.67,3.49,3.49,0,0,1,2.07-1.71,3.35,3.35,0,0,1,1-.16,3.51,3.51,0,0,1,3.34,2.48L45.42,80a15.12,15.12,0,0,0,5.13,7.36,24.84,24.84,0,0,0-.48,2.76.28.28,0,0,0,0,.09c-.05.4-.08.8-.11,1.21a1.8,1.8,0,0,1,0,.22c0,.45,0,.92,0,1.38,0,.68,0,1.36.09,2A1.48,1.48,0,0,1,50,95.24ZM74.89,110A17,17,0,0,1,58,94.78a.43.43,0,0,1,0,0A16.42,16.42,0,0,1,57.89,93c0-.54,0-1.07.09-1.6,0-.34.08-.68.14-1,0-.17,0-.33.07-.49.09-.46.2-.91.32-1.36l0-.1c.13-.48.29-1,.47-1.45v0l.25-.63a17,17,0,0,1,31.26,0l.25.65,0,.06c.18.48.33,1,.47,1.43a.43.43,0,0,0,0,.11c.12.44.23.88.31,1.33,0,.16.05.32.07.49.06.33.11.67.14,1,0,.53.08,1,.08,1.59s0,1.16-.08,1.73a.09.09,0,0,0,0,0A17,17,0,0,1,74.89,110Zm43.73-51.8L111.28,82A22.15,22.15,0,0,1,99.79,95.35v-.18c.07-.71.1-1.44.1-2.17,0-.46,0-.91,0-1.36,0,0,0-.1,0-.15a23.94,23.94,0,0,0-.57-4A15.27,15.27,0,0,0,104.6,80l7.33-23.81a3.52,3.52,0,0,1,1.71-2.07,3.43,3.43,0,0,1,2.66-.25h0a3.5,3.5,0,0,1,2.06,1.71A3.45,3.45,0,0,1,118.62,58.2Z"/></svg>