<svg xmlns="http://www.w3.org/2000/svg" viewBox="0 0 150 150"><title>Anahata-bold</title><g id="Anahata"><path d="M125.41,73.62c-.19-.2-4.32-4.4-14.46-7.31-.14-.59-.3-1.18-.47-1.76,7.33-7.59,8.8-13.3,8.86-13.56l.45-1.85L118,48.6c-.26-.07-5.93-1.65-16.16.9-.42-.45-.85-.88-1.3-1.3,2.55-10.23,1-15.9.9-16.16l-.54-1.83L99,30.66c-.26.06-6,1.53-13.56,8.86-.58-.17-1.17-.33-1.76-.47-2.91-10.14-7.11-14.27-7.31-14.46L75,23.28l-1.38,1.31c-.2.19-4.4,4.32-7.31,14.46-.59.14-1.18.3-1.76.47C57,32.19,51.25,30.72,51,30.66l-1.85-.45L48.6,32c-.07.26-1.65,5.93.9,16.16-.45.42-.88.85-1.3,1.3C38,47,32.3,48.53,32,48.6l-1.83.54L30.66,51c.06.26,1.53,6,8.86,13.56-.17.58-.33,1.17-.47,1.76-10.14,2.91-14.27,7.11-14.46,7.31L23.28,75l1.31,1.38c.19.2,4.32,4.4,14.46,7.31.14.59.3,1.18.47,1.76C32.19,93,30.72,98.75,30.66,99l-.45,1.85,1.83.54a20.66,20.66,0,0,0,5.36.56,45.12,45.12,0,0,0,10.8-1.46c.42.44.86.87,1.3,1.29C47,112,48.53,117.7,48.6,118l.54,1.83,1.85-.45c.26-.06,6-1.53,13.56-8.87.58.18,1.17.34,1.76.48,2.91,10.14,7.11,14.27,7.31,14.46L75,126.72l1.38-1.31c.2-.19,4.4-4.31,7.3-14.44.6-.15,1.19-.31,1.78-.49,7.58,7.33,13.29,8.8,13.55,8.86l1.85.45.54-1.83c.07-.26,1.65-5.93-.9-16.16.45-.42.88-.85,1.3-1.3A45.12,45.12,0,0,0,112.6,102a20.66,20.66,0,0,0,5.36-.56l1.83-.54L119.34,99c-.06-.26-1.53-6-8.86-13.56.17-.58.33-1.17.47-1.76,10.14-2.91,14.27-7.11,14.46-7.31L126.72,75ZM84,102.58a28.85,28.85,0,0,1-6.89,1.34l7.12-12.28H98.74A28.9,28.9,0,0,1,84,102.58ZM51.25,91.64H65.81l7.12,12.28A29.13,29.13,0,0,1,51.25,91.64ZM66,47.42a28.85,28.85,0,0,1,6.89-1.34L65.81,58.36H51.26A28.9,28.9,0,0,1,66,47.42ZM98.73,58.36H84.19L77.07,46.08A29.11,29.11,0,0,1,98.73,58.36Zm2.38,29.21L93.83,75l7.28-12.57a28.61,28.61,0,0,1,0,25.14ZM75,99.51l-4.56-7.87h9.12ZM68.12,87.64,60.79,75l7.33-12.64H81.88L89.21,75,81.88,87.64ZM47.42,84a28.87,28.87,0,0,1,1.47-21.53L56.17,75,48.88,87.58A28.8,28.8,0,0,1,47.42,84Zm6-21.6h10l-5,8.65Zm5,16.63,5,8.65h-10ZM75,50.49l4.56,7.87H70.44ZM86.51,62.36h10l-5,8.65Zm5,16.63,5,8.65h-10Zm23.11-26.87a35.61,35.61,0,0,1-5.67,8.2,36.42,36.42,0,0,0-4.27-7.39A35.63,35.63,0,0,1,114.63,52.12ZM97.89,35.37a34.47,34.47,0,0,1-.82,10,37.42,37.42,0,0,0-7.41-4.27A35.31,35.31,0,0,1,97.89,35.37ZM75,29.24a35.77,35.77,0,0,1,4.27,9,36.4,36.4,0,0,0-8.54,0A35.49,35.49,0,0,1,75,29.24ZM52.12,35.37A35.61,35.61,0,0,1,60.32,41a36.69,36.69,0,0,0-7.39,4.27A35.63,35.63,0,0,1,52.12,35.37ZM35.37,52.11a34.49,34.49,0,0,1,10,.82,37.42,37.42,0,0,0-4.27,7.41A35.31,35.31,0,0,1,35.37,52.11ZM29.24,75a35.77,35.77,0,0,1,9-4.27,36.4,36.4,0,0,0,0,8.54A35.49,35.49,0,0,1,29.24,75Zm6.13,22.88A35.61,35.61,0,0,1,41,89.68a36.65,36.65,0,0,0,4.26,7.39A35.56,35.56,0,0,1,35.37,97.88Zm16.74,16.75a34.49,34.49,0,0,1,.82-10A37.47,37.47,0,0,0,60.34,109,35.51,35.51,0,0,1,52.11,114.63ZM75,120.76a35.84,35.84,0,0,1-4.27-9A36.1,36.1,0,0,0,75,112a37.62,37.62,0,0,0,4.23-.24A35.27,35.27,0,0,1,75,120.76Zm22.88-6.13a35.61,35.61,0,0,1-8.2-5.67,36.69,36.69,0,0,0,7.39-4.27A35.63,35.63,0,0,1,97.88,114.63Zm16.75-16.74a34.47,34.47,0,0,1-10-.82,37.42,37.42,0,0,0,4.27-7.41A35.31,35.31,0,0,1,114.63,97.89Zm-2.89-18.62a36.4,36.4,0,0,0,0-8.54,35.49,35.49,0,0,1,9,4.27A35.77,35.77,0,0,1,111.74,79.27Z"/></g></svg>