<svg xmlns="http://www.w3.org/2000/svg" viewBox="0 0 150 150"><title>Ajna Sanskrit-bold</title><g id="Ajna_Sanskrit" data-name="Ajna Sanskrit"><path d="M75,64.22A11.63,11.63,0,0,0,63.38,75.84h8a3.62,3.62,0,1,1,7.23,0,3.59,3.59,0,0,1-2,3.23l-7.15,3.59,7.16,3.57a3.56,3.56,0,0,1,2,3.22,3.62,3.62,0,0,1-7.23,0l-8,0a11.62,11.62,0,1,0,21-6.83A11.63,11.63,0,0,0,75,64.22Z"/><path d="M75,54.76a6,6,0,0,1-5-2.71l-6.68,4.41a14,14,0,0,0,23.38,0L80,52.05A6,6,0,0,1,75,54.76Z"/><circle cx="75" cy="50.26" r="3"/><path d="M129.23,72.65c-.55-.75-13.31-18.13-28.1-23.82a37,37,0,0,0-52.32,0C34,54.56,21.32,71.9,20.77,72.65L19.06,75l1.71,2.35c.55.75,13.29,18.11,28.07,23.81a37,37,0,0,0,37.59,9,36.83,36.83,0,0,0,14.71-9c14.78-5.68,27.54-23.06,28.09-23.81L130.94,75ZM29.08,75a89.91,89.91,0,0,1,10.6-11,36.71,36.71,0,0,0,0,22A91.47,91.47,0,0,1,29.08,75ZM84,102.58A29,29,0,1,1,66,47.42,28.64,28.64,0,0,1,75,46a29,29,0,0,1,9,56.58ZM110.29,86a36.77,36.77,0,0,0,0-22.05,91.7,91.7,0,0,1,10.61,11A91.31,91.31,0,0,1,110.29,86Z"/></g></svg>