<svg xmlns="http://www.w3.org/2000/svg" viewBox="0 0 150 150"><title>Vishuddha Sanskrit-bold</title><g id="Vishuddha_Sanskrit" data-name="Vishuddha Sanskrit"><path d="M120.53,76.54l2.22-1.62-2.22-1.61a61.14,61.14,0,0,0-8.45-5.25A61.69,61.69,0,0,0,118,60.2l1.49-2.3-2.65-.72a56.94,56.94,0,0,0-10.54-1.9l-.24-.35a55.13,55.13,0,0,0,2.73-10.37l.47-2.71-2.72.38a57.61,57.61,0,0,0-10.47,2.38l-.32-.21a56.38,56.38,0,0,0-1.54-10.65l-.62-2.67-2.36,1.41a56.93,56.93,0,0,0-8.73,6.29l-.36-.08a56.6,56.6,0,0,0-5.57-9.19L75,27.29l-1.62,2.22A61.83,61.83,0,0,0,68.11,38a60.89,60.89,0,0,0-7.93-6l-2.31-1.5-.71,2.66a55.47,55.47,0,0,0-1.91,10.6l-.3.2a56.53,56.53,0,0,0-10.42-2.76l-2.71-.47.38,2.72a56.18,56.18,0,0,0,2.4,10.53l-.18.27a55.38,55.38,0,0,0-10.7,1.54L31,56.36l1.42,2.35a55,55,0,0,0,6.32,8.75c0,.11-.05.23-.07.34a55.88,55.88,0,0,0-9.24,5.59L27.25,75l2.22,1.62a61.36,61.36,0,0,0,8.46,5.25,61.57,61.57,0,0,0-6,7.93l-1.49,2.3,2.65.72a56.35,56.35,0,0,0,10.61,1.9l.19.29a55.8,55.8,0,0,0-2.76,10.43l-.47,2.71,2.72-.38a56.45,56.45,0,0,0,10.52-2.4l.28.19a56,56,0,0,0,1.53,10.69l.62,2.67,2.36-1.41a56.64,56.64,0,0,0,8.75-6.3l.35.07a55.79,55.79,0,0,0,5.57,9.21L75,122.71l1.62-2.22A60.64,60.64,0,0,0,81.83,112a60,60,0,0,0,7.94,6l2.3,1.5.71-2.66a56.28,56.28,0,0,0,1.91-10.55,4,4,0,0,1,.34-.23,56.75,56.75,0,0,0,10.38,2.74l2.7.47-.38-2.72a55.9,55.9,0,0,0-2.37-10.46c.07-.11.14-.22.22-.33a56.7,56.7,0,0,0,10.63-1.55l2.68-.62-1.41-2.35a56.57,56.57,0,0,0-6.27-8.71c0-.15.07-.3.1-.45A55.83,55.83,0,0,0,120.53,76.54Zm-4.67-1.62c-1.39.93-2.74,1.77-3.93,2.44a36,36,0,0,0,0-4.87C113.11,73.16,114.47,74,115.86,74.92ZM84,102.57A29,29,0,0,1,66,47.43,28.73,28.73,0,0,1,75,46a29,29,0,0,1,9,56.56Zm29.12-42.2c-1,1.35-1.91,2.6-2.77,3.64,0-.14-.08-.29-.13-.44a37.4,37.4,0,0,0-1.59-4C109.93,59.72,111.47,60,113.08,60.37Zm-8.75-13.73c-.35,1.6-.73,3.12-1.11,4.41a37.5,37.5,0,0,0-3.35-3.44C101.18,47.27,102.71,46.94,104.33,46.64ZM90.92,37.42c.31,1.63.55,3.19.7,4.54a37.58,37.58,0,0,0-4.45-1.89C88.24,39.24,89.53,38.33,90.92,37.42ZM75,34.18c.92,1.38,1.75,2.72,2.41,3.89a36.92,36.92,0,0,0-4.82,0C73.23,36.9,74.05,35.56,75,34.18ZM60.34,36.89c1.37,1,2.64,1.93,3.68,2.79l-.45.14a38.17,38.17,0,0,0-4.09,1.61C59.68,40.08,60,38.52,60.34,36.89ZM46.61,45.64c1.62.35,3.16.74,4.46,1.13a37,37,0,0,0-3.48,3.38C47.25,48.84,46.91,47.28,46.61,45.64ZM37.39,59.05c1.65-.31,3.23-.55,4.59-.71a36.79,36.79,0,0,0-1.91,4.5C39.24,61.76,38.31,60.45,37.39,59.05ZM34.15,75c1.39-.92,2.74-1.76,3.93-2.43a35.83,35.83,0,0,0,0,4.86C36.89,76.76,35.54,75.93,34.15,75Zm2.71,14.63c1-1.37,1.94-2.65,2.81-3.7l.15.5a34.94,34.94,0,0,0,1.6,4.06C40.07,90.29,38.5,90,36.86,89.63Zm8.75,13.73c.35-1.63.74-3.17,1.13-4.47a37,37,0,0,0,3.37,3.49C48.8,102.72,47.24,103.06,45.61,103.36ZM59,112.58c-.31-1.64-.55-3.21-.7-4.57a36.32,36.32,0,0,0,4.47,1.9C61.71,110.74,60.41,111.66,59,112.58ZM75,115.82c-.92-1.38-1.74-2.72-2.41-3.9q1.2.09,2.4.09c.81,0,1.62,0,2.42-.09C76.72,113.1,75.89,114.44,75,115.82Zm14.63-2.71c-1.36-1-2.62-1.92-3.67-2.78l.5-.15a37.84,37.84,0,0,0,4-1.58C90.26,109.94,90,111.5,89.6,113.11Zm13.72-8.75c-1.6-.35-3.12-.73-4.41-1.11a38.86,38.86,0,0,0,3.45-3.34C102.7,101.21,103,102.74,103.32,104.36ZM112.54,91c-1.62.31-3.17.54-4.51.7a38,38,0,0,0,1.88-4.43C110.73,88.29,111.64,89.57,112.54,91Z"/><path d="M79.73,55.28a2.43,2.43,0,1,0-2.43-2.43A2.42,2.42,0,0,0,79.73,55.28Z"/><path d="M74.73,76a11.51,11.51,0,0,0-1.18.06V74.73A3.31,3.31,0,0,1,75.89,74h2.85a3.59,3.59,0,0,0,1,.14,4,4,0,0,0,4-4V65.28H86.2v-8H63.74v8h12V66C70,66,65.55,69.79,65.55,74.56v5.59a12.3,12.3,0,0,0,5.31,19.9l2.5-7.59A4.33,4.33,0,1,1,78.83,87l7.59-2.51A12.28,12.28,0,0,0,74.73,76Z"/></g></svg>