<svg xmlns="http://www.w3.org/2000/svg" viewBox="0 0 150 150"><title>Manipura Sanskrit-bold</title><g id="Manipura_Sanskrit" data-name="Manipura Sanskrit"><path d="M57.5,69.76h16a9,9,0,0,1-9,8,9.46,9.46,0,0,1-1.91-.2,4,4,0,0,0-4.31,5.9l8.11,14.15,6.94-4-4.79-8.36A17,17,0,0,0,81.47,69.76h11v-8h-35Z"/><circle cx="77.5" cy="56.76" r="3"/><path d="M127,72.45c-.22-.27-4.92-5.83-15-9.5,6-8.87,6.5-16.13,6.52-16.47l.21-3.31-3.21-.82c-.33-.09-7.41-1.82-17.68,1.11-.39-10.68-4.23-16.87-4.41-17.16l-1.78-2.8-3.08,1.22C88.33,24.85,81.59,27.6,75,36,68.41,27.6,61.67,24.85,61.34,24.72L58.27,23.5l-1.78,2.8c-.18.29-4,6.48-4.41,17.16-10.28-2.93-17.35-1.2-17.68-1.11l-3.21.82.21,3.31c0,.34.56,7.6,6.52,16.47-10,3.67-14.74,9.23-15,9.5L20.85,75,23,77.55c.22.27,4.92,5.83,15,9.5-6,8.87-6.5,16.13-6.52,16.47l-.21,3.31,3.21.82a26.06,26.06,0,0,0,6,.59,42.77,42.77,0,0,0,11.64-1.7c.39,10.68,4.23,16.87,4.41,17.16l1.78,2.8,3.08-1.22c.32-.13,7.06-2.88,13.65-11.29,6.59,8.41,13.33,11.16,13.66,11.29l3.07,1.22,1.78-2.8c.18-.29,4-6.48,4.41-17.16a42.77,42.77,0,0,0,11.64,1.7,26.06,26.06,0,0,0,6-.59l3.21-.82-.21-3.31c0-.34-.56-7.6-6.52-16.47,10-3.67,14.74-9.23,15-9.5L129.15,75ZM109.59,49.76h.16a33.54,33.54,0,0,1-2.88,6.43h0a35.5,35.5,0,0,0-4.13-5.69h0A33.71,33.71,0,0,1,109.59,49.76ZM84,102.58A29,29,0,1,1,102.58,66,29,29,0,0,1,84,102.58Zm4.31-68.42a33,33,0,0,1,1.45,6.9l0,0h0A36.18,36.18,0,0,0,83,38.9h0l0,0A33.61,33.61,0,0,1,88.27,34.16Zm-26.54,0A33.75,33.75,0,0,1,67,38.88h0c-1.13.24-2.26.55-3.39.91s-2.23.79-3.3,1.26h0A33,33,0,0,1,61.73,34.16ZM40.42,49.76a33.46,33.46,0,0,1,6.83.75h0a35.94,35.94,0,0,0-4.14,5.71v0a33.32,33.32,0,0,1-2.88-6.44ZM32.05,75a33.37,33.37,0,0,1,6.11-3.51h0a35.23,35.23,0,0,0,0,7h0A33.72,33.72,0,0,1,32.05,75Zm8.36,25.24h-.16a33.54,33.54,0,0,1,2.88-6.43v0h0a35,35,0,0,0,4.12,5.69h0A33.71,33.71,0,0,1,40.41,100.24Zm21.32,15.6a33,33,0,0,1-1.45-6.9v0A35.29,35.29,0,0,0,67,111.1v0A33.75,33.75,0,0,1,61.73,115.84Zm26.54,0A33.38,33.38,0,0,1,83,111.11q1.69-.37,3.39-.93a31.12,31.12,0,0,0,3.3-1.25h0A33,33,0,0,1,88.27,115.84ZM102.74,99.5h0a36.11,36.11,0,0,0,4.14-5.71h0v0a33.32,33.32,0,0,1,2.88,6.44A33,33,0,0,1,102.74,99.5Zm9.1-21h0A35,35,0,0,0,112,75a34,34,0,0,0-.17-3.49h0A33.72,33.72,0,0,1,118,75,33.37,33.37,0,0,1,111.84,78.51Z"/></g></svg>