<svg xmlns="http://www.w3.org/2000/svg" viewBox="0 0 150 150"><title>Ajna-bold</title><g id="Ajna"><path d="M129.23,72.65c-.55-.75-13.31-18.13-28.1-23.82a36.94,36.94,0,0,0-52.27,0C34.07,54.52,21.32,71.9,20.77,72.65L19.06,75l1.71,2.35c.55.75,13.3,18.11,28.07,23.81a37,37,0,0,0,37.59,9,36.83,36.83,0,0,0,14.71-9c14.78-5.68,27.54-23.06,28.09-23.81L130.94,75ZM66,47.42A28.64,28.64,0,0,1,75,46,29.13,29.13,0,0,1,98.41,57.89H51.61A28.79,28.79,0,0,1,66,47.42Zm9,52.42L53.43,61.89H96.56ZM29.08,75A91.87,91.87,0,0,1,39.7,64a36.81,36.81,0,0,0,0,22A91.52,91.52,0,0,1,29.08,75Zm18.34,9A28.91,28.91,0,0,1,49,62.19l23.71,41.72A29,29,0,0,1,47.42,84ZM84,102.58a28.56,28.56,0,0,1-6.67,1.32L101,62.18A28.67,28.67,0,0,1,102.58,66,29,29,0,0,1,84,102.58ZM110.29,86a36.77,36.77,0,0,0,0-22.05,91.7,91.7,0,0,1,10.61,11A91.31,91.31,0,0,1,110.29,86Z"/></g></svg>