<svg xmlns="http://www.w3.org/2000/svg" viewBox="0 0 150 150"><title>Sahasrara Sanskirt-bold</title><g id="Sahasrara_Sanskirt" data-name="Sahasrara Sanskirt"><path d="M131.28,104.51c-.12-.71-3-16.46-9.24-25.3,1.69-1.6,2.77-2.73,2.87-2.84l1.3-1.37-1.3-1.38c-.1-.1-1.18-1.24-2.87-2.83,6.2-8.84,9.11-24.6,9.24-25.3l.6-3.34L128.69,41c-.67-.24-15.77-5.6-26.53-4.65-.54-2.25-1-3.75-1-3.88l-.54-1.82-1.84.44c-.14,0-1.66.4-3.89,1.06C90.32,22.37,78.13,12,77.58,11.5L75,9.31,72.41,11.5c-.54.47-12.74,10.87-17.29,20.66-2.22-.66-3.74-1-3.88-1.06l-1.85-.44-.54,1.82c0,.13-.48,1.63-1,3.89C37.08,35.41,22,40.77,21.3,41l-3.19,1.15.61,3.33c.12.71,3,16.47,9.24,25.31-1.68,1.59-2.76,2.73-2.86,2.83L23.8,75l1.3,1.37c.1.11,1.18,1.24,2.86,2.83-6.2,8.84-9.11,24.6-9.24,25.3l-.6,3.34L21.31,109c.61.22,13.41,4.76,23.83,4.76.93,0,1.82,0,2.7-.12.54,2.26,1,3.76,1,3.9l.55,1.82,1.84-.45c.14,0,1.66-.4,3.88-1.06,4.55,9.79,16.74,20.19,17.29,20.66L75,140.69l2.59-2.19c.54-.47,12.73-10.87,17.29-20.66,2.22.66,3.74,1,3.88,1.06l1.84.45.54-1.82c0-.14.49-1.65,1-3.91.87.08,1.77.13,2.69.13,10.42,0,23.22-4.54,23.84-4.76l3.19-1.15Zm-29.21-4.41-.56,0A36.47,36.47,0,0,0,110,85.46l.3.43a79.83,79.83,0,0,1,4.26,11.93A82.94,82.94,0,0,1,102.07,100.1ZM66.81,111l-.24-.5a36.34,36.34,0,0,0,16.85,0l-.24.5A81.15,81.15,0,0,1,75,120.63,81.91,81.91,0,0,1,66.81,111ZM75,103.5A28.5,28.5,0,1,1,103.5,75,28.54,28.54,0,0,1,75,103.5ZM35.48,97.82a85.23,85.23,0,0,1,3.86-11.06l.39-.85.31-.44a36.43,36.43,0,0,0,8.45,14.58l-.55,0A81.13,81.13,0,0,1,35.48,97.82ZM29.37,75a86.39,86.39,0,0,1,7.89-6.91c.49.93,1,1.78,1.51,2.55a35.18,35.18,0,0,0,0,8.7c-.51.78-1,1.62-1.52,2.55A89,89,0,0,1,29.37,75ZM48,49.91l.46,0A36.5,36.5,0,0,0,40,64.53l-.31-.44-.25-.54a83.19,83.19,0,0,1-4-11.37A81.26,81.26,0,0,1,48,49.91ZM83.2,39l.22.47a36.3,36.3,0,0,0-16.84,0L66.8,39A80,80,0,0,1,75,29.37,81,81,0,0,1,83.2,39Zm31.32,13.16a80.18,80.18,0,0,1-4.26,11.92l-.3.43A36.5,36.5,0,0,0,101.51,50l.56-.05A82.45,82.45,0,0,1,114.52,52.18Zm-1.78,29.73c-.49-.93-1-1.78-1.51-2.55a35.34,35.34,0,0,0,0-8.72c.51-.77,1-1.63,1.52-2.56A89.06,89.06,0,0,1,120.64,75,88.16,88.16,0,0,1,112.74,81.91Zm10-34.45c-1.22,5.17-3.56,13.14-6.74,18.05l-1.44-1.11a89.63,89.63,0,0,0,4.39-13.16l.44-1.84-1.81-.54a90.84,90.84,0,0,0-13.61-2.79c-.07-.6-.14-1.2-.23-1.79C109.53,44,117.61,45.93,122.69,47.46Zm-22.84-1.7c-1.06,0-2,0-3,0a36.77,36.77,0,0,0-7.52-4.36c-.42-.82-.9-1.68-1.46-2.58a88.22,88.22,0,0,1,9.93-3.38A88.41,88.41,0,0,1,99.85,45.76ZM75,19.93c3.86,3.64,9.6,9.66,12.26,14.86l-1.68.7A88.85,88.85,0,0,0,76.37,25.1L75,23.8l-1.38,1.3a89.88,89.88,0,0,0-9.21,10.39q-.84-.36-1.68-.69C65.4,29.59,71.13,23.57,75,19.93ZM52.18,35.48a91,91,0,0,1,9.93,3.38c-.56.9-1,1.76-1.46,2.58a36.62,36.62,0,0,0-7.53,4.37c-1-.06-2-.07-3,0A88.31,88.31,0,0,1,52.18,35.48Zm-24.87,12c5.08-1.53,13.16-3.48,19-3.19-.08.6-.16,1.2-.23,1.8a89.72,89.72,0,0,0-13.6,2.78l-1.82.54.44,1.84a91.56,91.56,0,0,0,4.4,13.18c-.49.36-1,.73-1.44,1.1C30.87,60.61,28.52,52.63,27.31,47.47Zm0,55.07c1.21-5.17,3.56-13.14,6.74-18.05.47.37,1,.73,1.44,1.09A89.9,89.9,0,0,0,31.1,98.76l-.44,1.84,1.82.54a90,90,0,0,0,13.59,2.79q.1.9.24,1.8C40.47,106,32.39,104.06,27.31,102.54Zm22.83,1.7,1.15,0c.64,0,1.25,0,1.84-.06a36.77,36.77,0,0,0,7.52,4.36c.42.82.9,1.69,1.46,2.58a88.87,88.87,0,0,1-9.92,3.38A87.75,87.75,0,0,1,50.14,104.24ZM75,130.07c-3.86-3.64-9.6-9.66-12.26-14.86l1.67-.7a90.93,90.93,0,0,0,9.21,10.39L75,126.2l1.37-1.3a89.48,89.48,0,0,0,9.22-10.39l1.67.7C84.6,120.41,78.87,126.43,75,130.07Zm22.82-15.55a89.6,89.6,0,0,1-9.93-3.38c.56-.89,1-1.76,1.46-2.58a37,37,0,0,0,7.54-4.37c.59,0,1.19.06,1.8.06l1.18,0A87.79,87.79,0,0,1,97.82,114.52Zm5.88-8.8c.09-.6.17-1.2.24-1.81a89,89,0,0,0,13.59-2.77l1.81-.53-.44-1.85a89.55,89.55,0,0,0-4.39-13.17c.49-.36,1-.73,1.44-1.1,3.18,4.9,5.53,12.88,6.74,18C117.61,104.06,109.54,106,103.7,105.72Z"/><circle cx="79.67" cy="55.97" r="3"/><path d="M79.67,68.49A12.11,12.11,0,0,0,89.8,63l-6.68-4.41a4.12,4.12,0,0,1-6.9,0L69.55,63A12.09,12.09,0,0,0,79.67,68.49Z"/><path d="M83.6,73.3a9.44,9.44,0,0,0-6.19,2.32H75.56c0-.26,0-.51,0-.77a9.35,9.35,0,1,0-18.69,0h8a1.35,1.35,0,1,1,2.69,0,1.34,1.34,0,0,1-.74,1.2l-7.16,3.59,7.17,3.57a1.32,1.32,0,0,1,.73,1.19,1.35,1.35,0,0,1-1.34,1.35,1.36,1.36,0,0,1-1.35-1.35h-8a9.35,9.35,0,1,0,18.69,0c0-.26,0-.52,0-.78h3.7a4,4,0,0,0,3.43-2,1.4,1.4,0,0,1,.91-.34,1.47,1.47,0,1,1,0,2.94l0,8a9.47,9.47,0,0,0,0-18.94Z"/></g></svg>