<svg xmlns="http://www.w3.org/2000/svg" viewBox="0 0 150 150"><title>Svadhishthana Sanskrit-bold</title><g id="Svadhishthana_Sanskrit" data-name="Svadhishthana Sanskrit"><path d="M129.23,71.86A45,45,0,0,0,106.8,56.11l-.16-.25a44.94,44.94,0,0,0-3.33-27.23l-1.22-2.4-2.69.23A45,45,0,0,0,74.57,38h-.35A44.88,44.88,0,0,0,49,27.3l-2.69-.14L45.17,29.6a44.88,44.88,0,0,0-2.43,27.29,1,1,0,0,0-.08.14s0,.1-.08.14A45,45,0,0,0,20.69,73.66l-1.47,2.27,1.55,2.21A45,45,0,0,0,43.2,93.89l.16.25a44.94,44.94,0,0,0,3.33,27.23l1.22,2.4,2.69-.23A45,45,0,0,0,75.44,112h.33A45,45,0,0,0,101,122.7l2.69.14,1.14-2.44a44.88,44.88,0,0,0,2.43-27.29,1,1,0,0,0,.08-.14s0-.1.08-.14a45,45,0,0,0,21.89-16.49l1.47-2.27ZM100.35,89.08a29,29,0,1,1,2.53-22A28.77,28.77,0,0,1,100.35,89.08Zm-.87-41.82a37.17,37.17,0,0,0-13.83-7.7,39.31,39.31,0,0,1,11.62-4.63A38.42,38.42,0,0,1,99.48,47.26ZM51.43,35.69A39.38,39.38,0,0,1,63.2,39.93a36.81,36.81,0,0,0-13.57,8.12A39.07,39.07,0,0,1,51.43,35.69ZM29.17,75.76a39.2,39.2,0,0,1,9.56-8.07A37.15,37.15,0,0,0,39,83.51,39.25,39.25,0,0,1,29.17,75.76Zm21.35,27a36.8,36.8,0,0,0,6.51,4.6,37.18,37.18,0,0,0,7.33,3.09,39.15,39.15,0,0,1-11.63,4.64A38.42,38.42,0,0,1,50.52,102.74Zm48,11.57a39.38,39.38,0,0,1-11.77-4.24A36.81,36.81,0,0,0,100.37,102,39.07,39.07,0,0,1,98.57,114.31Zm12.7-32A37.15,37.15,0,0,0,111,66.49a39.25,39.25,0,0,1,9.84,7.75A39.2,39.2,0,0,1,111.27,82.31Z"/><path d="M58.28,68.75H77v3.77a17.9,17.9,0,0,0-6.5-1.19c-8.13,0-14.5,5-14.5,11.5s6.37,11.5,14.5,11.5A18.11,18.11,0,0,0,77,93.14v3.65h8v-28h7.25v-8h-34ZM70.53,86.33c-4,0-6.5-2.07-6.5-3.5s2.53-3.5,6.5-3.5S77,81.4,77,82.83,74.5,86.33,70.53,86.33Z"/><circle cx="81.03" cy="56.21" r="3"/></g></svg>