<svg id="Muladhara" xmlns="http://www.w3.org/2000/svg" viewBox="0 0 150 150"><title>Muladhara-bold</title><path d="M113,74.81c11.67-15.41,6-39.91,5.75-40.95l-.58-2.42-2.42-.55c-1-.24-25.59-5.66-40.89,6.16-15.41-11.67-39.91-6-40.95-5.75l-2.42.57-.55,2.43c-.24,1-5.66,25.59,6.16,40.89-11.67,15.41-6,39.91-5.75,41l.58,2.41,2.42.56a70.51,70.51,0,0,0,14.35,1.45c8.32,0,18.66-1.52,26.54-7.61,7.73,5.85,17.74,7.35,25.93,7.35a70.63,70.63,0,0,0,15-1.6l2.42-.58.55-2.42C119.35,114.65,124.77,90.1,113,74.81ZM111.4,38.23c.83,5.06,2.1,16.74-1.73,26.21A36.58,36.58,0,0,0,85.48,40.11C94.87,36.32,106.39,37.46,111.4,38.23ZM74.86,103.5h-.14a28.25,28.25,0,0,1-15.25-4.43l30.71-.15A28.3,28.3,0,0,1,74.86,103.5Zm-.28-57h.14A28.25,28.25,0,0,1,90,50.92l-30.71.15A28.38,28.38,0,0,1,74.58,46.5Zm-20,8.6,40-.2.2,40-40,.2Zm-4,4.68.16,30.71a28.45,28.45,0,0,1-.16-30.71ZM98.8,90.22,98.64,59.5a28.47,28.47,0,0,1,.16,30.72ZM38.24,38.6c5-.82,16.32-2.06,25.7,1.53A36.63,36.63,0,0,0,39.92,64C36.36,54.72,37.48,43.52,38.24,38.6Zm.36,73.16c-.81-4.91-2-16.09,1.42-25.41A36.6,36.6,0,0,0,64.27,110C54.93,113.66,43.57,112.53,38.6,111.76Zm73.16-.36c-5,.82-16.51,2.07-25.93-1.63a36.66,36.66,0,0,0,23.94-24.59C113.7,94.62,112.54,106.33,111.76,111.4Z"/><path d="M74.8,91.88l15.41-26-31.07.16Zm0-7.77L66.23,70,83.16,70Z"/></svg>