<svg xmlns="http://www.w3.org/2000/svg" viewBox="0 0 150 150"><title>Muladhara Sanskrit-bold</title><g id="Muladhara_Sanskrit" data-name="Muladhara Sanskrit"><path d="M117.1,36.2l-.5-2.64L114,33c-1-.2-24-4.68-39,4.53C60.09,28.35,37.06,32.82,36,33l-2.64.53-.5,2.64c-.2,1-4.42,24,4.84,38.8-9.26,14.82-5,37.77-4.84,38.79l.5,2.64L36,117a77.82,77.82,0,0,0,14.22,1.27c7.76,0,17.27-1.19,24.74-5.8,7.47,4.62,17,5.8,24.74,5.8A77.82,77.82,0,0,0,114,117l2.64-.53.5-2.64c.2-1,4.42-24-4.84-38.79C121.52,60.18,117.3,37.23,117.1,36.2Zm-7.45,4.25A75.09,75.09,0,0,1,110.22,51,54.18,54.18,0,0,1,109,61.67,36.62,36.62,0,0,0,88.21,40.88C96.4,39.09,105.29,39.86,109.65,40.45Zm-34.51,63H75a28.43,28.43,0,1,1,.14,0Zm-34.79-63a75.49,75.49,0,0,1,10.51-.67A53.13,53.13,0,0,1,61.79,40.9,36.69,36.69,0,0,0,41,61.74C39.13,53.61,39.81,44.79,40.35,40.44Zm0,69.11A75.29,75.29,0,0,1,39.78,99,53.85,53.85,0,0,1,41,88.22a36.67,36.67,0,0,0,21.06,20.84C53.8,110.93,44.76,110.14,40.35,109.55Zm69.3,0a75.49,75.49,0,0,1-10.51.67A53.89,53.89,0,0,1,88,109,36.69,36.69,0,0,0,109,88.15C110.87,96.31,110.19,105.19,109.65,109.56Z"/><circle cx="85.91" cy="54.38" r="3"/><path d="M89.91,70.29V66.38H95v-8H55v8H81.91v2.11A14,14,0,0,0,75,71a14,14,0,1,0-8,25.49,13.78,13.78,0,0,0,4.34-.69l-2.5-7.6a5.63,5.63,0,0,1-1.84.29,6,6,0,1,1,4.8-9.6L75,83.13l3.2-4.28a6,6,0,1,1,4.8,9.6,5.63,5.63,0,0,1-1.84-.29l-2.5,7.6a13.78,13.78,0,0,0,4.34.69,14,14,0,0,0,6.91-26.16Z"/></g></svg>