<svg xmlns="http://www.w3.org/2000/svg" viewBox="0 0 150 150"><title>Manipura-bold</title><g id="Manipura"><path d="M127,72.45c-.22-.27-4.92-5.83-15-9.5,6-8.87,6.5-16.13,6.52-16.47l.21-3.31-3.21-.82c-.34-.09-7.4-1.82-17.68,1.11-.39-10.68-4.23-16.87-4.41-17.16l-1.78-2.8-3.08,1.22C88.33,24.85,81.59,27.6,75,36,68.41,27.6,61.67,24.85,61.34,24.72L58.27,23.5l-1.78,2.8c-.18.29-4,6.48-4.41,17.16-10.28-2.93-17.35-1.2-17.68-1.11l-3.21.82.21,3.31c0,.34.56,7.6,6.52,16.47-10,3.67-14.74,9.23-15,9.5L20.85,75,23,77.55c.22.27,4.92,5.83,15,9.5-6,8.87-6.5,16.13-6.52,16.47l-.21,3.31,3.21.82a26.06,26.06,0,0,0,6,.59,42.77,42.77,0,0,0,11.64-1.7c.39,10.68,4.23,16.87,4.41,17.16l1.78,2.8,3.08-1.22c.32-.13,7.06-2.88,13.65-11.29,6.59,8.41,13.33,11.16,13.66,11.29l3.07,1.22,1.78-2.8c.18-.29,4-6.48,4.41-17.16a42.77,42.77,0,0,0,11.64,1.7,26.06,26.06,0,0,0,6-.59l3.21-.82-.21-3.31c0-.34-.56-7.6-6.52-16.47,10-3.67,14.74-9.23,15-9.5L129.15,75ZM84,102.58a28.54,28.54,0,0,1-4.08,1l22.81-37.17A29,29,0,0,1,84,102.58ZM47.42,84a28.79,28.79,0,0,1-.1-17.54l22.8,37.15A29,29,0,0,1,47.42,84ZM66,47.42A29,29,0,0,1,96.8,55.89H53.2A28.8,28.8,0,0,1,66,47.42Zm9,48.82L55.15,63.89h39.7Zm34.75-46.48A33.66,33.66,0,0,1,107,55.89h-.37a37.14,37.14,0,0,0-4-5.39A32.28,32.28,0,0,1,109.75,49.76ZM88.27,34.16a33.86,33.86,0,0,1,1.46,6.92A37.46,37.46,0,0,0,83,38.9,33.08,33.08,0,0,1,88.27,34.16Zm-26.54,0A33.38,33.38,0,0,1,67,38.89a34.75,34.75,0,0,0-3.39.92c-1.13.37-2.23.79-3.29,1.25A33,33,0,0,1,61.73,34.16ZM47.29,50.51a36.94,36.94,0,0,0-3.94,5.38H43a32.74,32.74,0,0,1-2.71-6.14A34.51,34.51,0,0,1,47.29,50.51Zm-9.11,21a36.79,36.79,0,0,0,0,7A33.68,33.68,0,0,1,32.06,75,34.06,34.06,0,0,1,38.18,71.48Zm2.07,28.76a33.72,33.72,0,0,1,2.89-6.44,36.12,36.12,0,0,0,4.13,5.69A33.07,33.07,0,0,1,40.25,100.24Zm21.48,15.6a33.86,33.86,0,0,1-1.46-6.92A37.46,37.46,0,0,0,67,111.1,33.52,33.52,0,0,1,61.73,115.84Zm26.54,0A33.38,33.38,0,0,1,83,111.11a34.75,34.75,0,0,0,3.39-.92c1.13-.37,2.23-.79,3.29-1.25A33,33,0,0,1,88.27,115.84Zm14.44-16.35a36.76,36.76,0,0,0,4.14-5.71,33,33,0,0,1,2.89,6.47A33.14,33.14,0,0,1,102.71,99.49Zm9.11-21a36.79,36.79,0,0,0,0-7A33.68,33.68,0,0,1,117.94,75,34.06,34.06,0,0,1,111.82,78.52Z"/></g></svg>