<svg xmlns="http://www.w3.org/2000/svg" viewBox="0 0 150 150"><title>Sahasrara-bold</title><g id="Sahasrara"><path d="M121.39,100.29c-.1-.58-2.44-13.21-7.33-20.51,2-1.86,3.41-3.3,3.51-3.41l1.3-1.37-1.3-1.38c-.1-.11-1.47-1.55-3.51-3.41,4.89-7.3,7.22-19.93,7.33-20.5l.3-1.67-1.59-.57c-.55-.2-12.66-4.49-21.43-3.91-.59-2.69-1.15-4.59-1.19-4.73L96.94,37l-1.85.44c-.14,0-2.07.5-4.7,1.33-3.88-7.88-13.65-16.22-14.1-16.6L75,21.09l-1.3,1.09c-.44.38-10.22,8.72-14.09,16.61C57,38,55.05,37.49,54.9,37.45L53.06,37l-.54,1.82c0,.14-.6,2.05-1.19,4.74-8.77-.59-20.88,3.71-21.43,3.9l-1.59.58.3,1.66c.1.58,2.44,13.22,7.33,20.52-2,1.86-3.4,3.29-3.5,3.4L31.13,75l1.31,1.37c.1.11,1.47,1.55,3.5,3.4-4.89,7.3-7.22,19.94-7.33,20.51l-.3,1.67,1.59.57c.52.19,11.17,4,19.72,4,.58,0,1.15,0,1.71-.06.6,2.69,1.16,4.59,1.2,4.74l.54,1.81,1.84-.44c.15,0,2.08-.5,4.7-1.33,3.88,7.88,13.65,16.22,14.1,16.6L75,128.91l1.29-1.09c.45-.38,10.23-8.72,14.1-16.6,2.63.83,4.55,1.3,4.7,1.33l1.84.44.54-1.81c0-.15.61-2.05,1.21-4.75.55,0,1.12.06,1.7.06,8.55,0,19.2-3.78,19.72-4l1.59-.57ZM110.1,78A.34.34,0,0,0,110,78c-.9.78-1.89,1.6-2.91,2.4a17.85,17.85,0,0,0-4.13-5.3v-.22a18.15,18.15,0,0,0,4.13-5.3c1,.78,2,1.59,2.87,2.37,0,0,.06.06.09.08l.06,0c1.26,1.11,2.36,2.14,3.15,2.92-.8.77-1.9,1.82-3.17,2.93ZM93.41,96.07a28,28,0,0,0,9.06-15.64c2.36,3.45,4.48,9.27,5.71,13.72C103.7,95.32,97.58,96.4,93.41,96.07ZM75,113.31c-3.24-3.29-7.23-8-9-11.81a27.93,27.93,0,0,0,18.06,0C82.23,105.27,78.25,110,75,113.31ZM41.82,94.16c1.23-4.46,3.35-10.28,5.71-13.73a28.05,28.05,0,0,0,9.06,15.64C52.42,96.4,46.3,95.32,41.82,94.16ZM39.91,78h0c-1.28-1.12-2.39-2.16-3.19-2.94a74,74,0,0,1,6.17-5.41A17.94,17.94,0,0,0,47,74.89v.23a17.94,17.94,0,0,0-4.12,5.29C41.83,79.6,40.83,78.76,39.91,78Zm16.68-24a28,28,0,0,0-9.06,15.64c-2.36-3.45-4.48-9.27-5.71-13.72C46.3,54.68,52.42,53.61,56.59,53.93ZM75,36.69c3.24,3.29,7.23,8,9,11.81A27.93,27.93,0,0,0,66,48.5C67.77,44.74,71.75,40,75,36.69Zm33.18,19.15c-1.23,4.46-3.35,10.28-5.71,13.73a28.05,28.05,0,0,0-9.06-15.64C97.58,53.6,103.7,54.68,108.18,55.84ZM75,95A20,20,0,1,1,95,75,20,20,0,0,1,75,95Zm42.1-44.31c-.77,3.53-2.82,11.74-6.09,16.87-.67-.55-1.38-1.1-2.1-1.64a73.87,73.87,0,0,0,3.64-11l.44-1.85-1.82-.54a73.89,73.89,0,0,0-11.35-2.35c-.11-.9-.24-1.78-.38-2.64C105.52,47.26,113.66,49.59,117.1,50.69Zm-22-4.62h0a0,0,0,0,1,0,0c.24,1.19.46,2.46.63,3.77a18,18,0,0,0-6.66.93l-.18-.1a17.84,17.84,0,0,0-2.52-6.23c1.22-.5,2.44-.95,3.58-1.34h0c1.61-.55,3.07-1,4.15-1.29C94.42,42.92,94.77,44.4,95.1,46.07ZM75,26.38c2.67,2.43,8.76,8.32,11.57,13.72-.82.31-1.65.64-2.48,1a71.77,71.77,0,0,0-7.72-8.66L75,31.13l-1.38,1.31A73.63,73.63,0,0,0,65.9,41.1c-.83-.36-1.66-.69-2.48-1C66.23,34.7,72.33,28.81,75,26.38ZM63.62,44.48a17.69,17.69,0,0,0-2.53,6.23l-.18.11a17.61,17.61,0,0,0-6.66-.93c.18-1.3.39-2.56.63-3.74,0,0,0,0,0-.06s0,0,0,0c.33-1.66.67-3.13,1-4.21A74.81,74.81,0,0,1,63.62,44.48ZM32.89,50.69c3.44-1.09,11.59-3.43,17.67-3.16-.14.86-.27,1.75-.38,2.65a74.42,74.42,0,0,0-11.36,2.35L37,53.07l.44,1.84a73.46,73.46,0,0,0,3.64,11c-.72.54-1.42,1.1-2.1,1.65C35.72,62.45,33.67,54.22,32.89,50.69Zm0,48.62c.77-3.53,2.82-11.75,6.09-16.88.68.55,1.38,1.11,2.1,1.65a74.75,74.75,0,0,0-3.64,11L37,96.94l1.82.54a73.89,73.89,0,0,0,11.35,2.35c.11.89.24,1.78.38,2.64C44.48,102.74,36.34,100.41,32.9,99.31Zm22,4.63v0a.06.06,0,0,1,0,0c-.24-1.19-.46-2.46-.64-3.77h.55a17,17,0,0,0,6.12-.94l.18.11a17.84,17.84,0,0,0,2.52,6.23c-1.22.5-2.44,1-3.59,1.34h0c-1.61.55-3.07,1-4.14,1.29C55.58,107.08,55.23,105.6,54.9,103.94ZM75,123.62c-2.67-2.43-8.76-8.32-11.57-13.72.82-.31,1.65-.64,2.48-1a73,73,0,0,0,7.72,8.67l1.37,1.3,1.38-1.3a74.76,74.76,0,0,0,7.71-8.66c.83.35,1.67.68,2.48,1C83.77,115.3,77.67,121.19,75,123.62Zm15-16.74H90c-1.14-.39-2.36-.84-3.58-1.34a17.69,17.69,0,0,0,2.53-6.23l.18-.11a16.94,16.94,0,0,0,6.12.94h.54c-.17,1.28-.39,2.54-.62,3.71,0,0,0,.06,0,.09s0,0,0,0c-.33,1.66-.68,3.13-.95,4.2C93.07,107.86,91.61,107.42,90,106.88Zm9.44-4.41c.14-.86.27-1.75.38-2.65a74.18,74.18,0,0,0,11.35-2.35l1.81-.54-.44-1.84a73.1,73.1,0,0,0-3.64-11c.72-.54,1.43-1.1,2.1-1.65,3.27,5.13,5.33,13.35,6.1,16.88C113.67,100.4,105.52,102.74,99.45,102.47Z"/></g></svg>