<svg xmlns="http://www.w3.org/2000/svg" viewBox="0 0 150 150"><title>Vishuddha-bold</title><g id="Vishuddha"><path d="M120.53,76.54l2.22-1.62-2.22-1.61a61.14,61.14,0,0,0-8.45-5.25A61.69,61.69,0,0,0,118,60.2l1.49-2.3-2.65-.72a57.34,57.34,0,0,0-10.58-1.91l-.2-.3a56.19,56.19,0,0,0,2.73-10.41l.47-2.71-2.72.38a57,57,0,0,0-10.5,2.38l-.28-.19a56.51,56.51,0,0,0-1.55-10.67l-.62-2.67-2.36,1.41a56.94,56.94,0,0,0-8.74,6.29l-.34-.07a56.71,56.71,0,0,0-5.58-9.2L75,27.29l-1.62,2.22A61.83,61.83,0,0,0,68.11,38a60.89,60.89,0,0,0-7.93-6l-2.31-1.5-.71,2.66a56.71,56.71,0,0,0-1.92,10.58l-.3.2a57.37,57.37,0,0,0-10.41-2.74l-2.71-.47.38,2.72a56.07,56.07,0,0,0,2.38,10.51c-.06.09-.12.19-.19.28a56.51,56.51,0,0,0-10.67,1.55L31,56.36l1.42,2.35a55.38,55.38,0,0,0,6.29,8.73c0,.12,0,.24-.07.36a56.37,56.37,0,0,0-9.21,5.59L27.25,75l2.22,1.62a61.36,61.36,0,0,0,8.46,5.25,61.57,61.57,0,0,0-6,7.93l-1.49,2.3,2.65.72a56.78,56.78,0,0,0,10.58,1.9,3.28,3.28,0,0,0,.2.31,56.35,56.35,0,0,0-2.74,10.41l-.47,2.71,2.72-.38a57.06,57.06,0,0,0,10.51-2.38l.28.19a56.62,56.62,0,0,0,1.54,10.67l.62,2.67,2.36-1.41a56.47,56.47,0,0,0,8.75-6.29l.34.07a56.71,56.71,0,0,0,5.58,9.2L75,122.71l1.62-2.22A60.64,60.64,0,0,0,81.83,112a60,60,0,0,0,7.94,6l2.3,1.5.71-2.66a55.59,55.59,0,0,0,1.92-10.58l.3-.2a57,57,0,0,0,10.41,2.74l2.7.47-.38-2.72a55.55,55.55,0,0,0-2.38-10.5l.19-.29a56.25,56.25,0,0,0,10.67-1.55l2.68-.62-1.41-2.35a56.47,56.47,0,0,0-6.29-8.75c0-.13,0-.26.08-.39A56.08,56.08,0,0,0,120.53,76.54Zm-8.64.83a36.42,36.42,0,0,0,0-4.9c1.19.67,2.56,1.51,4,2.45C114.45,75.86,113.09,76.7,111.89,77.37Zm-28,25.2a29.11,29.11,0,0,1-6.67,1.33L88.48,84.15A15.69,15.69,0,0,0,90,81.47l11-19.28A30.45,30.45,0,0,1,102.54,66,29,29,0,0,1,83.93,102.57ZM47.4,84A28.88,28.88,0,0,1,49,62.2l11,19.27a16.44,16.44,0,0,0,1.53,2.68L72.67,103.9A29,29,0,0,1,47.4,84ZM66,47.43A28.73,28.73,0,0,1,75,46,29.12,29.12,0,0,1,98.37,57.89H51.59A28.74,28.74,0,0,1,66,47.43Zm25.12,24a16.48,16.48,0,0,0-5.8-9.5h11.2ZM75,99.84l-5.44-9.57a16.18,16.18,0,0,0,10.87,0ZM53.4,61.89H64.61a16.54,16.54,0,0,0-5.81,9.5ZM85.1,82a12.46,12.46,0,0,1-20.27,0l-1.38-2.44a12.5,12.5,0,1,1,23,0Zm28-21.63c-1,1.36-1.93,2.63-2.79,3.67-.05-.15-.09-.31-.14-.47a36.77,36.77,0,0,0-1.59-4.06C109.9,59.71,111.46,60,113.08,60.37Zm-8.75-13.73c-.35,1.62-.74,3.15-1.12,4.44a36.6,36.6,0,0,0-3.36-3.46C101.16,47.28,102.7,46.94,104.33,46.64ZM90.92,37.42c.31,1.64.55,3.21.7,4.55a37.72,37.72,0,0,0-4.46-1.89C88.23,39.25,89.53,38.33,90.92,37.42ZM75,34.18c.92,1.38,1.75,2.72,2.41,3.9a36.91,36.91,0,0,0-4.82,0C73.23,36.9,74.05,35.56,75,34.18ZM60.34,36.89c1.36,1,2.63,1.92,3.67,2.79l-.47.14a37.56,37.56,0,0,0-4.06,1.59C59.68,40.07,60,38.51,60.34,36.89ZM46.61,45.64c1.61.35,3.14.74,4.44,1.12a38,38,0,0,0-3.47,3.36C47.24,48.81,46.91,47.27,46.61,45.64ZM37.39,59.05c1.63-.31,3.2-.55,4.55-.7a37,37,0,0,0-1.89,4.46C39.22,61.73,38.3,60.44,37.39,59.05ZM38,72.59a36.92,36.92,0,0,0,0,4.82c-1.18-.66-2.52-1.49-3.89-2.41C35.52,74.08,36.87,73.26,38,72.59Zm-1.18,17c1-1.36,1.93-2.62,2.79-3.67l.14.47a38.39,38.39,0,0,0,1.59,4.06C40,90.29,38.48,90,36.86,89.63Zm8.75,13.73c.35-1.62.74-3.15,1.12-4.44a35.4,35.4,0,0,0,3.36,3.46C48.78,102.72,47.23,103.06,45.61,103.36ZM59,112.58c-.31-1.63-.55-3.2-.7-4.55a38.44,38.44,0,0,0,4.46,1.89C61.7,110.75,60.41,111.67,59,112.58ZM75,115.82c-.92-1.38-1.74-2.71-2.41-3.89.79,0,1.58.08,2.37.08s1.64,0,2.45-.09C76.72,113.1,75.89,114.44,75,115.82Zm14.63-2.71c-1.36-1-2.63-1.92-3.68-2.79l.48-.14a37.56,37.56,0,0,0,4.06-1.59C90.26,109.93,90,111.49,89.6,113.11Zm13.72-8.75c-1.61-.35-3.14-.74-4.43-1.12a36.6,36.6,0,0,0,3.46-3.36C102.69,101.19,103,102.73,103.32,104.36ZM112.54,91c-1.63.31-3.2.55-4.55.7a35.55,35.55,0,0,0,1.9-4.46C110.72,88.27,111.63,89.56,112.54,91Z"/></g></svg>