<svg id="Layer_2" data-name="Layer 2" xmlns="http://www.w3.org/2000/svg" viewBox="0 0 150 150"><defs><style>.cls-1,.cls-2{fill:none;stroke:#231f20;stroke-miterlimit:10;}.cls-1{stroke-width:8px;}.cls-2{stroke-width:4px;}.cls-3{fill:#231f20;}</style></defs><title>Taino bird  symbol-bold</title><path class="cls-1" d="M69.29,34S60.5,46,66.67,70.5L35,115.72H45.55a2.13,2.13,0,0,0,2-2.9L45.67,108,74,101.13l5.33-1.3S108,94.17,94.67,70C88.24,58.35,84.14,50.88,81.61,46.27a2.46,2.46,0,0,1,3.21-3.4l30.55,12S97,32,78.71,25.33C78.71,25.33,69.29,23.67,69.29,34Z"/><line class="cls-2" x1="74" y1="131.37" x2="74" y2="101.13"/><line class="cls-2" x1="61.05" y1="127.83" x2="73.36" y2="117.49"/><line class="cls-2" x1="86.95" y1="127.83" x2="74.64" y2="117.49"/><circle class="cls-2" cx="79.29" cy="82.41" r="13.48"/><path class="cls-2" d="M56.51,85S55,95.17,68,103.5"/><circle class="cls-3" cx="78.79" cy="35" r="3.33"/></svg>