<svg id="Symbols" xmlns="http://www.w3.org/2000/svg" viewBox="0 0 150 150"><title>Cohoba taino symbol-bold</title><path d="M104.68,114.46l-2.38-14.41A7.73,7.73,0,0,0,105,97.47c1.6-2.57,1.48-5.75.64-8.79a8.11,8.11,0,0,0,0-7.16,8.85,8.85,0,0,0-5.53-4.18c-1.49-3.24-4.48-11-2.75-18.54,1.33-5.76-.33-9.39-2-11.42a11.69,11.69,0,0,0-4-3.19A6,6,0,0,0,86.4,33.36,12.55,12.55,0,0,0,84,29.78,9.12,9.12,0,0,1,84.62,27c.19-.57.42-1.22.62-2a4.27,4.27,0,0,0-2.15-4.82c-3.86-2.5-13.25-2.86-16.89.13a4.28,4.28,0,0,0-1.34,5.14,13.89,13.89,0,0,1,1,4.45,12.44,12.44,0,0,0-2.28,3.4,6,6,0,0,0-5,10.76,11.25,11.25,0,0,0-3.69,3c-1.64,2.05-3.3,5.74-1.93,11.72,1.74,7.53-1.31,15.42-2.79,18.62A9.55,9.55,0,0,0,44.36,82a8.33,8.33,0,0,0,0,7c-.77,2.9-.86,5.9.64,8.36A7.56,7.56,0,0,0,47.71,100l-2.39,14.45c-5.27,1.73-7.85,3.92-7.85,6.65,0,3.37,3.91,5.92,12,7.79A118.67,118.67,0,0,0,75,131.37a118.67,118.67,0,0,0,25.58-2.47c8-1.87,12-4.42,12-7.79C112.53,118.38,110,116.19,104.68,114.46ZM78.2,110.92H71.8L69.21,99l6-1.08,5.59,1Zm-13.61,4.5a10.06,10.06,0,0,1-11.47.94l2.48-15c.55,0,1.09-.1,1.67-.18l4.07-.74ZM60.74,57c-.36-1.56-.59-3.68.35-4.89a5.44,5.44,0,0,1,3.61-1.53C67.16,55.91,71.24,58,74.94,58c5.11,0,8.41-3.05,10.34-7.37a6.21,6.21,0,0,1,3.83,1.72c.76.95.9,2.5.41,4.62a27.66,27.66,0,0,0-.61,4l-6.6-.85-3,23.32,18.58,7.4a4.77,4.77,0,0,1,.29,2.35c-.24.11-1.34.51-4.28.06L76.65,90A3.38,3.38,0,0,0,78.83,87a3.17,3.17,0,0,0-.81-2.1V83.28a3,3,0,0,0-6,0v1.58a3.27,3.27,0,0,0-.75,1.47,3.21,3.21,0,0,0-.06.63,3.42,3.42,0,0,0,2.3,3.12L56,93.22c-2.85.43-4,.06-4.23-.07a6.64,6.64,0,0,1,.68-3.3l18-6.28-3.32-23.5-5.79.82A28.22,28.22,0,0,0,60.74,57ZM83.53,38.53c0,2.59-.41,15.5-8.59,15.5-8.38,0-8.47-14.86-8.47-15.5a8.53,8.53,0,0,1,17.06,0ZM89.23,69a45.42,45.42,0,0,0,3.3,11.09L88,78.3ZM60.62,71.17l1,7L58,79.44A45.44,45.44,0,0,0,60.62,71.17Zm28,29.24,3.84.71.12,0c.61.1,1.21.17,1.79.22l2.48,15a10.07,10.07,0,0,1-11.48-1Zm-.37-63.36a2,2,0,1,1,0,4,1.8,1.8,0,0,1-.82-.2c0-.77.06-1.53.06-2.29q0-.64-.06-1.29A1.9,1.9,0,0,1,88.29,37.05ZM69.61,23c4.09-1.67,11.24-.25,11.77,1-.17.63-.36,1.18-.54,1.7s-.34,1-.49,1.51A12.29,12.29,0,0,0,75,26a12.47,12.47,0,0,0-5.45,1.26,20.53,20.53,0,0,0-1-3.22C68.48,23.81,68.36,23.49,69.61,23Zm-7.9,14.07a1.9,1.9,0,0,1,.82.19q-.06.65-.06,1.29c0,.8,0,1.55.06,2.29a1.8,1.8,0,0,1-.82.2,2,2,0,1,1,0-4ZM75,127.37c-22.63,0-33.29-4.54-33.53-6.25,0-.25.72-1.1,3.1-2.11l-.12.74,1.68,1.47a20.82,20.82,0,0,0,12.35,4.49c4,0,8.68-1.45,13.31-6l1.59-1.54-.72-3.29h4.68l-.72,3.29,1.59,1.54c4.63,4.52,9.27,6,13.31,6a20.82,20.82,0,0,0,12.35-4.49l1.68-1.47-.12-.74c2.38,1,3.07,1.86,3.1,2.1C108.29,122.83,97.63,127.37,75,127.37Z"/><circle cx="75" cy="63.06" r="2.43"/><path d="M80,43.27a3,3,0,0,0,3-3.16c0-2-1.52-5.14-5.13-2.35S77.67,43.29,80,43.27Z"/><path d="M72.12,37.76C68.51,35,67,38.13,67,40.11a3,3,0,0,0,3,3.16C72.33,43.29,75.73,40.55,72.12,37.76Z"/><path d="M75,45.21c-3.25,0-5.89-.16-5.89,1.36s2.64,2.76,5.89,2.76,5.89-1.23,5.89-2.76S78.25,45.21,75,45.21Z"/></svg>