<svg id="Layer_2" data-name="Layer 2" xmlns="http://www.w3.org/2000/svg" viewBox="0 0 150 150"><defs><style>.cls-1,.cls-3{fill:none;stroke:#231f20;stroke-miterlimit:10;}.cls-1{stroke-width:8px;}.cls-2{fill:#231f20;}.cls-3{stroke-width:4px;}</style></defs><title>Opiyel guobiran  symbol-bold</title><path class="cls-1" d="M96.92,48.09C96.92,58.31,88,66.6,77,66.6S57,58.31,57,48.09c0-6.57,3.76-12.25,9.26-15.63,1.79-1.09-3.37-8.3.57-8.3,1.67,0,18.77-.35,20.32,0,2.13.49-1.22,7.27.58,8.34A18.21,18.21,0,0,1,96.92,48.09Z"/><path class="cls-1" d="M61.26,59.53C48.93,64.84,65.15,63,52.57,89.15s-1.21,25.26-1.21,25.26l9.9-1.45"/><ellipse class="cls-2" cx="71.85" cy="44.97" rx="5.7" ry="4.03"/><ellipse class="cls-2" cx="84.6" cy="45.3" rx="4.25" ry="5.41" transform="matrix(0.79, -0.62, 0.62, 0.79, -9.92, 61.9)"/><ellipse class="cls-2" cx="78.1" cy="55.99" rx="8.51" ry="3.54"/><path class="cls-3" d="M57,51.18c-3.13,0-8.16-2.35-8.16-5.24s5-5.24,8.16-5.24"/><path class="cls-3" d="M96.13,51.18c3.12,0,8.16-2.35,8.16-5.24s-5-5.24-8.16-5.24"/><line class="cls-1" x1="63.63" y1="33.89" x2="90.62" y2="33.69"/><path class="cls-3" d="M47,110.78c-5,1.63-8,3.72-8,6,0,5.22,15.86,9.46,35.42,9.46s35.41-4.24,35.41-9.46c0-2.61-4-5-10.37-6.69l-3.28-.88"/><path class="cls-1" d="M69.35,63.5v48.21a5.06,5.06,0,0,1-5,5H63a5.06,5.06,0,0,1-5-5V63.5"/><path class="cls-3" d="M84.18,108.87c0,2.78-2.94,5-6.54,5H75.89c-3.6,0-6.54-2.27-6.54-5"/><path class="cls-3" d="M69.35,80.9c0-2.78,2.94-5.05,6.54-5.05h1.75c3.6,0,6.54,2.27,6.54,5.05"/><path class="cls-1" d="M93,59.1l2.25,3.78a2.7,2.7,0,0,1,.37,1.36v47c0,3.28-2.27,5.55-5,5.55H89.22a5.06,5.06,0,0,1-5-5V63.5"/></svg>