<svg id="Symbols" xmlns="http://www.w3.org/2000/svg" viewBox="0 0 150 150"><title>Trigonolito taino symbol - bold</title><path d="M119.51,97.32l-1.67-1.1L75.52,111.39l-.19.07a6.65,6.65,0,0,1-2.43.51h-.25a6.12,6.12,0,0,1-6.12-6.11,6.45,6.45,0,0,1,4.84-6c3.64-1.1,6.39-2,6.51-2.08l27.73-9.49-1.13-6.07a37.65,37.65,0,0,0-11.41-20.6A13.87,13.87,0,0,0,77.58,42.4C78.27,31.91,74.7,23.75,68,21.58c-3.75-1.2-16.61-3.21-24.66,21.61-3.07,9.49-4.54,25.93-5,42a45.6,45.6,0,0,0-10.28,8.69c-6.81,7.69-10.7,17-10.15,24.4a14,14,0,0,0,4.84,10c3,2.49,7.93,3.1,14.53,3.1,2.08,0,4.33-.07,6.73-.15l3.41-.1h70.41a14.24,14.24,0,0,0,13.9-10.5C133.93,112,127.24,102.42,119.51,97.32ZM27.88,122.08a6.05,6.05,0,0,1-2-4.44c-.39-5.2,2.82-12.47,8.16-18.51a40.7,40.7,0,0,1,4.16-4.06,256.49,256.49,0,0,0,1.26,28.21C34.84,123.36,29.27,123.24,27.88,122.08Zm23-76.42c3.83-11.82,9.43-18.13,14.6-16.46,3.09,1,5.12,7.67,3.63,16.37A49.92,49.92,0,0,0,47.36,66.76C48.09,58.37,49.24,50.85,50.92,45.66ZM124,118.56a6.3,6.3,0,0,1-6.15,4.5H47.68c-6.16-50.89,15.87-66.73,27.63-71.5l0,.06,2-.8h0c3.63-1.49,5.6-.44,7,.79a5.64,5.64,0,0,1,.66,8l-.18.22c-2.62,2.55-5.57,2.28-7.86,1.76l-1-.22a25,25,0,0,0-4.74-.73,13.65,13.65,0,0,0-13.64,14A13.81,13.81,0,0,0,70.83,87.88a13.65,13.65,0,0,0,14-13.64h-8a5.63,5.63,0,0,1-1.71,4.05,5.57,5.57,0,0,1-4.1,1.59,5.78,5.78,0,0,1-5.48-5.48,5.64,5.64,0,0,1,5.63-5.81c.57,0,2.38.41,3.06.55l.89.19c5.56,1.28,9.68.08,12.59-1.74A29.63,29.63,0,0,1,96.47,83L75.3,90.21s-2.74.94-6.24,2a14.36,14.36,0,0,0-10.53,13.65,14.13,14.13,0,0,0,14,14.11,14.32,14.32,0,0,0,5.75-1.07l38.38-13.76C121.66,109.06,124.93,114.9,124,118.56Z"/></svg>