<svg id="Layer_2" data-name="Layer 2" xmlns="http://www.w3.org/2000/svg" viewBox="0 0 150 150"><defs><style>.cls-1,.cls-3{fill:none;stroke:#231f20;stroke-miterlimit:10;}.cls-1{stroke-width:4px;}.cls-2{fill:#231f20;}.cls-3{stroke-width:8px;}</style></defs><title>Itiba tahuvava symbol-bold</title><circle class="cls-1" cx="107.21" cy="82.59" r="5.13"/><circle class="cls-1" cx="42.89" cy="82.59" r="5.13"/><circle class="cls-2" cx="56.72" cy="41.7" r="3.07"/><circle class="cls-2" cx="93.28" cy="41.7" r="3.07"/><path class="cls-3" d="M39.39,80.15s-9.57-19.31,8.87-28.44a.9.9,0,0,1,1.07,1.41c-4.86,5.19-10.87,15.62,3.88,27C71.93,94.52,75,94,75,94s3.18.52,21.89-13.89c14.76-11.37,8.75-21.8,3.89-27a.9.9,0,0,1,1.07-1.41c18.44,9.13,8.65,27.85,8.65,27.85"/><circle class="cls-2" cx="75" cy="73.43" r="2.23"/><path class="cls-3" d="M44.71,87.57V113s-4.35,15.84,2,16.61,19.72,0,19.72,0,9-7.3,0-16.3l-.07-23.3"/><path class="cls-3" d="M105.76,87.57V113s4.35,15.84-2,16.61-19.73,0-19.73,0-9-7.3,0-16.3l.1-24"/><path class="cls-1" d="M75,60.85c8.46,0,15.62-6,18.06-14.22.19-.65,2.12,2.88,4.82,1.14,5.22-3.38-1.82-9.15-1.61-10.57,1.61-11-4.54-4-8-7.68S82.59,20,75,20s-9.88,5.82-13.31,9.52-9.57-3.31-8,7.68c.21,1.42-6.83,7.19-1.61,10.57,2.7,1.74,4.63-1.79,4.82-1.14,2.44,8.25,9.6,14.22,18.06,14.22"/><circle class="cls-1" cx="75" cy="47.34" r="13.51"/><ellipse class="cls-2" cx="70.26" cy="44.77" rx="2.49" ry="3.34"/><ellipse class="cls-2" cx="79.74" cy="44.77" rx="2.49" ry="3.34"/><ellipse class="cls-2" cx="75" cy="52.75" rx="6.24" ry="2.04"/><line class="cls-1" x1="44.71" y1="113.04" x2="56.11" y2="113.04"/><line class="cls-1" x1="94.35" y1="113.04" x2="105.74" y2="113.04"/><path class="cls-1" d="M65,89.5a9.5,9.5,0,0,1,19,0"/></svg>