<svg id="Symbols" xmlns="http://www.w3.org/2000/svg" viewBox="0 0 150 150"><title>Boinayel taino symbol-bold</title><path d="M65.44,69.68c0,2.93,4.28,3,9.56,3s9.56-.11,9.56-3S80.28,65.43,75,65.43,65.44,66.75,65.44,69.68Z"/><path d="M80.41,62.59A4.39,4.39,0,0,0,86,59.77c.75-2.31,2-6-2.82-5.54-2.42.23-4.79.5-5.55,2.81A4.41,4.41,0,0,0,80.41,62.59Z"/><path d="M69.75,62.75a4.42,4.42,0,0,0,2.67-5.63c-.82-2.29-3.2-2.5-5.62-2.67-4.79-.34-3.49,3.33-2.67,5.62A4.41,4.41,0,0,0,69.75,62.75Z"/><path d="M99.34,105.36a6.17,6.17,0,0,1,.6-3.78c2.06-.18,6.45-1.25,9.37-6.89,4-7.62,1.18-12.11-.85-14.13.48-4.73-1.08-7.72-2.61-9.46a12.51,12.51,0,0,0-7-3.8,21.73,21.73,0,0,0,.29-2.83,7.86,7.86,0,0,0,2.29-2.66A8,8,0,0,0,94,50a27.2,27.2,0,0,0-4.43-4.27l2.74-13.25a8,8,0,0,0,3.84-7.25c-.28-3.1-2.63-5.57-6.28-6.62h0a71.79,71.79,0,0,0-14-1.76c-.2,0-.62,0-.93,0a8.36,8.36,0,0,0-.93,0,71.79,71.79,0,0,0-14,1.76c-3.66,1.05-6,3.53-6.29,6.64a8.13,8.13,0,0,0,4,7.35L61.47,45A26.94,26.94,0,0,0,56,50a8,8,0,0,0-7.39,11.81,7.86,7.86,0,0,0,2.29,2.66,23.37,23.37,0,0,0,.39,3.45c-3.1,1-7.14,3.2-9.29,7.53C39.2,81,40.43,88.15,45.59,96.71a20.72,20.72,0,0,0,4.1,8.37c-6,3-9.71,7.14-9.71,11.16C40,125.22,55,132,75,132s35-6.78,35-15.76C110,111.76,106.09,107.82,99.34,105.36Zm-8,.91a28.46,28.46,0,0,0,1.32,6.16c.48,1.5,0,2-.39,2.27-1.89,1.66-6.61,2-9.55.62-1.85-.85-1.84-1.77-1.83-2.07,0-2.21.85-2.6,2-3.13.27-.13.5-.24.68-.35,4.07-2.26,3.31-8.55,2.64-14.09-.09-.72-.18-1.47-.2-1.79-.09-1.9.07-4.41,1.42-5.49a2.14,2.14,0,0,1,.39-.24l0,.18a12.5,12.5,0,0,0,3,9.63,10.73,10.73,0,0,0,1.41,1.29A15.51,15.51,0,0,0,91.38,106.27ZM75.08,30.32l7.21,11.3L82,42.88l-6.27-.18H74.25c-2.13.06-3.8.11-5.06.16l-.47-1.59ZM66.93,51c1,0,3.37-.14,7.54-.25h1.07l7.46.21c2.36,1.41,10.13,6.88,7.65,16.58-3.27,1.26-5.1,4.3-6,5.78l-.24.39c-1.93,3.24-2.82,4.71-9.59,4.6l-1.79,0c-4.87-.23-5.75-1.69-7.46-4.57l-.24-.39c-.89-1.48-2.72-4.52-6-5.78C56.89,57.92,64.35,52.5,66.93,51ZM78.42,97.87a35.65,35.65,0,0,1,.3,5.39,11.85,11.85,0,0,0-1.46.91A39.71,39.71,0,0,0,78.42,97.87Zm-9.24,2.35a12.45,12.45,0,0,0,0-5,12.24,12.24,0,0,0-7.31-8.9,3,3,0,0,1,.48-.18c3-.67,6.54,0,7.6,3.81a22,22,0,0,1-.08,10.51Zm-11.1-6.73h0a4.24,4.24,0,0,1,3.3,3.28,4.3,4.3,0,0,1-.88,3.59,4.24,4.24,0,0,1-2.91,1.53,14.23,14.23,0,0,1-4.06-6.35A4.21,4.21,0,0,1,58.08,93.49Zm2,16.07a12.05,12.05,0,0,0,4.66-2.23c5.2,1.08,5.67,2.7,5.9,3.52a3.4,3.4,0,0,1-.66,3.24A5.62,5.62,0,0,1,65.25,116c-2.39-.16-4-.8-4.68-1.91A6.81,6.81,0,0,1,60.08,109.56ZM78.21,90.12a21,21,0,0,0-.5-2.28,12.93,12.93,0,0,0-.55-1.59h1.6V86.1l.66-.08A14.13,14.13,0,0,0,78.21,90.12Zm24,.88c-1.32,2.54-2.83,2.62-3,2.62h0a3.21,3.21,0,0,1-2.48-1,4.51,4.51,0,0,1-1-3.47,4.23,4.23,0,0,1,3.37-3.88,5.33,5.33,0,0,1,.88-.08,4.18,4.18,0,0,1,2.68,1C103.89,87.08,103.09,89.31,102.21,91Zm-1.92-13.84a12.68,12.68,0,0,0-2.67.23,12,12,0,0,0-5.11,2.31,18.82,18.82,0,0,0-2.37-.12c.4-.58.78-1.18,1.15-1.81l.23-.38c1-1.66,1.72-2.46,2.22-2.46h1.85c1.33.06,3.3.38,4.26,1.46A2.66,2.66,0,0,1,100.29,77.16ZM84.79,29.57,83.45,36l-7.1-11.13a67.64,67.64,0,0,1,10.92,1.31A5,5,0,0,0,84.79,29.57ZM73.61,24.88,67.16,36l-2-6.79a5,5,0,0,0-2.43-3A67.63,67.63,0,0,1,73.61,24.88ZM49.11,79c1.54-3.16,6.16-4,7-4.11h.16c.5,0,1.23.8,2.22,2.46l.23.38.6,1a10.88,10.88,0,0,0-6.72,7.59A12.4,12.4,0,0,0,50,87.79C48.42,84.1,48.11,81.07,49.11,79ZM75,128c-18.28,0-31-6.2-31-11.76,0-2.53,3.29-5.61,8.2-7.92a14.36,14.36,0,0,0,1.63,10c1.48,2.33,4.57,5.19,10.91,5.61.33,0,.64,0,1,0a13.51,13.51,0,0,0,9.85-4.15,12.59,12.59,0,0,0,3.88,2.74,19.06,19.06,0,0,0,7.76,1.59,15.81,15.81,0,0,0,10.44-3.49,9.72,9.72,0,0,0,2.74-10.58c4.09,2,5.67,4.37,5.67,6.13C106,121.8,93.28,128,75,128Z"/></svg>