<svg id="Symbols" xmlns="http://www.w3.org/2000/svg" viewBox="0 0 150 150"><title>Taino sun symbol-bold</title><circle cx="68.75" cy="71.93" r="4.75"/><circle cx="81.5" cy="71.93" r="4.75"/><path d="M124.51,66.24,96,64.26a24.05,24.05,0,0,0-4.77-6.36L104,35.48l-7-4L84.56,53.44a23.31,23.31,0,0,0-5.75-1.72V20.25h-8V51.79a23.43,23.43,0,0,0-9,3.68L55.72,48.9a10.6,10.6,0,1,0-6,5.31L56,61a23.45,23.45,0,0,0-3.14,5.81L23.54,65,23,73l28.38,1.81V75A23.32,23.32,0,0,0,53,83.54L35.86,96.29l4.78,6.42L57.17,90.42a23.51,23.51,0,0,0,3.95,3.64L40.19,125l6.62,4.48L68.36,97.63a23,23,0,0,0,2.76.64V130h8V98.22a22.58,22.58,0,0,0,5.3-1.6l8.91,20.48,7.34-3.2L91.19,92.14a23.6,23.6,0,0,0,4.9-6.6l24,9,2.82-7.49-24.5-9.19A22.68,22.68,0,0,0,98.59,75a23.92,23.92,0,0,0-.14-2.55L124,74.22ZM75,59.41A15.59,15.59,0,1,1,59.41,75,15.6,15.6,0,0,1,75,59.41ZM46.25,46.81a2.57,2.57,0,1,1,2.57-2.57A2.57,2.57,0,0,1,46.25,46.81Z"/></svg>