<svg id="Symbols" xmlns="http://www.w3.org/2000/svg" viewBox="0 0 150 150"><title>Taino sun symbol 1 -bold</title><circle cx="65.25" cy="59.46" r="4.54" transform="translate(-8.68 11.22) rotate(-9.22)"/><path d="M75.35,110.42A4.55,4.55,0,1,0,79.89,115,4.55,4.55,0,0,0,75.35,110.42Z"/><circle cx="43.35" cy="100.03" r="4.54" transform="translate(-65.65 101.8) rotate(-67.5)"/><circle cx="35.66" cy="63.7" r="4.54"/><circle cx="64.2" cy="35.38" r="4.54"/><path d="M105.1,94.08a4.55,4.55,0,1,0,4.55-4.55A4.55,4.55,0,0,0,105.1,94.08Z"/><circle cx="85.44" cy="59.46" r="4.54" transform="translate(-8.42 14.45) rotate(-9.22)"/><path d="M109.08,73.51A34.39,34.39,0,0,0,108,65.8a30.8,30.8,0,0,0,8.34-14.15c1.41-5.84.27-11.27-3.12-14.89-6.73-7.18-19.87-5.43-30,3.94A31.08,31.08,0,0,0,75,25.36c-4.3-4.19-9.55-6-14.4-4.9C51,22.61,45.76,34.94,48.8,48.58l.15.64c-12.58-3.27-24.29.85-27.14,9.85-1.51,4.73-.19,10.12,3.6,14.78a29.86,29.86,0,0,0,11.16,8.2c-8.08,9.16-10.33,21.5-4.55,28a14.81,14.81,0,0,0,11.45,4.75,27.12,27.12,0,0,0,14.2-4.49C60,121.9,67.48,130.1,76,130.09a12.18,12.18,0,0,0,1.47-.08c9.55-1,16-12.11,14.92-25.41A31.91,31.91,0,0,0,107,108.43c.67,0,1.32,0,2-.08,6-.49,10.79-3.26,13.17-7.62C126.8,92.11,121.08,80.22,109.08,73.51Zm-8,1a26.56,26.56,0,1,1-53.11,0c0-.79,0-1.58.11-2.36a87.82,87.82,0,0,0,25.83,3.62A110.73,110.73,0,0,0,101,72.3C101.06,73,101.1,73.75,101.1,74.49Zm-1.95-10C74.59,70.7,56.28,66.31,50,64.33a26.56,26.56,0,0,1,49.14.18ZM82.86,41l.2,0,.11.12Zm24.51,1.28c2.08,2.22,1.64,5.68,1.19,7.54a21.27,21.27,0,0,1-3.93,7.76A34.7,34.7,0,0,0,91.42,44.35C97,40.46,104.08,38.73,107.37,42.23Zm-45-14c3-.65,5.71,1.49,7.09,2.82a22.14,22.14,0,0,1,5.23,8.85h-.15a34.36,34.36,0,0,0-18.25,5.23C55.16,37.75,57.19,29.42,62.37,28.27ZM31.61,68.8c-1.21-1.49-3.1-4.41-2.18-7.31,1.47-4.64,8.75-6.1,15.58-4.92a34.31,34.31,0,0,0-5,17.92v.32A22.21,22.21,0,0,1,31.61,68.8Zm6.4,36c-2.7-3-1-11,4.49-17.36a34.81,34.81,0,0,0,12.14,15.3C48.82,106.75,41.31,108.51,38,104.78Zm38.57,17.28c-5.33.58-10-6.8-11.25-14.27a34.36,34.36,0,0,0,19.13-.2C84.32,114.57,81.45,121.52,76.58,122.06Zm38.5-25.17c-1.46,2.67-4.88,3.33-6.79,3.48A21.6,21.6,0,0,1,99,98.84a34.48,34.48,0,0,0,9.12-16.37C113.57,86.58,117.37,92.7,115.08,96.89Z"/><path d="M61.61,87.33c0,4.66,6.73,7.1,13.39,7.1S88.39,92,88.39,87.33,81.66,80.24,75,80.24,61.61,82.67,61.61,87.33ZM75,84.24c6.1,0,9.39,2.19,9.39,3.09s-3.29,3.1-9.39,3.1-9.39-2.2-9.39-3.1S68.9,84.24,75,84.24Z"/></svg>