<svg id="Layer_2" data-name="Layer 2" xmlns="http://www.w3.org/2000/svg" viewBox="0 0 150 150"><defs><style>.cls-1,.cls-3{fill:none;stroke:#231f20;stroke-miterlimit:10;}.cls-1{stroke-width:8px;}.cls-2{fill:#231f20;}.cls-3{stroke-width:4px;}</style></defs><title>Moon goddess symbol-bold</title><polyline class="cls-1" points="88.72 101.49 76.5 101.61 61.28 101.75"/><path class="cls-1" d="M39.56,102l-12.92.12a50.66,50.66,0,1,1,97-.92l-13.39.13"/><path class="cls-1" d="M29.81,64s23.14-18.68,45,3.82c0,0,22.12-19.66,47.12,0"/><path class="cls-1" d="M60.94,99.68c0,6-4.85,7-10.83,7s-10.84-1-10.84-7a10.84,10.84,0,0,1,21.67,0Z"/><path class="cls-1" d="M110.39,99.67c0,6-4.85,7-10.84,7s-10.83-1-10.83-7a10.84,10.84,0,1,1,21.67,0Z"/><ellipse class="cls-2" cx="74.81" cy="92.34" rx="5.86" ry="3.14"/><ellipse class="cls-3" cx="97.99" cy="73.7" rx="11.53" ry="5.86"/><ellipse class="cls-3" cx="50.11" cy="73.7" rx="11.53" ry="5.86"/><circle class="cls-2" cx="75.55" cy="51.15" r="4.22"/><circle class="cls-2" cx="81" cy="54.34" r="2.47"/><circle class="cls-2" cx="70.11" cy="48.01" r="2.47"/><circle class="cls-2" cx="70.1" cy="54.31" r="2.47"/><circle class="cls-2" cx="81.01" cy="48.03" r="2.47"/><circle class="cls-2" cx="75.55" cy="44.88" r="2.47"/><circle class="cls-2" cx="75.55" cy="57.47" r="2.47"/><path class="cls-1" d="M61.63,58.76S75.55,63.44,75,86"/></svg>