<svg id="Symbols" xmlns="http://www.w3.org/2000/svg" viewBox="0 0 150 150"><title>Behique taino symbol-bold</title><path d="M70.87,52.8c2-2.22,5.1-5.77-.47-7.56-2.82-.9-5.6-1.74-7.56.47a5.36,5.36,0,1,0,8,7.09Z"/><path d="M86.86,53.28a5.36,5.36,0,0,0,.47-7.57c-2-2.21-4.74-1.37-7.56-.47C74.2,47,77.34,50.58,79.3,52.8A5.36,5.36,0,0,0,86.86,53.28Z"/><path d="M69,64.64a117,117,0,0,1,12.24-.57c5.72.12,4.92-4.69,4.92-4.69H63.8C63.92,65.1,69,64.64,69,64.64Z"/><path d="M102.42,108.44l.73-12.17c4.54-2.42,13.18-9.11,12.78-24.81-.16-6.28-1.83-10.79-5-13.42a11.29,11.29,0,0,0-9.26-2.28c-1,.15-2.8.6-4.57,1.07a23.86,23.86,0,0,0,.4-4.06,9.55,9.55,0,1,0,.08-17.66c-.84-7-7-19.11-23-19.11C57.5,16,52.81,29.14,52.29,35.12a9.43,9.43,0,0,0-3.6-.71,9.55,9.55,0,1,0,0,19.09,9.42,9.42,0,0,0,3.71-.75,21.89,21.89,0,0,0,.42,4.07c-1.76-.46-3.57-.91-4.52-1.06A11.29,11.29,0,0,0,39,58c-3.14,2.63-4.81,7.14-5,13.42-.4,15.7,8.24,22.39,12.78,24.81l.73,12.16A8.4,8.4,0,0,0,43,110.88,8.17,8.17,0,0,0,40.78,117c.38,7.69,4.26,13.26,10.93,15.69a12.22,12.22,0,0,0,4.17.71H94.07a12.27,12.27,0,0,0,4.18-.71c6.66-2.43,10.54-8,10.92-15.69a8.17,8.17,0,0,0-2.26-6.09A8.41,8.41,0,0,0,102.42,108.44Zm-33.56-.65v-5.7a5.65,5.65,0,0,0,6.16-.77,5.63,5.63,0,0,0,3.66,1.35,5.49,5.49,0,0,0,2.46-.57v5.69Zm-8-5.51H55.22l-.37-6.19A9.77,9.77,0,0,1,60.56,96a.53.53,0,0,1,.3.5Zm0,4v5a9.16,9.16,0,0,1-5.08.24l-.32-5.29Zm2.37-17.87a14.86,14.86,0,0,0-4.09-.78c-3.54-7.84-3.12-12-2.5-13.8a4.14,4.14,0,0,1,1.76-2.37l2.51-.95A34.37,34.37,0,0,0,69.68,76,7.76,7.76,0,0,0,71,88.34v3a5.61,5.61,0,0,0-3.09,1.17A8.43,8.43,0,0,0,63.23,88.41ZM56.78,49a9.43,9.43,0,0,0,1.46-5c0-.27,0-.52,0-.78l.15.19c9.37-7.67,22.64-7.44,33,.58l.29-.37c0,.13,0,.25,0,.38a9.55,9.55,0,0,0,1.64,5.34c.54,2.45,2.81,17.24-18.36,24.51C54.06,66.61,56.25,51.53,56.78,49ZM71.36,95.35A1.66,1.66,0,1,1,69.7,97,1.67,1.67,0,0,1,71.36,95.35Zm7.32,0A1.66,1.66,0,1,1,77,97,1.67,1.67,0,0,1,78.68,95.35ZM75,77.9a3.79,3.79,0,1,1-3.79,3.79A3.79,3.79,0,0,1,75,77.9ZM58.38,71.47l-.08,0Zm23.72,21A5.62,5.62,0,0,0,79,91.37v-3A7.75,7.75,0,0,0,80.32,76a34.81,34.81,0,0,0,8.79-5.48l2.49.94a4.14,4.14,0,0,1,1.76,2.37c.62,1.82,1,6-2.5,13.8a14.86,14.86,0,0,0-4.09.78A8.44,8.44,0,0,0,82.1,92.52Zm13.05,3.57-.37,6.19H89.14V96.45a.53.53,0,0,1,.3-.5A9.77,9.77,0,0,1,95.15,96.09Zm-6,10.19h5.4l-.32,5.29a9.16,9.16,0,0,1-5.08-.24Zm13.78-42.61c1.94-.3,2.67.31,2.91.51,1.24,1,2,3.77,2.11,7.48.29,11.45-5.71,16-8.47,17.53L99,89c3-7.4,3.61-13.56,1.73-18.34a12.28,12.28,0,0,0-4-5.42C99.12,64.57,102,63.8,102.92,63.67Zm-8.3.39-.08,0h0a.83.83,0,0,0,.07-.13ZM106.75,44a5.55,5.55,0,1,1-5.55-5.55A5.55,5.55,0,0,1,106.75,44ZM74.62,24c8.89,0,12.79,5.23,14.29,9.12a33.71,33.71,0,0,0-27.86-.69C62.36,28.84,65.77,24,74.62,24ZM54.5,36.22l-.11.09-.12-.09ZM43.14,44a5.55,5.55,0,1,1,5.55,5.54A5.55,5.55,0,0,1,43.14,44ZM55.51,64l0,0-.09,0,0-.2ZM42.06,71.66c.1-3.71.87-6.44,2.11-7.48.24-.2,1-.81,2.91-.51.88.13,3.8.9,6.26,1.57a12.28,12.28,0,0,0-4.05,5.42C47.41,75.44,48,81.6,51,89l-.49.19C47.77,87.7,41.77,83.14,42.06,71.66Zm53.45,53.48a4.26,4.26,0,0,1-1.44.23H55.88a4.31,4.31,0,0,1-1.44-.23c-1.32-.48-5.34-1.94-5.67-8.57a.22.22,0,0,1,.07-.18.41.41,0,0,1,.21-.1,6.93,6.93,0,0,0,3.7,2.74,17.8,17.8,0,0,0,5.21.79,16.85,16.85,0,0,0,6.6-1.35,7.09,7.09,0,0,0,3.16-2.68H82.28a7.09,7.09,0,0,0,3.16,2.68,16.67,16.67,0,0,0,6.6,1.35,18,18,0,0,0,5.22-.79,7,7,0,0,0,3.68-2.73.38.38,0,0,1,.17.09c.08.09.08.15.07.18C100.85,123.2,96.83,124.66,95.51,125.14Z"/></svg>