<svg id="Layer_2" data-name="Layer 2" xmlns="http://www.w3.org/2000/svg" viewBox="0 0 150 150"><defs><style>.cls-1{fill:#231f20;}</style></defs><title>Fuerza symbol-bold</title><path class="cls-1" d="M73,80.85l0-1.29,0,1.29c-3.77-.13-7.49-2.14-10.77-5.82C57,69.25,53.52,60,54,53.41A19.12,19.12,0,0,1,56.39,45c2.2-3.88,6.86-8.51,16.61-8.51,14.14,0,18.61,11,19,16.87.52,6.54-3,15.86-8.18,21.66C80.53,78.71,76.81,80.72,73,80.85ZM73,40.5c-6.28,0-10.7,2.18-13.13,6.49A15,15,0,0,0,58,53.5v.16c-.37,4.72,2.27,13.21,7.17,18.71,1.76,2,4.53,4.32,7.83,4.48,3.3-.16,6.07-2.52,7.83-4.48,4.9-5.5,7.54-14,7.17-18.71C88,53.1,86.88,40.5,73,40.5Z"/><path class="cls-1" d="M46.89,43.43,43.17,42l5-12.59a12.11,12.11,0,0,1,15.7-6.76c.31.13.62.26.92.41L63,26.59l-.62-.28a8.12,8.12,0,0,0-10.5,4.53Z"/><path class="cls-1" d="M38.57,98.25A12.07,12.07,0,0,1,27.36,81.7L38.29,54.22,42,55.7,31.07,83.18a8.08,8.08,0,1,0,15,6l10.15-25.5L60,65.14,49.81,90.63A12.11,12.11,0,0,1,38.57,98.25Z"/><path class="cls-1" d="M42.36,114l-7.49-2.81c2-5.4,5.32-9,9.83-10.63,4.74-1.74,9.59-.84,12.88.25C59,95.56,59,85,54.24,70.5L61.84,68c1,2.94,9.14,29,1,40.32l-2.08,2.91-3.12-1.75c-1.57-.86-6.49-2.81-10.24-1.42C45.19,108.9,43.54,110.84,42.36,114Z"/><path class="cls-1" d="M47.94,136.14A21.12,21.12,0,0,1,41.09,135a19.77,19.77,0,0,1-9.87-7.24,12,12,0,0,1,6.58-19.09A19.68,19.68,0,0,1,50,109a19.69,19.69,0,0,1,9.87,7.24,12.05,12.05,0,0,1-6.57,19.1A17.8,17.8,0,0,1,47.94,136.14Zm-4.76-20.3a9.85,9.85,0,0,0-3,.43,4.12,4.12,0,0,0-2.39,6.93,12.67,12.67,0,0,0,13.11,4.51,4.12,4.12,0,0,0,2.39-6.93,11.84,11.84,0,0,0-5.88-4.21A13.06,13.06,0,0,0,43.18,115.84Z"/><path class="cls-1" d="M57.65,131.72a10.85,10.85,0,0,1-2.31-.23l.87-3.91c.2,0,4.93,1,6.78-2.86l3.61,1.73A9.5,9.5,0,0,1,57.65,131.72Z"/><path class="cls-1" d="M76.72,134.33a7.09,7.09,0,0,1-3.5-.92,7.15,7.15,0,0,1-7.33-12.28v-2.8a7.33,7.33,0,1,1,14.66,0v2.8a7.15,7.15,0,0,1-3.83,13.2Zm-3.5-6.11,1.36,1.26a3.13,3.13,0,0,0,2.14.85,3.15,3.15,0,0,0,1.12-6.11l-1.29-.49v-5.4a3.33,3.33,0,1,0-6.66,0v5.4l-1.29.49a3.13,3.13,0,0,0-2,3,3.16,3.16,0,0,0,5.31,2.31Z"/><path class="cls-1" d="M101.8,131.3c-2.69,0-5.4-.05-8.06-.1-4.2-.08-8.17-.16-11.71,0l-.29-8c3.77-.13,7.84-.06,12.16,0,13.26.26,29.76.59,31-7a1.87,1.87,0,0,0-.49-1.8c-2.36-2.52-13.62-5.26-31.26-3.47l-4.09.41-.3-4.1c-.14-1.94-1.32-19.18,1-26.08,2-6,12.93-13.55,21.71-18.87a8.19,8.19,0,0,0,2.4-2.1c.8-1.08,2.46-3.35-2-7.24-9.19-8.08-30.88-19.31-31.09-19.42l3.66-7.11c.93.48,22.79,11.8,32.71,20.53,6.22,5.46,7.39,12.18,3.14,18a16.1,16.1,0,0,1-4.7,4.2c-11,6.67-17.53,12.4-18.29,14.61-1.14,3.33-1.16,12.13-.86,18.89,8.89-.56,27.12-.76,33.73,6.31a9.75,9.75,0,0,1,2.55,8.59C130.78,129.7,116.54,131.3,101.8,131.3Z"/><path class="cls-1" d="M76.12,40.18a10.64,10.64,0,0,1-4.69-1.1l-5.83-2.9a10.58,10.58,0,0,1,9.4-19l5.84,2.9a10.58,10.58,0,0,1-4.72,20.06Zm-5.79-16A2.58,2.58,0,0,0,69.15,29L75,31.91a2.61,2.61,0,0,0,3.46-1.17,2.59,2.59,0,0,0,.13-2,2.56,2.56,0,0,0-1.3-1.49l-5.83-2.89A2.48,2.48,0,0,0,70.33,24.13Z"/><path class="cls-1" d="M44.73,60.48a10.43,10.43,0,0,1-4.68-1.1h0l-5.84-2.9A7,7,0,0,1,30.16,49a19.57,19.57,0,0,1,2.16-5.88,14.65,14.65,0,0,1,3.37-5c1.26-1.06,4-2.55,7.93-.59l5.83,2.9A10.6,10.6,0,0,1,54.23,54.6,10.6,10.6,0,0,1,44.73,60.48ZM43.6,52.21A2.6,2.6,0,0,0,47.06,51a2.52,2.52,0,0,0,.13-2,2.59,2.59,0,0,0-1.29-1.5l-5.48-2.72c-.31.53-.66,1.25-.93,1.79a25.5,25.5,0,0,0-1.28,2.88Z"/><path class="cls-1" d="M88.71,66.78l-2.19-3.35L96.7,56.79,86.13,47.42l2.65-3,11.67,10.34a2.62,2.62,0,0,1,0,4.39Zm9.53-11,0,0Z"/><ellipse class="cls-1" cx="80" cy="55.25" rx="4.88" ry="4.08"/><ellipse class="cls-1" cx="66" cy="55.25" rx="4.88" ry="4.08"/><ellipse class="cls-1" cx="73" cy="66.29" rx="8.25" ry="4.29"/><path class="cls-1" d="M89.42,93.09a16.16,16.16,0,0,1-10.3-3.31c-5.44-4.29-6.2-11.16-6.23-11.45l4-.42c0,.06.65,5.53,4.76,8.76,2.63,2.06,6.19,2.81,10.57,2.23l.53,4A25.43,25.43,0,0,1,89.42,93.09Z"/><path class="cls-1" d="M93.19,84c-9.3,0-12.38-6.83-12.7-10.52l4-.36c.07.73,1,7.19,9.27,6.86l.15,4Z"/><path class="cls-1" d="M62,91.58h-.12l.05-4,0,2v-2c.88,0,8.13-.22,8.67-8.53l4,.26C73.94,89,66.14,91.58,62,91.58Z"/><circle class="cls-1" cx="73.22" cy="96.25" r="3.36"/><rect class="cls-1" x="74.71" y="35.76" width="4" height="4.41" transform="translate(2.32 80.3) rotate(-55.97)"/></svg>