<svg id="Symbols" xmlns="http://www.w3.org/2000/svg" viewBox="0 0 150 150"><title>Potiza taino symbol -bold</title><path d="M96,71.81A5.84,5.84,0,0,0,93.38,61l1.87-3.87c3.12-2.75,5.18-9,5.43-12.08.35-4.31-1.73-6.19-3-6.92-2.73-1.57-5.33-1.13-7.73,1.3l-.22.22c-1.78-.26-6-.86-10.91-1.1v-8.4a6.63,6.63,0,1,0-8,0v8.41q-4.92.24-10.61,1c-2.62-3.5-5.7-3.14-7.85-2.19-1.09.48-3.62,2.08-3.5,6.53.09,3.43,2.24,10.3,5.51,13.2L56.26,61A5.84,5.84,0,0,0,53.6,71.82,29.28,29.28,0,0,0,48.48,110l15.86,23.4H85.23l15.89-23.45a29.2,29.2,0,0,0,4.82-16.06A29.51,29.51,0,0,0,96,71.81ZM75,81a2.82,2.82,0,1,1-2.82,2.82A2.82,2.82,0,0,1,75,81ZM94.76,66.82A1.85,1.85,0,1,1,92.91,65,1.85,1.85,0,0,1,94.76,66.82Zm-20-44.58a2.64,2.64,0,1,1-2.63,2.64A2.64,2.64,0,0,1,74.81,22.24ZM59.43,47.72a7.45,7.45,0,0,0,1-.1A105.44,105.44,0,0,1,75,46.45h0a101.37,101.37,0,0,1,13.75,1.14,6.59,6.59,0,0,0,1.33.13,7.55,7.55,0,0,0,1.86-.29,14.85,14.85,0,0,1-1.79,3.51l-1,.36L78.43,73.59A10.82,10.82,0,0,0,75,73a10.6,10.6,0,0,0-3.58.62L60.4,51.3l-.95-.36a14.46,14.46,0,0,1-1.71-3.45A6.33,6.33,0,0,0,59.43,47.72ZM56.63,65a1.85,1.85,0,1,1-1.85,1.85A1.85,1.85,0,0,1,56.63,65Zm37.83,40.51L81,125.37H68.58L55.14,105.53a21.16,21.16,0,0,1-3.51-11.67,21.88,21.88,0,0,1,11.45-19l2.16,4.37a10.75,10.75,0,0,0,.15,9.61,21.49,21.49,0,0,0-3.15,8.54,4.78,4.78,0,1,0,4,.49A19,19,0,0,1,68,92.13a10.81,10.81,0,0,0,13.91,0,18.69,18.69,0,0,1,1.83,5.7,4.8,4.8,0,1,0,4-.49,21.55,21.55,0,0,0-3.15-8.54,10.76,10.76,0,0,0,1.21-5,10.61,10.61,0,0,0-1.14-4.8l2-4.12A21.86,21.86,0,0,1,97.94,93.86,21.17,21.17,0,0,1,94.46,105.48Zm-30-3.58a.8.8,0,1,1-.8-.8A.8.8,0,0,1,64.48,101.9Zm22.62,0a.8.8,0,1,1-.8-.8A.8.8,0,0,1,87.1,101.9Z"/></svg>