<svg id="Symbols" xmlns="http://www.w3.org/2000/svg" viewBox="0 0 150 150"><title>Dimivan caracaracol taino symbol - bold</title><path d="M79.1,80.66a3.94,3.94,0,0,0-7.88,0v2a4.15,4.15,0,0,0-1.15,2.8,5,5,0,0,0,10,0,4.06,4.06,0,0,0-1-2.61Z"/><rect x="70.09" y="37.33" width="10.15" height="3.12" rx="1.07"/><path d="M82.79,33c2.2-2.51-1.42-5.49-3-3.45A18.29,18.29,0,0,1,76.19,33s-.94,1.26,0,2.2S80.59,35.52,82.79,33Z"/><path d="M73.79,35.2c.94-.94,0-2.2,0-2.2a18.29,18.29,0,0,1-3.61-3.45c-1.57-2-5.18.94-3,3.45S72.85,36.14,73.79,35.2Z"/><path d="M78.42,130.3l32.78.08-6.16-13v-15a10.8,10.8,0,0,0-3.89-17.67l4.5-11.56L98.2,63.38a13,13,0,0,0,3-8C101.4,51,99.91,45.54,96.1,44a5.75,5.75,0,0,0-6.66,1.9c-.93,1.08-3.35.16-5.17-.84a21.76,21.76,0,0,0,1.91-4.17,5.11,5.11,0,0,0,3.7-2.08,4.77,4.77,0,0,0,.2-5.06c-.21-.41-.21-.52,0-1.54a13.1,13.1,0,0,0,.47-3.9c-.09-2.71-1-4.48-2.6-5.28a4.9,4.9,0,0,0-4.09.12,12.6,12.6,0,0,0-9-4.22,13,13,0,0,0-9.07,4.13A4.76,4.76,0,0,0,62,23c-1.64.8-2.52,2.57-2.6,5.28a13.17,13.17,0,0,0,.46,3.9c.26,1,.26,1.13,0,1.54a4.82,4.82,0,0,0,.2,5.06,5.16,5.16,0,0,0,3.76,2.09A24.89,24.89,0,0,0,65.77,45c-1.92,1.17-4.6,2.31-5.52,1.24a5.75,5.75,0,0,0-6.66-1.9c-3.81,1.53-5.3,7-5.07,11.36a12.9,12.9,0,0,0,3,8L44,73.48,48.54,85a10.8,10.8,0,0,0-4,17.59v14.73l-6.17,13,32.78-.08-4.78-12.76V102.43c2.78-2,9.48-5.59,16.79,0v15.14ZM66.07,30.67a9.88,9.88,0,0,1,1.92-4,9.25,9.25,0,0,1,6.9-3.7,8.75,8.75,0,0,1,6.42,3.29,10.26,10.26,0,0,1,2.32,8.35c-.75,4.59-2.9,12.29-8.74,12.29-4,0-6.82-4.07-8.76-12.42a9.13,9.13,0,0,1-.22-1.66Zm-6.41,67-1.25,1.18V119l1.25,3.34-8.59,0,1.51-3.19V98a3,3,0,0,1-3-2.82,2.83,2.83,0,0,1,2.82-2.83h.1l5.84,2.41,3-7.4-4-1.64L53.12,74.76l5.65-7.4,2,.54L59.63,81.69l2.43,3.79,6.73-4.33-1-1.5,1.48-17.73-11-3c-.27-.08-1-.29-1.48-1.75a8.58,8.58,0,0,1-.25-3.74c2.16,1.25,5.42,1.94,10,.07A24.71,24.71,0,0,0,72,50.42a9.38,9.38,0,0,0,2.87.45,10.37,10.37,0,0,0,2.93-.42,24.39,24.39,0,0,0,5.39,2.95c4.54,1.72,7.75,1,9.89-.26a8.39,8.39,0,0,1-.26,3.73c-.47,1.46-1.2,1.67-1.42,1.73l-11,3,1.48,17.73-1,1.49,6.73,4.33,2.43-3.78-1.15-13.8,2-.54,5.65,7.4L92.32,85.36l-4,1.64,3.05,7.4L97.21,92h.09a2.83,2.83,0,0,1,2.83,2.82A3.07,3.07,0,0,1,97,97.64v21.52l1.5,3.19-8.59,0L91.2,119V98.76l-1.31-1.19C77.7,86.51,64.78,92.77,59.66,97.63Z"/></svg>