<svg id="Layer_2" data-name="Layer 2" xmlns="http://www.w3.org/2000/svg" viewBox="0 0 150 150"><title>Taino snail  symbol-bold</title><path d="M112.43,54.44h0a23.06,23.06,0,0,0-14.31,4.81c-3.41,2.74-7.48,7.92-7.49,17h0a31.65,31.65,0,0,1-63.3,0h0a25.71,25.71,0,1,1,51.41,0h0a19.77,19.77,0,0,1-39.53,0h0a13.82,13.82,0,1,1,27.64,0h0a7.88,7.88,0,0,1-15.76,0h0a1.94,1.94,0,1,1,3.88,0h8a9.94,9.94,0,1,0-19.88,0h0a15.88,15.88,0,0,0,31.76,0h0a21.82,21.82,0,1,0-43.64,0h0a27.77,27.77,0,0,0,55.53,0h0a33.71,33.71,0,0,0-67.41,0h0a39.65,39.65,0,0,0,79.3.07h0c0-13.19,11.47-13.86,13.8-13.87h0a7.89,7.89,0,0,1,0,15.77h0a1.94,1.94,0,0,1,0-3.88v-8a9.94,9.94,0,0,0,0,19.88h0a15.89,15.89,0,1,0,0-31.77Z"/></svg>