<svg id="Layer_2" data-name="Layer 2" xmlns="http://www.w3.org/2000/svg" viewBox="0 0 150 150"><defs><style>.cls-1{fill:#231f20;}</style></defs><title>Guanin seal symbol-bold</title><ellipse class="cls-1" cx="26.68" cy="75.12" rx="7.22" ry="1.2"/><path class="cls-1" d="M75.22,114.67a39.55,39.55,0,1,1,39.54-39.55A39.59,39.59,0,0,1,75.22,114.67Zm0-71.09a31.55,31.55,0,1,0,31.54,31.54A31.58,31.58,0,0,0,75.22,43.58Z"/><path class="cls-1" d="M75.22,103.37a28.25,28.25,0,1,1,28.25-28.25A28.28,28.28,0,0,1,75.22,103.37Zm0-52.5A24.25,24.25,0,1,0,99.47,75.12,24.28,24.28,0,0,0,75.22,50.87Z"/><circle class="cls-1" cx="60.88" cy="68.17" r="2.58"/><circle class="cls-1" cx="75" cy="91.72" r="2.58"/><circle class="cls-1" cx="88.94" cy="68.17" r="2.58"/><path class="cls-1" d="M61.61,89.65l-5-6.21C69.63,72.81,71,66.6,71,55h8C79,69.17,76.49,77.55,61.61,89.65Z"/><path class="cls-1" d="M88.39,89.65C73.51,77.55,71,69.17,71,55h8c0,11.64,1.37,17.85,14.44,28.48Z"/><path class="cls-1" d="M64.05,87.59l-4.87-6.35a47.21,47.21,0,0,0,4.17-3.72c3.06-3,6.23-6,11.65-6,5.81,0,8.68,2.83,12.66,6.74.79.78,1.67,1.64,2.67,2.59l-5.49,5.82c-1-1-2-1.89-2.79-2.71-3.83-3.77-4.7-4.44-7-4.44-2.09,0-3.37,1.16-6.08,3.79A55,55,0,0,1,64.05,87.59Z"/><ellipse class="cls-1" cx="109.09" cy="108.99" rx="1.2" ry="7.22" transform="translate(-45.12 109.06) rotate(-45)"/><ellipse class="cls-1" cx="41.35" cy="41.25" rx="1.2" ry="7.22" transform="translate(-17.06 41.32) rotate(-45)"/><ellipse class="cls-1" cx="119.6" cy="57.1" rx="7.22" ry="1.2" transform="translate(-12.69 49.2) rotate(-22.1)"/><ellipse class="cls-1" cx="30.84" cy="93.15" rx="7.22" ry="1.2" transform="translate(-32.78 18.45) rotate(-22.1)"/><ellipse class="cls-1" cx="119.35" cy="93.76" rx="1.2" ry="7.22" transform="translate(-13.46 167.23) rotate(-67.1)"/><ellipse class="cls-1" cx="31.09" cy="56.49" rx="1.2" ry="7.22" transform="translate(-33.04 63.15) rotate(-67.1)"/><ellipse class="cls-1" cx="93.25" cy="119.5" rx="1.2" ry="7.22" transform="translate(-38.11 43.87) rotate(-22.1)"/><ellipse class="cls-1" cx="57.2" cy="30.74" rx="1.2" ry="7.22" transform="translate(-7.36 23.78) rotate(-22.1)"/><ellipse class="cls-1" cx="56.58" cy="119.25" rx="7.22" ry="1.2" transform="translate(-75.29 124.98) rotate(-67.1)"/><ellipse class="cls-1" cx="93.86" cy="30.99" rx="7.22" ry="1.2" transform="translate(28.79 105.4) rotate(-67.1)"/><ellipse class="cls-1" cx="27.32" cy="75.12" rx="7.22" ry="1.2"/><ellipse class="cls-1" cx="123.12" cy="75.12" rx="7.22" ry="1.2"/><ellipse class="cls-1" cx="109.09" cy="41.25" rx="7.22" ry="1.2" transform="translate(2.78 89.22) rotate(-45)"/><ellipse class="cls-1" cx="41.35" cy="108.99" rx="7.22" ry="1.2" transform="translate(-64.96 61.16) rotate(-45)"/><ellipse class="cls-1" cx="75.22" cy="27.22" rx="1.2" ry="7.22"/><ellipse class="cls-1" cx="75.22" cy="123.02" rx="1.2" ry="7.22"/></svg>