<svg id="Symbols" xmlns="http://www.w3.org/2000/svg" viewBox="0 0 150 150"><title>Coqui taino symbol-bold</title><path d="M115.44,46.61a18.45,18.45,0,0,0,9,2.33h.31l-.13-8a10.29,10.29,0,0,1-4.24-.85,20.9,20.9,0,0,0,2.58-10h-8a12.65,12.65,0,0,1-.95,4.71,21.17,21.17,0,0,1-1.89-2.93l-7.21,3.46a28.92,28.92,0,0,0,4.23,6.15c-6.3,5.76-17.14,9.9-29.52,10.77L80,30.19l-8-.12-.34,22.31C59,51.8,47.85,47.82,41.16,42.14a18.71,18.71,0,0,0,3.93-10l-8-.65a10.45,10.45,0,0,1-1.22,4.1,12.75,12.75,0,0,1-1.27-5.44h-8A21.17,21.17,0,0,0,30,41.46,19.93,19.93,0,0,1,26.91,43l2.75,7.51a27,27,0,0,0,5.55-2.93c8.06,7.29,21.1,12.15,36.28,12.77l-.43,28.47a27.35,27.35,0,0,0-3.27-.22A26,26,0,0,0,45.72,101h0l0,0c-.41.66-.78,1.34-1.13,2L34.13,121.77l7,3.89L43,122.3a27.4,27.4,0,0,0,1.17,3.08l7.28-3.33a17.93,17.93,0,0,1,.32-15.52l.66-1.18a18,18,0,0,1,15.37-8.71,17.49,17.49,0,0,1,3.15.28l-.15,9.37,8,.13L79,94.87a92.4,92.4,0,0,1,12.76-7c4.52-1.68,9.18-1.18,12.15,1.3s3.91,6.31,3.06,11.14a7.07,7.07,0,0,1-.25,1c-4,7.5-11.72,5.65-12.6,5.41l-2.18,7.7a19,19,0,0,0,5.13.67l.95,0c-.71.87-1.4,1.68-2,2.37l6,5.33c1.17-1.31,11.47-13,12.88-21.08C116.17,94,114.05,87.23,109,83c-5.24-4.37-12.74-5.36-20-2.65a87.36,87.36,0,0,0-9.84,5l.39-25.07C94.76,59.43,107.74,54.23,115.44,46.61Z"/><path d="M59.85,40.85a7.21,7.21,0,1,0-7.2-7.21A7.21,7.21,0,0,0,59.85,40.85Zm0-8a.8.8,0,1,1-.79.79A.79.79,0,0,1,59.85,32.85Z"/><path d="M92.24,40.85A7.21,7.21,0,1,0,85,33.64,7.21,7.21,0,0,0,92.24,40.85Zm0-8a.8.8,0,1,1-.8.79A.8.8,0,0,1,92.24,32.85Z"/></svg>