<svg id="Symbols" xmlns="http://www.w3.org/2000/svg" viewBox="0 0 150 150"><title>Taino turtle symbol-bold</title><path d="M97.77,110c-3.1-2.35-3.88-7.87-4-11.11a25.38,25.38,0,0,0,5.72-8.42,34.86,34.86,0,0,0,1.28-22.34A36.91,36.91,0,0,0,94.47,55l18.77-19-5.69-5.62L88.84,49.31l0-.05a25,25,0,0,0-9.94-4.76V20.41h-8V44.33c-.53.1-1.06.21-1.58.34a21.35,21.35,0,0,0-12.48,9.2c-7.21-5.57-14.27-7.74-21-6.44-12.15,2.35-18.2,15.09-18.45,15.63l7.25,3.38c.05-.1,4.67-9.6,12.72-11.15,4.82-.93,10.22,1.12,16.07,6.07a35.67,35.67,0,0,0-.15,19.19,34.9,34.9,0,0,0,12,18.87A25.32,25.32,0,0,0,74,103.91c-.58,5.5-3.84,16.62-20.52,18.06l.69,8C76.51,128,81,112.26,81.91,104.53a21,21,0,0,0,2.81-.52c.51-.13,1-.29,1.48-.45.67,4.26,2.4,9.52,6.7,12.8a14.43,14.43,0,0,0,9,2.9,25.68,25.68,0,0,0,8.33-1.56l-2.62-7.56C103.2,111.67,99.89,111.62,97.77,110Zm-5.6-22.67c-2,4.69-5.36,7.86-9.46,8.93s-8.59-.06-12.62-3.18a26.81,26.81,0,0,1-9.17-14.56,26.9,26.9,0,0,1,.9-17.19c2-4.69,5.36-7.86,9.46-8.92a11.91,11.91,0,0,1,3.09-.4,15.71,15.71,0,0,1,9.53,3.57,26.84,26.84,0,0,1,9.17,14.56A26.89,26.89,0,0,1,92.17,87.34Z"/><polygon points="91.09 66.68 85.42 61.03 77.24 69.26 66.16 62.18 61.85 68.92 71.46 75.06 63.24 83.33 68.91 88.97 78.36 79.47 88.58 86 92.88 79.25 84.14 73.67 91.09 66.68"/></svg>