<svg id="Layer_2" data-name="Layer 2" xmlns="http://www.w3.org/2000/svg" viewBox="0 0 150 150"><defs><style>.cls-1,.cls-3{fill:none;stroke:#231f20;stroke-miterlimit:10;}.cls-1{stroke-width:8px;}.cls-2{fill:#231f20;}.cls-3{stroke-width:4px;}</style></defs><title>Taino eternal lovers  symbol-bold</title><path class="cls-1" d="M67,42.65s-12.19,8.2-15.63,10a9.58,9.58,0,0,1-4.41,1.08c-5.65,0-10.23-5-10.23-11.06s4.58-11.06,10.23-11.06a9.68,9.68,0,0,1,5.54,1.76C55.28,35.31,67,42.65,67,42.65Z"/><path class="cls-1" d="M83.41,42.65s12.19,8.2,15.63,10a9.58,9.58,0,0,0,4.41,1.08c5.65,0,10.23-5,10.23-11.06s-4.58-11.06-10.23-11.06a9.68,9.68,0,0,0-5.54,1.76C95.09,35.31,83.41,42.65,83.41,42.65Z"/><circle class="cls-2" cx="47.63" cy="42.65" r="3.1"/><circle class="cls-2" cx="102.58" cy="42.65" r="3.1"/><path class="cls-1" d="M52.66,53.6c5.92,4.47,29.39,25.22,11.71,42.29a20.47,20.47,0,0,1-13.63,5.66c-4.66.16-8.75-2.81-11.43-5.19L24,110.55v-36L39,88.75s18.93-7.29,12.71-34.53A.61.61,0,0,1,52.66,53.6Z"/><path class="cls-1" d="M97.34,53.6C91.42,58.07,68,78.82,85.63,95.89a20.47,20.47,0,0,0,13.63,5.66c4.66.16,8.75-2.81,11.43-5.19L126,110.55v-36L111,88.75S92.07,81.46,98.29,54.22A.61.61,0,0,0,97.34,53.6Z"/><path class="cls-3" d="M89.38,129.33S70.29,114.5,91.16,99.66"/><path class="cls-3" d="M99.26,101.55s-11.43,11.49,4.87,20"/><path class="cls-3" d="M61,129.33S80,114.5,59.17,99.66"/><path class="cls-3" d="M51.07,101.55s11.43,11.49-4.87,20"/></svg>