<svg id="Symbols" xmlns="http://www.w3.org/2000/svg" viewBox="0 0 150 150"><defs><style>.cls-1,.cls-2{fill:none;stroke:#231f20;stroke-width:8px;}.cls-1{stroke-miterlimit:10;}.cls-2{stroke-linejoin:bevel;}</style></defs><path class="cls-1" d="M126.92,31.42a7.32,7.32,0,1,1-7.32-7.25A7.28,7.28,0,0,1,126.92,31.42Z"/><path class="cls-1" d="M67.24,62.14a7.32,7.32,0,1,1-7.32-7.25A7.29,7.29,0,0,1,67.24,62.14Z"/><path class="cls-1" d="M54.65,57.11l-3.08-3c-7.79-7.7-8.66-19.34-2-26A15.9,15.9,0,0,1,61,23.61,21.4,21.4,0,0,1,75.85,30L78,32.09l-3,5.13"/><path class="cls-1" d="M114.48,36.5,23.71,126.39s-3.66-18.85,6.59-37l11.06,11.85a26.91,26.91,0,0,0,4.25,3.44A25.1,25.1,0,0,0,59.36,109,19.17,19.17,0,0,0,73,103.59c7-6.88,7.16-18.21,1.13-27.17a28,28,0,0,0-3.49-4.2L65.38,67"/><line class="cls-1" x1="82.64" y1="29.25" x2="74.95" y2="37.22"/><polyline class="cls-2" points="91.79 37.95 102.03 29.97 99.11 35.05 107.35 43.56"/><polyline class="cls-2" points="107.35 43.56 115.94 51.72 121.07 48.82 113.02 58.97"/></svg>