<svg id="Symbols" xmlns="http://www.w3.org/2000/svg" viewBox="0 0 150 150"><defs><style>.cls-1,.cls-2,.cls-3{fill:none;stroke:#231f20;}.cls-1,.cls-2{stroke-miterlimit:10;}.cls-1{stroke-width:4px;}.cls-2,.cls-3{stroke-width:2px;}.cls-3{stroke-linejoin:round;}.cls-4,.cls-5{fill:#231f20;}.cls-5{font-size:12px;font-family:Lato-Medium, Lato;font-weight:500;}</style></defs><path class="cls-1" d="M94.1,58.65A2.7,2.7,0,1,1,91.4,56,2.7,2.7,0,0,1,94.1,58.65Z"/><path class="cls-1" d="M72.15,70.22a2.7,2.7,0,1,1-2.7-2.69A2.7,2.7,0,0,1,72.15,70.22Z"/><path class="cls-1" d="M67.51,68.35l-1.13-1.13c-2.86-2.86-3.18-7.18-.72-9.64a5.81,5.81,0,0,1,4.17-1.66,7.84,7.84,0,0,1,5.48,2.37l.77.77L75,61"/><path class="cls-1" d="M89.52,60.7,56.14,94.08a22.2,22.2,0,0,1,2.42-13.73l4.07,4.4A9.82,9.82,0,0,0,64.19,86a9.12,9.12,0,0,0,5.06,1.59,7,7,0,0,0,5-2c2.56-2.56,2.63-6.77.42-10.09A10,10,0,0,0,73.41,74l-2-2"/><line class="cls-2" x1="77.81" y1="58.01" x2="74.98" y2="60.97"/><polyline class="cls-3" points="80.64 61.78 84.41 58.82 83.33 60.7 86.36 63.86"/><polyline class="cls-3" points="86.36 63.86 89.52 66.89 91.4 65.82 88.44 69.58"/><path class="cls-4" d="M75,41.55A33.45,33.45,0,1,1,41.55,75,33.48,33.48,0,0,1,75,41.55m0-4A37.45,37.45,0,1,0,112.45,75,37.45,37.45,0,0,0,75,37.55Z"/><path class="cls-4" d="M75,24A51,51,0,1,1,24,75,51.06,51.06,0,0,1,75,24m0-2a53,53,0,1,0,53,53A53,53,0,0,0,75,22Z"/><circle class="cls-1" cx="75" cy="75" r="53"/><text class="cls-5" transform="translate(45.74 47.3) rotate(-40.85)">A</text><text class="cls-5" transform="matrix(0.89, -0.45, 0.45, 0.89, 53.36, 41)">C</text><text class="cls-5" transform="matrix(0.98, -0.21, 0.21, 0.98, 62.29, 36.66)">H</text><text class="cls-5" transform="translate(73.19 34.71) rotate(3.12)">A</text><text class="cls-5" transform="translate(83.28 35.68) rotate(14.2)">I</text><text class="cls-5" transform="translate(88.58 36.98) rotate(25.42)">A</text><text class="cls-5" transform="matrix(0.76, 0.65, -0.65, 0.76, 97.6, 41.48)">H</text><text class="cls-5" transform="translate(45.43 113.06) rotate(33.19)">K</text><text class="cls-5" transform="translate(55.38 119) rotate(19.97)">E</text><text class="cls-5" transform="translate(65.34 122.22) rotate(7.32)">T</text><text class="cls-5" transform="translate(76.03 123.27) rotate(-6.53)">H</text><text class="cls-5" transform="matrix(0.94, -0.35, 0.35, 0.94, 88.69, 121.24)">E</text><text class="cls-5" transform="translate(98.39 117.2) rotate(-33.48)">R</text></svg>