<svg xmlns="http://www.w3.org/2000/svg" viewBox="0 0 150 150"><defs><style>.cls-1{fill:none;stroke:#231f20;stroke-miterlimit:10;stroke-width:4px;}.cls-2,.cls-3{fill:#231f20;}.cls-3{font-size:12px;font-family:Lato-Medium, Lato;font-weight:500;}</style></defs><g id="Symbols"><path class="cls-1" d="M87.07,70.23a2.77,2.77,0,1,1-2.77-2.77A2.77,2.77,0,0,1,87.07,70.23Z"/><path class="cls-1" d="M60.55,70.23a2.77,2.77,0,1,1-2.77-2.77A2.77,2.77,0,0,1,60.55,70.23Z"/><path class="cls-1" d="M95,58a2.77,2.77,0,1,1-2.77-2.77A2.77,2.77,0,0,1,95,58Z"/><line class="cls-1" x1="79.54" y1="86.99" x2="84.11" y2="84.11"/><path class="cls-1" d="M81.83,85.76a7,7,0,1,1-6.93-4.85L59.36,58h4.75l25.54,0"/><line class="cls-1" x1="81.73" y1="70.25" x2="60.35" y2="70.25"/></g><g id="Layer_3" data-name="Layer 3"><path class="cls-2" d="M75,41.55A33.45,33.45,0,1,1,41.55,75,33.48,33.48,0,0,1,75,41.55m0-4A37.45,37.45,0,1,0,112.45,75,37.45,37.45,0,0,0,75,37.55Z"/><path class="cls-2" d="M75,24A51,51,0,1,1,24,75,51.06,51.06,0,0,1,75,24m0-2a53,53,0,1,0,53,53A53,53,0,0,0,75,22Z"/><circle class="cls-1" cx="75" cy="75" r="53"/><text class="cls-3" transform="translate(46.3 46.71) rotate(-39.7)">A</text><text class="cls-3" transform="matrix(0.89, -0.45, 0.45, 0.89, 54.28, 40.52)">L</text><text class="cls-3" transform="matrix(0.97, -0.24, 0.24, 0.97, 61.6, 36.96)">A</text><text class="cls-3" transform="translate(71.42 34.77) rotate(1.32)">D</text><text class="cls-3" transform="translate(82.52 35.52) rotate(13.08)">I</text><text class="cls-3" transform="translate(87.82 36.72) rotate(24.29)">A</text><text class="cls-3" transform="matrix(0.77, 0.63, -0.63, 0.77, 96.92, 41.03)">H</text><text class="cls-3" transform="translate(37.04 104.78) rotate(46.46)">H</text><text class="cls-3" transform="matrix(0.86, 0.51, -0.51, 0.86, 46.33, 113.85)">O</text><text class="cls-3" transform="translate(58.12 120.18) rotate(15.76)">C</text><text class="cls-3" transform="translate(69.48 122.95) rotate(1.32)">H</text><text class="cls-3" transform="translate(82.62 122.8) rotate(-15.6)">M</text><text class="cls-3" transform="translate(96.85 118.05) rotate(-31.75)">A</text><text class="cls-3" transform="matrix(0.69, -0.72, 0.72, 0.69, 106.73, 111.44)">N</text></g></svg>