<svg id="Symbols" xmlns="http://www.w3.org/2000/svg" viewBox="0 0 150 150"><defs><style>.cls-1{fill:none;stroke:#231f20;stroke-miterlimit:10;stroke-width:8px;}</style></defs><path class="cls-1" d="M105.5,62.94a7,7,0,1,1-7-7A7,7,0,0,1,105.5,62.94Z"/><path class="cls-1" d="M38.5,62.94a7,7,0,1,1-7-7A7,7,0,0,1,38.5,62.94Z"/><path class="cls-1" d="M125.5,31.94a7,7,0,1,1-7-7A7,7,0,0,1,125.5,31.94Z"/><line class="cls-1" x1="86.48" y1="105.29" x2="100.39" y2="96.51"/><path class="cls-1" d="M92.25,102.19a17.57,17.57,0,1,1-17.5-12.25l-39.25-58h12L112,32"/><line class="cls-1" x1="92" y1="63" x2="38" y2="63"/></svg>