<svg xmlns="http://www.w3.org/2000/svg" viewBox="0 0 150 150"><defs><style>.cls-1{fill:none;stroke:#231f20;stroke-miterlimit:10;stroke-width:4px;}.cls-2,.cls-3{fill:#231f20;}.cls-3{font-size:12px;font-family:Lato-Medium, Lato;font-weight:500;}</style></defs><g id="Symbols"><path class="cls-1" d="M94,58.61A2.61,2.61,0,1,1,91.39,56,2.61,2.61,0,0,1,94,58.61Z"/><path class="cls-1" d="M81.33,88.78a2.61,2.61,0,1,0,2.61,2.61A2.6,2.6,0,0,0,81.33,88.78Z"/><line class="cls-1" x1="81.52" y1="89.53" x2="81.52" y2="60.1"/><path class="cls-1" d="M81.52,60.1a3.35,3.35,0,0,0-3.35-3.35c-1.32,0-2.24.74-3.36,1.86L67,67.55,56,57.86V92.14L89.44,60"/></g><g id="Layer_3" data-name="Layer 3"><path class="cls-2" d="M75,41.55A33.45,33.45,0,1,1,41.55,75,33.48,33.48,0,0,1,75,41.55m0-4A37.45,37.45,0,1,0,112.45,75,37.45,37.45,0,0,0,75,37.55Z"/><path class="cls-2" d="M75,24A51,51,0,1,1,24,75,51.06,51.06,0,0,1,75,24m0-2a53,53,0,1,0,53,53A53,53,0,0,0,75,22Z"/><circle class="cls-1" cx="75" cy="75" r="53"/><text class="cls-3" transform="translate(49.06 44.16) rotate(-34.38)">A</text><text class="cls-3" transform="translate(57.47 38.62) rotate(-19.28)">N</text><text class="cls-3" transform="translate(68.01 35.27) rotate(-4.18)">A</text><text class="cls-3" transform="translate(77.89 34.72) rotate(10.25)">U</text><text class="cls-3" transform="translate(88.41 36.99) rotate(24.33)">E</text><text class="cls-3" transform="translate(96.44 40.9) rotate(36.54)">L</text><text class="cls-3" transform="translate(57.62 120.04) rotate(15.67)">H</text><text class="cls-3" transform="translate(70.3 123.11) rotate(-0.54)">O</text><text class="cls-3" transform="translate(83.68 122.51) rotate(-15.68)">D</text></g></svg>