<svg xmlns="http://www.w3.org/2000/svg" viewBox="0 0 150 150"><defs><style>.cls-1{fill:none;stroke:#231f20;stroke-miterlimit:10;stroke-width:4px;}.cls-2,.cls-3{fill:#231f20;}.cls-3{font-size:12px;font-family:Lato-Medium, Lato;font-weight:500;}</style></defs><g id="Symbols"><path class="cls-1" d="M64.46,53.71A3.24,3.24,0,1,0,67.7,57,3.24,3.24,0,0,0,64.46,53.71Z"/><path class="cls-1" d="M67.75,56.94H88.34a9,9,0,1,1,0,18.06H60.81"/><path class="cls-1" d="M64.46,96.29a3.24,3.24,0,1,1,3.24-3.24A3.24,3.24,0,0,1,64.46,96.29Z"/><path class="cls-1" d="M67.75,93.06H88.34a9,9,0,1,0,0-18.06H60.81"/><polyline class="cls-1" points="53.99 73.65 50.63 73.65 55.24 84.72 59.57 75 64.05 75"/></g><g id="Layer_3" data-name="Layer 3"><path class="cls-2" d="M75,45A33.46,33.46,0,1,1,41.55,78.45,33.49,33.49,0,0,1,75,45m0-4a37.46,37.46,0,1,0,37.45,37.46A37.45,37.45,0,0,0,75,41Z"/><path class="cls-2" d="M75,27.45a51,51,0,1,1-51,51,51.05,51.05,0,0,1,51-51m0-2a53,53,0,1,0,53,53,53,53,0,0,0-53-53Z"/><circle class="cls-1" cx="75" cy="78.45" r="53"/><text class="cls-3" transform="translate(55.25 43.3) rotate(-23.63)">A</text><text class="cls-3" transform="translate(64.55 39.43) rotate(-8.47)">N</text><text class="cls-3" transform="matrix(1, 0.06, -0.06, 1, 75.67, 38.28)">I</text><text class="cls-3" transform="translate(81.11 38.62) rotate(13.53)">E</text><text class="cls-3" transform="matrix(0.9, 0.43, -0.43, 0.9, 89.7, 40.94)">L</text><text class="cls-3" transform="translate(39.71 111.31) rotate(41.89)">G</text><text class="cls-3" transform="translate(49.25 119.15) rotate(28.3)">E</text><text class="cls-3" transform="translate(58.68 123.82) rotate(15.18)">B</text><text class="cls-3" transform="translate(69.8 126.4) rotate(1.32)">U</text><text class="cls-3" transform="translate(82.31 126.12) rotate(-13.1)">R</text><text class="cls-3" transform="translate(93.14 123.18) rotate(-26.9)">A</text><text class="cls-3" transform="matrix(0.75, -0.66, 0.66, 0.75, 103.54, 117.44)">H</text></g></svg>