<svg id="Symbols" xmlns="http://www.w3.org/2000/svg" viewBox="0 0 150 150"><defs><style>.cls-1{fill:none;stroke:#231f20;stroke-miterlimit:10;stroke-width:8px;}</style></defs><path class="cls-1" d="M54.39,29a7,7,0,1,0,7,7A7,7,0,0,0,54.39,29Z"/><path class="cls-1" d="M61.5,36H106a19.51,19.51,0,1,1,0,39H46.5"/><path class="cls-1" d="M54.39,121a7,7,0,1,1,7-7A7,7,0,0,1,54.39,121Z"/><path class="cls-1" d="M61.5,114H106a19.51,19.51,0,1,0,0-39H46.5"/><polyline class="cls-1" points="31.78 72.09 24.5 72.09 34.48 96 43.83 75 53.5 75"/></svg>