<svg xmlns="http://www.w3.org/2000/svg" viewBox="0 0 150 150"><defs><style>.cls-1{fill:none;stroke:#231f20;stroke-miterlimit:10;stroke-width:4px;}.cls-2,.cls-3{fill:#231f20;}.cls-3{font-size:12px;font-family:Lato-Medium, Lato;font-weight:500;}</style></defs><g id="Symbols"><path class="cls-1" d="M88.33,59.71a3.06,3.06,0,1,1,3.06-3.06A3.06,3.06,0,0,1,88.33,59.71Z"/><polyline class="cls-1" points="87.89 59.27 73.47 98.16 97.5 82.86 61.24 82.86"/><path class="cls-1" d="M61.67,82.87H58.83a6.15,6.15,0,0,1-6.33-6.12,6.33,6.33,0,0,1,6.33-6.34h.22"/><path class="cls-1" d="M58.61,70.41h0a6.15,6.15,0,0,1-6.11-6.33,6.33,6.33,0,0,1,6.33-6.34h2l.87.76V53.59"/></g><g id="Layer_3" data-name="Layer 3"><path class="cls-2" d="M75,41.55A33.45,33.45,0,1,1,41.55,75,33.48,33.48,0,0,1,75,41.55m0-4A37.45,37.45,0,1,0,112.45,75,37.45,37.45,0,0,0,75,37.55Z"/><path class="cls-2" d="M75,24A51,51,0,1,1,24,75,51.06,51.06,0,0,1,75,24m0-2a53,53,0,1,0,53,53A53,53,0,0,0,75,22Z"/><circle class="cls-1" cx="75" cy="75" r="53"/><text class="cls-3" transform="translate(55.95 39.46) rotate(-22.49)">A</text><text class="cls-3" transform="translate(65.36 35.86) rotate(-8.47)">R</text><text class="cls-3" transform="translate(74.89 34.83) rotate(2.17)">I</text><text class="cls-3" transform="translate(80.34 35.06) rotate(12.41)">E</text><text class="cls-3" transform="translate(88.99 37.23) rotate(24.68)">L</text><text class="cls-3" transform="matrix(0.52, 0.86, -0.86, 0.52, 32.08, 96.85)">T</text><text class="cls-3" transform="translate(37.93 105.87) rotate(44.8)">H</text><text class="cls-3" transform="matrix(0.84, 0.55, -0.55, 0.84, 47.29, 114.28)">I</text><text class="cls-3" transform="translate(53.01 117.88) rotate(22.93)">P</text><text class="cls-3" transform="translate(63.21 121.82) rotate(8.68)">H</text><text class="cls-3" transform="translate(75.93 123.18) rotate(-5.09)">E</text><text class="cls-3" transform="translate(86.32 121.89) rotate(-17.99)">R</text><text class="cls-3" transform="translate(96.73 118.05) rotate(-30.89)">E</text><text class="cls-3" transform="matrix(0.73, -0.69, 0.69, 0.73, 105.51, 112.36)">T</text><text class="cls-3" transform="matrix(0.54, -0.84, 0.84, 0.54, 113.1, 104.74)">H</text></g></svg>