<svg id="Symbols" xmlns="http://www.w3.org/2000/svg" viewBox="0 0 150 150"><defs><style>.cls-1,.cls-2{fill:none;stroke:#231f20;stroke-width:8px;}.cls-1{stroke-miterlimit:10;}.cls-2{stroke-linejoin:bevel;}</style></defs><path class="cls-1" d="M105.5,40a7,7,0,1,1,7-7A7,7,0,0,1,105.5,40Z"/><polyline class="cls-2" points="104.5 39 71.5 128 126.5 93 43.5 93"/><path class="cls-1" d="M44.5,93H38c-8,0-14.5-6-14.5-14A14.51,14.51,0,0,1,38,64.5h.5"/><path class="cls-2" d="M37.5,64.5h0c-8,0-14-6.49-14-14.5A14.51,14.51,0,0,1,38,35.5h4.5l2,5V22"/></svg>