<svg xmlns="http://www.w3.org/2000/svg" viewBox="0 0 150 150"><defs><style>.cls-1{fill:none;stroke:#231f20;stroke-miterlimit:10;stroke-width:4px;}.cls-2,.cls-3{fill:#231f20;}.cls-3{font-size:12px;font-family:Lato-Medium, Lato;font-weight:500;}</style></defs><g id="Symbols"><path class="cls-1" d="M57.22,70.52h1.35L68,92.46h.45V57.54h.44L86.77,92.46h.45V62.24a4.82,4.82,0,0,1,4.92-4.7,5,5,0,0,1,3.48,1.38,4.54,4.54,0,0,1,1.45,3.32v2"/><path class="cls-1" d="M78.71,58.44a3.14,3.14,0,1,1,3.14-3.14A3.14,3.14,0,0,1,78.71,58.44Z"/><polyline class="cls-1" points="78.71 58.44 78.71 95.14 78.71 97.83 74.68 97.83"/><path class="cls-1" d="M57.67,70.52H56.55a5.15,5.15,0,0,1,0-10.29h1.12"/><line class="cls-1" x1="78.26" y1="97.83" x2="81.4" y2="97.83"/><line class="cls-1" x1="98.6" y1="64.29" x2="95.01" y2="64.29"/></g><g id="Layer_3" data-name="Layer 3"><path class="cls-2" d="M75,41.55A33.45,33.45,0,1,1,41.55,75,33.48,33.48,0,0,1,75,41.55m0-4A37.45,37.45,0,1,0,112.45,75,37.45,37.45,0,0,0,75,37.55Z"/><path class="cls-2" d="M75,24A51,51,0,1,1,24,75,51.06,51.06,0,0,1,75,24m0-2a53,53,0,1,0,53,53A53,53,0,0,0,75,22Z"/><circle class="cls-1" cx="75" cy="75" r="53"/><text class="cls-3" transform="translate(47.23 45.8) rotate(-37.85)">A</text><text class="cls-3" transform="translate(55.41 39.84) rotate(-24.59)">S</text><text class="cls-3" transform="translate(63.03 36.48) rotate(-11.48)">A</text><text class="cls-3" transform="translate(72.99 34.8) rotate(1.44)">L</text><text class="cls-3" transform="matrix(0.98, 0.19, -0.19, 0.98, 81.23, 35.3)">I</text><text class="cls-3" transform="translate(86.56 36.32) rotate(22.4)">A</text><text class="cls-3" transform="matrix(0.79, 0.61, -0.61, 0.79, 95.81, 40.34)">H</text><text class="cls-3" transform="matrix(0.52, 0.86, -0.86, 0.52, 32.08, 96.85)">T</text><text class="cls-3" transform="translate(37.93 105.87) rotate(44.8)">H</text><text class="cls-3" transform="matrix(0.84, 0.55, -0.55, 0.84, 47.29, 114.28)">I</text><text class="cls-3" transform="translate(53.01 117.88) rotate(22.93)">P</text><text class="cls-3" transform="translate(63.21 121.82) rotate(8.68)">H</text><text class="cls-3" transform="translate(75.93 123.18) rotate(-5.09)">E</text><text class="cls-3" transform="translate(86.32 121.89) rotate(-17.99)">R</text><text class="cls-3" transform="translate(96.73 118.05) rotate(-30.89)">E</text><text class="cls-3" transform="matrix(0.73, -0.69, 0.69, 0.73, 105.51, 112.36)">T</text><text class="cls-3" transform="matrix(0.54, -0.84, 0.84, 0.54, 113.1, 104.74)">H</text></g></svg>