<svg id="Symbols" xmlns="http://www.w3.org/2000/svg" viewBox="0 0 150 150"><defs><style>.cls-1{fill:none;stroke:#231f20;stroke-miterlimit:10;stroke-width:8px;}</style></defs><path class="cls-1" d="M37,65h3l21,49h1V36h1l40,78h1V46.5A10.75,10.75,0,0,1,115,36a11.24,11.24,0,0,1,7.78,3.08A10.22,10.22,0,0,1,126,46.5V51"/><path class="cls-1" d="M85,38a7,7,0,1,1,7-7A7,7,0,0,1,85,38Z"/><polyline class="cls-1" points="85 38 85 120 85 126 76 126"/><path class="cls-1" d="M38,65H35.5a11.5,11.5,0,0,1,0-23H38"/><line class="cls-1" x1="84" y1="126" x2="91" y2="126"/><line class="cls-1" x1="130" y1="54" x2="119" y2="54"/></svg>