<svg id="Symbols" xmlns="http://www.w3.org/2000/svg" viewBox="0 0 150 150"><defs><style>.cls-1{fill:none;stroke:#231f20;stroke-linejoin:bevel;stroke-width:8px;}</style></defs><path class="cls-1" d="M94.37,38.91A6.92,6.92,0,1,1,101.29,32,6.92,6.92,0,0,1,94.37,38.91Z"/><path class="cls-1" d="M119.09,58.69A6.93,6.93,0,1,1,126,51.76,6.92,6.92,0,0,1,119.09,58.69Z"/><path class="cls-1" d="M90.41,37.92,50.19,92.37l-24,32.56c-8-27.57,7.79-31.93,24-32.56,4.29-.17,8.61-.07,12.54-.07,15,0,25.84-4.3,31-8s20.41-27.63,20.41-27.63"/></svg>