<svg xmlns="http://www.w3.org/2000/svg" viewBox="0 0 150 150"><defs><style>.cls-1{fill:none;stroke:#231f20;stroke-miterlimit:10;stroke-width:4px;}.cls-2,.cls-3{fill:#231f20;}.cls-3{font-size:12px;font-family:Lato-Medium, Lato;font-weight:500;}</style></defs><g id="Symbols"><path class="cls-1" d="M84.07,56.16a2.8,2.8,0,1,1,2.8-2.8A2.79,2.79,0,0,1,84.07,56.16Z"/><path class="cls-1" d="M94.06,64.14a2.8,2.8,0,1,1,2.79-2.79A2.79,2.79,0,0,1,94.06,64.14Z"/><path class="cls-1" d="M82.48,55.76l-16.25,22L56.52,90.9C53.28,79.76,59.66,78,66.23,77.75c1.73-.07,3.48,0,5.06,0,6,0,10.44-1.73,12.52-3.21s8.25-11.16,8.25-11.16"/></g><g id="Layer_3" data-name="Layer 3"><path class="cls-2" d="M75,41.55A33.45,33.45,0,1,1,41.55,75,33.48,33.48,0,0,1,75,41.55m0-4A37.45,37.45,0,1,0,112.45,75,37.45,37.45,0,0,0,75,37.55Z"/><path class="cls-2" d="M75,24A51,51,0,1,1,24,75,51.06,51.06,0,0,1,75,24m0-2a53,53,0,1,0,53,53A53,53,0,0,0,75,22Z"/><circle class="cls-1" cx="75" cy="75" r="53"/><text class="cls-3" transform="translate(52.26 41.72) rotate(-28.77)">C</text><text class="cls-3" transform="matrix(0.97, -0.25, 0.25, 0.97, 61.07, 37.15)">A</text><text class="cls-3" transform="translate(70.95 34.96) rotate(-1.42)">L</text><text class="cls-3" transform="translate(79.2 35.04) rotate(8.27)">I</text><text class="cls-3" transform="translate(84.58 35.85) rotate(18.6)">E</text><text class="cls-3" transform="matrix(0.86, 0.51, -0.51, 0.86, 92.93, 38.93)">L</text><text class="cls-3" transform="translate(50.23 116.35) rotate(26.38)">B</text><text class="cls-3" transform="translate(60.42 120.83) rotate(15.65)">I</text><text class="cls-3" transform="translate(67.04 122.62) rotate(4.04)">N</text><text class="cls-3" transform="translate(79.93 122.99) rotate(-10.59)">A</text><text class="cls-3" transform="translate(91.55 120.39) rotate(-25.46)">H</text></g></svg>