<svg xmlns="http://www.w3.org/2000/svg" viewBox="0 0 150 150"><defs><style>.cls-1{fill:none;stroke:#231f20;stroke-miterlimit:10;stroke-width:4px;}.cls-2,.cls-3{fill:#231f20;}.cls-3{font-size:12px;font-family:Lato-Medium, Lato;font-weight:500;}</style></defs><g id="Symbols"><path class="cls-1" d="M89.15,95.57A2.72,2.72,0,1,1,92,92.93,2.72,2.72,0,0,1,89.15,95.57Z"/><path class="cls-1" d="M77.78,95.57a2.72,2.72,0,1,1,2.79-2.64A2.73,2.73,0,0,1,77.78,95.57Z"/><path class="cls-1" d="M87.69,91.25l-5.17-6.58h0l-6.88-8.74-5.41-6.88-10-13.49H88.76L70.23,69.05,57.48,77.8A4.37,4.37,0,1,0,62.42,85l13.22-9.07,18.72-14.1h1.18l-13,22.84-3.46,6.19"/></g><g id="Layer_3" data-name="Layer 3"><path class="cls-2" d="M75,41.55A33.45,33.45,0,1,1,41.55,75,33.48,33.48,0,0,1,75,41.55m0-4A37.45,37.45,0,1,0,112.45,75,37.45,37.45,0,0,0,75,37.55Z"/><path class="cls-2" d="M75,24A51,51,0,1,1,24,75,51.06,51.06,0,0,1,75,24m0-2a53,53,0,1,0,53,53A53,53,0,0,0,75,22Z"/><circle class="cls-1" cx="75" cy="75" r="53"/><text class="cls-3" transform="translate(41.69 52.23) rotate(-49.18)">D</text><text class="cls-3" transform="translate(48.96 44.24) rotate(-34.55)">A</text><text class="cls-3" transform="translate(57.28 38.57) rotate(-18.08)">M</text><text class="cls-3" transform="translate(69.8 35) rotate(-1.65)">A</text><text class="cls-3" transform="matrix(0.98, 0.21, -0.21, 0.98, 79.89, 34.96)">B</text><text class="cls-3" transform="translate(89.37 37.46) rotate(23.32)">I</text><text class="cls-3" transform="matrix(0.82, 0.57, -0.57, 0.82, 94.38, 39.58)">A</text><text class="cls-3" transform="matrix(0.65, 0.76, -0.76, 0.65, 102.57, 45.43)">H</text><text class="cls-3" transform="translate(49.26 115.74) rotate(27.91)">Y</text><text class="cls-3" transform="matrix(0.97, 0.26, -0.26, 0.97, 59.27, 120.55)">E</text><text class="cls-3" transform="translate(69.42 122.85) rotate(2.8)">S</text><text class="cls-3" transform="matrix(0.98, -0.19, 0.19, 0.98, 79.59, 123.1)">O</text><text class="cls-3" transform="translate(92.67 119.97) rotate(-26.86)">D</text></g></svg>