<svg id="Symbols" xmlns="http://www.w3.org/2000/svg" viewBox="0 0 150 150"><defs><style>.cls-1{fill:none;stroke:#231f20;stroke-linejoin:bevel;stroke-width:8px;}</style></defs><path class="cls-1" d="M109.65,126a6.92,6.92,0,1,1,7.12-6.72A6.93,6.93,0,0,1,109.65,126Z"/><path class="cls-1" d="M80.65,126a6.92,6.92,0,1,1,7.12-6.72A6.93,6.93,0,0,1,80.65,126Z"/><path class="cls-1" d="M105.93,115,92.74,98.23h0L75.2,75.93,61.41,58.4,35.93,24h72.72L61.41,58.4,28.91,80.7A11.12,11.12,0,1,0,41.49,99.05L75.2,75.93,122.93,40h3L92.74,98.22,83.93,114"/></svg>