<svg xmlns="http://www.w3.org/2000/svg" viewBox="0 0 150 150"><defs><style>.cls-1{fill:none;stroke:#231f20;stroke-miterlimit:10;stroke-width:4px;}.cls-2,.cls-3{fill:#231f20;}.cls-3{font-size:12px;font-family:Lato-Medium, Lato;font-weight:500;}</style></defs><g id="Symbols"><path class="cls-1" d="M91.21,63.94a2.88,2.88,0,0,1,.17-5.76,2.88,2.88,0,1,1-.17,5.76Z"/><path class="cls-1" d="M54.4,86.84l11-23.77a4.64,4.64,0,0,1,6.18-2.19,4.63,4.63,0,0,1,2.18,6.17L63.92,87.67H73.8"/><line class="cls-1" x1="56.78" y1="87.67" x2="50.12" y2="87.67"/><path class="cls-1" d="M73.8,87.67H91.49c2.2,0,2.81-1.35,1.35-3l-7.6-8.58a5.27,5.27,0,0,1-.33-6.25l4.62-6.5"/></g><g id="Layer_3" data-name="Layer 3"><path class="cls-2" d="M75,41.55A33.45,33.45,0,1,1,41.55,75,33.48,33.48,0,0,1,75,41.55m0-4A37.45,37.45,0,1,0,112.45,75,37.45,37.45,0,0,0,75,37.55Z"/><path class="cls-2" d="M75,24A51,51,0,1,1,24,75,51.06,51.06,0,0,1,75,24m0-2a53,53,0,1,0,53,53A53,53,0,0,0,75,22Z"/><circle class="cls-1" cx="75" cy="75" r="53"/><text class="cls-3" transform="matrix(0.86, -0.51, 0.51, 0.86, 50.69, 42.78)">D</text><text class="cls-3" transform="translate(60.14 37.51) rotate(-15.86)">A</text><text class="cls-3" transform="translate(69.87 34.94) rotate(-0.83)">N</text><text class="cls-3" transform="translate(81.01 35.27) rotate(10.88)">I</text><text class="cls-3" transform="matrix(0.93, 0.36, -0.36, 0.93, 86.37, 36.33)">E</text><text class="cls-3" transform="matrix(0.83, 0.55, -0.55, 0.83, 94.57, 39.79)">L</text><text class="cls-3" transform="matrix(0.83, 0.56, -0.56, 0.83, 44.54, 112.42)">N</text><text class="cls-3" transform="matrix(0.94, 0.34, -0.34, 0.94, 55.51, 119.06)">E</text><text class="cls-3" transform="translate(65.49 122.25) rotate(7.14)">T</text><text class="cls-3" transform="translate(76.06 123.19) rotate(-5.43)">Z</text><text class="cls-3" transform="translate(86.82 121.79) rotate(-18.97)">A</text><text class="cls-3" transform="matrix(0.83, -0.56, 0.56, 0.83, 97.93, 117.53)">H</text></g></svg>