<svg xmlns="http://www.w3.org/2000/svg" viewBox="0 0 150 150"><defs><style>.cls-1{fill:none;stroke:#231f20;stroke-miterlimit:10;stroke-width:4px;}.cls-2,.cls-3{fill:#231f20;}.cls-3{font-size:12px;font-family:Lato-Medium, Lato;font-weight:500;}</style></defs><g id="Symbols"><path class="cls-1" d="M90.45,61.36a2.81,2.81,0,1,1,2.88-2.72A2.82,2.82,0,0,1,90.45,61.36Z"/><path class="cls-1" d="M81.47,98.41a2.8,2.8,0,1,1,2.88-2.72A2.79,2.79,0,0,1,81.47,98.41Z"/><polyline class="cls-1" points="79.72 93.36 60.35 69.78 52.35 81.15 84.35 81.15"/><path class="cls-1" d="M89.62,59.8,81.4,71.47h7.17a4.84,4.84,0,1,1,0,9.68H81.2"/></g><g id="Layer_3" data-name="Layer 3"><path class="cls-2" d="M75,41.55A33.45,33.45,0,1,1,41.55,75,33.48,33.48,0,0,1,75,41.55m0-4A37.45,37.45,0,1,0,112.45,75,37.45,37.45,0,0,0,75,37.55Z"/><path class="cls-2" d="M75,24A51,51,0,1,1,24,75,51.06,51.06,0,0,1,75,24m0-2a53,53,0,1,0,53,53A53,53,0,0,0,75,22Z"/><path class="cls-1" d="M128,75A53,53,0,1,1,75,22,53,53,0,0,1,128,75Z"/><text class="cls-3" transform="translate(46.5 46.59) rotate(-40.25)">E</text><text class="cls-3" transform="translate(53.45 41.03) rotate(-28.12)">L</text><text class="cls-3" transform="translate(60.74 37.34) rotate(-15.86)">E</text><text class="cls-3" transform="matrix(1, -0.01, 0.01, 1, 69.23, 34.92)">M</text><text class="cls-3" transform="translate(82.33 35.49) rotate(12.81)">I</text><text class="cls-3" transform="translate(87.62 36.65) rotate(23.98)">A</text><text class="cls-3" transform="matrix(0.78, 0.63, -0.63, 0.78, 96.76, 40.93)">H</text><text class="cls-3" transform="translate(45.43 113.06) rotate(33.19)">K</text><text class="cls-3" transform="translate(55.38 119) rotate(19.97)">E</text><text class="cls-3" transform="translate(65.34 122.22) rotate(7.32)">T</text><text class="cls-3" transform="translate(76.03 123.27) rotate(-6.53)">H</text><text class="cls-3" transform="matrix(0.94, -0.35, 0.35, 0.94, 88.69, 121.24)">E</text><text class="cls-3" transform="translate(98.39 117.2) rotate(-33.48)">R</text></g></svg>