<svg id="Symbols" xmlns="http://www.w3.org/2000/svg" viewBox="0 0 150 150"><defs><style>.cls-1{fill:none;stroke:#231f20;stroke-linejoin:bevel;stroke-width:8px;}</style></defs><path class="cls-1" d="M33.53,97.3a6.66,6.66,0,1,1,6.85-6.46A6.66,6.66,0,0,1,33.53,97.3Z"/><path class="cls-1" d="M96.22,44.38a6.66,6.66,0,1,1,6.85-6.46A6.67,6.67,0,0,1,96.22,44.38Z"/><path class="cls-1" d="M32.84,86.15,65.32,56.43,48.25,110.19l0,.73L84.66,77,105.1,58.35a10.73,10.73,0,0,1,15.12.85,10.72,10.72,0,0,1-.86,15.11l-48,44.63L84.66,77l10.4-32.76"/></svg>