<svg xmlns="http://www.w3.org/2000/svg" viewBox="0 0 150 150"><defs><style>.cls-1{fill:none;stroke:#231f20;stroke-miterlimit:10;stroke-width:4px;}.cls-2,.cls-3{fill:#231f20;}.cls-3{font-size:12px;font-family:Lato-Medium, Lato;font-weight:500;}</style></defs><g id="Symbols"><path class="cls-1" d="M53.19,84.78a3.37,3.37,0,1,1,3.47-3.27A3.37,3.37,0,0,1,53.19,84.78Z"/><path class="cls-1" d="M86.28,59a3.37,3.37,0,1,1,3.47-3.27A3.37,3.37,0,0,1,86.28,59Z"/><path class="cls-1" d="M54.21,80.14l16.43-15L62,92.31v.37L80.43,75.51l10.35-9.44a5.44,5.44,0,0,1,7.65.43,5.32,5.32,0,0,1,1.33,2.91A5.4,5.4,0,0,1,98,74.15L73.69,96.74l6.74-21.23L85.7,58.93"/></g><g id="Layer_3" data-name="Layer 3"><path class="cls-2" d="M75,41.55A33.45,33.45,0,1,1,41.55,75,33.48,33.48,0,0,1,75,41.55m0-4A37.45,37.45,0,1,0,112.45,75,37.45,37.45,0,0,0,75,37.55Z"/><path class="cls-2" d="M75,24A51,51,0,1,1,24,75,51.06,51.06,0,0,1,75,24m0-2a53,53,0,1,0,53,53A53,53,0,0,0,75,22Z"/><circle class="cls-1" cx="75" cy="75" r="53"/><text class="cls-3" transform="translate(54.88 40.13) rotate(-25.16)">E</text><text class="cls-3" transform="translate(63 36.52) rotate(-11.98)">Y</text><text class="cls-3" transform="translate(71.48 34.78) rotate(1.32)">A</text><text class="cls-3" transform="translate(81.6 35.25) rotate(14.24)">E</text><text class="cls-3" transform="translate(90.15 37.68) rotate(26.47)">L</text><text class="cls-3" transform="translate(49.26 115.74) rotate(27.91)">Y</text><text class="cls-3" transform="matrix(0.97, 0.26, -0.26, 0.97, 59.27, 120.55)">E</text><text class="cls-3" transform="translate(69.42 122.85) rotate(2.8)">S</text><text class="cls-3" transform="matrix(0.98, -0.19, 0.19, 0.98, 79.59, 123.1)">O</text><text class="cls-3" transform="translate(92.67 119.97) rotate(-26.86)">D</text></g></svg>