<svg xmlns="http://www.w3.org/2000/svg" viewBox="0 0 150 150"><defs><style>.cls-1{fill:none;stroke:#231f20;stroke-miterlimit:10;stroke-width:4px;}.cls-2,.cls-3{fill:#231f20;}.cls-3{font-size:12px;font-family:Lato-Medium, Lato;font-weight:500;}</style></defs><g id="Symbols"><path class="cls-1" d="M54.59,66.69A2.75,2.75,0,1,1,57.41,64,2.76,2.76,0,0,1,54.59,66.69Z"/><path class="cls-1" d="M91,57.33a2.75,2.75,0,1,1,2.83-2.66A2.73,2.73,0,0,1,91,57.33Z"/><path class="cls-1" d="M88.77,56.79,70,77,56,93v1H92V93L70.3,76.58l-3.5-2.84a4.32,4.32,0,0,1-7.31-3.25,4.41,4.41,0,0,1,.65-2.16l-3.55-2.88"/></g><g id="Layer_3" data-name="Layer 3"><path class="cls-2" d="M75,41.55A33.45,33.45,0,1,1,41.55,75,33.48,33.48,0,0,1,75,41.55m0-4A37.45,37.45,0,1,0,112.45,75,37.45,37.45,0,0,0,75,37.55Z"/><path class="cls-2" d="M75,24A51,51,0,1,1,24,75,51.06,51.06,0,0,1,75,24m0-2a53,53,0,1,0,53,53A53,53,0,0,0,75,22Z"/><circle class="cls-1" cx="75" cy="75" r="53"/><text class="cls-3" transform="matrix(0.84, -0.55, 0.55, 0.84, 49.24, 43.93)">H</text><text class="cls-3" transform="translate(58.69 38.12) rotate(-18.13)">A</text><text class="cls-3" transform="translate(68.33 35.22) rotate(-3.73)">A</text><text class="cls-3" transform="translate(78.5 34.98) rotate(7.28)">I</text><text class="cls-3" transform="translate(83.91 35.63) rotate(18.47)">A</text><text class="cls-3" transform="translate(93.39 39) rotate(33.58)">H</text><text class="cls-3" transform="matrix(0.83, 0.56, -0.56, 0.83, 45, 112.73)">C</text><text class="cls-3" transform="matrix(0.94, 0.33, -0.33, 0.94, 54.95, 118.92)">H</text><text class="cls-3" transform="translate(67.27 122.56) rotate(5.11)">E</text><text class="cls-3" transform="translate(77.65 123.11) rotate(-6.9)">S</text><text class="cls-3" transform="translate(87.55 121.55) rotate(-19.14)">E</text><text class="cls-3" transform="translate(97.44 117.79) rotate(-33.09)">D</text></g></svg>