<svg xmlns="http://www.w3.org/2000/svg" viewBox="0 0 150 150"><defs><style>.cls-1{fill:none;stroke:#231f20;stroke-miterlimit:10;stroke-width:4px;}.cls-2,.cls-3{fill:#231f20;}.cls-3{font-size:12px;font-family:Lato-Medium, Lato;font-weight:500;}</style></defs><g id="Symbols"><path class="cls-1" d="M92.93,62.75a2.76,2.76,0,1,1,2.83-2.68A2.76,2.76,0,0,1,92.93,62.75Z"/><path class="cls-1" d="M83.69,99.17a2.75,2.75,0,1,1,2.83-2.67A2.76,2.76,0,0,1,83.69,99.17Z"/><path class="cls-1" d="M56.91,62.75a2.76,2.76,0,1,1,2.84-2.68A2.75,2.75,0,0,1,56.91,62.75Z"/><path class="cls-1" d="M56.91,78.76a2.76,2.76,0,1,1,2.84-2.67A2.74,2.74,0,0,1,56.91,78.76Z"/><path class="cls-1" d="M92.73,61.79V74.42c0,6.94-7.82,6.66-17.38-.63L58,60.55"/><path class="cls-1" d="M58.88,78,70,86.47V63.86a7,7,0,1,1,14.07,0V93.68"/></g><g id="Layer_3" data-name="Layer 3"><path class="cls-2" d="M75,41.55A33.45,33.45,0,1,1,41.55,75,33.48,33.48,0,0,1,75,41.55m0-4A37.45,37.45,0,1,0,112.45,75,37.45,37.45,0,0,0,75,37.55Z"/><path class="cls-2" d="M75,24A51,51,0,1,1,24,75,51.06,51.06,0,0,1,75,24m0-2a53,53,0,1,0,53,53A53,53,0,0,0,75,22Z"/><circle class="cls-1" cx="75" cy="75" r="53"/><text class="cls-3" transform="translate(44.6 48.47) rotate(-42.43)">H</text><text class="cls-3" transform="translate(52.98 41.23) rotate(-27.42)">A</text><text class="cls-3" transform="translate(62.04 36.8) rotate(-12.96)">A</text><text class="cls-3" transform="translate(71.85 34.61) rotate(3.34)">M</text><text class="cls-3" transform="translate(84.88 36.04) rotate(16.56)">I</text><text class="cls-3" transform="translate(90.09 37.56) rotate(27.73)">A</text><text class="cls-3" transform="matrix(0.73, 0.68, -0.68, 0.73, 98.91, 42.4)">H</text><text class="cls-3" transform="translate(45.43 113.06) rotate(33.19)">K</text><text class="cls-3" transform="translate(55.38 119) rotate(19.97)">E</text><text class="cls-3" transform="translate(65.34 122.22) rotate(7.32)">T</text><text class="cls-3" transform="translate(76.03 123.27) rotate(-6.53)">H</text><text class="cls-3" transform="matrix(0.94, -0.35, 0.35, 0.94, 88.69, 121.24)">E</text><text class="cls-3" transform="translate(98.39 117.2) rotate(-33.48)">R</text></g></svg>