<svg id="Symbols" xmlns="http://www.w3.org/2000/svg" viewBox="0 0 150 150"><defs><style>.cls-1,.cls-2{fill:none;stroke:#231f20;stroke-width:8px;}.cls-1{stroke-linejoin:bevel;}.cls-2{stroke-miterlimit:10;}</style></defs><path class="cls-1" d="M118.31,38.16a6.66,6.66,0,1,1,6.85-6.46A6.67,6.67,0,0,1,118.31,38.16Z"/><path class="cls-1" d="M96,126.16a6.66,6.66,0,1,1,6.85-6.46A6.67,6.67,0,0,1,96,126.16Z"/><path class="cls-1" d="M31.31,38.16a6.66,6.66,0,1,1,6.85-6.46A6.67,6.67,0,0,1,31.31,38.16Z"/><path class="cls-1" d="M31.31,76.84a6.66,6.66,0,1,1,6.85-6.46A6.67,6.67,0,0,1,31.31,76.84Z"/><path class="cls-1" d="M117.84,35.84v30.5c0,16.78-11.81,21.5-26.25,10.5l-57.75-44"/><path class="cls-2" d="M36.05,75,62.84,95.46V40.84a17,17,0,0,1,34,0v72"/></svg>