<svg xmlns="http://www.w3.org/2000/svg" viewBox="0 0 150 150"><defs><style>.cls-1,.cls-2{fill:none;stroke:#231f20;stroke-miterlimit:10;}.cls-1{stroke-width:2px;}.cls-2{stroke-width:4px;}.cls-3,.cls-4{fill:#231f20;}.cls-4{font-size:12px;font-family:Lato-Medium, Lato;font-weight:500;}</style></defs><g id="Symbols"><polyline class="cls-1" points="64.87 81.78 60 81 61.6 80.36 61.68 75"/><polyline class="cls-1" points="61.68 75 61.54 69.63 60 69 64.81 68.24"/><path class="cls-2" d="M95,67.93A3,3,0,1,1,98.09,65,3,3,0,0,1,95,67.93Z"/><path class="cls-2" d="M49.91,75H72.12V66.2a6.12,6.12,0,1,1,12.23,0V89.92l10-23"/><line class="cls-2" x1="51.72" y1="71.87" x2="51.72" y2="78.21"/></g><g id="Layer_3" data-name="Layer 3"><path class="cls-3" d="M75,41.55A33.45,33.45,0,1,1,41.55,75,33.48,33.48,0,0,1,75,41.55m0-4A37.45,37.45,0,1,0,112.45,75,37.45,37.45,0,0,0,75,37.55Z"/><path class="cls-3" d="M75,24A51,51,0,1,1,24,75,51.06,51.06,0,0,1,75,24m0-2a53,53,0,1,0,53,53A53,53,0,0,0,75,22Z"/><circle class="cls-2" cx="75" cy="75" r="53"/><text class="cls-4" transform="matrix(0.75, -0.66, 0.66, 0.75, 45.23, 47.77)">H</text><text class="cls-4" transform="translate(53.78 40.72) rotate(-26.07)">A</text><text class="cls-4" transform="translate(62.91 36.46) rotate(-10.9)">H</text><text class="cls-4" transform="translate(73.84 34.68) rotate(4.02)">A</text><text class="cls-4" transform="translate(83.95 35.82) rotate(15.18)">I</text><text class="cls-4" transform="translate(89.21 37.21) rotate(26.38)">A</text><text class="cls-4" transform="translate(98.15 41.86) rotate(41.42)">H</text><text class="cls-4" transform="translate(37.04 104.78) rotate(46.46)">H</text><text class="cls-4" transform="matrix(0.86, 0.51, -0.51, 0.86, 46.33, 113.85)">O</text><text class="cls-4" transform="translate(58.12 120.18) rotate(15.76)">C</text><text class="cls-4" transform="translate(69.48 122.95) rotate(1.32)">H</text><text class="cls-4" transform="translate(82.62 122.8) rotate(-15.6)">M</text><text class="cls-4" transform="translate(96.85 118.05) rotate(-31.75)">A</text><text class="cls-4" transform="matrix(0.69, -0.72, 0.72, 0.69, 106.73, 111.44)">N</text></g></svg>