<svg id="Symbols" xmlns="http://www.w3.org/2000/svg" viewBox="0 0 150 150"><defs><style>.cls-1{fill:none;stroke:#231f20;stroke-linejoin:bevel;stroke-width:8px;}</style></defs><path class="cls-1" d="M30.65,126.16a6.66,6.66,0,1,1,6.85-6.46A6.67,6.67,0,0,1,30.65,126.16Z"/><path class="cls-1" d="M119,68.84a6.66,6.66,0,1,1,6.85-6.46A6.67,6.67,0,0,1,119,68.84Z"/><path class="cls-1" d="M115.61,67.8,81.87,118.72,70.28,80.84,65.47,65.09,55.89,33.75a14,14,0,0,0-26.77,8.19L45.43,95.32l9.2,30.08L70.28,80.85h0l17.22-49-22,33.25-20,30.23h0L32.5,114.84"/></svg>