<svg xmlns="http://www.w3.org/2000/svg" viewBox="0 0 150 150"><defs><style>.cls-1,.cls-2{fill:none;stroke:#231f20;stroke-miterlimit:10;}.cls-1{stroke-width:2px;}.cls-2{stroke-width:4px;}.cls-3,.cls-4{fill:#231f20;}.cls-4{font-size:12px;font-family:Lato-Medium, Lato;font-weight:500;}</style></defs><g id="Symbols"><polyline class="cls-1" points="57.99 68.01 58 63 59.31 64.95 64.32 65.03"/><polyline class="cls-1" points="70.76 68.01 70.75 63 69.44 64.95 64.43 65.03"/><path class="cls-2" d="M64.34,59.28a3,3,0,1,1,3.11-2.93A3,3,0,0,1,64.34,59.28Z"/><path class="cls-2" d="M94.85,66.39A3,3,0,1,1,98,63.46,3,3,0,0,1,94.85,66.39Z"/><path class="cls-2" d="M64.28,59.59V72.28h-7a5.22,5.22,0,0,0,0,10.43h7v14L92.83,65.48"/></g><g id="Layer_3" data-name="Layer 3"><path class="cls-3" d="M75,41.55A33.45,33.45,0,1,1,41.55,75,33.48,33.48,0,0,1,75,41.55m0-4A37.45,37.45,0,1,0,112.45,75,37.44,37.44,0,0,0,75,37.55Z"/><path class="cls-3" d="M75,24A51,51,0,1,1,24,75,51.06,51.06,0,0,1,75,24m0-2a53,53,0,1,0,53,53A53,53,0,0,0,75,22Z"/><circle class="cls-2" cx="75" cy="75" r="53"/><text class="cls-4" transform="translate(44.86 48.17) rotate(-41.88)">H</text><text class="cls-4" transform="translate(53.31 41.02) rotate(-26.86)">A</text><text class="cls-4" transform="translate(62.38 36.63) rotate(-11.71)">H</text><text class="cls-4" transform="matrix(1, 0.06, -0.06, 1, 73.29, 34.7)">A</text><text class="cls-4" transform="translate(83.33 35.45) rotate(18.34)">H</text><text class="cls-4" transform="matrix(0.84, 0.54, -0.54, 0.84, 93.72, 39.29)">E</text><text class="cls-4" transform="translate(101.09 44.3) rotate(44.71)">L</text><text class="cls-4" transform="translate(49.26 115.74) rotate(27.91)">Y</text><text class="cls-4" transform="matrix(0.97, 0.26, -0.26, 0.97, 59.27, 120.55)">E</text><text class="cls-4" transform="translate(69.42 122.85) rotate(2.8)">S</text><text class="cls-4" transform="matrix(0.98, -0.19, 0.19, 0.98, 79.59, 123.1)">O</text><text class="cls-4" transform="translate(92.67 119.97) rotate(-26.86)">D</text></g></svg>