<svg xmlns="http://www.w3.org/2000/svg" viewBox="0 0 150 150"><defs><style>.cls-1{fill:none;stroke:#231f20;stroke-miterlimit:10;stroke-width:4px;}.cls-2,.cls-3{fill:#231f20;}.cls-3{font-size:12px;font-family:Lato-Medium, Lato;font-weight:500;}</style></defs><g id="Symbols"><path class="cls-1" d="M59.21,94.42a2.79,2.79,0,1,1,2.87-2.7A2.78,2.78,0,0,1,59.21,94.42Z"/><path class="cls-1" d="M96.73,70.75a2.79,2.79,0,0,1,.16-5.57,2.79,2.79,0,1,1-.16,5.57Z"/><path class="cls-1" d="M61,89.4l5-7.56,8.38-12.65L83,55h1L76.36,75.78,69.81,94.43,66,81.84,59.13,59.5A5.86,5.86,0,0,1,63,52.18a6,6,0,0,1,1.71-.26,5.86,5.86,0,0,1,5.6,4.15l4,13.12,2,6.59,4.85,15.85L95.33,70.32"/></g><g id="Layer_3" data-name="Layer 3"><path class="cls-2" d="M75,41.55A33.45,33.45,0,1,1,41.55,75,33.48,33.48,0,0,1,75,41.55m0-4A37.45,37.45,0,1,0,112.45,75,37.45,37.45,0,0,0,75,37.55Z"/><path class="cls-2" d="M75,24A51,51,0,1,1,24,75,51.06,51.06,0,0,1,75,24m0-2a53,53,0,1,0,53,53A53,53,0,0,0,75,22Z"/><circle class="cls-1" cx="75" cy="75" r="53"/><text class="cls-3" transform="matrix(0.68, -0.73, 0.73, 0.68, 42.52, 51.06)">H</text><text class="cls-3" transform="translate(50.28 43.16) rotate(-32.14)">A</text><text class="cls-3" transform="translate(58.91 37.96) rotate(-17.02)">H</text><text class="cls-3" transform="matrix(1, -0.03, 0.03, 1, 69.6, 35.03)">A</text><text class="cls-3" transform="matrix(0.98, 0.19, -0.19, 0.98, 79.69, 35)">S</text><text class="cls-3" transform="translate(88.04 36.98) rotate(21.3)">I</text><text class="cls-3" transform="matrix(0.84, 0.54, -0.54, 0.84, 93.12, 38.92)">A</text><text class="cls-3" transform="translate(101.51 44.48) rotate(47.44)">H</text><text class="cls-3" transform="matrix(0.83, 0.56, -0.56, 0.83, 44.54, 112.42)">N</text><text class="cls-3" transform="matrix(0.94, 0.34, -0.34, 0.94, 55.51, 119.06)">E</text><text class="cls-3" transform="translate(65.49 122.25) rotate(7.14)">T</text><text class="cls-3" transform="translate(76.06 123.19) rotate(-5.43)">Z</text><text class="cls-3" transform="translate(86.82 121.79) rotate(-18.97)">A</text><text class="cls-3" transform="matrix(0.83, -0.56, 0.56, 0.83, 97.93, 117.53)">H</text></g></svg>