<svg id="Symbols" xmlns="http://www.w3.org/2000/svg" viewBox="0 0 150 150"><defs><style>.cls-1,.cls-2{fill:none;stroke:#231f20;stroke-width:8px;}.cls-1{stroke-linejoin:bevel;}.cls-2{stroke-miterlimit:10;}</style></defs><polyline class="cls-1" points="90.34 54.98 100.59 47 97.66 52.08 105.9 60.59"/><polyline class="cls-1" points="105.9 60.59 114.5 68.75 119.62 65.85 111.57 76"/><polyline class="cls-1" points="37.47 56.58 38.97 44.56 40.38 49.84 51.43 50.01"/><polyline class="cls-1" points="51.43 50.01 62.49 49.73 63.96 44.44 65.34 56.44"/><path class="cls-1" d="M51.49,37.32a6.66,6.66,0,1,1,6.85-6.46A6.68,6.68,0,0,1,51.49,37.32Z"/><path class="cls-1" d="M118.81,53a6.66,6.66,0,1,1,6.85-6.46A6.67,6.67,0,0,1,118.81,53Z"/><path class="cls-2" d="M51.34,38V66H35.84a11.5,11.5,0,0,0,0,23h15.5v31l63-69"/></svg>