<svg id="Symbols" xmlns="http://www.w3.org/2000/svg" viewBox="0 0 150 150"><defs><style>.cls-1,.cls-2{fill:none;stroke:#231f20;stroke-width:8px;}.cls-1{stroke-linejoin:bevel;}.cls-2{stroke-miterlimit:10;}</style></defs><polyline class="cls-1" points="88.84 112.34 75.96 110.73 81.61 109.21 81.81 97.37"/><polyline class="cls-1" points="81.81 97.37 81.5 85.52 75.83 83.95 88.7 82.46"/><polyline class="cls-1" points="70.17 59.56 63.84 51.43 67.87 53.76 74.62 47.22"/><polyline class="cls-1" points="74.62 47.22 81.09 40.4 78.79 36.34 86.84 42.73"/><path class="cls-1" d="M114.24,123.08a6.66,6.66,0,1,1,9.34,1.18A6.65,6.65,0,0,1,114.24,123.08Z"/><path class="cls-1" d="M57.92,35.08a6.66,6.66,0,1,1,9.34,1.18A6.65,6.65,0,0,1,57.92,35.08Z"/><path class="cls-2" d="M66.88,36.53l24,30.81h-52A15.28,15.28,0,0,0,28.2,72,14.88,14.88,0,0,0,38.73,97.36h62.1v-6.7a9.07,9.07,0,0,1,18.14,0v21.72"/></svg>