<svg xmlns="http://www.w3.org/2000/svg" viewBox="0 0 150 150"><defs><style>.cls-1,.cls-2{fill:none;stroke:#231f20;}.cls-1{stroke-linejoin:bevel;stroke-width:2px;}.cls-2{stroke-miterlimit:10;stroke-width:4px;}.cls-3,.cls-4{fill:#231f20;}.cls-4{font-size:12px;font-family:Lato-Medium, Lato;font-weight:500;}</style></defs><g id="Symbols"><polyline class="cls-1" points="78.32 88.76 72.61 88.05 75.12 87.38 75.2 82.13"/><polyline class="cls-1" points="75.2 82.13 75.07 76.88 72.55 76.18 78.26 75.52"/><polyline class="cls-1" points="69.95 65.23 67.36 61.47 69.08 62.6 72.24 59.88"/><polyline class="cls-1" points="72.24 59.88 75.28 57.04 74.5 55.1 77.76 58.22"/><path class="cls-2" d="M89.58,93.52a2.95,2.95,0,1,1,4.14.53A2.95,2.95,0,0,1,89.58,93.52Z"/><path class="cls-2" d="M64.62,54.53a3,3,0,1,1,4.14.52A3,3,0,0,1,64.62,54.53Z"/><path class="cls-2" d="M68.59,55.17,79.21,68.82h-23a6.79,6.79,0,0,0-4.71,2,6.6,6.6,0,0,0,4.66,11.26H83.64v-3a4,4,0,1,1,8,0v9.62"/></g><g id="Layer_3" data-name="Layer 3"><path class="cls-3" d="M75,41.55A33.45,33.45,0,1,1,41.55,75,33.48,33.48,0,0,1,75,41.55m0-4A37.45,37.45,0,1,0,112.45,75,37.45,37.45,0,0,0,75,37.55Z"/><path class="cls-3" d="M75,24A51,51,0,1,1,24,75,51.06,51.06,0,0,1,75,24m0-2a53,53,0,1,0,53,53A53,53,0,0,0,75,22Z"/><circle class="cls-2" cx="75" cy="75" r="53"/><text class="cls-4" transform="matrix(0.76, -0.65, 0.65, 0.76, 45.37, 47.61)">H</text><text class="cls-4" transform="translate(53.96 40.61) rotate(-25.77)">A</text><text class="cls-4" transform="translate(63.17 36.47) rotate(-11.71)">R</text><text class="cls-4" transform="translate(72.51 34.74) rotate(2.17)">A</text><text class="cls-4" transform="matrix(0.96, 0.3, -0.3, 0.96, 82.57, 35.3)">H</text><text class="cls-4" transform="translate(93.04 38.95) rotate(31.51)">E</text><text class="cls-4" transform="matrix(0.72, 0.69, -0.69, 0.72, 100.51, 43.82)">L</text><text class="cls-4" transform="translate(57.62 120.04) rotate(15.67)">H</text><text class="cls-4" transform="translate(70.3 123.11) rotate(-0.54)">O</text><text class="cls-4" transform="translate(83.68 122.51) rotate(-15.68)">D</text></g></svg>