<svg xmlns="http://www.w3.org/2000/svg" viewBox="0 0 150 150"><defs><style>.cls-1{fill:none;stroke:#231f20;stroke-miterlimit:10;stroke-width:4px;}.cls-2,.cls-3{fill:#231f20;}.cls-3{font-size:12px;font-family:Lato-Medium, Lato;font-weight:500;}</style></defs><g id="Symbols"><path class="cls-1" d="M78,99.1a3.1,3.1,0,1,1,4.34.54A3.1,3.1,0,0,1,78,99.1Z"/><path class="cls-1" d="M94.42,71.17a3.1,3.1,0,1,1,4.35.55A3.1,3.1,0,0,1,94.42,71.17Z"/><path class="cls-1" d="M79.05,94.42,60.13,61.56a6.05,6.05,0,1,1,10.5-6L80.74,75l.93-.46L85.4,52.68h-.47L52.82,83.86v.93L95.63,69.9"/></g><g id="Layer_3" data-name="Layer 3"><path class="cls-2" d="M75,41.55A33.45,33.45,0,1,1,41.55,75,33.48,33.48,0,0,1,75,41.55m0-4A37.45,37.45,0,1,0,112.45,75,37.44,37.44,0,0,0,75,37.55Z"/><path class="cls-2" d="M75,24A51,51,0,1,1,24,75,51.06,51.06,0,0,1,75,24m0-2a53,53,0,1,0,53,53A53,53,0,0,0,75,22Z"/><circle class="cls-1" cx="75" cy="75" r="53"/><text class="cls-3" transform="translate(51.2 42.4) rotate(-29.72)">H</text><text class="cls-3" transform="translate(60.98 37.18) rotate(-14.57)">A</text><text class="cls-3" transform="translate(70.81 34.91) rotate(-0.65)">R</text><text class="cls-3" transform="translate(80.39 35.18) rotate(9.99)">I</text><text class="cls-3" transform="translate(85.75 36.15) rotate(20.33)">E</text><text class="cls-3" transform="matrix(0.84, 0.54, -0.54, 0.84, 94.01, 39.48)">L</text><text class="cls-3" transform="translate(37.04 104.78) rotate(46.46)">H</text><text class="cls-3" transform="matrix(0.86, 0.51, -0.51, 0.86, 46.33, 113.85)">O</text><text class="cls-3" transform="translate(58.12 120.18) rotate(15.76)">C</text><text class="cls-3" transform="translate(69.48 122.95) rotate(1.32)">H</text><text class="cls-3" transform="translate(82.62 122.8) rotate(-15.6)">M</text><text class="cls-3" transform="translate(96.85 118.05) rotate(-31.75)">A</text><text class="cls-3" transform="matrix(0.69, -0.72, 0.72, 0.69, 106.73, 111.44)">N</text></g></svg>