<svg id="Symbols" xmlns="http://www.w3.org/2000/svg" viewBox="0 0 150 150"><defs><style>.cls-1,.cls-2{fill:none;stroke:#231f20;stroke-width:8px;}.cls-1{stroke-linejoin:bevel;}.cls-2{stroke-miterlimit:10;}</style></defs><path class="cls-1" d="M114.58,97.08a6.66,6.66,0,1,1,9.34,1.18A6.65,6.65,0,0,1,114.58,97.08Z"/><path class="cls-1" d="M65.9,35.08a6.66,6.66,0,1,1,9.34,1.18A6.65,6.65,0,0,1,65.9,35.08Z"/><polyline class="cls-2" points="73.5 37.23 95.44 92.66 108.5 125.66 106.5 125.66 67.92 92.66 52.5 92.66 49.5 92.66 49.5 125.66 47.5 125.66 23.5 55.66 23.5 54.66 67.92 92.66 95.44 92.66 113.5 92.66"/></svg>