<svg xmlns="http://www.w3.org/2000/svg" viewBox="0 0 150 150"><defs><style>.cls-1{fill:none;stroke:#231f20;stroke-miterlimit:10;stroke-width:4px;}.cls-2,.cls-3{fill:#231f20;}.cls-3{font-size:12px;font-family:Lato-Medium, Lato;font-weight:500;}</style></defs><g id="Symbols"><path class="cls-1" d="M93.39,81.41a3,3,0,1,1,4.15.52A3,3,0,0,1,93.39,81.41Z"/><path class="cls-1" d="M71.75,53.84a3,3,0,1,1,4.15.53A3,3,0,0,1,71.75,53.84Z"/><polyline class="cls-1" points="75.13 54.8 84.88 79.44 90.69 94.11 89.8 94.11 72.65 79.44 65.79 79.44 64.46 79.44 64.46 94.11 63.57 94.11 52.9 62.99 52.9 62.55 72.65 79.44 84.88 79.44 92.91 79.44"/></g><g id="Layer_3" data-name="Layer 3"><path class="cls-2" d="M75,41.55A33.45,33.45,0,1,1,41.55,75,33.48,33.48,0,0,1,75,41.55m0-4A37.45,37.45,0,1,0,112.45,75,37.44,37.44,0,0,0,75,37.55Z"/><path class="cls-2" d="M75,24A51,51,0,1,1,24,75,51.06,51.06,0,0,1,75,24m0-2a53,53,0,1,0,53,53A53,53,0,0,0,75,22Z"/><circle class="cls-1" cx="75" cy="75" r="53"/><text class="cls-3" transform="translate(51.33 42.31) rotate(-29.51)">H</text><text class="cls-3" transform="matrix(0.97, -0.25, 0.25, 0.97, 61.13, 37.13)">A</text><text class="cls-3" transform="translate(70.97 34.91) rotate(-0.65)">Z</text><text class="cls-3" transform="translate(80.23 35.16) rotate(9.76)">I</text><text class="cls-3" transform="matrix(0.94, 0.34, -0.34, 0.94, 85.6, 36.11)">E</text><text class="cls-3" transform="translate(93.87 39.41) rotate(32.33)">L</text><text class="cls-3" transform="translate(37.04 104.78) rotate(46.46)">H</text><text class="cls-3" transform="matrix(0.86, 0.51, -0.51, 0.86, 46.33, 113.85)">O</text><text class="cls-3" transform="translate(58.12 120.18) rotate(15.76)">C</text><text class="cls-3" transform="translate(69.48 122.95) rotate(1.32)">H</text><text class="cls-3" transform="translate(82.62 122.8) rotate(-15.6)">M</text><text class="cls-3" transform="translate(96.85 118.05) rotate(-31.75)">A</text><text class="cls-3" transform="matrix(0.69, -0.72, 0.72, 0.69, 106.73, 111.44)">N</text></g></svg>