<svg xmlns="http://www.w3.org/2000/svg" viewBox="0 0 150 150"><defs><style>.cls-1{fill:none;stroke:#231f20;stroke-miterlimit:10;stroke-width:4px;}.cls-2,.cls-3{fill:#231f20;}.cls-3{font-size:12px;font-family:Lato-Medium, Lato;font-weight:500;}</style></defs><g id="Symbols"><path class="cls-1" d="M92.61,66a3,3,0,1,1,4.25.54A3,3,0,0,1,92.61,66Z"/><path class="cls-1" d="M75.34,65.57a3,3,0,1,1,4.24.54A3,3,0,0,1,75.34,65.57Z"/><polyline class="cls-1" points="91.98 64.25 86.28 64.25 80.7 64.25"/><path class="cls-1" d="M86.28,57.87a3,3,0,1,1,3.11-2.94A3,3,0,0,1,86.28,57.87Z"/><path class="cls-1" d="M54.91,72.72A3,3,0,1,1,58,69.79,3,3,0,0,1,54.91,72.72Z"/><path class="cls-1" d="M86.28,57.87V98.19H84.85L63.93,80.46h2.83a5.23,5.23,0,0,0,0-10.46H58"/></g><g id="Layer_3" data-name="Layer 3"><path class="cls-2" d="M75,41.55A33.45,33.45,0,1,1,41.55,75,33.48,33.48,0,0,1,75,41.55m0-4A37.45,37.45,0,1,0,112.45,75,37.45,37.45,0,0,0,75,37.55Z"/><path class="cls-2" d="M75,24A51,51,0,1,1,24,75,51.06,51.06,0,0,1,75,24m0-2a53,53,0,1,0,53,53A53,53,0,0,0,75,22Z"/><circle class="cls-1" cx="75" cy="75" r="53"/><text class="cls-3" transform="translate(41.9 51.93) rotate(-48.62)">H</text><text class="cls-3" transform="translate(49.5 43.87) rotate(-34.51)">E</text><text class="cls-3" transform="matrix(0.93, -0.36, 0.36, 0.93, 56.92, 38.96)">K</text><text class="cls-3" transform="translate(66.26 35.62) rotate(-6.72)">A</text><text class="cls-3" transform="matrix(0.99, 0.17, -0.17, 0.99, 76.27, 34.5)">M</text><text class="cls-3" transform="translate(89.05 37.34) rotate(22.84)">I</text><text class="cls-3" transform="matrix(0.83, 0.56, -0.56, 0.83, 94.06, 39.41)">A</text><text class="cls-3" transform="matrix(0.66, 0.75, -0.75, 0.66, 102.3, 45.19)">H</text><text class="cls-3" transform="translate(37.04 104.78) rotate(46.46)">H</text><text class="cls-3" transform="matrix(0.86, 0.51, -0.51, 0.86, 46.33, 113.85)">O</text><text class="cls-3" transform="translate(58.12 120.18) rotate(15.76)">C</text><text class="cls-3" transform="translate(69.48 122.95) rotate(1.32)">H</text><text class="cls-3" transform="translate(82.62 122.8) rotate(-15.6)">M</text><text class="cls-3" transform="translate(96.85 118.05) rotate(-31.75)">A</text><text class="cls-3" transform="matrix(0.69, -0.72, 0.72, 0.69, 106.73, 111.44)">N</text></g></svg>