<svg id="Symbols" xmlns="http://www.w3.org/2000/svg" viewBox="0 0 150 150"><defs><style>.cls-1,.cls-2{fill:none;stroke:#231f20;stroke-width:8px;}.cls-1{stroke-linejoin:bevel;}.cls-2{stroke-miterlimit:10;}</style></defs><path class="cls-1" d="M113.74,55.27a6.66,6.66,0,1,1,9.34,1.18A6.65,6.65,0,0,1,113.74,55.27Z"/><path class="cls-1" d="M75.74,54.26a6.66,6.66,0,1,1,9.34,1.18A6.65,6.65,0,0,1,75.74,54.26Z"/><line class="cls-2" x1="116.41" y1="51.35" x2="84.71" y2="51.36"/><path class="cls-1" d="M99.81,37.32a6.66,6.66,0,1,1,6.85-6.46A6.68,6.68,0,0,1,99.81,37.32Z"/><path class="cls-1" d="M30.81,70a6.66,6.66,0,1,1,6.85-6.46A6.67,6.67,0,0,1,30.81,70Z"/><path class="cls-2" d="M99.81,37.32V126H96.66l-46-39h6.21a11.5,11.5,0,1,0,0-23H37.63"/></svg>