<svg xmlns="http://www.w3.org/2000/svg" viewBox="0 0 150 150"><defs><style>.cls-1{fill:none;stroke:#231f20;stroke-miterlimit:10;stroke-width:4px;}.cls-2,.cls-3{fill:#231f20;}.cls-3{font-size:12px;font-family:Lato-Medium, Lato;font-weight:500;}</style></defs><g id="Symbols"><path class="cls-1" d="M91.31,85a3,3,0,1,1,2.44,3.48A3,3,0,0,1,91.31,85Z"/><path class="cls-1" d="M80.11,72a3,3,0,1,1,2.44,3.49A3,3,0,0,1,80.11,72Z"/><line class="cls-1" x1="93.44" y1="84.7" x2="83.81" y2="74.08"/><path class="cls-1" d="M93.1,74.87a3,3,0,1,1,4.24.34A3,3,0,0,1,93.1,74.87Z"/><path class="cls-1" d="M77,58.82a3,3,0,1,1,4.25.33A3,3,0,0,1,77,58.82Z"/><path class="cls-1" d="M93.1,74.88l-23,21.27h-.45L75,78.25a3.53,3.53,0,0,0,.15-1.06A3.65,3.65,0,0,0,68,76.13l-5.06,15h-.46l-1.79-17.5L57.93,56.36h-.45L51.6,82.13h.45l8.61-8.46L77,58.83"/></g><g id="Layer_3" data-name="Layer 3"><path class="cls-2" d="M75,41.55A33.45,33.45,0,1,1,41.55,75,33.48,33.48,0,0,1,75,41.55m0-4A37.45,37.45,0,1,0,112.45,75,37.45,37.45,0,0,0,75,37.55Z"/><path class="cls-2" d="M75,24A51,51,0,1,1,24,75,51.06,51.06,0,0,1,75,24m0-2a53,53,0,1,0,53,53A53,53,0,0,0,75,22Z"/><circle class="cls-1" cx="75" cy="75" r="53"/><text class="cls-3" transform="translate(48.29 45.05) rotate(-39.39)">I</text><text class="cls-3" transform="translate(52.47 41.57) rotate(-28.29)">A</text><text class="cls-3" transform="translate(61.43 36.96) rotate(-13.14)">H</text><text class="cls-3" transform="translate(72.35 34.89) rotate(-0.65)">-</text><text class="cls-3" transform="translate(78.83 34.78) rotate(11.83)">H</text><text class="cls-3" transform="translate(89.62 37.43) rotate(26.16)">E</text><text class="cls-3" transform="translate(97.48 41.57) rotate(38.3)">L</text><text class="cls-3" transform="translate(57.62 120.04) rotate(15.67)">H</text><text class="cls-3" transform="translate(70.3 123.11) rotate(-0.54)">O</text><text class="cls-3" transform="translate(83.68 122.51) rotate(-15.68)">D</text></g></svg>