<svg id="Symbols" xmlns="http://www.w3.org/2000/svg" viewBox="0 0 150 150"><defs><style>.cls-1,.cls-2{fill:none;stroke:#231f20;stroke-width:8px;}.cls-1{stroke-linejoin:bevel;}.cls-2{stroke-miterlimit:10;}</style></defs><path class="cls-1" d="M111.67,96.63a6.51,6.51,0,1,1,5.28,7.55A6.5,6.5,0,0,1,111.67,96.63Z"/><path class="cls-1" d="M87.42,68.42A6.52,6.52,0,1,1,92.71,76,6.52,6.52,0,0,1,87.42,68.42Z"/><line class="cls-2" x1="116.27" y1="95.99" x2="95.43" y2="73.02"/><path class="cls-1" d="M115.53,74.73a6.52,6.52,0,1,1,9.19.72A6.51,6.51,0,0,1,115.53,74.73Z"/><path class="cls-1" d="M80.78,40A6.51,6.51,0,1,1,90,40.7,6.52,6.52,0,0,1,80.78,40Z"/><path class="cls-2" d="M115.53,74.73l-49.68,46h-1L76.27,82a7.9,7.9,0,0,0-15.12-4.59L50.19,110h-1L45.32,72.13l-5.9-37.48h-1L25.72,90.43h1l18.62-18.3L80.78,40"/></svg>