<svg xmlns="http://www.w3.org/2000/svg" viewBox="0 0 150 150"><defs><style>.cls-1,.cls-2{fill:none;stroke:#231f20;stroke-width:4px;}.cls-1{stroke-linejoin:bevel;}.cls-2{stroke-miterlimit:10;}.cls-3,.cls-4{fill:#231f20;}.cls-4{font-size:12px;font-family:Lato-Medium, Lato;font-weight:500;}</style></defs><g id="Symbols"><path class="cls-1" d="M96.25,62.5a2.92,2.92,0,1,1-2.92-2.91A2.92,2.92,0,0,1,96.25,62.5Z"/><path class="cls-1" d="M82.92,60.42A2.92,2.92,0,1,1,80,57.5,2.92,2.92,0,0,1,82.92,60.42Z"/><path class="cls-1" d="M96.66,77.08a2.92,2.92,0,1,1-2.91-2.91A2.91,2.91,0,0,1,96.66,77.08Z"/><line class="cls-2" x1="91.87" y1="74.86" x2="82.07" y2="62.47"/><path class="cls-2" d="M53.34,53.75l2.18,3.09a5.41,5.41,0,0,0,6.7,8.47l6.12,7.75V96.25H86.66L68.34,73.06V57.92L80.83,74.58l10.47-10"/></g><g id="Layer_3" data-name="Layer 3"><path class="cls-3" d="M75,41.55A33.45,33.45,0,1,1,41.55,75,33.48,33.48,0,0,1,75,41.55m0-4A37.45,37.45,0,1,0,112.45,75,37.45,37.45,0,0,0,75,37.55Z"/><path class="cls-3" d="M75,24A51,51,0,1,1,24,75,51.06,51.06,0,0,1,75,24m0-2a53,53,0,1,0,53,53A53,53,0,0,0,75,22Z"/><circle class="cls-2" cx="75" cy="75" r="53"/><text class="cls-4" transform="translate(50.21 43.44) rotate(-35.84)">I</text><text class="cls-4" transform="translate(54.65 40.26) rotate(-25.55)">E</text><text class="cls-4" transform="matrix(0.97, -0.26, 0.26, 0.97, 62.88, 36.71)">I</text><text class="cls-4" transform="matrix(1, -0.07, 0.07, 1, 68.11, 35.26)">A</text><text class="cls-4" transform="matrix(0.99, 0.17, -0.17, 0.99, 78.21, 34.83)">Z</text><text class="cls-4" transform="translate(87.22 36.59) rotate(22.53)">E</text><text class="cls-4" transform="translate(95.36 40.24) rotate(34.74)">L</text><text class="cls-4" transform="translate(37.04 104.78) rotate(46.46)">H</text><text class="cls-4" transform="matrix(0.86, 0.51, -0.51, 0.86, 46.33, 113.85)">O</text><text class="cls-4" transform="translate(58.12 120.18) rotate(15.76)">C</text><text class="cls-4" transform="translate(69.48 122.95) rotate(1.32)">H</text><text class="cls-4" transform="translate(82.62 122.8) rotate(-15.6)">M</text><text class="cls-4" transform="translate(96.85 118.05) rotate(-31.75)">A</text><text class="cls-4" transform="matrix(0.69, -0.72, 0.72, 0.69, 106.73, 111.44)">N</text></g></svg>