<svg xmlns="http://www.w3.org/2000/svg" viewBox="0 0 150 150"><defs><style>.cls-1,.cls-2,.cls-3{fill:none;stroke:#231f20;}.cls-1,.cls-2{stroke-linejoin:bevel;}.cls-1,.cls-3{stroke-width:4px;}.cls-2{stroke-width:2px;}.cls-3{stroke-miterlimit:10;}.cls-4,.cls-5{fill:#231f20;}.cls-5{font-size:12px;font-family:Lato-Medium, Lato;font-weight:500;}</style></defs><g id="Symbols"><path class="cls-1" d="M80.11,58a2.65,2.65,0,1,1-2.65-2.65A2.64,2.64,0,0,1,80.11,58Z"/><polyline class="cls-2" points="68.18 81.06 67.51 86.37 66.89 84.04 62.01 83.96"/><polyline class="cls-2" points="62.01 83.96 57.13 84.08 56.48 86.42 55.87 81.12"/><polyline class="cls-3" points="78.55 60.37 82.58 69.16 93.75 54.92 94.13 54.92 94.13 93.56 93.75 93.56 82.58 69.16 74.43 79.55 62.31 54.92 61.93 54.92 61.93 95.08"/></g><g id="Layer_3" data-name="Layer 3"><path class="cls-4" d="M75,41.55A33.45,33.45,0,1,1,41.55,75,33.48,33.48,0,0,1,75,41.55m0-4A37.45,37.45,0,1,0,112.45,75,37.45,37.45,0,0,0,75,37.55Z"/><path class="cls-4" d="M75,24A51,51,0,1,1,24,75,51.06,51.06,0,0,1,75,24m0-2a53,53,0,1,0,53,53A53,53,0,0,0,75,22Z"/><circle class="cls-3" cx="75" cy="75" r="53"/><text class="cls-5" transform="matrix(0.71, -0.7, 0.7, 0.71, 45.73, 47.55)">I</text><text class="cls-5" transform="matrix(0.85, -0.52, 0.52, 0.85, 49.43, 43.61)">M</text><text class="cls-5" transform="translate(60.78 37.26) rotate(-14.88)">A</text><text class="cls-5" transform="translate(70.52 34.74) rotate(1.48)">M</text><text class="cls-5" transform="translate(83.59 35.74) rotate(14.65)">I</text><text class="cls-5" transform="translate(88.86 37.09) rotate(25.86)">A</text><text class="cls-5" transform="matrix(0.76, 0.65, -0.65, 0.76, 97.82, 41.63)">H</text><text class="cls-5" transform="translate(45.43 113.06) rotate(33.19)">K</text><text class="cls-5" transform="translate(55.38 119) rotate(19.97)">E</text><text class="cls-5" transform="translate(65.34 122.22) rotate(7.32)">T</text><text class="cls-5" transform="translate(76.03 123.27) rotate(-6.53)">H</text><text class="cls-5" transform="matrix(0.94, -0.35, 0.35, 0.94, 88.69, 121.24)">E</text><text class="cls-5" transform="translate(98.39 117.2) rotate(-33.48)">R</text></g></svg>