<svg xmlns="http://www.w3.org/2000/svg" viewBox="0 0 150 150"><defs><style>.cls-1,.cls-2{fill:none;stroke:#231f20;stroke-width:4px;}.cls-1{stroke-linejoin:bevel;}.cls-2{stroke-miterlimit:10;}.cls-3,.cls-4{fill:#231f20;}.cls-4{font-size:12px;font-family:Lato-Medium, Lato;font-weight:500;}</style></defs><g id="Symbols"><path class="cls-1" d="M94.81,57.91a2.72,2.72,0,1,1-2.72-2.72A2.72,2.72,0,0,1,94.81,57.91Z"/><path class="cls-1" d="M60.63,85.1a2.72,2.72,0,1,1-2.72-2.72A2.72,2.72,0,0,1,60.63,85.1Z"/><path class="cls-2" d="M89.37,57.91H60a4.86,4.86,0,0,0,0,9.71h32L72.59,85.1,61.76,94.81H90a4.86,4.86,0,0,0,0-9.71H60.63"/></g><g id="Layer_3" data-name="Layer 3"><path class="cls-3" d="M75,41.55A33.45,33.45,0,1,1,41.55,75,33.48,33.48,0,0,1,75,41.55m0-4A37.45,37.45,0,1,0,112.45,75,37.45,37.45,0,0,0,75,37.55Z"/><path class="cls-3" d="M75,24A51,51,0,1,1,24,75,51.06,51.06,0,0,1,75,24m0-2a53,53,0,1,0,53,53A53,53,0,0,0,75,22Z"/><circle class="cls-2" cx="75" cy="75" r="53"/><text class="cls-4" transform="translate(43.02 50.7) rotate(-49.18)">J</text><text class="cls-4" transform="matrix(0.8, -0.6, 0.6, 0.8, 47.6, 45.44)">A</text><text class="cls-4" transform="translate(55.8 39.57) rotate(-23.02)">B</text><text class="cls-4" transform="translate(64.72 36) rotate(-8.97)">A</text><text class="cls-4" transform="matrix(0.99, 0.13, -0.13, 0.99, 74.68, 34.49)">M</text><text class="cls-4" transform="translate(87.55 36.81) rotate(20.55)">I</text><text class="cls-4" transform="matrix(0.85, 0.53, -0.53, 0.85, 92.65, 38.69)">A</text><text class="cls-4" transform="translate(101.12 44.15) rotate(46.72)">H</text><text class="cls-4" transform="translate(49.26 115.74) rotate(27.91)">Y</text><text class="cls-4" transform="matrix(0.97, 0.26, -0.26, 0.97, 59.27, 120.55)">E</text><text class="cls-4" transform="translate(69.42 122.85) rotate(2.8)">S</text><text class="cls-4" transform="matrix(0.98, -0.19, 0.19, 0.98, 79.59, 123.1)">O</text><text class="cls-4" transform="translate(92.67 119.97) rotate(-26.86)">D</text></g></svg>