<svg xmlns="http://www.w3.org/2000/svg" viewBox="0 0 150 150"><defs><style>.cls-1,.cls-2{fill:none;stroke:#231f20;stroke-width:4px;}.cls-1{stroke-linejoin:bevel;}.cls-2{stroke-miterlimit:10;}.cls-3,.cls-4{fill:#231f20;}.cls-4{font-size:12px;font-family:Lato-Medium, Lato;font-weight:500;}</style></defs><g id="Symbols"><path class="cls-1" d="M59.77,58.24a2.88,2.88,0,1,1-2.88-2.88A2.88,2.88,0,0,1,59.77,58.24Z"/><path class="cls-1" d="M96,83.34a2.88,2.88,0,1,1-2.88-2.88A2.88,2.88,0,0,1,96,83.34Z"/><path class="cls-2" d="M71.12,83.05l-.53-.41a7.87,7.87,0,0,0-10.12,12L71,83.17l.11-.12L81.6,71.65,93.93,58.24H60.19"/><path class="cls-1" d="M71,83.17c-.15-.17-.29-.35-.42-.53a7.88,7.88,0,0,1,11-11l9.56,9.57"/></g><g id="Layer_3" data-name="Layer 3"><path class="cls-3" d="M75,41.55A33.45,33.45,0,1,1,41.55,75,33.48,33.48,0,0,1,75,41.55m0-4A37.45,37.45,0,1,0,112.45,75,37.45,37.45,0,0,0,75,37.55Z"/><path class="cls-3" d="M75,24A51,51,0,1,1,24,75,51.06,51.06,0,0,1,75,24m0-2a53,53,0,1,0,53,53A53,53,0,0,0,75,22Z"/><circle class="cls-2" cx="75" cy="75" r="53"/><text class="cls-4" transform="translate(54.03 40.71) rotate(-27.95)">J</text><text class="cls-4" transform="matrix(0.96, -0.28, 0.28, 0.96, 60.36, 37.48)">E</text><text class="cls-4" transform="matrix(1, -0.07, 0.07, 1, 68.97, 35.2)">L</text><text class="cls-4" transform="matrix(1, 0.09, -0.09, 1, 77.2, 34.89)">I</text><text class="cls-4" transform="translate(82.65 35.43) rotate(15.76)">E</text><text class="cls-4" transform="matrix(0.88, 0.47, -0.47, 0.88, 91.14, 38.09)">L</text><text class="cls-4" transform="translate(45.43 113.06) rotate(33.19)">K</text><text class="cls-4" transform="translate(55.38 119) rotate(19.97)">E</text><text class="cls-4" transform="translate(65.34 122.22) rotate(7.32)">T</text><text class="cls-4" transform="translate(76.03 123.27) rotate(-6.53)">H</text><text class="cls-4" transform="matrix(0.94, -0.35, 0.35, 0.94, 88.69, 121.24)">E</text><text class="cls-4" transform="translate(98.39 117.2) rotate(-33.48)">R</text></g></svg>