<svg xmlns="http://www.w3.org/2000/svg" viewBox="0 0 150 150"><defs><style>.cls-1,.cls-2,.cls-3{fill:none;stroke:#231f20;}.cls-1,.cls-2{stroke-linejoin:bevel;}.cls-1,.cls-3{stroke-width:4px;}.cls-2{stroke-width:2px;}.cls-3{stroke-miterlimit:10;}.cls-4,.cls-5{fill:#231f20;}.cls-5{font-size:12px;font-family:Lato-Medium, Lato;font-weight:500;}</style></defs><g id="Symbols"><path class="cls-1" d="M70.81,56.66a2.92,2.92,0,1,1-2.92-2.92A2.92,2.92,0,0,1,70.81,56.66Z"/><polyline class="cls-2" points="85.83 81.69 91.2 82.36 88.84 83 88.76 87.94"/><polyline class="cls-2" points="88.76 87.94 88.89 92.88 91.25 93.54 85.88 94.15"/><line class="cls-3" x1="71.44" y1="87.9" x2="71.42" y2="87.9"/><line class="cls-3" x1="95" y1="90.82" x2="95" y2="84.98"/><path class="cls-3" d="M71.44,87.9l3.5-7.54A4,4,0,0,1,82.5,82a3.91,3.91,0,0,1-.38,1.66l-2,4.21h16.5"/><path class="cls-3" d="M66.61,59.29,53.33,87.9h9.34l-1.26,2.72A4,4,0,1,0,68.6,94l2.82-6.06"/></g><g id="Layer_3" data-name="Layer 3"><path class="cls-4" d="M75,41.55A33.45,33.45,0,1,1,41.55,75,33.48,33.48,0,0,1,75,41.55m0-4A37.45,37.45,0,1,0,112.45,75,37.45,37.45,0,0,0,75,37.55Z"/><path class="cls-4" d="M75,24A51,51,0,1,1,24,75,51.06,51.06,0,0,1,75,24m0-2a53,53,0,1,0,53,53A53,53,0,0,0,75,22Z"/><circle class="cls-3" cx="75" cy="75" r="53"/><text class="cls-5" transform="matrix(0.76, -0.65, 0.65, 0.76, 46.55, 46.58)">L</text><text class="cls-5" transform="translate(52.8 41.35) rotate(-27.73)">A</text><text class="cls-5" transform="matrix(0.97, -0.23, 0.23, 0.97, 61.62, 36.91)">U</text><text class="cls-5" transform="matrix(1, 0.03, -0.03, 1, 72.16, 34.77)">V</text><text class="cls-5" transform="matrix(0.98, 0.22, -0.22, 0.98, 82.3, 35.48)">I</text><text class="cls-5" transform="translate(87.59 36.65) rotate(23.94)">A</text><text class="cls-5" transform="translate(96.74 40.91) rotate(39.03)">H</text><text class="cls-5" transform="translate(37.04 104.78) rotate(46.46)">H</text><text class="cls-5" transform="matrix(0.86, 0.51, -0.51, 0.86, 46.33, 113.85)">O</text><text class="cls-5" transform="translate(58.12 120.18) rotate(15.76)">C</text><text class="cls-5" transform="translate(69.48 122.95) rotate(1.32)">H</text><text class="cls-5" transform="translate(82.62 122.8) rotate(-15.6)">M</text><text class="cls-5" transform="translate(96.85 118.05) rotate(-31.75)">A</text><text class="cls-5" transform="matrix(0.69, -0.72, 0.72, 0.69, 106.73, 111.44)">N</text></g></svg>