<svg xmlns="http://www.w3.org/2000/svg" viewBox="0 0 150 150"><defs><style>.cls-1,.cls-2{fill:none;stroke:#231f20;stroke-width:4px;}.cls-1{stroke-linejoin:bevel;}.cls-2{stroke-miterlimit:10;}.cls-3,.cls-4{fill:#231f20;}.cls-4{font-size:12px;font-family:Lato-Medium, Lato;font-weight:500;}</style></defs><g id="Symbols"><path class="cls-1" d="M85.37,73.63a.57.57,0,0,1,0,.13,2.61,2.61,0,1,1,0-.13Z"/><path class="cls-2" d="M84.08,76,94.37,93.59H61.5L72.23,75.2H65a9.4,9.4,0,0,1,0-18.79h25"/></g><g id="Layer_3" data-name="Layer 3"><path class="cls-3" d="M75,41.55A33.45,33.45,0,1,1,41.55,75,33.48,33.48,0,0,1,75,41.55m0-4A37.45,37.45,0,1,0,112.45,75,37.45,37.45,0,0,0,75,37.55Z"/><path class="cls-3" d="M75,24A51,51,0,1,1,24,75,51.06,51.06,0,0,1,75,24m0-2a53,53,0,1,0,53,53A53,53,0,0,0,75,22Z"/><circle class="cls-2" cx="75" cy="75" r="53"/><text class="cls-4" transform="matrix(0.78, -0.63, 0.63, 0.78, 47.33, 45.82)">L</text><text class="cls-4" transform="translate(53.76 40.8) rotate(-27.03)">E</text><text class="cls-4" transform="translate(61.59 36.97) rotate(-13.77)">C</text><text class="cls-4" transform="translate(71.25 34.77) rotate(1.32)">A</text><text class="cls-4" transform="translate(81.37 35.17) rotate(14.51)">B</text><text class="cls-4" transform="matrix(0.88, 0.47, -0.47, 0.88, 90.69, 37.87)">E</text><text class="cls-4" transform="matrix(0.77, 0.64, -0.64, 0.77, 98.47, 42.26)">L</text><text class="cls-4" transform="translate(57.62 120.04) rotate(15.67)">H</text><text class="cls-4" transform="translate(70.3 123.11) rotate(-0.54)">O</text><text class="cls-4" transform="translate(83.68 122.52) rotate(-15.68)">D</text></g></svg>