<svg xmlns="http://www.w3.org/2000/svg" viewBox="0 0 150 150"><defs><style>.cls-1,.cls-2{fill:none;stroke:#231f20;stroke-width:4px;}.cls-1{stroke-linejoin:bevel;}.cls-2{stroke-miterlimit:10;}.cls-3,.cls-4{fill:#231f20;}.cls-4{font-size:12px;font-family:Lato-Medium, Lato;font-weight:500;}</style></defs><g id="Symbols"><path class="cls-1" d="M61.61,57.24a.71.71,0,0,1,0,.14,2.8,2.8,0,1,1,0-.14Z"/><path class="cls-2" d="M75.82,83.1h9.9A5.45,5.45,0,0,0,94.51,87a5.19,5.19,0,0,0,2.08-3.75h3.34"/><polyline class="cls-2" points="61.61 57.24 85.85 57.24 85.85 57.66 57.02 82.73 57.02 83.15 75.82 83.15"/><path class="cls-1" d="M81.86,76.33a2.78,2.78,0,1,1,.47-3.9A2.78,2.78,0,0,1,81.86,76.33Z"/><path class="cls-1" d="M81.86,95.09a2.78,2.78,0,1,1,.47-3.9A2.78,2.78,0,0,1,81.86,95.09Z"/><line class="cls-2" x1="80.11" y1="76.92" x2="80.18" y2="90.17"/></g><g id="Layer_3" data-name="Layer 3"><path class="cls-3" d="M75,41.55A33.45,33.45,0,1,1,41.55,75,33.48,33.48,0,0,1,75,41.55m0-4A37.45,37.45,0,1,0,112.45,75,37.45,37.45,0,0,0,75,37.55Z"/><path class="cls-3" d="M75,24A51,51,0,1,1,24,75,51.06,51.06,0,0,1,75,24m0-2a53,53,0,1,0,53,53A53,53,0,0,0,75,22Z"/><circle class="cls-2" cx="75" cy="75" r="53"/><text class="cls-4" transform="translate(46.89 46.24) rotate(-40.04)">L</text><text class="cls-4" transform="translate(53.25 41.13) rotate(-27.9)">E</text><text class="cls-4" transform="translate(61.15 37.08) rotate(-13.81)">U</text><text class="cls-4" transform="translate(71.64 34.78) rotate(1.32)">V</text><text class="cls-4" transform="translate(81.81 35.4) rotate(12.05)">I</text><text class="cls-4" transform="translate(87.12 36.5) rotate(23.23)">A</text><text class="cls-4" transform="translate(96.3 40.64) rotate(38.3)">H</text><text class="cls-4" transform="translate(50.23 116.36) rotate(26.38)">B</text><text class="cls-4" transform="translate(60.42 120.83) rotate(15.65)">I</text><text class="cls-4" transform="translate(67.04 122.62) rotate(4.04)">N</text><text class="cls-4" transform="translate(79.93 123) rotate(-10.59)">A</text><text class="cls-4" transform="translate(91.55 120.39) rotate(-25.46)">H</text></g></svg>