<svg id="Symbols" xmlns="http://www.w3.org/2000/svg" viewBox="0 0 150 150"><defs><style>.cls-1,.cls-2{fill:none;stroke:#231f20;stroke-width:8px;}.cls-1{stroke-linejoin:bevel;}.cls-2{stroke-miterlimit:10;}</style></defs><path class="cls-1" d="M39,32.5a1.94,1.94,0,0,1,0,.34,6.78,6.78,0,1,1,0-.34Z"/><path class="cls-2" d="M73,94.37l23.69,0a13,13,0,0,0,21,9.3,12.49,12.49,0,0,0,5-9h8"/><polyline class="cls-2" points="39 32.5 97 32.5 97 33.5 28 93.5 28 94.5 73 94.5"/><path class="cls-1" d="M87.45,78.19a6.66,6.66,0,1,1,1.13-9.35A6.65,6.65,0,0,1,87.45,78.19Z"/><path class="cls-1" d="M87.45,123.08a6.66,6.66,0,1,1,1.13-9.35A6.66,6.66,0,0,1,87.45,123.08Z"/><line class="cls-2" x1="83.25" y1="79.59" x2="83.43" y2="111.29"/></svg>