<svg xmlns="http://www.w3.org/2000/svg" viewBox="0 0 150 150"><defs><style>.cls-1,.cls-2{fill:none;stroke:#231f20;stroke-width:4px;}.cls-1{stroke-linejoin:bevel;}.cls-2{stroke-miterlimit:10;}.cls-3,.cls-4{fill:#231f20;}.cls-4{font-size:12px;font-family:Lato-Medium, Lato;font-weight:500;}</style></defs><g id="Symbols"><path class="cls-1" d="M58.35,60.77a2.51,2.51,0,1,1,2.48-2.53A2.5,2.5,0,0,1,58.35,60.77Z"/><path class="cls-1" d="M58.35,94.24a2.51,2.51,0,1,1,2.48-2.53A2.5,2.5,0,0,1,58.35,94.24Z"/><path class="cls-1" d="M66,59.71V72.87a3.95,3.95,0,1,1-7.89,0V60.76"/><path class="cls-2" d="M59.58,90.36l34.6-32.72V58L74.25,94.12h-.38V59.71a4,4,0,0,0-4-4,4,4,0,0,0-4,4V72.87"/></g><g id="Layer_3" data-name="Layer 3"><path class="cls-3" d="M75,41.55A33.45,33.45,0,1,1,41.55,75,33.48,33.48,0,0,1,75,41.55m0-4A37.45,37.45,0,1,0,112.45,75,37.45,37.45,0,0,0,75,37.55Z"/><path class="cls-3" d="M75,24A51,51,0,1,1,24,75,51.06,51.06,0,0,1,75,24m0-2a53,53,0,1,0,53,53A53,53,0,0,0,75,22Z"/><circle class="cls-2" cx="75" cy="75" r="53"/><text class="cls-4" transform="matrix(0.68, -0.73, 0.73, 0.68, 41.84, 51.79)">M</text><text class="cls-4" transform="matrix(0.86, -0.51, 0.51, 0.86, 51.06, 42.57)">A</text><text class="cls-4" transform="translate(59.8 37.59) rotate(-15.64)">H</text><text class="cls-4" transform="matrix(1, -0.01, 0.01, 1, 70.54, 34.91)">A</text><text class="cls-4" transform="translate(80.66 35.12) rotate(12.59)">S</text><text class="cls-4" transform="translate(88.94 37.3) rotate(22.66)">I</text><text class="cls-4" transform="matrix(0.83, 0.56, -0.56, 0.83, 93.95, 39.35)">A</text><text class="cls-4" transform="matrix(0.66, 0.75, -0.75, 0.66, 102.24, 45.13)">H</text><text class="cls-4" transform="translate(45.43 113.06) rotate(33.19)">K</text><text class="cls-4" transform="translate(55.38 119) rotate(19.97)">E</text><text class="cls-4" transform="translate(65.34 122.22) rotate(7.32)">T</text><text class="cls-4" transform="translate(76.03 123.27) rotate(-6.53)">H</text><text class="cls-4" transform="matrix(0.94, -0.35, 0.35, 0.94, 88.69, 121.24)">E</text><text class="cls-4" transform="translate(98.39 117.2) rotate(-33.48)">R</text></g></svg>