<svg id="Symbols" xmlns="http://www.w3.org/2000/svg" viewBox="0 0 150 150"><defs><style>.cls-1,.cls-2{fill:none;stroke:#231f20;stroke-width:8px;}.cls-1{stroke-linejoin:bevel;}.cls-2{stroke-miterlimit:10;}</style></defs><path class="cls-1" d="M30.72,37.16a6.66,6.66,0,1,1,6.6-6.71A6.66,6.66,0,0,1,30.72,37.16Z"/><path class="cls-1" d="M30.72,126.16a6.66,6.66,0,1,1,6.6-6.72A6.67,6.67,0,0,1,30.72,126.16Z"/><path class="cls-1" d="M51,34.34v35a10.5,10.5,0,0,1-21,0V37.13"/><path class="cls-2" d="M34,115.84l92-87v1l-53,96H72V34.34a10.5,10.5,0,0,0-21,0v35"/></svg>