<svg xmlns="http://www.w3.org/2000/svg" viewBox="0 0 150 150"><defs><style>.cls-1,.cls-2{fill:none;stroke:#231f20;stroke-width:4px;}.cls-1{stroke-miterlimit:10;}.cls-2{stroke-linejoin:bevel;}.cls-3,.cls-4{fill:#231f20;}.cls-4{font-size:12px;font-family:Lato-Medium, Lato;font-weight:500;}</style></defs><g id="Symbols"><path class="cls-1" d="M58.76,59.23V86.17a5.54,5.54,0,1,0,11.08,0v-19l0-8.89"/><path class="cls-2" d="M80.56,84.46h.13a2.54,2.54,0,1,0-.13,0Z"/><path class="cls-1" d="M69.83,86.19v-19l0-8.89a5.55,5.55,0,0,1,5.55-5.53,5.54,5.54,0,0,1,5.53,5.55v14L94.71,61.14V93.25L82.09,82.77"/><path class="cls-2" d="M58.54,58.21a2.55,2.55,0,1,1,2.53-2.57A2.55,2.55,0,0,1,58.54,58.21Z"/></g><g id="Layer_3" data-name="Layer 3"><path class="cls-3" d="M75,41.55A33.45,33.45,0,1,1,41.55,75,33.48,33.48,0,0,1,75,41.55m0-4A37.45,37.45,0,1,0,112.45,75,37.45,37.45,0,0,0,75,37.55Z"/><path class="cls-3" d="M75,24A51,51,0,1,1,24,75,51.06,51.06,0,0,1,75,24m0-2a53,53,0,1,0,53,53A53,53,0,0,0,75,22Z"/><circle class="cls-1" cx="75" cy="75" r="53"/><text class="cls-4" transform="matrix(0.75, -0.66, 0.66, 0.75, 44.48, 48.42)">M</text><text class="cls-4" transform="translate(54.61 40.22) rotate(-24.68)">A</text><text class="cls-4" transform="translate(63.82 36.19) rotate(-9.55)">N</text><text class="cls-4" transform="matrix(1, 0.09, -0.09, 1, 74.8, 34.66)">A</text><text class="cls-4" transform="translate(84.83 35.86) rotate(19.71)">K</text><text class="cls-4" transform="translate(94.07 39.48) rotate(33.15)">E</text><text class="cls-4" transform="translate(101.39 44.56) rotate(45.27)">L</text><text class="cls-4" transform="translate(49.26 115.74) rotate(27.91)">Y</text><text class="cls-4" transform="matrix(0.97, 0.26, -0.26, 0.97, 59.27, 120.55)">E</text><text class="cls-4" transform="translate(69.42 122.85) rotate(2.8)">S</text><text class="cls-4" transform="matrix(0.98, -0.19, 0.19, 0.98, 79.59, 123.1)">O</text><text class="cls-4" transform="translate(92.67 119.97) rotate(-26.86)">D</text></g></svg>