<svg id="Symbols" xmlns="http://www.w3.org/2000/svg" viewBox="0 0 150 150"><defs><style>.cls-1,.cls-2{fill:none;stroke:#231f20;stroke-width:8px;}.cls-1{stroke-miterlimit:10;}.cls-2{stroke-linejoin:bevel;}</style></defs><path class="cls-1" d="M32,41l0,70.47a14.5,14.5,0,0,0,29,.06l0-49.84,0-23.25"/><path class="cls-2" d="M89,107a1.94,1.94,0,0,0,.34,0,6.78,6.78,0,1,0-.34,0Z"/><path class="cls-1" d="M60.92,111.53l0-49.84,0-23.25a14.5,14.5,0,0,1,29,.06V75l36-29v84L93,102.57"/><path class="cls-2" d="M31.4,38.32A6.66,6.66,0,1,1,38,31.6,6.67,6.67,0,0,1,31.4,38.32Z"/></svg>