<svg xmlns="http://www.w3.org/2000/svg" viewBox="0 0 150 150"><defs><style>.cls-1,.cls-2{fill:none;stroke:#231f20;stroke-width:4px;}.cls-1{stroke-linejoin:bevel;}.cls-2{stroke-miterlimit:10;}.cls-3,.cls-4{fill:#231f20;}.cls-4{font-size:12px;font-family:Lato-Medium, Lato;font-weight:500;}</style></defs><g id="Symbols"><path class="cls-1" d="M59.25,62.24h.14a3.07,3.07,0,1,0-.14,0Z"/><path class="cls-1" d="M96.92,84.08h.15a2.89,2.89,0,1,0-.15,0Z"/><polyline class="cls-2" points="92.64 81.08 67.38 81.08 67.38 81.94 73.8 99.92 74.23 99.92 90.93 60.53 90.5 60.53 65.24 70.38 60.96 62.24"/></g><g id="Layer_3" data-name="Layer 3"><path class="cls-3" d="M75,41.55A33.45,33.45,0,1,1,41.55,75,33.48,33.48,0,0,1,75,41.55m0-4A37.45,37.45,0,1,0,112.45,75,37.45,37.45,0,0,0,75,37.55Z"/><path class="cls-3" d="M75,24A51,51,0,1,1,24,75,51.06,51.06,0,0,1,75,24m0-2a53,53,0,1,0,53,53A53,53,0,0,0,75,22Z"/><circle class="cls-2" cx="75" cy="75" r="53"/><text class="cls-4" transform="translate(41.88 51.74) rotate(-47.04)">M</text><text class="cls-4" transform="matrix(0.85, -0.52, 0.52, 0.85, 51.15, 42.58)">E</text><text class="cls-4" transform="translate(58.78 38.1) rotate(-18.26)">B</text><text class="cls-4" transform="matrix(1, -0.07, 0.07, 1, 67.98, 35.28)">A</text><text class="cls-4" transform="translate(78.04 34.71) rotate(10.7)">H</text><text class="cls-4" transform="translate(88.88 37.28) rotate(22.58)">I</text><text class="cls-4" transform="matrix(0.83, 0.56, -0.56, 0.83, 93.93, 39.34)">A</text><text class="cls-4" transform="translate(102.19 45.09) rotate(48.72)">H</text><text class="cls-4" transform="matrix(0.83, 0.56, -0.56, 0.83, 44.54, 112.42)">N</text><text class="cls-4" transform="matrix(0.94, 0.34, -0.34, 0.94, 55.51, 119.06)">E</text><text class="cls-4" transform="translate(65.49 122.25) rotate(7.14)">T</text><text class="cls-4" transform="translate(76.06 123.19) rotate(-5.43)">Z</text><text class="cls-4" transform="translate(86.82 121.79) rotate(-18.97)">A</text><text class="cls-4" transform="matrix(0.83, -0.56, 0.56, 0.83, 97.93, 117.53)">H</text></g></svg>