<svg xmlns="http://www.w3.org/2000/svg" viewBox="0 0 150 150"><defs><style>.cls-1,.cls-2{fill:none;stroke:#231f20;stroke-width:4px;}.cls-1{stroke-linejoin:bevel;}.cls-2{stroke-miterlimit:10;}.cls-3,.cls-4{fill:#231f20;}.cls-4{font-size:12px;font-family:Lato-Medium, Lato;font-weight:500;}</style></defs><g id="Symbols"><path class="cls-1" d="M89.73,90.6a2.58,2.58,0,1,0,3.48-1.12A2.59,2.59,0,0,0,89.73,90.6Z"/><path class="cls-1" d="M55.67,56.55a2.59,2.59,0,1,0,3.48-1.11A2.59,2.59,0,0,0,55.67,56.55Z"/><path class="cls-2" d="M59.27,60.71l7,20.95L57.72,94.85H83.44L75.73,61.34a4.46,4.46,0,0,1,8.58-2.42l6.81,30.44"/></g><g id="Layer_3" data-name="Layer 3"><path class="cls-3" d="M75,41.55A33.45,33.45,0,1,1,41.55,75,33.48,33.48,0,0,1,75,41.55m0-4A37.45,37.45,0,1,0,112.45,75,37.45,37.45,0,0,0,75,37.55Z"/><path class="cls-3" d="M75,24A51,51,0,1,1,24,75,51.06,51.06,0,0,1,75,24m0-2a53,53,0,1,0,53,53A53,53,0,0,0,75,22Z"/><circle class="cls-2" cx="75" cy="75" r="53"/><text class="cls-4" transform="translate(45.47 47.32) rotate(-39.01)">M</text><text class="cls-4" transform="matrix(0.92, -0.4, 0.4, 0.92, 55.92, 39.54)">E</text><text class="cls-4" transform="translate(64.18 36.23) rotate(-11.22)">L</text><text class="cls-4" transform="matrix(1, 0.03, -0.03, 1, 72.21, 34.76)">A</text><text class="cls-4" transform="translate(82.27 35.25) rotate(16.79)">H</text><text class="cls-4" transform="matrix(0.86, 0.52, -0.52, 0.86, 92.77, 38.81)">E</text><text class="cls-4" transform="translate(100.27 43.63) rotate(43.22)">L</text><text class="cls-4" transform="translate(50.23 116.36) rotate(26.38)">B</text><text class="cls-4" transform="translate(60.42 120.83) rotate(15.65)">I</text><text class="cls-4" transform="translate(67.04 122.62) rotate(4.04)">N</text><text class="cls-4" transform="translate(79.93 123) rotate(-10.59)">A</text><text class="cls-4" transform="translate(91.55 120.39) rotate(-25.46)">H</text></g></svg>