<svg xmlns="http://www.w3.org/2000/svg" viewBox="0 0 150 150"><defs><style>.cls-1,.cls-2{fill:none;stroke:#231f20;stroke-width:4px;}.cls-1{stroke-linejoin:bevel;}.cls-2{stroke-miterlimit:10;}.cls-3,.cls-4{fill:#231f20;}.cls-4{font-size:12px;font-family:Lato-Medium, Lato;font-weight:500;}</style></defs><g id="Symbols"><path class="cls-1" d="M90.88,62.44a2.82,2.82,0,1,0-.37-4A2.82,2.82,0,0,0,90.88,62.44Z"/><path class="cls-1" d="M85.92,71.9a2.82,2.82,0,1,1,3.44,2A2.82,2.82,0,0,1,85.92,71.9Z"/><path class="cls-2" d="M87.11,73.55,75,98a4.87,4.87,0,0,1-8.56-4.64L78.11,70.29l-20.46.17a4.87,4.87,0,1,1-.56-9.73l32.8-.06"/></g><g id="Layer_3" data-name="Layer 3"><path class="cls-3" d="M75,41.55A33.45,33.45,0,1,1,41.55,75,33.48,33.48,0,0,1,75,41.55m0-4A37.45,37.45,0,1,0,112.45,75,37.45,37.45,0,0,0,75,37.55Z"/><path class="cls-3" d="M75,24A51,51,0,1,1,24,75,51.06,51.06,0,0,1,75,24m0-2a53,53,0,1,0,53,53A53,53,0,0,0,75,22Z"/><circle class="cls-2" cx="75" cy="75" r="53"/><text class="cls-4" transform="translate(44.52 48.38) rotate(-41.02)">M</text><text class="cls-4" transform="translate(54.7 40.23) rotate(-25.46)">E</text><text class="cls-4" transform="translate(62.73 36.52) rotate(-11.17)">N</text><text class="cls-4" transform="matrix(1, 0.07, -0.07, 1, 73.68, 34.69)">A</text><text class="cls-4" transform="matrix(0.95, 0.32, -0.32, 0.95, 83.72, 35.54)">D</text><text class="cls-4" transform="matrix(0.84, 0.55, -0.55, 0.84, 94.01, 39.45)">E</text><text class="cls-4" transform="matrix(0.7, 0.71, -0.71, 0.7, 101.36, 44.54)">L</text><text class="cls-4" transform="translate(39.71 107.87) rotate(41.89)">G</text><text class="cls-4" transform="translate(49.25 115.71) rotate(28.3)">E</text><text class="cls-4" transform="translate(58.68 120.37) rotate(15.18)">B</text><text class="cls-4" transform="translate(69.8 122.96) rotate(1.32)">U</text><text class="cls-4" transform="translate(82.31 122.67) rotate(-13.1)">R</text><text class="cls-4" transform="translate(93.14 119.74) rotate(-26.9)">A</text><text class="cls-4" transform="matrix(0.75, -0.66, 0.66, 0.75, 103.54, 113.99)">H</text></g></svg>