<svg xmlns="http://www.w3.org/2000/svg" viewBox="0 0 150 150"><defs><style>.cls-1,.cls-2,.cls-3{fill:none;stroke:#231f20;}.cls-1,.cls-2{stroke-linejoin:bevel;}.cls-1{stroke-width:2px;}.cls-2,.cls-3{stroke-width:4px;}.cls-3{stroke-miterlimit:10;}.cls-4,.cls-5{fill:#231f20;}.cls-5{font-size:12px;font-family:Lato-Medium, Lato;font-weight:500;}</style></defs><g id="Symbols"><polyline class="cls-1" points="80.14 94.07 75.23 96.19 76.92 94.47 74.51 90.23"/><polyline class="cls-1" points="74.51 90.23 71.92 86.09 69.58 86.71 73.84 83.5"/><path class="cls-2" d="M69.66,93.05a2.94,2.94,0,1,1-4-1.15A2.94,2.94,0,0,1,69.66,93.05Z"/><path class="cls-3" d="M71.49,60.73h5.43a4.07,4.07,0,1,0,0-8.14H72.85"/><path class="cls-3" d="M68.72,68.88h8.2a4.08,4.08,0,1,0,0-8.15H71.49"/><path class="cls-3" d="M71.69,68.88h-12a4.66,4.66,0,0,0,0,9.32H95L70,93"/></g><g id="Layer_3" data-name="Layer 3"><path class="cls-4" d="M75,41.55A33.45,33.45,0,1,1,41.55,75,33.48,33.48,0,0,1,75,41.55m0-4A37.45,37.45,0,1,0,112.45,75,37.45,37.45,0,0,0,75,37.55Z"/><path class="cls-4" d="M75,24A51,51,0,1,1,24,75,51.06,51.06,0,0,1,75,24m0-2a53,53,0,1,0,53,53A53,53,0,0,0,75,22Z"/><circle class="cls-3" cx="75" cy="75" r="53"/><text class="cls-5" transform="translate(53.64 40.67) rotate(-24.9)">m</text><text class="cls-5" transform="translate(64.61 36.2) rotate(-12.87)">i</text><text class="cls-5" transform="translate(69.48 35.11) rotate(-3.05)">h</text><text class="cls-5" transform="translate(78.18 34.89) rotate(8.72)">a</text><text class="cls-5" transform="translate(86.05 36.28) rotate(20.46)">e</text><text class="cls-5" transform="matrix(0.87, 0.5, -0.5, 0.87, 93.82, 39.52)">l</text><text class="cls-5" transform="matrix(0.52, 0.86, -0.86, 0.52, 32.02, 96.85)">T</text><text class="cls-5" transform="translate(37.87 105.88) rotate(44.8)">H</text><text class="cls-5" transform="matrix(0.84, 0.55, -0.55, 0.84, 47.24, 114.29)">I</text><text class="cls-5" transform="translate(52.95 117.88) rotate(22.93)">P</text><text class="cls-5" transform="translate(63.15 121.83) rotate(8.68)">H</text><text class="cls-5" transform="translate(75.87 123.19) rotate(-5.09)">E</text><text class="cls-5" transform="translate(86.27 121.9) rotate(-17.99)">R</text><text class="cls-5" transform="matrix(0.86, -0.51, 0.51, 0.86, 96.69, 118.05)">E</text><text class="cls-5" transform="translate(105.45 112.37) rotate(-43.41)">T</text><text class="cls-5" transform="matrix(0.54, -0.84, 0.84, 0.54, 113.05, 104.74)">H</text></g></svg>