<svg id="Symbols" xmlns="http://www.w3.org/2000/svg" viewBox="0 0 150 150"><defs><style>.cls-1,.cls-2{fill:none;stroke:#231f20;stroke-width:8px;}.cls-1{stroke-linejoin:bevel;}.cls-2{stroke-miterlimit:10;}</style></defs><polyline class="cls-1" points="80.93 118.19 69.81 123 73.64 119.1 68.18 109.48"/><polyline class="cls-1" points="68.18 109.48 62.32 100.11 57.02 101.53 66.66 94.24"/><path class="cls-1" d="M57.21,115.89a6.66,6.66,0,1,1-9-2.63A6.65,6.65,0,0,1,57.21,115.89Z"/><path class="cls-2" d="M61.35,42.69h12.3a9.23,9.23,0,1,0,0-18.45H64.42"/><path class="cls-2" d="M55.07,61.15H73.65a9.23,9.23,0,0,0,0-18.46H61.35"/><path class="cls-2" d="M61.79,61.15H34.55a10.55,10.55,0,1,0,0,21.09h80L57.88,115.66"/></svg>