<svg id="Symbols" xmlns="http://www.w3.org/2000/svg" viewBox="0 0 150 150"><defs><style>.cls-1,.cls-2{fill:none;stroke:#231f20;stroke-width:8px;}.cls-1{stroke-linejoin:bevel;}.cls-2{stroke-miterlimit:10;}</style></defs><path class="cls-1" d="M125.33,52.71a6.66,6.66,0,1,1-9-2.62A6.65,6.65,0,0,1,125.33,52.71Z"/><polyline class="cls-1" points="69.32 38.68 80.62 34.33 76.64 38.07 81.7 47.89"/><polyline class="cls-1" points="81.7 47.89 87.17 57.5 92.53 56.29 82.6 63.19"/><path class="cls-1" d="M95.75,38.69a6.66,6.66,0,1,1,9.11,2.42A6.66,6.66,0,0,1,95.75,38.69Z"/><polyline class="cls-2" points="23.84 89.26 23.84 84.26 95.09 38.94"/><path class="cls-1" d="M56.72,33.05a6.66,6.66,0,1,1-3.84-8.6A6.66,6.66,0,0,1,56.72,33.05Z"/><path class="cls-1" d="M54,36.34,98.84,120A11.5,11.5,0,0,0,119,109L97.84,69.26l16-9"/><path class="cls-1" d="M49.81,57.26l9.08,15.66a7,7,0,1,1-12.11,7L38,64.78"/><path class="cls-1" d="M38,64.78,46.78,80a7,7,0,1,1-12.11,7L26.15,72.29"/></svg>