<svg xmlns="http://www.w3.org/2000/svg" viewBox="0 0 150 150"><defs><style>.cls-1,.cls-2{fill:none;stroke:#231f20;}.cls-1{stroke-miterlimit:10;stroke-width:4px;}.cls-2{stroke-linejoin:bevel;stroke-width:2px;}.cls-3,.cls-4{fill:#231f20;}.cls-4{font-size:12px;font-family:Lato-Medium, Lato;font-weight:500;}</style></defs><g id="Symbols"><path class="cls-1" d="M95.72,65.82A2.74,2.74,0,1,1,92,64.74,2.74,2.74,0,0,1,95.72,65.82Z"/><polyline class="cls-2" points="72.66 60.05 77.31 58.25 75.67 59.79 77.76 63.84"/><polyline class="cls-2" points="77.76 63.84 80.01 67.8 82.22 67.3 78.13 70.14"/><path class="cls-1" d="M83.54,60.05a2.74,2.74,0,1,1,3.75,1A2.75,2.75,0,0,1,83.54,60.05Z"/><polyline class="cls-1" points="53.94 80.87 53.94 78.81 83.27 60.15"/><path class="cls-1" d="M67.47,57.73a2.74,2.74,0,1,1-1.58-3.54A2.74,2.74,0,0,1,67.47,57.73Z"/><path class="cls-1" d="M66.34,59.09,84.81,93.52A4.73,4.73,0,1,0,93.13,89L84.4,72.64,91,68.93"/><path class="cls-1" d="M64.63,67.7l3.74,6.44a2.88,2.88,0,0,1-1.05,3.94,2.79,2.79,0,0,1-1.44.39A2.9,2.9,0,0,1,63.38,77l-3.62-6.25"/><path class="cls-1" d="M59.76,70.79,63.38,77A2.87,2.87,0,0,1,62.33,81a2.79,2.79,0,0,1-1.44.39,2.87,2.87,0,0,1-2.49-1.43l-3.51-6.05"/></g><g id="Layer_3" data-name="Layer 3"><path class="cls-3" d="M75,41.55A33.45,33.45,0,1,1,41.55,75,33.48,33.48,0,0,1,75,41.55m0-4A37.45,37.45,0,1,0,112.45,75,37.45,37.45,0,0,0,75,37.55Z"/><path class="cls-3" d="M75,24A51,51,0,1,1,24,75,51.06,51.06,0,0,1,75,24m0-2a53,53,0,1,0,53,53A53,53,0,0,0,75,22Z"/><circle class="cls-1" cx="75" cy="75" r="53"/><text class="cls-4" transform="translate(53.93 40.51) rotate(-24.5)">m</text><text class="cls-4" transform="matrix(0.98, -0.22, 0.22, 0.98, 64.93, 36.13)">i</text><text class="cls-4" transform="matrix(1, -0.05, 0.05, 1, 69.81, 35.09)">k</text><text class="cls-4" transform="translate(77.98 34.86) rotate(8.36)">a</text><text class="cls-4" transform="translate(85.84 36.2) rotate(20.06)">e</text><text class="cls-4" transform="matrix(0.87, 0.49, -0.49, 0.87, 93.63, 39.39)">l</text><text class="cls-4" transform="matrix(0.52, 0.86, -0.86, 0.52, 32.08, 96.85)">T</text><text class="cls-4" transform="translate(37.93 105.87) rotate(44.8)">H</text><text class="cls-4" transform="matrix(0.84, 0.55, -0.55, 0.84, 47.29, 114.28)">I</text><text class="cls-4" transform="translate(53.01 117.88) rotate(22.93)">P</text><text class="cls-4" transform="translate(63.21 121.82) rotate(8.68)">H</text><text class="cls-4" transform="translate(75.93 123.18) rotate(-5.09)">E</text><text class="cls-4" transform="translate(86.32 121.89) rotate(-17.99)">R</text><text class="cls-4" transform="translate(96.73 118.05) rotate(-30.89)">E</text><text class="cls-4" transform="matrix(0.73, -0.69, 0.69, 0.73, 105.51, 112.36)">T</text><text class="cls-4" transform="matrix(0.54, -0.84, 0.84, 0.54, 113.1, 104.74)">H</text></g></svg>