<svg xmlns="http://www.w3.org/2000/svg" viewBox="0 0 150 150"><defs><style>.cls-1,.cls-2{fill:none;stroke:#231f20;}.cls-1{stroke-linejoin:bevel;stroke-width:2px;}.cls-2{stroke-miterlimit:10;stroke-width:4px;}.cls-3,.cls-4{fill:#231f20;}.cls-4{font-size:12px;font-family:Lato-Medium, Lato;font-weight:500;}</style></defs><g id="Symbols"><polyline class="cls-1" points="70.58 66.55 65.84 65.83 68.19 65.48 68.13 60.44"/><polyline class="cls-1" points="68.13 60.44 68.14 56.06 66.06 55.43 70.82 55.01"/><path class="cls-2" d="M61.51,60.68A2.64,2.64,0,1,1,59,57.94,2.65,2.65,0,0,1,61.51,60.68Z"/><path class="cls-2" d="M91.38,70.65a2.64,2.64,0,1,1-2.53-2.74A2.64,2.64,0,0,1,91.38,70.65Z"/><line class="cls-2" x1="95.21" y1="60.76" x2="61.78" y2="60.74"/><path class="cls-2" d="M86.66,72.17l-9.13,6.9a10.85,10.85,0,0,0,8,3.48H96.4V83L56,94.83v-.4L77.53,79.07a10.88,10.88,0,0,1,8-18.29H98"/></g><g id="Layer_3" data-name="Layer 3"><path class="cls-3" d="M75,41.55A33.45,33.45,0,1,1,41.55,75,33.48,33.48,0,0,1,75,41.55m0-4A37.45,37.45,0,1,0,112.45,75,37.45,37.45,0,0,0,75,37.55Z"/><path class="cls-3" d="M75,24A51,51,0,1,1,24,75,51.06,51.06,0,0,1,75,24m0-2a53,53,0,1,0,53,53A53,53,0,0,0,75,22Z"/><circle class="cls-2" cx="75" cy="75" r="53"/><text class="cls-4" transform="matrix(0.74, -0.68, 0.68, 0.74, 43.75, 49.28)">M</text><text class="cls-4" transform="translate(53.82 40.9) rotate(-29.55)">I</text><text class="cls-4" transform="translate(58.57 38.23) rotate(-19.1)">T</text><text class="cls-4" transform="matrix(0.99, -0.11, 0.11, 0.99, 67.19, 35.47)">Z</text><text class="cls-4" transform="translate(76.35 34.71) rotate(7.14)">R</text><text class="cls-4" transform="translate(85.77 36.1) rotate(21.21)">A</text><text class="cls-4" transform="translate(95.05 40.02) rotate(34.74)">E</text><text class="cls-4" transform="translate(102.22 45.3) rotate(46.85)">L</text><text class="cls-4" transform="translate(57.62 120.04) rotate(15.67)">H</text><text class="cls-4" transform="translate(70.3 123.11) rotate(-0.54)">O</text><text class="cls-4" transform="translate(83.68 122.51) rotate(-15.68)">D</text></g></svg>