<svg id="Symbols" xmlns="http://www.w3.org/2000/svg" viewBox="0 0 150 150"><defs><style>.cls-1,.cls-2{fill:none;stroke:#231f20;stroke-width:8px;}.cls-1{stroke-linejoin:bevel;}.cls-2{stroke-miterlimit:10;}</style></defs><polyline class="cls-1" points="60.83 54.08 48.85 52.26 54.77 51.37 54.63 38.65"/><polyline class="cls-1" points="54.63 38.65 54.64 27.59 49.39 25.98 61.43 24.92"/><path class="cls-1" d="M37.87,38.83a6.66,6.66,0,1,1-6.39-6.93A6.66,6.66,0,0,1,37.87,38.83Z"/><path class="cls-1" d="M113.31,64a6.66,6.66,0,1,1-6.38-6.92A6.67,6.67,0,0,1,113.31,64Z"/><line class="cls-2" x1="123" y1="39.04" x2="38.55" y2="38.98"/><path class="cls-2" d="M101.41,67.84,78.33,85.27A27.41,27.41,0,0,0,98.5,94.08H126v1l-102,30v-1L78.33,85.27A27.5,27.5,0,0,1,98.5,39.08H130"/></svg>