<svg id="Symbols" xmlns="http://www.w3.org/2000/svg" viewBox="0 0 150 150"><defs><style>.cls-1,.cls-2{fill:none;stroke:#231f20;stroke-width:8px;}.cls-1{stroke-miterlimit:10;}.cls-2{stroke-linejoin:bevel;}</style></defs><path class="cls-1" d="M62.77,36.38l13.6,17.06A11.19,11.19,0,0,1,58.84,67.35l-3.73-4.57L44,48.72"/><path class="cls-1" d="M58.83,67.35l-3.72-4.57L44,48.72a11.19,11.19,0,1,0-17.54,13.9L78,126h.77l37.07-35.74"/><path class="cls-2" d="M64,35.92a6.66,6.66,0,1,0-9.34-1.18A6.65,6.65,0,0,0,64,35.92Z"/><path class="cls-2" d="M123.42,92.6a6.66,6.66,0,1,0-9.34-1.18A6.65,6.65,0,0,0,123.42,92.6Z"/></svg>