<svg xmlns="http://www.w3.org/2000/svg" viewBox="0 0 150 150"><defs><style>.cls-1{fill:none;stroke:#231f20;stroke-miterlimit:10;stroke-width:4px;}.cls-2,.cls-3{fill:#231f20;}.cls-3{font-size:12px;font-family:Lato-Medium, Lato;font-weight:500;}</style></defs><g id="Symbols"><path class="cls-1" d="M69.47,56.34l6.77,8.49a5.57,5.57,0,1,1-8.72,6.92l-1.86-2.27-5.55-7"/><path class="cls-1" d="M67.51,71.76l-1.85-2.28-5.55-7a5.57,5.57,0,0,0-8.73,6.92L77.06,101h.38L95.89,83.16"/><path class="cls-1" d="M70.09,56.11a3.31,3.31,0,1,0-4.64-.58A3.31,3.31,0,0,0,70.09,56.11Z"/><path class="cls-1" d="M99.66,84.32A3.31,3.31,0,1,0,95,83.74,3.31,3.31,0,0,0,99.66,84.32Z"/></g><g id="Layer_3" data-name="Layer 3"><path class="cls-2" d="M75,41.55A33.45,33.45,0,1,1,41.55,75,33.48,33.48,0,0,1,75,41.55m0-4A37.45,37.45,0,1,0,112.45,75,37.45,37.45,0,0,0,75,37.55Z"/><path class="cls-2" d="M75,24A51,51,0,1,1,24,75,51.06,51.06,0,0,1,75,24m0-2a53,53,0,1,0,53,53A53,53,0,0,0,75,22Z"/><circle class="cls-1" cx="75" cy="75" r="53"/><text class="cls-3" transform="translate(50.77 42.67) rotate(-29.94)">m</text><text class="cls-3" transform="translate(61.19 37.18) rotate(-15.33)">u</text><text class="cls-3" transform="matrix(1, -0.01, 0.01, 1, 69.54, 34.94)">m</text><text class="cls-3" transform="translate(81.4 35.34) rotate(11.11)">i</text><text class="cls-3" transform="translate(86.31 36.35) rotate(20.51)">a</text><text class="cls-3" transform="translate(93.7 39.3) rotate(32.41)">h</text><text class="cls-3" transform="translate(49.26 115.74) rotate(27.91)">Y</text><text class="cls-3" transform="matrix(0.97, 0.26, -0.26, 0.97, 59.27, 120.55)">E</text><text class="cls-3" transform="translate(69.42 122.85) rotate(2.8)">S</text><text class="cls-3" transform="matrix(0.98, -0.19, 0.19, 0.98, 79.59, 123.1)">O</text><text class="cls-3" transform="translate(92.67 119.97) rotate(-26.86)">D</text></g></svg>