<svg id="Symbols" xmlns="http://www.w3.org/2000/svg" viewBox="0 0 150 150"><defs><style>.cls-1,.cls-2{fill:none;stroke:#231f20;stroke-width:8px;}.cls-1{stroke-linejoin:bevel;}.cls-2{stroke-miterlimit:10;}</style></defs><path class="cls-1" d="M78.89,38.16a6.66,6.66,0,1,1,6.6-6.72A6.67,6.67,0,0,1,78.89,38.16Z"/><path class="cls-1" d="M32.21,125.16a6.66,6.66,0,1,1,6.6-6.72A6.67,6.67,0,0,1,32.21,125.16Z"/><path class="cls-1" d="M83.35,36.39l39.43,36.15a11.5,11.5,0,1,1-15.54,16.95L52,39"/><path class="cls-2" d="M23.49,84.16V94.1l24-26.21A11.5,11.5,0,1,1,64.47,83.43L36.74,113.68"/><path class="cls-1" d="M23.49,84.16v-37c0-7.7,5.17-14,11.5-14s12.74,1.31,14.25,2.92L52,39"/></svg>