<svg xmlns="http://www.w3.org/2000/svg" viewBox="0 0 150 150"><defs><style>.cls-1{fill:none;stroke:#231f20;stroke-miterlimit:10;stroke-width:4px;}.cls-2,.cls-3{fill:#231f20;}.cls-3{font-size:12px;font-family:Lato-Medium, Lato;font-weight:500;}</style></defs><g id="Symbols"><path class="cls-1" d="M79.83,57.82a2.87,2.87,0,1,1,2.84-2.89A2.87,2.87,0,0,1,79.83,57.82Z"/><path class="cls-1" d="M59.75,95.25a2.87,2.87,0,1,1,2.84-2.89A2.87,2.87,0,0,1,59.75,95.25Z"/><path class="cls-1" d="M56,77.61v4.27L66.34,70.61a4.94,4.94,0,1,1,7.29,6.68l-11.93,13"/><path class="cls-1" d="M81.75,57.06l17,15.55A4.95,4.95,0,0,1,92,79.9L69.69,59.41C60.9,50.61,56,57.5,56,62.12V77.61"/></g><g id="Layer_3" data-name="Layer 3"><path class="cls-2" d="M75,41.55A33.45,33.45,0,1,1,41.55,75,33.48,33.48,0,0,1,75,41.55m0-4A37.45,37.45,0,1,0,112.45,75,37.45,37.45,0,0,0,75,37.55Z"/><path class="cls-2" d="M75,24A51,51,0,1,1,24,75,51.06,51.06,0,0,1,75,24m0-2a53,53,0,1,0,53,53A53,53,0,0,0,75,22Z"/><circle class="cls-1" cx="75" cy="75" r="53"/><text class="cls-3" transform="translate(48.82 44.29) rotate(-34.04)">N</text><text class="cls-3" transform="matrix(0.95, -0.32, 0.32, 0.95, 58.15, 38.36)">A</text><text class="cls-3" transform="matrix(1, -0.07, 0.07, 1, 67.76, 35.26)">N</text><text class="cls-3" transform="translate(78.83 34.83) rotate(11.11)">A</text><text class="cls-3" transform="translate(88.67 37.08) rotate(24.72)">E</text><text class="cls-3" transform="matrix(0.8, 0.6, -0.6, 0.8, 96.65, 41.03)">L</text><text class="cls-3" transform="translate(49.26 115.74) rotate(27.91)">Y</text><text class="cls-3" transform="matrix(0.97, 0.26, -0.26, 0.97, 59.27, 120.55)">E</text><text class="cls-3" transform="translate(69.42 122.85) rotate(2.8)">S</text><text class="cls-3" transform="matrix(0.98, -0.19, 0.19, 0.98, 79.59, 123.1)">O</text><text class="cls-3" transform="translate(92.67 119.97) rotate(-26.86)">D</text></g></svg>