<svg xmlns="http://www.w3.org/2000/svg" viewBox="0 0 150 150"><defs><style>.cls-1{fill:none;stroke:#231f20;stroke-miterlimit:10;stroke-width:4px;}.cls-2,.cls-3{fill:#231f20;}.cls-3{font-size:12px;font-family:Lato-Medium, Lato;font-weight:500;}</style></defs><g id="Symbols"><path class="cls-1" d="M58.74,94.63a2.74,2.74,0,1,0-3.84-.49A2.74,2.74,0,0,0,58.74,94.63Z"/><polyline class="cls-1" points="60.21 90.55 95.96 65.07 95.96 64.66 58.98 64.66"/><path class="cls-1" d="M59,64.66a4.93,4.93,0,1,1,4.94-4.93"/></g><g id="Layer_3" data-name="Layer 3"><path class="cls-2" d="M75,41.55A33.45,33.45,0,1,1,41.55,75,33.48,33.48,0,0,1,75,41.55m0-4A37.45,37.45,0,1,0,112.45,75,37.45,37.45,0,0,0,75,37.55Z"/><path class="cls-2" d="M75,24A51,51,0,1,1,24,75,51.06,51.06,0,0,1,75,24m0-2a53,53,0,1,0,53,53A53,53,0,0,0,75,22Z"/><circle class="cls-1" cx="75" cy="75" r="53"/><text class="cls-3" transform="matrix(0.81, -0.59, 0.59, 0.81, 48.59, 44.65)">n</text><text class="cls-3" transform="translate(55.73 39.67) rotate(-24.2)">e</text><text class="cls-3" transform="matrix(0.97, -0.25, 0.25, 0.97, 63.52, 36.52)">l</text><text class="cls-3" transform="translate(68.31 35.33) rotate(-5.5)">c</text><text class="cls-3" transform="translate(76.03 34.74) rotate(6.11)">h</text><text class="cls-3" transform="matrix(0.95, 0.31, -0.31, 0.95, 84.67, 35.91)">a</text><text class="cls-3" transform="translate(92.2 38.56) rotate(29.78)">e</text><text class="cls-3" transform="translate(99.34 43.02) rotate(39.28)">l</text><text class="cls-3" transform="translate(50.23 116.35) rotate(26.38)">B</text><text class="cls-3" transform="translate(60.42 120.83) rotate(15.65)">I</text><text class="cls-3" transform="translate(67.04 122.62) rotate(4.04)">N</text><text class="cls-3" transform="translate(79.93 122.99) rotate(-10.59)">A</text><text class="cls-3" transform="translate(91.55 120.39) rotate(-25.46)">H</text></g></svg>