<svg xmlns="http://www.w3.org/2000/svg" viewBox="0 0 150 150"><defs><style>.cls-1,.cls-2{fill:none;stroke:#231f20;stroke-width:4px;}.cls-1{stroke-linejoin:bevel;}.cls-2{stroke-miterlimit:10;}.cls-3,.cls-4{fill:#231f20;}.cls-4{font-size:12px;font-family:Lato-Medium, Lato;font-weight:500;}</style></defs><g id="Symbols"><path class="cls-1" d="M96.53,67.16a2.89,2.89,0,1,0-4.06-.51A2.9,2.9,0,0,0,96.53,67.16Z"/><polyline class="cls-2" points="65.35 78.5 53.18 83.71 53.18 83.28 76.65 52.42 77.08 52.42 69.26 96.75 69.26 96.75 69.26 96.75 69.7 96.75 92.73 67.63"/></g><g id="Layer_3" data-name="Layer 3"><path class="cls-3" d="M75,41.55A33.45,33.45,0,1,1,41.55,75,33.48,33.48,0,0,1,75,41.55m0-4A37.45,37.45,0,1,0,112.45,75,37.45,37.45,0,0,0,75,37.55Z"/><path class="cls-3" d="M75,24A51,51,0,1,1,24,75,51.06,51.06,0,0,1,75,24m0-2a53,53,0,1,0,53,53A53,53,0,0,0,75,22Z"/><circle class="cls-2" cx="75" cy="75" r="53"/><text class="cls-4" transform="translate(44.89 48.33) rotate(-43.75)">n</text><text class="cls-4" transform="matrix(0.85, -0.52, 0.52, 0.85, 51.34, 42.47)">e</text><text class="cls-4" transform="translate(58.42 38.13) rotate(-17.24)">m</text><text class="cls-4" transform="translate(69.83 35.09) rotate(-3.14)">a</text><text class="cls-4" transform="translate(77.75 34.65) rotate(10.79)">m</text><text class="cls-4" transform="translate(89.28 37.43) rotate(22.84)">i</text><text class="cls-4" transform="matrix(0.85, 0.53, -0.53, 0.85, 93.87, 39.42)">a</text><text class="cls-4" transform="translate(100.53 43.81) rotate(44.03)">h</text><text class="cls-4" transform="translate(57.62 120.04) rotate(15.67)">H</text><text class="cls-4" transform="translate(70.3 123.11) rotate(-0.54)">O</text><text class="cls-4" transform="translate(83.68 122.51) rotate(-15.68)">D</text></g></svg>