<svg xmlns="http://www.w3.org/2000/svg" viewBox="0 0 150 150"><defs><style>.cls-1,.cls-2{fill:none;stroke:#231f20;}.cls-1{stroke-linejoin:bevel;stroke-width:2px;}.cls-2{stroke-miterlimit:10;stroke-width:4px;}.cls-3,.cls-4{fill:#231f20;}.cls-4{font-size:12px;font-family:Lato-Medium, Lato;font-weight:500;}</style></defs><g id="Symbols"><polyline class="cls-1" points="72.24 62.21 78.29 62.81 75.66 63.65 75.71 69.13"/><polyline class="cls-1" points="75.66 69.16 75.66 74.68 78.67 75.34 72.67 76.19"/><path class="cls-2" d="M101.33,69.73H96.81a2,2,0,0,0,0-.25,6.77,6.77,0,0,0-6.77-6.77,6.56,6.56,0,0,0-6.77,6.52c0,.09,0-.08,0,0H48.67c0-5.26,3.76-9.53,9-9.53a9.53,9.53,0,0,1,9.53,9.53V90.3"/><polyline class="cls-2" points="63.21 90.3 70.74 90.3 71.24 90.3"/></g><g id="Layer_3" data-name="Layer 3"><path class="cls-3" d="M75,41.55A33.45,33.45,0,1,1,41.55,75,33.48,33.48,0,0,1,75,41.55m0-4A37.45,37.45,0,1,0,112.45,75,37.45,37.45,0,0,0,75,37.55Z"/><path class="cls-3" d="M75,24A51,51,0,1,1,24,75,51.06,51.06,0,0,1,75,24m0-2a53,53,0,1,0,53,53A53,53,0,0,0,75,22Z"/><circle class="cls-2" cx="75" cy="75" r="53"/><text class="cls-4" transform="matrix(0.85, -0.52, 0.52, 0.85, 51.34, 42.45)">n</text><text class="cls-4" transform="matrix(0.93, -0.37, 0.37, 0.93, 58.96, 38.2)">i</text><text class="cls-4" transform="translate(63.67 36.44) rotate(-13.32)">t</text><text class="cls-4" transform="translate(69.88 35.06) rotate(-2.55)">h</text><text class="cls-4" transform="matrix(0.99, 0.16, -0.16, 0.99, 78.61, 34.91)">a</text><text class="cls-4" transform="matrix(0.93, 0.36, -0.36, 0.93, 86.43, 36.37)">e</text><text class="cls-4" transform="matrix(0.84, 0.54, -0.54, 0.84, 94.01, 39.48)">L</text><text class="cls-4" transform="matrix(0.83, 0.56, -0.56, 0.83, 44.54, 112.42)">N</text><text class="cls-4" transform="matrix(0.94, 0.34, -0.34, 0.94, 55.51, 119.06)">E</text><text class="cls-4" transform="translate(65.49 122.25) rotate(7.14)">T</text><text class="cls-4" transform="translate(76.06 123.19) rotate(-5.43)">Z</text><text class="cls-4" transform="translate(86.82 121.79) rotate(-18.97)">A</text><text class="cls-4" transform="matrix(0.83, -0.56, 0.56, 0.83, 97.93, 117.53)">H</text></g></svg>