<svg id="Symbols" xmlns="http://www.w3.org/2000/svg" viewBox="0 0 150 150"><defs><style>.cls-1,.cls-2{fill:none;stroke:#231f20;stroke-width:8px;}.cls-1{stroke-linejoin:bevel;}.cls-2{stroke-miterlimit:10;}</style></defs><polyline class="cls-1" points="71 49.5 83.06 50.69 77.82 52.36 77.92 63.3"/><polyline class="cls-1" points="77.82 63.36 77.82 74.36 83.82 75.67 71.85 77.36"/><path class="cls-2" d="M129,64.5h-9c0-.17,0-.33,0-.5a13.49,13.49,0,0,0-13.5-13.5C99,50.5,93,56,93,63.5c0,.17,0-.17,0,0H24c0-10.49,7.51-19,18-19a19,19,0,0,1,19,19v42"/><polyline class="cls-2" points="53 105.5 68 105.5 69 105.5"/></svg>