<svg id="Symbols" xmlns="http://www.w3.org/2000/svg" viewBox="0 0 150 150"><defs><style>.cls-1,.cls-2{fill:none;stroke:#231f20;stroke-width:8px;}.cls-1{stroke-linejoin:bevel;}.cls-2{stroke-miterlimit:10;}</style></defs><path class="cls-1" d="M73.4,44.83a6.65,6.65,0,1,0-5.88-11.94"/><path class="cls-1" d="M123.58,124.1a6.66,6.66,0,1,0-9.34-1.18A6.65,6.65,0,0,0,123.58,124.1Z"/><path class="cls-2" d="M73.4,44.83a6.66,6.66,0,0,1-7-11.25,6.73,6.73,0,0,1,1.1-.69A25,25,0,1,0,66.67,67L76,78.63,125.9,34.5l-.06,1-33,64L76,78.63,29.84,119.5h81"/></svg>