<svg xmlns="http://www.w3.org/2000/svg" viewBox="0 0 150 150"><defs><style>.cls-1{fill:none;stroke:#231f20;stroke-miterlimit:10;stroke-width:4px;}.cls-2,.cls-3{fill:#231f20;}.cls-3{font-size:12px;font-family:Lato-Medium, Lato;font-weight:500;}</style></defs><g id="Symbols"><path class="cls-1" d="M74.36,63a2.47,2.47,0,0,0,.47-.29A2.65,2.65,0,0,0,72,58.22"/><path class="cls-1" d="M94.36,94.57a2.66,2.66,0,1,0-3.72-.47A2.66,2.66,0,0,0,94.36,94.57Z"/><path class="cls-1" d="M74.36,63a2.65,2.65,0,0,1-2.78-4.49,2.89,2.89,0,0,1,.44-.27,10,10,0,1,0-.34,13.6l3.73,4.63L95.28,58.86l0,.4L82.11,84.76l-6.7-8.31L57,92.73H89.28"/></g><g id="Layer_3" data-name="Layer 3"><path class="cls-2" d="M75,41.55A33.45,33.45,0,1,1,41.55,75,33.48,33.48,0,0,1,75,41.55m0-4A37.45,37.45,0,1,0,112.45,75,37.45,37.45,0,0,0,75,37.55Z"/><path class="cls-2" d="M75,24A51,51,0,1,1,24,75,51.06,51.06,0,0,1,75,24m0-2a53,53,0,1,0,53,53A53,53,0,0,0,75,22Z"/><circle class="cls-1" cx="75" cy="75" r="53"/><text class="cls-3" transform="matrix(0.92, -0.4, 0.4, 0.92, 55.97, 39.52)">o</text><text class="cls-3" transform="matrix(0.99, -0.15, 0.15, 0.99, 64.01, 36.09)">m</text><text class="cls-3" transform="translate(75.75 34.76) rotate(5.2)">a</text><text class="cls-3" transform="matrix(0.96, 0.29, -0.29, 0.96, 83.71, 35.68)">e</text><text class="cls-3" transform="translate(91.64 38.42) rotate(26.47)">l</text><text class="cls-3" transform="matrix(0.83, 0.56, -0.56, 0.83, 45, 112.73)">C</text><text class="cls-3" transform="matrix(0.94, 0.33, -0.33, 0.94, 54.95, 118.92)">H</text><text class="cls-3" transform="translate(67.27 122.56) rotate(5.11)">E</text><text class="cls-3" transform="translate(77.65 123.11) rotate(-6.9)">S</text><text class="cls-3" transform="translate(87.55 121.55) rotate(-19.14)">E</text><text class="cls-3" transform="translate(97.44 117.79) rotate(-33.09)">D</text></g></svg>