<svg xmlns="http://www.w3.org/2000/svg" viewBox="0 0 150 150"><defs><style>.cls-1{fill:none;stroke:#231f20;stroke-miterlimit:10;stroke-width:4px;}.cls-2,.cls-3{fill:#231f20;}.cls-3{font-size:12px;font-family:Lato-Medium, Lato;font-weight:500;}</style></defs><g id="Symbols"><path class="cls-1" d="M94.91,88.45a2.88,2.88,0,1,0-4-.51A2.87,2.87,0,0,0,94.91,88.45Z"/><path class="cls-1" d="M65.06,97.54A2.88,2.88,0,1,0,61,97,2.87,2.87,0,0,0,65.06,97.54Z"/><path class="cls-1" d="M93.29,83.3V53.88h-.43l-7,9.95H58.68a6.06,6.06,0,1,0,0,12.11H77.24L65.6,92.38"/></g><g id="Layer_3" data-name="Layer 3"><path class="cls-2" d="M75,41.55A33.45,33.45,0,1,1,41.55,75,33.48,33.48,0,0,1,75,41.55m0-4A37.45,37.45,0,1,0,112.45,75,37.45,37.45,0,0,0,75,37.55Z"/><path class="cls-2" d="M75,24A51,51,0,1,1,24,75,51.06,51.06,0,0,1,75,24m0-2a53,53,0,1,0,53,53A53,53,0,0,0,75,22Z"/><circle class="cls-1" cx="75" cy="75" r="53"/><text class="cls-3" transform="translate(48.46 44.76) rotate(-36.57)">p</text><text class="cls-3" transform="translate(55.63 39.75) rotate(-24.63)">a</text><text class="cls-3" transform="translate(62.96 36.57) rotate(-12.65)">h</text><text class="cls-3" transform="matrix(1, -0.01, 0.01, 1, 71.49, 34.91)">a</text><text class="cls-3" transform="matrix(0.99, 0.15, -0.15, 0.99, 79.56, 35.09)">l</text><text class="cls-3" transform="translate(84.49 35.96) rotate(15.63)">i</text><text class="cls-3" transform="translate(89.27 37.34) rotate(24.99)">a</text><text class="cls-3" transform="matrix(0.8, 0.6, -0.6, 0.8, 96.43, 40.87)">h</text><text class="cls-3" transform="translate(50.23 116.35) rotate(26.38)">B</text><text class="cls-3" transform="translate(60.42 120.83) rotate(15.65)">I</text><text class="cls-3" transform="translate(67.04 122.62) rotate(4.04)">N</text><text class="cls-3" transform="translate(79.93 122.99) rotate(-10.59)">A</text><text class="cls-3" transform="translate(91.55 120.39) rotate(-25.46)">H</text></g></svg>