<svg xmlns="http://www.w3.org/2000/svg" viewBox="0 0 150 150"><defs><style>.cls-1{fill:none;stroke:#231f20;stroke-miterlimit:10;stroke-width:4px;}.cls-2,.cls-3{fill:#231f20;}.cls-3{font-size:12px;font-family:Lato-Medium, Lato;font-weight:500;}</style></defs><g id="Symbols"><path class="cls-1" d="M94.3,95.86,78.91,73.15a5.64,5.64,0,0,0-9.35,6.32L75.78,89H51.65v-.39l9.73-8.95V59"/><path class="cls-1" d="M59.77,54.27a2.59,2.59,0,1,1-.66,3.6A2.59,2.59,0,0,1,59.77,54.27Z"/><path class="cls-1" d="M96,87.57a2.67,2.67,0,1,1,2.89-2.41A2.66,2.66,0,0,1,96,87.57Z"/><path class="cls-1" d="M85.33,98.41A2.67,2.67,0,1,1,88.23,96,2.66,2.66,0,0,1,85.33,98.41Z"/><line class="cls-1" x1="95.58" y1="85.71" x2="86.93" y2="94.99"/></g><g id="Layer_3" data-name="Layer 3"><path class="cls-2" d="M75,41.55A33.45,33.45,0,1,1,41.55,75,33.48,33.48,0,0,1,75,41.55m0-4A37.45,37.45,0,1,0,112.45,75,37.45,37.45,0,0,0,75,37.55Z"/><path class="cls-2" d="M75,24A51,51,0,1,1,24,75,51.06,51.06,0,0,1,75,24m0-2a53,53,0,1,0,53,53A53,53,0,0,0,75,22Z"/><circle class="cls-1" cx="75" cy="75" r="53"/><text class="cls-3" transform="translate(53.98 40.65) rotate(-26.42)">P</text><text class="cls-3" transform="translate(62.22 36.66) rotate(-11.62)">O</text><text class="cls-3" transform="translate(73.15 34.74) rotate(2.62)">Y</text><text class="cls-3" transform="matrix(0.96, 0.27, -0.27, 0.96, 82.61, 35.43)">E</text><text class="cls-3" transform="matrix(0.88, 0.47, -0.47, 0.88, 91.11, 38.08)">L</text><text class="cls-3" transform="matrix(0.83, 0.56, -0.56, 0.83, 44.54, 112.42)">N</text><text class="cls-3" transform="matrix(0.94, 0.34, -0.34, 0.94, 55.51, 119.06)">E</text><text class="cls-3" transform="translate(65.49 122.25) rotate(7.14)">T</text><text class="cls-3" transform="translate(76.06 123.19) rotate(-5.43)">Z</text><text class="cls-3" transform="translate(86.82 121.79) rotate(-18.97)">A</text><text class="cls-3" transform="matrix(0.83, -0.56, 0.56, 0.83, 97.93, 117.53)">H</text></g></svg>