<svg id="Symbols" xmlns="http://www.w3.org/2000/svg" viewBox="0 0 150 150"><defs><style>.cls-1,.cls-2{fill:none;stroke:#231f20;stroke-width:8px;}.cls-1{stroke-miterlimit:10;}.cls-2{stroke-linejoin:bevel;}</style></defs><path class="cls-1" d="M117.23,120.65,83.57,71A12.35,12.35,0,0,0,63.1,84.78l13.6,20.77H23.9v-.85L45.19,85.11V40"/><path class="cls-2" d="M41.68,29.63a5.67,5.67,0,1,1-1.45,7.89A5.67,5.67,0,0,1,41.68,29.63Z"/><path class="cls-2" d="M118.8,101.61a5.83,5.83,0,1,1,7.11-4.17A5.84,5.84,0,0,1,118.8,101.61Z"/><path class="cls-2" d="M91.88,121.18A5.83,5.83,0,1,1,99,117,5.83,5.83,0,0,1,91.88,121.18Z"/><line class="cls-1" x1="118.56" y1="97.46" x2="96.56" y2="114.38"/></svg>