<svg xmlns="http://www.w3.org/2000/svg" viewBox="0 0 150 150"><defs><style>.cls-1{fill:none;stroke:#231f20;stroke-miterlimit:10;stroke-width:4px;}.cls-2,.cls-3{fill:#231f20;}.cls-3{font-size:12px;font-family:Lato-Medium, Lato;font-weight:500;}</style></defs><g id="Symbols"><path class="cls-1" d="M91.22,80.39a2.69,2.69,0,1,1-.69,3.73A2.67,2.67,0,0,1,91.22,80.39Z"/><path class="cls-1" d="M56.13,55.51a2.69,2.69,0,1,1-.68,3.74A2.69,2.69,0,0,1,56.13,55.51Z"/><path class="cls-1" d="M58.59,60.24l2.8,9.22A7.62,7.62,0,0,0,65,74a7.32,7.32,0,0,0,5.69.59,7.53,7.53,0,0,0,4.94-9.43L72.48,54.63"/><path class="cls-1" d="M72.48,54.63l3.19,10.49,5.39,17.74,3.8,12.51h-24a6.26,6.26,0,0,1,0-12.51H90.07"/></g><g id="Layer_3" data-name="Layer 3"><path class="cls-2" d="M75,41.55A33.45,33.45,0,1,1,41.55,75,33.48,33.48,0,0,1,75,41.55m0-4A37.45,37.45,0,1,0,112.45,75,37.45,37.45,0,0,0,75,37.55Z"/><path class="cls-2" d="M75,24A51,51,0,1,1,24,75,51.06,51.06,0,0,1,75,24m0-2a53,53,0,1,0,53,53A53,53,0,0,0,75,22Z"/><circle class="cls-1" cx="75" cy="75" r="53"/><text class="cls-3" transform="translate(44.87 48.46) rotate(-45.55)">r</text><text class="cls-3" transform="translate(49.27 44.09) rotate(-35.37)">e</text><text class="cls-3" transform="translate(56.16 39.43) rotate(-23.24)">h</text><text class="cls-3" transform="translate(64.27 36.22) rotate(-11.22)">a</text><text class="cls-3" transform="matrix(1, -0.01, 0.01, 1, 72.09, 34.9)">e</text><text class="cls-3" transform="translate(80.53 35.21) rotate(9.8)">l</text><text class="cls-3" transform="translate(85.42 36.15) rotate(18.12)">-</text><text class="cls-3" transform="matrix(0.88, 0.48, -0.48, 0.88, 91.58, 38.3)">a</text><text class="cls-3" transform="matrix(0.79, 0.61, -0.61, 0.79, 98.49, 42.39)">l</text><text class="cls-3" transform="translate(102.37 45.52) rotate(45.91)">t</text><text class="cls-3" transform="matrix(0.83, 0.56, -0.56, 0.83, 45, 112.73)">C</text><text class="cls-3" transform="matrix(0.94, 0.33, -0.33, 0.94, 54.95, 118.92)">H</text><text class="cls-3" transform="translate(67.27 122.56) rotate(5.11)">E</text><text class="cls-3" transform="translate(77.65 123.11) rotate(-6.9)">S</text><text class="cls-3" transform="translate(87.55 121.55) rotate(-19.14)">E</text><text class="cls-3" transform="translate(97.44 117.79) rotate(-33.09)">D</text></g></svg>