<svg id="Symbols" xmlns="http://www.w3.org/2000/svg" viewBox="0 0 150 150"><defs><style>.cls-1,.cls-2{fill:none;stroke:#231f20;stroke-width:8px;}.cls-1{stroke-linejoin:bevel;}.cls-2{stroke-miterlimit:10;}</style></defs><path class="cls-1" d="M115.21,88.36a6.66,6.66,0,1,1-1.69,9.26A6.66,6.66,0,0,1,115.21,88.36Z"/><path class="cls-1" d="M28.21,26.68a6.66,6.66,0,1,1-1.69,9.26A6.66,6.66,0,0,1,28.21,26.68Z"/><path class="cls-1" d="M68.74,24.5l7.91,26A18.66,18.66,0,0,1,64.42,73.89,18.24,18.24,0,0,1,50.3,72.43a19,19,0,0,1-9-11.16l-7.91-26"/><path class="cls-2" d="M68.74,24.5l7.91,26L90,94.5l9.42,31H39.84a15.5,15.5,0,0,1,0-31h72.54"/></svg>