<svg xmlns="http://www.w3.org/2000/svg" viewBox="0 0 150 150"><defs><style>.cls-1{fill:none;stroke:#231f20;stroke-miterlimit:10;stroke-width:4px;}.cls-2,.cls-3{fill:#231f20;}.cls-3{font-size:12px;font-family:Lato-Medium, Lato;font-weight:500;}</style></defs><g id="Symbols"><path class="cls-1" d="M95.63,72.47a2.79,2.79,0,1,1,2.78,2.8A2.79,2.79,0,0,1,95.63,72.47Z"/><path class="cls-1" d="M85.25,57.3A2.8,2.8,0,1,1,88,60.1,2.78,2.78,0,0,1,85.25,57.3Z"/><path class="cls-1" d="M85.25,87.64A2.8,2.8,0,1,1,88,90.44,2.8,2.8,0,0,1,85.25,87.64Z"/><path class="cls-1" d="M69.1,60.1H69a2.86,2.86,0,1,0,.14,0Z"/><path class="cls-1" d="M66.78,61.27l-6-5.19V93.3L74.65,81.66H73.08a4.59,4.59,0,1,1,0-9.18H95.63"/><line class="cls-1" x1="88.04" y1="61.3" x2="88.04" y2="83.65"/></g><g id="Layer_3" data-name="Layer 3"><path class="cls-2" d="M75,41.55A33.45,33.45,0,1,1,41.55,75,33.48,33.48,0,0,1,75,41.55m0-4A37.45,37.45,0,1,0,112.45,75,37.45,37.45,0,0,0,75,37.55Z"/><path class="cls-2" d="M75,24A51,51,0,1,1,24,75,51.06,51.06,0,0,1,75,24m0-2a53,53,0,1,0,53,53A53,53,0,0,0,75,22Z"/><circle class="cls-1" cx="75" cy="75" r="53"/><text class="cls-3" transform="translate(52.41 41.65) rotate(-28.86)">R</text><text class="cls-3" transform="translate(60.85 37.29) rotate(-15.68)">E</text><text class="cls-3" transform="translate(69.57 35.2) rotate(-5.36)">I</text><text class="cls-3" transform="translate(74.98 34.69) rotate(5.2)">Y</text><text class="cls-3" transform="matrix(0.95, 0.32, -0.32, 0.95, 84.43, 35.82)">E</text><text class="cls-3" transform="translate(92.79 38.86) rotate(30.6)">L</text><text class="cls-3" transform="translate(39.71 107.87) rotate(41.89)">G</text><text class="cls-3" transform="translate(49.25 115.71) rotate(28.3)">E</text><text class="cls-3" transform="translate(58.68 120.37) rotate(15.18)">B</text><text class="cls-3" transform="translate(69.8 122.96) rotate(1.32)">U</text><text class="cls-3" transform="translate(82.31 122.67) rotate(-13.1)">R</text><text class="cls-3" transform="translate(93.14 119.74) rotate(-26.9)">A</text><text class="cls-3" transform="matrix(0.75, -0.66, 0.66, 0.75, 103.54, 113.99)">H</text></g></svg>