<svg id="Symbols" xmlns="http://www.w3.org/2000/svg" viewBox="0 0 150 150"><defs><style>.cls-1,.cls-2{fill:none;stroke:#231f20;stroke-width:8px;}.cls-1{stroke-linejoin:bevel;}.cls-2{stroke-miterlimit:10;}</style></defs><path class="cls-1" d="M111.27,69.34a6.93,6.93,0,1,1,6.91,7A6.92,6.92,0,0,1,111.27,69.34Z"/><path class="cls-1" d="M85.54,31.73a6.93,6.93,0,1,1,6.91,7A6.92,6.92,0,0,1,85.54,31.73Z"/><path class="cls-1" d="M85.54,107a6.93,6.93,0,1,1,6.91,6.94A6.92,6.92,0,0,1,85.54,107Z"/><path class="cls-1" d="M45.5,38.68a2.17,2.17,0,0,0-.36,0,7.18,7.18,0,1,0,.36,0Z"/><path class="cls-2" d="M39.73,41.57,24.88,28.69V121L59.26,92.12H55.35a11.38,11.38,0,0,1,0-22.76h55.92"/><line class="cls-1" x1="92.46" y1="41.65" x2="92.46" y2="97.07"/></svg>