<svg xmlns="http://www.w3.org/2000/svg" viewBox="0 0 150 150"><defs><style>.cls-1,.cls-2{fill:none;stroke:#231f20;stroke-width:4px;}.cls-1{stroke-linejoin:bevel;}.cls-2{stroke-miterlimit:10;}.cls-3,.cls-4{fill:#231f20;}.cls-4{font-size:12px;font-family:Lato-Medium, Lato;font-weight:500;}</style></defs><g id="Symbols"><path class="cls-1" d="M56.58,56.3a3,3,0,1,1,3,3A3,3,0,0,1,56.58,56.3Z"/><path class="cls-2" d="M62.53,56.31H90.59L65.08,82a5.52,5.52,0,0,1-1.27,1,5.4,5.4,0,0,1-6.38-8.57l6.38-6.41V96.67h.42l29.91-30"/></g><g id="Layer_3" data-name="Layer 3"><path class="cls-3" d="M75,41.55A33.45,33.45,0,1,1,41.55,75,33.48,33.48,0,0,1,75,41.55m0-4A37.45,37.45,0,1,0,112.45,75,37.45,37.45,0,0,0,75,37.55Z"/><path class="cls-3" d="M75,24A51,51,0,1,1,24,75,51.06,51.06,0,0,1,75,24m0-2a53,53,0,1,0,53,53A53,53,0,0,0,75,22Z"/><circle class="cls-2" cx="75" cy="75" r="53"/><text class="cls-4" transform="translate(54.76 40.3) rotate(-27.25)">r</text><text class="cls-4" transform="translate(60.3 37.51) rotate(-16.62)">o</text><text class="cls-4" transform="translate(68.81 35.25) rotate(-4.77)">c</text><text class="cls-4" transform="translate(76.54 34.76) rotate(6.83)">h</text><text class="cls-4" transform="translate(85.13 36.01) rotate(19)">e</text><text class="cls-4" transform="matrix(0.88, 0.48, -0.48, 0.88, 92.98, 39.06)">l</text><text class="cls-4" transform="translate(49.26 115.74) rotate(27.91)">Y</text><text class="cls-4" transform="matrix(0.97, 0.26, -0.26, 0.97, 59.27, 120.55)">E</text><text class="cls-4" transform="translate(69.42 122.85) rotate(2.8)">S</text><text class="cls-4" transform="matrix(0.98, -0.19, 0.19, 0.98, 79.59, 123.1)">O</text><text class="cls-4" transform="translate(92.67 119.97) rotate(-26.86)">D</text></g></svg>