<svg xmlns="http://www.w3.org/2000/svg" viewBox="0 0 150 150"><defs><style>.cls-1,.cls-2{fill:none;stroke:#231f20;}.cls-1{stroke-miterlimit:10;stroke-width:4px;}.cls-2{stroke-linejoin:bevel;stroke-width:2px;}.cls-3,.cls-4{fill:#231f20;}.cls-4{font-size:12px;font-family:Lato-Medium, Lato;font-weight:500;}</style></defs><g id="Symbols"><path class="cls-1" d="M74.46,63.61l2.85,7.29a4.94,4.94,0,0,1-9.2,3.59l-.3-.74-1-2.61"/><path class="cls-1" d="M68.11,74.49l-.3-.74-1-2.61a4.94,4.94,0,0,0-9.2,3.6l2.65,6.82"/><path class="cls-1" d="M68.48,49.49V92.63a5.61,5.61,0,0,0,11.21,0V85.39L92.76,95.94"/><polyline class="cls-2" points="58.85 60.29 59.89 51.95 60.87 55.61 68.53 55.73"/><polyline class="cls-2" points="68.53 55.73 76.2 55.54 77.22 51.87 78.17 60.19"/></g><g id="Layer_3" data-name="Layer 3"><path class="cls-3" d="M75,41.55A33.45,33.45,0,1,1,41.55,75,33.48,33.48,0,0,1,75,41.55m0-4A37.45,37.45,0,1,0,112.45,75,37.45,37.45,0,0,0,75,37.55Z"/><path class="cls-3" d="M75,24A51,51,0,1,1,24,75,51.06,51.06,0,0,1,75,24m0-2a53,53,0,1,0,53,53A53,53,0,0,0,75,22Z"/><circle class="cls-1" cx="75" cy="75" r="53"/><text class="cls-4" transform="translate(43.89 49.5) rotate(-46.06)">S</text><text class="cls-4" transform="matrix(0.83, -0.55, 0.55, 0.83, 49.94, 43.5)">E</text><text class="cls-4" transform="matrix(0.94, -0.33, 0.33, 0.94, 57.36, 38.67)">H</text><text class="cls-4" transform="translate(67.92 35.29) rotate(-4.32)">A</text><text class="cls-4" transform="matrix(0.99, 0.15, -0.15, 0.99, 78.01, 34.86)">L</text><text class="cls-4" transform="matrix(0.95, 0.32, -0.32, 0.95, 86.11, 36.37)">I</text><text class="cls-4" transform="matrix(0.87, 0.49, -0.49, 0.87, 91.27, 38.05)">A</text><text class="cls-4" transform="translate(99.95 43.19) rotate(44.58)">H</text><text class="cls-4" transform="matrix(0.52, 0.86, -0.86, 0.52, 32.08, 96.85)">T</text><text class="cls-4" transform="translate(37.93 105.87) rotate(44.8)">H</text><text class="cls-4" transform="matrix(0.84, 0.55, -0.55, 0.84, 47.29, 114.28)">I</text><text class="cls-4" transform="translate(53.01 117.88) rotate(22.93)">P</text><text class="cls-4" transform="translate(63.21 121.82) rotate(8.68)">H</text><text class="cls-4" transform="translate(75.93 123.18) rotate(-5.09)">E</text><text class="cls-4" transform="translate(86.32 121.89) rotate(-17.99)">R</text><text class="cls-4" transform="translate(96.73 118.05) rotate(-30.89)">E</text><text class="cls-4" transform="matrix(0.73, -0.69, 0.69, 0.73, 105.51, 112.36)">T</text><text class="cls-4" transform="matrix(0.54, -0.84, 0.84, 0.54, 113.1, 104.74)">H</text></g></svg>