<svg xmlns="http://www.w3.org/2000/svg" viewBox="0 0 150 150"><defs><style>.cls-1{fill:none;stroke:#231f20;stroke-miterlimit:10;stroke-width:4px;}.cls-2,.cls-3{fill:#231f20;}.cls-3{font-size:12px;font-family:Lato-Medium, Lato;font-weight:500;}</style></defs><g id="Symbols"><line class="cls-1" x1="57.76" y1="76.48" x2="57.76" y2="83.87"/><path class="cls-1" d="M57.76,80.4A8.37,8.37,0,1,1,66.62,72H78.94V49.88h.49l20.69,21.67V72H78.94v28.08h.49l7.89-14.28"/></g><g id="Layer_3" data-name="Layer 3"><path class="cls-2" d="M75,41.55A33.45,33.45,0,1,1,41.55,75,33.48,33.48,0,0,1,75,41.55m0-4A37.45,37.45,0,1,0,112.45,75,37.45,37.45,0,0,0,75,37.55Z"/><path class="cls-2" d="M75,24A51,51,0,1,1,24,75,51.06,51.06,0,0,1,75,24m0-2a53,53,0,1,0,53,53A53,53,0,0,0,75,22Z"/><circle class="cls-1" cx="75" cy="75" r="53"/><text class="cls-3" transform="translate(50.78 42.94) rotate(-33.48)">s</text><text class="cls-3" transform="matrix(0.92, -0.38, 0.38, 0.92, 56.87, 39.07)">e</text><text class="cls-3" transform="translate(64.67 36.08) rotate(-10.09)">h</text><text class="cls-3" transform="matrix(1, 0.03, -0.03, 1, 73.26, 34.78)">e</text><text class="cls-3" transform="translate(81.65 35.38) rotate(11.47)">i</text><text class="cls-3" transform="translate(86.54 36.42) rotate(20.86)">a</text><text class="cls-3" transform="translate(93.94 39.42) rotate(32.8)">h</text><text class="cls-3" transform="matrix(0.83, 0.56, -0.56, 0.83, 45, 112.73)">C</text><text class="cls-3" transform="matrix(0.94, 0.33, -0.33, 0.94, 54.95, 118.92)">H</text><text class="cls-3" transform="translate(67.27 122.56) rotate(5.11)">E</text><text class="cls-3" transform="translate(77.65 123.11) rotate(-6.9)">S</text><text class="cls-3" transform="translate(87.55 121.55) rotate(-19.14)">E</text><text class="cls-3" transform="translate(97.44 117.79) rotate(-33.09)">D</text></g></svg>