<svg xmlns="http://www.w3.org/2000/svg" viewBox="0 0 150 150"><defs><style>.cls-1,.cls-2{fill:none;stroke:#231f20;stroke-width:4px;}.cls-1{stroke-linejoin:bevel;}.cls-2{stroke-miterlimit:10;}.cls-3,.cls-4{fill:#231f20;}.cls-4{font-size:12px;font-family:Lato-Medium, Lato;font-weight:500;}</style></defs><g id="Symbols"><path class="cls-1" d="M53.88,60.77a2.9,2.9,0,1,1,2.89,2.9A2.89,2.89,0,0,1,53.88,60.77Z"/><path class="cls-1" d="M80.39,97.22a2.9,2.9,0,1,1,2.89,2.9A2.89,2.89,0,0,1,80.39,97.22Z"/><path class="cls-2" d="M80.87,95.63,66.64,84.8H84.11a6.63,6.63,0,0,0,0-13.26H80.43L96.12,60.77v-.41H60.92"/></g><g id="Layer_3" data-name="Layer 3"><path class="cls-3" d="M75,41.55A33.45,33.45,0,1,1,41.55,75,33.48,33.48,0,0,1,75,41.55m0-4A37.45,37.45,0,1,0,112.45,75,37.45,37.45,0,0,0,75,37.55Z"/><path class="cls-3" d="M75,24A51,51,0,1,1,24,75,51.06,51.06,0,0,1,75,24m0-2a53,53,0,1,0,53,53A53,53,0,0,0,75,22Z"/><circle class="cls-2" cx="75" cy="75" r="53"/><text class="cls-4" transform="translate(56.82 39.14) rotate(-23.28)">s</text><text class="cls-4" transform="matrix(0.97, -0.25, 0.25, 0.97, 63.62, 36.49)">i</text><text class="cls-4" transform="translate(68.51 35.34) rotate(-6.22)">t</text><text class="cls-4" transform="translate(74.86 34.76) rotate(3.93)">a</text><text class="cls-4" transform="translate(82.83 35.49) rotate(15.63)">e</text><text class="cls-4" transform="translate(90.83 38.06) rotate(25.21)">l</text><text class="cls-4" transform="translate(45.43 113.06) rotate(33.19)">K</text><text class="cls-4" transform="translate(55.38 119) rotate(19.97)">E</text><text class="cls-4" transform="translate(65.34 122.22) rotate(7.32)">T</text><text class="cls-4" transform="translate(76.03 123.27) rotate(-6.53)">H</text><text class="cls-4" transform="matrix(0.94, -0.35, 0.35, 0.94, 88.69, 121.24)">E</text><text class="cls-4" transform="translate(98.39 117.2) rotate(-33.48)">R</text></g></svg>