<svg xmlns="http://www.w3.org/2000/svg" viewBox="0 0 150 150"><defs><style>.cls-1,.cls-2{fill:none;stroke:#231f20;stroke-width:4px;}.cls-1{stroke-linejoin:bevel;}.cls-2{stroke-miterlimit:10;}.cls-3,.cls-4{fill:#231f20;}.cls-4{font-size:12px;font-family:Lato-Medium, Lato;font-weight:500;}</style></defs><g id="Symbols"><path class="cls-1" d="M93.36,94.34a2.57,2.57,0,1,1,1.26-3.41A2.58,2.58,0,0,1,93.36,94.34Z"/><path class="cls-1" d="M59.31,60a2.57,2.57,0,1,1,1.26-3.4A2.57,2.57,0,0,1,59.31,60Z"/><path class="cls-2" d="M59.85,59.67l4.43,4.43H80v.38L55.41,89.17v.39H83.2L78,79.05a3.63,3.63,0,1,1,6.5-3.22L91.38,89.6"/></g><g id="Layer_3" data-name="Layer 3"><path class="cls-3" d="M75,41.55A33.45,33.45,0,1,1,41.55,75,33.48,33.48,0,0,1,75,41.55m0-4A37.45,37.45,0,1,0,112.45,75,37.45,37.45,0,0,0,75,37.55Z"/><path class="cls-3" d="M75,24A51,51,0,1,1,24,75,51.06,51.06,0,0,1,75,24m0-2a53,53,0,1,0,53,53A53,53,0,0,0,75,22Z"/><circle class="cls-2" cx="75" cy="75" r="53"/><text class="cls-4" transform="translate(52.3 41.77) rotate(-29.68)">u</text><text class="cls-4" transform="translate(59.82 37.53) rotate(-15.06)">m</text><text class="cls-4" transform="translate(71.33 34.93) rotate(-1.01)">a</text><text class="cls-4" transform="translate(79.34 34.95) rotate(10.84)">b</text><text class="cls-4" transform="translate(87.84 36.81) rotate(23.06)">e</text><text class="cls-4" transform="translate(95.46 40.4) rotate(32.63)">l</text><text class="cls-4" transform="translate(57.62 120.04) rotate(15.67)">H</text><text class="cls-4" transform="translate(70.3 123.11) rotate(-0.54)">O</text><text class="cls-4" transform="translate(83.68 122.51) rotate(-15.68)">D</text></g></svg>