<svg xmlns="http://www.w3.org/2000/svg" viewBox="0 0 150 150"><defs><style>.cls-1,.cls-2{fill:none;stroke:#231f20;stroke-width:4px;}.cls-1{stroke-linejoin:bevel;}.cls-2{stroke-miterlimit:10;}.cls-3,.cls-4{fill:#231f20;}.cls-4{font-size:12px;font-family:Lato-Medium, Lato;font-weight:500;}</style></defs><g id="Symbols"><path class="cls-1" d="M61.38,59.28a2.63,2.63,0,1,1,1.29-3.49A2.63,2.63,0,0,1,61.38,59.28Z"/><path class="cls-1" d="M92,64.22a2.54,2.54,0,1,1,1.24-3.36A2.54,2.54,0,0,1,92,64.22Z"/><path class="cls-2" d="M88.48,64l-13,12.2L93.43,92.91v.38H58.38a3.81,3.81,0,0,1,0-7.62h1.9V60.52"/><line class="cls-1" x1="55.71" y1="69.67" x2="64.85" y2="69.67"/></g><g id="Layer_3" data-name="Layer 3"><path class="cls-3" d="M75,41.55A33.45,33.45,0,1,1,41.55,75,33.48,33.48,0,0,1,75,41.55m0-4A37.45,37.45,0,1,0,112.45,75,37.45,37.45,0,0,0,75,37.55Z"/><path class="cls-3" d="M75,24A51,51,0,1,1,24,75,51.06,51.06,0,0,1,75,24m0-2a53,53,0,1,0,53,53A53,53,0,0,0,75,22Z"/><circle class="cls-2" cx="75" cy="75" r="53"/><text class="cls-4" transform="matrix(0.8, -0.59, 0.59, 0.8, 48.72, 44.56)">v</text><text class="cls-4" transform="translate(55.33 39.91) rotate(-25.12)">a</text><text class="cls-4" transform="matrix(0.97, -0.24, 0.24, 0.97, 62.68, 36.72)">s</text><text class="cls-4" transform="matrix(1, -0.06, 0.06, 1, 69.73, 35.11)">a</text><text class="cls-4" transform="translate(77.76 34.9) rotate(6.92)">r</text><text class="cls-4" transform="translate(84.19 35.88) rotate(15.18)">i</text><text class="cls-4" transform="translate(88.98 37.23) rotate(24.55)">a</text><text class="cls-4" transform="translate(96.18 40.71) rotate(36.46)">h</text><text class="cls-4" transform="matrix(0.83, 0.56, -0.56, 0.83, 45, 112.73)">C</text><text class="cls-4" transform="matrix(0.94, 0.33, -0.33, 0.94, 54.95, 118.92)">H</text><text class="cls-4" transform="translate(67.27 122.56) rotate(5.11)">E</text><text class="cls-4" transform="translate(77.65 123.11) rotate(-6.9)">S</text><text class="cls-4" transform="translate(87.55 121.55) rotate(-19.14)">E</text><text class="cls-4" transform="translate(97.44 117.79) rotate(-33.09)">D</text></g></svg>