<svg xmlns="http://www.w3.org/2000/svg" viewBox="0 0 150 150"><defs><style>.cls-1,.cls-2,.cls-3{fill:none;stroke:#231f20;}.cls-1,.cls-2{stroke-linejoin:bevel;}.cls-1{stroke-width:2px;}.cls-2,.cls-3{stroke-width:4px;}.cls-3{stroke-miterlimit:10;}.cls-4,.cls-5{fill:#231f20;}.cls-5{font-size:12px;font-family:Lato-Medium, Lato;font-weight:500;}</style></defs><g id="Symbols"><polyline class="cls-1" points="67.78 81.69 59.52 80.66 63.15 79.68 63.27 72.09"/><polyline class="cls-1" points="63.27 72.09 63.07 64.5 59.44 63.5 67.68 62.55"/><path class="cls-2" d="M53.78,75.58a3.22,3.22,0,1,0-3.18-3.24A3.22,3.22,0,0,0,53.78,75.58Z"/><path class="cls-3" d="M92.27,67.31l6.48,12.1a5.46,5.46,0,0,1-9.62,5.17L87.05,80.7l-3.56-6.62-3.72-6.94"/><path class="cls-3" d="M87.05,80.7l-3.56-6.62-3.72-6.94A3.83,3.83,0,1,0,73,70.76l.78,1.44H56.21"/></g><g id="Layer_3" data-name="Layer 3"><path class="cls-4" d="M75,41.55A33.45,33.45,0,1,1,41.55,75,33.48,33.48,0,0,1,75,41.55m0-4A37.45,37.45,0,1,0,112.45,75,37.45,37.45,0,0,0,75,37.55Z"/><path class="cls-4" d="M75,24A51,51,0,1,1,24,75,51.06,51.06,0,0,1,75,24m0-2a53,53,0,1,0,53,53A53,53,0,0,0,75,22Z"/><circle class="cls-3" cx="75" cy="75" r="53"/><text class="cls-5" transform="matrix(0.83, -0.55, 0.55, 0.83, 50.29, 43.27)">v</text><text class="cls-5" transform="translate(57.09 38.96) rotate(-22.01)">e</text><text class="cls-5" transform="translate(64.89 36.02) rotate(-9.78)">h</text><text class="cls-5" transform="translate(73.5 34.76) rotate(2.53)">u</text><text class="cls-5" transform="matrix(0.98, 0.21, -0.21, 0.98, 82.21, 35.48)">i</text><text class="cls-5" transform="translate(87.07 36.58) rotate(21.65)">a</text><text class="cls-5" transform="translate(94.42 39.68) rotate(33.58)">h</text><text class="cls-5" transform="translate(45.43 113.06) rotate(33.19)">K</text><text class="cls-5" transform="translate(55.38 119) rotate(19.97)">E</text><text class="cls-5" transform="translate(65.34 122.22) rotate(7.32)">T</text><text class="cls-5" transform="translate(76.03 123.27) rotate(-6.53)">H</text><text class="cls-5" transform="matrix(0.94, -0.35, 0.35, 0.94, 88.69, 121.24)">E</text><text class="cls-5" transform="translate(98.39 117.2) rotate(-33.48)">R</text></g></svg>