<svg id="Symbols" xmlns="http://www.w3.org/2000/svg" viewBox="0 0 150 150"><defs><style>.cls-1,.cls-2{fill:none;stroke:#231f20;stroke-width:8px;}.cls-1{stroke-linejoin:bevel;}.cls-2{stroke-miterlimit:10;}</style></defs><polyline class="cls-1" points="60.03 88.85 42.93 86.72 50.44 84.7 50.69 68.98"/><polyline class="cls-1" points="50.69 68.98 50.29 53.25 42.76 51.16 59.84 49.2"/><path class="cls-1" d="M31,76.2a6.66,6.66,0,1,0-6.6-6.72A6.67,6.67,0,0,0,31,76.2Z"/><path class="cls-2" d="M110.78,59.07l13.44,25.07a11.32,11.32,0,0,1-20,10.71l-4.31-8L92.6,73.08,84.89,58.71"/><path class="cls-2" d="M100,86.8,92.6,73.08,84.89,58.71a7.93,7.93,0,1,0-14,7.5l1.6,3H36.07"/></svg>