<svg xmlns="http://www.w3.org/2000/svg" viewBox="0 0 150 150"><defs><style>.cls-1,.cls-2{fill:none;stroke:#231f20;stroke-width:4px;}.cls-1{stroke-linejoin:bevel;}.cls-2{stroke-miterlimit:10;}.cls-3,.cls-4{fill:#231f20;}.cls-4{font-size:12px;font-family:Lato-Medium, Lato;font-weight:500;}</style></defs><g id="Symbols"><path class="cls-1" d="M60,59.79a2.57,2.57,0,1,1,1.26-3.41A2.57,2.57,0,0,1,60,59.79Z"/><path class="cls-2" d="M93.63,89.53a5.59,5.59,0,0,1-11.18,0H58.6V88.41L89.9,69v-.75H67.17v6a4.1,4.1,0,1,1-8.19,0V60"/></g><g id="Layer_3" data-name="Layer 3"><path class="cls-3" d="M75,41.55A33.45,33.45,0,1,1,41.55,75,33.48,33.48,0,0,1,75,41.55m0-4A37.45,37.45,0,1,0,112.45,75,37.45,37.45,0,0,0,75,37.55Z"/><path class="cls-3" d="M75,24A51,51,0,1,1,24,75,51.06,51.06,0,0,1,75,24m0-2a53,53,0,1,0,53,53A53,53,0,0,0,75,22Z"/><circle class="cls-2" cx="75" cy="75" r="53"/><text class="cls-4" transform="translate(53.71 40.87) rotate(-27.64)">v</text><text class="cls-4" transform="translate(60.93 37.29) rotate(-16)">e</text><text class="cls-4" transform="matrix(1, -0.07, 0.07, 1, 68.99, 35.18)">h</text><text class="cls-4" transform="matrix(0.99, 0.15, -0.15, 0.99, 77.69, 34.81)">u</text><text class="cls-4" transform="translate(86.26 36.32) rotate(20.68)">e</text><text class="cls-4" transform="matrix(0.86, 0.5, -0.5, 0.86, 94.01, 39.59)">l</text><text class="cls-4" transform="matrix(0.83, 0.56, -0.56, 0.83, 44.54, 112.42)">N</text><text class="cls-4" transform="matrix(0.94, 0.34, -0.34, 0.94, 55.51, 119.06)">E</text><text class="cls-4" transform="translate(65.49 122.25) rotate(7.14)">T</text><text class="cls-4" transform="translate(76.06 123.19) rotate(-5.43)">Z</text><text class="cls-4" transform="translate(86.82 121.79) rotate(-18.97)">A</text><text class="cls-4" transform="matrix(0.83, -0.56, 0.56, 0.83, 97.93, 117.53)">H</text></g></svg>