<svg xmlns="http://www.w3.org/2000/svg" viewBox="0 0 150 150"><defs><style>.cls-1,.cls-2{fill:none;stroke:#231f20;stroke-width:4px;}.cls-1{stroke-linejoin:bevel;}.cls-2{stroke-miterlimit:10;}.cls-3,.cls-4{fill:#231f20;}.cls-4{font-size:12px;font-family:Lato-Medium, Lato;font-weight:500;}</style></defs><g id="Symbols"><path class="cls-1" d="M98.25,83.81a2.88,2.88,0,1,0-2.86-2.9A2.87,2.87,0,0,0,98.25,83.81Z"/><path class="cls-1" d="M84.84,65.65A2.88,2.88,0,1,0,82,62.75,2.88,2.88,0,0,0,84.84,65.65Z"/><path class="cls-2" d="M82.42,65.08,66.3,79.18l-8.1,7.09h-.87V62.86l9,16.32,9,16.39a5.4,5.4,0,1,0,9.47-5.2l-5.33-9.72H93.66"/></g><g id="Layer_3" data-name="Layer 3"><path class="cls-3" d="M75,41.55A33.45,33.45,0,1,1,41.55,75,33.48,33.48,0,0,1,75,41.55m0-4A37.45,37.45,0,1,0,112.45,75,37.45,37.45,0,0,0,75,37.55Z"/><path class="cls-3" d="M75,24A51,51,0,1,1,24,75,51.06,51.06,0,0,1,75,24m0-2a53,53,0,1,0,53,53A53,53,0,0,0,75,22Z"/><circle class="cls-2" cx="75" cy="75" r="53"/><text class="cls-4" transform="translate(46.82 46.2) rotate(-38.67)">V</text><text class="cls-4" transform="translate(54.88 40.13) rotate(-25.16)">E</text><text class="cls-4" transform="translate(62.96 36.47) rotate(-11.08)">U</text><text class="cls-4" transform="translate(73.6 34.78) rotate(2.3)">L</text><text class="cls-4" transform="translate(81.81 35.4) rotate(12.05)">I</text><text class="cls-4" transform="translate(87.12 36.5) rotate(23.23)">A</text><text class="cls-4" transform="translate(96.3 40.64) rotate(38.3)">H</text><text class="cls-4" transform="matrix(0.52, 0.86, -0.86, 0.52, 32.08, 96.85)">T</text><text class="cls-4" transform="translate(37.93 105.87) rotate(44.8)">H</text><text class="cls-4" transform="matrix(0.84, 0.55, -0.55, 0.84, 47.29, 114.28)">I</text><text class="cls-4" transform="translate(53.01 117.88) rotate(22.93)">P</text><text class="cls-4" transform="translate(63.21 121.82) rotate(8.68)">H</text><text class="cls-4" transform="translate(75.93 123.18) rotate(-5.09)">E</text><text class="cls-4" transform="translate(86.32 121.89) rotate(-17.99)">R</text><text class="cls-4" transform="translate(96.73 118.05) rotate(-30.89)">E</text><text class="cls-4" transform="matrix(0.73, -0.69, 0.69, 0.73, 105.51, 112.36)">T</text><text class="cls-4" transform="matrix(0.54, -0.84, 0.84, 0.54, 113.1, 104.74)">H</text></g></svg>