<svg xmlns="http://www.w3.org/2000/svg" viewBox="0 0 150 150"><defs><style>.cls-1,.cls-2{fill:none;stroke:#231f20;stroke-width:4px;}.cls-1{stroke-linejoin:bevel;}.cls-2{stroke-miterlimit:10;}.cls-3,.cls-4{fill:#231f20;}.cls-4{font-size:12px;font-family:Lato-Medium, Lato;font-weight:500;}</style></defs><g id="Symbols"><path class="cls-1" d="M60.71,58.84A2.71,2.71,0,1,1,58,56.13,2.7,2.7,0,0,1,60.71,58.84Z"/><path class="cls-1" d="M94.7,85.49a2.71,2.71,0,1,1-2.7-2.7A2.7,2.7,0,0,1,94.7,85.49Z"/><line class="cls-1" x1="94" y1="83.68" x2="94" y2="83.68"/><path class="cls-2" d="M59.34,61.19l5.93,11.57,5.58,10.88-10.29,0h0a5.2,5.2,0,0,0,0,10.4l24.2,0L79.39,83.66,70.06,65.48a5.2,5.2,0,1,1,9.25-4.75L90.78,83.08"/></g><g id="Layer_3" data-name="Layer 3"><path class="cls-3" d="M75,41.55A33.45,33.45,0,1,1,41.55,75,33.48,33.48,0,0,1,75,41.55m0-4A37.45,37.45,0,1,0,112.45,75,37.45,37.45,0,0,0,75,37.55Z"/><path class="cls-3" d="M75,24A51,51,0,1,1,24,75,51.06,51.06,0,0,1,75,24m0-2a53,53,0,1,0,53,53A53,53,0,0,0,75,22Z"/><circle class="cls-2" cx="75" cy="75" r="53"/><text class="cls-4" transform="translate(43.54 49.87) rotate(-46.06)">Y</text><text class="cls-4" transform="translate(50.32 43.2) rotate(-33)">E</text><text class="cls-4" transform="translate(57.91 38.57) rotate(-20.82)">L</text><text class="cls-4" transform="translate(65.58 35.78) rotate(-7.71)">A</text><text class="cls-4" transform="translate(75.57 34.61) rotate(7.19)">H</text><text class="cls-4" transform="matrix(0.95, 0.33, -0.33, 0.95, 86.58, 36.51)">I</text><text class="cls-4" transform="matrix(0.86, 0.5, -0.5, 0.86, 91.72, 38.25)">A</text><text class="cls-4" transform="translate(100.33 43.49) rotate(45.27)">H</text><text class="cls-4" transform="matrix(0.52, 0.86, -0.86, 0.52, 32.08, 96.85)">T</text><text class="cls-4" transform="translate(37.93 105.87) rotate(44.8)">H</text><text class="cls-4" transform="matrix(0.84, 0.55, -0.55, 0.84, 47.29, 114.28)">I</text><text class="cls-4" transform="translate(53.01 117.88) rotate(22.93)">P</text><text class="cls-4" transform="translate(63.21 121.82) rotate(8.68)">H</text><text class="cls-4" transform="translate(75.93 123.18) rotate(-5.09)">E</text><text class="cls-4" transform="translate(86.32 121.89) rotate(-17.99)">R</text><text class="cls-4" transform="translate(96.73 118.05) rotate(-30.89)">E</text><text class="cls-4" transform="matrix(0.73, -0.69, 0.69, 0.73, 105.51, 112.36)">T</text><text class="cls-4" transform="matrix(0.54, -0.84, 0.84, 0.54, 113.1, 104.74)">H</text></g></svg>