<svg xmlns="http://www.w3.org/2000/svg" viewBox="0 0 150 150"><defs><style>.cls-1,.cls-2{fill:none;stroke:#231f20;stroke-width:4px;}.cls-1{stroke-linejoin:bevel;}.cls-2{stroke-miterlimit:10;}.cls-3,.cls-4{fill:#231f20;}.cls-4{font-size:12px;font-family:Lato-Medium, Lato;font-weight:500;}</style></defs><g id="Symbols"><path class="cls-1" d="M76.63,59.68a2.54,2.54,0,1,1,3.58.28A2.55,2.55,0,0,1,76.63,59.68Z"/><path class="cls-1" d="M84,87.26a2.54,2.54,0,1,1,3.58.28A2.54,2.54,0,0,1,84,87.26Z"/><path class="cls-1" d="M65.08,94.51H59.56a4.39,4.39,0,1,1,0-8.77H83.39"/><path class="cls-2" d="M62.63,94.51H86.06a8.77,8.77,0,0,0,0-17.54H59.36L76.64,59.69"/></g><g id="Layer_3" data-name="Layer 3"><path class="cls-3" d="M75,41.55A33.45,33.45,0,1,1,41.55,75,33.48,33.48,0,0,1,75,41.55m0-4A37.45,37.45,0,1,0,112.45,75,37.45,37.45,0,0,0,75,37.55Z"/><path class="cls-3" d="M75,24A51,51,0,1,1,24,75,51.06,51.06,0,0,1,75,24m0-2a53,53,0,1,0,53,53A53,53,0,0,0,75,22Z"/><circle class="cls-2" cx="75" cy="75" r="53"/><text class="cls-4" transform="matrix(0.76, -0.65, 0.65, 0.76, 46.03, 47.03)">Y</text><text class="cls-4" transform="translate(53.4 41.03) rotate(-27.64)">E</text><text class="cls-4" transform="translate(61.28 37.01) rotate(-13.36)">H</text><text class="cls-4" transform="matrix(1, 0.04, -0.04, 1, 72.14, 34.73)">U</text><text class="cls-4" transform="translate(82.92 35.6) rotate(13.66)">I</text><text class="cls-4" transform="matrix(0.91, 0.42, -0.42, 0.91, 88.2, 36.85)">A</text><text class="cls-4" transform="matrix(0.77, 0.64, -0.64, 0.77, 97.27, 41.26)">H</text><text class="cls-4" transform="translate(39.71 107.87) rotate(41.89)">G</text><text class="cls-4" transform="translate(49.25 115.71) rotate(28.3)">E</text><text class="cls-4" transform="translate(58.68 120.37) rotate(15.18)">B</text><text class="cls-4" transform="translate(69.8 122.96) rotate(1.32)">U</text><text class="cls-4" transform="translate(82.31 122.67) rotate(-13.1)">R</text><text class="cls-4" transform="translate(93.14 119.74) rotate(-26.9)">A</text><text class="cls-4" transform="matrix(0.75, -0.66, 0.66, 0.75, 103.54, 113.99)">H</text></g></svg>