<svg xmlns="http://www.w3.org/2000/svg" viewBox="0 0 150 150"><defs><style>.cls-1{fill:none;stroke:#231f20;stroke-miterlimit:10;stroke-width:4px;}.cls-2,.cls-3{fill:#231f20;}.cls-3{font-size:12px;font-family:Lato-Medium, Lato;font-weight:500;}</style></defs><g id="Symbols"><path class="cls-1" d="M61.4,61.63a2.82,2.82,0,1,1-2.81-2.78A2.8,2.8,0,0,1,61.4,61.63Z"/><path class="cls-1" d="M94.23,70.67a2.82,2.82,0,1,1-2.82-2.79A2.8,2.8,0,0,1,94.23,70.67Z"/><polyline class="cls-1" points="89.45 72.67 77.5 84.61 77.5 70.19 67.87 79.82 73.46 91.15 56.54 91.15 67.87 79.82 60 63.85"/></g><g id="Layer_3" data-name="Layer 3"><path class="cls-2" d="M75,41.55A33.45,33.45,0,1,1,41.55,75,33.48,33.48,0,0,1,75,41.55m0-4A37.45,37.45,0,1,0,112.45,75,37.45,37.45,0,0,0,75,37.55Z"/><path class="cls-2" d="M75,24A51,51,0,1,1,24,75,51.06,51.06,0,0,1,75,24m0-2a53,53,0,1,0,53,53A53,53,0,0,0,75,22Z"/><circle class="cls-1" cx="75" cy="75" r="53"/><text class="cls-3" transform="translate(47.57 45.52) rotate(-37.68)">Y</text><text class="cls-3" transform="translate(55.23 39.93) rotate(-24.59)">E</text><text class="cls-3" transform="translate(63.39 36.42) rotate(-11.62)">Z</text><text class="cls-3" transform="translate(72.42 34.75) rotate(2.03)">A</text><text class="cls-3" transform="translate(82.49 35.43) rotate(15)">L</text><text class="cls-3" transform="matrix(0.89, 0.46, -0.46, 0.89, 90.33, 37.71)">E</text><text class="cls-3" transform="matrix(0.77, 0.63, -0.63, 0.77, 98.13, 42.02)">L</text><text class="cls-3" transform="translate(37.04 104.78) rotate(46.46)">H</text><text class="cls-3" transform="matrix(0.86, 0.51, -0.51, 0.86, 46.33, 113.85)">O</text><text class="cls-3" transform="translate(58.12 120.18) rotate(15.76)">C</text><text class="cls-3" transform="translate(69.48 122.95) rotate(1.32)">H</text><text class="cls-3" transform="translate(82.62 122.8) rotate(-15.6)">M</text><text class="cls-3" transform="translate(96.85 118.05) rotate(-31.75)">A</text><text class="cls-3" transform="matrix(0.69, -0.72, 0.72, 0.69, 106.73, 111.44)">N</text></g></svg>