<svg id="Graphics" xmlns="http://www.w3.org/2000/svg" viewBox="0 0 150 150"><defs><style>.cls-1{fill:none;stroke:#231f20;stroke-miterlimit:10;stroke-width:8px;}.cls-2{fill:#231f20;}</style></defs><path class="cls-1" d="M75,24.67a28,28,0,0,0-12.88,32.1c3.73,12.8,22,12.8,25.76,0A28,28,0,0,0,75,24.67Z"/><line class="cls-1" x1="75" y1="66.37" x2="75" y2="129.37"/><path class="cls-2" d="M34.73,94.52a21.25,21.25,0,0,1,5.67-15.2,21.86,21.86,0,0,1,15.21-6.93,22.47,22.47,0,0,1,16.09,6A23.13,23.13,0,0,1,79,94.52v.1a4,4,0,1,1-8,.24,1.93,1.93,0,0,1,0-.34,15.74,15.74,0,0,0-4.06-11.33,16.37,16.37,0,0,0-11.33-5.32A17,17,0,0,0,43.39,82.3a17.64,17.64,0,0,0-5.7,12.22,1.47,1.47,0,0,1-1.54,1.42A1.5,1.5,0,0,1,34.73,94.52Z"/></svg>