<svg id="Graphics" xmlns="http://www.w3.org/2000/svg" viewBox="0 0 150 150"><defs><style>.cls-1,.cls-3{fill:none;stroke:#231f20;stroke-miterlimit:10;}.cls-1{stroke-width:4px;}.cls-2{fill:#231f20;}.cls-3{stroke-width:8px;}</style></defs><line class="cls-1" x1="20" y1="75" x2="130" y2="75"/><ellipse class="cls-2" cx="105.25" cy="33.32" rx="4" ry="2" transform="translate(46.88 127.02) rotate(-75.65)"/><ellipse class="cls-2" cx="116.79" cy="44.87" rx="4" ry="2"/><ellipse class="cls-2" cx="98.12" cy="29.12" rx="4" ry="2" transform="translate(45.04 116.63) rotate(-75.29)"/><ellipse class="cls-2" cx="98.7" cy="39.89" rx="4" ry="2" transform="translate(34.43 124.77) rotate(-74.87)"/><ellipse class="cls-2" cx="92.05" cy="43.05" rx="4.46" ry="2.23" transform="translate(44.09 132.65) rotate(-86.91)"/><ellipse class="cls-2" cx="108.72" cy="49.91" rx="4" ry="2" transform="translate(-10.64 41.87) rotate(-20.8)"/><ellipse class="cls-2" cx="120.35" cy="51.36" rx="4" ry="2"/><ellipse class="cls-2" cx="110.4" cy="38.47" rx="4" ry="2" transform="translate(5.13 89.33) rotate(-45)"/><ellipse class="cls-2" cx="102.44" cy="46.44" rx="4" ry="2" transform="translate(-2.83 86.04) rotate(-45)"/><ellipse class="cls-2" cx="94.48" cy="54.4" rx="4" ry="2" transform="translate(-10.79 82.74) rotate(-45)"/><ellipse class="cls-2" cx="106.3" cy="57.31" rx="4.58" ry="2.29"/><ellipse class="cls-2" cx="87.64" cy="53.21" rx="5.66" ry="2.83" transform="translate(29.78 137.85) rotate(-86.91)"/><ellipse class="cls-2" cx="82.18" cy="66.69" rx="6" ry="3" transform="translate(-23.09 77.65) rotate(-45)"/><ellipse class="cls-2" cx="95.29" cy="62.26" rx="5.29" ry="2.65"/><ellipse class="cls-2" cx="125.8" cy="67.05" rx="4" ry="2" transform="translate(-16.61 73.5) rotate(-30.65)"/><ellipse class="cls-2" cx="123.73" cy="59.04" rx="4" ry="2" transform="translate(-12.89 70.47) rotate(-30.29)"/><ellipse class="cls-2" cx="116.53" cy="67.07" rx="4" ry="2" transform="translate(-17.93 66.95) rotate(-29.87)"/><ellipse class="cls-2" cx="109.59" cy="64.6" rx="4.46" ry="2.23" transform="translate(-15.12 89.72) rotate(-41.91)"/><ellipse class="cls-2" cx="99.29" cy="68.67" rx="5.66" ry="2.83" transform="translate(-20.47 83.88) rotate(-41.91)"/><ellipse class="cls-2" cx="23.8" cy="66.62" rx="2" ry="4" transform="translate(-40.13 36.34) rotate(-45)"/><ellipse class="cls-2" cx="33.08" cy="68.76" rx="2" ry="4" transform="translate(-43.2 70.75) rotate(-65.8)"/><ellipse class="cls-2" cx="25.88" cy="59.51" rx="2" ry="4" transform="translate(-34.5 35.73) rotate(-45)"/><ellipse class="cls-2" cx="40.02" cy="65.24" rx="2.29" ry="4.58" transform="translate(-34.41 47.41) rotate(-45)"/><ellipse class="cls-2" cx="51.3" cy="69.52" rx="2.65" ry="5.29" transform="translate(-34.13 56.64) rotate(-45)"/><ellipse class="cls-2" cx="33.12" cy="44.56" rx="2" ry="4" transform="translate(-18.25 65.6) rotate(-75.65)"/><ellipse class="cls-2" cx="44.67" cy="33.01" rx="2" ry="4"/><ellipse class="cls-2" cx="28.92" cy="51.68" rx="2" ry="4" transform="translate(-28.41 66.54) rotate(-75.29)"/><ellipse class="cls-2" cx="39.7" cy="51.1" rx="2" ry="4" transform="translate(-19.99 76.09) rotate(-74.87)"/><ellipse class="cls-2" cx="42.86" cy="57.76" rx="2.23" ry="4.46" transform="translate(-17.13 97.43) rotate(-86.91)"/><ellipse class="cls-2" cx="49.72" cy="41.09" rx="2" ry="4" transform="translate(-11.35 20.34) rotate(-20.8)"/><ellipse class="cls-2" cx="51.16" cy="29.45" rx="2" ry="4"/><ellipse class="cls-2" cx="38.28" cy="39.4" rx="2" ry="4" transform="translate(-16.65 38.61) rotate(-45)"/><ellipse class="cls-2" cx="46.24" cy="47.36" rx="2" ry="4" transform="translate(-19.95 46.57) rotate(-45)"/><ellipse class="cls-2" cx="54.2" cy="55.32" rx="2" ry="4" transform="translate(-23.24 54.53) rotate(-45)"/><ellipse class="cls-2" cx="57.11" cy="43.5" rx="2.29" ry="4.58"/><ellipse class="cls-2" cx="53.01" cy="62.17" rx="2.83" ry="5.66" transform="translate(-11.92 111.75) rotate(-86.91)"/><ellipse class="cls-2" cx="66.5" cy="67.62" rx="3" ry="6" transform="translate(-28.34 66.83) rotate(-45)"/><ellipse class="cls-2" cx="62.06" cy="54.51" rx="2.65" ry="5.29"/><ellipse class="cls-2" cx="66.86" cy="24" rx="2" ry="4" transform="translate(-2.9 37.43) rotate(-30.65)"/><ellipse class="cls-2" cx="83.19" cy="24" rx="4" ry="2" transform="translate(7.39 65.85) rotate(-45)"/><ellipse class="cls-2" cx="58.85" cy="26.07" rx="2" ry="4" transform="matrix(0.86, -0.5, 0.5, 0.86, -5.12, 33.24)"/><ellipse class="cls-2" cx="66.88" cy="33.28" rx="2" ry="4" transform="translate(-7.69 37.73) rotate(-29.87)"/><ellipse class="cls-2" cx="64.41" cy="40.22" rx="2.23" ry="4.46" transform="translate(-10.39 53.31) rotate(-41.91)"/><ellipse class="cls-2" cx="81.04" cy="33.28" rx="4" ry="2" transform="translate(17.47 93.56) rotate(-65.8)"/><ellipse class="cls-2" cx="90.29" cy="26.07" rx="4" ry="2" transform="translate(8.01 71.48) rotate(-45)"/><ellipse class="cls-2" cx="74.15" cy="24" rx="2" ry="4"/><ellipse class="cls-2" cx="74.15" cy="35.26" rx="2" ry="4"/><ellipse class="cls-2" cx="74.15" cy="46.52" rx="2" ry="4"/><ellipse class="cls-2" cx="84.57" cy="40.22" rx="4.58" ry="2.29" transform="translate(-3.67 71.58) rotate(-45)"/><ellipse class="cls-2" cx="68.47" cy="50.52" rx="2.83" ry="5.66" transform="translate(-16.23 58.66) rotate(-41.91)"/><ellipse class="cls-2" cx="74.15" cy="63.91" rx="3" ry="6"/><ellipse class="cls-2" cx="80.28" cy="51.5" rx="5.29" ry="2.65" transform="translate(-12.9 71.85) rotate(-45)"/><line class="cls-3" x1="75" y1="130" x2="75" y2="75"/><path class="cls-1" d="M29.78,75c0,3-2,3-2,6.11s2,3,2,6.11-2,3-2,6.11,2,3,2,6.1-2,3.06-2,6.12,2,3,2,6.1-2,3.06-2,6.12,2,3,2,6.11-2,3.06-2,6.12"/><path class="cls-1" d="M45.1,75c0,1.53-2,1.53-2,3s2,1.53,2,3.06-2,1.53-2,3,2,1.53,2,3-2,1.53-2,3.06,2,1.53,2,3-2,1.53-2,3.06,2,1.53,2,3.06-2,1.53-2,3.06"/><path class="cls-1" d="M60.42,75c0,2.4-2,2.4-2,4.8s2,2.4,2,4.81-2,2.4-2,4.8,2,2.4,2,4.8-2,2.41-2,4.81,2,2.4,2,4.8-2,2.4-2,4.81,2,2.4,2,4.81-2,2.4-2,4.81"/><path class="cls-1" d="M91,75c0,2.17-2,2.17-2,4.33s2,2.17,2,4.33S89,85.83,89,88s2,2.17,2,4.34-2,2.16-2,4.33,2,2.16,2,4.33-2,2.17-2,4.33,2,2.17,2,4.34-2,2.17-2,4.34"/><path class="cls-1" d="M106.72,75c0,2.61-2,2.61-2,5.22s2,2.61,2,5.22-2,2.61-2,5.22,2,2.61,2,5.22-2,2.61-2,5.22,2,2.61,2,5.22-2,2.61-2,5.23,2,2.61,2,5.22-2,2.62-2,5.23"/><path class="cls-1" d="M122.43,75c0,1.53-2,1.53-2,3s2,1.53,2,3.06-2,1.53-2,3,2,1.53,2,3-2,1.53-2,3.06,2,1.53,2,3-2,1.53-2,3.06,2,1.53,2,3.06-2,1.53-2,3.06"/></svg>