<svg id="Graphics" xmlns="http://www.w3.org/2000/svg" viewBox="0 0 150 150"><defs><style>.cls-1{fill:none;stroke:#231f20;stroke-miterlimit:10;stroke-width:8px;}.cls-2{fill:#231f20;}</style></defs><path class="cls-1" d="M37.18,62.67a9,9,0,0,0-8.57,6.09A24.14,24.14,0,0,1,25,74.85h0a24.14,24.14,0,0,1,3.61,6.09A9,9,0,0,0,37.18,87l2.36,6a9,9,0,0,0-1.76,10.36,24.06,24.06,0,0,1,1.76,6.86h0A23.94,23.94,0,0,1,46.4,112a9,9,0,0,0,10.36-1.75l5.91,2.57a9,9,0,0,0,6.09,8.57A24.14,24.14,0,0,1,74.85,125h0a24.14,24.14,0,0,1,6.09-3.61A9,9,0,0,0,87,112.82l6-2.36a9,9,0,0,0,10.36,1.76,24.06,24.06,0,0,1,6.86-1.76h0A23.94,23.94,0,0,1,112,103.6a9,9,0,0,0-1.75-10.36l2.57-5.91a9,9,0,0,0,8.57-6.09A24.14,24.14,0,0,1,125,75.15h0a24.14,24.14,0,0,1-3.61-6.09A9,9,0,0,0,112.82,63l-2.36-6a9,9,0,0,0,1.76-10.36,24.06,24.06,0,0,1-1.76-6.86h0A23.94,23.94,0,0,1,103.6,38a9,9,0,0,0-10.36,1.75l-5.91-2.57a9,9,0,0,0-6.09-8.57A24.14,24.14,0,0,1,75.15,25h0a24.14,24.14,0,0,1-6.09,3.61A9,9,0,0,0,63,37.18l-6,2.36a9,9,0,0,0-10.36-1.76,24.06,24.06,0,0,1-6.86,1.76h0A23.94,23.94,0,0,1,38,46.4a9,9,0,0,0,1.75,10.36Z"/><circle class="cls-1" cx="75" cy="75.12" r="34"/><path class="cls-2" d="M71,51.12a19.77,19.77,0,0,1,9.93,0,23.29,23.29,0,0,1,9.26,4.8,24.81,24.81,0,0,1,6.48,8.55c.35.84.71,1.68,1,2.54s.52,1.76.74,2.64.31,1.81.43,2.71L99,75.12l-.16,2.74c-.12.91-.28,1.81-.43,2.71s-.48,1.77-.73,2.64-.65,1.71-1,2.55a24.85,24.85,0,0,1-6.49,8.56,23.36,23.36,0,0,1-9.25,4.79,19.69,19.69,0,0,1-9.94,0,27.83,27.83,0,0,0,14.75-9.25,23.35,23.35,0,0,0,0-29.5A27.83,27.83,0,0,0,71,51.12Z"/></svg>