<svg id="Graphics" xmlns="http://www.w3.org/2000/svg" viewBox="0 0 150 150"><defs><style>.cls-1,.cls-3{fill:none;stroke:#231f20;stroke-miterlimit:10;}.cls-1{stroke-width:8px;}.cls-2{fill:#231f20;}.cls-3{stroke-width:4px;}</style></defs><path class="cls-1" d="M25.73,72.41a10.11,10.11,0,0,0-1,4.33,50.26,50.26,0,0,0,100.52,0,8.53,8.53,0,0,0-1.15-4.17"/><path class="cls-2" d="M89.72,73.49a20.84,20.84,0,0,1-.48,4.72,19,19,0,0,1-1.67,4.51,17.24,17.24,0,0,1-2.89,3.93,14.36,14.36,0,0,1-4.1,2.85,13.19,13.19,0,0,1-9.93.46,15.24,15.24,0,0,1-7.6-6.15,17,17,0,0,1-2-4.38,17.6,17.6,0,0,1-.84-4.71l0-1.19c0-.42.08-.85.13-1.28l.07-.64c.05-.2.11-.39.16-.59l.31-1.19c.27-.75.56-1.48.88-2.2s.68-1.4,1.07-2a45.37,45.37,0,0,1,5.3-7.24,70,70,0,0,1,6.24-6.3l.76-.67.66.67h0c1.58,1.45,3.05,2.94,4.49,4.5s2.81,3.18,4.1,4.88a36,36,0,0,1,3.48,5.47A15.66,15.66,0,0,1,89.72,73.49Zm-3.12,0a13.09,13.09,0,0,0-1.39-5.35,33.52,33.52,0,0,0-3-5.19q-1.74-2.51-3.74-4.85c-1.32-1.56-2.72-3.1-4.16-4.53h1.42a64.29,64.29,0,0,0-10.24,13.5c-.34.6-.58,1.24-.87,1.85s-.46,1.25-.66,1.87l-.2.93c0,.15-.07.31-.1.46l0,.45-.06.89.07,1a14.93,14.93,0,0,0,2.5,7.26,11.45,11.45,0,0,0,5.79,4.5,9.72,9.72,0,0,0,3.55.45A9.2,9.2,0,0,0,79,85.88a13,13,0,0,0,3.09-2A15.13,15.13,0,0,0,84.44,81,14.7,14.7,0,0,0,86,77.39,17.6,17.6,0,0,0,86.6,73.49Z"/><path class="cls-2" d="M102.2,60.84a37.17,37.17,0,0,1-.87,8.71,35.15,35.15,0,0,1-3.06,8.32,31.24,31.24,0,0,1-5.33,7.29,27.5,27.5,0,0,1-7.58,5.3c-.73.3-1.43.65-2.18.89s-1.51.47-2.27.69a26.57,26.57,0,0,1-4.69.63,24.44,24.44,0,0,1-9.3-1.37,27.49,27.49,0,0,1-8.07-4.58,29.08,29.08,0,0,1-6-6.81,31.39,31.39,0,0,1-3.76-8.1,33.25,33.25,0,0,1-1.52-8.71l0-2.2a23.38,23.38,0,0,1,.2-2.38,26.16,26.16,0,0,1,1-4.46,42.93,42.93,0,0,1,3.6-7.82A82.61,82.61,0,0,1,62.11,33a128.33,128.33,0,0,1,11.47-11.5l1.52-1.33,1.32,1.33h0c2.91,2.65,5.61,5.37,8.25,8.22s5.16,5.81,7.53,8.93a69.35,69.35,0,0,1,6.44,10A38.74,38.74,0,0,1,101,54.36,22.17,22.17,0,0,1,102.2,60.84Zm-6.25,0c.08-3-1-6.46-2.47-9.69A63.78,63.78,0,0,0,88,41.68c-2.1-3-4.39-6-6.81-8.88s-5-5.67-7.58-8.28h2.83c-7.13,7.53-13.91,15.81-18.64,24.69A35.52,35.52,0,0,0,55,56a19.35,19.35,0,0,0-.63,3.32,14.15,14.15,0,0,0,0,1.59l.12,1.78a27.37,27.37,0,0,0,1.46,6.9,24.38,24.38,0,0,0,3.12,6.2,22.8,22.8,0,0,0,4.62,5,19.83,19.83,0,0,0,5.78,3.13,17.87,17.87,0,0,0,12.63-.69,21.9,21.9,0,0,0,5.57-3.57A27.25,27.25,0,0,0,92,74.33a26.64,26.64,0,0,0,2.83-6.43A31.5,31.5,0,0,0,96,60.84Z"/><path class="cls-1" d="M50.92,59c-11.43,2.41-22,6.69-25.19,13.46v.32c5.55,11.76,33.33,16,49.27,16s43.24-5.58,49.11-16.17C120.75,66.5,110.3,62.08,99,59.41"/><path class="cls-3" d="M34.47,101.63c4.23,1.51,10.73-4.55,14.93-3.45s7,9.62,11.34,10.32,9.64-6.46,14-6.2,8.79,8,13.18,7.82,8-8.33,12.41-9,10.23,6,14.53,4.85"/></svg>