<svg id="Graphics" xmlns="http://www.w3.org/2000/svg" viewBox="0 0 150 150"><defs><style>.cls-1{fill:#231f20;}</style></defs><path class="cls-1" d="M103.51,94.81l-5.66,5.66L87.68,90.3a17.56,17.56,0,0,1,4.07-7.24Z"/><path class="cls-1" d="M62.31,90.31,52.15,100.47l-5.66-5.66L58.26,83.05A17.93,17.93,0,0,1,62.31,90.31Z"/><path class="cls-1" d="M94.8,80.32l-.14.14-.49.41a18.76,18.76,0,0,0-2.42,2.19,17.56,17.56,0,0,0-4.07,7.24A17.93,17.93,0,0,0,87,95.22V118.4a12,12,0,0,1-24,0V95.22a17.54,17.54,0,0,0-.69-4.91,17.93,17.93,0,0,0-4.05-7.26,17.51,17.51,0,0,0-2.6-2.33l-.46-.4a28,28,0,0,1-.92-38.62c.49-.56,1-1.09,1.56-1.6a27.71,27.71,0,0,1,6.21-4.42,8.08,8.08,0,0,0,0,.85,12.87,12.87,0,0,0,2.17,7.17,19.56,19.56,0,0,0-2.85,2.23,20,20,0,0,0-.66,28.53A26.09,26.09,0,0,1,71,95.22V118.4a4,4,0,0,0,8,0V95.22A25.73,25.73,0,0,1,89.24,74.57a20,20,0,0,0-3.41-30.85A12.94,12.94,0,0,0,88,36.53a7.5,7.5,0,0,0,0-.82,28.46,28.46,0,0,1,7.56,5.78,28.11,28.11,0,0,1,4.77,7,27.48,27.48,0,0,1,2.62,9.76A28,28,0,0,1,94.8,80.32Z"/><path class="cls-1" d="M129.5,47.23l-.8,3.12c-.17.65-4.13,16-7.59,22.8C119,77.38,109.9,88.54,102.22,88.54v-8c2.6,0,9.74-7,11.76-11,2.19-4.32,4.79-13.22,6.11-18-7.71-3.42-16.53-5.73-19.22-4.07-.15.09-.44.27-.58,1a28.11,28.11,0,0,0-4.77-7,10.07,10.07,0,0,1,1.16-.83c8.47-5.22,26.43,3.35,29.94,5.13Z"/><path class="cls-1" d="M54.28,41.7a27.79,27.79,0,0,0-5,7.66c0-1.5-.44-1.77-.64-1.89-2.69-1.66-11.52.64-19.22,4.07,1.32,4.77,3.93,13.67,6.12,18,2,4,9.15,11,11.76,11v8c-7.68,0-16.75-11.16-18.9-15.39C25,66.34,21,51,20.87,50.35l-.81-3.12,2.88-1.44c3.52-1.78,21.48-10.35,30-5.13A9.47,9.47,0,0,1,54.28,41.7Z"/><path class="cls-1" d="M70.33,63.37a6.57,6.57,0,0,0-9.89-5.7,6.57,6.57,0,0,0,9.89,5.7Z"/><path class="cls-1" d="M89.56,57.67a6.57,6.57,0,0,0-9.89,5.7,6.57,6.57,0,0,0,9.89-5.7Z"/><path class="cls-1" d="M88,35.71c-.63-6.21-8.21-12.2-10.6-13.94L75,20.05l-2.36,1.72c-2.38,1.74-9.94,7.71-10.59,13.91a8.08,8.08,0,0,0,0,.85,13,13,0,0,0,13,13,13,13,0,0,0,13-13A7.5,7.5,0,0,0,88,35.71Zm-10.22,5A5,5,0,0,1,70,36.53c0-.79,1-2.27,2.46-3.9A31.73,31.73,0,0,1,75,30.14a33.53,33.53,0,0,1,2.54,2.5C79,34.27,80,35.76,80,36.53A5,5,0,0,1,77.74,40.71Z"/></svg>