<svg id="Graphics" xmlns="http://www.w3.org/2000/svg" viewBox="0 0 150 150"><path d="M32.67,62.07c-3.63-7-4.47-16-4.63-21.21l6.35.89c7.28,1,7.28,3.88,7.28,5.25v.08l8-.07c0-7.21-5-11.89-14.17-13.18L20.33,31.69,20.06,36c0,.7-1,17.29,5.51,29.74,4.72,9.08,12.32,13.89,22,13.89v-8C40.89,71.65,36,68.51,32.67,62.07Z"/><path d="M129.94,36l-.26-4.33L114.5,33.83c-8.83,1.24-13.81,5.66-14.14,12.46a27,27,0,0,0-15.54-15.1c-1.19-3.84-4.85-7.92-6.59-9.71l-2.87-2.94L72.5,21.48c-1.74,1.79-5.38,5.86-6.56,9.7a27,27,0,0,0-17.57,25.3c0,6.7,2,10.82,3.67,14.46,1.53,3.23,2.85,6,2.85,10.73h8c0-6.51-1.92-10.57-3.62-14.15-1.56-3.3-2.9-6.14-2.9-11a19,19,0,0,1,11-17.26,9.81,9.81,0,0,0,15.93,0,19,19,0,0,1,11,17.25C94.38,72,71,91.82,61.76,98.28c-2,1.17-13.39,8.14-13.39,17.75a13.88,13.88,0,0,0,12.84,13.68l.69,0a11.2,11.2,0,0,0,11.17-10.52l-8-.49a3.2,3.2,0,0,1-3.4,3A5.91,5.91,0,0,1,56.37,116c0-4.16,6.4-9.13,9.49-10.88l.33-.2c1.48-1,36.19-25.45,36.19-48.47A26.91,26.91,0,0,0,100.65,47l3.68.06,4-.08c0-1.37,0-4.22,7.28-5.25l6.36-.89c-.16,5.24-1,14.2-4.64,21.21-3.35,6.44-8.22,9.58-14.89,9.58v8c9.67,0,17.27-4.81,22-13.89C130.9,53.31,130,36.72,129.94,36ZM77.19,33.71a1.84,1.84,0,0,1-1.82,1.6,1.82,1.82,0,0,1-1.81-1.61.76.76,0,0,1,0-.15,11.08,11.08,0,0,1,1.82-3.11,11.19,11.19,0,0,1,1.83,3.12S77.19,33.66,77.19,33.71Z"/><path d="M72.15,61.85a6.58,6.58,0,0,0-9.88-5.71,6.56,6.56,0,0,0,9.88,5.71Z"/><path d="M87.73,56.14a6.58,6.58,0,0,0-9.88,5.71,6.56,6.56,0,0,0,9.88-5.71Z"/></svg>