<svg id="Graphics" xmlns="http://www.w3.org/2000/svg" viewBox="0 0 150 150"><defs><style>.cls-1,.cls-2,.cls-3,.cls-4,.cls-5{fill:none;stroke:#231f20;}.cls-1,.cls-2{stroke-linejoin:round;}.cls-1,.cls-3{stroke-width:8px;}.cls-2,.cls-4{stroke-width:4px;}.cls-3,.cls-4,.cls-5{stroke-miterlimit:10;}.cls-5{stroke-width:2px;}</style></defs><path class="cls-1" d="M100.77,106.19c0,5.34-11.54,9.66-25.77,9.66s-25.77-4.32-25.77-9.66l.34-1.57,6.5-22.85a19.37,19.37,0,0,1,37.86,0l6.5,22.85Z"/><line class="cls-2" x1="75" y1="54.28" x2="75" y2="66.67"/><path class="cls-3" d="M85.28,116.8V117c-.14,13.29-20.42,13.29-20.56,0v-.23"/><path class="cls-4" d="M96,86.77c0,1.5-9.4,7.73-21,7.73s-21-6.23-21-7.73"/><path class="cls-5" d="M95.45,93.9c2.93.76,4.65,1.69,4.65,2.69,0,2.56-11.41,9.13-25.27,9.13S49.9,99.15,49.9,96.59c0-1,1.72-1.93,4.65-2.69"/><circle class="cls-4" cx="75" cy="47.96" r="8.23"/><path class="cls-4" d="M75,23a11,11,0,0,0-5.52,9.57,10.89,10.89,0,0,0,.44,3.09,5.3,5.3,0,0,0,10.16,0,10.89,10.89,0,0,0,.44-3.09A11,11,0,0,0,75,23Z"/></svg>