<svg id="Graphics" xmlns="http://www.w3.org/2000/svg" viewBox="0 0 150 150"><defs><style>.cls-1,.cls-2,.cls-3,.cls-5,.cls-6{fill:none;stroke:#231f20;}.cls-1{stroke-linecap:round;}.cls-1,.cls-3,.cls-6{stroke-linejoin:round;}.cls-1,.cls-5,.cls-6{stroke-width:4px;}.cls-2,.cls-5{stroke-miterlimit:10;}.cls-2,.cls-3{stroke-width:8px;}.cls-4{fill:#231f20;}</style></defs><rect class="cls-1" x="69.93" y="69.69" width="10.15" height="8.12"/><rect class="cls-1" x="70.94" y="55.23" width="8.12" height="8.12"/><rect class="cls-1" x="71.96" y="42.8" width="6.09" height="6.09"/><rect class="cls-2" x="42.53" y="89.47" width="64.94" height="36.53"/><polygon class="cls-3" points="42.53 85.42 56.91 34.17 93.08 34.17 107.47 85.42 42.53 85.42"/><path class="cls-4" d="M79.53,26.67a5.77,5.77,0,0,1-.48,2.77A4.56,4.56,0,0,1,76.9,31.7a4.29,4.29,0,0,1-3.37.13,4.79,4.79,0,0,1-2.43-2,5.56,5.56,0,0,1-.8-2.77v-.36c0-.13,0-.29,0-.43a4.78,4.78,0,0,1,.2-.77,6.49,6.49,0,0,1,.6-1.18,12.06,12.06,0,0,1,3.12-3.06h0l.72-.56.7.56c.41.34.77.65,1.14,1s.72.72,1.07,1.12a8.66,8.66,0,0,1,1,1.34A4.4,4.4,0,0,1,79.53,26.67Zm-3.12,0a1.28,1.28,0,0,0-.1-.73,5.9,5.9,0,0,0-.5-1.06c-.21-.36-.45-.73-.71-1.09s-.54-.72-.81-1H75.7a16.49,16.49,0,0,0-1.79,3,2.8,2.8,0,0,0-.18.63c0,.07,0,.17,0,.19a.07.07,0,0,1,0,.05l0,.14a2,2,0,0,0,.43.92,1.12,1.12,0,0,0,.59.38,1.24,1.24,0,0,0,.47-.06,1.43,1.43,0,0,0,.66-.39A1.89,1.89,0,0,0,76.41,26.67Z"/><path class="cls-4" d="M96.46,26.67A5.77,5.77,0,0,1,96,29.44a4.54,4.54,0,0,1-2.16,2.26,4.27,4.27,0,0,1-3.36.13,4.81,4.81,0,0,1-2.44-2,5.45,5.45,0,0,1-.79-2.77v-.36c0-.13,0-.29.05-.43a3.33,3.33,0,0,1,.2-.77,5.42,5.42,0,0,1,.6-1.18,12.19,12.19,0,0,1,3.11-3.06h0l.72-.56.69.56c.42.34.78.65,1.15,1s.72.72,1.06,1.12a9.42,9.42,0,0,1,1,1.34A4.52,4.52,0,0,1,96.46,26.67Zm-3.12,0a1.32,1.32,0,0,0-.11-.73,5.29,5.29,0,0,0-.5-1.06c-.21-.36-.44-.73-.7-1.09s-.55-.72-.81-1h1.41a16,16,0,0,0-1.8,3,3.46,3.46,0,0,0-.18.63c0,.07,0,.17,0,.19a.11.11,0,0,0,0,.05l0,.14a1.88,1.88,0,0,0,.43.92,1.09,1.09,0,0,0,.59.38,1.19,1.19,0,0,0,.46-.06,1.5,1.5,0,0,0,.67-.39A2,2,0,0,0,93.34,26.67Z"/><path class="cls-4" d="M62.61,26.67a5.77,5.77,0,0,1-.48,2.77A4.56,4.56,0,0,1,60,31.7a4.29,4.29,0,0,1-3.37.13,4.81,4.81,0,0,1-2.44-2,5.55,5.55,0,0,1-.79-2.77v-.36c0-.13,0-.29,0-.43a3.33,3.33,0,0,1,.2-.77,5.42,5.42,0,0,1,.6-1.18,12.06,12.06,0,0,1,3.12-3.06h0l.72-.56.69.56c.42.34.78.65,1.15,1A14.12,14.12,0,0,1,61,23.36a9.42,9.42,0,0,1,1,1.34A4.4,4.4,0,0,1,62.61,26.67Zm-3.12,0a1.32,1.32,0,0,0-.11-.73,5.29,5.29,0,0,0-.5-1.06c-.21-.36-.44-.73-.7-1.09s-.55-.72-.81-1h1.41a16,16,0,0,0-1.8,3,3.46,3.46,0,0,0-.18.63c0,.07,0,.17,0,.19a.07.07,0,0,1,0,.05l0,.14a1.88,1.88,0,0,0,.43.92,1.09,1.09,0,0,0,.59.38,1.19,1.19,0,0,0,.46-.06,1.5,1.5,0,0,0,.67-.39A2,2,0,0,0,59.49,26.67Z"/><rect class="cls-5" x="67.9" y="106.72" width="14.2" height="18.26"/><line class="cls-6" x1="79.06" y1="59.29" x2="100.28" y2="59.29"/><line class="cls-6" x1="70.94" y1="59.29" x2="49.72" y2="59.29"/><line class="cls-6" x1="78.04" y1="46.01" x2="96.41" y2="46.01"/><line class="cls-6" x1="71.96" y1="46.01" x2="53.64" y2="46.01"/><line class="cls-6" x1="80.07" y1="74.11" x2="104.19" y2="74.11"/><line class="cls-6" x1="69.93" y1="74.11" x2="45.7" y2="74.11"/></svg>