<svg id="Graphics" xmlns="http://www.w3.org/2000/svg" viewBox="0 0 150 150"><defs><style>.cls-1,.cls-2{fill:none;stroke:#000;stroke-miterlimit:10;}.cls-1{stroke-width:8px;}.cls-2{stroke-width:4px;}</style></defs><line class="cls-1" x1="75" y1="75" x2="75" y2="75"/><path class="cls-1" d="M75,126A27.53,27.53,0,0,1,47.47,98.47l-.15-5.86A19.79,19.79,0,0,0,27.5,73h0a16,16,0,0,1,21.26-7h0V45.79a7.86,7.86,0,0,1,7.86-7.86h0a7.86,7.86,0,0,1,7.87,7.86V68.48h0v-34A10.52,10.52,0,0,1,75,24h0A10.52,10.52,0,0,1,85.52,34.52v34h0V45.79a7.86,7.86,0,0,1,7.87-7.86h0a7.86,7.86,0,0,1,7.86,7.86V66h0a16,16,0,0,1,21.26,7h0a19.79,19.79,0,0,0-19.82,19.66l-.15,5.86A27.53,27.53,0,0,1,75,126"/><path class="cls-2" d="M90.31,96.43a15.31,15.31,0,0,1-30.62,0C59.69,88,75,72.34,75,72.34S90.31,88,90.31,96.43Z"/><path class="cls-2" d="M71.57,35.67a3.43,3.43,0,0,1,6.86,0c0,1.9-3.43,5.41-3.43,5.41S71.57,37.57,71.57,35.67Z"/><path class="cls-2" d="M71.57,50.32a3.43,3.43,0,1,1,6.86,0c0,1.89-3.43,5.4-3.43,5.4S71.57,52.21,71.57,50.32Z"/><path class="cls-2" d="M71.57,65a3.43,3.43,0,0,1,6.86,0c0,1.9-3.43,5.41-3.43,5.41S71.57,66.86,71.57,65Z"/><path class="cls-2" d="M66,97.81a10.41,10.41,0,0,0,18,0,10.4,10.4,0,0,0-18,0Z"/><circle cx="75" cy="97.81" r="1.97"/><circle class="cls-2" cx="55.76" cy="78.93" r="3.93"/><circle class="cls-2" cx="94.24" cy="78.93" r="3.93"/></svg>