<svg id="Graphics" xmlns="http://www.w3.org/2000/svg" viewBox="0 0 150 150"><defs><style>.cls-1,.cls-2{fill:none;stroke:#000;stroke-width:8px;}.cls-1{stroke-miterlimit:10;}.cls-2{stroke-linecap:round;stroke-linejoin:round;}</style></defs><ellipse class="cls-1" cx="105.62" cy="37.76" rx="6.1" ry="9.72" transform="translate(-2.54 67.49) rotate(-35.04)"/><path d="M114.38,43.36c.7.91,1.49,1.88,2.27,2.8S118.22,48,119,48.88s1.63,1.75,2.46,2.52c.41.38.84.77,1.23,1.07s.78.53.87.66l1,1.39a1.66,1.66,0,0,1-1.51,2.64,8.53,8.53,0,0,1-2.57-.7,20.36,20.36,0,0,1-1.93-.91c-1.21-.64-2.32-1.33-3.44-2s-2.17-1.43-3.24-2.17-2.09-1.48-3.16-2.29l0,0a4,4,0,0,1,4.9-6.42A4.1,4.1,0,0,1,114.38,43.36Z"/><path class="cls-1" d="M100,29.8S80.85,26.42,79.15,46.21c-1.1,12.66,3,20.5,6,26.64,6.19,12.69,6.1,17,1.86,18.87-7.89,3.46-14.81-22-18.38-33.83C62.64,38,30.38,25.15,30.38,25.15S28.06,60,40.09,83.62H26.65S42,114.28,86.78,114.28c38.27,0,33.48-25.23,25.55-36.19-4.5-6.21-16.08-18.81-18.25-24.65s-4-12.73,4.72-15.68"/><line class="cls-2" x1="79.38" y1="113.92" x2="79.38" y2="127.15"/><line class="cls-2" x1="67.82" y1="127.15" x2="90.95" y2="127.15"/></svg>