<svg id="Graphics" xmlns="http://www.w3.org/2000/svg" viewBox="0 0 150 150"><defs><style>.cls-1,.cls-2,.cls-5,.cls-6{fill:none;}.cls-1,.cls-2,.cls-3,.cls-5,.cls-6{stroke:#231f20;}.cls-1,.cls-2,.cls-6{stroke-miterlimit:10;}.cls-1,.cls-2{stroke-width:8px;}.cls-2{stroke-linecap:round;}.cls-3,.cls-5{stroke-linejoin:round;}.cls-3,.cls-5,.cls-6{stroke-width:4px;}.cls-4{fill:#231f20;}</style></defs><ellipse class="cls-1" cx="75" cy="96.96" rx="35.8" ry="27.24"/><line class="cls-2" x1="58.07" y1="126" x2="91.93" y2="126"/><line class="cls-2" x1="48.73" y1="67.93" x2="101.27" y2="67.93"/><path class="cls-3" d="M68.29,108.45a4.56,4.56,0,0,1-4.56-4.56h.21a4.35,4.35,0,1,0,4.35-4.35v-.22A4.35,4.35,0,1,0,63.94,95h-.21a4.57,4.57,0,1,1,5.55,4.46,4.56,4.56,0,0,1-1,9Z"/><path class="cls-3" d="M80.09,108.46v-.21a6,6,0,1,0-4.53-9.86A3.34,3.34,0,0,1,73,99.56H68.29v-.22H73a3.14,3.14,0,0,0,2.36-1.09,6.18,6.18,0,0,1,10.83,3.32,6.12,6.12,0,0,1-1.53,4.83A6.22,6.22,0,0,1,80.09,108.46Z"/><path class="cls-3" d="M79.45,91.26a4.58,4.58,0,0,1-4.57-4.57h.22a4.35,4.35,0,0,0,8.7,0H84A4.57,4.57,0,0,1,79.45,91.26Z"/><path class="cls-4" d="M81.28,85.05a1.74,1.74,0,1,1-1.74-1.73A1.75,1.75,0,0,1,81.28,85.05Z"/><path class="cls-5" d="M89.55,49.45a27.25,27.25,0,0,0-5.68,3.73A53.16,53.16,0,0,0,74.8,39.84,70.83,70.83,0,0,0,65.88,53a26.88,26.88,0,0,0-5.1-3.38c-.12-.58-.21-1.18-.28-1.79C58.86,33.51,75.12,22,75.12,22a20.68,20.68,0,0,0,3.06,5.94c2,2.43,7.09,3.83,10.9,16.38A13.29,13.29,0,0,1,89.55,49.45Z"/><path class="cls-6" d="M120.75,54.87s-13.16-.74-18.5,4.46c-4.69,4.56-10.69,6.61-15.87,7.5.67-4.69-.61-9.46-2.51-13.65a27.25,27.25,0,0,1,5.68-3.73,30.48,30.48,0,0,1,9.56-2.82C115.92,44.43,120.75,54.87,120.75,54.87Z"/><path class="cls-6" d="M63.27,66.76c-5.09-.91-10.93-3-15.52-7.43-5.34-5.2-18.5-4.46-18.5-4.46s4.83-10.44,21.64-8.24a30.62,30.62,0,0,1,9.89,3A26.88,26.88,0,0,1,65.88,53C63.54,57.63,62,62.7,63.27,66.76Z"/><path class="cls-5" d="M47.75,46.33s2.31-7.48-4.29-10.95c0,0,16-2.36,18.18,3.53"/><path class="cls-5" d="M100.89,46.33s-2.31-7.48,4.3-10.95c0,0-16.06-2.36-18.19,3.53"/><path class="cls-5" d="M86.38,66.83a46.05,46.05,0,0,1-6.68.58,34.29,34.29,0,0,1-4.7-.2,33.65,33.65,0,0,1-4.66.2,45.72,45.72,0,0,1-7.07-.65C62,62.7,63.54,57.63,65.88,53A70.83,70.83,0,0,1,74.8,39.84a53.16,53.16,0,0,1,9.07,13.34C85.77,57.37,87.05,62.14,86.38,66.83Z"/><path class="cls-5" d="M86.38,66.83a10.94,10.94,0,0,1-.18,1.1"/><path class="cls-5" d="M63.72,67.93a8.8,8.8,0,0,1-.45-1.17"/></svg>