<svg id="Graphics" xmlns="http://www.w3.org/2000/svg" viewBox="0 0 150 150"><defs><style>.cls-1,.cls-2{fill:none;stroke:#231f20;stroke-miterlimit:10;}.cls-1{stroke-width:8px;}.cls-2{stroke-width:4px;}</style></defs><polygon class="cls-1" points="97.59 125 94.57 119.35 97.59 113.7 52.41 113.7 55.43 119.35 52.41 125 97.59 125"/><ellipse class="cls-1" cx="75" cy="89.66" rx="5.67" ry="10.58"/><ellipse class="cls-2" cx="86.81" cy="42.77" rx="2.85" ry="5.32"/><ellipse class="cls-2" cx="63.19" cy="42.77" rx="2.85" ry="5.32"/><path class="cls-2" d="M70.76,33.58v.13c.06,7.33,8.42,7.33,8.48,0v-.13A14.24,14.24,0,0,0,75,23,14.24,14.24,0,0,0,70.76,33.58Z"/><path class="cls-1" d="M80.68,60.48A12.68,12.68,0,0,1,75,71.06a12.68,12.68,0,0,1-5.68-10.58C69.32,59.59,80.68,59.59,80.68,60.48Z"/><path class="cls-1" d="M75,108.25a6.72,6.72,0,0,0,4.12-1.4,2,2,0,0,0,0-3.23,6.76,6.76,0,0,0-8.24,0,2,2,0,0,0,0,3.23A6.72,6.72,0,0,0,75,108.25Z"/><path class="cls-1" d="M75,77.1a6.73,6.73,0,0,0,4.12-1.41,2,2,0,0,0,0-3.22,6.72,6.72,0,0,0-8.24,0,2,2,0,0,0,0,3.22A6.73,6.73,0,0,0,75,77.1Z"/><line class="cls-2" x1="80.4" y1="57.88" x2="69.6" y2="57.88"/><polygon class="cls-2" points="86.81 57.88 85.23 54.93 86.81 51.98 63.19 51.98 64.77 54.93 63.19 57.88 86.81 57.88"/><line class="cls-2" x1="75" y1="51.98" x2="75" y2="40"/></svg>