<svg id="Graphics" xmlns="http://www.w3.org/2000/svg" viewBox="0 0 150 150"><defs><style>.cls-1{fill:#231f20;}</style></defs><path class="cls-1" d="M58.43,118.84s0,.51,0,1.14a4.3,4.3,0,0,1-.41,2c-.66,1.11-1.23,1.11-1.61,2.6a4.81,4.81,0,0,0,.45,2.56,12.61,12.61,0,0,0,.83,1.67,7.1,7.1,0,0,0,1.81-1.19,4.25,4.25,0,0,0,1.55-3.2A7.49,7.49,0,0,0,58.43,118.84Z"/><path class="cls-1" d="M54.38,117.1s-.07.49-.23,1.11a4.28,4.28,0,0,1-.86,1.81c-.88.89-1.47.83-2.17,2.19a5.06,5.06,0,0,0-.15,2.56,12.91,12.91,0,0,0,.37,1.81,6.84,6.84,0,0,0,2-.73,4.5,4.5,0,0,0,2.32-2.69,7.44,7.44,0,0,0-.35-4.47A4.88,4.88,0,0,0,54.38,117.1Z"/><path class="cls-1" d="M50.71,114.44a10.44,10.44,0,0,1-.46,1.06A4.15,4.15,0,0,1,49,117.1c-1,.68-1.59.49-2.55,1.68a5.36,5.36,0,0,0-.7,2.5,15.31,15.31,0,0,0,0,1.86,3.32,3.32,0,0,0,.63,0,8.83,8.83,0,0,0,1.49-.31,4.45,4.45,0,0,0,2.82-2.11,6.83,6.83,0,0,0,.59-4.43A5.52,5.52,0,0,0,50.71,114.44Z"/><path class="cls-1" d="M47.57,111.13s-.28.44-.68,1a4,4,0,0,1-1.49,1.33c-1.15.47-1.62.14-2.8,1.13a5.35,5.35,0,0,0-1.2,2.33,14.91,14.91,0,0,0-.36,1.77,8.59,8.59,0,0,0,2.12.09,4.33,4.33,0,0,0,3.15-1.47A7.11,7.11,0,0,0,47.82,113a5.54,5.54,0,0,0-.15-1.33Z"/><path class="cls-1" d="M45.12,107.19s-.34.38-.82.82a4.18,4.18,0,0,1-1.71,1c-1.22.24-1.66-.14-3,.61A5.35,5.35,0,0,0,38,111.73a15.44,15.44,0,0,0-.75,1.69s.22.09.58.21a8.86,8.86,0,0,0,1.49.26,4.57,4.57,0,0,0,3.42-.89A6.74,6.74,0,0,0,45,109.11,5.51,5.51,0,0,0,45.12,107.19Z"/><path class="cls-1" d="M43.31,102.84a11.39,11.39,0,0,1-.93.67,4,4,0,0,1-1.86.74c-1.25,0-1.64-.41-3.08.11a5.36,5.36,0,0,0-1.87,1.75,16.14,16.14,0,0,0-1,1.52,8.6,8.6,0,0,0,1.91.83,4.5,4.5,0,0,0,3.5-.27,7.16,7.16,0,0,0,2.93-3.48A5.43,5.43,0,0,0,43.31,102.84Z"/><path class="cls-1" d="M42.18,98.16a10.05,10.05,0,0,1-1,.54,4.1,4.1,0,0,1-1.95.45c-1.28-.14-1.52-.65-3-.35A5.34,5.34,0,0,0,34,100.25a14.92,14.92,0,0,0-1.18,1.34,8.87,8.87,0,0,0,1.79,1.08,4.55,4.55,0,0,0,3.47.3,6.72,6.72,0,0,0,3.43-3,6.16,6.16,0,0,0,.51-1.27Z"/><path class="cls-1" d="M41.73,93.26a6.07,6.07,0,0,1-3.1.62c-1.19-.32-1.4-.85-2.93-.73a5.61,5.61,0,0,0-2.34,1.15A15.78,15.78,0,0,0,32,95.46a9.26,9.26,0,0,0,1.65,1.29,4.63,4.63,0,0,0,3.41.77A6.43,6.43,0,0,0,40.84,95a6.19,6.19,0,0,0,.67-1.22A5.45,5.45,0,0,0,41.73,93.26Z"/><path class="cls-1" d="M41.84,88.25a10.16,10.16,0,0,1-1.15.3,4,4,0,0,1-2,0c-1.16-.44-1.3-1-2.84-1a5.71,5.71,0,0,0-2.44.89,17.53,17.53,0,0,0-1.47,1,9.38,9.38,0,0,0,1.49,1.46A4.69,4.69,0,0,0,36.73,92a6.25,6.25,0,0,0,4-2.07,5.66,5.66,0,0,0,.79-1.15C41.74,88.45,41.84,88.25,41.84,88.25Z"/><path class="cls-1" d="M42.44,83.19a5.68,5.68,0,0,1-3.12,0c-1.15-.55-1.28-1.12-2.79-1.3a5.43,5.43,0,0,0-2.46.67,16,16,0,0,0-1.56.83A9.23,9.23,0,0,0,33.84,85,4.73,4.73,0,0,0,37,86.44,6.09,6.09,0,0,0,42.44,83.19Z"/><path class="cls-1" d="M43.53,78.13a5.73,5.73,0,0,1-3.12-.23c-1.09-.64-1.18-1.22-2.68-1.51a5.76,5.76,0,0,0-2.51.47,17.71,17.71,0,0,0-1.64.69,9.23,9.23,0,0,0,1.19,1.66,4.76,4.76,0,0,0,3,1.74A6.18,6.18,0,0,0,43.53,78.13Z"/><path class="cls-1" d="M45,73.11a5.74,5.74,0,0,1-3.11-.43c-1-.71-1.08-1.29-2.56-1.68-1.16-.33-4.25.86-4.25.86a8.91,8.91,0,0,0,1.05,1.72A4.66,4.66,0,0,0,39,75.52,6.29,6.29,0,0,0,45,73.11Z"/><path class="cls-1" d="M46.68,68.15a5.84,5.84,0,0,1-3.1-.62c-1-.77-1-1.34-2.43-1.82-1.15-.4-4.33.59-4.33.59a5,5,0,0,0,.23.54,9.52,9.52,0,0,0,.76,1.25,4.94,4.94,0,0,0,2.8,2.13,6.56,6.56,0,0,0,6.07-2.07Z"/><path class="cls-1" d="M48.63,63.25a5.54,5.54,0,0,1-3-.78c-1-.82-1-1.41-2.38-2-1.12-.45-4.25.4-4.25.4a9.2,9.2,0,0,0,.89,1.84A4.92,4.92,0,0,0,42.52,65,6,6,0,0,0,48.63,63.25Z"/><path class="cls-1" d="M51,58.55a5.65,5.65,0,0,1-3-1c-.9-.88-.85-1.46-2.24-2.1-1.08-.53-4.31.12-4.31.12a9.73,9.73,0,0,0,.75,1.89,4.75,4.75,0,0,0,2.5,2.41A6.17,6.17,0,0,0,51,58.55Z"/><path class="cls-1" d="M53.51,54a5.74,5.74,0,0,1-2.92-1.17c-.83-.93-.73-1.5-2.08-2.24A6,6,0,0,0,46,50.28c-1,0-1.78.14-1.78.14a8.89,8.89,0,0,0,.59,1.92,4.91,4.91,0,0,0,2.38,2.6,6.16,6.16,0,0,0,2.54.45,6.61,6.61,0,0,0,2-.38A5.68,5.68,0,0,0,53.51,54Z"/><path class="cls-1" d="M56.34,49.68a5.93,5.93,0,0,1-2.84-1.39c-.75-1-.6-1.54-1.89-2.38a6.12,6.12,0,0,0-2.55-.52c-1,0-1.81,0-1.81,0a9.55,9.55,0,0,0,.53,2A5,5,0,0,0,50,50.17a5.87,5.87,0,0,0,4.48.35A6.9,6.9,0,0,0,56.34,49.68Z"/><path class="cls-1" d="M59.46,45.59A6,6,0,0,1,56.74,44c-.67-1-.46-1.57-1.68-2.51a6.08,6.08,0,0,0-2.51-.73c-.93-.09-1.75-.08-1.75-.08a9.51,9.51,0,0,0,.36,2,4.82,4.82,0,0,0,2,2.91,6,6,0,0,0,4.46.72,6.82,6.82,0,0,0,1.35-.48A3.28,3.28,0,0,0,59.46,45.59Z"/><path class="cls-1" d="M62.9,41.82A5.7,5.7,0,0,1,60.37,40c-.61-1.13-.37-1.65-1.48-2.69a5.56,5.56,0,0,0-2.4-.9,16.44,16.44,0,0,0-1.74-.24,8.93,8.93,0,0,0,.16,2.06,4.74,4.74,0,0,0,1.69,3.05A6,6,0,0,0,62.9,41.82Z"/><path class="cls-1" d="M66.67,38.47a5.76,5.76,0,0,1-2.33-2.08c-.48-1.16-.21-1.69-1.22-2.83a5.5,5.5,0,0,0-2.29-1.13c-.9-.26-1.72-.4-1.72-.4a8.65,8.65,0,0,0,0,2.06,4.63,4.63,0,0,0,1.39,3.19A6.13,6.13,0,0,0,66.67,38.47Z"/><path class="cls-1" d="M70.72,35.55a5.81,5.81,0,0,1-2.08-2.32c-.36-1.22,0-1.71-.9-3a5.54,5.54,0,0,0-2.16-1.36,14.89,14.89,0,0,0-1.67-.59,8.65,8.65,0,0,0-.29,2.05,4.66,4.66,0,0,0,1.05,3.31A6.22,6.22,0,0,0,70.72,35.55Z"/><path class="cls-1" d="M75,33.14a5.8,5.8,0,0,1-1.78-2.56c-.21-1.25.18-1.7-.54-3a5.47,5.47,0,0,0-2-1.61,16.46,16.46,0,0,0-1.6-.78,8.61,8.61,0,0,0-.53,2,4.57,4.57,0,0,0,.65,3.41A6.24,6.24,0,0,0,75,33.14Z"/><path class="cls-1" d="M79.56,31.31a5.83,5.83,0,0,1-1.42-2.77c0-1.28.4-1.64-.12-3.07a5.32,5.32,0,0,0-1.75-1.88,16.24,16.24,0,0,0-1.49-1,9.33,9.33,0,0,0-.8,1.93A4.62,4.62,0,0,0,74.2,28,6.22,6.22,0,0,0,79.56,31.31Z"/><path class="cls-1" d="M84.24,30.19a11.2,11.2,0,0,1-.54-1.05,4.08,4.08,0,0,1-.46-1.95c.14-1.24.65-1.49.34-3A5.61,5.61,0,0,0,82.1,22a13.79,13.79,0,0,0-1.33-1.16,8.67,8.67,0,0,0-1.07,1.82,4.52,4.52,0,0,0-.27,3.48,6.5,6.5,0,0,0,3,3.38,5.91,5.91,0,0,0,1.27.49Z"/><path class="cls-1" d="M89,29.8a9.72,9.72,0,0,1-.37-1.12,4.18,4.18,0,0,1-.16-2c.33-1.18.87-1.38.8-2.91a5.75,5.75,0,0,0-1.13-2.38,8.59,8.59,0,0,0-.78-1L87,20a9.06,9.06,0,0,0-1.34,1.66,4.62,4.62,0,0,0-.79,3.42,6.5,6.5,0,0,0,2.46,3.76c.46.32.87.53,1.18.72A3.43,3.43,0,0,0,89,29.8Z"/><path class="cls-1" d="M93.72,30.16s-.11-.51-.18-1.16a4.18,4.18,0,0,1,.16-2c.52-1.12,1.09-1.24,1.26-2.76a5.67,5.67,0,0,0-.73-2.51,14.87,14.87,0,0,0-.92-1.62s-.2.13-.51.38a9.56,9.56,0,0,0-1.07,1.06,4.6,4.6,0,0,0-1.32,3.27,6.28,6.28,0,0,0,1.83,4.06A6.7,6.7,0,0,0,93.72,30.16Z"/><path class="cls-1" d="M98.33,31.26s0-.52,0-1.17a4.22,4.22,0,0,1,.48-1.94c.7-1,1.28-1.07,1.69-2.54a5.46,5.46,0,0,0-.32-2.58,17.29,17.29,0,0,0-.65-1.73s-.22.09-.55.26a6,6,0,0,0-1.23.84,4.73,4.73,0,0,0-1.83,3,6.78,6.78,0,0,0,1.14,4.34A5.66,5.66,0,0,0,98.33,31.26Z"/><path class="cls-1" d="M101.34,32.62a11.27,11.27,0,0,1,.5-1,4.11,4.11,0,0,1,1.3-1.52c1.08-.62,1.62-.4,2.65-1.54a5.57,5.57,0,0,0,.84-2.44,16.91,16.91,0,0,0,.18-1.82,8.47,8.47,0,0,0-2,.15,4.76,4.76,0,0,0-3,1.91,6.39,6.39,0,0,0-.87,2.4,7.48,7.48,0,0,0-.07,2A5.48,5.48,0,0,0,101.34,32.62Z"/><path class="cls-1" d="M105.35,32.66a6,6,0,0,1,3.11-.36c1.19.4,1.39,1,2.92,1a5.65,5.65,0,0,0,2.37-1,16.52,16.52,0,0,0,1.47-1.07,8.74,8.74,0,0,0-1.49-1.42,4.55,4.55,0,0,0-3.35-1,7,7,0,0,0-4,2.24A5.53,5.53,0,0,0,105.35,32.66Z"/><path class="cls-1" d="M118.06,42.37s-3-.93-4-2.5-.75-2.43-2.55-3.88a8.27,8.27,0,0,0-3.73-1.06,21.73,21.73,0,0,0-2.73-.12,13.15,13.15,0,0,0,.42,3.08,6.77,6.77,0,0,0,3,4.32,10.62,10.62,0,0,0,6.81,1.12A8.21,8.21,0,0,0,118.06,42.37Z"/><path class="cls-1" d="M53.28,99.34a6.53,6.53,0,0,1,2.89,1.8c.74,1.15.53,1.76,1.83,2.81a6,6,0,0,0,2.69.77,17.51,17.51,0,0,0,2,.09,9.36,9.36,0,0,0-.3-2.22,4.91,4.91,0,0,0-2.17-3.13,7.6,7.6,0,0,0-4.91-.81A5.79,5.79,0,0,0,53.28,99.34Z"/><path class="cls-1" d="M56.46,91.5s1.66,2,1.67,3.63-.6,2.07,0,3.93a7.11,7.11,0,0,0,2.14,2.49,20.14,20.14,0,0,0,1.88,1.36,11,11,0,0,0,1.14-2.38,5.72,5.72,0,0,0-.13-4.46,9,9,0,0,0-4.3-4A6.83,6.83,0,0,0,56.46,91.5Z"/><path class="cls-1" d="M66.75,97.43a5.42,5.42,0,0,0-1.57,2.37c-.16,1.12.21,1.51-.41,2.76A5,5,0,0,1,63,104.08a15.56,15.56,0,0,1-1.46.75A7.5,7.5,0,0,1,61,103a4.09,4.09,0,0,1,.56-3.12A6.32,6.32,0,0,1,65,97.6,5,5,0,0,1,66.75,97.43Z"/><path class="cls-1" d="M101.18,37.21a6.28,6.28,0,0,1,.61,1,3.42,3.42,0,0,1,.39,2c-.25,1.25-.74,1.54-.43,3A8,8,0,0,0,103,45.42l1,1.37a13.61,13.61,0,0,0,1-1.6,5.61,5.61,0,0,0,.93-3.32,5,5,0,0,0-2.51-3.9A5.4,5.4,0,0,0,101.18,37.21Z"/><path class="cls-1" d="M95.69,35.37a5.4,5.4,0,0,1,.54,1.07,3.28,3.28,0,0,1,.2,2c-.36,1.21-.87,1.47-.68,3a8.28,8.28,0,0,0,1,2.3c.43.79.78,1.46.78,1.46s.52-.63,1.13-1.46A6.17,6.17,0,0,0,100,40.51a4.85,4.85,0,0,0-2.06-4.16,6.93,6.93,0,0,0-1.54-.8A3.38,3.38,0,0,0,95.69,35.37Z"/><path class="cls-1" d="M88.33,33.65a5.48,5.48,0,0,1,.82.87,3.25,3.25,0,0,1,.76,1.86c0,1.27-.44,1.65.16,3.06a8.91,8.91,0,0,0,1.6,1.92l1.13,1.21s.3-.75.65-1.7a6.46,6.46,0,0,0,.46-3.44A4.71,4.71,0,0,0,90.81,34a6.88,6.88,0,0,0-1.73-.34A6.07,6.07,0,0,0,88.33,33.65Z"/><path class="cls-1" d="M82.31,36.77a5.69,5.69,0,0,1,1,.64A3.29,3.29,0,0,1,84.55,39c.33,1.23,0,1.7,1,2.9a8.16,8.16,0,0,0,2.08,1.42c.77.42,1.42.83,1.42.83s.12-.78.17-1.83a6.33,6.33,0,0,0-.52-3.41,4.71,4.71,0,0,0-3.94-2.48,5.51,5.51,0,0,0-1.73.14A5.11,5.11,0,0,0,82.31,36.77Z"/><path class="cls-1" d="M77.44,41a6.86,6.86,0,0,1,1.11.43,3.41,3.41,0,0,1,1.52,1.3c.58,1.12.37,1.65,1.55,2.64a7.57,7.57,0,0,0,2.34,1l1.61.45a14.73,14.73,0,0,0-.2-1.87A6,6,0,0,0,84,41.74a4.9,4.9,0,0,0-4.39-1.5,5.6,5.6,0,0,0-1.6.46A4.07,4.07,0,0,0,77.44,41Z"/><path class="cls-1" d="M73.42,46.16a5.82,5.82,0,0,1,1.19.15,3.42,3.42,0,0,1,1.77,1c.77,1,.72,1.56,2.08,2.26a9.5,9.5,0,0,0,2.46.47l1.64.21s-.24-.75-.58-1.77a5.66,5.66,0,0,0-1.86-2.92,4.76,4.76,0,0,0-4.58-.68,7.08,7.08,0,0,0-1.55.82A2.61,2.61,0,0,0,73.42,46.16Z"/><path class="cls-1" d="M70.77,52.52a6.47,6.47,0,0,1,1.2-.19,3.26,3.26,0,0,1,2,.41C75,53.46,75,54,76.55,54.3a8.78,8.78,0,0,0,2.51-.25l1.11-.2.48-.07a16.27,16.27,0,0,0-1-1.48A6.53,6.53,0,0,0,77,50a4.63,4.63,0,0,0-4.63.62,4.94,4.94,0,0,0-1.23,1.26A6.1,6.1,0,0,0,70.77,52.52Z"/><path class="cls-1" d="M70,59.14a6.68,6.68,0,0,1,1.1-.45,3.35,3.35,0,0,1,2-.09c1.19.43,1.42.95,3,.87a8.36,8.36,0,0,0,2.35-.9l1.5-.72-.39-.36-1-.84a6.25,6.25,0,0,0-3.11-1.49A4.79,4.79,0,0,0,71.06,57a7.31,7.31,0,0,0-.89,1.48A5,5,0,0,0,70,59.14Z"/><path class="cls-1" d="M70.48,65.41s1.74-1.27,3-1,1.52.7,3,.37a7.5,7.5,0,0,0,2.19-1.31c.72-.56,1.3-1,1.3-1a12.1,12.1,0,0,0-1.6-1A5.85,5.85,0,0,0,75,60.59a5.11,5.11,0,0,0-3.81,2.64A6.12,6.12,0,0,0,70.48,65.41Z"/><path class="cls-1" d="M71.73,71.2s1.61-1.37,2.87-1.29,1.6.54,3.06.08a6.63,6.63,0,0,0,2-1.54c.67-.64,1.2-1.22,1.2-1.22a11.56,11.56,0,0,0-1.75-.85A5.46,5.46,0,0,0,75.69,66a5.37,5.37,0,0,0-3.45,3A5.88,5.88,0,0,0,71.73,71.2Z"/><path class="cls-1" d="M73.24,76.62a5.54,5.54,0,0,1,2.84-1.36c1.25,0,1.6.48,3,0,1.14-.4,3.11-2.95,3.11-2.95s-3-1.83-5.28-1a5.65,5.65,0,0,0-3.27,3.22A6.19,6.19,0,0,0,73.24,76.62Z"/><path class="cls-1" d="M74.64,81.71a5.86,5.86,0,0,1,2.89-1.23c1.25.06,1.58.53,3,.09,1.17-.32,3.18-2.93,3.18-2.93A9.61,9.61,0,0,0,82,76.75a5,5,0,0,0-3.49-.15,6,6,0,0,0-3.28,3.16A6.87,6.87,0,0,0,74.64,81.71Z"/><path class="cls-1" d="M75.71,86.76a5.7,5.7,0,0,1,3-1.05c1.24.15,1.54.64,3,.3,1.19-.25,3.36-2.7,3.36-2.7a8.76,8.76,0,0,0-1.75-1,4.84,4.84,0,0,0-3.47-.38,6.06,6.06,0,0,0-3.48,2.92A5.7,5.7,0,0,0,75.71,86.76Z"/><path class="cls-1" d="M76.48,91.92a5.71,5.71,0,0,1,3-.89c1.23.21,1.5.72,3,.46C83.72,91.3,86,89,86,89a9.84,9.84,0,0,0-1.68-1.11,5,5,0,0,0-3.46-.58,6.14,6.14,0,0,0-4.4,4.63Z"/><path class="cls-1" d="M77,97.11A5.78,5.78,0,0,1,80,96.39c1.22.27,1.47.79,3,.61a5.94,5.94,0,0,0,2.28-1.2,17.08,17.08,0,0,0,1.36-1.12A9.65,9.65,0,0,0,85,93.48a4.9,4.9,0,0,0-3.41-.75,6,6,0,0,0-3.78,2.53A6.49,6.49,0,0,0,77,97.11Z"/><path class="cls-1" d="M77.19,102.28a5.81,5.81,0,0,1,3.1-.53c1.19.35,1.41.88,2.94.8a6,6,0,0,0,2.35-1.06,16.19,16.19,0,0,0,1.43-1,9.41,9.41,0,0,0-1.57-1.3,4.85,4.85,0,0,0-3.35-1,6.1,6.1,0,0,0-3.92,2.32A6.24,6.24,0,0,0,77.19,102.28Z"/><path class="cls-1" d="M77,107.33a5.92,5.92,0,0,1,3.13-.26c1.16.45,1.34,1,2.87,1.05a5.57,5.57,0,0,0,2.42-.87,17,17,0,0,0,1.51-1,8.76,8.76,0,0,0-1.46-1.44,4.79,4.79,0,0,0-3.29-1.18,6.13,6.13,0,0,0-4.06,2A5.66,5.66,0,0,0,77,107.33Z"/><path class="cls-1" d="M76.35,112s.51-.07,1.15-.09a4.2,4.2,0,0,1,2,.31c1.09.58,1.18,1.15,2.69,1.44a5.38,5.38,0,0,0,2.54-.56,13.93,13.93,0,0,0,1.61-.81,8.49,8.49,0,0,0-1.26-1.65,4.75,4.75,0,0,0-3.17-1.52,6.79,6.79,0,0,0-4.25,1.51A8,8,0,0,0,76.35,112Z"/><path class="cls-1" d="M75,115.61l1.09.36a5,5,0,0,1,1.79.91c.86.86.75,1.43,2.06,2.22a4.78,4.78,0,0,0,2.66.2,10.35,10.35,0,0,0,1.84-.5s0-.28-.16-.68a4.73,4.73,0,0,0-.6-1.42,4.35,4.35,0,0,0-2.8-2.15,9.3,9.3,0,0,0-4.42.46,6.62,6.62,0,0,0-1.07.43A2.17,2.17,0,0,0,75,115.61Z"/><path class="cls-1" d="M72.65,118s.39.31.86.74a4.9,4.9,0,0,1,1.25,1.57c.43,1.15.1,1.64,1,2.89a4.85,4.85,0,0,0,2.31,1.27,7.72,7.72,0,0,0,1.88.32,5.87,5.87,0,0,0,.15-.67,5.67,5.67,0,0,0,0-1.58,4,4,0,0,0-1.68-3.11,10.29,10.29,0,0,0-4.19-1.41A7.84,7.84,0,0,0,72.65,118Z"/><path class="cls-1" d="M69.08,119.64s.3.42.62,1a4.62,4.62,0,0,1,.69,1.88c0,1.26-.44,1.58,0,3a5,5,0,0,0,1.75,1.94,12.73,12.73,0,0,0,1.58,1,8,8,0,0,0,.88-2,4.22,4.22,0,0,0-.41-3.51,7.7,7.7,0,0,0-1.8-1.84,7.86,7.86,0,0,0-1.65-1,7.48,7.48,0,0,0-1.21-.41C69.27,119.66,69.08,119.64,69.08,119.64Z"/><path class="cls-1" d="M64.8,120.33s.2.47.39,1.08a4.3,4.3,0,0,1,.24,2c-.26,1.21-.79,1.45-.67,3A5.33,5.33,0,0,0,66,128.67,14.35,14.35,0,0,0,67.26,130a8.1,8.1,0,0,0,1.28-1.71,4.41,4.41,0,0,0,.52-3.48,7.37,7.37,0,0,0-2.66-3.61A6.09,6.09,0,0,0,64.8,120.33Z"/><path class="cls-1" d="M66.25,48a41.11,41.11,0,0,0-2.42,13.24c-.15,10.89,3,19.75,4.62,24.51.41,1.17.77,2.18.91,2.76,2.12,8.43,2.1,14.07,1.45,17.71a11.39,11.39,0,0,0-16.34,2c-3.33-3.85-7.39-11.23-5.55-23.34,2-13.3,6.49-24,13.63-32.64,1.27-1.55,2.49-3,3.7-4.25M86,32.62c-12.78,2.75-18.93,7.77-26.56,17C51.07,59.83,46.9,71.57,45,84.24,41.59,106.45,56.2,115,56.2,115A7.41,7.41,0,0,1,71,115s7.69-5.83,2.23-27.51c-.89-3.56-5.59-13.29-5.41-26.24.13-9,3.74-17.61,8.52-22.4A27.07,27.07,0,0,1,86,32.62Z"/><circle class="cls-1" cx="63.68" cy="114.43" r="2.66"/><path class="cls-1" d="M56,88.88a83.52,83.52,0,0,1,.78-12,103,103,0,0,1,2.19-11.7,68,68,0,0,1,3.78-11.26,29.81,29.81,0,0,1,6.53-9.78,29.34,29.34,0,0,0-5.61,10.15,66.49,66.49,0,0,0-2.74,11.3,104.35,104.35,0,0,0-1.17,11.55A81.16,81.16,0,0,0,60,88.62Z"/></svg>