<svg id="Graphics" xmlns="http://www.w3.org/2000/svg" viewBox="0 0 150 150"><defs><style>.cls-1,.cls-3{fill:none;stroke-miterlimit:10;}.cls-1{stroke:#231f20;stroke-width:8px;}.cls-2{fill:#231f20;}.cls-3{stroke:#fff;stroke-width:4px;}</style></defs><path class="cls-1" d="M65.31,85a13.7,13.7,0,1,1,19.38,0"/><ellipse class="cls-1" cx="97.53" cy="52.09" rx="17.23" ry="10" transform="translate(-8.27 84.23) rotate(-45)"/><circle class="cls-2" cx="97.53" cy="52.09" r="4"/><ellipse class="cls-1" cx="106.87" cy="74.63" rx="17.23" ry="10"/><circle class="cls-2" cx="106.87" cy="74.63" r="4"/><ellipse class="cls-1" cx="97.53" cy="97.16" rx="10" ry="17.23" transform="translate(-40.14 97.43) rotate(-45)"/><circle class="cls-2" cx="97.53" cy="97.16" r="4"/><ellipse class="cls-1" cx="52.47" cy="97.16" rx="17.23" ry="10" transform="translate(-53.34 65.56) rotate(-45)"/><circle class="cls-2" cx="52.47" cy="97.16" r="4"/><ellipse class="cls-1" cx="43.13" cy="74.63" rx="17.23" ry="10"/><circle class="cls-2" cx="43.13" cy="74.63" r="4"/><ellipse class="cls-1" cx="52.47" cy="52.09" rx="10" ry="17.23" transform="translate(-21.47 52.36) rotate(-45)"/><circle class="cls-2" cx="52.47" cy="52.09" r="4"/><ellipse class="cls-1" cx="75" cy="42.76" rx="10" ry="17.23"/><circle class="cls-2" cx="75" cy="42.76" r="4"/><path class="cls-1" d="M110,110a49.49,49.49,0,0,1-70,0"/><path class="cls-2" d="M77,86.3l-1,8.2a1,1,0,0,1-1.09.85A1,1,0,0,1,74,94.5l-1-8.2a2,2,0,0,1,4-.5A2.09,2.09,0,0,1,77,86.3Z"/><circle class="cls-2" cx="70.17" cy="76.21" r="2"/><circle class="cls-2" cx="79.83" cy="76.21" r="2"/><path class="cls-3" d="M79,64a7.93,7.93,0,0,0-4-6.89A7.93,7.93,0,0,0,71,64"/></svg>