<svg id="Graphics" xmlns="http://www.w3.org/2000/svg" viewBox="0 0 150 150"><defs><style>.cls-1,.cls-2{fill:none;stroke:#231f20;stroke-miterlimit:10;}.cls-1{stroke-width:4px;}.cls-2{stroke-width:8px;}.cls-3{fill:#231f20;}</style></defs><path class="cls-1" d="M39.64,75.14a12.88,12.88,0,0,1-1.07,5.28l0,.1a8.5,8.5,0,0,1-15.49,0c-.12-.28-.23-.56-.33-.85a11.85,11.85,0,0,1-.71-4c-.08-5.5,3.41-10.38,8.64-13.1C35.94,64.94,39.56,69.64,39.64,75.14Z"/><path class="cls-1" d="M30.73,85.49c4.93-4.52,4.77-11.81.09-21.55h-.09c-4.68,9.74-4.84,17,.09,21.55"/><polyline class="cls-2" points="32.22 83.67 51.72 90.83 76.2 77.33"/><path class="cls-2" d="M102.6,113.52h-48v-4.34A7.44,7.44,0,0,1,62,101.75h5.23a.93.93,0,0,0,.88-1.22l-3-9.31-8.69-14.9a3.61,3.61,0,0,1,0-3.66l.69-1.14A1.68,1.68,0,0,0,55.77,69a8.83,8.83,0,0,1-6.32-2.65c-3.38-3.76-3.67-6.7-6.16-8.79s-8.22-4.26-8.37-5.34a29,29,0,0,1,.85-5.1,3.06,3.06,0,0,1,3.68-2.31,27.46,27.46,0,0,0,6.46.9c3.08-.15,13.39-2.38,19.46.67a14.92,14.92,0,0,0,.52,11.2,15,15,0,0,0,9.69-2.48C78.14,57.75,80,59.93,80,59.93s2.94.62,6.86,1.88c5.49,1.76,12.93,4.78,17,9.11a29.43,29.43,0,0,1,7.78,18.19C112.43,100,107.88,110.3,102.6,113.52Z"/><path class="cls-1" d="M57.28,70.13c8.36.16,15.85-3.57,22.71-10.2"/><path class="cls-1" d="M86.85,61.81l-2.73,8.34a.86.86,0,0,0,.47,1.06c2.12.92,8.43,4.27,12.75,13,2.52,5.11,3.4,8.27,3.63,10.18a1.34,1.34,0,0,0,2.12.92l8.62-6.3"/><path class="cls-2" d="M79.39,51.33a14.81,14.81,0,0,1-13.5,6.22,14.92,14.92,0,0,1-.52-11.2,14.31,14.31,0,0,1,1.87-3.59,14.81,14.81,0,0,1,13.49-6.22A14.86,14.86,0,0,1,79.39,51.33Z"/><path class="cls-3" d="M130,77.46a8.34,8.34,0,0,1-4.38,7.07,8.28,8.28,0,0,1-3.7-5.07,7.69,7.69,0,0,1-.24-2.26,8.28,8.28,0,0,1,4.37-7.06A8.31,8.31,0,0,1,130,77.46Z"/><path class="cls-3" d="M102.6,109.53a46.73,46.73,0,0,0,10.63-.5,13.43,13.43,0,0,0,4.27-1.58,8.36,8.36,0,0,0,2.91-3.07c1.54-2.67,2.21-6.38,2.64-10s.61-7.56.79-11.4h4c.16,3.88.3,7.77.2,11.75a53.31,53.31,0,0,1-.49,6.08,23.48,23.48,0,0,1-1.79,6.34,14.81,14.81,0,0,1-4.51,5.66,19.9,19.9,0,0,1-6.28,3,52.83,52.83,0,0,1-12.37,1.72Z"/></svg>