<svg id="Graphics" xmlns="http://www.w3.org/2000/svg" viewBox="0 0 150 150"><defs><style>.cls-1,.cls-3{fill:none;stroke:#231f20;stroke-miterlimit:10;}.cls-1{stroke-width:8px;}.cls-2{fill:#231f20;}.cls-3{stroke-width:4px;}</style></defs><path class="cls-1" d="M75,105s-18.1,18.25-29.08,18.25S26,115.05,26,105s8.9-18.24,19.88-18.24S75,105,75,105Z"/><path class="cls-1" d="M75,105s18.1,18.25,29.08,18.25S124,115.05,124,105s-8.9-18.24-19.88-18.24S75,105,75,105Z"/><path class="cls-2" d="M79.82,100.81a8.6,8.6,0,0,1-2.38-3.94,15.63,15.63,0,0,1-.59-4A21.32,21.32,0,0,1,77.16,89,24.88,24.88,0,0,1,78,85.3c1.57-5,4.68-9.09,7.92-12.62s6.82-6.6,10.09-9.71,6.35-6.22,8.39-9.66a16.59,16.59,0,0,0,2.11-5.26,12.25,12.25,0,0,0,.22-1.35l.08-.68,0-.63a8.61,8.61,0,0,0-.31-2.39c-.8-3-3.62-5.75-7.14-7.77A46.58,46.58,0,0,0,87.67,30.6a52.27,52.27,0,0,0-25.35,0,46.53,46.53,0,0,0-11.74,4.64c-3.52,2-6.35,4.73-7.14,7.77a9,9,0,0,0-.31,2.39l0,.63.07.68a12.65,12.65,0,0,0,.22,1.35,16.62,16.62,0,0,0,2.12,5.26c2,3.43,5.14,6.56,8.39,9.66s6.8,6.18,10.09,9.71S70.4,80.34,72,85.31A26.29,26.29,0,0,1,72.86,89a21.35,21.35,0,0,1,.34,3.87,14.09,14.09,0,0,1-.62,4,9,9,0,0,1-2.31,3.83L67.4,97.9A6.89,6.89,0,0,0,68.53,93,20,20,0,0,0,67.07,87,29.38,29.38,0,0,0,59.72,76.9c-3.14-3.06-6.7-5.89-10.25-9a52.93,52.93,0,0,1-10-10.82,23.78,23.78,0,0,1-3.24-7.39,15.77,15.77,0,0,1-.39-2l-.14-1-.07-1.09a16.38,16.38,0,0,1,.49-4.45,17.64,17.64,0,0,1,4.21-7.61,28,28,0,0,1,6.22-5,52.47,52.47,0,0,1,13.8-5.62,57.18,57.18,0,0,1,29.31,0,52.27,52.27,0,0,1,13.8,5.62,28.18,28.18,0,0,1,6.22,5,17.61,17.61,0,0,1,4.21,7.6,16.08,16.08,0,0,1,.49,4.45l-.06,1.1-.14,1a17.45,17.45,0,0,1-.38,2,23.83,23.83,0,0,1-3.25,7.39,52.42,52.42,0,0,1-10,10.83c-3.55,3.07-7.12,5.89-10.26,9A29.52,29.52,0,0,0,82.93,87,19.45,19.45,0,0,0,81.5,93a11,11,0,0,0,.13,2.83,4.71,4.71,0,0,0,.88,2.06Z"/><path class="cls-3" d="M51.36,29.9c4.76-2.12,8.87-.92,11.79.17s4.14,2.55,6.5,7.14,3.28,4,5.28,4h.14c2,0,2.91.61,5.28-4s3.59-6,6.5-7.14,7-2.29,11.79-.17"/><path class="cls-2" d="M74,129a59.89,59.89,0,0,0-1.56-9.81,20.28,20.28,0,0,0-4-8.32,2,2,0,0,1,3-2.67l.12.16a19,19,0,0,1,2.57,5,29.77,29.77,0,0,1,1.28,5.21A62.58,62.58,0,0,1,76,129a1,1,0,0,1-2,.08Z"/><path class="cls-2" d="M81.74,110.68a30.56,30.56,0,0,0-3.86,8.68A63.61,63.61,0,0,0,76,129.07a1,1,0,0,1-1.11.88,1,1,0,0,1-.89-1,66,66,0,0,1,1-10.25,34.27,34.27,0,0,1,3.37-10.07h0a2,2,0,1,1,3.53,1.9Z"/><path class="cls-2" d="M77.09,41.18a7.56,7.56,0,0,0,.66,4.2,4.3,4.3,0,0,0,3,2.51v2a5.85,5.85,0,0,1-3.18-.78A7.79,7.79,0,0,1,75.23,47a11,11,0,0,1-2.14-5.86Z"/><path class="cls-2" d="M77.09,41.17A11,11,0,0,1,75,47a7.79,7.79,0,0,1-2.39,2.1,5.85,5.85,0,0,1-3.18.78v-2a4.3,4.3,0,0,0,3.05-2.51,7.65,7.65,0,0,0,.66-4.2Z"/><path class="cls-2" d="M64,57.73a2.41,2.41,0,0,1-2.65.19,3,3,0,0,1-1.41-2,4,4,0,0,1,.18-2.24,3.55,3.55,0,0,1,1.55-1.84,3.36,3.36,0,0,1,1.25-.37,3,3,0,0,1,1.33.19,3.76,3.76,0,0,1,1.85,1.55,3.94,3.94,0,0,1,.49,1,3.63,3.63,0,0,1,.15.54l.09.42.33,1.59A18.07,18.07,0,0,0,68,59.68a5.07,5.07,0,0,0,.61,1.1,1.92,1.92,0,0,0,.74.52c1.44.6,3.69.56,5.56.53h.18c1.87,0,4.12.06,5.55-.54a1.92,1.92,0,0,0,.74-.52,5,5,0,0,0,.6-1.09,19.63,19.63,0,0,0,.85-2.92l.32-1.58.08-.42c.05-.19.09-.38.15-.56a5,5,0,0,1,.49-1.05,3.83,3.83,0,0,1,1.88-1.57,3.06,3.06,0,0,1,1.35-.2,3.33,3.33,0,0,1,1.28.38A3.57,3.57,0,0,1,90,53.63a4.11,4.11,0,0,1,.19,2.28A3.08,3.08,0,0,1,88.7,58a2.54,2.54,0,0,1-2.76-.19A1.09,1.09,0,0,1,87.15,56l.09.05a.28.28,0,0,0,.34,0,.84.84,0,0,0,.3-.59A1.47,1.47,0,0,0,87.22,54a.62.62,0,0,0-.55,0,1.3,1.3,0,0,0-.54.57A1.7,1.7,0,0,0,86,55a2,2,0,0,0,0,.24l-.06.4-.24,1.66a20.85,20.85,0,0,1-.8,3.45,7.87,7.87,0,0,1-.88,1.84,5.19,5.19,0,0,1-1.72,1.62,11.9,11.9,0,0,1-3.68,1.33,15.71,15.71,0,0,1-3.64.3h.18a15.18,15.18,0,0,1-3.64-.31,11.51,11.51,0,0,1-3.67-1.33A5.1,5.1,0,0,1,66,62.57a8,8,0,0,1-.87-1.83,20.9,20.9,0,0,1-.79-3.46l-.23-1.66-.05-.4c0-.08,0-.17,0-.25a1.83,1.83,0,0,0-.18-.46,1.27,1.27,0,0,0-.56-.6.7.7,0,0,0-.6,0,1.55,1.55,0,0,0-.71,1.6.9.9,0,0,0,.33.64.37.37,0,0,0,.45,0l.06,0A1,1,0,0,1,64,57.73Z"/></svg>