<svg id="Graphics" xmlns="http://www.w3.org/2000/svg" viewBox="0 0 150 150"><defs><style>.cls-1{fill:none;stroke:#231f20;stroke-linecap:round;stroke-linejoin:round;stroke-width:8px;}.cls-2{fill:#231f20;}</style></defs><polygon class="cls-1" points="38.78 103.11 51.6 115.92 42.07 126 23.84 116 38.78 103.11"/><path class="cls-1" d="M75,24V86.22L65.27,98.57l-9.83-9.82,1.71-1.48A13.69,13.69,0,0,0,61.7,74.6,125.91,125.91,0,0,1,60,60.41C60,56.53,75,24,75,24Z"/><path class="cls-2" d="M66,63.81A17.71,17.71,0,0,1,66,61.22a20.87,20.87,0,0,1,.19-2.49,19.34,19.34,0,0,1,1.31-4.86,13.25,13.25,0,0,1,2.87-4.24,12.64,12.64,0,0,1,4.27-2.69,1,1,0,0,1,1.37.54,1.05,1.05,0,0,1-.44,1.32l-.11.06a10.13,10.13,0,0,0-3.21,2.53,10.5,10.5,0,0,0-1.9,3.55A16,16,0,0,0,69.65,59a18.35,18.35,0,0,0,.06,2.1,15.88,15.88,0,0,0,.27,2v0a2,2,0,0,1-3.91.88A2.07,2.07,0,0,1,66,63.81Z"/><path class="cls-1" d="M62.48,113.57a5.48,5.48,0,0,1-9.35,3.88l-1.52-1.53L38.78,103.11l-2.86-2.86a5.49,5.49,0,0,1,7.76-7.76l3.44,3.43,11.31,11.33,2.45,2.45A5.45,5.45,0,0,1,62.48,113.57Z"/><path class="cls-1" d="M70.24,105.82a5.44,5.44,0,0,1-1.61,3.88,5.5,5.5,0,0,1-7.75,0l-2.45-2.45L47.12,95.92l-3.44-3.43a5.48,5.48,0,0,1,7.75-7.75l4,4,9.83,9.82L68.63,102A5.42,5.42,0,0,1,70.24,105.82Z"/><polygon class="cls-1" points="111.22 103.11 98.39 115.92 107.93 126 126.02 115.88 111.22 103.11"/><path class="cls-1" d="M75,24V86.22l9.73,12.35,9.83-9.82-1.71-1.48A13.69,13.69,0,0,1,88.3,74.6,125.91,125.91,0,0,0,90,60.41C90,56.53,75,24,75,24Z"/><path class="cls-2" d="M80,63.13a14.18,14.18,0,0,0,.28-2,18.35,18.35,0,0,0,.06-2.1,16.08,16.08,0,0,0-.63-4.1,10.69,10.69,0,0,0-1.9-3.57,10.25,10.25,0,0,0-3.22-2.55l-.1-.06a1,1,0,0,1-.37-1.35A1,1,0,0,1,75.39,47a12.58,12.58,0,0,1,4.26,2.68,13.32,13.32,0,0,1,2.88,4.21,19.45,19.45,0,0,1,1.31,4.86,20.91,20.91,0,0,1,.21,2.49A19.23,19.23,0,0,1,84,63.81a2,2,0,0,1-4-.43c0-.08,0-.15,0-.22Z"/><path class="cls-1" d="M87.52,113.57a5.48,5.48,0,0,0,9.35,3.88l1.52-1.53,12.83-12.81,2.86-2.86a5.49,5.49,0,0,0-7.76-7.76l-3.44,3.43L91.57,107.25l-2.45,2.45A5.45,5.45,0,0,0,87.52,113.57Z"/><path class="cls-1" d="M79.76,105.82a5.44,5.44,0,0,0,1.61,3.88,5.5,5.5,0,0,0,7.75,0l2.45-2.45,11.31-11.33,3.44-3.43a5.48,5.48,0,0,0-7.75-7.75l-4,4-9.83,9.82L81.37,102A5.42,5.42,0,0,0,79.76,105.82Z"/></svg>