<svg id="Graphics" xmlns="http://www.w3.org/2000/svg" viewBox="0 0 150 150"><defs><style>.cls-1,.cls-2,.cls-3{fill:none;stroke:#231f20;}.cls-1,.cls-2{stroke-miterlimit:10;}.cls-1{stroke-width:8px;}.cls-2,.cls-3{stroke-width:4px;}.cls-3{stroke-linejoin:round;}</style></defs><path class="cls-1" d="M85.88,53.06c8-7.17,7.67-26,7.52-29.06C86,25.5,76.15,26.22,65.57,38.55c-1.48,1.73-8.18,4-8.18,4A21.17,21.17,0,0,0,46.31,55.89l-2.72,9.76a13.87,13.87,0,0,1-4.16,6.64L28.82,81.67A6.24,6.24,0,0,0,28,90.08l4.55,6.06a79.25,79.25,0,0,0,6,6.69h0a6.53,6.53,0,0,0,8.54.44l5.55-4.34h0a29.23,29.23,0,0,0,19,7c.84,0,1.67,0,2.49-.1l4.25-.81"/><circle class="cls-2" cx="90.39" cy="113.75" r="4.36"/><circle class="cls-2" cx="81.66" cy="111.89" r="4.36"/><circle class="cls-2" cx="97.91" cy="109.38" r="4.36"/><circle class="cls-2" cx="104.24" cy="103.16" r="4.36"/><circle class="cls-2" cx="110.08" cy="96.37" r="4.36"/><circle class="cls-2" cx="114.56" cy="88.89" r="4.36"/><circle class="cls-2" cx="117.76" cy="80.74" r="4.36"/><circle class="cls-2" cx="118.92" cy="72.02" r="4.36"/><circle class="cls-2" cx="118.92" cy="63.29" r="4.36"/><path class="cls-2" d="M115,61.17c-1.5,1.89-1-1.39-2.53-3.29-2.11-2.67-5.8-.25-4.3-2.14A4.36,4.36,0,0,1,115,61.17Z"/><path class="cls-1" d="M100,60.16a16.13,16.13,0,0,1-5,3.41,16.36,16.36,0,0,1-10.34,1,16.53,16.53,0,0,1,1.83-12.07h0a15.63,15.63,0,0,1,2.21-2.91c.1-.12.21-.24.32-.35a16.41,16.41,0,0,1,15.34-4.38A16.38,16.38,0,0,1,100,60.16Z"/><path class="cls-2" d="M62.82,58.72a7.49,7.49,0,0,1-2.61.89,7.59,7.59,0,0,1-4.68-.85,7.52,7.52,0,0,1,1.64-4.36,7.4,7.4,0,0,1,.66-.72h0a7.4,7.4,0,0,1,1.33-1l.19-.11a7.5,7.5,0,0,1,7.29,0A7.46,7.46,0,0,1,62.82,58.72Z"/><path class="cls-2" d="M91.26,64.82c-2.43.85-3.84.66-6.39.19a7.81,7.81,0,0,1,.65-6,9,9,0,0,1,7.93-2.76C94.75,58.93,93.46,62.89,91.26,64.82Z"/><path class="cls-3" d="M75.84,125.34c-.67,1.43-4.3,1.14-8.1-.64s-6.36-4.4-5.69-5.82l.29-.38L67,113.2A5.72,5.72,0,0,1,77.08,118L76,124.88Z"/><line class="cls-3" x1="76.96" y1="105.02" x2="73.91" y2="111.54"/><path class="cls-2" d="M70.37,126.24l0,.06c-1.71,3.54-7.13,1-5.5-2.58l0-.06"/><line class="cls-1" x1="32.5" y1="97.48" x2="43.05" y2="89.02"/></svg>