<svg id="Graphics" xmlns="http://www.w3.org/2000/svg" viewBox="0 0 150 150"><defs><style>.cls-1,.cls-2,.cls-4{fill:none;stroke:#231f20;}.cls-1,.cls-2{stroke-linecap:round;stroke-linejoin:round;}.cls-2{stroke-width:2px;}.cls-3{fill:#231f20;}.cls-4{stroke-miterlimit:10;stroke-width:4px;}</style></defs><path class="cls-1" d="M72.43,43.67c-2-.52-1.92,1.09-3.94.57s-.95-1.54-3-2.07-2.43,1-4.46.52-1.62-2.1-3.64-2.62-6.34-1-8.37-1.55"/><path class="cls-1" d="M72.26,45.72c-2.29-.24-2.47,1.37-4.76,1.12s-2.11-1.86-4.4-2.1-2.47,1.36-4.76,1.12S56.22,44,53.92,43.75s-7.67.22-10,0"/><path class="cls-1" d="M72,47.06c-2.67.07-2.62,1.69-5.29,1.77s-2.72-1.55-5.38-1.48S58.65,49,56,49.11s-2.72-1.55-5.39-1.48-7,.29-9.71.36"/><path class="cls-1" d="M72.06,48.11c-2.94.41-2.72,2-5.66,2.42s-3.16-1.2-6.1-.79-2.72,2-5.66,2.42-3.17-1.2-6.11-.79-9.33,2-12.27,2.38"/><path class="cls-2" d="M82.55,64s-2.23,5.52-2,6.08a26.74,26.74,0,0,0,1.67,2.43c.41.66,6.09,7.35.56,9.84s-13.18-1.83-14.19-1.78-2,2.49-3.06,3.69-3.08,2.14-4.6,3-3.85,2.49-3.9,3.35.1,1.94-.66,2.64-1.62-.87-2.53-1-2.34.61-4.62.61a2.94,2.94,0,0,1-2.84-3c.06-.71,1.32-.51,1.63-.51,0,0,4.2.41,6.54-1.32S59.13,82,60,81.12s4.21-3.24,4.51-4,1.27-2.47,2.69-2.52S70,75.29,72,75c0,0,.14-3.14-.87-4.13l-1-1"/><path class="cls-2" d="M79.51,83.09c-.21.85-2.18,5.18-2.74,6.29s-4.11,4.41-4.41,5.73,2.08,4.36,2.71,5.17,2,5.17,2.41,6.19a10.61,10.61,0,0,0,2.33,3.7c1.37,1.42.91,2.89.26,2.94l-6,.5c-.81,0-3.07,0-4,0-1.37,0-1-1.62,3.5-2.43,0,0,1.36-.45,1.44-1.16s-1.14-2.13-1.9-2.79a38.06,38.06,0,0,1-3.73-4.77c-.88-1.32-3.72-5.47-3.37-6.74s2.39-8.11,2.59-9.12,3-5,3-5"/><path class="cls-3" d="M105.53,54.51a7.67,7.67,0,0,0,.23,2.39.93.93,0,0,0,.4.55c.06.06.17.07.27.11a2.82,2.82,0,0,0,.41,0,.68.68,0,0,0,.55-.19,1.77,1.77,0,0,0,.39-.75,11.27,11.27,0,0,0,.24-2.55.53.53,0,0,1,1-.2l0,.08a6.19,6.19,0,0,1,.5,3,3.26,3.26,0,0,1-.7,1.77,2.58,2.58,0,0,1-1.92.9,3.24,3.24,0,0,1-1-.07,3.07,3.07,0,0,1-1-.46,2.79,2.79,0,0,1-1-1.76,5.12,5.12,0,0,1,.56-3.12.53.53,0,0,1,1,.23Z"/><path class="cls-3" d="M107.28,52.59l.42,6a1,1,0,1,1-2,.13.76.76,0,0,1,0-.15l.53-6a.53.53,0,0,1,.57-.48A.53.53,0,0,1,107.28,52.59Z"/><path class="cls-3" d="M80.35,54a10,10,0,0,1,4.38,1.65,4,4,0,0,1,1,1,5,5,0,0,1,.52,1.22,4.77,4.77,0,0,1,.07,2.6,9.56,9.56,0,0,1-2.6,3.83A15.18,15.18,0,0,1,80.12,67a32.64,32.64,0,0,1-3.89,1.92c-.66.27-1.31.53-2,.78s-1.41.43-2.11.6c-2.77.67-5.52,1.18-8.3,1.66l.8-.76a10.94,10.94,0,0,1-.78,2.05c-.3.63-.63,1.23-1,1.82s-.73,1.17-1.15,1.74a8.73,8.73,0,0,1-.68.85,4.74,4.74,0,0,1-.45.44,2,2,0,0,1-.36.25.94.94,0,0,1-.29.14,1.54,1.54,0,0,1-.52.06h0l.47,0a1.78,1.78,0,0,1-.55.09,1.82,1.82,0,0,1-.51-.09,1.74,1.74,0,0,1-.82-.59,2.64,2.64,0,0,1-.44-1.29,7.42,7.42,0,0,1,.13-2,25,25,0,0,1,1-3.45,5.21,5.21,0,0,1,2.44-3,5.79,5.79,0,0,1,.93-.4l.8-.25,1.62-.57q3.26-1.17,6.49-2.4c2.13-.82,4.35-1.62,6.39-2.53l0,0a.19.19,0,0,1,.25.1.18.18,0,0,1-.08.24c-2.11,1.1-4.2,2-6.31,2.94S67,67.13,64.83,68l-1.61.67-.83.32a3.48,3.48,0,0,0-.64.32,3.79,3.79,0,0,0-1.63,2.33,22.69,22.69,0,0,0-.71,3.24,5.65,5.65,0,0,0,0,1.47.64.64,0,0,0,.11.33.31.31,0,0,0-.13-.09l-.09,0s0,0-.12,0l.47,0h0a.54.54,0,0,0-.28,0l-.07,0s0,0,0,0a3.28,3.28,0,0,0,.25-.26,8.32,8.32,0,0,0,.55-.69c.37-.49.71-1,1-1.57s.63-1.1.9-1.66a9.59,9.59,0,0,0,.64-1.65h0a1,1,0,0,1,.81-.74c2.73-.48,5.49-1,8.15-1.63.67-.17,1.33-.34,1.93-.55s1.28-.48,1.9-.74a30.86,30.86,0,0,0,3.65-1.79,13.31,13.31,0,0,0,3.08-2.36,8,8,0,0,0,2.15-3,2.9,2.9,0,0,0-.06-1.54,2,2,0,0,0-.77-1.21A8.29,8.29,0,0,0,80.09,56H80a1,1,0,0,1,.31-2Z"/><path class="cls-2" d="M61.9,66.17a.55.55,0,0,1-.14-.12c-1.09-1-1.88-3.94-1.4-5.62q.11-.34.21-.6a1.92,1.92,0,0,1,1.19-1.31c.05,0,.16,0,.31.1A7.65,7.65,0,0,1,65.32,64a.5.5,0,0,1,0,.12C65.57,67.16,62.85,66.79,61.9,66.17Z"/><path class="cls-3" d="M64.93,63.37l1.13-.57.31-.15a1.55,1.55,0,0,1,.63-.2,1.44,1.44,0,0,1,1.16.43,1.6,1.6,0,0,1,.32.53,2.44,2.44,0,0,1,.07.38l.1.64.2,1.28a.38.38,0,0,1-.32.43.36.36,0,0,1-.4-.23l-.5-1.2-.24-.6c0-.07-.1-.26-.11-.23h0s0,0,0,.06,0,0,0,0l-.23.2L66,65A1,1,0,0,1,64.6,65a1,1,0,0,1,.09-1.43l.21-.14Z"/><path class="cls-2" d="M62.07,58.62a49.07,49.07,0,0,1,4.56-3.35c1.44-.72,7.1-1,7.1-1"/><path class="cls-2" d="M84.09,62.33s10.47,11,11.49,10.93,3.65-2.13,5.07-4.26,3.19-6.94,3.8-7.24,4.2.25,5-.87,1.92-3.29,1.77-3.75c-.08-.25-1.61,1.6-3.5,2.28-1.53.56-3.41-.08-4,.26-1.32.76-6.54,6.59-7.15,7.4s-4.46-6.74-8.52-9.28a39.59,39.59,0,0,0-6-2.41"/><path class="cls-1" d="M82.82,56a6.65,6.65,0,0,1-13-1.78"/><path class="cls-1" d="M81.18,55.23a4.86,4.86,0,0,1-9.62-1"/><path class="cls-3" d="M76.8,39.69A7.44,7.44,0,0,0,75.64,42,1.16,1.16,0,0,0,78,42,7.44,7.44,0,0,0,76.8,39.69Zm0,2.74a.36.36,0,1,1,.36-.36A.36.36,0,0,1,76.8,42.43Z"/><circle class="cls-2" cx="50.38" cy="54.53" r="1.72"/><path class="cls-3" d="M75.68,52.68a4.48,4.48,0,0,1,.85,0c.25,0,.47.07.63.07s.76-.09,1.41-.11a1.48,1.48,0,0,1-1.46,1.11,1.67,1.67,0,0,1-.9-.36A1.58,1.58,0,0,1,75.68,52.68Z"/><path class="cls-3" d="M76.11,51.5c.41,0,.75.17,1,.18a4.63,4.63,0,0,0,1-.18,1.14,1.14,0,0,1-.39.48,1,1,0,0,1-.63.2A1.3,1.3,0,0,1,76.11,51.5Z"/><path class="cls-3" d="M78.27,49s.66-.86,1.4-.8a1.47,1.47,0,0,1,1,.37,1.78,1.78,0,0,1-1.19.66A2,2,0,0,1,78.27,49Z"/><path class="cls-3" d="M77,48.27s-.71-.82-.49-1.53a1.43,1.43,0,0,1,.56-.89,1.75,1.75,0,0,1,.4,1.3A2,2,0,0,1,77,48.27Z"/><path class="cls-3" d="M76,49s-.66-.86-1.4-.8a1.47,1.47,0,0,0-1,.37,1.78,1.78,0,0,0,1.19.66A2,2,0,0,0,76,49Z"/><path class="cls-1" d="M81.84,47.59a13.84,13.84,0,0,1-.42,4.28c-.25.87-2.27,4.05-4.29,4.05-1.54,0-3.11-1.42-3.83-3A15.61,15.61,0,0,1,72.13,48a4,4,0,0,1,.62-2.55l0,.14a14.16,14.16,0,0,1,8.54-.08A4,4,0,0,1,81.84,47.59Z"/><path class="cls-1" d="M77.88,107.39a12.53,12.53,0,0,1-2.5,1c-.32.09-.64.16-.94.23"/><path class="cls-1" d="M69.59,84.72a25.07,25.07,0,0,1,6.88,5.13"/><path class="cls-3" d="M75.87,74.36a1.52,1.52,0,0,1,1.21.69,4.09,4.09,0,0,1,.62,1.14,9.28,9.28,0,0,1,.38,5.06,4.89,4.89,0,0,1-.51,1.35,2.76,2.76,0,0,1-.58.7,1.87,1.87,0,0,1-1.12.44,1,1,0,0,1,0-2c-.07,0-.08.05,0,0a.67.67,0,0,0,.22-.19,2.7,2.7,0,0,0,.47-.81A7.63,7.63,0,0,0,77,78.66a7.94,7.94,0,0,0-.11-2.23,3.91,3.91,0,0,0-.35-1,1.06,1.06,0,0,0-.69-.6h0a.22.22,0,0,1,0-.44Z"/><path class="cls-1" d="M81.93,43.67c2-.52.9,1.24,2.92.72s1.62-2.1,3.64-2.62,2.43,1,4.46.52,1.62-2.1,3.64-2.62,1.26-.63,3.28-1.15"/><path class="cls-1" d="M81.75,45.32c2.29-.25,2.47,1.37,4.76,1.12s2.12-1.86,4.41-2.11,2.46,1.37,4.75,1.12,2.12-1.86,4.42-2.1,4.3.57,6.6.32"/><path class="cls-1" d="M82.06,46.66c2.67.07,2.62,1.69,5.29,1.76s2.72-1.55,5.38-1.48,2.63,1.7,5.3,1.77,2.72-1.55,5.39-1.48,4.35.69,7,.76"/><path class="cls-1" d="M82,47.71c2.94.4,2.72,2,5.66,2.42s3.16-1.2,6.11-.79,2.71,2,5.65,2.42,3.17-1.2,6.11-.79,5.42,3.09,8.37,3.49"/><path class="cls-2" d="M61.9,66.17c-3.17,2-6.55,4-6.88,3.85a18.76,18.76,0,0,1-3.49-2.54c-.68-.67-6.55-8.36-5.18-13.38S50.61,51,49.8,51.87a4.94,4.94,0,0,0-1.42,1.83,15.49,15.49,0,0,0,0,2.48c-.2.81,6.08,9.43,6.8,8.37a50.68,50.68,0,0,1,5.39-4.72"/><path class="cls-1" d="M81.79,42.53l-.47,3a14.16,14.16,0,0,0-8.54.08l0-.14-.47-2.68h1.66s-.91-3.4,3-4.75a4.2,4.2,0,0,1,3,4.48Z"/><path class="cls-1" d="M80,42.53s1.78-3.66,1.28-6.19-4.86-4.78-4.86-4.78S73.09,34,72.28,36.39s1.5,6.41,1.5,6.41"/><path class="cls-1" d="M56.05,86.58a5.75,5.75,0,0,1,2.65,2.26"/><path class="cls-1" d="M81.84,49.61s.52-1.53,1-.22-1.64,3-1.64,3"/><path class="cls-1" d="M72.38,49.9s-1-1.24-1-.29A2.8,2.8,0,0,0,73,52.12"/><circle class="cls-3" cx="71.03" cy="63.43" r="0.53"/><path class="cls-3" d="M86.09,54a2.76,2.76,0,0,1-1.76,1.17,2.67,2.67,0,0,1-2-.4,2.56,2.56,0,0,1-1.09-1.65,2.47,2.47,0,0,1,.38-1.86.5.5,0,0,1,.7-.13.51.51,0,0,1,.16.65A1.34,1.34,0,0,0,83,53.59a1.16,1.16,0,0,0,1.57-.51.88.88,0,1,1,1.61.69l-.08.14Z"/><path class="cls-3" d="M70.52,52.89a.43.43,0,0,0,.33.27,1,1,0,0,0,.67-.07,1,1,0,0,0,.59-1.17v0a.5.5,0,0,1,.87-.5,1.89,1.89,0,0,1,.21,1.6,2.43,2.43,0,0,1-.94,1.26,2.51,2.51,0,0,1-1.58.45A2.13,2.13,0,0,1,69,53.79l-.13-.19a.89.89,0,0,1,1.49-1A.77.77,0,0,1,70.52,52.89Z"/><circle class="cls-3" cx="75.23" cy="73.15" r="0.53"/><polyline class="cls-2" points="82.09 72.34 76.11 74.58 71.95 74.99"/><path class="cls-2" d="M97.07,126.11c0,2.15-9.23,3.89-20.62,3.89s-20.61-1.74-20.61-3.89"/><path class="cls-2" d="M91,114.94c0,.61-6.37,1.88-14.56,1.88s-14.56-1.27-14.56-1.88"/><path class="cls-2" d="M97.07,126.11s-1-5.78-3.11-7.74A17,17,0,0,1,91,114.94"/><path class="cls-2" d="M55.84,126.11s1-5.78,3.11-7.74a17.06,17.06,0,0,0,2.94-3.43"/><path class="cls-3" d="M81.43,22.85a8,8,0,0,0-.24,2.64,1.24,1.24,0,0,0,.37.78,1.33,1.33,0,0,0,.33.21,4.26,4.26,0,0,0,.49.1,1,1,0,0,0,.76-.15,2.06,2.06,0,0,0,.59-.83,11.73,11.73,0,0,0,.62-2.72.46.46,0,0,1,.9,0v.07a7,7,0,0,1,0,3.19,3.37,3.37,0,0,1-1,1.66,2.59,2.59,0,0,1-2,.58,3.61,3.61,0,0,1-1-.23,2.66,2.66,0,0,1-1.65-2.51,5.61,5.61,0,0,1,1-3.15.45.45,0,0,1,.63-.13.44.44,0,0,1,.2.48Z"/><path class="cls-3" d="M83.6,21.14l-.67,6.45a.86.86,0,0,1-1,.78.88.88,0,0,1-.78-1,.52.52,0,0,1,0-.11L82.7,21a.46.46,0,0,1,.9.15Z"/><path class="cls-3" d="M89.12,24.47A7.72,7.72,0,0,0,88.47,27a1.24,1.24,0,0,0,.24.84c.06.1.19.16.3.25a2.92,2.92,0,0,0,.46.18.94.94,0,0,0,.78,0,2.06,2.06,0,0,0,.71-.73A11.55,11.55,0,0,0,92,25a.46.46,0,0,1,.57-.3.47.47,0,0,1,.32.41v.08a7,7,0,0,1-.53,3.14,3.32,3.32,0,0,1-1.24,1.48A2.59,2.59,0,0,1,89,30a3.69,3.69,0,0,1-.92-.37,3,3,0,0,1-.8-.75,2.81,2.81,0,0,1-.44-2A5.57,5.57,0,0,1,88.37,24a.46.46,0,0,1,.64,0,.47.47,0,0,1,.13.51Z"/><path class="cls-3" d="M91.53,23.12l-1.67,6.27a.87.87,0,0,1-1.68-.45l0-.11,2.45-6a.47.47,0,0,1,.6-.25A.46.46,0,0,1,91.53,23.12Z"/><path class="cls-3" d="M96.46,27.27a7.78,7.78,0,0,0-1,2.43,1.25,1.25,0,0,0,.12.86,1.14,1.14,0,0,0,.25.3,2.67,2.67,0,0,0,.43.25.94.94,0,0,0,.77.09,2,2,0,0,0,.81-.61,11.45,11.45,0,0,0,1.44-2.39.45.45,0,0,1,.86.24v.08a6.87,6.87,0,0,1-1,3,3.29,3.29,0,0,1-1.46,1.27,2.58,2.58,0,0,1-2.11-.07,3.53,3.53,0,0,1-.85-.52,2.88,2.88,0,0,1-.67-.86,2.75,2.75,0,0,1-.12-2,5.55,5.55,0,0,1,2-2.68.45.45,0,0,1,.64.07.47.47,0,0,1,0,.52Z"/><path class="cls-3" d="M99.05,26.32l-2.63,5.92a.88.88,0,0,1-1.15.45.87.87,0,0,1-.44-1.15.31.31,0,0,1,0-.1l3.36-5.55a.46.46,0,0,1,.81.43Z"/><path class="cls-3" d="M103.27,31.18a7.92,7.92,0,0,0-1.41,2.24,1.31,1.31,0,0,0,0,.87,1.21,1.21,0,0,0,.21.33,2.24,2.24,0,0,0,.38.31.91.91,0,0,0,.75.21,2,2,0,0,0,.9-.47,11.31,11.31,0,0,0,1.79-2.14.46.46,0,0,1,.63-.11.45.45,0,0,1,.18.49l0,.07a6.91,6.91,0,0,1-1.48,2.83,3.29,3.29,0,0,1-1.63,1,2.57,2.57,0,0,1-2.08-.4,3.35,3.35,0,0,1-.76-.64,3.15,3.15,0,0,1-.53-.95,2.85,2.85,0,0,1,.2-2,5.67,5.67,0,0,1,2.34-2.34.46.46,0,0,1,.63.17.45.45,0,0,1,0,.52Z"/><path class="cls-3" d="M106,30.65l-3.52,5.44a.88.88,0,1,1-1.47-1l.07-.09,4.18-4.95a.47.47,0,0,1,.65-.05A.46.46,0,0,1,106,30.65Z"/><path class="cls-3" d="M109.38,36.12a7.89,7.89,0,0,0-1.74,2,1.26,1.26,0,0,0-.16.86,1.32,1.32,0,0,0,.15.36,4,4,0,0,0,.33.37,1,1,0,0,0,.71.32,2,2,0,0,0,1-.32,11.87,11.87,0,0,0,2.1-1.84.46.46,0,0,1,.64,0,.43.43,0,0,1,.1.51l0,.07a6.87,6.87,0,0,1-1.9,2.56,3.34,3.34,0,0,1-1.78.76,2.61,2.61,0,0,1-2-.72,3.85,3.85,0,0,1-.64-.76,3,3,0,0,1-.38-1,2.76,2.76,0,0,1,.52-2A5.57,5.57,0,0,1,109,35.31a.46.46,0,0,1,.59.27.44.44,0,0,1-.12.5Z"/><path class="cls-3" d="M112.14,36l-4.32,4.82a.87.87,0,1,1-1.3-1.16.3.3,0,0,1,.08-.08l4.9-4.23a.46.46,0,0,1,.65,0A.47.47,0,0,1,112.14,36Z"/><path class="cls-3" d="M114.65,41.94a7.9,7.9,0,0,0-2,1.69,1.22,1.22,0,0,0-.29.82,1.1,1.1,0,0,0,.09.38,3,3,0,0,0,.27.42.93.93,0,0,0,.65.43,2.09,2.09,0,0,0,1-.17A11.72,11.72,0,0,0,116.7,44a.46.46,0,0,1,.64.09.47.47,0,0,1,0,.53l0,.06A6.92,6.92,0,0,1,115,46.93a3.39,3.39,0,0,1-1.88.47,2.6,2.6,0,0,1-1.85-1,3.84,3.84,0,0,1-.53-.84,2.91,2.91,0,0,1-.2-1.07,2.8,2.8,0,0,1,.82-1.88,5.61,5.61,0,0,1,2.95-1.5.46.46,0,0,1,.34.84Z"/><path class="cls-3" d="M117.39,42.27l-5,4.09A.87.87,0,0,1,111.27,45l.09-.06,5.51-3.42a.46.46,0,0,1,.52.75Z"/><path class="cls-3" d="M118.94,48.52a7.8,7.8,0,0,0-2.27,1.35,1.25,1.25,0,0,0-.41.76,1.38,1.38,0,0,0,0,.4,3.68,3.68,0,0,0,.21.45.94.94,0,0,0,.57.53,2,2,0,0,0,1,0,11.4,11.4,0,0,0,2.57-1.09.45.45,0,0,1,.62.19.44.44,0,0,1-.07.51l0,.06a6.83,6.83,0,0,1-2.6,1.84,3.28,3.28,0,0,1-1.92.18,2.62,2.62,0,0,1-1.67-1.3,3.91,3.91,0,0,1-.39-.92,3.06,3.06,0,0,1,0-1.09,2.82,2.82,0,0,1,1.1-1.73,5.55,5.55,0,0,1,3.15-1,.45.45,0,0,1,.21.87Z"/><path class="cls-3" d="M121.6,49.27,116,52.52a.87.87,0,1,1-.87-1.5l.1-.05,6-2.52a.46.46,0,0,1,.59.25A.45.45,0,0,1,121.6,49.27Z"/><path class="cls-3" d="M122.15,55.69a7.8,7.8,0,0,0-2.45,1,1.24,1.24,0,0,0-.53.69,1.17,1.17,0,0,0,0,.39,3.79,3.79,0,0,0,.14.48.93.93,0,0,0,.48.61,2.19,2.19,0,0,0,1,.15,11.61,11.61,0,0,0,2.71-.69.46.46,0,0,1,.58.29.46.46,0,0,1-.15.5l-.06,0A6.83,6.83,0,0,1,121,60.55a3.42,3.42,0,0,1-1.93-.13,2.6,2.6,0,0,1-1.45-1.55,3.54,3.54,0,0,1-.23-1,3.16,3.16,0,0,1,.13-1.09,2.87,2.87,0,0,1,1.36-1.53,5.59,5.59,0,0,1,3.27-.51.47.47,0,0,1,.41.5.46.46,0,0,1-.34.4Z"/><path class="cls-3" d="M124.66,56.85l-6,2.33a.87.87,0,0,1-1.13-.5.86.86,0,0,1,.5-1.12l.1,0,6.3-1.54a.46.46,0,0,1,.27.87Z"/><path class="cls-3" d="M124.2,63.27a8,8,0,0,0-2.58.59,1.26,1.26,0,0,0-.63.59,1.41,1.41,0,0,0-.09.38,4,4,0,0,0,0,.5,1,1,0,0,0,.39.68,2.13,2.13,0,0,0,1,.3,11.66,11.66,0,0,0,2.78-.25.45.45,0,0,1,.31.84l-.07,0a6.89,6.89,0,0,1-3,1,3.34,3.34,0,0,1-1.88-.43,2.61,2.61,0,0,1-1.19-1.76,3.65,3.65,0,0,1-.08-1,2.87,2.87,0,0,1,.3-1,2.78,2.78,0,0,1,1.58-1.3,5.57,5.57,0,0,1,3.31,0,.46.46,0,0,1,.33.56.47.47,0,0,1-.4.34Z"/><path class="cls-3" d="M126.5,64.81l-6.34,1.36a.87.87,0,0,1-.36-1.71h.11l6.45-.54a.45.45,0,0,1,.5.41A.47.47,0,0,1,126.5,64.81Z"/><path class="cls-3" d="M125,71.08a7.74,7.74,0,0,0-2.64.18,1.17,1.17,0,0,0-.71.49,1.5,1.5,0,0,0-.16.36,2.72,2.72,0,0,0,0,.49.91.91,0,0,0,.27.73,1.94,1.94,0,0,0,.91.45,11,11,0,0,0,2.78.19.46.46,0,0,1,.46.45.42.42,0,0,1-.29.43l-.07,0a7,7,0,0,1-3.15.46,3.22,3.22,0,0,1-1.79-.72,2.57,2.57,0,0,1-.9-1.92,4.13,4.13,0,0,1,.07-1,2.93,2.93,0,0,1,.46-1,2.82,2.82,0,0,1,1.77-1,5.58,5.58,0,0,1,3.27.52.46.46,0,0,1,.23.61.47.47,0,0,1-.44.27Z"/><path class="cls-3" d="M127.07,73l-6.47.35a.87.87,0,1,1-.1-1.74h.11l6.47.48a.45.45,0,0,1,.42.49A.46.46,0,0,1,127.07,73Z"/><path class="cls-3" d="M124.65,78.93a8,8,0,0,0-2.64-.24,1.24,1.24,0,0,0-.78.37,1.17,1.17,0,0,0-.21.33,4.26,4.26,0,0,0-.1.49,1,1,0,0,0,.15.76,2.06,2.06,0,0,0,.83.59,11.73,11.73,0,0,0,2.72.62.46.46,0,0,1,.39.51.47.47,0,0,1-.36.39h-.07a7,7,0,0,1-3.19,0,3.37,3.37,0,0,1-1.66-1,2.59,2.59,0,0,1-.58-2,4,4,0,0,1,.22-1,3.18,3.18,0,0,1,.61-.9,2.83,2.83,0,0,1,1.91-.75,5.61,5.61,0,0,1,3.15,1,.45.45,0,0,1,.13.63.44.44,0,0,1-.48.2Z"/><path class="cls-3" d="M126.35,81.1l-6.44-.67a.87.87,0,0,1-.78-1,.88.88,0,0,1,1-.78l.11,0,6.31,1.48a.47.47,0,0,1,.34.55A.48.48,0,0,1,126.35,81.1Z"/><path class="cls-3" d="M123,86.62a7.75,7.75,0,0,0-2.56-.66,1.29,1.29,0,0,0-.84.25c-.1.06-.16.19-.25.3a2.92,2.92,0,0,0-.18.46.94.94,0,0,0,0,.78,2.06,2.06,0,0,0,.73.71,11.36,11.36,0,0,0,2.59,1,.46.46,0,0,1,.3.57.47.47,0,0,1-.41.32h-.08a7,7,0,0,1-3.14-.53,3.39,3.39,0,0,1-1.48-1.24,2.59,2.59,0,0,1-.26-2.1,3.69,3.69,0,0,1,.37-.92,3,3,0,0,1,.75-.8,2.81,2.81,0,0,1,2-.44,5.5,5.5,0,0,1,2.94,1.51.45.45,0,0,1-.47.76Z"/><path class="cls-3" d="M124.38,89l-6.27-1.67a.87.87,0,1,1,.45-1.68l.11,0,6,2.45a.46.46,0,0,1-.29.87Z"/><path class="cls-3" d="M120.23,94a7.78,7.78,0,0,0-2.43-1,1.25,1.25,0,0,0-.86.12,1.14,1.14,0,0,0-.3.25,2.67,2.67,0,0,0-.25.43.94.94,0,0,0-.09.77,2,2,0,0,0,.61.81,11.62,11.62,0,0,0,2.39,1.44.45.45,0,0,1-.24.86H119a6.87,6.87,0,0,1-3-1,3.29,3.29,0,0,1-1.27-1.46,2.58,2.58,0,0,1,.07-2.11,3.34,3.34,0,0,1,.52-.85,2.88,2.88,0,0,1,.86-.67,2.75,2.75,0,0,1,2-.12,5.55,5.55,0,0,1,2.68,2,.46.46,0,0,1-.07.64.47.47,0,0,1-.52,0Z"/><path class="cls-3" d="M121.18,96.55l-5.92-2.63a.88.88,0,0,1-.45-1.15.87.87,0,0,1,1.15-.44l.1,0,5.55,3.36a.46.46,0,0,1,.15.63A.47.47,0,0,1,121.18,96.55Z"/><path class="cls-3" d="M116.31,100.77a7.74,7.74,0,0,0-2.23-1.41,1.25,1.25,0,0,0-.87,0,1.46,1.46,0,0,0-.33.2,2.79,2.79,0,0,0-.31.39.91.91,0,0,0-.21.75,2,2,0,0,0,.46.9,12.14,12.14,0,0,0,2.15,1.79.46.46,0,0,1,.11.63.45.45,0,0,1-.49.18l-.07,0a6.91,6.91,0,0,1-2.83-1.48,3.28,3.28,0,0,1-1-1.64,2.55,2.55,0,0,1,.4-2.07,3.35,3.35,0,0,1,.64-.76,3.15,3.15,0,0,1,1-.53,2.8,2.8,0,0,1,2,.2,5.67,5.67,0,0,1,2.34,2.34.46.46,0,0,1-.69.59Z"/><path class="cls-3" d="M116.85,103.48,111.41,100a.88.88,0,0,1,1-1.47l.09.07,5,4.18a.47.47,0,0,1,0,.65A.47.47,0,0,1,116.85,103.48Z"/><path class="cls-3" d="M111.38,106.88a7.89,7.89,0,0,0-2-1.74,1.26,1.26,0,0,0-.86-.16,1.32,1.32,0,0,0-.36.15,4,4,0,0,0-.37.33,1,1,0,0,0-.32.71,2,2,0,0,0,.32,1,11.47,11.47,0,0,0,1.84,2.1.46.46,0,0,1,0,.64.45.45,0,0,1-.51.1l-.07,0a6.87,6.87,0,0,1-2.56-1.9,3.38,3.38,0,0,1-.76-1.78,2.61,2.61,0,0,1,.72-2,4,4,0,0,1,.76-.65,3.11,3.11,0,0,1,1-.37,2.77,2.77,0,0,1,2,.52,5.55,5.55,0,0,1,1.94,2.68.45.45,0,0,1-.76.47Z"/><path class="cls-3" d="M111.49,109.64l-4.82-4.33a.87.87,0,1,1,1.16-1.29.3.3,0,0,1,.08.08l4.23,4.9a.46.46,0,0,1,0,.65A.47.47,0,0,1,111.49,109.64Z"/><path class="cls-3" d="M105.56,112.15a7.9,7.9,0,0,0-1.69-2,1.22,1.22,0,0,0-.82-.29,1.1,1.1,0,0,0-.38.09,3,3,0,0,0-.42.27.93.93,0,0,0-.43.65,2,2,0,0,0,.17,1,11.5,11.5,0,0,0,1.49,2.37.45.45,0,0,1-.1.64.47.47,0,0,1-.52,0l-.06,0a6.86,6.86,0,0,1-2.23-2.28,3.33,3.33,0,0,1-.47-1.87,2.6,2.6,0,0,1,1-1.85,3.84,3.84,0,0,1,.84-.53,2.91,2.91,0,0,1,1.07-.2,2.8,2.8,0,0,1,1.88.82,5.61,5.61,0,0,1,1.5,2.95.46.46,0,0,1-.36.54.45.45,0,0,1-.48-.2Z"/><path class="cls-3" d="M105.23,114.89l-4.09-5a.87.87,0,0,1,1.36-1.1l.06.1,3.41,5.5a.46.46,0,0,1-.74.53Z"/><path class="cls-3" d="M99,116.44a7.67,7.67,0,0,0-1.35-2.27,1.27,1.27,0,0,0-.77-.41,1.33,1.33,0,0,0-.39,0A3.1,3.1,0,0,0,96,114a.92.92,0,0,0-.53.57,2.15,2.15,0,0,0,0,1,12,12,0,0,0,1.1,2.57.45.45,0,0,1-.19.61.44.44,0,0,1-.51-.06l-.06,0A7,7,0,0,1,94,116a3.37,3.37,0,0,1-.17-1.92,2.62,2.62,0,0,1,1.3-1.67,3.91,3.91,0,0,1,.92-.39,3.3,3.3,0,0,1,1.09,0,2.82,2.82,0,0,1,1.72,1.11,5.49,5.49,0,0,1,1,3.15.45.45,0,0,1-.87.21Z"/><path class="cls-3" d="M98.23,119.1,95,113.49a.87.87,0,1,1,1.5-.87l0,.1,2.51,6a.46.46,0,0,1-.24.6A.45.45,0,0,1,98.23,119.1Z"/><path class="cls-3" d="M53.54,117.73a7.78,7.78,0,0,0,1.05-2.43,1.25,1.25,0,0,0-.12-.86,1.14,1.14,0,0,0-.25-.3,2.67,2.67,0,0,0-.43-.25.94.94,0,0,0-.77-.09,1.92,1.92,0,0,0-.81.61,11.2,11.2,0,0,0-1.44,2.39.45.45,0,0,1-.61.21.47.47,0,0,1-.25-.46v-.07a6.87,6.87,0,0,1,1-3,3.29,3.29,0,0,1,1.46-1.27,2.58,2.58,0,0,1,2.11.07,3.53,3.53,0,0,1,.85.52,2.88,2.88,0,0,1,.67.86,2.75,2.75,0,0,1,.12,2,5.48,5.48,0,0,1-1.95,2.67.46.46,0,0,1-.64-.06.47.47,0,0,1,0-.52Z"/><path class="cls-3" d="M51,118.68l2.63-5.92a.88.88,0,0,1,1.15-.45.87.87,0,0,1,.44,1.15.31.31,0,0,1-.05.1l-3.36,5.54a.46.46,0,0,1-.81-.42Z"/><path class="cls-3" d="M46.73,113.81a7.74,7.74,0,0,0,1.41-2.23,1.31,1.31,0,0,0,0-.87,1.43,1.43,0,0,0-.21-.34,2.79,2.79,0,0,0-.38-.3,1,1,0,0,0-.75-.22,2.17,2.17,0,0,0-.9.47,11.72,11.72,0,0,0-1.79,2.15.45.45,0,0,1-.81-.38l0-.07a6.91,6.91,0,0,1,1.48-2.83,3.38,3.38,0,0,1,1.63-1,2.61,2.61,0,0,1,2.08.41,2.89,2.89,0,0,1,1.29,1.59,2.85,2.85,0,0,1-.2,2,5.67,5.67,0,0,1-2.34,2.34.47.47,0,0,1-.63-.17.45.45,0,0,1,0-.52Z"/><path class="cls-3" d="M44,114.35l3.52-5.44a.88.88,0,0,1,1.47,1l-.07.09-4.18,5a.47.47,0,0,1-.65,0A.46.46,0,0,1,44,114.35Z"/><path class="cls-3" d="M40.62,108.88a7.89,7.89,0,0,0,1.74-2,1.26,1.26,0,0,0,.16-.86,1.32,1.32,0,0,0-.15-.36,4,4,0,0,0-.33-.37.92.92,0,0,0-.71-.32,2,2,0,0,0-1,.32,11.47,11.47,0,0,0-2.1,1.84.46.46,0,0,1-.64,0,.43.43,0,0,1-.1-.51l0-.07a6.79,6.79,0,0,1,1.9-2.56,3.34,3.34,0,0,1,1.78-.76,2.61,2.61,0,0,1,2,.72,3.59,3.59,0,0,1,.64.76,2.84,2.84,0,0,1,.38,1,2.77,2.77,0,0,1-.52,2,5.55,5.55,0,0,1-2.68,1.94.45.45,0,0,1-.59-.26.44.44,0,0,1,.12-.5Z"/><path class="cls-3" d="M37.86,109l4.32-4.82a.87.87,0,1,1,1.3,1.16.6.6,0,0,1-.08.08l-4.9,4.23a.45.45,0,0,1-.65,0A.46.46,0,0,1,37.86,109Z"/><path class="cls-3" d="M35.35,103.06a7.9,7.9,0,0,0,2-1.69,1.22,1.22,0,0,0,.29-.82,1.1,1.1,0,0,0-.09-.38,3,3,0,0,0-.27-.42.93.93,0,0,0-.65-.43,2,2,0,0,0-1,.17A11.64,11.64,0,0,0,33.3,101a.44.44,0,0,1-.64-.09.45.45,0,0,1,0-.52l0-.06A6.92,6.92,0,0,1,35,98.07a3.39,3.39,0,0,1,1.88-.47,2.59,2.59,0,0,1,1.85,1,4.17,4.17,0,0,1,.53.85,2.91,2.91,0,0,1,.2,1.07,2.8,2.8,0,0,1-.82,1.88,5.61,5.61,0,0,1-3,1.5.46.46,0,0,1-.54-.36.45.45,0,0,1,.2-.48Z"/><path class="cls-3" d="M32.61,102.73l5-4.09a.87.87,0,0,1,1.22.13.86.86,0,0,1-.13,1.22.31.31,0,0,1-.09.07l-5.51,3.41a.44.44,0,0,1-.62-.14A.45.45,0,0,1,32.61,102.73Z"/><path class="cls-3" d="M31.06,96.48a8.27,8.27,0,0,0,2.27-1.35,1.27,1.27,0,0,0,.41-.77,1.33,1.33,0,0,0,0-.39,3.1,3.1,0,0,0-.21-.45.94.94,0,0,0-.57-.53,2.15,2.15,0,0,0-1,0,12,12,0,0,0-2.57,1.1.46.46,0,0,1-.62-.19.45.45,0,0,1,.07-.52l.05,0a7,7,0,0,1,2.6-1.85,3.37,3.37,0,0,1,1.92-.17,2.62,2.62,0,0,1,1.67,1.3,3.91,3.91,0,0,1,.39.92,3.05,3.05,0,0,1,0,1.09,2.77,2.77,0,0,1-1.1,1.72,5.49,5.49,0,0,1-3.15,1A.45.45,0,0,1,31,96.5Z"/><path class="cls-3" d="M28.4,95.73,34,92.48a.87.87,0,1,1,.87,1.5l-.1,0-6,2.51a.44.44,0,0,1-.59-.24A.45.45,0,0,1,28.4,95.73Z"/><path class="cls-3" d="M27.85,89.31a7.8,7.8,0,0,0,2.45-1,1.24,1.24,0,0,0,.53-.69,1.2,1.2,0,0,0,0-.39,3.79,3.79,0,0,0-.14-.48.93.93,0,0,0-.48-.61,2.07,2.07,0,0,0-1-.15,11.61,11.61,0,0,0-2.71.69.46.46,0,0,1-.58-.29.46.46,0,0,1,.15-.5l.06,0A6.94,6.94,0,0,1,29,84.45a3.33,3.33,0,0,1,1.93.13,2.6,2.6,0,0,1,1.45,1.55,3.54,3.54,0,0,1,.23,1,3.08,3.08,0,0,1-.13,1.08,2.8,2.8,0,0,1-1.36,1.53,5.6,5.6,0,0,1-3.27.52.47.47,0,0,1-.41-.5.46.46,0,0,1,.34-.4Z"/><path class="cls-3" d="M25.34,88.15l6-2.33A.87.87,0,1,1,32,87.44l-.1,0L25.61,89a.46.46,0,0,1-.27-.87Z"/><path class="cls-3" d="M25.8,81.72a7.7,7.7,0,0,0,2.58-.58,1.27,1.27,0,0,0,.63-.6,1.25,1.25,0,0,0,.09-.38,4.07,4.07,0,0,0-.05-.49,1,1,0,0,0-.39-.68,1.91,1.91,0,0,0-1-.3,11.66,11.66,0,0,0-2.78.25.45.45,0,0,1-.31-.84l.07,0a6.89,6.89,0,0,1,3-1,3.25,3.25,0,0,1,1.88.43,2.59,2.59,0,0,1,1.19,1.75,3.68,3.68,0,0,1,.08,1,2.86,2.86,0,0,1-.3,1A2.78,2.78,0,0,1,29,82.63a5.57,5.57,0,0,1-3.31,0,.46.46,0,0,1-.33-.56.47.47,0,0,1,.4-.34Z"/><path class="cls-3" d="M23.5,80.19l6.34-1.36a.87.87,0,1,1,.36,1.7l-.11,0-6.45.54a.45.45,0,0,1-.5-.41A.46.46,0,0,1,23.5,80.19Z"/><path class="cls-3" d="M25,73.91a7.75,7.75,0,0,0,2.64-.17,1.17,1.17,0,0,0,.71-.49,1.5,1.5,0,0,0,.16-.36,2.72,2.72,0,0,0,0-.49,1,1,0,0,0-.27-.74,2.14,2.14,0,0,0-.91-.45A11.57,11.57,0,0,0,24.53,71a.46.46,0,0,1-.46-.45.42.42,0,0,1,.29-.43l.07,0a6.82,6.82,0,0,1,3.15-.46,3.22,3.22,0,0,1,1.79.72,2.56,2.56,0,0,1,.9,1.91,4.06,4.06,0,0,1-.07,1,2.88,2.88,0,0,1-.46,1,2.82,2.82,0,0,1-1.77,1,5.58,5.58,0,0,1-3.27-.52.47.47,0,0,1-.23-.61.45.45,0,0,1,.44-.27Z"/><path class="cls-3" d="M22.93,72l6.47-.35a.87.87,0,1,1,.1,1.74h-.11L22.92,73a.46.46,0,0,1,0-.91Z"/><path class="cls-3" d="M25.35,66.07a8,8,0,0,0,2.64.24,1.24,1.24,0,0,0,.78-.37,1.55,1.55,0,0,0,.21-.33,4.74,4.74,0,0,0,.1-.49,1,1,0,0,0-.15-.76,2.06,2.06,0,0,0-.83-.59,11.73,11.73,0,0,0-2.72-.62.46.46,0,0,1,0-.9h.07a7,7,0,0,1,3.19,0,3.37,3.37,0,0,1,1.66,1,2.59,2.59,0,0,1,.58,2,4,4,0,0,1-.22,1,3.18,3.18,0,0,1-.61.9,2.88,2.88,0,0,1-1.91.75,5.61,5.61,0,0,1-3.15-1,.45.45,0,0,1-.13-.63.44.44,0,0,1,.48-.2Z"/><path class="cls-3" d="M23.65,63.9l6.44.66a.87.87,0,1,1-.18,1.74l-.11,0L23.49,64.8a.46.46,0,0,1,.16-.9Z"/><path class="cls-3" d="M27,58.38a7.72,7.72,0,0,0,2.56.65,1.24,1.24,0,0,0,.84-.24c.1-.06.16-.19.25-.3A2.92,2.92,0,0,0,30.8,58a.94.94,0,0,0,0-.78,2,2,0,0,0-.73-.71,11.36,11.36,0,0,0-2.59-1,.46.46,0,0,1-.3-.57.47.47,0,0,1,.41-.32h.08a6.87,6.87,0,0,1,3.14.53,3.26,3.26,0,0,1,1.48,1.24,2.59,2.59,0,0,1,.26,2.1,3.69,3.69,0,0,1-.37.92,3,3,0,0,1-.75.8,2.81,2.81,0,0,1-2,.44,5.57,5.57,0,0,1-2.94-1.51.46.46,0,0,1,0-.65.48.48,0,0,1,.51-.12Z"/><path class="cls-3" d="M25.62,56l6.27,1.67a.87.87,0,1,1-.45,1.68l-.11,0-6-2.45a.47.47,0,0,1-.25-.6A.46.46,0,0,1,25.62,56Z"/><path class="cls-3" d="M29.77,51a7.78,7.78,0,0,0,2.43,1.05,1.25,1.25,0,0,0,.86-.12,1.14,1.14,0,0,0,.3-.25,2.67,2.67,0,0,0,.25-.43.94.94,0,0,0,.09-.77,2.09,2.09,0,0,0-.61-.82,11.19,11.19,0,0,0-2.39-1.43.45.45,0,0,1,.24-.86H31a6.87,6.87,0,0,1,3,1,3.32,3.32,0,0,1,1.27,1.45A2.6,2.6,0,0,1,35.24,52a3.73,3.73,0,0,1-.52.85,2.88,2.88,0,0,1-.86.67,2.75,2.75,0,0,1-2,.12,5.55,5.55,0,0,1-2.68-1.95.46.46,0,0,1,.07-.64.47.47,0,0,1,.52,0Z"/><path class="cls-3" d="M28.82,48.45l5.92,2.63a.87.87,0,1,1-.7,1.59l-.1-.05-5.55-3.36a.46.46,0,0,1,.43-.81Z"/><path class="cls-3" d="M33.69,44.23a7.74,7.74,0,0,0,2.23,1.41,1.31,1.31,0,0,0,.87,0,1.21,1.21,0,0,0,.33-.21,2.24,2.24,0,0,0,.31-.38.91.91,0,0,0,.21-.75,2,2,0,0,0-.46-.9A11.34,11.34,0,0,0,35,41.64a.46.46,0,0,1-.11-.63.45.45,0,0,1,.49-.18l.07,0a6.91,6.91,0,0,1,2.83,1.48,3.29,3.29,0,0,1,1,1.63,2.57,2.57,0,0,1-.4,2.08,3.35,3.35,0,0,1-.64.76,3.15,3.15,0,0,1-.95.53,2.85,2.85,0,0,1-2-.2A5.67,5.67,0,0,1,33,44.79a.47.47,0,0,1,.17-.63.45.45,0,0,1,.52,0Z"/><path class="cls-3" d="M33.15,41.52,38.59,45a.88.88,0,1,1-1,1.47l-.09-.07L32.6,42.25a.46.46,0,0,1-.05-.64A.46.46,0,0,1,33.15,41.52Z"/><path class="cls-3" d="M38.62,38.12a7.89,7.89,0,0,0,2,1.74,1.26,1.26,0,0,0,.86.16,1.32,1.32,0,0,0,.36-.15,4,4,0,0,0,.37-.33,1,1,0,0,0,.32-.71,2,2,0,0,0-.32-1,11.47,11.47,0,0,0-1.84-2.1.47.47,0,0,1,0-.65.44.44,0,0,1,.51-.09l.07,0A6.87,6.87,0,0,1,43.48,37a3.34,3.34,0,0,1,.76,1.78,2.62,2.62,0,0,1-.72,2,3.59,3.59,0,0,1-.76.64,2.91,2.91,0,0,1-1,.38,2.82,2.82,0,0,1-2-.52,5.55,5.55,0,0,1-1.94-2.68.45.45,0,0,1,.76-.47Z"/><path class="cls-3" d="M38.51,35.36l4.82,4.32A.87.87,0,1,1,42.17,41a.3.3,0,0,1-.08-.08L37.86,36a.46.46,0,0,1,0-.65A.47.47,0,0,1,38.51,35.36Z"/><path class="cls-3" d="M44.44,32.85a7.9,7.9,0,0,0,1.69,2,1.22,1.22,0,0,0,.82.29,1.1,1.1,0,0,0,.38-.09,3,3,0,0,0,.42-.27.93.93,0,0,0,.43-.65,2.09,2.09,0,0,0-.17-1,11.72,11.72,0,0,0-1.49-2.36.46.46,0,0,1,.62-.66l.06.05a6.92,6.92,0,0,1,2.23,2.27,3.39,3.39,0,0,1,.47,1.88,2.6,2.6,0,0,1-1,1.85,3.47,3.47,0,0,1-.84.52,2.72,2.72,0,0,1-1.07.21,2.8,2.8,0,0,1-1.88-.82,5.61,5.61,0,0,1-1.5-3,.46.46,0,0,1,.36-.54.45.45,0,0,1,.48.2Z"/><path class="cls-3" d="M44.77,30.11l4.09,5a.87.87,0,1,1-1.36,1.1.7.7,0,0,1-.06-.09L44,30.63a.44.44,0,0,1,.14-.62A.45.45,0,0,1,44.77,30.11Z"/><path class="cls-3" d="M51,28.56a7.8,7.8,0,0,0,1.35,2.27,1.27,1.27,0,0,0,.77.41,1.33,1.33,0,0,0,.39,0A3.1,3.1,0,0,0,54,31a.94.94,0,0,0,.53-.57,2.15,2.15,0,0,0,0-1,12,12,0,0,0-1.1-2.57.46.46,0,0,1,.19-.62.44.44,0,0,1,.51.07l.06.05A7,7,0,0,1,56,29a3.37,3.37,0,0,1,.17,1.92,2.62,2.62,0,0,1-1.3,1.67,3.91,3.91,0,0,1-.92.39,3.05,3.05,0,0,1-1.09,0,2.77,2.77,0,0,1-1.72-1.1,5.49,5.49,0,0,1-1-3.15.45.45,0,0,1,.87-.21Z"/><path class="cls-3" d="M51.77,25.9,55,31.5a.89.89,0,0,1-.31,1.2.87.87,0,0,1-1.19-.32.47.47,0,0,1-.05-.1L51,26.3a.44.44,0,0,1,.24-.59A.45.45,0,0,1,51.77,25.9Z"/><path class="cls-3" d="M58.19,25.35a7.8,7.8,0,0,0,1,2.45,1.29,1.29,0,0,0,.69.53,1.21,1.21,0,0,0,.39,0,2.62,2.62,0,0,0,.48-.13.93.93,0,0,0,.61-.48,2.07,2.07,0,0,0,.15-1A11.49,11.49,0,0,0,60.8,24a.46.46,0,0,1,.29-.58.46.46,0,0,1,.5.15l0,.06a6.94,6.94,0,0,1,1.41,2.85,3.33,3.33,0,0,1-.13,1.93,2.6,2.6,0,0,1-1.55,1.45,3.54,3.54,0,0,1-1,.23A3.08,3.08,0,0,1,59.33,30a2.86,2.86,0,0,1-1.54-1.36,5.67,5.67,0,0,1-.51-3.27.46.46,0,0,1,.9-.07Z"/><path class="cls-3" d="M59.35,22.84l2.33,6a.87.87,0,1,1-1.62.63.42.42,0,0,1,0-.1l-1.54-6.3a.46.46,0,0,1,.87-.27Z"/><path class="cls-3" d="M65.77,23.3a8,8,0,0,0,.59,2.58,1.23,1.23,0,0,0,.59.62,1.12,1.12,0,0,0,.39.1,4.07,4.07,0,0,0,.49-.05,1,1,0,0,0,.68-.39,2,2,0,0,0,.3-1,11.66,11.66,0,0,0-.25-2.78.45.45,0,0,1,.84-.31l0,.07a6.89,6.89,0,0,1,1,3A3.35,3.35,0,0,1,70,27.1a2.62,2.62,0,0,1-1.75,1.19,3.71,3.71,0,0,1-1,.08,3.07,3.07,0,0,1-1-.3,2.78,2.78,0,0,1-1.3-1.58,5.57,5.57,0,0,1,0-3.31.46.46,0,0,1,.56-.33.46.46,0,0,1,.34.4Z"/><path class="cls-3" d="M67.31,21l1.36,6.34a.87.87,0,1,1-1.7.36.36.36,0,0,1,0-.11l-.54-6.46a.45.45,0,0,1,.41-.49A.46.46,0,0,1,67.31,21Z"/><path class="cls-3" d="M73.59,22.46a7.51,7.51,0,0,0,.17,2.64,1.17,1.17,0,0,0,.49.71,1.5,1.5,0,0,0,.36.16,2.72,2.72,0,0,0,.49,0,.91.91,0,0,0,.73-.27,2,2,0,0,0,.46-.91A11.57,11.57,0,0,0,76.47,22a.47.47,0,0,1,.45-.47.44.44,0,0,1,.43.3l0,.07a6.82,6.82,0,0,1,.46,3.15,3.22,3.22,0,0,1-.72,1.79,2.57,2.57,0,0,1-1.92.9,4.13,4.13,0,0,1-1-.07,2.7,2.7,0,0,1-2-2.23,5.58,5.58,0,0,1,.52-3.27.46.46,0,0,1,.88.21Z"/><path class="cls-3" d="M75.46,20.43l.35,6.47a.87.87,0,0,1-1.74.1v-.11l.48-6.47a.46.46,0,0,1,.91,0Z"/><circle class="cls-4" cx="75" cy="72.5" r="43.09"/><path class="cls-2" d="M94.92,119.32c-2.92,2.49-26.5,4.85-36.34-.67"/><ellipse class="cls-3" cx="59.88" cy="124.51" rx="1.33" ry="0.96" transform="translate(-78.26 127) rotate(-65.35)"/><ellipse class="cls-3" cx="62.84" cy="125.19" rx="1.33" ry="0.96" transform="translate(-76.76 136.72) rotate(-68.07)"/><ellipse class="cls-3" cx="65.84" cy="125.73" rx="1.33" ry="0.96" transform="translate(-74.57 146.4) rotate(-70.74)"/><ellipse class="cls-3" cx="68.87" cy="126.13" rx="1.33" ry="0.96" transform="translate(-71.7 155.99) rotate(-73.36)"/><ellipse class="cls-3" cx="71.92" cy="126.39" rx="1.33" ry="0.96" transform="translate(-68.16 165.43) rotate(-75.93)"/><ellipse class="cls-3" cx="75" cy="126.52" rx="1.33" ry="0.96" transform="translate(-63.97 174.67) rotate(-78.45)"/><ellipse class="cls-3" cx="78.1" cy="126.51" rx="1.33" ry="0.96" transform="translate(-59.15 183.67) rotate(-80.92)"/><ellipse class="cls-3" cx="81.21" cy="126.38" rx="1.33" ry="0.96" transform="translate(-53.72 192.39) rotate(-83.34)"/><ellipse class="cls-3" cx="84.34" cy="126.11" rx="1.33" ry="0.96" transform="translate(-47.71 200.79) rotate(-85.72)"/><ellipse class="cls-3" cx="87.47" cy="125.7" rx="1.33" ry="0.96" transform="translate(-41.14 208.85) rotate(-88.05)"/><ellipse class="cls-3" cx="90.61" cy="125.17" rx="0.96" ry="1.33" transform="translate(-0.73 0.53) rotate(-0.33)"/><ellipse class="cls-3" cx="93.75" cy="124.51" rx="0.96" ry="1.33" transform="matrix(1, -0.05, 0.05, 1, -5.51, 4.35)"/><line class="cls-1" x1="74.55" y1="39.69" x2="73.02" y2="34.99"/><line class="cls-1" x1="79.23" y1="39.69" x2="80.4" y2="34.66"/><line class="cls-1" x1="76.93" y1="38.05" x2="76.43" y2="31.56"/></svg>