<svg id="Graphics" xmlns="http://www.w3.org/2000/svg" viewBox="0 0 150 150"><defs><style>.cls-1{fill:#231f20;}.cls-2,.cls-3{fill:none;stroke:#231f20;stroke-linecap:round;stroke-linejoin:round;}.cls-3{stroke-width:2px;}</style></defs><path class="cls-1" d="M105.53,54.51a7.67,7.67,0,0,0,.23,2.39.93.93,0,0,0,.4.55c.06.06.17.07.27.11a2.82,2.82,0,0,0,.41,0,.68.68,0,0,0,.55-.19,1.77,1.77,0,0,0,.39-.75,11.27,11.27,0,0,0,.24-2.55.53.53,0,0,1,1-.2l0,.08a6.19,6.19,0,0,1,.5,3,3.26,3.26,0,0,1-.7,1.77,2.58,2.58,0,0,1-1.92.9,3.24,3.24,0,0,1-1-.07,3.07,3.07,0,0,1-1-.46,2.79,2.79,0,0,1-1-1.76,5.12,5.12,0,0,1,.56-3.12.53.53,0,0,1,1,.23Z"/><path class="cls-1" d="M107.28,52.59l.42,6a1,1,0,1,1-2,.13.76.76,0,0,1,0-.15l.53-6a.53.53,0,0,1,.57-.48A.53.53,0,0,1,107.28,52.59Z"/><path class="cls-2" d="M77.88,107.39a12.53,12.53,0,0,1-2.5,1c-.32.09-.64.16-.94.23"/><path class="cls-2" d="M72.43,43.67c-2-.52-1.92,1.09-3.94.57s-.95-1.54-3-2.07-2.43,1-4.46.52-1.62-2.1-3.64-2.62-6.34-1-8.37-1.55"/><path class="cls-2" d="M72.26,45.72c-2.29-.24-2.47,1.37-4.76,1.12s-2.11-1.86-4.4-2.1-2.47,1.36-4.76,1.12S56.22,44,53.92,43.75s-7.67.22-10,0"/><path class="cls-2" d="M72,47.06c-2.67.07-2.62,1.69-5.29,1.77s-2.72-1.55-5.38-1.48S58.65,49,56,49.11s-2.72-1.55-5.39-1.48-7,.29-9.71.36"/><path class="cls-2" d="M72.06,48.11c-2.94.41-2.72,2-5.66,2.42s-3.16-1.2-6.1-.79-2.72,2-5.66,2.42-3.17-1.2-6.11-.79-9.33,2-12.27,2.38"/><path class="cls-3" d="M82.55,64s-2.23,5.52-2,6.08a26.74,26.74,0,0,0,1.67,2.43c.41.66,6.09,7.35.56,9.84s-13.18-1.83-14.19-1.78-2,2.49-3.06,3.69-3.08,2.14-4.6,3-3.85,2.49-3.9,3.35.1,1.94-.66,2.64-1.62-.87-2.53-1-2.34.61-4.62.61a2.94,2.94,0,0,1-2.84-3c.06-.71,1.32-.51,1.63-.51,0,0,4.2.41,6.54-1.32S59.13,82,60,81.12s4.21-3.24,4.51-4,1.27-2.47,2.69-2.52S70,75.29,72,75c0,0,.14-3.14-.87-4.13l-1-1"/><path class="cls-3" d="M79.51,83.09c-.21.85-2.18,5.18-2.74,6.29s-4.11,4.41-4.41,5.73,2.08,4.36,2.71,5.17,2,5.17,2.41,6.19a10.61,10.61,0,0,0,2.33,3.7c1.37,1.42.91,2.89.26,2.94l-6,.5c-.81,0-3.07,0-4,0-1.37,0-1-1.62,3.5-2.43,0,0,1.36-.45,1.44-1.16s-1.14-2.13-1.9-2.79a38.06,38.06,0,0,1-3.73-4.77c-.88-1.32-3.72-5.47-3.37-6.74s2.39-8.11,2.59-9.12,3-5,3-5"/><path class="cls-1" d="M80.35,54a10,10,0,0,1,4.38,1.65,4,4,0,0,1,1,1,5,5,0,0,1,.52,1.22,4.77,4.77,0,0,1,.07,2.6,9.56,9.56,0,0,1-2.6,3.83A15.18,15.18,0,0,1,80.12,67a32.64,32.64,0,0,1-3.89,1.92c-.66.27-1.31.53-2,.78s-1.41.43-2.11.6c-2.77.67-5.52,1.18-8.3,1.66l.8-.76a10.94,10.94,0,0,1-.78,2.05c-.3.63-.63,1.23-1,1.82s-.73,1.17-1.15,1.74a8.73,8.73,0,0,1-.68.85,4.74,4.74,0,0,1-.45.44,2,2,0,0,1-.36.25.94.94,0,0,1-.29.14,1.54,1.54,0,0,1-.52.06h0l.47,0a1.78,1.78,0,0,1-.55.09,1.82,1.82,0,0,1-.51-.09,1.74,1.74,0,0,1-.82-.59,2.64,2.64,0,0,1-.44-1.29,7.42,7.42,0,0,1,.13-2,25,25,0,0,1,1-3.45,5.21,5.21,0,0,1,2.44-3,5.79,5.79,0,0,1,.93-.4l.8-.25,1.62-.57q3.26-1.17,6.49-2.4c2.13-.82,4.35-1.62,6.39-2.53l0,0a.19.19,0,0,1,.25.1.18.18,0,0,1-.08.24c-2.11,1.1-4.2,2-6.31,2.94S67,67.13,64.83,68l-1.61.67-.83.32a3.48,3.48,0,0,0-.64.32,3.79,3.79,0,0,0-1.63,2.33,22.69,22.69,0,0,0-.71,3.24,5.65,5.65,0,0,0,0,1.47.64.64,0,0,0,.11.33.31.31,0,0,0-.13-.09l-.09,0s0,0-.12,0l.47,0h0a.54.54,0,0,0-.28,0l-.07,0s0,0,0,0a3.28,3.28,0,0,0,.25-.26,8.32,8.32,0,0,0,.55-.69c.37-.49.71-1,1-1.57s.63-1.1.9-1.66a9.59,9.59,0,0,0,.64-1.65h0a1,1,0,0,1,.81-.74c2.73-.48,5.49-1,8.15-1.63.67-.17,1.33-.34,1.93-.55s1.28-.48,1.9-.74a30.86,30.86,0,0,0,3.65-1.79,13.31,13.31,0,0,0,3.08-2.36,8,8,0,0,0,2.15-3,2.9,2.9,0,0,0-.06-1.54,2,2,0,0,0-.77-1.21A8.29,8.29,0,0,0,80.09,56H80a1,1,0,0,1,.31-2Z"/><path class="cls-3" d="M61.9,66.17a.55.55,0,0,1-.14-.12c-1.09-1-1.88-3.94-1.4-5.62q.11-.34.21-.6a1.92,1.92,0,0,1,1.19-1.31c.05,0,.16,0,.31.1A7.65,7.65,0,0,1,65.32,64a.5.5,0,0,1,0,.12C65.57,67.16,62.85,66.79,61.9,66.17Z"/><path class="cls-1" d="M64.93,63.37l1.13-.57.31-.15a1.55,1.55,0,0,1,.63-.2,1.44,1.44,0,0,1,1.16.43,1.6,1.6,0,0,1,.32.53,2.44,2.44,0,0,1,.07.38l.1.64.2,1.28a.38.38,0,0,1-.32.43.36.36,0,0,1-.4-.23l-.5-1.2-.24-.6c0-.07-.1-.26-.11-.23h0s0,0,0,.06,0,0,0,0l-.23.2L66,65A1,1,0,0,1,64.6,65a1,1,0,0,1,.09-1.43l.21-.14Z"/><path class="cls-3" d="M62.07,58.62a49.07,49.07,0,0,1,4.56-3.35c1.44-.72,7.1-1,7.1-1"/><path class="cls-3" d="M84.09,62.33s10.47,11,11.49,10.93,3.65-2.13,5.07-4.26,3.19-6.94,3.8-7.24,4.2.25,5-.87,1.92-3.29,1.77-3.75c-.08-.25-1.61,1.6-3.5,2.28-1.53.56-3.41-.08-4,.26-1.32.76-6.54,6.59-7.15,7.4s-4.46-6.74-8.52-9.28a39.59,39.59,0,0,0-6-2.41"/><path class="cls-2" d="M82.82,56a6.65,6.65,0,0,1-13-1.78"/><path class="cls-2" d="M81.18,55.23a4.86,4.86,0,0,1-9.62-1"/><path class="cls-1" d="M76.8,39.69A7.44,7.44,0,0,0,75.64,42,1.16,1.16,0,0,0,78,42,7.44,7.44,0,0,0,76.8,39.69Zm0,2.74a.36.36,0,1,1,.36-.36A.36.36,0,0,1,76.8,42.43Z"/><circle class="cls-3" cx="50.38" cy="54.53" r="1.72"/><path class="cls-1" d="M75.68,52.68a4.48,4.48,0,0,1,.85,0c.25,0,.47.07.63.07s.76-.09,1.41-.11a1.48,1.48,0,0,1-1.46,1.11,1.67,1.67,0,0,1-.9-.36A1.58,1.58,0,0,1,75.68,52.68Z"/><path class="cls-1" d="M76.11,51.5c.41,0,.75.17,1,.18a4.63,4.63,0,0,0,1-.18,1.14,1.14,0,0,1-.39.48,1,1,0,0,1-.63.2A1.3,1.3,0,0,1,76.11,51.5Z"/><path class="cls-1" d="M78.27,49s.66-.86,1.4-.8a1.47,1.47,0,0,1,1,.37,1.78,1.78,0,0,1-1.19.66A2,2,0,0,1,78.27,49Z"/><path class="cls-1" d="M77,48.27s-.71-.82-.49-1.53a1.43,1.43,0,0,1,.56-.89,1.75,1.75,0,0,1,.4,1.3A2,2,0,0,1,77,48.27Z"/><path class="cls-1" d="M76,49s-.66-.86-1.4-.8a1.47,1.47,0,0,0-1,.37,1.78,1.78,0,0,0,1.19.66A2,2,0,0,0,76,49Z"/><path class="cls-2" d="M81.84,47.59a13.84,13.84,0,0,1-.42,4.28c-.25.87-2.27,4.05-4.29,4.05-1.54,0-3.11-1.42-3.83-3A15.61,15.61,0,0,1,72.13,48a4,4,0,0,1,.62-2.55l0,.14a14.16,14.16,0,0,1,8.54-.08A4,4,0,0,1,81.84,47.59Z"/><path class="cls-2" d="M69.59,84.72a25.07,25.07,0,0,1,6.88,5.13"/><path class="cls-1" d="M75.87,74.36a1.52,1.52,0,0,1,1.21.69,4.09,4.09,0,0,1,.62,1.14,9.28,9.28,0,0,1,.38,5.06,4.89,4.89,0,0,1-.51,1.35,2.76,2.76,0,0,1-.58.7,1.87,1.87,0,0,1-1.12.44,1,1,0,0,1,0-2c-.07,0-.08.05,0,0a.67.67,0,0,0,.22-.19,2.7,2.7,0,0,0,.47-.81A7.63,7.63,0,0,0,77,78.66a7.94,7.94,0,0,0-.11-2.23,3.91,3.91,0,0,0-.35-1,1.06,1.06,0,0,0-.69-.6h0a.22.22,0,0,1,0-.44Z"/><path class="cls-2" d="M81.93,43.67c2-.52.9,1.24,2.92.72s1.62-2.1,3.64-2.62,2.43,1,4.46.52,1.62-2.1,3.64-2.62,1.26-.63,3.28-1.15"/><path class="cls-2" d="M81.75,45.32c2.29-.25,2.47,1.37,4.76,1.12s2.12-1.86,4.41-2.11,2.46,1.37,4.75,1.12,2.12-1.86,4.42-2.1,4.3.57,6.6.32"/><path class="cls-2" d="M82.06,46.66c2.67.07,2.62,1.69,5.29,1.76s2.72-1.55,5.38-1.48,2.63,1.7,5.3,1.77,2.72-1.55,5.39-1.48,4.35.69,7,.76"/><path class="cls-2" d="M82,47.71c2.94.4,2.72,2,5.66,2.42s3.16-1.2,6.11-.79,2.71,2,5.65,2.42,3.17-1.2,6.11-.79,5.42,3.09,8.37,3.49"/><path class="cls-3" d="M61.9,66.17c-3.17,2-6.55,4-6.88,3.85a18.76,18.76,0,0,1-3.49-2.54c-.68-.67-6.55-8.36-5.18-13.38S50.61,51,49.8,51.87a4.94,4.94,0,0,0-1.42,1.83,15.49,15.49,0,0,0,0,2.48c-.2.81,6.08,9.43,6.8,8.37a50.68,50.68,0,0,1,5.39-4.72"/><path class="cls-2" d="M81.79,42.53l-.47,3a14.16,14.16,0,0,0-8.54.08l0-.14-.47-2.68h1.66s-.91-3.4,3-4.75a4.2,4.2,0,0,1,3,4.48Z"/><path class="cls-2" d="M80,42.53s1.78-3.66,1.28-6.19-4.86-4.78-4.86-4.78S73.09,34,72.28,36.39s1.5,6.41,1.5,6.41"/><path class="cls-2" d="M56.05,86.58a5.75,5.75,0,0,1,2.65,2.26"/><path class="cls-2" d="M81.84,49.61s.52-1.53,1-.22-1.64,3-1.64,3"/><path class="cls-2" d="M72.38,49.9s-1-1.24-1-.29A2.8,2.8,0,0,0,73,52.12"/><circle class="cls-1" cx="71.03" cy="63.43" r="0.53"/><path class="cls-1" d="M86.09,54a2.76,2.76,0,0,1-1.76,1.17,2.67,2.67,0,0,1-2-.4,2.56,2.56,0,0,1-1.09-1.65,2.47,2.47,0,0,1,.38-1.86.5.5,0,0,1,.7-.13.51.51,0,0,1,.16.65A1.34,1.34,0,0,0,83,53.59a1.16,1.16,0,0,0,1.57-.51.88.88,0,1,1,1.61.69l-.08.14Z"/><path class="cls-1" d="M70.52,52.89a.43.43,0,0,0,.33.27,1,1,0,0,0,.67-.07,1,1,0,0,0,.59-1.17v0a.5.5,0,0,1,.87-.5,1.89,1.89,0,0,1,.21,1.6,2.43,2.43,0,0,1-.94,1.26,2.51,2.51,0,0,1-1.58.45A2.13,2.13,0,0,1,69,53.79l-.13-.19a.89.89,0,0,1,1.49-1A.77.77,0,0,1,70.52,52.89Z"/><circle class="cls-1" cx="75.23" cy="73.15" r="0.53"/><polyline class="cls-3" points="82.09 72.34 76.11 74.58 71.95 74.99"/><line class="cls-2" x1="74.55" y1="39.69" x2="73.02" y2="34.99"/><line class="cls-2" x1="79.23" y1="39.69" x2="80.4" y2="34.66"/><line class="cls-2" x1="76.93" y1="38.05" x2="76.43" y2="31.56"/></svg>