<svg id="Graphics" xmlns="http://www.w3.org/2000/svg" viewBox="0 0 150 150"><path d="M46.45,130a24,24,0,0,1-24-24h8a16,16,0,1,0,16-16v-8a16,16,0,1,0-16-16h-8a24,24,0,1,1,37.22,20A24,24,0,0,1,46.45,130Z"/><path d="M99.29,130v-8A23.22,23.22,0,1,0,81.68,83.69a18.39,18.39,0,0,1-13.94,6.47H46.45v-8H67.74a10.4,10.4,0,0,0,7.87-3.68A31.22,31.22,0,1,1,99.29,130Z"/><path d="M96.43,53a24,24,0,0,1-24-24h8a16,16,0,1,0,31.93,0h8A24,24,0,0,1,96.43,53Z"/><path d="M96.43,28a.74.74,0,1,1-.73.73.74.74,0,0,1,.73-.73m0-8a8.74,8.74,0,1,0,8.74,8.73A8.73,8.73,0,0,0,96.43,20Z"/></svg>