<svg id="Graphics" xmlns="http://www.w3.org/2000/svg" viewBox="0 0 150 150"><defs><style>.cls-1{fill:none;stroke:#231f20;stroke-miterlimit:10;stroke-width:8px;}</style></defs><path class="cls-1" d="M43.89,68.71C47.87,74,26.71,80.93,34,91c2.57,3.56,10.8,3.21,13.91-2.13"/><path class="cls-1" d="M51.87,42a9.06,9.06,0,0,1,8.78-15.84l-.19.12a9.48,9.48,0,0,0-3.53,9.16h0A19.36,19.36,0,0,1,80.2,27.31l.33.18A19.33,19.33,0,0,1,67.16,43.56a19.1,19.1,0,0,1-7.26.85"/><path class="cls-1" d="M105.22,110.51A9.06,9.06,0,0,0,91.61,98.69l-5.7,5.67A22.64,22.64,0,0,1,71.64,110c-12.23.48-23.77-8.93-23.77-21.17,0-5.06,7.88-20.72-4-20.11H31L43,56.6a10.65,10.65,0,1,1,20.45-4.15v11a13.22,13.22,0,1,0,26.44,0v-6a17.56,17.56,0,0,1,18.2-17.55,17.83,17.83,0,0,1,16.91,18v8.57a12.58,12.58,0,1,0-25.16,0l-.26,11.1a11.1,11.1,0,0,1,11.31-11.1,11.33,11.33,0,0,1,10.89,11.46v8.15h0a8.36,8.36,0,0,0-16.72,0h.13a12.63,12.63,0,0,1,12,16.61c-1.6,5.13-6.49,7.8-11.85,7.84Z"/><line class="cls-1" x1="77.25" y1="109.09" x2="77.25" y2="125.75"/><line class="cls-1" x1="69.8" y1="125.75" x2="85.26" y2="125.75"/><polyline class="cls-1" points="63.91 108.98 53.53 114.99 48.87 121.74"/><line class="cls-1" x1="42.42" y1="117.48" x2="55.32" y2="126"/></svg>