<svg id="Graphics" xmlns="http://www.w3.org/2000/svg" viewBox="0 0 150 150"><defs><style>.cls-1{fill:#231f20;}.cls-2{fill:none;stroke:#231f20;stroke-miterlimit:10;stroke-width:8px;}</style></defs><path class="cls-1" d="M111,20.33a10.55,10.55,0,0,0-7.26,4,14.33,14.33,0,0,0-2.36,7.61,30.42,30.42,0,0,0,.05,4.16l.29,4.47L102,45l.12,2.24c0,.35,0,.79,0,1.21s0,.84,0,1.27a26.68,26.68,0,0,1-8.22,18.32A27.38,27.38,0,0,1,85.2,73.7a27.23,27.23,0,0,1-29.1-5.62,26.77,26.77,0,0,1-8.22-18.33c0-.43,0-.85,0-1.27s0-.86,0-1.21L48,45l.25-4.49.29-4.47a30.42,30.42,0,0,0,0-4.16,14.4,14.4,0,0,0-2.35-7.6,10.52,10.52,0,0,0-7.26-4,12.22,12.22,0,0,1,4.62.12A10.69,10.69,0,0,1,48,22.68a16.18,16.18,0,0,1,4.73,8.59A32.35,32.35,0,0,1,53.43,36l.3,4.5L54,45l.12,2.24c0,.39,0,.7.07,1a8,8,0,0,0,.1,1,21.11,21.11,0,0,0,7,13.22,20.76,20.76,0,0,0,27.45,0,21.16,21.16,0,0,0,7-13.23,8,8,0,0,0,.1-1c0-.33.06-.64.07-1L96,45l.25-4.49.3-4.5a32.35,32.35,0,0,1,.73-4.77A16.2,16.2,0,0,1,102,22.69a10.59,10.59,0,0,1,4.35-2.24A12.42,12.42,0,0,1,111,20.33Z"/><path class="cls-1" d="M75,20.24c.94,4.29,1.59,8.58,2.19,12.86S78.25,41.68,78.64,46s.71,8.58.8,12.86q.07,3.23,0,6.43c-.06,2.15-.17,4.29-.43,6.43H71c-.26-2.14-.37-4.28-.43-6.43s-.06-4.28,0-6.43c.09-4.28.41-8.57.8-12.86s.87-8.57,1.45-12.86S74.06,24.53,75,20.24Z"/><line class="cls-2" x1="75.12" y1="71.68" x2="75.12" y2="129.37"/><path class="cls-2" d="M94,83.35,75,92.7,56,83.35c-4-2-9,.49-9,4.43v21.75c0,3.94,5,6.4,9,4.43l19-9.35L94,114c4,2,9-.49,9-4.43V87.78C103,83.84,98,81.38,94,83.35Z"/></svg>