<svg id="Graphics" xmlns="http://www.w3.org/2000/svg" viewBox="0 0 150 150"><defs><style>.cls-1{fill:none;stroke:#231f20;stroke-miterlimit:10;stroke-width:8px;}</style></defs><path class="cls-1" d="M25,127l5.75-4.18A20,20,0,0,1,42.51,119H55A20,20,0,0,0,75,99V51A20,20,0,0,1,95,31h12.28a20,20,0,0,0,11.49-3.63L125,23"/><path class="cls-1" d="M127,125l-3.34-4.19a20,20,0,0,1-4.36-12.47V95.83C119.3,84.33,110.67,75,100,75H50C39.33,75,30.7,65.67,30.7,54.17V41.68a20,20,0,0,0-4.32-12.42L23,25"/><circle class="cls-1" cx="98" cy="53" r="8"/><circle class="cls-1" cx="98" cy="97" r="8"/><circle class="cls-1" cx="52" cy="97" r="8"/><circle class="cls-1" cx="52" cy="53" r="8"/></svg>