<svg id="Graphics" xmlns="http://www.w3.org/2000/svg" viewBox="0 0 150 150"><defs><style>.cls-1{fill:#231f20;}</style></defs><rect class="cls-1" x="20" y="36.14" width="110" height="16" rx="8"/><rect class="cls-1" x="20" y="97.86" width="110" height="16" rx="8"/><path class="cls-1" d="M52,75a22.88,22.88,0,0,0,1.44,8H28a8,8,0,0,1-8-8h0a8,8,0,0,1,8-8H53.44A22.88,22.88,0,0,0,52,75Z"/><path class="cls-1" d="M130,75h0a8,8,0,0,1-8,8H96.56a22.94,22.94,0,0,0,0-16H122A8,8,0,0,1,130,75Z"/><path class="cls-1" d="M91,75a16,16,0,1,1-4.07-10.67A15.89,15.89,0,0,1,91,75Z"/><rect class="cls-1" x="20" y="36.14" width="110" height="16" rx="8"/><rect class="cls-1" x="20" y="97.86" width="110" height="16" rx="8"/><path class="cls-1" d="M52,75a22.88,22.88,0,0,0,1.44,8H28a8,8,0,0,1-8-8h0a8,8,0,0,1,8-8H53.44A22.88,22.88,0,0,0,52,75Z"/><path class="cls-1" d="M130,75h0a8,8,0,0,1-8,8H96.56a22.94,22.94,0,0,0,0-16H122A8,8,0,0,1,130,75Z"/><path class="cls-1" d="M91,75a16,16,0,1,1-4.07-10.67A15.89,15.89,0,0,1,91,75Z"/></svg>