<svg id="Graphics" xmlns="http://www.w3.org/2000/svg" viewBox="0 0 150 150"><defs><style>.cls-1{fill:#231f20;}</style></defs><path class="cls-1" d="M103,71.9a25.77,25.77,0,0,1-6.61,16.64,28.24,28.24,0,0,1-15,8.67,29.53,29.53,0,0,1-17-1.23A27.86,27.86,0,0,1,50.91,85l-1.12-2c-.37-.67-.62-1.39-.93-2.09a17.82,17.82,0,0,1-.76-2.16,13.21,13.21,0,0,1-.55-2.23c-.12-.76-.32-1.51-.37-2.28L47,72a22.89,22.89,0,0,1,.57-4.86C49,61.18,51.4,56.27,53.93,51.41A190.25,190.25,0,0,1,71.81,24.49l3.35-4.27,3,4.27h0C81,27.94,83.46,31.46,86,35s4.84,7.26,7.08,11a117.62,117.62,0,0,1,6.18,11.8,55.19,55.19,0,0,1,2.46,6.47A26.1,26.1,0,0,1,103,71.9Zm-8,0a19.21,19.21,0,0,0-1.13-5,55.16,55.16,0,0,0-2.3-5.48c-1.73-3.68-3.81-7.3-5.94-10.91s-4.41-7.15-6.74-10.68-4.72-7-7.08-10.48h6.38l-4.4,6.41c-1.45,2.16-2.87,4.35-4.29,6.53-2.81,4.37-5.56,8.77-8,13.25C60.23,57.74,59.06,60,58,62.26A40.53,40.53,0,0,0,55.49,69a14.86,14.86,0,0,0-.49,3l0,1.66a15.1,15.1,0,0,0,.15,1.65,13.17,13.17,0,0,0,.26,1.65,13.23,13.23,0,0,0,.37,1.63,31.91,31.91,0,0,0,1.11,3.2A20.81,20.81,0,0,0,66.3,91.79a20.24,20.24,0,0,0,6.91,2,19.31,19.31,0,0,0,13.54-3.9,21.55,21.55,0,0,0,4.72-5.15c.29-.5.63-1,.88-1.48l.76-1.54.6-1.59c.21-.52.33-1.08.5-1.61A24.12,24.12,0,0,0,95,71.9Z"/><rect class="cls-1" x="63" y="58.04" width="24" height="3.49" rx="1.75"/><rect class="cls-1" x="63" y="71.51" width="24" height="3.49" rx="1.75"/><path class="cls-1" d="M70,66.52a5,5,0,0,0,.32,1.75H64.75A1.75,1.75,0,0,1,63,66.52h0a1.74,1.74,0,0,1,1.75-1.74H70.3A4.88,4.88,0,0,0,70,66.52Z"/><path class="cls-1" d="M87,66.52h0a1.75,1.75,0,0,1-1.75,1.75H79.7A5,5,0,0,0,80,66.52a4.88,4.88,0,0,0-.32-1.74h5.55A1.74,1.74,0,0,1,87,66.52Z"/><path class="cls-1" d="M78.49,66.52a3.44,3.44,0,0,1-.89,2.33,3.49,3.49,0,0,1-5.2,0,3.49,3.49,0,0,1,0-4.66,3.49,3.49,0,0,1,5.2,0A3.44,3.44,0,0,1,78.49,66.52Z"/><path class="cls-1" d="M67.24,79.55a4,4,0,1,0,3.57,5.77,4.48,4.48,0,0,1,1,2.77,4.55,4.55,0,0,1-4.54,4.54v4a8.54,8.54,0,1,0,0-17.08Z"/><path class="cls-1" d="M83,79.55a4,4,0,1,1-3.57,5.77,4.48,4.48,0,0,0-1,2.77A4.55,4.55,0,0,0,83,92.63v4a8.54,8.54,0,0,1,0-17.08Z"/><polygon class="cls-1" points="71 129.37 69 95.9 81 95.9 79 129.37 71 129.37"/></svg>