<svg id="cthulhu" xmlns="http://www.w3.org/2000/svg" viewBox="0 0 150 150"><title>atlachnacha-bold</title><path d="M103.87,80.35a31.8,31.8,0,0,0-4.15-7l22.82-19V65.31h4V45.9L97,70.41a31.14,31.14,0,0,0-5.43-4.3l3.38-5V59.88c0-.09,0-.17,0-.26l13.11-14.57v6.67h4V34.63L94.23,54.48A20.05,20.05,0,0,0,84,42.06a10.3,10.3,0,0,0-1.7-12.36l-2.83,2.82a6.31,6.31,0,0,1,.73,8.08,19.47,19.47,0,0,0-10.42,0A6.36,6.36,0,0,1,68.66,37a6.3,6.3,0,0,1,1.86-4.49L67.69,29.7a10.26,10.26,0,0,0-3,7.31A10.4,10.4,0,0,0,66,42.06,20.06,20.06,0,0,0,55.77,54.48L37.91,34.63V51.72h4V45.05L55,59.62c0,.09,0,.17,0,.26V61.1l3.36,5a31.25,31.25,0,0,0-5.46,4.28L23.46,45.9V65.31h4V54.43L50.25,73.36a31.33,31.33,0,0,0-4.17,7l-23-8V125h4V77.93L44.75,84.1a31.79,31.79,0,0,0-1.25,8.75,30.87,30.87,0,0,0,.44,5.21h-6V124.7h4V102.06h3a31.51,31.51,0,0,0,60.26,0h3V124.7h4V98.06h-6a30.84,30.84,0,0,0-.83-14l17.66-6.18V125h4V72.29ZM63.19,57.88a13,13,0,0,0,10.67,7.57,13,13,0,0,0-10.67-7.62,12,12,0,0,1,23.62,0,13,13,0,0,0-10.67,7.62,13,13,0,0,0,10.67-7.57c0,.28.1.57.13.86L75,76.43,63.06,58.74C63.09,58.45,63.14,58.16,63.19,57.88ZM75,116.35A23.5,23.5,0,0,1,62.85,72.73L75,90.74l12.13-18A23.48,23.48,0,0,1,75,116.35Z"/></svg>