<svg id="cthulhu" xmlns="http://www.w3.org/2000/svg" viewBox="0 0 150 150"><title>aylith-bold</title><path d="M81.76,76.61l44.6-22.88-3.65-7.12-7.32,3.75,13-23.18-7-3.91-9.28,16.57L101.61,23.9l-3.34,2.2,11.65,17.67L102.52,57,79.64,68.71,95,46V44.73a20,20,0,1,0-40,0V46L70.36,68.71,47.48,57l-7.4-13.2L51.73,26.1l-3.34-2.2L37.88,39.84,28.6,23.27l-7,3.91,13,23.18-7.32-3.75-3.65,7.12,44.74,23L51.43,94.29,43.7,86.5l7.93-10.16-3.15-2.46-7.62,9.76-9.27-9.35-5.68,5.64,21.56,21.73v18.77H39.91v8H55.47V101.62L75.08,81.27l20.86,20.42v26.74h14.5v-8h-6.5v-20.2l20.15-20.3-5.68-5.64-9.27,9.35-7.62-9.76-3.15,2.46L106.3,86.5l-7.11,7.17ZM63.19,42.73A13,13,0,0,0,73.86,50.3a13,13,0,0,0-10.67-7.61,12,12,0,0,1,23.62,0A13,13,0,0,0,76.14,50.3a13,13,0,0,0,10.67-7.57c0,.28.1.57.13.86L75,61.28,63.06,43.59C63.09,43.3,63.14,43,63.19,42.73Z"/></svg>