<svg id="cthulhu" xmlns="http://www.w3.org/2000/svg" viewBox="0 0 150 150"><defs><style>.cls-1{fill:#211f1f;}</style></defs><path class="cls-1" d="M111.57,50.45a8.32,8.32,0,0,1,6,5.6l.08.26a4,4,0,0,0,3.82,2.81,4.09,4.09,0,0,0,1.19-.18,4,4,0,0,0,2.63-5l-.11-.34A16.41,16.41,0,0,0,113.58,42.7a16.63,16.63,0,0,0-15.6,4l-.07.07a4.53,4.53,0,0,0-.54.62,35.42,35.42,0,0,0-4.65-3.19l7.07-10.79a3.46,3.46,0,0,1,4.55-.61l3.51,2.32a11.54,11.54,0,0,0,14.35-1.33L124,32.19a4,4,0,1,0-5.2-6.08l-1.93,1.65c-.08.06-.15.14-.23.21a3.5,3.5,0,0,1-4.39.44l-3.51-2.32a11.43,11.43,0,0,0-15.32,2.4c-.07.1-.15.2-.22.31L85.79,40.15a4.49,4.49,0,0,0-.41.82A36.32,36.32,0,0,0,80.8,39.9,11.52,11.52,0,0,0,79,26a4,4,0,1,0-5.66,5.66A3.48,3.48,0,0,1,73.81,36l-2.32,3.51a.59.59,0,0,0,0,.08,37.39,37.39,0,0,0-3.86.6,4,4,0,0,0-1.15-2.53L60.8,32a11.43,11.43,0,0,0-15.16-2.21l-3.51,2.33a3.5,3.5,0,0,1-4.39-.45l-.12-.11-5.87-5.39a4,4,0,1,0-5.42,5.89l5.82,5.34a11.53,11.53,0,0,0,14.4,1.39l3.51-2.33a3.48,3.48,0,0,1,4.65.73,2.35,2.35,0,0,0,.3.33l5.12,5.12A35.57,35.57,0,0,0,53.05,47a3.58,3.58,0,0,0-.26-.29l-.08-.08A16.6,16.6,0,0,0,37.13,42.7,16.39,16.39,0,0,0,25.58,53.59l-.11.33a4,4,0,0,0,2.62,5,4.16,4.16,0,0,0,1.2.18,4,4,0,0,0,3.81-2.81l.09-.28a8.3,8.3,0,0,1,6-5.58,8.63,8.63,0,0,1,8.1,2l.08.07,0,0a35.43,35.43,0,0,0-7.7,18.3,4.1,4.1,0,0,0-.49,0l-2,.12a3.47,3.47,0,0,1-3.67-3l-.64-4.16A4,4,0,1,0,25,65.1l.64,4.16A11.44,11.44,0,0,0,37,79l.74,0,1.91-.12a35.34,35.34,0,0,0,7.74,18.54,2.57,2.57,0,0,0-.37.28,8.68,8.68,0,0,1-8.12,2A8.34,8.34,0,0,1,33,94.16l-.09-.29a4,4,0,0,0-7.64,2.39l.11.35a16.4,16.4,0,0,0,11.55,10.87,16.69,16.69,0,0,0,15.6-4l.07-.07a4.41,4.41,0,0,0,.45-.52,35.64,35.64,0,0,0,7.13,4.38L55,112.44a2.35,2.35,0,0,0-.3.33,3.48,3.48,0,0,1-4.65.73l-3.51-2.33a11.54,11.54,0,0,0-14.49,1.48l-5.7,5.79a4,4,0,0,0,2.86,6.81,4,4,0,0,0,2.85-1.2l5.67-5.76a3.5,3.5,0,0,1,4.39-.45l3.51,2.33A11.43,11.43,0,0,0,60.8,118l5.64-5.63a4,4,0,0,0,1.15-2.53,36.14,36.14,0,0,0,4.19.62,4.06,4.06,0,0,0,.56,1.33L73.81,114a3.48,3.48,0,0,1-.44,4.39A4,4,0,0,0,79,124,11.5,11.5,0,0,0,80.8,110.1,35.92,35.92,0,0,0,85.38,109a4.49,4.49,0,0,0,.41.82l7.43,11.35c.07.11.15.21.22.31a11.44,11.44,0,0,0,15.32,2.4l3.51-2.32a3.5,3.5,0,0,1,4.34.39l1.8,2a4,4,0,0,0,5.91-5.39l-1.87-2-.13-.14a11.53,11.53,0,0,0-14.47-1.45l-3.51,2.32a3.46,3.46,0,0,1-4.55-.61l-7.07-10.79a35.46,35.46,0,0,0,4.38-3l.94,1.18a11.44,11.44,0,0,0,15.32,2.4l3.51-2.33a3.51,3.51,0,0,1,3.13-.36,4,4,0,1,0,2.76-7.51,11.53,11.53,0,0,0-10.31,1.2l-3.51,2.33a3.47,3.47,0,0,1-4.65-.73l-1.22-1.53c-.09-.11-.2-.2-.3-.3a35.32,35.32,0,0,0,7.61-18.52,3.46,3.46,0,0,1,3.63,3l.64,4.16a11.45,11.45,0,0,0,2.9,6,4,4,0,0,0,2.94,1.29,4,4,0,0,0,3-6.7,3.45,3.45,0,0,1-.88-1.84l-.64-4.15a11.43,11.43,0,0,0-11.61-9.74,35.43,35.43,0,0,0-7.42-17.77,5.57,5.57,0,0,0,.56-.43A8.65,8.65,0,0,1,111.57,50.45ZM77,91.75V86.38a2,2,0,0,0-4,0v5.37a16.79,16.79,0,0,1-8.43-3.49l3.79-3.8a2,2,0,0,0-2.82-2.82l-3.8,3.79A16.79,16.79,0,0,1,58.25,77h5.37a2,2,0,1,0,0-4H58.25a16.79,16.79,0,0,1,3.49-8.43l3.8,3.79a2,2,0,0,0,2.82-2.82l-3.79-3.8A16.79,16.79,0,0,1,73,58.25v5.36a2,2,0,1,0,4,0V58.25a16.79,16.79,0,0,1,8.43,3.49l-3.79,3.8a2,2,0,1,0,2.82,2.82l3.8-3.79A16.79,16.79,0,0,1,91.75,73H86.38a2,2,0,0,0,0,4h5.37a16.79,16.79,0,0,1-3.49,8.43l-3.8-3.79a2,2,0,0,0-2.82,2.82l3.79,3.8A16.79,16.79,0,0,1,77,91.75Z"/></svg>