<svg id="cthulhu" xmlns="http://www.w3.org/2000/svg" viewBox="0 0 150 150"><title>bokrug-bold</title><path d="M101.27,114a9.73,9.73,0,0,1-13.74,0c-.1-.11-.22-.2-.32-.3a39.49,39.49,0,0,0,5.7-2.34h0a38.79,38.79,0,0,0,13.93-16.09,36.17,36.17,0,0,0,3.08-19.7,33.61,33.61,0,0,1-7.34,17.08,31.17,31.17,0,0,1-13.69,9.6,39,39,0,0,0-1.6-13.56A19.1,19.1,0,0,0,93,75.11H89a15,15,0,0,1-3.27,9.35A39,39,0,0,0,64.05,63.63,15,15,0,0,1,73.86,60V56a19,19,0,0,0-14.09,6.24A39.2,39.2,0,0,0,48.49,61a30.2,30.2,0,0,1,5.06-6.7L53,53.76a25.07,25.07,0,0,0,17.9-21.21A18.31,18.31,0,0,1,75.28,29a19.19,19.19,0,0,1,7.13-2.41,20.17,20.17,0,0,0-7.89.56c-.41.12-.82.27-1.23.41.14-.41.29-.82.4-1.23a19.83,19.83,0,0,0,.56-7.89,19.07,19.07,0,0,1-2.4,7.12,18.35,18.35,0,0,1-3.33,4.16A25.1,25.1,0,0,0,47,47.74l-.51-.51A40.1,40.1,0,0,0,62.7,113.8c-.07.07-.16.13-.23.21a9.72,9.72,0,0,1-13.74,0,17.74,17.74,0,0,0-25.06,0l5.65,5.65a9.74,9.74,0,0,1,13.75,0,17.74,17.74,0,0,0,25.06,0,9.73,9.73,0,0,1,13.74,0,17.72,17.72,0,0,0,25.06,0,9.74,9.74,0,0,1,13.75,0l5.65-5.65A17.74,17.74,0,0,0,101.27,114ZM91.1,107.79l-2.27-4.49h0ZM79,89.29a14.87,14.87,0,0,1-5.18.94A15.11,15.11,0,0,1,59.47,70.48,31.08,31.08,0,0,1,79,89.29ZM44.73,75.58a30.59,30.59,0,0,1,.66-6.29,31.14,31.14,0,0,1,10.2.2,19.08,19.08,0,0,0,24.6,23.64,31,31,0,0,1,.36,12,31.08,31.08,0,0,1-5.73.54A30.13,30.13,0,0,1,44.73,75.58Z"/></svg>