<svg id="cthulhu" xmlns="http://www.w3.org/2000/svg" viewBox="0 0 150 150"><title>cthulhu-bold</title><path d="M120.89,65.3h8a53.57,53.57,0,0,0-15.78-38.1l-2.83-2.83L85,49.63a27.06,27.06,0,0,0-9-8.15L75,41l-1,.53a27.07,27.07,0,0,0-9,8.15L39.72,24.37,36.89,27.2A53.57,53.57,0,0,0,21.11,65.3h8A45.57,45.57,0,0,1,39.84,35.81l21.41,21.4a26.23,26.23,0,0,0-.79,3.26L60,60.3a12,12,0,0,0-14,4.44,45.34,45.34,0,0,0-8.08,24.92,44.67,44.67,0,0,0,1.7,13.26c.55,2.31,2.46,6,3.87,8.5a3.82,3.82,0,0,0-.58,1.24,4,4,0,1,0,4.88-2.85,3.86,3.86,0,0,0-.68-.11,41.59,41.59,0,0,1-3.63-7.8,40.88,40.88,0,0,1-1.56-12.15A41.46,41.46,0,0,1,49.29,67a8,8,0,0,1,9.33-2.94l1.36.48V84.18H55a4.52,4.52,0,0,1-3.24-1.28,3.25,3.25,0,0,1,0-4.6,2.21,2.21,0,0,1,3.12,0,1.39,1.39,0,0,1,.4,1,1.35,1.35,0,0,1-.4,1l2.83,2.83a5.36,5.36,0,0,0,0-7.58,6.22,6.22,0,0,0-8.78,0,7.28,7.28,0,0,0,0,10.26A8.5,8.5,0,0,0,55,88.18h9V75a15.21,15.21,0,0,0,1.22,1.19V91.24H60.77a.14.14,0,0,1-.09,0h-.11A8.82,8.82,0,0,0,52,98.64a7.27,7.27,0,0,0,5.85,8.43,6,6,0,0,0,1.11.1,6.22,6.22,0,0,0,6.1-5.1,5.38,5.38,0,0,0-.87-4,5.32,5.32,0,0,0-3.46-2.22L60,99.78a1.33,1.33,0,0,1,.88.56,1.36,1.36,0,0,1,.22,1,2.22,2.22,0,0,1-2.56,1.77,3.26,3.26,0,0,1-2.62-3.78,4.83,4.83,0,0,1,4.8-4.11H69.2V78.69c.38.16.77.3,1.16.43v33.8a9.19,9.19,0,0,1-1.66,5.53,6.58,6.58,0,0,1-9,2.23,4.6,4.6,0,0,1-1.73-6.26,3.27,3.27,0,0,1,4.46-1.23,2.23,2.23,0,0,1,.83,3,1.38,1.38,0,0,1-.83.64,1.35,1.35,0,0,1-1-.13l-2,3.48a5.36,5.36,0,0,0,7.32-2,6.22,6.22,0,0,0-2.33-8.47,7.28,7.28,0,0,0-9.92,2.73,8.61,8.61,0,0,0,3.23,11.71,11,11,0,0,0,5.44,1.47,10.62,10.62,0,0,0,8.93-5,13.28,13.28,0,0,0,2.31-7.7V79.83c.21,0,.42,0,.64,0s.43,0,.64,0v33.41h8.72l.24,0a4.85,4.85,0,0,1,5,2.81,3.27,3.27,0,0,1-1.84,4.22A2.21,2.21,0,0,1,84.92,119a1.37,1.37,0,0,1,.77-1.77l-1.46-3.72a5.37,5.37,0,0,0-3,7A6.21,6.21,0,0,0,87,124.4a6,6,0,0,0,2.26-.43,7.26,7.26,0,0,0,4.1-9.4,8.82,8.82,0,0,0-9.09-5.33H79.64V79.12c.39-.13.78-.27,1.16-.43V95.24h8.51a4.83,4.83,0,0,1,4.8,4.11,3.26,3.26,0,0,1-2.62,3.78,2.2,2.2,0,0,1-2.56-1.77,1.36,1.36,0,0,1,.22-1,1.33,1.33,0,0,1,.88-.56l-.71-3.94A5.37,5.37,0,0,0,85,102.07a6.23,6.23,0,0,0,6.11,5.1,5.92,5.92,0,0,0,1.1-.1,7.27,7.27,0,0,0,5.85-8.43,8.82,8.82,0,0,0-8.62-7.39H84.8V76.17A15.08,15.08,0,0,0,86,75V88.18h9A8.51,8.51,0,0,0,101,85.73a7.28,7.28,0,0,0,0-10.26,6.2,6.2,0,0,0-8.78,0,5.36,5.36,0,0,0,0,7.58l2.83-2.83a1.35,1.35,0,0,1-.4-1,1.39,1.39,0,0,1,.4-1,2.21,2.21,0,0,1,3.12,0,3.26,3.26,0,0,1,0,4.6A4.52,4.52,0,0,1,95,84.18H90V64.89h0c0-.11,0-.22,0-.32l1.41-.5A8,8,0,0,1,100.71,67a41.44,41.44,0,0,1,5.79,35,41.11,41.11,0,0,1-3.61,7.72,3.86,3.86,0,0,0-.68.11,4,4,0,1,0,4.88,2.85,3.82,3.82,0,0,0-.58-1.24,41.61,41.61,0,0,0,3.85-8.42A45.36,45.36,0,0,0,104,64.74,12,12,0,0,0,90,60.3l-.5.17a26.23,26.23,0,0,0-.79-3.26l21.41-21.4A45.57,45.57,0,0,1,120.89,65.3Zm-57.73.89a13,13,0,0,1,10.7,7.62A13,13,0,0,1,63.16,66.19Zm13,7.62a13,13,0,0,1,10.7-7.62A13,13,0,0,1,76.14,73.81Z"/></svg>