<svg id="cthulhu" xmlns="http://www.w3.org/2000/svg" viewBox="0 0 150 150"><title>cthugha-bold</title><path d="M74.83,95.09c-3.86,0-6.89,4.18-6.89,9.52s3,9.53,6.89,9.53,6.89-4.18,6.89-9.53S78.7,95.09,74.83,95.09Zm0,15c-1.36,0-2.89-2.36-2.89-5.53s1.53-5.52,2.89-5.52,2.89,2.36,2.89,5.52S76.2,110.14,74.83,110.14Z"/><path d="M110.72,85.33a45.35,45.35,0,0,0-5.26-18.26A32.83,32.83,0,0,0,100.14,60c-.5-.51-1-1-1.56-1.48l0,.17A18.54,18.54,0,0,1,99,62.57a16.21,16.21,0,0,1-1.29,6.31,18.25,18.25,0,0,1-1.46,2.81c-.33.52-.69,1-1.07,1.51s-.77,1-1.18,1.4a22.46,22.46,0,0,1-2.7,2.47,38.26,38.26,0,0,0-22.1-52,33.08,33.08,0,0,1,5.67,16.72q.09,1.34.09,2.73A35.7,35.7,0,0,1,61.7,72.43c-.22-.36-.44-.72-.64-1.09A19.51,19.51,0,0,1,60,69a18.61,18.61,0,0,1-.72-2.48,18,18,0,0,1-.32-2,19.05,19.05,0,0,1-.1-2c0-.46,0-.92.05-1.37s.09-.91.15-1.35c0-.15,0-.3.07-.45a19.43,19.43,0,0,1,.81-3A17.93,17.93,0,0,1,62.19,52c-.84.32-1.66.69-2.47,1.07a34.06,34.06,0,0,0-15,14.7,48.86,48.86,0,0,0-5.43,17.58A35.34,35.34,0,0,0,75,124.89C98.91,124.89,112.38,104.49,110.72,85.33ZM85.6,82.63a12.15,12.15,0,0,1-7.83,3.82A12.21,12.21,0,0,1,84,80.28a11.89,11.89,0,0,1,3.77-1A12.07,12.07,0,0,1,85.6,82.63Zm-21-2.75a12.18,12.18,0,0,1,7.29,6.57,12.11,12.11,0,0,1-9.46-6.06c-.2-.35-.39-.7-.56-1.07A11.82,11.82,0,0,1,64.6,79.88Zm30.69,28.46c-3.57,3.9-10,8.55-20.29,8.55-10.7,0-17.3-4.92-21-9a28,28,0,0,1-6.82-21.56,44.89,44.89,0,0,1,1.8-8.4c5.66,9.08,15.18,15,26,15A30.21,30.21,0,0,0,98.3,81.63a28.6,28.6,0,0,0,3.1-3.34A43.34,43.34,0,0,1,102.75,86,29.68,29.68,0,0,1,95.29,108.34Z"/><path d="M117.8,110.72a7.09,7.09,0,1,0,7.09,7.08A7.08,7.08,0,0,0,117.8,110.72Z"/></svg>