<svg id="cthulhu" xmlns="http://www.w3.org/2000/svg" viewBox="0 0 150 150"><title>dagon-bold</title><path d="M48.73,76.31a17.74,17.74,0,0,0-25.06,0L29.32,82a9.74,9.74,0,0,1,13.75,0,17.74,17.74,0,0,0,25.06,0,9.71,9.71,0,0,1,13.74,0,17.74,17.74,0,0,0,25.06,0,9.72,9.72,0,0,1,13.75,0l5.65-5.66a17.74,17.74,0,0,0-25.06,0,9.71,9.71,0,0,1-13.74,0A17.56,17.56,0,0,0,79,71.58l0-2.41Q79,65.91,79,63h0a66.51,66.51,0,0,1,1.44-14.37l3.47-.3a21.42,21.42,0,0,0,17.63-12.55l.94-2.1a20.58,20.58,0,0,1,13.61,7.89l6.34-4.87a28.74,28.74,0,0,0-40.3-5.27A23.34,23.34,0,0,0,75,40.1a23.63,23.63,0,0,0-7.15-8.63,28.74,28.74,0,0,0-40.3,5.27l6.34,4.87a20.64,20.64,0,0,1,13.76-7.92h.19l1,2.14A21.4,21.4,0,0,0,66.43,48.37l3.12.27c1.08,4.51,1.66,10.91,1.38,20.38v.08l0,2.5a17.59,17.59,0,0,0-8.48,4.71A9.72,9.72,0,0,1,48.73,76.31ZM83.48,43.39a16.43,16.43,0,0,1,10.16-9l.08,0A15.94,15.94,0,0,1,97,33.77,16.38,16.38,0,0,1,83.48,43.39ZM53.37,33.77l.68.08a20.36,20.36,0,0,1,7.09,2.71,16.36,16.36,0,0,1,5.73,6.83A16.38,16.38,0,0,1,53.37,33.77Z"/><path d="M101.28,95.71a9.74,9.74,0,0,1-13.75,0,17.72,17.72,0,0,0-25.06,0,9.72,9.72,0,0,1-13.74,0,17.76,17.76,0,0,0-25.06,0l5.65,5.66a9.74,9.74,0,0,1,13.75,0,17.74,17.74,0,0,0,25.06,0,9.71,9.71,0,0,1,13.74,0,17.74,17.74,0,0,0,25.06,0,9.72,9.72,0,0,1,13.75,0l5.65-5.66A17.74,17.74,0,0,0,101.28,95.71Z"/><path d="M101.27,114.22a9.73,9.73,0,0,1-13.74,0,17.72,17.72,0,0,0-25.06,0,9.72,9.72,0,0,1-13.74,0,17.74,17.74,0,0,0-25.06,0l5.65,5.65a9.74,9.74,0,0,1,13.75,0,17.74,17.74,0,0,0,25.06,0,9.73,9.73,0,0,1,13.74,0,17.72,17.72,0,0,0,25.06,0,9.74,9.74,0,0,1,13.75,0l5.65-5.65A17.74,17.74,0,0,0,101.27,114.22Z"/></svg>