<svg id="cthulhu" xmlns="http://www.w3.org/2000/svg" viewBox="0 0 150 150"><title>eldersign-bold</title><path d="M113.72,48.49a4,4,0,0,0-5.31-2L89.14,55.45,101.9,30a4,4,0,0,0-7.15-3.59L81.86,52.12l-3-13a4,4,0,1,0-7.8,1.78l5.12,22.46L64.7,86.32,57.55,61a4,4,0,1,0-7.7,2.18l9.53,33.71L53.8,108,43.74,74a4,4,0,1,0-7.67,2.26L48.55,118.5l-1.35,2.69A4,4,0,0,0,49,126.56a3.92,3.92,0,0,0,1.79.42,4,4,0,0,0,3.57-2.2l7.72-15.37,44.27-21.18A4,4,0,1,0,102.88,81l-35,16.72L83.38,66.93,111.77,53.8A4,4,0,0,0,113.72,48.49Z"/></svg>