<svg id="cthulhu" xmlns="http://www.w3.org/2000/svg" viewBox="0 0 150 150"><title>ghatanothoa-bold</title><path d="M120.93,89.53a6.42,6.42,0,0,0-5.53-4.1,5.66,5.66,0,0,1,4.09,4.51,5.35,5.35,0,0,1-.36,2.88,6.84,6.84,0,0,1-1.58,2.39,5.77,5.77,0,0,1-4.79,1.64,9.55,9.55,0,0,1-2.56-.69,7.35,7.35,0,0,1-2-1.4A28.8,28.8,0,0,1,104.42,90c-.61-.9-1.22-1.83-1.82-2.77s-1.33-2-2.07-3A30.81,30.81,0,0,0,95,78.38a24.55,24.55,0,0,0-3.49-2.26,16.41,16.41,0,0,0-.18-3.76l8.07-2.64a14.88,14.88,0,0,0,9.68-8.6,8.92,8.92,0,0,0,.41-5.66,1.08,1.08,0,0,0-.1-.27,5.12,5.12,0,0,0-.15-.56h0a7.63,7.63,0,0,0-9.63-4.89,7.62,7.62,0,0,0,1.55,14.83,11.12,11.12,0,0,1-2.93,1.33l-8,2.61a16.28,16.28,0,0,0-6.09-7.29,24.72,24.72,0,0,0,.09-11.87c-.43-2.22-.71-4-.88-5.38a7.62,7.62,0,0,0,5.58,2.44A7.79,7.79,0,0,0,91.26,46a7.56,7.56,0,0,0,4.44-3.8l.12-.28a7.26,7.26,0,0,0-2.59-9.81,8.82,8.82,0,0,0-12,2.7c-2.58,3.78-2.5,7.13-.93,15.27a21.51,21.51,0,0,1,.18,9.31A16.27,16.27,0,0,0,72,58.77l-.42-1.27A26.82,26.82,0,0,0,59.35,42.44a7.63,7.63,0,0,0,3.2-8.84,7.63,7.63,0,0,0-14.79,1.16,1.8,1.8,0,0,0-.1.46,8.83,8.83,0,0,0,5.83,8.92,22.88,22.88,0,0,1,14.28,14.6l.4,1.23A16.39,16.39,0,0,0,61,66.21a21.61,21.61,0,0,1-6.89-6.07c-5.2-6.46-7.7-8.69-12.25-9.17a9.39,9.39,0,0,0-4,.44,3,3,0,0,0-.32.09A7.64,7.64,0,0,0,36.5,65.57,7.66,7.66,0,0,0,40,66.4,7.79,7.79,0,0,0,42.33,66a7.66,7.66,0,0,0,5.26-7.4c1,1,2.07,2.33,3.43,4a25.55,25.55,0,0,0,8.31,7.2,16.56,16.56,0,0,0-.76,6.84L50.3,87.15,49.15,88.6c-.37.48-.8,1-1.08,1.39a14.78,14.78,0,0,1-2,2.19,15.36,15.36,0,0,1-5.18,3,15.59,15.59,0,0,1-3.05.73,10,10,0,0,1-2.93.05,8.09,8.09,0,0,1-5-3,7.38,7.38,0,0,1-1.34-2.81,6.68,6.68,0,0,1,.08-3.2,7.21,7.21,0,0,1,1.68-2.93,7.64,7.64,0,0,1,3-1.89,7.94,7.94,0,0,0-3.5,1.32,8.38,8.38,0,0,0-2.59,2.94,8.71,8.71,0,0,0-.93,4,10.13,10.13,0,0,0,1,4.1,11.78,11.78,0,0,0,6.3,5.79,11.48,11.48,0,0,0,2.19.63l.57.1.52.07c.35,0,.69.08,1,.1a21.39,21.39,0,0,0,4.23-.11,22.27,22.27,0,0,0,8.19-2.76A22.79,22.79,0,0,0,54,95.75c.56-.5,1-.84,1.47-1.25l1.41-1.18,4.27-3.57a20.45,20.45,0,0,0-.22,2.45,29.81,29.81,0,0,0,.91,7.82c.28,1.17.64,2.41,1,3.41s.64,2.07.92,3.08a28.16,28.16,0,0,1,1.17,5.71,6.64,6.64,0,0,1-.24,2.36,9.1,9.1,0,0,1-1.07,2.32,5.56,5.56,0,0,1-4.18,2.51,6.54,6.54,0,0,1-2.75-.32,5.2,5.2,0,0,1-2.35-1.53,5.48,5.48,0,0,1-.79-5.85,6.24,6.24,0,0,0-.46,6.68,6.94,6.94,0,0,0,2.61,2.71,9.13,9.13,0,0,0,7.63,1,9.8,9.8,0,0,0,3.59-2.1,12.23,12.23,0,0,0,1.4-1.51,11.39,11.39,0,0,0,1.14-1.67,12.6,12.6,0,0,0,1.45-4,23.24,23.24,0,0,0,.34-3.88c0-1.23,0-2.41-.08-3.57S71,103,70.88,101.9s-.14-2.08-.15-3.1a19.74,19.74,0,0,1,.59-5.36,11.78,11.78,0,0,1,.86-2.18c.53.09,1.06.16,1.6.2l1.39,2.91a29.78,29.78,0,0,0,3.56,5.8,28.48,28.48,0,0,0,10.15,8.15,27.69,27.69,0,0,0,5.92,2,5.15,5.15,0,0,1,3.39,2.28,4.63,4.63,0,0,1,.39,4.43,4.89,4.89,0,0,1-4.25,2.74,5.66,5.66,0,0,0,5.5-1.91,6.87,6.87,0,0,0,1.12-6.43,8.93,8.93,0,0,0-4.6-5.34,21.62,21.62,0,0,1-4.27-2.89,20.9,20.9,0,0,1-5.7-7.81A20.29,20.29,0,0,1,85.11,91l-.48-2.57a16.09,16.09,0,0,0,2.33-2,13,13,0,0,1,2.27.79,20.25,20.25,0,0,1,4.64,3.11c.79.67,1.49,1.33,2.32,2.16s1.67,1.65,2.54,2.47a34.15,34.15,0,0,0,6,4.75,12.55,12.55,0,0,0,4.06,1.54,14.12,14.12,0,0,0,4.16.14,10.19,10.19,0,0,0,4-1.39,9.29,9.29,0,0,0,3-2.9,9.51,9.51,0,0,0,1.39-3.69A7.28,7.28,0,0,0,120.93,89.53ZM98.48,58.13a3.64,3.64,0,1,1,4.59,2.33A3.64,3.64,0,0,1,98.48,58.13ZM54.16,32.51a3.75,3.75,0,0,1,1.13-.18,3.65,3.65,0,0,1,3.46,2.51h0a3.63,3.63,0,0,1-.21,2.78,3.63,3.63,0,0,1-6.7-.52A3.64,3.64,0,0,1,54.16,32.51ZM41.09,62.21A3.58,3.58,0,0,1,38.31,62,3.61,3.61,0,0,1,37,56.75a1.26,1.26,0,0,0,.2-.2A4.67,4.67,0,0,1,39,55.26a3.63,3.63,0,0,1,2.11,7ZM90,42.23a3.64,3.64,0,1,1,2.33-4.59h0A3.65,3.65,0,0,1,90,42.23Z"/><path d="M55.8,37.53a1.63,1.63,0,1,0-2.06-1.05A1.64,1.64,0,0,0,55.8,37.53Z"/><path d="M88.38,37.21a1.64,1.64,0,1,0,2.07,1A1.64,1.64,0,0,0,88.38,37.21Z"/><path d="M102.45,58.56a1.64,1.64,0,1,0-2.07-1.05A1.64,1.64,0,0,0,102.45,58.56Z"/><path d="M39.45,57.2a1.64,1.64,0,1,0,2.07,1A1.64,1.64,0,0,0,39.45,57.2Z"/></svg>