<svg id="cthulhu" xmlns="http://www.w3.org/2000/svg" viewBox="0 0 150 150"><title>gloon-bold</title><path d="M117.74,69.79A1.25,1.25,0,1,0,119,71,1.25,1.25,0,0,0,117.74,69.79Z"/><path d="M121.86,77.57A7.73,7.73,0,1,0,110,70.93a25.09,25.09,0,0,1-17-4.26A31.13,31.13,0,0,0,98.8,62.3a30,30,0,0,0,6.64-9.59,28.82,28.82,0,0,0,2.35-11,28,28,0,0,0-2-10.71,27.14,27.14,0,0,1,0,10.51,25.86,25.86,0,0,1-3.88,9.34A25.05,25.05,0,0,1,95,57.67,24.53,24.53,0,0,1,92.79,59c.42-1,.8-2,1.12-2.94a29.83,29.83,0,0,0,1.31-11.59,28.89,28.89,0,0,0-3.16-10.83,27.79,27.79,0,0,0-6.84-8.48,26.87,26.87,0,0,1,5,9.24,25.84,25.84,0,0,1,1,10.07,24.68,24.68,0,0,1-2.85,9.3,23.75,23.75,0,0,1-4.83,6.16,24,24,0,0,1-17.47,7.37h-.74a31.13,31.13,0,0,0-31.1,31.1,26.11,26.11,0,0,0,26.08,26.08,22.08,22.08,0,0,0,22.05-22.06,15.68,15.68,0,0,0-17-15.78c-8.84.68-12,9.34-12.85,12.18,1.09-2.33,6-5.26,10.36-4.71,5.59.7,7.48,4.51,7.48,8.31a10.11,10.11,0,0,1-10.09,10.1A14.14,14.14,0,0,1,46.2,98.35,19.16,19.16,0,0,1,60,80c4.18-.48,4.74,1.47,9,.93s3.84-2.57,8.18-3.13,4.86,1.47,9.21.91c3.41-.43,3.84-1.76,6-2.58a28.83,28.83,0,0,0,5.89,5.23h0a29.28,29.28,0,0,0,12,4.62,7.73,7.73,0,1,0,11.62-8.4ZM110.31,82a25.44,25.44,0,0,1-9.9-3.92h0A25.37,25.37,0,0,1,94,71.87a29,29,0,0,0,13.22,3.21,30.12,30.12,0,0,0,3.78-.25,7.65,7.65,0,0,0,2.62,2.74A7.76,7.76,0,0,0,110.31,82Zm7.43,5.89a3.74,3.74,0,1,1,3.74-3.74A3.74,3.74,0,0,1,117.74,87.85Zm0-13.08A3.74,3.74,0,1,1,121.48,71,3.74,3.74,0,0,1,117.74,74.77Z"/><path d="M117.74,82.87A1.25,1.25,0,1,0,119,84.11,1.25,1.25,0,0,0,117.74,82.87Z"/><path d="M52.57,98.77a2.11,2.11,0,0,0-.23.9S52.41,99.33,52.57,98.77Z"/></svg>