<svg id="cthulhu" xmlns="http://www.w3.org/2000/svg" viewBox="0 0 150 150"><title>hastur-bold</title><path d="M97.51,85.73c-3.68-.46-6.21-1.22-8.21-2.49a17,17,0,0,0,1.57-3.69h9.49a16.9,16.9,0,0,0,12.82-5.87,10.86,10.86,0,0,0,.92-12.94,9.26,9.26,0,0,0-12.83-2.56,4,4,0,0,0,4.44,6.66,1.25,1.25,0,0,1,1.74.34,2.84,2.84,0,0,1-.31,3.26,9,9,0,0,1-7.12,3.1H91.15a16.29,16.29,0,0,0-2-5.07c3.06-4.07,4-8.67,4.55-12.76,1-7.79,1.66-8.94,3.33-10.23a2.86,2.86,0,0,1,4.12.38,1.25,1.25,0,0,1-.12,1.76,4,4,0,0,0,5.26,6,9.27,9.27,0,0,0,.88-13.06,10.77,10.77,0,0,0-15-1.45c-4.42,3.4-5.37,7.55-6.38,15.57a19.8,19.8,0,0,1-2.4,8.05A16.55,16.55,0,0,0,79.18,59V57.3a28.85,28.85,0,0,0-11.35-23,2.85,2.85,0,0,1-1-3.17,1.25,1.25,0,0,1,1.65-.65,4,4,0,1,0,3.19-7.33,9.26,9.26,0,0,0-12.18,4.78,10.88,10.88,0,0,0,3.4,12.68A20.93,20.93,0,0,1,71.18,57.3V59a16.23,16.23,0,0,0-5.09,2.16,19.33,19.33,0,0,1-4.44-7.42c-2.86-7.56-4.77-11.37-9.86-13.64A10.77,10.77,0,0,0,37.53,45a9.25,9.25,0,0,0,3.93,12.48,4,4,0,0,0,3.7-7.09,1.26,1.26,0,0,1-.53-1.69,2.86,2.86,0,0,1,3.91-1.33c1.93.86,2.85,1.82,5.63,9.16A27.43,27.43,0,0,0,60.6,66.93a16.29,16.29,0,0,0-1.71,4.48H53.77a17.4,17.4,0,0,0-13.93,4.5A10.86,10.86,0,0,0,37.68,88.7a9.29,9.29,0,0,0,8.16,4.88,9.26,9.26,0,0,0,4.37-1.1,4,4,0,0,0-3.79-7,1.24,1.24,0,0,1-1.69-.51,2.83,2.83,0,0,1,.62-3.21A9.44,9.44,0,0,1,53,79.38l6.11,0a16.2,16.2,0,0,0,2,4.51C54,91.51,49.61,96.6,47,103.15c-3.78,9.51-5.08,10.77-7.8,11.93A4.6,4.6,0,0,1,33,112.86a2.6,2.6,0,0,1,1.16-3.48,4,4,0,1,0-3.59-7.15,10.6,10.6,0,0,0-4.72,14.21,12.48,12.48,0,0,0,11.22,7.1,13.32,13.32,0,0,0,5.26-1.1c6.1-2.6,8.37-7,12.09-16.34,2-5.07,5.34-9.1,12.49-16.7a16.32,16.32,0,0,0,4.25,1.65v1.87a28.84,28.84,0,0,0,11.35,23,2.84,2.84,0,0,1,1,3.16,1.23,1.23,0,0,1-.69.67,1.26,1.26,0,0,1-1,0,4,4,0,0,0-3.19,7.34,9.32,9.32,0,0,0,3.69.77,9.08,9.08,0,0,0,3.39-.65,9.2,9.2,0,0,0,5.1-4.91,10.88,10.88,0,0,0-3.39-12.68,20.93,20.93,0,0,1-8.26-16.73V91A16.33,16.33,0,0,0,83.65,89c4.1,3.12,8.73,4.11,12.86,4.63,7.79,1,8.94,1.65,10.23,3.33a2.86,2.86,0,0,1-.38,4.11,1.25,1.25,0,0,1-1.77-.12,4,4,0,1,0-6,5.26,9.23,9.23,0,0,0,13.05.88,10.77,10.77,0,0,0,1.45-15C109.67,87.7,105.52,86.74,97.51,85.73ZM75,83.52a8.5,8.5,0,0,1-6.63-13.85,4.05,4.05,0,0,0,1.34-1.33,8.47,8.47,0,0,1,4.54-1.82,4,4,0,0,0,.93.12,3.84,3.84,0,0,0,.83-.09A8.53,8.53,0,0,1,83.52,75c0,.06,0,.13,0,.19s0,.24,0,.36,0,.08,0,.12A8.52,8.52,0,0,1,75,83.52Z"/><circle cx="75" cy="75" r="4"/></svg>