<svg id="cthulhu" xmlns="http://www.w3.org/2000/svg" viewBox="0 0 150 150"><defs><style>.cls-1{fill:#211f1f;}.cls-2{fill:none;stroke:#000;stroke-miterlimit:10;stroke-width:4px;}</style></defs><path class="cls-1" d="M115.59,109.84c-.06-.17-.13-.35-.2-.53C115.46,109.49,115.53,109.67,115.59,109.84Z"/><path class="cls-1" d="M115.1,108.58l-.24-.55Z"/><path class="cls-1" d="M114.51,107.29c-.09-.19-.18-.38-.28-.56C114.33,106.91,114.42,107.1,114.51,107.29Z"/><path class="cls-1" d="M113.82,106l-.31-.56Z"/><path class="cls-1" d="M112.05,103.19l-.32-.45Z"/><path class="cls-1" d="M113,104.6l-.34-.53Z"/><path class="cls-1" d="M116,111.06c0-.17-.11-.34-.16-.5C115.89,110.72,116,110.89,116,111.06Z"/><path class="cls-1" d="M116.87,114.7a27.2,27.2,0,0,1,.36,3.14l-16.82-5.6c1.1,4.12,2.2,8.64,3.29,12.76H70.37c-1.88-1-3.48-2.58-6.1-5.22a27.76,27.76,0,0,1-5.21-7.35c-1.68,2-3.35,4-5,6A15.33,15.33,0,0,1,50.94,114a10.21,10.21,0,0,1-1.16-3.67h0l-24.67,9.08V125h99.73v-6.38Z"/><path class="cls-2" d="M117.23,117.84a27.2,27.2,0,0,0-.36-3.14,28.83,28.83,0,0,0-.66-2.94c-.07-.23-.13-.46-.21-.7s-.11-.34-.16-.5-.16-.48-.25-.72-.13-.35-.2-.53-.19-.48-.29-.73l-.24-.55-.35-.74c-.09-.19-.18-.38-.28-.56s-.26-.51-.41-.77l-.31-.56-.49-.8-.34-.53c-.2-.3-.41-.59-.63-.88l-.32-.45c-.34-.45-.69-.89-1.07-1.32A27.23,27.23,0,0,0,98.1,93.3L106.6,90A31.62,31.62,0,0,0,80.7,80l-5,3.29-4.84-3.48a18.1,18.1,0,0,0-6.18,2.71A42.74,42.74,0,0,0,56.54,90a64.44,64.44,0,0,0,6.19,12.58,35.29,35.29,0,0,1-10.4-5.76,31.22,31.22,0,0,0-2.55,13.49h0A10.21,10.21,0,0,0,50.94,114,15.33,15.33,0,0,0,54,118.42c1.68-2,3.35-4,5-6a27.76,27.76,0,0,0,5.21,7.35c2.62,2.64,1.91,2.19,3.4,3.31h36c-1.09-4.13-2.19-6.73-3.29-10.85Z"/><path class="cls-1" d="M115.39,109.31c-.09-.24-.19-.48-.29-.73C115.2,108.83,115.3,109.07,115.39,109.31Z"/><path class="cls-1" d="M115.84,110.56c-.08-.24-.16-.48-.25-.72C115.68,110.08,115.76,110.32,115.84,110.56Z"/><path class="cls-1" d="M116.21,111.76c-.07-.23-.13-.46-.21-.7C116.08,111.3,116.14,111.53,116.21,111.76Z"/><path class="cls-1" d="M112.68,104.07c-.2-.3-.41-.59-.63-.88C112.27,103.48,112.48,103.77,112.68,104.07Z"/><path class="cls-1" d="M111.73,102.74c-.34-.45-.69-.89-1.07-1.32C111,101.85,111.39,102.29,111.73,102.74Z"/><path class="cls-2" d="M112,75.71l5.8,3.67a95.91,95.91,0,0,0-4.64-19.52A95.68,95.68,0,0,0,106,44.21c-.07-1.28-.76-11.43-8.5-16a18.6,18.6,0,0,0-9.28-2.32,24.75,24.75,0,0,0-13.53,3.67A18.1,18.1,0,0,0,62,25.27c-9.09.68-13.71,8.39-14.1,9.08q-2.91,5-5.8,10A29.91,29.91,0,0,0,37.6,79.58a55.31,55.31,0,0,1,9.28-26.87c-7.15,11-8,24.56-2.13,35.18a30.63,30.63,0,0,0,7.58,8.93,35.29,35.29,0,0,0,10.4,5.76,63.76,63.76,0,0,1-9.47-42.52,10.54,10.54,0,0,1,8.11-8.7c.27-1.73,1-4.94,3.68-7,.82-.63,2.38-1.57,11.4-1.35s10.67,1.26,11.6,2.13A9.5,9.5,0,0,1,90.75,51,11.24,11.24,0,0,1,99.26,61.6,73.58,73.58,0,0,1,99.83,73c-.06,2.58-.62,7.27-1.12,10.81A30.16,30.16,0,0,1,106.6,90L98.1,93.3a27.23,27.23,0,0,1,12.56,8.12c.38.43.73.87,1.07,1.32l.32.45c.22.29.43.58.63.88l.34.53.49.8.31.56c.15.26.28.51.41.77s.19.37.28.56l.35.74.24.55c.1.25.2.49.29.73s.14.36.2.53.17.48.25.72.11.33.16.5.14.47.21.7.07.23.1.34c.36-4.71.94-12.9,0-19.77A80.18,80.18,0,0,0,112,75.71Z"/><path class="cls-1" d="M113.51,105.4l-.49-.8Z"/><path class="cls-1" d="M114.86,108l-.35-.74Z"/><path class="cls-1" d="M114.23,106.73c-.13-.26-.26-.51-.41-.77C114,106.22,114.11,106.47,114.23,106.73Z"/><path class="cls-1" d="M62.53,77.52a1.91,1.91,0,0,1-1.07-.32,2,2,0,0,1-.61-2.76l3.83-6H59.06a2,2,0,0,1,0-4h9.27A2,2,0,0,1,70,67.51l-5.8,9.09A2,2,0,0,1,62.53,77.52Z"/><path class="cls-1" d="M90.37,77.52a2,2,0,0,1-1.69-.92l-5.8-9.09a2,2,0,0,1,1.69-3.07h9.27a2,2,0,0,1,0,4H88.22l3.83,6a2,2,0,0,1-.61,2.76A1.91,1.91,0,0,1,90.37,77.52Z"/><path class="cls-1" d="M53.14,61a2,2,0,0,0,1,0A24.47,24.47,0,0,1,72,63.17a2,2,0,0,0,1,.24,2,2,0,0,0,1-3.76,28.58,28.58,0,0,0-9.35-3.12,28.26,28.26,0,0,0-10.29.36,10.67,10.67,0,0,0-1,3.17Q53.2,60.52,53.14,61Z"/><path class="cls-1" d="M88.33,56.53A28.58,28.58,0,0,0,79,59.65a2,2,0,0,0,1,3.76,2,2,0,0,0,.95-.24A24.47,24.47,0,0,1,98.75,61a2.63,2.63,0,0,0,.48.06A11.58,11.58,0,0,0,98,56.76,28.35,28.35,0,0,0,88.33,56.53Z"/><line class="cls-1" x1="80.7" y1="79.96" x2="80.12" y2="68.17"/></svg>