<svg id="cthulhu" xmlns="http://www.w3.org/2000/svg" viewBox="0 0 150 150"><title>nyarlathotep-bold</title><path d="M93.48,89.94h4.73l-5.7-40.13A7,7,0,0,0,87.42,44l-.69-.19-2.26,1-1.22-2.74-6.1,2.71a11.44,11.44,0,0,0,3.53-4.66,7.76,7.76,0,0,0,3.75-6.62H82.68a13.6,13.6,0,0,0,.16-1.85c.07-4-3.53-7.69-7.91-7.9-4.37.21-8,3.89-7.9,7.9a13.6,13.6,0,0,0,.16,1.85H65.57A7.76,7.76,0,0,0,69.13,40a11.79,11.79,0,0,0,3.54,4.77l-5.88-2.68-1.25,2.73-2.23-1-.7.19a7,7,0,0,0-5.12,5.81l-5.7,40.14h4.73l3.11,4.2L55.24,127H94.76L90.37,94.14ZM76,34.84a3.46,3.46,0,0,1,3.44-.67A3.48,3.48,0,0,1,76,34.84ZM68.79,32,68.5,31a7.42,7.42,0,0,1,6.44,1.08,7.43,7.43,0,0,1,6.58-.86l-.34.94A6.38,6.38,0,0,0,75.5,33v7.19h-1V33.05A6.36,6.36,0,0,0,68.79,32Zm1.75,2a3.45,3.45,0,0,1,3.41.82A3.49,3.49,0,0,1,70.54,34Z"/></svg>