<svg id="cthulhu" xmlns="http://www.w3.org/2000/svg" viewBox="0 0 150 150"><title>rhantegoth-bold</title><circle cx="74.82" cy="50.17" r="2"/><circle cx="68.71" cy="52.17" r="2"/><circle cx="80.94" cy="52.17" r="2"/><path d="M122.39,71.73h2.54v-4h-2.54a6.37,6.37,0,0,0-5,2.38H105.14A26.09,26.09,0,0,0,86,78.42L91.1,65.35a19.22,19.22,0,0,0-7.55-28.44l.29-.36a7.11,7.11,0,0,0,.93-8.24,3.15,3.15,0,0,1,.44-3.87,6.8,6.8,0,0,0,1.78-4L83,20a2.9,2.9,0,0,1-.89,1.86,7.16,7.16,0,0,0-.93,8.24,2.88,2.88,0,0,1,.45,2A2.94,2.94,0,0,1,80.77,34a8.91,8.91,0,0,0-1.09,1.56A19.12,19.12,0,0,0,77,35.12c.06-.18.14-.37.23-.58A7.51,7.51,0,0,0,76,26.16a3.28,3.28,0,0,1-1-2A3.24,3.24,0,0,1,75.34,22,7.19,7.19,0,0,0,76,17.6L72,18.21a3.22,3.22,0,0,1-.37,2.18A7.53,7.53,0,0,0,73,28.78,3.58,3.58,0,0,1,73.6,33a7.82,7.82,0,0,0-.68,2.25,19.11,19.11,0,0,0-2.65.52c0-.19,0-.39.09-.62A7.14,7.14,0,0,0,67,27.53,2.94,2.94,0,0,1,65.57,26,2.9,2.9,0,0,1,65.39,24a6.8,6.8,0,0,0-.48-4.32l-3.65,1.63a2.9,2.9,0,0,1,.18,2,7.16,7.16,0,0,0,3.38,7.57,3,3,0,0,1,1.41,1.5,3,3,0,0,1,.18,2.06,7,7,0,0,0,0,2.77,19.24,19.24,0,0,0-6.91,28.08l4.89,14a26.1,26.1,0,0,0-19.86-9.16H32.23a6.37,6.37,0,0,0-5-2.38H24.72v4h2.54a2.38,2.38,0,1,1,0,4.76H24.72v4h2.54a6.37,6.37,0,0,0,5-2.38H44.51A18.17,18.17,0,0,1,62.22,92.28H31.64v.15a6.31,6.31,0,0,0-4.38-1.76H24.72v4h2.54a2.39,2.39,0,0,1,0,4.77H24.72v4h2.54a6.38,6.38,0,0,0,5.5-3.16H62.22a18.17,18.17,0,0,1-17.71,14.17H32.23a6.37,6.37,0,0,0-5-2.38H24.72v4h2.54a2.38,2.38,0,0,1,0,4.76H24.72v4h2.54a6.37,6.37,0,0,0,5-2.38H44.51a26.21,26.21,0,0,0,25.87-22.17h8.89a26.21,26.21,0,0,0,25.87,22.17h12.28a6.37,6.37,0,0,0,5,2.38h2.54v-4h-2.54a2.38,2.38,0,1,1,0-4.76h2.54v-4h-2.54a6.37,6.37,0,0,0-5,2.38H105.14a18.19,18.19,0,0,1-17.72-14.17h29.47a6.37,6.37,0,0,0,5.5,3.16h2.54v-4h-2.54a2.39,2.39,0,1,1,0-4.77h2.54v-4h-2.54A6.36,6.36,0,0,0,118,92.43v-.15H87.42a18.19,18.19,0,0,1,17.72-14.17h12.28a6.37,6.37,0,0,0,5,2.38h2.54v-4h-2.54a2.38,2.38,0,1,1,0-4.76ZM75.31,43A11.29,11.29,0,1,1,64,54.32,11.29,11.29,0,0,1,75.31,43Z"/></svg>