<svg id="cthulhu" xmlns="http://www.w3.org/2000/svg" viewBox="0 0 150 150"><title>tsathoggua-bold</title><path d="M120.43,74.71h8A54,54,0,0,0,102,28.43l-2-1.19L75.18,41.54,50.07,26.92l-2,1.15A53.87,53.87,0,0,0,21,74.71h8A45.85,45.85,0,0,1,50.09,36.19l18,10.51a40.88,40.88,0,0,0-7.66,2,8,8,0,0,0-12.54,6.58c0,.27,0,.53,0,.79A41,41,0,0,0,35.24,98.81a.93.93,0,0,0,0,.13l.08,0A41.12,41.12,0,1,0,101.81,56.4a7.46,7.46,0,0,0,.06-.95,8,8,0,0,0-12.53-6.58,40.52,40.52,0,0,0-7.31-2L99.87,36.54A46,46,0,0,1,120.43,74.71ZM55.94,51.29a4,4,0,0,1,2.26,7.3L58,58.7a4,4,0,1,1-2.08-7.41Zm18.77,69.14a33.18,33.18,0,0,1-31-21.6,33.14,33.14,0,0,1,62.11,0A33.19,33.19,0,0,1,74.71,120.43Zm19.16-69a4,4,0,0,1,1.48.29c.34.2.69.4,1,.61a4,4,0,1,1-2.5-.9Zm0,12A8,8,0,0,0,97,62.81,33.09,33.09,0,0,1,107.81,86a41.07,41.07,0,0,0-66.19,0A33.07,33.07,0,0,1,52.67,62.59,8,8,0,0,0,63.91,56a33,33,0,0,1,22,.13A8,8,0,0,0,93.87,63.45Z"/></svg>