<svg id="cthulhu" xmlns="http://www.w3.org/2000/svg" viewBox="0 0 150 150"><defs><style>.cls-1{fill:#231f20;}</style></defs><title>yellowsign-bold</title><path class="cls-1" d="M108.69,66.12A8.73,8.73,0,0,0,100.87,71H84.38l40.8-40.42-5.63-5.69L78.27,65.8a46.48,46.48,0,0,0-41.66-37V25.22h-8V40h8V36.81A38.46,38.46,0,0,1,71,71H49.19A8.7,8.7,0,1,0,49,79H71.19v43.32h8V79H101a8.72,8.72,0,1,0,7.66-12.89ZM41.37,79.57a4.73,4.73,0,1,1,4.73-4.73A4.73,4.73,0,0,1,41.37,79.57Zm67.32,0a4.73,4.73,0,1,1,4.72-4.73A4.73,4.73,0,0,1,108.69,79.57Z"/></svg>