<svg id="cthulhu" xmlns="http://www.w3.org/2000/svg" viewBox="0 0 150 150"><title>y&amp;apos;golonac-bold</title><path d="M126.67,72.83A51.88,51.88,0,0,0,23,72.89a14.48,14.48,0,0,0-12.34,14.3h4A10.47,10.47,0,1,1,25.11,97.66v4A14.47,14.47,0,0,0,27,72.85,47.85,47.85,0,0,1,45.32,37a39,39,0,0,0,.74,52v21.31A16.45,16.45,0,0,0,75,121.11a16.45,16.45,0,0,0,28.94-10.73V88.69A39,39,0,0,0,104.32,37,47.86,47.86,0,0,1,122.67,72.9a14.47,14.47,0,0,0,2.22,28.76v-4a10.48,10.48,0,1,1,10.47-10.47h4A14.49,14.49,0,0,0,126.67,72.83Zm-64.14,46a8.48,8.48,0,0,1-8.47-8.47V95.73a38.82,38.82,0,0,0,16.82,5.8l.12,8.85A8.48,8.48,0,0,1,62.53,118.85Zm24.94,0a8.49,8.49,0,0,1-8.47-8.5l.12-8.86a38.9,38.9,0,0,0,16.82-6v14.87A8.48,8.48,0,0,1,87.47,118.85ZM74.82,93.73a31.09,31.09,0,1,1,31.1-31.09A31.13,31.13,0,0,1,74.82,93.73Z"/><path d="M75,63.55a8,8,0,1,0,8,8A8,8,0,0,0,75,63.55Zm0,12a4,4,0,1,1,4-4A4,4,0,0,1,75,75.55Z"/></svg>