<svg id="cthulhu" xmlns="http://www.w3.org/2000/svg" viewBox="0 0 150 150"><title>yig-bold</title><path d="M48.65,121l35.61-13.13a6.06,6.06,0,0,0-2-11.78h0l-20.57,0L80.59,81.5c8.34-6,13.8-11.06,17.3-15.57.43.38.86.76,1.27,1.17a22.8,22.8,0,0,1,1.65,30.07,4.23,4.23,0,0,0-.5,0,4,4,0,1,0,4,4,3.84,3.84,0,0,0-.28-1.52,26.84,26.84,0,0,0-2-35.34c-.59-.6-1.2-1.16-1.83-1.7a23.63,23.63,0,0,0,3.55-12.86A28.78,28.78,0,0,0,79,21.28V21.1H77.3C76.54,21,75.78,21,75,21v.1h0A29.09,29.09,0,0,0,45.94,50.17v1.07a32.92,32.92,0,0,1-20.76,7.3v4a37,37,0,0,0,16.35-3.78,37,37,0,0,0-3.78,16.35h4A32.91,32.91,0,0,1,49.1,54.29h.84A29.1,29.1,0,0,0,78.7,29.35a20.76,20.76,0,0,1,17,20.39,15.65,15.65,0,0,1-2.36,8.64,26.94,26.94,0,0,0-26.49,3.1,4.1,4.1,0,0,0-1.53-.32,4,4,0,1,0,4,4,4.23,4.23,0,0,0,0-.5A22.75,22.75,0,0,1,91,61.76c-2.92,3.56-7.62,7.86-15.13,13.3L52.27,93.31A6.06,6.06,0,0,0,56,104.16h0l15.31,0-35.53,13.1a6.06,6.06,0,0,0,2,11.78h87.11v-8Z"/></svg>