<svg id="cthulhu" xmlns="http://www.w3.org/2000/svg" viewBox="0 0 150 150"><defs><style>.cls-1{fill:#211f1f;}</style></defs><path class="cls-1" d="M50.54,40.56a2,2,0,0,0-1.94,2.07l.57,17.06a2,2,0,0,0,2,1.94h.07a2,2,0,0,0,1.93-2.06L52.6,42.5A2,2,0,0,0,50.54,40.56Z"/><path class="cls-1" d="M68.11,73.59a2,2,0,0,0-1.88,2.11l.19,3.19a2,2,0,0,0,2,1.88h.12a2,2,0,0,0,1.88-2.11l-.19-3.19A2,2,0,0,0,68.11,73.59Z"/><path class="cls-1" d="M110.73,78.18A13.88,13.88,0,0,0,96.86,92.05v.12a2.5,2.5,0,1,1-5,0,27.8,27.8,0,0,1,1-5.82c1-4.5,2.33-10.09.85-16.48a26.3,26.3,0,0,0-3-7.41,31.83,31.83,0,0,0-.07-8.92,23,23,0,0,1,7,8.61,4.12,4.12,0,0,0,.3.64,13.75,13.75,0,0,0,25.63-6.93,4,4,0,1,0-8,0A5.74,5.74,0,0,1,105,59a31.28,31.28,0,0,0-9.11-11.46h8.34a18,18,0,0,0,18-18,4,4,0,0,0-8,0,10.05,10.05,0,0,1-10,10.05H95.58a13.76,13.76,0,0,0,4.36-10,4,4,0,1,0-8,0,5.81,5.81,0,0,1-5.8,5.81H81.51A32.8,32.8,0,1,0,36.15,82.61C26.14,90,22.33,103.06,27.54,113c2.91,5.54,8.73,9.8,15.55,11.38a24.19,24.19,0,0,0,5.43.64A16,16,0,0,0,58,122.21a4,4,0,0,0-4.73-6.45c-1.73,1.26-5,1.57-8.39.79-4.58-1.06-8.42-3.79-10.27-7.3-3.44-6.55-.33-15.83,6.94-20.69a4.07,4.07,0,0,0,1.21-1.31,32.52,32.52,0,0,0,12.36,3.67c-.14,2.78-1,8.82-5.45,11.69-1,.64-4.48,2.64-6.79,1.37A4,4,0,1,0,39,111a11.55,11.55,0,0,0,5.62,1.41,17.62,17.62,0,0,0,9.34-3c7.92-5,9-14.77,9.16-18.67A32.49,32.49,0,0,0,71.93,88l-.1.32c0,.08,0,.16-.07.23A28.8,28.8,0,0,0,75,110.82a26.55,26.55,0,0,0,3.94,5,7.36,7.36,0,0,1-7.33.39c-3-1.7-4.18-5.89-2.77-9.52a4,4,0,1,0-7.45-2.9c-2.86,7.35-.18,15.67,6.23,19.35A14.37,14.37,0,0,0,74.83,125a16.14,16.14,0,0,0,8.58-2.53,4,4,0,0,0,1.68-2.24,22.39,22.39,0,0,0,5.46,2,21.78,21.78,0,0,0,4.62.49c8.92,0,17.88-5.25,22.91-13.81a4,4,0,1,0-6.89-4c-4.19,7.11-12,11-19,9.55a16.67,16.67,0,0,1-10.38-7.73,20.52,20.52,0,0,1-2.36-15.94S81,81.78,82.26,80.46A32.78,32.78,0,0,0,86.34,75a35.38,35.38,0,0,1-1.29,9.54,33.1,33.1,0,0,0-1.18,7.65,10.5,10.5,0,0,0,21,0v-.12a5.87,5.87,0,0,1,11.74,0,4,4,0,0,0,8,0A13.88,13.88,0,0,0,110.73,78.18ZM33.35,52.31A18.19,18.19,0,1,1,51.54,70.5,18.19,18.19,0,0,1,33.35,52.31ZM60.54,76.9a7.69,7.69,0,1,1,7.69,7.69A7.69,7.69,0,0,1,60.54,76.9Z"/></svg>