<svg id="Symbols" xmlns="http://www.w3.org/2000/svg" viewBox="0 0 150 150"><title>platinum-black</title><path d="M102.44,106.77A31.8,31.8,0,1,1,134.23,75,31.82,31.82,0,0,1,102.44,106.77Zm0-54.59A22.8,22.8,0,1,0,125.23,75,22.82,22.82,0,0,0,102.44,52.18Z"/><path d="M47.56,106.77a31.69,31.69,0,0,1-11.71-2.23l-11.07-4.38,11.2-4a22.81,22.81,0,0,0,.65-42.65l-11-4.37,11.17-4a31.79,31.79,0,1,1,10.8,61.7ZM51,52.44a31.83,31.83,0,0,1-.75,45.17A22.8,22.8,0,0,0,51,52.44Z"/><circle cx="102.06" cy="75.57" r="5.83"/></svg>