<svg id="Symbols" xmlns="http://www.w3.org/2000/svg" viewBox="0 0 150 150"><defs><style>.cls-1{fill:none;stroke:#000;stroke-miterlimit:10;stroke-width:9px;}</style></defs><title>zinc-black</title><rect x="43.06" y="36.33" width="9" height="77.4"/><line class="cls-1" x1="102.44" y1="36.33" x2="102.44" y2="113.72"/><rect x="20.12" y="56.9" width="109.37" height="9"/><rect x="20.12" y="84.34" width="109.37" height="9"/><rect x="96.64" y="30.72" width="11.6" height="11.6" transform="translate(4.18 83.13) rotate(-45)"/><rect x="41.57" y="30.72" width="11.6" height="11.6" transform="translate(-11.95 44.19) rotate(-45)"/><rect x="14.32" y="55.6" width="11.6" height="11.6" transform="translate(-37.52 32.21) rotate(-45)"/><rect x="14.32" y="83.04" width="11.6" height="11.6" transform="translate(-56.93 40.25) rotate(-45)"/><rect x="123.69" y="55.6" width="11.6" height="11.6" transform="translate(-5.49 109.55) rotate(-45)"/><rect x="96.64" y="107.93" width="11.6" height="11.6" transform="translate(-50.41 105.74) rotate(-45)"/><rect x="41.76" y="107.93" width="11.6" height="11.6" transform="translate(-66.48 66.94) rotate(-45)"/><rect x="123.69" y="83.04" width="11.6" height="11.6" transform="translate(-24.89 117.59) rotate(-45)"/><circle cx="65.38" cy="74.68" r="6.51"/><circle cx="84.43" cy="74.68" r="6.51"/></svg>