<svg id="Symbols" xmlns="http://www.w3.org/2000/svg" viewBox="0 0 150 150"><defs><style>.cls-1{fill:#020202;}.cls-2{fill:none;stroke:#000;stroke-miterlimit:10;stroke-width:9px;}</style></defs><title>magnesium-black</title><circle class="cls-1" cx="113.6" cy="56.53" r="8.15"/><circle class="cls-1" cx="113.6" cy="92.84" r="8.15"/><circle cx="20.12" cy="47.68" r="8.15"/><circle cx="20.12" cy="102.56" r="8.15"/><rect x="43.06" y="35.89" width="9" height="77.59"/><path d="M47.56,118A43,43,0,0,1,17.15,105.5l6.32-6.4A34.08,34.08,0,0,0,47.56,109c18.36,0,39.31-18.27,39.31-34.3,0-16.66-20.21-34.29-39.31-34.29a34.11,34.11,0,0,0-24.26,10l-6.36-6.36A43,43,0,0,1,47.56,31.39c23.92,0,48.31,21.85,48.31,43.29C95.87,95.72,71,118,47.56,118Z"/><rect x="47.56" y="70.18" width="82.32" height="9"/><line class="cls-2" x1="113.6" y1="61.4" x2="113.6" y2="88.84"/></svg>