<svg id="Symbols" xmlns="http://www.w3.org/2000/svg" viewBox="0 0 150 150"><title>gold-black</title><path d="M74.81,106.77A31.8,31.8,0,1,1,106.6,75,31.83,31.83,0,0,1,74.81,106.77Zm0-54.59A22.8,22.8,0,1,0,97.6,75,22.83,22.83,0,0,0,74.81,52.18Z"/><path d="M74.47,52.18v-9a8.94,8.94,0,0,0,0-17.88v-9a17.94,17.94,0,0,1,0,35.88Z"/><path d="M58.45,59.1l-6.36-6.36A8.94,8.94,0,1,0,39.44,40.09l-6.37-6.37A17.95,17.95,0,1,1,58.45,59.1Z"/><path d="M52,75.32H43a8.94,8.94,0,1,0-17.88,0h-9a17.94,17.94,0,1,1,35.88,0Z"/><path d="M33.55,116.71A17.95,17.95,0,0,1,58.93,91.33L52.57,97.7a8.94,8.94,0,0,0-12.65,12.64Z"/><path d="M75.15,133.65a17.94,17.94,0,1,1,0-35.88v9a8.94,8.94,0,1,0,0,17.88Z"/><path d="M103.85,121.48A17.94,17.94,0,0,1,91.16,90.85l6.37,6.37a8.94,8.94,0,0,0,12.64,12.64l6.37,6.37A17.83,17.83,0,0,1,103.85,121.48Z"/><path d="M115.54,92.58A18,18,0,0,1,97.6,74.64h9a8.95,8.95,0,0,0,17.89,0h9A18,18,0,0,1,115.54,92.58Z"/><path d="M103.37,63.87a17.83,17.83,0,0,1-12.69-5.25l6.37-6.36a8.94,8.94,0,0,0,12.64-12.65l6.37-6.37a17.94,17.94,0,0,1-12.69,30.63Z"/></svg>