<svg xmlns="http://www.w3.org/2000/svg" viewBox="0 0 150 150"><title>The Three of Austra-bold</title><g id="The_Three_of_Austra" data-name="The Three of Austra"><g id="Bold"><rect x="45.54" y="40.47" width="8" height="80" transform="translate(-42.39 58.6) rotate(-45)"/><rect x="17.11" y="60.03" width="20" height="8"/><rect x="29.11" y="48.03" width="8" height="20"/><rect x="30.18" y="73.11" width="20" height="8"/><rect x="42.18" y="61.11" width="8" height="20"/><rect x="43.26" y="86.18" width="20" height="8"/><rect x="55.26" y="74.18" width="8" height="20"/><rect x="60.46" y="76.47" width="80" height="8" transform="translate(-27.47 94.6) rotate(-45)"/><rect x="112.89" y="60.03" width="20" height="8"/><rect x="112.89" y="48.03" width="8" height="20"/><rect x="99.82" y="73.11" width="20" height="8"/><rect x="99.82" y="61.11" width="8" height="20"/><rect x="86.74" y="86.18" width="20" height="8"/><rect x="86.74" y="74.18" width="8" height="20"/><rect x="71" y="61.35" width="8" height="44.58"/><polygon points="72.22 64.23 59.81 52.28 50.88 52.28 50.88 44.28 63.04 44.28 77.78 58.47 72.22 64.23"/><polygon points="77.78 64.23 72.22 58.47 86.96 44.28 99.12 44.28 99.12 52.28 90.19 52.28 77.78 64.23"/><polygon points="69.96 56.25 63.96 50.96 75.35 38.02 86.42 50.6 80.42 55.88 75.35 50.13 69.96 56.25"/></g></g></svg>