<svg xmlns="http://www.w3.org/2000/svg" viewBox="0 0 150 150"><title>Janis-bold</title><g id="Janis"><path d="M75,115.42a4,4,0,0,1-4-4v-65a4,4,0,0,1,8,0v65A4,4,0,0,1,75,115.42Z"/><path d="M75,50.42a12.5,12.5,0,1,1,12.5-12.5A12.52,12.52,0,0,1,75,50.42Zm0-17a4.5,4.5,0,1,0,4.5,4.5A4.51,4.51,0,0,0,75,33.42Z"/><circle cx="75" cy="37.92" r="3"/><rect x="79.25" y="102.42" width="8" height="27" transform="translate(-58.6 131.58) rotate(-60.61)"/><rect x="53.25" y="111.92" width="27" height="8" transform="matrix(0.87, -0.49, 0.49, 0.87, -48.29, 47.67)"/></g></svg>