<svg xmlns="http://www.w3.org/2000/svg" viewBox="0 0 150 150"><title>Māra&amp;apos;s water -bold</title><g id="Māra_s_water" data-name="Māra&apos;s water"><g id="Bold"><polygon points="48.78 87 37.07 73.36 25.36 87 19.29 81.78 37.07 61.07 54.85 81.78 48.78 87"/><polygon points="124.64 87 112.92 73.35 101.21 87 95.14 81.78 112.92 61.08 130.71 81.78 124.64 87"/><polygon points="75.93 87 69.86 81.78 87.64 61.07 105.42 81.78 99.35 87 87.64 73.36 75.93 87"/><polygon points="50.64 87 44.57 81.78 62.36 61.08 80.14 81.78 74.07 87 62.36 73.35 50.64 87"/><polygon points="100.28 88.93 82.5 68.22 88.57 63 100.28 76.64 112 63 118.06 68.22 100.28 88.93"/><polygon points="49.72 88.93 31.93 68.22 38.01 63 49.72 76.64 61.43 63 67.5 68.22 49.72 88.93"/><polygon points="74.99 88.92 57.21 68.22 63.28 63 75 76.65 86.72 63 92.79 68.22 74.99 88.92"/></g></g></svg>