<svg xmlns="http://www.w3.org/2000/svg" viewBox="0 0 150 150"><title>Martina-bold</title><g id="Martina"><g id="Bold"><rect x="74.15" y="42.02" width="8" height="58" transform="translate(-27.33 76.07) rotate(-45)"/><rect x="44.53" y="54.29" width="22" height="8" transform="translate(-24.96 56.33) rotate(-45)"/><rect x="111.81" y="68.81" width="8" height="26" transform="translate(-23.93 105.85) rotate(-45)"/><rect x="89.05" y="77.98" width="27" height="8" transform="translate(-27.94 96.52) rotate(-45)"/><rect x="107.93" y="88.41" width="20" height="8" transform="translate(-30.81 110.45) rotate(-45)"/><rect x="49.05" y="58.22" width="8" height="15" transform="translate(-30.93 56.76) rotate(-45)"/><rect x="107.21" y="86.68" width="8" height="15" transform="translate(-34.02 106.21) rotate(-45)"/><rect x="74.15" y="42.02" width="8" height="58" transform="translate(-27.33 76.07) rotate(-45)"/><rect x="44.53" y="54.29" width="22" height="8" transform="translate(-24.96 56.33) rotate(-45)"/><rect x="111.81" y="68.81" width="8" height="26" transform="translate(-23.93 105.85) rotate(-45)"/><rect x="89.05" y="77.98" width="27" height="8" transform="translate(-27.94 96.52) rotate(-45)"/><rect x="107.93" y="88.41" width="20" height="8" transform="translate(-30.81 110.45) rotate(-45)"/><rect x="49.05" y="58.22" width="8" height="15" transform="translate(-30.93 56.76) rotate(-45)"/><rect x="107.21" y="86.68" width="8" height="15" transform="translate(-34.02 106.21) rotate(-45)"/><rect x="42.85" y="67.02" width="58" height="8" transform="translate(-29.18 71.6) rotate(-45)"/><rect x="90.47" y="47.29" width="8" height="22" transform="translate(-13.55 83.87) rotate(-45)"/><rect x="21.19" y="77.81" width="26" height="8" transform="translate(-47.83 48.13) rotate(-45)"/><rect x="43.45" y="68.48" width="8" height="27" transform="translate(-44.07 57.56) rotate(-45)"/><rect x="28.07" y="82.41" width="8" height="20" transform="translate(-55.95 49.74) rotate(-45)"/><rect x="89.45" y="61.72" width="15" height="8" transform="translate(-18.08 87.8) rotate(-45)"/><rect x="31.29" y="90.18" width="15" height="8" transform="translate(-55.23 55.01) rotate(-45)"/><rect x="72" y="86.83" width="6" height="6" transform="translate(-41.55 79.34) rotate(-45)"/></g></g></svg>