<svg xmlns="http://www.w3.org/2000/svg" viewBox="0 0 150 150"><title>Saules zīme-bold</title><g id="Saules_zīme" data-name="Saules zīme"><g id="Bold"><path d="M75,94.8,55.2,75,75,55.2,94.8,75ZM66.51,75,75,83.49,83.49,75,75,66.51Z"/><rect x="95.79" y="49.96" width="0.5" height="8" transform="translate(-10.03 83.71) rotate(-45)"/><path d="M95.86,54.14,82.07,67.93,75,60.86l.75-10.14.93-12.45a14.12,14.12,0,0,1,1.5-1.81A12.5,12.5,0,1,1,95.86,54.14Z"/><path d="M82.07,73.59,70.88,62.39l1.9-25.49.61-.9a17.51,17.51,0,0,1,2-2.37A16.5,16.5,0,1,1,98.69,57ZM79.12,59.33l2.95,2.94,11-11a8.5,8.5,0,1,0-12-12c-.15.15-.29.3-.43.46Z"/><path d="M87.61,79.12,76.41,67.93,93,51.31a16.5,16.5,0,0,1,23.34,23.34,17.51,17.51,0,0,1-2.37,2l-.9.61Zm.12-11.19,2.94,2.95,19.58-1.46.46-.43h0a8.5,8.5,0,0,0-12-12Z"/><rect x="53.71" y="92.04" width="0.5" height="8" transform="translate(-52.1 66.29) rotate(-45)"/><path d="M54.14,95.86,67.93,82.07,75,89.14l-.75,10.14-.93,12.45a14.12,14.12,0,0,1-1.5,1.81A12.5,12.5,0,0,1,54.14,95.86Z"/><path d="M63,121.2A16.5,16.5,0,0,1,51.31,93L67.93,76.41l11.19,11.2-1.9,25.49-.61.9a17.51,17.51,0,0,1-2,2.37A16.42,16.42,0,0,1,63,121.2Zm5-33.47-11,11a8.5,8.5,0,1,0,12,12c.15-.15.29-.3.43-.46l1.46-19.58Z"/><path d="M45.3,103.51A16.5,16.5,0,0,1,33.63,75.35a17.51,17.51,0,0,1,2.37-2l.9-.61,25.49-1.9,11.2,11.19L57,98.69A16.48,16.48,0,0,1,45.3,103.51ZM39.75,80.58l-.46.43h0a8.5,8.5,0,1,0,12,12l11-11-2.94-2.95Z"/><rect x="92.04" y="95.79" width="8" height="0.5" transform="translate(-39.78 96.04) rotate(-45)"/><path d="M95.86,95.86,82.07,82.07,89.14,75l10.14.75,12.45.93a14.12,14.12,0,0,1,1.81,1.5A12.5,12.5,0,1,1,95.86,95.86Z"/><path d="M104.7,103.51A16.48,16.48,0,0,1,93,98.69L76.41,82.07l11.2-11.19,25.49,1.9.9.61a17.51,17.51,0,0,1,2.37,2,16.49,16.49,0,0,1-11.67,28.16Zm-17-21.44,11,11a8.5,8.5,0,1,0,12-12l-.46-.43L90.67,79.12Z"/><path d="M87,121.2a16.42,16.42,0,0,1-11.67-4.83,17.51,17.51,0,0,1-2-2.37l-.61-.9-1.9-25.49,11.19-11.2L98.69,93A16.5,16.5,0,0,1,87,121.2Zm-6.44-11c.14.16.28.31.43.46h0a8.5,8.5,0,0,0,12-12l-11-11-2.95,2.94Z"/><rect x="49.96" y="53.71" width="8" height="0.5" transform="translate(-22.35 53.96) rotate(-45)"/><path d="M54.14,54.14,67.93,67.93,60.86,75l-10.14-.75-12.45-.93a14.12,14.12,0,0,1-1.81-1.5A12.5,12.5,0,0,1,54.14,54.14Z"/><path d="M62.39,79.12,36.9,77.22l-.9-.61a17.51,17.51,0,0,1-2.37-2A16.5,16.5,0,0,1,57,51.31L73.59,67.93Zm-22.64-9.7,19.58,1.46,2.94-2.95-11-11a8.5,8.5,0,1,0-12,12Z"/><path d="M67.93,73.59,51.31,57A16.5,16.5,0,0,1,74.65,33.63a17.51,17.51,0,0,1,2,2.37l.61.9,1.9,25.49ZM63,36.8a8.5,8.5,0,0,0-6,14.51l11,11,2.95-2.94L69.42,39.75c-.14-.16-.28-.31-.43-.46h0A8.46,8.46,0,0,0,63,36.8Z"/></g></g></svg>