<svg id="Sun_Sign" data-name="Sun Sign" xmlns="http://www.w3.org/2000/svg" viewBox="0 0 150 150"><title>Sun Sign-bold</title><g id="Bold"><rect x="23.09" y="55.09" width="72" height="8" transform="translate(-24.48 59.09) rotate(-45)"/><rect x="50.85" y="48.85" width="8" height="12" transform="translate(-22.72 54.85) rotate(-45)"/><rect x="54.91" y="86.91" width="72" height="8" transform="translate(-37.66 90.91) rotate(-45)"/><rect x="91.15" y="89.15" width="8" height="12" transform="translate(-39.41 95.15) rotate(-45)"/><rect x="55.09" y="54.91" width="8" height="72" transform="translate(-46.98 68.41) rotate(-45)"/><rect x="48.85" y="91.15" width="12" height="8" transform="translate(-51.22 66.65) rotate(-45)"/><rect x="86.91" y="23.08" width="8" height="72.01" transform="translate(-15.16 81.59) rotate(-45)"/><rect x="89.15" y="50.85" width="12" height="8" transform="translate(-10.91 83.35) rotate(-45)"/><rect x="69" y="69" width="12.01" height="12.01" transform="translate(-31.07 75) rotate(-45)"/><path d="M75,89.15,60.85,75,75,60.85,89.15,75ZM72.17,75,75,77.83,77.83,75,75,72.17Z"/></g></svg>