<svg xmlns="http://www.w3.org/2000/svg" viewBox="0 0 150 150"><title>Thunder Cross-bold</title><g id="Thunder_Cross" data-name="Thunder Cross"><g id="Bold"><rect x="71" y="55" width="8" height="40"/><rect x="39" y="55" width="40" height="8"/><rect x="39" y="40" width="8" height="23"/><rect x="54" y="40" width="8" height="23"/><rect x="54" y="40" width="23" height="8"/><rect x="71" y="87" width="40" height="8"/><rect x="103" y="87" width="8" height="23"/><rect x="88" y="87" width="8" height="23"/><rect x="73" y="102" width="23" height="8"/><rect x="55" y="71" width="40" height="8"/><rect x="87" y="39" width="8" height="40"/><rect x="87" y="39" width="23" height="8"/><rect x="87" y="54" width="23" height="8"/><rect x="102" y="54" width="8" height="23"/><rect x="55" y="71" width="8" height="40"/><rect x="40" y="103" width="23" height="8"/><rect x="40" y="88" width="23" height="8"/><rect x="40" y="73" width="8" height="23"/></g></g></svg>