<svg xmlns="http://www.w3.org/2000/svg" viewBox="0 0 150 150"><title>Usins2-bold</title><g id="Usins2"><g id="Bold"><rect x="56" y="25" width="8" height="100"/><rect x="26" y="25" width="38" height="8"/><rect x="26" y="25" width="8" height="16"/><rect x="26" y="117" width="38" height="8"/><rect x="26" y="109" width="8" height="16"/><rect x="31" y="71" width="33" height="8"/><rect x="31" y="58.5" width="8" height="33"/><rect x="86" y="25" width="8" height="100"/><rect x="86" y="25" width="38" height="8"/><rect x="116" y="25" width="8" height="16"/><rect x="86" y="117" width="38" height="8"/><rect x="116" y="109" width="8" height="16"/><rect x="86" y="71" width="33" height="8"/><rect x="111" y="58.5" width="8" height="33"/><rect x="71" y="25" width="8" height="100"/></g></g></svg>