<svg id="Symbols" xmlns="http://www.w3.org/2000/svg" viewBox="0 0 150 150"><defs><style>.cls-1{fill:#221f20;}</style></defs><title>rub-el-hizb-bold</title><path class="cls-1" d="M91,36.41l-16-16-16,16H36.41V59l-16,16,16,16v22.61H59l16,16,16-16h22.61V91l16-16-16-16V36.41Zm14.61,8V51L99,44.41Zm0,17.92V87.67L87.67,105.59H62.33L44.41,87.67V62.33L62.33,44.41H87.67ZM75,31.75l4.67,4.66H70.33ZM44.41,44.41H51L44.41,51ZM31.75,75l4.66-4.67v9.34Zm12.66,30.59V99L51,105.59ZM75,118.25l-4.67-4.66h9.34Zm30.59-12.66H99L105.59,99ZM118.25,75l-4.66,4.67V70.33Z"/><path class="cls-1" d="M60,75A15,15,0,1,0,75,60,15,15,0,0,0,60,75Zm15-7a7,7,0,1,1-7,7A7,7,0,0,1,75,68Z"/></svg>