<svg id="Symbols" xmlns="http://www.w3.org/2000/svg" viewBox="0 0 150 150"><defs><style>.cls-1{fill:#221f20;}</style></defs><title>star-and-crescent-bold</title><path class="cls-1" d="M75,130a54.65,54.65,0,0,0,30.75-9.4q-1.86.15-3.75.15a45.75,45.75,0,0,1,0-91.5q1.89,0,3.75.15A55,55,0,1,0,75,130ZM75,28h.92a53.73,53.73,0,0,0,0,94H75a47,47,0,0,1,0-94Z"/><path class="cls-1" d="M107.18,68.86l-7.06-21.75L93.05,68.86H70.18L88.68,82.3l-7.06,21.75,18.5-13.44,18.5,13.44L111.55,82.3l18.5-13.44Zm.56,14.68,3.27,10-8.54-6.21-2.35-1.71-2.36,1.71-8.54,6.21,3.27-10,.89-2.77L91,79.07l-8.54-6.21H96l.89-2.76,3.27-10,3.26,10,.9,2.76h13.46l-8.54,6.21-2.35,1.7Z"/></svg>