<svg id="Symbols" xmlns="http://www.w3.org/2000/svg" viewBox="0 0 150 150"><defs><style>.cls-1{fill:#221f20;}</style></defs><title>Ramadhan-Mubarek-bold</title><path class="cls-1" d="M36.51,84.28a1.31,1.31,0,0,1,.87.31l5.2-6.08a9.36,9.36,0,0,0-15.43,7.12A8.83,8.83,0,0,0,27.26,87H22.55v8H42.47V87H36.75v0a1.4,1.4,0,0,1-1.59-1.35A1.35,1.35,0,0,1,36.51,84.28Z"/><path class="cls-1" d="M118.29,42.27a16.31,16.31,0,0,1-6.09,23.36l3.73,7.08a24.32,24.32,0,0,0,9-34.83Z"/><path class="cls-1" d="M60.52,103.28a16.34,16.34,0,0,1-12.7,20.54l1.47,7.86a24.33,24.33,0,0,0,18.92-30.61Z"/><path class="cls-1" d="M68.48,46.34V50H65.55V47h-8v3h-2V20h-8V58h66V49a12.22,12.22,0,0,0-3.6-9.08c-4.15-4-10.16-3.87-10.84-3.84l-3.84.15V50H91.62V36.34H78.48A10,10,0,0,0,68.48,46.34Zm34.79-1.43a4.43,4.43,0,0,1,1.15.79,4.18,4.18,0,0,1,1.13,3.3v1h-2.28ZM83.62,50H76.48V46.34a2,2,0,0,1,2-2h5.14Z"/><path class="cls-1" d="M120.15,97.14a19.91,19.91,0,0,0-7-1.69L109,95.33V110h-4.44V96h-8v14.18l-14,.08V70h-8v48.3l53-.3H128v-8.88A12.62,12.62,0,0,0,120.15,97.14ZM117,104.45a4.94,4.94,0,0,1,3,4.67V110h-3Z"/><path class="cls-1" d="M31.32,63.27A13.06,13.06,0,0,0,44.19,50.05V42h-8v8.1a5.06,5.06,0,0,1-4.87,5.22,4.66,4.66,0,0,1-3.39-1.47,5.33,5.33,0,0,1-1.48-3.75V42h-8v8.1a13.33,13.33,0,0,0,3.71,9.29A12.6,12.6,0,0,0,31.32,63.27Z"/><circle class="cls-1" cx="80.9" cy="28.34" r="4"/><circle class="cls-1" cx="88.55" cy="126" r="4"/><circle class="cls-1" cx="32.41" cy="33.34" r="4"/><path class="cls-1" d="M55.55,108V70h-8v38a3,3,0,0,1-3,3h-15a3,3,0,0,1-3-3V99h-8v9a11,11,0,0,0,11,11h15A11,11,0,0,0,55.55,108Z"/></svg>