<svg id="Symbols" xmlns="http://www.w3.org/2000/svg" viewBox="0 0 150 150"><defs><style>.cls-1{fill:#221f20;}</style></defs><title>kaaba-mecca-bold</title><path class="cls-1" d="M129.05,40.58,75,17.71,21,40.58V115.5L75,132.13l54.05-16.63Zm-8,14.12L77,44.53V39.21l44.05,13.55ZM73,44.53,29,54.7V52.76L73,39.21ZM29,58.8,73,48.64v56.72c-6.83-2.57-8.51-17.87-8.52-18l-4,.19c0,2.28-2.6,13.41-9.55,13.41s-9.57-12.71-9.59-12.84l-4,.4c0,4.06-2.34,8.58-5.7,8.58A4,4,0,0,1,29,95.9ZM77,48.64,121.05,58.8V95.9a4,4,0,0,1-2.73,1.16c-3.36,0-5.7-4.52-5.7-8.58l-4-.4c0,.13-2.78,12.84-9.59,12.84s-9.55-11.13-9.55-13.41l-4-.19c0,.17-1.69,15.47-8.52,18Zm44.05-.07L77,35V27.25l44.05,18.64ZM73,27.25V35L29,48.57V45.89Zm-44,73.3a7.37,7.37,0,0,0,2.73.51c3.57,0,6.33-2.31,8-5.46,2,4.4,5.53,9.32,11.29,9.32s9.23-4.28,11.27-8.71c1.68,5.6,4.88,12.09,10.79,13.3v13.63L29,109.59ZM77,123.14V109.51c5.91-1.21,9.11-7.7,10.79-13.3,2,4.43,5.6,8.71,11.27,8.71s9.29-4.92,11.29-9.32c1.64,3.15,4.4,5.46,8,5.46a7.37,7.37,0,0,0,2.73-.51v9Z"/></svg>