<svg id="Symbols" xmlns="http://www.w3.org/2000/svg" viewBox="0 0 150 150"><defs><style>.cls-1{fill:#221f20;}</style></defs><title>allahu-akbar-bold</title><path class="cls-1" d="M94.91,127.26a7.88,7.88,0,0,0,1.28-.05,9.83,9.83,0,0,0,2.47-.48,5.11,5.11,0,0,0,1.13-.44l1.08-.54a18,18,0,0,0,1.86-1.29l.23-.17.11-.08.15-.13,0,0,0,0,.31-.3c.21-.21.39-.36.72-.73a12.31,12.31,0,0,0,1.46-1.94,11.91,11.91,0,0,0,1.59-4.32,16.71,16.71,0,0,0,.11-4.22,22.87,22.87,0,0,0-.7-3.82c-.32-1.21-.68-2.38-1.06-3.51-.77-2.27-1.59-4.43-2.31-6.58a30.9,30.9,0,0,1-1.64-6.4,12.11,12.11,0,0,1-.09-1.59v-.76l.07-.87a15.33,15.33,0,0,1,.21-1.61l.17-.78.08-.27h.23a4.44,4.44,0,0,1,.87.22,4.56,4.56,0,0,1,.84.39,2.06,2.06,0,0,1,.4.25,3.68,3.68,0,0,1,.39.3,5.71,5.71,0,0,1,.69.7,8.57,8.57,0,0,1,.61.81c.18.28.33.59.51.89l.44,1-.2-1c-.1-.34-.19-.69-.32-1a7.34,7.34,0,0,0-.45-1,7.12,7.12,0,0,0-.6-.94,5.07,5.07,0,0,0-.37-.44,3.18,3.18,0,0,0-.41-.41,5.42,5.42,0,0,0-.94-.69,6,6,0,0,0-1.09-.49,5.87,5.87,0,0,0-.6-.16,4,4,0,0,0-.68-.08h-.45l-.27.48-.47.86-.37.88c-.21.57-.44,1.24-.58,1.79l-.22.84c-.08.37-.12.65-.17,1a17.67,17.67,0,0,0-.18,1.9,34,34,0,0,0,.71,7.33c.48,2.34,1,4.62,1.52,6.83a32.25,32.25,0,0,1,.8,6.36,7.89,7.89,0,0,1-1.33,4.84,6.3,6.3,0,0,1-.7.78,4.38,4.38,0,0,1-.54.48l-.34.28,0,0,0,0,.11-.1h0l-.06,0-.14.08a10.49,10.49,0,0,1-1,.61l-.51.2a1.2,1.2,0,0,1-.5.15,3.06,3.06,0,0,1-.94.11,2.46,2.46,0,0,1-.47,0,3.89,3.89,0,0,0-.47-.09,5.81,5.81,0,0,1-2-.9,10.59,10.59,0,0,1-2-1.67c-.32-.32-.63-.68-.93-1l-.42-.55c-.13-.17-.29-.41-.33-.48l-.37-.61L82.6,84.36,82,117.23a.21.21,0,0,0,0,.06c-.25.39-.5.78-.78,1.14a9.77,9.77,0,0,1-1.72,1.87,5.65,5.65,0,0,1-1.75,1.06,2.73,2.73,0,0,1-.82.17c-.13,0-.26,0-.4,0a3,3,0,0,0-.42,0c-.32,0-.45-.12-.67-.12a1.21,1.21,0,0,1-.18,0l-.39-.18-.79-.36-.23-.11h0l-.11-.07c-.15-.1-.33-.19-.46-.29l-.41-.32-.35-.34a6.93,6.93,0,0,1-1.7-4,29.18,29.18,0,0,1,0-6l.59-6.88a37.52,37.52,0,0,0-.12-7.68l-.18-1c-.06-.35-.16-.76-.25-1.14s-.18-.62-.27-.92l-.17-.55-.18-.47a18.17,18.17,0,0,0-1.94-3.87,8.65,8.65,0,0,0-2.06-2.14,5.76,5.76,0,0,0-1.93-.89,5.24,5.24,0,0,0-2.49,0,6,6,0,0,0-3.19,2,9.48,9.48,0,0,0-1.39,2.22,15.25,15.25,0,0,0-1.18,4.24,19.09,19.09,0,0,0-.07,4,29.94,29.94,0,0,1-.39,6.26,14.6,14.6,0,0,1-1.85,5.47A3,3,0,0,1,50,109.8a4.44,4.44,0,0,1-2.17-1.19,4.77,4.77,0,0,1-1.08-2.38,16.12,16.12,0,0,1,.52-6.4,41.2,41.2,0,0,1,2.24-6.49,32.48,32.48,0,0,0-3.63,6A17.11,17.11,0,0,0,44,106.46a7.68,7.68,0,0,0,1.17,4.06,7.89,7.89,0,0,0,3.38,2.76l.2.09.28.11.58.19a7.23,7.23,0,0,0,1.14.25,6.85,6.85,0,0,0,2.46-.13,7.41,7.41,0,0,0,2.27-1,9.45,9.45,0,0,0,1.71-1.54,18.92,18.92,0,0,0,3.53-7.14,34.57,34.57,0,0,0,1.19-7.44,13.79,13.79,0,0,1,.26-3,10,10,0,0,1,.51-1.63,14,14,0,0,1,1.07,4.05,33.75,33.75,0,0,1-.18,6.12c-.21,2.19-.54,4.47-.77,6.88a34.79,34.79,0,0,0,0,7.77A17,17,0,0,0,64,121.24a13.07,13.07,0,0,0,2.72,4.08c.3.29.6.57.91.84l1,.74c.33.24.67.42,1,.63l.25.15.13.08,0,0,.32.15,0,0,.4.18.79.35.39.18.66.21a11.37,11.37,0,0,0,2.7.55c.44,0,.87.06,1.31.07a11.62,11.62,0,0,0,1.31-.13,11.33,11.33,0,0,0,2.53-.65,13.64,13.64,0,0,0,4.08-2.57,16.1,16.1,0,0,0,2.16-2.31,14.94,14.94,0,0,0,2.48,1.72,13,13,0,0,0,4.48,1.59ZM63.51,90.73l0,0C63.62,90.62,63.63,90.66,63.51,90.73Z"/><path class="cls-1" d="M94.85,29.15a4.6,4.6,0,0,1-.23.47s.12-.13.34-.41a7.29,7.29,0,0,0,.81-1.34,4.77,4.77,0,0,0,.37-1.14,2.22,2.22,0,0,0-.29-1.59,2.75,2.75,0,0,0-1.61-1.05,8.41,8.41,0,0,0-2-.21,23.61,23.61,0,0,0-4.3.54c-1.51.3-3.07.67-4.79,1-3.41.74-7.28,1.56-11.47,2.64l-2.82.73-1.05-1.21a17.46,17.46,0,0,1-1.27-1.48,35.83,35.83,0,0,1-2.19-3.05c-.17-.27-.36-.55-.52-.83l.46.1c.63.12,1.25.25,1.89.35s1.26.22,1.9.3c-.49-.42-1-.8-1.51-1.2s-1-.77-1.53-1.15C64,19.9,63,19.18,62,18.48l-1.77-1.19-.53,2.38a4.89,4.89,0,0,0-.09.53,2.73,2.73,0,0,0,0,.37l0,.7a12.38,12.38,0,0,0,.1,1.26,13.5,13.5,0,0,0,.5,2.33L60.42,26c.12.37.27.7.41,1.05.28.69.58,1.38.89,2.07.24.53.52,1,.8,1.52-1.42.43-2.85.89-4.31,1.41a53.65,53.65,0,0,0-7.38,3.16,15.73,15.73,0,0,0-4,2.9,7.82,7.82,0,0,0-1.06,1.42A6,6,0,0,0,45,41.88a5.42,5.42,0,0,0,.58,2.84A6.35,6.35,0,0,0,47,46.48a8.46,8.46,0,0,0,1.33,1c.21.14.41.25.62.37l.5.27,1.73,1c1.09.61,2.23,1.3,3.34,2,2.22,1.42,4.43,3,6.6,4.58s4.28,3.36,6.31,5.15A56.81,56.81,0,0,1,73,66.5a26.31,26.31,0,0,1,2.22,2.93A9.7,9.7,0,0,1,76.07,71l-.58-.18c-1.1-.37-2.41-.93-3.82-1.45A27.09,27.09,0,0,0,67,68.08,15.71,15.71,0,0,0,61.73,68l-.68.11-.28.07-.13,0-.24.07-1,.26a25,25,0,0,0-2.38.87,33.94,33.94,0,0,0-7.47,4.55c-2.16,1.7-4.1,3.45-5.9,5.18S40.18,82.44,38.53,84A34.29,34.29,0,0,1,33.74,88c-1.59,1-3,1.47-4.18,1.18a4.18,4.18,0,0,1-1.79-.91,10.28,10.28,0,0,1-.82-.8c-.23-.29-.54-.63-.72-.86L25.87,86l-.25-.42a5.92,5.92,0,0,1-.71-2.77,6.48,6.48,0,0,1,1.17-3.38,16.44,16.44,0,0,1,4-4,19.32,19.32,0,0,1,1.71-1.13,14,14,0,0,0-1.94.73,15.7,15.7,0,0,0-5,3.37,8.36,8.36,0,0,0-2.23,4.07,7,7,0,0,0,0,2.81,8.49,8.49,0,0,0,.4,1.43l.3.73.28.59c.27.51.52.86.79,1.31a13.64,13.64,0,0,0,1,1.28,7.91,7.91,0,0,0,3,2.12,7.41,7.41,0,0,0,4,.38A13.29,13.29,0,0,0,35.92,92c4.36-2.18,7.89-5.36,11.7-8.37,1.9-1.51,3.82-3,5.83-4.37A28.54,28.54,0,0,1,59.65,76c.56-.23,1-.28,1.43-.45l1-.21.25,0,.13,0h.06s.2,0-.1,0l.33,0a8.46,8.46,0,0,1,2.87.21,20.84,20.84,0,0,1,3.32,1.11c1.2.48,2.44,1.06,4,1.63a14.87,14.87,0,0,0,2.78.75A7.57,7.57,0,0,0,80,78.39a6.73,6.73,0,0,0,2-1.46,6,6,0,0,0,.77-.93l.34-.51.13-.24.13-.23.15-.3.06-.15.11-.3a5.69,5.69,0,0,0,.35-1.19,9.42,9.42,0,0,0,.13-1.15c0-.34,0-.69,0-1a10.67,10.67,0,0,0-.86-3.22A18,18,0,0,0,82,65.24a32.82,32.82,0,0,0-2.91-3.93,74.31,74.31,0,0,0-12.27-11c.13-.46.25-.92.34-1.39a12.76,12.76,0,0,0,.28-1.75,13,13,0,0,0,.1-1.76,13.61,13.61,0,0,0-.13-1.71c-.08-.55-.25-1.07-.37-1.57s-.38-.91-.55-1.3a5,5,0,0,0-.59-1l-.6-.81a2.24,2.24,0,0,0-.3-.32,2,2,0,0,0-2.66,3l.22.19s.15.12.4.35a1.87,1.87,0,0,1,.46.44c.15.21.35.42.53.7s.33.61.49,1a11.59,11.59,0,0,1,.38,1.25,10.42,10.42,0,0,1,.25,1.45,11.36,11.36,0,0,1,.1,1.56c0,.13,0,.27,0,.41q-3.34-2.37-6.84-4.4c-1.26-.72-2.49-1.4-3.8-2.07-.61-.32-1.16-.58-1.71-.83a13.25,13.25,0,0,1,1.31-.93,52.76,52.76,0,0,1,6.3-3.28c1.7-.77,3.39-1.48,5.07-2.17l.8,1.1c.86,1.14,1.7,2.35,2.65,3.38l2.86,3.16,1.46,1.56,1.43,1.46c1,1,2,1.92,2.89,2.87s1.92,1.86,2.84,2.82,1.88,1.88,2.78,2.83c.48.47.89.94,1.34,1.41s.87.95,1.27,1.43a31.84,31.84,0,0,1,2.3,2.91,15.55,15.55,0,0,1,1,1.52l.46.78.38.82A25.1,25.1,0,0,1,91.24,67L91.73,69l.47,2c.31,1.36.65,2.74,1,4.11a44.94,44.94,0,0,0,1.58-8.41,20.57,20.57,0,0,0-.18-4.55L94.45,61l-.31-1.14a19.42,19.42,0,0,0-.77-2.22,27.8,27.8,0,0,0-2.08-4.07,22,22,0,0,0-1.21-1.86c-.42-.59-.82-1.24-1.27-1.79-.88-1.13-1.76-2.28-2.7-3.34s-1.86-2.14-2.84-3.16-1.94-2-2.92-3L78.86,39l-1.4-1.42-2.87-2.78a27.13,27.13,0,0,1-2.06-2.1l.56-.22,11-4.08c1.63-.61,3.19-1.18,4.58-1.74a21.49,21.49,0,0,1,3.79-1.17c1.13-.2,2.2-.2,2.67.26a2.21,2.21,0,0,1,.25,2A9.15,9.15,0,0,1,94.85,29.15ZM76.24,71.58h0l0,.07S76.22,71.6,76.24,71.58Zm.69-.4ZM51.88,42.74a.2.2,0,0,1-.07.11Z"/><path class="cls-1" d="M114.2,87.81c-.13,1.25-.35,2.53-.57,3.83l-.37,2-.4,2c-.28,1.34-.54,2.7-.76,4.08A44.27,44.27,0,0,0,117,92.89,32,32,0,0,0,118.87,89a23.25,23.25,0,0,0,1.32-4.24,14,14,0,0,0,.38-2.26l.12-1.15V80.21a12.58,12.58,0,0,0-.14-2.37,15.59,15.59,0,0,0-.4-2.35c-.22-.77-.38-1.57-.67-2.3s-.59-1.48-.91-2.22a28.45,28.45,0,0,0-2.51-4l-.74-1-.37-.47-.34-.37-1.37-1.48-2.79-2.9A34,34,0,0,1,107.84,58l-2.53-2.85-2.36-3c-.81-1-1.47-2.07-2.26-3.08-.41-.51-.7-1.07-1.06-1.6-.21-.33-.44-.66-.66-1l.19,0a7.13,7.13,0,0,0,1.13,0,10,10,0,0,0,2.2-.25c-.35-.12-.68-.25-1-.39a10.52,10.52,0,0,1-1-.45,9.67,9.67,0,0,1-.89-.5c-.29-.19-.58-.33-.84-.54L98,43.83a2.11,2.11,0,0,1-.35-.32l-.32-.33-.31-.31-.25-.37-.49-.68-4-5.61.86,7.27a29.44,29.44,0,0,0,.9,4.32c.42,1.36.87,2.73,1.41,4.05s1.15,2.61,1.81,3.87l2.15,3.7c.81,1.16,1.64,2.31,2.49,3.46a34,34,0,0,0,2.74,3.26l2.74,3,1.4,1.45.35.36a3.19,3.19,0,0,1,.25.33l.48.62a23.69,23.69,0,0,1,1.9,2.68c.25.49.51,1,.78,1.46a15.42,15.42,0,0,1,.62,1.51,9.18,9.18,0,0,1,.51,1.56c.07.26.17.53.22.8s.09.55.15.82l.16.84.06.86a14.32,14.32,0,0,1,.1,1.75c0,.6,0,1.2,0,1.81S114.3,87.19,114.2,87.81Z"/><path class="cls-1" d="M77.4,88.17a12.36,12.36,0,0,0-1.85,2.4,7.58,7.58,0,0,0-.73,1.64A5.72,5.72,0,0,0,74.58,94c0,.29.07.56.1.8a3,3,0,0,0,.19.63l.21.55,1.64-1.15h0l1.64-1.14-.12-.07a.35.35,0,0,1-.16-.1,1.24,1.24,0,0,1-.19-.2c0-.1-.13-.2-.2-.34a4.11,4.11,0,0,1-.15-.49,5.44,5.44,0,0,1-.09-1l.91-4.18A12.31,12.31,0,0,0,77.4,88.17Z"/><path class="cls-1" d="M110.24,47.42a12.46,12.46,0,0,0-1.85,2.41,7.27,7.27,0,0,0-.72,1.63,5.46,5.46,0,0,0-.24,1.78,6.24,6.24,0,0,0,.1.8,2.87,2.87,0,0,0,.18.62l.22.55,3.28-2.29-.12-.06s-.12,0-.16-.1-.13-.11-.2-.2-.13-.21-.19-.34a3.78,3.78,0,0,1-.15-.5,5.44,5.44,0,0,1-.09-1l.9-4.18S110.8,46.84,110.24,47.42Z"/><path class="cls-1" d="M110.51,84.31l-.13-.07s-.11,0-.16-.1-.12-.11-.19-.2-.13-.2-.19-.34a4.11,4.11,0,0,1-.15-.49,4.33,4.33,0,0,1-.09-1l.9-4.17a13,13,0,0,0-1,.91,12.46,12.46,0,0,0-1.85,2.41,8,8,0,0,0-.73,1.63,6.06,6.06,0,0,0-.24,1.78,6.18,6.18,0,0,0,.11.8,3,3,0,0,0,.18.63c.14.34.21.54.21.54Z"/><path class="cls-1" d="M44.25,61.4c-.15.38-.23.81-.44,1.23a11.47,11.47,0,0,1-.67,1.3,11,11,0,0,1-.87,1.31,14.81,14.81,0,0,1-1,1.26c-.33.42-.71.79-1.05,1.17-.72.73-1.42,1.4-2,1.94C36.92,70.7,36,71.34,36,71.34s1-.42,2.53-1.21c.75-.4,1.61-.9,2.51-1.48.43-.31.91-.6,1.35-1a15.33,15.33,0,0,0,1.35-1.09A12.4,12.4,0,0,0,45,65.37,14.42,14.42,0,0,0,46.16,64c.36-.46.63-1,.93-1.45s.44-1,.64-1.47.24-1,.34-1.38a4.56,4.56,0,0,0,.1-1.11c0-.64,0-1,0-1a2.12,2.12,0,0,0,0-.44,2,2,0,0,0-4,.83l.06.28.11.53a1.85,1.85,0,0,1,.1.63c0,.25,0,.54,0,.87S44.35,61,44.25,61.4Z"/><path class="cls-1" d="M107.7,43.91c.15-.39.26-.78.4-1.16s.28-.76.43-1.17c.08-.2.16-.41.26-.62s.19-.43.3-.66.24-.46.37-.72.3-.51.49-.79a2.77,2.77,0,0,0-1-.2,4.74,4.74,0,0,0-1,.09,5,5,0,0,0-1.8.81,4.63,4.63,0,0,0-.58.5,5.9,5.9,0,0,0-.7-.5,5.38,5.38,0,0,0-1.94-.71,4.7,4.7,0,0,0-1.06,0,2.68,2.68,0,0,0-1,.35,6.57,6.57,0,0,1,.64.7,6.68,6.68,0,0,1,.46.67c.27.43.49.85.71,1.27l1.3,2.42a2,2,0,0,0,3.65-.22Z"/><circle class="cls-1" cx="56" cy="84" r="3"/><path class="cls-1" d="M101.15,75.11a5,5,0,0,0-1.33-1,5.05,5.05,0,0,0-.34,1.62.75.75,0,0,0,0,.15c0,.29-.09.56-.13.82L99,76.27c-.29-.31-.59-.66-.91-1l-2-2,.12,1.83c0,.23,0,.47,0,.7h-.1a7.19,7.19,0,0,0,0,1.61A6.35,6.35,0,0,0,96.58,79a5.42,5.42,0,0,0,.47.83,3.91,3.91,0,0,0,.35.43,2.53,2.53,0,0,0,.47.43,2.67,2.67,0,0,0,.66.4l.41.16a3.59,3.59,0,0,0,.64.1,3.42,3.42,0,0,0,.65,0l.17,0,.08,0,.4-.12a2.46,2.46,0,0,0,.45-.25,2.41,2.41,0,0,0,.74-.68l.05-.07.08,0a2.45,2.45,0,0,0,1,0,2.78,2.78,0,0,0,.5-.11l.38-.18.07,0,.15-.08a2.84,2.84,0,0,0,.51-.42,2.65,2.65,0,0,0,.42-.5,3.54,3.54,0,0,0,.19-.39,2.81,2.81,0,0,0,.24-.73,3.11,3.11,0,0,0,.06-.64,3,3,0,0,0,0-.54,4.47,4.47,0,0,0-.19-.94,6.35,6.35,0,0,0-.72-1.48A7,7,0,0,0,103.74,73l-.07.07-.42-.56L102.12,71l-.2,2.81c0,.44,0,.91,0,1.33v.59c-.2-.17-.41-.35-.64-.53A.52.52,0,0,0,101.15,75.11Zm-2.14,3s0,0,0,0a.44.44,0,0,1,.08-.2l.12-.13a.7.7,0,0,1-.11.3C99.05,78,99,78.07,99,78.06Zm4-1.53s0,0-.1,0a.77.77,0,0,1-.28-.15h.17a.68.68,0,0,1,.2.1C103.08,76.53,103.06,76.53,103,76.53Z"/><path class="cls-1" d="M39.91,54.33a38,38,0,0,0-3.8,4.86,27.68,27.68,0,0,0-3.24,6.51,14.13,14.13,0,0,0-.75,3.91,7.59,7.59,0,0,0,1,4.26,6.1,6.1,0,0,0,1.55,1.71l.16.11.09,0,.15.09a5.59,5.59,0,0,0,.65.32,4.23,4.23,0,0,0,1.13.24,5.7,5.7,0,0,0,3.47-.93,10.33,10.33,0,0,0,2-1.7,12.84,12.84,0,0,0,1.21-1.53,11.05,11.05,0,0,0,.65-1.06c.13-.25.21-.38.21-.38l-1.4.86c-.44.27-1,.57-1.6.89a12.81,12.81,0,0,1-2.06.81,3.56,3.56,0,0,1-2,.07c-.49-.15-.78-.59-1.08-1.23-.52-1.2-.22-3.26.46-5.26a52.28,52.28,0,0,1,2.51-6c.93-1.92,1.85-3.73,2.63-5.3s1.43-2.9,1.88-3.85.69-1.5.69-1.5-.51.34-1.32,1A35,35,0,0,0,39.91,54.33Z"/><path class="cls-1" d="M81.07,39.19l6-4.82-1.25-1.56L83.08,35c-1.28-.79-1.09-1.42-1-1.71s1.37-1.09,2.38-1.37L83.92,30c-.53.15-3.21,1-3.75,2.7a3.13,3.13,0,0,0,1.28,3.61l-1.64,1.32Z"/><path class="cls-1" d="M50.44,30l6-4.82-1.26-1.56-2.73,2.2c-1.28-.79-1.09-1.42-1-1.71.14-.44,1.37-1.09,2.38-1.37l-.54-1.93c-.53.15-3.21,1-3.75,2.7a3.14,3.14,0,0,0,1.29,3.61l-1.64,1.32Z"/></svg>