<svg id="Symbols" xmlns="http://www.w3.org/2000/svg" viewBox="0 0 150 150"><defs><style>.cls-1{fill:#221f20;}</style></defs><title>Islamic-lantern-bold</title><path class="cls-1" d="M101.77,62.65V59.2a10,10,0,0,0,7.92-9.47v-4H99.26c-1.14-4.15-4.4-8.73-12.36-12A43.61,43.61,0,0,0,81.31,32a7.47,7.47,0,0,0,1.61-4.65,7.55,7.55,0,1,0-13.6,4.5,43.92,43.92,0,0,0-6.22,1.94c-8,3.23-11.22,7.81-12.36,12H40.31v4a10,10,0,0,0,7.92,9.47v3.45h2V99.2h-3v4.86c-5.38,2-6.93,6.41-6.93,9v4H51.13c1.18,2.79,3.88,6.27,10,7.8,4.67,1.17,8.7,2.17,9.67,3.39l1.2,1.49H78l1.2-1.49c1-1.22,5-2.22,9.67-3.39,6.15-1.54,8.85-5,10-7.8h10.82v-4c0-2.63-1.55-7-6.93-9V99.2h-3V62.65ZM56.23,53.73h2v-4c0-8.17,14.26-10.48,16.79-10.82,2.54.35,16.79,2.65,16.79,10.82v4h2v.92h-2v4.63l-1-1L89.4,59.73c-3,3-3.81,8-4,11.38L84,70.43c-.55-10.87-8.18-12.9-8.51-13L75,57.32l-.49.12c-.33.09-8,2.12-8.51,13l-1.36.68c-.23-3.36-1.08-8.42-4-11.38l-1.42-1.42-1,1V54.65h-2ZM91.79,101.2H89.3V77.56l.16.08-.16-3.41c-.09-1.9.1-6.68,1.67-9.85.27.34.55.73.81,1.13h0ZM58.21,65.51h0c.26-.4.54-.78.81-1.13,1.56,3.17,1.76,8,1.67,9.85l-.16,3.4.16-.07V101.2H58.21Zm6.49,10L70,72.92V71.69c0-7.26,3.67-9.58,5-10.18,1.37.61,5,2.93,5,10.18v1.23l5.27,2.64V101.2H64.7Zm27.09,37.49c-.07.63-.61,3-4.89,4.09-5.28,1.32-9.18,2.29-11.9,4.21-2.72-1.92-6.62-2.89-11.9-4.21-4.28-1.07-4.82-3.46-4.89-4.09l.27-4H55.24v-1.9h3v-2H91.79v2h3l0,1.84-3.27-.2Z"/></svg>