<svg id="Symbols" xmlns="http://www.w3.org/2000/svg" viewBox="0 0 150 150"><defs><style>.cls-1{fill:#221f20;}</style></defs><title>Allah-bold</title><path class="cls-1" d="M55.74,93.2a48.36,48.36,0,0,0,.79-10l-.09-1.34c0-.45-.12-1-.19-1.46s-.15-.83-.23-1.23l-.15-.71-.17-.63a23,23,0,0,0-2-5.15,10.52,10.52,0,0,0-2.2-2.78,6.87,6.87,0,0,0-2.09-1.23,6,6,0,0,0-2.77-.29,7.07,7.07,0,0,0-3.89,2,11.6,11.6,0,0,0-2,2.56,18.88,18.88,0,0,0-2,5.21,22.7,22.7,0,0,0-.45,2.74c-.06.57-.05.76-.09,1.31l0,1a41.24,41.24,0,0,1-1.44,8.53,19.92,19.92,0,0,1-3.45,7.38A7.86,7.86,0,0,1,32,100.35a4.94,4.94,0,0,1-1.39.67,5.49,5.49,0,0,1-3.27-.33,6.37,6.37,0,0,1-2.94-2.15,7,7,0,0,1-1.15-3.61A22.22,22.22,0,0,1,25,86.32,56.32,56.32,0,0,1,29,78a45.32,45.32,0,0,0-5.36,7.71,31.89,31.89,0,0,0-2,4.36,17.12,17.12,0,0,0-1.07,4.86,10,10,0,0,0,1.1,5.29,9.89,9.89,0,0,0,4,3.81l.26.14.34.16.69.3a10.2,10.2,0,0,0,1.4.42,8.71,8.71,0,0,0,3.06.1,9.32,9.32,0,0,0,2.9-1.05,11.37,11.37,0,0,0,2.3-1.76,18.67,18.67,0,0,0,3.18-4.27,32.65,32.65,0,0,0,2.1-4.6,46,46,0,0,0,2.34-9.64A19.4,19.4,0,0,1,45,79.74a12.68,12.68,0,0,1,1.5-3.35,5.9,5.9,0,0,1,.72-.9c.09.16.2.34.3.54a19.48,19.48,0,0,1,1.63,7.39,45,45,0,0,1-1,8.45c-.54,2.94-1.24,6-1.82,9.12a44.92,44.92,0,0,0-.9,10.12,21.42,21.42,0,0,0,1,5.61,16.42,16.42,0,0,0,2.9,5.35,17.75,17.75,0,0,0,4.52,3.85l.5.31.73.38.73.37.7.29a12,12,0,0,0,1.46.51,15,15,0,0,0,1.54.37,13.77,13.77,0,0,0,6.38-.33,16.72,16.72,0,0,0,5.36-2.72,23.59,23.59,0,0,0,3.86-3.65A24,24,0,0,0,79,125a16.44,16.44,0,0,0,5.4,2.51,13.35,13.35,0,0,0,6.22.08A15.66,15.66,0,0,0,96,125.18l.3-.19.14-.1.2-.14.06,0,.46-.37a10.87,10.87,0,0,0,1-.85,14.43,14.43,0,0,0,1.11-1.1c.32-.37.64-.74.94-1.13a14.91,14.91,0,0,0,2.51-5.22,20.67,20.67,0,0,0,.68-5.38,32.14,32.14,0,0,0-.4-5.07c-.26-1.63-.57-3.22-.92-4.78-.7-3.12-1.5-6.14-2.16-9.14a40.5,40.5,0,0,1-1.24-8.91,16,16,0,0,1,.11-2.19c0-.34.09-.74.14-1l.22-1.15c.07-.4.16-.76.25-1.1s.17-.71.29-1.06l.36-1,.24-.53c.2,0,.39.08.59.12a5.81,5.81,0,0,1,1.18.44,6.12,6.12,0,0,1,.56.31,4.6,4.6,0,0,1,.53.37,4,4,0,0,1,.5.42,5.22,5.22,0,0,1,.48.46,8.55,8.55,0,0,1,.82,1.06,10,10,0,0,1,.69,1.19c.11.2.18.42.28.63l.27.65.42,1.33-.18-1.4-.16-.7a5.38,5.38,0,0,0-.18-.69,9.63,9.63,0,0,0-.52-1.35,8.2,8.2,0,0,0-.71-1.3,6.13,6.13,0,0,0-.44-.6,5.37,5.37,0,0,0-.5-.57,6.15,6.15,0,0,0-1.17-1,6.47,6.47,0,0,0-1.37-.74,4.74,4.74,0,0,0-.75-.26,3.87,3.87,0,0,0-.85-.17l-.46-.06-.3.46-.69,1.08-.57,1.11c-.19.38-.32.77-.49,1.16s-.31.78-.43,1.15l-.37,1.11c-.14.46-.22.83-.32,1.25a20.86,20.86,0,0,0-.41,2.47A44.08,44.08,0,0,0,96,92.35c.4,3.17.94,6.27,1.34,9.31a43.45,43.45,0,0,1,.46,8.79,11.69,11.69,0,0,1-2.49,7l-.6.64c-.2.21-.4.33-.58.51a7.73,7.73,0,0,1-.82.62l-.48.33-.06,0h0l.12-.08,0,0-.1.05-.21.12a9.56,9.56,0,0,1-3.23,1.23,6.37,6.37,0,0,1-3.07-.2,9.25,9.25,0,0,1-3-1.59,17.6,17.6,0,0,1-2.73-2.67c-.42-.52-.82-1.05-1.2-1.61-.19-.27-.37-.55-.54-.83s-.36-.61-.44-.76l-.24-.48c.24-1.06.45-2.18.6-3.37a25.31,25.31,0,0,0,.29-4.14,36.18,36.18,0,0,0-.42-4.43c-.21-1.51-.41-3-.55-4.57-.28-3.06-.51-6.12-.85-9s-.62-5.56-.9-7.85c-.57-4.6-1-7.66-1-7.66h-.8s-.48,3.06-1.05,7.66c-.27,2.29-.6,5-.9,7.85s-.57,5.93-.85,9c-.14,1.53-.33,3.06-.55,4.57a38.27,38.27,0,0,0-.42,4.43,27.74,27.74,0,0,0,.29,4.14,36.61,36.61,0,0,0,.67,3.7,1.29,1.29,0,0,0,0,.21c-.1.16-.28.45-.43.67s-.36.54-.56.8c-.39.54-.81,1-1.24,1.54a16.67,16.67,0,0,1-2.75,2.54,9,9,0,0,1-2.9,1.42,6.12,6.12,0,0,1-2.82.1,4.74,4.74,0,0,1-.72-.18,4.31,4.31,0,0,1-.73-.27l-.37-.15-.31-.16-.31-.14-.49-.31A9.68,9.68,0,0,1,55.5,117a10.68,10.68,0,0,1-2.11-6.3,39.29,39.29,0,0,1,.71-8.36C54.57,99.4,55.22,96.37,55.74,93.2ZM47.63,75.13Z"/><path class="cls-1" d="M124.77,59.59c-.09-.5-.26-1-.39-1.46a28.34,28.34,0,0,0-1-2.86,38.27,38.27,0,0,0-2.71-5.39c-.53-.86-1.06-1.72-1.65-2.54-.29-.42-.6-.82-.9-1.23s-.61-.79-1-1.25l-4.58-5.34L112,47c-.25,3.12-.44,6.25-.6,9.38s-.25,6.24-.3,9.37c0,1.56,0,3.13-.06,4.69s0,3.12,0,4.68,0,3.13,0,4.69l.11,4.69.18,4.69.26,4.69c.19,3.12.42,6.24.72,9.37s.65,6.25,1.07,9.37c.21,1.57.46,3.13.72,4.69s.54,3.13.87,4.69c.33-1.56.63-3.12.87-4.69s.51-3.12.72-4.69c.42-3.12.77-6.24,1.07-9.37s.53-6.25.72-9.37l.26-4.69.18-4.69.11-4.69c0-1.56,0-3.12,0-4.69s0-3.12,0-4.68,0-3.13-.06-4.69c0-3.13-.17-6.25-.3-9.37,0-.45-.06-.9-.08-1.35.55.66,1.07,1.35,1.6,2s1.06,1.48,1.53,2.26c.24.39.51.77.71,1.18l.68,1.2.59,1.26a12.08,12.08,0,0,1,.51,1.3,9.22,9.22,0,0,1,.46,1.34c.12.46.25.93.38,1.4.08-.47.15-1,.21-1.45a10.48,10.48,0,0,0,.07-1.48,20.2,20.2,0,0,0-.23-3Z"/><path class="cls-1" d="M48,44.65a8.3,8.3,0,0,1-.34,1.29A11.35,11.35,0,0,1,45.89,49a18.19,18.19,0,0,1-1.38,1.61c-.5.53-1.06,1-1.63,1.54a39.22,39.22,0,0,1-7,4.69C33.77,58,32.3,58.55,32.3,58.55s1.54-.34,3.78-1.1a40.85,40.85,0,0,0,8-3.64c.69-.43,1.37-.89,2-1.38a19.91,19.91,0,0,0,1.84-1.56,14.66,14.66,0,0,0,2.75-3.52,12,12,0,0,0,1.18-3.14c.15-.81.2-1.29.2-1.29a2.81,2.81,0,0,0,0-.29,2,2,0,1,0-4,.17h0s0,.31,0,.85A6.92,6.92,0,0,1,48,44.65Z"/><path class="cls-1" d="M69.44,37.73l-6.85,6.86,2.34,2.34c.13,2.89.68,6.49,2.52,8.48A4.71,4.71,0,0,0,71,57a4.58,4.58,0,0,0,3.44-1.54,5.65,5.65,0,0,0,.56-.71,5.65,5.65,0,0,0,.56.71A4.58,4.58,0,0,0,79,57a4.71,4.71,0,0,0,3.55-1.59c1.84-2,2.39-5.59,2.52-8.48l2.34-2.34-6.86-6.87L81,43.17c.25,3,0,8-1.4,9.53A.74.74,0,0,1,79,53a.62.62,0,0,1-.51-.26c-.84-.91-1.29-3.12-1.48-5.5a38.74,38.74,0,0,0,0-5.39L75,42l-2-.15a38.74,38.74,0,0,0,0,5.39c-.19,2.38-.64,4.59-1.48,5.5A.62.62,0,0,1,71,53a.74.74,0,0,1-.61-.3C69,51.21,68.74,46.22,69,43.17Z"/><path class="cls-1" d="M106.43,32.4a52.59,52.59,0,0,0-7,6.59,51.49,51.49,0,0,0-5.7,7.7c-.67,1.15-1.18,2.14-1.52,2.86s-.49,1.16-.49,1.16.42-.21,1.09-.63,1.6-1,2.66-1.85a52.56,52.56,0,0,0,7-6.59,51.92,51.92,0,0,0,5.69-7.71c.67-1.14,1.19-2.14,1.52-2.86s.5-1.15.5-1.15-.42.21-1.09.63S107.48,31.6,106.43,32.4Z"/><path class="cls-1" d="M74.6,36.39a7.45,7.45,0,0,0,.4.73,7.45,7.45,0,0,0,.4-.73,14.06,14.06,0,0,0,.76-1.94,20.92,20.92,0,0,0,0-11.77,12.19,12.19,0,0,0-.75-1.94c-.23-.47-.4-.74-.4-.74s-.17.27-.4.74a12.19,12.19,0,0,0-.75,1.94,20.92,20.92,0,0,0,0,11.77A14.06,14.06,0,0,0,74.6,36.39Z"/></svg>