<svg id="Symbols" xmlns="http://www.w3.org/2000/svg" viewBox="0 0 150 150"><defs><style>.cls-1{fill:#221f20;}</style></defs><title>khatim-bold</title><path class="cls-1" d="M35,115H58.68l16.5,16.5L91.67,115H115V91.67l16.75-16.74L115,58.18V34.5l-23.53.15L74.82,18,58.18,34.85,35,35V58.33L18.61,74.93,35,91.32ZM29.89,74.89,40.69,64,43,61.61V43l15.23-.1,3.32,0,2.32-2.35,11-11.13,11,10.95,2.36,2.37,3.35,0,15.48-.1v19l2.34,2.34,11.09,11.09L109.34,86,107,88.36V107H88.36L86,109.34,75.18,120.18,64.34,109.34,62,107H43V88l-2.34-2.35Z"/></svg>