<svg id="Symbols" xmlns="http://www.w3.org/2000/svg" viewBox="0 0 150 150"><defs><style>.cls-1{fill:#221f20;}</style></defs><title>hamsa-bold</title><path class="cls-1" d="M129,72.36c-10.12-10.12-19.51-13.08-25.83-13.72V39.81A13.32,13.32,0,0,0,89.89,26.5a13.1,13.1,0,0,0-3.2.39,13.35,13.35,0,0,0-23.38,0,13.1,13.1,0,0,0-3.2-.39A13.32,13.32,0,0,0,46.8,39.81V58.64c-6.32.64-15.72,3.6-25.83,13.72a4,4,0,0,0,2.61,6.82c1.61.1,15.77,1.58,15.77,22.07,0,18.52,13,29.14,35.65,29.14s35.65-10.62,35.65-29.14c0-20.49,14.16-22,15.74-22.07A4,4,0,0,0,129,72.36Zm-26.38,28.89c0,14-9.3,21.14-27.65,21.14s-27.65-7.12-27.65-21.14c0-17.5-8.65-24.83-15.42-27.89,8.19-6.23,15-7,18.67-6.85a4,4,0,0,0,4.2-4V39.81A5.26,5.26,0,0,1,62,34.87V72a4,4,0,1,0,8,0V31.55a5.29,5.29,0,0,1,10,0V72a4,4,0,1,0,8,0V34.87a5.26,5.26,0,0,1,7.2,4.94V62.52a4,4,0,0,0,4.2,4c3.67-.18,10.48.62,18.67,6.85C111.3,76.42,102.65,83.75,102.65,101.25Z"/><path class="cls-1" d="M75,81A17.27,17.27,0,0,0,59.12,91.5a17.27,17.27,0,0,0,31.76,0A17.28,17.28,0,0,0,75,81Zm0,17A13.25,13.25,0,0,1,63.6,91.5a13.27,13.27,0,0,1,22.8,0A13.25,13.25,0,0,1,75,98Z"/></svg>