<svg id="Symbols" xmlns="http://www.w3.org/2000/svg" viewBox="0 0 150 150"><defs><style>.cls-1{fill:#221f20;}</style></defs><title>Barakat-Mohammed-bold</title><path class="cls-1" d="M129,37a14,14,0,0,0-14-14H102v8h13a6,6,0,0,1,6,6V51c0,3.64-1.52,5.8-2,6h-6V39h-8V67a6,6,0,0,1-6,6H70v8H99a14,14,0,0,0,14-14V65h6c5.61,0,10-6.15,10-14Z"/><path class="cls-1" d="M38,53v3H33.5a13,13,0,0,0,0,26H38v3c0,7.72,5.61,14,12.5,14a11.5,11.5,0,0,0,8.29-3.6A14.5,14.5,0,0,0,62.7,84.88l-.4-13A5.67,5.67,0,0,1,68,66H82c7.6,0,14.1-5.73,14.49-12.78a11.93,11.93,0,0,0-3.33-9A13.94,13.94,0,0,0,83,40H68c-3.25,0-6-2.06-6-4.5S64.75,31,68,31H97V23H68c-7.72,0-14,5.61-14,12.5S60.28,48,68,48H83a5.94,5.94,0,0,1,4.35,1.74,4.06,4.06,0,0,1,1.16,3C88.35,55.61,85.37,58,82,58H68A13.68,13.68,0,0,0,54.3,72.12l.4,13a6.46,6.46,0,0,1-1.65,4.7A3.56,3.56,0,0,1,50.5,91c-2.44,0-4.5-2.75-4.5-6V53A14,14,0,0,0,32,39H20v8H32A6,6,0,0,1,38,53ZM33.5,74a5,5,0,0,1,0-10H38V74Z"/><path class="cls-1" d="M130,131v-8H94.63A13.87,13.87,0,0,0,96,117v-2h20a13.77,13.77,0,0,0,14-13.5,13.5,13.5,0,0,0-27,0V107H96v-5A14,14,0,0,0,82,88H70v8H82a6,6,0,0,1,6,6v15a6,6,0,0,1-6,6H81v-5.5A13.77,13.77,0,0,0,67,104a14,14,0,0,0-14,14v5H48v-4c0-6.62-6.28-12-14-12a6,6,0,0,1-6-6V88H20v13a14,14,0,0,0,14,14c3.54,0,6,2.11,6,4v4H20v8H130Zm-19-29.5a5.5,5.5,0,0,1,11,0,5.77,5.77,0,0,1-6,5.5h-5ZM61,118a6,6,0,0,1,6-6,5.77,5.77,0,0,1,6,5.5V123H61Z"/><circle class="cls-1" cx="24" cy="24" r="4"/><circle class="cls-1" cx="36" cy="24" r="4"/><circle class="cls-1" cx="121" cy="73" r="4"/></svg>