<svg id="Symbols" xmlns="http://www.w3.org/2000/svg" viewBox="0 0 150 150"><defs><style>.cls-1{fill:#221f20;}</style></defs><title>mosque-bold</title><path class="cls-1" d="M130,48V40H113v8h5V80H33V48h4V40H20v8h5V80H21v8h4v42H126V88h4V80h-4V48ZM67.66,104.62c-.41-3.83,5.39-6.52,7.34-7.31,2,.79,7.82,3.48,7.42,7.31l-.13,1.64,1.56.49c.37.12,2.23.85,2.23,3.75V122H64V110.5c0-2.9,1.85-3.63,2.19-3.74l1.64-.44ZM118,122H90.08V110.5a7.77,7.77,0,0,0-3.67-6.94c-.59-6.84-10.34-10.15-10.78-10.29L75,93.06l-.63.21c-.44.15-10.12,3.45-10.71,10.29A7.79,7.79,0,0,0,60,110.5V122H33V88h85Z"/><path class="cls-1" d="M60.19,47.17C48.88,52.2,42.93,60.93,42,73.86L41.85,76h66.3L108,73.86c-.93-12.93-6.88-21.66-18.19-26.69-6.38-2.84-10.67-8.49-12.31-10.94l.44,0q.36,0,.72,0a9.92,9.92,0,0,0,6.85-3.42l-3-2.62a6,6,0,1,1-9.06-7.87l-3-2.62a10,10,0,0,0,1,14.11,10.29,10.29,0,0,0,1.84,1.25C73.05,35.38,68.32,43.56,60.19,47.17ZM75,39.65C77.28,42.8,81.75,48,88.19,50.83,97.52,55,102.53,61.74,103.8,72H46.2c1.27-10.26,6.28-17,15.61-21.17C68.25,48,72.72,42.8,75,39.65Z"/><path class="cls-1" d="M130,33.88c-.23-3.68-1.79-6.29-4.64-7.76a5.65,5.65,0,0,1-2-2.27l-1.79-3.72-1.82,3.71a5.72,5.72,0,0,1-2.06,2.28c-2.85,1.47-4.41,4.08-4.64,7.76L112.87,36h17.26ZM117.4,32a4,4,0,0,1,2.08-2.33,8,8,0,0,0,2-1.54,8,8,0,0,0,2,1.54A4,4,0,0,1,125.6,32Z"/><path class="cls-1" d="M20,33.88,19.87,36H37.13L37,33.88c-.23-3.68-1.79-6.29-4.64-7.76a5.65,5.65,0,0,1-2.05-2.27l-1.79-3.72L26.7,23.84a5.72,5.72,0,0,1-2.06,2.28C21.79,27.59,20.23,30.2,20,33.88Zm6.48-4.21a8,8,0,0,0,2-1.54,8,8,0,0,0,2,1.54A4,4,0,0,1,32.6,32H24.4A4,4,0,0,1,26.48,29.67Z"/><path class="cls-1" d="M112,104.1a4.65,4.65,0,0,0-1.77-3.81c-.66-3.43-5.09-5-5.66-5.19l-.63-.21-.63.21c-.56.19-5,1.76-5.62,5.19a4.65,4.65,0,0,0-1.77,3.81v10.57H112Zm-4,6.57H99.92V104.1c0-.39.11-.64.23-.69l1.66-.25-.2-1.89c-.07-.69,1.17-1.59,2.34-2.12,1.18.53,2.44,1.43,2.36,2.12l-.51,1.82,1.89.29c.2.08.31.33.31.72Z"/><path class="cls-1" d="M54.08,114.67V104.1a4.65,4.65,0,0,0-1.77-3.81c-.67-3.43-5.1-5-5.66-5.19L46,94.89l-.63.21c-.56.19-5,1.76-5.63,5.19A4.67,4.67,0,0,0,38,104.1v10.57ZM42,104.1c0-.39.11-.64.22-.69l1.67-.25-.2-1.89c-.08-.69,1.17-1.59,2.33-2.12,1.19.53,2.44,1.43,2.37,2.12l-.51,1.82,1.88.29c.21.08.32.33.32.72v6.57H42Z"/></svg>