<svg id="Symbols" xmlns="http://www.w3.org/2000/svg" viewBox="0 0 150 150"><defs><style>.cls-1{fill:#221f20;}</style></defs><title>seal-of-prophet-muhammad-bold</title><rect class="cls-1" x="94" y="20" width="8" height="36"/><path class="cls-1" d="M39,37A12,12,0,0,0,51,49a11.8,11.8,0,0,0,4-.7V49a7,7,0,0,0,7,7H82a7,7,0,0,0,7-7V20H81V48H76V20H68V48H63V20H55v5.7a11.8,11.8,0,0,0-4-.7A12,12,0,0,0,39,37Zm16,0a4,4,0,1,1-4-4A4,4,0,0,1,55,37Z"/><path class="cls-1" d="M47.5,88H39v8h8.5c7.08,0,12.5-.37,12.5-5V87H88c7.72,0,14-5.83,14-13V65H94v9c0,2.71-2.75,5-6,5H87V65H79V79H73V65H65V79H60c0-7.85-4.61-14-10.5-14A10.77,10.77,0,0,0,39,76c0,6.68,2.55,11,6.5,11H52v.83C50.87,87.93,49.36,88,47.5,88Zm-.18-9A13,13,0,0,1,47,76a2.82,2.82,0,0,1,2.5-3c.62,0,2.5,2.13,2.5,6Z"/><path class="cls-1" d="M28.51,91.63C31.46,88.26,33,80.72,33,75V59H25V75c0,5.5-1.66,10.39-2.51,11.37l-3.5,4,6,5.26Z"/><path class="cls-1" d="M113.7,86.4c3-4,5.3-10.22,5.3-14.4V66h-8v6c0,2.2-1.58,6.78-3.7,9.6l-4.5,6,6.4,4.8Z"/><path class="cls-1" d="M114,97a10,10,0,0,0-10,10,10.2,10.2,0,0,0,.2,2H103a5.16,5.16,0,0,0-5.23,3.35c-.92,2.63.36,5.47,3.9,8.65H90.8a10.2,10.2,0,0,0,.2-2,10,10,0,0,0-20,0,10.2,10.2,0,0,0,.2,2H60v-1.5c0-5.27-5.36-10.46-10.4-12.67l-8-3.5-3.2,7.34,8,3.5C50,115.72,52,118.65,52,119.5V121H37v8h66c6.16,0,8.07-2.84,8.67-4.53s.87-5-3.67-8.59V115a10,10,0,1,0,6-18ZM79,119a2,2,0,1,1,2,2A2,2,0,0,1,79,119Zm35-10a2,2,0,1,1,2-2A2,2,0,0,1,114,109Z"/></svg>