<svg id="Symbols" xmlns="http://www.w3.org/2000/svg" viewBox="0 0 150 150"><defs><style>.cls-1{fill:#221f20;}</style></defs><title>cross-of-agadez-bold</title><path class="cls-1" d="M50.06,73.5l-.11.07-7.9-7.06L25.24,77,42.09,88.6l7.92-8C52.87,83,66.29,95.17,71.25,108.4a4,4,0,0,0,.26.55L65,115.4l10.26,14.91,9.3-14.88-6-6.66c.06-.12.13-.24.18-.37,4.91-13.1,18.1-25.11,21.15-27.76l7.84,8L124.59,77,107.78,66.51l-7.83,7h0C94,70.2,87.11,57.65,84.25,51.66a13,13,0,0,0,3.83-9.24,13.52,13.52,0,0,0-.21-2.32L103.2,28.6l-2.4-3.2L86.48,36.14a13.22,13.22,0,0,0-1.59-2.27L77.18,19.94H72.82L65.11,33.87a13.51,13.51,0,0,0-1.28,1.75L50.2,25.4l-2.4,3.2L62.27,39.45a13.19,13.19,0,0,0-.35,3,13,13,0,0,0,3.83,9.24C62.89,57.65,56,70.2,50.06,73.5Zm58.14-2,9.1,5.68-9.06,6.23L102,77.07v0ZM75.07,123l-4.9-7.13,5-4.9h0l4.35,4.87Zm5-80.6A5.08,5.08,0,1,1,75,37.33,5.09,5.09,0,0,1,80.08,42.42ZM75,24.26l3,5.44a12.43,12.43,0,0,0-6,0ZM72.54,56h4.92c2.34,4.78,7.83,15.15,14.28,21.24C87.39,81.34,80.15,88.86,75,97.77c-5.15-8.91-12.39-16.43-16.74-20.53C64.71,71.15,70.2,60.78,72.54,56ZM41.59,83.4l-9.06-6.23,9.09-5.68,6.22,5.56Z"/><polygon class="cls-1" points="73 82.12 77 82.12 77 77.12 82 77.12 82 73.12 77 73.12 77 68.12 73 68.12 73 73.12 68 73.12 68 77.12 73 77.12 73 82.12"/></svg>