<svg id="Symbols" xmlns="http://www.w3.org/2000/svg" viewBox="0 0 150 150"><defs><style>.cls-1{fill:#221f20;}</style></defs><title>Halal-bold</title><path class="cls-1" d="M124.68,65.92Z"/><path class="cls-1" d="M129.2,74.23,129.12,71l0-1-4.41-4.08h-.54c-.25,0-.51,0-.79,0-.54,0-1.11-.09-1.68-.17a24.49,24.49,0,0,1-3.47-.81,27.44,27.44,0,0,1-3.45-1.32c-.57-.25-1.14-.53-1.7-.83l-1-.51-1.19-.56a13,13,0,0,0-5.1-1,14.5,14.5,0,0,0-2.49.23,17.65,17.65,0,0,0-2.32.65,18,18,0,0,0-7.36,5.07l.49.62A27.19,27.19,0,0,1,98,66a16.8,16.8,0,0,1,3.83-.62,15.71,15.71,0,0,1,1.82,0,10.1,10.1,0,0,1,1.69.3,8.83,8.83,0,0,1,2.89,1.3l.61.49.32.24.45.35c.61.47,1.22.94,1.87,1.37.33.23.68.43,1,.64q-2.43.84-4.84,1.8c-.91.37-1.81.74-2.71,1.15-.45.19-.91.41-1.36.62l-1.25.59c-3,1.42-6.13,2.11-8.67,1.44a6.89,6.89,0,0,1-3.35-2.06A13.92,13.92,0,0,1,88,69.7,50.65,50.65,0,0,1,85.8,59.32c-.48-3.65-.92-7.34-1.27-11-.73-7.4-1.27-14.84-1.8-22.28h-.8c-.38,7.47-.53,14.94-.55,22.43,0,2,0,4.08.05,6.12-.19,1.54-.42,3.06-.74,4.56a43.76,43.76,0,0,1-1.83,6.19c-.35,1-.83,2-1.25,2.92s-1,1.87-1.54,2.73a22.92,22.92,0,0,1-14,10.41,27.94,27.94,0,0,1-2.82.53c-.47,0-.94.09-1.4.11-.23,0-.45,0-.67,0a3.2,3.2,0,0,1-.51,0l.14,8A11.06,11.06,0,0,0,58,89.86c.34,0,.66-.11,1-.18.64-.13,1.26-.29,1.87-.46A30.74,30.74,0,0,0,64.38,88a30.23,30.23,0,0,0,6.44-3.76A28.49,28.49,0,0,0,79.61,72.8a33.64,33.64,0,0,0,1.25-3.29c.31-1.12.67-2.22.88-3.36.09-.38.15-.76.23-1.14l0,.39c0,.48.08.95.15,1.44l.23,1.5a27.66,27.66,0,0,0,.68,3,18.12,18.12,0,0,0,3,5.87,12.52,12.52,0,0,0,5.78,4.14,15.69,15.69,0,0,0,6.87.7,25.66,25.66,0,0,0,6.24-1.51l1.34-.48c.41-.14.81-.29,1.24-.42.83-.27,1.68-.52,2.54-.77,1.72-.48,3.47-.9,5.24-1.33L125.84,75Z"/><path class="cls-1" d="M57.73,40.26a4.17,4.17,0,0,1,.37.26l.76.58c.52.4,1,.84,1.52,1.27,1,.88,2,1.81,2.89,2.79a46.09,46.09,0,0,1,5.09,6.41,43.25,43.25,0,0,1,4,7.34A47.9,47.9,0,0,1,75,67a48.78,48.78,0,0,0-.74-8.66,47.17,47.17,0,0,0-2.32-8.56A50.28,50.28,0,0,0,68.1,41.6c-.76-1.31-1.59-2.6-2.47-3.87-.46-.62-.91-1.26-1.41-1.87-.23-.31-.49-.62-.75-.93-.13-.15-.26-.31-.41-.47a6.9,6.9,0,0,0-.48-.51l-5.16,6.1A2.84,2.84,0,0,1,57.73,40.26Z"/><path class="cls-1" d="M43.8,86.39l1.67-.78,1.58-1a16.54,16.54,0,0,0,1.47-1.21A10.5,10.5,0,0,0,49.85,82l.62-.75c.19-.28.35-.56.52-.85a12.63,12.63,0,0,0,1.57-3.62,47.13,47.13,0,0,0,1.2-6.68c.23-2.16.44-4.31.6-6.44a116.12,116.12,0,0,0,.4-12.76,115.9,115.9,0,0,0-1.19-12.61c-.3-2.09-.64-4.18-1-6.27.37.4.74.81,1.12,1.2l.7-.4c-.36-1.34-.79-2.64-1.21-3.95s-.89-2.59-1.38-3.86l-.3-.79L50,24l-1-.16-2-.32-.17,2.71c-.27,4.19-.42,8.38-.48,12.54s-.08,8.31.09,12.44.52,8.24.71,12.33c.08,2,.14,4.08.08,6.08a38,38,0,0,1-.53,5.74A6.91,6.91,0,0,1,46,77.51l-.24.52-.35.47a5.1,5.1,0,0,1-.74.94,11.12,11.12,0,0,1-4.19,2.84,13.75,13.75,0,0,1-5.21,1,12.7,12.7,0,0,1-5.16-1.19,10.25,10.25,0,0,1-4-3.53l-.74-1.18-.59-1.3A13.77,13.77,0,0,1,24,73.36a12.73,12.73,0,0,1,.5-5.76,16.06,16.06,0,0,1,2.79-5.32l-.56-.56A16.94,16.94,0,0,0,23,67a14.37,14.37,0,0,0-1.32,6.53,16.23,16.23,0,0,0,.5,3.39l.53,1.63.75,1.57a13.47,13.47,0,0,0,4.76,5.22A15.81,15.81,0,0,0,35,87.68,18.28,18.28,0,0,0,42.07,87,14.73,14.73,0,0,0,43.8,86.39Z"/><polygon class="cls-1" points="40.87 128 40.87 110.64 37.62 110.64 37.62 118.11 29.48 118.11 29.48 110.64 26.23 110.64 26.23 128 29.48 128 29.48 120.41 37.62 120.41 37.62 128 40.87 128"/><path class="cls-1" d="M50.69,127.77a1.07,1.07,0,0,0,.38-.51l1.3-3.54h7.19l1.29,3.54a1.21,1.21,0,0,0,.39.53,1.15,1.15,0,0,0,.69.21h2.5l-6.82-17.36h-3.3L47.5,128H50A1,1,0,0,0,50.69,127.77Zm4.62-12.07c.1-.27.21-.58.32-.93l.33-1.14c.11.41.22.79.34,1.13s.22.66.32.91l2.11,5.77H53.2Z"/><polygon class="cls-1" points="71.02 110.64 71.02 128 81.19 128 81.19 125.33 74.24 125.33 74.24 110.64 71.02 110.64"/><path class="cls-1" d="M93.36,110.64,86.54,128h2.51a1.14,1.14,0,0,0,1.07-.74l1.3-3.54H98.6l1.3,3.54a1.21,1.21,0,0,0,.39.53,1.15,1.15,0,0,0,.69.21h2.5l-6.82-17.36Zm-1.12,10.8,2.12-5.74c.1-.27.21-.58.31-.93s.22-.73.33-1.14c.12.41.23.79.35,1.13s.22.66.31.91l2.12,5.77Z"/><polygon class="cls-1" points="110.06 110.64 110.06 128 120.24 128 120.24 125.33 113.29 125.33 113.29 110.64 110.06 110.64"/></svg>