<svg id="Symbols" xmlns="http://www.w3.org/2000/svg" viewBox="0 0 150 150"><defs><style>.cls-1{fill:#221f20;}</style></defs><title>bahai-star-bold</title><path class="cls-1" d="M39,83,26,105H52l4,25,19-16,19,16,4-25h26L111,83l19-15-22-9,3-25L88,42,75,20,62,42,39,34l3,25L20,68Zm6-16.6,5.64-2.3-.73-6L48.47,45.76l10.9,3.8,6.19,2.15,3.33-5.64L75,35.73l6.11,10.34,3.33,5.64,6.19-2.15,10.9-3.8-1.47,12.29-.73,6L105,66.4l9.31,3.81L106,76.72l-5.48,4.33,3.55,6L110,97H91.18l-1.08,6.74-1.76,11-8.19-6.89L75,103.54l-5.15,4.34-8.19,6.89-1.76-11L58.82,97H40l5.87-9.93,3.55-6L44,76.72l-8.24-6.51Z"/></svg>