<svg id="Symbols" xmlns="http://www.w3.org/2000/svg" viewBox="0 0 150 150"><defs><style>.cls-1{fill:#221f20;}</style></defs><title>Subhan-Allah-bold</title><path class="cls-1" d="M58.78,53.44a36.73,36.73,0,0,0-.12-7.67l-.17-1c-.07-.36-.17-.77-.26-1.15s-.18-.62-.27-.92l-.17-.55-.17-.46a17.62,17.62,0,0,0-1.95-3.88,8.38,8.38,0,0,0-2.05-2.13,5.91,5.91,0,0,0-1.92-.91,5.28,5.28,0,0,0-2.5,0,6.08,6.08,0,0,0-3.2,2A9.74,9.74,0,0,0,44.61,39a16.46,16.46,0,0,0-1.32,6.36v.56l0,.51,0,.75a29.25,29.25,0,0,1-.4,6.26,14.25,14.25,0,0,1-1.85,5.48,3,3,0,0,1-3.65,1.45,4.27,4.27,0,0,1-2.17-1.19,4.64,4.64,0,0,1-1.07-2.38,15.94,15.94,0,0,1,.51-6.4A41.2,41.2,0,0,1,37,43.89a32.48,32.48,0,0,0-3.63,6A17,17,0,0,0,31.54,57a7.59,7.59,0,0,0,1.17,4.06,7.73,7.73,0,0,0,3.38,2.76l.2.09.29.11.57.19a7.49,7.49,0,0,0,1.14.25,6.91,6.91,0,0,0,2.47-.13,7.47,7.47,0,0,0,2.26-1,9.14,9.14,0,0,0,1.71-1.55,19,19,0,0,0,3.54-7.13,35.18,35.18,0,0,0,1.18-7.45c0-.31,0-.64,0-1,0-.06,0-.3,0-.36l0-.3a11.48,11.48,0,0,1,.19-1.31,9.84,9.84,0,0,1,.52-1.64,14.12,14.12,0,0,1,1.06,4.06,33.88,33.88,0,0,1-.18,6.13c-.21,2.18-.53,4.46-.76,6.87a34.26,34.26,0,0,0,0,7.78,17.4,17.4,0,0,0,1.17,4.35,13.07,13.07,0,0,0,2.72,4.08,14.14,14.14,0,0,0,3.88,2.75l.39.19.62.26a10.45,10.45,0,0,0,1.21.43,11.59,11.59,0,0,0,2.48.49A11.15,11.15,0,0,0,68,79.26a13.67,13.67,0,0,0,4.09-2.56,18.43,18.43,0,0,0,2.14-2.31,16.81,16.81,0,0,0,2.54,1.76,13.26,13.26,0,0,0,4.55,1.57,10.94,10.94,0,0,0,5-.48A12.72,12.72,0,0,0,90.4,74.9l.34-.28.15-.15.32-.3.33-.32.43-.49a11,11,0,0,0,1.43-2A11.81,11.81,0,0,0,94.9,67a16,16,0,0,0,0-4.26,34.44,34.44,0,0,0-2-7.31c-.83-2.26-1.7-4.42-2.46-6.57a28.76,28.76,0,0,1-1.71-6.43,14.32,14.32,0,0,1-.1-1.6c0-.55,0-1.17,0-1.7a5.47,5.47,0,0,1,.21-1.44,1.5,1.5,0,0,1,.62-.89l-.08,0a.81.81,0,0,1,.27-.09,1.71,1.71,0,0,1,.39,0,2.42,2.42,0,0,1,.82.15,3.65,3.65,0,0,1,.41.18c.13.08.27.14.4.23a4.84,4.84,0,0,1,.75.62,9.94,9.94,0,0,1,.68.76c.19.28.41.56.58.86s.36.61.53.92l.47,1-.24-1c-.08-.35-.21-.69-.32-1s-.28-.68-.42-1a7.89,7.89,0,0,0-.55-1,6.27,6.27,0,0,0-.73-.92c-.14-.14-.3-.27-.45-.4a4.3,4.3,0,0,0-.52-.35,4.12,4.12,0,0,0-1.21-.47,5.05,5.05,0,0,0-.68-.07,2.5,2.5,0,0,0-.77.09l-.09,0A3.44,3.44,0,0,0,87,36.85a7.7,7.7,0,0,0-.65,1.95c-.13.64-.24,1.19-.32,1.8a17.8,17.8,0,0,0-.18,1.92,32.13,32.13,0,0,0,.78,7.39c.5,2.37,1.15,4.65,1.67,6.89a33.52,33.52,0,0,1,1,6.41A10.07,10.07,0,0,1,89.06,66a6.34,6.34,0,0,1-1,2.14,5.39,5.39,0,0,1-.71.81l-.16.17-.32.27-.34.28-.17.14h0c.24-.2.06-.05.11-.1h0l0,0-.06,0a6.2,6.2,0,0,1-2.09,1,3.83,3.83,0,0,1-1.9,0,6.11,6.11,0,0,1-2-.88,12.37,12.37,0,0,1-2-1.69c-.33-.33-.64-.69-.94-1-.15-.18-.29-.37-.43-.56s-.29-.41-.33-.48l-.52-.92L70.5,39.3l-1,28.38a1.4,1.4,0,0,1-.1.16A13.36,13.36,0,0,1,68.66,69a11.78,11.78,0,0,1-1.72,1.89,5.63,5.63,0,0,1-1.76,1,3.64,3.64,0,0,1-1.63.19,4,4,0,0,1-.9-.19,2.79,2.79,0,0,1-.42-.15l-.18-.06-.39-.2a6.32,6.32,0,0,1-1.73-1.22,7.06,7.06,0,0,1-1.7-4,28.63,28.63,0,0,1,0-6C58.34,58.14,58.61,55.85,58.78,53.44ZM51,41.27l0,0C51.13,41.16,51.15,41.2,51,41.27Z"/><path class="cls-1" d="M98.26,26.75l-.63,11c0,.84-.12,1.68-.15,2.52s-.07,1.68-.06,2.51,0,1.68,0,2.51,0,1.67.08,2.5.07,1.67.14,2.5l.21,2.48.28,2.49c.09.82.23,1.64.34,2.47s.27,1.65.41,2.47.31,1.64.48,2.46.36,1.64.55,2.45.43,1.63.64,2.45.47,1.63.74,2.43.54,1.62.84,2.43a38.93,38.93,0,0,0,2.12,4.81,38.55,38.55,0,0,0,1.16-5.13c.13-.85.25-1.7.35-2.54s.17-1.69.25-2.53.13-1.69.15-2.53.08-1.68.08-2.51,0-1.68,0-2.51,0-1.67-.07-2.5-.07-1.67-.15-2.49l-.2-2.49-.28-2.48s0-.07,0-.11c1,1.36,2,2.71,3.06,4,.62.79,1.23,1.59,1.87,2.37s1.26,1.57,1.93,2.34c-.34-1-.72-1.89-1.08-2.83s-.75-1.87-1.12-2.81c-.78-1.86-1.57-3.7-2.37-5.54-1.62-3.67-3.32-7.29-5-10.89Z"/><path class="cls-1" d="M66.5,20.2l-5.85,6.21,1.58,1.49c.12,2.26.59,5.38,2.21,7a3.94,3.94,0,0,0,2.89,1.25h.13a3.87,3.87,0,0,0,2.87-1.38h0A3.89,3.89,0,0,0,73.15,36h.13a4,4,0,0,0,2.94-1.43c1.52-1.75,1.8-4.89,1.77-7.15l1.49-1.58L73.25,20l.62,5.43c.35,3.06-.1,6.19-.64,6.61-.47-.3-.88-1.81-1.09-3.68A28.26,28.26,0,0,0,72,24.42l-2,.21-2-.09a29.77,29.77,0,0,0,.11,3.95c-.09,1.86-.38,3.38-.78,3.69-.64-.36-1.29-3.45-1.13-6.54Z"/><path class="cls-1" d="M80.57,38.69a12.81,12.81,0,0,0-.87,1,11.94,11.94,0,0,0-1.62,2.56,6.8,6.8,0,0,0-.57,1.7,5.37,5.37,0,0,0-.08,1.78,5.18,5.18,0,0,0,.17.79,3.69,3.69,0,0,0,.24.61l.27.53,3.06-2.58L81,45a.51.51,0,0,1-.17-.08c-.05-.06-.14-.1-.21-.18a3.76,3.76,0,0,1-.22-.33,3.49,3.49,0,0,1-.2-.47A4.82,4.82,0,0,1,80,42.68,11.64,11.64,0,0,1,80.26,40,12.51,12.51,0,0,1,80.57,38.69Z"/><path class="cls-1" d="M66.13,39.89s-.39.35-.93.94a12.25,12.25,0,0,0-1.78,2.47A7.51,7.51,0,0,0,62.75,45a6.8,6.8,0,0,0-.17.9,8.75,8.75,0,0,0,0,.88,5.82,5.82,0,0,0,.13.8,2.26,2.26,0,0,0,.2.62c.14.35.23.54.23.54l3.21-2.38-.12-.07a.35.35,0,0,1-.17-.09c-.05-.06-.13-.11-.2-.19s-.13-.21-.2-.34a4,4,0,0,1-.17-.49,5.63,5.63,0,0,1-.13-1.29,11.53,11.53,0,0,1,.4-2.71C65.94,40.38,66.13,39.89,66.13,39.89Z"/><path class="cls-1" d="M25.54,115.6l.22.55L27.4,115h0L29,113.85l-.12-.07a.35.35,0,0,1-.16-.1,1.86,1.86,0,0,1-.2-.2c-.05-.1-.13-.2-.19-.34a4.11,4.11,0,0,1-.15-.49,5.4,5.4,0,0,1-.1-1l.89-4.18s-.4.34-1,.92a13.21,13.21,0,0,0-1.84,2.41,7.53,7.53,0,0,0-.71,1.64,5.75,5.75,0,0,0-.24,1.78,6.18,6.18,0,0,0,.11.8A2.87,2.87,0,0,0,25.54,115.6Z"/><path class="cls-1" d="M27.67,61.48a.38.38,0,0,1-.18-.06,2.38,2.38,0,0,1-.23-.14c-.07-.09-.17-.17-.27-.29s-.18-.27-.26-.45a5.46,5.46,0,0,1-.33-1l-.09-4.27s-.31.42-.72,1.11a12.5,12.5,0,0,0-1.24,2.77A7.72,7.72,0,0,0,24,60.92a5.8,5.8,0,0,0,.18,1.78,6,6,0,0,0,.29.76,2.75,2.75,0,0,0,.32.57l.34.48,2.66-3Z"/><path class="cls-1" d="M114.45,47.73a.57.57,0,0,1,.19,0,2.42,2.42,0,0,1,.28.06c.09,0,.22.09.35.16a3.5,3.5,0,0,1,.4.32,5.08,5.08,0,0,1,.68.8L118,53a12.53,12.53,0,0,0,.26-1.3,13,13,0,0,0,.13-3,7.32,7.32,0,0,0-.35-1.76,5.45,5.45,0,0,0-.82-1.59,6.49,6.49,0,0,0-.54-.6,2.76,2.76,0,0,0-.51-.4l-.49-.33L115,45.87h0l-.69,1.88Z"/><path class="cls-1" d="M98.51,89.72c.84,0,1.83-.1,2.9-.22.53-.09,1.08-.14,1.64-.26a17.16,17.16,0,0,0,1.69-.39,12.72,12.72,0,0,0,1.69-.53,15.58,15.58,0,0,0,1.62-.71,14.19,14.19,0,0,0,1.46-.89c.45-.32.85-.7,1.23-1a13.46,13.46,0,0,0,.91-1.09,4.71,4.71,0,0,0,.59-1l.45-.89a2.48,2.48,0,0,0,.15-.41,2,2,0,1,0-3.92-1l-.07.28-.13.52a2,2,0,0,1-.19.61c-.12.22-.21.5-.38.78s-.4.58-.66.88a11.72,11.72,0,0,1-.94.91,10,10,0,0,1-1.18.87A11.16,11.16,0,0,1,104,87c-.46.26-1,.47-1.44.69s-1,.39-1.46.58c-1,.35-1.9.63-2.7.84-1.61.42-2.72.59-2.72.59S96.82,89.77,98.51,89.72Z"/><path class="cls-1" d="M31.88,34.3a12.77,12.77,0,0,1-.48,1.22,10.22,10.22,0,0,1-.71,1.28,12,12,0,0,1-.9,1.29,14.91,14.91,0,0,1-1,1.23c-.34.4-.73.76-1.08,1.13-.74.72-1.47,1.36-2.11,1.88A27.49,27.49,0,0,1,23.34,44s1.05-.39,2.57-1.14c.76-.38,1.63-.85,2.54-1.41.45-.29.93-.57,1.39-.91a16.9,16.9,0,0,0,1.38-1.06,13.29,13.29,0,0,0,1.31-1.18A14.65,14.65,0,0,0,33.71,37a15.42,15.42,0,0,0,1-1.41c.27-.49.47-1,.69-1.46s.26-1,.37-1.36a4.88,4.88,0,0,0,.14-1.12c0-.63,0-1,0-1a3.11,3.11,0,0,0,0-.43,2,2,0,0,0-4,.72l.06.28s0,.19.09.52a2,2,0,0,1,.08.64c0,.25,0,.54,0,.87S32,33.92,31.88,34.3Z"/><path class="cls-1" d="M37.32,110.37a7.08,7.08,0,0,0-2.52-.26,4,4,0,0,0-2.32,1,8.35,8.35,0,0,1,1.94,1A18,18,0,0,1,36,113.19c.48.4.95.81,1.42,1.23l.69.64.35.31.29.29a2,2,0,0,0,1.34.57,2,2,0,0,0,2.08-1.94h0c0-.57,0-1.13.08-1.68,0-.28,0-.56.08-.84s.07-.55.11-.85.09-.57.16-.87.13-.6.22-.91a15,15,0,0,1,.69-2,3.41,3.41,0,0,0-1.18.25,5.33,5.33,0,0,0-1.06.55,6.66,6.66,0,0,0-1.71,1.72,8.74,8.74,0,0,0-.7,1.32A7.46,7.46,0,0,0,37.32,110.37Z"/><path class="cls-1" d="M120.46,117.07c.49.4,1,.82,1.43,1.24l.69.63.34.32.3.28a2,2,0,0,0,3.42-1.36h0c0-.57,0-1.13.08-1.69,0-.28,0-.55.07-.83s.08-.56.11-.85.1-.58.17-.87.13-.61.22-.91a12.74,12.74,0,0,1,.69-2,3.41,3.41,0,0,0-1.18.25,4.89,4.89,0,0,0-1.06.56,6.47,6.47,0,0,0-1.71,1.71,8.34,8.34,0,0,0-.7,1.32,9.62,9.62,0,0,0-1.49-.59,7.08,7.08,0,0,0-2.52-.25,4,4,0,0,0-2.32,1,8,8,0,0,1,1.94,1A16.35,16.35,0,0,1,120.46,117.07Z"/><path class="cls-1" d="M115.94,69.92a16.35,16.35,0,0,1,1.52,1.15c.49.4,1,.82,1.43,1.24l.69.63.34.32.3.28a2,2,0,0,0,3.42-1.36h0c0-.57,0-1.13.08-1.69,0-.28,0-.55.07-.83s.08-.56.11-.85.1-.58.17-.87.13-.61.22-.91a12.74,12.74,0,0,1,.69-2,3.41,3.41,0,0,0-1.18.25,4.89,4.89,0,0,0-1.06.56A6.47,6.47,0,0,0,121,67.52a8.34,8.34,0,0,0-.7,1.32,9.62,9.62,0,0,0-1.49-.59,7.08,7.08,0,0,0-2.52-.25A4,4,0,0,0,114,69,8,8,0,0,1,115.94,69.92Z"/><path class="cls-1" d="M22.6,123.91a14.76,14.76,0,0,0,1.71,2.26l.41.46.1.11.05.05,0,0,.06.06,0,0,.31.29a10.33,10.33,0,0,0,1.35,1,12.72,12.72,0,0,0,3,1.3,18.14,18.14,0,0,0,5.77.57,31,31,0,0,0,5.28-.79,38.45,38.45,0,0,0,4.92-1.52,45,45,0,0,0,4.67-2.06c.76-.4,1.52-.81,2.3-1.28a23.34,23.34,0,0,0,2.23-1.54A20.78,20.78,0,0,0,57.06,121a9,9,0,0,0,2.13-3.48,7.9,7.9,0,0,0,.1-4.3A11.31,11.31,0,0,0,58,110.12a19.17,19.17,0,0,0-1.65-2.34l-1.47-1.72a33.75,33.75,0,0,1-2.4-3.54c-.68-1.16-1.31-2.37-1.89-3.61l.68.35c.92.49,1.83,1,2.78,1.43s1.87.9,2.83,1.31l-2.21-2.2-2.23-2.16c-.73-.72-1.49-1.43-2.2-2.15s-1.45-1.44-2.17-2.14l-3.33-3.2.43,4.94a38.15,38.15,0,0,0,.8,5,39.35,39.35,0,0,0,1.45,4.84,30.49,30.49,0,0,0,2.22,4.71l1.32,2.1c.3.54.65,1.15.87,1.67a4.37,4.37,0,0,1,.37,1.33c0,.33,0,.37-.07.38a4.94,4.94,0,0,0-.46.43,12.4,12.4,0,0,1-1.4,1c-.61.42-1.2.77-1.72,1.07s-1.22.66-1.86,1c-1.3.62-2.63,1.25-4,1.79s-2.69,1.08-4,1.49a29.74,29.74,0,0,1-4,1,14.77,14.77,0,0,1-3.66.26,7.92,7.92,0,0,1-1.48-.29,5.93,5.93,0,0,1-.63-.26l-.15-.07h0s-.05-.05,0,0h0l-.06,0-.12-.09-.45-.35a12.65,12.65,0,0,1-2.7-2.76,11.57,11.57,0,0,1-1.74-3.66,16.1,16.1,0,0,1-.59-4.35,27.31,27.31,0,0,1,.44-4.69A17.27,17.27,0,0,0,21.23,111a15.2,15.2,0,0,0-.92,5.08,14.3,14.3,0,0,0,1,5.35A14.64,14.64,0,0,0,22.6,123.91Z"/><path class="cls-1" d="M92.6,101.17a6.11,6.11,0,0,1-1.47-1.87,7.71,7.71,0,0,1-.53-1.24c-.07-.21-.13-.43-.18-.65l-.07-.31c0-.07,0-.25,0-.17l-7.1-1.6-.5.86a9.17,9.17,0,0,1-.5.86c-.37.54-.7,1.12-1.11,1.63s-.78,1.06-1.2,1.56a9.19,9.19,0,0,1-.64.74l-.67.72c-.46.46-.93.92-1.43,1.34a16.31,16.31,0,0,1-1.51,1.24,16.62,16.62,0,0,1-1.6,1.08l-.81.47-.39.2c-.12.06-.3.14-.3.15l-.5,5.63.84.1c2.28.24,4.56.45,6.84.65s4.56.38,6.85.53q2.42.16,4.83.27l-.71.21c-1.75.57-3.53,1.31-5.3,2A28,28,0,0,1,80,117.12a17.49,17.49,0,0,1-2.71.23,11.56,11.56,0,0,1-1.31,0l-.84-.06h-.05s.16,0,.07,0h-.12l-.2,0-.39,0a23.35,23.35,0,0,1-2.93-.47,5.16,5.16,0,0,1-1.8-.66.47.47,0,0,1-.12-.16,1.67,1.67,0,0,1-.15-.41,12.61,12.61,0,0,1-.3-2.39c-.06-1-.08-2.06-.09-3.15s0-2.2-.08-3.27-.1-2.17-.16-3.25l-.12-1.55c-.07-.51-.13-1-.2-1.51-.26-2-.59-3.86-.92-5.58-.17-.86-.34-1.68-.54-2.47s-.42-1.53-.63-2.22c-.43-1.39-.78-2.57-1.21-3.58s-.77-1.74-1-2.24-.44-.75-.44-.75-.07.31-.15.87-.28,1.38-.43,2.38-.41,2.24-.6,3.63-.37,3-.59,4.67-.37,3.56-.47,5.51c-.06,1-.1,2-.12,3s-.08,2-.12,3.08c-.07,2.13-.18,4.31-.08,6.82a16.42,16.42,0,0,0,.67,4.34,8.78,8.78,0,0,0,1.31,2.67,8.28,8.28,0,0,0,2.37,2.18,12.25,12.25,0,0,0,4.67,1.53,30.78,30.78,0,0,0,3.84.24h1l.84,0c.59,0,1.42-.08,2-.18a20.49,20.49,0,0,0,3.73-.88,26.75,26.75,0,0,0,6.13-3c1.74-1.11,3.21-2.2,4.58-3.08a21.85,21.85,0,0,1,3.85-2.06,15.25,15.25,0,0,1,3.3-.9,19.29,19.29,0,0,1,2.3-.21l.85,0-.77-.35a17,17,0,0,0-2.32-.76,15,15,0,0,0-2.27-.31l-.22-.07c-1.09-.36-2.2-.69-3.29-1-2.2-.69-4.41-1.33-6.62-1.94-1.82-.52-3.66-1-5.49-1.48.55-.4,1.08-.82,1.6-1.25.32-.27.63-.56.94-.84s.62-.57.92-.88l.22-.23a13.15,13.15,0,0,0,2,2.28,13.36,13.36,0,0,0,4.91,2.71,15.65,15.65,0,0,0,2.62.54c.44.06.85.07,1.28.1h1.12c.59,0,1.47,0,2.28-.08a21.5,21.5,0,0,0,2.38-.3,18.57,18.57,0,0,0,2.42-.6,16.79,16.79,0,0,0,2.41-1,15,15,0,0,0,2.26-1.46,1.54,1.54,0,0,0,.19-.17,7.8,7.8,0,0,0,3.69,2.36,7.28,7.28,0,0,0,1.06.24l.13,0h.07l.24,0h.65a7.56,7.56,0,0,0,.83,0l.66-.13a7,7,0,0,0,1.2-.4,8.42,8.42,0,0,0,3.19-2.61l.24-.33.14.13a5.89,5.89,0,0,0,3.48,1h.48l.34,0a4.65,4.65,0,0,0,1-.23,4.37,4.37,0,0,0,1.61-1,5.72,5.72,0,0,0,1.39-2.91,10.41,10.41,0,0,0,.18-2.82,14.91,14.91,0,0,0-.39-2.69,21.21,21.21,0,0,1-.55,2.59,12.33,12.33,0,0,1-.9,2.35,3.53,3.53,0,0,1-1.37,1.55,1.44,1.44,0,0,1-.71.18,1.32,1.32,0,0,1-.29,0l-.33,0h0l-.06,0-.13,0a2.49,2.49,0,0,1-1.42-.73,2.23,2.23,0,0,1-.35-1.21c0-.11,0-.24,0-.35.12-.33.24-.65.34-1,.15-.47.28-.94.4-1.41s.22-.91.33-1.46l-4.8-1.57-.09.31h0c-.12.3-.28.71-.44,1.06s-.33.73-.5,1.08a18.35,18.35,0,0,1-1.12,2,8.67,8.67,0,0,1-1.24,1.56,1.85,1.85,0,0,1-.93.61,0,0,0,0,1-.06,0s0,0,0,0a.49.49,0,0,1,.17,0h0l-.16,0-.16,0h0l.21,0h0l-.22-.08a.82.82,0,0,1-.39-.39,3.3,3.3,0,0,1-.3-1,4.71,4.71,0,0,1-.07-.78c0-.14,0-.28,0-.41V100s0-.06,0-.09l-6.71-2.48c-.39.53-.77,1-1.13,1.47a12.25,12.25,0,0,1-1,1.16,6.77,6.77,0,0,1-2.11,1.52A11.37,11.37,0,0,1,102,102l-.69.17c-.24.06-.49.09-.74.14-.48.09-1,.13-1.54.18s-1,.06-1.67,0l-.87,0c-.22,0-.46,0-.68,0a7.82,7.82,0,0,1-1.26-.24A5.28,5.28,0,0,1,92.6,101.17Zm32.65,2.89Z"/><polygon class="cls-1" points="115.45 102.88 115.44 102.88 115.49 102.88 115.45 102.88"/><path class="cls-1" d="M114.26,99.86h0S114.26,99.84,114.26,99.86Z"/><circle class="cls-1" cx="35" cy="90" r="5"/><circle class="cls-1" cx="107" cy="122" r="5"/></svg>