<svg id="Symbols" xmlns="http://www.w3.org/2000/svg" viewBox="0 0 150 150"><defs><style>.cls-1{fill:#221f20;}</style></defs><title>alhamdulillah-bold</title><path class="cls-1" d="M64.18,64.81a14.67,14.67,0,0,1,.17-2.12,3.08,3.08,0,0,1,.62.18,4.2,4.2,0,0,1,1.25.85,5.41,5.41,0,0,1,.55.61c.17.21.31.45.47.68A15.75,15.75,0,0,1,68,66.54a11.66,11.66,0,0,0-.35-1.72c-.1-.28-.19-.57-.31-.85a8.07,8.07,0,0,0-.43-.82,3.3,3.3,0,0,0-.26-.39c-.1-.12-.19-.26-.3-.38a5.18,5.18,0,0,0-.73-.67,4.19,4.19,0,0,0-.91-.49,2.35,2.35,0,0,0-.51-.17A2.57,2.57,0,0,0,63.6,61h-.44l-.28.53a13.42,13.42,0,0,0-1,3.05l-.17.73,0,.18,0,.23-.05.4a14.58,14.58,0,0,0-.14,1.61,30.28,30.28,0,0,0,.52,6.21c.34,2,.76,3.94,1.14,5.83a40,40,0,0,1,.79,5.45,9.24,9.24,0,0,1-.6,4.4,2.6,2.6,0,0,1-.2.41,2.92,2.92,0,0,1-.24.37,3.69,3.69,0,0,1-.23.3c-.1.09-.05.09-.28.31a4.16,4.16,0,0,1-1.41,1A1.29,1.29,0,0,1,60,92a3.39,3.39,0,0,1-1.18-.61A9.56,9.56,0,0,1,57.36,90c-.24-.28-.48-.59-.7-.9l-.32-.47c-.09-.14-.22-.35-.24-.4l-.53-1.19L49.38,60.9l-.46,28.89-.07.14c-.17.35-.36.68-.55,1a7.77,7.77,0,0,1-1.21,1.57,2.32,2.32,0,0,1-1,.63,1.12,1.12,0,0,1-.62,0c-.07,0-.17-.07-.26-.09a.36.36,0,0,0-.17-.07l-.51-.3h0v0l0,0-.07-.06-.15-.1a3.18,3.18,0,0,1-.84-1,8.66,8.66,0,0,1-.76-3.86A41.65,41.65,0,0,1,43,82.19c.19-1.91.45-3.91.6-6a29.58,29.58,0,0,0-.15-6.74,18.62,18.62,0,0,0-.4-1.94l-.21-.71,0-.15v0l0,0,0-.11-.08-.21-.15-.41a12.84,12.84,0,0,0-2-3.59,6.91,6.91,0,0,0-2.39-1.93,5.61,5.61,0,0,0-2-.51,5.44,5.44,0,0,0-2.06.33,6.28,6.28,0,0,0-2.54,1.77,8.77,8.77,0,0,0-1.3,1.89A13.23,13.23,0,0,0,29,67.52a14.92,14.92,0,0,0-.21,1.9c0,.3,0,.7,0,1.06l0,.38,0,.27,0,.16a30.14,30.14,0,0,1,.07,5.38,16.73,16.73,0,0,1-1,5A3.88,3.88,0,0,1,27.08,83a.92.92,0,0,1-.41.19,1.1,1.1,0,0,1-.33,0,1.7,1.7,0,0,1-.35,0L25.64,83l-.09,0h-.07l.07,0-.1-.05a1.62,1.62,0,0,1-.42-.2,2.78,2.78,0,0,1-.7-.59,4.8,4.8,0,0,1-.92-2,16,16,0,0,1,0-5.52,41.1,41.1,0,0,1,1.32-5.75A29.53,29.53,0,0,0,22,74.21a17,17,0,0,0-1.31,6.19A7.75,7.75,0,0,0,21.54,84a6.44,6.44,0,0,0,1.27,1.59,5.52,5.52,0,0,0,.82.62l.21.15.25.13.32.18a7.17,7.17,0,0,0,1.05.41,5.12,5.12,0,0,0,1.14.2,5,5,0,0,0,2.45-.45,7.46,7.46,0,0,0,3.06-3,20.9,20.9,0,0,0,2.25-6.4A35.34,35.34,0,0,0,35,71v-.2c0-.09,0,.09,0,.06v-.53l0-.42a6.2,6.2,0,0,1,.22-1,5.81,5.81,0,0,1,.3-.86l.09.28.09.28,0,.14v0l.18.69c.06.39.08.54.13,1A26.06,26.06,0,0,1,36,75.5c-.19,1.83-.49,3.75-.76,5.76a46,46,0,0,0-.47,6.43,15.59,15.59,0,0,0,1.74,7.6,11.33,11.33,0,0,0,3,3.46l.46.32.23.16.12.08.06,0,0,0,.17.1.64.37c.39.19.79.38,1.18.54s.73.27,1.14.37a8.81,8.81,0,0,0,5.22-.19,10.22,10.22,0,0,0,3.93-2.62,14.42,14.42,0,0,0,1.1-1.31,12.45,12.45,0,0,0,1.15.82A10.14,10.14,0,0,0,59.12,99a8.1,8.1,0,0,0,4.82-1,10.34,10.34,0,0,0,3.16-2.65c.12-.13.43-.54.64-.84a7.54,7.54,0,0,0,.57-.93,9.66,9.66,0,0,0,.82-1.87,12.22,12.22,0,0,0,.6-3.79,20.14,20.14,0,0,0-.3-3.45,39.58,39.58,0,0,0-1.68-6c-.65-1.9-1.36-3.71-2-5.52a31.85,31.85,0,0,1-1.43-5.39,12,12,0,0,1-.15-1.33v-.34s0-.14,0-.13v-.93ZM36.45,66.59l0,0C36.57,66.47,36.61,66.5,36.45,66.59Z"/><path class="cls-1" d="M123.25,81.72c-.39-1.53-.81-3-1.26-4.54-.51-1.7-1-3.31-1.57-4.94-.28-.83-.56-1.61-.83-2.46l-.75-2.39-1.6-4.75c-.62-1.58-.95-3.18-1.44-4.77l-.71-2.38-.35-1.2-.27-1.19-.54-2.38c-.16-.8-.44-1.61-.53-2.39s-.21-1.58-.34-2.37c-.06-.4-.14-.8-.18-1.2l0-1.14a17.66,17.66,0,0,1,0-1.91c.41.37.81.75,1.23,1.11.62.53,1.21,1.08,1.85,1.6s1.26,1,1.91,1.55c-.35-.75-.74-1.46-1.12-2.19s-.79-1.43-1.18-2.15c-.78-1.42-1.6-2.83-2.44-4.22L112,35.6l-1.52,1.78a4.66,4.66,0,0,0-.39.49c-.11.16-.15.25-.23.38l-.41.74a10.45,10.45,0,0,0-.56,1.42,15.09,15.09,0,0,0-.7,2.82l-.25,1.42c0,.46-.06.91-.09,1.37-.06.92-.09,1.84-.13,2.77,0,1.83.2,3.6.31,5.42,0,.45.07.9.12,1.35l.23,1.31.45,2.63c.35,1.74.61,3.53,1.1,5.2l1.42,5.08.76,2.53c.23.79.52,1.63.77,2.44.54,1.62,1.12,3.26,1.61,4.84.26.79.53,1.57.79,2.36a18.79,18.79,0,0,1-7.4-2.25,34.29,34.29,0,0,0-4.06-2c.06-.48.11-1,.16-1.46.09-1,.17-2,.22-2.92s.09-1.94.13-2.91,0-1.93,0-2.89,0-1.93,0-2.88-.06-1.92-.13-2.88-.11-1.91-.2-2.86-.16-1.91-.27-2.86l-.33-2.85-.4-2.83c-.14-1-.31-1.89-.47-2.83s-.35-1.89-.53-2.83c0-.11-.05-.22-.07-.33.32.24.64.49,1,.72s.82.6,1.26.87c-.14-.49-.31-1-.47-1.45s-.35-1-.52-1.43c-.36-.93-.75-1.85-1.14-2.76-.8-1.82-1.68-3.58-2.58-5.32l-4.87-9.36L94.44,37c0,1,0,1.93,0,2.89s0,1.93.06,2.88.06,1.92.13,2.88.1,1.91.2,2.86.16,1.91.27,2.86l.33,2.85.4,2.83c.13,1,.31,1.89.46,2.84s.36,1.88.54,2.82.39,1.87.6,2.81.45,1.87.68,2.8.51,1.86.76,2.79.55,1.86.86,2.78.62,1.85,1,2.76a26.61,26.61,0,0,0-14.21-.31L88.85,84c.28-.08,6.94-2,15,2.65l.09,0c-8.49,2.94-13.29,6.17-14.94,10a42.82,42.82,0,0,1-1.33-4.77A179.91,179.91,0,0,0,74.58,53.72l-7.16,3.56A175.45,175.45,0,0,1,79.7,93l-2.56,3.43c-.84,1.1-1.75,2.28-2.71,3.49s-2,2.43-3.09,3.64A42.91,42.91,0,0,1,67.88,107a23.26,23.26,0,0,1-3.74,2.73,20.7,20.7,0,0,1-1.92.9,13.56,13.56,0,0,1-1.94.56,7.56,7.56,0,0,1-3.16.12,2,2,0,0,1-.88-.4,3.37,3.37,0,0,1-.85-1.05,11.72,11.72,0,0,1-1.11-3.49,33.49,33.49,0,0,1-.46-3.6c-.1-1.12-.15-2.13-.19-3-.08-1.71-.13-2.69-.13-2.69A16.85,16.85,0,0,0,52,99.4a24,24,0,0,0-1.36,2.84,21.23,21.23,0,0,0-1.17,4,14.29,14.29,0,0,0,0,5.5,9.94,9.94,0,0,0,1.42,3.33A8.88,8.88,0,0,0,54,117.9,10.9,10.9,0,0,0,57.92,119a14.47,14.47,0,0,0,1.85.06c.3,0,.59,0,.92-.06l.48,0,.36,0a18,18,0,0,0,6.61-2.34,23.21,23.21,0,0,0,5.09-4.13,31,31,0,0,0,3.66-4.75,36.57,36.57,0,0,0,2.54-4.79,42.25,42.25,0,0,0,1.7-4.47v0c3.17,9.8,8.51,15.21,13,18.14l.33.33.08-.07a21.86,21.86,0,0,0,7.29,3.1l1.38-7.88a13.21,13.21,0,0,1-3.77-1.57c-1-1.3-3.19-4.75-3.09-10.53.48-1.82,8-5.8,21.67-9l.15.54c.2.79.44,1.58.59,2.36s.39,1.57.51,2.33.28,1.56.36,2.32a24.22,24.22,0,0,1,.13,4.58,25.44,25.44,0,0,1-.79,4.68l-.69,2.41c-.27.81-.51,1.63-.77,2.45-.54,1.65-1.07,3.31-1.53,5,1.16-1.33,2.25-2.68,3.31-4.07a42.13,42.13,0,0,0,3-4.41,23.83,23.83,0,0,0,1.26-2.47l.55-1.3c.17-.44.3-.9.44-1.36a24.16,24.16,0,0,0,1-5.65,36.91,36.91,0,0,0-.15-5.58c0-.93-.22-1.8-.34-2.7l-.06-.41a41.18,41.18,0,0,0,5.7-1.18l-1.76-7.78C128.71,80.74,126.52,81.08,123.25,81.72Z"/><path class="cls-1" d="M41.82,48.83c.22,2.88.88,6.46,2.78,8.39A4.69,4.69,0,0,0,48,58.71h.16a4.62,4.62,0,0,0,3.39-1.64,6.9,6.9,0,0,0,.54-.73,5.5,5.5,0,0,0,.57.69A4.58,4.58,0,0,0,56,58.46h.15a4.74,4.74,0,0,0,3.51-1.7c1.77-2,2.21-5.66,2.25-8.55l2.27-2.42-7.06-6.64.61,5.42c.35,3,.23,8-1.1,9.58a.76.76,0,0,1-.6.31.64.64,0,0,1-.52-.24c-.86-.88-1.39-3.08-1.64-5.45a38.33,38.33,0,0,0-.19-5.4l-2,.22-2-.09a37.75,37.75,0,0,0,.15,5.39c-.12,2.38-.5,4.61-1.32,5.54a.61.61,0,0,1-.5.28.76.76,0,0,1-.61-.28C46,53,45.61,48,45.77,44.94l.28-5.45-6.64,7.06Z"/><path class="cls-1" d="M90.5,54.16a.41.41,0,0,1-.18,0c-.06,0-.15-.08-.24-.15a3.67,3.67,0,0,1-.28-.28,3.22,3.22,0,0,1-.27-.43,5.58,5.58,0,0,1-.36-1L88.94,48s-.3.43-.69,1.14a13,13,0,0,0-1.15,2.8,7.88,7.88,0,0,0-.27,1.77,5.51,5.51,0,0,0,.24,1.78,5.68,5.68,0,0,0,.31.74,2.44,2.44,0,0,0,.34.56l.35.47,1.28-1.53h0l1.29-1.54Z"/><path class="cls-1" d="M108.21,106.93l.35.47,2.57-3.07-.14,0s-.12,0-.18-.06a2.36,2.36,0,0,1-.24-.14c-.07-.08-.17-.16-.27-.28a4,4,0,0,1-.28-.43,6.27,6.27,0,0,1-.36-1l-.22-4.26s-.3.43-.69,1.13a12.83,12.83,0,0,0-1.15,2.81,7.35,7.35,0,0,0-.27,1.77,5.74,5.74,0,0,0,.23,1.77,7.74,7.74,0,0,0,.31.75A3.93,3.93,0,0,0,108.21,106.93Z"/><path class="cls-1" d="M44.4,110.63a12.56,12.56,0,0,0-1.84,2.42,7.35,7.35,0,0,0-.72,1.64,6,6,0,0,0-.23,1.77,6,6,0,0,0,.11.8,3,3,0,0,0,.18.63l.22.54,1.64-1.15h0l1.63-1.15-.12-.06s-.12,0-.16-.1-.13-.11-.2-.2-.13-.2-.19-.34a4.11,4.11,0,0,1-.15-.49,5.59,5.59,0,0,1-.1-1l.89-4.18S45,110.05,44.4,110.63Z"/><path class="cls-1" d="M55.92,26.5c-.12.31-.21.67-.37,1a12.29,12.29,0,0,1-.64,1.14A11.13,11.13,0,0,1,54,29.86,14.3,14.3,0,0,1,53,31c-.37.38-.78.73-1.18,1.08s-.83.66-1.23,1c-.83.61-1.63,1.15-2.34,1.58C46.8,35.52,45.79,36,45.79,36a27.14,27.14,0,0,0,2.69-.79c.81-.26,1.73-.62,2.72-1.05.48-.23,1-.44,1.49-.72a15.31,15.31,0,0,0,1.51-.86,11.8,11.8,0,0,0,1.46-1,13.36,13.36,0,0,0,2.49-2.41c.34-.45.61-.92.88-1.35a13.41,13.41,0,0,0,.56-1.3,5,5,0,0,0,.28-1.09l.17-1a1.6,1.6,0,0,0,0-.44,2,2,0,0,0-4,.18v.28s0,.2,0,.54a2,2,0,0,1,0,.64C56,25.89,56,26.18,55.92,26.5Z"/><path class="cls-1" d="M70.34,43.23c.4-.36.84-.7,1.24-1.1s.83-.8,1.22-1.24a13.36,13.36,0,0,0,1.13-1.36,13,13,0,0,0,1-1.47,15.53,15.53,0,0,0,.76-1.53c.21-.52.33-1.06.48-1.54a13.28,13.28,0,0,0,.18-1.41,5.11,5.11,0,0,0,0-1.12c-.07-.63-.1-1-.1-1a2.23,2.23,0,0,0-.1-.43,2,2,0,0,0-3.84,1.27l.09.27s.07.18.17.51a1.91,1.91,0,0,1,.17.62c0,.25.09.53.1.86s0,.7-.08,1.1a12.1,12.1,0,0,1-.3,1.27,10.58,10.58,0,0,1-.52,1.37,14.16,14.16,0,0,1-.71,1.4c-.25.47-.55.91-.84,1.36s-.62.86-.92,1.28c-.63.81-1.26,1.54-1.83,2.15a26.63,26.63,0,0,1-2,2A27.54,27.54,0,0,0,68,45C68.71,44.5,69.51,43.91,70.34,43.23Z"/><path class="cls-1" d="M24.82,59.13a13.28,13.28,0,0,1,.46-1.39,12,12,0,0,1,.64-1.43,15.74,15.74,0,0,1,.78-1.4c.26-.47.57-.89.85-1.33.59-.84,1.18-1.6,1.72-2.24,1.07-1.28,1.87-2.06,1.87-2.06a27.79,27.79,0,0,0-2.3,1.61c-.68.51-1.44,1.14-2.24,1.86-.38.37-.8.74-1.19,1.16s-.79.83-1.16,1.29a13.79,13.79,0,0,0-1.06,1.42,12.87,12.87,0,0,0-.91,1.51,12.62,12.62,0,0,0-.68,1.57c-.18.53-.28,1.07-.41,1.56s-.08,1-.11,1.41a4.75,4.75,0,0,0,.08,1.12c.09.63.15,1,.15,1a2,2,0,0,0,.11.42,2,2,0,0,0,3.78-1.45l-.11-.27L24.9,63a2,2,0,0,1-.2-.61c0-.25-.11-.53-.14-.86s0-.69,0-1.09S24.69,59.58,24.82,59.13Z"/><path class="cls-1" d="M125,59.36c.13-1,.29-2,.47-2.79.35-1.62.7-2.69.7-2.69s-.57,1-1.29,2.49c-.36.77-.74,1.68-1.11,2.69-.16.51-.37,1-.51,1.58s-.32,1.11-.43,1.68a14.82,14.82,0,0,0-.28,1.75,13,13,0,0,0-.1,1.76,15.8,15.8,0,0,0,.13,1.71c.09.55.25,1.08.37,1.57a12.36,12.36,0,0,0,.56,1.3,5,5,0,0,0,.58,1l.6.8a1.81,1.81,0,0,0,.3.32,2,2,0,0,0,2.66-3l-.22-.19-.4-.35a1.93,1.93,0,0,1-.46-.45,7.71,7.71,0,0,1-.52-.69c-.15-.3-.34-.61-.49-1a11.35,11.35,0,0,1-.39-1.24,12.88,12.88,0,0,1-.25-1.45,13.33,13.33,0,0,1-.1-1.56c0-.54,0-1.07,0-1.61S124.92,59.87,125,59.36Z"/><path class="cls-1" d="M32.58,43.94l.34.32.29.28a2,2,0,0,0,1.34.58,2,2,0,0,0,2.08-1.94h0c0-.57,0-1.13.08-1.69,0-.28,0-.55.08-.83s.08-.56.11-.85.09-.58.16-.87.13-.61.22-.91A15.15,15.15,0,0,1,38,36a3.31,3.31,0,0,0-1.17.25,4.74,4.74,0,0,0-1.07.56A6.62,6.62,0,0,0,34,38.52a8.29,8.29,0,0,0-.69,1.32,9.35,9.35,0,0,0-1.5-.59A7,7,0,0,0,29.32,39,4,4,0,0,0,27,40a8,8,0,0,1,1.94,1,16.51,16.51,0,0,1,1.53,1.15c.48.4.95.82,1.42,1.24Z"/></svg>