<svg id="Symbols" xmlns="http://www.w3.org/2000/svg" viewBox="0 0 150 150"><defs><style>.cls-1{fill:#221f20;}</style></defs><title>prayer-mat-bold</title><path class="cls-1" d="M95,110V60a9.45,9.45,0,0,0-5-8.74c-.53-8.75-13.86-13-14.45-13.21l-.6-.19-.6.19c-.6.19-13.83,4.46-14.34,13.21a9.46,9.46,0,0,0-5,8.74V84.22L55,110ZM58.92,60c0-4.34,3.23-5.37,3.58-5.47l1.68-.43L64,52.41c-.62-5.6,8.48-9.38,10.93-10.29,2.47.91,11.65,4.69,11,10.29l-.16,1.69,1.63.46C87.77,54.67,91,55.7,91,60v46H59l-.07-21.79Z"/><path class="cls-1" d="M115,20H35V130h80Zm-8,102H43V28h64Z"/><path class="cls-1" d="M103,31H47v87h56Zm-4,83H51V35H99Z"/></svg>