<svg id="Symbols" xmlns="http://www.w3.org/2000/svg" viewBox="0 0 150 150"><defs><style>.cls-1{fill:#221f20;}</style></defs><title>Quran-bold</title><polygon class="cls-1" points="123.98 43.62 124.24 51 126 100 127.52 57.74 130.79 56.1 127.57 50.21 123.98 43.62"/><path class="cls-1" d="M22.87,75.24l.36-1.15c.34-.72.64-1.47,1-2.17s.81-1.39,1.28-2L27,67.94l-1.53,1.88c-.5.64-.91,1.34-1.36,2S23.36,73.27,23,74l-.4,1.15a5.45,5.45,0,0,0-.33,1.18L22,77.54c0,.41,0,.83,0,1.24A5.78,5.78,0,0,0,22.09,80l.1.61a6,6,0,0,0,.2.6,7,7,0,0,0,3.08,3.87,7.63,7.63,0,0,0,4.94,1,6.33,6.33,0,0,0,1.21-.23c.22-.06.36-.08.63-.16l.59-.23A8.4,8.4,0,0,0,34,84.94c.38-.18.75-.38,1.1-.59a35.86,35.86,0,0,0,4.05-2.79c1.3-1,2.54-2.06,3.76-3.14,2.43-2.17,4.75-4.44,7-6.76L51.6,69.9c.57-.58,1.14-1.07,1.7-1.61.18-.18.37-.34.56-.5.49.49,1,1,1.47,1.48.66.69,1.32,1.39,2,2.09,1.29,1.41,2.54,2.85,3.72,4.33a51.15,51.15,0,0,1,3.29,4.57,18.28,18.28,0,0,1,2.09,4.36l-.11.19a6,6,0,0,1-.52.66,10,10,0,0,1-1.34,1.24,18.24,18.24,0,0,1-3.31,2,31.71,31.71,0,0,1-3.72,1.49c-1.29.45-2.64.84-4,1.32A42.4,42.4,0,0,0,45.6,95a22.39,22.39,0,0,0-3.51,2.54,29.91,29.91,0,0,0-3,3.09,17.68,17.68,0,0,1-1.36,1.48,15.58,15.58,0,0,1-1.52,1.3,11.51,11.51,0,0,1-3.49,1.85,4.9,4.9,0,0,1-3.69-.14,5.59,5.59,0,0,1-2.48-2.87,11.48,11.48,0,0,1-1-3.92A12.42,12.42,0,0,1,26,94.27a18.09,18.09,0,0,1,1.55-3.83A21.07,21.07,0,0,1,29.92,87a20,20,0,0,0-2.5,3.35,18.14,18.14,0,0,0-1.76,3.82A13.09,13.09,0,0,0,25,98.35a12.09,12.09,0,0,0,.85,4.19A6.47,6.47,0,0,0,28.61,106a6,6,0,0,0,4.43.39,12.82,12.82,0,0,0,4-1.87,16.8,16.8,0,0,0,1.72-1.33c.54-.48,1.06-1,1.53-1.52a22.91,22.91,0,0,1,6.29-5,40.72,40.72,0,0,1,7.57-2.95c1.3-.4,2.65-.73,4-1.13a34.91,34.91,0,0,0,4.1-1.42A21.31,21.31,0,0,0,66.11,89a12.12,12.12,0,0,0,1.79-1.52,7.5,7.5,0,0,0,.81-.95,5.85,5.85,0,0,0,.37-.55,3.52,3.52,0,0,0,.36-.77l.12-.32-.08-.42a14.07,14.07,0,0,0-.42-1.61c-.17-.51-.36-1-.56-1.49a29.65,29.65,0,0,0-1.39-2.76c-.81-1.41-1.7-2.74-2.62-4l10.17,7.57L77,83.83,77.12,90l.24,8.5V99l0,.47,0,.26c0,.07,0,.12,0,.19l-.09.35a6.26,6.26,0,0,1-.24.85,7.4,7.4,0,0,1-.34.89,20.32,20.32,0,0,1-1.89,3.48c-.4.53-.77,1.09-1.19,1.62s-.86,1-1.33,1.52-.94,1-1.45,1.43-1,.9-1.55,1.31l-1.65,1.21L65.8,113.6c-.58.37-1.21.63-1.82.94-.31.15-.61.32-.93.45l-1,.37-.25.1c0-.36.09-.72.15-1.06.34-1.73.77-3.24,1.06-4.49.6-2.49,1-3.91,1-3.91l-1.12,3.87c-.34,1.24-.83,2.7-1.25,4.46-.09.42-.18.86-.25,1.31-1.05.39-2.14.68-3.22,1-.67.18-1.36.27-2,.41l-1,.2c-.29.06-.69.09-1,.13-.72.1-1.36.09-2,.12a17.18,17.18,0,0,1-2-.16A10.34,10.34,0,0,1,46.21,116a9.26,9.26,0,0,1-2.89-2.82,13.9,13.9,0,0,1-1.69-3.79A23.41,23.41,0,0,1,41,101a23.65,23.65,0,0,0,.18,8.51,14,14,0,0,0,1.54,4,10,10,0,0,0,3,3.23,11.15,11.15,0,0,0,4.09,1.7,16.46,16.46,0,0,0,2.19.3c.74,0,1.52,0,2.21,0,.36,0,.68,0,1.09-.07l1.07-.15c.72-.1,1.45-.17,2.16-.31.89-.21,1.78-.4,2.67-.64a17.12,17.12,0,0,0,0,2.76,9.27,9.27,0,0,0,.28,1.7,9.67,9.67,0,0,0,.59,1.77c.15.26.32.5.47.76a6.33,6.33,0,0,0,.69.75A6.42,6.42,0,0,0,65,126.4,7.71,7.71,0,0,0,69,127a8.68,8.68,0,0,0,3.89-1.7,44.71,44.71,0,0,0,6.47-5.67c.51-.53,1-1.07,1.5-1.62a19.92,19.92,0,0,1,1.45-1.56l.71-.73.83-.63.83-.63c.29-.19.6-.36.9-.54a26.09,26.09,0,0,1,7.74-3.09c.67-.14,1.31-.22,2-.33l.48-.08.54,0,1.06-.05.53,0h.44l1.05,0,2.08.05h.11a8.12,8.12,0,0,0,.86,0h1.07c.69,0,1.28,0,2.06,0a13.5,13.5,0,0,0,4.26-.78,12.53,12.53,0,0,0,6.3-5,11,11,0,0,0,1.41-3.49c.06-.31.12-.65.16-.94l.06-.72v-.8c0-.23,0-.45,0-.68,0-1.78.07-3.34.09-4.62,0-1.61.06-2.79.08-3.44h0V47.5l2.79-1.39L114,32.53V90h0c0,.65,0,1.83.08,3.44,0,1.28.06,2.84.09,4.62,0,.23,0,.45,0,.68v.6c0,.24,0,.48,0,.72s-.06.35-.08.52a7.34,7.34,0,0,1-.85,2.36,9.13,9.13,0,0,1-3.61,3.42,8.41,8.41,0,1,0-13.23,1.48l-.25,0a6.49,6.49,0,0,0-1.1.16c-.76.15-1.54.28-2.28.47a28.17,28.17,0,0,0-8.26,3.72c-.32.21-.64.41-1,.63l-.89.74-.89.74-.79.86a21.69,21.69,0,0,0-1.44,1.7c-.45.58-.92,1.1-1.38,1.63a43.69,43.69,0,0,1-6,5.73,7.65,7.65,0,0,1-3.35,1.66,6.91,6.91,0,0,1-3.52-.36,5.15,5.15,0,0,1-1.48-.85,3.76,3.76,0,0,1-.57-.55c-.17-.25-.35-.5-.5-.74a10.77,10.77,0,0,1-.9-3.12,17,17,0,0,1-.16-2.81c.35-.11.69-.22,1-.35l1-.33c.35-.13.68-.28,1-.42.66-.31,1.36-.54,2-.9l1.95-1,1.85-1.2c.61-.42,1.18-.89,1.77-1.34s1.11-1,1.67-1.47,1-1.07,1.55-1.6,1-1.15,1.43-1.72a23.34,23.34,0,0,0,2.38-3.87,8.65,8.65,0,0,0,.47-1.07,8.81,8.81,0,0,0,.41-1.17l.17-.68.08-.33,0-.26.07-.53,0-.68.12-4.38,1.36-.68.38,12.64.55-18.25a6.63,6.63,0,0,0,1,.34,16.25,16.25,0,0,0,1.66.39l.69.08.35,0h1.85a5.4,5.4,0,0,0,1.82-.21,4,4,0,0,0,.95-.4,4.68,4.68,0,0,0,.82-.58,5.07,5.07,0,0,0,1.18-1.59,6.15,6.15,0,0,0,.35-1.1c0-.26,0-.42.07-.63,0-.87,0-1.71,0-2.53,0-3,.07-5.67.09-7.84,0-3.17.07-5.34.08-6.3h0V33.05L96.21,32,90,19.53v48h0c0,1,0,3.13.08,6.3,0,2.17.06,4.81.09,7.84,0,.38,0,.77,0,1.16v1.09c0,.18,0,.37,0,.49s0,0,0,.07a1.39,1.39,0,0,1-.3.43c-.07,0-.12.13-.21.16a.58.58,0,0,1-.24.11.51.51,0,0,1-.27.06,2.1,2.1,0,0,1-.52,0H87l-.35,0L86,85.2c-.45,0-.71-.18-1.09-.25a9.1,9.1,0,0,1-1.13-.4,2.22,2.22,0,0,1-.62-.29L84.1,53l2.61-1.31L84.07,47l-3.55-6.38.22,7.16,1.08,35.65-.27-.2-5.09-3.59-11-7.75-7.14-5c-.06-.06-.11-.13-.16-.19l-.94-1a5.59,5.59,0,0,1,.85-.42l1.06-.39a12.75,12.75,0,0,1,2.18-.58,6.89,6.89,0,0,1,1.11-.15l1.12-.1c.75,0,1.51,0,2.25.11a18.47,18.47,0,0,1,4.4,1.06,19.11,19.11,0,0,1,4,2l1.69-2.22-1.15-1.09-.58-.55c-.18-.19-.35-.4-.52-.59l-1-1.2-.92-1.29a11.58,11.58,0,0,1-.84-1.34c-.25-.46-.55-.9-.77-1.38L69.4,56c-.23-.48-.38-1-.58-1.48a13.24,13.24,0,0,1-.51-1.5,16,16,0,0,1-.44-1.54c-.12-.52-.27-1-.36-1.55s-.2-1-.28-1.57c0-.17,0-.34-.07-.51l.28.36,3.12-2.5-4.09-4.93L63.28,37l-.16,4.9c0,.68,0,1.24,0,1.85s.07,1.18.13,1.77c.1,1.17.28,2.34.49,3.5.11.57.25,1.15.38,1.72s.3,1.14.46,1.7.35,1.13.54,1.69.39,1.11.63,1.65.44,1.1.71,1.62L67.29,59c.27.53.61,1,.92,1.52a12.27,12.27,0,0,0,1,1.47l.18.23A19,19,0,0,0,66,61.63c-.86-.09-1.73,0-2.59,0l-1.29.16a7,7,0,0,0-1.28.23,13.83,13.83,0,0,0-2.47.75l-1.2.48a12.4,12.4,0,0,0-1.13.62L55,64.46,41.62,55l-3-2.15-1.53-1.08-.75-.53L36,51l-.36-.3A6.32,6.32,0,0,1,34,48a5.73,5.73,0,0,1-.17-1.61V46l0-.46a2.9,2.9,0,0,1,.16-.69,4.41,4.41,0,0,1,1.85-2.37c1-.52,2.15-1.06,3.21-1.58l6.38-3.1L68.41,26.73l9.16-4.44,2-1a1.86,1.86,0,0,1,.92-.19c.28,0,.37.32.3.62A7.47,7.47,0,0,1,80,23.44L79.2,25c-2,3.84-3.2,6-3.2,6l3.35-6c.27-.48.55-1,.84-1.5A7.72,7.72,0,0,0,81,21.81a1,1,0,0,0,0-.56.64.64,0,0,0-.48-.39,2,2,0,0,0-1.1.19l-2,.9-9.27,4.21L44.94,36.7l-6.47,2.93c-1.11.52-2.16,1-3.33,1.54a6,6,0,0,0-2.65,3.18,5.78,5.78,0,0,0-.27,1.09l0,.46v.53a7.87,7.87,0,0,0,.19,2,8.28,8.28,0,0,0,1.35,2.8,7.41,7.41,0,0,0,.74.83l.35.31.05,0,.1.07.09.07.19.14.74.56,1.5,1.11,3,2.23L53,66a8.21,8.21,0,0,0-1,.89c-.58.6-1.21,1.19-1.75,1.79l-1.61,1.8c-2.17,2.38-4.38,4.71-6.7,6.93-1.16,1.11-2.35,2.19-3.57,3.21a34.87,34.87,0,0,1-3.83,2.85,8.69,8.69,0,0,1-1,.59,7.32,7.32,0,0,1-1.05.52l-.53.23L31.4,85a6.6,6.6,0,0,1-1.16.26,6.83,6.83,0,0,1-4.42-.72,6.35,6.35,0,0,1-2.94-3.44c-.07-.18-.15-.36-.2-.54l-.11-.58a4.64,4.64,0,0,1-.15-1.17c0-.39,0-.79,0-1.18l.18-1.18A5.77,5.77,0,0,1,22.87,75.24Zm79.58,22.35A4.41,4.41,0,1,1,98,102,4.42,4.42,0,0,1,102.45,97.59Zm-22.2-11.3a7.72,7.72,0,0,0,.67.45c.34.19.68.42,1,.6l.14,4.42-1.39-2.6-2.27-4.25,1.24.93Z"/><circle class="cls-1" cx="105" cy="86.08" r="2"/><circle class="cls-1" cx="101" cy="86.08" r="2"/><circle class="cls-1" cx="56" cy="82" r="2"/><circle class="cls-1" cx="52" cy="82" r="2"/><path class="cls-1" d="M72.21,55c.36.37.67.72,1,1.08L75,58.12a2,2,0,0,0,1.23.67,2,2,0,0,0,2.28-1.7V57c.06-.41.08-.82.13-1.22s.11-.8.16-1.23c0-.21.07-.44.11-.66s.09-.47.15-.72.13-.5.2-.78.17-.57.3-.88a2.8,2.8,0,0,0-1,0,4.5,4.5,0,0,0-.94.31A5.1,5.1,0,0,0,76,53.06a5.44,5.44,0,0,0-.45.62,7.07,7.07,0,0,0-.8-.33,5.57,5.57,0,0,0-2-.27,4.14,4.14,0,0,0-1,.24,2.49,2.49,0,0,0-.88.56,5.85,5.85,0,0,1,.78.53A6.42,6.42,0,0,1,72.21,55Z"/><path class="cls-1" d="M52.41,53.09a6.42,6.42,0,0,1,.6.55c.36.37.67.72,1,1.08l1.8,2.08a2,2,0,0,0,3.51-1v-.06c.06-.41.08-.82.14-1.22s.1-.8.15-1.24c0-.21.07-.43.11-.66s.09-.46.15-.71.13-.5.21-.78.17-.57.29-.88a2.8,2.8,0,0,0-1,0,4.5,4.5,0,0,0-.94.31,5.1,5.1,0,0,0-1.58,1.19,5.44,5.44,0,0,0-.45.62A6,6,0,0,0,55.6,52a5.44,5.44,0,0,0-2.05-.27,4.4,4.4,0,0,0-1,.23,2.6,2.6,0,0,0-.88.56A7.79,7.79,0,0,1,52.41,53.09Z"/><path class="cls-1" d="M38.46,88.86c.36.36.67.72,1,1.08L41.24,92a2,2,0,0,0,1.23.68A2,2,0,0,0,44.75,91v0c.06-.41.08-.82.14-1.22s.1-.8.15-1.24c0-.21.07-.43.11-.66s.09-.47.15-.71a6.65,6.65,0,0,1,.21-.79c.08-.26.17-.56.29-.87a2.8,2.8,0,0,0-1,0,4.5,4.5,0,0,0-.94.31A4.81,4.81,0,0,0,42.29,87a5.32,5.32,0,0,0-.45.61,7,7,0,0,0-.8-.32A5.17,5.17,0,0,0,39,87a4.4,4.4,0,0,0-1,.23,2.6,2.6,0,0,0-.88.56,6.73,6.73,0,0,1,1.37,1.09Z"/><path class="cls-1" d="M50.35,109.71l1.8,2.08a2,2,0,0,0,3.52-1v-.06c.06-.41.07-.82.13-1.22s.1-.8.15-1.24c0-.21.07-.43.12-.66s.09-.46.15-.71.13-.5.2-.78.17-.57.3-.88a2.79,2.79,0,0,0-1,0,4.32,4.32,0,0,0-.94.31,5,5,0,0,0-1.58,1.19,7.11,7.11,0,0,0-.46.62A5,5,0,0,0,52,107a5.39,5.39,0,0,0-2.05-.27,4.52,4.52,0,0,0-1,.23,2.7,2.7,0,0,0-.88.56,9.47,9.47,0,0,1,.78.54,5.24,5.24,0,0,1,.59.55C49.73,109,50.05,109.35,50.35,109.71Z"/><path class="cls-1" d="M92.41,122.65l1.8,2.07a2.1,2.1,0,0,0,1.23.68,2,2,0,0,0,2.29-1.71v0c.06-.41.08-.82.14-1.22s.1-.8.15-1.24c0-.21.07-.43.11-.66s.09-.47.15-.71.13-.5.21-.79a9.1,9.1,0,0,1,.3-.87,2.85,2.85,0,0,0-1,0,4.7,4.7,0,0,0-.94.31,4.81,4.81,0,0,0-1.58,1.19,6.85,6.85,0,0,0-.45.61A7.68,7.68,0,0,0,94,120a5.22,5.22,0,0,0-2-.27,4.4,4.4,0,0,0-1,.23,2.6,2.6,0,0,0-.88.56,6.73,6.73,0,0,1,1.37,1.09C91.79,121.93,92.1,122.29,92.41,122.65Z"/><path class="cls-1" d="M83.41,128.68l.38.45,2.38-3.22-.14,0s-.13,0-.18,0a1.39,1.39,0,0,1-.25-.12c-.08-.08-.19-.15-.29-.26A3.82,3.82,0,0,1,85,125a5,5,0,0,1-.42-1l-.49-4.25s-.27.45-.61,1.18a12.39,12.39,0,0,0-1,2.87,8,8,0,0,0-.16,1.78,6,6,0,0,0,.34,1.76,7.1,7.1,0,0,0,.36.73A2.88,2.88,0,0,0,83.41,128.68Z"/><path class="cls-1" d="M53.91,129.64l.38.45,2.38-3.22-.14,0a.35.35,0,0,1-.18,0,1.39,1.39,0,0,1-.25-.12c-.08-.08-.19-.15-.29-.26a3.82,3.82,0,0,1-.3-.42,5,5,0,0,1-.42-1l-.48-4.25A12.22,12.22,0,0,0,54,122a12.41,12.41,0,0,0-1,2.87,7,7,0,0,0-.16,1.78,5.67,5.67,0,0,0,.33,1.76c.11.27.25.51.36.73A3.47,3.47,0,0,0,53.91,129.64Z"/><path class="cls-1" d="M37.79,114.47a.33.33,0,0,1-.18,0,1.39,1.39,0,0,1-.25-.12c-.08-.08-.19-.15-.29-.26a3.82,3.82,0,0,1-.3-.42,5,5,0,0,1-.42-1l-.48-4.25a12.22,12.22,0,0,0-.62,1.18,12,12,0,0,0-1,2.87,7.47,7.47,0,0,0-.17,1.78,6,6,0,0,0,.34,1.76c.11.27.25.51.36.73a3,3,0,0,0,.37.53l.38.45,2.38-3.22Z"/><path class="cls-1" d="M32.17,99.58l.38.45,2.38-3.22-.14,0a.42.42,0,0,1-.18,0,1.51,1.51,0,0,1-.25-.13c-.08-.08-.19-.15-.29-.26a3.82,3.82,0,0,1-.3-.42,4.77,4.77,0,0,1-.42-1l-.48-4.24a12.7,12.7,0,0,0-.62,1.17,12.05,12.05,0,0,0-1,2.88,7.42,7.42,0,0,0-.17,1.78,5.91,5.91,0,0,0,.34,1.75c.11.27.25.51.36.73A3.6,3.6,0,0,0,32.17,99.58Z"/><path class="cls-1" d="M36.84,66.52c-.15.38-.23.81-.44,1.23a12.5,12.5,0,0,1-.67,1.31,12.92,12.92,0,0,1-.87,1.31c-.3.43-.64.84-1,1.25s-.71.79-1,1.17c-.72.74-1.42,1.4-2.05,1.94-1.26,1.09-2.18,1.74-2.18,1.74s1-.42,2.53-1.22c.75-.4,1.61-.9,2.51-1.48.43-.31.91-.6,1.35-1a15.33,15.33,0,0,0,1.35-1.09,12.3,12.3,0,0,0,1.28-1.22,14.54,14.54,0,0,0,1.14-1.35c.36-.45.63-1,.93-1.44s.44-1,.64-1.48.24-1,.34-1.38a4.56,4.56,0,0,0,.1-1.11c0-.64,0-1,0-1a2.25,2.25,0,0,0,0-.44,2,2,0,1,0-4,.84l.06.27.11.53a1.89,1.89,0,0,1,.1.63c0,.25,0,.54,0,.87S36.94,66.13,36.84,66.52Z"/><path class="cls-1" d="M69.15,94.45c-.15.38-.24.81-.44,1.23A11.65,11.65,0,0,1,68,97a10.53,10.53,0,0,1-.86,1.31c-.3.44-.65.85-1,1.26s-.71.78-1.05,1.17c-.72.73-1.42,1.4-2,1.94-1.26,1.09-2.18,1.73-2.18,1.73s1-.42,2.53-1.22c.75-.39,1.6-.89,2.5-1.48.44-.31.92-.6,1.36-1s.92-.7,1.35-1.09a14.87,14.87,0,0,0,1.28-1.23,14.54,14.54,0,0,0,1.14-1.35A15.13,15.13,0,0,0,72,95.63c.26-.49.45-1,.65-1.47s.24-1,.34-1.38a5.21,5.21,0,0,0,.1-1.12c0-.63,0-1,0-1a2.1,2.1,0,0,0,0-.43,2,2,0,0,0-4,.83l.06.28.11.52a2.6,2.6,0,0,1,.1.64c0,.25,0,.54,0,.87S69.25,94.06,69.15,94.45Z"/><path class="cls-1" d="M111.62,55a2,2,0,0,0-4,.27l0,.28s0,.2,0,.54a1.68,1.68,0,0,1,0,.64,8.36,8.36,0,0,1-.12.86c-.11.31-.19.67-.35,1a11.93,11.93,0,0,1-.61,1.16,11,11,0,0,1-.85,1.19c-.16.21-.34.42-.52.63l1-23.22L108.92,37l-2.64-4.73-3.66-6.58.33,7.36,1.31,29.49c-.24.23-.48.46-.73.68-.39.37-.82.68-1.21,1-.81.63-1.6,1.19-2.3,1.64a27.64,27.64,0,0,1-2.41,1.4s1.09-.27,2.68-.84c.8-.29,1.72-.67,2.69-1.12.44-.22.92-.44,1.38-.7l.35,8,.37-8.39q.45-.26.87-.54a14.61,14.61,0,0,0,1.44-1,13.32,13.32,0,0,0,1.31-1.17,14.86,14.86,0,0,0,1.12-1.3c.33-.45.59-.94.85-1.37s.37-.91.53-1.31a5.46,5.46,0,0,0,.26-1.09c.09-.63.15-1,.15-1A2.14,2.14,0,0,0,111.62,55Z"/><path class="cls-1" d="M53.17,48.66l.38.45,2.38-3.22-.14,0a.33.33,0,0,1-.18,0,2.72,2.72,0,0,1-.25-.12c-.08-.08-.19-.16-.29-.27a2.91,2.91,0,0,1-.3-.41,5,5,0,0,1-.42-1l-.48-4.25A12.22,12.22,0,0,0,53.25,41a11.81,11.81,0,0,0-1,2.87,7.47,7.47,0,0,0-.17,1.78,6,6,0,0,0,.34,1.76c.11.26.25.51.36.72A3.15,3.15,0,0,0,53.17,48.66Z"/><path class="cls-1" d="M76.64,76.69a2.58,2.58,0,0,0,.37.53l.38.45,2.38-3.21-.14,0a.46.46,0,0,1-.19,0c-.06,0-.15-.07-.24-.13s-.19-.15-.3-.26-.21-.25-.3-.42a5,5,0,0,1-.41-1l-.49-4.24s-.27.45-.62,1.17a13.09,13.09,0,0,0-1,2.87,8.12,8.12,0,0,0-.16,1.79A6,6,0,0,0,76.28,76,5.52,5.52,0,0,0,76.64,76.69Z"/><path class="cls-1" d="M72.62,39.85s-.12,0-.18-.05-.15-.06-.25-.13a3.06,3.06,0,0,1-.29-.26,3.64,3.64,0,0,1-.3-.41,6.15,6.15,0,0,1-.42-1l-.48-4.25A12.7,12.7,0,0,0,70.08,35a13,13,0,0,0-1,2.88,7.42,7.42,0,0,0-.16,1.78,5.4,5.4,0,0,0,.34,1.76,6.92,6.92,0,0,0,.35.72,2.68,2.68,0,0,0,.38.54l.38.45,2.37-3.22Z"/><path class="cls-1" d="M100,49.21a.45.45,0,0,1-.18,0c-.07,0-.16-.07-.25-.13s-.19-.15-.29-.26a3.82,3.82,0,0,1-.3-.42,5,5,0,0,1-.42-1l-.48-4.24a11.2,11.2,0,0,0-.62,1.17,12.41,12.41,0,0,0-1,2.87A7,7,0,0,0,96.32,49a5.67,5.67,0,0,0,.33,1.76c.11.27.25.51.36.73a3,3,0,0,0,.37.53l.38.45L99,50.84h0l1.19-1.61Z"/><path class="cls-1" d="M111.22,72.38c-.07,0-.16-.07-.25-.13s-.19-.15-.29-.26a3.82,3.82,0,0,1-.3-.42,5,5,0,0,1-.42-1l-.49-4.25s-.27.45-.61,1.18a12,12,0,0,0-1,2.87,7.47,7.47,0,0,0-.17,1.78,6,6,0,0,0,.34,1.76c.11.27.25.51.36.73a3,3,0,0,0,.37.53l.38.45,2.38-3.22-.14,0A.42.42,0,0,1,111.22,72.38Z"/><path class="cls-1" d="M46.66,48.59a.35.35,0,0,1-.18-.05c-.06,0-.15-.06-.25-.12a3.33,3.33,0,0,1-.29-.27,4,4,0,0,1-.3-.41,5.76,5.76,0,0,1-.42-1l-.48-4.25a12.22,12.22,0,0,0-.62,1.18,12.73,12.73,0,0,0-1,2.87A8,8,0,0,0,43,48.36a5.67,5.67,0,0,0,.34,1.76c.1.26.24.51.35.73a3.47,3.47,0,0,0,.38.53l.38.45,1.19-1.61h0l1.18-1.61Z"/><path class="cls-1" d="M102.54,121.29a3.15,3.15,0,0,0,.37.54l.38.45,2.38-3.22-.14,0a.35.35,0,0,1-.18-.05,2.72,2.72,0,0,1-.25-.12c-.08-.08-.19-.16-.29-.27a2.91,2.91,0,0,1-.3-.41,5,5,0,0,1-.42-1l-.48-4.25a14.13,14.13,0,0,0-1.6,4,7,7,0,0,0-.16,1.78,5.4,5.4,0,0,0,.34,1.76A6.92,6.92,0,0,0,102.54,121.29Z"/></svg>