<svg id="Symbols" xmlns="http://www.w3.org/2000/svg" viewBox="0 0 150 150"><defs><style>.cls-1{fill:#221f20;}</style></defs><title>hamsa-alt-bold</title><ellipse class="cls-1" cx="75" cy="90.4" rx="13.71" ry="9.05"/><path class="cls-1" d="M75,106.53c10.35,0,19.23-7.19,23.06-16.13-3.83-9-12.71-16.33-23.06-16.33S55.77,81.45,51.94,90.4C55.77,99.34,64.65,106.53,75,106.53Zm0-28.46c8.58,0,15.33,6,18.64,12.32-3.28,6.27-10,12.14-18.64,12.14S59.64,96.66,56.36,90.39C59.67,84,66.42,78.07,75,78.07Z"/><path class="cls-1" d="M89.84,26.49a13,13,0,0,0-3.19.39,13.3,13.3,0,0,0-23.3,0,13,13,0,0,0-3.19-.39A13.29,13.29,0,0,0,46.89,39.76V51.62a13.47,13.47,0,0,0-1.56-.09A13.29,13.29,0,0,0,32.05,64.8V91.69A38.36,38.36,0,0,0,70.36,130h9.28A38.36,38.36,0,0,0,118,91.69V64.8a13.29,13.29,0,0,0-13.28-13.27,13.47,13.47,0,0,0-1.56.09V39.76A13.29,13.29,0,0,0,89.84,26.49Zm14.83,33A5.28,5.28,0,0,1,110,64.8V91.69A30.35,30.35,0,0,1,79.64,122H70.36A30.35,30.35,0,0,1,40.05,91.69V64.8a5.27,5.27,0,0,1,8.44-4.21l6.4,4.82V39.76a5.27,5.27,0,0,1,8.46-4.19l5.73,4.37.67-7.17a5.27,5.27,0,0,1,10.5,0l.67,7.17,5.73-4.37a5.27,5.27,0,0,1,8.46,4.19V65.41l6.4-4.82A5.27,5.27,0,0,1,104.67,59.53Z"/><path class="cls-1" d="M89.84,68.65a2,2,0,0,0,2-2V39.76a2,2,0,1,0-4,0V66.65A2,2,0,0,0,89.84,68.65Z"/><path class="cls-1" d="M75,68.65a2,2,0,0,0,2-2V39.76a2,2,0,1,0-4,0V66.65A2,2,0,0,0,75,68.65Z"/><path class="cls-1" d="M60.16,68.65a2,2,0,0,0,2-2V39.76a2,2,0,1,0-4,0V66.65A2,2,0,0,0,60.16,68.65Z"/><path class="cls-1" d="M78.45,114.73h-6.9c-13.13,0-24.22-10.55-24.22-23v-25a2,2,0,0,0-4,0v25c0,14.66,12.92,27,28.22,27h6.9c15.3,0,28.22-12.38,28.22-27v-25a2,2,0,0,0-4,0v25C102.67,104.18,91.58,114.73,78.45,114.73Z"/></svg>