<svg id="Layer_2" data-name="Layer 2" xmlns="http://www.w3.org/2000/svg" viewBox="0 0 150 150"><title>Kon inca symbol - bold</title><rect x="62.23" y="95.76" width="25.83" height="9.64" rx="4.16"/><rect x="46.47" y="63.86" width="16.16" height="9.64" rx="4.16"/><rect x="87.66" y="63.86" width="16.16" height="9.64" rx="4.16"/><path d="M93.61,87.69a27.56,27.56,0,0,0-6.53-4.44l-1.66,3.64c.11,0,11.08,5.16,8.93,13-2.9,10.57-14.27,14.2-18.56,15.57l-.46.15-.42-.13C70.47,114,58.68,110.21,56.32,100c-1.84-8,8.82-13,8.92-13.09l-1.68-3.62c-.56.26-13.71,6.48-11.14,17.61,2.87,12.45,16.71,16.94,21.25,18.41l1,.32.68.25.68-.25,1-.33c4.39-1.4,17.72-5.66,21.2-18.32C99.49,96.27,97.9,91.69,93.61,87.69Z"/><path d="M114.71,28.76l-.28-1.29a9.32,9.32,0,0,0-9.11-7.23H44.9a9.39,9.39,0,0,0-9.32,8.6c-.27,2.31-4,36.3,0,63a46.24,46.24,0,0,0,29.59,36.76,43.22,43.22,0,0,0,9.49,2.32l.48.06.49-.06a42.71,42.71,0,0,0,9.07-2.17,46.09,46.09,0,0,0,30-36.74C118.8,64.92,114.88,30.22,114.71,28.76Zm-7.93,62A38.13,38.13,0,0,1,82,121.2a34.32,34.32,0,0,1-6.89,1.7,35.22,35.22,0,0,1-7.22-1.82A38.27,38.27,0,0,1,43.49,90.64c-2.63-17.48-1.72-38.86-.83-51.1l.58.66,4.95-4.42,6.51,4.84,7.11-6.4L65,37H62.49v4h9.42V31.7h-4v2.57l-6.12-5.41-7.33,6.6L48,30.63,43,35c.29-3.3.51-5.28.52-5.36l0-.18a1.36,1.36,0,0,1,1.35-1.26h60.42a1.34,1.34,0,0,1,1.32,1.05l.14.61c.07.6.26,2.42.49,5.11l-4.91-4.38-6.5,4.83-7.33-6.6-6.11,5.4V31.54h-4v9.38L87.5,41l0-4-2.16,0,3.13-2.76,7.11,6.4,6.51-4.84,5,4.42.56-.63C108.53,51.85,109.44,73.3,106.78,90.8Z"/><path d="M69.28,58.14V87.05h11V58.14c10.6-7,23.15-1.41,23.15-1.41V45.81S86.13,41,74.45,49.07c-11.68-8.08-28.8-3.26-28.8-3.26V56.73S58.68,51.13,69.28,58.14Z"/></svg>