<svg id="Layer_2" data-name="Layer 2" xmlns="http://www.w3.org/2000/svg" viewBox="0 0 150 150"><title>Supay inca symbol - bold</title><path d="M57.12,73.08l1.44.61L60,73.17c.15,0,14.7-5,30,0l1.44.48,1.4-.6c.57-.25,13.53-6.07,7.84-27.39L108.51,38l-5.62-5.69L91.67,43.39l.73,2.33c3.95,12.55.23,17.63-1.69,19.31A54,54,0,0,0,79,63V31H71V63.07a60.36,60.36,0,0,0-11.69,2c-2-1.71-5.65-6.81-1.71-19.31l.73-2.33L47.11,32.31,41.49,38l7.79,7.69C43.59,67,56.55,72.83,57.12,73.08Z"/><path d="M65.45,100.69a4.28,4.28,0,0,0,1.72,2.9c1.52,1,3.35.68,5,.36a9.44,9.44,0,0,1,2.29-.28h1.23a9.54,9.54,0,0,1,2.26.28,12.86,12.86,0,0,0,2.49.33,4.18,4.18,0,0,0,2.42-.68,4.28,4.28,0,0,0,1.72-2.91,4.07,4.07,0,0,0-1.14-4.07,3.73,3.73,0,0,0-1.51-.79,3.43,3.43,0,0,0-.25-1.65,3.64,3.64,0,0,0-1.2-1.51,3.14,3.14,0,0,0-.81-3.5,3.3,3.3,0,0,0-2.51-.92A4.29,4.29,0,0,0,75,89a4.38,4.38,0,0,0-2.19-.79,3.26,3.26,0,0,0-2.5.92,3.15,3.15,0,0,0-1,2.52,3.42,3.42,0,0,0,.21,1,3.65,3.65,0,0,0-1.22,1.52A3.49,3.49,0,0,0,68,95.84a3.81,3.81,0,0,0-1.41.76A4.07,4.07,0,0,0,65.45,100.69Zm13.84-.86a4.32,4.32,0,0,1,1.36-.18,1.6,1.6,0,0,1,0,.33,1.68,1.68,0,0,1-.07.3A9.49,9.49,0,0,1,78.7,100h0ZM72.86,95.6l2.1-.14,2.1.14a3.15,3.15,0,0,1,.72.16,4.8,4.8,0,0,1-.62.85L75,99.14l-2.2-2.53a5,5,0,0,1-.63-.85A3.16,3.16,0,0,1,72.86,95.6Zm-2.25,4.22.67.23a9.19,9.19,0,0,1-1.82.23,1.68,1.68,0,0,1-.07-.3,1.61,1.61,0,0,1,0-.34A4.21,4.21,0,0,1,70.61,99.82Z"/><path d="M77.08,77.75A2.08,2.08,0,1,0,75,79.83,2.08,2.08,0,0,0,77.08,77.75Z"/><path d="M74.76,105a114.21,114.21,0,0,1-11.91-1.24s-4.63,8.78.79,14.28a20.41,20.41,0,0,1,2.6-11.73l1.43,4.26,1.67-3.91,1.42,3.67,1.5-3.58,1.42,3.33,1.08-3.16L76,110.08l1.54-3.33,1.5,3.58,1.41-3.67,1.67,3.91,1.41-4.26A20.25,20.25,0,0,1,86.07,118c5.42-5.5.73-14.28.73-14.28A115.43,115.43,0,0,1,74.76,105Z"/><path d="M74.76,118Z"/><path d="M79.68,114.92l-1.68-4-1.26,4.93-1.25-3.91-1,4.28-1-4.28-1.25,3.91-1.25-4.93-1.67,4-.41-4-2.29,3.6s2.2,3.64,8.2,3.54a10.47,10.47,0,0,0,7.91-3.54l-2.55-3.6Z"/><path d="M61.51,103.42a11,11,0,0,1-4.66-1.92s-1.84,3.3,2.75,9.4A13.28,13.28,0,0,1,61.51,103.42Z"/><path d="M88.49,103.42a13.28,13.28,0,0,1,1.91,7.48c4.59-6.1,2.75-9.4,2.75-9.4A11,11,0,0,1,88.49,103.42Z"/><path d="M72.08,78.25c-2.31,2-5.84-2.81-9.08-2.73a4.51,4.51,0,0,0-4.11,3.24s-.43.93.44-.08a6.85,6.85,0,0,1,2.45-1.58c2.59-.72,5.18,3.31,8.21,5S72.08,78.25,72.08,78.25Z"/><path d="M88.22,77.1a6.85,6.85,0,0,1,2.45,1.58c.87,1,.44.08.44.08A4.51,4.51,0,0,0,87,75.52c-3.24-.08-6.77,4.75-9.08,2.73,0,0-.93,5.62,2.09,3.89S85.63,76.38,88.22,77.1Z"/><path d="M125.16,74.13c-17.52-5.93-28.83,1.92-33.27,7.94a7.58,7.58,0,0,0-1.51-.15,7.67,7.67,0,1,0,0,15.33l.46,0a30.29,30.29,0,0,0,13.49,3.59A20.24,20.24,0,0,0,113,98.9c11.21-5.27,14.6-19.48,14.74-20.08l.82-3.53ZM86.71,89.58a3.67,3.67,0,1,1,3.67,3.67A3.66,3.66,0,0,1,86.71,89.58Zm22.92,2.08c-3.33,1.56-7.3,1.51-11.85-.13a7.34,7.34,0,0,0,.26-2,7.65,7.65,0,0,0-.27-2l0,0c.27-.45,6.34-10.11,21-7C117.29,84.19,114.44,89.4,109.63,91.66Z"/><path d="M59.62,97.25a7.67,7.67,0,1,0,0-15.33,7.88,7.88,0,0,0-1.54.15,25.44,25.44,0,0,0-7.33-6.44c-5.07-3-13.67-5.65-25.91-1.5l-3.43,1.16.82,3.53c.14.6,3.53,14.81,14.74,20.08a20.24,20.24,0,0,0,8.7,1.92,30.29,30.29,0,0,0,13.49-3.59Zm3.67-7.67a3.67,3.67,0,1,1-3.67-3.66A3.67,3.67,0,0,1,63.29,89.58ZM40.4,91.67c-4.86-2.26-7.71-7.48-9.16-11,14.61-3.15,20.69,6.52,21,7l0,0a7.65,7.65,0,0,0-.27,2,7.34,7.34,0,0,0,.26,2C47.69,93.17,43.72,93.22,40.4,91.67Z"/></svg>