<svg id="Layer_2" data-name="Layer 2" xmlns="http://www.w3.org/2000/svg" viewBox="0 0 150 150"><title>Catequil inca symbol - bold</title><ellipse cx="75" cy="62" rx="5" ry="2"/><path d="M105.5,68.5a6,6,0,0,0-12,0,5.7,5.7,0,0,0,.23,1.61L93.58,70l-4.43-7.4a19,19,0,0,0,4.12-7.5c1.33.53,2.65,1.1,4,1.75a5.71,5.71,0,0,0,8-6.57h0C98.78,25.66,82.07,23,75.19,23h-.38c-6.88,0-23.59,2.66-30.08,27.32a5.7,5.7,0,0,0,8,6.57c1.31-.65,2.63-1.22,4-1.75a18.85,18.85,0,0,0,3.93,7.29l-4.26,7.1a5.8,5.8,0,0,0,.1-1A6,6,0,1,0,47,73.34l-.36.09L49.84,87H57v16h8.33v16.52H58v8H73.33V103h3.34v24.52H92v-8H84.67V103H93V87h7.16l3.23-13.57-.36-.09A6,6,0,0,0,105.5,68.5Zm-6-2a2,2,0,1,1-2,2A2,2,0,0,1,99.5,66.5ZM74.81,31h.38C80.86,31,90.62,33.29,96,47.6A55.36,55.36,0,0,0,54,47.6C59.38,33.28,69.14,31,74.81,31ZM64,52.78a4.49,4.49,0,1,0,8.86-1.26c.7,0,1.4-.07,2.1-.07s1.42,0,2.12.07A4.49,4.49,0,1,0,86,52.78c1.18.28,2.36.62,3.53,1a15,15,0,0,1-29,0C61.67,53.4,62.85,53.06,64,52.78ZM50.5,66.5a2,2,0,1,1-2,2A2,2,0,0,1,50.5,66.5ZM85,95H65V79H60.06l7-11.75a18.83,18.83,0,0,0,15.57.13l7,11.62H85Z"/></svg>