<svg id="Layer_2" data-name="Layer 2" xmlns="http://www.w3.org/2000/svg" viewBox="0 0 150 150"><title>Urcuchillay inca symbol - bold</title><path d="M52.66,53.18s-1,5.24,0,9.06a65.3,65.3,0,0,1,1.47,7.46,34.57,34.57,0,0,0,3.06,3.62s.5.54.74.31h0v0c1-1.19,2.86-3.1,2.86-3.1s.84-3.75,1.88-7.7.11-9.35.11-9.35l-.94,4.26-2.39-9.25.84-2.39-2.62-6.64v-.07l-.37,0-.37,0v.07L54.76,46l1,2.32-2.23,9Z"/><ellipse cx="58.52" cy="80.91" rx="2.11" ry="5.43"/><polygon points="55 75 53.24 77.37 55 79.61 55 75"/><polygon points="55 86.61 55 82 53.24 84.37 55 86.61"/><polygon points="62 75 62 79.61 63.76 77.37 62 75"/><polygon points="62 86.61 63.76 84.37 62 82 62 86.61"/><path d="M61,84.3S59.86,90.71,56.41,86l-.08.37c-.5,2.49-2.88,16.92,10.24,15,0,0-2.31-2.58-1.36-5.55C65.21,95.79,60.88,93.6,61,84.3Z"/><path d="M64.62,102c-.46,0-6.73,1.39-8.78-6.25l-1.47,2,2.6,3.53-2,8.8-1.77-.86L46,124H43v8h8l9.37-19.29-1.13-.55C61,109.18,65,102,64.62,102Z"/><path d="M73.83,101.51l2.84-4.06-3.19-1L73.13,96H66.79s-1.82,2.53.78,5.88l.63,8.61-1.68-.38L63.37,124H61v8h8.76l4.57-20.11-1.23-.28Z"/><path d="M89.82,101l12.16,6L91,98s5.74-9.27-1.56-22.13l7.3-11.29-10.2,7.93-9.21-4,7,6.25S79.79,76,77.88,82H80s2-4.65,5.53-5.58l-6.14,7.07a8.32,8.32,0,0,0-8-.87l-3.79-7.94,3.79-5.21-4.6,2.67L62.9,65.48l-.42,1.73L65,74.05l-1.25,2,.92,1.23-1.76,3.41.84,1a12.53,12.53,0,0,1,2.45-5.21l3.37,7.76s9.39-4,11.3,4.54l-6,4.07,6.26-1a9.76,9.76,0,0,1-3.24,7.18l1.79-.46L82.05,96l5.51,3.71a13.73,13.73,0,0,1-3.36,5.15S85.47,105.67,89.82,101Zm-6.9-8.13a16.11,16.11,0,0,0,.12-2.3l2.72-1.77-3-.31-.87-2.72,5.33-6.9c7.58,9.9,1.21,17.55,1.21,17.55S82.81,93.1,82.92,92.91Z"/><path d="M100.81,89.89C100.53,81.43,94,82,94,82a17.53,17.53,0,0,1,0,8.59s1.25,6.93,5.55,5.18,7.9,2.2,7.9,2.2C108.85,93,100.81,89.89,100.81,89.89Z"/><polygon points="81.46 110.41 82.46 97.97 74.81 101.21 76.56 111.49 74.73 111.9 76 117.66 76 132 84 132 84 116.78 82.54 110.17 81.46 110.41"/><polygon points="95.6 106.41 95.4 105 89.85 102.38 89 105 89 110.08 88.88 110.15 89 110.37 89 111 89.32 110.95 94 119.37 94 132 102 132 102 117.3 95.87 106.26 95.6 106.41"/><path d="M113,33.57A13.93,13.93,0,0,0,92.29,21.42a33.18,33.18,0,0,0-49,38.19L51,57.23A25.22,25.22,0,0,1,75,24.55,24.92,24.92,0,0,1,86.61,27.4,13.91,13.91,0,0,0,99.09,47.51c.33,0,.66,0,1,0,.07.75.11,1.51.11,2.27a25,25,0,0,1-1.9,9.61l7.4,3.06a33.05,33.05,0,0,0,2.5-12.67,33.74,33.74,0,0,0-.42-5.26A13.91,13.91,0,0,0,113,33.57Zm-19.88,0a5.54,5.54,0,0,1,.12-1.15,25.54,25.54,0,0,1,4.69,7A5.94,5.94,0,0,1,93.15,33.57Zm6.61-5.89A5.94,5.94,0,0,1,105,33.57a6,6,0,0,1-.22,1.6A33,33,0,0,0,99.76,27.68Z"/></svg>