<svg id="Layer_2" data-name="Layer 2" xmlns="http://www.w3.org/2000/svg" viewBox="0 0 150 150"><title>Pachamama inca symbol - bold</title><path d="M75.58,15.89a58.36,58.36,0,1,0,58.35,58.35A58.42,58.42,0,0,0,75.58,15.89Zm5.91,8.36-.93,2.4a25,25,0,0,0-10,0l-.93-2.4a48.61,48.61,0,0,1,11.81,0ZM88.34,47.1a12.27,12.27,0,0,0-.74-3.44L93.1,40a19.5,19.5,0,0,1,2.53,7.11Zm-25.53,0H55.52a19.67,19.67,0,0,1,2.59-7.2l5.48,3.65A12.72,12.72,0,0,0,62.81,47.1Zm2.79-7L60.52,36.7a20.31,20.31,0,0,1,7.69-5.19l2,5A12.81,12.81,0,0,0,65.6,40.08Zm10-.72A8.61,8.61,0,1,1,66.77,48,8.72,8.72,0,0,1,75.58,39.36Zm10,.81A12.89,12.89,0,0,0,81,36.56l2-5.05a20.33,20.33,0,0,1,7.75,5.27Zm-8.48-4.71a13.47,13.47,0,0,0-1.56-.1,12.85,12.85,0,0,0-1.54.1l-2-5a19.86,19.86,0,0,1,7,0ZM75.58,124.6a50.35,50.35,0,0,1-9.94-99.72l1.12,2.89a24.18,24.18,0,0,0-9.62,6.69l-5.09-3.39L49.83,34.4l4.94,3.29a23.54,23.54,0,0,0-3.28,9.41h-8v4H63.19a12.6,12.6,0,0,0,4,6.41L66.1,57a5.11,5.11,0,0,0-6.35,1.7L50.46,71.88a1.13,1.13,0,0,1-2-.26l-4.6-12.55a5.17,5.17,0,0,0-4.82-3.37H34.43v4h4.62a1.13,1.13,0,0,1,1.06.75L44.71,73a5.13,5.13,0,0,0,4.16,3.32,5,5,0,0,0,.67.05,5.11,5.11,0,0,0,4.19-2.18L63,61a1.13,1.13,0,0,1,1.4-.37l2.07,1,1.58-3.41A12.86,12.86,0,0,0,83.28,58l1.64,3.55,2.07-1A1.14,1.14,0,0,1,88.4,61l9.28,13.2a5.11,5.11,0,0,0,4.19,2.18,5.19,5.19,0,0,0,.68-.05A5.12,5.12,0,0,0,106.7,73l4.6-12.55a2.38,2.38,0,0,1,.51-.75h4.92v-4h-5.65c-1.51,0-3.1,2.2-3.53,3.37l-4.61,12.55a1.13,1.13,0,0,1-2,.26L91.67,58.69A5.14,5.14,0,0,0,85.31,57l-1.7.78A12.65,12.65,0,0,0,88,51.1h18.5v-4h-6.8a23.58,23.58,0,0,0-3.23-9.32l5.07-3.38L99.3,31.07l-5.22,3.47a24.16,24.16,0,0,0-9.67-6.76l1.13-2.9a50.36,50.36,0,0,1-10,99.72Z"/><path d="M83.07,99.33a8.6,8.6,0,0,0,4.85-7.73h-4a4.62,4.62,0,0,1-4.61,4.61H77.87V88.33a7.74,7.74,0,0,0,5.74-7.47h-4a3.74,3.74,0,1,1-7.48,0h-4a7.74,7.74,0,0,0,5.74,7.47v7.88H72.43a4.62,4.62,0,0,1-4.61-4.61h-4a8.62,8.62,0,0,0,4.85,7.73,9.91,9.91,0,1,0,14.4,0ZM75.87,112a5.91,5.91,0,1,1,5.91-5.9A5.91,5.91,0,0,1,75.87,112Z"/><path d="M72.21,48a2.52,2.52,0,1,0-2.53-2.52A2.54,2.54,0,0,0,72.21,48Zm0-3a.52.52,0,0,1,.52.52.53.53,0,1,1-.52-.52Z"/><path d="M79.39,48a2.52,2.52,0,1,0-2.52-2.52A2.53,2.53,0,0,0,79.39,48Zm0-3a.52.52,0,0,1,.52.52.52.52,0,0,1-1,0A.52.52,0,0,1,79.39,44.93Z"/><path d="M72.13,50.28l-1.84.77a5.74,5.74,0,0,0,10.58,0L79,50.28a3.75,3.75,0,0,1-6.9,0Z"/><path d="M118.05,84.42a5.69,5.69,0,0,0-5.58-1.75L97.24,86.33a1.67,1.67,0,0,1-2.06-1.63v-12h-4v12a5.67,5.67,0,0,0,7,5.52l15.22-3.66a1.68,1.68,0,0,1,1.67.53,1.6,1.6,0,0,1,.32,1.62,42.59,42.59,0,0,1-31.76,27.12l.76,3.93a46.63,46.63,0,0,0,34.76-29.68A5.57,5.57,0,0,0,118.05,84.42Z"/><path d="M36,88.71a1.55,1.55,0,0,1,.32-1.62A1.66,1.66,0,0,1,38,86.56l15.22,3.66a5.67,5.67,0,0,0,7-5.52v-12h-4v12a1.66,1.66,0,0,1-2.06,1.63L39,82.67a5.7,5.7,0,0,0-5.59,1.75,5.54,5.54,0,0,0-1.09,5.66A46.6,46.6,0,0,0,67,119.76l.75-3.93A42.58,42.58,0,0,1,36,88.71Z"/><path d="M66.63,75.86a6,6,0,1,0-6-6A6,6,0,0,0,66.63,75.86ZM64,73.12l-.71-.7.87-.88.71.71Zm3.08.87h-1V72.76h1Zm2.09-.86-.87-.87.71-.71.87.88Zm1.58-2.79H69.56v-1h1.23Zm-1.57-3.8.71.71-.87.87-.71-.7Zm-3.08-.87h1v1.24h-1Zm.49,2.09a2.08,2.08,0,1,1-2.08,2.07A2.08,2.08,0,0,1,66.63,67.76Zm-2.58-1.23.87.88-.71.7-.87-.87Zm-1.58,2.8h1.24v1H62.47Z"/><path d="M84.08,75.86a6,6,0,1,0-6-6A6,6,0,0,0,84.08,75.86Zm-.14-9a2.95,2.95,0,0,1,0,5.89,3,3,0,0,1-2.64-1.63,2.08,2.08,0,1,0,0-2.58A2.94,2.94,0,0,1,83.94,66.89Z"/></svg>