<svg id="Layer_2" data-name="Layer 2" xmlns="http://www.w3.org/2000/svg" viewBox="0 0 150 150"><title>Chakana inca symbol 1 - bold</title><path d="M98.86,131.5H51.14V118.26H31.27V98.39H19V52.55h12.3V32.69H52.08V18.5H97.92V32.69h20.81V52.55H131V98.39h-12.3v19.87H98.86Zm-39.72-8H90.86V110.26h19.87V90.39H123V60.55h-12.3V40.69H89.92V26.5H60.08V40.69H39.27V60.55H27V90.39h12.3v19.87H59.14ZM75,98.86A23.86,23.86,0,1,1,98.86,75,23.88,23.88,0,0,1,75,98.86Zm0-39.72A15.86,15.86,0,1,0,90.86,75,15.87,15.87,0,0,0,75,59.14Z"/></svg>