<svg id="Layer_2" data-name="Layer 2" xmlns="http://www.w3.org/2000/svg" viewBox="0 0 150 150"><title>Viracocha inca symbol - bold</title><path d="M102,25V61.74l-8.54,5.64L89,61.89c4.46-2.9,7.76-7.37,7.76-12.49v-4a16,16,0,0,0-16-16h-10a16,16,0,0,0-16,16v4a12.12,12.12,0,0,0,.08,1.36,2,2,0,0,0-1.34-.54,1.92,1.92,0,1,0,1.77,2.65,17.15,17.15,0,0,0,7.63,9.27l-4.29,5.24L50,61.74V25H42V98h8V71.45l4.43,5.63L60.94,81l-.1-11.25L65,81H87l4.16-11.25L91.06,81l6.51-3.92L102,71.45V98h8V25ZM62.69,45.43a8,8,0,0,1,8-8h10a8,8,0,0,1,8,8v4c0,4.05-6.3,8-11,8h-4c-4.71,0-11-3.95-11-8Z"/><polygon points="102 125 50 125 50 117 42 117 42 133 110 133 110 117 102 117 102 125"/><rect x="57" y="107" width="38" height="8"/><rect x="55" y="116" width="42" height="8"/><path d="M69.39,45a2.17,2.17,0,1,0-2.16-2.16A2.16,2.16,0,0,0,69.39,45Z"/><path d="M82.39,45a2.17,2.17,0,1,0-2.16-2.16A2.16,2.16,0,0,0,82.39,45Z"/><path d="M73.62,50h4.62c-2.81-10,1.83-10,1.83-10L76,40l-4.14,0S76.43,40,73.62,50Z"/><path d="M77,52.38H74.71a2,2,0,1,0,0,3.93H77a2,2,0,1,0,0-3.93Z"/><path d="M56.35,58.14a1.92,1.92,0,1,0-1.92,1.91A1.92,1.92,0,0,0,56.35,58.14Z"/><path d="M52.43,41.05a1.92,1.92,0,1,0-1.92-1.91A1.91,1.91,0,0,0,52.43,41.05Z"/><path d="M53.43,35.05a1.92,1.92,0,1,0-1.92-1.91A1.91,1.91,0,0,0,53.43,35.05Z"/><path d="M63.43,26.05a1.92,1.92,0,1,0-1.92-1.91A1.91,1.91,0,0,0,63.43,26.05Z"/><path d="M69.43,26.05a1.92,1.92,0,1,0-1.92-1.91A1.91,1.91,0,0,0,69.43,26.05Z"/><path d="M95.51,58.14a1.92,1.92,0,1,0,1.92-1.92A1.91,1.91,0,0,0,95.51,58.14Z"/><path d="M100.35,52.14a1.92,1.92,0,1,0-1.92,1.91A1.92,1.92,0,0,0,100.35,52.14Z"/><path d="M97.51,39.14a1.92,1.92,0,1,0,1.92-1.92A1.91,1.91,0,0,0,97.51,39.14Z"/><path d="M98.43,35.05a1.92,1.92,0,1,0-1.92-1.91A1.91,1.91,0,0,0,98.43,35.05Z"/><path d="M88.43,26.05a1.92,1.92,0,1,0-1.92-1.91A1.91,1.91,0,0,0,88.43,26.05Z"/><path d="M82.43,26.05a1.92,1.92,0,1,0-1.92-1.91A1.91,1.91,0,0,0,82.43,26.05Z"/><path d="M92,106h2V82H58v24H92ZM86,90v8H84V90ZM66,98V90h2v8Z"/></svg>