<svg id="Layer_2" data-name="Layer 2" xmlns="http://www.w3.org/2000/svg" viewBox="0 0 150 150"><title>Ekeko inca symbol - bold</title><path d="M65.63,67.12c0,2,4.2,3.6,9.37,3.6s9.37-1.61,9.37-3.6-4.2-.72-9.37-.72S65.63,65.13,65.63,67.12Z"/><path d="M109,63.09,114.36,54,109.2,43.79l-7.14,3.62,3.18,6.26L102,59.12l-3.54-2L90.74,64a22.88,22.88,0,0,0-.67-3.69c1.36-2.51,1.25-5.69.79-8.3h6.61V44H94.7L86.64,24H64.3L56.24,44H53.47v8H59c-.36,2.6-.36,5.79,1,8.3a22.32,22.32,0,0,0-.58,2.94l-6.9-6.14-3.57,2-3.19-5.46L49,47.41l-7.13-3.62L36.7,54l5.35,9.16-2,1.12,5.23,13.52-5.16,3L37.45,101l5.76-3.71A17.89,17.89,0,0,0,52,106.67v1.86c-2,2.56-5.64,8.06-3.87,13.11C49,124,51.24,127,57.39,128c7,1.07,12.87-1.6,17.61-8,4.06,5.45,9,8.19,14.69,8.19a18.41,18.41,0,0,0,2.92-.23c6.15-.94,8.43-4,9.26-6.31,1.77-5-1.84-10.55-3.87-13.11v-1.88A17.48,17.48,0,0,0,107.33,94h3.56l-5.7-15.2L111,64.25ZM81.06,81.37h-.85V80.2l.34-.11Zm3.17-2.87.09-.06,0,.16ZM69.7,32H81.24l4.84,12H64.86ZM86.77,52c.47,2.2.68,4.83-.27,6.46-.87-.86-2.78-1.46-5-1.46-3,0-5.5,1.12-5.5,2.5S78.46,62,81.5,62a8.58,8.58,0,0,0,4.58-1.11C86.43,62,88,67.81,85.33,72.1c-1.71,2.72-4.92,4.37-9.55,4.9H74.34c-4.62-.53-7.83-2.18-9.54-4.89C62.17,67.94,63.63,62.26,64,61a8.79,8.79,0,0,0,4.48,1c3,0,5.5-1.12,5.5-2.5S71.54,57,68.5,57a7.79,7.79,0,0,0-4.93,1.39c-.92-1.64-.83-4.22-.48-6.39ZM69.24,80c.18.06.36.13.55.18v1.21h-1ZM43.85,83.23,52,78.48v8.43L42.55,93ZM63,99V91h4v8Zm7.46,13.3c-2.31,4.1-5.74,8.69-11.85,7.75-2.23-.35-2.89-1-2.93-1.06-.31-.87,1.14-3.94,3.27-6.29l1-1.14V108H73v2A5.21,5.21,0,0,0,70.46,112.3ZM94.32,119c0,.1-.7.71-2.93,1.06-6.11.94-9.54-3.65-11.85-7.75A5.21,5.21,0,0,0,77,110v-2H90v3.55l1,1.15C93.18,115.05,94.63,118.12,94.32,119Zm-1-19H71V87H59v13H56.69a9.89,9.89,0,0,1-6.54-7.15L56,89.09V71.52l-3.69,2.15L50,67.77l1.51-.87L65.3,79.14l-2.07,6.23H73.79V81L74,81h2.1l.1,0v4.4H86.94L84.81,80,99.51,66.9l1.48.85L98.05,75.1l-8.29,2.48L92.28,94h6.84A9.47,9.47,0,0,1,93.3,100Zm2.42-10-1.48-9.58,6.54-2L105.11,90Z"/></svg>