<svg id="Layer_2" data-name="Layer 2" xmlns="http://www.w3.org/2000/svg" viewBox="0 0 150 150"><title>Mama Allpa inca symbol - bold</title><path d="M65.13,52.63c0-.6-1.73-1.09-3.87-1.09s-3.88.49-3.88,1.09,1.74,1.09,3.88,1.09S65.13,53.24,65.13,52.63Z"/><ellipse cx="75.83" cy="52.63" rx="3.87" ry="1.09"/><path d="M68.57,59.56c-4,0-7.29,0-7.29,1.18s3.26,3.19,7.29,3.19,7.29-2,7.29-3.19S72.6,59.56,68.57,59.56Z"/><path d="M113.37,75.18h0v0c-.21-.91-.43-1.83-.67-2.76s-.43-1.54-.68-2.26c-4-13.84-9.47-24.4-16.3-31.42a27.77,27.77,0,0,0-10.08-7c-3.34-4.06-8.66-6.94-17.17-6.94C45.7,24.79,45.7,46.11,45.7,54.14h.06c0,.33-.06.66-.06,1a20.4,20.4,0,0,0,.9,6,17,17,0,0,0-8.92,2.51c-2.46,1.61-5.56,4.82-6.33,11-1.82,14.77.4,22.59,2.54,27.75,3,7.3,10.07,14.54,15.45,19.33a5,5,0,0,0,6.06.48A11.41,11.41,0,0,0,64,130.13a19.11,19.11,0,0,0,3.79.38,24.53,24.53,0,0,0,11.14-2.95l1.25-.56a8.69,8.69,0,0,0,2.07.25,13.5,13.5,0,0,0,6.18-1.71,15.76,15.76,0,0,1,4.5-1.48c21.94-3.94,23.74-15.27,23.87-16.54l0-.24A129.93,129.93,0,0,0,113.37,75.18ZM99.14,58.25a23.15,23.15,0,0,0-8.16-.1,20,20,0,0,0,.23-3c0-.34,0-.67,0-1h0a68.5,68.5,0,0,0-.45-9A51.7,51.7,0,0,1,99.14,58.25ZM67,107.62c-3.61,0-6.35-1.64-7.33-3.49l-.37-1.76c.25-2.25,3.34-4.64,7.7-4.64,4.55,0,7.73,2.6,7.73,4.94S71.58,107.62,67,107.62Zm1.43-38.93c-8.14,0-14.76-6.08-14.76-13.55,0-7.84,7.41-11.35,14.76-11.35S83.21,47.3,83.21,55.14C83.21,62.61,76.59,68.69,68.46,68.69Zm0-35.9c6.43,0,10.08,2.15,12.13,5.65a27.33,27.33,0,0,0-12.13-2.65,27.51,27.51,0,0,0-11.84,2.5C58.79,34.75,62.45,32.79,68.46,32.79ZM49,102a21.31,21.31,0,0,0-1,7.12,37.16,37.16,0,0,1-6.7-9.81c-1.76-4.26-3.58-10.8-2-23.71.32-2.54,1.21-4.27,2.74-5.27,2.86-1.88,7.63-1.2,9.63-.68a23.13,23.13,0,0,0,11.77,6.49A43.51,43.51,0,0,0,63.73,90a16.69,16.69,0,0,0-8.32,4,7.35,7.35,0,0,1-2.27-6l.55-6.66-8-.66-.55,6.66a15.32,15.32,0,0,0,4.68,12.38A18.06,18.06,0,0,0,49,102ZM65.6,122.29A3.41,3.41,0,0,1,63,119.63l-1-4.7a18.87,18.87,0,0,0,5,.69,18.43,18.43,0,0,0,6.16-1,25.36,25.36,0,0,0,.21,3.28,16.47,16.47,0,0,0,.71,3.14A14,14,0,0,1,65.6,122.29Zm43.22-15.65c-.26.89-2.59,6.9-17.32,9.54a24,24,0,0,0-6.77,2.26,5.42,5.42,0,0,1-2.64.82s-.51-.47-.75-2.41c-.79-6.2,1.75-9.19,3.06-10.29.49.63,1.48,2.36,2.23,6.62l7.88-1.38a25.16,25.16,0,0,0-3.16-9.24,10.1,10.1,0,0,1,10.09.52l4.33-6.72a17.54,17.54,0,0,0-8.9-2.9L95.7,81.19l-8,.75L89,94.88a24.11,24.11,0,0,0-6.1,3.57,6.84,6.84,0,0,0-.87.26c-1.54-3.93-5.31-7-10.08-8.33a35.89,35.89,0,0,1-.4-13.9,23,23,0,0,0,15.59-9c2.26-1,8.26-2.72,12.51-.69,2.18,1,3.75,3,4.79,5.91.41,1.42.81,2.88,1.19,4.42A125.55,125.55,0,0,1,108.82,106.64Z"/><path d="M58.48,90.56a1.23,1.23,0,1,0-1.1-1.23A1.17,1.17,0,0,0,58.48,90.56Z"/><path d="M82.48,88.11a1.23,1.23,0,1,0,1.09,1.22A1.17,1.17,0,0,0,82.48,88.11Z"/></svg>