<svg id="Layer_2" data-name="Layer 2" xmlns="http://www.w3.org/2000/svg" viewBox="0 0 150 150"><title>Mama Killa inca symbol - bold</title><path d="M75,27.17c20.64,0,37.43,11.09,37.43,24.72h8c0-18-20.38-32.72-45.43-32.72S29.57,33.85,29.57,51.89h8C37.57,38.26,54.36,27.17,75,27.17Z"/><path d="M104.77,53.76h4c0-12.51-15.15-22.69-33.77-22.69S41.23,41.25,41.23,53.76h4c0-10.3,13.36-18.69,29.77-18.69S104.77,43.46,104.77,53.76Z"/><path d="M97,56.42V55.1a5.21,5.21,0,1,0-4,0v0a67.18,67.18,0,0,0-37,.32V55.1a5.21,5.21,0,1,0-4,0v1.73C35.41,63.11,24,75.94,24,90.71h8c0-10.63,8-20,19.93-25.31v5C43,75,37.08,82.19,35.58,90.33l3.93.73C40.79,84.15,46,78,53.81,74c0,.11,0,.21,0,.32A5.25,5.25,0,1,0,56,70.06V63.82a59.83,59.83,0,0,1,37-.35v6a5.08,5.08,0,0,0-2-.39,5.22,5.22,0,1,0,5.19,5.48c7.23,4,12,9.93,13.23,16.53l3.93-.73C111.85,82.2,105.9,75,97,70.42V64.94c12.57,5.24,21,14.83,21,25.77h8C126,75.62,114.11,62.55,97,56.42Zm-2-7.35a1.22,1.22,0,1,1-1.21,1.22A1.21,1.21,0,0,1,95,49.07Zm-41,0a1.22,1.22,0,1,1-1.21,1.22A1.21,1.21,0,0,1,54,49.07Zm5,24a1.22,1.22,0,1,1-1.22,1.22A1.22,1.22,0,0,1,59,73.07Zm32,2.44a1.22,1.22,0,1,1,1.22-1.22A1.22,1.22,0,0,1,91,75.51Z"/><rect x="62" y="43.5" width="26" height="4"/><circle cx="68" cy="68.29" r="3.22"/><circle cx="82" cy="68.29" r="3.22"/><path d="M73.11,78.11h3.78a1.9,1.9,0,0,0,0-3.79H73.11a1.9,1.9,0,0,0,0,3.79Z"/><path d="M54,114.5h6v9H90v-9h6v-8H54Zm10,5v-5h7v5Zm22,0H79v-5h7Z"/><path d="M109.37,104.26l3.57-6L96.63,88.56l-.13.22V83.64L85.85,79.41,85,80.83a11.7,11.7,0,0,1-19.92,0l-.89-1.42L53.5,83.64v5.18l0-.07-16,9.47,3.4,5.76a2.4,2.4,0,0,0-.62,1l-4.88,17H49.65l-4.88-17a2.42,2.42,0,0,0-.91-1.27l13.68-8.1-.08-.14H59l-2.86,8H93.84L91,95.5h1.66l13.7,8.11a2.4,2.4,0,0,0-1.11,1.4l-4.88,17h14.28l-4.88-17A2.21,2.21,0,0,0,109.37,104.26ZM44.34,118H40.68l1.83-6.36ZM92.5,91.5H85.31l2.85,8H61.84l2.85-8H57.5V86.36l5.1-2a15.72,15.72,0,0,0,24.8,0l5.1,2ZM105.66,118l1.83-6.36,1.83,6.36Z"/></svg>