<svg id="Layer_2" data-name="Layer 2" xmlns="http://www.w3.org/2000/svg" viewBox="0 0 150 150"><title>Urcaguary inca symbol - bold</title><path d="M74.38,129.73a55,55,0,1,1,55-55A55.06,55.06,0,0,1,74.38,129.73Zm0-102a47,47,0,1,0,47,47A47.05,47.05,0,0,0,74.38,27.73Z"/><path d="M74.38,117.13a42.4,42.4,0,1,1,42.39-42.4A42.45,42.45,0,0,1,74.38,117.13Zm0-80.79a38.4,38.4,0,1,0,38.39,38.39A38.44,38.44,0,0,0,74.38,36.34Z"/><path d="M48.77,94.35a6,6,0,0,1-3.43-1.1,6.27,6.27,0,0,1-2.62-3.92A6.18,6.18,0,0,1,47.34,82L63.77,78.6l.41,2L47.74,84a4.16,4.16,0,0,0-3.06,4.94,4.3,4.3,0,0,0,1.79,2.67,4,4,0,0,0,3.05.66l12.22-2.14.34,2L49.89,94.24A5.25,5.25,0,0,1,48.77,94.35Z"/><path d="M87.17,69.53,102.3,52.37,83.58,55.65,84.52,39S69.25,55.18,64.88,56.42,54,60,51.3,66.56l-12,5.31s-1.31,7,5.35,9.82l19-4a2,2,0,1,1,1,3.9L49,85c-1.8.37-3.32,1.56-3.09,3.45.14,1.21,1.21,2.61,3.68,2.34C53.8,90.29,71.11,87,71.11,87s4.26,12-9.26,21.84c0,0,21.41,7.58,36.08-6.71C97.93,102.12,103.08,83.41,87.17,69.53ZM63.9,72a5.25,5.25,0,1,1,5.25-5.24A5.24,5.24,0,0,1,63.9,72ZM76,61.82l14.36-2.94-9.16,9.49Z"/><circle cx="63.9" cy="66.74" r="2.96"/></svg>