<svg id="Layer_2" data-name="Layer 2" xmlns="http://www.w3.org/2000/svg" viewBox="0 0 150 150"><title>Cavillace inca symbol - bold</title><path d="M121.34,49.8C109.39,31.7,90.31,29,80,29c-15.15,0-21.43,5.65-24,10.39a18.08,18.08,0,0,0-1.49,12.88c-7.33,10.39-6.34,27.29-2,40.08a12,12,0,0,0-3.06-1.09,1.84,1.84,0,0,0,0-.33,4.84,4.84,0,0,0-3.47-4l-1.27,3.8a1.19,1.19,0,0,1,.63.39,11.79,11.79,0,0,0-2.64.69,52.51,52.51,0,0,1,1.49-60.06,2,2,0,0,0-2.8-2.8,56.54,56.54,0,0,0-15,74.72,17.79,17.79,0,0,0,26.28,22.84,56.53,56.53,0,0,0,52.22-4.14,14.87,14.87,0,0,0,5-1.42c8.12-3.8,15.23-13.48,18.55-25.28A55.72,55.72,0,0,0,121.34,49.8ZM59.63,59.29c3.35,2.17,7.54,2.44,12.09.72C75,64,82,70.44,92.79,71c1.92.1,2,.72,2,1.22A5,5,0,0,1,94.13,75l-3.64,2.94c-8.43,6.78-23.37,16.17-28.68,14.73-.5-.13-.8-.33-1.08-1.06C56.86,81.49,55.53,67.8,59.63,59.29Zm19.45,41A14.43,14.43,0,0,0,77.69,96a106.65,106.65,0,0,0,12.48-7.83l4.56,26.54a51.81,51.81,0,0,1-19-.45C78.64,109.35,79.78,104.67,79.08,100.32ZM58.6,100a10,10,0,0,0,1.13.38c3,.81,6.75.23,10.64-1.12,1.15,2,2,6-2.66,12.68a53.25,53.25,0,0,1-8.54-4.2,17.44,17.44,0,0,0-.56-1.73,11.76,11.76,0,0,0,.39-3A12.1,12.1,0,0,0,58.6,100ZM47,95a8,8,0,1,1-8,8A8,8,0,0,1,47,95ZM22.31,74.52a52.73,52.73,0,0,1,12-33.34,56.62,56.62,0,0,0,5,52.69,12.44,12.44,0,0,0-1.11,1.07L38,95a17.83,17.83,0,0,0-9,5.17A52.35,52.35,0,0,1,22.31,74.52ZM42,126.12a13.8,13.8,0,0,1-6.66-25.89A11.55,11.55,0,0,0,35,103a12,12,0,0,0,20.74,8.19c0,.38.06.75.06,1.13A13.81,13.81,0,0,1,42,126.12Zm32.83.92a52.17,52.17,0,0,1-19-3.54,17.67,17.67,0,0,0,4-10.83,56.34,56.34,0,0,0,26.72,6.71,57.64,57.64,0,0,0,9.47-.8,9.48,9.48,0,0,0,3,2.59A52,52,0,0,1,74.83,127ZM99,115.93ZM120.81,93.5c-2.67,9.48-8.26,17.41-14.23,20.21-2.16,1-3.29.74-3.83.4l-5.33-31a10.72,10.72,0,0,0,1.72-1.48c2.84-3,4.78-8.4,3-12.86-1.37-3.42-4.63-5.51-8.92-5.73-10.9-.57-16.54-9.68-16.77-10l-2-3.37L71,51.51c-5.93,3.35-7.8.69-8.61-.57a9.9,9.9,0,0,1,.79-8.11C65.61,39,71.42,37,80,37c10.63,0,25.27,3,34.66,17.2A47.73,47.73,0,0,1,120.81,93.5Z"/><path d="M67.14,70.6C70.36,71.77,77,73.77,83.25,73l-.5-4c-7.33.91-15.85-2.81-15.94-2.85l-1.92-.85-5.76,15,3.74,1.44Z"/><path d="M72.27,72.57l-3.56,1.82a7.35,7.35,0,0,0,6.67,3.66,11.84,11.84,0,0,0,3.75-.65l-1.26-3.8C73.75,75,72.41,72.82,72.27,72.57Z"/></svg>