<svg id="Layer_2" data-name="Layer 2" xmlns="http://www.w3.org/2000/svg" viewBox="0 0 150 150"><title>Inti inca symbol - bold</title><circle cx="75" cy="59.78" r="2"/><polygon points="68.2 91 81.8 91 79.48 87 70.48 87 68.2 91"/><path d="M60.41,68.07c6.32-3,10.26-1.25,11.65-.38A27.51,27.51,0,0,1,74,71.83c1,2.65-2.58,7.67-2.58,7.67s-1.93,2.88,1.46,2.82L74,84H76l1.09-1.68c3.39.06,1.46-2.82,1.46-2.82S75,74.48,76,71.83a26.83,26.83,0,0,1,1.93-4.13c1.4-.88,5.33-2.59,11.65.37l1.28-2.71c-8.25-3.88-13.46-1-15,.14H74.17c-1.58-1.13-6.79-4-15-.14Z"/><path d="M88.44,61.27a19.29,19.29,0,0,0-7.76-4.89L79,62A16.5,16.5,0,0,1,88.44,61.27Z"/><path d="M69.32,56.38a19.29,19.29,0,0,0-7.76,4.89A16.5,16.5,0,0,1,71,62Z"/><path d="M74.69,20.19A54.7,54.7,0,0,0,20,74.9v4H53.42v-4A21.27,21.27,0,1,1,96,74.9v4H129.4v-4A54.77,54.77,0,0,0,74.69,20.19Zm0,25.23a29.39,29.39,0,0,0-29,25.48H41a34.23,34.23,0,0,1,68,0h-5.29A29.38,29.38,0,0,0,74.69,45.42ZM117,70.9A42.23,42.23,0,0,0,33,70.9H28.16a46.71,46.71,0,0,1,93.07,0Z"/><path d="M90.86,81a1,1,0,0,1-1-1V78H83l4.45,11.88c.82,2.18.78,3.45.5,3.87a.79.79,0,0,1-.57.27h-6.6L77.6,96.93v.88a2.6,2.6,0,1,1-5.2,0v-.88L69.22,94H62.56a.81.81,0,0,1-.5-.25c-.29-.41-.34-1.68.49-3.89L67,78H60.14v2a1,1,0,0,1-2,0h-4a5,5,0,0,0,5,5,4.71,4.71,0,0,0,1-.1L58.8,88.45c-1.24,3.32-1.24,5.88,0,7.62A4.78,4.78,0,0,0,62.62,98h5l.81.75a6.76,6.76,0,0,0,6.4,5.79h.28a6.76,6.76,0,0,0,6.4-5.79l.81-.75h5a4.82,4.82,0,0,0,3.87-1.93c1.24-1.74,1.24-4.3,0-7.62l-1.34-3.57a4.71,4.71,0,0,0,1,.1,5,5,0,0,0,5-5h-4A1,1,0,0,1,90.86,81Z"/><path d="M62.54,73c6.1,3.75,9.41-.86,9.41-.86-2.9-4.65-7-2.65-9.21-2a9.36,9.36,0,0,1-4.41,0S56.43,69.21,62.54,73Z"/><path d="M87.46,73c6.11-3.76,4.21-2.91,4.21-2.91a9.36,9.36,0,0,1-4.41,0c-2.25-.6-6.31-2.6-9.21,2C78.05,72.11,81.36,76.72,87.46,73Z"/></svg>