<svg id="Layer_2" data-name="Layer 2" xmlns="http://www.w3.org/2000/svg" viewBox="0 0 150 150"><title>Mama Sara inca symbol - bold</title><rect x="62.47" y="43.41" width="7.54" height="5.41"/><rect x="80" y="43.41" width="7.54" height="5.41"/><path d="M130.43,101.55l-3-7.44-9,3.56V83.5H129v-8H118.5V73.12h1.19V70.5H122v-8h-2.31v-1H122v-8h-2.31V47.76H118.5V43.84l9,3.46,2.86-7.47-9.47-3.64,9.47-3.63-2.86-7.47-9,3.46V23h-8V47.76h-1V23h-8V47.76h-1.06V60a31.24,31.24,0,0,0-4.21-3.82l-.73,1V34.52h0V22h-8V34.52H84V22H76V34.52H74V22H66V34.52H62.5V22h-8V37h0V56.89l-.5-.71a31,31,0,0,0-4.44,4.06V47.76H48.5V23h-8V47.76h-1V23h-8v5.55l-9-3.46-2.86,7.47,9.47,3.63-9.47,3.64,2.86,7.47,9-3.46v3.92H30.31V53.5H28v8h2.31v1H28v8h2.31v2.62H31.5V75.5H21v8H31.5V97.67l-9-3.56-2.95,7.44,9.2,3.64-9.2,3.65,2.95,7.44,9-3.56V126h8V73.12h3.14c-.11.55-.21,1.1-.28,1.67-.69,6,1.25,11.9,5.79,17.45L49,98.5h4.42v14H45.57v13.89H68.2V104.5h14v21.89h22.63V112.5H96.8v-14h4L102,92.34c4.59-5.58,6.57-11.48,5.86-17.55-.06-.57-.16-1.12-.27-1.67h2.91V126h8V112.72l9,3.56,3-7.44-9.2-3.65ZM41.56,65.12H38.31V55.76h3.25ZM91.5,38.52v23.2h-33V38.52ZM64.2,122.39H49.57V116.5H64.2Zm-6.77-9.89v-14H64.2v14Zm10.77-12v-2h3.3v-13h7v13h3.73v2Zm32.66,16v5.89H86.23V116.5h14.63Zm-8.06-4H86.23v-14H92.8Zm2.46-24.59-.71.81-.34,1.78H86.5v-13h-23v13H56l-.24-1.69-.79-.9c-3.54-4-5.11-8.13-4.65-12.16s2.94-7.69,5.07-10H94.84c2.13,2.33,4.6,5.85,5.08,10S98.82,83.86,95.26,87.91Zm13.18-32.15h3.25v9.36h-3.25Z"/><path d="M65.68,56.25l3,3.25h12.2L84.32,56,81.52,53a2.39,2.39,0,0,1-.23.22A9.32,9.32,0,0,1,68.48,53Z"/></svg>