<svg id="Layer_2" data-name="Layer 2" xmlns="http://www.w3.org/2000/svg" viewBox="0 0 150 150"><title>Mama Qucha inca symbol - bold</title><path d="M75,19.6A43.85,43.85,0,0,0,31.19,63.4h8a35.81,35.81,0,0,1,71.62,0h8A43.85,43.85,0,0,0,75,19.6Z"/><path d="M73.44,60.84s-2.18-2.39-4.86-2.39-4.86,2.39-4.86,2.39,2.17,2.4,4.86,2.4S73.44,60.84,73.44,60.84Z"/><path d="M81.58,63.24c2.68,0,4.86-2.4,4.86-2.4s-2.18-2.39-4.86-2.39-4.86,2.39-4.86,2.39S78.89,63.24,81.58,63.24Z"/><path d="M75.58,74.45c-2.69,0-4.86,2.39-4.86,2.39s2.17,2.4,4.86,2.4,4.86-2.4,4.86-2.4S78.26,74.45,75.58,74.45Z"/><path d="M28.38,61.81l-3.45-2L21.5,57.73c-.38.63-9.1,15.64-.26,36.76l7.38-3.09C21.4,74.17,28.09,62.31,28.38,61.81Z"/><path d="M128.73,57.73l-6.88,4.08c.29.5,7,12.36-.24,29.59L129,94.49C137.84,73.37,129.11,58.36,128.73,57.73Z"/><path d="M94.3,73.41a7.61,7.61,0,0,0,1.28.12,7.48,7.48,0,0,0,6.93-10.29h4a31.49,31.49,0,0,0-63,0h4.14a7.48,7.48,0,0,0,6.93,10.29,7.08,7.08,0,0,0,1.13-.1c.13.28.29.59.43.88L40,80.32l2.8,7.49,5.25-2a28,28,0,0,0,13,16.81,6.65,6.65,0,0,0,.86,10.55L59,117.39a27.89,27.89,0,0,0,31.53.35l-2.85-4.25A6.66,6.66,0,0,0,89,102.67,28,28,0,0,0,101.87,86l4.83,1.8,2.79-7.49L93.78,74.46ZM78.41,98.13a4,4,0,0,1-6.82,0A4,4,0,0,1,70.94,96a4.06,4.06,0,1,1,8.12,0A4,4,0,0,1,78.41,98.13ZM74.88,81.62c-6.35,0-11.46-10-13-14a7.81,7.81,0,0,0,.16-1.54,7.49,7.49,0,0,0-7.2-7.47,20.47,20.47,0,0,1,2.49-1.48c4.58-2.29,11-3.6,17.65-3.6s13.07,1.31,17.65,3.6a19.43,19.43,0,0,1,2.5,1.49,7.48,7.48,0,0,0-7.05,7.46,7.24,7.24,0,0,0,.11,1.24C86.84,71.13,81.63,81.62,75,81.62Zm20.7-12.09a3.48,3.48,0,1,1,3.48-3.48A3.48,3.48,0,0,1,95.58,69.53ZM93.39,48.66a40.74,40.74,0,0,0-5.14-1.61l.85-2.56A23.52,23.52,0,0,1,93.39,48.66Zm-9.08-2.42a56.11,56.11,0,0,0-7.31-.7V39.85a23.34,23.34,0,0,1,8.61,2.45ZM73,39.85v5.69a56.85,56.85,0,0,0-7,.65l-1.34-4A23.34,23.34,0,0,1,73,39.85ZM61.17,44.28,62.06,47a43,43,0,0,0-5.45,1.69A23.66,23.66,0,0,1,61.17,44.28ZM55.48,69.39a3.38,3.38,0,0,1-.9.14A3.5,3.5,0,1,1,56,69.21Zm4.94,11.87c3.14,4.07,6.68,6.71,10.42,7.8A8.06,8.06,0,0,0,66.94,96a6.85,6.85,0,0,0,0,.79A20,20,0,0,1,55.62,83.05Zm5.08,29a2.67,2.67,0,1,1,2.67-2.66A2.67,2.67,0,0,1,65.5,110.28Zm16.33-2.66a2.67,2.67,0,1,1,2.67,2.66A2.67,2.67,0,0,1,81.83,107.62Zm-.58,5.81a19.78,19.78,0,0,1-12.51,0A6.64,6.64,0,0,0,72,106.27a24.59,24.59,0,0,0,5.94,0,6.64,6.64,0,0,0,3.28,7.16ZM94.34,83.21A20,20,0,0,1,83,96.74a6.85,6.85,0,0,0,0-.79A8.05,8.05,0,0,0,79.12,89c3.73-1.08,7.24-3.65,10.35-7.64Z"/></svg>