<svg id="Layer_2" data-name="Layer 2" xmlns="http://www.w3.org/2000/svg" viewBox="0 0 150 150"><title>Ataguchu inca symbol - bold</title><path d="M128,63.44V59c0-20.6-23.78-37.36-53-37.36S22,38.4,22,59v4.44L45,61v17.7L41.39,104H57.64L55,86l5,1.81v12.53L58.12,106H42v21h66V106H91.88L90,100.35V87.82l5-1.81-2.69,18h16.25L105,78.72V61ZM93.36,47.21a41.68,41.68,0,0,0-18.36-4,41.68,41.68,0,0,0-18.36,4l-3.09-2A53.28,53.28,0,0,1,75,41a53.28,53.28,0,0,1,21.45,4.24ZM75,29.64c22.47,0,41.14,10.8,44.47,24.86l-4-.42C112.4,42,95.73,33,75,33S37.6,42,34.52,54.08l-4,.42C33.86,40.44,52.53,29.64,75,29.64ZM51.31,53.3,57.12,57H49A4.07,4.07,0,0,1,51.31,53.3ZM97,76.82,82,82.18v19.47L87.12,117H98v-3h2v5H50v-5h2v3H62.88L68,101.65V82.18L53,76.82V65H67V53.8l-2-1.24a38.44,38.44,0,0,1,19.9,0L83,53.8V65H97ZM92.88,57l5.81-3.7A4,4,0,0,1,101,57Z"/><circle cx="71" cy="58" r="2"/><circle cx="79" cy="58" r="2"/><rect x="71" y="65.5" width="8" height="4" rx="1.5"/><polygon points="64 77 66.5 73.5 60.5 73.5 64 77"/><polygon points="89.5 73.5 83.5 73.5 86 77 89.5 73.5"/></svg>