<svg id="Layer_2" data-name="Layer 2" xmlns="http://www.w3.org/2000/svg" viewBox="0 0 150 150"><title>Ilapa inca symbol - bold</title><rect x="56" y="26.5" width="38" height="4"/><rect x="56" y="20.5" width="38" height="4"/><path d="M66.51,47.3c2.19,0,4-1.34,4-3s-1.77-3-4-3-4,1.35-4,3S64.32,47.3,66.51,47.3Z"/><path d="M82.51,47.3c2.19,0,4-1.34,4-3s-1.77-3-4-3-4,1.35-4,3S80.32,47.3,82.51,47.3Z"/><path d="M95.5,115.15V103.5h5V82.91l15.2,2.64L92.94,57c.09-.1.19-.18.27-.28,7.08-8.44,4.86-21.09,4.76-21.62l-.3-1.64H51.28L51,35.2C51,35.66,49.62,45,54,53H50.5v8.78l-1.32.65-.68,1.12V53h-8V65h7.12L35.35,85.22l18.21,6.41V103.5H58.5v11.69c-5.39.68-11.6,3.25-12.35,9.86l-.5,4.45h63.83l-.51-4.45C108.21,118.32,101.34,115.79,95.5,115.15Zm-8-38.53-9-9.53V63.75a22.63,22.63,0,0,0,11.49-4l16,20.06ZM70.5,54.1v5.44c-.69-.11-1.35-.25-2-.4V53.72A16.65,16.65,0,0,0,70.5,54.1Zm8,18.83,2,2.15-2-.45ZM54.83,37.5H94.24c.31,3.39.44,11.28-4.09,16.69-2.65,3.15-6.57,5-11.65,5.53V54.1c2.4-.31,4-.91,4-1.58,0-1-3.58-1.84-8-1.84s-8,.82-8,1.84a.68.68,0,0,0,.29.48H60.5v1.94c-.36-.35-.72-.7-1-1.08C54.86,48.51,54.66,40.87,54.83,37.5ZM50.5,68v3h8V62.34l2-1V80h8V63.25c.65.14,1.32.25,2,.35V84.18L55.64,88.13l-14.31-5ZM69.8,88.51l-1.3,4.15-6.16-2.17ZM57.56,93l13.53,4.77L71.65,96H78.5V78.73l6.94,1.57L96.5,82.21V99.5H57.56ZM66.5,121.5v-18h4v18Zm17,0v-18h4v18Z"/></svg>