<svg id="Layer_2" data-name="Layer 2" xmlns="http://www.w3.org/2000/svg" viewBox="0 0 150 150"><title>Pacha Kamaq inca symbol - bold</title><path d="M82.49,97.38a15.84,15.84,0,0,0,.76-3.15h6.18v-4H60.52v4h6.14A11.77,11.77,0,0,0,69.53,101a7.31,7.31,0,0,0,5.37,2.18C78.43,103.15,81.12,101.1,82.49,97.38ZM78.73,96c-1,2.82-2.68,3.15-3.83,3.15a3.3,3.3,0,0,1-2.51-1,7.64,7.64,0,0,1-1.69-4h8.51A12.05,12.05,0,0,1,78.73,96Z"/><path d="M74.63,19.68a55,55,0,1,0,55,55A55.07,55.07,0,0,0,74.63,19.68Zm0,102a47,47,0,0,1-1.31-94l-4.61,8.82,3.55,1.85,2.66-5.09,2.79,5.12,3.51-1.91-4.78-8.78a47,47,0,0,1-1.81,94Z"/><path d="M59.59,51.5a6.87,6.87,0,1,0-6.87-6.87A6.88,6.88,0,0,0,59.59,51.5Zm0-9.74a2.87,2.87,0,1,1-2.87,2.87A2.88,2.88,0,0,1,59.59,41.76Z"/><path d="M90.36,51.5a6.87,6.87,0,1,0-6.87-6.87A6.88,6.88,0,0,0,90.36,51.5Zm0-9.74a2.87,2.87,0,1,1-2.87,2.87A2.87,2.87,0,0,1,90.36,41.76Z"/><polygon points="78.55 43.74 71.4 43.74 74.97 49.92 78.55 43.74"/><polygon points="61.35 71.58 50.04 71.58 54.8 58.79 70.94 58.79 70.94 54.79 52.02 54.79 44.29 75.58 61.35 75.58 61.35 71.58"/><polygon points="79.05 54.79 79.05 58.79 95.2 58.79 99.96 71.58 87.47 71.58 87.47 75.58 105.71 75.58 97.98 54.79 79.05 54.79"/><path d="M102.39,102l-1.67-3.64c-2.6,1.19-2.47,4.29-2.37,6.56a11.52,11.52,0,0,1-.08,2.67,11.49,11.49,0,0,1-2.07-1.69c-1.65-1.55-3.91-3.68-6.51-2.49s-2.47,4.29-2.37,6.55a12.14,12.14,0,0,1-.07,2.67A11.15,11.15,0,0,1,85.18,111c-1.65-1.55-3.91-3.68-6.51-2.5l1.66,3.64a.21.21,0,0,1-.13,0,8.74,8.74,0,0,1,2.23,1.75c1.32,1.24,3,2.84,5,2.84a3.68,3.68,0,0,0,1.54-.34c2.61-1.19,2.47-4.29,2.38-6.56a11,11,0,0,1,.07-2.67,12,12,0,0,1,2.07,1.69c1.65,1.56,3.91,3.69,6.51,2.5s2.47-4.29,2.38-6.56a8.47,8.47,0,0,1,.14-2.83A.29.29,0,0,1,102.39,102Z"/><path d="M65.5,111.27a11.68,11.68,0,0,1-1.94,1.84,11.23,11.23,0,0,1-.27-2.66c-.07-2.27-.16-5.37-2.84-6.37s-4.78,1.29-6.32,3a11.73,11.73,0,0,1-1.94,1.84,11.87,11.87,0,0,1-.26-2.66c-.07-2.27-.16-5.37-2.84-6.37L47.7,103.6a.41.41,0,0,1-.12-.08,8.33,8.33,0,0,1,.35,2.81c.07,2.27.16,5.38,2.84,6.37s4.78-1.28,6.31-3A11.68,11.68,0,0,1,59,107.91a11.23,11.23,0,0,1,.27,2.66c.07,2.26.16,5.37,2.84,6.37a3.68,3.68,0,0,0,1.31.24c2.07,0,3.73-1.81,5-3.2.58-.63,1.66-1.81,2.1-1.9a.37.37,0,0,1-.13,0l1.4-3.74C69.13,107.32,67,109.6,65.5,111.27Z"/><path d="M111.81,77.43a2.11,2.11,0,1,0,2.11,2.11A2.12,2.12,0,0,0,111.81,77.43Z"/><circle cx="111.81" cy="68.35" r="2.11"/><path d="M38.14,77.43a2.11,2.11,0,1,0,2.11,2.11A2.11,2.11,0,0,0,38.14,77.43Z"/><path d="M38.14,66.24a2.11,2.11,0,1,0,2.11,2.11A2.11,2.11,0,0,0,38.14,66.24Z"/><path d="M48,47.85l-1.33-1.49-1.34-1.49A33.79,33.79,0,0,0,36,60.46l3.88.95C41.86,53.46,48,47.91,48,47.85Z"/><path d="M113.91,60.46a33.79,33.79,0,0,0-9.31-15.59l-2.67,3c.06.06,6.16,5.61,8.1,13.56Z"/><path d="M68.58,64.35c0-2.36-3-4.26-6.66-4.26s-6.66,1.9-6.66,4.26,3,4.26,6.66,4.26S68.58,66.7,68.58,64.35Z"/><path d="M94.7,64.35c0-2.36-3-4.26-6.67-4.26s-6.66,1.9-6.66,4.26,3,4.26,6.66,4.26S94.7,66.7,94.7,64.35Z"/><polygon points="58.87 89.9 47.24 79.79 51.31 94.71 58.87 89.9"/><polygon points="98.64 94.71 102.7 79.79 91.08 89.9 98.64 94.71"/><polygon points="77 52.6 73 52.6 73 78.11 66.58 78.11 66.58 82.11 83.37 82.11 83.37 78.11 77 78.11 77 52.6"/></svg>