<svg id="Symbols" xmlns="http://www.w3.org/2000/svg" viewBox="0 0 120 120"><defs><style>.cls-1{fill:none;stroke:#000;stroke-linecap:round;stroke-linejoin:round;stroke-width:4px;}</style></defs><path class="cls-1" d="M83.52,62.55c-3.39,6.72-12.31,9.06-18.65,8.74-8-.41-17.45-5.29-19.45-13.64C42.73,46.37,54.77,33,66.55,33.87,79.32,34.81,88.71,52.24,83.52,62.55Z"/><circle class="cls-1" cx="29.38" cy="65.94" r="9.73"/><circle class="cls-1" cx="46.89" cy="28.61" r="8.37"/><circle class="cls-1" cx="90.21" cy="38.96" r="8.37"/><circle class="cls-1" cx="90.68" cy="81.42" r="9.44"/><path class="cls-1" d="M38.55,28A54.4,54.4,0,0,0,26.87,40.42,47.36,47.36,0,0,0,18.61,60c-2.91,18.81,8.53,34.57,13.2,41a71,71,0,0,0,4.87,6H81.24a46.86,46.86,0,0,0,18.87-19.61c8.13-16.32,3.55-32.44,1.6-37.94a48.88,48.88,0,0,0-3.58-7.82"/><path class="cls-1" d="M52.59,22.49a30.26,30.26,0,0,1,34.85,8.58"/><path class="cls-1" d="M36.68,107H12.16V26.23a70.22,70.22,0,0,1,7.49-7A71.85,71.85,0,0,1,31,11.77H98.58a21.06,21.06,0,0,1,9.07,11.48V107H81.24"/><path class="cls-1" d="M18.19,64.41A50,50,0,0,1,45.71,11.77"/><path class="cls-1" d="M81.24,11.77A64.22,64.22,0,0,1,107.65,37"/></svg>