<svg id="Symbols" xmlns="http://www.w3.org/2000/svg" viewBox="0 0 120 120"><defs><style>.cls-1{fill:none;stroke:#000;stroke-linecap:round;stroke-linejoin:round;stroke-width:4px;}</style></defs><path class="cls-1" d="M59.42,12.81H46.22c-8.36,0-15.14,7.28-15.14,16.25V76.29h3.81c8.74,0,15.83,7.61,15.83,17v14h8.7"/><ellipse class="cls-1" cx="38.61" cy="84.29" rx="5.53" ry="5.94"/><polyline class="cls-1" points="56.55 40.42 56.55 70.1 60 74.23"/><line class="cls-1" x1="31.08" y1="33.45" x2="59.42" y2="33.45"/><path class="cls-1" d="M38.61,15v6.83a5.74,5.74,0,0,1-5.53,5.93h0"/><path class="cls-1" d="M46.22,12.81V24a3.62,3.62,0,0,0,3.48,3.74h0A3.62,3.62,0,0,0,53.18,24V12.81"/><path class="cls-1" d="M35.84,46.35a7.7,7.7,0,0,0,7.73,4.91,7.74,7.74,0,0,0,6.13-4.91c-.12-.23-2.29-4.2-6.61-4.38A7.9,7.9,0,0,0,35.84,46.35Z"/><ellipse class="cls-1" cx="42.77" cy="46.63" rx="1.36" ry="1.46"/><path class="cls-1" d="M60.58,12.81h13.2c8.36,0,15.14,7.28,15.14,16.25V76.29H85.11c-8.74,0-15.83,7.61-15.83,17v14h-8.7"/><ellipse class="cls-1" cx="81.39" cy="84.29" rx="5.53" ry="5.94"/><polyline class="cls-1" points="63.45 40.42 63.45 70.1 60 74.23"/><line class="cls-1" x1="88.92" y1="33.45" x2="60.58" y2="33.45"/><path class="cls-1" d="M81.39,15v6.83a5.74,5.74,0,0,0,5.53,5.93h0"/><path class="cls-1" d="M73.78,12.81V24a3.62,3.62,0,0,1-3.48,3.74h0A3.62,3.62,0,0,1,66.82,24V12.81"/><path class="cls-1" d="M84.16,46.35a7.32,7.32,0,0,1-13.86,0c.12-.23,2.29-4.2,6.61-4.38A7.9,7.9,0,0,1,84.16,46.35Z"/><ellipse class="cls-1" cx="77.23" cy="46.63" rx="1.36" ry="1.46"/><line class="cls-1" x1="55.26" y1="81.97" x2="65.32" y2="81.97"/></svg>