<svg id="Symbols" xmlns="http://www.w3.org/2000/svg" viewBox="0 0 120 120"><defs><style>.cls-1{fill:none;stroke:#000;stroke-linecap:round;stroke-linejoin:round;stroke-width:4px;}</style></defs><path class="cls-1" d="M42.89,15.77c2.63-3.72,10.2-4.62,15.72.65,3.09,9.75.29,17.5-3.35,18.58-3.12.92-8-2.69-11.36-8.52C41.44,22.82,41,18.42,42.89,15.77Z"/><polyline class="cls-1" points="41.72 26.23 31.52 23.93 27.9 35.14 30.48 40.94 31.52 62.87 45.19 75.26 46.59 82.87 55.99 87.64 59.94 80.17"/><polyline class="cls-1" points="60.2 25.97 67.9 25.97 67.9 35.14 79 54.87"/><polyline class="cls-1" points="54.74 64.68 67.9 103.9 71 106.48 107.39 106.48 106.1 78.36 107.39 46.61 101.71 41.45 74.1 60"/><polyline class="cls-1" points="76.01 70.87 81.06 94.87 87 91 106.72 92"/><polyline class="cls-1" points="79 76.29 92.94 64.94 92.94 90.23"/><line class="cls-1" x1="37.19" y1="41.45" x2="48.29" y2="49.19"/><line class="cls-1" x1="67.9" y1="36.29" x2="64.81" y2="45.32"/><path class="cls-1" d="M30.15,28.17l-11-2.2L13.19,31.9l-.51,13.42,43.51,61.16H71"/><line class="cls-1" x1="13.19" y1="31.9" x2="21.45" y2="44.03"/><line class="cls-1" x1="58.1" y1="95.9" x2="60.2" y2="100.55"/><line class="cls-1" x1="19.39" y1="70.87" x2="37.19" y2="94.1"/><line class="cls-1" x1="71" y1="12.72" x2="83.39" y2="30.1"/><line class="cls-1" x1="79" y1="36.29" x2="84.68" y2="44.03"/><line class="cls-1" x1="27.9" y1="95.9" x2="35.65" y2="106.48"/></svg>