<svg id="Symbols" xmlns="http://www.w3.org/2000/svg" viewBox="0 0 120 120"><defs><style>.cls-1{fill:none;stroke:#000;stroke-linecap:round;stroke-linejoin:round;stroke-width:4px;}</style></defs><path class="cls-1" d="M11.63,54.72a27.21,27.21,0,0,0,9,14.16c7,5.76,17.49,8.25,26.75,4.39A28.52,28.52,0,0,0,59.89,62.45"/><path class="cls-1" d="M11.63,77.16a35.1,35.1,0,0,0,48.48,1.16"/><path class="cls-1" d="M11.63,89.49c7.95,6,17.18,9.31,26.55,9s17.52-5,21.91-7.9"/><path class="cls-1" d="M60,12.51c-5.7,0-10.33,8.21-10.33,18.34,0,6.66,2,12.48,5,15.7a16.24,16.24,0,0,1-2.92,9.71c-3.75,4.62-10.42,8-17.27,6.55-9.06-1.87-12.6-10.57-13.17-12-3.74-9.71,1.81-18.33,2.4-19.21"/><path class="cls-1" d="M108.57,54.72a27.15,27.15,0,0,1-9,14.16c-7,5.76-17.49,8.25-26.75,4.39a30.24,30.24,0,0,1-12.9-10.82"/><path class="cls-1" d="M108.57,77.16a35.1,35.1,0,0,1-48.48,1.16"/><path class="cls-1" d="M108.57,89.49c-7.95,6-17.18,9.31-26.55,9s-17.54-5-21.93-7.9"/><path class="cls-1" d="M74.35,108.74c-5.9,0-12.69-5.33-14.46-6.29-1.78,1-8.24,6.29-14,6.29"/><path class="cls-1" d="M60.2,12.51c5.7,0,10.33,8.21,10.33,18.34,0,6.66-2,12.48-5,15.7a16.24,16.24,0,0,0,2.92,9.71c3.75,4.62,10.42,8,17.27,6.55,9.06-1.87,12.61-10.57,13.17-12,3.74-9.71-1.81-18.33-2.39-19.21"/></svg>