<svg id="Symbols" xmlns="http://www.w3.org/2000/svg" viewBox="0 0 120 120"><defs><style>.cls-1{fill:none;stroke:#000;stroke-linecap:round;stroke-linejoin:round;stroke-width:4px;}</style></defs><path class="cls-1" d="M27.52,89.71C20.71,71.27,25.63,51.4,39.13,40.55s30-8.24,32.9-7.74L84.81,44.42c4.73,14.78.63,30.88-10.46,41C61.85,96.9,42.7,98.76,27.52,89.71Z"/><path class="cls-1" d="M72,32.81,77.6,29a14.49,14.49,0,0,1,2.86-7.22c3.82-4.92,11-6.88,18.28-5.21.16,2,.69,11.21-5.8,17.8a19.59,19.59,0,0,1-5.56,3.92l-2.57,6.15"/><line class="cls-1" x1="27.52" y1="89.71" x2="78.1" y2="38.32"/><path class="cls-1" d="M58.75,32.52A28.6,28.6,0,0,0,65.92,50.7C74,59.63,84.79,60,86.62,60"/><path class="cls-1" d="M24.65,68.79c1.23-.28,11-2.32,19.19,4.34a22.68,22.68,0,0,1,7.6,22.18"/><line class="cls-1" x1="38.29" y1="42.87" x2="74.35" y2="85.45"/><path class="cls-1" d="M65.45,32.17v-8a7.54,7.54,0,0,0-4.73-7,56.64,56.64,0,0,0-9.9-2.91A58.24,58.24,0,0,0,22.1,16,26.72,26.72,0,0,0,38.67,28.28,26,26,0,0,0,55,26.61l-2.19,7.06"/><path class="cls-1" d="M88.05,56.85h8a7.55,7.55,0,0,1,7,4.73,56.9,56.9,0,0,1,2.91,9.9,58.29,58.29,0,0,1-1.75,28.73c-1.52-.9-9.89-6-12.32-16.58A26.09,26.09,0,0,1,93.62,67.3l-7.06,2.19"/><path class="cls-1" d="M24.65,63.81a27.83,27.83,0,0,0-7.21,7C8.2,84,14.2,100.84,15.1,103.26a48.06,48.06,0,0,0,4.67-6.2,47.92,47.92,0,0,0,5.91-13.53"/><path class="cls-1" d="M43.77,95.18a36.83,36.83,0,0,0-23.84,10.4c.91.46,17,8.4,30.42-.39A27,27,0,0,0,60,93.66"/></svg>