<svg id="Symbols" xmlns="http://www.w3.org/2000/svg" viewBox="0 0 120 120"><defs><style>.cls-1{fill:none;stroke:#000;stroke-linecap:round;stroke-linejoin:round;stroke-width:4px;}</style></defs><path class="cls-1" d="M74.1,107.13H65.58L42.1,85.45l2.84-31.74a30.34,30.34,0,0,1,58.32,0q1.41,15.87,2.84,31.74L82.61,107.13H74.1"/><path class="cls-1" d="M73.84,77.71a18,18,0,0,0-9.29,10.06L51.65,79V56.29L73.84,38.74,96.55,56.29V79l-12.9,8.77a18.25,18.25,0,0,0-4.13-6.45,18,18,0,0,0-5.17-3.61L68.42,74.1,70,56.81"/><polyline class="cls-1" points="56.29 52.42 68.42 61.19 58.1 61.19"/><polyline class="cls-1" points="91.9 52.42 79.77 61.19 90.1 61.19"/><path class="cls-1" d="M44.94,53.71v-15C45.75,37.53,55.75,23.13,74.1,23c18.67-.14,28.92,14.62,29.67,15.74V55"/><path class="cls-1" d="M97.18,22.17l5-10a35.35,35.35,0,0,1,1.54,32.78"/><path class="cls-1" d="M44.47,58.9a23,23,0,0,1-23.28,9.52A28.52,28.52,0,0,1,30.81,50.2"/><path class="cls-1" d="M46.06,37.22A92.85,92.85,0,0,1,32.81,48.81,93.46,93.46,0,0,1,12.16,60a33.87,33.87,0,0,1,9-20.48c12.48-13,30.75-9.63,32.15-9.35"/><path class="cls-1" d="M66.64,23.88a43.47,43.47,0,0,0-17.06-9.65A44.88,44.88,0,0,0,20.11,16,56.4,56.4,0,0,0,31.26,26.1a56.78,56.78,0,0,0,7,4.07"/><path class="cls-1" d="M57.49,17.19A34.87,34.87,0,0,1,77.75,12c4.5.29,11.8.77,17,6.64s4.88,13.18,4.76,15.13"/></svg>