<svg id="Symbols" xmlns="http://www.w3.org/2000/svg" viewBox="0 0 120 120"><defs><style>.cls-1{fill:none;stroke:#000;stroke-linecap:round;stroke-linejoin:round;stroke-width:4px;}</style></defs><path class="cls-1" d="M15.93,83.67,37.3,105.2a8.33,8.33,0,0,0,10.67.94,223.8,223.8,0,0,0,26.8-22A223.45,223.45,0,0,0,95.39,61.51a8.28,8.28,0,0,0,1-8.61l0-.09a8.29,8.29,0,0,1,.49-7.89l2.76-4.43,3.83-6.12a8.27,8.27,0,0,0-1-10.14,84,84,0,0,0-8.67-7.71q-2.14-1.65-4.22-3a8.35,8.35,0,0,0-9.24-.07A274.36,274.36,0,0,0,15.29,72.69,8.28,8.28,0,0,0,15.93,83.67Z"/><path class="cls-1" d="M23.77,73.32a9,9,0,0,0,1.81,7.74,8.56,8.56,0,0,0,9,2.33,10.32,10.32,0,0,0-3.87-8.26A9.91,9.91,0,0,0,23.77,73.32Z"/><path class="cls-1" d="M31.77,63.22A33.17,33.17,0,0,0,44.16,55.7a4.35,4.35,0,0,1-.44,4.95,4.22,4.22,0,0,1-2.88,1.25,8.51,8.51,0,0,1,.66,12.16,14.75,14.75,0,0,0-3.53-10,5.25,5.25,0,0,1-2.66.66A5.36,5.36,0,0,1,31.77,63.22Z"/><polyline class="cls-1" points="48.55 47.52 53.45 53.19 49.72 60 62.48 57.32 62.48 47.52 57.06 48.81 54.23 41.32"/><path class="cls-1" d="M56.07,67.94a9,9,0,0,0,.71,7.92,8.55,8.55,0,0,0,8.62,3.56,10.34,10.34,0,0,0-2.68-8.72A9.91,9.91,0,0,0,56.07,67.94Z"/><path class="cls-1" d="M64.29,31.77a9.56,9.56,0,0,0,.52,7.49,9.71,9.71,0,0,0,9.8,4.64"/><line class="cls-1" x1="74.61" y1="26.1" x2="83.65" y2="34.87"/><polyline class="cls-1" points="81.32 19.9 84.94 26.1 88.29 19.9 91.39 31.77"/><polyline class="cls-1" points="74.1 53.01 77.71 59.2 81.06 53.01 84.16 64.88"/><path class="cls-1" d="M40.34,87.52a5.78,5.78,0,0,0,8.21,8"/><path class="cls-1" d="M47.52,78.74A6.58,6.58,0,0,0,56.81,88"/><circle class="cls-1" cx="69.18" cy="62.48" r="0.19"/><circle class="cls-1" cx="74.1" cy="69.97" r="0.52"/></svg>