<svg id="Symbols" xmlns="http://www.w3.org/2000/svg" viewBox="0 0 120 120"><defs><style>.cls-1{fill:none;stroke:#000;stroke-linecap:round;stroke-linejoin:round;stroke-width:4px;}</style></defs><path class="cls-1" d="M58.87,33.13a33.12,33.12,0,0,0-13.42-6.19c-3.91-.81-17.26-2.86-26.32,6.19a26.71,26.71,0,0,0-7.46,17.55C11.18,62,16,75.81,28.16,81.65c8.25,4,16.31,2.6,19.71,1.8"/><path class="cls-1" d="M24,46.81c.44.81,3.26,5.76,9,7,5.54,1.15,11.52-1.61,14.81-7a13.44,13.44,0,0,0-23.84,0Z"/><circle class="cls-1" cx="35.54" cy="46.81" r="4.9"/><path class="cls-1" d="M59.46,42.94a9.78,9.78,0,0,0-3.94.51,10.15,10.15,0,0,0-4.65,3.36v26l-2.15,2.39a5.05,5.05,0,0,0-.31,6.37l4.32,5.84a6.72,6.72,0,0,0,5.39,2.72h1.34"/><line class="cls-1" x1="50.87" y1="67.97" x2="40.45" y2="75.97"/><path class="cls-1" d="M60.05,33.13a33.12,33.12,0,0,1,13.42-6.19c3.92-.81,17.27-2.86,26.33,6.19a26.77,26.77,0,0,1,7.46,17.55c.48,11.27-4.35,25.13-16.5,31-8.24,4-16.31,2.6-19.71,1.8"/><path class="cls-1" d="M94.89,46.81c-.44.81-3.26,5.76-9,7-5.53,1.15-11.52-1.61-14.81-7a13.44,13.44,0,0,1,23.84,0Z"/><circle class="cls-1" cx="83.38" cy="46.81" r="4.9"/><path class="cls-1" d="M59.46,42.94a9.81,9.81,0,0,1,3.95.51,10.11,10.11,0,0,1,4.64,3.36v26l2.16,2.39a5,5,0,0,1,.3,6.37l-4.32,5.84a6.69,6.69,0,0,1-5.39,2.72H59.46"/><line class="cls-1" x1="68.05" y1="67.97" x2="78.48" y2="75.97"/></svg>