<svg id="Symbols" xmlns="http://www.w3.org/2000/svg" viewBox="0 0 120 120"><defs><style>.cls-1{fill:none;stroke:#000;stroke-linecap:round;stroke-linejoin:round;stroke-width:4px;}</style></defs><path class="cls-1" d="M78,12.16l-1.38,61C74.85,83.27,65.54,89.53,57.24,87.9c-6.44-1.26-11.72-7.14-12.76-14.59Q46,58.16,47.56,43c-.8.87-17.48,19.74-10.45,38.71C37.94,84,41,91.82,49.11,96c10.31,5.35,23.57,2.08,30.58-5.42,7.84-8.39,6.78-19.44,6.58-21.29q-.58-20.7-1.16-41.42l5.42-2.32a21,21,0,0,0-5.81-9.29A20.81,20.81,0,0,0,78,12.16Z"/><line class="cls-1" x1="55.71" y1="87.5" x2="55.71" y2="98.67"/><line class="cls-1" x1="62.53" y1="87.92" x2="62.53" y2="98.67"/><polyline class="cls-1" points="49.11 96.03 34.01 96.03 29.47 107.26 89.21 107.26 86.66 96.03 72.08 96.03"/></svg>