<svg id="Symbols" xmlns="http://www.w3.org/2000/svg" viewBox="0 0 120 120"><defs><style>.cls-1{fill:none;stroke:#000;stroke-linecap:round;stroke-linejoin:round;stroke-width:4px;}</style></defs><path class="cls-1" d="M59.5,107.39a13,13,0,0,1-6.45-9.81,29.53,29.53,0,0,1-13.68,9.29l-11.87.52A30.89,30.89,0,0,0,37.43,95a30.33,30.33,0,0,0,2.48-11.26q-1.17-9.33-2.35-18.65c.37-3.18-1.55-5.81-3.61-6.19-2.39-.44-5.65,2-5.68,5.94-.38,2.24-.83,5-1.29,8.25-3,21.08-1.74,27.38-3.11,27.63-3.71.67-16.83-45-6.69-58.59C18,41,20.24,38,22.85,38.23c4.36.4,6.35,9.57,6.46,10.06a10.45,10.45,0,0,1,8-5.42l-4.65-4.39A11.87,11.87,0,0,1,26.72,31c-1-4.32.71-9.51,4.91-11.87a11,11,0,0,1,8.6-.63,10,10,0,0,1,8.69-5.82c4.84.05,9.4,4.56,9.55,10.58-5.18-1.32-7.39-.42-8.44.66-1.88,1.91-.67,4.93-2.92,7.6a8.31,8.31,0,0,1-4.9,2.58,11.36,11.36,0,0,1,4.11,3.41c3.69,5,1.57,11.34,1.31,12.07s1.62-4.59,5.42-7.23a11.93,11.93,0,0,1,7.58-1.8"/><circle class="cls-1" cx="37.02" cy="27.39" r="3.89"/><path class="cls-1" d="M60.5,107.39A13,13,0,0,0,67,97.58a29.53,29.53,0,0,0,13.68,9.29l11.87.52A30.89,30.89,0,0,1,82.57,95a30.33,30.33,0,0,1-2.48-11.26q1.17-9.33,2.35-18.65c-.37-3.18,1.55-5.81,3.61-6.19,2.39-.44,5.65,2,5.68,5.94.38,2.24.83,5,1.29,8.25,3,21.08,1.74,27.38,3.11,27.63,3.71.67,16.83-45,6.69-58.59C102,41,99.76,38,97.15,38.23c-4.36.4-6.35,9.57-6.46,10.06a10.45,10.45,0,0,0-8-5.42l4.65-4.39A11.87,11.87,0,0,0,93.28,31c1-4.32-.71-9.51-4.91-11.87a11,11,0,0,0-8.6-.63,10,10,0,0,0-8.69-5.82c-4.84.05-9.4,4.56-9.55,10.58,5.18-1.32,7.39-.42,8.44.66,1.88,1.91.67,4.93,2.92,7.6a8.31,8.31,0,0,0,4.9,2.58,11.36,11.36,0,0,0-4.11,3.41c-3.69,5-1.57,11.34-1.31,12.07S70.75,45,67,42.35a11.93,11.93,0,0,0-7.58-1.8"/><circle class="cls-1" cx="82.98" cy="27.39" r="3.89"/><path class="cls-1" d="M60.63,60c-1.83-3.54-4.26-5.62-6.29-5.29s-3.07,2.87-3.54,4c-3.7,8.72,6.89,28.63,9.83,34,3-5.59,14.76-28.23,9.19-35.3-.63-.81-2.45-3.12-4.64-2.9C63.21,54.69,61.49,56.89,60.63,60Z"/></svg>