<svg id="Symbols" xmlns="http://www.w3.org/2000/svg" viewBox="0 0 120 120"><defs><style>.cls-1{fill:none;stroke:#000;stroke-linecap:round;stroke-linejoin:round;stroke-width:4px;}</style></defs><path class="cls-1" d="M12.83,45.18C18.66,33.3,29.58,27.6,37.71,30.1c7.64,2.34,10.55,11.23,11.1,12.9,4.85,14.81-7.49,28.34-8.26,29.16-.74-.78-7.26-7.53-14.71-6.19-8.22,1.47-15.36,12.37-12.65,25.55C12.25,82.85,17.41,75.42,24,74c7.16-1.57,13.21,4.47,15.74,8.51.74,1.19,5.29,8.46,1.55,16C37.5,106.2,28.58,107,28.16,107A18.4,18.4,0,0,0,47.52,77.84C59,60.41,77,54.62,87.77,60.51c6.06,3.3,9.76,10.22,10.22,16.57.94,12.91-11.21,27.06-30.86,31.21,18.34-.73,33.56-10.19,38.45-24,.79-2.22,5.78-17.19-3.61-27.1-7.14-7.53-19.87-9.26-31.23-3.61a67.94,67.94,0,0,0,7-8.26c4.37-6.09,5.58-9.9,7.49-12.82,2.82-4.33,8.86-9.26,23.18-11a26.27,26.27,0,0,0-16.22-2.2,26.56,26.56,0,0,0-16,10.06,10.71,10.71,0,0,0-.26-13.67,10.38,10.38,0,0,0-12.38-2.33C59,15.7,58,20.94,58.28,24.22c.52,5.7,5.54,10.73,12.46,12.07A20,20,0,0,1,58.1,49.45c.38-.87,4.76-11.29-1.29-20.64a21.59,21.59,0,0,0-13.42-9c-9.59-2.1-17.35,3-19.87,4.91C13.8,32,12.93,43.4,12.83,45.18Z"/><circle class="cls-1" cx="68.68" cy="23.13" r="3.35"/></svg>