<svg id="Symbols" xmlns="http://www.w3.org/2000/svg" viewBox="0 0 120 120"><defs><style>.cls-1{fill:none;stroke:#000;stroke-linecap:round;stroke-linejoin:round;stroke-width:4px;}</style></defs><path class="cls-1" d="M35.19,81.33,16.38,61.11l3.54-1.88L17.83,51.3A29.37,29.37,0,0,1,18.27,29a29.52,29.52,0,0,1,15-14.62c10.08-4.22,22.09-2.09,31.3,5.26L81.86,36.29A7,7,0,0,1,84,41.79h0a6.9,6.9,0,0,1-2.21,4.65l-4.61,4.29a13.33,13.33,0,0,0-4.24,10.34l.13,3-10,9.31-2.47-.48a14.54,14.54,0,0,0-11.86,2.88L41,81.9Z"/><path class="cls-1" d="M47,77.11c-.18-1-1.09-6.89,2.78-11.51a12.64,12.64,0,0,1,4.32-3.31A11.8,11.8,0,0,1,54,54.44a12.11,12.11,0,0,1,6.61-7,22,22,0,0,1,4.39-3,22.6,22.6,0,0,1,10.71-2.5l6.14-5.63"/><path class="cls-1" d="M60.58,72.9h0a4.47,4.47,0,0,0-.23,6.3l2.7,2.9a4.46,4.46,0,0,0,6.3.22L82.1,70.47a3.26,3.26,0,0,0,.05-4.72L77.6,61.31a3.26,3.26,0,0,0-4.5-.06h0"/><path class="cls-1" d="M103.05,103.27l-3.78,3.52a3.49,3.49,0,0,1-4.93-.18L70.62,81.14l8.88-8.26,23.73,25.47A3.48,3.48,0,0,1,103.05,103.27Z"/><line class="cls-1" x1="17.3" y1="31.54" x2="30.32" y2="39.33"/><line class="cls-1" x1="22.01" y1="23.01" x2="28.89" y2="28.68"/></svg>