<svg id="Symbols" xmlns="http://www.w3.org/2000/svg" viewBox="0 0 120 120"><defs><style>.cls-1{fill:none;stroke:#000;stroke-linecap:round;stroke-linejoin:round;stroke-width:4px;}</style></defs><path class="cls-1" d="M63.44,82.59,43.17,87.72l-5.86-4.64,6.59-9,.74-11.23L47.57,56l-7.82-3.17.74-3.18L60.35,31.08l-3-4.15L70,12H93.22a6.49,6.49,0,0,1,6.35,7.82L92.25,71.12l-8.31-1.47L82,81.86a28.37,28.37,0,0,1,3.72,17.91l-50.91.78a54.35,54.35,0,0,1,7.88-5,55,55,0,0,1,9.52-3.89l4.58-7.35"/><polyline class="cls-1" points="43.17 87.72 60.35 76.73 80.04 42.06 72.71 36.2 85.9 12.03"/><polyline class="cls-1" points="44.64 62.82 49.52 62.82 53.91 66.23"/><polyline class="cls-1" points="47.57 55.98 65.73 34.01 60.35 31.08 57.33 26.93 76.86 26.93"/><line class="cls-1" x1="72.71" y1="36.2" x2="65.73" y2="34.01"/><path class="cls-1" d="M85.71,99.77l21.94-10.83v18.58H12.16v-7H34.8"/></svg>