<svg id="Symbols" xmlns="http://www.w3.org/2000/svg" viewBox="0 0 120 120"><defs><style>.cls-1{fill:none;stroke:#000;stroke-linecap:round;stroke-linejoin:round;stroke-width:4px;}</style></defs><path class="cls-1" d="M40.92,51.43C39.12,58,38.56,63.1,39.87,63.65s4.46-3.41,7.77-9.15"/><path class="cls-1" d="M56.13,26,71.35,77.18c.26-2,1.72-11.76,10.32-18.07a25.44,25.44,0,0,1,11.88-4.64,28.54,28.54,0,0,0,2.58-15C94.76,27.23,84.72,16.6,72.38,13.69,61.92,11.23,49,14.12,41.67,23.76a28.21,28.21,0,0,0-5.42,16l-3.61,7.89,20.91,9.54"/><path class="cls-1" d="M36.84,49.56a18.85,18.85,0,0,0-6.26,4.79A20.16,20.16,0,0,0,26.1,67.4a5.21,5.21,0,0,0,4.1,5.08L36.84,74V86.1a40.1,40.1,0,0,1-7.29,4.38A39.89,39.89,0,0,1,16.8,94c-4,1.81-5.81,6.74-2.72,10.43A7.58,7.58,0,0,0,19.92,107H43.74a37.48,37.48,0,0,0,10.32-4.65c12.22-7.91,16.15-20.74,17.29-25.17"/><path class="cls-1" d="M35,57.56v5.67A11.64,11.64,0,0,0,40.3,73l3.1,2"/><line class="cls-1" x1="49" y1="78.28" x2="43.74" y2="107"/><path class="cls-1" d="M80.54,60c2.21.75,6.07,2.49,8.1,6.28,4.42,8.22-2,21.78-10.58,22.91-4.07.55-7.7-1.86-9.74-3.58"/><polyline class="cls-1" points="83.94 86.29 98.87 100.81 107.39 102.87 107.39 107 43.74 107"/><line class="cls-1" x1="70.23" y1="92.64" x2="68.32" y2="107"/></svg>