<svg id="Symbols" xmlns="http://www.w3.org/2000/svg" viewBox="0 0 120 120"><defs><style>.cls-1{fill:none;stroke:#000;stroke-linecap:round;stroke-linejoin:round;stroke-width:4px;}</style></defs><path class="cls-1" d="M18.45,34.25c-5.47-6.51-8.06-16.4-3.92-19.87s13.43.78,18.89,7.3,5,12.81.91,16.28S23.91,40.76,18.45,34.25Z"/><polyline class="cls-1" points="14.47 27.88 21.21 24.92 27.39 31.54"/><path class="cls-1" d="M17.11,32.52l-2.62,5.66a9.83,9.83,0,0,0,2.63,11.68l4.09,3.41L38.43,68.42l6-23.22,9.19-8.75"/><polyline class="cls-1" points="44.63 32.15 40.58 35.21 37.32 36.08 38.32 43.27 33.45 55.67"/><path class="cls-1" d="M25.58,48a12.76,12.76,0,0,0,3.63,2.1,12.63,12.63,0,0,0,6.18.63"/><path class="cls-1" d="M30.75,18.94l3.41-.87A11.21,11.21,0,0,1,45.76,22l.67.85,13,7.85L78.34,47.87Q81.16,55.6,84,63.31"/><path class="cls-1" d="M44.85,25.74,46.1,32.2c4.46,2.3,18.84,10.06,24.72,19.61a14.82,14.82,0,0,1,2,5.24c.92,5.36-1.18,12-6.2,15.06a12.12,12.12,0,0,1-5,1.62C51.1,74.88,41.64,64,40,62.15"/><line class="cls-1" x1="55.95" y1="56.45" x2="58.42" y2="58.61"/><polyline class="cls-1" points="60.15 74.84 65.63 80.21 83.76 90.46 86.35 86.85 68.59 70.62"/><polyline class="cls-1" points="72.88 64.94 90.74 81.05 94.12 76.28 79.25 57.27 71.75 53.55"/><polygon class="cls-1" points="97.73 71.64 79.09 97.2 84.4 107.28 107.46 75.48 97.73 71.64"/></svg>