<svg id="Symbols" xmlns="http://www.w3.org/2000/svg" viewBox="0 0 120 120"><defs><style>.cls-1{fill:none;stroke:#000;stroke-linecap:round;stroke-linejoin:round;stroke-width:4px;}</style></defs><path class="cls-1" d="M65.32,66.61c-8.42-3.26-17.4.25-20.64,7-2.37,4.91-1.46,11.1,2.15,15.92L56,99.13c-6.6-3.52-13.88-2.81-17.8,1.29a12.13,12.13,0,0,0-3.1,7.48H75.9a20.47,20.47,0,0,0-1.29-6.71,21.84,21.84,0,0,0-8.26-10.32c10.42,7.57,24.32,7.15,33.3-.52,11.29-9.64,10.83-27.39,4-35.08-8.47-9.5-27-3.92-30.81-13.17a10.3,10.3,0,0,1,0-7c3.39-4.61,3.38-10.72.25-14.71-3.85-4.91-11.88-5.9-17.54-1.29l-4.39,4.3C43.65,14,31.88,10.72,23,14.74c-7.57,3.43-10.44,11-11.1,12.91l12.91-6.71c1.74,2.53,9.71,13.55,22.49,14.41a23.75,23.75,0,0,0,6.81-.52A9.62,9.62,0,0,0,54,45.19a9.41,9.41,0,0,0,6,3.87"/><circle class="cls-1" cx="63.94" cy="27.82" r="4.39"/><path class="cls-1" d="M24.81,20.94a17.9,17.9,0,0,1,16.77,4.12"/><path class="cls-1" d="M63.94,46a21.37,21.37,0,0,1-13.59,9.8C39.82,58,32.15,50.71,31.52,50.1a6.37,6.37,0,0,0-1.81-10.33"/><path class="cls-1" d="M29.71,39.77c-.35,4.16-3.84,7-7.23,6.71a6.83,6.83,0,0,1-5.67-5.16,7.79,7.79,0,0,0-.71,10.33,7.71,7.71,0,0,0,8.71,2.06c.25,1.19,2.68,11.57,12.13,15.48a19.35,19.35,0,0,0,9.88,1.24"/><circle class="cls-1" cx="22.86" cy="39.77" r="5.02"/></svg>