<svg id="Symbols" xmlns="http://www.w3.org/2000/svg" viewBox="0 0 120 120"><defs><style>.cls-1{fill:none;stroke:#000;stroke-linecap:round;stroke-linejoin:round;stroke-width:4px;}</style></defs><path class="cls-1" d="M60,108.42,36.94,96,32.29,46.48,39,21.56A10.61,10.61,0,0,1,46.67,14h.07a79.65,79.65,0,0,1,15-1.72"/><path class="cls-1" d="M33.86,63.21a8.27,8.27,0,0,0-7,.82,8,8,0,0,0-2.94,8.71c1.22,4,6.1,6.74,11.34,5.52"/><path class="cls-1" d="M25.52,65.24V50.77a6.35,6.35,0,0,1,6.35-6.35h.42"/><path class="cls-1" d="M35.27,53.19a11.61,11.61,0,0,0,10.09,5.87c6.38,0,9.72-5.32,9.9-5.61C54.94,53,51.14,48,44.68,48.29A13,13,0,0,0,35.27,53.19Z"/><circle class="cls-1" cx="45.26" cy="53.67" r="2.18"/><line class="cls-1" x1="33.69" y1="61.44" x2="44.14" y2="76.94"/><line class="cls-1" x1="56.55" y1="70.67" x2="48.82" y2="86.74"/><path class="cls-1" d="M46.74,14h0A12.13,12.13,0,0,0,58.87,26.1H60"/><path class="cls-1" d="M33.31,42.68a13.3,13.3,0,0,1,23.24,5.6V75.13L60,76.94"/><path class="cls-1" d="M47.44,30.74A27.14,27.14,0,0,1,60,39"/><path class="cls-1" d="M55.26,104.81v-4A4.74,4.74,0,0,1,60,96h0"/><polyline class="cls-1" points="49.77 84.78 55.26 82.61 60 82.61"/><line class="cls-1" x1="55.26" y1="88.29" x2="60" y2="88.29"/><path class="cls-1" d="M60,108.42,83.06,96l4.65-49.55L81,21.56A10.61,10.61,0,0,0,73.33,14h-.07a66.29,66.29,0,0,0-11.55-1.72"/><path class="cls-1" d="M86.14,63.21a8.27,8.27,0,0,1,7,.82,8,8,0,0,1,2.94,8.71c-1.22,4-6.1,6.74-11.34,5.52"/><path class="cls-1" d="M94.48,65.24V50.77a6.35,6.35,0,0,0-6.35-6.35h-.42"/><path class="cls-1" d="M84.73,53.19a11.61,11.61,0,0,1-10.09,5.87c-6.38,0-9.72-5.32-9.9-5.61.32-.43,4.12-5.41,10.58-5.16A13,13,0,0,1,84.73,53.19Z"/><circle class="cls-1" cx="74.74" cy="53.67" r="2.18"/><line class="cls-1" x1="86.31" y1="61.44" x2="75.86" y2="76.94"/><line class="cls-1" x1="63.45" y1="70.67" x2="71.18" y2="86.74"/><path class="cls-1" d="M73.26,14h0A12.13,12.13,0,0,1,61.13,26.1H60"/><path class="cls-1" d="M86.69,42.68a13.3,13.3,0,0,0-23.24,5.6V75.13L60,76.94"/><path class="cls-1" d="M72.56,30.74A27.14,27.14,0,0,0,60,39"/><path class="cls-1" d="M64.74,104.81v-4A4.74,4.74,0,0,0,60,96h0"/><polyline class="cls-1" points="70.23 84.78 64.74 82.61 60 82.61"/><line class="cls-1" x1="64.74" y1="88.29" x2="60" y2="88.29"/></svg>