<svg id="Symbols" xmlns="http://www.w3.org/2000/svg" viewBox="0 0 120 120"><defs><style>.cls-1{fill:none;stroke:#000;stroke-linecap:round;stroke-linejoin:round;stroke-width:4px;}</style></defs><circle class="cls-1" cx="37.71" cy="81.71" r="8"/><path class="cls-1" d="M32.3,75.83,25.94,70C12.36,82.45,10.39,98.22,15.41,103.39S35.73,107,48.55,94.61l-5.73-6.74"/><path class="cls-1" d="M45.71,81.71a13.07,13.07,0,0,0,10.58-.77,12.87,12.87,0,0,0,5.84-7.23L28.88,58c-.31.57-3.11,5.91-.46,11.35a12.05,12.05,0,0,0,5.4,5.4"/><path class="cls-1" d="M30.72,58.84l5.89-11.45a11.72,11.72,0,0,1,6.52-5.68c-2.13-9.4,1.23-19.07,8.52-24.52,8.75-6.55,21.68-5.89,30.5,2.07l9.1,2.42a4.71,4.71,0,0,1,3.49,4.55C110,45.08,110.61,68.75,99.13,81.71,92,89.81,81.71,91.84,76.23,92.38a2.47,2.47,0,0,1-2.65-1.87v0a2.49,2.49,0,0,1,1.72-3c4.45-1.35,14-5.36,18.16-15.82,4.45-11.11-.52-21-1.29-22.46a5.19,5.19,0,0,1-6.09-.84l-6.3-6.12A20,20,0,0,1,63.92,51.5l-.24.41a14.19,14.19,0,0,1,.22,11.74c-1.69,3.92-2.66,7.24-3.9,9.05"/><path class="cls-1" d="M44.71,65.46l8.48-22.2c.23-.82,3.24-10.79,13.16-13.94a20.27,20.27,0,0,1,14.74,1.21,37.64,37.64,0,0,0,4.62,10.92,36.94,36.94,0,0,0,6.45,7.74"/><path class="cls-1" d="M94.74,26.23a25.19,25.19,0,0,0-13.65,4.3"/><path class="cls-1" d="M17.36,80.59c-1.85,3.45-.92,7.3,1.51,8.86,2.27,1.46,5.07.4,5.42.26"/><path class="cls-1" d="M30.72,94.87a6.17,6.17,0,0,0,1.83,6.19,6.3,6.3,0,0,0,5.16,1.37"/></svg>