<svg id="Symbols" xmlns="http://www.w3.org/2000/svg" viewBox="0 0 120 120"><defs><style>.cls-1{fill:none;stroke:#000;stroke-linecap:round;stroke-linejoin:round;stroke-width:4px;}</style></defs><path class="cls-1" d="M16,75.39c-1,1.92-6,12.46-1.29,23.22,1.59,3.64,5.12,7.55,7,9.29,11.87.43,22.45-.43,34.32,0L70.69,90.4a14.06,14.06,0,0,1,10-5l3.44-.19,16.3-25.79A29,29,0,0,0,99,26.18a39.82,39.82,0,0,0-4.3-4.73,38.68,38.68,0,0,0-4.85-3.86,43.59,43.59,0,0,0-5.66-3.15c-4.91-2.17-16-3.69-26.65,1.59a35.12,35.12,0,0,0-13,11.28Z"/><path class="cls-1" d="M56,107.9H99.9a22.58,22.58,0,0,0,6.45-8.51c4.4-10.3.64-24.1-7.82-29a14.69,14.69,0,0,0-4-1.59"/><circle class="cls-1" cx="84.75" cy="25.4" r="9.35" transform="translate(-2.41 40.58) rotate(-26.57)"/><circle class="cls-1" cx="57.06" cy="28.68" r="4.65"/><circle class="cls-1" cx="63.26" cy="56.03" r="14.58"/><circle class="cls-1" cx="61.71" cy="84.78" r="7.59"/><line class="cls-1" x1="17.32" y1="103.11" x2="33.84" y2="77.19"/><line class="cls-1" x1="46.74" y1="39.26" x2="39.52" y2="49.84"/><line class="cls-1" x1="104.13" y1="36.71" x2="84.75" y2="63.77"/><line class="cls-1" x1="105" y1="80.81" x2="94.44" y2="94.74"/><line class="cls-1" x1="69.29" y1="107.9" x2="75.39" y2="100.94"/></svg>