<svg id="Symbols" xmlns="http://www.w3.org/2000/svg" viewBox="0 0 120 120"><defs><style>.cls-1{fill:none;stroke:#000;stroke-linecap:round;stroke-linejoin:round;stroke-width:4px;}</style></defs><path class="cls-1" d="M13.63,34.56h5.7L32.18,47.15C40.66,47.94,50,48.43,60,48.41c9.56,0,18.46-.5,26.61-1.26q7.68-6.3,15.37-12.59h4.28v4.78l-4,.25a37.47,37.47,0,0,0-9.32,9.33,36.78,36.78,0,0,0-3.5,6.21,11.82,11.82,0,0,1-10.83,7H41.46a11.84,11.84,0,0,1-10.71-6.72,59,59,0,0,0-4.11-7.23,57.55,57.55,0,0,0-8.32-9.83H13.63Z"/><path class="cls-1" d="M31.34,56.47a10.58,10.58,0,0,1-3.44,4,10.28,10.28,0,0,1-3.78,1.6,9.33,9.33,0,0,1-6.81-5.64"/><path class="cls-1" d="M63.17,71.59a6.29,6.29,0,0,0,5,5,6.41,6.41,0,0,0,7-5,7.23,7.23,0,0,0,13.94,0,5.8,5.8,0,1,0,11.59,0"/><path class="cls-1" d="M21.92,88.37a6.32,6.32,0,0,0,5,5,6.42,6.42,0,0,0,7-5,7.23,7.23,0,0,0,13.93,0"/><polyline class="cls-1" points="26.64 48.33 11.67 48.33 11.67 108.88 107.26 108.88 107.26 48.92 92.9 48.92"/><circle class="cls-1" cx="59.94" cy="18.87" r="4.9"/></svg>