<svg id="Symbols" xmlns="http://www.w3.org/2000/svg" viewBox="0 0 120 120"><defs><style>.cls-1{fill:none;stroke:#000;stroke-linecap:round;stroke-linejoin:round;stroke-width:4px;}</style></defs><polyline class="cls-1" points="23.79 77.8 27.24 77.62 42.35 89.07 66.07 85.61 69.03 93.25 76.11 91.43 79.2 84.89 74.66 81.44 69.94 77.8 46.65 76.17 35.48 65.27 28.88 60.91 21.43 66.9 21.43 74.9 28.15 95.42 33.42 102.15 35.48 106.87 67.76 106.87 67.73 102.92"/><polyline class="cls-1" points="52.65 87.57 52.65 93.25 62.13 97.42 69.03 93.25"/><polyline class="cls-1" points="79.2 87.57 82.16 93.43 77.75 103.6 64.49 102.69 62.13 97.42"/><line class="cls-1" x1="57.95" y1="95.58" x2="57.95" y2="106.87"/><path class="cls-1" d="M73,80.13,71,71.63l1.4-7.09-6.36-3.63H60.84c-.13.46-2.13,7.11-7.43,8.54-5.51,1.47-13-3.12-14.92-11.77l-9.61,3.23"/><line class="cls-1" x1="63.4" y1="77.34" x2="63.4" y2="71.26"/><path class="cls-1" d="M56.05,43.49c0,6.22-3.74,13.15-8.35,13.15s-8.36-6.93-8.36-13.15,3.74-9.39,8.36-9.39S56.05,37.27,56.05,43.49Z"/><line class="cls-1" x1="40.98" y1="50.85" x2="44.9" y2="67.06"/><line class="cls-1" x1="36.48" y1="58.22" x2="42.38" y2="56.64"/><polyline class="cls-1" points="54.8 49.92 54.8 58.22 59.35 59.86"/><path class="cls-1" d="M38.38,44.19l-6.87-5.26a17.36,17.36,0,0,1,33.31.87l-8.77,3.69"/><path class="cls-1" d="M31.51,38.93a18.41,18.41,0,0,1-10.32-2.51c-8.94-5.41-9-16.8-9-17.55l9.27,8a23.11,23.11,0,0,0,4.43,3.84A23.28,23.28,0,0,0,34,34.1"/><path class="cls-1" d="M61.14,31.84a33.68,33.68,0,0,1,13-1.36A34.61,34.61,0,0,1,93,38.54l5.1,5.62,9.55.22a16.74,16.74,0,0,1-6.46,5.72,17.64,17.64,0,0,1-13.31.66A50.1,50.1,0,0,1,79,48a50.16,50.16,0,0,1-13.78-8.52"/><path class="cls-1" d="M31.51,32.69q-2.45-5.88-4.9-11.75l10.33-8.26L47.7,16.55l7.1-2.84-3.88,6.06"/><path class="cls-1" d="M42.38,26.87a4.53,4.53,0,0,1-2.09-4.64,4.82,4.82,0,0,1,2.88-3.36L66.56,21.6l15.59-8.41-1.34,5.68q-4.65,5.74-9.29,11.48"/><path class="cls-1" d="M76.86,24H88.29q2.83-3.46,5.68-6.94l-1.81,9.81A19.41,19.41,0,0,1,87.52,30a19.9,19.9,0,0,1-6.8,1.83"/><path class="cls-1" d="M26.61,38.93l-.18.74a12.1,12.1,0,0,0,4.64,12.6l7.42,5.41"/><polyline class="cls-1" points="54.8 54.89 64.53 50.85 74.87 54.89 64.84 56.64 63.4 60.91"/></svg>