<svg id="Symbols" xmlns="http://www.w3.org/2000/svg" viewBox="0 0 120 120"><defs><style>.cls-1{fill:none;stroke:#000;stroke-linecap:round;stroke-linejoin:round;stroke-width:4px;}</style></defs><path class="cls-1" d="M63.8,13.32h-6C43.15,13.32,31.26,26.15,31.26,42V78.35c.73,3.75,3.88,5.73,6.2,5a5,5,0,0,0,2.93-6,4.58,4.58,0,0,0-3.15-2.59c2-.52,7.91-1.84,12,1.81a10.66,10.66,0,0,1,2.67,4C55.46,89.07,56,103.63,56.14,108h9.33c.12-4.4.68-19,4.27-27.51a10.66,10.66,0,0,1,2.67-4c4-3.65,10-2.33,12-1.81a4.58,4.58,0,0,0-3.15,2.59,5,5,0,0,0,2.93,6c2.32.74,5.48-1.24,6.2-5V42C90.35,26.15,78.46,13.32,63.8,13.32Z"/><path class="cls-1" d="M31.64,50.62H40.2A20.19,20.19,0,0,1,60.38,70.8v-.1A20.08,20.08,0,0,1,80.46,50.62h8.35"/></svg>