<svg id="Symbols" xmlns="http://www.w3.org/2000/svg" viewBox="0 0 120 120"><defs><style>.cls-1{fill:none;stroke:#000;stroke-linecap:round;stroke-linejoin:round;stroke-width:4px;}</style></defs><path class="cls-1" d="M12.87,13.13a26.44,26.44,0,0,0,2.27,5.77,27,27,0,0,0,6.73,8.16C10.74,52.32,18.63,80.88,38.78,94.57c15.41,10.46,36.23,11.06,54,2a26.78,26.78,0,0,0,14.71,10.59,58.92,58.92,0,0,1-14.2-31.08l-7.32,3.18,3.36,10A71.42,71.42,0,0,1,51.51,71.64C33.1,54.9,29.69,33.79,28.94,27.94l10.62,2c0-2.61,0-5.21,0-7.81a64.28,64.28,0,0,1-17.8-4.46A62.45,62.45,0,0,1,12.87,13.13Z"/><path class="cls-1" d="M51.39,80.5a75.87,75.87,0,0,1-6.09-5.21A80.39,80.39,0,0,1,26.47,47.48c-.09,2.84-.38,19.56,12.66,32.26A42.65,42.65,0,0,0,62.67,91.18"/></svg>