<svg id="Symbols" xmlns="http://www.w3.org/2000/svg" viewBox="0 0 120 120"><defs><style>.cls-1{fill:none;stroke:#000;stroke-linecap:round;stroke-linejoin:round;stroke-width:4px;}</style></defs><path class="cls-1" d="M40.34,24.67c3-2.3,6.18-4.63,9.59-7q4.7-3.21,9.16-5.94"/><path class="cls-1" d="M60,50c-4-15.23-13.58-25.6-23.06-25.81a19.07,19.07,0,0,0-9.29,2.58C20,31.23,18,39.94,17.06,43.77c-4.12,17.55,6.11,33.9,10.12,39.59.53.75.95,1.32,1.24,1.7C37.29,96.79,49.14,103.4,60,107.26c10.25-3.87,21.8-10.46,30.67-22.2.33-.43.75-1,1.24-1.7,2.45-3.49,14.55-20.74,10.12-39.59-.91-3.87-3-12.54-10.58-17a18.61,18.61,0,0,0-9.29-2.58C72.86,24.44,63.55,34.8,60,50Z"/><path class="cls-1" d="M98.42,35c-2.38-1.81-7.63-5.18-13.94-4.39C73.36,32,68,45.2,66.93,47.9a32.39,32.39,0,0,0-2.06,7.75c-2.19,15-4,31.23-4.87,40.25-2.2-15.67-4.16-29.15-5.77-40.25a33,33,0,0,0-2.07-7.75C51.09,45.24,45.75,32,34.61,30.61,28.3,29.82,23.05,33.19,20.68,35"/><path class="cls-1" d="M78.75,24.67c-3-2.3-6.18-4.63-9.59-7Q64.47,14.5,60,11.77"/><circle class="cls-1" cx="59.55" cy="24.67" r="4.05"/></svg>