<svg id="Symbols" xmlns="http://www.w3.org/2000/svg" viewBox="0 0 120 120"><defs><style>.cls-1{fill:none;stroke:#000;stroke-linecap:round;stroke-linejoin:round;stroke-width:4px;}</style></defs><path class="cls-1" d="M97.23,107,79.41,89.86l-3.25,1.31-1.74-3.56-3-.6-4.4-8.44-7.59,8.56a4,4,0,0,1-6.77-1.49L45.63,62.09l-15.35-.37L19.43,52.1a21.06,21.06,0,0,1-1.79-29.74l3.44-3.53"/><polyline class="cls-1" points="59.47 87.13 55.29 80.02 56.76 70.48 50.77 57.13 56.76 50.97"/><line class="cls-1" x1="12.98" y1="31.17" x2="32.39" y2="38.05"/><line class="cls-1" x1="13.96" y1="44.45" x2="33.74" y2="44.41"/><line class="cls-1" x1="23.63" y1="55.82" x2="35.48" y2="51.12"/><path class="cls-1" d="M21.08,18.83a21.06,21.06,0,0,1,29.77,1l9.92,10.58.8,15.34,23.74,6.4A4,4,0,0,1,87,58.82l-8.34,7.83,8.56,4.16.68,3,3.61,1.63-1.22,3.29L107.91,96v11H97.23"/><polyline class="cls-1" points="56.76 50.97 70.27 56.58 79.76 54.85 86.99 58.82"/><line class="cls-1" x1="29.75" y1="13.92" x2="37.17" y2="33.13"/><line class="cls-1" x1="43.06" y1="14.53" x2="43.57" y2="34.3"/><line class="cls-1" x1="54.69" y1="23.87" x2="50.32" y2="35.85"/></svg>