<svg id="Symbols" xmlns="http://www.w3.org/2000/svg" viewBox="0 0 120 120"><defs><style>.cls-1{fill:none;stroke:#000;stroke-linecap:round;stroke-linejoin:round;stroke-width:4px;}</style></defs><path class="cls-1" d="M71.75,108h36.92V94.37a25.71,25.71,0,0,0-6.71-2.6,26,26,0,0,0-8.77-.51A11.27,11.27,0,0,0,102,80.7a33.53,33.53,0,0,0-15.74-1.83,32.69,32.69,0,0,0-9.78,2.84"/><path class="cls-1" d="M33.51,39.92a21.76,21.76,0,0,1,2.08-12,27.44,27.44,0,0,1,49.14-.26,21.57,21.57,0,0,1,2,12.68q-2.22,16.41-4.43,32.83a10.28,10.28,0,0,1-3.2,6.16l-7.51,7A13.89,13.89,0,0,1,62.2,90H58.5a13.87,13.87,0,0,1-8.92-3.25l-9-7.52A10.23,10.23,0,0,1,37,72.44Z"/><path class="cls-1" d="M33.38,46.61a6.11,6.11,0,0,0-6.51-1.55c-2.89,1.25-3.35,4.9-3.1,7a8.18,8.18,0,0,0,3.36,5.42h0a6.7,6.7,0,0,0,6.71,6.71h2.28"/><path class="cls-1" d="M86.75,46.61a6.11,6.11,0,0,1,6.51-1.55c2.89,1.25,3.35,4.9,3.09,7A8.15,8.15,0,0,1,93,57.45h0a6.7,6.7,0,0,1-6.71,6.71H84"/><path class="cls-1" d="M40.81,51.26A8.68,8.68,0,0,1,48,48.68a8.48,8.48,0,0,1,5.68,3.61A7.82,7.82,0,0,1,48,55.65,7.64,7.64,0,0,1,40.81,51.26Z"/><circle class="cls-1" cx="46.82" cy="76.81" r="4.9"/><polyline class="cls-1" points="49.92 73.01 55.26 70.61 59.16 73.01"/><line class="cls-1" x1="54.54" y1="64.16" x2="60" y2="65.97"/><path class="cls-1" d="M78.76,51.26a8.68,8.68,0,0,0-7.22-2.58,8.48,8.48,0,0,0-5.68,3.61,7.82,7.82,0,0,0,5.68,3.36A7.64,7.64,0,0,0,78.76,51.26Z"/><circle class="cls-1" cx="72.75" cy="76.81" r="4.9"/><polyline class="cls-1" points="69.64 73.01 64.31 70.61 60.41 73.01"/><line class="cls-1" x1="65.03" y1="64.16" x2="59.57" y2="65.97"/><line class="cls-1" x1="60" y1="12.55" x2="60" y2="89.97"/><line class="cls-1" x1="33.51" y1="39.92" x2="86.56" y2="39.92"/><line class="cls-1" x1="33.98" y1="32.34" x2="86.56" y2="32.34"/><line class="cls-1" x1="48.29" y1="17.19" x2="48.29" y2="30.87"/><line class="cls-1" x1="72.75" y1="17.19" x2="72.75" y2="30.87"/><line class="cls-1" x1="37.55" y1="32.34" x2="37.55" y2="39.92"/><line class="cls-1" x1="45.04" y1="32.34" x2="45.04" y2="39.92"/><line class="cls-1" x1="52.78" y1="32.34" x2="52.78" y2="39.92"/><line class="cls-1" x1="67.85" y1="32.34" x2="67.85" y2="39.92"/><line class="cls-1" x1="75.33" y1="32.34" x2="75.33" y2="39.92"/><line class="cls-1" x1="83.07" y1="32.34" x2="83.07" y2="39.92"/><line class="cls-1" x1="36.12" y1="51.26" x2="40.81" y2="51.26"/><line class="cls-1" x1="53.71" y1="52.29" x2="65.86" y2="52.29"/><line class="cls-1" x1="78.76" y1="51.26" x2="85.3" y2="51.26"/><line class="cls-1" x1="37.55" y1="65.97" x2="83.14" y2="65.97"/><polyline class="cls-1" points="44.14 81.71 44.14 100.03 48.82 108.03 71.68 108.03 75.86 101.32 75.86 80.7"/><path class="cls-1" d="M48.82,108H11.9V94.37a25.76,25.76,0,0,1,15.49-3.11A11.29,11.29,0,0,1,18.61,80.7a33.53,33.53,0,0,1,15.74-1.83,32.76,32.76,0,0,1,9.79,2.84"/></svg>