<svg id="Symbols" xmlns="http://www.w3.org/2000/svg" viewBox="0 0 120 120"><defs><style>.cls-1{fill:none;stroke:#000;stroke-linecap:round;stroke-linejoin:round;stroke-width:4px;}</style></defs><path class="cls-1" d="M57.58,12.94a27.7,27.7,0,0,0-15.74,5.41c-13.06,9.93-10.7,28.12-10.58,28.91a8,8,0,0,0-6.33-.18,8.32,8.32,0,0,0-4.51,8.69l2.06,11.36a6.8,6.8,0,0,0,5.09,5.14,6.92,6.92,0,0,0,5.65-1.46A11.74,11.74,0,0,1,44.76,82.45l.18,26H60"/><path class="cls-1" d="M37.19,56.55a11.83,11.83,0,0,0,6.2,6.19A12.05,12.05,0,0,0,56,60"/><circle class="cls-1" cx="48.29" cy="51.9" r="3.1"/><path class="cls-1" d="M58.61,12.94a27.68,27.68,0,0,1,15.74,5.41c13.06,9.93,10.7,28.12,10.59,28.91a8,8,0,0,1,6.32-.18,8.32,8.32,0,0,1,4.51,8.69L93.71,67.13a6.79,6.79,0,0,1-5.08,5.14A6.93,6.93,0,0,1,83,70.81,11.73,11.73,0,0,0,71.44,82.45l-.18,26H56.19"/><path class="cls-1" d="M79,56.55a11.8,11.8,0,0,1-6.19,6.19A12,12,0,0,1,60.2,60"/><circle class="cls-1" cx="67.9" cy="51.9" r="3.1"/><path class="cls-1" d="M62.42,44.09a29.73,29.73,0,0,0-2.26,8.07,32.42,32.42,0,0,0,4.65,20.65L58.1,76.42l-6.71-3.61A32.43,32.43,0,0,0,56,52.16a29.73,29.73,0,0,0-2.26-8.07"/><path class="cls-1" d="M37.19,35.13c.41-.63,8-11.81,21.65-11.4C71.57,24.11,78.4,34.21,79,35.13"/><line class="cls-1" x1="51.39" y1="79.52" x2="64.81" y2="79.52"/></svg>