<svg id="Symbols" xmlns="http://www.w3.org/2000/svg" viewBox="0 0 120 120"><defs><style>.cls-1{fill:none;stroke:#000;stroke-linecap:round;stroke-linejoin:round;stroke-width:4px;}</style></defs><path class="cls-1" d="M19.9,63.52,24,41.1a16.86,16.86,0,0,1,32.52,0L60,63.52A16.7,16.7,0,0,1,50.1,78c-.69,4.64-1.38,5.16-2.07,9.8a11.77,11.77,0,0,1-14.71,0L30.23,77.49a23.45,23.45,0,0,1-10.33-14Z"/><path class="cls-1" d="M25.32,75l2.33,25L32.16,104a12.45,12.45,0,0,0,16,.54l4.22-3.32,2.33-26.07"/><polygon class="cls-1" points="35.65 77.84 40.03 82.48 44.68 77.84 42.35 54.1 37.71 54.1 35.65 77.84"/><path class="cls-1" d="M25.32,39.39A15,15,0,0,1,32.81,43a15.7,15.7,0,0,1,4.9,11.1"/><path class="cls-1" d="M42.35,54.1A20.23,20.23,0,0,1,49.06,43,19.19,19.19,0,0,1,56,39.39"/><line class="cls-1" x1="37.71" y1="96.42" x2="42.35" y2="96.42"/><path class="cls-1" d="M22.74,54.1a10.41,10.41,0,0,0,6.71,8.77A10.2,10.2,0,0,0,37,62.32a10.64,10.64,0,0,0-5.23-8A10.47,10.47,0,0,0,22.74,54.1Z"/><circle class="cls-1" cx="29.87" cy="58.28" r="1.72"/><path class="cls-1" d="M58.93,54.1a10.41,10.41,0,0,1-6.71,8.77,10.17,10.17,0,0,1-7.54-.55,10.59,10.59,0,0,1,5.22-8A10.47,10.47,0,0,1,58.93,54.1Z"/><circle class="cls-1" cx="51.8" cy="58.28" r="1.72"/><path class="cls-1" d="M21.71,46.74h-7l3.49,5V77.32c-.24.1-4,1.64-4.52,5.16s2.55,7.27,6.19,7.75,6.37-2.56,6.58-2.81"/><path class="cls-1" d="M58.35,46.74h7l-3.49,5V77.32c.24.1,4,1.64,4.52,5.16s-2.55,7.27-6.19,7.75-6.37-2.56-6.58-2.81"/><polyline class="cls-1" points="19.9 90.23 11.9 100.29 15.9 105.45 26.48 93.06"/><path class="cls-1" d="M61.19,46.74,86,16.68a15.61,15.61,0,0,1,15.74-4.13l6.19,3.61L98.35,26.48c-2.89-2.32-6.87-1.92-8.77.26C87.4,29.23,88,34,91.65,36.29L79.52,48.94H74.1l.51-7.49L61.83,56.55"/></svg>