<?xml version="1.0" encoding="UTF-8"?>
<svg id="Livello_3" data-name="Livello 3" xmlns="http://www.w3.org/2000/svg" viewBox="0 0 120 120">
  <defs>
    <style>
      .cls-1 {
        fill: #000;
        stroke-width: 0px;
      }
    </style>
  </defs>
  <path class="cls-1" d="M45.93,110c3.48,0,6.68-1.23,9.18-3.28,2.37.52,4.83.81,7.37.81,16.99,0,30.93-12.39,32.05-28.01,13.56-.16,15.39-9.16,15.46-9.56l-3.93-.75c-.06.26-1.43,6.16-11.52,6.31-.06-1-.16-1.98-.3-2.94.11,0,.23.02.33.02,8.75,0,13.8-8.03,15.35-12.8l-3.8-1.24c-.15.47-3.73,10.94-12.75,9.96-.36-1.26-.81-2.48-1.33-3.64,4.64-.72,12.63-4.36,17.87-19.94l-3.79-1.28c-5.45,16.2-13.6,17.43-16.17,17.39-.67-1.02-1.41-1.97-2.21-2.88,8.62-2.06,15.07-10.33,18.8-24.27,3.14-11.77,3.28-23.33,3.29-23.81l-4-.04c0,.44-.67,43.8-21.87,44.63-1.64-1.24-3.45-2.3-5.42-3.17-.03-1.88-.23-3.78-.62-5.68-.02-.08-.03-.15-.05-.23-.17-.65-.56-1.9-1.24-3.18.02-.07.05-.14.07-.21.75-2.79.29-6.93-2.05-9.12-1.03-.96-1.62-2.89-2.2-4.76-.53-1.73-1.05-3.38-1.97-4.65l1.98-7.28c.2-.72.08-1.49-.31-2.13-.39-.63-1.03-1.09-1.76-1.24l-12.99-2.69c-.8-.17-1.63.04-2.26.55-.64.52-1,1.28-1,2.1v6.91c-.96,1.09-2.53,3.31-2.01,5.78v1.21c-.64.88-1.76,2.61-2.42,4.79-.41.99-.33,2,.25,2.8.48.67,1.19,1.02,1.94,1.19-.13,1.08-.29,2.24-.42,3.25-.1.74-.19,1.41-.25,1.89-.1.8.19,1.61.78,2.17.59.56,1.42.8,2.21.66.53-.09,1.14-.22,1.78-.36l-5.97,3.25-7.03-6.94c-.12-.52-.26-1.22-.38-1.78-.76-3.8-1.25-5.69-2.45-6.63-1.32-1.03-2.47-.68-2.9-.48-.25.11-.46.26-.64.42l-2.73-3.07-1.86-1.04c-.76-.42-1.66-.43-2.43-.03-.76.4-1.27,1.15-1.35,2.02-.17,1.72-.36,5.01.22,7.64.42,1.91,1.59,3.55,3.49,4.88,3.09,2.16,5,5.61,7.01,9.26l.26.47,2.44,3.38c-.47.38-.92.77-1.36,1.17C14.23,52.61,14.88,10.52,14.89,10.09l-4-.09c-.01.48-.23,11.76,3.19,23.56,4.2,14.45,12.1,23.24,22.95,25.68-.45.55-.87,1.11-1.28,1.69-3.08-.06-15.98-1.38-21.97-18.77l-3.78,1.3c5.77,16.76,17.76,20.46,23.47,21.25-.69,1.36-1.28,2.77-1.75,4.21-4.9.6-9.32-1.14-13.16-5.18-3.22-3.4-4.82-7.21-4.83-7.24l-3.7,1.52c2.26,5.54,9.12,15.02,19.88,15.02.27,0,.54-.03.82-.04-.17,1.04-.29,2.08-.34,3.13-13.65.55-16.42-8.12-16.54-8.5l-3.85,1.09c.04.14,1.02,3.49,4.42,6.52,2.63,2.34,7.24,4.92,14.77,4.92.42,0,.85-.02,1.28-.03.31,3.28,1.18,6.4,2.52,9.29-.98,1.95-1.55,4.08-1.55,6.13,0,7.97,6.5,14.45,14.48,14.45ZM45.93,106c-5.78,0-10.48-4.69-10.48-10.45,0-.53.07-1.07.17-1.61,3.49,4.96,8.49,8.9,14.4,11.23-1.26.53-2.64.83-4.09.83ZM38.97,88.07c3.21,6.01,9.05,10.62,16.13,12.54-.33.6-.72,1.16-1.17,1.68-7.07-2.09-12.93-6.71-16.34-12.71.37-.49.77-.96,1.21-1.37.05-.05.11-.1.17-.14ZM40.3,77.48c0-4.95,1.11-8.62,3.5-11.5l2.41,14.64-1.07.59-.24.29c-.09.11-.17.2-.25.31-1.28.03-2.5.24-3.67.61-.44-1.58-.68-3.24-.68-4.95ZM76.07,63.83c.24-.57.5-1.21.75-1.89,4.89,2.89,7.85,9.91,7.85,15.55,0,5.01-2.03,9.59-5.38,13.11-1.74-6.16-3.79-18.2-4.64-23.66.52-1.07,1-2.11,1.42-3.11ZM71.57,72.9c1.06,6.25,2.82,15.77,4.41,20.53-3.74,2.61-8.42,4.17-13.5,4.17-.75,0-1.49-.04-2.22-.1.09-.64.15-1.28.15-1.94,0-3.57-1.89-6.93-4.04-8.91.11-.21.22-.42.35-.63l1.24,1.24c.68.67,1.57,1.04,2.51,1.04.14,0,.27,0,.41-.02,1.09-.12,2.04-.73,2.62-1.65,2.08-3.33,5.23-8.5,8.06-13.71ZM44.49,89c.39-.02,1.43.41,2.19.91,3.04,2.76,4.7,3.37,5.68,3.37.48,0,.8-.15,1.04-.26.83-.39,1.32-1.19,1.38-2.17.94,1.33,1.64,3.05,1.64,4.7,0,.42-.03.84-.08,1.25-4.9-1.28-9.1-4.06-11.97-7.74.04-.02.09-.03.13-.06ZM51.2,88.45c-.61-.45-1.31-1.02-1.92-1.58l-.2-.16c-.4-.28-1.23-.82-2.25-1.22.3-.38.61-.77.91-1.14l4.72-2.61,1.34,1.34c-.86,1.44-2,3.52-2.59,5.37ZM62.48,103.52c-1.46,0-2.9-.1-4.3-.3.37-.58.7-1.19.98-1.83,1.09.13,2.19.2,3.32.2,14.44,0,26.19-10.82,26.19-24.11,0-6.19-3.35-15.86-10.72-19.5.15-.72.27-1.45.36-2.17,7.75,4.03,12.31,11.94,12.31,21.67,0,14.36-12.62,26.04-28.13,26.04ZM58.16,14.56l10.1,2.09-1.37,5.04-8.73-2.5v-4.63ZM53.88,31.91c.73-1.79,1.77-3.03,1.78-3.04l.49-.56v-.56c1.76.29,3.37.69,4.13,1.05l-.13,1.64c-.88.59-2.56,1.53-4.5,1.49-.62-.02-1.2.13-1.72.39l-.05-.42ZM55.91,35.93c4.12-.07,7.33-2.79,7.47-2.91l.63-.54.38-4.75-.15-.41c-.66-1.77-3.31-2.98-7.89-3.62.13-.25.3-.51.48-.75l10.41,2.98c.55.72,1.01,2.21,1.42,3.54.7,2.26,1.48,4.82,3.29,6.5.59.55.94,1.63,1.06,2.75-.33-.13-.68-.22-1.04-.28-.38-.09-.76-.15-1.12-.17-.96-.04-1.76.07-2.44.27l-.78-3.12c-.04-1.13-.64-2.01-1.6-2.29-1.96-.59-3.13,1.54-3.92,2.95-.64,1.16-3.2,2.36-6.62,3.17.14-1.06.3-2.26.43-3.35ZM61.08,41.64c1.3-.58,2.5-1.29,3.41-2.18l.36,1.45c-1.21,1.22-2.39,2.89-3.4,4.49l-.38-1.79v-1.97ZM58.54,50.81l1.3,6.24,2.56-5.15c1.57-3.16,4.52-8.02,6.16-8.92h0c.13-.08.26-.16.37-.26.2-.18.69-.46,1.72-.42.5.02,1.12.33,1.44.56.09.08.17.19.26.29.1.18.22.35.36.49.54.81,1.01,1.91,1.29,2.95.74,3.66.74,7.27,0,10.74-.44,2.07-1.06,3.65-1.61,4.92-2.97,6.93-8.67,16.43-11.99,21.78l-7.56-7.56,13.95-13.84c.81-.8,1.18-1.95,1.01-3.06-.69-4.5-.46-6.98-.15-7.49l-3.39-2.12c-1.04,1.67-1.19,5.03-.44,9.99l-8.49,8.42c.02-.11.04-.22.06-.33.76-4.46,2.07-12.17,3.16-17.23ZM55.02,48.35c-.95,3.89-2.07,10.1-3.59,19.03-.41,2.4-.77,4.51-1.02,5.87l-.71.7c-.17.17-.32.35-.45.55l-4.54-27.62,4.62,4.56,5.69-3.1ZM34.25,38.21c-1.04-.73-1.67-1.55-1.87-2.45-.25-1.15-.31-2.53-.29-3.75l3.32,3.72c.64.72,1.65.98,2.55.65.09-.03.17-.07.25-.1.2.83.37,1.71.49,2.3.38,1.91.65,3.2,1.24,3.95l.43,2.63c-1.61-2.63-3.48-5.1-6.13-6.95ZM34.35,77.48c0-6.82,3.06-13.51,8.3-18.44l.34,2.08c-5.97,5.11-6.7,11.73-6.7,16.35,0,2.35.37,4.62,1.06,6.77-.44.32-.87.66-1.28,1.04-.11.1-.21.22-.31.32-.91-2.56-1.41-5.29-1.41-8.13Z"/>
</svg>