<?xml version="1.0" encoding="UTF-8"?>
<svg id="Livello_3" data-name="Livello 3" xmlns="http://www.w3.org/2000/svg" viewBox="0 0 120 120">
  <defs>
    <style>
      .cls-1 {
        fill: #000;
        stroke-width: 0px;
      }
    </style>
  </defs>
  <path class="cls-1" d="M59.41,28.26c.16.01.32.02.48.04-.02.03-.04.05-.06.08l-.39.54c-2.03,2.81-2.25,2.68-2.72,2.4l-2.01,3.46c.89.51,1.69.73,2.44.73,2.46,0,4.19-2.39,5.53-4.25l.38-.52c.68-.93,1.92-2.66,1.92-2.66l1.64-2.27-2.68-.81c-.08-.02-1.89-.56-4.27-.72-3.23-.21-5.4,2.91-5.63,3.26l3.35,2.19c.26-.39,1.26-1.51,2.02-1.46Z"/>
  <path class="cls-1" d="M110,17.87l-23,20.07c-.11-.74-.31-1.51-.63-2.3.74-1.41,1.46-3.51.93-5.84-.29-1.29-1.08-3.07-3.17-4.62-.13-1.35-.65-2.53-1.54-3.48-1.51-1.61-3.73-2.19-5.66-2.35-.88-1.44-2.27-2.59-4.02-3.29-1.78-.71-3.71-.88-5.3-.48-2.42-1.27-4.84-.96-6.5-.44-.33-.98-.4-1.56-.37-1.77.46-.83.37-1.85-.25-2.58-.62-.73-1.62-.98-2.51-.63-3.13,1.25-5.4,4.84-6.3,8.41-1.24-1.11-1.96-2.13-2.15-3.05-.12-.59-.12-1.48.95-3.09l-3.33-2.21c-1.43,2.15-1.93,4.15-1.53,6.1.37,1.82,1.52,3.55,3.52,5.32-2.59.98-4.73,2.13-5.32,4.02-.04.12-.07.24-.09.36-1.05.37-1.95.93-2.78,1.44-.72.45-1.4.87-2.06,1.08-.11.03-.24.04-.36.06-1.93.26-2.99,1.25-3.16,2.92-.2,2.01,1.22,4.83,2.93,5.8,1.76,1,3.8.29,5.65-.45-1.38,1.89-2.04,2.37-2.18,2.46-2.31,1.49-1.3,3.26-1.18,3.46.45.72,1.39,1.06,2.57,1.15-.08.18-.16.36-.21.54-.99.45-2.24,1.25-2.98,2.63-.02.03-.03.06-.04.1l-12.16-9.5c-.09-.07-.4-.33-.84-.71-3.78-3.18-5.85-4.9-7.14-5.78l-.76-2.95-6.81-4.6-2.24,3.32,5.55,3.75.05.21c-2.36-.59-4.63-.41-5.01-.38l.39,3.98c.99-.1,4.12-.09,5.55,1.15.12.11.23.23.32.35l1.23,4.57-3.59,4.33-2.75.81,1.13,3.84,3.91-1.16,3.6-4.33,14.93,15.64-1.05,1.05-10.88.97-4.9-7.87h-5.51v4h3.29l1.27,2.03-2.61-.98-4.61,2.04,1.62,3.66,3.12-1.38,2.26.85-1.76.39-3.84,3.09,2.51,3.11,3.11-2.51,2.56-.58c-.6,1.01-1.35,2.03-1.96,2.73l3.02,2.62c.3-.34,1.14-1.34,1.97-2.63,7.79.47,18.87.8,18.99.81l.84.02,3.73-3.56c.75,1.36,1.96,3.1,3.81,4.4.47,1.53.69,3.3.86,4.64.07.58.14,1.08.22,1.53-1.76,2.9-7.16,12.69-6.07,21.6.37,3.07.58,4.96.69,6.13h-.65s1.38,4.4,1.38,4.4l1.79-.38s.08-.02.12-.03l13.11-.06-.32-2.27c-.45-3.16,1.09-6.3,3.05-8.9l3.72,11.31h12.51l2.07-9.38c1.69,1.14,3.71,1.51,5.72,1.43,2.28,3.44,6.02,6.01,10.59,6.97l.82-3.92c-2.91-.61-5.34-2-7.06-3.9.82-.28,1.59-.61,2.29-.97,3.81-1.96,6.13-4.87,6.21-7.8.09-3.63-2.68-6.3-6.75-6.5-3.87-.17-8.17,2.22-8.51,7.04-.12,1.71.06,3.38.51,4.96-.62-.12-1.16-.34-1.61-.64-1.35-.92-1.9-2.73-1.64-5.4.56-5.75-.05-10.17-1.01-13.45,1,.57,2.09,1.16,3.31,1.79l2.92,1.5v-4.93c3.54,1.83,9.94,4.01,19.53,3.19l1.83-.15v-30.08s-2.48.61-2.48.61c-.07.02-2.72.64-6.81.88,7.42-5.65,7.15-9.55,6.98-10.39l-.25-1.21c1.25-2.11,1.56-4.28,1.45-5.64l-.15-1.82-1.29-.02c2.58-5.14,2.62-9.67,2.62-9.92v-4.4ZM90.07,93.26c.19-2.65,2.66-3.33,4.11-3.33.07,0,.14,0,.21,0,.5.02,3,.25,2.95,2.4-.04,1.38-1.66,3.12-4.04,4.34-.86.44-1.74.78-2.61,1.01-.51-1.38-.73-2.87-.62-4.42ZM66.24,19.42l.96.68,1.06-.51c.6-.29,1.89-.32,3.17.2.68.27,1.89.92,2.37,2.22l.49,1.3h1.39c1.87,0,3.33.41,4,1.13.24.25.55.71.48,1.69l-.08,1.22,1.05.63c1.28.76,2.04,1.67,2.27,2.7.35,1.57-.54,3.13-.95,3.73l-.66.98.55,1.05c1.55,2.99.46,4.95-.33,5.85l-.25.21.02.02s-.03.03-.04.04l-1.11,1.07.75,1.35c.94,1.68,1.01,3.36.8,3.91-1.6-.55-3.2-1.21-4.8-2,4.3-6.03,4.92-12.58,1.56-17.86-5.08-7.99-12.6-9.22-15.64-9.37l-.47-.85c.98-.21,2.23-.21,3.39.6ZM42.85,33.02c-.79.32-2.1.84-2.58.81-.27-.24-.61-.83-.79-1.32.2-.03.42-.08.65-.16,1.12-.36,2.09-.96,2.94-1.49,1.07-.66,1.99-1.24,2.99-1.24l3.92-.06-2.13-2.87c.9-.75,3.6-1.65,4.55-1.96.82-.27,1.41-.47,1.82-.68l1.15-.6-.08-1.3c-.11-1.89.65-4.41,1.88-6.21.34,1.14.93,2.54,1.88,4.27l1.93,3.53,1.28-.09c.08,0,8.22-.48,13.31,7.53,3.22,5.06.64,10.38-1.39,13.31-.26-.34-.51-.66-.66-.86-.35-.46-.61-.79-.7-.88-3.54-3.71-9.11-6.35-14.52-6.35-2.54,0-5.05.58-7.3,1.92-.86.51-2.5.96-4.08,1.27.39-.52.83-1.13,1.31-1.84.85-1.26.79-2.91-.15-4.11-.94-1.2-2.53-1.65-3.96-1.12-.43.16-.86.33-1.28.5ZM22.09,40.1l-.64-2.48c.85.7,1.82,1.51,2.92,2.44.51.43.86.73.95.79l13.5,10.56c-.53,1.09-.77,2.39-.54,3.53.1.49.29.92.53,1.3l-.68.68-16.06-16.82ZM41.2,67.15c-2.46-.08-9.92-.33-16.12-.67l1.09-.24-.41-.66,10.31-.92,6.7-6.71h.14s.64-.79.64-.79c1.98-2.49,5.64-5.61,7.35-4.99.76.27,1.63,1.58,2.45,3.39l-12.14,11.6ZM57.36,105.88l-7.35.04c-.13-1.46-.38-3.68-.74-6.6-1.09-8.91,5.9-19.65,5.97-19.76l1.36-2.07-1.38-.54c-.03-.25-.07-.53-.1-.79-.21-1.7-.51-4.04-1.27-6.12l-.24-.66-.6-.36c-1.9-1.14-2.99-3.18-3.5-4.28l5.35-5.11c.42,1.36.78,2.78,1.05,4.14l.53,2.62,2.36-1.24c1.45-.76,2.69-1.79,3.6-3,1.74,3.97,4.22,8.04,7.46,9.58l2.04.97.72-2.14s0,0,0,0c.7.9,1.43,1.75,2.32,2.62,1.62,10.66-6.03,15.75-6.36,15.96l-.09.06c-.47.33-10.68,7.7-11.12,16.68ZM71.09,106l-3.54-10.76c1.63-1.58,3.01-2.6,3.22-2.76.71-.47,6.31-4.36,7.94-12.02.69,2.73,1.09,6.37.64,11.05-.18,1.87-.04,3.39.3,4.64l-2.17,9.85h-6.4ZM105.92,76.14c-12.27.53-17.96-4.42-18.01-4.46l-3.35-3.08v6.53c-6.21-3.48-7.7-5.51-10.17-8.87-.39-.53-.8-1.1-1.26-1.7l-4.06-5.37.47,6.72c0,.13,0,.3-.02.5-1.95-2.29-3.95-6.37-5.46-11.34l-3.89.9c.12.75.17,2.23-.9,3.7-.05.07-.11.15-.17.22-1.11-4.15-3.31-10.22-6.87-11.49-2.99-1.06-6.2.84-8.54,2.87.08-.56-.01-1.1-.07-1.4-.05-.26-.13-.73-.11-.85.33-.61,1.34-1.02,1.76-1.11l2-.43-.46-1.91c.05-.16.31-.59.83-.59,0,0,0,0,.01,0,1.24,0,2.18-.97,3.38-2.35l.04-.05c.91-.31,1.62-.61,1.98-.82,5.24-3.11,12.84-.47,16.84,3.71.08.1.25.31.45.59,1.71,2.26,2.47,3.19,3.41,3.43,12.9,7.25,26.64,6.13,32.16,5.25v21.4ZM103.64,37.35c.21-.09.41-.18.6-.26-.61,1.29-1.83,2.73-4.24,3.67l1.26,3.79,1.02-.28c-1.31,1.67-3.85,4.03-8.76,6.92-2.35-.18-4.88-.55-7.49-1.18.52-1.7.21-3.76-.46-5.51l19.4-16.93c-.68,2.04-1.81,4.42-3.67,6.67l-5.44,6.55,7.79-3.44Z"/>
</svg>