<?xml version="1.0" encoding="UTF-8"?>
<svg id="Livello_3" data-name="Livello 3" xmlns="http://www.w3.org/2000/svg" viewBox="0 0 120 120">
  <defs>
    <style>
      .cls-1 {
        fill: #000;
        stroke-width: 0px;
      }
    </style>
  </defs>
  <path class="cls-1" d="M45.64,89.93c0,7.77,6.33,14.1,14.12,14.1s14.12-6.33,14.12-14.1-6.33-14.1-14.12-14.1-14.12,6.33-14.12,14.1ZM69.87,89.93c0,5.57-4.54,10.1-10.12,10.1s-10.12-4.53-10.12-10.1,4.54-10.1,10.12-10.1,10.12,4.53,10.12,10.1Z"/>
  <path class="cls-1" d="M37.34,10.77c-1.2-.67-2.66-.37-3.48.71-2.62,3.47-4.01,7.43-4.01,11.47,0,11.15,10.49,20.45,24.31,22.46.75,2.23,1.11,4.41,1.34,6.1.12.9.22,1.83.29,2.79-1.64-.06-3.25-.16-4.81-.31-2.37-.23-5.5-.59-8.64-1.41l-2.51-.66v13.51l2.51-.66c3.15-.83,6.27-1.19,8.64-1.41,1.55-.14,3.15-.24,4.78-.3-.07.95-.17,1.88-.29,2.77-.31,2.18-.67,3.94-1.16,5.56-8.46,2.4-14.48,10.27-14.48,19.14,0,10.97,8.94,19.9,19.92,19.9s19.92-8.93,19.92-19.9c0-8.87-6.02-16.74-14.48-19.14-.49-1.62-.85-3.37-1.16-5.54-.12-.9-.21-1.82-.29-2.77,1.63.07,3.23.17,4.77.31,2.4.23,5.55.6,8.66,1.39l2.49.63v-13.46l-2.49.63c-3.11.79-6.27,1.16-8.65,1.39-1.56.14-3.17.25-4.81.31.07-.94.17-1.87.29-2.76.23-1.7.6-3.88,1.34-6.11,13.82-2.01,24.31-11.31,24.31-22.46,0-4.04-1.39-8-4.01-11.47h0c-.82-1.08-2.28-1.38-3.48-.71-1.15.64-1.65,1.99-1.18,3.2.53,1.38.8,2.81.8,4.26,0,9.31-11.07,13.47-22.03,13.47s-22.03-4.17-22.03-13.47c0-1.44.27-2.88.8-4.26.47-1.21-.03-2.56-1.18-3.2ZM75.68,90.52c0,8.77-7.14,15.9-15.92,15.9s-15.92-7.13-15.92-15.9c0-7.4,5.24-13.93,12.47-15.52l1.09-.24.37-1.06c.74-2.13,1.27-4.45,1.67-7.34.13-1,.24-2.03.32-3.08.08,1.06.19,2.09.32,3.1.4,2.87.93,5.2,1.67,7.32l.37,1.06,1.09.24c7.23,1.59,12.47,8.12,12.47,15.52ZM68.91,57.94c1.91-.19,4.27-.45,6.77-.94v3.33c-2.49-.49-4.86-.75-6.78-.94-2.33-.21-4.76-.34-7.23-.39l-1.69-.03h0s-.24,0-.24,0h-.2s-1.68.03-1.68.03c-2.48.04-4.92.16-7.25.38-1.9.18-4.26.45-6.77.95v-3.3c2.51.5,4.87.77,6.78.95,2.33.21,4.78.34,7.27.38l1.65.02h0s.2,0,.2,0h.25s1.67-.04,1.67-.04c2.49-.05,4.93-.18,7.26-.39ZM58.46,45.82h2.59c-.52,1.91-.8,3.7-1.01,5.16-.12.88-.21,1.78-.29,2.71-.07-.92-.17-1.83-.29-2.72-.2-1.46-.49-3.24-1.01-5.16ZM59.75,35.69c14.13,0,24.05-5.78,25.77-14.66.09.64.14,1.27.14,1.91,0,10.4-11.62,18.87-25.9,18.87s-25.9-8.46-25.9-18.87c0-.64.05-1.28.14-1.91,1.71,8.88,11.64,14.66,25.77,14.66Z"/>
</svg>