<?xml version="1.0" encoding="UTF-8"?>
<svg id="Livello_3" data-name="Livello 3" xmlns="http://www.w3.org/2000/svg" viewBox="0 0 120 120">
  <defs>
    <style>
      .cls-1 {
        fill: #000;
        stroke-width: 0px;
      }
    </style>
  </defs>
  <path class="cls-1" d="M52.27,53.06c.75,4.09,1.34,8.68,1.67,13.08.22,3.06.36,6.26.43,9.55-2.41-.09-4.79-.23-7.11-.44-3.47-.32-8.03-.83-12.62-1.97l-2.48-.62v16.69l2.48-.62c4.58-1.14,9.15-1.65,12.61-1.97,2.31-.2,4.69-.35,7.1-.44-.07,2.59-.2,5.12-.37,7.53-.28,3.76-.73,8.73-1.75,13.75l-.49,2.4h16.52l-.49-2.4c-1.02-5.02-1.47-9.98-1.75-13.74-.18-2.45-.3-4.93-.37-7.53,2.42.09,4.8.24,7.09.44,3.48.32,8.05.83,12.63,1.96l2.48.61v-16.68l-2.48.61c-4.57,1.13-9.15,1.64-12.62,1.96-2.3.2-4.69.35-7.12.44.07-3.28.22-6.48.43-9.53.33-4.41.92-9,1.67-13.09,12.52-3.31,21.75-14.44,21.75-27.63,0-4.95-1.32-9.82-3.83-14.1-.69-1.18-2.07-1.65-3.29-1.12-1.29.56-1.95,2.03-1.53,3.42.56,1.87.84,3.81.84,5.78,0,12.26-10.88,17.74-21.67,17.74s-21.67-5.49-21.67-17.74c0-1.96.28-3.91.84-5.78.41-1.39-.25-2.86-1.53-3.42-1.22-.53-2.61-.06-3.29,1.12-2.5,4.28-3.83,9.16-3.83,14.1,0,13.19,9.24,24.32,21.75,27.63ZM63.64,79.74c3.23-.08,6.41-.25,9.47-.52,3-.28,6.78-.69,10.74-1.5v6.57c-3.96-.81-7.75-1.23-10.75-1.5-3.04-.27-6.22-.44-9.45-.52l-2.08-.05.04,2.08c.06,3.45.2,6.67.43,9.84.24,3.29.61,7.47,1.37,11.85h-6.8c.76-4.38,1.13-8.56,1.37-11.86.22-3.14.37-6.45.43-9.85l.04-2.08-2.08.05c-3.2.07-6.38.24-9.46.51-2.99.27-6.77.69-10.74,1.51v-6.56c3.97.82,7.75,1.24,10.75,1.51,3.08.27,6.26.44,9.46.51l2.07.05-.03-2.07c-.05-4.1-.21-8.09-.48-11.87-.3-4.01-.81-8.17-1.46-12,1.16.13,2.33.21,3.53.21s2.37-.08,3.53-.21c-.65,3.83-1.16,7.99-1.46,12.01-.27,3.78-.43,7.77-.48,11.85l-.03,2.07,2.07-.05ZM34.63,23.14c1.79,10.92,11.54,18.01,25.37,18.01s23.58-7.09,25.37-18.01c.07.76.11,1.53.11,2.29,0,13.58-11.43,24.63-25.48,24.63s-25.48-11.05-25.48-24.63c0-.77.04-1.53.11-2.29Z"/>
</svg>