<?xml version="1.0" encoding="UTF-8"?>
<svg id="Livello_3" data-name="Livello 3" xmlns="http://www.w3.org/2000/svg" viewBox="0 0 120 120">
  <defs>
    <style>
      .cls-1 {
        fill: #000;
        stroke-width: 0px;
      }
    </style>
  </defs>
  <path class="cls-1" d="M60,72.78c7.05,0,12.78-5.73,12.78-12.78s-5.73-12.78-12.78-12.78-12.78,5.73-12.78,12.78,5.73,12.78,12.78,12.78ZM60,51.22c4.84,0,8.78,3.94,8.78,8.78s-3.94,8.78-8.78,8.78-8.78-3.94-8.78-8.78,3.94-8.78,8.78-8.78Z"/>
  <path class="cls-1" d="M60,89.82c16.44,0,29.82-13.38,29.82-29.82s-13.38-29.82-29.82-29.82-29.82,13.38-29.82,29.82,13.38,29.82,29.82,29.82ZM60,34.18c14.24,0,25.82,11.58,25.82,25.82s-11.58,25.82-25.82,25.82-25.82-11.58-25.82-25.82,11.58-25.82,25.82-25.82Z"/>
  <path class="cls-1" d="M10,60c0,27.57,22.43,50,50,50s50-22.43,50-50S87.57,10,60,10,10,32.43,10,60ZM60,14c25.36,0,46,20.64,46,46s-20.64,46-46,46S14,85.36,14,60,34.64,14,60,14Z"/>
</svg>