<?xml version="1.0" encoding="UTF-8"?>
<svg id="Livello_3" data-name="Livello 3" xmlns="http://www.w3.org/2000/svg" viewBox="0 0 120 120">
  <defs>
    <style>
      .cls-1 {
        fill: #000;
        stroke-width: 0px;
      }
    </style>
  </defs>
  <path class="cls-1" d="M110,100.86h-19.67v-5.14h-14.79c-2.28-.92-4.54-2.21-4.94-2.85l-.23-.3c-1.57-1.71-1.72-3.83-1.66-4.97.09-.07.18-.13.27-.21l19.13-18.45c.68-.66,1.08-1.58,1.08-2.53v-13.15c0-1.58-1.05-2.9-2.49-3.35,1.4-1.27,3.06-2.69,4.54-3.76.37-.27.66-.61.85-1h3.88c2.59,0,4.69-2.11,4.69-4.69s-2.1-4.69-4.69-4.69h-2.21c-1.64-1.52-1.9-2.3-1.9-2.63,0-.05,0-.21.34-.49,3.44-2.87,1.89-7.77.44-10.21l-2.13-3.56-1.46,3.88c-1.05,2.78-2.25,4.25-3.45,5.23,2.42-6.43-1.4-10.34-1.58-10.52l-2.33-2.31-.99,3.13c-.29.91-1.39,3.54-2.95,4.65-.95.62-1.79,1.25-2.52,1.89,2.58-4.71,1-8.44-1.52-10.44-1.45-1.15-2.58-1.74-3.74-1.1l-1.19.7.15,1.33c.18,1.66-1.27,3.56-2.74,5.3.7-1.26,1.16-2.66.9-4.13-.48-2.63-2.94-4.12-6.06-6.01-.73-.44-3.96-.94-5.08.36l-1.1,1.35,1.07,1.3c.85,1.03.43,2-1.28,4.37-.66.92-1.28,1.81-1.59,2.74-1.43-1.22-2.89-2.87-3.04-4.56-.08-.89-.64-1.65-1.46-2-.81-.35-1.75-.22-2.44.33-1.27,1.01-3.44,3.16-3.66,6.16-.06.89.06,1.77.34,2.62-1.44-.96-2.57-2.26-3.23-3.74-.29-.66-.44-1.13-.44-1.13l-.92-2.97-2.32,2.07c-1.77,1.58-4.06,5.17-2.64,9.2-1.02-1.03-1.92-2.29-2.45-3.8l-1.43-4.05-2.18,3.69c-1.4,2.38-2.9,7.19.38,10.16.31.28.31.47.31.58,0,.74-.81,1.83-1.54,2.59h-.85c-2.59,0-4.69,2.11-4.69,4.69s2.1,4.69,4.69,4.69h2.41c.2.39.48.73.85,1,1.48,1.06,3.14,2.49,4.54,3.76-1.44.45-2.49,1.77-2.49,3.35v13.15c0,.95.39,1.87,1.08,2.53l19.08,18.4c.09,1.05.06,3.38-1.65,5.23l-.23.3c-.4.64-2.66,1.93-4.94,2.85h-13.93v5.14H10v9.14h100v-9.14ZM88.68,30.6c-.64.9-.81,1.79-.82,2.47-.02.98.29,1.88.73,2.7h-1.91c-.59-.39-1.55-1.2-2-2.46.26-.18.58-.36.93-.56.88-.51,1.96-1.13,3.07-2.15ZM80.01,26.23c.96-.68,1.74-1.56,2.38-2.47,0,1.02-.22,2.26-.91,3.69-1.63,3.42-1.21,6.22-.07,8.31h-2.06c-1.36-1.56-2.62-3.32-3.55-4.92.28-1.81,2.68-3.62,4.21-4.61ZM72.26,18.74c.54,1.12.51,2.75-1.09,5.08-2.3,3.35.54,8.49,3.07,11.94h-2.46c-.16-2.86-2.36-5.61-4.23-7.93-.31-.39-.64-.79-.95-1.2.28-.67,1.35-1.92,2.09-2.78,1.27-1.48,2.73-3.18,3.57-5.1ZM56.83,21.88c.07-.31.67-1.14,1.07-1.69.97-1.35,2.36-3.28,2.47-5.44,1.45.91,2.67,1.79,2.79,2.44.06.32-.06,1.15-1.53,3.02-2.63,3.35.38,7.1,2.8,10.12,1.48,1.84,3.11,3.88,3.31,5.43h-6.81c.16-2.12-.18-5.23-2.49-8.58-.36-.53-.69-.97-.97-1.35q-1.17-1.6-.65-3.95ZM46.93,19.39c1.46,2.87,4.27,4.95,5.73,5.89.24.94.76,1.77,1.6,2.91.26.35.56.76.9,1.26,1.82,2.63,1.93,4.95,1.77,6.31h-6.39c.34-1.27.55-2.73.5-4.26.03-.27.02-.63-.09-1.07-.28-2.25-1.18-4.6-3.17-6.72-.95-1.01-1.39-1.98-1.32-2.9.04-.51.22-.99.47-1.43ZM36.97,22.91c1.2,1.77,2.87,3.26,4.85,4.3,4.31,2.27,5.1,3.82,5.22,4.13.13,1.81-.32,3.43-.71,4.42h-5.27c.31-2.16-.05-5.26-2.97-8.73-1.3-1.55-1.42-2.98-1.12-4.12ZM30.26,29.62c-.3-.27-.48-.62-.57-1,2.51,2.89,5.75,4.52,7.42,5.23.11.79.03,1.45-.1,1.92h-5.79c.38-.78.65-1.63.66-2.53.02-1.38-.54-2.64-1.63-3.62ZM24.8,40.45c0-.38.31-.69.69-.69h70.47c.38,0,.69.31.69.69s-.31.69-.69.69H25.5c-.38,0-.69-.31-.69-.69ZM38.81,49.6c-.96-.94-2.84-2.73-4.86-4.45h52.09c-2.03,1.72-3.91,3.51-4.86,4.45h-42.36ZM34.8,53.73h50.38v12.46l-18.85,18.18h-12.68l-18.85-18.18v-12.46ZM52.37,95.15c2.02-2.28,2.54-4.91,2.6-6.78h9.75c.06,1.87.57,4.5,2.6,6.78.13.19.3.38.47.56h-15.89c.17-.19.34-.37.47-.56ZM34.22,99.71h52.11v1.14h-52.11v-1.14ZM106,106H14v-1.14h92v1.14Z"/>
</svg>