<?xml version="1.0" encoding="UTF-8"?>
<svg id="Livello_3" data-name="Livello 3" xmlns="http://www.w3.org/2000/svg" viewBox="0 0 120 120">
  <defs>
    <style>
      .cls-1 {
        fill: #000;
        stroke-width: 0px;
      }
    </style>
  </defs>
  <path class="cls-1" d="M65.37,58.15c-26.52-2.1-31.95-13.86-32.07-14.13l-.1-.25-.17-.22c-4.11-5.29-2.26-12.49-.5-16.82,2.25,2.69,5.79,4.16,9.46,3.87,5.43-.43,9.81-4.81,9.96-9.97.08-2.71-.93-5.29-2.86-7.28-2.06-2.12-4.99-3.34-8.04-3.34-2.03,0-4.01.54-5.74,1.55-1.15.45-6.82,2.85-12.48,8.77-5.68,5.94-12.44,16.73-12.37,34.34-.02,3.39.3,6.79.94,10.11,4.12,21.25,21.84,38.29,45.16,43.41,6.87,1.51,12.25,1.82,15.51,1.82,1.83,0,2.99-.1,3.37-.14,14.69.02,24.93-3.59,30.52-10.75,6.25-7.98,4.24-17.37,4.01-18.32-3.41-17.9-13.71-20.2-44.63-22.65ZM102.8,96.7c-4.79,6.09-13.95,9.17-27.21,9.17h-.46c-.07.02-6.93.77-17.69-1.59-21.75-4.78-38.27-20.58-42.09-40.27-.59-3.06-.89-6.2-.87-9.35-.12-30.94,21.48-39.09,22.39-39.42l.37-.18c1.14-.7,2.46-1.06,3.82-1.06,1.97,0,3.85.78,5.16,2.13,1.17,1.21,1.79,2.76,1.74,4.37-.1,3.15-2.86,5.84-6.28,6.11-2.61.21-5.07-.92-6.46-2.94-.7-1.02-1.9-1.58-3.14-1.46-1.25.12-2.34.9-2.84,2.04-2.18,4.94-5,14.28.47,21.56,1,2.09,7.89,14.16,35.33,16.33,30.72,2.43,38.19,4.52,41.02,19.45l.02.11c.02.08,1.96,8.32-3.3,15Z"/>
  <path class="cls-1" d="M69.03,67.77c-11.37-1.09-30.41-2.9-40.56-15.13-1.84-2.22-3.22-5.27-3.88-6.89-.42-1.05-1.5-1.68-2.62-1.53-1.12.14-2,1.03-2.14,2.15-.73,5.67-2.16,25.13,9.93,37.75,12.34,12.88,30.43,18.99,45.01,18.99,4.04,0,7.81-.47,11.12-1.4,7.34-2.06,12.07-6.33,13.32-12.03.88-4,.17-7.63-2.12-10.78-4.26-5.86-14.23-9.81-28.07-11.13ZM95.32,88.82c-1.18,5.37-6.36,7.88-10.5,9.04-13.78,3.86-37.64-1.35-52.16-16.51-8.33-8.7-9.49-21.27-9.27-29.01.6.99,1.26,1.97,2,2.86,11.21,13.49,31.27,15.41,43.26,16.55,12.5,1.19,21.69,4.66,25.21,9.5,1.61,2.21,2.09,4.69,1.45,7.56Z"/>
  <path class="cls-1" d="M75.99,75.56c-3.38-.21-6.11-.27-8.52-.33-4.47-.11-8-.19-12.96-1.13-12.05-2.28-18.24-7.12-21.56-9.72-1.87-1.46-3.81-2.98-5.48-1.28-.44.44-.91,1.25-.7,2.59.75,4.6,11.46,18.16,24.17,24.6,4.95,2.51,15.3,5.2,24.11,5.2,5.95,0,11.21-1.23,13.63-4.56,1.22-1.68,1.82-5.01.25-8.34-1.13-2.4-4.32-6.49-12.96-7.02ZM85.45,88.57c-4.04,5.56-24.93,2.09-32.7-1.85-8.54-4.33-15.88-12.05-19.54-17.13,3.93,2.78,10.39,6.52,20.55,8.44,5.27,1,8.95,1.09,13.61,1.2,2.38.06,5.07.12,8.38.32,4.88.3,8.28,1.98,9.58,4.73.9,1.91.53,3.73.13,4.29Z"/>
  <path class="cls-1" d="M41.26,25.2c2.84,0,5.16-2.33,5.16-5.2s-2.31-5.2-5.16-5.2-5.16,2.33-5.16,5.2,2.31,5.2,5.16,5.2ZM41.26,18.79c.64,0,1.16.54,1.16,1.2s-.52,1.2-1.16,1.2-1.16-.54-1.16-1.2.52-1.2,1.16-1.2Z"/>
</svg>