<?xml version="1.0" encoding="UTF-8"?>
<svg id="Livello_3" data-name="Livello 3" xmlns="http://www.w3.org/2000/svg" viewBox="0 0 120 120">
  <defs>
    <style>
      .cls-1 {
        fill: #000;
        stroke-width: 0px;
      }
    </style>
  </defs>
  <path class="cls-1" d="M107.56,59.42l-3.78-2.56c-5.72-11.77-14.64-26.56-25.36-32.17l1.03-5.99c.45-2.63-1.17-5.11-3.7-5.64l-.85-.18c-2.42-.51-4.82.93-5.58,3.36l-1.96,6.21c-.67.07-1.34.17-2,.3-.99-4.17-3.84-11.71-7.06-12.63-1.38-.39-2.69.17-3.52,1.51l-.25.4-.04.47c-.18,1.89-.88,10.5.71,15.24-10.53,7.42-19.14,18.86-21.79,22.58-.06-.23-.12-.47-.17-.7l.69-18.72c.35-.33,1.11-.84,1.78-1.21,1.1-.24,2.01-.91,2.58-1.9,2.2-3.84-1.24-12.57-2.36-15.18-.67-1.49-2.14-2.46-3.73-2.46h-8.51c-.79,0-1.56.23-2.22.67l-9.57,6.33c-1.19.78-1.89,2.12-1.89,3.57v.55c0,1.36.64,2.65,1.72,3.44,1.04.77,2.34,1,3.57.62l3.19-.98c.33-.1.7-.27,1.13-.46.15-.07.36-.16.58-.25l.3,1.09h.01c-.15.46-.71,1.21-1.06,1.41l-5.98,3.36c-1.32.74-2.14,2.17-2.14,3.72v.94c0,1.43.7,2.76,1.86,3.55,1.11.75,2.52.9,3.76.4l4.03-1.63c.39-.16.79-.39,1.2-.65l-1.07,16.96v.13c0,.9.27,1.76.78,2.49l10.66,15.13c.77,1.09,2.02,1.75,3.33,1.75h7.62s.06,37.69.06,37.69h8.54v-37.69h.47l.06,37.69h8.54v-37.69h19.34s-4.73,37.69-4.73,37.69h8.57l4.9-37.69h.7l.06,37.69h8.54v-37.69h2.06l3.89,1.41c.45.16.92.24,1.38.24.81,0,1.61-.25,2.3-.74,1.13-.79,1.8-2.1,1.8-3.5v-6.43c0-1.68-.97-3.2-2.44-3.87ZM58.83,30.11l1.73-1.13-1.19-1.69c-1.15-1.63-1.32-7.22-1.08-11.82,1.49,2.56,3.45,7.52,3.45,9.67v2.85s2.62-.85,2.62-.85c1.39-.45,2.82-.71,4.31-.77h.23s1.44-.02,1.44-.02l2.81-8.91c.15-.46.54-.72.94-.65l.85.18c.4.08.67.57.59,1.05l-1.56,9.02,1.43.63c5.38,2.36,11.11,8.11,16.71,16.59-1.1,4.41-2.52,10.17-3.18,12.83l-37.19,1.38v-22.84c2.23-1.99,4.61-3.89,7.09-5.51ZM48.09,106h-.55l-.05-33.69h.6v33.69ZM57.16,106h-.55l-.05-33.69h.6v33.69ZM80.84,106h-.52l4.22-33.69h.68l-4.38,33.69ZM94.56,106h-.55l-.05-33.69h.6v33.69ZM106,69.72c0,.18-.1.24-.12.24l-3.89-1.41c-.44-.16-.9-.24-1.37-.24l-64.82-.05-10.66-15.13s-.05-.09-.05-.15l1.26-19.92v-.13c0-1.41-.88-2.02-1.26-2.22-1.46-.76-2.84.21-4.31,1.24-.42.3-1.06.74-1.32.85l-4.03,1.63s-.12-.07-.12-.24v-.94c0-.11.05-.21.1-.23l5.98-3.36c1.38-.78,2.69-2.56,3.04-4.14.24-1.07.03-1.87-.26-2.42l-.67-2.44-.21-.29c-1.34-1.87-3.73-.8-5.32-.1-.27.12-.51.23-.67.29l-3.19.98s-.12-.07-.12-.24v-.55c0-.12.05-.2.1-.23l9.59-6.33h8.51s.05.02.07.06c2.13,4.98,3.37,10.62,2.54,11.58l-.34.04-.31.16c-1.92.97-4.21,2.51-4.21,4.34l-.72,19.58.04.21c.37,2.14,1.25,4.77,3.33,5.22.73.15,2.13.14,3.38-1.7.71-1.05,5.27-7.6,11.76-14.2v23.18l44.35-1.64.36-1.46s1.32-5.35,2.6-10.52c1.77,3.02,3.53,6.29,5.24,9.83l.36.74,5.02,3.4.22.08s.11.1.11.24v6.43Z"/>
  <path class="cls-1" d="M55.95,44.44l-2.54,4.16,1.98.97c.44.21,1.16.76,1.3,1.24.02.08.09.29-.17.73-.99,1.71-1.89,1.78-1.9,1.78.09,0,.15.01.15.01l-.5,3.97c.05,0,.17.02.34.02.92,0,3.39-.35,5.37-3.76.95-1.63.81-3.04.53-3.94-.31-1.01-.94-1.8-1.57-2.39l.72-1.17c.95-1.54.55-2.78.22-3.39-1.19-2.23-4.92-2.62-6.48-2.68l-.16,4c.95.04,2.05.24,2.7.46Z"/>
  <path class="cls-1" d="M60.82,47.92l1.98.97c.44.21,1.16.76,1.3,1.24.02.08.09.29-.17.73-.99,1.71-1.89,1.78-1.9,1.78.1,0,.15.01.15.01l-.5,3.97c.05,0,.17.02.34.02.92,0,3.39-.35,5.37-3.76.95-1.63.81-3.04.53-3.94-.31-1.01-.94-1.8-1.57-2.39l.72-1.17c.95-1.54.55-2.78.22-3.39-1.19-2.23-4.92-2.62-6.48-2.68l-.16,4c.95.04,2.05.24,2.7.46l-2.54,4.16Z"/>
  <path class="cls-1" d="M72.68,47.58l1.98.97c.44.21,1.16.76,1.3,1.24.02.08.09.29-.17.73-.99,1.71-1.89,1.78-1.9,1.78.1,0,.15.01.15.01l-.5,3.97c.05,0,.17.02.34.02.92,0,3.39-.35,5.37-3.76.95-1.63.81-3.04.53-3.94-.31-1.01-.94-1.8-1.57-2.39l.72-1.17c.95-1.54.55-2.78.22-3.39-1.19-2.23-4.92-2.62-6.48-2.68l-.16,4c.95.04,2.05.24,2.7.46l-2.54,4.16Z"/>
  <path class="cls-1" d="M80.09,46.9l1.98.97c.44.21,1.16.76,1.3,1.24.02.08.09.29-.17.73-.99,1.71-1.89,1.78-1.9,1.78.1,0,.15.01.15.01l-.5,3.97c.05,0,.17.02.34.02.92,0,3.39-.35,5.37-3.77.95-1.63.81-3.04.53-3.94-.31-1.01-.94-1.8-1.57-2.39l.72-1.17c.95-1.54.55-2.78.22-3.39-1.19-2.23-4.92-2.62-6.48-2.68l-.16,4c.95.04,2.05.24,2.7.46l-2.54,4.16Z"/>
</svg>