<?xml version="1.0" encoding="UTF-8"?>
<svg id="Livello_3" data-name="Livello 3" xmlns="http://www.w3.org/2000/svg" viewBox="0 0 120 120">
  <defs>
    <style>
      .cls-1 {
        fill: #000;
        stroke-width: 0px;
      }
    </style>
  </defs>
  <path class="cls-1" d="M10,57.07l26.64,28.33h8.37l-.06,7.4c-1.06-.25-1.92-.56-2.74-.96-.74-.37-1.61-.33-2.31.1-.7.43-1.11,1.18-1.11,2v8.72c0,.82.41,1.56,1.11,1.99.7.44,1.56.48,2.31.11.71-.35,1.47-.63,2.35-.87-.24.8-.58,1.66-1.1,2.52-.44.73-.46,1.65-.04,2.39.42.74,1.2,1.2,2.05,1.2h8.73c.85,0,1.64-.46,2.05-1.2.42-.74.4-1.66-.04-2.39-.55-.9-.89-1.79-1.13-2.62,1.25.28,2.2.59,3.11,1.01.74.34,1.59.28,2.27-.16.68-.43,1.08-1.17,1.08-1.98v-8.76c0-.81-.41-1.55-1.08-1.98-.69-.44-1.54-.5-2.27-.15-1.2.55-2.42.87-3.38,1.07v-7.46h14.93l-.06,7.4c-1.06-.25-1.92-.56-2.74-.96-.74-.37-1.61-.33-2.31.1-.7.43-1.11,1.18-1.11,2v8.72c0,.82.41,1.56,1.11,1.99.7.44,1.56.48,2.31.11.71-.35,1.47-.63,2.35-.87-.24.8-.58,1.66-1.1,2.52-.44.73-.46,1.65-.04,2.39.42.74,1.2,1.2,2.05,1.2h8.73c.85,0,1.64-.46,2.05-1.2.42-.74.4-1.66-.04-2.39-.55-.9-.89-1.79-1.13-2.62,1.25.28,2.2.59,3.11,1.01.74.34,1.59.28,2.28-.16.68-.43,1.08-1.17,1.08-1.98v-8.76c0-.81-.41-1.55-1.09-1.98-.69-.44-1.54-.49-2.27-.15-1.2.55-2.42.87-3.38,1.07v-7.46h9.56l4.39-6.79.31-41.78h16.23v-12.19l-28.31-14.64-20.11,17.14.02,27.64h-5.84V19.65L10,57.07ZM51.44,96.41c.51.54,1.25.8,1.99.72.59-.07,1.19-.16,1.81-.27.67-.13,1.45-.31,2.29-.56v4.02c-.85-.25-1.63-.43-2.32-.57-.64-.12-1.31-.22-1.96-.29-.73-.09-1.44.17-1.96.69-.51.52-.76,1.24-.66,1.96.06.49.15.99.26,1.5.16.7.37,1.52.7,2.4h-3.52c.33-.89.54-1.71.71-2.43.13-.59.23-1.21.31-1.96l.28-2.49-2.49.28c-.67.08-1.23.16-1.78.26-.62.12-1.42.29-2.3.57v-3.88c.88.27,1.68.45,2.31.57.53.1,1.06.18,1.6.24l2.22.27.09-12.04h1.79v9.24c-.04.65.19,1.3.65,1.77ZM76.16,96.41c.51.53,1.25.8,1.99.72.59-.07,1.19-.16,1.81-.27.67-.13,1.45-.31,2.29-.56v4.02c-.85-.25-1.63-.43-2.32-.57-.64-.12-1.31-.22-1.96-.29-.73-.08-1.45.17-1.96.69-.51.52-.75,1.24-.66,1.96.06.49.15.99.26,1.5.16.7.38,1.52.7,2.4h-3.52c.33-.89.54-1.71.71-2.43.13-.59.23-1.21.31-1.96l.28-2.49-2.49.28c-.67.08-1.23.16-1.78.26-.62.12-1.42.29-2.3.57v-3.89c.88.28,1.68.45,2.31.57.53.1,1.06.18,1.6.24l2.22.27.09-12.04h1.79v9.24c-.04.65.19,1.3.65,1.77ZM65.6,58.78l-.02-29.79,16.66-14.2,23.76,12.29v5.75h-16.2l-.33,44.59-2.58,3.98h-48.53l-22.52-23.94,35.91-29.36v30.68h13.85Z"/>
  <path class="cls-1" d="M48.81,33.14l-28.76,23.85,18.48,20.35h47.4v-44.89l19.97-1.93-22.12-12.33-15.23,11.26v32.66h-9.24l-10.5-1.68v-27.3ZM72.55,66.12V31.47l11.54-8.53,8.67,4.83-10.82,1.04v44.52h-29.97l7.95-7.22h12.63ZM54.73,65.43l-8.71,7.9h-5.71l-14.48-15.94,18.98-15.74v22.19l9.91,1.59Z"/>
  <path class="cls-1" d="M27.81,57.67l8.36,9.12,7.78-3.92-.03-18.16-16.12,12.96ZM37.08,61.86l-3.43-3.75,6.3-5.06v7.36s-2.86,1.45-2.86,1.45Z"/>
</svg>