<?xml version="1.0" encoding="UTF-8"?>
<svg id="Livello_3" data-name="Livello 3" xmlns="http://www.w3.org/2000/svg" viewBox="0 0 120 120">
  <defs>
    <style>
      .cls-1 {
        fill: #000;
        stroke-width: 0px;
      }
    </style>
  </defs>
  <path class="cls-1" d="M66.75,110v-11.46c7.9-1.6,20.39-5.67,22.66-15.59l.49-2.13-2.56-.36c1.34-2.87,2.84-7.95,2.12-15.5l-.31-3.22-1.67,1.04c.08-3.22-.12-7.83-1.5-11.88l-1.18-3.44-.86,1.07c-.27-3.96-.79-9.09-1.72-11.72l-.89-2.5-2.16,1.54c-.19.13-.36.27-.53.42-.9-3.13-2.03-6.77-2.94-8.94-.75-1.77-1.78-2.53-3.09-2.27-.24.05-.46.13-.66.24l-2.65-9.59-2.9,5.43-6.32-11.16-6.32,11.16-2.9-5.43-2.65,9.59c-.2-.11-.42-.19-.66-.24-1.3-.26-2.35.5-3.09,2.27-.92,2.17-2.04,5.81-2.94,8.94-.17-.14-.34-.28-.53-.42l-2.16-1.54-.89,2.5c-.93,2.63-1.45,7.75-1.72,11.72l-.86-1.07-1.18,3.44c-1.39,4.04-1.58,8.66-1.5,11.88l-1.67-1.04-.31,3.22c-.73,7.56.78,12.63,2.12,15.5l-2.56.36.49,2.13c2.27,9.92,14.76,13.99,22.66,15.59v11.46h13.36ZM62.75,106h-5.36v-6.78c1.41.19,2.34.27,2.53.29h.15s.15,0,.15,0c.19-.01,1.12-.09,2.53-.29v6.78ZM35.37,84.15l4.53-.65-2.32-2.77s-3.11-3.81-3.07-12.08l2.97,1.85-.56-4.21c0-.06-.66-5.18.13-10.3l2.72,3.4.17-5.43c.07-2.29.34-7.45.88-11.47l2.94.66c.02-.07,1.4-5.36,2.81-9.81l3.43.47,2.04-7.37,1.61,3.01,6.43-11.35,6.43,11.35,1.61-3.01,2.04,7.37,3.43-.47c1.41,4.46,2.79,9.74,2.81,9.81l2.94-.66c.54,4.02.81,9.18.88,11.47l.17,5.43,2.72-3.4c.79,5.13.14,10.24.13,10.3l-.56,4.21,2.97-1.85c.03,8.27-3.04,12.04-3.06,12.07l-2.43,2.79,4.63.64c-4.49,9.23-22.82,11.17-24.7,11.35-1.88-.17-20.21-2.12-24.7-11.35Z"/>
</svg>