<?xml version="1.0" encoding="UTF-8"?>
<svg id="Livello_3" data-name="Livello 3" xmlns="http://www.w3.org/2000/svg" viewBox="0 0 120 120">
  <defs>
    <style>
      .cls-1 {
        fill: #000;
        stroke-width: 0px;
      }
    </style>
  </defs>
  <path class="cls-1" d="M12.98,110l6.91-32.4c2.88.17,6.02-.17,8.24-.98.45.29,1.15.9,1.48,1.2.26.23.49.43.67.57,3.44,2.71,12.56,8.89,14.75,10.36l3.94,9.03-4.88.56-11.31-4.81.73-1.49c.84-1.57,1.18-1.55,1.54-1.54.09,0,.23.05.3.1-.02.16-.18.53-.63.88l2.46,3.16c1.94-1.51,2.69-3.86,1.82-5.73-.73-1.58-2.42-2.34-3.77-2.41-.03,0-.05,0-.08,0l.13-.76c.15-.85-.13-1.71-.75-2.3-.62-.6-1.5-.86-2.35-.68l-10.25,2.12s0,0,0,0c-.86.18-1.57.77-1.89,1.59-.32.81-.22,1.73.29,2.44l.37.53c-1.17.55-2.33,1.73-2.51,3.31-.23,2.03,1.22,4.04,3.53,4.87l1.36-3.76c-.55-.2-.81-.5-.89-.65.06-.06.16-.14.24-.17.49-.18,1.03-.13,3.81,2-.12.1-.24.21-.36.31-1.68,1.4-2.7,2.58-2.7,7.08v.23l.87,3.8c.19,1.72,1.6,3.03,3.31,3.03h.26l3.11-.82,16.66.77c.46.33.84.4,1.26.4h55.09l.32-1.61c.44-2.23,4.33-21.85,4.21-25.23-.38-10.54-8.9-21.06-10.49-22.94l-1.21-3.94c4.81-.88,9.73-5.01,10.91-9.68.63-2.49.94-8.43-8.15-12.92l8.6-9.84c.96-1.1,1.33-2.53,1.03-3.92-.31-1.44-1.29-2.63-2.68-3.27-4.83-2.2-14.81-5.97-27.44-6.46-1.26-.04-2.5.42-3.39,1.28-.85.82-1.32,1.9-1.32,3.06v10.5c-2.76.39-5.08,1.52-6.04,3.3-.58,1.08-1.36,3.73,2.59,6.48l-1.39,5.15.9,2.32-4.28,8.25-.05.33c-.04.3-.2,1.85.9,2.96.41.41,1.32,1.07,2.8.89.1,1.1.15,2.91-.16,5.07-.29,2-.99,5.92-1.6,9.38-.93,5.23-1.17,6.62-1.17,7.09,0,.11-.02.22-.04.31-.08.48-.23,1.47.46,2.38.61.8,1.54,1.08,2.44,1.22-.53,1.66-.99,3.34-1.38,5.01l-25.16-13.55c-.9-.48-1.97-.44-2.83.08l-3.26-1.66c-1.42-2.2-5.87-8.68-9.44-9.73-.96-.28-2.35-.43-3.88-.48l4.16-21.22-3.92-.77-4.31,22c-3,.1-5.7.35-6.24.4l-.37.07c-.63.19-2.72.94-2.93,2.91-.12,1.09.38,2.06,1.48,2.92,0,2.85.22,7.64,1.72,9.44.57.68,1.57,1.19,2.8,1.56l-6.86,32.21,3.91.83ZM30.99,87.08l-.27,1.56-.73,1.49c-.27.5-.52,1.03-.77,1.58l-.2.41-3.41-2.66-.77-1.1,6.15-1.27ZM30.3,104.62l-2.42.64-.7-3.08c.02-2.74.37-3.03,1.26-3.78.37-.31.83-.69,1.33-1.21.24-.25.66-.32,1.03-.16l11.55,4.92c.29.68.84,1.71,1.85,3.32l-13.9-.64ZM100.46,105.81h-51.04c-.63-.79-1.71-2.43-2.51-3.78l34.11-3.94c2.75-.32,5.06-2.21,5.87-4.83l5.05-16.18-3.82-1.19-5.05,16.19c-.34,1.11-1.33,1.91-2.51,2.05l-10.22,1.18c1.22-10.15,3.72-18.24,6.94-22.41.92-1.24,1.97-2.64,3.09-4.09,7.34-4.45,12.87-5.39,14.84-5.58,2.16,2.69,8.76,11.53,9.06,19.9.07,2.06-2.18,14.38-3.82,22.7ZM92.62,56.83l.79,2.58c-1.56.25-3.75.75-6.42,1.73,1.9-1.89,3.82-3.44,5.63-4.31ZM78.23,14.16c.05-.05.2-.18.47-.16,11.94.46,21.37,4.02,25.93,6.1.23.11.39.28.43.47.03.16-.01.31-.14.45l-9.47,10.83c-1.56-.6-2.53-.95-3.22-1.19q-1.57-.56-4.8-2.26c-.98-.51-2.24-1.17-3.9-2.04-1.66-.86-3.53-1.37-5.4-1.58v-10.45c0-.07.05-.14.09-.18ZM74.58,42.33l-1.08-2.78,1.46-5.38c7.3-.77,11.57,2.94,13.04,11.3.49,2.77-3.86,6.8-10.34,9.76-.26-.37-.58-.74-.95-1.11-1.44-1.42-4.19-3.19-6.41-3.53l4.29-8.26ZM73.89,70.75c-.99,1.34-2.13,2.87-3.03,3.98.22-1.31.57-3.26.89-5.06.62-3.49,1.32-7.44,1.62-9.5.18-1.27.26-2.43.27-3.45.44.38.77.76.89,1.05l-.39,3.22,3.13-1.25c7.45-2.98,15.76-8.68,14.66-14.96-1.93-10.98-8.64-16.08-18.89-14.38l-1.03.17c-.27-.27-.38-.46-.4-.52.03-.09.36-.48,1.33-.84,2.15-.79,5.84-.8,8.74.71,1.66.87,2.92,1.52,3.89,2.04,3.41,1.79,3.48,1.82,5.3,2.48.84.3,2.11.76,4.43,1.66,3.62,1.41,9.52,4.5,8.3,9.35-1,3.98-6.18,7.2-9.45,6.81l-.34-.04-.34.08c-6.94,1.56-14.06,11.02-19.33,18.12h0s0,0,0,0c-.09.12-.17.23-.26.35ZM67.25,89.08c-.47,2.55-.78,4.88-.99,6.7l-13.14,1.52-9.06-20.71,23.19,12.49ZM15.42,64.93l.03-1.05c3.81-.29,9-.46,10.85.09,1.62.48,5.14,4.78,7.48,8.49l.29.47,5.22,2.66,2.73,6.26c-3.36-2.31-7.33-5.08-9.27-6.61-.13-.1-.3-.25-.5-.43-1.46-1.29-3.29-2.9-5.17-2.08-3.57,1.54-9.7.87-10.91.06-.49-.87-.84-4.48-.76-7.86Z"/>
  <polygon class="cls-1" points="79.04 43.47 81.77 44.6 83.29 40.9 78.82 39.06 75.2 40.98 77.07 44.52 79.04 43.47"/>
</svg>