<?xml version="1.0" encoding="UTF-8"?>
<svg id="Livello_3" data-name="Livello 3" xmlns="http://www.w3.org/2000/svg" viewBox="0 0 120 120">
  <defs>
    <style>
      .cls-1 {
        fill: #000;
        stroke-width: 0px;
      }
    </style>
  </defs>
  <path class="cls-1" d="M109.07,26.05l-21.79-16.05-11.31,17.27v17.65l-2.33,4.41H22.2s0-8.12,0-8.12h11.25v-13.92l-23.45.1v50.29h.11v32.33h12.16v-4h-8.16v-28.33h23.55v28.33h-8.16v4h12.16v-32.33h31.59v28.33h-8.16v4h12.16v-32.33h16.76v28.33h-8.16v4h12.16V30.2h9.7c.99,0,1.87-.63,2.18-1.58.31-.95-.02-1.98-.82-2.57ZM94.01,26.2v47.47H14V31.36l15.45-.07v5.91h-11.25v16.2l2.06-.06,55.79-.02,3.92-7.42v-17.45l8.34-12.73,14.21,10.47h-8.51Z"/>
  <path class="cls-1" d="M18.53,68.19h69.31v-10.42H18.53v10.42ZM22.53,61.77h61.31v2.42H22.53v-2.42Z"/>
</svg>