<?xml version="1.0" encoding="UTF-8"?>
<svg id="Livello_3" data-name="Livello 3" xmlns="http://www.w3.org/2000/svg" viewBox="0 0 120 120">
  <defs>
    <style>
      .cls-1 {
        fill: #000;
        stroke-width: 0px;
      }
    </style>
  </defs>
  <path class="cls-1" d="M109.54,23.96c.58-.97.61-2.19.08-3.19l-5.75-10.77h-8.92c-2.96,0-5.67,1.77-7.07,4.62l-26.98,54.77-14.2-.11-7.52-10.8,9.1-14.69,5.56,2.62,2.14,4.26-2.1,1.39,2.21,3.33,5.06-3.35-4.36-8.66-10.04-4.74-18.88,30.49-3.09-.02-10.02-13.12,6.96-12.78h2.59l4.27,3.87-3.14,2.77,2.65,3,6.5-5.73-8.73-7.91h-6.51l-9.34,17.15,9.71,12.71-9.33-.07v23.72h5.51l-5.38,15.99,3.79,1.28,5.81-17.27h2.05l-5.38,15.99,3.79,1.28,5.81-17.27h2.51l-5.38,15.99,3.79,1.28,5.81-17.27h2.05l-5.38,15.99,3.79,1.28,5.81-17.27h3.4l-5.38,15.99,3.79,1.28,5.81-17.27h2.05l-5.38,15.99,3.79,1.28,5.81-17.27h2.51l-5.38,15.99,3.79,1.28,5.81-17.27h2.05l-5.38,15.99,3.79,1.28,6.23-18.52,31.14-66.05h9.14c1.05,0,2.01-.55,2.57-1.48ZM36.88,62.19l4.92,7.06-9.25-.07,4.33-6.99ZM14.38,80h41.54v1.89H14.38v-1.89ZM95.3,21.44l-31.73,67.3H14.38v-2.85h45.54v-9.89H14.38v-2.95l49,.36,28.08-57.02c.73-1.48,2.06-2.39,3.48-2.39h6.52l3.97,7.44h-10.14Z"/>
</svg>