<?xml version="1.0" encoding="UTF-8"?>
<svg id="Livello_3" data-name="Livello 3" xmlns="http://www.w3.org/2000/svg" viewBox="0 0 120 120">
  <defs>
    <style>
      .cls-1 {
        fill: #000;
        stroke-width: 0px;
      }
    </style>
  </defs>
  <path class="cls-1" d="M9.13,25.63c.34,1.03,1.3,1.73,2.38,1.74l10.23.05v63.66c0,.71.3,1.4.82,1.87l18.71,17.12c.45.41,1.04.65,1.66.65h66.02l.04-28.14h-14.64l13.6-19.65c.48-.69.53-1.58.14-2.32-.39-.74-1.15-1.2-1.98-1.2h-6.97c-.72,0-1.4.35-1.81.93l-15.97,22.23h-5.56l13.6-19.65c.48-.69.53-1.58.14-2.32-.39-.74-1.15-1.2-1.98-1.2h-6.97c-.71,0-1.39.35-1.81.93l-15.97,22.23h-5.61l13.6-19.65c.48-.69.53-1.58.14-2.32-.39-.74-1.15-1.2-1.98-1.2h-6.97c-.72,0-1.4.35-1.81.93l-15.97,22.23h-4.25l-.08-57.4c0-.74-.17-1.32-.52-1.76l-11.35-12.01-.49-.58-.83-.09c-1.04-.12-1.82.53-2.34.96l-14.29,11.12c-.88.65-1.23,1.79-.89,2.83ZM100.05,63.41h2.7l-13.26,19.16h-3.21l13.77-19.16ZM81.5,63.41h2.7l-13.26,19.16h-3.21l13.77-19.16ZM62.89,63.41h2.7l-13.26,19.16h-3.21l13.77-19.16ZM26.17,15.3l9.68,10.23.08,58.41c0,1.44,1.17,2.62,2.6,2.62h66.45l-.03,20.14h-61.43l-17.8-16.28V25.95c0-1.39-1.11-2.52-2.48-2.53l-7.48-.03,10.39-8.08Z"/>
  <rect class="cls-1" x="24.19" y="18.18" width="1.99" height="4"/>
</svg>