<?xml version="1.0" encoding="UTF-8"?>
<svg id="Livello_3" data-name="Livello 3" xmlns="http://www.w3.org/2000/svg" viewBox="0 0 120 120">
  <defs>
    <style>
      .cls-1 {
        fill: #000;
        stroke-width: 0px;
      }
    </style>
  </defs>
  <path class="cls-1" d="M101.74,58.5l8.26-8.21-5.64-5.61.03-.03-11.41-11.57h-15.91v6.56h-8.63v4.35h-2.72v-12.47l8.6-7.42,8.48,4.65,5.65-10.17-15.62-8.58-12.94,11.17-12.94-11.17-15.62,8.58,5.65,10.17,8.48-4.65,8.6,7.42v12.47h-2.72v-4.35h-8.63v-6.56h-15.91l-11.41,11.57.26.28-5.63,5.6,8.26,8.21,5.33-5.3,1.82,1.95-5.4,5.37,8.26,8.21,5.1-5.07,2.36,2.52-5.04,5.01,8.27,8.21,4.74-4.71,1.21,1.29-5.13,5.1,8.26,8.21,4.83-4.8,1,1.07v4.74l-5.33-.14,10.72,19.6,11.72-19.03-5.43-.14v-4.7l1.55-1.66,4.84,4.81,8.27-8.21-5.14-5.11,1.21-1.29,4.75,4.72,8.27-8.21-5.05-5.02,2.36-2.52,5.12,5.08,8.26-8.21-5.42-5.38,1.82-1.95,5.34,5.31ZM88.99,55.24l5.31,5.28-2.59,2.57-5.22-5.19-7.83,8.37,4.95,4.92-2.59,2.57-4.85-4.83-6.68,7.13,5.04,5.01-2.59,2.57-4.94-4.91-5.44,5.82v10.18l2.38.06-4.46,7.25-4.08-7.46,2.49.06v-10.43l-4.9-5.23-4.93,4.9-2.59-2.57,5.02-4.99-6.67-7.13-4.84,4.81-2.59-2.57,4.94-4.91-7.83-8.37-5.21,5.17-2.59-2.57,5.3-5.27-7.29-7.79-5.44,5.4-2.59-2.57,5.53-5.49-.29-.31,7.54-7.65h10.23v6.56h8.63v4.35h10.72v-18.3l-12.09-10.43-7.42,4.07-1.77-3.18,9.66-5.3,13.45,11.6,13.45-11.6,9.66,5.3-1.77,3.18-7.42-4.07-12.09,10.43v18.3h10.72v-4.35h8.63v-6.56h10.23l7.54,7.64-.06.06,5.54,5.51-2.59,2.57-5.45-5.42-7.29,7.79Z"/>
  <path class="cls-1" d="M60,49.56c-4.7,0-7.16,7.35-7.16,14.6s2.46,14.6,7.16,14.6,7.16-7.35,7.16-14.6-2.46-14.6-7.16-14.6ZM60,74.77c-.81,0-3.16-3.65-3.16-10.6s2.35-10.6,3.16-10.6,3.16,3.65,3.16,10.6-2.35,10.6-3.16,10.6Z"/>
</svg>