<?xml version="1.0" encoding="UTF-8"?>
<svg id="Livello_3" data-name="Livello 3" xmlns="http://www.w3.org/2000/svg" viewBox="0 0 120 120">
  <defs>
    <style>
      .cls-1 {
        fill: #000;
        stroke-width: 0px;
      }
    </style>
  </defs>
  <path class="cls-1" d="M107.02,54.64l.14.04c1.11.26,2.23-.3,2.67-1.34.43-1.02.05-2.19-.89-2.78l-14.17-8.9-17.53,11.46-16.45-10.53v-18.02c1.2-.06,2.26-.71,2.86-1.76.64-1.1.64-2.42,0-3.53l-4.33-7.51c-.64-1.1-1.78-1.76-3.06-1.76s-2.42.66-3.05,1.76l-4.34,7.51c-.64,1.1-.64,2.42,0,3.53.61,1.05,1.67,1.7,2.86,1.76v.22c-29.03,3.1-30.41,18.98-30.47,20.33-.51,6.4,1.49,9.78,4.98,13.79l-16.23,10.38,39.08,25.01h-6.96v15.71h28.25v-15.71h-6.96l39.08-25.01-17.03-10.9,9.96-7.41,11.58,3.66ZM66.38,98.29v7.71h-20.25v-7.71h9.21l.56.36.35-.22.35.22.56-.36h9.21ZM94.69,46.55l-16.25,12.08,16.64,10.65-38.52,24.64-.31-.19-.31.19-38.52-24.64,14.94-9.56-1.6-1.75c-4.06-4.45-5.99-6.85-5.52-12.67.02-.46.63-9.31,14.89-14.07-.05.03-.1.05-.16.08-8,4.27-11.98,10.33-11.53,17.51.19,3.04,1.89,6,4.92,8.58l1.13.96,21.23-13.58v-24.21h-2.99l3.52-6.09,3.52,6.09h-2.99v24.21l20.48,13.1,17.55-11.47.58.37-.7-.22ZM51.73,31.22v11.36l-16.83,10.77c-1.52-1.57-2.35-3.18-2.45-4.79-.77-12.04,15.52-16.48,19.28-17.34Z"/>
  <path class="cls-1" d="M56.25,49.69l-.24-.15-31.72,20.3,31.72,20.3.24-.15.24.15,31.72-20.3-31.72-20.3-.24.15ZM56.46,85.41l-.21-.13-.21.13-24.33-15.57,24.33-15.57.21.13.21-.13,24.33,15.57-24.33,15.57Z"/>
  <path class="cls-1" d="M56.27,58.59l-.13-.08-17.7,11.33,17.7,11.33.13-.08.13.08,17.7-11.33-17.7-11.33-.13.08ZM56.37,76.44l-.09-.06-.09.06-10.32-6.6,10.32-6.6.09.06.09-.06,10.32,6.6-10.32,6.6Z"/>
</svg>