<?xml version="1.0" encoding="UTF-8"?>
<svg id="Livello_3" data-name="Livello 3" xmlns="http://www.w3.org/2000/svg" viewBox="0 0 120 120">
  <defs>
    <style>
      .cls-1 {
        fill: #000;
        stroke-width: 0px;
      }
    </style>
  </defs>
  <path class="cls-1" d="M10,73.57l.83,2.61c.06.17,1.41,4.3,5.36,8.47,3.62,3.82,10.22,8.45,21.09,8.76l.12-4c-13.28-.38-19.26-7.78-21.55-11.85h32.16c.24,2.25.46,4.65.63,7.1-5.6,3.13-9.36,8.43-10.61,14.83-18.96-.45-24.11-10.08-24.33-10.5l-3.58,1.78c.25.51,6.2,12.09,27.48,12.71,0,.28-.03.55-.03.84,0,1.35.12,2.71.36,4.03l.3,1.64h45.05s.3-1.64.3-1.64c.24-1.32.36-2.68.36-4.03,0-.28-.02-.56-.03-.84,19.22-.65,25.12-12.21,25.36-12.71l-3.59-1.76c-.05.1-5.11,10.01-22.26,10.49-1.39-6.42-5.52-11.94-11.5-15.17l-.28-1.79,3.05-4.97h29.9c-1.9,4.02-7.24,11.54-20.75,11.84l.09,4c21.25-.48,25.43-17.22,25.47-17.39l.58-2.46h-32.85l2.05-3.35,5.83-.41c2.88,2.97,6.23,3.38,8.89,3.38,6.58,0,11.93-4.96,11.93-11.07s-5.35-11.07-11.93-11.07c-4.76,0-9.81,3.22-10.76,8.16-2.13.54-4.12,1.55-5.37,2.27l.52-1.99,11.1-8.62v-1.09c.62-.1,1.18-.14,1.45-.08.59.13,2.16.46,8.25-3.75l.2-.14.16-.19c2.36-2.69,2.27-3.91,2.24-4.32-.04-.63-.33-1.2-.79-1.6-1.33-1.14-2.98-1.48-5.37-1.1-.7.11-1.12.32-1.49.5-.13.06-.27.13-.46.21-.12-.11-.25-.21-.39-.3-.65-.39-1.43-.84-3.81,1.16v-1.79l-22.29,14.55-1.16-2.78h3.07c.88,0,1.7-.43,2.2-1.14.48-.69.58-1.57.29-2.35l-4.49-11.88,2.28-.7.25-1.15c.26-1.2-.56-2.04-1.39-2.77l-2.82-2.58-.62-1.56c.09-.2.16-.42.21-.64.24-1.12-.02-2.74-2.32-4.37l-.77-8.94c-.09-1.18-.87-1.69-1.2-1.85-1.21-.59-2.34.15-2.96.56l-1.95,1.42-2.81-.85c-.85-.26-1.79.04-2.33.76l-1.04,1.4-2.77-.82c-.93-.27-1.92.11-2.42.94l-.96,1.59-1.23-.34c-.63-.17-2.1-.57-2.97.67l-.77,1.11,5.75,9.09.03.08c.03.09.08.2.12.32-.27,1.39-.83,2.97-1.32,3.34-3.65,2.77-4.04,6.02-3.19,8.13.95,2.35,3.37,3.71,6.48,3.71.43,0,.88-.03,1.34-.08.35-.04.67-.1.99-.17v1.41c-.74.1-1.47.28-2.18.58-3.08,1.31-4.95,4.15-4.88,7.43v.18c.09,2.74,2.32,8.39,4.65,13.59.16.95.73,4.51,1.31,9.3H10ZM91.55,43.65c.92.31,1.98-.04,2.42-.19.99-.33,1.52-.59,1.87-.76q.25-.13.36-.14c.27-.04.5-.07.7-.08-.09.11-.18.22-.27.33-2.08,1.42-4.39,2.73-5.18,2.94-.29-.04-.61-.06-.93-.06-.35,0-.72.02-1.07.06.82-.88,1.53-1.57,2.1-2.08ZM41.58,104.32c0-6.41,2.64-11.76,7.33-15.1.27,6.44.07,12.68-1.14,16.77h-6.12c-.05-.56-.08-1.12-.08-1.68ZM79.95,104.32c0,.56-.03,1.12-.08,1.68h-4.58l-2.54-16.39c4.51,3.53,7.19,8.87,7.19,14.71ZM71.25,106h-19.35c1.82-7.72,1.04-20.23.01-29.72l9.2,23.46,7.31-11.93,2.82,18.19ZM86.35,62.84c.17.36.41,1.24.47,2.84-.44-.06-.89-.03-1.32.08l-5.64.39-.1-1.19c1.85-1.06,4.76-2.37,6.59-2.13ZM93.93,55.06c4.37,0,7.93,3.17,7.93,7.07s-3.56,7.07-7.93,7.07c-1.29,0-2.46-.12-3.53-.51.26-.43.42-.91.43-1.42.12-4.37-.71-6.99-2.52-7.99l-.4-.17c-.17-.05-.35-.09-.52-.12,1.09-2.54,4.23-3.92,6.54-3.92ZM85.42,45.78v3.13l-10.62,8.26-1.18,4.52c-1.5.06-3.03.22-4.54.39-2.85.31-6.39.7-7.46-.2-.09-.08-.34-.28-.39-1.02-.47-7.3-2.39-12.69-5.7-16.03-.83-.84-1.81-1.46-2.87-1.86v-2.26c2.41,1.1,4.97,3.01,7.02,4.79l5.62,13.42,20.12-13.13ZM61.15,28.49c.08-.01.17-.04.25-.05l.58,1.47,1.83,1.67c-1.03.36-2.07.87-2.64,1.56-.72.88-2.73,1.76-4.57,1.69-1.02-.05-1.83-.39-2.43-.99.03-.49.04-.94.04-1.31,0-.37.01-.84.04-1.11.77-.71,3.85-2.02,6.89-2.92ZM66.13,46.15c-1.35-1.47-4.8-4.85-8.7-7.36,2.2-.14,4.46-1,5.99-2.28l3.64,9.64h-.93ZM46.13,18.51l.94-1.57,2.64.78c.85.24,1.78-.07,2.3-.77l1.04-1.39,2.83.86,1.09-.14,1.18-.86.45,5.22-11.05,2.9-2.6-4.11c.49-.15.91-.48,1.18-.93ZM45.95,23.96s.01,0,.02,0h-.02s0,0,0,0ZM47.21,37.28c-2.1.25-3.34-.4-3.65-1.15-.31-.76.16-2.13,1.9-3.45,1.56-1.18,2.34-3.59,2.7-5.16l12.23-3.21c.1.08.19.14.27.21-.05.01-.1.02-.15.03l-.34.07c-5.87,1.71-9.14,3.57-9.72,5.51-.21.69-.22,1.47-.23,2.36-.04,3.1-.34,4.49-3.01,4.8ZM45.6,50.42c-.04-1.63.88-3,2.44-3.66.51-.21,1.11-.35,1.74-.35.98,0,2.02.33,2.91,1.23,2.61,2.64,4.14,7.17,4.55,13.48.1,1.62.71,2.91,1.81,3.83,2.38,2,6.31,1.57,10.47,1.11,2.18-.24,4.41-.48,6.29-.35l.18,2.12-14.09,22.98-6.79-17.31-.08-.18c-3.58-6.97-9.31-19.31-9.42-22.76v-.12Z"/>
</svg>