<?xml version="1.0" encoding="UTF-8"?>
<svg id="Livello_3" data-name="Livello 3" xmlns="http://www.w3.org/2000/svg" viewBox="0 0 120 120">
  <defs>
    <style>
      .cls-1 {
        fill: #000;
        stroke-width: 0px;
      }
    </style>
  </defs>
  <rect class="cls-1" x="10" y="106" width="100" height="4"/>
  <rect class="cls-1" x="16.8" y="100.34" width="86.4" height="4"/>
  <path class="cls-1" d="M29.03,34.39h-2.26v64.47h66.46V34.39h-2.26v-8.67h-1.51c.05-.27.08-.54.08-.82,0-2.5-2.04-4.53-4.54-4.53s-4.54,2.03-4.54,4.53c0,.28.03.55.08.82h-1.51v8.67h-3.1c-.48-3.63-2.26-6.64-5.15-8.61l-1.61-1.27c-3.48-2.74-5.48-6.74-5.48-10.96,0-1.96-1.65-3.55-3.67-3.55h-.83c-2.02,0-3.67,1.59-3.67,3.55,0,4.22-2,8.22-5.48,10.96l-1.67,1.32c-2.18,1.69-3.58,4.21-3.86,6.93l-.17,1.63h-3.38v-8.67h-1.51c.05-.27.08-.54.08-.82,0-2.5-2.04-4.53-4.54-4.53s-4.54,2.03-4.54,4.53c0,.28.03.55.08.82h-1.51v8.67ZM85,24.36c.3,0,.54.24.54.53s-.24.53-.54.53-.54-.24-.54-.53.24-.53.54-.53ZM35,24.36c.3,0,.54.24.54.53s-.24.53-.54.53-.54-.24-.54-.53.24-.53.54-.53ZM71.85,94.85h-3.07v-16.72h-3.21c.45-.88.71-1.87.71-2.93,0-3.54-2.89-6.43-6.44-6.43s-6.44,2.88-6.44,6.43c0,1.05.26,2.05.71,2.93h-3.21v16.72h-2.76v-25.86c0-4.33,3.53-7.84,7.86-7.84h7.11c4.81,0,8.73,3.91,8.73,8.71v24.99ZM57.41,75.21c0-1.34,1.09-2.43,2.44-2.43s2.44,1.09,2.44,2.43-1.09,2.43-2.44,2.43-2.44-1.09-2.44-2.43ZM64.78,82.14v12.72h-9.88v-12.72h9.88ZM89.23,94.85h-13.38v-24.99c0-7.01-5.71-12.71-12.73-12.71h-7.11c-6.54,0-11.86,5.31-11.86,11.84v25.86h-13.38v-56.47h58.46v56.47ZM59.46,30.99h1.54v3.4h-1.52l-.03-3.4ZM83.03,29.72h3.94v4.67h-3.94v-4.67ZM48.49,33.17c.17-1.63,1.02-3.16,2.36-4.2l1.67-1.32c4.33-3.41,6.86-8.37,7-13.65h.18c.13,5.29,2.67,10.25,7,13.65l1.67,1.32.13.09c1.11.74,2.82,2.36,3.38,5.32h-6.87v-3.82c0-1.97-1.61-3.58-3.58-3.58h-1.96c-2.18,0-3.96,1.77-3.96,3.95v3.44h-7.13l.13-1.22ZM33.03,34.39v-4.67h3.94v4.67h-3.94Z"/>
</svg>