<?xml version="1.0" encoding="UTF-8"?>
<svg id="Livello_3" data-name="Livello 3" xmlns="http://www.w3.org/2000/svg" viewBox="0 0 120 120">
  <defs>
    <style>
      .cls-1 {
        fill: #000;
        stroke-width: 0px;
      }
    </style>
  </defs>
  <path class="cls-1" d="M41.25,101.57c.99-2.47.53-4.88-1.24-6.59-2.15-2.08-5.87-2.66-8.84-1.36-3.04,1.33-4.73,4.26-4.65,8.04.08,3.53,1.31,6,3.64,7.33,1.18.67,2.6,1.01,4.25,1.01,3.68,0,8.52-1.67,14.45-5.01,2.35-1.32,4.32-1.7,5.86-1.12,2.02.75,2.84,3,2.85,3.02l2.15-.74,1.59.46s.67-2.05,2.42-2.77c1.82-.74,4.17.21,5.82,1.14,5.93,3.33,10.77,5.01,14.45,5.01,1.65,0,3.07-.34,4.25-1.01,2.33-1.33,3.56-3.8,3.64-7.33.09-3.78-1.61-6.71-4.65-8.04-2.97-1.3-6.68-.73-8.84,1.36-1.78,1.72-2.23,4.12-1.24,6.6l3.72-1.48c-.5-1.26-.06-1.88.31-2.24.99-.96,2.99-1.21,4.45-.57,1.52.67,2.3,2.15,2.25,4.29-.07,3.06-1.24,3.73-1.62,3.95-2.37,1.35-7.89-.15-14.77-4.01-2.63-1.48-5.04-2.1-7.2-1.88.07-.33.12-.66.12-1.01v-13.76c0-1.88-1.16-3.5-2.8-4.18,1.64-.68,2.8-2.29,2.8-4.18v-13.76c0-2.49-2.03-4.52-4.52-4.52h-.91c-2.49,0-4.52,2.03-4.52,4.52v13.76c0,1.88,1.16,3.5,2.8,4.18-1.64.68-2.8,2.29-2.8,4.18v13.76c0,.39.07.76.16,1.12-2.33-.4-4.92.18-7.73,1.76-6.87,3.86-12.39,5.36-14.77,4.01-.38-.22-1.55-.88-1.62-3.95-.05-2.14.73-3.62,2.25-4.29,1.47-.64,3.47-.39,4.46.57.37.36.81.98.31,2.24l3.72,1.48ZM60.44,98.63c0,.29-.23.52-.52.52h-.91c-.29,0-.52-.23-.52-.52v-13.76c0-.29.23-.52.52-.52h.91c.29,0,.52.23.52.52v13.76ZM58.48,62.76c0-.29.23-.52.52-.52h.91c.29,0,.52.23.52.52v13.76c0,.29-.23.52-.52.52h-.91c-.29,0-.52-.23-.52-.52v-13.76Z"/>
  <path class="cls-1" d="M59.35,9.99l-1.56,1.57c-.11.11-2.66,2.71-3.4,6.42-.65,3.28,1.66,6.46,2.82,7.81v5.06c-1.22.78-2.14,2.27-2.77,4.54-2-1.57-4.54-2.5-6.97-.9-1.2.79-1.77,2.21-1.73,4.39-.25-.07-.5-.13-.76-.16-2.25-.29-4.35.93-5.62,3.28-.8,1.49-.56,3.39.26,5.43-2.16.08-4.63.59-5.77,2.35-.66,1.03-1.1,2.81.56,5.42,2.61,4.09,7.61,4.49,11.26,4.78,1.33.11,3.82.31,4.17.82l3.92-.78c-.1-.48-.26-.9-.46-1.26l1.83-.84,2.71-.27c-1.3-13.25,0-22.53,1.49-23.41,1.59,1.64,1.96,12.38.77,23.39l3.98.43c.01-.1.02-.21.03-.32l1,.46c-.21.37-.37.78-.46,1.26l3.93.74c.33-.47,2.82-.67,4.15-.77,3.65-.29,8.66-.7,11.26-4.78,1.67-2.62,1.23-4.39.56-5.42-1.11-1.72-3.47-2.25-5.59-2.34.87-2.19,1.03-4.2-.08-5.69-1.64-2.19-3.84-3.18-6.03-2.72-.07.01-.13.05-.19.06.09-2.31-.49-3.78-1.72-4.6-2.43-1.6-5.02-.58-7.09,1.11-.43-1.63-1.02-2.95-1.83-3.74-.25-.25-.53-.44-.82-.61v-4.99c.86-1.15,2.59-3.72,2.89-6.08.4-3.18-2.71-7.15-3.34-7.91l-1.4-1.7ZM58.32,18.75c.17-.86.5-1.65.86-2.31.61,1.07,1.03,2.11.96,2.67-.09.71-.5,1.62-1.01,2.49-.56-.95-.98-2.01-.81-2.85ZM49.8,37.74c1.07-.48,2.89,1.3,3.81,2.45-.15,1.51-.23,3.19-.27,5.07-.04,2.3.01,4.56.1,6.54-.74-1.88-1.4-3.69-1.95-5.36-.18-.74-.4-1.44-.65-2.09-.96-3.25-1.39-5.71-1.05-6.6ZM42.88,43.88c.27-.49.82-1.3,1.57-1.21.79.1,1.83,1.08,2.59,2.96.3.99.64,2.05,1.03,3.19.98,2.81,2.06,5.5,2.89,7.45-5.4-5.66-8.74-11.16-8.08-12.38ZM37.79,53.04c-.41-.64-.5-1-.52-1.14.56-.42,2.64-.59,4.59-.41,1.03,1.54,2.22,3.05,3.4,4.43-3.04-.26-6.04-.66-7.46-2.88ZM81.15,51.34c-.02.15-.12.5-.52,1.14-1.39,2.18-4.3,2.61-7.28,2.87,1.19-1.38,2.38-2.9,3.41-4.44,1.89-.15,3.85.02,4.39.43ZM73.69,42.37c.84-.18,1.62.68,2,1.2.61,1.22-2.88,6.79-8.36,12.42.83-1.96,1.98-4.79,3.01-7.73.4-1.15.74-2.21,1.04-3.21.74-1.74,1.64-2.54,2.31-2.68ZM68.62,37.19c.34.91-.12,3.47-1.12,6.84-.25.66-.48,1.36-.67,2.12-.63,1.89-1.39,3.95-2.25,6.08.24-3.72.38-8.28.05-12.27,1.13-1.43,3.01-3.16,3.99-2.77Z"/>
  <path class="cls-1" d="M72.61,17.84c-1.43,1.62-2.2,4.38-2.53,5.91-1.09.61-2.07,1.56-3.43,3.23-1.15,1.42-2,3.05-2.54,4.84l3.83,1.15c.39-1.29,1-2.46,1.82-3.47,1.29-1.59,1.93-2.09,2.38-2.32.3.03.69.05,1.15.05,1.95,0,5.04-.41,6.78-2.72,2.23-2.95,2.5-6.69,2.51-6.84l.14-2.05-2.05-.08c-.97-.04-5.92-.11-8.06,2.31ZM76.88,22.09c-.48.64-1.5.94-2.51,1.06.32-1.06.75-2.11,1.25-2.67.33-.38,1.34-.67,2.49-.83-.26.79-.65,1.67-1.23,2.44Z"/>
  <path class="cls-1" d="M86.17,26.84c-1.91,1.02-3.55,3.38-4.36,4.7-1.13.18-2.42.64-4.19,1.69-1.55.92-2.89,2.14-3.98,3.64l3.23,2.36c.77-1.06,1.71-1.92,2.79-2.56,1.63-.96,2.49-1.18,3.07-1.22.99.47,2.9,1.23,4.91,1.23,1.12,0,2.28-.24,3.32-.91,3.08-1.97,4.55-5.4,4.61-5.55l.77-1.82-1.81-.79c-.9-.39-5.53-2.29-8.35-.78ZM88.79,32.41c-.65.42-1.75.3-2.76.01.66-.89,1.41-1.73,2.03-2.06.41-.22,1.47-.13,2.69.18-.49.65-1.15,1.35-1.95,1.86Z"/>
  <path class="cls-1" d="M96.15,37.83c-2.1.5-4.23,2.36-5.33,3.43-.86-.01-1.78.12-2.74.27-.45.07-.92.15-1.39.21-1.31.16-2.48.48-3.26.69-.28.08-.51.14-.66.17.07-.01.13-.01.18-.01v4c.43,0,.85-.11,1.53-.3.71-.19,1.68-.46,2.71-.58.51-.06,1.02-.15,1.52-.22.63-.1,1.5-.24,2.01-.25,1.07.91,3.57,2.74,6.25,2.74.56,0,1.12-.08,1.68-.26,3.46-1.12,5.69-4.09,5.78-4.21l1.16-1.56-1.53-1.2c-1.1-.86-4.91-3.63-7.91-2.92ZM97.41,43.91c-.71.23-1.77-.17-2.74-.74.83-.69,1.73-1.29,2.4-1.45.44-.1,1.5.29,2.62.92-.62.5-1.4.99-2.28,1.28Z"/>
  <path class="cls-1" d="M107.85,52.39c-.97-1.01-4.4-4.28-7.45-4.01-2.21.2-4.64,1.82-5.83,2.72-.99-.11-1.8-.13-2.89-.17l-1.11-.03c-.33-.01-.64-.03-.93-.04-1.62-.08-3.03-.14-4.26.63l2.1,3.4c.25-.11,1.2-.07,1.97-.03.31.01.63.03.98.04l1.13.03c1.06.03,1.75.05,2.58.14,1.1,1.2,3.63,3.53,6.53,3.53.29,0,.59-.02.89-.08,3.58-.62,6.17-3.25,6.28-3.36l1.35-1.39-1.35-1.39ZM100.88,54.59c-.73.13-1.75-.43-2.66-1.15.87-.54,1.82-1.01,2.53-1.07.45-.03,1.47.51,2.52,1.31-.67.4-1.49.77-2.39.92Z"/>
  <path class="cls-1" d="M107.84,90.32l1.35-1.39-1.35-1.39c-.97-1.01-4.4-4.28-7.45-4.01-2.21.2-4.64,1.82-5.83,2.72-1.04-.16-2.29-.2-3.81-.2h-22.81s0,4,0,4h22.8c.88,0,2.55,0,3.38.16,1.09,1.19,3.63,3.55,6.54,3.55.29,0,.59-.02.89-.08,3.58-.62,6.17-3.25,6.28-3.36ZM100.88,89.73c-.73.13-1.75-.43-2.66-1.15.87-.54,1.82-1.01,2.53-1.07.45-.03,1.47.51,2.52,1.31-.67.4-1.49.77-2.39.92Z"/>
  <path class="cls-1" d="M107.85,76.57c-.97-1.01-4.4-4.28-7.45-4.01-2.21.2-4.64,1.82-5.83,2.72-1.04-.16-2.29-.2-3.81-.2h-22.81s0,4,0,4h22.8c.88,0,2.55,0,3.38.16,1.09,1.19,3.63,3.55,6.54,3.55.29,0,.59-.02.89-.08,3.58-.62,6.17-3.25,6.28-3.36l1.35-1.39-1.35-1.39ZM100.88,78.77c-.73.13-1.75-.43-2.66-1.15.87-.54,1.82-1.01,2.53-1.07.45-.04,1.47.51,2.52,1.31-.67.4-1.49.77-2.39.92Z"/>
  <path class="cls-1" d="M107.85,65.42c-.97-1.01-4.4-4.27-7.45-4.01-2.21.2-4.64,1.82-5.83,2.72-1.04-.16-2.29-.2-3.81-.2h-22.81s0,4,0,4h22.8c.88,0,2.55,0,3.38.16,1.09,1.19,3.63,3.55,6.54,3.55.29,0,.59-.02.89-.08,3.58-.62,6.17-3.25,6.28-3.36l1.35-1.39-1.35-1.39ZM100.88,67.62c-.73.13-1.75-.43-2.66-1.15.87-.54,1.82-1.01,2.53-1.07.45-.05,1.47.51,2.52,1.31-.67.4-1.49.77-2.39.92Z"/>
  <path class="cls-1" d="M48.34,23.75c-.34-1.53-1.1-4.28-2.53-5.91-2.13-2.42-7.09-2.35-8.06-2.31l-2.05.08.14,2.05c.01.16.28,3.89,2.51,6.84,1.74,2.31,4.83,2.72,6.78,2.72.46,0,.85-.02,1.15-.05.45.23,1.09.73,2.38,2.32.82,1.01,1.43,2.18,1.82,3.47l3.83-1.15c-.54-1.8-1.39-3.42-2.54-4.84-1.36-1.68-2.34-2.62-3.43-3.23ZM41.54,22.09c-.58-.77-.97-1.65-1.23-2.44,1.15.16,2.16.45,2.49.83.5.56.93,1.61,1.25,2.67-1.02-.12-2.03-.42-2.51-1.06Z"/>
  <path class="cls-1" d="M32.25,26.84c-2.82-1.51-7.45.38-8.35.78l-1.81.79.77,1.82c.06.15,1.54,3.57,4.61,5.55,1.04.67,2.19.91,3.32.91,2.01,0,3.92-.76,4.91-1.23.58.04,1.44.26,3.07,1.22,1.08.64,2.02,1.5,2.79,2.56l3.23-2.36c-1.09-1.5-2.43-2.73-3.98-3.65-1.78-1.05-3.06-1.51-4.19-1.69-.81-1.32-2.45-3.68-4.36-4.7ZM29.63,32.41c-.8-.52-1.46-1.21-1.95-1.86,1.21-.3,2.28-.4,2.69-.18.62.33,1.37,1.17,2.03,2.06-1.01.28-2.1.4-2.76-.02Z"/>
  <path class="cls-1" d="M14.36,40.74l-1.53,1.2,1.16,1.56c.09.13,2.32,3.09,5.78,4.21.56.18,1.12.26,1.68.26,2.68,0,5.18-1.83,6.25-2.74.51,0,1.38.14,2.01.24.49.08,1,.16,1.52.22,1.03.13,2,.39,2.71.58.68.19,1.09.3,1.53.3v-4s.11,0,.18.01c-.15-.03-.38-.09-.66-.17-.78-.21-1.95-.53-3.26-.69-.47-.06-.94-.13-1.39-.21-.96-.15-1.88-.28-2.74-.27-1.09-1.07-3.23-2.94-5.33-3.43-3.01-.71-6.82,2.05-7.91,2.92ZM21.35,41.72c.66.16,1.57.76,2.4,1.45-.95.57-2.02.98-2.74.75-.88-.29-1.66-.78-2.28-1.28,1.13-.63,2.18-1.02,2.63-.91Z"/>
  <path class="cls-1" d="M10.57,52.39l-1.35,1.39,1.35,1.39c.11.11,2.7,2.74,6.28,3.36.3.05.6.08.89.08,2.9,0,5.42-2.33,6.53-3.53.84-.09,1.53-.11,2.58-.14l1.13-.03c.35-.01.67-.03.98-.04.77-.04,1.72-.08,1.97.03h-.01s2.12-3.4,2.12-3.4c-1.23-.77-2.64-.7-4.26-.63-.29.01-.6.03-.93.04l-1.11.03c-1.09.03-1.9.06-2.89.17-1.19-.9-3.62-2.52-5.83-2.72-3.07-.28-6.48,3-7.45,4.01ZM17.67,52.36c.67.06,1.63.52,2.53,1.07-.9.72-1.92,1.28-2.66,1.15-.9-.15-1.72-.53-2.39-.92,1.05-.8,2.06-1.34,2.52-1.31Z"/>
  <path class="cls-1" d="M10.57,90.32c.11.11,2.7,2.74,6.28,3.36.3.05.6.08.89.08,2.91,0,5.45-2.36,6.54-3.55.83-.15,2.5-.16,3.38-.16h22.8v-4h-22.81c-1.52,0-2.77.04-3.81.2-1.19-.9-3.62-2.52-5.83-2.72-3.07-.27-6.48,3-7.45,4.01l-1.35,1.39,1.35,1.39ZM17.67,87.5c.67.06,1.63.52,2.53,1.07-.9.72-1.92,1.28-2.66,1.15-.9-.15-1.72-.53-2.39-.92,1.05-.8,2.06-1.34,2.52-1.31Z"/>
  <path class="cls-1" d="M10.57,79.35c.11.11,2.7,2.74,6.28,3.36.3.05.6.08.89.08,2.91,0,5.45-2.36,6.54-3.55.83-.15,2.5-.16,3.38-.16h22.8v-4h-22.81c-1.52,0-2.77.04-3.81.2-1.19-.9-3.62-2.52-5.83-2.72-3.07-.27-6.48,3-7.45,4.01l-1.35,1.39,1.35,1.39ZM17.67,76.54c.67.06,1.63.52,2.53,1.07-.9.72-1.92,1.28-2.66,1.15-.9-.15-1.72-.53-2.39-.92,1.05-.8,2.06-1.34,2.52-1.31Z"/>
  <path class="cls-1" d="M10.57,68.2c.11.11,2.7,2.74,6.28,3.36.3.05.6.08.89.08,2.91,0,5.45-2.36,6.54-3.55.83-.15,2.5-.16,3.38-.16h22.8v-4h-22.81c-1.52,0-2.77.04-3.81.2-1.19-.9-3.62-2.52-5.83-2.72-3.07-.27-6.48,3-7.45,4.01l-1.35,1.39,1.35,1.39ZM17.67,65.39c.67.06,1.63.52,2.53,1.07-.9.72-1.92,1.28-2.66,1.15-.9-.15-1.72-.53-2.39-.92,1.05-.8,2.06-1.35,2.52-1.31Z"/>
</svg>