<?xml version="1.0" encoding="UTF-8"?>
<svg id="Livello_3" data-name="Livello 3" xmlns="http://www.w3.org/2000/svg" viewBox="0 0 120 120">
  <defs>
    <style>
      .cls-1 {
        fill: #000;
        stroke-width: 0px;
      }
    </style>
  </defs>
  <path class="cls-1" d="M15.34,65.41c-.45,1.44-.8,3.42-.47,5.69.11.73.54,1.38,1.18,1.76.4.24.85.37,1.31.37.28,0,.56-.05.83-.14,1.82-.63,4.48-2.22,6.05-3.89,1.06.62,2.6,1.45,4.86,2.57.7.35,1.51.35,2.21.01.7-.34,1.19-.96,1.36-1.71.43-1.96.57-3.68.44-5.13,3.74,2.22,7.07,4.66,9.97,7.07l-5.49,4.42c-1.29-1.19-2.88-2.24-4.84-2.91l-1.29,3.79c5.58,1.9,7.21,8.51,7.22,8.57l1.95-.45,1.95-.45c-.04-.19-.67-2.75-2.43-5.48l5.99-4.82c6.53,6,10.28,11.32,10.9,12.24-.54.37-1.93,1.06-3.65,1.71l-6.86,3.56,2.17,1.09c-.37.39-.78.84-1.22,1.36-.44.53-.59,1.23-.42,1.9.17.67.66,1.21,1.29,1.45.15.06.29.11.43.16-.74,1.76-.73,3.14,0,4.19.37.53.96.86,1.58.91.42.03.87.05,1.3.06.06.9.3,1.86.85,2.67.44.64,1.2,1,1.99.93.07,0,.11,0,.15,0,.17.01.36.03.6,0,.12.21.25.45.42.72.22.36.42.8.6,1.18.45.96,1.06,2.26,2.5,2.26h.05c1.61.02,2.13-1.5,2.35-2.09.13-.36.28-.77.5-1.14.29-.48.5-.79.64-1,.11,0,.22.01.33.02l.49.03c.79.05,1.55-.3,1.99-.93.56-.81.79-1.76.85-2.67.43,0,.86-.02,1.28-.05.65-.04,1.23-.38,1.6-.9.74-1.05.74-2.43,0-4.19.13-.05.28-.1.43-.16.63-.25,1.12-.79,1.29-1.45.17-.66.02-1.37-.42-1.9-.44-.52-.84-.97-1.21-1.36l2.17-1.09-6.67-3.47-.22-.1c-1.72-.66-3.13-1.36-3.62-1.69.68-.95,4.19-5.67,10.37-11.39l5.16,4.83c-.98,1.46-1.74,3.18-1.98,5.17l3.97.48c.62-5.14,6.79-8.06,6.86-8.09l-.84-1.82-.83-1.82c-.17.08-2.34,1.1-4.53,3.06l-4.8-4.48c3.03-2.57,6.54-5.25,10.55-7.8-.15,1.48-.01,3.23.43,5.24.17.75.66,1.38,1.36,1.71.7.34,1.51.33,2.21-.01,2.26-1.12,3.8-1.94,4.86-2.57,1.56,1.67,4.23,3.25,6.05,3.89.27.09.55.14.83.14.46,0,.91-.12,1.31-.37.64-.39,1.07-1.03,1.18-1.76.34-2.27-.02-4.25-.47-5.69,2.02-.67,4.76-1.99,6.19-4.45.62-1.05.36-2.43-.6-3.2-2.25-1.8-5.03-2.09-7.05-1.98.09-1.51.11-3.39-.16-4.88-.12-.66-.49-1.23-1.05-1.61-.56-.38-1.27-.52-1.94-.38-2.12.43-3.69,1.97-4.73,3.41-.65-.65-1.42-1.27-2.24-1.68-1.11-.54-2.43-.22-3.15.76-1.91,2.59-2.25,5.24-2.05,7.34-4.56-1.99-8.68-4.82-12.2-7.79l5.16-4.33c1.44,1.09,3.16,1.98,5.21,2.35l.72-3.93c-5.23-.96-7.79-7.18-7.82-7.24l-1.86.74-1.86.74c.07.17.93,2.3,2.73,4.53l-5.29,4.44c-6.08-5.77-9.74-11.26-9.8-11.35l-.83-1.26c.3-.13.56-.31.76-.55.33-.31,1.87-1.1,3.82-1.85l6.86-3.56-2.17-1.09c.37-.39.78-.84,1.22-1.36.44-.53.59-1.23.42-1.9-.17-.66-.65-1.2-1.29-1.45-.15-.06-.29-.11-.43-.16.74-1.76.73-3.14,0-4.19-.37-.53-.96-.86-1.58-.91-.43-.04-.87-.05-1.3-.06-.07-.9-.3-1.86-.85-2.66-.44-.64-1.2-1.01-1.98-.93-.25.02-.51.07-.77.12,0,0,0,0,0,0-.14-.22-.35-.56-.56-.92-.22-.37-.4-.81-.56-1.2-.29-.72-.87-2.17-2.38-2.17h-.04c-1.42,0-2.1,1.22-2.66,2.23-.15.28-.32.58-.51.9-.22.36-.4.69-.55.98-.18,0-.33.03-.45.04-.07,0-.14.02-.14.02-.79-.05-1.55.3-1.99.93-.56.81-.79,1.76-.85,2.67-.42,0-.86.02-1.28.05-.65.04-1.23.38-1.6.9-.74,1.05-.74,2.43,0,4.19-.13.04-.27.1-.42.15-.64.25-1.12.79-1.3,1.45-.17.66-.02,1.37.42,1.9.44.52.84.97,1.21,1.36l-2.17,1.09,6.67,3.47.22.1c1.92.74,3.46,1.53,3.75,1.79.21.25.46.44.75.57l-.82,1.35c-.05.09-3.09,5.03-8.73,10.53l-5.12-5.34c1.11-1.33,2.06-2.95,2.6-4.89l-3.85-1.08c-1.55,5.57-8.21,7.6-8.27,7.62l.56,1.92.56,1.92c.2-.06,2.79-.84,5.46-2.78l5.11,5.33c-3.65,3.15-8.12,6.25-13.32,8.54.24-2.14-.03-4.89-2.02-7.59-.72-.98-2.04-1.3-3.16-.76-.82.4-1.59,1.03-2.24,1.68-1.04-1.44-2.61-2.97-4.73-3.41-.67-.13-1.38,0-1.94.38-.56.38-.93.95-1.05,1.61-.27,1.5-.25,3.38-.16,4.88-2.03-.11-4.8.18-7.05,1.98-.96.76-1.22,2.14-.6,3.19,1.44,2.46,4.18,3.79,6.2,4.46ZM64.38,94.6s.3.18.82.65c-.25.2-.5.46-.73.81-.45.68-.46,1.57-.04,2.27.23.37.4.69.54.97-.15,0-.28,0-.41-.01-.75-.02-1.46.27-1.97.81-.5.54-.74,1.27-.66,2,.03.27.04.5.04.71-1.48-.16-2.47.97-3.24,2.16-.04-.06-.07-.13-.1-.18-.56-1.03-1.21-1.95-2.77-1.95-.08,0-.15,0-.23,0,0-.21,0-.46.04-.74.08-.73-.16-1.46-.66-2-.5-.54-1.23-.86-1.97-.81-.13,0-.26,0-.41.01.14-.28.31-.6.54-.97.42-.69.4-1.58-.05-2.27-.23-.34-.47-.6-.72-.8.51-.45.79-.62.78-.62h0s3.46-1.8,3.46-1.8l-1.3-.65c1.45-.58,2.6-1.12,3.45-1.64.86.52,2.02,1.07,3.48,1.65l-1.1.57,3.19,1.86ZM58.84,82.6c-1.78-2.34-4.98-6.22-9.54-10.46l4.72-3.8c.97,1.61,2.75,2.69,4.78,2.69s3.65-1,4.64-2.49l4.56,4.26c-4.37,4.05-7.43,7.62-9.16,9.8ZM55.14,59.81h1.79s.34-1.57.34-1.57c.15-.69.8-1.19,1.54-1.19s1.38.5,1.53,1.19l.34,1.57h1.8c.82.05,1.46.7,1.46,1.49s-.65,1.45-1.48,1.49h-1.27s-.83-2.76-.83-2.76h-3.29l-.3,1.51-.37,1.25h-1.27c-.82-.04-1.47-.69-1.47-1.49s.65-1.44,1.47-1.49ZM60.38,65.53c0,.82-.7,1.49-1.57,1.49s-1.57-.67-1.57-1.49c0-.09.01-.2.04-.31l.26-1.18h2.54l.26,1.18c.03.11.04.21.04.31ZM90.01,55.3c.63.61,1.23,1.37,1.56,1.88l2.09,3.18,1.44-3.53c.23-.56.89-1.83,1.77-2.75,0,1.6-.17,3.3-.27,4.04l-.39,3,2.91-.81s2.6-.7,4.81.07c-1.51,1.2-3.8,1.81-4.74,1.96l-2.95.48,1.57,2.55s.8,1.33,1,3.28c-1.37-.81-2.61-1.83-2.85-2.31.07.14.15.58-.09,1.04h0s-3.56-1.82-3.56-1.82c.12-.23.24-.34.25-.35-.32.29-1.69,1.11-4.04,2.33-.23-2.13.1-3.36.43-3.46l2.33-.69-.94-1.81.71-.41-1.1-.42c-.36-.94-.98-3.14.05-5.44ZM82.13,61.85c-4.26,2.73-7.96,5.56-11.12,8.27l-5-4.68c1.18-1.01,1.94-2.49,1.94-4.15s-.71-3.07-1.84-4.07l4.05-3.4c3.44,2.96,7.46,5.83,11.97,8.03ZM55.32,29.96l1.1-.57-3.19-1.86s-.3-.18-.82-.65c.25-.2.5-.46.73-.81.45-.68.46-1.57.04-2.27-.23-.37-.4-.69-.54-.97.15,0,.29,0,.41.01.75.03,1.46-.27,1.96-.81.5-.54.74-1.27.66-2-.03-.23-.04-.44-.04-.63.25.05.51.05.77,0,1.17-.2,1.64-1.16,1.98-1.87.08-.17.17-.35.27-.55.83,1.35,1.21,1.82,2.46,2.24.3.1.59.15.87.16,0,.19-.01.4-.04.64-.08.73.16,1.46.66,2,.5.54,1.22.86,1.97.81.11,0,.25,0,.41-.01-.14.28-.31.6-.54.97-.42.69-.4,1.58.05,2.27.23.34.47.6.72.8-.51.45-.79.62-.78.62h0s-3.46,1.8-3.46,1.8l1.3.65c-1.45.57-2.6,1.12-3.45,1.64-.86-.52-2.03-1.07-3.49-1.65ZM58.85,41.76c1.68,2.22,4.53,5.71,8.32,9.35l-4.35,3.65c-1.03-1.06-2.47-1.71-4.02-1.71s-2.85.59-3.86,1.56l-3.79-3.96c3.58-3.48,6.17-6.76,7.7-8.9ZM48.2,53.36l3.54,3.69c-1.26,1.01-2.07,2.53-2.07,4.25,0,1.58.68,2.99,1.76,3.99l-5.16,4.16c-3.07-2.6-6.62-5.24-10.66-7.68,4.9-2.39,9.1-5.39,12.59-8.41ZM18.47,60.05l2.93.84-.4-3.02c-.1-.74-.27-2.43-.27-4.04.89.91,1.55,2.18,1.77,2.74l1.42,3.54,2.11-3.19c.34-.51.94-1.27,1.56-1.88,1.2,2.67.18,5.2-.09,5.79l-1.1.43.68.36-.81,1.5,2.38.69c.33.1.66,1.33.43,3.46-2.35-1.21-3.72-2.03-4.04-2.33,0,0,.13.12.25.35l-3.56,1.82h0c-.23-.46-.16-.9-.09-1.04-.24.48-1.48,1.5-2.85,2.31.2-1.95.99-3.26.99-3.27l1.62-2.56-2.99-.49c-.95-.16-3.23-.77-4.75-1.96,2.22-.76,4.78-.08,4.81-.07Z"/>
  <path class="cls-1" d="M17.98,39.48l-.31,3.99s.38.03.93.03c1.63,0,5.21-.21,9.29-1.79,5.03-1.95,11.81-6.42,15.57-16.66,1.45-3.95.86-4.62.39-5.16l-.83-.91-1.16.25c-1.44.32-3.51,2.35-4.78,3.78l-.05-.05c-.51-.48-1.2-.72-1.9-.67-.7.05-1.35.4-1.78.96-.4.51-1,1.44-1.4,2.83-.61-.48-1.4-.64-2.16-.44-.81.21-1.45.81-1.72,1.6-.29.85-.61,1.91-.81,2.98-.04-.02-.07-.04-.11-.06-.75-.42-1.65-.43-2.41-.03-.76.41-1.24,1.16-1.3,2.02-.08,1.22-.1,3.55.55,6.64-3.28.85-5.75.7-6,.68ZM27.7,34.81c.78.27,1.65.15,2.31-.34.67-.49,1.04-1.28,1.01-2.1-.02-.47.07-1.13.25-1.91.22.12.46.24.7.35.76.35,1.64.3,2.35-.13.7-.42,1.15-1.15,1.2-1.96.04-.58.12-1.06.24-1.47.5.35,1.11.51,1.72.44.16-.02.31-.05.46-.1-2.83,5.25-6.63,8.2-10.17,9.85-.2-1.03-.3-1.95-.36-2.72.09.03.18.07.28.1Z"/>
  <path class="cls-1" d="M94.37,32.16c-.06-.86-.55-1.61-1.3-2.02-.76-.41-1.66-.4-2.41.03-.03.02-.07.04-.1.06-.2-1.07-.52-2.13-.81-2.98-.27-.79-.91-1.39-1.72-1.6-.76-.2-1.55-.03-2.16.44-.4-1.39-1-2.31-1.4-2.83-.43-.55-1.08-.9-1.78-.96-.7-.06-1.39.19-1.9.67l-.05.05c-1.28-1.43-3.35-3.46-4.78-3.77l-1.21-.24-.78.89c-.47.54-1.06,1.21.39,5.16,6.38,17.39,21.51,18.44,25.04,18.44.46,0,.73-.02.75-.02l-.32-3.99s-2.56.19-5.99-.71c.65-3.08.63-5.4.55-6.62ZM90.01,37.41c-4.34-2.01-7.74-5.3-10.17-9.82.15.05.3.08.46.1.61.07,1.23-.09,1.72-.44.11.41.2.89.24,1.47.05.81.5,1.54,1.2,1.96.71.43,1.59.47,2.35.13.24-.11.47-.23.7-.35.18.78.27,1.44.25,1.91-.03.83.35,1.61,1.01,2.1.67.49,1.53.62,2.31.34.09-.03.19-.07.28-.1-.05.77-.16,1.68-.35,2.7Z"/>
  <path class="cls-1" d="M23.33,91.52c.06.86.55,1.61,1.3,2.02.76.41,1.66.4,2.41-.03.03-.02.07-.04.1-.06.2,1.07.52,2.13.81,2.98.27.79.92,1.39,1.72,1.6.76.2,1.55.03,2.16-.44.4,1.39,1,2.31,1.4,2.83.43.55,1.08.9,1.78.96.69.05,1.39-.19,1.9-.67l.05-.05c1.27,1.43,3.35,3.46,4.79,3.78l1.21.24.78-.89c.47-.54,1.06-1.22-.39-5.16-7.22-19.66-25.6-18.43-25.79-18.42l.32,3.99s2.56-.19,5.99.71c-.65,3.08-.63,5.4-.55,6.62ZM27.69,86.27c4.34,2.01,7.74,5.3,10.17,9.82-.15-.05-.3-.08-.46-.1-.62-.07-1.23.09-1.72.44-.11-.41-.2-.89-.24-1.47-.05-.81-.5-1.54-1.2-1.96-.4-.24-.84-.36-1.29-.36-.36,0-.72.08-1.06.23-.24.11-.47.23-.7.35-.18-.78-.27-1.44-.25-1.91.03-.83-.35-1.61-1.01-2.1s-1.53-.62-2.31-.34c-.09.03-.19.07-.28.1.05-.77.16-1.68.35-2.7Z"/>
  <path class="cls-1" d="M99.72,84.2l.31-3.99c-.19-.02-4.76-.35-10.21,1.76-5.03,1.95-11.81,6.42-15.57,16.65-1.45,3.94-.86,4.62-.39,5.16l.83.91,1.16-.25c1.44-.32,3.51-2.35,4.78-3.77l.05.05c.51.48,1.2.72,1.9.67.7-.05,1.35-.4,1.78-.96.4-.51,1-1.44,1.4-2.83.61.47,1.4.64,2.16.44.81-.21,1.45-.81,1.73-1.6.29-.85.61-1.91.81-2.98.04.02.07.04.11.06.75.42,1.65.44,2.41.03.76-.41,1.24-1.16,1.3-2.02.08-1.22.1-3.55-.55-6.64,3.28-.85,5.75-.7,6-.68ZM90,88.87c-.78-.28-1.65-.15-2.31.34-.67.49-1.04,1.28-1.01,2.1.02.47-.07,1.14-.25,1.91-.22-.12-.46-.24-.7-.35-.76-.35-1.63-.3-2.35.13-.7.42-1.15,1.15-1.2,1.96-.04.58-.12,1.06-.24,1.47-.42-.3-.92-.46-1.43-.46-.1,0-.2,0-.3.02-.16.02-.31.05-.46.1,2.83-5.25,6.63-8.2,10.17-9.85.2,1.03.3,1.95.36,2.72-.09-.03-.18-.07-.28-.1Z"/>
</svg>