<?xml version="1.0" encoding="UTF-8"?>
<svg id="Livello_3" data-name="Livello 3" xmlns="http://www.w3.org/2000/svg" viewBox="0 0 120 120">
  <defs>
    <style>
      .cls-1 {
        fill: #000;
        stroke-width: 0px;
      }
    </style>
  </defs>
  <path class="cls-1" d="M28.39,109.09c3.91-.54,7.96-1.1,11.23-.44,2.53.56,4.64-1.07,6.19-2.25.5-.39,1.31-1.01,1.72-1.17.08.09.22.27.4.61.29.56,1.21,2.54,1.54,3.26l.53,1.15h1.27c8.4.06,17.42.07,25.72.07,16.47,0,30.08-.06,30.28-.06h1.99v-52.14h-16.35c-1.06-8.02-4.26-15.4-4.4-15.74l-.8-1.83-7.33,3.19c-.79-1.88-1.61-3.67-2.48-5.36,1.33-.84,3.3-2.03,4.98-2.88l1.85-.93-1-1.82C68.99,5.98,36.52,11.16,33.71,11.66c-6.43-1.61-12.95-2.01-15.61.54-.58.56-.79,1.41-.54,2.16.44,1.34.89,2.45,1.39,3.39-2.29,1.31-5.82,3.92-8.26,8.56-.42.8-.48,1.75-.16,2.6.32.84.97,1.5,1.81,1.82,1.43.55,3.5,1.6,4.87,2.33-.25,1.05-.35,2.11-.28,3.18.08,1.06.21,2.17.54,3.08-2.15,2.89-5.96,9.2-3.3,14.85,2.1,4.45,4.01,6.47,6.2,6.55.81.03,2.34-.22,3.48-2.23.96-1.69,8.96-9.19,11.3-9.63,1.27.64,1.41.92,1.51,1.52-.17.26-.82.77-2.05.81l-.21.02c-2.2.3-5.71,5.24-5.95,6.9-.14,1.02.36,1.96,1.25,2.36,1.46.65,7.29-1.14,10.75-2.3-.22,1.66-.97,3.89-2.08,6.79-1.7,4.43-2.42,15.34,2.49,23.87-1.63.42-3.16.9-4.57,1.34-3.27,1.03-6.1,1.92-7.63,1.19-4.67-2.22-9.09-1.22-12.19,2.72-.52.34-1.2.67-1.9,1.02-2.04,1-4.57,2.24-5.16,4.83-.42,1.85.28,3.9,2.13,6.25,3.74,4.74,10.42,3.82,16.87,2.93ZM88.88,58.12h-3.94c-.46-2.11-1.43-6.03-3.1-10.64l3.75-1.63c.95,2.52,2.56,7.29,3.29,12.28ZM49.18,80.86c.24,3.17,1.46,5.54,3.01,7.28h-7.01c-4.88-7.09-4.67-17.64-3.09-21.77.62-1.62,1.17-3.13,1.59-4.55,1.75-.42,5.07-1.36,8.43-3.15,6.64-3.55,10.15-8.67,10.15-14.82,0-10.93-7.18-16.77-10.77-19.01.19-.59.29-1.29.24-2.11-.03-.5-.15-.97-.33-1.42,2.77.51,6.07,1.51,9.17,3.24,13.07,7.28,18.69,26.87,20.27,33.59l-13.28.18c-.34-.02-8.27-.18-13.7,5.58-3.75,3.98-5.33,9.69-4.69,16.95ZM52.2,15.6c12.07,2,21.16,7.83,27.03,17.34-1.19.67-2.35,1.38-3.26,1.95-3.81-6.33-8.31-10.96-13.44-13.82-5.44-3.03-11.73-4.25-15.68-4.17-1.04-.67-2.33-1.35-3.77-2,2.69,0,5.81.16,9.13.71ZM14.68,27.38c2.19-3.66,5.21-5.61,6.8-6.44,1.07.91,2.38,1.66,4.04,2.46-1.32.63-2.36,1.27-3.1,1.91-1.52,1.29-2.73,2.66-3.62,4.08-1.18-.62-2.75-1.42-4.11-2.01ZM34.56,55.77c.24-.26.46-.47.63-.61,1.85-.16,3.47-.93,4.49-2.15.78-.93,1.12-2.01.96-3.04-.3-2.01-1.02-3.37-3.97-4.81-4.55-2.22-15.61,10.14-16.31,11.38,0,0,0,.01,0,.02-.42-.38-1.31-1.4-2.57-4.08-1.92-4.06,1.97-9.81,3.79-11.88.11-.11.21-.23.3-.36l-3.12-2.48c.37-.37.89-.47,1.28-.44.7.06,1.12.51,1.21.72,0-.02-.21-.46-.33-2.08-.23-3.21,2.09-5.9,4.09-7.59.73-.62,2.12-1.36,3.93-2.09,1.14-.46,1.89-1.55,1.91-2.78.02-1.23-.69-2.36-1.81-2.86-4.64-2.09-5.94-2.88-7.16-6.05,4.28-1.25,17.52,1.99,23.25,5.99l.58.4h.1c.95.59,1.91,1.49,1.94,2,.05.86-.16,1.04-1.07,1.63-.31.2-.6.4-.85.61-1.32,1.1-4.96.55-7.12-.19l-1.31,3.78c.45.16,3.08,1.02,5.88,1.02,1.82,0,3.7-.37,5.11-1.53.15-.12.32-.23.5-.35,0,0,0,0,0,0,2.61,1.51,9.38,6.34,9.38,15.92,0,8.39-9.08,12.2-13.78,13.61.02-.95-.08-1.85-.36-2.69l-.7-2.07-2,.89c-1.25.55-4.31,1.49-6.86,2.18ZM13.29,100.8c.17-.73,1.75-1.5,3.02-2.13.93-.45,1.88-.92,2.7-1.51l.25-.18.18-.25c1.97-2.65,4.42-3.23,7.48-1.78,2.95,1.4,6.47.3,10.55-.98,2.18-.68,4.43-1.39,6.86-1.83h42.59l.32-.03s1.07-.14,2.14.7c1.01.79,2.31,2.61,2.78,6.87l3.98-.44c-.52-4.63-2.01-7.89-4.45-9.7-2.1-1.56-4.19-1.49-4.9-1.4h-27.15c-.29-.06-6.01-1.32-6.49-7.61-.54-6.08.67-10.74,3.59-13.85,4.18-4.45,10.64-4.36,10.78-4.35l15.81-.21h21.94v44.15c-7.06.03-31.62.11-52.71,0-.38-.82-.86-1.83-1.09-2.27-.79-1.53-1.82-2.45-3.07-2.72-1.96-.43-3.6.83-5.05,1.94-1.02.79-2.18,1.68-2.92,1.51-3.97-.8-8.36-.2-12.61.39-5.58.77-10.85,1.5-13.18-1.44-1.46-1.85-1.42-2.68-1.37-2.89Z"/>
  <path class="cls-1" d="M30.32,29.61c-3.08,0-5.58,2.52-5.58,5.61s2.5,5.61,5.58,5.61,5.58-2.52,5.58-5.61-2.5-5.61-5.58-5.61ZM30.32,36.83c-.87,0-1.58-.72-1.58-1.61s.71-1.61,1.58-1.61,1.58.72,1.58,1.61-.71,1.61-1.58,1.61Z"/>
</svg>