<?xml version="1.0" encoding="UTF-8"?>
<svg id="Livello_3" data-name="Livello 3" xmlns="http://www.w3.org/2000/svg" viewBox="0 0 120 120">
  <defs>
    <style>
      .cls-1 {
        fill: #000;
        stroke-width: 0px;
      }
    </style>
  </defs>
  <path class="cls-1" d="M9.27,78.24v4.29h4v-1.47l1.42-.5v5.16l39.12,13.04v11.58h11.02v-11.58l39.03-13.04v-5.16l1.42.5v1.47h4v-4.29l-5.42-1.92v-3.98c.1-.17.23-.37.37-.6.37.53.67.94.91,1.26.04.06.09.12.13.17v1.48h4v-2.69l-.31-.49c-.15-.23-.35-.51-.61-.87-.44-.59-1.05-1.41-1.9-2.78l-.58-.93-1.09-.02q-.6,0-1.09,0l-1.01.02-.59.82c-.08.11-.16.23-.24.34-.08-.11-.16-.23-.24-.34l-.59-.82-1.01-.02q-.5,0-1.09,0l-1.09.02-.58.93c-1.04,1.67-1.52,2.3-2.02,2.97l-.8,1.08v2.77h4v-1.45c.31-.41.62-.83,1.05-1.46.14.22.27.42.37.58v3.98l-5.42,1.92v4.29h4v-1.47l1.42-.5v2.28l-35.03,11.7v-23.23l39.03-11.96v-5.2l1.42.5v1.47h4v-4.29l-5.42-1.92v-3.98c.1-.17.23-.37.37-.6.37.54.68.95.92,1.27.04.06.09.12.13.17v1.48h4v-2.69l-.31-.49c-.15-.23-.34-.5-.61-.86-.44-.59-1.05-1.41-1.9-2.78l-.58-.93-1.09-.02q-.6,0-1.09,0l-1.01.02-.59.82c-.08.11-.16.23-.24.34-.08-.11-.16-.23-.24-.34l-.59-.82-1.01-.02q-.5,0-1.09,0l-1.09.02-.58.93c-1.04,1.67-1.52,2.3-2.02,2.97l-.8,1.08v2.77h4v-1.45c.31-.41.62-.83,1.05-1.46.14.22.27.42.37.58v3.98l-5.42,1.92v4.29h4v-1.47l1.42-.5v2.24l-35.03,10.74v-22.02l39.03-11.96v-5.2l1.42.5v1.47h4v-4.29l-5.42-1.92v-3.98c.1-.17.23-.37.37-.6.37.53.67.94.91,1.26.04.06.09.12.13.17v1.48h4v-2.69l-.31-.49c-.15-.23-.35-.51-.61-.87-.44-.59-1.05-1.41-1.9-2.78l-.58-.93-1.09-.02q-.6,0-1.09,0l-1.01.02-.59.82c-.08.11-.16.23-.24.34-.08-.11-.16-.23-.24-.34l-.59-.82-1.01-.02q-.5,0-1.09,0l-1.09.02-.58.93c-1.04,1.67-1.52,2.3-2.02,2.97l-.8,1.08v2.77h4v-1.45c.31-.41.62-.83,1.05-1.46.14.22.27.42.37.58v3.98l-5.42,1.92v4.29h4v-1.47l1.42-.5v2.24l-35.03,10.74V10.35h-11.02v30.59l-35.12-10.74v-2.24l1.42.5v1.47h4v-4.29l-5.42-1.92v-3.98c.1-.17.23-.37.37-.6.37.53.67.94.91,1.26.04.06.09.12.13.17v1.48h4v-2.69l-.31-.49c-.15-.23-.35-.51-.61-.87-.44-.59-1.05-1.41-1.9-2.78l-.58-.93-1.09-.02q-.6,0-1.09,0l-1.01.02-.59.82c-.08.11-.16.23-.24.34-.08-.11-.16-.23-.24-.34l-.59-.82-1.01-.02q-.5,0-1.09,0l-1.09.02-.58.93c-1.04,1.67-1.52,2.3-2.02,2.97l-.8,1.08v2.77h4v-1.45c.31-.41.62-.83,1.05-1.46.14.22.27.42.37.58v3.98l-5.42,1.92v4.29h4v-1.47l1.42-.5v5.2l39.12,11.97v22.02l-35.12-10.74v-2.24l1.42.5v1.47h4v-4.29l-5.42-1.92v-3.98c.1-.17.23-.37.37-.6.37.54.68.95.92,1.27.04.06.09.12.13.17v1.48h4v-2.69l-.31-.49c-.15-.23-.34-.5-.61-.86-.44-.59-1.05-1.41-1.9-2.78l-.58-.93-1.09-.02q-.6,0-1.09,0l-1.01.02-.59.82c-.08.11-.16.23-.24.34-.08-.11-.16-.23-.24-.34l-.59-.82-1.01-.02q-.5,0-1.09,0l-1.09.02-.58.93c-1.04,1.67-1.52,2.3-2.02,2.97l-.8,1.08v2.77h4v-1.45c.31-.41.62-.83,1.05-1.46.14.22.27.42.37.58v3.98l-5.42,1.92v4.29h4v-1.47l1.42-.5v5.2l39.12,11.97v23.23l-35.12-11.71v-2.28l1.42.5v1.47h4v-4.29l-5.42-1.92v-3.98c.1-.17.23-.37.37-.6.37.53.67.94.91,1.26.04.06.09.12.13.17v1.48h4v-2.69l-.31-.49c-.15-.23-.35-.51-.61-.87-.44-.59-1.05-1.41-1.9-2.78l-.58-.93-1.09-.02q-.6,0-1.09,0l-1.01.02-.59.82c-.08.11-.16.23-.24.34-.08-.11-.16-.23-.24-.34l-.59-.82-1.01-.02q-.5,0-1.09,0l-1.09.02-.58.93c-1.04,1.67-1.52,2.3-2.02,2.97l-.8,1.08v2.77h4v-1.45c.31-.41.62-.83,1.05-1.46.14.22.27.42.37.58v3.98l-5.42,1.92ZM57.81,14.35h3.02v92h-3.02V14.35Z"/>
</svg>