<?xml version="1.0" encoding="UTF-8"?>
<svg id="Livello_3" data-name="Livello 3" xmlns="http://www.w3.org/2000/svg" viewBox="0 0 120 120">
  <defs>
    <style>
      .cls-1 {
        fill: #000;
        stroke-width: 0px;
      }
    </style>
  </defs>
  <path class="cls-1" d="M109.88,95.78c-.54-1.48-1.98-1.38-3.13-1.3-.22.02-.44.03-.6.04-2.17-.52-3.62-2.19-3.62-2.2l-.6-.72h-8.52l.15,3.05h-1.13c-1.74-1.29-7.72-6.17-5.88-11.23,1.35-1.47,2.44-3.2,3.33-5.05,2.93-1.94,12.5-8.41,14.48-11.58,2.65-4.23,5.78-10.29,5.63-15.1-.1-3.17-2.09-9.64-3.75-14.52-1.06-3.11-3.97-5.2-7.24-5.2h-.97v-2.76c0-.65-.28-1.26-.78-1.67-.84-.7-1.78-.51-2.53-.37-.27.05-.58.11-.93.15-.03-.27-.04-.66,0-1.17.07-.95-.48-1.85-1.35-2.24-.89-.39-1.93-.18-2.59.52l-2.1,2.21c-.23-.34-.47-.69-.76-1.03l-.16-.2-.21-.15c-4.25-3.06-8.35-2.71-11.19-1.55-2-6.05-6.27-7.77-8.32-8.25.02-.76.02-1.46.03-2.02.02-1.86-1.34-3.36-3.1-3.41l-.13,4c-.46-.01-.78-.34-.78-.62,0,.67-.02,1.52-.04,2.44-.04,1.71,1.15,3.19,2.76,3.44,1.43.22,4.81,1.34,6.12,6.88h-1.09c-.52,0-1,.14-1.43.38.55-.68.9-1.54.9-2.48,0-2.18-1.77-3.96-3.95-3.96s-3.95,1.78-3.95,3.96,1.77,3.96,3.95,3.96c.73,0,1.41-.21,1.99-.56-.43.58-.7,1.3-.7,2.09v1.74c-1.21.08-2.23.89-2.7,2,.16-.43.25-.89.25-1.37,0-2.24-1.81-4.06-4.05-4.06s-4.04,1.82-4.04,4.06,1.81,4.06,4.04,4.06c1.65,0,3.06-1,3.69-2.42-.11.35-.19.72-.19,1.11v1.83c-1.74.02-3.15,1.53-3.15,3.39v2.21h-1.56v-2.21c0-1.85-1.41-3.36-3.15-3.39v-1.83c0-1.79-1.32-3.27-2.99-3.38v-1.74c0-1.87-1.43-3.38-3.19-3.38h-1.09c1.02-4.29,3.27-5.92,4.9-6.55-1.19.83-1.98,2.22-1.98,3.79,0,2.54,2.06,4.62,4.6,4.62s4.6-2.07,4.6-4.62-2.06-4.62-4.6-4.62c-.06,0-.11.02-.17.02.95-.62,1.57-1.73,1.54-2.96-.02-.92-.03-1.78-.04-2.44,0,.28-.32.61-.78.62l-.13-4c-1.75.06-3.11,1.55-3.1,3.41,0,.56.01,1.26.03,2.02-2.09.49-6.46,2.26-8.42,8.55-2.87-1.11-7.8-2.07-12.67,1.45l-.21.15-.16.2c-.29.35-.54.69-.76,1.03l-2.1-2.21c-.67-.7-1.71-.91-2.59-.52-.88.39-1.42,1.29-1.35,2.24.04.51.03.9,0,1.17-.35-.04-.66-.1-.93-.15-.75-.15-1.69-.33-2.53.37-.5.41-.78,1.02-.78,1.67v2.76h-.97c-3.28,0-6.19,2.09-7.24,5.2-1.66,4.88-3.65,11.35-3.75,14.52-.15,4.81,2.98,10.87,5.63,15.1,1.99,3.17,11.38,9.33,14.31,11.2.93,1.99,2.06,3.86,3.51,5.43,1.84,5.06-4.14,9.94-5.88,11.23h-1.13l.15-3.05h-8.52s-.6.71-.6.71c-.01.02-1.46,1.69-3.63,2.21-.16,0-.38-.02-.6-.04-1.16-.08-2.59-.18-3.13,1.3l-.5,1.45,1.23.88c2.04,1.47,5.36,4.91,5.4,4.95l.59.61h11.82l.41-.2c.55-.26,13.43-6.57,14.28-17.8l.15-15.23c1.58-1.35,3.23-2.57,3.95-2.91.48.16,1.45.61,2.07,1.43.49.66.67,1.42.53,2.33-.22,1.5-.97,3.29-1.83,5.35-1.31,3.14-2.81,6.69-3.23,10.98-.71,7.24,3.67,10.93,6.37,11.97l.34.13,6.93.03v10.07h4v-10.05l5.23.02v-2s.73,1.87.73,1.87c2.04-.79,7.18-4.51,6.42-12.23-.42-4.29-1.91-7.84-3.23-10.98-.87-2.06-1.61-3.84-1.83-5.35-.33-2.25,1.62-3.79,2.5-4.15.74.51,2.32,1.81,3.81,3.1l.24.23.15,15.08v.13c.86,11.23,13.73,17.54,14.28,17.8l.41.2h11.82l.59-.61s3.36-3.48,5.4-4.95l1.24-.92-.51-1.42ZM61.21,31.95v-.12s.05.02.05.06l-.05.06ZM57.72,23.38c0,.34-.27.62-.6.62s-.6-.28-.6-.62.27-.62.6-.62.6.28.6.62ZM102.46,38.45c2.19,6.44,3.48,11.31,3.54,13.36.09,2.93-1.74,7.61-5.02,12.85-.84,1.34-4.75,4.4-8.74,7.23.61-2.2,1.08-4.36,1.48-6.27.25-1.19.55-2.56.82-3.55.63.91,1.71,2.12,3.66,1.98.63-.04,1.55-.33,2.33-1.48,2.11-3.12,3.1-13.85,1.99-17.28-.68-2.1-1.72-3.19-2.48-3.98-.66-.68-.67-.75-.67-1.05,0-.59.12-.72.47-1.11.4-.44,1.07-1.19,1.07-2.39,0-.09-.02-.18-.02-.26.72.44,1.29,1.11,1.57,1.95ZM90.36,29.68c.14.27.31.51.51.72.57.61,1.34.95,2.18.95.35,0,.68-.02.98-.05v2.39h-5.09l-.45,1.39c-.32.98-.74,1.65-1.16,1.85-.23.1-.52.09-.82.02.1-.15.21-.3.33-.43.99-.88,2.46-2.95,2.37-5.63l1.14-1.2ZM66.41,24.08s-.05-.01-.05-.04h2l-1.95.04ZM26.95,31.55c.84,0,1.61-.34,2.18-.95.2-.21.37-.45.51-.72l1.14,1.2c-.09,2.69,1.39,4.76,2.37,5.64.1.12.22.27.32.42-.29.07-.59.08-.82-.02-.42-.19-.84-.87-1.16-1.85l-.45-1.39h-5.09v-2.39c.3.03.63.05.98.05ZM19.03,64.86c-3.28-5.24-5.12-9.93-5.02-12.85.06-2.06,1.35-6.93,3.54-13.36.28-.84.86-1.51,1.57-1.95,0,.09-.02.17-.02.26,0,1.2.67,1.95,1.07,2.39.35.39.47.53.47,1.11,0,.3-.02.36-.67,1.05-.76.79-1.8,1.87-2.48,3.98-1.11,3.43-.12,14.16,1.99,17.28.78,1.15,1.7,1.44,2.33,1.48,1.95.13,3.02-1.07,3.66-1.98.27.99.56,2.36.82,3.55.4,1.86.85,3.94,1.43,6.07-3.95-2.72-7.84-5.69-8.68-7.03ZM41.6,66.84l-2.62-2.89h1.33l1.27-2.75,1.35,2.75h1.66l-2.98,2.89ZM63.19,95.95l-5.12-.02v-.98l2.53-2.36,2.59,2.24v1.12ZM75.33,63.75h1.66l1.35-2.75,1.27,2.75h1.33l-2.62,2.89-2.98-2.89ZM101.47,99.67h-9.2c-1.98-1.05-10.98-6.27-11.63-14.24l-.15-15.24,5.85-6.44c.63-.7.8-1.7.42-2.56-.38-.87-1.25-1.43-2.21-1.43h-2.38l-1.59-3.45c-.39-.85-1.22-1.38-2.16-1.39-.96-.06-1.78.5-2.2,1.34l-1.72,3.5h-3.12c-.99,0-1.87.59-2.24,1.5-.37.9-.15,1.92.55,2.6l.16.16c-.37.23-.67.46-.84.6-2.29,1.86-3.42,4.57-3.02,7.26.3,2,1.17,4.1,2.1,6.31,1.21,2.87,2.57,6.13,2.93,9.82.52,5.32-2.65,7.46-3.6,7.97h-.23v-2.97l-6.69-5.78-6.43,5.99v2.7h-1.56c-.98-.5-4.05-2.49-3.54-7.72.36-3.69,1.73-6.95,2.93-9.82.93-2.22,1.81-4.31,2.1-6.31.29-1.98-.16-3.83-1.32-5.35-.81-1.06-1.86-1.81-2.84-2.31l.37-.36c.7-.68.92-1.7.55-2.6-.37-.91-1.25-1.5-2.24-1.5h-3.12l-1.72-3.5c-.41-.84-1.27-1.39-2.2-1.34-.94.01-1.77.55-2.16,1.4l-1.59,3.45h-2.38c-.96,0-1.82.56-2.21,1.43-.38.86-.22,1.87.42,2.56l5.93,6.54-.15,15.15c-.65,7.94-9.66,13.18-11.63,14.24h-9.19c-.46-.47-1.16-1.15-1.93-1.89,1.48-.67,2.59-1.57,3.26-2.19h2.54l-.15,3.05h6.57l.5-.33c.47-.31,11.56-7.73,7.7-16.78l-.15-.34-.26-.27c-3.8-3.92-5.31-10.98-6.42-16.14-.97-4.55-1.46-6.83-3.45-7.39-2.52-.71-3.8,1.25-4.35,2.08l-.02.03c-1.05-2.87-1.8-10.74-1.08-12.98.4-1.23.96-1.81,1.56-2.43.75-.79,1.79-1.86,1.79-3.82,0-1.12-.27-1.95-.6-2.57h4.22c.68,1.38,1.6,2.34,2.75,2.87.95.43,2.52.76,4.64-.13,1.1-.46,1.82-1.3,2.04-2.36.41-1.99-1.18-3.85-1.68-4.37l-.15-.14c-.56-.5-2.19-2.32.08-5.24,4.14-2.82,8.36-1.07,9.86-.28.12.26.27.51.46.74.61.73,1.48,1.16,2.41,1.16h1.22v1.73c0,1.79,1.32,3.27,2.99,3.38v1.83c0,1.85,1.41,3.36,3.15,3.38v1.93c0,2.02,1.54,3.66,3.43,3.66h2.69c1.89,0,3.43-1.64,3.43-3.66v-1.93c1.74-.02,3.15-1.53,3.15-3.38v-1.83c1.66-.11,2.99-1.58,2.99-3.38v-1.73h1.22c.92,0,1.8-.42,2.41-1.16.26-.32.45-.69.58-1.07,1.33-.83,4.41-2.15,8.15.42,2.27,2.92.65,4.74.1,5.22l-.17.15c-.5.52-2.1,2.38-1.68,4.37.22,1.06.94,1.89,2.04,2.36,2.12.89,3.69.56,4.64.13,1.15-.53,2.07-1.49,2.75-2.87h4.22c-.33.62-.6,1.45-.6,2.57,0,1.96,1.03,3.03,1.79,3.82.62.65,1.16,1.21,1.56,2.43.72,2.23-.03,10.11-1.08,12.98l-.02-.03c-.55-.83-1.83-2.79-4.35-2.08-1.99.56-2.48,2.84-3.45,7.39-1.1,5.16-2.61,12.23-6.41,16.14l-.26.27-.15.34c-3.86,9.05,7.23,16.47,7.7,16.78l.5.33h6.57l-.15-3.05h2.54c.67.62,1.78,1.52,3.26,2.19-.78.73-1.47,1.42-1.93,1.89Z"/>
</svg>