<?xml version="1.0" encoding="UTF-8"?>
<svg id="Livello_3" data-name="Livello 3" xmlns="http://www.w3.org/2000/svg" viewBox="0 0 120 120">
  <defs>
    <style>
      .cls-1 {
        fill: #000;
        stroke-width: 0px;
      }
    </style>
  </defs>
  <path class="cls-1" d="M110,108.19c-4.47-8.78-9.77-17.21-15.79-25.15,2.35.59,4.76,1.59,5.58,3.21l3.57-1.8c-1.47-2.91-4.87-4.43-7.92-5.24,1.93-.76,4.11-1.22,6.12-.91l.61-3.95c-3.48-.54-7.04.47-9.84,1.87.68-1.35,1.92-2.47,4.24-3.45l-1.56-3.69c-3.63,1.53-5.45,3.59-6.41,5.65-1.8-3.61-3.6-8.38-3.19-12.06,4.76-1.61,8.18-4.55,9.75-8.42,1.65-4.06,1.12-8.7-1.44-12.73l-1.52-2.39-1.74,2.23c-.54.69-1.09,1.29-1.64,1.83-4.58-4.77-9.18-6.86-13.16-7.27v-2.33c0-1.79,3.99-2.2,4.97-2.21h6.05l-4.86-3.61c-.34-.25-8.36-6.06-17.44-.06-1.4.93-2.5,2-3.36,3.15-1.85-2.4-3.91-5.68-3.77-7.66.04-.53.24-.76.45-.93.56-.45,2.33-.75,3.63-.76h4.63s-3.18-3.37-3.18-3.37c-2.58-2.74-9.21-6.51-15.81-1.14-.92.75-1.64,1.51-2.24,2.29-.48-.6-1.06-1.1-1.75-1.39-1.08-.45-2.26-.33-3.33.33-1.48.92-2.46,2.44-2.87,4.42-.93-.23-1.82-.19-2.65.07-.39-.49-.9-1.06-1.53-1.68l-.97-8.31-3.97.46.49,4.23c-1.09-.74-2.33-1.49-3.73-2.24l-.74-5.18-3.96.56.37,2.56c-2.6-1.09-5.62-2.14-9.11-3.05l-1.02,3.87c2.88.76,5.4,1.6,7.6,2.48l-3.94,1.31,1.26,3.8,7.96-2.64c1.52.83,2.8,1.65,3.88,2.43l-7.41,2.16,1.12,3.84,9.88-2.88c.36.39.64.73.86,1.01-.49,1.16-.48,2.47.06,3.81-.82.4-1.51.98-2.03,1.71-.95,1.32-1,2.96-.16,4.6l-.28.27c-1.27,1.38-1.32,2.66-1.13,3.49.08.38.23.7.41.99-4.31,4.67-3.63,11.57-3.59,11.87l.86,7.87,2.99-7.36c.02-.05.52-1.26,1.52-1.26h.49l.44-.23c1.75-.92,5.08-.84,8.33-.38-1.4.92-2.64,1.98-3.66,3.08-3.23,3.49-4.41,13.74.07,18.09l3.39,3.29v-4.72c0-.99.33-1.36.61-1.56,1.36-.98,4.77-.56,7.2.12,1.41,3.04,3.94,6.25,7.49,9.41-.54.89-1.29,1.91-2.35,3.16l-1.79,2.11,2.57,1.04c2.23.9,4.46,1.35,6.57,1.35,2.52,0,4.86-.64,6.84-1.91,2.27-1.47,4.98-4.42,5.72-10.23,3.71.49,8.18,2.34,11.96,4.58-2.01.67-4.13,2.13-6.09,5.17l3.36,2.17c1.37-2.12,2.68-3.14,4.1-3.58-1.87,2.52-3.52,5.88-3.63,9.45l4,.12c.06-2.04.89-4.11,1.96-5.88.23,3.15,1.09,6.78,3.63,8.75l2.45-3.16c-1.34-1.04-1.89-3.37-2.07-5.67,5.7,7.59,10.74,15.63,14.99,23.99l3.57-1.81ZM85.6,45.59c-1.65.91-3.38,1.49-5.22,2.02-1.2-2.17-3.66-5.74-7.65-7.69,3.43-.51,8.04.8,12.87,5.67ZM66.61,31.04c2.77-1.83,5.4-2.19,7.56-1.96-1.45.96-2.48,2.4-2.48,4.5v2.47c-1.5.28-2.85.79-3.99,1.47-1.02.61-1.54,1.75-1.34,2.92.2,1.17,1.09,2.06,2.25,2.29,3.9.75,6.46,3.88,7.81,6.05-.56.18-1.12.35-1.69.56-3.22,1.2-5.06,2.63-6.06,4.05-1.29-1.72-2.47-3.63-2.97-5.13,1.09-.74,1.82-1.99,1.82-3.41,0-2.26-1.83-4.1-4.08-4.1-.32,0-.63.05-.93.12-.32-2.93.07-7.15,4.11-9.82ZM57.47,64.5c-.75-.42-1.58-1.06-2.1-1.99-.65-1.17-.71-2.65-.16-4.42l.78-2.51s.03.01.05.01c.23.04.47.06.7.06.83,0,1.65-.26,2.34-.75.24-.17.45-.36.64-.57,1.38.68,2.95,1.99,4.29,3.3-2.62,1.26-5.05,3.59-6.54,6.87ZM47.78,31.47c0,.12-.16.12-.16,0,0-.06.04-.1.08-.1s.08.04.08.1ZM63.35,44.84c0-.06.04-.1.08-.1s.08.04.08.1c0,.12-.16.12-.16,0ZM59.82,46.71c.4.78,1.03,1.41,1.81,1.79.22.96.6,1.96,1.09,2.94-.69-.43-1.39-.8-2.1-1.08-.32-1.06-1.06-1.96-2.06-2.47.08-.05.17-.09.25-.15.4-.28.73-.64,1-1.03ZM56.77,51.63s-.04.01-.05.01c-.04,0-.08-.06-.07-.12l.09-.08s.08.06.03.19ZM56.5,44.48s-.04.01-.05.01c-.04,0-.08-.06-.07-.12l.09-.08s.08.06.03.19ZM49.52,20.1c2.45-2,4.77-2.07,6.6-1.53-.33.17-.63.36-.91.58-1.15.93-1.82,2.23-1.93,3.76-.3,4.25,3.94,9.7,5.81,11.88-.63,2.05-.76,4.15-.61,6.05-.4-.23-.84-.41-1.32-.49-.22-.04-.44-.05-.67-.05-1.21-1.18-3.82-3.82-5.57-6.34.53-.69.86-1.55.86-2.49,0-2.26-1.83-4.1-4.08-4.1-.2,0-.4.03-.59.06-.65-1.66-1-4.55,2.42-7.33ZM36.21,26.65c.94.4,2.02.33,2.89-.19.87-.51,1.43-1.39,1.53-2.4.08-.77.31-1.75.99-2.31.35.43.81,1.43,1.1,2.41-.26,2.28.36,4.37,1.17,5.87-.17.45-.27.93-.27,1.44,0,2.07,1.54,3.78,3.53,4.05.39.61.83,1.22,1.29,1.82-.92-.34-1.91-.62-3-.81-.49-1.32-1.64-2.35-3.11-2.61-1.07-.18-2.15.06-3.04.69-.61.43-1.07,1.02-1.37,1.7-1.76.05-3.36.32-4.8.8.07-.16.13-.31.17-.48.21-.88.04-1.81-.46-2.57-.3-.44-.35-.71-.35-.76.2-.27.48-.46.86-.58.92-.29,1.65-.97,2-1.88.35-.9.28-1.9-.2-2.74-.52-.9-.27-1.17-.11-1.34.19-.2.4-.43,1.16-.11ZM39.6,37.61l2.05.25s.08.06.03.19c-.02.02-.04.01-.05.01-.04,0-.08-.06-.07-.12l-1.97-.33h0ZM29.35,47.46c-.2.02-.39.05-.57.08.35-1.54,1.02-3.24,2.29-4.58,1.64-1.73,4.07-2.62,7.23-2.67.6.87,1.54,1.51,2.66,1.71.23.04.47.06.7.06.83,0,1.65-.26,2.34-.75.33-.23.6-.52.85-.83,4.15.74,6.68,3.22,7.58,4.25.12,1.42.97,2.67,2.23,3.3-.09.05-.18.09-.26.15-.21.15-.4.32-.57.5-2.82-.97-5.56-1.06-8.09-.58-2.31-.63-11.37-2.88-16.38-.64ZM37.21,65.75c-.12.08-.24.18-.36.28-.68-3.35.11-7.86,1.54-9.41,1.12-1.21,6.9-6.87,14.4-4.06.29,1.14,1.07,2.1,2.13,2.63l-1.95.32c-3.75.62-6.38,2.78-7.24,5.92-.29,1.05-.36,2.16-.25,3.31-2.56-.45-6.01-.63-8.28,1ZM49.59,62.49c.22-.83.68-1.44,1.24-1.89.04,1.41.4,2.71,1.07,3.9,1.15,2.02,2.98,3.21,4.36,3.87-.02.12-.05.24-.07.37-.26,1.63-.35,2.93-.43,4.09-.04.56-.07,1.07-.13,1.55-5.36-5.18-6.7-9.45-6.03-11.88ZM63.89,80.92c-1.88,1.21-4.42,1.55-7.11,1.01,2.47-3.47,2.75-5.66,2.97-8.83.07-1.06.16-2.27.39-3.72.99-6.12,5.36-8.64,8.06-8.84,1.96-.15,3.48-1.84,3.39-3.78-.06-1.24,1.6-2.58,4.54-3.68,1.31-.49,2.63-.86,4.03-1.25,3.81-1.07,7.74-2.17,11.42-5.71.77,2.23.75,4.55-.09,6.62-.86,2.12-2.52,3.83-4.86,5.07l.06-.21-3.75,1.58c-.92.39-1.9.54-2.85.69-1.6.25-3.41.53-4.4,2.15-.58.94-.66,2.05-.53,3.15-.02,0-.05,0-.07,0-4.34.25-7.01.71-7.12,6.67h0c-.18,4.34-1.58,7.48-4.07,9.08ZM72.32,69.55c.33-.25,1.74-.33,2.98-.4.74-.04,1.57-.09,2.51-.17l2.51-.22-.78-2.39c-.46-1.39-.47-2-.44-2.22.31-.13,1.05-.25,1.6-.33.22-.03.44-.07.68-.11,0,3.53,1.2,7.31,2.57,10.46-3.8-2.02-8.06-3.63-11.82-4.1.1-.42.2-.5.2-.5Z"/>
</svg>