<?xml version="1.0" encoding="UTF-8"?>
<svg id="Livello_3" data-name="Livello 3" xmlns="http://www.w3.org/2000/svg" viewBox="0 0 120 120">
  <defs>
    <style>
      .cls-1 {
        fill: #000;
        stroke-width: 0px;
      }
    </style>
  </defs>
  <path class="cls-1" d="M38.04,79.73h-3.93l-6.98,5.31v6.74l10.57,8v-6.33l12.64-.03-2.67,4.27,5.77,8.55,1.04.02.02,3.74h9.24v-3.71h1.15l5.29-8.74-2.62-4.1h14.16v6.32l10.57-8v-6.74l-6.98-5.31h-5.33l20.22-16.36h8.77v-10.56h-6.27v-3.8h-4.91v-10h-3.21v-2.27l-1.75-3h6.7v-8.75h-6.4v-2.49h-22.95v-2.15h-3.62v-6.08h-2.52v-4.27h-9.76v4.27h-2.52v6.08h-3.61v2.15h-22.95v2.49h-6.4v8.75h7.1l-1.75,3v2.27h-3.21v10h-5.67v3.8h-6.28v10.56h8.78l20.26,16.36ZM33.71,89.47v2.27l-2.57-1.95v-2.77l4.33-3.29h12.38v3.02h6.36v2.66h-1.35s-19.15.06-19.15.06ZM60.31,64.56l-.03,24.85h-2.08l.03-24.85h2.08ZM66.23,82.75h-1.94v-2.64h1.94v2.64ZM54.21,82.75h-2.37v-2.64h2.37v2.64ZM62.65,102.29h-2.9v3.71h-1.24v-3.67l-2.91-.05-3.15-4.67,2.62-4.19h7.72l2.69,4.2-2.83,4.68ZM83.99,83.73l4.33,3.29v2.77l-2.57,1.95v-2.28h-20.72l-.03-.05h-.71v-2.66h5.95v-3.02h13.76ZM105,56.81v2.56h-6.19l-25.17,20.36h-3.42v-3.62h-5.93l.02-11.55h1.64l4.5-6.89,13.9-4.66h14.38v3.8h6.27ZM90.61,37.82v5.19h3.21v6h-7.8v-15.28h2.2l2.39,4.08ZM64.06,25.71h2.15v.79h22.95v2.49h6.4v.75h-13.54v19.84l-12.09,4.05-4.63-6.58-1.23-.02v-21.31ZM55.18,50.99h3.12v-29.28h-2.52v-3.44h2.52v-4.27h1.76v4.27h2.52v3.44h-2.52v29.25l3.13.05,3.54,5.03-2.95,4.52h-8.76l-3.03-4.54,3.18-5.04ZM22.82,28.99h6.4v-2.49h22.95v-.79h2.13v21.28h-1.33l-4.22,6.68-12.99-4.11.67-19.83h-13.61v-.75ZM24.95,43.01h3.21v-5.19l2.38-4.08h1.74l-.51,15.28h-6.83v-6ZM13,56.81h6.28v-3.8h14.12l14.92,4.72,4.56,6.83h1.34v11.55h-6.39v3.62h-3.43l-25.21-20.36h-6.2v-2.56Z"/>
</svg>