<?xml version="1.0" encoding="UTF-8"?>
<svg id="Livello_3" data-name="Livello 3" xmlns="http://www.w3.org/2000/svg" viewBox="0 0 120 120">
  <defs>
    <style>
      .cls-1 {
        fill: #000;
        stroke-width: 0px;
      }
    </style>
  </defs>
  <path class="cls-1" d="M10.14,28.87h99.86V10H10.14v18.87ZM104,19.43l2-2.22v4.44l-2-2.22ZM103.51,24.87h-4.4l2.2-2.44,2.2,2.44ZM101.31,16.44l-2.2-2.44h4.4l-2.2,2.44ZM98.62,19.43l-4.89,5.43h-3.33c.81-.17,1.66-.51,2.54-1.03l-2.04-3.44c-1.16.69-1.72.64-1.9.59-.1-.03-.15-.06-.39-.29-.14-.13-.33-.29-.55-.44.38.09.76.15,1.16.15,1.16,0,2.41-.39,3.72-1.18l-2.04-3.44c-1.16.69-1.72.64-1.9.59-.1-.03-.15-.06-.39-.29-.42-.38-1.12-1.02-2.32-1.13-1.45-.11-2.47.61-3.08,1.05-.07.05-.16.12-.25.18-.33-.32-.87-.8-1.76-1.05-1.67-.48-3.53.11-5.69,1.78l2.43,3.14c-.77.32-1.57.81-2.43,1.47l2.45,3.16c1.52-1.17,2.13-1.1,2.12-1.11.07.05.13.11.18.17.35.34,1.01.97,2.15,1.12h-11.31l5.46-5.31-5.89-5.56h23.07l4.89,5.43ZM82.96,20.8c-.18-.17-.42-.38-.74-.59.08.01.14.04.22.05.57.07,1.07,0,1.5-.14-.29.17-.54.35-.74.49-.07.05-.16.12-.24.17ZM85.56,23.85c.09-.07.22-.16.32-.23.01.01.02.02.03.03.37.33.98.89,2,1.18.05.01.1.02.15.03h-4.73c1-.13,1.74-.66,2.22-1.01ZM84.84,19.72c.28-.16.52-.34.72-.48.09-.07.22-.16.32-.22.01,0,.02.02.03.03.18.17.43.39.75.6-.13-.03-.24-.07-.38-.08-.54-.05-1.02.02-1.44.15ZM80.93,19.7c-.91-.2-1.87-.09-2.9.33,1.46-1.11,2.05-1.04,2.04-1.05.07.05.12.11.18.17.16.15.39.36.68.56ZM70.77,19.6l-5.42,5.26h-2.64l6.36-5.54-6.1-5.32h1.85l5.94,5.6ZM60.07,21.87l-2.92-2.54,2.92-2.54,2.92,2.54-2.92,2.54ZM51.06,19.32l6.36,5.54h-2.34l-5.42-5.26,5.94-5.6h1.56l-6.1,5.32ZM43.89,19.56l5.46,5.31h-9.78c.81-.17,1.66-.51,2.54-1.03l-2.04-3.44c-1.16.69-1.72.64-1.9.59-.1-.03-.15-.06-.39-.29-.14-.13-.33-.29-.55-.44.38.09.77.15,1.16.15,1.16,0,2.41-.39,3.72-1.18l-2.04-3.44c-1.16.69-1.72.64-1.9.59-.1-.03-.15-.06-.39-.29-.42-.38-1.12-1.02-2.32-1.13-1.45-.11-2.47.61-3.08,1.05-.07.05-.16.12-.25.18-.33-.32-.87-.8-1.76-1.05-1.67-.48-3.53.11-5.69,1.78l2.43,3.14c-.77.32-1.57.81-2.43,1.47l2.45,3.16c1.52-1.17,2.13-1.1,2.12-1.11.07.05.13.11.18.17.35.34,1.01.97,2.15,1.12h-5.16l-4.89-5.43,4.89-5.43h23.37l-5.89,5.56ZM32.12,20.8c-.18-.17-.42-.38-.74-.59.08.01.14.04.22.05.57.07,1.07,0,1.5-.14-.29.17-.54.35-.74.49-.07.05-.16.12-.24.17ZM34.72,23.85c.09-.07.22-.16.32-.23.01.01.02.02.03.03.37.33.98.89,2,1.18.05.01.1.02.15.03h-4.73c1-.13,1.74-.66,2.22-1.01ZM34,19.72c.28-.16.52-.34.72-.48.09-.07.22-.16.32-.22.01,0,.02.02.03.03.18.17.43.39.75.6-.13-.03-.24-.07-.38-.08-.54-.05-1.02.02-1.44.15ZM30.09,19.7c-.91-.2-1.87-.09-2.9.33,1.46-1.11,2.05-1.04,2.04-1.05.07.05.12.11.18.17.16.15.39.36.68.56ZM21.03,24.87h-4.4l2.2-2.44,2.2,2.44ZM18.83,16.44l-2.2-2.44h4.4l-2.2,2.44ZM16.14,19.43l-2,2.22v-4.44l2,2.22Z"/>
  <path class="cls-1" d="M10,110h99.87V31.16H10v78.84ZM14.19,77.99l10.1-10.71h14.92c.98,0,1.9-.48,2.53-1.33l17.91-24.03,18.17,24.05c.63.83,1.54,1.31,2.51,1.31h15.16l10.21,10.67s.04.1.04.21v27.84h-15.33v-32.12h1.93v-4h-12.93v4h1.93v32.12h-42.86v-32.12h1.93v-4h-12.93v4h1.93v32.12h-15.21v-27.85c0-.11.03-.19,0-.16ZM86.4,73.88v32.12h-1.07v-32.12h1.07ZM34.47,73.88v32.12h-1.07v-32.12h1.07ZM105.87,35.16v37.19l-7.72-8.08c-.61-.64-1.41-.99-2.24-.99h-15.11l-18.64-24.67c-.63-.83-1.54-1.31-2.51-1.31h0c-.97,0-1.89.49-2.52,1.33l-18.37,24.65h-14.87c-.85,0-1.65.36-2.26,1.01l-7.61,8.07v-37.2h91.87Z"/>
  <rect class="cls-1" x="16.59" y="78.8" width="4" height="25.05"/>
  <rect class="cls-1" x="99.48" y="78.8" width="4" height="25.05"/>
  <path class="cls-1" d="M45.14,68.79c1.28,0,1.63,0,14.66-17.2l12.57,16.42,3.18-2.43-12.86-16.79c-.69-.9-1.75-1.42-2.89-1.42h-.01c-1.14,0-2.2.53-2.88,1.43-8.45,11.16-12.23,15.79-12.89,16.37.02-.01.44-.37,1.13-.37v4Z"/>
</svg>