<?xml version="1.0" encoding="UTF-8"?>
<svg id="Livello_3" data-name="Livello 3" xmlns="http://www.w3.org/2000/svg" viewBox="0 0 120 120">
  <defs>
    <style>
      .cls-1 {
        fill: #000;
        stroke-width: 0px;
      }
    </style>
  </defs>
  <path class="cls-1" d="M42.79,82.87c0,9.28,7.6,16.82,16.93,16.82s16.93-7.55,16.93-16.82-7.6-16.82-16.93-16.82-16.93,7.55-16.93,16.82ZM59.73,70.05c7.13,0,12.93,5.75,12.93,12.82s-5.8,12.82-12.93,12.82-12.93-5.75-12.93-12.82,5.8-12.82,12.93-12.82Z"/>
  <path class="cls-1" d="M33.96,85.13c0,14.26,11.68,25.87,26.04,25.87s26.04-11.6,26.04-25.87c0-12.34-8.94-23.02-21.01-25.38-.25-1.54-.74-5.37-.67-11.19,2.34.79,4.82,1.04,7.3.75,2.31-.26,4.57-1.06,6.51-2.29,1.9-1.18,3.55-2.89,4.75-4.89.32-.5.56-.99.78-1.45.27-.54.52-1.17.68-1.75.4-1.31.55-2.72.43-4.08-.22-2.3-1.19-4.52-2.93-6.59-1.84-2.14-3.83-3.68-5.6-5.04-.62-.48-1.22-.94-1.82-1.43-1.08-.88-3.61-2.93-3.54-4.4,0-.17.05-.48.24-.9.25-.52.49-.91.76-1.21.48-.57,1.15-.89,1.93-.91.86-.03,1.8.3,2.54.9.5.4,1.03,1.11.87,1.81l3.8,1.2c.83-2.05.24-4.57-1.49-6.4-1.45-1.57-3.41-2.57-5.47-2.81-2.26-.3-4.66.45-6.39,1.98-.76.65-1.43,1.42-2.07,2.4-.67,1.06-1.1,2.14-1.29,3.21-.22,1.19-.17,2.47.16,3.71.26.99.68,1.96,1.3,2.99,1.01,1.66,2.23,3.01,3.3,4.16.54.57,1.08,1.13,1.62,1.68,1.52,1.55,2.96,3.02,3.84,4.43.51.81.58,1.34.57,1.48-.01.12-.04.24-.1.37-.15.28-.41.75-.66,1.08-1.06,1.46-2.55,1.81-3.61,1.85h0c-6.81.26-8.74-7.36-8.82-7.67l-1.64-6.92-2.21,6.77c-.03.08-2.72,8.09-8.85,7.83-1.07-.04-2.57-.4-3.66-1.9-.22-.28-.47-.75-.6-.98-.09-.17-.11-.29-.13-.42-.01-.13.06-.66.57-1.48.87-1.4,2.31-2.87,3.83-4.43.54-.55,1.08-1.11,1.62-1.68,1.06-1.14,2.28-2.49,3.3-4.16.61-1.02,1.03-1.99,1.29-2.97.33-1.24.39-2.52.17-3.69-.19-1.09-.62-2.17-1.31-3.26-.62-.95-1.29-1.73-2.02-2.35-1.76-1.56-4.16-2.3-6.38-2.01-2.1.24-4.05,1.24-5.49,2.79-1.74,1.85-2.34,4.36-1.51,6.42l3.8-1.2c-.16-.7.37-1.41.88-1.82.73-.59,1.69-.93,2.56-.89.74.02,1.41.34,1.92.94.24.27.48.66.71,1.13.21.47.26.78.26.99.06,1.43-2.47,3.48-3.56,4.37-.58.48-1.19.95-1.8,1.42-1.76,1.36-3.76,2.9-5.61,5.06-1.72,2.06-2.7,4.27-2.91,6.58-.12,1.35.02,2.76.42,4.04.17.61.42,1.25.67,1.74.24.5.48.99.77,1.44,1.23,2.05,2.88,3.76,4.76,4.93,1.96,1.25,4.22,2.05,6.52,2.3,2.25.27,4.53.07,6.7-.57.24,4.75.09,8.6-.43,11.09-11.87,2.5-20.63,13.11-20.63,25.3ZM58.42,61.19s-.01-.09-.02-.14c.98-4.2.77-10.62.42-15.3l-.22-2.95-2.65,1.3c-2.25,1.1-4.72,1.53-7.19,1.23-1.71-.19-3.38-.78-4.84-1.71-1.36-.85-2.56-2.09-3.5-3.65-.19-.3-.36-.64-.57-1.09-.16-.31-.31-.71-.43-1.11-.25-.81-.34-1.71-.27-2.54.14-1.5.79-2.94,1.98-4.36,1.57-1.83,3.31-3.18,5-4.48.33-.26.67-.51.99-.77-.25.25-.49.51-.74.76-1.68,1.72-3.26,3.34-4.36,5.1-.89,1.42-1.29,2.81-1.16,4.02.07.63.24,1.22.57,1.87.21.39.56,1.03.94,1.51,1.56,2.14,3.93,3.38,6.7,3.49,5.42.23,8.85-3.34,10.78-6.39,1.99,3.32,5.54,6.6,11.04,6.39,2.76-.1,5.14-1.34,6.67-3.44.41-.53.76-1.17,1.01-1.63.29-.58.47-1.17.53-1.79.13-1.22-.27-2.61-1.15-4.02-1.11-1.78-2.69-3.4-4.37-5.11-.25-.25-.49-.5-.74-.76.33.26.66.51.99.77,1.69,1.3,3.43,2.65,4.99,4.46,1.2,1.44,1.86,2.87,2,4.37.07.83-.02,1.74-.28,2.58-.11.37-.26.76-.44,1.13-.19.41-.35.74-.58,1.1-.91,1.51-2.1,2.75-3.48,3.61-1.45.92-3.11,1.51-4.84,1.7-2.7.32-5.39-.22-7.78-1.55l-2.83-1.58-.14,3.24c-.44,10.15.76,15.71.81,15.94l.06.28.14.25c.04.08.07.15.1.22l.39,1.17,1.22.18c10.75,1.54,18.86,10.84,18.86,21.64,0,12.06-9.89,21.87-22.04,21.87s-22.04-9.81-22.04-21.87c0-10.76,8.08-20.06,18.79-21.63l2.02-.3-.34-2.02Z"/>
</svg>