<?xml version="1.0" encoding="UTF-8"?>
<svg id="Livello_3" data-name="Livello 3" xmlns="http://www.w3.org/2000/svg" viewBox="0 0 120 120">
  <defs>
    <style>
      .cls-1 {
        fill: #000;
        stroke-width: 0px;
      }
    </style>
  </defs>
  <path class="cls-1" d="M108.97,108c0-2.44,0-4.85.01-7.03.01-3.71.02-6.65-.01-8.12-.32-14.72-11.69-18.17-22.69-21.52-4.13-1.25-8.39-2.55-12.07-4.44l-2.39-1.76c2.35-2.5,4.09-5.45,5.58-7.99.27-.47.54-.92.8-1.36.68-1.14,1.17-2.73,1.52-4.57,1.97-1.27,6.48-4.72,6.05-9.39-.14-1.53-.86-6.6-4.17-7.38-.3-.07-.64-.11-1-.09.16-7.68-.11-12.76-.13-13.01l-.03-.24c-.81-4.52-4.21-7.64-10.42-9.53-7.88-2.41-16.13-2.04-23.22,1.03-5.18,2.25-7.93,5.19-8.19,8.75-.39,5.37-.48,10.64-.51,13.41-.35-.04-.71-.03-1.07.06-2.6.61-3.45,4.14-3.71,6.99-.42,4.54,3.64,7.75,5.47,8.95.35,2.03.87,3.78,1.6,5.01,2.26,3.78,4.6,6.84,6.99,9.18-4.32,2.44-14.1,7.79-25.76,12.93-11.36,4.26-12.59,11.48-12.64,11.78l-.02,20.33h99.97v-2ZM89.82,76.63l5.48,29.37h-21.39l1.16-34.3c3.25,1.39,6.7,2.44,10.05,3.46,1.61.49,3.18.97,4.7,1.47ZM69.85,58.4h-21.05v-6.86h21.05v6.86ZM71.03,47.54h-23.41l-5.47-8.51c.04-3.31.22-6.59.46-9.23.46-.82.97-1.33,1.52-1.52.75-.26,1.65.14,3.31.91.7.33,1.5.7,2.4,1.05,2.9,1.11,6.1,1.64,9.44,1.55,3.44.08,6.64-.44,9.54-1.55.89-.34,1.69-.72,2.4-1.05,1.66-.78,2.56-1.17,3.31-.91.55.19,1.06.7,1.52,1.52.24,2.63.41,5.92.46,9.23l-5.47,8.51ZM68.92,62.4c-2.36,2.49-5.35,4.26-9.6,4.21-2.93,0-5.88-1.41-8.83-4.21h18.43ZM73.96,55.11c-.04.07-.08.13-.12.2v-4.76l2.44-3.8c-.24,3.08-.71,5.65-1.51,6.97-.27.45-.54.91-.82,1.39ZM81.81,42.18c.1,1.11-.54,2.25-1.42,3.25.12-2.18.15-4.43.11-6.54.11-.15.21-.27.29-.35.35.54.85,1.79,1.01,3.65ZM48.43,16.28c6.22-2.7,13.48-3.01,20.46-.88,6.04,1.85,7.27,4.45,7.63,6.29.02.35.07,1.46.11,3.15-.26-.14-.53-.26-.81-.36-2.31-.79-4.34.16-6.3,1.08-.68.32-1.37.64-2.14.94-2.41.93-5.1,1.37-8.1,1.29-2.9.07-5.6-.36-8-1.29-.76-.29-1.46-.62-2.14-.94-1.96-.92-3.99-1.87-6.3-1.08-.13.04-.25.1-.38.15.05-.99.11-1.99.19-3,.17-2.43,3.24-4.26,5.79-5.37ZM37.34,42.18c.14-1.49.4-2.45.62-3.01.05.07.11.15.17.23-.02,1.77,0,3.63.09,5.45-.58-.8-.97-1.71-.88-2.67ZM42.36,46.75l2.44,3.8v4.69c-.31-.49-.62-.99-.93-1.51-.79-1.33-1.26-3.89-1.51-6.97ZM13,106v-15.82c.21-.83,1.73-5.44,10.11-8.57l.11-.04c13.2-5.82,24.05-11.9,27.48-13.87,2.8,1.93,5.68,2.91,8.6,2.91.08,0,.16,0,.23,0,3.77,0,6.76-1.11,9.21-2.79l2.4,1.77-.03.85c-1.7,13.67-34.41,30.01-47.88,35.56h-10.24ZM49.93,97.01c9.79-5.86,16.75-11.47,20.85-16.79l-.87,25.77h-36.93c4.74-2.25,10.88-5.36,16.94-8.99ZM104.99,100.95c0,1.58-.01,3.29-.01,5.04h-5.61l-5.17-27.74c6.19,2.65,10.6,6.49,10.78,14.68.03,1.42.02,4.48,0,8.02Z"/>
  <rect class="cls-1" x="83.3" y="80.37" width="4" height="21.4" transform="translate(-11.77 12.66) rotate(-7.94)"/>
</svg>