<?xml version="1.0" encoding="UTF-8"?>
<svg id="Livello_3" data-name="Livello 3" xmlns="http://www.w3.org/2000/svg" viewBox="0 0 120 120">
  <defs>
    <style>
      .cls-1 {
        fill: #000;
        stroke-width: 0px;
      }
    </style>
  </defs>
  <path class="cls-1" d="M110,60c0-27.57-22.43-50-50-50S10,32.43,10,60s22.43,50,50,50,50-22.43,50-50ZM47.59,53.83c2.74-1.15,5.39-2.02,7.9-2.59,2.47-.56,4.83-.85,7.03-.85,5.58,0,10.12,1.9,13.88,5.81,3.78,3.94,5.61,9.02,5.61,15.53,0,7.25-2.09,12.94-6.39,17.38-4.28,4.42-9.49,6.57-15.94,6.57-4.27,0-8.44-.97-12.41-2.88-2.83-1.34-5.45-3.04-7.77-5.03-1.3-1.13-1.5-1.68-1.51-1.68,0,0,0,0,0,0,0-.2.05-.28.14-.38.11-.11.14-.11.17-.11,0,0,.24.04.73.5,6.18,5.78,13.06,8.71,20.42,8.71,6.22,0,11.44-2.17,15.52-6.44,4.06-4.25,6.11-9.93,6.11-16.88,0-5.99-1.8-10.91-5.36-14.62-3.58-3.73-8.18-5.63-13.67-5.63s-10.78,1.42-16.07,4.21c-1.31.66-1.75.72-1.71.72-.16,0-.19-.03-.21-.05-.03-.03-.11-.21-.11-.62v-30.26h31.94c.86,0,1.13.16,1.13.16.06.05.11.1.11.33,0,.15-.03.2-.1.26,0,0-.26.18-1.15.18h-31.08v28.81l2.77-1.16ZM14,60c0-24.69,19.56-44.9,44-45.95v7.21h-18.04v34.26c0,1.36.39,2.48,1.16,3.32.81.88,1.9,1.35,3.16,1.35.86,0,1.91-.34,3.54-1.16,4.74-2.5,9.54-3.77,14.24-3.77,4.41,0,7.94,1.44,10.78,4.4,2.86,2.98,4.25,6.86,4.25,11.85,0,5.97-1.64,10.58-5.01,14.11-3.34,3.5-7.47,5.2-12.63,5.2-6.32,0-12.27-2.57-17.68-7.62-1.11-1.05-2.28-1.59-3.46-1.59s-2.22.46-3.07,1.34c-.82.85-1.25,1.94-1.25,3.15,0,1.49.92,2.98,2.9,4.7,2.6,2.23,5.52,4.12,8.66,5.61,3.98,1.92,8.16,3,12.45,3.22v6.31c-24.44-1.05-44-21.26-44-45.95ZM62,105.95v-6.35c6.48-.49,12.02-3.07,16.5-7.7,4.99-5.15,7.51-11.93,7.51-20.16,0-7.49-2.26-13.65-6.73-18.3-4.49-4.67-10.13-7.04-16.76-7.04-2.49,0-5.16.32-7.92.95-1.86.43-3.8,1-5.78,1.72v-18.88h27.08c1.69,0,2.95-.4,3.85-1.23.91-.84,1.4-1.95,1.4-3.21s-.48-2.42-1.4-3.26c-.89-.82-2.15-1.23-3.85-1.23h-13.9v-7.21c24.44,1.05,44,21.26,44,45.95s-19.56,44.9-44,45.95Z"/>
</svg>