<?xml version="1.0" encoding="UTF-8"?>
<svg id="Livello_3" data-name="Livello 3" xmlns="http://www.w3.org/2000/svg" viewBox="0 0 120 120">
  <defs>
    <style>
      .cls-1 {
        fill: #000;
        stroke-width: 0px;
      }
    </style>
  </defs>
  <path class="cls-1" d="M13.66,76.61l-3.67,4.39,5.6-1.15c1.3-.27,3.43-1.11,6.38-2.28,1.62-.64,3.45-1.36,5.32-2.05-5.21,4.31-10.89,10.15-16.36,18.03-.75,1.09-.59,2.52.39,3.41.49.45,1.1.67,1.71.67s1.17-.21,1.66-.62c3.58-3.05,7.77-6.03,11.54-8.53-.98,1.27-1.85,2.43-2.57,3.38-.84,1.11-1.49,1.99-1.85,2.41l-3.54,4.09,5.36-.81c5.06-.76,11.75-5.78,19.88-14.92,2.24-2.52,4.27-4.98,5.94-7.09h1.75c2.12,0,4.45.03,6.4.1-1.33,1.35-2.52,2.73-3.06,3.38l-4.15,4.97,6.23-1.77s1.18-.33,3.52-.81c-3.94,2.82-7.52,5.65-7.75,5.83l-.3.24-7.85,13.56,4.03-.56c-.21.26-.44.52-.68.78-4.09,1.64-6.24.15-6.33.09l-2.46,3.15c.07.06.83.65,2.2,1.08-1.22.34-2.55.5-3.99.36l-.39,3.98c.52.05,1.03.08,1.53.08,9.1,0,14.33-8.1,15.7-10.55.92-.45,2.32-1.36,2.82-2.93,1.58-1.05,2.98-1.95,4.25-2.75l-1.01,2.91,9.5,4.09c-1.07,1.46-1.56,3.12-.69,4.63l3.47-1.99c.09.16.1.32.09.37.07-.35.75-1.16,1.47-1.8,1.56-.23,6.84-.8,7.86,1.81-.01.15-.03.21-.03.21,0-.03.03-.08.06-.13.02.05.04.11.05.16l.58-.16-2.1,1.86c.34.38,1.39,1.43,2.72,1.43.29,0,.59-.05.9-.17,1.21-.46,1.83-1.64,1.83-3.5v-.27l-.07-.26c-1.47-5.38-8.22-5.69-12.42-4.96l-8.21-3.53,1.37-3.94c.86-.5,1.66-.95,2.44-1.39,2.22-1.26,4.32-2.45,6.93-4.14,19.34-1.81,29.28-13.78,32.67-18.88,1.1-1.65,1.68-3.58,1.68-5.59v-10.53l-.04-.4c-1.06-5.24-4.73-13.53-5.94-16.18.89-2.11,2.77-7.32,1.27-10.75l-.12-.23c-2.83-4.69-7.1-6.3-9.44-6.85-.17-.63-.48-1.35-1.02-2.06-1.45-1.9-3.99-3.07-7.56-3.48-2.74-.29-7.74.39-9.11,4.81l-.7,2.25,2.33.32c2.88.4,4.18,1.49,4.18,1.49l2.8,2.01c.14.1.3.18.45.27-.51,3.83.43,10.05,6.76,13.49,0,1.55-.27,3.46-.97,4.26-.18.21-.36.3-.63.31-4.1.23-18.21,1.44-18.81,1.49l-.49.04-.41.26c-.39.25-3.19,2.08-4.33,4.78-1.83-.21-2.96.02-3.52,1.28-2.57-.51-4.77,0-6.19,1.47-.98,1.01-1.51,2.37-1.6,4.06-5.85-3.77-10.61-14.78-12.12-19.29l-.28-.85-.83-.35c-2.83-1.21-4.75-.62-5.86.08-.93.59-1.57,1.43-2.01,2.3-1.15-.82-2.11-1.02-2.71-1.04-2.84-.58-4.75.28-5.85,1.12-1.71,1.29-2.54,3.22-2.95,4.74-2.15-.25-4.45.08-5.89,1.93l-.37.47-.05.59c-.58,6.9,5.41,13.72,17.79,20.28,1.06.56,2.11,1.09,3.15,1.6-7.52.86-18.02,3.7-25.28,12.4ZM82.34,103.27c.27-.11.52-.12.72-.1l-.37.33h-.74c.1-.09.23-.17.39-.23ZM58.48,66.52l.08.26c-.99-.09-1.81-.19-2.45-.27l.54-.76c.57.3,1.18.56,1.83.77ZM21.03,87.16c11.83-13.27,23.29-17.85,26.56-18.95-4.63,2.48-9.04,6.32-12.89,10.33-1.27.72-7.21,4.14-13.67,8.62ZM30.16,89.95c3.8-4.85,9.18-11.14,15.04-15.48-4.32,5.34-9.95,11.6-15.04,15.48ZM86.46,15.88c-.33-.28-1.22-.95-2.74-1.54,1.38-.47,2.98-.33,2.99-.32,3.93.45,5.11,1.89,5.22,2.82-.07.13-.14.26-.22.38-.28.42-.72.7-1.22.79-.53.1-1.07-.03-1.51-.34l-2.51-1.78ZM91.05,21.96s.1,0,.14-.01c1.54-.28,2.87-1.15,3.76-2.43,1.65.41,4.66,1.57,6.71,4.87.58,1.56-.22,4.71-1.16,7.06h-4.21c-5.26-2.55-5.46-7.32-5.25-9.49ZM74.32,44.69c2.65-.23,14.56-1.23,18.17-1.43,1.35-.08,2.54-.66,3.44-1.69,1.45-1.67,1.84-4.27,1.92-6.12h2.69c1.27,2.82,4.48,10.18,5.46,14.77v10.33c0,1.22-.35,2.38-1.01,3.38-3.1,4.66-12.25,15.66-30.18,17.15l-.51.04-.43.28c-2.69,1.77-4.75,2.94-7.12,4.28-3.21,1.82-6.85,3.88-13.01,8l-.88.54v1.07c-.08.17-.54.49-.94.67h-.11s3.36-5.79,3.36-5.79c1.52-1.19,8.56-6.66,13.08-9.34,1.03-.61,1.47-1.84,1.07-2.97-.4-1.13-1.51-1.8-2.69-1.62-1.76.26-3.31.52-4.64.77.5-.44.9-.73,1.14-.83,1.22-.47,1.6-1.54,1.44-2.39-.37-1.96-2.2-2.01-7.66-2.16-.75-.02-1.5-.03-2.19-.04l.68-1.12c5.64.74,27,2.81,35.64-6.67,4.45-3.22,4.58-10.9,4.58-11.77v-.5l-.24-.44c-.37-.68-4.04-6.6-19.6-4.01-.49.08-2.08-.21-3.39-.46.52-.71,1.27-1.41,1.93-1.89ZM61.39,51.37c.43-.44,1.38-.57,2.54-.33,1.39.28,2.82-.23,3.74-1.24.79.09,2.13.35,3.1.55,2.78.55,4.57.87,5.8.63,10.42-1.72,14.11.82,15.04,1.7-.13,2.13-.81,6.47-3.01,7.94l-.22.14-.17.2c-3.31,3.76-10.07,5.9-19.55,6.17-2.04.06-4.01.03-5.79-.05l-1.25-3.92-1.13-.24c-2.23-.48-3.85-1.69-4.33-3.23-.22-.7-.13-1.36.22-1.73.42-.44,1.28-.53,2.38-.25l3.18.82-.73-3.2c-.44-1.93-.37-3.37.19-3.95ZM39.98,35.6c.35-.22.86-.19,1.36-.06.63,1.71,2.12,5.53,4.33,9.54,1.85,3.35,3.76,6.04,5.73,8.09-3.87-3.45-7.75-8.2-12.52-15.2.13-.8.46-1.97,1.1-2.38ZM29.67,37.79c.68-.52,1.6-.63,2.8-.36l.35.08.16-.02c.22.07,1.04.44,2.18,2.12,6.47,9.58,11.44,15.26,16.88,19.22,0,.15-.01.29,0,.44-7.91-4.2-16.8-12.73-20.57-16.34-1.75-1.68-2.09-2-2.52-2.22-.21-.11-.48-.23-.77-.35.25-.92.71-1.98,1.49-2.57ZM21.97,43.44c1.16-.5,3.81.2,5.03.78.28.24,1.01.94,1.71,1.61,5.14,4.93,17.08,16.39,26.74,19.2.05.04.11.07.17.11l-2.22.73c-10.07-3.43-31.14-12.65-31.43-22.43ZM37.38,68.5c-.08.04-.16.09-.24.14-2.26.28-4.88.96-7.55,1.83,2.69-.97,5.35-1.58,7.78-1.97Z"/>
  <rect class="cls-1" x="95.4" y="22.49" width="4" height="2.76" transform="translate(11.6 75.77) rotate(-44.94)"/>
</svg>