<?xml version="1.0" encoding="UTF-8"?>
<svg id="Livello_3" data-name="Livello 3" xmlns="http://www.w3.org/2000/svg" viewBox="0 0 120 120">
  <defs>
    <style>
      .cls-1 {
        fill: #000;
        stroke-width: 0px;
      }
    </style>
  </defs>
  <path class="cls-1" d="M96.74,77.08c2.35-4.39,7.69-6.91,10.65-7.03.84-.04,1.6-.45,2.09-1.13.5-.7.65-1.57.41-2.41-2.42-8.34-11.7-10.29-16.4-10.74,1.99-4.33,6.83-8.3,14.41-11.81.84-.39,1.45-1.14,1.64-2.02.18-.84-.05-1.7-.62-2.35-6.73-7.68-16.43-4.65-22.7-1.9.97-2.97,1.98-7.59.9-12-.21-.86-.41-1.61-.58-2.29-1.05-4.06-1.24-4.8.39-9.73.33-1,.08-2.07-.65-2.81-.72-.73-1.78-.99-2.77-.68-9.61,3.07-15.09,10.32-18.14,16.7-.7-2.36-1.94-3.7-3.04-4.46v-1.37s-2.27.32-2.27.32c-.04,0-.12.02-.23.04l-2.12-.31v1.26c-1.11.76-2.35,2.1-3.06,4.46-3.06-6.37-8.53-13.63-18.15-16.7-.98-.31-2.04-.05-2.76.68-.73.74-.98,1.82-.65,2.81,1.63,4.93,1.45,5.66.39,9.73-.17.68-.37,1.43-.58,2.29-1.08,4.42-.07,9.03.9,12-6.27-2.75-15.97-5.78-22.7,1.9-.64.73-.85,1.73-.56,2.66.29.92,1.01,1.6,1.93,1.83,4.98,1.25,10.49,6.36,13.06,11.79-4.91.62-13.14,2.84-15.4,10.63-.24.83-.09,1.71.41,2.41.49.68,1.25,1.09,2.09,1.13,2.96.12,8.31,2.64,10.65,7.03,2.85,5.34,7.2,8.52,11.51,8.59-1.72,5.04-3.73,14.36.78,22.86.46.87,1.31,1.41,2.28,1.46.98.04,1.87-.42,2.4-1.23,3.19-4.86,7.44-8.18,9.74-9.76.55,1.06,1.33,2.43,2.35,3.87.59.83,1.58,1.26,2.6,1.12,1.01-.14,1.85-.84,2.19-1.81.97-2.76,1.57-4,2.68-4.28,1.37.11,1.99,1.22,3.08,4.34.34.97,1.18,1.66,2.19,1.8,1.01.14,2-.29,2.6-1.12,1.02-1.44,1.8-2.81,2.35-3.87,2.3,1.58,6.55,4.9,9.74,9.76.51.78,1.36,1.24,2.27,1.24.04,0,.09,0,.13,0,.97-.05,1.82-.59,2.28-1.46,4.51-8.5,2.5-17.82.78-22.86,4.32-.08,8.66-3.25,11.51-8.59ZM91.93,50.67c.07-1.6.48-3.25,1.59-4.6,1.39-1.68,3.99-2.3,6.53-2.44-3.51,2.18-6.21,4.52-8.12,7.03ZM82.66,24.42c.17.66.36,1.39.57,2.24.19.76.27,1.56.31,2.37-.43-1.17-.94-2.38-1.58-3.58-2.1-3.98-.75-8.65-.17-10.26.2-.09.39-.2.59-.29-1.07,3.9-.74,5.56.29,9.53ZM36.77,26.59c.21-.84.4-1.58.57-2.24,1.03-3.96,1.36-5.63.29-9.53.29.12.56.28.83.41.59,1.66,1.88,6.26-.19,10.2-.77,1.47-1.37,2.93-1.84,4.34,0-1.09.1-2.17.35-3.18ZM20.53,43.74c2.11.26,4.11.93,5.27,2.33,1.2,1.46,1.61,3.31,1.64,5.07-1.84-2.83-4.26-5.41-6.91-7.4ZM26.79,75.14c-1.79-3.35-4.91-5.94-8.12-7.5,2.19-.27,4.87.27,7.42,3.05,2.91,3.16,3.64,5.73,4.29,8,.13.44.25.89.4,1.33-1.59-1.22-2.99-3-3.99-4.87ZM40.68,101.7c.96-2.99,2.3-5.63,3.83-6.13.72-.24,1.56.1,2.36.66-1.73,1.25-3.97,3.07-6.19,5.46ZM67.03,96.01c-.25.55-.68,1.43-1.29,2.47-1.03-2.31-2.63-4.51-5.9-4.63-.22,0-.45,0-.67.05-2.63.5-3.99,2.44-4.91,4.52-.61-1.04-1.04-1.92-1.29-2.47-.33-.71-.94-1.25-1.68-1.47-.14-.04-.27-.06-.41-.08-2.61-2.51-5.16-3.41-7.59-2.62-3.13,1.01-5.08,4.65-6.27,8.2-.82-6.2,1.09-12.06,2.19-14.78.39-.96.21-2.04-.46-2.83-.51-.6-1.24-.93-2.01-.94-1.59-.69-1.9-1.7-2.51-3.83-.69-2.43-1.64-5.75-5.19-9.61-4.38-4.76-9.38-4.95-13.17-3.8,3.23-3.55,9.04-4.36,11.81-4.54.4.17.84.21,1.24.12,1.05-.22,1.77-1.22,1.64-2.29,0-.04-.03-.08-.03-.12.75-2.48,2.23-9.14-1.64-13.82-2.79-3.38-7.76-4-11.5-3.91,4.56-2.2,10.43-.43,17.56,2.96,1.05.5,2.25.29,3.08-.52.68-.67.94-1.64.74-2.55,0-1.1.16-6.73,3.05-12.21,1.64-3.1,1.78-6.36,1.46-9,2.84,2.35,5.26,5.42,7.22,9.2,2.86,5.5,3.72,10.62,3.81,11.18l3.95-.61c-.08-.52-.74-5.18,0-9.24.35-1.87,1.09-2.76,1.69-3.18.61.39,1.41,1.27,1.78,3.24.75,4.05.09,8.72,0,9.24l3.95.61c.09-.57.95-5.69,3.81-11.18,2.02-3.88,4.52-7.01,7.47-9.39-.34,2.66-.22,5.97,1.44,9.12,2.55,4.83,2.97,9.77,3.04,11.63,0,.02-.02.05-.03.07-.49,1.05-.27,2.3.55,3.12.82.82,2.03,1.02,3.08.52,7.07-3.36,12.9-5.12,17.44-3.01-3.78-.17-9.13.33-12.07,3.89-4.31,5.21-1.93,12.59-1.32,14.23.09.27.2.53.37.77.5.69,1.27,1.11,2.12,1.14,2.26.08,8.6.65,12.22,4.26-3.68-.83-8.25-.29-12.25,4.06-3.58,3.89-4.48,7.23-5.14,9.67-.62,2.26-.87,3.21-2.65,3.89-.93-.16-1.88.16-2.51.89-.67.78-.85,1.87-.46,2.83,1.11,2.73,3.03,8.61,2.19,14.83-1.21-3.11-3.14-6.36-6.09-7.52-1.75-.69-4.58-.91-8.12,1.91l.03.04s-.06.01-.08.02c-.74.23-1.36.76-1.68,1.48ZM73.26,96.4c.81-.31,1.53-.36,2.17-.11,1.63.64,2.97,2.96,3.93,5.52-2.18-2.35-4.37-4.16-6.1-5.41ZM90.11,79.31c.06-.21.11-.41.17-.62.62-2.27,1.31-4.84,4.23-8.01,2.39-2.6,4.91-3.24,7.05-3.1-3.29,1.55-6.51,4.18-8.34,7.61-.81,1.51-1.88,2.96-3.1,4.11Z"/>
  <path class="cls-1" d="M62.53,57.8h-6.88c-3.77-.18-7.05,1.77-8.34,5-1.19,2.97-.33,6.16,2.22,8.33,3.36,2.85,8.65,4.75,8.87,4.82l.69.22.66-.23c.55-.19,5.49-1.93,8.89-4.82h0c2.56-2.17,3.41-5.37,2.22-8.33-1.29-3.23-4.55-5.17-8.34-5ZM66.05,68.08c-2.27,1.93-5.57,3.32-6.97,3.85-1.41-.56-4.79-2.01-6.96-3.85-1.24-1.06-1.64-2.44-1.1-3.8.47-1.17,1.82-2.49,4.12-2.49.11,0,.23,0,.34,0h7.1s.11,0,.11,0c2.52-.15,3.97,1.25,4.46,2.48.54,1.36.14,2.75-1.1,3.8Z"/>
  <path class="cls-1" d="M80.49,56.29c-2.01-3.8-6.46-7.21-13.03-5.74v-.04c0-3.53-2.87-6.4-6.39-6.4h-3.95c-3.5,0-6.35,2.82-6.39,6.31-6.76-1.38-11.22,1.77-13.21,5.4-3.01,5.5-1.47,12.65,3.65,17,6.47,5.5,16.79,9.19,17.22,9.35l.73.21.66-.23c1.08-.37,10.71-3.78,17.24-9.33,4.96-4.22,6.39-11.02,3.47-16.54ZM74.43,69.77c-5.25,4.46-13.03,7.52-15.36,8.38-2.32-.89-10.29-4.11-15.32-8.38-4.13-3.51-4.49-8.82-2.73-12.03,1.31-2.4,3.61-3.66,6.53-3.66,1.12,0,2.32.18,3.6.55,1.48.88,3.57,2.03,4.95.5,1.36-1.52.1-3.45-1.3-5.24.27-1.03,1.2-1.8,2.32-1.8h3.95c1.2,0,2.2.89,2.37,2.05l-.91,2.13c-.36.86-.19,1.85.46,2.53.64.68,1.62.91,2.5.59l2.33-.84c3.97-1.07,7.39.27,9.14,3.58,1.67,3.15,1.59,8.12-2.52,11.62Z"/>
</svg>