<?xml version="1.0" encoding="UTF-8"?>
<svg id="Livello_3" data-name="Livello 3" xmlns="http://www.w3.org/2000/svg" viewBox="0 0 120 120">
  <defs>
    <style>
      .cls-1 {
        fill: #000;
        stroke-width: 0px;
      }
    </style>
  </defs>
  <path class="cls-1" d="M29.97,35c-3.3.78-6.41,2.18-9.23,4.14-6.78,4.73-10.83,12.38-10.83,20.48v51.11l24.05-.05,51.72.05-.52-1.62,7.45-9.77c1.22-.52,2.87-1.56,4.89-3.08.06,2.48.5,4.89.73,5.98l3.92-.82c-.59-2.83-.78-5.89-.54-7.61l2.62.94,1.35-3.76-1.25-.45c1.26-.7,2.79-.88,5.59-1.06l-.25-3.99c-2.23.14-3.94.32-5.42.77-.36-.61-.87-1.14-1.52-1.53l-4.33-2.6c.35-.58.59-1.24.58-1.97-.02-1.07-.58-2-1.56-2.64-2.18-1.4-5.7.27-10.46,4.96l-.26.26-1.59,3.46c-3.32-.75-9.62-1.54-15.8-2.08.08-.19.14-.37.19-.52l.09-.27.09-2.3c2.34.71,5.09,1.13,8.31,1.13.97,0,1.97-.04,3.02-.11.74-.05,1.41-.41,1.84-.99.41-.54.56-1.23.41-1.89l-1.63-7.46c.07-.66.23-2.29.36-3.64,1.46-.33,3.15-1.06,3.88-2.38.52-.95.48-2.03-.1-2.96-.63-1-2.19-4.34-2.89-5.89l-.9-10.12-.2.02.16-1.01c.05-.28.41-2.32,1.76-8.56.64-2.97-.52-5.69-3.28-7.63-5.8-4.1-17.96-4.39-25.6-.93-.05-1.28-.09-3.29-.09-6.44,0-4.27-2.59-7.7-7.29-9.64-6.58-2.71-17.28-2.2-20.44.98-1.05,1.06-1.36,2.46-.81,3.76.94,2.24,2.49,3.16,3.62,3.53,2.83.94,5.85-.47,6.74-.94.75-.18,1.47.36,1.85.71,1.4,1.3,2.44,4.07,1.71,6.86-.94,3.58-4.54,6.28-10.12,7.6ZM77.64,47.08c-3.57.34-6.43.72-8.73,1.45-.06-.17-.13-.34-.22-.5-1.3-2.32-4.57-1.95-5.64-1.83-3.52.4-7.86,2.45-11.53,4.55.09-.42.16-.85.19-1.28,7.75-4.85,21.09-4.41,26.2-4.03l-.26,1.64ZM47.71,48.81c.05,1.92-1.39,4.07-2.1,4.91-4.68,3.15-8.39,6.99-11.04,11.43-2.37,3.99-3.56,7.89-4.27,10.95-.33-2.53-.37-5.75.35-8.99,2.18-9.81,10.59-16.09,16.65-19.45.13.41.27.79.41,1.15ZM28.5,83.47c.71.9,1.5,1.1,2.03,1.11.02,0,.04,0,.06,0,2.11,0,2.51-2.06,3-4.67.56-2.93,1.5-7.82,4.4-12.7,1.34-2.25,3.01-4.32,4.96-6.22-.23,1.99-.1,4.04.41,6.1l.12.35c1.41,3.07,3.78,4.64,6.43,5.31l-1.5,2.58c-2.64.69-10.1,3.23-11.75,10.03-1.09,4.52-2.7,12.62-3.72,17.9-1.65-2.25-4.14-5.15-7.8-8.37-6.61-5.83-10.46-13.49-11.26-15.19v-7.5l14.22-10.28c-.57,1.37-1.04,2.82-1.38,4.35-1.61,7.24-.06,14.91,1.76,17.22ZM13.9,87.77c2.05,3.13,4.92,6.84,8.62,10.11,4.06,3.58,6.55,6.71,7.97,8.81l-16.59.04v-18.95ZM60.74,106.7v-15.42h-4v15.41l-20.36-.02c.9-4.69,2.93-15.15,4.19-20.39,1.24-5.13,8.08-6.93,9.32-7.21,3.48.17,10.49,1.44,11.49,4.49.37,1.14,1.35,4.13,3.82,4.24,1.93.87,10.93,10.15,14.82,18.91l-19.28-.02ZM83.47,104.71c-.91-1.96-2.06-3.98-3.34-5.96l3.68-2.6c1.77,1.21,3.15,2.02,4.23,2.56l-4.57,6ZM92.24,83.11l8.4,5.04s.05.04.07.05c-.53.46-1.07,1-1.64,1.64-3.67,3.12-6.58,5.22-8.03,5.81-.79-.24-2.73-1.33-4.71-2.65l3.66-7.93c.73-.7,1.5-1.37,2.25-1.97ZM82.22,92.38l-4.34,3.07c-1.94-2.65-4.01-5.11-5.93-7.07,5.3.53,9.22,1.11,11.41,1.53l-1.14,2.47ZM65.58,82.56c-.05.13-.11.27-.18.41-.07-.18-.15-.39-.23-.64-1.54-4.74-8.07-6.39-12.15-6.97l1.31-2.26c1.81-.1,3.58-.47,5.11-.94,1.01,2.74,3.03,5.32,6.26,7.17l-.13,3.22ZM62.78,69.2l-.43-2.51-2.34,1.02c-.1.04-9.85,4.19-12.8-1.78-.38-1.61-.46-3.21-.25-4.74.28-2.02,1.69-3.97,3.88-5.35,5.26-3.32,9.76-5.33,12.67-5.66.72-.08,1.2-.07,1.5-.04-.11.26-.29.58-.48.83-1.02.96-1.85,2.17-2.54,3.73-2.28,5.18,1.22,10.2,5.87,12.48.41.2.69.52.76.85.9,4.21,5.72,5.57,9.36,5.77l.94,4.32c-4.61.06-14.75-.75-16.13-8.91ZM80.13,64.28h-1.8l-.19,1.79c-.08.79-.24,2.4-.37,3.68-2.03-.18-4.88-.8-5.25-2.56-.33-1.54-1.39-2.86-2.91-3.6-2.37-1.17-5.39-4.07-3.97-7.28,1.54-3.5,3.44-4.39,12.68-5.28l.61,6.81.14.31c.2.44,1.73,3.82,2.77,5.77-.49.19-1.16.36-1.7.36ZM78.09,32.77c1.9,1.34,1.87,2.65,1.68,3.52-.48,2.22-.84,3.91-1.1,5.19-4.92-.41-18.68-1.01-27.84,3.89-.78-3.21-1.27-9.06,4.08-12.36,5.87-3.62,18.22-3.75,23.18-.24ZM41.09,17.6c-1.8-1.67-3.99-2.22-6.01-1.52l-.35.16c-.56.32-2.46,1.15-3.7.73-.27-.09-.65-.28-1-.88,1.67-1.16,8.99-2.28,15-.21,3.75,1.29,5.66,3.4,5.66,6.25,0,4.58.03,7.24.25,8.83-4.08,3.52-4.91,8.45-4.49,12.61-3.55,1.86-8.09,4.75-11.98,8.8l-20.58,14.87v-7.63c0-6.79,3.41-13.21,9.12-17.19,2.41-1.68,5.06-2.87,7.87-3.53,9.56-2.26,12.29-7.54,13.07-10.48,1.19-4.53-.58-8.69-2.86-10.81Z"/>
</svg>