<?xml version="1.0" encoding="UTF-8"?>
<svg id="Livello_3" data-name="Livello 3" xmlns="http://www.w3.org/2000/svg" viewBox="0 0 120 120">
  <defs>
    <style>
      .cls-1 {
        fill: #000;
        stroke-width: 0px;
      }
    </style>
  </defs>
  <path class="cls-1" d="M69.91,29.43c-3.5-1.73-6.59-3.27-7.6-5.05l.17-.15-1.39-2.75-1.51.31c-.26.05-26.68,12.34-27.91,35.06-.93,17.07,15.97,27.69,22.33,31.69,2.62,1.65,4.48,3.71,4.5,3.73l1.66,1.82,1.46-1.99s1.17-1.56,4.33-3.26c6.51-3.51,23.81-12.83,24.22-31.89,0-17.47-11.71-23.28-20.26-27.52ZM63.86,77.23l-4.81-2.1,3.52-3.2,4.8,2.12-3.51,3.17ZM71.37,75.83l4.11,1.82c-1.15.99-2.42,1.98-3.82,2.98l-3.78-1.65,3.48-3.15ZM71.78,45.82l-5.25,4.77-4.44-2.07,5.12-4.71,4.57,2.01ZM70.43,40.85l4.51-4.15c1.32.83,2.6,1.75,3.8,2.8l-3.71,3.37-4.6-2.02ZM85.76,51.96c.27,1.52.41,3.16.41,4.95,0,.04,0,.09,0,.13l-1.99,1.8-4.75-2.22,5.52-5.01.81.36ZM75.5,54.78l-5.05-2.36,5.33-4.85,5.15,2.27-5.44,4.94ZM48.26,61.23l3.56-3.27,4.47,1.93-3.62,3.29-4.41-1.95ZM49.43,66.12l-3.59,3.26-4.37-1.91,3.59-3.3,4.38,1.94ZM44.27,59.46l-6.16-2.73,3.49-3.19,6.2,2.68-3.52,3.24ZM55.04,54.99l3.86-3.55,4.41,2.06-3.78,3.43-4.5-1.94ZM60.32,61.63l5.18,2.24-3.7,3.36-5.14-2.28,3.65-3.32ZM63.57,58.68l3.67-3.34,5.05,2.36-3.54,3.21-5.18-2.24ZM58.17,46.69l-6.01-2.81,4.94-4.52,6.12,2.69-5.04,4.64ZM54.98,49.61l-3.96,3.64-6.19-2.67,4.13-3.78,6.02,2.81ZM40.81,48.84l-2.82-1.22c.71-1.6,1.57-3.18,2.6-4.74l4.45,2.08-4.23,3.88ZM37.57,51.8l-1.36,1.24c.12-.55.25-1.1.41-1.65l.95.41ZM41.06,62.41l-3.61,3.32-.49-.21c-.64-1.73-1.07-3.55-1.24-5.46l5.34,2.36ZM42.59,72.33l-1.01.92c-.55-.67-1.08-1.35-1.58-2.05l2.59,1.13ZM46.61,74.08l5.17,2.25-3.59,3.26c-1.35-1.08-2.66-2.21-3.89-3.41l2.32-2.1ZM49.86,71.13l3.57-3.24,5.14,2.28-3.54,3.22-5.17-2.25ZM65.81,68.99l3.73-3.39,4.85,2.1-3.78,3.42-4.8-2.13ZM72.79,62.66l3.44-3.12,4.74,2.22-3.32,3-4.86-2.1ZM84.9,63.59l.27.13c-.35,1.18-.82,2.41-1.43,3.67l-2.06-.89,3.22-2.91ZM84.18,46.9l-5.15-2.27,2.48-2.26c1.06,1.31,1.98,2.79,2.72,4.48l-.05.04ZM71.29,34.62l-4.87,4.48-6.11-2.69,5.17-4.73c.85.44,1.74.89,2.65,1.34,1.03.51,2.09,1.04,3.16,1.6ZM61.9,29.54l-5.58,5.11-5.67-2.49c3.29-2.64,6.39-4.56,8.28-5.62.69,1.14,1.73,2.11,2.98,3ZM47.3,35.05l5.79,2.55-4.86,4.44-5.22-2.44c1.27-1.54,2.7-3.06,4.29-4.55ZM51.45,82.04l4.35-3.95,4.81,2.09-5.07,4.59c-1.35-.86-2.73-1.77-4.09-2.73ZM64.06,85.32c-1.86,1-3.18,1.98-4.08,2.77-.32-.29-.7-.62-1.1-.95l5.76-5.21,3.04,1.32c-1.14.69-2.34,1.38-3.61,2.07ZM78.62,74.67l-4-1.77,3.81-3.45,3.28,1.42c-.86,1.25-1.88,2.51-3.09,3.8Z"/>
  <path class="cls-1" d="M108.94,43.05l-.19-.08c-.27-2.86-.71-3.56-1.15-4.02-.54-.57-1.28-.78-2.23-.91-.83-.11-2.02-.19-3.54-.22v-6.48c0-1.79-1.5-3.24-3.35-3.24h-3.86c.13-1.89-.29-4.46-2.45-7.18-2.77-4.48-8.45-4.93-11.85-4.74-.43-.81-1.16-1.71-2.26-2.78-3.18-3.07-8.49-3.89-13.34-2.08-.31-.46-.71-.93-1.18-1.38-.9-.85-2.59-1.01-3.53-.93-.94-.07-2.63.08-3.53.93-.48.45-.87.91-1.18,1.38-4.85-1.81-10.16-.99-13.34,2.08-1.1,1.07-1.84,1.96-2.26,2.78-3.41-.18-9.09.26-11.85,4.74-2.16,2.73-2.58,5.29-2.45,7.18h-3.86c-1.85,0-3.35,1.45-3.35,3.24v6.48c-1.52.03-2.71.11-3.54.22-.95.13-1.69.33-2.23.9-.44.46-.89,1.16-1.15,4.02l-.19.08c-1.59.66-2.41,2.23-1.91,3.64.05.14.07.28.1.42.3,1.5.87,3.09,3.84,4.69.2,2.9,1.12,6.35,2.7,8.74-1.67,2.08-2.49,4.85-2.51,8.39-1.28.86-2.46,2.09-2.57,5.38-.18,5.13,4.78,7.57,5.34,7.83.03.01,1.83.81,3.33,1.36.45,2.87,2.16,9.51,8.48,13.45,2.52,1.57,4.58,1.33,6.15,1.03,1.23,1.63,3.35,2.88,5.52,3.22h7.13c.08,0,.16.02.24.02h11.35c.56,3.44,2.2,9.79,6.72,9.79,5.22,0,7.26-4.04,7.35-4.21l.96-1.95-2.03-.79c-2.14-.84-4.28-1.87-5.97-2.83h7.84s.03,0,.05,0h7.16s.15-.02.15-.02c2.17-.33,4.29-1.59,5.52-3.22,1.57.3,3.64.53,6.15-1.03,6.32-3.93,8.02-10.58,8.48-13.45,1.5-.55,3.3-1.35,3.33-1.36.57-.26,5.52-2.69,5.34-7.83-.12-3.28-1.3-4.51-2.57-5.38-.02-3.54-.85-6.3-2.51-8.39,1.58-2.4,2.5-5.84,2.7-8.74,2.97-1.6,3.54-3.19,3.84-4.69.03-.15.05-.29.1-.42.51-1.41-.31-2.97-1.91-3.64ZM90.05,34.34c-.08.06-.22.13-.37.11-.33-.04-.69-.56-.91-1.34-.39-1.33.42-2.55,1.45-3.5-.61,1.22-.93,2.89-.17,4.73ZM75.48,22.91c-.08.06-.22.14-.37.11-.33-.04-.69-.56-.91-1.34-.56-1.92.8-3.37,1.94-4.2-.86,1.44-1.47,3.43-.66,5.43ZM43.86,17.48c1.14.83,2.5,2.28,1.94,4.2-.23.78-.58,1.3-.91,1.34-.15.02-.29-.05-.37-.11.81-2,.2-3.99-.66-5.43ZM29.78,29.61c1.03.95,1.84,2.17,1.45,3.5-.23.78-.58,1.3-.91,1.34-.15.02-.29-.05-.37-.11.76-1.84.43-3.51-.17-4.73ZM13.21,46.48c.95-.41,1.63-1.21,1.88-2.16l4.13,4.01v1.87c-1.13-.57-2.39-1.18-3.38-1.51-2.2-1-2.49-1.59-2.63-2.21ZM14.71,74.44c.06-1.72.36-1.91,1.02-2.33.17-.11.34-.24.5-.35,2.36-.96,3.33-.58,3.46-.54-2.85.6-4.28,2.06-4.98,3.23ZM27.64,87.09c-.79.86-1.39,1.6-1.88,2.25-.51-.8-.92-1.6-1.25-2.38.93-.27,2.02-.75,3.32-1.54.35-.22.62-.33.8-.38,0,.42-.24,1.23-.99,2.05ZM44.07,90.38l.27.08h.28c.08,0,.15,0,.22,0-.09.17-.23.36-.41.53-.47.43-.82,1.02-1.08,1.7-.12-1.42-.07-2.14-.04-2.44.15,0,.39.03.74.13ZM64.97,107c-.52,0-1.13-.9-1.66-2.27,1.22.7,2.5,1.33,3.66,1.86-.53.24-1.19.41-2,.41ZM76.67,90.25c.04.29.09,1.01-.04,2.44-.25-.68-.61-1.27-1.08-1.7-.18-.16-.31-.36-.41-.53.06,0,.14,0,.22,0h.28l.27-.08c.35-.1.59-.13.74-.13ZM92.36,87.09c-.75-.82-.98-1.63-.99-2.04.18.05.45.16.8.38,1.29.79,2.39,1.27,3.32,1.54-.33.77-.74,1.58-1.25,2.38-.48-.65-1.09-1.39-1.88-2.25ZM98.48,80.02h-1.59s-.11,1.89-.11,1.89c0,.02-.03.48-.16,1.22-.51-.14-1.28-.45-2.37-1.12-2.81-1.72-4.93-.97-5.98.3-1.55,1.88-1.06,5.1,1.14,7.49,1.09,1.18,1.73,2.05,2.11,2.64-.46.39-.94.76-1.49,1.1-1.41.88-2.32.69-3.69.42l-.24-.05c-1.26-.25-2.52.31-3.14,1.4-.42.74-1.59,1.64-2.97,1.89h-.71c.62-.86,1.08-1.88,1.22-3.08.3-2.57.27-4.37-.09-5.36-.2-.64-.71-1.45-1.6-1.98-1.02-.6-2.27-.71-3.73-.34-2.57.1-3.5,1.49-3.83,2.33-.73,1.87.32,3.98,1.55,5.09.4.57.41,2.54.06,3.28-.05.02-.08.03-.12.05h-12.75s-12.75,0-12.75,0c-.04-.02-.07-.03-.12-.05-.35-.74-.35-2.71,0-3.22,1.28-1.17,2.33-3.28,1.6-5.15-.33-.84-1.26-2.23-3.83-2.33-1.46-.37-2.72-.26-3.73.34-.89.52-1.4,1.33-1.6,1.98-.35.99-.39,2.79-.09,5.36.14,1.2.6,2.22,1.22,3.08h-.71c-1.38-.26-2.55-1.15-2.96-1.89-.62-1.09-1.88-1.65-3.13-1.41l-.25.05c-1.37.27-2.28.45-3.69-.42-.54-.34-1.03-.71-1.49-1.1.38-.59,1.02-1.46,2.11-2.64,2.2-2.39,2.69-5.61,1.14-7.49-1.05-1.27-3.17-2.02-5.98-.3-1.09.67-1.85.97-2.37,1.11-.13-.73-.16-1.19-.16-1.21l-.1-1.9h-1.6c-.81-.29-3.33-1.32-3.76-1.51-.05-.57-.02-1.33.34-1.96.4-.69,1.21-1.17,2.41-1.42,1.48-.31,2.63-1.4,3-2.86.38-1.48-.1-3.01-1.26-4.01-.75-.65-2.26-1.46-4.87-1,.25-2.29,1.03-3.93,2.38-5.07l1.74-1.46-1.67-1.54c-1.03-.95-1.95-3.12-2.43-5.42.04.02.08.04.11.06,1.03.51,1.68.84,2.19,1.01.26.09.52.13.78.13.48,0,.96-.15,1.37-.44,1.2-.86,1.38-2.67,1.38-3.67v-4.21l-4.95-4.81c.2,0,.39,0,.6-.01,1.82-.03,3.3-1.48,3.3-3.24v-6.47h3.96c.09,0,.17-.02.26-.03.01.24-.02.5-.15.79-.57,1.31-.37,2.78.56,3.93.85,1.05,2.15,1.66,3.49,1.66.29,0,.57-.03.86-.08,1.84-.37,3.28-1.88,3.94-4.14,1.25-4.3-2.05-7.62-5.03-9.41.24-.47.56-.97.98-1.48l.16-.23c1.81-3.04,6.62-3.04,8.6-2.9.32.02.63,0,.94-.07.17.43.25.9.08,1.3-.57,1.31-.37,2.78.56,3.93.85,1.05,2.15,1.66,3.49,1.66.29,0,.57-.03.86-.08,1.84-.37,3.28-1.88,3.94-4.14,1-3.43-.65-6.13-2.62-7.89,2.1-.76,4.74-.7,7.19.29,1.64.67,3.48.03,4.29-1.47.08-.15.23-.38.52-.67.19-.04.46-.07.62-.06l.36.08.36-.08c.15,0,.43.02.62.06.29.3.44.53.52.67.81,1.51,2.65,2.14,4.29,1.47,2.44-.99,5.09-1.05,7.19-.29-1.97,1.76-3.61,4.45-2.61,7.88.66,2.26,2.09,3.77,3.94,4.14.28.06.57.08.86.08,1.34,0,2.64-.6,3.49-1.66.92-1.15,1.13-2.61.56-3.93-.18-.41-.1-.88.08-1.3.3.06.62.09.94.07,1.98-.14,6.79-.14,8.6,2.9l.16.23c.42.51.73,1.01.98,1.48-2.98,1.79-6.28,5.11-5.03,9.41.66,2.26,2.09,3.77,3.94,4.14.28.06.57.08.86.08,1.34,0,2.64-.6,3.49-1.66.92-1.15,1.13-2.61.56-3.93-.12-.28-.16-.55-.15-.79.09,0,.17.03.26.03h3.96v6.47c0,1.76,1.48,3.21,3.3,3.24.21,0,.4,0,.6.01l-4.95,4.81v4.21c0,1,.18,2.81,1.38,3.67.41.29.88.44,1.37.44.26,0,.52-.04.78-.13.51-.17,1.16-.5,2.19-1.01.04-.02.08-.04.11-.06-.48,2.3-1.4,4.47-2.43,5.42l-1.67,1.54,1.74,1.46c1.35,1.14,2.13,2.78,2.38,5.07-2.61-.45-4.12.36-4.87,1-1.16,1-1.65,2.54-1.26,4.01.38,1.45,1.53,2.55,3,2.86,1.19.25,2,.72,2.4,1.41.36.61.41,1.37.36,1.97-.47.2-2.97,1.22-3.77,1.51ZM103.77,71.75c.17.12.33.25.51.36.66.42.96.61,1.02,2.33-.7-1.15-2.09-2.58-4.86-3.2.28-.14,1.28-.33,3.34.51ZM104.16,48.7c-.99.32-2.24.94-3.38,1.51v-1.87l4.13-4.01c.25.95.93,1.75,1.88,2.16-.14.63-.43,1.21-2.63,2.21Z"/>
</svg>