<?xml version="1.0" encoding="UTF-8"?>
<svg id="Livello_3" data-name="Livello 3" xmlns="http://www.w3.org/2000/svg" viewBox="0 0 120 120">
  <defs>
    <style>
      .cls-1 {
        fill: #000;
        stroke-width: 0px;
      }
    </style>
  </defs>
  <path class="cls-1" d="M44.18,85.9c0,8.13,6.74,14.74,15.03,14.74s15.03-6.61,15.03-14.74-6.74-14.74-15.03-14.74-15.03,6.61-15.03,14.74ZM59.21,75.16c6.08,0,11.03,4.82,11.03,10.74s-4.95,10.74-11.03,10.74-11.03-4.82-11.03-10.74,4.95-10.74,11.03-10.74Z"/>
  <path class="cls-1" d="M11.23,76.69l-1.82,1.07,6.9,10.33,1.62-.94c.15-.09,15.32-10.78,18.03-35.6,1.51-11.53-.3-19.79-4.31-30.06l21.38.06v.03h.67c.52,3.67.79,7.24.97,10.05.14,1.97.21,3.99.28,5.91.05,1.13.08,2.32.1,3.66-.95-.03-1.85-.08-2.73-.14-2.73-.19-4.94-.47-6.95-.88l-2.4-.49v12.77l2.4-.49c2.01-.41,4.22-.69,6.95-.88.85-.06,1.73-.1,2.66-.14-.05,1.51-.12,2.92-.21,4.29-.25,4.12-.6,7.4-1.1,10.45-10.09,2.53-17.24,11.43-17.24,21.79,0,12.42,10.31,22.52,22.98,22.52s22.98-10.1,22.98-22.52c0-10.36-7.15-19.26-17.24-21.79-.51-3.05-.85-6.34-1.1-10.46-.09-1.35-.16-2.75-.21-4.24.84.03,1.75.08,2.65.15,1.92.14,4.44.36,6.99.84l2.37.45v-12.7l-2.37.45c-2.54.48-5.07.7-7,.84-.92.07-1.85.12-2.71.15.02-1.33.05-2.52.1-3.64.06-1.89.14-3.91.28-5.91.18-2.81.45-6.38.97-10.06l22.05-.08c-4.01,10.27-5.81,18.53-4.31,30.02,2.71,24.86,17.88,35.55,18.03,35.64l1.62.94,5.73-8.58,1.1-1.72-1.72-1.1c-.12-.08-11.8-8.04-13.82-26.58v-.04c-.44-3.34-.43-6.87.03-10.49,1-7.88,4.26-15.59,9.4-22.31l5.59-7.29H10s5.59,7.29,5.59,7.29c5.15,6.71,8.4,14.43,9.4,22.31.46,3.62.47,7.14.03,10.53-2.02,18.54-13.7,26.5-13.79,26.56ZM28.96,39.09c-1.09-8.58-4.62-16.96-10.19-24.23l-.66-.86h36.92s45.68,0,45.68,0l-.66.85c-5.57,7.27-9.1,15.65-10.19,24.23-.5,3.95-.52,7.81-.04,11.49,1.78,16.27,10.38,25.15,14.06,28.26l-2.42,3.62c-3.6-3.31-12.65-13.29-14.63-31.43-1.52-11.66.64-19.82,5.15-30.79l1.14-2.77-29.33.08-1.39.02h-.7s-.27,1.68-.27,1.68c-.72,4.42-1.06,8.8-1.27,12.1-.14,2.05-.22,4.11-.28,6.02-.07,1.71-.11,3.56-.12,5.84v2.06s2.05-.05,2.05-.05c1.37-.03,3.17-.09,4.98-.22,1.44-.1,3.2-.25,5.08-.51v3.16c-1.88-.26-3.64-.41-5.07-.51-1.8-.14-3.59-.19-4.95-.22l-2.09-.05.04,2.09c.05,2.37.14,4.51.27,6.52.29,4.78.73,8.65,1.38,12.17l1.44-.26-.16,1.87c9.09,1.56,15.68,9.22,15.68,18.22,0,10.21-8.51,18.52-18.98,18.52s-18.98-8.31-18.98-18.52c0-9,6.59-16.66,15.67-18.22l-.16-1.88,1.45.27c.66-3.57,1.08-7.32,1.38-12.16.13-2.03.22-4.17.27-6.55l.04-2.08-2.08.04c-1.8.03-3.42.1-4.95.2-1.89.13-3.55.3-5.08.53v-3.1c1.53.23,3.2.4,5.09.53,1.55.1,3.18.17,4.98.2l2.05.04v-2.05c-.02-2.27-.06-4.14-.13-5.85-.07-1.94-.14-4-.28-6.02-.21-3.32-.55-7.7-1.27-12.12l-.27-1.68h-.09s-31.33-.1-31.33-.1l1.14,2.77c4.52,10.97,6.67,19.13,5.15,30.83-1.98,18.15-11.06,28.13-14.62,31.4l-2.42-3.63c3.68-3.11,12.28-11.99,14.05-28.24.48-3.68.47-7.56-.04-11.51Z"/>
</svg>