<?xml version="1.0" encoding="UTF-8"?>
<svg id="Livello_3" data-name="Livello 3" xmlns="http://www.w3.org/2000/svg" viewBox="0 0 120 120">
  <defs>
    <style>
      .cls-1 {
        fill: #000;
        stroke-width: 0px;
      }
    </style>
  </defs>
  <path class="cls-1" d="M76.65,77.64c9.41-7.18,16.33-14.26,20.79-21.31.52,1.1,1.45,1.97,2.67,2.3l1.08.3c.35.1.71.15,1.06.15.71,0,1.42-.2,2.05-.58,1.01-.61,1.75-1.66,2.01-2.87l3.53-16.26c.53-2.45-.83-4.87-3.11-5.5l-.83-.23c-.84-.23-1.71-.18-2.52.12-.17-1.64-.47-3.28-.9-4.92-2.67-10.19-10.77-17.49-20.63-18.6-7.79-.88-14.66,2.37-18.26,8.54-.78-1.28-2.18-2.14-3.79-2.14h-.57c-1.78,0-3.31,1.06-4.02,2.58-4.36-6.43-11.64-9.66-19.33-8.45-8.82,1.38-15.89,8.31-18.45,18.08-.43,1.63-.72,3.27-.9,4.89-.79-.29-1.64-.32-2.46-.1l-.83.23c-2.28.63-3.64,3.05-3.11,5.5l3.53,16.26c.26,1.21,1,2.26,2.01,2.87.64.38,1.34.58,2.05.58.35,0,.71-.05,1.06-.15l1.08-.3c1.19-.33,2.12-1.17,2.64-2.25,4.46,7.03,11.37,14.09,20.76,21.25,2.74,2.09,4.97,4.79,6.57,7.86-9.95.62-39.8,3.21-39.8,12.01,0,9.8,32.7,12.39,49.99,12.39s49.99-2.59,49.99-12.39c0-8.84-29.98-11.42-39.91-12.02,1.6-3.06,3.83-5.76,6.56-7.84ZM104.83,37.5l.83.23c.14.04.36.38.27.8l-3.53,16.26c-.05.21-.15.29-.14.3l-1.08-.3c-.07-.02-.25-.28-.17-.62l3.53-16.26c.05-.21.15-.34.3-.4ZM73.48,34.92c-1.49-2.34-1.36-5.46.37-9.02,1.21-2.48,4.24-3.07,6.68-2.79,3.66.41,8.51,3.07,10.12,9.19,2.75,10.48-4.19,21.88-21.2,34.86-3.03,2.32-5.69,5.12-7.88,8.34-.81,1.19-2.44,1.19-3.25,0-2.19-3.22-4.84-6.02-7.88-8.34-17.01-12.98-23.95-24.39-21.2-34.86,1.27-4.84,4.42-8.1,8.43-8.73,3.23-.5,6.24.9,7.85,3.66.91,1.55,1.23,2.86.97,4-.19.81-.69,1.7-1.46,2.57-1.76,1.98-2.09,4.95-.84,7.38l.06.13c.94,1.82,2.67,3.06,4.62,3.3,1.92.24,3.77-.46,5.08-1.94.59-.66,1.13-1.35,1.61-2.05.78,1.09,2.06,1.81,3.5,1.81h.84c1.11,0,2.12-.43,2.88-1.13.17.31.35.6.52.87,1.12,1.76,2.99,2.81,5.01,2.81h.04c2.05-.01,3.95-1.11,5.08-2.93l.13-.22c1.29-2.08,1.24-4.79-.11-6.93ZM59.22,20.64h.57c.25,0,.45.2.45.45v8.18c-.12,1.32-.1,2.57,0,3.74v5.13c0,.17-.14.31-.31.31h-.84c-.17,0-.31-.14-.31-.31v-6.11c.09-.96.1-2,0-3.13v-7.79c0-.25.2-.45.45-.45ZM18.78,54.78l-1.05.3s-.13-.09-.18-.3l-3.53-16.26c-.09-.41.13-.75.27-.79l.9-.21c.08.05.19.18.23.39l3.53,16.26c.07.34-.1.6-.17.62ZM95.29,92.83c10.04,2.41,10.71,4.65,10.71,4.68,0,2.85-16.23,8.39-45.99,8.39s-45.99-5.54-45.99-8.39c.07-1.34,9.64-6.7,37.43-8.1.52,1.63.88,3.33,1.06,5.06.04.37.05.6.05.61.19,3.42,2.88,6.1,6.13,6.1h2.59c3.18,0,5.84-2.64,6.04-6.09,0-.06.02-.27.05-.61.18-1.74.54-3.44,1.07-5.08,10.22.52,19.71,1.73,26.84,3.44ZM63.4,94.06c-.05.47-.07.76-.07.88-.07,1.25-.98,2.23-2.05,2.23h-2.58c-1.12,0-2.06-1.02-2.13-2.34,0-.04-.02-.32-.07-.78-.81-7.83-4.76-14.97-10.82-19.6-20.23-15.44-28.21-30.03-24.39-44.6,2.15-8.2,7.98-14,15.2-15.14.85-.13,1.69-.2,2.52-.2,5.54,0,10.56,2.9,13.51,7.93,1.43,2.45,2.06,4.7,2.26,6.65v2.74c-.06.59-.16,1.14-.27,1.62-.55,2.36-1.74,4.56-3.52,6.56-.58.65-1.25.67-1.6.63-.66-.08-1.23-.51-1.57-1.17l-.06-.13c-.5-.96-.38-2.16.27-2.9,1.23-1.39,2.02-2.84,2.36-4.33.5-2.18.03-4.44-1.41-6.91-2.47-4.22-7.04-6.36-11.93-5.6-5.63.88-10,5.24-11.68,11.67-3.2,12.21,4.21,24.99,22.64,39.06,2.69,2.06,5.05,4.55,7,7.41,1.16,1.7,2.95,2.67,4.93,2.67,1.98,0,3.77-.97,4.93-2.67,1.95-2.86,4.31-5.36,7-7.41,18.44-14.07,25.84-26.85,22.64-39.06-2.12-8.08-8.61-11.59-13.54-12.15-3.79-.43-8.61.66-10.73,5.01-3,6.16-1.74,10.43-.15,12.92.54.84.57,1.89.09,2.67l-.13.22c-.41.65-1.03,1.03-1.71,1.04-.68.02-1.26-.35-1.65-.96-1-1.57-2.17-4.06-2.46-7.34v-3.04c.2-2.35.87-4.99,2.29-7.92,2.62-5.38,8.31-8.26,14.86-7.52,8.21.93,14.97,7.07,17.21,15.64,3.82,14.57-4.16,29.16-24.39,44.6-6.06,4.63-10.01,11.77-10.82,19.6Z"/>
</svg>