<?xml version="1.0" encoding="UTF-8"?>
<svg id="Livello_3" data-name="Livello 3" xmlns="http://www.w3.org/2000/svg" viewBox="0 0 120 120">
  <defs>
    <style>
      .cls-1 {
        fill: #000;
        stroke-width: 0px;
      }
    </style>
  </defs>
  <path class="cls-1" d="M51.5,78.1c-.29.18-.63.4-1.07.69-4.02.97-11.69,3.04-11.69,10.77,0,3.8,4.77,7.63,13.91,8.76v.79h-4.06c-4.1,0-7.08,1.89-7.08,4.49,0,.14,0,.41-.02.74-.03.98-.07,2.47-.02,3.72l.07,1.93h32.65l2.05-.02-.06-2.05c0-.26,0-2.07,0-3.29v-1.03c0-2.6-2.97-4.49-7.07-4.49h-3.75v-1.01c7.08-1.21,11.99-4.25,12.62-8.23.33-2.07.58-8.97-10.11-11.07-1.63-.32-3.08-1.21-4.05-2.46l-2.6-32.74h.12s.02-.11.02-.11c.96-.2,1.98-.52,3.07-1.03l-1.69-3.62c-.13.06-.26.11-.38.16.93-3.38,2.39-7.08,3.82-7.9.84-.48,1.25-1.47,1-2.41-.25-.93-1.1-1.59-2.07-1.59h0c-1.08,0-2.17.02-3.26.04-.17,0-.34,0-.51,0v-2.2c3.36-1.37,6.3-3.08,7.53-3.83l12.39.04-11.46-11.17-2.71,6.79c-3.45-.65-8.3-.61-12.16,1.82,1.22-2.15,2.05-4.56-.07-6.16-1.41-1.06-2.73-1.03-3.6-.81-2.45.62-3.82,3.37-4.07,3.91l3.64,1.67c.26-.57.77-1.24,1.13-1.54-.33.74-1.02,1.82-1.48,2.55-1.45,2.27-2.81,4.42-2.05,6.42.26.69.88,1.6,2.35,2.02.71.2,1.49.29,2.31.29,1.33,0,2.78-.25,4.24-.64v.86c-1.25,0-2.53-.02-3.87-.07-.9-.02-1.75.47-2.14,1.29-.39.81-.27,1.78.31,2.47.8.95,3,5,4.1,8.33l-2.11,3.11c.09.06,1.13.74,2.85,1.15l.03.4.42-.02-2.84,32.11c-1.45,1.44-1.7,1.61-2.58,2.16ZM71.29,17.04l.1.1h-.14s.04-.1.04-.1ZM56.39,22.44c1.55-1.22,3.39-1.76,5.15-1.94-1.73.79-3.51,1.49-5.15,1.94ZM58.99,65.84l.73,9.24h-1.55s.82-9.24.82-9.24ZM72.2,103.87v.76c0,.53,0,.99,0,1.37h-26.73c0-.56.02-1.1.04-1.54,0-.23.01-.43.02-.59.33-.26,1.39-.75,3.08-.75h4.72c.48.47,2.4,2.11,5.7,2.11s5.22-1.64,5.7-2.11h4.41c1.69,0,2.74.49,3.07.75ZM61.37,100.65c-.48.27-1.26.58-2.36.58s-1.88-.31-2.36-.58v-2.01c.57.02,1.13.04,1.73.04,1.03,0,2.02-.04,2.99-.11v2.08ZM67.12,82.73c3.53.69,7.6,2.38,6.93,6.51-.36,2.22-6.14,5.43-15.67,5.43s-15.64-3.08-15.64-5.11c0-4.02,3.29-5.6,8.97-6.96l.35-.08.3-.2c.55-.37.95-.62,1.27-.83,1.05-.67,1.52-.98,2.96-2.4h4.29c1.56,1.86,3.77,3.17,6.23,3.65ZM61.1,31.16c-.9,1.62-1.61,3.5-2.15,5.22-.71-1.84-1.6-3.69-2.42-5.19,1.58.01,3.09,0,4.57-.02Z"/>
</svg>