<?xml version="1.0" encoding="UTF-8"?>
<svg id="Livello_3" data-name="Livello 3" xmlns="http://www.w3.org/2000/svg" viewBox="0 0 120 120">
  <defs>
    <style>
      .cls-1 {
        fill: #000;
        stroke-width: 0px;
      }
    </style>
  </defs>
  <path class="cls-1" d="M106.59,54.45l-2.17-2.13c-.82-.8-1.9-1.25-3.04-1.25h-1.06c-.11,0-.19-.06-.24-.1-.04-.04-.12-.14-.11-.29l.17-6.12c.03-1.2-.41-2.33-1.24-3.19-.82-.85-1.92-1.32-3.1-1.32h-1.38c-.09,0-.17-.04-.24-.11-.05-.05-.11-.15-.11-.29l.2-10.35c.01-.6-.22-1.2-.64-1.63-.42-.43-1.01-.68-1.59-.68l-6.52-.04c-.12,0-.23-.07-.3-.18l-4.47-7.88c-.77-1.36-2.22-2.21-3.78-2.21h-4.89c-.09,0-.18-.04-.25-.11l-4.76-5.16c-.82-.89-1.98-1.4-3.19-1.4h-8.03c-1.21,0-2.37.51-3.19,1.4l-4.76,5.16c-.07.07-.15.11-.25.11h-4.89c-1.56,0-3,.85-3.78,2.21l-4.47,7.88c-.06.11-.18.18-.3.18l-6.37.04c-.65,0-1.25.26-1.7.72-.45.46-.7,1.09-.68,1.73l.2,10.21c0,.14-.06.24-.11.29-.07.07-.15.1-.24.1h-1.38c-1.18.01-2.27.48-3.1,1.33-.83.86-1.27,1.99-1.24,3.19l.17,6.12c0,.15-.07.25-.11.29-.05.05-.13.1-.24.1h-1.06c-1.14,0-2.22.44-3.04,1.25l-2.37,2.33-2.94,5.12,1.86,3.26c.13.96.58,1.86,1.27,2.54l2.17,2.13c.82.8,1.9,1.25,3.04,1.25h1.06c.11,0,.19.06.24.1.04.04.12.14.11.29l-.17,6.12c-.03,1.2.41,2.33,1.24,3.19.82.85,1.92,1.32,3.1,1.32h1.38c.09,0,.17.04.24.11.05.05.12.15.11.29l-.19,10.03c-.01.69.24,1.35.73,1.85.48.5,1.13.77,1.82.78l6.2.04c.12,0,.23.07.3.18l4.47,7.88c.77,1.36,2.22,2.21,3.78,2.21h4.89c.09,0,.18.04.25.11l4.76,5.16c.82.89,1.98,1.4,3.19,1.4h8.03c1.21,0,2.37-.51,3.19-1.4l4.76-5.16c.07-.07.15-.11.25-.11h4.89c1.56,0,3-.85,3.78-2.21l4.47-7.88c.06-.11.18-.18.3-.18l5.24-.03c.94,0,1.83-.38,2.49-1.06.67-.69,1.03-1.59,1.01-2.55l-.17-9.05c0-.14.06-.24.11-.29.07-.07.15-.1.24-.1h1.38c1.18-.01,2.27-.48,3.09-1.33.83-.86,1.27-1.99,1.24-3.19l-.17-6.12c0-.15.07-.25.11-.29.05-.05.13-.1.24-.1h1.06c1.14,0,2.22-.44,3.04-1.25l2.17-2.13,3.43-4.89-1.54-3.15c-.69-1.5-1.15-2.34-1.88-3.06ZM103.65,62.83l-2.03,2c-.06.06-.15.1-.23.1h-1.06c-1.18,0-2.28.47-3.11,1.32-.83.86-1.28,1.99-1.24,3.2l.17,6.12c0,.14-.06.24-.11.29-.05.05-.12.1-.24.11h-1.38c-1.17.01-2.26.48-3.08,1.32-.83.85-1.27,1.97-1.25,3.16l.17,8.59-4.75.03c-1.12,0-2.18.46-2.97,1.22l-6.13-7.89-3.16,2.46,7.03,9.04-2.99,5.26c-.06.11-.18.18-.3.18h-4.89c-.61,0-1.21.13-1.75.38l-3.46-4.93-3.27,2.3,3.75,5.33-3.21,3.48c-.07.07-.15.11-.25.11h-8.03c-.09,0-.18-.04-.25-.11l-3.7-4.02,3.37-5.17-3.35-2.18-3.23,4.95c-.34-.08-.68-.14-1.03-.14h-4.89c-.12,0-.23-.07-.3-.18l-3.48-6.13,6.6-8.49-3.16-2.46-5.94,7.64c-.67-.41-1.44-.65-2.25-.66l-4.75-.03.17-8.59c.02-1.19-.42-2.32-1.25-3.16-.82-.84-1.91-1.3-3.08-1.31h-1.38c-.11,0-.19-.06-.24-.11-.05-.05-.12-.15-.11-.29l.17-6.12c.03-1.2-.41-2.34-1.24-3.2-.83-.85-1.93-1.32-3.11-1.32h-1.06c-.09,0-.17-.04-.23-.1l-2.17-2.13c-.07-.07-.12-.18-.12-.29v-.53l-1.21-2.12,1.52-2.66,1.97-1.94c.06-.06.15-.1.23-.1h1.06c1.18,0,2.28-.47,3.11-1.32.83-.86,1.28-1.99,1.24-3.2l-.17-6.12c0-.14.06-.24.11-.29.05-.05.12-.1.24-.11h1.38c1.17-.01,2.26-.48,3.08-1.31.83-.85,1.27-1.97,1.25-3.16l-.17-8.59,4.75-.03c.51,0,1-.11,1.46-.28l6.99,9,3.16-2.46-7.33-9.43,3.93-6.92c.06-.11.18-.18.3-.18h4.82l4.64,6.6,3.27-2.3-4.29-6.1,4.39-4.76c.07-.07.15-.11.25-.11h8.03c.09,0,.18.04.25.11l4.08,4.42-4.53,6.44,3.27,2.3,4.68-6.65c.15.02.29.05.44.05h4.89c.12,0,.23.07.3.18l3.7,6.52-7.64,9.83,3.16,2.46,7.13-9.17c.58.28,1.21.45,1.88.45l4.75.03-.16,8.59c-.02,1.19.42,2.32,1.25,3.16.82.84,1.91,1.3,3.08,1.31h1.38c.11,0,.19.06.24.11.05.05.12.15.11.29l-.17,6.12c-.03,1.2.41,2.34,1.24,3.2.83.85,1.93,1.32,3.11,1.32h1.06c.09,0,.17.04.23.1l2.17,2.13c.23.22.46.59,1.06,1.9l.54,1.11-1.74,2.52Z"/>
  <path class="cls-1" d="M66.19,51.81h-11.62c-3.53,0-6.41,2.88-6.41,6.41v4.77c0,3.53,2.87,6.41,6.41,6.41h11.62c3.53,0,6.41-2.88,6.41-6.41v-4.77c0-3.53-2.88-6.41-6.41-6.41ZM68.6,62.99c0,1.33-1.08,2.41-2.41,2.41h-11.62c-1.33,0-2.41-1.08-2.41-2.41v-4.77c0-1.33,1.08-2.41,2.41-2.41h11.62c1.33,0,2.41,1.08,2.41,2.41v4.77Z"/>
  <path class="cls-1" d="M55.2,47.97h10.11v-7.34c.96-.87,2.35-2.43,2.39-4.23.08-3.43-4.8-6.16-6.3-6.92l-.93-.47-.92.49c-1.96,1.04-6.52,3.83-6.51,7.08,0,1.64,1.24,3.13,2.15,4.01v7.39ZM59.2,43.97v-2.28h2.11v2.28h-2.11ZM60.52,33.57c1.62.96,3.07,2.2,3.18,2.72-.05.29-.54.89-1.11,1.4h-4.63c-.42-.42-.79-.88-.89-1.14.23-.64,1.75-1.94,3.45-2.98Z"/>
  <path class="cls-1" d="M65.43,72.45h-10.11v7.34c-.96.87-2.35,2.43-2.39,4.23-.08,3.43,4.8,6.16,6.3,6.92l.93.47.92-.49c1.96-1.04,6.52-3.83,6.51-7.08,0-1.64-1.24-3.13-2.15-4v-7.38ZM61.43,76.45v2.28h-2.11v-2.28h2.11ZM60.11,86.86c-1.62-.96-3.07-2.2-3.18-2.72.05-.28.54-.89,1.11-1.4h4.63c.42.42.79.88.89,1.14-.23.64-1.75,1.94-3.45,2.98Z"/>
  <path class="cls-1" d="M84.97,54.08h-.02c-1.46,0-2.74,1.05-3.55,1.92h-6.39v9.47h6.35c.8.92,2.14,2.1,3.74,2.14.03,0,.05,0,.08,0,2.99,0,5.24-4.04,6.07-5.79l.42-.88-.44-.88c-.9-1.8-3.32-5.98-6.26-5.98ZM79.01,60h1.31v1.47h-1.31v-1.47ZM85.17,63.56c-.22-.14-.55-.44-.85-.78v-4.04c.22-.23.47-.46.66-.58.54.37,1.45,1.55,2.19,2.82-.67,1.18-1.52,2.27-2,2.58Z"/>
  <path class="cls-1" d="M35.8,54.08h-.02c-2.94,0-5.36,4.18-6.26,5.98l-.44.88.42.88c.83,1.75,3.08,5.79,6.08,5.79.03,0,.05,0,.08,0,1.6-.04,2.93-1.22,3.74-2.14h6.35v-9.47h-6.39c-.81-.87-2.09-1.91-3.55-1.92ZM36.43,62.78c-.28.32-.61.64-.85.78-.49-.31-1.33-1.4-2.01-2.59.75-1.27,1.66-2.45,2.19-2.82.18.13.43.34.66.59v4.04ZM41.74,61.46h-1.31v-1.47h1.31v1.47Z"/>
</svg>