<?xml version="1.0" encoding="UTF-8"?>
<svg id="Livello_3" data-name="Livello 3" xmlns="http://www.w3.org/2000/svg" viewBox="0 0 120 120">
  <defs>
    <style>
      .cls-1 {
        fill: #000;
        stroke-width: 0px;
      }
    </style>
  </defs>
  <path class="cls-1" d="M30.55,20.54l-1.06-1.33-4.63,2.62c-.76-3.74-2.47-7.28-2.57-7.47l-2.12-4.33-7.91,22.95c-5.56,16.12.51,26.22,2.92,29.38-.58,1.16-1.82,3.25-4.18,5.67l-.57.58v.81c0,4.49,1.98,7.5,3.92,9.37-2.52,2.11-3.1,5.92-3.15,6.36l-.15,1.14,1.29,1c.76.59,1.37,1.06,1.95,1.41-.85.91-1.49,1.94-1.55,3.15-.04.75.14,1.86,1.2,2.92l.2.18c2.2,1.67,5.27,2.35,8.93,2.35s8.26-.74,13.02-1.88c-3.8,4.42-7.97,8.05-12.28,9.73-1.01.39-2.03.63-3.05.74,1.25-.71,2.03-1.84,2.19-3.17.2-1.64-.59-3.21-1.4-3.98-1.39-1.31-5.65-1.59-7.23-.13-2.23,2.07-3.21,4.87-2.49,7.14.48,1.54,1.89,3.49,5.88,4.06.64.09,1.3.14,1.96.14,1.86,0,3.77-.37,5.61-1.08,3.99-1.56,7.82-4.5,11.35-8.13-.35,1.16-.4,2.32-.07,3.38.48,1.54,1.89,3.49,5.88,4.06.07.01.59.08,1.38.08,1.98,0,5.65-.44,8.14-3.38,2.62-3.09,2.95-7.82.98-14.06-.03-.1-.05-.19-.08-.29.07-.02.14-.04.2-.06,1.02,1.1,2.91,2,5.54,3.23,3.21,1.51,7.2,3.38,8.91,5.5,1.1,1.36,1.8,2.75,2.48,4.08,1.66,3.28,3.38,6.67,10.05,6.67s7.41-3.84,7.48-5.02c.15-2.56-1.76-5.06-4.08-5.34-5.1-.61-5.66-4.58-5.7-5.01l-.06-.66-4.77-5.37c2.34-.71,3.93-1.29,4.9-1.67h0s0,0,0,0c.72-.28,1.1-.46,1.14-.48l-.03-.06c2.91-1.42,5.36-3.34,7.39-5.58,4.82-.51,10.46-5.66,12.56-9.69.03.04.07.08.1.12,1.7,2.15,5.14,2.78,7.29,2.04,1.6-.56,2.76-1.39,2.88-1.49l.55-.41.18-.66c.42-1.52.12-4.65-3.67-6.69-1.43-.77-3.09-2.28-4.42-3.49-2.04-1.85-3.06-2.78-4.48-2.45-.71.17-1.29.68-1.55,1.36-.08.22-.38.74-1.36,1.88.57-6.97-1.15-12.79-4.61-15.35-.27-.2-.54-.31-.91-.47-2.18-.93-3.51-2.01-3.26-4.17,2.25.22,5.45.06,7.1-1.84l1.25-1.43-1.37-1.32c-.78-.76-1.31-1.37-1.78-1.94.78-.31,1.71-.65,2.55-.94,5.05-1.93,5.41-4.45,5.4-5.17l-.02-1.53-6.4-1.65c-1.79-.53-3.03-.85-3.84-1.03l-.82-2.36-2.35-.3c.15-2.84-.13-6.21-.69-7.41l-.54-1.15h-1.26c-.76-.04-3.54,1.47-4.43,2.42l-.03-.02h0s-.13-.97-.13-.97c-.09-.69-.45-1.25-1.01-1.6-.88-.54-1.74-.25-2.11-.12-2.35.77-5.63,5.47-5.31,13.11-.41,1.81-2.85,6.88-4.94,10.97-2.29-3.61-4.14-9.42-.77-17.27.9-2.11,1.88-3.81,2.53-4.88.56-.91.45-2.09-.28-2.87-.73-.78-1.9-.97-2.85-.47-4.36,2.33-18.82,10.92-22.13,23.84-1.64,6.4-.35,12.91,3.84,19.32,2.07,3.17,4.24,6.02,6.45,8.58-1.57,2.26-3.95,4.82-5.68,5.02-.96.11-1.98-.3-2.86-1.18-1.27-1.26-4.08-5.44-2.81-17.04.98-8.95.07-13.89-2.88-15.56-1.28-.72-2.63-.63-3.74-.25,0-.01,0-.02.01-.04,2.23-6.89-2.94-13.43-3.16-13.71ZM18.26,105.86c-1.48-.21-2.43-.69-2.63-1.3-.22-.71.32-1.93,1.24-2.86.47-.11,1.48-.07,1.98.06.08.15.14.37.12.49,0,.05-.13.13-.2.16l1.96,3.48c-.84.09-1.67.09-2.47-.03ZM42.98,104.23c-1.48-.21-2.43-.69-2.63-1.3-.22-.71.32-1.93,1.24-2.86.46-.11,1.48-.08,1.98.06.08.15.14.37.12.49,0,.05-.13.13-.2.16l1.88,3.35c-1.03.19-1.94.16-2.4.1ZM48.88,102.31c-.82.96-1.97,1.48-3.06,1.74,1.05-.71,1.69-1.75,1.84-2.95.2-1.64-.59-3.21-1.4-3.98-1.04-.98-3.7-1.38-5.63-.91.66-.82,1.31-1.67,1.95-2.52,2.13-.61,4.28-1.27,6.44-1.94.03.1.05.2.08.29,1.51,4.77,1.44,8.33-.21,10.27ZM53.51,86.15c-.43.13-.89.27-1.36.42-.43-7.45,3.43-14.74,5.07-17.45,3.48,3.3,6.91,5.94,10.04,8.03-4.73,2.7-11.37,7.08-13.74,9ZM48.1,85.51c0,.76.04,1.52.12,2.29-.63.2-1.29.41-1.97.62.64-.97,1.26-1.95,1.85-2.91ZM73.82,95.66c.52,2.76,2.9,7.19,9.08,7.93.22.07.68.67.59,1.21-.1.58-1.21,1.17-3.48,1.17-4.22,0-4.93-1.4-6.48-4.48-.73-1.45-1.57-3.1-2.93-4.79-2.29-2.84-6.75-4.93-10.33-6.61-1.05-.49-2.34-1.1-3.25-1.6,3.25-2.39,10.34-6.96,14.12-8.92,2.39,1.39,4.49,2.41,6.14,3.14-.34.17-.68.35-1.04.5-1.24.48-3.67,1.36-7.49,2.39l-3.11.85,8.18,9.21ZM98.32,62.78c.26.23.53.48.76.69,1.49,1.36,3.35,3.04,5.21,4.05,1.03.55,1.44,1.12,1.61,1.53-.28.14-.61.3-.98.42-.67.23-2.29-.04-2.84-.74-1.66-2.1-4-2.32-4.27-2.34l-2.03-.14-.11,2.03c-.06,1.11-2.37,4.15-5.12,6.28,1.02-1.97,1.82-4.02,2.43-6.05.03-.03.05-.05.08-.08,2.51-2.46,4.2-4.28,5.23-5.66ZM87.29,49.16c.07.03.14.06.2.08,2.37,1.88,3.49,7.02,2.79,12.87-.02.16-.05.32-.07.49-5.34-9.82-19.4-19.83-21.41-21.22-.08-.06-.54-.4-1.17-.99.49-.94,1.16-2.22,1.87-3.66,2.26,2.1,6.54,5.36,12.16,6.31.36,2.27,1.87,4.52,5.63,6.12ZM81.34,21.29l-2.04-.26,2-2.62c.06.88.07,1.89.04,2.88ZM73.82,26.11c-.16-3.12.38-5.4,1.01-6.93l.74,5.41,9.15,1.18.81,2.28,1.23.16s1.18.16,4.52,1.15l1.54.4c-.24.11-.51.23-.82.34-5.71,1.97-5.92,2.61-6.2,3.41l-.38,1.12.8.87c.4.43.72.84,1.05,1.26.16.2.32.41.5.62-1.04.06-2.26-.03-3.12-.26l-1.76-.47-.63,1.71c-.08.22-.16.45-.23.68-5.34-1.02-9.31-4.68-10.68-6.11,1.2-2.58,2.22-5.06,2.45-6.39l.04-.22v-.22ZM45.24,36.37c2.12-8.26,9.73-14.66,15.25-18.35-.02.06-.05.11-.07.17-7.21,16.85,5.94,26.37,6.09,26.47,8.96,6.24,22.69,18.61,21.72,25.48-1.47,3.67-3.73,7.2-6.89,9.89-4.12-1.56-20.46-8.67-32.77-27.51-3.55-5.44-4.67-10.87-3.32-16.14ZM34.48,38.3c.28-.19.8-.4.99-.29.08.05,2,1.29.86,11.64-1.34,12.21,1.42,17.79,3.97,20.32,1.76,1.75,3.94,2.57,6.14,2.31,2.38-.28,4.6-2.09,6.3-3.94-2.31,4.93-6.84,13.91-12.59,21.9-8.9,2.49-19.1,4.55-23.35,1.7.34-.57,1.57-1.56,2.19-2.07.36-.29.71-.58,1.02-.85l4.62-4.03-6.11.53c-1.55.14-1.73.15-3.12-.92.28-.97.8-2.23,1.62-2.84.42-.31.88-.41,1.48-.32l16.33,2.55-15.25-6.37s-4.71-2.03-5.12-7.45c3.82-4.12,4.9-7.41,4.95-7.56l.35-1.13-.81-.86c-.36-.38-8.73-9.46-2.9-26.36l4.53-13.15c.37,1.31.64,2.7.63,3.92l-.02,3.46,7.18-4.06c1.09,1.86,2.61,5.28,1.55,8.57-.48,1.5-1.49,4.61.51,5.96,1.12.76,2.64.5,4.07-.67Z"/>
  <path class="cls-1" d="M80.16,30.7c.55-.03,1.09.06,1.62.23l1.27-3.79c-.99-.33-2.01-.48-3.04-.44-1.11.04-2.19.3-3.21.76l1.66,3.64c.54-.25,1.12-.38,1.71-.41Z"/>
</svg>