<?xml version="1.0" encoding="UTF-8"?>
<svg id="Livello_3" data-name="Livello 3" xmlns="http://www.w3.org/2000/svg" viewBox="0 0 120 120">
  <defs>
    <style>
      .cls-1 {
        fill: #000;
        stroke-width: 0px;
      }
    </style>
  </defs>
  <path class="cls-1" d="M11.17,41.5c1.36,2.29,2.54,4.26,4.44,3.66.82-.26,1.38-.99,1.47-1.86.04-.15.11-.45.26-.82l6.21-.06h.17c.23-.03,1.04-.13,1.92-.47.53.66.9,1.9-.1,4.5-4.29,11.14-4.47,19.82-.54,26.48l-.24-.05c-7.97-1.6-12.59,6.29-13.92,10.68l-.09.28v12.46c0,7.55,6.26,13.69,13.97,13.69h85.27l-.03-16.65v-36.26l-23.68-.15c2.03-2.31,2.18-5.04,2.12-6.98,4.65-1.26,6.12-3.7,7.44-9.3,4.21-3.49,4.22-6.47,3.68-8.73,8.88-1.67,9.49-8.18,9.52-8.48v-10.85s-3.99,0-3.99,0c0-.4.12-.59.12-.59-.01.02-1.34,1.94-10.45,3.38-3.07.49-7.76.38-12.74.26-8.19-.19-16.59-.38-21.51,1.87-1.56-.08-5.79-.03-8.11,2.52-.91,1-1.88,2.8-1.31,5.65.34,1.71,1.09,3.66,1.97,5.92,2.65,6.86,5.94,15.39-.92,21.33-.24.17-.47.33-.66.46-1.39-1.22-2.05-4.9-2.1-8.17l2.62.17-.62-2.62c-1.53-6.53-5.92-11.19-9.17-13.86.86-.89,1.38-2.53,2.3-5.41l.55-1.72c.93-2.89,2.57-5.03,3.79-6.32.77-.81.85-2.06.2-2.97-.65-.91-1.87-1.22-2.88-.75-1.55.73-3.25,1.58-4.91,2.51l.53-1.43v-.36c0-1.01-.61-1.92-1.56-2.31-.95-.39-2.04-.18-2.76.55-.7.71-1.91,1.85-3.69,3.27-2.74,2.19-5.6,5.83-6.77,7.38-3.32,1.05-7.06,3.3-11.11,8.26-2.71,1.8-8.28,5.75-4.66,11.83ZM24.73,106c-5.5,0-9.97-4.35-9.97-9.69v-11.85c.48-1.4,2.91-7.69,7.85-7.79.1,1.36.02,3.48-1.05,5.23-1.33,2.16-4.91,2.76-6.18,2.81l.13,4c.27,0,6.72-.27,9.45-4.71,2.05-3.34,1.74-7.26,1.49-8.87l.92,1.34,2.19-3.07c.58,2.06,1.67,4.45,3.67,6.8-.81,2.74-2.06,8.67,1.41,10.89.63.4,1.37,1.07,2.15,1.78.28.25.59.53.92.81l-7.35,12.32h-5.63ZM44.21,91.89c-.86.9-1.49.97-4.73-1.98-.87-.79-1.77-1.61-2.68-2.19-.57-.36-.61-2.21-.21-4.36,1.18.9,2.52,1.77,4.09,2.57l.31.16.35.04c.06,0,5.74.83,7.92,4.27-1.42-.48-3.22-.44-5.04,1.48ZM35.02,106l6.02-10.09c.46.2.94.37,1.43.46l-5.9,9.63h-1.55ZM41.26,106l7.12-11.64c.21.13.47.33.82.61.72.58,1.92,1.55,3.34.84.14-.07.25-.16.36-.24,1.32,1.27,2.67,2.15,3.69,2.71v7.72h-15.32ZM60.58,106v-7.15c.25-.07.52-.15.81-.24v7.4h-.81ZM65.39,96.76c2.02-1.29,3.91-3.2,4.48-6.01h.06c1.89-.09,2.94-.36,5.67-2.69.49-.41,1.32-1,2.42-1.67.41,4.12,3.44,9.32,6.62,14.76l.66,1.12c.4.69.27.96.21,1.08-.57,1.19-3.71,2.29-5.84,2.65h-14.28v-9.25ZM88.55,106c.22-.29.42-.6.58-.93.5-1.05.84-2.73-.37-4.81l-.66-1.13c-2.92-5.01-6.93-11.86-6.01-14.54.09-.27.28-.56.8-.82,3.12-1.48,6.85-2.91,10.55-3.62.42.42,1.06,1.85,1.54,2.92.31.68.64,1.41,1.02,2.17-2.61.62-6.08,1.91-7.39,4.57-.59,1.21-.97,3.18.6,5.7,2.44,3.91,3.06,8.14,3.21,10.49h-3.88ZM96.44,106c-.15-2.78-.85-7.82-3.83-12.61-.73-1.17-.49-1.67-.41-1.83.63-1.29,3.58-2.26,5.95-2.68,1.72,2.4,4.14,4.65,7.82,5.96l.02,11.16h-9.55ZM54.96,24.93c-.29-1.47.19-2.01.35-2.18.25-.28.61-.49,1.02-.66-.51,2.19.17,4.8,2.09,7.81,2.52,3.96,3.33,7.88,2.39,11.64-.17.67-.39,1.32-.65,1.95-.14-4.79-1.97-9.54-3.42-13.3-.77-2-1.5-3.89-1.77-5.26ZM35.7,17.56l-.2.53c-.92.77-1.73,1.56-2.37,2.37-.1,0-.2,0-.29.01.89-1.02,1.89-2.07,2.86-2.91ZM18.29,32.83l.26-.17.2-.24c6.26-7.78,11.16-7.88,15.48-7.97l1.1-.02.57-.94c.86-1.42,3.04-3.19,6.13-5.04-.31.67-.59,1.39-.84,2.15l-.55,1.73c-.52,1.64-.95,2.99-1.22,3.57-.08,0-.16,0-.25,0-.5.01-1.18.02-2.07.15l-5.92.82,5.22,2.91c.08.04,7.19,4.08,10.17,11.31l-1.07-.07-.13,1.99c-.07,1.08-.47,9.12,2.9,12.91-1.67,1.79-3.07,4.25-3.45,6.92-.43,3.02.5,5.75,2.71,7.88,1.13,1.09,2.52,1.93,4.15,2.47,1.49.5,4.03,1.18,6.97,1.18,3.49,0,7.54-.95,11.06-4.25l-2.74-2.92c-4.73,4.43-10.81,3.28-14.02,2.2-1.05-.36-1.94-.88-2.64-1.55-1.28-1.24-1.79-2.7-1.54-4.45.36-2.49,2.23-4.94,3.9-6.03,1.31-.77,9.81-6.1,12-14.83,1.22-4.88.24-9.85-2.9-14.78-1.05-1.65-2.15-3.9-1.4-5.24,1.86-3.3,13.21-3.04,21.49-2.85,5.16.12,10.04.23,13.46-.31,4.52-.72,7.62-1.6,9.71-2.54v6.39c-.07.49-.87,4.51-8.25,5.06l-2.42.18.65,2.34c.09.33.19.66.3.99.68,2.14,1.09,3.43-2.48,6.18l-.57.44-.16.71c-1.34,5.99-2.09,6.55-6.12,7.31l-1.63.31v1.66c0,.29.01.61.03.97.07,1.61.17,3.61-1.19,5.06-1.44,1.53-4.43,2.39-8.66,2.46l.02,4,31.43.2v29.44c-4.17-2.06-5.9-5.9-7.34-9.09-1.29-2.86-2.63-5.82-5.77-5.23-3.91.73-7.88,2.2-11.29,3.79h0c-.24.09-.47.21-.69.33-2.39,1.15-4.45,2.34-5.97,3.34.33-2.47-.83-4.72-3.32-6.33l-2.16,3.36c1.71,1.1,1.58,2.08,1.53,2.45-.23,1.74-2.3,3.52-3.02,3.8-.07.01-.13.02-.2.03l-1.67.28v1.7c0,4.11-5.22,5.75-6.94,6.18-1.2-.57-4.29-2.32-5.88-5.74-2.49-5.36-9.31-6.84-11.01-7.13-10.23-5.43-9.28-13.67-9.24-14.01l1.18-8.18-6.56,9.22c-2.39-5.38-1.83-12.27,1.68-21.37,1.18-3.05,1.77-7.2-2.06-9.83l-1.23-1.49-1.54,1.53c-.14.12-.64.27-1.03.32l-2.6.02-.82-3.18c-2.79.72-4.47,2.42-5.48,4.01-.93-1.64-1.12-3.21,3.78-6.45Z"/>
  <path class="cls-1" d="M30.17,30.83l-1.52-3.7c-1.19.49-5.22,2.34-5.39,2.42l1.67,3.63s4.13-1.9,5.24-2.35Z"/>
</svg>