<?xml version="1.0" encoding="UTF-8"?>
<svg id="Livello_3" data-name="Livello 3" xmlns="http://www.w3.org/2000/svg" viewBox="0 0 120 120">
  <defs>
    <style>
      .cls-1 {
        fill: #000;
        stroke-width: 0px;
      }
    </style>
  </defs>
  <path class="cls-1" d="M37.07,101.08l-1.21.55c-1.23.27-2.21.53-2.77,1.42-.47.75-.34,1.48-.27,1.8.08,2.22,2.57,3.37,9.09,4.24,4.83.64,11.23,1,18.02,1s13.19-.35,18.02-1c6.27-.84,8.82-1.94,9.07-3.99.3-.65.31-1.28.03-1.89-.51-1.09-1.66-1.38-2.79-1.63l-1.36-.47-.1-.03c-3-.85-11.25-4.1-13.31-8.81-1.61-3.67-2.64-7.69-3.07-11.96,1.76-.99,2.06-2.27,2.06-3.02s-.33-2.12-2.27-3.13c.07-1.9.24-3.42.39-4.42,2.96-.43,5.85-1.12,8.63-2.08.98-.12,1.85-.65,2.33-1.45.5-.82.53-1.82.09-2.66l-13.92-26.68h6.49v-4h-8.42v-3.85c2.67.53,5.42.99,7.5,1.33.12.02.24.03.35.03.82,0,1.58-.45,1.97-1.2.44-.85.28-1.89-.39-2.57-.72-.73-1.55-1.54-2.45-2.36.23-.13.5-.25.79-.33.8-.2,2.28-.4,3.23.59.72.74.96,1.92.6,3.01l3.8,1.24c.82-2.52.23-5.22-1.54-7.04-1.72-1.77-4.31-2.38-7.11-1.67-1.26.32-2.22.93-2.92,1.54-2.37-1.85-4.95-3.46-7.39-4.18.13-.48.2-.98.2-1.5,0-3.21-2.61-5.81-5.81-5.81s-5.68,2.49-5.8,5.59l-3.32,1.08,1.24,3.8,3.31-1.08c.75.96,1.8,1.67,3,2.01-.18.8-.23,1.67,0,2.51.31,1.18,1.07,2.12,2.21,2.71.9.47,2.56.96,4.53,1.44v4.71h-8.33v4h6.33l-13.92,26.68c-.44.85-.41,1.84.09,2.66.48.8,1.35,1.33,2.33,1.45,2.89,1,5.9,1.71,8.99,2.13.14.96.3,2.41.37,4.2-2.24,1.02-2.62,2.45-2.62,3.3s.35,2.19,2.4,3.2c-.44,4.2-1.47,8.16-3.06,11.78-2.06,4.71-10.31,7.96-13.31,8.81ZM52.63,14.09c1,0,1.81.81,1.81,1.81,0,.6-.3,1.13-.75,1.46-.08.03-.17.04-.24.08-.12.05-.22.13-.32.2-.16.05-.32.08-.5.08-1,0-1.81-.81-1.81-1.81s.81-1.81,1.81-1.81ZM54.92,23c-.1-.38.15-1.22.58-2.01,1.7-.22,4.85,1.45,8.43,4.36-4.51-.85-7.82-1.66-8.83-2.19-.16-.08-.17-.13-.18-.16ZM54.05,93.88c1.96-4.46,3.14-9.36,3.51-14.57l.12-1.62-1.38-.4,1.4-.38v-1.54c-.05-4.59-.71-7.63-.74-7.76l-.8.18.1-1.69c-3.5-.28-6.91-.96-10.15-2.03l13.64-26.15,13.64,26.15c-3.38,1.12-6.93,1.81-10.58,2.07l.09,1.51c-.08.35-.69,3.38-.72,7.84v1.48s1.07.34,1.07.34l-1.06.35.11,1.55c.37,5.25,1.55,10.19,3.52,14.69,2.72,6.21,11.69,9.68,14.81,10.72-3.64.73-10.61,1.49-20.7,1.49s-17.06-.76-20.7-1.49c3.12-1.04,12.09-4.51,14.81-10.72Z"/>
</svg>