<?xml version="1.0" encoding="UTF-8"?>
<svg id="Livello_3" data-name="Livello 3" xmlns="http://www.w3.org/2000/svg" viewBox="0 0 120 120">
  <defs>
    <style>
      .cls-1 {
        fill: #000;
        stroke-width: 0px;
      }
    </style>
  </defs>
  <path class="cls-1" d="M31.57,108.37l.42,1.44h40.53c.71.1,1.38.16,1.95.16s1.09-.06,1.51-.16h34.02l-.28-2.25c-.06-.45-1.49-11.19-9.45-16.86-4.5-3.2-10.11-4.12-16.67-2.73l.83,3.91c5.41-1.15,9.95-.45,13.5,2.06,4.55,3.23,6.55,8.77,7.35,11.86h-1.42c-.48-1.09-1.32-2.62-2.78-4.15-2.32-2.45-6.69-5.35-14.29-5.35-.05,0-.1,0-.14,0l.02,4s.08,0,.13,0c7.41,0,10.93,3.16,12.52,5.5h-26.72c-1.69-.32-4.05-.99-6.68-1.99-3.05-1.53-6.4-6.11-6.34-10,.04-2.44,1.44-4.31,4.18-5.55,12.81-5.81,20.4-12.45,23.77-15.86.1,0,.21,0,.31,0,7.06,0,17.27-8.32,17.97-13.45.65-4.81-1.02-9.18-4.96-12.98-.56-.54-1.08-1.24-1.57-2.09-.23-.41-.09-.78.02-.96.07-.13.36-.55.94-.55l.44-.05c2.85-.64,5.77-2.19,5.89-2.25l.27-.15.22-.22c.24-.24,2.33-2.46,2.55-5.15l.15-1.81-1.78-.33c-6.36-1.17-7.41-2.91-8.73-5.11l-.73-1.2-.87-.17c-3.58-.68-4.3-4.69-4.33-4.85l-.58-3.7-2.33,2.15c-.07-.42-.08-.77-.01-1.04l.24-.99-.24-.3c.24-.94.75-1.69,1.01-2.01l.51-.4.68-1.75-1.85-1.85-1.22.47c-.22.09-.47.25-.73.48l-5.96,4.62-.18.15c-1.59,1.57-3.61,3.39-4.52,4.05-.74-.02-1.27.31-1.63.71-.96,1.06-.78,2.35.86,5.19-.09.13-.18.26-.27.39-.6-.54-1.27-1.31-1.85-2.14-.49-.71-1.35-1.04-2.18-.84l-1.39.38-.19,1.35c-.22,1.53-.85,7.2.66,12.39-3.48-2.36-7.28-5.76-8.27-9.83-.81-3.33-.25-6.54.24-9.37.53-3.02.98-5.63-.59-7.5-.97-1.16-2.5-1.72-4.66-1.72-7.41,0-22.4,9.27-23.56,11.63-.23.46-.28.97-.18,1.44-.1.13-.21.26-.31.38-3.59,4.4-13.13,16.1-17.96,38.43l-.08.36.06.37c.02.15,2.27,15.21-4.97,25.46-.94,1.32-2.89,4.08-1.22,5.97,1.07,1.21,2.68,1.27,5.86-.04-.19,1.23.06,2.29,1.18,2.93.36.2.74.36,1.23.36,1.49,0,3.97-1.43,9.8-7.31.71-.72,1.47-1.5,2.23-2.3-1.4,6.22-1.56,13.19.62,20.68ZM50.3,62.67c3.26,2.41,7.22,4.42,11.96,5.51-1.3,2.43-3.48,4.62-5.88,5.8-1.61.79-4.1,1.52-6.81.48l-.87-.33-.81.45c-2.32,1.28-6.07,2.31-8.94,2.97,3.94-7.5,9.1-12.78,11.35-14.88ZM35.02,105.81c-2.22-8.89-.85-16.97,1.84-23.72,1.14-.22,2.92-.6,4.9-1.11-1.21,5.67.8,11.25,5.93,16.34,3.42,3.39,8.06,6.31,12.64,8.49h-25.32ZM77.25,31.93l1.46.39.77-1.29c1.03-1.72,1.53-2.32,1.65-2.46l1.3-1.04-.93-1.51c-.36-.59-.73-1.23-1.01-1.77,1.08-.77,2.6-2.11,4.89-4.35l.97-.75c.05,1.56.62,3.25,1.26,5.14.01.03.03.06.05.09-1.7.46-3.39,1.4-4.7,3.2-1.44,1.99-1.94,4.53-1.37,6.96.59,2.52,2.08,4.24,4.21,4.85,1.3.37,2.47.52,3.5.52,4.74,0,6.71-3.22,6.81-3.39l-3.42-2.08c-.16.24-1.64,2.28-5.8,1.09-.25-.07-1.03-.29-1.4-1.91-.3-1.31-.04-2.66.72-3.71,1.9-2.63,5.81-1.91,7.11-1.58.75.55,1.63,1.02,2.67,1.32,1.35,2.24,3.03,4.69,8.99,6.21-.21.34-.43.63-.6.84-.72.36-2.6,1.25-4.39,1.68-1.73.08-3.27,1.02-4.15,2.53-.9,1.55-.92,3.4-.04,4.95.68,1.19,1.44,2.2,2.27,3,3.06,2.95,4.26,5.99,3.77,9.57-.35,2.57-6.64,8.08-11.64,9.6,2.78-12.72-3.71-19.91-11.19-25.77-2.97-2.33-3.82-7.22-3.84-11.38.65.48,1.35.86,2.08,1.06ZM34.46,77.31c-1.82,3.06-8,9.54-12.14,13.24l3.05-5.59-5.91,3.16c-1.86.99-3.21,1.64-4.19,2.06,7.41-10.7,5.91-25.2,5.57-27.79,4.65-21.16,13.67-32.22,17.07-36.4,1.12-1.38,1.88-2.3,1.87-3.24,3.5-2.62,14.03-8.74,19.08-8.74,1.33,0,1.59.29,1.6.3.37.44-.02,2.73-.29,4.24-.53,3.06-1.2,6.87-.18,11.01,2.27,9.27,14.68,15.1,16.73,16.01,7.74,6.11,11.99,12.05,9.37,22.45-.01.03-.03.08-.05.11-1.74,1.97-9.28,9.85-23.96,16.52-4.14,1.88-6.46,5.12-6.52,9.13-.03,1.91.45,3.81,1.24,5.59-2.99-1.85-5.79-4.07-7.9-6.62-3.55-4.3-4.38-8.61-2.53-13.15.93-.34,1.84-.7,2.64-1.08,2.96.88,6.1.57,9.13-.92,3.56-1.75,6.66-5.06,8.24-8.72,1.21.12,2.45.2,3.75.2,1.85,0,3.81-.13,5.85-.42l-.56-3.96c-25.88,3.65-34.15-19.81-34.49-20.81l-1.9.64-1.9.64c.05.15,2.87,8.22,10.07,14.94-2.81,2.69-8.53,8.8-12.63,17.29l-.12-.07Z"/>
</svg>