<?xml version="1.0" encoding="UTF-8"?>
<svg id="Livello_3" data-name="Livello 3" xmlns="http://www.w3.org/2000/svg" viewBox="0 0 120 120">
  <defs>
    <style>
      .cls-1 {
        fill: #000;
        stroke-width: 0px;
      }
    </style>
  </defs>
  <path class="cls-1" d="M10.77,60.8l20.42,5.32-15.36,14.22c-.79.73-.98,1.9-.46,2.84.52.95,1.61,1.41,2.66,1.13l10.33-2.75,2.99-.98s.09-.01.17.07l1.19,7.42-1.41,3.47c-1.97,2.82-2.48,6.38-2.37,8.8v9.66h60.52v-6.8c.32-.5.53-1.07.56-1.68.17-3.02,0-5.6-.49-7.69h.29c.11-2.44-.09-4.64-1.11-7.05l1.51-3.98s.07-.07.14-.05l8.94,2.64c1.04.31,2.14-.13,2.69-1.06.54-.93.38-2.1-.38-2.85l-14.96-14.62,20.56-4.77c1.05-.25,1.8-1.17,1.81-2.25.01-1.08-.71-2.02-1.75-2.29l-20.42-5.32,15.36-14.22c.79-.73.98-1.9.46-2.84-.52-.95-1.61-1.41-2.66-1.13l-20.44,5.45,6.08-19.88c.31-1.02-.11-2.13-1.03-2.68-.92-.56-2.1-.42-2.86.34l-14.95,14.78-4.86-20.26c-.25-1.04-1.17-1.78-2.25-1.79-1.03,0-2.02.7-2.3,1.73l-5.42,20.13-14.54-15.18c-.74-.78-1.92-.95-2.85-.42-.93.53-1.38,1.62-1.1,2.65l5.53,20.04-20.28-5.99c-1.04-.31-2.14.13-2.69,1.06-.54.93-.39,2.1.38,2.85l14.96,14.62-20.56,4.77c-1.05.24-1.8,1.17-1.81,2.25-.01,1.08.71,2.02,1.75,2.29ZM43.59,56.72c-.06-1.37-.02-1.4.26-1.63.38-.3.63-.6.84-.84.31-.36.52-.6,1.34-.95,5.1-2.16,18.71-3.44,22.6-.86.74.49.74.88.74,1.09v5.58c-3.91-1.32-11.89-2.86-20.05,2.59h0l-4.71,3.08c-.35.23-.67.47-.99.73v-7.47c0-.48-.02-.91-.04-1.31ZM66.03,72.81c-.36-2.61-.43-4.02-.43-4.75.74-.17,2.19-.21,3.69-.12.12,3.08.16,6.98-.13,10.69l-.98-1.14-3.94-1.29c.38-.19.72-.45,1.01-.77.63-.72.92-1.68.79-2.62ZM63.85,80.29l2.03.66,1.02,1.19c-.33.11-.68.18-1.05.18h-5.16c-.34,0-.67-.07-.98-.16l.47-.52,3.68-1.35ZM61.66,66.94c-.14,1.08-.04,2.98.31,5.65h-.91v4h1.27l-4.46,1.63-1.05,1.16c-.93-1.32-1.91-2.91-2.73-4.69v-.89s-.41-.05-.41-.05c-1.14-2.75-1.85-5.89-1.42-9.15,7.28-4.44,14.26-2.35,16.76-1.34.02.2.03.43.05.67-3.54-.2-7.06.31-7.4,3.03ZM55.01,83.62c1.38,1.71,3.45,2.69,5.67,2.69h5.16c.76,0,1.48-.12,2.17-.33l-.7,4.25c-.19,1.12-.91,2.08-1.88,2.49-1.04.44-3.78,1.2-7.06-1-1.77-1.84-2.84-5.07-3.47-8.25.04.04.07.1.11.14ZM72.98,80.5s0,0,0,0v-.07s0,0,0,0c.04-.2.07-.4.09-.61.32-3.5.35-7.17.27-10.29l9.99,15.86.06.09c.58.82,1.03,1.58,1.38,2.3-.17-.05-.34-.1-.51-.13-3.39-.59-8.59-4.14-11.42-6.29l.14-.85ZM43.48,72.15c.58-1.44,1.55-2.66,2.79-3.61-.03.04-.06.08-.08.12-.78,1.23-.85,2.84-.2,4.77.72,2.16,2.68,3.21,4.15,3.7.04.83.12,1.94.25,3.2l-.02-.02c-3.63,4.2-6.67,5.2-13.11,7.18l6.23-15.34ZM32.92,106v-1.58l1.85,1.16,4.08-4.29,2.81,2.83c1,1.01,2.6,1.11,3.72.22l2.81-2.22,2.05,1.82c.99.88,2.45,1.07,3.64.46l2.41-1.23v2.83h-23.36ZM66.98,102.43v3.57h-6.7v-3.65c0-1.22-.62-2.33-1.67-2.97-1.06-.65-2.35-.69-3.45-.13l-2.65,1.36-1.96-1.75c-1.17-1.05-2.92-1.18-4.25-.33l-2.55,2.01-2.31-2.32c-.65-.71-1.56-1.12-2.53-1.14-1,0-1.94.38-2.62,1.09l-2.17,2.28-1.21-.75c0-2.06.51-6.85,4.83-8.17l.22-.07c5.89-1.8,9.57-2.94,13.22-6.26.79,3.51,2.15,7.18,4.5,9.5l.27.22c2.21,1.53,4.62,2.32,6.98,2.32,1.39,0,2.75-.27,4.05-.81,2.23-.94,3.87-3.05,4.28-5.52l.84-5.12c3.04,2.17,7.75,5.16,11.46,5.81,1.69.29,2.67,3.88,2.48,9.01l-4.44-1.69c-.96-.36-2.02-.3-2.92.18l-3.77,2.01-3.33-1.56c-1.01-.47-2.18-.4-3.12.2-.93.59-1.49,1.6-1.49,2.7ZM70.98,106v-2.34l2.45,1.15c1,.47,2.18.44,3.16-.08l3.79-2.02,4.87,1.86c.07.02.13.03.2.05v1.38h-14.46ZM35.25,54.71c.84-.19,1.5-.82,1.73-1.65.23-.82,0-1.7-.62-2.3l-12.35-12.07,16.73,4.94c.82.24,1.7.02,2.31-.58.6-.59.84-1.47.61-2.29l-4.58-16.59,12.03,12.56c.58.61,1.45.86,2.28.65.82-.21,1.46-.84,1.68-1.66l4.49-16.68,4.03,16.8c.2.82.82,1.47,1.63,1.7.81.23,1.69,0,2.29-.59l12.37-12.23-5.03,16.46c-.25.81-.04,1.69.55,2.3.59.61,1.47.86,2.29.64l16.86-4.49-12.68,11.73c-.63.58-.89,1.45-.68,2.28.21.83.85,1.48,1.68,1.69l16.82,4.38-16.94,3.93c-.83.19-1.5.83-1.73,1.65-.23.82,0,1.7.62,2.3l12.35,12.07-2.53-.75c-2.06-.61-4.26.47-5.01,2.46l-.35.93-12.75-20.23v-8.54c0-1.25-.44-3.04-2.53-4.43-5.67-3.76-20.7-1.89-26.37.51-1.68.71-2.36,1.5-2.81,2.03-.14.16-.22.26-.3.32-1.93,1.54-1.84,3.43-1.77,4.95.02.34.03.71.03,1.12v12.98l-4.02,9.91-.14-.9c-.19-1.18-.89-2.22-1.91-2.84-1.04-.63-2.3-.78-3.46-.4l-2.77.91-3.86,1.03,12.68-11.73c.63-.58.89-1.45.68-2.28-.21-.83-.85-1.48-1.68-1.69l-16.82-4.38,16.94-3.93Z"/>
  <rect class="cls-1" x="54.49" y="65.68" width="4.88" height="4"/>
  <path class="cls-1" d="M48.47,89.21l-1.8.88-1.8.88c.33.68,3.38,6.7,8.29,8.08l1.08-3.85c-2.7-.76-5.09-4.57-5.78-5.98Z"/>
  <path class="cls-1" d="M78.74,93.04l-3.47-2c-.68,1.18-2.74,3.84-4.39,4.03l.44,3.98c4.11-.46,7.09-5.44,7.42-6Z"/>
</svg>