<?xml version="1.0" encoding="UTF-8"?>
<svg id="Livello_3" data-name="Livello 3" xmlns="http://www.w3.org/2000/svg" viewBox="0 0 120 120">
  <defs>
    <style>
      .cls-1 {
        fill: #000;
        stroke-width: 0px;
      }
    </style>
  </defs>
  <path class="cls-1" d="M110.48,39.02l-.49-1.28c-.31-.81-1.08-1.34-1.95-1.34h-24.01V12.75c0-.86-.54-1.65-1.35-1.95-.81-.31-1.73-.08-2.34.6l-20.24,23.87-21.06-23.84c-.56-.67-1.49-.93-2.32-.63-.82.3-1.38,1.09-1.38,1.96v23.64H12.23c-.87,0-1.65.54-1.96,1.36l-.45,1.35,23.4,21.65-22.45,19.86-1,1.03.5,1.26c.32.8,1.08,1.31,1.94,1.31h23.12v24.6c0,.88.56,1.67,1.39,1.97.83.29,1.77.03,2.3-.63l21.07-25.06,20.24,25.07c.4.48,1,.74,1.6.74.24,0,.48-.04.72-.13.82-.3,1.37-1.09,1.37-1.96v-24.61h24.01c.87,0,1.64-.53,1.95-1.34l.47-1.38-23.43-21.2,22.42-20.27,1.04-1.02ZM82.76,58.77c-.43.4-.68.96-.68,1.54l.03.95,20.96,18.96h-20.96c-1.15,0-2.09.94-2.09,2.09v21.11l-16.81-20.83c-.75-.93-1.87-1.47-3.08-1.48-1.2-.05-2.33.51-3.1,1.42l-17.69,21.05v-21.27c0-1.15-.94-2.09-2.09-2.09h-19.99l19.1-16.9c.72-.64,1.15-1.56,1.16-2.52.01-.96-.39-1.89-1.1-2.54l-19.31-17.86h20.14c1.15,0,2.09-.94,2.09-2.09v-20.5l19.12,21.64c.42.48,1.03.74,1.68.75.65,0,1.26-.29,1.68-.78l18.2-21.46v20.36c0,1.15.94,2.09,2.09,2.09h20.96l-20.31,18.37Z"/>
  <path class="cls-1" d="M78.26,42.03h-36.27v35.65h36.27v-35.65ZM74.26,73.68h-28.27v-27.65h28.27v27.65Z"/>
  <path class="cls-1" d="M53.47,39.87l1.01-2.54-10.05-9.86-1.01-.92-2.46,1.08v10.22l.05,2.05h11.07l1.39-.03ZM44.96,35.9v-2.31l2.36,2.31h-2.36Z"/>
  <path class="cls-1" d="M76.21,39.9l2.05-.05v-10.9l-.03-1.37-2.5-1.03-10.03,9.84-.97,1,1.07,2.52h10.41ZM74.26,33.59v2.31h-2.36l2.36-2.31Z"/>
  <path class="cls-1" d="M43.53,79.81l-2.05.05v10.9l.03,1.38,2.51,1.01,10.02-9.83.97-1-1.07-2.52h-10.41ZM45.47,86.12v-2.31h2.36l-2.36,2.31Z"/>
  <path class="cls-1" d="M67.65,79.81l-1.39.03-1.01,2.54,10.03,9.83,1.01.95,2.49-1.08v-10.23l-.05-2.05h-11.07ZM74.78,86.12l-2.36-2.31h2.36v2.31Z"/>
  <path class="cls-1" d="M36.29,65.47l-10.02,9.83-.97,1,1.07,2.52h10.41l2.05-.05v-10.9l-.03-1.38-2.51-1.01ZM34.84,74.81h-2.36l2.36-2.31v2.31Z"/>
  <path class="cls-1" d="M27.71,42.47l-1.39.03-1.01,2.54,10.03,9.83,1.01.95,2.49-1.08v-10.23l-.05-2.05h-11.07ZM34.84,48.78l-2.36-2.31h2.36v2.31Z"/>
  <path class="cls-1" d="M80.87,75.92l.05,2.05h11.07l1.39-.03,1.01-2.54-10.04-9.84-1.01-.93-2.47,1.08v10.22ZM84.87,71.66l2.36,2.31h-2.36v-2.31Z"/>
  <path class="cls-1" d="M80.87,52.58l.03,1.37,2.51,1.02,10.03-9.83.97-1-1.07-2.52h-10.41l-2.05.05v10.9ZM84.87,45.63h2.36l-2.36,2.31v-2.31Z"/>
  <rect class="cls-1" x="48.67" y="49.55" width="7.25" height="4"/>
  <rect class="cls-1" x="64.06" y="49.55" width="7.25" height="4"/>
  <rect class="cls-1" x="48.67" y="64.97" width="7.25" height="4"/>
  <rect class="cls-1" x="64.06" y="64.97" width="7.25" height="4"/>
</svg>