<?xml version="1.0" encoding="UTF-8"?>
<svg id="Livello_3" data-name="Livello 3" xmlns="http://www.w3.org/2000/svg" viewBox="0 0 120 120">
  <defs>
    <style>
      .cls-1 {
        fill: #000;
        stroke-width: 0px;
      }
    </style>
  </defs>
  <path class="cls-1" d="M30.21,32.82l3.55,4.83-6.51,6.8,9.69,9.29,4.95-5.17,10.63,13.52v48.56h13.43v-48.58l10.86-14.49,6.02,6.19,9.62-9.36-7.49-7.7,3.02-4.03,11.25,12.53,9.99-8.98-22.18-24.69-11.56,15.43-15.86-16.3-16.43,17.15-11.73-15.94-22.26,23.71,9.79,9.19,11.21-11.95ZM44.69,45.65l3.77-3.94,4.06,5.52v8.38l-7.83-9.96ZM52.52,40.48l-1.25-1.7,1.25-1.31v3.01ZM65.94,55.4v-9.05l4.2-5.61,3.83,3.94-8.03,10.72ZM65.94,39.67v-3.26l1.38,1.42-1.38,1.84ZM87.31,17.82l16.25,18.09-4.04,3.63-11.83-13.17-5.56,7.43-3.83-3.94,9.01-12.03ZM59.64,16.41l27.15,27.91-3.89,3.78-20.95-21.54v80.09h-5.43V27.52l-19.7,20.56-3.92-3.76,26.74-27.91ZM14.86,35.39l16.23-17.29,9.29,12.63-3.81,3.98-5.99-8.14-11.77,12.53-3.96-3.72Z"/>
</svg>