<?xml version="1.0" encoding="UTF-8"?>
<svg id="Livello_3" data-name="Livello 3" xmlns="http://www.w3.org/2000/svg" viewBox="0 0 120 120">
  <defs>
    <style>
      .cls-1 {
        fill: #000;
        stroke-width: 0px;
      }
    </style>
  </defs>
  <path class="cls-1" d="M40.66,70.77l.66,11.97,9.66,7.01-.81,19.81h17.67l-.8-19.66,10.57-7.78-.73-11.02-10.3,7.58-.15-3.73,11.18-8.23-.73-11.02-10.91,8.03-.2-5.02,11.84-8.71-.73-11.02-11.57,8.51-.73-17.86,7.45-7.35-12.9-12.72-12.91,12.72,7.2,7.1-.73,18.01-12.04-8.74.66,11.97,10.93,7.93-.21,5.08-11.38-8.26.66,11.97,10.27,7.45-.15,3.8-10.77-7.82ZM59.14,15.18l7.21,7.11-7.21,7.1-7.21-7.1,7.21-7.11ZM45.21,65.22l-.09-1.67,10.62,7.71.6-14.68-11.12-8.07-.09-1.67,11.28,8.19.89-21.84,1.85,1.83,1.6-1.58.89,21.75,11.75-8.65.1,1.55-11.79,8.68.6,14.66,11.09-8.16.1,1.55-11.13,8.19.54,13.38,10.48-7.71.1,1.55-10.52,7.74.72,17.62h-9.33l.72-17.79-9.85-7.15-.09-1.67,10.01,7.26.54-13.4-10.46-7.59Z"/>
</svg>