<?xml version="1.0" encoding="UTF-8"?>
<svg id="Livello_3" data-name="Livello 3" xmlns="http://www.w3.org/2000/svg" viewBox="0 0 120 120">
  <defs>
    <style>
      .cls-1 {
        fill: #000;
        stroke-width: 0px;
      }
    </style>
  </defs>
  <path class="cls-1" d="M61.14,89.09l24.41-14.39V28.42l14.15-11.95-6.66-7.28-17.48,14.76v45.22l-14.43,8.52-14.64-8.53V23.96l-17.48-14.76-6.66,7.28,14.15,11.95v46.28l24.65,14.38ZM28.1,16.1l1.25-1.37,13.12,11.08v45.66l18.66,10.87,18.41-10.87V25.82l13.12-11.08,1.25,1.37-12.39,10.46v45.85l-20.42,12.04-20.64-12.04V26.56l-12.39-10.46Z"/>
  <polygon class="cls-1" points="87.51 29.3 87.51 76.18 61.13 92.43 34.53 76.17 34.53 30.32 13.06 10.04 10.31 12.94 30.53 32.05 30.53 78.41 59.02 95.83 59.02 109.44 63.02 109.44 63.02 95.97 91.51 78.41 91.51 31.08 110.31 14.22 107.63 11.24 87.51 29.3"/>
</svg>