<?xml version="1.0" encoding="UTF-8"?>
<svg id="Livello_3" data-name="Livello 3" xmlns="http://www.w3.org/2000/svg" viewBox="0 0 120 120">
  <defs>
    <style>
      .cls-1 {
        fill: #000;
        stroke-width: 0px;
      }
    </style>
  </defs>
  <path class="cls-1" d="M25.29,28.76c-.99.1-1.96.36-2.93.8-5.66,2.62-8.76,10.67-9.16,11.76-1.04,2.12-9.43,20.8,7.28,38.01-1.84,7.48-3.26,15.49-4.24,23.94-.03.14-.05.29-.05.44-.18,1.57-.34,3.15-.49,4.75l3.98.37c.1-1.13.23-2.25.35-3.37,6.53-2.01,15.72-4.59,20.99-6.05-.89,1.86-1.86,3.79-2.89,5.74-.59,1.13.26,2.86.82,3.78.56.93,1.37,1.07,1.8,1.07h36.06c1.04,0,2.04-.43,2.75-1.19.71-.75,1.08-1.78,1.01-2.81l-1-15.6,8.72-5.95c.61-.22,2.62-.91,5.42-1.47,4.13-.82,5.93-3.73,6.21-5.97.26-2.06-.61-3.88-2.21-4.65l-.24-.12c-1.02-.49-2.11-1.02-3.47-1.32l5.43-5.69.12-.14c.43-.55,1.21-.68,1.8-.3l6.28,3.97,2.14-3.38-6.28-3.97c-2.3-1.45-5.29-.97-7.01,1.12l-8.14,8.54c-2.07.6-4.64,2.19-6.76,3.7.44-2.84.66-5.75.29-8.04-.83-5.15-6.61-8.4-10.19-9.95,1.59-.39,3.4-1.02,4.46-1.99,1.9-1.74,1.27-5.28.65-7.46v-4.41c1.4-.06,2.83-.38,3.76-1.22.65-.59,1.02-1.4,1.02-2.27.03-4.05-4.58-6.98-7.15-8.29l-.03-1.38-3.37-4.08-1.19-1.48c-1.03-1.28-3.77-2.63-5.98-3.56l4.53-5.42c.27-.32.48-.68.66-1,.03-.05.06-.11.1-.17h3.68v-4h-3.92c-1.85-.33-2.9,1.45-3.31,2.16-.09.16-.23.39-.28.46l-5.93,7.1-4.39-4.11c-1.33-1.25-3.05-1.99-4.83-2.08-4.16-.21-11.75-1.86-12.89-2.79,0,0,.07.06.16.19l-3.38,2.15c2.06,3.24,15.77,4.44,15.9,4.45.84.04,1.66.4,2.3,1l3.51,3.29c-4.61,1.85-13.24,6.03-15.8,12.28l3.7,1.52c.63-1.53,1.85-2.95,3.36-4.24-1.27,2.95-1.65,6.21-1,9.62,1.09,5.71,6.43,9.12,8.89,10.42l-.57.37c-3.33.84-8.8,4.04-16.3,9.55l-.36.26c-.49.36-.81.91-.87,1.52-.02.24,0,.48.06.72l-7.11,4.29c-.47-.43-1.07-1.02-1.73-1.73.41-1.86.8-3.94,1.14-6.25.97-6.61,1.22-13.37.75-20.09,2.09-2.43,3.39-4.78,2.97-7.02-.22-1.15-.99-2.73-3.46-3.67-.05-.02-.11-.03-.16-.05,0-.41,0-.81.02-1.21.03-.49.08-.97.15-1.46h.51c1.19,0,2.15-.96,2.15-2.15v-13.43h-4v11.58h-.63v-11.58h-4v13.43c0,1.12.86,2.03,1.95,2.13-.05.42-.11.83-.13,1.25-.02.3-.01.6-.01.9ZM24.04,33.19c1.29-.6,2.59-.63,3.96-.1.43.17.91.43.96.67.35,1.88-5.07,6.77-6.85,8.38-.07.07-.13.12-.2.19-1.07-1.02-2.59-1.58-3.98-1.88,1.25-2.57,3.42-6.01,6.12-7.26ZM16.29,44.22c1.44.21,2.67.66,2.96,1.12.1.16-.05.54-.12.7l-.04.1c-3.32,9.01.83,16.69,4.58,21.33-.5,2.07-1.01,3.82-1.44,5.3l-.24.84c-.1.36-.2.74-.3,1.11-11.1-13.01-7.09-26.33-5.4-30.5ZM24.05,81.63c.89.37,1.82.6,2.9.6,1.76,0,3.91-.6,6.83-2.14,4.31-2.28,8.71-4.16,10.84-5.04.83,2.08,1.78,4.56,2.5,6.69.28.82-.12,2.82-1.04,5.58-3.51,1.34-16.28,6.39-25.32,12.16.85-6.23,1.95-12.18,3.29-17.84ZM32.14,97.74c4.5-2.22,8.94-4.11,12.03-5.37-.3.74-.63,1.5-.97,2.28-1.82.5-6.15,1.69-11.06,3.09ZM95.91,75.93c.06.14.13.55-.09,1.1-.4,1-1.45,1.74-2.89,2.03-2.47.49-4.37,1.08-5.39,1.42-1.14-.9-1.26-2.9-1.23-4.05,1.34-.82,2.58-1.44,3.43-1.59,2.82-.51,4.15.13,5.99,1.02l.17.08ZM82.5,79.05c.24,1.24.7,2.47,1.49,3.49l-4.71,3.22-.06-.89c.22-.71.66-2.22,1.14-4.12.61-.52,1.34-1.1,2.14-1.7ZM49.7,37.31c.2-6.77,5.86-11.24,11.8-13.33.12.05.24.1.36.15-1.68,1.29-4.01,3.2-6.28,5.49-2.66,2.69-4.62,5.26-5.87,7.7ZM52.09,44.32c-.91-6.42,9.09-14.91,13.81-18.22.4.24.68.45.8.59l3.71,4.54v1.07c0,.85.51,1.63,1.27,1.96,2.54,1.13,5.21,3.02,5.77,4.56-.5.09-1.32.14-2.34.05-.6-.05-1.2.15-1.64.56-.44.41-.7.98-.7,1.58v6.91s.09.28.09.28c.47,1.55.62,3.17.47,3.7-.61.44-2.4,1.01-4.23,1.32-.73.13-1.33.61-1.61,1.28l-1.22,2.88c-2.03.18-6.47.17-8.64-2.95l.36-.23c.68-.43,1.06-1.19.99-2l-.18-2.14c-.06-.77-.54-1.46-1.26-1.78-.19-.08-3.25-1.48-5.46-3.96ZM53.98,56.12c2.63,4.49,7.68,5.31,10.97,5.31,1.51,0,2.65-.17,3-.23.63-.11,1.15-.49,1.47-1.04,3.08,1.27,7.99,3.93,8.51,7.19.71,4.38-1.4,12.81-2.62,16.64l-.12.41,1.38,21.59h-34.36c3.53-6.81,10.29-20.83,8.7-25.54-1.64-4.85-4.42-11.42-4.44-11.46l-.16-.37-4.6-5.03c6.5-4.68,10.2-6.66,12.27-7.49ZM28.2,72.07c.7.57,1.7.64,2.47.17l8.71-5.25,3.52,3.84c.05.13.13.31.21.51-2.2.9-6.7,2.82-11.21,5.21-3.82,2.03-5.34,1.95-6.87,1.14.26-1,.53-2,.81-2.98l.24-.83c.25-.85.53-1.84.83-2.94.61.57,1.08.96,1.3,1.13ZM24.75,62.07c-2.99-4.91-3.64-9.79-1.92-14.5.13-.32.22-.62.3-.91.35-.36,1.07-1.01,1.67-1.55.45-.4.88-.8,1.32-1.2.15,5.25-.14,10.49-.9,15.65-.13.9-.27,1.75-.42,2.58-.01-.02-.03-.04-.04-.07Z"/>
  <path class="cls-1" d="M69.86,36.48l-2.39-3.21c-1.66,1.24-3.31,1.05-4.3.45l-2.05,3.44c1.02.61,2.35,1.04,3.82,1.04,1.55,0,3.26-.48,4.92-1.72Z"/>
</svg>