<?xml version="1.0" encoding="UTF-8"?>
<svg id="Livello_3" data-name="Livello 3" xmlns="http://www.w3.org/2000/svg" viewBox="0 0 120 120">
  <defs>
    <style>
      .cls-1 {
        fill: #000;
        stroke-width: 0px;
      }
    </style>
  </defs>
  <path class="cls-1" d="M101.33,99.1c.51-3.68,1.74-12.39,2.28-15.27.59-3.12-.05-7.13-.43-9,.15-.23.28-.49.37-.77,1.29-3.97,2.85-9.34,2.98-12.39.2-4.67-.91-9.35-1.88-12.45-.42-1.35-.79-2.41-1.12-3.26.67-.2,1.31-.5,1.92-.9,2.06-1.34,3.37-3.57,3.51-5.98.23-3.87-4.51-7.45-6.36-8.7l-2.28-5.14,1.35-13.61h-24.37l2.77,13.72-1.72,4.01v1.5c-3.48,5.41-3.05,6.56-2.8,7.25.23.63.72,1.1,1.34,1.32.25.87.7,1.72,1.5,2.17.05.03.1.04.15.07-.21,2.02-.32,3.54-.36,4.7-7.33-5.77-16.49-16.7-13.43-22.13,2-3.55.64-7.91-3.24-10.38-4.24-2.69-7.46-4.29-16.35-3.81-6.67.37-12.11,3.3-15.33,8.25-3,4.61-3.4,9.38-1.2,14.19-.13.75-.31,2.03-.32,3.39-.01,1.43.9,2.52,2.07,3.32-.61,2.03,1.49,3.53,2.29,4.1.99.71,1.94,1.22,2.82,1.6-.24.48-.38,1.03-.35,1.65.08,1.57,1.29,2.66,3.62,3.25-.12,1.34.62,2.79,2.22,4.32,1.99,1.91,3.98,2.74,5.75,2.97.06.99.55,2.29,2.29,3.49,1.14.79,2.39,1.37,3.6,1.79-.03.19-.05.39-.05.6-4.47,4.93-9.99,7.82-15.82,10.84-6.64,3.45-13.51,7.01-18.91,13.85-2.13,2.69-3.13,6.81-2.61,10.55-.19-.28-.37-.58-.52-.91-1.49-3.25-.63-8.68,2.49-15.7,2.62-5.9,7.62-10.03,12.03-13.67,6.2-5.12,12.61-10.42,6.14-18.37l-.09-.1c-2.27-2.44-5.56-2.96-8.46-3.42l-.57-.09c-1.23-.66-5.07-2.46-8.48-1.23-1.33.48-3.13,1.65-4.12,4.45l-.41,1.16.85.89c1.78,1.86,4.06,2.63,6.24,2.63,1.85,0,3.65-.56,5.02-1.48.92-.62,1.57-1.38,1.96-2.19,2.02.35,3.85.79,4.98,1.97,3.59,4.46,1.56,6.77-5.63,12.7-4.52,3.73-10.14,8.38-13.14,15.13-3.7,8.33-4.5,14.55-2.47,18.99,1.91,4.17,5.81,5.56,8.18,6.29.02.01.04.03.06.04l.49.32,8.4.16c.01.44.09.9.24,1.39l.64,2.12,33.54-.15-2.62-6.23c-.87-2.07-2.62-3.57-4.7-4.21l16.2-5.86,14.3-10.01c.22,2.04.42,4.25.61,6.43.42,4.8.85,9.76,1.62,13.32l.32,1.58h1.62c.75.11,2.56,2.41,3.65,4.65l.55,1.12h15.83l-3.98-9.4-4.69-1.5ZM21.55,49.75c-.65.15-2.1.33-3.47-.42.44-.56.88-.72,1.06-.79,1.21-.44,2.9,0,4.12.48-.37.27-.94.56-1.71.74ZM81.61,51.46c.51,0,1.11-.06,1.82-.18l-2.18,5.93-1.98-.14,2.34-5.61ZM88.14,50.08c4.18-1.38,7.1-3.22,8.6-5.37.54.42,1.14.79,1.8,1.03.21.08.42.15.63.21.89,2.01,3.66,8.9,3.37,15.55-.07,1.6-.73,4.56-1.86,8.34-1.82-5.34-6.12-13.98-13.39-17.48l.84-2.29ZM99.96,33.44c2.44,1.54,5.1,4.14,5.02,5.42-.07,1.13-.72,2.22-1.7,2.86-.68.44-1.82.85-3.34.28-1.11-.42-2.1-1.8-2.92-3.11-1.28-2.03-1.72-4.18-1.22-5.9.46-1.57.35-3.54-.54-5.41h1.72l2.45,5.53.51.32ZM97.26,15.65l-.79,7.94h-12.68l-1.6-7.94h15.07ZM79.09,36.35c.27.37.36.8.31,1.05.12-.61,1.35-2.86,2.63-4.83l.33-.5v-1.87l.27-.63,1.49,3.39s2.37-.99,4.4.14l1.94-3.5c-3.27-1.81-6.67-.78-7.67-.41l.69-1.6h6.82c1.61,1.37,2.01,3.14,1.67,4.29-.27.94-.37,1.93-.33,2.96-.37,1.06-1.59,3.22-5.45,4.03l.82,3.92c2.78-.58,4.68-1.71,5.97-2.93.2.4.42.79.66,1.18.08.13.17.26.25.39-.06.39-.28,1-1.12,1.78-2.62,2.45-8.09,3.9-10.62,4.21.01-.74.07-1.75.15-2.85.95.66,2.19,1.18,3.87,1.18.18,0,.36,0,.55-.02l-.25-3.99c-1.65.11-2.29-.64-3.18-1.87-.23-.31-.58-.78-1.03-1.2.22-.23.37-.46.47-.69.31-.7.22-1.5-.23-2.14l-2.76,1.96-.64.07c-.13-.28-.21-.59-.19-.91l.18-.6ZM69.65,89.32l-9.67,3.5c1.77-2.67,2.77-6,1.62-9.96-1-3.47-3.13-4.92-4.74-5.52-5.51-2.08-12.9,2.49-13.73,3.02l2.16,3.37c1.78-1.13,7.07-3.82,10.17-2.65,1.11.42,1.86,1.36,2.3,2.89,2.16,7.44-7.8,12.38-8.6,12.76l-3.28,1.19-1.14.22-2.76,6.56,10.2-2.2c1.73-.37,3.51.49,4.14,2.01l.3.71-23.02.1,8.32-3.24-20.79-.39h-.04c-1.21-1.05-1.69-2.61-1.88-3.79-.43-2.68.3-5.86,1.77-7.72,4.86-6.16,11.05-9.38,17.61-12.78,5.41-2.81,10.98-5.7,15.69-10.37,1.65,1.81,4.17,2.72,6.32,3.16-.23.55-.39,1.16-.42,1.82-.05,1.33.43,3.31,3.03,5.23,3.55,2.63,9.98,5.3,13.94,6.81l-7.52,5.26ZM96.63,106c-.97-1.73-2.73-4.38-4.92-5.38-.58-3.23-.95-7.5-1.31-11.65-.56-6.38-1.09-12.41-2.35-15.48l-3.7,1.53c.33.81.62,1.99.86,3.41l-4.05,2.84c-2.59-.93-11.46-4.23-15.54-7.24-.91-.68-1.43-1.35-1.41-1.85.02-.72.99-1.58,1.42-1.86l5.84-3.66-6.89-.04c-1.68,0-6.7-.57-7.77-2.94-.04-.08-.07-.16-.09-.22.05,0,.1,0,.16,0,.91.13,1.52.16,1.59.17l.53-3.95c-.36-.08-1.05-.21-1.86-.23-1.54-.25-3.95-.82-5.81-2.11-.29-.2-.44-.35-.52-.44.12-.17.38-.4.63-.57.14-.08.26-.15.38-.23l-2.07-3.42c-.07.04-.17.09-.3.17-.62.32-2.84,1.14-5.66-1.56-.33-.32-.55-.57-.7-.76.34-.08.77-.14,1.13-.14l-.02-4h0c-1.37,0-2.84-.13-3.92-.32.34-.14.71-.27,1.07-.37.17-.04.29-.07.35-.09l-1.06-3.85c-.06.01-.13.03-.21.05-.46.09-2.49.32-5.25-1.61l.47-3.03c-1.3-.33-2.83-1.02-3.29-1.46.04-1.58.35-2.99.35-3l.15-.7-.32-.64c-1.89-3.77-1.68-7.21.68-10.84,3.21-4.94,8.4-6.22,12.19-6.43,7.88-.43,10.33.86,13.98,3.19,1.74,1.11,3,3.09,1.9,5.04-2.39,4.25-.95,10.07,4.18,16.84,3.68,4.85,8.48,9.2,12.07,11.75l-2.13,5.1c-.45,1.08-.35,2.31.26,3.31s1.67,1.64,2.84,1.72l2.75.2c.09,0,.17,0,.26,0,1.51,0,2.89-.95,3.42-2.38l.99-2.69c6.69,3.51,10.82,13.26,11.74,17.57.21,1.01.85,1.81,1.69,2.22.32,1.7.79,4.85.36,7.14-.72,3.76-2.47,16.59-2.55,17.13l-.23,1.66,6.14,1.96.91,2.15h-7.33Z"/>
</svg>