<?xml version="1.0" encoding="UTF-8"?>
<svg id="Livello_3" data-name="Livello 3" xmlns="http://www.w3.org/2000/svg" viewBox="0 0 120 120">
  <defs>
    <style>
      .cls-1 {
        fill: #000;
        stroke-width: 0px;
      }
    </style>
  </defs>
  <path class="cls-1" d="M109.41,71.93c-1.21-.87-2.63-.38-5.48.58-.6.2-1.24.41-1.9.62v-26.91c2.42-.83,4.16-3.11,4.16-5.79,0-3.38-2.76-6.13-6.16-6.13s-6.16,2.75-6.16,6.13c0,2.68,1.74,4.96,4.16,5.79v27.88c-4.41.59-7.66,5.36-8.62,6.94l-6.03,3.96c-.92-1.02-2.34-1.43-3.69-1-4.31,1.36-8.97,2.97-13.38,4.75-.48-3.71-1.68-11.9-4.68-28.81.91,0,1.77-.17,2.48-.6.68-.41,1.83-1.41,1.83-3.52v-.54l-.28-.47c-1.76-2.99-3.57-7.96-3.79-8.55l-1.93-6.74c.55-.37,1.06-.82,1.5-1.35,1.45-1.77,1.89-4.09,1.17-6.2-.37-1.08-1.53-3.32-4.82-3.62l-1.33-13.9c-.24-2.54-2.43-4.39-4.99-4.21l-25.16,1.74c-2.56.18-4.51,2.39-4.35,4.94l1.07,17.23c-.44,1.3-2.59,6.57-8.81,6.44-1.33-.02-2.49.61-3.2,1.7-.7,1.08-.8,2.42-.26,3.58,3.71,7.92,9.25,9.27,14.56,9.27.17,0,.34-.01.51-.02.22,2.5.23,7.36-2.41,11.03-.62.86-1.7,2.37-1.73,3.82-2.22,2.32-7.35,8.61-7.35,17.5v22.64h51.96l4.37-5.21,15.39-7.19.19-.1c.53-.32,1.08-.66,1.66-1.02,3.09-1.91,6.79-4.18,10.13-5.05v18.68h4v-18.92c.11.01.22.03.32.04,1.24.18,2.95.42,3.77-1.08.91-1.67,1.26-4.5,1.64-7.49.12-.92.23-1.81.35-2.61.48-.23.84-.52,1.09-.79,1.39-1.48,1.25-3.75,1.17-5.1-.01-.2-.02-.37-.02-.5,0-.73-.34-1.4-.93-1.82ZM100.03,38.29c1.19,0,2.16.95,2.16,2.13s-.97,2.13-2.16,2.13-2.16-.95-2.16-2.13.97-2.13,2.16-2.13ZM60.05,91.48c-1.42-4.24-4.98-13.31-11.1-19.37-7.55-7.49-11.36-15.28-12.88-18.98,1.99,2.91,4.48,4.86,7.44,5.82,4.82,1.56,9.42-.02,11.42-.92.67.32,1.53.7,2.48,1.04,3.56,20,4.71,28.33,5.07,31.28-.83.37-1.63.75-2.42,1.13ZM32.05,53.88c1.04,2.72,3.47,8.13,8.05,14.18-6.6-1.71-12.18-.83-12.51-.77l-.17.03c2.67-4.54,2.65-9.85,2.39-12.68.64-.17,1.4-.41,2.24-.76ZM58.04,47.4l.04.12c.08.22,1.77,4.95,3.64,8.43-1.08.07-3.68-.77-5.84-1.92l-.96-.51-.95.53c-.19.11-4.7,2.56-9.23,1.09-2.49-.81-4.57-2.69-6.19-5.61,1.3-1.28,2.57-2.83,3.72-4.77,2.68-4.49,8.5-4.73,12.91-4.14.32.04.63.06.94.06l1.92,6.71ZM26.59,15.95l25.17-1.74s.03,0,.05,0c.35,0,.65.26.68.6l1.32,13.81-26.9,3.49-.96-15.46c-.02-.36.26-.68.64-.7ZM14.59,44.57c6.82-.06,10.53-4.92,11.94-8.38l29.71-3.85h0c2.19-.28,2.45.48,2.58.89.39,1.15-.2,2.05-.48,2.38-.65.79-1.64,1.19-2.64,1.06-7.92-1.06-13.91,1.09-16.87,6.05-4.56,7.65-11.14,8.31-11.37,8.33-5.14.29-9.66,0-12.88-6.48ZM64.43,106.09H18.34v-18.64c0-7.71,4.8-13.26,6.43-14.93.9-.09,2.12-.45,3.78-1.33,1.72-.22,10.36-.99,17.71,3.9,5.69,5.74,9.03,14.73,10.18,18.26-2.79,1.57-5.14,3.21-6.74,4.9l-8.14-10.21-3.13,2.49,11.71,14.69,1.4-2.81c.9-1.81,3.69-3.94,7.98-6.2l6.08-2.86c3.92-1.68,8.53-3.39,13.75-5.07l-14.92,17.81ZM106.31,76.51h-1.59l-.32,1.6c-.25,1.22-.42,2.64-.61,4.14-.22,1.74-.48,3.8-.83,5.12-.01,0-.03,0-.04,0-.66-.09-1.47-.21-2.33-.21h0c-5.05,0-10.45,3.33-14.79,6.01-.53.33-1.04.64-1.53.94l-7.52,3.51,6.53-7.79,9.12-5.99.24-.42c.73-1.3,3.4-5.08,5.97-5.38,2.17-.26,4.63-1.08,6.6-1.75.37-.12.79-.27,1.19-.4-.01.24-.04.46-.09.61Z"/>
  <path class="cls-1" d="M46.65,44.28l1.77,3.59c.63-.31,3.13.05,5.15.75l1.31-3.78c-1.29-.45-5.69-1.81-8.23-.56Z"/>
</svg>