<?xml version="1.0" encoding="UTF-8"?>
<svg id="Livello_3" data-name="Livello 3" xmlns="http://www.w3.org/2000/svg" viewBox="0 0 120 120">
  <defs>
    <style>
      .cls-1 {
        fill: #000;
        stroke-width: 0px;
      }
    </style>
  </defs>
  <path class="cls-1" d="M41.81,67.74h10.52l-.04,42.26h13.42v-42.26h10.26v42.26h33.03v-13.59h-19.65v-28.67h19.65V10h-13.38v44.15h-6.26V10.02H28.42v44.13h-6.04V10h-13.38v57.74h19.42v28.67H9v13.59h32.81v-42.26ZM75.97,54.15h-34.16v-30.54h34.16v30.54ZM61.71,63.74v42.26h-5.42l.04-42.26h-14.52v-5.59h34.16v5.59h-14.26ZM99.62,58.15V14h5.38v49.74h-15.65v-5.59h10.26ZM13,63.74V14h5.38v44.15h10.04v5.59h-15.42ZM37.81,106H13v-5.59h19.42V14.02h52.93v86.39h19.65v5.59h-25.03V19.61h-42.16v86.39Z"/>
</svg>