<?xml version="1.0" encoding="UTF-8"?>
<svg id="Livello_3" data-name="Livello 3" xmlns="http://www.w3.org/2000/svg" viewBox="0 0 120 120">
  <defs>
    <style>
      .cls-1 {
        fill: #000;
        stroke-width: 0px;
      }
    </style>
  </defs>
  <path class="cls-1" d="M92.59,63.95c-1.77,2.32-1.94,4.9-.47,7.08,1.59,2.37,4.88,3.82,8.22,3.82.95,0,1.9-.12,2.82-.36,4.12-1.1,6.67-4.45,6.99-9.19.32-4.69-.78-8.37-3.25-10.95-3.35-3.49-7.99-3.59-8.65-3.59-7.53-.16-11.39,4.66-12.88,7.16h-12.87c-.64-.21-1.28-.36-1.93-.49v-.62h-3.36v-2.4c1.08-.57,1.81-1.7,1.81-3v-2.34c0-4.62-3.67-8.04-8.73-8.15h-.07s-.89.04-.89.04l-.26.03c-4.4.82-7.59,4.65-7.59,9.12v1.29c0,1.27.71,2.39,1.75,2.97v2.44h-3.3v.72c-2.14.46-4.69,1.35-7.24,3.07-1.86,1.25-3.5,2.79-4.88,4.58-.53.69-1.39,1.03-2.25.89l-16.65-2.85-6.11-.03c-1.21,0-2.22.83-2.46,2.02s.38,2.34,1.5,2.8l29.2,12.1c1.61,1.4,4.44,2.81,8.5,3.72v4.1c-8.25.97-8.25,3.01-8.25,3.93s0,2.86,7.63,3.85c-.83,1.3-2.31,2.5-3.28,3.16-19.41,1.17-19.42,3.68-19.42,5.34,0,2.8,4.15,3.83,11.32,4.66,6.23.72,14.5,1.12,23.28,1.12s17.05-.4,23.28-1.12c7.17-.83,11.32-1.86,11.32-4.66,0-1.71,0-4.28-20.51-5.41-.82-.12-1.65-1.55-2.23-3.09,7.66-.99,7.67-2.96,7.67-3.85s0-3.01-8.53-3.96l.12-3.93c3.01-.7,5.64-1.98,7.75-4.4,1.77-2.02,2.88-4.53,3.29-7.46l.02-.28c0-.23,0-.47-.02-.71,1.23-1.25,2.67-2.16,3.14-2.06l1.84.36.48-1.81c.6-2.29.31-5.72.14-7.24.8-1.5,3.61-5.77,9.7-5.61.04,0,3.49-.02,5.76,2.38,1.65,1.74,2.36,4.39,2.12,7.89-.26,3.8-2.33,5.14-4.03,5.6-2.73.73-5.72-.37-6.69-1.82-.33-.49-.59-1.22.33-2.43l-3.18-2.43ZM55.46,50.11c0-2.5,1.76-4.66,4.2-5.17l.6-.03c2.8.09,4.75,1.79,4.75,4.15v1.73h-1.81v5.47h-5.99v-5.47h-1.75v-.69ZM70.81,91.87c-2.58.26-5.93.45-10,.45s-7.43-.19-10-.45c2.58-.26,5.93-.45,10-.45s7.43.19,10,.45ZM75.03,102.83c6.19.35,10.54.89,13.27,1.4-4.95.92-14.62,1.77-27.5,1.77s-22.57-.85-27.51-1.77c2.44-.46,6.31-.96,12.04-1.32.87.48,2.39.83,5.35,1.07.1,0,4.54.24,9.71.24,5.54,0,11.9-.28,14.64-1.39ZM70.26,99.85c-5.11.54-14.56.61-19.71.15,1.05-1.05,2.05-2.38,2.58-3.88,2.15.13,4.68.21,7.67.21s5.6-.08,7.77-.22c.33,1.09.87,2.49,1.68,3.74ZM67.82,87.59c-2-.11-4.31-.17-7.01-.17s-5.22.07-7.28.19v-3.09c1.9.23,3.98.36,6.27.36.27,0,.54,0,.82,0,2.56-.03,5.01-.07,7.3-.28l-.09,2.99ZM76.66,76.96c-3.28,3.75-8.94,3.83-16.11,3.92-10.15.15-15.59-2.5-17.05-3.92l-.27-.26-21.61-8.95,13.25,2.26c2.32.4,4.65-.52,6.09-2.39,1.11-1.45,2.44-2.69,3.94-3.7,2.89-1.94,5.79-2.59,7.75-2.79h14.94c1.34,0,2.68.23,3.97.69l6.42,2.26.9,6.37c.07.48.1.88.11,1.26-.32,2.08-1.1,3.85-2.32,5.25ZM84.75,65.27c-1.37.39-2.66,1.28-3.63,2.12l-3.22-3.83v.02s-1.39-1.65-1.39-1.65h8.18c.08,1.03.13,2.28.06,3.35Z"/>
  <path class="cls-1" d="M24.8,31.58c-11.3,9.32-8,21.56-6.06,26.38.45,1.11,1.5,1.83,2.65,1.83.07,0,.14,0,.22,0,1.29-.1,2.36-1.04,2.67-2.35.47-2.02.83-3.8,1.14-5.36,1.08-5.36,1.62-8.06,4.65-11.03l.31-.35c7.12-8.24,9.03-10.45,10.13-16.33.75-3.99.14-8.24-1.8-12.64-.57-1.3-1.92-1.98-3.28-1.65-1.42.34-2.38,1.67-2.29,3.17.29,4.98-.92,12.21-8.34,18.34ZM36.74,19.42c.15,1.45.1,2.86-.16,4.22-.9,4.81-2.34,6.47-9.23,14.45l-.14.17c-3.86,3.82-4.6,7.49-5.71,13.04-.08.42-.17.85-.26,1.29-1.15-5.17-.84-12.18,6.11-17.91,5.91-4.88,8.47-10.38,9.39-15.25Z"/>
  <path class="cls-1" d="M35.42,45.16c9.53-5.91,10-17.86,10.02-18.36l-4-.13c0,.1-.45,10.32-8.13,15.09-7.87,4.88-8.15,13.77-7.21,17.79l3.89-.92c-.02-.09-2-8.87,5.42-13.47Z"/>
  <path class="cls-1" d="M15.18,52.71c-.04-.14-4.15-14.33,4.86-20.42,6.49-4.39,10.02-8.66,10.49-12.69.35-2.99-1.14-4.72-1.31-4.91l-2.95,2.7s.42.63.29,1.74c-.19,1.59-1.57,4.98-8.76,9.84-11.45,7.75-6.66,24.19-6.45,24.89l3.83-1.15Z"/>
</svg>