<svg id="Symbols" xmlns="http://www.w3.org/2000/svg" viewBox="0 0 150 150"><defs><style>.cls-1{fill:#231f20;stroke:#000;stroke-miterlimit:10;}</style></defs><title>IV-emperor-bold</title><circle class="cls-1" cx="75.08" cy="107.76" r="5"/><circle class="cls-1" cx="42" cy="75" r="5"/><circle class="cls-1" cx="107.94" cy="74.8" r="5"/><path class="cls-1" d="M61.07,64.12c0,5,4.78,10.81,8.33,14.4H65.18v8H71v13.54h8V86.52h5.82v-8H80.6c3.55-3.59,8.33-9.36,8.33-14.4a13.93,13.93,0,0,0-27.86,0ZM75,58.19a5.94,5.94,0,0,1,5.93,5.93c0,1.41-2.33,5-5.93,8.68-3.6-3.68-5.93-7.27-5.93-8.68A5.94,5.94,0,0,1,75,58.19Z"/><path class="cls-1" d="M25,25V125H125V25ZM75,46.84A5,5,0,0,0,76.1,37a38,38,0,1,1-2.2,0A5,5,0,0,0,75,46.84ZM33,33H72.75A42,42,0,0,0,33,74Zm84,84H33V75.9a42,42,0,0,0,84,0Zm0-43A42,42,0,0,0,77.25,33H117Z"/></svg>