<svg id="Symbols" xmlns="http://www.w3.org/2000/svg" viewBox="0 0 150 150"><title>XIII-death-bold</title><path d="M75,25a50,50,0,1,0,50,50A50.06,50.06,0,0,0,75,25Zm0,92a42,42,0,1,1,42-42A42,42,0,0,1,75,117Z"/><path d="M103.28,52.37l-5.65-5.65L77,67.34V65c2.07-1.92,7-6.9,7-10.89a9,9,0,1,0-18,0c0,4,4.93,9,7,10.89v2.37L52.37,46.72l-5.65,5.65L69.34,75,46.72,97.63l5.65,5.65L73,82.66v22.8h4V82.66l20.63,20.62,5.65-5.65L80.66,75ZM70,54.08a5,5,0,1,1,10,0c0,1.68-2.64,4.94-5,7.26C72.64,59,70,55.77,70,54.08Z"/><path d="M54.14,75.7h3.63v-3H55.9l3-5.21H39.59l3.07,5.21H40.77v3h3.66L49.31,84Zm-9.3-5.21h8.87L52.42,72.7H46.15Zm3.08,5.21h2.75L49.3,78Z"/><path d="M107.34,77.3h1.89v-3h-3.66L100.69,66,95.86,74.3H92.23v3H94.1l-3,5.21h19.35ZM100.7,72l1.38,2.34H99.33ZM97.58,77.3h6.27l1.31,2.21H96.29Z"/></svg>