<svg id="Symbols" xmlns="http://www.w3.org/2000/svg" viewBox="0 0 150 150"><title>XIV-temperance-bold</title><path d="M62.67,43.83v3h5.56L74.81,58l6.5-11.13h5.52v-3H83.07l4.33-7.41H62.09l4.37,7.41ZM74.79,52l-3.07-5.21h6.12ZM67.34,39.42H82.17l-2.58,4.41H70Z"/><path d="M87.33,106.17v-3H81.77L75.19,92l-6.5,11.13H63.17v3h3.76l-4.33,7.41H87.91l-4.37-7.41ZM75.21,98l3.07,5.21H72.16Zm7.45,12.62H67.83l2.58-4.41h9.64Z"/><path d="M25,25V125H125V25Zm92,8V63.38a11.22,11.22,0,0,0-2.6,2c-.76.73-.79.73-1.07.73s-.31,0-1.07-.73a8.87,8.87,0,0,0-13.21,0c-.75.73-.78.73-1.06.73s-.31,0-1.07-.73a8.86,8.86,0,0,0-13.2,0c-.76.73-.78.73-1.07.73s-.3,0-1.06-.73a8.87,8.87,0,0,0-13.21,0c-.75.73-.77.73-1.06.73s-.3,0-1.06-.72a8.84,8.84,0,0,0-13.2,0c-.76.72-.78.72-1.06.72s-.31,0-1.07-.73a8.86,8.86,0,0,0-13.2,0c-.76.73-.78.73-1.07.73s-.3,0-1.06-.73a11.74,11.74,0,0,0-2.6-2V33ZM33,73.29a8.43,8.43,0,0,0,3.66.8,9,9,0,0,0,6.61-3c.75-.73.78-.73,1.06-.73s.31,0,1.06.73a8.86,8.86,0,0,0,13.21,0c.75-.72.78-.72,1.06-.72s.3,0,1.06.73a8.87,8.87,0,0,0,13.21,0c.75-.73.77-.73,1.06-.73s.3,0,1.06.72a8.86,8.86,0,0,0,13.21,0c.75-.73.77-.73,1.06-.73s.31,0,1.06.73a8.87,8.87,0,0,0,13.21,0c.76-.73.78-.73,1.07-.73s.31,0,1.06.73a9,9,0,0,0,6.61,3,8.33,8.33,0,0,0,3.67-.81v3.6a11.22,11.22,0,0,0-2.6,2c-.76.73-.79.73-1.07.73s-.31,0-1.07-.73a8.87,8.87,0,0,0-13.21,0c-.75.73-.78.73-1.06.73s-.31,0-1.07-.73a8.86,8.86,0,0,0-13.2,0c-.76.73-.78.73-1.07.73s-.3,0-1.06-.73a8.87,8.87,0,0,0-13.21,0c-.75.73-.77.73-1.06.73s-.3,0-1.06-.72a8.84,8.84,0,0,0-13.2,0c-.76.72-.78.72-1.06.72s-.31,0-1.07-.73a8.86,8.86,0,0,0-13.2,0c-.76.73-.78.73-1.07.73s-.3,0-1.06-.73a11.74,11.74,0,0,0-2.6-2ZM33,117V86.79a8.43,8.43,0,0,0,3.66.8,9,9,0,0,0,6.61-3c.75-.73.78-.73,1.06-.73s.31,0,1.06.73a8.86,8.86,0,0,0,13.21,0c.75-.72.78-.72,1.06-.72s.3,0,1.06.73a8.87,8.87,0,0,0,13.21,0c.75-.73.77-.73,1.06-.73s.3,0,1.06.72a8.86,8.86,0,0,0,13.21,0c.75-.73.77-.73,1.06-.73s.31,0,1.06.73a8.87,8.87,0,0,0,13.21,0c.76-.73.78-.73,1.07-.73s.31,0,1.06.73a9,9,0,0,0,6.61,3,8.33,8.33,0,0,0,3.67-.81V117Z"/></svg>