<svg id="Symbols" xmlns="http://www.w3.org/2000/svg" viewBox="0 0 150 150"><title>XII-thehangedman-bold</title><path d="M91.21,110.67l7,4.06,2-3.46-7-4.06A20,20,0,0,0,79,79.4V43.17H97.5v-8H79V23H71V35.17H45.17L71,75.34V79.4a20,20,0,0,0-14.22,27.81l-7,4.06,2,3.46,7-4.06a20,20,0,0,0,4.54,4.54l-4.06,7,3.46,2,4.06-7A19.89,19.89,0,0,0,73,118.9V127h4v-8.1a19.89,19.89,0,0,0,6.21-1.68l4.06,7,3.46-2-4.06-7A20,20,0,0,0,91.21,110.67ZM59.83,43.17H71V60.55ZM75,111a12,12,0,1,1,3.93-23.33l.07.12V87.7A12,12,0,0,1,75,111Z"/></svg>