<svg id="Symbols" xmlns="http://www.w3.org/2000/svg" viewBox="0 0 150 150"><title>II–thehighpriestess-bold</title><path d="M93,57c0-.33,0-.65,0-1A18,18,0,0,0,82.61,39.72a9,9,0,1,0-15.22,0A18,18,0,0,0,57,56c0,.32,0,.64,0,1H20.89L75,127.57,129.11,57Zm19.94,8L77,111.81V90H87.5V86H77V73.91A18,18,0,0,0,90.58,65ZM75,30a5,5,0,0,1,3.62,8.44,18.38,18.38,0,0,0-7.24,0A5,5,0,0,1,75,30ZM71.36,42.51h0a14,14,0,0,1,7.28,0h0a14,14,0,1,1-7.28,0ZM59.42,65A18,18,0,0,0,73,73.91V86H62.5v4H73v21.78L37.11,65Z"/><path d="M75.46,65.67a9.49,9.49,0,0,0,8.4-5.07l1.62-3.06-3.34.91A6.5,6.5,0,0,1,74,52.17a6.44,6.44,0,0,1,.75-3l1.62-3L73,47a9.5,9.5,0,0,0,2.47,18.68ZM71,51.45q0,.36,0,.72a9.52,9.52,0,0,0,8.12,9.39,6.45,6.45,0,0,1-3.62,1.11A6.5,6.5,0,0,1,71,51.45Z"/></svg>