<svg id="Symbols" xmlns="http://www.w3.org/2000/svg" viewBox="0 0 150 150"><title>XVI-thetower-bold</title><path d="M75,25a50,50,0,1,0,50,50A50.06,50.06,0,0,0,75,25Zm42,50a41.76,41.76,0,0,1-7.83,24.37H89.75l5.39-8.69-1.7-1.05-2,3.17V36.37A42.06,42.06,0,0,1,117,75ZM89.34,96.23l0-.06h.07ZM87.47,34.89V93l-2-3.35-1.73,1,5.07,8.71H72.18l5.39-8.69-1.7-1.05-2.19,3.53v-28l-16.9-16.9L72.87,33.05c.7,0,1.41,0,2.13,0A41.79,41.79,0,0,1,87.47,34.89ZM71.78,96.23l0-.06h.07ZM66.1,34l-15,14.26L69.68,66.85V92.62l-1.72-3-1.73,1,5.06,8.71H40.83A41.95,41.95,0,0,1,66.1,34ZM48.27,107.37h53.46a41.91,41.91,0,0,1-53.46,0Z"/></svg>