<svg id="Symbols" xmlns="http://www.w3.org/2000/svg" viewBox="0 0 150 150"><title>XVII-thestar-bold</title><path d="M117.61,116.72c-.91.88-1,.88-1.36.88s-.46,0-1.37-.88A9.4,9.4,0,0,0,108,113.6a9.2,9.2,0,0,0-1.9.21l7.83-13.49H123v-4h-6.8L123,84.6H88l6.87,11.72H88v4h9.22l8,13.69a10.37,10.37,0,0,0-4.21,2.71c-.91.88-1,.88-1.36.88s-.46,0-1.37-.88a9.23,9.23,0,0,0-13.84,0c-.91.88-1,.88-1.37.88s-.45,0-1.36-.88a9.23,9.23,0,0,0-13.84,0c-.91.88-1,.88-1.36.88s-.46,0-1.37-.88a9.23,9.23,0,0,0-13.84,0c-.9.88-1,.88-1.36.88s-.45,0-1.36-.88a10.79,10.79,0,0,0-3.76-2.55L62,84.6H27L44.2,114a8.77,8.77,0,0,0-2.52-.35,9.37,9.37,0,0,0-6.92,3.12c-.91.88-1,.88-1.37.88s-.45,0-1.36-.88a9.37,9.37,0,0,0-6.92-3.12v8c.4,0,.46,0,1.36.88a9.25,9.25,0,0,0,13.85,0c.9-.88,1-.88,1.36-.88s.45,0,1.36.88a9.23,9.23,0,0,0,13.84,0c.91-.88,1-.88,1.36-.88s.46,0,1.37.88a9.23,9.23,0,0,0,13.84,0c.91-.88,1-.88,1.36-.88s.46,0,1.36.88a9.25,9.25,0,0,0,13.85,0c.9-.88,1-.88,1.36-.88s.46,0,1.37.88a9.23,9.23,0,0,0,13.84,0c.91-.88,1-.88,1.36-.88s.46,0,1.37.88a9.25,9.25,0,0,0,13.85,0c.91-.88,1-.88,1.37-.88v-8A9.4,9.4,0,0,0,117.61,116.72ZM95,88.6h21.07l-4.48,7.72H99.51Zm14.27,11.72-3.68,6.34-3.72-6.34ZM55.05,88.6,44.57,106.66,34,88.6Z"/><polygon points="60.98 49.02 66.64 54.67 71.03 50.29 71.03 56.49 79.03 56.49 79.03 50.29 83.42 54.68 89.07 49.02 84.68 44.63 90.89 44.63 90.89 36.63 84.68 36.63 89.07 32.24 83.42 26.58 79.03 30.97 79.03 24.77 71.03 24.77 71.03 30.97 66.64 26.58 60.98 32.24 65.37 36.63 59.16 36.63 59.16 44.63 65.37 44.63 60.98 49.02"/><polygon points="79 72.94 77.42 72.94 78.54 71.82 77.12 70.4 76 71.53 76 69.94 74 69.94 74 71.53 72.88 70.4 71.46 71.82 72.58 72.94 71 72.94 71 74.94 72.59 74.94 71.46 76.06 72.88 77.47 74 76.35 74 77.94 76 77.94 76 76.35 77.12 77.47 78.54 76.06 77.41 74.94 79 74.94 79 72.94"/><polygon points="59.46 76.06 60.87 77.47 61.99 76.35 61.99 77.94 63.99 77.94 63.99 76.35 65.11 77.47 66.53 76.06 65.41 74.94 66.99 74.94 66.99 72.94 65.41 72.94 66.53 71.82 65.11 70.4 63.99 71.52 63.99 69.94 61.99 69.94 61.99 71.53 60.87 70.4 59.46 71.82 60.58 72.94 58.99 72.94 58.99 74.94 60.58 74.94 59.46 76.06"/><polygon points="91.01 72.94 89.42 72.94 90.54 71.82 89.13 70.4 88.01 71.53 88.01 69.94 86.01 69.94 86.01 71.52 84.89 70.4 83.47 71.82 84.59 72.94 83.01 72.94 83.01 74.94 84.59 74.94 83.47 76.06 84.89 77.47 86.01 76.35 86.01 77.94 88.01 77.94 88.01 76.35 89.13 77.47 90.54 76.06 89.42 74.94 91.01 74.94 91.01 72.94"/><polygon points="79 61.7 77.41 61.7 78.54 60.58 77.12 59.16 76 60.28 76 58.7 74 58.7 74 60.28 72.88 59.16 71.46 60.58 72.59 61.7 71 61.7 71 63.7 72.59 63.7 71.46 64.82 72.88 66.23 74 65.11 74 66.7 76 66.7 76 65.11 77.12 66.23 78.54 64.82 77.41 63.7 79 63.7 79 61.7"/><polygon points="79 84.18 77.41 84.18 78.54 83.06 77.12 81.64 76 82.77 76 81.18 74 81.18 74 82.77 72.88 81.64 71.46 83.06 72.59 84.18 71 84.18 71 86.18 72.59 86.18 71.46 87.3 72.88 88.72 74 87.59 74 89.18 76 89.18 76 87.59 77.12 88.72 78.54 87.3 77.41 86.18 79 86.18 79 84.18"/><polygon points="79 95.42 77.41 95.42 78.54 94.3 77.12 92.88 76 94 76 92.42 74 92.42 74 94 72.88 92.88 71.46 94.3 72.59 95.42 71 95.42 71 97.42 72.58 97.42 71.46 98.54 72.88 99.95 74 98.83 74 100.42 76 100.42 76 98.83 77.12 99.95 78.54 98.54 77.42 97.42 79 97.42 79 95.42"/><polygon points="79 106.66 77.41 106.66 78.54 105.54 77.12 104.13 76 105.25 76 103.66 74 103.66 74 105.25 72.88 104.13 71.46 105.54 72.59 106.66 71 106.66 71 108.66 72.59 108.66 71.46 109.78 72.88 111.19 74 110.07 74 111.66 76 111.66 76 110.07 77.12 111.19 78.54 109.78 77.41 108.66 79 108.66 79 106.66"/></svg>