<svg id="Symbols" xmlns="http://www.w3.org/2000/svg" viewBox="0 0 150 150"><title>VI-lovers-bold</title><path d="M50.91,89.1A5.09,5.09,0,0,1,45.83,84a4.91,4.91,0,0,1,.58-2.36L48,78.59l-3.34.9a8.09,8.09,0,1,0,9.25,11.59L55.56,88l-3.34.91A5.05,5.05,0,0,1,50.91,89.1Z"/><path d="M44.78,54.66H32a6.57,6.57,0,1,0,0,13.13v-4a2.57,2.57,0,1,1,0-5.13H44.78a6.57,6.57,0,0,0,0-13.13H32a2.57,2.57,0,1,1,0-5.13H44.78A6.56,6.56,0,0,0,51.33,34,8.54,8.54,0,0,0,52.24,30c0-3-1.24-5.48-2.74-5.48S46.76,26.94,46.76,30a9,9,0,0,0,.8,3.87h-.22a2.56,2.56,0,0,1-2.56,2.56H32a6.57,6.57,0,1,0,0,13.13H44.78a2.57,2.57,0,0,1,0,5.13Z"/><path d="M122.32,90.94a2.54,2.54,0,0,0-1.5.21l-4.08-.72c0-.33.06-.66.08-1H121a2.41,2.41,0,0,0,1.44.47A2.47,2.47,0,1,0,121,85.43h-4.15c0-.33,0-.67-.08-1l4.08-.72a2.39,2.39,0,0,0,1.5.21,2.47,2.47,0,0,0-.86-4.86,2.43,2.43,0,0,0-1.34.71l-4.07.72c-.08-.33-.17-.65-.27-1l3.9-1.42a2.37,2.37,0,0,0,1.51,0,2.47,2.47,0,1,0-2.88-3.71l-3.9,1.42c-.14-.3-.27-.61-.42-.91l3.59-2.07a2.52,2.52,0,0,0,1.48-.31,2.47,2.47,0,1,0-2.47-4.28,2.42,2.42,0,0,0-1,1.12L112,71.39c-.19-.28-.39-.55-.59-.82l3.19-2.67a2.43,2.43,0,0,0,1.4-.57,2.47,2.47,0,1,0-3.17-3.78,2.43,2.43,0,0,0-.8,1.28l-3.19,2.68c-.23-.24-.47-.48-.71-.71l2.68-3.19a2.47,2.47,0,1,0-2.5-4,2.43,2.43,0,0,0-.57,1.4l-2.67,3.18-.82-.58,2.08-3.59a2.53,2.53,0,0,0,1.12-1,2.47,2.47,0,1,0-4.28-2.47,2.43,2.43,0,0,0-.31,1.48l-2.07,3.59c-.3-.15-.61-.29-.91-.42l1.42-3.9a2.47,2.47,0,1,0-3.71-2.88,2.37,2.37,0,0,0,0,1.51l-1.42,3.9c-.32-.1-.65-.19-1-.27l.72-4.08a2.37,2.37,0,0,0,.71-1.33,2.47,2.47,0,0,0-4.86-.86,2.39,2.39,0,0,0,.21,1.5l-.72,4.08c-.33,0-.67-.06-1-.08V54.66a2.47,2.47,0,1,0-4.47-1.44,2.41,2.41,0,0,0,.47,1.44v4.15A28.57,28.57,0,0,0,71,64.5a28.64,28.64,0,0,0-33.64-.61v-.1H32v4h.8A28.68,28.68,0,0,0,71,110.36,28.66,28.66,0,0,0,114.41,99.1l3.9,1.42a2.47,2.47,0,1,0,2.88-3.71,2.52,2.52,0,0,0-1.51,0l-3.9-1.42c.09-.32.19-.64.27-1l4.08.72a2.46,2.46,0,1,0,2.19-4.15ZM71,98.86A20.61,20.61,0,0,1,71,76a20.61,20.61,0,0,1,0,22.86ZM33,87.43A20.69,20.69,0,0,1,65.22,70.24a28.65,28.65,0,0,0,0,34.38A20.68,20.68,0,0,1,33,87.43Zm55.2,20.71a20.54,20.54,0,0,1-11.52-3.52,28.65,28.65,0,0,0,0-34.38,20.7,20.7,0,1,1,11.52,37.9Z"/><path d="M87.7,87.45A6.44,6.44,0,1,0,94.14,81,6.44,6.44,0,0,0,87.7,87.45Z"/><rect x="92.15" y="76.74" width="4" height="3.76"/><rect x="85.86" y="79.2" width="4" height="3.89" transform="translate(-31.65 85.89) rotate(-45)"/><rect x="83.24" y="85.43" width="3.95" height="4"/><rect x="85.91" y="91.72" width="3.87" height="4" transform="translate(-40.54 89.55) rotate(-44.99)"/><rect x="92.13" y="94.4" width="4" height="3.92"/><rect x="98.4" y="91.81" width="4" height="3.84" transform="translate(-36.87 98.45) rotate(-45)"/><rect x="101.09" y="85.46" width="3.9" height="4"/><rect x="98.5" y="79.19" width="3.82" height="4" transform="translate(-28 94.8) rotate(-45.01)"/></svg>