<svg id="Symbols" xmlns="http://www.w3.org/2000/svg" viewBox="0 0 150 150"><defs><style>.cls-1{fill:none;stroke:#231f20;stroke-miterlimit:10;stroke-width:4px;}</style></defs><title>VIII-strength-bold</title><polyline class="cls-1" points="42.02 66.19 34 75.16 42.02 83.81"/><polygon points="109.45 85.17 118.7 75.18 109.47 64.85 106.49 67.52 109.74 71.16 84.72 71.16 102.38 53.49 102.56 57.99 106.55 57.83 106.24 49.64 106.39 49.48 106.23 49.31 106.03 44.22 100.84 43.93 100.74 43.83 100.64 43.92 92.2 43.45 91.98 47.44 96.85 47.72 79.16 65.41 79.16 40.43 82.45 43.48 85.17 40.55 75.18 31.3 64.85 40.52 67.52 43.51 71.16 40.26 71.16 65.28 53.49 47.62 57.99 47.44 57.83 43.45 49.64 43.76 49.48 43.6 49.31 43.77 44.22 43.97 43.93 49.16 43.83 49.26 43.92 49.36 43.45 57.8 47.44 58.02 47.72 53.15 65.72 71.16 35 71.16 35 79.16 65.41 79.16 47.72 96.85 47.44 91.98 43.45 92.2 43.92 100.64 43.83 100.74 43.93 100.84 44.22 106.03 49.31 106.23 49.48 106.39 49.64 106.24 57.83 106.55 57.99 102.56 53.49 102.38 71.16 84.72 71.16 109.74 67.52 106.49 64.85 109.47 75.18 118.7 85.17 109.45 82.45 106.52 79.16 109.57 79.16 84.59 96.85 102.28 91.98 102.56 92.2 106.55 100.64 106.08 100.74 106.17 100.84 106.07 106.03 105.78 106.23 100.69 106.39 100.52 106.24 100.36 106.55 92.17 102.56 92.01 102.38 96.51 85.03 79.16 109.57 79.16 106.52 82.45 109.45 85.17"/></svg>