<svg id="Symbols" xmlns="http://www.w3.org/2000/svg" viewBox="0 0 150 150"><defs><style>.cls-1{fill:#231f20;}</style></defs><title>XI-justice-bold</title><circle class="cls-1" cx="75" cy="120.43" r="4"/><path class="cls-1" d="M75,126.43a6,6,0,1,1,6-6A6,6,0,0,1,75,126.43Zm0-8a2,2,0,1,0,2,2A2,2,0,0,0,75,118.43Z"/><path d="M27.76,39v4h4l7.86,13.33L47.41,43h3.94V39h-1.6l5.09-8.71H24.25L29.4,39Zm11.85,9.43L36.4,43h6.38Zm8.26-14.14L45.12,39H34l-2.78-4.71Z"/><path d="M110,28.38l-15.21,26H125.4Zm0,7.9,8.35,14.14H101.78Z"/><path d="M121.89,95.91v-4h-4L110,78.59l-7.78,13.32H98.29v4H99.9l-5.09,8.71H125.4l-5.15-8.71ZM110,86.49l3.21,5.42h-6.38Zm-8.26,14.13,2.75-4.71h11.08l2.78,4.71Z"/><path d="M40,106.57l15.21-26H24.6Zm0-7.9L31.61,84.54H48.22Z"/><path d="M90.59,66.39C91.92,72.46,99.25,77,108.37,77c10.09,0,18-5.52,18-12.56h-4c0,4.64-6.41,8.56-14,8.56s-14-3.92-14-8.56v-2L79,62.38V47.67L75,27.05,71,47.67V62.36l-13.88,0-1.71,0-.27,1.69,0,.32c0,4.64-6.41,8.56-14,8.56s-14-3.92-14-8.56h-4c0,7,7.91,12.56,18,12.56,9.14,0,16.49-4.53,17.8-10.62l12.09,0V106.2H67.18a6,6,0,1,0,0,8H71v2.23h8V114.2h3.82a6,6,0,0,0,4.46,2,6,6,0,1,0-4.46-10H79V66.38Z"/></svg>