<svg id="Symbols" xmlns="http://www.w3.org/2000/svg" viewBox="0 0 150 150"><title>VII-chariot-bold</title><path d="M75,25a50,50,0,1,0,50,50A50.06,50.06,0,0,0,75,25Zm0,92a42,42,0,1,1,42-42A42,42,0,0,1,75,117Z"/><rect x="39.73" y="90.21" width="70.54" height="4"/><path d="M49.61,76.79v-14a3,3,0,0,1,6,0v14a7,7,0,0,0,14,0v-14a3,3,0,0,1,6,0v14a7,7,0,0,0,14,0v-14a3,3,0,0,1,6,0v14a7,7,0,0,0,7,7H105l-3.35,1.95,1,1.73L112.08,82l-3.35-2.08v-.11h-.17l-5.91-3.66-1.06,1.7,3.17,2h-2.15a3,3,0,0,1-3-3v-14a7,7,0,0,0-14,0v14a3,3,0,0,1-6,0v-14a7,7,0,0,0-14,0v14a3,3,0,0,1-6,0v-14a7,7,0,0,0-14,0v14a3,3,0,0,1-3,3H39.86v4h2.75A7,7,0,0,0,49.61,76.79Z"/></svg>