<svg id="Symbols" xmlns="http://www.w3.org/2000/svg" viewBox="0 0 150 150"><title>0-fool-bold</title><g id="Bold"><path d="M75,125a50,50,0,1,1,50-50A50.06,50.06,0,0,1,75,125Zm0-92a42,42,0,1,0,42,42A42,42,0,0,0,75,33Z"/><rect x="88.83" y="58" width="11.99" height="3"/><polygon points="100.21 57.41 103.83 59.5 100.21 61.59 100.21 57.41"/><rect x="88.83" y="53" width="11.99" height="3"/><polygon points="100.21 52.41 103.83 54.5 100.21 56.59 100.21 52.41"/><rect x="88.83" y="48" width="11.99" height="3"/><polygon points="100.21 47.41 103.83 49.5 100.21 51.59 100.21 47.41"/><rect x="88.83" y="89" width="11.99" height="3"/><polygon points="100.21 88.41 103.83 90.5 100.21 92.59 100.21 88.41"/><rect x="88.83" y="94" width="11.99" height="3"/><polygon points="100.21 93.41 103.83 95.5 100.21 97.59 100.21 93.41"/><rect x="88.83" y="99" width="11.99" height="3"/><polygon points="100.21 98.41 103.83 100.5 100.21 102.59 100.21 98.41"/><rect x="49.18" y="58" width="11.99" height="3"/><polygon points="49.79 61.59 46.17 59.5 49.79 57.41 49.79 61.59"/><rect x="49.18" y="53" width="11.99" height="3"/><polygon points="49.79 56.59 46.17 54.5 49.79 52.41 49.79 56.59"/><rect x="49.18" y="48" width="11.99" height="3"/><polygon points="49.79 51.59 46.17 49.5 49.79 47.41 49.79 51.59"/><rect x="49.18" y="89" width="11.99" height="3"/><polygon points="49.79 92.59 46.17 90.5 49.79 88.41 49.79 92.59"/><rect x="49.18" y="94" width="11.99" height="3"/><polygon points="49.79 97.59 46.17 95.5 49.79 93.41 49.79 97.59"/><rect x="49.18" y="99" width="11.99" height="3"/><polygon points="49.79 102.59 46.17 100.5 49.79 98.41 49.79 102.59"/><rect x="80.01" y="68.5" width="21.99" height="3"/><polygon points="80.63 72.09 77 70 80.63 67.91 80.63 72.09"/><rect x="80.01" y="78.5" width="21.99" height="3"/><polygon points="80.63 82.09 77 80 80.63 77.91 80.63 82.09"/><rect x="48" y="68.5" width="21.99" height="3"/><polygon points="69.37 67.91 73 70 69.37 72.09 69.37 67.91"/><rect x="48" y="78.5" width="21.99" height="3"/><polygon points="69.37 77.91 73 80 69.37 82.09 69.37 77.91"/><rect x="68.5" y="49.51" width="3" height="16.99"/><polygon points="67.91 50.13 70 46.5 72.09 50.13 67.91 50.13"/><rect x="78.5" y="49.51" width="3" height="16.99"/><polygon points="77.91 50.13 80 46.5 82.09 50.13 77.91 50.13"/><rect x="68.5" y="83.5" width="3" height="16.99"/><polygon points="72.09 99.87 70 103.5 67.91 99.87 72.09 99.87"/><rect x="78.5" y="83.5" width="3" height="16.99"/><polygon points="82.09 99.87 80 103.5 77.91 99.87 82.09 99.87"/><rect x="42.81" y="63.5" width="23.69" height="3"/><polygon points="45.18 67.99 40 65 45.18 62.01 45.18 67.99"/><rect x="42.81" y="83.5" width="23.69" height="3"/><polygon points="45.18 87.99 40 85 45.18 82.01 45.18 87.99"/><rect x="63.5" y="83.5" width="3" height="23.69"/><polygon points="67.99 104.82 65 110 62.01 104.82 67.99 104.82"/><rect x="83.5" y="83.5" width="3" height="23.69"/><polygon points="87.99 104.82 85 110 82.01 104.82 87.99 104.82"/><rect x="63.5" y="42.81" width="3" height="23.69"/><polygon points="62.01 45.18 65 40 67.99 45.18 62.01 45.18"/><rect x="83.5" y="42.81" width="3" height="23.69"/><polygon points="82.01 45.18 85 40 87.99 45.18 82.01 45.18"/><rect x="37.81" y="73.5" width="33.69" height="3"/><polygon points="40.18 77.99 35 75 40.18 72.01 40.18 77.99"/><rect x="73.5" y="78.5" width="3" height="33.69"/><polygon points="77.99 109.82 75 115 72.01 109.82 77.99 109.82"/><rect x="83.5" y="83.5" width="23.69" height="3"/><polygon points="104.82 82.01 110 85 104.82 87.99 104.82 82.01"/><rect x="78.5" y="73.5" width="33.69" height="3"/><polygon points="109.82 72.01 115 75 109.82 77.99 109.82 72.01"/><rect x="83.5" y="63.5" width="23.69" height="3"/><polygon points="104.82 62.01 110 65 104.82 67.99 104.82 62.01"/><rect x="73.5" y="37.81" width="3" height="33.69"/><polygon points="72.01 40.18 75 35 77.99 40.18 72.01 40.18"/></g></svg>