<svg id="Symbols" xmlns="http://www.w3.org/2000/svg" viewBox="0 0 150 150"><defs><style>.cls-1{fill:#231f20;}</style></defs><title>XVIII-themoon-bold</title><path class="cls-1" d="M75,86.93A31,31,0,1,0,44,56,31,31,0,0,0,75,86.93ZM98,56a23,23,0,0,1-23,23,21.4,21.4,0,0,1-2.9-.19,31,31,0,0,0,0-45.55A22.92,22.92,0,0,1,98,56ZM63.05,36.36a23,23,0,0,1,0,39.21,22.95,22.95,0,0,1,0-39.21Z"/><polygon class="cls-1" points="33 29 25 29 25 121 33 121 33 110.25 61 110.25 61 107.25 33 107.25 33 29"/><polygon class="cls-1" points="117 29 117 107.25 89 107.25 89 110.25 117 110.25 117 121 125 121 125 29 117 29"/><path class="cls-1" d="M81.53,108.74v-.42a4.71,4.71,0,0,0-.11-1,9.85,9.85,0,0,0,3.45-7.49,9.53,9.53,0,0,0-.62-3.4V95.18H78.17v3.87h3v-.87h.49a6.43,6.43,0,0,1,.21,1.65,6.87,6.87,0,0,1-2,4.8,5.39,5.39,0,0,0-.71-.55,4.53,4.53,0,0,0,0-.52v-.42a4.22,4.22,0,1,0-8.44,0v.42a4.41,4.41,0,0,0,0,.52,5.39,5.39,0,0,0-.71.55,6.87,6.87,0,0,1-2-4.8,6.43,6.43,0,0,1,.21-1.65h.49v.87h3V95.18H65.75v1.25a9.53,9.53,0,0,0-.62,3.4,9.84,9.84,0,0,0,3.45,7.49,4.78,4.78,0,0,0-.1,1v.42a5.07,5.07,0,0,0,1.1,3.15l-6,4.28.18,4.88,3-.1-.12-3.28,3.82-2.74v2.37a4.5,4.5,0,1,0,9,0v-2.38l3.82,2.75L83.2,121l3,.1.18-4.88-6-4.28A5.06,5.06,0,0,0,81.53,108.74Zm-8,2.06a2.05,2.05,0,0,1-2.06-2.06v-.42a2.05,2.05,0,0,1,2.06-2h2.93a2.09,2.09,0,0,1,2.06,2v.42a2.06,2.06,0,0,1-2.06,2.06ZM75,101.92a1.22,1.22,0,0,1,.86.36,1.24,1.24,0,0,1,.36.86v.13H73.78v-.13A1.22,1.22,0,0,1,75,101.92Zm0,16.88a1.5,1.5,0,0,1-1.5-1.5v-3.5h3v3.5A1.5,1.5,0,0,1,75,118.8Z"/></svg>