<svg id="Symbols" xmlns="http://www.w3.org/2000/svg" viewBox="0 0 150 150"><title>X-wheeloffortune-bold</title><path d="M75,25a50,50,0,1,0,50,50A50.06,50.06,0,0,0,75,25Zm0,92a42,42,0,1,1,42-42A42,42,0,0,1,75,117Z"/><path d="M105.5,72.5v1h-5.06L88.5,65.74V73.5h-1V71h-3v2.5H78.62l19-19,.7.71,2.13-2.12-3.54-3.54L94.8,51.67l.71.7-19,19V67.86H79v-3H76.5v-1.2a6,6,0,0,0,0-11.6v-.44c2.61-.81,4.5-3.71,4.5-7.26a9.78,9.78,0,0,0-.14-1.63l-3,.54a5.52,5.52,0,0,1,.1,1.09,5.21,5.21,0,0,1-1.5,3.85V44.5h1v-3h-5v3h1v3.71A5.21,5.21,0,0,1,72,44.36a5.52,5.52,0,0,1,.1-1.09l-3-.54A9.78,9.78,0,0,0,69,44.36c0,3.55,1.89,6.45,4.5,7.26v.44a6,6,0,0,0,0,11.6v1.2H71v3h2.5v3.52l-19-19,.71-.7-2.12-2.13-3.54,3.54,2.13,2.12.7-.71,19,19H61.3a6,6,0,0,0-11.6,0H44.5v-1h-3v5h3v-1h5.2a6,6,0,0,0,11.6,0H71.38l-19,19-.7-.71-2.13,2.12,3.54,3.54,2.12-2.13-.71-.7,19-19V93.21a3.16,3.16,0,0,0-2.67.24.38.38,0,0,1-.14.06l-.1-.06A3,3,0,0,0,69,93H67.5l0,3H69l.1.06a3.15,3.15,0,0,0,3.18,0,.38.38,0,0,1,.14-.06l.11.06a3,3,0,0,0,1,.36v.78a3.16,3.16,0,0,0-2.67.24.38.38,0,0,1-.14.06l-.1-.06A3,3,0,0,0,69,97H67.5l0,3H69l.1.06a3.15,3.15,0,0,0,3.18,0,.38.38,0,0,1,.14-.06l.11.06a3,3,0,0,0,1,.36v5.07h-1v3h5v-3h-1v-5.18a3.18,3.18,0,0,0,2.65-.25.53.53,0,0,1,.16-.06l.1.06a3,3,0,0,0,1.59.43h1.5l0-3H81l-.11-.06a3.15,3.15,0,0,0-3.18,0,.45.45,0,0,1-.15.06l-.1-.06a3.17,3.17,0,0,0-.94-.36v-.77a3.18,3.18,0,0,0,2.65-.25.53.53,0,0,1,.16-.06l.1.06A3,3,0,0,0,81,96.5h1.5l0-3H81l-.11-.06a3.15,3.15,0,0,0-3.18,0,.45.45,0,0,1-.15.06l-.1-.06a3.17,3.17,0,0,0-.94-.36V78.62l19,19-.71.7,2.12,2.13,3.54-3.54L98.33,94.8l-.7.71-19-19H84.5V79h3V76.5h1v7.76l11.94-7.76h5.06v1h3v-5ZM78,57.86a3,3,0,0,1-1.5,2.58V55.28A3,3,0,0,1,78,57.86Zm-6,0a3,3,0,0,1,1.5-2.58v5.16A3,3,0,0,1,72,57.86ZM55.5,72a3,3,0,0,1,2.58,1.5H52.92A3,3,0,0,1,55.5,72Zm0,6a3,3,0,0,1-2.58-1.5h5.16A3,3,0,0,1,55.5,78Zm36-6.74,3.44,2.24H91.5Zm0,7.48V76.5h3.44Z"/></svg>