<svg id="Symbols" xmlns="http://www.w3.org/2000/svg" viewBox="0 0 150 150"><title>IX-hermit-bold</title><path d="M75,57.93A6.35,6.35,0,0,1,70.3,55.8,5.22,5.22,0,0,1,69,51.63a4.83,4.83,0,0,1,2.11-3.17A4.22,4.22,0,0,0,73,44.82l.34-4.18,3,2.9c1.61,1.53,4.66,5.25,4.66,8.36A6,6,0,0,1,75,57.93Zm.85-8.8a8.48,8.48,0,0,1-2.25,2.46,4.11,4.11,0,0,0-.65.58,1.27,1.27,0,0,0,.35,1,2.35,2.35,0,0,0,1.7.76,2,2,0,0,0,2-2A6.22,6.22,0,0,0,75.86,49.13Z"/><rect x="73" y="59.93" width="4" height="15"/><path d="M75,125a50,50,0,1,1,50-50A50.06,50.06,0,0,1,75,125Zm0-92a42,42,0,1,0,42,42A42,42,0,0,0,75,33Z"/><path d="M98.8,89.59l3.14-1.82-3.14-2v-.08h-.13l-6.16-3.82-1.05,1.7,3.42,2.12H50v4H94.57l-3.09,1.79.41.71a.53.53,0,0,0,.07.3.5.5,0,0,0,.21.17l.32.55,6.06-3.52h.25Z"/></svg>