<svg id="Symbols" xmlns="http://www.w3.org/2000/svg" viewBox="0 0 150 150"><title>XX-judgement-bold</title><path d="M124.86,119.32l-20-35.38a35,35,0,1,0-59.68,0l-20,35.38Zm-86-8L50.54,90.68a34.91,34.91,0,0,0,48.92,0l11.68,20.64ZM84,63.31H66l9-15.87Zm-20,17h9v9H64Zm13,0h9v9H77Zm9-4H77v-9h9Zm-13,0H64v-9h9ZM90,74l5.35,9.45A27,27,0,0,1,90,88.12ZM60,88.12a27,27,0,0,1-5.35-4.72L60,74Zm42-22.44a26.71,26.71,0,0,1-1.89,9.9L79.45,39.06A27,27,0,0,1,102,65.68Zm-54,0A27,27,0,0,1,70.55,39.06L49.89,75.58A26.71,26.71,0,0,1,48,65.68Z"/></svg>