<svg id="Symbols" xmlns="http://www.w3.org/2000/svg" viewBox="0 0 150 150"><title>XV-thedevil-bold</title><path d="M25,25V125H125V25Zm92,92H33V33h84Z"/><path d="M59,44A12,12,0,0,1,71,56h0v1.5h8v-1.8h0A12.06,12.06,0,0,1,91,44a11.19,11.19,0,0,1,2.88.36l2-7.73A19,19,0,0,0,91,36a20,20,0,0,0-16,8.08A20,20,0,0,0,59,36a19.65,19.65,0,0,0-4.88.61l2,7.75A11.31,11.31,0,0,1,59,44Z"/><path d="M66.59,90.59,75,116.51l8.41-25.92h27.25l-22-16L97,48.68l-22,16-22-16,8.43,25.91-22,16Zm2.91-4L66.09,76.12h0L75,69.65h0l8.91,6.47h0L80.5,86.59Zm1.29,4h8.42l-4.21,13Zm27.55-4H84.71l2.6-8ZM85.21,72.12l-6.81-5,11-8Zm-24.63-13,11,8-6.81,5Zm2.11,19.43,2.6,8H51.66Z"/></svg>