<svg id="Symbols" xmlns="http://www.w3.org/2000/svg" viewBox="0 0 150 150"><title>I-magician-bold</title><path d="M38,40.86v4h4L49.9,58.19l7.79-13.33h3.94v-4H60l5.1-8.71H34.53l5.14,8.71Zm11.85,9.43-3.2-5.43h6.37ZM41.53,36.15H58.14l-2.75,4.71H44.31Z"/><path d="M100.1,30.2l-15.22,26h30.59Zm0,7.9,8.35,14.14H91.86Z"/><path d="M112,109.14v-4h-4L100.1,91.81l-7.79,13.33H88.37v4H90l-5.1,8.71h30.59l-5.14-8.71Zm-11.85-9.43,3.2,5.43H97Zm8.35,14.14H91.86l2.75-4.71h11.08Z"/><path d="M49.9,119.8l15.22-26H34.53Zm0-7.9L41.53,97.76H58.14Z"/><path d="M77,104.51V82.14l3.61,3.21.39.35a13.8,13.8,0,0,0,7.15,3.15A12.49,12.49,0,0,0,90,89a14,14,0,1,0-8.47-25.14h0l-.07,0-.07.07A11,11,0,0,0,80,65.18h0l-3,2.68V45.71l4,5,3.13-2.5L75,36.78l-8.8,11.45,3.17,2.44L73,45.91v22l-3.11-2.77A13.17,13.17,0,0,0,68.63,64l-.22-.19a13.76,13.76,0,0,0-6.55-2.68A12.73,12.73,0,0,0,60,61,14,14,0,1,0,69,85.7l4-3.56v22.18l-3.66-4.76L66.17,102,75,113.44,84.12,102,81,99.52ZM96,75a6,6,0,0,1-6,6,5.77,5.77,0,0,1-.78-.06,5.91,5.91,0,0,1-3-1.31L81,75h0l5.38-4.8,0,0A5.93,5.93,0,0,1,90,69,6,6,0,0,1,96,75Zm-31.83,4.3-.37.34A5.94,5.94,0,0,1,60,81a6,6,0,0,1,0-12,5.79,5.79,0,0,1,.79.06,5.91,5.91,0,0,1,2.66,1L69,75Z"/></svg>