<svg id="Symbols" xmlns="http://www.w3.org/2000/svg" viewBox="0 0 150 150"><title>XXI-theworld-bold</title><path d="M124.89,75a7,7,0,0,0-3-5.78,47.28,47.28,0,0,0-41.1-41.06,7,7,0,0,0-11.38,0A47.27,47.27,0,0,0,28.17,69.21a7,7,0,0,0,0,11.58,47.29,47.29,0,0,0,41,41,7,7,0,0,0,11.72,0,47.29,47.29,0,0,0,41-41A7,7,0,0,0,124.89,75Zm-44.3,38.8a7,7,0,0,0-11.18,0,39.29,39.29,0,0,1-33.2-33.15,7,7,0,0,0,0-11.3A39.28,39.28,0,0,1,69.3,36.22a7,7,0,0,0,11.48,0,39.28,39.28,0,0,1,33,33.1,7,7,0,0,0,0,11.34A39.29,39.29,0,0,1,80.59,113.8Z"/><polygon points="77 46.82 73 46.82 73 73 46.82 73 46.82 77 73 77 73 103.18 77 103.18 77 77 103.18 77 103.18 73 77 73 77 46.82"/><path d="M50.52,56.57v4h2.76l6.25,10.58,6.18-10.58h2.72v-4h-.38L71.91,50H47l3.9,6.61Zm9,6.68-1.59-2.68h3.16ZM54,54H64.94l-1.52,2.61H55.56Z"/><path d="M90.47,48,78.09,69.2H103Zm0,7.9L96,65.2H85.06Z"/><path d="M59.53,102,71.91,80.8H47Zm0-7.9L54,84.8H64.94Z"/><path d="M99.48,93.43v-4H96.72L90.47,78.85,84.29,89.43H81.57v4H82L78.09,100H103l-3.9-6.61Zm-9-6.68,1.59,2.68H88.92ZM96,96H85.06l1.52-2.61h7.86Z"/></svg>