<svg id="Symbols" xmlns="http://www.w3.org/2000/svg" viewBox="0 0 120 120"><defs><style>.cls-1{fill:none;stroke:#211f1f;stroke-linecap:round;stroke-linejoin:round;stroke-width:4px;}</style></defs><path class="cls-1" d="M60,30.23h0A34.58,34.58,0,0,1,94.58,64.81v42.84a0,0,0,0,1,0,0H25.42a0,0,0,0,1,0,0V64.81A34.58,34.58,0,0,1,60,30.23Z"/><polyline class="cls-1" points="60 30.23 72.03 11.64 73.43 32.93 91.9 18.87 85.28 41.22 105.32 35.65 92.9 54.15 107.64 56.81 107.64 107.64 94.58 107.64"/><polyline class="cls-1" points="60 30.23 47.97 11.64 46.57 32.93 28.1 18.87 34.72 41.22 14.68 35.65 27.1 54.15 12.36 56.81 12.36 107.64 25.42 107.64"/><polyline class="cls-1" points="12.36 63.52 24.29 68.94 12.36 76.16 24.09 83.74 12.36 91.39 25.42 98.36 12.36 107.64"/><polyline class="cls-1" points="107.64 63.52 95.71 68.94 107.64 76.16 95.91 83.74 107.64 91.39 94.58 98.36 107.64 107.64"/><circle class="cls-1" cx="32.81" cy="101.45" r="6.19"/><circle class="cls-1" cx="85.97" cy="101.45" r="6.19"/><path class="cls-1" d="M59.39,60h0A20.39,20.39,0,0,1,79.77,80.39v27.26a0,0,0,0,1,0,0H39a0,0,0,0,1,0,0V80.39A20.39,20.39,0,0,1,59.39,60Z"/><polyline class="cls-1" points="39.66 75.21 59.55 87 79.43 76.69"/><polyline class="cls-1" points="44.84 78.28 44.84 93.19 49.58 98.61"/><line class="cls-1" x1="46.65" y1="95.26" x2="46.65" y2="107.65"/><line class="cls-1" x1="49.58" y1="91.39" x2="55" y2="93.45"/><polyline class="cls-1" points="74.96 80.29 74.96 93.19 70.23 98.61"/><line class="cls-1" x1="73.16" y1="95.26" x2="73.16" y2="107.65"/><line class="cls-1" x1="70.23" y1="91.39" x2="64.81" y2="93.45"/><path class="cls-1" d="M56.55,101.45,60,104.29l3-3.1"/><path class="cls-1" d="M34.61,50.87a11.57,11.57,0,0,1,9.93,1.36,11.62,11.62,0,0,1,4.78,9.22c-.42.2-5.11,2.35-9.65-.26A10.5,10.5,0,0,1,34.61,50.87Z"/><path class="cls-1" d="M87.09,50.87a11.08,11.08,0,0,0-14.7,10.58c.41.2,5.11,2.35,9.65-.26A10.48,10.48,0,0,0,87.09,50.87Z"/></svg>