<svg id="Symbols" xmlns="http://www.w3.org/2000/svg" viewBox="0 0 120 120"><defs><style>.cls-1{fill:none;stroke:#211f1f;stroke-linecap:round;stroke-linejoin:round;stroke-width:4px;}</style></defs><path class="cls-1" d="M34.22,38.51c-.35-1.21-2.72-9.91,2.72-17.7a20.64,20.64,0,0,1,10.73-7.75h60.55v94.46H40.81l-2.07-7.75a3.65,3.65,0,0,1-1.92-7,72.24,72.24,0,0,1,13-4.65,71.51,71.51,0,0,1,11.55-1.93,48.57,48.57,0,0,0-14.52-9.29,50.14,50.14,0,0,0-28.1-2.77,5,5,0,0,1-4-.72c-1.75-1.25-1.86-3.77-1.92-4.88A12.71,12.71,0,0,1,15.9,60l6.33-3.84a45.73,45.73,0,0,1,12-17.65c16-14.31,43-16.51,54.84-5.32,3.75,3.54,7,9.53,5.17,12.65C92,49.79,83.29,46.3,79,50.74c-3.74,3.87-2.08,11.58,0,17.68C89.48,74.2,94.33,85.51,91.39,94.74,88.62,103.42,80,107,78.61,107.52"/><circle class="cls-1" cx="47" cy="60" r="9.44"/><circle class="cls-1" cx="50.1" cy="62.8" r="4.57"/><path class="cls-1" d="M32.08,41.83c.36-.15,5.81-2.23,10.53,1.17A11.15,11.15,0,0,1,47,50.56"/><path class="cls-1" d="M54.67,65.49A30.34,30.34,0,0,1,79,68.42"/><path class="cls-1" d="M21.27,73.77c-.2,3.07,2.33,5.31,4.57,5.1S30,76.2,29.45,73.32l9.41,1.12c-1.23,2.79,0,5.73,2,6.5,2.07.83,5.33-.7,6.06-4l5.85,2.88"/><path class="cls-1" d="M40.75,91.11c-1-3.59,1.35-6.81,3.93-7.08,2-.21,4.4,1.45,5.16,4.13"/><path class="cls-1" d="M64,92.55l-2.64-6.32c-1.49-6,1.12-11.68,5.48-13.55,5.33-2.28,12.56,1.47,12.65,4.64.07,2.91-5.86,5.25-7,5.68L67.9,107.52"/><line class="cls-1" x1="75.65" y1="107.52" x2="79.52" y2="86.1"/><path class="cls-1" d="M73.76,82.5a8.15,8.15,0,0,0,9.37.76,7.34,7.34,0,0,0,3.47-7.32c-.71-3.73-4.76-6.35-8.12-5.59a6.39,6.39,0,0,0-3.58,2.51"/><path class="cls-1" d="M42.42,33.12a13.4,13.4,0,0,1,.45-8.7c2-4.68,6.79-7.84,12.39-8.26l31-3.1"/><circle class="cls-1" cx="91.96" cy="23.09" r="9.07"/><polyline class="cls-1" points="100.49 20.03 93.71 25.19 90.1 20.03 96.36 15.17"/><line class="cls-1" x1="20.16" y1="64.17" x2="26.61" y2="66.3"/></svg>