<svg id="Symbols" xmlns="http://www.w3.org/2000/svg" viewBox="0 0 120 120"><defs><style>.cls-1{fill:none;stroke:#211f1f;stroke-linecap:round;stroke-linejoin:round;stroke-width:4px;}</style></defs><path class="cls-1" d="M37.71,85.82h4.18A8.06,8.06,0,0,0,50,77.76V62.61a8.06,8.06,0,0,0-8.06-8.06H38.1L33.25,52v3.4a5.92,5.92,0,0,0,5.92,5.92H40a3.4,3.4,0,0,1,3.4,3.4V76a3.4,3.4,0,0,1-3.4,3.4h-8.3a6.62,6.62,0,0,0-4.38,1.66l-.18.16a9.78,9.78,0,0,1-6.48,2.45h-5a3,3,0,0,0-3,2.84v.06a3,3,0,0,0,3,3.13H26.94a4.28,4.28,0,0,0,4.27-4.28h0Z"/><polyline class="cls-1" points="15.59 89.7 15.59 95.53 71.43 95.53 71.43 36.69"/><path class="cls-1" d="M39.17,61.35a17.2,17.2,0,0,1-8.25-.19c-2.65-.76-3.59-1.78-5.83-2.14-1.89-.3-4.76-.15-8.67,2.33a3.85,3.85,0,0,1-2.69-1.12,3.79,3.79,0,0,1-1.12-2.69V28.94a4.3,4.3,0,0,1,4.3-4.29h0a6,6,0,0,1,6,6,18.62,18.62,0,0,1,0,3.08,23.68,23.68,0,0,1-6,13.6"/><path class="cls-1" d="M21.28,40.52l5.33-9.34a15.61,15.61,0,0,1,12.7-6.53H57.17"/><path class="cls-1" d="M12.75,54.17a30.52,30.52,0,0,0,8.84-3.5A31.25,31.25,0,0,0,33,38.78"/><ellipse class="cls-1" cx="36.42" cy="41.34" rx="4.59" ry="3.88"/><path class="cls-1" d="M22.86,49.87a15.31,15.31,0,0,1,5.73.22A15.12,15.12,0,0,1,33.25,52"/><path class="cls-1" d="M31.83,41.34c-3.4-1-4.06-2.63-4.22-3.1-1-3.16,3.55-7.41,7.77-8.93,1.06-.38,6.1-2.2,9.91.77,1.82,1.43,4.43,4.78,3,8-1.08,2.38-4.06,3.82-7.25,3.29"/><path class="cls-1" d="M45.54,48.34h0A11.79,11.79,0,0,1,57.33,60.13V77.91a11.79,11.79,0,0,1-11.79,11.8h-2"/><path class="cls-1" d="M70.53,24.65c-1.22-.75-3.18-.42-5.63,0a20.7,20.7,0,0,0-3.1.77c-.23-.07-5.64-1.66-9.13,1.75-3,2.94-3.56,8.58-1.17,10.29,1.49,1.06,3.73.35,4.66,0l4.52-3.78a1.62,1.62,0,0,1,2.34.26h0a1.63,1.63,0,0,1-.2,2.19c-2.67,2.46-5.15,5.12-4.52,6.19.36.61,1.63.48,2.52.39a12.82,12.82,0,0,0,9.43-5.81C72.91,32.58,73.06,26.18,70.53,24.65Z"/><path class="cls-1" d="M71.43,74.75H67.29a6.12,6.12,0,0,0-6.12,6.12h0A6.12,6.12,0,0,0,67.29,87H71.8"/><path class="cls-1" d="M71.43,53.85H67.29A6.12,6.12,0,0,0,61.17,60h0a6.11,6.11,0,0,0,6.12,6.11H71.8"/><polyline class="cls-1" points="16.42 61.35 20.04 67.37 21.28 59.2"/><polyline class="cls-1" points="27.47 60.6 31.28 69.02 35.53 61.76"/><polyline class="cls-1" points="24.9 82.69 28.05 72.81 31.65 79.41"/><path class="cls-1" d="M93.51,12.48H91.65A15.07,15.07,0,0,0,76.59,27.21,15,15,0,0,1,87.93,41.8a16.28,16.28,0,0,1-5,7,16.51,16.51,0,0,1-9.49,3.63L73,66.87a17.23,17.23,0,0,1,15,11.07A15,15,0,0,1,76.59,92.52a15.07,15.07,0,0,0,15.06,14.74h1.86a15.07,15.07,0,0,0,15.07-15.07V27.55A15.07,15.07,0,0,0,93.51,12.48Z"/><path class="cls-1" d="M82.32,30.09h8.14a7.8,7.8,0,0,1,7.8,7.8V82.41a7.8,7.8,0,0,1-7.8,7.79H81.58"/><line class="cls-1" x1="98.26" y1="42.07" x2="108.58" y2="34.16"/><line class="cls-1" x1="98.26" y1="56.25" x2="108.58" y2="48.33"/><line class="cls-1" x1="98.26" y1="64.8" x2="108.58" y2="56.89"/><line class="cls-1" x1="98.26" y1="81.02" x2="108.58" y2="73.11"/></svg>