<svg id="Symbols" xmlns="http://www.w3.org/2000/svg" viewBox="0 0 120 120"><defs><style>.cls-1{fill:none;stroke:#211f1f;stroke-linecap:round;stroke-linejoin:round;stroke-width:4px;}</style></defs><path class="cls-1" d="M14,52.16c.89,1.35,8.09-.15,11.87-4.9,4.52-5.68,2.42-13.83,1-17.8a3,3,0,0,1,1.31-3.63l0,0a3,3,0,0,1,2.66-.14c8.57,3.73,14.87,6.72,19.79,9.21,2.2,1.11,5.54,2.84,9.23,1.81C62.44,36,65.23,33.84,66,31c1.55-5.72-5.56-12.59-12.29-14.7A25,25,0,0,0,48,15.52C35.84,14.61,27.75,14,23.26,18.87a13,13,0,0,0-2.81,5.59c-2.29,7.48,1.86,10.95.23,17.38S13.11,50.87,14,52.16Z"/><path class="cls-1" d="M53.19,67.9A8.14,8.14,0,0,1,54.8,75c-.07.24-.14.46-.22.67a6,6,0,0,1-7.1,3.55c-4.35-1.05-12.63-2.05-20.61,2.66a26.11,26.11,0,0,0-8.63,8.36,3.13,3.13,0,0,1-4.65.69,3.27,3.27,0,0,1-.83-3.69,35.84,35.84,0,0,1,6.63-10.78C28,66.86,35,70.16,42.1,61.71,49,53.6,46.35,46,55,40a15.17,15.17,0,0,1,7.48-3.09c7.31-.63,15,5.62,19.87,15.69A8.36,8.36,0,0,0,94.48,48a96.54,96.54,0,0,0,.78-20.13,95.35,95.35,0,0,0-2.07-14.42H60.7"/><path class="cls-1" d="M35.13,78.76c-.73,5.29.52,7.75,1.81,9,3.79,3.73,10.56-.27,20.38,2.07a30,30,0,0,1,10.58,4.9,23.54,23.54,0,0,0-11.35,1c-2.46.87-9,3.19-9.72,8a6.9,6.9,0,0,0,.61,3.87h47"/><path class="cls-1" d="M53.71,16.29a10.17,10.17,0,0,1,4.64-2.58c6.13-1.4,13.56,3.78,15.75,10.58,2.42,7.55-2.55,14.18-3.09,14.87"/><path class="cls-1" d="M77.85,19.14a5.83,5.83,0,0,0,8.38-4.24"/><path class="cls-1" d="M93.19,13.48h15.49c-3.55,2.51-7.76,6.13-7,9.17.69,2.88,5.33,3.35,5.48,5.51.1,1.44-1.77,3.68-11.67,7"/><path class="cls-1" d="M83.13,55A27.69,27.69,0,0,0,78,70.45a12.93,12.93,0,0,0,1.26,6.74c2.68,4.91,9.14,6.91,14.19,6.46C101,83,108,76.6,108.25,70.17c.09-3.1-1.42-5.41-4.22-9.66a47.91,47.91,0,0,0-9.55-10.67"/><path class="cls-1" d="M89.28,54.64c-4.58,9.61-4.78,17.8-1.51,20,2,1.31,5.39.56,5.68.5,1.09-.25,4.72-1.29,5.94-4.37,1.12-2.84-.49-5.69-1.86-8.1A21.15,21.15,0,0,0,89.28,54.64Z"/><path class="cls-1" d="M85.11,82.27a33.89,33.89,0,0,0-3.79,8.34c-1.21,4.08-2.07,7-1,9.81,1.83,5,8.69,7.57,14.19,7.23,5.94-.37,12.55-4.25,13.49-9.47.45-2.54-.55-4.76-2.39-8.86a38.92,38.92,0,0,0-4.91-8.1"/><path class="cls-1" d="M91.38,83.69c-4.52,5.46-3.88,12.1-.51,14.66,2.33,1.78,6.34,1.88,8.26,0,2.56-2.51,1.89-9.06-3.66-15"/><polyline class="cls-1" points="108.68 13.48 108.68 107.64 90.82 107.64"/><path class="cls-1" d="M42.1,61.71c9.44-3.18,14-5.17,16.31-6.45A6.57,6.57,0,0,1,60,54.64c3.37-.87,8.26.57,9.19,3.53s-1.69,7.33-7,8.7L60.16,63"/></svg>