<svg id="Symbols" xmlns="http://www.w3.org/2000/svg" viewBox="0 0 120 120"><defs><style>.cls-1{fill:none;stroke:#211f1f;stroke-linecap:round;stroke-linejoin:round;stroke-width:4px;}</style></defs><path class="cls-1" d="M41.43,41.64H52.72a18,18,0,0,1,18,18V76.93a18,18,0,0,1-18,18H50.47a9,9,0,0,1-9-9V41.64a0,0,0,0,1,0,0Z"/><path class="cls-1" d="M26.43,41.64h15a0,0,0,0,1,0,0V85.43A9.53,9.53,0,0,1,31.9,95H30.06a18,18,0,0,1-18-18V56A14.32,14.32,0,0,1,26.43,41.64Z"/><path class="cls-1" d="M69.29,30.71c-1.24-2.47-4.27-2.89-4.6-2.93H41.43V41.64H60.71c.85-.13,5.48-.91,7.75-4.86C69,35.76,70.53,33.17,69.29,30.71Z"/><path class="cls-1" d="M41.43,27.78H22.19A6.5,6.5,0,0,0,17,29.45a6.49,6.49,0,0,0-1.68,4C15.17,36.66,18,40,22.41,41.64h19Z"/><path class="cls-1" d="M26.77,40.55c-4.56-3.72-5.18-5.63-4.78-6.7.89-2.38,7.1-1.26,20.3-1.25,14.69,0,21-1.36,21.77.83.41,1.17-.7,3.42-7.93,8.21"/><path class="cls-1" d="M41.43,47.67H28.48a9.63,9.63,0,0,0-9.63,9.62V78.43a9.63,9.63,0,0,0,9.63,9.63h4.81a11,11,0,0,0,3.77-1.46,11.26,11.26,0,0,0,4.37-5.24"/><circle class="cls-1" cx="30.14" cy="57.1" r="2.32"/><circle class="cls-1" cx="30.14" cy="67.79" r="2.32"/><circle class="cls-1" cx="30.14" cy="78.63" r="2.32"/><path class="cls-1" d="M41.14,47.67h13a9.63,9.63,0,0,1,9.63,9.62V78.43a9.63,9.63,0,0,1-9.63,9.63H49.28a11,11,0,0,1-3.77-1.46,11.26,11.26,0,0,1-4.37-5.24"/><circle class="cls-1" cx="52.43" cy="57.1" r="2.32"/><circle class="cls-1" cx="52.43" cy="67.79" r="2.32"/><circle class="cls-1" cx="52.43" cy="78.63" r="2.32"/><path class="cls-1" d="M18.85,28.22A6.53,6.53,0,0,1,18,19.83a5.86,5.86,0,0,1,6.07-2.1c3.08.94,5.28,5.28,3.74,10"/><path class="cls-1" d="M29.31,27.78a7.25,7.25,0,0,1,1-8c1.43-1.59,3.9-2.75,6.07-2.1,3,.91,5.22,5.23,3.74,10"/><path class="cls-1" d="M66,26.26a6,6,0,0,0-.54-6.39,5.84,5.84,0,0,0-6.07-2.09c-3,.91-5.23,5.24-3.73,10"/><path class="cls-1" d="M54.2,27.83a7.25,7.25,0,0,0-1-8c-1.43-1.58-3.89-2.74-6.07-2.09-3,.9-5.21,5.22-3.73,10"/><path class="cls-1" d="M92.05,12.48H90.19a15.05,15.05,0,0,0-15,14.73A15.05,15.05,0,0,1,86.47,41.8a16.28,16.28,0,0,1-5,7A16.51,16.51,0,0,1,72,52.42l-.51,14.45a17.23,17.23,0,0,1,15,11.07A15.05,15.05,0,0,1,75.14,92.52a15.05,15.05,0,0,0,15,14.74h1.86a15.07,15.07,0,0,0,15.07-15.07V27.55A15.07,15.07,0,0,0,92.05,12.48Z"/><path class="cls-1" d="M80.86,30.09H89a7.8,7.8,0,0,1,7.8,7.8V82.41A7.8,7.8,0,0,1,89,90.2H80.12"/><line class="cls-1" x1="96.8" y1="42.07" x2="107.12" y2="34.16"/><line class="cls-1" x1="96.8" y1="56.25" x2="107.12" y2="48.33"/><line class="cls-1" x1="96.8" y1="64.8" x2="107.12" y2="56.89"/><line class="cls-1" x1="96.8" y1="81.02" x2="107.12" y2="73.11"/></svg>