<svg id="Symbols" xmlns="http://www.w3.org/2000/svg" viewBox="0 0 120 120"><defs><style>.cls-1{fill:none;stroke:#211f1f;stroke-linecap:round;stroke-linejoin:round;stroke-width:4px;}</style></defs><line class="cls-1" x1="22.41" y1="17.12" x2="20" y2="12.38"/><polyline class="cls-1" points="22.62 66.22 25.19 93.06 32.68 98.23"/><path class="cls-1" d="M91.73,13.08A22.48,22.48,0,0,0,79.9,17.19c-10.44,7.59-9.38,21.74-9.29,22.71l4.49,4.65V56.16L78.87,60,66.75,70.35,61.32,96.94l-7.09,9.29"/><polyline class="cls-1" points="36.55 73.45 40.94 57.45 45.58 73.45"/><path class="cls-1" d="M30.35,44.55,23.9,48.68V59.13l8.78,4.26,8.26-5.94V46.61Z"/><path class="cls-1" d="M60.55,44.55,67,48.68V59.13l-8.77,4.26L50,57.45V46.61Z"/><path class="cls-1" d="M28.55,76.29l3.87,5.93.26,7.49v9a7.48,7.48,0,0,0,7.48,7.49H64.08a11.84,11.84,0,0,0,8.91-4h0a11.78,11.78,0,0,0,2.71-5.54L78.35,83H91a16.58,16.58,0,0,0,13-6.33h0a16.61,16.61,0,0,0,3.54-10.24V36.88a14.88,14.88,0,0,0-.92-5.15l-2.3-6.23a14.84,14.84,0,0,0-3.93-5.85L96.3,15.93a14.9,14.9,0,0,0-10-3.9h-43a16.07,16.07,0,0,0-9.35,3L31.5,16.75a16.11,16.11,0,0,0-6.69,11.72L23.65,42l-5.17,5.16V61.32l7,8.26"/><line class="cls-1" x1="32.42" y1="84.81" x2="56.94" y2="84.81"/><line class="cls-1" x1="38.11" y1="78.87" x2="38.11" y2="89.97"/><line class="cls-1" x1="46.78" y1="78.87" x2="46.78" y2="89.97"/><line class="cls-1" x1="56.94" y1="78.87" x2="52.81" y2="89.97"/><line class="cls-1" x1="26.63" y1="22.31" x2="30.1" y2="33.45"/><line class="cls-1" x1="58.48" y1="33.45" x2="66.55" y2="20.55"/><line class="cls-1" x1="19.48" y1="23.96" x2="12.35" y2="20.34"/><polyline class="cls-1" points="105.84 49.97 93.45 48.42 87.77 65.45 79.77 69.32"/><polyline class="cls-1" points="107.52 61.58 101.11 63.39 94.58 69.32"/><line class="cls-1" x1="91.73" y1="88.68" x2="101.11" y2="95.9"/><line class="cls-1" x1="85.97" y1="92.29" x2="91.73" y2="108.03"/></svg>