<svg id="Symbols" xmlns="http://www.w3.org/2000/svg" viewBox="0 0 120 120"><defs><style>.cls-1{fill:none;stroke:#211f1f;stroke-linecap:round;stroke-linejoin:round;stroke-width:4px;}</style></defs><rect class="cls-1" x="12.61" y="21.17" width="59.68" height="77.65" rx="17.9"/><rect class="cls-1" x="22.71" y="32.2" width="39.49" height="55.6" rx="9.42"/><rect class="cls-1" x="27.26" y="36.8" width="30.39" height="46.39" rx="5.71"/><path class="cls-1" d="M42.45,36.8V48.27a8.62,8.62,0,0,1-8.62,8.62H27.26"/><path class="cls-1" d="M36.72,36.8v7.94c0,3.29-2.4,6-5.36,6h-4.1"/><path class="cls-1" d="M43.43,36.8V48.27a8.62,8.62,0,0,0,8.62,8.62H56.6"/><path class="cls-1" d="M49.16,36.8v7.94c0,3.29,2.4,6,5.37,6H56.6"/><path class="cls-1" d="M28.15,60h0a6.7,6.7,0,0,1,6.7,6.71v.89a7.6,7.6,0,0,1,7.6-7.6h0a6.7,6.7,0,0,1,6.71,6.71v.68A7.39,7.39,0,0,1,56.55,60h1.1"/><path class="cls-1" d="M93.51,12.48H91.65A15.07,15.07,0,0,0,76.59,27.21,15,15,0,0,1,87.93,41.8a16.28,16.28,0,0,1-5,7,16.51,16.51,0,0,1-9.49,3.63L73,66.87a17.23,17.23,0,0,1,15,11.07A15,15,0,0,1,76.59,92.52a15.07,15.07,0,0,0,15.06,14.74h1.86a15.07,15.07,0,0,0,15.07-15.07V27.55A15.07,15.07,0,0,0,93.51,12.48Z"/><path class="cls-1" d="M82.32,30.09h8.14a7.8,7.8,0,0,1,7.8,7.8V82.41a7.8,7.8,0,0,1-7.8,7.79H81.58"/><line class="cls-1" x1="98.26" y1="42.07" x2="108.58" y2="34.16"/><line class="cls-1" x1="98.26" y1="56.25" x2="108.58" y2="48.33"/><line class="cls-1" x1="98.26" y1="64.8" x2="108.58" y2="56.89"/><line class="cls-1" x1="98.26" y1="81.02" x2="108.58" y2="73.11"/></svg>