<svg id="Symbols" xmlns="http://www.w3.org/2000/svg" viewBox="0 0 120 120"><defs><style>.cls-1{fill:none;stroke:#211f1f;stroke-linecap:round;stroke-linejoin:round;stroke-width:4px;}</style></defs><rect class="cls-1" x="17.21" y="12.94" width="51.79" height="41.03" rx="10.12"/><rect class="cls-1" x="32.25" y="38.23" width="21.72" height="15.74" rx="7.87"/><rect class="cls-1" x="12.94" y="53.97" width="60.35" height="53.42" rx="10.12"/><rect class="cls-1" x="20.64" y="61.97" width="44.94" height="37.42" rx="6.47"/><path class="cls-1" d="M107.9,107.39H82.59a9.31,9.31,0,0,1-9.31-9.31v-.74A9.31,9.31,0,0,1,82.59,88h0a10.59,10.59,0,0,0,10.6-10.6V27.65A14.71,14.71,0,0,1,107.9,12.94h0"/><line class="cls-1" x1="103.93" y1="20.68" x2="107.9" y2="20.68"/><line class="cls-1" x1="103.93" y1="28.16" x2="107.9" y2="28.16"/><line class="cls-1" x1="46.74" y1="62.56" x2="46.74" y2="66.53"/><line class="cls-1" x1="39.26" y1="62.56" x2="39.26" y2="66.53"/><line class="cls-1" x1="46.74" y1="95.42" x2="46.74" y2="99.39"/><line class="cls-1" x1="39.26" y1="95.42" x2="39.26" y2="99.39"/><line class="cls-1" x1="64.61" y1="85.45" x2="60.64" y2="85.45"/><line class="cls-1" x1="64.61" y1="77.97" x2="60.64" y2="77.97"/><line class="cls-1" x1="24.61" y1="85.45" x2="20.64" y2="85.45"/><line class="cls-1" x1="24.61" y1="77.97" x2="20.64" y2="77.97"/><line class="cls-1" x1="103.93" y1="36.6" x2="107.9" y2="36.6"/><line class="cls-1" x1="103.93" y1="44.08" x2="107.9" y2="44.08"/><line class="cls-1" x1="103.93" y1="51.56" x2="107.9" y2="51.56"/><line class="cls-1" x1="103.93" y1="59.05" x2="107.9" y2="59.05"/><line class="cls-1" x1="103.93" y1="67.48" x2="107.9" y2="67.48"/><line class="cls-1" x1="103.93" y1="74.97" x2="107.9" y2="74.97"/><line class="cls-1" x1="103.93" y1="82.45" x2="107.9" y2="82.45"/><line class="cls-1" x1="103.93" y1="89.94" x2="107.9" y2="89.94"/><line class="cls-1" x1="103.93" y1="98.37" x2="107.9" y2="98.37"/><rect class="cls-1" x="38.87" y="13.71" width="8.26" height="24.52"/><circle class="cls-1" cx="28.55" cy="28.16" r="3.74"/><circle class="cls-1" cx="43" cy="80.68" r="3.74"/><circle class="cls-1" cx="57.59" cy="28.16" r="3.74"/><line class="cls-1" x1="39.52" y1="46.1" x2="47.13" y2="46.1"/></svg>