<svg id="Symbols" xmlns="http://www.w3.org/2000/svg" viewBox="0 0 120 120"><defs><style>.cls-1{fill:none;stroke:#211f1f;stroke-linecap:round;stroke-linejoin:round;stroke-width:4px;}</style></defs><path class="cls-1" d="M36.19,45.94l-2.58,8.77c.73.53,5.79,4.11,10.33,2.32,5.87-2.31,7.33-12.21,4.12-17.8-4.27-7.47-16.74-7-24.21-4.17C20.28,36.43,14.4,38.69,13,43.64,10,54.54,32.87,64.42,30.6,78.47c-.37,2.33-1.77,6.81.43,11.08A9.63,9.63,0,0,0,35.51,94a10.06,10.06,0,0,0,7.91,0"/><ellipse class="cls-1" cx="54.1" cy="96.39" rx="9.21" ry="11.74" transform="translate(-26.05 20.27) rotate(-17.18)"/><path class="cls-1" d="M62.9,93.67a28.86,28.86,0,0,1,13.55,4.91c4.86,3.42,7.23,7.66,12.07,7.7a10.33,10.33,0,0,0,5-1.47c5.1-3.18,6.76-12,4.36-22,3.54,1,7.06-.42,8.52-3.1a6.35,6.35,0,0,0-.26-6.45,7,7,0,0,0-4.45-2.55c-7.77-1.71-21.16,7.75-22.91,9-.23.1-2.38.93-3.79-.18s-1.09-3.3-1-3.83c.54-4.09,8-6.66,12.44-7.86a4.53,4.53,0,0,0,3.36-4.24c0-1.21-1-6.45-1-7.66"/><path class="cls-1" d="M40.1,57.45A24.25,24.25,0,0,0,54.26,63c11.18.48,18.36-7.39,19.35-8.52a6.42,6.42,0,0,0,2.07,6.45,6.5,6.5,0,0,0,7.22.52,7.22,7.22,0,0,0,3.47-5.17l15.16-1.8c.33-.17,2.41-1.32,2.69-3.31.33-2.33-1.89-5.16-5.57-5.72l-11.94-1.7A5.62,5.62,0,0,1,82,39c-.15-1.07-.35-2.2-.6-3.36a52.3,52.3,0,0,0-2.58-8.51A112.65,112.65,0,0,1,65.1,33.81a112.86,112.86,0,0,1-17,5.42"/><path class="cls-1" d="M66.13,40.52H78.52a6.24,6.24,0,1,1-12.39,0Z"/><path class="cls-1" d="M78.77,27.1a30.27,30.27,0,0,0-27.87-15c-12.7.86-23.7,10.1-27,22.93"/><path class="cls-1" d="M38.75,33.49a132.93,132.93,0,0,0,18.6-5.36,132.63,132.63,0,0,0,15.2-6.71"/><path class="cls-1" d="M29.57,23.56a100.38,100.38,0,0,0,11.51-1.48,101.86,101.86,0,0,0,23.59-7.5"/><circle class="cls-1" cx="81.74" cy="19.07" r="6.37"/><circle class="cls-1" cx="88.12" cy="31.82" r="6.37"/><path class="cls-1" d="M93.88,34.52c1.81.57,3.75,1.27,5.8,2.13s4.12,1.85,5.88,2.79L107.42,31A13.89,13.89,0,0,0,102,28.13a14.13,14.13,0,0,0-8.42.41"/><path class="cls-1" d="M88,20.05a17.19,17.19,0,0,1,14.28,3.09c.77-2.95,1.53-5.9,2.3-8.85a17.69,17.69,0,0,0-18,.63"/></svg>