<svg id="Symbols" xmlns="http://www.w3.org/2000/svg" viewBox="0 0 120 120"><defs><style>.cls-1{fill:none;stroke:#211f1f;stroke-linecap:round;stroke-linejoin:round;stroke-width:4px;}</style></defs><ellipse class="cls-1" cx="60" cy="36.39" rx="5.87" ry="8.39"/><path class="cls-1" d="M54.13,35.1H38.74c.72-13.4,11.39-23.43,22.92-22.58,10.52.77,19.35,10.42,20,22.58H67.08"/><path class="cls-1" d="M81.61,91.74A18.41,18.41,0,0,0,87,79.61a17.42,17.42,0,0,0-1.68-8q-2-9.8-4-19.61a8.19,8.19,0,0,0-7-4.88L50.65,43.48a15.21,15.21,0,0,0-9.47,2.44,15,15,0,0,0-5.5,6.6L30,56.13a50.79,50.79,0,0,0-17.24,5.93l-.31,5.17"/><path class="cls-1" d="M12.45,67.23,22,66.71l10.58.88q3.08-3.7,6.16-7.42l10-6.11"/><path class="cls-1" d="M45.15,56.27l2.4,11.32,3.1,8.93-2.75,9.8Q49.27,97,50.65,107.74H60q.09-9.54.17-19.09l7-4.65,8.65-3.29"/><polyline class="cls-1" points="77.74 58.97 75.81 62.58 73.87 66.19"/><path class="cls-1" d="M64.06,86.06l9.81,19.1v2.58H84.71q-3.48-12.26-7-24.51l-1.93-9v-9"/><path class="cls-1" d="M40.78,26.32a39.47,39.47,0,0,0-8.72-7.61,39.79,39.79,0,0,0-9.29-4.39,109.69,109.69,0,0,0,2.33,42"/><path class="cls-1" d="M28.71,67.61a57.57,57.57,0,0,0,3.1,11.74A56.89,56.89,0,0,0,37,89.68,42.34,42.34,0,0,0,25.1,85a43,43,0,0,0-9.55-1,33.34,33.34,0,0,0,2.75,23.74H73.87"/><line class="cls-1" x1="51.68" y1="75.23" x2="75.81" y2="74.19"/><line class="cls-1" x1="50.65" y1="80.71" x2="60.17" y2="88.65"/><path class="cls-1" d="M85,68.26a16.4,16.4,0,0,1,6.45,4.39A16.67,16.67,0,0,1,95.55,82a58.19,58.19,0,0,1,11.61-25.73v51.47H84.71"/></svg>