<svg id="Symbols" xmlns="http://www.w3.org/2000/svg" viewBox="0 0 120 120"><defs><style>.cls-1{fill:none;stroke:#211f1f;stroke-linecap:round;stroke-linejoin:round;stroke-width:4px;}</style></defs><path class="cls-1" d="M60,71.85V33.09A15.84,15.84,0,0,1,75.82,17.25h5.53a18.83,18.83,0,0,1,18.83,18.84V39a22.81,22.81,0,0,1-9.85,18.76l-5,3.43,2.07-3A20.13,20.13,0,0,0,90,40.75l-.48-1.54a5.27,5.27,0,0,0-5-3.69h0a5.27,5.27,0,0,0-5.27,5.27V60A11.86,11.86,0,0,1,67.41,71.85H55A11.86,11.86,0,0,1,43.15,60V36.61a7.83,7.83,0,0,0-7.83-7.83h-.87a7.84,7.84,0,0,0-7.83,7.83v5.63h1.83A8.6,8.6,0,0,1,37,50.83V54a8.71,8.71,0,0,1-8.71,8.71h0A8.71,8.71,0,0,1,19.62,54V28.26A16.23,16.23,0,0,1,35.85,12H43.7a16.23,16.23,0,0,1,16.23,16.2q0,17.57,0,35.13"/><path class="cls-1" d="M26.62,42.24V34.93a10.51,10.51,0,0,1,10.51-10.5H38a10.5,10.5,0,0,1,10.5,10.5V68.8"/><path class="cls-1" d="M74.5,69.49V38.8c0-7.55,8.21-12.55,14.72-8.72.23.14.47.28.7.44,6.63,4.48,9,14.88,4.13,24"/><path class="cls-1" d="M107.83,92.39V90.53a15.05,15.05,0,0,0-14.74-15A15,15,0,0,1,78.51,86.81a16.22,16.22,0,0,1-7-5,16.43,16.43,0,0,1-3.63-9.49l-14.45-.51a17.23,17.23,0,0,1-11.07,15A15,15,0,0,1,27.79,75.48a15.05,15.05,0,0,0-14.74,15v1.86a15.07,15.07,0,0,0,15.07,15.07H92.76A15.07,15.07,0,0,0,107.83,92.39Z"/><path class="cls-1" d="M90.22,81.2v8.14a7.8,7.8,0,0,1-7.8,7.8H37.9a7.8,7.8,0,0,1-7.79-7.8V80.46"/><line class="cls-1" x1="78.24" y1="97.14" x2="86.15" y2="107.46"/><line class="cls-1" x1="64.06" y1="97.14" x2="71.97" y2="107.46"/><line class="cls-1" x1="55.51" y1="97.14" x2="63.42" y2="107.46"/><line class="cls-1" x1="39.29" y1="97.14" x2="47.2" y2="107.46"/></svg>