<svg id="Symbols" xmlns="http://www.w3.org/2000/svg" viewBox="0 0 120 120"><defs><style>.cls-1{fill:none;stroke:#211f1f;stroke-linecap:round;stroke-linejoin:round;stroke-width:4px;}</style></defs><path class="cls-1" d="M44.12,58.1h-18A13.63,13.63,0,0,1,12.48,44.47V35.63a10.31,10.31,0,0,1,10.3-10.31h1.79A10.32,10.32,0,0,1,34.88,35.63h0a8.8,8.8,0,0,1-8.8,8.79h-2.6"/><line class="cls-1" x1="34.88" y1="38.23" x2="52.64" y2="38.23"/><path class="cls-1" d="M60,52.42A6.53,6.53,0,0,1,64.66,54c2.39,2.19,2.55,6.19,1,8s-3.56.26-7.81,1.28c-6.34,1.52-8.65,6.45-11.1,5.42-.85-.36-1.83-1.5-2.06-5.16-.23-9,3.57-16.63,9.81-19.36a13.91,13.91,0,0,1,7-1A5.37,5.37,0,0,1,66.32,48a5.3,5.3,0,0,1-3.13,5"/><path class="cls-1" d="M62.77,43.44c.27-.68,3.71-9,12.67-10.89a18.1,18.1,0,0,1,14.1,3.1C89.1,36.83,86,44.91,77.41,47.78A19.2,19.2,0,0,1,66.32,48"/><circle class="cls-1" cx="72.99" cy="38.1" r="3.61"/><path class="cls-1" d="M66.66,55.94H83.14A15.44,15.44,0,0,0,98.58,40.5V28.42"/><path class="cls-1" d="M89.54,35.65v-9A5.48,5.48,0,0,1,95,21.2h7.52A5.48,5.48,0,0,1,108,26.68h0a5.49,5.49,0,0,1-5.49,5.49h-4"/><path class="cls-1" d="M108,26.68V90.87c0,.74-.37,11.34-8.17,15.49a13.73,13.73,0,0,1-5.94,1.54H47.74a4.9,4.9,0,0,1-4.91-4.9h0a4.9,4.9,0,0,1,4.91-4.9H61.16A8.89,8.89,0,0,1,75.35,95a10.09,10.09,0,0,1,17.73-3.35A18.54,18.54,0,0,0,87.9,80.93c-7-6.76-20.22-7-32.24.39a4.92,4.92,0,0,1-3.54-1.8,5,5,0,0,1-.77-4.39A23.63,23.63,0,0,1,60,62.91"/><path class="cls-1" d="M57,43.35a14.1,14.1,0,0,1-3.24-7.9c-.51-8.88,9.11-16.65,17.7-18.38a15.78,15.78,0,0,1,10.84,1,15.46,15.46,0,0,1,7.22,8.58"/><path class="cls-1" d="M71.6,12.68h22a6.94,6.94,0,0,1,6.94,6.94V21.2"/><polyline class="cls-1" points="71.6 12.68 12.48 12.68 12.48 12.68"/><circle class="cls-1" cx="50.32" cy="23.78" r="4.65"/><circle class="cls-1" cx="35.22" cy="23.78" r="4.65"/></svg>