<svg id="Symbols" xmlns="http://www.w3.org/2000/svg" viewBox="0 0 120 120"><defs><style>.cls-1{fill:none;stroke:#211f1f;stroke-linecap:round;stroke-linejoin:round;stroke-width:4px;}</style></defs><circle class="cls-1" cx="47.79" cy="63.1" r="10.97"/><path class="cls-1" d="M107.49,52.13q.3,1.2.51,2.37A15.39,15.39,0,0,1,97.6,71.6L78.34,78.06a6.38,6.38,0,0,0-4.36,6h0a9.34,9.34,0,0,0,9.34,9.34h17.86a6.32,6.32,0,0,1,6.31,6.31h0a7.24,7.24,0,0,1-7.24,7.24H78.32A16.93,16.93,0,0,1,61.39,90.06V78A19.26,19.26,0,0,1,73,60.24l.56-.24C81.14,56.88,84.5,58,87,54.79c4.44-5.65-2.06-14.43,1.69-17.47,2.85-2.31,9.45.5,13.16,3.87S106.63,48.77,107.49,52.13Z"/><path class="cls-1" d="M39.54,70.32a8.67,8.67,0,0,1,16.25.26"/><path class="cls-1" d="M104.16,67.69c-.34,1.25-3.94,14.1-7.74,13.79-.55,0-2.66-.48-4.46-8"/><path class="cls-1" d="M84.09,76.13c.92,3.64-1.17,7-3.93,7.64a5.74,5.74,0,0,1-5.61-2.29q-1.39,7-2.8,13.91"/><path class="cls-1" d="M58.76,63.1c.3,1.53,1.94,10.75-4.15,18.74a23,23,0,0,1-10.89,7.74"/><path class="cls-1" d="M87,54.79a38.39,38.39,0,0,0-15.73-3.53A37.85,37.85,0,0,0,60,52.9c-2.09-1.09-13.6-6.83-24.74-2C22.39,56.42,14.79,74,20.24,92.29a17.63,17.63,0,0,0,6.5,12,17.89,17.89,0,0,0,14.71,3.1L78.32,107"/><path class="cls-1" d="M30.73,53.47,24,46.64A44.69,44.69,0,0,0,14,91.13l6.27,1.16"/><path class="cls-1" d="M35.26,50.87a24.12,24.12,0,0,0,0-17h19a21,21,0,0,0,0,16.28"/><path class="cls-1" d="M44.81,33.84V25.26A12.71,12.71,0,0,0,32.1,12.55H24.87A12.71,12.71,0,0,0,12.16,25.26v7.87a9.22,9.22,0,0,0,9.23,9.22h0a7.08,7.08,0,0,0,7.09-7.09V33.84h-.82a6.39,6.39,0,0,1-6.39-6.39h0a6.39,6.39,0,0,1,6.39-6.39h1.21a6.39,6.39,0,0,1,6.39,6.39v6.39"/><path class="cls-1" d="M45.06,33.84V25.26A12.72,12.72,0,0,1,57.77,12.55H65A12.71,12.71,0,0,1,77.71,25.26v7.87a9.22,9.22,0,0,1-9.23,9.22h0a7.08,7.08,0,0,1-7.09-7.09V33.84h.82a6.39,6.39,0,0,0,6.39-6.39h0a6.39,6.39,0,0,0-6.39-6.39H61a6.39,6.39,0,0,0-6.39,6.39v6.39"/></svg>