<svg id="Symbols" xmlns="http://www.w3.org/2000/svg" viewBox="0 0 120 120"><defs><style>.cls-1{fill:none;stroke:#211f1f;stroke-linecap:round;stroke-linejoin:round;stroke-width:4px;}</style></defs><path class="cls-1" d="M67,107.65c.31-5.91-4.65-10.48-9.68-10.07-4.55.38-8.46,4.77-8.13,10.07H107.9V12.42H60.64a7.8,7.8,0,0,0,6.55,7.16,7.89,7.89,0,0,0,8.52-7.16"/><circle class="cls-1" cx="69" cy="91.77" r="8.1"/><circle class="cls-1" cx="84.75" cy="82.1" r="8.1"/><path class="cls-1" d="M107.8,84.4a7.31,7.31,0,0,1-3.87,1.15c-3.69,0-8.09-3.26-8.09-8.1s4.52-8,8.09-8.09a7.28,7.28,0,0,1,3.34.71Q107.54,77.24,107.8,84.4Z"/><path class="cls-1" d="M26.1,96c-6.41-.56-11-4.77-11.36-9.29a9.43,9.43,0,0,1,2.47-6.58l9.47,5.9a7,7,0,0,0,8.19,1.07c3-1.83,4.16-6.32,1.94-9.88l-4-7.9a4.45,4.45,0,0,1,6.44-5.83l6.15,9.76a34.46,34.46,0,0,1,5.72,12.3,35.94,35.94,0,0,1-1.94,22.07H22.87a10.54,10.54,0,0,1-5.42-8.52"/><path class="cls-1" d="M17.63,92.39a8.2,8.2,0,0,0,7.56,11.77"/><path class="cls-1" d="M17.21,80.16a15.39,15.39,0,0,1-4-9.29A15.58,15.58,0,0,1,16.83,60H36.42v2.73"/><path class="cls-1" d="M16.83,60a3.62,3.62,0,0,1-3.25-2.87,3.69,3.69,0,0,1,3.25-4.07H36.42A3.64,3.64,0,0,1,39.52,56a3.69,3.69,0,0,1-3.1,4"/><circle class="cls-1" cx="71.31" cy="28.47" r="8.69"/><circle class="cls-1" cx="57.9" cy="21.13" r="5.03"/><path class="cls-1" d="M57.9,26.16a30.18,30.18,0,0,0-9.78,13.45C45.17,48,46.21,58,49.17,58.87c2.55.72,4-6.06,11.64-8.71,4.51-1.57,7.28-.33,8.71-2.51,1.53-2.35.42-6.95-2.71-9.1a7.91,7.91,0,0,0-5.62-1.16"/><path class="cls-1" d="M69.71,27.71a19.86,19.86,0,0,1,6.39,1,19.08,19.08,0,0,1,2.8,1.16"/><path class="cls-1" d="M75.65,36c1-.28,9.52-2.42,16.12,2.95a16.37,16.37,0,0,1,6,11.61c.7,16.91-32.19,34.49-41,27.87a6.52,6.52,0,0,1-2.13-3.1C53.06,70,59.92,63.17,65.45,60A25.68,25.68,0,0,1,76.1,56.74c-4.59-3.8-7.38-4-9.1-3.48-1.4.43-2.83.46-4.71,1.63a2.93,2.93,0,0,1-4-.86L57,52.1"/><path class="cls-1" d="M79.33,31.82a20.94,20.94,0,0,0,12.6-8.35,13.13,13.13,0,0,1,9.4-5.55l6.57-.66v7.16l-4.61.3a8.56,8.56,0,0,0-6.39,3.52,19.5,19.5,0,0,1-3,3.34A20.28,20.28,0,0,1,85.84,36"/><path class="cls-1" d="M107.8,35.34a14.33,14.33,0,0,0,0,27.38"/><path class="cls-1" d="M101.82,39.07a8.63,8.63,0,0,1-4.24-6.33,8.23,8.23,0,0,1,3.7-7.65"/></svg>