<svg id="Symbols" xmlns="http://www.w3.org/2000/svg" viewBox="0 0 120 120"><defs><style>.cls-1{fill:none;stroke:#211f1f;stroke-linecap:round;stroke-linejoin:round;stroke-width:4px;}</style></defs><rect class="cls-1" x="12.11" y="92.42" width="95.79" height="15.23"/><path class="cls-1" d="M12.11,92.42l-.21-7h5.16v-9a40.58,40.58,0,0,1-2.35-4.94,43.5,43.5,0,0,1-2.6-21.13H107.9V67a7.1,7.1,0,0,1-7.1,7.1h-.12V92.42"/><path class="cls-1" d="M34.1,92.42V76.94a40,40,0,0,0,4.13-8,40.69,40.69,0,0,0,2.32-18.59"/><path class="cls-1" d="M79,92.42V86.48h3.87V73.58A27.34,27.34,0,0,1,79,68.16a29.67,29.67,0,0,1-3.1-17.81"/><line class="cls-1" x1="39.89" y1="63.28" x2="75.64" y2="63.28"/><path class="cls-1" d="M21.55,12.68h9.29a9.45,9.45,0,0,1,9.45,9.45V38.2a4.16,4.16,0,0,1-4.16,4.16H16.26a4.16,4.16,0,0,1-4.16-4.16V22.12A9.45,9.45,0,0,1,21.55,12.68Z"/><path class="cls-1" d="M23.62,24.81h4.93a5.55,5.55,0,0,1,5.55,5.55v2.06a3.23,3.23,0,0,1-3.23,3.23H21.3a3.23,3.23,0,0,1-3.23-3.23V30.35A5.55,5.55,0,0,1,23.62,24.81Z"/><line class="cls-1" x1="16.26" y1="42.35" x2="16.26" y2="50.35"/><line class="cls-1" x1="35.25" y1="42.35" x2="35.25" y2="50.35"/><path class="cls-1" d="M22.23,20.68l3.85,4.13,4.11-4.91"/><line class="cls-1" x1="22.23" y1="24.99" x2="22.23" y2="28.79"/><line class="cls-1" x1="30.19" y1="24.88" x2="30.19" y2="28.68"/><polyline class="cls-1" points="18.77 13.1 11.79 13.1 11.79 22.12"/><polyline class="cls-1" points="33.72 13.1 40.7 13.1 40.7 22.12"/><line class="cls-1" x1="100.68" y1="74.1" x2="100.68" y2="59.13"/></svg>