<svg id="Symbols" xmlns="http://www.w3.org/2000/svg" viewBox="0 0 120 120"><defs><style>.cls-1{fill:none;stroke:#211f1f;stroke-linecap:round;stroke-linejoin:round;stroke-width:4px;}</style></defs><path class="cls-1" d="M51.85,37.31h0a6,6,0,0,1-6,6H27.57V59.62A6.33,6.33,0,0,1,21.24,66h-2.3a6.34,6.34,0,0,1-6.33-6.33V38.49a17.89,17.89,0,0,1,17.9-17.9H53.27"/><path class="cls-1" d="M51.85,20.59V39.9a3.37,3.37,0,0,0,3.37,3.37h1.92a1.47,1.47,0,0,0,1.47-1.47h0a1.93,1.93,0,0,1,1.93-1.93h1.71a1.93,1.93,0,0,1,1.92,1.93v.43a4.06,4.06,0,0,0,4.06,4.06h0a4.06,4.06,0,0,0,4.06-4.06V26.71a6.12,6.12,0,0,0-6.11-6.12Z"/><path class="cls-1" d="M18,65.86v4.23a7.17,7.17,0,0,0,7.18,7.18H40.66"/><path class="cls-1" d="M40.66,86.46h-20A2.67,2.67,0,0,0,18,89.13h0a2.67,2.67,0,0,0,2.67,2.68h20"/><path class="cls-1" d="M21.64,91.81v1a7.15,7.15,0,0,0,7.15,7.15h29A14.52,14.52,0,0,0,72.29,85.39V42.23"/><path class="cls-1" d="M44.94,72.79a18.58,18.58,0,0,0-4.06,8.54A19.06,19.06,0,0,0,43,93.94a14.56,14.56,0,0,1,3.21-9.83,13.75,13.75,0,0,1,4.6-3.53"/><path class="cls-1" d="M27.57,59.62v-.91a6.23,6.23,0,0,1,6.23-6.23h1.71a6.23,6.23,0,0,1,6.22,6.23V62a5.45,5.45,0,0,0,5.45,5.45h5.34a7.38,7.38,0,0,1,7.38,7.38v1.92a7.38,7.38,0,0,1-7.38,7.37h-6.3"/><path class="cls-1" d="M45.7,52.48h0a3.08,3.08,0,0,0,3.08-3.08h0a6.13,6.13,0,0,1,6.13-6.13h.52a6.64,6.64,0,0,1,6.64,6.64V62.74"/><circle class="cls-1" cx="67.16" cy="62.31" r="5.13"/><circle class="cls-1" cx="67.16" cy="79.84" r="5.13"/><circle class="cls-1" cx="55.31" cy="49.82" r="1.59"/><circle class="cls-1" cx="36.76" cy="47.6" r="3.82"/><circle class="cls-1" cx="29.31" cy="32.61" r="5.77"/><circle class="cls-1" cx="29.31" cy="32.61" r="0.67"/><circle class="cls-1" cx="42.37" cy="26.84" r="2.89"/><circle class="cls-1" cx="67.16" cy="25.77" r="2.78"/><circle class="cls-1" cx="55.31" cy="32.61" r="2.78"/><path class="cls-1" d="M93.51,12.48H91.65A15.07,15.07,0,0,0,76.59,27.21,15,15,0,0,1,87.93,41.8a16.28,16.28,0,0,1-5,7,16.51,16.51,0,0,1-9.49,3.63L73,66.87a17.23,17.23,0,0,1,15,11.07A15,15,0,0,1,76.59,92.52a15.07,15.07,0,0,0,15.06,14.74h1.86a15.07,15.07,0,0,0,15.07-15.07V27.55A15.07,15.07,0,0,0,93.51,12.48Z"/><path class="cls-1" d="M82.32,30.09h8.14a7.8,7.8,0,0,1,7.8,7.8V82.41a7.8,7.8,0,0,1-7.8,7.79H81.58"/><line class="cls-1" x1="98.26" y1="42.07" x2="108.58" y2="34.16"/><line class="cls-1" x1="98.26" y1="56.25" x2="108.58" y2="48.33"/><line class="cls-1" x1="98.26" y1="64.8" x2="108.58" y2="56.89"/><line class="cls-1" x1="98.26" y1="81.02" x2="108.58" y2="73.11"/></svg>