<svg id="Symbols" xmlns="http://www.w3.org/2000/svg" viewBox="0 0 120 120"><defs><style>.cls-1{fill:none;stroke:#211f1f;stroke-linecap:round;stroke-linejoin:round;stroke-width:4px;}</style></defs><path class="cls-1" d="M20.77,68.13q-.3-4.06-.61-8.13c.39.11,3.86,1,6.39-1.13,2.81-2.37,2.41-6.76,1-9.29a6.56,6.56,0,0,0-2.9-2.77,6.84,6.84,0,0,0-5.23-.13,10.22,10.22,0,0,0-4.15,2.58c-6.69,6.94-2.62,29.49,5.5,31.48a8.13,8.13,0,0,0,6.39-1.35,8.57,8.57,0,0,0,3.1-5"/><path class="cls-1" d="M11.88,60V12.42H80.35a7.87,7.87,0,0,1-1.74,6,7.54,7.54,0,0,1-3.74,2.32"/><path class="cls-1" d="M37.77,12.42C39.39,18,44.26,31.7,57.52,39.32c9.77,5.62,25.11,8.49,29.22,2.91,1.74-2.36,1.76-6.62-.39-8.52S80,32.17,76.22,35.06a21.92,21.92,0,0,0-9.41-22.64"/><path class="cls-1" d="M28.1,50.88a32.16,32.16,0,0,0,8.71-9.82A33.21,33.21,0,0,0,40.6,20"/><path class="cls-1" d="M37.77,56.74c.5,0,3.18,0,4.46,1.74,1.76,2.43-.09,6.9-3.1,8.33-3.27,1.55-7.14-.83-8.9-3.24-2.79-3.8-1.38-9.1.56-12.07,3.06-4.68,9.56-6.82,16.27-5.28.34.91,3.63,9.5,12,11.49,1.17.28,8.67,2.06,12.78-2.9,3.1-3.75,2.11-8.74,1.93-9.57"/><path class="cls-1" d="M62.89,41.91a15.56,15.56,0,0,0-11.18.7,14.51,14.51,0,0,0-4.65,3.61"/><path class="cls-1" d="M42.84,60c.34.56,7,11.14,18.55,11.06C71.55,71,81,62.63,82.87,50.88a5.61,5.61,0,0,0-1.16-4,5.31,5.31,0,0,0-2.32-1.63"/><path class="cls-1" d="M51.71,42.61a6.55,6.55,0,1,0,13,0"/><path class="cls-1" d="M39.13,66.81c-1.52.18-5.08.83-7.36,3.67C27.34,76,30.39,86.57,36,88.68a8.1,8.1,0,0,0,6.78-.78,9.09,9.09,0,0,0,4.06-6.38"/><path class="cls-1" d="M37.39,79.39a4.58,4.58,0,0,1,1.35-3.87,4.11,4.11,0,0,1,2.32-1,41,41,0,0,1,5.62-.2c9.77.36,13.19,4.11,24.77,6,5.57.92,9.07.75,12.2-1a10.35,10.35,0,0,0,4.25-4.07c2.4-4.37.38-9.11.06-9.83"/><path class="cls-1" d="M85.1,43.7a35.18,35.18,0,0,1,17.13,9.56,33.43,33.43,0,0,1,5.55,7.65,4.08,4.08,0,0,1-5.94,5.33,10.67,10.67,0,0,0-6-3.11c-6.45-.77-10.94,6.25-14.52,4.64-1-.46-2.35-1.79-2.75-6.2"/><path class="cls-1" d="M80.41,80.58q-.31,3-.64,6c6.48,4.32,10,10,8.88,14.73a7.2,7.2,0,0,1-2.53,4.15c-2,1.54-6.29,2.7-30.35-6.49-4.18-1.6-7.41-2.92-9.48-1.36-2.56,1.93-1.81,7.08-1.16,10.07H11.88l0-45.68"/><path class="cls-1" d="M12,77.84a14.92,14.92,0,0,1-.15,29.81"/></svg>