<svg id="Symbols" xmlns="http://www.w3.org/2000/svg" viewBox="0 0 120 120"><defs><style>.cls-1{fill:none;stroke:#211f1f;stroke-linecap:round;stroke-linejoin:round;stroke-width:4px;}</style></defs><circle class="cls-1" cx="38.05" cy="41.03" r="8.32"/><circle class="cls-1" cx="81.6" cy="41.03" r="8.32"/><path class="cls-1" d="M18.93,22.73C17.8,72.79,42,106.84,59.72,107s42.87-33.65,42.17-84.3a93,93,0,0,0-83,0Z"/><circle class="cls-1" cx="20.25" cy="72.97" r="7.74"/><circle class="cls-1" cx="100.56" cy="72.97" r="7.74"/><path class="cls-1" d="M100.89,41.19a7.34,7.34,0,0,1,4.29,1.07c4.71,3.05,4.88,12.4,1.19,18.35a15.58,15.58,0,0,1-4.63,4.72"/><path class="cls-1" d="M19.11,41.19a7.34,7.34,0,0,0-4.29,1.07c-4.71,3.05-4.88,12.4-1.19,18.35a15.58,15.58,0,0,0,4.63,4.72"/><path class="cls-1" d="M50.05,74.13A123.34,123.34,0,0,0,53.73,91a122,122,0,0,0,6,16.06,125.94,125.94,0,0,0,5.77-16A124.63,124.63,0,0,0,69,74.52"/><path class="cls-1" d="M69,79.36a19.17,19.17,0,0,0,7.36-1.55,17.86,17.86,0,0,0,2.36-1.23A3,3,0,0,0,79.9,72.9l0-.05A3,3,0,0,0,76,71.25a43.13,43.13,0,0,1-31.64.13,2.88,2.88,0,0,0-3.85,2v.06a2.88,2.88,0,0,0,1.4,3.22c.84.46,1.75.93,2.72,1.37a40.19,40.19,0,0,0,6.57,2.33"/><line class="cls-1" x1="59.7" y1="90.58" x2="59.7" y2="74.32"/><path class="cls-1" d="M28,52.45a13.3,13.3,0,0,0,7.94,4.45c6.81,1,11.58-4,12-4.45L59.54,35l11.8,17.42a12.66,12.66,0,0,0,7.75,5.42,13,13,0,0,0,13-5.42"/><path class="cls-1" d="M48.83,51.1l-1.52,5a4,4,0,0,0,1.89,4.69l2,1.13a9.62,9.62,0,0,0,7,4.84,9.34,9.34,0,0,0,9.24-5.37l2-.69a4,4,0,0,0,2.5-5q-.73-2.28-1.46-4.58"/><path class="cls-1" d="M47.14,59a12.89,12.89,0,0,1-8.7,10.14c-6.45,2.06-11.66-2-12-2.35"/><path class="cls-1" d="M72.08,59a12.9,12.9,0,0,0,8.7,10.14c6.45,2.06,11.67-2,12-2.35"/><line class="cls-1" x1="31.47" y1="17.53" x2="31.47" y2="29.23"/><line class="cls-1" x1="38.05" y1="16.18" x2="38.05" y2="27.87"/><line class="cls-1" x1="45.02" y1="15.01" x2="45.02" y2="26.71"/><line class="cls-1" x1="51.99" y1="13.81" x2="51.99" y2="25.51"/><line class="cls-1" x1="95.28" y1="19.66" x2="95.28" y2="31.36"/><line class="cls-1" x1="88.44" y1="17.53" x2="88.44" y2="29.23"/><line class="cls-1" x1="81.86" y1="16.18" x2="81.86" y2="27.87"/><line class="cls-1" x1="74.89" y1="15.01" x2="74.89" y2="26.71"/><line class="cls-1" x1="67.93" y1="13.81" x2="67.93" y2="25.51"/><line class="cls-1" x1="59.54" y1="13.81" x2="59.54" y2="25.51"/></svg>