<svg id="Symbols" xmlns="http://www.w3.org/2000/svg" viewBox="0 0 120 120"><defs><style>.cls-1{fill:none;stroke:#211f1f;stroke-linecap:round;stroke-linejoin:round;stroke-width:4px;}</style></defs><circle class="cls-1" cx="34.2" cy="70.85" r="22.04"/><path class="cls-1" d="M30.16,92.51q-.35,7.33-.71,14.66l43.74-.3L74,102.7a57.73,57.73,0,0,0,13.54.3c8.29-.8,15.37-1.2,17.8-5.81.48-.89,2.06-4.38-1.16-10.84a15.08,15.08,0,0,0-.8-6.19,15.38,15.38,0,0,0-5-7c7.43-.34,8.67-2.9,8.91-3.48,1.39-3.45-3.82-8.57-8.91-13.55A72.33,72.33,0,0,0,87.9,47.65a12.17,12.17,0,0,0-5.8-7.75,10.85,10.85,0,0,0-4.26-1.16l-10.45-5.8a48.25,48.25,0,0,0,16.68,1.93,48.41,48.41,0,0,0,10.8-1.93,41.07,41.07,0,0,0-24.28-7.33c.63.1,6.88,1,11.45-3.63a13.27,13.27,0,0,0,3.7-9.18l-6.73,4-2.33,1.4a33.37,33.37,0,0,0-12.39-2.71C50.38,15.22,40.77,24,38.35,26.35a19.87,19.87,0,0,0,5.81-13.93A37.07,37.07,0,0,0,26.35,26.35a37.67,37.67,0,0,0-5.56,27"/><path class="cls-1" d="M103.36,80.16a8.54,8.54,0,0,0-3.82-.62c-4.61.35-7.17,4.56-7.48,5.08L87.52,84"/><line class="cls-1" x1="104.16" y1="86.35" x2="96.42" y2="89.06"/><path class="cls-1" d="M91,63.52a4.6,4.6,0,0,0-1.16,5.42,4.76,4.76,0,0,0,3.48,2.32l5.81-3.69"/><polyline class="cls-1" points="67.39 48.81 70.48 55.39 81.71 52.1"/><path class="cls-1" d="M67.39,32.94A16.48,16.48,0,0,0,48,43.39,22.68,22.68,0,0,1,60,52.1c6.26,9.2,2.77,19.54,2.35,20.71A11.21,11.21,0,0,0,67,74.74a11.57,11.57,0,0,0,7.74-1.55A13.25,13.25,0,0,1,63.9,82.48a13,13,0,0,1-9.44-3"/><line class="cls-1" x1="87.52" y1="103" x2="67.39" y2="82.07"/><line class="cls-1" x1="71.75" y1="78.35" x2="96.42" y2="101.98"/><line class="cls-1" x1="52.86" y1="82.56" x2="73.98" y2="102.7"/><line class="cls-1" x1="44.8" y1="90.16" x2="56.03" y2="107.17"/><path class="cls-1" d="M12.16,70.85V15.9h0A5.12,5.12,0,0,1,17.28,21V27.9l5.78,4.62"/><path class="cls-1" d="M14.15,80c6.14-9.52,17.43-13,25.75-9.14,8.53,3.94,10.35,13.91,10.52,14.89"/><path class="cls-1" d="M31.65,49A32.7,32.7,0,0,0,55.79,75.27"/><path class="cls-1" d="M39.54,49.47A24.75,24.75,0,0,0,56,67.91"/><path class="cls-1" d="M20.79,53.37a5.1,5.1,0,1,1-.55,10.15,35,35,0,0,0-2.11,11.75"/><path class="cls-1" d="M18,85.76a13.73,13.73,0,0,1,26.82,4.4"/><path class="cls-1" d="M32.94,76.29A9.24,9.24,0,0,0,44.8,90.16"/></svg>