<svg id="Layer_2" data-name="Layer 2" xmlns="http://www.w3.org/2000/svg" viewBox="0 0 150 150"><title>Kimi mayan symbol - bold</title><path d="M121.68,62.79A35.91,35.91,0,0,0,85.81,26.92H63.88A35.91,35.91,0,0,0,28,62.79V87.46a35.91,35.91,0,0,0,35.87,35.87H85.81a35.91,35.91,0,0,0,35.87-35.87ZM36,87.46V62.79A27.9,27.9,0,0,1,63.88,34.92H76V71.56C59.44,74.9,59,91.36,59,92.85v22A27.9,27.9,0,0,1,36,87.46Zm39.11-7.3a12.24,12.24,0,0,1-7.26,7.61A12.21,12.21,0,0,1,75.12,80.16Zm38.56,7.3a27.9,27.9,0,0,1-27.87,27.87H67v-19C83.57,93,84,76.49,84,75V34.92h1.81a27.9,27.9,0,0,1,27.87,27.87Z"/><path d="M63.05,65.17a14.47,14.47,0,0,0,0-20.43L57.39,50.4a6.45,6.45,0,0,1-9.11,9.12l-5.66,5.65a14.45,14.45,0,0,0,20.43,0Z"/></svg>