<svg id="Layer_2" data-name="Layer 2" xmlns="http://www.w3.org/2000/svg" viewBox="0 0 150 150"><title>Kib mayan symbol - bold </title><path d="M85.88,27.48H63.94A35.91,35.91,0,0,0,28.08,63.35V88a35.91,35.91,0,0,0,35.86,35.87H85.88A35.91,35.91,0,0,0,121.75,88V63.35A35.91,35.91,0,0,0,85.88,27.48ZM113.64,61H100.92A16,16,0,0,0,88,47.64V35.57A27.9,27.9,0,0,1,113.64,61ZM101.11,76h12.64v7H101.11Zm0-4V65h12.64v7ZM66,35.48h7V47.36H66Zm11,0h7V47.36H77Zm-15,.07V47.61A16,16,0,0,0,48.91,61H36.18A27.92,27.92,0,0,1,62,35.55ZM48.71,65v7H36.08V65Zm0,11v7H36.08V76ZM36.08,88V87H48.71v17a38,38,0,0,1-.64,6.91A27.83,27.83,0,0,1,36.08,88ZM77.9,115.89l7.56-7.76-7.95-5.47,10.6-6.87-8.72-5.86C84.55,87.7,90,83.83,89.7,75.56a14.79,14.79,0,0,0-29.58.12h8a6.8,6.8,0,0,1,6.79-6.79,6.94,6.94,0,0,1,6.79,6.92c.15,4.54-3,6.08-9.66,8.3-1,.33-2,.65-2.85,1l-7.27,2.73,11.67,7.84-10.48,6.79,10,6.88-6.37,6.55h-2.8a27.84,27.84,0,0,1-8.46-1.32l.07-.3A46.16,46.16,0,0,0,56.71,104V63.36a8,8,0,0,1,8-8h20.4a8,8,0,0,1,8,8v40.1a51.81,51.81,0,0,0,1.23,11.11,27.53,27.53,0,0,1-8.46,1.32Zm23.86-5a43.25,43.25,0,0,1-.65-7.45V87h12.64v1A27.86,27.86,0,0,1,101.76,110.91Z"/></svg>