<svg id="Symbols" xmlns="http://www.w3.org/2000/svg" viewBox="0 0 120 120"><defs><style>.cls-1{fill:none;stroke:#211f1f;stroke-linecap:round;stroke-linejoin:round;stroke-width:4px;}</style></defs><path class="cls-1" d="M43,40.94H76A23.61,23.61,0,0,1,99.65,64.55V89.32a17.94,17.94,0,0,1-17.94,17.94H37.32A17.94,17.94,0,0,1,19.39,89.32V64.55A23.61,23.61,0,0,1,43,40.94Z"/><path class="cls-1" d="M34,13.06H46.42a13.1,13.1,0,0,1,13.1,13.1V40.94a0,0,0,0,1,0,0H30.35a9.42,9.42,0,0,1-9.42-9.42V26.16A13.1,13.1,0,0,1,34,13.06Z"/><path class="cls-1" d="M69,13.06H98.13a0,0,0,0,1,0,0V27.84A13.1,13.1,0,0,1,85,40.94H72.65a13.1,13.1,0,0,1-13.1-13.1V22.48A9.42,9.42,0,0,1,69,13.06Z" transform="translate(157.68 54) rotate(-180)"/><rect class="cls-1" x="32.45" y="23.39" width="14.55" height="8"/><line class="cls-1" x1="60.19" y1="24.94" x2="96.55" y2="24.94"/><line class="cls-1" x1="75.9" y1="40.94" x2="75.9" y2="24.94"/><line class="cls-1" x1="83.13" y1="40.94" x2="83.13" y2="24.94"/><rect class="cls-1" x="65.57" y="15.17" width="8.22" height="8.22" rx="4.11"/><rect class="cls-1" x="85.03" y="15.17" width="8.22" height="8.22" rx="4.11"/><path class="cls-1" d="M55.34,57.19h9.32A17.66,17.66,0,0,1,82.32,74.85v32.4a0,0,0,0,1,0,0H37.68a0,0,0,0,1,0,0V74.85A17.66,17.66,0,0,1,55.34,57.19Z"/><line class="cls-1" x1="59.55" y1="57.19" x2="59.55" y2="107.26"/><path class="cls-1" d="M73.79,59.73V70.25a6,6,0,0,1-6,6H55.52a4.91,4.91,0,0,0-4.91,4.9h0a4.91,4.91,0,0,0,4.91,4.91H71.08A11.25,11.25,0,0,0,82.32,74.85h0"/><path class="cls-1" d="M55.52,86.1h0a3.64,3.64,0,0,0-3.65,3.64v1.49a3.64,3.64,0,0,0,3.65,3.64H71.23a11.1,11.1,0,0,0,11.09-11.1h0"/></svg>