<svg id="Layer_2" data-name="Layer 2" xmlns="http://www.w3.org/2000/svg" viewBox="0 0 150 150"><title>Ok mayan symbol - bold</title><path d="M85.88,26.48H63.94A35.91,35.91,0,0,0,28.08,62.35V87a35.91,35.91,0,0,0,35.86,35.87H85.88A35.91,35.91,0,0,0,121.75,87V62.35A35.91,35.91,0,0,0,85.88,26.48Zm5.35,24.44a54.56,54.56,0,0,1-13,7.44c-4,1.48-5.5,1-5.62.8s-.19-1.71,2.37-5.16A54.25,54.25,0,0,1,85.77,43.61a59.13,59.13,0,0,1,11.34-6.76A27.71,27.71,0,0,1,102.46,40,52,52,0,0,1,91.23,50.92Zm2,4.18c1.43-1.49,2.8-2.79,4.11-3.94l.81-.71a36.07,36.07,0,0,1,9.11-6,28.66,28.66,0,0,1,2.34,3.24c-1.29,3.1-4.19,7.88-9.81,13.71-9.5,9.85-16.31,11.89-17.08,11.15-.14-.14-.47-1.66,1.5-5.48A54.2,54.2,0,0,1,93.22,55.1ZM63.94,114.89A27.78,27.78,0,0,1,44.54,107H60.16a20.34,20.34,0,0,0,14.5-6L69,95.34A12.46,12.46,0,0,1,60.16,99H38.79a27.5,27.5,0,0,1-2.42-8h28.1a25.57,25.57,0,0,1,25.45,23.59,27,27,0,0,1-4,.3ZM113.75,87a27.9,27.9,0,0,1-16,25.22A33.58,33.58,0,0,0,64.47,83H36.08V62.35A27.9,27.9,0,0,1,63.94,34.48H85.88a28.07,28.07,0,0,1,5.76.6,69.12,69.12,0,0,0-8.26,5.33A58,58,0,0,0,71.72,51.62c-3.23,4.36-4,7.7-2.35,9.94a5,5,0,0,0,4.29,1.83,17.89,17.89,0,0,0,5.9-1.27,40.82,40.82,0,0,0,4.14-1.81,41.43,41.43,0,0,0-3,5c-2.49,4.83-2.73,8.25-.72,10.19a4.48,4.48,0,0,0,3.24,1.19c5.12,0,13.11-5.83,19.49-12.45a60.67,60.67,0,0,0,9.17-12,27.75,27.75,0,0,1,1.92,10.14Z"/><path d="M53.05,52.23A13.23,13.23,0,1,0,66.28,65.46,13.24,13.24,0,0,0,53.05,52.23Zm0,18.45a5.23,5.23,0,1,1,5.23-5.22A5.22,5.22,0,0,1,53.05,70.68Z"/></svg>