<svg id="Layer_2" data-name="Layer 2" xmlns="http://www.w3.org/2000/svg" viewBox="0 0 150 150"><title>Men mayan symbol - bold</title><path d="M86,26.48H64.08A35.91,35.91,0,0,0,28.21,62.35V87a35.91,35.91,0,0,0,35.87,35.87H86A35.91,35.91,0,0,0,121.88,87V62.35A35.91,35.91,0,0,0,86,26.48ZM36.21,87v0H49.89a51.4,51.4,0,0,0-12.47,8.14A27.89,27.89,0,0,1,36.21,87Zm77.67,0A27.65,27.65,0,0,1,109,102.75V73h-4v34.4a28.36,28.36,0,0,1-7,4.78V73H94v40.72a27.47,27.47,0,0,1-7,1.14V93H83v21.89H76V93H72v21.89H65V103H61v11.72a27.89,27.89,0,0,1-19.88-11.93c8-9.2,27.28-14.51,34.6-15.86L75,79H36.21V62.35A27.61,27.61,0,0,1,38.64,51h5.78a9.46,9.46,0,0,0-3,6.68C41.47,64.7,49.88,70,61,70s19.58-5.3,19.58-12.32a9.46,9.46,0,0,0-3-6.68H89V43H44.05a27.77,27.77,0,0,1,20-8.52H86a27.9,27.9,0,0,1,27.87,27.87ZM76.62,57.68c0,3.52-4.09,6.52-9.87,7.74A9.61,9.61,0,0,0,68,51h2.35C74.14,52.52,76.62,54.94,76.62,57.68ZM51.76,51h2.36a9.61,9.61,0,0,0,1.22,14.42c-5.78-1.22-9.87-4.22-9.87-7.74C45.47,54.94,48,52.52,51.76,51Z"/></svg>