<svg id="Layer_2" data-name="Layer 2" xmlns="http://www.w3.org/2000/svg" viewBox="0 0 150 150"><title>Ben mayan symbol - bold</title><path d="M86,27.23H64.08A35.91,35.91,0,0,0,28.21,63.1V87.77a35.91,35.91,0,0,0,35.87,35.87H86a35.91,35.91,0,0,0,35.87-35.87V63.1A35.91,35.91,0,0,0,86,27.23Zm1.68,8.05a27.74,27.74,0,0,1,6.22,1.09V72.85H87.69Zm-31.5,1.09a27.75,27.75,0,0,1,6.21-1.09V72.85H56.19Zm6.55,79.23a27.77,27.77,0,0,1-6.22-1V103.83h6.22Zm30.83-1a27.68,27.68,0,0,1-6.22,1V103.83h6.22Zm8-3.71v-15H79.35v19.81H70.74V95.83H48.52v15A27.92,27.92,0,0,1,36.53,92h77A27.92,27.92,0,0,1,101.57,110.88ZM113.88,84H36.21V63.1a27.84,27.84,0,0,1,12-22.88V80.85H70.4V35.23h9.29V80.85h22.22V40.22a27.85,27.85,0,0,1,12,22.88Z"/></svg>