<svg id="Layer_2" data-name="Layer 2" xmlns="http://www.w3.org/2000/svg" viewBox="0 0 150 150"><title>Kawak mayan symbol - bols</title><path d="M85.88,26.48H63.94A35.91,35.91,0,0,0,28.08,62.35V87a35.91,35.91,0,0,0,35.86,35.87H85.88A35.91,35.91,0,0,0,121.75,87V62.35A35.91,35.91,0,0,0,85.88,26.48ZM113.75,87a27.9,27.9,0,0,1-27.87,27.87H63.94A27.9,27.9,0,0,1,36.08,87V62.35A27.9,27.9,0,0,1,63.94,34.48H85.88a27.9,27.9,0,0,1,27.87,27.87Z"/><path d="M89.54,43.68H69.71c-.23,0-.45,0-.68,0H57.23a13.71,13.71,0,0,0-13.7,13.7v.15a13.71,13.71,0,0,0,13.7,13.7H69a13.71,13.71,0,0,0,13.7-13.7v-.15a13.62,13.62,0,0,0-1.24-5.67h8.05a8,8,0,0,1,8,8v30a8,8,0,0,1-8,8H59.85v8H89.54a16,16,0,0,0,16-16v-30A16,16,0,0,0,89.54,43.68ZM74.73,57.35v.15A5.71,5.71,0,0,1,69,63.2H57.23a5.7,5.7,0,0,1-5.7-5.7v-.15a5.7,5.7,0,0,1,5.7-5.7h2.62v0h9.79A5.71,5.71,0,0,1,74.73,57.35Z"/><path d="M63.13,61.37a3.95,3.95,0,1,0-4-3.94A3.94,3.94,0,0,0,63.13,61.37Z"/><path d="M53.13,94.48a3.95,3.95,0,1,0,3.95,4A4,4,0,0,0,53.13,94.48Z"/></svg>