<svg id="Layer_2" data-name="Layer 2" xmlns="http://www.w3.org/2000/svg" viewBox="0 0 150 150"><title>Ix mayan symbol - bold </title><path d="M86,26.92H64.08A35.91,35.91,0,0,0,28.21,62.79V87.46a35.91,35.91,0,0,0,35.87,35.87H86a35.91,35.91,0,0,0,35.87-35.87V62.79A35.91,35.91,0,0,0,86,26.92ZM75,51a6.7,6.7,0,1,1,6.7-6.7A6.7,6.7,0,0,1,75,51Zm-6.13-16h.93a10.68,10.68,0,0,0,.43,18.9c-7.92-1.13-13.76-5-13.76-9.57C56.47,39.93,61.65,36.27,68.87,34.92ZM85.7,44.25a10.69,10.69,0,0,0-5.5-9.33h.93c7.22,1.35,12.4,5,12.4,9.33,0,4.59-5.84,8.44-13.76,9.57A10.71,10.71,0,0,0,85.7,44.25ZM36.21,62.79A27.91,27.91,0,0,1,56.74,35.91a10.9,10.9,0,0,0-4.27,8.34C52.47,51.41,60.36,57,71.35,58h0c-.19,6.79-3.07,30.77-33.88,37.76a27.75,27.75,0,0,1-1.26-8.3ZM86,115.33H64.08a27.91,27.91,0,0,1-23-12.2C60.93,98.07,70.31,86.47,74.7,77.2c.23-.49.44-1,.65-1.46.2.49.41,1,.64,1.46,4.36,9.19,13.61,20.68,33.15,25.8A27.88,27.88,0,0,1,86,115.33Zm27.87-27.87a28,28,0,0,1-1.22,8.17C82.38,88.47,79.53,64.74,79.34,58v-.08C90,56.74,97.53,51.26,97.53,44.25a11,11,0,0,0-4.31-8.38,27.91,27.91,0,0,1,20.66,26.92Z"/><path d="M51,75a10.71,10.71,0,0,0,10.7-10.7h-8a2.7,2.7,0,0,1-5.4,0h-8A10.71,10.71,0,0,0,51,75Z"/><path d="M75,99a2.7,2.7,0,0,1-2.7-2.7h-8a10.7,10.7,0,0,0,21.4,0h-8A2.7,2.7,0,0,1,75,99Z"/><path d="M99,67a2.7,2.7,0,0,1-2.7-2.7h-8a10.7,10.7,0,0,0,21.4,0h-8A2.7,2.7,0,0,1,99,67Z"/></svg>