<svg id="Symbols" xmlns="http://www.w3.org/2000/svg" viewBox="0 0 120 120"><defs><style>.cls-1{fill:none;stroke:#211f1f;stroke-linecap:round;stroke-linejoin:round;stroke-width:4px;}</style></defs><path class="cls-1" d="M40.15,36.38a77.77,77.77,0,0,1,40.13.39L87.81,19a67.93,67.93,0,0,0-55.36-.09Q36.31,27.63,40.15,36.38Z"/><path class="cls-1" d="M40.15,36.38C39.48,46.87,38.41,58,36.8,69.75c-1.26,9.15-2.73,17.86-4.35,26.12l21.81,6.45a5.91,5.91,0,0,0,11.43.87L89.14,96.8a198.51,198.51,0,0,1-8.86-60"/><path class="cls-1" d="M37.28,66.13l8.46,8.58"/><polyline class="cls-1" points="52.45 78.32 60 86.84 66.64 78.32"/><path class="cls-1" d="M39.29,86.84,58,84.63l2,2.21,1.7-2.18,18.88,3.47"/><line class="cls-1" x1="51.87" y1="91.23" x2="68.13" y2="91.23"/><path class="cls-1" d="M39,50.48a4.25,4.25,0,0,1,7.68,0,35.26,35.26,0,0,0,5.48,12.87A34.89,34.89,0,0,0,56.06,68"/><path class="cls-1" d="M81.67,66.13l-8.46,8.58"/><path class="cls-1" d="M79.92,50.48a4.25,4.25,0,0,0-7.68,0,35.13,35.13,0,0,1-5.49,12.87A33.43,33.43,0,0,1,62.88,68"/><circle class="cls-1" cx="28.57" cy="74.02" r="7.23"/><path class="cls-1" d="M21.73,71.7l-8.43-1c-.35-2.88-3.5-32,13.86-43.49a26,26,0,0,1,7.49-3.36"/><circle class="cls-1" cx="91.45" cy="74.02" r="7.23"/><path class="cls-1" d="M98.29,71.7l8.43-1c.35-2.88,3.5-32-13.86-43.49a26,26,0,0,0-7.49-3.36"/><circle class="cls-1" cx="60" cy="40.54" r="5.2"/></svg>