<svg id="Layer_2" data-name="Layer 2" xmlns="http://www.w3.org/2000/svg" viewBox="0 0 150 150"><title>Chikchan mayan symbol - bold </title><path d="M121.68,62.66A35.9,35.9,0,0,0,85.83,26.8H63.88A35.92,35.92,0,0,0,28,62.66V87.34a35.92,35.92,0,0,0,35.87,35.87H85.81a35.92,35.92,0,0,0,35.87-35.87ZM98.44,65.43a11,11,0,0,1-2.52-6.32,9.11,9.11,0,0,0,4.46-4.19,8.56,8.56,0,0,0,5,4.41,10.83,10.83,0,0,1-2.5,6.1Zm-12.61,0a7.1,7.1,0,0,1-1.53-.16,11.11,11.11,0,0,1-2.37-6.09,9.05,9.05,0,0,0,4.74-4.7,9.29,9.29,0,0,0,4.68,4.63,11,11,0,0,1-2.52,6.32Zm-1.4-18.29c-.24,4.87-2.49,8.42-4.52,8.42a2.78,2.78,0,0,1-1.91-1V42.79a8,8,0,0,1,.59-3C79.66,43.42,81.79,46.14,84.43,47.14Zm14,0c0,.1,0,.2,0,.3-.32,4.84-2.66,8.13-4.77,8.13s-4.55-3.42-4.79-8.42a9.38,9.38,0,0,0,4.79-4.71A9.31,9.31,0,0,0,98.4,47.13Zm8.51,8.43c-2,0-4.19-3.42-4.5-8.14a.62.62,0,0,0,0-.13,8.23,8.23,0,0,0,4.18-3.16,28,28,0,0,1,4.3,6.4C110.07,53.57,108.43,55.56,106.91,55.56Zm-6.27-12c-1.92,0-4-2.71-4.63-6.83a28,28,0,0,1,7.68,4.57C102.82,42.7,101.72,43.56,100.64,43.56Zm-14,0c-2,0-4.31-3.09-4.74-7.68a7.75,7.75,0,0,1,3.93-1.08,27.89,27.89,0,0,1,5.59.56C91.11,40.24,88.76,43.56,86.64,43.56Zm7,21.87ZM109.37,59a8.6,8.6,0,0,0,3.48-3.11,27.94,27.94,0,0,1,.83,6.76v1.77a7.56,7.56,0,0,1-3.74,1h-2.31A17.19,17.19,0,0,0,109.37,59ZM36,62.66A27.9,27.9,0,0,1,63.88,34.79h8.26a16.07,16.07,0,0,0-2.14,8V57.43a15.93,15.93,0,0,0,15.83,16h24.11a15.64,15.64,0,0,0,3.74-.47V87.34a27.68,27.68,0,0,1-1.14,7.87,15.4,15.4,0,0,0-13.49-8H92.31a15.38,15.38,0,0,0-8.82,28H69c4.33-3.19,7-7.56,7-12.45C76,92.8,65.08,85,51.15,85A32.06,32.06,0,0,0,36,88.6q0-.63,0-1.26Zm64,47.27a11.68,11.68,0,0,1-2.14-4.8c2.8-1.07,5-4.09,6-8.1a7.37,7.37,0,0,1-3.87,12.9Zm-3.36-8.62h-2c-1.5-.71-2.93-2.9-3.52-6a6.81,6.81,0,0,1,1.21-.11h6.74a6.86,6.86,0,0,1,1.12.1C99.59,98.4,98.16,100.6,96.65,101.31ZM87.4,97.09c1,4,3.28,7.07,6.13,8.09a11.68,11.68,0,0,1-2.14,4.76,7.38,7.38,0,0,1-4-12.85Zm-32.05.42c-1.1,2.45-4.81,2.49-4.9,2.49H39.07a26.17,26.17,0,0,1-1.33-3c3.21-2.49,8.14-4,13.41-4,9,0,16.85,4.56,16.85,9.76,0,5-7.43,9.49-16.09,9.74A28,28,0,0,1,45.2,108h5.37c3.37,0,9.5-1.5,12.08-7.2Z"/><path d="M47,75.91a15.11,15.11,0,0,0,2.19-.17A22.39,22.39,0,0,0,59.3,71.07c7.43-5.82,10.09-13.95,6.21-18.9h0c-3.89-5-12.42-4.3-19.84,1.53a22.61,22.61,0,0,0-6.94,8.71c-1.6,3.85-1.33,7.57.73,10.2A9.27,9.27,0,0,0,47,75.91Zm-.88-10.42A14.73,14.73,0,0,1,50.61,60c3.17-2.49,6-3.13,7.48-3.13a1.72,1.72,0,0,1,1.12.24c.36.46-.36,4.16-4.85,7.68a14.58,14.58,0,0,1-6.4,3c-1.51.24-2.15-.09-2.2-.16S45.54,66.9,46.12,65.49Z"/></svg>