<svg id="Layer_2" data-name="Layer 2" xmlns="http://www.w3.org/2000/svg" viewBox="0 0 150 150"><title>Muluk mayan symbol - bold</title><path d="M121.75,62.35A35.91,35.91,0,0,0,85.88,26.48H63.94A35.91,35.91,0,0,0,28.08,62.35V87a35.91,35.91,0,0,0,35.86,35.87H85.88A35.91,35.91,0,0,0,121.75,87ZM63.94,114.89a27.9,27.9,0,0,1-8.47-1.32v0l.07-.27A46.16,46.16,0,0,0,56.71,103V62.36a8,8,0,0,1,8-8h20.4a8,8,0,0,1,8,8v40.1a51.81,51.81,0,0,0,1.23,11.11,27.84,27.84,0,0,1-8.46,1.32ZM113.75,87a27.86,27.86,0,0,1-12,22.89,43.25,43.25,0,0,1-.65-7.45V62.36a16,16,0,0,0-16-16H64.71a16,16,0,0,0-16,16V103a38,38,0,0,1-.64,6.91A27.83,27.83,0,0,1,36.08,87V62.35A27.9,27.9,0,0,1,63.94,34.48H85.88a27.9,27.9,0,0,1,27.87,27.87Z"/><path d="M74.91,59.89A14.79,14.79,0,1,0,89.7,74.68,14.81,14.81,0,0,0,74.91,59.89Zm0,21.58a6.79,6.79,0,1,1,6.79-6.79A6.8,6.8,0,0,1,74.91,81.47Z"/></svg>