<svg id="Layer_2" data-name="Layer 2" xmlns="http://www.w3.org/2000/svg" viewBox="0 0 150 150"><title>Ahau mayan symbol - bold </title><path d="M85.88,26.48H63.94A35.91,35.91,0,0,0,28.08,62.35V87a35.91,35.91,0,0,0,35.86,35.87H85.88A35.91,35.91,0,0,0,121.75,87V62.35A35.91,35.91,0,0,0,85.88,26.48ZM75,108.68a6.12,6.12,0,1,1,6.12-6.12A6.12,6.12,0,0,1,75,108.68ZM36.08,87V62.35A27.9,27.9,0,0,1,63.94,34.48H71V89a14.11,14.11,0,0,0-2.87,25.87H63.94A27.9,27.9,0,0,1,36.08,87Zm77.67,0a27.9,27.9,0,0,1-27.87,27.87h-4A14.11,14.11,0,0,0,79,89V34.48h6.88a27.9,27.9,0,0,1,27.87,27.87Z"/><path d="M53,51.22A10.34,10.34,0,1,0,63.34,61.56,10.35,10.35,0,0,0,53,51.22ZM53,63.9a2.34,2.34,0,1,1,2.34-2.34A2.34,2.34,0,0,1,53,63.9Z"/><path d="M97,51.22a10.34,10.34,0,1,0,10.34,10.34A10.35,10.35,0,0,0,97,51.22ZM97,63.9a2.34,2.34,0,1,1,2.34-2.34A2.34,2.34,0,0,1,97,63.9Z"/></svg>