<svg id="Layer_2" data-name="Layer 2" xmlns="http://www.w3.org/2000/svg" viewBox="0 0 150 150"><title>Kaban mayan symbol - bold</title><path d="M85.88,28.45H63.94A35.91,35.91,0,0,0,28.08,64.32V89a35.91,35.91,0,0,0,35.86,35.87H85.88A35.91,35.91,0,0,0,121.75,89V64.32A35.91,35.91,0,0,0,85.88,28.45Zm0,8A27.69,27.69,0,0,1,99.47,40H50.36a27.62,27.62,0,0,1,13.58-3.55ZM113.75,89a27.9,27.9,0,0,1-27.87,27.87H63.94a27.81,27.81,0,0,1-5.95-.65l11.8-12.11-8.78-6,11.57-7.49L63,84.1c5.72-2.36,12-6.48,11.67-15.61a15.79,15.79,0,0,0-31.57.12h8a7.79,7.79,0,0,1,7.79-7.78,8,8,0,0,1,7.78,7.91c.17,5.39-4,7.16-10.8,9.43-1.09.36-2.14.71-3.11,1.07L45.45,82l12.61,8.48L46.61,97.87l10.83,7.44-7.54,7.74A27.88,27.88,0,0,1,36.08,89V64.32A27.71,27.71,0,0,1,41.38,48h67.07a27.71,27.71,0,0,1,5.3,16.32Z"/><path d="M93.56,53a13.05,13.05,0,1,0,13,13A13.06,13.06,0,0,0,93.56,53Zm0,18.1a5,5,0,1,1,5-5.05A5,5,0,0,1,93.56,71.12Z"/><rect x="89" y="81" width="12" height="8"/><rect x="85" y="90" width="12" height="8"/><rect x="78" y="99" width="12" height="8"/><rect x="74" y="108" width="12" height="8"/></svg>