<svg id="Symbols" xmlns="http://www.w3.org/2000/svg" viewBox="0 0 120 120"><defs><style>.cls-1{fill:none;stroke:#211f1f;stroke-linecap:round;stroke-linejoin:round;stroke-width:4px;}</style></defs><path class="cls-1" d="M12.16,10.51v60.1a65.25,65.25,0,0,0,24.52-5.16,62.61,62.61,0,0,0,6.71-3.35c8,.35,12.68,2.92,15.48,5.16C68.12,74.65,66.11,86,76.94,99.52a52.9,52.9,0,0,0,8.25,8.25h22.46V93.06L95.77,91.77,91.9,87.9a24.62,24.62,0,0,1,5.94-13.16,24,24,0,0,1,2.84-2.58c3.25-2.73,6.66-8.53,7-22.19V23.39a20.77,20.77,0,0,0-13.17-2.84,20.23,20.23,0,0,0-9.54,3.87c-.78-.21-3.91-1-6.25.71-3,2.16-3.78,7.69-.57,12.6a41.3,41.3,0,0,0-5.83,12.5A39.78,39.78,0,0,0,71,57.45l-4.9-9.29-23,2.07c.24-1.36.39-3.41-.78-4.91-1.76-2.27-5.39-1.85-7-2.06-3.84-.53-8.68-6.72-12.65-32.75Z"/><circle class="cls-1" cx="88.29" cy="67.26" r="5.16"/><circle class="cls-1" cx="25.15" cy="55.13" r="5.16"/><circle class="cls-1" cx="98.61" cy="49.19" r="5.16"/><polyline class="cls-1" points="22.74 10.51 107.64 10.51 107.64 23.39"/><line class="cls-1" x1="107.65" y1="49.97" x2="107.65" y2="93.06"/><polyline class="cls-1" points="85.19 107.77 12.16 107.77 12.16 70.61"/><path class="cls-1" d="M18.87,89.71c.1.37,1.14,4.13,4.29,5.19C26.48,96,31,93.78,32.71,89.07a8,8,0,0,0,15.48-.78A8.62,8.62,0,0,0,57,94.57"/><path class="cls-1" d="M12.28,80.17l3.87-3.36a8.16,8.16,0,0,0,7.23,5.68A8.23,8.23,0,0,0,31.63,76a8.86,8.86,0,0,0,3.62,4.9,8.71,8.71,0,0,0,5.24,1.37"/><path class="cls-1" d="M48.94,29.84a9.39,9.39,0,0,0,8.26-6.45,8.86,8.86,0,0,0,3.62,4.9,8.71,8.71,0,0,0,5.24,1.37"/></svg>