<svg id="Layer_2" data-name="Layer 2" xmlns="http://www.w3.org/2000/svg" viewBox="0 0 150 150"><title>Eb mayan symbol - bold</title><path d="M63.73,123.33H85.66a35.91,35.91,0,0,0,35.87-35.87V62.79A35.91,35.91,0,0,0,85.66,26.92H63.73A35.91,35.91,0,0,0,27.86,62.79V87.46A35.91,35.91,0,0,0,63.73,123.33ZM94.65,36.41a28,28,0,0,1,6.78,3.41c-6.82,7.51-14.75,20.24-19.54,28.9C81,51.88,90.77,40.31,94.65,36.41ZM63.73,34.92H85.31C78.86,43,70,58.7,75.59,79.7a4.83,4.83,0,0,0,4.59,3.59h.14a5.22,5.22,0,0,0,5-3.54c.94-2.91,12.81-24.47,22-34.52a27.75,27.75,0,0,1,6.24,17.56V87.46a27.9,27.9,0,0,1-27.87,27.87H63.73A27.91,27.91,0,0,1,38.21,98.65a34.48,34.48,0,0,1,10.56,3.85,16.43,16.43,0,0,0,7.72,2.12,11.76,11.76,0,0,0,4.94-1.05c6.51-2.95,8.53-10.82,8.74-11.71L62.39,90c-.31,1.28-1.78,5.17-4.28,6.3-1.43.64-3.31.34-5.6-.87C45.4,91.66,40,90.53,36,90.47a29.87,29.87,0,0,1-.16-3V86.35c2.17.15,5.47.93,10.09,3.38a14.72,14.72,0,0,0,6.91,1.89,10.79,10.79,0,0,0,4.48-1C63.18,88,65,81,65.17,80.21l-7.78-1.83c-.19.77-1.36,4.1-3.36,5-1.06.48-2.52.24-4.33-.72-5.87-3.12-10.44-4.2-13.84-4.36V62.79A27.9,27.9,0,0,1,63.73,34.92Z"/><path d="M57.05,69.68A13.23,13.23,0,1,0,43.83,56.46,13.24,13.24,0,0,0,57.05,69.68Zm0-18.45a5.23,5.23,0,1,1-5.22,5.23A5.24,5.24,0,0,1,57.05,51.23Z"/></svg>