<svg id="Layer_2" data-name="Layer 2" xmlns="http://www.w3.org/2000/svg" viewBox="0 0 150 150"><title>Imix mayan symbol - bold</title><path d="M64,123H85.88A35.91,35.91,0,0,0,121.75,87.1V62.42A35.91,35.91,0,0,0,85.88,26.55H64A35.91,35.91,0,0,0,28.08,62.42V87.1A35.91,35.91,0,0,0,64,123ZM75.28,34.55c12.22,0,22.55,6,22.55,13.08a9.31,9.31,0,0,1-3.23,6.64c0-.14,0-.28,0-.42,0-7.78-8.5-13.87-19.35-13.87S55.93,46.07,55.93,53.85c0,.14,0,.28,0,.42a9.31,9.31,0,0,1-3.23-6.64C52.72,40.54,63.05,34.55,75.28,34.55Zm0,25.18c-6.5,0-11.35-3.11-11.35-5.88S68.78,48,75.28,48s11.35,3.1,11.35,5.87S81.78,59.73,75.28,59.73Zm38.47,2.69V87.1A27.83,27.83,0,0,1,104,108.25V91H96v22a27.07,27.07,0,0,1-5,1.43V82H83v33H79V68.56c15.31-1.23,26.83-10,26.83-20.93a15.64,15.64,0,0,0-1.1-5.72A27.82,27.82,0,0,1,113.75,62.42Zm-77.67,0A27.8,27.8,0,0,1,46.27,40.9a15.62,15.62,0,0,0-1.55,6.73C44.72,58.45,56,67.12,71,68.51V115H67V82H59v32.51a27,27,0,0,1-5-1.39V91H46v17.39A27.82,27.82,0,0,1,36.08,87.1Z"/></svg>