<svg id="Layer_2" data-name="Layer 2" xmlns="http://www.w3.org/2000/svg" viewBox="0 0 150 150"><title>Ik mayan symbol - bold</title><path d="M63.85,123.33H85.79a35.91,35.91,0,0,0,35.86-35.87V62.79A35.91,35.91,0,0,0,85.79,26.92H63.85A35.91,35.91,0,0,0,28,62.79V87.46A35.91,35.91,0,0,0,63.85,123.33ZM36,62.79A27.9,27.9,0,0,1,63.85,34.92H85.79a27.9,27.9,0,0,1,27.86,27.87V87.46a27.9,27.9,0,0,1-27.86,27.87H63.85A27.9,27.9,0,0,1,36,87.46Z"/><path d="M54,70.63a25,25,0,0,0,6.09,4.55V96.63c0,6.61,6.66,12,14.84,12s14.84-5.39,14.84-12v-22a24.37,24.37,0,0,0,5.55-4.43,26.76,26.76,0,0,0,10.62,3.48l.91-8A18.75,18.75,0,0,1,91.48,54.14l-7.56,2.64a26.82,26.82,0,0,0,5.17,8.32c-3.4,3.49-8.8,5.58-14.67,5.58a21.21,21.21,0,0,1-14-5,27.13,27.13,0,0,0,5.75-8.94L58.6,54.14A18.75,18.75,0,0,1,43.25,65.71l.91,8A27.09,27.09,0,0,0,54,70.63Zm27.77,26c0,1.89-2.93,4-6.84,4s-6.84-2.11-6.84-4V78c1,.2,1.94.35,2.93.46V95h8V78.34c.93-.13,1.85-.31,2.75-.52Z"/></svg>