<svg id="Symbols" xmlns="http://www.w3.org/2000/svg" viewBox="0 0 120 120"><defs><style>.cls-1{fill:none;stroke:#211f1f;stroke-linecap:round;stroke-linejoin:round;stroke-width:4px;}</style></defs><polygon class="cls-1" points="12.16 12.94 12.16 95 26.38 106.87 26.38 25.84 12.16 12.94"/><polyline class="cls-1" points="26.38 25.84 30.48 10.51 30.48 88.81 26.38 106.87"/><polyline class="cls-1" points="30.48 88.81 66.61 106.87 66.61 26.87 30.48 10.51"/><path class="cls-1" d="M66.61,26.87l29.16-7.22,11.88,3.61v83.61l-11.88-3.61-29.16,3.61"/><line class="cls-1" x1="95.77" y1="19.65" x2="95.77" y2="64.81"/><line class="cls-1" x1="95.77" y1="103.26" x2="95.77" y2="79.26"/><path class="cls-1" d="M32.29,20.94,53,30.35a9.2,9.2,0,0,1,5.39,8.38V78.44a4.85,4.85,0,0,1-6.7,4.48L30.48,74.1"/><path class="cls-1" d="M26.38,33.15,23,30.2a2.49,2.49,0,0,0-4.12,1.87V76.35a8.34,8.34,0,0,0,3,6.44l4.47,3.69"/><line class="cls-1" x1="32.29" y1="81.84" x2="58.35" y2="93.71"/><line class="cls-1" x1="18.87" y1="89.32" x2="26.38" y2="95.52"/><path class="cls-1" d="M81.1,48.41,95.58,46A.86.86,0,0,1,96,46l4.23,1a1,1,0,0,1,.74,1V92.17a1,1,0,0,1-1.39.88l-3.5-1.66a.87.87,0,0,0-.57-.08L81.41,93.53a1,1,0,0,1-1.12-1V49.37A1,1,0,0,1,81.1,48.41Z"/><polyline class="cls-1" points="71 34.1 95.77 28.68 100.94 29.58"/><path class="cls-1" d="M71.52,40.81l24.25-4,5.17.9"/><circle class="cls-1" cx="45.05" cy="43.9" r="7.1"/></svg>