<svg id="Layer_2" data-name="Layer 2" xmlns="http://www.w3.org/2000/svg" viewBox="0 0 150 150"><title>Kan mayan symbol - bold</title><path d="M121.68,62.35A35.91,35.91,0,0,0,85.81,26.48H63.88A35.91,35.91,0,0,0,28,62.35V87a35.91,35.91,0,0,0,35.87,35.87H85.81A35.91,35.91,0,0,0,121.68,87ZM63.88,34.48H85.81a27.9,27.9,0,0,1,27.87,27.87V80H84v6.35a9,9,0,0,1-18,0V80H36V62.35A27.9,27.9,0,0,1,63.88,34.48ZM66,100.75a16.81,16.81,0,0,0,5,2.11v12H66Zm13,2.11a16.81,16.81,0,0,0,5-2.11v14.14H79ZM36,88H58v26.26A27.91,27.91,0,0,1,36,88Zm56,26.19V88h21.66A27.91,27.91,0,0,1,92,114.19Z"/><path d="M74.85,75.12A16.69,16.69,0,1,0,58.16,58.43,16.71,16.71,0,0,0,74.85,75.12Zm8.69-16.69A8.69,8.69,0,0,1,79,66.06V50.8A8.7,8.7,0,0,1,83.54,58.43ZM71,50.65V66.21a8.67,8.67,0,0,1,0-15.56Z"/></svg>