<svg id="Layer_2" data-name="Layer 2" xmlns="http://www.w3.org/2000/svg" viewBox="0 0 150 150"><title>Etznab mayan symbol - bold </title><path d="M85.88,26.79H63.94A35.91,35.91,0,0,0,28.08,62.66V87.34a35.91,35.91,0,0,0,35.86,35.87H85.88a35.92,35.92,0,0,0,35.87-35.87V62.66A35.92,35.92,0,0,0,85.88,26.79Zm-21.94,8H85.88A27.83,27.83,0,0,1,108.2,46H94V60H79V71H71V60H56V46H41.62A27.84,27.84,0,0,1,63.94,34.79Zm49.81,27.87V87.34A27.61,27.61,0,0,1,112.36,96H102V82H87V68h15V54h10.36A27.61,27.61,0,0,1,113.75,62.66ZM63,79v3H48V96H37.46a27.89,27.89,0,0,1-1.38-8.66V62.66A27.89,27.89,0,0,1,37.46,54H48V68H63V79Zm22.88,36.21H63.94A27.84,27.84,0,0,1,41.62,104H56V90H71V79h8V90H94v14h14.2A27.83,27.83,0,0,1,85.88,115.21Z"/></svg>