<svg id="Layer_2" data-name="Layer 2" xmlns="http://www.w3.org/2000/svg" viewBox="0 0 150 150"><title>Chuwen mayan symbol - bold </title><path d="M63.73,123.33H85.66a35.91,35.91,0,0,0,35.87-35.87V62.79A35.91,35.91,0,0,0,88,27v-.08H62.48v0A35.91,35.91,0,0,0,27.86,62.79V87.46A35.91,35.91,0,0,0,63.73,123.33Zm4.05-11.45a8.75,8.75,0,0,0,4,3.45H64.19A6.39,6.39,0,0,0,67.78,111.88Zm10.91,3.45a8.8,8.8,0,0,0,4-3.45,6.33,6.33,0,0,0,3.56,3.43l-.55,0Zm34.82-53.47a55.82,55.82,0,0,0-15.17,1.49c4.35-5.05,10.67-6.42,14.49-6.76A28.46,28.46,0,0,1,113.51,61.86ZM80,34.92V45.18H70.48V34.92ZM36.56,56.59c3.82.34,10.13,1.71,14.49,6.76a55.87,55.87,0,0,0-15.17-1.49A27.63,27.63,0,0,1,36.56,56.59Zm-.7,13.26c9.69-.35,16.1,1.87,19.23,3.34a5,5,0,0,0,2.17.49,5.09,5.09,0,0,0,4.82-6.74c-4.08-12-14.35-16.73-22.49-18A27.87,27.87,0,0,1,62.48,35V53.18H88V35A27.88,27.88,0,0,1,109.8,48.89c-8.14,1.32-18.41,6-22.49,18a5.09,5.09,0,0,0,7,6.25c3.13-1.47,9.54-3.68,19.23-3.34V87.46a27.92,27.92,0,0,1-17.12,25.71,4.8,4.8,0,0,0,1-2.89c0-3.19-3.38-5.77-7.54-5.77a8.54,8.54,0,0,0-6,2.25,8.72,8.72,0,0,0-17.41,0,8.54,8.54,0,0,0-6-2.25c-4.17,0-7.54,2.58-7.54,5.77a4.9,4.9,0,0,0,1.54,3.48,27.89,27.89,0,0,1-18.68-26.3Z"/><ellipse cx="75.21" cy="80.51" rx="7.83" ry="13.39"/></svg>