<svg id="Layer_2" data-name="Layer 2" xmlns="http://www.w3.org/2000/svg" viewBox="0 0 150 150"><title>Akbal mayan symbol - bold </title><path d="M86.66,26.92H64.73A35.91,35.91,0,0,0,28.86,62.79V87.46a35.91,35.91,0,0,0,35.87,35.87H86.66a35.91,35.91,0,0,0,35.87-35.87V62.79A35.91,35.91,0,0,0,86.66,26.92Zm27.85,34.94a55.82,55.82,0,0,0-15.17,1.49c4.35-5.05,10.67-6.42,14.49-6.76A28.46,28.46,0,0,1,114.51,61.86Zm-3.71-13c-8.14,1.32-18.41,6-22.49,18a5.09,5.09,0,0,0,7,6.25c3.13-1.47,9.54-3.69,19.23-3.34V87.46a27.75,27.75,0,0,1-1.16,7.93C104.28,93.92,97,89.83,91.61,83.2c-12-14.82-11.79-38.62-11.14-48.28h6.19A27.88,27.88,0,0,1,110.8,48.89Zm-46.07-14H71c.66,9.64.87,33.4-11.12,48.26C54.46,89.83,47.13,93.93,38,95.4a27.77,27.77,0,0,1-1.16-7.94V69.85c9.69-.35,16.1,1.87,19.23,3.34a5,5,0,0,0,2.17.49,5.09,5.09,0,0,0,4.82-6.74c-4.08-12-14.35-16.73-22.49-18A27.88,27.88,0,0,1,64.73,34.92ZM37.56,56.6c3.8.36,10.11,1.74,14.46,6.75a55.63,55.63,0,0,0-15.14-1.49A27.63,27.63,0,0,1,37.56,56.6Zm31.22,55.28a8.75,8.75,0,0,0,4,3.45H65.19A6.39,6.39,0,0,0,68.78,111.88Zm10.91,3.45a8.8,8.8,0,0,0,4-3.45,6.33,6.33,0,0,0,3.56,3.43l-.55,0Zm17.72-2.16a4.8,4.8,0,0,0,1-2.89c0-3.19-3.38-5.77-7.54-5.77a8.54,8.54,0,0,0-6,2.25,8.72,8.72,0,0,0-17.41,0,8.54,8.54,0,0,0-6-2.25c-4.17,0-7.54,2.58-7.54,5.77a4.9,4.9,0,0,0,1.54,3.48,28,28,0,0,1-14-10.87A41.27,41.27,0,0,0,66.06,88.2,55.19,55.19,0,0,0,75.72,69a55,55,0,0,0,9.65,19.2,41.24,41.24,0,0,0,24.49,14.68A28.09,28.09,0,0,1,97.41,113.17Z"/></svg>