<svg id="Layer_2" data-name="Layer 2" xmlns="http://www.w3.org/2000/svg" viewBox="0 0 150 150"><title>Lamat mayan symbol - bold</title><path d="M86.31,26.92H64.38A35.91,35.91,0,0,0,28.51,62.79V87.46a35.91,35.91,0,0,0,35.87,35.87H86.31a35.91,35.91,0,0,0,35.87-35.87V62.79A35.91,35.91,0,0,0,86.31,26.92Zm-21.93,8h6.84c-.79,7.9-5.76,26.76-34.71,32.31V62.79A27.9,27.9,0,0,1,64.38,34.92Zm11,14.18C80,59.17,90.1,70.52,111.81,74.92,90.1,79.31,80,90.66,75.35,100.73,70.67,90.66,60.59,79.31,38.88,74.92,60.59,70.52,70.67,59.17,75.35,49.1ZM36.51,87.46V82.61C66,88.25,70.6,107.69,71.26,115.33H64.38A27.9,27.9,0,0,1,36.51,87.46Zm49.8,27.87H79.43c.66-7.64,5.29-27.08,34.75-32.72v4.85A27.9,27.9,0,0,1,86.31,115.33Zm27.87-48.1C85.23,61.68,80.26,42.82,79.47,34.92h6.84a27.9,27.9,0,0,1,27.87,27.87Z"/><path d="M51.67,59.17a8.84,8.84,0,1,0-8.84-8.84A8.85,8.85,0,0,0,51.67,59.17Zm0-9.67a.83.83,0,0,1,.83.83.84.84,0,0,1-.83.84.85.85,0,0,1-.84-.84A.84.84,0,0,1,51.67,49.5Z"/><path d="M52.67,91.5a8.84,8.84,0,1,0,8.83,8.83A8.85,8.85,0,0,0,52.67,91.5Zm0,9.67a.85.85,0,0,1-.84-.84.84.84,0,0,1,.84-.83.83.83,0,0,1,.83.83A.84.84,0,0,1,52.67,101.17Z"/><path d="M98.67,41.5a8.84,8.84,0,1,0,8.83,8.83A8.85,8.85,0,0,0,98.67,41.5Zm0,9.67a.85.85,0,0,1-.84-.84.84.84,0,0,1,.84-.83.83.83,0,0,1,.83.83A.84.84,0,0,1,98.67,51.17Z"/><path d="M97.67,91.5a8.84,8.84,0,1,0,8.83,8.83A8.85,8.85,0,0,0,97.67,91.5Zm0,9.67a.85.85,0,0,1-.84-.84.84.84,0,0,1,.84-.83.83.83,0,0,1,.83.83A.84.84,0,0,1,97.67,101.17Z"/></svg>