<svg id="Symbols" xmlns="http://www.w3.org/2000/svg" viewBox="0 0 120 120"><defs><style>.cls-1{fill:none;stroke:#211f1f;stroke-linecap:round;stroke-linejoin:round;stroke-width:4px;}</style></defs><path class="cls-1" d="M52.26,27.46V74.22A10.92,10.92,0,0,1,41.33,85.14H37.54a7.39,7.39,0,0,0-7.39,7.4v7.32a7.39,7.39,0,0,0,7.39,7.4H93a14.91,14.91,0,0,0,14.9-14.91V27.46A14.9,14.9,0,0,0,93,12.55H67.17A14.9,14.9,0,0,0,52.26,27.46Z"/><path class="cls-1" d="M41.2,85.14H66.57a7.52,7.52,0,0,1,7.52,7.52v7.07a7.52,7.52,0,0,1-7.52,7.52H41.2A11.06,11.06,0,0,1,30.15,96.2v0A11.06,11.06,0,0,1,41.2,85.14Z" transform="translate(104.24 192.4) rotate(-180)"/><line class="cls-1" x1="30.15" y1="96.2" x2="62.48" y2="96.2"/><path class="cls-1" d="M23.52,12.55H20.16a7.22,7.22,0,0,0-7.22,7.22V100a7.23,7.23,0,0,0,7.22,7.23h4.13"/><path class="cls-1" d="M62.48,29.84H80.81a9.17,9.17,0,0,1-18.33,0Z"/><line class="cls-1" x1="73.84" y1="30.87" x2="73.84" y2="34.37"/><line class="cls-1" x1="18.61" y1="12.55" x2="18.61" y2="105.97"/><path class="cls-1" d="M62.48,29.84h0a6.71,6.71,0,0,1,6.71-6.71h23.1a7.36,7.36,0,0,1,7.36,7.35v57a7.36,7.36,0,0,1-7.36,7.35H90.35v12.39"/><polyline class="cls-1" points="18.61 53.32 25.58 53.32 25.58 66.23 18.61 66.23"/><line class="cls-1" x1="18.61" y1="60" x2="25.58" y2="60"/><circle class="cls-1" cx="24.29" cy="20.29" r="2.84"/><circle class="cls-1" cx="24.29" cy="99.26" r="2.84"/><path class="cls-1" d="M52.12,66.23c2.12-4.77,6.47-7.74,10.77-7.48,7.15.44,9.71,9.52,9.92,10.31C75.21,78.13,67.7,85.6,67.29,86"/><path class="cls-1" d="M63.4,67.22a19.53,19.53,0,0,1,.2,7.69,19.94,19.94,0,0,1-5.25,10.23"/><line class="cls-1" x1="70.23" y1="12.55" x2="70.23" y2="23.13"/><line class="cls-1" x1="77.19" y1="12.55" x2="77.19" y2="23.13"/><line class="cls-1" x1="84.56" y1="12.55" x2="84.56" y2="23.13"/><line class="cls-1" x1="107.9" y1="31.74" x2="99.96" y2="31.74"/><line class="cls-1" x1="107.9" y1="38.71" x2="99.96" y2="38.71"/><line class="cls-1" x1="107.9" y1="46.08" x2="99.96" y2="46.08"/><line class="cls-1" x1="107.9" y1="76.18" x2="99.96" y2="76.18"/><line class="cls-1" x1="107.9" y1="83.15" x2="99.96" y2="83.15"/><line class="cls-1" x1="107.9" y1="90.52" x2="99.96" y2="90.52"/></svg>