<svg id="Symbols" xmlns="http://www.w3.org/2000/svg" viewBox="0 0 120 120"><defs><style>.cls-1{fill:none;stroke:#211f1f;stroke-linecap:round;stroke-linejoin:round;stroke-width:4px;}</style></defs><circle class="cls-1" cx="70.39" cy="60" r="36.77"/><circle class="cls-1" cx="70.39" cy="60" r="14.32"/><rect class="cls-1" x="12.76" y="12.65" width="11.07" height="94.71"/><path class="cls-1" d="M40.32,81.55a10.39,10.39,0,0,0-7.74-4.39c-5.43-.27-8.57,4.13-8.75,4.39V38.45a11.09,11.09,0,0,0,8,3.87,11.15,11.15,0,0,0,8.51-3.87"/><circle class="cls-1" cx="58.26" cy="82.45" r="7.61"/><rect class="cls-1" x="58.26" y="82.45" transform="translate(-41.24 65.34) rotate(-45)"/><circle class="cls-1" cx="46.52" cy="67.23" r="7.61"/><rect class="cls-1" x="46.52" y="67.23" transform="translate(-33.91 52.58) rotate(-45)"/><circle class="cls-1" cx="48.19" cy="47.74" r="7.61"/><rect class="cls-1" x="48.19" y="47.74" transform="translate(-19.64 48.06) rotate(-45)"/><circle class="cls-1" cx="63.42" cy="35.61" r="7.61"/><rect class="cls-1" x="63.42" y="35.61" transform="translate(-6.61 55.27) rotate(-45)"/><circle class="cls-1" cx="82.65" cy="37.55" r="7.61"/><rect class="cls-1" x="82.65" y="37.55" transform="translate(-2.34 69.44) rotate(-45)"/><circle class="cls-1" cx="95.14" cy="53.16" r="7.61"/><rect class="cls-1" x="95.14" y="53.16" transform="translate(-9.72 82.85) rotate(-45)"/><circle class="cls-1" cx="92.32" cy="72.77" r="7.61"/><rect class="cls-1" x="92.32" y="72.77" transform="translate(-24.42 86.6) rotate(-45)"/><circle class="cls-1" cx="77.74" cy="84.39" r="7.61"/><rect class="cls-1" x="77.74" y="84.39" transform="translate(-36.9 79.69) rotate(-45)"/></svg>