<svg id="Symbols" xmlns="http://www.w3.org/2000/svg" viewBox="0 0 120 120"><defs><style>.cls-1{fill:none;stroke:#211f1f;stroke-linecap:round;stroke-linejoin:round;stroke-width:4px;}</style></defs><path class="cls-1" d="M67.24,73.77V92a5.32,5.32,0,0,1-5.31,5.32H25.75A3.27,3.27,0,0,1,22.48,94h0"/><path class="cls-1" d="M26.56,80.31H51.91A21.05,21.05,0,0,0,73,59.26v-22a15.05,15.05,0,0,0-15-15H31.67A19.06,19.06,0,0,0,12.61,41.28V94a3.3,3.3,0,0,0,3.3,3.3h0A7.46,7.46,0,0,0,23.05,92Z"/><line class="cls-1" x1="67.24" y1="90.53" x2="54.57" y2="90.53"/><line class="cls-1" x1="67.24" y1="84.61" x2="54.57" y2="84.61"/><path class="cls-1" d="M29.81,22.31v18A18.06,18.06,0,0,0,47.87,58.38h7A18.07,18.07,0,0,0,73,40.32V35.75"/><path class="cls-1" d="M35.76,22.31V39.53A12.57,12.57,0,0,0,48.33,52.1h6.34A12.57,12.57,0,0,0,67.24,39.53V25.46"/><path class="cls-1" d="M42.79,50.82a50.73,50.73,0,0,1,3.4-18.54,50.07,50.07,0,0,1,5.2-10"/><path class="cls-1" d="M53.67,50.82a35,35,0,0,1,3.4-18.54,34.09,34.09,0,0,1,6.44-9"/><path class="cls-1" d="M93.51,12.48H91.65A15.07,15.07,0,0,0,76.59,27.21,15,15,0,0,1,87.93,41.8a16.28,16.28,0,0,1-5,7,16.51,16.51,0,0,1-9.49,3.63L73,66.87a17.23,17.23,0,0,1,15,11.07A15,15,0,0,1,76.59,92.52a15.07,15.07,0,0,0,15.06,14.74h1.86a15.07,15.07,0,0,0,15.07-15.07V27.55A15.07,15.07,0,0,0,93.51,12.48Z"/><path class="cls-1" d="M82.32,30.09h8.14a7.8,7.8,0,0,1,7.8,7.8V82.41a7.8,7.8,0,0,1-7.8,7.79H81.58"/><line class="cls-1" x1="98.26" y1="42.07" x2="108.58" y2="34.16"/><line class="cls-1" x1="98.26" y1="56.25" x2="108.58" y2="48.33"/><line class="cls-1" x1="98.26" y1="64.8" x2="108.58" y2="56.89"/><line class="cls-1" x1="98.26" y1="81.02" x2="108.58" y2="73.11"/></svg>