<svg id="Symbols" xmlns="http://www.w3.org/2000/svg" viewBox="0 0 120 120"><defs><style>.cls-1{fill:none;stroke:#211f1f;stroke-linecap:round;stroke-linejoin:round;stroke-width:4px;}</style></defs><ellipse class="cls-1" cx="60.42" cy="74.74" rx="41.74" ry="32.65"/><ellipse class="cls-1" cx="60.42" cy="93.58" rx="17.65" ry="13.81"/><line class="cls-1" x1="46.74" y1="43.9" x2="53.52" y2="79.77"/><line class="cls-1" x1="65.58" y1="79.77" x2="74.09" y2="43.9"/><path class="cls-1" d="M60,89.84a9.4,9.4,0,0,1,6.68,7,9.66,9.66,0,0,1-6.26,10.58"/><path class="cls-1" d="M37.78,37c-3.37-7.83-11.21-11.56-16.93-9.69-7.73,2.51-11,15-5.48,21.61,3.09,3.7,8.6,5.11,14.09,4"/><path class="cls-1" d="M26.68,41.06,37,47.72V40.16a7.1,7.1,0,0,1,7.1-7.1h7.35V19.39a7,7,0,0,1,7-7h1.45a7,7,0,0,1,7,7V33.32h6.68a7.09,7.09,0,0,1,7.09,7.1v5.75"/><path class="cls-1" d="M80.61,41.84c.52-8.67,8.11-14.67,15.23-13.68,7.84,1.09,12.36,10.24,10.58,17.55-1.26,5.19-5.67,9.32-11.37,10.8"/><line class="cls-1" x1="85.89" y1="48.88" x2="95.84" y2="40.01"/><path class="cls-1" d="M19.84,82.39a31.09,31.09,0,0,1,6.84-16.81,30.36,30.36,0,0,1,8.77-7.23"/><path class="cls-1" d="M25.2,89.84A31.06,31.06,0,0,1,32,73a30.36,30.36,0,0,1,8.77-7.23"/><path class="cls-1" d="M31.45,96.32a31.45,31.45,0,0,1,6.84-16.81,29.75,29.75,0,0,1,6.45-5.81"/><path class="cls-1" d="M100.32,82.87a31,31,0,0,0-6.84-16.81,30,30,0,0,0-8.77-7.22"/><path class="cls-1" d="M95,90.32a31.06,31.06,0,0,0-6.84-16.81,30.36,30.36,0,0,0-8.77-7.23"/><path class="cls-1" d="M88.71,96.8A31.37,31.37,0,0,0,81.87,80a29.5,29.5,0,0,0-6.44-5.81"/></svg>