<svg id="Symbols" xmlns="http://www.w3.org/2000/svg" viewBox="0 0 120 120"><defs><style>.cls-1{fill:none;stroke:#211f1f;stroke-linecap:round;stroke-linejoin:round;stroke-width:4px;}</style></defs><path class="cls-1" d="M53.43,48.16a16.27,16.27,0,0,1-6.87-7.76C43.18,31.92,48.29,19.94,60,11.77H41.58C21.32,25,10,45.26,13.23,63.07,15.47,75.35,24,84,24,84a39.92,39.92,0,0,0,23,11.51"/><ellipse class="cls-1" cx="53.43" cy="74.66" rx="21.83" ry="14.06" transform="translate(-33.59 103.94) rotate(-73.01)"/><path class="cls-1" d="M15.5,70.66c-5.43,16.39,5.11,33.14,19.66,35.83s30.18-9,31.17-26.1"/><path class="cls-1" d="M47,26.73a112.12,112.12,0,0,1,45.86,10.7,3.5,3.5,0,0,1,1.74,4.47l-2.91,7.35c-1.57,2.6-4.32,3.14-5.43,2.27s-1.16-2.9,0-4.91"/><path class="cls-1" d="M93.2,45.38l6.91,2A4.16,4.16,0,0,1,102.8,53L96.55,68.29"/><path class="cls-1" d="M103.11,54.87a5.75,5.75,0,0,1,4.54.26,5.22,5.22,0,0,1,1.84,1.7q-.52,16-1.07,31.94c-2.81,7-8.63,12.07-15,12.55C84.23,102,74.11,93,73.84,79.9c.77-3.08,1.55-6.16,2.32-9.24a4.59,4.59,0,0,0-3.35-2.37,4.53,4.53,0,0,0-4.58,3.32"/><path class="cls-1" d="M65.81,84.39c-.14,2.33-.48,12.39,6.74,19.51A21.4,21.4,0,0,0,78.48,108h29.68V88.77"/><line class="cls-1" x1="37.7" y1="106.81" x2="78.48" y2="108.03"/><path class="cls-1" d="M51.25,46.6c2.21-3.9,5.91-5.76,8.75-4.89a5.93,5.93,0,0,1,3.26,2.84c1.56,2.83.87,6.75-1.72,10"/><path class="cls-1" d="M48.81,11.77C38,22.25,34.16,36.28,39,46.61a23.91,23.91,0,0,0,9.62,10.22"/><path class="cls-1" d="M35.43,16.21c-9.19,10.83-12,24.92-7,36.34a31.56,31.56,0,0,0,13,14.22"/><path class="cls-1" d="M16.75,39.32C16.6,43.54,16.36,62.45,30,74.23a34.7,34.7,0,0,0,8.57,5.42"/><path class="cls-1" d="M63.26,44.55,78.48,36a6.63,6.63,0,0,1-11.31,6.33"/></svg>