<svg id="Symbols" xmlns="http://www.w3.org/2000/svg" viewBox="0 0 120 120"><defs><style>.cls-1{fill:none;stroke:#211f1f;stroke-linecap:round;stroke-linejoin:round;stroke-width:4px;}</style></defs><rect class="cls-1" x="12.16" y="69.19" width="95.1" height="38.32"/><polyline class="cls-1" points="107.26 69.19 107.26 63 101.84 63"/><path class="cls-1" d="M101.84,63V56.81H96.42"/><polyline class="cls-1" points="96.42 55.77 96.42 49.58 91 49.58"/><path class="cls-1" d="M91,49.58V43.39H85.58"/><polyline class="cls-1" points="85.58 43.39 85.58 37.19 80.16 37.19"/><path class="cls-1" d="M80.16,37.19V31H74.74"/><path class="cls-1" d="M12.16,69.19V49.84H17V43.42h5.42"/><polyline class="cls-1" points="22.39 42.39 22.39 36.2 27.81 36.2"/><path class="cls-1" d="M27.81,36.2V30h5.42"/><polyline class="cls-1" points="38.65 23.81 33.23 23.81 33.23 30"/><polyline class="cls-1" points="74.74 29.97 74.74 23.77 69.32 23.77 69.32 13.45 40.42 13.45 40.42 23.81 69.32 23.77"/><line class="cls-1" x1="12.16" y1="76.68" x2="51.13" y2="76.68"/><line class="cls-1" x1="107.26" y1="84.94" x2="91" y2="84.94"/><line class="cls-1" x1="44.68" y1="92.42" x2="67.39" y2="92.42"/><line class="cls-1" x1="70.48" y1="100.68" x2="85.58" y2="100.68"/><polyline class="cls-1" points="51.13 13.45 51.13 23.81 44.68 23.81 44.68 31 38.65 31 38.65 37.19 33.23 37.19 33.23 44.94 27.81 44.94 27.81 50.61 22.39 50.61 22.39 56.81 17.27 56.81 17.27 63 12.16 63"/><line class="cls-1" x1="56.03" y1="23.79" x2="62.48" y2="67.65"/><line class="cls-1" x1="65.06" y1="23.81" x2="88.29" y2="69.19"/></svg>