<svg id="Symbols" xmlns="http://www.w3.org/2000/svg" viewBox="0 0 120 120"><defs><style>.cls-1{fill:none;stroke:#211f1f;stroke-linecap:round;stroke-linejoin:round;stroke-width:4px;}</style></defs><rect class="cls-1" x="24.32" y="12" width="33.81" height="18.06" rx="7.87"/><path class="cls-1" d="M17.1,64V41.42A11.36,11.36,0,0,1,28.45,30.06h46A10.61,10.61,0,0,1,85,40.67v2.56L36.71,46.58"/><path class="cls-1" d="M41.23,46.27C42,53.53,47.4,59.18,53.74,60c7.76,1,15.8-5.35,16.51-14.52"/><path class="cls-1" d="M55.74,45.26a9.36,9.36,0,0,1-.19,9.84,9.23,9.23,0,0,1-5.82,3.68"/><path class="cls-1" d="M82.37,33.67c1.06.18,8.17,1.29,13.95-3.61A17.44,17.44,0,0,0,101.48,12c6.53,8.56,6.12,19.76.07,26.13S86.06,43.38,85,43.23a6.4,6.4,0,0,1,6.4,6.4V72.9c1.27,3.3,3.23,4,3.61,4.13,3.23,1,8.2-1.94,10.58-8.26A13,13,0,0,1,104.06,84c-5.2,5.51-13.14,3.09-13.47,3-7.28-2.36-9.14-9.82-9.24-10.22-.25-3.26-.51-6.53-.77-9.79A8.43,8.43,0,0,0,72.3,60.1c-4.75,0-16.08-.49-31.07,0a57.45,57.45,0,0,1,.12,18.48A57.14,57.14,0,0,1,37,93.29,37.87,37.87,0,0,0,53.74,60"/><path class="cls-1" d="M48.52,45.76a5.31,5.31,0,0,1,.58,6.5,5.55,5.55,0,0,1-4.7,2.1"/><path class="cls-1" d="M54.1,62.32,57,73.16A17.22,17.22,0,0,0,60.45,69,17.85,17.85,0,0,0,62.9,60q1.35,6.6,2.71,13.21A11.59,11.59,0,0,0,70,69.81a12.64,12.64,0,0,0,2.3-9.71q.78,6.41,1.57,12.8A8.43,8.43,0,0,0,79.38,64"/><path class="cls-1" d="M39.66,91.31a18.7,18.7,0,0,1,10.07-2.15c5.7.51,6.81,3.7,12.27,4.13s7-2.63,13.16-3.1a23.1,23.1,0,0,1,12.9,3.1,3,3,0,1,1,0,5.94c-6.07-3.08-10.79-3.37-13.93-3.1-6,.51-7.15,3.16-12.39,2.58s-6.75-3.51-12-3.48a15.87,15.87,0,0,0-7.53,2,4.36,4.36,0,0,1-3.94-.89A4.22,4.22,0,0,1,37,93.29"/><path class="cls-1" d="M88.06,99.23V101a7.23,7.23,0,0,1-7.22,7.23H20.19"/><rect class="cls-1" x="12.76" y="86.1" width="22.14" height="22.14" rx="6.01"/><rect class="cls-1" x="19.72" y="93.05" width="8.23" height="8.23" rx="3.44"/><rect class="cls-1" x="12.76" y="63.95" width="22.14" height="22.14" rx="6.01"/><rect class="cls-1" x="19.72" y="70.91" width="8.23" height="8.23" rx="3.44"/></svg>