<svg id="Symbols" xmlns="http://www.w3.org/2000/svg" viewBox="0 0 120 120"><defs><style>.cls-1{fill:none;stroke:#211f1f;stroke-linecap:round;stroke-linejoin:round;stroke-width:4px;}</style></defs><rect class="cls-1" x="23.26" y="12.16" width="73.81" height="95.74" rx="24.52"/><rect class="cls-1" x="35.65" y="68.42" width="49.03" height="39.48" rx="14.71"/><rect class="cls-1" x="41.73" y="74.87" width="36.85" height="26.58" rx="11.99"/><path class="cls-1" d="M51.9,12.16c-3.67,3.89-7.43,9.23-6.45,14.71,1.07,6,6.95,7.28,7.23,12.9.3,6.13-6.51,8.19-7.23,15-.53,5,2.54,9.71,6.45,13.68"/><circle class="cls-1" cx="34.35" cy="57.32" r="5.16"/><circle class="cls-1" cx="52.69" cy="28.94" r="4.65"/><circle class="cls-1" cx="71.53" cy="40.29" r="4.65"/><circle class="cls-1" cx="76.17" cy="16.81" r="4.65"/><circle class="cls-1" cx="90.62" cy="31" r="4.65"/><circle class="cls-1" cx="57.33" cy="57.32" r="4.65"/><circle class="cls-1" cx="84.68" cy="58.87" r="4.65"/><ellipse class="cls-1" cx="60.26" cy="88.16" rx="8.94" ry="6.19"/><circle class="cls-1" cx="71.53" cy="57.32" r="0.9"/><circle class="cls-1" cx="89.32" cy="44.94" r="1.3"/><circle class="cls-1" cx="76.17" cy="28.94" r="1.03"/><circle class="cls-1" cx="63.52" cy="21.45" r="0.9"/></svg>