<svg id="Symbols" xmlns="http://www.w3.org/2000/svg" viewBox="0 0 120 120"><defs><style>.cls-1{fill:none;stroke:#211f1f;stroke-linecap:round;stroke-linejoin:round;stroke-width:4px;}</style></defs><path class="cls-1" d="M58.88,53.81H27.33A10.12,10.12,0,0,1,17.21,43.69V22.89A10.14,10.14,0,0,1,27.33,12.77h6.56a3.65,3.65,0,0,1,3.37,2.88,3.68,3.68,0,0,1-3.1,4.12L28,20.55a4.1,4.1,0,0,0-3.36,2.58C24,25,25.35,27.55,28,28.29H60A4.44,4.44,0,0,0,60,20l-8,.26a4,4,0,0,1-2.58-3.61,4,4,0,0,1,3.35-3.91,28.05,28.05,0,0,1,6.14,0,10.78,10.78,0,0,1,7.16,3,10.5,10.5,0,0,1,2.51,4.14,10.29,10.29,0,0,1,.45,3v20.8A10.12,10.12,0,0,1,58.88,53.81Z"/><rect class="cls-1" x="17.21" y="33.57" width="23.6" height="20.24" rx="10.12"/><rect class="cls-1" x="12.94" y="53.81" width="60.35" height="53.42" rx="10.12"/><rect class="cls-1" x="20.64" y="61.81" width="44.94" height="37.42" rx="6.47"/><path class="cls-1" d="M107.9,107.23H82.59a9.31,9.31,0,0,1-9.31-9.32v-.73a9.31,9.31,0,0,1,9.31-9.31h0a10.6,10.6,0,0,0,10.6-10.6V27.48A14.72,14.72,0,0,1,107.9,12.77h0"/><line class="cls-1" x1="103.93" y1="20.52" x2="107.9" y2="20.52"/><line class="cls-1" x1="103.93" y1="28" x2="107.9" y2="28"/><line class="cls-1" x1="46.74" y1="62.4" x2="46.74" y2="66.37"/><line class="cls-1" x1="39.26" y1="62.4" x2="39.26" y2="66.37"/><line class="cls-1" x1="46.74" y1="95.26" x2="46.74" y2="99.23"/><line class="cls-1" x1="39.26" y1="95.26" x2="39.26" y2="99.23"/><line class="cls-1" x1="64.61" y1="85.29" x2="60.64" y2="85.29"/><line class="cls-1" x1="64.61" y1="77.81" x2="60.64" y2="77.81"/><line class="cls-1" x1="24.61" y1="85.29" x2="20.64" y2="85.29"/><line class="cls-1" x1="24.61" y1="77.81" x2="20.64" y2="77.81"/><line class="cls-1" x1="103.93" y1="36.44" x2="107.9" y2="36.44"/><line class="cls-1" x1="103.93" y1="43.92" x2="107.9" y2="43.92"/><line class="cls-1" x1="103.93" y1="51.4" x2="107.9" y2="51.4"/><line class="cls-1" x1="103.93" y1="58.89" x2="107.9" y2="58.89"/><line class="cls-1" x1="103.93" y1="67.32" x2="107.9" y2="67.32"/><line class="cls-1" x1="103.93" y1="74.81" x2="107.9" y2="74.81"/><line class="cls-1" x1="103.93" y1="82.29" x2="107.9" y2="82.29"/><line class="cls-1" x1="103.93" y1="89.77" x2="107.9" y2="89.77"/><line class="cls-1" x1="103.93" y1="98.21" x2="107.9" y2="98.21"/><circle class="cls-1" cx="43" cy="80.52" r="3.74"/><circle class="cls-1" cx="29.01" cy="43.69" r="3.81"/><path class="cls-1" d="M69,24.68a16.08,16.08,0,0,1-4.65,9A16.66,16.66,0,0,1,52,38.1"/><path class="cls-1" d="M69,31.4a16.07,16.07,0,0,1-4.65,9A16.59,16.59,0,0,1,52,44.82"/></svg>