<svg id="Symbols" xmlns="http://www.w3.org/2000/svg" viewBox="0 0 120 120"><defs><style>.cls-1{fill:none;stroke:#211f1f;stroke-linecap:round;stroke-linejoin:round;stroke-width:4px;}</style></defs><path class="cls-1" d="M22.48,42.61,12.8,53.19v50.9a4.07,4.07,0,0,0,4.07,4.07H65.71a7.61,7.61,0,0,0,7.61-7.61V94.23"/><path class="cls-1" d="M82,12.68H99.58a8.65,8.65,0,0,1,8.65,8.65v77a9.84,9.84,0,0,1-9.84,9.84H83.16a9.84,9.84,0,0,1-9.84-9.84v-77A8.65,8.65,0,0,1,82,12.68Z"/><path class="cls-1" d="M82,12.68H40.16A22.32,22.32,0,0,0,17.84,35v3.74a3.87,3.87,0,0,0,3.87,3.87H73.32"/><rect class="cls-1" x="83.39" y="12.68" width="15.74" height="18.84" rx="7.1"/><path class="cls-1" d="M73.32,31.52V40a8.29,8.29,0,0,0,8.29,8.29H99.93A8.29,8.29,0,0,0,108.22,40V31.52"/><path class="cls-1" d="M73.32,61.71V70.2a8.29,8.29,0,0,0,8.29,8.28H99.93a8.29,8.29,0,0,0,8.29-8.28V61.71"/><path class="cls-1" d="M83.39,78.48V84A6.58,6.58,0,0,0,90,90.55h2.58A6.59,6.59,0,0,0,99.13,84V78.48"/><path class="cls-1" d="M83.39,48.85v5.48A6.57,6.57,0,0,0,90,60.91h2.58a6.58,6.58,0,0,0,6.58-6.58V48.85"/><path class="cls-1" d="M51.13,108.16l3.55-5.11a7.14,7.14,0,0,0,.41-7.46,12.84,12.84,0,0,1-1.38-3.94,13.71,13.71,0,0,1,2.23-9.92,4.46,4.46,0,0,0-4-6.34h0a4.46,4.46,0,0,0-3.32,1.47l-6.06,6.72a13.54,13.54,0,0,1-10,4.45H12.8"/><path class="cls-1" d="M12.8,78.48H25.54a8.77,8.77,0,0,1,5,1.67,5.23,5.23,0,0,0,3.33.91A5.55,5.55,0,0,0,38,78.48c.62-.6,5.73-5.41,12.13-4.13a11.91,11.91,0,0,1,4.77,2.18"/><line class="cls-1" x1="22.48" y1="79.15" x2="22.48" y2="86.48"/><line class="cls-1" x1="33.06" y1="81.06" x2="33.06" y2="86.48"/><path class="cls-1" d="M12.8,71.26H26.69A7.92,7.92,0,0,1,31.61,73h0a2.19,2.19,0,0,0,2.77,0,23.27,23.27,0,0,1,12.88-5.57c9.69-.86,19.46,5,24.77,15"/><path class="cls-1" d="M28.43,71.46V63.77l1.83-4.18a3.36,3.36,0,0,0-.88-3.89h0A3.37,3.37,0,0,0,24,57.18l0,.17a6.39,6.39,0,0,1-6.05,4.36H12.8"/><path class="cls-1" d="M12.8,53.19h7a4.16,4.16,0,0,1,4.16,4.16h0"/><line class="cls-1" x1="26.87" y1="42.61" x2="26.87" y2="33.32"/><path class="cls-1" d="M31.13,44.11v4.34c0,3.55,3.29,6.43,7.35,6.43h5.81c4.06,0,7.36-2.88,7.36-6.43V42.61"/><line class="cls-1" x1="91.17" y1="63.17" x2="91.17" y2="70.1"/><path class="cls-1" d="M30.26,59.59H46.42a9.94,9.94,0,0,0,9.94-9.94V48.29"/><line class="cls-1" x1="81.97" y1="106.87" x2="81.97" y2="100.42"/><line class="cls-1" x1="90.77" y1="106.87" x2="90.77" y2="100.42"/><line class="cls-1" x1="99.67" y1="106.87" x2="99.67" y2="100.42"/><line class="cls-1" x1="81.97" y1="46.35" x2="81.97" y2="39.9"/><line class="cls-1" x1="90.77" y1="46.35" x2="90.77" y2="39.9"/><line class="cls-1" x1="99.67" y1="46.35" x2="99.67" y2="39.9"/></svg>