<svg id="Symbols" xmlns="http://www.w3.org/2000/svg" viewBox="0 0 120 120"><defs><style>.cls-1{fill:none;stroke:#211f1f;stroke-linecap:round;stroke-linejoin:round;stroke-width:4px;}</style></defs><path class="cls-1" d="M48.26,84.55A33.14,33.14,0,0,1,39.77,98a34.45,34.45,0,0,1-21,9,6.14,6.14,0,0,1-6.7-6.1V45.06c.05-1.83.48-10.14,7-15.74a19.14,19.14,0,0,1,6.45-3.61"/><line class="cls-1" x1="12.11" y1="78.87" x2="24.03" y2="78.87"/><path class="cls-1" d="M37.21,47.49V75.91a6.05,6.05,0,0,0,6,6.06H54l17.55,18.32L79,92.55,61.82,74.23a58.2,58.2,0,0,1,11.78-33c.34-.84,1.41-3.8,0-6.25a6.94,6.94,0,0,0-4.13-2.83,34.06,34.06,0,0,0-25,1.54c-.28.19-.57.41-.89.65A16.56,16.56,0,0,0,37.21,47.49Z"/><polyline class="cls-1" points="37.21 65.37 45.45 65.37 46.74 60"/><path class="cls-1" d="M19.39,44.81c-.48,2.23-2.1,11,3.09,19.35a24.84,24.84,0,0,0,7.71,7.74"/><line class="cls-1" x1="19.22" y1="55.63" x2="27.39" y2="55.63"/><path class="cls-1" d="M38.22,41.71,24.48,18.48,36.6,12.54,48.26,32.17"/><polyline class="cls-1" points="37.21 14.61 43.39 12.54 82.22 12.54"/><path class="cls-1" d="M66.34,30.46V26.61A14.07,14.07,0,0,1,80.41,12.54h1.81A14.07,14.07,0,0,1,96.29,26.61V34H90.1V28.68A8.13,8.13,0,0,0,82,20.55h0a8.13,8.13,0,0,0-8.13,8.13V35"/><polyline class="cls-1" points="43.76 93.38 53.45 101.32 62.94 91.33"/><polyline class="cls-1" points="41.97 95.65 30.18 108.03 40.55 108.03 49.59 98.16"/><path class="cls-1" d="M73.6,41.25a33.93,33.93,0,0,0,10.3,7.94,36.11,36.11,0,0,0,24,2.58V69.58a41.66,41.66,0,0,0-26.32,4.9,39.62,39.62,0,0,0-10.82,9.28"/><path class="cls-1" d="M79,76.12a36.54,36.54,0,0,1,14.71,4A37,37,0,0,1,107.9,93.32V108H40.55"/></svg>