<svg xmlns="http://www.w3.org/2000/svg" viewBox="0 0 150 150"><title>bowenknot-bold</title><g id="Bowen_Knot" data-name="Bowen Knot"><g id="Bold"><path d="M89.16,77.16V71.23h0v-11h0V52.7a8,8,0,1,1,13.62,5.83,8.05,8.05,0,0,1-5.41,2.35H93.14v8h4.33l0,0a15.63,15.63,0,0,0,5.91-1.28,16,16,0,0,0,5-26,15.89,15.89,0,0,0-11.3-4.68,16,16,0,0,0-16,15.7V77.16Z"/><path d="M41.58,64.19a15.92,15.92,0,0,0,10.91,4.67h8.38l8,0h8.28v-8H68.85v0H52.54a8,8,0,1,1,8.31-8.26v4.26h8V52.53a15.86,15.86,0,0,0-4.67-11,15.78,15.78,0,0,0-11.3-4.68,16,16,0,0,0-11.3,27.29Z"/><path d="M97.4,81.16H72.88v8h7v0h11v0h6.57a7.8,7.8,0,0,1,5.31,2.32,8,8,0,1,1-13.61,6.12V93.14h-8v4.39a15.92,15.92,0,0,0,4.69,10.91A16,16,0,1,0,97.4,81.16Z"/><path d="M60.87,72.9v7.43h0v11h0v6a8,8,0,1,1-13.64-5.87,7.87,7.87,0,0,1,5.37-2.33h4.28v-8H52.52A16,16,0,1,0,68.87,97.53V72.9Z"/></g></g></svg>