<svg xmlns="http://www.w3.org/2000/svg" viewBox="0 0 150 150"><title>brigidscross-bold</title><g id="Brigid_s_cross" data-name="Brigid&apos;s cross"><path d="M126.41,61.89,90,60.43V62.9l-6.48,6.48-.85-.84L81.4,67.32l-.75-.75L87.22,60H79L77.54,23.59H61.89L60.43,60h2.38l6.52,6.52-.77.78-1.22,1.22-.83.83L60,62.88V71L23.59,72.46V88.11L60,89.57v-2.4l6.47-6.47.83.83,1.12,1.12.87.88L62.87,90H71l1.45,36.41H88.11L89.57,90H87.08l-6.43-6.43.87-.88,1.13-1.13.83-.82L90,87.22V79l36.41-1.45ZM52,81.25l-20.45-.82v-.28L52,79.33ZM69.57,31.59h.28L70.67,52H68.75ZM77,74.22v1.65L75.87,77H74.12L73,75.88V74.22L74.22,73h1.55Zm3.43,44.19h-.28L79.33,98h1.92Zm38-48.56L98,70.67V68.75l20.45.82Z"/></g></svg>