<svg xmlns="http://www.w3.org/2000/svg" viewBox="0 0 150 150"><title>celticcross-bold</title><g id="The_Celtic_Cross" data-name="The Celtic Cross"><path d="M112.67,47.52,99,48.62A26.61,26.61,0,0,0,86.25,35.86l1.08-13.55H62.67l1.08,13.55A26.61,26.61,0,0,0,51,48.62l-13.67-1.1V72.19L51,71.09A26.46,26.46,0,0,0,64.41,84.15l-1.56,43.54h24.3L85.59,84.15A26.46,26.46,0,0,0,99,71.09l13.67,1.1Zm-22.46,1.8-3.61.29a15.4,15.4,0,0,0-1.34-1.34l.29-3.61A18.76,18.76,0,0,1,90.21,49.32Zm-11.48,6.8v1.67H77.07V56.12ZM77.07,52V50.68A3.1,3.1,0,0,1,78.37,52Zm1.66,9.94v1.66H77.07V61.93Zm-.36,5.79A3.1,3.1,0,0,1,77.07,69V67.72Zm5.8-5.79a3.08,3.08,0,0,1-1.31,1.29V61.93Zm-1.31-4.14v-1.3a3.18,3.18,0,0,1,1.32,1.3ZM78.67,30.31,77.53,44.58a14.66,14.66,0,0,0-5.06,0L71.33,30.31ZM65.82,57.79a3.18,3.18,0,0,1,1.32-1.3v1.3Zm1.32,4.14v1.29a3.08,3.08,0,0,1-1.31-1.29Zm4.49,5.79h1.3V69A3.16,3.16,0,0,1,71.63,67.72Zm-.36-4.13V61.93h1.66v1.66Zm0-5.8V56.12h1.66v1.67Zm.36-5.8a3.16,3.16,0,0,1,1.3-1.31V52Zm-7.18-7.33.29,3.61a15.4,15.4,0,0,0-1.34,1.34l-3.61-.29A18.76,18.76,0,0,1,64.45,44.66ZM45.33,56.19l14.39,1.15a14.49,14.49,0,0,0,0,5L45.33,63.52Zm14.46,14.2,3.61-.29a14.28,14.28,0,0,0,1.46,1.45l-.13,3.7A18.42,18.42,0,0,1,59.79,70.39Zm11.36,49.3,1.58-44.51a14.4,14.4,0,0,0,4.54,0l1.58,44.51ZM85.27,75.25l-.13-3.7A14.28,14.28,0,0,0,86.6,70.1l3.61.29A18.42,18.42,0,0,1,85.27,75.25Zm19.4-11.73L90.28,62.37a14.49,14.49,0,0,0,0-5l14.39-1.15Z"/></g></svg>