<svg xmlns="http://www.w3.org/2000/svg" viewBox="0 0 150 150"><defs><style>.cls-1{fill:none;}.cls-2{fill:#231f20;}</style></defs><title>cernunnos-bold</title><g id="Cernunnos"><circle class="cls-1" cx="110.77" cy="37.37" r="0.93"/><path d="M30,39.34a49.61,49.61,0,0,1-4.51-13.59,51.41,51.41,0,0,0-.77,8.83,49.32,49.32,0,0,0,.34,5.86A21.18,21.18,0,0,1,30,39.34Z"/><path d="M98.19,69.58l-.3-.3A21.57,21.57,0,0,1,95,65.54l-.06-.1A14.64,14.64,0,0,1,94,63.33a46.37,46.37,0,0,1-5.57,1.93C84.61,61.45,80,59.2,74.92,59.2a19.06,19.06,0,0,0-13.5,6.06h0A48.71,48.71,0,0,1,54,62.54c-.6-.28-1.2-.57-1.78-.87a135.56,135.56,0,0,1-12.94-8.52,14.75,14.75,0,0,0-3.39-2,10.18,10.18,0,0,0-3.63-.65,10.42,10.42,0,0,0-4.36.94l-.19.1h0A49.86,49.86,0,0,0,38.84,69.44c.44.46.88.9,1.33,1.33A49,49,0,0,0,46,75.55c.51.36,1,.72,1.57,1.07a50,50,0,0,0,5.76,3.24h0a43.7,43.7,0,0,0-1.6,11.87c0,18,10.39,32.52,23.23,32.52s23.23-14.56,23.23-32.52a43.7,43.7,0,0,0-1.61-11.87,49.44,49.44,0,0,0,8.93-5.49A21.84,21.84,0,0,1,98.19,69.58ZM68,71.91a11.58,11.58,0,0,1,7,2.15,11.54,11.54,0,0,1,7-2.15,11.94,11.94,0,0,1,6.46,1.77L86.17,77a8.05,8.05,0,0,0-4.28-1.12,7.06,7.06,0,0,0-5,1.68v22.66h-4V77.59a7.09,7.09,0,0,0-5-1.68A8,8,0,0,0,63.67,77l-2.2-3.34A11.89,11.89,0,0,1,68,71.91ZM60.82,84.29c0-1.54,2.08-2.79,4.65-2.79s4.64,1.25,4.64,2.79S68,87.08,65.47,87.08,60.82,85.83,60.82,84.29ZM75,113c-4.69,0-9.73-1.59-9.73-5.09s5-5.09,9.73-5.09,9.73,1.59,9.73,5.09S79.69,113,75,113Zm9.36-25.88c-2.56,0-4.64-1.25-4.64-2.79s2.08-2.79,4.64-2.79S89,82.75,89,84.29,86.93,87.08,84.36,87.08Z"/><path d="M69.57,107.87A11.43,11.43,0,0,0,75,109a11.43,11.43,0,0,0,5.43-1.09A11.56,11.56,0,0,0,75,106.78,11.56,11.56,0,0,0,69.57,107.87Z"/><path class="cls-2" d="M125.08,35.55c0-.32,0-.65,0-1a51.41,51.41,0,0,0-.77-8.83A50.75,50.75,0,0,1,122.11,34l.08,0A22,22,0,0,1,125.08,35.55Z"/><path d="M125,37.73a18.85,18.85,0,0,0-3.54-2,19.7,19.7,0,0,0-7.88-1.63h-.24l-.82,0-.82.07h-.22c-3.73.52-6.51,2.72-6.33,5.12.11,1.46,1.3,2.69,3.06,3.42a10.76,10.76,0,0,0,4.7.65,10.52,10.52,0,0,0,4.43-1.29c.28.09.55.19.82.3a12.54,12.54,0,0,1-4.58,24.22h0a12.52,12.52,0,0,1-9-3.89,6.49,6.49,0,0,1-2-4.3A5.59,5.59,0,0,1,106.82,53c.49-.43,1-.87,1.45-1.33A48.64,48.64,0,0,0,113,46.43a13,13,0,0,0-9.12-.31h0A13,13,0,0,0,95,58.45a13.16,13.16,0,0,0,.67,4.14,14.44,14.44,0,0,0,.85,2,20.65,20.65,0,0,0,2.84,3.6s0,0,0,0a20,20,0,0,0,14.12,5.86A20,20,0,0,0,125,37.73Zm-14.21.56a.93.93,0,1,1,.93-.92A.93.93,0,0,1,110.77,38.29Z"/><path d="M107.9,54.74q-1.66,1.45-3.45,2.74a2.88,2.88,0,0,0-.13,1,6,6,0,0,0,1.51,3,10.6,10.6,0,0,0,7.69,3.32,12.85,12.85,0,0,0,1.54-.1,50.18,50.18,0,0,0,5.59-9.43A47.38,47.38,0,0,0,123,49.06a8.33,8.33,0,0,0-.83-1.32,10.64,10.64,0,0,0-4.68-3.59h0a4.93,4.93,0,0,1-.53.22c-.32.5-.65,1-1,1.48s-.72,1-1.1,1.5a50.49,50.49,0,0,1-5.16,5.77C109.09,53.67,108.5,54.21,107.9,54.74Z"/><path d="M38.5,71.93a12.41,12.41,0,0,1-6.25,1.68,12.54,12.54,0,0,1-5.2-24,12.52,12.52,0,0,1,9.52-.36,12.54,12.54,0,0,1,3.77,2.22c.07,0,8.64,6,11.8,7.85A20,20,0,0,0,32.25,41.08c-.44,0-.87,0-1.3.05a19.42,19.42,0,0,0-5.61,1.19A20,20,0,0,0,32.25,81,19.77,19.77,0,0,0,44.4,76.88a50.6,50.6,0,0,1-5.62-4.67C38.69,72.12,38.6,72,38.5,71.93Z"/></g></svg>