<svg xmlns="http://www.w3.org/2000/svg" viewBox="0 0 150 150"><title>doublespiral-bold</title><g id="Double_Spiral" data-name="Double Spiral"><path d="M115.83,63.28a18.94,18.94,0,0,0-11.9-8.48,16.07,16.07,0,0,0-19.28,12,13.52,13.52,0,0,0,0,6,13.71,13.71,0,0,0,10.27,10.4A11.74,11.74,0,0,0,109,74.43a10.05,10.05,0,0,0,.25-2.61l-8,.31a1.73,1.73,0,0,1,0,.5A3.72,3.72,0,0,1,99.51,75a3.77,3.77,0,0,1-2.82.47,5.7,5.7,0,0,1-4.26-4.32,5.57,5.57,0,0,1,0-2.47,8.08,8.08,0,0,1,9.68-6,11.09,11.09,0,0,1,8.31,13.3A14.86,14.86,0,0,1,92.57,87c-.38-.08-.75-.19-1.12-.3s-.74-.24-1.09-.38-.72-.3-1.07-.46-.69-.34-1-.53-.67-.38-1-.59-.65-.43-1-.66-.63-.48-.93-.73-.6-.52-.89-.79-.57-.55-.84-.84-.55-.59-.8-.9-.52-.62-.76-.94-.48-.66-.71-1-.44-.69-.65-1-.42-.71-.61-1.08-.37-.73-.54-1.1l-.16-.35c-.1-.23-.2-.46-.27-.64l0-.09c-.06-.14-.11-.28-.16-.42l-.21-.57L78.53,73h0c-.3-.83-.62-1.53-.92-2.18s-.56-1.16-.87-1.73-.64-1.13-1-1.67-.71-1.09-1.09-1.62-.78-1-1.19-1.54-.84-1-1.29-1.46A26.38,26.38,0,0,0,61,55.67c-.54-.18-1.12-.33-1.83-.5A22.87,22.87,0,0,0,31.76,72.3,19.08,19.08,0,0,0,46.07,95.2a16,16,0,0,0,19.28-12,13.52,13.52,0,0,0,0-6,13.71,13.71,0,0,0-10.27-10.4A11.74,11.74,0,0,0,41,75.57a10.05,10.05,0,0,0-.25,2.61l8-.31a1.73,1.73,0,0,1,.05-.5A3.72,3.72,0,0,1,50.49,75a3.77,3.77,0,0,1,2.82-.47,5.7,5.7,0,0,1,4.26,4.32,5.57,5.57,0,0,1,0,2.47,8.08,8.08,0,0,1-9.68,6,11.09,11.09,0,0,1-8.31-13.3A14.87,14.87,0,0,1,57.36,63c.41.1.81.2,1.23.33a18.43,18.43,0,0,1,7.78,5c.32.35.64.7.94,1.07s.6.74.87,1.13.55.78.81,1.19.49.82.72,1.24.45.85.65,1.28A15.63,15.63,0,0,1,71,75.67h0l.28.76.16.46.25.66c.14.34.27.68.42,1l.21.46c.23.5.47,1,.73,1.49s.53,1,.81,1.44.58,1,.89,1.4.63.92,1,1.36.68.87,1,1.29.73.84,1.11,1.24.77.79,1.17,1.17.82.75,1.24,1.1.87.7,1.32,1,.91.65,1.37.95,1,.59,1.45.86,1,.53,1.5.77,1,.46,1.56.67,1.08.4,1.62.57,1.11.32,1.6.43l.15,0a22.65,22.65,0,0,0,5.14.59A22.91,22.91,0,0,0,118.24,77.7,19,19,0,0,0,115.83,63.28Z"/></g></svg>