<svg id="Druid_Sigil" data-name="Druid Sigil" xmlns="http://www.w3.org/2000/svg" viewBox="0 0 150 150"><title>druidsigil-bold</title><g id="Bold"><path d="M119,75a44,44,0,0,1-23,38.66v-9.44a36,36,0,0,0,0-58.44c-.65-.47-1.31-.91-2-1.34s-1.32-.8-2-1.16a35.41,35.41,0,0,0-4-1.85c-.66-.25-1.32-.49-2-.71s-1.32-.4-2-.57a35.79,35.79,0,0,0-18,0V31.93a44,44,0,0,1,18,0c.67.14,1.34.29,2,.47s1.34.36,2,.56a42.38,42.38,0,0,1,4,1.46c.68.28,1.34.58,2,.9s1.34.66,2,1A44,44,0,0,1,119,75Z"/><path d="M84,109.85v8.22a44,44,0,0,1-18,0c-.67-.14-1.34-.29-2-.47s-1.34-.36-2-.56a42.38,42.38,0,0,1-4-1.46c-.68-.28-1.34-.58-2-.9s-1.34-.66-2-1a44,44,0,0,1,0-77.32v9.44a36,36,0,0,0,0,58.44c.65.47,1.31.91,2,1.34s1.32.8,2,1.16a35.41,35.41,0,0,0,4,1.85c.66.25,1.32.49,2,.71s1.32.4,2,.57a35.79,35.79,0,0,0,18,0Z"/><path d="M64,119.67V125H56v-8.11c.66.3,1.33.58,2,.85,1.31.52,2.64,1,4,1.39C62.66,119.32,63.32,119.5,64,119.67Z"/><path d="M64,25v82.17c-.68-.22-1.34-.48-2-.75a33.79,33.79,0,0,1-4-2c-.68-.4-1.35-.81-2-1.25V25Z"/><path d="M94,46.81V125H86V42.83c.68.22,1.34.48,2,.75a33.79,33.79,0,0,1,4,2C92.68,46,93.35,46.37,94,46.81Z"/><path d="M94,25v8.11c-.66-.3-1.33-.58-2-.85-1.31-.52-2.64-1-4-1.39-.66-.19-1.32-.37-2-.54V25Z"/></g></svg>