<svg xmlns="http://www.w3.org/2000/svg" viewBox="0 0 150 150"><title>imbolc-bold</title><g id="Imbolc"><polygon points="116.89 92.06 116.89 96.06 84.69 96.06 107.42 73.16 110.22 75.97 115.88 70.31 104.57 59 98.91 64.66 101.76 67.5 79.05 90.38 78.93 58.18 82.9 58.18 82.9 50.18 66.9 50.18 66.9 58.18 70.93 58.18 71.05 90.41 48.19 67.73 51 64.92 45.34 59.26 34.03 70.58 39.69 76.23 42.54 73.38 65.38 96.06 33.02 96.06 33.02 92.06 25.02 92.06 25.02 104.06 75.09 104.06 124.89 104.06 124.89 92.06 116.89 92.06"/></g></svg>