<svg xmlns="http://www.w3.org/2000/svg" viewBox="0 0 150 150"><title>sailorsknot2-bold</title><g id="The_Sailor_s_Knot" data-name="The Sailor’s Knot"><path d="M118.79,62.12a12.85,12.85,0,0,0-9,3.63l-3.59,3.59L80.66,43.76l3.44-3.44.13-.14.09-.1h0a12.88,12.88,0,1,0-18.57.08h0l3.59,3.59L43.76,69.34l-3.59-3.59h0l-.06-.06a12.87,12.87,0,1,0,.21,18.41l3.44-3.44,25.59,25.58-3.65,3.65a12.87,12.87,0,1,0,18.41-.21l-3.44-3.44,25.57-25.58,3.44,3.44h0a12.88,12.88,0,1,0,9.1-22ZM75,26.34a4.87,4.87,0,0,1,3.45,8.32h0l0,0h0L75,38.1l-3.53-3.53a4.82,4.82,0,0,1-1.35-3.36A4.88,4.88,0,0,1,75,26.34ZM26.34,75a4.88,4.88,0,0,1,4.87-4.88,4.8,4.8,0,0,1,3.3,1.29L38.1,75l-3.44,3.44A4.87,4.87,0,0,1,26.34,75Zm52.11,40.34a4.88,4.88,0,1,1-8.33,3.45,4.8,4.8,0,0,1,1.27-3.28L75,111.9ZM75,100.58h0L49.43,75,75,49.42,100.58,75h0Zm43.78-20.71a4.86,4.86,0,0,1-3.45-1.43L115,78.1,111.9,75l3.53-3.54a4.87,4.87,0,1,1,3.36,8.41Z"/><path d="M106.28,61A14,14,0,0,0,96.6,64.9l-7.26,7.26L77.83,60.65l7.28-7.28a14,14,0,1,0-20.2,0l7.26,7.26L60.66,72.17l-7.3-7.3a14,14,0,1,0,0,20.21l7.26-7.26L72.17,89.34l-7.3,7.3a14,14,0,1,0,20.21,0l-7.25-7.25L89.35,77.83l7.28,7.28A14,14,0,1,0,106.28,61ZM86.52,75,75,86.52,63.49,75,75,63.48,86.51,75h0ZM65,43.71a10,10,0,1,1,17.23,6.86L75,57.83l-7.22-7.22A10,10,0,0,1,65,43.71ZM50.6,82.22a10,10,0,1,1,0-14.49L57.82,75ZM85,106.29a10,10,0,1,1-17.25-6.86L75,92.17l7.23,7.23A9.92,9.92,0,0,1,85,106.29ZM106.28,85a9.86,9.86,0,0,1-6.85-2.73L92.17,75l7.22-7.22A10,10,0,1,1,106.28,85Z"/></g></svg>