<svg xmlns="http://www.w3.org/2000/svg" viewBox="0 0 150 150"><title>samhain-bold</title><g id="Samhain"><g id="Bold"><polygon points="59 53.01 67 53.01 67 53 79 53 79 45.04 79 45 57 45 57 45.04 57 53 59 53 59 53.01"/><rect x="59" y="57.01" width="8" height="22.03"/><path d="M67,33H83V55h8V33a8,8,0,0,0-8-8H67a8,8,0,0,0-8,8v8h8Z"/><polygon points="59 91.01 67 91.01 67 91 79 91 79 83.04 79 83 57 83 57 83.04 57 91 59 91 59 91.01"/><path d="M83,117H67V95H59v22a8,8,0,0,0,8,8H83a8,8,0,0,0,8-8v-8H83Z"/><polygon points="71 67 83 67 83 67.04 91 67.04 91 67 93 67 93 59 71 59 71 67"/><path d="M117,59h-8v8h8V83H95v8h22a8,8,0,0,0,8-8V67A8,8,0,0,0,117,59Z"/><path d="M125,39a14,14,0,0,0-28,0v2h8V39a6,6,0,1,1,6,6h-2.25v0H95v8h16A14,14,0,0,0,125,39Z"/><path d="M39,97a14,14,0,1,0,14,14v-2H45v2a6,6,0,1,1-6-6H55V97H39Z"/><rect x="71" y="97" width="22" height="8"/><path d="M39,53h2V45H39a6,6,0,1,1,6-6V55h8V39A14,14,0,1,0,39,53Z"/><rect x="45" y="71.04" width="8" height="21.97"/><path d="M111,97h-2v8h2a6,6,0,1,1-6,6V95H97v16a14,14,0,1,0,14-14Z"/><rect x="97" y="57.01" width="8" height="22.03"/><polygon points="83 83 83 83.04 83.01 83.04 83.01 93.01 91 93.01 91 71.04 83 71.04 83.01 79.04 83.01 83 83 83"/><path d="M41,59H33a8,8,0,0,0-8,8V83a8,8,0,0,0,8,8h8V83H33V67H55V59H41Z"/></g></g></svg>