<svg xmlns="http://www.w3.org/2000/svg" viewBox="0 0 150 150"><title>solomonsknot-bold</title><g id="Solomon_s_Knot" data-name="Solomon&apos;s Knot"><path d="M75.5,125h-1a21,21,0,0,1-21-21V76.79h8V104a13,13,0,0,0,13,13h1a13,13,0,0,0,13-13v-3.94h8V104A21,21,0,0,1,75.5,125Z"/><path d="M96.5,73h-8V46a13,13,0,0,0-13-13h-1a13,13,0,0,0-13,13v4h-8V46a21,21,0,0,1,21-21h1a21,21,0,0,1,21,21Z"/><path d="M104,96.5H76.5v-8H104a13,13,0,0,0,13-13v-1a13,13,0,0,0-13-13H99.94v-8H104a21,21,0,0,1,21,21v1A21,21,0,0,1,104,96.5Z"/><path d="M50.06,96.5H46a21,21,0,0,1-21-21v-1a21,21,0,0,1,21-21H73.58v8H46a13,13,0,0,0-13,13v1a13,13,0,0,0,13,13h4.06Z"/><path d="M84.5,73h-8V46a1.5,1.5,0,0,0-3,0l.08,4.17H65.5V46a9.5,9.5,0,0,1,19,0Z"/><path d="M103.94,84.79H76.5v-8h27.44a1.5,1.5,0,0,0,0-3h-4v-8h4a9.5,9.5,0,0,1,0,19Z"/><path d="M74.65,113.72a9.51,9.51,0,0,1-9.5-9.5V76.79h8v27.43a1.5,1.5,0,0,0,3,0v-4.16h8v4.16A9.51,9.51,0,0,1,74.65,113.72Z"/><path d="M50.06,84.44H45.71a9.5,9.5,0,0,1,0-19H73.58v8H45.71a1.5,1.5,0,0,0,0,3h4.35Z"/></g></svg>