<svg xmlns="http://www.w3.org/2000/svg" viewBox="0 0 150 150"><title>thebull-bold</title><g id="The_Bull" data-name="The Bull"><path d="M127.79,32.84,124,21.67l-3.78,11.17C116.11,45,96.67,54.12,75,54.12S33.89,45,29.79,32.84L26,21.67l-3.8,11.17A22.64,22.64,0,0,0,21,40.12c0,8.53,8.83,17.75,27,28.19l2,1.12v0c0,7.61,6.76,16.23,12.91,22.5a10.78,10.78,0,0,0-.7,17.19,13,13,0,0,0,25.58,0A10.76,10.76,0,0,0,87.08,92C93.23,85.69,100,77.07,100,69.46v0l2-1.13c18.18-10.44,27-19.66,27-28.19A22.64,22.64,0,0,0,127.79,32.84ZM74.88,62.46h.23c2.74-.07,10.94.41,14.86,3.32-5.07,2.62-10.22,5-15,7-4.75-2-9.9-4.4-15-7,3.7-2.74,11.19-3.33,14.33-3.33Zm-32.37-7a66.94,66.94,0,0,0,12.28,4.29c-.37.3-.72.6-1.06.93a11.25,11.25,0,0,0-1,1.15C49.07,59.72,45.6,57.58,42.51,55.43ZM68.27,98.31a2.56,2.56,0,1,1-2,2.5A2.33,2.33,0,0,1,68.27,98.31Zm13.46,5a2.56,2.56,0,1,1,2-2.5A2.32,2.32,0,0,1,81.73,103.31Zm-10,7.33A9.87,9.87,0,0,0,75,108.56a9.87,9.87,0,0,0,3.25,2.08,4.88,4.88,0,0,1-6.5,0ZM75,92.31c-8.34-7-13.16-13.35-15.41-17.85,7.69,3.81,13.56,6.22,13.92,6.37l1.51.62,1.51-.62c.36-.15,6.3-2.59,14.06-6.44C87.64,80.31,80.67,87.47,75,92.31ZM97.3,61.8a11.25,11.25,0,0,0-1-1.15,13.55,13.55,0,0,0-1.06-.93,66.83,66.83,0,0,0,12.27-4.28C104.37,57.59,100.92,59.73,97.3,61.8Z"/></g></svg>