<svg xmlns="http://www.w3.org/2000/svg" viewBox="0 0 150 150"><title>theboar-bold</title><g id="The_boar" data-name="The boar"><rect x="48.83" y="47.47" width="4" height="13.03"/><rect x="54.83" y="43.69" width="4" height="16.81"/><rect x="60.83" y="40.86" width="4" height="19.64"/><rect x="66.83" y="38.97" width="4" height="21.53"/><rect x="72.83" y="38.02" width="4" height="22.48"/><rect x="78.83" y="38.03" width="4" height="22.47"/><rect x="84.83" y="39.02" width="4" height="21.48"/><rect x="90.83" y="41.04" width="4" height="19.46"/><rect x="96.83" y="44.15" width="4" height="16.35"/><polygon points="106.83 58.27 102.83 56.19 102.83 48.46 106.83 48.46 106.83 58.27"/><polygon points="112.83 64.66 108.83 60.96 108.83 54.16 112.83 54.16 112.83 64.66"/><path d="M31.94,75.72A9.55,9.55,0,0,1,23.66,65a11.46,11.46,0,0,1,12.81-9.92A13.84,13.84,0,0,1,45,59.61l-3,2.67A9.77,9.77,0,0,0,36,59.08a7.45,7.45,0,0,0-8.33,6.45,5.56,5.56,0,0,0,4.81,6.22Z"/><polygon points="93.04 89.78 100.41 110.39 108.72 110.39 101.21 89.78 93.04 89.78"/><polygon points="46.85 89.78 54.21 110.39 62.53 110.39 55.01 89.78 46.85 89.78"/><path d="M129.45,93.84a7.46,7.46,0,0,1-9.3-7.24c0-1-.11-2-.2-3-1.84-10.11-6.25-16.07-9.65-19.29a22.38,22.38,0,0,0-6.65-4.49c-.07.24-.16.53-.21.72a9.46,9.46,0,0,0,2.91,9.35l-.66.75a10.44,10.44,0,0,1-3.22-10.34c.11-.43.4-1.3.4-1.3l.16-.46.47.15c.11,0,8.36,2.83,13.75,13.47A43,43,0,0,0,34,87.42l-.1.16-8.32,22.81H33.9l8.15-22.85h33l-8.37,22.85H75l7.09-19.84h0l3.31-9.26A11.31,11.31,0,0,0,86,73.35,9,9,0,0,0,75,67.18a7.08,7.08,0,0,0-4.86,8.73,5.57,5.57,0,0,0,5.33,4h.06v1h-.07a6.56,6.56,0,0,1-6.29-4.76,8.07,8.07,0,0,1,5.55-10A10,10,0,0,1,87,73.07a12.34,12.34,0,0,1-.69,8.6l-2.18,6.08,21,0a.32.32,0,0,1,.19.07l0,0A6.58,6.58,0,0,0,109,90.59a4.65,4.65,0,0,0,5.67-3.33,3.63,3.63,0,0,0-.39-2.75,3.57,3.57,0,0,0-2.21-1.66,2.77,2.77,0,0,0-3.4,2,2.13,2.13,0,0,0,1.53,2.6l-.25,1a3.13,3.13,0,0,1-2.25-3.82,3.79,3.79,0,0,1,4.62-2.72,4.62,4.62,0,0,1,3.32,5.63,5.66,5.66,0,0,1-5.46,4.23,5.78,5.78,0,0,1-1.43-.18,6.47,6.47,0,0,1-1.33-.53A18.46,18.46,0,0,0,127,98a.35.35,0,0,0,.15-.12c1-1.24,2-2.59,2.67-3.47A.36.36,0,0,0,129.45,93.84ZM112.21,78.75l-.09.35a2.56,2.56,0,0,1-.47,0,2.71,2.71,0,0,1-2.19-3.13l.09-.35a4.05,4.05,0,0,1,.48,0A2.71,2.71,0,0,1,112.21,78.75Z"/></g></svg>