<svg xmlns="http://www.w3.org/2000/svg" viewBox="0 0 150 150"><title>thedragon-bold</title><g id="The_Dragon" data-name="The Dragon"><path d="M111.76,39.77c-1.21-1.16-2.47-2.27-3.78-3.3-.14-.12-.27-.23-.41-.33A9,9,0,0,0,99.66,31h-.21a9.66,9.66,0,0,0-1.62.14,9.07,9.07,0,0,0-5.91,3.94,8.83,8.83,0,0,0-1.46,4.67h8a1,1,0,0,1,1-.75l.17,0a1,1,0,0,1,.66.42h0l.08.15h0a.66.66,0,0,1,0,.14c0,.15,0,.3.05.45h0c.07.73.1,1.46.1,2.21A25,25,0,0,1,99.65,49,24.75,24.75,0,0,1,96,56.77a25,25,0,0,1-6.43,6.35l-.53.35a5.74,5.74,0,0,0-.5-.36L88,62.74h0l-.59-.38L86.88,62c-.23-.14-.47-.28-.72-.41s-.48-.26-.73-.38-.5-.25-.75-.36L84,60.57c-.28-.12-.57-.23-.85-.33s-.48-.18-.73-.27l-.56-.18-.73-.21-.12,0a14.11,14.11,0,0,1-7.3-5.66,1.3,1.3,0,0,1-.1-.15,13.87,13.87,0,0,1-2.17-7.48c0-.49,0-1,.07-1.46l.24.12a.18.18,0,0,0,.09,0l.89.42.9.36a7.84,7.84,0,0,0,.77.27,18.2,18.2,0,0,0,2.55.71,13.48,13.48,0,0,0,4.42.26,4.4,4.4,0,0,1,2,2.43A5.5,5.5,0,0,0,84.68,44a.11.11,0,0,0,0-.07c-.18-1.32-1.39-2.84-3.26-4.2a19.38,19.38,0,0,0-4.23-2.3,10.14,10.14,0,0,0-.94-1.75A11.27,11.27,0,0,0,72,31.89,11.87,11.87,0,0,0,69.62,31a11.22,11.22,0,0,0-4.77-.18,7.3,7.3,0,0,0-.95.22,10.83,10.83,0,0,1,3.17,1.44h0a8.68,8.68,0,0,1,.79.56,11.29,11.29,0,0,1,2.67,3,7.79,7.79,0,0,0-4.09-.87,7.07,7.07,0,0,0-1,.11,8.09,8.09,0,0,0-4.82,2.81h0a8,8,0,0,1,4.23.38c.3.12.59.25.88.4a5,5,0,0,0-1.22.54,5.58,5.58,0,0,0-.56.39,5.48,5.48,0,0,0-2,3.13,5.36,5.36,0,0,1,2-1.72A22,22,0,0,0,64.85,54q.25.66.54,1.29A22,22,0,0,0,68,59.67a1.34,1.34,0,0,1,.11.14A23.47,23.47,0,0,0,61,63.39l-.53-.27A25,25,0,0,1,54,56.77,24.75,24.75,0,0,1,50.35,49a25,25,0,0,1-.88-6.58c0-.75,0-1.48.1-2.21h0c0-.15,0-.3,0-.45a.66.66,0,0,1,0-.14h0l.08-.15h0a1,1,0,0,1,.66-.42l.17,0a1,1,0,0,1,1,.75h8a8.83,8.83,0,0,0-1.46-4.67,9.07,9.07,0,0,0-5.91-3.94A9.66,9.66,0,0,0,50.55,31h-.21a9,9,0,0,0-7.91,5.12c-.14.1-.27.21-.41.33-1.31,1-2.57,2.14-3.78,3.3a53.41,53.41,0,0,0-10.7,62.76c.2.39.4.78.62,1.16a43,43,0,0,1,2.32-12.64A43.63,43.63,0,0,1,51.83,66.44,33.68,33.68,0,0,0,88,73.18a17.24,17.24,0,0,1,2.37,7.75c.7,8.74-6,16.51-15.12,17.91a14.27,14.27,0,0,0,.07,3.81,10.46,10.46,0,0,0,1,3.38A23.69,23.69,0,0,0,98.76,82.37a22.94,22.94,0,0,0-4.13-13c.56-.43,2.57-2,3.53-2.9a43.67,43.67,0,0,1,21.36,24.62,43,43,0,0,1,2.32,12.64c.22-.38.42-.77.62-1.16a53.42,53.42,0,0,0-10.7-62.76Zm-83,36.87A46.31,46.31,0,0,1,41.68,46.16a32.77,32.77,0,0,0,5,14A51.84,51.84,0,0,0,28.76,76.64Zm74.61-16.49a32.77,32.77,0,0,0,4.95-14,46.31,46.31,0,0,1,12.92,30.48A51.84,51.84,0,0,0,103.37,60.15Z"/><path d="M66.21,100.06a21.16,21.16,0,0,1,.16-2.47l.1-.85-.82-.23A20,20,0,0,1,52.46,85a34.38,34.38,0,0,1-1.25-3.79,20,20,0,0,1,19.33,3.2l.8.64.62-.81c.39-.53.8-1,1.22-1.51l.67-.78L73,81.28A23.74,23.74,0,0,0,58,76a24.16,24.16,0,0,0-11.36,2.85l-.57.31,0,.65c.08,1.1.18,2,.32,2.86,1.85,11.42,9.26,20.39,18.87,22.85l1.49.39-.25-1.52A25.55,25.55,0,0,1,66.21,100.06Z"/><path d="M78.1,86.7l-.86,1.6c-.38.73-.75,1.52-1.09,2.35l-.16.41.19.39a16.45,16.45,0,0,1,1.29,4.35l.19,1.09,1.06-.29a13.58,13.58,0,0,0,2.21-.8l.75-.34-.22-.9A22.81,22.81,0,0,0,79,88.28Z"/><path d="M77.45,107l-.63.06-.21.6a15.94,15.94,0,0,1-1.49,2.91,20.15,20.15,0,0,1-2.91-10.47c0-6.88,3.34-14.79,7.53-18.06l.14,1.72,4-6.57-7.06,3,1.56.35c-5.16,3.92-10.15,11.64-10.15,19.53a24.16,24.16,0,0,0,4.47,14c.86,1.15,1.71,2.05,1.74,2.09l.75.78.72-.8A24,24,0,0,0,80.75,108l.57-1.64-1.71.33C78.94,106.78,78.21,106.88,77.45,107Zm2.19-26.14v0l0,0Z"/></g></svg>