<svg xmlns="http://www.w3.org/2000/svg" viewBox="0 0 150 150"><title> thegriphon-bold</title><g id="_The_Griphon" data-name=" The Griphon"><path d="M108.56,92.65s30-29.33,8.67-48.67a61.08,61.08,0,0,1,5-6.16,45.76,45.76,0,0,1-8.5,3.5l2.5-5.5-8,5.33c-6.5-.83-6.67-.83-8.67,1.67s-8.89,2.06-6.23,8.89c1.34-1.33,5-2.12,8.07-.39-2.34,3.16-4.69,3.14-4.69,3.14,3.67,2.84,12.85,0,12.85,0-2.57,4.42-1.78,6.41-12.67,7.78a13.87,13.87,0,0,0-1-5.55c-1.39-3.54-6-7-10.38-9.59l-5.17-15L18.94,53.35l-2.66.88a.62.62,0,0,0-.16,1.09L18.46,57c6.63,4.74,16.24,7.45,26.36,7.45a54.09,54.09,0,0,0,12.72-1.48,26.42,26.42,0,0,0,1.74,4,17.06,17.06,0,0,0-6,3.41,7.75,7.75,0,0,0-6.12-3.08,8,8,0,0,0-7.79,8v4.75A3.87,3.87,0,0,1,35.92,84a3.73,3.73,0,0,1-3.75-2.4,5.06,5.06,0,0,0,1.29-.92,5,5,0,0,0,1.45-3.54c0-2.19-2.47-5.15-3.53-6.32l-1.5-1.66L28.4,70.8c-1,1.18-3.5,4.16-3.49,6.35a5,5,0,0,0,3.15,4.61,7.77,7.77,0,0,0,8.44,6.18,7.93,7.93,0,0,0,6.91-8V75.11a3.82,3.82,0,0,1,3-3.78A3.76,3.76,0,0,1,50.9,75h0c-.33,3,1.16,5.83,1.49,7.48.83,4.17-3,6.5-6.84,6.67-7.33,14.33-8,18.33-8,18.33l2,7.5,4.34.34,2-6s-4.34-4.17,1.33-10,11.83-2.84,11.83-2.84c-2.16,2.67-3.33,4.17-3.33,4.17L71.4,114.32h4.5l1.66-3.5-3.33-4.17-3.17,1.17s-10.5-6.5-5.5-8.67,7.84-2.17,5.5-9.67.34-6,.34-6c9.33,5.84,13.66,7.84,24.66,4.67,4.67,3.67,6.3,5,6.3,5l-8,7.75c-1-1.87-3.65-2-5-2.11,1.36,2.48,2.25,3.81,2.25,3.81l-8.58,6.29,1,1.36a2,2,0,0,0,2.83.37l2.63-2.34-2.83,4,1.49.82a2,2,0,0,0,2.74-.8l1.75-3.19-1.16,5.71,1.71,0a2,2,0,0,0,2.08-1.95l.24-7.86,10.14-9.63,4,5.44c-1.83,1.08-1.89,3.71-2,5.08,2.44-1.44,3.74-2.37,3.74-2.37l6.56,8.39,1.32-1.08a2,2,0,0,0,.28-2.84l-2.41-2.55,4.06,2.7.77-1.52a2,2,0,0,0-.88-2.71L118,102.26l5.74,1v-1.71a2,2,0,0,0-2-2h-7.86l-5.28-6.87ZM30.62,77.83a1,1,0,0,1-.7.3h0a1,1,0,0,1-1-.95,6.09,6.09,0,0,1,1-1.83,6.41,6.41,0,0,1,1,1.77A1,1,0,0,1,30.62,77.83Zm38.7-13.29a62.1,62.1,0,0,0-6.11,1.19A22.63,22.63,0,0,1,60.84,60l-.51-2-2,.57A49.2,49.2,0,0,1,44.82,60.4a45.17,45.17,0,0,1-20.63-4.63L77.91,37.23l2.44,7.06c-1.58-.78-2.76-1.3-3.16-1.47L75.4,42l-.82,1.77C73.9,45.29,68.54,57.19,69.32,64.54Zm23.52-1.79a.5.5,0,0,0,0,.12,8.55,8.55,0,0,0-2.49-5.74,7,7,0,0,0-9.83,0,5.67,5.67,0,0,0,0,8,4.62,4.62,0,0,0,6.54,0,3.8,3.8,0,0,0,0-5.38l0,0A3.15,3.15,0,0,0,82.8,60,2.6,2.6,0,0,0,82,61.84a2.64,2.64,0,0,0,.76,1.85,2.2,2.2,0,0,0,3.1,0,1.87,1.87,0,0,0,0-2.63l-.71.71a.85.85,0,0,1,0,1.21,1.2,1.2,0,0,1-1.68,0A1.59,1.59,0,0,1,83,61.84a1.61,1.61,0,0,1,.47-1.15,2.2,2.2,0,0,1,3,0,2.82,2.82,0,0,1-.2,3.75,3.65,3.65,0,0,1-5.14,0,4.69,4.69,0,0,1,0-6.6,6,6,0,0,1,8.42,0c2.95,2.95,3.26,7.94.31,10.89a17.15,17.15,0,0,1-1.59,1.45l-.31.21-.37.21a10.46,10.46,0,0,1-1.12.53c-.29.11-.58.21-.88.3s-.6.15-.9.21l-.29,0a10,10,0,0,1-1.33.12H83a8.66,8.66,0,0,1-1.34-.07h0a8.52,8.52,0,0,1-1.22-.25l-.3-.08A9.32,9.32,0,0,1,78.89,71a10,10,0,0,1-5.31-5.52,4.07,4.07,0,0,1-.19-.67c0-.24-.09-.49-.12-.76-.42-4.1,2-11.56,4.14-16.72C83,50,90.82,54.64,92.21,58.17A10,10,0,0,1,92.84,62.75Z"/></g></svg>