<svg xmlns="http://www.w3.org/2000/svg" viewBox="0 0 150 150"><title>thestag-bold</title><g id="The_Stag" data-name="The Stag"><path d="M113.75,109.08s-3.62,1.67-3.62,7.17c-2.84,0-2.13.12-6.19.06.33-5,2.48-3.89,4.48-5.89,0-3-2.17-16-2.17-16s-2.17-.34-7.5-4.67c-2,1.17-1.31,6.75,2.33,8.5-1.14,1.62-5.16,4.83-12,12.17-3.66-.84-3.83,0-3.83,5.83h-7.5s7.5-10,15.83-18.83c-4.16-5.67-3.33-3.84-4-16.17-6.83,5.33-16,3.67-21.5.5,0,2.83,3,17.67,4.5,24.5-1.83,1.67-3,4.17-3,10.17h-8c10-10-.83-28.17-.83-28.17s-9,11.83-12.67,20.5c-4-1.33-3.66,1.5-3.66,7.5H36.25A296.2,296.2,0,0,0,55.58,80.92c-15.16-17.84-3-32.5-3-32.5l-4.5-.17-4.83,5.17-5.17.16c2.5-19.5,29-23,35.67-15.5,0,0,.17,2-4.67,1.5-4.16-2.83-7.33-2.83-7.66-1.5a4,4,0,0,1,3.83,1.84c-6.18,13.24-3.87,22.15.63,25.89A12.14,12.14,0,0,0,77.94,77.94a11.34,11.34,0,0,0,7.4-2.71c1.92-1.65,5.17-9,8.34-17.11,11,2,18,16.75,14.24,21-5.5,6.17-2.34,9.17,4.66,10.5C108.92,97.75,111.58,104.75,113.75,109.08Z"/><path d="M71.15,58.67A9.45,9.45,0,0,0,68,67.11,10,10,0,0,0,68.79,70a8.06,8.06,0,0,1,2.06-7.84,6.55,6.55,0,0,1,9.25,0,5.34,5.34,0,0,1,0,7.54,4.35,4.35,0,0,1-6.17,0,3.6,3.6,0,0,1,0-5.08,3,3,0,0,1,4.2,0,2.48,2.48,0,0,1,0,3.51,2.08,2.08,0,0,1-2.94,0l.7-.71a1.12,1.12,0,0,0,1.54,0,1.49,1.49,0,0,0,0-2.09,2,2,0,0,0-2.8,0,2.62,2.62,0,0,0,0,3.67,3.39,3.39,0,0,0,4.77,0,4.36,4.36,0,0,0,0-6.13,5.55,5.55,0,0,0-7.84,0A7.43,7.43,0,0,0,71.38,73a9,9,0,0,0,5.79,2.89A9.29,9.29,0,0,0,84,73.71c1.62-1.39,4.6-8.19,7.57-15.82,4.41-11.26,8.81-24.31,8.81-24.31Z"/></g></svg>