<svg xmlns="http://www.w3.org/2000/svg" viewBox="0 0 150 150"><title>treeoflife-bold</title><g id="The_Tree_of_Life" data-name="The Tree of Life"><path d="M123.91,63.37a121.49,121.49,0,0,0-12.42-11.18,121.27,121.27,0,0,0,.88-16.67l-.15-5.68-5.69-.16s-.69,0-1.88,0a121,121,0,0,0-14.8.89,120.54,120.54,0,0,0-11.17-12.4l-4.13-3.92-4.13,3.91A124.07,124.07,0,0,0,59.21,30.6a120.7,120.7,0,0,0-15.16-.94c-1.19,0-1.88,0-1.88,0l-5.68.16-.15,5.68a119.48,119.48,0,0,0,.88,16.67A121.49,121.49,0,0,0,24.8,63.37L20.89,67.5l3.91,4.13A115.55,115.55,0,0,0,40.26,85c6.22,4.34,11.42,6.46,15.9,6.46a24,24,0,0,0,13.56-4.21,19.31,19.31,0,0,1-16.51,29.27c-.94,0-2.84-.22-3.5-.31l-8.56-1.14,7.19,4.79a23.44,23.44,0,0,0,26.18-.16,23.44,23.44,0,0,0,26.18.16l7.19-4.79-8.56,1.14c-.65.09-2.55.31-3.5.31A19.29,19.29,0,0,1,79.19,87.43,24,24,0,0,0,92.55,91.5c4.48,0,9.68-2.12,15.9-6.47a115,115,0,0,0,15.46-13.4l3.91-4.13ZM106.56,76.5a23.09,23.09,0,0,0-10-2.59c0-.47-.08-.93-.15-1.39a19.82,19.82,0,0,0,5-3.61c2.11-2.11,3.75-5.68,4.91-10.59a115.06,115.06,0,0,1,10.42,9.18A113.3,113.3,0,0,1,106.56,76.5ZM84.7,81.43a19.24,19.24,0,0,1,7.82-3.24A18.25,18.25,0,0,1,91,83.41,16.1,16.1,0,0,1,84.7,81.43ZM58,83.38a18.43,18.43,0,0,1-1.53-5.2,19.23,19.23,0,0,1,7.72,3.16A16,16,0,0,1,58,83.38ZM32,67.5a116.07,116.07,0,0,1,10.41-9.18c1.17,4.92,2.81,8.48,4.92,10.59a19.9,19.9,0,0,0,5.22,3.74c-.06.41-.11.84-.14,1.26A23.41,23.41,0,0,0,42.29,76.6,112.73,112.73,0,0,1,32,67.5ZM44.32,37.67a112.19,112.19,0,0,1,14.21.91,25.71,25.71,0,0,0-3.8,9c-2.71.34-5.86,1.64-9.53,3.91A112.93,112.93,0,0,1,44.32,37.67Zm58.49,41.52A30.65,30.65,0,0,1,95.46,83a22,22,0,0,0,1.11-5.06A19.23,19.23,0,0,1,102.81,79.19Zm-10.2-5.08-1,.17c.34-.07.68-.16,1-.25Zm-40.2,3.8a22.58,22.58,0,0,0,1.14,5.15A29.17,29.17,0,0,1,46,79.27,19.37,19.37,0,0,1,52.41,77.91Zm4-3.81h0Zm-1.7-22.45a19.76,19.76,0,0,0,3.38,9.14,22.12,22.12,0,0,0-4.59,7.83,16.06,16.06,0,0,1-3.34-2.53c-1.77-1.77-3.21-5.33-4.21-10.31C50,53.09,52.78,52,54.67,51.65Zm19.68-6.29a15.8,15.8,0,0,1,3,8.33,22.71,22.71,0,0,0-2.88-.19,22.07,22.07,0,0,0-3.16.23A15.9,15.9,0,0,1,74.35,45.36ZM88,58.11A21.93,21.93,0,0,0,82.55,55a15.81,15.81,0,0,1,7.83-3.36A15.83,15.83,0,0,1,88,58.11ZM74.35,59.22c-.26-.57-.55-1.13-.86-1.67.33,0,.66,0,1,0s.49,0,.74,0C74.91,58.09,74.62,58.65,74.35,59.22Zm-4.93,4.54c.18.36.38.71.58,1.06l-.46-.13a16,16,0,0,1-5.93-3.54,18.19,18.19,0,0,1,4.1-2.33A19.81,19.81,0,0,0,69.42,63.76Zm9.86,0a19.8,19.8,0,0,0,1.74-5,18,18,0,0,1,4.42,2.47l-.25.25A16.06,16.06,0,0,1,78.64,65C78.86,64.57,79.08,64.17,79.28,63.77ZM61,58.05a15.67,15.67,0,0,1-2.32-6.33,15.81,15.81,0,0,1,7.53,3.37A22.13,22.13,0,0,0,61,58.05Zm-.37,5.84.07.06a19.9,19.9,0,0,0,7.54,4.53l.9.27a15.9,15.9,0,0,1-6.83,2,15.66,15.66,0,0,1-5.2-.56A18.2,18.2,0,0,1,60.67,63.89Zm27.18.54c.18-.15.35-.32.52-.48A18.31,18.31,0,0,1,91.8,70.1a15.84,15.84,0,0,1-12.15-1.28A19.94,19.94,0,0,0,87.85,64.43ZM91,60.87a20,20,0,0,0,3.42-9.14,26.57,26.57,0,0,1,8.38,4.05c-1,5-2.45,8.54-4.21,10.31a16.3,16.3,0,0,1-3.11,2.39A22.2,22.2,0,0,0,91,60.87Zm12.51-9.37a25.66,25.66,0,0,0-9.14-3.84,26,26,0,0,0-3.83-9.12,110.81,110.81,0,0,1,13.85-.87A112.93,112.93,0,0,1,103.51,51.5ZM90.3,47.63a19.89,19.89,0,0,0-9.21,3.5,19.77,19.77,0,0,0-3.91-8.66c1.6-1.07,4.34-2.27,9.06-3.23A27,27,0,0,1,90.3,47.63Zm-16-8a24.51,24.51,0,0,0-9-3.8,113.7,113.7,0,0,1,9.23-10.48,110.31,110.31,0,0,1,9.16,10.4A25.09,25.09,0,0,0,74.35,39.59Zm-2.83,2.88a19.86,19.86,0,0,0-3.9,8.66,19.7,19.7,0,0,0-8.85-3.44,26.26,26.26,0,0,1,4-8.38C67.31,40.26,70,41.43,71.52,42.47ZM58.82,74.58a20.4,20.4,0,0,0,2.6.19l1.16,0a20.06,20.06,0,0,0,8.9-2.7,15.89,15.89,0,0,1-3.38,6.1c-.2.23-.42.43-.64.64A23.12,23.12,0,0,0,58.82,74.58Zm21.79,3.56A16,16,0,0,1,77.22,72a20.1,20.1,0,0,0,8.9,2.7q.59,0,1.17,0a19.54,19.54,0,0,0,3.33-.3,23.23,23.23,0,0,0-9.24,4.45C81.12,78.66,80.85,78.42,80.61,78.14Zm-6.12,9.63a24.06,24.06,0,0,0-1.63-3c.42-.41.83-.82,1.22-1.26l.27-.32.28.32c.45.5.91,1,1.4,1.43A23.36,23.36,0,0,0,74.49,87.77Z"/></g></svg>