<svg xmlns="http://www.w3.org/2000/svg" viewBox="0 0 150 150"><title>triplespiral-bold</title><g id="Triple_Spiral" data-name="Triple Spiral"><path d="M99,70.05A13.68,13.68,0,0,0,84.18,82.46a11.73,11.73,0,0,0,10.7,12.72,9.93,9.93,0,0,0,2.57-.12L96,87.19a2.79,2.79,0,0,1-.5,0A3.73,3.73,0,0,1,93,85.89a3.68,3.68,0,0,1-.85-2.72,5.66,5.66,0,0,1,3.68-4.82A5.78,5.78,0,0,1,98.27,78a8.09,8.09,0,0,1,7.34,8.75,11.12,11.12,0,0,1-12,10.08A14.85,14.85,0,0,1,80.47,85.68c-.07-.29-.13-.58-.19-.87l0-.35A14.24,14.24,0,0,1,80,81.39l.06-.14V80.5c0-.31.08-.63.13-1s.14-.76.22-1.14.21-.76.31-1.12.25-.73.39-1.08.28-.72.44-1.07.36-.73.51-1,.4-.7.61-1,.44-.7.63-1,.47-.65.72-1,.53-.63.81-1,.54-.58.82-.86h0a22.86,22.86,0,0,0,6-10.34,19.12,19.12,0,0,0-13.5-23.39A16.1,16.1,0,0,0,58.52,47a13.35,13.35,0,0,0-.24,6,13.71,13.71,0,0,0,9.89,10.76,11.73,11.73,0,0,0,14.39-8.34,10.46,10.46,0,0,0,.32-2.54h-8a2.12,2.12,0,0,1-.06.52A3.73,3.73,0,0,1,70.25,56a5.66,5.66,0,0,1-4.1-4.46,5.57,5.57,0,0,1,.1-2.47,8.07,8.07,0,0,1,9.89-5.7A11.1,11.1,0,0,1,84,56.91a14.76,14.76,0,0,1-3.92,6.73,14.92,14.92,0,0,1-13.47,4l-.39-.41h-1L64.74,67l-.47-.47H63.13A22.84,22.84,0,0,0,44.51,70a19.09,19.09,0,0,0-4.69,26.59,16.11,16.11,0,0,0,22.38,3.95,13.66,13.66,0,0,0,3.36-19,11.72,11.72,0,0,0-16.38-2.87,10.15,10.15,0,0,0-1.91,1.77l6.19,5.07a1.9,1.9,0,0,1,.34-.31,3.74,3.74,0,0,1,2.79-.62A3.69,3.69,0,0,1,59,86.14,5.68,5.68,0,0,1,57.61,94a8.1,8.1,0,0,1-11.24-2A11.1,11.1,0,0,1,49.1,76.58a14.85,14.85,0,0,1,12.46-2.15l.21.06c.3.09.59.18.86.28l.43.16.22.1h0a14.77,14.77,0,0,1,6.36,5l.16.32.19.19c.17.25.32.5.48.76s.35.61.51.93.36.75.49,1.06.31.76.42,1.08.24.74.33,1.1l.16.59c.09.52.19,1,.31,1.55a22.88,22.88,0,0,0,20.18,17.21c.57.05,1.13.07,1.69.07a19.12,19.12,0,0,0,19-17.42A16.11,16.11,0,0,0,99,70.05Z"/></g></svg>