<svg xmlns="http://www.w3.org/2000/svg" viewBox="0 0 150 150"><title>triquetra2-bold</title><g id="Triquetra"><g id="Bold"><path d="M83.73,72.16c0,.67-.1,1.33-.18,2s-.2,1.56-.34,2.34c-.09.54-.2,1.08-.31,1.61s-.3,1.3-.48,1.94a43.7,43.7,0,0,0-14.83,0c-.66.1-1.32.23-2,.38s-1.3.29-1.94.47-1.07.3-1.6.46c-.75.23-1.49.49-2.22.76s-1.25.48-1.86.75-1.25.54-1.86.84A43.4,43.4,0,0,0,33.52,109.8c-.21.63-.39,1.28-.57,1.92-.1.38-.19.75-.28,1.13s-.13.55-.18.82c-.13.54-.23,1.09-.33,1.63l-.41,2.3-.29,1.64-4.19-.74-.24-.07-3.36-1.05.61-3.46c0-.09,0-.19,0-.28v0a46.71,46.71,0,0,1,1.49-6A51.5,51.5,0,0,1,54.56,75.65c.63-.28,1.27-.55,1.91-.78s1.29-.5,1.94-.71c.43-.15.86-.3,1.3-.43.86-.27,1.73-.52,2.61-.73.65-.17,1.31-.33,2-.46s1.32-.27,2-.38A51.63,51.63,0,0,1,83.73,72.16Z"/><path d="M126.33,117.4l-3.37,1-.27.08h0a52.47,52.47,0,0,1-15,2.22,51.41,51.41,0,0,1-31-10.42c-.55-.41-1.08-.83-1.61-1.28s-1-.85-1.54-1.31-.81-.72-1.21-1.1c-.58-.55-1.15-1.11-1.7-1.69s-.93-1-1.37-1.48-.89-1-1.31-1.52a50.66,50.66,0,0,1-9.31-17.14c.61-.27,1.23-.52,1.85-.75s1.5-.54,2.26-.78c.51-.16,1-.31,1.55-.45s1.29-.33,2-.46a42.91,42.91,0,0,0,7.52,14c.41.53.85,1,1.31,1.56s.89,1,1.37,1.48.9.93,1.38,1.38,1,.92,1.52,1.37,1,.86,1.55,1.26,1.06.82,1.61,1.2a43.42,43.42,0,0,0,32.65,7.44c.66-.1,1.31-.23,2-.38-.17-.65-.36-1.29-.56-1.93h0A43.33,43.33,0,0,0,93.86,83.72q.27-1,.51-2c.25-1,.47-2.1.66-3.16,0-.29.1-.58.14-.88.11-.68.21-1.36.28-2a51.94,51.94,0,0,1,21,16.62,51.21,51.21,0,0,1,7.77,15.33h0a49.87,49.87,0,0,1,1.48,6v.07c0,.09,0,.18,0,.27Z"/><path d="M93.84,69.25c0,1.17,0,2.35-.12,3.53,0,.69-.11,1.39-.18,2.09s-.16,1.36-.27,2c-.06.45-.13.9-.21,1.34-.16.9-.34,1.79-.55,2.67-.14.66-.31,1.32-.5,2s-.35,1.3-.56,1.93A50.82,50.82,0,0,1,82.14,102c-.53-.4-1-.82-1.55-1.26s-1-.85-1.45-1.3-1-1-1.46-1.46-.93-1-1.37-1.51a42.5,42.5,0,0,0,7.51-14c.21-.63.4-1.28.56-1.93s.33-1.29.48-2,.22-1.09.32-1.64c.13-.76.25-1.53.34-2.31s.15-1.33.2-2,.08-1.35.1-2c0-.42,0-.85,0-1.27a43.34,43.34,0,0,0-9.53-27.17c-.42-.53-.86-1-1.3-1.56-.45.51-.89,1-1.3,1.56a43.17,43.17,0,0,0-7,12.44,43.64,43.64,0,0,0-2.55,14.73c0,.42,0,.85,0,1.27-.67.13-1.33.28-2,.45-1,.25-2.07.53-3.09.85l-.85.27c-.66.22-1.32.45-2,.7q-.12-1.77-.12-3.54A51.19,51.19,0,0,1,68,36.39,50.24,50.24,0,0,1,72.13,32l.13-.13L75,29.25l2.75,2.61.1.1A49.66,49.66,0,0,1,82,36.4,51.35,51.35,0,0,1,93.84,69.25Z"/><path d="M73.4,110.32a51.57,51.57,0,0,1-25.69,10.15A51.44,51.44,0,0,1,33.37,120l.35-2,.41-2.34c.09-.53.2-1.06.31-1.59s.3-1.3.48-2a43.46,43.46,0,0,0,32.66-7.44c.43.5.89,1,1.36,1.49.63.66,1.27,1.31,1.94,1.94.32.31.65.61,1,.89C72.37,109.46,72.88,109.9,73.4,110.32Z"/></g></g></svg>