<svg id="Triquetra_Trinity_knot" data-name="Triquetra / Trinity knot" xmlns="http://www.w3.org/2000/svg" viewBox="0 0 150 150"><title>triquetra-bold</title><g id="Bold"><path d="M58,48.81c-.27.88-.5,1.76-.72,2.67a47.11,47.11,0,0,0-1,5.37c-.12.9-.22,1.8-.29,2.72a32.05,32.05,0,0,0-8.7,10.82A34.43,34.43,0,0,0,45.73,74a29,29,0,0,0-1,3.42,32.4,32.4,0,0,0-.8,6.41c0,.24,0,.48,0,.71,0,.77,0,1.54.08,2.29.08,1,.18,1.92.34,2.86a32,32,0,0,0,5,12.62c.43.63.88,1.25,1.35,1.84-.76.11-1.54.19-2.31.25-1.08.08-2.17.14-3.26.14-.5,0-1,0-1.48,0-.81,0-1.62-.06-2.42-.15-.4-.7-.78-1.41-1.14-2.15s-.71-1.48-1-2.24c-.4-.94-.75-1.89-1.08-2.86s-.6-2-.85-3a38.78,38.78,0,0,1-1-6.41c-.07-1-.13-2.09-.13-3.15,0-.09,0-.17,0-.26a34.92,34.92,0,0,1,.18-3.56A40.08,40.08,0,0,1,58,48.81Z"/><path d="M115.94,84.26c-.68-1-1.39-1.9-2.13-2.8a49.22,49.22,0,0,0-4.87-5.13c-.9-.82-1.83-1.6-2.8-2.35a31.78,31.78,0,0,0-10.2-14.41c-.69-.56-1.42-1.09-2.15-1.59s-1.44-.93-2.19-1.35a30.54,30.54,0,0,0-4.45-2.07c-.72-.27-1.46-.52-2.21-.74s-1.46-.4-2.21-.57a31.94,31.94,0,0,0-13.58,0c.21-.73.42-1.45.67-2.17a37.37,37.37,0,0,1,1.74-4.29c.33-.73.7-1.43,1.08-2.12,1.1-.09,2.18-.15,3.3-.15s2.2.06,3.3.15c.8.06,1.59.15,2.4.26s1.62.26,2.43.42A38.93,38.93,0,0,1,89,46.73c.83.28,1.65.58,2.46.92s1.68.75,2.49,1.16A40.12,40.12,0,0,1,115.76,80.7C115.87,81.87,115.93,83.06,115.94,84.26Z"/><path d="M112.85,99.94c-.33.76-.67,1.51-1,2.24s-.75,1.45-1.15,2.15-.85,1.42-1.29,2.1a37.18,37.18,0,0,1-3.07,4.08c-.57.67-1.17,1.32-1.79,1.95s-1.27,1.27-2,1.87a39.89,39.89,0,0,1-53.26,0c.92-.07,1.83-.16,2.74-.29a50.88,50.88,0,0,0,5.37-1q1.34-.33,2.64-.72a31.92,31.92,0,0,0,31.76,0c.79-.46,1.55-.93,2.28-1.44s1.4-1,2.07-1.55a32.11,32.11,0,0,0,3.53-3.37c.53-.58,1-1.18,1.5-1.8s.92-1.21,1.34-1.84a31.74,31.74,0,0,0,5-12.62c.56.77,1.09,1.56,1.59,2.35a38.24,38.24,0,0,1,2.67,5.12C112.17,98.06,112.52,99,112.85,99.94Z"/><path d="M122.93,111.88c-1.31.44-2.64.83-4,1.17-.67.16-1.33.32-2,.45s-1.35.26-2,.36a50.58,50.58,0,0,1-8.13.66c-.48,0-1,0-1.44,0,.66-.63,1.29-1.29,1.88-2s1.17-1.34,1.72-2a41.77,41.77,0,0,0,3-4.28c.84-.09,1.66-.22,2.47-.35.65-.12,1.31-.25,2-.41-.12-.65-.25-1.31-.39-2s-.31-1.3-.49-1.94-.3-1-.46-1.55c-.33-1-.68-1.95-1.08-2.91s-.79-1.87-1.25-2.78a41.14,41.14,0,0,0-3-5.13c-.56-.81-1.16-1.59-1.77-2.36s-1.25-1.49-1.91-2.2A41.36,41.36,0,0,0,94.56,76c.17-.66.32-1.34.45-2,.3-1.35.5-2.71.69-4.11a47.65,47.65,0,0,1,8.75,5.3c.92.7,1.81,1.44,2.69,2.21s1.67,1.55,2.46,2.37a46,46,0,0,1,4.33,5.12c.65.9,1.28,1.84,1.88,2.78S117,89.6,117.5,90.6a47.24,47.24,0,0,1,3.67,9.16c.18.64.34,1.29.5,1.95s.29,1.31.43,2c.25,1.33.46,2.68.6,4,.06.68.12,1.37.16,2.06S122.92,111.18,122.93,111.88Z"/><path d="M84.08,64.21c0,.68,0,1.35-.07,2-.11,1.34-.26,2.67-.49,4-.12.66-.25,1.32-.39,2a40.09,40.09,0,0,0-14.38,0c-.67.12-1.31.25-2,.39s-1.29.32-1.93.5c-1.3.36-2.57.79-3.81,1.27-.65.25-1.26.52-1.87.79s-1.24.58-1.86.89A41.17,41.17,0,0,0,46,84.61s0-.06,0-.09c0-1,.05-2,.14-2.9a29.64,29.64,0,0,1,1.36-6.43,26.22,26.22,0,0,1,1.37-3.44,49.18,49.18,0,0,1,7.15-4c.65-.28,1.3-.56,1.94-.81l2-.74c1.29-.45,2.6-.86,4-1.2.64-.17,1.32-.31,2-.46s1.33-.26,2-.37a48.42,48.42,0,0,1,16.29,0Z"/><path d="M98.94,103.76c-.5.59-1,1.16-1.56,1.72a32.57,32.57,0,0,1-3.65,3.19c-.69.5-1.41,1-2.13,1.43a48.3,48.3,0,0,1-14-7.27c-.55-.41-1.08-.83-1.62-1.26s-1-.87-1.55-1.32c-1-.9-2-1.83-2.91-2.8-.47-.47-.92-1-1.37-1.47s-.87-1-1.3-1.52A49,49,0,0,1,59.7,77.08c.61-.28,1.23-.54,1.85-.79A36.59,36.59,0,0,1,65.33,75c.65-.19,1.3-.35,1.94-.5a41,41,0,0,0,7.37,14.44c.43.54.86,1,1.3,1.56s.89,1,1.37,1.48c.92,1,1.89,1.87,2.9,2.75L81.76,96c.54.41,1.07.81,1.63,1.19A40.84,40.84,0,0,0,98.94,103.76Z"/><path d="M74.32,102.83a48.49,48.49,0,0,1-14,7.27c-.84.27-1.66.52-2.52.75s-1.67.44-2.53.61a47.63,47.63,0,0,1-5.22.81c-.88.09-1.77.15-2.66.19s-1.5.06-2.25.06h-.46a50.21,50.21,0,0,1-7.7-.68c-.66-.1-1.32-.23-2-.37s-1.32-.29-2-.46c-1.34-.33-2.66-.75-4-1.2-.65-.23-1.31-.48-1.95-.73.06-.7.12-1.39.19-2.08.16-1.38.37-2.74.63-4.07.13-.68.29-1.34.44-2s.35-1.31.54-2A49.07,49.07,0,0,1,34,87.15c.09,1.16.19,2.31.37,3.45A41.24,41.24,0,0,0,35.83,97c-.5,1.31-.94,2.66-1.32,4-.19.65-.34,1.29-.5,1.94s-.27,1.31-.39,2c.64.18,1.28.34,2,.49s1.3.29,2,.41c.81.13,1.63.26,2.47.35s1.66.18,2.51.23,1.64.08,2.49.09h.12a43.31,43.31,0,0,0,4.71-.26c.8-.09,1.57-.2,2.36-.33s1.56-.28,2.32-.45a42.64,42.64,0,0,0,15.36-6.83c.93,1,1.9,1.93,2.9,2.84C73.27,101.94,73.8,102.4,74.32,102.83Z"/><path d="M94.11,63.52c0,.46,0,.9,0,1.34,0,.71-.06,1.41-.11,2.12s-.09,1.38-.17,2.07c-.16,1.38-.36,2.74-.64,4.08-.14.67-.28,1.33-.45,2s-.33,1.31-.51,2a49.17,49.17,0,0,1-9.12,17.38q-.79-.61-1.56-1.26a37.85,37.85,0,0,1-2.91-2.76c-.46-.48-.92-1-1.36-1.5A40.83,40.83,0,0,0,84.6,74.5c.17-.64.35-1.29.48-1.94s.29-1.3.41-2c.21-1.31.39-2.64.49-4,0-.67.09-1.35.09-2,0-.35,0-.7,0-1.06s0-.66,0-1a41.85,41.85,0,0,0-.66-6.48c.73.25,1.46.51,2.16.82a28.88,28.88,0,0,1,4.31,2.25c.73.47,1.43.95,2.12,1.47C94.07,61.56,94.11,62.54,94.11,63.52Z"/><path d="M90.51,45.13c-.83-.31-1.69-.59-2.53-.84a41.22,41.22,0,0,0-5-1.17c-.83-.14-1.66-.26-2.5-.36a43.22,43.22,0,0,0-3.21-4.66c-.42-.53-.85-1.05-1.3-1.56-.44.51-.87,1-1.3,1.56a38.07,38.07,0,0,0-3.2,4.66c-.43.72-.81,1.44-1.19,2.17s-.73,1.46-1,2.2a38,38,0,0,0-1.64,4.44c-.24.74-.43,1.49-.61,2.25s-.34,1.49-.49,2.24a40.66,40.66,0,0,0-.66,6.48c-.68.13-1.35.29-2,.45-1.36.34-2.69.74-4,1.18-.66.21-1.34.44-2,.69,0-.44,0-.88,0-1.34,0-1,0-2,.1-2.92S58,58.85,58.1,58s.22-1.75.36-2.61a46,46,0,0,1,1.17-5.16c.24-.86.51-1.72.8-2.56s.59-1.69.94-2.52a49.42,49.42,0,0,1,7.44-12.55c.43-.52.86-1,1.3-1.52s.9-1,1.37-1.46c.92-1,1.9-1.91,2.91-2.81.5-.44,1-.89,1.55-1.31.52.42,1,.87,1.56,1.31,1,.9,2,1.83,2.9,2.81.47.47.92,1,1.36,1.46s.88,1,1.31,1.52A49.42,49.42,0,0,1,90.51,45.13Z"/></g></svg>