<svg xmlns="http://www.w3.org/2000/svg" viewBox="0 0 150 150"><title>triskeles-bold</title><g id="Triskeles"><path id="Outline" d="M99,75.08a13.93,13.93,0,0,0-5.89.8,13.7,13.7,0,0,0-8.88,11.61,11.73,11.73,0,0,0,10.7,12.73,9.93,9.93,0,0,0,2.57-.12L96,92.22a2.1,2.1,0,0,1-.5,0A3.71,3.71,0,0,1,93,90.92a3.67,3.67,0,0,1-.85-2.72,5.66,5.66,0,0,1,6.12-5.14,8.09,8.09,0,0,1,7.34,8.75,11.12,11.12,0,0,1-12,10.08,15,15,0,0,1-13.5-15.8,16,16,0,0,1,.68-3.76c.12-.37.25-.73.38-1.08s.29-.72.45-1.07.36-.74.51-1C83.63,76.36,86,74.42,87.87,72A23.13,23.13,0,0,0,91.71,64a19.11,19.11,0,0,0-13.5-23.39A16.07,16.07,0,0,0,58.52,52a13.4,13.4,0,0,0-.24,6,13.7,13.7,0,0,0,9.89,10.75,11.73,11.73,0,0,0,14.39-8.33,10.52,10.52,0,0,0,.32-2.54h-8a2,2,0,0,1-.06.51A3.73,3.73,0,0,1,70.25,61a5.68,5.68,0,0,1-4.1-4.46,5.57,5.57,0,0,1,.1-2.47A8,8,0,0,1,70,49.16a8.06,8.06,0,0,1,6.13-.81A11.12,11.12,0,0,1,84,62a14.9,14.9,0,0,1-3.92,6.73,14.19,14.19,0,0,1-2.44,1.93A14.83,14.83,0,0,1,74.86,72a15.29,15.29,0,0,1-3,.78c-3.92.61-7.41-1-11.2-1.61A22.67,22.67,0,0,0,46.15,74c-.56.32-1.11.67-1.64,1a19.1,19.1,0,0,0-4.69,26.59A16.08,16.08,0,0,0,62.2,105.6a13.66,13.66,0,0,0,4-4.41c3.7-6.53,1.34-16-6-18.79a12.17,12.17,0,0,0-13,3.07l6.17,5a4.23,4.23,0,0,1,5.52.6,5.21,5.21,0,0,1,.64,5.71,6.82,6.82,0,0,1-4.77,3.46,9,9,0,0,1-9.2-4.35,10.73,10.73,0,0,1,.13-10.39,13.33,13.33,0,0,1,8.56-6.2,14.92,14.92,0,0,1,16.29,7.33c1.26,2.45,1.76,5.2,2.71,7.78,3,8.25,10.79,14.64,19.62,15.42.57,0,1.13.07,1.69.07a19.12,19.12,0,0,0,19-17.42A16.12,16.12,0,0,0,99,75.08Z"/></g></svg>