<svg xmlns="http://www.w3.org/2000/svg" viewBox="0 0 150 150"><title>wheeloftaranis-bold</title><g id="Wheel_of_Taranis" data-name="Wheel of Taranis"><path d="M75,31a44,44,0,1,0,44,44A44.05,44.05,0,0,0,75,31Zm35.77,40H94.6A20.09,20.09,0,0,0,79,55.4V39.23A36.05,36.05,0,0,1,110.77,71ZM75,87A12,12,0,1,1,87,75,12,12,0,0,1,75,87ZM71,39.23V55.4A20.09,20.09,0,0,0,55.4,71H39.23A36.05,36.05,0,0,1,71,39.23ZM39.23,79H55.4A20.09,20.09,0,0,0,71,94.6v16.17A36.05,36.05,0,0,1,39.23,79ZM79,110.77V94.6A20.09,20.09,0,0,0,94.6,79h16.17A36.05,36.05,0,0,1,79,110.77Z"/></g></svg>