<?xml version="1.0" encoding="UTF-8"?>
<svg id="Livello_3" data-name="Livello 3" xmlns="http://www.w3.org/2000/svg" viewBox="0 0 120 120">
  <path d="m19.77,69.84c-.35.19-.75.41-1.76.69-1.54.43-2.59.72-3.16,1.2,0,0-.02,0-.02,0-3.71,1.42-4.57,3.54-4.7,3.95l-.12.38.03.39c.42,5.87,7.46,10.43,13.92,12.74,1.58.56,4.47,1.46,7.11,1.58-1.22,4.34-1.33,10.59-1.11,12.61.23,2.16.42,3.55,1.15,4.8.49.85,1.37,1.39,2.34,1.45.06,0,.12,0,.19,0,.93,0,1.81-.43,2.38-1.18,1.41-1.85,7.03-5.06,13.97-7.99,2.4-1.01,4.01-2.76,5.07-4.77.1.15.2.3.31.44,1.33,1.67,3.18,2.65,5.34,2.83,6.01.52,10.26-1.98,12.4-7.13,1.05,1.6,2.52,3.4,4.6,5.25-3.52.05-5.94.49-6.99,2.22-.35.58-.81,1.8.09,3.41l.38.67.73.25c11.13,3.76,22.05,2.89,22.51,2.85l.57-.05c4.07,1.37,8.8,2.59,14.33,3.56l.69-3.94c-2.09-.37-4.06-.77-5.92-1.21-2.12-2.75-8.76-10.73-14.08-10.36l-1.05.07-.53.9c-.71,1.21-.82,2.45-.57,3.64-9.71-5.07-12.39-10.74-13.09-12.93.04-.03.08-.06.11-.1.17-.15.34-.3.54-.47,2.32-1.97,3.54-3.9,4.1-5.7.47.39.97.77,1.52,1.14,4.26,2.91,7.71,4.37,10.31,4.37,1.15,0,2.13-.29,2.95-.86,1.34-.95,2.68-3.05,1.46-7.64l-.4-1.52c-1.21-4.66-2.32-8.87-6.15-12.94,6.24-.57,7.87-1.95,9.45-4.41.66-1.03,1.28-2,3.47-3.16,4.73-2.5,6.85-3.82,7.29-5.96.4-1.95-.92-3.57-2.08-5-2.58-3.17-14.23-4.51-21.06-5.03l2.72-3.83c2.5-2.15,2.99-2.85,3.46-4.22.15-.43.32-.93.94-1.95.97-1.58,1.57-2.57,1.65-3.32,0-.02.02-.04.03-.06,1.91-3.87,1.07-6.15.89-6.57l-.16-.36-.29-.27c-4.51-4.28-13.33-2.79-20.08.04-1.47.62-5.04,2.24-7.51,4.39-2.23-4.22-6.48-8.94-7.87-10.13-1.52-1.31-2.29-1.97-3.43-2.4-1.07-.4-2.27-.26-3.22.37-.95.63-1.54,1.69-1.57,2.83-.09,2.89-2.28,9.16-5.72,16.35-2.57,5.37.01,10.61,2.72,14.14-.43.11-.86.26-1.3.48-2.86,1.46-5,3.87-5.94,6.65-4.73-3.73-6.71-3.84-9.36-3.15-1.03.27-2.01.52-4.1-.05-4.72-1.29-6.97-1.74-8.64-.53-1.54,1.1-1.65,3.05-1.74,4.77-.21,3.69,6.24,11.38,10.76,16.29l-3.75.78c-2.99-.12-3.77.04-4.95.68Zm57.76,31.25c1.25-.03,2.52,0,3.32.02.89.02,1.7.04,2.37.02.66.4,1.36.8,2.09,1.19-2.35-.22-5.01-.59-7.78-1.24Zm14.42-2.18c1.5.71,3.33,2.25,5.08,4-.93-.3-1.83-.61-2.69-.92-1.01-.95-1.98-2.11-2.4-3.07Zm-43.55-2.12c-3.31,1.39-10.67,4.7-14.28,7.88-.07-.45-.13-1.01-.21-1.71-.36-3.35.47-11.58,1.78-13.03.62-.68,2.71-1.42,5.85-1.43h.04c3.33,0,5.5.8,5.87,1.21l3.22,3.57.25-4.79c.08-.39.78-1.03,1.75-1.7.01.77.06,1.59.16,2.46-.37,3-1.48,6.31-4.43,7.55Zm12.62-1.79c-1.09-.09-1.9-.52-2.56-1.34-.9-1.12-1.37-2.8-1.6-4.51.22-2.09.15-3.93.06-5.04,1.16,1.39,2.78,2.33,4.79,2.75,4.03.83,6.52,1.27,8.3,1.27.03,0,.05,0,.07,0-1.54,6.66-5.81,7.16-9.05,6.87Zm11.79-12.42c-.21.18-.41.35-.59.51-1.48,1.3-1.71,1.5-9.71-.15-1.46-.3-2.4-.96-2.97-2.07-1.47-2.87-.17-7.99.9-10.99.78.19,1.5.29,2.13.29.41,0,.79-.04,1.13-.13,1.59-.42,2.56-1.74,2.53-3.45-.01-.68-.02-1.26-.02-1.76,0-.66-.02-1.22-.04-1.69,3.69,2.92,5.42,5.89,7.09,8.79.57.99,1.16,1.99,1.81,2.98,1.57,2.67.87,5-2.27,7.67Zm19.05-4.61c.62,2.35.27,3.23.09,3.35-.44.31-2.99.34-8.69-3.55-2.22-1.52-3.62-3.18-4.83-5.01-.16-.27-.32-.52-.48-.75-.41-.67-.82-1.36-1.23-2.08-2.22-3.84-4.7-8.14-11.37-12.22,1.79-.12,4.04-.13,6.46.19v.06s4.22,1.04,8.99,2.99c7.87,4.79,8.98,9.05,10.65,15.48l.4,1.54Zm-11.33-57.19c5.19-1.54,9.5-1.5,11.72.09,0,.49-.1,1.46-.81,2.91-.25.51-.55,1.11-.67,1.7-.19.32-.46.75-.83,1.36-.86,1.4-1.14,2.21-1.32,2.75-.17.51-.25.75-2.46,2.63l-.19.16-7.18,10.12,3.63.19c10.56.55,20.53,2.28,21.77,3.79.27.33,1.02,1.26,1.22,1.71-.63.79-3.8,2.46-5.19,3.2-3.12,1.65-4.19,3.32-4.97,4.54-.92,1.43-1.58,2.47-9.65,2.78-1.01-.48-2.02-.93-3.01-1.34-4.75-2.82-9.93-3.65-14.1-3.74,4.12-1.61,9.96-3.13,14.58-1.33-.06.84.01,1.75.29,2.73l3.84-1.1c-.77-2.67,1.44-4.15,1.7-4.31l-2.09-3.41c-.72.44-1.65,1.24-2.4,2.34-4.77-1.81-10.25-.96-14.67.42,5.68-5.04,12.85-12.02,15-16.79,1.36-.3,2.59-1.01,3.4-2.4l-3.46-2c-.64,1.1-3.49.44-4.87-.16l-1.61,3.66c.61.27,1.35.52,2.15.72-1.35,2.12-3.89,4.97-6.9,7.97.79-1.48,1.4-2.92,1.74-4.23,1.49-.4,2.84-1.02,3.55-2l-3.18-2.41c-.52.46-3.01.97-5.23,1.08l.19,4c.08,0,.17,0,.25-.01-1.07,2.5-3.2,5.68-5.57,8.76.22-1.24.33-2.39.3-3.4.62-.35,1.23-.8,1.82-1.38l-2.79-2.87c-1.87,1.82-4.19,1.46-4.29,1.44l-.36,1.97-.38,1.96c.06.01.56.1,1.33.1.2,0,.42,0,.65-.02-.19,1.95-.94,4.97-2.08,8.33-.66-.75-1.19-1.31-1.46-1.6-.45-.8-1.04-1.68-1.74-2.51.68-1.52,1.87-4.63,1.71-7.24,2.14-.83,4.46-2.53,6.24-4.18,1.87-1.74,5.01-5.14,5.1-8.48.29-1.18,4.78-4.53,11.27-6.46Zm-30.87,10.74c1.7-3.56,5.57-12.11,6.06-17.22.36.25.84.66,1.67,1.38,2.69,2.31,7.9,9.31,7.87,11.44-.02,1.07-1.2,3.24-3.82,5.67-2.84,2.64-5.24,3.67-5.91,3.62l-4.61-.3,2.94,3.55c.26.45.05,1.92-.45,3.56-2.41-2.59-5.83-7.33-3.74-11.69Zm-4.4,20.97c.56-1.83,2.07-3.51,4.03-4.51.27-.14.54-.2.82-.2,2.21,0,4.44,3.95,4.47,4l.14.27.21.21s3.08,3.08,5.38,6.88c.26.43.49.8.69,1.12q1.19,1.93,1.22,4.61c0,.39,0,.83.02,1.35-3.28-.11-15.03-7.07-16.65-10.03-.77-1.41-.6-2.79-.32-3.7Zm-20.23,20.7l11.29-2.34-2.52-2.61c-6.59-6.83-12.14-14.11-12.12-15.91.02-.34.07-1.25.18-1.71,1-.06,3.87.75,5.15,1.1,3.12.86,4.88.4,6.16.07,1.43-.37,2.47-.63,8.11,4.28.17.71.43,1.4.78,2.05,1.34,2.46,8.53,7.76,14.6,10.44-.26.72-.55,1.59-.82,2.57-.41.02-.88.04-1.43.07v-.06c-.11-.03-11.72-2.7-15.16-9.53.53-.52,1.01-1.17,1.4-1.96l-3.59-1.77c-1.01,2.05-3.09,1.77-3.5,1.69l-.39,1.96-.42,1.96c.38.08.85.13,1.37.13.49,0,1.03-.05,1.59-.16,1.99,3.88,5.76,6.61,9.33,8.44-6.77.65-14.57,1.74-18.45,3.53-1.26-.98-2.8-1.51-4.54-.98l1.17,3.82c.91-.27,2.35,1.8,2.9,3.04l3.67-1.6c-.15-.34-.34-.72-.55-1.1,2.45-.88,6.7-1.62,11.41-2.2-1.57.66-3.01,1.41-4.16,2.25-1.19-.6-2.42-.97-3.46-.77l.78,3.92c-.08.02-.13.01-.13.01.62.05,2.53,1.23,4.01,2.48l2.59-3.05c-.06-.05-.13-.11-.19-.16,3.66-2.02,10.36-3.67,14.81-4.41-.07,1.45.05,2.89.42,4.24l-1.29.55c-1.17.5-4.25,1.97-5.95,4.07-1.93-.76-4.43-1.08-6.56-1.05-2.25,0-6.22.36-8.46,2.44l-.24-.23c.05-.05.08-.07.09-.07-1,.58-6.39-.16-11.81-3.04-3.92-2.08-6.48-4.59-7.01-6.82.3-.31.93-.82,2.15-1.29.46-.18,1.03-.39,1.49-.72.32-.09.75-.21,1.34-.37,1.45-.4,2.14-.78,2.59-1.03.37-.2.56-.31,3.11-.19h.25Z"/>
</svg>