<?xml version="1.0" encoding="UTF-8"?>
<svg id="Livello_3" data-name="Livello 3" xmlns="http://www.w3.org/2000/svg" viewBox="0 0 120 120">
  <path d="m15.21,100.18c-4.32,1.05-5.5,3.64-5.16,5.72.42,2.57,3.02,4.36,6.15,4.36.24,0,.49-.01.73-.03,8.05-.54,14.43-3.53,18.97-8.89,5.77-6.82,7.17-15.85,7.42-21.53,1.76,1.85,3.91,3.65,6.45,5.07-1.67,5.87-2.35,10.27-2.01,13.16-1.14.18-2.52.64-3.51,1.76-.77.86-1.57,2.42-1.02,4.95l3.91-.84c-.09-.4-.19-1.12.1-1.44.38-.43,1.52-.58,2.19-.52l.04-.36c.07.05.14.11.22.16.1.06.22.1.32.16,3.21,1.42,1.75,5.58,1.57,6.06l3.74,1.42c.66-1.73.86-3.25.77-4.58.44.32.78.65.89,1,.18.53-.18,1.3-.51,1.85l3.43,2.06c1.1-1.84,1.4-3.58.87-5.17-.94-2.83-4.18-4.16-6.79-5.22-.65-.27-1.27-.52-1.79-.77-.12-.07-.24-.14-.36-.2-.52-1.34.21-6.45,1.65-11.79,2.22.77,4.67,1.23,7.38,1.23.03,0,.06,0,.09,0-.24,1.49-.34,3.33.17,4.93-1.31.62-2.72,1.61-3.37,3.16-.46,1.11-.69,2.91.84,5.16l3.31-2.25c-.24-.35-.61-.99-.45-1.38.24-.59,1.42-1.17,2.43-1.48.4.31.86.79,1.01,1.36.16.63-.07,1.41-.7,2.31l3.29,2.27c.84-1.22,1.24-2.33,1.38-3.29.3.64.44,1.54.44,2.9l4,.02c.04-6.55-3.57-7.75-5.96-8.55-.6-.2-1.17-.39-1.65-.64-.16-.1-.29-.18-.4-.23-.76-.56-.64-2.79-.19-4.66,2.72-.46,4.91-1.29,6.67-2.35,3.28,9.27,7.16,19.73,8.63,21.81,1.53,2.16,3.75,3.47,5.8,3.47.23,0,.46-.02.69-.05,1.59-.24,2.8-1.28,3.32-2.86.39-1.17,1.02-3.13-14.43-25.96.12-.16.23-.31.34-.47,7.11,8.96,20.42,25.34,24.61,27.78,1.67.98,3.3,1.46,4.69,1.46s2.55-.48,3.3-1.45c1.31-1.68,1.61-4.99-4.42-11.23-7.64-7.91-21.1-18.16-25.91-21.68.11-.46.21-.91.28-1.33.08-.48.13-.98.17-1.49,5.13,4.22,10.31,8.15,14.63,11.06,7.27,4.91,10.68,6.1,12.65,6.1.52,0,.94-.08,1.31-.21,1.09-.36,1.86-1.22,2.12-2.36,1.35-5.92-4.32-8.42-9.81-10.84-.94-.41-1.92-.85-2.91-1.31-8.18-3.81-16.05-7.98-18.47-9.28-.13-.64-.29-1.27-.47-1.89,3.38,1.43,8.34,4.07,11.74,5.88,3.16,1.69,6.15,3.28,8.35,4.28,3.13,1.42,5.45,1.9,7.17,1.9,2.38,0,3.57-.92,4.1-1.5.86-.96,1.01-2.24.4-3.25-5.01-8.29-27.43-11.43-33.66-12.16.62-.66,1.14-1.38,1.59-2.15,2.45.57,7.47,1.69,12.68,2.56,5.25.87,8.99,1.21,11.68,1.21,4.37,0,6-.9,6.91-1.9l.29-.32.13-.42c.35-1.12.15-2.23-.58-3.14-3.17-3.96-20.11-3.26-29.65-2.53.03-.28.06-.56.07-.84,11.05-.37,27.89-1.93,30.12-7.96.67-1.81-.2-2.94-.61-3.34-1.01-.99-3.66-3.58-30.33,6.6-.1-.25-.2-.49-.32-.74,3.03-1.66,7.5-3.69,11.86-5.67,13.6-6.17,18.35-8.59,18.35-11.62,0-2.21-1.01-3.35-1.85-3.92-1.84-1.23-4.66-1-8.87.73-4.05,1.66-15.94,11.62-22.05,16.88-.6-.6-1.26-1.14-1.98-1.62,2.78-4.07,7.65-8.94,12-13.29,8.12-8.12,11.97-12.17,10.8-15.44-.35-.97-1.28-2.17-3.75-2.42-9.14-.92-18.79,19.26-23.01,29.32-.42-.12-.86-.21-1.3-.29.18-.95.44-2.18.71-3.46,2.89-13.79,4.01-21.82,1.71-24.77-.63-.81-1.52-1.27-2.51-1.3-1.25-.04-2.37.42-3.24,1.34-3.11,3.29-2.57,12.24-1.55,23.59.16,1.71.29,3.25.39,4.56-.3.05-.6.09-.89.16-1.33-6.9-5.9-26.46-15.27-28.71-1.27-.3-2.57.16-3.4,1.22-.86,1.09-1.01,2.58-.38,3.8,1.27,2.47,3.56,5.85,3.88,6.33.25.41.68,1.1,1.25,2,2.34,3.71,7.02,11.09,9.8,17.08-.17.11-.34.2-.5.32-4.39-5.26-17.92-21.3-22.33-24.3-4.37-2.97-7.43-3.97-9.66-3.12-.93.35-2.15,1.2-2.65,3.21-.72,2.86,3.05,6.04,18.38,17.15,5.06,3.67,10.27,7.44,13.29,10.08-.09.13-.19.26-.27.39l-1.15-.65c-.78-.44-1.49-.83-1.63-.92-1.04-.63-2.39-1.49-3.95-2.48-15.38-9.77-25.18-15.14-29.74-13.67-1.15.37-1.99,1.15-2.43,2.24-.37.93-.33,1.93.11,2.88,1.77,3.85,10.43,7.03,24.49,11.83,4.88,1.66,9.5,3.24,12.79,4.65-.02.12-.06.23-.08.35-.03.2-.04.4-.07.61-7.91-2.69-29.39-9.58-37.38-7.94-1.77.36-3.04,1.77-3.25,3.59-.21,1.83.73,3.51,2.39,4.27,7.82,3.57,32.33,4.63,38.71,4.85.05.16.1.33.16.49-10.59-.47-35.89-1.06-40.75,3.69-1.04,1.01-1.22,2.09-1.2,2.82.03.96.49,1.86,1.29,2.56,1.37,1.2,3.79,1.79,7.34,1.79,1.37,0,2.92-.09,4.63-.27,3.65-.38,9.11-1.79,14.9-3.29,4.91-1.27,11.26-2.92,14.64-3.26.55.03,1.1.06,1.66.09.06.07.12.13.18.19-.62.12-1.25.28-1.9.47-4.95,1.5-9.08,4.96-12.39,7.74-1.08.9-2.77.27-2.78.27l-4.4-1.79,1,2.45s-.04,0-.06,0c-3.48,0-6.37,2.59-6.93,5.98-4.86,2.81-7.93,2.21-10.64,1.68-2.08-.41-4.43-.88-6.5,1.01-1.66,1.51-2.13,3.47-1.28,5.23,1.17,2.4,4.59,3.85,8.67,3.85.97,0,1.97-.08,2.99-.25,1.89-.32,3.46-1,4.77-1.86-3.13,3.58-6.83,4.39-10.65,4.86-2.85.34-5.23,2.62-5.9,4.61-.43,1.28-.17,2.53.69,3.36,1.29,1.23,3.08,1.9,4.98,1.9.47,0,.94-.04,1.42-.12,12.57-2.21,16.35-10.47,17.49-15.18-.29,4.18-3,8.08-4.79,10.22-3.01,3.6-10.9,5.52-15.13,6.55Zm86.21.15c3.39,3.51,3.96,5.31,4.06,5.9-.46.03-1.44-.17-2.74-.92-2.06-1.2-8.43-8.26-17.05-18.81,5.54,4.42,11.68,9.62,15.74,13.83Zm3.69-27.94c-1.07-.01-2.85-.34-5.48-1.54-2.09-.95-5.02-2.51-8.13-4.17-.33-.17-.65-.34-.96-.51,8.76,2.18,12.75,4.51,14.57,6.22Zm-1.37-15.31c-2.32.18-6.17-.11-10.85-.8,4.77.02,8.64.29,10.85.8Zm-11.91-42.93c.09,0,.17,0,.26.01.09,0,.17.02.24.03-.79,2.08-5.91,7.2-9.72,11.02-1.17,1.17-2.38,2.38-3.58,3.6,4.58-8.38,9.45-14.66,12.81-14.66Zm-39.59,7.69c-.57-.9-1-1.57-1.22-1.96l-.07-.11s-1.67-2.45-2.94-4.63c2.71,1.68,5.11,6.07,7.03,11.18-1.08-1.76-2.06-3.3-2.8-4.48Zm-32.32,8.98c.77-.08,3.29.13,10.27,3.81,2.29,1.21,4.69,2.59,7.02,3.99-7.07-2.47-15.81-5.75-17.29-7.8Zm4.85,30.68c-5.57.58-7.77.01-8.56-.34,2.04-1.49,10.54-2.41,21.74-2.55-5.02,1.3-10.06,2.57-13.18,2.9Zm61.49,44.84c-.37.04-1.59-.33-2.62-1.78-.61-.86-2.19-4.69-4.37-10.51,4.29,6.73,6.55,10.83,6.99,12.28Zm8.86-27.2c1.02.48,2.02.92,2.99,1.34,5.33,2.35,7.7,3.62,7.6,5.73-2.2-.31-8.18-3.84-15.95-9.63,1.73.85,3.54,1.71,5.35,2.56Zm-29.36-36.14c.56,0,1.13.05,1.69.15,2.78.49,5.07,2.09,6.4,4.2h-5.36l-.6.79s-.98,1.3-1.96,2.6c-.64-.76-1.15-1.35-1.57-1.82l-.91-5.61c.75-.19,1.53-.31,2.32-.31Zm9.25,9.81c-.02.12-.05.23-.08.35l-6.24.56c.62-.83,1.31-1.74,1.79-2.38h4.62c.02.48,0,.97-.09,1.47Zm-3.2,5.02c-.65.46-1.37.82-2.12,1.09l-3.91-1.25-.17-1.05.48.58,1.52-2.04c.05-.07.11-.15.17-.23l5.63,1.4c-.45.56-.99,1.07-1.6,1.5Zm-10.46-10.49h-3.3c.53-.98,1.28-1.85,2.21-2.56l1.09,2.56Zm1.09,5.53l-4.31-1.53h2.95c.35.38.83.92,1.36,1.53Zm1.55,1.8c.16.19.32.38.47.56l.5.61.77,1.81-7.17-2.29c-.19-.27-.36-.56-.51-.85l5.94.16Zm40.62-11.09c-1.99,1.41-7.08,2.67-13.8,3.5,6.3-2.05,11.31-3.34,13.8-3.5Zm-5.67-13.81c2.45-1.01,3.8-1.21,4.49-1.21.46,0,.63.09.63.09,0,0,.05.08.08.29-1.43,1.65-9.43,5.32-15.2,7.94,4.5-3.59,8.35-6.43,10.01-7.11Zm-31.33-15.89c.62,1.91-.1,7.38-.99,12.45-.31-5.36-.3-10.83.99-12.45Zm-40.11,3.88s.05-.07.05-.07c.01,0,1.31-.51,6,2.68,1.8,1.23,5.83,5.49,10.1,10.3-6.11-4.43-14.74-10.72-16.15-12.91Zm-10.86,28.14s-.07-.03-.08-.1c-.01-.09.02-.17.08-.2.62-.13,1.35-.19,2.19-.19,4.9,0,13.28,2,21,4.21-8.85-.66-19-1.81-23.19-3.72Zm28.17,24.59c3.04-2.55,6.82-5.72,10.98-6.98,2-.61,5.7-1.31,7.96.8l.13.12c2.18,2.16,2.13,4.98,1.36,6.9-.74,1.84-2.56,3.82-5.44,3.86-5.75.09-12.74-3.14-12.81-3.17l-1.68,3.63c.32.15,7.91,3.61,14.54,3.54,4.05-.05,7.54-2.49,9.1-6.36,1.31-3.24.97-6.7-.81-9.47,1.53-.19,3.02-.63,4.38-1.32,1.33,1.92,3.21,7.36,2.03,12.63-.48,2.14-1.41,3.91-2.77,5.3-.19.13-.35.29-.48.47-1.98,1.77-4.75,2.85-8.31,3.22-6.42.66-12.11-1.58-16.92-6.67-1.72-1.83-3.03-3.72-3.93-5.22.92-.19,1.84-.58,2.68-1.28Zm-8.81,1.87c1.67,0,3.03,1.43,3.03,3.18s-1.36,3.18-3.03,3.18-3.03-1.43-3.03-3.18,1.36-3.18,3.03-3.18Zm-14.35,9.56c-4.52.75-7.28-.77-7.41-1.42,0-.04.09-.23.39-.51.25-.23.52-.34.97-.34s1.08.11,2.05.3c1.98.39,4.63.92,8.08.07-1.05.89-2.39,1.62-4.09,1.9Zm-4.73,12.75c-.88.15-1.72.03-2.38-.33.42-.58,1.37-1.39,2.37-1.51,3.86-.47,8.04-1.32,11.72-4.66-2.09,2.77-5.65,5.43-11.71,6.5Zm16.46,1.54c1.36-1.63,3.16-4.11,4.38-7.07-.97,3.34-2.51,6.76-4.96,9.64-3.81,4.49-9.24,7-16.21,7.47-1.68.15-2.58-.66-2.63-.99-.02-.13.46-.77,2.16-1.19,6.48-1.57,13.7-3.61,17.26-7.87Z"/>
</svg>