<?xml version="1.0" encoding="UTF-8"?>
<svg id="Livello_3" data-name="Livello 3" xmlns="http://www.w3.org/2000/svg" viewBox="0 0 120 120">
  <path d="m90.29,56.02c1.73-.33,4.89-1.75,5.8-5.01.49-1.77,1.23-4.03,1.76-5.62.32-.95.16-2-.43-2.81-.59-.81-1.54-1.3-2.54-1.3h-24.61c.77-5.63,2.07-14.72,2.34-15.79.5-1.98.07-4.23.02-4.48l-.12-.61-9.57-9.22-1.37,1.05s-2.35,1.8-6.34,4.78c-1.26.94-4.9,3.66-4.17,6.09.06.54.22,1.98.4,3.99l-16.37,13.49-8.88-.21s-.05,0-.08,0l30.53-27.35-2.67-2.98L10.22,49.25l2.67,2.98,10.42-9.34c-.02.17-.03.34-.02.52.1,1.44.38,3.73,1.1,5.97l-13.69,11.28,2.54,3.09,12.93-10.65c.93,1.31,2.16,2.33,3.78,2.79l-19.25,15.86,2.54,3.09,22.37-18.43c1.53.05,3.32.09,5.29.12l-30.25,26.36,2.63,3.02,33.66-29.33c.46,0,.93,0,1.4,0-.64,1.07-1.14,2.39-1.39,4.03-.07.47-.14.95-.22,1.42L10.64,94.53l2.68,2.97,32.38-29.16c-.31,1.79-.58,3.32-.77,4.34-2.59.91-3.29,3.96-3.66,7.1l-30.61,26.67,2.63,3.02,27.78-24.21c.22.92.66,1.67,1.33,2.21.08.06.16.12.24.17-.56.83-1.07,1.81-1.39,2.9l-18.31,16.49,2.68,2.97,14.83-13.36c-.41,2.91-.93,5.73-.94,5.77l-.07.4.08.39c.17.79,1.16,4.76,3.97,5.6l.28.08h27.61l.46-.26c7.97-4.51,8.5-5.78,8.73-6.32.33-.79.22-1.73-.36-3.12-.79-1.88-2.67-5.03-5.01-7.62.25-.1.43-.18.51-.21l1.13-.53.02-1.25c0-.43.19-10.54,0-13.51-.08-1.17-.53-2.23-1.14-3.14.38-.32.66-.74.8-1.23.29-1.01,1.06-10.18-1.6-15.37,7.46-.11,13.35-.24,15.06-.27l.33-.03ZM57.62,20.2c2.21-1.65,3.92-2.94,5.01-3.77l6.16,5.94c.07.61.1,1.48-.06,2.14-.42,1.66-2.24,14.92-2.43,16.34,0,0-.8.45-2.38.39h-1.34s-5.42-.14-5.42-.14c-.34-.43-1.04-1.66-1.13-4.67-.21-6.92-.85-12.6-1-13.84.21-.31.83-1.07,2.59-2.39Zm-5.8,11.76c.09,1.44.16,2.98.21,4.59.06,1.85.31,3.29.68,4.44l-11.51-.27,10.62-8.75Zm18.61,55.85c-3.1-2.08-17.55-5.7-21.52-4.39-1.15.38-3.24,1.07-3.96.93-.04-.14-.09-.47-.02-1.11l.13-1.3c.38-3.83.7-5.54,1.59-5.54h7.87c1.48,0,2.92-.38,4.17-1.09.93-.53,2.48-1.3,4.58-1.97,2.89-.92,5.75-.59,6.66-.45,1.06.68,2.84,2.16,2.92,3.44.14,2.18.06,8.86.02,11.78-.57.14-1.18.2-1.66.11-.26-.15-.52-.28-.79-.4Zm2.35-18.31c-.45-.09-.98-.24-1.43-.4l-.25-.07c-.18-.04-4.49-.95-9.03.5-2.44.78-4.25,1.69-5.35,2.31-.65.37-1.4.56-2.19.56h-5.47c.47-2.62,1.24-7.03,1.87-11.21.67-4.43,3.73-4.62,4.39-4.63h14.48c.27.08.75.3,1.26,1.06,1.92,2.89,1.91,9.23,1.73,11.88Zm-2.46,35.38h-25.77c-.33-.33-.78-1.27-1.03-2.17.28-1.55,1.2-6.82,1.38-10.05.11-1.97,1.76-3.84,2.68-4.66.86-.22,1.74-.5,2.61-.79,2.71-.89,16.18,2.54,17.94,3.86.47.39.98.66,1.51.85,2.97,1.94,6.19,6.95,6.96,8.96-1.1.88-3.82,2.6-6.27,4ZM31.21,52.1c-2.19-.46-3.38-4.2-3.8-7.71l28.82.68c.25.06.5.1.76.1l5.49.05,2.37.06h28.83c-.48,1.47-1.03,3.22-1.44,4.66-.4,1.44-2.1,2-2.57,2.12-21.51.45-54.68.84-58.46.04Z"/>
  <path d="m102.37,17.36l-3.38-6.73-3.38,6.73-7.63,1.09,5.53,5.3-1.3,7.43,6.78-3.51,6.78,3.51-1.3-7.43,5.53-5.3-7.63-1.09Zm-1.92,6.56l-1.45-.75-1.45.75.28-1.59-1.14-1.09,1.57-.22.74-1.47.74,1.47,1.57.23-1.14,1.09.28,1.59Z"/>
  <rect x="6.29" y="23.13" width="40.44" height="4" transform="translate(-10.01 24.37) rotate(-42.28)"/>
  <rect x="8.52" y="17.09" width="23.39" height="4" transform="translate(-7.55 17.62) rotate(-40.33)"/>
</svg>