<?xml version="1.0" encoding="UTF-8"?>
<svg id="Livello_3" data-name="Livello 3" xmlns="http://www.w3.org/2000/svg" viewBox="0 0 120 120">
  <path d="m110.99,70.63v-2.29c-.02-13.16-3.58-56.24-48.49-58.34h-.06s-2.31.02-2.31.02h-.06s0,0,0,0c-.01,0-.02,0-.03,0h-.03s-.03,0-.04,0c-.54.02-1.08.08-1.62.16-16.95,1.7-30.27,9.97-38.56,24.02-6.92,11.73-9.07,25.3-8.76,34.08.02.59.02,1.58.03,2.78.03,7.77.21,12.03,1.04,13.74,5.22,10.69,20.27,13,26.23,13.5v7.53c0,2.3,1.81,4.17,4.04,4.17h4.36c2.74,0,6.01-.64,6.01-3.71l-.14-22.25c0-5.09,1.78-10.24,5.2-10.24h6.34c3.7,0,5.64,4.85,5.64,9.64v23.01c0,2.45,2.73,3.55,5.43,3.55h4.36c2.22,0,4.03-1.87,4.03-4.17v-6.93c4.53-.78,19.91-4.09,26.94-13.8l.35-.48.03-.6c.12-2.65.11-8.11.1-13.39Zm-72.02,4.19c-4.81-.6-9.19-1.73-12.9-3.06,1.31-5.99,2.65-10.38,3.43-12.74,4.95,1.83,10.54,3.04,16.27,3.74-3.68,2.85-5.82,7.33-6.8,12.06Zm-23.96-9.07c.07-4.15.68-9.12,2.03-14.33,2.32,2.42,5.31,4.42,8.76,6.05-.77,2.3-2.13,6.69-3.48,12.77-3.38-1.53-5.9-3.15-7.3-4.49ZM84.76,29.36c-1.55-3.01-4.46-7.75-6.96-10.53-.87-.96-1.78-1.85-2.71-2.67,5.37,1.62,11.15,4.39,16.3,9.03-1.26,1.59-3.55,3-6.63,4.16Zm9.46-1.33c3.9,4.3,7.26,9.9,9.55,17.17-4.36,7.69-20.98,13.48-40.78,14.24v-22.56c13.11-.29,26.13-3.01,31.22-8.85Zm-.68,29.54c.83,2.61,2.29,7.56,3.66,13.86-4.13,1.51-9.19,2.84-14.54,3.44-1.34-5.57-3.98-9.87-7.59-12.47,7.47-1.06,13.6-2.77,18.47-4.83Zm7.42,12.32c-1.46-6.61-2.98-11.61-3.77-14.05,3.44-1.82,6.06-3.81,7.9-5.78,1.07,4.69,1.73,9.99,1.87,15.97-.73,1.02-2.89,2.44-6,3.86ZM61.25,14.01h0c4.48.18,9.43,2.92,13.58,7.51,2.17,2.4,4.65,6.44,6.06,9.07-6.33,1.69-14.7,2.56-23.73,2.26-6.32-.21-12.08-1-16.61-2.17,1.41-2.64,3.92-6.74,6.11-9.16,3.73-4.12,8.1-6.74,12.19-7.36.46-.05.92-.1,1.39-.14h1.01Zm-17.56,4.83c-2.54,2.81-5.49,7.64-7.02,10.64-2.59-.97-4.49-2.11-5.47-3.34,4.03-3.84,8.69-6.8,13.99-8.84-.51.49-1.01,1-1.49,1.54Zm-20.45,17.4c1.56-2.64,3.29-5.04,5.19-7.22,4.78,5.18,17.37,7.46,28.6,7.83.65.02,1.32.02,1.97.03v22.64c-19.34.08-34.93-4.79-40.59-12.7,1.22-3.57,2.8-7.16,4.82-10.59Zm-7.54,46.82c-.59-1.36-.62-9.1-.64-12.01,0-.07,0-.14,0-.21,5.07,3.39,13.57,6.71,23.37,7.94-.07.85-.1,1.7-.1,2.53v12.96c-5.49-.52-18.44-2.63-22.63-11.21Zm63.89,22.77c0,.11-.05.17-.03.17h-4.36c-.5,0-1.06-.09-1.43-.2v-22.36c0-8.03-3.96-13.64-9.64-13.64h-6.34c-6.35,0-9.2,7.15-9.2,14.25l.14,21.75c-.31.09-.92.2-2,.2h-4.32s-.07-.06-.07-.17v-24.52c0-11.09,4.96-17.7,13.27-17.7h10.72c7.42,0,12.63,6.96,13.27,17.79v24.43Zm27.34-22.6c-5.95,7.64-18.65,10.7-23.34,11.6v-13.43c0-.1,0-.19,0-.29-.05-.78-.12-1.55-.21-2.3,9.01-1.07,18.42-4.24,23.63-7.67,0,4.5.02,9.42-.07,12.09Z"/>
</svg>