<?xml version="1.0" encoding="UTF-8"?>
<svg id="Livello_3" data-name="Livello 3" xmlns="http://www.w3.org/2000/svg" viewBox="0 0 120 120">
  <path d="m61.93,9.97h-4v2.26h-4.68v3.23c-3.69-2.21-8.62-4.36-13.15.5-2.46,2.63-1.8,6.94,2,13.15,2.03,3.32,4.37,6.22,5.23,7.25.26.83.85,1.54,1.7,2.11v2.32h8.8v13.92c-3.77,1.35-7.46,3.06-8.72,6.17-.71,1.76-.54,3.68.51,5.7,1.37,2.66,4.63,3.88,8.22,5.04v10.6c-4.62,1.34-9.46,3.35-9.03,8.96.31,4.11,4.84,5.6,9.03,6.63v12.21l2.44-.54c8.17-1.83,11.87-4.03,12.01-7.14.18-3.94-5.95-6.26-7.97-6.92-.7-.29-1.55-.53-2.48-.76v-9.4c4.41-1.24,8.98-2.85,9.17-7.57.22-5.29-4.6-7.45-9.17-8.98v-11.15c1.73-.59,3.36-1.15,4.59-1.81,4.17-2.24,6.28-5.86,5.64-9.69-.33-1.98-1.38-3.77-2.96-5.26h1.73v-2.14c1.1-.67,1.86-1.52,2.08-2.57,1-1.21,3.14-3.91,5.01-6.97,3.8-6.22,4.45-10.52,2-13.15-4.47-4.8-9.33-2.77-13-.59v-3.14h-4.83v-2.26h-.15Zm-4.1,83.73c-2.42-.65-4.95-1.56-5.05-2.81-.16-2.15,1.37-3.27,5.05-4.46v7.27Zm0-26.28c-2.15-.74-4.11-1.59-4.66-2.66-.74-1.43-.45-2.14-.35-2.37.55-1.35,2.68-2.47,5.01-3.4v8.43Zm10.59-31.96c-.25.12-.58.24-.96.36.09-.2.19-.42.28-.64.26.09.49.18.68.27Zm-16.13-.23c.08.18.16.36.23.53-.3-.1-.57-.21-.78-.31.16-.07.34-.15.55-.23Zm7.64-12.71c.97,0,1.79.61,1.79,1.34s-.82,1.34-1.79,1.34-1.79-.61-1.79-1.34.82-1.34,1.79-1.34Zm-6.14,3.72c-.17-1.25-.03-2.22.38-2.92-.02.18-.03.36-.03.54,0,2.26,1.53,4.2,3.69,4.97v1.34c-1.03.06-2.06.17-3.06.33-.43-1.34-.79-2.78-.99-4.26Zm4.05,7.95v2.52c-.13,0-.26-.02-.38-.03-.32-.58-.74-1.39-1.18-2.35.49-.06,1.01-.11,1.56-.15Zm4.72,2.51c-.24.02-.47.03-.72.05v-2.59c.68.04,1.32.09,1.91.16-.45.98-.87,1.79-1.19,2.38Zm-.72-6.55v-1.26c2.26-.73,3.89-2.71,3.89-5.04,0-.3-.03-.58-.08-.87.58.72.78,1.81.59,3.25-.2,1.47-.56,2.91-.99,4.24-1.11-.17-2.26-.28-3.41-.33Zm-3.9-13.92v1.94c-.92-.36-2.3-1.23-3.17-1.78-.09-.05-.18-.11-.26-.17h3.43Zm-14.91,2.46c2.63-2.82,5.26-1.62,9.18.83-.3.25-.59.52-.86.85-1.37,1.62-1.88,3.78-1.52,6.41.22,1.64.61,3.23,1.07,4.71-.63.24-1.2.52-1.7.84-4.35-5.51-7.74-11.96-6.18-13.64Zm19.83,80.46l.16.06c2.36.75,4.88,2.18,5.25,2.94-.19.28-1.29,1.45-6.43,2.83v-6.18c.39.11.74.23,1.02.34Zm4.16-21.61c-.07,1.68-2.03,2.61-5.17,3.56v-8.14c3.27,1.2,5.26,2.44,5.17,4.58Zm-2.47-25.31c-.69.37-1.64.73-2.7,1.11v-12.1c4.12,1.2,5.97,3.6,6.28,5.49.35,2.09-.96,4.1-3.58,5.51Zm12.45-33.54c1.56,1.67-1.8,8.08-6.13,13.58-.51-.31-1.09-.59-1.73-.83.45-1.46.84-3.04,1.06-4.66.36-2.63-.15-4.79-1.52-6.41-.27-.32-.56-.6-.86-.85,3.92-2.45,6.55-3.65,9.18-.83Zm-11.47-2.46c-.09.06-.18.11-.26.17-.87.55-2.25,1.42-3.17,1.78v-1.94h3.43Z"/>
</svg>