<?xml version="1.0" encoding="UTF-8"?>
<svg id="Livello_3" data-name="Livello 3" xmlns="http://www.w3.org/2000/svg" viewBox="0 0 120 120">
  <path d="m40.09,19.84v4h5.27l3.79,4.36-7.24,1.44.78,3.92,10.9-2.16h14.92l10.9,2.16.78-3.92-8.25-1.64,3.28-4.16h5.22v-4h-5.22l-3.32-4.21,8.27-1.58-.75-3.93-11.32,2.17h-14.11l-11.32-2.17-.75,3.93,7.26,1.39-3.83,4.41h-5.27Zm13.66-3.56h13.58l4.38,5.56-4.38,5.56h-13.58l-4.83-5.56,4.83-5.56Z"/>
  <path d="m60.57,26.57c3.75,0,6.59-2.03,6.59-4.73s-2.83-4.73-6.59-4.73-6.59,2.03-6.59,4.73,2.83,4.73,6.59,4.73Zm0-5.46c1.34,0,2.22.45,2.51.73-.29.28-1.17.73-2.51.73s-2.22-.45-2.51-.73c.29-.28,1.17-.73,2.51-.73Z"/>
  <rect x="58.57" y="33.08" width="4" height="8.86"/>
  <path d="m71.52,74.23c.25.25.5.5.74.76,2.82,2.97,5.15,6.35,6.92,10.05.78,1.62,2.67,2.33,4.31,1.61l4.03-1.77c.82-.36,1.46-1.04,1.77-1.88.31-.84.27-1.74-.11-2.55-2.27-4.79-5.28-9.17-8.94-13.02-2.58-2.71-5.47-5.14-8.62-7.23v-2.64c0-1.63-.44-3.21-1.29-4.6l9.84-9.83c.62-.62.97-1.45.97-2.33s-.35-1.71-.97-2.33l-3.11-3.1c-1.29-1.28-3.38-1.28-4.66,0l-11.33,11.32-10.45-11.35c-1.47-1.6-3.97-1.7-5.58-.24l-1.74,1.59c-.92.85-1.46,2-1.52,3.25-.05,1.25.38,2.45,1.23,3.37l9.01,9.79c-.79,1.36-1.21,2.89-1.21,4.46v2.27c-3.59,2.83-6.91,5.92-9.88,9.18-3.08,3.37-5.9,7.03-8.39,10.87-.48.74-.64,1.63-.45,2.5.19.86.73,1.62,1.48,2.09l3.73,2.32c1.54.96,3.52.51,4.51-1.01,2.15-3.31,4.59-6.47,7.25-9.38.82-.9,1.69-1.8,2.6-2.69.09,2.19.35,4.25.79,6.23.17.78.37,1.57.6,2.34.04.14-.01.29-.14.39l-9.31,7.08-8.59,8.67c-.11.12-.28.16-.44.12l-6.85-1.76c-1.66-.43-3.37.55-3.82,2.18l-1.21,4.39c-.22.8-.11,1.63.3,2.35.42.73,1.11,1.25,1.94,1.46l10.88,2.79c.36.09.73.14,1.1.14,1.19,0,2.35-.47,3.19-1.34l10.36-10.6,9.9-7.55c.17-.13.4-.13.57,0l11.31,8.62h-.64c-1.73,0-3.14,1.39-3.14,3.1v4.54c0,1.71,1.41,3.1,3.14,3.1h9.44c1.73,0,3.14-1.39,3.14-3.1v-10c0-1.35-.64-2.65-1.72-3.48l-12.75-9.72c.42-1.2.76-2.44,1.03-3.76.4-1.83.65-3.71.75-5.7Zm-4.26-8.77l.25,4.65c.02.42.05.83.05,1.25.05,2.8-.18,5.32-.7,7.73-.29,1.36-.64,2.6-1.09,3.8-.09.24-.19.49-.29.73l-.58,1.42,15.15,11.55c.09.07.15.18.15.29v9.1h-7.72v-2.74h1.58c1.73,0,3.14-1.39,3.14-3.1,0-1.35-.64-2.65-1.72-3.48l-12.11-9.23c-1.59-1.21-3.82-1.22-5.42,0l-9.81,7.46-10.9,11.08c-.11.12-.28.16-.44.12l-10.01-2.57.74-2.66,6.05,1.55c1.53.39,3.18-.06,4.29-1.19l8.06-8.2,9.41-7.17c1.44-1.1,2.07-2.99,1.55-4.72-.2-.67-.38-1.36-.52-2.05-.53-2.4-.77-4.92-.72-7.72,0-.71.04-1.43.09-2.14l.33-4.8-3.63,3.15c-2.29,1.99-4.42,4.05-6.31,6.12-2.65,2.9-5.1,6.04-7.27,9.32l-2.54-1.58c2.27-3.43,4.82-6.71,7.59-9.74,3.04-3.33,6.46-6.47,10.17-9.33l.83-.64-.05-1.04v-3.13c-.01-.96.27-1.9.81-2.7.85-1.28.73-2.95-.3-4.07l-9.38-10.19c-.17-.18-.18-.38-.18-.49,0-.1.04-.31.22-.47l1.67-1.59,10.95,11.89c.61.66,1.47,1.05,2.36,1.06.89.01,1.77-.33,2.4-.97l11.35-11.34,2.12,2.11-9.75,9.74c-1.13,1.13-1.27,2.91-.35,4.25.57.82.87,1.78.87,2.78v2.9c0,.19-.02.38-.04.57l-.14,1.25,1.06.67c3.25,2.05,6.22,4.48,8.84,7.24,3.19,3.36,5.85,7.17,7.9,11.32l-2.75,1.21c-1.91-3.84-4.38-7.37-7.34-10.48-1.33-1.4-2.82-2.75-4.43-4.02l-3.48-2.75Z"/>
</svg>