<?xml version="1.0" encoding="UTF-8"?>
<svg id="Livello_3" data-name="Livello 3" xmlns="http://www.w3.org/2000/svg" viewBox="0 0 120 120">
  <path d="m89.35,103.86c3.83,2.72,6.76,2.43,9.34,2.18,2.47-.24,4.61-.44,8.02,2.09l2.45,1.82.69-2.97c1.45-6.23-7.59-9.67-12.99-11.72-.63-.24-1.34-.51-1.92-.74.56-1.03,1.53-2.59,2.42-4.02,4.69-7.53,12.53-20.14,12.53-31.79,0-13.45-10.54-22.97-15.08-26.44-1.6-1.22-3.53-1.8-5.41-1.7l-10.31-20.58-3.58,1.79,10.06,20.08c-1.18.88-1.56,1.93-1.64,2.72-.12,1.12.29,2.86,1.08,6.08.73,2.97,2.17,8.85,1.72,11.1,0,0,0,0,0,0-.49.18-2.56,1.06-4.52,3.28-2.33-3.54-5.44-6.39-9.05-8.4l1.56-1.96c1.78-2.24,1.89-5.76.3-9.41-1.02-2.32-2.87-4.89-5.49-6.9,4.18-4.5,2.84-7.79,1.53-9.44-2.17-2.74-6.1-2.25-8.81-1.46v-1.4h3.74v-4h-3.74v-1.19h-4v1.19h-3.73v4h3.73v1.48c-2.85-.78-6.99-1.28-9.12,1.47l-.13.19c-2.07,3.46.07,6.89,2.02,9.11-2.66,2.03-4.54,4.64-5.56,7-1.58,3.64-1.46,7.14.33,9.37.54.67,1,1.23,1.41,1.74-2.45,1.27-4.61,2.92-6.44,4.88h-7.5c-.36-.89-.73-1.73-1.07-2.51-.45-1.02-.84-1.91-1.05-2.54-.18-.54-.26-.91-.3-1.14.17-.03.41-.07.76-.1.23-.02.5-.03.8-.04,1.71-.07,4.3-.17,6.08-1.62,2.04-1.67,2.17-4.88,2.16-5.83-.02-2.03-1.85-3.48-10.61-3.98-1.84-1.33-4.8-4.15-4.39-6.19.32-1.58,1.38-2.5,2.72-3.67,1.16-1.01,2.44-2.14,3.38-3.8,3.36-.45,7.07-1.44,9.03-3.58,1.16-1.27,1.67-2.85,1.45-4.56l-3.97.5c.07.54-.06.95-.43,1.35-.67.73-1.89,1.28-3.37,1.69.49-.82.89-1.74,1.15-2.81l-3.89-.94c-.4,1.64-1.32,2.73-2.45,3.48.51-1.08.79-2.14.7-3.18l-3.99.34c.05.62-.51,1.62-1.31,2.74-1.78-1.44-2.4-3.37-2.43-3.49l-3.84,1.12c.04.12.48,1.61,1.66,3.26-2.62-1.44-3.47-4.2-3.51-4.34l-3.85,1.09c.07.25,1.73,5.94,7.57,7.64-1.45,1.69-2.76,3.32-3.55,4.9-.04-.15-.09-.29-.12-.45l-3.95.64c.55,3.36,2.84,5.32,4.01,6.11.14.3.3.6.46.89-1.85-.03-3.71.34-5.03,1.59l-.74.7.13,1.01c.49,3.74,1.77,4.89,3.52,5.87-1.72,3.45-2.31,6.86-2.35,7.13l-.06.38,1.27,5.86-1.22,20.32v.12c0,.85,0,1.62.01,2.35-.61.3-1.25.76-1.77,1.5-1.09,1.55-1.21,3.68-.37,6.33l3.76-1.19c.9,1.43,2.29,2.91,4.45,4.71,1.87,1.54,2.01,2.15,2.02,2.15-.04.17-.38.64-.63.98-.57.78-1.34,1.85-1.79,3.34-1.34,4.45,1.99,11.84,2.37,12.67l.45.98,5.88.88c.12.02.24.03.36.03.69,0,1.35-.3,1.81-.83.54-.62.73-1.47.49-2.27-1.07-3.62-1.78-6.67-1.77-7.6,0-.36.61-1.39,1.1-2.21,1.06-1.79,2.52-4.24,3.3-7.75.08-.38.13-.76.15-1.13l2.55,1.18,1.08,7.05,7.39,7.98h5.94c.86,0,1.65-.51,2.02-1.29.36-.79.24-1.72-.32-2.38l-6.51-7.71.63-2.65c4.29,3,9.51,4.75,15.11,4.75,8.06,0,15.28-3.64,20.08-9.35-.97,10.43,2.8,13.76,8.87,18.07Zm16.56-45.15c0,10.51-7.47,22.51-11.93,29.68-3.22,5.17-4.31,6.92-2.86,8.49.65.71,1.73,1.14,4.33,2.13,1.69.64,4.52,1.71,6.82,2.98-1.47-.17-2.78-.04-3.96.07-2.25.22-4.03.39-6.65-1.47-6.25-4.44-9.39-6.66-5.95-21.83,1.94-8.53,3-13.56,3.48-16.04,3.41-.13,4.66-2.17,5.05-3.08.91-2.15.29-4.9-1.52-6.7-.58-.58-1.24-1-1.94-1.27.25-2.96-.66-7.1-1.85-11.96-.43-1.75-.96-3.9-.99-4.6.05-.04.14-.1.29-.18,1.27-.65,2.91-.45,4.18.53,4.06,3.11,13.51,11.59,13.51,23.26Zm-17.76-3.19l.14-.06c.39-.17.97-.32,1.61.31.62.62.93,1.67.66,2.29-.24.57-1.1.67-1.8.66-2.09-.05-3.68.42-4.92,1.03,1.64-3.2,4.12-4.17,4.3-4.24Zm-27.75-12.16c-3.33,0-6.46.5-9.32,1.45-.15-.17-.34-.4-.55-.66,2.24-.96,5.95-2.24,9.75-2.25,3.84.01,7.55,1.3,9.79,2.26l-.62.78c-2.84-1.03-5.89-1.58-9.04-1.58Zm-8.01-21.96c.96-.97,4.73-.21,7.1.8l.83.35.82-.39c2.25-1.07,5.87-1.93,6.81-.74,1.09,1.38-.29,3.3-1.93,4.86-1.65-.73-3.49-1.22-5.52-1.37l-.14,1.98h0s-.04-.38-.04-.38l.14-1.61-2.03-.15-.04.36c-1.37.24-2.64.63-3.81,1.15-1.57-1.64-2.88-3.48-2.19-4.86Zm-3.24,15.53c1.49-3.42,5.29-7.57,11.13-8.02,5.81.45,9.61,4.58,11.11,7.98.61,1.4.87,2.75.77,3.82-2.5-1.12-7.02-2.79-11.87-2.8h-.07c-4.83,0-9.33,1.67-11.82,2.8-.1-1.05.15-2.39.75-3.78Zm.11,8.51c.38-.29.8-.39,1.18-.39-.39.14-.77.28-1.15.43l-.03-.04Zm11.14,1.92c8.22,0,15.58,4.38,19.46,11.49-.06.15-.12.31-.18.46h-39.44c3.18-7.39,10.63-11.95,20.16-11.95Zm-28.46,22.23c.49.11,1,.22,1.53.33v1.8c-.38.29-1.28.56-2.38.74l.84-2.87Zm5.84-14.27c-.96,1.65-1.72,3.44-2.26,5.35l-.27-.15c.11-1.73-.15-3.49-.61-5.2h3.14Zm-15.38-30.72c-.03-.11-.07-.22-.09-.34l-.23.04c.74-.92,1.57-1.88,2.37-2.79.32-.37.64-.73.95-1.09.25-.03.51-.06.76-.1-.14.12-.27.24-.42.37-1.2,1.04-2.52,2.19-3.35,3.92Zm-1.03-6.14l-.08.6s-.05.06-.08.09l.16-.69Zm-1.4,10.17c.84,1.12,1.81,1.88,2.44,2.29.82,1.71,2.15,3.19,3.35,4.29l-.95-.64c-.34-.23-.75-.54-1.19-.9h0s-.01-.01-.02-.01c-1.55-1.3-3.39-3.3-3.64-5.03Zm-4.26,7.77c.79-.18,1.9-.12,3.06.07-.58.49-1.11,1.04-1.59,1.62-.83-.44-1.22-.68-1.48-1.69Zm12.75,52.08c-.64,2.89-1.86,4.93-2.83,6.57-.88,1.49-1.65,2.77-1.66,4.21-.02,1.33.58,3.91,1.26,6.4l-1.28-.19c-1.12-2.73-2.35-6.86-1.75-8.87.25-.85.71-1.48,1.2-2.14,1.97-2.71,2.26-4.98-2.07-8.56-4.62-3.83-4.64-4.87-4.64-10.55l1.25-20.81-1.22-5.62c.37-1.77,2.32-9.8,7.36-10.71l4.52-.81.17.11.54.03c2.92.15,5.98.56,7.33.96-.1.83-.35,1.56-.63,1.79-.75.61-2.6.68-3.71.72-.38.01-.71.03-.99.05-1.5.13-3.02.43-3.89,1.76-.93,1.4-.54,3.17-.03,4.71.27.82.69,1.78,1.18,2.9.99,2.27,2.25,5.14,2.63,7.81l-6.49-3.65-1.96,3.49,15.57,8.75v4.69l-.56.37-.27-.3v-4.95l-1.62-.31c-5.13-.98-11.28-2.68-12.26-3.64,0,0,.08.08.16.26l-3.67,1.59c.26.61.96,2.2,7.98,4.13l-2.58,8.76c-.9-.65-1.6-1.08-1.84-1.23l-2.04,3.44c2.03,1.21,7.64,5.42,6.87,8.86Zm17.19,11.95h-.37l-5.37-5.8-1.22-7.96-7.62-3.53c-.64-1.05-1.44-2.02-2.27-2.88l1.06-3.62c1.5-.1,3.55-.4,5.17-1.23,1.16,4.72,3.57,8.85,6.83,12.1l-1.56,6.56,5.36,6.34Zm14.75-9.28c-9.85,0-18.33-6.29-21.15-15.47l3.05-2.01v-9.18l-2.07-1.16h38.47c.07.78.47,1.5,1.14,1.95.44.3.95.45,1.46.45.32,0,.64-.08.94-.2.28,1.09.28,2.13.27,3.22v.51c0,12.07-9.93,21.89-22.13,21.89Z"/>
  <polygon points="56.64 58.13 60 56.38 63.36 58.13 62.72 54.42 65.46 51.77 61.67 51.22 60 47.87 58.33 51.22 54.54 51.77 57.28 54.42 56.64 58.13"/>
</svg>