<?xml version="1.0" encoding="UTF-8"?>
<svg id="Livello_3" data-name="Livello 3" xmlns="http://www.w3.org/2000/svg" viewBox="0 0 120 120">
  <polygon points="21 24.77 21.63 28.72 24.42 28.27 25.26 28.91 27.69 25.73 25.49 24.05 21 24.77"/>
  <polygon points="31.49 25.15 33.92 28.33 34.75 27.69 37.55 28.14 38.18 24.19 33.69 23.47 31.49 25.15"/>
  <path d="m107.12,42.15l.11-.1-.5-.56c.56-3.29,1.75-13.5-3.54-19.9-3-3.63-7.49-5.38-13.33-5.21-2.95.09-5.42,1.24-7.33,3.42-3.16,3.6-4.07,9.4-4.26,13.72-19.82,6.48-31.38-5.96-32.6-7.36-.71-1.35-1.33-2.49-1.64-3.06-1.07-10.7-2.96-12.04-3.68-12.55-2.34-1.65-5.59.73-7.35,2.56-3.75-.8-7.08-.17-8.82.32-1.31-1.19-3.78-3.14-5.97-3.15-.95,0-1.78.33-2.39.97-.59.62-2.15,2.25-1.38,12.51-1.47,2.84-2.49,6.43-3.48,9.91-.26.92-.52,1.83-.78,2.72-.4,1.35-.1,2.66.81,3.51,2.36,2.2,3.73,3.05,4.73,3.68l.11.07c.51.32,1,.61,1.5.89,1.54,9.41,10.38,18.21,14.94,20.42,1.32.64,2.45,1.2,3.45,1.8.69,3.85,1.86,13.54.02,18.36l-.09.24-.03.25c-.48,4.28,4.75,8.68,7.54,10.71-.07,1.51-.14,2.79-.21,3.77l-1.06-.3-.82,1.12c-.09.12-.88,1.22-1.76,3.45-.07.17-.13.32-.2.47-.35.83-.88,2.08-.06,3.28.92,1.35,2.64,1.46,6.58,1.36.74.11,1.42.17,2.04.17,1.89,0,3.25-.51,4.14-1.54.82-.95.98-2.13.86-3.04l.2-1.17c1.41,1.36,2.41,1.6,3.02,1.6.21,0,.37-.03.49-.05.52-.09,1.79-.49,2.23-2.28.77-3.12-.4-8.09-3-11.1,1.38-4.41,3.25-10.86,4.04-15.68l.5,1.2,14.38-5.95c2.06,7.01,8.04,13.56,13.59,17.31.36,3.17.7,6.93.84,8.44l-1.49,2.35-4.23,2.29-1.48,2.73c-.6,1.11-.58,2.42.07,3.51.65,1.09,1.81,1.75,3.09,1.75h0l8.08-.02h0c1.15.02,2.31.03,3.39.03,2.92,0,5.3-.05,5.46-.06l1.63-.04,3.74-20.52c.34-1.89,0-3.87-.99-5.58-.53-.92-1.28-2.55-1.79-6.21,1.55-9.37,2.49-11.56,3.06-12.88.12-.29.24-.56.34-.83,4.35-11.68,1.18-18.85-.7-21.73Zm-67.54,44.1c1.48-4.2,1.26-10.39.79-14.9.28.45.56.94.83,1.47.88,1.71,1.89,6.95,1.97,9.01.14,3.49.16,6.68.12,9.47-2-1.77-3.68-3.75-3.71-5.05Zm14.18,12.43l.26-1.53c.38.95.66,1.97.77,2.91-.35-.42-.7-.9-1.03-1.38Zm32.41,6.29l4.1-2.21,2.78-4.37-.06-.68c0-.06-.52-5.95-1.02-10.17l-.11-.95-.81-.51c-7.85-4.95-12.18-12.21-13.09-17.26l1.61-1.78c1.71,5.14,5.56,12.93,14.24,20.48,1.08,6.19.54,11.45.22,13.65l-2.4.82-.29.24c-1.19,1-2.16,2.35-2.5,3.74h-3.23s.56-1.01.56-1.01Zm17.9-42.48c-.08.22-.17.42-.27.65-.68,1.59-1.72,4-3.38,14.1l-.05.29.04.29c.47,3.52,1.18,5.98,2.33,7.98.51.89.7,1.91.52,2.87l-3.15,17.31c-1.63.02-4.27.05-6.85,0,.12-.15.26-.31.4-.45l3.84-1.31.24-1.11c.07-.31,1.63-7.73-.14-17.01l-.13-.69-.54-.46c-13.61-11.56-14.71-23.97-14.72-24.08l-3.99.28c0,.09.04.53.16,1.24l-4.79,5.3-13.6,5.63c.02-.47.03-.9,0-1.29l-.02-.28-.09-.26c-2.02-5.82-3.59-12.9-3.6-12.98l-3.91.86c.06.29,1.58,7.17,3.64,13.15.1,4.73-4.11,18.21-5.77,23.09l-1.6,9.16-.2.34.19.43c-.3.09-1.04.21-2.57-.03l-.18-.03h-.19c-1.13.04-1.95.04-2.54.03.17-.4.33-.75.47-1.04l2.9.83,1.1-3.84-.76-.22c.24-3.11.66-10.28.3-19.55-.09-2.24-1.1-8.15-2.41-10.7-2.84-5.49-5.96-7.3-10.76-9.62-3.42-1.65-9.59-7.88-11.96-14.5,2.31.93,4.28,1.45,5.75,1.71l.02-.09c.76.68,1.67,1.05,2.67,1.05,1.16,0,2.17-.46,2.95-1.34,1.56-1.78,1.73-5.09,1.64-7.31.91-.34,1.93-1.02,3.02-2.23l-2.97-2.68c-.93,1.03-1.46,1.2-1.58,1.19-.39-.1-.96-1.26-1.28-2.33,1.09-.93,1.36-2.27,1.2-3.18l-.29-1.65h-5.17c-1.16,0-1.89.77-2.1,1.53-.37,1.34.51,2.26,1.96,3.23-.22.97-.63,2.09-1.01,2.38-.15-.05-.64-.26-1.46-1.18l-2.97,2.68c1.09,1.21,2.09,1.89,2.99,2.23.03.89.1,1.97.3,3.06-2.11-.66-4.74-1.77-7.74-3.66l-.12-.08c-.86-.54-1.91-1.2-3.76-2.88.25-.83.49-1.68.73-2.54.99-3.49,2.02-7.1,3.42-9.6l.3-.53-.05-.61c-.44-5.43-.2-8.56.1-9.65.46.18,1.16.6,1.91,1.16l-.37-.03c-.03.35-.22.78-.32.84,0,0-.04.01-.12.01v4c1.95,0,3.18-1.14,3.84-2.44l.9-.36s4.04-1.58,8.51-.35c.7,1.11,1.86,2,3.59,2v-3.92c.61-.53,1.26-.97,1.7-1.17.54,1.1,1.35,4.22,1.89,9.77l.04.43.21.37c1.98,3.46,4.18,8.01,4.75,9.45-.64,1.43-3.32,5.42-4.09,6.05l2.12,3.39c1.28-.8,6-7.28,6.05-9.43,1.04.66,2.2,1.31,3.48,1.92,3.59,1.71,8.53,3.28,14.62,3.28,3.33,0,7.02-.48,11-1.66.04.84.09,1.37.1,1.48l.28,2.77,1.87-.85c.01.25.03.5.06.74.29,2.56,1.33,4.4,2.16,5.49l1.03,1.35,1.9-1c.22,1.19.65,2.52,1.41,3.81,2.65,4.46,7.06,4.76,7.92,4.77l2.29.04-.27-2.27c-1.91-16.2.04-22.76,1.23-23.27.12-.05.46-.01,1.01.28l1.9-3.52c-2.01-1.09-3.55-.84-4.48-.44-4.94,2.11-4.98,13.92-3.94,24.52-.76-.41-1.57-1.08-2.21-2.16-1.13-1.9-1.11-4.02-1.05-4.84l.26-3.6-4.64,2.45c-.24-.57-.45-1.26-.54-2.06-.11-1-.02-2.05.25-3.02l1.2-4.17-3.79,1.73c-.03-4.1.55-10.33,3.32-13.5,1.16-1.33,2.62-2,4.44-2.05,4.54-.13,7.95,1.13,10.12,3.75,4.99,6.03,2.55,17.41,2.52,17.53l-.23,1.01.83.92c.76.88,5.31,6.88.84,18.9ZM29.56,31.92l.1.4-.14.03c-.04-.2,0-.34.04-.43Zm1.48,8.36c.18,2.38-.08,4.83-.54,5.25-.55-.32-1.1-2.7-1.11-5.31.28-.24.53-.51.76-.8.27.32.56.61.89.87Z"/>
</svg>