<?xml version="1.0" encoding="UTF-8"?>
<svg id="Livello_3" data-name="Livello 3" xmlns="http://www.w3.org/2000/svg" viewBox="0 0 120 120">
  <path d="m72.17,65.83c0-7.58-5.27-13.75-11.75-13.75s-11.75,6.17-11.75,13.75,5.27,13.75,11.75,13.75,11.75-6.17,11.75-13.75Zm-11.75,9.75c-4.27,0-7.75-4.37-7.75-9.75s3.48-9.75,7.75-9.75,7.75,4.37,7.75,9.75-3.48,9.75-7.75,9.75Z"/>
  <path d="m10.38,81.41l1.51-.05c.3.09.96.38,1.23.5,2.02.88,4.15,1.32,6.27,1.32,1.04,0,2.09-.11,3.12-.32,3.53-.74,7.33-1.98,8.98-2.93,2.22-.96,5.52-3.26,7.47-4.68.5,1.3,1.06,2.54,1.66,3.74l-6.56,4.99c-3.12-1.29-8.76-1.6-14.33,4.16l-2.32,2.4,4.25,1.21-.97,3.34,3.15.05-.89,4.05,3.74-.76-.38,4.82,3.47-2.44c7.09-4.98,7.16-10.93,6.73-13.66l6.11-4.65c2.86,4.44,6.44,7.81,10.52,9.66.3,2.93.94,5.25,1.93,6.93-1.01.35-1.79.74-2.5,1.11l-.33.17h0c-.56,0-2.12-.76-3.07-1.22-.94-.46-1.91-.93-2.91-1.29l-2.67-.98-.1,13.13,2.66-.9c.86-.29,1.66-.61,2.44-.92,1.15-.46,2.24-.89,3.02-1.01.09-.02.18,0,.23.05,1.96,1.73,5.23,2.5,10.57,2.5h0c4.33.03,9.87-1.66,11.27-4.5.56-1.13.26-2.54-.7-3.35l-.21-.18c-1.06-.91-2.62-2.24-5.76-2.97.93-2.08,1.31-4.77,1.5-7.16,3.64-1.97,6.86-5.22,9.47-9.37l6.5,4.94c-.43,2.73-.36,8.67,6.73,13.66l3.48,2.44-.38-4.82,3.74.76-.89-4.05,3.15-.05-.96-3.34,4.25-1.21-2.32-2.4c-5.57-5.75-11.21-5.45-14.33-4.16l-6.98-5.31c.51-1.03.98-2.1,1.41-3.2,1.97,1.43,5.06,3.55,7.16,4.46,1.65.95,5.45,2.19,8.98,2.93,1.03.22,2.08.32,3.12.32,2.13,0,4.25-.44,6.27-1.32.27-.12.94-.41,1.23-.5l1.52.04.33-1.66c.33-1.66-.53-2.02-3.72-3.33-1.3-.53-2.63-1.07-2.74-1.11-8.36-3.18-15.28-4.47-20.45-4.92.25-.91.48-1.84.69-2.79l2.19-.36s.04.02.06.03c1.53.44,3.61,1.05,6.41,1.05,3.75,0,8.76-1.08,15.41-5.09l1.8-1.08-6.78-10.12-4.93,2.44-1.29-3.04-4.83.59-.35,1.3c-.71,2.63-1.22,4.54-4.46,6.65-1.08.7-1.92,1.74-2.4,2.83.31-2.41.47-4.89.47-7.42,0-.34-.02-.67-.03-1.01,5.47-2.58,12.44-6.74,19.9-13.38,4.76-4.23,5.53-5.1,4.53-6.65l-.94-1.44-1.42.63c-.23.02-.69.03-1.04.03-.2,0-.33,0-.45,0-3.31,0-6.49.95-9.19,2.76-3.05,2.04-6.27,4.73-7.47,6.23-1.33,1.33-3,3.66-4.31,5.62-.31-2.59-.79-5.08-1.43-7.47l3.3-3.71c.7.16,1.48.27,2.34.27,3.36,0,7.68-1.54,10.95-7.02l1.67-2.81-4.42-.29.13-3.43-3.07.61-.1-3.95-3.44,1.3-.92-4.58-2.66,2.96c-5.64,6.27-4.52,11.8-3.51,14.33l-1.68,1.89c-.75-2.02-1.63-3.94-2.64-5.74.54-1.82.94-3.51,1.08-4.65.02-.08.04-.19.08-.35.28-1.21.92-4.04,1.1-6.46.17-2.31-1.85-5.11-2.72-6.21l-2.27-2.85-1.19,3.44c-.94,2.73-1.87,5.62-2.74,8.52-3.7-3.24-7.89-4.93-12.25-4.93s-8.22,1.6-11.82,4.6c-.86-2.82-1.75-5.6-2.65-8.19l-1.19-3.43-2.26,2.84c-.87,1.1-2.89,3.9-2.72,6.21.17,2.41.82,5.24,1.09,6.45.04.16.06.28.08.36.12,1.01.45,2.46.9,4.05-1.1,1.91-2.05,3.97-2.87,6.15l-1.51-1.7c1.01-2.52,2.13-8.06-3.51-14.33l-2.67-2.96-.92,4.58-3.44-1.3-.1,3.95-3.07-.61.13,3.43-4.42.29,1.67,2.81c3.27,5.48,7.59,7.02,10.95,7.02.86,0,1.64-.11,2.34-.27l3.11,3.5c-.61,2.27-1.09,4.64-1.41,7.07-1.23-1.81-2.7-3.81-3.9-5.01-1.2-1.5-4.43-4.2-7.47-6.23-2.73-1.82-5.96-2.75-9.29-2.76-.31,0-1.08,0-1.4-.03l-1.43-.63-.93,1.44c-1,1.55-.23,2.43,4.53,6.65,7.24,6.44,14,10.54,19.4,13.14,0,.42-.04.83-.04,1.25,0,2.13.11,4.22.33,6.26-.47-.64-1.06-1.22-1.74-1.67-3.24-2.11-3.75-4.02-4.46-6.65l-.35-1.3-4.83-.59-1.29,3.04-4.93-2.44-6.78,10.12,1.8,1.08c6.64,4.01,11.66,5.09,15.41,5.09,2.81,0,4.9-.61,6.44-1.05.01,0,.02-.01.04-.02l1.62.27c.21.97.44,1.92.69,2.85-5.22.41-12.28,1.69-20.86,4.95-.11.04-1.44.58-2.74,1.11-3.19,1.31-4.05,1.66-3.72,3.33l.34,1.66Zm20.66,12.61l.05-.58-2.91.59.62-2.82-2.81-.05.63-2.17-1.26-.36c3.34-2.09,6.03-1.43,7.19-.95.2,1.17.3,3.64-1.51,6.33Zm16.49,10.28v-1.5c.62.3,1.22.58,1.81.83-.59.19-1.19.42-1.81.66Zm40.9-16.61c1.17-.48,3.86-1.14,7.19.95l-1.26.36.63,2.17-2.81.05.62,2.82-2.91-.59.05.58c-1.82-2.69-1.71-5.17-1.51-6.33Zm13.65-8.65s.04.02.06.03c-1.28.17-2.59.13-3.83-.13-3.67-.77-6.97-1.97-7.85-2.51l-.28-.14c-.62-.26-1.42-.7-2.29-1.23,4.01.7,8.77,1.93,14.18,3.98Zm-12.92-15.73c3.27-2.14,4.61-4.33,5.4-6.5l1.32,3.11,5.59-2.77,2.46,3.68c-7.59,4.13-12.26,3.73-15.34,2.99.15-.18.34-.35.58-.51Zm2.66-18.01l.2-.23c.65-.85,3.37-3.28,6.6-5.45,1.1-.73,2.33-1.29,3.63-1.64-4.12,3.67-8.1,6.54-11.73,8.79.47-.59.91-1.1,1.29-1.47Zm-4.37-18.82l.11.57,2.58-.97.08,3.07,2.75-.55-.09,2.26,1.31.09c-2.82,2.73-5.7,2.42-6.96,2.09-.45-1.02-1.15-3.43.21-6.56Zm-60.89,4.47l1.31-.09-.09-2.26,2.75.55.08-3.07,2.58.97.11-.56c1.35,3.12.65,5.53.2,6.55-1.27.32-4.14.63-6.95-2.09Zm-7.82,7.05s0,0,0,0c1.3.35,2.53.91,3.63,1.64,3.24,2.17,5.96,4.6,6.6,5.45l.2.23c.38.37.82.88,1.29,1.47-3.62-2.24-7.6-5.11-11.72-8.78Zm-1.68,22.84l2.46-3.68,5.59,2.77,1.32-3.11c.79,2.17,2.12,4.36,5.4,6.5.24.15.43.33.58.51-3.07.75-7.74,1.15-15.34-2.99Zm25.84,13.39c1.11.04,1.98.11,2.61.19.07.23.15.46.23.69l-1.84,1.4c-.35-.74-.68-1.49-1-2.27Zm14.79-41.71c.86-.91,1.92-1.63,2.38-1.54l.35.06.35-.06c.46-.08,1.51.62,2.37,1.52l-1.23,11.52c-.49-.06-.99-.1-1.49-.1-.59,0-1.18.05-1.76.13l-.97-11.53Zm2.73,51.12c-6.75,0-12.24-8.01-12.24-17.86s5.49-17.86,12.24-17.86,12.24,8.01,12.24,17.86-5.49,17.86-12.24,17.86Zm-14.59-3.58l1.58-1.2c1.94,3.49,4.65,6.18,7.77,7.61l.21,1.48c-.29.14-.56.29-.82.47-3.34-1.58-6.33-4.51-8.74-8.36Zm16.6,25.68h0c-4.14,0-6.82-.5-7.95-1.5-.13-.11-.27-.22-.41-.32l.32-.16c1.56-.8,3.17-1.63,7.66-1.57,4.12.04,6.07,1,7.29,1.89-1.28.76-3.88,1.7-6.9,1.66Zm-.33-7.55c-.93-.01-1.76.01-2.52.06h0c.11-.02.15-.02.16-.02-.55-.02-2.15-1.32-2.65-6.65.3-.14.71-.3,1.06-.4l1.67-.48-.43-3.11c.34.03.69.05,1.04.05.6,0,1.19-.05,1.78-.13l-.44,3.19,1.66.48c.35.1.76.26,1.07.41-.4,4.53-1.37,6.6-2.13,6.6h0c-.08,0-.16,0-.25,0Zm4.37-10.09c-.1-.05-.19-.1-.29-.15l.26-1.87c2.82-1.52,5.25-4.06,7.03-7.3l1.33,1.01c-2.3,3.74-5.13,6.62-8.34,8.3Zm8.67-13.07c.08-.23.16-.47.24-.7.61-.05,1.35-.1,2.22-.12-.28.69-.57,1.37-.87,2.03l-1.59-1.21Zm3.83-4.84c-.99,0-1.87.01-2.64.05.07-.48.13-.96.18-1.44l2.97-.49c-.16.64-.33,1.26-.51,1.88Zm1.37-6.08l-3.69.61c-.09-2.39-.46-4.69-1.08-6.82,1.3-.34,3.15-.91,5.44-1.81-.03,2.75-.26,5.44-.68,8.02Zm.58-12.33c-3.05,1.29-5.4,2-6.76,2.35-.33-.71-.7-1.39-1.09-2.05l6.87-7.73c.49,2.38.83,4.86.98,7.43Zm-2.17-12.11l-8.11,9.13c-.3-.33-.62-.65-.94-.95.25-1.05.69-2.91,1.3-5.34,1.36-.66,3.29-1.69,4.19-2.6l.18-.2c.57-.76,1.26-2.19,1.94-3.88.53,1.24,1.03,2.5,1.45,3.83Zm-1.47-19.72c-.24,1.85-.69,3.84-.88,4.68-.09.4-.14.66-.15.73-.29,2.6-2.55,9.35-3.82,11.54,1.33-5.07,3.01-11.14,4.85-16.94Zm-17.06,1.08c3.89,0,7.66,1.83,10.97,5.27-2.28,7.91-4.11,15.31-5.02,19.05-.12-.06-.25-.12-.37-.18l1.48-13.9-.49-.63c-.52-.68-3.21-3.95-6.38-3.64-3.17-.3-5.86,2.97-6.38,3.64l-.47.61,1.17,13.9c-.94-3.9-2.82-11.42-5.08-19.27,3.21-3.17,6.84-4.86,10.57-4.86Zm-11.69,15.85c-1.27-2.2-3.52-8.93-3.81-11.53,0-.07-.06-.33-.15-.73-.19-.85-.65-2.85-.89-4.71,1.81,5.72,3.5,11.84,4.85,16.97Zm-5.09-1.63c.75,1.94,1.54,3.62,2.17,4.46l.18.2c.95.96,2.97,2.01,4.19,2.6.58,2.34,1.02,4.16,1.28,5.23-.38.35-.74.72-1.1,1.11l-8.34-9.39c.47-1.47,1.02-2.87,1.63-4.22Zm4.3,16.91c-.37.62-.71,1.27-1.03,1.95-1.45-.38-3.94-1.14-7.14-2.53.17-2.56.53-5.04,1.04-7.44l7.13,8.03Zm-2.45,5.72c-.62,2.14-1,4.43-1.08,6.83l-4.09-.68c-.42-2.62-.65-5.35-.68-8.14,2.46.99,4.46,1.62,5.85,1.99Zm-4.32,10.35l3.37.56c.05.51.12,1.02.19,1.52-.84-.06-1.86-.11-3.03-.11-.19-.65-.37-1.3-.54-1.97Zm-23.03,10.83c5.38-2.05,10.14-3.26,14.16-3.97-.85.52-1.64.96-2.26,1.21l-.28.14c-.88.54-4.18,1.74-7.85,2.51-1.24.26-2.55.3-3.83.13.02,0,.04-.02.06-.02Z"/>
  <rect x="54.31" y="64.2" width="4" height="2.99" transform="translate(-19.67 107.1) rotate(-77.99)"/>
  <rect x="62.79" y="63.7" width="2.99" height="4" transform="translate(-12.26 14.81) rotate(-12.01)"/>
</svg>