<?xml version="1.0" encoding="UTF-8"?>
<svg id="Livello_3" data-name="Livello 3" xmlns="http://www.w3.org/2000/svg" viewBox="0 0 120 120">
  <path d="m10,110h100V10H10v100Zm4-4v-30.48c1.38-.33,3.15-1.19,5.35-3.05,3.89,4.11,6.67,4.82,6.98,4.89l.38.08.38-.07c.2-.03,4.88-.87,7.79-4.55.09.12.18.22.26.33-.93,2.3-2.72,7.36-1.95,10.6.92,3.88,7.68,8.01,11.08,8.2.1,0,.2,0,.29,0,2.23,0,2.96-1.51,3.13-1.99.72-2-.18-3.86-.84-5.21-.18-.36-.42-.87-.52-1.18,1.06-.93,1.85-1.93,2.47-2.93,2.9,1.4,8.83,3.71,16.46,3.71,5.1,0,10.95-1.06,17.12-4.1,3.43,2.52,7.75,4.84,11.99,4.84.87,0,1.74-.1,2.59-.31,2.74-.69,4.26-1.99,4.52-3.87.38-2.78-2.61-5.53-5.27-7.4.29-.22.57-.44.83-.66,2.32,2.48,6.15,4.26,8.94,4.82v28.33H14Zm24.77-48.12c.68,2.82,3.23,8.88,6.72,12.82-1.18,1.02-2.69,1.9-4.13,2.7-.35-.13-1.08-.54-2-1.48-.05-.59.03-.79.03-.79.05-.07.3-.23.46-.33.25-.16.57-.36.89-.63.65-.55.97-1.36.86-2.21-.35-2.81-5.99-5.63-6.05-5.66l-.54-.26-.59.07c-4.26.54-8.49-.48-9.51-.75l-3.57-2.17c.2-1.04.67-2.58,1.8-3.56.92-.81,2.17-1.12,3.79-.95,5.51.57,9.98,2.36,11.83,3.19Zm4.51,28.62c.22.44.46.95.6,1.38-2.13-.54-6.38-3.41-6.78-5.06-.35-1.46.35-4.24,1.18-6.61,1.47,1.01,2.92,1.45,4.13,1.12l.24-.06.21-.12c1.24-.69,2.55-1.43,3.79-2.29-.19,1.84-.95,4.07-3.18,5.92l-.15.14c-1.83,1.88-.71,4.19-.03,5.58Zm-.08-29.52c1.49,4.16,5.91,10.71,18.99,11.34-.35.23-.68.51-.96.87-1.47,1.95-3.72,3.31-4.94,3.95-1.04-.64-2.85-1.91-4.21-3.67-.68-.89-1.67-1.4-2.71-1.4h-.01c-.26,0-.52.04-.77.1-2.93-3.23-5.23-8.64-5.84-10.81.15-.13.3-.25.45-.38Zm21.82-4.72c1.18,1.28,2.21,2.49,3.15,3.62,1.4,1.66,2.7,3.2,4.16,4.51-1.15,1.42-2.06,2.71-2.65,3.6-2.66-.74-5.81-3.04-8.75-5.69,1.18-1.24,2.75-3.23,4.09-6.04Zm11.86,11.05c-.66.15-1.36.29-2.1.41.26-.34.53-.68.81-1.02.41.22.84.42,1.29.61Zm-19.59-2.9c1.46,1.36,3.03,2.71,4.64,3.89-3.55-.21-6.29-.92-8.4-1.87.96-.81,2.29-1.69,3.76-2.02Zm-6.59,13.46c2.22,2.1,4.51,3.25,4.63,3.31l.82.41.84-.36c.18-.08,4.15-1.78,6.92-5.01,2.75,2.98,6.55,4.91,6.72,5l.78.39.81-.3c.13-.05,2.2-.82,4.46-2.06.58.59,1.35,1.35,2.28,2.18-13.44,5.82-24.8,1.38-28.61-.51.25-1.09.34-2.13.34-3.06Zm29.43-.83c.29-.13.64-.15.94.1,3.11,2.5,6.71,4.07,6.86,4.13l.79.34.79-.34c.27-.12,1.49-.65,2.99-1.44,2.52,1.57,4.76,3.54,5.03,4.45-.15.12-.56.36-1.5.6-5.23,1.31-12.23-4.23-15.9-7.84Zm8.61.19c-1.12-.55-3.27-1.69-5.16-3.21-1.8-1.45-4.35-1.43-6.22.05-1.81,1.43-4.38,2.6-5.69,3.15-1.21-.7-3.61-2.24-5.22-4.17-.23-.28-.49-.5-.77-.69,1.8,0,3.47-.06,5.01-.16l1.02.1.11-.18c9.89-.82,14.63-3.71,19.4-9.17,2.85,2.73,4.38,5.82,5.59,9.43-.68.08-1.33.39-1.81.91-1.38,1.48-4.49,3.11-6.26,3.94Zm-5.32-12.55c-2.04-.14-3.65-.5-5.01-1.07,2.37-2.29,5.1-4.15,7.72-4.31.7.39,1.35.78,1.95,1.18-1.41,1.62-2.85,3.03-4.67,4.2Zm-8.42-3.28c-.44-.4-.88-.83-1.31-1.3l2.27-6.4c1.84-5.18,3.49-6.29,4.1-6.15,1.33.3,3.95,4.63,4.48,7.96-3.57.73-6.89,3.22-9.54,5.9Zm-3.76-4.11c-1.33-1.58-2.8-3.32-4.65-5.2,0-.03.02-.05.02-.08.83-1.29,1.49-3.18,2.26-5.42.31-.91.75-2.17,1.16-3.18.5,1.52,1.21,4.42,2.06,9.92l.94,6.05c-.57-.64-1.16-1.34-1.79-2.09Zm-13.19,2.22c-1.59-1.61-3.02-3.2-4.14-4.53h0c3.07-4.24,4.54-5.38,5.08-5.69.17.26.38.67.53.98.47.94,1.18,2.31,2.43,3.03-1.22,3.02-2.82,5.06-3.9,6.21Zm-7.9-2.78c.88,1.08,2.29,2.73,4.02,4.56-1.77.84-3.2,2.01-4.13,2.91-2.33-2.06-3.15-4.37-3.44-5.69,1.06-.64,2.21-1.22,3.55-1.78ZM106,14v59.59c-1.16-.35-2.67-.98-4.02-1.84-2.15-7.71-4.3-14.42-13.41-19.66-.36-4.06-3.23-11.45-7.66-12.44-2.2-.49-4.19.51-5.95,2.99-1.42-6.89-2.73-8.37-4.62-8.54-2.72-.24-3.83,3.04-5.27,7.19-.41,1.2-1.04,3-1.55,4.04-.16-.28-.33-.61-.45-.85-.62-1.24-1.56-3.11-3.64-3.27-2.24-.17-4.62,1.77-8.41,6.92-4.85,1.66-7.63,3.42-10.73,6.05-2.17-.98-6.97-2.85-12.95-3.47-2.77-.29-5.08.36-6.86,1.94-3.13,2.76-3.28,7.35-3.28,7.55l-.03,1.15,6.11,3.72.25.07c.22.07,5.26,1.55,10.75,1.02.88.49,1.93,1.23,2.64,1.83-.27.22-.52.47-.75.76-.39-.16-.8-.28-1.22-.28h-.03c-1.15,0-2.25.61-3.02,1.67-1.5,2.06-4,2.92-5.03,3.19-.74-.33-2.57-1.33-5.04-4.05-1.27-1.4-3.21-1.52-4.6-.27-1.36,1.22-2.44,1.91-3.24,2.29V14h92Z"/>
</svg>