<?xml version="1.0" encoding="UTF-8"?>
<svg id="Graphics" xmlns="http://www.w3.org/2000/svg" viewBox="0 0 120 120">
  <defs>
    <style>
      .cls-1 {
        fill: #000;
        stroke-width: 0px;
      }
    </style>
  </defs>
  <g id="Ancus_Marcius_Bold" data-name="Ancus Marcius Bold">
    <path class="cls-1" d="M39,42.32c-.89-1.28-.04-3.05.51-4.29-.55,1.24-1.04,2.9-.15,4.18.79,1.14,2.47,1.69,5.25,1.69.35,0,.74-.01,1.14-.03-.02.07-.05.13-.09.2-.4.02-.83.05-1.18.05-2.77,0-4.69-.66-5.48-1.8Z"/>
    <path class="cls-1" d="M42.83,39.74c.05.96-.18,1.87-.38,2.48.72.13,1.69.19,2.99.14-.44-.75-1.26-1.69-2.61-2.62ZM40.61,41.35c.09.12.22.25.4.37.29-.85.52-2.17-.04-3.05-.02-.01-.04-.03-.07-.04-.54,1.29-.66,2.19-.29,2.72ZM47.28,42.88c.45,1.96-1.52,3.51-2.05,3.89-.06.04-.11.07-.12.08l-.82-1.27s.02-.01.06-.04c.23-.14,1.09-.68,1.34-1.47h-.03c.04-.07.07-.13.09-.2-.4.02-.79.03-1.14.03-2.78,0-4.46-.55-5.25-1.69-.89-1.28-.4-2.94.15-4.18-.51-.2-1.03-.38-1.6-.55l.66-1.81c5.83,1.76,8.23,5.15,8.71,7.21Z"/>
    <path class="cls-1" d="M40.97,38.67c.56.88.33,2.2.04,3.05-.18-.12-.31-.25-.4-.37-.37-.53-.25-1.43.29-2.72.03.01.05.03.07.04Z"/>
    <g>
      <path class="cls-1" d="M45.66,44.07c-.31.71-1.1,1.31-1.31,1.47.23-.14,1.09-.68,1.34-1.47h-.03Z"/>
      <path class="cls-1" d="M38.57,35.52l-.66,1.96.66-1.81c5.83,1.76,8.23,5.15,8.71,7.21.45,1.96-1.52,3.51-2.05,3.89.62-.36,3.31-2.08,2.85-4.06-.48-2.07-3.68-5.43-9.51-7.19Z"/>
      <path class="cls-1" d="M74.13,74.52l-.44-4.51c.45-.38.83-.84,1.12-1.37.6-1.09,1.1-3.13-.78-5.95.83-.45,1.58-1.09,2.27-1.71.86-.79,2.01-2.05,2.03-3.82,0-.52-.1-1.02-.28-1.54,1.06-.3,1.95-.85,2.66-1.62,1.85-2.04,1.68-4.85,1.66-5.16l-1.21-1.35c-.68-.14-1.02-.27-1.17-.35.11-.42.58-1.27.94-1.91.79-1.43,1.88-3.38,2.44-5.8,1-4.31.38-12.26-3.37-15.99-1.38-1.37-3.04-2.03-4.86-1.98-.43-.63-.97-1.18-1.73-1.56-1.37-.68-3.09-.67-5.38.04-.93-.8-1.91-1.37-2.92-1.65-1.21-.34-2.42-.27-3.57.19-.41-.52-.88-.92-1.44-1.22-1.68-.87-3.7-.46-6.21.41h0c-1.05-.63-2.5-.93-4.63-.86-1.39.05-2.59.27-3.61.62-3.65,1.23-5.11,4-5.43,5.87-.97,1.25-4.35,5.75-6.14,9.27-1.28,2.52-.64,4.81.26,6.28-1.83,2.14-2.38,4.42-2.95,6.81-.22.95-.46,1.94-.78,2.98-.58,1.84-.44,3.32.4,4.38.77.97,1.9,1.34,2.97,1.46-.34,1.6-.18,3.2.98,4.1-.15,1.64.18,2.98.99,3.98.02.02.05.03.07.06-.82,3.46.19,5.53,1.26,6.68,1.25,1.36,3.02,1.92,4.6,1.93.56,3.03,1.75,10.85.38,17.29-1.63,7.68-2.58,9.26-2.62,9.32l.17.12,1.22,2.23c.34-.04,6.7-.79,12.19-5.01-.5,4.23.03,7.82.06,8.03l2.97-.45c-.01-.07-.92-6.28.89-11.51,5.01-6.29,16.23-6.5,16.35-6.51l1.47-1.64-.53-5.43c6.3,1.79,11.03,10.52,12.38,16.55l2.93-.66c-1.64-7.32-7.47-17.56-15.61-19.04ZM77.88,25.56c2.62,2.6,3.51,9.11,2.57,13.19-.47,2.01-1.4,3.68-2.14,5.02-.96,1.71-1.78,3.19-1.1,4.65.41.89,1.23,1.38,2.1,1.68-.1.59-.32,1.33-.83,1.89-.49.52-1.18.81-2.1.89-.64-.79-1.43-1.63-2.41-2.59h.01c-.76-2.19.4-3.93,2.27-6.34,1.53-1.99,3.57-4.63,1.66-7.27,1.92-3.08,1.81-7.32,1.29-8.06l-.67-.24.12-.23c-1.21-.62-1.67-1.95-2.16-3.49.5.18.96.47,1.39.9ZM70.44,40.45c2.29,0,3.97-.6,5.22-1.44,0,.61-.51,1.45-1.79,3.11-1.03,1.34-2.29,2.98-2.84,4.92-1.26-1.88-2.21-4.23-2.99-6.79.86.14,1.66.2,2.4.2ZM67.13,37.01c-.36-1.44-.7-2.9-1.04-4.35-.34-1.46-.68-2.95-1.05-4.4.07.14.15.28.23.41,1.57,2.81,3.97,7.1,8.66,7.1.32,0,.64-.02.98-.06-.16.18-.32.36-.51.51-1.55,1.32-4,1.58-7.27.79ZM72.07,22.59c.73.37,1.09,1.5,1.51,2.82.39,1.21.84,2.61,1.75,3.78-.04,0-.08.01-.13,0-1.11-.19-2.36-1.62-3.35-3.83-.47-1.06-1.01-2.01-1.6-2.87.78-.12,1.41-.11,1.82.1ZM64.3,21.18c1.72.48,3.51,2.5,4.81,5.4,1.85,4.13,4.06,5.31,5.59,5.57.58.09,1.15.08,1.7-.05,0,.06-.02.11-.02.16-4.33,1.67-6.14-.84-8.5-5.05-1.21-2.17-2.46-4.4-4.49-4.7-.15-.48-.3-.92-.45-1.33.44-.12.89-.13,1.36,0ZM49.37,19.81c3.46-.12,3.6.36,4.96,4.95.56,1.91,1.28,4.33,2.49,7.35-.01-.01-.02-.01-.02-.01-.45-.29-1.13-.98-1.18-1.57l-2.45.14c.18,2.31,1.19,3.43,2.01,3.95.78.51,1.62.66,2.34.66.23,0,.44-.02.64-.04.15.33.29.64.45.98,1.01,2.16,1.55,3.98,1.95,5.73-2.49-.6-4.34.24-5.48,1.27-.3-.38-.34-.69-.35-.83-.16-1.37,1.32-3.13,1.84-3.63l-.33-2.42c-4.75-2.49-3.76-5.82-3.64-6.17l-1.43-2.03c-1.11.01-2.05-.09-2.87-.27-.76-1.12-.86-2.16-.23-2.93.54-.67,1.35-.84,1.65-.66l1.52-2.59c-1.67-.98-4.09-.39-5.5,1.36-.64.79-1.08,1.85-1.09,3.07-1-.94-1.37-1.92-1.48-2.31.14-.8,1-3.82,6.2-4ZM54.61,89.61c-3.3,4.32-8.29,6.25-11.31,7.06.5-1.58,1.14-3.95,1.9-7.53,1.86-8.8-.56-19.42-.66-19.87l-1.81-1.12c-.99.23-2.42,0-3.25-.89-.75-.81-.85-1.99-.7-3.14.38.07.77.11,1.18.11v-3c-.45,0-1.28-.08-1.69-.57-.24-.3-.34-.79-.34-1.39.81-.07,1.42-.09,2.75,1.35l2.21-2.03c-2.15-2.34-3.76-2.42-5.22-2.31-.46.03-.65.04-.83-.04-.13-.41.15-1.67.59-2.62l-1.47-2.13c-1.82.13-2.42-.11-2.59-.33-.14-.17-.19-.69.1-1.62.36-1.15.61-2.18.84-3.18.62-2.61,1.07-4.5,3.03-6.3l.02-2.18c-.18-.18-1.71-1.78-.6-3.96,1.17-2.32,3.17-5.19,4.56-7.08.98,1.45,2.66,2.9,5.25,3.69.03.03.05.06.08.09l.05-.05c.82.24,1.72.42,2.74.51-.05,2.05.77,4.77,3.82,6.95-.83,1.15-1.72,2.86-1.52,4.69.13,1.09.71,2.66,2.78,3.89l2.09-.58c.17-.31,1.17-1.84,3.56-1.09,1.75.54,1.58,2.65.48,7.49-.11.51-.23,1.03-.34,1.54-.38,1.78-1.22,2.36-1.67,2.33-.26-.02-.41-.21-.43-.53l-2.99.15c.08,1.7,1.26,3.03,2.85,3.32,2.5,4.54,2.02,6.57,1.74,6.87-.1.1-.48.07-1-.18l-2.02,1.99c.17.36,1.77,3.52,4.65,4.52.57.2,1.14.29,1.73.29.84,0,1.69-.2,2.52-.61.4-.19.76-.42,1.09-.67.59.11,1.21.19,1.83.19.74,0,1.49-.09,2.2-.26l1.01,10.45c-3.66.31-12.55,1.68-17.21,7.78ZM61.05,58.44c.13-.1.27-.21.4-.33,4.33,5.75,4.62,8.5,4.36,9.66-.1.46-.36,1.13-1.45,1.66-.68.34-1.3.39-1.93.18-.46-.16-.9-.45-1.28-.8.31-.16.6-.38.85-.65,1.69-1.81,1.33-5.31-.95-9.72ZM72.18,67.19c-.48.89-1.92,1.42-3.5,1.44.02-.07.05-.14.06-.21.69-3.1-1.18-7.41-5.68-13.15.06-.22.14-.43.19-.67.09-.46.2-.92.3-1.38.61,1.44,1.38,3.01,2.38,4.79,1.65,2.92,3.06,4.48,4.57,5.05,1.57,1.7,2.2,3.2,1.68,4.13ZM71.18,52.77l-2.32,1.9c1.37,1.67,1.82,3.65,1.94,5.06-.55-.52-1.28-1.47-2.26-3.2-3.19-5.66-3.87-9.2-4.52-12.63-.51-2.67-1.04-5.43-2.7-8.96-2.28-4.83-3.34-8.42-4.11-11.03-.44-1.46-.81-2.72-1.28-3.75,1.42-.42,2.29-.49,2.78-.24,1.01.53,1.76,3.13,2.88,7.07l.05.17c.55,1.95,1.03,4,1.53,6.18,1.57,6.8,3.2,13.84,7.45,17.88,2.28,2.17,4.72,4.59,4.71,5.91,0,.16-.01.68-1.06,1.63-.16.15-.33.3-.5.45-.2-1.84-.82-4.29-2.59-6.44Z"/>
    </g>
    <path class="cls-1" d="M109.99,60c0,27.56-22.43,49.98-49.99,49.98S10.01,87.56,10.01,60,32.43,10.01,60,10.01s49.99,22.42,49.99,49.99ZM106.99,60c0-25.91-21.08-46.99-46.99-46.99-5.23,0-10.27.86-14.98,2.44C26.43,21.72,13.01,39.32,13.01,60c0,18.21,10.42,34.04,25.62,41.83,6.41,3.29,13.68,5.15,21.37,5.15,11.74,0,22.49-4.33,30.73-11.47,9.96-8.62,16.26-21.35,16.26-35.51Z"/>
    <g>
      <path class="cls-1" d="M101.34,44.83l.05.08c.05.12.13.19.19.22l.41.02.22-.49s-.03-.1-.06-.17l-.31-.6-.34.16.3-.25-.08-.2c-.02-.05-.05-.11-.08-.17-.03-.07-.06-.15-.09-.21l-.04-.09c-.03-.07-.06-.12-.09-.16-.12-.17-.33-.24-.53-.15l-.2.18v.39s.03.09.03.09c.01.04.03.08.08.17-.01.01-.09.09-.36.22l-2.76,1.36.51-1.21-.33-.2.38.04.06-.14c.03-.07.06-.14.08-.19l.94-2.3c.28-.68.44-1.07.5-1.21.02-.03.03-.07.04-.11.03-.06.05-.12.07-.19l-.02-.33c-.07-.15-.24-.28-.52-.23-.06.01-.16.04-.37.14l-4.17,1.93c-.34.16-.51.22-.63.25l-.04-.06-.11.06s.01-.06,0-.1l.05-.05-.09-.09-.05-.11s-.03-.05-.05-.09l-.03-.09s-.01-.05,0-.2c0-.02.03-.16.29-.55l.57-.84c.23-.34.48-.7.73-1.07.37-.55.72-1.06,1.05-1.52.33-.47.52-.75.56-.82.08-.11.13-.19.15-.24.09-.17.07-.31.04-.4h-.02s-.02-.1-.02-.1l-.17-.12v-.02s-.05-.03-.09-.04h0c-.07-.02-.15-.02-.23,0-.06,0-.14.03-.27.06l-5.12,1.32h-.01c-.17.05-.32.07-.45.07-.04,0-.1,0-.14-.04-.02-.03-.04-.06-.07-.08l-.09-.11c-.05-.07-.11-.12-.18-.15l-.42.03-.17.47c.02.07.05.13.14.27l.19.26s.07.09.11.15l.53.78c.05.07.1.12.15.15l.48.02c.13-.08.2-.22.19-.38l-.05-.18-.04-.06s.02,0,.02-.01c.07-.03.15-.06.25-.08l1.23-.36.75,1.09-1.01,1.49-.25.04c-.18.12-.24.36-.12.55l.25-.1-.14.1.05.03-.09.08.05.08.13-.09s0,0-.01,0v-.02s.02,0,.02,0v.02s0-.01,0-.01l.04.02h0s-.04,0-.06-.01h0s.03.02.05.03l-.12.14c.14.23.28.43.41.62l.24.34c.04.06.09.11.14.16h.01s.68,1.53.68,1.53c.04.08.08.14.12.19.13.13.32.17.49.1l.23-.29-.03-.28-.05-.11s-.02-.07-.04-.16c.03-.03.15-.12.5-.3l2.51-1.25-.06.14c-.23.54-.47,1.12-.74,1.78-.05.12-.1.24-.15.36l-.18.46c-.19.48-.36.93-.51,1.33l-.25.68c-.11.3-.18.49-.2.59-.04.13-.07.29,0,.43.05.12.19.25.39.25.04,0,.09,0,.14-.02.06-.02.24-.08.51-.21l4.26-1.96c.19-.09.3-.12.32-.14ZM97.88,43.8h0s0,0,0,0h0ZM95,36.61l-.53.73-.33-.47.86-.25ZM93.04,39.78h0s.05.02.05.03l-.05-.03ZM92.83,40.35v-.02s.04-.02.04-.02l-.04.04Z"/>
      <path class="cls-1" d="M98.12,53.55s.07,0,.13,0c.02,0,.04,0,.06,0v-.37s0,0,0,0l.11.37.74-.06c.15-.02.23-.03.24-.03.08-.02.14-.05.2-.08l.18-.46-.3-.3c-.07-.02-.14-.02-.25-.02-.02,0-.06,0-.1,0-.06,0-.12,0-.16,0-.05,0-.1-.02-.15-.03-.04-.01-.07-.02-.09-.03-.14-.08-.24-.19-.31-.33-.1-.19-.18-.42-.25-.68-.19-.73-.1-1.36.29-1.94.39-.59.89-.96,1.54-1.13.36-.09.71-.14,1.04-.14.27.03.58.09.87.27l.1.06c.12.09.26.24.4.43.14.2.26.5.37.91.08.3.11.59.1.85-.01.31-.07.47-.11.56-.03.06-.08.12-.14.17-.08.06-.16.11-.32.16-.09.02-.16.05-.2.08-.17.1-.26.28-.21.49l.4.32s.11,0,.2-.02l.38-.09-.05-.17s.03-.02.05-.03l.11.17c.07-.01.14-.03.2-.04.04-.01.08-.02.12-.02l.2-.03c.06-.01.11-.02.15-.02l.14-.02c.12-.03.22-.11.29-.21l.05-.34c-.02-.12-.04-.23-.05-.36l-.08-.82c-.02-.15-.05-.3-.08-.44-.03-.14-.06-.26-.09-.38-.17-.65-.39-1.15-.69-1.52-.29-.37-.6-.65-.93-.85-.18-.1-.35-.19-.53-.25-.18-.07-.36-.11-.53-.14-.31-.06-.61-.08-.88-.06-.27.02-.5.05-.68.1-.16.04-.33.1-.5.16-.18.07-.35.15-.52.25-.24.14-.47.31-.69.52-.22.22-.42.48-.57.79-.22.42-.34.88-.38,1.38h0c-.03.49.03,1.04.19,1.66l.11.4c.06.2.14.39.22.58.09.2.17.36.3.54l.06.07c.05.05.1.09.16.11l.17.05ZM102.48,52.43l-.03-.24s.03,0,.04,0l.07.15s-.05.07-.09.09Z"/>
      <path class="cls-1" d="M105.05,59.13c0-.05-.01-.11-.03-.21l-.1-1.19c0-.09-.03-.16-.05-.22-.08-.17-.24-.27-.42-.24l-.35.23-.04.27.02.19s-.03.02-.17.03c-.11.02-.27.04-.46.06l-2.21.2c-.39.03-.74.04-1.05,0-.27-.03-.51-.1-.69-.23-.14-.1-.26-.23-.36-.4-.1-.17-.15-.34-.17-.53-.01-.14-.01-.28,0-.41.01-.11.04-.22.1-.34.02-.03.04-.07.05-.1.03-.04.05-.08.09-.12.11-.14.29-.27.52-.39.16-.08.49-.19,1.15-.25l2.32-.21c.19-.02.35-.03.49-.03h.02s.08,0,.1,0c0,.04.02.07.03.1,0,.09.04.18.08.23l.37.18.38-.31c.02-.07.02-.14.01-.23l-.04-.33h-.17s-.02-.03-.03-.05l.19-.09-.07-.81s0-.07,0-.15l-.02-.27c0-.09-.03-.16-.05-.22l-.44-.24c-.14.02-.27.11-.32.23l-.04.27.02.19s-.03.02-.17.04c-.11.02-.27.04-.46.05l-2.38.21c-.64.06-1.12.17-1.47.36-.35.18-.63.41-.82.65-.1.11-.18.24-.24.37-.06.12-.11.24-.15.37-.08.25-.12.5-.12.74,0,.22,0,.38,0,.48.02.22.06.45.14.71.08.28.23.55.43.82.04.05.08.1.13.15.04.05.09.1.15.15.3.28.66.47,1.07.55.37.08.76.11,1.13.1l2.6-.21c.19-.02.34-.03.49-.03h.02c.05,0,.1,0,.1,0l.02.1c0,.08.03.16.09.25l.36.16.38-.32c.02-.07.02-.14.01-.24v-.11Z"/>
      <path class="cls-1" d="M103.3,60.97c-.13,0-.26,0-.38,0-.26.03-.54.13-.82.29-.27.16-.56.41-.88.76l-.32.34c-.15.16-.29.29-.4.4-.11.1-.21.17-.28.22-.08.04-.16.07-.23.09-.08.02-.18.02-.34,0-.15-.02-.29-.1-.42-.24-.12-.12-.17-.3-.15-.56.01-.21.07-.39.17-.56.05-.09.15-.19.38-.23.04,0,.08,0,.11,0h.11c.08,0,.15,0,.2-.02l.28-.37-.24-.42c-.06-.03-.13-.04-.19-.06h-.11c-.06-.02-.12-.03-.2-.04l-.24-.03c-.11-.01-.22-.02-.34-.03-.14,0-.22,0-.28,0-.13.02-.24.09-.35.25l-.03.05c-.1.19-.17.39-.22.6-.05.2-.08.41-.08.61-.01.25,0,.49.05.73.05.26.14.49.27.71.1.16.21.29.34.4.12.1.24.19.36.26.17.09.33.16.49.2.16.04.29.06.4.06.14,0,.27,0,.4,0,.14-.01.28-.04.41-.09.23-.08.46-.21.7-.39.22-.17.47-.41.75-.72l.17-.2c.21-.22.38-.4.51-.52.12-.1.22-.18.3-.21.05-.02.09-.03.14-.04.04,0,.09-.01.14,0,.24.01.34.1.39.17.1.12.14.28.13.46-.01.21-.04.33-.07.39-.04.11-.08.17-.11.2l.28.25-.36-.18-.09.03c-.05,0-.1.01-.2.02-.06,0-.12.02-.17.04l-.28.38.29.42c.06.02.13.03.24.04.13,0,.25.01.35.02.09,0,.17.01.24.02l.26.03h.02c.13,0,.24-.05.34-.17l.09-.32s.02-.08.03-.13c.04-.12.07-.25.09-.38.02-.13.04-.28.04-.45.03-.6-.11-1.1-.42-1.48-.32-.4-.75-.61-1.29-.64Z"/>
      <path class="cls-1" d="M27.68,78.77c-.02-.06-.05-.12-.09-.18l-.13-.26-.34.09s0,0-.01,0l.29-.22-.21-.53-.11.05s0-.01,0-.02c0-.02,0-.03-.01-.04l.09-.07c-.04-.08-.07-.14-.12-.19-.13-.14-.32-.18-.48-.11l-.25.33.06.32s.01.04.02.05l-2.49.87c.17-.2.33-.38.48-.55l1.61-1.94c.1-.12.17-.21.21-.26.04-.06.15-.21.11-.39l-.11-.22-.02.02-.13-.13c-.07-.03-.15-.04-.27-.05l-3.61-.09,2.47-1.37.32-.04.25-.42c0-.07-.02-.14-.06-.28-.02-.07-.06-.16-.11-.28l-.29-.72.02-.03c0-.07,0-.15-.03-.29l-.31-1.29c0-.05-.02-.1-.03-.15-.02-.08-.05-.14-.09-.21l-.45-.17c-.14.04-.25.14-.29.27l-.03.2.02.06s-.02,0-.03,0c-.08,0-.16,0-.26-.01l-1.28-.13-.3-1.27,1.52-1.02.22.06.31-.48-.03-.2-.15.03s0,0,0,0h-.01s0,0,0,0h.01s-.02,0-.02,0l-.04-.04h0s.04.02.06.04h0s-.03-.03-.04-.05l.17-.08c-.05-.26-.1-.5-.15-.73l-.1-.41c-.02-.07-.04-.13-.07-.2-.02-.04-.06-.06-.09-.09l.11-.09c.03-.09.03-.17.02-.24v-.15c-.02-.06-.03-.13-.04-.25l-.05-.38-.37.02h0s.37-.16.37-.16l-.05-.82c0-.06-.02-.14-.05-.21l-.39-.25-.28.11c-.06.05-.15.17-.13.43v.11s.05.08.05.08c-.03.01-.07.04-.17.05-.16.03-.38.06-.66.09l-.9.08-.03-.54c.06-.06.14-.12.24-.21.16-.13.32-.27.51-.44l.81-.72c.17-.16.32-.31.42-.46.04-.05.08-.11.11-.16.04-.06.07-.12.1-.19v-.02c.07-.14.11-.3.12-.46,0-.14,0-.33-.01-.57l-.05-.56c0-.11-.02-.19-.05-.26-.07-.18-.24-.3-.43-.27l-.31.19-.07.3v.09s0,.1,0,.16c0,.04-.02.14-.08.32-.03.08-.1.23-.32.47-.23.24-.5.51-.81.81l-.83.77c-.3-.25-.59-.42-.88-.52-.36-.13-.72-.19-1.07-.16-.25.02-.47.09-.66.2-.17.1-.32.21-.45.33-.05.05-.09.1-.12.14-.04.06-.08.11-.1.15-.12.21-.21.44-.25.68-.04.22-.06.45-.05.69l.04.55c0,.07.02.14.02.24l.05.42.38.04-.37.12.02.38s0,.08,0,.16l.02.27c0,.06.02.14.05.22.07.15.22.24.37.24.01,0,.03,0,.04,0l.35-.23.04-.27-.02-.19s.03-.02.17-.03c.11-.02.27-.04.46-.05l2.61-.22-.03-.37.04.37,1.02-.08c.28-.02.5-.03.66-.02.06,0,.11,0,.14.01,0,.02,0,.05.01.08,0,.1.06.2.13.27l-.12.13v.2s.03.06.03.1v.1s0,.06-.08.18c-.01.02-.09.14-.47.41l-.84.58c-.34.24-.7.48-1.07.73-.55.38-1.05.72-1.53,1.04-.48.32-.76.51-.83.56-.11.07-.18.13-.23.17-.15.13-.18.27-.18.36h.06l-.06.08.03.1.12.07-.05.04c.07.08.17.14.3.17.06.01.14.03.27.04l5.25.63h.02c.18.02.33.05.45.1.02,0,.03.02.04.03l-.03.05.05.2s.03.08.06.16c.02.06.04.13.04.28-.05.06-.11.12-.17.17l-4.52,2.62c-.1.06-.18.11-.23.17-.12.14-.16.32-.08.48l.31.26c.06.02.12.02.18.03l4.76.11-3.07,3.63s-.07.08-.11.14l-.08.21c-.01.09,0,.17.04.25l.37.25s.03,0,.04,0c.05,0,.11,0,.2-.02l5.04-1.59c.12-.04.24-.07.28-.11l.09.16c.03.07.08.13.14.19l.41.06.26-.45c0-.07-.03-.13-.05-.19l-.05-.11ZM27.05,77.66s0,.03,0,.04h-.04s.04-.04.04-.04ZM24.92,73.13s.04.02.05.03h-.05s0-.03,0-.03ZM23.92,70.47v.03s-.09.05-.09.05l-.11-.03.2-.05ZM19.99,70.2l.75-.48.13.56-.89-.08ZM22.96,67.95h0s-.01-.01-.01-.02v.02ZM23.24,68.06h0s.04-.01.04-.01c-.01,0-.03,0-.04.01ZM17.5,64.62c-.01-.07-.02-.14-.03-.22-.03-.31.05-.56.23-.75.2-.21.5-.32.91-.36.07,0,.13,0,.19,0,.17,0,.32.02.44.06.15.05.26.12.36.26.02.04.03.08.04.11l.04.25c0,.15,0,.29,0,.42,0,.02,0,.03,0,.05l-2.18.18ZM17.26,64.67v-.03s0,0,.01,0h-.01s0,.03,0,.03ZM19.59,75.98l-.05-.09h0l.05.09s0,0,0,0Z"/>
      <path class="cls-1" d="M17.12,59.14c.13.16.27.29.42.41.15.12.3.23.45.3.27.16.55.28.81.35.25.07.48.11.68.13.11,0,.23.01.35.01.06,0,.12,0,.18,0,.19,0,.38-.03.57-.07.27-.05.55-.14.82-.27.28-.13.55-.32.8-.56.34-.33.61-.72.81-1.18h0c.19-.45.31-1,.36-1.63,0-.07,0-.14.01-.21,0-.06,0-.12.01-.21,0-.21,0-.42-.02-.62-.02-.22-.05-.4-.11-.59l-.16-.27s-.1-.08-.12-.09l-1.01-.29c-.15-.03-.23-.05-.25-.05-.07,0-.13,0-.2.02l-.32.37.18.39c.05.04.11.07.23.1.02,0,.05.02.09.03.06.02.12.04.15.06.04.02.08.05.12.08.03.02.06.05.07.06.1.11.16.25.19.42.03.21.03.45.01.72-.06.75-.35,1.32-.9,1.74-.56.43-1.16.62-1.83.57-.37-.03-.72-.1-1.03-.21-.28-.1-.52-.27-.74-.54l-.29.23h0s.23-.31.23-.31c-.08-.12-.16-.3-.23-.54-.07-.23-.08-.56-.05-.98.02-.31.09-.59.18-.84.12-.29.22-.42.29-.49.05-.05.11-.08.19-.12.09-.03.19-.05.34-.05.09,0,.16,0,.23,0,.2-.04.34-.19.35-.39l-.28-.43c-.05-.02-.11-.04-.2-.05l-.38-.04v.18s-.05,0-.07,0l-.04-.2c-.07-.01-.13-.02-.21-.03-.04,0-.08,0-.11-.01l-.48-.08c-.11-.01-.23.02-.34.12l-.15.3c-.02.12-.04.23-.07.35l-.19.8c-.03.15-.05.3-.07.44-.02.14-.03.27-.04.39-.05.67,0,1.21.15,1.66.15.44.35.82.6,1.11Z"/>
      <path class="cls-1" d="M17.75,52.69c.06-.06.1-.14.11-.22l-.18-.07h.08s0-.05,0-.05h.1s.04,0,.18.02c.11.01.26.04.45.08l2.57.53c.38.08.71.15,1,.21.28.06.49.11.64.17.06.02.1.04.13.05,0,.02,0,.04,0,.06-.03.12,0,.25.05.33l.28.19.43-.19c.05-.08.07-.16.08-.22,0-.05.02-.1.03-.17l.3-1.45-.11-.02.02-.06.12-.03c.02-.09.02-.17.01-.22l-.31-.35-.3.03c-.07.03-.18.12-.24.37l-.03.1.02.1s-.08.01-.18,0c-.16-.01-.38-.05-.66-.1l-3.58-.73c-.19-.04-.34-.07-.48-.11-.06-.02-.09-.03-.11-.03v-.1c.03-.09.02-.19,0-.25l-.3-.27-.46.18c-.05.08-.07.16-.08.22l-.22,1.09.21.06s-.03.03-.04.05h-.19c-.02.07-.04.14-.05.2l.13.03-.03.1-.12.02c-.02.09-.02.17,0,.24l.34.35.38-.13ZM23.92,51.87s-.04.05-.06.07l-.09-.02v-.03s.16-.02.16-.02ZM22.86,53.36h0s0,0,0,0h0ZM17.18,52.21s.01-.02.02-.02l.02.02h-.04Z"/>
      <path class="cls-1" d="M18.4,49.24l.15-.24.06-.18s.04,0,.17.04c.11.03.26.08.44.14l2.25.78c.54.18.98.28,1.35.28.05,0,.09,0,.14,0,.4-.03.74-.11,1.02-.26.14-.07.26-.15.37-.24.1-.09.19-.17.28-.28.17-.2.31-.42.41-.62.09-.2.16-.35.19-.45.07-.21.12-.44.17-.71.04-.29.02-.6-.06-.92-.01-.06-.03-.13-.05-.19-.02-.06-.04-.13-.07-.2-.16-.38-.41-.7-.75-.94-.3-.22-.64-.41-.99-.55l-2.46-.87c-.18-.06-.33-.12-.46-.17-.05-.02-.09-.04-.11-.05l.02-.11c.03-.07.03-.16,0-.26l-.27-.29-.47.13c-.05.06-.08.12-.11.2l-.04.12s-.03.1-.06.19l-.4,1.13c-.03.08-.04.15-.04.23,0,.18.12.33.3.39l.39-.08.15-.24.05-.17s.03,0,.08,0l.09.03c.11.03.26.07.44.14l2.09.72c.37.13.69.27.96.42.24.14.42.3.54.49.09.15.14.31.16.51.02.19,0,.37-.06.55-.05.14-.1.26-.17.37-.06.1-.13.18-.23.27-.03.02-.06.05-.09.07-.04.03-.08.05-.13.07-.16.08-.38.13-.63.14-.18.01-.53-.03-1.15-.24l-2.2-.76c-.17-.06-.31-.11-.46-.17-.05-.02-.09-.04-.11-.05l.02-.12c.03-.08.03-.17.01-.23l-.27-.31-.47.13c-.05.07-.09.14-.11.21l-.41,1.22s-.03.07-.04.1l-.1.3c-.03.09-.04.16-.04.21l.3.41c.15.04.29.01.39-.08ZM19.61,44.82s0,0,0-.01c0,0,0,0,0,0l.19-.02s.04.08.04.12l-.24-.08Z"/>
      <path class="cls-1" d="M21.94,42.39l.16.08c.06.03.12.05.19.07.26.08.55.1.87.07.31-.03.67-.14,1.11-.33l.43-.18c.2-.08.38-.15.53-.2.13-.04.26-.07.34-.08.09,0,.17,0,.25.02.08.02.16.05.32.13.13.08.23.21.29.39.06.16.03.35-.09.57-.09.18-.22.33-.39.44-.08.06-.21.12-.44.05-.04-.01-.08-.03-.12-.04l-.1-.05c-.07-.04-.13-.05-.21-.07l-.4.24.06.47s.08.08.15.12l.09.06s.11.07.15.08l.23.14c.09.05.19.11.3.16.15.08.21.1.26.11.03,0,.08.01.12.01.08,0,.18-.02.28-.08l.07-.05c.16-.13.31-.28.45-.45h0c.12-.17.23-.34.33-.52.11-.22.2-.45.26-.69.06-.25.08-.51.04-.76-.02-.18-.07-.35-.14-.5-.06-.14-.14-.27-.22-.39-.12-.16-.24-.28-.37-.38-.13-.1-.24-.17-.33-.22-.12-.06-.24-.11-.36-.15-.13-.05-.27-.08-.42-.09-.24-.02-.51,0-.79.07-.27.06-.6.18-.98.35l-.24.12c-.28.12-.51.21-.69.26-.15.05-.24.1-.37.07-.05,0-.1,0-.14-.02-.04-.01-.09-.03-.13-.05-.21-.11-.26-.23-.28-.32-.04-.16-.01-.31.07-.47.1-.19.17-.28.22-.33.09-.09.15-.12.18-.13l-.16-.34.26.31.05-.18s.03.02.05.03v.17s.09.03.18.06c.05.02.11.03.18.04l.39-.23-.1-.51s-.11-.08-.2-.13l-.31-.17c-.08-.04-.15-.08-.21-.12l-.22-.13c-.12-.07-.26-.07-.39,0l-.23.26s-.05.07-.08.1c-.08.09-.16.2-.24.31-.07.11-.15.24-.23.39-.27.53-.35,1.05-.23,1.52.13.49.43.87.91,1.11Z"/>
    </g>
  </g>
</svg>