<?xml version="1.0" encoding="UTF-8"?>
<svg id="Graphics" xmlns="http://www.w3.org/2000/svg" viewBox="0 0 120 120">
  <defs>
    <style>
      .cls-1 {
        fill: #000;
        stroke-width: 0px;
      }
    </style>
  </defs>
  <g id="Capitoline_Jupiter_Bold" data-name="Capitoline Jupiter Bold">
    <g>
      <path class="cls-1" d="M60.23,8.2c-28.44,0-51.57,23.13-51.57,51.57s23.13,51.57,51.57,51.57,51.57-23.13,51.57-51.57S88.66,8.2,60.23,8.2ZM60.23,108.34c-26.78,0-48.57-21.79-48.57-48.57S33.44,11.2,60.23,11.2s48.57,21.79,48.57,48.57-21.79,48.57-48.57,48.57Z"/>
      <path class="cls-1" d="M58.29,36.48l2.68-1.34c-.05-.1-5.46-10.53-18.84-4.25l1.27,2.72c10.67-5.01,14.72,2.56,14.88,2.88Z"/>
      <path class="cls-1" d="M35.45,57.5c-.05-.05-4.6-5.2-1.15-12.86l-2.74-1.23c-4.25,9.43,1.42,15.84,1.66,16.11l2.22-2.02Z"/>
      <path class="cls-1" d="M52.15,42.9l2.64-1.43c-.06-.12-6.37-11.39-18.88-4.71l1.41,2.65c9.86-5.26,14.64,3.14,14.83,3.5Z"/>
      <path class="cls-1" d="M46.27,52.86l.34-2.98c-.38-.04-9.21-1.18-9.37-8.92l-3,.06c.18,8.29,7.95,11.37,12.03,11.83Z"/>
      <path class="cls-1" d="M83.45,48.84c-.35-.09-8.68-2.1-14.62,5.38l2.35,1.87c.37-.47.76-.88,1.15-1.26,2.3,1.79,4.75,2.16,6.33,2.16.99,0,1.65-.14,1.72-.16l1.02-.81c.05-.11.94-2.02.3-4.43.58.06.95.14,1.01.16l.74-2.91ZM74.86,52.94c.76-.42,1.52-.71,2.25-.93-.04.61-.01,1.24.14,1.85-.73-.14-1.56-.42-2.39-.92Z"/>
      <path class="cls-1" d="M76.77,81.89c-.79-.52-1.43-1.06-1.92-1.6-.66-.73-.89-1.82-.63-2.93,1.12-4.69-1.37-7.46-3.57-9.9-1.84-2.04-3.56-4-3.67-7.14.1-.09.19-.17.28-.27,1.11-1.2,1.54-2.93,1.19-4.75-.26-1.36,0-2.69.78-3.95.42-.68,1.1-1.23,2.03-1.64,2.23-.99,2.98-2.41,3.21-3.43.19-.83.11-1.62-.09-2.31,1.74-.22,3.02-.9,3.81-2.02.53-.75.76-1.59.81-2.38.51.16.98.22,1.43.25,3.89,5.28,4.72,10.83,4.73,10.88l.32.74c3.32,4.1,6.02,8.68,5.77,9.8-.29,1.06-2.86,1.15-4.15.96-.05,0-.6-.09-1.42-.13-.28-.09-.49-.21-.6-.39-.11-.18-.11-.4,0-.6.15-.27.47-.42.89-.42v-3c-1.52,0-2.83.73-3.51,1.96-.46.82-.57,1.76-.35,2.63-3.5.59-5.68,2.49-6.13,5.37-.14.9-.01,2.06.23,4.14l.06.5c.12,1.04-.04,1.52-.16,1.64-.06.06-.25.12-.64.09l-.22,2.99c.13,0,.26.01.39.01,1.35,0,2.17-.54,2.63-1.02.85-.89,1.18-2.25.97-4.06l-.06-.5c-.18-1.58-.32-2.84-.24-3.34.39-2.48,3.29-3,5.41-3.04.32.35.49.68.45.88-.04.23-.31.5-.59.71-.84-.13-2.22-.17-3.33.68-.68.53-1.47,1.58-1.37,3.59l3-.15c-.03-.64.09-.97.21-1.06.23-.18.88-.15,1.26-.04.35.14.87.42.87.82,0,.42-.46,1.04-1.23,1.32l-.04,2.79c.89.37,2.85,1.54,3.25,2.82.1.33.17.86-.36,1.67-1.92,2.92-.9,4.66-.16,5.93.71,1.22,1.32,2.27-.92,5.63l2.5,1.66c3.03-4.55,2.21-6.76,1.01-8.81-.61-1.05-.82-1.41.07-2.77,1.13-1.72,1.02-3.24.72-4.2-.47-1.54-1.68-2.7-2.8-3.49.6-.74.95-1.63.96-2.54,0-.89-.32-1.7-.9-2.36.36-.45.68-.99.8-1.66.06-.33.08-.74,0-1.2,2.41.11,5.64-.48,6.39-3.25.82-3.04-3.79-9.29-6.08-12.16-.26-1.42-1.31-6.05-4.49-10.8.19-.12.36-.24.47-.33,1.73-1.45,2.21-3.99,1.15-6.17-.17-.36-.2-.6-.16-.68.29-.46,1.89-.81,3.08-.81h.01l1.09-2.54c-.13-.14-3.32-3.42-7.84-5.19-3.57-1.39-6.73-1.38-8.91.03-1,.65-1.76,1.55-2.29,2.69l-1.66-3.29-2.68,1.36.98,1.93c-9.5-3.36-26.11-3.62-36.3,9.32-7.9,10.03-6.84,20-5.5,25.06,1.33,5.04,3.98,9.26,6.77,10.94.21.48.34.99.23,1.31-.12.35-.67.66-1.51.86-3.5.82-4.5,3.22-4.29,5.03.28,2.41,2.54,4.22,5.28,4.22.49,0,.86.12,1.09.34.22.21.26.49.26.68,0,.7-.64,1.74-2.41,1.74v3c3.52,0,5.41-2.44,5.41-4.74,0-1.08-.41-2.09-1.16-2.82-.56-.55-1.56-1.2-3.19-1.2-1.37,0-2.21-.81-2.3-1.56-.09-.79.66-1.45,2-1.76,2.42-.57,3.32-1.83,3.66-2.79.43-1.23.13-2.5-.29-3.46.23-.09.44-.2.66-.29,2.13-.25,3.49.73,3.78,1.51.19.51-.07,1.01-.77,1.48-1.92,1.3-2.79,3.15-2.33,4.94.38,1.5,1.68,2.61,3.22,2.76.88.08,1.5.48,1.57,1.01.07.49-.32.97-1.03,1.25-2.82,1.11-3.47,3.25-3.17,4.74.37,1.83,2.08,3.09,4.23,3.02.73-.04,1.05.32,1.2.6.17.33.15.73-.05.99-.31.4-1.06.52-2.03.34.01-.06.04-.13.05-.19l-2.99-.21c-.09,1.28.33,2.05.7,2.47.53.61,1.17.79,1.49.84.57.12,1.08.17,1.54.17,2.12,0,3.2-1.06,3.61-1.59.9-1.17,1.04-2.81.35-4.18-.73-1.45-2.17-2.29-3.95-2.25-.79.03-1.15-.3-1.21-.62-.08-.38.3-.95,1.32-1.35,2-.79,3.17-2.58,2.9-4.46-.27-1.96-1.95-3.36-4.26-3.58-.29-.03-.53-.23-.6-.51-.13-.51.3-1.16,1.11-1.71,1.86-1.26,2.59-3.19,1.9-5.02-.39-1.04-1.2-1.89-2.22-2.5,1.2-.61,2.35-1.25,3.46-1.91,2.27,1.32,1.97,2.08,1.3,3.77-.63,1.58-1.69,4.23,1.47,6.58,1.61,1.19,1.36,1.79.16,3.89-.26.46-.53.92-.75,1.4-.83,1.74-.85,3.83-.05,5.6.58,1.29,1.54,2.27,2.74,2.84-.31,1.72-.41,4.2,1.06,5.76,1.26,1.34,3.25,1.64,5.89.89,2.58-.72,5.4-1.32,6.75-.21,1.23,1,1.32,3.47,1.18,5.36l2.99.22c.28-3.84-.47-6.42-2.28-7.9-2.41-1.97-5.97-1.33-9.46-.35-1.42.4-2.48.38-2.89-.06-.52-.55-.51-1.87-.3-3.1.89-.04,1.73-.26,2.49-.7.35-.2.66-.44.94-.69,3.55,1,13.96,3.92,18.84,5.08.7.17,1.33.25,1.88.25,1.33,0,2.22-.48,2.66-1.43.32-.7.26-1.49-.05-2.33,1.09-.68,1.91-1.76,2.2-3.02.24-1.02.42-3.64-3.03-5.91ZM74.09,25.89c1.33-.86,3.58-.77,6.19.25,1.74.68,3.27,1.64,4.44,2.5-.58.21-1.13.52-1.59.93l-.02-.02s-3.67,3.44-6.41,2.1l-1.31,2.7c.9.44,1.82.62,2.7.62,1.6,0,3.11-.58,4.32-1.25.02.05.04.1.06.15.46.94.3,2-.38,2.57-.91.76-2.48.48-4.2-.76l-2.25,1.82c.2.46.65,1.95.09,2.73-.47.66-1.79.94-3.67.78l-1.27,2.46c.25.3.93,1.35.75,2.15-.12.51-.62.96-1.5,1.35-1.47.65-2.63,1.62-3.36,2.8-1.18,1.89-1.58,4-1.18,6.1.17.89.01,1.65-.45,2.15-.46.5-1.21.72-2.13.61-2.08-.23-3.21.56-3.79,1.27-1.42,1.72-.84,4.42-.63,5.22.05,1.75-.88,2.32-1.68,2.49-.88.19-1.8-.06-2.33-.57.55-2.05.14-3.95-1.24-5.3-.62-.61-1.41-1.04-2.26-1.32,1.05-.85,2.05-1.72,3-2.6l5.79.12.06-3-2.86-.06c.91-.96,1.77-1.92,2.58-2.89l5.6.12.06-3-3.31-.07c.86-1.14,1.65-2.26,2.37-3.37l5.52-.59-.32-2.98-3.2.34c.78-1.35,1.47-2.64,2.08-3.86l5.72-.65-.34-2.98-3.92.45c.69-1.6,1.2-2.98,1.56-4.05l5.94-.68-.34-2.98-4.4.5c.28-1.07.78-1.86,1.5-2.32ZM27.92,59.67c-1.19-4.51-2.13-13.43,4.96-22.43,11.15-14.16,29.59-10.34,35.78-7.12-.35,1.06-.87,2.51-1.61,4.24l-2.8-3.53-2.35,1.86,3.74,4.72c-.63,1.28-1.37,2.64-2.21,4.06l-2.54-3.52-2.43,1.75,3.25,4.51c-.89,1.34-1.87,2.71-2.95,4.09l-2.6-4.12-2.54,1.6,3.13,4.95c-.97,1.12-2.02,2.24-3.14,3.34l-2.56-4.53-2.61,1.48,2.92,5.16c-1.28,1.15-2.65,2.27-4.1,3.37l-1.97-4.63-2.76,1.17,2.23,5.24c-1.22.82-2.51,1.62-3.85,2.39l-1.83-4.51-2.78,1.13,1.96,4.82c-1.16.6-2.35,1.18-3.6,1.72l-1.57-4.25-2.81,1.04,1.3,3.5c-1.38-1.66-2.78-4.27-3.64-7.52ZM73.81,91.41c-4.41-1.04-13.44-3.56-17.66-4.75.28-.61.46-1.19.58-1.64l-2.9-.75c-.37,1.44-1.09,2.56-1.98,3.06-.63.36-1.35.42-2.22.17-.98-.28-1.48-.99-1.73-1.54-.43-.96-.42-2.14.02-3.08.2-.41.43-.81.65-1.21,1.13-1.97,2.83-4.96-.98-7.79-1.3-.97-1.09-1.5-.47-3.05.65-1.62,1.66-4.18-1.33-6.61.47-.31.94-.61,1.39-.93,1.58-.53,3.18-.19,3.97.59,1.04,1.02.53,2.55-.09,3.66-.74,1.33-1.64,3.31-.96,5.15.66,1.79,2.53,2.67,3.88,3.17.91.34,1.49.87,1.59,1.45.06.38-.09.76-.43,1.04-.65.54-1.79.58-3.05.1l-1.05,2.81c.93.35,1.84.52,2.7.52,1.26,0,2.41-.38,3.31-1.12,1.17-.97,1.73-2.41,1.48-3.86-.28-1.67-1.55-3.04-3.5-3.76-1.21-.45-1.94-.93-2.11-1.4-.1-.28-.1-.81.35-1.81.86.52,1.9.82,2.97.82.4,0,.81-.04,1.21-.13,1.06-.23,1.94-.73,2.61-1.44.06.09.12.18.18.27,1.12,1.63,1.8,2.62.35,5.12-3.36,5.79,1.62,11.56,1.83,11.8l2.25-1.98c-.16-.18-3.76-4.4-1.49-8.32.77-1.33,1.12-2.47,1.2-3.48,1.1,1.06.94,2.29.7,4.05-.32,2.36-.76,5.6,2.94,8.32,3.79,2.78,6.03,5.43,6.65,6.67-.22-.02-.5-.07-.88-.16ZM69.81,82.48c-2.26-1.66-2.04-3.26-1.74-5.49.36-2.66.84-6.26-4.85-8.56-.17-.26-.34-.51-.5-.75-.68-.99-1.22-1.77-1.22-2.8h0s0-.06,0-.09l-.06-.35c-.24-.78-.37-2.17.02-2.63.22-.26.81-.24,1.14-.2.51.06,1,.05,1.47,0,.5,3.56,2.6,5.91,4.35,7.86,2.11,2.35,3.64,4.04,2.88,7.2-.49,2.06,0,4.16,1.31,5.63.66.73,1.5,1.44,2.5,2.1.77.51,2.03,1.54,1.76,2.72-.1.44-.43.84-.83,1.11-2.07-2.6-5.28-5.05-6.24-5.75Z"/>
      <path class="cls-1" d="M80.93,89.23l1.91,2.31c.22-.18,2.16-1.86,2.22-4.38.04-1.62-.69-3.12-2.17-4.47-.83-.76-.75-.88-.05-2.01.85-1.37,2.44-3.91-1.88-6.69l-1.62,2.53c1.83,1.17,1.7,1.39.96,2.57-.73,1.18-2.1,3.37.57,5.81.8.73,1.21,1.46,1.19,2.17-.02.99-.83,1.9-1.14,2.16Z"/>
      <path class="cls-1" d="M60.06,16.16c1.24,0,2.25-1.01,2.25-2.25s-1.01-2.25-2.25-2.25-2.25,1.01-2.25,2.25,1.01,2.25,2.25,2.25ZM60.06,13.16c.42,0,.75.34.75.75s-.34.75-.75.75-.75-.34-.75-.75.34-.75.75-.75Z"/>
      <path class="cls-1" d="M50.81,16.48c.38.27.83.41,1.28.41.13,0,.26-.01.39-.04,1.22-.21,2.04-1.38,1.83-2.6-.21-1.22-1.38-2.04-2.61-1.82-1.22.22-2.04,1.39-1.82,2.6.1.59.43,1.11.92,1.45ZM51.48,14.21c.11-.16.29-.28.48-.31.04,0,.09-.01.13-.01.15,0,.31.05.43.14.16.11.28.29.31.49.07.41-.2.8-.61.87-.41.08-.8-.2-.87-.61-.03-.19.01-.4.12-.56Z"/>
      <line class="cls-1" x1="45.09" y1="16.48" x2="45.08" y2="16.48"/>
      <path class="cls-1" d="M43.43,18.77c.3.14.62.21.95.21.26,0,.52-.05.77-.14,1.16-.42,1.76-1.72,1.34-2.88-.21-.56-.62-1.02-1.16-1.27-.55-.25-1.16-.28-1.72-.08-.56.21-1.02.62-1.27,1.16s-.28,1.16-.08,1.72c.2.57.62,1.02,1.16,1.27ZM43.7,16.42c.08-.18.24-.32.43-.39.19-.07.4-.06.57.03.18.08.32.24.39.42h0c.07.19.06.4-.03.58-.08.18-.24.32-.42.39-.19.07-.4.06-.58-.03-.18-.08-.32-.24-.39-.42-.07-.19-.06-.4.03-.58Z"/>
      <path class="cls-1" d="M36.5,20.52s0,0,0,0"/>
      <line class="cls-1" x1="37.79" y1="19.77" x2="37.8" y2="19.76"/>
      <path class="cls-1" d="M37.15,22.39c.38,0,.77-.1,1.12-.3,1.07-.62,1.44-2,.82-3.07-.3-.52-.79-.89-1.37-1.05-.58-.15-1.18-.08-1.7.22-.52.3-.89.79-1.05,1.37-.16.58-.08,1.18.22,1.7.42.72,1.17,1.12,1.95,1.12ZM36.77,19.49c.17-.1.38-.13.57-.07.19.05.36.18.46.35h0c.1.17.13.38.07.57-.05.19-.18.36-.35.46-.17.1-.38.13-.57.07-.19-.05-.36-.18-.46-.35,0,0,0,0,0,0-.21-.36-.08-.82.28-1.03Z"/>
      <line class="cls-1" x1="31.19" y1="24.27" x2="31.19" y2="24.27"/>
      <path class="cls-1" d="M30.42,26.99c.07,0,.13,0,.2,0,.53,0,1.03-.18,1.44-.53.46-.39.74-.93.79-1.53.05-.6-.13-1.18-.52-1.64-.38-.46-.93-.74-1.52-.8-.59-.05-1.18.13-1.64.52-.46.39-.74.93-.79,1.53-.05.6.13,1.18.52,1.64.39.46.93.74,1.53.79ZM30.13,24.17c.15-.13.35-.19.55-.17.2.02.38.11.51.27.13.15.19.35.17.55s-.11.38-.27.51c-.15.13-.35.2-.55.17-.2-.02-.38-.12-.51-.27-.13-.15-.19-.35-.17-.55.02-.2.11-.38.27-.51Z"/>
      <line class="cls-1" x1="25.47" y1="29.85" x2="25.46" y2="29.85"/>
      <path class="cls-1" d="M24.98,32.67c.07,0,.13,0,.2,0,.6-.05,1.14-.33,1.52-.79.39-.46.57-1.04.52-1.64-.05-.6-.34-1.14-.8-1.52-.46-.39-1.05-.57-1.64-.52-.6.05-1.14.33-1.53.79-.8.95-.67,2.37.28,3.17.41.34.91.53,1.44.53ZM24.41,29.94c.13-.15.31-.25.51-.27.2-.02.4.04.55.17h0c.32.27.36.74.09,1.06-.13.15-.31.25-.51.27-.2.02-.4-.05-.55-.17-.15-.13-.25-.31-.27-.51-.02-.2.05-.4.17-.55Z"/>
      <path class="cls-1" d="M19.3,38.94c.35.2.73.3,1.12.3.2,0,.39-.03.59-.08.58-.16,1.06-.53,1.36-1.04.3-.52.38-1.13.23-1.71-.16-.58-.53-1.07-1.05-1.37-.52-.3-1.12-.38-1.7-.22-.58.16-1.07.53-1.37,1.05-.62,1.07-.25,2.45.82,3.07ZM19.77,36.61c.1-.17.27-.3.46-.35.06-.02.13-.03.19-.03.13,0,.26.03.38.1.36.21.48.67.27,1.03-.1.17-.27.3-.46.35-.19.05-.4.02-.57-.07-.17-.1-.3-.27-.35-.46-.05-.19-.02-.4.07-.57Z"/>
      <line class="cls-1" x1="17.33" y1="43.54" x2="17.33" y2="43.55"/>
      <path class="cls-1" d="M16.3,46.36c.25.09.51.14.77.14.32,0,.65-.07.95-.21.54-.25.96-.71,1.16-1.27.21-.57.18-1.18-.08-1.72-.25-.54-.7-.96-1.27-1.16-1.16-.43-2.46.18-2.88,1.34-.42,1.16.18,2.45,1.35,2.88ZM16.36,43.99c.14-.39.58-.59.97-.45h0c.39.14.59.57.45.97-.14.39-.57.59-.96.45-.19-.07-.34-.21-.43-.39s-.09-.39-.03-.57Z"/>
      <path class="cls-1" d="M14.64,54.19c.13.02.27.04.4.04.46,0,.9-.14,1.28-.41.49-.34.82-.86.92-1.45.22-1.22-.6-2.39-1.82-2.61h0c-1.21-.21-2.38.6-2.6,1.82-.21,1.22.6,2.39,1.82,2.6ZM14.6,51.36c.16-.11.37-.16.56-.12.2.03.37.15.49.31.11.16.16.37.12.57-.07.41-.47.68-.87.61l.26-1.48-.26,1.48c-.41-.07-.68-.46-.61-.87.03-.2.15-.37.31-.49Z"/>
      <path class="cls-1" d="M16.61,59.94c0-1.24-1.01-2.25-2.25-2.25s-2.25,1.01-2.25,2.25,1.01,2.25,2.25,2.25,2.25-1.01,2.25-2.25ZM13.61,59.94c0-.42.34-.75.75-.75s.75.34.75.75-.34.75-.75.75-.75-.34-.75-.75Z"/>
      <path class="cls-1" d="M15.48,70.12c1.22-.21,2.04-1.38,1.82-2.61-.22-1.22-1.39-2.03-2.6-1.82h0c-1.22.22-2.04,1.39-1.82,2.6.1.59.43,1.11.92,1.45.38.27.83.41,1.28.41.13,0,.26-.01.39-.04ZM14.35,68.03c-.03-.19.01-.4.12-.56.11-.16.29-.28.48-.31.04,0,.09-.01.13-.01.15,0,.31.05.43.14.16.11.28.29.31.49.07.41-.2.8-.61.87l-.26-1.48.26,1.48c-.4.07-.8-.2-.87-.61Z"/>
      <path class="cls-1" d="M19.22,76.57c.25-.54.28-1.16.08-1.72-.42-1.16-1.71-1.77-2.88-1.34h0c-1.16.43-1.77,1.72-1.34,2.88.33.91,1.2,1.48,2.11,1.48.25,0,.51-.04.77-.14.56-.21,1.01-.62,1.27-1.16ZM17.87,75.94c-.08.18-.24.32-.42.39l-.51-1.41.51,1.41c-.39.14-.82-.06-.96-.45-.07-.19-.06-.4.03-.58s.24-.32.42-.39c.08-.03.17-.05.26-.05.31,0,.6.19.71.49.07.19.06.4-.03.58Z"/>
      <line class="cls-1" x1="20.22" y1="82.2" x2="20.22" y2="82.21"/>
      <path class="cls-1" d="M21.17,80.68c-.58-.15-1.18-.08-1.7.22,0,0,0,0,0,0-.52.3-.89.78-1.05,1.36-.16.58-.08,1.19.22,1.71.42.72,1.17,1.12,1.95,1.12.38,0,.77-.1,1.12-.3.52-.3.89-.79,1.05-1.37.16-.58.08-1.18-.22-1.7-.3-.52-.79-.89-1.37-1.05ZM21.32,83.05c-.05.19-.18.36-.35.46h0c-.17.1-.38.13-.57.07-.19-.05-.36-.18-.46-.35-.1-.17-.13-.38-.07-.57.05-.19.18-.36.35-.46,0,0,0,0,0,0,.36-.21.82-.08,1.03.28.1.17.13.38.07.57Z"/>
      <line class="cls-1" x1="24.72" y1="88.81" x2="24.72" y2="88.81"/>
      <path class="cls-1" d="M25.4,87.14c-.6-.05-1.18.13-1.64.52-.46.39-.74.93-.79,1.53-.05.6.13,1.18.52,1.64.39.46.93.74,1.53.79.07,0,.13,0,.2,0,.53,0,1.03-.18,1.44-.53.95-.79,1.07-2.21.28-3.17-.39-.46-.93-.74-1.53-.79ZM25.69,89.96c-.15.13-.35.19-.55.17-.2-.02-.38-.11-.51-.27-.27-.32-.22-.79.09-1.06.15-.13.36-.19.55-.17.2.02.38.11.51.27.13.15.19.35.17.55-.02.2-.11.38-.27.51Z"/>
      <path class="cls-1" d="M30.68,92.78c-.6.05-1.14.33-1.53.79-.39.46-.57,1.04-.52,1.64.05.6.33,1.14.79,1.52.41.34.92.53,1.44.53.07,0,.13,0,.2,0,.6-.05,1.14-.34,1.52-.79.39-.46.57-1.04.52-1.64-.05-.6-.34-1.14-.79-1.52-.46-.39-1.05-.57-1.64-.52ZM31.45,95.5c-.13.15-.31.25-.51.27-.2.02-.4-.04-.55-.17-.15-.13-.25-.31-.27-.51-.02-.2.05-.4.17-.55.13-.15.31-.25.51-.27.02,0,.04,0,.06,0,.18,0,.35.06.48.18.15.13.25.31.27.51s-.05.4-.17.55Z"/>
      <path class="cls-1" d="M38.56,97.63c-1.07-.62-2.45-.25-3.07.82h0c-.3.52-.38,1.13-.22,1.71.16.58.53,1.06,1.04,1.36.35.2.73.3,1.12.3.19,0,.39-.03.58-.08.58-.16,1.07-.53,1.37-1.05.3-.52.38-1.12.22-1.7-.16-.58-.53-1.07-1.05-1.37ZM38.09,99.95l-1.3-.75,1.3.75c-.21.36-.67.48-1.03.27-.17-.1-.3-.27-.35-.46-.05-.19-.02-.4.07-.57.1-.17.27-.3.46-.35.06-.02.13-.03.19-.03.13,0,.26.03.38.1.17.1.3.27.35.46.05.19.02.4-.07.57Z"/>
      <path class="cls-1" d="M45.47,100.82c-1.16-.42-2.46.17-2.88,1.34h0c-.42,1.17.18,2.46,1.35,2.88.25.09.51.13.76.13.92,0,1.78-.57,2.11-1.48.21-.57.18-1.18-.08-1.72-.25-.54-.7-.96-1.27-1.16ZM45.41,103.18l-1.41-.51,1.41.51c-.07.19-.21.34-.39.42-.18.08-.39.09-.57.03-.19-.07-.34-.21-.43-.39s-.09-.39-.03-.57c.11-.31.4-.5.71-.5.08,0,.17.01.26.04.39.14.59.57.45.96Z"/>
      <line class="cls-1" x1="51.69" y1="104.84" x2="51.69" y2="104.84"/>
      <path class="cls-1" d="M52.82,102.76c-.59-.1-1.19.03-1.68.37-.49.34-.82.86-.92,1.45-.11.59.03,1.19.37,1.68.34.49.86.82,1.45.92.13.02.26.03.39.03,1.07,0,2.02-.77,2.21-1.86.21-1.22-.6-2.39-1.82-2.6ZM52.86,105.59c-.16.11-.37.16-.56.12-.2-.03-.37-.15-.49-.31-.11-.16-.16-.37-.12-.56t0,0c.07-.41.47-.68.87-.61.2.03.37.15.49.31.11.16.16.37.12.56-.04.2-.15.37-.31.49Z"/>
      <path class="cls-1" d="M60.4,103.39c-1.24,0-2.25,1.01-2.25,2.25s1.01,2.25,2.25,2.25,2.25-1.01,2.25-2.25-1.01-2.25-2.25-2.25ZM60.4,106.39c-.42,0-.75-.34-.75-.75s.34-.75.75-.75.75.34.75.75-.34.75-.75.75Z"/>
      <line class="cls-1" x1="67.61" y1="105.04" x2="67.62" y2="105.04"/>
      <path class="cls-1" d="M67.96,102.7c-1.22.22-2.04,1.38-1.82,2.6.19,1.09,1.14,1.86,2.21,1.86.13,0,.26-.01.39-.03,1.22-.22,2.04-1.38,1.82-2.61-.22-1.22-1.38-2.04-2.61-1.82ZM68.49,105.65c-.4.07-.8-.2-.87-.61h0c-.07-.41.2-.8.61-.87.19-.04.4.01.56.12.16.11.27.29.31.48.07.41-.2.8-.61.87Z"/>
      <path class="cls-1" d="M75.3,100.7c-1.16.42-1.76,1.72-1.34,2.88h0c.33.91,1.2,1.48,2.11,1.48.25,0,.51-.04.77-.14,1.17-.42,1.77-1.71,1.34-2.88-.43-1.17-1.72-1.76-2.88-1.34ZM76.33,103.52c-.39.14-.82-.06-.97-.45-.07-.19-.06-.4.03-.57.08-.18.24-.32.42-.39.08-.03.17-.04.26-.04.11,0,.22.02.32.07.18.08.32.24.39.42l-1.41.51,1.41-.51c.14.39-.06.82-.45.96Z"/>
      <path class="cls-1" d="M82.18,97.46c-1.07.62-1.44,2-.82,3.07h0c.42.72,1.17,1.12,1.95,1.12.38,0,.77-.1,1.12-.3,1.07-.62,1.44-2,.82-3.07-.62-1.07-2-1.44-3.07-.82ZM83.68,100.06c-.36.21-.82.08-1.03-.28-.21-.36-.08-.82.28-1.03.12-.07.25-.1.37-.1.26,0,.51.13.65.37l-1.3.75,1.3-.75c.21.36.08.82-.28,1.03Z"/>
      <path class="cls-1" d="M90.03,92.56c-.6-.05-1.18.13-1.64.52-.46.39-.74.93-.79,1.53-.05.6.13,1.18.52,1.64.39.46.93.74,1.53.79.07,0,.13,0,.2,0,.53,0,1.03-.18,1.44-.53.46-.39.74-.93.79-1.53.05-.6-.13-1.18-.52-1.64-.38-.46-.93-.74-1.52-.8ZM90.32,95.37c-.15.13-.35.2-.55.17-.2-.02-.38-.12-.51-.27-.13-.15-.19-.35-.17-.55.02-.2.11-.38.27-.51.14-.11.31-.18.49-.18.02,0,.04,0,.06,0,.2.02.38.11.51.27.13.15.19.35.17.55s-.11.38-.27.51Z"/>
      <line class="cls-1" x1="94.98" y1="89.7" x2="94.99" y2="89.7"/>
      <path class="cls-1" d="M95.27,86.88c-.6.05-1.14.33-1.53.79-.39.46-.57,1.04-.52,1.64.05.6.33,1.14.79,1.53.41.34.91.53,1.44.53.07,0,.13,0,.2,0,.6-.05,1.14-.33,1.53-.8.8-.95.67-2.37-.28-3.16-.46-.39-1.05-.57-1.64-.52ZM96.04,89.61c-.13.15-.31.25-.51.27-.2.02-.4-.05-.55-.17,0,0,0,0,0,0-.15-.13-.25-.31-.26-.51-.02-.2.04-.4.17-.55.13-.15.31-.25.51-.27.2-.01.4.05.55.17.15.13.25.31.27.51.02.2-.05.4-.17.55Z"/>
      <path class="cls-1" d="M101.15,80.61c-1.07-.62-2.45-.25-3.07.82-.62,1.07-.25,2.45.82,3.07h0c.35.21.74.3,1.12.3.78,0,1.53-.4,1.95-1.12.62-1.07.25-2.45-.82-3.07ZM100.68,82.94c-.21.36-.67.48-1.03.27-.36-.21-.48-.67-.27-1.03.14-.24.39-.37.65-.37.13,0,.26.03.37.1l-.75,1.3.75-1.3c.36.21.48.67.27,1.03Z"/>
      <line class="cls-1" x1="103.12" y1="76.01" x2="103.12" y2="76"/>
      <path class="cls-1" d="M104.15,73.19c-1.16-.42-2.46.18-2.88,1.34-.21.56-.18,1.18.07,1.72.25.54.7.96,1.27,1.16.25.09.51.14.77.14.32,0,.65-.07.95-.21.54-.25.96-.7,1.16-1.27.21-.56.18-1.18-.07-1.72s-.71-.96-1.27-1.16ZM104.09,75.56c-.14.39-.57.59-.96.45,0,0,0,0,0,0-.19-.07-.34-.21-.42-.39-.08-.18-.09-.39-.03-.57.07-.19.21-.34.39-.43.18-.08.39-.09.58-.03.19.07.34.21.42.39.08.18.09.39.03.58Z"/>
      <path class="cls-1" d="M105.81,65.36c-1.22-.21-2.39.61-2.6,1.83-.21,1.22.6,2.38,1.82,2.6h0c.13.02.26.04.39.04,1.07,0,2.02-.77,2.21-1.86.22-1.22-.6-2.39-1.82-2.61ZM105.29,68.31c-.41-.07-.68-.46-.61-.87.03-.2.15-.37.31-.49.13-.09.28-.14.43-.14.04,0,.09,0,.13.01l-.26,1.48.26-1.48c.41.07.68.46.61.87-.07.41-.46.68-.87.61Z"/>
      <path class="cls-1" d="M106.09,57.36c-1.24,0-2.25,1.01-2.25,2.25s1.01,2.25,2.25,2.25,2.25-1.01,2.25-2.25-1.01-2.25-2.25-2.25ZM106.09,60.36c-.42,0-.75-.34-.75-.75s.34-.75.75-.75.75.34.75.75-.34.75-.75.75Z"/>
      <path class="cls-1" d="M104.97,49.43c-1.22.22-2.04,1.39-1.82,2.6.19,1.09,1.14,1.86,2.21,1.86.13,0,.26-.01.39-.03h0c1.22-.22,2.04-1.38,1.82-2.6-.21-1.22-1.38-2.04-2.61-1.82ZM106.1,51.51c.07.41-.2.8-.61.87-.41.07-.8-.2-.87-.61-.07-.41.2-.8.61-.87l.26,1.48-.26-1.48c.19-.04.4.01.56.12s.28.29.31.48Z"/>
      <path class="cls-1" d="M101.23,42.98c-.25.54-.28,1.15-.08,1.72.33.91,1.2,1.48,2.12,1.48.25,0,.51-.04.76-.13h0c1.16-.43,1.76-1.72,1.34-2.88-.43-1.17-1.72-1.76-2.88-1.34-.56.21-1.01.62-1.27,1.16ZM103,43.22l.51,1.41-.51-1.41c.39-.14.82.06.96.45.07.19.06.4-.03.58-.08.18-.24.32-.42.39-.39.14-.82-.06-.97-.45-.14-.39.06-.82.45-.96Z"/>
      <path class="cls-1" d="M99.28,38.87c.19.05.39.08.58.08.39,0,.77-.1,1.12-.3.52-.3.89-.79,1.05-1.37.16-.58.08-1.18-.22-1.7-.3-.52-.79-.89-1.37-1.05-.58-.16-1.19-.07-1.7.22-.52.3-.89.79-1.05,1.37-.16.58-.07,1.19.22,1.7.3.52.79.89,1.37,1.05ZM99.13,36.5c.05-.19.18-.36.35-.46.11-.07.25-.1.38-.1.06,0,.13,0,.19.03.19.05.36.18.46.35.1.17.13.38.08.57-.05.19-.18.36-.35.46-.17.1-.38.13-.57.08-.19-.05-.36-.18-.46-.35-.1-.17-.13-.38-.07-.57Z"/>
      <path class="cls-1" d="M95.05,32.4c.07,0,.13,0,.2,0,.53,0,1.03-.18,1.44-.53.46-.39.74-.93.79-1.53.05-.6-.13-1.18-.52-1.64-.38-.46-.93-.74-1.52-.8-.59-.05-1.18.13-1.64.52-.46.39-.74.93-.79,1.53-.05.6.13,1.18.52,1.64.39.46.93.74,1.53.79ZM94.76,29.59c.14-.11.31-.18.49-.18.02,0,.04,0,.06,0,.2.02.38.11.51.27.13.15.19.35.17.55s-.11.38-.27.51c-.15.13-.35.19-.55.17-.2-.02-.38-.12-.51-.27-.13-.15-.19-.35-.17-.55.02-.2.11-.38.27-.51Z"/>
      <path class="cls-1" d="M89.57,26.78c.64,0,1.28-.27,1.72-.8h0c.8-.95.67-2.37-.28-3.17-.46-.39-1.05-.57-1.64-.52-.6.05-1.14.33-1.53.79-.8.95-.67,2.37.28,3.17.42.35.93.53,1.44.53ZM89,24.05l1.15.96-1.15-.97c.27-.32.74-.36,1.06-.09s.36.74.09,1.06c-.13.15-.31.25-.51.27-.2.02-.4-.04-.55-.17-.15-.13-.25-.31-.27-.51-.02-.2.04-.4.17-.55Z"/>
      <path class="cls-1" d="M81.89,21.92c.35.2.73.3,1.12.3.2,0,.39-.03.58-.08.58-.16,1.07-.53,1.37-1.05.3-.52.38-1.12.22-1.7-.16-.58-.53-1.07-1.04-1.36-.52-.3-1.12-.38-1.71-.23-.58.16-1.07.53-1.36,1.05-.3.52-.38,1.13-.23,1.71.16.58.53,1.07,1.05,1.37ZM82.36,19.6c.1-.17.27-.3.46-.35.06-.02.13-.03.19-.03.13,0,.26.03.38.1.17.1.3.27.35.46.05.19.02.4-.07.57-.1.17-.27.3-.46.35-.19.05-.4.02-.57-.07-.17-.1-.3-.27-.35-.46-.05-.19-.02-.4.07-.57Z"/>
      <line class="cls-1" x1="76.45" y1="16.88" x2="76.46" y2="16.88"/>
      <path class="cls-1" d="M74.98,18.73c.25.09.51.14.77.14.32,0,.65-.07.95-.21.54-.25.96-.7,1.16-1.27.21-.56.18-1.18-.07-1.72s-.71-.96-1.27-1.16c-1.16-.43-2.46.18-2.88,1.34-.2.56-.18,1.17.08,1.72.25.55.71.96,1.27,1.16ZM75.04,16.36c.07-.19.21-.34.39-.43.18-.08.39-.09.57-.03.19.07.34.21.43.39.08.18.09.39.02.58h0c-.07.19-.21.34-.39.42-.18.08-.39.09-.57.03-.19-.07-.34-.21-.43-.39s-.09-.39-.03-.57Z"/>
      <line class="cls-1" x1="68.76" y1="14.71" x2="68.76" y2="14.71"/>
      <path class="cls-1" d="M67.63,16.79c.13.02.27.04.4.04.46,0,.9-.14,1.28-.41.49-.34.82-.86.92-1.45.21-1.22-.6-2.39-1.83-2.6-.59-.1-1.19.03-1.68.37-.49.34-.82.86-.92,1.45-.11.59.03,1.19.37,1.68.34.49.86.82,1.45.92ZM67.59,13.96c.16-.11.38-.16.56-.12.2.03.37.15.49.31.11.16.16.37.12.56h0c-.04.2-.15.37-.31.49s-.37.16-.56.12c-.2-.03-.37-.15-.49-.31-.11-.16-.16-.37-.12-.56.03-.2.15-.37.31-.49Z"/>
    </g>
  </g>
</svg>