<?xml version="1.0" encoding="UTF-8"?>
<svg id="Graphics" xmlns="http://www.w3.org/2000/svg" viewBox="0 0 120 120">
  <defs>
    <style>
      .cls-1 {
        fill: #000;
        stroke-width: 0px;
      }
    </style>
  </defs>
  <path class="cls-1" d="M107.92,62.5c-7.69-4.48-8.9-7.46-10.31-10.91-.75-1.86-1.61-3.96-3.45-6.4-5.89-7.78-13.66-10.55-30.8-10.97-14.74-.36-29.52,1.93-34.4,2.78-.35-4.03-1.15-6.42-2.39-7.12-.51-.29-1.1-.33-1.67-.13-1.52.55-3.04,3.42-4.17,6.14-1.19-.16-2.43-.08-3.3.02-1.35-2.57-2.33-4.09-2.9-4.53-.72-.54-1.73-.51-2.65.08-1.72,1.11-3.14,4.15-1.98,9.37.36,1.64.52,3.27.65,4.71.3,3.26.59,6.35,3.38,7.6.15,1.86,1.08,2.86,1.72,3.32,1.38.99,3.36,1.03,5.19.12.54-.27,1.01-.57,1.43-.83,1.53-.96,2.45-1.54,5.66-.1l.18.08c1.33.6,2.53,1.15,3.57,1.72l-4.8,20.87c-2.46.53-5.95,2.3-6.61,6.41l-.28,1.74h19.63l1.44-1.09c.15-.52,3.6-12.75,4.47-17.11.4-1.98.72-3.79.94-5.5.7.8,1.56,1.57,2.6,2.16l1.39.04c.11-.06,1.85-.93,3.13-2.91.75.93,1.84,1.82,3.43,2.43l1.23-.07c.09-.05,1.69-.9,2.88-3.1.66.91,1.5,1.85,2.55,2.57l1.43.15c.1-.04,1.98-.86,3.35-3.13.93,1.08,2.23,2.18,3.81,2.59l1.07-.12c.08-.04,1.06-.58,2.12-1.79l5.47,6.87-1.62,1.91c-.5-.68-1.12-1.4-1.86-2.13.17-.4.26-.85.26-1.31,0-1.89-1.54-3.42-3.42-3.42s-3.42,1.54-3.42,3.42c0,.52.13,1.01.34,1.45l-.81.61-.45-.48c-.42-.49-1.03-.79-1.67-.81-.64-.02-1.27.22-1.73.68-.86.86-.9,2.25-.07,3.2l1.57,1.61c.67.68,1.54.89,2.36.8v.92l-2.44,1.84-.39.91.45,4.2c-.42.08-.89.25-1.28.59-.43.37-.93,1.08-.87,2.35l1,.95h5.01l1-1.01-.07-5.46h.29s.02.06.02.1c.36,1.58,1.03,4.53,3.38,4.01l1.91-.58c.16.24.38.49.67.7.7.5,1.61.62,2.69.38l.76-1.17-.38-1.95,6.6-7.56.31,4.78c-2.2.56-4.9,2.23-5.1,6.06l1.5,1.58h8.92l1.48-1.27,2.22-14.51-.03-.58c-.05-.2-.5-2.02-1.21-4.58,4.09,3.88,8.15,5.01,8.38,5.07.51.16,1.02.24,1.51.24,1.55,0,2.89-.78,3.48-2.14.7-1.59.25-3.86-2.32-5.36ZM35.69,64.85c-.89,5.12-2.5,11.68-3.12,14.14-1,.21-2.16.69-3.14,1.58l4.87-21.17c1.27,1.33,1.81,2.99,1.38,5.45ZM28.22,81.16l.72-.06c-.54.63-1,1.4-1.28,2.38h-3.77c1.37-2.04,4.19-2.31,4.33-2.32ZM84.02,69.46l.03-1.9-6.89-8.66c.13-.29.24-.6.35-.92l9.95,12.2-6.62,7.58-.41-.25-2.45.74-.07-.86c.18-.02.36-.05.55-.1,1.26-.36,2.1-1.16,2.37-2.25.13-.53.11-1.11-.03-1.73l3.24-3.83ZM74.29,65.52c.79,0,1.42.64,1.42,1.42s-.64,1.42-1.42,1.42-1.42-.64-1.42-1.42.64-1.42,1.42-1.42ZM80.26,81.88c-.22-.14-.27-.42-.27-.42h0s-1.28-.83-1.28-.83l-2.69.82c-.4-.2-.8-1.95-.93-2.53-.09-.38-.16-.72-.24-.98l-.99-.71-2.08.06-.97,1.01.07,5.43h-1.85l1.11-1.02-.51-4.72,2.38-1.79.4-.8v-2.79l-1.52-.85c-.35.21-1.04.41-1.41.02l-1.53-1.57c-.11-.12-.1-.31.02-.43.08-.09.18-.09.23-.09.05,0,.15.02.26.14l1.09,1.17,1.33.12,1.68-1.26c.51.3,1.1.49,1.73.49.69,0,1.34-.21,1.88-.57,2.27,2.29,2.9,3.95,2.7,4.75-.04.14-.14.57-.98.81-.81.23-1.72-.37-3.17-2.07-.09-.11-.09-.27.02-.37.09-.09.22-.1.33-.04l1.78,1.74,1.4-1.43-1.84-1.8-.09-.08c-.9-.69-2.19-.61-2.99.2-.85.84-.9,2.17-.13,3.08.6.71,1.52,1.77,2.66,2.37l.22,2.69,1.28.88,2.57-.78.42,2.2s-.07-.03-.1-.05ZM107.49,66.66c-.12.28-.6.48-1.41.23-.34-.09-7.97-2.29-12.12-11.46-.85-2.37-1.77-4.66-2.72-6.5-2.97-5.76-8.94-7.06-9.19-7.11l-.62,2.94s4.84,1.1,7.14,5.55c.69,1.34,1.37,2.96,2.03,4.68l-.07.03c.18.48.39.92.58,1.38,2.02,5.65,3.64,11.92,3.99,13.32l-1.98,12.94h-5.71c.92-1.7,3.04-1.85,3.32-1.87l1.45-1.6-.54-8.19-.33-.85-15.81-19.37-1.16-.55h-24.24v3h23.52l1.42,1.74.02.33c-.4,2.92-1.85,4.46-2.62,5.09-1.42-.72-2.61-2.55-2.99-3.28l-2.8.34c-.42,1.82-1.36,2.86-2.01,3.39-1.61-1.52-2.44-3.72-2.45-3.74l-2.89.29c-.34,2.22-1.31,3.43-1.91,3.99-2.33-1.27-2.43-3.46-2.43-3.84,0-.02,0-.04,0-.07l-3-.09s0,.03,0,.06c-.06,2.36-1.34,3.75-2.16,4.4-2.25-1.72-3.09-4.66-3.1-4.69l-2.95.45c.09,2.59-.25,5.42-1.18,10.1-.7,3.51-3.23,12.64-4.11,15.79h-7.58c.87-1.49,2.49-1.61,2.87-1.62l1.45-1.12c.02-.09,2.3-8.85,3.43-15.38,1.32-7.61-4.58-10.24-9.32-12.36l-.18-.08c-4.66-2.08-6.69-.82-8.47.3-.4.25-.77.48-1.18.69-.8.4-1.65.45-2.1.13-.14-.1-.25-.24-.32-.41,1.2-.19,2.04-.84,2.72-1.36.96-.74,1.65-1.27,3.41-.95l.54-2.95c-3.07-.56-4.64.64-5.78,1.52-.94.73-1.34,1.03-2.57.62-1.3-.42-1.56-1.85-1.87-5.23-.14-1.53-.3-3.26-.71-5.09-.73-3.31-.18-5.05.3-5.79.56.9,1.43,2.48,2.13,3.84l.51,1,1.11-.21c1.06-.2,3.16-.38,4.26.02l1.38.5.53-1.37c.71-1.85,1.62-3.71,2.29-4.78.33,1.26.63,3.39.74,5.45l.09,1.73,1.7-.33c.18-.03,17.83-3.45,35.42-3.02,18.16.44,23.84,3.64,28.48,9.78,1.61,2.12,2.35,3.95,3.07,5.72,1.54,3.79,3,7.37,11.57,12.37.93.54,1.25,1.2,1.08,1.57Z"/>
  <path class="cls-1" d="M62.83,80.49c-.51.08-1.21.34-1.85,1.1-1.14-.52-3.37-1.91-3.2-4.92,1.52-.4,2.65-1.81,2.62-3.45l-.05-3.33c-.01-.86-.49-1.67-1.24-2.12-.68-.4-1.48-.44-2.21-.08-.63.26-1.01.91-1.22,1.74.05-.25.08-.5.08-.76,0-2.13-1.73-3.86-3.85-3.86s-3.85,1.73-3.85,3.86c0,1.14.51,2.16,1.31,2.87-1.45.88-3.33,2.31-3.88,4.07-.3.96-.18,1.94.36,2.82.69,1.14,1.48,1.8,2.39,2.02.05.01.1,0,.15.02-.76,1.44-.67,3.23.35,4.62l.61.83c-.8.9-1.46,2.46-.63,4.54l1.51.45,4.23-3.01.41-.94-.45-3.58,6.87,3.97,1.32-.29,3.07-4.34-.14-1.31c-.12-.12-1.26-1.13-2.72-.91ZM55.66,69.55c-.13.54-.19,1.15-.21,1.78l-.51-.29c.34-.43.6-.93.73-1.49ZM51.92,66.81c1.02,0,1.85.83,1.85,1.86s-.83,1.85-1.85,1.85-1.85-.83-1.85-1.85.83-1.86,1.85-1.86ZM61.51,85.16l-7.83-4.52-1.49.99.63,4.98-2.46,1.75c.09-.9.7-1.33.86-1.43l.3-1.46-1.16-1.57c-.73-.99-.59-2.35.32-3.17l2.05-1.87c.17-.1.34-.21.51-.31.74-.42,1.22-.98,1.4-1.63.11-.41.15-1.06-.3-1.82-.36-.61-.88-1.01-1.52-1.16-.68-.17-1.44-.02-2.11.41l-2.55,1.51,1.02,1.72,2.57-1.52c.23-.14.45-.21.6-.17.04,0,.15.04.27.24.03.06.11.2.09.28-.02.09-.15.24-.45.41-.25.14-.49.29-.72.44h0s-.01,0-.01,0c-.13.08-.26.16-.39.24-.95.59-1.84,1.15-2.43,1.01-.36-.09-.75-.46-1.14-1.11-.24-.39-.29-.77-.16-1.19.49-1.56,3.2-3.14,4.37-3.7.05,0,.1.01.14.01.42,0,.82-.09,1.2-.21l2.88,1.62,1.49-.94c-.1-1.47.03-3.1.29-3.5l.04-.02c.09-.05.19-.04.3.02.11.07.25.22.25.42l.05,3.33c.01.83-.65,1.52-1.48,1.54l-.9.63-.18.53c-.64,4.85,3.15,7.24,5.25,7.82l1.14-.47c.2-.34.51-.77.9-.83.09-.01.18-.01.28,0l-1.89,2.68Z"/>
</svg>