<?xml version="1.0" encoding="UTF-8"?>
<svg id="Graphics" xmlns="http://www.w3.org/2000/svg" viewBox="0 0 120 120">
  <defs>
    <style>
      .cls-1 {
        fill: #000;
        stroke-width: 0px;
      }
    </style>
  </defs>
  <g id="Colloseum_Bold" data-name="Colloseum Bold">
    <g>
      <path class="cls-1" d="M69.33,77.67c0,.83.68,1.49,1.5,1.49h5.13c.4,0,.78-.16,1.06-.44.28-.28.44-.67.44-1.07l-.05-7.53c0-1.13-.42-2.2-1.15-3.01-.78-.86-1.86-1.29-2.94-1.32-2.24.01-4.05,1.98-4.04,4.38l.05,7.5ZM73.34,68.79h0c.34,0,.58.21.69.33.24.26.37.62.37,1.01l.04,6.03h-2.13l-.04-6.01c0-.73.48-1.36,1.06-1.36Z"/>
      <path class="cls-1" d="M84.87,74.42l8.17.03h0c.4,0,.78-.16,1.06-.44.28-.28.44-.66.44-1.06v-7.76c0-2.49-2.45-4.44-5.59-4.44s-5.59,1.95-5.59,4.44v7.73c0,.83.67,1.5,1.49,1.5ZM86.38,65.19c0-.68,1.11-1.44,2.59-1.44s2.59.76,2.59,1.44v6.25l-5.17-.02v-6.23Z"/>
      <path class="cls-1" d="M97.49,80.17l5.51.03h0c.4,0,.78-.16,1.06-.44.28-.28.44-.66.44-1.06v-6.74c0-2.24-1.91-4.05-4.26-4.05s-4.26,1.82-4.26,4.05v6.72c0,.83.67,1.5,1.49,1.5ZM99,71.95c0-.58.56-1.05,1.26-1.05s1.26.47,1.26,1.05v5.24h-2.51v-5.24Z"/>
      <path class="cls-1" d="M109.63,64.54c-.55-.47-13.73-11.51-37.66-9.4-.77.07-1.37.72-1.37,1.49v4.85h-9.49l-1.46-3.06c-.25-.52-.78-.85-1.35-.85h-2.3l-12.92-33.25c-.27-.69-.99-1.08-1.71-.92-.92.2-22.61,4.95-28.83,19.31-.08.19-.12.39-.12.6v12.65c-.77,1.34-3,5.78-1.5,9.69v3.5c-.57,1.02-1.73,3.65-.33,6.33v5.45c-.63.95-1.16,2.5-.31,4.01v10.18c0,.83.67,1.5,1.5,1.5h96.87c.83,0,1.5-.67,1.5-1.5v-29.44c0-.44-.19-.85-.52-1.14ZM107.16,66.41v18.53c-.74-.53-1.65-.86-2.64-.86-2.4,0-4.35,1.82-4.35,4.05v5.49h-.87v-6.39c0-2.45-2.26-4.44-5.03-4.44s-4.82,1.84-5,4.15l-9.53-20.73v-3.21c0-.83-.67-1.5-1.5-1.5h-4.63v-3.47c19.23-1.29,31,6.5,33.55,8.39ZM103.16,93.36v-5.23c0-.57.62-1.05,1.35-1.05s1.35.48,1.35,1.05v5.24h-2.71ZM65.05,93.62h-3.7v-6.93c0-.89.83-1.62,1.85-1.62s1.85.73,1.85,1.62v6.93ZM63.2,82.08c-2.67,0-4.85,2.07-4.85,4.62v6.93h-.07v-6.86c0-2.53-2.18-4.59-4.85-4.59s-4.85,2.06-4.85,4.59v6.86h0v-6.72c0-2.5-2.18-4.54-4.85-4.54-2.23,0-4.1,1.43-4.66,3.36-.73-1.67-2.6-2.87-4.81-2.87-2.43,0-4.46,1.45-5,3.39-.74-1.37-2.27-2.33-4.07-2.33-2.5,0-4.54,1.84-4.54,4.11v.18c-.6-1.27-2-2.16-3.63-2.16-1.77,0-3.26,1.06-3.75,2.51v-1.96c5.49-4.18,35.38-5.33,53.94-5.06l5.69,12.1h-4.86v-6.93c0-2.55-2.18-4.62-4.85-4.62ZM55.29,93.62h-3.7v-6.86c0-.88.83-1.59,1.85-1.59s1.85.71,1.85,1.59v6.86ZM15.46,49.03c5.41-11.88,20.55-17.62,26.72-18.75l4.05,10.42c-6.34.37-21.16,3.56-30.8,12.08v-3.77l.03.02ZM15.13,57.28c9.42-10.48,27.46-13.73,32.24-13.65l.46,1.17c-4.47-.37-11.32.99-17.91,3.7-4.39,1.81-11.41,5.39-15.87,11.08.42-1.15.92-2.03,1.09-2.31ZM47.15,57.94c-.39.03-.79.06-1.2.09v-5.61c0-.66.36-1.1.6-1.1s.6.44.6,1.1v5.52ZM46.55,48.32c-1.98,0-3.6,1.84-3.6,4.1v5.89c-.11.01-.21.02-.32.03v-4.32c0-2.18-1.73-3.96-3.85-3.96s-3.85,1.78-3.85,3.96v5.35c-.19.03-.38.07-.57.1v-2.74c0-2.13-1.73-3.87-3.85-3.87s-3.85,1.74-3.85,3.87v4.4s-.09.02-.13.03v-1.33c0-1.82-1.5-3.3-3.35-3.3s-3.35,1.48-3.35,3.3v3.54c-.2.08-.39.16-.59.24-.1-1.54-.98-2.25-1.86-2.25-.94,0-1.88.78-1.88,2.54v1.57c-.55.32-1.09.65-1.6.99v-.82c2.24-5.58,8.46-10.81,17.13-14.37,7.64-3.14,14.97-4.08,18.02-3.26l3.73,9.61c-.73.02-1.62.06-2.65.11v-5.33c0-2.26-1.61-4.1-3.6-4.1ZM39.64,58.69c-.56.07-1.12.15-1.69.23v-4.89c0-.53.38-.96.85-.96s.85.43.85.96v4.67ZM31.38,60.04c-.57.12-1.13.24-1.7.36v-3.67c0-.48.38-.87.85-.87s.85.39.85.87v3.3ZM23.55,62.05c-.23.07-.46.15-.69.22v-2.43c0-.17.16-.3.35-.3s.35.14.35.3v2.21ZM59.18,64.42l4.94,10.5c-1.39,0-3.36,0-5.75.03v-6.54c0-2.01-1.47-3.69-3.44-4.17,1.49.02,2.91.08,4.25.18ZM53.79,67.08c.87,0,1.58.59,1.58,1.32v6.59c-1.01.02-2.06.04-3.16.07v-6.65c0-.73.71-1.32,1.58-1.32ZM49.22,68.4v6.74c-.17,0-.34.01-.51.02v-5.89c0-2.32-1.87-4.21-4.16-4.21s-4.16,1.89-4.16,4.21v.27c-.28-1.93-1.85-3.42-3.76-3.42-2.1,0-3.82,1.81-3.82,4.02v.89c-.28-1.9-1.75-3.36-3.54-3.36-1.89,0-3.43,1.64-3.57,3.71-.61-.96-1.63-1.58-2.78-1.58-1.86,0-3.38,1.63-3.38,3.64v4.31c-.15.03-.3.06-.44.09v-1.54c0-1.64-1.1-2.92-2.52-2.92s-2.52,1.28-2.52,2.92v2.78c-.16.05-.32.1-.48.16v-3.78c3.25-6.69,23.76-10.96,39.04-11.21-1.96.49-3.42,2.16-3.42,4.16ZM23.3,77.12c-.25.04-.51.07-.76.11v-3.8c0-.39.23-.64.38-.64s.38.26.38.64v3.68ZM29.87,76.32c-.4.04-.8.08-1.19.12v-4.78c0-.61.35-1,.6-1s.6.39.6,1v4.65ZM37.45,75.7c-.54.04-1.09.07-1.63.11v-5.68c0-.56.37-1.02.82-1.02s.82.47.82,1.02v5.56ZM45.71,75.27c-.77.03-1.54.06-2.32.1v-6.1c0-.67.52-1.21,1.16-1.21s1.16.54,1.16,1.21v6ZM13.06,82.65c10.59-4.75,46.83-4.76,52.47-4.72l.28.59c-9.63-.09-42.79-.02-52.93,4.89-.08-.27.06-.56.18-.75ZM17.98,93.62h-1.88v-4.05c0-.21.38-.53.94-.53s.94.32.94.53v4.05ZM26.74,93.62h-3.07v-5.6c0-.6.7-1.11,1.54-1.11s1.54.51,1.54,1.11v5.6ZM36.42,93.62h-4.29v-6.37c0-.66.88-1.4,2.15-1.4s2.15.74,2.15,1.4v6.37ZM45.58,93.62h-3.7v-6.72c0-.85.83-1.54,1.85-1.54s1.85.69,1.85,1.54v6.72ZM78.55,93.56v-7.78c0-1.12.83-2.03,1.85-2.03s1.85.91,1.85,2.03v7.8l-3.7-.02ZM92.23,93.4v-6.17c0-.78.93-1.44,2.03-1.44s2.03.66,2.03,1.44v6.25l-4.03-.02-.03-.07ZM89.03,93.62h-3.78v-7.85c0-.17-.03-.33-.05-.49l3.83,8.34ZM72.11,64.49h4.63v2.04c0,.22.05.43.14.63l6.9,15.02c-.87-.88-2.06-1.43-3.37-1.43-2.67,0-4.85,2.25-4.85,5.03v6.4l-13.02-27.68h9.58ZM57.35,60.58l.35.74c-13.62-.64-36.31,2.7-44.45,9.88.12-.29.24-.51.32-.64,10.43-9.67,41.11-9.97,41.42-9.97h2.37ZM40.77,26.65l.31.8c-5.94,1.26-17.92,5.91-24.98,14.87,5.57-9.98,20.3-14.52,24.67-15.67Z"/>
    </g>
  </g>
</svg>