<?xml version="1.0" encoding="UTF-8"?>
<svg id="Graphics" xmlns="http://www.w3.org/2000/svg" viewBox="0 0 120 120">
  <defs>
    <style>
      .cls-1 {
        fill: #000;
        stroke-width: 0px;
      }
    </style>
  </defs>
  <g id="Double_headed_eagle_Bold" data-name="Double headed eagle Bold">
    <g>
      <path class="cls-1" d="M69.92,30.08c.51,0,.93-.42.93-.94s-.42-.93-.93-.93-.93.42-.93.93.41.94.93.94Z"/>
      <path class="cls-1" d="M64.44,93.94c.21.28.76.23,1.21-.12.45-.35.65-.86.43-1.14-.21-.28-.75-.22-1.21.12-.45.35-.64.86-.43,1.14Z"/>
      <path class="cls-1" d="M61.46,92.84l1.04-.97,1.03,1.18c-.16.37-.16.77.01,1.13.15.33.44.58.81.69.16.05.32.07.49.07.37,0,.76-.1,1.12-.31.94-.53,1.36-1.47,1-2.23-.16-.33-.45-.58-.81-.69-.34-.1-.73-.1-1.11.03l-3.19-3.65-1.53,1.29.86.98-1.04.97,1.32,1.51ZM66.08,92.68c.22.28.02.79-.43,1.14-.45.35-1,.4-1.21.12-.21-.28-.02-.79.43-1.14.46-.34,1-.4,1.21-.12Z"/>
      <path class="cls-1" d="M58.09,89.45l-1.53-1.29-3.1,3.58c-.36-.11-.72-.11-1.04,0-.37.11-.66.36-.82.69-.36.76.06,1.7,1,2.23.37.21.76.32,1.12.32.17,0,.34-.03.49-.08.37-.11.66-.36.82-.69.18-.38.16-.81-.02-1.2l1.2-1.38,1.09,1,1.32-1.5-1.1-1.01.57-.66ZM54.21,93.91c-.18.31-.72.33-1.22.04-.49-.28-.75-.76-.57-1.07.18-.3.72-.32,1.21-.04.5.29.76.77.58,1.07Z"/>
      <path class="cls-1" d="M53.63,92.84c-.49-.28-1.03-.26-1.21.04-.18.31.08.79.57,1.07.5.29,1.04.27,1.22-.04.18-.3-.08-.78-.58-1.07Z"/>
      <path class="cls-1" d="M48.09,28.21c-.51,0-.93.42-.93.93,0,.19.06.38.16.53.17.25.45.41.77.41.52,0,.94-.42.94-.94s-.42-.93-.94-.93Z"/>
      <path class="cls-1" d="M104.27,78.54c-.74-1.72-2.74-5.6-4.29-8.54-2.41-4.59-4.39-9.15-5.9-13.58-.03-.27-.09-.52-.19-.75l-.37-.91c-.25-.78-.49-1.57-.72-2.35-.69-2.43-1.71-5.11-3.02-7.95-5.06-10.96-11.52-9.16-12.76-8.68-2.49.95-3.94,3.32-4.42,7.22-.09.69-.87,1.26-1.82,1.32-.52.04-2.32-.04-3.01-2.63-.92-3.5-.04-5.53.38-6.25.25-.42.51-.69.7-.84,3.2,1.99,5.8.47,5.91.4l-.08-2.19c-.3-.15-.71-.46-.92-.76,1.36.29,2.96,1.81,3.48,2.41l1.89-1.64c-.16-.19-.96-1.07-2.08-1.88,1.41.33,2.02,1.01,2.03,1.03l2.09-.17c.1-.18.92-1.78.36-3.59-.37-1.19-1.22-2.15-2.54-2.83-2.98-1.55-6.65-1.59-10.61-.12-3.75,1.39-7.49,4.13-9.49,6.8-2.04-2.72-5.83-5.47-9.65-6.86-3.89-1.41-7.51-1.35-10.46.18-1.31.69-2.17,1.64-2.53,2.83-.55,1.81.27,3.41.36,3.59l2.08.19s.69-.79,2.26-1.1c-1.35.98-2.34,2.14-2.52,2.37l1.93,1.59c.7-.85,2.36-2.43,3.65-2.77-.22.29-.61.58-.9.73l-.63,1.52c.17.49.63,1.11,1.44,1.38,1.08.36,2.37.02,3.93-1.05.48-.32,1.06.09,1.29.28,1.08.92,2.12,3.5.57,6.87-.97,2.1-2.3,2.69-3.22,2.54-.71-.11-1.22-.64-1.31-1.35-.48-3.91-1.93-6.27-4.42-7.22-.52-.2-1.08-.32-1.61-.37-2.48-.26-7.24.57-11.15,9.05-1.31,2.84-2.33,5.52-3.02,7.94-.26.89-.57,1.93-.94,3.01l-.27.66c-.1.23-.15.46-.19.7-1.52,4.37-3.46,8.82-5.78,13.23-1.55,2.95-3.56,6.83-4.29,8.54-1.42,3.34.27,4.67.82,4.99.46.27.99.4,1.52.4.57,0,1.13-.17,1.63-.45.63.29,1.34.47,2.05.47.15,0,.3,0,.45-.02.8-.08,1.52-.38,2.13-.85.54.19,1.1.29,1.69.29.54,0,1.09-.08,1.65-.24,2.15-.6,4.41-2.37,6.41-4.9.41.97,1.1,1.76,2.01,2.15.37.16.78.25,1.21.25.74,0,1.55-.28,2.32-.95l.29.96,2.39-.72-.48-1.59c2.4.99,6.63,2.67,9.11,3.3.42.1.81.14,1.17.14,1.78,0,2.94-1.09,3.73-2.37.08.15.15.32.24.45l-2.8,5.46h-2l-1.25,1.25v10.12l1.25,1.25h20.2l1.25-1.25v-10.12l-1.25-1.25h-2.77l-2.4-5.43c.07-.11.13-.22.19-.34.78,1.22,1.92,2.22,3.62,2.22.36,0,.75-.04,1.16-.14,2.94-.73,7.24-2.49,8.68-3.1,1.21.46,4.25,1.38,6.72.23.62-.29,1.19-.64,1.69-1.03,1.89,3.32,3.68,5.11,5.72,5.71.47.14.96.21,1.45.21.79,0,1.59-.18,2.41-.53.6.45,1.3.74,2.09.82.15.01.3.02.45.02.71,0,1.42-.17,2.04-.47.5.28,1.06.45,1.63.45.53,0,1.06-.13,1.52-.4.55-.33,2.24-1.65.81-4.99ZM25.99,57.56s0,0,0,.01h0s0,0,0-.01ZM34.87,78.09c-.62-.26-1.23-1.57-.76-2.94.05-.14.1-.27.18-.41.19-.38.47-.75,1.39-.83l.88,2.92c-.58.97-1.22,1.47-1.69,1.27ZM55.77,81.63c.15.09.3.17.44.24l-.91,3.45h-1.42l1.89-3.68ZM68.02,95.43h-17.7v-7.62h8.38v-2.5h-.81l.76-2.86c.16,0,.32.01.49,0l.44,2.85h-.87l.1,2.5h9.22v7.62ZM63.64,75.94h-.1s.47-.17.47-.17l-.36.17ZM62.1,85.31l-.51-3.35c.15-.06.31-.11.46-.18.04-.02.08-.04.13-.06l1.59,3.59h-1.66ZM81.61,68.1c1.43-.03,2.5.29,3.27.98-.8.59-1.06,1.55-1.21,2.16-.23.93-.37,1.27-.97,1.49-.75.26-1.3.07-2.31-.33-.75-.3-1.62-.63-2.66-.66.16-.98.52-1.53.53-1.55l.12-.2c.63-1.15,1.83-1.85,3.21-1.88ZM102.18,81.39c-.21.12-.64.03-.8-.17-.74-.94-7.04-12.01-10.83-18.76l-2.18,1.23c.88,1.56,7.65,13.58,10.19,17.75-.17.02-.33.03-.5.02-.47-.05-.85-.25-1.15-.62-2.4-2.98-5.49-8.77-5.52-8.83l-2.21,1.17c.11.21,2.48,4.66,4.78,7.9-.49.11-.95.1-1.4-.03-1.46-.43-2.99-2.17-4.67-5.3.45-.79.58-1.39.59-1.45.12-.57.2-1.08.24-1.63.01-.18.01-.34.01-.52,0-.51-.06-1.02-.19-1.48-.16-.65-.4-1.26-.7-1.82-.74-1.34-2.17-2.91-5.01-3.19v-1.29h1.77v-2.5h-1.77v-1.75h-2.5v1.75h-1.73v2.5h1.73v1.41c-1.75.38-3.28,1.46-4.13,3.02-.21.31-.96,1.56-1.03,3.52l-5.14,1.98-.51-1.12-2.27,1.04,1,2.19,1.58.65,6.88-2.65c1.04-.35,1.8-.06,2.76.33.73.29,1.57.62,2.56.62.47,0,.97-.07,1.5-.26,1.92-.69,2.32-2.28,2.56-3.24.02-.07.04-.15.06-.23.03.18.07.35.07.54,0,.12,0,.24,0,.35-.03.42-.09.81-.19,1.28,0,0-.14.61-.73,1.32-.31.38-.89.93-1.89,1.39-1.7.79-4.3-.06-5.16-.45h-1.02c-.05.01-5.47,2.34-8.76,3.16-1.44.34-2.2-.52-3.21-3.59-.02-.09-.05-.17-.08-.27l-2.02.59h-.47c-.04,1.66-.75,3.17-1.67,3.58h0s-.01.01-.02.02c-.33.15-.69.27-1.06.35-.65.14-1.33.13-1.99,0h-.03s0,0,0,0c0,0-.39-.1-.91-.4-.2-.11-.43-.24-.68-.51-.59-.6-1.02-1.71-1.25-3.19l-.67.1-1.76-.53c-.03.08-.05.16-.08.25-1.01,3.04-1.84,3.96-3.24,3.63-3.31-.84-10.44-3.89-10.51-3.92l-.07.15-.38-1.28c2.01.41,4.74,1.23,8.38,2.33l1.82.55,1.59-.95.35-1.75-2.45-.49-.08.4-.51-.15c-4.47-1.35-7.6-2.3-9.91-2.61l-1.66-5.51,3.56-1.1-.73-2.39-3.55,1.09-.96-3.19-2.39.72.96,3.21-3.28,1.01.74,2.39,3.26-1,1.43,4.76c-.9.17-1.91.6-2.62,1.66l-.08-.04c-.05.08-.09.17-.14.26l-.1.19c-2.05,3.71-4.89,6.54-7.22,7.19-.28.08-.55.11-.81.13,2.54-3.61,5.86-9.37,6.02-9.65l-2.17-1.25c-.04.08-4.53,7.87-6.95,10.87-.3.37-.67.57-1.15.62-.18.02-.36,0-.53-.02,2.32-4.01,8.2-15.27,9.52-17.8l-2.22-1.15c-3.52,6.75-9.37,17.82-10.09,18.74-.16.2-.59.3-.8.18-.18-.11-.28-.71.21-1.86.55-1.29,2.01-4.18,4.21-8.36,1.94-3.69,3.61-7.41,5.03-11.13.16.1.32.18.49.25.4.17.81.25,1.23.25s.83-.08,1.23-.25c.8-.33,1.43-.96,1.76-1.77l.78-1.92-2.32-.94-.78,1.91c-.08.19-.22.33-.41.41-.18.07-.37.07-.56,0-.25-.1-.42-.34-.45-.63.12-.36.25-.73.35-1.07l.48-1.18-.08-.03c.22-.69.42-1.36.59-1.97.6-2.11,1.47-4.43,2.58-6.89.27.26.59.48.95.63.37.15.74.22,1.12.22.26,0,.51-.04.75-.1.32.62.85,1.11,1.52,1.38.36.15.74.22,1.12.22.24,0,.48-.04.72-.1.32.58.83,1.04,1.47,1.3.37.15.74.22,1.12.22,1.18,0,2.3-.71,2.77-1.87l.68-1.68-2.32-.94-.68,1.68c-.1.25-.38.37-.64.27-.18-.07-.3-.25-.3-.45,0-.06,0-.11.04-.18l.68-1.68-.13-.05.03-.07-2.32-.94-.68,1.68c-.07.16-.19.24-.26.27-.07.03-.21.07-.37,0-.18-.07-.3-.25-.3-.45,0-.06,0-.11.04-.18l.68-1.68-.22-.09.04-.1-2.32-.94-.68,1.68c-.1.25-.38.37-.63.26-.18-.07-.3-.25-.3-.45,0-.06,0-.11.04-.18l.68-1.68-.13-.05c2.81-4.1,5.56-4.38,6.78-4.25.4.03.73.13.94.21.57.22,2.3.88,2.84,5.2.23,1.82,1.59,3.23,3.4,3.51,1.81.28,4.32-.61,5.88-3.96,2.01-4.34.77-8.13-1.22-9.82-1.33-1.13-2.93-1.32-4.21-.51.01-.04.02-.08.03-.12.15-.58.18-1.49-.51-2.49-.12-.17-.26-.33-.5-.54-.13-.1-.3-.23-.52-.37-.69-.42-1.91-.89-3.75-.7-1.12.11-2.01.39-2.7.72.14-.49.51-1.01,1.32-1.44,2.92-1.51,6.21-.86,8.45-.04,4.29,1.55,8.03,4.82,9.17,7.04v6.81h2.5v-6.43h0c.9-2.25,4.81-5.75,9.2-7.37,2.29-.85,5.63-1.54,8.58,0,.82.43,1.19.95,1.33,1.44-.69-.33-1.58-.61-2.69-.72-3.25-.33-4.55,1.3-4.78,1.62-.68.99-.65,1.89-.5,2.47.05.21.13.42.23.61-.5-.12-1.07-.37-1.68-.83l-.97-.23-.17.03c-1,.25-1.92,1.02-2.61,2.18-.72,1.22-1.77,3.91-.65,8.16.93,3.53,3.59,4.63,5.59,4.49,2.16-.15,3.9-1.62,4.14-3.51.54-4.32,2.27-4.98,2.83-5.2.73-.28,4.02-1.16,7.49,3.68h-.02s.69,1.71.69,1.71c.02.05.03.1.03.16,0,.2-.12.38-.3.45-.24.1-.53-.02-.63-.27l-.68-1.68-2.32.94.05.12-.22.09.7,1.68s.03.1.03.16c0,.15-.08.36-.31.45-.17.07-.31.03-.38,0-.08-.03-.19-.11-.26-.26l-.68-1.68-2.32.94.03.07-.12.05.7,1.7s.03.1.03.16c0,.15-.08.36-.31.45-.24.1-.53-.02-.63-.26l-.68-1.68-2.32.94.68,1.68c.47,1.16,1.59,1.86,2.77,1.86.37,0,.75-.07,1.11-.22.65-.26,1.16-.72,1.48-1.3.23.06.47.1.71.1.38,0,.76-.07,1.12-.22.68-.27,1.21-.76,1.53-1.38.24.06.5.1.75.1.37,0,.75-.07,1.11-.22.35-.14.66-.35.92-.6,1.18,2.6,2.11,5.05,2.74,7.26.15.52.31,1.04.48,1.56l-.08.03.37.92c.15.45.3.9.45,1.34-.02.24-.15.51-.44.63-.18.07-.39.07-.57,0-.18-.08-.32-.22-.4-.41l-.78-1.92-2.32.94.78,1.92c.32.8.94,1.43,1.74,1.77.41.17.84.26,1.27.26s.82-.08,1.21-.24c.17-.07.33-.15.48-.25,1.42,3.78,3.14,7.64,5.18,11.52,2.19,4.17,3.65,7.06,4.21,8.36.49,1.16.39,1.76.21,1.86Z"/>
      <path class="cls-1" d="M17.92,37.75c1.96,0,3.28-1.36,3.28-3.38s-1.31-3.26-3.19-3.26-3.28,1.42-3.28,3.37,1.31,3.27,3.19,3.27ZM16.56,34.46c0-.82.37-1.78,1.42-1.78.97,0,1.41.89,1.41,1.72,0,.88-.44,1.77-1.42,1.77s-1.41-.89-1.41-1.71Z"/>
      <polygon class="cls-1" points="23.48 37.66 23.98 37.16 23.98 31.7 23.48 31.2 22.71 31.2 22.21 31.7 22.21 37.16 22.71 37.66 23.48 37.66"/>
      <polygon class="cls-1" points="26.61 37.66 27.11 37.16 27.11 35.28 27.12 35.26 28.74 37.46 29.15 37.66 30.06 37.66 30.46 36.86 28.37 34.06 30.25 32.05 29.89 31.2 28.93 31.2 28.55 31.37 27.11 32.99 27.11 31.7 26.61 31.2 25.83 31.2 25.33 31.7 25.33 37.16 25.83 37.66 26.61 37.66"/>
      <polygon class="cls-1" points="23.56 86.91 23.2 86.07 21.88 86.07 21.5 86.24 19.18 88.85 19.18 86.57 18.68 86.07 17.62 86.07 17.12 86.57 17.12 94.09 17.62 94.59 18.68 94.59 19.18 94.09 19.18 91.42 19.41 91.18 21.76 94.39 22.17 94.59 23.43 94.59 23.83 93.8 20.87 89.8 23.56 86.91"/>
      <path class="cls-1" d="M40.12,56.25c-.16.39-.58.57-.97.41-.28-.11-.46-.38-.46-.67,0-.09.02-.19.06-.28l.78-1.93-.14-.06.03-.07-2.32-.94-.77,1.92c-.16.38-.59.57-.97.41-.33-.13-.45-.45-.45-.69,0-.1.02-.19.05-.26l.79-1.92-2.31-.95-.79,1.92c-.15.37-.24.79-.24,1.22,0,1.34.8,2.52,2.02,3.01.39.16.8.24,1.21.24.31,0,.62-.05.92-.14.35.67.92,1.22,1.66,1.52.4.16.81.24,1.22.24,1.27,0,2.49-.76,3-2.02l.78-1.92-2.32-.94-.78,1.91Z"/>
      <path class="cls-1" d="M39.54,21.72v1.57h7.75v-1.63c.92-.58,1.53-1.6,1.53-2.76,0-1.8-1.47-3.27-3.27-3.27-.35,0-.68.07-.99.17v-1.4h1.8v-2.5h-1.8v-1.82h-2.5v1.82h-1.78v2.5h1.78v1.37c-.29-.08-.59-.14-.9-.14-1.8,0-3.27,1.47-3.27,3.27,0,1.21.67,2.26,1.65,2.82ZM45.55,18.12c.42,0,.77.35.77.77s-.34.77-.77.77-.77-.35-.77-.77.35-.77.77-.77ZM41.16,18.12c.42,0,.77.35.77.77s-.34.77-.77.77-.77-.35-.77-.77.35-.77.77-.77Z"/>
      <path class="cls-1" d="M70.43,21.72v1.57h7.75v-1.63c.92-.58,1.53-1.6,1.53-2.76,0-1.8-1.47-3.27-3.27-3.27-.35,0-.68.07-.99.17v-1.4h1.89v-2.5h-1.89v-2.03h-2.5v2.03h-1.8v2.5h1.8v1.37c-.29-.08-.59-.14-.9-.14-1.8,0-3.27,1.47-3.27,3.27,0,1.21.67,2.26,1.65,2.82ZM76.44,18.12c.42,0,.77.35.77.77s-.34.77-.77.77-.77-.35-.77-.77.35-.77.77-.77ZM72.05,18.12c.42,0,.77.35.77.77s-.34.77-.77.77-.77-.35-.77-.77.35-.77.77-.77Z"/>
      <path class="cls-1" d="M50.05,19.12v2.5h17.66v-2.5h-.3c.32-.53.51-1.13.51-1.79,0-1.93-1.57-3.5-3.5-3.5-.47,0-.91.1-1.32.26-.52-1.28-1.62-2.25-2.97-2.62v-1.57h1.79v-2.5h-1.79v-2.07h-2.5v2.07h-2.11v2.5h2.11v1.63c-1.3.41-2.35,1.4-2.82,2.68-.43-.19-.9-.29-1.4-.29-1.93,0-3.5,1.57-3.5,3.5,0,.62.18,1.2.47,1.71h-.33ZM64.42,16.33c.55,0,1,.45,1,1s-.45,1-1,1-1-.45-1-1,.45-1,1-1ZM58.97,13.8c1.08,0,1.96.88,1.96,1.96s-.88,1.96-1.96,1.96-1.96-.88-1.96-1.96.88-1.96,1.96-1.96ZM53.41,16.41c.55,0,1,.45,1,1s-.45,1-1,1-1-.45-1-1,.45-1,1-1Z"/>
      <rect class="cls-1" x="50.24" y="53.11" width="2.5" height="3.17"/>
      <rect class="cls-1" x="54.64" y="46.77" width="2.5" height="3.18"/>
      <rect class="cls-1" x="62.39" y="57.43" width="2.5" height="3.18"/>
      <rect class="cls-1" x="61.92" y="67.46" width="2.5" height="3.18"/>
      <rect class="cls-1" x="54.3" y="67.21" width="2.5" height="3.17"/>
      <rect class="cls-1" x="55.52" y="57.12" width="2.5" height="3.17"/>
      <rect class="cls-1" x="68.72" y="51.47" width="2.5" height="3.18"/>
      <rect class="cls-1" x="62.06" y="47.03" width="2.5" height="3.18"/>
      <rect class="cls-1" x="45.73" y="61.45" width="2.5" height="3.17"/>
      <rect class="cls-1" x="69.58" y="63.31" width="2.5" height="3.17"/>
      <path class="cls-1" d="M84.26,50.81l-2.32.94.79,1.94c.03.07.04.16.04.26,0,.25-.14.56-.46.68-.18.07-.38.07-.56,0-.18-.08-.32-.22-.39-.4l-.78-1.92-2.32.94.03.07-.14.06.78,1.93c.03.07.04.16.04.27,0,.25-.14.56-.45.68-.38.15-.81-.03-.96-.4l-.78-1.93-2.32.94.78,1.93c.51,1.25,1.72,2.01,3.01,2.01.4,0,.81-.08,1.21-.23.74-.3,1.32-.85,1.66-1.53.3.09.6.15.91.15.42,0,.83-.08,1.22-.24,1.22-.49,2.01-1.67,2.01-3,0-.43-.08-.84-.23-1.21l-.78-1.93Z"/>
      <polygon class="cls-1" points="91.59 33.44 94.65 33.44 94.65 38.28 97.15 38.28 97.15 32.19 95.9 30.94 90.34 30.94 89.09 32.19 89.09 38.39 91.59 38.39 91.59 33.44"/>
      <polygon class="cls-1" points="96.57 85.94 95.32 87.19 95.32 93.39 97.82 93.39 97.82 88.44 100.88 88.44 100.88 93.28 103.38 93.28 103.38 87.19 102.13 85.94 96.57 85.94"/>
      <path class="cls-1" d="M90.12,93.97h-.01c-.95-.1-1.9.02-2.78.36-.66.26-1.19.69-1.55,1.23-.71-.2-1.6-.51-2.49-.99.41-.48.75-.91,1.02-1.28.38.12.78.19,1.18.19.57,0,1.15-.13,1.69-.39,1.06-.5,1.99-1.28,2.69-2.27,1.65-2.33.8-6.68.47-7.21l-1.23-.58c-.47.06-4.66.7-6.2,2.86h0c-.69.99-1.11,2.12-1.24,3.28-.11.96.13,1.87.65,2.62-.26.35-.6.79-1.02,1.27-.68-.71-1.15-1.52-1.41-2.44.34-.29.61-.66.77-1.11.26-.7.34-1.43.25-2.17-.19-1.65-1.21-3.03-2.66-3.61l-1.19.14c-1.27.9-1.93,2.48-1.73,4.12.08.75.34,1.46.76,2.06.33.48.79.82,1.31,1,.37,1.46,1.1,2.73,2.17,3.81-.61.59-1.31,1.22-2.1,1.86-.44-.48-.8-.99-1.11-1.52.38-.38.64-.87.72-1.43.09-.66.01-1.33-.23-2-.54-1.41-1.76-2.4-3.2-2.59l-1.09.41c-.96,1.08-1.23,2.64-.7,4.06v.02c.26.65.66,1.22,1.14,1.63.26.23.56.39.87.5.41.86.94,1.67,1.59,2.41-.98.7-2,1.33-3.04,1.87-3.65,1.91-7.69,2.88-11.98,2.91v-3.3s-.09,0-.09,0h-2.5v3.02c-4.04-.07-7.96-1.11-11.62-3.1-1.07-.58-2.12-1.25-3.14-1.99.78-.82,1.34-1.75,1.66-2.75.42-.09.82-.28,1.16-.58.5-.44.89-1,1.14-1.63v-.03c.53-1.41.26-2.96-.68-4.04l-1.1-.42c-1.44.18-2.67,1.18-3.21,2.6-.23.62-.31,1.3-.24,1.98.06.49.27.93.57,1.29-.21.7-.62,1.36-1.21,1.95-.66-.62-1.33-1.3-2.01-2.04,1.26-1.12,2.12-2.5,2.46-3.97.46-.19.86-.51,1.16-.95.41-.6.68-1.31.77-2.05h0c.2-1.65-.46-3.24-1.73-4.14l-1.19-.14c-1.44.57-2.47,1.95-2.67,3.59-.09.75,0,1.5.24,2.16.18.51.5.92.89,1.23-.26.87-.8,1.69-1.58,2.39-.34-.41-.68-.84-1-1.26.54-.76.8-1.7.69-2.68-.12-1.16-.55-2.29-1.24-3.27h0c-1.55-2.19-5.74-2.81-6.21-2.87l-1.25.62c-.31.54-1.09,4.91.5,7.17.67.96,1.59,1.74,2.68,2.27.55.26,1.13.39,1.71.39.37,0,.74-.06,1.1-.17.3.39.6.78.91,1.16-.8.36-1.68.6-2.6.73-.33-.37-.76-.67-1.25-.86-.86-.33-1.82-.46-2.78-.36h-.01c-2.11.24-3.89,1.52-4.65,3.34l.13,1.2c1.02,1.45,2.73,2.29,4.57,2.29.22,0,.45-.01.68-.04.96-.1,1.85-.41,2.67-.94.79-.53,1.29-1.34,1.41-2.22,1.25-.22,2.44-.62,3.51-1.18.66.73,1.33,1.42,1.99,2.05-.63.29-1.32.51-2.05.65-.34-.15-.72-.24-1.13-.27-.84-.02-1.72.16-2.52.53-1.75.82-2.92,2.46-3.05,4.29l.52,1.1c.85.61,1.87.92,2.92.92.78,0,1.58-.17,2.32-.53.8-.37,1.5-.94,2.02-1.62.51-.66.72-1.46.61-2.24,0,0,0-.02,0-.02.84-.26,1.63-.6,2.35-1.03.18.14.36.28.54.41.25.19.48.34.72.5.12.08.24.17.37.26,0,0,0,0,0,0h0c.32.22.65.42.98.62-.29.24-.65.49-1.08.72-.27-.07-.55-.11-.85-.09-.72.04-1.41.27-2.05.66-1.38.84-2.19,2.31-2.12,3.83l.63,1.02c.62.35,1.32.53,2.03.53.8,0,1.61-.23,2.34-.67.63-.37,1.16-.9,1.53-1.52.36-.6.45-1.28.31-1.92.67-.43,1.19-.88,1.57-1.28,3.76,1.88,7.75,2.86,11.88,2.93,0,.06,0,.11.02.16-.12.62-.42,1.07-.94,1.4-2.21,1.37-7.22.23-8.96-.32l-.76,2.38c.49.16,3.54,1.09,6.59,1.09,1.61,0,3.21-.26,4.45-1.02.34-.21.63-.46.89-.73.25.25.52.48.83.68,1.24.79,2.88,1.05,4.53,1.05,3.04,0,6.08-.9,6.58-1.06l-.74-2.39c-1.77.55-6.85,1.66-9.03.28-.45-.29-.73-.68-.86-1.23,4.32-.03,8.4-.94,12.13-2.71.44.56,1.07,1.21,1.94,1.78-.15.64-.05,1.33.31,1.93.37.61.89,1.13,1.52,1.52.73.45,1.54.67,2.34.67.71,0,1.41-.18,2.03-.53l.63-1.02c.07-1.51-.74-2.98-2.11-3.83-.61-.37-1.31-.6-2.04-.66-.3-.02-.59.02-.87.09-.64-.34-1.13-.75-1.49-1.14.37-.22.74-.45,1.11-.69h0c.49-.31.94-.63,1.38-.95,1.03.8,2.06,1.38,2.85,1.75,0,.63.21,1.27.64,1.81.53.68,1.23,1.24,2.01,1.6.75.35,1.55.52,2.33.52,1.05,0,2.07-.31,2.91-.93l.51-1.09c-.11-1.82-1.27-3.46-3.04-4.29h0c-.79-.37-1.66-.55-2.53-.53-.68.03-1.27.27-1.74.65-.52-.25-1.18-.61-1.88-1.09.82-.68,1.54-1.34,2.17-1.97,1.36.84,2.77,1.33,3.85,1.6.21.71.67,1.35,1.34,1.79.78.51,1.69.83,2.64.94.22.02.44.03.65.03,1.86,0,3.59-.85,4.6-2.3l.13-1.2c-.76-1.83-2.54-3.11-4.65-3.34ZM40.46,86.62c.05-.41.21-.78.45-1.07.16.34.22.74.17,1.14-.04.35-.17.68-.36.96-.03.05-.08.07-.09.07-.01,0-.04-.02-.07-.1-.12-.31-.15-.65-.11-1ZM30.79,96.72c-.47.31-.99.49-1.56.55-.9.1-1.78-.15-2.42-.66.51-.64,1.31-1.07,2.23-1.17.56-.06,1.12.01,1.62.2.35.13.42.37.44.5.01.13,0,.38-.31.58ZM82.72,101.55c.07-.16.27-.19.37-.19.03,0,.06,0,.09,0,.44,0,.88.1,1.29.29.66.31,1.17.83,1.42,1.44-.63.19-1.36.13-2.02-.18-.42-.2-.8-.5-1.09-.88-.12-.16-.15-.3-.06-.48ZM84.95,87.33c.5-.7,2-1.28,3.33-1.6.12,1.14.12,2.82-.45,3.64-.45.64-1.04,1.14-1.72,1.46-.67.32-1.2.03-1.39-.11-.2-.14-.64-.54-.56-1.28.08-.74.36-1.47.8-2.1ZM77.98,86.57c.23.29.39.67.44,1.08.04.35,0,.68-.12,1.01-.02.06-.05.08-.06.08-.01,0-.05-.02-.1-.09-.18-.27-.3-.58-.33-.92v-.02c-.05-.41.01-.81.17-1.14ZM74.49,92.67c.1.27.13.54.14.77-.18-.15-.34-.38-.44-.65-.09-.24-.12-.49-.1-.73.18.16.32.37.41.6ZM44.39,91.66c.09-.24.23-.45.41-.61.02.24,0,.49-.09.73-.1.26-.26.48-.41.7-.03-.28,0-.56.1-.81ZM32.78,89.81c-.69-.34-1.29-.84-1.72-1.46-.57-.81-.57-2.5-.46-3.64,1.33.32,2.83.9,3.33,1.6.44.64.72,1.36.8,2.1.06.56-.19,1.07-.67,1.35-.23.14-.7.32-1.29.04ZM36.1,101c-.28.37-.66.67-1.1.88-.65.31-1.38.36-2.01.18.26-.6.77-1.13,1.42-1.43h0c.44-.21.9-.3,1.35-.29.18,0,.28.07.32.1.07.05.12.13.13.22.02.11-.02.24-.12.36ZM41.25,104.89c-.32.2-.66.3-1,.31.16-.29.41-.56.72-.75h0c.24-.15.49-.25.77-.25.06,0,.12,0,.18.01-.16.27-.39.5-.69.67ZM77.9,105.47h0c.31.19.56.46.72.75-.34,0-.68-.11-.99-.3-.29-.18-.52-.41-.65-.75.33.03.64.13.92.3ZM89.65,98.29c-.55-.06-1.09-.26-1.55-.55-.31-.21-.34-.45-.32-.58.02-.22.18-.4.44-.5.39-.15.82-.23,1.25-.23.12,0,.25,0,.37.02.9.1,1.71.54,2.22,1.17-.64.51-1.52.76-2.41.67Z"/>
    </g>
  </g>
</svg>