<?xml version="1.0" encoding="UTF-8"?>
<svg id="Graphics" xmlns="http://www.w3.org/2000/svg" viewBox="0 0 120 120">
  <defs>
    <style>
      .cls-1 {
        fill: #000;
        stroke-width: 0px;
      }
    </style>
  </defs>
  <g id="Fasces_Lictoriæ_Bold" data-name="Fasces Lictoriæ Bold">
    <path class="cls-1" d="M96.92,44.49l-2.57-.04.87,2.11c.1.24,2.34,5.82-2.03,8.44-2.04,1.23-3.89,1.56-5.48,1-2.04-.72-3.36-2.75-4-3.97l12.85-12.85,6.84-6.83h0s1.08-1.08,1.08-1.08l1.04-1.04h0s4.95-4.96,4.95-4.96c.59-.59.92-1.38.92-2.22s-.33-1.62-.92-2.22l-11.48-11.47c-.59-.6-1.37-.92-2.21-.93h-.01c-.84,0-1.63.33-2.22.92l-7.07,7.07h0s-6.01,6.02-6.01,6.02l-26.36,26.35h0s-5.88,5.88-5.88,5.88h0s-24.91,24.91-24.91,24.91l-2.12,2.12-5.88,5.88-6.76,6.76c-.59.59-.92,1.37-.93,2.21,0,.84.32,1.63.92,2.23l11.49,11.48c.59.59,1.38.92,2.22.92s1.62-.33,2.22-.92l5.24-5.24,7.41-7.4h0s.56-.56.56-.56l1.56-1.56h0s22.79-22.79,22.79-22.79h0s1.56-1.56,1.56-1.56l.56-.56h0s7.22-7.23,7.22-7.23l.12-.12,19.82,19.82c.99.99,2.31,1.5,3.64,1.5,1.09,0,2.18-.34,3.1-1.04,4.73-3.59,12.67-11.42,12.72-23.49.03-8.32-6.63-15.29-14.85-15.53ZM91.59,39.9l-5.29.77,4.7-4.7,2.26,2.26-1.68,1.68ZM84.05,29l-14.03,14.03-5.74.83,17.32-17.31,2.45,2.45ZM86.17,31.13l2.72,2.72-7.55,7.55-6.36.92,11.19-11.19ZM77.8,44.94l-11.15,11.15-2.72-2.72,7.51-7.51,6.36-.92ZM71.03,60.46l-2.26-2.26,13.99-13.99,5.29-.77-17.02,17.02ZM96.3,21l5.04-5.05,2.72,2.72-5.04,5.05-2.72-2.72ZM108.35,23.14l-4.95,4.96-2.26-2.26,5.04-5.05,2.16,2.16s.04.14,0,.19ZM96.67,11.47s.06-.04.19,0l2.36,2.36-5.04,5.05-2.46-2.46,4.95-4.95ZM90.83,19.77l10.45,10.45-1.92,1.92-11.68-11.68,1.92-1.92,1.23,1.23ZM85.56,22.59l11.67,11.67-1.84,1.84-11.67-11.67,1.84-1.84ZM60.73,47.42l5.74-.83-4.66,4.66-2.45-2.45,1.38-1.38ZM68.91,62.59l-1.92,1.92-11.81-11.54,2.05-2.05,11.68,11.67ZM32.28,87.54l-1.26-1.26,8.48-8.48,6.36-.92-12.13,12.13-1.46-1.46ZM43.05,74.25l10.76-10.76,2.72,2.72-7.12,7.12-6.36.92ZM51.69,61.37l-13.6,13.6-5.75.84,16.9-16.9,2.46,2.46ZM28.79,79.36l5.75-.84-5.64,5.64-2.46-2.46,2.34-2.34ZM20.28,87.87l11.68,11.67-1.84,1.84-11.67-11.68,1.84-1.84ZM23.61,99.12l-4.74,4.74-2.72-2.72,4.74-4.74,2.72,2.72ZM11.67,96.47l4.65-4.65,2.45,2.46-4.74,4.74-2.36-2.36s-.04-.06,0-.19ZM23.35,108.14s-.16.02-.19,0l-2.16-2.16,4.74-4.73,2.26,2.26-4.64,4.64ZM34.08,97.42l-11.68-11.68,1.92-1.92,5.84,5.84,5.84,5.84-1.92,1.92ZM35.86,91.12l14.97-14.97,5.29-.77-17.99,17.99-2.26-2.26ZM59.66,71.84l-5.29.77,4.27-4.27,2.26,2.26-1.25,1.25ZM51.35,56.79l1.71-1.71,11.81,11.54-1.84,1.84-11.68-11.68ZM97.23,81.13c-.85.64-2.05.56-2.8-.19l-19.82-19.82,6.9-6.9c.98,1.62,2.65,3.69,5.18,4.6,2.48.88,5.19.47,8.04-1.25,4.12-2.47,4.52-6.77,3.93-9.89,5.74,1.06,10.13,6.25,10.11,12.33-.04,10.78-7.24,17.86-11.53,21.12Z"/>
  </g>
</svg>