<?xml version="1.0" encoding="UTF-8"?>
<svg id="Graphics" xmlns="http://www.w3.org/2000/svg" viewBox="0 0 120 120">
  <defs>
    <style>
      .cls-1 {
        fill: #000;
        stroke-width: 0px;
      }
    </style>
  </defs>
  <g id="Fig_-_FICUS_RUMINALIS_Bold" data-name="Fig - FICUS RUMINALIS Bold">
    <path class="cls-1" d="M104.15,60.05l-.06-.02c-.2-6.23-3.53-12.21-8.31-14.63-4.73-2.39-9.79-2.52-14.06-1.31-.01,0-.02,0-.03,0h0c-2.58.75-4.87,1.97-6.61,3.48.55-1.55,1.06-3.17,1.53-4.88l1.32-4.82c1.11-.76,2.19-1.68,3.34-2.68,3.56-3.07,7.59-6.56,14.73-7.09l-.22-2.99c-8.12.61-12.75,4.6-16.47,7.81,0,0-.01.01-.02.02l7.22-24.29h-9.05l-2.88,9.97c-1.68-.42-4.65-.96-8.19-.71-3.58.24-7.17,2.84-9.43,4.83-.59-3.56-2.47-6.58-5.34-8.33-4.4-2.68-6.62-1.75-7.55-.95-.58.5-.92,1.18-.98,1.89-.22-.01-.46-.02-.68-.04-1.12-.06-2.51-.15-4,0-7.21.72-8.69,1.48-9.12,2.8-.1.3-.12.61-.06.91-.29.15-.64.32-.95.46-1.88.9-4.73,2.26-7.26,4.73-5.13,4.99-5.1,11.4-3.11,14.1,1.45,1.96,4.44,2.19,7.67,1.77-5.71,2.71-12.36,10.07-8.82,20.68l.03.1c3.65,10.95,5.48,16.45,9.13,18.12,1.55.71,3.57,1.09,5.8,1.09,4.6,0,10.12-1.6,14.41-5.19,4.4-3.68,5.46-9.34,5.05-14.15,1.77,1.67,3.65,2.12,4.17,2.21,2.69.57,5.34-.07,7.08-1.72.09-.09.17-.19.26-.28-1.22,20.77,7.72,48.02,8.15,49.3l.34,1.02,8.37.06-.63-1.97c-.09-.29-9.46-29.71-8.23-47.63.04-.62.06-1.22.08-1.79,0-.26.01-.5.02-.74.82-.43,1.33-.6,1.6-.65.02.42-.06,1.36-.63,3.46-.43,1.62-.22,4.27.83,6.96h0s0,0,0,0c.79,2.02,2.05,4.06,3.87,5.72,1.88,1.71,4.75,3.35,8.88,3.35,2.04,0,4.39-.4,7.08-1.4,7.04-2.62,11.3-8.09,11.69-15,.03-.49.03-.97.02-1.45.02-.05.04-.1.05-.14ZM101.07,59.65c-.47.94-1.68,2.7-4.2,2.91,2.63-5.07,1.91-8.76.73-11.05-.55-1.06-1.3-2.01-2.22-2.87,3.16,2.14,5.4,6.49,5.7,11ZM75.25,67.58c-.72-1.99-.87-3.85-.62-4.79.54-2,.95-3.9.56-5.3,1.55,0,2.29,1.22,3.41,3.04,1.73,2.81,3.95,6.44,10.09,6.44.73,0,1.52-.06,2.36-.17-1.28,2.04-3.49,3.59-6.24,4.19-3.01.66-7.06.09-9.57-3.41ZM72.12,54.96c.12-.14.25-.3.39-.45l.06.08c4.14-3.38,9.01-3.89,13.38-1.38,4,2.3,6.63,6.69,6.26,10.37-7.28,1.49-9.19-1.6-11.04-4.61-1.65-2.69-3.67-5.95-9.28-3.67.08-.11.15-.23.24-.33ZM94.94,52.9c1.01,1.95.95,4.32-.12,6.96-1-3.63-3.68-7.13-7.37-9.25-2.84-1.63-5.85-2.25-8.8-1.9,1.01-.61,2.22-1.16,3.57-1.58,6.28.34,11.02,2.47,12.73,5.77ZM52.9,55.49c-.34.58-.57,1.2-.68,1.86-.35-.55-.67-1.21-.92-2,.28-3.06,3.19-4.27,4.99-4.72.14.69.25,1.35.34,1.98-1.16.42-2.77,1.27-3.73,2.88ZM47.57,49.61c-1.22-2.5-2.84-5.37-4.66-7.42.53-.8,1.07-1.6,1.64-2.39,1.8,2.47,2.56,5.99,2.88,8.5,0,0,0,.02,0,.02h.01c.06.47.1.9.14,1.29ZM38.94,37.04c2.85-1.34,5.96-3.73,8.39-7.97.88.02,1.74.01,2.59-.03-2.68,2.54-5.06,5.27-7.18,8.09-1.28-.11-2.55-.13-3.8-.08ZM20.63,29.81c.95-.16,2.11-.03,3.23.22-1.34.76-2.72,1.65-4.12,2.7.13-.91.41-1.9.89-2.91ZM35.19,29.24c-1.38,2.76-4.33,5.74-5.83,7.08-.81.2-1.56.36-2.23.49,1.79-1.86,3.73-4.32,4.37-6.78,1.26-.36,2.49-.61,3.69-.79ZM34.21,18.9c.94-.16,2.25-.35,4.06-.53,2.35,1.18,3.83,3.42,5.25,5.6.46.7.9,1.38,1.37,2.02,0,0,0,0,0,0-1.42-.06-2.91-.12-4.47-.11-1.46-3.64-4.12-5.79-6.2-6.97ZM43.87,28.95c-2.97,4.3-6.75,5.89-9.38,6.46,1.62-1.83,3.33-4.17,4.07-6.49,1.83-.08,3.6-.04,5.31.03ZM71.77,34.1c.18.63.3,1.17.37,1.64-2.38-2.79-7.28-6.52-15.92-5.38.11-.62.23-1.19.35-1.68,1.5.55,3.63.51,6.38-.13,3.07-.72,7.09-.34,8.82,5.56ZM64.46,40.6c.9.74,1.84,1.83,2.4,3.31-2.22-2.15-5.7-4.28-10.6-4-.18-.85-.31-1.7-.38-2.53,1.44-.32,4.4-.56,7.84,1.43-.07.68.2,1.35.74,1.8ZM50.51,48.82c.56-.99,1.9-2.88,4.29-3.63.3.86.56,1.7.79,2.51-1.64.41-3.51,1.22-4.96,2.57-.02-.4-.06-.89-.12-1.45ZM53.21,30.06c-.25,1.47-.43,3.21-.43,5.09-2.61.86-4.3,2.3-5.36,3.56-.31-.49-.64-.95-1.01-1.39,2.02-2.55,4.28-5,6.81-7.26ZM48.92,41.74c.45-.8,1.62-2.42,4.03-3.44.16,1.33.44,2.69.87,4.06-1.69.54-3,1.47-3.98,2.45-.23-1-.53-2.04-.92-3.06ZM57.16,42.88c6.03.05,9.18,4.8,9.93,6.1-.07.34-.13.66-.2.94-1.73-1.84-4.82-4.39-8.93-4.74-.24-.74-.5-1.51-.8-2.29ZM66.43,36.98c-4.36-3.02-8.34-3.03-10.64-2.64.01-.31.03-.6.05-.9,8.52-1.42,12.75,2.45,14.46,4.73-.42-.08-.91-.22-1.46-.45-.87-.37-1.68-.61-2.41-.74ZM79.72,11.67h2.77l-7.23,24.35s-.05.03-.07.04c-.06-.84-.23-1.77-.54-2.8-.19-.63-.41-1.22-.65-1.78l5.72-19.81ZM66.59,20.91c3.08-.21,5.68.25,7.16.61l-1.9,6.6c-2.34-2.49-5.68-3.42-9.59-2.5-2.38.56-3.68.49-4.35.34,1.98-1.92,5.59-4.83,8.68-5.04ZM50.06,16.99c2.48,1.51,3.97,4.36,4.09,7.69-.4-.52-.9-1.33-1.29-1.98-1.47-2.41-3.41-5.58-6.64-7.02.45-.09,1.67-.02,3.84,1.3ZM44.6,18.29c2.6.95,4.31,3.71,5.7,5.98.36.59.7,1.14,1.04,1.64-.7.1-1.44.15-2.2.17-1.11-.68-2.08-2.16-3.11-3.74-.85-1.31-1.77-2.71-2.92-3.96.56.02,1.06,0,1.49-.08ZM29.57,22.21c.94-.45,1.67-.8,2.18-1.22,1.48.68,3.93,2.16,5.42,5-.84.06-1.7.16-2.57.29-.93-.72-3.27-2.37-6.23-3.49.42-.21.83-.41,1.2-.59ZM24.86,24.91c2.17.42,4.19,1.39,5.69,2.27-.89.26-1.79.57-2.71.93-1.06-.42-3.04-1.11-5.12-1.31.13-.14.25-.28.39-.41.57-.55,1.16-1.04,1.75-1.48ZM20.32,36.56c-.07-.09-.14-.2-.2-.32,2.6-2.12,5.07-3.65,7.44-4.74-1.46,2.29-3.92,4.59-5.32,5.74-1.32-.11-1.77-.49-1.92-.69ZM27.87,42.39c.99-.36,1.86-.71,2.61-1.05,2.18-.55,6.15-1.39,10.2-1.33-.63.94-1.24,1.87-1.82,2.82-7.91-.79-15.31,3.92-19.5,8.43,1.44-4.62,5.33-7.72,8.51-8.88ZM39.23,75.57c-.46.19-.93.36-1.39.51.31-3.92.32-11.65-3.78-15.75.41-1.15.84-2.32,1.32-3.52,3.74,5.54,3.92,15.3,3.85,18.76ZM23.65,71.19c-.21-.48-.42-1-.63-1.54l.09.03c.02-.06,2.06-5.25,7.02-7.32-.57,1.8-1.05,3.5-1.46,5.08-2.51.86-4.08,2.37-5.03,3.75ZM19.63,59.94l-.03-.1c-.32-.95-.51-1.87-.64-2.76,1.2-3.19,9.13-11.41,18.24-11.34-.58,1.05-1.13,2.09-1.64,3.13-7.57.86-13.18,7.49-15.83,11.33-.03-.09-.06-.18-.09-.27ZM20.94,63.85c1.17-1.97,6.1-9.66,13.02-11.62-1.01,2.28-1.89,4.5-2.66,6.64-5.02,1.11-8.06,4.61-9.63,7.11-.24-.68-.48-1.39-.73-2.13ZM31.21,77.08c-.5-.02-.98-.06-1.43-.12.19-1.2.52-3.06,1.04-5.39.74,1.87.59,4.14.39,5.51ZM31.78,67.66c.33-1.24.71-2.56,1.14-3.93,2.27,3.65,2.2,9.77,1.83,13.11-.17.03-.33.04-.49.07.28-2.51.23-6.61-2.48-9.25ZM25.31,74.43c.25-.71.92-2.11,2.47-3.2-.43,2.01-.73,3.67-.91,4.87-.53-.33-1.04-.89-1.55-1.66ZM42.24,74.01c-.04-5-.76-14.94-5.54-20.36.39-.89.81-1.79,1.24-2.69,6.03,8.59,6.6,19.25,6.65,21.25-.13.13-.26.26-.4.38-.63.53-1.29.99-1.96,1.42ZM47.3,68.2c-.61-4.97-2.42-13.28-7.83-20.22.56-1.05,1.15-2.09,1.77-3.13,3.21,4.05,5.78,11.07,5.83,11.18,1.21,3.07,1.86,8.02.23,12.17ZM55.82,60s-.21-.03-.52-.13l.12-.04c-.39-1.15-.38-2.07.05-2.79.33-.56.88-.97,1.44-1.26.08,1.91-.05,3.39-.19,4.36-.25-.02-.51-.06-.77-.11l-.14-.02ZM61.44,51.51c-.58.31-.96.88-1.01,1.54-.05.69-.02,1.42.1,2.18.08.52.21,1.11.4,1.76.21.74,0,1.53-.57,2.07-.16.15-.34.28-.53.4.23-2.41.22-6.21-.98-11.13,2.92.65,5.15,2.79,6.27,4.1-.37-.1-.94-.35-1.82-.87-.57-.34-1.27-.36-1.86-.05ZM75.43,108.32l-2.08-.02c-1.8-5.76-10.34-34.59-7.01-52.89.23-.05.46-.12.69-.23,1.65-.77,2.57-2.7,3.19-6.66.53-3.34-.36-5.87-1.54-7.67,2.14.67,4,.47,5.2-.6.15-.14.29-.29.42-.45l-.58,2.12c-1.24,4.53-2.77,8.43-4.67,11.92-1.19,2.18-1.25,4.06-1.3,6.04-.01.53-.03,1.08-.07,1.67-1.1,15.96,5.64,39.77,7.76,46.78ZM80.97,74.14c.51.06,1.03.1,1.56.1.96,0,1.94-.11,2.93-.32,4.01-.88,7.2-3.35,8.76-6.61.42,1.77.34,4.13-1.93,6.14-.31.13-.61.27-.94.39-4.01,1.49-7.53,1.58-10.38.3ZM97.33,70.1c.2-1.62-.05-3.19-.49-4.52,1.48-.07,2.73-.5,3.76-1.12-.5,1.81-1.47,3.82-3.27,5.64Z"/>
  </g>
</svg>