<?xml version="1.0" encoding="UTF-8"?>
<svg id="Graphics" xmlns="http://www.w3.org/2000/svg" viewBox="0 0 120 120">
  <defs>
    <style>
      .cls-1 {
        fill: #000;
        stroke-width: 0px;
      }
    </style>
  </defs>
  <g id="Grapewine_-_VITIS_VIVIFERA_Bold" data-name="Grapewine - VITIS VIVIFERA Bold">
    <path class="cls-1" d="M110.01,50.66l-.28-2.15-2.6-1.93.56-5.6-1.82-1.61-3.45.78-1.43-4.39-2.92.32-.32,3.26-4.05-.39-1.42,2.29,2.01,3.22-1.34.39-1.07,1.68c.33,2.07.27,4.43-.11,5.07-.67-.31-1.28-4.11-.82-8.49l-2.15-1.51-1.19.58-1.85-5.03-2.56-.44-1.37,1.64-1.05-1.06c.37-4.86-2-7.05-3.64-7.97.11-1.12-.05-2.24-.48-3.31-1.02-2.55-3.1-4.14-5.84-4.66.98-2.68.74-5.14-.72-7.03-1.76-2.28-4.68-3.16-8.23-2.48-1.15.22-2.32.6-3.48,1.09-.63-.88-1.49-1.61-2.57-2.16-3.66-1.88-7.77-.96-10.71,2.38-3.4,3.86-4.85,10.66-1.07,16.17l2.47-1.7c-2.89-4.21-1.72-9.58.85-12.49.97-1.1,3.61-3.48,7.09-1.7.48.25.88.54,1.21.89-3.32,2.01-6.08,4.82-6.79,7.32-.47,1.65-.09,3.14,1.07,4.21,1.08,1,2.56,1.22,4.05.6,2.91-1.21,5.49-5.36,5.64-9.07.02-.59-.01-1.15-.1-1.69.96-.41,1.94-.73,2.91-.92,2.44-.47,4.22-.01,5.29,1.36,1.15,1.49.67,3.46-.1,5.05-1.57.13-3.27.53-5.05,1.21-4.73,1.82-8.89,5.39-7.67,8.69.39,1.06,1.3,1.72,2.49,1.8,3.21.22,8.98-4.08,11.98-8.71,2.01.14,3.73.97,4.51,2.92.17.43.27.85.29,1.25-2.47-.3-5.14.38-6.89,1.92-1.63,1.43-2.17,3.35-1.49,5.26.37,1.03,1.21,1.72,2.32,1.91,2.13.36,5.11-1.16,7.09-3.61.4-.5.75-1.02,1.03-1.55.94.76,1.37,1.84,1.52,2.94l-1.74.48-.82,3.28-2.02.67-.58,2.49c-.16-.45-.31-.91-.46-1.37l-2.45-.66-1.43,1.31-2.82-4.21h-2.49s-1.43,2.15-1.43,2.15l-3.36-2.85-2.47,1.26.38,4.76c-1.4-.04-2.7.29-3.77.98-1.2.79-1.99,1.96-2.31,3.33-2.62-1.29-5.46-1.38-7.51-.09-.99.61-1.72,1.51-2.16,2.57-1.74-.76-3.56-.89-5.18-.36.39-3.27,1.51-8.47,4.73-11.62,1.91-1.88,4.28-2.76,7.2-2.69,2.03.05,3.39,1.06,3.64,2.71.22,1.48-.57,3.3-2.83,4.04-1.37.45-2.41.34-2.88-.3-.31-.42-.32-1.04-.03-1.44.37-.51,1.2-.6,2.29-.24l.93-2.85c-2.37-.77-4.48-.27-5.65,1.33-1.06,1.45-1.04,3.5.03,4.97,1.27,1.73,3.6,2.25,6.24,1.38,3.34-1.1,5.34-4.11,4.87-7.33-.46-3.12-3.03-5.19-6.54-5.27-3.77-.09-6.89,1.11-9.37,3.56-4.13,4.05-5.34,10.54-5.69,14.13-.75-.37-1.52-.66-2.31-.88,1.99-2.08,3.09-4.97,2.99-8.16-.13-4.47-2.55-8.25-6.16-9.64-4.24-1.63-8.54-.65-11.22,2.57-2.57,3.09-2.89,7.28-.81,10.69,2.13,3.49,5.99,4,8.88,2.96,3.18-1.15,5.01-3.94,4.57-6.93-.37-2.49-1.69-4.28-3.62-4.93-1.65-.55-3.44-.14-4.68,1.07-1.39,1.37-1.8,3.41-1.12,5.62l2.87-.89c-.34-1.1-.22-2.02.35-2.58.43-.42,1.06-.57,1.63-.37.82.27,1.4,1.2,1.6,2.53.28,1.9-1.24,3.16-2.62,3.66-1.6.58-3.95.49-5.29-1.7-1.4-2.3-1.18-5.13.55-7.21,1.86-2.23,4.79-2.86,7.84-1.69,2.48.95,4.15,3.67,4.24,6.93.1,3.46-1.57,6.31-4.48,7.63l.02.04c-.35.04-.69.08-1.04.15-2.47.5-5.97,2.11-8.86,6.84-3.19,1.06-5.1,4.65-4.51,8.56-2.55,10.64-.08,21.85,6.82,30.83,7.7,10.01,19.74,15.88,33.04,16.09.25,0,.5,0,.74,0,17.8,0,29.9-9.98,32.67-12.51.98.59,1.16.66,1.27.7l1.31-.14c.55-.33.93-.56,1.67-5.26l2.28.47,1.8-1.36.53-7.56.49.48,2.54-.88.87-6.7,1.17.6,2.19-1.37-.1-4.16,4.33,1.96,1.24-2.73-5.05-2.28,6.4-6.2-.15-2.28-1.68-1.25,3.66-1.46.68-2.24-1.93-2.81,2.33-2.89ZM56.64,17.26c-.11,2.73-2.16,5.75-3.79,6.42-.57.24-.76.06-.87-.04-.15-.14-.43-.4-.21-1.18.44-1.54,2.38-3.59,4.87-5.21,0,0,0,0,0,0ZM57.7,29.93c-.04-.92,1.99-3.19,5.96-4.72.52-.2,1.05-.38,1.6-.53-2.88,3.32-6.46,5.31-7.56,5.24ZM72.15,32.75c-1.59,1.51-3.24,1.91-3.53,1.8-.1-.27-.39-1.1.64-2,.86-.75,2.31-1.26,3.79-1.26.1,0,.2,0,.3,0-.41.64-.88,1.14-1.2,1.45ZM83.09,41.53l.76-.91,1.53,4.15,2.07.83.34-.17c-.12,3.63.32,8.45,3.41,9.11.98.21,1.9-.03,2.58-.68,1.47-1.4,1.44-4.53,1.24-6.5l2.01-.58.86-2.24-1.45-2.33,2.25.22c-.02,11.38-6.71,20.28-8.57,22.54-.43-.22-.86-.43-1.28-.65-.5-2.7-2.5-12.28-7.06-22.75l1.32-.06ZM18.52,71.44c.13,0,.27.03.4.03.05,0,.1,0,.15,0,.39,4.08,3.33,7.35,7,7.53.1,0,.21,0,.31,0,.75,0,1.48-.14,2.18-.39.07.3.15.6.24.89,1.27,4.01,4.73,6.77,8.21,6.77.07,0,.14,0,.22-.01.07.28.13.56.22.83,1.29,3.84,4.74,6.49,8.13,6.49.37,0,.74-.04,1.11-.11.23.65.53,1.29.9,1.91,1.9,3.11,5.1,4.97,8.08,4.97.92,0,1.83-.18,2.67-.56h0c1.53-.7,2.66-1.99,3.17-3.65.65-2.11.26-4.6-1.07-6.83.97-.73,1.69-1.77,2.07-3,.66-2.15.25-4.69-1.14-6.96-.15-.25-.34-.48-.51-.72,1.52-.83,2.54-2.25,2.9-4.04l.41-.13.32,4.12,2.54.96,4.17-4.01,1.22,2.2,2.24.45c1.65-1.3,4.55-3.04,6.15-3.1-.38.54-1.19,1.35-2.43,2.1l-4.7,3.36.15,2.54,1.52.83-2.71,1.25-.06,2.7,4.59,2.35s.01.06.02.08c-7.24,7.66-16.31,11.78-25.55,11.72-19.5-.21-31.14-15.54-32.86-25.85-.29-1.72-.3-3.19-.25-4.75ZM24.02,58.74c-.05-1.19.25-2.28.83-3.1.52-.72,1.23-1.18,2.05-1.34.85-.16,1.77,0,2.66.49.64.34,1.24.85,1.75,1.46.63.76,1.09,1.64,1.36,2.63.14.5.22.99.23,1.46h.01s0,0,0,0h-.01c0,.28,0,.54-.02.81-.16,1.8-1.14,3.17-2.55,3.58h0s-.1.03-.1.03c-.05.02-.11.03-.21.05-.36.07-.73.07-1.1.03-.23-.03-.45-.08-.68-.15-.71-.22-1.41-.62-2.03-1.18-.16-.15-.32-.31-.47-.48-.1-.11-.19-.23-.28-.35-.02-.14-.04-.29-.07-.42-.06-.33-.14-.66-.24-.98-.03-.11-.08-.22-.11-.34-.07-.21-.14-.41-.22-.61-.05-.13-.11-.26-.17-.39-.08-.17-.16-.35-.24-.51-.07-.13-.14-.26-.22-.38-.06-.1-.11-.2-.17-.29ZM43.36,64.1c.07-.04.14-.08.2-.12.17-.11.34-.22.5-.35.06-.05.12-.09.18-.14.2-.17.4-.35.57-.55.03-.03.05-.06.07-.09.15-.17.29-.36.42-.55.05-.07.09-.14.13-.21.11-.18.21-.36.3-.55.03-.06.06-.12.09-.19.1-.23.2-.47.28-.72.31.15.62.27.94.39.08.03.16.05.23.08.37.12.73.23,1.1.3.03,0,.06.02.08.02.27.05.53.09.8.12.03.02.06.05.09.07.06.14.13.27.2.4.06.12.12.24.18.37.11.2.23.4.36.6.07.11.13.21.2.32.16.24.34.47.53.7.04.06.08.11.13.17.23.27.47.53.72.78.05.12.09.24.12.37.07.26.13.51.17.76.03.16.03.32.04.47,0,.08.02.17.02.25.02,1.38-.56,2.49-1.66,3.04-.02,0-.03.02-.05.03l-.19.07c-.1.05-.23.09-.42.13-1.88.43-4.38-.76-5.91-2.82l-.13-.19c-.11-.15-.21-.3-.29-.43-.19-.32-.35-.63-.48-.95-.03-.06-.06-.13-.08-.19-.12-.32-.23-.63-.3-.95,0-.01,0-.02,0-.04.04-.01.08-.03.11-.04.26-.1.51-.23.74-.36ZM56.86,57.58c.11.04.22.08.33.12.2.07.41.14.61.19.12.03.25.06.37.09.2.05.39.08.59.12.12.02.25.04.37.06.21.03.42.04.63.05.08,0,.16.02.24.02.07.07.14.13.21.2.86.84,1.5,1.79,1.86,2.74.55,1.5.33,2.83-.59,3.55h0c-.06.05-.11.08-.16.12-1.02.68-2.77.68-4.41.03-.75-.28-1.51-.71-2.21-1.24-.18-.13-.34-.27-.49-.4-.05-.11-.1-.22-.15-.32-.04-.08-.07-.16-.11-.23-.12-.23-.24-.46-.37-.67-.21-.35-.44-.68-.68-.99.21-.1.42-.21.62-.34,0,0,0,0,0,0,0,0,0,0,0,0,.29-.18.55-.39.8-.62.08-.07.15-.15.22-.23.16-.16.31-.33.44-.51.07-.1.14-.2.21-.3.12-.18.22-.37.32-.57.05-.11.11-.22.15-.33.09-.23.17-.46.23-.7.02-.07.05-.14.07-.21.05.02.1.04.15.07.25.12.5.23.76.33ZM66.09,53.35c.03-.24.05-.49.05-.74,1.58,1.21,3.81,2.95,6.95,5.46,1.96,1.57,4.91,3.52,8.75,5.81.84.5,1.7.99,2.56,1.47-3.45,1.25-11.08,3.17-19.61-.08.29-.6.48-1.25.55-1.95.07.03.13.07.2.1.61.25,1.22.38,1.81.38.84,0,1.62-.25,2.24-.75.92-.73,1.36-1.92,1.15-3.08-.26-1.48-1.44-2.68-3.25-3.3l-2.39-.82c.51-.72.85-1.57.98-2.5ZM47.03,90.24c-.21.11-.44.2-.7.26-2.31.54-5.07-1.45-6.04-4.37-.08-.22-.14-.45-.19-.67.25-.14.49-.31.71-.49.05-.04.09-.07.14-.11.25-.21.49-.43.7-.68.02-.02.04-.05.06-.07.22-.26.42-.53.6-.83,0,0,.01-.02.02-.03.18-.3.34-.63.47-.96.01-.03.03-.07.04-.1.11-.28.21-.58.28-.88,0,0,0,0,0,0,.31.18.63.34.95.48.09.04.17.07.26.11.26.1.53.19.8.26.07.02.14.04.21.06.32.08.65.13.97.17.09,0,.17,0,.25.01.14,0,.28.02.42.02.13,0,.25-.01.38-.02.05,0,.09,0,.14,0,0,0,0,0,0,.01.46.61.83,1.29,1.08,2.04.14.42.24.85.29,1.26.02.15.04.29.04.45.12,1.84-.6,3.4-1.88,4.06h-.02ZM37.93,83.14c-.07.02-.14.04-.23.06-2.34.45-5.1-1.65-6.03-4.61-.2-.62-.3-1.23-.32-1.84,0,0,0,0,0,0,.31-.33.59-.69.84-1.07,0,0,.01-.02.02-.03.26-.39.48-.81.67-1.24.09.07.19.14.28.2.11.08.21.16.33.24.16.11.32.2.48.3.11.06.21.13.32.19.18.09.36.18.54.26.1.04.19.09.29.13.25.1.5.18.75.25.03,0,.07.02.1.03.28.08.57.13.86.17.1.01.19.01.29.02.19.02.38.04.58.04.03,0,.05,0,.08,0,.15,0,.3-.02.46-.03.08,0,.16,0,.24-.01.26-.03.52-.07.77-.13.08-.02.16-.04.24-.06.02.03.04.06.06.09.02.05.04.09.07.14.18.35.33.71.45,1.09.11.33.19.68.25,1.06,0,0,0,0,0,.01.02.17.04.32.05.46.16,2.08-.77,3.79-2.32,4.26l-.09.03ZM33.5,66.33c.07-.06.15-.11.21-.18.25-.24.48-.5.7-.79.05-.07.09-.15.15-.23.15-.22.3-.44.43-.68.06-.12.11-.24.17-.36.1-.21.2-.43.28-.65.01-.04.03-.07.05-.11.01,0,.02.01.03.02.29.19.58.37.88.53.07.04.14.07.22.11.23.12.47.23.71.32.09.04.18.07.27.1.25.09.5.17.75.23.06.02.13.04.19.05.32.08.64.13.96.16,0,0,.02,0,.03,0,.01.08.04.16.06.24.03.13.06.25.09.38.05.19.1.37.17.56.04.12.08.24.12.36.08.2.16.41.25.61.04.1.08.2.13.3.15.3.31.6.49.9.1.16.2.31.31.47,0,.07.01.15.02.22,0,.11,0,.22,0,.33,0,.12,0,.24-.01.36,0,.1-.01.21-.03.31-.02.12-.04.23-.06.35-.02.1-.04.2-.06.29-.03.11-.07.22-.1.32-.03.09-.06.18-.09.27-.04.1-.09.2-.15.3-.04.08-.08.16-.12.23-.06.1-.13.19-.19.28-.05.06-.09.13-.14.19-.08.09-.17.18-.26.26-.05.04-.09.09-.14.14-.14.12-.29.22-.45.31h0s0,0,0,0c0,0,0,0,0,0h0s-.08.04-.08.04c-.21.11-.44.2-.71.26-.2.05-.41.08-.63.09-.07,0-.15,0-.22,0-.14,0-.28,0-.43-.02-.11-.01-.21-.05-.32-.07-.11-.02-.22-.04-.33-.07-.13-.04-.26-.09-.39-.14-.09-.03-.17-.06-.26-.1-.14-.07-.28-.15-.42-.23-.07-.04-.14-.07-.21-.12-.14-.09-.28-.19-.42-.3-.06-.05-.13-.09-.19-.14-.13-.1-.25-.22-.37-.34-.07-.06-.14-.12-.2-.19-.1-.1-.19-.22-.29-.33-.07-.09-.15-.17-.22-.26,0-.31,0-.63-.03-.94,0-.09-.02-.18-.03-.27-.02-.24-.06-.49-.1-.73-.01-.07-.02-.15-.04-.22-.06-.3-.14-.6-.23-.89-.02-.06-.04-.12-.06-.19-.08-.23-.16-.46-.26-.69-.02-.04-.03-.09-.05-.14.02-.01.04-.03.06-.05.21-.14.41-.31.6-.48ZM44.72,72.01c.09.05.18.1.27.15.21.11.43.21.65.31.09.04.18.08.27.11.3.12.6.22.91.31,0,0,0,0,0,0,.31.08.62.15.93.19.08.01.16.02.25.03.24.03.47.04.7.05.05,0,.11.01.16.01.05,0,.09,0,.14,0,.13,0,.26-.01.4-.02.12,0,.25-.02.37-.04.05,0,.1,0,.15-.01.03.07.06.13.08.2.2.6.31,1.14.33,1.58v.14c.03.29.03.59,0,.93h0c-.15,1.6-.97,2.83-2.23,3.29-.1.04-.2.07-.3.09l-.05.02c-.18.04-.37.07-.55.08-1.31.08-2.78-.58-3.98-1.87-.01-.01-.03-.03-.04-.04,0-.04-.02-.08-.03-.12-.07-.34-.15-.67-.25-.98-.1-.31-.21-.62-.34-.92-.04-.1-.09-.19-.13-.28-.09-.2-.19-.4-.3-.6-.02-.04-.03-.07-.05-.11.06-.06.12-.13.18-.2.08-.09.16-.18.24-.27.13-.16.26-.33.38-.51.06-.09.13-.19.19-.29.13-.21.24-.43.35-.66.03-.07.07-.14.11-.21.13-.29.24-.59.33-.91,0,0,.01,0,.02.01.03.02.07.04.1.06.25.17.5.33.76.47ZM54.08,78.5s.09.04.14.06c.31.15.63.28.95.39.06.02.12.04.17.06.35.11.71.2,1.06.27.05,0,.11.02.16.02.33.05.66.09.99.1.03,0,.06,0,.08,0,.44.44.83.94,1.17,1.5.93,1.52,1.24,3.21.84,4.52-.18.58-.59,1.37-1.53,1.79h-.02c-.11.06-.22.1-.31.13-1.81.58-4.24-.4-5.92-2.39-.02-.02-.04-.05-.06-.08-.02-.1-.05-.21-.07-.31-.02-.08-.03-.16-.05-.25-.07-.28-.14-.55-.24-.84-.11-.34-.25-.66-.39-.98-.04-.08-.08-.17-.12-.25-.13-.28-.28-.54-.43-.8-.02-.03-.03-.06-.05-.09.05-.03.09-.07.13-.11.18-.13.35-.27.52-.42.09-.08.17-.15.25-.23.19-.19.37-.4.54-.62.04-.05.08-.09.12-.14.2-.27.37-.57.53-.88.05-.09.08-.19.12-.28.1-.23.2-.46.28-.7.01-.04.04-.08.05-.13.03.02.06.03.09.05.33.21.66.4.99.57ZM49.68,92c.14-.12.28-.25.4-.38.1-.11.19-.22.28-.34.12-.15.24-.29.34-.45.08-.12.15-.25.22-.37.1-.17.19-.34.28-.51.06-.13.11-.27.17-.4.08-.19.15-.38.21-.57.02-.05.04-.1.06-.15.08.05.16.1.23.15.09.06.18.12.27.17.2.12.4.24.61.35.08.04.15.08.23.12.57.28,1.16.5,1.75.66.06.02.12.03.18.04.24.06.48.1.72.14.07,0,.14.02.2.03.25.03.5.04.75.05.03,0,.06,0,.1,0,.01,0,.02,0,.04,0,.3,0,.6-.02.9-.06.07.1.13.2.19.29.93,1.51,1.24,3.2.83,4.51-.18.58-.59,1.37-1.54,1.8-2.11.95-5.29-.54-6.94-3.24-.31-.52-.56-1.06-.73-1.59.09-.07.17-.16.25-.24ZM59.2,76.14c-.33.15-.71.25-1.12.27-1.1.09-2.36-.31-3.5-1.08-.08-.05-.16-.1-.24-.16-.11-.08-.22-.17-.32-.26-.06-.05-.13-.1-.19-.15-.19-.16-.37-.33-.55-.52-.02-.14-.05-.29-.08-.44-.02-.11-.03-.22-.06-.33-.08-.37-.17-.74-.3-1.14-.05-.14-.1-.28-.15-.41.23-.18.45-.38.65-.59.04-.05.09-.09.13-.14.22-.24.41-.5.59-.77.02-.04.05-.08.07-.12.16-.27.31-.56.43-.86.01-.03.02-.05.04-.08.12-.31.21-.64.28-.98.01-.07.03-.13.04-.2.05-.28.09-.57.11-.87,0,0,.02,0,.03.01.26.12.52.23.78.33.27.11.54.2.81.28.09.03.17.05.26.07.19.05.37.1.56.14.1.02.2.04.3.06.18.03.36.06.54.08.1.01.19.02.29.03.05,0,.1.01.16.02.44.44.84.94,1.17,1.49.7,1.16,1.06,2.42,1,3.56h0c-.04.76-.31,2.14-1.7,2.76ZM66.52,59.5c.86.29,1.22.71,1.27.97.02.1,0,.17-.08.22-.14.11-.49.16-1.02-.06-.73-.3-1.41-.66-2.03-1.04-.14-.3-.29-.6-.46-.89l2.31.79ZM31.48,52.45s-.08-.05-.12-.07c.04.02.08.04.12.07,0,0,0,0,0,0ZM22.92,70.03c.23-.19.45-.39.65-.62.03-.03.06-.07.09-.1.18-.21.35-.43.51-.66.04-.05.07-.1.11-.15.17-.26.32-.53.45-.81.03-.06.05-.12.08-.18.12-.27.23-.54.32-.83.01-.04.03-.07.04-.11,0-.02.01-.03.02-.05.06.04.13.08.2.12.07.05.15.1.22.14.17.1.34.2.51.29.05.03.11.06.16.08.23.11.46.21.7.3.04.01.08.03.12.04.2.07.39.13.59.18.07.02.14.03.21.05.18.04.36.07.53.1.07,0,.14.02.21.03.22.02.43.04.65.04.02,0,.04,0,.06,0,0,0,0,0,0,0,.21,0,.43-.01.64-.03,0,.01.01.02.02.03.02.03.03.07.04.1.11.24.21.49.29.75.02.08.04.16.07.23.06.24.11.48.15.73,0,.07.02.13.03.2.04.32.06.65.05.99,0,.09,0,.19-.02.28v.1c-.01.12-.03.24-.07.43-.2,1.32-.8,2.48-1.71,3.29-.75.69-1.68,1.04-2.64.99-2.32-.11-4.16-2.49-4.2-5.33.26-.15.51-.32.74-.51.06-.04.11-.09.16-.13ZM80.22,90.44s0-.01,0-.02l.13-.71-.42-.86c-.03-.1-.05-.2-.08-.31l-.07.02-.22-.45-2.88-1.48,2.62-1.21.09-2.68-2.04-1.12,2.61-1.87c2.17-1.32,4.5-3.58,4.03-5.65-.12-.53-.62-1.78-2.67-1.97-2.33-.21-5.34,1.51-7.11,2.69l-1.35-2.43-2.35-.35-3.28,3.16-.22-2.82-1.94-1.32-1.36.42c-.22-1.1-.63-2.2-1.25-3.23-.1-.16-.23-.3-.33-.46.14-.06.27-.14.4-.21,4.34,1.86,8.47,2.52,12.08,2.52,7.51,0,12.81-2.75,13.14-2.92l-.02-.03c.44.23.89.44,1.33.66-.65,3.05-3.01,12.53-8.85,22.62ZM75.58,48.07c-.77-.69-2.02-3.17-2.99-5.91,1.47,1.45,3.74,4.54,2.99,5.91ZM60.86,42.76l2.22-.31,1.12-1.68,2.54,3.79,2.26.27,1.02-.93c1.14,3.12,2.92,6.76,5.1,7.26.54.12,1.6.17,2.56-.87,2.42-2.61.3-6.28-1.4-8.47l.65-.21.99-1.06.03-.14c4.16,8.86,6.43,17.57,7.43,22.05-.67-.38-1.34-.76-2-1.15-3.72-2.22-6.55-4.09-8.41-5.57-4.7-3.76-7.42-5.83-8.87-6.94-.59-.45-1.09-.83-1.36-1.05-.07-.07-.14-.13-.21-.19-.26-.38-.53-.75-.84-1.11-1.25-1.45-2.84-2.57-4.55-3.23l-.17-2.05,1.89,1.6ZM53.95,46.05c.85-.55,2.05-.66,3.37-.3,1.53.42,2.98,1.35,4.09,2.65,1.26,1.45,1.89,3.15,1.7,4.54-.11.79-.48,1.4-1.09,1.8h0c-.17.11-.33.19-.51.26-.32.13-.67.2-1.06.23-.19.01-.38.01-.58,0-.09,0-.18-.02-.26-.03-.11-.01-.22-.02-.34-.04-.1-.02-.19-.04-.29-.06-.11-.02-.22-.04-.33-.07-.1-.03-.19-.06-.29-.09-.11-.03-.22-.07-.33-.11-.09-.03-.19-.08-.28-.11-.11-.05-.23-.09-.34-.15-.09-.04-.18-.09-.27-.14-.11-.06-.23-.12-.34-.18-.09-.05-.18-.11-.27-.16-.11-.07-.22-.14-.33-.22-.09-.06-.17-.12-.26-.18-.05-.04-.1-.08-.16-.12-.03-.1-.07-.2-.1-.3-.05-.14-.09-.28-.15-.43-.08-.21-.17-.42-.27-.62-.06-.13-.12-.26-.19-.39-.12-.23-.25-.45-.39-.67-.07-.11-.13-.22-.2-.32-.22-.33-.45-.65-.71-.96-.17-.2-.35-.4-.55-.6-.05-.05-.11-.11-.16-.16-.07-.07-.14-.14-.22-.22-.09-.81-.03-2.08,1.1-2.82ZM44.06,49.32c1.59-1,4.29-.4,6.39,1.42.41.37.74.7,1.02,1.03.78.95,1.31,1.97,1.52,2.96v.04c.03.09.05.19.07.31.12.82.12,2.26-1.15,3.04-.45.28-.97.44-1.6.46-.14,0-.28,0-.44,0-.29-.01-.58-.05-.88-.11-.1-.02-.21-.06-.31-.09-.2-.05-.39-.1-.59-.17-.13-.05-.27-.11-.4-.17-.17-.07-.33-.13-.5-.22-.14-.07-.27-.16-.4-.23-.15-.09-.3-.17-.44-.27,0-.05-.02-.1-.03-.16-.02-.11-.04-.22-.06-.33-.04-.22-.09-.43-.14-.65-.03-.11-.06-.22-.09-.34-.07-.22-.15-.45-.23-.67-.04-.1-.07-.19-.11-.29-.13-.32-.28-.63-.44-.94-.17-.31-.36-.61-.56-.91-.06-.1-.13-.19-.2-.28-.14-.2-.29-.39-.45-.58-.08-.1-.16-.19-.25-.29-.16-.18-.33-.36-.5-.53-.08-.08-.16-.16-.25-.24-.04-.04-.08-.08-.12-.12.12-.61.42-1.26,1.13-1.7ZM35.87,51.89c1.31-.53,3.08-.15,4.59.99.88.66,1.63,1.53,2.16,2.51.5.92.77,1.89.81,2.84,0,.1,0,.2,0,.29,0,.16-.02.32-.04.47,0,.03,0,.06,0,.09-.02.16-.06.32-.09.47,0,.02,0,.03-.01.05-.04.15-.09.3-.15.44,0,.01,0,.03-.01.04-.06.13-.12.26-.2.38,0,.01-.01.03-.02.05-.07.11-.15.22-.23.32-.02.02-.03.04-.04.06-.08.09-.16.17-.25.25-.03.02-.05.05-.08.08-.09.07-.19.14-.28.2-.03.02-.06.05-.09.06-.13.08-.27.15-.42.21-.25.1-.51.16-.79.2-.04,0-.06.01-.1.02-.12.02-.24.02-.38.02-1.33,0-2.82-.67-4.03-1.84-.12-.1-.23-.22-.35-.34-.01-.12-.03-.24-.05-.36-.01-.1-.02-.19-.04-.29-.06-.33-.12-.65-.21-.98-.09-.33-.2-.65-.32-.96-.04-.11-.09-.21-.13-.31-.09-.2-.17-.4-.27-.6-.06-.12-.12-.23-.19-.35-.1-.17-.2-.35-.3-.51-.07-.11-.15-.23-.23-.34-.05-.08-.1-.15-.15-.23.05-.75.28-1.42.66-1.94.33-.43.75-.76,1.25-.96ZM24.87,51.17c1.97-.4,4.03-.07,5.96.92-1.45-.75-2.99-1.01-4.49-.73-1.59.31-2.95,1.18-3.92,2.54-.45.63-.79,1.35-1.03,2.11-.71-.48-1.48-.82-2.26-1.03,1.65-2.06,3.6-3.37,5.75-3.81ZM16.71,57.82c.12-.03.24-.04.36-.06.12-.01.23-.02.35-.02.8,0,1.62.28,2.38.8.57.4,1.1.94,1.52,1.55.55.79.94,1.72,1.12,2.73.04.19.06.38.08.57.02.29.03.55.01.78v.04c-.07,1.95-1.04,3.54-2.5,4.06-.24.09-.5.15-.77.17-.79.08-1.62-.12-2.4-.59-1-.58-1.86-1.54-2.41-2.73-.26-.54-.45-1.12-.56-1.73-.5-2.69.73-5.15,2.81-5.59ZM51.49,107.54c-.22,0-.45,0-.68,0-12.38-.19-23.57-5.63-30.71-14.91-5.44-7.07-7.88-15.65-7-24.1.66.78,1.41,1.45,2.25,1.93.06.04.13.06.2.1-.07,1.96-.12,3.85.26,6.13,1.95,11.64,14.34,28.13,35.79,28.35.12,0,.23,0,.35,0,8.67,0,17.12-3.4,24.29-9.68l-.33,1.74,2.27,1.55,2.24-1.4c-4.37,3.43-14.86,10.29-28.94,10.29ZM96.41,74.14l-2.17,1.14-.76,5.82-.66-.65-2.55.96-.64,9.09-2.15-.44-1.79,1.25c-.18,1.26-.42,2.68-.63,3.73-.76-.47-1.7-1.07-2.58-1.63h-.56c6.34-10.39,9.01-20.25,9.91-24.27.69.32,1.38.65,2.08.96,1.28.57,2.47,1.12,3.23,1.47l.07,2.97-.82-.42ZM106.08,56.51l-4.4,1.76-.34,2.6,2.41,1.8-5.99,5.8-4.82-2.18c2.53-3.17,8.46-11.8,8.75-22.93l.05.03,2.75-.62-.43,4.38.6,1.35,2.03,1.5-2.05,2.54-.07,1.79,1.5,2.19Z"/>
  </g>
</svg>