<?xml version="1.0" encoding="UTF-8"?>
<svg id="Graphics" xmlns="http://www.w3.org/2000/svg" viewBox="0 0 120 120">
  <defs>
    <style>
      .cls-1 {
        fill: #000;
        stroke-width: 0px;
      }
    </style>
  </defs>
  <g id="Ivy_-_Hedera_Bold" data-name="Ivy - Hedera Bold">
    <g>
      <path class="cls-1" d="M104.87,45.54c1.88,0,3.04-.74,3.68-1.34,1.56-1.47,1.94-3.9,1.01-6.49-1.51-4.25-2.32-7.43-2.33-7.46l-.6-2.36-1.84,1.6c-.77.67-3.01,2.56-4.14,3.25-1.88,1.15-4.99,3.54-4.76,6.67.14,1.91,1.49,3.51,4.01,4.77-.91,1.95-1.97,3.77-3.18,5.2-3.82-.29-6.68-1.52-8.5-3.7-1.78-2.13-2.16-4.72-1.94-6.3.11-.84.14-1.67.11-2.48.85.31,1.74.48,2.63.48,1.4,0,2.79-.39,4.02-1.21,2.25-1.49,3.82-4.34,3.7-8.6,3.14-1.25,3.97-3.21,4.18-4.38.37-2.11-.77-4.28-3.07-5.81-3.75-2.5-6.3-4.56-6.33-4.58l-1.89-1.54-.52,2.38c-.22,1-.89,3.85-1.38,5.07-.82,2.04-1.88,5.82.18,8.19.94,1.08,2.31,1.62,4.1,1.62.54,0,1.13-.07,1.75-.17-.08,2.66-1.05,4.42-2.38,5.3-1.88,1.25-4.46.79-5.94-1.02-.96-2.32-2.63-4.38-4.94-5.97-4.71-3.26-10.91-3.82-15.43-1.38-2.26,1.22-3.96,3.09-5.05,5.48-.98-1.87-2.4-3.37-4.23-4.43-4.49-2.57-10.81-2.07-15.73,1.24-2.7,1.82-4.56,4.22-5.48,6.93-.67.56-3.57,1.28-5.51-.02-.9-.61-2.23-2.18-1.94-6.12.58.09,1.13.15,1.64.15,1.79,0,3.16-.54,4.1-1.62,2.06-2.37,1-6.15.18-8.19-.49-1.22-1.16-4.08-1.38-5.07l-.52-2.38-1.89,1.54s-2.57,2.08-6.33,4.58c-2.29,1.53-3.44,3.7-3.07,5.81.21,1.18,1.06,3.19,4.32,4.44-.58,5.52,1.3,8.24,3.51,9.56,1.24.74,2.68,1.05,4.06,1.05.75,0,1.49-.1,2.17-.26-.04.79,0,1.6.1,2.43.21,1.58-.17,4.17-1.94,6.3-1.93,2.31-5.02,3.57-9.19,3.75-.03,0-.07,0-.1,0-1.01-1.33-1.92-2.92-2.71-4.61,2.51-1.26,3.87-2.86,4.01-4.77.23-3.13-2.88-5.52-4.76-6.67-1.12-.69-3.37-2.58-4.14-3.25l-1.84-1.6-.6,2.37s-.81,3.2-2.33,7.46c-.92,2.6-.54,5.02,1.01,6.49.63.6,1.8,1.34,3.68,1.34.63,0,1.35-.1,2.15-.3.68,1.47,1.45,2.9,2.3,4.18-3.88,1.37-6.63,4.76-6.92,8.96-.36,5.25,3.4,12.14,15.19,14.3,8.02,1.47,13.24,4.32,14.33,7.82.75,2.41-.72,4.54-2.08,5.9-1.83,1.83-4.86,2.78-7.54,2.36-1.43-.22-3.33-.93-4.73-2.96,2.2-2.1,3.08-4.15,2.59-6.09-.78-3.04-4.49-4.32-6.64-4.81-1.29-.29-4.01-1.37-4.96-1.76l-2.25-.93.19,2.43s.25,3.3.17,7.81c-.05,2.75,1.08,4.93,3.03,5.83.48.22,1.15.43,2.01.43.96,0,2.14-.28,3.5-1.08,1.59,2.23,3.89,3.67,6.63,4.1.58.09,1.17.14,1.76.14,3.11,0,6.25-1.22,8.36-3.33,2.75-2.75,3.76-5.92,2.83-8.92-1.45-4.67-7.37-8.17-16.65-9.88-9.85-1.81-13.01-7.13-12.74-11.15.27-3.83,3.3-6.63,7.38-6.81,2.64-.11,4.75-.62,6.45-1.32.13.74.24,1.48.33,2.22-2.82.44-4.57,1.52-5.21,3.24-.74,2,.21,4.48,2.67,6.99.86.88,2.43,3.07,2.96,3.84l1.23,1.79,1.23-1.79s1.74-2.5,4.44-5.7c1.62-1.91,2.05-4.08,1.16-5.8-.54-1.03-1.94-2.62-5.49-2.77-.14-1.18-.33-2.37-.56-3.55.9-.65,1.6-1.34,2.14-1.98,2.4-2.88,2.92-6.34,2.61-8.63-.53-3.92,1.19-7.53,4.73-9.92.38-.26.78-.49,1.19-.71.32,1.24.5,2.61.59,4.02-2.51.22-4.17,1.1-4.93,2.66-.92,1.87-.3,4.38,1.73,7.05.69.9,1.89,3.13,2.3,3.91l1.09,2.09,1.43-1.87s1.76-2.28,4.44-5.17c1.68-1.8,2.21-3.93,1.43-5.69-.43-.96-1.59-2.47-4.48-2.91-.09-1.82-.33-3.62-.79-5.23,3.03-.86,6.2-.65,8.57.72,1.47.84,2.56,2.09,3.29,3.67-2.81.46-5.21,1.74-5.21,3.95,0,.13.02.25.03.37l-.27.11c1.78,4.45,2.27,8.66,2.2,12.18-5.67.5-14.36,1.89-14.36,5.7v5.31c0,8.98,6.13,16.54,14.42,18.77-.26.48-.41,1.02-.41,1.6v4.35c0,1.56,1.06,2.87,2.49,3.28l-4.41,6.68c-.35.53-.49,1.14-.47,1.74h-29.59v3h75.83v-3h-30.16c0-.56-.15-1.11-.46-1.6l-4.27-6.74c1.56-.32,2.74-1.71,2.74-3.36v-4.35c0-.65-.19-1.26-.51-1.78,7.93-2.45,13.71-9.86,13.71-18.59v-5.31h-.16c0-3.99-10.24-5.42-14.55-5.85.27-3.6,1.28-7.52,3.41-11.38l-.04-.02c.14-.34.23-.71.23-1.11,0-2.23-2.43-3.51-5.26-3.96.8-2.09,2.13-3.68,3.98-4.68,2.38-1.28,5.48-1.44,8.4-.6-.72,1.92-1.07,4.17-1.19,6.44-3.2.44-4.39,2.03-4.83,3.05-.77,1.79-.19,3.94,1.57,5.75,2.87,2.97,4.73,5.3,4.75,5.32l1.41,1.77,1.08-1.99c.43-.8,1.72-3.09,2.46-4.03,2.13-2.7,2.8-5.25,1.88-7.17-.78-1.64-2.57-2.57-5.31-2.78.11-1.88.4-3.7.96-5.24.38.21.76.42,1.12.67,3.4,2.35,5.04,5.94,4.51,9.83-.31,2.28.21,5.75,2.61,8.63.54.64,1.24,1.33,2.14,1.98-.23,1.18-.42,2.38-.56,3.55-3.55.15-4.96,1.73-5.49,2.76-.89,1.72-.46,3.89,1.16,5.8,2.71,3.2,4.43,5.68,4.44,5.7l1.23,1.79,1.23-1.79c.53-.77,2.1-2.96,2.96-3.84,2.46-2.51,3.41-5,2.67-7-.64-1.72-2.39-2.81-5.21-3.24.09-.74.2-1.48.33-2.22,1.7.7,3.82,1.21,6.45,1.32,4.08.18,7.11,2.98,7.38,6.81.28,4.01-2.89,9.34-12.74,11.14-9.29,1.71-15.2,5.22-16.66,9.88-.93,3,.07,6.16,2.83,8.92,2.12,2.12,5.19,3.36,8.13,3.36.52,0,1.04-.04,1.55-.12,2.6-.41,4.82-1.84,6.39-4.08,1.36.8,2.54,1.08,3.5,1.08.85,0,1.53-.21,2.01-.43,1.95-.9,3.08-3.08,3.03-5.83-.08-4.51.17-7.78.17-7.81l.19-2.43-2.25.93c-.94.39-3.67,1.46-4.96,1.76-2.14.49-5.86,1.77-6.64,4.81-.5,1.95.38,3.99,2.59,6.09-1.11,1.64-2.64,2.66-4.48,2.94-2.46.38-5.26-.56-7.1-2.4-1.36-1.36-2.83-3.5-2.08-5.9,1.09-3.5,6.31-6.35,14.33-7.82,11.79-2.17,15.55-9.06,15.19-14.3-.31-4.42-3.34-7.95-7.55-9.16.97-1.4,1.84-2.98,2.6-4.63.8.2,1.52.3,2.15.3ZM97.97,22.67c-.12.66-.68,1.26-1.59,1.76-.33-1.7-.89-3.56-1.73-5.6.49.34,1,.69,1.54,1.05,1.25.84,1.93,1.91,1.78,2.79ZM90.19,24.94c-.71-.82-.57-2.82.34-5.11.18-.45.37-1.05.55-1.68,1.32,2.78,2.09,5.18,2.45,7.23-1.65.31-2.83.16-3.34-.44ZM30.61,24.94c-.48.55-1.54.71-3.02.48.42-1.9,1.13-4.17,2.24-6.9.15.49.3.94.44,1.3.92,2.29,1.05,4.3.34,5.11ZM22.83,22.67c-.16-.89.52-1.96,1.78-2.79.73-.48,1.39-.94,2.01-1.38-.88,2.27-1.5,4.29-1.91,6.08-1.08-.52-1.76-1.18-1.89-1.91ZM21.11,40.85c-.05.74-.83,1.52-2.2,2.23-.96-2.47-1.7-4.93-2.21-6.86.39.28.76.55,1.08.74,2.1,1.29,3.41,2.82,3.33,3.89ZM13.51,43.69c-.66-.62-.75-1.88-.25-3.3.3-.84.56-1.63.81-2.37.51,1.81,1.18,3.93,2.02,6.09-1.14.21-2.06.08-2.58-.42ZM27.51,82.12c.19.74-.32,1.74-1.43,2.88-1.43-1.84-2.93-4.02-4.14-5.84.43.13.83.26,1.17.33,2.41.55,4.13,1.58,4.4,2.63ZM21.22,87.23c-.82-.38-1.31-1.55-1.29-3.05.02-.93.02-1.8.01-2.61,1.14,1.7,2.48,3.61,3.77,5.28-.98.53-1.86.68-2.5.38ZM27.42,58.63c.21-.58,1.19-1.04,2.67-1.29.15,2.25.15,4.34.11,6.03-.28-.33-.54-.65-.78-.89-1.72-1.75-2.24-3.2-2-3.85ZM35.64,58.3c.31.59,0,1.54-.79,2.48-.6.71-1.14,1.37-1.64,1.99.03-1.62,0-3.54-.13-5.59,1.49.13,2.29.61,2.55,1.12ZM41.28,37.37c.24-.5,1.06-.83,2.28-.96-.05,1.99-.23,3.91-.43,5.49-.15-.22-.29-.43-.42-.6-1.21-1.6-1.79-3.18-1.42-3.92ZM48.26,37.59c.27.62-.07,1.55-.89,2.43-.41.44-.78.85-1.15,1.26.16-1.42.29-3.05.33-4.74.99.23,1.53.64,1.71,1.05ZM61.93,57.97c-.83.03-1.68.05-2.58.05-1.17,0-2.26-.03-3.3-.08.98-3.34,2.25-9.9.27-17.68,1.17.32,2.47.48,3.75.48,1,0,2.01-.1,2.97-.29-2.41,6.46-2.31,12.8-1.12,17.53ZM58.44,35.53c.1.67.16,1.37.17,2.12-1.75-.21-2.84-.74-3.16-1.07.31-.32,1.34-.83,2.99-1.05ZM54.13,52.26c-.28,2.39-.78,4.28-1.15,5.46-6.18-.61-9.43-2.01-9.94-2.71.66-.67,4.03-2.07,11.1-2.75ZM57.42,85.39c-.24,0-.43-.19-.43-.43v-4.35c0-.24.19-.43.43-.43h4.83c.24,0,.43.19.43.43v4.35c0,.24-.19.43-.43.43h-4.83ZM54.57,96.57l5.12-7.76,4.98,7.85-10.11-.09ZM59.43,76.69c-9.07,0-16.45-7.38-16.45-16.45v-1.79c4.07,1.96,11.41,2.57,16.37,2.57s12.5-.63,16.53-2.65v1.88c0,9.07-7.38,16.45-16.45,16.45ZM64.99,57.78c-.48-1.67-.8-3.6-.88-5.69,6.3.64,10.58,2.03,11.52,2.91-.68.8-4.16,2.23-10.65,2.79ZM64.71,36.57c-.32.32-1.37.84-3.07,1.06,0-.73.06-1.43.15-2.1,1.61.22,2.61.73,2.92,1.04ZM71.63,38.01c.2-.46.85-.94,2.04-1.18.04,1.87.2,3.66.38,5.21-.45-.49-.93-1-1.45-1.54-.87-.9-1.24-1.85-.97-2.48ZM79.32,37.77c.37.77-.25,2.39-1.53,4.02-.19.24-.4.55-.62.87-.23-1.67-.44-3.78-.5-5.95,1.42.13,2.39.51,2.65,1.06ZM84.68,57.27c.26-.51,1.07-.99,2.55-1.12-.13,2.05-.16,3.97-.13,5.59-.5-.62-1.04-1.28-1.64-1.99-.79-.94-1.09-1.89-.79-2.48ZM92.9,57.59c.24.66-.28,2.1-2,3.85-.24.24-.51.55-.78.89-.04-1.69-.03-3.78.11-6.03,1.48.25,2.46.71,2.67,1.29ZM98.43,86.26c-.64.29-1.52.15-2.5-.38,1.3-1.67,2.63-3.58,3.77-5.28,0,.81,0,1.67.01,2.61.03,1.51-.47,2.67-1.29,3.05ZM92.13,81.15c.27-1.05,1.99-2.08,4.4-2.63.34-.08.75-.2,1.17-.33-1.21,1.82-2.71,4-4.14,5.84-1.11-1.14-1.62-2.14-1.43-2.88ZM106.49,42.01c-.52.49-1.44.63-2.58.42.84-2.16,1.51-4.28,2.02-6.09.24.74.51,1.53.81,2.37.5,1.42.41,2.68-.25,3.3ZM98.89,39.18c-.08-1.08,1.23-2.6,3.33-3.89.32-.19.69-.46,1.07-.74-.52,1.94-1.25,4.39-2.21,6.86-1.36-.71-2.14-1.49-2.2-2.23Z"/>
      <rect class="cls-1" x="36.33" y="104.55" width="48.46" height="3"/>
    </g>
  </g>
</svg>