<?xml version="1.0" encoding="UTF-8"?>
<svg id="Graphics" xmlns="http://www.w3.org/2000/svg" viewBox="0 0 120 120">
  <defs>
    <style>
      .cls-1 {
        fill: #000;
        stroke-width: 0px;
      }
    </style>
  </defs>
  <g id="Laurel_-_LAURUS_NOBILIS_Bold" data-name="Laurel - LAURUS NOBILIS Bold">
    <path class="cls-1" d="M108.07,54.49c-1.43-.92-3.91-.76-6.59,2.41-.74.87-1.43,1.82-2.08,2.83-2.38,3.73-3.69,7.75-3.61,10.98-.84,1-1.98,1.74-3.01,2.27,1.07-3.87,1.74-7.97,1.97-12.24l3.96-6,.04.02c3.46-1.8,6.88-6.03,9.14-11.31h0c.56-1.3,1.03-2.64,1.4-3.96,1.33-4.74-.11-7.24-1.89-8-1.75-.75-4.51-.08-6.97,4.07-.7,1.17-1.33,2.43-1.89,3.74-2.06,4.83-2.82,9.77-2.14,13.51l-1.61,2.44c-.2-5.62-1.18-11.06-2.87-16.13l2.11-3.82.04.02c4.04-1.58,8.24-5.84,11.23-11.42.74-1.38,1.38-2.8,1.91-4.22,1.87-5.01.53-7.87-1.35-8.87-1.84-.99-4.9-.54-7.97,3.67-.88,1.22-1.71,2.53-2.45,3.91-2.71,5.05-3.98,10.37-3.56,14.56l-1.36,2.47c-.39-.94-.81-1.85-1.26-2.76.27-4.53-1.79-10.41-5.53-15.74-.93-1.32-1.94-2.58-3-3.74-3.64-3.95-6.79-4.06-8.53-2.84-1.77,1.24-2.76,4.32-.21,9.23.73,1.4,1.57,2.78,2.49,4.11,3.51,5.01,7.93,8.73,11.99,10.14,1.42,2.86,2.57,5.9,3.43,9.08l-1.14-.71c-1.87-4.37-6.34-8.81-12.1-11.98h0c-1.49-.82-3.02-1.53-4.54-2.1-5.21-1.97-8.24-.55-9.33,1.44-1.06,1.94-.68,5.41,3.91,8.84,1.32.98,2.74,1.9,4.22,2.71,4.66,2.56,9.52,3.94,13.64,3.94.96,0,1.86-.1,2.73-.25l3.57,2.2c.63,3.38.97,6.88.97,10.44,0,.91-.03,1.82-.07,2.72l-.67-.42c-1.04-3.75-4.13-7.92-8.41-11.26h0c-1.11-.87-2.26-1.65-3.43-2.33-4.1-2.39-6.83-1.63-8.01-.11-1.21,1.55-1.28,4.44,2.13,7.94.96.98,2,1.91,3.1,2.77,4.22,3.3,8.89,5.25,12.67,5.33l2.35,1.47c-.69,6.43-2.44,12.4-5.02,17.58-.13-.35-.26-.72-.38-1.11,1.16-3.1,1-7.65-.42-12.18h0c-.36-1.13-.78-2.23-1.26-3.27-1.75-3.78-4.11-4.58-5.72-4.07-1.63.51-3.11,2.55-2.38,6.71.2,1.13.48,2.28.83,3.41,1.3,4.13,3.46,7.63,5.88,9.61.46,1.78,1.16,3.26,1.65,4.17-2.03,3.34-4.42,6.27-7.1,8.67l-.04-.43h.11c1.59-2.65,2.27-6.94,1.81-11.48-.11-1.12-.29-2.22-.53-3.28-.89-3.93-2.89-5.18-4.48-5-1.58.16-3.31,1.78-3.39,5.83-.02,1.09.02,2.21.14,3.33.4,3.93,1.59,7.48,3.26,9.83l.34,3.45c-3.21,2.28-6.74,3.85-10.48,4.56l.48-.99c2.03-1.42,3.87-4.13,4.99-7.38h0c.29-.85.53-1.72.7-2.57.67-3.33-.56-5.02-1.93-5.5-1.36-.46-3.34.1-4.83,3.09-.39.77-.73,1.6-1.03,2.46-1.09,3.17-1.32,6.38-.67,8.77l-1.22,2.52c-.27.01-.54.03-.81.03-.27,0-.54-.02-.81-.03l-1.22-2.52c.65-2.39.42-5.59-.67-8.77-.29-.85-.64-1.68-1.03-2.46-1.49-2.99-3.48-3.56-4.84-3.09-1.37.47-2.6,2.16-1.93,5.5.17.85.41,1.72.7,2.57h0c1.12,3.26,2.96,5.96,4.99,7.38l.48.99c-3.74-.71-7.27-2.28-10.48-4.56l.34-3.45c1.67-2.35,2.86-5.9,3.26-9.83.11-1.12.16-2.24.14-3.33-.08-4.05-1.81-5.67-3.39-5.83-1.59-.18-3.58,1.07-4.48,5-.24,1.06-.42,2.17-.53,3.28-.46,4.54.21,8.83,1.81,11.47h.11s-.04.44-.04.44c-2.68-2.4-5.07-5.33-7.1-8.67.49-.91,1.19-2.39,1.65-4.17,2.42-1.98,4.58-5.47,5.88-9.61.35-1.13.63-2.28.83-3.41.73-4.17-.75-6.2-2.38-6.71-1.61-.51-3.96.29-5.72,4.07-.48,1.03-.91,2.13-1.26,3.27h0c-1.42,4.54-1.58,9.08-.42,12.18-.12.39-.24.76-.38,1.11-2.58-5.18-4.33-11.15-5.02-17.57l2.35-1.47c3.78-.08,8.45-2.03,12.67-5.33,1.1-.86,2.14-1.79,3.1-2.77,3.41-3.49,3.34-6.39,2.13-7.94-1.18-1.51-3.91-2.28-8.01.11-1.17.68-2.32,1.46-3.43,2.33h0c-4.28,3.34-7.37,7.51-8.41,11.26l-.67.42c-.04-.9-.07-1.8-.07-2.72,0-3.56.34-7.06.97-10.44l3.57-2.2c.87.15,1.77.25,2.73.25,4.12,0,8.98-1.38,13.64-3.94,1.48-.82,2.9-1.73,4.22-2.71,4.58-3.43,4.97-6.91,3.91-8.84-1.09-1.99-4.12-3.42-9.33-1.44-1.52.58-3.05,1.28-4.54,2.1h0c-5.76,3.17-10.24,7.61-12.1,11.98l-1.14.71c.87-3.22,2.04-6.3,3.49-9.2,4.03-1.42,8.42-5.06,11.92-9.97.94-1.32,1.79-2.69,2.53-4.08,2.59-4.89,1.63-7.97-.13-9.23-1.72-1.23-4.88-1.15-8.55,2.77-1.07,1.14-2.09,2.39-3.03,3.71-3.8,5.33-5.92,11.22-5.67,15.77l.07.05c-.43.89-.84,1.79-1.23,2.7l-1.36-2.47c.43-4.19-.85-9.51-3.56-14.56-.74-1.38-1.56-2.7-2.45-3.91-3.06-4.22-6.12-4.66-7.97-3.67-1.88,1.01-3.22,3.87-1.35,8.87.53,1.42,1.17,2.84,1.91,4.22,2.99,5.57,7.18,9.84,11.23,11.42l.04-.02,2.11,3.82c-1.7,5.07-2.67,10.52-2.87,16.13l-1.61-2.44c.69-3.74-.07-8.68-2.13-13.51-.56-1.3-1.19-2.56-1.89-3.74-2.46-4.15-5.22-4.82-6.97-4.07-1.78.76-3.22,3.27-1.89,8,.37,1.32.84,2.66,1.4,3.96h0c2.26,5.28,5.67,9.51,9.14,11.31l.04-.02,3.96,6c.23,4.27.91,8.37,1.97,12.24-1.04-.53-2.17-1.27-3.01-2.27.08-3.23-1.23-7.25-3.61-10.98-.64-1-1.34-1.96-2.08-2.83-2.67-3.17-5.16-3.32-6.59-2.41-1.46.93-2.37,3.3-.57,7.15.49,1.04,1.06,2.08,1.7,3.08,2.53,3.96,5.84,6.91,8.91,7.99,2.03,2.35,5.05,3.55,6.42,4,1.05,2.94,2.32,5.72,3.79,8.28-.93-.26-1.96-.71-2.89-1.49-1.23-2.88-3.9-5.9-7.38-8.25-.97-.66-1.97-1.25-2.98-1.75-3.66-1.82-5.99-.97-6.94.44-.97,1.43-.9,3.96,2.23,6.76.85.76,1.76,1.47,2.73,2.13,3.52,2.39,7.33,3.75,10.43,3.75.33,0,.65-.02.97-.05,2.3,1.49,4.76,1.77,5.95,1.81,1.34,1.92,2.8,3.67,4.37,5.27-.68,0-1.36-.01-1.99-.09-1.91-2.22-5.42-3.99-9.45-4.75-1.01-.19-2.03-.31-3.03-.36-3.71-.19-5.35,1.42-5.64,2.98-.29,1.57.66,3.67,4.23,4.86.95.32,1.94.57,2.95.76h0c1.37.26,2.72.38,4,.38,2.16,0,4.13-.36,5.72-1.04.95.18,1.99.26,2.97.26,1.29,0,2.48-.11,3.3-.21.91.74,1.86,1.43,2.82,2.06l-.95.26c-2.35-.93-5.61-1.03-8.95-.24-.91.21-1.79.49-2.62.81-3.23,1.25-4.01,3.25-3.67,4.7.31,1.3,1.62,2.59,4.38,2.59.3,0,.62-.01.95-.05.89-.09,1.8-.24,2.7-.45,3.49-.83,6.49-2.5,8.16-4.51l3.7-1.02c2.16,1.02,4.41,1.77,6.74,2.22l-.97.62c-1.87-.71-4.42-.78-7.02-.17-.71.17-1.4.38-2.06.64-2.69,1.04-3.33,2.76-3.04,4.02.27,1.13,1.38,2.26,3.7,2.26.24,0,.5-.01.77-.04.7-.07,1.42-.19,2.13-.35,2.53-.6,4.74-1.76,6.13-3.19l5.17-3.31h0c.05,0,.11,0,.16,0,.05,0,.11,0,.16,0h0s5.17,3.3,5.17,3.3c1.38,1.42,3.6,2.59,6.13,3.19.71.17,1.43.29,2.13.35.27.03.52.04.77.04,2.32,0,3.43-1.12,3.7-2.26.3-1.26-.34-2.98-3.04-4.02-.66-.25-1.35-.47-2.06-.64-2.59-.61-5.15-.54-7.02.17l-.97-.62c2.33-.45,4.58-1.2,6.74-2.22l3.7,1.02c1.67,2.01,4.67,3.68,8.16,4.51.9.21,1.81.37,2.7.45.33.03.65.05.95.05,2.75,0,4.07-1.29,4.38-2.59.34-1.45-.44-3.45-3.67-4.7-.83-.32-1.72-.6-2.62-.81-3.33-.79-6.6-.68-8.95.24l-.95-.26c.97-.63,1.91-1.32,2.82-2.06.82.1,2.01.21,3.3.21.99,0,2.02-.07,2.97-.26,1.59.68,3.56,1.04,5.72,1.04,1.29,0,2.64-.13,4-.38h0c1.01-.19,2.01-.45,2.95-.76,3.56-1.19,4.52-3.29,4.23-4.86-.29-1.56-1.92-3.17-5.64-2.98-1,.05-2.02.17-3.03.36-4.03.76-7.54,2.53-9.45,4.75-.63.07-1.32.1-1.99.09,1.57-1.6,3.03-3.36,4.37-5.27,1.19-.04,3.66-.32,5.95-1.81.31.03.64.05.97.05,3.1,0,6.91-1.36,10.43-3.75.97-.66,1.88-1.37,2.73-2.13,3.12-2.8,3.2-5.33,2.23-6.76-.96-1.41-3.28-2.26-6.94-.44-1.01.5-2.01,1.09-2.98,1.75-3.47,2.36-6.14,5.37-7.38,8.26-.92.78-1.96,1.23-2.89,1.49,1.48-2.56,2.75-5.34,3.8-8.28,1.37-.45,4.39-1.65,6.42-3.99,3.07-1.08,6.39-4.03,8.92-7.99.64-1,1.21-2.04,1.7-3.08,1.8-3.85.89-6.22-.57-7.15ZM98.1,19.8c.68-1.26,1.43-2.46,2.23-3.57,1.58-2.17,2.97-2.88,3.73-2.88.16,0,.29.03.39.08.65.35,1.07,2.19-.04,5.18-.48,1.29-1.07,2.58-1.75,3.85-2.15,4.02-5.04,7.33-7.86,9.11-.06-3.42,1.13-7.73,3.3-11.78ZM72.39,38.49c-1.36-.75-2.66-1.58-3.87-2.49-2.71-2.03-3.59-4.05-3.07-5,.27-.5,1.03-.82,2.15-.82.93,0,2.11.22,3.49.74,1.39.53,2.79,1.17,4.16,1.92,4.51,2.48,8.22,5.88,10.12,9.19-3.72.19-8.5-1.08-12.98-3.55ZM78.35,54.38c-1-.78-1.94-1.62-2.8-2.5-2.09-2.14-2.19-3.64-1.92-3.99.11-.14.4-.26.88-.26.7,0,1.79.26,3.26,1.12,1.05.61,2.09,1.32,3.09,2.1,3.1,2.42,5.55,5.37,6.79,8.07-2.84-.51-6.22-2.14-9.3-4.54ZM80.04,69.7c-.32-1.01-.57-2.03-.74-3.03-.4-2.26.14-3.25.32-3.33,0,0,.01,0,.02,0,.18,0,1.11.39,2.08,2.48.43.92.8,1.89,1.12,2.9.9,2.87,1.23,5.76.97,8.07-1.51-1.71-2.88-4.24-3.77-7.09ZM74.08,78.74c.04-1.85.49-2.65.7-2.87.25.17.84.86,1.25,2.64.21.94.37,1.92.48,2.92.27,2.65.1,5.21-.43,7.23-.92-1.86-1.6-4.33-1.87-6.97-.1-1-.14-1.99-.12-2.96ZM65.54,89.92c.25-.73.54-1.43.87-2.09.47-.94.92-1.36,1.15-1.51.1.27.21.9,0,1.98-.15.73-.35,1.46-.59,2.19-.58,1.7-1.4,3.23-2.3,4.39,0-1.5.29-3.24.88-4.96ZM53.05,90.49c-.25-.73-.45-1.46-.59-2.19-.22-1.08-.11-1.71,0-1.98.24.15.68.57,1.15,1.51.33.66.62,1.36.87,2.09.59,1.72.89,3.46.88,4.96-.91-1.15-1.72-2.68-2.3-4.39ZM43.51,81.44c.1-1,.26-1.98.48-2.92.41-1.78,1-2.47,1.25-2.64.21.22.66,1.02.7,2.87.02.97-.02,1.96-.12,2.96-.27,2.64-.94,5.11-1.87,6.97-.53-2.02-.7-4.58-.43-7.23ZM37.17,68.72c.32-1.01.7-1.99,1.12-2.9,1-2.15,1.97-2.5,2.1-2.48.19.08.72,1.07.33,3.33-.18,1-.43,2.02-.74,3.03-.9,2.85-2.26,5.38-3.77,7.09-.26-2.31.07-5.2.97-8.07ZM39.15,50.85c1-.78,2.04-1.49,3.09-2.1,2.47-1.44,3.87-1.19,4.13-.86.28.35.18,1.85-1.91,3.99-.86.88-1.8,1.72-2.8,2.5-3.07,2.4-6.46,4.03-9.3,4.54,1.24-2.71,3.69-5.65,6.79-8.07ZM44.76,32.84c1.37-.75,2.77-1.4,4.16-1.92,3.04-1.15,5.14-.83,5.64.08.52.95-.37,2.97-3.07,5-1.21.9-2.51,1.74-3.87,2.49-4.48,2.46-9.26,3.73-12.98,3.55,1.91-3.31,5.62-6.71,10.12-9.19ZM17.35,22.47c-.68-1.26-1.26-2.56-1.75-3.85-1.12-2.99-.7-4.83-.04-5.18.1-.05.23-.08.39-.08.76,0,2.15.7,3.73,2.88.8,1.11,1.55,2.31,2.23,3.57,2.17,4.04,3.35,8.36,3.3,11.78-2.82-1.78-5.71-5.09-7.86-9.11ZM15.6,63.11c-.57-.89-1.08-1.81-1.51-2.73-1-2.13-.7-3.25-.53-3.35.02-.01.06-.02.11-.02.34,0,1.31.35,2.57,1.84.65.77,1.27,1.61,1.84,2.51,1.63,2.55,2.71,5.29,3.05,7.62-1.92-1.24-3.91-3.33-5.53-5.85ZM18.66,80.35h0c-.85-.58-1.67-1.21-2.41-1.88-1.74-1.56-1.86-2.67-1.75-2.84.05-.07.26-.16.66-.16.52,0,1.33.16,2.47.72.89.44,1.77.96,2.63,1.54,2.47,1.67,4.5,3.75,5.69,5.73-2.22-.35-4.84-1.45-7.28-3.11ZM26.32,94.07c-.88-.16-1.74-.39-2.56-.66-1.66-.55-2.21-1.28-2.23-1.45.08-.18.85-.64,2.56-.56.86.04,1.74.15,2.62.31,2.37.44,4.55,1.3,6.13,2.36-1.84.42-4.15.43-6.52-.02ZM35.74,103.16c-.77.18-1.54.31-2.3.38-1.25.12-1.88-.12-2.08-.26.12-.22.57-.73,1.79-1.2.71-.27,1.46-.51,2.23-.69,1.91-.45,3.79-.56,5.35-.35-1.32.91-3.08,1.66-5,2.11ZM84.63,101.4c.77.18,1.52.42,2.23.69,1.22.47,1.67.98,1.79,1.2-.2.14-.82.37-2.08.26-.76-.07-1.53-.2-2.3-.38-1.92-.45-3.68-1.21-5-2.11,1.56-.21,3.45-.1,5.35.35ZM93.3,91.72c.88-.16,1.76-.27,2.62-.31,1.71-.08,2.47.38,2.55.52-.01.2-.57.92-2.22,1.48-.82.27-1.68.49-2.56.66-2.36.44-4.68.43-6.52.02,1.58-1.07,3.76-1.92,6.13-2.36ZM99.75,77.72c.85-.58,1.74-1.1,2.63-1.54,1.13-.56,1.95-.72,2.47-.72.39,0,.61.09.66.16.12.17,0,1.29-1.75,2.84-.75.67-1.56,1.3-2.41,1.88h0c-2.44,1.66-5.06,2.76-7.28,3.11,1.19-1.99,3.22-4.06,5.69-5.73ZM101.29,40.47c.51-1.19,1.08-2.33,1.71-3.39,1.32-2.23,2.53-2.87,3.05-2.87.07,0,.12,0,.16.03.44.19.95,1.69.18,4.44-.34,1.2-.76,2.41-1.27,3.59-1.55,3.62-3.73,6.73-5.96,8.6-.18-2.98.57-6.76,2.13-10.4ZM76.97,21.95c-.85-1.21-1.62-2.48-2.29-3.77-1.55-2.99-1.36-4.95-.73-5.39.12-.09.31-.14.55-.14.82,0,2.27.62,4.05,2.56.97,1.06,1.9,2.21,2.75,3.42,2.76,3.94,4.54,8.27,4.93,11.82-3.12-1.5-6.52-4.6-9.26-8.51ZM38.75,18.63c.87-1.21,1.8-2.36,2.78-3.4,2.32-2.48,4.07-2.77,4.62-2.38.63.45.8,2.41-.78,5.38-.68,1.27-1.46,2.53-2.32,3.75-2.77,3.89-6.2,6.95-9.33,8.42.42-3.54,2.25-7.86,5.04-11.77ZM14.88,42.27c-.5-1.18-.93-2.39-1.27-3.59-.77-2.75-.26-4.25.18-4.44.39-.16,1.72.33,3.21,2.84.63,1.07,1.21,2.21,1.71,3.39,1.56,3.65,2.31,7.42,2.13,10.4-2.24-1.87-4.42-4.98-5.96-8.6ZM47.86,106.83c-.58.14-1.16.23-1.72.29-.4.04-.71.03-.93,0,.19-.14.47-.29.87-.45.54-.21,1.1-.38,1.68-.52.99-.24,1.97-.36,2.91-.34-.83.43-1.79.78-2.79,1.02ZM72.26,106.15c.58.14,1.14.31,1.68.52.4.15.68.31.87.45-.22.03-.53.05-.93,0-.56-.05-1.14-.15-1.72-.29-1.01-.24-1.97-.59-2.79-1.02.9-.02,1.91.1,2.91.33ZM105.92,60.37c-.43.92-.94,1.84-1.51,2.73-1.62,2.53-3.61,4.61-5.53,5.85.34-2.33,1.42-5.07,3.05-7.62.57-.89,1.19-1.74,1.84-2.51,1.26-1.49,2.23-1.84,2.57-1.84.05,0,.09,0,.11.02.17.11.46,1.22-.53,3.35Z"/>
  </g>
</svg>