<?xml version="1.0" encoding="UTF-8"?>
<svg id="Graphics" xmlns="http://www.w3.org/2000/svg" viewBox="0 0 120 120">
  <defs>
    <style>
      .cls-1 {
        fill: #000;
        stroke-width: 0px;
      }
    </style>
  </defs>
  <g id="Minerva_Bold" data-name="Minerva Bold">
    <g>
      <path class="cls-1" d="M50.42,76.68l.56,2.95c.43-.08,10.5-2.12,13.68-12.34l-2.86-.89c-2.64,8.47-11.03,10.21-11.38,10.28Z"/>
      <path class="cls-1" d="M50.38,95.62l2.69,1.34c.04-.07,3.68-7.38,8.65-17l-2.67-1.38c-4.98,9.63-8.63,16.96-8.67,17.04Z"/>
      <path class="cls-1" d="M84.16,75.16c.54-.22,1.03-.64,1.38-1.38,1.2-2.58-1.15-4.61-4.11-6.8-2.28-1.69-2.61-3.13-3.4-6.6-.32-1.41-.72-3.15-1.34-5.25,1.26-2.54.26-4.17-1.94-7.7l-.34-.55c-.12-.25-.26-.49-.42-.72-1.31-2.3-1.64-4.34-1.97-6.49-.31-2.04-.63-4.14-1.84-6.37-1.94-3.59-5.68-4.02-8-3.91,1.18-1.05,2.3-3.07,2.29-6.98l.24-1.11c.05-.23,1.22-5.78-1.57-9.31-1.41-1.78-3.5-2.71-6.21-2.76-2.35-.06-4.25.78-5.53,2.38-1.96,2.46-2.07,6.23-1.81,8.98l-.38.69c-2.34,3.91-1.83,6.8-1,8.54.37.77.84,1.38,1.27,1.83-2.04,1.12-4.16,3.27-4.88,7.02-.56,2.92-.94,5.2-1.2,6.83-1.49-1.6-3.07-4.22-2.91-4.95.06-.1.1-.19.15-.28l2.11.78,1.03-2.82-2.01-.74c.81-3.17-.51-5.19-1.98-6.4-.71-.58-1.65-.68-2.53-.26-2.25,1.06-3.71,5.12-3.71,10.34,0,3.78,3.23,10.45,6.64,13.72,1.49,1.43,2.98,2.21,4.42,2.35-.47,1.56-1.41,3.29-2.85,5.26-2.26,3.09-2.11,8,.36,11.18.8,1.03,1.84,1.58,2.89,1.75.09,5.23.41,22.76.59,25.33.07,1.06.6,1.92,1.46,2.49v.32c-1.99-.4-3.98.02-5.67,1.27-1.73,1.28-2.76,3.19-2.5,4.64l.22,1.26,31.79-.59v-.1c.5.1,1.01.16,1.52.16,2.65,0,5.33-1.36,7.62-3.94,5.77-6.48,8.61-19.53,4.06-31.12ZM79.64,69.39c2.44,1.81,3.03,2.6,3.15,2.95-.36-.07-.93-.29-1.31-.43-.43-.16-.87-.32-1.2-.41l-2.88-.95-.17,1.89c-.03.3-.17.7-.23.77,0,0-.21.03-.67-.21-.09-.09-.35-.63-.39-1.84-.06-2.19-.46-4.31-1.18-6.3l-1.59-4.4c.38-.64.83-1.34,1.32-2.06.24.96.44,1.83.62,2.64.85,3.74,1.36,6,4.54,8.35ZM68.41,87.94c-1.7,1.22-3.99,3.39-5.25,6.81l2.81,1.04c.33-.89.75-1.67,1.22-2.35l.88,13.78-1.17.02c-.83-2.18-2.94-3.78-5.52-3.99-.43-.04-.88-.03-1.34.02l.05-5.61c1.05-.97,2.08-2.54,2.86-5.35.25-.9.51-1.82.77-2.76,1.82-6.48,3.89-13.83,4.88-23.37l-2.98-.31c-.96,9.28-2.99,16.5-4.78,22.86-.27.94-.52,1.87-.77,2.77-1.02,3.69-2.28,4.3-3.62,4.94-.98.47-2.2,1.06-2.93,2.69-.56,1.25-2.85,2.05-4.26,1.79-.6-.11-.62-.3-.62-.37-.18-2.56-.52-21.38-.59-25.72.02-.01.04-.02.06-.03,1.06-.72,1.77-2.01,1.6-3.58,11.1-.97,16.92-10.94,17.18-11.39l-2.6-1.49c-.06.1-5.58,9.5-15.6,9.94.02-.36.34-.7,1.11-1.4.44-.4,1.01-.92,1.44-1.58,2.38-.1,9.11-1.91,13.56-8.75.59,0,1.16-.1,1.67-.36.12-.06.26-.14.4-.24,1.02,3.83,1.88,6.78,1.97,7.07l.05.18c.57,5.84.96,16.61,1.12,21.37.04,1.34-.55,2.59-1.59,3.33ZM50.12,103.96c2.39-.11,5.14-1.38,6.13-3.59.18-.41.42-.63.82-.86l-.04,4.89c-.97.67-1.82,1.67-2.39,3.07l-4.42.08-.1-3.59ZM61.13,106.24c.84.07,1.73.43,2.35,1.07l-5.33.1c1.05-1.19,2.46-1.21,2.98-1.17ZM58.36,55.79c.16-.67.57-1.19,1.06-1.35.5-.16,1.13.05,1.77.59.22.19.44.35.66.51-3.48,4.91-8.26,6.45-10.24,6.73-.02-.05-.03-.09-.05-.14-.38-1-.29-1.96.23-2.56.2-.23.64-.6,1.35-.44,1.92.42,4.38.19,5.22-3.34ZM69.88,44.1c.38,1.28.92,2.62,1.8,4.04l.13.22c.28.64.23,1.2.06,1.44-.18.26-.73.14-.96.08-.81-.23-1.7-.17-2.5.12-.6-2.46-1.17-4.95-1.58-7.11.11,0,.22,0,.31.03.57.61,1.62,1.19,2.67,1.19.02,0,.05,0,.07,0ZM73.07,55.22c-.92,1.21-1.72,2.43-2.37,3.49-.44-1.59-.99-3.6-1.54-5.76.25-.19.69-.27.94-.19,1.52.43,2.91.13,3.83-.78.59,1.32.22,1.81-.86,3.24ZM50.63,25.88l.72,2.9c0,.16,0,.31.01.46-.52-.69-.98-1.79-.73-3.36ZM53.81,22.37c1.33-.06,2.96-.37,4.41-1.36.73.53,1.82,1.11,3.25,1.36.02,3.23-.88,4.77-1.79,5.11-.79.29-1.69-.16-2.13-.74l-2.38,1.83c.96,1.25,2.41,1.96,3.87,1.99l.02.28c.03.52.28,1,.68,1.31.17.13.35.22.55.29-.42.98-1.17,1.63-2.18,1.81-1.3.23-2.95-.38-3.83-2.23.09-.95.25-3.85-.48-9.66ZM53.76,13.5c.69-.87,1.72-1.26,3.12-1.25,1.8.03,3.08.56,3.91,1.62,1.27,1.6,1.3,4.08,1.17,5.56-1.66-.29-2.5-1.28-2.53-1.32l-1.08-1.37-1.19,1.27c-1.37,1.46-3.59,1.45-4.62,1.35-.1-2.13.13-4.48,1.23-5.86ZM51.88,33.89c1.24,2.12,3.41,3.42,5.7,3.42.36,0,.71-.03,1.07-.1,2.43-.44,4.2-2.27,4.8-4.81,1.47.1,3.19.62,4.11,2.33.96,1.77,1.22,3.53,1.51,5.4.03.19.06.39.09.58-.67-.63-1.77-.92-2.8-.78-.06-.49-.11-.96-.13-1.36l-3,.16c.12,2.26.84,5.88,1.71,9.65-.27.23-.58.42-.81.42,0,0,0,0,0,0-.28,0-.61-.43-.74-.62-.35-.51-.74-.85-1.14-1.09v-5.14h-3v4.91c-.13.03-.25.07-.35.1-.21.06-.52.15-.69.17-.3-.37-.54-.75-.77-1.11-.11-.18-.24-.37-.38-.57v-5.11h-3v3.49c-.38.03-.8.13-1.26.31-.08-.21-.17-.48-.23-.69-.39-1.23-1.05-3.29-3.29-3.78l-1.73-.3s.01-.07.02-.11c.69-3.59,2.97-4.9,4.31-5.37ZM36.59,41.19c0-4.39,1.09-6.7,1.73-7.41.68.7,1.43,2.12-.4,5.29-1.79,3.1,3.3,8.66,4.52,9.62,1.46,1.15,2.33,2.77,2.38,4.43l.02.34c.07.42.05.67.03.8-.73-.1-1.62-.63-2.56-1.53-3.08-2.95-5.72-8.82-5.72-11.55ZM44.53,71.86c-1.66-2.14-1.8-5.54-.31-7.57,2.01-2.74,4.54-6.87,3.59-11.23-.05-1.76-.67-3.44-1.74-4.88.13-.97.41-2.96.93-5.87l1.69.3c.42.09.65.61,1.02,1.75.33,1.03.7,2.19,1.82,2.7.68.31,1.44.28,2.27-.09.32-.14.49-.17.5-.18.14.11.41.54.61.85.27.42.6.95,1.04,1.48,1.21,1.47,2.88.99,3.77.73.98-.28,1.01-.25,1.21.04,1.09,1.56,2.33,1.9,3.18,1.9,0,0,.02,0,.02,0,.56,0,1.07-.15,1.53-.36.03,1.23-.24,1.93-.55,2.08-.34.17-1.13-.04-1.98-.77-1.46-1.25-3.11-1.67-4.65-1.17-.68.22-1.28.62-1.78,1.14v-1.92h-3v5.39c-.41-.08-.81-.11-1.21-.08l.16-6.63-3-.07-.2,8.27c-1.21,1.44-1.48,3.5-.72,5.52.12.33.11.49-.98,1.48-1.12,1.01-3.19,2.88-1.4,5.91.23.38.68,1.32.04,1.76-.38.26-1.23.36-1.88-.47ZM43.59,107.01c.8-.47,2.03-.87,3.6-.31l.02.9-4.5.08c.24-.24.53-.47.87-.67ZM77.86,104.28c-1.27,1.43-3.82,3.64-6.8,2.71l-.65-10.17c3.29,2.14,6.21,2.29,6.91,2.29.08,0,.13,0,.15,0l-.14-3s-3.56.11-7.18-3.3l-.15-2.32c.05-.04.11-.08.16-.12,1.43-1.03,2.38-2.58,2.71-4.32,2.07.98,4.23,1.18,5.54,1.18.69,0,1.15-.05,1.21-.06l-.35-2.98s-3.81.4-6.34-1.6c-.16-4.72-.43-11.06-.77-16.04.47,1.49.74,3.06.79,4.68.06,2.22.73,3.73,1.92,4.36.83.44,1.53.6,2.12.6s1.08-.17,1.44-.36c.62-.34,1.03-.86,1.3-1.39.24.08.48.17.72.26.1.04.2.08.31.12,4.89,10.72,2.39,23.53-2.89,29.45Z"/>
    </g>
  </g>
</svg>