<?xml version="1.0" encoding="UTF-8"?>
<svg id="Graphics" xmlns="http://www.w3.org/2000/svg" viewBox="0 0 120 120">
  <defs>
    <style>
      .cls-1 {
        fill: #000;
        stroke-width: 0px;
      }
    </style>
  </defs>
  <g id="Numa_Pompilius_Bold" data-name="Numa Pompilius Bold">
    <path class="cls-1" d="M60,109.99c27.56,0,49.99-22.42,49.99-49.99S87.56,10.01,60,10.01,10.01,32.44,10.01,60s22.42,49.99,49.99,49.99ZM60,13.01c25.91,0,46.99,21.08,46.99,46.99s-21.08,46.99-46.99,46.99S13.01,85.91,13.01,60,34.09,13.01,60,13.01Z"/>
    <g>
      <path class="cls-1" d="M69.5,58.47c3.98-1.11,4.48-4.27,4.5-4.41l-.25-.82c-.92-1-2.86-1.96-4.94-1.71-1.58.19-3.87,1.14-5.83,4.64l.2,1.23c.08.07,1.56,1.38,4.12,1.38.66,0,1.4-.09,2.2-.31ZM69.37,55.14c0,.33-.27.6-.6.6s-.6-.27-.6-.6.27-.6.6-.6.6.27.6.6ZM71.36,55.07c-.01-.47-.15-.9-.38-1.28.34.13.65.29.89.46-.1.23-.26.52-.51.83ZM66.16,55.13s0,0,0,.01c0,.61.22,1.16.57,1.6-.63-.07-1.14-.24-1.51-.41.3-.46.62-.86.94-1.2Z"/>
      <path class="cls-1" d="M73.92,59.68l-1.6-1.2c-.81,1.08-4.77,2.8-7.75,1.39l-.85,1.81c1.11.52,2.28.74,3.43.74,2.99,0,5.81-1.46,6.77-2.74Z"/>
      <path class="cls-1" d="M70.14,50.18h.06c1.45,0,2.34.51,2.51.7,0,0-.07-.08-.11-.23l2.88-.82c-.32-1.13-1.67-2.08-3.51-2.46-1.91-.4-6.93-.66-12.2,5.69l2.31,1.92c3.43-4.13,6.53-4.78,8.06-4.79Z"/>
      <path class="cls-1" d="M76.7,63.9l1.87-.72s-1.5-3.92-2.33-6.98l-1.93.52c.85,3.16,2.33,7.01,2.39,7.18Z"/>
      <path class="cls-1" d="M88.1,90.68c.16,0,.31-.04.45-.09.09-.03.19-.1.29-.19-.08.03-.16.05-.23.08l-.51.2Z"/>
      <path class="cls-1" d="M93.35,35.78l-.45.33c.27.35.43.42.45.43,0,0,.06-.02.19-.11.06-.04.09-.07.11-.09-.02-.09-.1-.27-.3-.55Z"/>
      <path class="cls-1" d="M86.12,53.54c.68-.92,1.58-2.9.5-6.3-.89-2.82-1.7-5.15-2.42-6.97,1.69-2.72,1.42-6.2-.8-8.78-1.67-1.94-4.43-3.23-7.41-2.54-.14-.88-.49-1.56-.84-2.04-1.75-2.39-5.29-2.57-5.69-2.58l-1.44,2.06c.04.09.13.32-.14.45-.32.16-.73-.12-1.05-.68-1.2-2.14-3.12-3.58-5.14-3.86-1.23-.17-2.41.13-3.41.82-1.22-.07-2.8.18-4.63,1.24-1.76-1.71-4.14-2.49-6.77-2.12-3.49.49-6.52,2.91-7.55,6.01-.1.31-.2.67-.27,1.07-1.71.24-3.65,1.19-5.24,2.64-2.33,2.13-3.48,4.91-3.24,7.83.05.62.16,1.22.3,1.8-1.69,2.59-2.13,5.64-1.16,8.48.21.62.51,1.22.84,1.79-1.24,2.79-1.38,5.26-.38,7.34.45.94,1.11,1.75,1.9,2.45-.58,3.03-.26,5.57.96,7.53,1.44,2.3,3.84,3.43,6.06,4.12l-1.62,11.54.2.98c.28.46,6.07,9.77,22.74,9.77,2.92,0,6.16-.29,9.77-.95l1.14-.98,1.64-4.69c3.5-.27,9.16-2.28,11.21-8.66l.49-1.53c2.19-6.79,2.71-8.4,1.99-11.28-.12-.5.08-1.22.33-2.13.61-2.22,1.54-5.56-.85-10.86v-.99ZM80.04,50.93c.61-.48,2-.72,4.02-.12-.05.31-.13.54-.21.7-.87-.32-2.05-.59-3.25-.28-.33.08-.64.21-.94.37,0-.26.13-.48.37-.67ZM82.11,54.15c0,.25-.23.46-.51.46s-.51-.21-.51-.46.23-.46.51-.46.51.21.51.46ZM81.11,33.44c.66.77,1.11,1.78,1.17,2.85,0,0,0-.02-.01-.02-1.26-1.84-3.9-2.33-5.44-2.24-.45-.46-1.02-.81-1.7-1,.16-.24.3-.5.41-.77,2.35-1.16,4.45-.13,5.57,1.18ZM67.27,36.19h0c-.07-.12-.14-.25-.22-.37.55.09,1.1.13,1.65.13.4,0,.8-.02,1.18-.07,1.96-.22,3.56-.96,4.63-2.07l-.28,2.06c.34.05.62.38.83.75,0,.02.01.03.02.05.53,1.24.73,2.22.2,3-.57-1.17-1.56-2.26-3.15-2.53-1.19-.2-2.1-.12-2.84-.05-1.17.1-1.32.12-2.01-.91ZM62.32,43.47c-.26-1.79-1.38-3.65-3.2-5.08-1.92-1.51-1.95-2.42-2-3.92-.03-1.03-.08-2.3-.78-3.76-.61-1.25-1.44-2.23-2.45-2.9,1.83-1.45,3.58-2.01,4.99-1.57,1.19.38,2.05,1.51,2.23,2.94.25,1.94-.78,3.84-2.75,5.09l1.6,2.54c.51-.32.96-.68,1.38-1.06,2.7.25,3.75,2.08,3.8,3.67.05,1.59-.84,3.32-2.82,4.07ZM58.5,45.53c-.49-.72-1.14-1.36-1.78-2-1.77-1.74-3.29-3.24-2.46-6.31l-2.9-.78c-1.28,4.76,1.45,7.45,3.25,9.23.87.86,1.7,1.67,1.67,2.27,0,.24-.16.72-.85,1.48-.52-.67-1.15-1.25-1.75-1.8-1.3-1.18-2.42-2.19-2.49-3.78-.16-3.34-1.32-6.02-3.19-7.34-.45-.31-1.05-.62-1.79-.8-.52-1.37-.38-2.74.4-3.89.91-1.34,2.51-2.16,4.01-2.06,1.29.09,2.33.87,3,2.26.43.89.46,1.66.48,2.55.06,1.7.13,3.81,3.15,6.18,1.81,1.42,2.39,3.14,2.03,4.1-.13.35-.41.57-.79.68ZM69.16,29.53c.86-.41,1.46-1.12,1.73-1.94.7.21,1.44.55,1.83,1.09.14.19.55.76.17,2.12-.46,1.64-2.68,2.02-3.35,2.09-2.14.23-3.67-.46-3.86-.81l-2.02,1.09c-.09-.03-.18-.07-.28-.1.64-1.32.9-2.78.71-4.27-.11-.84-.36-1.61-.72-2.31.31.33.59.7.83,1.12,1.31,2.32,3.49,2.62,4.96,1.92ZM42.15,29.19c.67-2.02,2.78-3.66,5.12-3.99.94-.13,2.53-.11,3.9.97-.21.19-.41.38-.62.59-2.47-.06-4.96,1.22-6.42,3.37-.78,1.15-1.18,2.45-1.21,3.78-.99-1.63-1.27-3.23-.77-4.73ZM35.82,34.17c1.15-1.05,2.36-1.61,3.27-1.81.27,1.28.87,2.72,2.05,4.26-1.74,1.01-2.8,2.57-2.95,4.49-.13,1.66.46,3.33,1.55,4.72-1.05.08-2.03-.12-2.92-.6-1.84-1-3.06-3.13-3.27-5.68-.22-2.66,1.33-4.51,2.28-5.37ZM32.86,57.92c-.45-.93-.48-2.04-.14-3.33,1.51,1.41,3.45,2.55,5.72,3.36-.27,1.2-.2,2.52.19,3.83-2.51-.83-4.91-2.03-5.78-3.86ZM35.37,47.86c1.21.66,2.53.99,3.91.99.9,0,1.83-.16,2.76-.44.62,1.96.28,3.73-.36,4.84-.36.63-1.19,1.67-2.66,1.73-3.3-1.26-5.63-3.35-6.48-5.87-.44-1.3-.47-2.65-.09-3.93.78,1.12,1.76,2.04,2.93,2.68ZM35.56,67.61c-.66-1.06-.91-2.45-.75-4.15,1.85.92,3.95,1.54,5.94,2.02,0,0,.01.02.02.02,1.28,1.38,1.93,2.42,2.46,3.25.47.74.9,1.4,1.54,1.96-.06.18-.14.36-.26.46-.24.2-.77.22-1.44.06l-.66-.15c-2.43-.56-5.46-1.26-6.84-3.48ZM81.79,77.88l-.49,1.53c-2.04,6.34-8.32,6.59-9.26,6.6l-3.61-.81-.94.09c-.14.06-3.52,1.46-7.88-1.56l-1.71,2.47c4.79,3.31,8.88,2.47,10.29,2.02l1.71.38-1.14,3.24c-19.3,3.28-26.78-5.14-28.26-7.16l1.49-10.63.37.09c.55.13,1.04.19,1.49.19,1.14,0,1.92-.37,2.45-.77,2.59,6.17,7.46,9.31,7.69,9.46l1.6-2.54s-4.41-2.84-6.62-8.31c1.62-.13,2.83-1.09,3.39-1.81l-2.37-1.84c-.13.16-.86.96-2.01.58-1.24-.4-1.47-.76-2.23-1.96-.56-.88-1.33-2.09-2.79-3.67-1.86-2.02-2.08-4.53-1.22-5.8.51-.75,1.35-.91,2.51-.47l1.08-2.8c-.26-.1-.51-.17-.77-.24,1.2-2.54,1.07-5.74-.43-8.51l-.17.09.09-.19c-1.82-.89-3.01-2.62-2.88-4.21.1-1.23.98-2.13,2.55-2.6,1.06-.32,1.9-.25,2.56.21.88.62,1.51,1.97,1.78,3.71-.38.5-1.21,1.44-2.53,2.02l1.21,2.75c.78-.34,1.43-.77,1.99-1.21.68,1.56,1.89,2.68,2.94,3.63.98.89,1.82,1.65,1.83,2.4,0,.38-.18,1.01-.91,1.97-.02-.02-.04-.03-.06-.05q-2.95-2.4-3.17-4.41l-.08-.74-2.98.36.08.71c.33,2.97.69,3.51,4.26,6.41.99.8,1.47,1.63,1.28,2.21-.11.35-.44.55-.63.56-1.46.08-2.14.9-2.41,1.39-.58,1.03-.49,2.45.25,4.05-.16.13-.41.25-.49.24-.01,0-.06-.06-.11-.17-.55-1.1-1.31-1.8-1.92-2.36-.77-.7-1.08-1.01-1.11-1.75,0-.18.05-.22.06-.22-.02.01-.13.04-.27-.02-.08-.03-.14-.08-.19-.12l2.9.13c.05-1.16-.4-2.12-1.25-2.62-.81-.48-1.86-.46-2.73.07-1,.6-1.57,1.7-1.51,2.94.1,2,1.2,3,2.08,3.81.52.47.96.88,1.26,1.49.55,1.09,1.5,1.75,2.62,1.81.06,0,.11,0,.17,0,1.4,0,2.61-.9,3.17-1.78.51-.8.58-1.67.2-2.41-.39-.74-.49-1.25-.51-1.5,1.46-.1,2.81-1.18,3.28-2.63.18-.56.38-1.69-.25-3.04,1.24-1.46,1.87-2.76,1.96-4.02,1.68-1.47,2.57-2.79,2.76-4.12,1.04-.27,1.87-.87,2.43-1.71,4.01-.6,6.18-3.59,6.43-6.61.5.04.98,0,1.44-.04.62-.06,1.27-.11,2.08.02,1.05.18,1.3,2.14,1.3,2.15l2.1,1.24c1.72-.75,4.21-2.52,3.35-6.32.58.15,1.15.41,1.41.79.5.73,1.65,2.96,3.8,9.66-2.17-.39-4.08-.08-5.39.93-1.16.91-1.7,2.25-1.48,3.7.19,1.25,1.04,3.19,2.03,5.44,1.09,2.49,2.44,5.59,2.49,7.02.02.76.03.9-2.46,1.13-.68.06-1.46.13-2.25.28-1.08.19-1.8-.08-2.03-.44-.27-.41-.07-1.2.52-2.05l-2.48-1.69c-.98,1.43-1.34,2.88-1.07,4.14-.32.22-.62.43-.92.63-4.64,3.21-6.97,4.82-6.58,10.43l2.99-.21c-.27-3.9.79-4.64,5.29-7.75.31-.22.64-.44.97-.68.73.44,1.63.68,2.62.68.39,0,.79-.04,1.21-.11.66-.12,1.34-.18,1.99-.24.31-.03.65-.06,1-.1.32.58.49,1.13.49,1.73-.6-.3-1.37-.52-2.24-.34-.82.16-1.4.6-1.8,1.11-.31-.19-.67-.34-1.09-.4-.6-.08-1.52.02-2.51.96-1.9,1.8-3.6,3.51-3.6,3.51l.03,1.44c.05.05,1.38,1.26,3.97,2.36,1.17.5,2.22.74,3.16.74.69,0,1.33-.13,1.91-.4,1.3-.59,2.27-1.84,2.88-3.69l.25-.78c.93-2.81,1.52-4.63.57-6.71.61-.25,1.16-.63,1.55-1.19,0,.39.02.78.12,1.18.49,1.97.24,2.91-1.93,9.63ZM73.04,75.86c.81-.59,1-.7,1.62-.33,2.62,1.6,3.85.07,4.44-.67.07-.09.15-.18.22-.26.08-.09.17-.17.26-.24l-.25.77c-.42,1.3-1.03,2.13-1.8,2.49-.84.38-1.98.27-3.46-.36-.7-.3-1.29-.6-1.78-.88.28-.17.53-.35.76-.51ZM74.15,73.34s.07-.07.11-.1c.23-.22.56-.47.87-.43.37.04.71.47.8.6l1.83-.32s.19-.86.91-1.01c.25-.05.5,0,.72.08-.52.23-1.09.58-1.56,1.1-.1.11-.2.23-.3.36-.52.65-.71.89-1.83.21-.57-.35-1.08-.47-1.55-.49ZM84.18,64.19c-.2-1.83-1.25-4.38-2.37-6.94.76-.09,1.41-.31,1.94-.57,1.35,3.49.91,5.72.43,7.51Z"/>
    </g>
    <g>
      <path class="cls-1" d="M31.48,84.05l-.25-.33-.31.17s-.04,0-.05,0l.28-.28-.24-.37c-.05-.08-.12-.18-.18-.27-.05-.08-.11-.14-.19-.2-.19-.13-.43-.14-.64,0l-.23.41.1.35.09.16c-.05.05-.16.15-.37.31l-1.99,1.46c.12-.52.25-1.08.38-1.7.03-.12.06-.25.08-.39l.1-.48c.1-.51.2-.98.28-1.41l.13-.71c.06-.32.09-.52.1-.63.01-.16.01-.35-.09-.5-.13-.2-.4-.33-.72-.18-.06.03-.23.13-.49.31l-3.86,2.66c-.09.06-.15.1-.2.13-.07-.09-.15-.16-.27-.21l-.52.06-.18.66c.02.06.06.11.1.18.05.07.1.14.15.2l.72,1.04c.05.07.09.12.13.16.19.19.47.22.72.05l.19-.25-.12-.59s-.02-.04-.05-.08c.04-.04.12-.1.23-.18l2.22-1.61-.22.97.49.1h-.51s-.05.2-.05.2c-.02.08-.03.15-.04.21l-.53,2.42c-.16.72-.25,1.12-.28,1.27l-.02.11c-.02.07-.04.15-.04.22l.1.4c.09.12.25.23.46.23.07,0,.16-.01.24-.05.09-.04.2-.1.37-.21l3.78-2.61c.23-.16.38-.25.47-.3l.33.26.46-.07c.2-.13.29-.37.22-.61l-.11-.23c-.05-.08-.11-.16-.17-.23Z"/>
      <path class="cls-1" d="M22.3,80.91l.04-.02c.1-.06.23-.12.4-.2l2.17-.98h0c.6-.27,1.03-.55,1.31-.86.28-.3.48-.62.59-.93.06-.15.09-.31.11-.46.02-.14.02-.27.02-.42-.01-.28-.06-.54-.14-.77-.07-.21-.13-.37-.17-.47-.09-.21-.22-.42-.38-.65-.18-.25-.42-.47-.72-.66-.05-.03-.11-.07-.18-.1-.06-.03-.13-.07-.2-.1-.4-.18-.83-.24-1.26-.18-.39.05-.76.15-1.13.29l-.25.1c-.08.03-.17.07-.26.11l-1.88.85c-.17.08-.31.14-.44.18,0,0-.01,0-.02,0l-.2-.24-.53-.05c-.22.1-.35.31-.33.53l.07.28.1-.05.04.07s0,0,0,0l-.1.08c.02.05.05.1.05.1l.16.33.31-.1s.04.02.06.02l-.31.21.26.62.2.33c.17.15.39.19.62.1l.31-.42-.09-.43h.03c.1-.07.23-.14.4-.21l2.02-.91c.35-.16.67-.27.97-.35.25-.06.47-.07.67-.01.15.04.29.12.42.23.13.11.23.24.3.4.06.12.1.25.13.36.02.09.03.2.01.3l-.02.11s-.02.08-.04.13c-.06.16-.17.32-.33.49-.12.12-.38.32-.96.59l-2.12.96c-.17.08-.31.14-.42.18h-.01s0,0,0,0c0,0-.01,0-.02,0l-.02-.02s0,.02.01.02h0s-.09-.13-.09-.13h-.01s-.09-.1-.09-.1l-.53-.05c-.22.1-.35.31-.33.53l.07.28.15.31.15-.07s.04.05.07.07l-.15.14.44,1,.12-.04.03.09-.1.06.16.24c.11.1.25.15.38.15.07,0,.14-.02.21-.05l.33-.43-.1-.42ZM20.7,79.78h0s0-.01-.01-.02v.02ZM19.11,76.2s-.04-.04-.06-.07l.25-.12-.2.18Z"/>
      <path class="cls-1" d="M24.04,73.05l.13.27.53.2c.25-.06.42-.27.43-.5l-.05-.37c-.01-.06-.03-.12-.05-.19l-.08-.26-.23.07s-.04-.03-.06-.05l.25-.16-.14-.67c-.02-.07-.04-.16-.1-.25l-.57-.25-.41.36v.33s-.04,0-.04,0c-.06,0-.11.02-.13.03l-1.87.28.21-.17c.19-.15.29-.24.33-.27l1.6-1.35c.12-.1.21-.18.26-.23.06-.06.21-.21.21-.45l-.03-.17h0s-.06-.14-.06-.14l-.03.02-.13-.19c-.08-.05-.17-.08-.3-.11l-3.09-.64,2.29-.78.27.04.42-.48c0-.08,0-.16-.01-.32-.01-.08-.03-.18-.06-.3l-.15-.71.02-.02c.02-.08.03-.17.02-.32l-.07-.93v-.15s0-.24,0-.24c0-.06,0-.11,0-.16l-.06-.28c-.1-.2-.29-.34-.53-.31l-.45.3-.05.15s-.09-.02-.14-.04l-1.16-.33-.06-1.13,1.54-.68.21.09c.29-.01.5-.24.51-.59v-.26c0-.27-.02-.52-.03-.75l-.02-.42c0-.08-.02-.16-.04-.24l-.55-.39-.49.35-.05.42s-.02.04-.08.13c0,0-.09.1-.49.29l-.93.42c-.38.17-.77.35-1.18.53-.6.27-1.17.52-1.69.75-.53.23-.84.37-.91.41-.13.05-.21.1-.27.13-.2.12-.27.27-.29.38h.02s-.04.13-.04.13v.11s.15.12.15.12l-.08.04c.07.11.17.2.32.27.05.02.14.05.27.09l5.06,1.54h.01c.13.04.23.09.34.14v.23s.04.17.04.17c0,.04.01.1.02.17-.05.05-.11.08-.16.11l-4.91,1.78h0c-.12.04-.21.08-.28.14l-.22.58c.04.18.16.33.33.4l4.62.97-3.44,2.85c-.06.04-.12.08-.17.14l-.14.23c-.03.1-.04.22-.01.32l.42.41c.05.01.12.02.28.02l5.25-.67c.07,0,.14-.02.21-.02ZM23.88,72.05h0s0,0,0,0h0ZM23.87,71.54v.05s.31-.1.31-.1c0,0,0,.01,0,.02l-.28.16.02.09s-.04-.04-.07-.07h-.02s-.06-.1-.06-.1c.03-.03.07-.05.09-.05ZM23.28,66.54v-.02s.06.03.08.05l-.08-.04ZM19.3,62.87l.33-.13v.22s-.33-.09-.33-.09ZM22.98,60.77s.04.06.08.17l-.09-.17h.01ZM16.64,63.37h0s.27-.22.27-.22l.05.08s.03-.01.04-.02c-.09.1-.22.16-.36.16ZM17.52,68.62l-.05-.16.06.16s0,0,0,0Z"/>
      <path class="cls-1" d="M93.12,41.53s.02.03.03.05l.03.04-.09.08c.03.06.07.13.12.21l.58,1.12.1-.05.03.07-.08.07c.05.1.11.18.16.21l.64.08.23-.24c.04-.09.1-.27-.04-.56l-.04-.11s.01,0,.02-.01c.13-.09.32-.2.56-.33l.83-.44s0,0,0,0l.05.09c.33.62.8,1.04,1.41,1.24.62.21,1.25.15,1.87-.18.22-.11.4-.26.54-.44.12-.16.22-.31.28-.44.02-.05.04-.1.08-.21l.04-.19c.01-.08.03-.17.04-.29,0-.17-.02-.37-.08-.62-.06-.24-.16-.51-.33-.82l-.07-.13-.21.11s-.02-.04-.03-.07l.18-.17-.92-1.66c-.17-.15-.42-.18-.62-.08l-.3.45.12.41-.05.02c-.09.06-.22.13-.39.22l-2.31,1.22.23.44-.24-.44-.91.47c-.25.13-.44.22-.59.27-.01,0-.03,0-.04.01l-.33-.26-.39.04c-.21.11-.33.33-.3.56l.08.25.09-.05ZM99.02,40.88l-.03.11s-.03.09-.05.13c-.03.05-.06.1-.09.14-.07.1-.15.18-.23.24-.11.08-.2.13-.27.17-.2.11-.4.12-.62.05-.23-.08-.39-.22-.51-.46-.01-.02-.02-.04-.04-.06l1.71-.92c.03.06.07.15.11.25.02.06.03.16,0,.35Z"/>
      <path class="cls-1" d="M98.8,43.72c-.18.03-.35.08-.51.13h-.01c-.1.04-.2.08-.31.12s-.21.09-.31.15c-.65.35-1.18.9-1.57,1.61-.42.76-.45,1.67-.1,2.7.35,1.05,1,1.79,1.92,2.19.5.22,1.01.33,1.53.33.43,0,.86-.07,1.3-.22,1.02-.34,1.73-.96,2.1-1.83.36-.85.38-1.77.05-2.74-.31-.93-.83-1.59-1.53-1.97-.64-.34-1.28-.51-1.9-.51-.22,0-.44.01-.65.05ZM100.75,45.42c.44.22.74.58.91,1.08.16.47.11.95-.15,1.46-.26.5-.78.89-1.56,1.16-.62.21-1.12.27-1.47.16-.37-.11-.65-.26-.83-.45-.1-.1-.17-.21-.23-.32-.06-.11-.11-.21-.14-.3-.18-.54-.13-1.06.17-1.58.31-.54.83-.93,1.61-1.19.69-.23,1.26-.24,1.69-.02Z"/>
      <path class="cls-1" d="M104.61,60.01l-.48.23-.12.42h-.04c-.11,0-.26,0-.45,0l-3.65-.16c-.28-.01-.49-.03-.65-.06-.02,0-.04,0-.05,0l-.12-.33.28-.22.03-.29s0-.09-.01-.17c0-.04,0-.1,0-.17.05-.04.12-.07.18-.09l5.07-1.23h0c.12-.03.22-.06.3-.12l.27-.57c-.03-.17-.13-.33-.28-.42l-4.48-1.47,3.74-2.45.19-.14c.07-.06.12-.13.14-.19l.05-.32-.38-.45c-.05-.02-.12-.03-.27-.05l-5.29.09c-.08,0-.15,0-.22,0l-.09-.3-.52-.24c-.25.04-.43.23-.46.45v.25s.1-.01.1-.01l.02.09-.11.04c0,.06.02.12.03.18l.05.28h.27s.04.04.06.06l-.31.09.03.34.15-.02s0,.08,0,.11l-.13.06h.13s0,.06,0,.08c0,.02,0,.04,0,.06l-.11.04c.01.1.04.19.07.26.1.21.33.34.55.31l.43-.31.04-.33,2.05-.09c-.08.05-.15.09-.22.14-.2.13-.31.2-.38.24l-1.71,1.16c-.13.09-.23.16-.29.2-.07.05-.24.19-.26.49v.06s0,0,0,0l.06.21h.02s.13.19.13.19c.07.05.15.09.27.13.06.02.17.06.32.11l2.68.87-2.37.53-.26-.07-.46.43c-.02.07-.02.16-.02.31,0,.08.01.18.03.3l.11,1.06c.01.1.04.19.08.27l.14.08-.33.2c-.05.11-.06.21-.07.33v.11c0,.07,0,.14,0,.22v.12s0,.2,0,.2l-.07.94h.11s0,.04,0,.05l-.11.06c0,.1,0,.19.03.27l.47.38.35-.09c.08-.05.23-.18.25-.45l-.49-.11.37-.02s.02.04.02.07v-.07s.12,0,.12,0v-.03s.02,0,.02,0c.16-.01.37-.01.65,0l.94.04s0,.06,0,.11c-.03.7.17,1.3.59,1.79.43.49,1,.75,1.71.79.03,0,.05,0,.08,0,.22,0,.42-.04.61-.11.19-.07.35-.16.48-.25.04-.03.08-.06.12-.09l.17-.18c.05-.06.11-.13.18-.23.1-.15.18-.34.25-.57.07-.23.12-.52.13-.87l.02-.61v-.23s.04-.66.04-.66c0-.03,0-.07.01-.15v-.26s-.03-.29-.03-.29c-.08-.21-.27-.35-.49-.36ZM103.8,62.58c-.01.07-.05.15-.17.31-.02.02-.05.05-.08.08-.04.03-.07.06-.11.08-.05.03-.09.05-.15.08-.11.05-.22.08-.31.09-.13.01-.24.02-.32,0-.23,0-.41-.09-.56-.27-.16-.18-.22-.39-.21-.66,0-.02,0-.04,0-.06l1.94.08c0,.07-.02.15-.03.25ZM97.72,51.98l.06-.03h.02s-.08.03-.08.03ZM98.42,58.41s-.04-.04-.06-.06l.07.04h-.01Z"/>
      <path class="cls-1" d="M104.28,65.61l-.51.18c-.07.08-.11.18-.13.3h-.05c-.11,0-.26-.03-.45-.06l-2.59-.39c-.38-.06-.72-.11-1.01-.16-.27-.04-.49-.08-.63-.13-.02,0-.04-.01-.06-.02l-.09-.39-.36-.21c-.22-.04-.43.07-.55.28l-.32,1.85.12.02-.02.09s0,.02,0,.02l-.11.02c-.02.11-.02.2,0,.29l.48.43.33-.07c.08-.05.23-.17.28-.46l.03-.11s.01,0,.02,0c.16,0,.38.03.65.07l3.61.54c.19.03.33.05.42.07h.06s0,.01,0,.01c0,0,.02,0,.02,0l.04.31.42.32s.06,0,.09,0c.2,0,.38-.11.48-.28l.25-1.46c.02-.07.03-.15.04-.22l.02-.16c.01-.1.01-.19,0-.27l-.44-.42ZM104.12,66.23h-.25s-.13-.07-.13-.07c0,0,0,0,0,0h0s-.02,0-.02,0l.4.09ZM98.16,66.13h0s0,0,0,0h0Z"/>
      <path class="cls-1" d="M103.15,69.58l-.19.38h-.03c-.11-.03-.26-.06-.44-.11l-3.53-.92c-.27-.07-.48-.14-.62-.19-.02,0-.03-.01-.04-.02l-.05-.39-.32-.26c-.23-.07-.47.02-.59.2l-.12.26-.17.76c-.03.11-.06.22-.09.33l-.29.99c-.06.21-.13.46-.2.74-.07.27-.09.42-.08.54.01.12.07.35.32.51l.08.04h0s.16.09.16.09c.06.03.13.06.22.1l.26.1c.11.04.19.07.22.08.08.02.15.03.24.03h0l.49-.39-.15-.56c-.06-.05-.13-.1-.2-.13l-.13.18v-.09s-.02,0-.02,0l.06-.12-.09-.07-.05-.12c.02-.15.05-.32.1-.5.08-.3.13-.45.18-.54.05,0,.12,0,.22.03.27.04.68.14,1.23.29l2.55.66c.18.05.33.09.45.13h0s0,0,0,0v.08s-.01.3-.01.3l.39.38c.23.06.46-.03.6-.22l.44-1.54s.02-.07.05-.15l.07-.26c.02-.07.04-.17.03-.26l-.42-.49c-.18-.04-.38,0-.51.14ZM103.46,70.04s0,.02-.01.03h-.35s-.01-.08-.02-.12l.38.1ZM98.27,68.84h0s0,.01,0,.02v-.02Z"/>
      <path class="cls-1" d="M101.71,74.65c-.09.07-.15.16-.2.28l-.04-.02c-.11-.03-.25-.08-.43-.15l-3.41-1.29c-.26-.1-.46-.19-.59-.26-.02,0-.03-.02-.05-.03l-.02-.42-.29-.27c-.21-.08-.45-.02-.61.15l-.14.24-.23.66.35.11s.02.03.03.04h-.43s-.28.69-.28.69l.11.04-.05.11h-.11c-.04.09-.06.18-.06.27l.34.51h.37c.09-.01.26-.1.38-.38l.05-.11s.01,0,.02,0c.15.04.36.1.62.2l3.41,1.29c.17.07.31.12.44.18,0,0,0,0,.01,0,0,0,0,.01,0,.02l-.02.29.34.41c.07.02.13.04.2.04.15,0,.3-.06.42-.19l.13-.23.24-.71-.45-.2s0,0,0,0l.49.1.1-.22-.19-.08s.03-.03.05-.05l.17.04c.03-.07.06-.13.09-.21l.06-.15c.04-.1.05-.18.05-.27l-.36-.52-.52.08Z"/>
      <path class="cls-1" d="M100.54,77.95l-.29.33-.04-.02c-.1-.04-.24-.11-.4-.2l-2.09-1.12-.24.44.23-.45c-.58-.31-1.06-.48-1.47-.52-.41-.04-.78,0-1.09.1-.15.04-.3.11-.44.19-.12.07-.23.15-.34.24-.21.18-.39.38-.53.58-.13.19-.21.33-.26.42-.11.2-.2.43-.29.7-.09.29-.12.62-.09.97,0,.06.01.13.02.2.01.07.03.14.04.22.1.42.31.79.62,1.11.27.27.58.51.92.72l.23.14c.08.05.16.09.25.14l1.82.97c.17.09.29.16.41.23h.01s.01.01.02.02l-.03.06h.01s-.06.24-.06.24l.28.44c.08.04.17.07.26.07.13,0,.26-.05.38-.15l.21-.31c.03-.05.06-.11.09-.19l.15-.31-.31-.17s0-.02-.01-.04l.38.11.45-.9c.03-.23-.09-.45-.28-.55l-.57.02-.24.31-.05-.02c-.1-.04-.24-.11-.4-.2l-1.95-1.04c-.34-.18-.63-.37-.87-.56-.2-.16-.34-.33-.42-.52-.06-.14-.08-.29-.07-.47,0-.17.05-.33.13-.48.06-.12.13-.23.21-.32.06-.08.14-.14.24-.2.03-.02.06-.03.08-.05.04-.02.08-.03.13-.05.16-.05.36-.06.59-.04.17.02.49.11,1.05.41l2.05,1.1c.16.08.28.15.41.24h0s.01,0,.02.01l-.03.06h.01s-.05.24-.05.24l.28.44c.2.11.45.09.64-.08l.15-.21.35-.71-.44-.24.49.15.2-.35-.15-.08s.03-.03.04-.05l.04-.05.15.02.2-.47c.03-.23-.08-.45-.28-.55h-.54ZM100.33,80.27h0s.03-.06.03-.06c0,.02-.02.04-.03.06Z"/>
      <polygon class="cls-1" points="94.88 87.94 94.88 87.94 94.88 87.94 94.88 87.94"/>
      <path class="cls-1" d="M96.1,84.17c-.05-.04-.1-.07-.15-.11-.06-.04-.13-.08-.19-.11-.25-.13-.56-.2-.9-.22-.33-.02-.72.04-1.19.16l-.46.11c-.21.05-.4.09-.55.11-.13.02-.24.04-.32.03-.08,0-.15-.02-.21-.05-.06-.03-.13-.06-.24-.14l-.02-.02c-.09-.08-.15-.2-.18-.36,0-.05-.04-.19.15-.45.11-.15.24-.26.41-.33.07-.03.17-.06.41.06l.09.06c.06.04.14.1.22.11l.59-.21c.13-.18.14-.43.02-.61l-.23-.24s-.1-.09-.14-.12l-.21-.17c-.08-.07-.18-.14-.27-.21-.12-.09-.2-.14-.26-.16-.11-.05-.29-.09-.51,0l-.05.03h-.04c-.2.12-.38.26-.53.41-.16.15-.3.31-.42.48-.15.21-.28.43-.38.66-.11.25-.16.52-.17.79,0,.2.02.38.06.56.04.16.1.3.17.44.09.18.2.33.33.47.12.12.22.22.31.28.11.08.23.16.35.22.13.07.28.12.42.16.25.07.52.08.84.06.29-.02.63-.08,1.05-.2l.25-.08c.29-.07.52-.12.71-.15.17-.03.28-.02.32-.01.04,0,.08.02.12.04.03.01.06.03.09.06.15.11.17.2.18.27,0,.13-.03.25-.12.38-.12.17-.2.23-.24.26-.09.06-.14.08-.16.09l.09.33s-.01,0-.02-.02l-.18-.32-.18-.09c-.07-.04-.13-.06-.18-.07l-.58.21.02.67c.05.06.11.12.2.19l.28.21c.07.06.13.11.18.14l.12.11s.08.06.08.06l.5.09.34-.26s.05-.05.08-.07c.1-.08.2-.17.3-.28.09-.1.19-.22.3-.36.37-.51.54-1.03.49-1.55-.05-.54-.32-1-.77-1.33ZM94.42,87.34l.13-.31s.02.01.03.02l-.05.28s-.07,0-.1,0Z"/>
    </g>
  </g>
</svg>