<?xml version="1.0" encoding="UTF-8"?>
<svg id="Graphics" xmlns="http://www.w3.org/2000/svg" viewBox="0 0 120 120">
  <defs>
    <style>
      .cls-1 {
        fill: #000;
        stroke-width: 0px;
      }
    </style>
  </defs>
  <g id="Olive_-_OLIVUM_Bold" data-name="Olive - OLIVUM Bold">
    <g>
      <path class="cls-1" d="M106.05,47.16c.09-.84-.3-1.63-1.08-2.15-3.08-2.07-14.88-.83-27.83,5.59.04-.27.09-.53.12-.82.91-7.04,3.6-12.52,14.67-19.7l-1.63-2.52c-1.75,1.13-3.28,2.23-4.67,3.32.14-.95.46-2.14,1.18-3.54.94-1.82,2.85-3.74,4.52-5.44,2.43-2.46,4.19-4.23,3.9-6.14-.09-.59-.43-1.43-1.53-2.01-2.2-1.17-6.55.42-10.13,3.68-2.75,2.51-8.62,9.41-4.56,19.93-2.98,3.91-4.16,7.77-4.72,12.04-.69,5.31-2.29,6.13-6.58,8.31-.47.24-.97.49-1.5.77,1.07-3.22,2.25-6.44,3.41-9.59,4.73-12.9,8.47-23.09,2.34-25.42-.88-.34-1.84-.24-2.69.28-5.82,3.56-9.53,33.28-10.37,40.61-.07.08-.13.17-.2.25.77-14.22-4.15-35.46-9.43-37.48-.55-.21-2.46-.7-3.88,1.78-2.72,4.74.29,13.47,3.48,22.71,2.61,7.58,5.31,15.41,4.37,20.01l-.27,1.3c-.7.98-1.43,1.91-2.2,2.77.79-12.22-6.72-24.8-10.03-26.09-1.06-.41-2.13-.06-2.66.87-1.1,1.92.06,6.6,3.17,17.59,1.3,4.6,2.64,9.34,3.16,12.4-2.85,1.76-6.08,3.87-8.64,7.19-3.48-8.07-12.69-29.07-15.11-31.43-.59-.57-1.39-.73-2.09-.39-1.95.92-1.94,6.06-1.58,10.2.95,11.08,5.55,23.87,15.57,27.63-.93,2.7-1.47,5.92-1.43,9.84l-17.18.13.02,3,38.2-.29-.02-3-18.02.14c-.08-7.68,2.2-12.28,5.3-15.5,7.71,8.6,17.36,11.65,25.64,11.65,2.65,0,5.16-.31,7.42-.85,2.42-.58,5.4-1.61,5.82-3.22.17-.63-.02-1.27-.5-1.71-1.55-1.43-21.32-6.54-33.69-9.63.86-.56,1.72-1.1,2.58-1.62.87-.53,1.7-1.05,2.5-1.58,5.2,3.4,10.52,4.56,15.18,4.56,6.36,0,11.51-2.15,13.47-3.68,1.06-.82,1.44-1.68,1.11-2.55-.11-.29-.55-1.21-2.02-1.13-2.6.15-15.48-1.21-22.64-2.02,1.28-1.62,2.42-3.37,3.54-5.08.75-1.15,1.49-2.27,2.25-3.33l2.58-3.17c.95-.99,1.98-1.85,3.13-2.5,1.21-.68,2.32-1.25,3.3-1.74.63-.32,1.23-.62,1.79-.93,8.35,7.19,15.59,9.5,21.13,9.5,4.75,0,8.25-1.69,10.12-3.44,1.88-1.75,2.42-3.76,1.39-5.11-1.18-1.54-4.02-1.72-9.81-1.95-2.83-.11-6.14-.25-9.3-.68,6.76-.92,13.59-3.88,17.72-6.51,3.34-2.12,3.87-3.3,3.95-4.1ZM85.2,20c2.74-2.65,5.62-3.66,6.73-3.66.09,0,.18,0,.24.02-.36.77-1.92,2.35-2.99,3.42-1.83,1.85-3.9,3.94-5.06,6.17-1.62,3.12-1.68,5.69-1.57,6.95l-1.37,1.54c-1.97-7.2,1.56-12.07,4.01-14.45ZM23.23,79.49c-3.06-7.26-3.59-15.21-3.35-19.06,2.78,5.04,8.69,18.05,13.84,30.05l-.17.37c-4.36-1.65-7.83-5.46-10.32-11.35ZM64.7,45.71c3.43-18.61,6.1-19.41,6.18-19.44,3.36,1.28-.6,12.07-4.09,21.59-1.45,3.95-2.95,8.03-4.23,12.09l-.11.14c.5-3.74,1.27-9.05,2.25-14.37ZM51.71,50.65c-2.83-8.2-5.75-16.68-3.71-20.24.13-.23.24-.36.31-.43,2.63,1.24,8.29,19.82,7.47,34.11-.87-4.17-2.48-8.85-4.07-13.44ZM40.68,53.31c2.84,3.3,8.79,14.75,6.72,25.12l-.29.21c-.64-3.09-1.78-7.14-2.98-11.38-1.28-4.55-3.11-11.01-3.45-13.94ZM63.87,96.61c-5.7-.2-13.86-2.04-21.12-9.45l.23-.14c12.24,3.06,25.53,6.59,30.73,8.29-2.06.71-5.58,1.45-9.84,1.3ZM51.79,79.12l.19-.16c2.9.33,14.52,1.65,21.11,2.11-4.43,1.71-12.81,3.1-21.29-1.96ZM102.58,47.23c-2.97,2.69-16.38,9.6-26.14,7.45l.22-.47c12.31-6.54,22.87-7.66,25.92-6.98ZM100.96,62.14c-.22.58-1.29,1.86-3.5,2.8-3.11,1.32-11.49,3.17-23.8-7.03l.38-.29c5.02,3.25,13.01,3.57,19.51,3.83,2.74.11,6.44.26,7.41.7Z"/>
      <path class="cls-1" d="M32.79,77.02c0,2.9,2.31,5.27,5.16,5.27s5.16-2.36,5.16-5.27-2.31-5.27-5.16-5.27-5.16,2.36-5.16,5.27ZM37.95,74.75c1.19,0,2.16,1.02,2.16,2.27s-.97,2.27-2.16,2.27-2.16-1.02-2.16-2.27.97-2.27,2.16-2.27Z"/>
      <path class="cls-1" d="M30.1,96.78c0-2.96-2.41-5.38-5.38-5.38s-5.38,2.41-5.38,5.38,2.41,5.38,5.38,5.38,5.38-2.41,5.38-5.38ZM22.34,96.78c0-1.31,1.07-2.38,2.38-2.38s2.38,1.07,2.38,2.38-1.07,2.38-2.38,2.38-2.38-1.07-2.38-2.38Z"/>
      <path class="cls-1" d="M36.1,95.95c0,2.48,2,4.5,4.45,4.5s4.45-2.02,4.45-4.5-2-4.5-4.45-4.5-4.45,2.02-4.45,4.5ZM42,95.95c0,.83-.65,1.5-1.45,1.5s-1.45-.67-1.45-1.5.65-1.5,1.45-1.5,1.45.67,1.45,1.5Z"/>
      <path class="cls-1" d="M32.56,70.64c2.65,0,4.81-2.23,4.81-4.98s-2.16-4.98-4.81-4.98-4.81,2.23-4.81,4.98,2.16,4.98,4.81,4.98ZM32.56,63.69c1,0,1.81.89,1.81,1.98s-.81,1.98-1.81,1.98-1.81-.89-1.81-1.98.81-1.98,1.81-1.98Z"/>
      <path class="cls-1" d="M81.54,83.03c-2.81,0-5.1,2.31-5.1,5.16s2.29,5.16,5.1,5.16,5.1-2.31,5.1-5.16-2.29-5.16-5.1-5.16ZM81.54,90.35c-1.16,0-2.1-.97-2.1-2.16s.94-2.16,2.1-2.16,2.1.97,2.1,2.16-.94,2.16-2.1,2.16Z"/>
      <path class="cls-1" d="M84.25,71.82c0-2.53-1.95-4.59-4.34-4.59s-4.34,2.06-4.34,4.59,1.95,4.59,4.34,4.59,4.34-2.06,4.34-4.59ZM79.91,73.41c-.74,0-1.34-.71-1.34-1.59s.6-1.59,1.34-1.59,1.34.71,1.34,1.59-.6,1.59-1.34,1.59Z"/>
      <path class="cls-1" d="M61.47,70.39c0,3.43,2.75,6.23,6.13,6.23s6.13-2.79,6.13-6.23-2.75-6.23-6.13-6.23-6.13,2.79-6.13,6.23ZM70.73,70.39c0,1.78-1.41,3.23-3.13,3.23s-3.13-1.45-3.13-3.23,1.41-3.23,3.13-3.23,3.13,1.45,3.13,3.23Z"/>
      <path class="cls-1" d="M58.76,32.63c2.75,0,4.99-2.22,4.99-4.94s-2.24-4.94-4.99-4.94-4.99,2.22-4.99,4.94,2.24,4.94,4.99,4.94ZM58.76,25.75c1.1,0,1.99.87,1.99,1.94s-.89,1.94-1.99,1.94-1.99-.87-1.99-1.94.89-1.94,1.99-1.94Z"/>
      <path class="cls-1" d="M84.42,39.27c0,2.96,2.39,5.38,5.32,5.38s5.32-2.41,5.32-5.38-2.39-5.38-5.32-5.38-5.32,2.41-5.32,5.38ZM92.07,39.27c0,1.31-1.04,2.38-2.32,2.38s-2.32-1.07-2.32-2.38,1.04-2.38,2.32-2.38,2.32,1.07,2.32,2.38Z"/>
    </g>
  </g>
</svg>