<?xml version="1.0" encoding="UTF-8"?>
<svg id="Graphics" xmlns="http://www.w3.org/2000/svg" viewBox="0 0 120 120">
  <defs>
    <style>
      .cls-1 {
        fill: #000;
        stroke-width: 0px;
      }
    </style>
  </defs>
  <g id="Pantheon_Bold" data-name="Pantheon Bold">
    <g>
      <polygon class="cls-1" points="42.56 48.68 58.54 40.04 73.19 48.66 74.71 46.07 59.34 37.03 57.86 37 41.13 46.05 42.56 48.68"/>
      <path class="cls-1" d="M68.52,25.03h1.75c.83-1.52,2.07-2.76,3.59-3.59v-1.75c-1.52-.83-2.76-2.07-3.59-3.59h-1.75c-.83,1.52-2.07,2.76-3.59,3.59v1.75c1.52.83,2.76,2.07,3.59,3.59ZM69.4,18.42c.61.81,1.33,1.53,2.15,2.15-.81.61-1.53,1.33-2.15,2.15-.61-.81-1.33-1.53-2.15-2.15.81-.61,1.53-1.33,2.15-2.15Z"/>
      <path class="cls-1" d="M20.29,72.88h1.75c.91-1.66,2.26-3.01,3.92-3.92v-1.75c-1.66-.91-3.01-2.26-3.92-3.92h-1.75c-.91,1.66-2.26,3.02-3.92,3.92v1.75c1.66.91,3.01,2.26,3.92,3.92ZM21.17,65.61c.7.94,1.53,1.77,2.47,2.47-.94.7-1.77,1.53-2.47,2.47-.7-.94-1.53-1.77-2.47-2.47.94-.7,1.77-1.53,2.47-2.47Z"/>
      <path class="cls-1" d="M93.16,67.2v1.75c1.45.79,2.64,1.98,3.43,3.43h1.75c.79-1.45,1.98-2.64,3.43-3.43v-1.75c-1.45-.79-2.64-1.98-3.43-3.43h-1.75c-.79,1.45-1.98,2.64-3.43,3.43ZM99.47,68.08c-.75.58-1.43,1.25-2,2-.58-.75-1.25-1.43-2-2,.75-.57,1.43-1.25,2-2,.58.75,1.25,1.43,2,2Z"/>
      <path class="cls-1" d="M60,9.98c-27.58,0-50.02,22.44-50.02,50.02,0,14.35,6.08,27.3,15.8,36.43v.03h.03c8.95,8.4,20.98,13.56,34.19,13.56,27.58,0,50.02-22.44,50.02-50.02S87.58,9.98,60,9.98ZM60,12.98c25.93,0,47.02,21.09,47.02,47.02,0,8.74-2.4,16.92-6.57,23.94h-11v-20.94h1.83l1.5-1.46.13-5.1-.02-.02,1.44-2.74h1.62l.75-2.8-3.04-1.74v-9.57l-1.49-1.5-5.7-.03.12-3.85-1.51-1.55-20.03.11-5.58-3.19h-1.49s-5.75,3.32-5.75,3.32l-19.96-.12-1.51,1.53.07,3.79h-5.26l-1.5,1.5v9.54s-3.08,1.78-3.08,1.78l.75,2.8h2.19l2.04,3.14-.21,4.62,1.5,1.57h.96v20.94h-8.66c-4.17-7.02-6.57-15.2-6.57-23.94,0-25.93,21.09-47.02,47.02-47.02ZM27.06,41.06h10.94l-10.94,6.31v-6.31ZM33.78,35.76l13.29.08-3.86,2.22h-9.39l-.04-2.3ZM53.03,35.88h0s5.69-3.29,5.69-3.29l31.59,18.09H27.34l25.67-14.8h.02ZM28.82,60l.09-2.1h60.96l-.05,2.1H28.82ZM90.65,47.41l-11.29-6.46h3.57v.07s7.72.04,7.72.04v6.36ZM83.46,37.95h-9.34l-3.9-2.23,13.31-.07-.07,2.3ZM90.94,53.67l-.64,1.22H28.29l-.8-1.22h63.44ZM37.79,63v20.94h-6.58v-20.94h6.58ZM40.79,63h6.44v20.94h-6.44v-20.94ZM50.23,63h6.88v20.94h-6.88v-20.94ZM60.1,63h6.58v20.94h-6.58v-20.94ZM69.68,63h6.43v20.94h-6.43v-20.94ZM79.12,63h7.33v20.94h-7.33v-20.94ZM89.48,96.59c-8.07,6.52-18.33,10.43-29.48,10.43s-21.55-3.96-29.65-10.56l-3.34-3c-2.03-2-3.87-4.18-5.51-6.52h77c-1.68,2.39-3.57,4.62-5.65,6.65"/>
    </g>
  </g>
  <g id="Capitoline_Jupiter_Bold" data-name="Capitoline Jupiter Bold">
    <path class="cls-1" d="M38.42,33.96c5.76-4.11,12.99-6.96,20.6-6.96,9.75,0,16.36,3.18,21.26,7.05"/>
  </g>
</svg>