<?xml version="1.0" encoding="UTF-8"?>
<svg id="Graphics" xmlns="http://www.w3.org/2000/svg" viewBox="0 0 120 120">
  <defs>
    <style>
      .cls-1 {
        fill: #000;
        stroke-width: 0px;
      }
    </style>
  </defs>
  <g id="Pomegranate_-_MALUM_GRANATUM_Bold" data-name="Pomegranate - MALUM GRANATUM Bold">
    <g>
      <path class="cls-1" d="M102.55,75.16l-1.38-1.74c-.11,0-2.31-.14-5.39.55-.02-.27-.05-.57-.08-.88,4.32-5.58,5.88-12.72,4.25-19.67-1.63-6.96-6.31-12.68-12.84-15.7-6.87-3.18-14.99-3.09-21.71.23-.44.22-.87.45-1.29.69-.66-3.19-2.83-5.35-4.8-7.3-2.58-2.56-4.82-4.77-3.97-9.06l-.2-.13c.32-1.02.7-2.09,1.16-3.23.59.92,1.34,1.71,2.16,2.25-.18,1.33-.19,3.54,1.03,5.83,1.65,3.1,4.97,5.35,9.85,6.67,1.43.39,2.81.55,4.12.55,7.54,0,12.87-5.48,13.12-5.75l-.21-2.25c-.07-.05-7.04-5.06-11.88-8.75-3.14-2.39-6.63-3.28-9.82-2.51-2.08.5-3.82,1.67-5.03,3.35-.84-.77-1.59-2.06-1.52-3.38.68-1.35,1.44-2.76,2.32-4.28l-2.59-1.51c-2.76,4.73-4.49,8.68-5.57,12.1l-5.52,3.65c-2.84-.6-13.84-2.42-19.88,4.04-6.52,6.97-9.05,19.94-9.15,20.49l2.07,1.66c.82-.36,2.06-.78,3.51-1.28,1.84-.63,4.07-1.39,6.43-2.36-.63,2.59-.66,5.23-.63,6.48-.84.77-1.63,1.6-2.37,2.49-4.02,4.89-5.9,11.03-5.28,17.31.66,6.77,4.24,12.95,9.86,16.99l.35.23c-.52,1.25-1.71,3.21-3.93,2.84l-1.14,2.68c.12.09,2.45,1.79,5.31,1.8-.25,3,1.04,5.64,1.11,5.79l2.16.59c.11-.07,2.22-1.46,4.05-4.04,2.27,1.9,5.33,2.01,5.48,2.01l.76-2.82c-1.88-1.03-1.68-3.17-1.33-4.48,1.38-.07,2.9-.19,3.49-.24,2.04-.2,4.01-.64,5.88-1.31-.55,1.38-.89,2.94-.79,4.68.52,9.24,9.22,12.12,9.59,12.24l1.68-.56c3.26-4.59,4.81-9.22,4.67-13.81,4.08,4.17,8.31,8.96,8.35,9.01l2.14.11c1.91-1.75,3.86-5.29,3.89-9.24.03-3.53-1.48-6.84-4.37-9.58-3.2-3.04-9.12-3.33-12.67-3.19.2-.33.38-.67.56-1.01,2.14.78,4.45,1.08,6.69,1.08s4.22-.27,6.03-.64c-.17.34-.33.7-.47,1.08l.94,1.94c.14.05,2.88.92,6.32-.46.24,1.5.76,3.47,1.93,5.28l2.16.38c.11-.08,2.26-1.74,3.27-5.42,1.4.96,3.34,1.89,5.4,1.62l1.29-1.69c-.02-.13-.39-2.71-1.85-5.01,1.62-.96,3.8-2.72,4.25-5.39ZM70.13,30.78c-4.03-1.09-6.7-2.81-7.96-5.13-.6-1.1-.78-2.16-.79-3.01.55.27,1.12.54,1.67.82,5.72,2.85,11.18,5.57,17.68,5.69-2.6,1.47-6.35,2.77-10.59,1.63ZM65.39,17.87c2.3-.56,4.89.15,7.29,1.98,2.69,2.05,6.02,4.5,8.48,6.29-6.05-.03-11.29-2.63-16.78-5.38-.68-.34-1.37-.67-2.05-1.01.78-.93,1.83-1.59,3.06-1.89ZM57.21,33.48c2.18,2.15,4.05,4.05,4.1,7.08-3.04,2.43-5.29,5.55-6.48,9.05-.76-.33-1.54-.62-2.33-.87,1.86-4.91,1.61-8.69,1.34-12.66-.14-2.11-.28-4.26-.11-6.66.97,1.55,2.26,2.84,3.48,4.05ZM51.2,25.56c-.79,4.23-.57,7.58-.36,10.73.26,3.88.46,7.27-1.31,11.75-.54-.1-1.09-.18-1.65-.24,1.21-2.95,2.81-8.78-.69-13.61,2.02-3.37,2.19-5.8,1.95-7.27l2.06-1.36ZM42.76,35.27c-4.85,5.95-13.19,9.17-18.91,11.16,7.93-9.84,18.47-15.84,22.33-17.83-.16,1.37-.9,3.58-3.42,6.67ZM45.09,37.16c.08-.1.15-.2.23-.3,2.18,4.16.1,9.21-.67,10.81-.54.02-1.09.04-1.63.1-.57.06-1.14.14-1.7.23.28-1.57.67-4.1,1.14-8.1.94-.85,1.82-1.76,2.62-2.74ZM29.09,30.97c2.83-3.02,7.24-3.78,10.95-3.78.79,0,1.54.04,2.24.09-4.84,2.74-13,8.07-19.78,16.08,1.35-4.05,3.49-9.07,6.6-12.39ZM33.54,45.74c1.88-.92,3.77-1.98,5.57-3.21-.47,3.52-.81,5.36-.99,6.22-2.11.65-4.1,1.59-5.94,2.79.11-1.81.45-4.11,1.36-5.81ZM35.11,100.82c-.22-.98-.33-2.21,0-3.37.65-.35,1.24-.82,1.79-1.39.07.68.22,1.33.45,1.92-.71,1.19-1.54,2.15-2.25,2.83ZM40.6,97.69c-.8-1.07-.96-2.61-.46-4.6l-2.51-.63-1.46-.67c-.86,1.87-1.95,2.99-3.26,3.34-.2.05-.4.09-.6.1,1.12-1.02,1.88-2.38,2.32-3.55h.02c1.61-2.38,3.54-3.49,5.03-2.87,1.25.52,2.25,2.39,1.66,5.38h.01c-.34,1.16-.54,2.58-.32,3.96-.15-.14-.3-.3-.43-.47ZM44.54,94.2h0s0,0,0,0ZM47.36,92.07c-.57.05-1.75.14-2.88.21-.09-2.93-1.41-5.3-3.65-6.23-1.96-.81-4.81-.51-7.44,2.4l-.35-.23c-4.86-3.49-7.98-8.89-8.56-14.8-.54-5.48,1.1-10.85,4.61-15.11,3.56-4.33,8.61-7.01,14.22-7.55,11.51-1.12,21.78,7.26,22.89,18.65.54,5.48-1.1,10.84-4.61,15.11-.78.95-1.65,1.81-2.57,2.6-.36.25-.82.61-1.33,1.04-3,2.17-6.53,3.54-10.32,3.91ZM55.74,98.25c-.18-3.22,1.71-5.74,3.34-7.3.48,6.98,1.38,12.87,1.86,15.71-2.11-1.32-4.95-3.91-5.2-8.41ZM63.68,104.82c-.53-3.3-1.3-8.95-1.69-15.42,1.15.37,2.63,1.28,3.22,3.57.99,3.87.46,7.84-1.53,11.85ZM65.71,87.55c8.79,3.23,10.54,9.15,10.75,12.63-1.68-1.84-3.9-4.23-6.04-6.41-2.31-2.35-3.83-4.67-4.71-6.22ZM80.06,96.15c-.01,1.27-.29,2.46-.69,3.51-.32-3.71-2.03-9.26-8.68-13.09,2.32.28,4.58.92,5.94,2.2,2.3,2.18,3.46,4.67,3.43,7.38ZM67.82,79.64c1.24-3.32,1.72-6.9,1.37-10.53-.77-7.81-5.3-14.38-11.63-18.12,1.34-4.36,4.62-8.1,9.18-10.35,5.92-2.92,13.07-3,19.12-.2,5.68,2.63,9.76,7.61,11.18,13.66,1.22,5.2.39,10.52-2.24,15l-2.16-.67s-.51.49-1.11,1.15l-1.23-2.05-1.22-.72c-.17,0-4.1-.14-6.54,2.19-1.24,1.19-1.87,2.77-1.87,4.67h.09c.12.47.79,2.88,2.38,4.81-.07.05-.14.1-.21.15-2.28,1-9.44,2.97-15.09.99ZM89.53,72.09c-.22.33-.44.66-.64,1.01-1.7-.76-3.49-1.09-4.8-1.24.14-.25.3-.48.51-.68.96-.92,2.54-1.25,3.58-1.34l1.36,2.25ZM95.47,78.63l-.53,2.47c.83.82,1.37,1.93,1.72,2.88-1.36-.55-2.61-1.65-3.12-2.18l-2.59.9c-.17,2.03-.75,3.48-1.33,4.44-.76-2.1-.71-4.04-.71-4.06l-2.33-1.31c-1.52,1.01-2.94,1.33-4,1.4.58-.84,1.26-1.46,1.88-1.93.07-.04.15-.07.22-.11l-.02-.04c.84-.6,1.51-.88,1.53-.88l.29-2.67c-.91-.59-1.6-1.63-2.08-2.62,1.32.2,2.99.61,4.32,1.49l2.23-.71c.37-.96,1.04-1.97,1.72-2.83.19,1.71.22,3.04.22,3.06l1.95,1.4c1.44-.45,2.74-.68,3.77-.8-.99,1.09-2.45,1.83-3.14,2.09Z"/>
      <path class="cls-1" d="M38.78,61.58s0,0,0,.01c.2,2,1.89,3.5,3.87,3.5.12,0,.25,0,.38-.02,1.04-.1,1.98-.6,2.64-1.4.66-.8.96-1.8.86-2.83-.05-.46-.18-.89-.38-1.29.38-.23.73-.51,1.02-.86.66-.8.96-1.8.86-2.83-.21-2.12-2.11-3.67-4.25-3.48-1.04.1-1.98.6-2.64,1.4-.13.15-.23.32-.33.49-.62-.3-1.32-.45-2.05-.38-1.04.1-1.98.6-2.64,1.4-.66.8-.96,1.8-.86,2.82.18,1.87,1.69,3.29,3.51,3.46ZM43.35,61.76c-.15.18-.37.3-.61.32-.49.05-.93-.3-.97-.78-.02-.23.05-.45.19-.63.15-.18.37-.3.61-.32.03,0,.06,0,.09,0,.45,0,.84.34.89.79.02.23-.05.45-.19.63ZM43.46,55.7c.15-.18.37-.3.61-.32.48-.06.93.3.98.78.02.23-.05.45-.19.63-.15.18-.37.3-.61.32-.5.05-.93-.3-.98-.78-.02-.23.05-.45.19-.63ZM38.26,57.83c-.02-.23.05-.45.19-.63.15-.18.37-.3.61-.32.03,0,.06,0,.09,0,.46,0,.84.34.89.79.02.23-.05.45-.2.63-.15.18-.37.29-.6.32-.5.05-.93-.3-.98-.78h0Z"/>
      <path class="cls-1" d="M47.57,64.6h0c.2,2,1.9,3.5,3.87,3.5.12,0,.25,0,.38-.02,1.04-.1,1.98-.6,2.64-1.4.35-.43.6-.92.74-1.44.58.33,1.24.53,1.94.53.12,0,.25,0,.38-.02,1.04-.1,1.98-.6,2.64-1.4.66-.8.96-1.8.86-2.83-.21-2.12-2.12-3.69-4.25-3.48-.06,0-.12.03-.19.04,0-.05,0-.09,0-.14-.21-2.12-2.09-3.68-4.25-3.48-1.04.1-1.98.6-2.64,1.4-.66.8-.96,1.8-.86,2.83.08.8.4,1.51.88,2.08-.48.24-.92.57-1.27.99-.66.8-.97,1.81-.87,2.84ZM52.14,64.77c-.15.18-.37.3-.61.32-.5.05-.93-.3-.98-.78-.02-.23.05-.45.2-.63.15-.18.37-.29.6-.32.5-.06.93.3.98.78.02.23-.05.45-.19.63ZM57.05,61.02s.06,0,.09,0c.45,0,.84.34.89.79.02.23-.05.45-.19.63-.15.18-.37.3-.61.32-.48.04-.93-.3-.97-.78-.02-.23.05-.45.19-.63.15-.18.37-.3.61-.32ZM51.82,58.39c-.02-.23.05-.45.19-.63.15-.18.37-.3.61-.32.03,0,.06,0,.09,0,.45,0,.84.34.89.79.02.23-.05.45-.19.63-.15.18-.37.3-.61.32-.47.05-.93-.3-.97-.78h0Z"/>
      <path class="cls-1" d="M57.11,84.8c1.04-.1,1.98-.6,2.64-1.4.66-.8.96-1.8.86-2.83-.03-.3-.1-.58-.19-.85.62-.24,1.19-.62,1.62-1.15.66-.8.96-1.8.86-2.83-.08-.81-.41-1.53-.89-2.11.42-.23.8-.54,1.12-.92.66-.8.97-1.81.87-2.84-.21-2.12-2.11-3.67-4.25-3.48-1.04.1-1.98.6-2.64,1.4-.28.34-.49.73-.64,1.14-.45-.13-.93-.18-1.42-.13-1.04.1-1.98.6-2.64,1.4-.13.16-.23.33-.33.5-.75-.56-1.7-.86-2.71-.77-1.03.1-1.96.59-2.62,1.39-.66.8-.97,1.81-.87,2.84h0c.08.86.45,1.61.99,2.2-.6.24-1.14.61-1.57,1.12-.66.8-.96,1.8-.86,2.83.09.94.52,1.76,1.15,2.38-.58.39-1.06.92-1.37,1.59-.43.94-.47,1.99-.11,2.96.36.97,1.09,1.75,2.04,2.17.52.23,1.06.34,1.6.34,1.43,0,2.8-.79,3.47-2.13.46.19.96.3,1.48.3.12,0,.25,0,.38-.02,1.04-.1,1.98-.6,2.64-1.4.41-.5.67-1.09.79-1.71.07,0,.14.02.21.02.12,0,.25,0,.38-.02ZM57.44,81.5c-.15.18-.37.3-.61.32-.48.04-.93-.3-.98-.78-.02-.23.05-.45.19-.63.15-.18.37-.3.61-.32.5-.05.93.3.98.78.02.23-.05.45-.19.63ZM52.16,77.9c-.02-.23.05-.45.19-.63.15-.18.37-.3.61-.32.03,0,.06,0,.09,0,.45,0,.84.34.89.79.02.23-.05.45-.19.63-.15.18-.37.3-.61.32-.49.05-.93-.3-.97-.78ZM59.12,77c-.46.05-.93-.3-.97-.78h0c-.02-.23.05-.45.19-.63.15-.18.37-.3.61-.32.03,0,.06,0,.09,0,.46,0,.84.34.89.79.02.23-.05.45-.19.63-.15.18-.37.3-.61.32ZM47.43,80.03c-.02-.23.05-.45.19-.63.15-.18.37-.3.61-.32.03,0,.06,0,.09,0,.45,0,.84.34.89.79.02.23-.05.45-.19.63-.15.18-.37.3-.61.32-.47.06-.93-.3-.97-.78h0ZM59.24,70.34c-.02-.23.05-.45.19-.63.15-.18.37-.3.61-.32.03,0,.06,0,.09,0,.46,0,.84.34.89.79.02.23-.05.45-.2.63-.15.18-.37.29-.6.32-.5.05-.93-.3-.98-.78h0ZM54.73,72.12c.15-.18.37-.3.61-.32.03,0,.06,0,.09,0,.45,0,.84.34.89.79.02.23-.05.45-.19.63-.15.18-.37.3-.61.32-.48.04-.93-.3-.97-.78-.02-.23.05-.45.19-.63ZM49.06,73.24c.15-.18.37-.29.61-.32.48-.04.93.3.97.78.02.23-.05.45-.19.63-.15.18-.37.3-.61.32-.5.05-.93-.3-.98-.78-.02-.23.05-.45.2-.63ZM48.58,86.25c-.2.44-.73.64-1.19.43-.22-.1-.38-.27-.46-.49-.08-.21-.07-.45.02-.65h0c.15-.33.47-.52.81-.52.12,0,.25.03.37.08.22.1.38.27.46.49.08.21.07.45-.02.65ZM53.42,84.61c-.15.18-.37.3-.61.32-.49.04-.93-.3-.98-.78-.02-.23.05-.45.19-.63.15-.18.37-.3.61-.32.47-.04.93.3.97.78.02.23-.05.45-.19.63Z"/>
      <path class="cls-1" d="M44.22,71.35c-.21-2.12-2.11-3.69-4.25-3.48-.37.04-.72.14-1.05.27-.45-1.54-1.81-2.64-3.42-2.77.43-.71.64-1.53.56-2.37-.21-2.12-2.12-3.69-4.25-3.48-1.04.1-1.98.6-2.64,1.4-.66.8-.96,1.8-.86,2.83h0c.04.37.14.72.27,1.05-.45.24-.85.56-1.18.97-.66.8-.96,1.8-.86,2.83.09.87.47,1.64,1.03,2.24-.05.06-.11.1-.16.16-.66.8-.96,1.8-.86,2.83h0c.13,1.37.98,2.49,2.13,3.07-.22.56-.32,1.15-.26,1.76h0c.2,2,1.9,3.5,3.87,3.5.12,0,.25,0,.38-.02.04,0,.07-.02.1-.02.51,1.58,2,2.69,3.7,2.69.12,0,.25,0,.38-.02,1.04-.1,1.98-.6,2.64-1.4.61-.74.9-1.67.86-2.62.73-.22,1.38-.64,1.88-1.24.66-.8.97-1.81.87-2.84-.06-.64-.3-1.22-.63-1.72.33-.21.64-.46.89-.78.66-.8.96-1.8.86-2.83ZM39.65,71.18c.15-.18.37-.3.61-.32.03,0,.06,0,.09,0,.45,0,.84.34.89.79.02.23-.05.45-.19.63-.15.18-.37.3-.61.32-.49.05-.93-.3-.97-.78-.02-.23.05-.45.19-.63ZM35.33,75.26c-.48.05-.93-.3-.97-.78-.02-.23.05-.45.19-.63.15-.18.37-.3.61-.32.03,0,.06,0,.09,0,.45,0,.84.34.89.79.02.23-.05.45-.19.63-.15.18-.37.3-.61.32ZM30.33,67.35s.06,0,.09,0c.45,0,.84.34.89.79.02.23-.05.45-.19.63-.15.18-.37.3-.61.32-.48.05-.93-.31-.98-.78-.02-.23.05-.45.19-.63.15-.18.37-.3.61-.32ZM29.72,72.9c.15-.18.37-.3.61-.32.47-.04.93.3.97.78.02.23-.05.45-.19.63-.15.18-.37.3-.61.32-.49.04-.93-.3-.98-.78-.02-.23.05-.45.19-.63ZM39.91,77.6c-.15.18-.37.29-.6.32-.5.04-.93-.3-.98-.78h0c-.02-.23.05-.45.19-.63.15-.18.37-.3.61-.32.03,0,.06,0,.09,0,.46,0,.84.34.89.79.02.23-.05.45-.2.63ZM36.08,69.13c.02.23-.05.45-.19.63-.15.18-.37.3-.61.32-.5.05-.93-.3-.98-.78-.02-.23.05-.45.19-.63.15-.18.37-.3.61-.32.03,0,.06,0,.09,0,.45,0,.84.34.89.79ZM31.49,62.83c.15-.18.37-.3.61-.32.48-.05.93.3.97.78.02.23-.05.45-.19.63-.15.18-.37.3-.61.32-.49.04-.93-.3-.97-.78-.02-.23.05-.45.19-.63ZM31.4,78.36c-.02-.23.05-.45.2-.63.15-.18.37-.29.6-.32.5-.04.93.3.98.78.02.23-.05.45-.19.63-.15.18-.37.3-.61.32-.5.04-.93-.3-.98-.78ZM37.16,81.47c-.15.18-.37.3-.61.32-.48.05-.93-.3-.97-.78-.02-.23.05-.45.19-.63.15-.18.37-.3.61-.32.03,0,.06,0,.09,0,.45,0,.84.34.89.79.02.23-.05.45-.19.63Z"/>
      <line class="cls-1" x1="44.54" y1="94.2" x2="44.54" y2="94.2"/>
      <path class="cls-1" d="M88.65,45.63c-4.82-4.77-12.25-6.16-18.49-3.47l1.19,2.75c5.05-2.18,11.3-1.01,15.19,2.84l2.11-2.13Z"/>
      <path class="cls-1" d="M91.28,53.86l2.87-.88c-.03-.11-.86-2.72-3.45-5.31l-2.12,2.12c2.03,2.03,2.7,4.06,2.7,4.07Z"/>
      <rect class="cls-1" x="88.27" y="77.46" width="4.65" height="3" transform="translate(-25.04 46.25) rotate(-25.28)"/>
    </g>
  </g>
</svg>