<?xml version="1.0" encoding="UTF-8"?>
<svg id="Graphics" xmlns="http://www.w3.org/2000/svg" viewBox="0 0 120 120">
  <defs>
    <style>
      .cls-1 {
        fill: #000;
        stroke-width: 0px;
      }
    </style>
  </defs>
  <g id="Roman_Eagle_Bold" data-name="Roman Eagle Bold">
    <g>
      <line class="cls-1" x1="37.26" y1="40.66" x2="37.59" y2="40.31"/>
      <path class="cls-1" d="M45.5,30.55c-1.06,0-1.93.87-1.93,1.93s.87,1.93,1.93,1.93,1.93-.87,1.93-1.93-.87-1.93-1.93-1.93ZM45.5,33.48c-.54,0-.98-.45-.98-1s.44-1,.98-1,.98.45.98,1-.44,1-.98,1Z"/>
      <rect class="cls-1" x="54.16" y="48.28" width="2.91" height="3.03"/>
      <rect class="cls-1" x="57.85" y="53.35" width="2.91" height="3.42"/>
      <rect class="cls-1" x="63.32" y="51.18" width="2.91" height="3.42"/>
      <rect class="cls-1" x="52.29" y="55.51" width="2.91" height="2.93"/>
      <rect class="cls-1" x="57.16" y="59.41" width="2.91" height="3.32"/>
      <rect class="cls-1" x="58.82" y="44.67" width="2.91" height="3.32"/>
      <rect class="cls-1" x="51.42" y="61.52" width="2.91" height="3.04"/>
      <rect class="cls-1" x="63.41" y="60.44" width="2.91" height="3.03"/>
      <path class="cls-1" d="M105.72,80.09c-1.38-1.5-3.29-2.54-5.22-2.96,1.91-3.17,3.42-6.54,4.46-10.05,1.11-3.74,1.7-7.63,1.73-11.48.01-.18.01-.37.01-.55,0-24.59-21.18-44.6-47.2-44.6-3.96,0-7.9.46-11.71,1.38,0,0,0,0,0,0,0,0,0,0,0,0-3.99.97-7.84,2.43-11.42,4.33-3.6,1.92-6.92,4.27-9.86,6.99-2.95,2.72-5.52,5.8-7.62,9.15-2.13,3.39-3.76,7-4.85,10.72-1.11,3.74-1.7,7.63-1.73,11.49-.01.18-.01.35-.01.54,0,3.78.5,7.52,1.48,11.1,1.01,3.75,2.55,7.35,4.56,10.73.01.02.02.05.04.07.05.09.11.18.16.27-1.78.48-3.5,1.49-4.77,2.87-2.75,2.99-4.16,7.89-3.6,12.48.51,4.22,2.66,7.78,6.05,10.01,4.16,2.74,8.97,2.31,9.17,2.29.57-.06,1.06-.44,1.24-.99.18-.55.03-1.15-.39-1.55-.02-.02-1.93-1.82-3.31-3.57l2.26-2.03c.37-.33.54-.82.47-1.31-.07-.49-.38-.91-.82-1.12-1.87-.88-5.01-2.99-5.48-4.88-.15-.58-.02-1.1.4-1.67.05-.06.22-.25.66-.2,1.33.16,3.59,2.34,5.95,7.98,3.82,9.12,10.06,14.23,17.1,14.23,1.06,0,2.14-.12,3.23-.35,5.32-1.15,9.6-4.93,11.8-9.93.42.01.97.03,1.7.05.28,0,.54.01.77.02,1.82,4.83,5.44,8.5,10.1,9.79,1.22.34,2.45.5,3.67.5,6.76,0,13.41-5.06,18.32-14.18,4.4-8.16,6.52-8.1,6.53-8.09,0,0,.04.03.07.08.3.49.38.97.23,1.52-.57,2.16-4.11,4.51-5.31,5.16-.42.23-.7.65-.76,1.12-.05.47.12.95.48,1.27l2.26,2.03c-1.38,1.76-3.29,3.55-3.31,3.57-.42.39-.57,1-.39,1.55.18.55.67.93,1.24.99.2.02,5.01.45,9.17-2.29,3.39-2.23,5.53-5.78,6.05-10.01.56-4.6-.85-9.49-3.6-12.48ZM70.89,97.56h0c-1,.16-2.03-.15-2.8-.51-.26-.12-.53-.26-.79-.42-1.63-.95-3.15-2.54-3.9-4.02l4.27,2.4,1.42-2.56-3.77-2.12c.13.02.26.03.38.05,3.17.5,5.89,2.07,7.11,3.55.07.12.17.25.27.37.16.25.28.49.34.72.02.07.03.14.04.2.07.65-.4,1.3-1.4,1.93-.37.23-.76.36-1.16.42,0,0,0,0,0,0ZM47.75,96.62c-.33-.21-.58-.4-.76-.56-.42-.39-.63-.78-.62-1.15.01-.54.41-1.19,1.11-1.86,1.62-1.53,4.34-2.65,6.9-2.96l-4.23,2.35,1.41,2.57,4.4-2.45c-1.01,1.74-3.12,3.67-5.28,4.3-.02,0-.05.01-.07.02-1.12.31-2.09.22-2.86-.26ZM61.09,89.19c-.02.11-.06.21-.15.3-.04.04-.1.08-.16.11-.08.04-.17.06-.26.06h-1.48c-.09,0-.15-.02-.18-.03-.03-.01-.07-.03-.1-.04,0,0,0,0,0,0-.08-.04-.14-.11-.19-.17-.02-.03-.04-.06-.05-.1-.02-.04-.03-.08-.03-.12-.01-.05-.02-.1-.02-.17.02-.14.1-.24.16-.3.08-.08.21-.17.42-.17h1.48c.31,0,.55.22.57.51,0,.02,0,.04,0,.07,0,.02,0,.04-.01.05ZM75.96,92.7c-.13-.07-.57-.38-.85-.58-1.91-2.41-5.67-4.13-8.96-4.65-.86-.14-1.74-.2-2.66-.18-.61-1-1.71-1.67-2.96-1.67h-1.48c-.93,0-1.8.36-2.46,1.01-.14.14-.26.29-.38.45-3.8-.11-8.19,1.44-10.72,3.83-.64.6-1.13,1.23-1.47,1.88-1.23.46-4.34.76-7.45-2.32-.99-.99-1.96-2.26-2.89-3.75l.09-4.79h3.61c.8,0,1.46-.66,1.46-1.47v-2.08c1,.81,2.02,1.54,3.11,2.25-.17.07-.33.14-.5.21-2.96,1.24-6.31,2.65-5.36,5.52.25.77.78,1.34,1.51,1.65.54.23,1.16.28,1.81.22-.32.82-.31,1.62.28,2.34.71.85,1.52,1.31,2.41,1.37.07,0,.14,0,.2,0,1.43,0,2.81-1,4.54-2.59.46-.42.9-.85,1.33-1.27.78-.75,1.92-1.87,2.46-2.1,2.06,1.21,4.33,1.05,5.59.37.5-.27.87-.63,1.12-1.05l2.04.15s.07,0,.1,0c1.97,0,3.78-.14,5.54-.43,0,.26.03.51.1.74.23.68,1.36,2.81,6.35,1.45,1.58-.43,2.15-.07,4.28,1.54l.43.32c1.76,1.33,2.99,1.91,4.06,1.91.18,0,.36-.02.54-.05.78-.15,1.42-.62,1.89-1.41.49-.8.36-1.62-.14-2.46,1.4-.02,2.56-.43,3.05-1.52.34-.75.37-1.45.1-2.09-.52-1.25-1.82-1.72-4.4-2.66-.83-.3-1.82-.67-2.95-1.11,1.06-.72,2.06-1.51,2.99-2.33h3.73l.22,4.49.76-.04.05.79,2.84-.24c-.97,1.04-1.84,2.19-2.58,3.46-1.1,1.9-2.27,3.47-3.45,4.66-3.56,3.53-6.24,2.6-6.96,2.24ZM27.34,74.75l3.47.88c.12.03.24.04.36.04.63,0,1.22-.42,1.4-1.06l.54-1.91c.84,1.07,1.77,2.11,2.83,3.13v3.17h-3.58s0,0,0,0h-.73v.21s-.04.02-.06.03c-.03.02-.07.05-.1.08-.04.03-.08.06-.11.09-.03.03-.06.06-.08.09-.03.04-.07.07-.09.11-.02.03-.04.07-.07.11-.03.04-.05.08-.07.13-.02.04-.03.08-.04.12-.02.05-.03.09-.05.14,0,.04-.01.08-.02.13,0,.04-.02.08-.02.13l-.14,2.21c-.57-.64-1.17-1.24-1.82-1.79-.79-.68-1.7-1.4-2.7-2.05l1.11-3.99ZM22.56,62.63l-.44.83-.56-.36-2.08,3.34-3.03-1.65c-.56-2.18-.93-4.42-1.11-6.69l1.33,1.26c.28.26.64.4.99.4s.71-.13.99-.39l2.59-2.42,2.56,2.41c.28.26.64.4.99.4s.71-.13.99-.4l1.65-1.55c.11,1.43.31,2.81.6,4.13l-1.69,2.75-3.79-2.06ZM19.67,36.82l.49,1.72c.22.76.99,1.21,1.75,1.02l3.5-.88.92,3.23c.04.15.11.28.19.4.01.02.03.04.04.06.08.11.17.21.28.29.02.02.04.03.06.04.11.08.24.15.37.19,0,0,0,0,.01,0,.13.04.27.06.41.07.01,0,.03,0,.04,0,0,0,.02,0,.03,0,.11,0,.22-.01.33-.04l1.77-.45c.03.17.07.33.11.48-.07.16-.14.32-.21.48-.1.23-.2.45-.29.68-.11.27-.21.54-.32.81-.09.23-.17.46-.25.69-.05.14-.1.29-.15.43l-3.15,1.71-2.16-3.54-.69.43-.33-.62-3.7,2-1.7-2.77c.68-2.2,1.56-4.35,2.64-6.43ZM28.95,24.91c1.77-1.59,3.67-3.04,5.7-4.33l-.43,1.53c-.11.39-.06.8.15,1.15.2.35.54.59.93.68l3.4.78-.87,3.05c-1.29.62-2.48,1.5-3.57,2.6,0,0,0,0,0,0h0c-.09.09-.18.17-.26.25v-1.88h-.81v-.73s-4.23-.04-4.23-.04v-3.08ZM49.05,14.55c2.33-.53,4.7-.86,7.1-1.03l-1.08,1.02c-.3.28-.46.67-.46,1.08s.17.8.47,1.07l2.44,2.26-2.45,2.31c-.29.28-.46.67-.46,1.07s.17.79.46,1.07l1.43,1.35c-1.43.12-2.84.33-4.23.63l-3.03-1.65,1.71-2.79h0s.37-.6.37-.6l-.16-.1c0-.15,0-.31-.04-.46-.07-.26-.21-.49-.4-.68l.04-.09-.4-.18-2.96-1.61,1.65-2.69ZM86.65,23.41c-.39,0-.76.15-1.03.43-.27.28-.43.65-.43,1.04v3.28s-3.59,0-3.59,0c-.8,0-1.46.66-1.46,1.47v2.1c-1.14-.9-2.33-1.73-3.58-2.46l-.88-3.11,4.12-1.04-.2-.82.75-.22-1.09-3.74,3.3-.83c2.01,1.16,3.92,2.47,5.7,3.91h-1.62ZM79.83,33.41v1.34-1.34ZM60.04,36.96c-1.66-1.09-2.71-2.5-3.83-3.99-1.11-1.48-2.32-3.09-4.2-4.4l1.6-.43v-.02c1.92-.37,3.89-.57,5.88-.57,6.04,0,11.88,1.74,16.77,4.96-2.96.97-5.8,2.75-7.65,4.3-2.02,1.68-4.46,2.86-8.58.14ZM77.09,17.85c-.38.1-.71.35-.91.69s-.25.76-.13,1.14l.91,3.12-3.43.87c-.38.1-.71.35-.91.69-.2.34-.25.75-.14,1.14l.55,1.94c-1.33-.58-2.7-1.08-4.1-1.48l-1.71-2.79,3.64-1.98-.39-.73.71-.45-2.1-3.34,2.9-1.58c2.29.63,4.51,1.43,6.63,2.39l-1.52.38ZM65.78,16.9l1.74,2.76-3.04,1.66c-.35.19-.61.52-.71.91-.1.39-.04.81.17,1.15l1.03,1.68c-1.42-.23-2.86-.37-4.31-.42l-2.45-2.31,2.95-2.78-.66-.71.57-.62-2.84-2.62,2.32-2.19c2.42.05,4.8.29,7.11.69l-1.33.72c-.36.19-.61.53-.72.92-.1.39-.04.81.18,1.16ZM53.89,34.74c1.22,1.63,2.48,3.31,4.56,4.68,4.42,2.92,8.24,2.81,12.03-.34,2.66-2.22,6.19-3.9,8.83-4.25,2.92,2.53,5.24,5.55,6.84,8.88l1.83,6.57c.04.13,0,.28-.09.45-.17.29-.58.65-1.23.81-1.01.25-1.81-.16-1.92-.56l-1.91-6.86h0s0-.02,0-.02l-2.8.79,1.94,6.95c.04.15,0,.31-.09.48-.22.37-.67.68-1.22.81-.95.24-1.8-.12-1.93-.59l-1.94-6.95-2.8.79.02.07-.1.03,1.94,6.95c.04.15,0,.31-.09.48-.22.37-.67.68-1.22.81-.93.23-1.8-.13-1.93-.59l-1.94-6.95-2.8.79,1.94,6.95c.48,1.72,2.17,2.81,4.12,2.81.43,0,.87-.05,1.31-.16,1.17-.29,2.16-.97,2.8-1.86.6.28,1.29.43,2.01.43.43,0,.87-.05,1.31-.16,1.16-.29,2.14-.95,2.78-1.83.58.25,1.23.39,1.92.39.43,0,.87-.05,1.32-.16.49-.12.94-.33,1.37-.57.02.41.04.82.04,1.23,0,2.82-.47,5.59-1.36,8.25l-.08-.04-1.88-6.77-2.8.79,1.94,6.95c.04.15,0,.31-.09.48-.22.37-.67.68-1.22.81-.95.24-1.8-.12-1.93-.59l-1.94-6.95-2.8.79.02.07-.09.03,1.94,6.95c.04.15,0,.31-.09.48-.22.37-.67.68-1.22.81-.69.17-1.34.02-1.68-.26l-.57-1.51-1.61-5.78-2.8.79,1.49,5.35-.05.02.2.54.29,1.05c.11.39.29.75.51,1.07l1.6,4.2-.74-.37c-.37-.18-.81-.2-1.19-.04-.38.16-.68.47-.82.87l-.84,2.38-2.6-1.6c-.65-.4-1.49-.23-1.94.39l-.85,1.17-1.64-8.12-2.85.59.85,4.23-2.63.09.05-3.85-2.91-.04-.09,7.4-.61-.64c-.49-.51-1.27-.6-1.86-.2l-3.39,2.28-.84-2.06c-.3-.73-1.13-1.09-1.87-.81l-2.04.79,2.22-11.73h-.03s.02-.08.02-.08l-2.77-.9-2.07,6.5c-.15.47-1.01.8-1.95.55-.54-.15-.98-.46-1.19-.84-.1-.18-.12-.34-.07-.51l1.8-6.26h-.03s0-.01,0-.01l-2.8-.82-1.79,6.23c-.14.47-1.01.81-1.98.54-.44-.13-.8-.41-1.01-.81-.21-.39-.25-.83-.12-1.25l1.7-5.51-2.78-.87-1.34,4.33c-.65-2-1.04-4.13-1.19-6.42.04,0,.08,0,.11,0,.7,0,1.36-.14,1.95-.4.62.85,1.55,1.5,2.66,1.81.48.13.97.2,1.43.2.68,0,1.33-.14,1.9-.39.62.87,1.56,1.54,2.69,1.85.48.13.96.2,1.43.2,1.9,0,3.55-1.04,4.07-2.7l2.13-6.9-2.78-.87-2.13,6.9c-.15.47-1.01.81-1.95.55-.54-.15-.98-.46-1.19-.84-.1-.18-.12-.34-.08-.48l2.13-6.9h-.03s0-.01,0-.01l-2.78-.87-2.13,6.9c-.15.47-1.01.81-1.95.55-.54-.15-.98-.46-1.19-.84-.1-.18-.12-.34-.08-.48l2.13-6.9-2.78-.87-.02.06h-.03s-2.14,6.9-2.14,6.9c-.11.37-.71.65-1.44.61,0-.2,0-.41.02-.61,0-.15.02-.31.03-.46.02-.31.05-.63.08-.94.02-.18.05-.36.07-.54.04-.28.07-.57.12-.85.03-.19.07-.38.1-.57.05-.27.1-.54.16-.81.04-.19.09-.38.13-.57.06-.26.13-.53.21-.79.05-.19.11-.38.16-.57.08-.26.17-.52.25-.78.06-.18.12-.37.19-.55.1-.27.2-.54.31-.8.07-.17.13-.34.2-.51.01-.03.03-.06.04-.1.1,0,.2-.04.29-.06.09-.02.18-.03.28-.05.13-.04.27-.11.41-.17.09-.04.17-.07.26-.12.16-.09.32-.21.48-.32.07-.05.15-.09.22-.16.24-.19.48-.41.74-.67.16-.16.35-.32.54-.48.04-.03.07-.06.11-.08.2-.15.41-.3.63-.45.05-.03.1-.06.15-.09.23-.15.47-.29.73-.43.03-.02.06-.03.09-.05.23-.13.48-.24.72-.36.04-.02.07-.03.11-.05.23.16.44.29.66.44.27.18.55.37.81.54.28.19.53.35.8.53.22.15.46.3.67.44.24.16.45.3.67.44.22.14.44.29.64.42.17.11.32.2.47.3.23.14.46.29.66.42.1.06.19.12.29.18.23.15.47.29.67.42.04.02.07.04.11.07.79.48,1.36.8,1.7.95,0,0,0,0,.01,0,.15.06.3.1.46.13.05,0,.09,0,.14.01.06,0,.13.02.19.02.03,0,.06-.01.09-.01.13,0,.25-.03.37-.06.06-.02.11-.02.17-.04.17-.06.33-.15.48-.26.63-.51.85-1.35.64-2.48-.36-1.99-2.04-5.17-4.65-6.03-.21-.07-.42-.12-.64-.17,0-.12,0-.23-.01-.34,0-.11,0-.23-.01-.34-.02-.25-.05-.49-.09-.73-.01-.08-.02-.16-.04-.24-.06-.32-.15-.64-.25-.94-.02-.05-.04-.09-.05-.14-.09-.26-.2-.51-.32-.75-.04-.09-.09-.17-.13-.25-.11-.2-.22-.39-.35-.58-.06-.08-.11-.17-.17-.25-.14-.18-.29-.36-.44-.53-.06-.07-.12-.13-.18-.2-.22-.22-.46-.43-.71-.62,0,0,0,0,0,0-.26-.2-.54-.36-.83-.52-.07-.04-.15-.08-.22-.11-.28-.14-.56-.26-.86-.36-.02,0-.04-.02-.05-.02.5-.26,1.02-.48,1.55-.64l.15-.04c1.44-.44,3.62-1.11,5.2-.78.47.1.91.21,1.33.32,3.69,1.04,5.17,3.02,6.89,5.32ZM93.05,38.72l.18-.72.66.19,1.12-3.9,3.39.86c1.14,1.96,2.1,4.01,2.89,6.14l-1.59-.87c-.68-.37-1.53-.14-1.94.53l-1.78,2.94-3.17-1.73c-.68-.37-1.53-.14-1.93.52l-1.18,1.93c-.25-.65-.52-1.29-.81-1.92l-.02-.07h-.01c-.29-.6-.6-1.2-.92-1.79l.9-3.18,4.21,1.06ZM99.32,73.26l-.48-1.7c-.22-.76-.99-1.21-1.76-1.02l-3.5.89-.92-3.24c-.22-.76-.99-1.21-1.75-1.02l-2.18.55c.58-1.19,1.07-2.41,1.48-3.66l3.18-1.73,2.16,3.54.69-.43.42.74,3.63-2.09,1.68,2.74c-.69,2.2-1.58,4.35-2.64,6.42ZM92.57,79.2c-.17-.05-.34-.08-.52-.06l-3.95.35-.18-3.67c-.04-.78-.68-1.4-1.45-1.4h-2.17c.88-1,1.68-2.05,2.41-3.16l3.55-.9,1.11,3.89.74-.21.19.75,4.14-1.06.86,3.04c-.07.11-.14.21-.21.32-1.66.35-3.18,1.17-4.51,2.11ZM77.39,86.01c.87.7,1.46,1.23,1.86,1.63-.33-.2-.76-.48-1.31-.9l-.43-.32c-2.19-1.65-3.77-2.84-6.78-2.02-1,.27-1.72.35-2.22.33.17-.1.38-.21.64-.31.16-.07.29-.11.4-.15.44-.16.73-.28,1.38-.73.16-.12.39-.31.58-.62l-.14-.09.25-.2c.1-.47-.02-1.05-.46-1.47l-2.13-3.43,1.9,1.17c.37.23.83.28,1.25.13.41-.15.74-.48.89-.89l.38-1.08,1.34,2.97,1.32-.61-1.32.62.54,1.18c.12.26.33.46.57.61l-.02.04c.07.03.14.06.22.09,0,0,0,0,0,0,1.69.7,3.09,1.21,4.22,1.62.48.18.98.36,1.41.52-.88-.1-1.99-.33-3-.64-.67-.2-1.38.1-1.71.72-.33.62-.16,1.39.38,1.83ZM56.9,82.34c-.23-.23-.52-.47-.88-.7-.42-.25-1-.5-1.62-.76-.09-.04-.18-.08-.28-.12.18-.88.37-1.84.52-2.59l2.03,2.12c.41.43,1.04.57,1.59.35.55-.22.91-.75.92-1.35l.05-4.19,3.25-.11.85,4.23c.12.57.55,1.02,1.12,1.14.1.02.21.03.31.03.46,0,.9-.22,1.18-.6l.52-.71,1.42,2.28c-2.64.79-5.23,1.15-8.31,1.16l-2.65-.19ZM70.2,81.88l-.02-.06v-.98c.16,0,.32.03.46.08l-.44.96ZM76.73,77.25l-.17-.37c.16.08.34.12.51.13-.11.08-.23.16-.34.24ZM78.55,75.03l-1.87-4.9c.37-.01.76-.06,1.14-.15,1.17-.29,2.16-.97,2.8-1.86.6.28,1.29.43,2.01.43.43,0,.87-.05,1.31-.16.55-.14,1.05-.37,1.51-.66-.27.49-.56.98-.86,1.45-1.32,2.07-2.92,3.96-4.76,5.62-.39.36-.8.71-1.22,1.05.05-.27.04-.55-.06-.81ZM102.03,61.36c-.41-.67-1.28-.9-1.96-.5l-3.09,1.77-1.84-3.01c-.4-.66-1.25-.89-1.93-.52l-2.02,1.1c.24-1.3.38-2.62.44-3.95l2.57-2.42,3.09,2.91.55-.59.61.62,2.91-2.91,2.4,2.26c-.06,2.3-.32,4.57-.77,6.8l-.95-1.56ZM102.32,50.74c-.57-.54-1.46-.53-2.02.03l-2.47,2.46-2.65-2.49c-.56-.53-1.43-.53-1.99,0l-1.67,1.58c-.13-1.35-.35-2.69-.67-4.01l1.78-2.91,3.79,2.06.34-.64.62.38,2.14-3.54,3.02,1.64c.55,2.17.93,4.4,1.1,6.69l-1.34-1.26ZM45.35,84.08c-.4-.59-1.17-.8-1.82-.5-.15.07-.34.16-.56.27-2.35,1.17-3.44,1.47-3.95,1.49.61-.55,2.41-1.31,3.55-1.79,1.12-.47,2.28-.95,3.3-1.52.43-.22.71-.64.78-1.09l.84-3.34.94,2.3c.17.41.51.72.92.84.42.13.87.06,1.23-.18l.69-.47c-.08.4-.16.81-.25,1.2-.13.62.16,1.26.7,1.57.41.24.96.47,1.54.71.27.11.59.25.84.36-.56.02-1.33-.08-2.1-.56-1.93-1.22-3.83.63-5.85,2.58-.41.4-.83.81-1.27,1.21-1.78,1.63-2.39,1.83-2.58,1.83-.01,0-.02,0-.04,0,.34-.54,1.16-1.42,2.47-2.65l.41-.39c.51-.5.59-1.3.19-1.89ZM38.38,74.12s0,0,0,0c-1.19-1.1-2.2-2.23-3.1-3.39.16.01.32.03.47.03.68,0,1.33-.14,1.91-.39.62.87,1.56,1.54,2.69,1.85.48.13.97.2,1.43.2.52,0,1.03-.09,1.5-.24l-.93,4.92c-.02.09-.01.18-.01.27-1.5-1.06-2.74-2.11-3.96-3.25ZM34.39,34.94c.21-.36.44-.71.68-1.04.08-.11.16-.2.24-.31.11-.14.23-.28.35-.42.11,0,.22-.02.33-.02.16,0,.32-.01.47,0,.18,0,.35.03.53.05.15.02.29.03.43.06.2.04.38.1.57.17.09.03.19.06.28.1.27.12.52.26.75.43.15.11.28.23.41.36.04.04.08.09.12.13.08.09.16.19.24.29.04.05.08.11.11.16.07.1.13.21.19.32.03.06.06.11.09.17.07.14.13.29.18.44,0,.03.02.05.03.08.06.18.1.37.14.55.01.06.02.12.03.18.02.13.03.27.04.41,0,.07,0,.15,0,.22,0,.06,0,.12,0,.18-.08.01-.16.04-.23.05-.3.05-.61.12-.92.2-.13.03-.27.07-.4.11-.41.12-.82.25-1.23.41-.02,0-.03,0-.05.02,0,0,0,0-.01,0,0,0,0,0,0,0,0,0,0,0,0,0-.73.28-1.44.61-2.1.99,1.25-1.37,2.57-2.03,2.59-2.04l-1.26-2.65c-.13.06-2,.99-3.69,2.94.28-.86.65-1.71,1.12-2.52ZM37.59,40.31l-.32.34.32-.34ZM43.24,40.44c.8.26,1.5,1.11,1.99,1.97-.8-.5-1.87-1.19-3.31-2.15.5-.02.95.05,1.33.18ZM16.96,48.74c.27.45.75.7,1.24.7.23,0,.47-.06.69-.17l3.17-1.71,1.79,2.93c.27.45.75.7,1.24.7.23,0,.47-.06.69-.18l2-1.09c-.02.11-.04.22-.06.33-.05.31-.09.63-.13.94-.03.21-.06.43-.09.64-.04.35-.06.71-.09,1.06-.01.18-.03.36-.04.54,0,.14,0,.29-.01.43l-2.56,2.41-3.09-2.91-.47.51-.46-.5-3.11,2.91-2.42-2.29c.06-2.3.32-4.57.77-6.8l.95,1.55ZM96.03,31.53l-1.67-.42c-.76-.19-1.53.26-1.75,1.02l-.93,3.23-3.5-.88c-.76-.19-1.54.26-1.75,1.02l-.6,2.1c-.84-1.14-1.76-2.23-2.77-3.25v-3.24h4.32v-.99h.74s-.01-3.76-.01-3.76h3.44c1.63,1.61,3.13,3.34,4.48,5.18ZM44.11,17.02c-.21.34-.27.76-.17,1.15.1.39.36.72.71.91l3.01,1.64-1.71,2.79c-.21.34-.27.76-.17,1.15.1.39.36.72.71.91l1.78.97-.36.1s-.09-.03-.14-.04c-.47-.13-.98-.26-1.52-.37-1.7-.35-3.55-.02-5.09.4l.89-3.13-.87-.25.2-.9-3.97-.91.84-2.94c2.13-1.1,4.36-2.04,6.66-2.79l-.81,1.33ZM26.04,27.79v1.66c0,.81.64,1.46,1.44,1.47l3.59.03v3.25c0,.21.04.4.12.58-.67,1.44-1.12,2.97-1.3,4.41-.01.08-.02.16-.03.24l-1.12.29-.92-3.23s0,0,0,0l-.19-.67-.17.05c-.35-.36-.87-.53-1.39-.4l-3.5.88-.87-3.04c1.27-1.96,2.73-3.8,4.33-5.54ZM17.71,68.81l1.58.86c.22.12.46.18.69.18.49,0,.96-.24,1.23-.69l1.83-2.93,3.13,1.7c.22.12.46.18.69.18.49,0,.97-.25,1.24-.7l1.04-1.7c.5,1.33,1.11,2.6,1.83,3.83l-.82,2.9-4.21-1.06-.19.76-.65-.18-1.52,5.46c-.59-.21-1.2-.37-1.83-.45-.05-.08-.09-.17-.14-.26-.17-.31-.34-.61-.46-.8l-.12-.19s-.05-.09-.08-.13c-.02-.04-.04-.08-.07-.12-1.27-2.12-2.32-4.35-3.18-6.65ZM46.09,106.54c-6.86,1.48-13.23-3.06-17.03-12.15-3.19-7.61-6.26-9.51-8.28-9.75-1.34-.16-2.59.35-3.34,1.37-.94,1.27-1.25,2.7-.89,4.14.64,2.56,3.29,4.61,5.17,5.78l-1.7,1.53c-.54.48-.65,1.29-.25,1.9.49.76,1.13,1.57,1.78,2.31-1.17-.26-2.49-.72-3.73-1.53-3.4-2.24-4.46-5.54-4.75-7.91-.45-3.71.69-7.78,2.85-10.13,1.64-1.78,3.98-2.4,5.46-2.21,2.09.26,4.13,1.82,5.69,3.16,1.4,1.18,2.6,2.62,3.55,4.26,1.23,2.12,2.55,3.89,3.92,5.27,3.26,3.23,6.72,3.71,9.06,3.35.18.7.58,1.51,1.41,2.29.31.3.69.58,1.21.91,0,0,0,0,0,0-1.26.72-2.93,1.39-4.65,1.25-1.74-.14-3.25-1.07-4.61-2.85l-2.31,1.79c1.87,2.44,4.12,3.78,6.7,3.98.23.02.45.03.68.03,3.87,0,7.14-2.56,8.09-3.38.39-.04.79-.1,1.19-.21.03,0,.06-.01.09-.02,1.89-.53,3.66-1.73,5.06-3.12-1.58,4.97-5.49,8.91-10.37,9.96ZM59.5,96.58c.13-.52.25-1.06.34-1.6.07.55.16,1.08.27,1.61-.19,0-.39-.01-.61-.02ZM106.43,92.21c-.29,2.37-1.35,5.67-4.75,7.91-1.22.81-2.54,1.27-3.72,1.53.64-.74,1.28-1.54,1.77-2.3.39-.61.28-1.41-.25-1.9l-1.78-1.6c1.78-1.23,4.34-3.37,5.01-5.91.35-1.33.15-2.66-.58-3.83-.6-.96-1.56-1.48-2.67-1.46-2.58.08-5.51,3.23-8.95,9.62-5.11,9.49-12.08,14.07-18.66,12.25-3.88-1.07-6.87-4.24-8.31-8.42,0-.26-.08-.54-.25-.82,0-.02-.01-.05-.02-.07.78.76,1.66,1.43,2.58,1.97.34.2.68.38,1.04.55,1.04.48,2.06.74,3.02.81,1.42,1.07,4.19,2.79,7.36,2.79.22,0,.45,0,.68-.03,2.58-.2,4.83-1.54,6.7-3.98l-2.31-1.79c-1.36,1.78-2.87,2.71-4.61,2.85-1.42.11-2.79-.32-3.93-.87,1.78-1.18,2.41-2.5,2.55-3.61,1.94.38,5.1.18,8.63-3.33,1.37-1.37,2.68-3.14,3.91-5.26.96-1.64,2.16-3.08,3.57-4.27,1.7-1.47,3.7-2.55,5.78-3.16,1.48-.15,3.75.47,5.35,2.22,2.15,2.34,3.3,6.41,2.85,10.13Z"/>
    </g>
  </g>
</svg>