<?xml version="1.0" encoding="UTF-8"?>
<svg id="Graphics" xmlns="http://www.w3.org/2000/svg" viewBox="0 0 120 120">
  <defs>
    <style>
      .cls-1 {
        fill: #000;
        stroke-width: 0px;
      }
    </style>
  </defs>
  <g id="Romulus_Bold" data-name="Romulus Bold">
    <g>
      <path class="cls-1" d="M60,10c-27.57,0-50,22.43-50,50s22.43,50,50,50,50-22.43,50-50S87.57,10,60,10ZM60,107c-25.92,0-47-21.08-47-47S34.08,13,60,13s47,21.08,47,47-21.08,47-47,47Z"/>
      <path class="cls-1" d="M50.91,55.83l-.41-2.33c-1.1.2-1.97.9-2.31,1.9-.31.89-.12,1.87.49,2.56.52.58,1.27.88,2.13.88.29,0,.6-.04.91-.11l-.66-2.93c-.06.01-.1.02-.14.03ZM51.01,56.41l-.07-.42c.05.06.08.14.1.22.01.08,0,.15-.02.2Z"/>
      <path class="cls-1" d="M85.52,48.66l-.06-3.05c.82-.08,1.83-.46,2.88-1.54,1.58-1.65,2.15-3.79,1.54-5.87-.65-2.24-2.51-3.93-4.97-4.53-.41-.1-.72-.25-.99-.44-.08-.08-.14-.16-.22-.24l-.03.03c-.3-.28-.55-.62-.84-1.03-1.02-1.42-2.42-3.35-6.9-3.35-.98,0-1.67-.45-2.54-1.02-1.45-.95-3.35-2.19-6.6-.7-.45-.76-1.11-1.46-2.16-1.97-1.63-.79-3.17-.29-4.29.08-1.27.42-1.4.36-1.62.13-.99-1.05-2.24-2.12-4.05-2.12h-.01c-1.85,0-3.79,1.14-6.12,3.57-1.05,1.11-1.56,1.36-1.71,1.42-.09-.06-.25-.18-.37-.27-.78-.61-2.08-1.62-4.52-.94-3.44.96-3.86,4.64-4.11,6.84-.03.26-.07.57-.1.85-1.61-.59-3.41-.41-4.86.52-1.71,1.09-2.65,3.02-2.53,5.18.1,1.73-.08,2.15-.56,3.26-.16.38-.35.83-.56,1.38h0s0,0,0,.01c-.27.73-.58,1.64-.91,2.88-1.01,3.8,1.67,6.76,3.99,8.53-.37.27-.71.6-1,.98-1.17,1.54-1.18,3.57-.04,5.55,1.15,2,3.01,2.8,4.36,3.38.48.21,1.2.52,1.31.65,0,0,.04.32-.48,1.23-1.5,2.64-.66,5.81,1.95,7.38.88.53,1.93.83,3.04.83.31,0,.63-.03.94-.08-.82,3.28-1.97,6.02-2.94,8.3-1.43,3.38-2.46,5.83-1.49,7.92,1.07,2.3,3.26,2.1,4.85,1.95,1.66-.15,3.09-.29,4.43,1.23,3.59,4.03,7.3,6.24,13.69,3.95,4.97-1.78,7.26-.41,10.16,1.33.94.57,1.93.84,2.84.84,1.15,0,2.18-.44,2.85-1.31.79-1.02,1.08-2.78-.28-4.76.28.03.55.05.82.05.54,0,1.06-.06,1.56-.2,1.35-.37,2.32-1.26,2.73-2.53.86-2.67-1.14-4.55-2.9-6.21-.99-.93-2.01-1.89-2.63-3-1.04-1.85-.66-5.2-.24-7.2,3.94-.1,6.11-2.05,7.1-3.29.63.06,1.43.01,2.21-.36.7-.33,1.65-1.05,2.17-2.6.76-2.27-.23-3.68-.82-4.52-.07-.1-.12-.18-.17-.25,1.76-.88,1.83-2.68,1.59-4.12.6-.17,1.14-.43,1.58-.83.82-.74,1.13-1.79.87-2.94-.68-3.04-3.83-7.58-4.86-9.01ZM80.99,50.22c.02.07,0,.15-.06.22-.03.04-.14.15-.32.15h0c-.37,0-.78-.09-1.21-.26.45-.25.9-.43,1.34-.56.12.12.22.26.26.44ZM68.87,47.76c.05.21-.04.37-.13.48-.14.18-.36.28-.58.28h0c-.61,0-1.29-.2-2-.53.74-.47,1.49-.79,2.21-.98.25.2.43.44.5.76ZM69.77,34.74c1.62-.1,2.77.09,3.51.37h0c.06.02.12.05.18.06.43.18.7.39.8.58.21.38-.21,1.04-.4,1.3-.81,1.13-1.97,1.56-2.9,1.72-.69-.48-2.21-1.77-2.33-4.05.35.04.72.05,1.14.02ZM82.36,44.53s.06.04.08.06l.04,1.91c-1.85.06-4.11.63-6.07,2.26-.58-.95-1.17-1.84-1.68-2.58,1.32-.03,2.51-.57,3.4-1.2.4.22.9.4,1.49.43.92.06,1.84-.24,2.74-.89ZM76.31,38.8c.22-.31.39-.61.53-.9.52,1.17.51,2.62-.05,4.31-.45.41-1.52,1.23-2.71.87-.03-.66-.09-1.39-.23-2.15.88-.46,1.74-1.14,2.46-2.14ZM87,39.03c.3,1.04,0,2.09-.82,2.95-.3.32-.76.68-1.15.64-.27-.03-.56-.22-.8-.45.54-1.27,1.18-3.2,1.15-5.12.8.46,1.38,1.15,1.62,1.98ZM71.73,30.11c1.03.68,2.31,1.52,4.19,1.52,2.95,0,3.59.88,4.47,2.11.39.54.84,1.16,1.48,1.69,1.12,1.48.09,4.52-.64,6.08-.53.55-1.03.88-1.38.9.62-2.34.45-4.43-.51-6.22-1.15-2.13-3.25-3.37-4.97-3.88-1.27-.48-2.9-.69-4.8-.57-1.41.09-1.47-.18-1.81-1.9,0-.03-.01-.07-.02-.1,1.89-1,2.69-.49,3.98.36ZM54.64,26.02h0c.55,0,1.08.33,1.88,1.18,1.59,1.69,3.49,1.07,4.74.66.93-.31,1.53-.48,2.04-.23,1.02.5,1.24,1.35,1.53,2.81.15.78.36,1.79.91,2.64-.46,2.95.6,5.21,1.9,6.71-.16.11-.35.21-.58.24-.44.05-.94-.17-1.5-.65-2.93-1.62-4.39-4.26-4.91-5.8-.53-1.58-1.27-3.74-4.88-3.28l-.57.07c-1.64.21-4.12.54-4.63-.02-.13-.15-.21-.64-.03-1.53.06-.06.11-.1.17-.16,2.08-2.18,3.29-2.64,3.95-2.64ZM42.74,29.7c.99-.28,1.28-.04,1.87.42,1.03.8,1.96,1.08,2.96.8.15.56.4,1.06.78,1.47,1.56,1.7,4.31,1.35,7.23.97l.56-.07q1.18-.15,1.66,1.27c.57,1.67,1.42,4.16,4.98,6.3-.27.45-.69.97-1.32,1.28-.55.27-1.21.32-1.96.16-.22-1.01-.7-1.78-1.44-2.29-1.12-.78-2.65-.83-4.67-.16-1.32.44-1.38.31-1.92-1.01-.36-.89-.86-2.1-2.14-2.6-.95-.36-2.07-.23-3.44.43-.41.2-.65.25-.77.27-.1-.16-.23-.49-.32-.71-.34-.86-.85-2.16-2.27-2.63-.51-.17-1.07-.21-1.69-.11.24-1.94.6-3.41,1.87-3.76ZM37.05,37.48c1,.54,1.77.36,2.23.12.35-.18.6-.43.79-.73.84-.4,1.26-.46,1.43-.46.12,0,.09,0,.09,0,.13.09.32.59.44.89.33.82.77,1.95,1.98,2.43.89.35,1.93.23,3.19-.38.74-.35,1.03-.34,1.03-.35.13.12.34.63.47.94.54,1.32,1.66,4.05,5.64,2.72,1.53-.51,1.96-.25,2.01-.22.12.08.28.97.31,1.61h.01c0,.67-.19,1.89-1.42,2.71-1.27-1.74-3.53-1.3-4.74-1.07-2.04.4-2.26.25-2.59-.75-.74-2.26-1.96-3.75-3.62-4.43-1.83-.75-4.05-.46-6.61.86-1.22.63-3.06.47-3.87-.33-.76-.76-.39-2,.08-2.98.16-.2.34-.37.56-.51.78-.49,1.74-.52,2.57-.07ZM44.69,49.2c-.53-1.31-1.45-2.42-2.63-3.01-1.66-.83-3.48-.37-4.74,1.18-.73.9-1.89,1.83-3.32,1.17-1.14-.52-1.94-1.85-1.85-2.99.14-.34.26-.65.38-.92.1-.24.19-.46.28-.67,1.8,1,4.3,1.08,6.26.07,1.2-.62,2.88-1.25,4.09-.75.81.33,1.46,1.21,1.91,2.59.42,1.3,1.09,2.06,1.84,2.5-.51.07-1.03.2-1.54.44-.23.11-.45.24-.67.38ZM31.24,50.28c.45.4.95.75,1.51,1,2.4,1.1,4.98.35,6.9-2.01.54-.66.88-.49,1.08-.39.93.46,1.74,2.12,1.39,3.56h.05c-.43,1.26-.51,2.71-.02,4.24.67,2.08,2,3.72,3.87,4.77-.09.27-.22.49-.41.67-.41.39-1.02.57-1.56.66-.33-.97-.77-1.81-1.25-2.62-1.87-3.23-4.31-4.48-6.32-4.79-.51-.26-4.43-2.35-5.23-5.09ZM39.94,72.87c-1.03-.62-1.7-1.88-.88-3.32.52-.92,1.17-2.3.72-3.65-.47-1.39-1.8-1.96-2.97-2.47-1.13-.49-2.29-.99-2.95-2.13-.81-1.4-.33-2.04-.17-2.25.24-.32.59-.54.92-.68.3-.08,3.25-.77,5.59,3.29,1.03,1.79,1.73,3.3,1.27,6.52-.28,1.95.4,3.11,1.01,3.73.29.29.61.51.93.69-1.29.93-2.58.81-3.48.27ZM72.03,69.29c-.06,0-6.24.11-9.98-3.98l-2.22,2.02c2.99,3.28,7.05,4.4,9.67,4.77-1.19.53-2.7.71-3.39.72l-1.33.87c-.09.2-2.24,5,1.06,11.5,1.78,3.5,2.86,5.61,4.19,7.5h0s.02.03.03.03c.9,1.27,1.91,2.44,3.34,3.87,1.09,1.09,1.13,1.83,1.02,1.97-.15.18-.84.31-1.78-.26-3-1.8-6.4-3.84-12.72-1.58-4.9,1.76-7.36.33-10.44-3.12-2.35-2.64-5.12-2.38-6.95-2.22-1.68.16-1.73.04-1.86-.23-.41-.89.49-3.02,1.53-5.49,1.24-2.93,2.76-6.56,3.62-11.19.61-.55,1.2-1.22,1.73-2.06l-1.45-2.29c-.33.03-1.16,0-1.49-.33-.25-.25-.23-.79-.17-1.19.15-1.08.19-2.02.16-2.87.97-.16,2.13-.55,3.06-1.42.42-.39.88-.99,1.17-1.82.72.15,1.46.23,2.2.23,1.22,0,2.44-.2,3.57-.61l-1.03-2.82c-1.82.66-4.09.55-5.78-.28-1.37-.67-2.31-1.76-2.78-3.24-.62-1.96.38-3.64,1.64-4.24,1.1-.52,2.15-.11,2.95,1.14l2.52-1.62c-.65-1.01-1.46-1.74-2.36-2.19.49-.05.95-.14,1.33-.21,1.28-.25,1.64-.28,1.81-.01-.84,1.96-1.31,5.37,1.68,7.47l1.72-2.46c-1.5-1.05-1.05-2.82-.71-3.69,2.55-.99,3.62-2.93,3.96-4.63,1.17.14,2.27-.04,3.26-.53,1.11-.55,1.87-1.38,2.37-2.14.89.38,1.66.42,2.24.34,1.11-.13,1.94-.69,2.45-1.16.02,0,.04,0,.06,0,.28,0,.64-.02,1.02-.06.1.69.14,1.35.14,1.91-2.99-.08-7.26.95-10.02,5.28l2.53,1.61c.1-.15.21-.29.31-.43,1.44.87,2.87,1.34,4.23,1.35h.02c1.14,0,2.2-.51,2.91-1.39.66-.82.92-1.86.74-2.87,2.31,3.26,4.52,7.16,4.39,8.28-.25.35-1.79.54-3.49.38l.19-2.95c-2.21-.13-3.08,1.71-3.64,2.94-.75,1.65-1.26,2.59-3.27,2.67l.12,3c2.83-.11,4.25-1.51,5.1-2.89v.06c.36.06,1.44.23,2.7.23.12,0,.24-.01.36-.01.45.8.6,1.24.65,1.46-.18.07-.51.15-1.11.26-.39.07-.67.08-.9.07l-1.1-1.45c-2.91,2.21-2.47,4.78-1.83,5.82l2.42-1.41c.2.02.39.04.62.04.12,0,.25-.01.38-.02l-.18,1.08.95,1.65c.64.26.83.83.56,1.68-.38,1.2-2.05,1.24-2.11,1.24M84.48,69.38c-.14.43-.34.71-.59.83-.38.19-.94.06-1.09.01l-1.89.74s-1.47,2.93-6.13,2.59l-1.55,1.08c-.2.69-1.88,6.85.24,10.61.84,1.5,2.09,2.67,3.19,3.71,1.61,1.52,2.35,2.32,2.1,3.1-.07.21-.19.42-.66.55-1.43.39-4.06-.51-5.81-1.94-1.08-1.6-2.09-3.55-3.77-6.84-1.93-3.8-1.6-6.75-1.27-8.1,1.74-.21,5.09-.94,6.4-3.45,1.44-.28,3.24-1.16,3.9-3.23.71-2.24-.14-3.85-1.24-4.75l.23-1.36c.48-.27.89-.66,1.15-1.23.44-.99.21-2.1-.39-3.37.22-.11.45-.21.64-.35.71-.52,1.13-1.25,1.23-2.1.09-.71-.11-1.62-.48-2.62.63.2,1.26.32,1.88.32h.03c1.03,0,2-.46,2.65-1.27.23-.29.39-.61.51-.94,1.34,1.97,3.26,5.07,3.69,6.94,0,.03.01.06.02.07-.16.11-.74.32-1.71.24-.82-.06-1.49-.28-1.89-.49.1-.07.19-.11.26-.11v-3c-1.63,0-2.53,1.02-3.68,2.31-.54.61-1.22,1.37-2.15,2.27l2.08,2.16c.54-.52,1-.99,1.39-1.42.45.35,1.01.64,1.67.86.44.15.93.26,1.44.34.22.99.13,1.29.13,1.29h0s-.06.04-.2.08c-.45.14-.97.15-1.52.02l-1.57-1.98c-2.73,2.16-2.21,5.21-1.55,6.53l2.69-1.33c-.02-.05-.06-.15-.1-.27.15.03.3.05.45.07.19.63.54,1.14.81,1.53.49.7.71,1.02.43,1.86Z"/>
    </g>
    <g>
      <path class="cls-1" d="M28.23,78.74l-.65-1.27c-.05-.1-.1-.17-.17-.23l-.57-.1-.27.24c-.05.08-.14.29,0,.54l.28-.09-.14.13.2-.1-.28.18v.03s0,0,0,.01c-.13.09-.32.2-.56.33l-.69.36-.16-.32c.03-.06.07-.14.11-.22.09-.18.19-.37.29-.57l.11-.23c.03-.05.05-.1.06-.13l.31-.66c.1-.22.17-.43.22-.61.02-.06.03-.13.04-.2.01-.08.02-.15.02-.23h0s0-.03,0-.03c0-.17-.03-.34-.08-.51-.04-.13-.12-.31-.24-.53l-.26-.5c-.06-.11-.11-.19-.17-.25-.16-.16-.37-.19-.57-.12.3-.69.33-1.5.04-2.42-.33-1.06-.96-1.81-1.88-2.23-.9-.42-1.85-.47-2.82-.17-1.03.32-1.75.92-2.14,1.78-.38.84-.42,1.76-.11,2.74.29.94.79,1.61,1.49,2,.65.37,1.31.56,1.96.56.03,0,.05,0,.08,0,.17,0,.34-.01.51-.04.18-.03.35-.07.52-.12l-.15-.48h0l.16.48c.1-.03.21-.07.32-.11.1-.04.21-.09.31-.14.56-.29,1.02-.72,1.4-1.27l.06.29s.04.08.05.13c0,.03.03.11.05.29,0,.05,0,.2-.11.51-.11.31-.26.66-.44,1.05-.13.29-.27.6-.42.93-.35-.09-.66-.13-.95-.12-.41.02-.78.11-1.1.28-.24.12-.43.28-.58.47-.13.17-.22.33-.29.5-.03.07-.05.14-.07.2-.02.08-.04.14-.04.19-.04.26-.03.52.03.77.05.23.13.45.24.69l.14.29c.03.05.06.12.1.19l.3.53.32-.19h.03s-.29.29-.29.29l.55,1.03c.11.1.24.15.38.15.09,0,.17-.02.25-.06l.29-.42-.11-.45.04-.02c.09-.06.22-.13.39-.22l3.24-1.67c.25-.12.44-.22.58-.27.02,0,.04-.01.05-.02l.3.26.42-.03c.2-.1.32-.31.3-.56l-.15-.37c-.03-.07-.07-.13-.09-.15ZM24.25,79.36l-1.74.9s-.03-.06-.05-.09c-.13-.25-.15-.47-.07-.68.09-.23.31-.44.64-.61.21-.11.39-.17.55-.18.03,0,.05,0,.07,0,.13,0,.21.03.26.06.03.03.05.05.12.15l.21-.13.03.07-.18.19c.05.11.1.22.13.32ZM22.62,70.32c.36.11.64.27.82.47.09.1.17.21.22.32.06.11.1.21.13.31.17.55.11,1.07-.2,1.58-.32.53-.85.91-1.64,1.16h0c-.7.22-1.27.21-1.69-.01-.44-.23-.73-.59-.89-1.1-.15-.48-.09-.95.18-1.46.27-.5.8-.88,1.58-1.12.41-.13.76-.19,1.05-.19.16,0,.3.02.43.06Z"/>
      <path class="cls-1" d="M22.57,67.78c.07,0,.14,0,.21.01,0,.02,0,.03,0,.03,0,0,0,0,0-.01l.11.3.49.23c.25-.03.44-.21.49-.46v-.22s0-.14,0-.14c0-.06-.02-.13-.03-.19l-.04-.27-.23.04s-.03-.04-.05-.06l.27-.13-.05-.67c0-.09-.03-.17-.06-.25l-.56-.34-.43.3-.05.33h-.04c-.06,0-.11.01-.13.01l-1.89.04.58-.35s.13-.08.34-.22l1.43-.92c.14-.09.23-.15.29-.19.06-.05.24-.18.28-.49v-.07s0,0,0,0l-.02-.1h0s-.03-.11-.03-.11l-.04.02-.1-.21c-.07-.05-.15-.09-.27-.14l-2.98-1.04,2.35-.48.27.07.48-.42c.02-.08.03-.16.03-.33,0-.07,0-.17-.02-.3l-.03-.34c0-.16-.02-.31-.04-.5l-.02-.24c-.01-.1-.03-.19-.07-.26l-.54-.34-.45.31-.04.31s0,.09.01.17c0,.04,0,.1,0,.17-.06.04-.12.07-.18.09l-5.09,1.12c-.12.02-.21.06-.3.11-.2.12-.31.33-.28.55l.27.43c.05.03.11.06.2.1l4.26,1.47-3.79,2.38c-.06.03-.12.07-.17.11l-.19.24c-.04.1-.06.2-.04.29l.37.47c.05.02.12.04.28.06l5.27.02h.02ZM22.84,66.26v.04s-.1.03-.1.03v-.04s.06-.03.1-.03ZM22.9,61.23s0,0,.01.01h-.01s0-.01,0-.01ZM16.9,62.55l-.02-.1.02.1s0,0,0,0Z"/>
      <path class="cls-1" d="M16.66,59.83l.45-.2.13-.3.05-.14h.02c.09,0,.26.01.45.03l2.37.2.04-.5-.03.5c.65.05,1.16.02,1.56-.11.39-.13.72-.31.96-.52.12-.1.23-.21.33-.35.08-.11.15-.23.22-.36.12-.25.21-.5.25-.74.04-.22.07-.38.08-.49.02-.22.01-.48-.01-.75-.03-.3-.14-.62-.3-.92-.03-.06-.06-.12-.1-.17-.04-.06-.08-.12-.13-.19-.26-.35-.6-.61-1.01-.77-.36-.14-.73-.24-1.12-.3l-2.62-.24c-.16-.01-.29-.03-.46-.05h-.02s-.02,0-.03,0h0s0,0,0,0v-.1s-.02,0-.02,0l-.04-.2-.43-.3c-.24-.02-.46.1-.56.3l-.08.38c0,.07,0,.13,0,.12l-.02.38.32.07s.03.03.04.05l-.38.04-.07.6.12.02s0,.05,0,.08h0l-.13.06.02.26c.06.23.25.39.5.41l.49-.24.12-.39h.04c.11,0,.26,0,.45.02l2.21.19c.38.03.72.09,1.02.17.25.07.45.17.59.31.11.11.19.24.25.41.06.16.08.33.07.5-.01.14-.03.26-.07.38-.03.09-.07.18-.14.28-.02.03-.04.05-.06.07-.03.03-.06.06-.11.1-.12.11-.3.2-.53.27-.16.05-.49.1-1.13.04l-2.32-.19c-.19-.02-.34-.03-.39-.04l-.09-.02s-.01,0-.02,0l-.07-.33-.41-.27c-.25-.02-.46.09-.56.31l-.07.27-.04.79.5.05h0l-.51.06-.09.82.02.28c.07.22.26.37.5.39ZM16.73,53.42s0-.03,0-.04v.02s0,.02,0,.02ZM17.1,54.99s0-.01,0-.02l.33-.1s.04.1.06.15l-.39-.03Z"/>
      <path class="cls-1" d="M17.46,52.11l.49-.15.19-.39h.04c.11.02.26.05.44.1l3.55.83c.27.07.48.12.62.18.02,0,.03.01.05.02l.04.35.36.29s.09.02.13.02c.18,0,.35-.09.45-.24l.11-.27.15-.76c.03-.11.05-.22.09-.34l.26-.99c.05-.21.11-.46.18-.75.08-.32.08-.45.07-.54-.01-.13-.08-.36-.36-.52l-.07-.04h0s-.15-.08-.15-.08c-.06-.03-.13-.06-.23-.1l-.26-.09c-.11-.04-.19-.06-.22-.07-.09-.02-.16-.03-.21-.03l-.52.39.14.54c.08.08.17.12.31.19l.1.08.12-.14.06.02-.13.24c-.01.15-.04.32-.09.5-.07.3-.12.45-.17.55-.05,0-.12,0-.22-.02-.27-.04-.68-.12-1.24-.25l-2.56-.6c-.18-.04-.33-.08-.46-.12,0,0,0,0-.01,0v-.07s-.02-.36-.02-.36l-.37-.31c-.23-.06-.46.03-.61.24l-.09.23c-.01.05-.03.11-.05.22l-.04.16.15.04s0,.07,0,.1h-.2s-.23.96-.23.96l.13.05-.02.05s0,.03-.01.04h-.12s.11.04.11.04c0,.01,0,.03-.01.04h0s-.02.05-.02.05l-.12-.02-.02.28c.03.23.2.41.45.47Z"/>
      <path class="cls-1" d="M19,47.27c.08-.06.15-.14.21-.28l.05-.09.03.02c.11.03.25.08.42.15l2.22.87c.58.23,1.07.34,1.47.34h.05c.41-.01.78-.09,1.07-.23.15-.06.29-.15.41-.24.11-.08.21-.17.31-.28.19-.2.34-.42.45-.64.1-.2.17-.35.21-.45.08-.22.15-.45.2-.72.06-.3.05-.63-.02-.97-.01-.06-.03-.13-.05-.2-.02-.07-.04-.13-.07-.21-.15-.41-.41-.75-.75-1.02-.3-.24-.64-.44-.99-.61l-2.44-.97c-.17-.07-.31-.13-.44-.19,0,0,0,0-.01,0-.06-.03-.08-.05-.08-.05h0s.04.06.05.08l-.32-.13-.03-.03.39.07.03-.23-.34-.43c-.21-.09-.45-.03-.62.14l-.18.34c-.02.06-.04.12-.07.2l-.09.26.28.14s.02.04.02.06l-.36-.05-.15.34c-.03.06-.06.13-.11.28l-.1.37c0,.23.14.43.38.52l.48-.07.25-.38.04.02c.11.03.25.08.42.15l2.06.81c.36.14.67.29.93.45.22.13.38.29.47.47.07.14.12.29.13.46s-.01.34-.08.5c-.05.13-.11.24-.17.34-.05.08-.12.16-.21.22l-.1.07s-.07.04-.12.06c-.15.07-.34.1-.59.1-.2,0-.49-.05-1.09-.28l-2.17-.85c-.17-.07-.31-.13-.42-.18h-.01s-.02-.02-.03-.02v-.02s.02,0,.02,0l.02-.15h0v-.15s-.32-.4-.32-.4c-.22-.09-.46-.03-.63.15l-.75,1.81c-.04.1-.06.19-.06.29l.38.52.48-.07ZM18.96,44.89l-.02.07h0s.01-.04.02-.07Z"/>
      <polygon class="cls-1" points="21.35 41.53 21.35 41.53 21.35 41.53 21.35 41.53"/>
      <path class="cls-1" d="M22.73,40.59l.12.07c.07.03.14.06.2.08.27.1.58.13.91.11.32-.02.71-.12,1.16-.3l.44-.16c.2-.07.38-.13.54-.18.12-.04.24-.06.32-.06.07-.01.14,0,.21.02.06.02.14.05.25.11l.02.02c.11.07.18.18.23.34.01.05.06.19-.1.47-.09.16-.21.28-.36.38-.07.04-.16.08-.33.02-.04-.01-.07-.03-.09-.04l-.11-.06s-.14-.07-.19-.07l-.58.29.06.6c.05.06.11.11.26.22.05.04.11.08.15.09l.24.15c.09.06.19.12.3.18.12.06.21.11.27.12.06.02.12.03.19.03.11,0,.22-.03.33-.09l.08-.05c.18-.13.34-.28.48-.46h0c.13-.17.26-.34.36-.53.13-.23.23-.46.29-.7.08-.26.1-.53.08-.8-.02-.19-.06-.37-.13-.54-.06-.15-.14-.29-.22-.42-.11-.17-.24-.31-.38-.43-.13-.11-.24-.19-.34-.25-.12-.07-.25-.13-.37-.18-.14-.06-.29-.09-.44-.11-.25-.03-.53-.02-.83.04-.28.05-.61.15-1.02.32l-.23.1c-.28.11-.51.19-.69.23-.17.05-.27.05-.33.05-.04,0-.08-.01-.11-.02-.03-.01-.07-.03-.1-.04-.16-.09-.2-.18-.21-.25-.03-.13,0-.25.08-.39.1-.18.17-.26.21-.29.08-.08.13-.1.24-.12.05.02.1.04.2.07.07.03.14.05.18.05l.55-.27-.1-.67c-.05-.05-.13-.1-.22-.15-.12-.06-.21-.12-.3-.17-.08-.05-.14-.09-.2-.12l-.24-.16-.46-.03-.32.3s-.05.06-.07.08c-.09.09-.18.19-.27.32-.08.11-.16.24-.25.39-.31.55-.41,1.09-.3,1.6.12.53.43.95.96,1.25Z"/>
      <path class="cls-1" d="M96.41,47.17s-.01.02-.02.02l-.39.25.2.66.11-.04s0,.03.01.04c0,.02,0,.03.01.04l-.09.06c.03.1.07.18.13.26l.58.17.29-.21c.1-.14.13-.33.06-.55l-.03-.12s.01,0,.02,0c.14-.07.35-.14.61-.23l.74-.24.1.34c-.04.06-.09.13-.15.2-.12.16-.25.34-.44.6l-.08.12s-.07.1-.09.13l-.42.6c-.14.2-.24.39-.32.57-.03.07-.05.13-.07.19-.02.07-.04.15-.06.22v.03c-.04.17-.04.34,0,.51.02.14.07.33.15.57l.13.4-.06.07c-.01.08-.01.17,0,.29l.15.75c0,.05.02.12.03.21l.13.96c.03.22.08.49.13.79.04.22.07.35.12.44.06.13.21.28.49.34-.11.07-.21.18-.25.31l-.03.24v.11c0,.07,0,.14.01.19v.29s.28.04.28.04c.02.02.03.04.05.06l-.32.05v.28s.15.02.15.02c0,.01,0,.03,0,.04,0,.02,0,.03-.01.05l-.14.02v.27c0,.11.01.2.04.27l.57.38.42-.27.07-.31,2.05.16c-.09.04-.18.08-.27.13-.19.09-.3.14-.37.17l-1.85.95c-.14.07-.25.13-.3.16-.07.04-.27.16-.32.4v.12s0,.06,0,.06h0v.11s.04,0,.04,0l.11.25c.06.06.14.12.26.17l2.86,1.33-2.41.24-.25-.1-.52.37c-.03.07-.04.16-.06.32,0,.08,0,.18-.01.3l-.02,1.08c0,.1.02.19.04.27l.55.38.45-.29.06-.27v-.17s.02-.1.02-.17c.06-.03.13-.06.18-.07l5.17-.6c.13-.01.24-.04.33-.08l.34-.52c0-.19-.09-.36-.23-.46l-4.27-2,4.03-1.99.17-.09c.08-.05.15-.12.19-.2l.08-.29-.33-.5s-.1-.04-.26-.08l-5.26-.55c-.07,0-.14-.02-.21-.03l-.06-.3-.32-.21h.07c.11,0,.2,0,.3-.01.12,0,.2-.02.2-.02h0c.07,0,.14-.03.19-.05l.32-.59c-.04-.2-.18-.37-.43-.44l-.2-.02c-.17,0-.21-.02-.2-.02-.02-.03-.03-.06-.04-.08-.02-.05-.03-.09-.05-.15-.01-.05-.03-.11-.03-.15l-.03-.18c-.04-.21-.04-.34-.04-.41.04-.01.11-.03.21-.05l.61-.11-.09-.49.19.47.79-.14.02.14c.02.11.03.21.04.3,0,.08.01.13.03.19l-.04.02c-.13.02-.25.07-.3.13l-.18.52.44.44c.08.01.16.01.24,0l.83-.07c.08,0,.14,0,.19-.01l.37-.24.08-.43-.22-.32-.05-.03s-.03-.08-.04-.13c0-.03-.02-.09-.04-.19-.02-.11-.04-.23-.07-.36l-.03-.19,1.35-.24s0,.06.01.1l.05.33c0,.07.02.11.02.17,0,.07,0,.12,0,.16h-.03c-.13.03-.24.08-.3.14l-.21.51c.03.22.19.4.4.45l.12.03h.05s0,0,0,0c.03,0,.09,0,.19,0l.18-.02s.08-.01.12-.01c.06,0,.11,0,.09-.01h.13s.12,0,.12,0c.07,0,.13,0,.21,0l.24-.1.17-.48h.06c0-.1-.04-.2-.07-.24l-.15-.58c-.03-.17-.07-.36-.1-.56l-.1-.6c-.04-.21-.06-.32-.06-.39l-.05-.39s-.01-.07-.01-.1l-.14-.57c-.12-.21-.35-.32-.59-.27l-.41.36-.02.29.02.1-.05.02c-.11.03-.25.06-.51.1l-3.53.61c-.24.04-.42.06-.56.07v-.12s-.02-.1-.02-.1c-.01-.04-.02-.09-.03-.14,0-.03-.01-.11,0-.29,0-.05.03-.2.19-.48.16-.29.37-.61.6-.96l.57-.85c.33.15.63.24.91.27.4.05.79.02,1.13-.09.26-.08.47-.21.65-.37.16-.15.28-.29.38-.46.04-.06.07-.12.1-.18.03-.07.06-.14.07-.17.08-.25.11-.51.1-.76-.01-.23-.05-.47-.12-.72l-.1-.32c-.02-.06-.04-.13-.07-.19l-.07-.21-.25.08s-.02-.04-.02-.05l.24-.15-.14-.38-.46.14s0,0,.01-.01l.41-.27-.09-.31s-.02-.07-.03-.11l-.24-.57c-.15-.16-.37-.23-.61-.15l-.34.4.04.41h-.03c-.11.06-.25.11-.43.17l-2.49.8.15.48h0s-.16-.47-.16-.47c-.36.12-.69.22-.98.31-.26.08-.47.14-.62.17-.02,0-.04,0-.06,0l-.22-.29-.46-.05c-.22.07-.36.27-.37.5l.09.41c.02.06.05.13.08.2l.14.39.45-.12ZM96.81,48.03s0-.02,0-.03c0,0,0,0,0,0l.28-.2s.07.07.1.11l-.37.12ZM99.83,46.9l1.87-.6s.02.06.03.09c.09.27.07.48-.05.68-.13.21-.38.38-.73.5-.22.07-.41.1-.57.08-.13-.01-.24-.05-.32-.11-.02-.03-.04-.06-.09-.15l-.05-.14c-.03-.12-.06-.23-.08-.34ZM99.02,57.63v-.05s-.3.02-.3.02c0,0,0,0,0-.01l.29-.1v-.12s.04.06.06.1h.03s.04.12.04.12c-.04.02-.08.04-.12.04ZM98.46,62.66s-.05-.05-.07-.08l.08.06v.02ZM104.54,61.92l.02.23h0s-.03-.22-.03-.22c0,0,0,0,0,0ZM99.84,52.79h0s0,0,0,0Z"/>
      <path class="cls-1" d="M104.51,64.65l-.51.18-.16.38h-.04c-.11-.02-.26-.04-.44-.08l-2.34-.44h0c-.64-.12-1.15-.14-1.56-.05-.4.09-.75.23-1.01.42-.14.09-.26.2-.36.32-.09.1-.17.21-.25.33-.15.24-.26.48-.33.71-.07.22-.11.38-.13.48-.04.22-.06.47-.06.75,0,.31.07.63.21.95.02.06.05.12.09.19.03.06.07.13.1.19.23.37.54.67.93.87.34.18.71.32,1.09.41l2.57.5c.18.04.33.07.48.11h0s0,0,0,0v.08s0,0,0,0h0s.04.23.04.23l.41.34s.07,0,.1,0c.19,0,.36-.09.48-.28l.1-.35c.01-.06.02-.11.01-.11,0,0,0,0,0,0l.06-.38-.31-.1s-.02-.03-.03-.05h.38s.08-.35.08-.35c.02-.07.03-.14.06-.28l.03-.38c-.04-.23-.22-.41-.45-.45l-.48.15-.19.42h-.04c-.11-.02-.26-.04-.45-.08l-2.18-.41c-.37-.07-.71-.16-1-.27-.24-.09-.42-.22-.55-.37-.1-.12-.17-.26-.21-.43-.04-.17-.05-.33-.02-.5.03-.13.06-.26.11-.37.03-.09.09-.17.16-.25l.07-.08s.07-.06.11-.09c.14-.1.32-.17.56-.21.16-.03.49-.04,1.13.07l2.29.43c.19.04.33.07.48.11,0,0,0,0,.01,0h0s0,.08,0,.08l.03.21.42.36c.23.04.46-.06.58-.26l.14-.56s.02-.07.03-.17l.04-.28-.48-.1h0s.51-.01.51-.01l.15-.68-.12-.04s0-.03,0-.04h0s.01-.05.01-.05h.12s.01-.25.01-.25c-.03-.24-.21-.42-.45-.47ZM103.77,71.05v-.02s0,.04,0,.05v-.04ZM104.52,67.02s0,.04,0,.06h0v-.06ZM104.35,65.26s0,0,0,.01l-.35.04s-.02-.08-.02-.12l.38.07Z"/>
      <path class="cls-1" d="M101.64,72.07l-.17-.05c-.07-.02-.15-.04-.21-.04-.28-.05-.58-.03-.92.06-.32.08-.67.25-1.08.51l-.41.24c-.19.11-.35.2-.49.27-.12.06-.22.1-.29.12-.08.02-.15.02-.21.02-.07,0-.15-.02-.27-.06h-.02c-.12-.07-.21-.16-.28-.3-.02-.04-.09-.17.01-.48.06-.17.15-.32.28-.44.06-.05.15-.11.32-.08.04,0,.07.01.2.05.1.03.18.05.27.04l.48-.38c.08-.23,0-.47-.16-.58l-.29-.17c-.06-.03-.13-.06-.17-.07l-.26-.11c-.1-.04-.21-.08-.33-.12-.13-.04-.22-.07-.31-.08-.17-.02-.33.04-.47.15l-.07.07c-.15.16-.28.34-.39.54-.1.19-.19.38-.26.59-.08.24-.14.49-.16.75-.02.27,0,.54.07.8.05.19.13.36.23.51.09.14.18.26.3.37.14.14.29.26.45.35.15.08.28.14.38.18.13.05.27.08.4.11.15.03.3.04.45.03.26-.01.52-.07.82-.19.26-.1.56-.26.94-.5l.21-.15c.26-.16.46-.28.63-.36.13-.06.24-.1.31-.11.04,0,.08,0,.12,0,.02,0,.05,0,.11.03.18.06.23.14.25.2.05.12.05.25,0,.4-.06.19-.12.29-.15.32-.07.09-.12.12-.13.13l.19.29s-.01,0-.02,0c-.01,0-.03-.01-.04-.02l-.23-.24c-.05,0-.11-.02-.21-.03-.08-.01-.14-.01-.15,0l-.52.37.22.63c.07.05.15.08.25.12.12.04.23.08.33.12.09.03.16.06.21.08l.26.11c.06.02.13.03.19.03.11,0,.21-.03.28-.08l.25-.34.06-.11c.07-.11.14-.23.2-.36.06-.12.12-.27.17-.44.2-.6.2-1.15,0-1.63-.21-.5-.6-.86-1.14-1.04Z"/>
    </g>
  </g>
</svg>