<?xml version="1.0" encoding="UTF-8"?>
<svg id="Graphics" xmlns="http://www.w3.org/2000/svg" viewBox="0 0 120 120">
  <defs>
    <style>
      .cls-1 {
        fill: #000;
        stroke-width: 0px;
      }
    </style>
  </defs>
  <g id="S.P.Q.R_Bold" data-name="S.P.Q.R Bold">
    <g>
      <path class="cls-1" d="M21.05,62.39c0,.3-.04.65-.11,1.06-.07.43-.2.87-.38,1.32-.19.45-.45.91-.78,1.34-.33.46-.76.87-1.27,1.23-.63.45-1.34.77-2.11.96-.75.18-1.52.27-2.31.27-.66,0-1.33-.05-1.97-.16-.67-.12-1.31-.32-1.9-.6-.33-.15-.54-.35-.62-.61-.04-.13-.08-.32-.08-.88,0-.7.02-1.31.06-1.84.03-.51.06-.88.08-1.1.05-.8.52-.89.72-.89.34,0,.69.25.69.8,0,.12,0,.26.01.42,0,.16.03.32.06.5.09.43.25.8.46,1.1.21.3.48.54.79.72.33.19.69.33,1.08.42.96.22,2.01.18,2.75-.15.42-.18.78-.43,1.05-.72.27-.29.48-.61.62-.99.14-.38.21-.77.21-1.14,0-.43-.05-.82-.14-1.16-.1-.35-.25-.69-.47-1.02-.23-.34-.53-.7-.9-1.06-.39-.38-.88-.82-1.45-1.31l-1.23-1.01c-.74-.61-1.36-1.19-1.83-1.72-.48-.53-.86-1.06-1.15-1.58-.28-.53-.48-1.04-.59-1.53-.11-.48-.16-.98-.16-1.49,0-.8.14-1.54.43-2.2.3-.67.72-1.25,1.26-1.73.54-.48,1.2-.86,1.95-1.12.74-.25,1.58-.38,2.51-.38.57,0,1.05.02,1.47.07.43.05.84.12,1.21.22.21.05.39.08.52.1.11,0,.21.02.3.02.54,0,.78.36.78.69,0,.08-.02.36-.06.85-.03.45-.05,1.14-.05,2.05,0,.75-.23,1.13-.69,1.13-.31,0-.57-.18-.65-.46-.02-.08-.04-.18-.07-.32-.02-.17-.05-.39-.11-.67-.07-.32-.14-.46-.17-.51-.05-.09-.12-.18-.22-.31-.06-.08-.19-.21-.45-.37-.23-.15-.53-.27-.9-.37-.38-.11-.86-.16-1.42-.16-.84,0-1.51.23-2.07.71-.54.46-.8,1.1-.8,1.96,0,.34.05.64.13.94.08.28.24.57.46.87.23.32.56.67.96,1.05.42.39.96.84,1.6,1.34l.76.6c.84.67,1.51,1.27,2.04,1.83.55.58.98,1.12,1.29,1.66.33.54.56,1.09.68,1.65.12.53.18,1.1.18,1.68Z"/>
      <path class="cls-1" d="M47.41,51.84c0,1.02-.18,1.98-.54,2.84s-.88,1.61-1.52,2.23c-.65.62-1.42,1.1-2.31,1.43-.86.33-1.82.5-2.85.5h-.29c-.13,0-.25-.01-.35-.03-.11,0-.23-.03-.33-.08-.26-.11-.41-.34-.41-.61,0-.33.21-.6.53-.68.09-.03.27-.06.71-.06.59,0,1.16-.11,1.68-.31.52-.2.97-.48,1.34-.84.37-.35.67-.78.89-1.25.21-.47.32-.99.32-1.56,0-.21,0-.47-.04-.78-.02-.29-.08-.62-.17-.98-.09-.34-.23-.71-.42-1.08-.17-.35-.43-.69-.75-1.02-.33-.32-.66-.57-.98-.74-.34-.17-.66-.29-.96-.37-.29-.07-.56-.11-.8-.11h-.65c-.22,0-.42.02-.61.04-.13.02-.22.04-.28.06-.01.02-.01.05-.01.09v11.23c0,1.31.01,2.48.02,3.51,0,1.01.04,1.8.11,2.36.04.36.1.64.21.86.05.11.19.18.43.21.21.04.42.07.64.08.23.02.41.03.52.03.5,0,.72.34.72.66,0,.12-.04.72-.93.72-.39,0-.78,0-1.16-.01l-1.06-.03c-.32-.01-.59-.02-.8-.03-.19-.01-.31-.01-.35-.01l-1.86.07c-.3.01-.56.01-.76.01-.89,0-.94-.6-.94-.72,0-.32.23-.66.72-.66.11,0,.23-.01.35-.02.12-.02.23-.04.34-.07.12-.03.18-.06.22-.19.09-.23.16-.54.21-.9.07-.56.11-1.36.12-2.36,0-1.03.01-2.2.01-3.51v-9.03c0-.4-.01-.73-.01-.97-.01-.24-.03-.46-.04-.67-.04-.49-.13-.73-.2-.85-.03-.05-.15-.18-.58-.26-.09-.03-.18-.05-.38-.06-.18-.01-.33-.01-.45-.01-.49,0-.72-.35-.72-.67,0-.12.05-.72.94-.72.31,0,.64.01.98.02l1.73.05c.2,0,.33.02.38.02.3,0,.79-.02,1.46-.04,1.6-.07,3.17-.08,4.26.16.64.14,1.15.29,1.58.46.44.18.78.37,1.04.58.25.19.42.34.54.46.34.32.68.79,1.01,1.42.33.64.5,1.38.5,2.19Z"/>
      <path class="cls-1" d="M95.86,70.57c-.08.02-.17.06-.29.1-.9.37-1.84.64-2.77.79-.94.16-1.75.24-2.42.24-.34,0-.84-.02-1.5-.06-.65-.05-1.47-.18-2.42-.38-.96-.2-2.07-.53-3.3-.95-1.22-.43-2.59-1.02-4.06-1.78l-4.89-2.52c.29-.24.6-.51.92-.83.58-.57,1.14-1.27,1.64-2.07.51-.8.95-1.73,1.3-2.76.35-1.05.53-2.21.53-3.46,0-1.64-.29-3.15-.86-4.47-.57-1.33-1.37-2.48-2.37-3.4-1.01-.92-2.21-1.64-3.58-2.14-1.36-.49-2.85-.74-4.43-.74-1.3,0-2.5.17-3.57.5-1.07.34-2.03.8-2.86,1.37-.85.57-1.58,1.24-2.18,2-.59.75-1.1,1.54-1.49,2.36-.4.82-.7,1.67-.89,2.53-.19.85-.28,1.67-.28,2.43,0,1.29.21,2.6.62,3.91.42,1.32,1.09,2.54,1.99,3.63.91,1.09,2.09,1.99,3.49,2.67,1.42.69,3.13,1.03,5.09,1.03.38,0,.79-.02,1.2-.07.42-.04.83-.11,1.23-.2.4-.08.78-.19,1.14-.32.25-.08.49-.18.7-.27l4.37,2.41c2.24,1.25,4.31,2.2,6.14,2.8,1.86.62,3.66.93,5.36.93,1.03,0,2.01-.07,2.9-.2.9-.13,1.73-.29,2.49-.49.75-.19,1.43-.4,2.02-.63.59-.22,1.08-.43,1.48-.62.43-.22.5-.54.5-.72,0-.47-.39-.79-.95-.62ZM70.02,66.21c-.81.22-1.51.32-2.09.32-1.16,0-2.24-.23-3.23-.69-.99-.46-1.87-1.12-2.61-1.98-.75-.86-1.34-1.91-1.76-3.14-.43-1.23-.65-2.63-.65-4.16,0-1.43.2-2.69.58-3.75.37-1.05.9-1.94,1.56-2.64.65-.7,1.44-1.23,2.34-1.57.91-.35,1.92-.53,3.01-.53,1,0,1.98.21,2.91.62.94.4,1.77,1.01,2.48,1.8.72.8,1.31,1.8,1.75,2.99.44,1.2.67,2.61.67,4.18,0,1.9-.27,3.46-.79,4.62-.52,1.15-1.16,2.06-1.89,2.68s-1.5,1.04-2.28,1.25Z"/>
      <path class="cls-1" d="M109.73,66.81c-.08,0-.21-.01-.38-.01-.17-.01-.38-.04-.61-.07-.31-.05-.73-.18-1.25-.4-.5-.21-1.1-.69-1.79-1.41-.8-.86-1.67-1.87-2.57-3.03l-2.81-3.58c1.09-1.06,1.87-2.09,2.34-3.08.53-1.08.79-2.19.79-3.29,0-.52-.08-1.01-.23-1.47-.15-.44-.33-.83-.54-1.17-.21-.34-.44-.64-.68-.89s-.45-.44-.64-.59c-.79-.57-1.66-.94-2.61-1.09-.89-.14-1.79-.21-2.69-.21-.22,0-.5.01-.84.02l-1.89.05c-.26,0-.42.02-.49.02-.04,0-.16-.01-.35-.02l-1.75-.05c-.35,0-.68-.02-.99-.02-.89,0-.94.6-.94.72,0,.32.23.67.72.67.12,0,.27,0,.45.01.19.01.29.03.38.06.42.08.54.21.57.26.08.12.17.36.21.85.01.21.03.43.04.67,0,.24.01.57.01.97v9.03c0,1.31-.01,2.48-.01,3.51-.01,1-.05,1.8-.12,2.36-.05.36-.12.67-.21.9-.05.13-.1.16-.22.19-.11.03-.23.05-.34.07-.13.01-.24.02-.35.02-.49,0-.72.34-.72.66,0,.12.05.72.94.72.2,0,.45,0,.76-.01l.84-.03c.27-.01.6-.02.97-.04.03,0,.15,0,.35.01.21.01.47.02.8.03l1.05.03c.39.01.77.01,1.16.01.89,0,.94-.6.94-.72,0-.32-.23-.66-.72-.66-.12,0-.3-.01-.52-.03-.23-.01-.44-.04-.65-.08-.23-.03-.38-.1-.43-.21-.1-.21-.17-.5-.2-.86-.07-.56-.11-1.36-.12-2.36-.01-1.03-.01-2.2-.01-3.51v-.37h2.99c.13.19.32.44.55.74.23.3.47.63.73.99l.84,1.15c.29.41.58.8.88,1.18.78,1.04,1.45,1.9,2,2.58.59.71,1.21,1.24,1.83,1.57.39.23.84.39,1.32.48.45.07,1.08.11,1.86.11h1.94c.33,0,.53-.02.66-.06.31-.09.5-.34.5-.66s-.24-.66-.75-.66ZM99.72,55.8c-.28.63-.62,1.09-1.02,1.37-.25.17-.51.29-.81.34-.95.17-1.79.09-2.62-.03-.53-.08-.78-.17-.89-.22v-8.74c.12-.03.28-.05.48-.07.31-.03.67-.05,1.07-.05,1.33,0,2.34.42,3.09,1.28s1.13,2.11,1.13,3.69c0,.96-.14,1.78-.43,2.43Z"/>
      <path class="cls-1" d="M32.7,62.38l-1.48-1.91c-.08-.11-.19-.22-.31-.32-.46-.39-1.06-.55-1.66-.46-.17.31-.44.56-.78.68-.47.73-1.21,1.24-2.07,1.41-.65.12-1.33.03-1.95-.26l-2.15-1.02,2.38.07c.14,0,.3-.01.45-.04.61-.12,1.14-.5,1.45-1.04-.06-.16-.09-.31-.09-.48,0-.1.02-.19.04-.28-.33-1-.14-2.11.51-2.94.42-.52.99-.9,1.65-1.08l2.31-.65-1.86,1.52c-.12.09-.22.2-.32.32-.39.49-.53,1.11-.41,1.73.05.01.1.03.15.06.9-.15,1.8.1,2.51.69.51.43.87,1,1.04,1.67l.59,2.33Z"/>
      <path class="cls-1" d="M55.03,62.38l-1.47-1.91c-.09-.11-.2-.22-.32-.32-.46-.39-1.06-.55-1.66-.46-.17.31-.44.56-.78.68-.46.73-1.21,1.24-2.07,1.41-.65.12-1.33.03-1.95-.26l-2.15-1.02,2.38.07c.15,0,.3-.01.45-.04.62-.12,1.14-.5,1.46-1.04-.07-.16-.1-.31-.1-.48,0-.1.02-.19.04-.28-.33-1-.14-2.11.52-2.94.41-.52.98-.9,1.64-1.08l2.31-.65-1.86,1.52c-.11.09-.22.2-.32.32-.39.49-.53,1.11-.4,1.73.05.01.09.03.14.06.9-.15,1.8.1,2.51.69.51.43.87,1,1.04,1.67l.59,2.33Z"/>
      <path class="cls-1" d="M89.18,62.38l-1.47-1.91c-.09-.11-.19-.22-.31-.32-.46-.39-1.06-.55-1.66-.46-.17.31-.44.56-.78.68-.47.73-1.21,1.24-2.07,1.41-.66.12-1.33.03-1.95-.26l-2.16-1.02,2.38.07c.15,0,.31-.01.46-.04.61-.12,1.14-.5,1.45-1.04-.06-.16-.09-.31-.09-.48,0-.1.02-.19.04-.28-.33-1-.14-2.11.51-2.94.42-.52.99-.9,1.65-1.08l2.31-.65-1.86,1.52c-.12.09-.23.2-.32.32-.39.49-.53,1.11-.41,1.73.05.01.1.03.15.06.17-.03.34-.04.51-.04.73,0,1.43.25,2,.73.51.43.87,1,1.03,1.67l.59,2.33Z"/>
    </g>
  </g>
</svg>