<?xml version="1.0" encoding="UTF-8"?>
<svg id="Graphics" xmlns="http://www.w3.org/2000/svg" viewBox="0 0 120 120">
  <defs>
    <style>
      .cls-1 {
        fill: none;
      }

      .cls-1, .cls-2 {
        stroke-width: 0px;
      }

      .cls-3 {
        font-family: Trajan-Regular, Trajan-Regular;
        font-size: 8px;
        stroke: #000;
        stroke-linejoin: bevel;
      }

      .cls-3, .cls-2 {
        fill: #000;
      }
    </style>
  </defs>
  <path class="cls-1" d="M62.63,80.49l.41-.14c2.39,6.79,8.67,12.81,12.52,16.01-1.3-9.1-5.32-21.54-9.92-25.11-.49.06-.98.09-1.49.11.01,3.79-.6,6.79-1.51,9.14Z"/>
  <path class="cls-1" d="M75.83,104.24c.12-.71.18-1.55.18-2.51-.91.05-2.15.09-3.83.09-2.6,0-6.25-.09-11.32-.38-3.92-.22-7.03-.56-9.63-1.02,1.08,2.29,3.08,4.92,4.27,6.35,1.48.14,2.99.22,4.51.22,5.55,0,10.88-.97,15.83-2.75Z"/>
  <path class="cls-1" d="M47.73,99.65c-.79-.21-1.53-.44-2.23-.69,1.11,3.54,2.31,5.63,2.96,6.59.91.23,1.82.43,2.75.6-1.37-1.89-2.89-4.33-3.48-6.5Z"/>
  <path class="cls-1" d="M17.7,54.85c-.22,0-.42.03-.58.09-.55.19-.73.61-.55,1.27.1.35.26.57.56.71.84.41,2.36.2,3.62-.12-.99-1.44-2.18-1.95-3.04-1.95Z"/>
  <path class="cls-1" d="M61.11,83.52c-1.57,2.5-3.35,3.91-4.37,4.7l-1.85-2.36c1.77-1.38,6.32-4.97,6.25-14.64-4.21-.53-8.71-2.53-12.47-6.92l2.28-1.95c7.18,8.4,15.96,5.78,17.64,5.17.69-.25.88-.58.96-.8.3-.83-.26-2.23-.56-2.74l1.07-2.24c.44-.08.95-.34,1.01-.49.01-.03,0-.22-.17-.56-.35.04-.72.09-1.13.17-.19.04-.59.5-.78.92l-2.74-1.23c.1-.23,1.06-2.28,2.96-2.64.65-.12,1.24-.19,1.77-.25.45-.05,1.04-.12,1.29-.21.02-.12.03-.41-.06-1-.52-.04-1.03-.09-1.53-.15-.56-.06-1.09-.12-1.57-.15-.33-.02-.64-.09-.92-.2-1.66,2.27-2.81,5.57-3.16,6.87l-2.9-.78c.07-.24,1.5-5.45,4.3-8.69-.03-1.46.93-3.13,2.82-3.43l.47,2.96c-.07.01-.15.04-.21.14-.03.04-.05.09-.06.13.5.03,1.02.09,1.57.15,1.44.16,3.06.34,4.12,0,.16-.27.02-1.9-1.41-4.17-.69-1.1-.91-1.9-1.08-2.55-.19-.7-.33-1.25-1.19-2.33-.99-1.25-.97-2.86-.95-4.57,0-.49.01-1,0-1.54l-.28.9c-5.32-1.66-9.23,1.17-10.19,2.71l-2.54-1.59c1.71-2.73,6.73-5.69,12.78-4.21-.27-1.36-.85-2.8-2.01-4.29-.59.31-1.24.53-1.84.65-.42.08-.84.12-1.25.12-.37,0-.72-.04-1.07-.1-.1.31-.24.6-.4.87-.76,1.21-2.04,1.86-3.53,1.86-.1,0-.2-.01-.3-.02-.33,1.34-1.29,2.53-2.65,3.3.02.14.05.28.06.42.13,1.53-.52,2.92-1.78,4,.19.74.19,1.54-.03,2.35-.47,1.76-1.79,3.05-3.41,3.49.1,1.78-.57,3.64-1.86,4.96.13.46.2.92.23,1.36h.01c.31,1.1,2.77.84,2.8.83l.42,2.97c-.33.05-.7.08-1.1.08-.87,0-1.85-.15-2.72-.53-.18.43-.39.81-.59,1.11l-.08.11-1.2,1.47c.53,2.32.22,4.64-.8,6.22-.98,1.52-2.48,2.3-4.23,2.3-.08,0-.16-.01-.24-.01.13,2.03-.8,3.98-2.23,5.1-.82.64-1.72.96-2.62.96-.3,0-.6-.04-.9-.11-.58,3.77-3.08,7.17-3.75,8.03-.26.75-1.16,4.42,4.21,7.81,7.19,4.53,10.14,6.39,23.59,7.15,6.26.35,10.26.4,12.77.36-3.69-3.04-9.59-8.62-12.68-15.28ZM68,39.79l.29.23c.97.97,1.48,2.21,1.45,3.51-.03.96-.38,2.41-1.86,3.93-1.06,1.51-3.11,2.72-5.25,2.72-.61,0-1.22-.1-1.82-.32l1.03-2.82c.52.19,1.07.17,1.6.03-1.04-.47-2.16-1.29-3.29-2.71h.02s-.81-.79-.81-.79c3.03-3.15,7.21-4.65,8.64-3.79ZM53.08,55.34c-1.04,0-1.88-.85-1.88-1.9s.84-1.9,1.88-1.9,1.88.85,1.88,1.9-.84,1.9-1.88,1.9ZM50.64,93.3c-.27-.09-6.79-2.24-12.43-11.26l2.54-1.59c5.06,8.1,10.74,9.98,10.79,9.99l-.91,2.86Z"/>
  <path class="cls-1" d="M33.4,71.42c-1.76-2.79-1.49-4.59-1.03-6.01-4.01,1.08-6.1,1.85-6.1,3.45,0,1.05.34,1.61.66,1.91l1.79-1.7,2.06,2.18-2.53,2.39c-.21.91-.25,3.33,3.94,5.98,1.39-2.37,2.71-5.8,1.19-8.2Z"/>
  <path class="cls-2" d="M10.01,60c0,22.95,15.55,42.33,36.67,48.17-.26-.29-1.22-1.49-2.35-3.88-7.59-2.69-14.28-7.28-19.52-13.2l-1.13,1.02-2.01-2.23,1.22-1.1c-6.19-7.96-9.89-17.94-9.89-28.78,0-25.91,21.08-46.99,46.99-46.99s46.99,21.08,46.99,46.99c0,19.18-11.56,35.7-28.07,43-.07,1.43-.27,2.63-.62,3.51,18.53-7.32,31.69-25.4,31.69-46.5,0-27.56-22.42-49.99-49.99-49.99S10.01,32.44,10.01,60"/>
  <path class="cls-2" d="M75.83,104.24c-4.95,1.78-10.27,2.75-15.83,2.75-1.52,0-3.02-.08-4.51-.22.17.2.33.39.46.54l-2.25,1.99c-.24-.28-1.31-1.5-2.5-3.14-.93-.18-1.84-.37-2.75-.6.3.44.48.65.49.66l-2.16,2c4.21,1.16,8.64,1.79,13.21,1.79,6.4,0,12.51-1.22,18.14-3.42l-2.64-1.11c.14-.34.25-.75.33-1.22Z"/>
  <path class="cls-2" d="M60.15,44.38c1.12,1.41,2.25,2.24,3.29,2.71-.53.14-1.08.16-1.6-.03l-1.03,2.82c.6.22,1.21.32,1.82.32,2.14,0,4.19-1.21,5.25-2.72,1.48-1.52,1.83-2.98,1.86-3.93.03-1.3-.48-2.54-1.45-3.51l-.29-.23c-1.44-.86-5.61.64-8.64,3.79l.81.78h-.02ZM65.32,44.58c-.43-.1-.96-.33-1.54-.78.61-.39,1.17-.66,1.66-.85-.11.56-.13,1.12-.12,1.63Z"/>
  <path class="cls-2" d="M69.14,70.49c.15-.05.32-.09.47-.15,1.74-.63,2.46-1.76,2.76-2.6.46-1.28.24-2.64-.09-3.66.6-.34,1.21-.86,1.54-1.64.24-.56.37-1.38.03-2.42.33-.19.63-.44.88-.79.56-.8.62-1.82.5-2.85.28-.05.55-.11.81-.19.9-.28,1.57-.93,1.9-1.82.89-2.43-1.05-5.82-1.67-6.81-.45-.71-.57-1.16-.72-1.72-.23-.87-.49-1.85-1.74-3.43-.33-.42-.32-1.51-.3-2.67.03-2.63.06-6.48-3.35-10.46.23-1.87.29-4.06-1.02-5.81-.54-.72-1.27-1.29-2.17-1.71.11-.35.18-.68.18-.99,0-.94-.63-2.02-2.41-2.24-1-.12-2.42.06-3.92.62-10.13-4.92-19.08-3.76-28.11,3.68-.98.81-1.86,1.69-2.65,2.61l-.06-.03c-.03.07-.06.14-.09.21-3.19,3.82-4.78,8.39-5.57,12.31l-.06.04s.02.03.04.05c-.55,2.77-.7,5.2-.72,6.81-1.14-.43-2.16-.53-3.07-.3-.99.25-2.31,1.01-2.99,3.21-.47,1.5-.29,2.93.46,4.11-.65-.04-1.29.04-1.87.24-2.05.71-3.06,2.72-2.47,4.9.33,1.19,1.06,2.09,2.14,2.61.79.38,1.69.53,2.6.53.97,0,1.94-.16,2.78-.37.26.66.74,1.27,1.42,1.74.29.2.42.51.31.76-.2.47-1.19.81-2.89.46l-.6,2.94c.28.06.55.09.81.13.66,2.7,2.66,4.52,3.36,5.08.38,1.13,1.04,1.92,1.72,2.42-.32,1.93.03,5.44,5.1,8.73l-7.51,6.75-1.22,1.1,2.01,2.23,1.13-1.02,5.3-4.77c.43,2.36,1.96,5.14,5.76,7.53,2.23,1.41,4.11,2.59,6.08,3.58.74,2.93,1.59,5.18,2.38,6.85,1.12,2.38,2.09,3.59,2.35,3.88.03.04.05.06.06.07l.04-.04,2.16-2s-.19-.22-.49-.66c-.65-.96-1.85-3.05-2.96-6.59.71.25,1.45.48,2.23.69.59,2.17,2.11,4.61,3.48,6.5,1.18,1.64,2.25,2.87,2.5,3.14l2.25-1.99c-.13-.15-.29-.34-.46-.54-1.2-1.43-3.19-4.06-4.27-6.35,2.6.46,5.71.79,9.63,1.02,5.07.29,8.72.38,11.32.38,1.68,0,2.93-.04,3.83-.09,0,.96-.05,1.81-.18,2.51-.08.47-.19.88-.33,1.22l2.64,1.11.12.05s.03-.08.04-.12c.35-.88.55-2.08.62-3.51.44-8.6-3.82-25.61-9.78-32.5ZM75.55,96.35c-3.85-3.2-10.13-9.21-12.52-16.01l-.41.14c.91-2.35,1.52-5.35,1.51-9.14.51-.02,1-.05,1.49-.11,4.6,3.57,8.62,16.01,9.92,25.11ZM66.75,25.28c.65.86.62,2.21.45,3.56-.29.22-.97.57-1.8.62-.5.03-.94-.06-1.33-.25-.27-.83-.74-1.69-1.46-2.53,1.08-.7,2.02-1.5,2.76-2.33.61.23,1.08.54,1.38.93ZM61.16,31.64c-.27.43-.89.54-1.66.34-.5-.97-1.44-2.03-3.17-3,0-.03.02-.05.03-.08,1.2-.11,2.36-.4,3.46-.81,1.44,1.39,1.79,2.85,1.35,3.55ZM51.12,45.79c-.39-.54-1.07-1.22-2.13-1.63.08-1.34-.28-3.28-2.29-5.26.23-.38.42-.75.58-1.1,1.54,3.41,4.34,4.67,4.42,4.7,1.06.54,1.01,1.4.88,1.87-.17.63-.69,1.29-1.46,1.42ZM44.97,55.79c-1.83-1.69-1.78-2.83-1.71-4.4.08-1.72.17-3.83-2.44-6.04.03-.14.06-.28.09-.42,1.91.62,2,1.18,2.17,2.19.22,1.32.53,3.14,2.94,5.3,2.49,2.23,1.07,4.82.78,5.28l-.12.15c-.46-.74-1.03-1.43-1.71-2.06ZM41.45,66.2c-1.63-2.28-1.13-3.05-.36-4.18.79-1.16,2.12-3.1-.52-5.8-1.28-1.31-1.04-2.03-.6-3.33.09-.25.18-.54.26-.85-.02,1.63.25,3.7,2.7,5.95,2.38,2.19,2.87,5.81,1.72,7.59-.64.98-1.72,1.18-3.2.62ZM36.86,72.01c-.18-.75-.47-1.48-.92-2.19-1.26-2-.98-2.78-.51-4.06.48-1.32,1.15-3.12-.16-5.97-.86-1.86-.42-3.13.09-4.61.43-1.25.94-2.74.33-4.35.52-.19,1.01-.39,1.48-.62.39.42.28.78-.04,1.73-.5,1.5-1.26,3.76,1.3,6.38.92.94.89.98.19,2.01-.94,1.38-2.51,3.68.52,7.8,1.11,1.52.41,3.39-.51,4.11-.62.48-1.18.41-1.77-.23ZM23.8,66.65c-.2-.33-.38-.69-.52-1.09,1.24-.43,2.03-1.24,2.4-2.11.67-1.58.11-3.39-1.37-4.4-.27-.18-.35-.36-.33-.4.06-.16.62-.54,1.88-.36,3.64.52,5.27-1.41,5.82-2.31.14-.11.26-.23.39-.35-.38,1.45-.54,3.24.47,5.42.19.42.32.78.39,1.11-4.29,1.13-7.84,2.07-9.13,4.49ZM22.94,54.73c2.11.37,4.36.14,5.8-.8.62-.4,1.21-.74,1.78-1.04-.22.31-.51.6-.88.87l-.49.63s-.57,1.24-2.85.91c-1.13-.16-2.06-.06-2.82.2-.17-.28-.35-.54-.54-.78ZM54.05,26.04c-1.29.14-2.42.4-3.4.75-.6,0-2.91-.2-4.92-2.15.62-.24,1.27-.56,1.96-.95,1.99-1.13,4.63-.74,6.11.2.39.25.67.52.84.79-.21.43-.42.88-.58,1.37ZM53.8,40.31c-.25-.19-.52-.36-.81-.51-.11-.05-2.37-1.11-3.31-4.09,3.03.66,4.53,2.18,4.63,3.33.04.44-.14.87-.5,1.26ZM40.17,49.46c-.14-.36-.35-.72-.65-1.08.02-.02.03-.04.05-.06.32.39.5.76.6,1.14ZM34.57,48.04c.11-.67.3-1.28.66-1.82.74-1.11,1.57-1.45,2.71-1.69-.06.32-.14.63-.24.92-.48,1.45-1.23,1.91-3.12,2.59ZM37.44,33.77c-1.4-1.26-1.17-1.81-.57-3.28.61-1.48,1.48-3.6-.45-6.21,4.31,3.53,3.89,8.3,3.75,9.96-.02.19-.04.48,0,.79-.25.29-.47.59-.66.91-.53-.67-1.2-1.39-2.07-2.17ZM42.69,39.24c-.46.5-.91.87-1.37,1.16.21-2.43.72-4.03,3.51-4.59-.27.95-.84,2.01-2.14,3.43ZM42.08,33.6l.05-.14s.07.04.1.06c-.05.02-.1.05-.15.08ZM44.86,41.31c.95,1.05,1.16,1.96,1.15,2.56-.31.04-.63.1-.98.18-.41-.52-.96-.97-1.75-1.37.52-.36,1.05-.81,1.57-1.38ZM49.55,35.24s.01,0,.02,0v.04s-.01-.02-.02-.04ZM48.31,32.43c.39-1.32,1.96-2.64,4.77-3.21-.75,1.81-1.93,2.79-4.77,3.21ZM41.95,24.73c1.49,2.35,3.39,3.6,5.07,4.28-.95.97-1.5,2.04-1.7,3.05-.04.23-.08.44-.11.66-.74.09-1.4.24-1.98.42.1-4.52-1.41-8.16-4.51-10.86.07-.04.14-.08.21-.12,1.05,1.34,2.04,2.16,3.03,2.57ZM33.85,25.83c1.14,1.34.8,2.18.25,3.5-.66,1.58-1.64,3.98,1.33,6.66,3.17,2.85,2.8,4.15,2.8,4.16,0,0,.02-.05.1-.16l.02.02c-.05.47-.08.94-.1,1.39-.02,0-.04,0-.05.01-1.01.19-2.1.41-3.14.97-.17-.74-.04-1.43.12-2.22.27-1.36.68-3.41-1.68-4.94-2.15-1.4-3.38-2.74-1.02-7.97.43-.49.88-.97,1.37-1.43ZM31.86,37.75c.62.4.64.51.38,1.84-.24,1.22-.58,2.98.48,5-.14.21-.26.43-.37.64-1.08-2.65-2.92-5.46-4.76-7.89.26-1.07.58-2.18.99-3.29.53,1.42,1.61,2.62,3.28,3.7ZM48.63,50.79c-.19-.21-.39-.41-.61-.61-1.49-1.33-1.76-2.3-1.93-3.28,1.01-.19,2.2-.15,2.74.85.42.78.38,2.02-.19,3.04ZM55.88,35.7c-.68-.75-1.58-1.41-2.66-1.94.78-.55,1.39-1.23,1.89-2.02,1.26.75,1.94,1.59,1.9,2.36-.03.58-.47,1.18-1.14,1.6ZM57.48,25.69c.06-.1.12-.19.18-.28h.13c0-.07,0-.14,0-.22,1.02-1.54,2.36-2.42,3.24-2.86,1.1-.55,2.09-.77,2.76-.82-.86,1.28-3.2,3.44-6.31,4.19ZM57.58,20.99c-.42.34-.82.72-1.2,1.13-.29-.27-.61-.53-.98-.77-2.2-1.4-6.02-2.09-9.21-.28-2.01,1.14-2.92,1.65-4.55-.28,5.12-2.14,10.33-2.07,15.93.19ZM26.86,41.49c2.33,3.49,3.59,6.44,3.44,8.17,0,0,0,0-.01,0-1.32-1.27-2.53-2.31-3.64-3.11-.02-.45-.09-2.41.22-5.06ZM20.41,48.65c.22-.7.51-1.1.86-1.19.06-.02.15-.03.27-.03.69,0,2.42.47,5.96,3.74-.13.08-.26.16-.39.25-1.22.79-4.42.66-6.01-.55-.77-.58-.98-1.27-.68-2.22ZM17.13,56.92c-.3-.15-.46-.36-.56-.71-.18-.66,0-1.08.55-1.27.17-.06.37-.09.58-.09.86,0,2.05.51,3.04,1.95-1.26.33-2.77.54-3.62.12ZM28.27,73.64l2.53-2.39-2.06-2.18-1.79,1.7c-.32-.3-.66-.86-.66-1.91,0-1.6,2.09-2.37,6.1-3.45-.47,1.42-.73,3.22,1.03,6.01,1.52,2.41.2,5.83-1.19,8.2-4.2-2.65-4.15-5.07-3.94-5.98ZM61.02,98.44c-13.46-.76-16.41-2.62-23.59-7.15-5.38-3.39-4.47-7.06-4.21-7.81.67-.86,3.17-4.26,3.75-8.03.3.07.6.11.9.11.9,0,1.8-.31,2.62-.96,1.43-1.12,2.36-3.07,2.23-5.1.08,0,.16.01.24.01,1.75,0,3.25-.79,4.23-2.3,1.02-1.57,1.33-3.9.8-6.22l1.2-1.47.08-.11c.2-.3.41-.68.59-1.11.88.38,1.86.53,2.72.53.4,0,.77-.03,1.1-.08l-.42-2.97s-2.49.26-2.8-.84h-.01c-.03-.44-.1-.9-.23-1.36,1.29-1.32,1.96-3.18,1.86-4.96,1.62-.44,2.94-1.73,3.41-3.49.22-.81.22-1.61.03-2.35,1.26-1.08,1.91-2.48,1.78-4-.01-.14-.04-.28-.06-.42,1.36-.78,2.32-1.96,2.65-3.3.1,0,.2.02.3.02,1.49,0,2.77-.64,3.53-1.86.16-.26.3-.56.4-.87.35.07.7.1,1.07.1.41,0,.83-.04,1.25-.12.6-.12,1.25-.34,1.84-.65,1.16,1.49,1.73,2.94,2.01,4.29-6.05-1.48-11.06,1.48-12.78,4.21l2.54,1.59c.97-1.54,4.87-4.37,10.19-2.71l.28-.9c.02.53.01,1.05,0,1.54-.02,1.71-.04,3.32.95,4.57.86,1.08,1,1.64,1.19,2.33.17.65.39,1.45,1.08,2.55,1.42,2.26,1.57,3.9,1.41,4.17-1.06.34-2.69.16-4.12,0-.55-.06-1.07-.12-1.57-.15.01-.04.03-.09.06-.13.07-.11.15-.13.21-.14l-.47-2.96c-1.89.3-2.85,1.97-2.82,3.43-2.8,3.24-4.24,8.44-4.3,8.69l2.9.78c.35-1.31,1.5-4.61,3.16-6.87.29.11.59.19.92.2.48.02,1.01.08,1.57.15.49.05,1.01.11,1.53.15.1.59.08.88.06,1-.25.09-.85.16-1.29.21-.53.06-1.12.13-1.77.25-1.9.36-2.86,2.41-2.96,2.64l2.74,1.23c.19-.42.59-.88.78-.92.4-.08.77-.12,1.13-.17.17.34.18.53.17.56-.06.15-.57.41-1.01.49l-1.07,2.24c.3.51.86,1.91.56,2.74-.08.22-.27.55-.96.8-1.68.61-10.46,3.22-17.64-5.17l-2.28,1.95c3.76,4.4,8.26,6.39,12.47,6.92.07,9.67-4.48,13.26-6.25,14.64l1.85,2.36c1.01-.79,2.8-2.21,4.37-4.7,3.09,6.66,8.99,12.24,12.68,15.28-2.5.04-6.51,0-12.77-.36Z"/>
  <path class="cls-2" d="M40.75,80.44l-2.54,1.59c5.64,9.03,12.16,11.18,12.43,11.26l.91-2.86c-.06-.02-5.73-1.9-10.79-9.99Z"/>
  <g>
    <text class="cls-3" transform="translate(80.63 27.53) rotate(35.2)"><tspan x="0" y="0">S</tspan></text>
    <text class="cls-3" transform="translate(84.23 30.06) rotate(42.05)"><tspan x="0" y="0">E</tspan></text>
    <text class="cls-3" transform="translate(87.76 33.17) rotate(49.96)"><tspan x="0" y="0">R</tspan></text>
    <text class="cls-3" transform="translate(91.4 37.46) rotate(58.33)"><tspan x="0" y="0">V</tspan></text>
    <text class="cls-3" transform="translate(94.38 42.4) rotate(65.23)"><tspan x="0" y="0">I</tspan></text>
    <text class="cls-3" transform="translate(95.88 45.4) rotate(72.68)"><tspan x="0" y="0">U</tspan></text>
    <text class="cls-3" transform="translate(97.75 51.58) rotate(80.91)"><tspan x="0" y="0">S</tspan></text>
    <text class="cls-3" transform="translate(98.41 55.96) rotate(86.1)"><tspan x="0" y="0"> </tspan></text>
    <text class="cls-3" transform="translate(98.66 58.4) rotate(91.91)"><tspan x="0" y="0">T</tspan></text>
    <text class="cls-3" transform="translate(98.54 63.74) rotate(100.76)"><tspan x="0" y="0">U</tspan></text>
    <text class="cls-3" transform="translate(97.28 70.06) rotate(109.1)"><tspan x="0" y="0">L</tspan></text>
    <text class="cls-3" transform="translate(95.8 74.39) rotate(116.03)"><tspan x="0" y="0">L</tspan></text>
    <text class="cls-3" transform="translate(93.76 78.5) rotate(122.06)"><tspan x="0" y="0">I</tspan></text>
    <text class="cls-3" transform="translate(92.07 81.41) rotate(129.45)"><tspan x="0" y="0">U</tspan></text>
    <text class="cls-3" transform="translate(87.94 86.34) rotate(137.52)"><tspan x="0" y="0">S</tspan></text>
    <text class="cls-3" transform="translate(84.63 89.31) rotate(142.74)"><tspan x="0" y="0"> </tspan></text>
  </g>
</svg>