<?xml version="1.0" encoding="UTF-8"?>
<svg id="Graphics" xmlns="http://www.w3.org/2000/svg" viewBox="0 0 120 120">
  <defs>
    <style>
      .cls-1 {
        fill: none;
      }

      .cls-1, .cls-2 {
        stroke-width: 0px;
      }

      .cls-3 {
        font-family: Trajan-Regular, Trajan-Regular;
        font-size: 8px;
        stroke: #000;
        stroke-linejoin: bevel;
      }

      .cls-3, .cls-2 {
        fill: #000;
      }
    </style>
  </defs>
  <path class="cls-1" d="M82.43,39.96c-.11.28-.23.67-.32.96-.49,1.6-1.53,4.92-5.06,3.97-1.16-.31-1.65.06-1.81.19-.62.48-1.02,1.56-1.02,2.75h-3c0-.54.05-1.07.15-1.57-.5.75-1.35,1.24-2.6,1.47-.22.04-.38.08-.49.12.09.24.24.58.35.82.65,1.39,1.99,4.29-1.23,6.38-.84.55-.87,1.11-.74,2.49.11,1.11.29,2.98-1.59,3.8-.38.17-.79.25-1.2.25-.84,0-1.67-.35-2.3-.97-.37.14-.75.22-1.14.22-.86,0-1.71-.35-2.3-1.01-.97-1.07-.97-2.6,0-3.82l1.8,1.42c.43-.45.36-.76.06-1.72-.39-1.25-1.12-3.57,2.08-5.3.36-.2.44-.33.44-.33,0-.19-.44-.88-.67-1.24-.6-.94-1.35-2.12-.85-3.41.51-1.31,1.99-1.72,2.47-1.85.76-.21,1.05-.39,1.14-.46,0-.18-.1-.54-.17-.81-.04-.16-.09-.34-.13-.53-.77.66-1.29,1.1-1.38,1.17l-1.04.35c-1.17-.06-2.06.24-2.38.78-.25.43-.16,1.06.25,1.74,1.07,1.76.61,4.05-1.05,5.21-.28.19-.59.35-.93.47.9.71,1.5,1.78,1.69,3.08l-2.97.43c-.1-.7-.41-1.16-.91-1.35-.6-.23-1.39-.08-1.96.38-.68.55-.96,1.44-.78,2.5.21,1.31.83,1.69,2.19,2.42,1.39.75,3.11,1.67,4.03,4.17.44,1.19.97,1.52,1.2,1.43.08-.03.21-.12.17-.25l2.88-.84s.01.09.03.14l.1-.1c.67.69,1.04,1.34,1.23,1.96,1.09.87,1.82,1.78,2.22,2.76,1.29.55,2.67,1.42,3.16,2.88.25.75.21,1.48,0,2.2.73.77,1.13,1.56,1.28,2.34,1.75,1.23,2.7,2.52,2.89,3.94.02.18.02.34.02.51.93.12,1.8.25,2.6.37,3.52.54,5.42.76,6.9-.4,1.34-1.04,1.39-2.35,1.23-3.2-.51,0-1.08-.06-1.73-.18l.57-2.95c1.37.27,2.11.08,2.27-.11.1-.12.18-.57-.06-1.46-.08,0-.15,0-.23,0-.94,0-1.93-.1-2.9-.21-.96,1.52-2.28,2.31-2.38,2.37l-1.51-2.59c.08-.05,2.24-1.38,1.82-3.78l2.96-.52c.1.57.12,1.11.09,1.61,1.69.18,3.52.25,4.05-.36.26-.31.28-1.02.07-1.97-1.81-.25-3.42-.92-4.18-2.17-.43-.71-.94-2.2.54-4.15l2.39,1.81c-.36.47-.4.74-.37.78.29.48,2.4,1.16,5.22.68.5-.09.87-.24.95-.41.42-.85-1.1-3.75-2.11-5.67l-.35-.67c-1.5-2.87-2.37-5.74-3.29-10.02-1.85-.03-5.68.19-9.26,2.16l-1.44-2.63c3.8-2.08,7.75-2.5,10.09-2.53-.24-1.21-.49-2.52-.76-3.95-1.01.22-2.03.2-2.98.01ZM77.95,49.28c1.87-.89,4.2-2,7.3-1.54v.09s.07-.03.07-.03c.56,1.75.29,4.3.05,5.83h.02c0,.31.04,3.08-1.94,4.95-1.08,1.02-2.5,1.53-4.23,1.53-.29,0-.58-.01-.89-.04l.28-2.99c1.23.12,2.16-.11,2.77-.68.07-.06.12-.14.18-.21-1.79-.15-3.9-.93-5.45-3.03-.39.08-.8.13-1.21.13-.66,0-1.35-.12-2.07-.41l1.12-2.78c1.16.47,2.22.02,4-.83Z"/>
  <path class="cls-2" d="M60,10.01c-27.56,0-49.99,22.42-49.99,49.99s22.42,49.99,49.99,49.99c3.81,0,7.52-.44,11.09-1.26,1.26-.12,2.49-.33,3.68-.68,2.01-.59,4.34-1.48,6.33-2.75,17.04-7.97,28.88-25.27,28.88-45.3,0-27.56-22.42-49.99-49.99-49.99ZM38.02,86.2c.07-.13.15-.22.38-.23h0c.22,0,.59.33.96.8-.48.17-.92.38-1.34.63-.15-.58-.11-1,0-1.21ZM34.79,31.4c.11.33.25.65.42.97-.85,1.34-1.35,2.62-1.51,3.83-.69-1.29-.76-2.55-.12-3.63.35-.59.81-.97,1.22-1.17ZM37.78,27.96c.79-1.62,2.78-2.81,4.24-2.57,2.2.38,4.26,2.07,4.79,3.94.63,2.21-.91,4.14-2.3,5.37l1.98,2.25c3.21-2.82,3.63-5.57,3.42-7.4.39.28.69.6.88.96.4.78.35,1.83-.15,3.12-.71,1.87-.69,3.57.08,5.05.54,1.04,1.36,1.76,2.13,2.26l-1.89,1.64c-.89-.98-2.12-1.65-3.32-2.32-2.54-1.4-4.09-2.42-4.2-4.76-.14-2.88-1.47-5.03-3.47-5.61-.82-.24-1.66-.17-2.46.16-.15-.7-.07-1.4.27-2.1ZM51.51,23.35c1,.92,2.57,1.2,3.83.69.92-.38,1.51-1.14,1.58-2.04l.16-1.2-2.97-.4-.12.89c-.15,0-.33-.05-.44-.14-.17-.15-.04-.62,0-.76.26-.82.72-1.25,1.42-1.33.98-.11,2.11.5,2.63,1.42.52.91.36,1.99-.48,3.12-.22.3-.46.51-.73.68-.06.02-.13.04-.19.06l.02.04c-.88.46-2.01.32-3.55.07-1.44-.23-3.6-.58-4.9.81-.44-.46-.93-.88-1.46-1.25.83-2.72,2.86-3.35,3.5-3.47.25-.05.47-.07.67-.07-.11,1.14.24,2.16,1.02,2.88ZM86.17,43.9c-2.34.03-6.29.44-10.09,2.53l1.44,2.63c3.58-1.96,7.42-2.18,9.26-2.16.92,4.28,1.8,7.14,3.29,10.02l.35.67c1.01,1.92,2.53,4.82,2.11,5.67-.08.17-.45.32-.95.41-2.82.48-4.93-.2-5.22-.68-.03-.04.01-.31.37-.78l-2.39-1.81c-1.48,1.95-.97,3.44-.54,4.15.76,1.25,2.37,1.92,4.18,2.17.21.95.19,1.66-.07,1.97-.53.61-2.36.54-4.05.36.03-.5.01-1.04-.09-1.61l-2.96.52c.42,2.4-1.73,3.73-1.82,3.78l1.51,2.59c.1-.06,1.42-.85,2.38-2.37.97.12,1.96.21,2.9.21.08,0,.15,0,.23,0,.24.89.16,1.34.06,1.46-.16.19-.9.38-2.27.11l-.57,2.95c.65.13,1.22.18,1.73.18.16.85.1,2.16-1.23,3.2-1.49,1.16-3.39.94-6.9.4-.8-.12-1.67-.25-2.6-.37,0-.17,0-.34-.02-.51-.18-1.42-1.13-2.71-2.89-3.94-.16-.78-.55-1.57-1.28-2.34.2-.72.24-1.46,0-2.2-.48-1.47-1.87-2.33-3.16-2.88-.39-.98-1.13-1.89-2.22-2.76-.18-.62-.55-1.27-1.23-1.96l-.1.1s-.01-.09-.03-.14l-2.88.84c.04.12-.09.22-.17.25-.23.09-.76-.24-1.2-1.43-.92-2.5-2.64-3.43-4.03-4.17-1.36-.73-1.98-1.11-2.19-2.42-.17-1.06.1-1.95.78-2.5.57-.46,1.36-.62,1.96-.38.5.2.81.65.91,1.35l2.97-.43c-.19-1.3-.79-2.37-1.69-3.08.34-.12.66-.27.93-.47,1.66-1.16,2.12-3.45,1.05-5.21-.41-.68-.5-1.31-.25-1.74.32-.54,1.21-.84,2.38-.78l1.04-.35c.09-.07.61-.51,1.38-1.17.04.19.09.37.13.53.07.27.17.64.17.81-.1.08-.39.26-1.14.46-.49.13-1.97.54-2.47,1.85-.5,1.29.25,2.47.85,3.41.23.37.67,1.05.67,1.24,0,0-.08.13-.44.33-3.2,1.73-2.47,4.06-2.08,5.3.3.96.37,1.27-.06,1.72l-1.8-1.42c-.96,1.22-.96,2.75,0,3.82.6.66,1.45,1.01,2.3,1.01.39,0,.77-.08,1.14-.22.63.61,1.46.97,2.3.97.41,0,.82-.08,1.2-.25,1.88-.82,1.7-2.68,1.59-3.8-.13-1.37-.1-1.94.74-2.49,3.22-2.09,1.88-4.98,1.23-6.38-.11-.25-.27-.58-.35-.82.11-.04.27-.08.49-.12,1.25-.23,2.09-.72,2.6-1.47-.1.5-.15,1.03-.15,1.57h3c0-1.19.4-2.27,1.02-2.75.16-.12.65-.5,1.81-.19,3.53.95,4.56-2.38,5.06-3.97.09-.29.21-.68.32-.96.95.19,1.97.21,2.98-.01.27,1.44.52,2.74.76,3.95ZM82.35,99.84c-.48,1.01-1.41,1.96-2.71,2.83-2.89,1.33-5.93,2.38-9.1,3.11-5.46.45-11.54-1.29-16.04-3.02-4.9-1.88-13.95-5.32-16.37-6.24l-.2-.49c2.81.4,8.24,1.45,17.08,4.14,4.9,1.49,10.81,2.9,15.69,2.9,2.73,0,5.14-.44,6.86-1.56,1.51-.97,2.42-2.42,2.65-4.17.26-2.04-.42-3.34-1.05-4.08-.6-.71-1.35-1.15-2.04-1.43,1.36.15,3.74.9,5.11,4.07.63,1.46.66,2.74.11,3.92ZM64.22,69.72c.1.73-.29,1.67-1.24,2.94-.32-1.48.23-2.42.84-3.46.04-.06.07-.13.11-.19.14.24.25.48.28.71ZM65.05,74.9c.71-.91,1.47-2,1.88-3.21.15.13.24.25.27.35.18.54-.73,1.89-1.47,2.97l-.13.19c-.37.55-.73,1.1-1.03,1.66-.3-.82.04-1.41.47-1.96ZM68.09,76.89l.13-.19c.06-.09.12-.18.19-.28.07.74-.38,1.62-1.21,3-.15.25-.32.54-.49.84-.19-.86.31-1.78,1.39-3.38ZM69.76,80.98c.33-.54.71-1.17,1.03-1.87.33.39.44.68.46.86.09.72-.8,1.69-1.6,2.54-.29.32-.59.64-.86.97-.2-.36.01-.93.97-2.5ZM66.65,88.61c.35.51.36,1.28.32,1.75,0,0,0,0,0,0-1.01-.21-2.1-.47-3.29-.77.47-.83,1.19-1.71,1.84-1.61.72.12.99.41,1.13.62ZM72.31,88.33c.6-.07.86.09,1.01.22.41.35.6,1.04.68,1.54-1,.69-2.35.88-4.06.74.15-.7.67-2.3,2.37-2.5ZM75.32,94.42c.46.09,1.16.31,1.56.8.34.41.45.98.35,1.75-.11.88-.53,1.53-1.3,2.03-1.4.9-6.14,2.54-20.04-1.7-5.4-1.65-9.57-2.69-12.68-3.36.32-.03.66-.07,1.01-.1,4.63-.42,10.13.85,14.97,1.97,3.97.92,7.73,1.8,10.74,1.71,2.28-.06,4.04-1.33,5.39-3.1ZM75.3,86.3c-.62-.54-1.71-1.14-3.34-.95-.35.04-.68.12-.99.21.24-.32.61-.71.89-1.01.44-.47.91-.98,1.32-1.55,1.1.12,2.15.27,3.14.42-.17.92-.41,2.03-.73,3.18-.09-.1-.18-.21-.28-.3ZM73.3,33.87c.12.82.33,1.57.5,2.19.16.56.39,1.4.36,1.58,0,0-.08.07-.34.16-.84.27-1.32.16-1.5-.03-.11-.12-.12-.27-.16-.27.01,0,.04,0,.08,0l.09-2.76c.33-.29.64-.58.95-.87ZM69.54,38.89c-1.77,1.53-1.21,3.62-.9,4.77.08.29.19.72.21.94-.09.04-.28.12-.62.18-.31.06-1,.19-1.65.57,1.43-1.22,1.02-2.83.76-3.81-.21-.8-.38-1.5-.08-2.31.63-.55,1.3-1.13,1.97-1.72,0,.47.1.95.3,1.39ZM65.93,49.93c.78,1.69.77,2.01-.14,2.59-2.45,1.59-2.23,3.91-2.1,5.29.02.21.05.5.05.71-.04-.03-.09-.06-.12-.11l-.5-.67c.3-1.15-.02-2.2-.26-2.94-.36-1.15-.38-1.21.64-1.77,1.03-.56,1.67-1.3,1.91-2.19.37-1.42-.44-2.7-1.04-3.63-.12-.2-.29-.46-.41-.67.08-.03.17-.06.29-.09.75-.21,1.34-.46,1.81-.74-.22.2-.42.43-.57.72-.63,1.23-.05,2.49.42,3.5ZM87.67,34.46c-.27-1.53-1.12-2.7-2.11-3.42-2.24-1.63-5.51-1.48-7.62.34l1.97,2.27c1.18-1.02,2.9-.9,3.88-.18,1.02.74,1.23,2.02.63,3.61-.68.08-1.3-.02-1.71-.13-2.31-.62-3.1,1.88-3.47,3.09-.67,2.16-.9,2.1-1.41,1.96-2.14-.57-3.58.07-4.41.7-.67.51-1.21,1.24-1.58,2.09.02-.67-.15-1.33-.3-1.91-.32-1.19-.43-1.64.44-2.04.72.17,1.64.18,2.79-.19,3.17-1.03,2.39-3.77,1.93-5.4-.59-2.09-1.15-4.07,1.28-6.35,2.46-2.31,5.49-1.8,7.52-.56,2.04,1.26,3.15,3.25,2.68,4.83-.14.49-.31.91-.49,1.3ZM75.92,26.71c-.83.78-1.42,1.57-1.83,2.34l-.05-.04c-2.62,2.76-10.67,9.63-12.62,11.28-2.04.05-3.65.86-4.48,2.25-.84,1.41-.74,3.18.27,4.83.29.48.11.97-.2,1.19-.51.36-1.55.06-2.72-1.41l-1.12.88-.03-.03-11.88,9.86h-.02s0,.02,0,.03l-.32.27-.6-2.35,34.47-29.94s.08.07.13.11c.37.27.78.46,1.2.57-.06.06-.13.11-.19.16ZM33.42,51.72c-.77-1.22-.78-2.57-.05-3.89,1.04.7,2.29,1.19,3.71,1.39,1.24.18,2.07.58,2.48,1.19.5.75.27,1.71.27,1.71l.09.03-1.99,1.73c-1.54.33-3.51-.59-4.51-2.17ZM39.13,32.78c.59.17,1.23,1.21,1.31,2.87.21,4.18,3.41,5.95,5.75,7.24,1,.55,1.94,1.08,2.5,1.66l-3.3,2.87c-.84-.64-1-1.35-1.2-2.31-.32-1.52-.75-3.61-4.11-4.67-1.25-.4-2.85-1.16-3.3-2.52-.43-1.3.27-2.87,1.06-4.09l.93-1.03c.13-.04.25-.05.36-.02ZM34.31,39.71c.67,1.26,2.04,2.69,4.86,3.58,1.69.53,1.81,1.13,2.08,2.42.23,1.09.52,2.47,1.84,3.69l-.5.44c-.12-.34-.27-.69-.49-1.04-.89-1.38-2.44-2.24-4.58-2.55-1.96-.28-3.42-1.28-3.92-2.67-.41-1.15-.16-2.49.7-3.87ZM53.37,37.3c-.36-.69-.34-1.54.06-2.6.81-2.12.81-3.99.02-5.55-.34-.67-.83-1.26-1.45-1.77.07.01.12.02.19.03.32.05.66.11,1.02.15l-.03.11c1.88.54,2.15,1.85,2.32,4.7.1,1.69.22,3.68,1.44,5.01l-1.69,1.46c-.55-.23-1.46-.71-1.89-1.54ZM59.94,27.42c.15.12.6.5.39,1.67-.36,1.96.43,3.55,1.04,4.45l-2.12,1.84c-.51-.48-.63-1.45-.74-3.21-.09-1.56-.22-3.47-1.17-5.01.1-.04.2-.09.29-.14.74-.17,1.76-.06,2.31.4ZM77.21,23.62c-.18.08-.36.06-.54-.07-.17-.13-.35-.37-.31-.69l-1.46-.18-1.49-.33-.02.14c-.03.21-.03.42-.02.63l-9.72,8.44c-.26-.47-.52-1.15-.38-1.91.35-1.91-.22-3.17-.84-3.94,1.41.76,2.68,1.14,3.84,1.14.3,0,.59-.02.88-.07,2.17-.37,3.43-2.01,4.37-3.57,1.08-1.78,2.76-2.84,4.25-2.74.93.07,1.63.6,2.02,1.54.41.98-.19,1.43-.58,1.62ZM37.51,56.97l.18.7h0c-.72.79-1.57.83-2.09.51-.5-.29-.75-.89-.74-1.67.87.32,1.77.49,2.66.45ZM40.3,63.44c-.14,3.8.96,6.73,3.21,8.22,1.15.77,1.54,1.86,1.41,2.54-.07.39-.3.61-.73.7l.64,2.93c1.61-.35,2.74-1.5,3.04-3.08.38-2.02-.7-4.26-2.69-5.59-1.38-.92-2.02-3.09-1.85-5.94.66,1.4,1.83,2.62,3.31,3.81,1.67,1.34,2.17,2.81,2.07,3.74-.04.39-.19.64-.31.7l1.34,2.68c1.09-.55,1.8-1.66,1.95-3.07.24-2.23-.95-4.62-3.17-6.4-2.15-1.72-3.16-3.03-2.64-5.2.13.62.33,1.21.61,1.76.88,1.72,2.44,2.91,4.29,3.26,1.37.26,2.36,1.14,2.51,1.83.1.44-.17.9-.8,1.36l1.77,2.42c1.62-1.18,2.33-2.8,1.96-4.44-.44-1.97-2.45-3.66-4.88-4.12-.94-.18-1.71-.77-2.17-1.67-.67-1.31-.57-3.04.25-4.9l.58-.48c-.19.77-.22,1.61-.08,2.48.46,2.82,2.27,3.8,3.73,4.58,1.18.63,2.11,1.13,2.63,2.56.89,2.42,2.48,3.41,3.94,3.41.35,0,.69-.06,1.01-.16.09-.03.18-.08.26-.12-.07.12-.15.25-.24.41-1.02,1.73-2.55,4.34.19,8.89l.05-.03c.08,1.24.71,2.65,2.25,4.16.19,1.09.83,2.23,2.12,3.43.08.33.22.65.43.96-.08-.02-.16-.05-.25-.06-1.33-.23-2.46.28-3.36,1.07-.65-1.52-1.78-2.85-3.66-3.17-1.76-.3-3.24.47-4.38,1.58-.43-.91-1.15-1.69-2.3-2-1.55-.42-2.9.17-3.96,1.1-.17-.33-.39-.65-.65-.94-.73-.81-1.73-1.27-2.88-1.32-.44-.02-.85.04-1.25.15.59-1.92.87-4.19-.15-5.84.06-1.28-.39-2.76-1.37-4.43l-.36-.6c-1.51-2.53-2.41-4.04-1.41-7.18ZM60.28,88.71c-1.39-.36-2.87-.71-4.38-1.03.64-.95,1.59-1.97,2.61-1.8,1.14.19,1.6,1.72,1.78,2.83ZM52.22,86.99c-.88-.15-1.72-.29-2.52-.41.53-.7,1.22-1.35,1.83-1.18.34.09.58.78.69,1.59ZM44.12,84.54c.17-.16.34-.2.59-.21.44.02.65.19.78.33.33.36.49.97.56,1.5-.94-.07-1.82-.09-2.64-.07.15-.62.37-1.23.72-1.55ZM39.28,90.16c2.46-1.72,7.57-1.18,15.02.25,2.51.48,4.86,1.1,7.14,1.7,3.81,1,7.31,1.91,10.24,1.73-.56.41-1.16.67-1.83.68-2.64.07-6.2-.76-9.98-1.63-5.06-1.17-10.8-2.5-15.92-2.04-2.7.25-4.62.53-5.99.82.35-.65.79-1.15,1.32-1.52ZM36.98,99.29c2.28.86,11.49,4.37,16.44,6.27,1.2.46,2.51.92,3.88,1.34-7.79-.44-15.07-2.79-21.39-6.58.31-.29.66-.63,1.07-1.03ZM85.62,99.36c.27-1.47.07-3.02-.62-4.62-1.66-3.86-4.63-5.36-6.97-5.79.66-1.98,1.05-3.87,1.27-5.14.53.05,1.05.09,1.55.09,1.73,0,3.32-.35,4.75-1.47,2.49-1.94,2.71-4.56,2.29-6.4.2-.15.36-.31.49-.47.82-.97,1.01-2.31.59-4,.46-.23.88-.53,1.23-.93.82-.95,1.1-2.23.86-3.87.35-.03.71-.07,1.04-.13,1.54-.26,2.59-.95,3.13-2.03,1.1-2.22-.4-5.08-2.14-8.39l-.35-.67c-2.05-3.94-2.87-8.1-4.52-16.93,1.18-.96,2.2-2.43,2.83-4.58.86-2.93-.74-6.24-3.98-8.24-2.1-1.29-4.4-1.74-6.55-1.38.5-.97.62-2.18.06-3.55-.83-1.99-2.49-3.22-4.56-3.38-2.67-.21-5.36,1.39-7.05,4.17-.86,1.41-1.53,2.04-2.31,2.17-.82.14-2.35-.18-5.06-2.25.16.07.35.18.63.34.66.37,1.58.89,2.66.89.66,0,1.37-.19,2.12-.74,1.41-1.03,1.93-2.54,1.4-4.03-.54-1.5-2.06-2.56-3.53-2.48l.16,3c.13,0,.47.24.55.52.02.07.08.26-.36.57-.31.23-.44.26-1.54-.35-.78-.44-2.19-1.23-3.68-.59-1.17-1.77-3.32-2.84-5.37-2.62-1.19.13-2.2.67-2.94,1.53-.76-.17-1.6-.19-2.47-.01-2.08.42-4.51,1.98-5.63,5.1-.35-.11-.71-.2-1.07-.26-2.79-.48-6.07,1.38-7.44,4.22-.27.55-.43,1.12-.53,1.68-1.36.31-2.71,1.29-3.55,2.71-.54.92-1.89,3.88.57,7.44-1.17,2.07-1.47,4.21-.79,6.11.12.35.29.68.47.99-1.75,2.48-1.9,5.3-.35,7.74.34.53.74,1.01,1.18,1.43-.75,3.09.48,5.11,1.99,6,.68.4,1.44.6,2.2.6.59,0,1.18-.14,1.75-.37-2.26,5.49-.76,8.02,1.12,11.17l.35.59c.83,1.41,1.16,2.61.87,3.21-.24.5-1.06.69-1.53.75l.42,2.97c.73-.1,1.31-.29,1.81-.52-.2,1.27-.78,2.84-1.4,4.07-.42-.17-.87-.28-1.37-.26-1.29.04-2.4.76-2.96,1.9-.66,1.33-.51,3.02.36,4.77-.77,1.16-1.29,2.61-1.58,4.4v.02c-.02.15-.02.3,0,.45l.06.05.03.29.87,2.11c-.65.64-1.29,1.25-1.76,1.68-12.25-8.49-20.3-22.64-20.3-38.64,0-25.91,21.08-46.99,46.99-46.99s46.99,21.08,46.99,46.99c0,16.46-8.51,30.96-21.36,39.36Z"/>
  <path class="cls-2" d="M73.95,50.11l-1.12,2.78c.72.29,1.41.41,2.07.41.41,0,.82-.05,1.21-.13,1.55,2.11,3.66,2.88,5.45,3.03-.06.07-.11.14-.18.21-.61.56-1.54.79-2.77.68l-.28,2.99c.31.03.6.04.89.04,1.73,0,3.15-.51,4.23-1.53,1.99-1.87,1.95-4.64,1.94-4.95h-.02c.25-1.53.51-4.08-.05-5.83l-.08.03v-.09c-3.08-.47-5.41.65-7.28,1.54-1.77.84-2.83,1.3-4,.83ZM80.77,51.3c0,.67.16,1.28.39,1.83-.67-.14-1.4-.45-2.07-1.08.05-.02.1-.05.14-.07.51-.24,1.02-.48,1.53-.69Z"/>
  <g>
    <text class="cls-3" transform="translate(90.27 36.13) rotate(53.21)"><tspan x="0" y="0"> </tspan></text>
    <text class="cls-3" transform="translate(91.77 38.14) rotate(56.99)"><tspan x="0" y="0"> </tspan></text>
    <text class="cls-3" transform="translate(93.16 40.18) rotate(62.18)"><tspan x="0" y="0">S</tspan></text>
    <text class="cls-3" transform="translate(95.29 44.03) rotate(70.42)"><tspan x="0" y="0">U</tspan></text>
    <text class="cls-3" transform="translate(97.4 50.09) rotate(79.02)"><tspan x="0" y="0">P</tspan></text>
    <text class="cls-3" transform="translate(98.34 54.86) rotate(86.15)"><tspan x="0" y="0">E</tspan></text>
    <text class="cls-3" transform="translate(98.7 59.55) rotate(93.99)"><tspan x="0" y="0">R</tspan></text>
    <text class="cls-3" transform="translate(98.29 65.36) rotate(102.37)"><tspan x="0" y="0">B</tspan></text>
    <text class="cls-3" transform="translate(97.22 70.54) rotate(111.26)"><tspan x="0" y="0">U</tspan></text>
    <text class="cls-3" transform="translate(94.82 76.54) rotate(119.47)"><tspan x="0" y="0">S</tspan></text>
    <text class="cls-3" transform="translate(92.6 80.38) rotate(124.69)"><tspan x="0" y="0"> </tspan></text>
    <text class="cls-3" transform="translate(91.18 82.45) rotate(128.46)"><tspan x="0" y="0"> </tspan></text>
    <text class="cls-3" transform="translate(89.62 84.41) rotate(132.23)"><tspan x="0" y="0"> </tspan></text>
    <text class="cls-3" transform="translate(87.94 86.27) rotate(135.98)"><tspan x="0" y="0"> </tspan></text>
    <text class="cls-3" transform="translate(86.14 88.01) rotate(139.74)"><tspan x="0" y="0"> </tspan></text>
    <text class="cls-3" transform="translate(84.23 89.64) rotate(143.51)"><tspan x="0" y="0"> </tspan></text>
    <text class="cls-3" transform="translate(82.21 91.13) rotate(147.29)"><tspan x="0" y="0"> </tspan></text>
    <text class="cls-3" transform="translate(80.11 92.48) rotate(151.05)"><tspan x="0" y="0"> </tspan></text>
    <text class="cls-3" transform="translate(77.9 93.71) rotate(154.88)"><tspan x="0" y="0"> </tspan></text>
    <text class="cls-3" transform="translate(75.65 94.77) rotate(158.66)"><tspan x="0" y="0"> </tspan></text>
    <text class="cls-3" transform="translate(73.3 95.69) rotate(162.5)"><tspan x="0" y="0"> </tspan></text>
    <text class="cls-3" transform="translate(70.93 96.44) rotate(166.28)"><tspan x="0" y="0"> </tspan></text>
    <text class="cls-3" transform="translate(68.49 97.04) rotate(170.1)"><tspan x="0" y="0"> </tspan></text>
    <text class="cls-3" transform="translate(66.02 97.47) rotate(173.88)"><tspan x="0" y="0"> </tspan></text>
    <text class="cls-3" transform="translate(63.52 97.74) rotate(177.64)"><tspan x="0" y="0"> </tspan></text>
    <text class="cls-3" transform="translate(61.02 97.85) rotate(-178.64)"><tspan x="0" y="0"> </tspan></text>
    <text class="cls-3" transform="translate(58.5 97.79) rotate(-174.88)"><tspan x="0" y="0"> </tspan></text>
    <text class="cls-3" transform="translate(55.99 97.57) rotate(-171.09)"><tspan x="0" y="0"> </tspan></text>
    <text class="cls-3" transform="translate(53.51 97.18) rotate(-167.27)"><tspan x="0" y="0"> </tspan></text>
    <text class="cls-3" transform="translate(51.07 96.64) rotate(-163.48)"><tspan x="0" y="0"> </tspan></text>
    <text class="cls-3" transform="translate(48.67 95.93) rotate(-159.67)"><tspan x="0" y="0"> </tspan></text>
    <text class="cls-3" transform="translate(46.31 95.06) rotate(-155.85)"><tspan x="0" y="0"> </tspan></text>
    <text class="cls-3" transform="translate(44.02 94.04) rotate(-152.05)"><tspan x="0" y="0"> </tspan></text>
    <text class="cls-3" transform="translate(41.82 92.87) rotate(-148.28)"><tspan x="0" y="0"> </tspan></text>
    <text class="cls-3" transform="translate(39.68 91.55) rotate(-144.49)"><tspan x="0" y="0"> </tspan></text>
    <text class="cls-3" transform="translate(37.63 90.1) rotate(-140.72)"><tspan x="0" y="0"> </tspan></text>
    <text class="cls-3" transform="translate(35.69 88.51) rotate(-136.97)"><tspan x="0" y="0"> </tspan></text>
    <text class="cls-3" transform="translate(33.83 86.89) rotate(-131.07)"><tspan x="0" y="0">T</tspan></text>
    <text class="cls-3" transform="translate(30.52 83.15) rotate(-123.52)"><tspan x="0" y="0">A</tspan></text>
    <text class="cls-3" transform="translate(27.51 78.65) rotate(-115.03)"><tspan x="0" y="0">R</tspan></text>
    <text class="cls-3" transform="translate(24.94 73.31) rotate(-105.05)"><tspan x="0" y="0">Q</tspan></text>
    <text class="cls-3" transform="translate(23.1 66.41) rotate(-94.8)"><tspan x="0" y="0">U</tspan></text>
    <text class="cls-3" transform="translate(22.64 59.99) rotate(-87.55)"><tspan x="0" y="0">I</tspan></text>
    <text class="cls-3" transform="translate(22.63 56.62) rotate(-79.47)"><tspan x="0" y="0">N</tspan></text>
    <text class="cls-3" transform="translate(24.11 49.4) rotate(-71.35)"><tspan x="0" y="0">I</tspan></text>
    <text class="cls-3" transform="translate(25.07 46.2) rotate(-63.93)"><tspan x="0" y="0">U</tspan></text>
    <text class="cls-3" transform="translate(27.96 40.43) rotate(-55.74)"><tspan x="0" y="0">S</tspan></text>
    <text class="cls-3" transform="translate(30.49 36.79) rotate(-50.55)"><tspan x="0" y="0"> </tspan></text>
    <text class="cls-3" transform="translate(32.08 34.85) rotate(-46.79)"><tspan x="0" y="0"> </tspan></text>
    <text class="cls-3" transform="translate(33.79 33.02) rotate(-43.03)"><tspan x="0" y="0"> </tspan></text>
    <text class="cls-3" transform="translate(35.62 31.31) rotate(-39.28)"><tspan x="0" y="0"> </tspan></text>
  </g>
</svg>