<?xml version="1.0" encoding="UTF-8"?>
<svg id="Graphics" xmlns="http://www.w3.org/2000/svg" viewBox="0 0 120 120">
  <defs>
    <style>
      .cls-1 {
        fill: none;
      }

      .cls-1, .cls-2 {
        stroke-width: 0px;
      }

      .cls-3 {
        font-family: Trajan-Regular, Trajan-Regular;
        font-size: 8px;
        stroke: #000;
        stroke-linejoin: bevel;
      }

      .cls-3, .cls-2 {
        fill: #000;
      }
    </style>
  </defs>
  <path class="cls-1" d="M60.1,33.96c-.05.71.21,1.26.66,2.01,3.38-2.29,11.67-8.49,15.17-16.48-.97-.43-1.82-.74-2.4-.93-1.26,1.32-4.59,4.95-11.14,12.9-.71.86-1.48,1.69-2.29,2.5Z"/>
  <path class="cls-1" d="M61.24,20.17c.77,2.05,1.12,4.45,1.06,6.72.85-1.01,1.63-1.94,2.35-2.79l-.11-.03c.15-.56,1.27-5.43-2.96-7.18-.7,0-1.41.03-2.11.06.71.91,1.31,1.98,1.78,3.22Z"/>
  <path class="cls-1" d="M52.49,21.67c-.3,3.09-2.51,6.32-6.04,8.87-1.92,1.39-2.91,3.42-2.71,5.58.17,1.85,1.2,3.45,2.69,4.22,1.74-1.01,3.52-2.12,5.25-3.33-2.89-3.89-1.06-7.32.46-10.13,1.66-3.07,2.97-5.53-.06-9.06-.08.02-.17.04-.25.05.57,1.16.8,2.44.66,3.79Z"/>
  <path class="cls-1" d="M77.49,31.78l-.17-.1c-.74-.44-1.44-.46-1.92-.05-.45.38-.8,1.26-.31,2.47.84,2.1.4,4.22-1.16,5.55-1.46,1.25-3.53,1.42-5.16.45-.92-.55-1.57-1.57-1.74-2.68-.03.43-.1.83-.19,1.22,3.23,3.47,2.82,7.12,1.42,9.26-.9,1.38-2.23,2.29-3.75,2.66.54,1.71,1.51,4.43,2.95,7.09.52.64.92,1.32,1.2,2.02,1,1.53,2.18,2.95,3.53,4.03.51.29.96.57,1.37.86.74.35,1.47.53,2.16.57.37-.04.71-.04,1.01-.01,2.1-.21,3.65-1.4,3.75-1.48l.88.52c1.36.16,2.48-.27,2.79-.84.08-.14.09-.29.07-.45-.75.11-1.63.16-2.69.16-.58,0-1.21-.01-1.89-.04l-1.2.28-1.44.41c-.3-1.05-.11-3.2,2.52-4.59l.48.91c3.43.1,4.46-.13,4.71-.35.01-.08,0-.45-.32-1.54-.22.01-.43.02-.63.02-3.11,0-4.21-1.52-4.58-2.33-.87-1.9.12-4.37,2.34-5.88l1.68,2.48c-1.12.76-1.48,1.75-1.29,2.15.08.17.32.34.74.45.79-.84,2.04-1.72,3.71-1.89l.17,1.6s.05-.01.08-.02c1.7-.45,2.09-.94,2.18-1.13.29-.65-.5-2.26-1.28-3.82l-.44-.89c-.46-.94-.88-1.72-1.26-2.41-.72-1.32-1.33-2.43-1.8-3.99l-.89,2.29c-.33-.13-.66-.23-.97-.3.13.84.09,1.65-.16,2.32-.09.26-.22.48-.37.68.03.9-.34,1.85-1.08,2.69-.91,1.03-2.51,2.02-4.46,2.02-.3,0-.61-.02-.92-.07l.47-2.96c.77.12,1.58-.11,2.23-.59-2.26-.24-3.69-1.54-3.77-1.62l-.22-1.92c1.26-1.89,4.94-4.9,9.96-3.16-.18-.7-.34-1.49-.47-2.42-2.48.3-6.53,1.22-8.09,3.38l-2.44-1.75c2.32-3.23,7.35-4.27,10.03-4.59-.18-1.04.05-2.14.7-3.1.97-1.43,1.24-2.26,1.3-2.71-.02.02-.03.05-.05.07-1.95,2.05-4.89,2.49-7.32,1.09ZM77.52,56.49l.89,2.86c-2.59.81-2.63,3.46-2.63,3.76l-3,.08c-.05-1.79.87-5.49,4.73-6.7Z"/>
  <path class="cls-2" d="M60,109.99c27.56,0,49.99-22.42,49.99-49.99S87.56,10.01,60,10.01,10.01,32.44,10.01,60s22.42,49.99,49.99,49.99ZM60,13.01c25.91,0,46.99,21.08,46.99,46.99s-21.08,46.99-46.99,46.99S13.01,85.91,13.01,60,34.09,13.01,60,13.01Z"/>
  <path class="cls-2" d="M37.64,93.64l.27.34c2.83,3.53,7.38,9.2,19.16,9.2,1.27,0,2.63-.07,4.08-.21,14.58-1.43,18.53-4.89,18.93-5.28v-2.15s-8.8-8.7-8.8-8.7l.88-1.61c1.59.42,3.18.61,4.71.61,3.95,0,7.56-1.24,10-3,.91-.65,1.67-1.38,2.3-2.15.04-.03.08-.05.12-.08l-.03-.04c1.59-2,2.24-4.32,1.79-6.67-.92-4.81-4.14-6.1-6.27-6.95-.18-.07-.32-.13-.47-.19,1.07-.4,1.95-1.08,2.45-2,.54-.98.59-2.07.19-3.16.05-.05.1-.1.14-.16.8-1.08.66-2.42.26-3.86,0,0,0,0,0,0,1.4-.37,3.35-1.07,4.14-2.8.88-1.94-.14-4-1.32-6.39l-.43-.87c-.49-1.01-.93-1.82-1.33-2.54-.95-1.73-1.57-2.9-2-5.33.06,0,.13.01.19.01.24,0,.48-.02.72-.07,1.09-.2,2.03-.88,2.58-1.87.59-1.06.68-2.37.24-3.51-.35-.9-.85-1.5-1.49-1.8l-1.27,2.72c-.13-.06-.19-.13-.19-.13,0,0,.06.08.15.3.12.31.1.68-.06.96-.12.21-.29.34-.5.38-.5.09-.76-.23-.85-.37-.12-.18-.34-.65.09-1.28,1.02-1.52,2.31-3.76,1.66-5.75-.23-.69-.68-1.27-1.3-1.76.24-1.43-.03-2.94-.88-4.26-3.41-5.29-11.02-7.55-11.96-7.81-3.66-1.4-10.97-1.94-17.72-1.22-.06-.02-.11-.05-.17-.07l-.03.09c-2.72.3-5.35.81-7.59,1.56-9.37,3.12-19.01,10.59-19.42,20.23-.27,6.36,1.64,10.25,2.84,12.04-.07,1.82.12,4.22,1.99,5.48.42.28.91.48,1.44.6.18.5.16,1.05-.07,1.36-.38.53-1.47.23-2.36-.23-3.17-1.63-6.01-.39-7.16,1.67-1.11,1.97-.73,4.89,2.14,6.64l1.56-2.56c-1.4-.86-1.46-1.94-1.08-2.61.45-.81,1.61-1.27,3.18-.47,3.83,1.96,5.68-.02,6.15-.68.66-.9.88-2.05.72-3.16.22-.04.44-.08.66-.14.96,2.41,1.08,4.32.29,5.29-.55.67-1.63.91-2.91.63-2.56-.56-5.03.32-6.12,2.2-1.04,1.79-.62,4.02,1.12,5.97.85.95.7,1.86.53,2.31-.24.66-.78,1.16-1.34,1.24-.72.1-1.34-.51-1.73-1.05l-2.42,1.77c1.08,1.48,2.51,2.29,4,2.29.19,0,.39-.01.58-.04,1.65-.23,3.12-1.48,3.74-3.18.67-1.83.24-3.83-1.12-5.35-.84-.94-1.12-1.83-.76-2.45.35-.6,1.4-1.1,2.88-.78,1.15.25,2.25.23,3.23-.02.17,1.18-.22,1.94-.66,2.19-.36.21-.69.08-.96-.37l-2.57,1.54c.75,1.25,1.95,1.93,3.21,1.93.6,0,1.22-.16,1.81-.49,1.78-1.01,2.82-3.46,1.86-6.48.35-.43.67-.99.89-1.69,1.39,5.17-.67,8.1-2.82,11.15-.51.72-1.03,1.46-1.49,2.22-.29.48-.51.94-.68,1.4-5.85,2.07-11.64,6.43-12.65,9.63-.42,1.34.04,2.23.36,2.65.91,1.19,2.87,1.98,5.34,2.97,2.64,1.06,5.93,2.38,7.38,4.18ZM61.14,68.62s.04-.08.06-.11c.46-.69,1.7-.76,2.41-.74,2.05.06,4.05-1.19,4.99-3.17.02-.03.02-.07.04-.11.43.46.89.89,1.37,1.29.19.78.35,2.06-.06,2.74-.12.2-.33.43-.93.54-2.8.48-3.87,2.14-3.94,3.54-.09,1.85,1.4,3.51,3.69,4.14.52.14.98.72,1.18,1.47.18.7.08,1.39-.25,1.71-.3.29-.89.35-1.65.21-6.77-4.39-6.99-9.97-6.91-11.5ZM81.65,79.51c.69.69,1.56,1.19,2.49,1.52-1.47.83-3.28,1.45-5.28,1.7-.5-.2-.76-.37-.88-.46.1-.22.33-.58.5-.83.69-1.05,1.85-2.8.82-4.82-.69-1.34-1.8-2.1-2.69-2.71-.35-.24-.89-.61-.96-.72,0,0,0-.09.11-.29.65-1.3,1.12-2.65.96-4.02.35,1.27.95,3.32,3.91,4.14.81.22,1.14.43,1.26.52-.05.23-.28.66-.43.96-.57,1.12-1.62,3.19.2,5.01ZM72.85,77.44c-.47-1.8-1.73-3.19-3.29-3.61-1.07-.29-1.49-.86-1.48-1.1,0-.15.38-.54,1.45-.73,1.69-.29,2.56-1.23,3-1.96.36-.6.55-1.27.63-1.93,1.02,1.21.53,2.21-.09,3.44-1.33,2.66.74,4.07,1.85,4.83.71.48,1.37.94,1.71,1.6.2.4.02.8-.65,1.8-.53.81-1.18,1.79-1.01,2.94-1.03-.13-2.07-.37-3.12-.73,1.07-1.09,1.46-2.82,1.01-4.56ZM88.13,74.46c.25,1.34-.08,2.69-.94,3.92-.76.23-2.43,0-3.42-.99-.19-.19-.28-.28.36-1.53.47-.93,1.12-2.2.53-3.52-.6-1.35-2.14-1.91-3.24-2.21-1.36-.37-1.54-1.02-1.83-2.1-.04-.15-.08-.31-.14-.49.27-.09.53-.19.78-.3.7,1.4,2.24,2.02,3.47,2.51,1.97.78,3.83,1.52,4.44,4.72ZM83.56,33.33c-.65.96-.88,2.06-.7,3.1-2.68.33-7.71,1.36-10.03,4.59l2.44,1.75c1.55-2.16,5.61-3.08,8.09-3.38.13.93.29,1.72.47,2.42-5.01-1.74-8.69,1.27-9.96,3.16l.22,1.92c.08.07,1.51,1.38,3.77,1.62-.65.49-1.47.71-2.23.59l-.47,2.96c.32.05.62.07.92.07,1.96,0,3.56-.99,4.46-2.02.74-.84,1.12-1.8,1.08-2.69.14-.2.27-.42.37-.68.25-.67.29-1.48.16-2.32.31.07.63.17.97.3l.89-2.29c.47,1.56,1.07,2.66,1.8,3.99.38.69.8,1.46,1.26,2.41l.44.89c.77,1.56,1.57,3.17,1.28,3.82-.09.19-.47.68-2.18,1.13-.03,0-.05.01-.08.02l-.17-1.6c-1.67.18-2.92,1.05-3.71,1.89-.41-.11-.66-.28-.74-.45-.18-.4.18-1.39,1.29-2.15l-1.68-2.48c-2.22,1.51-3.21,3.98-2.34,5.88.37.81,1.48,2.33,4.58,2.33.2,0,.41-.01.63-.02.33,1.09.34,1.46.32,1.54-.25.22-1.28.45-4.71.35l-.48-.91c-2.63,1.38-2.83,3.54-2.52,4.59l1.44-.41,1.2-.28c.68.02,1.31.04,1.89.04,1.05,0,1.93-.05,2.69-.16.02.15,0,.31-.07.45-.31.57-1.43,1-2.79.84l-.88-.52c-.1.08-1.65,1.27-3.75,1.48-.3-.03-.64-.03-1.01.01-.69-.05-1.42-.22-2.16-.57-.41-.29-.86-.57-1.37-.86-1.35-1.08-2.53-2.5-3.53-4.03-.28-.7-.68-1.37-1.2-2.02-1.44-2.67-2.41-5.38-2.95-7.09,1.51-.37,2.84-1.28,3.75-2.66,1.4-2.14,1.81-5.79-1.42-9.26.09-.39.16-.79.19-1.22.18,1.12.82,2.13,1.74,2.68,1.63.98,3.7.8,5.16-.45,1.56-1.33,2-3.46,1.16-5.55-.49-1.21-.14-2.09.31-2.47.48-.41,1.18-.39,1.92.05l.17.1c2.43,1.4,5.37.96,7.32-1.09.02-.02.03-.05.05-.07-.06.46-.34,1.28-1.3,2.71ZM77.55,45.44c.42-.32.94-.64,1.57-.86.1.39.12.73.1.95-.64.1-1.21.04-1.67-.08ZM59.98,46.89c-4.05-1.67-6.4-2.46-10.76-.79.81-.71,1.94-1.31,3.56-1.53.97-.13,2.03-.22,3.05-.3,3.59-.3,7.27-.63,9.45-2.82,1.37,1.93,1.17,3.73.47,4.8-.71,1.09-2.33,2.04-4.54,1.14-.43-.17-.84-.34-1.23-.5ZM35.15,51.06c-.35-.24-.56-.8-.64-1.65,2.64-1.01,14.36-5.74,23.04-13.1.25.59.57,1.1.84,1.55.68,1.1,1.09,1.78.57,3.07-1.08.16-2.24.26-3.39.36-1.06.09-2.16.18-3.2.32-5.17.7-7.32,4.37-7.91,6.79l-1.55.82c-5.6,2.62-7.3,2.16-7.77,1.85ZM37.38,35.45c.34-2.51,1.76-4.75,4.09-6.46,5.76-4.22,6.84-8.26,7.01-10.16.12-.04.24-.09.35-.13.53.79.77,1.69.67,2.67-.22,2.2-2.02,4.72-4.81,6.73-2.81,2.02-4.25,5.05-3.95,8.29.2,2.2,1.22,4.19,2.76,5.56-1.31.69-2.57,1.32-3.73,1.88-1.91-2.77-2.76-5.71-2.4-8.38ZM64.54,24.06l.11.03c-.72.85-1.5,1.78-2.35,2.79.06-2.27-.29-4.66-1.06-6.72-.47-1.24-1.07-2.31-1.78-3.22.71-.03,1.41-.05,2.11-.06,4.24,1.75,3.11,6.62,2.96,7.18ZM54.09,35.24c-1.77-2.38-.75-4.26.69-6.93,1.52-2.81,3.53-6.52.67-10.98,1.57.9,2.48,2.56,2.97,3.89,1.37,3.66.98,8.16-.16,10.22l.07.04c-1.29,1.32-2.73,2.58-4.25,3.76ZM52.14,26.89c-1.52,2.81-3.36,6.23-.46,10.13-1.73,1.21-3.51,2.32-5.25,3.33-1.49-.77-2.52-2.37-2.69-4.22-.2-2.16.79-4.2,2.71-5.58,3.54-2.55,5.74-5.78,6.04-8.87.13-1.35-.1-2.63-.66-3.79.08-.02.16-.04.25-.05,3.03,3.54,1.72,5.99.06,9.06ZM67.03,36.2c-.02-.34-.05-.69-.11-1.06.25-.2.49-.41.75-.62-.39.61-.57,1.19-.64,1.68ZM64.02,37.38c-.07.69-.27,1.27-.61,1.71-.29.38-.71.68-1.2.93.02-.47-.03-.91-.13-1.31.52-.34,1.18-.79,1.94-1.34ZM82.63,28.62c-.79.83-2.16,1.41-3.64.56l-.13-.08c-1.85-1.11-3.92-1.02-5.4.24-1.59,1.36-2.04,3.66-1.15,5.88.36.89.24,1.67-.32,2.15-.37.31-1.02.54-1.67.15-.14-.08-.33-.36-.34-.72,0-.5.38-1.03,1.08-1.48l-1.55-2.44c3.29-3.04,6.75-6.99,8.9-11.59,1.71,2.56-.07,4.89-.28,5.15l2.3,1.93c.77-.92,1.67-2.64,1.71-4.65.32.36.61.74.87,1.14.95,1.48.39,2.94-.37,3.75ZM75.93,19.5c-3.5,7.98-11.79,14.19-15.17,16.48-.46-.75-.71-1.31-.66-2.01.81-.81,1.58-1.64,2.29-2.5,6.55-7.95,9.88-11.58,11.14-12.9.58.19,1.43.51,2.4.93ZM67.67,20.58c-.17-1.19-.57-2.41-1.29-3.52,1.44.12,2.78.31,3.93.56-.66.72-1.53,1.69-2.64,2.96ZM31.64,36.15c.29-6.94,6.5-12.64,13.48-15.94-.58,1.55-1.99,3.84-5.42,6.36-3.01,2.21-4.84,5.14-5.29,8.48-.45,3.28.48,6.79,2.61,10.06-1.29.57-2.35,1.01-3.06,1.29-.91-1.36-2.55-4.62-2.32-10.24ZM42.54,52.65c.55-.23,1.11-.48,1.71-.76l2.25-1.19.02-.02h0c4.18-2.27,6.26-2.79,8.45-2.36-1.55.35-3.07.74-4.48,1.2l-.1-.09c-.05.06-.09.12-.15.17-3.14,1.05-5.71,2.49-6.85,4.69-.26-.54-.55-1.09-.86-1.65ZM36.94,77.52c.28,1.23.96,2.25,1.82,2.91.83.63,1.92,1.03,3.1,1.03,1.45,0,3.03-.6,4.44-2.1l-2.19-2.05c-1.3,1.38-2.71,1.37-3.54.74-.75-.57-1.24-1.88-.14-3.68.41-.67.88-1.34,1.38-2.05,1.52-2.16,3.23-4.59,3.69-7.91l.06.08c.72.95,1.42,2.29.67,3.27-.83,1.08-2.21,2.88-1.72,4.9.37,1.52,1.63,2.74,3.97,3.83,1.23.58,1.49,1.76,1.21,2.62-.17.52-.68,1.36-2.2,1.07l-.56,2.95c.4.08.77.11,1.13.11,2.36,0,3.93-1.52,4.47-3.21.69-2.14-.05-4.97-2.79-6.26-1.92-.9-2.27-1.58-2.33-1.83-.15-.62.72-1.76,1.19-2.37,1.46-1.9,1.22-4.42-.65-6.9l-.23-.3c-1.46-1.92-1.9-2.5-1.98-5.33-.03-1.21.69-2.18,1.89-2.99-.35,1.12-.49,2.25-.39,3.35.21,2.36,1.45,4.47,3.57,6.09,1.01.77,1.75,1.79.35,3.98-.76,1.19-.95,2.65-.53,4.01.41,1.31,1.36,2.36,2.61,2.88.84.35,1.9.96,2.16,1.85.29,1.01-.44,2.32-1.1,3.25l2.45,1.73c1.51-2.13,2.02-4.09,1.53-5.81-.47-1.63-1.77-2.91-3.88-3.79-.59-.25-.82-.74-.91-1.01-.16-.51-.09-1.05.2-1.5,1.95-3.06,1.57-5.97-1.06-7.98-1.46-1.11-2.27-2.45-2.4-3.98-.14-1.58.48-3.31,1.75-4.95.02,0,.04-.01.06-.02-.8,3.23-.41,6.32,1.21,8.65,1.26,1.83,3.09,2.88,4.96,2.88.14,0,.27,0,.41-.02,1.71-.14,2.61-.9,3.07-1.51.94-1.25.68-2.71.64-2.87l-2.95.56c.01.08.02.36-.1.51-.13.16-.46.28-.92.32-.89.07-1.93-.53-2.65-1.58-1.36-1.97-1.43-4.86-.23-7.84,1.29-.29,2.6-.57,3.89-.83l.94-.19c.35.13.7.23,1.05.31.58,2.02,2.04,6.49,4.6,10.48.26.79.24,1.57-.09,2.27-.43.91-1.3,1.48-2.19,1.46-2.96-.09-4.34,1.09-5,2.08-.19.28-.33.6-.45.93h-.04s-.02.1-.03.22c-.52,1.72-.14,4,1.16,6.81l.06-.03c1.15,2.61,3.32,5.54,7.35,8.06v.05s.08.02.13.03c.28.17.56.34.86.51.52.29,1.04.54,1.57.78l-1.19,2.18.26,1.79,8.27,8.17c-2.02,1.02-6.6,2.72-15.79,3.63-13.24,1.3-17.67-4.23-20.6-7.89l-.28-.35c-1.94-2.41-5.48-3.83-8.6-5.08-1.53-.61-3.41-1.37-3.98-1.9.25-1.28,4.2-5.04,9.54-7.25Z"/>
  <g>
    <text class="cls-3" transform="translate(90.22 35.95) rotate(55.14)"><tspan x="0" y="0">T</tspan></text>
    <text class="cls-3" transform="translate(93.11 40.04) rotate(62.75)"><tspan x="0" y="0">A</tspan></text>
    <text class="cls-3" transform="translate(95.61 44.82) rotate(71.26)"><tspan x="0" y="0">R</tspan></text>
    <text class="cls-3" transform="translate(97.58 50.4) rotate(81.22)"><tspan x="0" y="0">Q</tspan></text>
    <text class="cls-3" transform="translate(98.65 57.45) rotate(91.32)"><tspan x="0" y="0">U</tspan></text>
    <text class="cls-3" transform="translate(98.41 63.92) rotate(98.69)"><tspan x="0" y="0">I</tspan></text>
    <text class="cls-3" transform="translate(98.06 67.26) rotate(106.83)"><tspan x="0" y="0">N</tspan></text>
    <text class="cls-3" transform="translate(95.81 74.27) rotate(114.94)"><tspan x="0" y="0">I</tspan></text>
    <text class="cls-3" transform="translate(94.49 77.36) rotate(122.36)"><tspan x="0" y="0">U</tspan></text>
    <text class="cls-3" transform="translate(91 82.76) rotate(130.47)"><tspan x="0" y="0">S</tspan></text>
    <text class="cls-3" transform="translate(88.08 86.13) rotate(135.68)"><tspan x="0" y="0"> </tspan></text>
    <text class="cls-3" transform="translate(86.29 87.88) rotate(139.44)"><tspan x="0" y="0"> </tspan></text>
    <text class="cls-3" transform="translate(84.38 89.51) rotate(143.21)"><tspan x="0" y="0"> </tspan></text>
    <text class="cls-3" transform="translate(82.37 91.02) rotate(146.99)"><tspan x="0" y="0"> </tspan></text>
    <text class="cls-3" transform="translate(80.29 92.38) rotate(150.75)"><tspan x="0" y="0"> </tspan></text>
    <text class="cls-3" transform="translate(78.11 93.6) rotate(154.54)"><tspan x="0" y="0"> </tspan></text>
    <text class="cls-3" transform="translate(75.84 94.69) rotate(158.35)"><tspan x="0" y="0"> </tspan></text>
    <text class="cls-3" transform="translate(73.49 95.62) rotate(162.19)"><tspan x="0" y="0"> </tspan></text>
    <text class="cls-3" transform="translate(71.13 96.38) rotate(165.97)"><tspan x="0" y="0"> </tspan></text>
    <text class="cls-3" transform="translate(68.69 97) rotate(169.78)"><tspan x="0" y="0"> </tspan></text>
    <text class="cls-3" transform="translate(66.23 97.44) rotate(173.57)"><tspan x="0" y="0"> </tspan></text>
    <text class="cls-3" transform="translate(63.71 97.73) rotate(177.37)"><tspan x="0" y="0"> </tspan></text>
    <text class="cls-3" transform="translate(61.2 97.85) rotate(-178.91)"><tspan x="0" y="0"> </tspan></text>
    <text class="cls-3" transform="translate(58.71 97.8) rotate(-175.2)"><tspan x="0" y="0"> </tspan></text>
    <text class="cls-3" transform="translate(56.2 97.6) rotate(-171.4)"><tspan x="0" y="0"> </tspan></text>
    <text class="cls-3" transform="translate(53.71 97.22) rotate(-167.58)"><tspan x="0" y="0"> </tspan></text>
    <text class="cls-3" transform="translate(51.27 96.69) rotate(-163.79)"><tspan x="0" y="0"> </tspan></text>
    <text class="cls-3" transform="translate(48.86 95.99) rotate(-159.98)"><tspan x="0" y="0"> </tspan></text>
    <text class="cls-3" transform="translate(46.5 95.13) rotate(-156.15)"><tspan x="0" y="0"> </tspan></text>
    <text class="cls-3" transform="translate(44.2 94.12) rotate(-152.36)"><tspan x="0" y="0"> </tspan></text>
    <text class="cls-3" transform="translate(41.99 92.97) rotate(-148.59)"><tspan x="0" y="0"> </tspan></text>
    <text class="cls-3" transform="translate(39.84 91.66) rotate(-144.8)"><tspan x="0" y="0"> </tspan></text>
    <text class="cls-3" transform="translate(37.79 90.21) rotate(-141.03)"><tspan x="0" y="0"> </tspan></text>
    <text class="cls-3" transform="translate(35.84 88.64) rotate(-137.26)"><tspan x="0" y="0"> </tspan></text>
    <text class="cls-3" transform="translate(34 86.94) rotate(-133.51)"><tspan x="0" y="0"> </tspan></text>
    <text class="cls-3" transform="translate(32.27 85.13) rotate(-129.75)"><tspan x="0" y="0"> </tspan></text>
    <text class="cls-3" transform="translate(30.67 83.2) rotate(-125.98)"><tspan x="0" y="0"> </tspan></text>
    <text class="cls-3" transform="translate(29.19 81.17) rotate(-122.19)"><tspan x="0" y="0"> </tspan></text>
    <text class="cls-3" transform="translate(27.84 79.04) rotate(-118.38)"><tspan x="0" y="0"> </tspan></text>
    <text class="cls-3" transform="translate(26.62 76.91) rotate(-112.75)"><tspan x="0" y="0">P</tspan></text>
    <text class="cls-3" transform="translate(24.66 72.37) rotate(-104.56)"><tspan x="0" y="0">R</tspan></text>
    <text class="cls-3" transform="translate(23.25 66.67) rotate(-97.56)"><tspan x="0" y="0">I</tspan></text>
    <text class="cls-3" transform="translate(22.77 63.32) rotate(-91.72)"><tspan x="0" y="0">S</tspan></text>
    <text class="cls-3" transform="translate(22.56 58.93) rotate(-83.79)"><tspan x="0" y="0">C</tspan></text>
    <text class="cls-3" transform="translate(23.21 52.74) rotate(-74.24)"><tspan x="0" y="0">U</tspan></text>
    <text class="cls-3" transform="translate(25.02 46.55) rotate(-66.02)"><tspan x="0" y="0">S</tspan></text>
  </g>
</svg>