<?xml version="1.0" encoding="UTF-8"?>
<svg id="Graphics" xmlns="http://www.w3.org/2000/svg" viewBox="0 0 120 120">
  <defs>
    <style>
      .cls-1 {
        fill: #000;
        stroke-width: 0px;
      }
    </style>
  </defs>
  <g id="Tulius_Hostilius_Bold" data-name="Tulius Hostilius Bold">
    <path class="cls-1" d="M60,10.01c-27.56,0-49.99,22.42-49.99,49.99s22.42,49.99,49.99,49.99,49.99-22.42,49.99-49.99S87.56,10.01,60,10.01ZM60,106.99c-25.91,0-46.99-21.08-46.99-46.99S34.09,13.01,60,13.01s46.99,21.08,46.99,46.99-21.08,46.99-46.99,46.99Z"/>
    <path class="cls-1" d="M86.78,52.48c-.63-1.58-1.23-3.08-2.59-4.73-1.3-1.59-2.27-5.3-2.73-7.55,1.27-1.13,2.35-2.94,2.48-5.04.08-1.22-.15-3.32-2.05-5.29,1.39-1.53,2.1-3.14,2.15-3.25l-.46-1.78c-.12-.09-3-2.27-6.35-1.83-.92.12-1.78.43-2.58.9-1.22-3.07-4.91-4.61-7.06-5.26l-.75.19c-.07-.04-.13-.08-.2-.12l.04-.06c-2.56-1.44-5.16-2.2-7.62-2.24-4.07-.56-8.86-.4-13.61.85-10.17,2.67-16.97,9.49-19.15,19.27-1.94,10.52,3.08,17.51,5.36,20.06.06.18.13.36.19.54-.75,2.33-.93,6.01,1.91,9.12-.2.9-.13,2.1.63,3.43-.06.11-.12.24-.17.37-.28.72-.24,1.53.12,2.41-.74,1.1-1.29,2.81-.52,4.83-.56.63-1.19,1.59-1.38,2.84-.18,1.22.1,2.44.82,3.63-.58,1.13-1.31,3.09-.71,5.05.34,1.1,1.24,2.62,3.65,3.55,1.44.56,1.47.78,1.6,1.83.11.89.26,2.11,1.17,3.61,1.09,1.8,2.61,2.1,3.62,2.3,1.03.21,1.46.29,1.93,1.74l2.58.49c.42-.51,2.51-3.19,2.08-5.55,0,0,0,0,0-.01.59-.11,1.25-.19,1.9-.19.04,0,.07,0,.11,0,.29,0,.58-.03.86-.08,7,5.12,15.76,8.44,16.15,8.59l2-1.66c-.01-.06-1.03-6.41,2.33-10.41,2.18-2.59,2.28-5.69,2.36-7.95.03-.83.07-2.08.23-2.31,0,0,.14-.06.55,0,4.33.59,7.24.06,8.68-1.55.62-.69,1.25-1.92.76-3.83-.05-.2-.11-.4-.22-.7l-.78-1.85c.41-.3.8-.71,1.07-1.27.23-.49.42-1.21.24-2.12.26-.27.49-.61.63-1.01.35-.99.14-2.07-.62-3.23l-1.31-2.86s.08.04.12.07c1.65.9,3.41.71,4.59-.5,1.57-1.6,1.55-4.41-.03-7.14-1-1.73-1.55-3.1-2.04-4.31ZM45.59,86.48c-.33,1.21.18,2.3.59,3.18.13.28.34.74.38.96-.05.04-.16.11-.33.19-.46-.49-1.15-.94-2.16-1.34-1.3-.51-1.88-1.14-2-1.56-.03-.1-.11-.41.32-.95.51-.64.97-1.32,1.21-2.07,2.7-1.05,5.32-2.72,6.95-3.86.21.3.47.56.75.8-.26.65-.86.9-2.01,1.33-1.32.49-3.13,1.15-3.71,3.32ZM55.89,19.93c.98-.36,2.07-.51,3.2-.48,2.41.37,4.43,1,5.86,1.76-.17.65-.23,1.44-.1,2.36-2.51-1.01-4.85-1.25-6.98-.69-3.05.8-5.56,3.2-7.46,7.11-.53,1.08-1.65,1.22-4.09,1.29-2.68.07-6.73.17-7.78,4.99-.43,1.96-.63,3.42-.79,4.58-.38,2.73-.41,2.96-2.33,3.98-2.32,1.24-3.76,3.32-4.25,5.83-.64-1.22-1.24-2.64-1.66-4.29,4.72-2.06,5.54-5.93,6.25-9.4.45-2.19.88-4.25,2.24-5.84,1.61-1.88,3.52-1.93,5.72-1.99,2.67-.07,5.99-.16,7.63-4.51.87-2.31,2.44-3.94,4.54-4.7ZM79.56,31.79c1,.94,1.47,2.01,1.39,3.19-.04.62-.24,1.23-.52,1.76-.86-1.32-2.2-2.94-4.04-4.04.6-.02,1.2-.11,1.78-.3.49-.16.96-.36,1.39-.61ZM60.35,47.14c-.03.52-.15,1.12-.49,1.42-.47.43-1.49.27-2.05.13-1.96-.47-4.08-.82-5.97-.53.47-.87,1.13-1.62,2.07-2.05,1.68-.76,4.05-.37,6.44,1.02ZM55.76,74.85c-1.72.29-2.97.8-3.86,1.33,0-.24.01-.5.07-.75.23-1.02.88-1.23,1.1-1.3.39-.12.87-.23,1.37-.34.84-.18,1.79-.39,2.64-.77.05.38.04.8-.11,1.14-.07.15-.26.54-1.21.7ZM43.19,81.82c-.18-.3-.4-.58-.65-.83,2.36-2.17,4.99-3.07,6.54-3.42.06.23.13.46.21.68-1.31.94-3.67,2.52-6.1,3.58ZM36.84,47.48c3.15-1.68,3.45-3.04,3.89-6.22.15-1.12.35-2.51.75-4.35.5-2.3,1.75-2.55,4.93-2.63,2.37-.06,5.33-.14,6.71-2.97,1.5-3.09,3.37-4.95,5.53-5.52,2.08-.55,4.57.04,7.42,1.73-.9.2-1.72.56-2.43,1.1-.1.08-.19.16-.29.24-7.63,1.19-16.12,9.46-19.59,13.74-.88,1.08-1.31,2.48-1.21,3.94.07,1.03-.19,2.43-3.16,2.73-2.54.25-4.25,1.66-5.38,3.19.06-2.2,1.04-4.02,2.84-4.98ZM67.37,32.68c-1.24.55-2.45.58-3.31.47.22-.71.63-1.58,1.4-2.15.87-.65,2.09-.82,3.64-.52l.59.42c-.67.81-1.4,1.34-2.13,1.7-.06.03-.12.06-.18.09ZM52.67,43.39c-.68.31-1.43.78-2.13,1.5l-2.59-2.52c.63-.67,1.31-1.36,2.04-2.06l3.03,2.96c-.12.05-.24.07-.35.13ZM47.12,52.11c-.37-1.42-.94-2.83-1.7-4.19.14-.65.14-1.22.12-1.57-.04-.64.12-1.24.45-1.71l2.86,2.79c-.38.84-.68,1.84-.89,3.02-.34.48-.62,1.04-.84,1.67ZM39.68,52.25c1.71-.17,2.93-.66,3.79-1.29.37,1,.47,1.76.27,2.14-.32.61-1.81.98-3.25,1.33-1.62.4-3.55.88-5.22,1.96.55-1.46,1.83-3.89,4.4-4.15ZM41.06,62.63c.15.89.04,1.58-.34,2.06-.82,1.01-2.75,1.27-3.99,1.3.17-.89.77-2.95,2.74-3.35.27-.05.73-.04,1.17-.03.14,0,.29,0,.43,0ZM36.58,76.07c-.37-1.24.27-1.99.52-2.22.25.02.52.04.81.04.61,0,1.32-.07,2.05-.24-.13.38-.33.78-.64,1.13-.6.69-1.53,1.12-2.75,1.3ZM48.31,66.99c.17.57.45,1.13.85,1.66-.16.26-.31.53-.43.81-.5.41-2.19,1.63-4.81,1.56.04-.05.07-.08.11-.13,1.37-1.95,2.55-3.41,4.28-3.9ZM42.36,75.61c.3-.56.5-1.12.63-1.64.4.04.79.07,1.16.07,1.78,0,3.26-.44,4.38-.96.13.45.32.92.59,1.39,0,.01,0,.02,0,.03-1.24.22-3.37.78-5.64,2.1-.27-.29-.63-.63-1.12-.98ZM56.55,69.74c-.28.57-1.65.87-2.74,1.11-.55.12-1.12.25-1.64.41-.3.1-.58.23-.84.37-.03-.7.25-1.26.58-1.66.95-.16,2.86-.57,4.61-1.47.19.73.11,1.09.04,1.23ZM56.84,64.49c-.91,1.4-3.65,2.19-5.18,2.48-.43-.5-.61-1-.48-1.42.2-.61,1.23-1.39,3.48-1.54.86-.06,1.68-.13,2.45-.25-.03.26-.12.5-.27.73ZM48.22,62.66c.09.42.25.82.46,1.19,0,0,0,0-.01.01-3.63.42-5.7,3.32-7.1,5.31-1.37,1.95-3.76,1.79-4.62,1.65l.56-1.85c1.69-.12,4.11-.62,5.53-2.38.66-.82,1.29-2.2.99-4.27.17.02.55.05,1.08.05.78,0,1.87-.08,3.02-.38.01.22.03.44.08.67ZM58.84,55.67c.04.18.09.36.13.52-1.6-.26-3.14-.15-4.49.11,1.05-1,2.28-1.2,4.04-.71.11.03.22.05.32.07ZM60.64,52.68c-.27.28-1.01.11-1.32.02-3.96-1.09-6.86.27-8.88,4.15-.48.93-1.25,1.52-2.09,1.9.59-1.07,1.07-2.44,1.28-4.18.17-1.48.61-2.45,1.34-2.96.53-.37,1.28-.56,2.29-.56s2.29.19,3.87.56c1.57.37,2.88.29,3.92-.24-.04.61-.17,1.08-.4,1.31ZM55,41l-2.78-2.72c.77-.66,1.57-1.31,2.4-1.92l2.89,2.97c-.84.37-1.68.91-2.51,1.67ZM59.85,37.44l-2.73-2.8c1.33-.84,2.67-1.54,3.98-2.05-.25.89-.29,1.56-.29,1.62l.98,1.49c.08.03.19.06.28.09-.73.41-1.47.96-2.22,1.66ZM34.79,61.85c.93-3.15,3.59-3.81,6.42-4.5,1.24-.3,2.43-.61,3.42-1.14,0,.13,0,.25,0,.38-.11,1.7-1.53,3.04-3.24,3.05-.21,0-.45,0-.66-.01-.61-.02-1.25-.04-1.84.08-2,.4-3.23,1.59-4,2.84-.11-.26-.21-.51-.28-.76l.19.06ZM35.41,80.61c.09-.68.54-1.21.83-1.49,1.61-.12,2.97-.55,4.07-1.28.28.18.5.35.68.5-.44.38-.88.8-1.3,1.25-1.03-.12-2.07.08-3,.6-.46.26-.89.56-1.28.9-.02-.17-.02-.33,0-.49ZM52.93,79.09c.3-.24.79-.55,1.55-.83-.04.29-.06.59-.03.88.04.42.15.81.3,1.18-.91-.29-1.56-.67-1.83-1.23ZM54.45,61.02c-1.28.09-2.39.36-3.32.77-.03-.67.42-1.35,1.13-1.66,1.47-.64,4.18-1.51,6.91-.83-.05.22-.12.41-.22.56-.52.75-2.1,1-4.49,1.17ZM62.36,44.85c-1.65-1.04-3.33-1.72-4.92-1.99,2.63-2.08,5.35-1.14,8.2-.15.77.27,1.55.54,2.32.73-1.77,1.53-3.35,1.84-5.59,1.4ZM70.81,40.27c-.08.1-.15.19-.22.28-.78.44-2.26-.07-3.97-.67-1.11-.39-2.39-.83-3.76-1.07,3.01-2.16,5.64-.91,8.2.31.18.09.36.17.55.26-.27.27-.53.55-.79.89ZM75.07,37.46l-.04-.12c-.43.15-1.72-.47-2.68-.93-.89-.43-1.96-.93-3.15-1.29,1.57-.71,3.04-.87,4.39-.44,1.52.48,2.72,1.6,3.6,2.69-.67-.08-1.39-.06-2.13.09ZM80.66,26.58c-.66,1.03-1.82,2.47-3.4,2.96-.99.31-2.02.2-3.15-.32.26-.47.46-.93.61-1.39,2.03-2.56,4.52-1.94,5.93-1.25ZM71.93,25.18c.27.82.08,1.78-.58,2.85-.49-.18-1.31-.74-2.26-2.12l.02-.02s-.04-.02-.05-.03c-.09-.12-.17-.24-.26-.38-1.07-1.68-1.1-2.85-.93-3.55,2.17.84,3.66,2.02,4.07,3.25ZM29.24,37.16c2.46-10.99,10.59-15.29,16.98-16.97,1.74-.46,3.47-.75,5.15-.91-1.21,1.14-2.17,2.58-2.82,4.3-.89,2.37-2.15,2.5-4.9,2.57-2.42.06-5.44.15-7.92,3.04-1.87,2.18-2.42,4.84-2.9,7.19-.61,2.98-1.13,5.43-3.85,6.93-.19-1.86-.15-3.91.27-6.15ZM45.99,98.5c-.93-.94-2-1.15-2.81-1.31-.84-.17-1.23-.24-1.64-.92-.58-.94-.66-1.66-.76-2.42-.22-1.73-.61-3.14-3.5-4.26-1.04-.4-1.65-.93-1.86-1.62-.34-1.11.33-2.55.73-3.21l.08.04c.48-.87,1.13-1.54,1.93-2,.5-.28,1.11-.32,1.64-.12.27.11.76.37.96.98.05.16.12.38-.7,1.41-.89,1.11-1.2,2.39-.88,3.6.4,1.51,1.75,2.78,3.8,3.58,1.22.48,1.21.67,1.21,1.38-.01.84-.03,2.41,1.87,3.49.16.09.17.15.18.21.05.28-.05.7-.25,1.15ZM47.2,94.16c-.02-.1-.01-.25-.01-.48,0,0,0-.02,0-.02.84-.33,1.68-.86,2.12-1.76.62-1.3.03-2.57-.4-3.5-.15-.33-.44-.96-.41-1.14.16-.61.64-.83,1.85-1.28,1.14-.42,2.7-1,3.54-2.58.62.9.58,1.3.57,1.35-.06.33-.89.74-1.38.99-.86.44-1.94.98-2.03,2.2s.96,1.96,1.38,2.26c.97.73.72,1.75.62,2.05-.22.65-.82,1.35-1.85,1.35h-.02c-1.5-.01-3.05.32-3.98.56ZM79.71,73.57c-.23-.11-.43-.27-.61-.45.76,0,1.63,0,2.49.08l-.26.49c-.63.15-1.17.11-1.63-.12ZM83.15,69.3c.02.06.05.12.06.15l-.37.85c-1.11-.14-2.26-.19-3.27-.19.8-.63,1.96-1.08,3.59-.82ZM86.69,61.84c-.27.27-.69.13-1-.04-1.45-.79-2.67-.92-3.65-.38-.24.13-.44.3-.61.48l-.02-.02c-.18.16-.52.42-.8.29-.16-.07-.28-.25-.27-.42,0-.26.36-.55.9-.75l-1.05-2.81c-1.73.65-2.79,1.93-2.85,3.44-.05,1.36.75,2.67,2,3.25.46.21.94.32,1.42.32.14,0,.28-.03.42-.04l.48,1.05c-2.85.19-4.74,1.91-5.76,3.54-1.84,1.92-3.5,4.55-3.73,4.92l2.55,1.58c.28-.46.8-1.23,1.41-2.07.5.75,1.2,1.53,2.21,2.04.56.28,1.32.53,2.29.53.31,0,.64-.03.99-.09l.48,1.12c.04.12.08.23.11.35.2.77-.01,1-.09,1.09-.51.57-2.39,1.06-6.03.57-1.19-.16-2.15.06-2.86.66-1.21,1.02-1.27,2.73-1.32,4.53-.07,2.02-.14,4.32-1.65,6.11-2.78,3.29-3.23,7.59-3.2,10.29-2.79-1.2-7.74-3.51-12.12-6.51.41-.48.75-1.04.96-1.68.6-1.79.16-3.66-1.14-4.95,1.02-.53,2.33-1.34,2.65-2.92.09-.45.08-.91-.02-1.39.82.14,1.91.33,2.4.54-.06.13-.17.32-.37.58-1.23,1.64-1.66,2.78-1.43,3.82.25,1.16,1.18,1.66,1.86,2.03.91.49,1.36.74,1.11,2.38l2.97.45c.57-3.72-1.6-4.9-2.64-5.47-.08-.04-.18-.1-.26-.15.1-.22.32-.62.81-1.27.37-.49,1.48-1.98.87-3.52-.43-1.07-1.45-1.6-2.7-1.94-1.62-.98-2.48-1.84-2.54-2.54-.05-.57.44-1.33,1.37-2.15l-.06-.06c.48-.44.79-.92.98-1.36.78-1.79.17-3.84-.3-4.71.37-1.1.23-2.43-.42-4.01.12-.15.24-.3.34-.46.64-.99.88-2.12.71-3.31.53-.32.98-.73,1.34-1.26.95-1.37,1.09-3.27.46-6.11.38-.19.69-.43.92-.67,1.57-1.61,1.39-4.62,1-6.74,3.95.14,6.44-2.09,9.4-5.93,2.1-2.72,4.58-1.64,5.35-1.21.32,1.55.92,4.04,1.84,6.16-4.49-1.66-9.87-3.34-13.64,2.53l2.53,1.62c2.25-3.51,4.65-3.36,10.69-1.1l.82-2.19c.33.65.69,1.25,1.09,1.74,1.06,1.3,1.51,2.41,2.12,3.95.52,1.31,1.12,2.79,2.22,4.7,1.08,1.86.87,3.14.48,3.55ZM79.03,53.57l-.11-2.19-.75-1.23c-1.67-.95-5.62-.36-8.38,3.21l.79,2.37c.13.04,3.27.89,5.28,1.09.06,0,.11,0,.17,0,.01.17,0,.34-.06.46-.15.24-.71.52-1.86.58l.15,3c2.12-.11,3.57-.8,4.3-2.07.84-1.44.39-2.99.11-3.69.24-.48.38-1,.36-1.53ZM75.06,52.98c0,.24,0,.47.02.7-.35-.06-.7-.13-1.06-.2.37-.23.71-.38,1.03-.5Z"/>
    <g>
      <path class="cls-1" d="M96.76,49.64l.26.93c.02.06.04.14.06.21.02.08.04.17.07.25l.11-.03s0,.03,0,.04l-.1.06.02.08c.02.07.04.13.08.17.06.08.15.12.24.12.03,0,.06,0,.09-.01l.15-.1s.09-.14.04-.28l-.02-.07s-.01-.07-.02-.11l-.03-.19s.1-.07.19-.11c.15-.06.37-.14.64-.22.29-.08.62-.18.99-.28l3.01-.84.19.73c.12.45.09.6.08.64-.03.11-.08.13-.08.13l-.09.04c-.08.03-.13.06-.17.09-.09.07-.13.19-.1.32l.19.19c.09.03.18.02.29-.01l.07-.02c.07-.02.14-.03.23-.05l.12-.03c.07-.02.14-.04.22-.06.06-.01.12-.03.16-.04.04,0,.07-.02.11-.04l.15-.33s-.02-.07-.05-.12l-.06-.12c-.03-.06-.05-.12-.08-.2-.03-.08-.06-.18-.09-.3l-.82-2.88s-.02-.09-.04-.16l-.08-.34s0-.05-.01-.09c0-.04-.01-.07-.01-.16v-.07c.02-.06.02-.11,0-.17l-.22-.19s-.08-.01-.08-.01c-.03,0-.05,0-.09,0-.02,0-.06,0-.17,0l-.28.02h0c-.1,0-.19,0-.27.01-.12,0-.17.02-.2.03l-.16.1c-.07.08-.09.18-.07.26l.12.18c.05.04.12.06.19.06.02,0,.04,0,.07.01.04,0,.09.02.16.04.05.02.09.05.13.1.04.06.1.19.18.45l.26.89-3.02.85c-.37.1-.7.19-.99.27-.28.08-.5.13-.66.15-.1.01-.18.02-.25,0,0-.02-.02-.04-.03-.06,0-.02-.02-.05-.03-.09l-.14-.19c-.07-.04-.16-.05-.23-.03l-.21.26c0,.05,0,.11.02.18.01.04.03.1.05.16ZM97.53,51.08s0-.01,0-.03c0,0,0,0,0,0l.08-.05s.04.03.06.05l-.14.04ZM103.19,51.04h0s0,0,0,0Z"/>
      <path class="cls-1" d="M103.62,52.1c-.02.06-.03.11-.02.17v.22c0,.08-.02.11-.02.11,0,0-.05.04-.15.06h-.06c-.11.03-.27.05-.46.08l-2.36.28.03.25-.04-.25c-.62.07-1.08.2-1.41.39-.33.19-.59.41-.77.64-.09.11-.16.23-.21.35-.05.12-.09.23-.13.35-.06.25-.1.49-.09.71,0,.21.01.37.02.47.03.21.08.44.15.69.08.26.23.52.43.76.04.04.08.09.12.14.04.04.09.09.15.14.29.26.64.42,1.02.49.36.07.73.09,1.1.07.09,0,.18-.01.27-.02.09,0,.18-.02.27-.03l2.05-.24c.2-.02.35-.04.5-.04.15,0,.2.01.22.02l.03.06s.02.05.02.07l.11-.03v.03s.01-.02.02-.04l.11-.03-.23.13.07.17c.06.07.14.11.22.11.01,0,.02,0,.03,0l.26-.22c.01-.05.02-.11,0-.19v-.12c-.02-.05-.03-.1-.05-.2l-.08-.66s-.01-.1-.02-.16c0-.07-.01-.13-.02-.22v-.07s-.13.02-.13.02c0-.02,0-.03,0-.05l.11-.06c0-.07-.02-.13-.05-.17-.05-.12-.17-.19-.31-.17l-.23.17c-.03.06-.04.12-.03.18h.25s-.24.06-.24.06v.16c0,.08-.02.11-.02.11,0,0-.05.04-.21.06-.12.02-.27.05-.47.07l-2.2.26c-.39.05-.75.06-1.08.04-.29-.02-.55-.1-.76-.23-.16-.1-.29-.24-.41-.42-.11-.18-.18-.37-.21-.58-.02-.15-.02-.3-.01-.43,0-.12.04-.25.1-.38.02-.04.04-.08.06-.12.03-.04.06-.09.09-.13.12-.16.3-.31.55-.44.24-.13.64-.23,1.19-.3l2.31-.27c.2-.02.35-.04.5-.04.13,0,.2.01.24.05.01.05.02.09.04.16l.07.17c.07.08.17.12.27.1l.25-.22c.01-.05.02-.11,0-.19l-.02-.16c0-.06-.02-.11-.02-.16l-.02-.14c-.01-.08-.03-.14-.04-.21l-.06-.6s0-.08,0-.15l-.03-.27c0-.08-.03-.14-.05-.17-.05-.12-.17-.18-.31-.17l-.24.18Z"/>
      <path class="cls-1" d="M104.59,59.62h0l-.26.13s-.05.1-.05.2l.15.03-.17.07v.1c-.03.08-.05.11-.05.11,0,0-.06.03-.22.03-.12,0-.28,0-.47,0l-2.62-.06c-.38,0-.73-.02-1.03-.03-.29,0-.52-.03-.67-.05-.1-.02-.18-.04-.24-.08,0-.02,0-.04,0-.06,0-.02,0-.05,0-.08l-.09-.24c-.06-.06-.13-.09-.2-.09h0l-.29.18c-.02.05-.03.11-.04.19,0,.04,0,.1,0,.17,0,.05,0,.11,0,.19v.06s0,.36,0,.36c0,.11,0,.23-.02.36l-.06,1.02c-.01.22-.02.47-.03.76,0,.3.01.4.03.46.03.09.1.21.29.27l.06.02h0s.16.04.16.04c.06.02.13.03.21.05.1.01.19.02.28.04.11.02.18.02.2.02h.03c.06,0,.1,0,.13-.01.13-.03.22-.15.22-.27l-.15-.28s-.1-.04-.16-.05c-.02,0-.05-.01-.08-.02-.02,0-.04-.01-.08-.03-.04-.01-.07-.03-.11-.05-.03-.02-.06-.04-.09-.06-.07-.06-.1-.13-.11-.24-.02-.16-.02-.34-.02-.54,0-.29.03-.5.05-.61.03-.12.06-.16.07-.16,0,0,.08-.05.39-.07.27-.02.7-.02,1.29,0l2.63.06c.2,0,.35.01.5.03.14.01.2.04.21.05,0,0,.02.01.02,0,0,.04,0,.08,0,.12,0,.03,0,.06,0,.09l.05.25c.05.09.14.14.25.15l.28-.18c.02-.05.03-.11.04-.19,0-.05,0-.11,0-.18,0-.06,0-.13,0-.2v-.14s0-.35,0-.35l.03-.47s0-.09.01-.16v-.28c0-.08,0-.14-.01-.18-.04-.12-.15-.21-.27-.21Z"/>
      <path class="cls-1" d="M104.33,64.92c-.1-.01-.2.03-.27.11l-.08.22-.07.17s-.06.02-.22,0h0c-.12,0-.27-.02-.47-.05l-2.6-.34c-.38-.05-.72-.09-1.02-.14-.29-.04-.51-.08-.67-.12-.1-.03-.18-.06-.23-.1,0-.02,0-.05,0-.05,0,0,0,0,0,0,0-.03,0-.06,0-.11l-.05-.23c-.04-.07-.11-.11-.21-.13l-.29.16s-.04.1-.05.18l-.02.16c0,.05,0,.11-.02.17l-.1.79c0,.07-.02.14-.03.22-.01.08-.03.17-.04.26h.12s0,.04,0,.05l-.12.02v.08c-.02.07-.02.13,0,.19l.26.22c.06,0,.13,0,.18-.04l.14-.23v-.08s.03-.07.04-.11l.05-.18s.11-.02.18-.02c.16,0,.41.02.72.05.3.04.64.08,1.03.13l2.59.34c.2.03.35.05.49.08.13.03.19.06.22.1,0,.05,0,.1,0,.18l.03.18c.04.09.13.15.22.17l.31-.16s.04-.1.05-.18c0-.05.01-.1.02-.17,0-.05,0-.11.02-.16l.03-.36-.24-.07.25-.03.07-.45c.01-.07.03-.13.03-.19l.02-.15c0-.07,0-.13,0-.19l-.26-.22ZM98.24,66.24s0-.02,0-.03c.02,0,.04.02.06.03h-.06Z"/>
      <path class="cls-1" d="M103.94,68.49l-.28.06s-.08.1-.1.16l.23.12-.12-.03s0-.02,0-.03v.03s-.12-.03-.12-.03l-.06.15c-.04.08-.06.09-.06.09-.01,0-.06.02-.22-.02-.12-.02-.27-.06-.46-.11l-2.3-.61-.06.24.06-.24c-.6-.16-1.08-.21-1.45-.16-.38.05-.7.16-.95.32-.12.07-.23.15-.33.25-.09.09-.17.18-.25.28-.15.21-.27.42-.35.62-.08.2-.13.35-.15.45-.05.21-.09.44-.11.69-.02.27.02.57.12.87.02.05.04.11.06.17.02.05.05.11.08.18.18.34.44.62.77.83.31.19.65.35,1,.47.09.03.17.06.26.08.08.03.17.05.26.07l1.99.53c.19.05.34.1.44.13h.04s0,.02,0,.02c.13.05.18.08.19.1v.06s0,.05,0,.07l-.02.08v.19c.04.1.11.17.21.19l.33-.12s.05-.1.07-.17l.03-.11s.02-.1.05-.2l.17-.63s.03-.1.04-.16l.08-.28-.12-.03s.01-.03.02-.05h.12c.02-.09.03-.15.02-.19-.01-.13-.1-.23-.23-.26l-.28.07s-.07.1-.09.17l-.07.2c-.04.08-.06.09-.06.09,0,0-.06.02-.22-.02-.12-.02-.27-.06-.46-.11l-2.14-.57c-.38-.1-.72-.22-1.01-.36-.27-.12-.48-.29-.62-.49-.11-.15-.18-.34-.22-.54-.04-.21-.03-.41.02-.61.04-.15.09-.29.15-.41.05-.11.13-.22.24-.32.03-.03.06-.06.1-.09.04-.03.08-.06.14-.09.17-.1.4-.17.67-.21.28-.03.68.02,1.21.16l1.08.29c.58.16.97.26,1.17.31.19.05.34.1.44.13h.04s0,.02,0,.02c.13.05.19.09.2.13,0,.05-.01.09,0,.11l-.02.06v.18c.03.09.1.16.21.2l.33-.12s.05-.09.07-.17c.01-.04.02-.1.04-.16.01-.05.03-.11.04-.17l.13-.55c.02-.06.04-.13.07-.23l.04-.14s.02-.08.05-.14l.07-.26c.02-.07.03-.13.02-.2-.02-.13-.11-.23-.22-.25ZM102.87,73.03s-.03.01-.05.02h-.04s.08-.02.08-.02Z"/>
      <path class="cls-1" d="M100.5,75.64c-.05-.02-.1-.04-.16-.06-.06-.02-.12-.04-.18-.05-.25-.06-.52-.06-.82,0-.29.05-.64.19-1.05.4l-.42.21c-.2.1-.38.18-.53.25-.13.06-.26.1-.37.12-.1.01-.19.01-.28,0-.1-.01-.2-.04-.29-.08l-.08-.04c-.16-.09-.29-.23-.37-.43-.08-.19-.07-.41.05-.68.09-.21.21-.38.39-.52.15-.12.33-.15.54-.11.05.01.09.02.13.04.04.02.08.03.11.04.21.09.36.03.44-.15l-.07-.33s-.07-.06-.15-.1c-.02,0-.04-.02-.07-.04-.05-.03-.1-.05-.15-.07-.07-.03-.15-.07-.24-.12-.1-.05-.2-.09-.3-.14-.12-.05-.19-.07-.23-.08-.07-.02-.19-.01-.31.08l-.05.04c-.15.13-.28.29-.39.46-.11.17-.2.35-.28.53-.09.22-.16.44-.2.68-.04.24-.04.48.01.71.04.17.09.32.17.46.07.13.15.24.24.35.12.14.24.25.37.33.13.08.24.14.33.18.12.05.24.09.36.12.13.03.26.05.39.05.23,0,.48-.04.75-.12.26-.08.56-.21.92-.41l.23-.13c.27-.14.5-.25.67-.32.16-.06.29-.1.4-.1.05,0,.11,0,.17.01s.11.03.16.05c.2.09.33.21.38.38.06.18.04.37-.04.56-.07.17-.15.3-.22.38-.09.1-.16.15-.2.17-.05.03-.09.04-.15.05-.02,0-.04,0-.07,0-.03,0-.07,0-.08,0-.04-.01-.09-.02-.13-.03l-.06-.02c-.21-.06-.35.02-.41.16l.09.36s.1.07.18.1c.12.05.23.1.32.14.09.04.16.08.22.11l.14.07s.07.04.07.04h.28c.08-.06.12-.13.14-.18,0-.02.02-.04.04-.07.02-.03.05-.07.08-.12.07-.09.14-.2.2-.31.06-.11.13-.25.19-.4.22-.52.26-1.01.11-1.45-.15-.45-.46-.77-.92-.97Z"/>
      <path class="cls-1" d="M25.26,73.7c-.02-.05-.04-.1-.05-.16l-.11-.32-.24.08h0s.21-.16.21-.16l-.24.08.22-.14-.13-.52c-.02-.08-.04-.17-.07-.25l-.04-.16c-.02-.07-.05-.13-.08-.16l-.32-.11c-.07.02-.12.06-.16.1l-.05.28.02.08s.01.07.02.11l.03.19s-.1.08-.19.11c-.15.07-.37.14-.64.22-.29.09-.62.19-.99.3l-.61.18-.85-2.87.61-.18c.37-.11.7-.2.98-.29.28-.08.5-.13.66-.16.1-.02.18-.02.25,0,0,.02.02.04.03.06,0,.02.02.05.03.09l.14.18c.07.04.15.05.24.03l.2-.26c0-.05,0-.11-.02-.18-.01-.04-.03-.1-.05-.16-.02-.05-.04-.1-.05-.16l-.11-.34-.24.08.21-.17-.08-.34c-.02-.06-.04-.13-.06-.21-.02-.08-.04-.17-.07-.25l-.04-.16c-.02-.07-.05-.13-.08-.16l-.33-.11c-.06.02-.11.05-.16.11l-.04.27.02.07s.01.07.02.11l.03.19s-.1.08-.19.11c-.15.06-.36.14-.64.22-.25.08-.54.16-.86.26l-1.49.44h0s-1.16.34-1.16.34c-.19.06-.34.1-.48.13-.14.03-.2.02-.24-.01-.02-.04-.04-.08-.07-.14l-.11-.17c-.07-.06-.17-.08-.27-.06l-.22.26c0,.06,0,.12.02.18.01.04.03.1.05.16.02.05.03.1.05.16l.11.34.24-.08-.21.17.12.46s.02.08.03.13l.08.28c.02.07.04.12.08.17.08.1.2.14.33.1l.2-.2c.01-.05.01-.11,0-.17l-.05-.23c0-.08,0-.12,0-.12,0,0,.04-.04.17-.09h0s.03,0,.03,0c.11-.04.26-.09.45-.15l1.13-.33.85,2.86-1.13.34c-.18.05-.32.09-.47.12h-.01c-.14.03-.2.02-.24-.01-.02-.04-.04-.08-.05-.1,0-.02,0-.04-.01-.04,0,0,0,0,0,0l-.11-.17c-.08-.07-.18-.09-.27-.06l-.22.26c0,.05,0,.11.02.18.01.05.03.1.05.16.02.05.04.1.05.16l.11.34.26-.02-.22.13.12.45s.02.08.03.13l.08.29c.02.07.05.12.08.17.06.08.14.12.23.12.03,0,.06,0,.1-.01l.2-.2c.01-.05.01-.11,0-.17l-.05-.23c0-.08,0-.12,0-.12,0,0,.04-.04.2-.1.11-.04.26-.09.45-.15l2.52-.74c.37-.11.7-.2.99-.29.28-.08.5-.13.66-.16.1-.01.19-.02.25,0,.01.03.03.06.02.03,0,.03.02.06.04.11l.14.19c.07.04.16.05.24.03l.2-.26c0-.06,0-.12-.02-.18-.01-.05-.03-.1-.05-.16ZM24.49,72.35s0,.02,0,.03c-.02,0-.05,0-.07-.01l.06-.02ZM23.31,68.36s0,.02,0,.03c-.02,0-.05,0-.07-.01l.06-.02Z"/>
      <path class="cls-1" d="M19.21,67.91c.18.04.35.06.53.07.06,0,.12,0,.17,0,.11,0,.22,0,.32-.02l-.03-.25.03.25c.1-.01.21-.03.31-.04.1-.02.21-.04.32-.07.66-.19,1.26-.57,1.77-1.15.53-.59.74-1.4.64-2.42-.1-1.03-.54-1.83-1.29-2.39-.75-.55-1.6-.78-2.55-.68-1,.1-1.76.51-2.27,1.22-.51.7-.71,1.53-.62,2.49.09.91.42,1.61.97,2.1.53.47,1.11.77,1.71.89ZM17.83,63.33c.41-.49,1.06-.78,1.94-.87.18-.02.36-.03.52-.03.46,0,.83.08,1.1.22.37.21.64.45.8.71.08.14.14.28.18.41.04.14.07.26.08.37.07.65-.12,1.2-.58,1.7-.46.5-1.13.79-1.99.88h0c-.8.08-1.41-.06-1.84-.41-.43-.36-.67-.83-.74-1.43-.06-.57.11-1.08.52-1.57Z"/>
      <path class="cls-1" d="M17.98,59.9s.09,0,.14,0c.09,0,.15,0,.22-.01.25-.03.51-.12.77-.28.26-.15.54-.4.85-.74l.32-.34c.15-.16.29-.3.41-.41.11-.1.22-.18.31-.24.09-.05.18-.08.27-.1.09-.02.2-.03.31-.02v-.25s.08.26.08.26c.18.02.34.11.5.27.14.15.21.36.19.65-.01.23-.07.43-.19.62-.1.16-.25.25-.47.29-.05,0-.09,0-.13,0h-.12c-.07,0-.12,0-.17.02-.11.04-.18.14-.18.27l.18.28s.08.03.19.05c.02,0,.04,0,.07,0,.05,0,.12.02.17.02l.27.03c.1,0,.21.02.33.02.04,0,.08,0,.11,0,.06,0,.11,0,.15,0,.1-.02.18-.08.25-.17v-.03s.02,0,.02,0h0s.02-.03.02-.03c.09-.18.16-.37.21-.57h0c.04-.19.07-.39.08-.59.01-.24,0-.48-.05-.7-.05-.24-.13-.46-.26-.66-.09-.15-.2-.27-.31-.37-.11-.09-.22-.18-.34-.25-.16-.09-.31-.15-.46-.18-.15-.04-.27-.05-.38-.06-.13,0-.26,0-.38,0-.13.01-.26.04-.38.08-.21.07-.43.19-.66.37-.21.17-.45.4-.72.7l-.17.21c-.21.23-.38.41-.52.53-.12.11-.24.19-.34.24-.05.02-.11.04-.16.05-.05,0-.11.01-.17,0-.22-.01-.38-.08-.49-.22-.12-.15-.17-.33-.16-.54,0-.19.03-.33.07-.43.04-.1.08-.18.12-.23.04-.05.07-.07.13-.11.01,0,.04-.01.06-.02.03,0,.06-.02.07-.02.04,0,.09,0,.13-.02h.07s.09-.02.13-.04c.11-.04.19-.14.19-.27l-.22-.3c-.05-.02-.12-.03-.2-.03-.14,0-.26-.01-.35-.02-.1,0-.18-.01-.27-.03l-.23-.03-.25.11c-.04.05-.07.12-.07.21,0,.02,0,.05,0,.08,0,.04-.02.08-.03.14-.04.11-.06.23-.08.36-.02.13-.03.27-.04.44-.03.57.11,1.04.4,1.39.3.37.7.57,1.2.59ZM16.86,56.83h0s0,0,0,0Z"/>
      <path class="cls-1" d="M16.77,55.23s.04.03.04.02l.05.04s.07.03.18.08l.25.1s-.02,0-.03,0l.27.11c.1.04.17.06.2.07l.19-.02c.09-.04.15-.12.17-.21l-.03-.21c-.03-.06-.08-.11-.15-.14-.02,0-.04-.02-.05-.04-.03-.02-.07-.06-.12-.1-.04-.04-.06-.09-.07-.15,0-.07,0-.21.03-.48l.15-.92,3.09.55c.38.07.71.13,1.01.18.28.05.5.1.66.15.1.03.18.06.22.11,0,.02,0,.04,0,.06,0,.02,0,.05,0,.1l.05.23c.04.07.11.11.2.13l.3-.14s.05-.1.06-.18l.02-.16c0-.05.01-.1.03-.16l-.16-.03s0-.02,0-.02l.18-.02.07-.47c.01-.06.03-.13.05-.24.01-.06.03-.14.04-.22l.06-.33-.11-.02s0-.02,0-.04l.12-.02c.01-.08.02-.14,0-.19l-.24-.24c-.06,0-.13,0-.19.03l-.16.23-.02.08s-.02.07-.03.1l-.06.18c-.06.02-.13.02-.22.01-.17,0-.39-.04-.67-.08-.3-.05-.63-.11-1.02-.18l-3.08-.54.15-.74c.09-.46.18-.58.2-.61.08-.08.12-.08.13-.08h.1c.08.02.14.01.18,0,.13-.02.22-.12.23-.24l-.09-.27s-.12-.08-.2-.09l-.13-.03c-.07-.01-.14-.03-.27-.06h-.08c-.07-.03-.14-.04-.2-.05-.07-.02-.13-.03-.18-.04-.04,0-.08,0-.1-.01l-.29.23s0,.08,0,.14c0,.04,0,.08,0,.13,0,.06,0,.13-.01.22,0,.08-.02.18-.05.31l-.52,2.96s-.02.08-.04.16l-.06.27s0,.05-.02.08c0,.02-.01.05-.03.08-.01.04-.02.07-.06.14l-.03.06c-.04.05-.06.1-.08.18l.11.25s.07.05.07.05ZM23.5,52.83v.02s-.05-.01-.05-.01h.05Z"/>
    </g>
  </g>
</svg>