<?xml version="1.0" encoding="UTF-8"?>
<svg id="Graphics" xmlns="http://www.w3.org/2000/svg" viewBox="0 0 120 120">
  <defs>
    <style>
      .cls-1 {
        fill: #000;
        stroke-width: 0px;
      }
    </style>
  </defs>
  <g id="Vittoria_Alata_Bold" data-name="Vittoria Alata Bold">
    <g>
      <path class="cls-1" d="M93.84,21.22c-2.31-2.06-4.96-2.57-7.46-1.42-2.53,1.16-9.35,6.07-11.3,7.5l-9.39-1.64c1.19-1.56,1.95-4.39,1.35-9.45l-.11-.13.09-.02c-.04-.19-1.13-4.78-4.82-6.28-2.31-.94-5-.44-7.98,1.46-.72-1.51-2.22-2.57-3.97-2.57-2.44,0-4.42,2.03-4.42,4.53s1.98,4.53,4.42,4.53c.14,0,.27-.03.4-.04.15,2.18,1.25,4.06,1.86,4.95-.13.95-.46,1.68-1.01,2.14-.3.26-.64.42-.98.53-.5-4.9-3.79-8.86-7.8-10.42-4.61-1.79-11.4-.68-15.39,8.35-.59,1.34-1.15,2.86-1.67,4.49h0s-.01.05-.01.05c-4.6,14.5-6.43,39.02-7.36,51.47l-.18,2.45c-.48,6.33,1.2,8.85,2.69,9.85.67.45,1.41.67,2.16.67.63,0,1.26-.15,1.88-.46,1.62-.82,2.72-2.56,2.81-4.4,0-.04.04-.52.11-1.34.6.37,1.25.54,1.89.54.02,0,.04,0,.07,0,2.5-.04,4.52-2.52,4.59-5.63,0-.44.05-1.16.11-2.1.47.23.96.38,1.45.43.12.01.25.02.37.02,1.9,0,3.89-1.35,4.49-4.43.62.38,1.3.58,2,.58.61,0,1.22-.14,1.8-.43.49-.24.91-.58,1.27-.98.61,9.08.85,26.55.72,29.51-.07,1.45,0,3.53,1.32,4.89,1.59,1.63,4.06,1.56,7.83,1.48,1.39-.03,2.96-.07,4.73-.03l1.8.04c1.51.04,2.81.07,3.94.07,3.27,0,5.06-.28,6.25-1.51,1.15-1.19,1.22-2.91,1.12-4.43-.02-.3-.03-.78-.03-1.39,1.02.35,2.34.43,3.94.53.48.03,1.01.06,1.58.1,1.32.1,2.47.14,3.48.14,3.08,0,4.82-.46,5.84-1.47.74-.73,1.07-1.74,1-2.98-.18-2.82-5.18-4.33-9.88-5.13,0-.07.02-.13.02-.2.11-4.01.11-23.13.11-23.94l-.04-.07c-.01-4.41-.59-6.96-7.44-11.36l-2.2-11.35c.82-.58,1.61-1.31,2.4-2.14-.39,2.95-.31,5.8.28,8.31.97,4.17,3.19,6.97,6.24,7.89.71.21,1.43.32,2.16.32,2.44,0,5.01-1.17,7.41-3.42,2.9-2.72,5.27-6.75,6.67-11.36,1.88-6.19,1.65-12.1-.25-16.14.24.03.48.04.72.02.84-.08,1.51-.63,1.79-1.46.62-1.9-1-5.51-3.48-7.73ZM75.19,30.36l1.15-.27c2.4-1.76,9.11-6.56,11.3-7.57,1.25-.57,2.48-.39,3.76.57,1.48,1.1,2.47,2.83,2.87,3.97-1.02-.6-2.48-1.87-3.67-3.26l-2.39,1.8c.33.51.63,1.08.87,1.6l-.05.18-2.05-1.25-1.84.22-6,5.99c-.29-.26-.64-.49-1.04-.64-1.88-.72-4.39,0-6.06,1.62-.42-1.47-1.52-2.68-2.93-4.03l6.09,1.06ZM62.37,27.46c.17-.01.35-.03.52-.06,1.25,1.35,2.4,2.43,3.36,3.32,3.27,3.06,3.86,3.61,1.73,7.2l.05.03c-.29.29-.58.58-.89.85l-.65.57-4.41-3.73c.78-2.75.61-5.62.29-8.18ZM55.75,13.82c1.54-1,2.89-1.5,4.05-1.5.45,0,.88.08,1.27.24,1.01.4,1.72,1.28,2.2,2.13-2.35.09-5.87,1-9.07,4.85-.38-.84-.68-1.88-.52-2.91.17-1.09.85-2.01,2.07-2.8ZM48.83,13.19c0-.84.64-1.53,1.42-1.53s1.42.69,1.42,1.53-.64,1.53-1.42,1.53-1.42-.69-1.42-1.53ZM53.43,27.08c1.19-1.01,1.88-2.46,2.08-4.29,3.21-4.8,6.94-5.22,8.67-5.11.36,4.4-.57,6.37-1.61,6.72-.99.33-2.63-.53-3.37-1.77l-2.58,1.53c.6,1.01,1.54,1.91,2.63,2.53.31,2.29.58,4.6.25,6.78l-1.58-1.34-1.94,2.29,2.52,2.13c-.68,1.27-1.7,2.46-3.24,3.51-3.63-2.6-6.54-5.66-5.39-9.07.3-.87.49-1.73.61-2.58.89-.15,1.98-.51,2.95-1.33ZM47.67,48.85s-.08-.06-.12-.12c-.68-.97-.58-3.57-.29-5.11h0s-2.95-.57-2.95-.57c0,0,0,0,0,0h0s0,.01,0,.02l-.79,4.15c-.12.63-.73,1.04-1.35.92-.63-.12-1.04-.73-.92-1.36l.79-4.17-.25-.05.02-.09-2.95-.56-.79,4.17c-.06.3-.23.57-.49.74-.26.17-.56.24-.87.18-.3-.06-.57-.23-.74-.49-.17-.26-.24-.56-.18-.87l.79-4.17h-.05s.03-.14.03-.14l-2.95-.56-.79,4.17c-.06.3-.23.57-.49.74-.26.17-.56.24-.87.18-.3-.06-.57-.23-.74-.49-.17-.26-.24-.56-.18-.87l.79-4.17-2.95-.56v.07s-.03,0-.03,0l-.79,4.17c-.12.63-.72,1.04-1.36.92-.3-.06-.57-.23-.74-.49-.17-.26-.24-.56-.18-.87l.79-4.17-.18-.03c.19-1.01.39-2,.6-2.96.34.2.7.38,1.1.48.35.09.7.13,1.05.13.59,0,1.18-.13,1.72-.38.57.83,1.39,1.44,2.38,1.69.35.09.7.13,1.05.13.61,0,1.22-.14,1.78-.41.55.77,1.34,1.36,2.32,1.62.35.09.7.13,1.04.13.65,0,1.27-.16,1.84-.44.55.73,1.32,1.3,2.27,1.54.35.09.7.13,1.04.13,1.85,0,3.54-1.24,4.02-3.09l.14-.51c.79,1.15,1.81,2.22,2.95,3.22-.77,1.8-1.51,3.49-2.19,5.06-.48,1.1-.92,2.13-1.35,3.12ZM41.65,17.68c2.16.84,4.03,2.61,5.08,4.91l-1.6,4.37c-.21.6-.87.93-1.47.72-.29-.1-.53-.31-.66-.59-.14-.28-.15-.59-.05-.88l1.39-4.01-.15-.05.02-.06-2.83-.98-1.39,4.01c-.1.29-.31.53-.59.66-.28.13-.59.15-.88.05-.6-.21-.93-.87-.72-1.48l1.39-4.01-2.84-.98v.03s-.12-.04-.12-.04l-1.39,4.01c-.21.6-.87.93-1.47.72-.6-.21-.93-.87-.72-1.48l1.2-3.46c2.6-2.2,5.5-2.36,7.82-1.45ZM29.97,24.74c.46.98,1.3,1.78,2.4,2.16.45.15.91.23,1.36.23.55,0,1.08-.12,1.58-.32.48.83,1.24,1.51,2.21,1.84.45.16.91.23,1.36.23.52,0,1.02-.12,1.51-.31.5.91,1.29,1.6,2.27,1.93.45.16.91.23,1.36.23,1.26,0,2.46-.58,3.25-1.56-.07.28-.15.56-.24.85-.24.71-.37,1.4-.42,2.07l-1.4,5.08c-.16.62-.79.99-1.41.83-.58-.15-.92-.71-.84-1.29,0,0,0-.01,0-.02l1.06-4.1h-.02s.02-.1.02-.1l-2.9-.75-1.06,4.1s-.01.1-.02.15c-.18.59-.79.94-1.39.78-.62-.16-.99-.79-.83-1.41l1.06-4.1h0s0,0,0,0l-2.9-.75-1.06,4.1c-.08.3-.27.55-.53.71s-.58.2-.88.12c-.3-.08-.55-.27-.71-.53-.16-.27-.2-.58-.12-.88l1.06-4.1h-.03s.03-.11.03-.11l-2.9-.75-1.06,4.1c-.08.3-.27.55-.53.71-.27.16-.58.2-.88.12-.3-.08-.55-.27-.71-.53s-.2-.58-.12-.88l1.06-4.1h0c.44-1.35.9-2.6,1.39-3.74ZM24.67,87.17c-.04.94-.62,1.64-1.16,1.91-.57.28-.91.05-1.02-.02-.88-.59-1.7-2.77-1.37-7.13l.18-2.46c.58-7.76,1.51-20.27,3.24-31.99.35.18.72.33,1.12.4.26.05.52.07.79.07.73,0,1.43-.2,2.07-.57.05.06.1.13.15.19-1.63,10.53-3.89,38.31-4,39.59ZM29.67,83.56h0c-.6,0-1.27-1.1-1.41-3.2.77-8.88,2.15-23.94,3.25-31.49.06,0,.12.02.19.02.68,0,1.35-.18,1.96-.51.43.56.97.99,1.6,1.27-1.76,10.05-2.83,18.63-3.4,24.33h-.02s0,.08,0,.13c-.34,3.39-.5,5.74-.52,6.76-.04,1.65-.98,2.68-1.64,2.69ZM37.87,73.95c-.2,1.49-.9,2.39-1.72,2.32-.68-.06-1.33-.77-1.33-1.99.57-5.68,1.65-14.32,3.44-24.49.27-.09.52-.21.77-.36.48.66,1.16,1.18,1.96,1.46-1.18,6.06-1.95,12.72-2.49,17.54h-.01c0,.07,0,.13-.01.2-.03.23-.05.47-.08.69-.21,1.88-.38,3.47-.54,4.62ZM43.2,72.31c-.2.1-.58.22-.96-.05-.49-.35-.94-1.37-.79-3.19.55-4.97,1.36-12.05,2.62-18.3.31-.14.61-.31.88-.52.04.06.08.12.12.18.37.54.85.93,1.4,1.2-2.57,6.15-3.76,9.97-2.91,12.86-.27.84-1.11,3.95.4,6.78-.14.48-.4.85-.77,1.04ZM73.57,95.77c0-.39.01-.79.02-1.2.14-8.33.32-19.42-.14-24.61,1-.14,2.04.06,3.08.59,0,.78,0,1.63.04,2.6,0,5.87-.03,17.48-.1,20.42-.01.51-.18.9-.53,1.22-.57.54-1.51.83-2.38.98ZM76.41,67.28c-2.11-.65-4.24-.44-6.18.68-3.98,2.28-6.27,7.78-5.97,14.35.37,8.11-.71,13.32-3.3,15.92-2.57,2.58-6.65,2.62-11.4,2.44,0-1.02,0-2.23-.02-3.58,2.36-.11,5.44-1.07,7.9-3.06,2.84-2.3,4.36-5.52,4.41-9.33.09-7.53,3.37-15.07,7.63-17.55,2.14-1.25,4.48-1.2,6.93.12,0,0,0,0,0,0ZM49.33,86.15c1.09.36,2.2.56,3.27.56,1.23,0,2.41-.23,3.51-.7,1.01-.44,1.92-1.07,2.76-1.87,0,.18-.02.35-.02.53-.04,2.92-1.14,5.29-3.29,7.03-1.92,1.56-4.38,2.29-6.05,2.39-.04-2.48-.1-5.2-.17-7.93ZM73.97,63.34h0s0,0,0,0c0,0,0,0,0,0ZM70.55,63.51c-.88.22-1.74.56-2.58,1.04-3.64,2.12-6.24,6.49-7.71,11.27l-.19-.05c-1.12,3.97-2.85,6.49-5.15,7.47-2.23.96-4.51.21-5.69-.34-.09-2.66-.2-5.23-.32-7.44.82.33,1.63.49,2.46.49.13,0,.26,0,.39-.01,3.26-.2,6.2-2.84,9.62-6.75,3.88-4.44,7.07-5.58,9.18-5.69ZM59.11,67.23c-3.41,3.9-5.66,5.62-7.54,5.73-1.22.07-2.49-.54-4.03-1.93-1.04-.94-1.39-2.12-1.44-3.17.77.52,1.7.96,2.82,1.35,3.22,1.11,6.41-1.37,9.79-3.98,3.99-3.09,7.07-5.17,10.03-4.49-2.64.56-5.96,2.28-9.64,6.49ZM70.59,94.52c-.08,4.7-.14,8.4-.06,9.69.07,1.17-.03,1.9-.29,2.17-.68.71-3.74.63-7.96.52l-1.81-.04c-1.84-.04-3.45,0-4.87.03-2.75.07-4.93.12-5.61-.58-.38-.39-.54-1.28-.47-2.65.95.04,1.89.07,2.81.07,4.16,0,7.94-.56,10.76-3.38,3.27-3.28,4.59-9.05,4.17-18.17-.21-4.61,1.06-8.62,3.3-10.73.32,5.46.15,15.83.03,23.09ZM86.35,99.26c.01.43-.08.52-.12.56-.34.34-1.7.85-7,.47-.58-.04-1.12-.08-1.61-.11-1.58-.1-2.94-.18-3.33-.45-.05-.03-.18-.2-.22-.99,1.29-.23,2.82-.72,3.93-1.76.1-.09.17-.19.25-.29,3.8.61,7.49,1.78,8.09,2.58ZM68.94,57.71c-4.46-.73-8.69,2.54-12.07,5.15-2.72,2.11-5.29,4.09-6.98,3.52-2.39-.82-3.03-1.72-3.3-2.33-1.14-2.58,1.24-8.05,5.17-17.12.59-1.36,1.22-2.8,1.88-4.34,1.82,1.3,3.74,2.45,5.41,3.45l1.05.63c2.79,1.69,5.03,2.08,7.01,1.59l1.83,9.45ZM70.17,42.67c-2.73,2.89-4.61,3.78-8.51,1.42l-1.06-.64c-.86-.51-1.78-1.06-2.69-1.64,1.28-1.02,2.24-2.13,2.94-3.3l4.07,3.43c.94.79,2.29.78,3.21-.03l1-.88c1.83-1.6,3.31-3.46,4.68-5.22.74-.96,1.85-1.35,2.57-1.39.45-.03.72.08.75.11,0,0,0,.03,0,.11-.03.43-.34,1.64-2.59,3.73-1.73,1.61-3.12,2.97-4.36,4.29ZM92.2,45.65c-1.25,4.11-3.32,7.67-5.85,10.04-2.31,2.16-4.67,3.01-6.65,2.42-1.98-.6-3.47-2.63-4.19-5.71-.78-3.33-.53-7.4.68-11.46.13-.12.25-.24.39-.37,1.44-1.34,2.44-2.61,3-3.81l6.26,3.49,1.46-2.62-5.92-3.3,5.04-5.03,2.68,1.63.8.22c.75-.01,1.27-.23,1.64-.51,2.07,3.2,2.46,9.06.66,15.01Z"/>
      <path class="cls-1" d="M48.69,61.12l1.64,2.51c.38-.25,9.29-6.18,9.18-14.77l-3,.04c.09,6.93-7.74,12.16-7.82,12.22Z"/>
      <path class="cls-1" d="M61.08,50.32c.08,2-1.05,5.29-1.49,6.4l2.79,1.11c.07-.19,1.82-4.58,1.7-7.62l-3,.12Z"/>
    </g>
  </g>
</svg>