<?xml version="1.0" encoding="UTF-8"?>
<svg id="icons" xmlns="http://www.w3.org/2000/svg" viewBox="0 0 150 150">
  <path d="m126.49,56.74c.03-.07.07-.14.09-.22.02-.05.03-.1.04-.15.02-.08.04-.16.05-.24,0-.01,0-.03,0-.04,0-.04,0-.08,0-.12,0-.08,0-.15,0-.23,0-.07-.02-.13-.03-.19,0-.05-.01-.1-.02-.15,0-.02-.02-.04-.02-.06-.02-.06-.04-.12-.07-.18-.03-.07-.05-.13-.09-.19-.03-.05-.06-.1-.09-.15-.04-.07-.09-.13-.14-.19-.01-.02-.02-.04-.04-.05l-21.25-23.74c-.71-.79-1.91-.89-2.74-.23l-23.86,19.14-23.08-26.03c-.69-.78-1.86-.9-2.69-.28l-29.06,21.66s-.05.05-.08.07c-.07.06-.13.11-.19.18-.03.04-.06.08-.1.12-.05.06-.1.13-.14.2-.03.05-.06.11-.08.16-.02.05-.05.09-.07.15,0,.02,0,.04-.02.06-.02.06-.03.12-.05.18-.02.07-.04.14-.05.22,0,.02,0,.03-.01.05,0,.04,0,.08,0,.12,0,.08,0,.15,0,.23,0,.06.01.11.02.17.01.07.02.15.04.22.02.06.04.11.06.17.02.07.05.13.08.2.03.05.06.11.09.16.04.06.08.12.12.18.02.02.03.05.05.07l23.91,28.52v48.53s0,.01,0,.02c0,.09.01.18.03.26,0,.04,0,.09.02.13.01.06.04.12.06.19.02.06.03.13.06.19.02.04.04.07.06.1.04.08.08.16.13.23.04.05.08.1.12.15.04.05.08.1.12.15.04.04.09.07.13.11.06.05.11.1.17.14.03.02.07.04.1.06.08.05.16.09.25.13,0,0,0,0,.01,0,.05.02.11.03.17.05.06.02.12.04.19.06.13.03.26.04.39.04,0,0,0,0,0,0h49.68s.05,0,.07,0c.07,0,.13-.01.2-.02.07,0,.14-.02.21-.04.02,0,.05,0,.07-.01.04-.01.07-.03.11-.04.07-.02.13-.05.2-.08.06-.03.11-.06.17-.09.06-.03.11-.07.16-.1.05-.04.1-.08.15-.13.05-.04.09-.08.13-.13.04-.05.08-.1.12-.15.04-.05.08-.1.11-.16.03-.05.06-.11.09-.17.03-.06.06-.12.08-.18.02-.06.04-.12.06-.19.02-.06.03-.12.04-.19.01-.07.02-.14.02-.21,0-.04.01-.07.01-.11v-48.27l25.15-19.28c.11-.08.21-.18.29-.28.03-.03.05-.07.07-.1.05-.07.11-.14.15-.22.03-.05.04-.1.07-.14Zm-53.92,14.92l3.45-.91v3.02h-4.29l.85-2.11Zm-5.15,2.11h-2.88l3.22-.85-.34.85Zm8.63-9.06l-.6-.23.6-1.51v1.74Zm3.98,5.86l1.28.5.77,2.7h-2.06v-3.2Zm5.97,2.34l2.19.86h-1.95l-.25-.86Zm-.73-4.58l3.42-.9,3.05,3.44-6.47-2.54Zm-1.63-3.71l-1.21-4.24,3.28,3.7-2.07.54Zm-11.9-1.6l-2.39-.94,4.08-3.27-1.68,4.21Zm-1.49,3.71l-.63,1.58-11.96,3.14,8.09-6.49,4.5,1.77Zm-20.9,6.26l-18.08-21.57,30.18,11.85-12.11,9.71Zm1.72,4.79h14.76l-14.76,36.88v-36.88Zm19.07,0h5.87l-.18,45.26h-23.8l18.11-45.26Zm9.87,0h3.22l12.89,45.26h-16.28l.18-45.26Zm7.38,0h9.38v32.93l-9.38-32.93Zm11.64-4.72l-6-6.77,22.57-5.93-16.57,12.7Zm4.2-38.15l17.81,19.89-30.98,8.14-9.05-10.21,22.23-17.83Zm-49.74-7.17l21.73,24.5-10.16,8.15-36.28-14.24,24.71-18.41Z"/>
</svg>