<?xml version="1.0" encoding="UTF-8"?>
<svg id="icons" xmlns="http://www.w3.org/2000/svg" viewBox="0 0 150 150">
  <path d="m29.15,122.52c-.22,0-.45-.04-.67-.11-1.04-.37-1.59-1.51-1.22-2.55,13.85-39.17,38.4-62.15,56.55-74.53,19.7-13.43,35.91-17.54,36.6-17.71,1.07-.26,2.16.39,2.42,1.46.27,1.07-.39,2.16-1.46,2.42-.16.04-16.32,4.15-35.44,17.22-17.61,12.04-41.43,34.39-54.89,72.46-.29.82-1.06,1.33-1.89,1.33Z"/>
  <path d="m38.22,85.67c-.29,0-.58-.06-.86-.19-5.75-2.74-9.97-7.82-11.58-13.95-1.61-6.13-.42-12.61,3.25-17.79.56-.79,1.61-1.07,2.49-.65,5.75,2.75,9.97,7.83,11.57,13.95h0c1.61,6.12.43,12.61-3.24,17.79-.39.54-1,.84-1.63.84Zm-6.87-28.14c-2.23,3.93-2.86,8.56-1.7,12.97,1.16,4.42,3.99,8.17,7.88,10.52,2.23-3.93,2.85-8.57,1.7-12.98-1.16-4.41-3.99-8.16-7.88-10.52Z"/>
  <path d="m53.58,66.73c-.29,0-.58-.06-.86-.19-5.05-2.4-8.75-6.86-10.16-12.24-1.41-5.38-.37-11.07,2.85-15.61.56-.79,1.61-1.07,2.49-.65,5.04,2.41,8.75,6.87,10.15,12.24,1.41,5.37.37,11.06-2.85,15.61-.39.54-1,.84-1.63.84Zm-5.85-24.23c-1.79,3.28-2.27,7.12-1.31,10.77.96,3.66,3.28,6.79,6.46,8.79,1.78-3.29,2.26-7.13,1.3-10.78h0c-.96-3.66-3.27-6.78-6.46-8.79Z"/>
  <path d="m68.11,54.28c-.48,0-.97-.17-1.35-.52-3.42-3.11-5.27-7.53-5.09-12.13.19-4.6,2.39-8.85,6.04-11.68.77-.6,1.85-.55,2.57.1,3.41,3.11,5.26,7.53,5.08,12.12-.19,4.59-2.39,8.85-6.04,11.68-.36.28-.79.42-1.23.42Zm.72-19.96c-1.91,2.02-3.04,4.66-3.16,7.47-.11,2.81.8,5.53,2.54,7.7,1.91-2.02,3.04-4.66,3.16-7.47h0c.11-2.81-.8-5.53-2.54-7.69Z"/>
  <path d="m51.8,118.45c-5.28,0-10.41-1.92-14.42-5.46-.74-.65-.89-1.74-.36-2.57,3.41-5.35,8.99-8.91,15.31-9.78,6.31-.87,12.66,1.05,17.41,5.26.74.65.89,1.75.36,2.57-3.42,5.34-9,8.9-15.3,9.77-1,.14-2,.21-2.99.21Zm-10.37-7.34c3.68,2.65,8.26,3.8,12.82,3.17h0c4.55-.63,8.63-2.97,11.44-6.51-3.68-2.65-8.25-3.81-12.81-3.17-4.56.63-8.64,2.97-11.45,6.52Z"/>
  <path d="m67.94,95.71c-5.82,0-11.4-2.32-15.51-6.49-.69-.7-.77-1.8-.18-2.59,3.78-5.1,9.59-8.27,15.96-8.71,6.36-.44,12.56,1.92,17,6.45.69.7.76,1.8.18,2.59-3.78,5.09-9.6,8.26-15.95,8.7-.5.03-1,.05-1.5.05Zm-11.34-8.08c3.49,2.9,7.97,4.35,12.56,4.04h0c4.58-.31,8.82-2.37,11.87-5.71-3.48-2.9-7.96-4.36-12.56-4.05-4.59.31-8.83,2.37-11.88,5.71Z"/>
  <path d="m83.51,75.94c-5.66,0-11.07-2.3-14.99-6.4-.68-.71-.74-1.81-.14-2.59,3.67-4.81,9.26-7.76,15.33-8.09,6.07-.32,11.95,1.99,16.12,6.38.68.71.74,1.81.14,2.6-3.68,4.8-9.27,7.75-15.33,8.08h0c-.38.02-.76.03-1.14.03Zm-10.79-7.94c3.24,2.73,7.41,4.14,11.71,3.91h0c4.29-.23,8.28-2.09,11.2-5.15-3.23-2.73-7.41-4.15-11.71-3.91-4.3.23-8.29,2.09-11.21,5.15Z"/>
  <path d="m101.42,58.89c-.49,0-.98-.02-1.47-.07h0c-4.4-.43-8.36-2.74-10.89-6.35-.56-.81-.46-1.9.25-2.59,3.17-3.05,7.52-4.56,11.92-4.13,4.4.43,8.37,2.74,10.88,6.35.56.81.45,1.9-.26,2.59-2.82,2.71-6.56,4.2-10.44,4.2Zm-1.08-4.05c2.61.25,5.19-.42,7.32-1.87-1.8-1.83-4.2-2.98-6.81-3.24-2.61-.25-5.2.42-7.32,1.87,1.8,1.83,4.2,2.98,6.81,3.24h0Z"/>
  <path d="m115.89,47.31c-.17,0-.34,0-.51-.01-3.54-.15-6.81-1.82-8.99-4.6-.61-.77-.56-1.88.11-2.6,2.4-2.58,5.81-3.99,9.35-3.83,3.54.15,6.82,1.83,8.99,4.6.61.77.56,1.88-.11,2.6-2.29,2.46-5.49,3.84-8.83,3.84Zm-5-5.72c1.32,1.03,2.94,1.64,4.65,1.71h0c1.72.06,3.38-.4,4.79-1.32-1.31-1.03-2.94-1.64-4.65-1.71-1.72-.08-3.39.4-4.79,1.32Z"/>
  <path d="m81.57,43.78c-.7,0-1.38-.37-1.74-1.01-1.71-3.01-2-6.6-.78-9.84,1.21-3.24,3.78-5.77,7.05-6.94.92-.33,1.94.05,2.42.9,1.71,3.01,1.99,6.6.78,9.83-1.21,3.23-3.78,5.76-7.05,6.94-.22.08-.45.12-.68.12Zm4.19-13.18c-1.35.89-2.39,2.19-2.97,3.73-.57,1.53-.64,3.18-.21,4.72,1.35-.9,2.39-2.19,2.97-3.73h0c.57-1.53.64-3.17.21-4.72Z"/>
  <path d="m95.25,36.68c-.86,0-1.63-.55-1.9-1.39-.74-2.3-.42-4.79.87-6.83,1.29-2.04,3.4-3.4,5.8-3.75.96-.14,1.89.44,2.19,1.37.74,2.3.42,4.79-.87,6.83h0c-1.29,2.04-3.4,3.4-5.79,3.75-.1.01-.19.02-.29.02Zm4.39-4.84h0,0Zm-1.19-2.23c-.33.28-.62.61-.85.98-.23.36-.4.75-.51,1.16.33-.28.62-.61.86-.98.23-.36.4-.75.5-1.16Z"/>
</svg>