<?xml version="1.0" encoding="UTF-8"?>
<svg id="icons" xmlns="http://www.w3.org/2000/svg" viewBox="0 0 150 150">
  <path d="m87.14,58.15c-2.51-4.46-7.2-7.24-12.25-7.24s-9.75,2.77-12.25,7.24c-.34.61-.34,1.35,0,1.96,2.51,4.46,7.21,7.22,12.25,7.22s9.73-2.77,12.24-7.22c.34-.61.34-1.35,0-1.96Zm-12.25,5.19c-3.22,0-6.24-1.59-8.14-4.21,1.89-2.62,4.92-4.21,8.14-4.21s6.24,1.59,8.13,4.21c-1.9,2.62-4.92,4.21-8.13,4.21Z"/>
  <ellipse cx="75.11" cy="59.03" rx="2.6" ry="2.66"/>
  <path d="m85.49,99.39l1.89-1.93c.77-.79.76-2.06-.03-2.83-.79-.77-2.06-.76-2.83.03l-1.08,1.11-6.58-11.56c-.36-.63-1.02-1-1.76-1.01-.73,0-1.39.41-1.74,1.05l-6.37,11.73-1.28-1.31c-.77-.79-2.04-.8-2.83-.03-.79.77-.8,2.04-.03,2.83l2.14,2.19-3.55,6.54c-.53.97-.17,2.18.8,2.71.3.16.63.24.95.24.71,0,1.4-.38,1.76-1.05l2.96-5.46,5.77,5.9c.38.39.89.6,1.43.6s1.05-.22,1.43-.6l6.04-6.18,3.29,5.77c.55.96,1.77,1.29,2.73.75.96-.55,1.29-1.77.75-2.73l-3.85-6.77Zm-10.38,4.9l-5.2-5.32,5.24-9.65,5.37,9.44-5.41,5.54Z"/>
  <path d="m116.55,47.82c0-12.76-20.14-24.82-41.45-24.82s-40.06,11.26-41.37,23.53c-.18.39-.29.83-.29,1.29v67.35c0,.21.02.41.06.61-.04.15-.06.31-.06.47v8.65c0,1.1.9,2,2,2s2-.9,2-2v-6.65h3.37v6.65c0,1.1.9,2,2,2s2-.9,2-2v-6.65h3.26v6.76c0,1.1.9,2,2,2s2-.9,2-2v-6.76h3.04v6.76c0,1.1.9,2,2,2s2-.9,2-2v-6.76h3.15v6.65c0,1.1.9,2,2,2s2-.9,2-2v-6.65h3.37v6.65c0,1.1.9,2,2,2s2-.9,2-2v-6.65h3.26v6.76c0,1.1.9,2,2,2s2-.9,2-2v-6.76h3.04v6.76c0,1.1.9,2,2,2s2-.9,2-2v-6.76h1.74v6.65c0,1.1.9,2,2,2s2-.9,2-2v-6.65h3.37v6.65c0,1.1.9,2,2,2s2-.9,2-2v-6.65h3.26v6.76c0,1.1.9,2,2,2s2-.9,2-2v-6.76h4.02v6.65c0,1.1.9,2,2,2s2-.9,2-2V48.71c.13-.27.22-.57.22-.89Zm-41.66,27.63l-33.23-26.72h66.45l-33.22,26.72Zm.21-48.45c18.51,0,33.79,9.07,36.87,17.73H38.24c3.08-8.66,18.36-17.73,36.86-17.73Zm-37.66,87.24v-63.77l11.95,9.61v33.76c0,1.1.9,2,2,2s2-.9,2-2v-30.55l20.24,16.27c.37.29.81.44,1.25.44s.89-.15,1.25-.44l20.91-16.82v31.09c0,1.1.9,2,2,2s2-.9,2-2v-34.31l11.28-9.07v63.77H37.45Z"/>
</svg>