<?xml version="1.0" encoding="UTF-8"?>
<svg id="icons" xmlns="http://www.w3.org/2000/svg" viewBox="0 0 150 150">
  <path d="m126.69,65.26c.59-.53.81-1.35.56-2.11-.24-.75-.91-1.29-1.69-1.37l-17.93-1.87c.41-.51.81-1.06,1.18-1.66,0,0,0,0,0,0,0,0,0,0,0-.01,0-.02.02-.03.03-.05,0,0,0-.02.01-.03.19-.29.36-.59.54-.91.95-1.74,2.07-2.76,3.33-3.03,2-.44,3.98,1.01,3.99,1.02.88.67,2.13.5,2.8-.37.67-.88.51-2.13-.37-2.8-.14-.1-3.41-2.57-7.23-1.76-2.46.52-4.49,2.22-6.04,5.04-.13.24-.26.47-.41.69,0,0,0,.02-.02.03,0,.01-.02.02-.02.03-.92,1.49-2.02,2.63-3.14,3.27l-9.65-1c4-1.86,7.88-6.77,8.62-11.69.3-1.96,1-3.3,2.09-3.99,1.73-1.1,4.08-.41,4.1-.41,1.06.33,2.18-.25,2.51-1.31s-.25-2.18-1.31-2.51c-.17-.05-4.09-1.25-7.39.82-2.14,1.33-3.47,3.62-3.95,6.8-.72,4.77-5.19,8.66-7.49,9.04l-2.18-4.91c2.18-2.06,3.14-5.47,2.56-9.56,0,0,0-.01,0-.02,0,0,0-.01,0-.02,0,0,0-.01,0-.02,0,0,0-.01,0-.02-.04-.31-.09-.62-.15-.94,0-.01-.02-.11-.02-.12-.39-1.94-.19-3.44.6-4.47,1.25-1.62,3.7-1.78,3.71-1.78,1.1-.05,1.96-.98,1.91-2.09-.05-1.1-.97-1.96-2.09-1.91-.17,0-4.27.22-6.67,3.3-1.55,1.99-2.02,4.59-1.38,7.79.05.26.1.52.13.77,0,0,0,.01,0,.02,0,0,0,.01,0,.02.28,1.96.11,3.65-.45,4.88l-8.62-19.4c-.32-.72-1.04-1.19-1.83-1.19h0c-.79,0-1.51.47-1.83,1.19l-6.64,14.94c-.61-.85-1.36-1.67-2.24-2.46,0,0,0,0,0,0,0,0,0,0-.01,0,0,0,0,0,0,0,0,0,0,0,0,0-.26-.24-.54-.46-.83-.7-1.54-1.24-2.35-2.52-2.41-3.81-.08-2.05,1.69-3.74,1.7-3.75.81-.75.87-2.01.12-2.83-.75-.81-2.01-.87-2.83-.12-.13.12-3.12,2.91-2.99,6.81.08,2.52,1.4,4.81,3.91,6.82.22.18.45.36.65.55,0,0,0,0,.01,0,0,0,0,0,0,0,1.52,1.36,2.51,2.83,2.84,4.2l-.84,1.91-1.99,4.49c-.06-.15-.1-.31-.16-.46-1.46-3.52-4.98-6.25-9.91-7.69-1.83-.53-3.01-1.38-3.5-2.51-.84-1.92.33-4.32.33-4.34.5-.98.11-2.19-.87-2.69-.98-.5-2.19-.11-2.69.87-.21.41-2,4.12-.45,7.72.99,2.28,3.03,3.89,6.06,4.78,3.69,1.08,6.37,3.04,7.34,5.38.58,1.4.52,2.82-.19,4.12-.09.17-.15.34-.19.52l-4.45.46c-1.6-2.69-4.92-4.33-9.22-4.47h0c-.37-.01-.74-.01-1.1,0-1.98.05-3.42-.41-4.29-1.37-1.38-1.51-1.11-3.95-1.11-3.96.14-1.1-.63-2.1-1.72-2.24-1.1-.15-2.1.63-2.24,1.72-.02.17-.52,4.24,2.09,7.14,1.62,1.8,3.97,2.71,7.02,2.71.12,0,.25,0,.37,0,.29,0,.58,0,.86,0,1.71.05,3.14.41,4.22,1l-23.01,2.39c-.79.08-1.45.62-1.69,1.37-.24.75-.02,1.58.56,2.11l14.96,13.45c-.28.19-.55.39-.82.61,0,0,0,0,0,0,0,0,0,0-.01,0,0,0-.01,0-.02.01,0,0,0,0-.01.01-.27.21-.55.44-.82.68-1.49,1.31-2.89,1.89-4.17,1.72-2.03-.27-3.39-2.31-3.4-2.32-.59-.93-1.83-1.2-2.76-.61-.93.59-1.2,1.83-.61,2.76.09.15,2.33,3.58,6.19,4.13.35.05.7.07,1.05.07,2.14,0,4.27-.92,6.34-2.75.21-.19.43-.37.64-.53,0,0,0,0,.01-.01,0,0,.01,0,.02-.01.48-.38.97-.72,1.46-1l1.23,1.11s.01,0,.02.01l4.39,3.95c-2.16.81-4.18,2.59-5.8,5.2,0,0,0,0,0,0,0,0,0,0,0,.01,0,.02-.02.03-.03.05,0,0,0,.02-.01.03-.19.29-.37.6-.54.92-.95,1.74-2.07,2.76-3.33,3.03-2,.44-3.98-1.01-3.99-1.02-.88-.67-2.13-.5-2.8.37-.67.88-.51,2.13.37,2.8.12.09,2.56,1.93,5.66,1.93.51,0,1.03-.05,1.57-.16,2.46-.52,4.49-2.22,6.03-5.02.13-.24.26-.48.41-.71,0-.01.01-.02.02-.03,0,0,.01-.01.02-.02,1.21-1.96,2.64-3.24,4.05-3.69l-3.13,14.65s-.01.04-.02.06l-.62,2.93-.11.52c-2.57,1.62-5.3.74-5.41.7-1.04-.37-2.18.18-2.55,1.22-.37,1.04.18,2.18,1.22,2.55.11.04,1.43.49,3.29.49.74,0,1.58-.08,2.45-.28l-1.94,9.07c-.17.77.14,1.57.78,2.04.35.25.76.38,1.18.38.35,0,.69-.09,1-.27l14.77-8.55c-.95,2.2-2.63,3.05-2.71,3.1-1,.46-1.44,1.65-.98,2.65.34.73,1.06,1.16,1.82,1.16.28,0,.57-.06.84-.19.23-.11,5.36-2.57,5.66-9.41l6.96-4.03c.29,1.1.73,2.22,1.33,3.35,0,0,0,0,0,0,0,0,0,.01,0,.02,0,0,0,0,0,.01,0,0,0,0,0,0,.14.26.28.51.43.77l.11.18c1.03,1.69,1.35,3.17.96,4.4-.62,1.95-2.87,2.94-2.88,2.94-1.02.42-1.5,1.59-1.08,2.61.32.77,1.06,1.23,1.85,1.23.25,0,.51-.05.77-.15.16-.07,3.93-1.67,5.14-5.38.78-2.4.33-5-1.32-7.71l-.1-.16c-.12-.2-.24-.4-.34-.6,0,0,0,0,0-.01,0,0,0,0,0-.01-.65-1.22-1.06-2.4-1.21-3.47l11.08,6.42c1.16,1,1.81,2.04,1.89,3.08.12,1.52-.94,2.75-.94,2.75-.75.81-.69,2.08.12,2.83.38.35.87.53,1.35.53.54,0,1.08-.22,1.47-.65.21-.23,1.95-2.24,1.98-5.13l12.81,7.42c.68.4,1.54.35,2.18-.11.64-.46.95-1.26.78-2.04l-3.07-14.37c1.78.63,3.8,2.11,3.8,5.57,0,1.1.9,2,2,2s2-.9,2-2c0-6.8-5.04-9.32-8.73-9.91l-1.82-8.54c1.27.42,2.7.67,4.26.73.02,0,.05,0,.07,0,0,0,0,0,0,0,.35,0,.69.01,1.03,0,1.98-.05,3.42.41,4.29,1.37,1.38,1.51,1.11,3.95,1.11,3.96-.14,1.1.63,2.1,1.72,2.24.09.01.18.02.26.02.99,0,1.85-.73,1.98-1.74.02-.17.52-4.24-2.09-7.14-1.68-1.87-4.16-2.78-7.39-2.71-.29,0-.57,0-.86,0-2.48-.08-4.46-.79-5.51-1.96l-.28-1.3,4.52-4.06c.56.09,1.13.15,1.73.15,1.44,0,2.99-.26,4.59-.79,0,0,0,0,0,0,0,0,0,0,0,0,.33-.11.66-.23,1.01-.37,1.85-.72,3.36-.79,4.51-.19,1.81.95,2.39,3.33,2.39,3.34.21.93,1.03,1.57,1.95,1.57.14,0,.29-.02.43-.05,1.08-.24,1.76-1.31,1.52-2.39-.04-.17-.96-4.16-4.4-5.99-2.23-1.19-4.87-1.19-7.86-.02-.28.11-.54.2-.81.29-.07.02-.13.03-.19.05l16.3-14.65Zm-50.33,37.67c-.16-.09-.32-.16-.49-.2-.01,0-.02,0-.03,0-.16-.04-.32-.06-.48-.06h0c-.06,0-.12.02-.18.02-.11.01-.23.01-.34.04-.17.04-.33.11-.49.2l-1.92,1.11s0,0,0,0l-25.07,14.51,1.82-8.55s0-.03.01-.04l.36-1.72,3.74-17.49.46-2.12s0-.03,0-.05l.12-.55c.14-.7-.09-1.42-.62-1.89l-23.21-20.86,31.03-3.22c.71-.07,1.33-.52,1.62-1.18l3.91-8.81s0-.01.01-.02l1.12-2.52,7.62-17.17,7,15.76s0,.01,0,.02l.34.77,5.32,11.97c.29.65.91,1.1,1.62,1.18l7.24.75s.05.01.07.01l3,.31,20.72,2.15-23.21,20.86s-.02.03-.04.04c-.11.11-.22.22-.3.35,0,0,0,0,0,.01-.08.13-.15.27-.2.42-.01.04-.02.08-.04.13-.03.11-.05.23-.07.35,0,.04-.01.09-.01.13,0,.16,0,.32.04.48l.6,2.8s.01.06.02.09l3.14,14.71s0,0,0,.01l2.75,12.89-27-15.63Z"/>
  <path d="m75.35,59.6c-11.52,0-20.89,9.38-20.89,20.9s9.37,20.89,20.89,20.89,20.89-9.37,20.89-20.89-9.37-20.9-20.89-20.9Zm0,37.79c-9.31,0-16.89-7.58-16.89-16.89s7.58-16.9,16.89-16.9,16.89,7.58,16.89,16.9-7.58,16.89-16.89,16.89Z"/>
</svg>