<?xml version="1.0" encoding="UTF-8"?>
<svg id="icons" xmlns="http://www.w3.org/2000/svg" viewBox="0 0 150 150">
  <path d="m126.57,62.82c-.08-1.14-1-2.04-2.13-2.1-.18-.01-.37-.02-.55-.02h-5.87c-5.61,0-11.21,0-16.82,0-5.72,0-10.18,3.53-11.37,8.98-.16.72-.24,1.48-.24,2.28h0v8.9c0,2.33,1.89,4.22,4.22,4.22h15.62c.11,0,.21,0,.32,0,2.22,0,4.25-.85,5.74-2.41,1.21-1.27,1.94-2.87,2.08-4.53,2.91-1.53,3.88-2.81,4.36-5.83.16-.1.3-.22.42-.36,4.12-2.08,4.44-5.92,4.21-9.13Zm-17.06,18.25h-15.69c-.12,0-.22-.1-.22-.22v-8.89c0-.51.05-.99.15-1.44.78-3.59,3.64-5.82,7.46-5.82,5.6,0,11.21,0,16.81,0h4.6c-.09,2.41-.97,3.3-2.6,3.93h-13.35c-1.1,0-2,.9-2,2s.9,2,2,2h11.16c-.3,1.07-.93,1.42-2.95,2.4,0,0-.01,0-.02.01h-11.81c-1.1,0-2,.9-2,2s.9,2,2,2h10.16c-.16.31-.35.61-.6.87-.54.56-1.49,1.22-3.1,1.17Z"/>
  <path d="m40.5,85.07h15.69c2.33,0,4.22-1.89,4.22-4.22v-8.9c0-.79-.08-1.56-.24-2.28-1.18-5.44-5.65-8.97-11.37-8.97-5.61,0-11.21,0-16.82,0h-5.86c-.19,0-.37.01-.55.02-1.14.06-2.05.97-2.13,2.1-.24,3.21.08,7.05,4.21,9.13.12.14.26.26.42.36.48,3.02,1.45,4.3,4.36,5.83.14,1.66.87,3.26,2.08,4.53,1.49,1.56,3.52,2.41,5.69,2.41.1,0,.2,0,.31,0Zm-3.7-6.04h10.16c1.1,0,2-.9,2-2s-.9-2-2-2h-11.81s0,0-.01,0c-2.03-.98-2.66-1.33-2.96-2.4h11.16c1.1,0,2-.9,2-2s-.9-2-2-2h-13.34c-1.63-.62-2.51-1.52-2.6-3.93h4.6c5.6,0,11.21,0,16.81,0,3.82,0,6.68,2.24,7.46,5.82.1.44.15.93.15,1.43v8.9c0,.12-.1.22-.22.22h-15.76c-1.54.05-2.49-.6-3.03-1.17-.25-.26-.44-.56-.6-.87Z"/>
  <path d="m106.12,114.16v-1.15c0-1.01-.05-1.98-.14-2.88-.65-7.1-3.8-13.78-8.86-18.83-.06-.06-.13-.13-.2-.19-.02-.02-.04-.06-.06-.08l-.31-.28c-.11-.11-.23-.21-.34-.31-.02-.02-.04-.04-.06-.06l-17.73-16.34,17.99-16.5.07-.05s.08-.07.12-.11l.3-.29c.55-.54,1.09-1.11,1.58-1.67,4.93-5.58,7.64-12.77,7.64-20.25v-1.23c2.99-.78,5.2-3.5,5.2-6.73v-3.15c0-1.1-.9-2-2-2H40.71c-1.1,0-2,.9-2,2v2.91c0,3.56,2.6,6.51,5.99,7.09v1.11c0,5.33,1.39,10.51,3.97,15.08,0,0,0,0,0,0,1.03,1.82,2.24,3.54,3.63,5.13.02.02.07.07.08.09,0,0,0,0,0,0,1.39,1.6,2.99,3.07,4.75,4.37l15.37,14.19-17.27,15.85-1.23,1.12s-.06.06-.08.08c-5.95,5.82-9.23,13.61-9.23,21.94v1.03c-3.39.58-5.99,3.53-5.99,7.09v2.91c0,1.1.9,2,2,2h68.61c1.1,0,2-.9,2-2v-3.15c0-3.23-2.21-5.94-5.2-6.73Zm-57.42-1.15c0-4.21.97-8.25,2.78-11.89h47.82c1.46,2.92,2.39,6.1,2.69,9.4.08.79.12,1.63.12,2.5v.92h-53.42v-.92Zm46.77-60.24c-.43.5-.9.99-1.36,1.45l-.28.26s-.06.05-.08.07l-18.28,16.77-15.71-14.5s-.08-.07-.12-.1l-4.4-4.05c-.43-.5-.84-1.02-1.23-1.55h42.77c-.42.56-.86,1.12-1.33,1.65Zm6.65-17.62c0,4.2-1,8.29-2.85,11.97h-47.72c-1.85-3.69-2.85-7.77-2.85-11.97v-1h53.42v1Zm-59.41-8.2v-.91h64.61v1.15c0,1.63-1.33,2.96-2.96,2.96h-58.45c-1.76,0-3.2-1.44-3.2-3.2Zm14,67l18.76-17.2,17.79,16.39.12.12s.03.03.05.05c0,0,0,0,0,.01l.07.07c.19.17.38.35.56.53.03.03.06.06.09.09.05.04.09.08.13.12.93.93,1.78,1.94,2.56,2.99h-42.91c.83-1.12,1.75-2.18,2.77-3.17Zm50.61,28.09H42.71v-.91c0-1.76,1.44-3.2,3.2-3.2h58.45c1.63,0,2.96,1.33,2.96,2.96v1.15Z"/>
</svg>