<?xml version="1.0" encoding="UTF-8"?>
<svg id="icons" xmlns="http://www.w3.org/2000/svg" viewBox="0 0 150 150">
  <path d="m67.86,127.06H24.13c-1.1,0-2-.9-2-2,0-5.69,2.24-11.04,6.32-15.05,4.07-4.01,9.48-6.22,15.23-6.22h4.22c5.87,0,10.65-4.7,10.65-10.47v-44.37c0-3.01,1.44-5.89,3.85-7.72l3.36-2.55c-.27-.46-.51-.94-.71-1.43-.58-1.43-.83-2.96-.72-4.55.34-4.93,4.18-8.95,9.13-9.55,1.09-.14,2.09.64,2.23,1.74.13,1.1-.64,2.09-1.74,2.23-3,.37-5.42,2.89-5.63,5.86-.07.97.08,1.91.44,2.78.29.72.72,1.39,1.25,1.95.39.41.58.97.54,1.54-.05.56-.33,1.08-.78,1.43l-4.94,3.75c-1.42,1.08-2.27,2.77-2.27,4.54v44.37c0,7.98-6.57,14.47-14.65,14.47h-4.22c-4.7,0-9.11,1.8-12.42,5.07-2.82,2.78-4.56,6.35-5.01,10.2h39.67c.2-1.84,1.17-3.57,2.77-4.93,1.78-1.52,4.15-2.39,5.76-2.13,1.09.18,1.83,1.21,1.65,2.3-.18,1.08-1.19,1.82-2.27,1.65-.33-.03-1.68.39-2.77,1.43-.78.74-1.18,1.56-1.18,2.41,0,.45-.02,1.31-.02,1.31-.02,1.09-.91,1.96-2,1.96Z"/>
  <path d="m124.13,127.06h-43.78c-.53,0-1.04-.21-1.42-.59-.38-.38-.58-.89-.58-1.42.01-1.79-.81-2.98-1.51-3.67-.99-.98-2.19-1.41-2.69-1.4h-.03c-1.09,0-1.99-.88-2-1.97-.01-1.1.87-2.01,1.97-2.03,1.77,0,3.97.99,5.56,2.57.95.95,2.05,2.43,2.49,4.52h39.86c-.45-3.85-2.19-7.42-5.01-10.2-3.31-3.27-7.72-5.07-12.42-5.07h-4.22c-8.08,0-14.65-6.49-14.65-14.47v-44.37c0-1.76-.85-3.46-2.27-4.54l-4.94-3.75c-.45-.34-.74-.86-.78-1.43-.05-.56.15-1.12.54-1.54.53-.56.96-1.23,1.24-1.94.36-.89.51-1.82.44-2.79-.2-2.97-2.62-5.49-5.63-5.86-1.1-.13-1.88-1.13-1.74-2.23.13-1.1,1.13-1.88,2.23-1.74,4.95.61,8.79,4.63,9.13,9.55.11,1.59-.13,3.12-.73,4.57-.19.48-.43.96-.7,1.41l3.36,2.55c2.41,1.83,3.85,4.72,3.85,7.72v44.37c0,5.78,4.78,10.47,10.65,10.47h4.22c5.75,0,11.16,2.21,15.23,6.22,4.07,4.02,6.32,9.36,6.32,15.05,0,1.1-.9,2-2,2Z"/>
  <path d="m74.13,127.06c-1.1,0-2-.9-2-2V33.78c0-1.1.9-2,2-2s2,.9,2,2v91.28c0,1.1-.9,2-2,2Z"/>
</svg>