<?xml version="1.0" encoding="UTF-8"?>
<svg id="icons" xmlns="http://www.w3.org/2000/svg" viewBox="0 0 150 150">
  <path d="m126.7,73.58c-.78-.78-2.05-.78-2.83,0l-7.84,7.85-17.62-23.06,10.91-9.58c.02.09.05.18.07.28l1.35,8c.12.7.6,1.29,1.27,1.54.23.08.46.13.7.13.46,0,.91-.16,1.27-.46l12.51-10.33c.55-.46.82-1.17.7-1.87s-.6-1.29-1.27-1.54l-7.6-2.83c-.2-.08-.4-.17-.59-.27l3.45-3.03c.83-.73.91-1.99.18-2.82-.73-.83-1.99-.91-2.82-.18l-3.69,3.24c-.33-.61-.57-1.27-.68-1.98l-1.35-8c-.12-.7-.6-1.29-1.27-1.54-.67-.25-1.42-.12-1.97.33l-12.51,10.33c-.55.46-.82,1.17-.7,1.87.12.7.6,1.29,1.27,1.54l7.6,2.84h0c.76.28,1.45.71,2.05,1.24l-11.29,9.91-15.4-20.15c1.37-1.37,2.18-3.23,2.18-5.25,0-4.1-3.34-7.44-7.44-7.44s-7.45,3.34-7.45,7.44c0,1.97.78,3.8,2.09,5.16l-15.25,20.03-7.56-6.7,4.88-6.4c.37-.48.5-1.1.35-1.69-.14-.59-.54-1.08-1.09-1.34l-15.65-7.4c-2.02-1.19-4.58-.69-6.03,1.2l-3.88,5.22c-1.41,1.84-1.23,4.44.41,6.07l11.48,12.89c.38.43.92.67,1.49.67.02,0,.05,0,.08,0,.6-.02,1.15-.31,1.51-.79l4.01-5.25,7.56,6.71-17.68,23.22-7.79-7.81c-.78-.78-2.05-.78-2.83,0-.78.78-.78,2.05,0,2.83l8.18,8.19-7.96,10.46c-.67.88-.5,2.13.38,2.8.36.28.79.41,1.21.41.6,0,1.2-.27,1.59-.79l7.63-10.02,3.92,3.92-8.78,11.87c-.45.61-.52,1.42-.18,2.09.34.67,1.03,1.1,1.79,1.1h22.21l19.94,19.97c.39.39.9.59,1.42.59,0,0,.01,0,.02,0,0,0,.01,0,.02,0,.51,0,1.02-.2,1.42-.59l19.94-19.97h22.18c.76,0,1.45-.43,1.79-1.1.34-.67.27-1.48-.18-2.09l-8.77-11.85,3.9-3.91,7.31,9.57c.39.52.99.79,1.59.79.42,0,.85-.13,1.21-.41.88-.67,1.05-1.93.38-2.8l-7.64-10,8.22-8.23c.78-.78.78-2.05,0-2.83Zm-9.77-28.14l4.35,1.62-7.17,5.92-.77-4.59c-.15-.86-.41-1.68-.75-2.46l1.98-1.74c.72.51,1.51.93,2.36,1.25Zm-10.3-5.16l-4.36-1.63,7.17-5.92.77,4.58c.24,1.45.79,2.8,1.57,4l-1.49,1.31c-1.03-1.01-2.27-1.82-3.67-2.34Zm-77.69,0l3.88-5.22c.12-.16.31-.24.49-.24.11,0,.23.03.33.1.07.04.14.08.21.11l1.92.91-5.55,6.57-1.13-1.27s-.07-.07-.11-.11c-.23-.22-.25-.57-.05-.84Zm10.07,12.08l-6.1-6.84,6.6-7.82,7.85,3.71-8.36,10.95Zm36.32-26.01c1.9,0,3.44,1.54,3.44,3.44,0,1.31-.73,2.49-1.92,3.09-.96.5-2.15.49-3.15-.05-1.12-.6-1.82-1.76-1.82-3.03,0-1.9,1.55-3.44,3.45-3.44Zm-1.89,10.65c.61.16,1.24.24,1.89.24.59,0,1.18-.07,1.74-.21l15.9,20.81-3.68,3.23-12.36-16.7c-.75-1.02-2.46-1.02-3.22,0l-12.27,16.58-3.73-3.31,15.72-20.64Zm-18.92,57.25c.4.45.95.68,1.5.68.47,0,.94-.16,1.32-.5l18.01-15.81,18.68,16.56c.38.34.85.5,1.33.5.55,0,1.1-.23,1.5-.67.73-.83.66-2.09-.17-2.82l-18.3-16.23,10.27-9.02,17.81,24.07-11.41,11.43h-39.43l-11.43-11.45,17.87-24.16,10.27,9.11-17.63,15.48c-.83.73-.91,1.99-.18,2.82Zm20.85-20.96l-10.91-9.68,10.87-14.69,10.95,14.8-10.9,9.57Zm-37.91,10.96l17.83-23.42,3.77,3.34-17.72,23.96-3.88-3.88Zm-1.74,18.2l6.07-8.2,8.19,8.2h-14.25Zm39.62,19.74l-15.72-15.74h31.44l-15.72,15.74Zm39.58-19.74h-14.21l8.16-8.18,6.05,8.18Zm-5.6-14.29l-17.65-23.86,3.73-3.27,17.78,23.27-3.85,3.86Z"/>
  <path d="m75.33,118.83c3.28,0,5.94-2.67,5.94-5.94s-2.67-5.94-5.94-5.94-5.94,2.67-5.94,5.94,2.67,5.94,5.94,5.94Zm0-7.89c1.07,0,1.94.87,1.94,1.94s-.87,1.94-1.94,1.94-1.94-.87-1.94-1.94.87-1.94,1.94-1.94Z"/>
</svg>