<?xml version="1.0" encoding="UTF-8"?>
<svg id="icons" xmlns="http://www.w3.org/2000/svg" viewBox="0 0 150 150">
  <path d="m95.93,62.74l-17.06-7.82v-1.8c0-1.42-.83-2.67-2.09-3.26v-24.7c0-1.1-.9-2-2-2s-2,.9-2,2v24.67c-1.31.57-2.16,1.84-2.16,3.29v2.06l-16.43,7.53c-1.89.77-2.82,2.88-2.13,4.8l20.77,57.58c.33.92,1.22,1.55,2.2,1.55h0c.98,0,1.86-.62,2.2-1.54l20.77-57.58c.69-1.93-.24-4.04-2.05-4.77Zm-22.48-4.47c.71-.33,1.17-1.04,1.17-1.82v-2.87h.25v2.62c0,.78.46,1.49,1.17,1.82l15.51,7.11c-6.29,1.94-19.61,4.81-32.94-.05l14.84-6.8Zm1.57,61.12l-18.31-50.77c6.16,2.35,12.27,3.18,17.8,3.18,8.03,0,14.81-1.72,18.75-3l-18.25,50.59Z"/>
</svg>