<?xml version="1.0" encoding="UTF-8"?>
<svg id="icons" xmlns="http://www.w3.org/2000/svg" viewBox="0 0 150 150">
  <path d="m105.35,94.23s.02-.1.04-.15c.02-.06.03-.11.04-.17.37-1.48-.32-3.02-1.69-3.69l-11.63-7.61v-1.06c0-1.09-.56-2.06-1.45-2.62v-9.37h9.33c1.1,0,2-.9,2-2,0-2.8-1.09-5.45-3.09-7.47-1.86-1.84-3.72-3.07-6.73-3.07h-59.36c-5.6,0-9.82,4.53-9.82,10.54,0,1.1.9,2,2,2h61.67v9.33c-.92.55-1.5,1.54-1.5,2.65v1.24l-11.25,7.43c-1.37.68-2.06,2.21-1.68,3.69.01.06.03.11.04.17.02.05.02.1.04.15,0,.03.02.05.03.07,0,.01.01.03.02.04,0,.01.01.03.02.04l14.4,31.16c.35.82,1.16,1.35,2.05,1.35s1.7-.54,2.05-1.35l14.4-31.16s.01-.03.02-.04c0-.01.01-.03.02-.04.01-.02.02-.05.03-.07ZM32.82,61.02h59.36c1.69,0,2.61.62,3.9,1.9.75.76,1.29,1.66,1.61,2.64H27.23c.68-2.75,2.79-4.54,5.59-4.54Zm60.24,50.28h-8.46l-7.28-15.75h23.02l-7.28,15.75Zm-4.8-25.76c.17-.12.33-.25.46-.41.09.09.19.17.3.24l9.45,6.18h-19.31l9.1-6.01Zm.57,34.92l-2.38-5.16h4.76l-2.38,5.16Z"/>
  <path d="m32.82,35.43h59.36c3.01,0,4.87-1.23,6.75-3.09,1.98-2,3.07-4.64,3.07-7.44,0-1.1-.9-2-2-2H25c-1.1,0-2,.9-2,2,0,6,4.22,10.53,9.82,10.53Zm64.87-8.53c-.31.97-.85,1.86-1.59,2.61-1.31,1.3-2.23,1.92-3.92,1.92h-59.36c-2.79,0-4.9-1.78-5.58-4.53h70.45Z"/>
  <path d="m32.41,41.38h59.99c1.1,0,2-.9,2-2s-.9-2-2-2h-59.99c-1.1,0-2,.9-2,2s.9,2,2,2Z"/>
  <path d="m92.52,44.06h-59.99c-1.1,0-2,.9-2,2s.9,2,2,2h59.99c1.1,0,2-.9,2-2s-.9-2-2-2Z"/>
  <path d="m92.4,50.63h-59.99c-1.1,0-2,.9-2,2s.9,2,2,2h59.99c1.1,0,2-.9,2-2s-.9-2-2-2Z"/>
</svg>