<?xml version="1.0" encoding="UTF-8"?>
<svg id="icons" xmlns="http://www.w3.org/2000/svg" viewBox="0 0 150 150">
  <path d="m125.94,124.13l-32.77-62.62c-.43-.82-1.29-1.34-2.22-1.34h-31.91c-.93,0-1.78.52-2.22,1.34l-32.77,62.62c-.41.78-.38,1.71.08,2.45s1.26,1.21,2.14,1.21h97.44c.87,0,1.69-.46,2.14-1.21s.48-1.68.08-2.45Zm-65.38-58.96h28.89l9.81,18.75h-17.22c-1.38,0-2.5,1.12-2.5,2.5s1.12,2.5,2.5,2.5h.46v3.3c0,1.38,1.12,2.5,2.5,2.5s2.5-1.12,2.5-2.5v-3.3h14.38l4.64,8.87h-6.46v-3.83c0-1.38-1.12-2.5-2.5-2.5s-2.5,1.12-2.5,2.5v3.83h-32.94c-1.38,0-2.5,1.12-2.5,2.5s1.12,2.5,2.5,2.5h18.19v3.83c0,1.38,1.12,2.5,2.5,2.5s2.5-1.12,2.5-2.5v-3.83h23.82l4.79,9.15h-13.86v-5.5c0-1.38-1.12-2.5-2.5-2.5s-2.5,1.12-2.5,2.5v5.5h-2.23c-1.38,0-2.5,1.12-2.5,2.5s1.12,2.5,2.5,2.5h8.06v5.5c0,.12.02.23.03.35h-40.01c.02-.11.03-.23.03-.35v-5.5h14.06c1.38,0,2.5-1.12,2.5-2.5s-1.12-2.5-2.5-2.5h-4.54v-3.83c0-1.38-1.12-2.5-2.5-2.5s-2.5,1.12-2.5,2.5v3.83h-16.52v-3.83c0-1.38-1.12-2.5-2.5-2.5s-2.5,1.12-2.5,2.5v3.83h-7.86l8.09-15.47h19.62c1.38,0,2.5-1.12,2.5-2.5s-1.12-2.5-2.5-2.5h-6.63v-3.62c0-1.38-1.12-2.5-2.5-2.5s-2.5,1.12-2.5,2.5v3.62h-5.38l7.3-13.96,9.63.12v4.8c0,1.38,1.12,2.5,2.5,2.5s2.5-1.12,2.5-2.5v-4.74l16.24.21h.03c1.37,0,2.48-1.1,2.5-2.47.02-1.38-1.09-2.51-2.47-2.53l-3.19-.04v-4.21c0-1.38-1.12-2.5-2.5-2.5s-2.5,1.12-2.5,2.5v4.15l-20.14-.26,3.86-7.39Zm-27.09,51.78h22.48v5.5c0,.12.02.23.03.35h-25.57l3.06-5.85Zm72.38,5.85c.02-.11.03-.23.03-.35v-5.5h10.65l3.06,5.85h-13.74Z"/>
  <circle cx="75" cy="46.55" r="2.28"/>
  <path d="m50.67,56.39h48.67c1.38,0,2.5-1.12,2.5-2.5s-1.12-2.5-2.5-2.5h-10.03l-2.8-4.65,7.99-3c1.29-.48,1.95-1.93,1.46-3.22s-1.93-1.95-3.22-1.46l-8.86,3.32-2.7-4.48,6.42-3.74c1.19-.69,1.6-2.22.9-3.42-.69-1.19-2.23-1.6-3.42-.9l-6.49,3.77-1.1-1.83v-4.83c0-1.38-1.12-2.5-2.5-2.5s-2.5,1.12-2.5,2.5v4.83l-1.1,1.83-6.49-3.77c-1.19-.69-2.72-.29-3.42.9-.69,1.19-.29,2.72.9,3.42l6.42,3.74-2.7,4.48-8.86-3.32c-1.3-.49-2.73.17-3.22,1.46s.17,2.73,1.46,3.22l7.99,3-2.8,4.65h-10.03c-1.38,0-2.5,1.12-2.5,2.5s1.12,2.5,2.5,2.5Zm15.87-5l8.46-14.05,8.46,14.05h-16.93Z"/>
</svg>