<?xml version="1.0" encoding="UTF-8"?>
<svg id="icons" xmlns="http://www.w3.org/2000/svg" viewBox="0 0 150 150">
  <path d="m122.96,75.57c-.58.97-1.1,1.84-1.62,2.72.41.39.81.78,1.25,1.21.29-1.3.56-2.53.37-3.93Z"/>
  <path d="m121.77,72.94c-1.51.35-2.68,1.16-3.86,1.89.67.68,1.31,1.32,1.98,2,.74-1.24,1.55-2.4,1.88-3.89Z"/>
  <path d="m120.17,79.97c-.95,1.23-1.84,2.39-2.68,3.47.83.82,1.62,1.61,2.45,2.44.61-1.32,1.23-2.66,1.85-4.01.03-.08.03-.24-.02-.3-.52-.54-1.06-1.06-1.6-1.6Z"/>
  <path d="m113.28,88.44c1.03,1.03,2.02,2.02,3.06,3.06.82-1.25,1.65-2.5,2.43-3.67-.93-.92-1.8-1.78-2.69-2.67-.92,1.08-1.87,2.2-2.8,3.28Z"/>
  <path d="m118.68,78.63c-.89-.88-1.71-1.71-2.58-2.57-1.12.86-2.28,1.76-3.43,2.64,1.15,1.15,2.25,2.24,3.39,3.37.87-1.15,1.77-2.33,2.62-3.44Z"/>
  <path d="m116.54,73.34c.83-.5,1.66-1.01,2.6-1.59-1.42-.15-2.66.08-4.09.46.48.42.85.76,1.23,1.09.06.05.2.07.26.04Z"/>
  <path d="m111.03,80.08c-1.09.93-2.21,1.9-3.28,2.83,1.39,1.38,2.75,2.73,4.13,4.1.93-1.08,1.88-2.2,2.81-3.28-1.23-1.22-2.43-2.42-3.66-3.65Z"/>
  <path d="m115.04,93.27c-1.1-1.11-2.13-2.16-3.18-3.23-.97,1.07-1.95,2.15-2.92,3.22,1.16,1.15,2.26,2.25,3.44,3.41.91-1.16,1.82-2.32,2.66-3.4Z"/>
  <path d="m114.8,74.54c-.54-.5-1.04-.94-1.51-1.42-.2-.21-.36-.22-.6-.1-.51.24-1.03.43-1.53.68-.79.39-1.57.81-2.34,1.21.83.82,1.61,1.59,2.43,2.4,1.13-.88,2.3-1.79,3.55-2.77Z"/>
  <path d="m114.37,97.46h0c-1.43-.68-2.91-.73-4.18-.69-.5.02-1.01.06-1.52.12.26-.05.52-.09.77-.14-.62-.62-1.28-1.26-1.95-1.93-.82.87-1.7,1.79-2.6,2.74.23-.04.44-.08.67-.12-1.57.39-3.22.95-5.01,1.69-.68.28-1.33.57-1.97.87.54-.25,1.08-.51,1.63-.72.66-.25,1.01-.81,1.43-1.21-1.64-1.64-3.25-3.24-4.87-4.85-.36.34-.75.68-1.04,1.11.58-1.45,1.06-2.87,1.44-4.3.07-.26.14-.52.2-.78-.04.24-.08.48-.13.73.93-.89,1.84-1.77,2.67-2.56-.69-.68-1.35-1.33-1.9-1.87-.01.07-.03.16-.04.23.08-.95.08-1.94-.04-2.95-.06-.5-.16-1.17-.42-1.86-.32-.84-1.03-1.46-1.91-1.66-.88-.2-1.79.05-2.44.67l-.28.27c-.52.5-1.02.98-1.54,1.45-1.28,1.15-2.56,2.29-3.84,3.43-1.68,1.49-3.35,2.98-5.01,4.49-1.89,1.7-3.84,3.58-5.5,5.8v-10.06l2.2-.17c.22-.02.44-.05.66-.1l1.46-.36c.23.02.44-.01.65-.07.18-.05.36-.1.54-.16l.33-.1c4.19-1.19,6.89-4.08,7.83-8.35,0,0,0,0,0,0,.64-2.99.61-5.98.48-8.52-.19-3.78-.3-5.74-.46-8.44l-.23-3.98s0-.06,0-.08c0-.13-.04-.64-.08-1.25l-.09-1.35c-.07-.99-.63-1.86-1.5-2.34-.86-.48-1.9-.48-2.76-.01-1.08.58-1.9,1.4-2.49,2.04-.37.4-.72.82-1.06,1.25.17-.24.34-.49.51-.73-.87.01-1.79.01-2.74.02.04,1.19.07,2.46.11,3.77.13-.18.25-.35.37-.53-.82,1.37-1.59,2.91-2.34,4.72-.05.11-.09.23-.13.34.28-.64.14-1.28.15-1.87-2.32.01-4.58.02-6.87.02-.02.5-.06,1.02.05,1.53-.61-1.44-1.28-2.8-2.02-4.07-.11-.19-.22-.38-.34-.57.11.16.22.32.33.48.03-1.29.06-2.56.08-3.7-.96,0-1.88.01-2.66.02.04.06.09.12.13.18-.62-.74-1.33-1.45-2.15-2.09-.99-.77-2.32-.91-3.46-.37-1.15.55-1.89,1.68-1.92,2.95-.01.44-.03.87-.06,1.32-.09,1.75-.19,3.5-.29,5.24-.13,2.2-.25,4.41-.37,6.61-.14,2.68-.2,5.56.27,8.45.72,4.42,2.95,7.4,6.62,8.86.41.17.83.31,1.27.46l.45.15c.12.04.25.08.4.11l1.98.42c.15.03.29.05.45.07l2.68.22v10.06c-1.65-2.22-3.61-4.1-5.49-5.8-1.66-1.5-3.34-3-5.02-4.49-1.28-1.14-2.56-2.28-3.83-3.42-.46-.42-.91-.84-1.37-1.28-.8-.77-1.96-1.04-3.02-.7-1.06.34-1.86,1.23-2.08,2.33-.05.26-.09.53-.12.78-.12,1.02-.12,2.02-.04,2.97-.01-.08-.03-.16-.04-.24-.55.54-1.21,1.19-1.9,1.87.83.79,1.74,1.67,2.67,2.56-.04-.24-.08-.48-.12-.72.07.26.13.52.2.78.38,1.43.86,2.86,1.44,4.31-.29-.43-.68-.77-1.04-1.11-1.62,1.61-3.23,3.21-4.87,4.85.42.4.77.96,1.43,1.21.47.18.94.4,1.4.61-.57-.25-1.14-.51-1.74-.76-1.79-.74-3.45-1.3-5.02-1.69.23.04.44.08.67.12-.9-.95-1.78-1.87-2.6-2.74-.67.67-1.33,1.31-1.95,1.93.26.05.52.09.78.14-.52-.06-1.03-.1-1.54-.12-.91-.03-1.99-.01-3.08.29-.97.27-1.72,1.01-2.01,1.98-.29.98-.06,2.02.61,2.79.17.19,3.21,3.65,3.75,4.25h0s1.94,2.17,1.94,2.17c1.46,1.64,1.6,1.8,4.34,4.82,1.81,1.99,3.83,4.05,6.37,5.68,1.94,1.25,3.96,1.87,6,1.87,1.81,0,3.63-.5,5.42-1.48l.78-.43c.16-.09.31-.2.44-.33.03-.03.06-.06.09-.1l1.43-.87c.09-.06.18-.12.27-.19l1.64-1.4s.02-.02.02-.03l5.21,4.57v4.65c0,1.1.9,2,2,2s2-.9,2-2v-4.67l5.12-4.66c.06.06.11.12.17.18l1.58,1.35c.08.07.17.14.27.19l1.43.87s.06.07.1.1c.13.13.28.24.44.33l.76.42c1.8,1,3.62,1.49,5.44,1.49,2.03,0,4.05-.62,5.99-1.87,2.54-1.63,4.57-3.69,6.37-5.68,2.77-3.06,4.38-4.87,6.6-7.35l1.67-1.87s.08-.08.13-.12h.01s.05-.05.09-.1c.24-.24.46-.5.67-.75.47-.55,1.02-1.2,1.37-1.61.49-.58.68-1.34.52-2.08-.16-.74-.67-1.38-1.35-1.7Zm-19.67-.09c.94.92,1.87,1.83,2.78,2.77.15.16.28.2.43.16-.84.39-1.66.81-2.46,1.23.09-.06.18-.11.27-.17-.74-.73-1.5-1.48-2.23-2.2-.2.33-.41.67-.61,1,.62-1.1,1.19-2.17,1.69-3.21-.04.16-.01.29.13.42Zm-4.73,7.53s-.02.01-.03.02c.06-.09.11-.17.17-.25-.05.08-.1.16-.14.23Zm-11.62-3.27c.19-1.15.72-2.31,1.61-3.54,1.49-2.07,3.38-3.88,5.22-5.53,1.65-1.5,3.32-2.98,4.99-4.47,1.29-1.14,2.57-2.29,3.86-3.44,0,0,0,0,0,0-.03,1.53-.37,3.02-.72,4.34,0,0,0,0,0,0-.87,3.27-2.3,6.53-4.52,10.26-2.54,4.27-4.43,6.82-7.39,9.94l-.83-.98-1.06-1.65c-.09-.19-.18-.37-.27-.54-.15-.3-.3-.59-.42-.88-.22-.51-.36-1.02-.45-1.54v-1.98Zm-3.35-29.02c-.15-.87-.33-1.74-.51-2.59.17.72.34,1.43.52,2.16.08-.35.16-.69.24-1.04-.09.48-.17.98-.25,1.48Zm7.08-10.5c1.33-3.21,2.68-5.45,4.36-7.27.02.25.03.39.03.49l.23,3.97c.15,2.69.27,4.65.46,8.41.11,2.28.15,4.95-.4,7.48-.62,2.85-2.22,4.55-5.01,5.35l-.42.12c-.18,0-.36.01-.53.06l-1.88.46-.79.06c.31-7.18,1.62-13.45,3.97-19.13Zm-4.56.73c.23-.64.45-1.29.73-1.91-.26.63-.5,1.27-.73,1.91Zm-4.5.62c1.3-.01,2.61-.02,3.92,0,.27,0,.38-.1.47-.31-.45,1.27-.84,2.57-1.19,3.9.12-.49.23-1,.35-1.48-1.05,0-2.11,0-3.14,0,.09.38.18.76.28,1.14-.33-1.19-.68-2.32-1.06-3.41.09.11.2.15.38.14Zm-2.33,17.68l-1.89-.4-.49-.17c-.36-.12-.7-.23-1.05-.38-2.35-.94-3.67-2.78-4.17-5.8-.42-2.51-.35-5.13-.23-7.59.11-2.19.24-4.39.36-6.58.1-1.75.2-3.51.29-5.24v-.05c1.05,1.08,1.85,2.35,2.57,3.59,1.68,2.91,3.01,6.33,4.05,10.45.99,3.89,1.58,7.92,1.8,12.26l-1.27-.1Zm-14.71,3.52c1.28,1.15,2.57,2.3,3.85,3.44,1.67,1.49,3.34,2.97,5,4.47,1.83,1.65,3.72,3.45,5.21,5.53,1.78,2.48,2.15,4.72,1.16,7.05-.13.29-.27.58-.43.88-.09.18-.18.36-.27.54l-1.06,1.65-.82.97s-.05-.05-.05-.05c0,0,0,0,0,0-3.35-3.52-4.97-5.89-7.35-9.89-2.21-3.73-3.65-7-4.52-10.27-.35-1.31-.7-2.8-.72-4.33,0,0,0,0,0,0Zm-3.46,15.48c.91-.94,1.84-1.85,2.78-2.77.14-.13.17-.26.13-.42.5,1.04,1.07,2.11,1.69,3.21-.2-.33-.41-.67-.61-.99-.73.72-1.48,1.47-2.22,2.19-.7-.36-1.42-.71-2.16-1.05.14.03.26-.01.4-.16Zm11.13,13.93l-1.65,1.01c-.15.09-.29.21-.42.34l-.38.21c-2.54,1.41-4.87,1.33-7.33-.25-2.15-1.38-3.95-3.22-5.57-5-2.72-3.01-2.86-3.16-4.31-4.79l-1.95-2.19c-.1-.11-1.22-1.38-2.32-2.62,2.45.09,5.06.75,8.21,2.06,6.63,2.75,11.06,5.66,16.34,10.72l-.61.52Zm6.99-1.12c.07-.07.15-.13.21-.2l1.72-2.03c.06-.07.11-.14.16-.21l.27-.43v4.95l-2.37-2.08Zm6.37-2.87l.27.43c.05.07.1.14.16.21l1.61,1.89c.07.09.16.16.25.23l-2.29,2.08v-4.85Zm31.28-7.03c-2.21,2.48-3.82,4.28-6.57,7.33-1.62,1.78-3.42,3.62-5.57,5-2.46,1.58-4.79,1.65-7.35.23l-.37-.2c-.12-.13-.26-.24-.42-.34l-1.65-1.01-.62-.53c5.28-4.98,10.06-8.11,16.34-10.71,3.16-1.31,5.78-1.97,8.23-2.06l-2.03,2.28Z"/>
  <path d="m109.61,78.67c-.89-.89-1.75-1.75-2.68-2.67-1.22.82-2.46,1.65-3.66,2.46,1.05,1.04,2.05,2.03,3.07,3.04,1.07-.93,2.18-1.89,3.27-2.83Z"/>
  <path d="m110.43,88.66c-1.47-1.46-2.88-2.86-4.31-4.29-1.03.94-2.1,1.93-3.12,2.86,1.56,1.55,3.06,3.05,4.59,4.56.94-1.04,1.92-2.12,2.84-3.13Z"/>
  <path d="m98.33,91.69c1.63,1.62,3.23,3.21,4.84,4.81.95-1.01,1.95-2.07,2.92-3.08-1.59-1.58-3.13-3.12-4.69-4.67-1.02.98-2.08,1.99-3.07,2.94Z"/>
  <path d="m104.67,82.99c-1.07-1.09-2.1-2.15-3.16-3.23-1.13.9-2.28,1.81-3.35,2.65,1.16,1.17,2.27,2.29,3.41,3.43,1.04-.95,2.11-1.94,3.1-2.85Z"/>
  <path d="m48.42,85.84c1.14-1.14,2.25-2.26,3.41-3.43-1.07-.84-2.22-1.75-3.35-2.65-1.06,1.08-2.09,2.14-3.16,3.23.99.91,2.06,1.9,3.1,2.85Z"/>
  <path d="m51.67,91.69c-.99-.95-2.04-1.96-3.07-2.94-1.56,1.55-3.1,3.09-4.69,4.67.97,1.01,1.97,2.07,2.92,3.08,1.61-1.6,3.21-3.19,4.84-4.81Z"/>
  <path d="m46.99,87.23c-1.02-.93-2.09-1.92-3.12-2.86-1.43,1.43-2.84,2.83-4.31,4.29.92,1.01,1.9,2.09,2.84,3.13,1.53-1.51,3.03-3.01,4.59-4.56Z"/>
  <path d="m43.65,81.5c1.02-1.01,2.02-2,3.07-3.04-1.2-.81-2.44-1.64-3.66-2.46-.93.92-1.79,1.78-2.68,2.67,1.09.94,2.2,1.9,3.27,2.83Z"/>
  <path d="m42.24,82.91c-1.07-.93-2.19-1.9-3.28-2.83-1.23,1.23-2.43,2.43-3.66,3.65.93,1.08,1.88,2.2,2.81,3.28,1.38-1.37,2.74-2.72,4.13-4.1Z"/>
  <path d="m37.61,96.67c1.18-1.16,2.28-2.26,3.44-3.41-.97-1.07-1.95-2.15-2.92-3.22-1.05,1.07-2.08,2.12-3.18,3.23.84,1.08,1.75,2.24,2.66,3.4Z"/>
  <path d="m31.32,78.63c.85,1.11,1.75,2.29,2.62,3.44,1.14-1.13,2.24-2.22,3.39-3.37-1.15-.88-2.31-1.78-3.43-2.64-.87.86-1.69,1.69-2.58,2.57Z"/>
  <path d="m41.17,74.91c-.77-.4-1.55-.82-2.34-1.21-.5-.25-1.02-.44-1.53-.68-.24-.12-.4-.11-.6.1-.47.48-.97.92-1.51,1.42,1.25.98,2.42,1.89,3.55,2.77.82-.81,1.6-1.58,2.43-2.4Z"/>
  <path d="m33.91,85.16c-.89.89-1.76,1.75-2.69,2.67.78,1.17,1.61,2.42,2.43,3.67l3.06-3.06c-.93-1.08-1.88-2.2-2.8-3.28Z"/>
  <path d="m33.71,73.3c.38-.33.75-.67,1.23-1.09-1.43-.38-2.67-.61-4.09-.46.94.58,1.77,1.09,2.6,1.59.06.03.2.01.26-.04Z"/>
  <path d="m32.09,74.83c-1.18-.73-2.35-1.54-3.86-1.89.33,1.49,1.14,2.65,1.88,3.89.67-.68,1.31-1.32,1.98-2Z"/>
  <path d="m29.83,79.97c-.54.54-1.08,1.06-1.6,1.6-.05.06-.05.22-.02.3.62,1.35,1.24,2.69,1.85,4.01.83-.83,1.62-1.62,2.45-2.44-.84-1.08-1.73-2.24-2.68-3.47Z"/>
  <path d="m27.03,75.57c-.19,1.4.08,2.63.37,3.93.44-.43.84-.82,1.25-1.21-.52-.88-1.04-1.75-1.62-2.72Z"/>
  <path d="m80.17,50.49c1.63,0,3.18-.01,4.84-.02-.18-1.46-.36-2.93-.52-4.29-1.56-.01-3.04-.02-4.53-.03.07,1.44.14,2.9.21,4.34Z"/>
  <path d="m79.83,44.01h4.32c-.29-1.46-.59-2.93-.87-4.31-1.3,0-2.53.01-3.79.01.11,1.42.23,2.88.34,4.3Z"/>
  <path d="m79.27,37.5c1.17,0,2.28-.01,3.46-.01-.5-1.36-1.01-2.75-1.53-4.14-.03-.08-.15-.19-.23-.2-.75,0-1.5,0-2.26,0,.2,1.54.39,2.99.56,4.35Z"/>
  <path d="m80.09,31.1c-.71-1.12-1.39-2.18-2.52-3.03.28,1.09.53,2.07.78,3.06.56-.01,1.12-.02,1.74-.03Z"/>
  <path d="m77.83,43.99c-.11-1.42-.22-2.88-.34-4.31-1.73.01-3.43.01-5.17.01-.1,1.43-.21,2.9-.31,4.32,1.96-.01,3.87-.01,5.82-.02Z"/>
  <path d="m76.71,33.26h-3.64c-.19,1.41-.37,2.86-.56,4.3,1.62-.01,3.17-.01,4.78-.02-.19-1.43-.39-2.9-.58-4.28Z"/>
  <path d="m74.87,27.05c-.81,1.31-1.07,2.71-1.39,4.07h2.81c-.35-1.39-.6-2.78-1.42-4.07Z"/>
  <path d="m71.45,31.03c.24-.94.46-1.89.72-2.96-1.11.9-1.82,1.94-2.56,3.21.63-.04,1.13-.06,1.63-.1.08-.01.2-.08.21-.15Z"/>
  <path d="m71.07,33.11c-.72.03-1.4.07-2.07.06-.29-.01-.4.1-.49.35-.19.53-.42,1.04-.6,1.57-.29.83-.54,1.68-.8,2.5,1.17,0,2.27-.01,3.41-.01.18-1.43.36-2.89.55-4.47Z"/>
  <path d="m70.32,39.7h-3.78c-.28,1.44-.57,2.91-.85,4.33,1.48,0,2.88-.01,4.32-.02.1-1.41.21-2.88.31-4.31Z"/>
  <path d="m69.89,46.25c-1.53-.02-3.01-.04-4.52-.05-.17,1.43-.34,2.89-.49,4.24,1.64.01,3.22.01,4.83.02.06-1.42.12-2.87.18-4.21Z"/>
  <path d="m71.88,46.2c-.06,1.39-.12,2.84-.17,4.22,2.19,0,4.31-.01,6.46-.01-.07-1.4-.14-2.87-.2-4.22-2.07,0-4.06,0-6.09.01Z"/>
  <path d="m71.55,56.89c2.29-.01,4.55-.01,6.82-.02-.04-1.39-.08-2.84-.12-4.25-2.23.01-4.41.01-6.62.02-.02,1.41-.06,2.87-.08,4.25Z"/>
</svg>