<?xml version="1.0" encoding="UTF-8"?>
<svg id="icons" xmlns="http://www.w3.org/2000/svg" viewBox="0 0 150 150">
  <path d="m124.69,109.12h-16.63c.23-.63.36-1.31.36-2.02v-.77c0-2.4-1.42-4.47-3.45-5.44.52-.91.79-1.93.79-2.99,0-2.74-1.85-5.07-4.45-5.99.46-.87.71-1.83.71-2.83,0-2.22-1.22-4.17-3.06-5.32.71-1.03,1.11-2.25,1.11-3.49,0-2.38-1.4-4.46-3.47-5.56.47-.85.73-1.83.73-2.87v-.77c0-2.58-1.63-4.78-3.91-5.63.32-.74.51-1.55.51-2.41v-.77c0-2.43-1.45-4.53-3.53-5.48.37-.78.58-1.65.58-2.57v-.77c0-2.98-2.18-5.45-5.02-5.93.23-.64.36-1.32.36-2.04v-.77c0-2.49-1.52-4.64-3.69-5.55.35-.76.55-1.6.55-2.49v-.77c0-3.32-2.7-6.02-6.02-6.02h-.45v-6.07c0-1.1-.9-2-2-2s-2,.9-2,2v6.07h-.45c-3.32,0-6.02,2.7-6.02,6.02v.77c0,.89.2,1.73.55,2.49-2.16.91-3.69,3.06-3.69,5.55v.77c0,.72.13,1.4.36,2.04-2.85.48-5.02,2.95-5.02,5.93v.77c0,.92.21,1.79.58,2.57-2.08.95-3.53,3.04-3.53,5.48v.77c0,.86.18,1.67.51,2.41-2.28.86-3.91,3.06-3.91,5.63v.77c0,1.04.26,2.02.73,2.87-.5.26-.96.58-1.39.96-1.34,1.22-2.08,2.85-2.08,4.6,0,1.29.41,2.48,1.11,3.49-.34.21-.67.46-.97.73-1.34,1.22-2.08,2.85-2.08,4.59,0,1.01.26,1.97.71,2.82-.87.31-1.68.77-2.38,1.4-1.34,1.22-2.08,2.86-2.08,4.6,0,1.08.29,2.1.8,2.99-2.04.97-3.46,3.04-3.46,5.44v.77c0,.71.13,1.39.36,2.02h-16.63c-1.1,0-2,.9-2,2s.9,2,2,2h9.02v10.66c0,1.1.9,2,2,2s2-.9,2-2v-10.66h74.59v10.66c0,1.1.9,2,2,2s2-.9,2-2v-10.66h8.39c1.1,0,2-.9,2-2s-.9-2-2-2Zm-54.97-17.63v-5.26c0-.32.05-.61.15-.91,0,0,0,0,0,0,.37-1.1,2.64-2.43,4.76-2.43h.13c2.13,0,4.4,1.34,4.76,2.43,0,0,0,0,0,0,.1.3.15.6.15.91v5.26h-9.94Zm-18.35-2.41c0-.77.42-1.31.77-1.63.55-.5,1.3-.77,2.1-.77h11.48v4.81h-11.48c-1.58,0-2.87-1.08-2.87-2.41Zm10.11-20.04h29.82c1.12,0,2.02.91,2.02,2.02v.77c0,1.12-.91,2.02-2.02,2.02h-33.23c-1.12,0-2.02-.91-2.02-2.02v-.77c0-1.12.91-2.02,2.02-2.02h3.41Zm-2.02-6.02v-.77c0-1.12.91-2.02,2.02-2.02h26.41c1.12,0,2.02.91,2.02,2.02v.77c0,1.12-.91,2.02-2.02,2.02h-26.41c-1.12,0-2.02-.91-2.02-2.02Zm-3.28,14.84h37.01c1.58,0,2.87,1.08,2.87,2.41,0,.61-.27,1.19-.76,1.63-.56.5-1.31.78-2.11.78h-10.58c-1.63-2.38-5.08-3.8-7.87-3.8h-.13c-2.79,0-6.23,1.42-7.87,3.8h-10.58c-1.58,0-2.87-1.08-2.87-2.41,0-.61.27-1.19.76-1.63.56-.5,1.31-.78,2.11-.78Zm27.48,8.82h11.48c1.58,0,2.87,1.08,2.87,2.4,0,.61-.27,1.19-.77,1.64-.55.5-1.3.77-2.11.77h-11.48v-4.81Zm-15.08-39.27c-.86-.23-1.5-1.01-1.5-1.95v-.77c0-1.12.91-2.02,2.02-2.02h11.19c1.12,0,2.02.91,2.02,2.02v.77c0,.94-.64,1.72-1.5,1.95h-12.22Zm1.64-11.53c0-1.12.91-2.02,2.02-2.02h4.91c1.12,0,2.02.91,2.02,2.02v.77c0,1.12-.91,2.02-2.02,2.02h-4.91c-1.12,0-2.02-.91-2.02-2.02v-.77Zm-7.8,17.56c0-1.12.91-2.02,2.02-2.02h3.76c.3.05.6.08.91.08h11.19c.31,0,.61-.03.91-.08h3.76c1.12,0,2.02.91,2.02,2.02v.77c0,1.12-.91,2.02-2.02,2.02h-20.51c-1.12,0-2.02-.91-2.02-2.02v-.77Zm-14.02,42.83c.56-.5,1.31-.78,2.11-.78h48.38c1.58,0,2.87,1.08,2.87,2.41,0,.61-.27,1.19-.76,1.63-.56.5-1.31.78-2.11.78h-48.38c-1.58,0-2.87-1.08-2.87-2.41,0-.77.42-1.32.76-1.63Zm-1.4,12.85c-1.12,0-2.02-.91-2.02-2.02v-.77c0-1.12.91-2.02,2.02-2.02h55.4c1.12,0,2.02.91,2.02,2.02v.77c0,1.12-.91,2.02-2.02,2.02h-55.4Z"/>
  <path d="m26.91,48.68c.72.42,1.48.71,2.3.86-.43,1.08-.66,2.1-.71,3.13-.07,1.43.19,2.75.79,3.94l-1.68,1.68c-.6.6-.74,1.37-.42,2.3.25.73.93,1.15,1.77,1.09.57-.04,1.14-.27,1.52-.62.55-.5,1.07-1.03,1.6-1.56l.05-.05c1.17.6,2.48.86,3.89.8,1.05-.05,2.11-.29,3.19-.72.02.14.05.28.09.42.81,3.22,3.62,5.37,6.8,5.37.38,0,.77-.03,1.16-.09,1.97-.32,3.49-1.23,4.51-2.71,1.68-2.43,1.85-5.02.5-7.68-.62-1.22-1.22-2.44-1.83-3.67l-1.57-3.18c1.94-1.01,3.07-2.68,3.19-4.74.05-.82.25-1.25.77-1.66.1-.08.19-.17.34-.33.04-.04.07-.06.07-.07.02,0,.04.02.08.05.52.39,1.12.57,1.68.49.5-.07.95-.34,1.26-.75.69-.92.49-2.11-.48-2.9-1.57-1.27-3.79-1.19-5.28.19,0,0,0,0,0,0h-.01s.03-.04.04-.06c1.35-1.47,1.42-3.67.17-5.23-.79-.98-1.98-1.18-2.9-.49-.42.32-.7.77-.77,1.27-.08.56.09,1.14.5,1.67.06.08.07.11.02.11h0c-.34.36-.69.71-1.05,1.06-2.44-.1-4.6,1.15-5.71,3.28l-1.66-.82c-1.79-.88-3.58-1.77-5.37-2.66-1.48-.74-2.98-.99-4.46-.72-3.1.55-5.37,2.91-5.79,6.02-.38,2.79.97,5.53,3.44,6.98Zm19.59-8.01c.81.08,1.52.83,1.61,1.71.08.83-.34,1.63-1.03,2.02-.17-.35-.35-.71-.56-1.06-.25-.42-.64-.81-1.09-1.09-.36-.23-.73-.42-1.1-.59.4-.71,1.19-1.08,2.17-.99Zm2.31,19.05c-.42.82-1.17,1.36-2.11,1.54-.91.17-1.75-.02-2.42-.54-.68-.54-1.14-1.41-1.19-2.27-.04-.74.18-1.49.41-2.28.09-.3.18-.6.25-.9.47-1.85.96-3.7,1.46-5.55l2.63,5.29c.32.65.65,1.3.96,1.95.43.91.43,1.92,0,2.76Zm-10.46-16.55c.22.11.45.23.67.34l-.63.17c-2.39.64-4.78,1.28-7.17,1.9-.9.23-1.84.03-2.6-.56-.76-.59-1.2-1.47-1.2-2.4,0-1.04.53-2,1.42-2.57.49-.31,1.02-.47,1.55-.47.4,0,.8.09,1.18.27,2.28,1.06,4.57,2.21,6.78,3.33Z"/>
  <path d="m96.91,41.28c.05-.04.09-.06.1-.08.02.02.06.04.1.08l.21.21c.28.28.57.55.79.79,0,0,.02.05.02.1.03.19.04.38.05.57.02.37.05.8.16,1.22.45,1.72,1.48,3,3.05,3.81l-.84,1.71c-.9,1.83-1.8,3.66-2.73,5.47-1.59,3.1-.41,7.34,2.51,9.06,1.25.74,2.48,1.1,3.76,1.1h.06c3.19-.03,5.9-2.13,6.74-5.23.05-.19.09-.39.13-.58,2.62,1.03,4.91,1.01,7.09-.07l.41.41c.42.42.84.85,1.27,1.26.76.74,1.91.83,2.66.21.59-.48.7-1.31.73-1.64.04-.58-.31-1.1-.6-1.43-.42-.46-.9-.94-1.46-1.46-.06-.06-.13-.12-.2-.17,1.3-2.74.85-5.2.1-7.1,1.94-.35,3.65-1.5,4.7-3.18,1.09-1.74,1.37-3.86.78-5.82-.6-1.97-2.05-3.56-3.97-4.38-1.92-.81-4.1-.73-5.99.23-1.38.7-2.77,1.39-4.16,2.07l-2.91,1.44c-.98-1.91-2.61-3.03-4.69-3.18-.85-.06-1.36-.32-1.84-.92-.06-.07-.12-.14-.19-.2-.03-.04-.05-.06-.07-.07,0-.02.03-.04.05-.08.4-.53.58-1.11.5-1.67-.07-.5-.34-.95-.77-1.27-.92-.69-2.11-.49-2.9.49-1.25,1.56-1.19,3.76.17,5.23.01.01.02.03.04.04v.02s-.02,0-.02,0c-1.52-1.42-3.83-1.46-5.38-.11-.92.8-1.05,2.02-.32,2.89.71.85,1.91.94,2.85.22Zm24.13-1.42c.81.36,1.4,1.06,1.66,1.96.23.83.09,1.72-.38,2.45-.47.72-1.22,1.19-2.05,1.31-.48.06-.99.04-1.42-.07-2.52-.64-5.03-1.31-7.59-1.99h-.02s3.03-1.51,3.03-1.51c1.37-.69,2.75-1.37,4.12-2.05.88-.43,1.82-.46,2.66-.09Zm-17.07,21.43c-1.01-.03-1.94-.57-2.47-1.44-.51-.84-.57-1.82-.16-2.7,1.07-2.27,2.21-4.55,3.32-6.76.11-.22.22-.45.34-.67l.57,2.13c.51,1.89,1.02,3.78,1.49,5.69.23.93.02,1.89-.57,2.62-.61.75-1.53,1.15-2.52,1.13Zm-.85-16.94c-.59-.34-.94-.88-1-1.57-.08-.91.4-1.7,1.21-2.01.08-.03.17-.06.26-.08l1.99,1.06c-1.12.56-1.94,1.43-2.47,2.6Z"/>
</svg>