<?xml version="1.0" encoding="UTF-8"?>
<svg id="icons" xmlns="http://www.w3.org/2000/svg" viewBox="0 0 150 150">
  <path d="m123.77,127.04H26.23c-.69,0-1.33-.35-1.7-.94-.37-.58-.4-1.32-.1-1.94L73.2,24.09c.33-.69,1.03-1.12,1.8-1.12s1.46.44,1.8,1.12l48.77,100.08c.3.62.26,1.35-.1,1.94-.37.58-1.01.94-1.7.94Zm-94.34-4h91.14L75,29.53,29.43,123.04Z"/>
  <path d="m75.1,110.72c-.07,0-.13,0-.19,0h0c-11.18-.06-21.62-5.63-27.92-14.89-.47-.69-.46-1.59.01-2.27,6.4-9.18,16.91-14.65,28.09-14.55,11.17.06,21.61,5.62,27.92,14.87.47.69.46,1.59-.01,2.27-6.37,9.13-16.79,14.56-27.9,14.56Zm-.17-4c.06,0,.11,0,.17,0,9.33,0,18.11-4.35,23.79-11.72-5.63-7.48-14.43-11.93-23.82-11.99-.06,0-.12,0-.17,0-9.34,0-18.12,4.34-23.79,11.71,5.62,7.48,14.43,11.94,23.82,12h0Z"/>
  <path d="m75.1,110.72c-.07,0-.13,0-.19,0h0c-11.18-.06-21.62-5.63-27.92-14.89-.47-.69-.46-1.59.01-2.27,6.4-9.18,16.91-14.65,28.09-14.55,11.17.06,21.61,5.62,27.92,14.87.47.69.46,1.59-.01,2.27-6.37,9.13-16.79,14.56-27.9,14.56Zm-.17-4c.06,0,.11,0,.17,0,9.33,0,18.11-4.35,23.79-11.72-5.63-7.48-14.43-11.93-23.82-11.99-.06,0-.12,0-.17,0-9.34,0-18.12,4.34-23.79,11.71,5.62,7.48,14.43,11.94,23.82,12h0Z"/>
  <path d="m75.26,106.72h-.07c-3.19-.02-6.19-1.28-8.44-3.55-2.25-2.27-3.47-5.28-3.46-8.48.02-3.2,1.28-6.19,3.55-8.44s5.32-3.46,8.48-3.45c3.19.02,6.19,1.28,8.44,3.55,2.25,2.27,3.47,5.28,3.46,8.48-.02,3.19-1.28,6.19-3.55,8.44-2.25,2.23-5.24,3.45-8.41,3.45Zm0-19.92c-4.37,0-7.94,3.54-7.96,7.92-.01,2.13.8,4.13,2.3,5.64,1.5,1.51,3.49,2.35,5.62,2.36h.05c4.37,0,7.94-3.54,7.96-7.92.01-2.13-.8-4.13-2.3-5.64-1.5-1.51-3.49-2.35-5.62-2.36h-.05Z"/>
  <g>
    <path d="m112.1,62c-.86,0-1.66-.56-1.92-1.43-.32-1.06.28-2.17,1.34-2.49l11.89-3.56c1.06-.32,2.17.28,2.49,1.34.32,1.06-.28,2.17-1.34,2.49l-11.89,3.56c-.19.06-.38.08-.57.08Z"/>
    <path d="m99.92,47.52c-.51,0-1.02-.2-1.41-.59-.78-.78-.78-2.05,0-2.83l8.41-8.41c.78-.78,2.05-.78,2.83,0,.78.78.78,2.05,0,2.83l-8.41,8.41c-.39.39-.9.59-1.41.59Z"/>
    <g>
      <path d="m36.89,77.04h-11.89c-1.1,0-2-.9-2-2s.9-2,2-2h11.89c1.1,0,2,.9,2,2s-.9,2-2,2Z"/>
      <path d="m36.89,62c-.19,0-.38-.03-.57-.08l-11.89-3.56c-1.06-.32-1.66-1.43-1.34-2.49.32-1.06,1.43-1.66,2.49-1.34l11.89,3.56c1.06.32,1.66,1.43,1.34,2.49-.26.87-1.05,1.43-1.92,1.43Z"/>
      <path d="m46.71,49.93c-.51,0-1.02-.2-1.41-.59l-8.41-8.41c-.78-.78-.78-2.05,0-2.83.78-.78,2.05-.78,2.83,0l8.41,8.41c.78.78.78,2.05,0,2.83-.39.39-.9.59-1.41.59Z"/>
    </g>
    <path d="m125,77.04h-11.89c-1.1,0-2-.9-2-2s.9-2,2-2h11.89c1.1,0,2,.9,2,2s-.9,2-2,2Z"/>
  </g>
</svg>