<?xml version="1.0" encoding="UTF-8"?>
<svg id="icons" xmlns="http://www.w3.org/2000/svg" viewBox="0 0 150 150">
  <g>
    <path d="m75,127c-28.67,0-52-23.33-52-52s23.33-52,52-52,52,23.33,52,52-23.33,52-52,52Zm0-100c-26.47,0-48,21.53-48,48s21.53,48,48,48,48-21.53,48-48-21.53-48-48-48Z"/>
    <path d="m113.33,102.33H36.67c-.71,0-1.38-.38-1.73-1-.36-.62-.36-1.38,0-2l38.33-66.4c.36-.62,1.02-1,1.73-1s1.38.38,1.73,1l38.33,66.4c.36.62.36,1.38,0,2-.36.62-1.02,1-1.73,1Zm-73.2-4h69.74l-34.87-60.4-34.87,60.4Z"/>
  </g>
  <path d="m75.41,84.72c-1.1,0-2-.9-2-2v-23.22c0-1.1.9-2,2-2s2,.9,2,2v23.22c0,1.1-.9,2-2,2Z"/>
  <path d="m90.18,84.72h-29.89c-1.1,0-2-.9-2-2s.9-2,2-2h29.89c1.1,0,2,.9,2,2s-.9,2-2,2Z"/>
  <path d="m90.18,92.07c-1.1,0-2-.9-2-2v-14.44c0-1.1.9-2,2-2s2,.9,2,2v14.44c0,1.1-.9,2-2,2Z"/>
  <path d="m60.3,91.94c-1.1,0-2-.9-2-2v-14.44c0-1.1.9-2,2-2s2,.9,2,2v14.44c0,1.1-.9,2-2,2Z"/>
  <path d="m82.63,61.5h-14.44c-1.1,0-2-.9-2-2s.9-2,2-2h14.44c1.1,0,2,.9,2,2s-.9,2-2,2Z"/>
</svg>