<?xml version="1.0" encoding="UTF-8"?>
<svg id="icons" xmlns="http://www.w3.org/2000/svg" viewBox="0 0 150 150">
  <path d="m111.67,109.67h-.44v-35.06c.06-.27.06-.54,0-.81v-23.79c0-.91-.61-1.67-1.44-1.91,3.01-2.63,4.92-6.48,4.92-10.77,0-7.89-6.42-14.31-14.31-14.31s-14.31,6.42-14.31,14.31c0,4.3,1.91,8.15,4.92,10.77-.83.24-1.44,1-1.44,1.91v6.04c-.06.27-.06.54,0,.81v25.77c-.06.27-.06.54,0,.81v26.23h-28.73v-26.09c.1-.36.1-.74,0-1.11v-25.48c.1-.36.1-.74,0-1.11v-5.89c0-.96-.68-1.77-1.59-1.96,2.98-2.62,4.87-6.46,4.87-10.73,0-7.89-6.42-14.31-14.31-14.31s-14.31,6.42-14.31,14.31c0,4.32,1.93,8.19,4.97,10.82-.75.29-1.29,1.01-1.29,1.87v59.67h-.83c-8.46,0-15.33,6.88-15.33,15.33,0,1.1.9,2,2,2h100c1.1,0,2-.9,2-2,0-8.46-6.88-15.33-15.33-15.33Zm-4.44-40.34l-13.67-13.67v-3.66h13.67v17.33Zm-13.67-8.01l13.67,13.67v20.93l-13.67-13.67v-20.93Zm-3.48-24c0-5.69,4.63-10.31,10.31-10.31s10.31,4.63,10.31,10.31-4.63,10.31-10.31,10.31-10.31-4.63-10.31-10.31Zm3.48,50.59l13.51,13.52s.1.08.15.12v8.13h-13.67v-21.77Zm-36.73-32.2l-13.67,13.67v-17.37h13.67v3.7Zm-13.67,19.32l13.67-13.67v20.93l-13.67,13.67v-20.93Zm-3.68-37.71c0-5.69,4.63-10.31,10.31-10.31s10.31,4.63,10.31,10.31-4.63,10.31-10.31,10.31-10.31-4.63-10.31-10.31Zm3.68,64.26c.07-.05.14-.1.2-.16l13.47-13.47v21.72h-13.67v-8.09Zm-15.99,21.43c.95-5.3,5.59-9.33,11.16-9.33h73.33c5.57,0,10.21,4.03,11.16,9.33H27.18Z"/>
</svg>