<?xml version="1.0" encoding="UTF-8"?>
<svg id="icons" xmlns="http://www.w3.org/2000/svg" viewBox="0 0 150 150">
  <path d="m127.16,63.12c-.35-.66-1.03-1.07-1.77-1.07h-27.75l-1.69-6.6c1.32-.18,2.73-.1,3.1.66.41.83,1.35,1.27,2.25,1.06.9-.21,1.54-1.02,1.54-1.95v-4.09c0-2.74-2.13-4.96-4.86-5.04-1.09-.03-2.23-.06-2.93-.06h-.55c-.68,0-1.36-.4-1.87-1.09-1.68-2.29-4.69-2.36-6.97-2.36,0,0,0,0-.01,0h-.23c-3.89,0-6.55.39-7.98,5.62l-2.25,6.56-2.29-6.69c-1.43-5.23-4.09-5.62-7.98-5.62h-.23s0,0-.01,0c-2.28,0-5.29.08-6.97,2.36-.51.69-1.19,1.09-1.87,1.09h-.55c-.71,0-1.84.03-2.93.06-2.72.08-4.86,2.29-4.86,5.04v4.09c0,.93.64,1.73,1.54,1.95.91.21,1.83-.22,2.25-1.06.38-.76,1.78-.83,3.1-.66l-1.69,6.61h-27.75c-.74,0-1.43.41-1.77,1.07-.35.66-.3,1.45.13,2.07.29.42.65,1.02,1.07,1.72,2.54,4.25,7.83,13.1,22.31,21.82.01,0,.02,0,.03.01.02,0,.03.02.05.03,2.88,1.56,6.14,2.76,9.63,3.57l2.1.55-8.31,9.33-8.52-.76c-1.1-.1-2.07.71-2.17,1.81-.1,1.1.71,2.07,1.81,2.17l5.25.47-4.08,4.07c-.78.78-.78,2.05,0,2.83.78.78,2.05.78,2.83,0l4.72-4.71,1.44,5c.25.88,1.05,1.45,1.92,1.45.18,0,.37-.03.56-.08,1.06-.31,1.67-1.41,1.37-2.48l-2.07-7.19,9.6-10.78,2.72.71-8.69,25.86c-.28.82,0,1.73.71,2.25.7.52,1.65.52,2.35.02l6.93-4.96,6.95,8.49c.1.13.22.24.35.33.02.02.04.02.06.04.13.09.28.17.43.22.02,0,.04.03.07.04.02,0,.05,0,.07.01.18.05.37.09.56.09,0,0,0,0,0,0h0c.13,0,.27-.02.4-.05.04,0,.07-.02.11-.03.1-.03.19-.06.29-.1.04-.02.07-.03.11-.05.1-.05.2-.11.29-.18.02-.01.04-.02.06-.04,0,0,0,0,.01,0,.11-.09.21-.19.3-.3,0,0,0,0,0,0l6.58-8.32,6.91,4.94c.71.5,1.66.5,2.35-.02.7-.52.98-1.42.71-2.25l-8.69-25.86,2.72-.71,9.6,10.78-2.07,7.19c-.31,1.06.31,2.17,1.37,2.48.19.05.37.08.56.08.87,0,1.67-.57,1.92-1.45l1.44-5,4.72,4.71c.78.78,2.05.78,2.83,0s.78-2.05,0-2.83l-4.08-4.07,5.25-.47c1.1-.1,1.91-1.07,1.81-2.17-.1-1.1-1.07-1.91-2.17-1.81l-8.52.76-8.31-9.33,2.05-.54c3.55-.82,6.81-2.03,9.69-3.59.02,0,.03-.02.05-.03.01,0,.02,0,.03-.01,14.48-8.72,19.77-17.56,22.31-21.82.42-.69.77-1.29,1.07-1.72.42-.61.47-1.41.13-2.07Zm-13.37,12.97l-6.98-4.54c-.93-.6-2.17-.34-2.77.59-.6.93-.34,2.17.59,2.77l6.07,3.95c-2.49,2.08-5.46,4.23-9.06,6.4-2.56,1.38-5.47,2.45-8.71,3.21l-11.23,2.94c-.54.14-.99.5-1.25.98-.26.49-.31,1.06-.14,1.59l7.4,22.03-3.43-2.45c-.87-.62-2.07-.45-2.73.39l-4.29,5.43-.12-6.85c-.02-1.1-.92-2.02-2.03-1.96-1.1.02-1.98.93-1.96,2.03l.12,6.68-4.48-5.48c-.67-.82-1.85-.97-2.71-.36l-3.43,2.45,7.4-22.03c.18-.53.13-1.1-.14-1.59-.26-.49-.72-.84-1.25-.98l-11.29-2.95c-3.19-.74-6.1-1.82-8.66-3.19-3.61-2.17-6.58-4.33-9.06-6.4l6.07-3.95c.93-.6,1.19-1.84.59-2.77-.6-.93-1.84-1.19-2.77-.59l-6.98,4.54c-4.09-3.95-6.45-7.47-8.02-10.05h25.73s0,0,0,0c0,0,0,0,0,0,.2,0,.39-.04.57-.1.03-.01.07-.02.1-.03.18-.07.34-.15.49-.26.03-.02.05-.04.08-.07.15-.12.29-.26.4-.43,0,0,0-.01,0-.02.11-.17.19-.35.25-.55,0-.02.02-.03.02-.05l2.59-10.1c.26-1.01-.31-2.06-1.3-2.39-1.57-.53-3.91-.94-5.98-.51v-.43c0-.57.43-1.02.98-1.04,1.05-.03,2.14-.06,2.82-.06h.55c1.96,0,3.82-.99,5.09-2.72.5-.68,2.32-.74,3.98-.74,3.08,0,3.4,0,4.14,2.73.01.04.02.08.04.13l4.01,11.68c-.12.93.42,1.84,1.33,2.16.22.07.43.11.65.11.44,0,.86-.15,1.2-.41.62-.37.98-1.04.97-1.75l4-11.66s.03-.08.04-.13c.74-2.73,1.06-2.73,4.14-2.73,1.67,0,3.48.06,3.98.74,1.27,1.73,3.13,2.72,5.09,2.72h.55c.68,0,1.77.03,2.81.06.55.02.98.47.98,1.04v.43c-2.07-.44-4.42-.02-5.98.51-.99.34-1.56,1.38-1.3,2.39l2.59,10.1s.02.03.02.05c.06.2.14.38.25.55,0,0,0,.01,0,.02.11.16.25.3.4.43.03.02.05.04.08.07.15.11.32.2.49.26.03.01.07.02.1.03.18.06.37.09.57.1,0,0,0,0,0,0,0,0,0,0,0,0h25.73c-1.57,2.58-3.93,6.09-8.02,10.05Z"/>
  <path d="m87.75,48.45h-2.22c-1.1,0-2,.9-2,2s.9,2,2,2h2.22c1.1,0,2-.9,2-2s-.9-2-2-2Z"/>
  <path d="m64.8,48.32h-2.22c-1.1,0-2,.9-2,2s.9,2,2,2h2.22c1.1,0,2-.9,2-2s-.9-2-2-2Z"/>
  <path d="m61.96,42.24h26.04c1.1,0,2-.9,2-2v-9.88c0-.71-.37-1.36-.98-1.72-.61-.36-1.36-.38-1.98-.04l-5.38,2.92-5.02-7.62c-.38-.58-1.04-.91-1.73-.9-.69.02-1.33.4-1.67.99l-4.44,7.63-6.08-2.55c-.62-.26-1.32-.19-1.88.18s-.89,1-.89,1.67v9.31c0,1.1.9,2,2,2Zm2-8.31l4.93,2.06c.93.39,2,.03,2.5-.84l3.7-6.36,4.25,6.45c.57.87,1.71,1.15,2.62.66l4.04-2.19v4.52h-22.04v-4.31Z"/>
</svg>