<?xml version="1.0" encoding="UTF-8"?>
<svg id="icons" xmlns="http://www.w3.org/2000/svg" viewBox="0 0 150 150">
  <path d="m25.46,63.92c-.29,0-.47.31-.31.56,1.52,2.4,3.63,6.85,9.35,12.45l.31.29,8.55-5.79c.93-.6,2.17-.34,2.77.59.6.92.34,2.16-.59,2.76l-7.14,4.93c-.19.2-.17.52.04.7,2.57,2.17,5.28,4.17,9.11,6.47l.93.34c2.6,1.41,4.71,2.23,8.25,3.06l3.09.81-9.8,11-8.52-.76c-1.1-.1-2.07.71-2.17,1.81-.09,1.1.72,2.08,1.82,2.17l5.25.47-4.08,4.07c-.78.78-.78,2.05,0,2.83.78.78,2.04.79,2.82.01l4.72-4.71,1.44,5c.26.88,1.06,1.45,1.92,1.45.19,0,.37-.03.56-.08,1.06-.31,1.67-1.42,1.37-2.48l-2.08-7.19,11.1-12.46,3.8.99-9.11,27.11c-.09.25.19.46.41.3l7.78-5.57,5.43,6.51c.17.19.48.08.48-.17v-8.83c0-1.22,1.1-2.18,2.35-1.97.98.16,1.65,1.09,1.65,2.08v8.78c0,.25.31.37.47.18l5.52-6.44,7.78,5.57c.22.15.5-.06.41-.31l-9.11-27.1,3.82-1s.05.08.08.11l11,12.35-2.08,7.19c-.3,1.06.31,2.17,1.37,2.48.19.05.37.08.56.08.86,0,1.66-.57,1.92-1.45l1.44-5,4.72,4.71c.78.78,2.04.77,2.82-.01.78-.78.78-2.05,0-2.83l-4.08-4.07,5.25-.47c1.1-.09,1.91-1.06,1.82-2.17-.1-1.1-1.08-1.91-2.17-1.81l-8.52.76-9.8-11,3.09-.81c3.54-.83,5.65-1.65,8.25-3.06l.93-.34c4.03-2.42,7.32-4.83,10.02-7.13-.28-.03-.57-.13-.83-.3l-7.18-4.67c-.93-.6-1.19-1.84-.59-2.76.6-.93,1.84-1.19,2.77-.59l7.18,4.67c.58.37.89.99.91,1.63,6.08-5.7,8.62-10.55,10.2-13.04.18-.27-.01-.63-.33-.65l-1.71-.12h-26.98l-2.58-10.1s1.73-.58,3.55-.58c1.5,0,3.07.39,3.79,1.84v-4.09c0-1.64-1.29-2.99-2.92-3.04-1.06-.03-2.18-.05-2.87-.05h-.55c-1.33,0-2.65-.6-3.36-1.73-.97-1.55-3.05-1.72-5.49-1.73h-.23c-3.32,0-4.95.1-6.07,4.21l-4.16,12.13-4.2-12.26c-.98-3.61-2.35-4.12-4.9-4.2-.37-.01-.76-.01-1.17-.01h-.23c-2.44.01-4.52.18-5.49,1.73-.71,1.13-2.03,1.73-3.36,1.73h-.55c-.69,0-1.81.02-2.87.05-1.63.05-2.92,1.4-2.92,3.04v4.09c.72-1.45,2.29-1.84,3.79-1.84,1.82,0,3.55.58,3.55.58l-2.58,10.1h-28.63Zm59.91-15.47h2.22c1.1,0,2,.9,2,2s-.9,2-2,2h-2.22c-1.11,0-2-.89-2-2s.89-2,2-2Zm-22.96-.13h2.22c1.11,0,2,.9,2,2s-.89,2-2,2h-2.22c-1.1,0-2-.9-2-2s.9-2,2-2Z"/>
  <path d="m87.05,40.24c.43,0,.78-.35.78-.78v-8.11c0-.45-.48-.74-.88-.52l-6.12,3.32-5.5-8.35c-.24-.37-.79-.35-1.01.03l-4.84,8.32-6.88-2.88c-.39-.16-.82.12-.82.55v7.65c0,.43.35.78.78.78h24.49Z"/>
</svg>