<svg id="Symbols" xmlns="http://www.w3.org/2000/svg" viewBox="0 0 150 150"><title>belobog-bold</title><path d="M106.13,89l-3.49-3.49L113.06,75.1,102.64,64.68l3.49-3.48L116.91,72l5.66-5.66L109,52.71h0l-2.83-2.83L97,59,77.83,39.87,80.66,37l.51-.51L94.78,50.14l5.66-5.66L86.83,30.87l-5.66-5.66-5.66,5.66-.51.51-.51-.51-5.66-5.66-5.66,5.66L49.56,44.48l5.66,5.66L68.83,36.53l.51.51,2.83,2.83L53,59l-9.14-9.15L41,52.71h0L27.43,66.32,33.09,72,43.87,61.2l3.49,3.48L36.94,75.1,47.36,85.52,43.87,89,33.09,78.23l-5.66,5.66L41,97.5h0l2.83,2.82L53,91.18l19.16,19.16-3.34,3.34L55.22,100.07l-5.66,5.66,13.61,13.61L68.83,125,75,118.82,81.17,125l5.66-5.65,13.61-13.61-5.66-5.66L81.17,113.68l-3.34-3.34L97,91.18l9.14,9.14L109,97.5h0l13.61-13.61-5.66-5.66ZM101.75,75.1,97,79.87,92.22,75.1,97,70.34ZM75,48.35,91.33,64.68l-4.76,4.77-5.91-5.91,2.89-2.9L77.89,55,75,57.88,72.11,55l-5.66,5.65,2.89,2.9-5.91,5.91-4.76-4.77ZM80.91,75.1,75,81,69.09,75.1,75,69.19Zm-32.66,0L53,70.34l4.77,4.76L53,79.87ZM75,101.85,58.67,85.52l4.76-4.76,5.91,5.91-2.89,2.89,5.66,5.66L75,92.33l2.89,2.89,5.66-5.66-2.89-2.89,5.91-5.91,4.76,4.76Z"/></svg>