<svg id="Symbols" xmlns="http://www.w3.org/2000/svg" viewBox="0 0 150 150"><title>svarog-bold</title><path d="M121,80.66,126.62,75l-19.8-19.8L92.68,69.34l-12-12L94.8,43.18l-5.66-5.66L75,51.67l-8.49-8.49L80.66,29,75,23.38,60.86,37.52h0L55.2,43.18l5.66,5.66h0l8.48,8.48-12,12L43.18,55.2l-5.66,5.66L51.67,75l-8.49,8.49L29,69.34,23.38,75l19.8,19.8L57.32,80.66l12,12L55.2,106.82l5.66,5.66L75,98.33l8.49,8.49L69.34,121,75,126.62l14.14-14.14h0l5.66-5.66-5.66-5.66h0l-8.48-8.48,12-12L106.82,94.8l5.66-5.66L98.33,75l8.49-8.49ZM75,87,63,75,75,63,87,75Z"/></svg>