<svg id="Symbols" xmlns="http://www.w3.org/2000/svg" viewBox="0 0 150 150"><title>ruevit-bold</title><path d="M91.5,44.53v38L75.44,99h-.88L58.5,82.51v-38L32.35,67.12,50.5,85.76V107H69.29l-6.87,8.82L75,126.61l12.57-10.79L80.7,107H99.5V85.76l18.15-18.64Zm-41,29.76L44,67.62,50.5,62ZM58.5,99V94l4.89,5ZM75,116.07l-1.58-1.35,1.58-2,1.57,2ZM91.5,99H86.61l4.89-5Zm8-37,6.49,5.6L99.5,74.29Z"/><polygon points="71 83.62 79 83.62 79 77.96 84 77.96 84 69.96 79 69.96 79 33.62 78.98 33.62 77 29.16 75 24.66 73 29.16 71.02 33.62 71 33.62 71 69.96 66 69.96 66 77.96 71 77.96 71 83.62"/></svg>