<svg id="Symbols" xmlns="http://www.w3.org/2000/svg" viewBox="0 0 150 150"><title>chernobog-bold</title><path d="M103.89,61.52l7.26-12.82L94,26.57l-6.32,4.91,13.92,17.91L94.7,61.52H78.81L90.55,44.24,75,24.29l-15.55,20L71.19,61.52H55.3L48.44,49.39,62.36,31.48,56,26.57,38.85,48.7l7.26,12.82h-20L40.5,86.58l6.94-4L39.92,69.52H50.64l20.23,35.7-4.74,7.86L56.65,96.59l-6.94,4L66,128.85l9-15,9,15,16.27-28.28-6.94-4-9.49,16.5-4.73-7.87,20.23-35.7h10.72l-7.52,13.07,6.94,4,14.42-25.06ZM75,37.3l5.66,7.26L75,52.89l-5.66-8.33Zm0,59L59.84,69.52H90.16Z"/></svg>