<svg id="Symbols" xmlns="http://www.w3.org/2000/svg" viewBox="0 0 150 150"><title>dazhbog-bold</title><rect x="70.38" y="97.85" width="9.25" height="9.25" transform="translate(-50.49 83.05) rotate(-45)"/><path d="M113.77,81l-1.34-2.06,0,0-9-13.83,3.33-2.17L99.18,51.16l-6.71,4.37L99.93,67H91.5V50H81.69l7.45-7.45L75,28.38,60.86,42.52,68.31,50H58.5V67H50.1l7.37-11.34h0l.07-.09-6.71-4.37L43.18,62.89l3.37,2.2L45.33,67h0l-9.1,14L43,91.39,31.93,102.47,45.49,116l5.66-5.65-7.91-7.91,7.5-7.5h6.83l-7.5,7.5L63.64,116l5.65-5.65-7.9-7.91,7.5-7.5H81.11l7.5,7.5-7.9,7.91L86.36,116l13.57-13.56L92.43,95h6.83l7.5,7.5-7.91,7.91,5.66,5.65,13.56-13.56L107,91.39ZM75,39.69l2.83,2.83L75,45.35l-2.83-2.83ZM83.5,67H80.25L78.5,63l-2.19-5H83.5Zm-17-9h7.19L71.5,63l-1.75,4H66.5Zm25,22V75h8.83l3.9,6-3.9,6H49.67l-3.9-6,3.9-6H58.5v5Z"/><polygon points="112.84 72.09 119.54 67.72 113.54 58.51 105.9 46.78 99.19 51.14 106.83 62.88 112.84 72.09"/><polygon points="43.16 62.88 50.81 51.14 44.1 46.78 36.46 58.51 30.46 67.72 37.16 72.09 43.16 62.88"/></svg>