<svg id="Symbols" xmlns="http://www.w3.org/2000/svg" viewBox="0 0 150 150"><title>tausen-bold</title><polygon points="103.79 41.07 98.13 35.41 75 58.54 51.87 35.41 46.21 41.07 75 69.86 103.79 41.07"/><polygon points="92.57 35.31 86.91 29.65 78.99 37.57 78.99 30 70.99 30 70.99 37.57 63.08 29.65 57.42 35.31 74.99 52.89 92.57 35.31"/><polygon points="46.21 108.94 51.87 114.6 75 91.47 98.12 114.6 103.78 108.94 75 80.15 46.21 108.94"/><polygon points="57.42 114.7 63.08 120.36 70.99 112.44 70.99 120 78.99 120 78.99 112.44 86.91 120.36 92.57 114.7 74.99 97.12 57.42 114.7"/><polygon points="114.59 51.87 108.93 46.21 80.14 75 108.93 103.79 114.59 98.13 91.46 75 114.59 51.87"/><polygon points="120 79 120 71 112.43 71 120.35 63.08 114.69 57.42 97.11 75 114.69 92.58 120.35 86.92 112.43 79 120 79"/><polygon points="41.06 46.21 35.4 51.87 58.53 75 35.4 98.13 41.06 103.79 69.85 75 41.06 46.21"/><polygon points="35.3 57.42 29.64 63.08 37.56 71 30 71 30 79 37.56 79 29.64 86.92 35.3 92.58 52.88 75 35.3 57.42"/></svg>