<svg id="Symbols" xmlns="http://www.w3.org/2000/svg" viewBox="0 0 150 150"><title>nemiza-bold</title><path d="M75,37.08l7.07,7.07L75,51.22l-7.07-7.07L75,37.08m0-11.32-5.66,5.66-7.07,7.07-5.66,5.66,5.66,5.66,7.07,7.07L75,62.53l5.65-5.65,7.07-7.07,5.66-5.66-5.66-5.66-7.07-7.07L75,25.76Z"/><polygon points="105.95 55.62 100.29 49.97 75 75.27 49.71 49.97 44.05 55.62 55.29 66.86 44.05 78.09 49.71 83.75 60.94 72.52 71 82.58 71 123.92 79 123.92 79 82.58 89.06 72.52 100.29 83.75 105.95 78.09 94.71 66.86 105.95 55.62"/></svg>