<svg id="Symbols" xmlns="http://www.w3.org/2000/svg" viewBox="0 0 150 150"><title>mara-bold</title><polygon points="110.96 87.62 102.12 96.46 80.66 75 102.12 53.54 110.96 62.38 116.61 56.72 107.78 47.88 116.01 39.65 110.36 33.99 102.12 42.22 93.28 33.38 87.62 39.04 96.46 47.88 75 69.34 53.54 47.88 62.38 39.04 56.72 33.38 47.88 42.22 39.65 33.99 33.99 39.65 42.22 47.88 33.38 56.72 39.04 62.38 47.88 53.54 69.34 75 47.88 96.46 39.04 87.62 33.38 93.28 42.22 102.12 33.99 110.36 39.65 116.01 47.88 107.78 56.72 116.61 62.38 110.96 53.54 102.12 75 80.66 96.46 102.12 87.62 110.96 93.28 116.61 102.12 107.78 110.36 116.01 116.01 110.36 107.78 102.12 116.61 93.28 110.96 87.62"/></svg>