<svg id="Symbols" xmlns="http://www.w3.org/2000/svg" viewBox="0 0 150 150"><title>kupalo-bold</title><path d="M105.66,74.71l-16.41-24L100.19,35l-6.56-4.58-9.2,13.22L75,29.8,65.57,43.61l-9.2-13.22L49.81,35,60.75,50.68l-16.41,24L61.08,99.23,49.83,115l6.52,4.64,9.53-13.37L75,119.63l9.12-13.36,9.53,13.37,6.52-4.64L88.92,99.23Zm-9.68,0L84,92.29l-4.07-5.7L87.8,75.53,79.87,64.14l4.49-6.44Zm-24,.76,3-4.33,3,4.33L75,79.7ZM75,44l4.54,6.64L75,57.14l-4.54-6.51ZM54,74.71l11.62-17,4.49,6.44L62.2,75.53l7.89,11.06L66,92.29Zm21,30.73-4.17-6.11L75,93.48l4.17,5.85Z"/></svg>