<svg id="Symbols" xmlns="http://www.w3.org/2000/svg" viewBox="0 0 150 150"><title>rarog-bold</title><path d="M98.66,72.75A24,24,0,0,0,77,52.84V37L87.76,47.26l2.76-2.89L73,27.65V52.84A24,24,0,0,0,51.34,72.75H29.2v4a47.89,47.89,0,0,0,5.88,23l7-3.84a39.91,39.91,0,0,1-4.7-15.16h6a33.83,33.83,0,0,0,3.79,12l3.52-1.9a29.88,29.88,0,0,1-3.27-10.13h3.86A24,24,0,0,0,61.43,96.53l-11,19,3.46,2,11-19a23.74,23.74,0,0,0,8.1,2.15v17.66h4V100.66a23.74,23.74,0,0,0,8.1-2.15l11,19,3.46-2-11-19A24,24,0,0,0,98.66,80.75h3.86a29.88,29.88,0,0,1-3.27,10.13l3.52,1.9a33.83,33.83,0,0,0,3.79-12h6a39.91,39.91,0,0,1-4.7,15.16l7,3.84a47.89,47.89,0,0,0,5.88-23v-4Zm-8.19,0H77V60.89A16,16,0,0,1,90.47,72.75ZM73,60.89V72.75H59.53A16,16,0,0,1,73,60.89ZM59.53,80.75h11l-5.09,8.81A16,16,0,0,1,59.53,80.75Zm9.39,10.79L73,84.48v8.13A16,16,0,0,1,68.92,91.54ZM77,92.61V84.48l4.08,7.06A15.92,15.92,0,0,1,77,92.61Zm7.55-3-5.09-8.81h11A16,16,0,0,1,84.55,89.56Z"/></svg>