<svg id="Symbols" xmlns="http://www.w3.org/2000/svg" viewBox="0 0 150 150"><title>chur-bold</title><path d="M87.85,36.85,75,24,62.15,36.85,75,49.7ZM75,29.65l7.2,7.2L75,44l-7.2-7.19Z"/><polygon points="93.13 56.51 87.47 62.17 94.19 68.89 106.92 56.16 90.66 39.9 75 55.48 59.34 39.9 43.09 56.16 55.81 68.89 62.53 62.17 56.87 56.51 55.81 57.57 54.4 56.16 59.35 51.2 69.33 61.12 57.05 73.34 57.05 125 65.06 125 65.06 76.66 75 66.77 84.94 76.66 84.94 125 92.94 125 92.94 73.34 80.67 61.12 90.64 51.2 95.6 56.16 94.19 57.57 93.13 56.51"/><path d="M75,76c-3.58,0-6.5,3.25-6.5,7.26V125h4V83.26C72.5,81.49,73.65,80,75,80a2.2,2.2,0,0,1,1.67.85,3.71,3.71,0,0,1,.83,2.41V125h4V83.26a7.64,7.64,0,0,0-1.79-5A6.12,6.12,0,0,0,75,76Z"/></svg>