<svg id="Symbols" xmlns="http://www.w3.org/2000/svg" viewBox="0 0 150 150"><title>makosh-bold</title><path d="M96.21,42,75,20.76,53.79,42,75,63.18ZM75,32.07,84.9,42,75,51.87,65.1,42Z"/><path d="M53.79,108,75,129.24,96.21,108,75,86.82ZM75,117.93,65.1,108l9.9-9.9,9.9,9.9Z"/><path d="M86.82,75,108,96.21,129.24,75,108,53.79ZM108,84.9,98.13,75l9.9-9.9,9.9,9.9Z"/><path d="M63.18,75,42,53.79,20.76,75,42,96.21ZM42,65.1l9.9,9.9L42,84.9,32.07,75Z"/><polygon points="108.23 44.59 105.41 41.77 75 72.17 44.59 41.77 41.77 44.59 72.17 75 41.77 105.41 44.59 108.23 75 77.83 105.41 108.23 108.23 105.41 77.83 75 108.23 44.59"/></svg>