<svg id="Symbols" xmlns="http://www.w3.org/2000/svg" viewBox="0 0 150 150"><title>lada-bold</title><path d="M116.5,75a41.33,41.33,0,0,0-1.2-9.89l6.86-6.87-5.65-5.66-4.22,4.22A41.83,41.83,0,0,0,93.2,37.71l3.93-3.93-5.65-5.66L84.89,34.7a41.36,41.36,0,0,0-19.78,0l-6.59-6.58-5.65,5.66,3.93,3.93A41.83,41.83,0,0,0,37.71,56.8l-4.22-4.22-5.65,5.66,6.86,6.87a41.36,41.36,0,0,0,0,19.78l-6.86,6.87,5.65,5.66,4.22-4.22A41.83,41.83,0,0,0,56.8,112.29l-3.93,3.93,5.65,5.66,6.59-6.58a41.36,41.36,0,0,0,19.78,0l6.59,6.58,5.65-5.66-3.93-3.93A41.83,41.83,0,0,0,112.29,93.2l4.22,4.22,5.65-5.66-6.86-6.87A41.33,41.33,0,0,0,116.5,75Zm-8,0c0,1,0,2-.14,3l-3-3,3-3C108.45,73,108.5,74,108.5,75Zm-2.28-12.13-6.47,6.47L80.66,50.25l6.47-6.47A33.64,33.64,0,0,1,106.22,62.87ZM94.09,75,75,94.09,55.91,75,75,55.91ZM75,41.5c1,0,2,0,3,.14l-3,3-3-3C73,41.55,74,41.5,75,41.5ZM62.87,43.78l6.47,6.47L50.25,69.34l-6.47-6.47A33.64,33.64,0,0,1,62.87,43.78ZM41.5,75c0-1,0-2,.14-3l3,3-3,3C41.55,77,41.5,76,41.5,75Zm2.28,12.13,6.47-6.47L69.34,99.75l-6.47,6.47A33.64,33.64,0,0,1,43.78,87.13ZM75,108.5c-1,0-2,0-3-.14l3-3,3,3C77,108.45,76,108.5,75,108.5Zm12.13-2.28-6.47-6.47L99.75,80.66l6.47,6.47A33.64,33.64,0,0,1,87.13,106.22Z"/></svg>