<svg id="Symbols" xmlns="http://www.w3.org/2000/svg" viewBox="0 0 150 150"><title>koliada-bold</title><path d="M120.9,89.44,80,48.54,94.86,33.69A6,6,0,0,1,105.1,38a5.94,5.94,0,0,1-1.76,4.23L93.8,51.73l5.66,5.65L109,47.84A14,14,0,0,0,109,28a14,14,0,0,0-19.8,0L48.54,68.7,34.75,54.91A6,6,0,0,1,39,44.67h0a5.93,5.93,0,0,1,4.21,1.75L52.79,56l5.65-5.66L48.9,40.77A13.85,13.85,0,0,0,39,36.67h0a14,14,0,0,0-9.9,23.89L70,101.46,55.14,116.31a6,6,0,0,1-10.24-4.26,5.94,5.94,0,0,1,1.76-4.23l9.54-9.55-5.66-5.65L41,102.16A14,14,0,0,0,60.8,122L101.46,81.3l13.79,13.79A6,6,0,0,1,111,105.33h0a5.93,5.93,0,0,1-4.21-1.75L97.21,94l-5.65,5.66,9.54,9.54a13.85,13.85,0,0,0,9.86,4.1h0a14,14,0,0,0,9.9-23.89ZM75.65,95.8,54.2,74.35,74.35,54.2,95.8,75.65Z"/></svg>