<svg id="Symbols" xmlns="http://www.w3.org/2000/svg" viewBox="0 0 150 150"><title>viy-bold</title><path d="M120.5,79V71h-8.22c-.06-.6-.14-1.2-.23-1.79L120,67.09l-2.07-7.73L110,61.49c-.22-.56-.45-1.12-.69-1.66l7.12-4.12-4-6.92-7.13,4.11c-.35-.48-.72-.95-1.09-1.42L110,45.66,104.34,40l-5.82,5.82c-.47-.37-.94-.74-1.42-1.09l4.11-7.13-6.92-4-4.12,7.12c-.54-.24-1.1-.47-1.66-.69l2.13-7.94L82.91,30,80.79,38c-.59-.09-1.19-.17-1.79-.23V29.5H71v8.22c-.6.06-1.2.14-1.79.23L67.09,30l-7.73,2.07L61.49,40c-.56.22-1.12.45-1.66.69L55.71,33.6l-6.92,4,4.11,7.13c-.48.35-.95.72-1.42,1.09L45.66,40,40,45.66l5.82,5.82c-.37.47-.74.94-1.09,1.42L37.6,48.79l-4,6.92,7.12,4.12c-.24.54-.47,1.1-.69,1.66l-7.94-2.13L30,67.09,38,69.21c-.09.59-.17,1.19-.23,1.79H29.5v8h8.22c.06.6.14,1.2.23,1.79L30,82.91l2.07,7.73L40,88.51c.22.56.45,1.12.69,1.66L33.6,94.29l4,6.92,7.13-4.11c.35.48.72,1,1.09,1.42L40,104.34,45.66,110l5.82-5.82c.47.37.94.74,1.42,1.09l-4.11,7.13,6.92,4,4.12-7.12c.54.24,1.1.47,1.66.69l-2.13,7.94L67.09,120l2.12-7.93c.59.09,1.19.17,1.79.23v8.22h8v-8.22c.6-.06,1.2-.14,1.79-.23L82.91,120l7.73-2.07L88.51,110c.56-.22,1.12-.45,1.66-.69l4.12,7.12,6.92-4-4.11-7.13c.48-.35,1-.72,1.42-1.09l5.82,5.82,5.66-5.66-5.82-5.82c.37-.47.74-.94,1.09-1.42l7.13,4.11,4-6.92-7.12-4.12c.24-.54.47-1.1.69-1.66l7.94,2.13L120,82.91l-7.93-2.12c.09-.59.17-1.19.23-1.79Zm-16-4A29.5,29.5,0,1,1,75,45.5,29.53,29.53,0,0,1,104.5,75Z"/><path d="M75,48.5A26.5,26.5,0,1,0,101.5,75,26.53,26.53,0,0,0,75,48.5ZM90.61,74.28l2.83-.5c0,.41.06.81.06,1.22s0,.82-.06,1.22l-2.83-.5-.69,3.94,2.83.5a19.63,19.63,0,0,1-.83,2.3L89.42,81l-2,3.46,2.48,1.43a18.74,18.74,0,0,1-1.56,1.88l-1.84-2.2-3.07,2.57,1.85,2.21a19.08,19.08,0,0,1-2.12,1.21l-1-2.7-3.76,1.37,1,2.7a18.82,18.82,0,0,1-2.4.44V90.5H73v2.89A18.82,18.82,0,0,1,70.6,93l1-2.7-3.76-1.37-1,2.7a19.08,19.08,0,0,1-2.12-1.21l1.85-2.21L63.5,85.59l-1.84,2.2a18.74,18.74,0,0,1-1.56-1.88l2.48-1.43-2-3.46-2.5,1.44a18,18,0,0,1-.83-2.3l2.83-.5-.69-3.94-2.83.5c0-.41-.06-.81-.06-1.22s0-.82.06-1.22l2.83.5.69-3.94-2.83-.5a19.63,19.63,0,0,1,.83-2.3L60.58,69l2-3.46L60.1,64.09a18.74,18.74,0,0,1,1.56-1.88l1.84,2.2,3.07-2.57-1.85-2.21a19.08,19.08,0,0,1,2.12-1.21l1,2.7,3.76-1.37-1-2.7a18.82,18.82,0,0,1,2.4-.44V59.5h4V56.61a18.82,18.82,0,0,1,2.4.44l-1,2.7,3.76,1.37,1-2.7a19.08,19.08,0,0,1,2.12,1.21l-1.85,2.21,3.07,2.57,1.84-2.2a18.74,18.74,0,0,1,1.56,1.88l-2.48,1.43,2,3.46,2.5-1.44a18,18,0,0,1,.83,2.3l-2.83.5Z"/></svg>