<svg id="Symbols" xmlns="http://www.w3.org/2000/svg" viewBox="0 0 150 150"><title>sventovit-bold</title><path d="M109,21.11l-5.93,3.25c-.85.47-1.85,1-2.81,1.61A106.41,106.41,0,0,0,75,46.6,106.39,106.39,0,0,0,49.78,26c-1-.61-2-1.17-2.85-1.64L41,21.11V59.79L56.53,75.32a104.7,104.7,0,0,0-7.29,24.31l-.35,2L75,127.79l26.11-26.12-.35-2a104.7,104.7,0,0,0-7.29-24.31L109,59.79ZM75,59.25a96.67,96.67,0,0,1,8.85,14.37L75,82.47l-8.85-8.85A96.67,96.67,0,0,1,75,59.25ZM49,34.91a98.32,98.32,0,0,1,20.82,17.9,105.92,105.92,0,0,0-9.61,14.87l-.1-.09L49,56.47Zm26,81.56L57.49,99a97,97,0,0,1,5.15-17.54L75,93.79,87.36,81.42A97,97,0,0,1,92.51,99Zm26-60L89.89,67.59l-.1.09a105.92,105.92,0,0,0-9.61-14.87A98.4,98.4,0,0,1,101,34.91Z"/></svg>