<svg id="Symbols" xmlns="http://www.w3.org/2000/svg" viewBox="0 0 150 150"><title>semargl-bold</title><polygon points="119 100 119 35.03 79 65.87 79 54.67 79 46.67 79 43 79 35 79 32 71 32 71 35 37 35 37 43 71 43 71 46.67 47 46.67 47 54.67 71 54.67 71 72.03 56.3 83.37 56.3 65.17 48.3 65.17 48.3 89.53 39 96.7 39 48 31 48 31 112.97 74.27 79.61 74.27 79.61 74.27 79.61 84.37 92.7 66.17 92.7 66.17 100.7 90.53 100.7 97.7 110 49 110 49 118 113.97 118 80.61 74.73 93.7 64.63 93.7 82.83 101.7 82.83 101.7 58.47 111 51.3 111 100 119 100"/></svg>