<svg id="Symbols" xmlns="http://www.w3.org/2000/svg" viewBox="0 0 150 150"><defs><style>.cls-1{fill:#221f20;}</style></defs><title>ñandú-bold</title><path class="cls-1" d="M110,20a10,10,0,0,0-9.92,8.79c-1.64,3.18-4.61,12.33,7.09,24,.5.49.94,1,1.36,1.48C100.78,47.68,89.38,43.37,76.61,43,72.36,39.48,58.2,31,20,31v8c21.8,0,34.8,2.91,41.87,5.35l.18.07a53.17,53.17,0,0,0-7.71,2.34,58.42,58.42,0,0,0-34.52-.58l2.36,7.64a51.47,51.47,0,0,1,21.66-1.39A36.57,36.57,0,0,0,39.59,56,44,44,0,0,0,20,61.53l4,6.94a33.94,33.94,0,0,1,9.27-3.54A24.07,24.07,0,0,0,31,75c0,10.08,6.45,19.08,16.49,25-5,8.19-4.6,18,1.5,23.42A14.91,14.91,0,0,0,59,127l.5,0L66,130.62l2-3.49L64.16,125H68v-4H63.94l4-2.25-2-3.5L59.35,119a7.07,7.07,0,0,1-5.07-1.61c-3.26-2.88-2.93-8.91.51-14A57.32,57.32,0,0,0,75,107a59,59,0,0,0,14-1.68c-2.13,6.79-.85,13.81,4,18.05A14.91,14.91,0,0,0,103,127l.49,0,6.55,3.65,2-3.49L108.16,125H112v-4h-4.06l4-2.25-2-3.5L103.35,119a7.05,7.05,0,0,1-5.07-1.61c-3.66-3.22-2.81-10.42,1.88-15.74l.18-.19-.2-.2c11-5.62,18.4-14.82,18.83-25.27a25.4,25.4,0,0,0,2-8.76c.28-5.15-.92-12.8-8.16-20a23.81,23.81,0,0,1-5.4-7.52A9.9,9.9,0,0,0,110,40a10,10,0,0,0,9.16-6H130V26H119.16A10,10,0,0,0,110,20ZM75,99C55.15,99,39,88.23,39,75S55.15,51,75,51s36,10.77,36,24S94.85,99,75,99Zm35-67a2,2,0,1,1,2-2A2,2,0,0,1,110,32Z"/><path class="cls-1" d="M89,62H82V55H68v7H62v6H55V82h6v6h7v7H82V88h7V82h6V68H89Zm2,10v6H85v6H78v7H72V84H65V78H59V72h7V66h6V59h6v7h7v6h6Z"/><path class="cls-1" d="M70,80H80V70H70Zm4-6h2v2H74Z"/></svg>