<svg id="Symbols" xmlns="http://www.w3.org/2000/svg" viewBox="0 0 150 150"><defs><style>.cls-1{fill:#221f20;}</style></defs><title>trapelacucha-bold</title><path class="cls-1" d="M112.15,114l-.18-2.16c-.36-4.37-4.77-8.17-11.75-10.84H111V97H39v4H49.77c-7,2.67-11.38,6.47-11.73,10.84L37.86,114H43v2.29a7,7,0,1,0,7,11.6,7,7,0,0,0,10,0,7,7,0,0,0,10,0,7,7,0,0,0,10,0,7,7,0,0,0,10,0,7,7,0,0,0,10,0,7,7,0,1,0,7-11.6V114ZM75,101c13.44,0,28.54,3.6,32.18,9H42.83C46.45,104.6,61.55,101,75,101Zm18,15.29a7.07,7.07,0,0,0-3,1.82,7.07,7.07,0,0,0-3-1.82V114h6Zm-13,1.82a7.07,7.07,0,0,0-3-1.82V114h6v2.29A7.07,7.07,0,0,0,80,118.11Zm-10,0a7.07,7.07,0,0,0-3-1.82V114h6v2.29A7.07,7.07,0,0,0,70,118.11Zm-10,0a7.07,7.07,0,0,0-3-1.82V114h6v2.29A7.07,7.07,0,0,0,60,118.11ZM53,114v2.29a7.07,7.07,0,0,0-3,1.82,7.07,7.07,0,0,0-3-1.82V114Zm-8,12a3,3,0,1,1,3-3A3,3,0,0,1,45,126Zm10,0a3,3,0,1,1,3-3A3,3,0,0,1,55,126Zm10,0a3,3,0,1,1,3-3A3,3,0,0,1,65,126Zm10,0a3,3,0,1,1,3-3A3,3,0,0,1,75,126Zm10,0a3,3,0,1,1,3-3A3,3,0,0,1,85,126Zm10,0a3,3,0,1,1,3-3A3,3,0,0,1,95,126Zm13-3a3,3,0,1,1-3-3A3,3,0,0,1,108,123Zm-5-6.71a7.07,7.07,0,0,0-3,1.82,7.07,7.07,0,0,0-3-1.82V114h6Z"/><path class="cls-1" d="M60.07,28.65c-2.62.81-4-.56-5.87-2.92-1.15-1.42-2.34-2.89-4.16-2.89C39.8,22.84,39,40.57,39,46v2H58v1.93A5.49,5.49,0,0,0,57.85,60H54v4h4.12v5.75h4V64h4V60H62.4A5.49,5.49,0,0,0,62,49.84V48h5V45H83v3h5v1.93A5.49,5.49,0,0,0,87.85,60H84v4h4.12v5.75h4V64h4V60H92.4A5.49,5.49,0,0,0,92,49.84V48h19V46c0-5.43-.79-23.16-11-23.16-1.83,0-3,1.47-4.16,2.89-1.91,2.36-3.25,3.73-5.87,2.92-3.81-1.18-3.1-5.75-3-6.26l.39-2-2-.34A12,12,0,0,0,75,23.42,12,12,0,0,0,64.71,20l-2,.34.36,2C63.16,22.9,63.88,27.47,60.07,28.65ZM61.62,55a1.5,1.5,0,1,1-1.5-1.5A1.5,1.5,0,0,1,61.62,55Zm30,0a1.5,1.5,0,1,1-1.5-1.5A1.5,1.5,0,0,1,91.62,55ZM67.18,23.9a8.73,8.73,0,0,1,6.16,3.7L75,30.16l1.67-2.56a8.76,8.76,0,0,1,6.17-3.7c.06,3.1,1.34,7.15,5.92,8.57,5.4,1.67,8.39-2,10.17-4.23a12.5,12.5,0,0,1,1.24-1.4c4.37.24,6.5,8.45,6.78,17.16H87V41H63v3H43c.3-8.48,2.46-16.91,6.81-17.16a11.56,11.56,0,0,1,1.25,1.4c1.78,2.21,4.77,5.91,10.16,4.23C65.84,31.05,67.11,27,67.18,23.9Z"/><rect class="cls-1" x="39" y="84" width="13" height="4"/><rect class="cls-1" x="39" y="91" width="13" height="4"/><rect class="cls-1" x="39" y="76" width="13" height="4"/><rect class="cls-1" x="39" y="68" width="13" height="4"/><rect class="cls-1" x="39" y="60" width="13" height="4"/><rect class="cls-1" x="39" y="52" width="13" height="4"/><rect class="cls-1" x="98.93" y="84" width="12.07" height="4"/><rect class="cls-1" x="98.93" y="91" width="12.07" height="4"/><rect class="cls-1" x="98.93" y="76" width="12.07" height="4"/><rect class="cls-1" x="98.93" y="68" width="12.07" height="4"/><rect class="cls-1" x="98.93" y="60" width="12.07" height="4"/><rect class="cls-1" x="98.93" y="52" width="12.07" height="4"/><rect class="cls-1" x="68" y="84" width="14" height="4"/><rect class="cls-1" x="68" y="91" width="14" height="4"/><rect class="cls-1" x="68" y="76" width="14" height="4"/><rect class="cls-1" x="68" y="68" width="14" height="4"/><rect class="cls-1" x="68" y="60" width="14" height="4"/><rect class="cls-1" x="68" y="52" width="14" height="4"/><path class="cls-1" d="M50,32.26l-2,3.48c4.2,2.38,8.13,3.58,11.74,3.58a15.09,15.09,0,0,0,4.66-.72,15.73,15.73,0,0,0,8.91-7.77l-3.64-1.67a11.78,11.78,0,0,1-6.55,5.65C59.44,36,55,35.12,50,32.26Z"/><path class="cls-1" d="M85.59,38.6a15.09,15.09,0,0,0,4.66.72c3.61,0,7.54-1.2,11.74-3.58l-2-3.48c-5,2.86-9.45,3.72-13.14,2.55a11.78,11.78,0,0,1-6.55-5.65L78.5,30l-1.82.83A15.73,15.73,0,0,0,85.59,38.6Z"/></svg>