<svg id="Symbols" xmlns="http://www.w3.org/2000/svg" viewBox="0 0 150 150"><defs><style>.cls-1{fill:#221f20;}</style></defs><title>Bandera-de-Leftraru-bold</title><path class="cls-1" d="M35,100H50v15H65v15H85V115h15V100h15V85h15V65H115V50H100V35H85V20H65V35H50V50H35V65H20V85H35ZM28,77V73H43V58H58V43H73V28h4V43H92V58h15V73h15v4H107V92H92v15H77v15H73V107H58V92H43V77H28Z"/><path class="cls-1" d="M52.84,84H66V97.16l6.83-6.83L75,88.16l2.17,2.17L84,97.16V84H97.16l-6.83-6.83L88.16,75l2.17-2.17L97.16,66H84V52.84l-6.83,6.83L75,61.84l-2.17-2.17L66,52.84V66H52.84l6.83,6.83L61.84,75l-2.17,2.17ZM62.5,70H70V62.5l5,5,5-5V70h7.5l-5,5,5,5H80v7.5l-5-5-5,5V80H62.5l5-5Z"/></svg>