<svg id="Symbols" xmlns="http://www.w3.org/2000/svg" viewBox="0 0 150 150"><defs><style>.cls-1{fill:#221f20;}</style></defs><title>We tripantu-bold</title><path class="cls-1" d="M49.17,82H68v18.83A30,30,0,0,0,45,130h4a26,26,0,0,1,19-25v4.2A22.1,22.1,0,0,0,53,130h8a14.06,14.06,0,0,1,7-12.12V130h4V82h6v48h4V117.88A14.06,14.06,0,0,1,89,130h8a22.1,22.1,0,0,0-15-20.84V105a26,26,0,0,1,19,25h4a30,30,0,0,0-23-29.17V82h18.83A30,30,0,0,0,130,105v-4a26,26,0,0,1-25-19h4.2A22.1,22.1,0,0,0,130,97V89a14.06,14.06,0,0,1-12.12-7H130V78H82V72h48V68H117.88A14.06,14.06,0,0,1,130,61V53a22.1,22.1,0,0,0-20.84,15H105a26,26,0,0,1,25-19V45a30,30,0,0,0-29.17,23H82V49.17A30,30,0,0,0,105,20h-4A26,26,0,0,1,82,45v-4.2A22.1,22.1,0,0,0,97,20H89a14.06,14.06,0,0,1-7,12.12V20H78V68H72V20H68V32.12A14.06,14.06,0,0,1,61,20H53A22.1,22.1,0,0,0,68,40.84V45A26,26,0,0,1,49,20H45A30,30,0,0,0,68,49.17V68H49.17A30,30,0,0,0,20,45v4A26,26,0,0,1,45,68h-4.2A22.1,22.1,0,0,0,20,53v8a14.06,14.06,0,0,1,12.12,7H20v4H68v6H20v4H32.12A14.06,14.06,0,0,1,20,89v8A22.1,22.1,0,0,0,40.84,82H45a26,26,0,0,1-25,19v4A30,30,0,0,0,49.17,82ZM72,75V72h6v6H72Z"/><polygon class="cls-1" points="105.56 49.22 103.61 49.22 104.98 47.84 102.16 45.02 100.78 46.39 100.78 44.44 96.78 44.44 96.78 46.4 95.4 45.02 92.57 47.84 93.95 49.22 92 49.22 92 53.22 93.95 53.22 92.57 54.6 95.4 57.43 96.78 56.05 96.78 58 100.78 58 100.78 56.05 102.16 57.43 104.98 54.6 103.61 53.22 105.56 53.22 105.56 49.22"/><path class="cls-1" d="M104,103.2a5.88,5.88,0,0,0,1.94-.31,5,5,0,0,0,3.16-3.52l-3.85-1.09c-.19.67-.48.78-.61.83a3.23,3.23,0,0,1-1.68,0,8.51,8.51,0,0,0,.47-3.23,5.21,5.21,0,0,0-3.92-4.92l-1.1,3.85a1.15,1.15,0,0,1,.93.79,3.54,3.54,0,0,1,0,1.88A7.9,7.9,0,0,0,94,97a4.86,4.86,0,0,0-3.08,3.44l3.85,1.1c.17-.62.42-.71.55-.76a3.38,3.38,0,0,1,2,.16,7.65,7.65,0,0,0-.22,4.87,5,5,0,0,0,3.52,3.16l1.1-3.85c-.68-.19-.78-.48-.83-.62a3.4,3.4,0,0,1,.1-1.9A9.4,9.4,0,0,0,104,103.2Z"/><path class="cls-1" d="M43.78,47.18a4.81,4.81,0,0,0-3.09,3.44l3.85,1.1c.18-.63.42-.71.55-.76a3.42,3.42,0,0,1,2,.16A7.58,7.58,0,0,0,46.83,56a4.92,4.92,0,0,0,3.51,3.16l1.1-3.85c-.67-.19-.78-.48-.83-.62a3.45,3.45,0,0,1,.11-1.91,9.09,9.09,0,0,0,3.1.6,5.74,5.74,0,0,0,2-.32,4.91,4.91,0,0,0,3.15-3.51l-3.84-1.1c-.2.68-.48.78-.62.83a3,3,0,0,1-1.67-.05A8.66,8.66,0,0,0,53.26,46a5.22,5.22,0,0,0-3.93-4.92l-1.09,3.84a1.19,1.19,0,0,1,.93.8,3.55,3.55,0,0,1-.06,1.88A7.87,7.87,0,0,0,43.78,47.18Z"/><path class="cls-1" d="M45.29,95.32a6.69,6.69,0,0,0,9.47,9.45l-2.82-2.84a2.62,2.62,0,0,1-1.88.77,2.69,2.69,0,0,1-1.91-4.58Z"/></svg>