<svg id="Symbols" xmlns="http://www.w3.org/2000/svg" viewBox="0 0 150 150"><defs><style>.cls-1{fill:#221f20;}</style></defs><title>toad-sapo-bold</title><path class="cls-1" d="M57.72,35.25a9.65,9.65,0,0,0-7.43-15.08c-3.71-.17-7.2,1.84-9.58,5.56-14.34,22.5-.59,44.59,0,45.52L44,76.46l3.4-5.16C56.88,57,67.17,52.49,69.85,52.49h.43C62.73,59.32,49.53,72.28,49.53,79.4c0,5.83,7.58,17.3,15.21,24.17A54.79,54.79,0,0,1,50.2,92.24l-6.5-7.51-.52,9.92c0,.94-1,23,15,33.44A10.82,10.82,0,0,0,64,129.85a9.06,9.06,0,0,0,6.5-2.58c2.21-2.27,3.4-6.41.09-11.23L64,120.56a4,4,0,0,1,.61,1.2,2.59,2.59,0,0,1-2.12-.37c-6.16-4-9-10.75-10.29-16.4,5.75,4.49,14,9.32,22.77,9.32s17-4.83,22.76-9.32c-1.29,5.65-4.12,12.38-10.28,16.4a2.63,2.63,0,0,1-2.12.37,4,4,0,0,1,.61-1.2L79.37,116c-3.31,4.82-2.12,9,.09,11.23a9.06,9.06,0,0,0,6.5,2.58,10.77,10.77,0,0,0,5.88-1.76c16-10.41,15-32.5,15-33.44l-.51-9.92-6.5,7.51a52.45,52.45,0,0,1-14.45,11.25C93,96.61,100.47,85.2,100.47,79.4c0-7.12-13.2-20.08-20.75-26.91h.43c2.68,0,13,4.46,22.42,18.81L106,76.46l3.32-5.21c.6-.93,14.35-23,0-45.52-2.37-3.72-5.86-5.74-9.57-5.56a9.65,9.65,0,0,0-7.43,15.08l6.66-4.43a1.59,1.59,0,0,1-.21-1.7,1.71,1.71,0,0,1,1.38-1c.77,0,1.64.64,2.43,1.87,7.8,12.24,5.28,24.43,2.68,31.3a57.31,57.31,0,0,0-12.67-12L75,20.11,57.45,49.36a57.31,57.31,0,0,0-12.67,12c-2.61-6.87-5.12-19.06,2.68-31.3.79-1.23,1.64-1.92,2.43-1.87a1.71,1.71,0,0,1,1.38,1,1.59,1.59,0,0,1-.21,1.7ZM92.47,79.4c0,1.5-2.24,6.35-7.2,12.46-5.18,6.38-9.11,9-10.27,9.29-1.16-.3-5.1-2.91-10.27-9.29-5-6.11-7.2-11-7.2-12.42C57.77,76.75,65.65,67.61,75,59,84.35,67.61,92.23,76.75,92.47,79.4ZM69.7,44.49,75,35.66l5.3,8.83H69.7Z"/><polygon class="cls-1" points="73 66.01 73 78.43 61.6 78.43 61.6 82.43 73 82.43 73 94.86 77 94.86 77 82.43 88.39 82.43 88.39 78.43 77 78.43 77 66.01 73 66.01"/><polygon class="cls-1" points="85.3 78.37 85.3 74.25 81.18 74.25 81.18 70.13 77.06 70.13 77.06 78.37 81.18 78.37 85.3 78.37"/><polygon class="cls-1" points="72.94 78.37 72.94 70.13 68.82 70.13 68.82 74.25 64.69 74.25 64.69 78.37 68.82 78.37 72.94 78.37"/><polygon class="cls-1" points="77.06 82.49 77.06 90.74 81.18 90.74 81.18 86.62 85.3 86.62 85.3 82.49 81.18 82.49 77.06 82.49"/><polygon class="cls-1" points="64.69 82.49 64.69 86.62 68.82 86.62 68.82 90.74 72.94 90.74 72.94 82.49 68.82 82.49 64.69 82.49"/></svg>