<svg id="Symbols" xmlns="http://www.w3.org/2000/svg" viewBox="0 0 150 150"><defs><style>.cls-1{fill:#221f20;}</style></defs><title>Maunimin-01-bold</title><path class="cls-1" d="M75,20,35,75l40,55,40-55ZM44.89,75,75,33.6,105.11,75,75,116.4Z"/><polygon class="cls-1" points="69 61 73 61 73 65 77 65 77 61 81 61 81 57 85 57 85 53 81 53 81 49 77 49 77 45 73 45 73 49 69 49 69 53 65 53 65 57 69 57 69 61"/><polygon class="cls-1" points="95 73 95 69 91 69 91 65 87 65 87 69 83 69 83 73 79 73 79 77 83 77 83 81 87 81 87 85 91 85 91 81 95 81 95 77 99 77 99 73 95 73"/><polygon class="cls-1" points="67 77 71 77 71 73 67 73 67 69 63 69 63 65 59 65 59 69 55 69 55 73 51 73 51 77 55 77 55 81 59 81 59 85 63 85 63 81 67 81 67 77"/><polygon class="cls-1" points="81 89 77 89 77 85 73 85 73 89 69 89 69 93 65 93 65 97 69 97 69 101 73 101 73 105 77 105 77 101 81 101 81 97 85 97 85 93 81 93 81 89"/></svg>