<svg id="Symbols" xmlns="http://www.w3.org/2000/svg" viewBox="0 0 150 150"><defs><style>.cls-1{fill:#221f20;}</style></defs><title>Pillan-Bueno-bold</title><path class="cls-1" d="M38.3,56.92c4.41,3.8,11,4.59,15.7,4.59.69,0,1.34,0,1.93,0,2.18,8.24,6.2,17.18,9.62,24C58,82.6,48.81,80.9,43.43,86.27c-6.89,6.9-1.25,18.27,2.86,26.57,1.44,2.92,3.42,6.91,3.42,8.19H42.26c0,5.71,4,8.79,7.73,8.79s7.72-3.08,7.72-8.79c0-3.15-1.87-6.94-4.25-11.74-2.87-5.78-7.2-14.53-4.37-17.36,3.41-3.41,16,1.25,23.85,5.92h0a3.93,3.93,0,0,0,2,.57,4,4,0,0,0,2.06-.57h0c7.8-4.68,20.43-9.34,23.85-5.92,2.83,2.83-1.5,11.58-4.37,17.36-2.38,4.8-4.25,8.59-4.25,11.74a9.26,9.26,0,0,0,2.15,6.23,7.43,7.43,0,0,0,5.57,2.56c3.75,0,7.73-3.08,7.73-8.79h-7.45c0-1.28,2-5.27,3.42-8.19,4.11-8.3,9.75-19.67,2.86-26.56C101.19,80.9,92,82.6,84.45,85.43c3.42-6.79,7.44-15.73,9.62-24,.59,0,1.24,0,1.93,0,4.71,0,11.29-.79,15.7-4.59a13.25,13.25,0,0,0,4.55-10.39c0-5.4-1.89-8.71-3.48-10.53a10.9,10.9,0,0,0-8.18-3.85,8.88,8.88,0,0,0-9.11,9.06h8c0-.37,0-1.06,1.11-1.06a2.89,2.89,0,0,1,2.15,1.1c.69.79,1.51,2.35,1.51,5.28a5.22,5.22,0,0,1-1.77,4.33c-2.56,2.21-7.5,2.68-11.17,2.62a16.05,16.05,0,0,0-3.1-9.54,20.29,20.29,0,0,0-7.61-6.09,11.34,11.34,0,0,0,1.85-6.22,11.45,11.45,0,1,0-22.9,0,11.34,11.34,0,0,0,1.85,6.22,20.29,20.29,0,0,0-7.61,6.09,16.05,16.05,0,0,0-3.1,9.54c-3.67.06-8.61-.41-11.17-2.62a5.22,5.22,0,0,1-1.77-4.33c0-2.93.82-4.49,1.51-5.28a2.89,2.89,0,0,1,2.15-1.1c1.11,0,1.11.69,1.11,1.06h8a8.88,8.88,0,0,0-9.11-9.06A10.9,10.9,0,0,0,37.23,36c-1.59,1.82-3.48,5.13-3.48,10.53A13.25,13.25,0,0,0,38.3,56.92ZM75,28.18a3.45,3.45,0,1,1-3.45,3.45A3.45,3.45,0,0,1,75,28.18ZM64.23,48.69c2.63-3.63,8.28-5.18,10.77-5.58,2.49.4,8.14,2,10.77,5.58,1.49,2,1.9,4.56,1.27,7.7-2,10-8.12,22.53-12,29.85-3.92-7.32-10-19.82-12-29.85C62.33,53.25,62.74,50.73,64.23,48.69Z"/></svg>