<svg id="Symbols" xmlns="http://www.w3.org/2000/svg" viewBox="0 0 150 150"><defs><style>.cls-1{fill:#221f20;}</style></defs><title>Wangulen-bold</title><path class="cls-1" d="M116.56,78.92,113.15,75l3.41-3.91,11.61-13.27h-17.6l2.33-4.08,6.84-12H99.41l1.09-2.18L106.29,28H43.71L49.5,39.61l1.09,2.18H30.26l6.84,12,2.33,4.08H21.83L33.44,71.11,36.85,75l-3.41,3.9L21.83,92.19h17.6L37.1,96.27l-6.84,12H50.59l-1.09,2.18L43.71,122h62.58l-5.79-11.58-1.09-2.18h20.33l-6.84-12-2.33-4.08h17.6Zm-6,5.27H96.79l9.17,16H86.47L93.35,114H56.65l6.88-13.76H44l9.17-16H39.46l8-9.17-8-9.18H53.21L44,49.79H63.53L56.65,36h36.7L86.47,49.79H106L96.79,65.84h13.75l-8,9.18Z"/><path class="cls-1" d="M49.31,75,75,111.21,100.69,75,75,38.79ZM75,104.29,54.21,75,75,45.71,95.79,75Z"/><path class="cls-1" d="M59,75,75,98,91,75,75,52ZM75,91,63.87,75,75,59,86.13,75Z"/><polygon class="cls-1" points="75 19.86 72.12 24.19 75 28.03 77.88 24.19 75 19.86"/><polygon class="cls-1" points="75 130.17 77.88 126.32 75 122 72.12 126.32 75 130.17"/></svg>