<svg id="Symbols" xmlns="http://www.w3.org/2000/svg" viewBox="0 0 150 150"><defs><style>.cls-1{fill:#221f20;}</style></defs><title>Cruz-simétrica-bold</title><path class="cls-1" d="M75,129.83,90,130V115h10V105h10V95h10V85h10V65H120V55H110V45H100V35H90V20l-15,.17L60,20V35H50V45H40V55H30V65H20V85H30V95H40v10H50v10H60v15ZM58,107V97H48V87H38V77H28V73H38V63H48V53H58V43H68V28.09l6.91.08h.18L82,28.09V43H92V53h10V63h10V73h10v4H112V87H102V97H92v10H82v14.91l-6.91-.08h-.18l-6.91.08V107H58Z"/><rect class="cls-1" x="71" y="60" width="8" height="10"/><rect class="cls-1" x="80" y="71" width="10" height="8"/><rect class="cls-1" x="71" y="80" width="8" height="10"/><rect class="cls-1" x="60" y="71" width="10" height="8"/></svg>