<svg id="Symbols" xmlns="http://www.w3.org/2000/svg" viewBox="0 0 150 150"><defs><style>.cls-1{fill:#221f20;}</style></defs><title>Külpuwe-Ñimin-bold</title><path class="cls-1" d="M39,45.32l7.08-7.07-2.83-2.83L39,39.66l-2.82-2.83,6.36-6.36L51.06,39l-9.2,9.2,8.49,8.48,7.07-7.07-2.83-2.83L50.35,51l-2.83-2.82,6.36-6.37,8.49,8.49-9.19,9.19,8.48,8.48,7.07-7.07L65.9,58l-4.24,4.25-2.83-2.83L65.2,53.1l8.48,8.48-9.79,9.79L74.5,82,85.7,70.77l-9.19-9.19L85,53.1l6.36,6.36-2.83,2.83L84.29,58l-2.83,2.83,7.07,7.07L97,59.46l-9.19-9.19,8.48-8.49,6.36,6.37L99.85,51,95.6,46.73l-2.83,2.83,7.08,7.07,8.48-8.48L99.14,39l8.48-8.48L114,36.83l-2.83,2.83-4.24-4.24-2.83,2.83,7.07,7.07,8.49-8.49-9.2-9.19,2.22-2.23-2.82-2.82L75.1,57.34,40.34,22.59l-2.82,2.82,2.22,2.23-9.19,9.19Zm35.47,31-5-4.95,5.55-5.55,5,5Z"/><polygon class="cls-1" points="77.92 36.13 90.65 36.12 84.29 29.76 77.92 36.13"/><polygon class="cls-1" points="68.73 45.32 81.46 45.32 75.1 38.95 68.73 45.32"/><polygon class="cls-1" points="93.48 20.57 87.12 26.93 99.85 26.93 93.48 20.57"/><polygon class="cls-1" points="49.64 27.64 62.37 27.64 56.01 21.27 49.64 27.64"/><polygon class="cls-1" points="58.83 36.83 71.56 36.83 65.2 30.47 58.83 36.83"/><polygon class="cls-1" points="84.29 77.84 77.92 84.21 90.65 84.21 84.29 77.84"/><polygon class="cls-1" points="111.16 50.97 104.8 57.34 117.52 57.34 111.16 50.97"/><polygon class="cls-1" points="120.35 41.78 113.99 48.15 126.72 48.15 120.35 41.78"/><polygon class="cls-1" points="75.1 87.04 68.73 93.4 81.46 93.4 75.1 87.04"/><polygon class="cls-1" points="93.48 68.65 87.12 75.02 99.85 75.02 93.48 68.65"/><polygon class="cls-1" points="101.26 60.87 94.9 67.24 107.62 67.24 101.26 60.87"/><polygon class="cls-1" points="96.31 113.91 109.04 113.91 102.67 107.54 96.31 113.91"/><polygon class="cls-1" points="87.12 123.1 99.85 123.1 93.48 116.73 87.12 123.1"/><polygon class="cls-1" points="105.5 104.71 118.23 104.71 111.87 98.35 105.5 104.71"/><polygon class="cls-1" points="119.64 90.57 113.28 96.94 126.01 96.94 119.64 90.57"/><polygon class="cls-1" points="36.91 109.66 49.64 109.66 43.28 103.3 36.91 109.66"/><polygon class="cls-1" points="52.47 112.49 46.1 118.86 58.83 118.86 52.47 112.49"/><polygon class="cls-1" points="27.72 100.47 40.45 100.47 34.09 94.11 27.72 100.47"/><polygon class="cls-1" points="56.01 69.36 49.64 75.72 62.37 75.72 56.01 69.36"/><polygon class="cls-1" points="22.77 48.85 35.5 48.85 29.14 42.49 22.77 48.85"/><polygon class="cls-1" points="65.2 78.55 58.83 84.92 71.56 84.92 65.2 78.55"/><polygon class="cls-1" points="46.81 60.17 40.45 66.53 53.18 66.53 46.81 60.17"/><polygon class="cls-1" points="39.03 52.39 32.67 58.75 45.4 58.75 39.03 52.39"/><polygon class="cls-1" points="75 29.17 68.41 22.59 65.59 25.41 75 34.83 84.41 25.41 81.59 22.59 75 29.17"/><path class="cls-1" d="M125.9,60.27l-2.83-2.82L75,105.53,30.44,61l-2.83,2.83.71.71-9.19,9.19,8.48,8.49,7.07-7.08L31.85,72.3l-4.24,4.24-2.83-2.83,6.37-6.36,8.48,8.48L30.44,85l8.49,8.49L46,86.44l-2.83-2.83-4.24,4.24L36.1,85l6.36-6.36L51,87.15l-9.2,9.19,8.49,8.48,7.07-7.07-2.83-2.83-4.24,4.25-2.83-2.83L53.78,90l8.48,8.49-9.19,9.19,8.48,8.49,7.07-7.07-2.82-2.83-4.25,4.24-2.83-2.83,6.37-6.36,8.48,8.48L64.16,119,75,129.83,85.85,119l-9.45-9.21,8.49-8.48,6.36,6.36-2.83,2.83-4.24-4.24-2.83,2.83,7.07,7.07,8.49-8.49-9.19-9.19L96.2,90l6.36,6.37-2.82,2.83-4.25-4.25-2.82,2.83,7.07,7.07,8.48-8.48L99,87.15l8.48-8.49L113.88,85l-2.83,2.83-4.24-4.24L104,86.44l7.07,7.07L119.54,85l-9.2-9.19,7.89-7.89,6.36,6.37-2.82,2.83-4.25-4.25-2.83,2.83,7.08,7.07,8.48-8.48-9.19-9.19ZM75,124.17,69.84,119,75,114l5.16,5Z"/></svg>