<svg id="Symbols" xmlns="http://www.w3.org/2000/svg" viewBox="0 0 150 150"><defs><style>.cls-1{fill:#221f20;}</style></defs><title>Kultrun-bold</title><path class="cls-1" d="M25.72,104.24a14.16,14.16,0,0,1,17.64-1.92l-9.47,9.47,5.66,5.66,9.06-9.07a14.2,14.2,0,0,1-2.85,15.91l5.65,5.65a22.18,22.18,0,0,0,3.09-27.45L75.67,81.33,96,101.68a22.14,22.14,0,0,0,2.57,28.26l5.65-5.65a14.18,14.18,0,0,1-2.42-16.81l10,10,5.66-5.66-10-10a14.16,14.16,0,0,1,16.8,2.42l5.66-5.65A22.14,22.14,0,0,0,101.68,96L81.33,75.67l21.16-21.16a22.13,22.13,0,0,0,27.45-3.1l-5.66-5.65a14.13,14.13,0,0,1-15.9,2.86l9.07-9.07-5.66-5.66-9.47,9.47a14.17,14.17,0,0,1,1.92-17.65l-5.65-5.65a22.11,22.11,0,0,0-2,29L75.67,70,54,48.32a22.19,22.19,0,0,0-2.56-28.26l-5.65,5.65a14.2,14.2,0,0,1,2.41,16.81l-8.62-8.63-5.66,5.66,8.63,8.63a14.16,14.16,0,0,1-16.8-2.42l-5.66,5.65A22.14,22.14,0,0,0,48.32,54L70,75.67,49.09,96.59a22.11,22.11,0,0,0-29,2Z"/><path class="cls-1" d="M109.43,77.61a7.59,7.59,0,0,0,3.32,3.64,4.81,4.81,0,0,0,2.09.48,5.32,5.32,0,0,0,2.65-.74l-1.94-3.49c-.63.34-.91.21-1,.15a3.5,3.5,0,0,1-1.31-1.46,7.84,7.84,0,0,0,3.82-3.4,5,5,0,0,0-.26-4.75L113.26,70c.35.63.21.91.15,1a3.18,3.18,0,0,1-1.25,1.18,8.56,8.56,0,0,0-2-2.65,5.25,5.25,0,0,0-6.29-.71l1.94,3.49a1.21,1.21,0,0,1,1.26-.09,3.71,3.71,0,0,1,1.32,1.4,8,8,0,0,0-4.12,3.51,4.86,4.86,0,0,0,.25,4.64l3.5-1.94c-.32-.58-.21-.82-.15-1A3.5,3.5,0,0,1,109.43,77.61Z"/><path class="cls-1" d="M32.87,77.44a4.86,4.86,0,0,0,.25,4.64l3.5-2c-.32-.58-.21-.82-.15-.95A3.53,3.53,0,0,1,38,77.88a7.66,7.66,0,0,0,3.33,3.64,4.81,4.81,0,0,0,2.09.48,5.43,5.43,0,0,0,2.65-.73l-1.94-3.5c-.63.35-.92.22-1.05.15a3.44,3.44,0,0,1-1.31-1.46,7.81,7.81,0,0,0,3.82-3.41,5,5,0,0,0-.26-4.74l-3.49,2c.34.62.21.91.15,1a3.18,3.18,0,0,1-1.25,1.18,8.68,8.68,0,0,0-2-2.65,5.26,5.26,0,0,0-6.29-.71l1.94,3.5a1.2,1.2,0,0,1,1.25-.1A3.62,3.62,0,0,1,37,73.93,7.91,7.91,0,0,0,32.87,77.44Z"/><path class="cls-1" d="M76.11,36.84A7.75,7.75,0,0,0,72.7,33a5,5,0,0,0-4.74.25l2,3.5c.62-.35.91-.22,1-.15a3.17,3.17,0,0,1,1.17,1.25,8.82,8.82,0,0,0-2.65,2,5.28,5.28,0,0,0-.71,6.3l3.5-1.95a1.18,1.18,0,0,1-.1-1.25,3.6,3.6,0,0,1,1.41-1.32,8,8,0,0,0,3.5,4.12,4.8,4.8,0,0,0,2,.47,5.27,5.27,0,0,0,2.61-.73l-2-3.49c-.58.32-.82.21-1,.15a3.57,3.57,0,0,1-1.3-1.54,7.69,7.69,0,0,0,3.64-3.32,4.94,4.94,0,0,0-.26-4.75l-3.49,2c.35.63.22.91.15,1A3.42,3.42,0,0,1,76.11,36.84Z"/><path class="cls-1" d="M73.85,113.05a8,8,0,0,0,3.51,4.12,4.76,4.76,0,0,0,2,.47,5.26,5.26,0,0,0,2.6-.73l-1.94-3.49c-.58.32-.83.21-1,.15A3.57,3.57,0,0,1,77.8,112a7.59,7.59,0,0,0,3.64-3.32,4.92,4.92,0,0,0-.25-4.74l-3.5,1.94c.35.63.22.91.16,1a3.45,3.45,0,0,1-1.47,1.3,7.86,7.86,0,0,0-3.4-3.81,5,5,0,0,0-4.75.26l2,3.49c.63-.35.91-.22,1-.15a3.17,3.17,0,0,1,1.17,1.25,8.64,8.64,0,0,0-2.64,2,5.23,5.23,0,0,0-.71,6.29l3.49-1.95a1.19,1.19,0,0,1-.09-1.25A3.64,3.64,0,0,1,73.85,113.05Z"/></svg>