<svg id="Symbols" xmlns="http://www.w3.org/2000/svg" viewBox="0 0 150 150"><defs><style>.cls-1{fill:#221f20;}</style></defs><title>Anümka-bold</title><path class="cls-1" d="M75,130l40-55L75,20,35,75Zm30.11-55L75,116.4,44.89,75,75,33.6Z"/><polygon class="cls-1" points="67 75 75 85 83 75 75 65 67 75"/><path class="cls-1" d="M57,65h.11L49.84,75,67.27,99,75,110,87.13,92.92l5.64-7.76L93.62,84l6.54-9L92.89,65H93l-3.66-4.89-4.7-6.45L75,40,65.36,53.66l-4.7,6.46ZM95.21,75H86l4.41,6.61,0,0-.86,1.17L88.67,84H80l4.54,5.68-.64.89-1.72,2.35H67.82l-2.28-3.14L70.16,84H61.33l-1.65-2.27L64.16,75H54.79l7.27-10H70l-4.34-5,2.21-3H82.13l2.21,3L80,65h7.94Z"/></svg>