<svg id="Symbols" xmlns="http://www.w3.org/2000/svg" viewBox="0 0 150 150"><defs><style>.cls-1{fill:#221f20;}</style></defs><title>hawk-bold</title><path class="cls-1" d="M120.33,60c-11-9.52-29.53-10-39.36-9.54a98,98,0,0,1,4.7-9.86,13.95,13.95,0,0,0,18.06,6.15,34.43,34.43,0,0,0,10.17,2,7.9,7.9,0,0,0,3.94-.81,2.86,2.86,0,0,0,1.49-2.33c.33-5.77-3.88-10.84-7.57-14.15A14,14,0,0,0,93.62,20.71h0l-.13.05a14,14,0,0,0-5.61,3.6c-5.51,5-9.95,13.21-12.88,19.75-2.93-6.54-7.37-14.79-12.88-19.75a14,14,0,0,0-5.61-3.6l-.13-.05h0A14,14,0,0,0,38.24,31.46c-3.69,3.31-7.9,8.38-7.57,14.15a2.86,2.86,0,0,0,1.49,2.33,7.9,7.9,0,0,0,3.94.81,34.43,34.43,0,0,0,10.17-2,13.95,13.95,0,0,0,18.06-6.15A98,98,0,0,1,69,50.47c-9.84-.5-28.41,0-39.36,9.54C23.92,65,21,71.74,21,80c0,17.22,0,28.6,1.31,36,1,5.6,3.41,13,12.69,13,4.12,0,10.55-3.17,27-26.71,2-2.94,4-5.88,5.89-8.67-2.32,8.15-5.85,17.09-10.61,21.42L56,116.23V130h8v-8H86v8h8V116.23L92.69,115c-4.76-4.33-8.29-13.27-10.61-21.42,1.84,2.79,3.84,5.73,5.89,8.67C104.45,125.83,110.88,129,115,129c9.28,0,11.69-7.45,12.69-13C129,108.6,129,97.22,129,80,129,71.74,126.08,65,120.33,60Zm-5-15.35c-1.12.23-3.73.12-7.4-.81a14.09,14.09,0,0,0,3.72-6.8C113.64,39.33,115.22,42,115.34,44.66ZM104,34a6,6,0,1,1-10.34-4.13,9.77,9.77,0,0,1,2.63-1.62A6,6,0,0,1,104,34ZM34.66,44.66c.12-2.67,1.7-5.33,3.68-7.61a14.09,14.09,0,0,0,3.72,6.8C38.39,44.78,35.78,44.89,34.66,44.66ZM52,40a6,6,0,1,1,1.71-11.75,9.77,9.77,0,0,1,2.63,1.62A6,6,0,0,1,52,40ZM75,97.92A73.71,73.71,0,0,0,81.81,114H68.19A73.71,73.71,0,0,0,75,97.92Zm44.81,16.63c-1.15,6.45-2.93,6.45-4.72,6.46-.5-.09-5.36-1.48-21-24-8.37-12-15.57-24-15.64-24.11L75,67.23l-3.43,5.71c-.07.12-7.27,12.1-15.64,24.11C40.27,119.53,35.41,120.92,35,121c-4.56,0-6-1.87-6-41,0-5.92,1.93-10.48,5.91-13.94C47.23,55.33,74.18,58.92,74.45,59L75,59l.55-.08a88.92,88.92,0,0,1,15.38-.48c7.53.43,17.84,2.08,24.15,7.57,4,3.46,5.92,8,5.92,14C121,96.8,121,107.9,119.81,114.55Z"/><polygon class="cls-1" points="104 68 96 68 96 74 90 74 90 82 96 82 96 88 104 88 104 82 110 82 110 74 104 74 104 68"/><polygon class="cls-1" points="54 68 46 68 46 74 40 74 40 82 46 82 46 88 54 88 54 82 60 82 60 74 54 74 54 68"/></svg>