<svg id="Symbols" xmlns="http://www.w3.org/2000/svg" viewBox="0 0 150 150"><defs><style>.cls-1{fill:#221f20;}</style></defs><title>Nge-Nge-01-bold</title><polygon class="cls-1" points="73 63 77 63 77 60 80 60 80 56 77 56 77 53 73 53 73 56 70 56 70 60 73 60 73 63"/><polygon class="cls-1" points="77 87 73 87 73 90 70 90 70 94 73 94 73 97 77 97 77 94 80 94 80 90 77 90 77 87"/><path class="cls-1" d="M62,83.2,68.56,75,62,66.8,55.44,75ZM63.44,75,62,76.8,60.56,75,62,73.2Z"/><path class="cls-1" d="M88,83.2,94.56,75,88,66.8,81.44,75ZM89.44,75,88,76.8,86.56,75,88,73.2Z"/><polygon class="cls-1" points="82 66 75 66 68 66 75 74 82 66"/><polygon class="cls-1" points="68 84 75 84 82 84 75 76 68 84"/><path class="cls-1" d="M75,116.21l34.17-40.76L74.94,33.62,41.22,76.32Zm0-69.83,23.75,29L75,103.79,51.55,76.14Z"/><path class="cls-1" d="M75,129.19,118.57,75,75,20.81,31.43,75ZM113.43,75,75,122.81,36.57,75,75,27.19Z"/></svg>