<svg id="Symbols" xmlns="http://www.w3.org/2000/svg" viewBox="0 0 150 150"><defs><style>.cls-1{fill:#221f20;}</style></defs><title>Lukutuwe-bold</title><path class="cls-1" d="M40.84,59.49,34.11,66H71v4L57.84,93H49V85H60V73H52v4H49V73H45v4H42V73H34V85H45V97H60.16L71,78v4L59.62,103H45v12H37v15h4v-7h4v7h8v-7h4v7h4V115H53v-4H64.38L75.13,91.16,86.7,111H98v4H90v15h4v-7h4v7h8v-7h4v7h4V115h-8V103H91.3L79,81.92V77.44L90.87,97H106V85h11V73h-8v4h-3V73h-4v4H99V73H91V85h11v8H93.13L79,69.73V66h36.89l-6.73-6.51,4.5-4.49H121V47H110.34l-6.93,6.93L98,48.67,102.66,44H112V36H99.34l-7.11,7.11-5.94-5.75L90.66,33H98V25H87.34l-6.8,6.8L79,30.3V21H71v9.3l-1.54,1.5L62.66,25H52v8h7.34l4.37,4.36-5.94,5.75L50.66,36H38v8h9.34L52,48.67l-5.43,5.26L39.66,47H29v8h7.34ZM79,58H53.89L75,37.57,96.11,58Z"/><polygon class="cls-1" points="75 98 68 112 82 112 75 98"/></svg>