<svg id="Symbols" xmlns="http://www.w3.org/2000/svg" viewBox="0 0 150 150"><defs><style>.cls-1{fill:#221f20;}</style></defs><title>Llalin-bold</title><path class="cls-1" d="M99.65,87.63l-1.07-1.39,9.57-11.63L98.58,63l1.07-1.39,8.69,10,6-5.23L99.29,48.93l-5.93,7.7-13.18-16,1.57-1.91,9.74,11.86,6.18-5.08L81.76,26.11,75,34.32l-6.76-8.21L52.33,45.49l6.18,5.08,9.74-11.86,1.57,1.91-13.18,16-5.93-7.7L35.61,66.4l6,5.23,8.69-10L51.42,63,41.85,74.61l9.67,11.75-1.17,1.51L41.66,77.82l-6,5.23,15.1,17.46,6-7.82L69.82,108.6l-1.57,1.9L58.51,98.64l-6.18,5.08L68.24,123.1,75,114.89l6.76,8.21,15.91-19.38-6.18-5.08L81.75,110.5l-1.57-1.91,13.18-16,5.93,7.7,15.1-17.46-6-5.24Zm-47.44-13L75,46.91l22.79,27.7L75,102.3Z"/><path class="cls-1" d="M74.45,56,59.13,74.61l15.2,18.46L89.65,74.48Zm-5,18.6,5-6,4.84,5.88-5,6Z"/><polygon class="cls-1" points="79.12 25.15 75 20 70.88 25.15 75 30.3 79.12 25.15"/><polygon class="cls-1" points="70.88 124.85 75 130 79.12 124.85 75 119.7 70.88 124.85"/></svg>