<svg id="Symbols" xmlns="http://www.w3.org/2000/svg" viewBox="0 0 150 150"><defs><style>.cls-1{fill:#221f20;}</style></defs><title>Pichikemenküe-con-Anumka-bold</title><rect class="cls-1" x="80.8" y="24.5" width="11.4" height="8" transform="translate(10.9 79.28) rotate(-52.13)"/><rect class="cls-1" x="82.5" y="36.8" width="8" height="11.4" transform="translate(-7.87 62.06) rotate(-37.87)"/><rect class="cls-1" x="59.5" y="22.8" width="8" height="11.4" transform="translate(-4.12 44.99) rotate(-37.87)"/><rect class="cls-1" x="57.8" y="38.5" width="11.4" height="8" transform="translate(-9.03 66.53) rotate(-52.13)"/><polygon class="cls-1" points="75 23.93 70.52 18.7 67.48 21.3 75 30.07 82.52 21.3 79.48 18.7 75 23.93"/><rect class="cls-1" x="82.5" y="115.8" width="8" height="11.4" transform="translate(-56.37 78.7) rotate(-37.87)"/><rect class="cls-1" x="80.8" y="103.5" width="11.4" height="8" transform="translate(-51.46 109.78) rotate(-52.13)"/><rect class="cls-1" x="57.8" y="117.5" width="11.4" height="8" transform="translate(-71.39 97.03) rotate(-52.13)"/><rect class="cls-1" x="59.5" y="101.8" width="8" height="11.4" transform="translate(-52.62 61.63) rotate(-37.87)"/><polygon class="cls-1" points="75 126.07 79.48 131.3 82.52 128.7 75 119.93 67.48 128.7 70.52 131.3 75 126.07"/><path class="cls-1" d="M56.83,84.57h0L61,90.37h0l4.14,5.79h0l0,0L75,110l9.86-13.8,0,0h0L89,90.38h0l4.13-5.78h0L100,75l-6.83-9.57h0L89,59.63h0l-4.14-5.78h0l0,0L75,40,65.14,53.8l0,0h0L61,59.63h0l-4.13,5.78h0L50,75Zm3-9.57,2-2.85L64,75l-2.14,2.85Zm4.48,6.27,2.2-2.94,1.75,2.33-2.25,3ZM77.5,75l1.74-2.33L81,75l-1.75,2.33Zm-.76,5.66L75,83l-1.74-2.33L75,78.33Zm-1.74-9-1.74-2.33L75,67l1.74,2.33ZM72.5,75l-1.74,2.33L69,75l1.75-2.33Zm-4,12.07L70.76,84l1.74,2.33-2.35,3.13Zm4.14,5.79L75,89.65l2.41,3.21L75,96.24Zm4.91-6.54L79.24,84l2.31,3.08-1.7,2.38Zm4.24-5.66,1.75-2.33,2.2,2.94L84,83.65ZM90.17,75l-2,2.85L86,75l2.14-2.85Zm-4.48-6.27-2.2,2.94-1.75-2.33,2.25-3Zm-4.14-5.8L79.24,66,77.5,63.68l2.35-3.13Zm-4.14-5.79L75,60.35l-2.41-3.21L75,53.76ZM72.5,63.68,70.76,66l-2.31-3.08,1.7-2.38Zm-4.24,5.66-1.75,2.33-2.2-2.94L66,66.35Z"/></svg>