<?xml version="1.0" encoding="UTF-8"?>
<svg id="icons" xmlns="http://www.w3.org/2000/svg" viewBox="0 0 120 120">
  <path d="m57.96,112h6.44c6.05,0,11.84-1.88,16.74-5.43.61-.44,1.41-1.04,2.17-1.74,6.7-6.16,10.54-14.91,10.54-24.01v-36.83c0-2.31-1.88-4.19-4.19-4.19-3.34,0-6.37,1.3-8.65,3.4l.14-18.8c0-5.81-4.88-9.41-9.41-9.41-1.54,0-2.97.43-4.2,1.17-.02-4.51-3.69-8.16-8.2-8.16s-8.2,3.68-8.2,8.2v1.76c-1.27-.81-2.78-1.29-4.4-1.29-4.52,0-8.2,3.68-8.2,8.2v6.56c-1.23-.74-2.66-1.17-4.2-1.17-4.52,0-8.2,3.68-8.2,8.2v41.73c0,17.54,14.27,31.82,31.81,31.82Zm1.39-100c2.32,0,4.2,1.88,4.2,4.2v39c-2.79-.12-5.6-.03-8.4.29V16.2c0-2.32,1.88-4.2,4.2-4.2Zm-16.8,12.87c0-2.32,1.88-4.2,4.2-4.2s4.2,1.88,4.2,4.2c0,.31.07.59.2.85v30.37c-2.89.54-5.77,1.32-8.6,2.32V24.87Zm-12.4,33.14v-19.56c0-2.32,1.88-4.2,4.2-4.2s4.2,1.88,4.2,4.2v21.53c-1.68.74-3.35,1.55-4.98,2.45-.97.53-1.32,1.75-.79,2.72.36.66,1.05,1.04,1.75,1.04.33,0,.66-.08.96-.25,11.57-6.37,24.54-8.35,36.5-5.57,1.08.25,2.15-.42,2.4-1.5.25-1.08-.42-2.15-1.5-2.4-1.76-.41-3.55-.71-5.35-.93V23.19c0-2.32,1.88-4.2,4.2-4.2,2.18,0,5.41,1.72,5.41,5.4l-.21,26.91c-.04.43-.07.87-.07,1.31l.04,2.49-.04,4.89c0,.24.05.47.12.68l.12,8.09c-13.88,1.06-25.64,12.79-25.64,26.09,0,1.1.9,2,2,2s2-.9,2-2c0-11.81,11.06-22.17,23.67-22.17,0,0,0,0,.01,0,0,0,0,0,.02,0,.07,0,.13-.02.2-.02.06,0,.13,0,.19-.02.07-.01.13-.04.2-.06.06-.02.12-.03.18-.06.06-.03.12-.06.18-.1.05-.03.11-.06.16-.09.05-.04.1-.08.15-.12.05-.04.1-.08.15-.12.04-.05.08-.1.12-.15.04-.05.09-.1.12-.15.04-.05.06-.11.09-.17.03-.06.07-.11.09-.17.03-.06.04-.13.06-.19.02-.06.04-.12.05-.18.01-.07.02-.14.02-.22,0-.06.02-.11.02-.17,0,0,0,0,0-.01,0,0,0-.01,0-.02l-.23-15.56.03-3.52c.51-4.36,4.22-7.76,8.72-7.76.11,0,.19.09.19.19v36.83c0,7.99-3.37,15.67-9.25,21.07-.61.56-1.29,1.07-1.81,1.45-4.21,3.05-9.19,4.67-14.39,4.67h-6.44c-15.34,0-27.81-12.48-27.81-27.82v-22.17Z"/>
</svg>