<?xml version="1.0" encoding="UTF-8"?>
<svg id="icons" xmlns="http://www.w3.org/2000/svg" viewBox="0 0 120 120">
  <path d="m72.02,39.08c-.46-.01-.88-.2-1.2-.54-.28-.3-.76-.32-1.06-.03-.3.28-.32.76-.03,1.06.59.63,1.39.99,2.25,1.01.03,0,.06,0,.09,0,.83,0,1.61-.31,2.21-.89.3-.29.31-.76.03-1.06-.29-.3-.76-.31-1.06-.03-.33.32-.78.48-1.22.47Z"/>
  <path d="m71.85,36.71c-.28-.3-.76-.32-1.06-.03-.3.28-.32.76-.03,1.06.33.35.77.55,1.25.56.02,0,.03,0,.05,0,.46,0,.9-.17,1.23-.49.3-.29.31-.76.03-1.06-.29-.3-.76-.31-1.06-.03-.08.07-.17.08-.21.08-.04,0-.13-.02-.2-.09Z"/>
  <path d="m72.03,32.98c.27,0,.49-.4.49-.89s-.22-.89-.49-.89-.49.4-.49.89.22.89.49.89Z"/>
  <path d="m71.91,26.26c1.03,0,1.84-1.01,1.84-2.31v-.07c-.03-1.25-.84-2.24-1.84-2.24-.94,0-1.71.87-1.81,2.03-.02.11-.02.2-.02.27,0,1.3.8,2.31,1.83,2.31Zm0-3.11c.06,0,.32.25.34.8,0,.51-.25.81-.34.81-.06,0-.32-.26-.33-.83,0-.03,0-.06.01-.09.03-.47.26-.69.32-.69Z"/>
  <path d="m41.91,34.62c.1,0,.19,0,.29-.01,1.03-.08,2.01-.59,2.7-1.41,1.38-1.63,1.31-3.99-.17-5.25-.67-.58-1.55-.86-2.46-.78-1.03.08-2.03.6-2.74,1.44-1.4,1.65-1.33,3.94.15,5.21.62.53,1.4.81,2.23.81Zm-1.23-5.05c.45-.53,1.07-.86,1.71-.91.05,0,.11,0,.16,0,.46,0,.88.15,1.21.43.85.73.86,2.15,0,3.15-.43.51-1.05.83-1.68.88-.53.05-1.04-.11-1.42-.44-.85-.73-.84-2.09.02-3.1Z"/>
  <path d="m90.92,91.4c-.23-.46-.71-.73-1.22-.67-.51.05-.93.4-1.07.9-.18.67-1.28,3.99-4.78,3.1-2.35-.6-2.31-2.42-2-6.16.31-3.8.68-8.51-2.55-13.2-.41-3.15-1.29-6.43-2.19-9.35,2.2,0,4.76-.15,7.64-.45,1.23-.13,2.34-.73,3.11-1.71.78-.98,1.12-2.21.95-3.46-.35-2.67-.9-5.1-1.62-7.25.65-1.25,2.98-6.24,1.5-11.13-.84-2.79-2.78-5.01-5.75-6.63.67-2.4,1.06-5.75.1-6.44-.29-.21-.66-.23-1.01-.01.54-3.47.5-5.41-.12-5.76-.31-.18-.7-.13-.99.12-.25.22-.55.58-.85.98.02-2.84-.41-3.05-.74-3.21-.33-.16-.7-.1-.99.16-.12.11-.29.29-.54.67l-.37-.39c.11-.34.19-.69.19-1.04,0-1.56-1.05-2.95-2.76-3.69.41-.5.84-1.24.84-1.85,0-.79-.41-1.55-1.13-2.07-.11-.08-.24-.13-.37-.19.12-.3.28-.76.28-1,0-1.06-.99-1.89-2.26-1.89s-2.27.83-2.27,1.89c0,.28.08.45.18.64.02.03.04.07.06.1l.15.21c-.24.1-.46.22-.65.39-.61.52-.95,1.2-.95,1.93,0,.52.53,1.48.77,1.88-1.66.75-2.68,2.12-2.68,3.66,0,.31.05.62.13.92l-.64.57c-.21-.33-.39-.57-.56-.73-.28-.25-.66-.32-.99-.17-.3.14-.77.35-.9,2.99-.23-.29-.46-.56-.68-.75-.29-.25-.67-.3-.98-.13-.42.23-.88.48-.18,5.73-.01,0-.02,0-.03-.01-.3-.16-.65-.14-.92.05-.99.71-.09,4.51.4,6.3-2.18.66-8.11,3.18-9.43,11.06-.63-.18-1.22-.48-1.74-.88l-9.71-7.38c-.29-.22-.7-.2-.97.05-.02.02-.36.34-.85.87-.15-.74-.38-1.48-.7-2.22l.43-.42c.89.58,1.94.91,3.05.91.16,0,.31,0,.47-.02,1.74-.14,3.43-1.02,4.62-2.43,2.33-2.74,2.22-6.7-.24-8.82-1.11-.95-2.56-1.42-4.09-1.3-1.74.14-3.43,1.02-4.62,2.43-1.83,2.16-2.15,5.06-1.01,7.23-1.13-1.52-2.46-2.6-3.37-2.61h0c-.43,0-.8.22-.98.59-.52,1.02.36,2.07,1.21,3.07.03.04.07.08.1.12-.24-.04-.49-.06-.73-.06-.99-1.14-1.81-1.63-2.45-1.43-.38.11-.66.38-.77.75-.17.54.08,1.22.7,2.1-.13.2-.24.39-.33.59-1.29.28-2.06.77-2.27,1.48-.14.49.02,1.01.41,1.36.37.33.87.44,1.24.29.52-.17,1.6-.29,1.85-.14.06.05.18.18.39.46l-1.07,1.05c-.3.29-.3.77,0,1.06.15.15.34.22.54.22s.38-.07.53-.21l.69-.68c.04.81.33,1.61.86,2.24.41.49.94.87,1.54,1.1-.39,1.42-.41,2.76-.03,3.95.06.19.19.35.37.44l12.02,6.19c1.47.76,3.01.95,4.93.6.62,2.9,2.75,4.49,4.67,5.89,2.29,1.67,4.09,2.99,3.31,6.11-.96,2.39-1.68,4.53-2.16,6.47-3.15,3.6-3.27,8.29-3.36,12.07-.1,4.22-.28,6.64-2.75,7.38-1.23.37-2.25.3-3.04-.2-1.28-.81-1.67-2.5-1.78-3.2-.07-.46-.43-.82-.89-.89-.46-.08-.9.15-1.11.56-.95,1.84-2.78,6.43.68,9.37,1.81,1.54,3.7,2.01,5.32,2.01,1.25,0,2.35-.28,3.12-.55.55-.2,1.07-.45,1.57-.73-.82,1.2-1.83,2.42-3.09,3.69,0,0,0,.01-.02.02-.01.01-.02.03-.03.05-.04.05-.08.11-.1.17-.01.03-.02.05-.03.08-.02.07-.03.14-.03.22,0,.01,0,.03,0,.04,0,0,0,0,0,.01,0,.08.02.15.05.23,0,0,0,.01.01.02.01.02.02.04.04.06.03.05.07.1.11.15.02.02.04.04.06.06.05.04.1.07.15.1.02.01.04.02.07.03.08.03.16.05.24.05l10.32.2c-.07.22-.24.4-.46.48l-3.67,1.34c-.54.27-.98.69-1.29,1.2-.22.36-.22.82-.01,1.19.21.37.6.6,1.02.6h6.51c.9,0,1.68-.54,2.05-1.31.33.77,1.09,1.31,1.97,1.31h6.9c.37,0,.71-.2.9-.52.18-.32.18-.72-.01-1.04l-.26-.43c-.23-.38-.55-.68-1.02-.91l-4.18-1.51c-.1-.03-.16-.12-.17-.22l7.57.14s.01,0,.02,0c.09.04.19.05.28.05s.17-.02.26-.05l2.68.05h.01c.3,0,.57-.18.69-.46.12-.28.06-.61-.16-.82-1.54-1.55-2.68-3.09-3.52-4.62.38.23.78.45,1.21.64,1.2.51,2.46.76,3.71.76,1.89,0,3.78-.57,5.49-1.7,2.63-1.73,2.99-5.03.98-9.04Zm-3.6-30.81c.11.84-.12,1.67-.64,2.33-.52.65-1.26,1.06-2.08,1.15-3.28.34-6.15.48-8.49.43,0,0,0,0,0,0,0,0,0,0,0,0h-3.3l.08-5.13.87-2.35c.18-.37.39-.72.61-1.06l2.56.99s0,0,0,0l4.45,1.71c.09.03.18.05.27.05.23,0,.46-.11.6-.3.2-.27.2-.64,0-.91l-3.14-4.09c-.15-.2-.39-.31-.64-.29-.25.02-.48.16-.6.37,0,0-.44.76-1.01,1.81l-2.32-.89s-.09-.1-.14-.14c.71-2.31,1.08-4.46.34-6.26.16-.12.31-.24.45-.36.07-.06.14-.12.21-.18.28-.25.55-.5.78-.76.04-.04.07-.08.1-.12.2-.24.38-.48.54-.72.04-.06.08-.11.11-.17.17-.27.31-.54.42-.82,0-.02.02-.04.03-.06,1.56.99,4.37,3.01,4.76,3.87-.66.65-.76,1.33-.72,1.8.13,1.69,2.2,3.06,2.44,3.21.01,0,.03.01.05.02.03.02.06.02.08.03.07.03.14.05.22.05.02,0,.03.01.05.01.02,0,.03,0,.05,0,.04,0,.07,0,.11-.02.04,0,.09-.02.13-.04.04-.01.07-.03.1-.05.02-.01.04-.02.06-.03.02-.01.02-.03.04-.05.02-.02.04-.03.06-.05.02-.02.03-.05.05-.08.02-.03.05-.06.06-.1.02-.05.04-.1.05-.15,0-.04.02-.07.02-.11,0-.06,0-.12,0-.17,0-.03,0-.06-.01-.1-.02-.09-.06-.18-.12-.25-.05-.07-.09-.13-.11-.2,0-.02-.01-.03-.02-.05-.02-.07-.03-.13-.02-.2,0,0,0-.02,0-.03.01-.07.03-.14.07-.22,0-.02.01-.03.02-.05.05-.09.11-.19.19-.31,0,0,0-.01.01-.02.24.55.47,1.14.69,1.78.74,2.13,1.3,4.57,1.65,7.28,0,0,0,0,0,0Zm-24.05,30.19c1.01,2.24-.02,3.66-1.1,5.15-.98,1.34-2.08,2.86-1.18,4.82.31.68.16,1.08.01,1.32-.73,1.21-3.54,1.97-5.97,2.31,2.13-2.42,3.47-4.72,4.25-6.94.09-.21.15-.42.2-.63,1.42-4.65.52-8.98-.44-13.46l-.16-.74c-.64-3.03.21-7.38,2.6-13.29.67-1.66,1.36-3.19,1.91-4.42.35-.78.65-1.44.87-1.98.08-.11.13-.23.15-.37.21-.56.29-.87.29-1.11,0-.15-.01-.35-.09-.68.16.57.32,1.12.49,1.66.83,2.75,1.49,4.92.4,6.88-3.3,5.96-2.68,8.82-.38,12.01.75,1.05.24,2.03-.75,3.69-.94,1.58-2.1,3.54-1.09,5.77Zm-5.09-35.32c1.69.24,3.17,1.33,3.89,2.92.43.93.69,1.58.85,2.04-.43-.29-.91-.56-1.41-.83-1.73-.94-3.35-1.85-3.34-4.13Zm4.23-12.53c-.85.42-1.65.8-2.39,1.16l-.14.07h0c-.99.52-2.72,2.18-2.24,4.79.09.49-.06.73-.18.88-.15.18-.38.32-.63.42.03-.1.03-.19.04-.29.01-.08.03-.15.03-.23,0-.12-.01-.25-.03-.37,0-.07,0-.14-.02-.21-.03-.14-.09-.29-.14-.43-.02-.06-.03-.11-.06-.17-.09-.2-.21-.41-.35-.61-.2-.3-.31-.61-.31-.92,0-1.47,2.2-3.27,5.91-4.87.02.02.05.04.07.06.07.08.16.16.24.23.04.04.09.08.13.11.12.08.24.15.37.21.02,0,.04.03.06.03l-.37.13Zm1.63-4.37s.06-.01.09-.01c.13-.01.26,0,.38.05,0,0,.01,0,.02,0,.42.18.65.7.61,1.27-.01.19-.06.39-.14.58h0c-.18.45-.5.79-.88.95-.18.07-.45.14-.73.02-.22-.09-.39-.26-.5-.51-.17-.38-.16-.88.03-1.34.15-.37.4-.67.73-.86.13-.08.27-.12.4-.15Zm15.94.34c.08.05.15.12.22.19.01.01.03.02.04.04.16.16.29.36.37.57.17.43.19.88.05,1.25-.06.17-.21.47-.53.6-.14.06-.28.07-.4.06-.13-.01-.24-.05-.33-.08-.38-.16-.71-.51-.89-.95-.31-.76-.09-1.61.48-1.85.1-.04.2-.06.31-.06.09,0,.19.02.28.04.03,0,.06.02.09.03.07.02.13.06.19.09.03.02.07.04.1.06Zm3.85,11.66s-.05.07-.08.11c-.13.19-.24.38-.34.59-.01.02-.03.04-.04.06-.27-.32-.47-.66-.49-.96-.01-.15.01-.39.36-.69.31-.27.45-.65.4-1.06-.23-1.98-5.94-5.35-6.36-5.6,0,0,0,0,0,0-.01,0-.03-.02-.03-.02,0,0-.02,0-.03-.01-.02,0-.04-.02-.06-.03l-.45-.2c-.08-.04-.15-.07-.22-.11-.02-.02-.05-.04-.08-.06-.57-.37-.8-.69-.87-1.14.02-.01.04-.03.06-.04.16-.11.31-.22.45-.34,0,0,.01-.01.02-.02.14-.11.27-.24.39-.36.05-.05.09-.1.13-.14.08-.09.16-.18.24-.28.02-.02.04-.04.05-.06,0,.08.03.16.04.23.01.06.02.12.03.18.04.18.09.36.16.53.33.81.96,1.46,1.7,1.77.16.07.32.12.48.15.05.01.1,0,.15.02.11.02.22.03.33.04.38,1.39,1.6,2.13,2.7,2.79.66.4,1.35.81,1.86,1.36.19.19.34.4.47.61.34.57.26,1-.3,1.77-.1.14-.21.28-.32.41-.12.15-.25.32-.38.5Zm-14.85-6.39c-.05-.03-.11-.04-.16-.06-.03-.04-.06-.08-.1-.11-.58-.42-.91-.96-1-1.59.33-.26.61-.57.82-.94.04.02.08.04.11.06.15.09.3.17.46.25.05.02.09.05.14.07.2.09.4.16.61.23.05.01.09.02.14.04.17.05.35.09.53.11.06.01.12.02.19.03.23.03.45.05.69.05h1.23c.2,0,.4-.01.6-.04.06,0,.13-.02.19-.03.13-.02.26-.04.39-.07.07-.02.14-.04.21-.06.04-.01.07-.02.11-.03.18.6.53,1.03.92,1.36-.34.55-.91.89-1.38,1.07-1.45.56-3.42.41-4.7-.35Zm-2.44-3.68c.01-.05.02-.1.03-.15.03-.14.04-.27.05-.41,0-.04,0-.08,0-.12,0-.15,0-.3-.02-.45,0,.01.02.03.03.04.1.19.21.38.33.56.02.04.05.07.08.1.1.14.21.27.32.4-.15.39-.42.72-.79.92-.06.04-.14.06-.21.09l-.28.1c.12-.18.22-.37.3-.57.07-.17.12-.34.16-.52Zm9.96-9.27v2.8c-.19,0-.39.06-.54.21-.33.32-.77.47-1.22.47-.46-.01-.88-.2-1.2-.54-.28-.3-.76-.32-1.06-.03s-.32.76-.03,1.06c.59.63,1.39.99,2.25,1.01.03,0,.06,0,.09,0,.62,0,1.21-.17,1.72-.5v1.2c0,1.88-1.33,3.46-3.09,3.82-.25.05-.51.08-.78.08h-1.23c-.27,0-.53-.03-.78-.08-1.77-.36-3.1-1.94-3.1-3.82v-1.45c.55.46,1.23.73,1.95.75.03,0,.06,0,.09,0,.83,0,1.61-.31,2.21-.89.3-.29.31-.76.03-1.06-.29-.3-.76-.31-1.06-.03-.33.32-.77.48-1.22.47-.46-.01-.88-.2-1.2-.54-.21-.22-.52-.29-.8-.19v-3.52c0-.26.22-.48.48-.48h7.24c.69,0,1.26.56,1.26,1.26Zm6.76,13.4c-1.15-.69-1.86-1.17-2.05-1.99.14-.1.26-.22.37-.35,1.88,1.36,2.52,2.39,2.71,3-.35-.24-.7-.46-1.04-.66Zm-4.8-7.29s-.03,0-.05.02c-.16.07-.32.15-.46.25,0-.02,0-.04,0-.06.02-.21.04-.42.04-.63v-5.74c0-1.49-1.21-2.7-2.7-2.7h-7.3c-1.09,0-1.98.89-1.98,1.98v6.46c0,.2.01.39.03.58,0,.07.02.14.03.2.02.12.03.24.06.35,0,.02,0,.03,0,.05-.02-.03-.05-.05-.07-.08-.09-.12-.19-.24-.31-.34-.05-.04-.09-.09-.14-.13-.03-.02-.05-.05-.08-.07l.04-6.8c0-1.44,1.16-2.61,2.59-2.61h6.98c1.82,0,3.3,1.49,3.3,3.32v5.94Zm-10.63,7.89c.07.05.15.09.23.11.04.04.08.09.14.13.99.59,2.27.9,3.53.9.86,0,1.72-.14,2.48-.44.45-.18.84-.41,1.18-.68-.05.07-.11.14-.16.21-.05.07-.1.14-.16.2-.08.09-.16.17-.25.26-.05.06-.11.12-.16.17-.1.09-.2.18-.3.27-.05.04-.09.08-.14.12-.12.1-.24.2-.36.29-.03.02-.05.04-.08.06-.13.1-.26.19-.39.28,0,0-.01,0-.02,0-.02,0-.02.02-.04.03-1.06.72-2.14,1.22-2.7,1.45l-3.04-2.91c-.43-.59-.71-1.16-.87-1.71.28.47.64.89,1.12,1.24Zm-2.31,10.5c.02-.13.08-.21.12-.25,0,0,0,0,0,0,.87-1.03,4.82-.98,6.87-.4-.13.39-.27.78-.41,1.17-2.01.6-4.24.05-5.61-.29-.4-.1-.72-.18-.98-.22Zm4.29-5.82s.07.06.1.08l.17.11c.2.13.45.17.68.08.06-.02,1.27-.47,2.66-1.3.4,1.3.11,2.96-.44,4.76-1.98-.56-5.63-.8-7.6.2.24-1.83.93-3.8,2.34-5.93l2.09,1.99Zm.34,8.11c.45,0,.91-.03,1.37-.1-.09.27-.19.55-.28.82-1.44.35-3.11-.36-4.24-1.13.9.21,1.99.41,3.15.41Zm8.08-2.16c.12-.23.24-.44.34-.62l.83,1.07-1.17-.45Zm9.01-13.42c1,3.3-.02,6.77-.81,8.71-.15-.34-.3-.67-.45-.98.42-.65.9-1.74.13-3.04-.1-.17-.21-.33-.34-.49.1-.31.17-.74.09-1.28-.23-1.44-1.47-2.94-3.65-4.46.08-.57.01-1.18-.22-1.75-.09-.22-.21-.43-.34-.62.29-.53.55-1.1.78-1.71,2.48,1.41,4.1,3.3,4.81,5.62Zm-10.56-19.58l.41.43c-.11.24-.22.47-.32.7-.14-.24-.29-.49-.45-.76.13-.12.25-.24.36-.36Zm-4.43-11.62c.47,0,.76.25.77.3-.02.08-.09.3-.16.48h-1.05l-.31-.45c.07-.14.34-.33.75-.33Zm-1.56,2.87c.16-.14.39-.22.63-.22h1.03s1.06.04,1.06.04c.11,0,.22.03.3.09.19.14.52.44.52.86,0,.16-.23.57-.48.88h-3.05c-.18-.34-.39-.77-.42-.88,0-.37.26-.65.42-.79Zm-.4,3.97h3.92c1.2.5,1.93,1.39,1.93,2.36,0,.3-.07.6-.23.9-.1.2-.23.39-.39.57-.26-.42-.5-.79-.73-1.12,0,0-.01-.02-.02-.03-.11-.16-.22-.32-.32-.46,0,0,0,0,0,0-.64-.9-1.12-1.42-1.49-1.71,0,0,0,0,0,0-.05-.04-.11-.08-.16-.11-.02-.01-.04-.02-.06-.03-.03-.02-.06-.04-.09-.05-.03-.01-.05-.03-.08-.04-.02,0-.04-.02-.05-.02-.03-.01-.06-.02-.09-.03-.01,0-.02,0-.03,0-.03,0-.07-.02-.1-.02,0,0,0,0-.01,0-.03,0-.07,0-.1,0,0,0,0,0,0,0-.04,0-.07,0-.1,0-.04,0-.07,0-.11,0-.02,0-.05,0-.07,0-.02,0-.03,0-.05,0-.03,0-.06.01-.09.02-.01,0-.02,0-.03,0-.03,0-.07.02-.1.04-.01,0-.02,0-.03.01-.04.02-.08.04-.12.06-.01,0-.02.01-.03.02-.04.02-.08.05-.13.08,0,0-.02.01-.03.02-.05.03-.09.07-.14.11-.01,0-.02.02-.03.03-.05.04-.1.08-.15.13-.01.01-.03.03-.04.04-.05.05-.1.1-.16.16-.02.02-.04.04-.06.06-.05.06-.11.11-.16.18-.03.03-.05.06-.08.09-.05.06-.1.12-.16.19-.04.05-.09.11-.14.17-.04.05-.08.1-.12.15-.28.37-.6.82-.96,1.37-.01.02-.03.04-.04.06-.09.13-.17.26-.26.4-.27-.38-.42-.8-.42-1.22,0-.96.75-1.87,1.93-2.36Zm-2.33,4.91c-.21.35-.41.69-.58.99-.09-.22-.21-.45-.31-.68l.65-.57c.07.09.16.18.25.27Zm-5.47,7.67c.21.2.52.26.8.14.32-.13.5-.46.45-.8-.22-1.48-.42-3.15-.5-4.34.28.43.55.87.73,1.19.17.3.52.44.85.35.33-.09.56-.39.55-.74-.02-1.04.01-2.21.08-3.08l.02.04c.55,1.11,1.08,2.52,1.08,2.53.1.28.36.47.65.49.31.02.57-.13.71-.39,0-.01.74-1.35,1.63-2.8,1.62-2.64,2.31-3.3,2.53-3.46.22.16.95.85,2.63,3.64.84,1.39,1.51,2.62,1.52,2.63.14.26.41.41.71.39.29-.02.55-.21.65-.48,0-.01.47-1.25.98-2.32.01.95-.02,2.2-.1,3.31-.02.35.2.67.53.77.33.1.69-.04.87-.35.25-.44.62-1.05.99-1.61-.16,1.72-.53,4.23-.67,4.98-.06.33.11.65.42.8.3.15.67.07.9-.18.06-.07.31-.29.6-.55.02,1.02-.16,2.79-.78,4.7-.22.71-.49,1.37-.79,1.97-.02-.01-.05-.02-.07-.03-.12-.06-.24-.11-.37-.15-.04-.01-.07-.03-.11-.04,0,0-.01,0-.02,0v-5.87c0-2.66-2.15-4.82-4.8-4.82h-6.98c-2.26,0-4.09,1.84-4.09,4.11l-.04,6.37c-.08,0-.15.02-.23.03-.05,0-.1,0-.15.02-.17-.48-.34-1-.51-1.56-.67-2.24-.96-4.07-1.01-5.01.15.06.27.12.33.15Zm-.54,5.97c.13.41.27.8.4,1.17-.36.33-.65.73-.83,1.19-.24.58-.3,1.19-.21,1.77-4.03,1.74-6.33,3.66-6.74,5.62-.33.06-.66.09-1,.08,1.21-7.19,6.53-9.32,8.38-9.84Zm-27.11.81s.04.02.04.02c.08.04.16.06.25.07l-.17.16c-.03-.09-.06-.18-.12-.26Zm2.14.39c.2.54.34,1.07.43,1.6-.08-.12-.17-.23-.31-.29-.03-.01-.45-.2-1.02-.43l.9-.88Zm1.91-9.8c.94-1.11,2.25-1.8,3.6-1.91.12,0,.24-.01.35-.01.99,0,1.92.33,2.64.95,1.84,1.58,1.88,4.59.08,6.71-.94,1.11-2.25,1.8-3.6,1.91-1.13.09-2.19-.24-3-.94-1.84-1.58-1.88-4.59-.08-6.71Zm-1.47,7.27h0s0,0,0-.01c0,0,0,0,0,.01Zm-1.12,1.1l-.28.27c.01-.76-.62-1.51-1.29-2.3-.15-.18-.36-.42-.54-.66.62.53,1.43,1.46,2.11,2.68Zm-2.4,5.73c0-.37-.08-.73-.23-1.06l.09-.09c.54.32,1.1.67,1.39,1.05.15.19.37.29.6.29.16,0,.32-.05.46-.16.33-.25.39-.72.14-1.05-.4-.51-.97-.91-1.55-1.26.87.3,1.67.66,1.68.67.1.05.21.07.31.07.29,0,.56-.16.68-.44.01-.03.01-.06.02-.09.01.15.03.3.03.44-.24.32-.48.64-.69.95-.02.02-.03.04-.04.07-.23.33-.43.66-.63.99-.07.11-.13.23-.19.34-.13.24-.26.48-.37.71-.06.12-.12.25-.17.37-.04.09-.09.19-.13.28-.33-.14-.63-.35-.86-.63-.34-.41-.53-.93-.53-1.45Zm13.96,12.75l-11.73-6.04c-.25-1.03-.14-2.2.32-3.49.35-.98.89-2.01,1.62-3.07.24-.35.5-.71.79-1.07.55-.69,1.05-1.25,1.4-1.61l9.18,6.99c.92.7,2.01,1.16,3.14,1.32,0,0,0,0,0,0,0,0,.01,0,.02,0,.03,0,.06,0,.09,0,0,0,0,0,.01,0,.65.09,1.29.09,1.93,0,0,0,0,0,0,0,.03.11.08.21.13.32.02.04.03.08.05.12.07.14.15.29.25.42.3.44.4.8.31,1.09-.13.41-.63.69-.81.76-.09.03-.17.09-.24.15-.02.02-.04.05-.06.07-.04.05-.08.09-.1.14-.02.03-.03.07-.04.1-.02.05-.03.1-.04.16,0,.04,0,.08,0,.12,0,.03,0,.06,0,.09,0,.03.02.05.03.08,0,.02,0,.04.01.06,0,.02.02.03.03.05.03.05.06.1.09.15.02.03.04.05.06.08.05.04.1.08.15.11.02.01.04.03.07.04.07.03.15.05.23.05.01,0,.02,0,.04,0,0,0,0,0,0,0,.27,0,2.67.03,3.8-1.29.49-.57.66-1.3.51-2.12-.4-2.15,1.44-3.18,1.45-3.18l.11-.06c.74-.36,1.54-.74,2.32-1.13l2.1-.76c.11,1.01.56,2.05,1.33,3.1.03.04.05.07.09.1l.12.12c-3.74,5.51-3.09,10.08-2.04,13.88-.14-.55-.45-1.45-1.16-2.98-1.06-2.34-3.39-3.84-5.97-3.84-.76,0-1.51.13-2.23.4-1.14.42-1.98.69-2.73.88-1.93.47-3.32.38-4.66-.31Zm9.79,6.61c-1.86-1.36-3.61-2.66-4.1-5.02.63-.18,1.34-.42,2.21-.74.29-.11.59-.18.9-.24-.02,3.17,2.36,4.47,4.14,5.43.93.5,1.75.95,2.04,1.5-.21.51-.5,1.14-.83,1.88-.18.4-.38.84-.58,1.3-.67-1.83-2.29-3.02-3.79-4.11Zm-4.03,38.94c-1.47.52-4.33,1.06-6.97-1.18-2.1-1.78-1.62-4.47-.84-6.41.33,1,.96,2.22,2.16,2.98,1.17.74,2.61.86,4.27.37,3.63-1.09,3.73-4.83,3.82-8.78.06-2.66.14-5.57,1.2-8.18-.11,1.38-.07,2.62.16,3.72l.16.74c.94,4.43,1.8,8.48.45,12.8-.01.04-.03.09-.04.13-.04.12-.1.25-.14.38-.57,1.23-2.13,2.71-4.23,3.46Zm11.92,9.15h-5.81c.06-.04.11-.08.17-.11l3.59-1.31c.8-.29,1.36-1.02,1.47-1.86l1.36.03v2.47c0,.43-.35.78-.77.78Zm5.83-1.51l4.1,1.48s.04.02.05.03h-5.96c-.35,0-.64-.29-.64-.65v-2.54l1.28.02c.01.74.48,1.41,1.18,1.66Zm-3.2-3.2s0,0,0,0c0,0,0,0,0,0l-3.71-.07s-.06-.02-.09-.03c-.08,0-.15,0-.23.02l-4.32-.08c1.07-.46,2-1.06,2.48-1.87.34-.57.63-1.5.06-2.72-.51-1.1.03-1.93,1.03-3.3,1.17-1.61,2.63-3.62,1.26-6.65-.69-1.52.14-2.91,1.02-4.39.96-1.61,2.04-3.44.67-5.33-1.98-2.75-2.45-5.11.48-10.41,1.39-2.52.58-5.2-.27-8.04-.35-1.15-.7-2.34-.95-3.59,1.26,1.02,3.24,2.04,5.19,1.92-.71,2.55-.98,5.03.11,7.2,2.9,5.75,3.21,6.74,1.55,9.07-1.18,1.66-.12,3.44.81,5.01,1.2,2.02,1.56,2.92.37,3.78-2.1,1.51-1.23,3.53-.54,5.16.88,2.06,1.33,3.39-.5,4.82-1.55,1.22-1.72,2.57-1.59,3.5.34,2.37,2.95,4.65,5.34,6.16l-8.17-.16Zm11.43.22c-2.5-1.08-6.77-3.99-7.12-6.43-.11-.79.22-1.48,1.03-2.11,2.83-2.22,1.74-4.75.95-6.59-.79-1.84-.99-2.61.03-3.35,2.42-1.75,1.04-4.07.04-5.76-.93-1.56-1.45-2.57-.88-3.38,2.2-3.09,1.52-4.75-1.44-10.61-.14-.28-.25-.57-.33-.87.04,0,.09.03.13.03h3.52c1.11,3.52,3.27,10.73,2.22,15.72-.13.63-.27,1.26-.42,1.89-.92,4.12-1.91,8.58-.9,13.19,0,0,0,0,0,0,0,.01,0,.03.01.04.6,2.71,1.9,5.48,4.31,8.26l-1.17-.02Zm9.52-5.9c-2.42,1.59-5.26,1.89-7.79.81-1.73-.74-3.05-2.05-3.37-3.32-1.02-4.34-.08-8.58.85-12.74.14-.64.29-1.28.42-1.91.2-.96.29-1.99.31-3.06,1.32,3.36,1.05,6.69.83,9.48-.28,3.5-.55,6.8,3.13,7.73,3.24.82,5.46-1.08,6.38-3.49.87,1.97,1.62,4.94-.75,6.5Z"/>
</svg>