<svg id="Symbols" xmlns="http://www.w3.org/2000/svg" viewBox="0 0 150 150"><defs><style>.cls-1{fill:#231f20;}</style></defs><title>airavarta-bold</title><g id="airavarta_bold"><path class="cls-1" d="M108.61,72.58a.48.48,0,0,1-.42,0h0c-6.63-3.62-9.11-5-16.06-4.57-7.7.46-14.15,4.23-19.59,7.73l-1.12.72A37.69,37.69,0,0,0,77.3,84.2l.4-.06c2.41-.39,4.9-.79,6.43.38a3.52,3.52,0,0,1,1.26,2.54l-1,.1a2.49,2.49,0,0,0-.87-1.84c-1.13-.87-3.33-.57-5.35-.24,1.38,1.34,2.36,2.11,2.37,2.12l.34.27-.22.37a3.83,3.83,0,0,1-3.14,1.81h-.46l-.13-.12c-.47-.43-.93-.86-1.36-1.29a5.94,5.94,0,0,1-2.3.42H73l-1.1-1.16A4.67,4.67,0,0,1,70,87.9h0c.47,2.38,1.28,2.73,6.41,3.66l.26,0,.1.24c.49,1.08,1,1.16,2,1.31a6.74,6.74,0,0,1,4.06,1.91l.35.33c2.39,2.24,5.12,4.79,8.92,4.41a10,10,0,0,0,3.27-.94l.42.9a11.41,11.41,0,0,1-2.2.79c8.4,4.44,15.31,5.13,20.55,2,7.11-4.19,10.83-15.33,10.78-32.22C120.18,69.57,114.15,70.39,108.61,72.58ZM88.49,78.3a5.57,5.57,0,0,1-2.23.52A4,4,0,0,1,84,78.1L83.8,78s-.5-.18-2.12.31l-1.16.36.53-1.06a5.17,5.17,0,0,1,5-2.53,3.18,3.18,0,0,1,2.73,2.68l.08.39Zm25.82,17.57c-.22,4.54-2.59,5.36-3.6,5.49a2.81,2.81,0,0,1-.5,0,5.54,5.54,0,0,1-4.87-4c-1-2.88-5-3.35-8.87-3.8-.84-.09-1.67-.19-2.44-.31a3.52,3.52,0,0,1-2.58-1.72c-2.14-3.56,0-11.74,2.19-18l.94.33c-3,8.53-3.78,14.61-2.27,17.12a2.53,2.53,0,0,0,1.88,1.26c.75.11,1.56.2,2.39.3,4,.46,8.56,1,9.71,4.47.68,2.07,2.55,3.51,4.28,3.27s2.61-1.87,2.74-4.54c.34-7.26-.85-11.36-5.57-19.1l.86-.52C113.38,84.06,114.66,88.47,114.31,95.87Z"/><path class="cls-1" d="M68.05,77.07c-1.94-1.21-3.52-5.25-4.11-7h0l-.08-.21a22.84,22.84,0,0,0,1.81,7.74C67,80.56,69,83,72.35,86.53l1.06,1.11a6,6,0,0,0,1.4-.2A28.31,28.31,0,0,1,68.05,77.07Z"/><path class="cls-1" d="M76.76,85.09a38.73,38.73,0,0,1-6.45-8.57,24.9,24.9,0,0,1-1.94-4.59v0q-.24-.8-.42-1.59c0,.24,0,.49,0,.74a18.89,18.89,0,0,0,1,5.52A27.85,27.85,0,0,0,76,87.24c.47.46,1,.93,1.48,1.41a2.77,2.77,0,0,0,2.07-1C79,87.24,78,86.35,76.76,85.09Z"/><path class="cls-1" d="M71.64,75.11c-.78-1.91-.93-5.93-.49-9.42a24,24,0,0,0-1.79,6,24.52,24.52,0,0,0,1.58,3.82Z"/><path class="cls-1" d="M67,71.2l-.25-.82a13.71,13.71,0,0,1-.81-4.23,18.73,18.73,0,0,0-1,3.74,20.14,20.14,0,0,0,2.57,5.25A19.17,19.17,0,0,1,67,71.2Z"/><path class="cls-1" d="M63.9,75.72A28.64,28.64,0,0,1,62.8,69c-.17-.33-.33-.62-.48-.89a10.28,10.28,0,0,1-1-2.12,19.65,19.65,0,0,0-.12,3.56A24.56,24.56,0,0,0,63.9,75.72Z"/><path class="cls-1" d="M64.83,78.18c-1.68-1-3.23-4.3-4.24-7.4a18.51,18.51,0,0,0,1.73,7.36c1.19,2.39,3.16,4.46,5.87,7.28l.16.15,1.25,1.3a3.52,3.52,0,0,0,1.55-.17C68.09,83.44,66.13,81,64.83,78.18Z"/><path class="cls-1" d="M45.07,65.23h0c-.25-.36-.49-.71-.72-1.06l-1.51-2.27c-.74-1.14-1.38-2.1-2-3l-2.61,1c.78,1.46,1.49,2.74,2.18,3.92.45.76.9,1.51,1.34,2.22.22.37.45.72.67,1.07v0c7.7,12,15.7,18,24.36,18.3a30.4,30.4,0,0,1-5.26-6.62C53.79,76.71,48.87,70.78,45.07,65.23Z"/><path class="cls-1" d="M41.43,58c.55.77,1.09,1.58,1.7,2.49a4.41,4.41,0,0,0,.1-.89,4,4,0,1,0-4.09,4c-.65-1.13-1.33-2.36-2.06-3.76l-.27-.5L41.2,57.7Z"/><path class="cls-1" d="M44.77,63a6.43,6.43,0,0,0,1-3.38,6.5,6.5,0,1,0-6.5,6.5A6.42,6.42,0,0,0,40.54,66c-.27-.45-.55-.91-.83-1.39a3.88,3.88,0,0,1-.48,0,5,5,0,1,1,4.6-3Z"/><path class="cls-1" d="M42.33,68.77l-.41-.62-.33-.5-.1-.15-.39-.64a7.45,7.45,0,0,1-1.48.22c-.13,0-.26,0-.39,0h-.1a7.5,7.5,0,0,1-1.84-.26l-.46-.14a7.27,7.27,0,0,1-1.68-.82l-.4-.28a7.86,7.86,0,0,1-1.35-1.29l-.3-.4a7.35,7.35,0,0,1-.87-1.64c-.06-.15-.12-.3-.17-.46A7.46,7.46,0,0,1,31.75,60c0-.12,0-.24,0-.37V59.5A7.41,7.41,0,0,1,32,57.67c.05-.16.09-.31.14-.46a7.38,7.38,0,0,1,.81-1.67,3.89,3.89,0,0,1,.28-.39,7.79,7.79,0,0,1,1.31-1.38,3.89,3.89,0,0,1,.39-.28,7.53,7.53,0,0,1,1.63-.88l.44-.16a7.54,7.54,0,0,1,1.85-.32l.39,0h.09a7.59,7.59,0,0,1,1.86.27l.46.13a7.92,7.92,0,0,1,1.68.82l.4.28a8.06,8.06,0,0,1,1.33,1.28,3.91,3.91,0,0,1,.3.41,7,7,0,0,1,.87,1.61c.06.16.12.31.17.47a7.55,7.55,0,0,1,.32,1.84c0,.13,0,.26,0,.39v.07a7.41,7.41,0,0,1-.27,1.87c0,.16-.07.32-.12.47a7.3,7.3,0,0,1-1,1.86c.14.22.28.43.43.64l.08.12c.11.17.23.33.35.5s.26.39.4.58c1.51.22,3.56.15,4.71-.72l1.29-1L51,64.1c-.89,0-1.7-.75-2.47-1.51,1.49-.09,3.06-.47,3.86-1.59l.94-1.33-1.53.57c-.83.31-1.88-.21-2.81-.68,1.4-.54,2.78-1.4,3.19-2.7l.48-1.55-1.27,1c-.7.55-1.81.38-2.89.22,1.09-.88,2.22-2.14,2.19-3.56l0-1.61-.89,1.34c-.49.75-1.6.93-2.67,1.11a6.14,6.14,0,0,0,1.13-3.14,2.89,2.89,0,0,0-.14-.92l-.51-1.54-.44,1.56c-.24.86-1.29,1.41-2.22,1.89.39-1.45.51-3.06-.32-4.16l-1-1.3.08,1.63c.05.87-.74,1.67-1.5,2.44-.09-1.49-.47-3.06-1.6-3.85l-1.32-.92L39.86,47c.31.82-.21,1.87-.67,2.8-.51-1.3-1.36-2.76-2.71-3.19l-1.56-.49,1,1.28c.56.7.39,1.82.22,2.9-.94-1.17-2.2-2.21-3.55-2.2l-1.62,0,1.35.9c.75.49.93,1.6,1.11,2.67-1.26-.82-2.76-1.42-4.06-1l-1.5.52,1.52.43c.85.24,1.37,1.23,1.87,2.2-1.34-.36-3-.54-4.16.31l-1.28.95,1.6,0h0c.88,0,1.7.81,2.43,1.53-1.5.07-3.07.45-3.86,1.58l-.92,1.32,1.5-.56c.84-.31,1.89.21,2.83.67-1.4.55-2.78,1.4-3.2,2.71l-.48,1.54,1.27-1c.7-.55,1.81-.38,2.89-.22-1.16.94-2.2,2.16-2.2,3.52v0l0,1.61.9-1.34c.49-.74,1.65-.94,2.69-1.12-.83,1.27-1.44,2.78-1,4.07L30.89,71l.42-1.56c.24-.86,1.24-1.38,2.21-1.88-.36,1.35-.53,3,.31,4.17l1,1.29-.06-1.61c0-.88.79-1.72,1.52-2.46.07,1.39.43,3,1.59,3.87l1.32.93-.56-1.51c-.31-.84.21-1.89.67-2.83.48,1.24,1.33,2.75,2.7,3.19l1.54.49-1-1.28C42,71.13,42.16,69.85,42.33,68.77Z"/></g></svg>