<?xml version="1.0" encoding="UTF-8"?>
<svg id="icons" xmlns="http://www.w3.org/2000/svg" viewBox="0 0 120 120">
  <path d="m28.34,37.7c2.65-.32,4.69-2.33,4.86-4.78.08-1.1-.76-2.06-1.86-2.13-1.08-.07-2.06.76-2.13,1.86-.04.51-.64,1-1.35,1.08-.63.08-1.49-.13-1.95-1.56-.34-1.05-1.47-1.63-2.52-1.29-1.05.34-1.63,1.47-1.29,2.52.87,2.71,2.99,4.35,5.51,4.35.24,0,.48-.02.73-.05Z"/>
  <path d="m15.88,39.03l-1.61,1.01c-.94.59-1.22,1.82-.63,2.76.38.61,1.03.94,1.7.94.36,0,.73-.1,1.06-.31l1.61-1.01c.94-.59,1.22-1.82.63-2.76-.59-.94-1.82-1.22-2.76-.63Z"/>
  <path d="m106.55,89.27c.39.5.98.78,1.58.78.28,0,.56-.06.83-.18.22-.1,5.38-2.58,1.97-11.79.39-3.52,2.29-23.72-3.48-36.05-.63-1.89-1.69-3.77-3.33-5.55-6.43-6.98-14.08-10.17-23.98-9.98h-.76c-7.05.13-15.82.28-19.61-1.88-4.21-2.41-11.56.14-14.73,1.45.01-.51,0-1.04-.09-1.64-.16-1.09-1.18-1.85-2.27-1.69-1.09.16-1.85,1.17-1.69,2.27.18,1.21.03,2.08-.43,2.59-.41.45-1.05.63-1.52.71-1.49-1.32-3.4-2.88-5.32-4.39.4-.8.87-1.04,1.06-1.13,1.38-.67,3.61.12,4.27.45.99.49,2.19.09,2.68-.9.49-.99.09-2.19-.9-2.68-.44-.22-4.39-2.09-7.77-.48-.83.4-1.82,1.12-2.61,2.4-5.16-2.5-9.57,3.46-13.16,8.31-1.64,2.21-3.33,4.5-4.88,5.8-3.02,2.55-4.5,5.13-4.39,7.66.08,1.91,1.08,3.63,2.81,4.84,2.8,1.97,8.27,3,11.4-.13.68.28,1.99,1.66,2.98,3.11.59,4.35,3.67,11.95,11.71,13.5.61,1.05,1.86,3.6,3.13,8.39l.45,1.69c1.59,5.96,2.55,9.55,1.17,12.61l-.38.84c-1.08,2.36-1.87,4.07-1.17,5.86.62,1.57,2.17,2.38,3.46,2.92.16.06,1.55.63,3.37,1.15,0,0,0,0,0,0,0,0,0,0,0,0,1.61.46,3.56.87,5.31.87,1.91,0,3.59-.5,4.31-1.98.7-1.43.78-10.61.25-27.3,1.1-.17,3.35-.02,7.01,2.25,4.68,2.91,8.26,1.2,10.87-.06,2.28-1.09,3.34-1.53,4.87-.49,4.4,3,4.84,8.59,3.33,12.81l-.36.99c-1.22,3.36-2.19,6.01-.94,8.18.69,1.2,1.94,1.97,3.72,2.3,2.04.37,3.72.01,4.99-1.07.83-.7,1.44-1.66,1.86-2.96-.02.93.13,1.8.57,2.6.67,1.23,1.89,2.08,3.64,2.53,1.55.4,3.32.68,4.71-.27,1.56-1.06,1.79-2.94,2.11-5.54.14-1.17.32-2.64.65-4.33,2.83-14.8,2.69-17.95,1.32-19.41-.78-.83-2.53-4.2-.98-7.17l.1-.2c.65-1.24,1.63-3.13,2.45-5.38,1.44,10.08.43,20.89.19,23.16-.97,1.62-3.82,7.18-.4,11.61ZM22.47,44.01c-1.13-.11-2.21.3-3.01,1.15-1.37,1.46-4.73.86-6.32-.26-.49-.34-1.08-.92-1.11-1.75-.05-1.19,1-2.77,2.97-4.43,1.9-1.61,3.74-4.08,5.51-6.48,4.35-5.87,6.65-8.25,8.64-6.84.18.14.36.28.53.41.23.34.56.6.96.75,2.36,1.86,4.74,3.81,6.19,5.1.09.11.2.2.32.28.53.48.89.84,1.03,1.02.2.36.03,1.02-.06,1.24-.25.55-.23,1.18.04,1.72.27.54.77.93,1.36,1.07.73.17,3.08.95,2.63,4.07-.08.55-.17.56-.38.58-1.6.15-4.31-1.87-4.68-2.75-.03-1.04-.86-1.9-1.91-1.94-1.09-.05-2.04.81-2.08,1.91-.04,1.01.41,2.02,1.14,2.93-.53.12-1.02.44-1.31.96-2.13,3.76-3.93,5.03-4.88,5.46-1.19-1.62-3.3-4-5.59-4.22Zm66.45,40.66c.08,4.81-.6,6.41-1.18,6.9-.12.1-.48.41-1.69.18-.7-.13-.95-.31-.97-.35-.32-.56.61-3.13,1.23-4.83l.37-1.01c1.66-4.62,1.49-10.52-1.96-14.81,2.69.24,5.39.87,6.99,2.2-1.06,2.12-2.87,6.51-2.78,11.71Zm5.66-1.93c-.33,1.25-.72,2.42-1.1,3.54-.24.73-.48,1.44-.68,2.12.1-1.11.14-2.37.12-3.79-.05-2.96.66-5.64,1.39-7.61.54,1.52.86,3.5.27,5.74Zm6.18-24.71l-.1.2c-2.45,4.69-.2,9.64,1.42,11.55.34,1.47-.38,6.89-2.15,16.13-.35,1.83-.54,3.37-.69,4.6-.12,1.03-.27,2.18-.44,2.67-.21,0-.63-.05-1.41-.25-.59-.15-1.01-.37-1.12-.57-.37-.68.39-2.97,1-4.81.38-1.13.8-2.41,1.17-3.78,1.82-6.84-2.38-11.94-2.76-12.39-4.34-5.96-16.54-4.75-18.34-4.53-1.61.14-3.07.83-4.36,1.45-2.35,1.13-4.22,2.02-7.03.27-8.09-5.04-12.03-2.08-12.45-1.73-.47.4-.73.99-.71,1.6.37,11.18.53,23.59.2,26.53-.62.09-1.78,0-3.19-.28.95-4.94,2.87-18.25-1.07-30.35-.34-1.05-1.47-1.62-2.52-1.28-1.05.34-1.62,1.47-1.28,2.52,3.53,10.84,1.89,23.16,1,28-.27-.1-.55-.2-.82-.31-.85-.35-1.16-.59-1.25-.69.02-.45.6-1.71,1.06-2.72l.39-.86c1.98-4.37.81-8.72-.95-15.3l-.45-1.68c-1.99-7.51-4.02-10.18-4.25-10.46-.32-.4-.79-.66-1.3-.73-6.08-.77-8.2-6.04-8.9-8.84,1.81-.75,4.33-2.62,6.95-7.24.15-.26.22-.54.25-.82,1.45.94,3.1,1.58,4.44,1.71,2.72.25,4.63-1.28,5.02-3.99.61-4.31-1.68-6.73-3.85-7.85.04-.69-.04-1.49-.37-2.28.56-.29,1.11-.68,1.6-1.21.01-.01.02-.03.04-.04.54.28,1.19.33,1.79.05,3.72-1.75,10.04-3.6,12.46-2.22,4.74,2.71,13.73,2.56,21.66,2.42h.76c8.86-.16,15.29,2.52,20.97,8.68,6.03,6.53,1.68,14.85-.41,18.84Z"/>
</svg>