<svg id="Symbols" xmlns="http://www.w3.org/2000/svg" viewBox="0 0 150 150"><defs><style>.cls-1{fill:#231f20;}</style></defs><title>bilva-bold</title><g id="bilva_bold"><path class="cls-1" d="M85.12,51.58c-13,2.64-14.41,10.19-15.29,13.31a29.57,29.57,0,0,1,3.1,8c1-1.68,3.59-5.06,7.4-6.28,3.72-4.56,2.68-10,2.82-11.75A5.92,5.92,0,0,1,85.12,51.58Z"/><path class="cls-1" d="M87.53,66.12c1.21.2,1.64.29,1.64.29s5.71-4.85,7.91-11c1.85-5.16,6.56-9.16,6.56-9.16C94.89,46.51,90.85,50.15,87.53,66.12Z"/><path class="cls-1" d="M87.53,50.13c-1.89,2.5-3,3.92-3,3.92,4.13-.75,7.26-3.33,9.69-11.13,2.15-4.83,4.25-6.16,4.25-6.16-17.39.29-17.81,14.82-17.81,14.82A68.91,68.91,0,0,1,87.53,50.13Z"/><path class="cls-1" d="M81.73,37.92c.66-6.37.7-7.75,1.49-9.45-5.5.58-8.75,4.79-10.37,10s.06,12.83.06,12.83A16.56,16.56,0,0,0,81.73,37.92Z"/><path class="cls-1" d="M58.6,37.09c.5.71,3.06,7.48,4.27,10.39a24.39,24.39,0,0,0,9.08,11l1.12-1.37s-.46-11.48-4-16.52-7.51-7.5-16.84-6.79C56.6,35.13,58.1,36.38,58.6,37.09Z"/><path class="cls-1" d="M50,50.09c3,6.39,5.09,8.58,9.17,9.46s5.52,2.19,5.71,2.66a12.24,12.24,0,0,1,1.57.62c.28-1.56-1.36-6.53-2.74-10.2S56,43.17,45.59,45.87C45.59,45.87,48.27,46.42,50,50.09Z"/><path class="cls-1" d="M36.72,54.3c1.13,1.5.39,1.54,4.21,5.46A39.59,39.59,0,0,0,51.05,67c1.88-6.92-1-14.53-6.66-17.12-5.26-2.39-12.22.84-12.79,1C34.08,51.85,35.6,52.8,36.72,54.3Z"/><path class="cls-1" d="M28.26,63.13c4.22,8.07,12.5,7.06,15,6.29,0,0-.58-4.62-5.37-8.79C31.6,55.13,26.67,57.76,24,59.09,27.47,60.67,27.76,62.18,28.26,63.13Z"/><path class="cls-1" d="M99,67a39.59,39.59,0,0,0,10.12-7.24c3.82-3.92,3.08-4,4.21-5.46s2.64-2.45,5.12-3.46c-.57-.12-7.53-3.35-12.79-1C100,52.47,97.07,60.08,99,67Z"/><path class="cls-1" d="M106.7,69.42c2.54.77,10.82,1.78,15-6.29.5-1,.79-2.46,4.22-4-2.63-1.33-7.56-4-13.89,1.54C107.28,64.8,106.7,69.42,106.7,69.42Z"/><path class="cls-1" d="M122.15,80.39h-2.34a6.05,6.05,0,0,0,2.89-3.55c1.25-3.46.78-4.88,1.37-7.06.39-1.45.77-1.56.77-1.56-5.12.41-7.91,1.93-9.79,4.6a8.64,8.64,0,0,0-1.85,4.52,7.4,7.4,0,0,1-.18,3h-1c.77-2.89.19-5.68-3.61-8.61C105,69.19,99.57,67.55,97,68.09c1,1.21,1.61,1.83,1.74,2.5s.71,7.13,6.83,8.88c1.33.37,2.35.68,3.16.92H77.25c10-3,12-11.5,15.4-12.12C84.8,64.46,77.49,66.77,73,74.76a13.24,13.24,0,0,1-.94,5.63H71c2.11-5.8.92-9.91-1.57-14.31C66.57,61.05,59,61.75,54.87,64a12.14,12.14,0,0,1,2.18,4.15c.29,1.55,3.57,8.56,11.2,12.25h-27c.81-.24,1.83-.55,3.16-.92,6.12-1.75,6.72-8.27,6.83-8.88s.7-1.29,1.74-2.5c-2.53-.54-8,1.1-11.35,3.69-3.8,2.93-4.38,5.72-3.61,8.61H37a7.4,7.4,0,0,1-.18-3A8.64,8.64,0,0,0,35,72.82c-1.88-2.67-4.67-4.19-9.79-4.6,0,0,.38.11.77,1.56.59,2.18.12,3.6,1.37,7.06a6.05,6.05,0,0,0,2.89,3.55H27.85a3.36,3.36,0,0,0-3.35,3.35v1.05a3.34,3.34,0,0,0,2.59,3.26l1.15.7.1,1.76c0,.22,0,.46.08.68A24.09,24.09,0,0,0,38.6,107.88l.24.18a29.8,29.8,0,0,0,3.41,2.1l.44.23h3.73v2.14H38.68l-4.81,3.14a2.93,2.93,0,0,0,.06,5.86h82.14a2.93,2.93,0,0,0,.06-5.86l-4.81-3.14h-7.74v-2.14h3.71l.43-.22a26.47,26.47,0,0,0,3.43-2.11l.22-.16h0c5.86-4.26,9.48-10.19,10.21-16.72,0-.22.06-.44.08-.67l.11-1.93.77-.46a3.35,3.35,0,0,0,3-3.33V83.74A3.36,3.36,0,0,0,122.15,80.39Zm-1.17,4-1.66,1H30.43l-1.66-1Zm-74.92,22c-.83-2.75-1.49-5.22-1.94-7.32a20.63,20.63,0,0,1-.66-6.68h3.08a24.57,24.57,0,0,1,2.87,6.86v0c.32,2,.8,4.37,1.47,7.11ZM99.63,99v0l0,.11c-.32,2.06-.82,4.45-1.51,7.26H93.26c.5-2.68.87-5.09,1.07-7.18a23.24,23.24,0,0,1,2.45-6.82h3.1A19.44,19.44,0,0,1,99.64,99v0Zm-49.24.07a20,20,0,0,1-.27-6.67h3.11a22.63,22.63,0,0,1,2.45,6.75v0c.2,2.08.56,4.5,1.07,7.2H51.91c-.69-2.81-1.19-5.19-1.5-7.18Zm6.39-6.67H59.9A21.87,21.87,0,0,1,62,99.12v.11c.09,2,.33,4.44.69,7.16H57.77c-.52-2.74-.89-5.2-1.09-7.32A19.76,19.76,0,0,1,56.78,92.39Zm6.67,0h3.12a21.48,21.48,0,0,1,1.67,6.86c0,2.06.07,4.42.27,7.14H63.65c-.37-2.75-.61-5.19-.7-7.28A20.1,20.1,0,0,1,63.45,92.39Zm9.78,0a21.33,21.33,0,0,1,1.27,6.82c-.13,2.09-.17,4.5-.12,7.18H69.51c-.2-2.71-.29-5.12-.27-7.15a20.92,20.92,0,0,1,.88-6.85Zm6.67,0a21,21,0,0,1,.88,6.76c0,2.06-.06,4.44-.28,7.24H75.38c0-2.67,0-5.08.12-7.15a21.44,21.44,0,0,1,1.28-6.85Zm6.67,0A19.85,19.85,0,0,1,87.08,99l-.07.12.06.14c-.1,2.1-.34,4.51-.7,7.16H81.51c.21-2.78.3-5.16.27-7.24a21.76,21.76,0,0,1,1.67-6.76Zm6.65,0a19.73,19.73,0,0,1,.12,6.71c-.21,2.09-.58,4.55-1.1,7.29H87.38c.33-2.49.56-4.76.67-6.77v-.29a.81.81,0,0,0,0-.16,22,22,0,0,1,2.05-6.78Zm-30.75,18-1.89,1.44-1.88-1.44Zm5.23,0-1.88,1.44-1.89-1.44Zm5.24,0-1.89,1.44-1.89-1.44Zm5.24,0-1.89,1.44-1.89-1.44Zm5.24,0-1.89,1.44-1.89-1.44Zm5.24,0-1.89,1.44-1.89-1.44Zm5.24,0L92,111.83l-1.89-1.44Zm7-18h1.37a19.15,19.15,0,0,0-1.22,2.48A12.25,12.25,0,0,0,100.9,92.39Zm-6.38,2.52a12.38,12.38,0,0,0-.28-2.52h1.39A17.45,17.45,0,0,0,94.52,94.91Zm-6.49,0a14.9,14.9,0,0,0-.42-2.54H89A16.41,16.41,0,0,0,88,94.93Zm-6.52,0A14,14,0,0,0,81,92.39h1.39A15.87,15.87,0,0,0,81.51,94.94ZM75,95a14.28,14.28,0,0,0-.69-2.57H75.7A15.1,15.1,0,0,0,75,95Zm-6.49,0a15.29,15.29,0,0,0-.85-2.58h1.4A14.41,14.41,0,0,0,68.51,95Zm-6.51,0a16.07,16.07,0,0,0-1-2.55h1.4A13.13,13.13,0,0,0,62,94.94Zm-6.52,0a17.23,17.23,0,0,0-1.09-2.5h1.37A13,13,0,0,0,55.48,94.89Zm-6.52,0a18.06,18.06,0,0,0-1.23-2.49h1.38A12.4,12.4,0,0,0,49,94.88Zm-6.52,0a19.47,19.47,0,0,0-1.34-2.46h1.37A12.27,12.27,0,0,0,42.44,94.85Zm14.8,15.54-1.89,1.44-1.88-1.44Zm-2.62,2.14H50.85l1.89-1.44ZM58,111.09l1.88,1.44H56.08Zm5.23,0,1.89,1.44H61.31Zm5.23,0,1.89,1.44H66.55Zm5.24,0,1.89,1.44H71.78Zm5.24,0,1.89,1.44H77Zm5.24,0L86,112.53H82.26Zm5.24,0,1.89,1.44H87.5Zm5.24,0,1.89,1.44H92.74Zm.73-.7h3.78l-1.89,1.44Zm3.77-4c.67-2.74,1.15-5.08,1.47-7.11v-.07a24.27,24.27,0,0,1,2.85-6.82h3.1a20.4,20.4,0,0,1-.63,6.58c-.44,2.09-1.11,4.59-2,7.42Zm8.42-14h1.36a21.24,21.24,0,0,0-1.34,2.44A11.47,11.47,0,0,0,107.55,92.39Zm8,0a20.47,20.47,0,0,0-1.46,2.43,11.57,11.57,0,0,0,.09-2.43Zm-79.76,0a11.47,11.47,0,0,0,.1,2.41,21.54,21.54,0,0,0-1.45-2.41Zm-3.15,0h.55a27.67,27.67,0,0,1,3.66,7h0c.19.7.41,1.44.64,2.21A19.4,19.4,0,0,1,32.66,92.39Zm8.69,12.54-.22-.16a25,25,0,0,1-2.09-1.7c-.47-1.44-.88-2.79-1.22-4a21.08,21.08,0,0,1-1-6.66h3.07a26.27,26.27,0,0,1,3.26,6.9c.44,2.06,1.08,4.45,1.88,7.1H43.69A25.2,25.2,0,0,1,41.35,104.93ZM52,110.39l-1.59,1.22v-1.22Zm59.65,7.14H38.34l1.54-1h70.24Zm-13.68-5,1.6-1.22v1.22Zm10.7-7.65-.06.07a21.77,21.77,0,0,1-2.31,1.44H105c.82-2.74,1.45-5.16,1.88-7.21a26.08,26.08,0,0,1,3.23-6.79h3.09a21,21,0,0,1-1,6.71c-.33,1.22-.74,2.55-1.2,4a23.63,23.63,0,0,1-2,1.66Zm3.82-3.33c.23-.75.44-1.49.63-2.18a28,28,0,0,1,3.69-7h.52A19.44,19.44,0,0,1,112.5,101.55Z"/></g></svg>