<?xml version="1.0" encoding="UTF-8"?>
<svg id="icons" xmlns="http://www.w3.org/2000/svg" viewBox="0 0 120 120">
  <path d="m108.7,31.52c-2.11-1.02-4.26-1.34-6.26-.99-1.43-1.73-3.73-3.08-6.23-2.85-1.35.12-3.62.82-5.13,3.84-1.39-.28-2.92-.27-4.48.17-1.33-2.38-3.63-4.03-6.14-4.2-1.76-.12-4.83.4-7.31,4.66-2.67-1.44-5.73-2.7-9.15-3.73-.38-.11-.78-.11-1.15,0-4.34,1.31-8.1,2.98-11.22,4.92-1.39-2.07-3.52-3.46-5.79-3.65-1.61-.13-4.5.26-7.05,3.89-1.07-.46-2.15-.68-3.22-.61-.52.03-1.09.14-1.68.35-1.71-3.47-4.58-4.44-6.99-4.08-2.59.39-4.74,2.21-5.69,4.52-.92-.3-1.87-.51-2.85-.53-2.68-.06-5.17,1.15-7.15,3.53-3.45,4.16-3.36,10.66.22,16.55,2.27,3.74,6.05,7.3,11.21,9.38-3.13,2.45-4.43,5.39-4.52,7.75-.11,2.82,1.32,5.22,3.81,6.42,1.38.67,4.49,1.56,9.14-.43-.09.7-.09,1.41.05,2.13.31,1.59,1.45,3.77,5.05,5.15,4.37,1.67,8.74-2.54,11.75-6.6.71,2.4,2.19,4.89,4.97,6.96,2.26,1.69,4.94,2.7,7.81,2.98v7.53h-20.58c-1.1,0-2,.9-2,2s.9,2,2,2h50.55c1.1,0,2-.9,2-2s-.9-2-2-2h-25.97v-7.57c2.75-.33,5.31-1.32,7.5-2.95,2.78-2.07,4.26-4.57,4.97-6.96,3.01,4.06,7.37,8.28,11.76,6.6,3.6-1.38,4.74-3.56,5.05-5.15.15-.73.15-1.47.04-2.19,3.17,1.31,6.08,1.45,8.42.33,2.51-1.21,3.94-3.7,3.83-6.66-.11-2.8-1.72-6.33-5.69-9.04,7.66-3.91,10.38-10.78,11.2-13.62,2.01-6.96.64-14.09-3.06-15.88Zm-12.13.15c.62-.06,1.33.2,1.96.65-.79.63-1.48,1.38-2.05,2.23-.52-.54-1.1-1.02-1.72-1.44.42-.75,1-1.37,1.81-1.44Zm-5.9,3.87c1.96.55,3.53,2.02,4.39,3.88.02.06.05.11.08.16.51,1.16.74,2.47.61,3.8-.5,5.36-6.09,12.66-11.97,15.63-1.26.64-2.86,1.23-4.51,1.3.18-.16.34-.34.52-.5.22-.21.45-.42.66-.64.25-.25.47-.51.7-.77.2-.22.4-.44.58-.67.21-.25.39-.51.58-.77.17-.24.35-.47.51-.71.17-.25.31-.51.46-.77.15-.25.3-.5.43-.75.13-.26.24-.52.36-.78.12-.26.24-.51.34-.77.11-.27.18-.55.27-.83.08-.25.17-.5.23-.75.08-.32.13-.65.19-.98.04-.21.09-.41.12-.62.07-.54.1-1.08.1-1.63,0-2.92-.97-5.71-2.76-8.28,1.1-1.89,2.39-3.25,3.78-4.02.06-.03.12-.06.19-.1,1.31-.66,2.7-.82,4.12-.42Zm-10.47-4.04c1.08.07,2.16.87,2.84,2-1.12.85-2.2,1.96-3.19,3.41-.97-.92-2.06-1.81-3.26-2.65,1.07-1.84,2.36-2.84,3.62-2.76Zm-16.78.95c11.07,3.47,17.92,9.54,17.92,15.92,0,.35-.03.7-.07,1.05,0,.07-.02.14-.03.2-.05.35-.12.7-.21,1.05,0,.01,0,.03-.01.04-.1.37-.22.74-.36,1.1,0,0,0,.02-.01.03-.14.36-.31.71-.49,1.07-.02.04-.04.08-.06.12-.18.34-.38.67-.6,1-.03.05-.07.1-.1.15-.21.32-.45.63-.7.94-.05.06-.09.11-.14.17-.25.31-.52.61-.81.91-.04.05-.09.09-.13.14-.32.34-.67.67-1.03.99h0c-2.84,2.54-7.09,3.95-11.5,4.24l.32-16.46c.02-1.1-.86-2.02-1.96-2.04-1.12-.04-2.02.86-2.04,1.96l-.32,16.48c-2.18-.2-4.3-.67-6.22-1.42-.3-.26-.68-.42-1.07-.47-1.32-.62-2.54-1.37-3.56-2.28,0,0-.01-.01-.02-.02-.36-.32-.7-.65-1.02-.98-.05-.05-.09-.1-.14-.15-.28-.3-.55-.6-.8-.91-.05-.06-.09-.11-.14-.17-.25-.31-.48-.63-.7-.95-.03-.05-.07-.1-.1-.15-.22-.33-.42-.67-.6-1.01-.02-.04-.04-.07-.06-.11-.19-.36-.35-.71-.49-1.07,0,0,0-.02,0-.02-.14-.37-.27-.74-.36-1.11,0-.01,0-.02-.01-.04-.09-.35-.16-.7-.21-1.06,0-.07-.02-.13-.03-.2-.04-.35-.07-.7-.07-1.06,0-6.38,6.86-12.45,17.94-15.92Zm-17.91,1.25c1.06.09,2.14.87,2.86,1.99-1.38,1.13-2.56,2.33-3.54,3.58-.86-1.32-1.79-2.46-2.75-3.39,1.07-1.51,2.26-2.28,3.43-2.18Zm-9.7,3.29c1.95-.13,4.66,2.41,6.71,6.25-.67,1.65-1.04,3.37-1.04,5.13,0,.55.04,1.09.1,1.63.03.21.08.43.12.64.06.32.11.64.19.96.07.26.16.51.24.77.09.27.16.54.26.81.1.27.23.53.35.8.11.25.22.51.35.76.14.26.3.52.45.78.15.25.29.5.45.75.16.25.35.49.53.73.19.25.37.51.57.75.19.23.39.45.59.68.23.25.45.51.69.76.21.22.44.43.66.64.18.17.34.35.53.52.06.06.13.1.2.16.11.1.2.19.31.29.15.13.33.24.49.36-.68.12-1.35.18-2.03.2-1.73-1.67-7.29-7.61-7.66-15.39-.05-1.07-.94-1.91-2-1.91-.03,0-.06,0-.1,0-1.1.05-1.96.99-1.9,2.09.27,5.71,2.77,10.47,5.15,13.77-1.2-.6-2.35-1.37-3.43-2.33-4.57-4.08-6.59-10.37-4.91-15.3,1.13-3.32,2.6-5.21,4.13-5.3Zm-8.31-3.76c1.66-.25,2.59,1.23,3.09,2.58-.65.8-1.28,1.81-1.86,3.09-1.05-1.07-2.39-2.28-3.92-3.31.38-1.22,1.56-2.19,2.69-2.36Zm-12.66,18.04c-2.64-4.35-2.86-9.14-.56-11.93,1.19-1.44,2.45-2.13,3.96-2.08,3.44.09,7.33,3.94,9.09,6.06-.97,5.94,1.55,12.74,6.61,17.25-.06,0-.11,0-.17,0-.08-.04-.17-.09-.26-.12-.1-.04-10.1-3.69-10.72-12.75-.08-1.1-1.04-1.94-2.13-1.86-1.1.08-1.93,1.03-1.86,2.13.33,4.82,2.59,8.39,5.15,10.95-4.2-1.74-7.26-4.63-9.1-7.66Zm87.42,18.96c.05,1.34-.52,2.4-1.57,2.9-1.91.92-5.85.26-11.18-4.33-.82-.71-2.06-.63-2.79.17-.73.81-.68,2.05.11,2.79,1.21,1.15,3.6,4.15,3.22,6.06-.17.87-1.03,1.61-2.56,2.19-2.66,1.03-7.8-5.52-10.48-10.63-.48-.92-1.59-1.31-2.55-.91-.96.41-1.44,1.49-1.11,2.48.08.24,1.89,5.9-3.54,9.95-2.01,1.49-4.46,2.28-7.1,2.28h-.32c-2.64,0-5.1-.79-7.1-2.28-5.43-4.05-3.62-9.71-3.54-9.94.34-.99-.13-2.08-1.09-2.49-.96-.42-2.08-.02-2.57.91-2.68,5.11-7.83,11.66-10.48,10.63-1.52-.58-2.38-1.32-2.56-2.19-.38-1.91,2-4.91,3.21-6.06.79-.75.84-1.99.11-2.79-.73-.81-1.97-.88-2.79-.17-5.62,4.85-9.83,5.5-11.91,4.5-1.04-.5-1.59-1.45-1.55-2.66.07-1.83,1.65-4.51,5.76-6.43,1.53.26,3.13.42,4.83.42,2.06,0,4.25-.22,6.56-.68,1.95.82,3.99,1.27,6.08,1.37.14.03.28.05.42.05.07,0,.13-.01.2-.02.06,0,.12,0,.19,0,2.41,0,4.86-.48,7.25-1.47,2.9,1.15,6.18,1.74,9.47,1.8.05,0,.1.02.15.02.01,0,.03,0,.04,0,.03,0,.06,0,.08,0,.09,0,.18,0,.27,0,3.93,0,7.84-.79,11.17-2.33,1.37.64,2.83.97,4.37.97,1.32,0,2.7-.26,4.11-.72,1.56.16,3.05.25,4.45.25,3.07,0,5.76-.37,8.13-.99,4.73,2.03,6.53,5.19,6.62,7.34Zm5.66-23.92c-1.17,4.05-5.16,12.56-18.08,13.48,5.23-4.25,9.41-10.76,9.89-16.03.17-1.82-.11-3.61-.74-5.24.43-1.54,1.5-2.93,2.85-3.61.17-.09.34-.16.52-.22.03-.01.05-.02.08-.03,1.35-.47,2.87-.31,4.51.48,1.26.61,2.62,5.44.96,11.17Z"/>
</svg>