<?xml version="1.0" encoding="UTF-8"?>
<svg id="icons" xmlns="http://www.w3.org/2000/svg" viewBox="0 0 120 120">
  <path d="m96.51,39.88c-.68-.72-1.42-1.39-2.26-1.94-5.67-3.72-12.35-5.12-24.31-6.7-8.48-1.12-17.59-1.08-22.22-.96,1.07-3.49,1.18-6.64-1.14-7.89-.76-.41-2.01-.77-3.61-.12-1.01.41-2.01,1.19-2.94,2.2-.47-.94-1.11-1.59-1.79-1.94-1.25-.66-2.72-.43-3.74.58-.86.86-1.23,2.23-1.69,3.95-.51,1.9-1.21,4.5-2.5,5.15-3.12,1.56-13.1,8.07-17.12,13.49-2.68,3.61-4.13,6.19-3.62,8.68.31,1.5,1.29,2.71,2.99,3.71.97.57,1.99.8,2.99.8.8,0,1.58-.15,2.33-.38.32.36.71.68,1.19.92,1.65.84,3.76.57,6.3-.79,1.74-.94,2.09-.69,4.02.68,1.22.87,2.74,1.95,5.04,2.87,1.98.79,3.44.88,4.57.78.01,0,.03,0,.04,0,0,0,.01,0,.02,0,.53-.05.98-.14,1.37-.22.24-.05.56-.12.59-.13.02,0,.09.06.23.2.15,3.02.38,5.83.57,8.33.52,6.52.93,11.66-.41,14.43-.27.55-.52,1.07-.76,1.54-.19.38-.37.75-.55,1.1-.83.32-1.38,1.16-1.27,2.08.03.23.1.43.19.63-.24.92-.29,1.78,0,2.64.37,1.1,1.2,1.95,2.54,2.61.65.32,1.32.48,1.99.48.49,0,.98-.09,1.46-.26.66-.24,1.27-.63,1.83-1.15.04.31.11.62.25.92.83,1.75,2.9,2.03,4.61,2.08.08,0,.17,0,.25,0,2.96,0,3.87-1.66,4.29-2.95,0-.03.02-.05.03-.08.07-.21.12-.41.17-.58.21-.79.4-1.48,1.07-2.15.58-.57,1.08-.99,1.53-1.36,1.75-1.43,2.82-2.5,2.73-6.17-.08-3.53-.18-7.53,1.5-9.69.74-.29,3.73,1.1,6.36,3.25.69.57,1.67.6,2.4.1.64-.44.96-1.2.84-1.95l.2.05c.71.17,1.45-.06,1.94-.59.37-.41.56-.94.52-1.48,2.33.75,5.01,2.08,6,4.18,1.98,4.17.68,7.4-.28,8.53-.28.32-.94.78-1.52,1.18-1.44,1-3.07,2.13-3.09,3.95,0,.71.24,1.74,1.46,2.63,1.95,1.42,3.74,1.94,5.32,1.56.88-.22,2.11-.83,2.93-2.51.69-1.39,4.57-6.62,6.86-9.58.27-.35.42-.78.42-1.22v-2.84c.8.65,1.54,1.27,1.89,1.65-.2,1.03-1.25,3.57-1.91,5.14-.56,1.34-1.01,2.46-1.37,3.42,0,0,0,0,0,0-.67,1.81-.97,3.05-.78,4.01.35,1.82,2.14,2.84,4.89,2.84.37,0,.76-.02,1.17-.06,4.09-.39,4.7-2.15,4.7-3.16v-2.53h0v-2.76c1.97-2.21,5.19-6.49,3.63-9.43-.23-.43-.5-.87-.76-1.31-1.22-1.99-1.75-3.02-.57-4.8,2.48-3.7,4.31-9.42,1.35-13.34-1.96-2.59-3.77-7.24-3.84-8.16,0-.11,0-.22-.03-.33-.02-.09-.13-.71-.36-1.63,5.52,6.72,6.32,13.18,6.38,19.33-1.5,1.8-2.75,5.31.41,9.51.33.44.84.73,1.39.79.07,0,.14.01.21.01.48,0,.95-.17,1.32-.5,1.59-1.39,3.67-5.14.68-9.63-.06-8.95-1.54-19.3-15.52-29.72ZM31.69,56.05c-2.04-1.45-4.16-2.93-7.83-1.13l1.87-1.31c.87-.61,1.27-1.7,1.02-2.76-.25-1.02-1.06-1.78-2.07-1.92-2.66-.38-3.56-.75-3.75-.84-.78-.57-1.88-.49-2.59.21-.78.78-.77,2.05,0,2.83.19.18.63.63,2.38,1.1l-.11.08s-.06.06-.1.09c-.03.03-.07.05-.1.08-1.16,1.07-4.25,3.09-5.84,2.17-.45-.27-1.01-.66-1.09-1.06-.25-1.22,2.13-4.44,2.92-5.49,1.82-2.46,5.22-5.3,8.48-7.67-.12.35-.15.73-.06,1.11.83,3.42,3.24,4.59,5.26,4.59.18,0,.35,0,.53-.03,2.75-.28,4.96-2.47,5.04-4.97.04-1.1-.83-2.03-1.94-2.06-1.09-.05-2.03.83-2.06,1.94-.01.43-.7,1.04-1.45,1.12-.28.03-1.09.11-1.49-1.53-.22-.91-1.04-1.51-1.93-1.52,2.19-1.5,4.16-2.69,5.31-3.27,2.89-1.45,3.86-5.05,4.57-7.68.04-.14.08-.29.12-.44.04.48.03,1.07-.05,1.78-.57,1.17-1.06,2.38-1.41,3.53-.33,1.06.26,2.18,1.32,2.5,1.06.33,2.17-.26,2.5-1.32.19-.62.42-1.22.66-1.79.36-.29.62-.69.72-1.18.04-.18.06-.36.09-.53,1.38-2.62,3.04-4.42,3.85-4.7.07.99-.55,3.24-1.53,5.68-.02.04-.03.08-.05.12-.39.96-.83,1.94-1.31,2.89-.5.99-.1,2.19.89,2.69.29.15.6.21.9.21.73,0,1.44-.4,1.79-1.1.34-.68.68-1.39,1.01-2.11,2.17-.08,6.86-.19,12.31,0-.23.31-.38.68-.41,1.08-.04.72.31,1.41.91,1.8l.11.07-2.42.34c-.77.11-1.41.66-1.63,1.4-.23.74,0,1.55.58,2.07l1.52,1.36-3.73.46c-.74.09-1.37.58-1.63,1.28-.18.48-.17,1,.02,1.46l-3,.34c-.88.1-1.59.77-1.74,1.64-.14.82.24,1.64.95,2.07l-10.5,4.42c-.81.34-1.31,1.18-1.21,2.06l.27,2.51c-.2-.06-.42-.14-.65-.23-1.86-.75-3.11-1.64-4.22-2.42Zm17.62,20.53c.03,1.27.03,5.85-1.54,9.37-.4.9-1.01,2.24-1.67,3.49-.49-.35-1.06-.66-1.7-.9.19-.39.4-.79.61-1.23,1.82-3.75,1.39-9.09.8-16.49-.02-.22-.04-.45-.05-.68,1.38,2.26,2.64,4.35,3.56,6.44Zm-6.01,15.99c-.34-.17-.48-.29-.5-.29h0s0-.04,0-.06c.32.1.6.24.84.39,0,0,0,0,0,0-.07.03-.13.05-.33-.05Zm7.85,1.59s.05.03.07.04c-.03,0-.07,0-.09,0,0-.01.02-.03.02-.04Zm30.08-1.8c.08-.06.17-.12.25-.18.34.16.7.37.99.59-.15.04-.56-.02-1.24-.41Zm14.29,1.17c.04-.13.08-.28.13-.43.94-.09,1.87.04,2.56.2v.07c-.76.18-1.96.27-2.69.16Zm7.16-30.9c1.58,2.09.34,5.97-1.48,8.7-2.67,3.99-.77,7.07.48,9.11.21.34.42.68.6,1.01.03.87-1.65,3.49-3.52,5.48-.35.37-.54.86-.54,1.37v.92c-.32-.05-.66-.09-1.02-.12.04-.09.08-.19.11-.27,2-4.81,2.69-6.76,1.96-8.24-.58-1.18-2.09-2.4-4.73-4.46-.31-.24-.63-.49-.95-.75-.17-.93-.98-1.64-1.96-1.64-.01,0-.03,0-.04,0-.64-.55-1.24-1.09-1.72-1.59-3.05-3.2-8.92-9.59-13.98-16.47-.65-.89-1.9-1.08-2.79-.43-.89.65-1.08,1.9-.43,2.79,5.18,7.07,11.19,13.61,14.31,16.87.75.78,1.68,1.6,2.65,2.4v5.34c-.9,1.17-2.91,3.82-4.55,6.14,1.39-2.38,2.47-6.65.06-11.72-2.79-5.87-11.91-7.13-12.29-7.18-.7-.08-1.36.18-1.8.71-.32.39-.48.88-.46,1.38l-.27-.07c-.71-.17-1.45.06-1.94.6-.06.07-.12.14-.17.22-1.69-.91-3.62-1.65-5.29-1.48-1.13.12-2.08.63-2.74,1.48-2.63,3.33-2.51,8.31-2.41,12.3.05,1.9-.05,1.98-1.26,2.97-.5.41-1.11.91-1.82,1.62-.45.45-.79.91-1.07,1.35-.07-.05-.13-.09-.2-.13,1.51-2.6,1.98-5.27,1.27-10.22-.27-1.84-.82-3.58-1.54-5.28-.03-.08-.06-.15-.1-.22-1.1-2.53-2.58-4.96-4.12-7.47-.92-1.5-1.87-3.05-2.78-4.68-.47-.84-.91-1.54-1.34-2.12,0,0-.01-.02-.02-.02-1.28-1.7-2.5-2.31-4.22-2.18l-.15-1.43,13.15-5.54c.72-.3,1.2-1,1.22-1.78,0-.2-.02-.39-.07-.58l1.22-.14c.22-.03.42-.09.61-.19.02.32.12.65.31.94l1.48,2.28-1.24-.42c-.8-.27-1.69,0-2.21.66-.52.67-.57,1.59-.11,2.31l2.71,4.23c-.75.19-1.35.81-1.48,1.62-.18,1.09.56,2.12,1.65,2.3l3.49.57c.11.02.22.03.32.03.67,0,1.3-.33,1.67-.9.43-.66.44-1.51.01-2.18l-1.94-3.03,1.31.44c.81.27,1.7,0,2.22-.67.52-.67.56-1.6.1-2.32l-4.62-7.11c-.55-.85-1.63-1.13-2.52-.71-.02-.21-.06-.43-.14-.63l4.44-.54c.78-.1,1.43-.64,1.67-1.39.24-.75,0-1.57-.58-2.09l-1.6-1.43,3.47-.49c.83-.12,1.49-.74,1.67-1.55.18-.82-.17-1.66-.87-2.11l-1.63-1.05,1.96-.95c1.11.11,2.22.23,3.32.38,11.34,1.5,17.63,2.79,22.64,6.08,4.29,2.81,5.81,10.06,5.99,11.01.17,2.23,2.55,7.57,4.64,10.34Z"/>
  <path d="m86.57,49.59l.33.05c.83.13,1.66-.27,2.07-1.02.41-.74.3-1.66-.26-2.29l-4.03-4.52c-.73-.83-2-.9-2.82-.16-.82.73-.9,2-.16,2.82l.38.42c-.58.07-1.12.4-1.45.91-.43.67-.41,1.54.04,2.2l3.43,5.03h-.9c-.78,0-1.5.46-1.82,1.17-.32.71-.2,1.55.31,2.14l3.93,4.53c.4.46.95.69,1.51.69.46,0,.93-.16,1.31-.49.83-.72.92-1.99.2-2.82l-1.06-1.22h.3c.74,0,1.42-.41,1.77-1.07.35-.66.3-1.45-.12-2.06l-2.95-4.33Z"/>
  <path d="m95.87,56.65c-1,.47-1.42,1.67-.95,2.67l.43.9-2.02-.6c-.83-.25-1.73.07-2.22.79-.49.72-.46,1.67.07,2.36l1.38,1.77c-.72.3-1.23,1.01-1.23,1.85,0,1.1.9,2,2,2h3.21c.76,0,1.46-.44,1.8-1.12.32-.66.26-1.44-.17-2.04l.35.1c.76.22,1.58-.02,2.09-.62.51-.6.63-1.45.29-2.16l-2.36-4.96c-.47-1-1.67-1.42-2.67-.95Z"/>
  <path d="m54.66,58.85c-.4-1.03-1.56-1.55-2.58-1.15-1.03.4-1.55,1.55-1.15,2.58l1.9,4.94c-.74-.34-1.61-.2-2.2.36-.6.56-.79,1.43-.49,2.19l2.35,5.95c.31.79,1.06,1.26,1.86,1.26.24,0,.49-.05.74-.14,1.03-.41,1.53-1.57,1.12-2.6l-.5-1.27c.72.3,1.55.15,2.13-.38.6-.56.8-1.42.5-2.18l-3.68-9.57Z"/>
  <path d="m68.89,56.83c-.9.64-1.11,1.89-.47,2.79l1.29,1.82c-.64.25-1.13.81-1.25,1.53-.19,1.09.54,2.12,1.63,2.31l3.49.6c.11.02.23.03.34.03.68,0,1.32-.35,1.69-.93.43-.69.41-1.56-.06-2.22l-3.87-5.45c-.64-.9-1.88-1.12-2.79-.47Z"/>
  <path d="m74.33,44.4l1.92-1.36c.9-.64,1.11-1.89.47-2.79-.64-.9-1.89-1.11-2.79-.47l-3.82,2.71c-.48.34-.78.87-.83,1.45-.05.58.15,1.16.56,1.58l.04.04c-.79.27-1.36,1.01-1.36,1.89,0,1.1.9,2,2,2h.27l4.53,1.35c.19.06.38.08.57.08.69,0,1.34-.35,1.71-.96.47-.78.36-1.78-.28-2.43l-3-3.08Z"/>
</svg>