<svg id="Symbols" xmlns="http://www.w3.org/2000/svg" viewBox="0 0 150 150"><defs><style>.cls-1{fill:#231f20;}</style></defs><title>yabyum-bold</title><path id="yab_yum_bold" data-name="yab yum_bold" class="cls-1" d="M75,25a50,50,0,1,0,50,50A50.06,50.06,0,0,0,75,25ZM54.09,96.6a28,28,0,0,1,1-38.31q.1.45.24.9a20.27,20.27,0,0,0,3.88,7.16h0a89.51,89.51,0,0,0-4.3,11,15.36,15.36,0,0,0-1,5.21,3.26,3.26,0,0,0-2.4,1,3.31,3.31,0,0,0-.45,2.82c.69,3.39,3.83,6.28,6.62,8.24a37,37,0,0,0-3.65,2Zm3.85-40.78a.71.71,0,0,1,.21-.27.73.73,0,0,1,.31-.13s0,0,0,0c1.25-.31,4.48.88,10.27,5l-1.56.61c-1.86-1.38-5.89-4.24-8-4.81l-.26,1c1.39.38,4.41,2.22,7.89,4.81l.3-.4h0l-.29.39c1.9,1.42,3.63,2.81,4.88,3.94a4.4,4.4,0,0,1,.39.35h0l.61-.68c.47-.43,1.34-1.2,1.88-1.6l.4-.3-.3-.4c-1.78-2.4-1.79-3-1.7-3.14.19-.35,2.11-.16,2.74-.1l.55,0V59l1.91.65.16.06.15,0c.32-.11.63-.19.94-.27a7.4,7.4,0,0,1,3.28,1.22,6.86,6.86,0,0,0-2.38,3c-.77,1.45-2.18,1.55-3.81,1.67-1.37.09-2.79.19-3.79,1.21s-1.31,2.52-1.18,4.91a46.75,46.75,0,0,0,2.37,10.88c.77,2.49,1.56,5.07,1.07,5.58-.11.11-.41.12-.82,0l-2.51-.67,2.08,1.55a2.58,2.58,0,0,0,1.54.58,2.13,2.13,0,0,0,.9-.21c3.12-1.54,4-11.07,4-13.35.07-4.39.74-6.68,2-7a5.38,5.38,0,0,0,1.46-.64,7.06,7.06,0,0,0-1.8,4.44,18.79,18.79,0,0,1-1.84,8.82c-.19.47-.39.94-.58,1.43-.7,1.83.07,3.61.92,5.11l.31.53a6.21,6.21,0,0,1,.83,1.67h0C80.63,90.58,80,91,80,91l.52.86s.72-.44,1.74-1L82,90.39h0l.23.43a32.46,32.46,0,0,1,4-1.9L86,88a29,29,0,0,0-3.52,1.62h0a8.86,8.86,0,0,0-.87-1.7l0,0h0l1.33-.63.12,0c2.18-1,5.25-2.25,6.75-2.8.23.36.44.68.58.88-2.9,3-5.1,5.15-6.43,6.47L82.65,93c-2.51-.82-6,1-7,1.63A13,13,0,0,0,67.88,93,90.75,90.75,0,0,0,60,85.65l.34-.87a64.65,64.65,0,0,1,6.47,2.6l1.07.52a11.49,11.49,0,0,0-.82,1.24A27.71,27.71,0,0,0,64.44,88l-.34.94a31.93,31.93,0,0,1,3,1.33c1.51.79,2.79,1.55,2.8,1.56l.52-.86s-1.08-.64-2.43-1.36A13.14,13.14,0,0,1,69.05,88c.35-.45.77-.92,1.23-1.41,1.44-1.56.49-3.4-.72-5.72-.46-.91-1-1.9-1.44-3l.2.09.36-.94a7,7,0,0,1-1.2-.58,3.2,3.2,0,0,1-1.69-2.85,5.76,5.76,0,0,1,2.12-4,4.66,4.66,0,0,1,.59,1.8l1-.12a5.79,5.79,0,0,0-1-2.67A14.5,14.5,0,0,0,64.28,65c-.72-.47-1.46-1-2.17-1.5a10.4,10.4,0,0,1-4-5.45A3.32,3.32,0,0,1,57.94,55.82Zm10.18-7.73a5,5,0,0,1,1.4-1.62,7.36,7.36,0,0,1,2.86-1.34,9.15,9.15,0,0,1,4.29,0,6.89,6.89,0,0,1,2.57,1.17,5.05,5.05,0,0,1,1.39,1.49,5.65,5.65,0,0,1,.8,3,7.54,7.54,0,0,1-.11,1.4l-.5,0,0-.83,0-.83v-.83a3.19,3.19,0,0,0-2.32-1.9,4.63,4.63,0,0,0-3.87.77,5.78,5.78,0,0,0-4-.9,3.05,3.05,0,0,0-2.44,1.46l-.18.38,0,1.52L68,52.1l-.21.08A7.27,7.27,0,0,1,67.57,51h0A5,5,0,0,1,68.12,48.09ZM76.42,44a10.17,10.17,0,0,0-3.81,0A1,1,0,0,1,73,43a2.82,2.82,0,0,1,3-.09A1.05,1.05,0,0,1,76.42,44ZM97.05,84.39c.83,2.14-1.55,5.64-6.7,9.85A33.5,33.5,0,0,1,86.62,97a17.35,17.35,0,0,0-3-1.1c.42-.07.76-.12.93-.16,2.26-.52,11.15-4.35,11.6-12.43A2,2,0,0,1,97.05,84.39Zm-43-.85c.35,4.25,3.17,6.59,5.91,8.84l.24.2a19.22,19.22,0,0,0,5.32,3.16,14.86,14.86,0,0,0-2.94.63,34,34,0,0,1-3.48-2l-.28.42h0l.28-.41c-2.79-1.84-6.26-4.75-6.94-8.12A1.88,1.88,0,0,1,54,83.54ZM82.94,86.1a3.2,3.2,0,0,1,0-4,16.93,16.93,0,0,0,2.51-5.76,50.66,50.66,0,0,0,3.79,7.18C87.59,84.11,85,85.16,82.94,86.1ZM63.21,76.54a19.69,19.69,0,0,0,2.35,4.68c1.67,2.44,1.53,3.82,1.17,5a64.61,64.61,0,0,0-6-2.4C61.45,81.82,62.39,79.16,63.21,76.54ZM87.27,64.25a1.1,1.1,0,0,0,0-.18c0-1.6-.41-2.71-1.12-3.26l5.11-4.1-.62-.78-5.25,4.21a4,4,0,0,0-1.06-1.37h0c2.8-2.33,5.15-3.53,6.6-3.76a1.78,1.78,0,0,1,1.27.13,1.16,1.16,0,0,1,.38,1.11,5.05,5.05,0,0,1-.24,1.24C91.62,59.85,89.44,62.06,87.27,64.25ZM79,103c.52.18,2.4.82,4.83,1.56h0A27.66,27.66,0,0,1,75,106a27.36,27.36,0,0,1-6.69-.82Q73.1,104.32,79,103Zm16.46-5.93c-1.75-1.23-3.16-2.07-3.94-2.52C95.29,91.39,99.19,87.17,98,84a3,3,0,0,0-1.85-1.81,12.84,12.84,0,0,0-.5-3.16c-2-7.1-3.14-10.83-4.77-12.84h0a20.25,20.25,0,0,0,3.76-7c.09-.29.17-.59.24-.89a27.95,27.95,0,0,1,.62,38.77Zm-1-43.81A19.47,19.47,0,0,1,94,57.49c-.1.47-.22.94-.36,1.4a19.11,19.11,0,0,1-3.5,6.59h0a5.48,5.48,0,0,0-1.7-1h0c2.07-2.08,4.1-4.25,4.86-6.67a5.49,5.49,0,0,0,.19-.78c.32-1.6-.2-2.35-.74-2.71a3.42,3.42,0,0,0-2.94,0h0a20.63,20.63,0,0,0-6.4,4h0a5.42,5.42,0,0,0-2.61-.21A6.81,6.81,0,0,0,81,56.86a2.11,2.11,0,0,0,1.1-1,3.19,3.19,0,0,0,.06-2.62v0h0A10.45,10.45,0,0,0,82.43,51a6.76,6.76,0,0,0-1-3.76,5.49,5.49,0,0,0-.5-.69,7.18,7.18,0,0,0-3.58-2.29h0a2.07,2.07,0,0,0-.84-2.17,3.79,3.79,0,0,0-4.17.13,2,2,0,0,0-.74,2.07,7.42,7.42,0,0,0-3.86,2.52h0a5.28,5.28,0,0,0-.53.8,5.94,5.94,0,0,0-.63,3.66A7.15,7.15,0,0,0,67,52.91a2.61,2.61,0,0,0-.24,2,2.94,2.94,0,0,0,1.35,1.92,14.14,14.14,0,0,0,1.11,2.71c-3.19-2.27-6.84-4.53-9.36-5a2.91,2.91,0,0,0-2.26.24,2.12,2.12,0,0,0-.76,2,6.63,6.63,0,0,0,.3,1.59A11.09,11.09,0,0,0,61,63.9h0a7.54,7.54,0,0,0-1.2,1.53h0a19.18,19.18,0,0,1-3.46-6.53q-.21-.7-.36-1.41a19.47,19.47,0,0,1-.47-4.24c0-.21,0-.41,0-.62a19.49,19.49,0,0,1,39,0C94.5,52.83,94.5,53,94.5,53.25ZM75,117a42,42,0,0,1-4.44-83.76,20.06,20.06,0,0,0-6.51,2.68A20.4,20.4,0,0,0,54.5,53.25v.2A31.94,31.94,0,0,0,50.88,99h0a7.7,7.7,0,0,0-2.06,2.85,3.73,3.73,0,0,0,.17,3.07c.6,1.17,2.64,1.76,6.09,1.76a49.1,49.1,0,0,0,5.13-.32h0A32,32,0,0,0,90,106.24h0a39,39,0,0,0,5.49,1c.35,0,.69,0,1,0,2.41,0,4.09-.79,4.68-2.24.66-1.61-.25-3.64-2.43-5.44a.39.39,0,0,1-.1-.08h0a32,32,0,0,0-3.19-46v-.19A20.4,20.4,0,0,0,86,35.92a20.15,20.15,0,0,0-6.51-2.68A42,42,0,0,1,75,117Z"/></svg>