<svg id="Symbols" xmlns="http://www.w3.org/2000/svg" viewBox="0 0 150 150"><defs><style>.cls-1{fill:#231f20;}</style></defs><title>darpana-bold</title><g id="darpana_bold"><path class="cls-1" d="M131.25,39.56l-7.93-1.05c-.27,2.08-4.41,2.59-5.75,2.63A7.6,7.6,0,0,0,111,44.47a7.42,7.42,0,0,0,3.88,12.19c-4.6.79-6.84,3.24-7.84,4.86a8.68,8.68,0,0,0-.25,8.78,9,9,0,0,0,8.08,4.53c1.41,0,3.49.78,3.49,2.45s-2.64,3.61-6.27,4.51c-5.63,1.39-13,.36-16.73-4.89a7.81,7.81,0,0,0-.77-1.78,5.26,5.26,0,0,0,2.11.81,1.15,1.15,0,0,0,.89-.38c.67-.76.12-1.64-.78-2.93a6.44,6.44,0,0,0,2,.56,1.16,1.16,0,0,0,1-.5c.58-.83-.08-1.64-1.12-2.82a8,8,0,0,0,1.82.33,1.23,1.23,0,0,0,1.19-.63c.47-.89-.27-1.61-1.46-2.66a12.74,12.74,0,0,0,1.48.13c.79,0,1.28-.27,1.48-.8.36-.94-.47-1.57-1.77-2.46h.11c1.29,0,2.5,0,2.75-1s-.66-1.5-2.06-2.23c.41-.05.77-.1,1.1-.16a2.64,2.64,0,0,1-1.51-.54c-.09-.08-.19-.15-.27-.23a2.66,2.66,0,0,1-.79-1.9v-.15a2.52,2.52,0,0,1,.24-1,2.59,2.59,0,0,1,.88-1.06,2.66,2.66,0,0,1-.88-1.06,2.61,2.61,0,0,1-.24-1v-.16a2.68,2.68,0,0,1,.79-1.9,2.88,2.88,0,0,1,.27-.22,2.67,2.67,0,0,1,1.51-.55c-.32-.06-.69-.11-1.1-.15,1.4-.73,2.3-1.25,2.06-2.23s-1.46-1-2.74-1h-.12c1.3-.9,2.13-1.52,1.78-2.47-.2-.52-.7-.79-1.49-.79a12.41,12.41,0,0,0-1.47.13c1.18-1,1.93-1.77,1.46-2.66a1.25,1.25,0,0,0-1.19-.64,8.71,8.71,0,0,0-1.83.33c1-1.18,1.7-2,1.13-2.81a1.19,1.19,0,0,0-1-.5,6.3,6.3,0,0,0-2,.56c.89-1.3,1.45-2.18.78-2.93a1.16,1.16,0,0,0-.89-.38,5.15,5.15,0,0,0-2.11.81c.73-1.4,1.17-2.34.42-3a1.18,1.18,0,0,0-.77-.28,4.39,4.39,0,0,0-2.16,1.06c.57-1.47.89-2.46.06-3a1.14,1.14,0,0,0-.65-.2c-.61,0-1.15.43-2.16,1.33.38-1.53.58-2.55-.31-3a1.18,1.18,0,0,0-.52-.13c-.67,0-1.19.52-2.14,1.59.2-1.56.28-2.6-.66-3l-.18-.06h-.22c-.76,0-1.25.65-2.07,1.85,0-1.58,0-2.62-1-2.86l-.12,0H82c-.83,0-1.26.75-2,2.1,0-.41-.1-.78-.16-1.1a2.69,2.69,0,0,1-.54,1.51l-.22.27a2.68,2.68,0,0,1-1.9.79H77a2.56,2.56,0,0,1-1-.24A2.67,2.67,0,0,1,75,28.59a2.67,2.67,0,0,1-1.06.88,2.61,2.61,0,0,1-1,.24h-.16a2.64,2.64,0,0,1-1.89-.79,2.76,2.76,0,0,1-.23-.27,2.69,2.69,0,0,1-.54-1.51c-.06.32-.11.69-.16,1.09-.7-1.35-1.13-2.09-2-2.09h-.12l-.15,0c-1,.24-1,1.27-1,2.85-.82-1.19-1.31-1.84-2.06-1.84H64.5l-.21.07c-.94.36-.87,1.39-.67,3-.95-1.07-1.47-1.59-2.13-1.59a1.19,1.19,0,0,0-.53.13c-.89.47-.69,1.49-.3,3-1-.9-1.56-1.33-2.17-1.33a1.16,1.16,0,0,0-.65.2c-.83.57-.5,1.56.06,3a4.4,4.4,0,0,0-2.16-1.07,1.13,1.13,0,0,0-.77.29c-.75.67-.31,1.61.43,3a5.26,5.26,0,0,0-2.11-.81,1.16,1.16,0,0,0-.89.39c-.67.75-.12,1.63.78,2.93a6.53,6.53,0,0,0-2-.57,1.18,1.18,0,0,0-1,.5c-.58.83.08,1.64,1.12,2.82a8.63,8.63,0,0,0-1.82-.33,1.24,1.24,0,0,0-1.19.63c-.47.89.27,1.62,1.46,2.66A12.52,12.52,0,0,0,48.24,44c-.79,0-1.28.26-1.48.79-.36.94.47,1.57,1.77,2.46h-.11c-1.29,0-2.5,0-2.75,1s.66,1.5,2.06,2.23c-.41,0-.77.09-1.1.15a2.72,2.72,0,0,1,1.51.55,2.88,2.88,0,0,1,.27.22,2.68,2.68,0,0,1,.79,1.9v.16a2.61,2.61,0,0,1-.24,1,2.66,2.66,0,0,1-.88,1.06A2.59,2.59,0,0,1,49,56.58a2.56,2.56,0,0,1,.24,1v.15a2.66,2.66,0,0,1-.79,1.9c-.08.08-.18.15-.27.23a2.66,2.66,0,0,1-1.51.54c.32.06.69.11,1.1.16-1.4.73-2.3,1.25-2.06,2.23s1.46,1,2.74,1h.12c-1.3.89-2.13,1.52-1.78,2.46.2.53.7.79,1.49.79a12.2,12.2,0,0,0,1.47-.12c-1.18,1-1.93,1.76-1.46,2.66a1.27,1.27,0,0,0,1.19.63,8.71,8.71,0,0,0,1.83-.33c-1.05,1.18-1.7,2-1.13,2.82a1.21,1.21,0,0,0,1,.5,6.38,6.38,0,0,0,2-.57c-.89,1.3-1.45,2.18-.78,2.93a1.17,1.17,0,0,0,.89.39,5.15,5.15,0,0,0,2.11-.81,8,8,0,0,0-.77,1.78c-3.75,5.25-11.09,6.28-16.72,4.89-3.63-.9-6.27-2.79-6.27-4.51s2.08-2.45,3.49-2.45A9,9,0,0,0,43.2,70.3,8.68,8.68,0,0,0,43,61.52a10.92,10.92,0,0,0-7.82-4.86A7.43,7.43,0,0,0,39,44.47a7.6,7.6,0,0,0-6.53-3.33c-.88,0-5.49-.39-5.78-2.63l-7.93,1.05c1,7.49,8.8,9.53,13.56,9.58a10.51,10.51,0,0,1-2.27.2h-.23c-5.46.31-8.25,4.25-8.1,7.79.15,3.73,3.44,7.4,9.57,7.29,2.92-.14,4.45.62,4.87,1.31a.64.64,0,0,1,.06.67c-.21.37-.77.42-1.09.42-5.65,0-11.49,3.91-11.49,10.45,0,3.82,2.14,7.19,5.84,9.56H27.85a3.36,3.36,0,0,0-3.35,3.35v1a3.33,3.33,0,0,0,2.59,3.26l1.15.69.1,1.77c0,.22,0,.46.08.68A24.09,24.09,0,0,0,38.6,114.33l.24.18a29.8,29.8,0,0,0,3.41,2.1l.44.23h3.73V119H38.68l-4.81,3.14a2.93,2.93,0,0,0,.06,5.86h82.14a2.93,2.93,0,0,0,.06-5.86L111.32,119h-7.74v-2.14h3.71l.43-.22a26.9,26.9,0,0,0,3.43-2.11l.23-.18h0c5.84-4.26,9.46-10.18,10.19-16.7,0-.23.06-.45.08-.67l.11-1.93.77-.46a3.35,3.35,0,0,0,3-3.33v-1a3.36,3.36,0,0,0-3.35-3.35h-1.62c3.7-2.37,5.84-5.74,5.84-9.56,0-6.54-5.84-10.45-11.49-10.45-.32,0-.88,0-1.09-.42a.64.64,0,0,1,.06-.67c.42-.69,2-1.45,5-1.3,6,.13,9.33-3.57,9.48-7.3.15-3.54-2.64-7.48-8.1-7.79H120a10.51,10.51,0,0,1-2.27-.2C122.45,49.09,130.26,47,131.25,39.56ZM85.36,82.83h0c-.27,0-.82-.82-1.38-1.63.48-.17,1-.34,1.43-.54C85.49,81.7,85.61,82.73,85.36,82.83Zm-3.37,1h0c-.27,0-.73-.89-1.19-1.78.5-.11,1-.23,1.48-.37C82.25,82.77,82.26,83.81,82,83.88Zm5.65-4.28a18.88,18.88,0,0,0,1,1.64l-.08.14h-.06c-.28,0-.91-.72-1.55-1.44Zm9.22-4.72-.15.05a6.62,6.62,0,0,1-1.87-.81c.35-.37.69-.75,1-1.14C96.45,73.83,97,74.68,96.86,74.88ZM99,72.11s-.1.07-.2.07a7.6,7.6,0,0,1-1.89-.59c.21-.28.42-.57.62-.86.08-.13.16-.26.25-.39C98.5,71.11,99.19,71.89,99,72.11Zm1.83-3c0,.07-.15.1-.31.1a10.08,10.08,0,0,1-1.83-.36c.06-.12.13-.23.2-.35.18-.33.35-.66.51-1C100.21,68.17,101,68.85,100.86,69.09Zm1.45-3.21c0,.11-.25.15-.55.15s-1-.08-1.61-.15c.2-.47.38-.95.54-1.43C101.55,65,102.41,65.62,102.31,65.88Zm1-3.37c-.06.23-.87.26-1.78.26h-.36c.13-.49.25-1,.36-1.48C102.5,61.77,103.42,62.24,103.36,62.51Zm-1.77-14.24c.9,0,1.71,0,1.77.26s-.85.74-1.78,1.22c-.1-.5-.23-1-.36-1.48Zm.17-3.26c.3,0,.51,0,.55.15.1.26-.76.84-1.62,1.43-.16-.48-.34-1-.53-1.43C100.75,45.09,101.35,45,101.76,45Zm-1.2-3.17c.16,0,.27,0,.3.1.13.25-.65.93-1.43,1.61-.22-.45-.46-.9-.71-1.34A10.18,10.18,0,0,1,100.56,41.84Zm-1.72-3a.24.24,0,0,1,.2.07c.15.22-.54,1-1.23,1.77-.28-.42-.57-.84-.87-1.25A7.64,7.64,0,0,1,98.84,38.86Zm-2.12-2.75.14,0c.18.21-.41,1.06-1,1.91q-.49-.59-1-1.14A6.53,6.53,0,0,1,96.72,36.11Zm-2.46-2.48.11,0c.2.18-.28,1.1-.77,2q-.55-.52-1.14-1A5.88,5.88,0,0,1,94.26,33.63Zm-2.75-2.17.08,0c.23.16-.14,1.13-.52,2.1-.4-.3-.82-.59-1.25-.87C90.52,32.09,91.22,31.46,91.51,31.46Zm-3-1.82.06,0c.24.13,0,1.13-.27,2.14-.44-.25-.89-.49-1.34-.71C87.6,30.36,88.24,29.64,88.52,29.64Zm-3.2-1.44h0c.26.09.13,1.12,0,2.15-.47-.19-1-.37-1.43-.54C84.49,29,85,28.2,85.32,28.2ZM82,27.15h0c.27.06.27,1.1.26,2.14-.49-.13-1-.26-1.48-.37C81.23,28,81.69,27.15,82,27.15Zm-7,6.11A22.26,22.26,0,1,1,52.74,55.52,22.28,22.28,0,0,1,75,33.26ZM62.36,79.6,63,80c-.63.72-1.27,1.44-1.55,1.44h-.06l-.07-.13C61.7,80.72,62,80.18,62.36,79.6Zm2.28,1.07c.47.19,1,.37,1.43.54-.56.81-1.11,1.62-1.39,1.62h0C64.38,82.73,64.51,81.7,64.64,80.67Zm3.11,1.06c.49.14,1,.26,1.48.37-.46.89-.92,1.78-1.19,1.78h0C67.74,83.81,67.74,82.77,67.75,81.73ZM68,27.16h0c.27,0,.73.89,1.19,1.78-.5.11-1,.23-1.48.37C67.75,28.26,67.74,27.22,68,27.16Zm-3.37,1.05h0c.27,0,.82.81,1.38,1.62-.48.17-1,.35-1.43.54C64.51,29.33,64.39,28.3,64.64,28.21Zm-3.21,1.44h.06c.28,0,.91.72,1.55,1.44q-.69.34-1.35.72C61.44,30.79,61.18,29.78,61.43,29.65Zm-3,1.83.08,0c.3,0,1,.62,1.7,1.25-.43.28-.85.56-1.26.86C58.56,32.6,58.18,31.64,58.41,31.48Zm-2.77,2.18.1,0a5.74,5.74,0,0,1,1.8,1c-.39.33-.77.67-1.14,1C55.92,34.76,55.43,33.84,55.64,33.66Zm-2.5,2.49.15,0a6.73,6.73,0,0,1,1.87.82c-.35.37-.69.75-1,1.14C53.55,37.2,53,36.35,53.14,36.15ZM51,38.92a.25.25,0,0,1,.2-.07,8.06,8.06,0,0,1,1.89.59q-.45.62-.87,1.26C51.5,39.92,50.81,39.15,51,38.92Zm-1.83,3c0-.07.15-.1.31-.1a10.08,10.08,0,0,1,1.83.36c-.25.44-.49.89-.71,1.35C49.79,42.87,49,42.18,49.14,41.94Zm-1.45,3.22c0-.11.25-.15.55-.15a13.75,13.75,0,0,1,1.61.15c-.2.47-.38.94-.54,1.42C48.45,46,47.59,45.41,47.69,45.16Zm-1,3.37c.06-.24.87-.27,1.78-.27h.36c-.13.49-.25,1-.36,1.49C47.5,49.27,46.58,48.79,46.64,48.53Zm1.77,14.24c-.9,0-1.71,0-1.77-.26s.85-.75,1.78-1.22c.1.5.23,1,.36,1.48ZM48.24,66c-.3,0-.51,0-.55-.15s.76-.84,1.62-1.42c.16.48.34,1,.53,1.42A13.6,13.6,0,0,1,48.24,66Zm1.2,3.17c-.16,0-.27,0-.3-.1-.13-.24.65-.93,1.43-1.61.16.34.33.67.51,1,.06.12.13.23.2.35A10,10,0,0,1,49.44,69.19Zm1.72,3a.28.28,0,0,1-.2-.07c-.15-.23.54-1,1.23-1.78.09.13.17.27.25.4.2.29.41.57.62.86A8.11,8.11,0,0,1,51.16,72.18Zm2.12,2.75-.14-.05c-.18-.21.41-1.06,1-1.91q.49.59,1,1.14A6.63,6.63,0,0,1,53.28,74.93Zm52.66,30.43v.06c-.44,2.08-1.11,4.59-2,7.42H99.13c.67-2.74,1.15-5.08,1.47-7.11v-.07a24.27,24.27,0,0,1,2.85-6.82h3.1a20.21,20.21,0,0,1-.62,6.52Zm-59.88,7.48c-.83-2.75-1.49-5.22-2-7.32a20.82,20.82,0,0,1-.65-6.68h3.08a24.57,24.57,0,0,1,2.87,6.86v0c.32,2,.8,4.37,1.47,7.11ZM35.91,101.25a21.54,21.54,0,0,0-1.45-2.41h1.35A11.47,11.47,0,0,0,35.91,101.25Zm63.72,4.19v0l0,.11c-.32,2.06-.82,4.45-1.51,7.26H93.26c.5-2.68.86-5.09,1.07-7.18a23.24,23.24,0,0,1,2.45-6.82h3.1a19.5,19.5,0,0,1-.24,6.59h0Zm-49.24.07a20,20,0,0,1-.27-6.67h3.11a22.42,22.42,0,0,1,2.44,6.75v0c.2,2.08.56,4.5,1.07,7.2H51.91c-.69-2.81-1.19-5.19-1.5-7.18Zm6.39-6.67H59.9A21.87,21.87,0,0,1,62,105.57v.11c.09,2,.33,4.44.69,7.16H57.77c-.52-2.74-.89-5.21-1.1-7.32A20,20,0,0,1,56.78,98.84Zm6.67,0h3.12a21.48,21.48,0,0,1,1.67,6.86h0c0,2,.07,4.44.27,7.14H63.65c-.37-2.75-.61-5.19-.7-7.28A20.1,20.1,0,0,1,63.45,98.84Zm9.78,0a21.33,21.33,0,0,1,1.27,6.82c-.13,2.09-.17,4.5-.12,7.18H69.51c-.2-2.71-.29-5.11-.27-7.16a20.89,20.89,0,0,1,.88-6.84Zm6.67,0a21,21,0,0,1,.88,6.76c0,2.05-.06,4.44-.28,7.24H75.38c0-2.67,0-5.08.12-7.15a21.44,21.44,0,0,1,1.28-6.85Zm6.67,0a19.85,19.85,0,0,1,.51,6.58l-.07.13.06.14c-.1,2.09-.34,4.5-.7,7.15H81.51c.21-2.78.3-5.16.27-7.24a21.76,21.76,0,0,1,1.67-6.76Zm6.65,0a20.29,20.29,0,0,1,.12,6.71c-.21,2.09-.58,4.55-1.1,7.29H87.38c.33-2.49.56-4.76.67-6.77v-.45a22,22,0,0,1,2.05-6.78Zm-30.75,18-1.89,1.44-1.88-1.44Zm5.23,0-1.88,1.44-1.89-1.44Zm5.24,0-1.89,1.44-1.89-1.44Zm5.24,0-1.89,1.44-1.89-1.44Zm5.24,0-1.89,1.44-1.89-1.44Zm5.24,0-1.89,1.44-1.89-1.44Zm5.24,0L92,118.28l-1.89-1.44Zm7-18h1.37a19.15,19.15,0,0,0-1.22,2.48A12.2,12.2,0,0,0,100.9,98.84Zm-6.38,2.52a12.38,12.38,0,0,0-.28-2.52h1.38A18.69,18.69,0,0,0,94.52,101.36Zm-6.49,0a14.9,14.9,0,0,0-.42-2.54H89A16,16,0,0,0,88,101.38Zm-6.52,0A14,14,0,0,0,81,98.84h1.39A15.87,15.87,0,0,0,81.51,101.39Zm-6.51,0a14.28,14.28,0,0,0-.69-2.57H75.7A15.1,15.1,0,0,0,75,101.41Zm-6.49,0a15.29,15.29,0,0,0-.85-2.58h1.4A14.41,14.41,0,0,0,68.51,101.42Zm-6.51,0a16.07,16.07,0,0,0-1-2.55h1.4A13.13,13.13,0,0,0,62,101.39Zm-6.52,0a17.23,17.23,0,0,0-1.09-2.5h1.37A13,13,0,0,0,55.48,101.34Zm-6.52,0a18.06,18.06,0,0,0-1.23-2.49h1.38A12.35,12.35,0,0,0,49,101.33Zm-6.52,0a19.47,19.47,0,0,0-1.34-2.46h1.37A12.27,12.27,0,0,0,42.44,101.3Zm14.8,15.54-1.89,1.44-1.88-1.44ZM54.62,119H50.85l1.89-1.44ZM58,117.54,59.85,119H56.08Zm5.23,0L65.09,119H61.31Zm5.23,0L70.32,119H66.55Zm5.24,0L75.56,119H71.78Zm5.24,0L80.8,119H77Zm5.24,0L86,119H82.26Zm5.24,0L91.28,119H87.5Zm5.24,0L96.52,119H92.74Zm.73-.7h3.78l-1.89,1.44Zm12.19-18h1.36a21.24,21.24,0,0,0-1.34,2.44A11.47,11.47,0,0,0,107.55,98.84Zm6.65,0h1.37a21,21,0,0,0-1.47,2.43A11,11,0,0,0,114.2,98.84Zm-81.54,0h.55a27.75,27.75,0,0,1,3.66,6.94v0c.19.69.41,1.44.64,2.21A19.45,19.45,0,0,1,32.66,98.84Zm11,14a26.11,26.11,0,0,1-2.32-1.44l-.24-.18a25,25,0,0,1-2.09-1.7c-.47-1.44-.88-2.79-1.22-4a21,21,0,0,1-1-6.65h3.07a26,26,0,0,1,3.26,6.89c.44,2.06,1.07,4.45,1.88,7.11Zm8.32,4-1.59,1.21v-1.21ZM110.12,123l1.54,1H38.34l1.54-1ZM98,119l1.6-1.22V119Zm10.67-7.64-.05.07a21.43,21.43,0,0,1-2.29,1.43H105c.82-2.74,1.45-5.17,1.88-7.21a25.91,25.91,0,0,1,3.23-6.79h3.09a21,21,0,0,1-1,6.71c-.33,1.22-.74,2.55-1.2,4a24.39,24.39,0,0,1-2,1.67ZM112.5,108c.23-.75.44-1.49.63-2.18a28,28,0,0,1,3.69-7h.52A19.44,19.44,0,0,1,112.5,108ZM121,90.84l-1.66,1H30.43l-1.66-1Zm-43.35-4h-1a1.39,1.39,0,0,0-.12-.28,2.66,2.66,0,0,1-1.33-.86l0,0-.12,0-.12,0,0,0a2.66,2.66,0,0,1-1.33.86,1.39,1.39,0,0,0-.12.28H55.48a19.62,19.62,0,0,0,5.26-4.73l.22.15a1.06,1.06,0,0,0,.52.13c.67,0,1.19-.52,2.14-1.59-.2,1.57-.28,2.6.66,3l.18.07h.22c.76,0,1.25-.65,2.07-1.84,0,1.58,0,2.62,1,2.86l.12,0H68c.83,0,1.26-.74,2-2.09,0,.4.1.77.16,1.1a2.64,2.64,0,0,1,.54-1.51,1.49,1.49,0,0,1,.23-.27,2.64,2.64,0,0,1,1.89-.8l.16,0a2.76,2.76,0,0,1,1,.23,2.67,2.67,0,0,1,1.06.88,2.67,2.67,0,0,1,1.06-.88,2.81,2.81,0,0,1,1-.23l.16,0a2.64,2.64,0,0,1,1.89.8,1.49,1.49,0,0,1,.23.27,2.64,2.64,0,0,1,.54,1.51c.06-.33.11-.7.16-1.1.7,1.35,1.13,2.09,2,2.09h.12l.15,0c1-.24,1-1.28,1-2.86.82,1.19,1.31,1.85,2.06,1.85h.19l.21-.08c.94-.35.87-1.39.67-3,1,1.08,1.47,1.59,2.13,1.59a1.07,1.07,0,0,0,.53-.13l.22-.15a19.73,19.73,0,0,0,5.25,4.73Z"/><path class="cls-1" d="M75,76.78A21.26,21.26,0,1,0,53.74,55.52,21.29,21.29,0,0,0,75,76.78Zm0-40.47A19.21,19.21,0,1,1,55.8,55.52,19.23,19.23,0,0,1,75,36.31Z"/><path class="cls-1" d="M75,44.56a2.18,2.18,0,1,0-2.18-2.18A2.19,2.19,0,0,0,75,44.56Z"/><circle class="cls-1" cx="75" cy="68.65" r="2.18"/><path class="cls-1" d="M88.14,57.69A2.18,2.18,0,1,0,86,55.52,2.17,2.17,0,0,0,88.14,57.69Z"/><path class="cls-1" d="M61.86,57.69a2.18,2.18,0,1,0-2.17-2.17A2.18,2.18,0,0,0,61.86,57.69Z"/><path class="cls-1" d="M43.18,57.19A1.62,1.62,0,0,0,44,57a2.67,2.67,0,0,1,.86-1.34l0,0V55.4l0,0A2.62,2.62,0,0,1,44,54a1.74,1.74,0,0,0-.78-.2,1.68,1.68,0,1,0,0,3.35Z"/><path class="cls-1" d="M45.35,54.53a1.38,1.38,0,0,0,.4.28,1.57,1.57,0,0,0,.78.21,1.68,1.68,0,0,0,1.67-1.68l0-.25A1.73,1.73,0,0,0,48,52.5a1.69,1.69,0,0,0-1.28-.82l-.16,0a1.71,1.71,0,0,0-1.68,1.68v.12A1.65,1.65,0,0,0,45.35,54.53Z"/><path class="cls-1" d="M46.53,56a1.56,1.56,0,0,0-.78.2,1.91,1.91,0,0,0-.4.28,1.7,1.7,0,0,0-.49,1.08v.11a1.7,1.7,0,0,0,1.68,1.68l.15,0A1.68,1.68,0,0,0,48,58.54h0a1.71,1.71,0,0,0,.21-.6l0-.25a1.63,1.63,0,0,0-.37-1A1.69,1.69,0,0,0,46.53,56Z"/><path class="cls-1" d="M105.16,55.63l0,0A2.67,2.67,0,0,1,106,57a1.62,1.62,0,0,0,.78.2,1.68,1.68,0,1,0,0-3.35,1.74,1.74,0,0,0-.78.2,2.62,2.62,0,0,1-.86,1.34l0,0v.23Z"/><path class="cls-1" d="M103.32,51.68a1.66,1.66,0,0,0-1.29.82,1.73,1.73,0,0,0-.21.59l0,.25A1.68,1.68,0,0,0,103.47,55a1.57,1.57,0,0,0,.78-.21,1.38,1.38,0,0,0,.4-.28,1.65,1.65,0,0,0,.49-1.07v-.12a1.73,1.73,0,0,0-.25-.87,1.68,1.68,0,0,0-1.43-.81Z"/><path class="cls-1" d="M104.25,56.22a1.56,1.56,0,0,0-.78-.2,1.69,1.69,0,0,0-1.3.63,1.63,1.63,0,0,0-.37,1l0,.25a1.71,1.71,0,0,0,.21.6h0a1.68,1.68,0,0,0,1.28.81l.16,0a1.67,1.67,0,0,0,1.43-.81,1.73,1.73,0,0,0,.25-.87v-.11a1.7,1.7,0,0,0-.49-1.08A1.91,1.91,0,0,0,104.25,56.22Z"/><path class="cls-1" d="M72.82,82.31l-.25,0a1.55,1.55,0,0,0-.59.21,1.68,1.68,0,0,0-.82,1.28V84a1.66,1.66,0,0,0,.8,1.42,1.61,1.61,0,0,0,.87.25h.12A1.65,1.65,0,0,0,74,85.16a1.84,1.84,0,0,0,.28-.39,1.7,1.7,0,0,0,.2-.78,1.7,1.7,0,0,0-1.68-1.68Z"/><path class="cls-1" d="M78,82.55a1.55,1.55,0,0,0-.59-.21l-.25,0A1.7,1.7,0,0,0,75.5,84a1.7,1.7,0,0,0,.2.78,1.84,1.84,0,0,0,.28.39,1.65,1.65,0,0,0,1.08.49h.12a1.61,1.61,0,0,0,.87-.25,1.66,1.66,0,0,0,.8-1.42v-.16A1.68,1.68,0,0,0,78,82.55Z"/><path class="cls-1" d="M74.86,25.33l0,0h.24l0,0a2.66,2.66,0,0,1,1.33-.86,1.57,1.57,0,0,0,.21-.78,1.68,1.68,0,0,0-3.36,0,1.57,1.57,0,0,0,.21.78A2.66,2.66,0,0,1,74.86,25.33Z"/><path class="cls-1" d="M72,28.49a2,2,0,0,0,.59.21l.25,0a1.63,1.63,0,0,0,1.05-.38,1.65,1.65,0,0,0,.63-1.29,1.74,1.74,0,0,0-.2-.79,2.14,2.14,0,0,0-.28-.39,1.7,1.7,0,0,0-1.08-.49h-.12a1.61,1.61,0,0,0-.87.25,1.68,1.68,0,0,0-.8,1.43v.15A1.71,1.71,0,0,0,72,28.49Z"/><path class="cls-1" d="M75.7,26.26a1.74,1.74,0,0,0-.2.79,1.65,1.65,0,0,0,.63,1.29,1.63,1.63,0,0,0,1.05.38l.25,0a2,2,0,0,0,.59-.21,1.71,1.71,0,0,0,.82-1.29v-.15a1.68,1.68,0,0,0-.8-1.43,1.61,1.61,0,0,0-.87-.25h-.12a1.7,1.7,0,0,0-1.08.49A2.14,2.14,0,0,0,75.7,26.26Z"/></g></svg>