<svg id="Symbols" xmlns="http://www.w3.org/2000/svg" viewBox="0 0 150 150"><defs><style>.cls-1{fill:#231f20;}</style></defs><title>sarshapa-bold</title><g id="sarshapa_bold"><path class="cls-1" d="M122.83,68.49l.27-1.18L76,40.71,75,40.13,28.24,66.55a2.08,2.08,0,0,0-1,1.94,3.35,3.35,0,0,0-2.7,3.28v1a3.34,3.34,0,0,0,2.59,3.26l1.15.69.1,1.78c0,.22,0,.45.08.67a24.09,24.09,0,0,0,10.19,16.7l.23.17a28.45,28.45,0,0,0,3.41,2.1l.44.23H46v2.15H38.69l-4.82,3.14a2.93,2.93,0,0,0,.06,5.86h82.14a2.93,2.93,0,0,0,.06-5.86l-4.82-3.14H104V98.42h3.29l.43-.22a25.81,25.81,0,0,0,3.43-2.11l.22-.16c5.86-4.26,9.48-10.19,10.21-16.72,0-.22.06-.45.08-.67l.11-1.92.77-.47a3.35,3.35,0,0,0,3-3.33v-1A3.36,3.36,0,0,0,122.83,68.49Zm-3.51,4.93H30.43l-1.66-1H121Zm-76.21-7H40.89a1.47,1.47,0,0,1-.39-1,1.5,1.5,0,0,1,3,0A1.47,1.47,0,0,1,43.11,66.42Zm-3.4,0H38.29a2.52,2.52,0,0,0,.21-1s0,0,0-.06l1.12-.64a2.76,2.76,0,0,0-.11.7A2.52,2.52,0,0,0,39.71,66.42Zm6.79-1a1.5,1.5,0,0,1,3,0,1.47,1.47,0,0,1-.39,1H46.89A1.47,1.47,0,0,1,46.5,65.42Zm6,0a1.5,1.5,0,0,1,3,0,1.47,1.47,0,0,1-.39,1H52.89A1.47,1.47,0,0,1,52.5,65.42Zm6,0a1.5,1.5,0,0,1,3,0,1.47,1.47,0,0,1-.39,1H58.89A1.47,1.47,0,0,1,58.5,65.42Zm6,0a1.5,1.5,0,0,1,3,0,1.47,1.47,0,0,1-.39,1H64.89A1.47,1.47,0,0,1,64.5,65.42Zm6,0a1.5,1.5,0,0,1,3,0,1.47,1.47,0,0,1-.39,1H70.89A1.47,1.47,0,0,1,70.5,65.42Zm6,0a1.5,1.5,0,0,1,3,0,1.47,1.47,0,0,1-.39,1H76.89A1.47,1.47,0,0,1,76.5,65.42Zm6,0a1.5,1.5,0,0,1,3,0,1.47,1.47,0,0,1-.39,1H82.89A1.47,1.47,0,0,1,82.5,65.42Zm6,0a1.5,1.5,0,0,1,3,0,1.47,1.47,0,0,1-.39,1H88.89A1.47,1.47,0,0,1,88.5,65.42Zm6,0a1.5,1.5,0,0,1,3,0,1.47,1.47,0,0,1-.39,1H94.89A1.47,1.47,0,0,1,94.5,65.42Zm6,0a1.5,1.5,0,0,1,3,0,1.47,1.47,0,0,1-.39,1h-2.22A1.47,1.47,0,0,1,100.5,65.42Zm6,0a1.5,1.5,0,0,1,3,0,1.47,1.47,0,0,1-.39,1h-2.22A1.47,1.47,0,0,1,106.5,65.42Zm3.89-.7,1.12.64s0,0,0,.06a2.52,2.52,0,0,0,.21,1h-1.42a2.52,2.52,0,0,0,.21-1A2.76,2.76,0,0,0,110.39,64.72Zm2.5,1.7a1.57,1.57,0,0,1-.28-.44l.79.44Zm-7.54-4.54a2,2,0,0,1-.35,0,1.49,1.49,0,0,1-1.42-1.05Zm-4.85-1.46a1.5,1.5,0,1,1-1.5-1.5A1.5,1.5,0,0,1,100.5,60.42Zm-4-3.57a1.63,1.63,0,0,1-.45.07,1.5,1.5,0,0,1-1.46-1.15Zm-5-1.43a1.5,1.5,0,1,1-1.5-1.5A1.5,1.5,0,0,1,91.5,55.42Zm-4-3.6a1.63,1.63,0,0,1-.55.1,1.5,1.5,0,0,1-1.48-1.25Zm-5-1.4a1.5,1.5,0,1,1-1.5-1.5A1.5,1.5,0,0,1,82.5,50.42Zm-3.86-3.64a1.53,1.53,0,0,1-.64.14,1.49,1.49,0,0,1-1.48-1.34ZM75,44.72l.55.32a2.32,2.32,0,0,0,0,.38,2.49,2.49,0,0,0,4.11,1.9l1.11.63a2.49,2.49,0,1,0,2.78,2.47,2.35,2.35,0,0,0-.23-1l1.27.72c0,.1,0,.2,0,.3a2.49,2.49,0,0,0,4,2l1,.59a2.49,2.49,0,1,0,2.91,2.45,2.54,2.54,0,0,0-.18-.91l1.21.69a1.66,1.66,0,0,0,0,.22,2.5,2.5,0,0,0,2.5,2.5,2.46,2.46,0,0,0,1.48-.49l1,.55a2.5,2.5,0,1,0,3,2.44,2.37,2.37,0,0,0-.15-.8l1.17.66s0,.09,0,.14a2.5,2.5,0,0,0,3.92,2.06l1,.54a2.48,2.48,0,0,0-1.66,3.4h-1.42a2.5,2.5,0,1,0-4.58,0H98.29a2.5,2.5,0,1,0-4.58,0H92.29a2.5,2.5,0,1,0-4.58,0H86.29a2.5,2.5,0,1,0-4.58,0H80.29a2.5,2.5,0,1,0-4.58,0H74.29a2.5,2.5,0,1,0-4.58,0H68.29a2.5,2.5,0,1,0-4.58,0H62.29a2.5,2.5,0,1,0-4.58,0H56.29a2.5,2.5,0,1,0-4.58,0H50.29a2.5,2.5,0,1,0-4.58,0H44.29A2.48,2.48,0,0,0,42.63,63l.95-.54a2.5,2.5,0,0,0,3.92-2.06c0-.05,0-.09,0-.14l1.17-.66a2.37,2.37,0,0,0-.15.8,2.5,2.5,0,1,0,3-2.44l1-.55a2.46,2.46,0,0,0,1.48.49,2.5,2.5,0,0,0,2.5-2.5,1.66,1.66,0,0,0,0-.22l1.21-.69a2.54,2.54,0,0,0-.18.91A2.5,2.5,0,1,0,60.41,53l1.05-.59a2.49,2.49,0,0,0,4-2c0-.1,0-.2,0-.3l1.27-.72a2.35,2.35,0,0,0-.23,1A2.5,2.5,0,1,0,69.28,48l1.11-.63a2.49,2.49,0,0,0,4.11-1.9,2.32,2.32,0,0,0,0-.38ZM46.42,60.87A1.49,1.49,0,0,1,45,61.92a2,2,0,0,1-.35,0ZM51,58.92a1.5,1.5,0,1,1-1.5,1.5A1.5,1.5,0,0,1,51,58.92Zm4.46-3.15A1.5,1.5,0,0,1,54,56.92a1.63,1.63,0,0,1-.45-.07ZM60,53.92a1.5,1.5,0,1,1-1.5,1.5A1.5,1.5,0,0,1,60,53.92Zm4.48-3.25A1.5,1.5,0,0,1,63,51.92a1.68,1.68,0,0,1-.55-.1ZM69,48.92a1.5,1.5,0,1,1-1.5,1.5A1.5,1.5,0,0,1,69,48.92Zm4.48-3.34A1.49,1.49,0,0,1,72,46.92a1.46,1.46,0,0,1-.63-.14ZM37.39,66a1.57,1.57,0,0,1-.28.44H36.6Zm68.55,21V87c-.44,2.09-1.11,4.59-2,7.42H99.13c.67-2.73,1.15-5.08,1.47-7.11v-.07a24.27,24.27,0,0,1,2.85-6.82h3.1a20.21,20.21,0,0,1-.62,6.52ZM46.06,94.42c-.83-2.75-1.49-5.22-2-7.32a20.8,20.8,0,0,1-.65-6.68h3.08a24.57,24.57,0,0,1,2.87,6.86v0c.32,2,.8,4.38,1.47,7.11ZM99.63,87v0l0,.11c-.32,2.06-.82,4.45-1.51,7.26H93.26c.5-2.68.86-5.09,1.07-7.17a23.22,23.22,0,0,1,2.45-6.83h3.1A19.5,19.5,0,0,1,99.64,87h0Zm-49.24.06a20,20,0,0,1-.27-6.67h3.11a22.42,22.42,0,0,1,2.44,6.75v.06c.2,2.07.56,4.49,1.07,7.19H51.91c-.69-2.81-1.19-5.19-1.5-7.18Zm6.39-6.67H59.9A21.87,21.87,0,0,1,62,87.15v.11c.09,2,.33,4.44.69,7.16H57.77c-.52-2.74-.89-5.2-1.1-7.32A20,20,0,0,1,56.78,80.42Zm6.67,0h3.12a21.49,21.49,0,0,1,1.67,6.87h0c0,2,.07,4.43.27,7.13H63.65c-.37-2.75-.61-5.19-.7-7.27A20.17,20.17,0,0,1,63.45,80.42Zm9.78,0a21.35,21.35,0,0,1,1.27,6.83c-.13,2.08-.17,4.5-.12,7.17H69.51c-.2-2.71-.29-5.12-.27-7.15a20.92,20.92,0,0,1,.88-6.85Zm6.67,0a21,21,0,0,1,.88,6.77c0,2-.06,4.45-.28,7.23H75.38c0-2.67,0-5.08.12-7.15a21.44,21.44,0,0,1,1.28-6.85Zm6.67,0A19.89,19.89,0,0,1,87.08,87l-.07.12.06.14c-.1,2.06-.34,4.51-.7,7.15H81.51c.21-2.78.3-5.16.27-7.24a21.83,21.83,0,0,1,1.67-6.76Zm6.65,0a19.73,19.73,0,0,1,.12,6.71c-.21,2.09-.58,4.55-1.1,7.29H87.38c.33-2.48.56-4.76.67-6.77v-.29a.76.76,0,0,0,0-.15,22,22,0,0,1,2.05-6.79Zm-30.75,18-1.89,1.45L58.7,98.42Zm5.23,0-1.88,1.45-1.89-1.45Zm5.24,0-1.89,1.45-1.89-1.45Zm5.24,0-1.89,1.45L74.4,98.42Zm5.24,0-1.89,1.45-1.89-1.45Zm5.24,0-1.89,1.45-1.89-1.45Zm5.24,0L92,99.87l-1.89-1.45Zm7-18h1.37a19.15,19.15,0,0,0-1.22,2.48A12.25,12.25,0,0,0,100.9,80.42Zm-6.38,2.52a12.38,12.38,0,0,0-.28-2.52h1.38A18.69,18.69,0,0,0,94.52,82.94ZM88,83a15,15,0,0,0-.42-2.55H89A16.17,16.17,0,0,0,88,83Zm-6.52,0A14.16,14.16,0,0,0,81,80.42h1.39A15.68,15.68,0,0,0,81.51,83ZM75,83a14.28,14.28,0,0,0-.69-2.57H75.7A15.1,15.1,0,0,0,75,83Zm-6.49,0a15.29,15.29,0,0,0-.85-2.58h1.4A14.41,14.41,0,0,0,68.51,83ZM62,83a16.07,16.07,0,0,0-1-2.55h1.4A13.13,13.13,0,0,0,62,83Zm-6.52,0a17.23,17.23,0,0,0-1.09-2.5h1.37A13,13,0,0,0,55.48,82.92Zm-6.52,0a17.67,17.67,0,0,0-1.23-2.5h1.38A12.46,12.46,0,0,0,49,82.92Zm-6.52,0a19.47,19.47,0,0,0-1.34-2.46h1.37A12.27,12.27,0,0,0,42.44,82.88Zm14.8,15.54-1.89,1.45-1.88-1.45Zm-2.62,2.15H50.85l1.89-1.45ZM58,99.12l1.88,1.45H56.08Zm5.23,0,1.89,1.45H61.31Zm5.23,0,1.89,1.45H66.55Zm5.24,0,1.89,1.45H71.78Zm5.24,0,1.89,1.45H77Zm5.24,0L86,100.57H82.26Zm5.24,0,1.89,1.45H87.5Zm5.24,0,1.89,1.45H92.74Zm.73-.7h3.78l-1.89,1.45Zm12.19-18h1.36a21.24,21.24,0,0,0-1.34,2.44A11.47,11.47,0,0,0,107.55,80.42Zm8,0a22.07,22.07,0,0,0-1.47,2.44,11.09,11.09,0,0,0,.1-2.44Zm-79.76,0a11.47,11.47,0,0,0,.1,2.41,21.54,21.54,0,0,0-1.45-2.41Zm-3.15,0h.55a27.75,27.75,0,0,1,3.66,6.94v0c.19.7.41,1.44.64,2.21A19.4,19.4,0,0,1,32.66,80.42ZM41.37,93l-.24-.18A23.11,23.11,0,0,1,39,91.1c-.47-1.44-.88-2.79-1.22-4a21.08,21.08,0,0,1-1-6.66h3.07a26.33,26.33,0,0,1,3.26,6.89c.44,2.06,1.07,4.45,1.88,7.11H43.69A26.11,26.11,0,0,1,41.37,93ZM52,98.42l-1.89,1.45-.12-.1V98.42Zm59.65,7.15H38.34l1.53-1h70.25Zm-13.68-5,1.89-1.45.13.1v1.35Zm10.68-7.64,0,0a20.7,20.7,0,0,1-2.3,1.44H105c.82-2.74,1.45-5.17,1.88-7.21a26.08,26.08,0,0,1,3.23-6.79h3.09a21,21,0,0,1-1,6.71c-.33,1.22-.74,2.55-1.2,4a23.63,23.63,0,0,1-2,1.66Zm3.84-3.35c.23-.75.44-1.48.63-2.18a28.17,28.17,0,0,1,3.69-7h.52A19.35,19.35,0,0,1,112.5,89.58Z"/><path class="cls-1" d="M68.5,55.42a2.5,2.5,0,1,0-2.5,2.5A2.51,2.51,0,0,0,68.5,55.42ZM66,56.92a1.5,1.5,0,1,1,1.5-1.5A1.5,1.5,0,0,1,66,56.92Z"/><path class="cls-1" d="M74.5,55.42a2.5,2.5,0,1,0-2.5,2.5A2.51,2.51,0,0,0,74.5,55.42ZM72,56.92a1.5,1.5,0,1,1,1.5-1.5A1.5,1.5,0,0,1,72,56.92Z"/><path class="cls-1" d="M84,57.92a2.5,2.5,0,1,0-2.5-2.5A2.5,2.5,0,0,0,84,57.92Zm0-4a1.5,1.5,0,1,1-1.5,1.5A1.5,1.5,0,0,1,84,53.92Z"/><path class="cls-1" d="M75.5,55.42a2.5,2.5,0,1,0,2.5-2.5A2.5,2.5,0,0,0,75.5,55.42Zm2.5-1.5a1.5,1.5,0,1,1-1.5,1.5A1.5,1.5,0,0,1,78,53.92Z"/><path class="cls-1" d="M57,57.92a2.5,2.5,0,1,0,2.5,2.5A2.51,2.51,0,0,0,57,57.92Zm0,4a1.5,1.5,0,1,1,1.5-1.5A1.5,1.5,0,0,1,57,61.92Z"/><path class="cls-1" d="M63,57.92a2.5,2.5,0,1,0,2.5,2.5A2.51,2.51,0,0,0,63,57.92Zm0,4a1.5,1.5,0,1,1,1.5-1.5A1.5,1.5,0,0,1,63,61.92Z"/><path class="cls-1" d="M69,57.92a2.5,2.5,0,1,0,2.5,2.5A2.51,2.51,0,0,0,69,57.92Zm0,4a1.5,1.5,0,1,1,1.5-1.5A1.5,1.5,0,0,1,69,61.92Z"/><path class="cls-1" d="M75,57.92a2.5,2.5,0,1,0,2.5,2.5A2.51,2.51,0,0,0,75,57.92Zm0,4a1.5,1.5,0,1,1,1.5-1.5A1.5,1.5,0,0,1,75,61.92Z"/><path class="cls-1" d="M78.5,60.42a2.5,2.5,0,1,0,2.5-2.5A2.5,2.5,0,0,0,78.5,60.42Zm2.5-1.5a1.5,1.5,0,1,1-1.5,1.5A1.5,1.5,0,0,1,81,58.92Z"/><path class="cls-1" d="M84.5,60.42a2.5,2.5,0,1,0,2.5-2.5A2.5,2.5,0,0,0,84.5,60.42Zm2.5-1.5a1.5,1.5,0,1,1-1.5,1.5A1.5,1.5,0,0,1,87,58.92Z"/><path class="cls-1" d="M93,62.92a2.5,2.5,0,1,0-2.5-2.5A2.5,2.5,0,0,0,93,62.92Zm0-4a1.5,1.5,0,1,1-1.5,1.5A1.5,1.5,0,0,1,93,58.92Z"/><path class="cls-1" d="M72.5,50.42a2.5,2.5,0,1,0,2.5-2.5A2.5,2.5,0,0,0,72.5,50.42Zm2.5-1.5a1.5,1.5,0,1,1-1.5,1.5A1.5,1.5,0,0,1,75,48.92Z"/></g></svg>