<svg id="Symbols" xmlns="http://www.w3.org/2000/svg" viewBox="0 0 150 150"><defs><style>.cls-1{fill:#231f20;}</style></defs><title>garudalion-bold</title><g id="garuda-lion_bold"><path class="cls-1" d="M123.72,74a.63.63,0,0,0-.67-.31l-.93.1.43-.83c.15-.3.39-1,.15-1.36s-.82-.37-1.69-.24l-.45.07-.11-.43c-.13-.48-.37-.75-.73-.82a3.46,3.46,0,0,0-2.67,1.42,1.86,1.86,0,0,1,0,3.24l-.64-.78c.29-.23.63-.6.56-1a1.28,1.28,0,0,0-.88-.84,1.77,1.77,0,0,0-1.85.28c-.71.7-.69,2.2,0,4.23l.12.32-.26.23L110,80.88c.17,4.87-1,9-3.3,12.17,2.85-.72,7.2-4.52,9.53-13.3l.12-.46.47.1a3.19,3.19,0,0,0,2.24-.41,3.42,3.42,0,0,0,1.35-2.36l.09-.49.49.09a2.39,2.39,0,0,0,2.55-.72A1.47,1.47,0,0,0,123.72,74Z"/><path class="cls-1" d="M104.83,55.76l-.1.31-.32,0c-2.66.24-4.34.78-5,1.6a2.13,2.13,0,0,0-.31,1.73l0,.31-.26.17A3,3,0,0,0,98,63.79c.74,1.35,2.71,2.27,6,1-.21-.33-.43-.68-.65-1l-.58-.82,2.07.06c3.36.11,3.36.11,4.21-1.9.23-.52.5-1.16.88-2l.07-.15.15-.08c1.47-.74,2.65-1.36,3.61-1.86-1.84.4-2.82.55-3.16.59-5.94,4.2-7,3.49-7.32,3.25A1,1,0,0,1,103,59.8a6.42,6.42,0,0,1,4.29-3.63,14.36,14.36,0,0,0,.36-2.08c.18-1.66.65-1.66,2.68-1.61h.07c1.83,0,3.31-1.69,4.4-2.93A4.82,4.82,0,0,1,116.47,48a12.62,12.62,0,0,1,2.91-.4c-2.43-1.28-6.32-1-10.82.89A45.27,45.27,0,0,0,104.83,55.76Z"/><path class="cls-1" d="M85.05,60.8a12.28,12.28,0,0,0,5.33,1.68l-.14,1a13.93,13.93,0,0,1-5.41-1.65c-1.11,1.69-1.26,2.74,2,5.55a5.27,5.27,0,0,0,4.23.54,10.11,10.11,0,0,0,3-1.24l.52.86a11.61,11.61,0,0,1-2.42,1.11c3,2.7,6.07,2.86,12.77-2.35-.12-.22-.24-.44-.37-.65a9.38,9.38,0,0,1-3.42.76,4.34,4.34,0,0,1-4-2.13,4,4,0,0,1,.94-5,2.9,2.9,0,0,1,.55-2.19c.82-1,2.52-1.65,5.36-1.95a48.9,48.9,0,0,1,3.61-7A2.55,2.55,0,0,1,106.9,46c.39-2.13,3.82-3.75,7.6-5.44-2,.13-4,.21-4.75-.62-1.71.83-3.48.4-5.34-.06-3-.73-6.33-1.56-10.89,2.12a16.75,16.75,0,0,1,4.74,1l-.44.9c-1.57-.75-5.2-1-5.54-1C88.64,43.15,86,44.4,85,46.37c-.73,1.49-.47,3.29.73,5.21a14.72,14.72,0,0,1,8.14-1l-.16,1a13.67,13.67,0,0,0-7.9,1c-2.36,1.72-4,3.53-.8,8.14Zm16.18-11a2,2,0,1,1-2,2A2,2,0,0,1,101.23,49.8Z"/><path class="cls-1" d="M106.55,107.61l-.31-.22.13-.36a.52.52,0,0,0,0-.48c-.46-.69-3-.84-5-1l-1.69-.11-.33,0-.11-.31c-.62-1.91-1.43-4.78-2-6.67-.42-1.54-.72-2.66-.72-2.66l-.09-.32.27-.21a6.59,6.59,0,0,0,2.48-6.67l1-.24a7.62,7.62,0,0,1-2.59,7.49l.5,1.85a15.15,15.15,0,0,0,7.13-4.35c3.43-3.88,4-9,3.8-12.68a33.58,33.58,0,0,0-3.61-13.48c-4,3.07-6.82,4.35-9.11,4.35-2,0-3.65-1-5.28-2.6a7.33,7.33,0,0,1-1.48.16,6,6,0,0,1-3.08-.78c-.71.22-1.55.47-2.43.7a7.65,7.65,0,0,0,4.34,3.78l.09,0-.26,1-.13,0h0c-.94-.29-6-1.91-10.78-3.48a16.25,16.25,0,0,1-9-1.45C64,66.6,57.49,68.34,56.14,70.12c-1.47,1.94-6.16.76-7.69.31l-.22.49,5.85,2.56-.74.51a13.86,13.86,0,0,1-6.52,2.37c-2.22.31-3,.43-2.85,3.94a77.16,77.16,0,0,0,1.64,10.26l0,.26-.18.19a6.66,6.66,0,0,1-4.84,1.91c.36,7.8.48,10.61.48,10.61v.17l-.1.14c-1,1.41-1.41,2.52-1.1,3.12s1.24.67,1.61.69h.34L42,108c.39.93.84,1.47,1.22,1.5s.9-.6,1-.82l.27-.47.45.31c.64.45,1.17.62,1.49.46s.58-1,.59-1.24l0-.58.56.12c.56.11.81,0,.86,0s0-.19,0-.41a4.5,4.5,0,0,0-3.16-2.47l-.38-.07,0-.4q0-.64-.06-1.23c-.25-4.45-.35-6.12,6.09-9.2l.11-.05h.12a26.27,26.27,0,0,0,7.59-.83,13.2,13.2,0,0,0,6-3.38,10,10,0,0,0,2.81-5.72l1,.12a11.11,11.11,0,0,1-2.18,5.23,6.12,6.12,0,0,1,4.94,2.46,10.72,10.72,0,0,0,2.18,2c2.72,2,6.54,4,9.44,3.72a10.54,10.54,0,0,1-.65-3.74l1,0a8.71,8.71,0,0,0,.8,3.93c1,1.93,3.1,3.61,7.06,5.59a1.79,1.79,0,0,1,1-.08c1.06.2,2.13,1.2,3.19,3l.28.48c1.24,2.06,2.41,4,3.33,4.18a.86.86,0,0,0,.73-.26l.25-.2.29.14c2.24,1.08,3.57.85,4,.54a.35.35,0,0,0,.19-.36l-.06-.57H105c1.28,0,2.11-.41,2.26-.85S107.1,108,106.55,107.61Z"/><path class="cls-1" d="M62.86,54.27c2.2-1,6.31-1,6.5-1l0,1s-4.29,0-6.21,1l-.23-.46v0l.22.44c-.49.24-.75.51-.77.8s.15.91,1.49,2c1.46-1.05,4.44-1.29,4.8-1.32l.08,1c-1.75.12-3.86.61-4.52,1.31a.52.52,0,0,0-.17.44c0,.22.32.81,2,1.74a3.91,3.91,0,0,1,2.55-.81v1a2.71,2.71,0,0,0-2.1.75.75.75,0,0,0-.19.75c.15.45.77.83,1.65,1a3.92,3.92,0,0,1,.61-.22l.24,1a1.83,1.83,0,0,0-.6.23c-.28.16-.43.35-.42.52s.26.53.91.82c.82.36,4,1.43,8.83,3,2.55.84,5.2,1.7,7.26,2.36a10.89,10.89,0,0,1-1.87-2.71,34.13,34.13,0,0,1-1.94-5.48c-.32-1.06-.64-2.15-1-3.24-1.71-5-7.86-11.93-17.12-9.55-3.54.92-3.64,1.66-3.64,1.74C59.15,52.91,60.8,53.74,62.86,54.27Z"/><path class="cls-1" d="M79.67,101.28l-.52-.37.48-.41c.18-.15.14-.25.11-.31-.22-.47-1.75-1.33-4.87-.82-2.46.41-4.66-.51-5.12-2.13-.15-.52-.35-2.25,2.57-3.72a9.06,9.06,0,0,1-1.74-1.7A4.89,4.89,0,0,0,65.43,90a14,14,0,0,1-6,3.42,9.24,9.24,0,0,1-.38,2.8c3.81.51,10.72,1.51,14.11,7.4,1.22,2.1,1.84,2.1,2,2.08.38-.07.73-1,.84-1.58l.15-.88.67.58c1.05.91,1.83.88,2.18.58a.56.56,0,0,0,.15-.72l-.43-.67.79-.1c.53-.06.89-.24.95-.48S80.25,101.71,79.67,101.28Z"/><path class="cls-1" d="M37.89,71.44c-2.08-3.22-2.69-5.14-1.89-6,.64-.71,1.92-.58,3.92.41a30.4,30.4,0,0,1,3.92,2.53,21.41,21.41,0,0,0,3.46,2.2l.29-.65c-.51-.58-1.05-1.24-1.62-2-3.8-4.68-9-11.08-15.47-6.17-2.82,2.13-4.29,4.56-4.36,7.22-.1,3.59,2.41,6.71,3.91,8s3.9,3.71,3.57,6.22a3.64,3.64,0,0,1-1.3,2.31,4.45,4.45,0,0,0,2.37-1.15c1.07-1.06,1.56-2.75,1.44-5L36,76.17l1.14,3c1.52,4,1.48,7-.11,9a8,8,0,0,0,4.24-7.76A18.51,18.51,0,0,0,37.89,71.44Z"/></g></svg>