<svg id="Symbols" xmlns="http://www.w3.org/2000/svg" viewBox="0 0 150 150"><defs><style>.cls-1{fill:#231f20;}</style></defs><title>buddhaeyes-bold</title><g id="buddha_eyes_bold" data-name="buddha eyes_bold"><path class="cls-1" d="M48.4,44.84c9.07,2.5,16.43,7.51,20.63,13.37-2.34-6.43-7.76-12.54-15.34-16.43A33.56,33.56,0,0,0,38.47,38c-8.17,0-15.31,3.44-18.58,9.82-.05.12-.12.23-.17.36C24.08,45,30.18,43.27,37,43.27A43.37,43.37,0,0,1,48.4,44.84Z"/><path class="cls-1" d="M68.55,65.39l-1.37-2.6a26.21,26.21,0,0,0-41.73-6.36l-2.08,2.08,1.36,2.61a26.22,26.22,0,0,0,41.74,6.36ZM51.44,59a3,3,0,1,1-5.15-2.1,17.77,17.77,0,0,1,5.06,1.41A3.1,3.1,0,0,1,51.44,59ZM48,67.15a18.15,18.15,0,0,1-14.43-7.1,18,18,0,0,1,8.25-3.15,7,7,0,1,0,13.46,3.76,18.41,18.41,0,0,1,3.17,3.19A18.09,18.09,0,0,1,48,67.15Z"/><path class="cls-1" d="M101.6,44.84A43.37,43.37,0,0,1,113,43.27c6.78,0,12.88,1.73,17.24,4.86-.05-.13-.12-.24-.17-.36C126.84,41.39,119.7,38,111.53,38a33.56,33.56,0,0,0-15.22,3.83c-7.58,3.89-13,10-15.34,16.43C85.17,52.35,92.53,47.34,101.6,44.84Z"/><path class="cls-1" d="M106,48.76a26.13,26.13,0,0,0-23.21,14l-1.37,2.6,2.08,2.09a26.22,26.22,0,0,0,41.74-6.36l1.36-2.61-2.08-2.08A26,26,0,0,0,106,48.76ZM104.56,59a3,3,0,0,1-6,0,3.1,3.1,0,0,1,.09-.69,17.77,17.77,0,0,1,5.06-1.41A3,3,0,0,1,104.56,59Zm-2.51,8.14a18.09,18.09,0,0,1-10.45-3.3,18.41,18.41,0,0,1,3.17-3.19,7,7,0,1,0,13.46-3.76,18,18,0,0,1,8.25,3.15A18.15,18.15,0,0,1,102.05,67.15Z"/><path class="cls-1" d="M74.88,51.45a7.5,7.5,0,1,0-7.5-7.5A7.5,7.5,0,0,0,74.88,51.45Zm0-10a2.5,2.5,0,1,1-2.5,2.5A2.5,2.5,0,0,1,74.88,41.45Z"/><path class="cls-1" d="M75,74.46a10.19,10.19,0,0,0-7,17.62l5.47-5.84a2.19,2.19,0,1,1,3,0,16.48,16.48,0,0,0-5.29,12v15.27h8V98.28A8.35,8.35,0,0,1,82,92.08a10.19,10.19,0,0,0-7-17.62Z"/></g></svg>