<svg id="Symbols" xmlns="http://www.w3.org/2000/svg" viewBox="0 0 150 150"><defs><style>.cls-1{fill:#231f20;}</style></defs><title>jizo-bold</title><g id="jizo_bold"><path class="cls-1" d="M66,37.32a12.32,12.32,0,0,0-10,6.77,8.54,8.54,0,0,1,8.36-6.93A8.94,8.94,0,0,1,66,37.32Z"/><path class="cls-1" d="M78.75,44.59a4.44,4.44,0,0,1-7.5,0A12.46,12.46,0,0,0,78.75,44.59Z"/><path class="cls-1" d="M94,44.09a12.37,12.37,0,0,0-10-6.77,9,9,0,0,1,1.64-.16A8.53,8.53,0,0,1,94,44.09Z"/><path class="cls-1" d="M86.88,126.34a1,1,0,0,1-1,1H80a1,1,0,0,1,0-2h5.88a1.05,1.05,0,0,1,.8.4A1,1,0,0,1,86.88,126.34Z"/><path class="cls-1" d="M71,126.34a1,1,0,0,1-1,1H64.13a1,1,0,0,1-1-1,1,1,0,0,1,.21-.6l.07-.08a1,1,0,0,1,.72-.32H70A1,1,0,0,1,71,126.34Z"/><path class="cls-1" d="M87.92,121.78a5,5,0,0,0-2-.44H80a5,5,0,0,0-3,1v0H73v0a4.92,4.92,0,0,0-3-1H64.13a4.93,4.93,0,0,0-2,.45l.55-2.8L86,111.72Z"/><polygon class="cls-1" points="85.76 110.73 62.86 117.88 64.88 107.52 83.94 101.42 85.76 110.73"/><polygon class="cls-1" points="83.74 100.44 65.1 106.39 67.03 96.53 82.08 91.94 83.74 100.44"/><path class="cls-1" d="M81.89,91,67.24,95.43l1.54-7.88h.27l1,0c.32,0,.67,0,1,0A5.85,5.85,0,0,0,75,86a5.85,5.85,0,0,0,3.92,1.5c.35,0,.7,0,1,0l1,0h.26Z"/><path class="cls-1" d="M67.78,87.45l-6.63,34A17,17,0,0,1,56,109.16V78.06c0-5,1.81-8.59,5.54-10.9a18.18,18.18,0,0,1,5-2.07L65.17,83.77v.16A3.3,3.3,0,0,0,67.78,87.45Z"/><path class="cls-1" d="M73,62.77v18.8a1.91,1.91,0,0,1-1.92,1.92c-.43,0-.84,0-1.24,0l-.65,0,1.54-20.72v-.18a2.62,2.62,0,0,1,.66-1.79,2,2,0,0,1,1,.54A2,2,0,0,1,73,62.5,2.45,2.45,0,0,1,73,62.77Z"/><path class="cls-1" d="M80.81,83.56l-.65,0c-.4,0-.81,0-1.24,0A1.91,1.91,0,0,1,77,81.57V62.77a2.23,2.23,0,0,1,0-.32,2,2,0,0,1,.53-1,2,2,0,0,1,1-.52,2.41,2.41,0,0,1,.67,1.71Z"/><path class="cls-1" d="M94,78.06v31.1a17,17,0,0,1-5.16,12.25l-6.63-34a3.31,3.31,0,0,0,2.62-3.52L83.45,65.1a18.44,18.44,0,0,1,4.19,1.58c.39.21.76.42,1.1.64C92.29,69.66,94,73.16,94,78.06Z"/><path class="cls-1" d="M94.62,31a23,23,0,0,0-17.76-8.38H73.14a23.08,23.08,0,0,0-23,23v2.59a20.49,20.49,0,0,0,8.14,16.3c.13-.1.27-.21.42-.31l.44-.29.3-.21A22.74,22.74,0,0,1,67,60.89a5.16,5.16,0,0,1,3.69-4l.39,0A5.88,5.88,0,0,1,75,58.35a5.88,5.88,0,0,1,3.92-1.5l.39,0a5.15,5.15,0,0,1,3.71,4,23.94,23.94,0,0,1,6.52,2.25,3.52,3.52,0,0,1,.4.24c.15.07.31.17.46.26s.32.18.47.29a25.55,25.55,0,0,0,2.27-2A23,23,0,0,0,94.62,31ZM67,38.28a11.31,11.31,0,0,0-11,9l-.55,2.6L55,47.22a9.08,9.08,0,0,1-.12-1.54,9.53,9.53,0,0,1,9.51-9.52,9.4,9.4,0,0,1,4.9,1.37l2.19,1.36-2.53-.44A12.35,12.35,0,0,0,67,38.28Zm13.47,5.5c-1.29,2.46-3.28,3.87-5.45,3.87s-4.16-1.41-5.45-3.87l-.7-1.31,1.35.63a11.35,11.35,0,0,0,9.6,0l1.35-.63ZM95,47.22,94.62,50,94,47.24a11.33,11.33,0,0,0-11-9,10.78,10.78,0,0,0-2,.17l-2.58.42,2.24-1.35a9.63,9.63,0,0,1,4.91-1.36,9.53,9.53,0,0,1,9.51,9.52A10.18,10.18,0,0,1,95,47.22Zm-.81-9c0-.22,0-.43,0-.63a9.29,9.29,0,0,0-9.3-9.29A9.15,9.15,0,0,0,78.41,31v5.5a3.43,3.43,0,0,1-3.06,3.41h-.7a3.46,3.46,0,0,1-3.06-3.41V31a9.29,9.29,0,0,0-15.82,6.6,5.83,5.83,0,0,0,0,.59l-1,.09c0-.22,0-.45,0-.68A10.28,10.28,0,0,1,58,30.12l.14-.14a10.29,10.29,0,0,1,14.3.43v0h0a.46.46,0,0,1,.14.34v5.72a2.44,2.44,0,0,0,2.16,2.41h.5a2.43,2.43,0,0,0,2.16-2.41V30.77a.48.48,0,0,1,.14-.34h0v0a10.35,10.35,0,0,1,7.37-3.11,10.22,10.22,0,0,1,8.25,4.13l.12.17a10.23,10.23,0,0,1,1.93,6c0,.22,0,.45,0,.66Z"/></g></svg>