<svg id="Symbols" xmlns="http://www.w3.org/2000/svg" viewBox="0 0 150 150"><defs><style>.cls-1{fill:#231f20;}</style></defs><title>fishotter-bold</title><g id="fish-otter_bold"><path class="cls-1" d="M38.42,51.08c-.82,2.63-5.1,7.94-7.26,9.76-2.59,2.19-6.9,8.09-3.65,12.35l.8-.61c-2.79-3.65,1.23-9.07,3.5-11a37,37,0,0,0,7-8.85C38.63,52.11,38.51,51.56,38.42,51.08Z"/><path class="cls-1" d="M92,91.56l-1.06-.68c-1.46-.92-2.38-1.5-2.38-3.14-.51-.34-1-.65-1.34-1a.47.47,0,0,0-.2,0h-.13a2.69,2.69,0,0,0-.5.08l-.21,0c-1.56.31-4.43,1.13-7,1.87l-.32.1c2.29,1.5,7.78,5.13,8.22,5.74.29.4.39,1.26.36,3.18v.48l-.22.15c-2.37,1.64-3,3.16-2.51,3.93s1.83,1,3.63.07c3.23-1.62,3.14-2.74,3-4.45,0-.26,0-.54,0-.82V97.1A6.63,6.63,0,0,1,92,94.5C92.75,92.91,92.94,92.2,92,91.56Z"/><path class="cls-1" d="M40.38,54.79l0,.12c-.35,1.62,0,4.3,1.12,7.79h0l-.41.38-.39.4c-5.81,5.89-5.12,10.73-4.5,12.65l.95-.31c-.55-1.7-1.13-5.94,3.9-11.27.12-.13.25-.27.39-.4h0l.39-.38c.27.81.57,1.66.9,2.54,1.84-.11,6-2.33,7.06-5.07,0,0,4.26,10.54,0,7.39-.54,4.43-3.6,1.1-3.6,1.1-.35,1.55-1.13,1.39-1.73,1a38.61,38.61,0,0,0,1.73,8.11l.05.16.06.18,0,0a21.53,21.53,0,0,0,3.32,6.25A16.49,16.49,0,0,0,57.71,91c.61-1.15.38-4.78.23-7a19.31,19.31,0,0,1-.07-3.21c.31-1.77,2.33-4.2,3.34-5.1.82-.74,1.36-3.66.35-6.62a10.67,10.67,0,0,1-1.46-.88c-2.43-1.72-6.38-9.26-8.41-14.07a7.38,7.38,0,0,0-2.23-3.18,7.44,7.44,0,0,0-2.94-1.13,13.68,13.68,0,0,0-2.07-.31l-.64,0a1.21,1.21,0,0,1-.42-.5,3.85,3.85,0,0,0-3.15-2.11c-.42,0-.61.12-.64.17a.53.53,0,0,0,.1.18l.06.09a7.19,7.19,0,0,1,.6,1c.1.2.22.4.32.6.28.53.52,1.09.75,1.64s.47,1.18.69,1.77c.05.15.1.31.16.46l0,.15a8.69,8.69,0,0,1,.6,2.39l-1-.07a28.22,28.22,0,0,0-2.25-6.11l0,0a1.37,1.37,0,0,0-.39-.23c-.12.3-.16,1.45,1.1,5.86Zm7.52-2.42a.81.81,0,1,1-.81.81A.81.81,0,0,1,47.9,52.37Z"/><path class="cls-1" d="M109.92,79.17c-7.2-8.55-14.72-9.59-18.33-10.09-3.07-.43-11.12.26-17,.76l-3.91.32c-3.72.28-6.1,0-7.93-.64.76,3,.23,5.84-.89,6.84s-2.78,3.19-3,4.53a20.63,20.63,0,0,0,.08,3c.21,3.31.32,6-.29,7.4a1.83,1.83,0,0,1-.14.28l-.21.28-.06.07a36.34,36.34,0,0,1-5.31,4.5l-.15.11h-.19c-2.79-.18-4.6.45-4.84,1.7a2.5,2.5,0,0,0,1.85,2.53c2.64.85,7.27-2.14,7.56-2.8.47-1.37,6.12-3.66,6.17-3.68a4.16,4.16,0,0,1,1.19-.15c1.63-.08,2.89-.27,3-1.85,0-.42.07-.8.13-1.17,0-.15,0-.3.07-.45.4-2.4,1.29-4,2.69-4.79l.49.87c-1.08.61-1.8,1.91-2.15,3.87,1.48-.24,4.76-1.18,7.73-2l1-.31.08,0,1.05-.31h0l.78-.23,2.06-.58L83,86.66h0l.58-.16.67-.17.51-.13h0l.68-.16.22-.05.36-.07.1,0A17.69,17.69,0,0,1,80.7,74.45l1-.11a16.61,16.61,0,0,0,6,11.59h0A17.29,17.29,0,0,0,89.32,87l.25.16a25.17,25.17,0,0,0,8.86,3c4.16.68,6.29,3.91,5.68,8.66l0,.26-.23.12c-1.58.83-2.32,1.82-2,2.66s2.11,1.64,4,1.09,2.81-1.46,3.16-2.41a3.52,3.52,0,0,0-.6-2.88c-.1-.18-.19-.34-.24-.46a22.63,22.63,0,0,1-1.26-6.55c0-1.91,0-2.07-3.54-4.3l-.25-.16,0-.3c.22-3.5-.28-6.23-1.57-8.33l0-.07-.11-.16c-2-3-5.36-4.43-10.21-5.78l.27-1c4.08,1.13,8.25,2.52,10.63,6,2.46.32,6.76,4.09,8.1,5.49.68.72,2.17,2.58,3.9,4.74,2.18,2.72,4.65,5.81,5.74,6.86.7.67,2.73,2.63,3.83,2.87C122.05,94.45,116.05,86.45,109.92,79.17Z"/><path class="cls-1" d="M47.86,84.73c-.26-.4-.51-.81-.75-1.24-.13-.22-.25-.45-.36-.68s-.16-.29-.23-.44c-.18-.37-.35-.75-.52-1.15a.14.14,0,0,1,0-.07c-.19-.43-.36-.87-.53-1.33l-.08-.16-.07,0h0c-3.88-2.15-7.79-2.48-9.38-.76a2,2,0,0,0-.2,2.4c.33.54,1.78,2.2,6.23.83l.22-.06.19.12A30.28,30.28,0,0,0,48,84.87Z"/></g></svg>