<svg id="Symbols" xmlns="http://www.w3.org/2000/svg" viewBox="0 0 150 150"><defs><style>.cls-1{fill:#231f20;}</style></defs><title>durva-bold</title><path id="durva_bold" class="cls-1" d="M133.63,73.86l-.5-.87-.2.11.18-.63-1-.27-.44,1.6-.69.4.32-1.15-1-.26-.58,2.11-1,.55.58-2.09-1-.27-.83,3.06-1.39.79-.18-.32.91-3.33L126,73l-.75,2.76-.81.46.49-1.8-1-.26L123.19,77l-.81.47.5-1.82-1-.26-.76,2.8-.81.48.51-1.86-1-.26-.78,2.85-.81.49.53-1.92-1-.26-.8,2.93-.81.5.54-2-1-.26L115,81.87l-.07,0c-1.2-1.44-2.41-2.83-3.62-4.2,2-1.51,4-3,6.3-4.54l2.2.6.27-1-1.36-.37.73-.48,2.4.66.26-1-1.53-.41.75-.48,2.55.7.26-1L122.47,70l.77-.47,2.66.73.26-1-1.74-.47.78-.46,2.73.74.26-1-1.77-.49.79-.46L130,68l.27-1-3.34-.92-.18-.31,1.38-.79,3.06.83.26-1-2.09-.57,1-.55,2.11.58.27-1L131.51,63l.69-.4,1.6.44.26-1-.63-.17.2-.11-.5-.87-.2.11.18-.63-1-.27-.44,1.6-.69.4.32-1.15-1-.27-.58,2.12-1,.55.58-2.09-1-.27-.83,3.06-1.39.79-.18-.32.91-3.34L126,61l-.76,2.76-.8.47.49-1.81-1-.26-.76,2.78-.81.48.5-1.84-1-.26-.78,2.85-.81.5.53-1.93-1-.26-.81,3-.82.51.57-2.06-1-.26L117,68.77l-.82.54.61-2.26-1-.26-.92,3.38c-2.25,1.52-4.33,3-6.28,4.55q-1.89-2.06-3.77-4c3.69-2.87,7.48-5.66,11.11-8.15l2,.55.26-1L117,61.82l.72-.49L120,62l.27-1-1.41-.38.73-.48,2.44.67.27-1-1.58-.43.75-.47,2.6.71.26-1-1.7-.46.76-.47,2.71.74.26-1L124.59,57l.79-.46,2.75.75.26-1-3.34-.91-.18-.32,1.39-.79,3,.84.27-1-2.09-.57,1-.54,2.12.57.26-1-1.15-.31.7-.4,1.6.44.26-1-.63-.17.19-.12-.49-.86-.2.11.17-.64-1-.26-.44,1.6-.69.4.31-1.15-1-.27L128,52.21l-1,.54.57-2.09-1-.26-.84,3.06-1.38.79-.18-.32.91-3.34-1-.26-.75,2.75-.8.47.49-1.8-1-.26-.76,2.8-.82.5.52-1.88-1-.26-.8,2.91-.82.52.55-2-1-.26-.84,3.09-.83.54.6-2.21L116,55l-.91,3.31-.83.57.67-2.46-1-.26-1,3.59c-3.62,2.51-7.35,5.27-11,8.1q-2.67-2.66-5.31-5.11a167,167,0,0,1,14.55-9.18l4.27,1.19.27-1-3.3-.92,1.32-.73,4.25,1.18.26-1-3.25-.9,1.34-.73,4.18,1.16.27-1L117.68,50l1-.55.33-.18,4.1,1.14.27-1-3.1-.87,1.34-.72,4,1.12.27-1-3-.84,1.32-.73,4,1.1.27-1-4.09-1.14-.35-.61,1.81-1,3.85,1.07.27-1-2.89-.8,1.5-.85,2.68.74.27-1-1.72-.48,1.17-.66,2,.57.27-1-1.08-.3.51-.29-.49-.87-.51.29.3-1.08-1-.27-.57,2-1.17.66.48-1.71-1-.27-.74,2.68-1.5.85.8-2.89-1-.27-1.07,3.85-1.81,1-.35-.62,1.14-4.09-1-.27-1.1,4-1.3.72.83-3-1-.27-1.09,3.93-1.3.7.81-2.93-1-.26-1.07,3.85-.41.22-.88.48.79-2.85-1-.27-1,3.78-1.29.7.77-2.78-1-.27-1,3.72c-.43.23-.87.47-1.3.72l.75-2.74-1-.26-1,3.68A167.55,167.55,0,0,0,93.68,60C91.77,58.23,89.87,56.6,88,55a196.1,196.1,0,0,1,16.48-10.65l4,1.49.34-.94-3.26-1.21,1.73-.95,4.39,1.62.35-.94-3.58-1.32c.58-.32,1.15-.64,1.74-1l4.7,1.73.34-.93-3.85-1.43,1.81-.93,4.9,1.82.35-.94-4-1.49,1.84-.92L121.33,40l.35-.94-4.16-1.53,1.89-.9,5.13,1.9.34-.94-4.58-1.7-.51-1.1,2.23-1,4.58,1.69.35-.94-3.65-1.34,2.17-1,3.2,1.18.35-.93-2.27-.84,1.75-.81,2.45.91.35-.94-1.51-.56.87-.4-.42-.91-.87.4.56-1.5-.94-.35-.91,2.45-1.74.8.83-2.26-.94-.35-1.18,3.2-2.17,1,1.35-3.64-.94-.35-1.69,4.58-2.23,1-.51-1.11,1.69-4.59-.93-.34L117.7,33l-1.93.93,1.58-4.28-.94-.35-1.94,5.24-2,1,1.62-4.39-.94-.35-2,5.41-2,1,1.7-4.6-.94-.34-2.09,5.65-2,1.1,1.82-4.93-.94-.35-2.22,6c-.68.38-1.35.77-2,1.16l2-5.35-.56-.21.43.11.24-1-4.74-1.18-.63-1.05L101.37,31l4.74,1.18.24-1-3.77-.94,2-1.23,3.31.83.24-1-2.34-.58,1.65-1,2.53.63.24-1-1.55-.39.82-.49-.52-.86-.82.49.39-1.56-1-.24L107,26.43l-1.65,1,.58-2.34-1-.25-.83,3.32-2,1.22.94-3.76-1-.25-1.19,4.74-2.1,1.26-.63-1,1.19-4.74-1-.25L97,30.66l-1.82,1.09,1.09-4.36-1-.24L94,32.48l-1.82,1.11,1.09-4.38-1-.25-1.35,5.37-1.83,1.14L90.23,31l-1-.24-1.37,5.46-1.83,1.17,1.14-4.57-1-.25-1.4,5.62L83,39.42l1.19-4.77-1-.24-1.46,5.83Q78.52,42.41,75,44.93q-3.51-2.52-6.74-4.69L66.8,34.41l-1,.24L67,39.42l-1.85-1.21-1.4-5.62-1,.25,1.14,4.57-1.83-1.17-1.37-5.46-1,.24,1.12,4.45-1.83-1.14L57.71,29l-1,.25,1.09,4.38L56,32.48l-1.33-5.33-1,.24,1.09,4.36L53,30.66l-1.33-5.33-1,.25,1.19,4.74-.63,1-2.1-1.26L48,25.36l-1,.25.94,3.76-2-1.22-.83-3.32-1,.25.58,2.34-1.65-1-.63-2.53-1,.24.39,1.56L41,25.21l-.52.86.82.49L39.74,27l.24,1,2.53-.63,1.65,1-2.34.58.24,1L45.37,29l2.05,1.23-3.77.94.24,1L48.63,31l2.11,1.26-.63,1.05-4.74,1.18.24,1,.43-.11-.56.21,2,5.35c-.67-.39-1.34-.78-2-1.16l-2.22-6-.94.35L44.09,39l-2-1.1L40,32.23l-.94.34,1.7,4.6-2-1-2-5.41-.94.35,1.62,4.39-1.95-1-1.94-5.24-.94.35,1.58,4.28L32.3,33,30.38,27.8l-.93.34,1.69,4.59-.51,1.11-2.23-1-1.69-4.58-.94.35,1.35,3.64-2.17-1L23.77,28l-.94.35.83,2.26-1.74-.8L21,27.38l-.94.35.56,1.5-.87-.4-.42.91.87.4-1.51.56.35.94,2.45-.91,1.75.81L21,32.38l.35.93,3.2-1.18,2.17,1-3.65,1.34.35.94L28,33.72l2.23,1-.51,1.1-4.58,1.7.34.94,5.13-1.9,1.89.9L28.32,39l.35.94,5.06-1.87c.62.3,1.23.61,1.84.92l-4,1.49.35.94,4.9-1.82,1.81.93L34.74,42l.34.93,4.7-1.73c.59.31,1.16.63,1.74,1l-3.58,1.32.35.94,4.39-1.62,1.73.95-3.26,1.21.34.94,4-1.49A196.1,196.1,0,0,1,62,55c-1.87,1.57-3.77,3.2-5.68,4.92a167.55,167.55,0,0,0-16-10.11l-1-3.68-1,.26.75,2.74c-.43-.25-.87-.49-1.3-.72l-1-3.72-1,.27.77,2.78-1.29-.7-1-3.78-1,.27.79,2.85-.88-.48-.41-.22-1.07-3.85-1,.26.81,2.93-1.3-.7-1.09-3.93-1,.27.83,3L27.74,43l-1.1-4-1,.27,1.14,4.09-.35.62-1.81-1-1.07-3.85-1,.27.8,2.89-1.5-.85-.74-2.68-1,.27.48,1.71L19.52,40,19,38l-1,.27.3,1.08-.51-.29-.49.87.51.29-1.08.3.27,1,2-.57,1.17.66-1.72.48.27,1,2.68-.74,1.5.85-2.89.8.27,1,3.85-1.07,1.81,1-.35.61-4.09,1.14.27,1,4-1.1,1.32.73-3,.84.27,1,4-1.12,1.34.72-3.1.87.27,1L31,49.28l.33.18,1,.55-3.18.88.27,1,4.18-1.16,1.34.73-3.25.9.26,1,4.25-1.18,1.32.73-3.3.92.27,1,4.27-1.19A167,167,0,0,1,53.3,62.71Q50.66,65.17,48,67.82c-3.64-2.83-7.37-5.59-11-8.1l-1-3.59-1,.26.67,2.46-.83-.57L34,55l-1,.26.6,2.21-.83-.54L32,53.81l-1,.26.55,2-.82-.52-.8-2.91-1,.26.52,1.88-.82-.5-.76-2.8-1,.26.49,1.8-.8-.47-.75-2.75-1,.26.91,3.34-.18.32-1.38-.79L23.4,50.4l-1,.26L23,52.75l-1-.54-.58-2.12-1,.27.31,1.15-.69-.4-.44-1.6-1,.26.17.64-.2-.11-.49.86.19.12-.63.17.26,1,1.6-.44.7.4-1.15.31.26,1,2.12-.57,1,.54-2.09.57.27,1,3-.84,1.39.79-.18.32-3.34.91.26,1,2.75-.75.79.46-1.77.48.26,1,2.71-.74.76.47-1.7.46.26,1,2.6-.71.75.47-1.58.43.27,1,2.44-.67.73.48L29.73,61,30,62l2.24-.62.72.49-1.19.32.26,1,2-.55c3.63,2.49,7.42,5.28,11.11,8.15q-1.87,2-3.77,4c-2-1.51-4-3-6.28-4.55l-.92-3.38-1,.26.61,2.26L33,68.77l-.86-3.14-1,.26L31.75,68l-.82-.51-.81-3-1,.26.53,1.93-.81-.5-.78-2.85-1,.26.5,1.84-.81-.48-.76-2.78-1,.26.49,1.81-.8-.47L24,61l-1,.26L24,64.59l-.18.32-1.39-.79-.83-3.06-1,.27.58,2.09-1-.55-.58-2.12-1,.27L19,62.17l-.69-.4-.44-1.6-1,.27.18.63-.2-.11-.5.87.2.11-.63.17.26,1,1.6-.44.69.4-1.15.31.27,1,2.11-.58,1,.55-2.09.57.26,1L21.91,65l1.38.79-.18.31L19.77,67,20,68l2.75-.75.79.46-1.77.49.26,1,2.73-.74.78.46-1.74.47.26,1,2.66-.73.77.47-1.66.45.26,1,2.55-.7.75.48-1.53.41.26,1,2.4-.66.73.48-1.36.37.27,1,2.2-.6c2.26,1.52,4.34,3,6.3,4.54-1.21,1.37-2.42,2.76-3.62,4.2l-.07,0-.83-3.05-1,.26.54,2-.81-.5-.8-2.93-1,.26.53,1.92-.81-.49-.78-2.85-1,.26.51,1.86-.81-.48-.76-2.8-1,.26.5,1.82L26.81,77l-.76-2.77-1,.26.49,1.8-.81-.46L24,73l-1,.27L24,76.62l-.18.32-1.39-.79-.83-3.06-1,.27.58,2.09-1-.55-.58-2.11-1,.26L19,74.2l-.69-.4-.44-1.6-1,.27.18.63-.2-.11-.5.87.2.11-.63.17.26,1,1.6-.44.69.4-1.15.31.27,1,2.11-.58,1,.55-2.09.57.26,1L21.91,77l1.38.79-.18.31L19.77,79,20,80l2.75-.75.8.46-1.78.49.26,1,2.74-.75.79.46-1.76.49.26,1,2.71-.74.79.46-1.73.48.26,1,2.66-.73.78.47-1.67.46.26,1,2.58-.7.77.46-1.58.43.27,1,2.2-.6-1.3,1.64H27.85a3.35,3.35,0,0,0-3.35,3.35v1a3.33,3.33,0,0,0,2.59,3.26l1.15.69.1,1.77c0,.22,0,.45.08.67A24.07,24.07,0,0,0,38.6,114.32l.24.18a29.84,29.84,0,0,0,3.41,2.11l.44.23h3.73V119H38.68l-4.81,3.14a2.93,2.93,0,0,0,.06,5.86h82.14a2.93,2.93,0,0,0,.06-5.86L111.32,119h-7.74v-2.14h3.71l.43-.22a27,27,0,0,0,3.43-2.12l.23-.17h0c5.84-4.26,9.46-10.18,10.19-16.71,0-.22.06-.44.08-.67l.11-1.92.77-.46a3.36,3.36,0,0,0,3-3.33v-1a3.35,3.35,0,0,0-3.35-3.35H118.9l-1.3-1.64,2.2.6.27-1-1.58-.43.77-.46,2.58.7.26-1-1.67-.46.78-.47,2.66.73.26-1L122.4,82l.79-.46,2.71.74.26-1-1.76-.49.79-.46,2.74.75.26-1-1.78-.49.8-.46L130,80l.27-1-3.34-.92-.18-.31,1.38-.79,3.06.83.26-1-2.09-.57,1-.55,2.11.58.27-1-1.15-.31.69-.4,1.6.44.26-1-.63-.17ZM111.52,84.08c-2.17,1.44-3.4,2.33-4,2.76H102c-.18-.21-.36-.41-.53-.62,2.15-2.07,4.35-4.06,6.7-6Q109.86,82.1,111.52,84.08ZM54.85,86.84c-.28-.29-.57-.57-.85-.85q2-2.3,4.07-4.51c2.08,1.88,4,3.69,5.6,5.36Zm28.33-2.5c-1.81-2-3.59-3.94-5.36-5.76q3-2.91,5.85-5.48,2.77,2.69,5.48,5.49C86.93,80.6,84.91,82.54,83.18,84.34ZM75,75.74c-1.94-1.91-3.85-3.7-5.73-5.39q2.82-2.61,5.73-5.09,2.91,2.47,5.73,5.09C78.85,72,76.94,73.83,75,75.74Zm-2.82,2.84c-1.77,1.82-3.55,3.74-5.36,5.76-1.73-1.8-3.75-3.74-6-5.75q2.7-2.81,5.48-5.49Q69.21,75.67,72.18,78.58ZM75,81.42c1.66,1.71,3.35,3.52,5,5.42H70C71.65,84.94,73.34,83.13,75,81.42Zm16.93.06Q94,83.7,96,86c-.28.28-.57.56-.85.85H86.33C88,85.17,89.85,83.36,91.93,81.48Zm13.58-4.26c-2.33,1.94-4.51,3.92-6.65,6q-2-2.21-3.94-4.35c2.15-1.86,4.43-3.76,6.79-5.65C103,74.49,104.24,75.84,105.51,77.22ZM98.88,70.3c-2.34,1.88-4.6,3.77-6.73,5.63-1.79-1.86-3.6-3.69-5.45-5.46,2.31-2,4.56-3.73,6.75-5.38Q96.15,67.58,98.88,70.3Zm-8.45-8q-3.25,2.47-6.67,5.37C81.9,66,80,64.29,78.11,62.64q3.27-2.67,6.63-5.19C86.61,59,88.51,60.64,90.43,62.34ZM75,60q-3.23-2.66-6.54-5.18,3.35-2.67,6.54-5,3.19,2.36,6.54,5Q78.22,57.37,75,60Zm9.36-16.75,4.89,1.22.25-1-4-1,1.71-1.12,5.08,1.27.25-1-4.18-1,1.75-1.1,5.21,1.3.24-1-4.28-1.07,1.78-1.1,5.29,1.32.24-1L94.24,37c.61-.38,1.22-.74,1.8-1.09l5.32,1.33.25-1-4.36-1.09,1.81-1.09,4.51,1.13-2.38,6.45A195.5,195.5,0,0,0,84.8,52.4q-3.28-2.64-6.44-5C80.42,45.93,82.43,44.56,84.36,43.28ZM48.81,41.67l-2.38-6.45,4.51-1.13,1.81,1.09-4.36,1.09.25,1L54,35.91c.58.35,1.19.71,1.8,1.09l-4.34,1.08.24,1L57,37.73l1.78,1.1L54.45,39.9l.24,1,5.21-1.3,1.75,1.1-4.18,1,.25,1,5.08-1.27,1.71,1.12-4,1,.25,1,4.89-1.22c1.93,1.28,3.94,2.65,6,4.12q-3.15,2.35-6.44,5A195.5,195.5,0,0,0,48.81,41.67ZM65.26,57.45q3.36,2.52,6.63,5.19C70,64.29,68.1,66,66.24,67.71q-3.4-2.89-6.67-5.37C61.49,60.64,63.39,59,65.26,57.45Zm-8.71,7.64c2.19,1.65,4.44,3.43,6.75,5.38-1.85,1.77-3.66,3.6-5.45,5.46-2.13-1.86-4.39-3.75-6.73-5.63Q53.85,67.58,56.55,65.09Zm-8.26,8.09c2.36,1.89,4.64,3.79,6.79,5.65q-2,2.15-3.94,4.35c-2.14-2-4.32-4-6.65-6C45.76,75.84,47,74.49,48.29,73.18Zm-6.47,7c2.35,2,4.55,4,6.7,6-.17.21-.35.41-.53.62H42.43c-.55-.43-1.78-1.32-4-2.76Q40.15,82.1,41.82,80.2Zm64.12,25.15v.07c-.44,2.08-1.11,4.59-2,7.42H99.13c.67-2.74,1.15-5.09,1.47-7.11v-.08a24.16,24.16,0,0,1,2.85-6.81h3.1a20.17,20.17,0,0,1-.62,6.51Zm-59.88,7.49c-.83-2.76-1.49-5.23-2-7.33a20.75,20.75,0,0,1-.65-6.67h3.08a24.46,24.46,0,0,1,2.87,6.85v0c.32,2,.8,4.37,1.47,7.11Zm53.57-7.4v0l0,.12c-.32,2-.82,4.45-1.51,7.26H93.26c.5-2.68.86-5.1,1.07-7.18a23,23,0,0,1,2.45-6.82h3.1a19.44,19.44,0,0,1-.24,6.58h0Zm-49.24.06a19.94,19.94,0,0,1-.27-6.66h3.11a22.21,22.21,0,0,1,2.44,6.74v.06c.2,2.07.56,4.5,1.07,7.2H51.91c-.69-2.81-1.19-5.19-1.5-7.19Zm6.39-6.66H59.9A21.77,21.77,0,0,1,62,105.57v.11c.09,2,.33,4.43.69,7.16H57.77c-.52-2.75-.89-5.21-1.1-7.32A20,20,0,0,1,56.78,98.84Zm6.67,0h3.12a21.48,21.48,0,0,1,1.67,6.86h0c0,2,.07,4.43.27,7.14H63.65c-.37-2.76-.61-5.2-.7-7.28A20.1,20.1,0,0,1,63.45,98.84Zm9.78,0a21.27,21.27,0,0,1,1.27,6.82c-.13,2.08-.17,4.5-.12,7.18H69.51c-.2-2.71-.29-5.12-.27-7.16a20.8,20.8,0,0,1,.88-6.84Zm6.67,0a20.93,20.93,0,0,1,.88,6.76c0,2.05-.06,4.44-.28,7.24H75.38c0-2.68,0-5.08.12-7.15a21.38,21.38,0,0,1,1.28-6.85Zm6.67,0a19.81,19.81,0,0,1,.51,6.58l-.07.12.06.14c-.1,2.1-.34,4.51-.7,7.16H81.51c.21-2.79.3-5.17.27-7.24a21.68,21.68,0,0,1,1.67-6.76Zm6.65,0a20.25,20.25,0,0,1,.12,6.7c-.21,2.1-.58,4.56-1.1,7.3H87.38c.33-2.49.56-4.77.67-6.77v-.3a.76.76,0,0,0,0-.15,22,22,0,0,1,2.05-6.78Zm-30.75,18-1.89,1.44-1.88-1.44Zm5.23,0-1.88,1.44-1.89-1.44Zm5.24,0-1.89,1.44-1.89-1.44Zm5.24,0-1.89,1.44-1.89-1.44Zm5.24,0-1.89,1.44-1.89-1.44Zm5.24,0-1.89,1.44-1.89-1.44Zm5.24,0L92,118.28l-1.89-1.44Zm7-18h1.37a18.35,18.35,0,0,0-1.22,2.47A12.14,12.14,0,0,0,100.9,98.84Zm-6.38,2.51a12.28,12.28,0,0,0-.28-2.51h1.38A18,18,0,0,0,94.52,101.35Zm-6.49,0a14.73,14.73,0,0,0-.42-2.54H89A16,16,0,0,0,88,101.38Zm-6.52,0A14,14,0,0,0,81,98.84h1.39A15.87,15.87,0,0,0,81.51,101.39Zm-6.51,0a13.93,13.93,0,0,0-.69-2.56H75.7A14.71,14.71,0,0,0,75,101.4Zm-6.49,0a15,15,0,0,0-.85-2.58h1.4A14.22,14.22,0,0,0,68.51,101.42Zm-6.51,0a15.92,15.92,0,0,0-1-2.54h1.4A13,13,0,0,0,62,101.38Zm-6.52,0a17.57,17.57,0,0,0-1.09-2.49h1.37A12.9,12.9,0,0,0,55.48,101.33Zm-6.52,0a17.51,17.51,0,0,0-1.23-2.49h1.38A12.35,12.35,0,0,0,49,101.33Zm-6.52,0a18.79,18.79,0,0,0-1.34-2.46h1.37A12.27,12.27,0,0,0,42.44,101.3Zm14.8,15.54-1.89,1.44-1.88-1.44ZM54.62,119H50.85l1.89-1.44ZM58,117.54,59.85,119H56.08Zm5.23,0L65.09,119H61.31Zm5.23,0L70.32,119H66.55Zm5.24,0L75.56,119H71.78Zm5.24,0L80.8,119H77Zm5.24,0L86,119H82.26Zm5.24,0L91.28,119H87.5Zm5.24,0L96.52,119H92.74Zm.73-.7h3.78l-1.89,1.44Zm12.19-18h1.36a19.67,19.67,0,0,0-1.34,2.44A11.46,11.46,0,0,0,107.55,98.84Zm8,0a21,21,0,0,0-1.47,2.43,11,11,0,0,0,.1-2.43Zm-79.76,0a11.4,11.4,0,0,0,.1,2.4,22.27,22.27,0,0,0-1.45-2.4Zm-3.15,0h.55a27.82,27.82,0,0,1,3.66,6.93v0c.19.7.41,1.45.64,2.22A19.45,19.45,0,0,1,32.66,98.84Zm8.71,12.55-.24-.17c-.74-.54-1.43-1.11-2.09-1.7-.47-1.44-.88-2.8-1.22-4a21,21,0,0,1-1-6.65h3.07a26,26,0,0,1,3.26,6.89c.44,2,1.07,4.45,1.88,7.11H43.69A26.16,26.16,0,0,1,41.37,111.39ZM52,116.84l-1.59,1.21v-1.21ZM111.66,124H38.34l1.54-1h70.24ZM98,119l1.6-1.22V119Zm10.67-7.64-.05.07a25.19,25.19,0,0,1-2.29,1.43H105c.82-2.74,1.45-5.17,1.88-7.21a25.91,25.91,0,0,1,3.23-6.79h3.09a21,21,0,0,1-1,6.71c-.33,1.21-.74,2.54-1.2,4a23.63,23.63,0,0,1-2,1.66ZM112.5,108c.23-.75.44-1.48.63-2.18a27.85,27.85,0,0,1,3.69-7h.52A19.37,19.37,0,0,1,112.5,108Zm6.82-16.15H30.43l-1.66-1H121Z"/></svg>