<svg id="Symbols" xmlns="http://www.w3.org/2000/svg" viewBox="0 0 150 150"><defs><style>.cls-1{fill:#231f20;}</style></defs><title>kalachakra-bold</title><g id="kalachakra_bold"><path class="cls-1" d="M71.77,91.93a.61.61,0,0,0,0-.14.71.71,0,0,0,0-.14Z"/><path class="cls-1" d="M67.34,80.46a2.22,2.22,0,1,0-.72,4.19,2.73,2.73,0,0,0,.72-.09,2.25,2.25,0,0,1-1.8-2A2.21,2.21,0,0,1,67.34,80.46Z"/><path class="cls-1" d="M64.82,73.65l.45.61,3.53-3.08v5a2.54,2.54,0,0,0-2.37-1.79,2.73,2.73,0,0,0,0,5.45A2.54,2.54,0,0,0,68.8,78v3.36a1.35,1.35,0,0,0-1-.43,1.56,1.56,0,0,0,0,3.11,1.38,1.38,0,0,0,1-.42v.87L65.35,86h0l-.43.19.8,2.17h0l.27.72,3.12-1.36h.71v3.71a1.14,1.14,0,0,1-1.08,1.17,1,1,0,0,1-.48-.13l-.47.61a1.65,1.65,0,0,0,.95.3,1.84,1.84,0,0,0,1.77-1.65,1.51,1.51,0,0,0,0-.3V87.74h.52V92a3.58,3.58,0,0,1-1.19,2.54,3.12,3.12,0,0,1-.78.52,2.93,2.93,0,0,1-1.25.27,3.38,3.38,0,0,1-3.24-3.51,3.72,3.72,0,0,1,.15-1.06H64a4.22,4.22,0,0,0-.13,1.06,4.14,4.14,0,0,0,4,4.29,3.68,3.68,0,0,0,2.27-.79,4.34,4.34,0,0,0,1.67-3.36V87.74h1.87v5.61a1.71,1.71,0,0,0,0,.31,1.84,1.84,0,0,0,1.77,1.64,1.65,1.65,0,0,0,.95-.3l-.47-.6a1.07,1.07,0,0,1-1.56-1.05V87.74h2.27v6.39c0,.1,0,.2,0,.3a1.85,1.85,0,0,0,1.78,1.65,1.7,1.7,0,0,0,1-.3l-.48-.61a1,1,0,0,1-.47.13,1.13,1.13,0,0,1-1.08-1.17V87.74h2.28v7.17c0,.1,0,.2,0,.3a1.85,1.85,0,0,0,1.78,1.65,1.7,1.7,0,0,0,1-.3L81.89,96a1,1,0,0,1-.47.13,1.13,1.13,0,0,1-1.08-1.17V72.31h2V95.69c0,.1,0,.2,0,.3a1.85,1.85,0,0,0,1.78,1.65,1.7,1.7,0,0,0,1-.3l-.48-.61a1,1,0,0,1-.47.13,1.13,1.13,0,0,1-1.08-1.17V65.07h2v31.4a1.51,1.51,0,0,0,0,.3,1.83,1.83,0,0,0,1.77,1.64,1.64,1.64,0,0,0,1-.29l-.47-.61a1,1,0,0,1-.48.13,1.13,1.13,0,0,1-1.07-1.17V58.84l-2.75,3.08-.72.81v8h-2V63.57l5.72-6.2H77.24A6,6,0,0,0,80,52.31a5.47,5.47,0,0,0-.09-1,5.33,5.33,0,0,1-10.61,0,5.47,5.47,0,0,0-.09,1,5.92,5.92,0,0,0,2.71,5.06H63.05l5.58,6.05H63.76l1.44,3.85h3.5l-5.23,4.56,1.35,1.82Zm4.7-1.34h.3V76h-.3Zm2.25,5.23h1.86v2.63H71.77Zm-.72,2.63h-.52V77.54h.52Zm3.3-2.63h2.27v2.63H74.35Zm0-1.56V72.31h2.27V76Zm0-5.23V63.6h2.27v7.15Zm-.72,0H71.77V63.6h1.86Zm0,1.56V76H71.77V72.31ZM71.05,76h-.52V72.31h.52Zm-4.62,3a2,2,0,1,1,1.8-2A1.88,1.88,0,0,1,66.43,79Zm3.09-1.49h.3v2.63h-.3Zm-1.7,5.74a.74.74,0,0,1-.73-.77.75.75,0,0,1,.73-.78.74.74,0,0,1,.71.78A.73.73,0,0,1,67.82,83.28Zm-2.2,3.47,3.18-1.4V87l-2.65,1.16Zm3.9-.57V81.73h.3v4.45Zm1,0V81.73h.52v4.45Zm1.24,0V81.73h1.86v4.45Zm2.58,0V81.73h2.27v4.45Zm5.27,0H77.34V81.73h2.28Zm0-6H77.34V77.54h2.28Zm0-4.19H77.34V72.31h2.28Zm-2.28-5.23V63.6h2.28v7.15ZM71.05,63.6v7.15h-.52V63.6Zm-1.23,7.15h-.3V67.27h0V63.6h.29ZM65.92,65H68.8v.78H65.92Zm-1.44,7,4.32-3.77v2l-3.42,3Z"/><path class="cls-1" d="M74.55,55.14A3,3,0,0,0,77.43,52c0-1.72-2.88-6.23-2.88-6.23S71.68,50.3,71.68,52A3,3,0,0,0,74.55,55.14Z"/><path class="cls-1" d="M117,79.6c0-7-2.83-14.15-8.63-21.64a22.26,22.26,0,0,0,1.11-7c0-10.69-9.55-18-16.74-22.6a110.85,110.85,0,0,0-12.32-6.75L75,19.16l-5.42,2.49a113.88,113.88,0,0,0-12.32,6.76C50.07,33,40.5,40.33,40.5,51A21.89,21.89,0,0,0,41.63,58C35.82,65.45,33,72.55,33,79.6a39.65,39.65,0,0,0,6.5,21.75c.56.85,1.16,1.67,1.77,2.48v0c.42,7.33,6.71,13.23,15.17,14.61,1.85,7.07,9.48,12.38,18.58,12.38s16.71-5.31,18.57-12.38c8.44-1.38,14.72-7.27,15.15-14.59h0c.62-.81,1.22-1.64,1.78-2.5A39.71,39.71,0,0,0,117,79.6ZM60.41,56.29c-1.32-1.14-2.9-3-2.9-5.28,0-2.46,8.28-8.62,17.5-13.12,9.21,4.5,17.5,10.66,17.5,13.12,0,2.3-1.59,4.15-2.92,5.3l-3.26,2.82,3.07,3C96.34,69.06,100,75.09,100,79.6a22.73,22.73,0,0,1-3.74,12.46,24.61,24.61,0,0,1-10.51,9,25.38,25.38,0,0,1-6.7,2,26.27,26.27,0,0,1-8.16,0,25.75,25.75,0,0,1-6.68-2,24.6,24.6,0,0,1-10.51-9A22.67,22.67,0,0,1,50,79.6C50,75.14,53.77,69,60.62,62.17l3.09-3.05ZM90,110.76H85.68L86,115v.1c0,4.18-5,7.71-11,7.71-4.79,0-9-2.28-10.46-5.38a5.84,5.84,0,0,1-.52-1.91c0-.16,0-.32,0-.48l0-.67.29-3.53v-.06l-4.29,0c-5.85-.06-10.82-3.59-10.82-7.7,0-.13,0-.25,0-.34A6,6,0,0,1,50,100.3a33.35,33.35,0,0,0,19.67,10.59,34.27,34.27,0,0,0,19.42-2.6,32.91,32.91,0,0,0,10.93-8,5.51,5.51,0,0,1,.75,2.41c0,.11,0,.22,0,.34C100.77,107.17,95.82,110.7,90,110.76Zm15.48-16.59a8.71,8.71,0,0,0-.7-.8A30.45,30.45,0,0,0,108,79.6c0-6-3.48-12.88-10.32-20.34A14,14,0,0,0,100.51,51c0-9.22-16.67-17.88-23.83-21.18L75,29.06l-1.67.77c-7.17,3.3-23.83,12-23.83,21.18a13.87,13.87,0,0,0,2.81,8.24C45.46,66.7,42,73.54,42,79.6a30.34,30.34,0,0,0,3.29,13.78c-.25.25-.48.51-.71.78A31.63,31.63,0,0,1,41,79.6c0-5.68,2.71-11.7,8.29-18.39l1.61-1.94L49.83,57a14.19,14.19,0,0,1-1.33-6c0-6.75,7.46-12.28,13.07-15.86a105.36,105.36,0,0,1,11.35-6.23L75,28l2.1,1a103.65,103.65,0,0,1,11.34,6.22c5.61,3.58,13,9.1,13,15.86a14.38,14.38,0,0,1-1.32,6l-1,2.28,1.6,1.93c5.56,6.69,8.27,12.7,8.27,18.38A31.58,31.58,0,0,1,105.44,94.17Z"/></g></svg>