<svg id="Symbols" xmlns="http://www.w3.org/2000/svg" viewBox="0 0 150 150"><defs><style>.cls-1{fill:#231f20;}</style></defs><title>mthun-bold</title><g id="mthun_bold"><path class="cls-1" d="M60.59,33.83H59.06v1h5.09c.11-.15.48-.75.48-.75h1l.18.75h4.85a16.36,16.36,0,0,0-.19-3.45l.09,0a.82.82,0,1,0,0-1.63.87.87,0,0,0-.51.18c-.72-1.56-2-1.77-3.35-1.87a18,18,0,0,0-2.45,0s.13-3.28-1-3.58l-.31-3.6-.3-3.57-.39,1.57a16.52,16.52,0,0,0-.43,3.25c0,.14.09,2,.09,2L61,20.48l-.56-2.77-.41,2.17c-.22.91.07,2.44.87,4.91C59.38,26.37,58.48,27.2,58.8,28s1.94.64,2.79.7a5,5,0,0,0-1.46,3.67l-1.8,0v1h2A2.77,2.77,0,0,0,60.59,33.83Zm.61-7.24a.25.25,0,1,1,.25-.25A.25.25,0,0,1,61.2,26.59Z"/><path class="cls-1" d="M65.92,22.45l.77,2.73-.15,1.91.48,0,.51-3-.1-1.18,2.13,1,.32,1.94-.47,2,.35.24.72-1.82s.1-.32.71-2c7.85,2.91,13.5,4.16,13.68,3.23,1.57.37,3.4,0,2.94-.88,3.73-1.84-6.44-3.22-13-4.33-1.28-2.11-5.5-4.3-7.52-5-.34-.63-2.22-3.76-4.58-2.58a4.1,4.1,0,0,0-3.06-.09,20.85,20.85,0,0,1,3.16,1.33C63,17.21,64.7,21.23,65.92,22.45Zm-2-7.34a.25.25,0,1,1-.25.25A.25.25,0,0,1,63.93,15.11Z"/><path class="cls-1" d="M34.74,116.4c.51,8.21,3.18,11.63,7.88,10.69,5.28-1.06,6.58-7.59,4.06-11s-9.3-.93-6.74,4.14c1.19-.75,1.69-1.13,1.69-1.13-.56-1.12.59-2.13,1.62-2,1.34.12,3.41,4.51-.51,6s-4.86-3.94-3.79-9.37c1.35-6.85,6.24-21.62,6.24-21.62,1.94.74,3.17-.26,4.81-3.27-3.81,1.68-10.54,2.8-15.06,3.5C34.59,99,34.5,106.92,34.74,116.4Z"/><path class="cls-1" d="M123.7,106.62c5.37-31.12-15.36-47.38-29.5-48.18l-17,0-5,12H67.93v-1h3.6l5-12h0l.14-.33s3.21,0,11.25,0c1.75-.19,6.87-5,9.31-6.73s2.23.27,2.06,1.12l.63.15c.75-2.75-.72-4.19-3.54-2-3.08,2.44-6.6,5.27-8.16,5.69a24.27,24.27,0,0,1-6.46.21s-5.86-10.5-6.82-12S73.11,42.3,71,42.3c2.1-2.42.3-6.09-.32-6.86H65.83l0,1.37a2.18,2.18,0,0,1,1.49-.6,2.78,2.78,0,0,1,2.5,3,2.78,2.78,0,0,1-2.5,3l-1.47,0a13.19,13.19,0,0,0-4.17.33c.85-.9,1.07-5.7,1.07-7.06H58.6c.16.65,1.84,1.13,3.36.77C60,37.67,59,44.5,59.52,44.5s1.59.15,6.57,0c.85,2.9,2.91,6.32,4.93,7.34,0,0-3.38,6.54-3.46,6.54l-17.1-.06c-4,0-13-2.2-15.31,30.43a89.88,89.88,0,0,1-14.08,2.07,39,39,0,0,0,11.37.91l1.14-.17c4.9-.75,13.83-2.12,17.21-4.23.13-.25.26-.52.39-.8a5.61,5.61,0,0,0,3.45-1.13C54,92.49,55.92,101.78,58,104.94c-.8,6.21,1,9.14,3.29,11.63l1.32-2.41.88.48L62,117.34c-5.82,10.95-7.69,14.37-7.69,14.37l8.26,3.63,7.85-11.23,6.19,4.42,4.18-7.38-5.17-3.87,3.17-4.59c6.66,1.32,14.16.36,17-.91A9.28,9.28,0,0,1,97.34,104l.84.55c-1.26,1.88-2.21,3.84-1.21,8v0c3.74,8.41,5.29,7.51,3.64,23.15h10.75c-.19-4.06-.8-19.94-.8-19.94l5.53-4.81,5.7,17.69,7.13-4.44ZM72,56.46l-.42,1.93H70ZM47.9,73.74a1,1,0,1,1,0-2,1,1,0,0,1,0,2Zm18-9.73a38.57,38.57,0,0,1-3,7.6,19.82,19.82,0,0,0-1.12,2.57,8.55,8.55,0,0,0,.71,2.75c.7,2,1.44,4.12.63,5.26a4.23,4.23,0,0,1-3.45,1.49,4.94,4.94,0,0,1-.93-.08c-2.64-.44-4.71-2.62-5.69-6l1-.28c1.18,4.07,3.58,5,4.9,5.28a3.55,3.55,0,0,0,3.39-1c.51-.72-.22-2.82-.76-4.35A7.48,7.48,0,0,1,60.86,74,17.72,17.72,0,0,1,62,71.18a36.93,36.93,0,0,0,2.9-7.39,1.22,1.22,0,0,0-.69-1.57c-2-.88-7.08.64-9.83,4.47a2.27,2.27,0,0,0-.48,1.88,2,2,0,0,0,1,1c.83-.45,2.83-1.31,3.56-.46s-.23,2-1.07,3l-.76-.65c1.12-1.34,1-1.74,1-1.74a4.85,4.85,0,0,0-2.49.83L55,70.7l-.22-.08A3.07,3.07,0,0,1,53,68.88a3.15,3.15,0,0,1,.59-2.76c2.87-4,8.48-6,11.07-4.81A2.2,2.2,0,0,1,65.92,64ZM120,90.72a2.81,2.81,0,0,1-2.15.14,2.78,2.78,0,0,1-1.61-1.42,2.32,2.32,0,0,1-.12-1.79,2.29,2.29,0,0,1,1.18-1.35,2,2,0,0,1,2.65.9l-.89.44a1,1,0,0,0-1.31-.45,1.34,1.34,0,0,0-.62,1.81,1.82,1.82,0,0,0,2.43.82,2.39,2.39,0,0,0,1.08-3.2,3.11,3.11,0,0,0-4.16-1.41l-.44-.9a4.12,4.12,0,0,1,5.5,1.87A3.41,3.41,0,0,1,120,90.72Z"/><circle class="cls-1" cx="66.08" cy="38.39" r="0.25"/><circle class="cls-1" cx="67.67" cy="38.39" r="0.25"/><polygon class="cls-1" points="63.05 57.9 66.74 57.9 69.42 53.81 63.05 57.9"/><rect class="cls-1" x="66.24" y="39.94" width="1.43" height="1"/></g></svg>