<?xml version="1.0" encoding="UTF-8"?>
<svg id="icons" xmlns="http://www.w3.org/2000/svg" viewBox="0 0 120 120">
  <path d="m12.75,58.57c.88.39,1.76.56,2.62.56,2.37,0,4.59-1.25,6.24-2.54l1.72,5.78c-4.06-.62-7.39.1-9.94,2.14-4.08,3.27-5.99,9.73-5.95,20.14-.02.11-.03.22-.03.33,0,.14.02.28.04.41.01,1.13.04,2.3.1,3.52.1,2.11,1.74,3.77,3.74,3.77h4.72c.99,0,1.92-.4,2.62-1.14.75-.79,1.16-1.88,1.11-3.01-.06-1.25-.06-2.44-.03-3.55,0,0,0,0,0,0,0,0,0,0,0,0,.13-4.35.93-7.55,2.19-8.49,1.09-.81,2.07-.8,2.86-.5-1.38,1.05-2.5,2.2-3.16,3.46-.84,1.6-.95,3.31-.32,4.94,3.1,7.99,16.61,9.58,26.9,9.58,1.59,0,3.1-.04,4.48-.1.17.05.35.08.54.08.26,0,.51-.05.74-.15,1.74-.09,3.23-.21,4.35-.32,1.52-.14,2.69-1.46,2.72-3.06l.09-5.03c.02-.99-.39-1.88-1.06-2.46,2.3-.16,4.7-.3,7.15-.39-1.68.95-2.44,3.13-1.69,5.03l1.18,3c.39,1,1.13,1.77,2.08,2.16.44.18.9.27,1.36.27s.96-.1,1.42-.3l12.09-5.26c-.57.62-1.12,1.39-1.59,2.39-.38.81-.17,1.78.51,2.36,1.11.95,3.06,1.93,5.41,1.93,2.19,0,4.73-.85,7.25-3.38,2.96-.26,5.96-2.02,8.53-5.04,4.3-5.04,8.15-14.62,6.04-26.39-.05-.29-.17-.56-.33-.79-1.5-9.22-7.57-16.65-15.46-19.21-.04-.01-.07-.02-.11-.03-1.88-.6-3.87-.92-5.92-.92h-15.15c-.05-.64-.15-1.29-.32-1.92-1.09-4.09-4.39-6.5-8.79-6.41-7.51.13-12.04,4.88-13.69,6.99-2.17-.11-4.29-.87-6.14-2.2l-1.25-.9c-.55-.39-.71-1.35-.35-2.04,5.31-10.1-1.08-17.16-1.35-17.45-.5-.54-1.26-.76-1.98-.57-.71.19-1.27.76-1.43,1.48-.02.1-.56,2.45-.69,6.99-.06,2.16-2.54,5.05-4.16,5.38-.27.05-.39.08-.62-.44-.73-1.62.91-5.11,4.2-8.9.74-.85.88-2.06.37-3.07-.49-.97-1.48-1.54-2.54-1.45-7.44.6-12.86,6.61-13.18,14.6-.14,3.57-1.96,5.04-5.71,7.77-1.58,1.15-3.37,2.45-5.21,4.17-2.83,2.65-4.06,6.11-3.45,9.74.62,3.69,3.13,7.1,6.24,8.47Zm-1.2,30.1c-.03-.58-.05-1.14-.06-1.7h4.2c0,.58.02,1.15.04,1.7h-4.18Zm45.47.91c-.58.05-1.19.09-1.81.13v-3.65l1.88.08-.06,3.43Zm12.2-3.48s-.01-.09,0-.12l.76-.35,1.46,2.76-1.11.48-1.09-2.77Zm17.52,3.86c.37-.35.79-.59,1.26-.73.82-.23,1.75-.14,2.61.09-1.56.93-2.9.91-3.88.64Zm13.96-6.86c-1.86,2.18-3.96,3.49-5.85,3.65-1.05-.59-3.32-1.67-5.84-1.66l6.89-3c3.27-1.05,5.99-2.58,8.13-4.55-.97,2.28-2.14,4.17-3.33,5.55Zm-45.45-36.39s0,.07,0,.11h-3.1c.11-.71.24-1.41.4-2.1.82.78,1.72,1.45,2.7,1.99Zm17.1-4.35h12.51l2.34,18.14-26.18,2.44c-.06-.22-.11-.47-.17-.73,0-.05-.02-.11-.03-.16-.7-3.37-1.21-9.23-1.48-13.91,3.86.69,7.55-.29,9.75-1.51,1.52-.84,2.66-2.41,3.27-4.29Zm19.73,5.35h-2.5l-.18-1.4h2.52l.16,1.4Zm-1.99,4h2.44l.38,3.4h-2.39l-.44-3.4Zm-34.37,2h-4.16c.02-.96.07-1.92.14-2.89h3.79c.06.91.14,1.89.22,2.89Zm-4.11,4h4.51c.13,1.14.29,2.26.46,3.31l-4.62,1.43c-.15-1.48-.28-3.07-.35-4.74Zm5.84,7.23c.12.37.25.71.38.99.33.7,1.04,1.15,1.81,1.15.06,0,.12,0,.19,0l.28-.03v2.81l-6.97.32c-.18-.91-.42-2.17-.65-3.69l4.97-1.54Zm6.65,1.73l2.77-.26v3.14l-2.77.13v-3Zm6.77-.63l3.12-.29.31,3.46-3.42.16v-3.33Zm7.42,2.99l-.32-3.65,3.42-.32.85,3.79-3.94.18Zm8-.36l-.89-3.98,3.23-.3,3.65,4.01-5.99.27Zm5.05-7.25l-.3-2.3h2.32l.58,5.17-2.61-2.87Zm-27.56-27.4c3.23-.06,4.43,1.84,4.86,3.45.65,2.42-.25,4.99-1.49,5.67-2.01,1.11-5.42,1.76-8.52.71-.25-.08-.49-.18-.72-.28,0,0,0,0-.01,0-1.91-.83-3.43-2.28-4.54-4.32,1.34-1.66,4.81-5.13,10.43-5.22Zm-46.26,5.41c.33-.24.65-.47.97-.71.05.25.16.5.31.73,1.39,2.01,3.36,3.1,5.61,3.1.19,0,.37,0,.56-.02,2.39-.19,4.81-1.63,5.63-3.35.48-1,.06-2.2-.93-2.68-1-.48-2.18-.07-2.66.93-.2.32-1.3,1.1-2.52,1.12-.92.03-1.74-.42-2.39-1.37-.22-.32-.52-.55-.86-.7,2.01-1.91,3.49-4.25,3.64-7.89.15-3.82,2.09-8.01,5.98-9.85-2.26,3.27-3.88,7.05-2.46,10.16.97,2.14,2.85,3.16,5.06,2.71,2.85-.57,5.73-3.53,6.87-6.68-.14,1.52-.6,3.23-1.57,5.08-1.29,2.45-.61,5.59,1.55,7.15l1.25.9c2.36,1.7,5.05,2.69,7.84,2.91-.35,1.15-.64,2.32-.88,3.5-.03-.05-.06-.1-.09-.15-3.08-4.35-7.31-6.29-12.93-5.96-1.1.07-1.94,1.01-1.88,2.12.03.5.24.94.56,1.27-.65.67-.76,1.72-.21,2.51,4.41,6.48,8.53,7.39,10.49,7.39.18,0,.33,0,.47-.02,1.07-.09,2.02-.45,2.77-1.03-.8,11.1,1.77,21.55,1.91,22.13.22.89,1.03,1.51,1.94,1.51.03,0,.06,0,.09,0l45.09-2.05s.07-.01.1-.02c.08,0,.16-.02.24-.04.05-.01.1-.03.14-.04.08-.02.15-.05.22-.08.05-.02.09-.04.14-.07.07-.04.13-.08.19-.12.05-.03.09-.07.14-.1.02-.02.05-.03.07-.05.03-.03.06-.06.08-.09.03-.03.06-.05.09-.09.02-.02.03-.04.04-.06.05-.06.08-.12.12-.18.03-.05.06-.1.09-.16.03-.07.06-.13.09-.2.02-.06.04-.11.06-.17.02-.07.03-.14.04-.22,0-.06.02-.12.02-.17,0-.08,0-.16,0-.24,0-.04,0-.09,0-.13l-2.89-25.53c5.95,3.34,10.08,10.37,10.08,18.51,0,6.39-2.37,10.88-7.21,13.64-.11.03-.22.06-.32.1l-23.17,10.08-1.5-2.84,3.62-1.68s.01,0,.02,0l12.36-5.72c1-.46,1.44-1.65.98-2.65-.46-1-1.65-1.44-2.66-.98l-11.89,5.5c-18.63-.22-37.5,2.94-37.69,2.98-1.01.17-1.72,1.08-1.66,2.1s.89,1.83,1.91,1.87l12.6.54v4c-10.68.29-23.87-.97-26.2-6.97-.22-.56-.18-1.04.13-1.63,1.91-3.63,11.89-7.18,17.74-8.57,1.07-.25,1.74-1.33,1.48-2.41-.25-1.08-1.33-1.74-2.41-1.48-1.12.26-7.89,1.94-13.45,4.82-2.13-1.8-5.58-2.94-9-.39-2.4,1.79-3.39,5.65-3.7,9.7h-4.35c.16-7.95,1.64-13.1,4.44-15.35,2.06-1.66,5.04-1.92,9.1-.82.83.22,1.72-.02,2.32-.64.62-.64.85-1.57.6-2.44l-2.67-8.95c3.85-.13,8.78-1.75,10-7.42.23-1.08-.45-2.14-1.53-2.38-1.08-.23-2.14.45-2.38,1.53-1.12,5.2-7.86,4.2-8.14,4.15-.69-.11-1.4.15-1.86.69-.2.24-.5.56-.86.9.15-.49.23-.85.25-.97.22-1.08-.47-2.13-1.55-2.36-1.09-.23-2.14.47-2.37,1.54-.16.75-.9,3.06-2.14,3.78-.25.14-.61.26-1.2.13-1.1-.8-2.18-2.16-2.74-3.83.3.17.63.27.96.27.64,0,1.28-.31,1.66-.89l1.85-2.76c.62-.92.37-2.16-.55-2.77-.92-.61-2.16-.37-2.77.55l-1.4,2.09c.24-1.19.85-2.5,2.2-3.76,1.65-1.55,3.26-2.72,4.82-3.85Zm27.85,7.88c-.07.14-.33.3-.77.33-1.57.13-4.23-1.21-7.1-5.3,3.31.18,5.71,1.54,7.66,4.29.19.27.28.54.21.68Z"/>
</svg>