<?xml version="1.0" encoding="UTF-8"?>
<svg id="icons" xmlns="http://www.w3.org/2000/svg" viewBox="0 0 120 120">
  <path d="m31.23,100.14c-.19.2-.17.52.03.71.1.09.22.13.34.13.13,0,.27-.05.37-.16.39-.43.36-1.13-.07-1.56-.19-.2-.51-.2-.71,0-.2.19-.2.51,0,.71.07.07.07.16.04.18Z"/>
  <path d="m31.19,101.61c-.2.19-.2.51,0,.71.07.07.07.16.04.18-.19.2-.17.52.03.71.1.09.22.13.34.13.13,0,.27-.05.37-.16.39-.43.36-1.13-.07-1.56-.19-.2-.51-.2-.71,0Z"/>
  <path d="m33.5,95.17c.1.09.22.14.34.14.13,0,.27-.05.36-.16.51-.54.53-1.4.03-1.91-.19-.2-.51-.2-.71,0-.2.19-.2.51,0,.71.12.13.11.37-.04.52-.19.2-.18.52.02.71Z"/>
  <path d="m33.29,101.85c-.19.2-.18.52.02.71.1.09.22.14.34.14.13,0,.27-.05.36-.16.66-.7.64-1.83-.04-2.53-.19-.2-.51-.2-.71,0-.2.19-.2.51,0,.71.31.32.32.83.03,1.15Z"/>
  <path d="m32.25,100.54c-.2.19-.2.51,0,.71.03.03.02.07,0,.09-.19.2-.18.52.02.71.1.09.22.14.34.14.13,0,.27-.05.36-.16.38-.41.37-1.06-.02-1.47-.19-.2-.51-.2-.71,0Z"/>
  <path d="m30.04,101.11c-.25,0-.44.13-.43.27,0,.14.21.25.46.25.25,0,.44-.13.43-.27s-.21-.25-.46-.25Z"/>
  <path d="m26.54,100.95c-.43.01-.77.28-.76.59.01.32.37.56.81.55.43-.01.77-.28.76-.59-.01-.32-.37-.56-.81-.55Z"/>
  <path d="m26.7,50.37c-.26-.1-.55.04-.64.3-.07.18-.26.29-.42.23-.26-.09-.55.05-.64.31-.09.26.04.55.31.64.14.05.28.07.42.07.55,0,1.07-.35,1.27-.9.1-.26-.04-.55-.3-.64Z"/>
  <path d="m27.55,50.69c.14.05.28.07.42.07.55,0,1.07-.35,1.27-.9.1-.26-.04-.55-.29-.64-.26-.1-.55.04-.64.29-.07.18-.26.29-.43.23-.26-.09-.55.05-.64.31-.09.26.05.55.31.64Z"/>
  <path d="m29.02,51.68c.1-.26-.04-.55-.3-.64-.26-.1-.55.04-.64.3-.07.18-.26.29-.43.23-.27-.09-.55.05-.64.31-.09.26.05.55.31.64.14.05.28.07.42.07.55,0,1.07-.35,1.27-.9Z"/>
  <path d="m29.32,52.23c-.26-.1-.55.04-.64.3-.07.18-.25.29-.43.23-.26-.09-.55.05-.64.31-.09.26.05.55.31.64.14.05.28.07.42.07.55,0,1.07-.35,1.27-.9.1-.26-.04-.55-.3-.64Z"/>
  <path d="m26.79,49.61c.16-.08.17-.37.03-.65-.15-.28-.39-.45-.55-.37-.16.08-.17.37-.03.65s.39.45.55.37Z"/>
  <path d="m24.5,45.36c.36-.17.44-.71.18-1.21-.26-.49-.75-.75-1.11-.58-.36.17-.44.71-.18,1.21.26.49.75.75,1.11.58Z"/>
  <path d="m85.93,19.48c.2,0,.39-.08.54-.23.27-.28.28-.71.04-1,.01-.04.05-.12.15-.2.31-.28.33-.75.06-1.06-.28-.31-.75-.34-1.06-.06-.41.36-.64.85-.65,1.33,0,.39.14.75.41,1.01.15.14.33.21.52.21Z"/>
  <path d="m85.93,22.5c.2,0,.39-.08.54-.23.27-.28.28-.71.04-1,.01-.04.05-.12.15-.2.31-.28.33-.75.06-1.06-.28-.31-.75-.34-1.06-.06-.41.36-.64.85-.65,1.33,0,.39.14.75.41,1.01.15.14.33.21.52.21Z"/>
  <path d="m84.04,20.89c.19,0,.37-.07.51-.22.29-.3.28-.75-.02-1.04h0c.31-.28.34-.75.06-1.06-.28-.31-.75-.34-1.06-.06-.31.27-.49.66-.5,1.07,0,.4.16.8.45,1.08.15.15.35.22.54.22Z"/>
  <path d="m86.77,19.58c0,.19.31.35.68.35.37,0,.68-.16.68-.35,0-.19-.31-.35-.68-.35-.37,0-.68.16-.68.35Z"/>
  <path d="m93.14,20.06c.71,0,1.28-.3,1.28-.67,0-.36-.58-.66-1.28-.65-.71,0-1.28.3-1.28.67,0,.36.58.66,1.28.65Z"/>
  <path d="m97.74,51.92c.14,0,.28-.02.42-.07.26-.09.4-.38.31-.64-.09-.26-.38-.4-.64-.31-.17.06-.36-.05-.43-.23-.1-.26-.39-.39-.64-.29-.26.1-.39.38-.29.64.21.55.73.9,1.27.9Z"/>
  <path d="m95.49,50.76c.14,0,.28-.02.42-.07.26-.09.4-.38.31-.64-.09-.26-.37-.4-.64-.31-.16.05-.36-.05-.43-.23-.1-.26-.38-.39-.64-.29-.26.1-.39.38-.29.64.2.55.73.9,1.27.9Z"/>
  <path d="m95.8,51.56c-.16.06-.36-.05-.43-.23-.1-.26-.39-.39-.64-.29-.26.1-.39.38-.29.64.21.55.73.9,1.27.9.14,0,.28-.02.42-.07.26-.09.4-.38.31-.64-.09-.26-.38-.4-.64-.31Z"/>
  <path d="m95.11,53.78c.14,0,.28-.02.42-.07.26-.09.4-.38.31-.64-.09-.26-.38-.4-.64-.31-.16.06-.36-.05-.43-.23-.1-.26-.39-.39-.64-.29-.26.1-.39.38-.29.64.21.55.73.9,1.27.9Z"/>
  <path d="m97.23,49.24c.15-.28.13-.57-.03-.65s-.41.09-.56.37c-.15.28-.13.57.03.65.16.08.41-.09.56-.37Z"/>
  <path d="m98.96,45.36c.36.17.85-.08,1.11-.58s.17-1.03-.18-1.21c-.36-.17-.85.08-1.11.58s-.17,1.03.18,1.21Z"/>
  <path d="m111.75,76.38c0-.06,0-.11,0-.17,0-.02,0-.04,0-.06,0,0,0-.02,0-.03,0,0,0,0,0,0-.5-3.26-1.68-7.28-1.75-7.52l-1.22-3.06c-.38-.96-.74-1.72-1.14-2.4-.89-1.53-1.91-2.74-3.14-3.76.18-.29.29-.62.29-.98,0-1.04-.85-1.88-1.9-1.88-.26,0-.5.05-.73.15-.26-.24-.52-.43-.78-.58.02-.28-.02-.55-.09-.81,4.53-3.99,4.47-4.16,4.19-4.76-.12-.25-.42-.43-.71-.45,1.34-2.79,1.07-3.13.83-3.44-.2-.26-.53-.37-.86-.29-.02,0-.04,0-.05.01.45-1.16.22-1.44.06-1.65-.21-.27-.57-.39-.92-.29-.34.09-1.03.26-1.6.4-.09-3.17-.66-3.78-1.12-3.92-.42-.22-1.36-.23-4.14,1.11-.09-.38-.2-.79-.32-1.08-.13-.32-.42-.53-.75-.55-.26-.02-.62-.04-1.39.99h0c-.14-.32-.43-.52-.77-.53-.35-.02-.83-.01-2.1,2.56,0-.01-.02-.02-.02-.04-.17-.31-.58-.5-.92-.4-1.15.34-1.65,5.78-1.63,7.91-.1.06-.2.12-.29.2-.49.42-.8,1-.84,1.59-.04.51.12.99.45,1.36.37.41.89.62,1.45.62s1.09-.19,1.55-.58c.1-.09.19-.18.28-.28.27.36.61.67,1.02.89,0,.23-.05.53-.19.81-.09.18-.22.32-.39.43-.12.07-.32.17-.63.22-.27.03-.6.06-.96.08-1.17.06-2.86.06-5.19,0-.19,0-.37,0-.54-.01.54-.47.99-.89,1.36-1.27,1.09-1.15,1.52-2.03,1.35-2.78-.04-.18-.12-.33-.22-.47,1.22-.74,1.67-1.91,1.52-2.9-.16-1.03-.93-1.7-1.84-1.63-.73.06-1.52,0-2.27-.16-1.31-4.92-2.68-9.22-4.09-12.93.93-2.18,1.69-4.23,2.06-5.23,1.53.34,5.05.87,6.45-.9.39-.03.74-.06,1.07-.09.18.6.59,1.79,1.15,2.56-1.43,2.54-.36,3.77.44,4.68.64.73.93,1.07.32,2.1-.3.51-1.22,2.05-.3,2.89.26.23.58.33.94.33.8,0,1.78-.49,2.53-1.03,1.87-1.37,3.56-4.81.96-8.83.57-.64.96-1.5,1.33-2.35.7-1.6,1.25-4.79.13-7.4.49-.59.58-.96.56-1.22.05-.49-.35-1.37-3.21-3.3l1.69-1.19c.25-.18.37-.49.3-.78-.07-.3-.31-.52-.61-.57l-1.64-.26c.49-.3.94-.6,1.16-.84.21-.23.25-.57.11-.84-.14-.28-.43-.45-.75-.41l-3.29.34c0-.26-.08-.52-.27-.76-.29-.36-.78-.43-1.22-.44-1.56-.05-5.69.66-7.56,1.83-.22-.17-.47-.33-.74-.43-1.28-.48-2.64-.02-3.1,1.05-.03.07-.05.15-.07.22-2.09-1.37-4.69-2.3-7.23-2.43-2.89-.14-8.19.65-11.35,7.38-.19,0-.37.02-.56.05-.55-4.18-3.76-6.45-6.88-6.85-3.34-.43-6.26,1.21-7.11,3.99-.56,1.83-1.44,5.71-2.37,10.13l-1.59-3.08-.13-.3c-.4-1.37-.61-2.79-.63-4.22-.05-2.87-.39-4.86-1.01-5.9-.41-.68-.87-.95-1.38-.79-.29.09-.77.24-.89,1.87-2.17-1.02-4.76-1.18-5.45-.47-.3.31-.34.76-.09,1.11l.19.27c.49.68,1.4,1.94,2.04,3.77.33.96,1.1,1.71,2.2,2.23.16.53.28,1.08.34,1.64.04.33.08.7.14,1.09,0,0,0,0,0,0,0,.01,0,.03,0,.04,0,.02,0,.04,0,.06,0,0,0,0,0,0,.26,2.05.61,3.84,1.05,5.88.41,1.86,1.36,3.13,2.84,3.78.28.12.57.21.87.28-1.38,6.88-2.59,13.24-2.77,14.15-.87.23-1.83.34-2.7.26-.92-.07-1.69.61-1.84,1.63-.15.99.3,2.16,1.52,2.9-.1.14-.18.29-.22.47-.18.75.25,1.63,1.35,2.78.37.39.81.81,1.36,1.28-.18,0-.36,0-.55.01-2.32.06-4.02.06-5.18,0-.37-.02-.7-.05-.95-.08-.33-.05-.54-.14-.65-.22-.17-.11-.3-.25-.39-.43-.14-.28-.19-.58-.19-.81.41-.22.75-.52,1.02-.89.09.1.17.2.28.28.46.39,1.02.58,1.55.58s1.08-.21,1.45-.62c.33-.37.49-.85.45-1.36-.04-.59-.35-1.17-.84-1.59-.09-.08-.19-.14-.29-.2.02-2.13-.49-7.58-1.63-7.91-.34-.1-.76.09-.92.4,0,.01-.01.02-.02.04-1.28-2.57-1.74-2.58-2.1-2.56-.33,0-.63.21-.77.53t0,0c-.78-1.03-1.14-1.01-1.39-.99-.33.02-.62.23-.75.55-.12.29-.23.71-.32,1.08-2.78-1.34-3.72-1.33-4.14-1.11-.46.14-1.02.75-1.12,3.92-.57-.14-1.26-.31-1.6-.4-.36-.09-.71.02-.92.29-.16.21-.39.49.06,1.65-.02,0-.04,0-.05-.01-.33-.08-.66.03-.87.29-.24.3-.51.64.84,3.44-.29.02-.59.2-.71.45-.28.61-.34.78,4.19,4.76-.07.26-.11.53-.09.81-.26.15-.52.34-.78.58-.23-.09-.48-.15-.74-.15-1.05,0-1.9.84-1.9,1.88,0,.36.11.7.29.98-1.23,1.02-2.25,2.22-3.14,3.75-.4.68-.76,1.44-1.14,2.4l-1.25,3.13c-.05.17-1.24,4.22-1.73,7.48-.01.07,0,.14.01.21-.21.76-1.01,3.97-.48,5.96.69,2.58,1.69,3.84,3.08,3.84.07,0,.14,0,.22,0,.24-.03.45-.15.6-.35.11-.15.38-.51.21-2.28.61.3,1.24.4,1.75,0,.68-.55.54-1.52-.41-2.87-.44-.63-.61-1.39-.46-2.12l.29-1.5c.14-.54.3-1.2.45-1.93.16-.76.58-1.76,1.15-2.83.22.21.5.36.81.45.02.06.03.12.05.19-.5.34-.82.89-.82,1.52,0,.81.54,1.5,1.28,1.76-.22,1.7.03,3.42.73,5.05.43.99.81,1.81,1.13,2.5,1.25,2.68,1.29,2.91.66,3.61-.81.89-2.34,3.05-3.47,4.7-.49.71-.87,1.27-1.03,1.51-.66.45-3.39,2.45-3.44,4.87-.06,2.9.18,5,1.5,5.83.48.3,1.04.45,1.58.45.47,0,.92-.11,1.29-.34.41-.25,1.08-.86.99-2.13-.09-1.23.57-3.67.9-4.71l.15-.14c.24-.22.61-.58,1.09-1.04,4.2-4.17,6.49-6.89,6.98-8.32.24-.71.41-1.66.48-2.73.21.08.43.13.66.13,1.05,0,1.9-.84,1.9-1.87,0-.15-.02-.3-.06-.45.14-.18.29-.37.44-.58,0,0,.02,0,.03,0,1.05,0,1.91-.84,1.91-1.87,0-.42-.15-.81-.41-1.13.09-.24.18-.49.27-.76.75-.25,1.29-.94,1.29-1.76,0-.47-.19-.91-.51-1.25.31-.31.6-.63.84-.92.09,1.87.19,4.64.16,6.8,0,.46-.02.9-.04,1.29v.13s0,.03,0,.04h0c-.03.46-.09,1.09-.18,1.38-.79,2.39,1.56,3.32,4.06,4.3l.09.04c-1.23.46-2.25.93-2.92,1.26-.37-.87-1.19-1.5-2.33-1.74-2.08-.44-4.98.48-6.04,2.75-.76,1.64-.69,2.98.19,4.01-.08.09-.12.18-.15.29v.04c-2.28.03-2.45.41-2.59.72-.1.23-.1.48.01.71-.82.2-.93.48-1.01.67-.12.31-.06.66.18.91.13.14.3.31.47.46-1.72,1.58-1.96,2.29-1.91,2.69,0,.4.31,1.09,2.14,2.59-.16.14-.31.29-.43.44-.18.23-.23.62-.1.88.14.29.31.62,2.29.69.03.18.1.36.23.51.67.77,3.2.94,5.37.94.62,0,1.21-.01,1.72-.03.01,0,1.39-.09,3.04-.27.5.94,1.86,2.64,5.2,2.69.06,0,.13,0,.19,0,2.71,0,7.18-.7,8.92-2.68.6-.67.85-1.47.73-2.31-.07-.51-.2-1.05-.36-1.59,1.75-.37,4.1-.34,6.86.1.36.86,1.5,2.4,5.07,3.39.72.2,1.43.3,2.11.3.46,0,.91-.05,1.35-.15,4.06.81,4.52,1.48,4.53,1.48.24,1.17.94,1.96,1.73,1.96h0c.24,0,1.05-.1,1.31-1.35.16-.76.07-1.47-.26-2.13.03,0,.06,0,.09,0,1.56,0,3.36-.1,5.37-.29,1.5,1.98,2.27,2.51,2.88,2.51.06,0,.13,0,.19-.02,0,0,0,0,0,0,.45-.08.82-.34,1.04-.74.37-.65.28-1.52.1-2.25.34-.05.64-.1.89-.14.22-.04.45.09.57.3l2.62,4.91c.13.25.39.4.66.4.06,0,.13,0,.19-.02.13-.03,1.31-.37,1.9-1.46.38-.7.41-1.51.11-2.41-.2-.6-.34-1.32-.48-2.02-.4-2.02-.86-4.3-2.96-4.55-1.77-.22-4.39.1-5.51.26-.25-.44-.64-.96-1.2-1.23,3.9.54,8.02,1.04,10.08,1.04.29,0,.54,0,.74-.03,1.49-.16,1.55-1.08,1.53-1.36-.13-1.87-5.35-4.46-7.01-4.46h-.05c-1.46.04-2.31.66-2.75,1.14l-3.98-1.22c2.05-.66,4.07-1.34,4.7-1.55l8.01,1.52c.26.05.52-.04.7-.23.08-.09.82-.95.52-2.06-.27-.98-1.24-1.73-2.89-2.25-.59-.19-1.12-.36-1.6-.52-2.53-.83-3.88-1.27-5.05-.38-1.45-.02-6.9,0-9.25,1.65-1.22-.68-4.71-2.51-8.61-3.71-4.01-1.22-7.23-1.4-9.58-.53-.05.01-.1.03-.15.05-.27-.03-.82-.07-1.57-.12,0,0-.01,0-.02,0-.03,0-.05,0-.08,0-.32-.02-.68-.05-1.07-.07.03-.02.07-.03.1-.05,1.85-.88,3.45-1.65,3.75-2.99.16-.69-.07-1.41-.67-2.15-.61-.75-.37-4.35-.2-6.97.12-1.72.23-3.5.21-4.99-.08-3.51-1.26-6.2-1.77-7.19.72-1.14,2.94-4.68,4.67-7.43.7.28,1.46.45,2.29.49.12,0,.23,0,.34,0,.65,0,1.24-.09,1.78-.25.3,3.61.85,8.7,1.69,9.98.77,1.18,2.45,9.55,3.34,14.65-.37,2.06-1.03,6.65.24,7.92.19.19.58.48,1.17.48.39,0,.87-.13,1.43-.51,1.25-.84,1.99-2.25,1.97-3.78-.03-2.25-.18-3.81-.45-4.63-.08-.3.1-1.55.24-2.55.51-3.56,1.28-8.88-1.51-11.61.17-1.82.86-9.61.71-13.92-.09-2.58-1.31-4.77-2.54-6.33.31-.96.64-1.86,1.04-2.61.28-.53.57-1.04.84-1.53.62-1.11,1.19-2.15,1.61-3.19,1.16.58,2.09.82,2.97.55.9-.28,1.62-1.06,2.36-2.58,1.07,2.96,2.16,6.41,3.26,10.42-.36-.17-.67-.37-.92-.59-.62-.54-1.18-.46-1.46-.36-.9.31-1.32,1.56-1.48,2.22-.23.22-.42.54-.54.96-.27.93-.25,2.4.2,3.09.35.56,1.33.96,2.34,1.22-.19.14-.39.3-.6.48-2.06,1.7-3.23,3.37-3.47,4.96-.08.56.06,1.1.42,1.54.82,1.01,2.8,1.58,6.03,1.74,0,0,0,0,.01,0,0,0,.01,0,.02,0,0,0,0,0,.01,0,.62.03,1.23.04,1.78.04.17,0,.34,0,.5,0,0,0,.02,0,.03,0,.02,0,.03,0,.05,0,.33,0,.63-.01.89-.02-.1,1,.21,2.02.9,2.82.05.05.1.1.16.15-.16.27-.25.58-.25.91,0,.74.45,1.39,1.1,1.68,0,.08,0,.17.01.26-2.1-1.18-3.78-1.56-4.96-1.12-2.07.78-2.31,6.04-.74,15.64.06.4.12.74.17,1-1.27.7-4.06,2.38-4.48,3.84-.25.87-.08,1.67.49,2.18.33.3.87.58,1.71.58.64,0,1.45-.16,2.49-.57l.79-.31c2.5-.98,4.85-1.9,4.05-4.29-.05-.17-.13-.54-.18-1.35,0-.01,0-.03,0-.04,0,0,0-.02,0-.02-.02-.37-.03-.78-.04-1.22.06-.16.05-.33,0-.49-.03-2.12.07-4.73.15-6.52.25.29.54.61.85.92-.32.34-.51.77-.51,1.24,0,.81.52,1.48,1.28,1.75.09.28.18.54.27.77-.25.32-.41.71-.41,1.13,0,1.03.86,1.87,1.91,1.87,0,0,.02,0,.03,0,.14.21.29.4.43.58-.04.15-.06.3-.06.45,0,1.03.85,1.87,1.9,1.87.23,0,.45-.05.66-.13.08,1.07.24,2.02.48,2.73.49,1.42,2.78,4.14,6.99,8.32l.1.1c.42.41.76.74.97.93l.16.16c.33,1.05.99,3.49.9,4.71-.1,1.27.57,1.88.99,2.13.37.23.83.34,1.29.34.54,0,1.1-.15,1.58-.45,1.33-.82,1.56-2.92,1.5-5.83-.05-2.42-2.78-4.42-3.44-4.87-.16-.24-.54-.8-1.03-1.51-.03-.04-.06-.09-.09-.13,0,0,0,0,0,0-1.13-1.64-2.6-3.7-3.38-4.57-.63-.7-.59-.93.66-3.61.32-.69.7-1.5,1.13-2.5.71-1.62.96-3.35.73-5.05.75-.25,1.28-.94,1.28-1.75,0-.63-.32-1.18-.82-1.52.02-.06.03-.13.05-.19.31-.08.58-.24.81-.45.57,1.07.98,2.06,1.15,2.82.15.74.31,1.4.45,1.93l.29,1.5c.14.74-.02,1.49-.46,2.12-.95,1.36-1.08,2.32-.4,2.87.5.41,1.14.3,1.75,0-.17,1.77.09,2.13.21,2.28.15.2.36.32.62.35.07,0,.14,0,.21,0,1.37,0,2.37-1.26,3.06-3.84.52-1.95-.25-5.11-.47-5.93Zm-31.78-52.43h0c.17-.07.34-.1.5-.1.34,0,.61.13.7.32.04.09.04.2,0,.31-.09.23-.32.43-.62.54-.54.21-1.08.05-1.2-.23-.04-.09-.04-.2,0-.31.09-.22.32-.43.62-.54Zm1.36-6.34c.1.18.19.36.26.54-.31.41-.49.9-.5,1.42-.01.68.25,1.32.75,1.81.15.14.33.21.52.21s.39-.08.54-.23c.29-.3.28-.77-.02-1.06-.2-.19-.3-.44-.3-.7,0-.26.12-.51.33-.69.18-.16.25-.38.24-.6.01-.11.01-.22-.02-.33-.14-.43-.34-.86-.58-1.27.22-.07.44-.11.67-.11l4.21-.02h0c.77,0,1.39.62,1.4,1.39l.02,2.92c0,.44-.17.86-.48,1.18s-.73.49-1.17.49l-3.95.02h-.01c-1.27,0-2.3-1.03-2.31-2.3v-1.36c-.01-.48.13-.93.4-1.32Zm-1.92,9.87l1.78.83c-.28.77-.79,2.15-1.43,3.73-.42-1.03-.85-2.01-1.28-2.93.28-.51.59-1.04.94-1.63Zm14.92-1.75c-.06-.06-.13-.13-.2-.21,1.66-.04,1.81-.38,1.95-.67.15-.32.08-.69-.19-.97-.24-.25-.58-.54-.89-.8.59-.44,1.07-.83,1.46-1.17.63,2.05.18,4.45-.35,5.64-.59.22-2.18.69-3.58-.03,1.72-.3,1.86-.62,1.97-.91.12-.3.05-.64-.18-.89Zm-.29,4.31c-1.09.11-1.42-.38-1.54-.54-.1-.14-.2-.31-.29-.49.67.28,1.38.39,2.04.39.33,0,.64-.03.94-.08-.32.44-.67.66-1.16.71Zm.27,8.09c-.6.44-1.13.66-1.44.72.05-.18.17-.48.45-.94,1.17-1.97.22-3.06-.48-3.85-.65-.74-1.13-1.3-.37-2.75.35.14.76.23,1.26.23.14,0,.3,0,.46-.02.27-.03.51-.09.74-.17,2,3.14.78,5.75-.62,6.77Zm-4.35-25.26c.13.31.43.5.77.46l1.28-.13c-.26.16-.4.45-.35.75.05.32.3.58.62.63l2.01.31-1.07.75c-.21.14-.32.38-.32.63,0,.25.14.48.35.62,1.6,1.02,3.11,2.2,3.41,2.66,0,0,0,0,0,.01,0,0,0,0,0,0-.08.14-.25.33-.48.56,0,0,0,0,0,0-.65.64-1.79,1.57-2.82,2.3-.19.14-.31.36-.31.6,0,.24.1.46.29.61,0,0,.21.16.47.38-.5-.02-.98-.01-1.44-.04-.31-.01-.6.16-.73.44-.13.28-.07.62.16.84,0,0,.35.35.74.74-.96.17-2.54.34-3.92.43-.03,0-.05.02-.08.02-.05,0-.1.02-.15.04-.04.02-.08.04-.12.06-.04.03-.08.06-.12.09-.04.03-.06.07-.09.11-.02.02-.04.04-.05.07-.67,1.25-4.02.81-5.6.38l-1.53-.71c.08-.02.15-.04.23-.07.68-.27,1.22-.77,1.46-1.37.14-.34.17-.69.12-1.03.19.03.38.06.58.06h.02l3.95-.02c.84,0,1.63-.34,2.23-.94.59-.6.92-1.4.91-2.24l-.02-2.93c-.01-1.59-1.31-2.88-2.9-2.88h-.02l-3.99.02c.08-.11.17-.22.23-.35.16-.37.19-.79.09-1.19,1.32-.84,4.98-1.55,6.46-1.57,0,0-.01.01-.02.02-.26.21-.35.56-.22.87Zm-9.51.67c.08-.19.37-.33.71-.33.15,0,.32.03.49.09.3.11.53.31.63.54.05.11.05.22.01.31-.12.28-.66.44-1.2.24-.3-.11-.53-.31-.63-.54-.05-.11-.05-.22-.01-.31Zm-8.75-1.3c3.59.18,6.92,2.03,8.74,4.11-.65.71-1.02,1.62-1.01,2.59v1.36c.01.78.25,1.5.66,2.1-.22.03-.44.08-.66.16-.68.27-1.22.77-1.46,1.37-.2.5-.2,1.03.01,1.49.11.24.27.43.45.6-.03.04-.07.07-.09.12-.05.1-.07.21-.06.32-.21.35-.41.68-.59,1-2.8-5.49-5.77-8.81-8.89-9.88-2.13-.72-4.23-.38-6.26,1.01-.17-.11-.35-.19-.55-.27,2.1-4.15,5.54-6.32,9.73-6.1Zm1.74,23.54c-.18-.11-.36-.22-.55-.33-1.03-.62-1.89-1.13-2.62-1.56.11-1.77.07-3.63-.56-5.54.74.73,1.58,1.58,2.56,2.58,1.1,1.94,1.39,3.43,1.17,4.86Zm-7.56,17.34c-.02-.34-.04-.68-.06-1-.02-.39-.35-.7-.74-.71l-3.75-.05h0c-.26,0-.5.13-.63.35-.26.41-.64,1.01-1.07,1.7-.54-.36-1.04-.81-1.48-1.32.75-.76,1.51-1.98,1.79-3.89.74,1.77,2.07,2.86,3.32,2.86h.03c.46,0,1.58-.2,2.31-1.71.55.79,1.12,1.37,1.69,1.71-.39.8-.85,1.5-1.41,2.05Zm-10.12-5.32c.38-.88.74-1.66,1.07-2.28.56.47,1.14.66,1.7.69.07,2-.37,3.6-1.3,4.66-.59-.94-1.08-1.99-1.47-3.07Zm.32,4c-.62.33-1.34.51-2.12.52.33-.88.66-1.75,1-2.58.33.72.7,1.42,1.12,2.07Zm-1.6-10.01c-.07-1-.44-2.19-.86-3.55-.22-.71-.45-1.47-.67-2.27.16.33.33.65.51.96.67,1.15,1.41,2.59,2.21,4.28.52,1.11.49,2.37-.09,3.48-.14.27-.3.6-.47.94-.34-1.4-.54-2.75-.62-3.84Zm-4.34-12.3c.01-1.07-.28-2.59-1.56-4.23,1.37-.5,2.65-.95,3.69-1.31-.88,1.8-1.33,3.54-1.5,5.21-.17.09-.38.2-.63.33Zm-5.57-1.78c.07-.35.14-.7.22-1.04.77-.29,1.54-.58,2.3-.87,1.76,2,1.62,3.75,1.48,4.41-1.19.5-2.64.98-4.02,1.15.17-.93.32-2.35.02-3.65Zm18.86.8c-.8,1.42-1.1,2.92-1.21,4.37-.36-.33-.58-.78-.58-1.27,0-.41-.34-.75-.75-.75s-.75.34-.75.75c0,1.32.82,2.45,2.01,2.99,0,.25,0,.5,0,.74,0,1.26-.01,2.46-.27,3.46-.24.93-.91,1.55-1.59,1.51-.73-.04-1.71-.92-2.05-3.25-.17-1.14-.38-2.18-.61-3.17,1.38-.44,2.39-1.67,2.39-3.13,0-.41-.34-.75-.75-.75s-.75.34-.75.75c0,.76-.51,1.4-1.24,1.68-.03-.13-.06-.26-.1-.39-.6-2.38-1.12-4.51-.97-6.94.34,1,.95,2.05,2.02,2.66.12.88.9,1.56,1.86,1.56s1.76-.71,1.85-1.62c1.13-.77,1.79-2.16,2.14-3.18.24.48.6,1.77-.64,3.98Zm-1.52-6.99c.05.31.13.61.24.88-.14.08-.34.14-.64.23-.04.01-.07.02-.11.03-.34-.36-.81-.58-1.32-.58-.63,0-1.17.31-1.49.76-.17-.05-.29-.11-.41-.19.32-.29.54-.67.67-1.14h3.06Zm-2.19,5.92c.04-.1.17-.2.36-.2.16,0,.25.08.33.17l.04.12h0s0,0,0,.01h-.01c0,.16-.17.29-.37.29s-.38-.13-.38-.29l.02-.1Zm1.64-1.19c-.34-.32-.8-.51-1.28-.51-.53,0-1,.22-1.35.56-.74-.56-1.12-1.53-1.3-2.34.3.19.62.3.92.37.23.7.91,1.22,1.73,1.22.9,0,1.64-.64,1.77-1.46.02,0,.04-.01.06-.02.26-.07.54-.16.82-.29-.26.85-.71,1.87-1.37,2.47Zm-.98-2.47v.05c0,.24-.57.27-.61.02.01-.04.02-.08.02-.11.07-.19.45-.16.53-.05.01.02.04.07.06.09Zm.48-4.15c.59.03.92.21,1.02.35,0,0,.01.02.02.04h-2.81c.08-.08.2-.16.37-.22.38-.14.91-.21,1.39-.17Zm-5.14,12.78s0,.02,0,.02c-.73-.27-1.24-.92-1.24-1.68,0-.41-.34-.75-.75-.75s-.75.34-.75.75c0,1.71,1.37,3.1,3.13,3.28.24,1.02.46,2.07.63,3.23.59,4.06,2.79,4.5,3.45,4.53.05,0,.1,0,.14,0,1.36,0,2.57-1.06,2.98-2.63.31-1.18.31-2.47.32-3.83,0-.14,0-.28,0-.42,0,0,0,0,0,0,.84,0,1.6-.29,2.21-.76-.42,1.81-.64,3.8-.75,5.3-.12,1.59.56,3.1,1.83,4.13-.25.29-.52.57-.83.8-.39.29-.8.49-1.22.63-.14-.5-.48-1.11-1.31-1.55-.24-.12-.48-.18-.71-.2.39-.13.85-.22,1.4-.23.41,0,.74-.35.73-.77s-.34-.73-.77-.73c-2.21.05-3.88,1.07-4.07,2.47,0,.05-.01.13-.01.21-1.15.59-1.9.76-2.74-.27.25-1.14.13-2.33-.39-3.41-.82-1.72-1.58-3.2-2.27-4.39-1.57-2.69-2.41-6.72-2.42-6.76-.01-.05-.05-.1-.07-.15.2-1.9.8-3.89,2.06-5.96.26-.07.45-.11.55-.12.02,0,.05,0,.07,0-.65,3.47.03,6.28.77,9.22Zm7.17,12.4c.24.13.38.26.46.39-.18-.02-.36-.03-.53-.09-.23-.07-.42-.15-.58-.24.27-.1.5-.14.66-.06Zm-.51,1.74c.25.08.5.12.76.16-.17.3-.38.59-.6.82-.29.29-.29.77,0,1.06.15.15.34.22.53.22s.39-.07.53-.22c.41-.42.84-1.01,1.1-1.67-.21,1.81-.83,2.65-1.44,2.66h-.01c-.89,0-2.2-1.48-2.38-3.83.33.3.8.59,1.51.81Zm5.51,3.13c-.44-.33-1.06-1.02-1.73-2.3.06-.39.09-.83.11-1.31.25-.14.5-.3.74-.48.1-.08.19-.16.28-.25.6,1.07.96,1.97,1.16,2.7-.18.56-.37,1.11-.57,1.64Zm1.21-4.11s.06.06.09.1c0,.02,0,.03-.01.05-.02-.05-.05-.1-.07-.15Zm-.74-6.18c.02,1.05-.2,2.06-.61,2.94-.8-.71-1.22-1.71-1.15-2.75.12-1.58.35-3.72.83-5.55.32.17.74.4,1.26.69-.03.36-.07.72-.11,1.07-.12,1.18-.25,2.4-.22,3.6Zm-1.07-7.12c-.06-.03-.13-.03-.19-.05.04-.2.07-.41.07-.62,0-.41-.34-.75-.75-.75s-.75.34-.75.75c0,.99-.88,1.8-1.98,1.82.08-1.43.31-2.86,1.05-4.18.91-1.62,1.12-2.91,1.05-3.87.33.17.66.35,1,.54,1.77,2.44,2.1,4.82,2.02,7.15-.98-.54-1.47-.78-1.51-.8Zm6.14-2.3c-1.6-1.63-2.87-2.89-3.88-3.86-.55-.53-1.16-.98-1.86-1.4-.53-.32-1.06-.59-1.56-.85-.41-.21-.8-.41-1.16-.62-.03-.02-.05-.04-.08-.06-.28-.16-.49-.31-.66-.46-.01-.01-.03-.03-.04-.04,0,0,0,0,0,0-.02-.02-.03-.03-.05-.05-.19-.15-.32-.3-.44-.5-.23-.37-.34-.79-.34-1.33.09-.37.11-.7.05-.97,1.62-1.09,3.27-1.36,4.91-.81,2.26.77,5.23,3.31,8.49,10.03-.67,1.25-1.14,2.23-1.43,2.91-.49-.51-1.17-1.22-1.93-2Zm-26.11-14.21c.74-2.43,3.28-3.23,5.48-2.94,2.41.31,5.25,2.04,5.61,5.85-.89.57-1.07,1.48-.94,2.13-.04.38-.14.65-.31.79-.36.3-1.15.22-1.73.15-.16-.02-.32-.03-.45-.04-.93-.06-6.15,1.84-9.82,3.23.86-4.04,1.65-7.5,2.16-9.17Zm-7,6.61c-.36.14-.93.22-1.62-.14-.01-.11-.02-.2-.04-.3.2.05.39.08.54.09h.04c.35,0,.67-.08.95-.2.04.18.08.36.13.54Zm-.66-4.49c.01.81.08,1.63.21,2.44-.17.11-.4.21-.65.21-.25,0-.5-.14-.74-.4-.04-.05-.1-.08-.15-.11-.07-.27-.13-.55-.22-.81,0-.02-.01-.03-.02-.05,0,0,0-.01,0-.02-.29-.86-.67-1.64-1.14-2.32-.08-.12-.16-.23-.25-.36.04.03.07.06.11.09.52.41.98.58,1.41.53.31-.04.59-.2.79-.45.43-.54.4-1.4.38-1.63-.01-.24-.02-.48-.03-.71.18.94.28,2.17.31,3.6Zm-5.52-4.24c.91.03,2.42.31,3.73,1.1,0,.12,0,.23.02.35,0,.11,0,.25-.01.38-.04-.03-.08-.06-.13-.1-1.59-1.26-2.4-.78-2.67-.51-.03.03-.07.07-.1.12-.29-.53-.58-.98-.82-1.34Zm7.6,17.44c-1.02-.44-1.67-1.33-1.97-2.72-.34-1.56-.62-2.97-.85-4.46.25.06.5.09.74.09.48,0,.91-.11,1.27-.25l1.6,3.09s.03.02.04.04c.02.03.03.06.05.09.19.23.31.51.41.81-.24,1.15-.48,2.33-.72,3.49-.2-.05-.39-.11-.57-.19Zm1.77,1.83s.02,0,.03,0c.02,0,.04,0,.06,0,.01,0,.03,0,.04,0,2.6-.01,5.45-1.21,7.06-2.01.02,3.01.84,5.69,1.49,7.78.4,1.28.74,2.39.8,3.22.12,1.61.49,3.73,1.19,5.82-2.03,4.8-4.6,12.22-4.42,13.86.22,2.15,2.15,17.14,2.55,20.26-1.48.7-5.01,2.5-5.86,4.01-.25.45-.29.91-.15,1.33-.45.03-.92.08-1.4.16-.02-.15-.04-.29-.08-.46-.41-1.47-3.21-3.16-4.47-3.86.04-.25.1-.59.16-.99,1.58-9.61,1.34-14.87-.74-15.65-1.19-.44-2.87-.05-4.96,1.12,0-.09,0-.17.01-.26.65-.3,1.1-.94,1.1-1.68,0-.33-.1-.64-.25-.92.05-.05.11-.1.16-.15.69-.8,1-1.82.9-2.82.26,0,.56.02.89.02.02,0,.03,0,.05,0,0,0,.02,0,.03,0,.16,0,.33,0,.5,0,.54,0,1.16-.01,1.78-.04,0,0,0,0,.01,0,0,0,.01,0,.02,0,0,0,0,0,.01,0,3.24-.16,5.21-.73,6.03-1.74.36-.45.51-.98.42-1.54-.24-1.59-1.41-3.26-3.47-4.95-.21-.17-.41-.34-.6-.48,1.01-.27,1.99-.66,2.33-1.21.46-.7.47-2.17.21-3.1-.12-.42-.3-.73-.54-.96-.16-.66-.58-1.92-1.48-2.23-.28-.1-.84-.18-1.46.36-.16.14-.34.26-.54.38.42-2.2,1.46-7.58,2.61-13.29Zm11.85,47.14c0,.16.02.3.03.45-.48,0-1.13.08-1.71.31-.04-.3-.08-.63-.13-1,.68-.52,1.38-.05,1.59.13.06.05.14.09.21.12Zm-4.05,3.99c.75-.41,1.5-.78,2.11-1.06.02-.01.04-.03.06-.04.03-.02.06-.04.09-.06.03-.03.06-.06.09-.09.02-.02.04-.05.06-.08.03-.04.05-.08.07-.13,0-.02.02-.03.03-.05.12-.39,1.05-.54,1.8-.53.03.11.07.22.11.32-.8.71-2.12,1.41-3.86,2.06-.23.09-.42-.02-.51-.13-.06-.08-.07-.15-.05-.2Zm3.33,4.67c1.12,1.92,1.04,4.08.93,5.03-.36.06-.88.16-1.49.27-.03,0-.06.01-.09.02,0,0,0,0,0,0,0,0,0,0,0,0-.38.07-.79.14-1.22.22.33-2.14-.77-4.34-1.62-5.67,1.37.01,2.58.07,3.5.13Zm2.13.17c1.44,2.69,1.09,4.61.72,5.56l-.11-.09c-.13-.1-.24-.19-.34-.27.13-.93.28-3.09-.65-5.24.18.02.31.03.38.04Zm-1.32,9.26c-.88,1.11-2.41,1.98-4.16,2.63-.03-.07-.06-.15-.1-.22,1.34-.55,2.53-1.28,3.24-2.29.61-.86.82-1.84.67-2.9.38-.07.7-.12.91-.16.05.04.13.1.19.15.14,1.04-.09,1.96-.75,2.8Zm-7.16,9.58c-.34-.34-.86-1.05-.75-2.03.18-.03.34-.05.48-.08.09.78.38,1.47.65,1.97-.13.05-.25.09-.39.13Zm-.57-3.57c-.82.13-2.08.33-3.33.5.03-.22.04-.52.04-.89.86-.07,1.89-.19,2.98-.39l.31.78Zm-9.75,1.62c-.53.06-1.04.12-1.51.16-.02-.29-.07-.63-.18-.97l2.23-.59c.78-.2,1.37-.73,1.69-1.39,1.15-1.02,2.22-.52,2.67-.22.01.11.02.22.03.32,0,0,0,0,0,0,0,0,0,0,0,.01.07.94.03,1.42-.03,1.56-.02.02-.61.62-4.9,1.12Zm-5.94-10.62s-.02,0-.03-.01c-.05-.03-.09-.06-.11-.07-.03-.03-.06-.05-.09-.07-.19-.17-.28-.37-.31-.64-.09-1.08.15-1.85.71-2.29.73-.58,2.09-.64,3.56-.16.82.27,1.36,1.02,1.61,2.24.09.41.12.8.14,1.1-.17.03-.37.07-.59.1-.04-.27-.13-.54-.33-.74-.19-.2-.51-.2-.71,0s-.2.51,0,.71c.05.05.05.12.06.18-.27.03-.54.06-.82.08-.2.01-.39.1-.52.25-.07.08-.12.17-.15.27l-.67-.21-1.14-.47s0,0-.01,0h0s-.59-.25-.59-.25Zm9.81-5.58c.27.04.53.07.75.07.98,0,1.53-.36,1.84-.68.76-.14,1.5-.24,2.28-.28.14,0,.29-.01.43-.02,1.1,1.28,2.86,4.39,1.93,6.34-.17.04-.36.09-.55.14-.86-1.12-2.5-1.6-3.47-1.64-1.02-.05-1.41.34-1.58.66-.09.18-.26.65.18,1.21.41.52.79,1.39,1.05,2.12-.9-.31-1.3-1.14-1.46-1.61l-.24-1.66c-.06-.41-.45-.69-.85-.63-.41.06-.69.44-.63.85l.23,1.56s0,.02,0,.03c0,.05.02.12.03.18l.02.08c.42,1.97.69,3.52.87,4.73-.68-.2-1.5-.24-2.34.11l-1.5-7.3c-.23-1.11-.68-1.98-1.31-2.59.99-.47,2.52-1.13,4.32-1.67Zm7.51-.93c.69.92,2.54,3.68,1.79,5.92-.13.02-.26.05-.39.07.4-2.09-.71-4.47-1.76-6.02.12,0,.23.02.36.02Zm4.29,6.98c.08.66-.06,1.24-.43,1.77-.54.76-1.51,1.35-2.64,1.8-.26-.54-.52-1.06-.76-1.54-.21-.42-.41-.81-.58-1.16.15-.04.32-.07.51-.11.54-.12,1.19-.25,1.87-.38.02,0,.04.01.06.01.13,0,.25-.04.36-.09.55-.11,1.08-.21,1.61-.3Zm-9.72,3.74c.46.52.99.84,1.48,1.04-.48.06-.91.1-1.29.12-.05-.36-.12-.75-.19-1.16Zm3.63.34c-.11-.28-.38-.46-.68-.47-.03,0-.4-.02-.85-.2.15-.05.29-.13.38-.26.13-.18.17-.41.11-.63-.02-.09-.52-1.85-1.29-3.14.76.1,1.95.52,2.28,1.3.23.55.57,1.23.97,2.03.21.42.44.87.67,1.34-.48.14-.97.25-1.45.35l-.13-.33Zm-12.32-1.84c.16,0,.32-.06.45-.16.2-.15.3-.39.28-.64v-.07c.07,0,.13-.02.2-.02-.22.42-.4.92-.53,1.5l-.11.28s-.02.03-.03.04l-.08.15c-.04.07-.08.15-.08.17,0,0-.01,0-.02,0,0-.03.02-.06.02-.09,0-.45-.03-.83-.1-1.15Zm2.19,5.25c-.22-.47-.65-.91-1.61-.95.07-.29.11-.59.1-.9h0c-.01-.25-.06-.5-.12-.73.53-.16.78-.57.94-.87l.04-.08s.01-.02.02-.03c.06-.1.11-.21.16-.33v-.02c.88,1.7.79,3.19.67,3.86l-.2.05Zm.2-5.69c.11-.18.22-.31.33-.42l.29,1.43c-.17-.33-.38-.67-.62-1Zm-2.58,6.21s.01-.02.02-.03c.09.04.19.06.3.05l-.47.12s-.01,0-.02,0c.06-.05.12-.09.17-.15Zm-.14-2.33c.03.62-.18,1.21-.59,1.65-.38.41-.89.64-1.43.65l-2.36.02h-.02c-.72,0-1.33-.53-1.36-1.19l-.09-2.1c-.01-.31.1-.6.32-.84.25-.26.6-.42.97-.43h2.35c1.16,0,2.15.98,2.2,2.22Zm9.43.97c0-.08-.02-.16-.03-.25.58-.04,1.44-.13,2.44-.29l.09.22c-.89.15-1.74.26-2.5.32Zm3.92-.82c.5-.11,1.02-.24,1.53-.4.03.07.06.13.09.2-.51.15-1.02.28-1.53.4l-.08-.2Zm-16.3-22.67c-1.05,0-1.9.84-1.9,1.87,0,.46.2.89.49,1.22,0,0,0,.01-.01.02-.27-.14-.57-.21-.88-.21-.25,0-.5.05-.72.14-.09-.88-.27-1.87-.57-2.82,1.07-.1,2.13-.42,3.16-.98.17.24.4.44.67.59-.02.06-.05.13-.07.19-.06,0-.11-.02-.17-.02Zm7.14,2.58c-.66.16-1.59.26-2.09-.06.03-3.34-.23-7.83-.27-8.54.07-.28.4-1.21,1.44-1.64.38-.16.57-.59.41-.98-.16-.38-.6-.57-.98-.41-1.28.52-1.89,1.51-2.16,2.18-.2-.24-.46-.42-.75-.54,0-.12,0-.24,0-.36.7-.28,1.2-.95,1.2-1.74,0-.2-.04-.4-.11-.59,1.53-.82,2.74-1.13,3.44-.87.75.28,1.35,4.22-.15,13.55Zm-11.33-3.83c-.28-.52-.61-1.01-1.01-1.42-.13-.13-.3-.2-.47-.21.05,0,.11,0,.16-.01,2.34-.31,4.02-1.74,4.57-3.84.27-.23.91-.77,1.74-1.39.13.11.28.21.45.28,0,.16,0,.32,0,.48-.65.29-1.09.94-1.09,1.69s.39,1.33.99,1.64c-.01.11-.03.23-.04.34-.01.01-.03.02-.04.04h-.01c-.77.05-1.45.58-1.7,1.3-1.16.73-2.35,1.11-3.54,1.12Zm-2.61,3.96c.13-.26.22-.54.22-.85,0-1.14-1.06-2.01-2.22-1.81-.01-.02-.02-.04-.03-.06.2-.3.32-.65.32-1.02,0-.99-.8-1.8-1.79-1.86-.04-.1-.08-.19-.12-.29.17-.2.31-.43.38-.69.96.65,2.24,1.03,3.59,1.03.2,0,.41-.02.61-.04-.15.02-.29.08-.4.19-.3.29-.3.76-.01,1.06,1.03,1.05,1.55,2.99,1.76,4.86-.35-.43-.88-.71-1.48-.71-.29,0-.56.08-.81.19Zm8.52-22.9c-.22,0-.4-.17-.4-.37,0-.13.07-.25.2-.32.06-.03.13-.05.2-.05.23,0,.41.17.41.37,0,.18-.15.33-.41.37Zm.43,2.79s.02,0,.03,0c0,0,0,0,0,0,0,0,0,0,0,0,0,0,.02,0,.03,0,.21.02.36.17.36.37s-.15.34-.36.36c-.03,0-.05,0-.08,0-.21-.02-.36-.17-.36-.36s.16-.34.36-.36Zm.06,3.85s.05.03.07.05h0c.11.06.18.18.18.31,0,.2-.15.34-.36.36-.03,0-.05,0-.08,0-.2-.02-.36-.17-.36-.37,0-.03,0-.07.01-.09.01-.02.02-.04.04-.06.06-.13.19-.2.44-.2h0s.04,0,.06,0Zm-.12,8.24s-.04,0-.06,0c0,0,0,0,0,0s0,0,0,0c0,0,0,0,0,0-.2-.01-.35-.17-.35-.36s.16-.35.36-.36c.03,0,.06,0,.08,0,.2.02.35.17.35.36s-.16.35-.38.37Zm-.04-3.82c-.17,0-.32-.11-.36-.26-.02-.07-.02-.1-.02-.12,0-.2.18-.37.39-.37.1,0,.2.04.26.09.09.08.14.18.14.28,0,.21-.18.38-.41.38Zm-1.17-2.61c.15.11.3.21.48.28,0,.07,0,.15,0,.22-.4.16-.73.45-.94.81.15-.42.31-.86.46-1.32Zm-.72,2.23s-.07.05-.11.08c.04-.12.09-.25.14-.38-.02.1-.03.2-.03.3h0Zm-9.59,4.24c.78.24,1.56.35,2.31.35,1.55,0,2.99-.42,4.07-.85-.82,1.01-2.04,1.31-2.65,1.39-1.41.19-2.86-.18-3.73-.89Zm-1.6-1.38c-.08.12-.19.31-.31.52-.05-.02-.11-.04-.16-.05,0-.03-.02-.07-.03-.1.19-.12.36-.27.5-.44v.07Zm0-2.34c-.22-.27-.53-.47-.87-.6.24-.38.53-.77.87-1.18v1.78Zm-1.77-3.27s.02,0,.03,0c.02,0,.04.01.06.02.18.04.3.18.3.35,0,.21-.17.36-.4.37-.22,0-.4-.17-.4-.37s.18-.37.4-.37Zm13.56,10.49s0-.04,0-.06c.02-.18.19-.33.45-.33h0s.08.02.14.05c.1.05.21.16.21.31,0,.2-.18.36-.4.37-.21,0-.39-.15-.41-.35Zm3.49-16.83c-.23-.39-.5-.75-.86-1.04,0,0,0,0,0,0,.16-.27.25-.59.25-.92,0-.16-.03-.31-.06-.45.23,0,.47,0,.72,0-.22.86.02,1.76.28,2.43-.12,0-.23,0-.33-.01Zm-6.34,10.7c-.82.48-4.29,2.32-7.43,1v-2.01c3.22-.11,5.59-1.27,6.81-2.03.21.48.57,1.06,1.13,1.63-.21.6-.4,1.08-.52,1.41Zm-9.89-7.67c-.14-.04-.3-.15-.3-.35s.18-.37.41-.37c.04,0,.07,0,.09,0,.18.03.31.19.31.36,0,.2-.18.37-.4.37l-.11-.02Zm-.18-2.51c-.03.11-.05.22-.08.33-.15.03-.3.08-.44.15.17-.16.34-.33.52-.48Zm-.73,10.18c0-.08.05-.16.15-.24.02-.02.07-.05.12-.06.03,0,.08-.01.12-.01.22,0,.4.16.4.37,0,.18-.17.34-.37.36-.02,0-.04,0-.06,0-.2-.01-.36-.16-.37-.36,0-.02,0-.04,0-.06Zm1.03,3.19c.12,0,.21.04.31.16.05.05.09.14.09.21,0,.15-.11.26-.24.33l-.16.04c-.23,0-.41-.16-.41-.37,0-.17.14-.32.41-.37Zm1.33,3.35s.12-.02.14-.03c.22,0,.4.17.4.37,0,.17-.1.26-.16.3,0,0-.02.01-.03.02-.33.15-.61-.06-.61-.32,0-.15.11-.29.26-.33Zm1.8,2.95c.09-.05.18-.08.27-.08.22,0,.4.16.4.37,0,.17-.11.27-.17.31-.3.16-.62-.04-.62-.31,0-.17.12-.28.13-.28Zm2.41,2.64c.05-.1.17-.2.35-.2.22,0,.4.17.4.37,0,.13-.07.22-.13.26-.27.23-.67.04-.67-.26,0-.06.02-.11.05-.16Zm12.33.01c.31,0,.61-.03.89-.08-.45.18-1.28.39-1.83-.05.31.08.63.12.94.12Zm.4-30.82l.29-.07c1.93-.43,3.74-.84,3.83-2.2.04-.68.05-.71.97-1.07.23.45.24,1.74.05,2.06-.25.27-1.68.7-3.07.92-.31.05-.56.29-.62.6-.06.31.08.62.35.79,0,0,.06.04.16.1-.01.01-.02.02-.03.03-.16.14-.68.44-2.02.34-.73-.81-.78-1.15-.8-1.15.03-.03.19-.18.88-.34Zm1.98,7.96c-.33-.48-.9-1.51-.36-2.49.52-.02.85-.03.85-.03.32-.01.59-.23.68-.54.08-.28,0-.57-.22-.76.62-.33,1.08-.79,1.39-1.19,1.05.96,2.12,2.21,2.31,3.47.02.15,0,.25-.1.37-.23.28-1.14.95-4.56,1.17Zm1.03-5.75c.07-.07.13-.14.19-.21,0,0,0,0,0,0-.3.41-.84.93-1.64,1.05-.05-.04-.09-.08-.13-.12.67-.12,1.2-.35,1.58-.72Zm-5.15-5.4c.03-.19.12-.38.23-.36,2.18.19,4.65-.5,6.01-1.69.01,0,.02-.02.03-.03.09.11.2.32.3.58-1.11.44-1.7.81-1.79,2.26-.23.34-1.83.7-2.69.9l-.29.07s-.06.02-.1.02c-1.49-.38-1.78-1.26-1.71-1.75Zm2.14,8.71c-.23.9-.04,1.78.29,2.5-.16,0-.31,0-.46,0-.42-.9-.76-1.87-.26-2.5.1,0,.19,0,.29,0,.05,0,.09,0,.14,0Zm-6.46-.09c-.06.19-.11.38-.11.59,0,.86.6,1.58,1.41,1.8,0,.04.01.07.02.11-.57.32-.97.92-.97,1.61,0,.8.52,1.48,1.24,1.74,0,.12,0,.24,0,.34-.33.1-.62.27-.85.52h-.14c-.45-.01-.49-.01-.76-.24-.32-.27-.79-.22-1.06.1-.27.32-.22.79.1,1.06.35.29.64.43.92.51-.25.74-.49,1.44-.73,2.09-.48-.69-.54-1.26-.54-1.28-.02-.28-.19-.53-.45-.64-.26-.11-.56-.07-.78.12,0,0-.02.02-.05.04.78-.7,1.28-1.69,1.28-2.8,0-.41-.34-.75-.75-.75s-.75.34-.75.75c0,1.27-1.07,2.3-2.39,2.3s-2.39-1.03-2.39-2.3c0-.41-.34-.75-.75-.75s-.75.34-.75.75c0,2.1,1.75,3.8,3.89,3.8.58,0,1.13-.13,1.63-.36-1.13.65-3.13,1.54-5.72,1.65v-2.37l.39-.56c.24-.34.15-.81-.19-1.04-.34-.24-.81-.15-1.04.19l-.87,1.26c-.13-.19-.29-.35-.48-.48.04-.22.08-.45.13-.67.91-.14,1.6-.91,1.6-1.84,0-.62-.31-1.17-.8-1.51.1-.41.19-.83.29-1.26.62-.32,1.03-.95,1.03-1.65,0-.22-.04-.44-.12-.65.11-.09.21-.18.31-.25.37.43.89.7,1.46.7.05,0,.09,0,.14,0,.32-.02.62-.14.89-.32.49.38,1.03.67,1.62.84.07,1.04.94,1.86,2.02,1.86s2.02-.89,2.02-1.99c0-.17-.03-.34-.07-.51.23-.18.42-.39.57-.62.17.05.34.1.53.13.01,0,.03,0,.04,0Zm-3.25-1.87l.76-.37c.05.25.14.52.28.79.1.2.23.38.38.55-.06.08-.13.15-.2.21-.31-.19-.67-.3-1.04-.3-.6,0-1.16.27-1.54.71-.38-.11-.82-.32-1.24-.68.07-.25.1-.52.08-.79,0-.02,0-.04-.01-.06.38.16.78.26,1.19.26.46,0,.93-.1,1.36-.32Zm-.33,2.69c.08-.19.27-.32.5-.32s.34.12.42.22c.06.07.1.18.1.28,0,.27-.24.49-.52.49s-.54-.21-.54-.49c0-.05.01-.12.04-.18Zm-3.7-2.46c.02.23-.04.44-.17.59-.05.06-.15.14-.27.15-.17.03-.38-.15-.49-.4,0,0,0,0,0,0,0,0,0,0,0,0-.03-.08-.06-.17-.06-.26-.02-.23.04-.44.17-.59.05-.06.15-.14.27-.15,0,0,.02,0,.02,0,.26,0,.51.31.54.67Zm6.24-3.49c-.13.39-.4.7-.78.88l-.09.04c-.14.02-.26.09-.37.18l-1.63.8c-.78.38-1.72.08-2.11-.67l-1.94-3.74c-.09-.17-.1-.36-.04-.54.06-.19.2-.35.39-.44l3.62-1.77c.09-.05.19-.07.29-.07.23,0,.46.12.57.33l2.01,3.88c.18.35.21.75.09,1.12Zm3.14.54c-.16.18-.57.17-.91-.11-.18-.15-.3-.36-.31-.55,0-.11.02-.19.07-.25.16-.18.58-.17.91.11.18.15.3.36.31.55,0,.11-.02.19-.07.25Zm-13.27-2.31c-.46-.89-.95-1.93-1.24-2.66.3.07.51.11.51.11.28.07.58-.05.75-.28s.2-.55.06-.8c-.17-.31-.33-.65-.46-.94.72.18,1.49.36,1.49.36.22.05.46,0,.64-.14.18-.14.29-.36.29-.59,0-1.46.15-2.97.32-3.47.6.07,2.29.79,3.64,1.48.21.11.46.11.68,0,.21-.11.36-.31.41-.54.03-.15.08-.43.15-.73.24.35.52.78.77,1.21.17.29.51.43.83.35.32-.08.56-.36.57-.7,0-.02,0-.04,0-.05.25.46.52.99.74,1.47.17.35.57.51.93.39.07-.03.25-.1.48-.22.3,1.27.69,3.66.68,5.56-.29.03-.57.12-.82.27-.02-.03-.02-.07-.04-.1l-2.01-3.87c-.53-1.02-1.81-1.43-2.85-.92l-3.62,1.77c-.55.27-.96.74-1.15,1.31-.19.57-.14,1.17.14,1.71l1.63,3.15c-.1,0-.2-.02-.3-.01-.3.02-.58.13-.84.29-.74-.65-1.83-1.62-2.65-2.39.08-.05.15-.11.21-.19.17-.23.2-.54.07-.79Zm-.12,7.32c.15,0,.25.07.29.11.07.08.11.18.11.27,0,.17-.14.32-.29.35-.08.01-.16.02-.28-.03-.13-.05-.23-.18-.23-.32,0-.21.18-.38.4-.38Zm-5.7,23.29c-.24-.22-.59-.27-.87-.11-.28.15-.44.47-.38.79.14.84.26,1.84.28,2.47-.43-.37-.86-1.25-1.2-2.54-.37-1.37.13-3.86.43-5.02.56-.03,1.24.18,1.8.39l-.18.93c-.22,1.14.03,2.3.7,3.27.15.21.26.39.34.54-.29-.18-.64-.45-.92-.71Zm.63-6.55c-.08.38-.16.73-.24,1.06-.52-.19-1.21-.38-1.9-.41.54-2.96,1.51-6.25,1.5-6.25h0s1.22-3.06,1.22-3.06c.35-.88.68-1.58,1.04-2.2.35-.61.73-1.14,1.13-1.64-.06.18-.1.37-.1.58,0,.61.3,1.14.75,1.48-.05.24-.1.48-.14.73-.86.17-1.52.93-1.52,1.83,0,.76.47,1.42,1.15,1.71,0,.12,0,.25,0,.37-1.17,1.66-2.51,3.99-2.9,5.82Zm5.68,4.79c.11.02.23.04.35.04.1,0,.2-.03.31-.04.01.02.03.05.04.07-.19.3-.31.65-.31,1,0,.01,0,.03,0,.04,0-.02-.01-.03-.02-.05-.15-.35-.27-.7-.37-1.05Zm-1.53,16.47c-.14-.03-.32-.1-.47-.26-.26-.26-.4-.73-.41-1.34.29.61.72,1.08,1.09,1.41-.08.07-.13.12-.2.19Zm-1.76,6.29c.04.54-.19.69-.27.73-.32.2-.9.15-1.31-.1-.87-.54-.81-3.54-.79-4.52.02-1.08,1-2.19,1.87-2.95.14.56.38,1.03.75,1.39.21.2.42.33.64.43-.3,1.01-1,3.53-.89,5.03Zm3.02-7.53c-.48-.41-1.13-1.17-.99-2.21,1.47-2.12,2.58-3.63,3.14-4.25,1.34-1.48.83-2.59-.41-5.25-.16-.33-.33-.7-.51-1.1.34.32.8.52,1.31.52.1,0,.2-.02.3-.04.11.14.23.27.33.39-.02.1-.04.2-.04.3,0,1.03.85,1.87,1.9,1.87.31,0,.6-.08.87-.22.23.08.46.13.68.16-.06,1.01-.2,1.92-.42,2.54-.22.65-1.34,2.45-6.17,7.29Zm8.73-10.9c-.17,0-.28-.09-.33-.14-.05-.07-.07-.14-.07-.22,0-.21.17-.37.4-.37.17,0,.29.09.33.14.05.08.07.16.07.22,0,.21-.17.37-.4.37Zm2.3-2.9s-.07,0-.14-.03c-.13-.04-.25-.17-.25-.34,0-.2.18-.37.4-.37.08,0,.16.02.23.06.05.03.18.13.18.3,0,.2-.18.37-.41.37Zm4.74,3.93c.04-.13.08-.28.11-.46.32.11.65.17.98.17.63,0,1.23-.17,1.7-.36,1.78.96,3.69,2.33,3.88,3.02.07.25.07.46,0,.58,0,0,0,0,0,0,0,0,0,0,0,0-.12.21-.61.34-1.45.18,0,0,0,0,0,0,0,0,0,0,0,0-.36-.06-.77-.19-1.23-.38l-.8-.32c-2.78-1.09-3.49-1.52-3.19-2.43Zm-7.19,6.77c.71-1.53,2.87-2.23,4.36-1.92.27.06.56.16.81.33-1.36-.16-2.57.09-3.4.75-.67.53-1.44,1.58-1.27,3.6,0,.04.02.08.02.12-.92-.58-1.25-1.32-.52-2.88Zm-4.63,9.78c.22-.37,1.1-1.28,2.01-2.06.17-.15.26-.36.26-.58,0-.22-.11-.43-.28-.57-.03-.02-.07-.06-.12-.09.14-.01.28-.02.41-.03.29-.02.55-.2.66-.48.1-.25.05-.53-.11-.74.28-.01.58-.02.88-.02.05,0,.11,0,.15,0,.32,0,.61-.21.71-.52l.04-.13c.12-.01.27-.02.45-.02.44.19.97.3,1.6.31l.5.21h0s.02.01.03.02l1.06.44c.36.3.58.52.67,1.06-.36-.14-.75-.22-1.15-.21h-2.31c-.64.02-1.25.29-1.68.74-.4.43-.61.98-.59,1.56l.09,2.1c.04.86.57,1.57,1.33,1.92-.46.08-.83.18-1.12.29-.36,0-.75,0-1.11-.02.12-.13.18-.3.19-.47,0-.24-.1-.47-.29-.62-1.02-.79-2.03-1.71-2.28-2.08Zm9.62,4.6c-1.78.06-3.83,0-5.01-.17.15-.03.32-.06.52-.1.91-.15,1.97-.21,2.71-.23.71-.02,1.42-.13,2.12-.28.1.26.14.52.15.74-.3.02-.49.04-.49.04Zm8.33,2.42c-2-.03-3.04-.78-3.56-1.4,1.72-.24,2.81-.51,3.52-.76,1.01-.11,2.18-.27,3.24-.43-.01.91.31,1.65.68,2.2-1.38.28-2.81.4-3.88.39Zm7.97-2.17c-.19.22-.45.42-.75.61-.29-.51-.64-1.31-.53-2.12,0,0,0-.02,0-.03,0-.04,0-.08,0-.12,0-.07,0-.13-.03-.2,0-.01,0-.03,0-.04l-.56-1.4c.51-.12,1.03-.25,1.55-.41.34.9.6,1.79.72,2.59.06.41-.06.76-.37,1.11Zm1.87-4.5c1.61-.69,3.04-1.6,3.97-2.78.61-.78.98-1.63,1.09-2.54,1.59,1.22,3.03,2.28,4.27,3.11.01,0,.02.02.03.03.01.01.03.01.05.02-.64,1.27-1.99,2.11-2.48,2.39-2.73-.45-5.05-.53-6.93-.24Zm19.35-5.33c.09.39.13,1.05-.37,1.62-1.08-.16-2-.15-2.74.05l-1.72-3c1.35.43,3.21.98,4.83,1.33Zm-6.5-1.24l2.41,4.21c.2.35.64.48.99.29.59-.3,1.58-.34,2.87-.1.02,0,.03,0,.05,0,2.09.38,4.39,1.36,5.31,1.78-.14.36-.2.69-.2.98-1.64-.24-3.89-.59-5.89-.91-1.71-.27-2.95-.49-3.68-.64-.53-.11-1.64-.56-3.94-2.09,0,0,0,0,0,0,.19-.7,0-1.44-.31-2.1.42-.05.88-.17,1.31-.41.45-.25.81-.6,1.09-1.03Zm-.89,10.21c-2.63-.73-3.6-1.73-3.95-2.28.73-.46,1.96-1.36,2.67-2.66,1.65,1.05,2.88,1.65,3.73,1.82.67.13,1.73.32,3.16.55-.04.37-.19.78-.44,1.15-.02.03-.04.05-.07.08-.21.3-.46.56-.78.78-.41.3-.9.53-1.43.66,0,0,0,0,0,0-.88.21-1.85.18-2.89-.11Zm9.19,3.19c-.05-.11-.1-.26-.13-.42-.15-.69-.75-1.42-3.73-2.2.06-.05.12-.11.18-.16.13-.11.25-.21.36-.33.03-.03.06-.05.09-.08,1.03.44,1.81.89,2.34,1.34.86.73.97,1.34.9,1.86Zm-.15-3.17c-.58-.45-1.32-.88-2.25-1.29.15-.35.24-.71.29-1.06,2.27.36,4.71.73,6.12.93.02,0,.03.01.05.02.34.05.62.09.82.12.16.25.43.66.75,1.12-2.24.18-4.18.24-5.77.17Zm9.65,2.19c-.23-.16-.78-.65-1.91-2.17-.87-1.19-1.63-2.39-1.64-2.4-.12-.18-.31-.31-.52-.34,0,0-.29-.04-.79-.12-.04-.19-.04-.5.19-.92.43,0,1.13-.03,1.98-.14.1-.02.41-.05.95,1.06.17.35.33.74.49,1.13.19.48.4.98.62,1.42.12.23.22.45.31.68.39.99.37,1.6.31,1.8Zm4.69-4.94c.95.11,1.27,1.4,1.66,3.35.15.75.3,1.51.53,2.2.16.49.16.9,0,1.21-.11.21-.28.36-.44.47l-2.28-4.28c-.42-.77-1.26-1.21-2.12-1.08-.32.05-.74.11-1.2.18-.04-.09-.08-.18-.12-.27-.2-.39-.38-.84-.56-1.29-.04-.1-.08-.19-.12-.29,1.2-.15,3.28-.36,4.66-.2Zm-9.73-2.51h-.19c-.26-.13-.82-.38-1.55-.68,1.14.18,2.45.37,3.81.57-.85.1-1.62.13-2.07.12Zm5.8-2.03c.34.11.72-.07.89-.38.02-.03.45-.8,1.84-.85.01,0,.02,0,.04,0,1.23,0,4.49,1.88,5.31,2.82,0,0-.01,0-.02,0-2.36.24-12.75-1.28-18.61-2.24.04-.26.06-.51.05-.75.4.06.75.09,1.04.09.24,0,.44-.02.61-.06.46-.1,1.29-.35,2.28-.65l6.56,2.01Zm4.92-6.47c.48.16,1.02.33,1.62.52,1.53.48,1.83,1,1.89,1.21.03.11.02.23,0,.33l-7.43-1.41c-.09-.11-.2-.28-.21-.48,0-.21.11-.43.33-.68,0,0,0,0,0,0,.56-.53,1.3-.32,3.8.5Zm-13.22,1.28c1.11-1.12,4.87-1.54,7.65-1.58-.05.21-.07.41-.06.57.01.25.07.48.15.67-2.11.71-7.23,2.4-8.6,2.71-.12.03-.64.09-2.15-.24-2.33-.48-5.48-1.5-6.55-1.86.07-.74-.09-1.39-.46-1.94-.07-.1-.15-.2-.23-.29.53-.21,1.03-.52,1.34-.98.08-.12.15-.28.21-.46,4.18,1.42,7.75,3.49,7.79,3.51.29.17.67.12.91-.12Zm-10.12-3.84s-.02.05-.03.07c-.31.46-1.59.73-2.36.77-.39.02-.7.33-.71.73-.01.39.28.73.67.77,0,0,.9.11,1.3.7.24.35.27.85.1,1.49-.17.63-.47,1.05-.9,1.3-.8.45-1.85.16-1.86.15-.33-.1-.67.03-.85.32-.18.29-.14.66.09.91.19.2.66.81.84,1.4-.98-.69-2.05-1.48-3.2-2.37.54-1.1,1.25-3.53-.43-6.89,1.87-.43,4.34-.2,7.36.67Zm-12.12-3.39c-.43.2-.86.41-1.3.63-.74.38-1.51.59-2.22.67-.08,0-.16,0-.24,0-.02,0-.05,0-.07,0,0,0,0,0-.01,0-.28,0-.59.01-.88.02-.26-.03-.49-.07-.68-.14-.29-.1-.39-.21-.4-.23,0,0,0-.04.05-.13.27-.49,1.17-1.15,2.23-1.8.06.13.12.25.21.37.37.47.93.73,1.52.73.23,0,.46-.04.69-.12,1.75-.65,3.1-1.35,4.05-2.1,0,.04,0,.09,0,.13-.14.63-1.63,1.34-2.93,1.97Zm.47-23.37c-.15.24-.15.54,0,.78.02.03,1.69,2.88,1.78,6.86.03,1.42-.09,3.17-.2,4.86-.09,1.29-.15,2.42-.18,3.42-.59-.26-1.31-.36-2.02-.1-.71-5.55-1.94-15.14-2.11-16.79-.08-.79.91-4.11,2.18-7.64.16.01.32.04.47.04,1.14,0,2.19-.29,3.09-.82.55.65,1.16,1.21,1.85,1.67-2.08,3.31-4.85,7.72-4.85,7.72Zm8.53-8.01c-.55-.02-1.05-.14-1.53-.3.28-.45.54-.86.75-1.2l2.63.03c.02.33.05.73.08,1.17-.56.22-1.2.33-1.93.3Zm8.55,26.26c.56-.53,1.21-.34,1.55-.17.05.2.09.44.12.72l-.41.8c-.16.32-.53.44-.76.41-.12,0-.53-.05-.71-.46h0c.06-.43.13-.87.2-1.3Zm1.43-1.79c-.49-.1-1.04-.1-1.59.12-.07-.37-.15-.81-.24-1.31.67-.46,1.54-.28,1.99-.13-.07.52-.13.95-.16,1.32Zm-.88,8.05c-.2.14-.57.35-.71.21-.29-.3-.36-1.67-.23-3.42.26.11.54.19.85.2.03,0,.06,0,.08,0,.48,0,.92-.14,1.29-.39,0,.28.02.58.02.89.01,1.01-.47,1.95-1.31,2.51Zm-.44-21.09c-.02.25.08.49.26.65,2.27,1.9,1.86,6.4,1.42,9.57-.64-.17-1.59-.3-2.5.07-.8-4.15-2.04-10.08-2.85-11.32-.61-.93-1.17-5.75-1.49-9.83,1.23-.81,2.09-2.08,2.77-3.55.44-.09.81-.36,1.05-.77.35-.61.39-1.49.17-2.53.1-.32.2-.64.3-.96.83,1.27,1.54,2.84,1.6,4.58.17,4.69-.73,14-.74,14.1Zm.27-25.35c-.28.5-.56,1.01-.85,1.55-.32.61-.6,1.29-.86,2.01-.3-.3-.57-.56-.78-.76.61-1.16.95-2.5.92-3.91-.02-1.1.09-2.23.22-3.42.01-.13.03-.27.04-.4.59.34,1.24.73,1.99,1.19.32.2.63.38.92.55-.38.99-.94,2.01-1.59,3.19Zm7.06-5.47c-.59,1.29-1.1,1.96-1.61,2.12-.47.15-1.16-.09-2.08-.56.21-.92.26-1.88.08-2.92.12.12.19.2.19.2.14.15.34.23.54.23.05,0,.11,0,.16-.02.26-.06.46-.24.55-.49,0-.02.36-1.01,1.26-2.8.44.99.89,2.07,1.34,3.23-.15.33-.3.67-.45,1Zm14.45,46.86s-.01-.02-.02-.03c.3-.33.5-.76.5-1.22,0-1.03-.85-1.87-1.9-1.87-.06,0-.11.02-.17.02-.02-.06-.04-.12-.06-.18.27-.15.5-.35.67-.6,1.03.56,2.09.88,3.15.97-.3.95-.48,1.94-.57,2.82-.22-.09-.46-.14-.72-.14-.31,0-.61.08-.88.22Zm-8.3,1.05s0-.01,0-.02c.27.04.57.07.88.07.33,0,.66-.05.99-.13,0,0,0,0,0,0-.55.48-1.41.25-1.87.07Zm18.77-20.45c.23,0,.41.16.41.37s-.16.31-.3.35c-.02,0-.09.01-.11.02-.22,0-.4-.17-.4-.37,0-.17.13-.32.3-.35.03,0,.07-.01.1-.01Zm-3.37,15.26c0,.37.12.73.32,1.03,0,.02-.02.03-.03.05-.11-.02-.22-.05-.33-.05-1.05,0-1.9.84-1.9,1.87,0,.3.08.59.22.85-.25-.12-.52-.2-.81-.2-.6,0-1.13.28-1.48.71.2-1.87.72-3.8,1.75-4.86.29-.3.28-.77-.01-1.06-.11-.11-.25-.16-.39-.19.2.02.4.04.6.04,1.35,0,2.63-.38,3.59-1.03.07.26.21.49.38.69-.04.09-.08.19-.12.28-1,.05-1.79.86-1.79,1.86Zm-7.88-1.34c-.24-.71-.9-1.22-1.68-1.27l-.07-.06c-.01-.12-.03-.23-.04-.34.59-.31.98-.92.98-1.63,0-.75-.44-1.39-1.08-1.68,0-.16,0-.32,0-.47.16-.08.31-.17.45-.29.84.62,1.47,1.16,1.74,1.39.55,2.1,2.23,3.53,4.57,3.84.05,0,.11,0,.16.01-.17.02-.34.08-.47.21-.4.41-.73.9-1.01,1.42-1.2-.01-2.38-.38-3.55-1.12Zm-2.66-2.95s0,0,0,0c-.02,0-.04,0-.06,0-.21-.01-.37-.17-.37-.37s.15-.34.35-.36c.03,0,.06,0,.08,0,.2,0,.36.16.36.36s-.15.34-.35.36c0,0,0,0,0,0,0,0,0,0,0,0Zm.25-14.88h0c-.2-.03-.35-.18-.35-.36,0-.2.18-.37.41-.37.07,0,.14.02.2.05.12.07.2.18.2.31,0,.2-.18.36-.45.36Zm-.38,3.52s-.05,0-.08,0c-.21-.01-.36-.16-.36-.36s.15-.35.37-.37c0,0,.02,0,.02,0,0,0,0,0,0,0,0,0,0,0,0,0,.01,0,.03,0,.04,0,.21.02.36.17.36.36s-.15.35-.36.36Zm13.49,10.55c-.12-.22-.23-.4-.31-.53v-.07c.14.17.31.32.5.44-.01.04-.02.08-.03.12-.05.01-.11.02-.16.03Zm-.31-2.87v-1.79c.34.42.63.8.87,1.17-.35.12-.65.33-.87.61Zm-5.33,4.61c-.61-.08-1.83-.38-2.65-1.39,1.08.44,2.52.85,4.07.85.75,0,1.53-.11,2.32-.35-.87.7-2.32,1.08-3.73.89Zm-7.05-6.85c0-.08,0-.16,0-.23.18-.07.33-.17.48-.28.16.46.31.9.47,1.33-.21-.36-.53-.65-.94-.82Zm1.16,1.42c.05.13.09.25.14.38-.03-.03-.07-.05-.11-.08h0c0-.1-.01-.2-.03-.3Zm-2.01-3.72l.15-.03c.15,0,.29.08.35.21.01.02.02.04.04.07,0,.03.01.06.01.09,0,.19-.15.35-.36.37-.03,0-.05,0-.08,0-.21-.01-.36-.16-.36-.36,0-.13.07-.25.25-.34Zm.15,3.65c.22,0,.4.17.4.37,0,.02,0,.06-.02.12-.04.14-.19.25-.38.26-.22,0-.4-.17-.4-.38,0-.1.05-.2.13-.27.08-.06.17-.1.27-.1Zm.73,7.77s.07-.03.17-.04c.21,0,.39.15.4.33,0,.02,0,.04,0,.07-.02.19-.19.34-.42.34-.22,0-.39-.17-.39-.37,0-.15.11-.26.23-.32Zm14.04-10.13s.04,0,.06-.02c.23-.02.43.16.43.37s-.18.37-.4.37c-.23,0-.4-.16-.4-.37,0-.17.12-.31.3-.35Zm-3.18,5.34c-3.12,1.31-6.6-.52-7.43-1-.12-.32-.3-.8-.52-1.41.57-.57.93-1.15,1.13-1.63,1.22.76,3.61,1.91,6.81,2.03v2.01Zm-12.91-12.74s0,0,0,0c-.36.29-.63.65-.86,1.04-.1,0-.2,0-.33.01.26-.67.5-1.57.28-2.44.25,0,.49,0,.72,0-.04.15-.06.3-.06.46,0,.33.09.64.25.92Zm9.09,24.28c-.08-.06-.12-.15-.12-.25,0-.2.18-.37.4-.37.18,0,.3.1.37.23.01.03.03.07.03.13,0,.3-.38.51-.68.25Zm2.57-2.45c-.09-.05-.2-.15-.2-.32,0-.21.17-.37.4-.37.09,0,.18.03.23.05.05.04.17.15.17.31,0,.27-.38.43-.6.32Zm1.92-2.9l-.03-.02c-.06-.04-.16-.13-.16-.3,0-.2.18-.37.4-.37l.14.03c.15.05.26.19.26.33,0,.26-.29.46-.61.32Zm1.63-3.27s-.13-.05-.15-.05c-.09-.05-.21-.16-.21-.31,0-.08.03-.15.12-.25.06-.07.14-.11.3-.11.02,0,.04,0,.07,0,.18.03.32.18.32.35,0,.2-.19.34-.46.36Zm.71-3.5s-.04,0-.05,0c-.2-.02-.37-.18-.37-.36,0-.2.18-.37.4-.37.04,0,.08,0,.08,0,.1.02.14.05.19.09.07.05.11.13.12.21,0,.02,0,.05,0,.07,0,.19-.17.34-.37.35Zm-.29-10.27c-.03-.11-.05-.22-.08-.33.18.15.35.32.52.48-.14-.06-.29-.12-.44-.15Zm-.48-2.59c0,.14-.09.27-.27.34-.02,0-.19.02-.2.02-.19-.04-.32-.19-.32-.36,0-.09.04-.19.09-.25.06-.06.16-.13.31-.13.22,0,.4.17.4.38Zm-9.01-.11c.06-.07.18-.19.4-.19s.42.13.5.32c.02.06.04.13.04.18,0,.27-.24.49-.54.49s-.52-.22-.52-.49c0-.11.04-.21.12-.31Zm1.94-.98c-.38-.43-.94-.71-1.54-.71-.38,0-.74.11-1.05.3-.07-.06-.14-.13-.2-.21.15-.16.27-.35.38-.55.13-.27.22-.53.27-.78l.76.37c.44.21.9.32,1.36.32.41,0,.81-.11,1.19-.26,0,.02,0,.04-.01.06-.02.27.01.54.08.79-.42.35-.86.57-1.24.68Zm2.83-.76c-.13-.15-.19-.36-.17-.59.03-.37.28-.67.53-.67,0,0,.02,0,.02,0,.12,0,.22.09.27.15.13.15.19.36.17.59,0,.08-.03.16-.05.23,0,.01-.01.02-.02.03,0,0,0,.02,0,.03-.09.23-.27.4-.49.38-.12,0-.21-.09-.27-.15Zm-7.84-11.6c.22.13.41.2.48.22.37.13.77-.04.93-.39.23-.48.49-1.01.74-1.47,0,.02,0,.04,0,.05.01.33.25.62.57.7.33.08.66-.06.83-.35.25-.43.52-.86.77-1.21.07.3.12.58.15.74.04.24.19.44.41.54.21.11.47.11.68,0,1.35-.7,3.04-1.41,3.64-1.48.18.5.32,2.02.32,3.47,0,.23.11.45.29.59.18.14.41.19.64.14,0,0,.76-.18,1.49-.36-.13.3-.29.63-.46.94-.14.26-.11.57.06.8.18.23.47.35.75.28,0,0,.21-.04.51-.11-.29.73-.78,1.77-1.24,2.66-.13.26-.11.56.07.79.06.08.13.14.2.19-.62.58-1.52,1.39-2.65,2.39-.25-.16-.54-.26-.84-.29-.1,0-.2,0-.29.01l1.63-3.15c.28-.53.32-1.14.14-1.71-.19-.58-.6-1.04-1.15-1.31l-3.62-1.77c-1.05-.51-2.32-.09-2.85.92l-2.01,3.87s-.03.07-.04.1c-.25-.15-.52-.24-.82-.27-.02-1.9.37-4.29.68-5.56Zm-.81,7.95c-.33.28-.75.29-.91.11-.06-.06-.08-.15-.07-.25.01-.19.13-.4.31-.55.19-.16.41-.23.59-.23.14,0,.26.04.32.12.06.06.08.15.07.25-.01.19-.13.4-.31.55Zm2.32-1.54l2.01-3.87c.16-.3.54-.42.86-.27l3.62,1.77c.19.09.33.25.39.44.06.18.04.37-.04.54l-1.94,3.74c-.39.75-1.34,1.05-2.11.67l-1.63-.8c-.11-.09-.23-.16-.37-.18l-.09-.04c-.38-.18-.65-.5-.78-.88-.12-.37-.09-.77.09-1.12Zm-.57,6.12c.16.23.35.44.58.62-.04.16-.07.33-.07.51,0,1.1.91,1.99,2.02,1.99s1.96-.83,2.02-1.86c.59-.18,1.13-.46,1.62-.84.27.18.57.29.89.32.05,0,.09,0,.14,0,.57,0,1.08-.27,1.46-.7.1.07.2.15.31.25-.08.21-.12.43-.12.65,0,.69.4,1.32,1.03,1.64.09.43.19.85.29,1.26-.49.34-.8.9-.8,1.52,0,.93.7,1.7,1.6,1.84.05.22.09.45.13.67-.19.13-.35.29-.47.48,0-.02-.02-.03-.03-.05l-.84-1.21c-.23-.34-.7-.43-1.04-.19-.34.23-.43.7-.19,1.04l.39.56v2.38c-2.72-.12-4.76-1.07-5.85-1.72.53.27,1.12.43,1.76.43,2.15,0,3.89-1.71,3.89-3.8,0-.41-.34-.75-.75-.75s-.75.34-.75.75c0,1.27-1.07,2.3-2.39,2.3s-2.39-1.03-2.39-2.3c0-.41-.34-.75-.75-.75s-.75.34-.75.75c0,1.12.51,2.12,1.3,2.81-.03-.03-.06-.05-.06-.05-.21-.18-.51-.22-.77-.12-.26.11-.44.35-.46.63,0,.03-.06.6-.55,1.29-.24-.66-.48-1.36-.73-2.09.28-.07.57-.21.92-.51.32-.26.36-.74.1-1.06-.26-.32-.74-.36-1.06-.1-.28.23-.31.23-.76.24h-.13c-.23-.26-.53-.45-.87-.55,0-.1,0-.21,0-.32.72-.26,1.24-.94,1.24-1.74,0-.68-.39-1.29-.96-1.61,0-.04.01-.07.02-.11.81-.21,1.41-.93,1.41-1.8,0-.21-.04-.4-.11-.59.02,0,.04,0,.05,0,.18-.03.35-.07.51-.12Zm-6.59.22c.49.62.16,1.6-.26,2.5-.15,0-.3,0-.46,0,.33-.72.52-1.6.29-2.5.05,0,.09,0,.13,0,.1,0,.2,0,.3,0Zm-3.44-3.32c.38.37.92.6,1.58.72-.04.04-.08.07-.12.11-.74-.12-1.25-.56-1.56-.95.04.04.07.08.11.12Zm-1.12-7.47s.02.02.03.03c1.36,1.18,3.83,1.88,6.01,1.69.15-.02.2.18.23.36.07.48-.22,1.37-1.71,1.75-.03,0-.07-.02-.1-.02l-.29-.07c-.86-.19-2.46-.56-2.67-.83-.1-1.5-.68-1.88-1.8-2.32.1-.26.21-.47.3-.58Zm-1,4c-.2-.34-.18-1.71.01-2.08.95.37.95.38,1,1.08.09,1.35,1.91,1.76,3.83,2.19l.28.06c.72.17.87.3.87.29,0,.04-.05.39-.78,1.2-1.34.1-1.86-.2-2.02-.34-.01-.01-.01-.02-.03-.03.09-.06.15-.09.15-.1.27-.16.41-.48.35-.79-.06-.31-.31-.55-.62-.6-1.39-.22-2.82-.64-3.06-.9Zm-1.41,8.05c-.1-.12-.13-.22-.1-.37.19-1.25,1.25-2.5,2.31-3.47.31.4.78.86,1.39,1.19-.21.19-.3.48-.22.76.09.31.37.52.68.54,0,0,.33.01.85.03.54.98-.03,2.02-.36,2.49-3.41-.22-4.33-.88-4.56-1.17Zm5.64,8.82c.42-.16,1.41-.22,3.44.87-.06.19-.11.38-.11.58,0,.78.48,1.45,1.2,1.73,0,.12,0,.25,0,.37-.3.11-.55.3-.75.54-.27-.66-.88-1.66-2.16-2.18-.38-.16-.82.03-.98.41-.16.38.03.82.41.98,1.03.42,1.36,1.34,1.44,1.63-.04.69-.3,5.21-.26,8.55-.52.29-1.44.2-2.09.05-1.49-9.31-.89-13.25-.14-13.53Zm-.64,19.56l-.8.32c-1.61.64-2.42.48-2.64.28-.17-.16-.11-.47-.06-.66.19-.68,2.11-2.04,3.89-3.01.47.2,1.07.36,1.69.36.33,0,.66-.06.98-.17.03.17.07.33.11.45.31.92-.4,1.34-3.18,2.43Zm7.69-7.02c.05-.03.14-.07.24-.07.22,0,.4.17.4.37,0,.17-.13.29-.25.34-.01,0-.13.02-.14.03-.23,0-.41-.16-.41-.37,0-.17.13-.27.17-.3Zm2.14,3.2c0-.07.02-.14.05-.18.06-.09.18-.18.35-.18.22,0,.4.16.4.37,0,.08-.03.16-.06.2-.06.08-.17.17-.34.17-.22,0-.4-.16-.4-.37Zm11.29,10.91c-.02.61-.15,1.08-.41,1.34-.16.16-.34.23-.48.26-.07-.06-.12-.11-.2-.19.37-.33.79-.81,1.08-1.41Zm3.24,4c.02.98.08,3.98-.79,4.52-.41.25-.98.3-1.3.1-.08-.05-.31-.19-.27-.74.11-1.49-.59-4.01-.89-5.02.21-.1.43-.23.64-.43.37-.35.61-.82.75-1.39.87.76,1.85,1.87,1.87,2.95Zm-7.55-10.1c.56.62,1.68,2.12,3.14,4.25.14,1.04-.51,1.81-.99,2.21-4.83-4.84-5.95-6.64-6.17-7.29-.21-.62-.36-1.53-.42-2.54.23-.03.46-.09.69-.16.27.14.56.22.86.22,1.05,0,1.9-.84,1.9-1.87,0-.1-.02-.2-.04-.3.11-.12.22-.25.33-.39.1.02.2.04.3.04.51,0,.97-.2,1.31-.52-.18.4-.35.77-.51,1.1-1.24,2.67-1.75,3.77-.41,5.25Zm1.53-7.72s-.01.03-.02.05c0-.01,0-.02,0-.04,0-.35-.12-.69-.32-1,.01-.02.03-.05.04-.07.1.02.21.04.31.04.12,0,.24-.01.35-.04-.1.35-.22.7-.37,1.05Zm3.14-11.67c0-.12,0-.24,0-.36.68-.28,1.16-.95,1.16-1.72,0-.9-.65-1.65-1.52-1.83-.05-.25-.09-.49-.15-.74.46-.34.75-.87.75-1.47,0-.2-.04-.39-.1-.57.4.5.78,1.04,1.13,1.64.35.61.68,1.31,1.04,2.2l1.2,3s.98,3.34,1.53,6.31c-.69.03-1.38.22-1.9.41-.08-.33-.16-.68-.24-1.06-.39-1.83-1.73-4.16-2.9-5.82Zm5.71,12.98c-.35,1.29-.78,2.18-1.2,2.54.02-.63.14-1.63.28-2.48.05-.32-.1-.63-.38-.79-.11-.06-.23-.09-.35-.09-.19,0-.37.07-.51.2-.29.27-.63.53-.92.71.08-.15.19-.33.34-.54.68-.97.93-2.13.71-3.27l-.18-.92c.56-.21,1.29-.42,1.8-.39.3,1.16.8,3.65.43,5.02Z"/>
</svg>