<?xml version="1.0" encoding="UTF-8"?>
<svg id="icons" xmlns="http://www.w3.org/2000/svg" viewBox="0 0 120 120">
  <path d="m110.2,43.27c-1.14-.08-2.16.65-2.5,1.74-5.4,16.96-24.46,28.8-46.36,28.8s-40.95-11.84-46.35-28.8c-.35-1.08-1.35-1.82-2.5-1.74-1.13.06-2.07.89-2.29,2-.45,2.25-.68,4.57-.68,6.88,0,23.3,23.25,42.25,51.83,42.25s51.83-18.95,51.83-42.25c0-2.31-.23-4.63-.68-6.88-.22-1.12-1.17-1.94-2.29-2Zm-48.86,47.13c-26.37,0-47.83-17.16-47.83-38.25,0-.09,0-.18,0-.27,7.95,15.52,26.69,25.92,47.82,25.92s39.88-10.4,47.83-25.92c0,.09,0,.18,0,.27,0,21.09-21.46,38.25-47.83,38.25Z"/>
</svg>