<?xml version="1.0" encoding="UTF-8"?>
<svg id="icons" xmlns="http://www.w3.org/2000/svg" viewBox="0 0 120 120">
  <path d="m8.83,39.25l1.43,3.38c.66,1.55,1.84,2.6,3.23,2.89l2.39.51s0,0,0,0l17.72,3.82c2.16.46,4.41.12,6.33-.98,1.55-.88,3.46-.87,4.98.04.93.55,2.02,1.19,3.2,1.86-1.08,4.66-2.4,4.7-4.48,4.77-3.85.12-5.57,2.4-5.54,4.45.04,2.38,2.39,4.95,7.47,4.95,5.59,0,10.04-3.14,12.7-8.89,2.89,1.33,5.21,2.19,7.05,2.63,1.59.37,3.24.29,5.07-.28,3.59,7.18,9.25,7.21,15.22,6.54,3.84-.43,5.2-2.42,5.68-3.57.74-1.8.35-3.91-1.04-5.63-1.74-2.16-4.63-3.17-7.54-2.64-.42.08-.99.18-1.5-.57,2.44-1.22,3.94-1.13,7,.04,6.04,2.29,6.03,2.39,5.69,7.64-.1,1.51-.22,3.39-.22,5.71,0,3.05-5.23,5.8-10.77,8.7-7.9,4.14-16.85,8.84-18.86,17.75-1.01,4.49-.24,7.85.38,10.55.65,2.82.91,4.24-.27,5.88-.41.57-.49,1.31-.22,1.95.27.64.86,1.1,1.55,1.2.1.01.44.06.93.06,1.19,0,3.24-.26,4.82-1.81,1.55-1.53,2.15-3.8,1.77-6.74-.54-4.14.38-8.1,2.46-10.6,1.46-1.76,3.45-2.73,5.9-2.86,7.91-.43,30.47-6.03,30.36-25.43-.12-21.37-5.03-28.76-11.44-36.19h0c-4.04-4.69-6.89-6.34-8.73-6.83l-1.03-3.79c-.24-.87-1.03-1.48-1.93-1.48h-2.85l-1.58-2.79c-.47-.83-1.47-1.21-2.38-.91l-2.64.89-2.84-3.77c-.34-.46-.86-.74-1.43-.79-.57-.05-1.13.15-1.54.54l-1.48,1.39-1.58-2.05c-.42-.54-1.09-.84-1.76-.77-.68.06-1.28.47-1.6,1.07l-.83,1.61-.56-.76c-.37-.5-.95-.8-1.57-.81-.63-.03-1.21.27-1.6.75l-2.07,2.6-2.43-2.17c-.5-.45-1.19-.61-1.84-.44-.65.17-1.17.65-1.38,1.28l-.34,1-1.35-.29c-.97-.21-1.95.32-2.3,1.25l-.32.86-1.56-.32c-.72-.15-1.47.11-1.95.68l-1.17,1.41c-1.68-1.8-4.61-3.92-8.72-3.23-5.57.92-9.02,7.97-10.05,10.39l-15.85,8.39c-2.42,1.29-3.45,5.02-2.2,7.97,0,0,0,0,0,0Zm18.66-2.1l.22,1.14c-.66.33-1.38.66-2.13.98l-.27-1.32c.18-.07.37-.14.55-.2.56-.21,1.1-.41,1.63-.6Zm-5.99,2.14l.29,1.41c-1.03.34-2.04.63-2.99.86l-.31-1.43c1.05-.24,2.06-.54,3.02-.84Zm-7.56,1.78l-.13-.31c.2,0,.4-.02.6-.03.04,0,.07,0,.11,0l.21.98-.4-.09s-.23-.16-.4-.55Zm-1.04-6.26l16.48-8.72c.43-.23.76-.6.93-1.06.78-2.04,3.78-8.01,7.25-8.58,3.89-.65,6.15,3.3,6.24,3.46.32.58.9.97,1.56,1.03.66.07,1.31-.2,1.73-.71l2.01-2.43,2.06.43c.96.2,1.93-.33,2.28-1.26l.31-.84,1.4.3c.94.2,1.88-.29,2.26-1.15l1.77,1.58c.41.37.95.54,1.5.5.55-.05,1.05-.32,1.39-.74l1.76-2.21.92,1.25c.41.56,1.07.86,1.77.81.69-.05,1.3-.46,1.62-1.07l.87-1.68,1.01,1.31c.34.45.86.73,1.43.77.57.05,1.12-.15,1.53-.54l1.46-1.37,2.36,3.14c.52.69,1.42.97,2.23.69l2.45-.82,1.34,2.37c.36.63,1.02,1.01,1.74,1.01h2.48l.99,3.67c.14.53.5.98.99,1.24.4.21.86.28,1.3.2.31.04,2.49.47,6.91,5.6h0c6.06,7.03,10.35,13.55,10.47,33.6.09,16.29-19.65,21.03-26.58,21.41-3.56.2-6.59,1.69-8.76,4.3-2.77,3.34-4.02,8.45-3.35,13.67.09.73.13,1.62-.06,2.36,0-1.46-.33-2.89-.65-4.3-.58-2.54-1.19-5.17-.38-8.77,1.6-7.1,9.68-11.34,16.82-15.09,6.93-3.63,12.91-6.77,12.91-12.25,0-2.19.12-4,.21-5.45.44-6.73-.27-8.61-8.26-11.64-2.04-.78-3.69-1.18-5.27-1.18-1.36,0-2.67.31-4.11.92-.13-2.17.14-4.19.14-4.22.15-1.09-.62-2.1-1.71-2.25-1.09-.15-2.1.62-2.25,1.71-.03.19-.63,4.75.34,8.33,0,0,0,0,0,0,1.41,5.23,5.13,5.16,6.66,4.88,1.76-.32,3.07.42,3.72,1.22.44.55.62,1.18.45,1.59-.23.55-1.13.97-2.42,1.11-5.7.64-9.35.57-11.85-5.83,0,0,0,0,0,0-.85-2.17-1.52-5.03-2.01-8.5-.15-1.09-1.16-1.85-2.26-1.7-1.09.15-1.86,1.16-1.7,2.26.4,2.9.92,5.36,1.57,7.46-1,.27-1.89.33-2.68.15-1.62-.38-3.84-1.23-6.59-2.51.33-1.17.61-2.41.82-3.7.18-1.09-.56-2.12-1.65-2.29-1.1-.18-2.12.56-2.29,1.65-.28,1.71-.68,3.3-1.19,4.73-1.34,3.77-4.12,8.27-9.76,8.27-2.18,0-3.2-.64-3.43-.97.16-.14.64-.4,1.63-.43,5.72-.19,7.48-3.6,8.57-9.42,0,0,0,0,0,0,.39-2.06.74-4.65,1.16-8.66.12-1.1-.68-2.08-1.78-2.2-1.09-.12-2.08.68-2.2,1.78-.24,2.27-.45,4.06-.66,5.55-.68-.39-1.32-.77-1.9-1.11-2.77-1.64-6.22-1.66-9.01-.07-1.06.61-2.31.8-3.5.54l-9.62-2.07c.4-.15.79-.3,1.18-.46.16-.06.33-.13.49-.19.43-.17.83-.36,1.24-.54.12-.05.25-.1.37-.16.41-.19.79-.38,1.18-.57.1-.05.22-.1.32-.15.48-.24.93-.49,1.36-.74,2.81-1.63,4.27-3.16,4.6-4.8.19-.96-.03-1.93-.64-2.73-1.77-2.33-5.07-1.35-6.48-.94-1.21.36-2.56.86-3.99,1.4-.69.26-1.4.52-2.12.78-1.83.65-4.24,1.45-6.53,1.8-.4.06-.79.1-1.16.13-.11,0-.21.02-.32.02-.29.02-.57.03-.85.03-.09,0-.17,0-.26,0-.32,0-.63-.03-.93-.06-.04-.9.29-1.73.61-1.9Z"/>
  <path d="m38.21,27.89c.51,0,1.04-.08,1.56-.24,2.18-.66,3.98-2.71,4.1-4.66.07-1.1-.76-2.08-1.87-2.15-1.11-.07-2.05.74-2.12,1.85-.06.26-.63,1-1.4,1.16-.22.05-.91.19-1.83-1.02-.67-.88-1.92-1.05-2.8-.38-.88.67-1.05,1.92-.38,2.8,1.31,1.72,2.98,2.63,4.73,2.63Z"/>
  <path d="m53.69,27.09h4.8c1.1,0,2-.9,2-2s-.9-2-2-2h-4.8c-1.1,0-2,.9-2,2s.9,2,2,2Z"/>
  <path d="m42.19,29.65c0,1.1.9,2,2,2h4.8c1.1,0,2-.9,2-2s-.9-2-2-2h-4.8c-1.1,0-2,.9-2,2Z"/>
  <path d="m66.65,24.87h4.8c1.1,0,2-.9,2-2s-.9-2-2-2h-4.8c-1.1,0-2,.9-2,2s.9,2,2,2Z"/>
  <path d="m68.43,26.14c-1.1,0-2,.9-2,2s.9,2,2,2h4.8c1.1,0,2-.9,2-2s-.9-2-2-2h-4.8Z"/>
  <path d="m89.89,37h4.8c1.1,0,2-.9,2-2s-.9-2-2-2h-4.8c-1.1,0-2,.9-2,2s.9,2,2,2Z"/>
  <path d="m92.7,41.25c0,1.1.9,2,2,2h4.8c1.1,0,2-.9,2-2s-.9-2-2-2h-4.8c-1.1,0-2,.9-2,2Z"/>
  <path d="m97.5,47.49c0,1.1.9,2,2,2h3.32c1.1,0,2-.9,2-2s-.9-2-2-2h-3.32c-1.1,0-2,.9-2,2Z"/>
  <path d="m99.76,55.13c0,1.1.9,2,2,2h3.32c1.1,0,2-.9,2-2s-.9-2-2-2h-3.32c-1.1,0-2,.9-2,2Z"/>
  <path d="m104.92,60.96h-3.32c-1.1,0-2,.9-2,2s.9,2,2,2h3.32c1.1,0,2-.9,2-2s-.9-2-2-2Z"/>
  <path d="m102.82,68.8h-3.32c-1.1,0-2,.9-2,2s.9,2,2,2h3.32c1.1,0,2-.9,2-2s-.9-2-2-2Z"/>
  <path d="m98.76,74.83h-3.32c-1.1,0-2,.9-2,2s.9,2,2,2h3.32c1.1,0,2-.9,2-2s-.9-2-2-2Z"/>
  <path d="m91.25,78.45h-3.32c-1.1,0-2,.9-2,2s.9,2,2,2h3.32c1.1,0,2-.9,2-2s-.9-2-2-2Z"/>
  <path d="m83.53,81.16h-3.32c-1.1,0-2,.9-2,2s.9,2,2,2h3.32c1.1,0,2-.9,2-2s-.9-2-2-2Z"/>
  <path d="m79.61,33.61h4.8c1.1,0,2-.9,2-2s-.9-2-2-2h-4.8c-1.1,0-2,.9-2,2s.9,2,2,2Z"/>
  <path d="m79.61,27.09h4.8c1.1,0,2-.9,2-2s-.9-2-2-2h-4.8c-1.1,0-2,.9-2,2s.9,2,2,2Z"/>
  <path d="m64.25,36.04h4.8c1.1,0,2-.9,2-2s-.9-2-2-2h-4.8c-1.1,0-2,.9-2,2s.9,2,2,2Z"/>
</svg>