<?xml version="1.0" encoding="UTF-8"?>
<svg id="icons" xmlns="http://www.w3.org/2000/svg" viewBox="0 0 120 120">
  <defs>
    <style>
      .cls-1 {
        fill: #121112;
      }
    </style>
  </defs>
  <path d="m13.3,46.49c.07-.11.15-.24.23-.37-.01-.01-.02-.02-.03-.03-.08.15-.15.28-.2.4Z"/>
  <path d="m60.4,31.59c.35,0,.64-.57.64-1.27s-.29-1.27-.64-1.27-.65.57-.65,1.27.29,1.27.65,1.27Z"/>
  <path d="m59.33,33.49c-.31-.27-.79-.24-1.06.08-.31.36-.72.56-1.15.57-.01,0-.03,0-.04,0-.41,0-.8-.17-1.1-.49-.29-.3-.76-.31-1.06-.02-.3.29-.31.76-.02,1.06.59.61,1.36.95,2.18.95.03,0,.05,0,.08,0,.86-.02,1.66-.41,2.25-1.09.27-.31.24-.79-.08-1.06Z"/>
  <path d="m61.23,34.69c.59.61,1.37.95,2.19.95.03,0,.06,0,.08,0,.86-.02,1.66-.41,2.24-1.09.27-.31.24-.79-.08-1.06-.31-.27-.79-.24-1.06.08-.31.36-.72.56-1.15.57-.42,0-.84-.16-1.15-.49-.29-.3-.76-.3-1.06-.02-.3.29-.3.76-.02,1.06Z"/>
  <path d="m62.14,39.78c-.46.53-1.07.83-1.72.85-.63,0-1.26-.25-1.73-.74-.29-.3-.76-.31-1.06-.02-.3.29-.31.76-.02,1.06.75.78,1.72,1.21,2.76,1.21.03,0,.06,0,.09,0,1.08-.03,2.08-.51,2.82-1.36.27-.31.24-.79-.08-1.06-.32-.27-.79-.24-1.06.08Z"/>
  <path d="m60.37,38.87h.05c.58-.02,1.11-.27,1.51-.73.27-.31.24-.79-.08-1.06-.31-.27-.79-.24-1.06.08-.11.13-.26.21-.41.21-.17,0-.29-.06-.41-.18-.29-.3-.76-.31-1.06-.02s-.31.76-.02,1.06c.4.41.92.64,1.47.64Z"/>
  <path d="m60.55,15.73c-1.22,0-2.17,1.3-2.17,2.97s.95,2.97,2.17,2.97,2.17-1.3,2.17-2.97-.95-2.97-2.17-2.97Zm0,4.44c-.24,0-.67-.56-.67-1.47s.43-1.47.67-1.47c.27,0,.67.59.67,1.47s-.4,1.47-.67,1.47Z"/>
  <path class="cls-1" d="m105.1,100.47c-.12-.03-.26-.03-.38.01-2.44.65-4.36,1.92-5.31,2.96-1.04-1.26-2.91-2.32-5.35-2.96-.12-.04-.26-.04-.38,0-2.4.63-4.29,1.87-5.25,2.9-1.04-1.25-2.87-2.26-5.31-2.91-.12-.03-.26-.03-.38.01-2.39.63-4.27,1.86-5.24,2.89-1.03-1.24-2.85-2.25-5.29-2.9-.12-.03-.26-.03-.38.01-2.37.63-4.23,1.83-5.2,2.84-1.13-1.22-3.07-2.21-5.64-2.85-.12-.03-.24-.03-.36,0-2.6.63-4.56,1.64-5.69,2.87-.97-1.02-2.84-2.23-5.21-2.86-.12-.04-.26-.04-.38,0-2.43.64-4.25,1.65-5.29,2.88-.97-1.03-2.85-2.25-5.23-2.88-.12-.04-.26-.04-.38,0-2.43.64-4.25,1.65-5.29,2.88-.97-1.03-2.84-2.25-5.22-2.88-.12-.04-.25-.04-.38-.01-2.62.69-4.58,1.85-5.55,3.22-.85-1.08-2.88-2.51-5.53-3.21-.12-.04-.26-.04-.38-.01-3.93,1.04-6.28,3.03-6.28,5.33,0,1.29.68,2.48,1.93,3.33,1.83,1.26,4.2,1.65,6.43,1.65,1.21,0,2.37-.11,3.4-.27,1.69-.24,2.86-.59,2.91-.6.04-.01.07-.04.1-.06,1.58.68,3.36.94,5.04.94,1.22-.01,2.39-.12,3.4-.28,1.3-.19,2.29-.43,2.71-.54,1.55.61,3.27.81,4.82.81.77,0,1.5-.05,2.13-.11,1.92-.19,3.44-.57,3.95-.71,1.53.6,3.23.82,4.84.82,2.76,0,5.23-.59,6.01-.8,1.04.42,2.17.64,3.31.64s2.27-.22,3.3-.63c.63.16,2.07.5,3.84.68.77.08,1.51.12,2.21.12,1.84,0,3.43-.29,4.78-.82.41.11,1.39.35,2.7.54.99.15,2.16.27,3.39.27,1.61,0,3.3-.22,4.83-.82.69.19,3.24.83,6.09.83,1.63,0,3.35-.23,4.88-.85.59.16,3.21.85,6.16.85,2.22,0,4.62-.39,6.48-1.66,1.23-.86,1.91-2.04,1.91-3.33,0-2.3-2.34-4.29-6.27-5.33Zm-83.64,8.54c-.59-.07-4.37-.64-4.84-3.59-.06-.41-.46-.68-.86-.62-.41.07-.69.45-.62.86.28,1.76,1.34,2.88,2.51,3.61-1.81-.06-3.64-.41-5.06-1.38-.82-.56-1.27-1.3-1.27-2.09,0-1.5,1.94-2.98,4.97-3.82,2.86.81,4.45,2.39,4.67,2.8.05.21.19.38.38.48-.03.18-.06.36-.06.54,0,1.13.52,2.17,1.47,2.98-.37.08-.81.16-1.29.23Zm11.44,0c-.58-.07-4.35-.64-4.82-3.59-.06-.41-.45-.68-.86-.62-.41.07-.69.45-.62.86.28,1.77,1.35,2.89,2.52,3.61-1.53-.05-3.09-.31-4.4-.99-.24-.11-.46-.24-.67-.39-.82-.56-1.27-1.31-1.27-2.09,0-.26.06-.51.18-.78.53-1.23,2.31-2.36,4.79-3.04,2.76.79,4.33,2.28,4.62,2.75-.12.34-.2.7-.2,1.07,0,1.17.56,2.25,1.58,3.07-.26.05-.54.1-.85.14Zm9.69.16c-.36-.01-3.36-.2-3.43-3.65-.01-.4-.34-.73-.75-.73h-.02c-.41.01-.74.35-.73.77.04,1.69.62,2.86,1.41,3.65-1.03-.1-2.08-.31-3.04-.72-.39-.17-.75-.36-1.09-.6-.82-.56-1.27-1.3-1.27-2.09,0-.29.06-.56.21-.84.57-1.2,2.34-2.31,4.76-2.98,2.78.79,4.35,2.29,4.64,2.75-.12.35-.2.7-.2,1.07,0,1.17.56,2.24,1.58,3.07-.59.11-1.3.22-2.07.3Zm11.97-.13s-.1-.02-.15-.01c-.15.02-3.68.48-4.72-3.61-.1-.4-.51-.64-.92-.54-.4.1-.64.51-.54.92.41,1.61,1.17,2.7,2.05,3.44-1.16-.09-2.32-.31-3.35-.76-.39-.16-.75-.36-1.08-.59-.82-.56-1.27-1.3-1.27-2.09,0-.29.07-.57.2-.84.57-1.2,2.34-2.31,4.76-2.98,2.65.75,4.19,2.15,4.58,2.68-.14.37-.24.75-.24,1.14,0,.78.32,1.92,1.72,3.06-.32.06-.67.12-1.04.18Zm10.28-1.15c-.36.25-.69.45-1.03.6-.02.01-.04.02-.07.03-.7.31-1.48.5-2.27.57l.07-4.01c.01-.41-.32-.75-.74-.76h-.01c-.41,0-.74.33-.75.74l-.07,4.02c-.74-.08-1.47-.27-2.13-.57-.39-.18-.74-.38-1.05-.6-.64-.48-1.41-1.23-1.41-2.11,0-.28.08-.56.22-.84.64-1.21,2.58-2.32,5.21-2.99,2.55.66,4.45,1.74,5.12,2.91.02.04.04.07.07.11.14.27.21.54.21.81,0,.89-.75,1.63-1.37,2.09Zm10.89,0c-.34.23-.7.43-1.1.59-1.19.52-2.54.73-3.83.78.97-.9,1.74-2.26,1.65-4.23-.02-.41-.39-.74-.79-.71-.41.02-.73.37-.71.78.14,3.06-2.43,3.91-2.98,4.06-.73-.08-1.4-.18-1.96-.29,1.11-.91,1.7-1.97,1.7-3.07,0-.39-.1-.78-.25-1.16.4-.54,1.94-1.91,4.56-2.66,2.43.67,4.2,1.78,4.77,3.01.14.26.2.52.2.81,0,.79-.45,1.53-1.26,2.09Zm10.89.01c-.31.21-.66.4-1.04.55-.04.02-.08.04-.12.07-1.18.49-2.51.7-3.82.75.94-.76,1.67-1.92,1.8-3.68.03-.41-.28-.77-.7-.8-.41-.02-.77.28-.8.7-.25,3.51-3.64,3.54-4.13,3.53-.33-.05-.62-.1-.9-.15,1.02-.83,1.58-1.9,1.58-3.07,0-.37-.08-.73-.2-1.06.28-.46,1.85-1.97,4.64-2.76,2.43.67,4.2,1.78,4.78,3,.13.27.19.54.19.82,0,.79-.45,1.53-1.28,2.1Zm10.96-.01c-.3.21-.63.38-1,.55-1.01.46-2.16.69-3.31.79.18-.14.36-.29.52-.46.91-.95,1.33-2.21,1.24-3.74-.03-.42-.39-.73-.79-.71-.42.02-.73.38-.71.79.06,1.12-.2,1.97-.82,2.62-1.21,1.28-3.38,1.29-3.42,1.29h-.01c-.08,0-.16.02-.23.05-.45-.07-.86-.14-1.23-.21,1.02-.82,1.58-1.89,1.58-3.06,0-.36-.08-.7-.19-1.04.25-.43,1.83-1.98,4.66-2.78,2.45.68,4.24,1.8,4.78,3.01.13.28.19.55.19.81,0,.78-.45,1.53-1.26,2.09Zm11.03,0c-1.22.83-2.76,1.21-4.3,1.34.18-.14.36-.29.52-.46.91-.95,1.32-2.21,1.23-3.74-.03-.42-.4-.73-.79-.71-.42.02-.73.38-.71.79.07,1.12-.2,1.98-.81,2.62-1.21,1.28-3.38,1.29-3.42,1.29h-.01c-.08,0-.15.02-.22.04-.48-.06-.92-.14-1.31-.21,1-.82,1.55-1.89,1.55-3.05,0-.3-.06-.61-.15-.91.02-.04.04-.07.05-.11.22-.41,1.81-1.99,4.67-2.8,3.02.83,4.96,2.32,4.96,3.82,0,.78-.45,1.53-1.26,2.09Z"/>
  <path d="m111.53,59.01c-.1-.63-.48-1.77-1.73-2.66-.22-.54-.58-1.14-1-1.64.38-.71.28-1.39-.05-1.81-.28-.35-.77-.58-1.35-.45-.25-.17-.55-.3-.84-.34-.13-.02-.28-.03-.43-.03.03-.28,0-.54-.09-.77-.22-.55-.76-.83-1.31-.67-.87.24-3.3,1.39-4.1,3.83-.29.86-.94,1.36-1.69,1.93-.44.33-.88.67-1.28,1.1-.78-.43-1.77-.94-2.99-1.56.04-.07.09-.13.13-.21.01-.01.02-.02.02-.03,2.82-3.46,5.91-7.83,7.14-9.61.55.62,1.38,1.49,2.2,2.16,1.08.88,2.85,1.51,3.95,1.05.51-.21.83-.64.88-1.17,0-.08-.01-.15-.01-.23.23.25.47.45.73.54.12.04.25.06.38.06.39,0,.77-.2,1.01-.55.2-.3.69-1.35-.55-3.1.33-.38.41-.77.41-1.04-.01-.18-.05-.35-.1-.5.22-.3.3-.6.33-.84.03-.32-.03-.8-.4-1.33.07-.29.11-.57.11-.87,0-2.24-1.79-4.07-4-4.07-1.13,0-2.16.49-2.91,1.32-.21.04-.41.07-.64.12-1.65.39-5.52,3.46-7.46,5.07-.13-2.13-.3-4.35-.46-6.52l-.02-.16c.54-.24,1.01-.57,1.47-.9.75-.53,1.41-1.01,2.2-.95,2.42.13,4.32-1.9,4.84-2.68.36-.5.26-1.17-.23-1.58-.14-.11-.3-.2-.49-.27.07-.16.12-.34.17-.52.06-.26.08-.63.02-.99.33-.52.37-1.13.04-1.62-.26-.39-.77-.67-1.42-.6-.27-.65-.67-1.27-1.09-1.71-.08-1.9-1.44-3.46-3.22-3.8v-3.22c0-.41-.34-.75-.75-.75s-.75.34-.75.75v3.22c-1.85.36-3.25,2-3.25,3.98,0,.5.09.97.26,1.42-.08.13-.17.25-.25.39-.86,1.4-1.48,3-1.78,4.62-.15.78-.32,1.66-.49,2.38-.07.32-.07.63-.02.93-1.01,2.74-1.95,9.3-2.38,12.65h-.2c.06-1.07.09-1.77.09-1.77h0v-.02c.01-.38,0-.76-.01-1.13,0-.01.01-.02.01-.03.08-.55.25-2.09.38-3.2l.13-1.1c.4-3.91.71-10.05.71-10.11,0-.03,0-.05,0-.07.14-5.58-2.43-11.08-5.72-12.45-.24-2.12-1.84-3.78-3.79-3.78-2.2,0-3.99,1.83-3.99,4.07,0,1.75,1.33,3.31,3.05,3.84-.12.31-.19.6-.2.86-.53.38-.91.92-.7,1.53.11.34.37.61.73.77.55.24,1.25.22,1.92-.06l1.29.83c.12.72.49,2.23,1.47,2.95.52.38.77,1.22.86,1.67-.19.5-.73,1.91-1.22,3.23-.37-.22-.75-.4-1.12-.5-1.17-.33-1.95-.33-2.48-.2l-5.27-18.32c-.11-.4-.52-.63-.92-.52-.4.11-.63.52-.52.92l6.03,21.1c-1.01.72-1.25,1.62-1.29,2.19-.53.37-.91.92-.7,1.55.11.33.37.6.73.75.54.24,1.26.22,1.93-.06l1.07.7c-1.86,5.07-2.71,6.42-2.98,6.76l-5.66-.87-.51-.15c.34-.01.68-.08,1-.23,1.64-.74,2.32-2.92,1.55-4.98-.29-.78-.78-1.44-1.37-1.9,1.25-3.76,3.36-11.98,1.95-12.99-.33-.24-.76-.21-1.09.05-.23.18-.52.48-.83.84,1.19-7.16.99-8.09.92-8.42-.11-.52-.44-.7-.63-.75-.3-.09-.62,0-.84.22-.44.41-.98,1.19-1.48,2,.11-4.72-.48-4.99-.85-5.16-.27-.12-.68-.13-1.03.21-.7.68-1.56,2.68-2.14,4.2-4.16-8.87-5.61-9.38-6.22-9.32-.61-.05-2.08.52-6.21,9.32-.58-1.52-1.44-3.52-2.14-4.2-.35-.34-.76-.33-1.03-.21-.37.17-.96.44-.85,5.15-.5-.81-1.04-1.58-1.47-1.98-.35-.33-.75-.3-1.01-.17-.54.29-.98.53.45,9.11-.31-.36-.59-.66-.82-.84-.35-.28-.82-.28-1.15,0-1.17.99-.32,8.49,2.28,13.61-.37.41-.67.91-.88,1.47-.77,2.05-.09,4.23,1.55,4.97.35.16.72.24,1.1.24s.76-.08,1.13-.24c.97-.4,1.76-1.27,2.18-2.4.47-1.23.41-2.58-.15-3.61-.32-.62-.81-1.09-1.4-1.35-.06-.03-.11-.04-.17-.06v-9.41c0-2.8,2.04-5.07,4.55-5.07h9.12c2,0,3.62,1.82,3.62,4.05v10.56c-1.26.92-1.73,2.85-1.05,4.67.34.93.94,1.67,1.67,2.12l-.57-.16-.15-.03s-.12-.01-.26-.04c-.33-.08-.83-.23-1.33-.52-.89-.52-1.41-1.33-1.57-2.37,1.42-1.37,2.24-3.25,2.24-5.24v-9.33c0-1.37-1.12-2.49-2.49-2.49h-10.22c-1.38,0-2.5,1.12-2.5,2.49v9.33c0,1.21.3,2.42.88,3.48.57,1.05,1.4,1.92,2.38,2.57-.08.88-.49,1.63-1.21,2.19l-3.52,1.01-5.72.77c-.29-.2-1.01-1.19-2.06-3.76.27-.74.45-1.47.51-2.19.05-.72.12-1.35.18-1.9.17-1.61.26-2.5-.28-3.06-.14-.15-.38-.32-.75-.38-.13-2.92-.52-4.38-1.28-4.98-.35-.28-.77-.37-1.22-.27-.05.01-.1.02-.14.04-.03.02-.52.24-1.08.74-.35-.96-.62-1.67-.74-1.98.09-.44.34-1.29.86-1.67.98-.72,1.35-2.23,1.47-2.95l1.29-.83c.64.28,1.37.3,1.91.06.37-.16.63-.43.74-.76.21-.62-.17-1.17-.7-1.54-.04-.63-.31-1.63-1.54-2.36-.06-.04-.14-.06-.21-.1l8.23-8.22c.29-.29.29-.77,0-1.06-.29-.29-.77-.29-1.06,0l-6.7,6.7c-.45-.37-1.34-.64-3.15-.13-3.54,1-6.39,6.8-6.23,12.68h0v.02c0,.06.3,6.2.71,10.11l.04.36c.06.58.13,1.22.22,1.88l.24,1.71c.36,2.59.58,4.11.79,5.02-.15-.03-.29-.08-.41-.17-.21-.16-.34-.45-.4-.87-.38-3.05-1.37-10.35-2.46-13.31.05-.31.05-.64-.03-.94-.15-.69-.32-1.53-.47-2.28l-.02-.1c-.29-1.62-.9-3.22-1.77-4.63-.18-.3-.37-.57-.54-.81-.3-1.98-1.96-3.45-3.95-3.45-1.57,0-3.02.97-3.65,2.43-.34.4-.68.97-.92,1.54-.64-.06-1.15.22-1.41.61-.33.49-.29,1.1.05,1.62-.07.37-.05.74.01,1,.05.18.1.35.17.51-.19.06-.35.15-.48.26-.5.41-.6,1.08-.25,1.59.02.03,2,2.79,4.85,2.68.81-.05,1.45.42,2.21.96.45.32.92.65,1.45.89l-.07.87c-.14,1.93-.29,3.91-.4,5.81-1.41-1.17-3.39-2.72-5.03-3.81-1.11-.72-1.88-1.12-2.43-1.26-1.23-.29-2.26-.28-3.15.01-.74-.72-1.71-1.15-2.75-1.15-2.21,0-4,1.83-4,4.07,0,1.6.95,3.04,2.36,3.69.06.19.16.39.34.59-1.25,1.75-.75,2.81-.55,3.11.24.34.62.54,1.01.54.12,0,.25-.02.38-.06.26-.09.5-.29.73-.54,0,.08,0,.15,0,.23.05.53.37.96.88,1.17,1.09.46,2.87-.17,3.96-1.05.81-.67,1.64-1.55,2.19-2.16,1.23,1.77,4.31,6.13,7.12,9.59.01.02.02.04.04.06.04.08.1.15.14.22-1.26.62-2.24,1.12-3.01,1.54-.39-.43-.84-.77-1.27-1.1-.75-.57-1.4-1.07-1.69-1.94-.82-2.44-3.25-3.59-4.1-3.82-.55-.16-1.08.11-1.31.66-.09.23-.12.5-.09.78-.16,0-.32.01-.45.03-.26.05-.56.17-.82.34-.42-.09-.79,0-1.07.19l-1.5-2.76c-.2-.36-.65-.5-1.02-.3-.36.2-.5.65-.3,1.02l2.34,4.3c-.45.57-.81,1.21-.96,1.73-.26.89.1,1.49.53,1.75.22.14.47.21.73.21.46,0,.95-.21,1.37-.6l1.07,1.97c-.77-.01-1.5.22-1.95.83-.24.35-.29.76-.15,1.15.18.46.71,1.14,3.17,1.71.78.18,1.58.27,2.39.27.76,0,1.52-.08,2.25-.24.63-.13,1.5-.31,2.2-.41.31-.06.6-.18.87-.37l10.53-2.4c.03.27.07.53.11.8-2.36.54-6.72,1.62-9.16,2.74-.28-.04-.57-.03-.86.06-.66.19-1.46.39-2.18.56-1.51.36-2.97,1.07-4.24,2.04-1.09.83-1.65,1.46-1.95,1.95l-4.68-5.94c-.25-.33-.73-.39-1.05-.13-.33.26-.39.73-.13,1.05l7.17,9.1c-.56,0-1.05.2-1.34.61-.29.42-.4,1.12.17,1.83.5.62,1.62,1.39,2.66,1.63.02.31.16.54.25.65.3.37.79.53,1.26.53.21,0,.41-.03.59-.08.12-.04.24-.09.35-.14.09.26.21.49.39.65.22.21.49.32.76.32.24,0,.48-.08.69-.26.7-.6,2.49-2.71,2.36-5.25-.05-.93.38-1.67.87-2.53.3-.53.6-1.07.81-1.69l6.73-.56c-.61,2.55-1.25,5.6-1.94,9.24-.56.07-1.1.24-1.61.4-.86.28-1.61.52-2.36.24-2.27-.86-4.64.5-5.36,1.09-.47.38-.55,1.03-.2,1.57.11.16.26.3.43.41-.11.15-.21.3-.31.47-.13.23-.24.58-.27.94-.44.39-.64.95-.48,1.49.14.47.56.89,1.22,1.03.11.81.35,1.63.65,2.11.19.34.41.53.61.64-.02.23-.04.46-.04.69,0,2.46,1.35,4.38,3.08,4.38s3-1.83,3.07-4.2c.16-.1.33-.23.51-.37-.18.36-.34.73-.47,1.1-.78,2.12-.1,4.54,1.6,5.77,2.45,1.75,6.69,2.4,10.67,2.4,3.47,0,6.74-.5,8.45-1.21,1.05-.42,2.33-.9,3.82-1.41,3.01,1.45,12.16,3.39,18.82,3.39,2.61,0,4.83-.3,6.15-1.04,1.82-1.03,2.73-3.36,2.16-5.55-.32-1.25-1.06-3.17-2.77-5.17-2.29-2.67-6.71-5.15-9.28-5.72-.46-.19-.8-.61-.95-1.18-.04-.17-.07-.38-.11-.59,4.37-.91,7.9-3.47,9.93-7.21.07.17.14.33.21.49l.46,1.03c1.4,3.16,2.98,6.73,4.02,8.15.31.57.65,1.26.97,1.9l.1.21c.71,1.49,1.69,2.8,2.91,3.92,1.51,1.34,2.35,1.67,2.88,1.67.16,0,.29-.03.4-.07.18-.06.33-.16.45-.29.09.01.18.03.27.03.96,0,1.86-.36,2.57-.98.1.03.2.04.3.04h.11c.26-.02.75-.16,1.11-.79.31-.52.56-1.34.67-2.14.65-.14,1.08-.56,1.22-1.03.16-.55-.04-1.1-.48-1.49-.03-.36-.15-.71-.28-.95-.09-.16-.19-.31-.29-.45.16-.11.3-.26.41-.41.36-.54.29-1.19-.18-1.58-.67-.55-3.1-1.95-5.37-1.09-.76.28-1.5.04-2.36-.24-.51-.16-1.05-.33-1.61-.4-.54-2.79-1.21-6.17-1.94-9.24l6.73.56c.2.62.51,1.16.81,1.68.49.86.91,1.61.86,2.54-.14,3.03,2.33,5.22,2.37,5.26.21.17.45.25.69.25.27,0,.55-.11.77-.33.17-.16.29-.39.37-.64.12.05.23.1.36.14.18.05.38.08.58.08.47,0,.96-.16,1.26-.52.09-.12.23-.35.26-.66,1.04-.24,2.16-1.01,2.67-1.64.56-.71.45-1.41.15-1.82-.1-.15-.23-.27-.38-.36.52-.69.84-1.54.84-2.48,0-.37-.07-.74-.2-1.12-.01,0-.01-.03-.02-.04-.08-.49-.41-1.01-1.03-1.62h-.01s0-.02-.02-.03l-.02-.02c-.08-.09-.17-.16-.21-.2,0-.01-.02-.02-.02-.02h-.01c-.38-.38-.73-.65-.89-.75h0c-1.27-.97-2.73-1.68-4.25-2.04-.71-.17-1.51-.37-2.16-.56-.3-.09-.6-.11-.9-.07-2.4-1.1-6.67-2.16-9.24-2.74.04-.26.07-.53.11-.82l10.63,2.43c.26.18.56.31.9.37.68.1,1.55.28,2.18.41.73.16,1.49.24,2.25.24.81,0,1.61-.09,2.39-.27.39-.08.71-.18,1.01-.27l.39.12c.41.13.82.19,1.23.19.96,0,1.87-.34,2.55-.98,1-.95,1.45-2.33,1.21-3.7Zm-1.95-12.92c.08.14.15.28.19.4-.07-.12-.15-.24-.23-.37.01-.01.02-.02.04-.03Zm-4.63-7.41s.01-.01.01-.01c.46-.62,1.17-.97,1.94-.97,1.38,0,2.5,1.15,2.5,2.57,0,.27-.04.54-.13.79-.16-.23-.34-.44-.53-.64-.1-.1-.19-.2-.29-.29-.04-.04-.09-.09-.13-.13-.15-.13-.3-.26-.45-.37-.28-.22-.55-.39-.77-.49-.68-.34-1.45-.16-1.85.44-.4.57-.41,1.51.33,2.18.45.42.71.76.85,1.02-1.13-.21-2.02-1.26-2.02-2.51,0-.58.19-1.14.54-1.59Zm3.48,4.06h0c-.12.1-.24.21-.36.32-.05-.57-.39-1.4-1.47-2.4-.07-.06-.1-.11-.11-.15.62.33,1.78,1.39,1.93,2.2,0,.01.01.02.01.03Zm-12.45,1.84c2.15-1.84,5.4-4.34,7.04-5.2-.06.29-.11.59-.11.89,0,1.6.92,2.97,2.24,3.63.01.03,0,.06.02.09.39.98,1.07,1.57,1.85,1.64h.13c.61,0,1.17-.34,1.55-.96.22-.35.46-.59.67-.74-.04.04-.08.08-.1.13-.01,0-.1.15-.25.36,0,.01,0,.02-.01.02-.19.26-.48.63-.88.95-.58.48-1.11.69-1.67.64-.23-.18-.72-.63-1-1.23-.18-.37-.62-.54-1-.36-.37.18-.54.62-.36,1,.55,1.17,1.58,1.89,1.62,1.92.08.05.16.08.24.1.07.02.18.04.31.06.65.11,1.04.31,1.18.43-.37.07-1.46-.14-2.34-.86-1.26-1.03-2.62-2.69-2.63-2.7h0c-1.15-1.42-.35-2.41-.26-2.51.28-.3.27-.77-.04-1.06-.3-.28-.77-.27-1.06.04-.58.62-1.27,2.2-.13,3.99-.73,1.07-2.84,4.09-5.13,7.11.23-1.85.27-4.14.12-7.38Zm-79.4-4.06s-.04.07-.09.12h-.01s-.01.02-.01.02c-1.1,1.01-1.42,1.84-1.48,2.4-.11-.11-.23-.22-.35-.31.11-.76,1.2-1.83,1.94-2.23Zm-3.98,2.19s-.03.03-.05.06c-.75-.46-1.23-1.29-1.23-2.2,0-1.42,1.12-2.57,2.5-2.57.77,0,1.48.35,1.95.97.05.07.08.14.13.21-.74.39-2.36,1.67-2.7,3.14-.25.06-.45.2-.6.39Zm.7,3.78c.04-.12.11-.26.19-.4.02.01.03.02.04.03-.08.13-.16.25-.23.37Zm7.29-2.11h0s-1.37,1.68-2.62,2.71c-.89.72-1.97.93-2.35.86.14-.12.53-.32,1.18-.43.09-.01.19-.03.29-.05h.01c.09-.03.17-.06.25-.11.04-.03,1.07-.75,1.62-1.92.18-.38.01-.82-.36-1-.38-.18-.82-.01-1,.36-.28.6-.77,1.05-1,1.23h-.01c-.52.05-1.1-.16-1.66-.64-.4-.33-.7-.7-.89-.96-.01-.01-.01-.02-.01-.02-.14-.18-.21-.3-.22-.32-.03-.06-.07-.11-.12-.16.2.14.45.38.67.74.38.62.94.96,1.55.96h.13c.78-.07,1.46-.66,1.85-1.64.16-.38-.02-.82-.41-.97-.29-.12-.61-.04-.82.17-.05-.04-.11-.06-.17-.09.06-.22.28-.68,1.01-1.36h.01s0-.02,0-.02h.01c.41-.42.61-.96.53-1.5-.06-.37-.24-.69-.48-.91-.04-.11-.07-.23-.12-.34.54-.08,1.16-.05,1.89.13.18.04.61.21,1.54.78-.14.21-.17.48-.05.72.04.09,1.04,2.19-.26,3.78Zm1.49.48c.86-1.37.73-2.86.49-3.84,1.68,1.21,3.45,2.66,4.52,3.56-.15,3.24-.11,5.54.12,7.37-2.29-3.01-4.38-6.01-5.13-7.09Zm-7.27,12c-.08.07-.14.12-.2.15.06-.18.17-.4.31-.63l.13.23c-.08.08-.15.17-.24.25Zm1.38-1.28l-.23-.43c.11-.08.17-.12.17-.12.28.09.54.13.78.15.18.02.34.04.5.1.11.04.21.1.32.19.06.05.11.1.17.17.09.11.19.25.3.43.01.02.02.03.02.05,0-.01-.02-.02-.03-.03-.84-.81-1.55-.73-2-.51Zm8.67,6.05s-.01,0-.02.01c-.08.07-.2.13-.31.15-.73.1-1.61.29-2.26.43-1.32.27-2.71.26-4.01-.03-1.14-.26-1.67-.52-1.92-.67.38-.15,1.1-.05,1.65.19.69.32,1.48.15,1.9-.41.36-.48.48-1.32-.31-2.23-.41-.47-.98-1.21-1.46-1.86.03-.02.06-.03.09-.06.21-.21.25-.5.17-.75.13.26.4.41.67.41.11,0,.23-.03.34-.08.37-.19.52-.64.33-1.01-.87-1.73-1.8-1.95-2.68-2.03-.18-.02-.33-.03-.42-.06.04-.02.07-.03.11-.04.38-.06,1.03-.01,1.91.5,0,.01,0,.01,0,.02.02.01.03.03.04.04.39.32.58.69.75,1.06.12.28.4.44.68.44.1,0,.21-.02.31-.07.38-.17.54-.61.37-.99-.1-.23-.27-.59-.55-.95.32.36.6.79.77,1.29.43,1.31,1.37,2.03,2.2,2.66.53.41,1.04.79,1.38,1.29h0c.39.56.56,1.23.56,1.78,0,.43-.1.79-.3.97Zm-.9,13.49h0c-.17.26-.79,1.09-1.61,1.34.08-.08.2-.16.34-.23.68-.4,1.31-.88,1.59-2.23-.03.33-.1.69-.32,1.12Zm3.76-6.99h0c-.14.63-.47,1.21-.82,1.81-.53.93-1.13,1.99-1.06,3.36.02.3-.02.6-.07.89,0-.13.02-.25.03-.38.02-.41-.3-.76-.72-.78-.32-.03-.6.18-.72.47.01-.09.03-.16.04-.25.03-.41-.27-.78-.68-.82-.41-.03-.78.27-.82.68-.12,1.33-.49,1.55-.96,1.82-.21.12-.43.26-.63.45-.35.08-1.6-.52-2.11-1.15-.01,0-.01-.01-.02-.02.08-.02.18.01.31.06.23.08.42.16.58.23.35.16.86.39,1.36.13.02,0,.03,0,.04,0h.01c.25-.11.46-.33.55-.64l.08-.32v-.02c.21-.82.64-2.48.96-3.43.39-1.15-.03-1.88-.55-2.18-.61-.35-1.4-.18-1.91.41-.42.47-1.01.84-1.39.9.18-.26.6-.73,1.54-1.45,1.09-.84,2.37-1.46,3.67-1.77.73-.17,1.56-.39,2.24-.58.14-.04.24-.03.3-.01.04.01.08.02.13.03.5.28.88,1.45.62,2.57Zm-8.14,2.66c.78-.17,1.56-.71,2.14-1.34,0,.07-.03.16-.07.28-.25.73-.55,1.84-.78,2.71l-1.29-1.65Zm79.55,4.36l-.05-.08c-.2-.39-.26-.74-.29-1.06.27,1.34.91,1.82,1.59,2.22.14.08.26.15.34.23-.82-.25-1.44-1.08-1.59-1.31Zm4.75-.92c-.52.64-1.8,1.23-2.11,1.17-.21-.21-.44-.35-.64-.47-.41-.24-.74-.43-.9-1.34.39.86.96,1.27,1.63,1.27.43-.01.82-.19,1.2-.37.17-.07.34-.16.53-.22.13-.05.24-.05.3-.06,0,.01-.01.01-.01.02Zm.25-3.4c-.13,1.03-.84,1.87-1.8,2.13-.21-.84-.59-2.3-.91-3.23-.04-.12-.06-.21-.07-.28.73.8,1.8,1.45,2.78,1.38Zm-8.1-5.29s.04-.01.05-.01c.09-.03.2-.03.32.01.68.19,1.51.41,2.23.58,1.31.31,2.59.93,3.68,1.77h.01s.02.01.03.02c.29.23.55.45.77.64h0s.01.01.01.02c.05.04.1.08.17.15.18.2.33.39.45.59-.38-.1-.9-.43-1.29-.87-.52-.59-1.31-.76-1.92-.41-.51.3-.93,1.03-.54,2.19.21.6.46,1.51.68,2.34-.03,0-.06,0-.09.02-.24.1-.38.33-.42.57v-.04c-.04-.41-.42-.72-.82-.68-.41.04-.71.4-.68.82.01.09.03.17.04.25-.12-.29-.4-.5-.72-.47-.42.02-.74.37-.72.78,0,.15.02.29.03.45-.06-.31-.1-.63-.08-.96.08-1.37-.53-2.43-1.06-3.36-.34-.61-.67-1.18-.81-1.8h0c-.06-.26-.08-.52-.08-.76,0-.89.34-1.68.76-1.84Zm.92-43.71c1.15,0,2.11.81,2.4,1.91-.1.04-.2.09-.29.16-.56.42-.75,1.29-.48,2.21.02.05.04.1.06.15-.59.56-1.44.79-2.2.64.41-.79.66-1.76.24-2.59-.2-.38-.53-.62-.92-.65-.42-.03-.84.15-1.3.58.08-1.34,1.16-2.41,2.49-2.41Zm-4.8,11.71c.17-.74.36-1.64.51-2.44.27-1.44.81-2.87,1.58-4.12.21-.34.42-.64.6-.89.22-.31.4-.51.54-.65-.07.48-.42,1.14-.83,1.58-.55.62-.65,1.51-.22,2.11.33.46,1.03.8,2.04.38.52-.23,1.29-.5,1.99-.73.01.05.02.1.04.15.14.25.39.39.66.39.12,0,.24-.03.36-.09.73-.4,1.1-.93,1.13-1.58.01-.02.01-.05.01-.07s.01-.04.01-.07c-.01-.43-.17-.84-.33-1.24-.08-.19-.16-.39-.22-.59-.04-.13-.05-.24-.06-.32.31.37.68,1.04.86,1.68.12.39.11.6.1.63-.19.24-.32.5-.43.73-.26.55-.44.92-1.57,1.06-.41.05-.7.42-.65.83.05.41.43.71.83.65,1.32-.16,1.96-.67,2.34-1.18-.28.41-.59.72-.77.87,0,0-.01,0-.01.01-.44.28-.8.32-1.13.33-.41.02-.73.37-.71.79.02.4.35.71.75.71h.04c.43-.02.93-.1,1.5-.38-.57.36-1.23.63-1.95.59-1.31-.07-2.29.62-3.15,1.23-.54.38-1.05.74-1.59.89h-.01c-.21.06-.44.09-.67.09-.29,0-.57-.05-.82-.14-.23-.09-.63-.3-.77-.69,0-.02.01-.03,0-.04-.04-.14-.04-.31,0-.48Zm-3.22,14.76c.4.02.72-.27.76-.66.26-2.08,1.1-8.42,2.02-11.84.21.14.43.26.68.35.48.18,1.01.26,1.55.24.2,2.65.41,5.38.53,7.9.16,3.36.13,5.77-.12,7.59-.14,1.24-.4,2.26-.77,2.98-.01.03-.03.05-.04.07t-.01.02h0c-.05.12-.12.22-.19.32-.58-.3-1.18-.6-1.79-.92-1.23-.63-2.5-1.28-3.82-1.9.11-1.44.21-2.91.28-4.18l.93.03Zm-8.14-29.18c.08.02.16.05.24.07-.25.08-.5.18-.75.33-.1.06-.19.14-.28.21-1.27-.11-2.61-1.15-2.61-2.54s1.12-2.57,2.49-2.57c1.07,0,1.87.86,2.19,1.87-1.91-.25-2.36.63-2.45.96-.2.7.3,1.42,1.17,1.67Zm2.63,5.32c-.03-.22-.15-.43-.34-.55l-1.2-.78c.26.11.54.25.85.45.13.08.27.12.41.12.24,0,.48-.12.63-.34.12-.19.15-.41.09-.61.27.09.56.02.76-.18.3-.3.29-.77,0-1.06-.03-.03-.3-.28-.71-.55.13-.02.25-.07.36-.16.23-.18.33-.49.25-.78-.22-.81-.95-1.44-2.27-1.97.15.04.33.08.52.13,2.51.71,5.21,5.53,5.12,10.98-.09.09-.33.25-.82.32-.6.08-1.06-.12-1.31-.25-.12-.62-.48-1.83-1.43-2.52-.53-.38-.84-1.58-.91-2.25Zm-2.04,18.03c.22.39.5.76.86,1.03.51.37.76,1.18.85,1.64-.28.65-1.23,2.85-1.88,4.54-1.03-.45-1.98-.85-2.83-1.2.53-.43,1.37-1.75,3-6.01Zm-.64,8.64c-.53,2.12-.83,4.05-.88,5.78-.05-.01-.09-.03-.13-.04-.22-1.76-.58-3.43-1.07-4.86t-.01-.02v-.02c-.29-.81-.61-1.52-.97-2.14.92.37,1.95.81,3.06,1.3Zm-28.74-10.26h0c.35.65.38,1.57.07,2.39-.27.72-.78,1.3-1.35,1.54-.26.11-.64.19-1.04.02-.89-.41-1.24-1.82-.77-3.08.2-.52.5-.95.86-1.25,0-.01.02-.02.03-.02.32-.25.66-.39,1.01-.39.04,0,.09,0,.13,0,.11,0,.23.04.36.1.29.12.53.36.7.68Zm13.42-18.09h-9.12c-3.34,0-6.05,2.95-6.05,6.57v9.3c-.21.04-.42.11-.63.2-1.96-3.97-2.56-8.71-2.54-10.76.38.44.89,1.11,1.58,2.1l.07.09s.01.01.01.01c.13.2.35.33.61.33.37,0,.67-.28.73-.64h0s.02-.07.02-.11c0-.06-.01-.12-.03-.18v-.03l-.04-.24c-.85-4.78-1.2-7.41-1.34-8.85.65,1.02,1.34,2.27,1.65,2.87.16.31.52.47.86.37.34-.09.57-.41.55-.77-.13-2.02-.18-4.33-.1-5.75.57,1.17,1.25,2.92,1.69,4.19.1.29.37.49.67.51.33.04.6-.16.72-.44,2.01-4.41,4.67-9.41,5.62-10.07.94.65,3.6,5.65,5.61,10.07.13.28.39.48.72.44.3-.02.57-.22.67-.51.44-1.27,1.12-3.02,1.69-4.19.08,1.42.03,3.73-.1,5.75-.02.36.21.68.55.77.34.1.7-.06.86-.37.32-.6,1-1.84,1.65-2.87-.14,1.45-.49,4.08-1.34,8.88l-.04.2v.04c-.02.06-.03.12-.03.18,0,.04.02.07.02.1h0c.06.37.36.65.73.65.26,0,.48-.13.61-.33,0,0,.01,0,.01-.01l.07-.09c.62-.9,1.1-1.52,1.46-1.96-.15,1.95-.87,5.99-2.28,10.19-.23-.04-.45-.07-.67-.06v-10.03c0-3.06-2.3-5.55-5.12-5.55Zm3.97,20.26c-.47-1.27-.12-2.68.76-3.08,0,0,.1-.04.11-.05,0,0,.01,0,.02-.01.41-.13.8,0,1.06.14.51.26.96.8,1.21,1.46.47,1.27.12,2.68-.77,3.09-.31.14-.64.14-1,0-.59-.23-1.11-.81-1.39-1.55Zm-3.26,2.88c-.49,2.23-2.6,3.19-4.51,3.33-2.21.17-4.69-.75-5.51-2.77.7-.65,1.17-1.46,1.38-2.36.83.33,1.71.5,2.63.5h.6c1.33,0,2.62-.37,3.74-1.04.3.95.86,1.74,1.67,2.34Zm-11.12-5.84c-.46-.84-.7-1.79-.7-2.76v-9.33c0-.55.45-.99,1-.99h10.22c.55,0,.99.44.99.99v9.33c0,1.7-.75,3.31-2.05,4.42-1.04.89-2.38,1.38-3.75,1.38h-.6c-1.02,0-1.99-.26-2.87-.76-.95-.54-1.72-1.33-2.24-2.28Zm-8.67,11.61c.71-1.49,1.63-2.49,2.72-2.91.03,0,.06-.02.09-.03.14-.06.32-.11.58-.16l5.01-1.44c1.15,2.73,4.32,3.79,6.98,3.6,2.92-.21,5.08-1.78,5.79-4.09.32.12.61.2.84.25.17.04.31.06.39.07l5.43,1.55.13.05c1.17.43,2.18,1.77,2.93,3.89h0s.01.02.01.02c.5,1.47.87,3.22,1.05,5.07h.01v.02c.02.17.05.38.09.62.32,2.03,1.07,6.77-.22,9.37-.37.78-.89,1.27-1.65,1.52-.1.04-.2.1-.31.15-.34.09-.74.14-1.2.15-1.4.06-3.36-.25-5.65-.86-.01,0-.01,0-.01,0-1.38-.37-2.78-.84-4.02-1.33.31-.28.56-.62.72-1.01.27-.65.25-1.34-.03-2,1.15-.15,3.04-.33,4.89-.16.87.07,1.66.22,2.35.44.78.26,1.42.61,1.88,1.06.14.14.33.21.52.21.2,0,.39-.08.54-.23.29-.3.28-.77-.02-1.06-.53-.52-1.22-.93-2.02-1.24-.16-.82-.53-3.2-.09-6.37,0-.01.01-.02.01-.03v-.03h0c.13-.89.25-2.14.1-3.12-.06-.41-.44-.69-.86-.63-.4.06-.68.45-.62.86.1.62.06,1.57-.1,2.66v.02s-.01.02-.01.02v.05c-.17,1.14-.46,2.27-.81,3.28-.36,1.01-.78,1.91-1.22,2.58-2.14-.13-4.2.12-5.25.28-2.2-8.48-2.91-8.95-3.15-9.1-.36-.23-.77-.27-1.12-.1-.21.1-.37.26-.51.48-.09-.13-.19-.19-.29-.25-.27-.15-.6-.15-.87.02-.68.4-2.02,3.39-3.99,8.9-.86-.21-2.37-.44-3.99-.1-.17-.66-.42-1.7-.62-2.82-.05-.49-.13-1.02-.24-1.63,0,0,0-.01,0-.02-.06-.62-.09-1.09-.08-1.5v-2.89c0-.41-.34-.75-.75-.75s-.75.34-.75.75v2.88c-.01.46.02,1,.09,1.7,0,.01.01.02.01.03s0,.01.01.02v.06s.01.01.01.02c.06.51.13,1.03.22,1.52h0c.21,1.9.02,3-.12,3.51-.43.26-.86.56-1.25.94-.3.28-.31.76-.02,1.06.14.15.34.23.54.23s.37-.07.52-.21c.33-.32.69-.58,1.07-.8.09-.03.16-.07.23-.12.28-.15.55-.27.84-.36,1.34-.43,2.67-.31,3.53-.15-.31.69-.35,1.41-.07,2.09.17.42.45.78.8,1.07-1.25.61-2.63,1.28-3.93,1.76-2.27.86-3.8.99-4.69.4-.06-.04-.2-.16-.38-.46-.19-.29-.41-.77-.65-1.54-.01-.01-.02-.02-.02-.03-.2-.71-.38-1.49-.5-2.25-.39-2.37-.48-5.14-.25-7.62.22-2.36.71-4.33,1.41-5.82Zm27.74,19.19c-.72,1.79-3.03,3.41-4.1,4.01l-1.26.16c-.14.01-.28,0-.41-.04l.49-1.32.9-3.53c1.32.33,2.93.64,4.38.72Zm-10.04,4.72c-.6-.08-1.41-.26-2.49-.68-.3-.11-.59-.12-.86-.06-.26-.06-.54-.05-.82.06-1.08.42-1.9.6-2.48.68.39-.56.66-1.15.57-1.64-.06-.36-.29-.65-.62-.8-.91-.42-2.31.4-3.5,1.35-.38-.6-.71-1.25-.93-1.98-.32-1.02-.39-1.9-.41-2.34,1.3-.52,2.63-1.16,3.82-1.74.42-.21.83-.41,1.22-.59.01-.01.02-.02.03-.02.04-.02.09-.04.14-.06,1.18-.53,2.07-1.3,2.63-2.29.61,1.01,1.5,1.81,2.58,2.29.03.02.06.03.1.04,0,.01.03.03.05.04,1.4.67,3.3,1.36,5.18,1.91l-.88,3.47-.33.89c-2-1.41-2.68-1.1-2.94-.97-.34.15-.57.44-.63.8-.09.5.17,1.08.57,1.64Zm-21.61-3.75c.46-1.03.89-2.03,1.27-2.92.31-.08.6-.18.84-.28.37.94.8,1.6,1.29,1.96,1.08,1.15,1.8,2.2,2.38,3.04.36.53.67.98.98,1.34.09.12.19.22.32.34,0,0,0,0,.01,0h0s0,.02.02.02c1.32,1.02,2.92,1.07,3.76,1.01.05-.01.09-.03.14-.04.04,0,.08,0,.13.02.03.01.05.01.08.02h.03s.07-.02.11-.02c.05-.01.11-.02.16-.04.05-.02.1-.05.15-.08.02-.02.05-.03.08-.05.65-.58,1.42-1.11,1.95-1.41-.23.3-.52.65-.83.95-.17.17-.25.41-.21.65.04.24.19.45.41.55.23.12,1.49.59,4.34-.39,0,.02.02.04.02.06-.49.67-1.73,1.41-3.96,1.74-.76.11-1.58.17-2.45.17-.07,0-.13.01-.21,0-.02,0-.03.01-.05.01s-.04-.01-.05,0c-1.11.16-2.9-.36-4.69-1.34-2.24-1.23-4.36-3.11-6.02-5.32Zm4.71,6.29c-.51,1.13-1.38,1.95-2.42,2.25-2.72.76-6.11,2.15-8.27,3.72.02-.05.06-.1.08-.15l.14-.29c.31-.62.64-1.29.93-1.84.17-.29.25-.6.29-.92.88-1.23,2.15-3.7,3.85-7.51,1.55,1.91,3.42,3.55,5.4,4.74Zm2.9-4.5c-.18-.25-.38-.52-.59-.83-.32-.47-.68-.99-1.11-1.55.91-.03,1.85-.25,2.7-.52.04.45.12,1.06.3,1.74-.46.35-.89.74-1.3,1.16Zm1.81.35c.13.3.27.59.43.87-.34-.04-.72-.11-1.08-.26.21-.21.43-.42.65-.61Zm5.07,5.68c2.03-.42,3.17-1.16,3.81-1.8.44.41,1.12.83,2.14,1.19-.01.05-.04.1-.04.16-.14,2.5-.81,5.82-1.96,7.29-.39.27-.7.55-.94.78-.71-.02-1.33-.03-1.82-.03-.37-.99-1.2-3.56-1.2-7.17,0-.14,0-.28.01-.42Zm2.6-16.46c-.18,1.5-1,2.58-2.46,3.21h-.01s-.01.01-.01.01c-.39-.03-.91-.33-1.11-.82-.23-.57.12-1.11.45-1.46,0,0,0,0,.01,0,.07-.07.13-.16.17-.26,1-2.81,2.17-5.86,2.92-7.53.06.85.09,2.13.06,3.96-.02,1.42-.06,2.53-.06,2.62.01.1.03.19.04.28Zm1.46-.31s.04-1.12.06-2.54c.05-.51.1-1.04.14-1.56.09-1.04.21-2.46.39-3.3.59,1.49,1.63,5.06,2.46,8.32.01.01.02.02.02.03.02.05.04.09.06.13.03.04.05.09.08.13.01.01.02.03.03.04.33.35.68.89.45,1.46-.2.48-.71.79-1.11.82h-.01c-1.32-.58-2.26-1.83-2.53-3.34-.02-.09-.04-.19-.04-.19Zm11.22-.22c.09-.18.19-.35.28-.53.03.21.05.41.08.59-.12-.03-.24-.04-.36-.06Zm-26.68-12.62c-1,1.62-1.68,3.87-2.01,6.64-.07-1.63-.36-3.47-.85-5.47,1.04-.44,2-.83,2.86-1.17Zm-3.25-.3c-.05-.15-.09-.3-.13-.44l1.78-.24c-.52.22-1.08.44-1.65.68Zm1.6-2.18l-2.21.29c-.09-.25-.17-.48-.23-.65.31-.37.8-1,1.28-1.82.44.98.83,1.68,1.16,2.18Zm-4.57-12.52c.07-.61.26-1.15.56-1.63.42-.64.95-1,1.19-1.14.17.17.6,1,.71,4.73v.02c-.24.42-.44.92-.59,1.4-.1-.2-.27-.35-.5-.4-.69-.15-1.29-.06-1.79.12.16-1.03.34-2.3.42-3.1Zm1.05,4.44c.2.05.4,0,.56-.1,0,.02-.01.03-.01.04-1.21.38-2.89,1.56-3.09,4.25-.03.41.28.77.7.8h.05c.39,0,.72-.3.75-.7.19-2.6,2.11-2.95,2.32-2.98.2-.02.4-.05.52-.22.12-.16.18-.29.15-.49.13-.69.35-1.39.56-1.91-.02.35-.06.76-.11,1.14-.06.56-.12,1.21-.18,1.95-.05.66-.22,1.35-.51,2.05-.74,1.85-2.03,3.21-2.04,3.22-.21.22-.27.53-.15.81,0,.01.25.61.57,1.58.2.57.4,1.27.62,2.03.69,2.62,1.02,4.93.96,6.88h0c-.01.83-.09,1.58-.24,2.26-.09.4.16.8.57.89.05.01.11.02.16.02.34,0,.65-.24.73-.59.03-.12.04-.27.07-.4-.02,1.82.11,3.68.39,5.34.1.63.24,1.24.39,1.85-.27.11-.65.24-1.07.32-.31.06-.6.09-.88.09-.3,0-.59-.04-.86-.1-.18-.05-.35-.11-.52-.19-.33-.15-.64-.36-.92-.64-.07-.06-.14-.14-.21-.22s-.13-.16-.19-.24c-.13-.17-.25-.35-.36-.55-.16-.3-.32-.63-.45-1-.07-.17-.12-.35-.18-.54l-.07-.23c-.2-.64-.36-1.35-.5-2.17-.15-.73-.24-1.53-.32-2.23-.26-2.49-.27-4.89-.23-6.48.02-1.19.08-2.4.17-3.71.11-1.49.21-2.44.22-2.44,0-.08,0-.15,0-.23-.55-2.96.59-5.98.82-6.56.2-.2.88-.8,1.82-.6Zm-.05-21.32c.19-.05.36-.09.52-.13-1.32.53-2.05,1.16-2.27,1.97-.08.29.02.6.25.79.11.08.23.13.36.15-.42.27-.69.52-.72.54-.29.29-.29.77-.01,1.06.21.21.51.27.78.19-.06.2-.03.42.09.61.15.22.39.34.63.34.14,0,.28-.04.41-.12.31-.21.59-.34.86-.45l-1.21.78c-.19.12-.31.33-.34.55-.07.67-.38,1.87-.91,2.25-.95.7-1.31,1.91-1.43,2.52-.26.14-.73.33-1.31.25-.5-.07-.73-.23-.83-.32-.07-5.44,2.62-10.27,5.13-10.98Zm-8.95,17.63c.89,3.27,1.69,9.2,2.03,11.85.1.83.43,1.46.97,1.88.42.33.96.5,1.6.53-.05.84-.08,1.67-.1,2.47-2.17.95-4.25,1.91-6.09,2.79-.08-.11-.15-.23-.22-.36-.01-.02-.02-.04-.03-.06-.38-.71-.64-1.73-.8-3.02-.24-1.81-.27-4.22-.11-7.58.11-2.32.3-4.84.48-7.28l.05-.63c.06,0,.13.01.2.01.64,0,1.26-.15,1.79-.44.08-.05.15-.11.23-.16Zm-5.73-12.35c.46,0,.89.13,1.27.36-.21.11-.38.28-.5.51-.67,1.33.37,3.01,1.02,3.72.05.06.06.09.06.09,0,0,.01,0,.01.02v.04s-.04,0-.06-.01h-.02s-.06-.03-.1-.04c-.88-.38-2.31-.84-3.15-1.11.02-.05.03-.1.06-.15.09-.25.19-.5.27-.76.26-.87.09-1.66-.4-2.11.44-.35.97-.56,1.54-.56Zm1.44,10.47c-.82-.58-1.75-1.23-2.97-1.23h-.18c-.73.04-1.41-.24-1.98-.61.58.3,1.1.38,1.55.4h.03c.4,0,.73-.31.75-.72.02-.41-.3-.76-.72-.78-.34-.01-.69-.05-1.13-.33,0-.01-.01-.01-.02-.01-.12-.1-.52-.47-.84-.99.36.56,1,1.13,2.42,1.3.03,0,.06,0,.09,0,.37,0,.7-.28.74-.66.05-.41-.24-.78-.65-.83-1.14-.14-1.31-.51-1.58-1.07-.1-.22-.23-.47-.41-.71-.02-.05-.04-.26.08-.66.16-.57.52-1.25.86-1.65-.01.09-.02.19-.06.31-.06.22-.15.43-.23.63-.15.38-.31.78-.32,1.2-.02.72.37,1.29,1.15,1.72.12.06.24.09.36.09.27,0,.52-.14.66-.39.03-.05.03-.1.04-.15.72.24,1.51.52,2.08.76.03.01.13.04.21.06,0,.01.01.01.01.01h.02s.07.02.09.02c.03.01.05.01.08.01.13.02.26.06.38.06.4,0,.76-.14,1.03-.41.34-.35.47-.88.35-1.4v-.03s-.01-.02-.01-.03c-.01-.02-.01-.04-.01-.05-.01-.02-.02-.03-.03-.05-.07-.26-.19-.5-.39-.72-.4-.44-.75-1.08-.82-1.57.14.15.32.36.55.67l.08.11c.16.22.34.47.51.76.77,1.26,1.31,2.68,1.57,4.13l.03.12c.15.76.32,1.6.48,2.33.05.16.05.32.01.46-.01.02-.01.04-.02.06-.09.28-.33.45-.51.56-.49.27-1.15.33-1.75.16-.54-.15-1.04-.51-1.58-.89Zm-.42,27.22c.09-.77-.06-1.63-.4-2.38.84-.45,1.95-1.01,3.4-1.71h0c.19,0,.37-.07.52-.21.02-.02.03-.05.05-.07,1.69-.82,3.6-1.7,5.59-2.59,0,1.36.04,3.05.19,4.82l-9.36,2.14Zm9.63-18.53l-.15-1.05c-.09-.63-.15-1.25-.21-1.81l-.03-.37c-.29-2.69-.52-6.48-.63-8.54.16.05.35.09.55.11.71.1,1.33-.04,1.79-.22.2.54.49,1.31.82,2.22-.31.59-.52,1.24-.6,1.94-.14,1.31-.56,4.04-.65,4.58-.14.35-.61,1.55-.89,3.14Zm-6.97,24.88c.01-.89-.21-1.79-.66-2.45,2.37-.92,5.87-1.78,7.92-2.25.1.47.2.91.32,1.33-.26.9-.51,1.84-.75,2.8l-6.83.57Zm8.15.31c.11-.46.23-.9.35-1.35,1.16,2.07,2.81,2.63,4.18,2.67-.34.79-.71,1.64-1.09,2.5t-.01.01c-.74,1.7-1.42,3.17-2.01,4.4-.6,1.23-1.11,2.22-1.55,2.98-.49-.59-1.22-1.02-2-1.23.76-4.02,1.46-7.3,2.13-9.98Zm-6.7,20.97c0,1.7-.83,2.88-1.58,2.88s-1.58-1.18-1.58-2.88c0-.32.04-.64.1-.95.28-.3.46-.74.51-1.26.19-.29.51-.67.97-.67s.9.41,1.2,1.07c.22.46.35,1.01.38,1.66v.15Zm.79-3.49c-.11.07-.21.15-.31.22-.09-.12-.18-.22-.28-.32.16-.01.31-.02.45-.03.05-.01.09-.01.12-.01h.15s-.06.1-.13.14Zm1.1,1.46c-.22.19-.41.35-.6.49-.03-.13-.08-.25-.13-.38.13-.1.26-.2.39-.27.69-.41,1.03-1.22.8-1.92-.18-.55-.76-1.11-1.84-1.01-.57.05-1.39.07-2.13.08.01-.05.02-.1.01-.15-.08-.41-.46-.68-.87-.61-1.13.2-1.49.84-1.6,1.33-.01.03,0,.07-.01.11,0,.02-.01.03-.01.05v.02c-.05.36-.02.73.02,1.09.03.21.05.43.06.63v.09c0,.06-.01.12-.01.17-.22-.47-.39-1.23-.41-1.85-.01-.4.06-.6.09-.66.23-.16.42-.36.58-.54.38-.44.63-.73,1.74-.51.41.08.8-.19.88-.6.07-.41-.19-.8-.6-.88-1.96-.37-2.68.46-3.16,1.01-.03.04-.06.07-.09.11.44-.74,1.21-1.14,1.6-1.31h.01c.45-.12.79-.08,1.16.02.07.02.13.03.2.03.33,0,.63-.22.72-.55.11-.4-.12-.81-.52-.92-.44-.13-1.05-.23-1.8-.06.68-.21,1.46-.29,2.2-.02,1.24.47,2.36.11,3.34-.21.61-.2,1.19-.39,1.75-.36h.01c1,.03,1.99.76,2,1.47h0v.02c0,.1-.02.26-.13.45-.31.58-.65,1.26-.96,1.9l-.15.3c-.38.8-.87,1.57-1.46,2.29-.36.43-.72.82-1.08,1.15Zm24,6.97h-.02c-1.64.56-3.05,1.08-4.19,1.55-3.47,1.43-13.62,1.86-17.67-1.03-1.16-.83-1.62-2.56-1.08-4.04.4-1.09,1.01-2.14,1.82-3.11.31-.38.66-.76,1.05-1.13,1.78-1.69,5.69-3.32,8.58-4.13,1.44-.41,2.63-1.49,3.33-2.98,1.57.75,3.06,1.18,4.26,1.18.18,0,.35,0,.52-.03h.21c.69,0,1.34-.04,1.96-.11v.2c0,2.41.35,4.4.72,5.83-.39-.4-.88-.8-1.51-1.15-1.83-1-3.94.27-4.7.81-6.41-1.09-7.54-.4-7.79.53-.17.63.24,1.19.86,1.66-2.23.34-3.78.89-4.69,1.68-.31.28-.35.75-.08,1.06.15.17.36.26.57.26.18,0,.35-.06.49-.18.66-.57,2.29-1.31,6.33-1.58,6.11-.43,13.95.48,14.03.48.3.03.59-.11.74-.37,0,0,.13-.22.39-.53.2-.23.55-.59,1.07-.93.26-.18.55-.34.87-.48,1.15-.48,2.7.74,3.2,1.25.16.16.37.24.6.23,3.78-.29,5.43-.17,6.13-.04-.09.06-.2.12-.33.19,0,.01-.01.01-.02.01-.82.45-2.13.93-3.31,1.23-2.76.68-8.13,2.24-12.34,3.67Zm-1-6.09c-2.8-.2-6.56-.35-9.93-.13-.89-.34-1.49-.68-1.82-.93.67-.09,2.3-.12,6.09.55.22.04.44-.02.61-.16.02-.02,2-1.59,3.31-.87.85.47,1.41,1.09,1.73,1.53h.01Zm15.78-5.05s.07.03.1.03c2.06.44,6.3,2.65,8.52,5.25,1.52,1.78,2.17,3.47,2.45,4.57.4,1.52-.22,3.18-1.44,3.87-3.7,2.08-16.62-.01-22.01-1.79,3.78-1.22,7.98-2.42,10.3-2.99,1.19-.3,2.46-.77,3.39-1.23,2.03.53,3.54,1.21,4.15,1.86.15.16.35.24.55.24.18,0,.37-.07.51-.2.3-.28.32-.76.04-1.06-.8-.86-2.29-1.51-3.72-1.96.19-.29.3-.62.19-.99-.23-.79-1.03-1.52-7.73-1.03-.59-.53-2.08-1.65-3.67-1.54.75-1.88,1.15-4.27,1.27-6.16.66.13,1.39.22,2.16.27.03,0,.06.02.09.02.32.01.62.02.93.02h.5c.48-.01.92-.05,1.36-.11.04.26.09.5.14.71.26,1.04.98,1.87,1.92,2.22Zm-1.57-4.51c-.6.11-1.22.17-1.87.19h-.14c-1.54,0-2.88-.15-3.98-.45-1.42-.4-2.06-.92-2.33-1.25,0-.01.01-.03.01-.04,2.89,1.01,4.15.53,4.38.41.22-.1.37-.31.41-.55.04-.24-.04-.48-.21-.65-.28-.28-.56-.6-.77-.88.4.22.95.58,1.6,1.1.04.02.07.05.11.08.52.41,1.2.6,1.85.51l1.39-.17c.09-.01.18-.04.26-.08.19-.1,4.31-2.34,5.11-5.43.35-.04.67-.09.97-.17.03-.01.06-.03.1-.05.03-.01.06-.01.08-.02.1-.05.19-.1.22-.12.9-.29,1.61-.87,2.15-1.69l.15.04c.2.47.42.99.65,1.52-1.78,4.15-5.46,6.96-10.14,7.7Zm10.21-10.59l-.21-.05c.68-2.02.61-4.63.39-6.74.14.21.38.34.63.34.06,0,.11-.01.17-.02.4-.09.65-.49.56-.9-.12-.53-.21-1.48-.24-2.15,0-.15-.01-.31-.01-.47,0-1.89.34-4.1,1-6.56.5-1.36,1.39-3.48,1.87-4.6.05.02.09.04.14.05.07.03.15.05.24.08.03,0,.05.01.07.02h.01s.01.01.02.01c.28.07.56.09.84.1.02,0,.04,0,.06,0,.16,0,.32,0,.46-.03.19-.02.38-.07.55-.12-.02.31-.04.66-.06,1.04-.09,1.52-.22,3.52-.37,5.38-.06.74-.13,1.47-.2,2.11-.03.28-.06.57-.09.88-.05.43-.1.87-.15,1.32l-.33,2.35c-.12.88-.22,1.65-.3,2.29-.23,1.77-.34,2.68-.34,2.68,0,.03,0,.07,0,.1l-.04.11c-.46,1.27-1.12,2.14-1.97,2.58-.74.39-1.66.46-2.71.19Zm13.41,20.24c-.23-1.12-1.29-2.03-1.94-2.42-.08-.05-.12-.11-.15-.12.04-.01.13-.03.29-.01.92.08,2.38.09,3.26.08,0,.05-.01.11-.02.17-.03.25-.06.51-.07.78,0,.35.04.68.14.97-.42.35-.95.54-1.51.55Zm-3.06-8.18c.98.32,2.1.68,3.34.21.76-.28,1.56-.18,2.25.03-.77-.19-1.39-.08-1.85.05-.4.11-.63.52-.52.92.09.33.39.55.72.55.07,0,.13-.01.2-.03.37-.1.71-.14,1.15-.02,0,0,.01-.01.02,0h.02c.33.15,1.12.55,1.57,1.29-.02-.03-.05-.06-.08-.09-.41-.47-1.03-1.18-2.51-1.08h-.07s-.02.01-.03.01c-.18.01-.37.02-.57.07-.41.08-.67.48-.58.88.07.36.38.6.73.6.05,0,.1-.01.15-.02.14-.03.26-.04.36-.04,0,0,.02-.01.03-.01s.02.01.03.01c.78-.07.99.17,1.33.57.17.18.35.38.57.54.03.05.1.25.09.64-.02.66-.2,1.37-.39,1.83-.01-.07-.03-.12-.03-.21.01-.22.03-.43.06-.64.05-.41.1-.84,0-1.26h0v-.03h0s0-.01,0-.01c-.11-.5-.49-1.11-1.59-1.31-.41-.07-.79.2-.87.61-.01.05,0,.1.01.15-.74-.01-1.56-.03-2.13-.08-1.11-.1-1.66.46-1.84,1.01-.23.7.11,1.51.8,1.92.51.3,1.03.84,1.19,1.3-.29-.16-.76-.47-1.52-1.13-1.05-.97-1.94-2.16-2.56-3.46l-.11-.23c-.32-.66-.68-1.37-.99-1.94-.09-.16-.13-.33-.13-.49.01-.71,1-1.44,2.01-1.47.57-.01,1.14.16,1.75.36Zm-2.66-1.72c-.85.22-1.63.71-2.11,1.4-.87-1.7-1.93-4.08-2.83-6.13l-.45-1.02c-.28-.64-.56-1.27-.81-1.89-.16-.36-.31-.71-.45-1.04.85.03,1.65-.15,2.37-.52.75-.39,1.38-.99,1.9-1.78.08.32.17.65.25.98.8,3.21,1.55,6.94,2.13,10Zm6.68-12.76c-.45.66-.67,1.56-.66,2.45l-6.83-.57c-.22-.86-.44-1.69-.65-2.46.03-.26.09-.83.2-1.67,2.22.51,5.63,1.36,7.94,2.25Zm-7.8-20.24s-.1.05-.1.05c-.04.02-.07.04-.15.07-.07.04-.24.1-.54.14-.27.04-.52.01-.75-.04-.09-.03-.17-.05-.25-.08-.12-.04-.21-.09-.29-.13-.12-.62-.48-1.82-1.43-2.52-.53-.38-.84-1.58-.91-2.24-.01-.02-.02-.04-.03-.07-.01-.07-.03-.14-.07-.21-.02-.03-.04-.06-.06-.09-.04-.05-.09-.1-.14-.14-.02-.01-.02-.03-.04-.04l-1.2-.79c.26.11.53.25.84.45.13.08.27.12.41.12.24,0,.48-.12.63-.34.12-.19.15-.41.09-.61.27.09.57.03.77-.18.3-.3.29-.77,0-1.06-.03-.03-.29-.28-.71-.55.13-.02.26-.07.36-.16.24-.19.33-.5.25-.79-.23-.8-.97-1.44-2.28-1.96.16.03.33.08.53.13.45.13.92.4,1.4.81,1.71,1.46,3.52,4.86,3.71,9.2.02.32.01.65.01.98-.02.02-.03.03-.05.05Zm-2.31-10.99c.4-1.07.86-2.29,1.16-3.08.46.18,1.08.32,1.8.22.2-.03.38-.07.54-.11-.11,1.92-.31,5.32-.57,7.95-.68-2.02-1.69-3.77-2.93-4.98Zm12.11,27.33l-9.44-2.15.23-1.63c.06-.47.11-.93.16-1.36.03-.3.06-.59.1-.87.03-.34.07-.7.1-1.07,1.12.54,2.21,1.09,3.27,1.64.68.35,1.33.68,1.98,1.01.02.03.04.06.06.09.15.15.34.23.54.23.01,0,.02-.01.03-.01,1.39.7,2.51,1.27,3.37,1.74-.34.75-.5,1.61-.4,2.38Zm10.47-6.1c.06.02.2.09.43.31.51.46.97,1.21,1.13,1.67-.06-.03-.12-.08-.2-.15-.15-.14-.28-.29-.41-.44-.26-.29-.53-.59-.88-.78-.02-.01-.03-.03-.06-.05-.45-.23-1.16-.33-2.03.5-.03.02-.05.05-.08.08.1-.16.18-.3.27-.41.03-.04.06-.08.09-.11.02-.03.05-.06.08-.09.06-.06.11-.11.17-.15.03-.02.05-.03.08-.05.05-.03.11-.06.16-.08.16-.06.33-.08.51-.1.22-.02.47-.06.74-.15Zm-3.11-.14c.08-.16.18-.32.32-.48.07-.08.15-.17.25-.25l.05-.05s.02-.01.02-.02c.88-.51,1.53-.55,1.91-.5.04.01.07.02.11.03-.11.04-.25.05-.42.07-.53.05-1.08.15-1.62.6-.05.04-.1.08-.15.13-.05.04-.09.09-.14.14-.04.04-.08.08-.11.13-.05.05-.1.11-.15.18-.06.08-.13.17-.19.27.03-.08.07-.17.12-.25Zm2.13,6.99h-.03c-.29.11-.65.21-1.08.31-1.3.29-2.69.3-4.01.03-.65-.14-1.54-.33-2.24-.43-.13-.02-.26-.08-.36-.16t-.01,0c-.44-.42-.41-1.75.28-2.73h0c.34-.51.85-.89,1.38-1.3.83-.63,1.77-1.35,2.2-2.65.18-.53.47-.97.8-1.34-.28.35-.46.71-.59,1-.16.39.01.83.39.99.1.04.2.06.3.06.12,0,.24-.03.34-.09.04-.01.08-.04.11-.07.05-.03.08-.07.12-.11-.06.11-.12.22-.18.34-.19.37-.04.82.33,1.01.11.05.23.08.34.08.27,0,.54-.15.67-.41.01-.02.02-.03.03-.05-.11.26-.06.58.15.8.03.03.06.04.09.06-.48.65-1.05,1.39-1.46,1.87-.79.89-.68,1.73-.31,2.22.42.56,1.21.74,1.89.42.56-.25,1.29-.36,1.67-.21-.15.1-.4.22-.82.37Zm3.37-.26c-.3.29-.69.46-1.11.53.05-.09.11-.18.15-.28.12-.36.06-.75-.19-1.1-.79-1.06-2.46-.96-3.68-.42-.02.01-.03.01-.04.01.02-.06.08-.17.19-.29.63-.72,1.53-1.93,2.08-2.69.01.01.02.02.03.03.16.18.33.37.52.55.44.41.94.63,1.41.63.26,0,.51-.07.73-.21.07-.04.15-.1.22-.17.3.4.41.79.45,1.05.16.88-.13,1.76-.76,2.36Z"/>
</svg>