<svg id="Symbols" xmlns="http://www.w3.org/2000/svg" viewBox="0 0 150 150"><defs><style>.cls-1{fill:#231f20;}</style></defs><title>dadhi-bold</title><path id="dadhi_bold" class="cls-1" d="M122.15,80.76H111.24a11.46,11.46,0,0,0,1.24-2L108.89,77c-.81,1.65-2,2.68-3.17,2.74a1.44,1.44,0,0,1-1.36-.62c-.42-.66-.29-1.72.35-2.92.82-1.54,4.1-5.82,6.73-9.26,2-2.58,3.85-5,4.76-6.38,2.13-3.19,2.23-6.71.26-9-2.12-2.41-5.95-2.57-10.25-.44-1.12.55-2,.61-2.51.17a1.7,1.7,0,0,1-.28-1.84c.46-1.18,1.86-1.85,3.86-1.85v-4a8.8,8.8,0,0,0-5.78,1.89V40.08l-3.84,1.56a10.78,10.78,0,0,0-1-1.89,12.72,12.72,0,0,0-7.1-5,13.54,13.54,0,0,0-9-6.43A14.26,14.26,0,0,0,71,29.86a14.32,14.32,0,0,0-6.95-.6,15.3,15.3,0,0,0-10.38,6.29,11.58,11.58,0,0,0-2,5.8L48.5,40.08v5.46a8.8,8.8,0,0,0-5.78-1.89v4c2,0,3.4.67,3.86,1.85a1.7,1.7,0,0,1-.28,1.84c-.48.44-1.39.38-2.51-.17-4.3-2.13-8.13-2-10.25.44-2,2.25-1.87,5.77.26,9,.91,1.35,2.78,3.8,4.76,6.38,2.63,3.44,5.91,7.72,6.73,9.26.64,1.2.77,2.26.35,2.92a1.45,1.45,0,0,1-1.36.62c-1.17-.06-2.36-1.09-3.17-2.74l-3.59,1.77a11.46,11.46,0,0,0,1.24,2H27.85a3.35,3.35,0,0,0-3.35,3.35v1a3.33,3.33,0,0,0,2.59,3.25l1.15.7.1,1.77c0,.22,0,.45.08.67A24.07,24.07,0,0,0,38.6,108.24l.24.18a28.45,28.45,0,0,0,3.41,2.1l.44.24h3.73v2.14H38.68L33.87,116a2.93,2.93,0,0,0,.06,5.86h82.14a2.93,2.93,0,0,0,.06-5.86l-4.82-3.14h-7.73v-2.14h3.71l.43-.22a27,27,0,0,0,3.43-2.12l.23-.17h0a24.07,24.07,0,0,0,10.19-16.71c0-.22.06-.45.08-.67l.11-1.92.77-.47a3.34,3.34,0,0,0,3-3.32v-1A3.35,3.35,0,0,0,122.15,80.76ZM56.5,76.34l.12-.12.41.42H56.5Zm0-1.65V73.51l.12-.12.7.71-.7.71Zm0-18.15.12-.12.7.71-.71.71-.11-.12ZM79.62,54l.33.32-.71.71L79,54.76V54h.36Zm9.94-1.39.29.29-.71.71-.71-.71.08-.08Zm3.94,3.95v1.18l-.11.12-.71-.71.7-.71Zm0,18.15-.12.12-.7-.71.7-.71.12.12Zm-3-2.71-.7-.71.7-.71.71.71ZM92,72l.71.7-.71.71-.71-.71Zm-30.4-.71.7-.7.7.7-.7.7Zm0,1.41-.7.71-.71-.71.71-.7ZM70.64,54,71,54v.74l-.25.25-.7-.71.32-.32ZM87.73,69.15,87,68.44l.7-.71.72.71Zm1.41,0,.71.7-.71.71-.7-.7Zm-24.75-.71.71-.7.7.7-.7.71Zm0,1.41-.71.71-.7-.7.71-.71Zm21.22-7.07-.71.71-.71-.71.71-.7Zm0-1.41.7-.7.71.7-.71.71Zm-.71,4.95-.71-.71.71-.7.71.7Zm1.41,0L87,67l-.71.71-.7-.7ZM84.19,67l-.71.71-.7-.71.7-.71Zm1.42-2.83.7-.71.71.71-.7.71Zm-1.42,0-.71.71-.7-.71.7-.71Zm-1.41,1.41-.71.71-.71-.71.71-.7Zm-15.56,0,.71-.7.71.7-.71.71Zm0,1.42-.71.7-.7-.7.71-.71Zm.71-5,.71.71-.71.7-.71-.7Zm-1.41,0-.71-.71.7-.71.71.72Zm3.53.71.71-.71.24.24v.93l-.24.24Zm0,1.41-.71.7-.7-.7.7-.71Zm1-4.7v.92l-.24.24-.71-.7.71-.71Zm-1,1.87-.71.71-.7-.71.71-.71ZM67.22,64.2l-.7.71-.71-.71.71-.71Zm2.12,2.12.71.71-.7.71L68.63,67Zm.71-.71.71-.7.24.24v.94l-.24.23Zm9,.47v-.93l.24-.24.71.7-.71.71Zm1.65.24.71.71-.71.71L80,67Zm0-1.41L80,64.2l.7-.71.71.71Zm-1.41-1.42L79,63.25v-.93l.24-.24.71.7ZM71,56.67v.93l-.24.24-.71-.71.7-.71Zm-1,1.88-.7.7-.71-.71.7-.7ZM68.64,60l-.71.71L67.22,60l.71-.71Zm-2.13-.71-.7-.71.71-.71.7.71ZM65.8,60l-.7.7-.71-.7.71-.71Zm-1.41,1.41-.7.71L63,61.37l.71-.71Zm.71.71.71.71-.71.7-.71-.71Zm-.7,2.12-.71.71L63,64.2l.71-.71Zm.7.71.71.7-.71.71-.71-.7ZM64.39,67l-.7.7L63,67l.71-.71Zm2.12,2.12.71.71-.7.71-.71-.72Zm.71-.71.71-.71.71.72-.71.7Zm2.13.71.7.7-.71.71-.7-.7Zm.7-.7.71-.71L71,68v.92l-.24.25Zm9,.45V68l.24-.24.71.7-.71.71Zm1.65.25.71.71-.7.7L80,69.85Zm.71-.71.71-.7.71.7-.71.71Zm2.12.71.71.7-.71.71-.7-.7Zm.71-.71.71-.7.7.7-.71.71Zm2.12.71.71.71-.71.71-.71-.72ZM88.43,67l.71-.7.71.71-.7.71Zm-.7-.7L87,65.61l.71-.7.7.7Zm.71-2.12.7-.7.7.7-.7.7Zm-.71-.71L87,62.78l.7-.7.71.71Zm.7-2.12.71-.71.71.71-.71.71Zm-.71-.7L87,60l.71-.71.71.7Zm.72-2.13.7-.7.71.7-.71.71Zm-.71-.71L87,57.12l.71-.7.7.71Zm-.71.71-.71.71-.71-.71.71-.71ZM85.6,60l-.7.7L84.19,60l.7-.7Zm-1.41,1.41-.71.71-.7-.71.71-.71Zm-1.41,1.41-.71.71-.71-.71.71-.7Zm-2.13-.7-.7-.71.7-.71.71.71Zm-1.41-1.42L79,60.42V59.5l.25-.24L80,60Zm-9.19-4.95-.71.71-.71-.7.71-.71Zm-1.42,1.42-.7.7-.71-.7.71-.71Zm-2.11-.71-.71-.71.7-.7.71.71Zm-.71.71-.71.71-.71-.71.71-.71Zm-1.42,1.42-.7.7L63,58.54l.7-.7Zm-2.12-.71-.7-.71.7-.7.71.7Zm-.7.7-.71.71-.71-.71.71-.7Zm.7.71L63,60l-.71.7-.71-.7Zm-.7,2.12-.71.71-.71-.71.71-.71Zm.7.71.71.7-.71.71-.7-.7Zm-.71,2.12-.7.7-.71-.7.71-.71Zm.71.71.71.71-.71.7-.7-.71ZM61.57,67l-.71.71L60.15,67l.71-.71Zm.7.71.71.7-.71.71-.71-.7Zm-.71,2.12-.7.7-.71-.7.71-.71ZM63.68,72l.71.71-.7.7L63,72.68Zm.71-.71.71-.71.71.71L65.1,72Zm2.13.71.7.7-.71.71-.7-.7Zm.71-.71.7-.7.7.7-.7.71Zm2.11.71.71.7-.71.71-.71-.71Zm.71-.71.71-.71.24.25v.92l-.25.25Zm9,.46v-.92l.24-.25.71.71-.71.71Zm1.66.25.7.7-.71.71-.7-.7Zm.71-.71.7-.7.7.7-.7.7Zm2.11.71.71.71-.7.7-.71-.71Zm.71-.71.7-.71.72.71L84.9,72Zm2.12.71.71.7-.71.71-.7-.7Zm.71-.71.71-.7.7.7-.71.71Zm2.12.71.71.7-.71.71-.71-.71Zm2.12-2.13.71-.7.71.7-.71.71Zm-.71-.7-.7-.71.71-.7.7.7ZM91.27,67l.7-.7.7.7-.7.7Zm-.71-.71-.71-.71.7-.7.71.71Zm.7-2.12.71-.71.71.71-.71.71Zm-.71-.71-.7-.7.71-.71.7.7Zm.72-2.12.7-.7.7.7-.7.7Zm-.71-.71L89.85,60l.7-.7.71.71Zm.7-2.12.71-.7.71.7-.71.71Zm-.71-.7-.7-.71.7-.71.71.71Zm-1.41-1.42-.71-.71.71-.7.71.7ZM87.73,55,87,54.3l.71-.71.7.71Zm-.71.7-.71.71-.7-.71.7-.7Zm-1.41,1.41-.72.72-.7-.71.71-.71Zm-1.42,1.42-.7.71-.71-.71.7-.7ZM82.78,60l-.71.71L81.36,60l.71-.7Zm-2.12-.7-.7-.7.7-.71.7.7Zm-1.41-1.41L79,57.59v-.93l.24-.24.72.71ZM68.63,54.3l-.7.71-.71-.71.55-.54h.1l.25,0Zm-2.82,0L65.1,55l-.7-.71.7-.7ZM64.4,55.71l-.72.71-.7-.7.71-.71ZM62.27,55l-.71-.71.71-.71.71.71Zm-.71.71-.7.7-.71-.71.71-.7Zm-1.41,1.41-.7.71-.71-.71.71-.71Zm-1.41,1.41-.71.71-.71-.71.71-.7Zm.71.71.7.71-.71.7-.7-.7Zm-.72,2.12-.7.71-.7-.71.7-.7Zm.71.71.71.71-.7.7-.71-.71Zm-.7,2.12-.71.71-.71-.71.71-.71Zm.71.71.7.7-.71.71-.7-.7ZM58.73,67l-.7.7-.7-.7.7-.7Zm.71.71.71.71-.7.7-.71-.71Zm-.7,2.12-.71.7-.71-.71.71-.7Zm.71.7.7.71-.7.71-.71-.71Zm-.71,2.12-.71.71-.71-.7L58,72Zm.71.71.7.71-.71.7-.7-.7Zm1.41,1.41.71.72-.71.7-.71-.71Zm.7-.7.71-.71.71.71-.7.71Zm2.13.71.7.7-.7.71-.71-.7Zm.71-.71.7-.7.7.7-.7.7Zm2.11.71.71.7-.71.71-.7-.71Zm.71-.71.71-.71.7.71-.71.71Zm2.12.71.71.7-.71.71-.71-.71Zm.71-.71.7-.71.25.25v.92l-.24.25Zm9,.46v-.92l.24-.25.71.71-.71.7Zm1.65.24.72.72-.71.7L80,75.51Zm.71-.7.71-.71.71.71-.71.71Zm2.13.71.7.7-.71.71-.7-.7Zm.71-.71.7-.7.7.7-.7.7Zm2.11.71.71.7-.71.71-.7-.71ZM87,74.1l.7-.71.71.71-.7.71Zm2.12.71.71.7-.71.71-.71-.71Zm.71-.71.7-.71.71.71-.71.71Zm2.12.71.71.7-.71.71-.71-.71ZM93.39,72l-.71-.71.71-.71.11.12v1.18Zm.11-3-.11.12-.71-.71.7-.7.12.12Zm-.12-2.71-.7-.7.71-.71.11.11V66.2Zm.12-2.94-.11.11-.71-.71.7-.7.12.12Zm-.12-2.72-.7-.7.71-.71.11.12v1.17ZM92,56.42l-.71-.71L92,55l.71.7ZM90.55,55l-.7-.71.7-.71.71.71Zm-4.24-1.42L86,53.27l.36-.05.41-.07Zm-1.41,0,.7.7-.7.7-.7-.7Zm-.71,2.11-.71.71-.7-.7.71-.71Zm-1.42,1.42-.7.7-.7-.7.7-.7Zm-2.11-.7L80,55.71l.7-.7.72.71ZM64,53.27l-.32.32-.45-.45.47.08Zm-2.44-.39-.71.72-.71-.71.29-.29,1.06.22ZM60.15,54.3l-.7.71-.71-.71.7-.7Zm-1.41,1.41-.71.71-.71-.71L58,55Zm-2.13,3.54.71.71-.7.7-.12-.12V59.37Zm-.11,3,.12-.12.7.7-.71.71-.11-.11Zm.11,2.71.71.71-.7.7-.12-.12V65Zm-.11,2.94.12-.11.7.7-.71.71L56.5,69Zm.11,2.71.71.71-.7.71-.12-.12V70.68ZM58,74.81l.7.7-.7.71-.71-.71Zm1.41,1.41.42.42H59Zm2.84,0,.41.42h-.83Zm2.82,0,.42.42h-.84Zm2.82,0,.42.42h-.83Zm2.84,0,.24.24v.18h-.66Zm8.24.24.24-.24.42.42H79Zm3.07-.24.42.42h-.83Zm2.83,0,.42.42h-.84Zm2.83,0,.41.42h-.83Zm2.82,0,.42.42h-.83Zm2.83,0,.12.12v.3H93Zm.12-22.51v1.18l-.12.12-.7-.71.7-.71ZM92,53.59l-.71-.71.71-.7.71.7Zm-9.84.18h.11l.55.54-.72.72-.71-.72.52-.51ZM58,52.18l.7.71-.7.7-.71-.7Zm-.71,2.12-.7.71-.12-.12V53.71l.12-.12ZM93.5,52.06l-.11.12L93,51.76l.53-.15Zm-36.88.12-.12-.12v-.45c.18.06.36.1.54.15ZM108,54.75c3-1.5,4.85-1.21,5.47-.5s.66,2.24-.58,4.1c-.83,1.25-2.66,3.64-4.6,6.17-2.75,3.58-5.56,7.26-6.77,9.26V54.69C102.6,55.46,104.78,56.34,108,54.75ZM93.33,42a6.57,6.57,0,0,1,.6,1.1c-.68.23-1.38.46-2.1.67l-.45.13a5.26,5.26,0,0,0-.85-2.24A6.48,6.48,0,0,0,86.12,39l-.63,3.95a2.6,2.6,0,0,1,1.73,1,1.19,1.19,0,0,1,.2,1h0c-.47.1-.94.2-1.45.29l-.88.16-1.3.18-.11,0c-.56.09-1.13.16-1.67.22l-.66.06c-.29,0-.59.05-.88.08a4.38,4.38,0,0,1-.81-.86,3,3,0,0,1-.48-2.4c.67-2.9,4.33-4.87,8-4.28A9,9,0,0,1,93.33,42Zm-13.56-9.7A8.92,8.92,0,0,1,84,34.39a11.56,11.56,0,0,0-5.65,2.47,10.49,10.49,0,0,0-3-4.46A10.46,10.46,0,0,1,79.77,32.29ZM56.94,37.78a11.32,11.32,0,0,1,7.7-4.57c4.71-.76,9.25,1.7,10.12,5.47a4,4,0,0,1-.64,3.22,6.53,6.53,0,0,1-4.45,2.62c-2.6.42-5.19-.93-5.66-3a1.94,1.94,0,0,1,.31-1.5,3.49,3.49,0,0,1,2.36-1.37A2.43,2.43,0,0,1,69.49,40l3.89-.89c-.69-3-3.91-4.94-7.33-4.4a7.44,7.44,0,0,0-5,3.09,5.82,5.82,0,0,0-.88,4.62,6.72,6.72,0,0,0,.84,2l-1.31-.32c-.5-.14-1-.27-1.54-.44-.84-.25-1.66-.53-2.47-.82A7.5,7.5,0,0,1,56.94,37.78ZM41.73,64.52C39.79,62,38,59.6,37.13,58.35c-1.24-1.86-1.17-3.43-.58-4.1s2.43-1,5.47.5c3.21,1.59,5.38.71,6.48-.06V73.78C47.29,71.78,44.48,68.1,41.73,64.52ZM121,84.76l-1.66,1H30.43l-1.66-1Zm-15,14.51v.07c-.44,2.08-1.11,4.58-2,7.42H99.13c.67-2.74,1.15-5.09,1.47-7.11v-.08a24.16,24.16,0,0,1,2.85-6.81h3.1a20.17,20.17,0,0,1-.62,6.51Zm-59.88,7.49c-.83-2.76-1.49-5.23-2-7.33a20.76,20.76,0,0,1-.65-6.67h3.08a24.32,24.32,0,0,1,2.87,6.85v0c.32,2,.8,4.37,1.47,7.11Zm53.57-7.4v0l0,.11c-.32,2.06-.82,4.45-1.51,7.27H93.26c.5-2.69.87-5.1,1.07-7.18a23,23,0,0,1,2.45-6.82h3.1a19.43,19.43,0,0,1-.24,6.58h0Zm-49.24.06a19.94,19.94,0,0,1-.27-6.66h3.11a22.21,22.21,0,0,1,2.44,6.74v.06c.2,2.07.56,4.49,1.07,7.2H51.91c-.69-2.81-1.19-5.2-1.5-7.19Zm6.39-6.66H59.9A21.67,21.67,0,0,1,62,99.49v.1c.09,2,.33,4.44.69,7.17H57.77c-.52-2.75-.89-5.21-1.1-7.32A20,20,0,0,1,56.78,92.76Zm6.67,0h3.12a21.48,21.48,0,0,1,1.67,6.86h0c0,2,.07,4.43.27,7.14H63.65c-.37-2.76-.61-5.2-.7-7.28A20.1,20.1,0,0,1,63.45,92.76Zm9.78,0a21.27,21.27,0,0,1,1.27,6.82c-.13,2.08-.17,4.5-.12,7.18H69.51c-.2-2.72-.29-5.12-.27-7.16a20.8,20.8,0,0,1,.88-6.84Zm6.67,0a20.93,20.93,0,0,1,.88,6.76c0,2-.06,4.45-.28,7.24H75.38c0-2.68,0-5.09.12-7.16a21.31,21.31,0,0,1,1.28-6.84Zm6.67,0a19.78,19.78,0,0,1,.51,6.58l-.07.12.06.14c-.1,2.07-.34,4.51-.7,7.16H81.51c.21-2.79.3-5.17.27-7.24a21.68,21.68,0,0,1,1.67-6.76Zm6.65,0a19.67,19.67,0,0,1,.12,6.7c-.21,2.09-.58,4.55-1.1,7.3H87.38c.33-2.49.56-4.77.67-6.77V99.7a.92.92,0,0,0,0-.16,21.93,21.93,0,0,1,2.05-6.78Zm-30.75,18-1.89,1.44-1.88-1.44Zm5.23,0-1.88,1.44-1.89-1.44Zm5.24,0-1.89,1.44-1.89-1.44Zm5.24,0-1.89,1.44-1.89-1.44Zm5.24,0-1.89,1.44-1.89-1.44Zm5.24,0-1.89,1.44-1.89-1.44Zm5.24,0L92,112.2l-1.89-1.44Zm7-18h1.37a18.35,18.35,0,0,0-1.22,2.47A12.14,12.14,0,0,0,100.9,92.76Zm-6.38,2.51a12.28,12.28,0,0,0-.28-2.51h1.38A18,18,0,0,0,94.52,95.27ZM88,95.3a14.73,14.73,0,0,0-.42-2.54H89A16,16,0,0,0,88,95.3Zm-6.52,0A14,14,0,0,0,81,92.76h1.39A15.54,15.54,0,0,0,81.51,95.31Zm-6.51,0a13.93,13.93,0,0,0-.69-2.56H75.7A14.71,14.71,0,0,0,75,95.32Zm-6.49,0a14.7,14.7,0,0,0-.85-2.58h1.4A14,14,0,0,0,68.51,95.34ZM62,95.3a15.92,15.92,0,0,0-1-2.54h1.4A13,13,0,0,0,62,95.3Zm-6.52,0a17.07,17.07,0,0,0-1.09-2.49h1.37A12.8,12.8,0,0,0,55.48,95.25Zm-6.52,0a17,17,0,0,0-1.23-2.49h1.38A12.3,12.3,0,0,0,49,95.25Zm-6.52,0a19.29,19.29,0,0,0-1.34-2.45h1.37A12.16,12.16,0,0,0,42.44,95.21Zm14.8,15.55-1.89,1.44-1.88-1.44Zm-2.62,2.14H50.85l1.89-1.44ZM58,111.46l1.88,1.44H56.08Zm5.23,0,1.89,1.44H61.31Zm5.23,0,1.89,1.44H66.55Zm5.24,0,1.89,1.44H71.78Zm5.24,0,1.89,1.44H77Zm5.24,0L86,112.9H82.26Zm5.24,0,1.89,1.44H87.5Zm5.24,0,1.89,1.44H92.74Zm.73-.7h3.78l-1.89,1.44Zm12.19-18h1.36a20.23,20.23,0,0,0-1.34,2.43A11.36,11.36,0,0,0,107.55,92.76Zm8,0a21,21,0,0,0-1.47,2.43,11,11,0,0,0,.1-2.43Zm-79.76,0a11.4,11.4,0,0,0,.1,2.4,20.46,20.46,0,0,0-1.45-2.4Zm-3.15,0h.55a27.17,27.17,0,0,1,3.65,6.93v0c.19.69.41,1.44.64,2.2A19.42,19.42,0,0,1,32.66,92.76Zm8.69,12.54-.22-.16c-.74-.54-1.43-1.11-2.09-1.7-.47-1.44-.88-2.8-1.22-4a21,21,0,0,1-1-6.65h3.07a26,26,0,0,1,3.26,6.89c.44,2,1.07,4.44,1.88,7.11H43.69A26.6,26.6,0,0,1,41.35,105.3ZM52,110.76,50.42,112v-1.21Zm59.65,7.14H38.34l1.54-1h70.24ZM98,112.9l1.6-1.22v1.22Zm10.66-7.63,0,.06a25.19,25.19,0,0,1-2.29,1.43H105c.82-2.75,1.45-5.17,1.88-7.22a26,26,0,0,1,3.23-6.78h3.09a21,21,0,0,1-1,6.71c-.33,1.21-.74,2.54-1.2,4a22.56,22.56,0,0,1-2,1.67Zm3.86-3.36c.23-.75.44-1.48.63-2.18a27.85,27.85,0,0,1,3.69-7h.52A19.37,19.37,0,0,1,112.5,101.91Z"/></svg>