<svg id="Symbols" xmlns="http://www.w3.org/2000/svg" viewBox="0 0 150 150"><defs><style>.cls-1{fill:#231f20;}</style></defs><title>dakshinavarta-shankha-bold</title><g id="dakshinavarta-shankha_bold"><path class="cls-1" d="M95,60.82a15,15,0,0,0,.48-2.42,25.37,25.37,0,0,0,.12-4.29,59.59,59.59,0,0,1-5.78-1.53,29.84,29.84,0,0,1,.17,5.85,15.11,15.11,0,0,1-.59,3.22,6.67,6.67,0,0,1-.27.79c1.69,0,3.46,0,5.3,0A9.74,9.74,0,0,0,95,60.82Z"/><path class="cls-1" d="M99.43,62.39a12.55,12.55,0,0,0,.87-2,15.52,15.52,0,0,0,.53-2,23.21,23.21,0,0,0,.46-3.18c-1.67-.28-3.24-.58-4.71-.88a25.78,25.78,0,0,1-.13,4,15,15,0,0,1-.43,2.3,9.79,9.79,0,0,1-.54,1.69Z"/><path class="cls-1" d="M104.59,62.44A5.2,5.2,0,0,0,106,60.78a8.24,8.24,0,0,0,.87-2.3,16.61,16.61,0,0,0,.32-2.35c-1.72-.24-3.36-.49-4.91-.74a28.09,28.09,0,0,1-.43,3,16.21,16.21,0,0,1-.52,2,13.86,13.86,0,0,1-.79,2C101.88,62.4,103.21,62.42,104.59,62.44Z"/><path class="cls-1" d="M106.05,62.46l3.76.09a7.51,7.51,0,0,0,1.33-1.22,6.25,6.25,0,0,0,1.37-2.7,8,8,0,0,0,.19-1.75l-4.49-.6a13.91,13.91,0,0,1-.29,2.22,10,10,0,0,1-.81,2.39A6.67,6.67,0,0,1,106.05,62.46Z"/><path class="cls-1" d="M111.34,62.59l3.33.11a4.63,4.63,0,0,0,1.12-1,7.45,7.45,0,0,0,1.47-3,11,11,0,0,0,.31-1.32L113.69,57a8.5,8.5,0,0,1-.17,1.66,7.11,7.11,0,0,1-1.19,2.79A6.91,6.91,0,0,1,111.34,62.59Z"/><path class="cls-1" d="M118.56,57.6c-.07.42-.16.84-.26,1.24a9.76,9.76,0,0,1-1.32,3,5.42,5.42,0,0,1-.78.93c1.45.06,2.9.12,4.35.2a71.93,71.93,0,0,1-8.46,1.18c-7.69.79-17.27,1.77-24.24,6.48C77,78,71.52,78,63.26,78.08l-2.25,0h-.72c-5.92,0-10.54-1.26-14-3.79a14.5,14.5,0,0,0,2.86-3.59,52,52,0,0,0,11.33,3.91l.23-1a51.2,51.2,0,0,1-11.08-3.83,21.16,21.16,0,0,0,1.26-3A73,73,0,0,0,62.6,69.65l.14-1a73.89,73.89,0,0,1-11.56-2.74A31.12,31.12,0,0,0,52,62.5c3,.4,8.69,1.11,10.68,1.11v-1c-1.91,0-7.52-.71-10.53-1.1.11-.74.19-1.5.24-2.27h12v-1H52.44c0-.49,0-1,0-1.5,0-.81,0-1.61-.07-2.4,3.21-.22,9.43-.62,12-.6v-1c-2.64,0-8.86.38-12.07.61a31.39,31.39,0,0,0-.6-3.74c2.79-.59,7.93-1.55,10.93-1.38l.06-1c-3.16-.19-8.39.79-11.22,1.39a24.83,24.83,0,0,0-1-3.19c2.15-1,5.86-2.45,8.73-2.45V42c-3.07,0-6.9,1.51-9.13,2.52a17.84,17.84,0,0,0-1.45-2.63c2.18-1.27,6-3.27,8.26-3.52l-.11-1c-2.5.27-6.48,2.39-8.73,3.69a11.84,11.84,0,0,0-1.74-1.91,21.81,21.81,0,0,1,13.18-4.4A22,22,0,0,1,80.06,49c-.69,2.4.09,8.26-2.35,7-4.17-2.08-5.39,4.73-1.47,6.35,1.12.46,3.4.42,6.16.15l.79,0c1.5,0,3.11-.07,4.8-.09a5,5,0,0,0,.25-.64,13.71,13.71,0,0,0,.68-3.37,29,29,0,0,0-.22-6.24,26.72,26.72,0,0,1-4-1.78A26,26,0,0,0,41.6,37.85a25.54,25.54,0,0,0-6.09,8.75,5.07,5.07,0,0,0-2.8-.86c-3,0-5.45,2.68-6.48,6.68a2.17,2.17,0,0,0-1.52-.68c-1.65,0-3,2.23-3,5a7,7,0,0,0,.81,3.39,2,2,0,0,0,1.63-.49,2.39,2.39,0,0,0,.42-2.46c-.11-.2-.23-.32-.38-.34a.59.59,0,0,0-.5.23,1.35,1.35,0,0,0-.24,1.37l-.9.43a2.35,2.35,0,0,1,.41-2.5,1.59,1.59,0,0,1,1.39-.52,1.49,1.49,0,0,1,1.11.9,2.54,2.54,0,0,1,.27,1c0,.11,0,.22,0,.33a3.37,3.37,0,0,1-.88,2.31,2.88,2.88,0,0,1-1.6.78,2.15,2.15,0,0,0,1.44.62,2.17,2.17,0,0,0,1.52-.68c1,4,3.48,6.68,6.48,6.68a5.14,5.14,0,0,0,2.8-.85,25.67,25.67,0,0,0,6.1,8.74c.48.46,1,.89,1.49,1.3s1,.82,1.61,1.19H27.5a3.35,3.35,0,0,0-3.35,3.35v1a3.33,3.33,0,0,0,2.59,3.25l1.14.69L28,88.24a5.1,5.1,0,0,0,.08.67,24.06,24.06,0,0,0,10.2,16.7l.22.17a27.68,27.68,0,0,0,3.41,2.1l.44.24h3.73v2.14H38.34l-4.82,3.14a2.93,2.93,0,0,0,.06,5.86h82.13a2.93,2.93,0,0,0,.06-5.86L111,110.26h-7.73v-2.14h3.71l.43-.23a26.47,26.47,0,0,0,3.43-2.11l.24-.17A24,24,0,0,0,121.23,88.9a5.1,5.1,0,0,0,.08-.67l.11-1.92.77-.47a3.34,3.34,0,0,0,3-3.32v-1a3.35,3.35,0,0,0-3.35-3.35H83.05a63.86,63.86,0,0,0,7-4.19c6.14-4.15,15.16-5.07,22.41-5.81,8.29-.84,14.84-1.51,15.29-6.67l.13-1.55a2.25,2.25,0,0,0,.37-1.16C124.84,58.34,121.6,58,118.56,57.6ZM32.71,63.74c-1.2,0-3-2.8-3-7s1.8-7,3-7,3,2.79,3,7S33.9,63.74,32.71,63.74Zm5.72-.52h0a17,17,0,0,0,0-13h0a21.86,21.86,0,0,1,4.84-8.42C46,44,48.46,49.42,48.46,56.74S46,69.45,43.27,71.64A21.94,21.94,0,0,1,38.43,63.22Zm67.15,33.41v.06c-.44,2.09-1.1,4.6-1.95,7.43H98.77c.67-2.74,1.16-5.09,1.47-7.11v-.08a24.23,24.23,0,0,1,2.84-6.81h3.11a20.27,20.27,0,0,1-.63,6.51Zm-59.87,7.49c-.84-2.75-1.5-5.22-2-7.33a20.45,20.45,0,0,1-.65-6.67h3.08A24.37,24.37,0,0,1,49.05,97v0c.31,2,.8,4.37,1.47,7.11Zm53.57-7.4v0l0,.11c-.32,2.06-.82,4.45-1.52,7.27H92.9c.51-2.68.87-5.1,1.07-7.18a23.3,23.3,0,0,1,2.45-6.82h3.11a19.82,19.82,0,0,1-.25,6.58h0ZM50,96.78a19.94,19.94,0,0,1-.27-6.66h3.11a22.61,22.61,0,0,1,2.44,6.74v.06c.19,2.07.56,4.5,1.07,7.2H51.56c-.7-2.81-1.19-5.2-1.51-7.19Zm6.39-6.66h3.12a21.56,21.56,0,0,1,2,6.73V97c.1,2,.34,4.44.7,7.17H57.42c-.52-2.75-.9-5.21-1.1-7.33A19.35,19.35,0,0,1,56.43,90.12Zm6.66,0h3.12A21.21,21.21,0,0,1,67.88,97h0c0,2,.08,4.43.28,7.14H63.3c-.37-2.75-.61-5.2-.71-7.28A20.38,20.38,0,0,1,63.09,90.12Zm9.79,0a21.33,21.33,0,0,1,1.26,6.82C74,99,74,101.44,74,104.12H69.16c-.2-2.71-.3-5.12-.28-7.16a21.37,21.37,0,0,1,.88-6.84Zm6.67,0a20.93,20.93,0,0,1,.88,6.76c0,2-.07,4.45-.28,7.24H75C75,101.44,75,99,75.14,97a21.94,21.94,0,0,1,1.28-6.84Zm6.67,0a19.94,19.94,0,0,1,.5,6.58l-.07.12.06.14c-.1,2.09-.34,4.5-.69,7.16H81.15c.21-2.79.3-5.17.28-7.24a21.52,21.52,0,0,1,1.66-6.76Zm6.65,0a20.06,20.06,0,0,1,.11,6.7c-.2,2.1-.57,4.56-1.1,7.3H87c.33-2.49.56-4.77.66-6.78l0-.29a.76.76,0,0,1,0-.15,22.1,22.1,0,0,1,2-6.78Zm-30.76,18-1.88,1.44-1.88-1.44Zm5.23,0-1.87,1.44-1.89-1.44Zm5.24,0-1.88,1.44-1.89-1.44Zm5.24,0-1.88,1.44-1.89-1.44Zm5.24,0-1.88,1.44-1.89-1.44Zm5.24,0-1.88,1.44-1.89-1.44Zm5.24,0-1.88,1.44-1.89-1.44Zm7-18h1.37a18.4,18.4,0,0,0-1.21,2.47A12.07,12.07,0,0,0,100.54,90.12Zm-6.37,2.51a13,13,0,0,0-.28-2.51h1.38A16.87,16.87,0,0,0,94.17,92.63Zm-6.5,0a13,13,0,0,0-.42-2.54h1.39A16,16,0,0,0,87.67,92.66Zm-6.51,0a14,14,0,0,0-.56-2.55H82A14.7,14.7,0,0,0,81.16,92.67Zm-6.51,0A14.78,14.78,0,0,0,74,90.12h1.39A13.88,13.88,0,0,0,74.65,92.68Zm-6.5,0a15.2,15.2,0,0,0-.84-2.57h1.4A14.22,14.22,0,0,0,68.15,92.69Zm-6.51,0a16,16,0,0,0-1-2.54h1.39A13.15,13.15,0,0,0,61.64,92.66Zm-6.51,0A17,17,0,0,0,54,90.12h1.38A12.15,12.15,0,0,0,55.13,92.61Zm-6.52,0a19.94,19.94,0,0,0-1.23-2.49h1.38A11.66,11.66,0,0,0,48.61,92.61Zm-6.52,0a20.63,20.63,0,0,0-1.34-2.45h1.36A12.27,12.27,0,0,0,42.09,92.57Zm14.79,15.55L55,109.56l-1.88-1.44Zm-2.61,2.14H50.49l1.9-1.44Zm3.35-1.44,1.88,1.44H55.72Zm5.23,0,1.89,1.44H61Zm5.23,0L70,110.26H66.19Zm5.24,0,1.89,1.44H71.42Zm5.24,0,1.89,1.44H76.66Zm5.24,0,1.89,1.44H81.9Zm5.24,0,1.89,1.44H87.14Zm5.24,0,1.89,1.44H92.38Zm.73-.7h3.77l-1.88,1.44Zm12.19-18h1.36a18.93,18.93,0,0,0-1.34,2.43A12.84,12.84,0,0,0,107.2,90.12Zm8,0a21,21,0,0,0-1.46,2.43,11.67,11.67,0,0,0,.1-2.43Zm-79.76,0a12.12,12.12,0,0,0,.1,2.4,21.38,21.38,0,0,0-1.44-2.4Zm1.72,9.2a19.52,19.52,0,0,1-4.86-9.2h.55a27.89,27.89,0,0,1,3.65,6.93v0c.19.72.42,1.48.66,2.27h0S37.18,99.33,37.17,99.32ZM41,102.66l-.23-.17a24.34,24.34,0,0,1-2.07-1.67c-.48-1.45-.9-2.81-1.23-4a21.12,21.12,0,0,1-1-6.65h3.08A25.74,25.74,0,0,1,42.78,97c.45,2,1.08,4.45,1.88,7.11H43.34A26.6,26.6,0,0,1,41,102.66Zm10.65,5.46-1.58,1.21v-1.21Zm59.66,7.14H38l1.53-1h70.25Zm-13.69-5L99.23,109v1.22Zm10.67-7.63,0,.06a26.65,26.65,0,0,1-2.29,1.43h-1.3c.82-2.74,1.46-5.17,1.89-7.22a25.33,25.33,0,0,1,3.23-6.78h3.08a21,21,0,0,1-1,6.71c-.33,1.22-.74,2.56-1.2,4a26,26,0,0,1-2,1.66Zm3.85-3.33h0c.24-.76.46-1.5.65-2.21a27.59,27.59,0,0,1,3.68-7H117A19.3,19.3,0,0,1,112.14,99.3Zm8.49-17.18-1.67,1H30.08l-1.66-1Z"/></g></svg>