<svg id="Symbols" xmlns="http://www.w3.org/2000/svg" viewBox="0 0 150 150"><defs><style>.cls-1{fill:#231f20;}</style></defs><title>Daruma-bold</title><g id="daruma_bold"><path class="cls-1" d="M108.25,91.05c-1.33-.12-1.57,1-1.88,2.48s-.37,4.28-4.59,9.53c0,0,5.56-2.75,7.35-8.59C109.62,92.88,109.71,91.18,108.25,91.05Z"/><path class="cls-1" d="M100.75,74.85a1.49,1.49,0,0,1,1.39,1.69A1.42,1.42,0,0,1,100.89,78a3.35,3.35,0,0,1-2.75-.78c.31,2.51,2.66,3.09,4.45,2.44a2.82,2.82,0,0,0,2-3.05,3.22,3.22,0,0,0-2.19-3.26c-1.74-.64-3.73.67-4.64,1.31s-2.28,1.7-2.49,1.87c.16,0,.86-.26,2-.7A15.89,15.89,0,0,1,100.75,74.85Z"/><path class="cls-1" d="M102.14,92.17c-1.46-.13-2,1.37-2.27,2.8s-.77,6-7.1,12a17.14,17.14,0,0,0,10.71-10.82C104,94.5,103.78,92.31,102.14,92.17Z"/><path class="cls-1" d="M97.43,96.13A2.62,2.62,0,0,0,95.38,93a2.66,2.66,0,0,0-3.15,2c-.3,1.43.72,5.47-7.73,13.6C86.63,107.89,95.11,104.89,97.43,96.13Z"/><path class="cls-1" d="M86.07,49.94c1.24-.83,4.2-2.74,4.2-2.74a4.88,4.88,0,0,0,2,2.23,3.25,3.25,0,0,0,4.76-1.21,2.75,2.75,0,0,0-1.56-3.61c-2.61-1.26-5.5,1.21-5.85,1.51a47.73,47.73,0,0,1-5,3.93c-2.24,1.46-4.29,2.42-6,2.39C81.89,53,84.83,50.76,86.07,49.94Z"/><path class="cls-1" d="M90.38,55.81a3.06,3.06,0,1,0,3.06,3A3.06,3.06,0,0,0,90.38,55.81Z"/><path class="cls-1" d="M88.84,69.56c-5-1.78-14.83-.35-10.38,7-1.93-5.19,1.92-5.51,2.87-5.8a8.7,8.7,0,0,1,7.28,1.51s-2.42-.27-2.32,1.6a2.93,2.93,0,0,0,3,3.05A3.07,3.07,0,0,0,92,75.43C92.62,74.27,93.05,71.05,88.84,69.56Z"/><path class="cls-1" d="M63.71,73.88c.1-1.87-2.32-1.6-2.32-1.6a8.7,8.7,0,0,1,7.28-1.51c1,.29,4.8.61,2.87,5.8,4.45-7.36-5.35-8.79-10.38-7C57,71.05,57.38,74.27,58,75.43a3.07,3.07,0,0,0,2.74,1.5A2.93,2.93,0,0,0,63.71,73.88Z"/><path class="cls-1" d="M57.71,49.43a4.88,4.88,0,0,0,2-2.23s3,1.91,4.2,2.74,4.18,3,7.38,2.5c-1.66,0-3.71-.93-6-2.39a47.73,47.73,0,0,1-5-3.93c-.35-.3-3.24-2.77-5.85-1.51A2.75,2.75,0,0,0,53,48.22,3.26,3.26,0,0,0,57.71,49.43Z"/><path class="cls-1" d="M62.67,58.86a3.06,3.06,0,1,0-3.05,3.06A3.06,3.06,0,0,0,62.67,58.86Z"/><path class="cls-1" d="M54.62,93a2.62,2.62,0,0,0-2,3.15c2.32,8.76,10.8,11.76,12.93,12.5-8.45-8.13-7.43-12.17-7.73-13.6A2.66,2.66,0,0,0,54.62,93Z"/><path class="cls-1" d="M47.65,73.31a3.22,3.22,0,0,0-2.19,3.26,2.82,2.82,0,0,0,1.95,3.05c1.79.65,4.14.07,4.45-2.44a3.35,3.35,0,0,1-2.75.78,1.42,1.42,0,0,1-1.25-1.42,1.49,1.49,0,0,1,1.39-1.69,15.89,15.89,0,0,1,3.51.94c1.16.44,1.86.65,2,.7-.21-.17-1.66-1.27-2.49-1.87S49.39,72.67,47.65,73.31Z"/><path class="cls-1" d="M50.13,95c-.3-1.43-.81-2.93-2.27-2.8-1.64.14-1.89,2.33-1.34,4A17.14,17.14,0,0,0,57.23,107C50.9,101,50.44,96.41,50.13,95Z"/><path class="cls-1" d="M41.75,91.05c-1.46.13-1.37,1.83-.88,3.42,1.79,5.84,7.35,8.59,7.35,8.59C44,97.81,43.94,95,43.63,93.53S43.08,90.93,41.75,91.05Z"/><path class="cls-1" d="M112.35,58.94A34,34,0,0,0,95.74,38.5h0a33.54,33.54,0,0,0-15.66-3.9H69.93a33.54,33.54,0,0,0-15.66,3.9h0A33.61,33.61,0,0,0,36.34,68.18V81.49a9.06,9.06,0,0,0,9,9h59.24a9.06,9.06,0,0,0,9-9V68.18A33.06,33.06,0,0,0,112.35,58.94Zm-2.69,12.94A6.39,6.39,0,0,0,105,68.61c-6.6-1-10.48,5.37-10.66,5.69.21-.1,3.54-1.71,4.48-2.08a8.6,8.6,0,0,1,3.62-.72,4.24,4.24,0,0,1,3.89,3.1,5.73,5.73,0,0,1-.35,4.19,4.79,4.79,0,0,1-2.9,2.36c-3,.93-7.41-1.15-9-1.72a10.57,10.57,0,0,0-4.65-.61h-.25a19.11,19.11,0,0,1,4.49,2l3.56,2.6c1.66,1.23,5.7,2.85,9.45.67a9.42,9.42,0,0,0,3-2.55,5,5,0,0,1-5,5H91.43a5.88,5.88,0,0,1-2-2.48,4.29,4.29,0,0,1-2.31,2.48H83.66C82,85.9,80,84.32,78.06,81.31a11,11,0,0,0,.83,5.22H71.11a11,11,0,0,0,.83-5.22c-2,3-3.89,4.59-5.6,5.22H62.92a4.29,4.29,0,0,1-2.31-2.48,5.88,5.88,0,0,1-2,2.48H45.38a5,5,0,0,1-5-5,9.42,9.42,0,0,0,3,2.55c3.75,2.18,7.79.56,9.45-.67l3.56-2.6a19.11,19.11,0,0,1,4.49-2h-.25a10.57,10.57,0,0,0-4.65.61c-1.61.57-6,2.65-9,1.72A4.79,4.79,0,0,1,44,78.79a5.73,5.73,0,0,1-.35-4.19,4.24,4.24,0,0,1,3.89-3.1,8.6,8.6,0,0,1,3.62.72c.94.37,4.27,2,4.48,2.08C55.5,74,51.62,67.61,45,68.61a6.39,6.39,0,0,0-4.68,3.27v-3.7a29.09,29.09,0,0,1,.59-5.82,4.21,4.21,0,0,0,.37.36c2.8,2.23,7.1,0,7.86-4.16-2.07,1.38-3.29-.72-3.59-1.71a15.69,15.69,0,0,1-.11-5.21,30,30,0,0,1,5-5.66,29.68,29.68,0,0,1,5.39-3.77,17.62,17.62,0,0,1,7.37,3.17A14.12,14.12,0,0,0,58,41.16a29.47,29.47,0,0,1,6.67-2.07,4,4,0,0,0-.34,3.53,9.4,9.4,0,0,0,5.75,5,9.63,9.63,0,0,0,3.16.18,5.52,5.52,0,0,1-2.85-1.89c-.58-.84-.76-2.13-.73-4.32a3.47,3.47,0,0,0-1.45-2.89c.59,0,1.17,0,1.76,0H80.07c.59,0,1.17,0,1.76,0a3.47,3.47,0,0,0-1.45,2.89c0,2.19-.15,3.48-.73,4.32a5.52,5.52,0,0,1-2.85,1.89A9.63,9.63,0,0,0,80,47.57a9.4,9.4,0,0,0,5.75-5,4,4,0,0,0-.34-3.53A29.47,29.47,0,0,1,92,41.16a14.12,14.12,0,0,0-5.24,4.22,17.62,17.62,0,0,1,7.37-3.17A29.68,29.68,0,0,1,99.56,46a30,30,0,0,1,5,5.66,15.69,15.69,0,0,1-.11,5.21c-.3,1-1.52,3.09-3.59,1.71.76,4.2,5.06,6.39,7.86,4.16a4.21,4.21,0,0,0,.37-.36,29.09,29.09,0,0,1,.59,5.82Z"/><path class="cls-1" d="M67.75,58.86A8.14,8.14,0,1,0,59.62,67,8.14,8.14,0,0,0,67.75,58.86Zm-15.27,0A7.14,7.14,0,1,1,59.62,66,7.14,7.14,0,0,1,52.48,58.86Z"/><path class="cls-1" d="M90.38,50.73a8.14,8.14,0,1,0,8.14,8.13A8.14,8.14,0,0,0,90.38,50.73Zm0,15.27a7.14,7.14,0,1,1,7.14-7.14A7.14,7.14,0,0,1,90.38,66Z"/><path class="cls-1" d="M126.5,76c0-27.14-22-57.5-51.5-57.5S23.5,48.86,23.5,76c0,17,8.32,30,23.51,37,0,.07,0,.13,0,.2v2.67A15.69,15.69,0,0,0,62.67,131.5H87.33A15.69,15.69,0,0,0,103,115.83v-2.67c0-.07,0-.13,0-.2C118.18,106,126.5,93,126.5,76ZM87.33,123.5H62.67A7.68,7.68,0,0,1,55,115.9a73.06,73.06,0,0,0,20,2.6,73.06,73.06,0,0,0,20-2.6A7.68,7.68,0,0,1,87.33,123.5Zm9.9-16.78h0A61.32,61.32,0,0,1,75,110.5a61.32,61.32,0,0,1-22.23-3.77h0C43.06,103,31.5,94.57,31.5,76c0-22.89,19-49.5,43.5-49.5S118.5,53.11,118.5,76C118.5,94.57,106.94,103,97.23,106.72Z"/><path class="cls-1" d="M71.67,78.63c-5.22.38-9.85,1.66-13.05,3.62l.52.86c3-1.85,7.61-3.12,12.61-3.48a41.49,41.49,0,0,1,6.5,0,30.31,30.31,0,0,1,11.93,3.08c.24.13.46.26.68.4l.52-.86c-.24-.14-.48-.29-.73-.42a31.33,31.33,0,0,0-12.32-3.2A43.55,43.55,0,0,0,71.67,78.63Z"/></g></svg>