<?xml version="1.0" encoding="UTF-8"?>
<svg id="icons" xmlns="http://www.w3.org/2000/svg" viewBox="0 0 120 120">
  <path d="m109.11,104.92c-.13-.3-.43-.47-.75-.45-1.16.1-4.48-.02-5.89-1.6-.92-1.03-2.34-2.16-3.93-3.04,1.34-.13,2.32-.6,2.52-1.79.1-.58-.05-1.15-.43-1.61-.41-.49-1.28-1.08-3.1-1.09-1.68-.02-4.28-.88-5.77-1.88-.03-.28-.22-.54-.5-.63-.11-.03-.21-.04-.32-.03-1.55-1.58-6.59-7.73-8.14-11.33-.39-.93-2.66-4.69-4.69-7.91.09-.26.16-.54.16-.83,0-.87-.45-1.67-1.13-2.14.03-.34.05-.71.06-1.08,1.07-.32,1.86-1.3,1.86-2.48,0-1.32-.99-2.4-2.27-2.56-.04-.23-.08-.47-.13-.7.67-.48,1.09-1.26,1.09-2.11,0-1.33-1.02-2.42-2.32-2.56-.05-.15-.1-.3-.15-.44.7-.47,1.14-1.26,1.14-2.15,0-1.43-1.17-2.59-2.6-2.59-.13,0-.26.03-.39.05-.1-.22-.2-.42-.3-.63.34-.44.53-.98.53-1.56,0-.29-.06-.57-.15-.83,1.63.15,3.27-.09,4.8-.72l5.36-2.2c.94-.38,1.92-.73,2.87-1.06l1.08-.39c.49-.18.95-.39,1.39-.64,0,0,0,0,0,0,0,0,0,0,0,0,0,0,0,0,0,0,0,0,0,0,0,0,1-.55,1.78-1.2,2.43-1.82,0,0,0,.02,0,.02.03.22.16.41.35.52.12.07.26.11.39.11.08,0,.15-.01.23-.04l1.54-.49c.34-.11.55-.44.52-.79l-.24-2.31s0-.02,0-.04c0-.04,0-.07,0-.11-.03-.32.11-.67.39-.94l2.23-2.15.46.24c.72.37,1.59.43,2.37.16l2.24-.76c.21-.07.37-.23.46-.43.08-.2.07-.43-.03-.63l-.49-.94c-.16-.31-.51-.47-.85-.38l-1.36.35c-.38.1-.79.05-1.13-.14l-.29-.16-.29-1.75,2.34-2.33c.19-.19.26-.46.2-.71-.06-.26-.26-.46-.51-.54l-1.23-.38c-.33-.1-.68-.13-1.02-.09l-1.73.2c-1.02.12-1.96.6-2.64,1.34l-.36.39c-.14.16-.22.37-.2.58.02.21.13.41.3.53l.8.59c-.43.48-1.05,1.18-1.64,1.91-.11-.06-.23-.11-.36-.14-.92-.23-1.97.18-2.83,1.1-1.1,1.19-.92,2.54-.79,3.52.14,1.02.12,1.31-.28,1.54-.17.1-.42.21-.71.32,0,0,0,0,0,0,0,0,0,0,0,0-1.15.43-3,.83-4.96,1.26-1.84.4-3.92.86-5.72,1.4-1.42.34-3.08.04-4.35-.87l-4.02-2.87c1.44-1.68,4.91-6.5,4.39-13.12,1.19-.74,1.87-1.69,2.09-2.58.29-1.16-.1-2.28-1-2.86-.61-.39-1.41-.28-2.19,0,.3-.96.44-2.12.24-3.49-.08-.56-.43-1.05-.95-1.29-.45-.22-.95-.22-1.41-.04.74-3.98.53-8-1.64-8.83-2.2-.84-4.9,2.99-6.48,5.69-.03-.08-.05-.17-.08-.24-.21-.58-.69-1-1.29-1.13-.6-.13-1.23.04-1.67.48-.78.77-1.3,1.59-1.66,2.39-.07-.09-.13-.19-.22-.26-.46-.44-1.03-.65-1.7-.6-.94.06-1.69.78-2.06,1.97-.37,1.19-.34,2.74.07,4.15-6.54,6.93-5.56,14.02-5,16.34-.21.07-.44.14-.68.23l-.15.06c-.18.07-.36.14-.57.21-.01,0-.02.01-.03.01,0,0,0,0,0,0h-.02s-.01,0-.02.01c0,0,0,0-.01,0l-5.47,1.78c-.29.09-.56.18-.81.26.71-1.54,1.29-2.83,1.77-3.9.14-.13.22-.31.22-.5.61-1.39,1.04-2.39,1.33-3.08.69-1.65.71-3.53.04-5.14-.45-1.1-.95-2.02-1.47-2.75,2.34-3.57,4.1-6.5,4.23-8.53,3.34-1.65,3.13-5.27,2.51-7.03-.12-.35-.48-.56-.84-.49-.12.02-3.08.59-4.45,2.62-.52.77-.73,1.63-.66,2.58-1.67.87-3.71,3.5-6.19,8-1.31.19-2.29.72-2.85,1.63-.94,1.52-.43,3.54-.18,4.33-1.14,2.44-1.91,4.25-1.91,4.26-.52,1.17-.23,2.31.68,2.77.26.13.55.19.86.19,1.29,0,3.01-1.13,4.69-3.81l.7.55c-4.08,6.53-6.37,10.56-6.8,11.98-.3,1.02-.18,1.76-.17,1.84.01.06.03.12.05.18.04.08.87,1.89,3.31,1.89.13,0,.27,0,.42-.02,2.1-.18,3.8-.61,5.04-1.02.02.34.03.67.05,1.01-1.01.36-1.73,1.3-1.73,2.43,0,1.29.96,2.36,2.2,2.55.04.3.08.6.12.89-1.07.32-1.85,1.31-1.85,2.48,0,1.43,1.17,2.59,2.6,2.59.05,0,.09-.01.14-.01.04.2.09.4.13.6-.88.41-1.49,1.31-1.49,2.34,0,1.43,1.16,2.59,2.59,2.59.08,0,.16-.02.24-.02.17.54.35,1.06.53,1.59-.66.48-1.07,1.25-1.07,2.09,0,1.43,1.17,2.6,2.6,2.6.14,0,.28-.03.42-.05.22.44.44.87.67,1.29-.53.48-.85,1.16-.85,1.9,0,1.32,1,2.4,2.29,2.56l-.51.97c-.48.91-.9,1.67-1.19,2.16,0,0,0,0,0,0-1.4,2.3-2.72,4.46.01,7.87,1.5,1.87,4.3,5.46,6.19,7.89l1.02,1.3c.41.53.69,1.13.83,1.77l-1.38.7c-.59-.14-1.97-.41-3.04-.21-.9.16-1.55.82-1.61,1.63-.02.26.03.75.41,1.25-.33.07-.64.14-.89.21l-2.06.6c-2.38.69-6.84,1.59-9.82,2.16l-1.08-.36c-1.42-.47-2.83-1.09-4.31-1.9-2.31-1.26-3.91-1.62-4.77-1.07-.3.19-.49.49-.53.83-.86-.06-1.32.18-1.61.56-.73.98.37,2.41.73,2.83.04.04.07.08.12.11.19.15,4.79,3.64,6.47,4.73.34.22.73.3,1.11.3.85,0,1.67-.4,1.98-.57.45-.25,1.05-.32,1.65-.19,3.21.67,9.12,1.45,12.67-.86,4.1-2.67,11.98.48,12.09.52,2.43.85,5.32.37,5.47.34,1.52-.33,4.83-.1,8.33.14,5.02.34,10.22.7,12.96-.23,3.26-1.11,4.48-1.05,8.08-.88,1.06.05,2.31.11,3.87.15,7.09.18,9.76-2.19,9.87-2.29.24-.21.31-.56.19-.85Zm-33.27-4.33c-.14.17-.27.34-.39.51l-14.58-.49c.14-.46.16-.99.05-1.58-.12-.58-.33-1.2-.63-1.88,0-.02-.02-.05-.03-.07-.31-.68-.68-1.39-1.08-2.14-.6-1.13-1.28-2.41-1.81-3.79-.02-.07-.05-.14-.08-.21l-1.05-2.33c-.35-.71-.74-1.44-1.11-2.15l-.31-.58c-.51-.91-.99-1.76-1.38-2.43.73.16,1.46.3,2.17.42,3.05.54,5.68,1,7.02,3.44,1.79,3.25,4.81,3.25,7.02,3.25,2.43,0,3,.16,3.01,1.72,0,1.62.17,3.49,1.45,3.53.01,0,.02,0,.03,0,1.38,0,2.18-2.58,2.29-4.35.12-1.93-1.02-2.84-1.93-3.58-.85-.69-1.53-1.23-1.51-2.53.01-1,.48-1.21,1.85-1.68.14-.05.29-.1.44-.15l.8,1.01.51.79c1.98,3.21,8.43,9.28,9.69,10.45,0,.02,0,.04.01.06h0s0,0,0,0c.24,1.47.78,3.37,2.01,4.06.25.14.5.21.76.25-.7.85-.97,1.81-.99,2.6-.54-.02-1.66-.27-3.66-1.5-4.1-2.52-7.53-1.9-8.56-.67Zm-28.09-30.39c-.23-.41-.45-.83-.66-1.27.15-.14.28-.3.4-.48.03-.05.06-.1.09-.15.08-.14.15-.29.2-.45.02-.06.04-.12.06-.18.06-.21.09-.43.09-.65,0-.18-.02-.36-.06-.53,0-.04-.03-.08-.04-.13-.03-.13-.07-.25-.12-.37-.02-.05-.05-.09-.07-.13-.05-.11-.11-.21-.18-.31-.04-.05-.08-.1-.12-.14-.07-.08-.13-.17-.21-.24-.06-.05-.12-.1-.18-.15-.07-.06-.14-.11-.21-.16-.08-.05-.16-.09-.24-.13-.07-.03-.13-.07-.21-.1-.09-.04-.19-.06-.28-.09-.07-.02-.14-.04-.22-.06-.09-.02-.18-.02-.28-.03-.07,0-.13-.02-.2-.02-.03,0-.05,0-.08,0-.02,0-.04,0-.06,0-.19-.53-.37-1.08-.55-1.63,0,0,.01-.01.02-.02.13-.11.25-.22.36-.35.03-.03.05-.06.07-.09.09-.12.18-.25.25-.39,0-.02.02-.03.03-.05.07-.15.13-.31.17-.48.01-.04.02-.08.03-.12.04-.17.06-.34.06-.52s-.02-.34-.05-.5c-.01-.05-.03-.1-.04-.15-.03-.11-.06-.21-.1-.32-.02-.06-.05-.11-.08-.17-.04-.09-.09-.18-.14-.26-.04-.05-.07-.1-.11-.16-.06-.08-.12-.15-.18-.22-.05-.05-.09-.09-.14-.14-.07-.06-.14-.12-.22-.18-.05-.04-.11-.08-.17-.11-.08-.05-.16-.09-.24-.13-.06-.03-.13-.06-.19-.08-.09-.03-.18-.06-.27-.08-.07-.02-.14-.04-.21-.05-.03,0-.05-.01-.08-.02-.07-.29-.13-.58-.19-.87.01,0,.02-.02.04-.03.14-.11.27-.23.38-.36.02-.02.04-.05.06-.07.1-.12.19-.26.26-.4.01-.02.03-.04.04-.07.08-.16.14-.32.18-.49,0-.04.02-.07.03-.11.04-.18.06-.36.06-.54,0-.16-.02-.32-.05-.47,0-.05-.02-.1-.04-.15-.02-.1-.05-.2-.09-.3-.02-.05-.04-.11-.07-.16-.04-.09-.08-.17-.13-.25-.03-.05-.06-.1-.09-.15-.05-.08-.11-.15-.18-.23-.04-.04-.07-.08-.11-.12-.08-.08-.16-.15-.25-.22-.03-.02-.06-.05-.09-.07-.12-.09-.25-.16-.39-.23-.03-.01-.05-.02-.08-.03-.09-.04-.19-.08-.29-.11-.05-.36-.1-.72-.14-1.08.04-.02.07-.04.1-.06.04-.02.09-.04.13-.07.09-.05.17-.11.25-.17.03-.02.07-.05.1-.07.21-.18.4-.39.55-.63.02-.04.04-.07.06-.11.05-.09.09-.17.13-.27.02-.04.04-.09.05-.13.03-.09.06-.19.08-.29,0-.04.02-.09.03-.13.02-.14.04-.29.04-.43,0-.17-.02-.33-.05-.49,0-.05-.03-.1-.04-.15-.03-.1-.06-.21-.1-.31-.02-.06-.05-.11-.07-.16-.04-.09-.09-.18-.14-.26-.03-.05-.07-.1-.1-.15-.06-.08-.12-.15-.19-.23-.04-.04-.08-.09-.12-.13-.08-.08-.17-.14-.25-.21-.04-.03-.07-.06-.11-.08-.13-.09-.27-.16-.41-.22-.03-.01-.05-.02-.08-.03-.1-.04-.21-.08-.32-.11-.03-.49-.06-.97-.08-1.46,1.06-.39,2.2-.71,3.39-.96.06.12.16.31.28.64.09.24.18.49.27.75.16.45.32.91.48,1.29,0,0,0,.02,0,.03.12.34.28.73.46,1.17l.21.5c.08.16.15.33.23.51.09.21.19.42.29.63,1.41,3.03,3.58,5.84,5.15,7.66.45.51.66,1.17.58,1.85-.13,1.08-.32,2.53-.51,3.88,0,.02,0,.04,0,.06l-.51,3.76-.45.9c-.08.09-.13.2-.16.31l-1.36,2.69c-.48-.52-1.16-.86-1.92-.86-.14,0-.28.01-.42.03Zm24-17.58c-.19.16-.43.24-.69.24-.6,0-1.09-.49-1.09-1.09,0-.46.28-.87.75-1.04.09-.04.21-.06.34-.06.61,0,1.1.49,1.1,1.1,0,.33-.15.63-.41.85Zm-2.55-2.65c-.45.47-.73,1.11-.73,1.8,0,1.43,1.16,2.59,2.59,2.59.29,0,.57-.05.84-.14.06.12.11.25.17.37-.53.48-.85,1.17-.85,1.91,0,1.43,1.17,2.6,2.6,2.6.01,0,.02,0,.03,0,.03.09.06.18.09.27-.83.43-1.38,1.3-1.38,2.28,0,1.43,1.16,2.6,2.59,2.6.02,0,.04,0,.07,0,.03.16.06.31.09.47-.87.42-1.45,1.3-1.45,2.31,0,.07.02.13.02.2-.22-.29-.44-.57-.67-.87,0,0,0,0,0,0h0c-.44-.56-.89-1.13-1.32-1.67-1.03-1.3-2.01-2.52-2.3-3-.18-.32-.96-1.34-.96-1.35,0,0-.01,0-.02-.02,0-.01-.01-.03-.02-.04l-.33-.36s0,0,0,0c0,0,0,0,0,0-1.51-1.63-3.37-2.83-4.34-3.39-.42-.25-.67-.66-.69-1.13-.06-1.53.41-4.27,1.03-5.17.73-1.08,1.4-1.19,1.67-1.09,0,0,.02,0,.02,0,.03,0,.05.02.08.02l3.16.81Zm7.87,24.92s.06-.03.09-.05c.59.95,1.15,1.85,1.67,2.69-.79,2.9-2.18,3.85-3.59,4.41-.31.12-.61.23-.89.32-1.33.46-2.84.97-2.86,3.08-.02,2.02,1.14,2.96,2.07,3.71.92.74,1.44,1.22,1.37,2.32-.07,1.12-.39,2.05-.66,2.57-.06-.32-.12-.84-.12-1.66,0-3.22-2.5-3.22-4.51-3.22-2.14,0-4.35,0-5.71-2.48-1.17-2.13-3.09-3.06-5.2-3.61.13-.04.26-.1.38-.16.01,0,.03-.02.04-.03.11-.06.21-.12.31-.19.02-.01.03-.03.05-.04.09-.07.18-.15.26-.23.02-.02.03-.03.05-.05.08-.08.15-.17.22-.26,0,0,.01-.01.02-.02.08.02.18.02.26.04.18.03.37.06.56.08.09.01.18.03.28.04.02.09.06.18.09.27.01.04.02.08.04.12.06.14.14.28.22.41.02.03.04.05.06.08.07.1.15.2.23.28.04.04.08.07.12.11.08.07.15.13.24.19.05.03.1.07.15.1.08.05.17.1.26.14.05.03.11.05.16.07.1.04.2.07.31.1.05.01.1.03.15.04.16.03.32.05.49.05s.33-.02.49-.05c.05-.01.1-.03.15-.04.1-.03.21-.06.31-.1.06-.02.11-.05.17-.08.09-.04.17-.09.26-.14.05-.03.1-.07.16-.11.08-.06.15-.12.22-.18.05-.04.09-.09.14-.13.07-.07.12-.14.18-.22.04-.05.08-.1.11-.15.05-.09.1-.18.15-.27.02-.05.05-.1.07-.15.05-.12.08-.24.11-.37,0-.03.02-.06.03-.09,0,0,0,0,0-.01.43-.06.86-.14,1.27-.24.15-.03.3-.07.46-.11.01.01.02.02.04.03.03.04.07.06.11.1.11.11.24.2.37.29.06.04.12.07.18.1.13.07.26.12.4.17.06.02.12.04.18.06.2.05.41.08.62.08,1.43,0,2.6-1.17,2.6-2.6,0-.07,0-.13,0-.2.06-.04.11-.08.17-.12.11.08.22.14.34.2,0,0,.02,0,.03.01.15.07.3.12.46.16.04.01.08.02.13.03.17.03.34.06.52.06,1.43,0,2.59-1.17,2.59-2.6,0-.22-.03-.43-.09-.63-.02-.06-.04-.12-.06-.18-.05-.14-.1-.27-.17-.4-.03-.06-.06-.13-.1-.19-.1-.15-.21-.3-.34-.43,0,0,0-.01-.01-.01.01-.03.02-.05.03-.07.01-.02.02-.04.03-.07.02-.05.05-.11.07-.16.06,0,.12-.03.18-.05.09-.02.18-.04.27-.07.11-.04.22-.08.32-.14.09-.04.18-.09.27-.14Zm-20.19,5.34s.01-.04.02-.07c.14-.45.55-.75,1.03-.75.61,0,1.09.48,1.09,1.1,0,.13-.02.25-.08.39-.15.42-.56.7-1.01.7-.61,0-1.1-.49-1.1-1.09,0-.11.02-.2.05-.28Zm7.87,1.17s0,.08.02.11c0,.6-.49,1.09-1.09,1.09s-1.09-.49-1.1-1.13c.02-.59.5-1.06,1.1-1.06.57,0,1.03.42,1.07.99Zm4.08-1.93s0-.02.01-.03c.17-.39.55-.66,1-.66.08,0,.16.01.25.03.08.02.16.05.24.09.02,0,.03.01.05.02.01.02.04.02.05.04.05.04.1.09.16.11.01.01.02.02.04.03.12.13.21.28.27.48.03.09.05.18.05.29,0,.61-.49,1.1-1.1,1.1-.4,0-.75-.2-.94-.56-.09-.16-.15-.35-.15-.54,0-.15.03-.28.08-.41Zm6.75-7.84s.08,0,.12-.02c.12,0,.24.03.39.09.41.16.68.56.68,1.01,0,.18-.05.36-.16.54-.18.33-.53.54-.93.55-.04,0-.08-.01-.12-.02-.56-.04-1-.51-1-1.07s.44-1.05,1.01-1.08Zm-1,4.84c.35.18.57.54.57.95,0,.61-.49,1.1-1.09,1.1-.33,0-.64-.15-.86-.42-.16-.19-.24-.42-.24-.68,0-.61.49-1.1,1.1-1.1.17,0,.34.04.52.15Zm.89-7.06c.07.03.15.05.22.07,0,.09,0,.17,0,.26-.08-.12-.15-.22-.22-.33Zm-11.51-10.11s.05,0,.07,0c.34.02.61.3.61.65,0,.32-.23.59-.64.64-.36,0-.65-.29-.65-.64s.27-.63.61-.64Zm.04,2.79c.13,0,.25-.01.29-.03,1.05-.14,1.85-1.05,1.85-2.11,0,0,0,0,0-.01.14.13.29.26.43.39-.41.45-.67,1-.91,1.51-.53,1.15-.85,1.85-2.46,1.63-.5-.07-.92-.1-1.3-.12.64-.23,1.13-.76,1.32-1.41.24.09.5.15.78.15Zm-2.87-1.39s.05,0,.07,0c.34.02.61.3.61.65,0,.32-.23.59-.64.64-.36,0-.65-.29-.65-.64s.27-.63.61-.64Zm-1.02-1.22c-.85-.78-2.9-3.23-2.68-8.61,0,0,.01,0,.02,0,.28,4.45,1.95,7.04,3.25,8.39-.21.05-.4.12-.59.22Zm-2.14-10.28c-.07.02-.13.04-.19.07-.38.12-.77.17-1.16.15-.4-.02-.77-.13-1.12-.29-.07-.05-.14-.1-.22-.13-.01,0-.03,0-.04,0-.73-.43-1.35-1.17-1.81-2.19.65.28,1.33.52,2.03.69,1.01.24,2.04.35,3.08.35.43,0,.86-.03,1.28-.07-.49.67-1.14,1.16-1.85,1.43Zm-2.47,1.53c.15.04.29.08.43.11-.2,5.13,1.51,7.95,2.69,9.26-.18-.05-.36-.08-.55-.08-.03,0-.07,0-.12,0-.78-1.04-3.48-5.09-2.45-9.3Zm2.53,10.79s.05,0,.07,0c.34.02.61.3.61.65,0,.32-.23.59-.64.64-.36,0-.65-.29-.65-.64s.27-.63.61-.64Zm1.94,1.6c.16.11.35.19.54.25-.32.04-.6.11-.83.2.12-.13.21-.29.29-.45Zm3.03,1.83c2.71.35,3.46-1.29,4.01-2.49.18-.4.36-.75.57-1.02.27.36.62.85.7.99.35.58,1.26,1.72,2.42,3.17.34.43.69.87,1.04,1.32-.85,2.24-1.92,4.08-3.18,5.5-1.73-.41-3.3-1.82-4.49-4.02.08-.3.13-.61.1-.93-.11-1.49-1.42-2.63-2.89-2.51-1.49.11-2.62,1.4-2.51,2.89h0c.04.62.3,1.18.71,1.63-.46,1.74-1.28,3.17-2.36,4.11-1.55-1.22-2.96-2.96-4.13-5.08l.43-.86c.04-.07.06-.15.07-.23l.28-2.08c.15.12.31.23.49.33.67.37,1.44.55,2.27.55.62,0,1.27-.1,1.93-.32.56-.18.91-.43,1.19-.62.49-.35.92-.65,3.34-.33Zm-1.44,3.93c-.32.02-.63-.08-.88-.29-.24-.21-.39-.51-.41-.83-.05-.67.46-1.25,1.12-1.29.71-.04,1.25.46,1.29,1.12.05.67-.46,1.25-1.12,1.29Zm5.14,5.24c-1.69-1.41-2.53-2.22-2.54-2.22-.16-.16-.39-.24-.62-.2l-3.1.43c-.19.03-.36.13-.48.28.33-.6.62-1.3.86-2.11.21.05.43.09.65.09.06,0,.13,0,.19,0,.55-.04,1.06-.24,1.48-.57,1.16,1.88,2.62,3.18,4.24,3.81-.22.19-.45.34-.68.5Zm-1.37.81c-1.8.83-3.71.89-5.61.17.56-.69.99-1.23,1.22-1.53l2.45-.34c.33.3.98.89,1.94,1.7Zm-13.29,1.9c.19-.32.54-.52.92-.52.61,0,1.1.49,1.1,1.1,0,.31-.13.6-.38.82-.19.18-.45.28-.72.28-.61,0-1.1-.49-1.1-1.1,0-.2.06-.39.18-.58Zm3.24,1.75s.01-.03.02-.05c.06-.11.09-.23.13-.36.02-.06.05-.12.06-.19.04-.19.07-.38.07-.58,0-1.43-1.17-2.6-2.6-2.6-.2,0-.4.03-.59.08-.05.01-.09.02-.14.04-.18.05-.36.12-.52.21-.04.02-.07.05-.1.07-.07.05-.15.09-.22.14-.07-.08-.15-.16-.22-.24-.19-.21-.37-.43-.56-.65-.09-.11-.18-.22-.27-.33.02-.03.02-.06.04-.08.09-.15.16-.31.22-.47.01-.04.03-.08.05-.13.04-.14.06-.27.08-.42l.07-.14c.05-.1.1-.2.17-.32l1.24-2.45c1.29,2.14,2.8,3.84,4.51,5.05.52.36,1.01.65,1.48.88,2.94,1.49,6.07,1.37,8.82-.32,0,0,0,0,0,0,.01,0,.03-.01.04-.02.83-.5,1.62-1.16,2.34-1.94,1.35-1.42,2.5-3.26,3.43-5.47.35.46.68.9.97,1.3l.26.4c.09.14.2.29.3.45-.03.02-.05.04-.07.06-.14.09-.27.18-.38.29-.04.03-.07.06-.11.1-.14.14-.26.3-.36.46-.02.03-.03.06-.04.09-.08.15-.15.31-.2.47-.02.05-.03.1-.05.16-.05.2-.08.4-.08.62,0,.2.03.39.07.57.01.06.03.11.05.16.04.13.09.26.15.38.03.05.05.1.08.15.08.15.18.28.28.41.01.01.02.03.03.04.12.14.26.25.41.36.02.01.03.03.04.04-.04,0-.08,0-.12,0-1.43,0-2.6,1.17-2.6,2.6,0,.16.01.31.04.46,0,0,0,0,0,0-.05-.05-.12-.09-.19-.14-.02-.02-.04-.03-.06-.04-.42-.28-.91-.43-1.42-.43-1.43,0-2.59,1.17-2.59,2.6,0,.13,0,.26.03.39-.04,0-.07.02-.11.03-.36.08-.74.13-1.11.19-.02-.04-.04-.07-.05-.1-.02-.05-.04-.09-.07-.14-.05-.09-.11-.17-.17-.26-.02-.03-.04-.07-.07-.1-.09-.11-.18-.21-.29-.31-.02-.02-.04-.03-.06-.05-.09-.07-.18-.14-.28-.21-.04-.03-.08-.05-.12-.07-.08-.05-.17-.09-.26-.13-.05-.02-.09-.04-.14-.06-.09-.03-.19-.06-.29-.08-.05-.01-.09-.02-.13-.03-.14-.03-.29-.04-.44-.04-.16,0-.32.02-.47.05-.05,0-.09.02-.14.03-.11.03-.22.06-.32.1-.04.02-.09.03-.13.05-.11.05-.22.11-.33.18-.02.01-.05.03-.07.04-.46.31-.81.75-1,1.28-.1-.01-.2-.02-.29-.03-.07-.01-.15-.02-.22-.03-.06,0-.12-.02-.18-.03v-.04c0-1.43-1.16-2.6-2.59-2.6-.19,0-.37.03-.55.06-.04,0-.09.02-.13.03-.17.04-.33.1-.49.18,0,0,0,0,0,0-.17.08-.32.19-.47.31-.02.01-.03.03-.05.04-.14.12-.27.25-.38.4-.14-.07-.27-.15-.41-.23-.05-.03-.1-.07-.15-.1Zm44.18,18.78c.1.12.13.24.1.4-.13.79-2.61.61-4.08.43-2.18-.27-3.69.06-4.79.3-.88.19-1.36.29-1.71.09-.42-.23-.81-1.05-1.08-2.15.93-.1,2.32-.44,3.22-1.6,1.76,1.1,4.47,1.96,6.37,1.98,1.41.01,1.86.43,1.96.55Zm-9.52-3.45c-.64.8-1.74,1-2.39,1.04-.03-.04-.06-.07-.1-.11-.08-.07-7.59-7.01-9.64-10.33l-.56-.87-.59-.75c1.14-.62,2.33-1.66,3.15-3.69.84,1.41,1.43,2.45,1.58,2.82,1.68,3.89,6.96,10.31,8.54,11.88Zm-12.41-26.91c0,.61-.49,1.1-1.09,1.1s-1.1-.49-1.1-1.1c0-.54.39-.99.94-1.07.05-.01.1-.02.16-.02.6,0,1.09.49,1.09,1.09Zm-1.3-5.37c0,.45-.28.86-.74,1.04-.09.04-.22.06-.36.06-.6,0-1.09-.49-1.09-1.1,0-.55.39-1,.93-1.07.03,0,.14-.02.16-.02.62,0,1.1.48,1.1,1.09Zm-1.33-5.15c0,.49-.31.91-.81,1.05-.09.03-.18.05-.29.05-.61,0-1.1-.49-1.1-1.1,0-.42.24-.79.62-.98.15-.07.31-.11.48-.11.61,0,1.1.49,1.1,1.09Zm20.63-23.05c.15-.16.22-.37.21-.58-.02-.21-.13-.41-.3-.54l-.79-.58c.41-.36.93-.58,1.5-.65l1.73-.2c.15-.02.28,0,.41.03h.04s-1.73,1.73-1.73,1.73c-.17.17-.25.41-.21.65l.41,2.49c.04.23.18.42.38.53l.61.34c.19.1.39.19.59.25-.13-.03-.26-.07-.38-.13l-.93-.48c-.28-.15-.63-.1-.86.13l-2.64,2.54c-.58.57-.88,1.34-.83,2.1,0,.04,0,.09,0,.12l.18,1.78-.13.04c-.03-.19-.07-.4-.1-.64l-.2-1.12c-.08-.47-.17-.96-.25-1.4-.12-.7-.24-1.32-.31-1.63,0,0,0-.08.08-.27.09-.13.21-.25.34-.38.08-.08.17-.17.25-.27.03-.03.05-.07.08-.11.06-.07.11-.14.16-.21.03-.05.05-.09.07-.14.04-.07.08-.14.1-.22.02-.05.02-.11.03-.17,0-.06.03-.12.03-.18,1.07-1.39,2.44-2.83,2.45-2.84Zm-6.8,8.82c1.31-.77,1.13-2.08,1-3.03-.12-.88-.22-1.64.4-2.3.56-.6,1.03-.68,1.21-.68.08,0,.14,0,.18.02-.02.02-.04.05-.06.07-.01.02-.03.03-.04.05-.05.05-.1.1-.14.14-.18.19-.39.4-.57.67-.02.02-.03.05-.04.08-.29.46-.38.98-.28,1.54.03.16.06.32.08.45.07.42.13.8.33,1.07.07.38.14.78.21,1.18l.13.76c-.59.63-1.35,1.38-2.33,2.01-.26-.39-.56-1-.58-1.79.19-.08.35-.17.5-.25Zm-13.38,3.33c.54,0,1.06-.06,1.6-.19,1.78-.53,3.75-.96,5.65-1.38,1.54-.34,3.01-.66,4.18-1,.1.82.39,1.49.69,1.97-.13.05-.25.13-.38.17l-1.07.38c-.96.34-1.96.69-2.94,1.09l-5.36,2.2c-1.72.71-3.59.84-5.41.39l-5.9-1.51c-.33-.12-1.93-.54-3.42,1.65-.88,1.29-1.35,4.46-1.29,6.08.04.97.57,1.85,1.42,2.36.06.03.13.08.2.12-.44.14-.81.41-1.08.77-1.1-.93-3.13-3.33-3.34-8.27,1.18-.57,2.18-1.6,2.76-2.92,2.86-.62,5.69-2.08,8.17-4.27l1.5,1.07c1.18.84,2.57,1.29,4.01,1.29Zm-20.74-20.36c.61-1.75,1.94-3.81,3.67-3.84,3.51-.05,7.16,1.44,8.71,3.54.92,1.24.14,5.12-1.46,7.29-.09.13-.19.23-.28.33l1.46-4.02c.35-.96.3-2-.13-2.93s-1.2-1.63-2.17-1.98l-4.01-1.46c-.96-.35-2-.3-2.93.13-.93.43-1.63,1.2-1.98,2.17l-1.38,3.81c-.04-.88.12-1.96.5-3.05Zm-.39-4.83s0-.04-.02-.06c-.21-.6-.32-1.25-.35-1.89.26.27.62.45,1.03.45.03,0,.07,0,.1,0,.39-.03.73-.21.97-.48,0,.05.02.1.03.15.04.79.19,1.45.32,1.91-.51.31-.98.72-1.39,1.2-.28-.37-.51-.8-.68-1.28Zm.66-3s0,0,0,0c.03,0,.06.03.06.06l-.06.07v-.13Zm6.41.88c-.08.76-.03,1.42.06,1.91-.28-.06-.57-.09-.86-.13.35-.61.62-1.21.8-1.78Zm1.69,2.31s-.61-1.71.19-3.63c.04.35.2.68.47.91.26.23.59.35.94.35.03,0,.07,0,.1,0,.32-.02.6-.17.84-.38-.2.74-.55,1.52-1.15,2.32l-.6.76c-.26-.1-.52-.2-.79-.28,0-.01,0-.03,0-.04Zm4.7-.13s0,0,0,0c.05.76.68,1.34,1.43,1.34.03,0,.07,0,.1,0,.28-.02.53-.12.74-.27-.47,1.25-1.29,2.03-1.84,2.44-.33-.44-.75-.84-1.2-1.22.14-.9.41-1.66.77-2.28Zm1.43-.16s0,0,0,0c.03,0,.06.03.06.06l-.06.07v-.13Zm-.25,6.49c.01-.52-.03-1.01-.13-1.46.31-.21.71-.53,1.14-.97-.03.13-.05.27-.04.41.03.38.2.73.49.98.26.23.59.35.93.35-.63.3-1.42.54-2.39.68Zm2.34-2.11l.11-.05s.02.03.02.04h-.13Zm-6.03-3.12l.38-.49c.23-.31.43-.62.61-.92-.24.49-.45,1.03-.6,1.64-.13-.08-.26-.16-.39-.23Zm.35-5.86c-.29-.25-.67-.37-1.04-.35-.14,0-.26.06-.38.1.22-.26.47-.53.77-.78.24-.21.4-.22.46-.21.08.02.18.17.25.44.07.31.13.66.15,1.04-.06-.08-.11-.18-.19-.25Zm-.88,1.08l-.02.05-.11-.04.11-.05s.02.03.02.04Zm-10.92,19.77s-.08.02-.12.02c.4-.54.63-1.16.65-1.8,0-.28-.05-.55-.12-.8.22.38.47.73.76,1.04-.34.84-.74,1.38-1.17,1.54Zm4.21-2.32c-.13.02-.17-.03-.18-.05-.05-.08-.07-.29.02-.6.16.08.33.15.51.2.08.02.17.04.26.05-.23.26-.47.38-.61.4Zm2.46-.6c.13-.05.27-.09.39-.16.36-.2.49-.66.28-1.02-.21-.36-.66-.49-1.02-.28-.41.23-.89.29-1.35.17-.46-.13-.84-.42-1.07-.84-.21-.36-.66-.49-1.02-.28-.36.2-.49.66-.28,1.02.07.13.17.24.25.36-.28.6-.39,1.18-.32,1.67-.41-.36-.75-.8-.99-1.32-.31-.67-.42-1.4-.35-2.12.05-.12.07-.25.05-.37.04-.21.08-.41.16-.61l.71-1.96c0,.13.02.26.09.38.49.87,1.4,1.36,2.34,1.36.45,0,.9-.11,1.32-.35.36-.2.49-.66.28-1.02-.21-.36-.66-.49-1.02-.28-.57.32-1.29.12-1.61-.45-.2-.36-.66-.49-1.02-.28-.08.04-.14.11-.2.17l.88-2.43c.21-.59.64-1.05,1.21-1.32.31-.15.65-.22.99-.22.27,0,.54.05.8.14l4.01,1.46c.59.21,1.05.64,1.32,1.21.14.29.21.6.22.91-.12-.07-.26-.13-.42-.12l-3.15.11s-.07.02-.1.02c.14-.16.27-.34.35-.55.29-.7.16-1.5-.33-2.1-.16-.19-.41-.29-.66-.27-.77.08-1.42.56-1.71,1.25,0,0,0,0,0,0-.11.27-.14.55-.13.84l-1.15-1.45c-.26-.33-.73-.38-1.05-.12-.32.26-.38.73-.12,1.05l1.4,1.77c.15.19.37.28.59.28.16,0,.33-.05.46-.16.1-.08.17-.19.22-.3.04.06.07.13.12.19.14.18.36.28.58.28.02,0,.05,0,.07,0,.29-.03.56-.13.8-.27-.04.1-.06.2-.06.31.01.4.35.72.75.72,0,0,.02,0,.03,0l3.15-.11s.03,0,.05-.01l-1.59,4.38c-.7,1.92-2.7,2.98-4.64,2.57.63-.33,1.16-.98,1.51-1.84Zm1.23,4.26c-.06-.07-.12-.13-.15-.21-.1-.23-.09-.54.02-.92.22-.08.44-.16.65-.26-.28.39-.46.87-.52,1.39Zm-9.16-3.9c.2.17.3.44.29.75,0,.36-.16.74-.43,1.05-.17.2-.37.35-.62.46-.12.06-.24.1-.39.11,0,0-.02,0-.03,0-.06,0-.12,0-.19,0-.04,0-.09-.01-.14-.02-.02,0-.03,0-.06,0-.14-.03-.26-.09-.35-.17-.45-.39-.39-1.22.12-1.81.26-.31.62-.51.98-.57.31-.05.6.02.8.2Zm1.79,3.96c.75-.28,1.36-.93,1.85-1.95.3.18.61.33.94.45l.77.28c.62.23,1.26.33,1.89.33.07,0,.14-.01.21-.02-.04.45.01.86.18,1.24.15.34.38.59.63.82-1.88,1.45-3.96.79-4.61.53-.94-.39-1.7-1.02-2.03-1.64.05-.02.11-.02.16-.04Zm9.29,1.5c-.14-.16-.22-.28-.27-.41,0-.02-.02-.04-.03-.06,0,0,0-.02-.01-.03,0-.01-.01-.03-.02-.04-.04-.09-.07-.19-.08-.28,0,0,0,0,0-.01-.14-.78.22-1.53.77-1.63.05,0,.1-.02.2-.01.54.01,1.04.54,1.18,1.23.07.33.04.69-.09.98-.04.09-.08.17-.12.23-.02.02-.03.03-.05.05-.17.2-.34.32-.55.35-.11.02-.23.01-.35-.01-.21-.05-.4-.16-.57-.35Zm3.42-.12l-.23-.16c.08-.41.09-.84,0-1.25-.22-1.14-1-2.02-1.93-2.32l-.09-.94c.58-.13,1.28-.54,2.02-1.54.85-1.15,1.64-2.99,1.97-4.8.92-.11,1.73-.29,2.42-.53.23,5.87-3,10.19-4.16,11.55Zm5.91-16.41c.35.23.49.69.36,1.22-.08.33-.29.67-.6,1.01.07-.18.1-.38.08-.58-.03-.38-.2-.73-.49-.98-.19-.17-.42-.27-.66-.32.64-.31,1.16-.45,1.32-.35Zm-2.74-4.7c.07.03.11.08.12.15.06.44.08.84.07,1.23-.07-.12-.15-.24-.26-.33-.29-.25-.66-.38-1.04-.35-.04,0-.07.01-.11.02.33-.29.66-.53.98-.71.11-.06.21-.03.24,0Zm-2.93-8.82c.99.38,1.59,3.89.34,8.78-.39.4-.78.88-1.12,1.46.97-1.97.9-3.79.6-5.07-.18-.77-.63-1.33-1.24-1.53-.61-.2-1.3-.02-1.9.49-1.29,1.11-1.98,2.3-2.33,3.4.03-.28.06-.55.06-.81,1.83-3.52,4.53-7.11,5.58-6.72Zm-7.65,4.37c.06.01.16.05.21.18.12.33.22.7.29,1.12-.06-.07-.1-.15-.17-.21-.29-.25-.67-.37-1.04-.35-.07,0-.13.04-.2.05.18-.24.38-.48.62-.71.11-.11.24-.09.29-.08Zm-.54,2.17l-.11.05.04-.11s0,0,0,0c.03,0,.06.03.06.06Zm-1.36.6c.08.19.2.35.36.49.26.23.59.35.94.35.03,0,.07,0,.1,0,.42-.03.78-.24,1.02-.54-.11.83-.4,1.74-1.01,2.71l-.21.37c-.2,0-.4-.03-.6-.02-.2,0-.39.03-.58.06-.11-.38-.22-.91-.24-1.55,0-.06,0-.16,0-.31,0-.48.07-1.01.22-1.56Zm-2.9-.73c.23-.01.4.04.55.19.04.04.08.1.12.15-.21-.09-.43-.13-.66-.11-.17.01-.33.06-.48.13.12-.18.27-.34.47-.35Zm-1.46,6.17c.2.35.45.67.72.96-.34.58-.61,1.19-.82,1.8-.74,2.1-.89,4.67.24,6.04-.04.44-.02.88.05,1.32l-.57.43c-.44-.21-.95-.29-1.47-.21-.71.11-1.38.49-1.88,1.07-.36.41-.58.88-.7,1.36-.28-2.81.05-7.81,4.43-12.77Zm-4.52,16.06c.86-.21,1.47-.23,1.86-.21.03,0,.06.01.09.01.08.02.16.03.21.03.01,0,.02,0,.03,0,0,0,.01,0,.02,0,.05,0,.11,0,.16,0,.07,0,.14,0,.21-.02.04,0,.07,0,.11,0h0s.03,0,.05,0c.17-.02.33-.06.49-.11.14.07.3.13.49.19.28,1.23,1.43,2.42,3.07,3.09.73.3,1.59.49,2.49.49,1.34,0,2.78-.43,4.02-1.57.12.2.24.36.34.48,0,0,0,.01.01.02.03.04.08.06.11.1.11.11.22.21.34.3.07.05.15.09.22.13.1.06.2.11.3.16.08.03.16.06.24.08.11.03.22.06.34.07.07.01.14.02.22.02.04,0,.08.01.12.01.14,0,.29-.01.44-.04.21-.04.41-.12.6-.22.03-.02.07-.03.1-.05.07-.04.14-.09.21-.14.04-.03.08-.05.12-.08.06-.05.11-.11.17-.16.04-.04.08-.07.12-.11l2.52,1.81c-3.9,3.3-8.63,4.68-12.82,3.69-3.7-.87-6.62-3.57-8.32-7.59l.06-.02c.48-.18.9-.3,1.26-.39Zm-6.94-6.75c-.27.65-.68,1.59-1.24,2.87-.43-.05-1.11-.24-1.85-.87.4-.64.81-1.3,1.26-2.02.31-.48.37-1.07.19-1.61,0,0,0-.02,0-.03-.46-1.72.4-3.16.4-3.17.16-.26.15-.6-.04-.85,0,0-.08-.11-.19-.28,0,0,0,0-.01-.01,0,0,0-.01,0-.02-.53-.74-.85-1.31-1.02-1.7.32.15.65.44.96.85,0,0,0,0,0,0,0,0,0,0,0,0,.54.66,1.09,1.63,1.58,2.82.51,1.25.5,2.71-.04,4Zm-3.26-2.3c0,.1.01.21.03.32l-.15-.11c.04-.07.08-.13.12-.2Zm8.71-19.41c.2,1.07.3,3.15-1.58,4.32-.27-.46-.7-.82-1.29-1.02-.12-.04-.24-.04-.36-.06,0-.53.13-1.01.42-1.44.68-1.01,2-1.56,2.81-1.81Zm-11.91,13.43c-.29.56-.58,1.13-.88,1.73.02-.43.1-.85.31-1.19.13-.22.33-.39.57-.53Zm-2.57,9.76c-.16-.08-.15-.43.03-.83,0-.02.82-1.94,2.02-4.49,0-.02.02-.03.02-.05.9-1.9,1.8-3.67,2.66-5.24,3.45-6.33,5.27-7.63,6.05-7.85.08-.02.15-.03.22-.03.06,0,.11,0,.16.02.45.15.56.38.58.72.16,1.61-1.97,5.01-3.77,7.76-.03-.02-.05-.04-.08-.06-.12-.1-.24-.19-.37-.26-.05-.04-.11-.08-.16-.11-.18-.1-.36-.19-.54-.25-.81-.27-1.39-.17-1.73.29-.02.03-.05.07-.08.12,0,0,0,0,0,.01-.03.05-.05.1-.08.16,0,0,0,.01,0,.02-.02.06-.04.13-.05.22,0,.01,0,.02,0,.03,0,.08,0,.18,0,.29,0,.02,0,.03,0,.05.01.11.04.23.08.37,0,.02.01.04.02.07.04.14.1.3.18.47.01.03.03.05.04.08.08.18.18.38.31.6.02.03.04.06.05.09.13.23.28.48.47.75,0,0,0,.02.02.02-.67,1.04-1.41,2.19-2,3.25-1.92,3.44-3.63,3.95-4.03,3.76Zm2.26,12.65c-1.44.11-2.02-.64-2.18-.91-.01-.18,0-.57.14-1.06.19-.65,1.12-2.66,4.93-8.87.73.57,1.44.85,2.01.98-.55,1.22-1.21,2.68-2.01,4.42l-.12.27s-.01.07-.02.1c-.01.04-.02.08-.03.13,0,.03-.02.06-.02.09,0,.03.01.06.02.09,0,.02,0,.03,0,.05,0,.02.02.04.02.05.02.06.03.11.06.16.02.03.04.06.06.08.03.04.07.09.11.12.03.03.06.04.1.07.04.03.08.05.12.07.08.03.16.05.24.05,0,0,.01,0,.02,0,0,0,0,0,0,0,0,0,0,0,0,0,.05,0,.1,0,.15-.01.19-.04,2.26-.7,2.5-.77l4.87-1.59c1.24,2.97,3.09,5.29,5.42,6.82.61,2.32,1.64,3.61,2.66,4.32-1.33,4.68,1.31,9.03,2.41,10.59-.39.39-.63.92-.63,1.52,0,1.18.96,2.14,2.15,2.14.13,0,.25-.01.3-.03.05,0,.1-.02.15-.04-.14.09-.3.17-.5.24-1.13.36-2.21.32-3.02-.12-.46-.25-.79-.63-.94-1.04.18-1.31.36-2.69.49-3.74.12-1.1-.22-2.2-.94-3.01-1.5-1.75-3.58-4.43-4.92-7.32-.1-.21-.19-.41-.28-.6-.09-.19-.17-.37-.23-.5l-.19-.46c-.16-.39-.3-.73-.41-1.04-.01-.04-.02-.08-.04-.12-.16-.37-.32-.82-.47-1.26-.09-.27-.19-.53-.28-.78-.32-.82-.69-1.63-1.45-1.66-.06,0-.11,0-.17.01-1.59.31-3.1.75-4.49,1.3,0,0,0,0,0,0h0c-1.15.46-3.05,1.05-5.58,1.27Zm4.99,3.92c0-.59.46-1.07,1.04-1.09.03,0,.06,0,.09,0,.59.02,1.06.5,1.06,1.1,0,.55-.39,1-.93,1.07-.03,0-.14.02-.16.02-.61,0-1.1-.49-1.1-1.09Zm.47,5.92c0-.59.47-1.08,1.07-1.1.03,0,.06,0,.09,0,.58.02,1.04.5,1.04,1.09,0,.44-.27.83-.67,1.01-.7.29-1.53-.26-1.53-1.01Zm1.38,5.52c0-.56.41-1.03.95-1.08.04,0,.1,0,.14-.02.61,0,1.1.49,1.1,1.1,0,.44-.26.83-.68,1.01-.12.05-.26.08-.42.08-.6,0-1.09-.49-1.09-1.09Zm2.29,6.24c0-.46.29-.87.74-1.03.11-.04.23-.06.36-.06.61,0,1.1.49,1.1,1.09,0,.42-.23.79-.65.99-.13.07-.29.11-.45.11-.61,0-1.1-.49-1.1-1.1Zm2.84,5.74c0-.43.25-.82.68-1,.12-.06.26-.09.42-.09.61,0,1.1.49,1.1,1.13,0,.14-.04.26-.09.38-.01.03-.03.07-.05.1-.03.06-.08.11-.12.16,0,0,0,0,0,0-.02.01-.04.02-.06.04-.09.06-.18.14-.24.24-.17.09-.35.14-.54.14-.61,0-1.1-.49-1.1-1.09Zm1.6,4.23l.81-1.54c.06.07.12.13.18.2.17.19.33.38.5.56.12.13.24.28.36.41,0,.02,0,.04-.02.07,0,.03-.01.06-.02.09-.06.21-.09.43-.09.66,0,1.43,1.17,2.6,2.6,2.6.2,0,.4-.03.59-.07.05-.01.1-.03.15-.04.15-.05.3-.1.44-.18.02-.01.05-.02.07-.03.16.1.31.19.47.28.2.12.4.24.61.35.01,0,.02.01.03.02,0,.05,0,.1,0,.15,0,.19.02.37.06.54.01.06.04.11.05.17.03.11.06.22.11.33.03.07.07.12.1.19.05.09.1.18.16.27.04.06.09.11.14.17.06.08.13.15.2.22.02.02.03.04.05.06-.12-.02-.24-.04-.36-.06-1.15-.2-2.33-.42-3.45-.74-.1-.05-.2-.09-.3-.09-1.9-.6-3.32-1.49-4.41-2.78.27-.47.6-1.09.97-1.79Zm4.88,16.29c-1.89-2.43-4.71-6.03-6.21-7.9-1.79-2.23-1.46-3.48-.44-5.25,1.16,1.25,2.61,2.14,4.46,2.77.23.38,1.15,1.93,2.13,3.7l.3.57c.37.69.75,1.4,1.08,2.08l.93,2.03c.02.07.05.14.08.21l.06.17c.57,1.5,1.28,2.82,1.9,3.99.28.52.53,1.02.77,1.5-.62.37-1.78.82-2.89.13-.16-.96-.55-1.88-1.15-2.67l-1.02-1.31Zm-2.75,7.05c-.84-.29-1.14-.66-1.12-.82,0-.1.15-.23.38-.27.86-.15,2.22.13,2.67.26.18.05.37.03.54-.05l1.73-.88c.66.39,1.33.56,1.96.56.85,0,1.64-.27,2.26-.6.1.28.18.55.23.8.16.85-.11,1.12-.31,1.23l-1.51-.05-.04-.02c-.92-.39-2.14-.23-3.12-.09l-.79-.03c-.99-.09-1.95-.08-2.83-.03h-.05Zm14.73,7.05s-2.63.43-4.65-.27c-.35-.14-8.68-3.47-13.44-.38-3.21,2.09-9.14,1.15-11.54.65-.95-.2-1.9-.08-2.67.34-.69.37-1.35.46-1.57.32-1.53-.99-5.73-4.17-6.31-4.61-.23-.28-.44-.63-.53-.86.42-.03,1.81.13,5.79,1.92l2,1.05c.15.08.32.11.48.08.37-.07,9.13-1.63,12.97-2.75l2.06-.6c.61-.18,1.51-.35,2.59-.43.54.14,1.09.19,1.64.19-.43.33-.44.74-.4.94.28,1.62,5.66,2.22,7.47,2.13,1.61-.07,4.2.55,7.22,1.28,1.19.29,2.44.59,3.75.88-2.06-.1-3.77-.11-4.85.12Zm21.09-.04c-1.92.66-5.56.58-9.28.36.05-.41-.24-.78-.65-.83-3.48-.44-6.79-1.24-9.72-1.94-3.26-.78-5.84-1.41-7.64-1.31-1.61.07-3.51-.24-4.75-.59,2.38-.1,7.26.25,11.33.54,2.5.18,4.85.35,6.62.41l2.66-.15,5.01.36s.04,0,.06,0c.39,0,.72-.3.75-.7.03-.41-.28-.77-.69-.8l-3.94-.29s.04-.07.07-.11c.02-.03.04-.06.06-.09.14-.22.3-.45.48-.66.49-.58,3.17-1.14,6.62.99,3.88,2.38,5.33,1.69,5.69,1.42.22-.17.33-.45.28-.73-.02-.11-.43-2.64,2.93-3.38,1.53-.34,3.55.32,5.36,1.32.01.03.01.07.03.1.41.75.47,1.43.2,2.07-.67,1.59-3.26,2.68-4.31,3-2.62-.1-4.16,0-7.17,1.02Zm12.47-.8c-.75-.02-1.42-.04-2.04-.07,1-.62,1.98-1.47,2.44-2.57.21-.49.29-1,.27-1.51.63.48,1.18.98,1.6,1.45,1.05,1.18,2.69,1.71,4.13,1.95-1.41.44-3.51.83-6.4.75Z"/>
  <path d="m59.72,30.46c-.11.06-.22.05-.27.03-.05-.01-.15-.06-.21-.17-.2-.36-.66-.49-1.02-.28-.36.2-.49.66-.28,1.02.24.43.64.74,1.12.88.17.05.33.07.5.07.32,0,.63-.08.91-.24.36-.2.49-.66.28-1.02-.2-.36-.66-.49-1.02-.28Z"/>
  <path d="m62.73,31.13c.46,0,.91-.12,1.32-.35.36-.2.49-.66.28-1.02-.2-.36-.66-.49-1.02-.28-.57.32-1.29.12-1.61-.45-.2-.36-.66-.49-1.02-.28-.36.2-.49.66-.28,1.02.35.62.93,1.07,1.62,1.26.24.07.48.1.72.1Z"/>
</svg>