<?xml version="1.0" encoding="UTF-8"?>
<svg id="icons" xmlns="http://www.w3.org/2000/svg" viewBox="0 0 120 120">
  <path d="m30.25,42.21c.17,0,.33,0,.5-.02,2.1-.17,4.25-1.45,4.98-2.98.48-1,.08-2.22-.92-2.7-1-.48-2.17-.09-2.65.9-.16.22-.98.8-1.91.8,0,0-.01,0-.02,0-.67,0-1.2-.32-1.67-1-.63-.91-1.88-1.13-2.78-.5-.91.63-1.13,1.88-.5,2.78,1.23,1.77,2.98,2.72,4.96,2.72Z"/>
  <path d="m65.98,53.55c0,3.19,2.39,5.78,5.34,5.78s5.34-2.59,5.34-5.78-2.39-5.78-5.34-5.78-5.34,2.59-5.34,5.78Zm5.34-1.78c.73,0,1.34.81,1.34,1.78s-.61,1.78-1.34,1.78-1.34-.81-1.34-1.78.61-1.78,1.34-1.78Z"/>
  <path d="m81.16,50.58c2.94,0,5.34-2.59,5.34-5.78s-2.39-5.78-5.34-5.78-5.34,2.59-5.34,5.78,2.39,5.78,5.34,5.78Zm0-7.56c.73,0,1.34.81,1.34,1.78s-.61,1.78-1.34,1.78-1.34-.81-1.34-1.78.61-1.78,1.34-1.78Z"/>
  <path d="m79.16,61.88c0,3.19,2.39,5.78,5.34,5.78s5.34-2.59,5.34-5.78-2.39-5.78-5.34-5.78-5.34,2.59-5.34,5.78Zm6.68,0c0,.96-.61,1.78-1.34,1.78s-1.34-.81-1.34-1.78.61-1.78,1.34-1.78,1.34.81,1.34,1.78Z"/>
  <path d="m11.61,51.33c-.11.13-.21.27-.32.4-3.35,3.67-1.29,8.46.37,12.31.77,1.79,1.5,3.48,1.64,4.79.08.7.04,1.72,0,2.8-.17,5.35-.5,15.3,12.73,16.66.07,0,.14.01.21.01.52,0,1.01-.21,1.37-.55.15.88.3,1.7.44,2.41.41,2.16,2.05,3.82,4.07,4.13.83.13,1.77.22,2.76.22,2.4,0,5.13-.53,7.48-2.33,1.41-1.08,2.13-2.97,1.88-4.92l-.65-4.97c-.07-.53,0-1.05.18-1.51l3.02,10.09v3.6c0,2.34,1.78,4.24,3.97,4.24h10.65c1.1,0,2.12-.46,2.87-1.31.82-.92,1.21-2.16,1.07-3.43l-.47-4.27-.47-9.32c1.58.5,3.6,1,5.58,1.11,0,.1,0,.21,0,.3q-.1,3.74-1,4.84l-.08.1c-.68.82-3.98,5.12-2.59,8.68.49,1.25,1.73,2.83,4.89,3.27.28.04,4,.55,7.76.55,3.26,0,6.56-.38,7.69-1.78.56-.69.71-1.6.4-2.44-.4-1.08-.69-4.51-.12-7.13.25.87.55,2.62.45,5.97-.04,1.34.47,2.62,1.4,3.52.86.83,1.97,1.25,3.12,1.17l10.52-.69c2.34-.15,4.13-2.31,3.99-4.81-.18-3.22-.95-9.53-4.05-16.15.25.04.51.04.76-.02.22-.05.42-.13.6-.25.35.6,1,.99,1.72.99.08,0,.16,0,.24-.01.87-.1,1.53-.74,1.71-1.55.29.16.61.24.95.24.15,0,.3-.02.45-.05,1.08-.24,1.75-1.32,1.51-2.39-.12-.52-1.17-4.82-3.95-7.35-.39-2.45-1.28-6.12-3.02-11.73-5.82-18.8-20.22-27.17-42.82-24.89-.03-.47-.08-.89-.16-1.27-.49-2.31-1.87-2.96-2.65-3.15-3.67-.86-9.84-.65-12.18-.53-3.22-3.08-6.74-4.47-10.47-4.11-5.08.48-10.15,4.26-14.28,10.63-2.61,4.02-4.14,7.95-5.33,11.26-.87-.68-2.01-1.66-3.4-3.09-.77-.79-2.04-.8-2.83-.03-.79.77-.8,2.04-.03,2.83,2.09,2.14,3.73,3.45,4.84,4.22-.15.4-.31.79-.46,1.16-1.25-.97-2.51-2.1-3.78-3.4-.77-.79-2.04-.8-2.83-.03-.79.77-.8,2.04-.03,2.83,1.56,1.59,3.12,2.96,4.68,4.13Zm5.69,20.44c.04-1.22.08-2.38-.03-3.36-.21-1.92-1.09-3.97-1.94-5.95-1.63-3.79-2.59-6.4-1.09-8.04.27-.29.52-.6.75-.91,2.43,1.33,4.88,2.16,7.38,2.5-1.61,1.48-2.79,3.28-2.24,5.65.33,1.41.79,2.73,1.2,3.9.91,2.62,1.43,4.29.81,5.72-1.43,3.3-3.6,8.3.84,10.9.67.4,1.01,1.08,1.18,1.76-7.21-1.68-7.03-7.23-6.87-12.18Zm9.09,3.13c-.1,1.42-.02,3.21.15,5.09-.42-.48-.92-.91-1.53-1.26-1.18-.69-.71-2.37.82-5.89,1.25-2.89.25-5.79-.72-8.59-.39-1.13-.8-2.3-1.08-3.51-.18-.77.91-1.76,2.19-2.73,1.47.7,3.6,1.29,6.09,1.29.26,0,.53,0,.81-.02.04,4.85-1.82,7.13-3.63,9.33-1.43,1.74-2.92,3.55-3.11,6.28Zm45.37,19.84c-.45-.06-1.52-.26-1.72-.77-.32-.83.59-3.02,1.96-4.69l.08-.1c1.77-2.16,1.79-2.74,1.9-7.27,0-.2.01-.44.02-.66,2.65-.24,5.5-.25,6.78-.23.99.84,2.22,1.95,3.32,3.07-1.8,3.3-1.64,8.2-1.16,10.88-1.97.35-6.57.41-11.19-.23Zm30.41-.87l-10.61.64c-.09-.09-.19-.27-.18-.52.12-4.04-.26-6.94-1.16-8.62-1.65-3.12-6.86-7.41-7.45-7.89-.34-.28-.77-.44-1.21-.45-.23,0-5.61-.14-9.79.45-2.85.4-7.24-1.19-8.69-1.84-.64-.28-1.37-.22-1.95.18-.57.39-.9,1.06-.87,1.75l.63,12.41s0,.08,0,.12l.48,4.33c.02.15-.03.25-.06.29h-10.48s-.06-.12-.06-.24v-3.9c0-.19-.03-.39-.08-.57l-3.98-13.31c-.03-.18-.08-.35-.16-.52l-3.55-11.85c-.32-1.06-1.43-1.66-2.49-1.34-1.06.32-1.66,1.43-1.34,2.49l3.24,10.82-.34.26c-1.84,1.42-2.79,3.81-2.47,6.25l.66,4.97c.07.57-.12,1.05-.35,1.23-2.31,1.77-5.5,1.6-7.19,1.33-.36-.06-.66-.43-.76-.93-1.2-6.35-1.79-11.54-1.6-14.24.1-1.39.86-2.38,2.21-4.01,2.04-2.48,4.78-5.81,4.53-12.6,2.53-.8,5.19-2.32,7.74-4.91,1.24,1.49,2.71,2.8,4.27,3.16,1.18.27,2.31.03,3.26-.69.23-.18.48-.44.74-.77l.08,6.99v8.56c0,.54.22,1.05.6,1.43.37.37.88.57,1.4.57.02,0,.03,0,.05,0l38.03-.88c1.01-.02,1.85-.8,1.95-1.81.05-.59,1.12-12.31-.48-24.39,1.37,1.98,2.55,4.2,3.54,6.66,1.64,5.69.64,9.2-.33,12.59-1.05,3.68-2.14,7.49.54,12.98,3.03,6.21,3.76,12.2,3.93,15.21.02.37-.19.59-.26.6Zm.32-26.24c-.54.74-1.25,1.93-1.66,3.46.04-1.61.48-3.13.98-4.91.08-.29.17-.59.25-.89.21,1,.34,1.76.42,2.34Zm-12.76-27.3c2.4,10.73,1.94,23.21,1.66,27.75l-34.16.79v-3.57c.9,1.8,2.67,3.03,4.69,3.03,2.94,0,5.34-2.59,5.34-5.78s-2.39-5.78-5.34-5.78c-2.05,0-3.83,1.26-4.72,3.1l-.15-12.77c.56-1.6,1.09-3.29,1.57-5,.47,2.68,2.64,4.71,5.24,4.71,2.94,0,5.34-2.59,5.34-5.78s-2.39-5.78-5.34-5.78c-1.64,0-3.11.81-4.09,2.07.24-1.18.43-2.32.57-3.4,12.78-1.4,22.53.71,29.4,6.4Zm-29.15,22.22c0-.96.61-1.78,1.34-1.78s1.34.81,1.34,1.78-.61,1.78-1.34,1.78-1.34-.81-1.34-1.78Zm1.93-21.52c0-.96.61-1.78,1.34-1.78s1.34.81,1.34,1.78-.61,1.78-1.34,1.78-1.34-.81-1.34-1.78Zm-27.06-16.22c1.73-.16,3.43.27,5.1,1.29-2.67,1.05-6.93,2.26-11.2,1.55,2.02-1.65,4.11-2.64,6.1-2.83Zm-16.68,20.55c1.26-3.54,2.68-7.55,5.38-11.72.63-.97,1.28-1.86,1.94-2.68,1.99.65,3.99.91,5.92.91,5.33,0,10.04-1.95,12.15-2.98.24.07.49.12.74.1,2.13-.15,8.2-.37,11.54.3.2.52.25,1.37.18,2.45-.03.15-.04.29-.04.45-.03.35-.07.71-.12,1.1-.49-.99-1.18-1.82-2.08-2.46-2.82-1.99-6.87-1.63-11.1.99-.94.58-1.23,1.81-.65,2.75.58.94,1.81,1.23,2.75.65,2.73-1.69,5.29-2.12,6.7-1.13,1.12.79,1.49,2.54,1.01,4.79-.23,1.08.46,2.14,1.54,2.38.03,0,.06,0,.09.01-.46,1.64-.97,3.28-1.49,4.78-.05.11-.09.23-.12.36-1.13,3.22-2.29,5.8-3.1,6.53-.98-.19-3.33-3.19-4.83-6.17-.5-.99-1.7-1.38-2.69-.89-.99.5-1.38,1.7-.89,2.68.2.4.53,1.02.95,1.74-4.63,5.07-9.49,5.38-12.47,4.79,1.24-1.12,2.24-2.42,2.45-4.05.14-1.1-.64-2.1-1.73-2.23-1.08-.13-2.1.64-2.23,1.73-.06.44-.47.95-1.03,1.47-3.63.54-7.09-.1-10.54-1.97.64-1.44,1.2-3.01,1.8-4.69Z"/>
</svg>