<?xml version="1.0" encoding="UTF-8"?>
<svg id="icons" xmlns="http://www.w3.org/2000/svg" viewBox="0 0 120 120">
  <path d="m10.62,54.99s0,.01.01.02c.11.16.25.3.39.42,3.22,3.25,10.07,5.52,13.27,6.44l8.51,14.34c1.26,2.13,1.93,4.56,1.93,7.04v2.32c-1.48,1.03-3.86,3.17-3.24,5.96.64,2.87,4.9,4.21,7.63,4.78.88,1.93,2.92,3.27,5.59,3.53.27.03.55.04.83.04,2.89,0,6.16-1.4,7.24-4.69,1.37-4.16-.05-7.22-.99-8.65.32-1.86,1.03-6.35,1.08-10.53,4.31.4,13.8.97,21.19-.81.26,1.15.64,2.23.98,3.19.35.99.93,2.64.7,3.09-3.75,2.73-5.96,9.01-5.16,11.25.78,2.19,6.41,4.26,9.31,4.26.03,0,.05,0,.08,0,3.2-.04,4.19-2.03,4.47-2.88.43-1.33.73-2.61,1.02-3.85.48-2.07.9-3.86,1.75-5.01.84-1.13,1.84-2.31,3.34-3.53.04,2.61-.85,4.34-1.72,6.02-.96,1.85-1.95,3.76-1.48,6.35.57,3.15,3.9,4.43,7.37,4.43.75,0,1.51-.06,2.24-.17,4.84-.75,7.81-3.47,7.39-6.78-.17-1.35-.04-3.38.11-5.73.34-5.23.79-12.3-1.98-18,.19-.41.37-.83.56-1.26.57-1.33,1.15-2.72,1.66-3.98,2.9,6.21,3.92,6.42,4.7,6.58.75.16,1.53-.11,2.03-.68,1.01-1.17.91-2.31-2.47-11.78-.35-.99-.75-2.1-.82-2.35h0c-.42-1.79-5.09-15.87-12.08-19.93-7.88-4.59-15.46-5.86-20.26-3.4-4.66,2.38-14.19,4.2-16.71,1.87-4.31-4-10.22-3.77-16.94-3.11-5.41.54-6.77-.89-9.03-3.25l-.47-.49c-.69-.72-2.81-2.9-4.91-1.82-.78.4-1.21,1.07-1.43,1.83-.52-.16-1.03-.24-1.53-.22-1.09.07-2.01.65-2.53,1.59-.91,1.64-.38,4.39.84,6.96l-6.7,4.64c-.24-1.05-.33-2.27.1-3.24.41-.92.14-1.99-.67-2.6-.8-.61-1.9-.58-2.67.07-1.94,1.63-7.94,7.88-3.66,19.94.22.63.61,1.23,1.11,1.8Zm89.88,30.59c-.16,2.55-.31,4.76-.09,6.49.11.9-1.73,1.96-4.03,2.32-2.85.44-4.94-.32-5.06-1.02-.22-1.19.23-2.12,1.09-3.79,1.18-2.28,2.76-5.34,1.94-10.37,1.95-1.23,3.82-3.39,5.67-6.53,1.04,4.16.73,8.9.48,12.9ZM12.73,40.78c.37,1.22.82,2.09.93,2.29.27.5.74.86,1.29,1,.55.14,1.14.02,1.61-.3l8.67-6c.79.97,1.65,1.77,2.51,2.27.31.18.66.27.99.27.69,0,1.37-.36,1.74-1.01.55-.96.22-2.18-.74-2.73-1.76-1.01-3.49-4.54-3.87-6.39,1.26.75,3.5,2.69,5.99,6.08.65.89,1.9,1.08,2.79.43.89-.65,1.08-1.9.43-2.8-.26-.35-.63-.84-1.08-1.41,1.91,1.08,4.47,1.69,8.58,1.28,6.66-.66,10.65-.56,13.46,1.75.95,3.19-.7,6.03-2.3,8.77-1.18,2.02-2.29,3.92-2.29,5.93,0,1.1.9,2,2,2s2-.9,2-2c0-.93.89-2.44,1.74-3.91,1.35-2.3,3.05-5.23,3.13-8.65,5.7,1.17,13.97-1.34,17.34-3.06,3.54-1.81,9.83-.55,16.43,3.29,5.43,3.16,9.88,16.01,10.16,17.2.02.1.04.21.08.36-.7.11-1.3.58-1.56,1.26-.02.04-1.7,4.43-3.36,8.29-3.2,7.44-5.8,10.08-7.42,10.99-.25.14-.47.28-.71.42-.12.06-.24.13-.34.21-3.56,2.19-5.48,4.37-6.89,6.25-1.36,1.82-1.89,4.09-2.45,6.5-.27,1.16-.55,2.35-.91,3.5-.87.65-4.82-.66-6.24-1.65.18-1.33,1.39-4.83,3.67-6.49,2.72-1.98,1.61-5.13.72-7.66-1.03-2.92-1.61-4.97-.29-6.74.66-.89.47-2.14-.41-2.8-.89-.66-2.14-.47-2.8.41-.78,1.05-1.21,2.12-1.41,3.19-4.71,1.3-10.76,1.42-15.44,1.25,2.33-3.97,1.38-9.95-2.66-16.26-.6-.93-1.83-1.2-2.76-.61-.93.6-1.2,1.83-.61,2.76,3.98,6.22,3.8,10.54,2.3,12.5-.53.69-1.24,1.11-2.02,1.22-1-.1-1.6-.17-1.63-.18,0,0-.02,0-.03,0-.14-.02-.28-.02-.41,0,0,0,0,0,0,0-.14.01-.28.04-.42.08-.02,0-.04.02-.06.03-.11.04-.21.08-.31.14-.04.02-.07.05-.11.07-.08.05-.16.11-.23.17-.01.01-.03.02-.05.03-.02.02-.04.05-.06.07-.06.06-.12.13-.18.21-.03.04-.06.09-.09.13-.04.07-.08.14-.12.22-.03.06-.05.11-.07.17,0,.03-.03.05-.03.08-.02.05-.02.1-.03.15-.01.06-.03.12-.04.18-.01.09-.01.18-.01.26,0,.04,0,.08,0,.12.3,5.29-1.12,12.69-1.13,12.77-.12.64.07,1.29.52,1.76.02.02,1.88,2.1.76,5.52-.5,1.53-2.37,2.06-3.89,1.92-1.13-.11-2.32-.63-2.45-1.53-.01-.17-.09-1.8,1.04-2.8,1.81-1.61,1.15-4.24.32-7.58-.78-3.1-1.74-6.96-.79-10.19.31-1.06-.29-2.17-1.35-2.49-1.06-.31-2.17.29-2.49,1.35-1.27,4.28-.1,8.91.74,12.3.33,1.33.78,3.12.72,3.79-1.07,1.03-1.65,2.28-1.95,3.43-1.67-.46-3.12-1.07-3.49-1.53.03-.43,1.09-1.52,2.28-2.16.65-.35,1.06-1.03,1.06-1.77v-3.43c0-3.2-.86-6.34-2.49-9.08l-8.14-13.7c1.45-1.73,3.59-5.28,3.69-11.25.02-1.1-.87-2.01-1.97-2.03h-.03c-1.09,0-1.98.88-2,1.97-.08,4.97-1.8,7.66-2.75,8.77-3.16-.94-6.45-2.26-8.76-3.55,1.8-.27,3,.4,3.06.44.94.59,2.17.31,2.76-.63.59-.94.31-2.17-.63-2.76-.17-.11-3.76-2.29-8.41-.24-1.48-4.56-1.19-7.98-.33-10.4Z"/>
  <path d="m74.39,65.87c.47,0,.94-.16,1.32-.5,8.34-7.3,8.49-13.58,4.75-27.58-.29-1.07-1.38-1.7-2.45-1.42-1.07.29-1.7,1.38-1.42,2.45,3.64,13.63,3.02,17.81-3.52,23.54-.83.73-.91,1.99-.19,2.82.39.45.95.68,1.5.68Z"/>
  <path d="m41.91,70.11c.38,0,.77-.11,1.11-.34.92-.61,1.17-1.85.56-2.77-1.81-2.72-5.79-14.96-1.43-22.23.57-.95.26-2.18-.69-2.74-.95-.57-2.17-.26-2.74.69-5.64,9.41-.33,23.7,1.53,26.51.39.58,1.02.89,1.67.89Z"/>
  <path d="m31.48,55.4c.66,3.87-.81,4.93-.8,4.93l1.91,3.51c.41-.22,3.98-2.38,2.83-9.12-.19-1.09-1.21-1.82-2.31-1.63-1.09.19-1.82,1.22-1.63,2.31Z"/>
  <path d="m23.4,48.2c.09,0,.17,0,.26,0,2.49,0,4.43-1.7,4.75-4.21.14-1.1-.63-2.1-1.73-2.24-1.09-.14-2.1.63-2.24,1.73-.03.21-.09.75-.85.72-.08,0-.74-.05-.75-.54-.04-1.1-.93-1.95-2.07-1.93-1.1.04-1.97.96-1.93,2.07.08,2.43,2,4.27,4.57,4.39Z"/>
</svg>