<svg id="Symbols" xmlns="http://www.w3.org/2000/svg" viewBox="0 0 150 150"><defs><style>.cls-1{fill:#231f20;}</style></defs><title>garuda-bold</title><g id="garuda_bold"><path class="cls-1" d="M131.34,48.15a5.12,5.12,0,0,0-1.45-5,4.92,4.92,0,0,0-2.41-1.11,7.64,7.64,0,0,0,.63-4.16c-.4-2.66-2.31-4.83-5.68-6.46l-2.06-1-.71,2.18a23.44,23.44,0,0,1-9.81,13.05l-.46-.8,5-5.19L110.75,39c-4.23-.79-7.24-.46-9.2,1A5.17,5.17,0,0,0,100,41.8a6.84,6.84,0,0,0-4.82.86c-1.23.8-2.7,2.44-2.68,5.71v1.82l1.81.16a19.62,19.62,0,0,1,5,.87c-1.26.9-2.88,2.05-4.64,3.33a19.45,19.45,0,0,0-2.44-.66,17.63,17.63,0,0,0-9.06.4l-.15-.47H84l-1.4-3A5.54,5.54,0,0,0,84,49.16a1.47,1.47,0,0,0,.17-.33c.93-2.07.54-4.72.17-6.53L84,40.4l-.58,1.85a10.91,10.91,0,0,1-.61,1.54,8.19,8.19,0,0,0-1-.73,4.49,4.49,0,0,0,.2-1.27,4.86,4.86,0,0,0-1.73-3.63,5.33,5.33,0,0,0,.23-1.49c0-2.73-3.3-5.37-4.32-6.11L75,29.69l-1.18.87c-1,.74-4.32,3.38-4.32,6.11a5.33,5.33,0,0,0,.23,1.49A4.84,4.84,0,0,0,68,41.79a4.49,4.49,0,0,0,.2,1.27,10.44,10.44,0,0,0-1,.72,10.15,10.15,0,0,1-.61-1.53l-.58-1.86-.39,1.91c-.36,1.76-.74,4.33.1,6.36a1.81,1.81,0,0,0,.12.28,3.36,3.36,0,0,0,.22.42,5.77,5.77,0,0,0,1.28,1.49l-1.4,3h.92l-.15.47a17.69,17.69,0,0,0-9.07-.4,19.77,19.77,0,0,0-2.43.66c-1.76-1.28-3.38-2.43-4.64-3.33a19.62,19.62,0,0,1,5-.87l1.81-.16V48.37c0-3.27-1.45-4.91-2.68-5.71A6.83,6.83,0,0,0,50,41.8,5.17,5.17,0,0,0,48.45,40c-2-1.48-5-1.81-9.2-1l-3.64.69,5,5.19-.46.8a23.44,23.44,0,0,1-9.81-13.05l-.71-2.18-2.06,1c-3.37,1.63-5.28,3.8-5.68,6.46a7.64,7.64,0,0,0,.63,4.16,5,5,0,0,0-2.41,1.11,5.12,5.12,0,0,0-1.45,5c.47,2.39,2.34,5.28,5.61,7.51a4.78,4.78,0,0,0-2.64,3.7c-.25,3.26,3.26,6,10.73,8.31a4.71,4.71,0,0,0,1.44,4.07A5.81,5.81,0,0,0,37.72,73a13.45,13.45,0,0,0,2.8-.33A4.35,4.35,0,0,0,41.09,75c1.19,2,3.9,2.93,7.57,2.6a8.41,8.41,0,0,0,4.78,3.66,14.93,14.93,0,0,0-7.36,4.09A5.06,5.06,0,0,0,45,90.62c1.34,3.35,6.41,5.55,15.06,6.55l2.07,1.55a3.1,3.1,0,0,1-.61.24c-1.27.38-3.62.33-7.57-2-2.63-1.69-5.47-1.56-7.23.33s-2.22,5.43.59,9.16l1.29,1.71,1.62-1.4a3.14,3.14,0,0,1,.81-.53,9.2,9.2,0,0,0,2.4,6.57l1.49,1.45,1.39-1.54c1.56-1.72,3.78-3.29,4.52-3.24,3.2,6.2,9,10.65,14.14,10.84h0c5.15-.19,11-4.64,14.15-10.84.75,0,3,1.52,4.51,3.24l1.4,1.55,1.49-1.46a9.2,9.2,0,0,0,2.4-6.57,3.14,3.14,0,0,1,.81.53l1.62,1.4,1.29-1.71c2.81-3.73,2.32-7.29.59-9.16s-4.6-2-7.17-.37c-4,2.37-6.36,2.42-7.63,2a3.1,3.1,0,0,1-.61-.24l2.06-1.55c8.66-1,13.73-3.19,15.07-6.54a5.06,5.06,0,0,0-1.07-5.28,14.93,14.93,0,0,0-7.37-4.1,8.36,8.36,0,0,0,4.79-3.66c3.67.33,6.38-.59,7.57-2.61a4.28,4.28,0,0,0,.57-2.31,14,14,0,0,0,2.79.32,5.81,5.81,0,0,0,3.92-1.25,4.71,4.71,0,0,0,1.44-4.07c7.47-2.32,11-5.05,10.73-8.31a4.78,4.78,0,0,0-2.64-3.7C129,53.43,130.87,50.54,131.34,48.15Zm-21.43,2a26.26,26.26,0,0,0,12.69-14,3.67,3.67,0,0,1,1.55,2.28c.28,1.84-1.48,3.94-2.17,4.59l-6,5.45c-3.41,2-6.86,3.8-8.94,4.88a19.6,19.6,0,0,0,1.51-2.61ZM95.34,59.06l.89-.65c4.34-3.14,8-5.73,8.06-5.75l2.42-1.7-2.48-1.62a14.49,14.49,0,0,0-7.37-2.74,1.54,1.54,0,0,1,.52-.58,3.63,3.63,0,0,1,3.15.06l2.56,1.17.26-2.8a1.6,1.6,0,0,1,.6-1.25,4,4,0,0,1,2.07-.6l-1.57,1.63,3.34,5.94A19.15,19.15,0,0,1,105,54.5a25.65,25.65,0,0,1-3.51,3.38,32.08,32.08,0,0,1-3.67,2.53c-1,.62-2.06,1.2-3.11,1.71-.85.42-1.67.78-2.46,1.12a30,30,0,0,0,.28-5.18,18,18,0,0,1,1.8.59ZM87.89,57.5a45.14,45.14,0,0,1-.57,7.55l-.07,0c-.72.22-1.32.39-1.77.51l1.12-3.5-1-.3L83.8,67.64a3.38,3.38,0,0,1-.62.54h0c-1.86,1.34-5.67,2.07-7.51.55a6.46,6.46,0,0,0,.74-3.17,2.49,2.49,0,0,0,1.72.7l.39,0,.11-.38a2.21,2.21,0,0,0-.89-2.5,2.28,2.28,0,0,0,.3-.17,2.75,2.75,0,0,0,2.65,1.53l.47,0,0-.47a2.56,2.56,0,0,0-.47-2,1.94,1.94,0,0,0-.84-.57c.06-.07.11-.15.17-.23a2.32,2.32,0,0,0,.73.52,2.38,2.38,0,0,0,1,.19,3.62,3.62,0,0,0,1.44-.32l.45-.19-.17-.45a2.33,2.33,0,0,0-2-1.73l.58-.36a10.39,10.39,0,0,1,2-1A11.65,11.65,0,0,1,87.89,57.5Zm-3.7,37.17,1,1.09-2,1.52-.34-.63-.6-1.14A19.8,19.8,0,0,0,84.19,94.67Zm-18.38,0a17.74,17.74,0,0,0,2,.84l-.94,1.77-2-1.52ZM73.25,64a1.55,1.55,0,0,1-.29.84,1.26,1.26,0,0,1-.69.41A1.58,1.58,0,0,1,73.25,64ZM79,62.62A1.37,1.37,0,0,1,80,63a1.23,1.23,0,0,1,.24.71,1.48,1.48,0,0,1-1.31-1Zm-4-1.35a7.23,7.23,0,0,1-4.06-2.79l.86-.76-.1-.12.49.18a6.34,6.34,0,0,1,1.72,1,1.74,1.74,0,0,0,1.06.49h0a1.71,1.71,0,0,0,1.08-.49,6.41,6.41,0,0,1,1.7-1l.51-.19-.1.12.86.76A7.19,7.19,0,0,1,75,61.27Zm-4.42-9.48A3.14,3.14,0,0,0,71,50.4a6,6,0,0,0-.1-1.59,20.19,20.19,0,0,1,8.29,0,6,6,0,0,0-.1,1.57,3.3,3.3,0,0,0,.38,1.42c.42.78.91,2.79-.29,4.07h0a3.72,3.72,0,0,1-1.68,1,6.94,6.94,0,0,0-2,1.12c-.27.21-.37.28-.48.28h0c-.09,0-.2-.08-.47-.28a7.24,7.24,0,0,0-2-1.14,3.72,3.72,0,0,1-1.66-1C69.68,54.6,70.16,52.57,70.58,51.79Zm10.11,8.84a1.3,1.3,0,0,1,1.62.56,1.67,1.67,0,0,1-1.09,0,1.16,1.16,0,0,1-.55-.48Zm-11.38,0,0,0a1.25,1.25,0,0,1-.56.48,1.66,1.66,0,0,1-1.09,0A1.29,1.29,0,0,1,69.31,60.64Zm1.68,2a.39.39,0,0,1,.1.08,1.45,1.45,0,0,1-1.31,1A1.23,1.23,0,0,1,70,63,1.33,1.33,0,0,1,71,62.62Zm.92-.57-.45-.33a5.78,5.78,0,0,1-.92-1h0l-.22-.34a3.38,3.38,0,0,1-.24-.41c-.09-.18-.17-.37-.24-.55l.33-.29a8.24,8.24,0,0,0,4.68,3.13l.14,0h0l.14,0a8.25,8.25,0,0,0,4.67-3.13l.33.29c-.07.18-.15.37-.24.55s-.16.3-.23.43a5.4,5.4,0,0,1-1.16,1.32,3.37,3.37,0,0,1-.43.34,5.56,5.56,0,0,1-1.72.77l-.18,0a4.86,4.86,0,0,1-.55.1,5,5,0,0,1-1.28,0,3.92,3.92,0,0,1-.53-.09l-.25-.06a5.52,5.52,0,0,1-1.44-.61Zm5.82,3.15a1.15,1.15,0,0,1-.68-.41,1.47,1.47,0,0,1-.29-.84A1.57,1.57,0,0,1,77.73,65.2Zm-3-1.21L75,64l.28,0A7.37,7.37,0,0,1,75,67.84,7.36,7.36,0,0,1,74.73,64ZM80.5,78.78l-.46.38.46.39a2.26,2.26,0,0,1,.86,1.93l-2.54,2.15L78,81.54h0a.47.47,0,0,0-.32-.28.58.58,0,0,0-.14,0h-5a.52.52,0,0,0-.39.2l-.07.11h0l-.85,2.09-2.54-2.15a2.27,2.27,0,0,1,.86-1.93l.46-.39-.46-.38A4.78,4.78,0,0,1,68,74.16l.67,1.89L69,76l.59,0c2.2-.2,4.39-.22,4.91,1.86l.49,2,.49-2c.51-2.08,2.7-2.06,4.9-1.86L81,76l.38,0L82,74.16A4.78,4.78,0,0,1,80.5,78.78Zm-5.08,9.38a.72.72,0,0,1-1-.15.69.69,0,0,1,0-.87.72.72,0,1,1,1.12.89l-.11.11.14.19h0ZM74.3,86a4.18,4.18,0,0,1,.7-1.18A4.16,4.16,0,0,1,75.7,86,1.88,1.88,0,0,0,74.3,86Zm-.85.84a1.53,1.53,0,0,0,0,1.4,4.14,4.14,0,0,1-1.17-.7A3.81,3.81,0,0,1,73.45,86.88Zm3.11,1.4a1.68,1.68,0,0,0,.17-.7,1.6,1.6,0,0,0-.17-.69,4.28,4.28,0,0,1,1.16.69A4,4,0,0,1,76.56,88.28ZM75,89.3a1.63,1.63,0,0,0,.69-.17A4.14,4.14,0,0,1,75,90.3a4,4,0,0,1-.69-1.16A1.63,1.63,0,0,0,75,89.3ZM83.21,82l0,0,0,0ZM65.28,68l.1.17a4.8,4.8,0,0,0,.73.68l1.36,3.84a5.65,5.65,0,0,0,1,6.44,3.34,3.34,0,0,0-.81,2.34,5.71,5.71,0,0,1-.78.46l.44-.4-.39-.42L66.36,81c-5.58-1.52-6.53-2.32-6.5-2.26l-.17-.19c.82-1.6,1.85-3.71,2.86-5.78s1.93-3.93,2.58-5.2ZM83.7,81l-.54.12-.42.44,0,0,0,0h0l.11.11.34.34a6.16,6.16,0,0,1-.82-.48,3.34,3.34,0,0,0-.81-2.34,5.65,5.65,0,0,0,1-6.44l1.36-3.84a4.37,4.37,0,0,0,.73-.68l.22-.68c.64,1.24,1.56,3.11,2.52,5.07,1,2.13,2.11,4.31,2.94,5.94l-.1.12C90.11,78.74,89.12,79.49,83.7,81ZM67.94,59.21l.58.36a2.32,2.32,0,0,0-2,1.73l-.17.45.45.19a3.61,3.61,0,0,0,1.43.32,2.38,2.38,0,0,0,1-.19,2.32,2.32,0,0,0,.73-.52l.18.23a1.88,1.88,0,0,0-.85.57,2.56,2.56,0,0,0-.47,2l0,.47.47,0A2.75,2.75,0,0,0,72,63.23c.1.05.2.12.31.17a2.22,2.22,0,0,0-.9,2.5l.11.38.39,0a2.51,2.51,0,0,0,1.74-.71,6.32,6.32,0,0,0,.74,3.19c-1.85,1.5-5.66.78-7.52-.56h0a3.38,3.38,0,0,1-.62-.54l-1.84-5.86-1,.3,1.1,3.49c-.44-.11-1-.27-1.76-.5l-.07,0a45.06,45.06,0,0,1-.56-7.55,12.15,12.15,0,0,1,3.8.72A10.79,10.79,0,0,1,67.94,59.21ZM44,42.6a4,4,0,0,1,2.07.6,1.6,1.6,0,0,1,.6,1.25l.26,2.8,2.56-1.17A3.63,3.63,0,0,1,52.62,46a1.54,1.54,0,0,1,.52.58,14.49,14.49,0,0,0-7.37,2.74L43.29,51l2.42,1.7s3.72,2.61,8.06,5.75l.89.65,1-.41a18,18,0,0,1,1.8-.59,29.08,29.08,0,0,0,.29,5.18c-.84-.36-1.67-.73-2.47-1.12a35.38,35.38,0,0,1-3.1-1.71,32,32,0,0,1-3.68-2.53A25.78,25.78,0,0,1,45,54.51a19.66,19.66,0,0,1-2.8-4.34l3.34-5.94ZM25.85,38.47a3.67,3.67,0,0,1,1.55-2.28,26.26,26.26,0,0,0,12.69,14l1.31.6a19.41,19.41,0,0,0,1.5,2.6c-2.13-1.11-5.71-3-9.19-5L28,43.06C27.33,42.41,25.57,40.31,25.85,38.47Zm-3.26,8.91a1.36,1.36,0,0,1,.15-1.19C23,46,24,45.73,26,46.42l5.92,2c5.47,3.23,11.63,6.38,12.39,6.76a23.85,23.85,0,0,0,2.29,2.33c-2.14-.29-6.08-.81-10.23-1.28l-6.09-2.07C25.6,52.61,23,49.55,22.59,47.38Zm3,12.32c.11-.31,1.33-1.26,4.26-1.61l6.57-.79c5.63.64,10.84,1.36,11.58,1.46.83.65,1.74,1.29,2.7,1.9-2.67.69-9.66,2.55-13.91,4.13l-1.64-.46C26.39,61.87,25.63,59.7,25.62,59.7Zm10.84,9c-.09-.08-.27-.61.11-1.94l.26-.94C41.59,64,50.66,61.71,51.9,61.39c.61.38,1.26.74,2,1.1a34.32,34.32,0,0,0-10,6.47l-.57-1.36C40,69,37.07,69.29,36.46,68.74Zm7.56.7h0l0,0ZM44.54,73c-.1-.18,0-1,1.05-2.25l-1.16-.94c.45-.42,5.31-4.91,10.64-6.65,1,.49,2.08,1,3.16,1.41l.91.35a70.56,70.56,0,0,0-8.35,8.53h-.88l-.34,0C46.35,74,44.77,73.34,44.54,73Zm7.32,2L51.61,74a70.52,70.52,0,0,1,8.59-8.73c.55.2,1.07.38,1.55.53l.35.12c1,.33,1.87.55,2.4.69-.66,1.25-1.72,3.42-2.84,5.71-1,2-2,4.12-2.83,5.7h-.54C56.73,78.05,52.55,77.59,51.86,74.91Zm9.74,18.4-.55-.06c-10.84-1.16-12.21-3.82-12.33-4.11,0-.14-.19-.49.42-1.21,1.23-1.47,4.36-2.94,8.39-3.43a5.91,5.91,0,0,0,4.64,3.57,4,4,0,0,0,1.43,2.51,4.21,4.21,0,0,0,2.7.88,3.35,3.35,0,0,0,2.87,1.48h0l-.89,1.68a17.29,17.29,0,0,1-2.39-1,24.33,24.33,0,0,1-7.59-6.08l-.8.61a25.3,25.3,0,0,0,7.38,6.07l-.83,1Zm-6.32,14.84a6,6,0,0,1-.08-3.05l.26-1.17-.91-.78a4.93,4.93,0,0,0-4.93-.66,2.5,2.5,0,0,1,0-2.48c.46-.49,1.4-.16,2.2.35,4.3,2.55,8,3.35,11,2.38a7,7,0,0,0,1.51-.7c-.71,1.34-1.38,2.62-2,3.73C60,104.74,57.2,106.49,55.28,108.15Zm5.54,1.28Zm37.39-9.11c.74-.47,1.68-.8,2.14-.31a2.5,2.5,0,0,1,0,2.48,4.93,4.93,0,0,0-4.93.66l-.91.78.26,1.17a6,6,0,0,1-.08,3.05c-1.92-1.66-4.72-3.41-7.12-2.38l-2-3.73a7,7,0,0,0,1.51.7C90.15,103.71,93.85,102.91,98.21,100.32Zm2.66-12.39c.61.72.46,1.09.42,1.21-.12.3-1.49,3-12.33,4.11l-.55.06L86,95.16l-.83-1a25.18,25.18,0,0,0,7.38-6.06l-.8-.61a24.3,24.3,0,0,1-7.6,6.08,18.09,18.09,0,0,1-2.38,1l-.45-.85L80.83,93h0a3.39,3.39,0,0,0,2.87-1.49,4.21,4.21,0,0,0,2.7-.88,4,4,0,0,0,1.43-2.51,5.9,5.9,0,0,0,4.63-3.56C96.5,85,99.63,86.46,100.87,87.93ZM91.66,78l-.5,0c-.82-1.62-1.87-3.75-2.89-5.84s-2.13-4.33-2.77-5.56c.55-.14,1.37-.36,2.4-.68l.35-.12h0c.48-.15,1-.33,1.56-.53A70.39,70.39,0,0,1,98.39,74l-.24.92C97.46,77.59,93.27,78.07,91.66,78ZM105.47,73c-.23.38-1.81,1-5,.48l-1.38-.24a72.69,72.69,0,0,0-8.18-8.33l.92-.36c1-.39,2-.86,3.14-1.39,5.08,1.66,9.66,5.73,10.65,6.65l-1.16.94C105.45,72,105.57,72.78,105.47,73Zm.5-3.51-.08.07.1-.12Zm7.57-.71c-.61.55-3.55.21-6.8-1.14L106.17,69a34.61,34.61,0,0,0-10-6.47c.66-.35,1.31-.71,2-1.1,1.24.32,10.29,2.65,15.06,4.47l.26.94C113.81,68.13,113.63,68.66,113.54,68.74Zm1.28-4.41-1.63.46c-4.26-1.58-11.25-3.44-13.91-4.13.94-.61,1.85-1.23,2.69-1.9.74-.1,6-.82,11.58-1.46l6.57.79c2.93.35,4.15,1.3,4.26,1.55C124.38,59.67,123.67,61.85,114.82,64.33Zm12.59-16.95c-.42,2.17-3,5.23-7.7,6.83l-6.09,2.08c-4.15.47-8.09,1-10.23,1.27a26,26,0,0,0,2.27-2.31c.62-.31,6.88-3.5,12.42-6.78l5.91-2c2-.69,3-.47,3.27-.23A1.36,1.36,0,0,1,127.41,47.38Z"/><path class="cls-1" d="M75,57.29a4.63,4.63,0,0,0,1.45-.22,4.41,4.41,0,0,0,2.41-1.71A3.41,3.41,0,0,0,79.44,54l.06-.32-.28-.19a7,7,0,0,0-2.63-1,3,3,0,0,0,.26-.59,1.24,1.24,0,1,0,1-2,1.23,1.23,0,0,0-.94.45,2.07,2.07,0,0,0-3.86,0,1.22,1.22,0,0,0-.93-.44,1.25,1.25,0,0,0-1.25,1.25,1.23,1.23,0,0,0,2.26.7,3.11,3.11,0,0,0,.26.6,7.19,7.19,0,0,0-2.62,1l-.29.19.07.34a3.67,3.67,0,0,0,.58,1.33,4.41,4.41,0,0,0,2.39,1.73A4.74,4.74,0,0,0,75,57.29Zm.61-2.47a7.18,7.18,0,0,1,2,.44,3.3,3.3,0,0,1-1.08.7A5.63,5.63,0,0,0,75.61,54.82ZM73.45,56a3.54,3.54,0,0,1-1.07-.7,7.27,7.27,0,0,1,2-.44A5.63,5.63,0,0,0,73.45,56Zm1,.29a5.27,5.27,0,0,1,.54-.63,5.27,5.27,0,0,1,.54.63A3.91,3.91,0,0,1,74.46,56.25Zm3.76-1.82a8,8,0,0,0-2.73-.61,5.47,5.47,0,0,0,.42-.42,6.5,6.5,0,0,1,2.46.74A2,2,0,0,1,78.22,54.43Zm-.35-3.49a.26.26,0,0,1,.25.25c0,.28-.5.28-.5,0A.25.25,0,0,1,77.87,50.94ZM75,50.07c.71,0,1,0,1,1a2.36,2.36,0,0,1-.66,1.48c-.12.14-.24.26-.34.36-.1-.1-.22-.22-.34-.36A2.36,2.36,0,0,1,74,51.07C74,50.11,74.29,50.07,75,50.07Zm-3.11,1.12a.25.25,0,0,1,.25-.25.26.26,0,0,1,.25.25C72.39,51.47,71.89,51.47,71.89,51.19Zm2.2,2.21c.17.18.32.32.43.42a8.37,8.37,0,0,0-2.73.6c-.05-.1-.11-.19-.15-.29A7,7,0,0,1,74.09,53.4Z"/><path class="cls-1" d="M69.58,69a1.25,1.25,0,0,0,1.25-1.25,1.24,1.24,0,0,0-1.25-1.25,1.25,1.25,0,0,0,0,2.5Zm0-1.5a.24.24,0,0,1,.25.25c0,.27-.5.27-.5,0A.25.25,0,0,1,69.58,67.47Z"/><path class="cls-1" d="M80.42,66.47a1.25,1.25,0,1,0,1.25,1.25A1.24,1.24,0,0,0,80.42,66.47Zm-.25,1.25a.25.25,0,0,1,.5,0C80.67,68,80.17,68,80.17,67.72Z"/></g></svg>