<?xml version="1.0" encoding="UTF-8"?>
<svg id="icons" xmlns="http://www.w3.org/2000/svg" viewBox="0 0 120 120">
  <path d="m10.89,56.43c3.41,1.33,8.21-1.19,11.22-3.15.7,1.21,1.86,2.03,3.35,2.32.24.05.48.07.72.07.17,0,.34-.03.5-.06l12.55,18.48.58,28.94c.03,1.57,1.24,2.8,2.74,2.8h3.59c1.43,0,2.63-1.17,2.73-2.65l.85-12.22,1.84,12.44c.21,1.41,1.34,2.43,2.71,2.43h4.31c.74,0,1.43-.3,1.95-.85.54-.58.83-1.37.79-2.18l-1.48-26.54,12.07.56,4.35,8.54c.58,1.15.65,2.56.18,3.78l-4.43,11.47c-.35.92-.24,1.94.31,2.75.51.75,1.34,1.19,2.23,1.19h4.37c1.09,0,2.07-.67,2.51-1.71l5.6-13.27c.66-1.56.84-3.35.52-5.03l-.46-2.38,1.9,2.08c.31.34.41.95.22,1.44l-5.53,14.97c-.34.91-.21,1.93.34,2.72.51.74,1.34,1.18,2.22,1.18h4.38c1.11,0,2.1-.69,2.53-1.75l7.38-18.4c.85-2.13.42-4.66-1.09-6.29l-2.78-3.01,2.03-6.08c1.34.89,2.64,1.16,3.64,1.19.08,0,.16,0,.25,0,4.43,0,7.95-4.1,8.35-4.57.46-.56.59-1.32.32-2s-.87-1.16-1.59-1.26c-1.84-.26-2.6-1.49-4.28-4.51-1.36-2.45-3.06-5.49-6.23-8.92-3.73-4.04-13.6-4.21-28.24-4.01-5.01.07-9.74.13-13.17-.17-8.73-.77-21.51-8.59-25.77-11.34,4.62-9.6,3.53-11.36,3.11-12.04-.46-.75-1.25-1.19-2.15-1.19-1.37,0-3.34,1.32-5.45,3.2.73-3.15.62-5.31-.34-6.45-.75-.89-1.89-1.24-3.14-.95-4.95,1.13-7.85,11.53-8.77,15.39-1.64,2.08-9.02,12.04-7.69,20.37.47,2.96,2.08,4.17,3.35,4.66Zm7.73-22.87c.2-.24.34-.52.41-.83,1.09-4.8,3.18-10.26,4.91-12.16-.29,2.14-1.57,6.24-3.21,10.08-.39.91-.06,1.96.78,2.49.84.52,1.93.36,2.58-.39,2.38-2.77,4.93-5.37,6.76-6.96-.75,2.11-2.01,5-3.24,7.46-.45.89-.17,1.98.66,2.54.71.49,17.51,11.95,29.12,12.98,3.63.32,8.46.26,13.57.19,9.47-.13,22.45-.3,25.25,2.73,2.85,3.08,4.42,5.9,5.67,8.16,1.15,2.06,2.2,3.95,3.84,5.17-.98.69-2.17,1.25-3.26,1.21-1.1-.04-2.09-.7-3.04-2.02-.44-.61-1.18-.92-1.92-.81-.74.11-1.36.63-1.6,1.34l-3.41,10.22c-.23.69-.07,1.45.43,1.99l3.58,3.88c.46.5.6,1.38.31,2.09l-7.07,17.65h-1.75l4.98-13.48c.7-1.91.3-4.07-1.02-5.52l-8.04-8.81c-2.64-2.9-3.58-7.37-2.39-11.41l.16-.53c.31-1.06-.29-2.17-1.35-2.48-1.06-.31-2.17.29-2.48,1.35l-.16.53c-1.58,5.35-.3,11.33,3.27,15.24l.98,1.07,1.69,8.79c.18.92.08,1.89-.27,2.72l-5.29,12.53h-1.73l3.85-9.97c.87-2.27.74-4.9-.35-7.04l-4.88-9.58c-.33-.64-.97-1.06-1.69-1.09l-13.64-.63-.18-3.3c-.06-1.1-1.01-1.93-2.11-1.89-1.1.06-1.95,1.01-1.89,2.11l1.83,32.67h-1.88l-4.38-29.66c-.15-1.01-.99-1.75-2.06-1.71-1.02.04-1.85.84-1.92,1.86l-2.06,29.51h-1.17l-.57-28.42c0-.39-.13-.76-.34-1.08l-12.76-18.8c2.45-2.66,4.22-7.17,5.06-9.62.36-1.04-.2-2.18-1.25-2.54-1.05-.36-2.18.2-2.54,1.25-1.28,3.74-3.27,7.43-4.53,8.63-.19.06-.37.13-.54.25-.06.04-.11.09-.17.14-.43-.1-.56-.29-.63-.47-.1-.25-.15-.59-.14-1.01,0-.06,0-.11.01-.17.12-1.81,1.32-5.05,4.54-9.71.63-.91.4-2.15-.51-2.78-.91-.63-2.15-.4-2.78.51-2.21,3.2-4.54,7.27-5.11,10.79-2.88,2.13-7.36,4.6-9.19,3.9-.16-.06-.64-.25-.85-1.56-1.18-7.38,7.05-17.47,7.13-17.58Z"/>
  <path d="m15.78,43.92c1.01.62,2.02.93,2.99.93,1.24,0,2.4-.51,3.33-1.52,1.47-1.59,2.25-4.55,1.09-6.13-.65-.89-1.91-1.08-2.8-.43-.77.57-1.02,1.59-.64,2.43-.02.43-.34,1.3-.79,1.58-.28.17-.74-.05-1.09-.26-.94-.58-2.17-.29-2.75.65-.58.94-.29,2.17.65,2.75Z"/>
</svg>