<svg id="Symbols" xmlns="http://www.w3.org/2000/svg" viewBox="0 0 150 150"><defs><style>.cls-1{fill:#231f20;}</style></defs><title>gorochana-bold</title><path id="gorochana_bold" class="cls-1" d="M122.15,79.86h-1.82a39.59,39.59,0,0,0,.61-7.21c-.12-11-7.14-18.86-18.31-20.6a23.32,23.32,0,0,0-9.31.57,17.54,17.54,0,0,0,.07-5.51,21.21,21.21,0,0,0-24-17.89A25.39,25.39,0,0,0,47.64,53.61,29.25,29.25,0,0,0,29.07,79.86H27.85a3.36,3.36,0,0,0-3.35,3.35v1.05a3.33,3.33,0,0,0,2.59,3.26l1.15.69.1,1.77c0,.22,0,.46.08.68a24.09,24.09,0,0,0,10.19,16.7l.23.17a29.8,29.8,0,0,0,3.41,2.1l.44.23h3.73V112H38.69l-4.82,3.14a2.93,2.93,0,0,0,.06,5.86h82.14a2.93,2.93,0,0,0,.06-5.86L111.31,112h-7.73v-2.14h3.71l.43-.22a28.09,28.09,0,0,0,3.43-2.11l.22-.17a24,24,0,0,0,10.21-16.71c0-.23.06-.45.08-.67l.11-1.93.77-.46a3.35,3.35,0,0,0,3-3.33V83.21A3.36,3.36,0,0,0,122.15,79.86ZM101.4,60c4.26.66,11.43,3.2,11.54,12.79a32.61,32.61,0,0,1-.76,7.11H95.49c0-1.61.05-3,.13-3.87a4.88,4.88,0,0,1,5.29-4.45,3.12,3.12,0,0,1,2.83,3.38l8,.69a11.15,11.15,0,0,0-10.1-12,12.89,12.89,0,0,0-14,11.71c-.12,1.34-.16,3-.16,4.58h-10c.64-5.14,3.66-10.41,8.36-14.42C90.78,61.25,96.57,59.21,101.4,60ZM70.56,37.13A13.18,13.18,0,0,1,85.47,48.26a9.73,9.73,0,0,1-8.23,11,7,7,0,0,1-7.91-5.9,4.8,4.8,0,0,1,4-5.43,3.05,3.05,0,0,1,3.44,2.57l7.92-1.15a11.05,11.05,0,0,0-12.51-9.33A12.8,12.8,0,0,0,61.29,53a21.43,21.43,0,0,0-4.12-.78c-.46,0-.93-.06-1.4-.07A17.41,17.41,0,0,1,70.56,37.13Zm-18,23.36a13,13,0,0,1,3.9-.26A13.38,13.38,0,0,1,68.61,74.71a20.89,20.89,0,0,1-.86,5.15H52.11A11.15,11.15,0,0,1,51.43,76a4.88,4.88,0,0,1,5.29-4.44,3.11,3.11,0,0,1,2.83,3.37l8,.71a11.13,11.13,0,0,0-10.1-12.05,12.89,12.89,0,0,0-14,11.7,15.31,15.31,0,0,0,.39,4.59H37.08C37.45,70.16,45.2,62,52.56,60.49ZM121,83.86l-1.66,1H30.43l-1.66-1Zm-15,14.52v.06c-.44,2.09-1.11,4.59-2,7.42H99.13c.67-2.74,1.15-5.08,1.47-7.11v-.07a24.27,24.27,0,0,1,2.85-6.82h3.1a20.21,20.21,0,0,1-.62,6.52Zm-59.88,7.48c-.83-2.75-1.49-5.22-2-7.32a20.82,20.82,0,0,1-.65-6.68h3.08a24.57,24.57,0,0,1,2.87,6.86v0c.32,2,.8,4.37,1.47,7.11Zm53.57-7.4v0l0,.11c-.32,2.05-.82,4.45-1.51,7.26H93.26c.5-2.68.87-5.09,1.07-7.18a23.24,23.24,0,0,1,2.45-6.82h3.1a19.5,19.5,0,0,1-.24,6.59h0Zm-49.24.07a20,20,0,0,1-.27-6.67h3.11a22.42,22.42,0,0,1,2.44,6.75v0c.2,2.08.56,4.5,1.07,7.2H51.91c-.69-2.81-1.19-5.19-1.5-7.18Zm6.39-6.67H59.9A21.87,21.87,0,0,1,62,98.59v.11c.09,2,.33,4.44.69,7.16H57.77c-.52-2.74-.89-5.21-1.1-7.32A20,20,0,0,1,56.78,91.86Zm6.67,0h3.12a21.48,21.48,0,0,1,1.67,6.86h0c0,2,.07,4.43.27,7.14H63.65c-.37-2.75-.61-5.19-.7-7.28A20.1,20.1,0,0,1,63.45,91.86Zm9.78,0a21.33,21.33,0,0,1,1.27,6.82c-.13,2.09-.17,4.5-.12,7.18H69.51c-.2-2.71-.29-5.12-.27-7.15a20.92,20.92,0,0,1,.88-6.85Zm6.67,0a21,21,0,0,1,.88,6.76c0,2-.06,4.46-.28,7.24H75.38c0-2.67,0-5.08.12-7.15a21.44,21.44,0,0,1,1.28-6.85Zm6.67,0a19.85,19.85,0,0,1,.51,6.58l-.07.13.06.14c-.1,2.06-.34,4.51-.7,7.15H81.51c.21-2.78.3-5.16.27-7.24a21.76,21.76,0,0,1,1.67-6.76Zm6.65,0a19.73,19.73,0,0,1,.12,6.71c-.21,2.09-.58,4.55-1.1,7.29H87.38c.33-2.49.56-4.76.67-6.77V98.8a.86.86,0,0,0,0-.16,22,22,0,0,1,2.05-6.78Zm-30.75,18-1.89,1.44-1.88-1.44Zm5.23,0-1.88,1.44-1.89-1.44Zm5.24,0-1.89,1.44-1.89-1.44Zm5.24,0-1.89,1.44-1.89-1.44Zm5.24,0-1.89,1.44-1.89-1.44Zm5.24,0-1.89,1.44-1.89-1.44Zm5.24,0L92,111.3l-1.89-1.44Zm7-18h1.37a19.15,19.15,0,0,0-1.22,2.48A12.2,12.2,0,0,0,100.9,91.86Zm-6.38,2.52a12.38,12.38,0,0,0-.28-2.52h1.38A18.69,18.69,0,0,0,94.52,94.38ZM88,94.4a14.9,14.9,0,0,0-.42-2.54H89A16,16,0,0,0,88,94.4Zm-6.52,0A14,14,0,0,0,81,91.86h1.39A15.87,15.87,0,0,0,81.51,94.41Zm-6.51,0a14.28,14.28,0,0,0-.69-2.57H75.7A15.1,15.1,0,0,0,75,94.43Zm-6.49,0a15.29,15.29,0,0,0-.85-2.58h1.4A14.41,14.41,0,0,0,68.51,94.44Zm-6.51,0a16.07,16.07,0,0,0-1-2.55h1.4A13.13,13.13,0,0,0,62,94.41Zm-6.52,0a17.23,17.23,0,0,0-1.09-2.5h1.37A12.91,12.91,0,0,0,55.48,94.36Zm-6.52,0a18.06,18.06,0,0,0-1.23-2.49h1.38A12.35,12.35,0,0,0,49,94.35Zm-6.52,0a19.47,19.47,0,0,0-1.34-2.46h1.37A12.27,12.27,0,0,0,42.44,94.32Zm14.8,15.54-1.89,1.44-1.88-1.44ZM54.62,112H50.85l1.89-1.44ZM58,110.56,59.85,112H56.08Zm5.23,0L65.09,112H61.31Zm5.23,0L70.32,112H66.55Zm5.24,0L75.56,112H71.78Zm5.24,0L80.8,112H77Zm5.24,0L86,112H82.26Zm5.24,0L91.28,112H87.5Zm5.24,0L96.52,112H92.74Zm.73-.7h3.78l-1.89,1.44Zm12.19-18h1.36a21.24,21.24,0,0,0-1.34,2.44A11.47,11.47,0,0,0,107.55,91.86Zm8,0a21,21,0,0,0-1.47,2.43,11,11,0,0,0,.1-2.43Zm-79.76,0a11.47,11.47,0,0,0,.1,2.41,21.54,21.54,0,0,0-1.45-2.41Zm-3.15,0h.55a27.75,27.75,0,0,1,3.66,6.94v0c.19.69.41,1.44.64,2.21A19.45,19.45,0,0,1,32.66,91.86Zm8.71,12.56-.24-.18a25,25,0,0,1-2.09-1.7c-.47-1.44-.88-2.79-1.22-4a21,21,0,0,1-1-6.65h3.07a26,26,0,0,1,3.26,6.89c.44,2.06,1.07,4.45,1.88,7.11H43.69A26.11,26.11,0,0,1,41.37,104.42ZM52,109.86l-1.59,1.21v-1.21ZM111.66,117H38.34l1.53-1h70.25ZM98,112l1.6-1.22V112Zm10.68-7.63,0,0a22.29,22.29,0,0,1-2.3,1.44H105c.82-2.74,1.45-5.17,1.88-7.21a25.91,25.91,0,0,1,3.23-6.79h3.09a21,21,0,0,1-1,6.71c-.33,1.22-.74,2.55-1.2,4a25.67,25.67,0,0,1-2,1.66ZM112.5,101c.23-.75.44-1.49.63-2.18a28,28,0,0,1,3.69-7h.52A19.44,19.44,0,0,1,112.5,101Z"/></svg>