<?xml version="1.0" encoding="UTF-8"?>
<svg id="icons" xmlns="http://www.w3.org/2000/svg" viewBox="0 0 120 120">
  <path d="m25.82,23.69c.8-.11,1.58.51,1.82,1.48,0,0,0,0,0,0,.05.18.07.36.08.54.06,1.05-.17,1.88-1.12,5.23-.8,2.8-2.01,7.03-3.8,14.23-2.13,8.57-1.66,14.78,1.47,19.55,3.57,5.43,10.55,8.85,21.96,10.75,4.39.73,8.5,1.03,12.35,1.03.86,0,1.68-.04,2.5-.06l5.39,9.35-5.7,15.45-10.52,1.4c-1.09.15-1.86,1.15-1.72,2.25.13,1,.99,1.74,1.98,1.74.09,0,.18,0,.27-.02l3.27-.44-1.14.77c-.92.62-1.16,1.86-.54,2.78.39.57,1.02.88,1.66.88.38,0,.77-.11,1.12-.34l7.6-5.12,5.71.61c1.09.11,2.08-.68,2.2-1.77.12-1.1-.68-2.08-1.77-2.2l-3.89-.42,5.55-15.05c.21-.56.15-1.18-.14-1.69l-4.86-8.44c2.61-.24,5.09-.6,7.41-1.02l6.95,12.04-2.54,15.4-7.09,3.52c-.99.49-1.39,1.69-.9,2.68.35.7,1.06,1.11,1.79,1.11.3,0,.6-.07.89-.21l4.31-2.14-.13.63c-.23,1.08.47,2.14,1.55,2.37.14.03.28.04.41.04.93,0,1.76-.65,1.96-1.59l.77-3.66,4.96-2.18c1.01-.44,1.47-1.62,1.03-2.64-.44-1.01-1.62-1.47-2.64-1.03l-2.52,1.11,2.23-13.47c.08-.46,0-.92-.24-1.33l-6.64-11.51c2.51-.56,4.85-1.16,6.98-1.71,2.88-.75,5.37-1.39,7.64-1.79,10.81-1.88,17.83-15.35,18.13-15.93.32-.63.29-1.39-.09-1.98-.38-.6-1.01-.97-1.76-.93-5.71.2-10.88-1.39-14-2.64,2.92-2.88,3.05-6.85,2.55-8.96-.13-.57-.5-1.04-1.02-1.31-.51-.27-1.12-.3-1.66-.09-3.27,1.29-5.4.37-9.64-1.47-3.73-1.61-8.85-3.82-16.96-5.21-13.43-2.3-19.49,2.68-23.49,5.97-.7.58-1.35,1.11-1.95,1.52.19-.83.46-1.84.7-2.72,1.12-4.17,2.65-9.88,1.78-15.23-1.88-11.49-10.98-15.73-19.18-14.8-8.4.93-17.65,13.4-18.68,14.82-.36.5-.47,1.14-.3,1.73.17.59.61,1.07,1.19,1.3,1.69.66,7.91.27,18.5-1.17Zm-.27-12.71c5.85-.65,13.23,1.96,14.79,11.47.74,4.5-.67,9.73-1.69,13.55-1.06,3.93-1.69,6.3-.15,7.76.57.54,1.59,1.05,3.27.5,1.61-.54,2.96-1.65,4.53-2.93,3.85-3.17,8.64-7.11,20.27-5.12,7.64,1.31,12.3,3.33,16.05,4.94,3.7,1.6,6.57,2.84,10.06,2.26-.22,1.46-1.04,3.3-3.56,4.37-.02,0-.04.03-.06.03-.13.06-.24.13-.36.21-.04.03-.07.05-.11.09-.11.1-.21.2-.3.32,0,.01-.02.02-.03.04,0,0,0,0,0,.01-3.21,4.65-11.09,9.73-19.97,10.45-5.19.42-12.77-.52-19.4-7.41-.77-.8-2.03-.82-2.83-.05-.8.77-.82,2.03-.05,2.83,6.74,7,14.32,8.73,20.17,8.73.85,0,1.67-.04,2.44-.1,9.66-.79,17.76-5.89,21.86-10.77.12.06.24.11.38.18-.25.24-.45.55-.55.91-.3,1.06.32,2.17,1.39,2.46l10.82,3.02c-.14.18-.29.36-.44.55l-13.86-3.63c-1.07-.28-2.16.36-2.44,1.43-.28,1.07.36,2.16,1.43,2.44l11.73,3.07s-.08.07-.11.1l-13.36-2.58c-1.09-.21-2.13.5-2.34,1.58-.21,1.08.5,2.13,1.58,2.34l2.59.5-6.45-.98c-1.09-.16-2.11.58-2.28,1.68-.17,1.09.58,2.11,1.68,2.28l4.69.71c-.61.16-1.23.32-1.86.48-9.23,2.4-20.73,5.38-36.17,2.81-10.24-1.7-16.36-4.56-19.28-9-2.47-3.77-2.77-8.97-.93-16.39,1.77-7.13,2.97-11.32,3.76-14.09,1-3.49,1.37-4.79,1.27-6.56-.03-.44-.09-.87-.2-1.3-.74-2.92-3.44-4.84-6.24-4.45-1.35.18-2.63.35-3.83.5-.24-1.82-.87-4.27-2.54-5.75-.02-.02-.04-.03-.06-.05,2.28-1.82,4.64-3.21,6.71-3.44Zm-9.83,6.23c.25.04.41.14.53.25.66.58,1.04,1.92,1.22,3.21-2.17.23-3.99.38-5.39.46,1.05-1.23,2.29-2.6,3.64-3.92Z"/>
  <path d="m24.01,18.78c1.83,0,3.32-1.6,3.32-3.56s-1.49-3.56-3.32-3.56-3.32,1.6-3.32,3.56,1.49,3.56,3.32,3.56Zm0-4c.39,0,.68.26.68.44s-.29.44-.68.44-.68-.26-.68-.44.29-.44.68-.44Z"/>
</svg>