<?xml version="1.0" encoding="UTF-8"?>
<svg id="icons" xmlns="http://www.w3.org/2000/svg" viewBox="0 0 120 120">
  <path d="m68.93,48.19c.86,0,1.56-.83,1.56-1.86s-.7-1.86-1.56-1.86-1.56.83-1.56,1.86.7,1.86,1.56,1.86Z"/>
  <path d="m62.49,52.48c.86,0,1.56-.83,1.56-1.86s-.7-1.86-1.56-1.86-1.56.83-1.56,1.86.7,1.86,1.56,1.86Z"/>
  <ellipse cx="58.37" cy="56.95" rx="1.56" ry="1.86"/>
  <path d="m68.23,54.33c0,1.03.7,1.86,1.56,1.86s1.56-.83,1.56-1.86-.7-1.86-1.56-1.86-1.56.83-1.56,1.86Z"/>
  <ellipse cx="72.23" cy="61.51" rx="1.56" ry="1.86"/>
  <path d="m84.7,48.54c.86,0,1.56-.83,1.56-1.86s-.7-1.86-1.56-1.86-1.56.83-1.56,1.86.7,1.86,1.56,1.86Z"/>
  <ellipse cx="86.11" cy="55.35" rx="1.56" ry="1.86"/>
  <path d="m77.28,53.25c0,1.03.7,1.86,1.56,1.86s1.56-.83,1.56-1.86-.7-1.86-1.56-1.86-1.56.83-1.56,1.86Z"/>
  <ellipse cx="80.55" cy="62.01" rx="1.56" ry="1.86"/>
  <path d="m62.37,62.25c0,1.03.7,1.86,1.56,1.86s1.56-.83,1.56-1.86-.7-1.86-1.56-1.86-1.56.83-1.56,1.86Z"/>
  <path d="m76.88,48.33c.86,0,1.56-.83,1.56-1.86s-.7-1.86-1.56-1.86-1.56.83-1.56,1.86.7,1.86,1.56,1.86Z"/>
  <path d="m103.76,50.81s-.03-.06-.05-.09c-.83-1.67-3.14-5.03-9.24-8.47-.85-.48-1.9-.89-3.1-1.24-.1-.04-.2-.07-.31-.09-9.28-2.59-26.96-1.81-31.75-1.54-.54-.67-1.19-1.74-1.24-2.84,0-.01,0-.02,0-.03,0-.04-.01-.08-.02-.12-.18-2.34-1.72-3-2.52-3.23.1-2.91-2.07-3.72-3-4.07-.21-.08-.54-.2-.58-.22,0,0-.04-.08-.04-.29-.11-2.65-2.02-3.83-3.29-4.62-1.16-.72-1.77-1.14-1.98-2.11-.77-3.5-4.01-3.28-5.38-3.19-.34.02-.87.06-1.15.03,0-.03-.02-.07-.02-.11-.6-3.44-4.52-5.47-7.69-6.56-1.72-.59-3.58-.42-5.21.48l-.44.24c-1.03-1.28-2.22-2.06-3.56-2.34-2.18-.45-3.93.67-4.59,1.17-.51.39-.81.96-.89,1.57-1.5-.19-2.69.2-3.23.42-.61.26-1.08.78-1.29,1.42-.22.66-.14,1.39.22,1.99l2.17,3.6-.02.98-2.18,5.14-1.02.95s0,0-.01.01l-1.96,1.83c-1.39,1.29-2.16,3.21-2.1,5.25.05,2.02.91,3.86,2.35,5.06l1.16.96c1.15.96,2.53,1.44,3.91,1.44s2.8-.5,3.97-1.49l3.41-2.9s.09-.07.13-.07l2.71-.36,5.66,11.85v13.5l-10.11-.11c-3.13,0-5.68,2.86-5.68,6.38,0,1.48.46,2.91,1.28,4.05l11.98,20.1c.04.06.08.13.12.19.62.82,1.59,1.24,2.59,1.11,1.02-.13,1.87-.8,2.29-1.78.01-.03.03-.06.04-.1l3.43-9.51c.42-1.05.24-2.28-.45-3.15-.26-.33-.62-.57-1.03-.68l-3.05-.84c-.44-.79-.89-1.6-1.3-2.34l12.17,1.07.86,23.65-1.79,4.16c-.47,1.09-.36,2.37.29,3.35.58.89,1.54,1.42,2.57,1.42h5.98c1.73,0,3.14-1.51,3.14-3.36v-7.76l2.85-19.57c.2-1.4,1.13-2.44,2.16-2.44h.04l13.2.33c.62.02,1.22.49,1.57,1.23l1.61,3.4c1.83,3.87,2.06,8.23.65,12.27l-4.41,12.58c-.27.78-.15,1.64.32,2.31.45.63,1.17,1.01,1.94,1.01h7.04c1.32,0,2.4-1.11,2.4-2.48v-5.11l5.24-10.36c0,.4-.04.81-.09,1.21l-1.17,8.57-2.24,4.68c-.39.71-.39,1.57,0,2.29.4.74,1.17,1.2,2,1.2h8.27c.65,0,1.27-.28,1.7-.78.45-.51.66-1.2.57-1.88l-.71-5.48,2.97-13.63c.55-2.53.28-5.2-.76-7.52l-.07-.16c-.83-1.85-.85-3.98-.04-5.85l4.28-9.9c1.08-2.5,1.54-5.16,1.36-7.75.88.81,1.65,1.78,2,2.89.44,1.41.15,2.89-.91,4.53-5.59,8.68-6,12.79-1.76,17.59,1.47,1.67,1.51,4.28.89,6.12-.48,1.43-1.33,2.43-2.23,2.62-1.08.22-1.78,1.28-1.56,2.36.19.95,1.03,1.6,1.96,1.6.13,0,.27-.01.4-.04,2.33-.48,4.28-2.45,5.22-5.27,1.2-3.59.53-7.53-1.7-10.04-2.32-2.62-3.28-4.38,2.12-12.77,1.72-2.67,2.17-5.32,1.36-7.9-1.33-4.2-5.76-6.75-7.59-7.65Zm-15.09-6.38v21.6c0,.56-.31.87-.41.87h-34.97c-.07,0-.38-.28-.38-.84v-12.38c4.4-3.91,6.34-8.13,7.1-10.33,6.93-.37,20.95-.63,28.67,1.08Zm-53.13,9.67c9.84-1.36,16.7-8.67,20.01-13.09.24.37.48.68.7.95-.59,1.74-2.26,5.56-6.43,9.08-.14.09-.27.2-.39.33-3.13,2.53-7.59,4.86-13.9,6.07v-3.34Zm-4.47-38.3c2.88.99,4.86,2.35,5.06,3.47.65,3.71,3.96,3.48,5.38,3.38.35-.02.91-.06,1.18-.02,0,.02.01.05.02.08.59,2.67,2.51,3.87,3.78,4.66,1.25.78,1.38.96,1.4,1.39.12,2.93,2.21,3.71,3.22,4.09.12.05.28.11.4.16,0,.02,0,.03,0,.05-.11,2.5,1.19,3.37,2.11,3.72-.47.71-1.17,1.71-2.1,2.85-.38.06-.76.08-1.05.07.29-2.26-.83-3.34-1.45-3.93-.4-.39-.47-.46-.27-1.41.79-3.76-2.69-4.51-3.83-4.75-.36-.08-.94-.2-1.18-.32,0-.09,0-.26.05-.54.28-1.41.07-2.58-.6-3.48-1.08-1.44-2.84-1.58-4.4-1.71-2.02-.17-2.41-.36-2.55-.86-.82-2.82-2.55-3.52-3.95-4.08-1.06-.43-2.15-.87-3.39-2.51l.17-.09c.64-.36,1.33-.42,1.98-.2Zm-11.05,3.29c.63.79,1.74.98,2.6.46.86-.52,1.2-1.6.79-2.52l-1.21-2.74c.05,0,.11,0,.16.02.62.13,1.32.85,1.97,2.02,0,0,0,0,0,0,0,0,0,0,0,0,1.47,2.63,2.95,4.03,4.25,4.86-.57,1.14-1.31,2.19-2.16,3.13.38-.82.49-1.54.5-1.68.12-1.08-.65-2.05-1.73-2.19-1.09-.14-2.08.63-2.24,1.71-.04.25-.19.67-.39.81-.13.08-.41.09-.76,0-1.07-.25-2.15.42-2.4,1.5-.25,1.08.42,2.15,1.5,2.4.49.11.94.16,1.36.16.58,0,1.09-.1,1.52-.25-1.72,1.36-3.42,2.36-4.54,2.96-.61-.59-1.33-1.12-2.17-1.57l2.31-5.43c.1-.23.15-.48.16-.73l.05-1.95s0-.08,0-.12c0-.08,0-.16-.02-.25-.01-.07-.03-.13-.05-.19-.02-.06-.03-.12-.05-.19-.03-.08-.07-.15-.1-.22-.02-.04-.03-.08-.05-.12l-.85-1.42c.48.31,1.01.79,1.58,1.5Zm-5.7,18.6l-1.16-.96c-.54-.45-.88-1.24-.91-2.1-.02-.88.29-1.71.83-2.21l1.18-1.09c3.19,1.13,3.87,3.91,4,5.31l-1.22,1.03c-.84.72-1.89.72-2.73.02Zm15.37-1.6c1.81-1.3,3.06-3.51,3.24-6.05.08-1.1-.75-2.06-1.85-2.14-1.12-.09-2.06.75-2.14,1.85-.14,1.87-1.27,3.36-2.68,3.56l-3.62.49c-.29.04-.58.12-.86.22-.09-.29-.2-.59-.32-.88,2.85-1.56,8.09-4.96,10.66-10.04.11.17.2.39.29.71.96,3.3,4.15,3.57,6.06,3.73.45.04,1.09.09,1.45.18,0,.07-.02.15-.04.26-.87,4.46,2.82,5.25,4.21,5.55.22.05.5.11.72.17-.58,3.02.73,4.28,1.44,4.97.1.1.25.24.26.25,0,0,.02.11-.03.41-.32,1.81.49,2.87,1,3.34.23.22.49.39.77.53-3.16,3.02-7.48,6-12.73,6.89v-1.27c0-.3-.07-.59-.2-.86l-5.65-11.84Zm50.74,64.65c-.14.28-.21.59-.21.9v4.07h-3.23l3.71-10.58c1.77-5.04,1.48-10.48-.81-15.3l-1.38-2.91h5.26c.34,0,.69.32.88.8l3.28,8.18-7.5,14.84Zm20.07-37.81l-4.28,9.9c-1.25,2.89-1.23,6.2.06,9.08l.07.16c.69,1.54.87,3.33.5,5.03l-3.04,13.96c-.05.22-.06.46-.03.68l.51,3.97h-3.66l1.31-2.72c.09-.19.15-.39.18-.59l1.21-8.88c.39-2.85-.09-5.78-1.34-8.28l-3.61-9c-.81-2.01-2.61-3.31-4.6-3.31h-10.61l-13.16-.33s-.1,0-.15,0c-3.06,0-5.62,2.44-6.12,5.87l-2.87,19.71c-.01.1-.02.19-.02.29v7.26h-3.95l1.62-3.76c.12-.27.17-.57.16-.86l-.91-24.97.24-6.4c.04-1.1-.82-2.03-1.93-2.07-1.1-.03-2.03.82-2.07,1.93l-.13,3.55-15.45-1.36c-.67-.05-1.36.23-1.78.79-.91,1.2-.82,1.44,3.22,8.54.26.46.7.8,1.21.94l2.29.63-2.24,6.23-10.7-17.97c-.04-.06-.08-.13-.12-.19-.34-.45-.54-1.08-.54-1.73,0-1.29.77-2.38,1.66-2.38l12.11.13c.53,0,1.05-.2,1.43-.58.38-.38.59-.89.59-1.42v-3.25c5.59-.98,9.97-2.75,13.36-4.85v9.41c0,2.67,1.97,4.84,4.38,4.84h34.97c2.43,0,4.41-2.19,4.41-4.87v-20.2c6.46,3.69,7.6,6.98,7.6,6.98,0,.02.02.03.03.05.06.19.14.38.25.55,0,0,.01.01.02.02.05.07.11.14.17.2.4.91.67,1.92.79,3.04.22,2.06-.13,4.22-1.01,6.25Z"/>
</svg>