<?xml version="1.0" encoding="UTF-8"?>
<svg id="icons" xmlns="http://www.w3.org/2000/svg" viewBox="0 0 120 120">
  <path d="m22.38,54.88c.37.58,1,.93,1.69.93h43.81v9.79h-31.42c-2.8,0-5.51,1-7.64,2.81-.8.52-1.49,1.14-2.05,1.83-1.41,1.74-2.1,3.96-1.99,6.41v.04c-.01.15-.02.3-.02.45,0,.25.05.49.14.71.56,3.83,2.92,7.6,6.53,10.42,6.47,5.06,14.91,5.25,18.82.43,2.05-2.53,2.52-6.01,1.42-9.56h16.21v9.99c-4.39,5.53-11.21,8.85-18.38,8.92h-.91c-3.92,0-7.87-.72-11.74-2.13l-7.13-2.6c-.61-.22-1.3-.13-1.83.24-.54.37-.85.99-.85,1.64,0,9.27,7.66,16.81,17.07,16.81h28.7c.48,0,.95-.18,1.31-.49,8.47-1.92,14.52-9.33,14.52-17.98v-58.8c0-3.93,3.27-7.13,7.29-7.13h6.19c1.1,0,2-.9,2-2,0-3.45-2.84-6.26-6.34-6.26h-15.4c-8,0-14.51,6.41-14.51,14.29v8.43H17.88c-.73,0-1.4.4-1.75,1.04-.35.64-.33,1.42.07,2.04l6.19,9.74Zm47.49-8.81c1.1,0,2-.9,2-2v-10.43c0-5.67,4.71-10.29,10.51-10.29h15.4c.39,0,.76.09,1.09.26h-2.95c-6.23,0-11.29,4.99-11.29,11.13v58.8c0,7.03-5.13,13.01-12.19,14.23-.24.04-.46.12-.66.24h-27.7c-6.16,0-11.34-4.19-12.71-9.82l4.09,1.49c4.32,1.57,8.73,2.38,13.11,2.38h.95c8.63-.08,16.84-4.21,21.94-11.04.26-.35.4-.77.4-1.2v-12.67c0-1.1-.9-2-2-2h-21.26c-.71,0-1.37.38-1.73.99-.36.61-.36,1.37-.01,1.99,1.72,3.04,1.82,6.12.25,8.05-2.5,3.09-8.57,2.6-13.25-1.06-2.87-2.25-4.77-5.31-5.08-8.19,0-.06-.02-.12-.03-.18,0-.06,0-.13,0-.19-.06-1.04.08-2.54,1.1-3.79.32-.4.72-.74,1.21-1.05.09-.06.17-.12.25-.19,1.42-1.24,3.24-1.92,5.13-1.92h33.42c1.1,0,2-.9,2-2v-13.79c0-1.1-.9-2-2-2H25.17l-3.65-5.74h48.36Z"/>
  <path d="m32.37,16.78c-.24-.87-1.02-1.47-1.92-1.48h0c-.9,0-1.69.6-1.93,1.47-.31,1.11-.46,2.24-.46,3.36,0,8.93,9.51,16.2,21.21,16.2s21.21-7.27,21.21-16.2c0-1.12-.16-2.25-.46-3.36-.24-.87-1.03-1.47-1.93-1.47h0c-.9,0-1.69.61-1.92,1.48-1.55,5.73-8.66,9.9-16.89,9.9s-15.34-4.16-16.89-9.9Zm32.22,8.88c-2.85,3.95-8.65,6.66-15.33,6.66s-12.48-2.71-15.33-6.66c3.9,3.11,9.39,5.01,15.33,5.01s11.43-1.9,15.33-5.01Z"/>
  <path d="m48.34,24.36c.51,0,1.01-.19,1.4-.57l6.29-6.18c.38-.38.6-.89.6-1.43s-.22-1.05-.6-1.43l-6.29-6.18c-.78-.76-2.03-.76-2.8,0l-6.29,6.18c-.38.38-.6.89-.6,1.43s.22,1.05.6,1.43l6.29,6.18c.39.38.9.57,1.4.57Zm0-11.56l3.44,3.38-3.44,3.38-3.44-3.38,3.44-3.38Z"/>
</svg>