<?xml version="1.0" encoding="UTF-8"?>
<svg id="icons" xmlns="http://www.w3.org/2000/svg" viewBox="0 0 120 120">
  <path d="m58.98,63.85c-9.61,0-17.42,8.11-17.42,18.08s7.81,18.08,17.42,18.08,17.42-8.11,17.42-18.08-7.81-18.08-17.42-18.08Zm0,24.66c-3.43,0-6.22-2.95-6.22-6.58s2.79-6.58,6.22-6.58,6.22,2.95,6.22,6.58-2.79,6.58-6.22,6.58Zm2-16.94v-3.54c1.03.16,2.02.44,2.95.83l-1.69,3.06c-.41-.14-.83-.27-1.26-.35Zm-4,0c-.43.09-.85.21-1.26.35l-1.69-3.06c.94-.39,1.93-.67,2.95-.83v3.54Zm-8.03,8.37h-3.23c.15-1.1.42-2.17.8-3.17l2.82,1.7c-.16.48-.29.97-.39,1.47Zm-3.23,4h3.23c.09.51.23,1,.39,1.47l-2.82,1.7c-.38-1.01-.65-2.07-.8-3.17Zm11.27,8.37v3.54c-1.03-.16-2.02-.44-2.95-.83l1.69-3.06c.41.14.83.27,1.26.35Zm4,0c.43-.09.85-.21,1.26-.35l1.69,3.06c-.94.39-1.93.67-2.95.83v-3.54Zm8.03-8.37h3.24c-.15,1.1-.42,2.17-.8,3.17l-2.83-1.7c.16-.48.29-.97.39-1.47Zm3.24-4h-3.24c-.09-.51-.23-1-.39-1.47l2.83-1.7c.38,1.01.65,2.07.8,3.17Zm-2.73-6.68l-2.87,1.73c-.3-.36-.63-.7-.98-1.01l1.67-3.02c.81.68,1.54,1.45,2.17,2.31Zm-18.91-2.3l1.67,3.02c-.35.31-.68.65-.98,1.01l-2.86-1.72c.64-.85,1.37-1.63,2.17-2.31Zm-2.17,19.67l2.86-1.72c.31.36.63.7.98,1.01l-1.67,3.02c-.81-.68-1.53-1.45-2.17-2.31Zm18.91,2.31l-1.67-3.02c.35-.31.68-.65.98-1.01l2.87,1.73c-.64.85-1.37,1.63-2.17,2.31Z"/>
  <path d="m93.24,35.36c-1.35-2.69-4.39-2.99-6.56-2.97,0,0,0,0,0,0h-3.2c-1.62,0-2.99.36-4.12,1.06v-8.92c0-4.48-3.65-8.13-8.13-8.13-1.51,0-2.92.42-4.13,1.14v-1.18c0-4.48-3.65-8.13-8.13-8.13-3.61,0-6.68,2.37-7.73,5.64-1.29-.87-2.85-1.38-4.52-1.38-4.48,0-8.13,3.65-8.13,8.13v5.83c-1.21-.72-2.62-1.14-4.13-1.14-4.48,0-8.13,3.65-8.13,8.13v43.98c0,18.95,14.12,34.36,31.47,34.36h2.35c17.2,0,31.32-15.28,31.46-34.06v-.3s0-34.45,0-34.45c-.07-1.74.31-2.43.47-2.54,1.52-1.17,2.02-3.34,1.16-5.06Zm-3.59,1.88c-1.46,1.11-2.14,3.09-2.03,5.8v34.64c-.13,16.6-12.45,30.1-27.47,30.1h-2.35c-15.14,0-27.47-13.62-27.47-30.36v-43.98c0-2.28,1.85-4.13,4.13-4.13s4.13,1.85,4.13,4.13v25.2c0,1.1.9,2,2,2s2-.9,2-2v-.06s0-.03,0-.04V20.61c0-2.28,1.85-4.13,4.13-4.13s4.13,1.85,4.13,4.13v33.44c0,1.1.9,2,2,2s2-.9,2-2V16.35c0-2.28,1.85-4.13,4.13-4.13s4.13,1.85,4.13,4.13v38.6c0,1.1.9,2,2,2s2-.9,2-2v-30.43c0-2.28,1.85-4.13,4.13-4.13s4.13,1.85,4.13,4.13v33.12c0,1.1.9,2,2,2s2-.9,2-2v-13.6c0-7.66,2.68-7.66,4.12-7.66h3.21c1.18-.01,2.64.12,2.97.76,0,.02,0,.08-.02.09Z"/>
</svg>