<?xml version="1.0" encoding="UTF-8"?>
<svg id="icons" xmlns="http://www.w3.org/2000/svg" viewBox="0 0 120 120">
  <path d="m109.57,58.57c-.1.02-2.32.43-5.48-1.55-.1-2.41-1.68-6.99-8.36-15.38-10.2-12.82-16.26-15.51-36.03-15.99-17.23-.42-27.85,14.55-31.08,19.9-7.37-3.96-12.4-2.88-14.83-1.81-2.97,1.31-5.02,3.84-5.6,6.95-.45,2.38-.04,4.38,1.23,5.94,2.33,2.88,7,3.31,10.3,3.39.66.02.84.14,1.66,1.72,0,.02.02.04.03.06-1.16,1.09-2.37,1.82-3.46,2.47-2.13,1.27-4.79,2.85-3.75,6.64.79,2.88,2.37,8.63,6.58,8.63.34,0,.7-.04,1.08-.12,2.62-.56,9.06-6.27,13-9.95.55.77,1.06,1.45,1.5,2-10.36,6.64-14.31,10.73-14.38,14.76-.05,2.51,1.47,4.78,4.65,6.92,1.29.87,2.65,1.24,4.04,1.24,6.97,0,14.7-9.38,17.29-12.81,3.12.66,6.12,1.05,8.98,1.19.18.05.36.09.55.09.14,0,.28-.03.42-.06.55.02,1.1.05,1.64.05,6.44,0,12.2-1.19,17.27-3.04-.47,1.13-.64,2.24-.32,3.4.66,2.4,3.14,3.65,4.96,4.38,2.43.98,4.17,1.48,5.59,1.48,2.34,0,3.77-1.36,5.94-4.12.36-.47.77-.98,1.22-1.54.43-.53.91-1.16,1.41-1.86,4.34-2.27,7.01-5.3,7.68-8.78.43-2.19.22-5.55-2.82-9.56.83-.97,1.52-1.82,2.03-2.49,2.71,1.56,5,1.91,6.43,1.91.86,0,1.41-.12,1.56-.15,1.06-.26,1.7-1.31,1.46-2.37-.24-1.06-1.29-1.74-2.37-1.52Zm-13.61,3.69c-.54-2.79-2.01-6.04-5.13-7.5,2.07-2.57,3.61-5,4.64-6.8,4.26,6.03,4.61,8.64,4.62,9.25-.48.7-1.88,2.62-4.14,5.05Zm-13.44,10.56c-.32-2.4-1.14-5.63-3.14-8.1,3.32-1.85,6.18-4.22,8.56-6.68,3.91.61,4.25,5.62,4.28,6.6l-.15,1.42c-2.59,2.29-5.77,4.67-9.54,6.76Zm-23.53-7.76c-.18-.04-.36-.06-.54-.05-5.4-.66-10.13-3.68-14.52-11.46.11-1.53.9-5.71,6.1-8.06.77,1.13,1.66,2.18,2.7,3.11,3.34,3,7.83,4.68,12.65,4.92,1.24,1.92.83,7.2-.11,11.32-2.19.3-4.28.42-6.28.23Zm-10.61,12.52c-4.15-2.29-7.37-6.77-7.4-6.81-.05-.07-.1-.13-.16-.19,0-.01-.11-.13-.29-.33.39-1.95,1.77-6.51,4.25-8.4,3.26,3.71,6.83,5.78,10.86,6.69-1.28,3.65-1.06,7.53-.67,10.07-2.13-.19-4.32-.53-6.59-1.02Zm-12.05-13.17c0-.11-.01-.22-.03-.33-.12-.56-.46-1.02-.92-1.3-2.2-3.94-4.18-8.95-4.03-13.97.46-.83,1.72-2.98,3.73-5.56,1.57,4.49,3.19,8.28,4.89,11.44.08.36.26.67.51.92.62,1.1,1.24,2.11,1.88,3.06-2.5,1.91-4.01,5.06-4.86,7.54-.38-.56-.77-1.17-1.17-1.81Zm41.07-32.61c.05.03.1.06.15.08.88.37,2.4,2.91,2.52,6.46-3.26-1.44-9.09-3.61-15.83-4.28.88-1.86,1.93-3.3,2.58-4.09,4.29.32,7.68.86,10.59,1.83Zm-10.49,17.75c-.21-.12-.43-.2-.65-.23-.07-.32-.2-.62-.43-.88-3.06-3.58-3.5-7.26-2.91-10.43,7.39.57,13.84,3.22,16.56,4.49-.8,2.35-2.64,4.93-6.74,6.16-1.93.58-3.91.87-5.84.9Zm-5.78-.79c-2.18-.66-4.15-1.71-5.74-3.13-1.92-1.72-3.24-3.9-3.95-6.46,2.46-.78,4.98-1.16,7.45-1.25-.51,3.43-.05,7.19,2.23,10.85Zm8.47,4.61c1.43-.18,2.87-.46,4.29-.89,3.26-.98,5.83-2.77,7.57-5.18,1.96-.17,3.42.17,4.35,1.03,1.54,1.42,1.36,3.99,1.36,4-.02.17,0,.34.03.51-3.82,4.59-9.38,9.44-16.59,11.01-.37.08-.74.16-1.1.23.57-3.01,1.08-7.39.09-10.72Zm22.99-9.24c.09.11.16.2.24.31-.47.89-1.25,2.29-2.33,3.94-.39-1.02-.99-2.06-1.94-2.95-1.33-1.25-3.05-1.95-5.14-2.12.34-1.13.55-2.34.62-3.62.09-1.63-.07-3.25-.42-4.74,2.95,2.11,5.69,5.06,8.96,9.18Zm-30.55-14.41c-.78,1.22-1.5,2.62-2.08,4.14-2.98.02-6.06.4-9.11,1.29-.05-1.32.03-2.71.24-4.17,2.6-.89,5.44-1.41,8.5-1.34.85.02,1.66.05,2.45.08Zm-15.14,3.12c-.08,1.49-.05,2.93.12,4.31-.22.48-.25,1.05-.03,1.58.1.24.24.45.41.63.21.9.47,1.77.79,2.6-3.49,1.63-5.62,4.02-6.84,6.37-1.09-2.5-2.17-5.36-3.23-8.6,2.37-2.49,5.31-5,8.79-6.89Zm-27.1,23.17c-3.88-.09-6.33-.73-7.28-1.91-.18-.23-.74-.91-.41-2.68.34-1.82,1.51-3.25,3.28-4.03,3.03-1.33,7.34-.57,11.94,2.04.02,4.89,1.64,9.61,3.6,13.54-4.23.33-5.07-1.27-6.02-3.09-.83-1.61-1.98-3.8-5.12-3.88Zm1.22,19.48c-.5.11-1.56-.49-2.97-5.65-.21-.76-.23-.85,1.94-2.15,1.07-.64,2.42-1.45,3.79-2.66,1.58,1.4,3.94,2.26,7.93,1.88-4.5,4.16-9.37,8.22-10.68,8.58Zm7.83,14.34c-2.92-1.97-2.9-3.15-2.89-3.54.06-3.05,7.01-7.95,12.92-11.71,1.14,1.37,3.05,3.43,5.43,5.15-4.04,5.19-11.6,12.71-15.46,10.1Zm30.21-11c-.4-2.16-.86-6.33.67-9.77.42.02.84.03,1.27.03,1.86,0,3.82-.19,5.88-.49,0,0,0,0,.01,0,.12,0,.22-.04.34-.06,1.37-.21,2.77-.46,4.24-.78,1.44-.31,2.81-.74,4.12-1.25,2.24,2,2.96,5.85,3.11,8.22-5.53,2.47-12.08,4.17-19.63,4.1Zm30.75,3.64q-2.49,3.17-6.88,1.4c-2.27-.92-2.56-1.6-2.6-1.73-.22-.78,1.37-2.87,2.64-4.54.21-.28.43-.57.65-.86,4.08-2.18,7.56-4.71,10.41-7.16.55.5.91,1.08,1.06,1.78.46,2.26-1.08,5.9-4.02,9.5-.47.58-.89,1.12-1.27,1.6Zm9.54-10.47c-.04.23-.11.45-.18.66.03-.7,0-1.4-.15-2.09-.29-1.43-.98-2.67-2.01-3.7.23-.23.46-.45.68-.67,1.44,2.08,2.01,4.03,1.66,5.8Z"/>
  <path d="m24.72,50.17c-.61-.92-1.86-1.16-2.77-.55-.02.02-2.57,1.59-3.33.51-.64-.9-1.89-1.12-2.79-.48-.9.64-1.12,1.89-.48,2.79,1.04,1.48,2.53,2.07,4.11,2.07s3.32-.62,4.72-1.56c.92-.61,1.16-1.86.55-2.77Z"/>
</svg>