<?xml version="1.0" encoding="UTF-8"?>
<svg id="icons" xmlns="http://www.w3.org/2000/svg" viewBox="0 0 120 120">
  <path d="m87.81,52.77l1.48-3.34s.02-.06.03-.09c6.62-3.44,14.75-.39,14.83-.36.9.35,1.93,0,2.43-.82.5-.83.34-1.9-.38-2.54-.1-.09-6.58-5.67-14.75-5.41,3.58-3.02,6.26-4.56,6.3-4.58.75-.42,1.14-1.28.98-2.12-.16-.84-.85-1.49-1.7-1.6-3.18-.42-7.67-.31-12.05,1.05-5.9-15.23-22.73-24.35-23.47-24.74-.02-.01-.04-.01-.06-.02-.11-.06-.23-.1-.36-.13-.03,0-.06-.02-.09-.03-.14-.03-.28-.05-.43-.05,0,0-.01,0-.02,0,0,0-.01,0-.02,0,0,0,0,0-.01,0-.03,0-.05,0-.07,0-.03,0-.07,0-.1.01-.07,0-.13.01-.2.02-.03,0-.06.02-.09.03-.04.01-.09.03-.13.04-.05.02-.11.03-.16.05-.04.02-.08.05-.12.07-.02,0-.03.02-.05.03-.02.01-.05.02-.07.03-.87.53-20.05,12.43-23.76,24.6-4.3-1.29-8.69-1.39-11.81-.97-.85.11-1.54.76-1.7,1.6-.16.84.23,1.7.98,2.12.04.02,2.71,1.55,6.3,4.58-8.18-.26-14.66,5.32-14.76,5.41-.73.64-.89,1.71-.38,2.54s1.53,1.17,2.43.82c.09-.04,9.17-3.47,15.99,1.05l1.97,3.61c.69,1.28,1.62,2.43,2.71,3.4-3.54,1.79-6.72,4.01-9.34,6.53-.06.05-.11.1-.16.15-5.38,5.23-8.23,11.47-8.23,18.07,0,9.08,9.17,16.39,16.92,20.95.04.03.08.05.12.07,0,0,0,0,.01,0,9.28,5.47,20.17,9.15,24.52,9.15,6.6,0,17.54-3.86,26-9.18,10.06-6.28,15.6-13.74,15.6-21.01,0-6.62-2.85-12.86-8.23-18.07-.05-.06-.11-.11-.17-.16-2.7-2.6-6.01-4.88-9.7-6.71,1.23-1.14,2.24-2.52,2.95-4.08Zm-1.74-6.15h-1.65c2.51-1.66,5-2.34,7.32-2.41-1.91.44-3.84,1.21-5.67,2.41Zm-5.28,12.76c2.44,1.03,4.72,2.27,6.79,3.68h-52.46c1.99-1.36,4.19-2.56,6.53-3.56.08.03.17.05.25.08.14.05.29.09.43.13.25.07.51.14.76.2.15.03.29.07.44.1.27.05.54.09.82.13.13.02.26.04.39.05.4.04.81.06,1.21.06h30.21c.44,0,.87-.03,1.31-.07.14-.01.28-.04.42-.06.29-.04.58-.08.87-.14.17-.03.33-.08.5-.12.26-.06.51-.14.77-.22.17-.05.33-.11.49-.17.08-.03.17-.05.26-.09Zm-.88-3.97c-1.15.54-2.44.83-3.74.83h-30.21c-1.21,0-2.4-.25-3.54-.73-1.76-.77-3.23-2.11-4.14-3.79l-.6-1.1h46.7l-.23.51c-.86,1.9-2.36,3.42-4.24,4.28Zm-33.22-14.99l-1.21-7.55c.36.23.73.49,1.11.77.1.09.21.18.33.25,2.93,2.28,6.17,6.26,6.28,12.73h-3.66c-.65-2.41-1.62-4.46-2.84-6.2Zm27.57,0c-1.21,1.73-2.19,3.78-2.84,6.2h-3.66c.11-6.46,3.33-10.43,6.26-12.71.15-.08.28-.18.4-.3.36-.27.72-.52,1.06-.73l-1.21,7.55Zm-17.07,6.2c0-.42-.02-.84-.05-1.24,0,0,0,0,0,0-.12-8.27,1.83-13.41,3.29-16.07,1.52,2.92,3.65,8.19,3.52,14.62-.12.86-.18,1.76-.19,2.7h-6.57Zm9.84-10.96c-1.29-5.42-3.57-9.28-4.48-10.66v-9.76c3.26,3.98,7.75,10.38,8.38,16.1-1.35,1.14-2.72,2.57-3.9,4.33Zm-8.48-10.78c-1.07,1.35-3.34,4.79-4.57,10.88-1.19-1.8-2.58-3.25-3.95-4.41.64-4.88,4.98-11.39,8.52-15.91v9.44Zm24.46,17.88c-1.58.96-3.17,2.23-4.73,3.87h-2.67c1.66-4.96,5.07-7.7,8.68-9.19.02,0,.04,0,.06,0,.15-.05.28-.11.41-.18,1.92-.74,3.87-1.13,5.62-1.34-2.14,1.7-4.72,3.98-7.36,6.85Zm-3.95-7.03l.72-4.49c.55,1.03,1.04,2.1,1.46,3.21-.75.38-1.48.81-2.18,1.29Zm-1.59-8.26s-.02,0-.03,0c-.04.01-1.23.42-2.88,1.35-.7-3.06-2.14-6.12-3.8-8.91,2.33,2.15,4.69,4.69,6.71,7.56Zm-26.96-7.53c-1.75,2.87-3.29,5.98-4.06,8.92-1.69-.96-2.9-1.37-2.94-1.38-.08-.03-.17-.03-.25-.05,2.04-2.62,4.61-5.18,7.25-7.49Zm-9.45,10.72l.82,5.07c-.77-.52-1.58-.98-2.4-1.39.33-1.21.87-2.44,1.58-3.68Zm-10.49,5.24c1.75.2,3.7.6,5.62,1.34.14.08.29.14.45.19,3.61,1.49,7.03,4.24,8.69,9.2h-2.67c-1.57-1.64-3.15-2.91-4.73-3.87-2.64-2.87-5.22-5.16-7.36-6.85Zm5.97,10.72h-1.66c-1.88-1.22-3.85-2.01-5.8-2.44,2.35.06,4.9.73,7.46,2.44Zm9.47,56.48h32.41c-6.79,3.18-13.37,4.87-17.08,4.87-2.44,0-8.62-1.79-15.33-4.87Zm39.68-4h-47.3c-5.67-3.38-14.64-9.9-14.64-17.31,0-5.29,2.26-10.37,6.54-14.73h62.1c4.28,4.34,6.54,9.41,6.54,14.73,0,7.64-8.09,14.02-13.25,17.31Z"/>
  <path d="m73.59,72.99c0-1.1-.9-2-2-2h-11.24s-.02,0-.02,0c0,0-.02,0-.02,0-1.1,0-2,.9-2,2v9.04h-7.24v-9.04c0-1.1-.9-2-2-2s-2,.9-2,2v11.04c0,1.1.9,2,2,2h9.24v7.04h-9.24c-1.1,0-2,.9-2,2s.9,2,2,2h11.24s.02,0,.02,0c0,0,.02,0,.02,0,1.1,0,2-.9,2-2v-9.04h7.24v9.04c0,1.1.9,2,2,2s2-.9,2-2v-11.04c0-1.1-.9-2-2-2h-9.24v-7.04h9.24c1.1,0,2-.9,2-2Z"/>
  <path d="m34.63,73.54c-5.07,0-9.2,4.07-9.2,9.07s4.13,9.07,9.2,9.07,9.2-4.07,9.2-9.07-4.13-9.07-9.2-9.07Zm0,14.14c-2.87,0-5.2-2.27-5.2-5.07s2.33-5.07,5.2-5.07,5.2,2.27,5.2,5.07-2.33,5.07-5.2,5.07Z"/>
  <path d="m88.66,73.54c-5.07,0-9.2,4.07-9.2,9.07s4.13,9.07,9.2,9.07,9.2-4.07,9.2-9.07-4.13-9.07-9.2-9.07Zm0,14.14c-2.87,0-5.2-2.27-5.2-5.07s2.33-5.07,5.2-5.07,5.2,2.27,5.2,5.07-2.33,5.07-5.2,5.07Z"/>
  <path d="m54.38,79.26c.65,0,1.19-.52,1.19-1.16s-.53-1.16-1.19-1.16-1.19.52-1.19,1.16.53,1.16,1.19,1.16Z"/>
  <path d="m64.73,78.09c0,.64.53,1.16,1.19,1.16s1.19-.89,1.19-1.53-.53-.8-1.19-.8-1.19.52-1.19,1.16Z"/>
  <path d="m55.57,89.54c0-.64-.53-1.16-1.19-1.16s-1.19.52-1.19,1.16.53,1.16,1.19,1.16,1.19-.52,1.19-1.16Z"/>
  <path d="m65.92,88.38c-.65,0-1.19.52-1.19,1.16s.53.8,1.19.8,1.19-.15,1.19-.8-.53-1.16-1.19-1.16Z"/>
</svg>