<?xml version="1.0" encoding="UTF-8"?>
<svg id="icons" xmlns="http://www.w3.org/2000/svg" viewBox="0 0 120 120">
  <path d="m109.88,42.41c-2.12-1.56-4.87-2.08-7.37-2.15.58-1.21.88-2.67.64-4.4-.44-3.25-2.71-4.89-5.15-5.62.75-.99,1.33-2.15,1.4-3.44.07-1.19-.27-2.93-2.29-4.49-2.27-1.76-4.59-1.92-6.63-1.36-.02-.29-.05-.59-.11-.89-.27-1.33-1.14-3.2-3.77-4.55-3.49-1.8-6.52-1.09-8.7.29-1.11-3.48-3.85-7.21-9.63-7.75-2.96-.28-5.47.44-7.46,2.12-1.87,1.58-2.89,3.73-3.43,5.46-3.69-1.85-10.84-4.43-17.78-1.12-6.29,2.99-8.6,7.5-9.45,10.44-2.9-1.15-5.4-1.16-7.45-.03-2.43,1.34-3.49,3.88-3.96,5.76-1.92-.25-4.67-.26-6.74,1.2-1.1.77-2.44,2.29-2.59,5.09-.24,4.51,2.72,7.45,5.7,9.11-1.02.97-1.98,2.24-2.44,3.85-.44,1.56-.54,4.03,1.49,6.96,1.52,2.19,3.54,3.49,5.84,3.74,1.57.18,3.07-.13,4.38-.63-.01.9.11,1.86.45,2.82.88,2.48,2.95,4.3,6.14,5.43,2.22.79,4.14,1.1,5.77,1.1,3.21,0,5.36-1.19,6.65-2.28.11.15.2.31.32.45,1.71,2.11,4.15,3.04,5.93,3.44-.68,4.34-1.97,14.67-.64,23.84h-11.18c-2.92,0-5.3,2.25-5.3,5.02v7.16c0,2.76,2.38,5.01,5.3,5.01h53.91c2.91,0,5.29-2.25,5.29-5.01v-7.16c0-2.77-2.37-5.02-5.29-5.02h-18.46c-.38-4.63-1.19-10.63-2.95-15.86-1.88-5.59-2.29-9.08-1.3-11,.62-1.2,1.92-2.03,4.2-2.71,4.71-1.4,9.45-3,11.72-3.78,1.47,1.73,4.61,4.5,10,5.13,3.24.38,5.13-.76,6.16-1.79,1.36-1.36,1.86-3.14,2.03-4.56,2.04-.06,5.06-.54,7.33-2.59,2.12-1.92,3.1-4.71,2.91-8.28-.15-3-1.36-5.41-3.5-6.98Zm-18.13,56.41c.7,0,1.29.46,1.29,1.02v7.16c0,.54-.59,1.01-1.29,1.01h-53.91c-.7,0-1.3-.46-1.3-1.01v-7.16c0-.55.59-1.02,1.3-1.02h11.95c.03.11.06.21.09.31.06.21.12.42.18.63.12.43.25.84.38,1.25.07.21.14.42.22.63.03.09.06.18.09.26h-3.01c-1.1,0-2,.9-2,2s.9,2,2,2h23.87s0,0,0,0h6.36c1.1,0,2-.9,2-2s-.9-2-2-2h-4.35s0-.1,0-.15h0c0-.26,0-.53-.01-.82,0-.02,0-.04,0-.07,0-.27-.01-.55-.02-.85,0-.08,0-.15,0-.23,0-.29-.02-.59-.03-.9,0-.03,0-.05,0-.07h18.21Zm-19.66-37.4c-3.36,1-5.46,2.49-6.61,4.7-1.57,3.02-1.25,7.24,1.06,14.11,1.87,5.56,2.6,12.16,2.89,16.71,0,0,0,0,0,0,.12,2.01.17,3.73.18,4.95h-14.56c-.72-1.55-1.29-3.39-1.71-5.47,0,0,0,0,0,0,0,0,0,0,0,0-2.32-11.38.57-26.6.6-26.76.11-.58-.04-1.18-.41-1.63-.37-.46-.93-.73-1.51-.75-.03,0-3.46-.11-5.2-2.28-.85-1.06-1.18-2.53-1.01-4.36.91-.35,1.71-.9,2.36-1.63.21,1.82.92,3.43,2.13,4.79,3.44,3.86,9.71,4.1,9.97,4.11.02,0,.04,0,.06,0,.52,0,1.03-.21,1.4-.58,0,0,4.41-4.35,10.46-10.4.38-.13.74-.29,1.09-.5.8-.49,1.39-1.13,1.81-1.79.43.18.84.28,1.2.34.82.12,1.62.04,2.38-.16.03.15.07.29.1.42.39,1.36,1.28,2.46,2.25,3.33-2.44.82-5.7,1.88-8.95,2.84Zm35.7-6.72c-2.26,2.06-6.29,1.51-6.32,1.51-.62-.09-1.24.11-1.69.54-.45.44-.67,1.06-.59,1.68.06.5.08,2.58-.91,3.58-.57.58-1.53.79-2.86.64-5.69-.67-7.91-4.37-7.99-4.51,0,0,0,0-.01-.01-.1-.18-.24-.34-.39-.48-.03-.03-.05-.05-.08-.07-.15-.12-.32-.22-.5-.3-.02,0-.03-.02-.05-.03-1.05-.4-3.36-1.68-3.76-3.1-.06-.21-.25-.86.6-1.99.62-.83.51-1.99-.25-2.68-.77-.7-1.93-.69-2.69,0-.68.62-2.38,1.71-3.39,1.56-.15-.02-.52-.08-.93-.78-.44-.75-1.31-1.13-2.16-.94-.85.19-1.48.91-1.55,1.77,0,.01-.19,1.41-1.06,1.95-.85.52-2.24.16-3.25-.24-1.03-.41-2.19.1-2.59,1.13-.41,1.03.1,2.19,1.13,2.59.13.05.25.09.38.13-3.43,3.43-6.09,6.05-7.25,7.2-1.47-.18-4.6-.78-6.31-2.7-.53-.6-.86-1.29-1.04-2.08,2.07-.12,4.23-.63,5.57-2.03.53-.55,1.07-1.37,1.24-2.53,2.33-.37,6.05-1.38,7.84-4.09.81-1.23,1.54-3.33.41-6.3-.39-1.03-1.55-1.55-2.58-1.16-1.03.39-1.55,1.55-1.16,2.58.64,1.68.15,2.43-.01,2.67-1.21,1.85-5.31,2.45-6.65,2.51-.59.03-1.15.31-1.5.79-.36.47-.49,1.08-.36,1.66.18.8-.03,1.02-.11,1.1-.67.7-2.65.89-4.6.8-.01,0-.03,0-.04,0-.04,0-.07,0-.11,0-.89-.05-1.76-.15-2.5-.29-.89-.17-1.78.28-2.17,1.1-.5,1.04-1.49,1.26-2.22,1.23-1.32-.02-2.63-.79-3.07-1.77-.53-1.22.35-2.6,1.19-3.54.73-.83.66-2.09-.17-2.82-.83-.74-2.09-.66-2.82.16-3.08,3.46-2.49,6.38-1.87,7.8.89,2.03,2.9,3.52,5.23,3.99-.03.69-.01,1.35.06,1.98-.12.12-.22.25-.31.4-.02.04-2.24,3.69-9.22,1.21-1.99-.71-3.24-1.71-3.7-2.99-.79-2.16.69-4.7.7-4.71.51-.85.33-1.95-.44-2.58-.77-.63-1.88-.6-2.62.07-.77.7-3.49,2.64-5.79,2.38-1.16-.13-2.14-.8-3-2.05-.93-1.34-1.23-2.51-.93-3.58.52-1.85,2.79-3.22,3.61-3.59.79-.34,1.26-1.15,1.19-2.01s-.69-1.57-1.53-1.77c-.27-.06-6.64-1.65-6.38-6.48.07-1.3.54-1.78.9-2.03,1.47-1.04,4.55-.47,5.51-.19.59.18,1.23.07,1.73-.29.5-.36.81-.92.84-1.54.04-.93.55-3.79,2.24-4.73,1.64-.9,4.19.16,6.04,1.22.62.35,1.38.35,2,0,.62-.36,1-1.02,1-1.73,0-.06.09-6.18,7.66-9.78,7.62-3.62,16.22,2.19,16.3,2.25.59.41,1.35.47,2,.16.65-.31,1.08-.94,1.14-1.65,0-.04.33-3.72,2.66-5.67,1.16-.97,2.62-1.36,4.49-1.18,6.52.61,6.64,7.06,6.63,7.79-.02.89.56,1.69,1.42,1.95.85.26,1.78-.08,2.26-.83.1-.16,2.58-3.92,6.56-1.88,1.47.76,1.63,1.53,1.68,1.78.27,1.31-.84,3.04-1.25,3.53-.7.84-.6,2.09.24,2.8.83.71,2.09.62,2.81-.2.35-.39,3.46-3.79,6.42-1.5.77.6.75.97.74,1.09-.06,1.06-1.89,2.72-3.19,3.5-.8.48-1.16,1.46-.86,2.35s1.19,1.45,2.12,1.35c.05,0,5.28-.55,5.72,2.63.45,3.3-2.96,4.46-3.34,4.57-1.05.31-1.65,1.4-1.36,2.45.29,1.05,1.36,1.68,2.42,1.41,1.96-.5,7.68-1.34,10.59.8,1.17.86,1.78,2.15,1.87,3.96.12,2.31-.42,4.03-1.59,5.1Z"/>
  <path d="m41.65,32.28c-1.07-.04-2.03.82-2.07,1.93-.06,1.65-1.24,1.77-1.59,1.75-.34,0-1.46-.15-1.46-1.68,0-1.1-.9-2-2-2s-2,.9-2,2c0,3.67,2.71,5.63,5.38,5.68.03,0,.07,0,.1,0,2.68,0,5.42-1.91,5.56-5.61.04-1.1-.82-2.03-1.93-2.07Z"/>
  <path d="m64.99,24.08c-1.08-.04-2.03.82-2.07,1.93-.06,1.65-1.24,1.75-1.59,1.75-.34,0-1.46-.15-1.46-1.68,0-1.1-.9-2-2-2s-2,.9-2,2c0,3.67,2.71,5.63,5.38,5.68.03,0,.07,0,.1,0,2.68,0,5.42-1.91,5.55-5.61.04-1.1-.82-2.03-1.93-2.07Z"/>
  <path d="m84.2,34.84c-1.12-.05-2.03.82-2.07,1.93-.06,1.65-1.23,1.76-1.59,1.75-.34,0-1.46-.15-1.46-1.68,0-1.1-.9-2-2-2s-2,.9-2,2c0,3.67,2.71,5.63,5.38,5.68.03,0,.07,0,.1,0,2.68,0,5.42-1.91,5.56-5.61.04-1.1-.82-2.03-1.93-2.07Z"/>
  <path d="m58.77,83.44c-1.1,0-2,.9-2,2v13.01c0,1.1.9,2,2,2s2-.9,2-2v-13.01c0-1.1-.9-2-2-2Z"/>
  <path d="m61,69.91c-1.09.17-1.83,1.2-1.66,2.29l1.34,8.4c.16.98,1.01,1.69,1.97,1.69.11,0,.21,0,.32-.03,1.09-.17,1.83-1.2,1.66-2.29l-1.34-8.4c-.17-1.09-1.2-1.84-2.29-1.66Z"/>
</svg>