<svg id="Symbols" xmlns="http://www.w3.org/2000/svg" viewBox="0 0 150 150"><defs><style>.cls-1{fill:#231f20;}</style></defs><title>kirtimukha-bold</title><g id="kirtimukha_bold"><path class="cls-1" d="M108.67,85.71c2.12.64,7.86-1.81,7.86-1.81s-3.44-5.21-5.55-5.85-5.83.12-6.47,2.24S106.56,85.08,108.67,85.71Z"/><path class="cls-1" d="M104.45,94.86c1.91,1.11,8.06.06,8.06.06s-2.13-5.86-4-7-5.7-1.24-6.81.67S102.54,93.75,104.45,94.86Z"/><path class="cls-1" d="M98.42,102.64c1.65,1.46,7.89,1.64,7.89,1.64s-.94-6.17-2.6-7.64-5.34-2.33-6.8-.67S96.76,101.18,98.42,102.64Z"/><path class="cls-1" d="M102.5,76.55a3,3,0,1,0,2,3.74A3,3,0,0,0,102.5,76.55Z"/><path class="cls-1" d="M97.56,89.7a3,3,0,1,0-1.09-4.1A3,3,0,0,0,97.56,89.7Z"/><path class="cls-1" d="M97.09,75.45a2.5,2.5,0,1,0,1.68,3.11A2.5,2.5,0,0,0,97.09,75.45Z"/><path class="cls-1" d="M90,109.43c1.27,1.8,7.29,3.44,7.29,3.44s.53-6.22-.74-8-4.65-3.52-6.46-2.25S88.73,107.62,90,109.43Z"/><path class="cls-1" d="M92.67,96.23A3,3,0,1,0,92.41,92,3,3,0,0,0,92.67,96.23Z"/><path class="cls-1" d="M93.05,86.51a2.5,2.5,0,1,0-.9-3.42A2.5,2.5,0,0,0,93.05,86.51Z"/><path class="cls-1" d="M92.64,74.63A2,2,0,1,0,94,77.12,2,2,0,0,0,92.64,74.63Z"/><path class="cls-1" d="M88.88,92.21a2.5,2.5,0,1,0-.21-3.53A2.49,2.49,0,0,0,88.88,92.21Z"/><path class="cls-1" d="M89.41,83.82a2,2,0,1,0-.72-2.74A2,2,0,0,0,89.41,83.82Z"/><path class="cls-1" d="M85.92,101.85a3,3,0,1,0,.73-4.18A3,3,0,0,0,85.92,101.85Z"/><path class="cls-1" d="M89.14,74.1a1.5,1.5,0,0,0-1.87,1,1.5,1.5,0,0,0,2.88.86A1.5,1.5,0,0,0,89.14,74.1Z"/><path class="cls-1" d="M85.84,88.86A2,2,0,1,0,85.67,86,2,2,0,0,0,85.84,88.86Z"/><path class="cls-1" d="M86.64,81.63a1.5,1.5,0,1,0-.54-2.06A1.5,1.5,0,0,0,86.64,81.63Z"/><path class="cls-1" d="M83.17,97.06a2.5,2.5,0,1,0,.61-3.48A2.5,2.5,0,0,0,83.17,97.06Z"/><path class="cls-1" d="M86.6,73.86a1,1,0,0,0-.59,0c.1-.47.17-.94.23-1.39A22.92,22.92,0,0,0,93,74c.51,0,1.07.07,1.68.07a17,17,0,0,0,11.79-4.28,5.09,5.09,0,0,0,1.58,3.36,3.59,3.59,0,0,0,2.42.91,4.52,4.52,0,0,0,2.11-.55,9.72,9.72,0,0,0,3.29-3.09c.17-.23.33-.47.46-.68,3.35-5.18,2.55-10.76-2.18-15.3-.23-.22-.48-.44-.73-.65.08-2.89-.56-7-4.86-12.71a2.54,2.54,0,0,1-.34-.61,1,1,0,0,1,.41-1.32,2.2,2.2,0,0,1,2.46,0c.7.63.2,1.83-.16,2.48l-.39.7.8,0c3.51.2,4.89-1.08,5.43-2.19.77-1.59.24-3.8-1.36-5.63a6.93,6.93,0,0,0-7.38-2.25c-3.8,1.26-3.87,5.89-3,8.69a1.18,1.18,0,0,0,.07.2,3.4,3.4,0,0,0-2.68.94,1.92,1.92,0,0,0-.41,2.14l.25.56.49-.34c1-.65,1.85-.4,3.06.26,1,.56,2.09,3,2.42,5.57A41.78,41.78,0,0,0,102.69,48l.34-2H99.17a36.31,36.31,0,0,0,1.69-7.84c.45-3.32.87-6.47,2.64-8.77l-3-2.58L98.6,28.78c-5.71,5.9-11.34,12-13.15,17.18a37.27,37.27,0,0,0-6.31-1.17,6,6,0,0,0,1.74-4.23,5.71,5.71,0,0,0-.2-1.5,6,6,0,0,1-11.6,0,5.71,5.71,0,0,0-.2,1.5,6,6,0,0,0,1.75,4.23A37.27,37.27,0,0,0,64.32,46c-1.81-5.15-7.43-11.28-13.15-17.18l-1.85-1.93-3,2.58c1.77,2.3,2.19,5.45,2.64,8.77A35.72,35.72,0,0,0,50.61,46H46.75l.34,2a36.48,36.48,0,0,0-5.6,2.53c.3-2.59,1.4-5.17,2.42-5.74,1.19-.64,2.12-.91,3.07-.26l.5.34.24-.56a1.91,1.91,0,0,0-.4-2.14,3.39,3.39,0,0,0-2.69-.94,3.26,3.26,0,0,0,.14-.45c.67-2.35.89-7.13-3-8.44a6.94,6.94,0,0,0-7.39,2.25c-1.6,1.83-2.13,4-1.36,5.63.54,1.11,1.92,2.4,5.44,2.19l.8,0-.39-.7c-.6-1.09-.68-2-.21-2.44A2.16,2.16,0,0,1,41,39.09a1.06,1.06,0,0,1,.65,1.17,2.24,2.24,0,0,1-.4.85c-4.57,6-5,10.3-4.87,13.2-.17.17-.35.33-.51.5-4.84,5-5.58,11-1.91,15.69a10.77,10.77,0,0,0,3,2.8,5,5,0,0,0,2.47.72,3.56,3.56,0,0,0,2.33-.83,4.91,4.91,0,0,0,1.59-3.34,16.94,16.94,0,0,0,11.76,4.26c.6,0,1.17,0,1.68-.07a22.77,22.77,0,0,0,6.78-1.54c.06.44.14.9.24,1.39a1.05,1.05,0,0,0-.61,0,1,1,0,0,0,.58,1.92,1,1,0,0,0,.41-.25c.24.85.55,1.77.92,2.71a1,1,0,0,0-1,0,1,1,0,0,0-.36,1.36,1,1,0,0,0,1.37.37,1,1,0,0,0,.47-.64,24.83,24.83,0,0,0,1.63,3.1,1.06,1.06,0,0,0-.71.24,1,1,0,1,0,1.33,1.49.83.83,0,0,0,.27-.42,14,14,0,0,0,2.19,2.4,1.06,1.06,0,0,0-.47.34,1,1,0,0,0,1.64,1.15.92.92,0,0,0,.17-.52,6.75,6.75,0,0,0,2.53.94,1,1,0,1,0,1.79.57,1,1,0,0,0-.2-.57,6.71,6.71,0,0,0,2.54-1,1,1,0,0,0,.16.53,1,1,0,0,0,1.39.24A1,1,0,0,0,80,86.45a1,1,0,0,0-.48-.34,14.53,14.53,0,0,0,2.2-2.4,1,1,0,0,0,.27.42,1,1,0,1,0,1.32-1.49,1,1,0,0,0-.7-.25,24.68,24.68,0,0,0,1.64-3.1.93.93,0,0,0,.46.65,1,1,0,1,0,1-1.73,1,1,0,0,0-1,0c.35-.91.66-1.82.91-2.72a.93.93,0,0,0,.41.26,1,1,0,0,0,1.24-.67A1,1,0,0,0,86.6,73.86ZM51.73,60l1.13-1.39a7.72,7.72,0,0,0,1.68.83,7,7,0,0,0-1.72,1.95c-.91,1.59-1.47,4.2.53,7.93a11.14,11.14,0,0,1-4.83-1.59l3.25-4.43ZM96.94,61.4a6.66,6.66,0,0,0-1.71-1.94,7.5,7.5,0,0,0,1.68-.83L98.05,60l0,3.3,3.25,4.43a11.18,11.18,0,0,1-4.84,1.59C98.41,65.58,97.85,63,96.94,61.4Zm-8.09,6a8.5,8.5,0,0,1-1.42-1.22C89,64.93,90.21,64.82,90.36,65S90.4,65.78,88.85,67.41ZM83.3,70.16a1.51,1.51,0,0,1-1-1.42v-1.3a2.58,2.58,0,0,0,1,.57Zm-3.92-.92h-2v-.47c.11,0,.21,0,.32,0a5.07,5.07,0,0,0,1.68-.29Zm-3,.8h-1V68.2a4,4,0,0,0,1,.41Zm-2,0h-1V68.61a4.55,4.55,0,0,0,1-.41Zm-2-.8h-2v-.73a5.18,5.18,0,0,0,1.69.29,3,3,0,0,0,.31,0Zm-4.92-.5a1.49,1.49,0,0,1-1,1.42V68a2.44,2.44,0,0,0,1-.55Zm-6.54-1.33c-1.55-1.63-1.57-2.36-1.5-2.43s1.32,0,2.92,1.2A8.11,8.11,0,0,1,60.92,67.41Zm50.48-10a8.52,8.52,0,0,1,3,5.68,12.31,12.31,0,0,0-2.5-3.75l-.71.69a11.11,11.11,0,0,1,2.89,5.34,8.36,8.36,0,0,1-.53,1.31,11.76,11.76,0,0,0-3.24-6l-.73.67c.92,1,3.21,3.79,3.05,6.8A5.87,5.87,0,0,1,110.76,70l-.14.07a5.43,5.43,0,0,1,.31-3.69l.29-.82-.4-.78a29.5,29.5,0,0,0-2.76-4.2c-.94-1.24-1.71-2.1-1.74-2.14l-3,2.67s.71.79,1.56,1.9l.31.42a13.05,13.05,0,0,1-1,1.57L102,62l0-3.42-2.32-2.84a17.18,17.18,0,0,0,1.92-3.87,34.6,34.6,0,0,1,6.13,2.8A18.81,18.81,0,0,1,111.4,57.37ZM55.49,47c-1.72-2.8-2.15-6-2.6-9.33l-.21-1.48c3.3,3.63,6.74,7.86,7.87,11.07l-1.07.46,1.7,3.63a22.86,22.86,0,0,1,2.38-1,36.3,36.3,0,0,1,22.67,0,21.78,21.78,0,0,1,2.35,1l1.71-3.61c-.35-.17-.7-.32-1.06-.47,1.12-3.21,4.57-7.44,7.87-11.07-.08.5-.14,1-.21,1.48C96.44,41,96,44.2,94.29,47l-1.87,3h5.65a12.44,12.44,0,0,1-2.36,4.41c-1.4,1.52-3,1.8-5.06.91l-1.48-.64-4.88,6.86,4.2-.28c1.28-.09,4.1.57,5,2.1s-.26,3.67-1.36,5.32a1,1,0,0,1-.12.17A10.77,10.77,0,0,1,89.71,68c2-2.11,1.86-3.16,1.38-3.66-.79-.84-2.82-.22-4.73,1.46l0,0h0l-.2.18a3.27,3.27,0,0,1-2.26,1.11,2,2,0,0,1-1.55-1.54l-.48-1.21-.51,1.25a3.9,3.9,0,0,1-1.65,1.71,4.17,4.17,0,0,1-2.68.41,2.37,2.37,0,0,1-1.66-1s0,0,0,0a.46.46,0,0,0-.07-.07l-.07-.07,0,0-.07,0-.09,0h-.19l-.09,0-.07,0s0,0,0,0l-.07.06-.07.08,0,0a2.33,2.33,0,0,1-1.66,1,4.08,4.08,0,0,1-2.67-.42,3.86,3.86,0,0,1-1.7-1.82l-.57-1.22-.37,1.3a1.92,1.92,0,0,1-1.55,1.54A3.23,3.23,0,0,1,63.67,66l-.09-.07-.18-.16c-1.9-1.67-3.93-2.3-4.71-1.47-.48.51-.59,1.55,1.36,3.66a11.19,11.19,0,0,1-2.28,1l-.15-.23c-1.07-1.6-2.17-3.81-1.33-5.27s3.71-2.18,5-2.1l4.19.27-4.84-6.85-1.49.63c-2.1.9-3.66.62-5.07-.91A12.37,12.37,0,0,1,51.71,50h5.65ZM38.85,66.38A5.74,5.74,0,0,1,39.22,70l-.3-.15a6.7,6.7,0,0,1-1.77-1.7c-.15-3,2.14-5.8,3.05-6.78l-.73-.67a11.73,11.73,0,0,0-3.24,6,6.65,6.65,0,0,1-.49-1.53A11.29,11.29,0,0,1,38.59,60l-.71-.69A11.93,11.93,0,0,0,36,61.74a11.25,11.25,0,0,1,2.66-4.15,18.8,18.8,0,0,1,3.46-2.78,29.75,29.75,0,0,1,6-2.9A17.93,17.93,0,0,0,50,55.76L47.72,58.6l0,3.42-2.2,3a11.91,11.91,0,0,1-1-1.57l.31-.41c.86-1.12,1.56-1.91,1.57-1.91l-3-2.67s-.8.9-1.75,2.14A29.22,29.22,0,0,0,39,64.79l-.39.77Z"/><path class="cls-1" d="M83.55,86.16a1.5,1.5,0,1,0-.13-2.11A1.5,1.5,0,0,0,83.55,86.16Z"/><path class="cls-1" d="M81,93.08a2,2,0,1,0,.49-2.78A2,2,0,0,0,81,93.08Z"/><path class="cls-1" d="M79.4,89.93a1.5,1.5,0,1,0,.37-2.09A1.51,1.51,0,0,0,79.4,89.93Z"/><path class="cls-1" d="M69.08,103.1a5.71,5.71,0,0,0-.2,1.5,6,6,0,0,0,12,0,5.71,5.71,0,0,0-.2-1.5,6,6,0,0,1-11.6,0Z"/><path class="cls-1" d="M70.88,116.15c0,2.2,4,7,4,7s4-4.8,4-7-1.79-5.55-4-5.55S70.88,113.94,70.88,116.15Z"/><circle class="cls-1" cx="74.88" cy="40.55" r="3"/><circle class="cls-1" cx="74.88" cy="104.59" r="3"/><circle class="cls-1" cx="74.88" cy="99.09" r="2.5"/><circle class="cls-1" cx="74.88" cy="94.59" r="2"/><circle class="cls-1" cx="74.88" cy="91.09" r="1.5"/><path class="cls-1" d="M67.91,88.21A1.5,1.5,0,1,0,70,87.84,1.5,1.5,0,0,0,67.91,88.21Z"/><path class="cls-1" d="M65.49,90.79a2,2,0,1,0,2.78-.49A2,2,0,0,0,65.49,90.79Z"/><path class="cls-1" d="M62.5,94.19A2.5,2.5,0,1,0,66,93.58,2.5,2.5,0,0,0,62.5,94.19Z"/><path class="cls-1" d="M64.23,83.92a1.49,1.49,0,1,0,2.12.13A1.49,1.49,0,0,0,64.23,83.92Z"/><path class="cls-1" d="M61.27,85.86A2,2,0,1,0,64.1,86,2,2,0,0,0,61.27,85.86Z"/><path class="cls-1" d="M58.93,98.41a3,3,0,1,0,4.18-.74A3,3,0,0,0,58.93,98.41Z"/><path class="cls-1" d="M61.62,79a1.5,1.5,0,0,0,1.51,2.6A1.5,1.5,0,0,0,61.62,79Z"/><path class="cls-1" d="M60.62,74.1a1.5,1.5,0,1,0,1.87,1A1.5,1.5,0,0,0,60.62,74.1Z"/><path class="cls-1" d="M57.57,88.47a2.5,2.5,0,1,0,3.53.21A2.5,2.5,0,0,0,57.57,88.47Z"/><path class="cls-1" d="M58.34,80.36a2,2,0,1,0,2.74.72A2,2,0,0,0,58.34,80.36Z"/><path class="cls-1" d="M53.21,104.84c-1.26,1.81-.74,8-.74,8s6-1.64,7.3-3.44,1.71-5.58-.1-6.84S54.48,103,53.21,104.84Z"/><path class="cls-1" d="M57.13,74.63A2,2,0,1,0,59.62,76,2,2,0,0,0,57.13,74.63Z"/><path class="cls-1" d="M54.2,82.19a2.5,2.5,0,1,0,3.42.9A2.5,2.5,0,0,0,54.2,82.19Z"/><path class="cls-1" d="M53.12,91.73a3,3,0,1,0,4.23.26A3,3,0,0,0,53.12,91.73Z"/><path class="cls-1" d="M52.67,75.45a2.5,2.5,0,0,0,1.44,4.79,2.5,2.5,0,1,0-1.44-4.79Z"/><path class="cls-1" d="M49.19,84.52a3,3,0,1,0,4.1,1.08A3,3,0,0,0,49.19,84.52Z"/><path class="cls-1" d="M46.05,96.64c-1.65,1.47-2.59,7.64-2.59,7.64s6.24-.18,7.89-1.64,3-5,1.51-6.67S47.71,95.18,46.05,96.64Z"/><path class="cls-1" d="M47.26,76.55a3,3,0,1,0,3.74,2A3,3,0,0,0,47.26,76.55Z"/><path class="cls-1" d="M41.3,88c-1.91,1.11-4,7-4,7s6.15,1,8.06-.06,3.9-4.33,2.79-6.24S43.21,86.84,41.3,88Z"/><path class="cls-1" d="M38.79,78.05c-2.12.64-5.55,5.85-5.55,5.85s5.73,2.45,7.85,1.81,4.8-3.31,4.16-5.42S40.9,77.42,38.79,78.05Z"/><path class="cls-1" d="M72.27,61a2,2,0,0,0,0,4,2,2,0,0,0,1.42-.58L73,63.66A1,1,0,0,1,71.27,63a1,1,0,0,1,1-1,.89.89,0,0,1,.41.1h0a.49.49,0,0,0,.17.06.49.49,0,0,0,.56-.43c.14-1.16.77-2,1.47-2s1.34.88,1.48,2a.5.5,0,0,0,.49.44h.06a.55.55,0,0,0,.18-.06h0a.85.85,0,0,1,.4-.1,1,1,0,0,1,0,2,1,1,0,0,1-.7-.29l-.69.73A2,2,0,1,0,77.49,61l-.25,0c-.34-1.39-1.27-2.35-2.36-2.35s-2,1-2.36,2.35A1.9,1.9,0,0,0,72.27,61Z"/><path class="cls-1" d="M67.84,61.6c1,0,2.08-.68,3.83-1.88l.83-.58L62.14,55.8,63,57C65.34,60.23,66.46,61.6,67.84,61.6Zm-1.2-3.3a1.22,1.22,0,0,0-.19.62,1.24,1.24,0,0,0,2.48.12l1.33.43c-2.57,1.73-3,1.6-5.52-1.78Z"/><rect class="cls-1" x="62.86" y="51.77" width="1" height="3.12" transform="translate(-17.46 35.24) rotate(-27.47)"/><rect class="cls-1" x="65.56" y="52.63" width="1" height="3.12" transform="translate(-17.5 36.34) rotate(-27.3)"/><rect class="cls-1" x="68.26" y="53.49" width="1" height="3.12" transform="translate(-17.59 37.66) rotate(-27.3)"/><rect class="cls-1" x="70.96" y="54.35" width="1" height="3.12" transform="translate(-17.69 39.02) rotate(-27.31)"/><path class="cls-1" d="M53.48,51.86a4,4,0,0,0,1.73,2.45,3.59,3.59,0,0,0,1.85.48,5.79,5.79,0,0,0,1.72-.29l.64-.2-.37-.55c-2.28-3.43-5.12-2.5-5.24-2.46l-.41.15Z"/><path class="cls-1" d="M78.11,59.72c1.74,1.2,2.85,1.89,3.82,1.89,1.39,0,2.51-1.38,4.81-4.57l.89-1.24L77.28,59.14ZM80.84,59a1.24,1.24,0,0,0,1.22,1.13,1.25,1.25,0,0,0,1.25-1.25,1.21,1.21,0,0,0-.18-.62l1.9-.61c-2.47,3.38-3,3.52-5.52,1.78Z"/><rect class="cls-1" x="84.84" y="52.83" width="3.12" height="1" transform="translate(-0.74 105.44) rotate(-62.56)"/><rect class="cls-1" x="82.15" y="53.69" width="3.12" height="1" transform="translate(-2.85 103.7) rotate(-62.68)"/><rect class="cls-1" x="79.45" y="54.55" width="3.12" height="1" transform="translate(-5.08 101.76) rotate(-62.68)"/><rect class="cls-1" x="76.75" y="55.41" width="3.12" height="1" transform="translate(-7.3 99.83) rotate(-62.68)"/><path class="cls-1" d="M92.71,54.79a3.54,3.54,0,0,0,1.86-.49,4,4,0,0,0,1.72-2.44l.09-.43L96,51.29c-.13,0-3-1-5.25,2.46l-.37.55.64.2A5.79,5.79,0,0,0,92.71,54.79Z"/></g></svg>