<?xml version="1.0" encoding="UTF-8"?>
<svg id="icons" xmlns="http://www.w3.org/2000/svg" viewBox="0 0 120 120">
  <defs>
    <style>
      .cls-1 {
        fill: #121112;
      }
    </style>
  </defs>
  <path class="cls-1" d="m66.93,30.81c.46-.2.8-.64.84-1.16.05-.52-.21-1-.62-1.27-.46.2-.8.63-.84,1.15-.05.52.21,1,.62,1.27Z"/>
  <path class="cls-1" d="m62.73,30.78l2.23,1.06c.1.05.21.07.32.07.28,0,.55-.16.68-.43.18-.38.02-.82-.36-1l-2.23-1.06c-.38-.18-.82-.02-1,.36-.18.38-.02.82.36,1Z"/>
  <path class="cls-1" d="m67.58,31.68c.09.33.39.56.72.56.06,0,.13,0,.19-.03l2.4-.64c.4-.11.64-.52.53-.92-.11-.4-.51-.64-.92-.53l-2.4.64c-.4.11-.64.52-.53.92Z"/>
  <path class="cls-1" d="m63.73,39.19c.62.28,1.32.48,2.09.57l.61.08c.36.04.7.07,1.02.07.5,0,.97-.05,1.4-.16,1.14-.28,1.97-.86,2.57-1.82.14-.27.14-.59,0-.85-.15-.27-.42-.44-.7-.46l-2.58-.27c.14-.06.26-.15.35-.28.02-.04.12-.21.2-.45.26.08.52.14.79.14.05,0,.1,0,.15,0,.97-.06,1.82-.67,2.23-1.59.1-.22.08-.48-.04-.69-.52-.87-1.44-1.38-2.41-1.32-.78.05-1.48.46-1.94,1.1-.5-.2-1-.28-1.45-.23-.37-.71-1.02-1.21-1.8-1.35-.96-.17-1.94.22-2.56,1.02-.15.19-.2.44-.13.68.29.97,1.07,1.68,2.03,1.85h0c.14.03.29.04.43.04.16,0,.31-.03.46-.05.04.16.09.32.17.48.08.16.21.27.36.34l-2.4-.25c-.3-.01-.63.12-.83.37-.19.24-.25.55-.17.82.25.95.96,1.68,2.15,2.23Zm5.76-5.55c.29,0,.54.08.76.26-.19.2-.44.33-.71.34-.27.01-.55-.08-.76-.26.19-.2.45-.33.72-.34Zm-2.56.99c.11.05.3.15.35.27.04.12-.03.31-.07.37-.21.34-.11.76.2.99l-1-.1s0,0,0,0l-.9-.12s.08-.01.11-.03c.37-.18.52-.63.34-1-.07-.14-.13-.33-.06-.41.11-.12.51-.19,1.02.03Zm-3.11-.9c-.27-.05-.5-.2-.66-.42.24-.16.53-.22.8-.18.27.05.5.2.66.42-.24.16-.52.23-.8.18Zm1.37,3.81s0,0,0,0l2.08.24s.06,0,.1,0c.02,0,.03,0,.05,0,.02,0,.05,0,.07,0l1.83.19c-.23.14-.5.24-.82.32-.55.13-1.16.15-1.89.06l-.61-.08c-.61-.08-1.17-.23-1.64-.45-.3-.14-.55-.29-.75-.45l1.59.16Z"/>
  <path class="cls-1" d="m100.54,86.16c-.78.11-1.4.61-1.67,1.33-.23.64-.37,2.01,1.34,3.91.74.82.83,1.28.77,1.41-.03.08-.15.17-.35.25-.35-1.14-1.34-2.12-2.81-2.76-1.76-.76-4.37-1.03-5.92.18-.76.6-.66,1.28-.58,1.55.48,1.62,4.23,2.53,6.48,2.73.41.04.85.06,1.29.05-.37.85-1.27,1.78-2.63,2.71-.56-.96-1.72-2.03-3.97-2.98-3.51-1.48-4.83-.52-5.3.18-.7,1.04-.3,2.65.96,3.91,1.44,1.45,4.05,2.44,7.17,1.2-.19.44-.57.85-1.12,1.18-1.58.95-4.36,1.15-7.03-.52-3.38-2.12-2.47-4.84-.7-9.1,1.03-2.47,2.09-5.03,1.87-7.6-.03-.57-.68-13.95-3.12-20.14-.14-.35-.52-.53-.87-.44.52-.33,1-.65,1.41-.94.4-.27.72-.52.98-.77,1.14-.99,1.71-2.01,1.76-3.11.06-1.4-.72-2.9-2.46-4.7-.25-.26-.54-.55-.84-.83-.61-.57-1.17-1.16-1.71-1.77l7.24-14.39c.14.02.28.04.42.04,1.63,0,2.95-1.33,2.95-2.96,0-.27-.05-.53-.12-.78,1.33-.29,2.33-1.47,2.33-2.88,0-.46-.11-.89-.3-1.29,1.42-.22,2.51-1.43,2.51-2.91,0-.41-.09-.79-.24-1.15,1.35-.27,2.37-1.46,2.37-2.88,0-.42-.1-.82-.27-1.19,1.11-.42,1.9-1.49,1.9-2.74,0-1.63-1.33-2.95-2.95-2.95s-2.97,1.33-2.97,2.95c0,.42.1.83.27,1.2-1.1.43-1.91,1.47-1.91,2.73,0,.4.1.79.25,1.14-1.36.27-2.39,1.46-2.39,2.89,0,.46.12.9.31,1.3-1.42.21-2.52,1.43-2.52,2.9,0,.27.05.54.12.79-1.33.29-2.34,1.47-2.34,2.87,0,.92.45,1.79,1.16,2.34l-6.92,13.75c-.17-.2-.35-.4-.51-.59-1.97-2.31-3.67-4.3-6.96-5.02-.26-.05-.52.05-.69.23-.07-.24-.25-.44-.5-.51-.79-.22-1.32-.43-1.67-.66-.02-.02-.05-.03-.08-.04-.59-.4-.65-.83-.74-2.05,0-.11-.02-.23-.03-.35,1.27-.78,2.18-2.05,2.47-3.56.82-.47,3.15-1.92,6.3-4.73,1.49-1.33,2.16-2.64,1.98-3.89-.15-1.07-.88-1.78-1.41-2.17.68-2.43-.19-3.68-.79-4.22.22-1.84.07-2.9-.5-3.48-.5-.51-1.11-.47-1.53-.43-.04-3.33-.66-4.01-1.27-4.23-.38-.13-.97-.12-1.62.69v.02c-.1-.35-.17-.85-.21-1.2-.17-1.25-.31-2.23-1.1-2.47-.3-.09-.78-.08-1.29.51-.16.18-.28.3-.37.38-.09-.28-.17-.73-.22-1.03-.19-1.07-.41-2.28-1.39-2.54-1.31-.34-2.03,1.23-2.67,2.62-.2.44-.51,1.11-.75,1.44-.37-.46-.78-.67-1.21-.63-.73.08-1.05.78-1.36,1.46-.13.29-.37.82-.44.89,0,0-.09-.02-.28-.19-.48-.44-.95-.6-1.41-.46-.76.22-.99,1.07-1.23,1.96-.1.38-.35,1.29-.55,1.38,0,0-.22.02-.72-.39-.59-.47-1.08-.37-1.32-.26-.84.37-.91,1.59-1,3.12-.02.41-.06,1-.12,1.41-.77-.34-1.75-.04-2.47.81-1.53,1.81-2.15,6.56,5,12.93l-.1.92c-.15,1.39.27,2.76,1.17,3.85.26.32.56.6.88.84-.26,1.16-.96,1.7-2.24,1.73-.45.01-.96-.05-1.55-.17-.08-.02-.16-.01-.24,0-.33-.21-.77-.14-1.01.19,0,0-.09.13-.2.33-.93-.04-2.07.16-3.27.45,0,0,0,0,0,0-.11-.4-.51-.64-.92-.53-.48.13-.97.26-1.45.4-1.32.37-2.57.72-3.63.89-1.61.26-2.58.35-3.1.39-.11,0-.21,0-.29,0-.9-1.27-4.32-6.03-6.85-8.75-.01-.01-.02-.02-.03-.03-.29-.3-.56-.57-.81-.82-1.09-6.06-2.48-5.94-2.93-5.9-.53.04-.95.36-1.17.86-.13.04-.3.1-.49.17-.73-.71-1.35-1.06-1.9-1.03-.93.04-1.49.94-1.57,2.43-.1.04-.18.08-.29.13-.19.08-.39.17-.59.26.06-.44.26-2.3-.81-2.99-.62-.4-1.41-.31-2.36.29-1.66,1.04-2.86,3.22-2.99,5.43-.12,2,.63,3.76,2.12,4.96,1.48,1.2,3.4,1.75,5.06,1.75,1.21,0,2.27-.29,2.92-.83.74-.62.89-1.5.41-2.36-.1-.17-.21-.32-.31-.46.56.45,1.06.82,1.3,1,.55,1.11,3.48,6.84,7.03,11.01.93,1.09,2.4,1.8,4.36,2.11.03,0,.05.01.08.02,0,0,.02,0,.03,0,.02,0,.04,0,.06,0,.02,0,.04,0,.07,0,0,0,0,0,0,0,.81.12,1.66.17,2.51.17,1.71,0,3.4-.2,4.8-.43.2.92.36,2.02.36,3.53,0,.68-.02,1.33-.06,1.94-.65-.23-1.38-.33-2.19-.27-4.42.28-6.62,2.56-6.8,4.56-.12,1.34.64,2.99,3.13,3.6,1.82.45,3.33.27,4.5-.54,1.22-.84,2.04-2.31,2.5-4.46,1.11,2.02.91,5.46.58,7.29,0,.04-.01.09-.01.13h0c0,.1.02.19.05.28-2.62,1.08-5.16,2.35-6.27,3.63-2.5,2.84-1.9,5.41,1.37,5.18.95-.08,2.74-.23,4.85-.39,0,0,0,0,0,0,.03.39.36.7.75.7.02,0,.04,0,.06,0,.4-.03.77-.05,1.15-.08,1.94,1.1,5.7,3.37,7.58,5.41,1.19,1.28,1.26,2.7,1.41,4.23l-5.3,10.52c-.46-2.85-1.73-6.08-2.93-9.12-1.45-3.67-2.81-7.13-2.62-9.34.04-.41-.27-.78-.68-.81-.4-.03-.78.27-.81.68-.22,2.56,1.21,6.18,2.72,10.02,2.36,5.99,4.8,12.19,1.21,14.44-2.62,1.64-5.41,1.11-7,.15-1.02-.61-1.71-1.46-1.92-2.31,3.04,1.15,5.6.16,7.01-1.26,1.26-1.27,1.66-2.88.96-3.91-.47-.7-1.79-1.66-5.3-.18-2.2.93-3.3,2.05-3.82,3.08-.02-.02-.05-.03-.07-.05-1.41-.94-2.34-1.89-2.71-2.76.43,0,.88-.02,1.28-.05,2.25-.2,6-1.11,6.48-2.73.08-.27.18-.95-.58-1.55-1.55-1.21-4.16-.94-5.92-.18-1.47.64-2.47,1.62-2.81,2.76-.2-.08-.31-.17-.35-.25-.06-.13.03-.59.77-1.41,1.72-1.91,1.58-3.27,1.34-3.91-.26-.73-.89-1.22-1.67-1.33-.95-.14-1.95.35-2.61,1.25-.24.34-.17.8.17,1.05.34.25.8.17,1.05-.17.39-.54.86-.7,1.19-.65.16.02.37.1.47.36.15.42-.04,1.27-1.05,2.4-1.08,1.2-1.42,2.24-.99,3.09.29.59.89.93,1.61,1.12.27,1.41,1.44,2.82,3.51,4.2.17.11.33.21.49.31-.1,1.65.91,3.28,2.71,4.36,1.05.63,2.53,1.12,4.16,1.12,1.41,0,2.93-.36,4.4-1.28,1.61-1.01,2.32-2.54,2.46-4.35.11-.07.21-.17.27-.29l5.33-10.59c.36,1.1,1.02,2.24,2.36,3.41,1.44,1.25,2.59,1.95,3.57,2.47-.01.02-.03.04-.04.07-.35.89-.59,1.72-.71,2.4-.12.71-.59,1.33-1.05,1.93-.44.58-.89,1.17-1.01,1.84-.46-.1-.92-.08-1.36.07-1.93-2.23-3.01-2.01-3.44-1.92-.77.16-1.31.72-1.71,1.47-.22,0-.45.03-.68.1-1.24.43-2.55,2.18-3.92,5.2l-.13.3c-.09.22-.33.8-.48.83-1.52.29-3.41.82-3.82,1.71-.15.31-.13.67.04.97.49.87,2.2,1.09,3.85,1.09.77,0,1.51-.05,2.13-.11.24,0,2.16.07,3.54.07.4,0,.76,0,1.01-.02.32-.02.6-.15.79-.38.35-.42.28-.96.22-1.39-.02-.11-.03-.22-.03-.32,0-.16.02-.29.02-.44,1.34,2.52,2.61,2.78,4.85,2.23.76-.19,2.59-.04,4.37.1,1.42.11,2.87.22,4.15.22,1.2,0,2.26-.1,3.02-.4,1.69-.66,2.27-.62,4.2-.52.57.03,1.25.07,2.1.1,3.9.1,5.45-1.36,5.61-1.53.22-.23.27-.56.14-.84-.13-.28-.41-.45-.74-.42-.57.05-2.2-.01-2.86-.86-1.15-1.49-3.84-3.44-5.94-2.9-1.72.44-2.32,1.65-2.45,2.63-.29-.09-.76-.31-1.44-.79-.11-.08-.22-.13-.34-.2.3-.21.51-.52.57-.88.08-.5-.11-1.02-.52-1.42-.76-.72-3.42-2.51-3.65-2.66,0,0-.02-.01-.02-.02.23-.35.54-.79.89-1.27,2.58,3.74,5.97,3.73,3.73,2.02-1.67-1.29-.18-3.48-1.1-5.63.09-.05.17-.11.24-.19,2.27-2.89,4.28-5.27,5.23-6.2.93-.9,1.42-2.04,1.48-3.52.03-.49,0-1.01-.08-1.58-.28-2.36-1.33-5.43-3.06-9.95-.15-.39-.58-.58-.97-.43-.05.02-.09.06-.14.09l-1.06-1.6c-.61-.9-1.25-1.78-1.96-2.62-.36-.43-.73-.89-1.01-1.25.27-.13.9-.46,1.74-.89,0,0,0,0,0,0,0,0,0,0,0,0,.88-.46,1.96-1.04,3.05-1.67.67-.38,1.3-.76,1.87-1.11-.16.2-.23.48-.12.74,2.35,5.96,3.01,19.53,3.02,19.69.19,2.23-.8,4.61-1.76,6.92-1.64,3.95-3.34,8.04,1.29,10.94,1.67,1.04,3.39,1.47,4.94,1.47,1.43,0,2.71-.36,3.66-.93,1.35-.81,2.07-2.01,1.98-3.29,0,0,0,0,0,0,.09-.06.19-.12.28-.18,2.06-1.38,3.24-2.79,3.51-4.2.72-.19,1.32-.53,1.61-1.12.42-.85.09-1.88-.99-3.09-1.01-1.12-1.2-1.97-1.05-2.4.09-.26.31-.34.47-.36.31-.05.79.1,1.19.65.24.34.71.41,1.05.17.34-.24.41-.71.17-1.05-.66-.91-1.66-1.39-2.61-1.25Zm-11.34,11.4c-.79-.79-1.02-1.66-.78-2.02.1-.15.38-.3.9-.3.56,0,1.39.17,2.57.66,1.62.68,2.75,1.51,3.25,2.35-2.61,1.22-4.74.51-5.95-.7Zm-39.67-35.07c-.81.56-1.88.67-3.29.32-1.33-.33-2.08-1.08-2-2.01.13-1.43,2.02-2.98,5.4-3.2.12,0,.23-.01.34-.01.62,0,1.15.12,1.6.35-.33,2.3-1.02,3.83-2.06,4.55Zm.8,33.42c2.29-.96,3.26-.68,3.47-.37.24.35,0,1.23-.78,2.02-1.18,1.18-3.24,1.89-5.78.77.45-.92,1.51-1.76,3.08-2.42Zm-5.33-4.24c1.6-.69,3.53-.7,4.4-.02,0,0,.01,0,.02.01-.48.59-3.35,1.63-6.11,1.63-.07,0-.14,0-.21,0,.38-.88,1.42-1.41,1.9-1.62Zm41.47-32.11c-.6-1.02-1.89-2.32-4.64-2.47.4-.97,1.33-2.33,3.3-2.16,1.28,1.37,1.89,2.48,1.85,3.39-.02.42-.19.83-.51,1.25Zm-2.76-6.05c-.84.2-1.52.62-2.05,1.15l1.08-2.15c.31.34.64.67.97.99Zm-3.65,4.63l-.34.38.24-.48.1.1Zm-10.09,5.64c.26.82,1.07,1.3,2.42,1.43-.49.24-1.02.44-1.49.61l-.48.18c-.18.07-.37.14-.56.23-.18-.11-.39-.24-.6-.39-.03-.11-.08-.22-.17-.31-.15-.16-.36-.23-.57-.23-1-.8-1.92-1.81-1.59-2.7.31-.87.93-1.97,1.9-2.6.17.33.56.5.92.36.85-.32,1.86-.08,3,.68.12.22.25.42.4.6-1.18.06-2.41.32-2.95.98-.28.34-.36.76-.23,1.17Zm3.02,25.77c-1.35-1.29-1.72-2.54-.63-4.38.67-1.13,1.52-2.12,2.35-3.09l-.42.53s1.82,1.43,2.97,2.3c.14.1.17.17.19.16,0,0-.08.34-1.23.97-1.25.67-2.43,2.26-3.23,3.51Zm-13.79-46.09c2.39,1.9,4.89,2.49,7.04,2.49,2.53,0,4.56-.78,5.37-1.15.38.2.84.37,1.42.55-3.01,3.34-12.51,5.17-15.05-2.01.43.07.84.12,1.21.13Zm7.17,23.88c.39,0,.71.29.71.65s-.32.66-.71.66-.72-.29-.72-.66.32-.65.72-.65Zm8.88-5.64l-.88-.96c-.15-.15-.27-.35-.37-.55-.21-.47-.22-1.02-.05-1.49l1.78-4.65,3.09,2.92-2.49,4.95c-.37-.11-.75-.17-1.08-.22Zm24.06-45.2c.8,0,1.45.65,1.45,1.45s-.65,1.44-1.45,1.44c-.01,0-.03,0-.04,0-.19-.13-.41-.23-.63-.31-.11-.04-.22-.07-.34-.09-.29-.26-.45-.64-.45-1.04,0-.8.66-1.45,1.47-1.45Zm-1.63,3.93h.03c.11.07.21.12.26.14.21.12.45.2.71.26.29.27.46.66.46,1.05,0,.8-.65,1.44-1.45,1.44-.3,0-.58-.09-.84-.26-.4-.27-.63-.7-.63-1.18,0-.8.66-1.45,1.47-1.45Zm-2.14,4.04c.18,0,.35.03.53.11.56.21.92.74.92,1.33,0,.8-.65,1.45-1.46,1.45-.27,0-.54-.08-.79-.24-.42-.26-.68-.71-.68-1.22,0-.8.66-1.44,1.46-1.44Zm-2.21,4.2c.2,0,.4.04.58.12.54.24.88.76.88,1.33,0,.8-.66,1.46-1.46,1.46-.1,0-.2,0-.29-.03-.01-.01-.03-.02-.04-.03-.11-.09-.21-.17-.31-.23,0,0-.02,0-.03-.02,0,0,0,0,0,0,0,0-.01,0-.02,0-.14-.08-.28-.16-.43-.22-.21-.26-.33-.58-.33-.92,0-.8.65-1.44,1.45-1.44Zm-2.2,3.66c.1,0,.2,0,.29.03.02.01.03.02.05.03.13.1.25.19.36.25.01,0,.03.01.04.02,0,0,0,0,0,0,0,0,0,0,0,0,.1.06.21.12.32.16.02,0,.03.02.05.02.21.25.33.58.33.92,0,.8-.65,1.46-1.45,1.46-.19,0-.37-.04-.54-.1-.55-.22-.92-.76-.92-1.35,0-.8.66-1.44,1.47-1.44Zm-10.38,17.92c.29.34.61.7.92,1.06l-2.14,4.25-3.12-2.95c-.27-.26-.66-.38-1.04-.29-.38.08-.69.33-.85.71l-1.96,5.14c-.11.3-.16.62-.19.93-1.11-.46-2.15-.52-3.13-.16-.03.01-.05.03-.07.04-.28-.65-.63-1.72-.59-3,.38.16.77.25,1.17.29.12.01.23.02.35.02,1.59,0,3.29-.9,3.69-2.74.09-.41-.17-.8-.58-.89-.4-.09-.8.17-.89.58-.24,1.13-1.41,1.64-2.45,1.55-.21-.02-.64-.09-1.04-.34.1-.34.23-.69.42-1.05,1.52-3.02,4.78-4.77,5.41-7.65,2.76.61,4.16,2.25,6.09,4.51Zm-20.57-19.69s-.06-.07-.09-.12c-.24-.56-.21-1.3.04-2.04.83-.27,1.43-1.03,1.43-1.93,0-.03,0-.06,0-.1.31-.27.66-.5,1.05-.69.14.03.29.04.45.04.67,0,1.29-.27,1.73-.7h.12c.67-.09,1.32-.11,1.95-.09.43.3.93.48,1.47.48.35,0,.68-.09.98-.22.67.14,1.28.32,1.84.54.39.66,1.11,1.1,1.92,1.1,0,0,.01,0,.02,0,.18.15.34.3.49.45-.15.28-.23.59-.23.91,0,.92.63,1.68,1.48,1.94.06,1.17-.23,1.85-.58,2.23v-.05c.15-1.39-.26-2.77-1.16-3.87-.95-1.16-2.31-1.88-3.84-2.02l-3.22-.31c-2.86-.25-5.42,1.7-5.83,4.42Zm-1.22-4.38c.1-.15.29-.25.5-.25.26,0,.49.15.59.46,0,0,.01.02.01.08,0,.28-.23.51-.6.54-.33,0-.6-.24-.6-.54,0-.12.05-.22.1-.29Zm4.86-2.31c-.23.3-.62.47-1.1.3-.4-.12-.67-.48-.67-.87,0-.34.2-.64.54-.81.14-.07.29-.11.45-.11.55,0,1,.41,1,.92,0,.2-.07.38-.22.57Zm12.11,4.04c.07.09.1.18.1.3,0,.29-.24.52-.56.53-.03,0-.06,0-.08,0-.31-.02-.55-.25-.55-.54,0-.19.1-.31.19-.39.11-.09.25-.15.41-.15.2,0,.37.08.5.24Zm-2.77-2.57c-.36.07-.7-.14-.82-.48-.02-.06-.03-.12-.03-.19,0-.14.06-.26.14-.37.07-.06.16-.13.26-.22.1-.05.22-.09.34-.09.15,0,.27.04.36.09.24.12.38.34.38.58,0,.32-.26.6-.63.67Zm-1.32-2.5c-.45.28-.78.72-.94,1.23-.11-.03-.21-.07-.32-.1.14-.31.23-.63.23-.97,0-.82-.42-1.54-1.07-1.98,1.95-1.65,3.4-1.81,3.94-1.62.26.09.31.24.33.38.08.73-1.13,2.13-2.17,3.07Zm-3.53-.77s0,0,0,0c0,0,0,0,0,0,.54,0,.99.42.99.92,0,.32-.17.6-.47.78-.36.23-.9.18-1.24-.13-.18-.17-.29-.4-.29-.65,0-.51.44-.92.99-.92Zm-12.43.58c.32-.38.65-.47.75-.38.55.44,1.01.35,1.23.25.8-.35.86-1.45.95-2.97.03-.46.07-1.14.15-1.58.69.48,1.3.63,1.86.45.97-.32,1.27-1.43,1.53-2.42.06-.22.14-.53.22-.74.5.44,1.01.61,1.5.52.84-.17,1.24-1.04,1.55-1.74.05-.1.11-.23.16-.35.42.48.85.55,1.15.52.92-.1,1.42-1.18,2-2.43.23-.5.64-1.38.93-1.7.12.29.23.9.3,1.25.19,1.03.38,2.1,1.25,2.35.61.17,1.17-.2,1.6-.62.05.27.09.58.12.81.18,1.32.34,2.47,1.24,2.72.76.21,1.36-.47,1.59-.76.12.43.26,1.31.26,2.86,0,.41.13.73.38.95.39.34.86.28,1.2.24.12-.02.33-.04.38-.02,0,0,.36.37.03,2.66-.04.31.13.62.4.77.05.03,1.24.72.33,3.29-.13.36.04.75.38.92,0,0,1.02.52,1.14,1.39.1.72-.42,1.6-1.49,2.56-2.17,1.94-3.95,3.21-5.06,3.93l.12-1.14c1.09-.36,2.42-1.51,2.27-4.2.72-.32,1.22-1.03,1.22-1.85,0-.18-.03-.35-.07-.51l.89-.6c.34-.23.43-.7.2-1.04-.23-.34-.7-.43-1.04-.2l-.95.64c-.33-.21-.71-.33-1.12-.33-.26,0-.52.05-.75.14-.03-.03-.05-.05-.07-.08.42-.4.68-.95.68-1.55,0-.82-.46-1.55-1.19-1.92-.01,0-.03,0-.04-.02.81-.93,1.57-2.09,1.45-3.14-.09-.77-.57-1.36-1.33-1.62-1.05-.36-2.81-.08-4.88,1.5.03-.39-.25-.75-.65-.8-.42-.05-.79.24-.84.65l-.17,1.35c-1.05.29-1.82,1.21-1.82,2.32,0,.15.02.3.05.45-.11,0-.23.02-.34.02,0-.05.01-.11.01-.16,0-1.34-1.12-2.42-2.5-2.42-.23,0-.46.04-.67.1l-1.31-1.05c-.32-.26-.79-.2-1.05.12-.26.32-.2.8.12,1.05l.94.75c-.32.41-.52.91-.52,1.45,0,.57.21,1.1.55,1.51-.08.05-.14.12-.22.18-.38-.35-.87-.57-1.42-.57-.49,0-.95.17-1.31.46l-1.63-.61c-.39-.14-.82.05-.97.44-.15.39.05.82.44.97l1.42.53c-.01.09-.04.17-.04.26,0,.82.5,1.52,1.22,1.85-.25.96-.21,1.91.13,2.71.27.62.69,1.1,1.24,1.42l-.03.32c-5.47-5.23-5.1-8.87-4.05-10.11Zm5.25,13.04l.49-4.77c.21-2.02,2.12-3.52,4.25-3.31l3.22.31c1.12.11,2.13.63,2.82,1.48.64.79.94,1.77.84,2.76l-.48,4.56c-.22,2.12-2.21,3.67-4.44,3.45l-.96-.09-2.12-.2c-1.11-.1-2.11-.62-2.79-1.46-.64-.78-.94-1.76-.83-2.74Zm3.5,5.7l2.11.2s0,0,0,0l.96.09c.19.02.37.03.56.03.52,0,1.03-.09,1.51-.23.06.82.15,1.57.58,2.22-1.69.65-5.4,1.58-9.07-.64.84-.4,1.44-1.1,1.76-2.08.51.2,1.04.36,1.61.41Zm-29.96-6.58c.03.16.11.31.24.43.17.15.34.33.53.51-.33.44-1.01,1.05-2.11,1-.56-.4-2.05-1.58-2.8-2.35.18-.14.4-.32.67-.52l1.89-1.4s.01,0,.02,0h0s0,0,0,0l.06-.05s.01-.02.02-.02c.02-.01.03-.03.04-.05,0,0,.01-.01.02-.02.04-.04.08-.08.11-.13,0,0,0-.02,0-.03,0,0,0-.01,0-.02.01-.02.01-.04.02-.07.02-.07.04-.13.05-.2,0-.02.01-.03.01-.05,0-.05,0-.1-.02-.15-.13-.62-.17-1.19-.12-1.56.43.72,1.02,2.7,1.36,4.7Zm-4.77-4.79c-.08.03-.16.07-.24.1.03-.08.05-.15.08-.19.04.02.09.05.16.09Zm.24,8.65c-.85.72-3.92.81-6.06-.93-1.41-1.14-1.63-2.64-1.56-3.7.1-1.72,1.04-3.47,2.29-4.25.46-.29.68-.3.73-.3,0,0,0,0,.01,0,.15.12.25.86.14,1.63l-.04,1.31c0,.27.13.52.36.67.23.14.52.15.75.01.49-.27,1.09-.54,1.62-.77.26-.11.5-.22.72-.33,0,0,0,0,0,0,0,0,0,0,.01,0,0,0,0,0,0,0,.91-.41,1.78-.77,2.46-.99,0,0,0,0,0,0,0,0,0,0,.01,0,0,0,0,0,0,0,.08-.03.14-.05.22-.08.01.18.03.35.06.52-.3.21-.72.55-1.39,1.09-.06.04-.12.09-.18.14l-2.75,2.04s-.02.03-.04.04c-.01.01-.03.02-.05.03-.02.02-.03.05-.05.08-.03.04-.06.08-.08.13-.02.04-.03.09-.05.13-.01.05-.02.09-.03.14,0,.05,0,.09,0,.14,0,.05.01.09.03.14.01.05.04.09.06.13.02.03.02.06.04.09.01.01.03.02.04.03.01.02.02.04.03.05.44.44.92.76,1.34,1.04.58.39,1.08.72,1.41,1.31.14.25.09.35-.07.48Zm-.51-3.04c-.14-.1-.28-.19-.42-.29l.09-.07c.12.13.25.27.39.41-.02-.02-.05-.03-.07-.05Zm4.65,2.54c.96-.21,1.69-.76,2.18-1.32,2.74,3.12,6.29,8.17,6.33,8.22.12.17.31.28.51.31.04,0,.16.02.4.02,0,0,.02,0,.03,0,.97,1.65.39,3.37.01,4.15-1.39-.27-2.43-.77-3.06-1.51-2.86-3.36-5.37-7.89-6.41-9.88Zm11,11.61c.42-1.04.81-2.74.07-4.5.54-.06,1.22-.16,2.08-.29,1.15-.18,2.49-.56,3.8-.93.3-.08.6-.17.9-.25-.98,2.66-.7,3.89-.28,5.5-1.49.27-4.13.65-6.56.46Zm7.91,7.44c.08-.86.12-1.8.12-2.79,0-2.03-.27-3.42-.54-4.52.69-.13,1.28-.27,1.7-.36.43-.1.86.1,1.04.48.75,1.56,2.68,5.56,4.45,8.78,2.25,4.09,3.02,5.11,1.12,5.59-.88.24-3.37.97-6.06,1.97.24-1.63.77-6.81-1.83-9.14Zm14.36,18.3c-.48-.24-1.3-.38-2.34-.47,0,0,0,0,0,0,.02-.41-.29-.77-.71-.79-.11,0-.24,0-.36-.01-.18-.56-.31-1.36-.01-2.2,0,0,.02.01.03.01.1.05.21.07.31.07.29,0,.56-.16.68-.44.09-.2.08-.42,0-.6.77-.22,2.26-.35,4.66.46.52.18.97.39,1.37.63l-2.09,4.15c-.49-.26-.99-.53-1.54-.8Zm4.82-2.39c1.31,1.43,1.25,3.18.76,4.05-.43.76-1.41.47-2.71-.17l1.95-3.88Zm.96,31.93l-.75.05c-.15-.31-.36-.7-.59-1.1.55.2,1.1.36,1.65.48-.12.2-.23.4-.31.57Zm-19.06,3.28c.51-.21,1.34-.46,2.27-.64.93-.18,1.32-1.11,1.58-1.72l.11-.26c1.03-2.29,1.94-3.56,2.58-4.1-.35,1.52-.38,3.11-.37,3.71l-.15,1.02c-2.61.6-3.61,1.17-3.62,2.08,0,.02,0,.04,0,.06-.99.01-1.87-.04-2.4-.15Zm14.23-.16c-1.7.42-2.42.58-3.95-3.2.26-1.08.41-2.45.16-3.94-.07-.41-.45-.69-.86-.61-.41.07-.68.46-.61.86.29,1.73-.07,3.29-.42,4.29-.23.66-.34,1.41-.33,2.29,0,.15.02.32.05.5,0,.03,0,.06.01.09-1.16.02-3.36-.04-3.94-.06.42-.17,1.17-.41,2.49-.69.31-.07.54-.31.59-.62l.24-1.59s0-.08,0-.12c-.02-2.2.5-5.36,1.54-5.57.46-.11,1.86.72,4.08,4.4.33.55.65,1.16,1.01,1.94l.1.23c.22.49.51,1.12.9,1.69-.41.01-.78.05-1.07.12Zm20.63-.72c-.63.13-1.41.22-2.38.18-.11,0-.22,0-.32-.01.32-.31.61-.68.8-1.11.06-.15.1-.3.14-.46.11.12.21.23.31.35.39.5.92.83,1.46,1.05Zm-7.44-.95c.19-.17.28-.42.25-.67-.03-.23-.12-1.43,1.34-1.8.66-.17,1.6.17,2.49.72.2.43.22.81.07,1.16-.35.81-1.5,1.38-2.04,1.58-1.39-.06-2.29.01-3.95.66-1.24.48-4.17.26-6.51.07-.44-.03-.86-.07-1.27-.1,0,0,0,0,0,0-1-.07-1.62-1.47-2.04-2.39l-.11-.23c-.38-.83-.73-1.5-1.09-2.09-.41-.67-.79-1.26-1.15-1.77.03,0,.06,0,.09.02,1.29.39,2.72,2.57,3.55,4.32.2.41.61.67,1.09.63l1.4-.09,2.68.22s.04,0,.06,0c.39,0,.71-.3.75-.69.04-.41-.27-.78-.68-.81l-1.63-.14s.06-.1.09-.15c.17-.19,1.38-.51,3.06.68,2.26,1.59,3.23,1.13,3.54.86Zm-4-3.5s.02.02.03.03c-.25.1-.75.24-1.6.25-.09,0-.17,0-.3,0-1.54-.04-3.23-.5-4.75-1.3-1.31-.69-1.58-1.14-1.63-1.34-.07-.33.31-.84.72-1.37.52-.68,1.16-1.52,1.34-2.59.1-.56.31-1.28.6-2.05,1.04.51,1.94,1.01,2.91,2.13-.05.04-.11.08-.15.14-.5.7-.92,1.31-1.21,1.75-.41.63-.06,1.35.52,1.83.79.53,2.95,2.01,3.51,2.54Zm3.3-30.1c-.07.17-.08.36,0,.55,1.68,4.4,2.71,7.38,2.97,9.61.07.48.09.91.07,1.35-.05,1.05-.38,1.84-1.03,2.48-1.17,1.15-3.46,3.94-5.26,6.22-.26-.26-.57-.53-.95-.78-1.01-.68-1.9-1.27-2.64-1.84.02-.02.04-.03.06-.06.99-1.58,1.96-2.68,2.74-3.1.83-.45,1.94-1.17,2.01-2.18.03-.38-.09-.95-.78-1.47-1.11-.83-2.84-2.2-2.93-2.27,1.18-1.45,2.14-2.89,2.02-4.69-.17-2.85,2.01-4.25,3.73-3.83Zm-4.59-7.05s-1.08.62-2.39,1.1c-1.38.51-2.49.67-3.2.49.05-.02.09-.04.15-.06l.47-.18c1-.37,2.25-.83,3.1-1.66.31-.31.39-.78.21-1.18-.19-.42-.64-.69-1.07-.65-1.26.06-1.91-.12-2.15-.28.48-.23,1.81-.44,3.29-.29.65.06,1.22.19,1.62.39.02.01.05.02.07.03,0,0,.01,0,.02,0,0,0,0,0,0,0,.9.32,1.21,1.07,1.32,1.54-.85.43-1.4.71-1.44.73Zm4.9-2.61c-.73.42-1.45.82-2.11,1.17-.2-.61-.58-1.25-1.23-1.73l3.42-3.78c.09-.1.15-.21.21-.33,2.66.11,3.51,1.43,3.77,2.09-.14.11-.3.23-.49.36-.91.65-2.15,1.42-3.57,2.23Zm17.61,30.04c-2.76,0-5.63-1.04-6.11-1.63,0,0,.01,0,.02-.01.87-.68,2.8-.67,4.4.02.49.21,1.52.75,1.9,1.62-.07,0-.14,0-.21,0Z"/>
</svg>