<?xml version="1.0" encoding="UTF-8"?>
<svg id="icons" xmlns="http://www.w3.org/2000/svg" viewBox="0 0 120 120">
  <path d="m59.44,37.87c.95,0,1.89-.35,2.63-1.04.3-.28.32-.76.03-1.06s-.76-.32-1.06-.03c-.93.88-2.42.84-3.3-.09-.29-.3-.76-.31-1.06-.02-.3.29-.31.76-.03,1.06.75.79,1.77,1.19,2.78,1.19Z"/>
  <path d="m59.43,35.06c.51,0,1.01-.19,1.41-.56.3-.28.32-.76.03-1.06-.28-.3-.76-.31-1.06-.03-.22.21-.57.2-.79-.02-.29-.3-.76-.31-1.06-.02-.3.29-.31.76-.03,1.06.4.42.95.64,1.49.64Z"/>
  <ellipse cx="59.4" cy="27.56" rx="1.36" ry="1.85"/>
  <path d="m34.55,54.14c.21,0,.43,0,.65-.01,1.39-.06,2.71-.26,3.57-.42.63-.11,1.18-.23,1.59-.32l-.02,1.16c-.03.08-.04.15-.04.23,0,.07.01.15.03.22v.23s-.87,2.44-.87,2.44c-.19.58-.38,1.15-.53,1.73l-2.71,9.97c-.62,1.84-1.01,5.64,1.96,6.83.2.08.41.12.62.18-4.92,3.11-6.35,5.5-6.64,7.03,0,0,0,0,0,0-.1.53-.06.94,0,1.22.1,4.15.93,8.61,1.85,12.36,0,.01-.02.03-.02.04-.11.31,0,.64.24.84.31,1.21.62,2.32.91,3.31,0,0,0,.02,0,.02.33,1.1.62,2.05.86,2.78-.83.05-1.16.02-1.26,0-2.26-.43-3.4.27-4.21,2.56l-.1.27c-.42,1.11-.59,1.98.9,3.07.95.69,2.95.89,4.97.89,2.17,0,4.38-.24,5.38-.36,2.57-.31,4.3-1.03,5.12-2.12.38-.5.55-1.08.52-1.73.7-.3,1.31-.7,1.81-1.22.19-.19.26-.47.18-.73l-5.46-19.05c.45-.11.92-.23,1.38-.35-.17.28-.26.57-.25.88.02,1.05,1.09,1.69,1.23,1.77l1.88,1.02c.41.22.86.33,1.31.33.66,0,1.31-.23,1.82-.69.94-.82,2.09-2.12,2.88-3.08l-1.5,6.3c-.07.27.03.56.24.75l5.94,5.04c.14.12.31.18.49.18.21,0,.41-.08.56-.25l4.63-5.18c.12-.14.19-.32.19-.5v-2.39c4.93.1,11.05-.22,15.66-1.95,1.6-.48,2.72-1.14,3.37-1.96.81.33,1.58.5,2.28.5.9,0,1.67-.27,2.24-.8.58-.55,1.35-1.8.61-4.28.23-.09.39-.23.49-.35.36-.45.28-1.01.22-1.5-.04-.29-.08-.6-.03-.82.14-.6.11-1.69-.42-2.83-.11-.24-.33-.38-.57-.41.01-.12.02-.24.02-.36,0,0,.7-3.8-4.19-4-.22,0-.42,0-.62,0,0-.15-.05-.31-.16-.44l-.57-.69c-.12-.2-3.01-4.83-5.13-6.35-.33-.24-.64-.52-.9-.82-.76-.91-.78-1.72-.78-1.75,0-.02-.01-.03-.01-.05,0-.03,0-.05,0-.08-.33-2.02-.67-3.99-1.07-5.86.36.08.78.16,1.25.25.86.16,2.18.36,3.58.42.22,0,.44.01.64.01,2.05,0,3.53-.41,4.42-1.21.92-.84,1.4-2.28,1.48-4.41,0-.04,0-.07,0-.11l-1.43-12.95c.22-.31.18-.73-.11-.99,0,0,0,0,0,0l-.15-1.34c.29-1.4.29-2.05.3-3.69v-.2c0-1.85-.96-3.5-2.47-4.32,2.79-4.96,3.18-9.85.96-12.65-1.4-1.77-3.57-2.32-5.96-1.53-5.83,1.94-4.17,7.78-2.95,12.04.32,1.11.61,2.15.79,3.09-.39.68-.65,1.65-.73,2.85-.25,3.47,1.28,4.65,2.62,5.69.55.44,1.17.92,1.7,1.37l-.34,10.59-7.47-3.92-2.15-.95c.08-.02.16-.04.24-.07.7-.28,1.25-.85,1.56-1.58.37-.88.35-1.93-.04-2.89-.35-.85-.96-1.5-1.67-1.9v-9.49c0-.78-.16-1.52-.45-2.22-.27-1.89-.73-3.68-1.36-5.31,0-.01-.01-.03-.02-.04,0,0,0,0,0-.01-.47-1.23-1.06-2.39-1.72-3.47,0-.26-.12-.52-.36-.66-.02,0-.03-.02-.05-.03-2.54-3.83-5.41-5.34-5.53-5.41-.25-.13-.54-.11-.77.05-.12.08-3.02,2.08-5.55,5.6,0,0,0,0,0,0-.01.01-.02.03-.03.04-.97,1.33-1.77,2.74-2.38,4.18-1.16,2.77-1.57,5.61-1.24,8.48v6.51c-1.32-.03-2.65.85-3.25,2.3-.39.95-.41,2-.04,2.88.23.55.59,1,1.05,1.31l-3.56,1.58-7.43,3.9-.34-10.6c.51-.43,1.11-.9,1.69-1.36,1.35-1.04,2.88-2.22,2.63-5.7-.14-1.98-.74-3.35-1.65-3.77-.08-.04-.17-.06-.25-.08v-2.48c2.86-.13,5.15-2.47,5.15-5.36v-6.07c0-.41-.34-.75-.75-.75s-.75.34-.75.75v6.07c0,2.06-1.62,3.73-3.65,3.86v-9.93c0-.41-.34-.75-.75-.75s-.75.34-.75.75v9.93c-2.03-.12-3.65-1.8-3.65-3.86v-6.07c0-.41-.34-.75-.75-.75s-.75.34-.75.75v6.07c0,2.89,2.29,5.23,5.15,5.36v2.7c-.25-.16-.51-.3-.82-.41-1-.38-2-.4-2.99-.07-1.9.64-3.17,2.5-3.16,4.62v.21c0,1.63.01,2.28.3,3.68l-.18,1.66c-.12.19-.14.41-.07.62l-1.44,13.01s0,.07,0,.11c.07,2.13.55,3.58,1.47,4.41.88.8,2.37,1.21,4.42,1.21Zm13.45-.1c.4,2.62,1.63,4.7,2.89,6.47,1.4,1.96,1.42,3.62,1.39,4.12-.48.64-.92,1.29-1.3,1.96,0,0,0,0,0,0-1.26,2.15-1.73,3.85-1.89,4.62-1.28.54-2.5,1.09-3.72,1.66-.03-.03-.05-.05-.05-.05-.09-.09-.2-.15-.32-.18-.05-.15-.1-.3-.18-.44-.16-.28-.33-.51-.52-.73,0-.91-.03-4.06-.11-8l1.48-3.39s1.11-3.1,2.32-6.04Zm-6.18,22.45c.34-.07.67-.16.98-.28v2.19h-.98v-1.91Zm.15-6.57l-.04-1.47c-.06-2.82-.15-8.27-.1-13.09v-.59s0,0,0,0l.03-1.92c.04-1.56.09-2.76.14-3.69.03.31.07.65.1,1.03.26,2.97.46,7.52.58,13.14.06,2.92.09,5.43.1,6.93-.28-.14-.56-.25-.82-.33Zm9.76-1.59c.45.52.96.95,1.5,1.35-.68,2.91-1.76,4.67-3.17,5.08-1.18.34-2.45-.24-3.38-.85,1.1-.5,2.21-1,3.36-1.48.25-.1.42-.34.46-.6,0-.02.18-1.42,1.23-3.5Zm-14.06,1.46l2.66-9.77c.01,3.27.07,6.35.11,8.3l-.78,1.8c-.1.23-.08.5.07.72.14.21.39.34.64.33,0,0,.31,0,.74.08,0,0,0,0,0,0,.54.1,1.3.36,1.92,1,0,0,0,.02.02.03.18.18.34.39.48.65.19.34.19.65,0,.96,0,0,0,0,0,.01,0,0,0,0,0,.01-.09.16-.22.3-.38.43-.03.02-.07.04-.1.07-.49.36-1.19.61-1.94.69-.78.09-1.61-.02-2.33-.3-2.4-.96-1.11-4.91-1.08-5Zm8.66,29.8c-1.41.76-5.76,2.75-9.83.82-.18-.63-.37-1.31-.56-2.03.82.17,1.65.25,2.46.25,3.06,0,5.87-.99,7.21-1.55l.72,2.51Zm-4.81,9.33c-5.01.61-8.47.33-9.29-.26-.68-.5-.68-.51-.37-1.33l.11-.29c.57-1.6,1.02-1.88,2.53-1.59.15.03.59.1,2.04,0v.02c.08.2.24.36.44.44.18.07,3.47,1.31,6.79,1.31.69,0,1.37-.06,2.03-.19-.04.13-.09.25-.18.37-.32.42-1.28,1.19-4.1,1.53Zm4.76-3.56c-2.99.96-7.26-.35-8.45-.75l-.08-.21c-.17-.5-.42-1.24-.71-2.16,1.09.35,2.18.51,3.21.51,2.81,0,5.25-1.04,6.49-1.68l1.01,3.52c-.41.33-.9.59-1.48.77Zm-4.06-20.13l2.98,10.39c-1.52.64-5.86,2.21-9.68,1.11-.91-3.71-1.74-8.14-1.84-12.23,0-.3,0-.6,0-.89.19-.9,1.25-3.16,6.66-6.42v1.95c0,.41.34.75.75.75h2.48c.41,0,.75-.34.75-.75v-3.86c.14-.14.26-.29.37-.44.15-.07.3-.14.45-.21.94.74,2.51,1.73,4.21,1.73.38,0,.76-.05,1.14-.16,1.89-.55,3.26-2.48,4.1-5.71.61.3,1.25.56,1.94.73.04.17.1.33.18.49.02.05.05.09.08.14.06.11.11.21.18.31.03.04.06.08.09.12l-1.39,6.13c-1.51.03-2.02.15-2.33.3l-1.96,1.16s-.09.06-.13.1c-.04.04-2.51,2.35-3.16,2.95-.13.04-.33.09-.56.15-1.11.3-3.23.86-4.75,1.23-.2.05-.37.17-.47.35-.1.18-.13.39-.07.58Zm13.84-1.52c.1-1.35.62-2.62,1.52-3.81,1.18.01,2.49.05,3.79.09-1.35,3.88-.29,6.4.77,7.79-2.59-.13-4.59-.35-5.4-.44-.28-.59-.8-1.96-.69-3.63Zm1.24-5.31h0s-.02,0-.04,0c-.02,0-.03,0-.05,0h0l1.16-5.14c.1.04.2.06.3.09.06.01.11.03.17.04.18.03.36.05.54.05s.37-.02.55-.06c.06-.01.12-.03.17-.05.12-.03.23-.06.34-.11.03-.01.06-.02.09-.04l1.07,5.32c-1.58-.06-3.13-.1-4.31-.11Zm3.51-7.9c0,.38-.15.71-.38.97,0,0-.01.01-.02.02-.26.28-.63.45-1.04.45-.77,0-1.4-.6-1.44-1.37v-.07c0-.79.65-1.44,1.44-1.44s1.44.65,1.44,1.44h0s0,0,0,0Zm-7.34,13.36c-.66.85-2.11,2.57-3.22,3.55-.39.35-.96.41-1.41.16l-1.86-1.01c-.23-.13-.46-.38-.46-.49,0-.05.09-.23.48-.48.93-.58,1.43-.98,1.94-1.41,0,0,0,0,0,0,.01-.01.03-.02.05-.03.27-.26,2.79-2.62,3.23-3.03l1.8-1.07c.06-.02.38-.1,1.74-.13-.59.99-.95,2.04-1.11,3.13-.46.15-.86.42-1.17.83Zm9.69,7.63l-3.96,4.42-5.03-4.27,1-4.18c.22.57.43.92.45.95.12.19.32.32.54.35.27.04,3.12.41,7,.57v2.15Zm1.17-3.63s-.02-.03-.04-.04c-.15-.09-3.49-2.25-1.35-7.77,1.58.07,3.04.14,4.05.2-1.98,2.62-2.01,5.13-.11,7.62-.88,0-1.73,0-2.55-.02Zm15.51-1.85c-3.19,1.2-7.21,1.69-11.01,1.83-2.45-2.52-2.44-4.78.04-7.48h3.5c3.15.12,5.46.64,6.68,1.49.13.09.28.14.43.14.24,0,.47-.11.62-.32.24-.34.16-.81-.18-1.04-1.48-1.04-4-1.63-7.51-1.76h-3.86c-.7-.07-2.93-.2-5.39-.3l-1.31-6.49c.05-.08.09-.17.14-.26.03-.07.07-.13.1-.2.06-.15.11-.31.15-.48,0,0,0-.02,0-.02.51-.13.99-.29,1.46-.48.52,3.85,3.18,5.25,4.83,5.75.91.27,1.87.4,2.79.4,1.89,0,3.62-.52,4.55-1.25,1.41.68,2.75,1.46,3.72,2.3.06.05.12.11.18.16.08.51.26,1.04.55,1.61.44.82.81,1.75,1.15,2.93.31,1.02.61,1.71.94,2.15-.47.52-1.34.97-2.58,1.34Zm-10.61-24.12h0s0,.01,0,.01l.06.24s.01.02.02.03c1.1,4.15,4.96,8.24,6.71,9.6.61.48,1.14.87,1.59,1.2.49.37.89.66,1.21.93.12.1.26.14.4.16,0,.32.02.54.02.54,0,.41.06.81.16,1.19-3.23-2.2-8.23-3.81-9.86-4.3-.11-1.84-.49-3.68-1.14-5.46,0,0,0,0,0,0-.48-1.31-1.1-2.57-1.8-3.67-.06-.13-.12-.2-.12-.21-.5-.79-.95-1.37-1.25-1.73l.09-.18c.92-1.79,1.6-3.67,2.03-5.61l1.87,7.24Zm18.8,15.99c-.11.49-.05.97,0,1.36,0,.02,0,.05.01.08-.15-.23-.29-.66-.36-1.22,0-.02,0-.12,0-.15,0-.17-.08-.32-.18-.45.18-.22.33-.46.46-.72.11.5.11.91.06,1.1Zm-1.51-4.67s-.03.05-.09.1c-.32.27-1.13.55-2.46.55-1.75,0-2.46-.51-2.5-.64.05-.17.76-.65,2.5-.66,1.69,0,2.44.47,2.54.65Zm-19.03-5.15c.36,1.33.56,2.68.59,4.03,0,.33.23.61.55.7.04.01,2.72.77,5.57,1.97-1.19.47-3.3.75-5.24.17-1.64-.49-3.56-1.79-3.81-5,.94-.53,1.74-1.17,2.34-1.87Zm19.69,16.01c-.63.59-1.98.51-3.44-.21-.01,0-.03,0-.04-.01-.01-.01-.32-.27-.78-1.77-.37-1.25-.78-2.3-1.26-3.19-.06-.12-.09-.22-.14-.33.7.43,1.5.69,2.38.69s1.68-.24,2.37-.65c.11.66.35,1.37.81,1.85.7,1.7.74,3.02.1,3.62Zm-10.2-19.73c1.88,1.35,4.7,5.88,4.79,6.01l.35.43c-1.45.33-2.18,1.06-2.54,1.81-.3-.24-.64-.5-1.07-.81-.44-.33-.96-.71-1.57-1.18-1.53-1.19-4.82-4.63-6.01-8.2,1-.11,2.61-.34,3.93-.8.15.48.44,1.07.95,1.68.35.4.74.76,1.17,1.07Zm4.16-38.81c-.19-.03-.38-.03-.56-.04.19-4.07.75-8.4,1.41-9.31.36-.14.74-.31,1.12-.5.76,2.23.41,5.75-1.97,9.85Zm-2.58-8.96c.32.08.66.13,1.01.13.2,0,.41-.03.63-.06-.78,2.6-1.05,7.24-1.14,9.09-.05.02-.1.02-.15.04-.03.01-.05.03-.08.04.21-2.25.44-6.3-.27-9.24Zm-.5-3.31c1.78-.59,3.31-.22,4.31,1.04.02.02.03.04.04.06-1.6.82-2.93,1.04-3.88.65-.38-.16-.67-.41-.88-.66-.08-.11-.15-.23-.24-.33-.09-.15-.16-.29-.2-.4.26-.13.53-.25.84-.35Zm-2.08,1.24c.13.25.3.53.53.81,1.31,2.17,1.1,7.63.79,10.71-.18-.07-.37-.09-.56-.06-.18-.79-.42-1.62-.66-2.48-1.17-4.1-1.83-7.16-.09-8.97Zm2.26,19.83c-1.25-.97-2.24-1.73-2.05-4.4.08-1.19.34-1.87.54-2.21,0,.08,0,.17-.01.28-.16.58-.13,1.16-.04,1.67.13,1.08.57,1.59.63,1.67,0,0,.02.01.03.02,0,0,.01.02.02.03.77.71,1.62.96,2.43.96,1.25,0,2.41-.62,3.03-1.14.32-.26.36-.73.1-1.05-.26-.32-.74-.37-1.05-.1-.08.06-1.92,1.53-3.4.29-.1-.21-.23-.53-.3-.9-.04-.3-.04-.68.03-1.15v-.04c.19-.48.59-.83,1.25-1.07.56-.21,1.11-.25,1.65-.13,0,0,0,0,0,0,.12.07.25.1.37.1,1.24.45,2.09,1.74,2.09,3.17v.2c0,1.62,0,2.16-.29,3.5-.02.08-.02.16-.01.24l.18,1.64c-.52.26-1.55.52-3.3-.04-.58-.49-1.26-1.04-1.89-1.54Zm.8,15.03c.23.12.5.11.73-.02.22-.13.36-.37.37-.62l.35-11.2c.56.13,1.07.18,1.52.18.64,0,1.16-.11,1.59-.26l1.35,12.17c-.06,1.65-.39,2.76-.98,3.3-.66.6-2.05.88-3.99.81-1.3-.05-2.55-.24-3.37-.4-.81-.14-1.49-.3-1.89-.4-.85-3.33-1.9-5.72-3.33-7.6l7.67,4.03Zm-9.25-3.6c1.58,1.86,2.68,4.32,3.57,7.97.48,1.98.86,4.14,1.22,6.36-1.28.5-3.12.74-4.06.83l-2.66-10.35c-.09-.36-.44-.6-.8-.56-.37.04-.66.34-.67.71-.17,3.1-.97,6.08-2.39,8.85l-.32.63c-.14.28-.09.63.13.86,0,0,.66.69,1.45,1.94,0,0,.05.09.05.1.63,1,1.16,2.07,1.58,3.17-.43.88-1.32,1.71-2.49,2.37-.02,0-.04-.01-.05-.01-.26,0-.48.15-.61.35-.5.23-1.04.44-1.6.6-.39-1.17-1.48-2.01-2.78-2.01s-2.45.9-2.81,2.12c-1.63-.47-3-1.41-4.02-2.76.32-.53.68-1.06,1.08-1.57.01-.02.02-.04.03-.06.02-.03.03-.06.05-.09.02-.05.04-.09.05-.15,0-.02.02-.03.02-.05.02-.1.37-2.56-1.64-5.38-1.78-2.48-3.31-5.35-2.55-9.54.08-.41-.19-.8-.6-.87-.4-.07-.8.19-.87.6-.03.16-.05.32-.07.48-1.64,3.37-3.66,9.02-3.73,9.21l-.18.4c-.12-4.05-.28-7.31-.49-9.71l1.84-5.69c.6-.94,1.51-1.67,2.56-2.05l.05-.02c.61,5.09,3.28,6.6,4.91,7.52l.19.11c.29.16.42,1.49.5,2.28.07.74.16,1.59.37,2.42-.87.59-1.89.48-2.67-.35-.29-.3-.76-.31-1.06-.02-.3.29-.31.76-.03,1.06.76.79,1.68,1.19,2.62,1.19.57,0,1.13-.16,1.67-.46.56,1.06,1.48,1.86,3.1,1.96.11,0,.21,0,.32,0,.86,0,1.55-.23,2.05-.69.32-.29.53-.65.67-1.04.52.28,1.08.44,1.65.44.88,0,1.77-.34,2.5-1.04.3-.28.32-.76.03-1.06-.28-.3-.76-.32-1.06-.03-.84.79-1.96.81-2.81.11.03-.37.04-.75.05-1.12.04-1.55.11-2.59.83-2.96.37-.19.8-.39,1.25-.6,2.13-.98,5.38-2.5,5.69-5.4.33.31.65.63.95.98Zm-15.35-29.6c3.49-2.21,7.53-1.19,9.65-.1.35.55.69,1.13.99,1.73-.99-.34-2.21-.6-3.51-.74-.87-1.04-1.82-1.42-1.93-1.46-.19-.07-.39-.06-.57.02-.09.04-.82.41-1.64,1.44-1.52.17-2.93.51-4.23,1.02.37-.65.78-1.29,1.23-1.92Zm1.23,4.74h-1.08c-1.13,0-2.16.39-2.99,1.03.16-.57.36-1.15.59-1.72,1.26-.71,2.69-1.22,4.26-1.5-.31.66-.57,1.39-.78,2.19Zm2.79-2.7c.38-.53.74-.86.97-1.04.29.17.75.5,1.15,1.05.54.73.86,1.64.94,2.69h-4.32c.38-1.32.87-2.19,1.25-2.7Zm4.55,2.7c-.05-.79-.22-1.53-.48-2.2,1.64.28,2.89.75,3.45,1.17.25.67.47,1.36.66,2.08-.96-.67-2.11-1.05-3.33-1.05h-.3Zm-10.82,15.25c-.23-.54-.58-.98-1.03-1.29v-5.84c.09-.15.13-.33.1-.52-.04-.21-.07-.44-.1-.69v-2.01c0-1.87,1.54-3.4,3.43-3.4h8.72c1.68,0,3.2.97,3.91,2.48.17,1.18.26,2.44.27,3.77,0,.15.06.29.14.41v6.71c-.36,0-.71.05-1.06.19-.7.28-1.25.85-1.56,1.58-.37.88-.35,1.93.04,2.88.08.19.17.37.28.55l-.19-.08c-.11-.05-.21-.1-.31-.16-.03-.02-.06-.05-.09-.07-.69-.44-1.12-1.18-1.19-2,1.88-1.32,3.11-3.51,3.11-5.97v-6.95c0-1.37-1.12-2.49-2.49-2.49h-9.62c-1.38,0-2.49,1.12-2.49,2.49v6.95c0,1.84.69,3.52,1.82,4.81l-.09.31c-.21.69-.74,1.25-1.42,1.5l-.43.15c.08-.14.15-.28.21-.42h0c.39-.95.41-2.01.04-2.89Zm10.33,12.66c-.48.22-.92.43-1.31.63-1.56.81-1.6,2.64-1.64,4.26-.03,1.09-.05,2.22-.55,2.67-.25.23-.67.33-1.26.29-2-.12-2.33-1.85-2.6-4.46-.16-1.55-.29-2.89-1.25-3.44l-.19-.11c-1.59-.9-3.74-2.13-4.19-6.73l1.37-.49c.32,4.38,5.92,8.04,6.18,8.21.12.08.26.12.41.12.09,0,.17-.01.25-.04.3-.11,6.82-2.5,8.24-6.83l.55.24c.26.14.51.29.75.45.55,2.54-1.74,3.84-4.76,5.24Zm-8.95-17.51c.75.76,1.74,1.15,2.74,1.15.95,0,1.89-.35,2.63-1.04.3-.28.32-.76.03-1.06s-.76-.32-1.06-.03c-.93.88-2.42.84-3.3-.09-.28-.3-.74-.31-1.04-.04v-4.45c0-.55.45-.99.99-.99h9.62c.55,0,.99.45.99.99v4.58c-.29-.26-.73-.27-1.02,0-.93.88-2.42.84-3.3-.09-.29-.3-.76-.31-1.06-.02-.3.29-.31.76-.03,1.06.75.79,1.77,1.19,2.78,1.19.94,0,1.88-.34,2.62-1.03v1.27c0,3.2-2.6,5.8-5.8,5.8s-5.8-2.6-5.8-5.8v-1.39Zm1.51,7.28c1.21.88,2.69,1.41,4.29,1.41.99,0,1.93-.2,2.79-.55.2.81.64,1.53,1.26,2.08-.86,1.6-3.43,2.23-5.64,1.89-1.84-.29-3.77-1.28-3.98-3.19.57-.41,1.01-.98,1.28-1.63Zm-2.7,2.31h0c.47,2.04,2.38,3.56,5.16,3.99.49.08.99.11,1.49.11,2.14,0,4.26-.72,5.39-2.25-1.22,2.93-5.57,4.89-6.84,5.41-1.18-.83-5.33-4-5.2-7.27Zm17.08-.52c-.11.26-.32.6-.74.77-.82.33-1.84-.25-2.28-1.3h0c-.24-.59-.26-1.22-.04-1.73.11-.26.32-.6.74-.77.16-.06.32-.09.49-.09.7,0,1.44.54,1.79,1.39.24.59.26,1.22.04,1.73Zm-10.14-29.29c.59.38,1.78,1.24,3.07,2.71-1.79-.5-3.85-.66-5.89-.14,1.19-1.27,2.27-2.15,2.82-2.57Zm-11.53,26.17c.35-.85,1.09-1.39,1.79-1.39.17,0,.33.03.49.09.42.17.63.51.74.77.21.51.2,1.15-.04,1.73-.43,1.05-1.46,1.63-2.28,1.3-.42-.17-.63-.51-.74-.77-.21-.51-.2-1.15.04-1.73Zm-3.77,6.8l-.85,2.63c-.23-1.12-.47-1.44-.7-1.62,0,0-.01,0-.02-.01,0,0,0,0,0,0-.01,0-.02,0-.03-.01-.04-.02-.07-.05-.11-.07l1.72-.9Zm-3.05,1.6c-.22.6-.46,1.98-.58,6.15-.41.1-1.08.25-1.9.4-.82.15-2.06.34-3.36.39-1.94.08-3.33-.2-4-.81-.59-.54-.92-1.65-.98-3.3l1.34-12.06c.63.29,1.24.43,1.8.43.49,0,.93-.1,1.32-.23l.35,10.97c0,.26.15.49.37.62.12.07.25.1.38.1.12,0,.24-.03.35-.09l4.91-2.58Zm-2.06-16.85c.19,2.67-.8,3.43-2.12,4.46-.65.51-1.36,1.08-1.95,1.58,0,0,0,0,0,0-.15.13-1.46,1.12-3.18,0l.19-1.7s0-.08-.01-.12c0-.04,0-.08,0-.12-.23-1.07-.27-1.64-.29-2.65.25.47.83.85,1.7,1.09.51.14,1.06.22,1.61.22,1.23,0,2.41-.41,2.98-1.43.13-.16.46-.65.58-1.6.09-.51.12-1.09-.04-1.67-.01-.11-.01-.2-.01-.28.2.35.45,1.02.54,2.21Zm-5.23-2.79c.65-.22,1.3-.2,1.98.05.66.25,1.06.6,1.24,1.07,0,.02.01.03.02.05.06.47.06.85.03,1.15-.09.45-.26.83-.36,1.02,0,0,0,.01,0,.02,0,0,0,0-.01.01-.23.46-.82.62-1.27.67-1.06.12-2.12-.25-2.39-.47-.06-.33-.33-.59-.68-.62-.28-.02-.53.13-.68.35v-.11c0-1.45.87-2.76,2.14-3.19Z"/>
</svg>