<?xml version="1.0" encoding="UTF-8"?>
<svg id="icons" xmlns="http://www.w3.org/2000/svg" viewBox="0 0 120 120">
  <path d="m57.6,26.74c.23,0,.47-.03.71-.09.4-.1.64-.51.54-.91-.1-.4-.51-.64-.91-.54-.74.19-1.5-.26-1.68-1-.1-.4-.51-.64-.91-.54-.4.1-.64.51-.54.91.33,1.3,1.51,2.17,2.8,2.17Z"/>
  <path d="m60.49,26.39c-.13-.39-.56-.6-.95-.47-.39.13-.6.56-.47.95.24.72.75,1.3,1.42,1.63.4.2.83.3,1.26.3.3,0,.61-.05.9-.15.39-.13.6-.56.47-.95s-.56-.6-.95-.47c-.34.11-.7.09-1.01-.07-.32-.16-.56-.43-.67-.77Z"/>
  <path d="m58.2,27.76c-.17.06-.35.04-.51-.03-.16-.08-.28-.21-.33-.38-.13-.39-.56-.6-.95-.47-.39.13-.6.56-.47.95.18.55.57.99,1.09,1.25.3.15.63.23.96.23.23,0,.47-.04.69-.11.39-.13.6-.56.47-.95-.13-.39-.55-.6-.95-.47Z"/>
  <path d="m57.74,31.37c.38,0,.77-.06,1.15-.19.39-.13.6-.56.47-.95-.13-.39-.56-.6-.95-.47-1.11.37-2.31-.23-2.68-1.33-.13-.39-.56-.6-.95-.47-.39.13-.6.56-.47.95.51,1.51,1.92,2.47,3.43,2.47Z"/>
  <path d="m59.38,24.56l.28-.02c.63-.06,1.19-.45,1.46-1.02.27-.58.21-1.26-.16-1.78l-.17-.24-.29.03c-.64.06-1.2.45-1.47,1.02-.27.58-.2,1.26.17,1.78l.17.23Zm.57-1.59c.07-.15.18-.27.33-.35.03.16,0,.32-.06.47-.07.15-.18.27-.32.35-.03-.16-.01-.32.06-.47Z"/>
  <path d="m95.14,37.84c.1-.26.25-.49.52-.74,1.44-1.34,1.05-2.28.89-2.54-.1-.16-.23-.27-.38-.36-.06-.48-.25-.84-.45-1.06-.52-.6-1.29-.76-1.74-.8l-.44-2.07c-1.21-5.81-5.97-10.27-11.85-11.1l-1.59-.23c-2.32-.33-4.07-2.35-4.07-4.69v-.22c0-.41-.34-.75-.75-.75s-.75.34-.75.75v.22c0,3.08,2.3,5.73,5.35,6.17l1.59.23c5.25.74,9.51,4.73,10.59,9.92l.43,2.06c-.69.31-1.53.91-2.09,2.1-.23.5-.39,1.42-.56,2.57-.04.25-.07.48-.1.66-.15.82-.83,1.44-1.66,1.5-1.72.13-3.65.25-6.61.25-5.36,0-8.06-.91-12.08-2.96-2.5-1.27-5.07-1.75-6.79-1.92-.61-.06-1.07-.58-1.07-1.21v-.28c.93-.54,1.71-1.32,2.22-2.29l.46-.87s.05-.03.08-.05c-.81.98-.62,2.69.53,4.11.84,1.04,1.95,1.62,2.92,1.62.48,0,.94-.14,1.3-.44.57-.46.84-1.23.74-2.11-.09-.77-.45-1.57-1.01-2.27-.39-.48-.83-.85-1.3-1.12.53.13,1.09.22,1.68.22.51,0,1.03-.07,1.56-.21.13.46.41,1.08.97,1.48.25.18.64.36,1.15.36.03,0,.07-.01.1-.01.29.26.67.42,1.1.42.91,0,1.66-.74,1.66-1.66s-.74-1.66-1.66-1.66c-.76,0-1.39.51-1.59,1.21-.18-.2-.29-.5-.33-.72.45-.26.89-.61,1.31-1.03.23.1.48.15.75.15,1.08,0,1.95-.88,1.95-1.95s-.88-1.95-1.95-1.95-1.95.88-1.95,1.95c0,.26.05.51.15.73-1.92,1.92-4.12,1.45-5.35.94,1.15-.98,2.22-2.17,2.41-3.31,1.27-.78,2.19-1.95,2.73-2.93.1.01.21.03.31.03,1.22,0,2.22-.99,2.22-2.21s-.99-2.22-2.22-2.22-2.22.99-2.22,2.22c0,.57.22,1.08.57,1.47-.28.51-.82,1.33-1.61,1.98-.34-1.24-.9-2.36-1.65-3.35.65-.81,1.16-1.64,1.48-2.19.12.02.25.04.38.04,1.22,0,2.22-.99,2.22-2.21s-.99-2.22-2.22-2.22-2.22.99-2.22,2.22c0,.54.21,1.04.53,1.42-.29.51-.7,1.16-1.19,1.79-.77-.75-1.65-1.39-2.65-1.89l1.5-2.97c.08,0,.16.02.24.02,1.22,0,2.22-.99,2.22-2.22s-.99-2.21-2.22-2.21-2.22.99-2.22,2.21c0,.6.24,1.14.63,1.54l-1.54,3.04c-.98-.35-2.04-.59-3.16-.69-.09,0-.17,0-.26-.02.34-1.1.92-2.1,1.27-2.64.13.02.27.04.4.04,1.22,0,2.22-.99,2.22-2.22s-.99-2.21-2.22-2.21-2.22.99-2.22,2.21c0,.54.2,1.02.52,1.41-.45.7-1.15,1.95-1.51,3.36-1.11.02-2.01.19-2.73.52.12-.59.29-1.09.43-1.44.03,0,.06,0,.09,0,.09,0,.18,0,.27-.02.59-.07,1.11-.37,1.48-.83.36-.47.52-1.05.45-1.63s-.37-1.11-.84-1.48c-.47-.36-1.05-.52-1.63-.45-.59.07-1.11.37-1.48.83-.36.47-.52,1.05-.45,1.63.07.55.33,1.02.71,1.37-.29.73-.69,2.01-.7,3.41-.85,1.31-1.06,3.32-.65,6.42-.95-.74-2.14-2.16-2.01-4.52.73-.28,1.25-.99,1.25-1.81,0-1.08-.88-1.95-1.95-1.95s-1.95.88-1.95,1.95c0,.79.47,1.47,1.15,1.77-.04.88.07,1.67.28,2.37-.12.03-.26.05-.42.04-.17-.01-.31-.06-.42-.14.21-.28.34-.62.34-.99,0-.92-.74-1.66-1.66-1.66s-1.66.74-1.66,1.66.7,1.61,1.57,1.65c.25.37.58.65.97.81.32.13.64.18.93.18.4,0,.73-.08.94-.15.67,1.16,1.61,1.98,2.42,2.47-.19.44-.32.89-.4,1.34,0,0,0-.02-.01-.03-.78-1.19-2.75-1.24-4.48-.1-1.72,1.14-2.46,2.96-1.67,4.15.41.62,1.12.92,1.96.92.79,0,1.68-.27,2.51-.82.77-.51,1.37-1.18,1.71-1.89.01-.03.02-.05.03-.08.2.93.62,1.8,1.25,2.54l-.31.75c-.18.43-.62.67-1.07.56-.62-.14-1.44-.28-2.4-.36-.02,0-.04,0-.06,0-2-.15-4.6,0-7.33,1.2-.02,0-.32.14-.8.36,0,0,0,0,0,0-3.04,1.41-13.58,6.57-12.61,9.98.65,2.27,2.44,3.41,5.34,3.41.49,0,1.03-.04,1.59-.11-.13.57-.23,1.22-.32,1.96-.07.15-.08.3-.05.46-.09.9-.16,1.87-.19,2.88,0,.03,0,.05,0,.08-.11,2.86,0,5.84.11,7.84,0,.02,0,.04,0,.06.02.45.04.83.06,1.11-1.08.51-3.39,1.91-3.49,4.75-.01.37.01.72.06,1.06-3.61,2.66-4.02,6.6-4.11,10.12-.14,5.74-2.13,6.79-3.84,7.05-.41.06-.69.45-.63.86.06.37.38.63.74.63.04,0,.08,0,.12,0,3.32-.52,4.99-3.29,5.11-8.5.04-1.72.19-3.23.56-4.57.11.23.24.47.39.7-1.35,6.42-.44,14.7-.39,15.16.04.38.37.67.74.67.03,0,.06,0,.09,0,.41-.05.71-.42.66-.83-.01-.1-.82-7.46.14-13.48.11.11.24.23.36.34-.66,5.31.27,9.43,2.75,11.69.14.13.33.2.51.2.2,0,.41-.08.55-.24.28-.31.26-.78-.05-1.06-1.94-1.78-2.74-5.14-2.37-9.46,2.19,1.59,4.89,2.92,6.98,3.82.35.71,1.06,1.19,1.87,1.19.02,0,.03,0,.05,0,.17.52.35,1.01.56,1.46-.37.39-.6.9-.6,1.45,0,1.18.96,2.14,2.14,2.14.3,0,.58-.06.83-.17.26.25.54.48.82.7-.04.16-.07.32-.07.49,0,1.18.96,2.14,2.13,2.14.7,0,1.34-.34,1.72-.85.11.03.22.06.34.09-.62,1.28-1.34,2.13-2.19,2.29-.41.08-.67.47-.59.88.07.36.38.61.74.61.05,0,.1,0,.14-.01,1.43-.28,2.53-1.55,3.42-3.52.36.05.72.08,1.11.11-.64,3.14-1.12,5.27-1.13,5.34-.09.4.16.81.56.9.06.01.11.02.17.02.34,0,.65-.24.73-.58.06-.27.56-2.48,1.2-5.63.07,0,.15,0,.22,0,.33,0,.65-.03.95-.05-.01,1.17.12,2.24.46,3.24.11.31.4.5.71.5.08,0,.17-.01.25-.04.39-.14.6-.56.46-.96-.3-.87-.4-1.85-.37-2.96.23-.04.45-.09.68-.15.4.49.99.79,1.65.79,1.18,0,2.14-.96,2.14-2.14,0-.08-.02-.15-.03-.23.81-.51,1.55-1.12,2.22-1.83.21.07.42.1.64.1,1.17,0,2.13-.96,2.13-2.13,0-.5-.18-.96-.48-1.33.14-.28.27-.56.4-.85.96.96,1.84,1.79,2.49,2.4-2.29.6-4.96,2.4-7.95,5.38-.57.57-1.12,1.14-1.63,1.71-.02.02-.04.05-.06.08-1.77,1.95-3.14,3.71-3.79,4.59-.38.5-.88.88-1.45,1.11l-1.3.5c-.7.28-1.26.84-1.52,1.55-.27.71-.22,1.5.12,2.17l3.5,6.78c.69,1.31,2.02,2.12,3.49,2.12h5.63c.38,0,.73-.21.9-.55.18-.34.15-.74-.07-1.06l-.76-1.06c-.41-.57-1.02-.93-1.71-1.03l-1.42-.2c-.65-.09-1.22-.53-1.48-1.13-.6-1.41-.74-2.55-.39-3.13.11-.18.78-1.02,5.05-4.27.49-.39,1.01-.77,1.54-1.16,2.12-1.61,4.43-3.31,6.42-4.77,1.24-.91,2.37-1.75,3.26-2.41-1.46,3.3-3.76,6.72-3.79,6.77-.23.34-.14.81.2,1.04.13.09.27.13.42.13.24,0,.48-.12.62-.33.14-.21,3.23-4.81,4.59-8.67-.53,4.1-2.29,7.87-2.32,7.93-.18.37-.02.82.35,1,.1.05.21.07.32.07.28,0,.55-.16.68-.43.16-.34,3.92-8.34,2.13-14.27-.31-1.57-1.01-3.32-2.12-5.81-1.62-3.63-4.18-7.33-6.65-10.91-.55-.8-1.09-1.59-1.62-2.37.23-.35.37-.75.37-1.17,0-1.05-.76-1.92-1.76-2.09-.18-.86-.39-1.74-.6-2.61.59-.38.97-1.05.97-1.78,0-.11-.02-.21-.03-.32.04.1.08.19.12.28,0,0,0,0,0,.01.74,1.84,1.5,3.57,2.17,5.11,1.19,2.71,2.21,5.04,2.21,5.94,0,1.54.93,3.14,2.21,3.8.39.2.78.3,1.17.3.21,0,.4-.04.6-.09.31.34.72.62,1.21.78.19.06.39.09.59.09.73,0,1.54-.36,2.24-1.01,1.1-1.02,1.56-2.44,1.23-3.78-.04-.18-.11-.34-.18-.5.02-.07.04-.14.04-.21-.08-2.67,1.44-5.1,3.87-6.19l5.77-2.6c4.93-2.21,7.7-7.67,6.6-12.96l-1.36-6.48Zm-21.09-7.48c.09,0,.16.07.16.16,0,.17-.32.17-.32,0,0-.09.07-.16.16-.16Zm.14-4.3c.25,0,.45.2.45.45s-.2.45-.45.45-.45-.2-.45-.45.2-.45.45-.45Zm-1.71-7.02c.39,0,.72.32.72.72s-.32.71-.72.71-.72-.32-.72-.71.32-.72.72-.72Zm-3.04-4.27c.39,0,.72.32.72.72s-.32.71-.72.71c-.06,0-.11-.02-.17-.03-.06-.06-.12-.12-.2-.16-.05-.02-.1-.03-.15-.04-.12-.13-.2-.3-.2-.48,0-.39.32-.72.72-.72Zm-3.78-3.83c.39,0,.72.32.72.71s-.32.72-.72.72-.72-.32-.72-.72.32-.71.72-.71Zm-4.86-.94c.39,0,.72.32.72.71s-.32.72-.72.72-.72-.32-.72-.72.32-.71.72-.71Zm-13.82,10.55c0-.09.07-.16.16-.16s.16.07.16.16c0,.17-.32.18-.32,0Zm2.84-2.6c-.25,0-.45-.2-.45-.45s.2-.45.45-.45.45.2.45.45-.2.45-.45.45Zm.77,10.5c-.21.46-.64.92-1.17,1.27-1.11.73-2.16.68-2.4.33-.23-.36.13-1.34,1.24-2.07.63-.41,1.24-.58,1.69-.58.35,0,.61.1.71.25.11.17.08.47-.07.8Zm-19.77,42.8s0-.04,0-.06c.02-.14.1-.32.23-.54-.08.19-.15.39-.23.6Zm1.17,2.58c-.1-.11-.2-.23-.28-.34.27-1.11.61-2.13,1.05-3-.31,1.15-.57,2.26-.77,3.33Zm55.46-32.82c.27-.02.53-.04.79-.06,1.52-.11,2.76-1.24,3.03-2.74.03-.19.07-.42.11-.69.1-.68.28-1.82.44-2.16.5-1.07,1.32-1.41,1.71-1.51.02,0,.03,0,.05,0,.01,0,.02-.01.03-.01.08-.02.14-.03.14-.03h0c.16,0,.67.07.87.31.02.02.05.07.08.15-.34.12-.75.27-1.15.49,0,0,0,0,0,0,0,0,0,0,0,0,0,0,0,0,0,0,0,0,0,0,0,0-.86.46-1.45,1.2-1.54,1.89-.29,1.12-.34,1.71-.34,1.77-.03.41.28.77.69.8.02,0,.04,0,.06,0,.39,0,.72-.3.75-.69,0,0,.04-.51.31-1.59.05-.36.45-.69.78-.86,0,0,0,0,0,0,0,0,0,0,0,0,.2-.11.42-.2.63-.28-.06.07-.13.14-.21.21-.5.47-.83.97-1,1.54,0,0,0,0,0,0s0,0,0,0c0,0,0,0,0,0,0,0,0,0,0,0,0,.02,0,.03-.01.05,0,0,0,.01,0,.02-.16.61-.13,1.21-.09,1.85.02.3.04.63.04.98,0,1.35-1.45,2.69-4.44,4.08-.39.18-.96.34-1.68.47-.45-.82-1.24-2.67-.02-4Zm-12.92-.58c1.98.52,4.14.78,6.98.78,1.64,0,2.95-.04,4.1-.09-.58,1.4-.24,2.95.28,4.1-3.27.34-8.07.23-12.31-.3-.29-.73-.76-2.6.94-4.49Zm-3.11,2.02c.18-1.18.62-2.15,1.15-2.64.13.05.27.1.41.15-1.26,1.7-1.34,3.46-1.04,4.74-.16-.02-.31-.05-.46-.07-.12-.33-.23-1.11-.06-2.18Zm-6.46-5.71c1.19.28,2.49.7,3.78,1.35.83.42,1.61.8,2.37,1.13-.59.78-1.02,1.89-1.2,3.18-.05.34-.12,1.14-.02,1.92-.63-.14-1.2-.28-1.69-.42l-.64-.19c-1.5-.44-2.58-.76-3.37-.93,0,0,0,0-.01,0-.01,0-.03,0-.04,0-.73-.14-1.47-.22-2,.22-.46.38-.52.95-.52,1.35,0,.52-.42,1.64-.59,2.12-.01.03-.02.06-.03.09-.1.27-.21.55-.32.83-.01,0-.02.01-.03.02-.84.78-1.94,1.18-3.08,1.14-1.14-.04-2.2-.53-2.98-1.37-.28-.3-.76-.32-1.06-.04-.3.28-.32.76-.04,1.06,1.05,1.13,2.48,1.79,4.02,1.85.08,0,.15,0,.23,0,.73,0,1.44-.14,2.11-.4-.26.78-.49,1.55-.6,2.26-.11.63-.11,1.24-.03,1.81-1.6,0-4.19-1.38-4.99-3,.04-.17.07-.34.07-.51,0-.88-.54-1.64-1.31-1.97.24-1.1,1.27-3.72,5.59-6.73.17-.09.32-.2.47-.33,0,0,.01,0,.02-.02,0,0,0,0,0,0,.03-.03.07-.05.09-.07.45-.43.72-.97.83-1.53.34.35.79.64,1.34.82.29.09.6.14.9.14.45,0,.9-.11,1.31-.32.69-.35,1.2-.95,1.44-1.69.19-.58.17-1.19-.04-1.74Zm-10.51,37.65c.1-.92.2-1.87.29-2.82.03-.01.07-.03.1-.04.02,0,.05-.02.07-.03.2-.09.36-.17.51-.24-.09,1.06-.22,2.17-.36,3.32-.2-.05-.4-.11-.6-.19Zm.41,1.67c-.11.81-.23,1.64-.36,2.47h-.54c.12-.85.22-1.73.33-2.63.19.06.38.12.58.16Zm.31-6.36s-.09.05-.25.13c.12-1.23.23-2.36.34-3.35.06,0,.12,0,.19,0,.05,0,.1,0,.16,0,.04.91.01,1.98-.06,3.14h-.02c-.12,0-.24.03-.35.09Zm-.17-4.73c-2.21-.09-4.46-.91-6.75-2.46,0,0,0,0,0,0-.03-.02-.06-.04-.09-.06l.59-.7c1.71.96,3.42,1.29,4.94,1.44.38.85,1.24,1.45,2.23,1.45,1.14,0,2.09-.78,2.36-1.84,2.26-.55,4.05-1.55,5.27-2.94.11.14.22.31.34.47-1.35,2.15-4.13,4.32-7.62,4.62,0,0-.01,0-.02,0,0,0,0,0-.01,0-.43.03-.83.04-1.23.02Zm-15.27-20.09c-.42.14-.86.26-1.33.38-.38-.8-.95-2.45,0-3.75.28-.03.57-.06.85-.11-.35,1.26,0,2.55.48,3.48Zm-1.53,1.97s.02,0,.03,0c1.07-.25,2.04-.54,2.89-.86.73-.28,1.53-.48,2.37-.62.04.14.08.27.13.41l-1.96,3.87c-.1-.08-.22-.16-.34-.24,0-.03,0-.05,0-.08,0-1.06-.86-1.92-1.92-1.92-.74,0-1.39.42-1.71,1.04-.27.02-.54.06-.82.11.09-.57.2-1.07.32-1.48.35-.07.68-.14,1.01-.22Zm6.24-7.1c.15.51.54.89,1.04,1.01.48.11,1.26.03,2.23-1.01.18-.19.64-.61,1.02-.35.42.29.71,1.28.08,2.61-.6,1.25-2.44,1.61-3.88,1.69-1.35.07-2.61.31-3.76.69-.41-.72-1-2.17-.05-3.41.76-.25,1.4-.59,1.77-1.05.7-.87,1.93-2.41,2.54-2.67-.08.19-.25.51-.63.91-.38.4-.52,1.02-.35,1.58Zm7.21,12.49c.16.04.33.07.51.07.41,0,.79-.12,1.11-.32,1.28,1.78,3.92,3.2,5.96,3.2.14,0,.28-.02.41-.03.38.81.85,1.24.92,1.3,0,0,.8.69,2.03,2.2-.96,1.22-2.47,2.12-4.43,2.63-.37-.9-1.25-1.53-2.26-1.53-1.17,0-2.13.81-2.37,1.9-1.24-.14-2.53-.41-3.82-1.09l.15-.18c.7-.84.84-2,.34-2.97-.22-.42-.49-.97-.8-1.61.56-.65,1.66-2.04,2.25-3.57Zm-.13-2.07c0-.35.28-.63.63-.63s.63.29.63.63-.28.63-.63.63-.63-.28-.63-.63Zm11.48,3.3s.07-.01.11-.01l.16.55c-.51.39-.83,1-.83,1.68,0,.22.04.42.1.62-.62-.66-.99-.98-1.01-.99,0,0-.46-.42-.71-1.24-.13-.39-.25-1.05-.09-1.94.04-.21.1-.45.15-.68.06,1.12.98,2.01,2.12,2.01Zm-1.72-3.38c.13-.39.27-.78.42-1.16.07.2.13.39.19.59-.24.15-.44.34-.61.57Zm1.09,1.25c0-.32.23-.59.63-.64.35,0,.64.29.64.64,0,.23-.13.45-.39.57-.04.03-.12.06-.25.06-.35,0-.63-.28-.63-.63Zm-5.52,10.9c-.02.5-.43.9-.94.9s-.89-.37-.94-.85c0-.01,0-.03,0-.04,0-.03,0-.05,0-.08.01-.51.42-.91.94-.91.46,0,.86.34.93.81,0,.02,0,.04,0,.06,0,.04,0,.08,0,.11Zm-6.82-12.06c0,.42.13.82.34,1.15-.33,1.12-1.09,2.25-1.68,3-.79-1.67-1.69-3.7-2.5-5.77.36.11.75.18,1.17.18.87,0,1.88-.27,3.03-.96.36-.21.47-.67.26-1.03-.21-.36-.67-.47-1.03-.26-1.73,1.04-3.09.98-4.25-.15-.13-.38-.26-.76-.38-1.14,0,0,0,0,0,0,1.83-.1,3.24-.56,4.18-1.34,1.66,1.65,2.08,3.45,2.18,4.34-.79.31-1.35,1.08-1.35,1.98Zm-5.42,8.92c.06-.27.13-.55.19-.82,1.14-.04,2.06-.97,2.06-2.12,0-.79-.42-1.48-1.06-1.85.14-.54.29-1.11.46-1.72.56,1.26,1.1,2.42,1.57,3.4,0,0,0,0,0,0,.41.85.78,1.58,1.05,2.12.22.43.16.95-.15,1.33l-1.75,2.09c-.34.07-.99.2-1.81.39.2-.32.31-.7.31-1.1,0-.7-.34-1.34-.87-1.72Zm-2.02-2.94c0,.66.31,1.27.78,1.65-.07.3-.14.6-.21.9-.63.05-1.19.38-1.54.86.1-.89.17-1.8.17-2.6,0-.88.08-2.84.14-3.92.02-.45.14-.88.34-1.27l2.03-4.02c.32.88.66,1.76,1.02,2.62-.41,1.41-.73,2.6-1.01,3.67-.98.19-1.72,1.06-1.72,2.1Zm1.39,4.66c0,.35-.27.62-.63.64,0,0-.01,0-.02,0,0,0,0,0,0,0,0,0,0,0,0,0-.02,0-.04,0-.06,0-.32-.03-.55-.29-.55-.62,0-.35.28-.63.63-.63.08,0,.12.01.2.04.27.08.44.32.44.59Zm-1.71,1.85c-.38.11-.76.22-1.14.34.06-.36.14-.84.23-1.4.18.45.5.82.91,1.06Zm2.4-7.16s.02,0,.03,0c0,0,0,0,.02,0,.02,0,.03,0,.05,0,.02,0,.04.01.06.01.3.03.54.31.54.62,0,.45-.51.73-.87.58-.23-.09-.4-.32-.4-.58,0-.35.29-.64.58-.66Zm-4.84-6.17c0,.05-.01.11-.03.16-.05.12-.19.27-.39.27-.24,0-.43-.19-.45-.38,0-.03.01-.07.02-.1.02-.21.21-.36.43-.36.23,0,.42.19.42.42Zm-2.24.63c.26.75.97,1.29,1.82,1.29.47,0,.9-.19,1.25-.49.13.09.24.18.32.25l-.04.08c-.12.23-.2.48-.28.73-.97-.47-2.53-.97-4.07-.42.03-.43.06-.85.1-1.26.3-.09.61-.16.9-.19Zm2.82,3.44c-.06,1.13-.12,2.77-.12,3.57,0,.89-.1,1.95-.22,2.96-.9-.48-2.14-.82-3.49-.47-.08-1.8-.14-4.1-.07-6.34,1.45-.96,3.19-.14,3.9.28Zm.47,11.26c.38-.13.77-.25,1.15-.36-.15.85-.29,1.68-.4,2.47-.67.2-1.19.71-1.41,1.37.3-1.12.53-2.57.66-3.48Zm1.3,3.52s0,0,0,0c0,0,0,0,0,0,0,0,.01,0,.02,0,.02,0,.04,0,.06,0,.34,0,.61.28.61.62s-.29.64-.64.64l-.12-.02c-.29-.05-.51-.32-.51-.62,0-.33.25-.6.57-.63Zm.49,2.72c.97-.2,1.71-1.06,1.71-2.1,0-.86-.51-1.6-1.25-1.93.14-.96.31-1.97.5-3.02.9-.24,1.72-.43,2.38-.58.05,0,.09.02.13.02.43-.02.83.12,1.29.48,0,0,0,0,0,0,1.59,1.32,2.65,5.01,2.85,7.86,0,.06.01.1.02.16-2.31.83-4.24,1.26-5.59,1.21-.08,0-.16.02-.23.04-.31-.13-.61-.26-.9-.37-.23-.39-.56-.69-.97-.86.02-.3.04-.61.07-.92Zm8.09,2.32c.44.82,1.16,1.54,2.09,2.07-.09.77-.18,1.56-.29,2.35-1.49-.98-3.54-2.27-5.57-3.37,1.11-.21,2.37-.56,3.77-1.06Zm1.42-.54c.35-.14.68-.28.99-.41-.04.44-.09.89-.14,1.35-.35-.28-.64-.59-.86-.94Zm-.42-1.44c-.13-1.5-.56-3.86-1.47-5.87,1.16.51,2.32.84,3.47,1-.12,1.08-.24,2.32-.37,3.68-.02.17-.03.35-.05.52-.45.2-.99.43-1.59.67Zm7.26,2.12c.12.18.25.37.38.56-.15.1-.3.18-.46.26.03-.27.06-.54.08-.82Zm.17-2.7c.06-1.51.06-3.12,0-4.82,1.9-.68,3.52-1.82,4.72-3.09.06.22.15.42.27.61-1,4.42-2.31,7.8-3.68,9.52-.54-.79-.98-1.54-1.31-2.22Zm4.95-12.47c-.15-.19-.3-.37-.44-.54.18.08.37.13.57.16.06.26.12.52.18.79-.1-.14-.21-.28-.31-.41Zm-.19-2.48c0-.28.18-.52.49-.62.02,0,.07-.02.14-.02.35,0,.63.29.63.64,0,.29-.21.56-.48.61-.4.08-.78-.22-.78-.61Zm-.57-6.45c-.27-.83-.54-1.66-.84-2.52.36-1,.6-1.79.6-2.4,0-.08,0-.14,0-.18.05,0,.12,0,.21,0,.32,2.02.83,4.06,1.46,6.05-.32-.5-.83-.86-1.44-.96Zm-7.2-9.32c-.47-.49-.52-1.15-.19-1.66.42.04.84.07,1.25.07.38,0,.76-.02,1.13-.06.31.54.25,1.22-.21,1.67-.06.04-.11.08-.16.11-.56.41-1.34.37-1.83-.14Zm6.8-3.34c.21.13.39.28.51.48.12.21.24.54.1.96-.11.35-.36.64-.69.81-.33.17-.71.2-1.06.08-.53-.17-1.03-.56-1.02-1.15.85-.29,1.59-.69,2.17-1.18Zm4.67-4.61h0c.38.47.63,1.02.69,1.5.04.36-.03.64-.19.77-.38.31-1.38-.05-2.12-.95-.74-.91-.87-1.97-.49-2.27.09-.07.21-.11.36-.11.48,0,1.2.37,1.76,1.06Zm-2.37-2.46c.14-.1.29-.2.45-.31.15.08.31.16.48.24-.33-.04-.64-.01-.93.07Zm.52-2.26l.28-.54c.18-.34.29-.69.37-1.04.05,0,.11.01.16.01.31,0,.6-.03.88-.08-.41.52-1.01,1.09-1.7,1.65Zm2.11-3.29c-.42.15-.87.23-1.37.22-.11-.86-.49-1.67-1.09-2.32.4-.25.77-.54,1.12-.87.67.96,1.11,1.99,1.34,2.98Zm-4.64-5.82c.91.47,1.69,1.04,2.33,1.69-.47.46-.98.84-1.48,1.04l-1.75-.93.91-1.8Zm-4-1.11c.96.09,1.82.28,2.61.54l-.84,1.67-.47-.25c-.44-.23-.9-.36-1.37-.43-.24-.48-.34-1.01-.32-1.56.13,0,.25.01.39.03Zm-1.89-.06c-.02.56.06,1.12.23,1.66-.83.2-1.59.63-2.18,1.28-.44-.63-.64-1.34-.69-2.04.53-.55,1.38-.84,2.64-.9Zm-2.54-5.07c.12-.15.29-.25.48-.27.03,0,.06,0,.09,0,.16,0,.31.05.44.15.15.12.25.29.27.48h0c.02.19-.03.38-.15.53-.12.15-.29.25-.48.27-.4.04-.75-.23-.8-.62-.02-.19.03-.38.15-.53Zm-.95,8.38c.18.33.41.65.68.95l-.65,1.23c-.07-.83-.08-1.56-.03-2.19Zm-.03,5.5l.12-.23s.04-.06.05-.09c0,0,0-.01,0-.02l2.11-3.98c.49-.93,1.45-1.46,2.44-1.46.43,0,.87.1,1.28.32l3.64,1.93c.08.07.16.13.26.16,1.22.76,1.67,2.33.99,3.62l-2.29,4.32c-.54,1.01-1.43,1.75-2.53,2.09-1.09.34-2.25.23-3.27-.31l-1.03-.55c-2.09-1.11-2.89-3.71-1.78-5.79Zm-2.34,8.53c1.16.27,2.34-.34,2.8-1.45l.11-.26c.16.11.34.21.51.31l1.03.55c.85.45,1.77.68,2.7.68.48,0,.96-.07,1.43-.19.1.83.55,1.54,1.22,1.96-1.41.79-3.61,1.13-5.7.82-1.28-.2-3.39-.8-4.75-2.54.23.04.46.09.65.13Zm-.59,2.87c.11-.22.3-.36.51-.47.63.42,1.33.76,2.1,1.02.04.3,0,.6-.16.87-.19.32-.49.55-.85.65-.74.2-1.51-.25-1.7-1-.1-.38-.07-.76.1-1.07Zm-.74,5.47c.4-.83.53-1.61.5-2.29.45.27.96.43,1.5.43.24,0,.49-.03.73-.09.59-.16,1.1-.49,1.49-.95.13.44.35.85.7,1.21.26.27.56.47.88.62-1.9,1.59-3.01,3.06-3.66,4.26-.4-.99-1.08-2.1-2.16-3.15,0-.01.01-.02.02-.03Zm-2.21-7.98c.07-.24.23-.45.45-.57.17-.1.37-.12.56-.1.23.45.5.87.82,1.26-.11.22-.28.36-.38.43-.25.16-.54.22-.79.15-.5-.14-.8-.66-.66-1.17Zm-1.34-.66c-.04.09-.08.17-.1.26-.36,1.3.4,2.65,1.7,3.01.2.06.41.08.62.08.16,0,.32-.04.48-.07-.04.22-.06.45-.05.68-.84-.38-1.85-.11-2.65.74-.45.48-.71.56-.74.6-.01-.04,0-.1,0-.12.9-.95,1.27-1.91,1.01-2.62-.17-.47-.58-.78-1.13-.85-.62-.07-1.22.23-1.83.76l-1.23-1.45c1.36-.59,2.69-.9,3.91-1.03Zm-16.53,9.61c-.33-1.16,4.5-4.83,11.19-7.94l1.61,1.89c-.37.43-.76.91-1.17,1.42-.45.56-2,.89-3.72,1.05-.02,0-.03,0-.05,0-1.17.11-2.4.14-3.42.1-.41,0-.76.31-.77.72s.31.76.72.78c.36.01,1.17.03,2.16,0-.55,1.48-.13,3.01.27,3.96-.15.03-.29.06-.44.09-4.94.91-6.01-.74-6.39-2.07Zm3.2,23.92c-.07-.32-.1-.66-.09-1.02.1-2.59,2.9-3.57,3.02-3.61.33-.11.54-.43.51-.77,0,0-.03-.43-.07-1.15,1.46-.54,2.71.2,3.19.56-.16,1.07-.31,1.85-.32,1.9,0,0-.02.2-.07.54-.09.7-.41,3.09-.84,4.29-.05.15-.11.26-.17.35.32-.95.31-1.83-.04-2.4-.22-.36-.56-.57-.95-.62-1.31-.15-2.62,2.79-2.92,3.76-.08-.03-.18-.08-.3-.18,0,0-.02-.01-.03-.02-.22-.18-.43-.44-.59-.73-.12-.23-.2-.45-.27-.67,0-.06-.02-.11-.04-.17,0-.02,0-.05-.02-.07Zm6.69,11.38c-2.75-1.24-5.07-2.59-6.66-3.86.2-1.33.5-2.75.91-4.22.15.04.29.06.44.06.17,0,.34-.03.49-.09.42-.15.71-.51.8-.96.13-.62.75-1.77,1.21-2.39-.02.21-.07.48-.19.8-.22.59-.15,1.17.19,1.58.31.38.8.54,1.31.46.69-.12,1.25-.68,1.55-1.52.04-.12.08-.26.12-.39-.03.13-.04.26-.04.4,0,.79.43,1.49,1.08,1.86-.03.37-.06.73-.08,1.09-.86.28-1.48,1.08-1.48,2.03s.59,1.7,1.43,2c.02.68.07,1.32.13,1.93-.56.22-1,.67-1.21,1.24Zm1.16-5.16c0-.34.25-.61.58-.64.02,0,.04,0,.06,0,0,0,0,0,0,0,0,0,.02,0,.02,0,0,0,0,0,0,0,.24,0,.46.16.56.42.02.06.04.13.04.21,0,.35-.28.62-.63.63-.35,0-.64-.28-.64-.63Zm1.31,6.31c-.13.03-.25.09-.36.17-.03.02-.05.04-.07.06-.29.02-.56-.17-.64-.45,0-.03-.02-.06-.03-.09,0-.03,0-.06,0-.09,0-.35.28-.64.65-.64.34,0,.61.29.61.64,0,.15-.06.29-.15.4Zm2.06,5.13c-.1.1-.24.15-.39.15-.35,0-.64-.29-.64-.64,0-.24.13-.45.38-.57.06-.04.16-.06.26-.06.35,0,.63.28.63.63,0,.18-.07.34-.24.49Zm3.93,2.83s0,0,0,0c0,0,0,0,0,0,0,.01,0,.02,0,.03-.07.26-.31.44-.6.44-.35,0-.63-.29-.63-.64,0-.12.03-.23.11-.35.11-.17.31-.28.52-.28.35,0,.64.28.64.63,0,.07-.01.11-.03.16Zm2.03-.21c-.18-.03-.35-.07-.52-.11-.08-1.1-1-1.98-2.12-1.98-.44,0-.86.15-1.21.4-.2-.15-.4-.32-.59-.5.14-.29.22-.6.22-.93,0-1.17-.96-2.13-2.13-2.13-.07,0-.13.02-.19.02-.09-.2-.18-.38-.26-.59.81.29,1.56.53,2.18.69,2.71.73,4.67,1.09,5.68,1.26-.31,1.43-.66,2.74-1.06,3.87Zm-4.24-6.57c-.63-.17-1.45-.43-2.33-.75.11-.26.19-.54.19-.84,0-.92-.57-1.69-1.4-1.99-.07-.61-.11-1.25-.14-1.94.6-.24,1.05-.74,1.24-1.36,2.9,1.24,6.52,3.56,8.54,4.91-.16,1.09-.33,2.16-.53,3.21-.95-.15-2.9-.51-5.59-1.23Zm6.56,6.86c-.29-.01-.57-.03-.84-.06.3-.87.57-1.83.82-2.87l.44.73c-.14.76-.29,1.5-.43,2.2Zm.83-4.41l-.37-.61s-.02-.02-.03-.03c.19-.97.36-1.98.52-3.04h.52c-.2,1.25-.42,2.48-.64,3.68Zm.7,4.42c.02-.1.04-.2.06-.3l.17.29c-.08,0-.15,0-.23.01Zm1.79-5.25c-.26,1.4-.49,2.66-.66,3.83l-.65-1.07c.33-1.78.67-3.69.99-5.61h.84c-.17,1-.35,1.96-.51,2.86Zm.8,4.91s-.06.01-.08.02c.06-.5.13-1.02.22-1.57v.88s0,0,0,0c-.08.21-.12.43-.13.67Zm-.04-9.27h-.85c.12-.77.23-1.53.33-2.29.06,0,.11.01.17.01.22,0,.45-.03.67-.05-.1.8-.21,1.58-.33,2.33Zm.51-3.84c-.27.04-.55.06-.83.06.16-1.26.29-2.48.39-3.63h.72c-.06,1.25-.16,2.43-.28,3.57Zm.33-5.07h-.66c.07-1.2.09-2.3.05-3.25.21-.03.41-.07.61-.11.03,1.17.03,2.29,0,3.37Zm1.32,18.9c-.26,0-.49-.16-.59-.43-.02-.06-.04-.13-.04-.21,0-.35.28-.63.63-.63.25,0,.48.14.57.36.05.1.07.19.07.27,0,.35-.29.64-.64.64Zm4.97-4.1c-.16,0-.29-.07-.39-.14-.16-.11-.25-.29-.25-.49,0-.35.29-.63.64-.63.12,0,.23.03.35.11.18.11.28.3.28.52,0,.35-.28.63-.63.63Zm.35-2.71c-.12-.02-.23-.05-.35-.05-1.18,0-2.14.96-2.14,2.13,0,.4.12.77.32,1.1-.53.55-1.1,1.02-1.73,1.43-.39-.35-.88-.57-1.42-.57-.17,0-.33.02-.49.06v-6.53c0-.19-.08-.35-.19-.49.15-.93.28-1.9.41-2.92.54-.19,1.05-.44,1.52-.76,1.23,1.63,2.77,3.41,4.62,5.32-.17.45-.35.87-.55,1.28Zm.28-4.73c0,.67.32,1.28.82,1.66-.01.05-.03.1-.04.15-1.58-1.67-2.92-3.24-4-4.67,1.94-2.18,3.27-6.34,4.11-9.85.03,0,.05.01.08.01.09.59.17,1.14.23,1.65-.72.35-1.2,1.07-1.2,1.92,0,.97.66,1.78,1.55,2.04,0,.15.01.31.02.46-.89.26-1.57,1.06-1.57,2.04s.64,1.77,1.51,2.04c-.01.18-.03.37-.05.55-.85.28-1.46,1.08-1.46,2.02Zm2.21-5.22h.03c.3.05.53.31.53.62,0,.33-.23.59-.55.62-.03,0-.07,0-.1.02-.35,0-.63-.29-.63-.64s.28-.62.71-.62Zm-.71,5.22c0-.36.28-.64.64-.64.35,0,.63.29.63.64s-.28.63-.63.63c-.06,0-.12-.01-.21-.04-.26-.08-.43-.31-.43-.59Zm-8.76,24.09c-.62,1.04-.52,2.55.3,4.49.46,1.08,1.47,1.86,2.65,2.03l1.42.2c.29.04.54.19.71.43l.21.29h-4.69c-.91,0-1.74-.5-2.16-1.31l-3.5-6.78c-.15-.3-.17-.64-.05-.96.12-.32.36-.56.67-.68l1.3-.5c.82-.33,1.54-.88,2.09-1.6.48-.65,1.36-1.78,2.49-3.11.14.81.43,1.55.9,2.17.58.76,1.31,1.23,1.96,1.52-3.75,2.92-4.14,3.57-4.29,3.82Zm5.69-4.9c-.86-.2-3.14-1.05-2.82-4.24.05-.06.12-.12.17-.18.37,1.95,1.76,3.35,3,4.16-.12.09-.24.18-.35.27Zm5.85-28.32c0-.06-.01-.11-.02-.16,2.19,3.18,4.35,6.43,5.75,9.57,1.07,2.41,1.75,4.08,2.03,5.52,0,0,0,.02,0,.03,0,0,0,.02,0,.03.3,1.51.09,2.59-.65,3.51,0,0-.02.01-.02.02-.2.25-.44.48-.7.69-.83.66-2.54,1.92-4.52,3.38-1.88,1.39-4.04,2.98-6.07,4.51-.91-.48-3.15-1.97-2.87-4.66,3.32-3.26,6.2-4.99,8.34-4.99.02,0,.03,0,.05,0,.31,0,.59-.19.7-.48.11-.29.03-.62-.21-.83-.02-.02-1.87-1.64-4.11-3.91.1-.32.19-.63.28-.96,1.12-.07,2.01-.99,2.01-2.12,0-.89-.53-1.65-1.3-1.97.02-.23.04-.46.05-.69.74-.33,1.25-1.07,1.25-1.94,0-.82-.48-1.54-1.19-1.9,0-.23-.02-.47-.03-.71.72-.34,1.23-1.08,1.23-1.92Zm-1.24-1.94c-.11-.05-.22-.09-.34-.12-.02-.15-.04-.3-.06-.46.13.19.26.39.4.58Zm-.26,1.94c0,.32-.25.6-.63.63-.35,0-.64-.28-.64-.63s.25-.6.64-.64c.35,0,.63.29.63.64Zm-1.57-6.26s.03,0,.05,0c0,0,.01,0,.02,0,0,0,0,0,0,0,0,0,0,0,0,0,.02,0,.03,0,.06-.01.35,0,.63.28.63.63,0,.28-.17.45-.23.5-.09.06-.16.1-.23.11,0,0,0,0-.01,0,0,0,0,0,0,0,0,0,0,0,0,0-.03,0-.05,0-.08.02h-.06c-.18,0-.31-.07-.39-.14-.02-.03-.04-.05-.07-.07-.11-.11-.18-.26-.18-.42,0-.22.12-.42.35-.55.05-.03.1-.05.15-.05Zm-1.11-8.01l-.21-.72c.4-.39.65-.93.65-1.5,0-.06-.01-.11-.02-.17.38,1.12.77,2.23,1.19,3.3-.36-.52-.94-.86-1.61-.9Zm2.01-2.36c-.76-2.2-1.39-4.47-1.79-6.71.6.16,1.32.38,2.2.64l.64.19c.74.22,1.6.42,2.62.62.33,1.62.63,3.12.89,4.51-1.13-.09-2.94-.06-4.56.75Zm.5,1.43c1.56-.85,3.47-.75,4.35-.64.09.5.18.99.27,1.46-1.1-.07-2.81-.04-4.06.65-.19-.49-.38-.98-.56-1.48Zm8.16,15.21c-.05-.05-.11-.12-.16-.19.1.02.2.05.28.07-.03.03-.07.07-.12.11Zm2.79,1.62c-.56.53-1.14.66-1.36.59-.46-.15-.67-.44-.71-.66-.03-.18.06-.25.09-.28.8-.63,1.11-1.26.9-1.87-.34-1.01-1.89-1.19-2.78-1.21-.37,0-.7.27-.76.64-.17,1.15.45,1.99,1.05,2.47,0,.04,0,.09,0,.14-.14.01-.31,0-.54-.12-.68-.35-1.39-1.37-1.39-2.46,0-1.21-.98-3.44-2.34-6.54-.62-1.41-1.3-2.98-1.98-4.65.92-.63,2.71-.64,3.76-.54.16.9.3,1.75.44,2.54.47,2.71.81,4.67,1.16,6.05.32,1.22,1.47,2.04,2.74,1.94,1.01-.06,2.25.52,2.51,1.61.29,1.21-.54,2.09-.8,2.34Zm11.13-13.57l-5.77,2.6c-2.55,1.14-4.27,3.49-4.66,6.19-.77-.49-1.69-.72-2.53-.66-.56.03-1.04-.3-1.18-.82-.34-1.32-.68-3.25-1.14-5.93-.3-1.76-.65-3.77-1.08-6.07,0,0,0,0,0,0-.28-1.53-.61-3.19-.97-5,.34.05.66.11,1.01.15,4.95.65,10.58.74,14.08.23.01,0,.03,0,.04,0,.09,0,.18-.02.27-.06,1.04-.16,1.83-.37,2.41-.64,2.51-1.17,4.05-2.33,4.78-3.6l.49,2.32c.96,4.61-1.45,9.35-5.74,11.28Z"/>
</svg>