<?xml version="1.0" encoding="UTF-8"?>
<svg id="icons" xmlns="http://www.w3.org/2000/svg" viewBox="0 0 120 120">
  <path d="m109.06,75.65c-.28-2.23-1.38-4.22-3.01-5.46l-.13-.1c-.1-.08-.21-.13-.32-.19,1.23-.96,2.33-2.01,3.26-3.19,1.48-1.88,2.03-4.02,1.58-6.2-1.3-6.35-10.81-11.92-17.96-15.84,0,0,0,0,0,0-.56-.31-1.11-.6-1.63-.89-.72-.39-1.39-.76-2-1.09-7.24-4.02-14.53-2.07-16.53-1.4l-15.73-2.09-8.91-5.67.09-.06c.6-.41.93-1.12.86-1.84-.07-.72-.53-1.35-1.2-1.64l-6.01-2.6c.07-.2.11-.4.11-.61.01-.58-.23-1.13-.65-1.52-2.58-2.35-7.95-3.61-12.78-3.02-3.45.43-8.24,1.96-11.52,6.81l-8.82,9.81c-1.43,1.6-1.52,4.18-.19,5.89l2.57,3.32c2.66,3.42,6.72,4.87,10.58,3.76l1.51-.43,7.23,9.14c-7.92,2.05-18.58,5.4-20.01,8.84-.96,2.33-.2,5.12,1.9,6.96,1.25,1.09,3.09,1.91,5.33,1.9,1.73,0,3.7-.49,5.81-1.72,2.73-1.59,8.65-2.92,14-4.1-1.02,1.66-2.64,3.27-4.13,4.76-2.83,2.81-5.5,5.47-4.68,8.73.6,2.41,2.79,3.88,5.83,3.92.04,0,.08,0,.13,0,4.25,0,9.37-2.75,10.66-7.41,1.81-6.51,6.79-15.39,11.49-15.21.86.04,1.62.05,2.32.07,2.61.06,3.8.09,4.82,1.07.09.11.18.22.29.31.55.65,1.08,1.6,1.81,3.05.74,1.47,2.12,4.22,1.82,4.92-.15.35-.99.99-4.2,2.02-3.29,1.07-5.59,3.27-6.15,5.89-.36,1.71.13,3.38,1.33,4.45.6.54,1.73,1.24,3.54,1.24.82,0,1.77-.14,2.88-.51,5.78-1.89,13.93-7.02,15.77-10.78.63-1.28.5-2.28.28-2.9-.85-2.37-.97-5.87.76-7.94.35-.42,1.13-.71,2.04-1.05.12-.05.25-.09.37-.14,1.71,3.04,4.05,5.18,6.51,6.68-4.47,2.01-7.81,3.83-8.36,6.81,0,.02,0,.04-.01.06-.92,5.33.9,7.99,2.6,9.27,1.46,1.1,3.29,1.56,5.17,1.56,2.08,0,4.23-.56,5.98-1.4.97-.46,1.68-1.02,2.18-1.62l.18.92c.21,1.05.83,1.96,1.69,2.48.53.32,1.11.49,1.71.49.3,0,.6-.04.9-.13l4.76-1.36c2.27-.65,3.74-3.09,3.41-5.67l-1.17-9.33Zm-2.54-14.33c.21,1.03-.04,1.96-.8,2.92-.94,1.19-2.15,2.25-3.53,3.21-2.01-2.35-2.85-5.75-3.78-9.51-.49-2.01-1.02-4.14-1.78-6.23,4.71,2.94,9.24,6.44,9.89,9.61Zm-54.44-20.25l-1.29.77c-.44.26-.75.68-.89,1.17-.05-.33-.18-.66-.4-.93l-4.37-5.44,6.95,4.42Zm-2.57,3.48l-.91,3.61h-.95s-.03-.1-.06-.14l-1.72-2.68h2.07c.63,0,1.2-.3,1.57-.79Zm-28.29,2.96l-1.59.45c-2.3.66-4.67-.23-6.33-2.37l-2.57-3.31c-.16-.2-.13-.61,0-.76l7.57-8.42c3.92,4.32,3.32,11.62,2.91,14.42Zm3.89,1.05c.52-3.08,1.57-12.73-4.21-18.56,2.36-2.61,5.41-3.52,7.7-3.81,2.99-.37,5.75.16,7.6.89-.21.38-.29.82-.23,1.26.1.69.55,1.27,1.18,1.55l5.42,2.35c-.34.37-.54.87-.53,1.38.01.67.36,1.29.93,1.65l.49.31c-.49-.04-.99.1-1.41.43-.86.69-1,1.95-.31,2.81l2.01,2.51h-1.56c-.73,0-1.4.4-1.76,1.04-.35.64-.32,1.42.07,2.04l.84,1.31c-.44.2-.8.56-1.01,1.04-.43,1.02.05,2.19,1.07,2.62l2.85,1.2-.98,3.81-4.52-.64c-.55-.07-1.1.08-1.53.42s-.7.86-.74,1.41l-.06.74-1.03-.95c-.53-.49-1.27-.65-1.95-.44-.68.21-1.2.77-1.36,1.47l-.18.8-6.83-8.63Zm15.36,32.77c-.75,2.7-4.11,4.48-6.81,4.48h-.08c-.42,0-1.81-.09-2.01-.89-.26-1.05,1.89-3.2,3.62-4.92,2.48-2.47,5.25-5.23,6.1-8.67,1.58-.37,2.99-.72,4.23-1.07-2.61,3.92-4.35,8.5-5.07,11.07Zm46.57-16.33c2.12-1.7,4.04-4.79,4.5-11.11.08-1.1-.75-2.06-1.85-2.14-1.12-.06-2.06.75-2.14,1.85-.57,7.73-3.23,8.73-5.81,9.7-1.32.49-2.68,1-3.71,2.24-2.69,3.22-2.72,8.1-1.54,11.61-.64,1.68-7.09,6.69-13.45,8.77-1.51.49-2.29.29-2.51.09-.17-.15-.12-.5-.09-.64.19-.89,1.21-2.19,3.47-2.92,3.56-1.15,5.79-2.22,6.65-4.29.94-2.24-.11-4.61-1.94-8.26-.86-1.71-1.65-2.96-2.44-3.89,0,0,0-.02-.02-.03-.7-1.02-1.78-4.22-1.08-7.03.39-1.58,1.27-2.7,2.68-3.43.98-.51,1.36-1.72.85-2.7s-1.72-1.36-2.7-.85c-2.42,1.26-4.05,3.34-4.71,6.02-.45,1.81-.41,3.72-.11,5.43-.85-.09-1.8-.13-2.87-.16-.67-.01-1.41-.03-2.24-.07-1.2-.05-2.34.18-3.42.62-.18-3.68-2.06-6.6-2.15-6.74-.6-.92-1.83-1.18-2.76-.58-.92.6-1.19,1.83-.6,2.76.02.03,1.67,2.65,1.51,5.53-1.32,1.17-7.99,2.64-12.44,3.62-6.03,1.33-12.27,2.7-15.63,4.65-2.55,1.49-4.98,1.58-6.5.26-.8-.7-1.14-1.67-.87-2.35,1.14-1.71,11.39-5.15,20.26-7.29.18-.04.36-.1.52-.19.06-.03.12-.07.18-.11,0,0,0,0,0,0,.4-.27.71-.7.83-1.21l.34-1.5,1.53,1.41c.56.52,1.38.68,2.09.39.71-.28,1.21-.94,1.26-1.71l.21-2.75,4.17.59c1.01.14,1.96-.5,2.22-1.48l1.28-4.96h2.15c.92,0,1.71-.62,1.94-1.51l1.46-5.8,2.76-1.65,15.95,2.12c.34.04.69,0,1-.12.07-.03,6.96-2.71,13.64,1,.61.34,1.29.71,2.03,1.11.4.22.82.45,1.26.69,2.39,3.09,3.39,7.06,4.33,10.91.93,3.79,1.89,7.66,4.19,10.65-1.29.68-2.63,1.32-3.97,1.93-2.82-1.14-5.79-3.11-7.72-6.48Zm6.64,21.26c-2.18,1.05-5.38,1.49-7,.26-.62-.47-.97-1.18-1.14-1.98,1.41.23,3.17.14,5.31-.27,1.49-.29,2.72.21,3.32.72.35.3.42.53.42.56-.01.06-.2.36-.92.7Zm6.58-5.64c-1,.69-1.75,1.69-2.24,2.82-1.32-2.37-4.65-3.73-7.92-3.11-2.41.46-3.62.34-4.18.19,1.12-1.29,4.93-2.96,7.82-4.23.39-.17.78-.34,1.18-.52.52.17,1.04.32,1.53.45,2.07.53,3.67,2.1,4.21,4.12l-.4.28Zm5.47,6.18l-4.11,1.17-.16-.78c-.26-1.29.2-2.67,1.09-3.29l1.53-1.07c.68-.47,1-1.32.8-2.12l-.31-1.24c-.64-2.59-2.32-4.75-4.58-6.07.62-.32,1.24-.65,1.84-1,.57.37,1.19.71,1.87,1.01.75.6,1.26,1.59,1.4,2.73l1.17,9.33c.09.69-.26,1.25-.54,1.33Z"/>
  <path d="m33.61,51.23l-1.53-2.79h3.1c.78,0,1.49-.45,1.82-1.16s.21-1.54-.3-2.14l-1.1-1.29c.14-.1.26-.21.37-.34.51-.61.61-1.46.26-2.17l-1.46-2.96.37.15c.81.34,1.73.11,2.29-.55.56-.66.64-1.61.18-2.35l-3.85-6.2c-.58-.94-1.81-1.23-2.75-.64-.94.58-1.23,1.81-.64,2.75l.6.96c-.65-.11-1.33.11-1.79.6-.57.61-.71,1.5-.34,2.25l1.85,3.76c-.67-.04-1.35.32-1.73.91-.48.74-.41,1.71.16,2.38l1.73,2.03h-2.13c-.71,0-1.36.37-1.72.98-.36.61-.37,1.36-.03,1.98l3.14,5.75c.36.66,1.05,1.04,1.76,1.04.32,0,.65-.08.96-.25.97-.53,1.33-1.75.79-2.71Z"/>
  <path d="m20.76,39.51c-.12-1.1-1.11-1.89-2.21-1.77-1.1.12-1.89,1.11-1.77,2.21.04.34-.09.51-.17.54-.02,0-.23-.05-.5-.4-.66-.88-1.92-1.06-2.8-.4-.88.66-1.06,1.92-.4,2.8.97,1.3,2.33,2.01,3.7,2.01.5,0,.99-.09,1.48-.28,1.83-.72,2.9-2.61,2.67-4.7Z"/>
</svg>