<?xml version="1.0" encoding="UTF-8"?>
<svg id="icons" xmlns="http://www.w3.org/2000/svg" viewBox="0 0 120 120">
  <path d="m12.21,42.93s0,0,0,0c.27.72.5,1.77.76,2.99.94,4.39,2.48,11.47,9.77,16.9-1.23,1.59-2.33,4.05-2.81,7.88-.64,5.12-.06,11.05,3.49,12.35,1.62.59,4.17.36,7.11-4.14,1.19-1.82,1.86-1.64,4.51-.58.09.04.18.07.27.11-.36,3.13-1.91,5.13-3.08,6.65-1.04,1.35-2.03,2.63-1.49,4.24.68,2,4.15,3.1,7.08,3.12.03,0,.07,0,.1,0,2.57,0,8.25-.85,11.8-7.64.15.11.29.22.45.32,3.27,2.08,5.2,4.57,5.88,5.53v10.61c-3.47-.56-6.72.7-9.03,2.55-2.63,2.1-4.67,3.32-8.81,1.2-6.04-3.09-12.15-1.83-19.23,3.98-.85.7-.98,1.96-.28,2.81.4.48.97.73,1.55.73.45,0,.9-.15,1.27-.45,5.85-4.8,10.29-5.85,14.87-3.51,6.75,3.46,10.74.27,13.13-1.63,1.12-.9,5.14-3.55,9.58,0,3.95,3.16,6.25,2.38,9.08.93,1.01-.52,2.05-1.05,3.48-1.43,3.19-.84,3.68-.54,5.74.71.68.41,1.52.92,2.58,1.47,3.56,1.81,6.29.52,8.69-.63,1.35-.64,2.74-1.31,4.45-1.59,3.06-.52,4.03.6,4.67,1.34.31.35.66.75,1.24.97,1.03.39,2.19-.13,2.58-1.17.33-.87.01-1.82-.71-2.34-.03-.03-.05-.06-.08-.09-.84-.97-3.08-3.54-8.35-2.66-2.26.38-3.98,1.2-5.5,1.93-2.33,1.11-3.43,1.56-5.15.68-.94-.48-1.68-.93-2.33-1.32-2.63-1.6-4.22-2.37-8.83-1.16-1.85.49-3.21,1.18-4.29,1.74-2.08,1.07-2.51,1.29-4.75-.5-.51-.41-1.02-.75-1.54-1.06v-12.36c.23-.48,1.21-2.25,4.75-5.68,1.41,2.6,3.7,4.92,6.47,6.44,1.95,1.06,3.94,1.61,5.73,1.61.92,0,1.79-.14,2.57-.43,2.07-.77,4.83-2.06,4.84-4.48,0-1.62-1.19-2.89-3.56-3.78-.74-.28-.78-2.1-.51-3.75,1.95-.25,5.39-.98,8.91-3.18,1.51-.94,1.85-.57,2.76.42.59.64,1.4,1.5,2.68,1.42.56-.04,1.37-.29,2.05-1.26,1.72-2.48,2.73-10.1-1.14-14.5.18-.32.35-.64.52-.97.55-1.07.99-2,1.32-2.85,3.93-2.36,5.93-8.7,7.41-13.41.38-1.21.71-2.26,1.02-3.06t0,0c1.61.78,3.02.5,4.19-.83,1.79-2.02.83-6.33-.99-9.37-2.15-3.59-5.44-5.75-9.26-6.24.16-.42.28-.88.34-1.41.22-2.14-.92-4.28-3.03-5.71-2.57-1.74-5.96-2.14-9.56-1.24.36-1.81.19-3.23-.54-4.37-1.47-2.31-4.44-2.42-6.55-2.3-6.17.35-11.11,2.67-13.87,6.36-1.8-3.52-3.9-6.55-6.3-8.75-.03-.03-.07-.05-.1-.08-.04-.04-.09-.07-.14-.1-.06-.04-.12-.08-.19-.11-.05-.03-.1-.05-.15-.07-.07-.03-.14-.05-.21-.07-.05-.01-.1-.03-.15-.04-.08-.02-.15-.02-.23-.03-.05,0-.1-.01-.14-.01-.08,0-.16,0-.23.01-.05,0-.09,0-.14.01-.08.01-.16.04-.23.06-.04.01-.09.02-.13.04-.08.03-.16.07-.24.11-.04.02-.07.03-.11.05-.11.07-.22.15-.32.24-2.46,2.26-4.65,5.07-6.52,8.29-2.82-3.42-7.6-5.56-13.5-5.9-2.11-.12-5.09-.01-6.55,2.3-.72,1.14-.9,2.56-.54,4.37-3.6-.9-6.99-.5-9.56,1.24-2.11,1.43-3.25,3.56-3.03,5.71.05.53.18.99.34,1.41-3.82.49-7.11,2.65-9.26,6.24-1.82,3.03-2.78,7.34-.99,9.37,1.18,1.33,2.59,1.61,4.19.83Zm27.97,45.25c-2.06.53-4.02.2-5.11-.2.12-.15.23-.31.34-.45,1.24-1.61,3.18-4.13,3.79-7.99,1.78.19,3.77-.13,5.85-1.7.28,1.28.8,2.66,1.69,3.97-1.47,3.47-3.67,5.62-6.56,6.37Zm17.66-1.71c-1.23-1.4-3.05-3.15-5.51-4.71-4.59-2.92-3.49-8.26-3.44-8.49.21-.93-.27-1.89-1.15-2.27-.88-.39-1.91-.09-2.45.71-3.44,5.06-5.67,4.16-8.74,2.93-2.52-1.01-6.32-2.54-9.35,2.1-1.36,2.09-2.21,2.48-2.41,2.55-.49-.41-1.51-2.94-.87-8.08.45-3.64,1.63-6.19,3.24-7.01,1.12-.57,2.19-.16,2.73.14.89.49,2,.23,2.59-.59.59-.83.46-1.97-.29-2.65-.38-.35-3.68-3.53-.71-7.87.89-1.31,1.45-1.5,1.57-1.5.42.05,1.29,1.25,1.7,2.32.36.98,1.43,1.51,2.43,1.23,1.01-.29,1.62-1.3,1.41-2.33-.26-1.23-.29-3.69.54-4.03.41.54.75,2.48.69,4.11-.04,1.03.72,1.92,1.74,2.06,1.02.13,1.98-.53,2.21-1.54.42-1.84,1.27-3.82,1.93-4.61.02,0,.03,0,.04,0,.2,0,.38-.04.56-.09,1.74,1.32,2.55,4.95,2.69,6.18.12,1.01.97,1.77,1.99,1.77h.03c1.02-.01,1.87-.8,1.97-1.82.17-1.82.75-3.86,1.25-4.49.9.5,1.68,2.89,1.88,4.53.12,1.03,1.03,1.83,2.05,1.77,1.04-.03,1.88-.86,1.94-1.9.07-1.34.37-2.84.7-3.67.53.95,1.07,3.08,1.23,5.03.09,1.02.93,1.81,1.96,1.83,1,.04,1.9-.74,2.02-1.76.27-2.2,1.01-4.62,1.61-5.33.88.51,1.54,2.59,1.68,3.97.09.98.89,1.75,1.87,1.81.98.06,1.87-.61,2.07-1.57.4-1.86,1.49-3.91,2.08-4,.45.53.67,2.76.45,4.64-.12.99.52,1.92,1.49,2.17.97.25,1.98-.26,2.35-1.19.7-1.72,2.09-3.79,2.97-4.01.06-.02.17-.05.48.2,2.19,1.77.19,6.34.08,6.57,0,0,0,.02-.01.03-.46,1-.03,2.18.96,2.65.99.47,2.18.04,2.66-.95.02-.04.04-.09.06-.13,1.13-2.38,3.49-5.49,4.77-5.08.57.19,1.1.33,1.58.47.32.09.72.2,1,.3-.11.47-.46,1.46-1.53,3.55-2.44,4.75-9.07,13.01-16.72,10.27-8.65-3.1-10.69-2.25-11.55-1.01-.42.61-.47,1.4-.14,2.06.03.05,2.74,5.46-1.65,9.63-2.26,2.15-3.73,3.82-4.69,5.1Zm36.18-12.55c-1.31-1.1-3.57-2.21-6.86-.16-4.23,2.63-8.38,2.7-8.41,2.7-.88,0-1.66.58-1.91,1.42-.25.82-2.29,8.09,2.63,9.95.1.04.19.07.27.11-.35.19-.84.41-1.52.66-1.21.44-3.12.09-5-.94-2.7-1.47-4.76-3.89-5.57-6.43,1.59-2.94,1.61-6.06,1.09-8.46,1.18.22,3.01.7,5.8,1.7,7.28,2.61,14.15-1.53,18.79-7.67,1.23,2.19,1.12,5.24.72,7.12Zm10.6-40.59c1.77,2.05,2.42,4.47,2.44,5.66-.59-.33-1.47-.68-2.51-.33-1.33.45-1.98,1.75-2.39,2.83-.35.91-.7,2.01-1.1,3.29-.87,2.75-2.16,6.84-3.87,9.34-.79-.79-1.92-1.1-3.03-1.4-.42-.12-.89-.24-1.39-.41-.11-.04-.22-.05-.32-.08,2.02-4.13,2.66-9.15,2.53-17.28-.04-2.32.45-3.53,1.16-4.39,4.29-.82,6.97,1.02,8.47,2.76Zm-9.71-10.64c.86.58,1.36,1.35,1.29,1.99-.05.55-.31.8-1.27,1.59-1.61,1.3-4.03,3.26-3.94,8.76.15,9.11-.67,13.67-3.46,17.7-.39-1.04-1.01-2.01-1.99-2.81-1.32-1.07-2.59-1.2-3.54-1.05,1.1-4.73,1.15-8.95,1.19-12.81.05-4.47.09-8.34,1.89-11.66.25-.47.47-.91.69-1.35,4.16-1.99,7.43-1.51,9.15-.35Zm-26.18-.45c2.12-5.77,9.72-6.65,12-6.78,2.54-.15,2.93.42,2.95.45.08.12.69,1.37-2.13,6.57-2.27,4.2-2.32,8.73-2.37,13.52-.04,3.72-.09,7.8-1.18,12.29-.64-.62-1.43-1-2.33-1.07-.57-.05-1.09.02-1.57.17-.51-8.16-2.35-17.34-5.43-25.05.02-.04.04-.07.05-.11Zm1.4,25.67c-.51-.39-1.1-.7-1.78-.87-1-.25-2.02-.07-2.88.52-.53.36-.99.88-1.37,1.48-.67-1.08-1.58-1.91-2.8-2.15-.96-.19-1.92.04-2.71.65-.31.24-.58.54-.82.88-.7-.88-1.6-1.59-2.76-1.88-1.05-.27-2.1-.07-2.98.55-.43.3-.8.7-1.12,1.15-.73-1.24-1.7-2.38-3-3.11-.05-.03-.1-.04-.15-.07,0-.25,0-.5.02-.74.01-.29.04-.57.05-.86.03-.58.06-1.15.11-1.72.03-.34.07-.68.1-1.02.05-.51.1-1.02.16-1.52.04-.36.1-.71.15-1.07.07-.48.13-.95.21-1.43.06-.37.13-.73.2-1.09.08-.45.17-.91.26-1.36.08-.37.16-.73.24-1.09.1-.44.2-.87.31-1.3.09-.36.19-.72.29-1.07.11-.42.23-.84.36-1.25.11-.35.22-.7.33-1.05.13-.41.26-.81.4-1.21.12-.34.24-.68.37-1.02.15-.39.3-.78.45-1.16.13-.33.27-.66.41-.98.16-.38.33-.74.5-1.11.01-.03.02-.05.04-.08.3-.31.49-.71.54-1.13.13-.27.27-.53.4-.79.16-.3.31-.6.48-.89.19-.35.39-.68.59-1.02.17-.28.33-.56.5-.83.21-.33.43-.66.65-.98.17-.25.34-.51.52-.76.24-.33.48-.64.73-.96.17-.22.34-.45.51-.66.29-.35.59-.68.89-1.01.14-.16.28-.33.43-.49,0,0,.01-.01.02-.02,5.86,6.68,10.41,20.81,11.17,34.52ZM34.43,15.91s.4-.6,2.95-.45c2.16.12,9.12.93,11.63,5.95-3.18,6.92-5.05,15.23-5.26,23.91-.51.35-.96.8-1.36,1.32-.23-.33-.49-.64-.8-.89-.58-.49-1.27-.75-2.01-.83-1.22-3.51-1.08-6.57-.92-9.8.19-3.95.39-8.04-2.1-12.65-2.82-5.21-2.21-6.45-2.13-6.57Zm-11.23,6.78c1.72-1.16,5-1.64,9.15.35.22.44.43.88.69,1.35,1.96,3.62,1.81,6.83,1.62,10.55-.16,3.36-.33,7.13,1.19,11.44-.45.51-.78,1.11-1.01,1.77-.41-.2-.85-.33-1.33-.39-1.72-.21-3.35.63-4.83,2.51-1.81-2.84-1.76-5.47-1.62-12.25.02-.92.04-1.91.06-2.98.09-5.5-2.33-7.46-3.94-8.76-.97-.78-1.22-1.04-1.27-1.59-.07-.65.43-1.41,1.29-1.99Zm-9.71,10.64c1.5-1.74,4.18-3.58,8.47-2.76.72.86,1.2,2.07,1.17,4.39-.02,1.06-.04,2.05-.06,2.96-.17,8.21-.24,11.6,3.53,16.25-.65,2.2-.41,4.22.21,5.91-.24.06-.49.13-.72.22-6.92-4.61-8.24-10.71-9.21-15.22-.3-1.38-.55-2.57-.94-3.58-.42-1.08-1.06-2.38-2.39-2.83-1.04-.35-1.92,0-2.51.33.03-1.2.67-3.62,2.44-5.67Z"/>
  <path d="m60.4,62.96h-8.05c-1,0-1.85.74-1.98,1.73-.08.62-.75,6.18,1.83,9.21,1.04,1.22,2.47,1.89,4.13,1.92.05,0,.1,0,.15,0,1.59,0,2.97-.6,4-1.74,2.66-2.96,1.99-8.74,1.9-9.39-.13-1-.98-1.74-1.98-1.74Zm-2.9,8.46c-.2.22-.47.41-1.08.41-.53-.01-.88-.17-1.18-.52-.78-.91-1-2.8-1.01-4.35h4.29c0,1.71-.27,3.62-1.02,4.46Z"/>
</svg>