<?xml version="1.0" encoding="UTF-8"?>
<svg id="icons" xmlns="http://www.w3.org/2000/svg" viewBox="0 0 120 120">
  <path d="m54.23,30.26c-.3-.28-.78-.27-1.06.03-.3.32-.69.4-.96.41-.48,0-1.03-.2-1.44-.59-.3-.29-.77-.27-1.06.03-.29.3-.27.77.03,1.06.67.64,1.56,1,2.43,1,.03,0,.06,0,.09,0,.78-.02,1.5-.33,2.01-.88.28-.3.27-.78-.03-1.06Z"/>
  <path d="m59.25,30.29c-.3.32-.69.4-.96.41-.49,0-1.03-.2-1.44-.59-.3-.29-.78-.27-1.06.03-.29.3-.27.77.03,1.06.67.64,1.56,1,2.43,1,.03,0,.06,0,.09,0,.78-.02,1.5-.33,2.01-.88.28-.3.27-.78-.03-1.06-.3-.28-.78-.27-1.06.03Z"/>
  <path d="m54.04,55.38c-.44.47-1.04.74-1.68.75-.61.03-1.22-.21-1.67-.64-.3-.29-.77-.27-1.06.03-.29.3-.27.77.03,1.06.72.68,1.65,1.06,2.64,1.06.04,0,.07,0,.11,0,1.04-.03,2.01-.46,2.73-1.22.28-.3.27-.78-.03-1.06-.3-.28-.78-.27-1.06.03Z"/>
  <path d="m56.91,35.81c-.44.46-1.03.73-1.67.75-.63,0-1.24-.22-1.71-.66-.3-.29-.78-.27-1.06.03-.29.3-.27.77.03,1.06.73.69,1.67,1.07,2.67,1.07.04,0,.07,0,.11,0,1.04-.03,2-.46,2.72-1.22.28-.3.27-.78-.03-1.06-.3-.28-.78-.27-1.06.03Z"/>
  <path d="m53.73,33.53c-.29.3-.27.77.03,1.06.39.37.89.57,1.43.57.02,0,.04,0,.06,0,.56-.02,1.07-.25,1.45-.65.28-.3.27-.78-.03-1.06-.3-.28-.78-.27-1.06.03-.11.11-.25.18-.4.18-.13,0-.3-.05-.41-.16-.3-.29-.77-.27-1.06.03Z"/>
  <path d="m55.22,29.35c.78,0,1.37-.81,1.37-1.88s-.59-1.88-1.37-1.88-1.38.81-1.38,1.88.59,1.88,1.38,1.88Z"/>
  <path d="m55.37,19.85c1.19,0,2.13-1.2,2.13-2.73s-.94-2.73-2.13-2.73-2.13,1.2-2.13,2.73.94,2.73,2.13,2.73Zm0-3.96c.25,0,.63.49.63,1.23s-.38,1.23-.63,1.23-.63-.49-.63-1.23.38-1.23.63-1.23Z"/>
  <path d="m24.4,71.42c.49.3,1.06.46,1.63.46.32,0,.63-.05.94-.15,0,0,0,0,0,0,0,0,0,0,0,0,.16-.05.3-.14.45-.21.09-.05.2-.08.29-.14.19-.12.35-.28.51-.43.03-.03.07-.05.1-.09.36-.4.63-.89.75-1.44.06-.26-.03-.53-.22-.71-.84-.77-1.98-1.02-3.06-.67-1.07.35-1.88,1.24-2.09,2.34-.05.26.04.53.23.7.15.13.3.25.47.35Zm1.86-1.96c.4-.13.82-.1,1.19.08-.2.36-.53.64-.93.76-.39.13-.81.09-1.18-.08.19-.36.52-.63.93-.76Z"/>
  <path d="m98.75,78.94c-.47-.15-1-.17-1.52-.06.1-.36.17-.69.21-1.01.34-2.5-.63-4.59-2.37-5.08-.86-.25-1.95-.04-2.97.94-.33-1.26-1.2-2.11-2.37-2.23-1.06-.11-2.31.42-3.41,1.71-.02-.08-.02-.18-.04-.25-.31-1.17-1.12-1.45-1.58-1.52-2.64-.37-3.7,3.09-4.71,6.46-.42,1.38-.84,2.79-1.35,3.79-1.26-1.29-3.14-2.8-5.74-4.61l-4.87-3.11c-1.35-.86-2.38-2.12-2.96-3.64-.12-.32-.27-.65-.44-1.01,0,0,0,0,0,0-.55-1.22-1.3-2.46-2.2-3.68-.03-.51-.01-2.24,1.43-4.26.25-.35.51-.72.79-1.09.22-.29.44-.6.66-.91.64.34,1.31.67,2.02.99.39.18.77.34,1.13.48,1.69.68,3.06,1.02,4.17,1.02.82,0,1.49-.19,2.04-.56,1.03-.69,1.52-1.95,1.52-3.85,0-3.05-1.76-6.9-3.35-9.76,1.52-1.86,7.84-9.82,8.04-13.79.15-2.79-2.25-6.33-5.54-9.36-.04-.05-.09-.09-.15-.13-2.2-2-4.79-3.77-7.28-4.94.31-2.76-.04-2.98-.35-3.16-.25-.15-.65-.19-1.01.12-.42.36-.93,1.04-1.42,1.75.1-4.1-.46-4.37-.81-4.55-.33-.16-.73-.1-1.03.17-.7.62-1.55,2.46-2.13,3.82-3.83-6.8-5.31-7.57-6.01-7.51-.7-.06-2.18.7-6.01,7.51-.57-1.37-1.43-3.2-2.13-3.82-.3-.27-.7-.33-1.03-.17-.36.17-.91.44-.81,4.55-.49-.71-1-1.39-1.42-1.75-.36-.31-.75-.26-1-.12-.36.21-.77.46-.14,4.72-5.73,3.26-11.9,10.11-11.85,14.8,0,.21.01.41.04.6.5,3.8,6.98,11.31,9.4,14-.54,1.84-.67,3.34-.69,3.71-.54,2.25-.96,4.78-1.35,7.18,0,.02,0,.04,0,.07,0,.02-.01.03-.01.05,0,.06-.02,1.45-1.7,2.67-.04.03-.07.06-.11.08-2.03-.05-5.47.7-6.44.93-2.15-.91-4.47-.63-6.4.79-2.08,1.53-3.22,4.04-2.89,6.37.05.35.1.79.17,1.31.19,1.56.45,3.7.89,6.19,0,0,0,0,0,0,1,5.73,2.44,10.46,4.3,14.07,0,.02.02.03.03.05,0,0,0,.01,0,.02,1.2,2.3,2.59,4.18,4.12,5.57,1.9,1.74,4.44,3.11,7.55,4.11-.73.27-1.37.64-1.91,1.13-1.59,1.43-1.7,3.26-1.7,3.34-.01.26.11.51.33.66.13.09.27.13.42.13.11,0,.21-.02.31-.07l.58-.26c-.19.49-.19.83-.19.92,0,.23.12.45.31.58.13.09.28.14.44.14.07,0,.14,0,.21-.03l1.1-.32c-.13.33-.18.55-.18.58-.05.3.08.61.34.77.26.16.59.15.84-.03.98-.72,4.21-1.6,5.69-1.95.39.25.66.6.92.94.39.52.88,1.16,1.77,1.16h0c.37,0,.7-.17.91-.47.37-.51.31-1.41.14-2.24,1.34.32,3.64.87,6.13,1.43.05.04.1.09.17.11.1.04.2.06.3.06.07,0,.13-.01.19-.03,1.12.25,2.27.51,3.39.74,1.11.23,2.1.39,2.96.39,1.09,0,1.95-.25,2.54-.92.78-.88.91-2.31.38-4.71,4.53-1.16,8.57-4.66,9.75-5.76.32.1.62.18.9.18.35,0,.67-.08.96-.24.33-.18.56-.44.72-.71.3.13.63.23.98.23.37,0,.75-.1,1.11-.36.84-.57,1.13-1.66.89-3.21.68.06,1.36.1,2.01.1,11.63,0,18.75-8.59,19.57-12.27.54-2.42-.71-4.18-2.22-4.66Zm-4.08-4.7c.82.23,1.55,1.52,1.29,3.44-.11.8-.43,1.78-.93,2.83-.18.27-.34.56-.48.9,0,.02,0,.05-.01.07-2.66,4.82-8.74,10.77-16.3,10.65-.06-.14-.12-.29-.19-.44,7.63-2.07,12.79-10.09,13.96-15.17.76-1.66,1.77-2.53,2.66-2.28Zm-5.08-1.24c.65.07,1.08.66,1.15,1.59.02.26.01.72-.17,1.48-.81,3.68-5.19,12.14-12.98,14.19.67-.48,1.23-1.02,1.68-1.6.31-.31.61-.64.86-1,2.03-1.67,4.57-6.36,5.7-10.23,1.03-3.42,2.82-4.52,3.76-4.43Zm-8.16,5.33c.79-2.63,1.68-5.6,3.06-5.41.09.01.24.03.34.42.21.77,0,2.09-.43,3.61-.01.05-.03.09-.05.14,0,.01,0,.02,0,.03-.77,2.54-2.21,5.61-3.66,7.65-.17-.6-.5-1.23-1-1.89.71-1.15,1.21-2.81,1.73-4.56Zm-14.19-3.1l4.84,3.09c2.98,2.08,4.98,3.74,6.12,5.08,1.56,1.82,1.21,2.67.76,3.32,0,0,0,.01-.01.02-.19.29-.48.6-.77.89-.03.03-.05.05-.07.08-.49.66-1.18,1.25-2.04,1.75-.68.4-1.48.76-2.39,1.08-.59.21-1.25.39-1.94.56-.26-1.32-.48-4.52,2.18-8.15.43.17.81.37,1.11.58.13.09.28.14.43.14.24,0,.47-.11.61-.32.24-.34.16-.81-.18-1.05-1.07-.76-2.69-1.28-4.83-1.58-.02,0-.03,0-.05,0-.84-.11-1.76-.19-2.76-.23h-3.31c.24-.38.32-.78.03-1.18-1.32-1.75-2.9-1.05-4.18-.49-.35.16-.73.32-1.13.46-.74.26-1.48.31-2.13.15-.67-.18-1.7-.27-2.78.28,0,0-.01.01-.02.02-.34.17-.66.41-1.02.76l-.14.17s0,0,0,0l-.03.03c-.12-.04-.22-.07-.26-.08h0s-.06-.02-.09-.03c-1.29-.44-3.07-.84-4.26-.3-.85.39-1.53,1.08-2.25,1.8l-.02.02c-.45,0-.86-.02-1.17-.05-.25-.02-.49-.03-.73-.05-.06-.01-.12-.02-.18-.01-.98-.08-1.96-.16-2.93-.2h-3.96c-.54.02-1.01.11-1.44.21-.1,0-.2.03-.3.08-1.94.57-2.75,1.8-2.79,1.86-.22.35-.11.81.25,1.03.12.08.26.11.39.11.25,0,.5-.13.64-.36,0,0,.48-.7,1.63-1.12,3.47,3.51,1.29,7.7.55,8.87-.92-.21-1.81-.44-2.63-.7-1.31-.41-2.49-.88-3.52-1.42-.83-.42-1.53-.84-2.13-1.29-.06-.05-.13-.08-.2-.11-.85-.3-1.38-.71-1.57-1.21-.1-.26-.1-.53-.06-.76.71.2,1.6.25,2.67.16,1.88-.18,3.71-3.64,3.73-3.68.48-.96.77-1.73.93-2.2.25-.44.46-1.17.59-1.82,1.85-1.8,5.43-3.35,8.14-4.34,2.14-.77,3.72-2.59,4.13-4.73,0,0,0-.02,0-.03.04.04.07.09.12.14,0,0,0,.01,0,.02-.07.2-.1.42-.1.63,0,.15.02.29.05.43.02.09.05.17.08.25.02.04.03.09.04.13.04.1.1.2.16.29.01.02.02.04.03.06.06.09.14.18.22.26.01.01.03.03.04.04.08.07.16.14.24.2.03.02.05.04.08.06.08.05.15.09.24.13.05.03.11.05.16.07.06.02.13.04.19.06.09.02.18.04.27.05.04,0,.09.01.13.01.04,0,.07.01.11.01.11,0,.21-.01.32-.03.17-.03.33-.08.49-.15.05-.02.09-.05.14-.08.1-.05.2-.11.29-.19.02-.02.05-.03.07-.05.36.15.73.29,1.12.4,0,.01,0,.02,0,.04,0,.05.03.1.04.15.02.07.04.15.07.22.02.05.04.1.07.14.03.07.07.13.11.19.03.05.06.09.09.13.04.06.09.11.14.17.04.04.07.08.11.11.05.05.11.1.17.14.04.03.08.06.13.09.06.04.13.08.2.11.04.02.09.05.13.06.08.03.16.05.25.08.04.01.08.03.12.03.13.03.26.04.39.04.1,0,.2-.01.33-.03.15-.02.29-.07.42-.12.03-.01.07-.03.1-.04.28-.13.52-.31.71-.54h0c.1-.13.2-.26.27-.4.26,0,.53,0,.81,0,0,0,0,.01.01.02.08.15.17.28.28.4.03.03.05.06.08.08.11.11.22.21.35.3.01,0,.02.02.03.02.14.09.29.15.45.21.04.01.08.02.11.03.16.04.33.07.51.07.1,0,.21-.01.33-.03.21-.03.41-.1.59-.2.02-.01.04-.02.06-.03.17-.09.32-.21.45-.34.02-.02.05-.04.07-.07.13-.14.23-.29.32-.45.02-.03.03-.06.04-.09.08-.17.13-.35.16-.54,0-.01,0-.02,0-.03.42-.13.83-.27,1.22-.44.09.08.18.15.28.22.02.01.04.03.06.04.15.1.31.17.48.22.04.01.09.02.13.03.12.03.24.05.37.05.03,0,.06.01.09.01.11,0,.21-.01.33-.03.15-.02.29-.07.43-.13.04-.02.08-.03.12-.05.1-.05.2-.11.29-.17.03-.02.06-.04.09-.06.11-.09.22-.19.31-.3.02-.02.03-.04.05-.06.07-.1.14-.2.2-.31,0-.02.03-.03.03-.05.72,1.31,1.75,2.41,3.02,3.22Zm4.55,23.15c-.39-.09-.65-.58-.71-1.32.48-1.07.51-1.93.04-2.53-.34-.44-.85-.62-1.34-.69,0-.04.02-.08.02-.12.02-.23-.01-.46-.08-.68.35-.06.68-.12,1.01-.18.62,1.64.92,2.97,1.12,3.96.12.57.23,1.08.38,1.51-.11.06-.27.1-.43.06Zm-18.75,3.83c-.16,0-.33-.02-.49-.02.22-.53.45-1.2.55-1.92,8.74.41,14.63-4.06,15.69-4.93.49-.07,1.02-.02,1.14.12.05.06.1.4-.29,1.17-1.29,2.59-9.18,5.67-16.6,5.58Zm-10.65-2.51c.13-.81.23-2.3-.26-3.76.23-.25.53-.63.81-1.08.12,0,.24.01.36.02,2.15,2.02,1.29,4.56.76,5.65-.6-.25-1.15-.52-1.66-.82Zm1.8-16.25c3.19,4.37,1,8.56.09,9.94-.23,0-.45,0-.69,0-.33,0-.68-.02-1.04-.05-.09,0-.18-.02-.26-.02.63-2,1.7-6.74-1.03-10.03h.35c.84.04,1.71.1,2.58.17Zm28.21-.97c-2.66,3.9-2.43,7.37-2.12,8.93-.54.1-1.1.2-1.67.28-.6-1.3-1.89-5.35,2.62-9.43.41.06.81.14,1.18.22Zm-19.29,16.28c-.03-.21-.07-.41-.14-.61-.03-.08-.07-.15-.1-.23.39.04.78.07,1.16.07,3.72,0,7.05-1.89,9.6-3.34.83-.47,1.54-.87,2.15-1.15.78-.06,1.52-.13,2.26-.22.06.03.13.06.18.11.06.06.08.13.08.21-.01.14-.12.3-.29.43,0,0-.01.02-.02.02,0,0-.02,0-.02.01-.06.05-5.96,5.13-14.85,4.7Zm-3.91-1.85c-.24-.74-.65-1.45-1.28-2.1.01-.02.02-.04.03-.06.57-.06,1.1-.14,1.6-.23.05.13.09.26.12.39.05.3.02.62-.06.96-.04.05-.08.1-.1.16-.05.12-.06.23-.05.35-.07.19-.16.37-.25.54Zm-3.63-1.5c-.09-.17-.18-.33-.29-.5.26,0,.52,0,.77-.02-.16.2-.33.37-.48.52Zm9.27-6.22c.05-.61,0-1.21-.17-1.81.75.32,1.54.62,2.37.9,0,.14-.02.28-.02.42-.7.2-1.43.36-2.18.49Zm2.42-2.42c-.44-.15-.88-.3-1.3-.47.51-.28,1.08-.59,1.68-.93-.16.47-.28.93-.38,1.39Zm-3.37,5.49c.28-.54.47-1.03.61-1.5.9-.13,1.77-.31,2.61-.54.09.66.24,1.21.42,1.68-.94.21-2.19.38-3.74.51.03-.05.08-.1.11-.15Zm-2.75,2.38c-.03-.16-.09-.31-.14-.46.11-.03.22-.07.32-.1,3.12-.15,5.4-.41,6.91-.79.13.16.32.26.52.28.09,0,1.52.1,3.61.07-2.83,1.6-6.55,3.52-10.42,2.6-.13-.03-.25-.02-.36.01-.14-.1-.29-.2-.45-.29.08-.44.09-.88.01-1.31Zm15.94-2.77c-.48.05-.98.09-1.48.13,0,0-.03,0-.06,0h0s-.04,0-.05,0c-.16.01-.31.02-.47.03-.36-1.45-1.2-6.4,2.88-10.05h.33c.37.01.72.04,1.07.06-3.72,4.01-2.91,8-2.22,9.83Zm-3.57.23c-1.98.06-3.57.01-4.27-.02v-.02c-.31-.56-.67-1.51-.72-2.82-.02-.44,0-.9.06-1.38.16-1.21.58-2.46,1.25-3.72,1.45-.85,2.55-1.53,3.36-2.09.38-.02.76-.04,1.14-.06h1.49c-3.19,3.76-2.69,8.3-2.31,10.12Zm-.99-11.41c-.82.58-2.01,1.32-3.63,2.26,0,0,0,0,0,0-1.94,1.12-3.9,2.18-4.94,2.73,0,0,0,0,0,0-.45-.75-1.07-1.53-1.92-2.42.55-.08,1.04-.18,1.42-.29.14-.04.27-.13.36-.24l.93-1.12s0,0,0,0c0,0,0,0,0,0l.08-.11c.2-.19.41-.35.62-.45,0,0,0,0,0,0,.53-.27,1.1-.32,1.72-.16.95.23,1.98.17,3-.19.44-.15.86-.33,1.24-.51,1.21-.54,1.67-.67,2.1-.29-.16.16-.45.41-.98.79Zm-13.61,1.36c.21-.17.43-.32.65-.41.45-.21,1.29-.16,2.37.12-.87.14-1.95.24-3.02.29Zm-1.94,1.55c.97,0,2.08-.05,3.14-.13,1.48,1.43,2.37,2.52,2.84,3.53,0,0,0,.01,0,.02.46.95.54,1.84.25,2.9-.12.5-.33,1.04-.65,1.65-.19.37-.76.74-1.56,1.03-.03,0-.06.02-.09.03-.29.11-.65.21-1.12.32-.69.16-1.49.27-2.4.35-.44.04-.91.06-1.37.08,1.05-1.99,2.37-5.78.08-9.79.27.01.57.02.88.02Zm-7.86-.33c3.68,2.78,2.21,8.25,1.65,9.89-.36-.04-.73-.08-1.09-.13,0,0,0,0,0,0,0,0,0,0,0,0-.51-.07-1-.16-1.51-.25.95-1.75,2.57-5.85-.35-9.51h1.3Zm.17,11.21c.58.38,1.03.9,1.31,1.56.4.9.45,1.89.4,2.65-1.39-1.18-2.2-2.63-2.39-4.32.22.04.45.08.67.11Zm6.82,2.45c.24-.2.58-.5.93-.89,1.5,1.82.93,4.41.57,5.54-.74-.15-1.44-.34-2.11-.56.51-1.08.89-2.57.62-4.09Zm3.43,2.05c.28-.31.74-.87,1.11-1.59.45.32.76.71.92,1.19.4,1.25-.24,2.79-.6,3.5-.61-.05-1.23-.13-1.86-.22.21-.7.45-1.73.44-2.87Zm-21.6-6.92s0,0,0,0c0,0,0,0,0,0,0,0,0,0,0,0-.3.22-.58.37-.86.49-.54-1.11-1.04-2.32-1.51-3.64.43.59,1.09,1.05,1.99,1.38.42.31.89.6,1.4.89-.28.28-.63.59-1.01.87Zm17.23-29.01l1.91-7.53c.25,1.09.61,2.15,1.07,3.17.29.64.45,1.36.45,2.07,0,.92-.25,1.81-.73,2.59-.97,1.59-1.72,3.29-2.22,5.05,0,0,0,0,0,0,0,0,0,0,0,0,0,0,0,0,0,0h0c-.15.52-.29,1.08-.41,1.65-.31,1.63-1.52,3.01-3.17,3.61-2.38.87-5.42,2.17-7.54,3.74-.04-1.3.21-1.65,1.01-2.32.28-.23.62-.48,1.01-.78.49-.37,1.08-.81,1.77-1.36,1.4-1.1,5.67-5.28,6.84-9.9Zm3.54,5.26c1.88,1.65,4.91,2.05,7.43,2.05.94,0,1.8-.06,2.51-.12,1.25-.12,2.37-.71,3.07-1.62.2-.26.34-.51.46-.77.27.43.52.86.74,1.28-.13-.03-.26-.06-.39-.06-.05,0-.1-.01-.14-.01-1.13,0-2.05.92-2.05,2.05,0,.04.01.07.01.11-.32.13-.65.25-.99.35-.35-.48-.89-.82-1.51-.86-.05,0-.1-.01-.14-.01-.92,0-1.7.62-1.95,1.47-.19,0-.38,0-.57,0-.23-.81-.94-1.42-1.82-1.47-.05,0-.1-.01-.14-.01-.72,0-1.35.37-1.71.91-.25-.08-.5-.17-.73-.27,0-.08.03-.15.03-.23,0-1.09-.84-1.98-1.91-2.04-.05,0-.1-.01-.14-.01-.35,0-.67.09-.96.24-.23-.25-.44-.51-.64-.8.15-.5.33-.99.53-1.48.23.47.55.91.99,1.3Zm13.79,3.34c-.09.01-.17,0-.25-.03-.1-.03-.19-.09-.26-.16,0,0,0,0,0,0-.03-.04-.06-.08-.08-.12-.04-.08-.06-.16-.06-.24,0-.29.23-.53.52-.55.02,0,.05,0,.07,0,.15,0,.27.07.38.2.09.09.13.22.13.34,0,.27-.2.51-.45.55Zm-5.32,1.1c0-.3.22-.54.52-.56.02,0,.05,0,.07,0,.24.01.44.19.5.42,0,.04.01.08.01.13,0,.27-.2.5-.44.54h-.11c-.27.01-.52-.21-.55-.54Zm-3.82.54h-.11c-.3.01-.55-.24-.55-.57l.02-.09c.04-.24.25-.43.5-.45.03,0,.05,0,.08,0,.28.01.5.26.5.55v.07c-.03.24-.22.44-.44.48Zm-4.46-1.64c-.34.05-.65-.21-.65-.55,0-.12.04-.24.13-.35.09-.12.22-.19.39-.2.03,0,.05,0,.08,0,.28.01.5.26.5.54,0,.1-.03.2-.08.29-.08.14-.22.24-.37.26Zm-13.23,1.45c-.08.06-.15.11-.23.17-.26-.51-.67-1.08-1.34-1.45-.47-.26-.99-.39-1.56-.4h.01s.22-.36.22-.36c.11-.05.22-.09.34-.14l.16-.06c1.82-.34,2.75,1.26,3.01,1.79-.21.16-.42.32-.61.46Zm-5.8,1.48c.14-.05.25-.13.34-.24l.92-1.15c.93-.34,1.69-.37,2.23-.07.49.28.75.78.88,1.13-1.17,1.1-1.31,2.04-1.14,4.12.03.43-.24,1.36-.42,1.87-.08.09-.14.19-.17.3,0,0,0,.02,0,.03,0,0,0,0,0,0-.09.3-.37,1.12-.9,2.18-.69,1.34-1.99,2.82-2.53,2.87-1.47.13-2.22-.08-2.59-.29,0,0-.01-.02-.02-.02-.25-.14-.4-.32-.46-.57-.14-.54.11-1.41.72-2.44.02-.04.03-.08.04-.12.07-.04.15-.07.21-.13.76-.65.96-1.93,1.02-2.64.05-.68.73-1.17.73-1.17.34-.24.42-.7.19-1.04-.24-.34-.7-.43-1.04-.19-.13.09-1.27.92-1.37,2.29-.06.74-.23,1.26-.4,1.51,0-.05.01-.1.02-.14.05-.39.11-.88,0-1.37,0,0,0,0,0,0-.15-.67.04-3.42,3.75-4.69Zm-5.02,7.4c.06.07.14.14.24.21-.56,1.13-.75,2.12-.54,2.92.11.42.33.78.63,1.08-.09.28-.16.64-.16,1.04-.62-2.01-1.16-4.24-1.61-6.66.06,0,.12.02.18.02.38,0,.73-.05,1.04-.12-.07.5-.14,1.07.23,1.51Zm38.65-22.62c-.28.38-.56.75-.81,1.11-2,2.81-1.71,5.25-1.67,5.55,0,.01,0,.02,0,.03,0,0,0,0,0,0,0,.03.17.78-.49,1.63-.45.59-1.19.97-2.03,1.05-1.9.18-6.58.4-8.81-1.56-.96-.85-1.11-1.93-.42-3.26.05-.07.07-.14.09-.21.47-.91.73-1.92.73-2.96,0-.93-.2-1.86-.59-2.69-.78-1.72-1.23-3.56-1.33-5.46l-.06-1.29c-.02-.37-.3-.67-.67-.71-.37-.03-.71.2-.8.56l-2.71,10.66c-.96-.09-2.85-.34-4.15-.86.36-2.22.75-4.52,1.25-6.56.01-.05.02-.09.02-.14,0-.08.48-8.5,6.84-10.74.02,0,.06-.02.08-.03,0,0,0,0,0,0h.02s.57-.26.57-.26c1.3,4.03,6.84,6.42,8.11,6.93.08,1.34.55,3.43,2.53,4.97-.08.04-.15.09-.22.15-.29.3-.27.77.03,1.06.76.72,1.67,1.1,2.6,1.1.15,0,.3-.04.46-.06.58.41,1.23.83,1.95,1.26-.18.25-.36.51-.54.75Zm-23.84-23.71c-.55-1.4.9-3.6,2.06-5,.61,2.49,1.51,5.07,2.43,6.78-.19.26-.36.54-.49.85-.36.89-.39,1.82-.15,2.63-1.53-1.7-3.32-3.87-3.87-5.26Zm29.39-6.8c.93.82,2.1,2.01,2.71,3.15,0,.01.01.02.02.03.33.64.5,1.26.33,1.79-.44,1.44-2.19,3.78-3.69,5.59.43-.9.49-2.03.05-3.1-.25-.61-.64-1.12-1.11-1.53.61-1.66,1.27-3.89,1.7-5.94Zm6.5-2.08c-.33.08-.68.2-1.03.4-.98.55-1.75,1.48-2.31,2.78-.18-.24-.37-.46-.57-.68.39-1.95,2.19-3.01,3.01-3.41.31.3.61.6.9.9Zm-13.88,17.17c-.17-.25-.33-.44-.46-.59.61-.63,1.01-1.36,1.19-2.17h.02c.04.88-.22,1.8-.75,2.76Zm2.37,9.77c1.11,1.08.6,2.48.17,3.25-.55-.34-1.06-.67-1.5-.99-1.22-.87-1.76-1.47-1.77-1.48-.05-.06-.12-.11-.19-.15-1.93-1.13-2.45-2.89-2.56-4.08.12.51.39.94.83,1.14.2.09.9.31,1.57-.54.52-.65.68-2,.48-4.03-.06-.48-.14-.93-.22-1.32.04.07.07.13.11.2.42.87.74,2.14,1.02,4.13l.4,2.79c.04.26.2.48.44.58.04.02.54.23,1.22.5Zm-13.93-10.68c.56.78,1.39,1.41,2.45,1.82.95.37,2.01.55,3.09.55,1.2,0,2.4-.23,3.45-.66.01.04.02.08.04.12.14.37.28,1.04.39,1.79-.12.12-.24.24-.37.37-.15-.18-.32-.33-.53-.4-.39-.14-.82-.05-1.13.23-.39.31-.62.99-.74,1.7-1.62-.7-5.54-2.67-6.66-5.51Zm-5.05-4.17c.25-.61.7-1.09,1.24-1.32.03-.01.08-.02.11-.04,0,0,0,0,.01,0,.14-.05.3-.09.48-.09.16,0,.32.03.49.1.84.35,1.16,1.52.71,2.61-.25.61-.7,1.09-1.24,1.32-.26.11-.67.2-1.09.03-.84-.35-1.16-1.52-.71-2.61Zm14.73,3.74c-.18.02-.33.08-.42.13-.1.06-.23.18-.33.37-1.67.9-4.12,1.06-5.94.35-.68-.26-1.51-.75-1.96-1.59.58-.46,1.1-1.07,1.31-1.96.66.22,1.36.34,2.1.34h1.5c1.38,0,2.67-.42,3.74-1.15.28.55.69,1.02,1.2,1.39-.08.83-.48,1.54-1.18,2.12Zm-3.75-3.86h-1.5c-2.85,0-5.17-2.32-5.17-5.17v-8.19c0-.45.37-.82.82-.82h10.19c.45,0,.82.37.82.82v8.19c0,2.85-2.32,5.17-5.17,5.17Zm-6.55,1.95h0c.36-.89.39-1.81.15-2.61.41.44.87.83,1.39,1.15-.05.71-.38,1.2-1.21,1.74-.03.02-.06.04-.08.06-.1.06-.2.11-.3.16l-.26.12c.12-.2.23-.4.32-.62Zm16.93.34c.18-.03.35-.09.52-.16.16-.07.31-.16.45-.25-.18.21-.36.4-.51.57l-.46-.17Zm-.58-5.47c.54.22.99.7,1.24,1.32.45,1.09.13,2.26-.71,2.61-.42.18-.83.08-1.09-.03-.54-.22-.99-.7-1.24-1.32-.45-1.09-.13-2.26.71-2.61.17-.07.34-.1.49-.1.23,0,.44.06.6.13Zm-3.19,3.15c.19.47.47.89.8,1.24l-1.03-.37c-.11-.04-.22-.09-.29-.13-.56-.3-.97-.8-1.16-1.4,1.08-1.19,1.74-2.76,1.74-4.48v-8.19c0-1.28-1.04-2.32-2.32-2.32h-10.19c-1.28,0-2.32,1.04-2.32,2.32v8.19c0,1.03.24,2.01.66,2.88-.18-.13-.37-.24-.58-.33-.34-.14-.71-.21-1.09-.21v-9.36c0-2.44,1.98-4.43,4.4-4.43h8.88c1.93,0,3.5,1.58,3.5,3.52l.05,8.75c-1.26.84-1.74,2.64-1.06,4.3Zm-17.26,4.19c.06.02.13.04.19.06-.03.02-.06.03-.09.05-.04-.04-.07-.07-.11-.11Zm20.13,14.81c.49-.87.88-2.07.63-3.24.3.1.59.19.87.26,0,0,.01,0,.02,0,0,0,0,0,0,0,0,0,0,0,0,0,.1.03.2.05.3.07.27.17.5.37.68.6-.61.36-1.02,1.01-1.02,1.77,0,.84.51,1.57,1.24,1.88-.08-.03-.15-.06-.23-.1-.88-.39-1.71-.8-2.49-1.24Zm2.79-4.24c-.07-.01-.14-.03-.2-.04h-.03c.01-.1.03-.19.04-.29.07.12.14.24.19.33Zm.85,4.24c-.35.05-.65-.2-.65-.54,0-.3.22-.53.52-.55.03,0,.05,0,.08,0,.28.01.5.26.5.55,0,.27-.2.5-.45.54Zm-.8,1.39s-.05-.02-.08-.03c.03.01.05.02.08.02,0,0,0,0,0,0Zm5.54.92c-.74.5-2.13.37-4.14-.36.06-.19.11-.4.17-.64.71-.33,1.19-1.04,1.19-1.86,0-.93-.61-1.71-1.45-1.96-.03-.07-.06-.14-.09-.2.12-.05.23-.13.33-.25.39-.47.16-1.05.02-1.42-.18-.47-.85-1.57-2-3.26-.02-.03-.06-.05-.08-.08-.04-.04-.07-.09-.12-.12-.05-.03-.1-.05-.15-.07-.04-.02-.07-.04-.12-.05-.07-.01-.14,0-.21,0-.03,0-.05,0-.08,0,0,0,0,0,0,0-.06.01-.11.04-.16.06-.04.02-.08.03-.12.05,0,0,0,0,0,0-.03.02-.05.05-.08.08-.04.04-.09.07-.12.12-.03.04-.04.09-.06.14-.02.04-.04.08-.05.12-.01.07,0,.13,0,.2,0,.03,0,.06,0,.08.15.82.17,1.63.07,2.42-1.06-.34-2.22-.81-2.81-1.06l-.34-2.37c-.27-1.88-.57-3.19-.98-4.17.86-1.27,1.34-2.52,1.42-3.73l2.91,1.05s0,0,0,0h.01c1.01.37,1.89,1.06,2.55,2.01l.11.16s0,.01,0,.01c0,0,0,0,0,0l.06.08c.33.5,1,1.53,1.77,2.88,0,.01.01.02.02.03,0,0,0,0,0,0,1.55,2.73,3.4,6.59,3.4,9.47,0,1.34-.29,2.22-.86,2.61Zm-1.78-13.76c-.56-.94-1.04-1.66-1.29-2.06l-.07-.1c-.05-.08-.1-.15-.13-.19l-.03-.04s-.01,0-.01-.01c-.58-.85-1.35-1.55-2.25-2.06,1.4-1.58,4.52-5.26,5.22-7.56.27-.88.08-1.79-.32-2.67.45-1.53,1.11-2.58,2-3.09.65-.37,1.25-.37,1.56-.33,1.69,2.06,2.74,4.1,2.66,5.64-.15,2.95-4.85,9.37-7.34,12.47Zm1.35-21.47c-.99.56-2.37,1.59-3.02,3.26-.42-.39-.8-.7-1.07-.91.26-1.75.24-3.14-.29-3.55-.32-.25-.76-.25-1.11,0-.23.17-.49.41-.76.68.24-1.31.42-2.38.56-3.29,2,.99,3.96,2.32,5.69,3.79Zm-27.98-3.44c.17.3.53.45.87.35s.56-.42.53-.77c-.12-1.75-.17-3.76-.1-5.02.55,1.03,1.21,2.56,1.62,3.68.1.27.36.46.65.48.3.03.57-.13.71-.39,1.95-3.57,4.53-7.61,5.42-8.09.01,0,.03,0,.04,0,.01,0,.03,0,.04,0,.89.48,3.47,4.52,5.42,8.09.14.26.42.42.71.39.29-.02.55-.21.65-.48.42-1.12,1.07-2.65,1.62-3.68.06,1.26.01,3.27-.1,5.02-.02.35.2.67.53.77.33.1.69-.04.87-.35.39-.69,1-1.68,1.57-2.5-.22,1.9-.76,5.1-1.35,8.01-.07.34.11.69.43.83.32.14.7.04.91-.24.28-.38.92-1.21,1.52-1.87-.03.45-.1,1.03-.21,1.7,0,0,0,0,0,.01-.29,1.76-.88,4.18-1.81,6.74-.27-.07-.54-.11-.81-.11l-.05-8.29c0-2.77-2.24-5.02-5-5.02h-8.88c-3.26,0-5.9,2.66-5.9,5.93v9.78s-.06.03-.09.05c-1.87-3.57-2.73-8.53-2.84-10.74.58.65,1.2,1.44,1.47,1.81.21.28.58.38.91.24.32-.14.5-.49.43-.83-.38-1.87-.73-3.86-1-5.54,0-.01,0-.03,0-.04-.15-.93-.27-1.76-.34-2.43.62.9,1.27,1.98,1.57,2.5Zm-2.55,1.23c.09.53.19,1.09.3,1.71-.27-.27-.53-.52-.76-.68-.35-.26-.8-.23-1.11.05-.61.56-.52,2.68-.04,5.19-1.04,1.08-4.14,4.6-3.06,7.35.03.07.07.15.1.22-.23.08-.46.16-.69.23-.32-.93-1.19-1.6-2.22-1.6-.96,0-1.79.58-2.15,1.41-.36-.22-.68-.52-.96-.89.16-3.69,5.09-9.69,10.59-12.99Zm-8.34,14.83c0-.48.39-.87.86-.87s.86.39.86.86c0,0,0,.01,0,.02,0,0,0,.01,0,.02,0,.03-.01.05-.01.08-.04.43-.41.77-.84.77s-.82-.36-.86-.88Zm1.72,0h0s0,0,0,0c0,0,0,0,0,0Zm-3.37.56c.08.04.16.06.24.1.29.99,1.2,1.72,2.26,1.72s1.9-.67,2.22-1.6c.47-.12.95-.27,1.43-.46,1.44,2.23,3.99,4.95,5.15,6.15-1.66,1.39-2.74,3.18-3.43,4.88-2.72-3.08-6.43-7.71-7.88-10.8Zm6.58,24.48c1.35.48,3.01.72,4.03.83-1.18,3.63-4.48,7.15-6.06,8.41-.32-.58-.82-1.22-1.5-1.69.05-.01.1-.03.14-.04,1.92-.54,2.98-.84,3.18-1.64.08-.29,0-.58-.18-.81-.25-.3-.65-.55-2.44-.5,1.08-.43,1.73-.78,1.81-1.44.03-.2-.02-.57-.38-.9.81-.79,1.21-1.59,1.4-2.21Zm-15.07,4.63c1.54-1.14,3.41-1.33,5.11-.53.16.07.33.09.49.05.04-.01,3.81-.91,5.98-.95-.2.08-.39.15-.57.22-.32.12-.65.25-1,.39-.74.29-1.7.7-2.51,1.23-.28.19-.41.54-.3.86.11.32.4.54.76.51.09,0,.36-.04.73-.08l.92-.1c.58-.05,1.07-.09,1.5-.12-.81.23-1.72.49-2.6.81,0,0-.01,0-.02,0-.04,0-.08.02-.11.04,0,0,0,0,0,0h-.01c-.19.06-.38.14-.56.22-.07.03-.13.06-.19.09,0,0,0,0,0,0-.03.01-.06.02-.09.03-.68.29-1.24.6-1.71.93-2.03,1.42-2.59,2.68-2.74,3.36-2.38,1.49-2.93,3.64-2.92,4.89-.38.11-.92.22-1.46.11-.38-2.26-.62-4.21-.8-5.66-.06-.53-.12-.98-.17-1.34-.25-1.77.67-3.77,2.29-4.96Zm22.72,39.7c-.27-.07-.54.02-.73.22-.18.2-.25.49-.16.75.21.62.36,1.31.4,1.77-.08-.09-.16-.2-.26-.33-.36-.47-.84-1.11-1.69-1.51-.15-.07-.32-.09-.49-.05-.33.08-2.32.54-4.09,1.16.64-.57,1.59-1.18,3.02-1.63.39-.13.61-.55.49-.94-.13-.39-.54-.61-.94-.49-1.77.56-2.96,1.35-3.75,2.12l-1.33.38c.45-.55,1.24-1.23,2.63-1.9.37-.18.53-.63.35-1-.18-.37-.63-.53-1-.35-.45.22-.84.44-1.2.66-.02,0-.03,0-.05.01l-2.26,1.04c.65-1.06,2.14-2.3,5.52-2.1,5.43,1.09,10.38.94,11.45.89,1.34.77,1.28,2.14,1.1,2.97-3.75-.85-6.95-1.64-7-1.65Zm15.44,2.55c-.62.69-2.62.36-4.07.06-.96-.2-1.94-.42-2.91-.63.19-.89.21-1.99-.26-2.98.52.17,1.08.41,1.62.78.13.09.28.13.43.13.24,0,.47-.11.62-.32.24-.34.15-.81-.19-1.04-2.18-1.51-4.54-1.38-4.64-1.38-.05,0-5.53.32-11.38-.87-.02,0-.03,0-.05,0-4.61-.94-8.18-2.53-10.59-4.73-1.24-1.13-2.38-2.64-3.4-4.45.14-.06.28-.14.42-.22l2.26,3.06c.15.2.37.3.6.3.15,0,.31-.05.45-.15.33-.25.4-.72.16-1.05l-2.25-3.04c.36-.31.67-.62.92-.89.97.47,2.05.9,3.23,1.26,1.08.35,2.28.65,3.54.91.17,2.66,1.52,4.91,3.98,6.54.03.03.06.05.09.07.87.56,1.86,1.05,2.96,1.46.01,0,.03,0,.04.01,0,0,0,0,.01,0,1.16.43,2.42.77,3.76,1.02,1.14.21,2.28.35,3.37.42.58.04,1.16.06,1.71.07.11,0,.22,0,.34,0,2.76,0,5.65-.42,8.3-1.12,0,.01,0,.03,0,.04.17.52.48,1.44.75,2.45,0,.06-.01.11,0,.17.02.1.06.19.11.27.39,1.57.62,3.23.07,3.85Zm.51-7.19c2.95-.92,5.44-2.19,6.88-3.57.46.89,1.19,1.17,1.47,1.24.05.01.09,0,.14.02-1.73,1.42-4.71,3.54-7.87,4.34-.18-.62-.38-1.28-.62-2.02Zm11.88-3.66c-.19.11-.55.05-.99-.16-.3-.14-.45-.86-.66-1.85-.21-1-.51-2.34-1.11-3.98.47-.12.92-.24,1.35-.38,1.31,2.66,1.67,5.32,1.73,5.82-.03.13-.12.43-.32.54Zm2.68-.76c-.27.19-.67,0-.9-.16-.12-.88-.55-3.38-1.78-5.95.41-.16.79-.34,1.15-.52.06.12.12.24.17.35,0,0,0,.02.01.02,0,0,0,.02.01.02.28.58.51,1.11.71,1.59,0,.01.01.02.01.04,0,0,0,0,0,0,.32.79.54,1.43.68,1.98,0,0,0,0,0,0h0c.36,1.36.34,2.33-.08,2.62Zm21.87-14.48c-.7,3.14-8.16,12.25-20.49,10.97-.06-.2-.12-.4-.2-.62,7.85-.2,14.15-6.37,17.01-11.47.04-.05.08-.1.11-.16.06-.14.12-.26.19-.38.01-.03.03-.05.04-.08.55-.97,1.34-1.4,2.14-1.15.86.27,1.55,1.36,1.21,2.9Z"/>
</svg>