<svg id="Symbols" xmlns="http://www.w3.org/2000/svg" viewBox="0 0 150 150"><defs><style>.cls-1{fill:#231f20;}</style></defs><title>makaraconch-bold</title><g id="makara-conch_bold"><path class="cls-1" d="M48.76,101.39a3.53,3.53,0,0,1,.14-.56,3.59,3.59,0,0,1,.12-.35l.09-.23a4.29,4.29,0,0,1,1.14-1.63,13.53,13.53,0,0,1-.68-6c0-.12,0-.25,0-.37s0-.09,0-.14,0-.34.07-.51C47.6,90.87,41.19,89,37.3,94H34.5c-2.69-2.83-5.36-3.85-7.52-2.88-2.59,1.16-3.86,4.91-3.39,10l.11,1.14,5.82-6.54.79,2.42c-.61,1.29-2.19,4.28-3.4,5.11l-.67.46.72.39a3.55,3.55,0,0,0,1.69.52c1.2,0,2.06-1,3.31-2.37.53-.6,1.13-1.27,1.88-2a34.89,34.89,0,0,0,4.28,0C41.24,101.53,44.43,102.54,48.76,101.39Z"/><path class="cls-1" d="M122,77.77h0c-.94-2.41-2.41-3.83-4.16-4v0A25.21,25.21,0,0,0,102.7,60.26l-.48-.14C99.37,45.38,92.91,35.66,83,31.18a9,9,0,0,0-8.62,1,11.14,11.14,0,0,0-4.92,8.67c0,3.37.1,9.18.18,13.55l0,1L69.76,59l0,.75,0,2.14h-1l-.08-3.16,0-.7v-.66c-3.06-2.5-7.5-4.65-11.7-3.89-3.47.63-6.32,3.1-8.48,7.35a14.07,14.07,0,0,0-.67,1.75l.42.07h.07l.49.09,2.68.54,1.72.35-.19,1c-.5-.09-1.1-.22-1.73-.35-1-.2-2-.42-2.94-.59l-.27,0-.84-.13c-.47-.07-.77-.1-1-.11a22.16,22.16,0,0,0-3.23,2.24c-1.81,1.41-3.69,2.87-5.69,3.08l-2.27.22,2.15.74a28.26,28.26,0,0,0,8.13,1.53h0c.32-.12.7-.28,1.18-.49h0l.88-.38.3-.14h0c1.26-.57,2.33-1.08,2.33-1.08l.43.9s-1,.51-2.3,1.07a16.35,16.35,0,0,0,1.33,4.2l.09.17c1.53,3.09,3.85,5.21,6.4,5.82l1.3.31-1.18.62c-2.79,1.45-5.09,5.65-5.6,10.2a12.94,12.94,0,0,0,.5,5.59,5.53,5.53,0,0,1,5.13-.13,4.35,4.35,0,0,1,2.58,3.49h1.87a11.71,11.71,0,0,1,2.69-9.23,13.48,13.48,0,0,1,7-4.25,4.37,4.37,0,0,0,.09.5.59.59,0,0,0,0,.13c0,.12.05.24.07.35a12.47,12.47,0,0,0-6.42,3.92,10.89,10.89,0,0,0-2.38,9c.06.4.14.82.24,1.25a6.11,6.11,0,0,1-1,.17c-.08-.3-.13-.58-.18-.85h-3v-.5a3.4,3.4,0,0,0-2-3.09,4.5,4.5,0,0,0-4.64.38A3.58,3.58,0,0,0,50,100.83a4.59,4.59,0,0,0-.18.56l-.53.08-.46.08h-.06c-5,.93-9.58,3.94-13,6.47l2,3.42c7.47-3.59,11.72-1.8,18.76,1.15a76.22,76.22,0,0,0,25.59,6.66c1.63.13,3.22.2,4.75.2a43.2,43.2,0,0,0,8.13-.73,28.24,28.24,0,0,0,10.54-4.25c7.64-5.21,10.55-13.53,12.34-19.73h0c1.73-.16,3.18-1.58,4.11-4h0c2.56,0,4.5-2.79,4.5-6.5S124.56,77.77,122,77.77Zm-6,6.51c0-3.43.88-5.65,1.5-6.36a5.71,5.71,0,0,1,1,2.16,9.14,9.14,0,0,0,0,8.39,5.86,5.86,0,0,1-1,2.17C116.89,89.89,116,87.56,116,84.28Zm6,2.24A5.29,5.29,0,0,1,122,82a4.72,4.72,0,0,1,.5,2.24A4.61,4.61,0,0,1,122,86.52ZM58.85,66.22a1,1,0,1,1,1-1A1,1,0,0,1,58.85,66.22ZM73.08,72a23.92,23.92,0,0,0-1.8,4.12,11.82,11.82,0,0,1-6.54,4.61c-3.53.85-9.1-1.66-12.31-5.51l.69-1.13C55.19,70.69,58,66,65,65.91a15,15,0,0,0,5.38-1,12,12,0,0,0,3.07-1.79C72,65.47,70.16,66.47,65.14,69c-3.34,1.71-4.46,3.76-4.41,5a1.65,1.65,0,0,0,1.05,1.52,2.46,2.46,0,0,0,.91.17c1.42,0,3.31-1,5.28-2.86,3.52-3.29,6.14-4.67,7.91-4.91A25,25,0,0,0,73.08,72Zm5.85-19.4a10,10,0,0,1-1.08-3.21H75.13v-1h2.59a13.49,13.49,0,0,1,0-2.62l-.49-.12-.49-.12-1.57-.4.24-1,1.47.37.49.12.49.13a10.67,10.67,0,0,1,.54-2.09L78,42.48l-.45-.24h0l-1.47-.81.48-.87,1.4.77.44.24.43.24a6.63,6.63,0,0,1,.89-1.39L79.4,40l-.31-.4-1-1.37.79-.61,1,1.27.31.39.3.41a4.22,4.22,0,0,1,1.52-.86l-.14-.48-.13-.49-.33-1.18,1-.27.35,1.25.13.49.14.5a4,4,0,0,1,.91,0l.24-.47.24-.46h0l.43-.82.88.46-.33.63-.23.45-.24.45a7.81,7.81,0,0,1,1.35.59l.3-.42.29-.41.34-.48.82.58-.31.43-.28.41L87,40c.34.23.68.49,1,.76l.39.36c2.15,2,5.67,5.18,4.7,18a24.54,24.54,0,0,0-11.37,3.68C82.08,60,81.14,56.66,78.93,52.63Zm26.43,56.9c-12.89-5.73-13.58-24-13.58-27.74h-1c0,3.84.7,22.28,13.73,28.46h0c-.4.32-.82.62-1.25.92a22.12,22.12,0,0,1-6,2.86c-10.29-5.22-14-17.87-14-27.25h-1c0,9.38,3.61,21.94,13.6,27.64h0c-.54.15-1.1.27-1.66.38a42.78,42.78,0,0,1-11.78.47A72.71,72.71,0,0,1,58,108.91a43.45,43.45,0,0,0-9.56-3.19c.35-.09.69-.17,1-.23a12.07,12.07,0,0,1,8.37,1.39l.25.13.28.06c5,1.12,13.23-3.41,17.79-6.29h0L79.46,99l-1.6-2.89c-1.93-3.44-2.81-5-3.48-8.38A18.6,18.6,0,0,1,74,84.05,20.92,20.92,0,0,1,76.58,74a20.49,20.49,0,0,1,3.29-4.46,14.7,14.7,0,0,1,1.32-1.25,21.12,21.12,0,0,1,20.28-4.19,21.3,21.3,0,0,1,12.78,11.56h0c-1.6,2.14-2.21,5.68-2.21,8.66s.6,6.45,2.18,8.6a59.61,59.61,0,0,1-2.71,7.88c-6.8-2.88-9.43-11.49-9.43-17h-1c0,5.82,2.79,14.86,10,18h0A24.4,24.4,0,0,1,105.36,109.53Z"/></g></svg>