<?xml version="1.0" encoding="UTF-8"?>
<svg id="icons" xmlns="http://www.w3.org/2000/svg" viewBox="0 0 120 120">
  <defs>
    <style>
      .cls-1 {
        fill: #121112;
      }
    </style>
  </defs>
  <path class="cls-1" d="m64.76,33.2c.52,0,1.04-.2,1.42-.59.29-.3.28-.77-.02-1.06-.3-.29-.77-.28-1.06.02-.18.18-.48.19-.67.02-.3-.28-.78-.26-1.06.04-.28.3-.26.78.04,1.06.38.35.86.52,1.34.52Z"/>
  <path class="cls-1" d="m66.1,26.29c0-1-.57-1.75-1.32-1.75s-1.32.75-1.32,1.75.57,1.75,1.32,1.75,1.32-.75,1.32-1.75Z"/>
  <path class="cls-1" d="m81.33,70.45c-.13-.09-.25-.17-.38-.26l-3.1-1.92s0,0,0,0l-2.19-1.36c-.8-.5-1.37-1.31-1.56-2.23-.27-1.29-.86-2.51-1.71-3.51l-.95-1.12c-.02-.5.04-1.95,1.29-3.65.23-.31.47-.63.72-.96.19-.25.38-.51.57-.77.42.22.85.44,1.28.63.1.05.2.1.31.14l.23.1c2.05.9,3.62,1.34,4.84,1.34.75,0,1.37-.17,1.88-.5.25-.16.46-.36.64-.58,3.88-1.12,5.92-12.3,6.52-16.24.79.25,1.99.58,3.07.74,1.4.19,3.36-.18,4.1-1.14.32-.41.39-.92.19-1.38-.04-.08-.08-.16-.13-.23.26.08.52.14.76.14.08,0,.17,0,.25-.02.56-.11.96-.57,1.01-1.16.03-.34-.06-1.41-1.81-2.24.57-.6,1.12-1.24,1.65-1.93,5.22-6.75,3.9-10.5,2.94-13.23-.27-.77-.5-1.43-.57-2.07-.06-.5,0-.94.19-1.38.16-.38-.03-.82-.41-.98-.39-.16-.82.03-.98.41-.23.56-.33,1.14-.31,1.74l-20.51,20.68c-.81-.02-1.71.11-2.28.9-.12.17-.16.38-.13.57-.29-.16-.6-.3-.92-.41l-3.62-1.29s0,0,0,0c0,0,0,0,0,0l-.06-.02c.05-.05.09-.11.13-.16.12.03.24.05.37.05.15,0,.31-.02.46-.08.78-.26,1.4-1.18,1.43-2.13.02-.54-.22-.96-.42-1.3,3.23-.94,6.57-2.28,6.72-2.34.16-.06.29-.18.38-.33l1.8-3.26c.13-.24.12-.53-.03-.76-.15-.23-.41-.36-.69-.35-.02,0-3.01.13-6.54-4.36-1.04-1.33-2.25-2.43-3.58-3.31.39-.8.51-1.52.34-2.14-.15-.56-.53-1.02-1.09-1.32-.75-.39-1.45-.47-2.07-.24-.1.04-.19.1-.29.16-.13-1.67-.54-3.37-1.58-4.47-.72-.76-1.65-1.14-2.75-1.14-1.16,0-2.1.35-2.79,1.05-.91.92-1.3,2.36-1.44,4.2-.53-.43-1.06-.48-1.52-.38-1.01.23-1.8.92-2.12,1.85-.28.81-.17,1.67.3,2.5-1.16.89-2.09,1.98-2.7,3.23-.48,1-1.01,2.8-1.26,3.82l-1.96,4.55c-.09.22-.08.47.04.68.12.21.33.34.57.37l1.55.17c.73,1.62,2.24,3.29,4.02,3.81-.03.74-.02,1.6.78,2h0c.28.14.56.2.85.2.59,0,1.16-.26,1.61-.64-.19.41-.48.77-.88,1.03-.03.02-.05.04-.08.06-.09.05-.18.09-.27.13l-.32.14c-.09,0-.18.02-.27.06l-1.7.76s0,0,0,0c0,0,0,0,0,0l-2,.89-6.51,3.44c.22-2.55.55-7.9-.29-10.83.07-.29.11-.59.06-.9-.11-.7-.21-1.56-.29-2.3-.16-1.59-.65-3.18-1.42-4.61-1.28-2.31-2.05-2.64-2.59-2.67-.4-.02-.77.17-1.02.52,0,0,0,.02-.01.03l1.03-2.34,2.34-.44c.24-.04.44-.2.55-.43l2.41-5.28c.13-.3.06-.65-.18-.87-.24-.22-.6-.26-.88-.09l-2.62,1.52-.86-3.2c-.08-.31-.35-.53-.67-.55-.32,0-.62.16-.74.46l-2.14,5.12c-.09.21-.08.46.04.66l1.4,2.47-1.7,3.85c.1-.64-.08-1.23-.5-1.58-.38-.31-1.05-.46-1.76.04-.45.31-.99.92-1.4,1.61-.72-.15-1.29.11-1.6.51-.29.38-.38.96-.05,1.53-.09.31-.11.64-.06.94.03.16.07.3.11.45-.23.05-.44.14-.61.26-.49.37-.62.98-.31,1.49.34.56,1.35,1.76,2.78,2.47l-4.19,9.48-.8-.33c-.23-.09-.49-.07-.7.07-.21.14-.33.37-.33.62v3.48c0,.28.16.54.41.67.11.06.23.08.34.08.15,0,.31-.05.44-.14l3.08-2.2c.22-.16.34-.42.31-.7-.03-.27-.21-.5-.46-.61l-.89-.37,4.23-9.59c.18.03.35.07.54.08.86.04,1.51.56,2.26,1.15.44.35.9.71,1.42.99-.34,1.79-.7,3.32-1.01,4.68-.62,2.65-1.11,4.75-1.02,6.96.07,1.98.51,3.31,1.37,4.09.3.27.69.48,1.13.65l-1.48,1.18c-.65.44-1.52.49-2.37.13-4.87-2.08-8.92-2.77-10.13-2.94-.2-.4-.45-1.06-.31-1.62.31-1.19-.35-2.51-.72-3.12l.48-1.54c.65-.23,1.21-.67,1.49-1.2.21-.38.25-.78.11-1.12-.22-.55-.81-.78-1.58-.66-.44-.43-1.3-.93-2.71-.6-.23.05-.45.13-.65.22.02-.03.04-.07.06-.1.57-.87.35-1.68-.17-2.02-.37-.25-1.33-.55-2.75,1.22l-4.04-3.3c-.32-.26-.79-.21-1.05.11-.26.32-.21.79.11,1.06l4.17,3.4c-1.42,3.02-.42,8.58,3.59,12.77.03.03.07.05.1.07.03.02.05.05.08.07l12.33,6.86c1.09.74,2.36,1.12,3.64,1.12s2.66-.4,3.81-1.21l4.75-4.32c-.29.8-.61,1.63-.98,2.48-1.1,3.91-6.98,8.9-8.92,10.53-.45.38-.66.56-.79.69-.32.22-1.12.88-1.69,2.37-.31.82-.52,1.65-.61,2.43-.79-.35-2.11-.76-3.94-.61-.41.03-.72.39-.69.81.03.41.41.71.81.69,1.2-.1,2.11.08,2.73.29-.55.4-1.09.82-1.61,1.26-.77-.52-2.61-1.5-4.94-.89-.4.1-.64.51-.54.92.1.4.52.64.92.54,1.5-.39,2.73.1,3.4.48-.43.4-.84.82-1.24,1.25-.75-.65-2.1-1.2-3.87-.33-.37.18-.52.63-.34,1,.18.37.63.53,1,.34,1.17-.57,1.88-.19,2.22.1-.43.51-.85,1.04-1.25,1.59-.91-.81-2.65-1.61-5.03-.78-.39.14-.6.56-.46.96.14.39.56.6.96.46,2.1-.73,3.28.21,3.66.61-.18.27-.35.55-.52.83-1-.29-4.01-.96-6.57.67-.35.22-.45.69-.23,1.04.14.22.39.35.63.35.14,0,.28-.04.4-.12,1.79-1.13,3.95-.83,4.99-.59-.26.48-.5.96-.74,1.45-.9-.32-2.78-.66-5.05.75-.35.22-.46.68-.24,1.03.14.23.39.35.64.35.14,0,.27-.04.4-.11,1.68-1.05,3.01-.85,3.64-.65-.15.36-.29.71-.42,1.07-.92.05-3.09.38-4.26,2.27-.22.35-.11.81.25,1.03.12.08.26.11.39.11.25,0,.5-.13.64-.36.61-.99,1.69-1.35,2.46-1.48-.59,1.96-.96,3.96-1.07,5.95-.1,1.77-.84,3.15-1.85,4.25-.87-1.8-.74-2.59-.75-2.59.12-.37-.07-.78-.43-.92-.36-.15-.78,0-.96.36-.18.37-1.6,3.3-.96,5.43-2.04,1.04-3.96,1.42-4,1.42-.25.04-.46.21-.56.45-.1.23-.08.5.07.71l2.45,3.68c.14.21.38.33.62.33.02,0,.05,0,.07,0l10.09-.99c-.02.12-.02.24.01.37.19.78,1.03.97,3.15.97.68,0,1.48-.02,2.44-.05.58-.02,1.16-.03,1.74-.04,3.26-.06,35.12-2.49,40.11-2.87,0,.03.02.06.03.08-2.11.43-7.05,1.53-8.79,2.83-.59.44-.45.96-.4,1.11.14.37.36.96,5.36.96,2.62,0,6.55-.16,12.47-.59,14.44,0,20.9-8.64,20.9-17.19,0-12.22-11.27-22.94-24.17-23.07ZM45.83,16.67l1.22-.71-1.27,2.78-.95.18.99-2.25Zm-12.72,26.72v-.9l.79.33-.79.57Zm14.32,38.14c.26.46.58,1.04.96,1.8,1.36,2.76,1.64,7.11,1.49,9.21-.09,1.35.42,2.62.99,3.72-.81.38-2.32.86-3.65.16.06-.24.05-.5-.05-.73l-.41-.97c-1.26-2.96-4-9.41-5.59-14.36.15.04.3.07.45.07,1.04,0,2.13-.96,2.42-1.24,0,0,0,0,0,0,.01,0,.02-.02.03-.03,0,0,0,0,0,0,.52-.45.87-1,1.07-1.4.58-.15,1.13-.78,1.32-2.15.62-.61.96-1.35.96-2.11.37.8.55,1.74.76,2.86.1.56.22,1.15.37,1.78l-.9.42c-.32.17-.71.42-.86.9-.18.61.12,1.13.65,2.09Zm4.54,16.97c.05.28-.02.52-.19.75-.29.38-1.16,1.07-3.78,1.39-4.64.56-7.83.31-8.59-.23q-.59-.43-.33-1.12l.1-.28c.51-1.43.9-1.67,2.29-1.41.64.11,2.13.03,4.43-.25.91.68,1.88.94,2.78.94,1.17,0,2.22-.39,2.88-.7.2.38.36.72.4.93Zm6.21-44.57c.06.14.1.28.16.42.31.68.61,1.3.87,1.81.03.05.03.09.03.11,0,.03,0,.08-.05.13-.24.29-.61.77-1.03,1.4,0,0-.04.05-.1.16,0,0,0,0,0,0-.69,1.07-1.63,2.81-2.22,5.02-.06.22-.14.44-.22.66-.09.14-.15.29-.2.45-.77,1.65-2.19,3.02-3.97,3.76-1.19.49-2.17.92-3.08,1.36-.73.35-1.59.78-2.42,1.23-.17.09-.35.19-.52.29l-.2-.07c.05-.17.19-.34.37-.43l1.74-.84c2.99-1.54,6.21-5.64,7.19-7.09,2.15-3.16,3.16-6.2,3.63-8.37Zm-5.79-5.18s-.89.24-2.11.46c-.69.13-1.71.28-2.8.35l6.11-4.84c-.22.66-.43,1.35-.64,2.08,0,0,0,0,0,0-.17.6-.33,1.21-.5,1.85,0,.03-.02.07-.03.1,0,0-.01,0-.02,0Zm5.74-16.23c-.26-.27-.61-.53-1.06-.74-.36-.17-.94-.55-.67-1.18.17-.4.67-.82,1.37-.82.07,0,.14,0,.22.01v1.33c0,.23.01.47.04.7,0,.06.02.13.03.19.02.16.04.33.08.49,0,0,0,.01,0,.02Zm-.35-4.62c.08.12.16.24.25.36v.04c-.2-.02-.39-.02-.58,0,.06-.05.11-.09.17-.15.07-.08.13-.16.16-.25Zm.44-4.23c.27-.95,1.07-1.71,2.31-2.2.93-.35,2.05-.56,3.34-.61,1.4-.05,2.64.04,3.68.28,0,0,0,0,0,0,0,0,0,0,0,0,.63.14,1.2.34,1.67.59,0,0,0,0,0,0,0,0,0,0,0,0,.91.47,1.46,1.13,1.71,1.96-.61-.83-1.59-1.38-2.69-1.39h-5.84s-1.03.03-1.03.03c-.91.02-1.76.39-2.39,1.04-.42.44-.7.97-.84,1.54-.06-.44-.04-.86.07-1.25Zm1.37-4.51c.43,0,.8-.22,1.05-.53.11.47.18.89.22,1.18-.18.05-.36.09-.53.14-.48-.28-.88-.58-1.21-.89.15.06.3.09.47.09Zm-.15-1.35c0-.08.07-.15.15-.15s.15.07.15.15c0,.17-.3.17-.3,0Zm10.3,2.01c-.1.12-.22.23-.33.35-.27-.11-.55-.21-.84-.3,0,0,0,0,0-.01.05-.3.11-.58.17-.85.01-.06.03-.12.04-.18.02-.1.05-.18.07-.27.24.35.63.6,1.09.6.14,0,.27-.04.39-.08-.12.16-.23.32-.37.48-.07.08-.15.17-.23.25Zm.2-2.16c.08,0,.15.07.15.15,0,.17-.3.17-.3,0,0-.08.07-.15.15-.15Zm-2.84,1.85s0,.02,0,.03c-.08-.01-.17-.02-.25-.03.15-.36.28-.73.38-1.12.03,0,.07.01.1.02,0,.03-.01.08-.02.11-.07.31-.14.64-.2.99Zm-2.33-4.27c-.74,0-1.35.6-1.35,1.35s.6,1.35,1.35,1.35c.51,0,.94-.29,1.17-.71,0,.06-.01.11-.02.17h0c-.12.71-.36,1.38-.66,1.99-.22,0-.42-.02-.65-.02-.12,0-.24,0-.36,0-.02-.02-.03-.05-.05-.07-.19-.3-.35-.6-.48-.89-.02-.04-.04-.09-.05-.13-.13-.31-.24-.62-.3-.92-.24-1.05-.06-2.03.49-2.6.33-.35.75-.51,1.18-.44.64.11.92.85.97,1.74-.21-.47-.68-.8-1.22-.8Zm.15,1.35c0,.17-.31.17-.31,0,0-.08.07-.15.15-.15s.15.07.15.15Zm-2.36,2.89c-.08,0-.15.03-.23.04-.04-.26-.1-.59-.18-.96.1.27.22.54.35.8.02.04.03.08.05.12Zm-.3,17.8c.78.3,1.61.47,2.45.47h.22c.2,0,.39-.01.58-.03.11.29.26.56.45.8-.36.04-.71.12-1.04.29-.24.12-.39.37-.4.64-.02.48.1.94.31,1.35-1.59-.06-3.09-.63-3.71-1.71.54-.49.93-1.12,1.13-1.81Zm9.03,6.97c.04.33.1.64.16.95.14.69.18,1.54.13,2.5-.03,0-.07-.02-.1-.03-.03-.17-.08-.37-.13-.61,0,0,0-.02,0-.03-.02-.1-.05-.2-.07-.31,0-.03-.02-.06-.02-.1-.02-.09-.04-.19-.07-.28,0-.04-.02-.08-.03-.12-.02-.1-.05-.2-.08-.31,0-.04-.02-.07-.03-.11-.07-.28-.16-.57-.24-.87,0-.02-.02-.05-.02-.07-.04-.12-.07-.24-.11-.36,0-.01,0-.03-.01-.04,0,0,0,0,.01,0,.21-.05.41-.11.6-.2,0,0,.02,0,.03-.01Zm-1.75,5.63c-.29-.2-.73-.52-1.23-.88.04-.15.06-.3.1-.45.1-.44.2-.88.29-1.33.05-.24.09-.48.14-.72.08-.45.15-.91.22-1.37.02-.15.05-.29.07-.44.07.2.14.41.2.62,0,.02.01.03.02.05.06.2.12.41.17.61,0,.02,0,.03.01.05.23.84.39,1.62.48,2.05,0,0,0,0,0,0,.02.1.04.18.05.24.01.07.02.11.02.11.01.06.15,1-.54,1.47Zm1.33-7.12c-.08.06-.15.1-.24.14-.27.13-.59.16-.9.1,0,0,0,0,0,0,0,0,0,0,0,0,.12-.26.34-.48.58-.6.14-.06.3-.12.48-.13.15-.02.3-.01.44.01.02,0,.03,0,.04.01-.01.02-.02.04-.03.06-.08.15-.21.3-.37.42Zm.38-3.39c-.06.08-.11.14-.18.21-.23.22-.54.34-.85.37.04-.29.18-.57.39-.77.13-.11.25-.19.39-.26.15-.07.31-.11.49-.12-.03.21-.11.4-.23.58,0,0,0,0,0,0Zm-4.22.83c.26.16.46.4.56.68-.26.03-.51,0-.75-.11-.06-.03-.12-.06-.16-.08-.27-.17-.47-.41-.58-.69.32-.04.64.03.92.2Zm.3-3.13c.13.05.26.14.38.25.23.22.36.5.4.8-.32-.03-.62-.16-.85-.38-.23-.22-.37-.5-.41-.79.02,0,.04.01.07.02.14.02.28.05.42.11Zm-1.38,6.59c.26-.02.54.05.77.2.03.02.1.06.13.08.25.18.43.43.51.71-.09,0-.2,0-.3-.01,0,0-.02,0-.03,0-.21-.04-.41-.12-.58-.24-.25-.18-.43-.44-.51-.73Zm1.95,6.89c.53.38.94.66,1.09.77.02.02.04.04.07.07-.42-.02-.89-.04-1.39-.08.08-.25.16-.5.24-.76Zm3.06-14.15c-.18.16-.38.27-.59.33,0,0,0,0,0,0-.09.02-.18.03-.27.03.02-.1.04-.19.08-.3.06-.17.17-.33.32-.48.24-.22.55-.35.86-.37-.01.07-.03.15-.05.22,0,0,0,.01,0,.02-.06.2-.18.39-.35.54Zm-11.47-5.26l.02-.95c.63.44,1.36.67,2.1.67.96,0,1.91-.37,2.62-1.1.29-.3.28-.77-.02-1.06-.3-.29-.77-.28-1.06.02-.8.83-2.15.87-3,.08-.17-.16-.4-.21-.61-.18l.03-2.1-.02-.73c-.01-.51.18-.99.53-1.36.35-.37.83-.57,1.34-.58l6.84-.03c1.03.01,1.87.86,1.87,1.89l.02,2.92c-.29-.18-.68-.16-.93.1-.8.83-2.15.87-3,.08-.3-.28-.78-.26-1.06.04-.28.3-.26.78.04,1.06.7.64,1.59.96,2.48.96s1.79-.34,2.48-.98v1.25c0,.18,0,.35-.02.52,0,.03,0,.05,0,.08-.01.1-.04.2-.05.3-.09.49-.24.95-.48,1.4-.22.44-.52.83-.86,1.19-.09.06-.16.13-.22.22-.29.27-.62.51-.96.71-.02,0-.05,0-.07-.02-.05-.01-.09-.02-.14-.03-.1-.02-.2-.04-.3-.05-.06,0-.13-.01-.19-.01-.08,0-.17,0-.25,0-.07,0-.14,0-.21.01-.06,0-.13.02-.19.04.44-.18.84-.45,1.19-.81.29-.3.28-.77-.02-1.06-.3-.29-.77-.28-1.06.02-.8.83-2.15.86-3,.08-.3-.28-.78-.26-1.06.04-.28.3-.26.78.04,1.06.7.64,1.59.96,2.48.96.37,0,.73-.07,1.09-.18-.2.09-.36.25-.41.47,0,.01,0,.03,0,.04-.01.04-.02.08-.03.12-.15.01-.31.02-.47.02h-.22c-.89,0-1.75-.23-2.52-.65-.08-.09-.19-.14-.31-.18-.22-.14-.45-.3-.67-.49-.02-.02-.04-.05-.07-.07-1.07-.97-1.65-2.3-1.65-3.72Zm-.26,8.96c.08,0,.16-.02.24-.05l.36-.16c.98,1.65,3.16,2.42,5.31,2.42-.09.03-.19.05-.28.09-.24.11-.41.34-.44.6-.02.15,0,.29,0,.43-1.48-.16-4.34-.77-5.87-3.03l.67-.3Zm-1.94,1.1c2.17,3.28,6.35,3.72,7.69,3.78.18.24.38.45.62.63.19.13.41.24.63.33,0,.05,0,.11,0,.16-.73-.26-1.45-.32-1.91.1-.17.15-.3.45-.29.68.01.35.04.78,2.57,2.71-.15.55-.31,1.07-.47,1.57-3.63-.42-8.42-1.52-11.63-4.33.7-2.45,1.44-4.35,2.78-5.63Zm1.31,21.15c.67,1.48,1.83,2.44,3.45,2.86.59.15,1.2.22,1.81.22-.25.13-.47.3-.65.52-.37-.44-.92-.73-1.55-.73-.31,0-.59.07-.85.2-.33-.45-.83-.75-1.42-.81-.05-1.02-.84-1.83-1.85-1.92.18-.57.38-1.1.59-1.58.12.38.26.79.47,1.25Zm9.65,4.89c0,.29-.24.53-.53.53s-.53-.24-.53-.53.24-.53.53-.53.53.24.53.53Zm1.48-1.28c0-.29.24-.53.53-.53s.53.24.53.53-.24.53-.53.53-.53-.24-.53-.53Zm1.8-1.81c-.29,0-.53-.24-.53-.53s.24-.53.53-.53.53.24.53.53-.24.53-.53.53Zm-2-.24c0,.05.01.11.02.16-.57.21-1.02.67-1.21,1.25-.2-.06-.4-.11-.62-.11-.59,0-1.12.26-1.49.66-.23-.25-.52-.43-.84-.54,1.87-.26,3.48-.92,3.95-1.27.07-.05.13-.1.19-.15Zm-4.26,3.33c0,.29-.24.53-.53.53s-.53-.24-.53-.53.24-.53.53-.53.53.24.53.53Zm-8.41-2.64c.04-.09.09-.18.13-.27.1-.1.23-.16.38-.16.29,0,.53.24.53.53s-.24.53-.53.53-.53-.24-.53-.53c0-.03.01-.06.02-.09Zm2.31,1.47c.29,0,.53.24.53.53s-.24.53-.53.53-.53-.24-.53-.53.24-.53.53-.53Zm2.49.64c.29,0,.53.24.53.53s-.24.53-.53.53-.53-.24-.53-.53.24-.53.53-.53Zm-17.85,10.33s0,0,0,0c-.1.2-.26.46-.5.73l.15-.63c.12-.03.24-.07.35-.1Zm-3.27,1.13c-.06-.24-.08-.49-.04-.75.08.03.17.06.27.08-.07.25-.15.48-.23.67Zm1.36.64s.01.02.02.03c-.01,0-.03.01-.04.02,0-.02.01-.04.02-.05Zm2.56-6.84l.72.26c.46.33.73.76.75,1.19.03.54-.34.98-.66,1.25-.29.24-.66.46-1.12.65,0,0,0,0,0,0,0,0,0,0-.01,0-.35.16-.78.3-1.25.42-.46.11-.89.19-1.29.24l-.3.04c-.1.01-.16,0-.19.01,0-.03,0-.08,0-.15.03-.38.27-.95.65-1.54.78-1.26,1.94-2.26,2.72-2.37Zm5.2,4.09c-.34-1.79-.68-3.5-1.99-4.81.37-.19.72-.36,1.05-.53,1.72.94,2.83,4.11,3.73,6.68.07.2.14.38.2.58-.11.07-.21.14-.33.21-.76.47-1.14,1.04-1.13,1.68.02,1,1.04,1.6,1.17,1.67l1.75.93c.36.19.75.28,1.15.3.63.82,1.31,1.56,2.1,2.22,1.61,1.36,3.44,2.05,5.34,2.05.47,0,.95-.04,1.43-.13,2.84-.51,5.54-2.53,7.32-5.41,1.1.19,2.21.35,3.31.46-1.05,2.47-3.85,4.76-7.45,5.98-4.28,1.45-8.47,1.02-11.22-1.16-5.19-4.11-5.88-7.79-6.44-10.74Zm12.81-1.34c.08.04.16.05.24.06l1.24.24c-.55.75-.76,1.65-.83,2.37-1.39-.55-3.03-.91-4.05.4-.65.83-2.01,2.39-3,3.25-.34.29-.84.34-1.24.12l-1.73-.92c-.2-.11-.39-.32-.4-.39,0-.04.1-.18.42-.38.85-.53,1.3-.89,1.81-1.29.33-.26.71-.56,1.32-.96.72-.48,1.3-1.05,1.81-1.55.57-.55,1.06-1.03,1.58-1.26.38-.17,1.31-.18,2.83.31Zm1.1,4.5c1.88.85,4.06,1.51,6.31,1.99-1.54,2.24-3.77,3.84-6.01,4.24-1.96.35-3.88-.2-5.54-1.6-.55-.46-1.04-.98-1.5-1.53.07-.05.15-.1.22-.15,1.12-.97,2.56-2.64,3.2-3.46.48-.62,1.58-.28,3.32.5Zm1.03-1.19c0-.71.14-2.15,1.3-2.7.75-.09,4.45-.5,7.21-.61h3.55c2.92.11,5.05.58,6.18,1.35.13.09.28.13.42.13.24,0,.47-.11.62-.32.24-.34.15-.81-.19-1.04-.98-.67-2.44-1.14-4.37-1.4.34-.85.89-1.4,1.26-1.69,4.03,2.78,6.06,4.76,6.17,6.03.04.53-.24,1.03-1.02,1.78-1.72,1.64-13.4,1.77-21.12-1.53Zm14.67-7.12c-.53.5-1.13,1.29-1.48,2.37-.36-.03-.72-.05-1.1-.06h-2.44c1.13-2.31,2.57-3.18,3.17-3.46l1.85,1.15Zm-4.38-2.71l1.09.67c-1,.67-2.37,1.96-3.38,4.37-2.8.14-6.23.52-6.91.6l-2.72-.54s0,0,0,0c-1.18-.39-2.83-.76-3.93-.26-.77.34-1.38.93-2.02,1.56-.49.48-1,.97-1.6,1.37-.66.43-1.08.77-1.42,1.04-.02.02-.04.04-.07.05-.02-.05-.03-.1-.05-.15-.9-2.57-1.89-5.41-3.59-6.91.54-.24,1.12-.49,1.77-.76,1.6-.67,2.95-1.76,3.92-3.1.31.3.73.49,1.18.54.05,1.07.93,1.93,2.02,1.93.31,0,.59-.07.86-.2.37.5.96.84,1.63.84.62,0,1.17-.29,1.55-.73.37.44.92.73,1.55.73.59,0,1.12-.26,1.49-.66.37.4.9.66,1.49.66.89,0,1.64-.58,1.91-1.38.2.06.4.11.62.11,1.12,0,2.03-.91,2.03-2.03,0-.15-.02-.3-.05-.44.18-.07.35-.16.5-.27.32,1.22,1.08,2.29,2.16,2.95Zm-3.36-12.67c-1.9,2.59-1.56,4.87-1.54,4.99,0,.04.15,1.09-1.54,2.33-.49.36-3.62,1.53-6.03.9-1.17-.3-1.98-.97-2.46-2.03-.95-2.1-.59-2.97-.56-3.03,0,0,0-.02,0-.02.4-.6.74-1.04.95-1.29.26-.3.4-.69.4-1.09,0-.27-.06-.53-.19-.79-.26-.5-.54-1.1-.84-1.74-.4-.9-.72-1.84-1-2.77,4.53,1.73,9.44,1.93,11.51,1.93.31,0,.56,0,.73,0l.08.06s.06.04.1.06c.49.33,1.02.64,1.55.95-.14.19-.29.39-.43.58-.26.34-.51.67-.74.99Zm4.94-1.35l-.24-.11c-.09-.04-.17-.08-.28-.13-.61-.28-1.21-.57-1.79-.88-.78-.41-1.54-.86-2.24-1.33-.01,0-.03-.02-.05-.03l-.14-.1s-.07-.05-.11-.08h0c-.38-.26-.67-.49-.91-.68.49-.46.73-1.06.82-1.61.19.05.35.09.41.11,0,0,0,0,0,0,.56.23,3.18,1.23,4.46,1.56.02,0,.05,0,.07,0,.02,0,.04,0,.07,0,.02,0,.04,0,.05,0,.06,0,.12-.01.18-.03,0,0,.02,0,.03,0,3.5-1.03,5.27,1.48,5.68,2.16-.03,1.06-.27,1.76-.74,2.07-.83.55-2.62.22-5.28-.95Zm7.5-.76c.01-.18.04-.34.04-.54,0,0,0-.01,0-.02,0-.02,0-.03,0-.05-.02-2.59-1.33-5.64-2.6-8l2.32-5.21c.71.07,1.41.11,2.07.11.85,0,1.65-.06,2.42-.17-.8,5.11-2.42,11.48-4.25,13.87Zm7.4-20.77c.87-.07,2.36.31,2.81.85-.07.15-.14.31-.19.47-.25-.51-.91-1.11-2.6-1.3-.06,0-.09-.02-.03-.02Zm3.75,3.19c-.19.44-.56,1-1.15,1.32.18-.14.36-.28.53-.44.12-.11.18-.25.21-.4.32-.31.52-.73.57-1.24.04-.45.18-.79.3-1.01,0,.02-.01.04-.02.06,0,0-.02.18-.06.45,0,0,0,.02,0,.03-.05.3-.16.75-.38,1.22Zm-.94-4.13c.44.07.77.23.91.49.02.04.02.08.03.11-.27-.24-.59-.44-.93-.6Zm-2.94,2.46c.66.07,1.05.22,1.25.34-.07.11-.11.23-.12.37,0,0,0,.02,0,.03-.26-.04-.54.05-.71.28-.25.33-.19.8.15,1.05.16.12.32.22.49.3-.06.04-.12.07-.17.11-.31-.09-.65.01-.83.29-.04.07-.07.14-.09.21-.62.29-1.29.53-2.01.7-.15,0-.3,0-.44.09,0,0,0,0-.01.01-1.31.26-2.76.35-4.35.23l.19-.43c.88-2.07,2.43-3.86,3.59-4.85.86-.74,1.55-1.14,2.17-1.34-.31.27-.52.64-.53,1.09-.01.68.48,1.43,1.43,1.53Zm1.79,4.65c-.42-.06-.87-.15-1.3-.26.15-.07.28-.15.43-.22.85.37,1.65.43,1.69.43.02,0,.03,0,.05,0,.01,0,.02,0,.04,0,.04,0,.09,0,.13-.01.03,0,.04-.02.07-.02.02,0,.05-.01.07-.03.07-.02.13-.04.19-.07,0,0,0,0,.01,0,.59-.21,1-.26,1.2-.26-.38.26-1.44.6-2.57.45Zm3.7-3s.02-.05.02-.08c.2.11.35.21.46.31-.15-.06-.31-.14-.48-.23Zm.91-4.38c-.33.43-.67.83-1.01,1.22.03-.41-.04-.83-.24-1.2-.25-.45-.89-1.21-2.4-1.29-.32-.02-.65-.08-1-.14-1.41-.26-3.17-.57-5.81,1.71-1.29,1.1-3.01,3.09-3.99,5.39l-.38.85c-.46-.07-.91-.13-1.33-.2-.15-.02-.27-.04-.41-.06l18.95-19.1c.1.33.21.65.33.99.94,2.68,2.01,5.72-2.71,11.82Zm-19.53,7.85c.11-.16.37-.33,1.31-.27.52.04,1.12.14,1.82.25.3.05.61.1.93.15l-1.69,3.78c-.14-.22-.27-.44-.39-.64-.27-.41-.64-.95-1.06-1.48-.04-.05-.07-.11-.12-.16-.03-.05-.06-.08-.07-.09-.34-.49-.75-.91-1.21-1.28.18-.04.35-.12.47-.28Zm-.46,2.43s.04.06.06.09c0,0,0,.02,0,.03,0,.01.02.01.02.03,0,0,0,0,0,.01.02.03.04.06.06.08,0,.01.05.08.07.09.38.47.72.97.96,1.34.85,1.35,2.55,4.27,3.3,7.05-1.19-.92-2.89-1.57-5.04-1.14-.18-.6-.44-1.54-.59-2.07-.31-1.11-.33-1.19-.43-1.32-.13-.22-.37-.36-.64-.36-.41,0-.75.34-.75.75,0,.11.04.25.1.36.04.15.15.52.27.98.16.59.29,1.05.4,1.42-.86-.29-1.8-.64-2.42-.88.1-1.24.06-2.34-.12-3.26-.12-.64-.21-1.35-.26-2.09.12-.28.22-.57.25-.9.02-.26-.09-.52-.31-.67,0-.4,0-.81,0-1.26.15-.27.27-.55.33-.85l2.4.85c.94.33,1.73.93,2.3,1.74Zm-4.77-6.28s0-.02,0-.04c0-.23-.03-.45-.09-.67-.07-.25-.26-.44-.5-.52-.22-.07-.45-.1-.68-.11-.03,0-.06,0-.09,0-.02,0-.04,0-.06,0-.19,0-.37.02-.56.06,0-.01.01-.03.02-.04.49-.92.73-1.93.73-2.99h0v-1.06c.85-.66,1.75-.54,2.04-.24.28.27-.12.75-.3.95-.83.89-1.17,1.71-1.03,2.52h0s0,0,0,0c.08.45.29.81.46,1.1.12.19.24.4.23.51,0,.22-.09.42-.18.56Zm1.71-12.29c2.68,3.41,5.15,4.48,6.58,4.8l-1.13,2.05c-.78.3-3.27,1.26-5.76,2.02.06-.08.13-.16.2-.24,1.19-1.26.89-2.43.27-3.04-.68-.67-1.9-.88-3.08-.42.19-.41.34-.79.47-1.16.03.04.05.08.08.11.52.48,1.19.72,1.86.72.72,0,1.44-.28,1.97-.82.29-.3.28-.77-.02-1.06-.3-.29-.77-.28-1.06.02-.47.48-1.25.5-1.74.05-.22-.2-.52-.24-.78-.14.56-2.67-.53-4.24-1.69-5.11.03-.03.05-.06.08-.1.17-.19.33-.38.48-.57.02-.03.05-.06.08-.09,1.19.79,2.26,1.79,3.19,2.98Zm-3.52-6.04c-.04-.06-.07-.12-.11-.17.06.06.1.12.11.17Zm-6.32-5.83c.69,0,1.23.22,1.67.67.83.87,1.25,2.63,1.21,4.98-.05-.01-.1-.03-.15-.04.18-2.22-.67-3.82-2.21-4.09-.92-.15-1.85.17-2.52.89-.31.33-.55.72-.71,1.15.12-1.28.4-2.35.99-2.96.4-.41.96-.6,1.72-.6Zm-6.45,5.71c.15-.43.54-.77,1.03-.88.01,0,.03,0,.04,0,.13,0,.3.13.48.4-.09-.02-.17-.05-.26-.05-.69,0-1.24.53-1.32,1.2-.04-.24-.04-.46.03-.67Zm-.18,3.18c.19.18.41.36.64.53-1.01.65-1.68,1.52-1.98,2.56-.32,1.12-.15,2.38.45,3.65-.24-.05-.49.01-.68.2-.47.48-.61.48-1.1.03-.3-.28-.78-.26-1.06.04-.03.03-.05.08-.07.11l.3-.69s0-.03.01-.05c0-.02.02-.04.03-.07.23-.91.75-2.69,1.18-3.6.5-1.04,1.29-1.96,2.28-2.71Zm-3.89,7.35c-.06.25,0,.53.21.72.48.44.95.67,1.42.71-.37.29-.66.66-.83,1.07-.19.46-.23.98-.09,1.49-.11-.22-.21-.44-.29-.65-.01-.04-.04-.06-.06-.1-.03-.05-.05-.09-.08-.13-.03-.04-.08-.07-.12-.1-.04-.03-.07-.06-.11-.08-.05-.03-.11-.04-.17-.05-.03,0-.06-.03-.09-.03l-.97-.1,1.18-2.74Zm1.48,5.15c.21.17.44.34.74.47.48.22.73.5.87.83-.59-.29-1.15-.75-1.61-1.3Zm3.71,3.56c-.13.06-.31.12-.47.08-.03-.16-.02-.51,0-.76.01-.27.02-.56.01-.85,0-.04,0-.1,0-.16.03.05.07.09.1.13.09.13.18.26.27.39.06.07.11.14.17.21.11.13.22.25.33.37.04.04.08.09.12.13-.08.13-.26.32-.53.45Zm-15.44-21.91l.47,1.77-.96,2.17-.67-1.18,1.15-2.76Zm-1.13,9.11c-.29,1.02.23,2.3.95,3.19.02.03.04.05.05.08-.06-.01-.14-.04-.25-.1-.49-.25-1.15-.54-1.79-.81l1.04-2.36Zm-4.59,5.04c-.19-.17-.93-.89-1.11-1.8.03.07.06.15.1.24.21.53.52,1.27,1.64,1.77l-.04.1c-.18-.07-.38-.16-.59-.31Zm1.31-4.92c0,.08-.04.19-.09.31-.08.19-.19.37-.28.55-.17.3-.39.72-.45,1.18,0,.03-.02.07-.01.1-.03.49.17,1.01.82,1.5l-.06.13c-.56-.24-.68-.56-.84-.96-.09-.22-.2-.47-.37-.72-.04-.36.62-1.58,1.28-2.1Zm-1.39,6.59s.04.01.06.02h0s-.04,0-.06-.02Zm1.51.45l.18-.41c.1-.11.18-.24.21-.39,0-.02,0-.05,0-.07l.35-.78c.18-.1.33-.27.38-.49.02-.12.01-.23-.01-.33l.41-.93c.62.26,1.26.54,1.72.77,1.03.52,1.78.21,2.15-.25.44-.56.4-1.41-.11-2.02-.41-.5-.68-1.14-.7-1.57.23.24.61.72,1.13,1.66.68,1.25,1.11,2.65,1.25,4.05.09.78.19,1.65.3,2.37.02.15.01.29-.04.39,0,.01,0,.03,0,.04-.26.59-1.51.83-2.49.46,0,0,0,0,0,0,0,0,0,0,0,0-.56-.2-1.06-.6-1.59-1.02-.83-.66-1.77-1.4-3.1-1.47Zm3.93,18.26c-.53-.49-.83-1.51-.88-3.04-.08-2.01.36-3.92.98-6.56.31-1.32.66-2.8.99-4.54.84.13,1.73.02,2.42-.34.63,3.87-.13,10.49-.14,10.56-.03.28.09.55.32.71.23.16.53.17.77.04l5.55-2.94-8.48,6.73c-.83-.14-1.29-.39-1.54-.62Zm-19.84-8.92c.04-.06.08-.12.12-.17-.53,1.09-.62,1.94-.32,2.61.12.27.41.45.69.44.12,0,.23-.04.34-.09-.08.27-.13.53-.16.75-.05.41.24.79.65.83.03,0,.06,0,.09,0,.12,0,.23-.04.33-.09.09.2.25.36.47.42.07.02.14.03.21.03.32,0,.62-.21.72-.54.24-.83.54-1.48.87-1.95l-.61,1.93c-.07.22-.03.47.1.66.24.34.89,1.49.7,2.21-.29,1.13.18,2.24.48,2.78,0,0,0,.01,0,.02-.03.07-.06.14-.11.23,0,0-.01.02-.01.03-.04.07-.09.15-.14.24-.02.03-.04.06-.06.08-.05.07-.11.13-.17.2-.03.03-.05.06-.08.09-.09.09-.19.18-.31.26-.14.09-.26.16-.37.21-.03.01-.05.02-.08.03-.09.04-.17.07-.24.08,0,0-.02,0-.02,0-.07.02-.13.02-.17.02-3.48-3.79-4.42-9.06-2.92-11.32Zm21.03,18.28c-1.69,1.17-3.97,1.19-5.73-.01l-10.77-5.99s.08-.04.12-.07c.17-.12.32-.25.46-.38.05-.05.09-.1.14-.15.08-.08.16-.17.22-.25.05-.06.09-.12.13-.18.05-.08.11-.15.15-.23.04-.06.07-.11.1-.17.04-.07.08-.14.11-.21.01-.02.02-.05.03-.07,1.4.22,5.15.94,9.51,2.8.57.24,1.15.36,1.71.36.76,0,1.49-.22,2.14-.66l2.48-1.96c.34.03.69.06,1.07.06.19,0,.39,0,.59-.01,1.28-.05,2.48-.24,3.27-.38.56-.1,1.04-.2,1.41-.29-.16.57-.33,1.16-.51,1.77l-6.63,6.04Zm-5.29,13.47c.49-1.27,1.12-1.66,1.13-1.67.1-.05.15-.08.22-.18.09-.09.34-.3.7-.61,2.23-1.89,8.17-6.92,9.36-11.18,1.44-3.35,2.24-6.36,2.95-9.01.06-.22.11-.42.17-.63.97.77,2.05,1.4,3.17,1.93-.01.02-.02.04-.04.07-.02.04-.03.08-.04.13-.01.05-.03.1-.03.15,0,.02,0,.03,0,.05,0,.05-.06,5.26-3.79,10.74-.86,1.27-3.93,5.22-6.62,6.59l-1.72.83c-.7.34-1.15.99-1.22,1.73-.93.31-1.85,1.07-2.58,1.96l-.2-.32c-.13-.21-.34-.34-.58-.36-.23-.01-.47.08-.63.26-.1.12-1.02,1.23-.67,2.32.11.49.11.98.05,1.25-.24-.53-.35-2.13.39-4.07Zm-18.37,28.43c.13.32.31.67.5,1.05-.19.15-.39.28-.58.41-.06-.44-.02-.95.08-1.46Zm-4.09,4.91c2.57-.7,8.74-3.02,9.07-9.09.41-7.6,4.98-15.58,11.44-20.17.07.29.15.55.27.78.31.57.74.77,1.04.83.03,0,.06,0,.09,0-.05.45-.01.89.12,1.32,0,.01,0,.03,0,.04,1.4,5.16,4.8,13.15,6.25,16.56l.24.58c-2.31.28-3.51.32-3.87.25-2.11-.38-3.21.29-3.97,2.38l-.1.26c-.38,1.01-.56,1.86.86,2.87,0,0,.02,0,.02.01-1.77,1.38-3.19,2.21-4.98,3.11-1.61-1.75-3.57-5.35-3.6-5.39-.14-.26-.42-.42-.73-.39-.3.03-.55.23-.64.52-1.09,3.44-.29,5.66.55,6.9l-10.48,1.03-1.6-2.4Zm13.77,1.08c-.52-.53-1.49-1.88-1.2-4.33.68,1.13,1.63,2.59,2.55,3.68-.19.09-.38.18-.59.28l-.76.37Zm53.69,3.14c-5.88.43-12.3.69-15.16.54,2.27-.92,6.14-1.75,7.75-2.05.23-.04.42-.19.53-.39.11-.21.11-.45.01-.66,0-.02-.2-.44-.44-1.16,0,0,0-.02,0-.03,0-.12-.06-.23-.12-.33-1.04-3.28-2.6-11.19,4.26-16.38.33-.25.39-.72.14-1.05-.25-.33-.72-.4-1.05-.14-4.04,3.06-6.04,7.45-5.78,12.7.09,1.79.42,3.37.77,4.59-5.87.45-36.57,2.78-39.67,2.84-.58.01-1.18.03-1.76.04-1.04.03-2.32.07-3.23.04.08-.04.17-.08.26-.13l1.21-.59c.52-.25,1.01-.49,1.47-.72,0,0,.01,0,.02,0,2.31-1.14,4.07-2.14,6.47-4.11.88.16,1.92.23,2.98.23,2.01,0,4.06-.21,4.98-.33,2.42-.29,4.04-.96,4.8-1.98.42-.56.58-1.21.47-1.89-.09-.54-.42-1.16-.81-1.87-.6-1.1-1.35-2.48-1.26-3.75.16-2.34-.14-6.93-1.64-9.97-.39-.79-.73-1.4-.99-1.87-.19-.34-.39-.7-.47-.9,0,0,.02-.01.03-.02l.64-.3c.8,2.49,2.39,5.37,6.21,8.4,1.94,1.54,4.48,2.33,7.26,2.33,1.73,0,3.55-.31,5.38-.93,4.19-1.42,7.46-4.23,8.54-7.27,4.83.32,9.06-.18,10.41-1.46.79-.76,1.59-1.7,1.48-2.99-.13-1.52-1.5-3.21-4.6-5.55,11.11,1.27,20.38,10.74,20.38,21.43s-9.75,15.69-19.46,15.7Z"/>
  <path class="cls-1" d="m34.14,93.43c.1,0,.21-.02.31-.07,1.81-.81,5.01-3.48,4.17-7.74-.08-.41-.46-.67-.88-.59-.41.08-.67.47-.59.88.82,4.14-3.15,6-3.32,6.08-.38.17-.55.61-.38.99.12.28.4.44.68.44Z"/>
</svg>