<?xml version="1.0" encoding="UTF-8"?>
<svg id="icons" xmlns="http://www.w3.org/2000/svg" viewBox="0 0 120 120">
  <path d="m102.68,48.51c-.86-.69-2.12-.55-2.81.31-2.21,2.76-3.36,9.12-.55,11.44,2.29,1.89,5.4.56,9.25-3.95,5.7-6.68,5.4-14.04,2.17-17.85-2.29-2.7-6.75-4.38-12.38-.98-10.31,6.22-10.74,20.1-6.58,31.1,2,5.3,2.04,10.17.1,12.12-1.3,1.3-3.48,1.17-5.49.64.13-.84.19-1.68.15-2.52-.1-2.31-.39-7.05-1.25-16.5-1.48-16.26-9.3-25.61-22.24-36.21-.15-.14-3.71-3.4-3.93-9.46-.24-6.84-5.49-10.21-15.57-9.98-7.04.15-17.93,9.44-17.93,15.28,0,2.92,1.46,4.7,3.1,5.7-.81,1.6-.75,3.58.27,5.14l.6.92s.01.02.02.04l4,6.16c.79,1.23,2.01,2.05,3.34,2.32-1.63,2.04-3.45,4.91-5.06,8.83-.41-.17-.55-.29-.57-.31-.62-.61.07-2.47.68-4.1.81-2.17,1.73-4.64.77-6.84-.67-1.55-1.67-1.94-2.39-2-.62-.05-1.14.12-1.58.41-.02-.27-.09-.54-.21-.79-.1-.2-1.04-1.96-2.97-2.57-.84-.27-2.19-.41-3.78.44-3.21,1.69-9.64,9.65-7.51,17.41,1.35,4.92,8.98,9.67,12.95,11.86-1.91,5.31-3.66,9.59-4.56,11.73-2.15-.27-5.96-.18-10.52,2.39-2.54,1.44-3.12,3.09-3.15,4.23-.04,1.31.61,2.56,1.83,3.61.28,1.97,1.67,3.58,3.96,4.5,1.4.56,3.13.85,4.92.85,1.15,0,2.31-.13,3.43-.37-1.99,1.13-3.55,3.38-4.36,5.24-.66,1.51-1.26,3.65-.35,5.29.3.54,1.04,1.86,4.97,1.86.29,0,.61-.01.94-.03-.04.21-.07.43-.08.65-.02,1.89,1.52,3.1,3.03,4.03,2.23,1.38,4.25,2.09,6.29,2.09,3.12,0,6.27-1.65,10.24-5.1,3.24-2.81,4.94-5.5,5.06-7.98.04-.73-.07-1.34-.23-1.84,1.04-1.58,3-4.84,4.32-8.61,2.96,3.91,7.08,7.81,13.49,7.81,3.93,0,8.73-1.47,14.64-5.31,1.23-.79,2.29-1.82,3.15-3.06.31-.45.59-.92.84-1.4,1.44.4,2.71.57,3.82.57,2.8,0,4.61-1.07,5.74-2.2,3.12-3.14,3.43-9.41.8-16.36-3.57-9.44-3.43-21.23,4.91-26.26,3-1.81,5.65-1.76,7.27.15,2.09,2.46,2.04,7.74-2.16,12.67-2.1,2.47-3.28,3.12-3.73,3.29-.36-1.01-.03-4.15,1.19-5.69.69-.86.55-2.12-.31-2.81ZM14.18,82.19c5.27-2.97,8.91-1.76,9.04-1.71.99.38,2.11-.09,2.54-1.07.03-.06,2.39-5.46,5.12-13.01,1.34.63,2.65,1.18,3.9,1.65-2.29,5.27-6.87,15.28-9.07,17.95-.95,1.15-3.35,1.85-5.72,1.9.29-.06.57-.12.85-.18,1.08-.24,1.75-1.31,1.51-2.39-.24-1.08-1.32-1.75-2.39-1.51-1.58.36-4.53,1.02-6.04.03-.54-.35-.77-.65-.84-.78.07-.12.33-.44,1.1-.88Zm14.61,6.36c.47-.57,1-1.36,1.57-2.3v4.39c-1.35-.1-3.09-.13-4.68.11,1.25-.54,2.35-1.26,3.12-2.2Zm-6.77,11.28c.17-1.45,2.05-4.65,3.53-5.01,2.08-.5,5.39-.15,6.49.03.58.09,1.17-.07,1.62-.45s.71-.94.71-1.52v-14.24c1.77-3.69,3.4-7.38,4.25-9.36,1.52.39,2.87.6,3.96.6.24,0,.5-.02.75-.05-1.8,1.55-3.06,3.46-3.7,5.7-1.66,5.9-1.64,10.01-1.62,13.01.02,4.11.03,5.5-3.97,7.85l-1.55.91c-1.21.7-2.26,1.32-3.19,1.89-2.88.58-6.01.85-7.26.65Zm59.01-15.56c-.56.81-1.24,1.47-2.04,1.98-14.82,9.62-20.4,2.16-24.73-4.34.13-1.22.15-2.45,0-3.64-.15-1.1-1.17-1.86-2.25-1.71-1.09.15-1.86,1.16-1.71,2.25.9,6.66-5.45,15.5-5.51,15.59-.57.78-.5,1.85.17,2.55,0,0,0,.36,0,.44-.03.61-.45,2.34-3.69,5.15-6.24,5.42-8.62,4.6-11.81,2.64-.44-.27-.73-.48-.91-.63.89-.84,3.46-2.33,5.95-3.79l1.56-.91c5.99-3.52,5.98-6.79,5.95-11.32-.02-2.92-.04-6.55,1.47-11.9.73-2.59,2.71-4.52,5.87-5.74,5.49-2.11,13.77-1.43,18.47,1.52.93.59,2.17.31,2.76-.63.59-.94.31-2.17-.63-2.76-4.62-2.9-11.53-4-17.55-3.04,6.98-4.3,14.38-10.69,14.73-10.99.83-.72.92-1.99.2-2.82-.72-.83-1.99-.92-2.82-.2-.09.08-9.33,8.06-16.52,11.96-1.01.54-1.85.94-2.58,1.23-1.5.61-2.37.73-2.83.73-2.44,0-7.11-1.58-11.91-4.03,0,0,0,0,0,0-6.62-3.39-11.74-7.58-12.46-10.19-1.51-5.49,3.61-11.81,5.52-12.81.05-.02.1-.05.15-.08-1.1,1.51-2.16,3.51-1.68,5.2.18.64.72,1.78,2.36,2.24,1.54.43,2.77-.12,3.73-.98,0,.01,0,.02-.01.04-.98,2.64-2.21,5.93.25,8.34.82.82,2.09,1.39,4.13,1.86,0,0,0,0,0,0,0,0,0,0,0,0,2.63.58,6.85.89,9.52.89,1.16,0,2.03-.06,2.35-.17.5-.18.65-.34,1.75-1.52,11.46-12.25,14.52-11.56,15.02-11.3.98.51,2.19.14,2.7-.84.51-.98.14-2.19-.84-2.7-3.98-2.1-9.9,1.53-19.8,12.1-.15.16-.28.3-.4.42-1.32.02-4.35-.05-7.1-.4,3.42-7.95,7.66-10.59,7.69-10.61.84-.48,1.21-1.49.89-2.4-.32-.91-1.24-1.46-2.2-1.31l-4.2.67c-.39.08-.81-.15-1.08-.57l-.21-.33c2.71-1.92,2.95-4.73,2.61-6.18-.26-1.08-1.34-1.74-2.41-1.48-1.07.26-1.74,1.33-1.48,2.41.01.05.22,1.01-.9,1.89l-.94-1.45,1.15-1.8c.59-.93.32-2.17-.61-2.76-.13-.08-.27-.15-.42-.2.34-.52.44-1.17.22-1.77-.13-.36-.36-.66-.64-.89.25.03.51.07.76.07,1.37,0,2.61-.44,3.57-1.31,1.42-1.27,2.06-3.34,1.63-5.25-.24-1.08-1.32-1.75-2.39-1.51-1.08.24-1.75,1.31-1.51,2.39.12.51-.05,1.08-.39,1.4-.54.48-1.47.26-1.99.09-1.05-.36-2.18.2-2.54,1.24-.25.73-.05,1.49.44,2.02-.65-.38-1.28-1.08-1.28-2.36,0-3.1,8.6-11.16,14.01-11.28,10-.21,11.38,3.16,11.49,6.12.29,7.84,5.08,12.13,5.33,12.35,12.48,10.22,19.5,18.59,20.86,33.53.85,9.37,1.14,14.04,1.23,16.3.03.84-.06,1.7-.27,2.55-.03.13-.07.28-.13.45,0,0,0,0,0,.01,0,.01,0,.02,0,.04,0,.02,0,.03-.01.04-.25.78-.62,1.52-1.09,2.2Z"/>
  <path d="m41.72,14.88c-.95.5-3.01,2.14-1.57,6.57.34,1.05,1.47,1.63,2.52,1.29,1.05-.34,1.63-1.47,1.29-2.52-.33-1.02-.31-1.56-.28-1.78.45.03,1.55.5,2.53,1.78.24.31.38.55.47.72-.06.01-.12.03-.17.03-1.1.08-1.93,1.04-1.85,2.14.08,1.05.95,1.86,1.99,1.86.05,0,.1,0,.14,0,1.28-.09,3.02-.75,3.72-2.3.64-1.42.26-3.06-1.12-4.87-2.19-2.86-5.41-4.08-7.67-2.9Z"/>
</svg>