<?xml version="1.0" encoding="UTF-8"?>
<svg id="icons" xmlns="http://www.w3.org/2000/svg" viewBox="0 0 120 120">
  <path d="m61.57,32.01s.1.03.16.03c.43,0,.79-.62.79-1.39s-.36-1.4-.79-1.4-.78.62-.78,1.4c0,.67.27,1.24.62,1.36Z"/>
  <path d="m89.78,96.47c-1.51-1.31-3.43-2.77-5.91-4.46l-6.11-3.82c-1.71-1.06-2.97-2.76-3.57-4.78-.39-1.29-.91-2.41-1.55-3.35,2.08-.6,4.15-1.34,5.9-2.13,5.81-2.64,5.75-8.86,5.7-14.35-.09-8.59-3.05-12.14-3.36-12.48,0,0,0,0,0,0,0,0,0,0,0,0,0,0,0,0,0,0,0,0-.01-.01-.02-.02,0,0,0,0,0,0-.93-1.37-2.32-2.43-3.91-3.02-.01,0-.02,0-.03-.01-.02,0-.04-.02-.07-.03l-1.98-.7c.07,0,.13.02.2.02.43,0,.85-.08,1.26-.24.84-.34,1.5-1.02,1.88-1.9.45-1.07.43-2.35-.06-3.52-.33-.76-.83-1.42-1.44-1.9,1.87-4.96,3.67-12.61,2.28-13.7-.26-.21-.71-.32-1.17,0-.42.3-.92.79-1.4,1.32,1.82-9.72,1.3-10.03.75-10.35-.26-.15-.66-.2-1.03.12-.63.52-1.44,1.62-2.14,2.67.19-5.56-.52-5.92-.89-6.1-.35-.17-.76-.11-1.08.17-.92.81-2.08,3.33-2.79,5.02-3.61-6.34-6.15-9.51-7.58-9.48-1.41-.06-3.97,3.12-7.61,9.48-.71-1.69-1.86-4.21-2.78-5.02-.32-.28-.73-.35-1.08-.17-.37.18-1.08.54-.89,6.09-.7-1.05-1.51-2.14-2.12-2.67-.38-.32-.78-.27-1.04-.12-.55.32-1.07.64.76,10.36-.56-.62-1.03-1.06-1.4-1.33-.37-.26-.83-.24-1.15.06-1.4,1.3.57,11.5,3.62,16.89-.26.33-.49.69-.66,1.09-.48,1.16-.5,2.43-.06,3.5.37.89,1.04,1.57,1.88,1.91.34.14.69.2,1.05.22-4.62,3.21-7.05,13.21-7.17,13.68-.23.93-.54,2.02-.87,3.17-.63,2.17-1.34,4.63-1.69,6.83-.1,1.36.31,2.46,1.21,3.27,1.12,1,2.96,1.5,5.51,1.5,1.31,0,2.81-.14,4.49-.4l-2.18,5.39c-.17.4-.27.8-.39,1.24-.43,1.56-1.52,2.77-2.98,3.33-4.83,1.85-13.47,5.3-16.99,7.6-5.08,3.33-5.47,6.77-5.25,8.52.25,1.99,1.53,3.7,3.18,4.26,1.77.61,6.43,1.67,12.27,1.67,2.75,0,5.76-.24,8.85-.87.01,0,.02,0,.04,0,.83-.17,1.59-.35,2.31-.55,1.21-.32,2.39-.7,3.54-1.13,0,0,.02,0,.03,0,1.23-.47,2.43-1,3.58-1.59,0,0,1.14-.58,2.8-1.44,3.87,1.71,8.79,2.95,13.99,3.55.01,0,.02,0,.04,0,0,0,0,0,.01,0,1.44.16,2.89.29,4.35.35.79.03,1.6.05,2.42.05,4.38,0,8.91-.53,10.5-2.06.99-.96,2-2.15,1.96-3.71-.04-1.71-1.27-3.53-3.99-5.91Zm-12.81-7.01l1.9,1.19c-1.23.72-3.1,1.03-5.14.8-1.58-.18-3.43-.72-5.08-1.7.46-.95.85-2.05,1.16-3.32,1.34-.51,2.48-1.07,3.3-1.6.79,1.93,2.13,3.55,3.86,4.63Zm-22.37-2.54c.51.24,1.04.45,1.61.62-.35.32-.79.69-1.3,1.09-.2-.55-.31-1.12-.31-1.71Zm-3.08-22.53c.07.44.15.89.24,1.36.2,1.08.44,2.22.71,3.52.13.61.27,1.27.41,1.97-.45-.02-.9-.06-1.35-.11-.53-.06-1.07-.11-1.67-.14l1.65-6.59Zm4.49,5.68c-.51-1.69-1.04-3.55-.89-5.61.85.69,1.89,1.05,2.93,1.05,1.25,0,2.5-.49,3.42-1.46.29-.3.28-.77-.02-1.06-.3-.29-.77-.28-1.06.02-1.22,1.27-3.24,1.33-4.5.15-.15-.14-.34-.2-.53-.2.12-.49.27-.98.48-1.49,1.06-2.5-.55-4.28-1.97-5.84-1.34-1.48-2.58-2.88-2.37-4.96.27-.14.55-.26.83-.33.06-.02.14-.05.21-.09l.11-.05c2.83,3.5,6.35,5.36,10.22,5.36h.1c4.41-.03,9.17-2.59,12.28-6.54l.91.32c.3.41.45.78.41,1.13-.08.88-1.22,1.82-2.32,2.72-1.83,1.5-4.33,3.55-2.16,6.38.97,1.27,1.37,2.4,1.29,3.69-.04-.09-.09-.18-.17-.26-.3-.29-.77-.28-1.06.02-1.21,1.26-3.23,1.33-4.49.15-.3-.28-.78-.27-1.06.04-.28.3-.27.78.04,1.06.89.83,2.04,1.25,3.19,1.25,1.25,0,2.49-.49,3.42-1.45.03-.03.04-.06.06-.09-.36,1.93-1.67,4.27-3.68,7.83-.72,1.28-1.52,2.7-2.38,4.29-.39.07-.77.13-1.16.17.39-.77.68-1.82.44-3.08,1.93-1.37,2.04-2.45,1.78-3.11-.27-.7-1.15-1.46-3.81-1.14-.79.1-1.49.27-2.08.45.25-.75.39-1.58.13-2.17-.17-.4-.51-.68-.93-.79-.45-.11-1.28-.33-3.5,4.16-.41.08-1.1.21-1.83.34-.08-.28-.16-.55-.24-.84Zm17.73-21.59c-2.83,3.38-6.97,5.54-10.79,5.57h-.08c-3.28,0-6.3-1.56-8.79-4.48l.99-.43c.06-.03.11-.06.18-.09,1.73,1.69,4.16,2.62,6.97,2.62.11,0,.22,0,.33,0,3.55-.09,7.26-1.66,9.29-3.87l1.92.68Zm-4.17-1.53s.02,0,.03.01c0,0,0,0,0,0,.17.08.34.16.54.23l.13.05c-1.84,1.68-4.87,2.84-7.78,2.92-1.75.04-4.11-.29-5.97-1.96.65-.53,1.21-1.23,1.45-2.21.62.17,1.27.27,1.94.27h3.68c1.44,0,2.83-.43,4.02-1.22.44.8,1.11,1.46,1.95,1.91Zm-2.16-3.62s0,0,0,0c-1.06.92-2.41,1.43-3.81,1.43h-3.68c-.77,0-1.52-.15-2.22-.45-.03-.01-.06-.03-.09-.04-.83-.35-1.58-.91-2.16-1.62-.86-1.05-1.33-2.36-1.33-3.7v-3.53c.9.83,2.05,1.24,3.2,1.24,1.24,0,2.48-.48,3.4-1.43.29-.3.28-.77-.02-1.06-.3-.29-.77-.28-1.06.02-1.21,1.26-3.25,1.31-4.53.11-.28-.26-.71-.25-.99,0v-6.42c0-.55.45-.99,1-.99h13.3c.55,0,1,.44,1,.99v11.07c0,1.68-.73,3.27-2,4.37Zm-12.93.48c.59.67,1.31,1.22,2.09,1.62-.12.82-.58,1.39-1.6,2.05-.03.02-.05.04-.08.06-.13.08-.27.15-.42.22l-.97.42c.31-.37.58-.79.78-1.26.43-1.03.49-2.14.2-3.12Zm8.64,36.3c-1.11-.2-4.03-.81-5.04-1.49-.19-.13-.34-.24-.47-.33.76,0,2.06.15,3.8.52.79.16,1.41.29,1.7-.31.28-.57-.18-.97-.52-1.26-.2-.17-.46-.39-.7-.66.64.26,1.49.68,2.29,1.13,0,0,.02,0,.03,0,.1.05.21.08.32.09,0,0,.01,0,.02,0,.5,0,.99-.02,1.47-.06.78.83.91,1.63.9,2.05-1.43.22-2.74.33-3.81.3Zm-5.29-7.97c.51-.1.87-.17.91-.18.23-.04.43-.2.53-.41.58-1.19,1.34-2.54,1.85-3.25-.11.55-.44,1.39-.84,2.12-.16.3-.11.67.13.9.24.24.62.28.91.11.01,0,1.35-.79,3.32-1.03,1.61-.19,2.17.11,2.23.18,0,.09-.18.6-1.27,1.37-.56.4-2.55,1.26-5.29,2.14-.48.16-1.03.33-1.63.51-.49-.39-1.38-1.31-.86-2.46Zm6.55,3.97c-.69-.37-1.52-.78-2.26-1.04,1.14-.4,2.16-.8,2.95-1.15.04,1-.37,1.76-.69,2.19Zm-4.53-.29c0,.18.05.39.14.6.11.24.24.46.38.66-1.2-.21-2.07-.29-2.72-.29-.05-.06-.12-.15-.21-.28.89-.24,1.7-.48,2.42-.7Zm-5.24-2.04c-.02-.41.12-.79.4-1.15.37-.05.77-.12,1.19-.19-.14,1.04.28,1.95.85,2.64-.52.14-1.07.28-1.64.41-.3-.35-.76-.99-.79-1.71Zm1.29,3.13c.05.08.09.14.14.21-.21.15-.29.32-.34.45-.37.88.53,1.62,1.55,2.3,1.47.98,5.25,1.65,5.67,1.73.04,0,.07,0,.11.01.14,0,.29,0,.44,0,1.2,0,2.63-.14,4.19-.4-.19.17-.39.33-.62.48-.77.32-9.43,3.75-12.24-1.65l-.05-.09c-.58-1.11-1.08-2.09-1.2-2.52.81-.16,1.6-.33,2.36-.52Zm-2.49,3.73l.05.09c1.56,3,4.38,3.86,7.1,3.86,3.52,0,6.88-1.44,7.12-1.54.04-.02.07-.04.11-.06,1.21-.79,1.98-1.79,2.31-2.27.33-.07.66-.16,1-.25.61.78,1.12,1.75,1.51,2.89-2.1,1.52-8.68,4.07-14.4,3.11-3.07-.52-5.3-1.99-6.67-4.35l1.16-2.88c.2.41.43.86.71,1.4Zm4.56,7.31c.92.15,1.87.22,2.83.22,1.22,0,2.45-.12,3.65-.31.64.92,1.4,1.69,2.25,2.34-1.58,2.48-3.84,3.59-6.46,3.02-1.81-.39-3.56-1.62-4.62-3.23,1.11-.83,1.94-1.62,2.36-2.04Zm8.1-.4c.71-.16,1.39-.34,2.05-.54-.21.67-.44,1.29-.7,1.86-.49-.39-.94-.83-1.34-1.32Zm11.87-11.01c-1.97.89-4.35,1.72-6.71,2.35-.58.16-1.17.31-1.74.43-.04,0-.07.02-.11.03-.33.07-.64.13-.97.19-.03-.54-.2-1.27-.69-2.03.8-.16,1.61-.38,2.45-.67,0,0,.01,0,.02,0,.16,0,.31-.06.44-.16.43-.15.86-.32,1.28-.49,4.67-1.9,7.05-5.49,7.01-10.47,1.63-1.02,3.18-.51,3.85-.19-.01,4.76-.49,9.04-4.83,11.01Zm-3.74-6.34c.05-.1.1-.2.1-.21.05-.09.1-.18.13-.25.07-.12.1-.2.1-.2,0-.01,0-.02,0-.04,1.23-2.6,2.1-4.82,2.61-6.64.02.1.04.2.05.31.92,5.5-.85,9.31-5.24,11.35.57-1.05,1.31-2.49,2.25-4.33Zm5.44-18.3s.01,0,.02.01c0,0,0,.02.02.03,0,0,0,.01.01.02,0,0,0,0,0,0,.05.06.08.12.13.19.03.04.07.07.11.1.68.89,2.75,4.18,2.83,11.32,0,.11,0,.22,0,.34-.95-.32-2.39-.54-3.93.15-.04-.37-.09-.75-.15-1.13-.12-.72-.56-3.15-1.16-4.2,0,0,0,0,0,0l-.02-.03s0,0,0,0l-.13-.22s-.04-.08-.06-.11c-.03-.06-.06-.11-.11-.19h0s-.02-.05-.04-.08c-.04-.08-.09-.15-.15-.21h-.01c-.29-.3-.76-.3-1.06,0-.24.24-.28.6-.13.88.01.02.02.04.04.07,0,.02.02.04.03.06,0,.02.08.13.09.15,0,0,.06.11.06.11.03.06.07.12.11.19v.03c.1.77.01,3.32-3.02,9.68-.04.07-.08.15-.12.23,0,0,0,.01-.01.02,0,0,0,.02-.01.02,0,.02-.02.03-.02.05,0,0,0,0,0,0,0,0,0,.01-.01.02-.02.04-.04.08-.07.13,0,0-.05.09-.05.09-1.94,3.81-2.74,5.25-3.07,5.8-.18.06-.36.12-.54.17.61-1.1,1.18-2.12,1.71-3.05,3.67-6.51,5.52-9.78,2.37-13.88-1.17-1.52-.31-2.48,1.92-4.31,1.34-1.1,2.72-2.23,2.87-3.74,0-.1,0-.19,0-.29.62.44,1.16.98,1.58,1.6Zm-7.8-5.7s-.02,0-.02,0l-1.15-.41c-.15-.06-.29-.12-.4-.18-.02-.01-.04-.03-.07-.04-.62-.34-1.09-.88-1.37-1.52,1.33-1.36,2.09-3.18,2.09-5.09v-11.07c0-1.37-1.12-2.49-2.5-2.49h-13.3c-1.38,0-2.5,1.12-2.5,2.49v11.07c0,1.07.27,2.12.72,3.09-.26-.22-.56-.4-.88-.53-.47-.19-.98-.25-1.48-.22v-11.75c0-3.11,2.58-5.63,5.74-5.63h11.17c2.54,0,4.6,2.03,4.6,4.52l.06,10.9c-.62.38-1.11.94-1.41,1.65-.45,1.07-.42,2.34.05,3.5.36.87.96,1.59,1.69,2.09l-1.05-.37Zm5-1.62c-.15.36-.46.85-1.06,1.09-.43.17-.92.18-1.41,0-.79-.27-1.44-.92-1.79-1.77-.33-.79-.35-1.65-.06-2.35.15-.36.46-.85,1.06-1.09.58-.23,1.24-.16,1.86.2.57.33,1.05.88,1.34,1.55.33.8.35,1.66.06,2.36Zm-29.33-14.16l.11.14s0,0,0,0c.14.18.35.3.59.3.41,0,.75-.34.75-.75,0-.08-.01-.15-.04-.23l-.05-.26c-1.16-5.91-1.57-8.82-1.69-10.26.9,1.2,1.95,2.92,2.39,3.67.17.3.53.44.87.34.33-.1.55-.42.53-.77-.17-2.5-.23-5.38-.08-6.84.78,1.27,1.8,3.62,2.37,5.12.1.27.36.46.65.48.3.01.57-.13.71-.38,2.54-4.57,5.89-9.66,6.96-10.08.03,0,.06,0,.1,0,.03,0,.06,0,.09,0,1.07.4,4.42,5.5,6.96,10.08.14.25.43.39.71.38.29-.02.54-.21.65-.48.57-1.5,1.59-3.85,2.38-5.12.14,1.47.08,4.34-.09,6.84-.02.35.2.67.53.77.33.1.69-.04.87-.34.44-.76,1.49-2.47,2.4-3.68-.13,1.43-.53,4.34-1.68,10.24l-.05.26s0,.02,0,.02c-.03.1-.03.21-.02.31,0,.07.04.14.07.2.01.03.03.06.05.09.03.05.04.1.08.14.15.15.34.22.53.22.13,0,.26-.05.38-.12,0,0,.01,0,.02-.01.05-.03.1-.05.14-.09.02-.02.04-.05.06-.08,0,0,.01,0,.02-.02.67-.87,1.56-1.96,2.28-2.68-.04,1.85-.82,6.33-2.63,11.15-.44-.14-.9-.18-1.35-.15l-.06-10.44c0-3.32-2.74-6.02-6.1-6.02h-11.17c-3.99,0-7.24,3.2-7.24,7.13v12.19c-.13.07-.26.12-.39.19-2.57-4.72-3.67-11.49-3.69-13.98.48.49,1.16,1.26,2.11,2.48Zm1.14,16.58c-.29-.7-.27-1.56.06-2.34.17-.42.41-.77.72-1.07.31-.32.66-.55,1.06-.69.25-.09.49-.13.73-.13s.47.04.69.13c.37.15.69.43.92.81.44.73.47,1.72.09,2.63-.61,1.44-2.04,2.23-3.2,1.76-.6-.24-.91-.73-1.06-1.1Zm1.38,4.81c.26,2.05,1.6,3.56,2.74,4.81,1.52,1.68,2.36,2.71,1.7,4.25-1.62,3.82-.66,7.03.11,9.61.07.22.12.43.19.65-.09.01-.17.02-.25.03-.03,0-.07,0-.1,0-.16-.8-.32-1.55-.47-2.24-.27-1.29-.51-2.41-.71-3.48-.38-1.96-.58-3.56-.68-5.36-.02-.37-.31-.67-.68-.71-.37-.03-.71.2-.8.56l-1.04,4.14c-1.13-.91-3.02-1.74-5.36-1.14.81-2.99,2.73-8.44,5.34-11.14Zm-7.36,23.72c-.55-.49-.78-1.16-.73-1.98.33-2.04,1.03-4.46,1.65-6.59.23-.81.44-1.56.64-2.27,3.29-1.39,5.26.9,5.4,1.07l-1.3,5.2c-.99.06-2.05.22-3.24.5-.4.1-.65.5-.56.9.1.4.5.65.9.56,1.32-.31,2.47-.47,3.52-.48.92-.02,1.69.07,2.43.15.59.07,1.23.12,1.9.13-.12.36-.18.74-.16,1.13.04.78.36,1.46.7,1.99-.28.06-.56.11-.84.16-.14-.01-.27.02-.39.07-4.97.92-8.49.73-9.91-.54Zm3.99,13.58c1.91-.73,3.33-2.31,3.91-4.41.08-.31.16-.61.27-.89.65.89,1.41,1.65,2.31,2.26-.15,1.21.04,2.37.49,3.44-1.58,1.03-3.53,1.94-5.47,1.94h-.08c-1.37-.02-2.61-.52-3.7-1.47.87-.34,1.65-.64,2.28-.88Zm10.35,15.17c-.75.39-1.52.73-2.31,1.06.04-1.77-.42-4.06-2.12-5.61,1.1-.03,2.27-.1,3.37-.2.32.1.61.21.87.35-.15.28-.24.59-.24.93,0,1.09.89,1.98,1.98,1.99.01.27,0,.51-.02.69-.94.49-1.53.79-1.54.79Zm16.01,1.76c-3.68-.53-7.45-1.43-10.81-2.77,4.39-2.33,7.57-4.16,9.47-5.45.32-.02.64-.04.97-.06l3.35-.02c-1.8,1.39-3.03,3.13-3.39,4.94-.24,1.17-.09,2.31.41,3.36Zm-14.69-5.65c.06-.03.15-.07.27-.07.29,0,.52.22.52.49,0,.18-.1.34-.28.44-.3.17-.75-.08-.75-.44,0-.17.09-.32.25-.41Zm12.68-3.93c-2,1.38-5.64,3.46-10.83,6.18-.03.01-.06.02-.08.04-.02,0-.03.02-.05.02,0-.16-.02-.32-.04-.49.38-.37.6-.87.6-1.41,0-.82-.51-1.52-1.23-1.83,0,0,.01,0,.02,0,.14-.04.27-.13.37-.24l1.16-1.38s0,0,0-.01c0,0,0,0,0,0l.14-.17c.26-.24.54-.43.8-.55,0,0,0,0,0,0s0,0,0,0c.88-.44,1.74-.36,2.3-.23,1.13.29,2.4.21,3.68-.21.54-.19,1.05-.41,1.53-.62,1.63-.71,2.31-.91,3-.21-.18.19-.56.54-1.39,1.13Zm-17.79,1.74c.42-.37.83-.68,1.27-.88.71-.31,2.11-.19,3.86.35-1.3.27-3.27.45-5.13.52Zm37.55,6.78c-1.54,1.48-8.3,2.14-15.82,1.3-.8-1-1.1-2.11-.86-3.31.39-1.95,2.18-3.93,4.68-5.21,3.17.17,5.68.68,7.28,1.49.27.13.5.27.69.41.13.1.29.14.44.14.23,0,.46-.11.61-.31.24-.34.17-.8-.17-1.05-.26-.19-.56-.36-.9-.53-1.81-.91-4.46-1.46-7.9-1.64-.09-.02-.19-.03-.29-.02-.14,0-.27-.02-.41-.02h-4.52c.26-.31.37-.55.41-.78.04-.27-.02-.53-.18-.76-1.56-2.04-3.4-1.24-5.02-.53-.44.19-.92.4-1.41.57-1.01.34-1.96.4-2.83.18-.81-.2-2.05-.3-3.33.34,0,0,0,0,0,0s0,0,0,0c0,0,0,0,0,0s0,0,0,0c-.4.2-.8.48-1.18.83-.03.03-.05.05-.08.08l-.17.21-.11.13c-.21-.06-.44-.12-.5-.14h0s-.05-.02-.08-.03c-1.59-.53-3.78-1.03-5.23-.39-1.05.47-1.9,1.32-2.8,2.23l-.06.06c-.69,0-1.24-.04-1.58-.07-1.45-.14-3.11-.26-4.82-.33h-4.96c-3.97.14-5.48,2.46-5.54,2.56-.22.35-.12.8.23,1.03.12.08.26.12.4.12.25,0,.49-.12.63-.34.05-.07,1.19-1.75,4.31-1.87h4.9c2.09.09,3.71.23,4.72.33.03,0,.08,0,.12,0,.06.04.12.08.2.1,3.73,1.06,3.67,4.89,3.54,6.17-.98.36-1.98.68-3.01.95-.68.19-1.39.35-2.17.51-.01,0-.02,0-.03,0,0,0-.02,0-.03,0-9.36,1.91-17.87.1-20.37-.75-.9-.31-1.97-1.39-2.18-3.03-.18-1.4.18-4.19,4.58-7.08,2.63-1.72,8.48-4.2,12.89-5.96,1.49,1.53,3.24,2.33,5.22,2.36.03,0,.07,0,.1,0,2.25,0,4.43-.99,6.18-2.11,1.28,1.93,3.39,3.36,5.54,3.83.52.11,1.05.17,1.6.17,2.28,0,4.67-1.07,6.43-3.81,1.85,1.09,3.89,1.69,5.64,1.89.51.06,1.01.08,1.49.08,2.12,0,3.97-.53,5.21-1.51l2.78,1.74c2.4,1.65,4.28,3.07,5.75,4.34,2.31,2.02,3.45,3.59,3.48,4.81.02.79-.42,1.54-1.5,2.59Z"/>
  <path d="m68.01,34.2c-1.22,1.26-3.25,1.31-4.53.12-.3-.28-.78-.27-1.06.04-.28.3-.27.78.04,1.06.91.85,2.07,1.27,3.23,1.27,1.24,0,2.48-.48,3.41-1.44.29-.3.28-.77-.02-1.06-.3-.29-.77-.28-1.06.02Z"/>
  <path d="m64.01,41.06c-1.22,1.26-3.25,1.31-4.53.12-.3-.28-.78-.27-1.06.03-.28.3-.27.78.03,1.06.9.85,2.07,1.27,3.23,1.27,1.24,0,2.48-.48,3.41-1.44.29-.3.28-.77-.02-1.06-.3-.29-.77-.28-1.06.02Z"/>
  <path d="m61.69,39.96c.64,0,1.28-.25,1.75-.75.29-.3.27-.78-.03-1.06-.3-.29-.78-.27-1.06.03-.35.37-.93.38-1.3.03-.3-.28-.78-.27-1.06.04-.28.3-.27.78.04,1.06.47.44,1.06.65,1.66.65Z"/>
  <path d="m61.92,21.07c1.39,0,2.48-1.4,2.48-3.19s-1.09-3.19-2.48-3.19-2.5,1.4-2.5,3.19,1.1,3.19,2.5,3.19Zm0-4.88c.47,0,.98.7.98,1.69s-.52,1.69-.98,1.69-1-.7-1-1.69.52-1.69,1-1.69Z"/>
</svg>