<?xml version="1.0" encoding="UTF-8"?>
<svg id="icons" xmlns="http://www.w3.org/2000/svg" viewBox="0 0 120 120">
  <defs>
    <style>
      .cls-1 {
        fill: none;
        stroke: #000;
        stroke-linecap: round;
        stroke-linejoin: round;
        stroke-width: 1.5px;
      }
    </style>
  </defs>
  <path class="cls-1" d="m67.38,23.54c-1.39-1.33-2.85-2.6-4.01-3.38-2.2-1.49-10.61-4.12-10.11-3.17.51.94,5.14,3.36,5.14,3.36l-6.31-.37,4.78,4.29s-5.61-1.3-7.64,1.5h0s-2.01-1.5-3.2.19c-.17.24-.24.48-.24.7.02,1.36,2.68,2.31,3.44.98,0,0,2.02,4.12,6.06,3.18l5.42,4.8m30.94-6.96c-4.15-3.22-9.25-6.64-9.25-6.64,0,0,3.53-5.61,2.37-9.16,0,0-.84-.11-2.48,3.84h0s-.02.05-.03.07c0,.01-.01.02-.01.02-.72,1.66-1.52,2.47-2.17,3.04-.01.02-.02.03-.04.03-.03.02-.06.05-.08.07-.82.71-1.29,1.06-.76,2.47,1.33,3.56,9.77,10.11,9.77,10.11,0,0-5.7,1.15-10.17,1.95-.6.12-1.18.22-1.73.32-.31.05-.62.11-.9.16-1.52.25-2.76.14-3.74-.19h-.01c-1.85-.64-2.74-2.01-2.63-2.99.16-1.49,2.52-2.44.83-4.68-.19-.25-.38-.51-.64-.79.01-.01,0-.01,0-.01-.17-.21-.34-.41-.55-.63m-6.94,11.88s-.03.03-.09.07c-.1.07-.21.17-.35.29-.25.2-.57.46-.93.78-.47.42-1.01.91-1.6,1.5-1.39,1.38-2.97,3.16-4.22,5.23-.65,1.05-1.67,2.73-2.86,4.71-3.28,5.42-7.88,13.05-9.59,15.88-.43.7-1.13,1.1-1.89,1.05,0,0-.36-.14-1-.47-.65-.35-1.57-.91-2.67-1.78-1.42-1.12-3.55-2.39-4.03-2.44-.85-.12,3.69,5.87,3.69,5.87,0,0-3.88,0-3.53,1.12.22.75,4.77,1.24,7.84,1.49,1.72.15,3.41-.65,4.53-2.12l11.09-14.54.88-1.15c-.37-.25-.63-.7-.63-1.22,0-.8.59-1.44,1.29-1.44.06,0,.11,0,.15.01.33.04.63.22.84.49l2.47-3.24,2.69,5.29c.9,1.77.71,3.98-.49,5.54l-2.15,2.76-4.22,5.43-2.94,3.79-5.54,7.12-20.88,17.97-8.17.89c-.94.11-1.44,1.3-.9,2.18.2.3.51.53.84.59l10.55,1.79c1.21.21,2.42-.5,2.92-1.75l.54-1.28c.28-.71.77-1.28,1.39-1.63,2.88-1.65,11.53-6.78,14.63-10.77.51-.65,1.06-1.23,1.7-1.7l7.42-5.68,9.33-7.13,2.42-.34,1.62-.23s6.64,2.31,12.39,3.76c2.29.58,4.43,1.01,5.97,1.11,0,0-6.09,5.81-8.28,10.83-.46,1.05-.93,2.1-1.5,3.09l-.52.87c-.79,1.37-.29,3.18,1.04,3.84l7.05,3.36c.84.41,1.8.3,2.56-.27.24-.19.36-.48.36-.77s-.12-.58-.35-.77l-6.26-5.03s14.14-12.35,13.63-15.99c-.24-1.73-5.71-5.59-11.4-9.17-.19.53-.65.89-1.18.89-.04,0-.07,0-.1-.01-.67-.05-1.19-.67-1.19-1.42,0-.32.09-.6.24-.84-.61-.38-1.21-.75-1.81-1.09-1.63-.99-3.18-1.89-4.5-2.66-.6-.35-1.14-.67-1.64-.96-.24-.14-.48-.27-.7-.4-.99-.55-1.26-1.95-.61-2.94,1.31-1.94,3.24-5.16,4.23-8.69,0,0,0-.01.01-.02.05-.16.09-.3.13-.45.03-.15.07-.3.1-.45.01-.02.02-.05.02-.08.11-.46.19-.9.26-1.36-.6-.13-1.05-.71-1.05-1.41,0-.77.52-1.38,1.19-1.43,0,0,.01,0,.01.02.01-.01.02-.02.03-.02s.03,0,.04-.01h.01c.65-.25,3.81-1.48,7.14-2.96,4.29-1.9,8.91-4.18,8.91-5.26,0-.61-1.32-1.92-3.16-3.46"/>
  <path class="cls-1" d="m58.24,53.24c-.12.66-.26,1.38-.44,2.15"/>
  <path class="cls-1" d="m55.47,62.8c-.32.91-.55,1.82-.7,2.7"/>
  <path class="cls-1" d="m57.3,76.12c-.44-.57-.83-1.16-1.17-1.78"/>
  <path class="cls-1" d="m69.96,81.77c0,.13-.02.26-.05.39-.14.61-.64,1.05-1.23,1.05-.67,0-1.21-.57-1.28-1.29-.01-.05-.01-.1-.01-.14,0-.79.57-1.43,1.29-1.43s1.29.64,1.29,1.43Z"/>
  <path class="cls-1" d="m67.4,81.92c-1.08-.18-2.13-.46-3.13-.83"/>
  <path class="cls-1" d="m75.41,81.52c.6-.16,1.18-.34,1.78-.55.44-.16.87-.34,1.27-.51"/>
  <path class="cls-1" d="m84.8,74.73c.09-.17.16-.32.23-.49.34-.77.6-1.56.77-2.38"/>
  <path class="cls-1" d="m85.71,63.45c-.12-.76-.27-1.52-.42-2.26"/>
  <path class="cls-1" d="m83.48,53.27c-.17-.73-.35-1.48-.53-2.24"/>
  <path class="cls-1" d="m80.74,42.03c-.31-1.24-.44-1.47-.7-2.47"/>
  <path class="cls-1" d="m79.17,35.88c-.24-.89-.37-1.41-.37-1.41"/>
  <path class="cls-1" d="m82.95,51.03c-.29-1.19-1.25-5.15-1.53-6.3"/>
  <path class="cls-1" d="m84.67,58.45c-.19-.84-.39-1.66-.57-2.44"/>
  <path class="cls-1" d="m86.05,66.23c.09.95.12,1.89.08,2.83"/>
  <path class="cls-1" d="m83.26,77.02c-.68.79-1.52,1.53-2.51,2.18"/>
  <path class="cls-1" d="m69.91,82.16c.97.04,1.97-.01,2.97-.14"/>
  <path class="cls-1" d="m61.91,80.01c-.95-.52-1.84-1.13-2.64-1.83-.05-.04-.11-.08-.16-.14"/>
  <path class="cls-1" d="m55.07,71.77c-.13-.42-.23-.85-.31-1.3-.12-.69-.19-1.4-.21-2.13"/>
  <path class="cls-1" d="m57.09,58.06c-.19.66-.42,1.36-.67,2.11"/>
  <path class="cls-1" d="m59.52,40.17s-.01.01-.01.02c-.69,2.14-.84,3.78-.87,5.43"/>
  <path class="cls-1" d="m58.64,48.43c-.01.61-.02,1.26-.08,1.97"/>
  <path class="cls-1" d="m59.71,47.02c0,.71-.47,1.29-1.07,1.41-.08.01-.15.02-.23.02-.7,0-1.29-.64-1.29-1.43s.58-1.43,1.29-1.43c.09,0,.16.01.24.02.61.12,1.06.71,1.06,1.41Z"/>
  <path class="cls-1" d="m92.59,32.52c0,.71-.47,1.29-1.07,1.41-.08.01-.15.02-.23.02-.7,0-1.29-.64-1.29-1.43s.58-1.43,1.29-1.43c.09,0,.16.01.24.02.61.12,1.06.71,1.06,1.41Z"/>
  <path class="cls-1" d="m65.35,35.18c0,1.2-.79,2.18-1.81,2.38-.13.02-.26.04-.38.04-1.19,0-2.18-1.08-2.18-2.42s.99-2.42,2.18-2.42c.15,0,.27.02.4.04,1.03.2,1.79,1.2,1.79,2.38Z"/>
  <path class="cls-1" d="m93.89,29.65c0,.25-.06.48-.16.68-.18.38-.52.65-.91.73-.08.01-.15.03-.23.03-.7,0-1.29-.64-1.29-1.44,0-.38.13-.73.35-.98.23-.28.57-.45.93-.45.09,0,.16.01.24.02.61.13,1.06.71,1.06,1.41Z"/>
  <path class="cls-1" d="m95.17,26.79c0,.7-.47,1.28-1.06,1.41-.08.01-.15.02-.23.02-.71,0-1.29-.64-1.29-1.43s.58-1.43,1.29-1.43c.09,0,.16.01.24.02.04.01.07.01.1.03.24.06.46.21.62.41.2.25.33.59.33.97Z"/>
  <path class="cls-1" d="m96.47,24.45c0,.71-.47,1.29-1.07,1.41-.07.01-.15.03-.22.03-.11,0-.22-.02-.33-.06-.16-.2-.37-.35-.62-.41-.2-.25-.33-.59-.33-.97,0-.79.58-1.43,1.29-1.43.08,0,.16.01.23.02.61.13,1.06.71,1.06,1.41Z"/>
  <path class="cls-1" d="m97.76,21.59c0,.71-.47,1.29-1.07,1.41-.08.01-.15.02-.23.02-.7,0-1.29-.64-1.29-1.43s.58-1.43,1.29-1.43c.09,0,.16.01.24.02.61.12,1.06.71,1.06,1.41Z"/>
  <path class="cls-1" d="m59.71,51.83c0,.79-.58,1.43-1.3,1.43-.05,0-.12,0-.17-.01-.17-.02-.35-.1-.49-.19-.38-.25-.63-.71-.63-1.23,0-.79.58-1.43,1.29-1.43.05,0,.11,0,.15.01.34.04.63.22.83.49.19.24.31.57.31.93Z"/>
  <path class="cls-1" d="m58.41,56.63c0,.79-.57,1.43-1.29,1.43h-.03c-.7-.02-1.26-.65-1.26-1.43s.57-1.43,1.29-1.43c.25,0,.48.07.67.2.37.25.62.71.62,1.23Z"/>
  <path class="cls-1" d="m57.12,61.43c0,.79-.57,1.43-1.29,1.43-.13,0-.25-.02-.36-.06-.54-.17-.93-.72-.93-1.37,0-.78.57-1.43,1.29-1.43.22,0,.41.06.58.17.42.23.7.71.7,1.26Z"/>
  <path class="cls-1" d="m55.83,66.9c0,.79-.56,1.43-1.28,1.44h-.01c-.71,0-1.29-.65-1.29-1.44s.57-1.43,1.29-1.43c.08,0,.15.01.23.02.61.12,1.06.71,1.06,1.41Z"/>
  <path class="cls-1" d="m57.12,72.94c0,.66-.41,1.24-.99,1.4-.1.02-.19.04-.3.04-.71,0-1.29-.65-1.29-1.43,0-.48.21-.9.53-1.17.22-.17.48-.28.76-.28.71,0,1.29.65,1.29,1.44Z"/>
  <path class="cls-1" d="m59.71,76.84c0,.51-.24.96-.61,1.2-.19.14-.43.23-.69.23-.7,0-1.29-.64-1.29-1.43,0-.26.06-.52.18-.72.22-.42.64-.71,1.1-.71.71,0,1.3.64,1.3,1.43Z"/>
  <path class="cls-1" d="m64.45,80.34c0,.28-.06.53-.18.75-.23.41-.64.69-1.1.69-.71,0-1.29-.64-1.29-1.43,0-.11.01-.22.03-.32.13-.64.64-1.11,1.26-1.11.71,0,1.29.64,1.29,1.43Z"/>
  <path class="cls-1" d="m75.43,81.77c0,.79-.57,1.43-1.29,1.43-.64,0-1.17-.52-1.27-1.19-.01-.07-.02-.16-.02-.24,0-.79.57-1.43,1.29-1.43.64,0,1.16.51,1.27,1.18.01.08.02.17.02.25Z"/>
  <path class="cls-1" d="m80.83,79.7c0,.79-.57,1.43-1.29,1.43-.47,0-.87-.26-1.09-.67-.12-.22-.19-.48-.19-.76,0-.79.57-1.43,1.29-1.43.55,0,1.03.39,1.2.93.05.16.09.32.09.51Z"/>
  <path class="cls-1" d="m85.23,75.8c0,.79-.57,1.43-1.29,1.43-.25,0-.49-.08-.68-.22-.37-.25-.61-.7-.61-1.22,0-.79.57-1.43,1.29-1.43.34,0,.63.13.86.36.27.26.43.65.43,1.07Z"/>
  <path class="cls-1" d="m87.44,70.49c0,.79-.57,1.43-1.29,1.43-.13,0-.25-.02-.36-.06-.54-.17-.93-.72-.93-1.37,0-.78.56-1.42,1.27-1.43h.02c.71,0,1.29.64,1.29,1.43Z"/>
  <path class="cls-1" d="m87.44,64.81c0,.19-.03.37-.1.54-.19.52-.65.89-1.19.89-.03,0-.06,0-.1-.01-.67-.05-1.19-.67-1.19-1.42,0-.31.09-.6.24-.84.15-.23.36-.41.61-.52.14-.05.29-.08.44-.08.71,0,1.29.65,1.29,1.44Z"/>
  <path class="cls-1" d="m84.86,54.69c0,.59-.31,1.09-.77,1.32-.15.07-.34.12-.52.12-.71,0-1.29-.65-1.29-1.44,0-.75.52-1.37,1.19-1.42.03-.01.07-.01.1-.01.71,0,1.29.65,1.29,1.43Z"/>
  <path class="cls-1" d="m86.52,59.74c0,.77-.54,1.41-1.23,1.44h-.05c-.71,0-1.29-.65-1.29-1.44,0-.55.29-1.05.73-1.29.16-.1.36-.14.56-.14.71,0,1.29.65,1.29,1.43Z"/>
  <path class="cls-1" d="m82.12,43.45c0,.55-.28,1.03-.7,1.28-.17.1-.37.16-.58.16-.09,0-.16-.01-.24-.02-.6-.12-1.05-.71-1.05-1.41,0-.76.52-1.37,1.19-1.42,0,0,.01,0,.01.01.02-.01.04-.01.08-.02h.01c.71,0,1.29.64,1.29,1.43Z"/>
  <path class="cls-1" d="m80.82,42.02s-.05.01-.08.02c0-.01-.01-.01-.01-.01.03-.01.05-.01.09-.01Z"/>
  <path class="cls-1" d="m80.83,38.13c0,.67-.4,1.23-.96,1.38-.1.04-.22.05-.32.05-.71,0-1.29-.64-1.29-1.43,0-.64.38-1.18.91-1.37.12-.04.25-.06.38-.06.71,0,1.29.65,1.29,1.43Z"/>
  <polyline class="cls-1" points="63.45 32.78 58.06 30.13 55.29 30.83"/>
  <path class="cls-1" d="m62.39,37.61s5.21,1.57,10.04-2.87"/>
  <path class="cls-1" d="m61.1,38.69c-.09,3.41,2.97,3.02,4.25-.83,0,0-.92,3.34,2.04,3.16s1.29-3.89,1.29-3.89c0,0,1.2,4.3,3.75,2.36,2.55-1.94-.92-3.97-.92-3.97,0,0,4.31,4.48,5.56-.73"/>
  <path class="cls-1" d="m70.55,46.18c0,1.87-1.42,3.39-3.17,3.39s-3.17-1.52-3.17-3.39"/>
  <path class="cls-1" d="m64.93,24.7c0,1.22-.91,2.21-2.01,2.2"/>
  <path class="cls-1" d="m78.41,46.18c0,1.87-1.34,3.39-2.99,3.39s-2.99-1.52-2.99-3.39"/>
  <path class="cls-1" d="m67.39,23.54h1.98c.45,0,.76.52.56.97l-.5,1.14"/>
  <path class="cls-1" d="m67.82,27.73c1.74.39,2.17-1.46,2.17-1.46"/>
  <path class="cls-1" d="m63.37,20.16c-5.02,3.73-3.47,10.05-2.66,11.28"/>
  <path class="cls-1" d="m79.42,8c3.17,2.34,4.17,6.86,2.24,10.08s-6.06,3.93-9.23,1.59c0,0,2.59-.73,4.99-4.73,2.39-4,2-6.94,2-6.94Z"/>
  <line class="cls-1" x1="45.8" y1="26.66" x2="43.03" y2="26.66"/>
  <line class="cls-1" x1="49.23" y1="25.77" x2="49.23" y2="27.64"/>
  <path class="cls-1" d="m56.87,24.28c-2.61,2.73-.3,6.23-.3,6.23"/>
  <path class="cls-1" d="m52.43,50.13c1.07,3.27,4.44,4.07,4.44,4.07"/>
  <path class="cls-1" d="m42.83,66.01c.51,2.4,2.94,2.73,2.94,2.73"/>
  <line class="cls-1" x1="51.56" y1="107.03" x2="90.85" y2="33.7"/>
  <path class="cls-1" d="m61.87,61.19c4.57,6.19,15.72,3.96,16.92-1.02"/>
  <path class="cls-1" d="m67.39,64.65c-3.27,8.44-10.69,5.73-9.59,1.59"/>
  <path class="cls-1" d="m72.91,64.65c7.09,6.09,11.06,2.81,10.35-2.09"/>
  <path class="cls-1" d="m31.21,93.1c-.43,4.43,3.53,3.88,3.53,3.88"/>
  <path class="cls-1" d="m82.29,87.16c.27,3.69,2.82,3.34,2.82,3.34"/>
  <path class="cls-1" d="m96.47,20.15c-3.53-2.49,1.68-7.02,1.68-7.02"/>
  <path class="cls-1" d="m97.53,20.77c2.68,2.43,5.33-4.67,5.33-4.67"/>
  <line class="cls-1" x1="101.3" y1="13.13" x2="97.16" y2="20.15"/>
  <path class="cls-1" d="m14.02,100.76c-1.04,4.13,2.14,6.09,2.14,6.09"/>
  <g>
    <path class="cls-1" d="m32.96,102.14l1.08-.21.8.35c1.77,1.1,9.28,2.4,9.28,2.4l.92-1.04c4.68-4.52,2.81.15,2.81.15,0,0-2.18,3.56-2.95,4.63-.27.37-.72.11-1.07-.29-.29-.34-.65-.41-.99-.26-1.23.55-5.05.6-6.89-1.19-.8-.78-4.51.88-4.51.88-1.05.78-2.32.31-2.32.31-1.73-.8-7.64,1.46-9.73-.07-2.02-1.48-2.47-.93-5.6-.75-2.33.13-3.05-.67-3.53-1.3-.13-.17-.09-.46.08-.56h0c1.49-.91,2.25-2.66,3.36-4.23.98-1.39,2.21-2.44,3.17-1.98,1.88.9,1.61,4.19,1.61,4.19,0,0,.5.82,2.22-1.44,1.72-2.27,3.13-1.72,3.48-.82s.56,1.99.56,1.99l1.24.15c2.42-.2,7.88-1.4,8.86-.77s-1.33,2.05-2.84,1.89-2.52,1.54-8.22,1.99"/>
    <path class="cls-1" d="m47.03,101.99c.65-.65.53-2.64-1.59-.16-.65.76-1.32,1.42-2.03,1.93l-.58.42"/>
  </g>
  <g>
    <path class="cls-1" d="m85.5,99.27c-1.15-.19-1.74-.73-6.04-.93-.81-.04-1.61.15-2.33.53h0c-2.05,1.1-6.86,2.69-6.86,2.69l-1.06-1.04c-5.43-4.52-3.26.15-3.26.15,0,0,2.53,3.56,3.42,4.63.31.37.84.11,1.24-.29.34-.34.76-.41,1.15-.26,1.43.55,5.86.6,7.99-1.19.93-.78,5.24.88,5.24.88,1.21.78,2.7.31,2.7.31,2.01-.8,8.86,1.46,11.29-.07,2.34-1.48,2.87-.93,6.5-.75,2.71.13,4.14-1.08,4.7-1.71.15-.17.1-.46-.1-.56h0c-1.73-.91-3.22-2.25-4.5-3.83-1.14-1.39-2.57-2.44-3.68-1.98-2.19.9-1.87,4.19-1.87,4.19,0,0-.59.82-2.58-1.44s-3.63-1.72-4.04-.82-.64,1.99-.64,1.99l-1.44.15c-2.81-.2-9.14-1.4-10.28-.77s1.55,2.05,3.3,1.89c1.75-.16,2.93,1.54,9.54,1.99"/>
    <path class="cls-1" d="m66.89,98.86c-.75-.65-.61-2.64,1.84-.16.75.76,1.53,1.42,2.36,1.93l.67.42"/>
  </g>
</svg>