<svg id="Symbols" xmlns="http://www.w3.org/2000/svg" viewBox="0 0 150 150"><defs><style>.cls-1{fill:#231f20;}</style></defs><title>om-bold</title><g id="om_bold"><path class="cls-1" d="M100.26,52.71A17.49,17.49,0,0,0,82.79,69.18a9.5,9.5,0,0,1-9.94-.9c.16-4.79-1.24-8.91-4.24-11.88C60.92,48.79,45.29,52.05,32.24,64l5.41,5.9C48,60.44,59.08,58.23,63,62.08c2.88,2.86,2.42,9.17-1.16,16.08a41.7,41.7,0,0,1-4.1,6.35L64,89.42c.79-1,1.53-2.06,2.23-3.11,5,5.12,8.45,10.9,9.67,16.19.5,2.16,1,6.15-1.2,8.56a7.41,7.41,0,0,1-5.35,2.07c-6.26.25-14.87-3.79-21.93-10.31-1.11-1-2.17-2.1-3.16-3.21l-6,5.32A50.73,50.73,0,0,0,42,108.7c8.48,7.84,18.41,12.44,26.77,12.44l.91,0a15.18,15.18,0,0,0,10.91-4.65c3.48-3.79,4.58-9.4,3.1-15.77C82,93.4,77.14,85.53,70.25,79c.35-.83.68-1.65,1-2.47a17.41,17.41,0,0,0,18.05-2A4,4,0,0,0,90.79,71h0c0-.28,0-.55,0-.83a9.45,9.45,0,1,1,1.6,5.31L85.73,80a17.51,17.51,0,1,0,14.53-27.28Z"/><rect class="cls-1" x="76.05" y="30.93" width="10" height="10" transform="translate(-1.67 67.83) rotate(-45)"/><path class="cls-1" d="M75.57,54a28.61,28.61,0,0,0,5.64.59,19.75,19.75,0,0,0,14-5.31,18.25,18.25,0,0,0,4.41-6.71l-7.47-2.85a10.22,10.22,0,0,1-2.49,3.79c-2.87,2.77-7.31,3.71-12.51,2.65C71.43,45,65.62,41.63,60.81,36.62l-.13-.13-2.86,3L55,42.17C61,48.33,68.26,52.55,75.57,54Z"/></g></svg>