<?xml version="1.0" encoding="UTF-8"?>
<svg id="icons" xmlns="http://www.w3.org/2000/svg" viewBox="0 0 120 120">
  <defs>
    <style>
      .cls-1 {
        fill: #121112;
      }
    </style>
  </defs>
  <path class="cls-1" d="m104.4,95.92c.08.22.05.46-.08.65-.13.2-.34.32-.57.34l-8.42.62h-.06c-.35,0-.66-.24-.73-.59-1.33-6.21-4.24-15.73-7.1-18.53,1.56,7.04,3.26,18.75,3.2,22.17-.02,1.14.28,2.29.59,3.37l.05.18c.42,1.45.75,2.59.17,3.42-.31.44-.82.69-1.51.74l-.66.05c-.61.05-1.21.1-1.76.1-1.07,0-1.96-.19-2.44-.89-.65-.97.03-2.3.25-2.74.1-.18.17-.39.24-.62,0-.01,0-.02,0-.03,0-.14.05-.26.11-.37.64-2.72.03-7.71-1.92-10.8-.29-.46-.6-.89-.91-1.3-1.48,2.99-2.54,8.7-2.86,10.53-.17,1.03-1.07,1.78-2.11,1.78h-3.66c-.43,0-.83-.21-1.07-.57-.23-.36-.27-.81-.1-1.2.88-2.07,3.55-8.86,2.92-14.09-.01.21-.02.42-.06.61-.14.75-.48,1.21-1.01,1.36-.11.03-.22.05-.33.05-.9,0-1.83-.98-3.21-2.52-1.49.33-6.72,1.47-12.86,2.35-3.28.47-6.01.14-8.21-.13-2.91-.35-3.96-.38-4.34.69-.94,2.66.7,7.56,1.79,10.8l.21.61c.45,1.34.92,2.27,1.27,2.94.56,1.11,1.01,1.99.25,2.99-.64.85-2.93,2.34-4.52,2.34-.13,0-.25-.01-.36-.03-.59-.1-1.04-.46-1.21-1-.41-1.23-2.15-8.4-3.45-13.83-1.98,5.29-2.9,12.09-2.91,12.16-.05.32-.28.58-.6.64-.24.05-1.46.28-2.81.28s-2.72-.21-3.55-1c-.41-.39-1.03-.99.21-5.33,0,0,0-.02,0-.02.88-3.09,2.69-8.06,6.16-16.17l-1.36-2.22-7.31-11.94-2.04,3.15c-.3,2.3-2.22,4.5-4.2,4.77-1.51.2-2.49-.52-2.98-1.17-.59.02-1.5-.07-2.21-.68-.41-.36-.9-1.03-.87-2.24.06-2.35,1.71-4.04,2.42-4.65-.01-1.51,0-7.18.82-9.87-.9-.61-2.61-1.92-2.95-3.41-.15-.64-.04-1.26.32-1.79.62-.92,1.34-1.14,1.84-1.16.17-.01.33.01.49.04,0-.07.02-.15.03-.22.09-.52.4-1.26,1.4-1.85.88-.52,2.13-.04,3.36.79,6.53-2.15,15.74,2.88,18.61,4.61.42-1.13,1.36-2.19,2.82-3.22,0-.22.02-.47.03-.74l-1.13-.37c-1.01-.32-1.83-1.11-2.18-2.11-.96-2.7-1.69-5.61-1.25-8.49l-6.91-7.03h0s-1.77-1.81-1.77-1.81c-1.05-.29-1.73-.88-2.11-1.79-2.76-3-3.1-5.11-3.06-6.1.03-.66.24-1.21.59-1.53.24-.22.55-.31.87-.25.48.1,1,.61,1.56,1.51.09-.04.18-.08.25-.1.35-.1.68-.03.94.07.57-.31,1.19-.41,1.69-.43-.06-.38-.17-.88-.38-1.49-.11-.31-.44-1.27.16-1.87.4-.4.99-.39,1.37-.26.06.02.12.05.17.08,3.15,2.09,3.11,7.8,3.02,9.52l.85.49h0l6.82,3.98c.17-.15.36-.3.54-.45-1.24-2.18-1.23-5.23.09-7.56.77-1.35,2.59-3.47,6.33-3.49-.12-.53-.15-1.04-.05-1.49.19-.93.81-1.52,1.72-1.71-.49-1.15-.92-2.39-1.03-3.41-.14-1.32.56-1.71.87-1.82.44-.16.99-.05,1.57.24-.71-2.47.05-3.62.7-4.13.94-.73,2.35-.67,3.77.07-.08-.85-.07-1.64.16-2.26.22-.59.6-1.03,1.12-1.27.42-.19.89-.19,1.36,0,1.09.43,2.18,1.94,3.03,3.4,3.3-1.86,7.63,2.53,11.84,7.62,2.13,2.57,2.99,5.45,2.42,8.1-.45,2.1-1.76,3.91-3.65,5.12,5.82,1.18,7.23,4.13,7.54,5.86.47,2.6-1.01,5.48-3.52,6.86-1.11.61-2.07,1.51-2.84,2.62,1.64.17,3.06.5,4.35,1.54,1.52,1.23,1.99,3.02,1.2,4.58-.57,1.11-1.84,2.05-3.59,2.05-.44,0-.92-.06-1.42-.2-.68-.18-1.52-.45-2.54-.84,0,.9.11,1.8.28,2.69.46,2.3.54,4,.24,5.1.4.18.77.36,1.12.54.04.02.07.04.11.06,3.9,2.04,4.42,3.59,3.54,6.45,1.2.17,3.27.71,5.03,2.29,10.91-2.83,19.58,22.14,19.95,23.22Zm-3.06-.34l1.31-.1c-1.61-4.32-8.84-22.35-17.03-21.48.5.67.9,1.43,1.21,2.27,4.7,1.65,8.22,16.09,9.03,19.72l.72-.06-3.33-10.71c-.12-.4.1-.82.49-.94.4-.13.82.1.94.49l3.44,11.05,1.66-.12-4.24-11.11c-.15-.38.05-.82.43-.96.39-.15.82.04.97.43l4.4,11.52Zm-11.12,11.11c.14-.21-.07-1.06-.28-1.78h-3.02c-.08.21-.16.4-.26.59-.4.8-.37,1.15-.33,1.21.23.34,1.92.21,2.83.13l.68-.05c.27-.02.37-.08.38-.1Zm-2.95-3.28h2.26c-.23-.91-.41-1.86-.39-2.85.05-2.74-1.14-11.4-2.42-18.17-4.97.81-9.6,1.98-11.37,2.45.13.42.25.84.35,1.26.28,0,.57.01.88.05.03,0,.06,0,.09.01,2.38.26,4.67,1.54,6.61,3.71.62.68,1.21,1.46,1.74,2.33,2.02,3.19,2.73,8.07,2.25,11.21Zm-.84-22.49c-.18-.91-.36-1.76-.54-2.55-.75.18-1.96.41-3.34.41-.11.82-.66,1.49-1.41,1.78-.25.1-.53.15-.81.15-1.24,0-2.24-1-2.24-2.23,0-.23.04-.46.11-.67-.56-.3-1.05-.67-1.49-1.09-1.17,2.14-2.29,3.78-2.8,4.48.22.48.58,1.29.94,2.22,1.12-.3,3.57-.93,6.57-1.55,1.56-.34,3.27-.67,5.01-.95Zm-.95-3.99c-.41-1.14-.99-2.11-1.77-2.87-1.7-1.7-3.83-2.11-4.79-2.21-.12.33-.25.67-.4,1.02-.33.85-.71,1.66-1.09,2.43.47.54,1.03.97,1.7,1.29.35-.22.77-.36,1.2-.36.78,0,1.48.4,1.88,1.03,1.33.04,2.54-.16,3.27-.33Zm-4.4,1.55c0-.08-.01-.14-.04-.2-.11-.34-.4-.55-.71-.55-.2,0-.4.09-.53.24-.14.15-.21.32-.21.51,0,.4.33.73.74.73s.75-.33.75-.73Zm-2.83-33.98c1.96-1.07,3.12-3.29,2.76-5.27-.43-2.39-2.9-4.07-6.96-4.76-.28.33-.67.54-1.12.6-.15.29-.34.56-.56.79,1.57.42,2.81.92,3.72,1.5,1.52.98,1.81,2.04,1.79,2.75-.05,1.36-1.19,2.64-3.5,3.91-2.11,1.15-3.52,2.38-4.31,3.72,1.56.38,2.98.49,4.35.57h.04c.95-1.64,2.24-2.96,3.79-3.81Zm2.09,9.38c.37-.72.35-1.81-.8-2.73-1.26-1.01-2.75-1.18-4.73-1.31l-.48-.03c-1.64-.1-3.5-.21-5.58-.86-.14-.04-.32-.1-.51-.17l-.38-.13c-4.2-1.47-6.97-2.42-7.46-2.18-.02.07-.02.08,0,.11.15.32,1.02.74,1.72.93.26.06.47.27.54.54.06.26-.02.55-.22.73-.18.17-1.79,1.61-3.24,1.48-.55-.05-1.01-.32-1.34-.76-.57-.77-1.18-.89-1.37-.78-.09.06-.09.32.06.68.71,1.6,3.22,1.86,3.24,1.86s.03.01.04.01h.05c.94.19,2.03-.45,2.04-.46.35-.21.81-.1,1.03.25.21.36.1.82-.25,1.03-.05.04-1.18.72-2.47.72-.1,0-.21-.03-.31-.03-.69.43-1.36.93-1.72,1.29,1.25.09,4.92-.65,6.76-3.48.01-.02.03-.02.05-.04.05-.06.1-.12.17-.16.03-.02.05-.04.09-.06.09-.04.2-.07.31-.08h0s.05.02.07.02c.07,0,.14,0,.21.04.01,0,.01,0,.02,0,.01.01.02.01.03.01s1.29.63,3.05,1.44c1.61.74,3.29,1.46,4.72,2.02,1.42.57,2.52.95,3.36,1.17,1.66.45,2.85-.22,3.29-1.08Zm-1.28,45.15c.62-2.97,1.54-6.47,2.72-8.56-1.34-1.37-2.82-2.27-4.35-2.65.47,3.61-.51,7.84-1.52,10.99l3.15.22Zm-.29,1.48l-3.36-.23c-.33.91-.63,1.67-.86,2.22h3.32c.31,0,.58-.22.63-.53.08-.45.17-.94.27-1.46Zm-1.04-29.74c1.02-2.74.87-3.72-2.19-5.32-1.51,1.11-3.36,3.92-3.51,5.94-.1,1.29-.79,3.08-1.64,4.7,1.47.53,2.75,1.69,3.49,2.46.98-1.53,2.26-3.75,3.25-6.22.22-.58.42-1.08.59-1.54t0-.02Zm-.6-43.1c.47-2.16-.21-4.45-1.95-6.64-.05-.07-.11-.13-.16-.2-3.39-4.1-7.53-8.53-9.96-7.24.38.77.66,1.4.78,1.68.16.38-.02.82-.4.99-.38.15-.82-.02-.98-.4-.88-2.07-2.6-5.18-3.69-5.6-.14-.05-.18-.03-.2-.02-.09.04-.23.13-.33.41-.5,1.37.49,4.74,1.68,7.2.18.38.02.82-.35,1-.11.05-.22.08-.33.08-.28,0-.55-.16-.67-.43-.49-1.02-1.1-2.51-1.5-4.02-1.34-1.15-2.69-1.41-3.25-.97-.58.46-.7,2.04.86,4.97.83.89,1.64,1.95,2.34,3.05.22.35.12.82-.23,1.04s-.81.12-1.04-.23c-1.97-3.11-3.86-4.5-4.51-4.68,0,.06,0,.13,0,.22.25,2.32,2.57,6.31,2.59,6.35.21.36.09.82-.27,1.03-.12.07-.25.1-.37.1-.26,0-.51-.13-.65-.37-.05-.08-.55-.94-1.11-2.1-.78-.01-.87.39-.9.57-.25,1.2,1.2,3.85,3.89,5.11.02-.07.05-.14.08-.21.21-.39.55-.68.98-.82.29-.09.59-.09.87-.03.16-.24.34-.47.56-.68-.25-.53-.26-1.16.03-1.71.22-.44.62-.78,1.1-.93.49-.16,1.01-.11,1.47.13.34.18.61.46.79.8.28-.07.56-.12.86-.16.13-.98.96-1.73,1.98-1.73.13,0,.27.01.4.04l-.96-3.12s-.02-.08-.02-.13c-.08-.62.09-1.23.45-1.69.3-.38.71-.61,1.17-.67,1.03-.1,1.98.75,2.12,1.93v.29c.47-1.07,1.63-1.61,2.57-1.2.49.21.85.64,1,1.18.11.42.09.87-.05,1.3.96-.65,2.2-.53,2.8.29.21.3.32.65.32,1.02,0,.67-.36,1.33-.96,1.77-.03.03-.08.05-.12.07l-3,1.43c.1.24.16.49.16.75,0,.31-.08.61-.21.88.05.05.1.11.15.16.24-.1.5-.16.78-.16,1.11,0,2.01.9,2.01,2.01,0,.58-.27,1.1-.68,1.48.1.29.18.59.24.88.18.07.35.17.49.28,1.73-.98,2.93-2.54,3.32-4.35Zm-.75,12.39c.02-.52-.46-.98-.93-1.31-.9.01-1.11.48-1.53,1.69-.34.98-.78,2.21-2.03,2.97-.42.26-.92.46-1.55.59-.28,1.1-1.27,1.91-2.46,1.91-1.41,0-2.55-1.14-2.55-2.55,0-.14.02-.29.04-.43-.96.55-2.05.85-3.16.85s-2.14-.27-3.13-.83c-1.15-.66-2.03-1.65-2.57-2.83-.44.77-1.25,1.29-2.2,1.29-.11,0-.22-.02-.33-.03-.66,1.01-2.33,3.97-1.72,7.48.27,1.57.23,3.07.04,4.39,1.26,6.16,3.05,10.01,5.31,11.47.4-.62,1.09-1.04,1.88-1.04.94,0,1.75.59,2.08,1.41.22-.07.43-.15.66-.25,1.97-.86,1.94-2.2,1.7-5.17-.14-1.73-.3-3.76.13-6.04-1.55,1.11-3.34,1.71-4.72,1.88-.84.1-1.95.12-2.53-.42-.26-.23-.38-.55-.35-.9.06-.61.68-1.26,1.44-1.85-1-.38-2.15-1.07-2.72-2.33-.59-1.33-.07-2.22.56-2.58.86-.5,2.28-.26,3.32,1.18.08.1.16.14.28.16.27,0,.66-.12,1.03-.34-.53-.28-1.08-.67-1.33-1.21-.21-.45-.21-.92.01-1.38.75-1.59,2.22-1.08,9.31,1.39l.22.08c.69-1.32,1.84-2.52,3.48-3.63.49-.33,1.02-.65,1.6-.97,1.7-.94,2.69-1.91,2.72-2.65Zm-1.95,48.41c.31-1.68-1.38-5.64-2.07-7.02-.12-.25-.09-.56.08-.79.01-.01.24-.31.59-.82-.62-.68-1.97-2.01-3.4-2.42-.64,1.05-1.3,1.92-1.8,2.35-.13.11-.19.22-.2.4-.03.57.46,1.79,2.92,4.36.57.59,1.11,1.2,1.62,1.77.74.83,1.73,1.94,2.24,2.27,0-.03.01-.06.02-.1Zm-.36-23.74c-.08-.03-.16-.07-.24-.11-.13.08-.24.11-.3.13-.05.01-.1.01-.15.01-.08,0-.16-.01-.23-.03l-3.47-1.14c-.26.62-.63,1.44-1.12,2.33l1.51,1.06c.34.23.43.7.19,1.04-.15.21-.38.32-.62.32-.14,0-.29-.04-.42-.13l-1.45-1.01c-.54.82-1.17,1.64-1.92,2.38,1.63,1.56,2.52,3.99,2.56,4.1.09.24.04.49-.09.68-.08.13-.21.23-.36.28-.08.03-.17.05-.25.05-.31,0-.6-.19-.71-.5,0-.02-.86-2.34-2.29-3.62-.77.58-1.62,1.07-2.57,1.4l1.38,4.71c.12.4-.11.81-.51.93-.07.02-.14.03-.21.03-.32,0-.62-.21-.72-.54l-1.4-4.78c-.35.05-.71.09-1.07.09-.53,0-1.06-.07-1.6-.17-.13,1.04-.28,2.9.1,4.1.12.4-.1.82-.49.94-.08.03-.15.04-.23.04s-.15-.01-.23-.04c-.22-.07-.41-.25-.48-.48-.5-1.59-.28-3.89-.12-4.99-.52-.2-1.03-.44-1.55-.74-.21.6-.58,1.1-.91,1.53-.43.57-.8,1.06-.85,1.69-.02.28-.08.58-.16.9.85.92,1.73,1.68,2.61,2.33,4.33,3.19,8.7,3.35,10.5,3.24-.05-.23-.08-.46-.07-.67.03-.58.28-1.09.73-1.46.43-.37,1.1-1.31,1.75-2.44,0,0,.01,0,.01-.01.25-.42.49-.88.72-1.34.62-1.27,1.12-2.6,1.19-3.56.17-2.23,1.88-5.02,3.54-6.55Zm-.62-42.26c0-.06-.02-.11-.04-.15-.08-.1-.4-.14-.71.06l-1.45,1.52,1.9-.91c.19-.15.3-.35.3-.52Zm-.3,40.68c.17-.45.38-1.64-.21-4.59-.23-1.19-.33-2.39-.3-3.57-.94-.38-1.95-.81-2.98-1.27.21,1.4.31,3.08.35,4.61l.51-1.38c.14-.39.57-.59.96-.45s.59.57.45.96l-1.72,4.72,2.94.97Zm-.19-29.72v-.07c.01-.14-.1-.24-.23-.24-.15.01-.25.11-.25.24,0,.11.06.2.16.22l.1.03c.11-.01.19-.1.22-.18Zm-.46,6.52c.25-.73.55-1.55,1.19-2.1-.88-.33-1.96-.63-3.19-.88-.26.07-.53.12-.8.15l-2.05,3.54c-.04.07-.09.13-.13.19.12-.01.24-.03.36-.03,1.1,0,2.03.7,2.39,1.68,1.48-.38,1.83-1.4,2.23-2.55Zm-.6-10.1c.23-.07.36-.26.36-.47,0-.28-.23-.51-.51-.51-.14,0-.27.06-.36.15-.06.06-.15.18-.15.36,0,.33.31.6.66.47Zm-.08,2.03c-.04-.17-.09-.33-.14-.5-1.08-.04-1.94-.92-1.94-2,0-.27.05-.53.15-.77-.07-.08-.14-.15-.22-.22-.2.07-.42.1-.65.1-1.05,0-1.9-.8-1.99-1.82-.04-.01-.06-.02-.1-.03,0-.01-.02-.01-.03-.01-.08-.02-.18-.04-.27-.06-.37.41-.9.67-1.48.67-.64,0-1.23-.32-1.6-.82-.4.05-.77.12-1.13.21-.03.1-.06.19-.11.27-.21.43-.61.77-1.09.92-.19.06-.39.09-.58.09-.2,0-.4-.04-.59-.1-.22.2-.39.43-.52.66.18.42.18.9-.01,1.35,1.89-2.42,5.33-3.15,8.07-1.57,1.45.83,2.49,2.19,2.93,3.8.29,1.11.27,2.26-.04,3.34.43-.19.78-.46,1.02-.82-.32-.31-.52-.73-.52-1.21,0-.63.34-1.17.84-1.48Zm-1.43-11.13c.07-.17.08-.35.04-.49-.02-.06-.06-.17-.15-.21-.13-.06-.42.07-.59.39l-.43,1.99,1.13-1.68Zm-.19,65.6c-.24-.26-.48-.52-.73-.79l-.08-.08c-1.96.43-3.91.62-5.86.62-3.63,0-7.29-.6-11.08-1.22-5.03-.82-10.23-1.65-15.5-.98l2.86,4.68c.04.07.07.14.09.22.02.09.99,4.18,2.07,8.66.64,2.68,1.32,5.49,1.87,7.66,1.72.3,2.89-.51,3.36-.93-.22-.5-.45-1.07-.68-1.76l-.21-.6c-.47-1.4-1.01-3.01-1.43-4.63-.67-2.58-1.04-5.21-.36-7.15.82-2.3,3.08-2.03,5.94-1.68,2.11.26,4.74.58,7.82.14,5.24-.75,9.81-1.7,11.92-2.16Zm-.67-59.86c0-.17-.08-.32-.21-.42-.09-.05-.17-.08-.27-.09h-.08c-.21.02-.38.16-.44.37l-.02.14c0,.28.23.5.51.5.12,0,.21-.03.29-.1.15-.11.22-.25.22-.4Zm-.94,9.56c.64-1.1.81-2.38.48-3.61s-1.12-2.26-2.23-2.89c-2.28-1.31-5.2-.53-6.52,1.74l-.65,1.12-1.59,2.74c-.63,1.1-.8,2.38-.47,3.6.33,1.23,1.12,2.26,2.22,2.9,2.28,1.31,5.21.53,6.52-1.75l1.55-2.66.69-1.19Zm-.1,26.45c.03-.86.18-6.28-.45-9.27l-.05-.26c-.81-.37-1.49-.7-1.97-.93-.96,2.87-.77,5.42-.6,7.51.24,2.87.44,5.35-2.59,6.67-.43.18-.83.31-1.22.42-.3.88-1.14,1.51-2.12,1.51-1.12,0-2.04-.82-2.21-1.88-2.46-1.29-4.36-4.51-5.76-9.79-.37,1.06-.72,1.72-.76,1.79-.13.25-.39.4-.66.4-.09,0-.19-.02-.28-.06l-1.03-.41c.69,1.76,2.23,5.06,5.48,9.6.4.56.64,1.07.77,1.53,2.26,1.49,4.43,1.93,6.46,1.28,3.34-1.07,5.79-4.87,6.99-8.11Zm.44-19.14c0-.57-.47-1.04-1.05-1.04s-1.05.47-1.05,1.04.47,1.05,1.05,1.05,1.05-.47,1.05-1.05Zm-.72,40.81c-.61-.72-1.08-1.37-1.42-1.95-.34.04-.83.08-1.45.08-2.8,0-8.05-.75-12.82-5.52-.67,1.48-1.72,2.88-2.79,3.13-.11.02-.23.04-.34.04-.52,0-.99-.29-1.29-.81-.88-1.49-.36-5.29.02-7.4-2.62,1.77-9.04,5.74-14.15,5.74-.33,0-.66-.02-.99-.06l3.11,5.08c5.72-.86,11.25.03,16.61.9,5.37.88,10.48,1.69,15.51.77Zm-1.54-62.36l.14-2.11c-.06-.36-.29-.57-.45-.55-.07.01-.13.07-.17.12-.1.12-.15.32-.14.52l.62,2.02Zm-1.06,3.62c.03-.07.05-.13.05-.2,0-.28-.23-.5-.51-.5s-.51.22-.51.5c0,.07.01.09.01.1.09.26.29.41.5.41.24,0,.4-.17.46-.31Zm-4.57.59v-.02c0-.14-.08-.28-.22-.35-.06-.04-.13-.05-.19-.05-.04,0-.08,0-.12.02-.1.03-.19.1-.23.19-.1.18-.05.4.1.51.17.09.28.1.38.07s.18-.1.23-.19c.03-.06.05-.12.05-.18Zm-.81,39.96s0-.05.01-.08c-.01-.4-.34-.72-.75-.72-.38,0-.7.29-.73.67-.01.04-.01.08-.03.12.02.35.35.68.76.68s.72-.29.74-.67Zm-2.15-36.7l.74.29-.67-.34c.05-.11,0-.17-.02-.19s-.04-.04-.1-.07c-.01-.01-.06-.01-.09,0-.02.01-.07.03-.09.08-.06.11-.01.2.07.24.04.02.11.02.16-.01Zm-1.29,5.12l1.46-2.54c-.16-.36-.29-.72-.38-1.06-.21-.02-.43-.07-.64-.17-.13-.08-.25-.17-.36-.27-2.36-.75-4.2-2.45-5.15-4.18-2.54-.16-4.53.79-5.62,2.7-1.16,2.03-1.08,4.84.18,6.54.58.79,1.07,1.48,1.46,2.14h0s.01.02.01.02c1.45,2.42,1.59,4.33.04,8.26-1.47,3.7-1.67,8.19-1.7,9.66l3.62,1.45c.55-1.28,1.65-4.43,1.06-7.83-.55-3.23.5-5.98,1.36-7.58-.21-.9-.97-3.97-2.1-5.43-.61-.57-1.09-1.45-1.32-2.27-.31-1.15.05-3.32,1.31-3.97.67-.34,1.74-.39,3.08,1.26.54.68.71,1.6.45,2.47-.21.69-.54,1.67-.93,2.36-.15.27-.35.47-.58.6.11.22.21.45.31.68.47-.56,1.16-.92,1.95-.92.64,0,1.22.24,1.67.63.08-.89.35-1.76.81-2.55Zm-1.43,4.46c0-.57-.47-1.04-1.05-1.04s-1.05.47-1.05,1.04.47,1.05,1.05,1.05,1.05-.47,1.05-1.05Zm-2.45,32.83c.76-1,1.18-1.56.14-3.02-.32-.44-.61-.86-.9-1.28-1.19.4-2.63,1.08-3.23,1.76.48.62.77.99.77.99.14.18.2.41.15.63-.55,2.54-1.06,6.58-.45,7.61.04.07.06.09.06.09.5-.07,2.16-2.47,2.3-4.3.09-1.07.66-1.82,1.16-2.48Zm-.79-38.52c.12-.4.05-.8-.18-1.09-.51-.63-.91-.89-1.13-.89-.04,0-.07,0-.09.02-.43.22-.75,1.51-.55,2.23.26.95.87,1.63,1.15,1.78.28-.51.55-1.2.8-2.05Zm-.83,32.93c-3-4.63-4.05-7.62-4.35-8.64l-1.87-.75c-.08-.04-.15-.09-.21-.14-1.05.85-1.65,1.68-1.81,2.54-.29,1.6.92,3.29,2.33,5.25l.1.14c.96,1.35,1.83,2.52,2.53,3.44.89-.86,2.31-1.48,3.28-1.84Zm-3.02,40.88c.15-.2.16-.29-.4-1.4h-.01c-.66.51-1.77,1.12-3.27,1.12-.12,0-.24,0-.36-.02.26,1.01.46,1.74.56,2.05.47.24,2.86-.93,3.48-1.75Zm-1.87-61.7c1.19-2.98,1.29-4.5.5-6.16-1.45,1.25-2.32,2.89-2.53,4.81-.21,1.88.24,3.75.93,5.14.26-1.25.61-2.55,1.1-3.79Zm-.26-7.47c-.18-.27-.38-.56-.6-.87-4.3,3.53-5.11,7.7-2.79,14.21.2.56.66,1,1.22,1.19l.8.25c.04-.42.09-.86.15-1.33-1.25-1.54-2.38-4.42-2.04-7.5.26-2.39,1.39-4.43,3.26-5.95Zm1.65,32.33c-.75-.98-2.03-2.67-3.53-4.77l-.1-.14c-.18-.25-.36-.5-.54-.76-1.37-.05-6-.44-9.27-2.99-1.29-1.01-2.75-1.75-4.07-2.29.2.65.36,1.37.48,2.14.84.5,1.38,1.41,1.38,2.4,0,.88-.43,1.68-1.11,2.19-.08,3.28-.59,6.17-.76,7.08l1.62,2.64c4.84,1.8,13.52-3.85,15.9-5.5Zm-4.76-32.91l-5.71-3.33c-.35.7-1.01,1.64-2.13,2.13l5.31,5.4c.47-1.43,1.27-2.84,2.53-4.2Zm-.45,25.66c-.62-1.06-1.05-2.12-1.07-3.21-1.81-1.13-10.56-6.26-16.82-5.05.77.66,1.46,1.35,1.96,1.88,1.08.22,5.31,1.2,8.62,3.79,2.31,1.79,5.49,2.39,7.31,2.59Zm-3.24,30.02c-.44-1.84-.77-3.22-.87-3.65l-1.08-1.76c-3.11,7.32-4.74,11.82-5.56,14.58,1.82,1.43,3.6,1.39,4.37,1.28.6-3.04,1.62-7.22,3.14-10.45Zm-3.31-59.76l-.71-.41c-.25-.15-.4-.43-.37-.72.16-1.68.1-6.07-1.7-8.07.5,1.53.46,2.47.46,2.58-.01.21-.12.41-.28.55-.17.13-.39.18-.6.15-.17-.03-.5-.05-.86-.01.56.5,1.2,1.14,1.98,1.93.29.29.3.78.01,1.08-.15.14-.35.22-.54.22-.18,0-.36-.07-.5-.21l-.04-.04c-1.22-1.22-2.18-2.19-2.78-2.56-.03-.02-.05-.03-.07-.05.02.14.1.39.32.8h.01c.61,1.12,1.22,1.68,1.23,1.69.31.27.33.75.06,1.05-.15.17-.36.25-.56.25-.18,0-.36-.06-.5-.19-.03-.02-.79-.71-1.55-2.07h0c-.2-.38-.33-.71-.42-1.02-.01-.01-.03-.03-.04-.05-.26-.54-.58-1.1-.85-1.48,0,.83.44,2.53,2.73,5.01.06.06.11.14.15.23,0,0,.01.02.01.03t.01.01c.15.43.41.85,1.33,1.06.14.03.27.1.37.21l1.68,1.7c1.12-.18,1.73-1.08,2.02-1.67Zm-.12,71.74c-.14,0-.27.02-.43.02-1.06,0-2.55-.26-4.08-1.29-.49,1.98-.39,2.59-.29,2.78.74.69,2.96.63,4.49.39.06-.43.17-1.09.31-1.9Zm-5.98-40.01c.44-.23.71-.66.71-1.15,0-.53-.33-1.01-.83-1.2-.14-.05-.31-.08-.46-.08-.13,0-.27.02-.41.07-.53.17-.89.67-.89,1.21,0,.32.11.62.31.83.42.47,1.09.57,1.57.32Zm-.86,6.16c.18-1.18.37-2.8.44-4.54-.05,0-.11.02-.16.02-.42,0-.82-.1-1.19-.27-.85,2.17-2.03,4.29-3.52,6.31.18.19.33.38.46.56l2.05-3.16c.14-.22.39-.37.64-.34.26,0,.5.14.63.36l.65,1.06Zm-1.05-9.76c.21-1.29.24-2.27.23-2.81-1.23-.37-2.09-.53-2.11-.53-.16-.03-.31-.11-.42-.23-2.25-2.41-4.65-4.01-5.13-3.73-.41.24-.63.5-.68.8-.08.48.26,1.03.42,1.24h0s2,1.96,2,1.96c.29.29.3.76.01,1.06-.15.15-.34.22-.54.22-.18,0-.37-.07-.52-.21l-2.03-1.98s-.01-.02-.02-.02c-.01-.01-.02-.02-.02-.03-.01-.01-.03-.03-.05-.06-.23-.27-.8-.75-1.21-.74-.21.01-.43.17-.64.49-.13.19-.16.39-.11.62.25,1.1,2.13,2.41,2.77,2.79.33.19.46.6.31.95-.76,1.73-.91,6.92-.91,9.51,1.83.08,3.15.51,4.08,1.06,1.51-2.07,2.69-4.23,3.5-6.44-.26-.42-.41-.93-.41-1.47,0-1.04.58-1.97,1.47-2.45Zm-3.79,13.41c-.05-.17-.21-.57-.6-1-.36.88-1.45,3.16-3.46,4.31.26.16.63.27,1.15.2,1.33-.18,2.71-1.87,2.91-3.51Zm-1.88-1.84s.03-.05.04-.08c-.79-.39-1.91-.69-3.5-.71-.49.42-1.89,1.77-1.93,3.58-.01.5.1.85.35,1.06.45.38,1.23.33,1.44.3,2.43-.8,3.58-4.12,3.6-4.15Z"/>
  <path class="cls-1" d="m67.82,35.98c0,.38-.12.73-.32,1.03-.33.49-.89.81-1.52.81-.75,0-1.4-.45-1.69-1.1-.1-.22-.16-.48-.16-.74,0-1.02.83-1.84,1.85-1.84s1.84.82,1.84,1.84Zm-1.5,0c0-.19-.16-.34-.34-.34-.19,0-.35.15-.35.34,0,.18.16.34.35.34.18,0,.34-.16.34-.34Z"/>
  <path class="cls-1" d="m67,31.89c0,.3-.08.59-.22.86-.32.63-.97.99-1.63.99-.29,0-.58-.07-.85-.21-.44-.23-.76-.61-.91-1.08-.14-.47-.1-.96.13-1.4.47-.9,1.58-1.25,2.48-.78.44.23.76.61.91,1.08.06.18.09.36.09.54Zm-1.55.17c.06-.11.04-.21.03-.26-.02-.05-.06-.14-.17-.2-.05-.03-.11-.04-.16-.04-.12,0-.24.07-.3.18s-.04.21-.03.26c.02.05.06.14.17.2.17.08.38.02.46-.14Z"/>
  <path class="cls-1" d="m64.09,39.75c.1.41-.15.81-.55.91-.04.01-.47.11-1.07.11s-1.4-.11-2.08-.54c-.72-.45-1.19-1.15-1.39-2.08-.09-.4.17-.8.57-.89s.8.17.89.57c.12.53.35.9.73,1.13.8.51,1.99.24,2,.24.41-.09.81.15.9.55Z"/>
  <path class="cls-1" d="m64.07,37.12c.09.4-.15.8-.55.9-.05,0-.26.06-.55.06-.32,0-.73-.06-1.11-.3-.39-.25-.66-.64-.77-1.14-.09-.41.17-.81.57-.9.05-.01.1-.01.15-.01.35,0,.66.23.74.59.07.29.38.29.62.24.32-.07.64.07.8.33.05.07.08.14.1.23Z"/>
  <path class="cls-1" d="m61.55,31.8c1.01,0,1.84.82,1.84,1.84,0,.93-.71,1.71-1.61,1.82-.07.01-.15.02-.23.02-1.02,0-1.84-.83-1.84-1.84,0-.38.12-.74.31-1.03.33-.49.89-.81,1.53-.81Zm.34,1.84c0-.19-.15-.34-.34-.34s-.34.15-.34.34c0,.18.15.34.34.34s.34-.16.34-.34Z"/>
  <path class="cls-1" d="m59.17,57.17c1.54,0,2.79,1.25,2.79,2.79s-1.25,2.79-2.79,2.79-2.8-1.26-2.8-2.79,1.25-2.79,2.8-2.79Zm1.29,2.79c0-.72-.58-1.29-1.29-1.29s-1.3.57-1.3,1.29.58,1.29,1.3,1.29,1.29-.58,1.29-1.29Z"/>
  <path class="cls-1" d="m25.13,62.35c.8,1.02.99,2.4.5,3.59-.49,1.2-1.59,2.04-2.87,2.21-.03,0-.06.01-.1.01-.22,0-.44-.11-.59-.29-.79-1.01-.98-2.39-.5-3.58.5-1.2,1.6-2.05,2.88-2.22.26-.03.52.08.68.28Zm-.89,3.03c.23-.56.21-1.18-.04-1.71-.56.2-1.01.63-1.24,1.19s-.21,1.17.05,1.7c.56-.2,1-.62,1.23-1.18Z"/>
  <path class="cls-1" d="m20.2,73.94v.88c0,.41-.33.75-.75.75s-.75-.34-.75-.75v-.88c0-.42.34-.75.75-.75s.75.33.75.75Z"/>
</svg>