<?xml version="1.0" encoding="UTF-8"?>
<svg id="icons" xmlns="http://www.w3.org/2000/svg" viewBox="0 0 120 120">
  <defs>
    <style>
      .cls-1 {
        fill: #121112;
      }
    </style>
  </defs>
  <path class="cls-1" d="m57.05,26.48c.42.23.89.34,1.35.34.52,0,1.03-.14,1.48-.42.15-.09.24-.26.24-.43-.01-1.01-.58-1.95-1.48-2.43-.89-.48-1.98-.45-2.84.08-.15.09-.24.26-.24.44.04,1.01.61,1.94,1.48,2.41Zm1.12-2.06c.49.27.83.74.93,1.27-.51.21-1.08.18-1.57-.09h0c-.48-.26-.82-.73-.92-1.27.5-.21,1.07-.18,1.57.09Z"/>
  <path class="cls-1" d="m65.75,27.87c-.22-.99-.97-1.78-1.95-2.07-.97-.29-2.03-.03-2.76.67-.13.12-.18.31-.14.48.25.98,1,1.77,1.95,2.05.26.08.53.12.8.12.72,0,1.42-.27,1.96-.78.13-.12.18-.3.14-.47Zm-2.62.18c-.52-.15-.95-.54-1.17-1.05.45-.31,1.01-.4,1.55-.24.54.16.96.55,1.17,1.05-.45.31-1.02.4-1.55.24Z"/>
  <path class="cls-1" d="m59.69,28.37c-.06-.03-.23-.1-.36-.48-.14-.39-.57-.59-.96-.46-.39.14-.6.57-.46.96.29.82.8,1.19,1.17,1.36.3.13.6.18.87.18.5,0,.89-.15.95-.18.38-.16.55-.59.4-.97-.15-.38-.59-.57-.97-.42-.1.04-.42.12-.65.01Z"/>
  <path class="cls-1" d="m60.99,30.94c-.63.19-1.6.24-2.42-.21-.64-.35-1.09-.97-1.32-1.82-.11-.4-.52-.64-.92-.53-.4.11-.63.52-.53.92.34,1.24,1.04,2.19,2.04,2.74.65.36,1.41.54,2.18.54.47,0,.95-.07,1.41-.21.4-.12.62-.54.5-.94s-.54-.62-.94-.5Z"/>
  <path class="cls-1" d="m55.06,46.58c-.36-.19-.82-.05-1.01.31-.41.77-1.73,1.6-3.15,1.6h0c-1.38,0-2.54-.8-3.33-2.3-.19-.36-.65-.51-1.01-.31-.37.19-.51.65-.31,1.01,1.05,2,2.71,3.1,4.66,3.1h0c2.08,0,3.85-1.23,4.47-2.39.19-.37.06-.82-.31-1.01Z"/>
  <path class="cls-1" d="m64.87,45.78c-.4-.13-.82.1-.94.49-.26.83-1.4,1.89-2.8,2.15-1.36.25-2.64-.31-3.7-1.65-.26-.32-.73-.38-1.05-.12-.32.26-.38.73-.12,1.05,1.18,1.49,2.66,2.27,4.24,2.27.3,0,.6-.03.91-.08,2.05-.38,3.57-1.92,3.96-3.18.12-.4-.1-.82-.49-.94Z"/>
  <path class="cls-1" d="m16.3,100.65c0,1.05.85,1.9,1.9,1.9s1.89-.84,1.9-1.88c.09,0,.17.03.26.03,1.23,0,2.23-1,2.23-2.23,0-.04-.01-.08-.01-.12.06,0,.11.02.16.02,1.48,0,2.68-1.2,2.68-2.68s-1.2-2.68-2.68-2.68-2.68,1.2-2.68,2.68c0,.2.03.39.07.58-1.12.12-2,1.06-2,2.21,0,.1.02.2.03.29-1.02.03-1.85.86-1.85,1.89Zm6.44-6.16c.65,0,1.18.53,1.18,1.18s-.53,1.18-1.18,1.18-1.18-.53-1.18-1.18.53-1.18,1.18-1.18Zm-2.39,3.24c.41,0,.73.33.73.73s-.33.73-.73.73-.73-.33-.73-.73.33-.73.73-.73Zm-2.15,2.52c.22,0,.4.18.4.4s-.18.4-.4.4-.4-.18-.4-.4.18-.4.4-.4Z"/>
  <path class="cls-1" d="m101.52,94.65c-.45-.4-1.02-.6-1.61-.57-.04,0-.08.01-.12.02,0-.06.01-.11,0-.16-.08-1.48-1.35-2.6-2.83-2.53-1.48.08-2.61,1.35-2.53,2.83.08,1.43,1.27,2.53,2.68,2.53.05,0,.1,0,.15,0,.2-.01.39-.05.57-.1.17,1.07,1.1,1.88,2.2,1.88.04,0,.08,0,.12,0,.1,0,.19-.03.29-.04.08.98.91,1.74,1.89,1.74.04,0,.07,0,.11,0,.51-.03.97-.25,1.31-.63.34-.38.51-.87.48-1.37-.03-.51-.25-.97-.63-1.31-.37-.33-.87-.5-1.35-.48,0-.09.02-.17.01-.26-.03-.6-.3-1.14-.74-1.54Zm-4.34.62c-.68.04-1.21-.47-1.25-1.12-.04-.65.46-1.21,1.12-1.25.66-.05,1.21.46,1.25,1.12s-.46,1.21-1.12,1.25Zm2.89,1.78c-.42.02-.75-.29-.77-.69-.02-.4.29-.75.69-.77.01,0,.03,0,.04,0,.18,0,.35.07.49.19.15.13.23.31.24.51s-.05.38-.19.53c-.13.15-.31.23-.51.24Zm2.26.9c.1,0,.19.04.26.1.08.07.13.17.13.28,0,.11-.03.21-.1.29s-.17.13-.28.13c-.23,0-.41-.16-.42-.38-.01-.22.16-.41.38-.42,0,0,.02,0,.02,0Z"/>
  <path class="cls-1" d="m110.87,107.73c-.15-.44-.49-.79-.93-.95l-4.36-1.58c-3.07-1.12-5.76-2.76-8-4.88-.38-.36-.53-.54-.58-.6-.03-.09-.08-.17-.15-.24,0,0,0-.02-.02-.03-.04-.04-1.51-1.62-3.49-3.98l.68-3.74,7.3-1.4c.41-.08.67-.47.6-.88-.08-.41-.48-.67-.88-.6l-7.62,1.46c-2.2-.68-3.35-2.94-4.56-5.33-1.42-2.8-2.89-5.69-6.22-6.03-.84-1.61-1.83-3.21-2.89-4.73.06-.89.3-1.55.77-1.98,1.13-1.05,3.58-.91,5.96-.78,1.61.09,3.28.18,4.74-.06,1.71-.28,2.24-1.3,2.4-1.88.39-1.37-.4-3.2-1.96-4.53-1.78-1.53-3.97-1.93-5.85-1.08-.93.42-1.82.9-2.69,1.36-2.13,1.14-4.14,2.21-5.49,1.73-.51-.18-.96-.59-1.35-1.25.67-.26,1.43-.74,2.02-1.6.52.06,1.05.11,1.58.11,6.72,0,14.45-4.75,15.24-5.26,1.84-.8,2.29-3.08,2.37-4.59,1.33.13,2.33-.35,2.78-1.37.58-1.29.12-3.52-.99-4.87-.9-1.08-2.12-1.51-3.44-1.2-2.75.65-3.92,4.86-4.32,7.26h-.02c-2,0-7.12.26-13.05,2.55-.12-.36-.25-.72-.38-1.08,3.62-.61,9.73-6.81,14.51-12.31.8-.92,1.34-2.04,1.55-3.23.32-1.79.45-3.89.45-3.95.08-.88.38-5.29-1.93-5.74-2.28-.44-4.15,1.79-4.35,2.05-.55.68-.42,1.76-.13,2.69-.5-.19-.89-.24-1.26.02-.51.36-.45,1.04-.42,1.33.12,1.26,1.01,2.35,1.93,3.06l-9.12,7.04-2.96-3.59c0-.34-.09-.67-.26-.96,1.44-3.47,2.59-14.19-2.48-18.68.34-1.11.66-2.39.89-3.87.43-2.69.47-4.06-.46-4.58-.83-.47-1.83.05-3.67,1.53-.36-2.08-1.18-5.64-2.71-6.47-1.2-.65-3.58.31-8.65,2.7.64-2.63.58-4.2-.2-4.66-.22-.13-.79-.36-1.49.33-.16.16-3.26,3.27-5.06,7.46-4.46.32-14.27,5.59-15.3,17.76-.62-.03-1.2-.05-1.7-.05-.02,0-.03-.01-.05-.01-.02,0-.04,0-.06,0-.76-.01-1.43,0-1.97.05l-4.46-13.49c.14-.7.3-2.62-1.53-4.89-.31-.37-.64-.67-1-.92-.24-1.45-.73-3.21-2.06-3.41-.55-.09-.92.11-1.14.29-.45.36-.66.96-.78,1.82-.18-.11-.29-.25-.38-.46-.61-1.41-1.78-1.82-2.67-1.6-.92.23-1.8,1.19-1.69,2.85.18,2.68,1.37,4.71,3.54,6.05,1.38.85,2.33,1.46,2.8,1.76.08,1.91.46,10.17,1.7,15.62.55,2.4,2.51,4.31,5.82,5.67,1.63.67,3.33,1.11,4.72,1.38-2.24.85-5.19,2.12-6.71,3.46-1.49-.59-6.22-2.41-9.25-3.07-.15-1.42-.81-4.82-3.84-5.61-.07-.02-.13-.03-.2-.04-1.71-2.23-4.11-2.58-5.57-1.72-1.06.62-1.77,2.01-.94,3.7.22.46.44.93.66,1.41.7,1.51,1.42,3.04,2.35,4.34-.04.09-.07.17-.11.26-.83,1.95-1.69,3.96-.47,5.93,2.17,3.49,6.61,4.15,6.8,4.17.04,0,.07,0,.1,0,.37,0,.69-.27.74-.65.06-.41-.23-.79-.64-.85-.04,0-3.94-.59-5.73-3.48-.74-1.19-.27-2.54.38-4.09.49.48,1.03.9,1.64,1.22.07.04,7.17,4.14,10.2,6.36.8.59,1.74.82,2.71.82,1.87,0,3.87-.85,5.27-1.59-.54,1.69-.85,3.18-.98,4.49-3.13-2.72-6.59-3.13-8.63-1.99-1.58.88-2.18,2.56-1.62,4.5,1.38,4.74,6.99,5,11.08,5.2.24.01.46.02.69.03.67,1.51,1.5,2.98,2.43,4.36.15.69-.88,1.36-2.58,2.35-2.31,1.35-5.48,3.2-4.71,6.79,1.29,6.01-2.52,8.43-3.3,8.86-2.51,1.37-7.09,3-8.83,2.54-.4-.11-.81.13-.92.54-.1.4.14.81.54.92.34.09.71.13,1.12.13,2.62,0,6.43-1.63,8.18-2.48-.3,3.46,1.42,7.88,1.51,8.1.12.29.4.47.7.47.09,0,.19-.02.28-.05.39-.15.57-.59.42-.97-.63-1.58-2.02-6.12-1.18-8.59,2.24-1.76,3.97-5.04,2.96-9.76-.5-2.34,1.34-3.62,4-5.18,1.12-.65,2.25-1.32,2.87-2.15.28.37.56.73.84,1.08-3.42,3.56-5.19,9.01-5.98,14.27,0,.01-.01.02-.01.03,0,.02,0,.03,0,.04-.72,4.87-.62,9.56-.2,12.37.04.24.18.44.39.55.02.01.11.06.24.12v1.88c0,.18-.11.34-.28.4l-8.42,3.06c-.44.16-.78.51-.93.95-.15.44-.09.92.17,1.32l.46.72c.73,1.13,1.96,1.8,3.3,1.8h11.46c1.25,0,2.42-.67,3.06-1.75.74-1.25.64-2.8-.23-3.95l-.47-.62v-2.69c.48-.11.95-.25,1.43-.44.73.54,2.43,1.53,4.92,1.53,1.72,0,3.83-.48,6.25-1.92.51-.3.97-.72,1.37-1.25.32-.42.57-.88.73-1.34,1.43-3.99,2.25-8.94,2.48-15.23,0-.02,0-.03,0-.05.17-4.77.02-10.29-.48-16.78,0-.02,0-.04,0-.07-.06-.83-.14-1.69-.21-2.55.17-.04.35-.07.52-.11,2.84,18.59.31,37.57.28,37.76-.06.41.23.79.64.85.03,0,.07,0,.1,0,.37,0,.69-.27.74-.65.03-.2,2.62-19.54-.32-38.43.4-.15.79-.31,1.17-.49v.79c0,1.62.05,3.25.12,4.86,0,.03,0,.05,0,.08.08,1.83.21,3.64.38,5.44,0,.02,0,.04,0,.05.06.65.12,1.31.2,1.96,1.08,9.4,2.82,18.95,4.06,24.25,0,.02.02.04.02.06.01.04.03.07.04.1.02.05.05.1.09.14.02.03.04.05.07.08.05.04.1.08.15.11.02.01.03.03.05.04.44.19,7.21,3.09,15.71,3.09,3.02,0,6.27-.37,9.52-1.35l2.04,2.44-.27.35c-.88,1.15-.97,2.71-.23,3.95.64,1.08,1.81,1.75,3.06,1.75h11.46c1.34,0,2.58-.67,3.3-1.8l.46-.72c.25-.39.31-.87.17-1.32Zm-31.58-31.5c-4.7.64-14.24,1.17-16.87-2.1-.09-.99-.17-1.98-.23-2.98,2.54,2.29,6.14,2.9,9.25,2.9,2.62,0,4.88-.43,5.86-.65.68.91,1.35,1.85,1.99,2.82Zm-6.99,1.98c3.47,0,6.65-.41,7.87-.59.77,1.27,1.46,2.56,2.01,3.83-5.2.96-16.51,2.18-19.05-1.51-.01-.02-.04-.03-.05-.05-.15-1.16-.3-2.33-.43-3.49,0-.04,0-.08-.01-.11,2.38,1.5,6.17,1.93,9.67,1.93Zm-8.91,3.98c2.1,1.35,5.37,1.77,8.68,1.77,4.48,0,9.01-.78,10.75-1.11.6,1.25,1.33,2.53,2.13,3.81-3.53.98-16.06,4.05-20.95-.39-.21-1.33-.41-2.7-.61-4.08Zm.94,6.16c2.21,1.3,5.12,1.76,8.12,1.76,5.65,0,11.54-1.6,13.35-2.13,1.39,2.09,2.91,4.13,4.34,5.94-4.37,1.22-18.64,4.61-25.05-1.18-.26-1.4-.51-2.87-.77-4.4Zm23.19-2.69c1.23,2.42,2.51,4.9,5.01,5.9l-.39,2.12c-.12-.09-.25-.16-.4-.18-2.95-3.67-6.41-8.44-8.11-12.49-.05-.11-.1-.21-.15-.32,1.86.7,2.89,2.69,4.04,4.97Zm-10.39-17.22c1.97.69,4.27-.53,6.7-1.82.84-.45,1.72-.92,2.6-1.32,1.34-.61,2.93-.29,4.26.85,1.07.92,1.71,2.2,1.49,2.99-.12.42-.52.69-1.2.8-1.3.21-2.88.12-4.41.04-2.81-.16-5.46-.31-7.06,1.17-.42.39-.73.87-.94,1.43-2-2.67-4.03-4.98-5.47-6.52.36.05.73.08,1.08.08.2,0,.39-.03.59-.04.62,1.21,1.39,1.99,2.36,2.34Zm-1.51-4.02c-2.21.78-5.5-.54-7.46-2.17-2.99-2.49-5.65-5.05-4.94-6.93.38-1,.82-1.39,1.08-1.42.14-.02.24.09.27.14.04.05.11.19.02.35-.85,1.55-.45,3.39.94,4.28.35.22.81.12,1.04-.23.22-.35.12-.81-.23-1.04-.73-.47-.91-1.43-.44-2.29.22-.41.26-.87.16-1.31.15-.14.31-.27.47-.38-.31.75-.41,1.56-.25,2.32.13.6.46,2.17,1.92,2.17.07,0,.14,0,.21-.01,1.05-.1,1.09-1.34,1.12-2.16,0-.16.01-.38.03-.5.16-.25.15-.58-.03-.84-.24-.33-.71-.41-1.05-.16-.41.3-.42.81-.45,1.45,0,.15-.01.36-.03.55-.08-.14-.16-.38-.25-.8-.17-.8.15-1.72.83-2.43.01,0,.03,0,.04,0,.65.21,1.07.79,1.13,1.57.15,1.68.35,3.47.46,4.39.06.47.31.9.69,1.17.28.2.62.31.96.31.12,0,.24-.01.36-.04.49-.11,1.33-.25,2.56-.28.41-.01.74-.36.73-.77-.01-.41-.34-.73-.75-.73,0,0-.01,0-.02,0-1.09.03-2.04.14-2.85.32-.06.01-.1,0-.13-.02-.03-.02-.06-.06-.07-.12-.11-.91-.31-2.68-.46-4.34-.12-1.39-.93-2.46-2.16-2.87-.22-.07-.44-.11-.67-.14-.02,0-.03,0-.05,0-.35-.04-.7-.02-1.06.05-.28-1.76-1.06-2.44-1.55-2.7-.56-.29-1.21-.26-1.68.06-.42.29-.63.75-.58,1.25.07.66.05,1.81.03,2.49-.57.27-1.2.87-1.7,2.19-.63,1.66.18,3.37,1.59,5.03-1.31,1.02-5.04,3.62-8.76,3.38-1.68-.11-3.16-.8-4.42-2.05.14-.12.23-.27.26-.45.04-.27.39-2.66-.76-4.07-1.79-2.81-3.81-8.41-3.83-8.47-.12-.33-.44-.53-.8-.49-.35.04-.62.32-.66.67-.41,3.95-5.18,13.08-5.23,13.17-.14.26-.11.58.07.81.93,1.19,2.29,4.94,3.25,8.07,0,0,0,0,0,0,.07.22.11.36.11.36.08.3.35.53.66.55,2.19.19,4.72.59,5.84.97-.81.27-2.35.54-3.87.66-.28.02-.53.2-.64.47-.11.26-.05.56.13.78.14.16.77.74,2.82,1.39,1.02.32,2.07.25,2.93.19.59-.04,1.2-.08,1.45.05-.35.42-1.64,1.23-3.44,1.68-1.38.34-3.95.68-5.74-.86-3.8-3.27-9.27-10.81-8.93-16.62.1-1.76.66-3.98,1.64-6.6,1.59-4.23,3.78-8.11,4.28-8.98,0-.01,0-.03.02-.05.04-.07.06-.14.08-.21,0-.03.03-.06.03-.1.01-.1,0-.2-.03-.3,0,0,0-.01,0-.02,0-.01,0-.02,0-.03-.03-.08-.07-.15-.13-.21,0,0-.01,0-.02-.01-.05-.06-.12-.11-.19-.15-.02,0-.03-.02-.05-.03-.07-.03-.15-.06-.23-.07,0,0-.02,0-.02,0,0,0,0,0-.01,0-.04,0-3.61-.28-6.92-1.54,0-.33.01-.83.1-1.41,1.15-.11,2.06-1.07,2.06-2.26,0-.56-.22-1.07-.56-1.47.42-.56.93-1.04,1.51-1.47.61,0,1.28.03,2.07.07.03,0,.06.02.09.02.01,0,.03,0,.04,0,.02,0,.04-.01.06-.01l.51.04c.22.84.97,1.46,1.88,1.46.79,0,1.47-.48,1.78-1.16.25.02.51.05.76.07-.23.4-.42.77-.56,1.09-.07,0-.14-.02-.22-.02-1.08,0-1.95.87-1.95,1.95s.88,1.95,1.95,1.95,1.95-.88,1.95-1.95c0-.45-.16-.86-.42-1.19.19-.44.49-1.03.92-1.65.28.03.57.06.85.09h.07c.02.33.07.68.16,1.03-.37.36-.61.85-.61,1.41,0,1.08.87,1.95,1.95,1.95.75,0,1.4-.43,1.72-1.06,4.59,1.14,4.54,3.74,4.53,3.85-.03.41.28.77.69.8.02,0,.04,0,.06,0,.39,0,.72-.3.75-.7.01-.17.2-4.05-5.91-5.47-.25-.75-.94-1.29-1.76-1.32-.02-.11-.03-.21-.04-.32,1.78.21,3.29.4,4.2.52,1.06,1.57,2.64,2.6,4.51,2.89.38.06.76.09,1.14.09,1.55,0,3.08-.5,4.2-1.34l4.27.57c.23.36.49.68.77.94-.24.72-.86.8-2.58.67-.71-.05-1.44-.1-2.16,0-3.17.43-4.01,2.75-4.01,3.92,0,.41.33.74.74.75h0c.41,0,.74-.33.75-.74,0-.21.12-2.09,2.71-2.44.56-.08,1.22-.03,1.85.02,1.41.1,3.26.22,3.99-1.39.16.05.32.08.48.1.14.47.36,1.57-.15,2.71-1.02-.17-2.02.49-2.24,1.51h0c-.22,1.05.45,2.09,1.5,2.31.14.03.27.04.41.04.37,0,.74-.11,1.06-.32.44-.28.74-.72.84-1.23.12-.54-.01-1.08-.3-1.51.41-.81.54-1.61.54-2.3.78,1.21,1.14,2.46,1.3,3.24-.33.28-.56.65-.65,1.08-.11.51-.01,1.03.27,1.47.28.44.72.74,1.23.84.14.03.27.04.4.04.22,0,.43-.04.63-.11.76,1.15,2.5,3.91,3.78,6.84,0,.02.01.03.02.05,1.02,2.36,1.74,4.82,1.38,6.61-.27,1.32-.95,2.18-2.02,2.56Zm-10.61-14.33s.08.03.13.06c.15.1.61.52.75,1.91-.25.16-.5.33-.73.54-.04-.02-.08-.04-.13-.06.02-.67.03-1.73-.02-2.45Zm-17.75,16.28l-3.59,2.57c-.69-2.13-1.86-5.51-2.91-7.16.78-1.51,3.43-6.82,4.63-10.79.79,1.96,1.97,4.7,3.11,6.47.02.03.04.06.06.09.56.65.56,1.95.49,2.64-.46.46-1.42,1.62-1.73,3.61-.15,1-.1,2-.05,2.57Zm-15.05-29.11c.13,0,.24.03.36.1.25.13.41.39.41.67,0,.5-.43.91-.98.75-.33-.09-.56-.4-.56-.75,0-.42.34-.77.77-.77Zm17.68-5.76c-.56.52-1.23.87-1.84.97-.29.05-.83.08-1.13-.25-.31-.33-.23-.86-.16-1.15.15-.6.56-1.24,1.12-1.76.75-.69,1.57-1,2.19-1,.34,0,.62.1.79.28.31.33.23.86.16,1.15-.15.6-.56,1.24-1.12,1.76Zm-2.72,6.79c0,.25-.2.45-.45.45s-.45-.2-.45-.45c0-.05.01-.1.03-.14.02,0,.04,0,.06,0,.11,0,.21-.02.31-.07.1-.05.18-.11.25-.19.14.08.24.22.24.39Zm-5.49-.1c.08.22.24.41.49.48.04.01.08.01.11.02-.04.21-.21.37-.43.37-.25,0-.45-.2-.45-.45,0-.19.12-.35.28-.42Zm1.93-4.01c-.57-.06-1.15-.11-1.72-.17-.04-.09-.07-.18-.12-.26,1.21-.82,2.48-1,3.28-1-.56.45-1.04.94-1.44,1.43Zm-3.52.1c.07,0,.14.02.22.06.11.06.23.19.23.39h.01s0,0,0,0h-.01c0,.24-.21.45-.45.45s-.45-.2-.45-.45c0-.04,0-.07,0-.08.04-.22.21-.37.44-.37Zm30.28-5.9l.04.03-.04-.02s0,0,0,0Zm-1.6.51c-.63.45-1.31.77-1.9.97l.26-.71.87-2.37c.95-2.58-.37-5.45-2.94-6.4l-4.29-1.59c-.3-.11-.6-.19-.91-.24-.1-.02-.19-.02-.29-.03-.18-.02-.35-.05-.53-.05-.05,0-.09,0-.14,0-.04,0-.09,0-.13,0-.29.02-.57.05-.86.12-.03,0-.06.02-.09.02-.3.08-.59.17-.87.3-1.21.56-2.13,1.55-2.59,2.8l-1.36,3.68s0,.01,0,.02c-.31-.53-.53-1.1-.67-1.69,3.66-8,6.13-7.16,11-5.47,5.07,1.76,6.76,3.08,5.44,10.6Zm-10.93,4.47c-2.52-.93-4.05-3.44-3.74-6.1.05-.44.16-.87.32-1.31l1.36-3.68c.32-.88.97-1.57,1.81-1.96.22-.1.45-.18.68-.23.08-.02.17-.02.25-.03.15-.02.3-.05.46-.05.15,0,.29.01.44.03.07,0,.13,0,.2.02.21.04.43.09.64.17l4.29,1.59c.45.17.84.42,1.17.73.99.93,1.38,2.4.88,3.75l-1.36,3.67c-.09.23-.18.46-.3.67,0,0,0,0,0,0,0,0,0,0,0,0,0,.02-.02.03-.03.05,0,0,0,0,0,0-1.36,2.52-4.38,3.67-7.07,2.68Zm-2.83,0c.66.59,1.43,1.08,2.31,1.4.73.27,1.48.41,2.23.44l.27,1.89c-1.09.77-2.66,1.11-4.12.87-.89-.14-2.05-.56-3.02-1.64.52-.46,1.74-1.63,2.33-2.96Zm12.02,11.41c.05.09.12.17.2.24.11.08.23.12.36.13,0,.05,0,.1,0,.15-.03.12-.09.22-.2.28-.1.07-.22.09-.34.06-.24-.05-.4-.29-.35-.53.04-.17.17-.29.32-.33Zm1.09-5.71c-.67.22-1.75-.59-2.24-2.09-.49-1.5-.08-2.79.58-3.01.07-.02.15-.04.23-.04.67,0,1.58.79,2.01,2.12.49,1.5.08,2.79-.58,3.01Zm4.17,7.55c-.05.24-.3.4-.53.35-.12-.02-.22-.09-.28-.19-.05-.08-.07-.17-.06-.26.02,0,.04.01.06.01.02,0,.04,0,.06,0,.25-.02.46-.17.58-.37.15.1.23.28.19.46Zm14.96,9.46c.66-.09,1.27-.16,1.81-.21,0,1.48,1.07,2.9,1.87,3.75-.59.29-1.24.59-1.93.89-.74-.65-2.42-2.39-1.75-4.43Zm4.26-.33h.02c.69,0,1.29-.49,1.42-1.18.5-2.71,1.62-5.73,3.25-6.12.77-.18,1.4.05,1.94.69.85,1.03,1.06,2.69.78,3.3-.2.45-.7.6-1.5.46-.01,0-.02,0-.04,0,0,0,0,0,0,0-.03,0-.84-.16-1.13-1.97-.07-.41-.45-.69-.86-.62-.41.07-.69.45-.62.86.23,1.45.78,2.24,1.31,2.68-.01.07-.05.12-.05.19-.02.71-.18,3.07-1.52,3.62-.04.02-.08.04-.12.06-.03.02-.81.51-2.04,1.17-.73-.72-1.83-2.05-1.76-3.12.39-.02.71-.02.94-.02Zm-5.86.58c-.3,1.94.76,3.68,1.83,4.8-2.69,1.03-5.77,1.82-8.51,1.6.05-.18.11-.36.15-.56.23-1.15.09-2.51-.25-3.91,2.45-.95,4.78-1.55,6.78-1.92Zm2.41-14.5c.48,1.2,1.24,1.93,1.84,2.36-.42.47-.84.93-1.26,1.37-.58-.36-1.57-1.17-2.09-2.57l1.51-1.16Zm0-5c.07.03.14.06.2.09.5.23,1.19.56,2.06.87.39.14.82-.06.96-.45.14-.39-.06-.82-.45-.96-.26-.09-.49-.19-.71-.28-.4-.76-.91-2.3-.66-2.62.5-.62,1.75-1.73,2.9-1.51.32.06.55.71.67,1.57,0,.03-.02.19-.17.31-.13.11-.57.34-1.72.13-.41-.07-.8.2-.87.61-.07.41.2.8.61.87.39.07.76.1,1.09.1.44,0,.82-.06,1.16-.18,0,.25-.02.5-.04.74,0,.02-.13,2.1-.43,3.8-.17.92-.58,1.79-1.21,2.5-.19.22-.37.42-.56.63-.48-.31-1.21-.97-1.58-2.21l.5-.39c.28-.21.43-.55.41-.89-.02-.35-.2-.66-.5-.84-.81-.5-1.44-1.23-1.67-1.9Zm-8.83,11.5c.24,0,.48-.08.69-.23l5.38-4.15c.61,1.36,1.58,2.22,2.29,2.71-4.74,4.93-8.52,7.82-10.11,7.62-1.39-3.12-3.18-5.9-3.87-6.93.06-.14.12-.28.15-.43.22-1.05-.45-2.09-1.5-2.31-.07-.02-.14-.02-.22-.02-.24-1.12-.81-2.88-2.1-4.46.78.17,1.99.6,3,1.66-.22.25-.39.54-.46.89h0c-.22,1.05.45,2.09,1.5,2.31.14.03.27.04.41.04.37,0,.74-.11,1.06-.32.06-.04.11-.09.17-.14l2.75,3.33c.22.27.54.41.87.41Zm-5.29-5.34c.05-.24.3-.4.53-.35.12.02.22.09.28.19s.09.22.06.34c-.03.12-.09.22-.19.28-.1.07-.22.09-.34.06-.24-.05-.4-.29-.35-.53Zm.89-1.8s-.03-.01-.05-.02c-.14-.03-.28-.04-.42-.04-1.34-1.62-3.05-2.24-4.13-2.48.27-.88.26-1.96-.1-3.07h0c-.73-2.23-2.54-3.57-4.13-3.05-1.52.5-2.19,2.49-1.62,4.61l-3.1-.41-.24-1.65c2.05-.35,3.91-1.58,5.03-3.45.89-.19,3.26-.84,4.76-2.58,0,0,.06-.06.19-.22.1-.13.26-.34.44-.64.43-.65,1.03-1.71,1.61-3.21,3.87,4.1,2.88,13.01,1.77,16.19Zm-16.9-31.26c-.03.66-.19,1.8-.69,3.55-.38.14-.87.46-1.43,1.13-.26.32-.22.79.1,1.06.14.11.31.17.48.17.22,0,.43-.09.58-.27.47-.57.77-.68.83-.7.02,0,.03,0,.05,0,.06,0,.12-.01.18-.03.01,0,.02,0,.04-.01.03,0,.06-.01.08-.03l.98-.46c2.61-1.23,6.99-3.28,7.79-2.97.87.47,1.78,3.83,2.14,6.67,0,0,0,.02.01.03.02.1.05.2.11.29.05.18.11.72.13,1.2.01.41.35.73.75.73,0,0,.01,0,.02,0,.41-.01.74-.36.73-.77-.02-.6-.07-1.01-.13-1.31,1.28-1.06,2.16-1.69,2.57-1.83.06.3.06,1.06-.24,2.97-.25,1.62-.61,3-.99,4.14,0,0,0,0,0,.01-.48,1.44-1,2.51-1.44,3.26.63-6.51-1.83-8.18-6.76-9.89-4.86-1.69-8.02-2.39-11.48,3.56.09-.36.2-.72.34-1.07.02-.04.03-.09.04-.13.82-3.82,3.55-7.51,5.2-9.3Zm-6.27,7.53c-.15.45-.28.91-.38,1.38-.68,1.67-.81,3.41-.45,5.03,0,.03,0,.06.02.08.29,1.26.88,2.44,1.76,3.45-.12,1.67.33,3.28,1.23,4.6-.07.98-1.21,2.33-2.09,3.12l-.26-.03c-.85-.12-2.56-.33-4.62-.57.07-.23.14-.43.22-.6.2.04.41.07.62.07.19,0,.39-.02.59-.05.9-.15,1.83-.63,2.61-1.35s1.33-1.6,1.56-2.49c.25-.99.07-1.91-.51-2.54-1.13-1.23-3.37-.95-5.1.63-.78.72-1.33,1.6-1.56,2.49-.05.19-.06.37-.08.55-1.1-.02-3,.2-4.73,1.58-.13-.03-.27-.05-.41-.05-.67,0-1.27.34-1.62.88.96-10.61,8.97-15.49,13.19-16.19Zm-32.71-3.74c-.05-.78.24-1.21.55-1.29.34-.08.71.22.93.74.38.89,1.06,1.25,1.64,1.43,0,.08,0,.14-.01.22-.04.68-.08,1.45-.17,2.23-.05.41.25.78.66.83.03,0,.06,0,.09,0,.38,0,.7-.28.74-.67.09-.82.14-1.62.17-2.32.02-.29.03-.57.05-.83,0,0,0,0,0,0,0,0,0,0,0,0,.09-1.28.23-1.61.29-1.66.1.02.56.5.85,2.46,0,0,0,0,0,0,.16,1.17.18,2.27.18,2.28,0,.41.34.74.75.74h.01c.41,0,.74-.35.74-.76,0-.02,0-.15-.01-.35,1.2,1.81.82,3.1.8,3.15-.05.13-.05.27-.02.41-.51.33-1.46.8-2.26.25,0,0,0,0,0,0,0,0,0,0,0,0,0,0-1.13-.75-3.16-1.99-1.73-1.07-2.68-2.7-2.83-4.87Zm8,23.19c-1.08-4.73-1.5-11.86-1.63-14.6.15.02.29.03.43.03.74,0,1.41-.27,1.91-.55l4.26,12.89c.12.35.48.56.83.5.11-.02.24-.03.37-.05-.19.21-.36.43-.53.66-.13-.02-.27-.05-.41-.05-1.25,0-2.27,1.02-2.27,2.27,0,.78.4,1.49,1.02,1.9-.07.42-.1.79-.12,1.12-2.2-1.1-3.5-2.49-3.88-4.14Zm-15.41,4.87c-.23-.49-.45-.97-.68-1.44-.37-.76-.24-1.4.36-1.75.63-.37,1.57-.32,2.49.27-.76.13-1.2.44-1.43.7-.42.46-.55,1.09-.34,1.64.2.55.69.94,1.29,1.02l.15.02c.23.93.11,1.85-.18,2.78-.61-1.01-1.13-2.13-1.65-3.24Zm14.79,12.64c-3.09-2.27-10.04-6.28-10.36-6.46-.66-.35-1.22-.86-1.72-1.45.43-1.1.79-2.27.75-3.5.09.31.37.53.71.53.41,0,.75-.34.75-.75,0-1.66-1.63-1.88-2.81-2.03l-.3-.07s.02-.09.04-.12c.17-.19.81-.41,2.09-.14,0,0,0,0,.01,0,.12.03.24.05.37.08,2.65.7,2.76,4.76,2.76,4.8,0,.36.27.66.62.73,3.29.58,9.91,3.25,9.97,3.27.09.04.19.05.28.05.21,0,.41-.08.55-.24,1.27-1.37,4.99-2.91,7.55-3.82-.91,1.71-2.28,4.43-3.39,7.33-1.64,1.12-5.77,3.32-7.87,1.78Zm7.01,11.13c-3.84-.18-8.63-.4-9.71-4.12-.37-1.26-.04-2.24.9-2.77,1.72-.95,5.04-.31,7.87,2.74.1,1.35.44,2.75.94,4.15,0,0,0,0,0,0Zm8.48,12.2c1.29,1.1,2.88,1.51,4.47,1.51,2.5,0,4.98-1.01,6.21-1.94,1.23-.92,1.12-1.69.95-2.06-.54-1.19-1.86-1.1-3.03-1.02-.8.06-1.63.11-2.37-.12-.03-.01-.06-.02-.1-.03.66-.12,1.3-.28,1.83-.49.19.02.47.05.85.05.97,0,2.45-.19,3.83-1.12.72-.49,1.31-1.12,1.8-1.88.13,2.2.22,4.28.27,6.25-4.63,7.07-17.63,5.43-21.08,4.85.92-2.56,2.17-4.84,3.79-6.58.88,1,1.76,1.87,2.58,2.58Zm14.14,12.89c-6.96,5.3-19.7,5.08-22.73,4.95,0-1.98.14-4.12.43-6.28,1.23.17,3.78.46,6.86.46,5.06,0,11.53-.79,15.9-4.18-.1,1.8-.26,3.49-.47,5.05Zm-20.99-7.44c1.27.23,4.14.67,7.5.67,4.8,0,10.58-.9,14.1-4.59,0,1.49,0,2.9-.06,4.26-6.17,6.02-19.35,4.72-22.62,4.29.27-1.57.62-3.13,1.07-4.63Zm3.51,26.85h-11.46c-.83,0-1.59-.42-2.04-1.11l-.45-.77,5.15-1.87c.91,1.52,2.64,2.6,4.95,3.05.77.15,1.57.22,2.34.22,1.2,0,2.33-.18,3.25-.49-.37.6-1.03.97-1.73.97Zm1-4.12l.63.82c.14.18.24.39.31.6-.99.61-3.27.96-5.5.52-1.06-.21-2.82-.75-3.79-2.11l1.82-.66c.76-.28,1.26-1,1.26-1.81v-1.28c1.27.44,3.12.87,5.12.73v2.72c0,.16.05.32.15.45Zm14.64-7.32c-.11.32-.29.63-.52.94-.28.37-.59.66-.94.86-6.06,3.6-9.63.4-9.77.26-.23-.21-.56-.27-.84-.13-.57.27-1.16.45-1.74.57-.07-.03-.15-.05-.23-.05-.16,0-.31.06-.43.15-2.7.31-5.24-.68-6.13-1.08-.12-.93-.2-1.95-.24-3.04.58.03,1.44.06,2.51.06,4.8,0,13.74-.59,19.87-4.47-.39,2.2-.89,4.17-1.53,5.93Zm1.92-31.48c-.49,2.45-1.64,4.03-3.45,4.69-.55.2-1.08.28-1.52.32,0-.05,0-.1,0-.15-.1-.4-.36-1.42-6.22-2.07l3.64-2.61c.23-.16.35-.44.31-.72,0-.01-.19-1.34,0-2.59.11-.7.31-1.25.53-1.68,1.49,1.42,3.25,2.2,5.24,2.33.2.01.39.02.58.02.23,0,.47-.02.7-.03.07.84.14,1.67.2,2.48Zm8.39-6.24c.85.85,1.81,1.69,2.77,2.48.84.7,1.88,1.34,2.99,1.82.41.4,3.17,3.17,6.08,6.86-2.96.55-10.89,1.49-14.21-3.34-.06-1.52-.11-3.04-.11-4.56v-1.58c1.12-.65,1.98-1.29,2.48-1.69Zm2.16,39.19c-.34-1.46-.7-3.21-1.08-5.18,3,1.95,6.93,2.62,10.85,2.62,6.38,0,12.68-1.71,14.81-2.35,1.67,2.04,3.11,3.67,3.92,4.55-12.16,6.32-26.16,1.27-28.49.36Zm25.8,2.45c1.23-.45,2.45-1,3.66-1.65.13.14.29.3.49.49,1.52,1.45,3.26,2.66,5.15,3.67-1.51.99-4.64,2.45-7.29-.1l-2.01-2.41Zm16.58,6.39c-.45.7-1.21,1.11-2.04,1.11h-11.46c-.72,0-1.4-.39-1.76-1.01-.43-.72-.37-1.62.13-2.28l.15-.19c1.22.94,2.52,1.3,3.78,1.3,2.17,0,4.2-1.06,5.45-2.05.6.27,1.21.54,1.84.77l4.37,1.63-.46.72Z"/>
  <path class="cls-1" d="m57.52,59.73c-.13-.39-.55-.6-.95-.47-.39.13-.6.56-.47.95l.5,1.48c.11.31.4.51.71.51.08,0,.16-.01.24-.04.39-.13.6-.56.47-.95l-.5-1.48Z"/>
  <path class="cls-1" d="m62.47,23.27c.21-.43.16-.93-.1-1.3-.45.03-.87.29-1.08.73-.21.43-.16.93.1,1.3.45-.03.87-.29,1.08-.73Z"/>
</svg>