<?xml version="1.0" encoding="UTF-8"?>
<svg id="icons" xmlns="http://www.w3.org/2000/svg" viewBox="0 0 120 120">
  <path d="m60.63,40.04h1.8c.41,0,.75-.34.75-.75s-.34-.75-.75-.75h-1.99c-.41,0-.75.34-.75.75s.34.75.75.75h.19Z"/>
  <path d="m61.43,34.1s0,0,0,0,0,0,0,0c.41,0,.75-.34.75-.75v-1.68c0-.41-.34-.75-.75-.75,0,0,0,0,0,0s0,0,0,0c-.41,0-.75.34-.75.75v1.68c0,.41.34.75.75.75Z"/>
  <path d="m58.66,37.18c.86,0,1.68-.33,2.3-.94.29-.29.3-.77,0-1.06-.29-.3-.77-.3-1.06,0-.33.33-.77.51-1.24.51h-.01c-.47,0-.92-.19-1.25-.53-.29-.3-.77-.3-1.06,0-.29.29-.3.77,0,1.06.61.62,1.43.97,2.3.97h.02Z"/>
  <path d="m56.1,80.06c-.4-.24-.89-.22-1.28.04l-4.38,2.99c-1.04.71-1.68,1.88-1.73,3.14-.04,1.18.45,2.26,1.35,2.97.14.11.29.21.44.31.16.09.32.17.48.24.44.19.91.28,1.37.28.65,0,1.29-.18,1.88-.53,1.08-.65,1.8-1.78,1.93-3.02h0s.51-5.27.51-5.27c.05-.47-.18-.9-.58-1.14Zm-1.43,6.27c-.08.78-.52,1.48-1.2,1.88-.61.36-1.28.42-1.9.16-.1-.04-.2-.09-.3-.15-.1-.06-.19-.12-.28-.19-.53-.42-.8-1.04-.78-1.74.03-.79.43-1.52,1.07-1.96l3.83-2.62-.45,4.62Z"/>
  <path d="m62.64,81.69c-.19-.43-.6-.7-1.07-.71-.45,0-.89.25-1.09.66l-2.35,4.75c-.56,1.13-.54,2.47.04,3.59.54,1.05,1.5,1.75,2.63,1.93.17.03.35.04.54.05.03,0,.05,0,.08,0,.15,0,.31,0,.46-.03,1.14-.13,2.12-.79,2.71-1.81.63-1.09.7-2.43.19-3.58l-2.14-4.85Zm.65,7.68c-.35.61-.91.99-1.58,1.07-.11.01-.22.02-.34.02-.11,0-.23-.01-.34-.03-.66-.1-1.21-.51-1.53-1.14-.36-.7-.37-1.53-.03-2.23l2.05-4.16,1.88,4.25c.32.71.27,1.55-.12,2.23Z"/>
  <path d="m61.9,36.24c.62.61,1.43.94,2.29.94h.02c.87,0,1.69-.35,2.3-.97.29-.29.29-.77,0-1.06-.29-.29-.77-.29-1.06,0-.33.34-.77.52-1.25.53-.48,0-.92-.18-1.25-.51-.29-.29-.77-.29-1.06,0s-.29.77,0,1.06Z"/>
  <path d="m62.68,41.13c-.22.22-.48.37-.77.45-.15.04-.31.07-.48.08-.22,0-.42-.05-.62-.12-.23-.09-.45-.22-.63-.41-.29-.3-.77-.3-1.06,0-.15.15-.22.35-.22.55,0,.09.02.17.05.25,0,0,0,0,0,0,.04.1.09.2.17.28.61.61,1.43.94,2.29.94,0,0,0,0,0,0h.02c.86,0,1.68-.33,2.29-.94.08-.08.14-.18.17-.28,0,0,0,0,0,0,.03-.08.05-.17.05-.25,0-.2-.06-.4-.22-.55-.29-.29-.77-.29-1.06,0Z"/>
  <path d="m66.75,80.06c-.4.24-.62.68-.58,1.14l.51,5.27c.12,1.25.84,2.38,1.93,3.02.59.35,1.23.53,1.88.53.47,0,.93-.09,1.37-.28.16-.07.33-.15.48-.24.16-.09.31-.19.44-.3.9-.71,1.39-1.79,1.35-2.97-.04-1.26-.69-2.44-1.73-3.14l-4.38-2.99c-.39-.26-.88-.28-1.28-.04Zm5.88,6.22c.02.71-.25,1.33-.78,1.74-.09.07-.18.13-.28.19-.1.06-.2.11-.3.15-.62.26-1.29.21-1.9-.16-.68-.4-1.12-1.11-1.2-1.88l-.45-4.62,3.83,2.62c.64.44,1.05,1.17,1.07,1.96Z"/>
  <path d="m24.39,40.56c1.03.05,1.79.66,2.67,1.35.53.42,1.07.85,1.7,1.17l-.23,1.25c-1.78,9.65-3.45,18.77-.25,21.7,1.06.97,2.87,1.31,4.89,1.31,3.36,0,7.27-.94,9.21-1.46-.05.37-.09.75-.13,1.11-.16,1.65-.4,3.2-.61,4.57-.7,4.54-1.25,8.13,2.15,9.53.51.21,1.11.3,1.79.3.91,0,1.94-.17,3.03-.44-1.91,1.3-4.62,3.04-8.4,5.28-8.23,4.87-12.79,9.67-13.54,14.27-.44,2.68.41,5.27,2.53,7.7,1.58,1.81,4.28,2.54,7.66,2.54,5.95,0,13.99-2.24,21.69-4.72,1-.32,1.96-.62,2.89-.9,8.21,2.83,17.91,5.26,24.7,5.26,3.47,0,6.19-.63,7.55-2.17,2-2.25,2.81-4.74,2.39-7.39-1-6.4-8.82-11.89-13.4-14.59-3.8-2.25-6.52-3.99-8.43-5.29,1.91.48,3.65.64,4.84.15,0,0,0,0,0,0,3.4-1.4,2.85-4.99,2.15-9.53-.21-1.37-.45-2.92-.61-4.57-.03-.3-.07-.61-.11-.91,2.41,1.04,7.77,3.18,11.36,3.18.32,0,.63-.02.93-.05,4.88-.62,5.17-8.24,5.34-12.79v-.16c.08-2.08.09-4.73.07-6.92,0-.04,0-.07,0-.11-.02-2.3-.07-4.08-.07-4.12,0,0,0,0,0,0,0,0,0,0,0,0-.33-7.09-4.65-12.58-8.47-13.26-3.43-.61-3.94.69-4.01,1.1-.12.65.35,1.41,1.46,1.62.19.03.36.07.53.11-.36.11-.71.27-1.06.49-1.39.91-1.62,2.02-1.6,2.7-.6.45-1.03,1.07-.72,1.74.16.35.5.61.95.74.66.18,1.47.05,2.16-.31l1.76.87c.2.75.76,2.38,1.98,3.07.68.38,1.07,1.29,1.22,1.78-.46,1.36-2.95,8.77-3.67,13.18l-9.22-4.82c-.54-1.42-1.21-2.64-1.87-3.84-.7-1.27-1.41-2.56-1.98-4.12,3.22-7.35,7.64-20.65,2.27-29.26-2.95-4.73-8.43-7.29-16.34-7.61h-.22c-7.74.23-13.17,2.74-16.13,7.44-5.72,9.08-.56,23.4,2.08,29.43-.57,1.57-1.28,2.86-1.98,4.12-.8,1.45-1.61,2.92-2.2,4.76,0,0-.02,0-.03,0l-7.14,3.25c-.1-3.33-.48-12.96-1.57-16.69.08-.32.12-.66.06-1.01-.12-.81-.24-1.8-.33-2.67-.2-1.84-.76-3.66-1.63-5.26-1.45-2.65-2.34-2.99-2.88-3.02-.42-.01-.82.18-1.07.55-.94,1.37.12,3.31.8,4.14.12.15.12.28.14.29-.04.01-.21.02-.51-.14-1.03-.52-2.78-1.23-3.74-1.61.04-.07.08-.14.13-.23.14-.24.28-.5.4-.77.42-.96.29-1.94-.32-2.44-.41-.33-1.12-.5-1.89.05-.47.33-1.14,1.07-1.62,1.89-.81-.2-1.47.07-1.81.53-.31.42-.4,1.05-.03,1.67-.11.35-.13.74-.08,1.08.04.22.09.43.16.63-.29.04-.56.14-.77.3-.52.39-.65,1.03-.33,1.57.55.91,2.59,3.29,5.38,3.43Zm18.84,45.59c.58-.35,1.12-.68,1.64-1-.25,1.52.02,2.88.85,4.06,1.57,2.24,4.83,3.4,8.09,3.99-6.09.96-10-.21-11.31-2.09-1.13-1.61-.25-3.56.73-4.95Zm7.02,20.74c-.07.02-.12.06-.17.09-.06.02-.11.03-.17.05,3.25-2.81,4.23-6.7,4.51-8.34,1.34.17,2.59.32,3.68.44-.72,1.84-2.91,6.24-7.85,7.75Zm7.82-2.3c-.75.24-1.5.48-2.27.72,2.32-2.22,3.43-4.83,3.84-6,1.62.17,2.64.26,2.67.26.02,0,.03,0,.04,0,.01,0,.03,0,.04,0,1.79-.05,3.12.34,3.95,1.13.44.43.66.89.76,1.24-2.6.7-5.63,1.55-9.03,2.65Zm5.13-6.48l.05-.51c.02-.26.6-1.04,1.46-1.37.65-.25,1.21-.14,1.71.32,3.16,2.91,6.08,2.3,8.02,1.9,1.65-.35,1.94-.3,2.21.35-.23.67-3.89,1.64-7.42,2.59-.21.06-.44.12-.66.18-.16-.55-.48-1.27-1.14-1.91-.97-.95-2.4-1.45-4.21-1.54Zm18.81-10.53c7.44,4.42,11.91,9.2,12.57,13.47.34,2.19-.34,4.26-2.03,6.16-2.71,3.05-14.32,1.86-28.62-2.83,2.1-.6,4-1.11,5.67-1.55,5.14-1.37,7.72-2.06,8.38-3.36.2-.39.21-.83.04-1.25-.76-1.9-2.42-1.55-3.89-1.25-1.83.38-4.1.86-6.69-1.53-.92-.85-2.08-1.07-3.26-.62-1.24.47-2.32,1.65-2.41,2.63l-.05.55c-2.41-.23-10.25-1.03-16.63-2.32-.41-.08-.8.18-.88.59-.08.41.18.8.59.88,2.64.53,5.51.98,8.16,1.35-.34,2.05-1.93,8.12-8.74,9.79-.12.03-.21.09-.3.16-6.14,1.2-11.39,1.29-13.58-1.23-1.83-2.11-2.54-4.23-2.18-6.48.67-4.12,4.93-8.54,12.67-13.13-.54,1.61-.4,3.11.46,4.35,1.41,2.02,4.46,3.07,8.46,3.06,2.56,0,5.51-.43,8.66-1.3,1.01.06,1.91.07,2.63.07.98,0,1.63-.03,1.74-.04.07,0,.12-.03.18-.05.79-.03,1.64-.09,2.52-.17,2.9,1.16,5.76,1.74,8.28,1.74,3.29,0,6.01-.97,7.51-2.86,1.08-1.38,1.31-3.06.74-4.84Zm-4.03-2.44c.52.32,1.06.66,1.64,1.01,1.41,2.02,1.59,3.92.46,5.34-1.62,2.05-5.83,3.06-11.24,1.6,3.48-.63,6.85-1.84,8.37-4.12.75-1.12,1-2.41.77-3.83Zm-1.88-1.18c.66,1.67.62,3.04-.14,4.18-2.63,3.94-12.77,4.16-15.83,4.12h0c-.07,0-.13.02-.19.04-.48-.01-.97-.03-1.48-.06-.04,0-.09,0-.13,0-4.36-.26-9.53-1.25-11.38-3.89-.83-1.19-.89-2.63-.19-4.39,4.32-2.77,6.15-4.26,6.62-4.66,3.14-1.32,5.85-2.82,6.39-3.13.05-.02.94-.41,1.66-1.32.71.91,1.57,1.29,1.58,1.28.58.33,3.31,1.84,6.46,3.16.46.4,2.28,1.89,6.63,4.67Zm-19.19-12.57c-.55.04-1.38.11-2.39.23v-3.96c0-.25-.12-.48-.33-.62-4.4-2.97-3.79-5.11-2.57-7.91,1.31,3.96,4.65,4.88,6.41,5.09-.71,2-1.21,5-1.12,7.18Zm-4.95-4.17c.32.27.67.55,1.07.83v3.77c-.65.1-1.35.21-2.08.35l1.01-4.96Zm1.45,6.07c1.31-.19,2.42-.3,3.19-.37-.25,1.17.19,2.16.77,2.84-.77.4-1.65.83-2.6,1.27-.72-.25-1.38-.93-1.64-1.76-.17-.52-.23-1.26.29-1.98Zm6.32-9.35c.08.5.14,1.23.18,1.85.11,1.48.25,3.33.74,5.02.01.06.03.12.06.2,0,.01.01.02.01.03v2s0,0,0,0c-.39,1.23-1.53,1.74-1.61,1.78-.11.06-.25.14-.38.21-.46-.42-1.11-1.3-.36-2.55.02-.04.03-.09.05-.13,0-.02.02-.05.02-.07.02-.08.03-.16.02-.24,0-.01,0-.03,0-.04-.33-2.53.57-6.55,1.27-8.06Zm1.57.47h.26c-.04.39-.07.81-.11,1.27,0,.11-.02.21-.02.32,0-.11-.02-.22-.02-.32-.03-.46-.07-.89-.11-1.27Zm3.1,7.64c0,.08,0,.16.02.23,0,.03.02.05.03.08.02.04.02.09.04.13.74,1.26.1,2.13-.36,2.56-.15-.08-.31-.17-.45-.25-.01,0-1.03-.48-1.46-1.57v-2.47c.48-1.72.62-3.51.73-4.96.05-.62.1-1.35.18-1.85.7,1.51,1.59,5.53,1.27,8.06,0,.01,0,.03,0,.04Zm4.27-5.01c-.21.14-.33.37-.33.62v3.97c-1-.12-1.83-.19-2.39-.23.09-2.18-.41-5.18-1.12-7.18,1.76-.21,5.1-1.13,6.41-5.09,1.22,2.8,1.83,4.94-2.57,7.91Zm3.25,5.14c-.65-.12-1.26-.23-1.85-.32-.07-.05-.15-.08-.23-.1v-3.71c.4-.28.74-.55,1.07-.83l1.01,4.96Zm-5.66.75c.74.06,1.81.17,3.07.35.53.81.4,1.64.25,2.1-.26.8-.84,1.43-1.49,1.66-.94-.44-1.82-.87-2.6-1.27.57-.68,1.02-1.67.77-2.84Zm30.44-24.22c-.82.21-2.47.46-3.62-.43.2-.62.37-1.13.5-1.52.37.12.85.22,1.39.22.27,0,.56-.03.86-.09.33-.07.6-.16.84-.26.01.57.02,1.28.03,2.07Zm-10.53-9.85s.03-.02.04-.04c.01,0,.03,0,.04-.02.23-.18.5-.28.8-.34-.05.02-.1.04-.14.07-.25.18-.51.28-.74.32Zm5.68,3.77c-.78-.44-1.23-1.93-1.33-2.42-.05-.23-.19-.42-.4-.53l-2.45-1.21c-.11-.05-.23-.07-.35-.07.81-.07,1.85.21,3.12.86.11.06.23.08.34.08.27,0,.53-.15.67-.41.13-.25.09-.52-.04-.74.18-.03.35-.13.47-.29.25-.33.18-.8-.15-1.05-.31-.23-.73-.48-1.21-.67.28.1.58.03.79-.18.21-.21.27-.53.16-.81-.39-.96-1.53-1.62-3.58-2.06.37-.01.86.02,1.51.13,3.15.56,6.85,5.45,7.22,11.62-.12.13-.43.37-1.09.5-.78.16-1.44-.05-1.78-.19-.2-.64-.74-1.95-1.9-2.6Zm.75,7.13c.83.49,1.75.65,2.57.65.58,0,1.1-.08,1.53-.16,0,.61,0,1.24,0,1.88-.94.25-3.23.68-4.71-.41.2-.68.4-1.33.6-1.95Zm-3.68,10.97c.11.06.23.09.35.09s.25-.03.36-.09c.22-.12.37-.34.39-.59.17-1.74.83-4.39,1.55-6.93.94.54,2,.71,2.97.71.83,0,1.6-.12,2.16-.25-.01.89-.03,1.75-.06,2.53v.16c-.16,4.08-.42,10.9-4.04,11.36-3.49.45-10.36-2.49-12.22-3.33.4-3.54.2-6.16-.31-8.28l8.85,4.62Zm-9.33,10.07c.05.34.1.67.15.99.72,4.7.97,7-1.24,7.91-1.64.67-5.11-.39-8.4-1.77,0,0-.02,0-.03-.01-.11-.05-.22-.1-.34-.15.56-.5,1.02-1.17,1.26-1.94.25-.77.26-1.55.07-2.27,2.1.38,4.51.95,6.81,1.82.09.03.18.05.26.05.3,0,.59-.19.7-.49.15-.39-.05-.82-.44-.97-1.64-.62-3.32-1.09-4.9-1.45l-.17-.84c.51.07,1.16.13,1.88.13,1.39,0,3.01-.22,4.37-1Zm-3.33-19.82c1.27,2.29,2.49,4.5,2.78,8.16-1.55-5.04-4.18-9.82-8.16-12.56.34-.14.65-.33.9-.57,1.15-1.07,1.25-2.77.25-4.06-.58-.74-1.36-1.06-2.15-.88-.75.17-1.33.77-1.5,1.53-.19.86.18,1.71,1,2.34.33.25.8.19,1.05-.14.25-.33.19-.8-.14-1.05-.35-.27-.51-.56-.45-.83.04-.19.19-.35.37-.39.27-.06.51.19.63.34.61.78.38,1.6-.09,2.04-.63.58-1.9.74-3.54-.5.68-1.01,1.09-2.21,1.15-3.49,1.66-1.34,2.7-4.36,2.5-7.46-.24-3.68-2.17-6.65-5.28-8.22l-.82-2.44c1.84.02,3.4.62,4.65,1.8,2.5,2.36,3.76,6.96,3.53,12.94-.26,7.01,1.55,10.28,3.31,13.44Zm-11.47-24.48c3.69,1.78,4.46,5.17,4.59,7.05.13,1.98-.32,3.77-.98,4.98v-3.95c0-3.84-3.13-6.97-6.97-6.97,0,0,0,0,0,0s0,0,0,0c-3.84,0-6.97,3.13-6.97,6.97v3.95c-.66-1.21-1.11-3-.98-4.98.12-1.88.89-5.27,4.59-7.05h6.74Zm-5.88-1.5l2.51-7.47,2.51,7.47h-5.01Zm-2.97,9.58c0-3.02,2.45-5.47,5.47-5.47,0,0,0,0,0,0s0,0,0,0c3.02,0,5.47,2.45,5.47,5.47v5.96c0,3.02-2.45,5.47-5.47,5.47,0,0,0,0,0,0s0,0,0,0c-3.02,0-5.47-2.45-5.47-5.47v-5.96Zm9.89,11.35c-.04.87-.31,1.63-.84,2.25-.79.93-2.13,1.49-3.57,1.51-1.45-.01-2.78-.58-3.57-1.51-.53-.62-.81-1.38-.84-2.25,1.2.99,2.74,1.58,4.41,1.58,0,0,0,0,0,0s0,0,0,0c1.67,0,3.21-.59,4.41-1.58Zm-9.13,3.22c1.09,1.28,2.81,2.02,4.71,2.03,0,0,0,0,0,0h0s0,0,0,0c1.91-.02,3.62-.76,4.71-2.03.69-.81,1.09-1.8,1.18-2.91.36.19.72.33,1.06.43.09.92.13,5.41-6.97,8.49-6.27-2.72-6.95-6.77-6.95-8.4v-.09c.34-.1.7-.24,1.06-.43.09,1.11.49,2.1,1.18,2.91Zm-10.26-31.66c2.68-4.26,7.69-6.52,14.88-6.74h.16c7.35.3,12.43,2.62,15.1,6.9,4.73,7.59.96,19.7-1.66,26.18-.37-1.69-.57-3.71-.47-6.24.24-6.42-1.18-11.42-4-14.09-1.66-1.56-3.74-2.3-6.18-2.2l-1.46-4.35c-.11-.3-.55-1.29-1.41-1.29s-1.24.97-1.37,1.32l-1.45,4.32c-2.45-.1-4.52.63-6.18,2.2-2.82,2.66-4.24,7.67-4,14.09.09,2.54-.1,4.55-.47,6.24-2.62-6.47-6.34-18.6-1.47-26.34Zm.14,33.48c1.75-3.17,3.57-6.44,3.31-13.44-.22-5.98,1.03-10.58,3.54-12.94,1.25-1.18,2.81-1.78,4.65-1.8l-.82,2.44c-3.12,1.57-5.04,4.54-5.28,8.22-.2,3.09.84,6.12,2.5,7.46.07,1.29.48,2.48,1.15,3.49-1.64,1.24-2.91,1.09-3.54.5-.47-.43-.69-1.26-.09-2.04.12-.15.36-.41.63-.34.17.04.33.2.37.39.06.27-.1.57-.45.83-.33.25-.39.72-.14,1.05.25.33.72.39,1.05.14.82-.63,1.19-1.49,1-2.34-.17-.76-.76-1.36-1.5-1.53-.79-.18-1.57.14-2.15.88-1,1.29-.9,2.99.25,4.06.24.22.53.4.84.54-3.94,2.74-6.56,7.51-8.09,12.55.3-3.64,1.51-5.84,2.77-8.12Zm-2.86,16.16c.71-7.11,3.52-15.75,9.28-19.54.25,2.28,1.65,6.37,8.12,9.07.18.08.39.08.58,0,6.65-2.77,7.97-6.82,8.16-8.97,5.75,3.82,8.55,12.4,9.25,19.45.07.69.15,1.36.24,2-1.89,1.52-5.14,1.17-6.34.97l-.85-4.13c2.45-2.89,1.31-5.47.2-7.99-.73-1.65-1.48-3.36-1.3-5.28.04-.41-.26-.78-.68-.82-.41-.04-.78.26-.82.68-.14,1.5.18,2.86.63,4.11-.56,5.49-4.74,6.06-6.04,6.1-.14-.23-.29-.41-.43-.53-.42-.35-.82-.3-1.02-.24-.23.07-.41.2-.55.36v-3.77c0-.41-.34-.75-.75-.75s-.75.34-.75.75v3.76c-.14-.16-.32-.29-.54-.35-.2-.06-.6-.12-1.02.24-.15.12-.29.3-.43.53-1.3-.04-5.48-.61-6.04-6.1.45-1.25.78-2.61.63-4.11-.04-.41-.41-.72-.82-.68-.41.04-.71.4-.68.82.18,1.92-.57,3.63-1.3,5.28-1.11,2.51-2.25,5.1.2,7.99l-.85,4.13c-1.2.2-4.45.56-6.34-.97.09-.65.17-1.31.24-2Zm-.62,4.65c.05-.32.1-.65.15-.99,1.35.78,2.98,1,4.37,1,.72,0,1.37-.06,1.88-.13l-.17.84c-1.59.36-3.26.83-4.9,1.45-.39.15-.58.58-.44.97.15.39.58.59.97.44,2.25-.85,4.6-1.41,6.67-1.79-.19.68-.18,1.42.06,2.15.26.81.77,1.53,1.39,2.05-.11.05-.21.09-.32.14,0,0,0,0-.01,0-3.28,1.38-6.76,2.44-8.4,1.77-2.21-.91-1.96-3.21-1.24-7.91Zm-8.67-12.36c0,.25.14.48.35.62.12.08.26.12.4.12.11,0,.21-.02.31-.07l7.11-3.23c-.38,1.96-.5,4.35-.15,7.43-3.43.97-11.02,2.59-13.17.63-1.96-1.79-1.44-7.68-.4-14.08.65.29,1.35.41,2.05.41,1.18,0,2.32-.3,3.1-.57.31,4.42.4,8.66.4,8.73Zm-.52-10.29c-.99.38-3.35,1.1-4.77.17.13-.74.26-1.49.39-2.23.61.21,1.24.3,1.83.3.91,0,1.74-.18,2.35-.35.07.69.14,1.4.19,2.12Zm-.37-3.63c-.8.26-2.4.64-3.74.08.06-.33.12-.66.18-.99l.19-1.04c.28.05.57.07.85.07.79,0,1.54-.2,2.13-.55.14.7.27,1.52.38,2.42Zm-12.56-8.47c.28.31.57.56.85.76,0,0,.01,0,.01,0,0,0,.01,0,.02.01.77.54,1.49.73,2.08.81.41.06.79-.22.85-.63.06-.41-.22-.79-.63-.85-.42-.06-.89-.17-1.41-.53-.16-.14-1.15-1.05-1.34-2.23-.02-.11,0-.23,0-.33.14.13.22.32.34.62.39.98.91,1.9,2.98,2.34.4.08.8-.17.89-.58.09-.4-.17-.8-.58-.89-1.46-.31-1.65-.8-1.9-1.43-.1-.26-.23-.55-.42-.83-.11-.4.75-2.01,1.61-2.61.04-.02.07-.04.09-.06.02.11.02.32-.11.62-.1.23-.22.44-.33.64-.45.79-1.19,2.12.62,3.26.12.08.26.11.4.11.25,0,.49-.12.64-.35.04-.07.06-.14.08-.21.87.35,1.85.77,2.51,1.11,1.12.57,1.94.24,2.33-.25.48-.6.43-1.52-.13-2.2-.52-.63-.92-1.57-.81-2.12.25.21.75.75,1.49,2.11.78,1.42,1.28,3.05,1.46,4.7.1.89.21,1.91.34,2.73.06.38-.05.67-.34.91-.6.49-1.77.59-2.73.24-.66-.24-1.25-.71-1.87-1.2-.94-.75-2.02-1.6-3.52-1.68-1.77-.09-3.22-1.49-3.87-2.29.12.04.26.13.4.28Z"/>
  <path d="m24.25,24.37c0,1.78.96,3.44,2.51,4.33.12.07.24.1.37.1s.26-.03.37-.1c1.55-.89,2.51-2.55,2.51-4.33,0-.55-.08-1.08-.25-1.59-.06-.18-.14-.34-.23-.5.4-.51.63-1.14.63-1.81s-.22-1.29-.61-1.78c.08-.15.16-.3.21-.46.17-.49.25-1.02.25-1.58,0-1.78-.96-3.44-2.51-4.33-.23-.13-.52-.13-.75,0-1.55.89-2.51,2.55-2.51,4.33,0,.53.09,1.06.26,1.58.07.21.17.4.27.58-.34.48-.53,1.06-.53,1.66s.2,1.21.55,1.7c-.12.19-.22.39-.29.61-.17.52-.26,1.06-.26,1.58Zm2.88-10.49c.86.66,1.38,1.69,1.38,2.78,0,.39-.06.76-.17,1.1-.69-.29-1.49-.29-2.19-.02-.02,0-.03.01-.05.02-.05.02-.11.03-.15.05,0-.02-.01-.04-.02-.05-.12-.36-.18-.73-.18-1.1,0-1.1.52-2.13,1.38-2.78Zm-.87,5.52c.36-.34.89-.44,1.36-.3.01,0,.03,0,.05,0,.1.03.18.1.27.15.06.04.13.06.19.11.34.26.54.66.54,1.1s-.2.86-.57,1.15c-.39.32-.93.38-1.38.22,0,0-.01,0-.02,0,0,0,0,0-.01,0-.15-.06-.29-.15-.42-.26-.32-.27-.51-.67-.51-1.09s.18-.8.51-1.08Zm-.33,3.86s.02-.06.04-.09c.03.01.06.02.09.03.12.05.24.09.36.13.06.02.11.03.17.05.16.04.33.06.5.06.02,0,.04,0,.06,0,.02,0,.04,0,.06,0,.18,0,.36-.02.53-.05.01,0,.02,0,.03,0,.17-.03.34-.08.5-.15.02,0,.04,0,.06-.02,0,.01,0,.02.01.03.11.35.17.73.17,1.12,0,1.1-.52,2.13-1.38,2.78-.86-.66-1.38-1.69-1.38-2.78,0-.37.06-.74.18-1.11Z"/>
  <path d="m89.88,31.59c.39.12.81-.11.93-.5l1.76-5.9c.12-.4-.11-.81-.5-.93l-5.75-1.71c-.4-.12-.81.11-.93.5l-6.03,20.27c-.12.4.11.81.5.93l5.75,1.71c.07.02.14.03.21.03.12,0,.25-.03.36-.09.17-.09.31-.25.36-.45l1.18-3.97c.12-.4-.11-.81-.5-.93-.4-.12-.81.11-.93.5l-.97,3.25-4.31-1.28,5.6-18.83,4.31,1.28-1.54,5.18c-.12.4.11.81.5.93Z"/>
</svg>