<?xml version="1.0" encoding="UTF-8"?>
<svg id="icons" xmlns="http://www.w3.org/2000/svg" viewBox="0 0 120 120">
  <path d="m99.76,78.02c-.99-1.16-1.48-2.22-1.38-3.01.04-.33.18-.59.32-.78l5.64.37c.79.06,1.51-.36,1.89-1.04.37-.68.32-1.52-.15-2.15l-2.76-3.72,2.57-.44c.64-.11,1.19-.52,1.47-1.11s.26-1.27-.06-1.84l-4.02-7.19,6.82-2.03c.74-.22,1.28-.84,1.4-1.6.12-.76-.2-1.52-.83-1.96l-10.91-7.63,2.99-.14c.86-.04,1.59-.62,1.83-1.45.24-.82-.08-1.71-.78-2.19l-9.61-6.68,1.37-.64c.82-.39,1.28-1.28,1.12-2.17s-.91-1.57-1.82-1.63l-18.61-1.37,2.38-2.41c.62-.63.75-1.6.32-2.37-.43-.78-1.32-1.17-2.19-.98l-21.34,4.78.61-2.32c.18-.68-.01-1.39-.5-1.9-.49-.5-1.2-.72-1.88-.56l-16.95,3.82-.73-2.44c-.2-.66-.73-1.18-1.4-1.36-.67-.18-1.38,0-1.89.47l-13.67,12.84c-3.34,2.75-13.67,11.88-10.29,17.16,3.04,4.75,15.26,2.28,20.12,1.07l4.11,2.55v2.52l-8.78.62c-.14,0-.28.03-.41.07-.86.25-1.51.99-1.65,1.89-.12.77.14,1.55.68,2.08l3.82,4.55c.12.15.26.27.42.38,1.01.67,2.17,1.03,3.34,1.03h9.81c.89,0,1.67-.59,1.92-1.44l1.29-4.42,1.67,3.3-12.97,10.19c-.49.38-.77.97-.76,1.59,0,.62.29,1.2.79,1.58l3.72,2.84c1.83,1.26,4.16,1.07,5.73-.42l.72-.63c2.1-1.82,4.35-3.44,6.69-4.82l7.62-4.48,5.59,6.08-3.04,6.73-12.45.31c-.71.02-1.35.41-1.69,1.02-.35.62-.34,1.37.01,1.98l2.46,4.26c1.1,1.94,3,3.1,5.09,3.1l11.51-.14c2.76,0,5.01-2.48,5.01-5.52v-1.3l13.03-8.35c4.28,3.4,18.07,13.98,25.07,15.15.87.14,3.52.59,4.55-1.4,1.27-2.44-1.23-5.13-7-11-1.77-1.8-3.61-3.66-5-5.29Zm-16.23-1.48c-.67-.54-1.61-.6-2.34-.13l-15.16,9.72c-.57.37-.92,1-.92,1.68v2.4c0,.9-.53,1.52-1.03,1.52l-11.51.14c-.61,0-1.21-.4-1.6-1.09l-.78-1.35,10.34-.26c.77-.02,1.46-.48,1.77-1.18l4.1-9.08c.33-.73.19-1.59-.35-2.18l-7.58-8.24c-.64-.69-1.67-.85-2.49-.37l-9.01,5.3c-2.55,1.5-5,3.26-7.28,5.24l-.79.69c-.25.24-.51.27-.7.14l-1.59-1.21,12.23-9.6c.75-.59.98-1.62.55-2.47l-4.69-9.3c-.37-.73-1.16-1.17-1.97-1.09-.82.08-1.51.64-1.74,1.43l-2.29,7.86h-8.31c-.31,0-.62-.08-.91-.23l-1.69-2.02,7.32-.51c1.05-.07,1.86-.95,1.86-2v-5.5c0-.69-.36-1.33-.94-1.7l-5.77-3.59c-.47-.29-1.03-.38-1.57-.24-7.67,2.02-15.57,2.42-16.58.86-.79-1.23,3.28-6.84,9.51-11.95.03-.03.07-.06.1-.09l11.36-10.67.34,1.12c.3,1.01,1.33,1.61,2.36,1.38l15.56-3.5-.61,2.31c-.18.68,0,1.39.49,1.9.49.5,1.2.71,1.88.56l17.92-4.01-.65.66c-.55.55-.72,1.38-.45,2.11.27.73.95,1.23,1.72,1.29l16.64,1.23c-.04.13-.07.27-.08.41-.06.71.26,1.4.85,1.81l7.63,5.31-2.97.14c-.85.04-1.59.62-1.83,1.44-.24.82.07,1.7.77,2.19l12.32,8.62-5.24,1.56c-.58.17-1.05.6-1.28,1.17-.23.56-.19,1.2.11,1.73l3.85,6.9-2.99.51c-.68.12-1.26.58-1.52,1.23-.26.64-.17,1.38.25,1.94l2.13,2.87-2.19-.14c-.42-.03-.84.08-1.2.31-.21.14-2.11,1.4-2.48,3.89-.3,2.01.47,4.11,2.3,6.24,1.49,1.73,3.37,3.64,5.19,5.49,1.61,1.64,3.8,3.86,5.09,5.44-6.19-1.73-18.89-11.3-23.47-15.02Z"/>
  <path d="m31.47,37.11c-1.1.09-1.92,1.05-1.84,2.15.05.68-.41,1.21-.87,1.37-.88.3-1.66-.74-1.96-1.2-.6-.93-1.84-1.19-2.77-.59-.93.6-1.19,1.84-.59,2.77,1.47,2.27,3.36,3.08,5,3.08.57,0,1.11-.1,1.59-.26,2.26-.76,3.76-3.06,3.57-5.47-.08-1.1-1.05-1.92-2.15-1.84Z"/>
  <path d="m54.09,43.92c-.72-.84-1.98-.94-2.82-.22-.84.72-.94,1.98-.22,2.82l6.41,7.5c.4.46.96.7,1.52.7.46,0,.92-.16,1.3-.48.84-.72.94-1.98.22-2.82l-6.41-7.5Z"/>
  <path d="m69.11,40.96l15.53,6.12c.24.09.49.14.73.14.8,0,1.55-.48,1.86-1.27.4-1.03-.1-2.19-1.13-2.59l-15.53-6.12c-1.03-.4-2.19.1-2.59,1.13-.4,1.03.1,2.19,1.13,2.59Z"/>
  <path d="m89.65,56.99l-16.89-7.25c-1.01-.43-2.19.03-2.63,1.05-.44,1.01.03,2.19,1.05,2.63l16.89,7.25c.26.11.52.16.79.16.78,0,1.51-.45,1.84-1.21.44-1.01-.03-2.19-1.05-2.63Z"/>
  <path d="m70.63,62.43c-.53-.97-1.75-1.32-2.72-.79-.97.53-1.32,1.75-.79,2.72l5.24,9.54c.36.66,1.05,1.04,1.75,1.04.33,0,.66-.08.96-.25.97-.53,1.32-1.75.79-2.72l-5.24-9.54Z"/>
</svg>