<?xml version="1.0" encoding="UTF-8"?>
<svg id="icons" xmlns="http://www.w3.org/2000/svg" viewBox="0 0 120 120">
  <path d="m82.33,41.58c-2.98.38-5.87.94-7.91,1.37.27-.63.27-1.44.26-2.28-.01-1.42-.03-3.2,1.16-4.91,0,0,0,0,0,0,1.3-1.89,1.16-3.06.82-3.71-.25-.47-.68-.77-1.23-.92v-4.86c.14-2.24-.56-4.25-2.02-5.82-1.25-1.34-3.05-2.28-4.92-2.64-.21-1.9-1.44-3.51-3.15-4.32-.09-1.32-1.18-2.36-2.52-2.36s-2.43,1.05-2.52,2.36c-1.7.81-2.92,2.39-3.15,4.27-4.33.65-7.67,4.39-7.67,8.9v3.76c0,.31.02.6.06.9-.23.2-.4.45-.5.75-.31.93.07,2.21,1.1,3.7,1.18,1.71,1.17,3.49,1.15,4.91,0,.45,0,.89.03,1.31-7.09-2.2-20.23-4.33-22.66-1.51-.66.75-.67,1.46-.57,1.92.41,1.86,3.39,3.23,7.17,4.95,1.74.79,3.53,1.61,5.07,2.5.04.02.08.04.12.06-2.53,2.4-4.11,5.69-4.35,9.21-.37,5.44-.65,11.79-.65,13.83,0,1.26.13,2.46.38,3.57-1.01,1.12-1.21,2.59-.51,4.12,1.08,2.38,4.4,6.26,8.32,9.74-7.95,3.11-18.24,8.98-19.4,14.82,0,0-1.89,3.3,2.43,4.81,2.93,1.02,11.93,2.84,21.7.81h.01c.79-.15,1.58-.35,2.37-.56,2.44-.65,4.92-1.58,7.31-2.84,0,0,1.05-.53,2.6-1.36.07.14.18.27.34.34,6.53,3.02,15.15,4.32,22.02,4.32,5.35,0,9.63-.78,11.03-2.15,1.14-1.12,2.18-2.39,2.03-4.13-.22-2.65-3.3-5.85-10.31-10.73l-3.83-2.43c3.84-3.09,7.81-7.08,8.13-9.22l.07-.5c.17-1.17-.14-2.37-.87-3.3-.09-.12-.22-.2-.36-.25.46-1.61.55-3.31.17-5.05l-.67-7.11c-.33-3.35-1.21-6.65-2.79-9.62-.57-1.08-1.26-2.2-2.09-3.29,2.1-1.07,4.17-1.9,6-2.63,3.52-1.4,6.06-2.42,6.69-4.24.28-.8.14-1.67-.39-2.59-1.32-2.27-5.73-2.9-13.48-1.9Zm-10.77,2.02c-.2.05-.36.18-.46.35-.63-.35-1.32-.67-2.05-.95.4-.26.96-.71,1.52-1.41.29.72.68,1.48,1.2,1.97-.12.03-.2.05-.2.05Zm-13.41-1.01c-.05-.06-.1-.12-.17-.17,0,0-.89-.59-2.07-1.88l3.09-.15c.02.17.09.33.22.46.45.43.97.75,1.51.97-1.15.12-2,.4-2.59.77Zm2.88-2.3l3.4-.17c-1.02.67-2.32.73-3.4.17Zm5.09.37c.17-.18.22-.41.18-.63l3.6-.18c-.83,1.51-1.95,2.06-2,2.08-.23.1-.37.32-.42.55-1.04-.29-2.14-.49-3.25-.61.69-.25,1.34-.64,1.88-1.21Zm8.49-5.76c-1.46,2.11-1.44,4.23-1.43,5.78,0,.85.01,1.66-.28,1.86-.34-.09-.97-1.38-1.33-2.68.41-1,.61-2.06.61-3.15v-3.23c.06-.04.12-.07.18-.11.13-.08.26-.15.38-.22.1-.05.2-.1.3-.15.12-.06.25-.11.37-.16.1-.04.19-.08.29-.11.11-.04.22-.07.32-.1.1-.03.19-.04.28-.06.13-.02.27-.05.39-.05.21,0,.55.02.66.23.12.23.11.94-.73,2.15Zm-11.8-22.27c.3,0,.57.14.76.35-.25-.03-.5-.05-.76-.05s-.51.02-.76.05c.19-.21.46-.35.76-.35Zm0,1.79c2.05,0,3.76,1.39,4.13,3.23-.03,0-.07,0-.1,0h-8.16c.37-1.83,2.08-3.23,4.13-3.23Zm-11.84,12.24c0-4.14,3.37-7.51,7.51-7.51h8.36c2.03,0,4.12.89,5.47,2.33,1.18,1.26,1.74,2.89,1.62,4.72,0,.02,0,.03,0,.05v4.86s-.03.01-.05.01c-.14.03-.28.08-.42.12-.15.04-.29.08-.45.14-.15.06-.3.13-.45.2-.13.06-.26.1-.39.17v-2.06c0-3.67-2.98-6.65-6.65-6.65h-.41c-.95,0-1.84.38-2.47,1.03-.53-.53-1.41-1.03-2.86-1.03-3.67,0-6.67,2.99-6.67,6.67v1.9c-.79-.42-1.51-.66-2.14-.7-.01-.16-.02-.31-.02-.47v-3.76Zm-.52,5.88c.02-.06.05-.1.14-.13.38-.1,1.26.09,2.55.93v3.36c0,1.4.35,2.77,1.02,4-.28.99-.76,1.84-1,1.87,0,0-.04,0-.09-.04-.29-.18-.28-.99-.28-1.85.01-1.55.03-3.67-1.42-5.78-.85-1.22-1.02-2.04-.91-2.36Zm-4.69,42.11l.66-6.76c.17,1.47.96,3.25,1.87,5.32.42.94.87,1.97,1.29,3.04-1.3-.52-2.6-.92-3.88-1.21.02-.1.02-.19.04-.29,0-.03.01-.07.02-.1Zm1.49,3.98l-.33-.27c-.11-.09-.21-.2-.31-.3-.03-.03-.05-.05-.08-.08-.36-.4-.6-.87-.74-1.38,1.48.37,2.99.9,4.51,1.6.08.24.17.47.25.7.19.52.37,1.01.51,1.51-1.9-.94-3.43-1.61-3.8-1.78Zm5.53,2.66c-.17-1.09-.49-1.98-.83-2.91-.11-.31-.23-.63-.35-.98,0,0,0,0,0,0,0,0,0,0,0,0-.59-1.72-1.31-3.35-1.95-4.79-.88-1.99-1.64-3.71-1.76-4.95-.08-.88-.16-1.67-.23-2.42l6.42,16.76c-.44-.24-.87-.48-1.3-.71Zm-15.19-22.08c.23-3.31,1.76-6.4,4.24-8.57.1.05.2.09.3.14l3.54,9.24-1.4,14.43c-.06.26-.1.52-.12.78-.02.13-.02.25-.02.39,0,.51.1,1,.24,1.47-2.12-.74-3.51-.92-3.59-.93-.4-.04-.78.25-.83.66-.05.41.25.78.66.83.02,0,2.1.26,5.03,1.55.1.11.21.21.33.31l9.3,7.63c.22.18.53.22.79.1.01,0,.15-.07.38-.16.08-.03.15-.06.23-.09l3.04,3.6c-.05.06-.1.12-.15.18-.22.35-.27.75-.15,1.11.03.09.08.18.13.27-.22-.03-.44-.06-.66-.1-.17-.03-.33-.05-.5-.08-.45-.08-.9-.18-1.36-.28-.08-.02-.17-.03-.25-.06-.54-.13-1.09-.28-1.64-.44-.14-.04-.27-.09-.41-.13-.41-.13-.81-.26-1.22-.4-.19-.07-.38-.14-.56-.21-.36-.13-.72-.27-1.07-.42-.19-.08-.39-.16-.58-.24-.36-.16-.72-.32-1.08-.49-.17-.08-.34-.16-.5-.24-.52-.26-1.03-.52-1.52-.8-1.21-.68-2.3-1.36-3.29-2.04-3.99-2.74-6.26-5.54-7.3-8.91-.08-.25-.15-.5-.21-.76h0s0,0,0,0c-.29-1.11-.43-2.32-.43-3.61,0-2.02.28-8.32.65-13.73Zm33.08,5.36c2-5.21,9.08-9.57,11.71-11.04l-4.07,7.52,3.42,13.44c.06.24.1.49.12.74.04.45,0,.89-.11,1.32-.08-.03-.17-.04-.27-.04-2.39.11-4.62.55-6.64,1.3.58-3.9,1.44-7.23,1.85-9.69.4-2.39.78-4.31,1.03-5.96l-7.23,13.34c-.65-3.68-.96-7.93.19-10.93Zm-9.13,27.19c-.31-.11-.5-.21-.6-.28.1-.09.28-.22.58-.37.24-.12.46-.22.68-.32l-.56,1.04s-.06-.05-.09-.06Zm3.49-3.36s-.08.02-.11.03c-.44.07-.98.16-1.63.34l.8-1.48c.67.35,1.41.66,1.96.88-.32.11-.64.17-1.02.23Zm9.57-9.02s.06.01.09.01c.09,0,.18-.02.27-.05,1.83-.72,3.87-1.15,6.06-1.29-.21.29-.45.56-.73.79l-1.4,1.14c-.19-.23-.5-.34-.8-.24-1.28.4-2.51.9-3.69,1.46.05-.62.12-1.23.19-1.83Zm-3.48,4.53c.14.2.37.32.61.32.08,0,.17-.01.25-.04.39-.14.6-.56.46-.96,0,0-.02-.07-.06-.18.45-.28.77-.44,1.28-.68,0,0,0,.01,0,.02.13.26.4.41.67.41.11,0,.23-.03.33-.08.63-.31,1.27-.6,1.94-.87l-1.43,1.17-.95.78-3.23,2.66s-.66-.28-1.59-.62c0,0,0,0,0,0,.08-.24.02-.47-.11-.66l1.82-1.29Zm-6.32,2.06c-.14-.08-.28-.15-.4-.22.02-.09.03-.17.03-.24.18,0,.39,0,.61.02l-.24.44Zm-12.31,15.12c0-.2-.08-.39-.22-.52.82-.82,1.59-1.56,2.47-1.96.27-.12.58-.19.92-.23,1.3.57,2.63,1.05,3.99,1.39,0,0,0,0,0,0,0,0,.01,0,.02,0,0,0,0,0,0,0,0,0,0,0,0,0,.21.06.41.1.62.14l-.32.39c-1.6.48-4.86.74-7.48.78Zm42.08,3.48c.08.92-.37,1.74-1.59,2.93-2.6,2.53-19.41,2.83-30.85-2.22,3.14-1.68,7.37-4.01,10.02-5.79.14.21.39.35.66.33.58-.04,1.18-.07,1.77-.09h5.14c4.26.17,7.4.88,9.07,2.06.13.09.28.14.43.14.24,0,.47-.11.61-.32.24-.34.16-.81-.18-1.04-1.94-1.37-5.26-2.15-9.91-2.33h-5.2c-.27.01-.51.03-.77.04,1.57-1.3,3.75-3.32,3.55-3.59-.01-.02-.03-.03-.04-.04,1.14-.75,2.26-1.54,3.35-2.37l4.27,2.7c6.41,4.45,9.47,7.51,9.65,9.61Zm-5.94-23.22l-.07.5c-.2,1.34-3.39,5.04-8.4,8.91-1.17.91-2.39,1.78-3.63,2.59-1.56-.31-3.54.85-5.46,1.97-.95.56-1.85,1.08-2.54,1.32-1.02.35-2.04.42-2.96.19-1.22-.3-2.42-.18-3.48.35-.43.22-.85.52-1.31.97l-.19.23s-.02.05-.04.07c-.17-.04-.34-.07-.51-.11,0,0,0,0-.01,0,0,0,0,0-.01,0-4.59-1.14-9.96-4.28-15.13-8.82-4.48-3.93-7.41-7.68-8.24-9.49-.24-.53-.33-1.02-.26-1.47.05.12.1.24.15.37.06.14.12.29.18.43.09.21.19.41.29.61.06.13.13.26.2.39.11.21.23.41.35.61.07.11.13.22.2.33.15.23.3.45.45.68.05.07.1.15.15.22.21.29.43.58.66.86.03.03.06.06.09.1.2.24.41.48.62.71.08.09.17.17.25.26.16.17.33.34.5.51.1.1.2.19.3.28.16.15.32.3.48.44.11.1.22.19.33.28.16.13.31.27.47.4.11.09.23.19.35.28.16.13.32.25.48.37.12.09.23.18.35.26.16.12.33.24.49.35.12.08.24.17.35.25.17.11.33.22.5.33.12.08.23.15.35.23.18.11.35.22.53.33.1.07.21.13.31.2.2.12.39.24.59.35.08.05.17.1.25.15.28.16.55.32.82.47,4.58,2.58,9.83,4.16,14.35,4.31,0,0,0,0,0,0,.01,0,.03,0,.04,0h.03s0,0,0,0c.25.02.51.02.76.02.05,0,.14,0,.25-.03.17-.02.43-.06.75-.11.25.04.41.06.49.06,4.29,0,9.37-1.34,13.92-3.67,5.03-2.56,8.73-5.9,10.61-9.54.03.24.02.49-.01.73Zm6.14-35.77c-.4,1.17-2.92,2.17-5.83,3.33-1.9.76-4.05,1.62-6.25,2.74,0,0,0,0,0,0,0,0,0,0,0,0,0,0,0,0,0,0h0c-.51.25-10.77,5.45-13.42,12.37-1.48,3.85-.82,9.34.08,13.55l-3.54,6.53c-1.12-.17-2-.12-2.61.14-1.91-.51-5.35.66-7.32,1.45,0,0-.01,0-.02,0l-3.71-3.05c.65.35,1.32.71,1.97,1.09.12.07.25.1.38.1.26,0,.51-.13.65-.37.21-.36.09-.82-.27-1.03-.04-.03-.09-.05-.13-.07,1.45-4.35,2.86-10.52-1.42-14.02.01-.01.03-.02.04-.04.23-.34.14-.81-.2-1.04-4.74-3.23-3.47-6.83-1.76-10.25.39-.79.46-1.55.21-2.26-.61-1.67-2.87-2.66-5.73-3.91-1.24-.54-2.52-1.1-3.8-1.77,0,0,0,0,0,0,0,0,0,0,0,0-.33-.17-.67-.34-1-.54-1.61-.92-3.43-1.76-5.2-2.56-2.85-1.3-6.08-2.77-6.32-3.9-.02-.08-.06-.28.24-.62,1.73-2,16.28.04,22.76,2.51-.16.04-.32.09-.46.13-4.9-1.61-13.78-4-20.01-2.72-.41.08-.67.48-.58.88.08.41.47.67.89.58,6-1.23,14.78,1.2,19.48,2.75.08.03.16.04.24.04.09,0,.19-.02.28-.05.23-.09.49-.16.77-.24.06-.02.12-.03.18-.05,2.19.75,3.59,1.33,3.59,1.33,0,0-.23-.63-.21-1.43l-2.53-.17c.86-.33,1.75-.88,2.12-2.01.43.37.72.57.82.64-.29.51-.4,1.06-.41,1.54l4.11.28c.19.42.44.74.67.95.14.12.32.19.49.19.2,0,.41-.08.55-.25.19-.21.23-.51.14-.76l2.91.2c-.64,1.31-.58,2.78-.35,3.67.09.34.39.56.72.56.06,0,.13,0,.19-.02.4-.1.64-.51.54-.91-.02-.1-.45-1.89.6-3.18l5.64.38s.01.03.03.05c.52.63.77,1.28.74,1.92-.08,1.7-.88,3.22-2.14,4.05-1.11.74-2.48.87-3.83.38-.39-.14-.82.06-.96.44q-2.87-1.06-2.88-1.06l-3.95-1.29s-3.39-1.35-2.79.16c.17.43,1.01,1.11,2.13,1.77-.02.02-.05.03-.08.05-4.65,5.07-3.17,8.01-1.99,10.37.48.95.89,1.78.85,2.62-.19,3.45,1.44,14.94,1.51,15.43.05.37.37.64.74.64h0c.37,0,.69-.28.74-.65,2.15-15.55,5.53-21.97,7.16-22.36,3.17-.76,8.26-4.29,9.04-8.1.22-1.07.14-2.55-1.14-3.93,2.24-1.06,8-3.13,16.68-1.73.4.07.79-.21.86-.62.07-.41-.21-.79-.62-.86-9.56-1.55-15.84.98-17.93,2.04-.41-.17-.85-.32-1.33-.48-.03,0-.05,0-.08,0-.05,0-.09-.02-.14-.02-.06,0-.11,0-.16.02-.04,0-.07.02-.11.03-.05.02-.1.05-.15.08-.02.01-.04.02-.06.03-.02.01-.02.03-.04.05,0,0,0,0,0,0-.15-.14-.3-.29-.48-.43,7.83-1.9,20.24-3.68,21.98-.68.46.8.32,1.21.27,1.35Zm-36.24,16.89c-1.13-2.25-2.2-4.37,1.75-8.68.11-.12.16-.26.18-.41,2.43,1.19,5.47,2.01,6.62.66.04.02.06.05.1.06.71.26,1.43.39,2.12.39,1.08,0,2.12-.31,3.05-.92,1.65-1.09,2.7-3.05,2.81-5.22,0-.12-.01-.24-.02-.36.59.72.79,1.52.61,2.44-.63,3.07-5.16,6.28-7.92,6.94-.84.2-3.39.81-6.18,12.47-.52,2.16-.95,4.3-1.28,6.12-.45-3.64-.94-8.24-.84-10.12.07-1.25-.48-2.33-1.01-3.38Z"/>
  <path d="m77.71,62.16l.6-1.11-.33-1.3c-.04.74-.14,1.54-.27,2.41Z"/>
</svg>