<?xml version="1.0" encoding="UTF-8"?>
<svg id="icons" xmlns="http://www.w3.org/2000/svg" viewBox="0 0 120 120">
  <path d="m89.46,47.4l-9.15-11.59c-.39-.49-.98-.77-1.6-.76-.62,0-1.2.31-1.58.8l-7.31,9.81-7.29-9.92,8.52-11.53c.53-.71.52-1.69-.01-2.39l-9.26-12.28c-.38-.51-.99-.79-1.62-.79-.64,0-1.23.32-1.6.84l-9.1,12.79c-.5.7-.49,1.65.02,2.34l8.11,11.04-6.53,9.19-6.93-9.26c-.37-.5-.95-.79-1.57-.8-.61.02-1.21.27-1.6.76l-9.64,12.19c-.56.71-.58,1.69-.05,2.42l8.11,11.11-8.21,11.55c-.5.7-.49,1.65.02,2.35l9.12,12.35c.38.51.97.81,1.6.81h0c.63,0,1.23-.3,1.6-.8l7.59-10.19,6.49,8.88-8.39,11.38c-.53.72-.52,1.72.04,2.42l9.35,11.86c.37.47.94.75,1.55.76h.02c.6,0,1.16-.27,1.54-.72l9.43-11.38c.58-.71.61-1.72.08-2.46l-8.66-11.85,7.18-9.74,7.5,10.01c.38.5.97.8,1.6.8h0c.63,0,1.22-.3,1.6-.8l8.96-11.92c.53-.71.54-1.67.01-2.39l-8.24-11.21,8.32-11.29c.53-.72.52-1.72-.04-2.43Zm-35.91-23.87l6.68-9.39,6.72,8.9-6.9,9.33-6.5-8.84Zm6.53,15.63l7.24,9.85-6.6,8.86-7.15-9.55,6.51-9.16Zm-24.68,9.97l7.08-8.96,6.14,8.21-6.79,9.56-6.43-8.8Zm6.53,33.95l-6.66-9.02,6.6-9.29,6.78,9.29-6.72,9.02Zm2.38-21.74l6.82-9.6,7.09,9.47-7.08,9.49-6.84-9.37Zm22.76,37.95l-6.86,8.28-6.88-8.72,6.74-9.14,7,9.58Zm-6.98-16.34l-6.47-8.86,7.11-9.54,6.52,8.7-7.15,9.69Zm9.63-13.06l-6.5-8.69,6.58-8.83,6.41,8.72-6.49,8.79Zm15.59,3.59l-6.46,8.6-6.62-8.85,6.46-8.76,6.62,9.01Zm-6.62-15.75l-6.4-8.7,6.49-8.7,6.59,8.35-6.68,9.06Z"/>
</svg>