<?xml version="1.0" encoding="UTF-8"?>
<svg id="icons" xmlns="http://www.w3.org/2000/svg" viewBox="0 0 120 120">
  <path d="m23.34,96.95s.09.09.14.13c9.32,8.89,21.96,14.37,35.87,14.37.27,0,.53-.02.79-.02.04,0,.08.02.13.02.06,0,.12-.02.18-.02,14.05-.29,26.74-6.15,35.91-15.46.22-.16.41-.35.56-.58,8.83-9.23,14.26-21.68,14.26-35.38,0-.25-.02-.49-.02-.74,0-.13,0-.25,0-.38-.3-13.93-6.2-26.51-15.56-35.61-.16-.24-.37-.44-.62-.59-9.29-8.75-21.83-14.13-35.62-14.13-.24,0-.48.01-.73.02-.12,0-.24,0-.36,0-14.13.29-26.89,6.22-36.08,15.62-.05.05-.1.1-.15.15-8.98,9.25-14.51,21.82-14.51,35.65s6.07,27.59,15.82,36.95Zm-11.46-36.08c.79-1.33,1.7-2.57,2.73-3.7,5.17-5.67,13.11-7.31,20.24-4.17.04.02.07.03.11.05l1.5.55c-.58,2.04-.9,4.19-.9,6.41,0,2.78.49,5.44,1.38,7.92l-1.41.64s-.02.01-.03.01c-8.22,3.54-18.8.11-23.59-7.66,0-.02-.02-.03-.03-.05Zm39-25.35c-3.55-8.11-.3-17.84,7.56-22.62.02-.01.05-.03.07-.04,1.35.78,2.6,1.7,3.75,2.72,5.7,5.12,7.35,13,4.2,20.06,0,.02-.02.04-.03.06,0,0,0,0,0,.01,0,0,0,0,0,0,0,.01,0,.02-.01.03l-.56,1.49c-2.06-.58-4.23-.9-6.47-.9-2.63,0-5.17.43-7.54,1.22l-.67-1.46c-.08-.18-.18-.35-.26-.53,0-.02-.01-.05-.02-.07Zm41.39-9.48s.05.01.07.02c.39,1.49.63,3.01.7,4.54.38,7.63-4.06,14.35-11.33,17.14-.04.01-.08.03-.11.05l-1.47.67c-2.41-4.25-6.1-7.7-10.55-9.81l.54-1.43s0-.02.01-.03c3.29-8.27,13.22-13.26,22.13-11.14Zm14.6,33.1c-.79,1.33-1.7,2.57-2.73,3.7-5.17,5.67-13.11,7.31-20.24,4.17-.04-.02-.07-.03-.11-.05l-1.5-.55c.58-2.04.9-4.19.9-6.41,0-2.78-.49-5.44-1.38-7.92l1.41-.64c.21-.08.41-.18.61-.26.05-.02.11-.03.16-.05,8.07-3.48,17.9-.06,22.85,7.96l.03.05Zm-38.51,25.4c3.48,7.96.02,17.67-8.05,22.58-.02.01-.05.03-.07.04-1.35-.78-2.6-1.7-3.75-2.72-6.2-5.57-8.25-13.07-5.36-19.57l1.1-2.28c2.25.7,4.64,1.08,7.13,1.08,2.8,0,5.49-.49,7.99-1.37l.65,1.41c.09.24.2.46.3.7.02.05.03.1.05.15Zm-28.8-24.53c0-8.03,4.88-14.93,11.84-17.98.08-.03.16-.05.25-.09.05-.03.1-.06.15-.09,2.33-.96,4.89-1.5,7.57-1.5,10.92,0,19.81,8.82,19.81,19.65s-8.89,19.65-19.81,19.65-19.81-8.82-19.81-19.65Zm32.15,22.18s-.03-.08-.05-.11l-.66-1.44c4.28-2.39,7.75-6.06,9.87-10.48l1.47.54c.22.1.45.18.68.27.02,0,.04.02.06.03,8.07,3.16,12.69,12.67,10.52,21.66,0,.02-.01.04-.02.06-1.51.39-3.05.63-4.58.7-7.7.39-14.48-4.04-17.28-11.25Zm-24.19-44.4l.63,1.36c-4.47,2.38-8.09,6.14-10.29,10.71l-1.47-.54c-.16-.07-.32-.12-.49-.19-.04-.02-.08-.05-.13-.06-8.14-3.19-12.81-12.72-10.64-21.71v-.06c1.52-.39,3.06-.63,4.6-.7,7.52-.37,14.51,4.02,17.78,11.2Zm-10.51,34.49s.03-.01.05-.02c0,0,.02,0,.03-.01,0,0,0,0,0,0,.01,0,.02,0,.03-.01l1.47-.67c2.29,4.05,5.76,7.37,9.93,9.5l-1.04,2.15s0,0,0,0c0,0,0,0,0,0h0c-3.66,8.41-12.3,12.82-21.02,10.74-.02,0-.05-.01-.07-.02-.39-1.49-.63-3.02-.7-4.54-.38-7.63,4.06-14.35,11.33-17.14Zm8.93,20.08c.43,5.29,3.03,10.54,7.54,14.73-8.18-1-15.73-4.05-22.11-8.62,5.49-.14,10.64-2.33,14.57-6.11Zm27.72-.47c3.89,3.52,9.01,5.57,14.45,5.57.19,0,.37,0,.56-.01-6.18,4.78-13.57,8.09-21.63,9.39,4.06-4.12,6.4-9.5,6.62-14.95Zm18.49-19.36c5.46-.26,10.73-2.56,14.63-6.67-1.01,8.09-4.07,15.55-8.66,21.86-.07-5.75-2.25-11.17-5.97-15.19Zm-.69-26.7c3.66-4.01,5.73-9.32,5.58-14.94,4.84,6.15,8.19,13.5,9.5,21.53-4.15-4.04-9.57-6.36-15.08-6.59Zm-19.51-17.96c-.16-5.56-2.48-10.94-6.7-14.91,8.18,1.01,15.72,4.07,22.09,8.65-5.68.2-11.24,2.5-15.39,6.26Zm-26.49.47c-4.21-3.8-9.68-5.92-15.46-5.75,6.21-4.81,13.65-8.13,21.76-9.42-3.99,4.14-6.21,9.6-6.29,15.16Zm-18.76,19.17c-5.54.23-10.88,2.56-14.82,6.74,1-8.17,4.1-15.7,8.75-22.05.1,5.73,2.33,11.24,6.06,15.31Zm.84,26.42c-3.85,4.06-6.03,9.51-5.85,15.3-4.91-6.21-8.3-13.66-9.59-21.8,4.16,3.92,9.78,6.24,15.44,6.5Z"/>
  <path d="m58.43,72.21c.2-.06.38-.15.55-.26,2.9.85,7.03,1.86,10.32,1.86,1.9,0,3.51-.34,4.44-1.23,1.51-1.46,1.66-2.97,1.52-3.98-.31-2.29-2.42-4.47-6.44-6.65.76-1.24.46-2.89.26-4.02-.08-.46-.18-.97-.24-1.52-.36-3.12-1.9-6.96-5.12-8.71.02-.17.06-.34.06-.52v-2.13c0-2.33-2.06-4.22-4.58-4.22,0,0,0,0,0,0s0,0,0,0c-2.53,0-4.58,1.89-4.58,4.22v2.13c0,.17.03.33.05.49-3.21,1.75-4.75,5.6-5.11,8.74-.06.55-.16,1.06-.24,1.52-.2,1.13-.5,2.78.26,4.02-.04.02-.07.04-.1.06-3.44,2.17-6.1,4.04-6.39,6.7-.1.95.08,2.39,1.56,3.85,1,.99,2.45,1.4,4.35,1.4,2.44,0,5.6-.69,9.44-1.75Zm.77-24.81c-.37,0-.56-.19-.58-.22v-2.1c.02-.05.21-.24.58-.24,0,0,0,0,0,0s0,0,0,0c.37,0,.56.19.58.22v2.1c-.02.05-.21.24-.58.24,0,0,0,0,0,0s0,0,0,0Zm-5.94,11.24c.1-.54.2-1.13.27-1.77.24-2.11,1.25-4.89,3.29-5.81.01,0,.02-.01.03-.02,0,0,.02,0,.03-.01l.24-.12c.63.3,1.33.48,2.08.48,0,0,0,0,0,0s0,0,0,0c.75,0,1.45-.18,2.08-.48.09.06.18.12.28.16,2.05.92,3.06,3.69,3.3,5.79.07.64.18,1.23.27,1.77.04.25.1.54.14.8-.93-.17-2.58-.75-4.06-1.44v-2.64c0-1.1-.9-2-2-2s-2,.9-2,2v2.62c-1.49.7-3.16,1.28-4.1,1.45.04-.26.09-.55.14-.8Zm-6.19,10.5c.1-.95,3.22-2.91,4.55-3.75,2.45-1.54,4.27-2.48,4.8-2.75,1.04-.37,2.03-.81,2.79-1.18.73.35,1.67.77,2.67,1.13.56.34,2.1,1.27,5.03,2.86,3.32,1.79,4.32,3.16,4.39,3.68.02.12-.08.29-.28.5-.67.32-3.04.28-6.67-.47-.02,0-.04-.01-.05-.02.98-.5,1.37-1.7.88-2.68-.5-.99-1.7-1.38-2.69-.89-.68.34-1.9.94-3.25,1.55-1.41-.59-2.93-1.27-4.35-1.97-.99-.49-2.19-.08-2.68.91-.49.99-.08,2.19.91,2.68.3.15.6.29.9.43-5.12,1.17-6.31.71-6.56.51-.3-.3-.4-.51-.39-.57Z"/>
</svg>