<?xml version="1.0" encoding="UTF-8"?>
<svg id="icons" xmlns="http://www.w3.org/2000/svg" viewBox="0 0 120 120">
  <defs>
    <style>
      .cls-1 {
        fill: #121112;
      }
    </style>
  </defs>
  <path class="cls-1" d="m22.08,25.73c-.78,1.2-.55,3.71.1,5.35.79,1.98,3.34,3.6,4.11,4.05.6,1.21,3.67,7.23,7.4,11.63.96,1.14,2.51,1.88,4.58,2.21.01,0,.02,0,.03,0,.03,0,.05.01.07.02.83.13,1.74.19,2.73.19,1.52,0,3.24-.16,5.12-.46.2.95.37,2.14.37,3.78,0,.74-.02,1.44-.07,2.1-.69-.26-1.47-.36-2.33-.3-4.62.29-6.93,2.69-7.12,4.78-.12,1.4.67,3.12,3.26,3.76,1.9.48,3.48.29,4.7-.56,1.29-.9,2.16-2.48,2.64-4.81,1.21,2.1,1.01,5.67.73,7.44-3.64,1.46-6.08,2.86-7.22,4.16-1.63,1.87-2.2,3.8-1.52,5.16.32.65,1.21,1.71,3.58,1.56l1.37-.11c.56-.05,1.2-.1,1.91-.16-.83,1.22-1.4,3-.68,5.15.43,1.27-.18,1.68-1.88,2.45-1.24.56-2.93,1.32-2.53,3.2.24,1.14,1.38,1.82,2.99,1.82.21,0,.42-.01.64-.03,1.47-.15,2.95-.8,3.97-1.86.4,1.95,1.25,3.95,2.1,5.91,2.24,5.19,3.35,8.51-.14,10.71-2.75,1.74-5.7,1.18-7.38.18-1.13-.67-1.88-1.61-2.08-2.56,3.21,1.24,5.9.21,7.39-1.28,1.33-1.33,1.75-3.02,1.02-4.1-.49-.73-1.87-1.72-5.53-.17-2.34.99-3.49,2.18-4.02,3.28-.04-.02-.07-.05-.11-.07-1.52-1.02-2.51-2.06-2.89-3,.48.01.96-.01,1.4-.05,2.36-.21,6.29-1.16,6.79-2.85.08-.27.19-.97-.6-1.59-1.61-1.26-4.32-.99-6.16-.2-1.57.68-2.63,1.73-2.98,2.95-.26-.1-.39-.21-.42-.3-.07-.15.02-.65.82-1.54,1.79-2.01,1.65-3.43,1.4-4.1-.28-.75-.92-1.26-1.73-1.37-1.01-.13-2.01.35-2.7,1.31-.24.34-.17.81.17,1.05.34.24.81.17,1.05-.17.42-.59.95-.75,1.28-.7.15.02.41.1.53.41.17.46-.04,1.38-1.11,2.58-1.13,1.26-1.48,2.34-1.04,3.22.31.61.93.97,1.69,1.17.27,1.49,1.5,2.98,3.68,4.44.18.12.36.24.54.34-.12,1.75.95,3.47,2.85,4.61,1.29.77,2.77,1.16,4.27,1.16,1.62,0,3.25-.45,4.68-1.35,4.83-3.04,2.64-8.11.72-12.57-1.18-2.73-2.4-5.56-2.19-7.94,0,0,0,0,0,0,.03-.21.05-.42.05-.65,0-4.07,1.28-4.93,2.4-5.21.05-.01.08-.04.12-.06,1.98,1.27,3.82,2.64,4.91,3.82,1.01,1.1,1.12,2.34,1.25,3.77.19,2.09.41,4.45,3.24,6.94,1.63,1.43,2.91,2.21,4.01,2.78-.24.7-.41,1.34-.51,1.89-.12.76-.63,1.42-1.12,2.07-.47.62-.94,1.25-1.06,1.96-.5-.11-1-.09-1.47.07-2.02-2.36-3.15-2.13-3.6-2.04-.8.17-1.37.77-1.79,1.55-.24,0-.48.02-.72.11-1.29.45-2.67,2.29-4.1,5.47l-.13.32c-.11.26-.36.87-.53.9-1.59.31-3.57.86-3.99,1.79-.15.32-.13.68.04.98.51.9,2.29,1.13,4.01,1.13.81,0,1.6-.05,2.26-.11.26,0,2.28.07,3.73.07.42,0,.79,0,1.05-.02.42-.02.67-.22.8-.39.36-.43.28-.99.22-1.44-.02-.12-.03-.24-.04-.34,0-.23,0-.45.02-.66,1.54,2.97,2.92,3.06,5.13,2.51.8-.2,2.74-.04,4.61.1,1.5.12,3.02.24,4.37.24,1.26,0,2.37-.11,3.17-.42,1.78-.7,2.45-.66,4.43-.55.61.03,1.32.07,2.21.1,4.16.14,5.81-1.54,5.88-1.61.22-.23.27-.56.13-.84s-.43-.45-.74-.42c-.61.05-2.33-.01-3.04-.92-1.21-1.56-4.01-3.62-6.21-3.05-1.81.46-2.44,1.76-2.56,2.79-.31-.09-.81-.32-1.57-.85-.14-.1-.27-.17-.41-.25.34-.22.58-.55.64-.94.08-.51-.12-1.06-.54-1.46-.8-.76-3.58-2.65-3.84-2.82-.02-.01-.04-.03-.06-.05.15-.22.32-.47.51-.74,1.58,2.21,3.6,3.45,4.8,3.45.09,0,.18,0,.26-.02.42-.08.74-.35.83-.73.18-.73-.5-1.36-1.03-1.77-.64-.5-.63-1.17-.56-2.39.07-1.05.14-2.32-.51-3.58,2.2-2.81,4.21-5.21,5.18-6.18,1-.98,1.51-2.24,1.54-3.83.02-.43,0-.89-.06-1.37,0-.02,0-.04,0-.06-.28-2.49-1.4-5.78-3.23-10.61,0-.02-.03-.04-.03-.06-.01-.03-.02-.06-.04-.09l-1.54-2.33c-.64-.97-1.35-1.93-2.11-2.85-.35-.42-.7-.86-.98-1.22.31-.16.71-.36,1.15-.6.91-.47,2.05-1.1,3.22-1.76,1.07-.61,2.6-1.53,3.88-2.44.43-.31.76-.56,1.02-.8,1.18-1.05,1.78-2.12,1.83-3.27.06-1.47-.76-3.04-2.57-4.92-.26-.28-.56-.58-.88-.89-1.4-1.32-2.5-2.62-3.47-3.77-2.07-2.44-3.85-4.55-7.31-5.3,0,0,0,0,0,0,0,0,0,0,0,0-.48-.1-.89-.21-1.27-.3,0,0,0,0,0,0-.82-.23-1.37-.45-1.74-.7-.03-.02-.05-.03-.08-.04-.64-.44-.71-.9-.8-2.21,0-.12-.02-.26-.03-.39.23-.14.44-.3.65-.47,1,.65,2.05,1,3.15,1,.3,0,.61-.02.91-.07,3.41-.54,6.1-3.95,6.79-4.9.62-.18,1.25-.31,1.91-.31,7.65,0,7.79-5,7.79-5.05,0-.24-.11-.46-.3-.61-.19-.14-.44-.19-.66-.12-2.28.66-3.86.47-4.92.03,5.82.37,7.87-4.36,7.89-4.41.1-.23.07-.5-.07-.7s-.37-.33-.62-.33h-2.44c-3.43-.07-5.07-1.41-5.79-2.32,1.66-.3,2.92-.97,3.75-2,1.26-1.56,1.03-3.37,1.02-3.44-.04-.25-.2-.47-.43-.58-.23-.1-.51-.08-.72.06-2.19,1.44-4.59.11-5.19-.26-2.85-5.14-8.08-3.99-9.22-3.67-4.36-.94-6.41,1.07-7.13,2.08-5.67-1.1-7.77,2.52-8.32,3.79-3.55.98-4.58,3.76-4.65,5.41-2.54,2.29-2.15,5.14-1.47,6.64-1.05,2.55-.36,4.02.08,4.63-.06,1.69.99,3.31,2.71,4.13.65.31,1.32.46,1.98.46.82,0,1.62-.25,2.31-.72.04.06.07.12.12.17.28.34.6.63.94.89-.27,1.27-1.02,1.86-2.39,1.89-.48.01-1.03-.05-1.65-.18h0l-.47-.11c-1.49-.38-3.49.05-5.44.56,0,0,0,0,0,0-.54.14-1.09.3-1.64.45-1.35.38-2.62.74-3.71.92-1.73.28-2.73.38-3.24.41-.14,0-.25,0-.34,0-.94-1.33-4.6-6.45-7.24-9.3-.3-.32-.59-.62-.87-.88-.58-3.24-1.35-5.21-2.22-5.91l.04-.93c.68-.42,1.96-1.39,2.1-2.79.1-1.04-.44-2.03-1.61-2.94-.99-.77-1.89-.98-2.67-.64-1.74.77-2,4.05-2.22,6.95,0,.02,0,.04,0,.06-.07,0-.14-.02-.21-.01-.46.02-.86.27-1.14.7Zm22.1,35.33c-.86.6-2,.71-3.49.34-1.42-.35-2.21-1.16-2.12-2.17.14-1.53,2.15-3.19,5.72-3.42.12,0,.24-.01.35-.01.67,0,1.25.13,1.73.39-.34,2.47-1.08,4.11-2.19,4.88Zm.82,35.26c2.43-1.03,3.47-.72,3.7-.37.26.39.02,1.34-.83,2.2-1.25,1.26-3.45,2-6.15.8.46-1,1.59-1.91,3.28-2.62Zm-5.58-4.49c1.69-.72,3.73-.72,4.64,0,.02.02.04.03.05.05-.41.58-3.25,1.68-6.18,1.76-.21,0-.41,0-.59,0,.28-.71,1.01-1.35,2.07-1.81Zm8.55-36.36c.09-.92.13-1.92.13-2.97,0-1.74-.18-3.01-.4-4.04.76-.15,1.39-.29,1.82-.39.11-.02.21.02.25.1.78,1.66,2.81,5.88,4.7,9.32l.57,1.03c.88,1.58,1.78,3.22,1.66,3.57,0,0-.08.11-.57.24-1.04.27-3.49,1-6.13,1.98.24-2.22.37-6.69-2.03-8.83Zm.89,27.51c0,2.37-2.36,3.48-3.95,3.65-1.04.12-1.91-.15-2-.6-.13-.6.29-.89,1.68-1.52,1.43-.65,3.58-1.62,2.68-4.29-.92-2.74.9-4.41,1.44-4.84l.21-.02c.77.42,1.59.89,2.41,1.39-1.68.93-2.48,2.94-2.48,6.24Zm20.38,23.11l-.84.06c-.17-.36-.41-.81-.69-1.28.63.24,1.26.41,1.89.55-.15.24-.27.48-.36.68Zm-20.21,3.44c.53-.24,1.45-.53,2.51-.73.96-.19,1.37-1.15,1.63-1.8l.12-.28c.99-2.2,2.02-3.81,2.82-4.42-.39,1.64-.43,3.39-.42,4.03l-.17,1.12c-2.75.63-3.79,1.23-3.81,2.16,0,.04.01.07.01.1-1.13.02-2.14-.05-2.7-.18Zm15.12-.14c-1.81.45-2.58.63-4.2-3.42.27-1.14.44-2.58.17-4.16-.07-.41-.45-.69-.86-.62-.41.07-.68.46-.62.86.31,1.85-.07,3.5-.44,4.56-.25.7-.35,1.46-.34,2.4,0,.16.02.34.05.52,0,.04.01.09.02.14-1.26.02-3.75-.05-4.25-.06-.03,0-.05-.02-.08-.03.42-.19,1.23-.46,2.76-.79.31-.07.54-.31.58-.62l.25-1.68s0-.08,0-.12c-.01-1.44.19-3.37.65-4.63,0,0,0,0,0,0,0,0,0,0,0-.01.25-.7.59-1.2,1-1.29.5-.12,1.98.76,4.34,4.67.35.57.68,1.23,1.06,2.06l.11.24c.24.54.56,1.22,1,1.85-.47.01-.88.05-1.2.13Zm21.85-.79c-.69.16-1.56.27-2.66.23-.16,0-.3-.01-.45-.02.37-.34.7-.74.91-1.23.08-.18.13-.36.17-.55.13.14.26.28.37.42.44.57,1.04.93,1.66,1.15Zm-8-1.05c.19-.17.28-.42.25-.67-.03-.26-.13-1.55,1.44-1.95.7-.18,1.71.18,2.66.77.22.47.24.89.08,1.28-.37.87-1.61,1.48-2.17,1.7-1.46-.06-2.4.01-4.15.7-1.32.52-4.39.28-6.87.08-.46-.04-.91-.07-1.34-.1,0,0,0,0,0,0-1.07-.08-1.74-1.57-2.18-2.55l-.11-.25c-.4-.88-.77-1.59-1.14-2.21-.45-.75-.88-1.4-1.27-1.96.07.01.13.02.2.04,1.37.41,2.88,2.73,3.76,4.58.2.43.65.68,1.11.65l1.48-.1,2.82.24s.04,0,.06,0c.39,0,.71-.3.75-.69.04-.41-.27-.78-.68-.81l-1.79-.15c.05-.08.1-.15.15-.22.17-.21,1.47-.56,3.27.71,2.35,1.67,3.36,1.19,3.68.91Zm-4.16-3.7s.05.06.07.08c-.41.17-1.04.27-1.75.28-.09,0-.18,0-.31,0-.94-.02-2.85-.24-5.03-1.38-1.39-.73-1.68-1.22-1.73-1.45-.08-.37.33-.91.77-1.49.54-.71,1.21-1.6,1.4-2.72.07-.41.21-.92.39-1.46,1.08.53,1.94,1.03,2.9,2.19-.39.55-.72,1.02-.96,1.39-.42.65-.05,1.39.55,1.87.83.56,3.1,2.13,3.7,2.7Zm3.57-30.96c1.72,4.56,2.78,7.67,3.03,9.9,0,.03,0,.07,0,.1.05.4.07.78.05,1.15-.03,1.23-.36,2.1-1.1,2.82-1.16,1.16-3.27,3.73-5.05,5.99-.31-.31-.67-.61-1.08-.89l-.32-.21c-.95-.64-1.8-1.21-2.5-1.75.92-1.37,1.8-2.33,2.53-2.72.87-.47,2.03-1.22,2.11-2.27.03-.39-.09-.98-.81-1.52-.78-.59-1.84-1.42-2.5-1.93,1.39-1.72,2.45-3.38,2.32-5.5-.08-1.35.41-2.44,1.34-3,.64-.38,1.36-.42,1.95-.15Zm-6.58,9.81c.66.52,1.75,1.38,2.55,1.98.18.13.21.21.21.21,0,.02-.08.38-1.33,1.06-1.11.6-2.16,1.88-2.96,3.07-1.24-1.22-1.33-2.18-.46-3.65.55-.94,1.28-1.82,1.99-2.67Zm5.01-12.29l.53.8c-.57.04-1.15.22-1.68.54-1.41.85-2.19,2.49-2.07,4.38.11,1.82-1,3.3-2.47,5.04l-.29.35c-.81.96-1.65,1.95-2.31,3.08-1.73,2.93-.25,4.75,1.43,6.13.85.71,1.91,1.42,3.15,2.25l.32.21c.58.39,1.02.81,1.32,1.26.68,1,.61,2.03.54,3.13-.06.88-.12,1.84.3,2.68-.64-.48-1.38-1.2-2.08-2.25-.12-.18-.25-.36-.36-.52l-.07-.1c-1.44-1.92-2.71-2.54-4.17-3.25l-.37-.18c-1.13-.56-2.48-1.29-4.28-2.87-2.39-2.1-2.57-4.06-2.74-5.96-.14-1.56-.29-3.18-1.64-4.65-1.76-1.91-4.97-3.98-7.26-5.34,3.52-.21,6.23-.27,8.2-.16,0,0,0,0,0,0,0,0,0,0,0,0,1.93.09,2.68.34,2.95.47,0,0,0,0,0,0,.56.28,1.11.57,1.62.85,1.39.74,2.74,1.46,3.78,1.46.6,0,1.11-.24,1.46-.86.42-.75.68-2.06.13-3.52-.42-1.12-1.47-2.64-4.04-3.52-3.31-1.12-5.15-.65-5.91-.3-1.5-.62-7.55-2.85-13.48-1.15-.4.11-.63.53-.51.93.11.4.53.63.93.51,4.96-1.42,10.19.23,12.07.93-.37.98-.28,1.93-.09,2.66-2.39-.05-5.58.07-9.72.37,0,0,0,0,0,0,0,0-.02,0-.03,0l-.61.05c-1.5.11-2.86.22-3.9.31l-1.36.11c-.64.04-1.76,0-2.13-.73-.39-.78.13-2.15,1.31-3.51,1.01-1.15,3.44-2.5,7.04-3.92,3.11-1.22,6.22-2.14,7.15-2.38.53-.13,1.27-.39,1.57-1.09.43-1.01-.24-2.22-1.72-4.89l-.57-1.03c-1.87-3.4-3.88-7.6-4.66-9.24-.34-.71-1.15-1.09-1.94-.92-.43.1-1.07.25-1.84.39-.48-1.82-.77-2.96.45-6.02,1.1-.28,2.34-.54,3.35-.56-.68,1.67-1.3,5.06,2.7,8.25,1.32,1.05,2.31,2.31,3.05,3.63-.67-.08-1.84-.44-1.84-2.03,0-.41-.34-.75-.75-.75s-.75.34-.75.75c0,2.32,1.73,3.45,3.44,3.54.08,0,.16,0,.24,0,.13,0,.26-.02.4-.03,1.28,3.01,1.48,6.08,1.48,7.68,0,1.35.56,2.67,1.43,3.56-.58.4-.96,1.06-.96,1.81,0,1.24,1.03,2.24,2.29,2.24s2.3-1,2.3-2.24c0-.36-.1-.69-.25-.99.27-.13.53-.3.77-.53.06.04.13.09.19.13-.2.19-.34.42-.37.71-.07.72.63,1.15.87,1.29,2.09,1.25,5.79-.43,7.25-1.2.3.39.74.94,1.17,1.46.73.87,1.4,1.78,2.01,2.71Zm-15.49,3.11c-.25-.61-.49-1.61.06-2.56.37-.18,1.83-.69,4.85.33,2.02.69,2.81,1.81,3.12,2.64.34.91.23,1.78-.03,2.24-.23.42-1.96-.51-3.23-1.18-.53-.28-1.09-.58-1.67-.87-.62-.31-1.63-.51-3.11-.6Zm-5.99-32.69c2.51,2.01,5.13,2.63,7.4,2.63,2.66,0,4.81-.84,5.66-1.22.22.11.46.22.74.33-1.71,1.71-5.38,3.05-8.72,2.55-1.92-.29-4.34-1.29-5.54-4.32.16.01.31.02.46.03Zm11.08,17.87c.9-.34,1.97-.1,3.19.71.13.26.28.51.47.72-1.24.06-2.58.32-3.14,1.02-.29.35-.37.78-.24,1.2.27.88,1.16,1.38,2.66,1.5-.55.29-1.17.52-1.7.72l-.18.07c-1.82-1.02-3.57-2.54-3.31-3.27.18-.5.87-2.16,2.23-2.66,0,0,0,0,0,0,0,0,0,0,0,0Zm6.29-6.68l4.63,4.38-3.7,4.12c-.47-.16-.99-.26-1.44-.31l-.94-1.01c-.16-.17-.29-.37-.39-.61-.23-.51-.25-1.08-.04-1.6l1.88-4.96Zm.79,12.57s-.01,0-.02.01c0,0-.02,0-.03,0-1.63.94-4.58,2.15-6.03,1.65.08-.03.16-.06.26-.1,0,0,0,0,0,0,0,0,0,0,0,0l.5-.19c1.05-.39,2.35-.88,3.22-1.74.33-.31.42-.78.24-1.2-.19-.43-.63-.69-1.09-.67-1.5.07-2.13-.17-2.34-.35.45-.26,1.9-.51,3.54-.35,0,0,0,0,0,0,.74.07,1.36.22,1.71.41.02.01.04.01.07.02.01,0,.02.02.04.02.99.36,1.31,1.19,1.42,1.7-.9.47-1.49.76-1.49.76Zm-10.64,1.5c.44,0,.8.33.8.73s-.37.74-.8.74-.79-.33-.79-.74.35-.73.79-.73Zm2.36-15.05c-.15.29-.27.59-.37.9-.19-.29-.33-.66-.35-1.17-.02-.41-.36-.73-.78-.72-.41.02-.74.37-.72.78.05,1.2.57,2.21,1.46,2.85-.16,1.71.31,3.16.67,3.99-1.41.88-2.11,2.47-2.37,3.19-.46,1.27.52,2.53,1.67,3.51-.35.24-.72.28-1.13.1-.84-.36-1.71-1.59-1.71-3.02,0-1.68-.21-4.86-1.52-8.04,1.05-.46,1.89-1.32,2.02-2.53.04-.41-.25-.78-.67-.83-.41-.04-.78.25-.83.67-.07.62-.54,1.06-1.15,1.32-.86-1.65-2.05-3.24-3.7-4.56-3.12-2.49-2.82-5-2.34-6.32,1.14,3.02,3.5,4.95,6.77,5.44,3.93.59,8.57-1.02,10.52-3.56.05.01.11.03.16.04-.32,1.52-1.45,2.74-2.73,4.12-1.06,1.15-2.16,2.33-2.92,3.84Zm13.39,10.81c-.79.45-1.56.88-2.26,1.25-.19-.61-.57-1.35-1.33-1.89l3.64-4.04c.09-.1.15-.22.2-.35,2.85.11,3.76,1.57,4.04,2.27-.16.12-.33.25-.54.4-.97.7-2.27,1.51-3.76,2.36Zm5.41-3.87c-.61-1.09-1.97-2.5-4.94-2.65.41-1.04,1.39-2.56,3.55-2.37,1.36,1.46,2.01,2.65,1.97,3.62-.02.47-.22.93-.57,1.4Zm-6-9.94c.9,1.06,1.92,2.26,3.19,3.49-1.85.4-2.95,1.85-3.49,3.17l-4.32-4.1c-.29-.28-.7-.39-1.09-.29-.39.09-.69.37-.82.72l-2.06,5.41c-.13.34-.2.7-.22,1.05-1.07-.45-1.96-.49-2.66-.37-.26-.56-.63-1.58-.62-2.82.28.06.57.1.86.1.63,0,1.28-.14,1.86-.41,1.05-.5,1.76-1.37,1.99-2.45.09-.4-.17-.8-.58-.89-.4-.09-.8.17-.89.58-.17.79-.73,1.21-1.17,1.41-.57.27-1.25.33-1.86.19.1-.38.23-.75.42-1.11.66-1.32,1.69-2.42,2.68-3.5,1.31-1.41,2.66-2.87,3.08-4.77,2.44.76,3.84,2.39,5.7,4.58Zm-12.7-17.2c.21-.24.5-.39.81-.41.31-.03.62.1.86.32-.21.24-.5.39-.81.41-.32.01-.62-.1-.87-.32Zm-.78,4.85c.02-.25.05-.51.07-.8,0,0,0-.01,0-.02l1.53.16c-.44.35-.98.6-1.6.74,0-.02,0-.05,0-.08Zm-3.76-.76c0,.05-.01.11-.02.16,0,.06-.02.11-.02.17-.44-.25-.79-.55-1.05-.9l1.16.12c-.02.15-.04.3-.06.45Zm1.33,1.48c.03-.33.07-.69.12-1.06.02-.16.04-.32.07-.49.01-.07.02-.15.03-.23l.78.09c-.05.71-.11,1.29-.19,1.79-.07.45-.16.97-.31,1.37-.19.56-.33.61-.32.6-.06-.01-.16-.22-.21-.64-.04-.34-.03-.8.02-1.44Zm2.19.91c1.66-.22,3.03-1.04,3.81-2.3,0-.02.02-.03.03-.05.14-.27.13-.59-.01-.86-.15-.27-.42-.44-.71-.46l-2.95-.31c.23-.02.44-.13.57-.34.02-.04.14-.23.22-.51.28.1.56.16.86.16.05,0,.1,0,.15,0,1-.06,1.89-.69,2.32-1.66.1-.22.08-.48-.04-.69-.54-.91-1.49-1.44-2.5-1.38-.82.05-1.55.49-2.03,1.16-.54-.23-1.08-.31-1.56-.24-.39-.75-1.06-1.29-1.88-1.43-.98-.18-2.01.23-2.66,1.07-.15.19-.2.44-.13.67.3,1.01,1.11,1.75,2.11,1.93.15.03.3.04.45.04.17,0,.34-.03.51-.06.04.18.1.36.18.53.18.37.63.53,1,.34.37-.18.53-.63.34-1-.04-.08-.17-.37-.06-.48.13-.13.56-.22,1.12.02.12.05.34.16.39.31.05.14-.03.36-.07.43-.22.35-.11.82.25,1.03.04.03.09.04.13.06l-1.25-.13h0s-1.1-.14-1.1-.14c-.04,0-.09.01-.13.01l-2.77-.29s-.02,0-.03,0c-.32-.03-.64.12-.84.37-.19.24-.26.56-.17.83.33,1.24,1.31,2.27,2.73,2.88,0,.04,0,.08,0,.12,0,.03,0,.07,0,.1-.93-.21-1.76-.72-2.37-1.46-.69-.84-1-1.88-.89-2.94l.52-5.04c.23-2.16,2.28-3.73,4.51-3.54l1.35.13c-.82.32-1.43,1.03-1.57,1.89-.07.42-.02.83.12,1.22-.06-.06-.12-.11-.19-.15l-2.35-1.12c-.38-.18-.82-.02-1,.35-.18.37-.02.82.35,1l2.35,1.12c.1.05.21.07.32.07.28,0,.55-.16.68-.43.07-.14.07-.29.05-.43.16.26.34.51.59.7.13.1.29.16.46.16.08,0,.17-.01.25-.04.15-.05.28-.13.41-.21,0,.01,0,.03,0,.04.09.33.39.55.72.55.06,0,.13,0,.2-.03l2.53-.68c.4-.11.64-.52.53-.92-.11-.4-.52-.64-.92-.53l-2.1.56c.12-.22.21-.46.25-.72h0c.15-.88-.21-1.78-.92-2.33,0,0-.02,0-.03-.01l1.31.13c1.19.12,2.25.67,2.99,1.57.69.84,1.01,1.9.9,2.96h0s-.5,4.83-.5,4.83c-.24,2.26-2.34,3.93-4.71,3.69h-.13c0-.06.02-.1.02-.15Zm-4.14-6.71c-.3-.05-.57-.23-.75-.5.27-.19.59-.27.91-.22.31.05.57.23.74.5-.27.19-.6.27-.9.22Zm-8.98,1.06c-.12-.13-.65-.85-.2-2.46,1.93,1.7,3.93,2.06,4.95,2.12l-.08.76c-.76.31-2.7.86-4.68-.42Zm3.86-9.1c.12-.17.33-.28.55-.28.29,0,.55.17.66.5,0,.01.02.04.02.11,0,.32-.26.59-.67.62-.37,0-.67-.28-.67-.62,0-.14.06-.25.12-.33Zm5.18-2.39c-.25.33-.69.52-1.2.33-.43-.13-.74-.53-.74-.96,0-.37.22-.71.6-.9.15-.08.32-.12.49-.12.6,0,1.09.46,1.09,1.02,0,.22-.07.43-.24.62Zm-3.94,4.72c.87-.28,1.49-1.07,1.49-2,0-.04,0-.08-.01-.12.34-.29.72-.55,1.14-.75.15.03.31.05.47.05.7,0,1.35-.28,1.81-.74h0s.14-.02.14-.02c.71-.08,1.4-.1,2.07-.08.44.32.97.5,1.53.5.37,0,.71-.1,1.03-.23.7.14,1.34.34,1.92.57.4.71,1.17,1.17,2.03,1.17.01,0,.02,0,.03,0,.2.17.39.34.56.52-.16.3-.25.63-.25.97,0,.96.66,1.76,1.56,2.02.08,1.37-.3,2.12-.71,2.52l.02-.18c.15-1.47-.28-2.91-1.23-4.07-.99-1.21-2.41-1.96-4-2.12l-3.39-.33c-3.01-.28-5.73,1.83-6.12,4.73-.04-.07-.1-.12-.14-.2-.26-.61-.23-1.41.05-2.21Zm8.64-6.7s0,0,0,0c0,0,0,0,0,0,.59,0,1.09.47,1.09,1.02,0,.35-.19.67-.51.86-.4.24-.98.2-1.35-.15-.2-.18-.31-.44-.31-.71,0-.56.49-1.01,1.08-1.02Zm4.17,2.79c0-.42.37-.76.82-.76.13,0,.26.03.39.1.26.13.42.38.42.66,0,.36-.28.68-.69.75-.38.08-.78-.15-.91-.53,0,0,0,0,0,0-.03-.07-.04-.14-.04-.22Zm3.88,3.4c.08.1.12.21.12.34,0,.33-.27.59-.63.61-.03,0-.06,0-.08,0-.35-.02-.63-.29-.63-.62,0-.22.11-.36.22-.45.12-.11.29-.17.45-.17.22,0,.41.09.55.27Zm-9.06,1.98c-.03.18-.12.35-.24.49-.07-.16-.09-.34-.06-.52.03-.19.12-.35.24-.49.07.16.09.34.06.52Zm8.5,10.71c-.99.16-1.9-.04-2.79-.56.33-.46.6-.96.77-1.51,2.26,1.12,4.17.59,5.99-.16-1.06.99-2.45,1.99-3.97,2.23Zm14.93-7.77c-.53,1.05-1.99,2.54-5.99,2.54-1.78,0-3.27.64-4.71,1.26-2.11.9-3.8,1.6-5.97.33l.24-2.36c.16-.05.34-.13.52-.23.95.46,1.91.67,2.85.67,2.87,0,5.5-1.81,7.02-3.34,1.1.88,3,1.71,6.04,1.13Zm-1.94-13.57c-.1.37-.28.78-.6,1.16-.74.9-2,1.42-3.75,1.56-.67-.14-3.55-.56-5.81,1.45-.31.27-.34.75-.06,1.06.15.17.35.25.56.25.18,0,.36-.06.5-.19,1.52-1.35,3.48-1.25,4.26-1.14.55,1.05,2.41,3.66,7.51,3.75h1.13c-1.04,1.36-3.49,3.4-8.24,2-.29-.09-.59,0-.79.24-.19.23-.23.55-.1.82.01.03.09.18.24.39-1.13,1.11-4.33,3.81-7.63,2.65.44-.68.75-1.66.66-3.09.76-.33,1.28-1.06,1.28-1.92,0-.19-.03-.38-.08-.56l.96-.65c.34-.23.43-.7.2-1.04-.23-.34-.7-.43-1.04-.2l-1.02.69c-.34-.22-.75-.36-1.18-.36-.28,0-.55.05-.8.15-.04-.05-.08-.09-.12-.14.45-.41.73-1,.73-1.64,0-.54-.21-1.04-.55-1.43l.62-.79c.07-.09.11-.2.14-.3.92-1.32,3.48-4.32,7.39-3.63.64.41,3.04,1.76,5.58.9Zm-20.91-2.15c.34.08.7-.09.85-.41.01-.02.95-1.93,3.9-1.97-1.83,1.63-2.44,3.92-2.48,4.05-.1.4.14.81.54.91.06.02.12.02.19.02.33,0,.64-.23.73-.57,0-.03.84-3.2,3.51-4.21.25-.09,4.24-1.39,6.88,1.84-4.78.05-7.56,4.55-7.84,5.03l-.4.51c-.15-.03-.31-.06-.47-.06-1.07,0-1.97.72-2.23,1.68-.14-.04-.28-.09-.42-.13.16-.33.26-.69.26-1.06,0-1.11-.74-2.04-1.76-2.38l.17-1.31c.05-.41-.24-.79-.65-.84-.42-.05-.79.24-.84.65l-.18,1.45c-1.1.29-1.91,1.26-1.91,2.42,0,.17.02.35.05.51-.14,0-.3.02-.44.03,0-.07.02-.15.02-.22,0-1.39-1.16-2.52-2.59-2.52-.25,0-.48.04-.71.11l-1.2-.96c.54-1.12,2.32-3.7,7.04-2.58Zm-8.08,3.67l.93.75c-.35.43-.57.96-.57,1.54,0,.61.23,1.17.6,1.61-.1.07-.19.16-.29.24-.39-.37-.91-.61-1.49-.61-.52,0-1,.18-1.38.49l-1.32-.5c.2-1.03.92-2.8,3.51-3.51Zm-3.93,4.96l.99.38c-.02.1-.05.2-.05.3,0,.86.53,1.6,1.29,1.93-.27,1.02-.23,2.03.13,2.87.28.65.73,1.15,1.31,1.49l-.06.63c-.85-.03-2.92-.35-4.79-2.42-.23-.46-1.35-3.04,1.17-5.18Zm.81,13.05c-.68-.32-1.35-.95-1.67-1.74.79.3,1.55.42,2.23.42.78,0,1.45-.14,1.97-.29.05.48.19.94.37,1.39-.82.62-1.88.71-2.9.22Zm7.42,3.31c.26.94.83,1.27,1.28,1.36.1.02.21.04.33.04.45,0,1.03-.21,1.47-1.07l.46.04c.2.02.39.03.58.03.56,0,1.1-.1,1.63-.25.07.9.15,1.72.63,2.42-1.77.69-5.76,1.73-9.7-.7.93-.42,1.59-1.18,1.92-2.25.44.18.9.31,1.39.38Zm-17.8,3.87c1.17-.19,2.49-.56,3.88-.96.07-.02.14-.04.21-.06-.91,2.73-.6,4.15-.16,5.8-2.37.37-4.49.5-6.23.36.45-1.1.89-2.94.07-4.83.57-.07,1.3-.17,2.23-.32Zm-4.28.43s.13.01.43.01c1.06,1.79.41,3.66.01,4.48-1.49-.3-2.6-.83-3.27-1.62-3.04-3.59-5.7-8.43-6.78-10.5,1.06-.21,1.84-.82,2.36-1.43,2.88,3.29,6.66,8.68,6.7,8.74.12.18.33.29.54.32Zm-11.38-23.51c.23-.1.64.06,1.14.45.73.57,1.08,1.11,1.03,1.61-.08.84-1.26,1.62-1.67,1.83-.24.12-.4.36-.41.63l-.06,1.34c-.13.09-.25.19-.36.33-.18.25-.29.55-.36.89-.23-.24-.47-.47-.71-.68.02-.23.04-.46.06-.71.15-1.85.42-5.29,1.33-5.69Zm-2.94,7.14c.06.02.16.07.32.19.66.48,1.52,1.53,2.1,2.34.02.03.05.06.08.09.24.24.66.3.95.13.28-.16.45-.52.38-.84-.18-.9-.17-1.55-.12-1.81.46.64,1.13,2.86,1.52,5.11.03.17.11.32.24.43.18.16.37.35.57.56-.35.48-1.09,1.2-2.32,1.11-.9-.52-2.94-1.92-3.5-3.32-.69-1.73-.53-3.58-.24-3.98Z"/>
  <path class="cls-1" d="m98.03,88.32c.34-.04.86.11,1.28.7.24.33.71.41,1.05.17.34-.24.41-.71.17-1.05-.69-.96-1.7-1.44-2.7-1.31-.81.11-1.45.62-1.73,1.37-.25.67-.39,2.1,1.4,4.1.8.89.89,1.39.82,1.54-.04.08-.17.2-.42.3-.35-1.22-1.41-2.27-2.98-2.95-1.84-.79-4.56-1.06-6.16.2-.78.62-.68,1.32-.6,1.59.5,1.69,4.43,2.64,6.79,2.85.45.04.93.07,1.4.05-.38.93-1.35,1.95-2.84,2.96-.58-1.02-1.79-2.16-4.18-3.17-3.66-1.55-5.04-.56-5.53.17-.73,1.08-.31,2.77,1.02,4.1,1.52,1.52,4.29,2.57,7.57,1.21-.19.51-.62,1-1.25,1.38-1.67,1-4.61,1.21-7.42-.56-3.59-2.26-2.62-5.15-.75-9.68,1.08-2.61,2.19-5.31,1.96-8.01-.03-.6-.71-14.75-3.28-21.29-.15-.39-.58-.58-.97-.42-.39.15-.58.59-.42.97,2.47,6.31,3.17,20.67,3.18,20.84.2,2.37-.84,4.9-1.85,7.34-1.72,4.16-3.5,8.47,1.34,11.52,1.75,1.1,3.55,1.55,5.18,1.55,1.49,0,2.82-.38,3.81-.96,1.42-.85,2.17-2.1,2.08-3.45,0-.01,0-.03,0-.04.1-.07.21-.13.31-.21,2.17-1.46,3.41-2.95,3.68-4.44.76-.19,1.38-.55,1.69-1.17.44-.88.09-1.96-1.04-3.22-1.08-1.21-1.28-2.12-1.11-2.58.11-.31.38-.39.52-.41Zm-12.16,10.58c-.85-.86-1.1-1.81-.83-2.2.11-.17.42-.33.99-.33s1.47.18,2.71.7c1.74.74,2.95,1.63,3.46,2.54-2.78,1.32-5.05.57-6.33-.71Zm9.93-4.51c-2.92-.08-5.77-1.18-6.18-1.76.01-.01.03-.03.05-.05.92-.72,2.96-.72,4.64,0,.53.23,1.69.82,2.07,1.81-.18,0-.38,0-.59,0Z"/>
</svg>