<svg id="Symbols" xmlns="http://www.w3.org/2000/svg" viewBox="0 0 150 150"><defs><style>.cls-1{fill:#231f20;}</style></defs><title>sindura-bold</title><g id="sindura_bold"><path class="cls-1" d="M74.62,44.36l.38-.44.38.44c.19.23,1.51,1.78,3.34,4.14.73-1,1.42-1.91,2.07-2.75-2.62-3.6-4.91-6.41-5.79-7.46-.88,1.05-3.17,3.86-5.79,7.46.64.84,1.34,1.76,2.07,2.75C73.11,46.14,74.43,44.59,74.62,44.36Z"/><path class="cls-1" d="M50.56,53.88c-1.4-1.81-2.51-3.17-3.06-3.84-1,1.26-4.1,5-7.33,9.63.8,1,1.89,2.36,3.15,4C46,59.63,48.8,56.07,50.56,53.88Z"/><path class="cls-1" d="M109.83,59.67c-3.23-4.62-6.28-8.37-7.33-9.63-.55.67-1.66,2-3.06,3.84,1.76,2.19,4.52,5.75,7.24,9.8C107.94,62,109,60.65,109.83,59.67Z"/><path class="cls-1" d="M59.82,60.14l.33.47,1.47,2.08a116.66,116.66,0,0,1,9-13.35q-1.08-1.47-2-2.73l-.32-.42-.33-.42C66.6,44,65.53,42.74,65,42.1a149.32,149.32,0,0,0-9.33,12.57c1.06,1.34,2.39,3,3.8,5Z"/><path class="cls-1" d="M88.38,62.69c.5-.71,1-1.41,1.47-2.08l.33-.47.34-.47c1.42-1.94,2.74-3.66,3.81-5A149.32,149.32,0,0,0,85,42.1c-.54.64-1.6,1.94-2.94,3.67l-.33.42-.32.42q-1,1.26-2,2.73A118,118,0,0,1,88.38,62.69Z"/><path class="cls-1" d="M122.15,72.57h-.75a150.5,150.5,0,0,0-9.86-13.39l-.44.53-.34.41-.33.41c-.82,1-1.91,2.4-3.15,4a82.07,82.07,0,0,1,4.69,8h-1.14a82.36,82.36,0,0,0-4.2-7.12l-.3-.45-.3-.46c-2.69-4-5.44-7.59-7.23-9.84l-.32-.4-.33-.41-1-1.17c-.35.42-.91,1.1-1.62,2l-.34.43-.33.42c-1.1,1.41-2.46,3.18-3.9,5.18l-.35.49-.34.48c-.46.64-.92,1.31-1.38,2,.37.68.72,1.37,1.06,2l.27.55.26.56c.53,1.16,1,2.29,1.39,3.4.13.37.25.75.36,1.12s.22.8.32,1.19h-1a29.73,29.73,0,0,0-1.66-4.64l-.25-.57-.27-.56c-.34-.71-.71-1.43-1.09-2.15-.09-.17-.18-.34-.28-.51s-.18-.34-.28-.51a118.37,118.37,0,0,0-9-13.43l-.32-.42-.33-.43c-1.42-1.84-2.54-3.21-3.1-3.88-.56.67-1.68,2-3.1,3.88l-.33.43-.32.42a118.37,118.37,0,0,0-9,13.43l-.29.51-.27.51c-.38.72-.75,1.44-1.09,2.15l-.27.56c-.09.19-.17.38-.25.57a28.74,28.74,0,0,0-1.66,4.64h-1c.09-.39.2-.79.32-1.2s.23-.74.36-1.11a33.84,33.84,0,0,1,1.39-3.4l.26-.56.27-.55c.34-.68.69-1.37,1.06-2-.46-.68-.92-1.35-1.38-2l-.34-.47L59,60.74c-1.44-2-2.8-3.77-3.9-5.18l-.33-.42-.34-.43c-.71-.89-1.27-1.57-1.62-2l-.95,1.17-.33.41-.32.4C49.41,57,46.66,60.53,44,64.54l-.3.46-.3.45a82.36,82.36,0,0,0-4.2,7.12H38a82.07,82.07,0,0,1,4.69-8c-1.24-1.65-2.33-3-3.15-4l-.33-.41-.34-.42-.44-.52A150.5,150.5,0,0,0,28.6,72.57h-.75a3.35,3.35,0,0,0-3.35,3.35v1a3.33,3.33,0,0,0,2.59,3.26l1.15.69.1,1.77c0,.22,0,.46.08.68A24,24,0,0,0,38.6,100.05l.24.19a31.28,31.28,0,0,0,3.41,2.1l.44.23h3.73v2.14H38.68l-4.81,3.14a2.93,2.93,0,0,0,.06,5.86h82.14a2.93,2.93,0,0,0,.06-5.86l-4.82-3.14h-7.73v-2.14h3.71l.43-.22a26.9,26.9,0,0,0,3.43-2.11l.23-.18h0c5.84-4.26,9.46-10.18,10.19-16.71,0-.22.06-.44.08-.66l.11-1.93.77-.46a3.35,3.35,0,0,0,3-3.33v-1A3.35,3.35,0,0,0,122.15,72.57Zm-2.83,5H30.43l-1.66-1H121ZM105.94,91.09v.06c-.44,2.08-1.11,4.59-2,7.42H99.13c.67-2.74,1.15-5.08,1.47-7.11v-.08a24.16,24.16,0,0,1,2.85-6.81h3.1a20.14,20.14,0,0,1-.62,6.51ZM46.06,98.57c-.83-2.75-1.49-5.22-2-7.32a20.82,20.82,0,0,1-.65-6.68h3.08a24.57,24.57,0,0,1,2.87,6.86v0c.32,2,.8,4.37,1.47,7.11Zm53.57-7.4v0l0,.11c-.32,2-.82,4.45-1.51,7.26H93.26c.5-2.68.86-5.09,1.07-7.18a23.12,23.12,0,0,1,2.45-6.82h3.1a19.49,19.49,0,0,1-.24,6.59h0Zm-49.24.06a19.94,19.94,0,0,1-.27-6.66h3.11a22.3,22.3,0,0,1,2.44,6.75v.05c.2,2.08.56,4.5,1.07,7.2H51.91c-.69-2.81-1.19-5.19-1.5-7.19Zm6.39-6.66H59.9A21.87,21.87,0,0,1,62,91.3v.11c.09,2,.33,4.43.69,7.16H57.77c-.52-2.75-.89-5.21-1.1-7.32A20,20,0,0,1,56.78,84.57Zm6.67,0h3.12a21.48,21.48,0,0,1,1.67,6.86h0c0,2,.07,4.43.27,7.14H63.65c-.37-2.75-.61-5.19-.7-7.28A20.1,20.1,0,0,1,63.45,84.57Zm9.78,0a21.33,21.33,0,0,1,1.27,6.82c-.13,2.09-.17,4.5-.12,7.18H69.51c-.2-2.71-.29-5.12-.27-7.16a20.89,20.89,0,0,1,.88-6.84Zm6.67,0a20.93,20.93,0,0,1,.88,6.76c0,2-.06,4.44-.28,7.24H75.38c0-2.67,0-5.08.12-7.15a21.44,21.44,0,0,1,1.28-6.85Zm6.67,0a19.85,19.85,0,0,1,.51,6.58l-.07.12.06.15c-.1,2.09-.34,4.5-.7,7.15H81.51c.21-2.78.3-5.17.27-7.24a21.76,21.76,0,0,1,1.67-6.76Zm6.65,0a20.29,20.29,0,0,1,.12,6.71c-.21,2.09-.58,4.55-1.1,7.29H87.38c.33-2.49.56-4.76.67-6.77v-.29a.86.86,0,0,0,0-.16,22,22,0,0,1,2.05-6.78Zm-30.75,18L60.58,104l-1.88-1.44Zm5.23,0L65.82,104l-1.89-1.44Zm5.24,0L71.05,104l-1.89-1.44Zm5.24,0L76.29,104l-1.89-1.44Zm5.24,0L81.53,104l-1.89-1.44Zm5.24,0L86.77,104l-1.89-1.44Zm5.24,0L92,104l-1.89-1.44Zm7-18h1.37a18.52,18.52,0,0,0-1.22,2.48A12.2,12.2,0,0,0,100.9,84.57Zm-6.38,2.51a12.28,12.28,0,0,0-.28-2.51h1.38A18.51,18.51,0,0,0,94.52,87.08Zm-6.49,0a14.9,14.9,0,0,0-.42-2.54H89A16,16,0,0,0,88,87.11Zm-6.52,0A14,14,0,0,0,81,84.57h1.39A15.87,15.87,0,0,0,81.51,87.12Zm-6.51,0a14.28,14.28,0,0,0-.69-2.57H75.7A15.1,15.1,0,0,0,75,87.14Zm-6.49,0a15.29,15.29,0,0,0-.85-2.58h1.4A14.41,14.41,0,0,0,68.51,87.15Zm-6.51,0a16.07,16.07,0,0,0-1-2.55h1.4A13.13,13.13,0,0,0,62,87.12Zm-6.52-.05a17.23,17.23,0,0,0-1.09-2.5h1.37A12.91,12.91,0,0,0,55.48,87.07Zm-6.52,0a18.06,18.06,0,0,0-1.23-2.49h1.38A12.35,12.35,0,0,0,49,87.06Zm-6.52,0a19.47,19.47,0,0,0-1.34-2.46h1.37A12.27,12.27,0,0,0,42.44,87Zm14.8,15.54L55.35,104l-1.88-1.44Zm-2.62,2.14H50.85l1.89-1.44ZM58,103.27l1.88,1.44H56.08Zm5.23,0,1.89,1.44H61.31Zm5.23,0,1.89,1.44H66.55Zm5.24,0,1.89,1.44H71.78Zm5.24,0,1.89,1.44H77Zm5.24,0L86,104.71H82.26Zm5.24,0,1.89,1.44H87.5Zm5.24,0,1.89,1.44H92.74Zm.73-.7h3.78L97.25,104Zm12.19-18h1.36A20.43,20.43,0,0,0,107.57,87,11.46,11.46,0,0,0,107.55,84.57Zm8,0A21,21,0,0,0,114.1,87a11,11,0,0,0,.1-2.43Zm-79.76,0a11.49,11.49,0,0,0,.1,2.41,21.54,21.54,0,0,0-1.45-2.41Zm-3.15,0h.55a27.75,27.75,0,0,1,3.66,6.94v0c.19.69.41,1.44.64,2.21A19.45,19.45,0,0,1,32.66,84.57Zm8.71,12.56L41.13,97A25,25,0,0,1,39,95.25c-.47-1.44-.88-2.79-1.22-4a21,21,0,0,1-1-6.65h3.07a26,26,0,0,1,3.26,6.89c.44,2.06,1.07,4.45,1.88,7.11H43.69A26.11,26.11,0,0,1,41.37,97.13ZM52,102.57l-1.59,1.21v-1.21Zm59.65,7.14H38.34l1.54-1h70.24Zm-13.68-5,1.6-1.22v1.22Zm10.67-7.64-.05.07a21.43,21.43,0,0,1-2.29,1.43H105c.82-2.74,1.45-5.17,1.88-7.21a25.91,25.91,0,0,1,3.23-6.79h3.09a21,21,0,0,1-1,6.71c-.33,1.22-.74,2.55-1.2,4a24.39,24.39,0,0,1-2,1.67Zm3.85-3.34c.23-.76.44-1.49.63-2.18a28,28,0,0,1,3.69-7h.52A19.44,19.44,0,0,1,112.5,93.73Z"/></g></svg>