<?xml version="1.0" encoding="UTF-8"?>
<svg id="icons" xmlns="http://www.w3.org/2000/svg" viewBox="0 0 120 120">
  <path d="m98.46,43.65c-4.06-12.87-15.74-22.06-31.25-24.58-.21-.03-.42.02-.59.15-.17.13-.27.32-.28.53l-1.08,15.01c-3.25-13.28-8.9-21.48-11.43-24.65-.38-.48-.98-.72-1.59-.63-.61.08-1.11.47-1.35,1.03-.43,1.01-.82,2.04-1.18,3.06,0,0,0,0,0,0-.32.89-.62,1.79-.89,2.68,0,0,0,0,0,0-.48,1.56-.9,3.11-1.26,4.65-.01.03-.02.07-.02.1-1.15,4.88-1.75,9.51-2.05,13.27l-1.61-9.73c-.04-.23-.18-.43-.39-.54-.21-.11-.45-.12-.66-.02-13.87,6.27-22.84,19.88-22.84,34.67,0,13.04,6.66,24.9,17.81,31.72.12.07.26.11.39.11.09,0,.19-.02.27-.05.22-.09.38-.27.45-.5l4.32-15.36c.31,1.08.74,1.72,1.28,1.99.65.33,1.32.47,2.01.47.66,0,1.32-.13,1.99-.36l-8.58,11.95c-.23.33-.43.68-.61,1.1l-2.65,7.83c-.63,1.48-.16,3.17,1.13,4.11,1.03.75,2.41,1.6,4.06,2.28l-.38.94c-.08.21-.29.34-.51.34h-4.97c-.62,0-1.2.3-1.55.81-.35.51-.43,1.16-.21,1.73l.73,1.91c.24.62.85,1.04,1.51,1.04h6.93c1.1,0,2.11-.69,2.5-1.72l1.42-3.77c.33.02.65.05.99.05,2.28,0,4.79-.49,7.46-1.77.86.37,3.69,1.4,7.97,1.26l1.6,4.23c.39,1.03,1.39,1.72,2.5,1.72h6.93c.67,0,1.27-.42,1.51-1.04l.73-1.91c.22-.58.14-1.22-.21-1.73-.35-.51-.93-.81-1.55-.81h-4.97c-.23,0-.43-.14-.51-.35l-.38-.93c.59-.15,1.2-.31,1.82-.51.01,0,.02,0,.03-.01.02,0,.04.01.06.01.19,0,.38-.07.52-.21,0,0,0,0,.01-.01,1.91-.67,3.75-1.62,5.47-2.85.42-.25.64-.72.56-1.21l-1.39-8.68c-.15-.97-.54-1.9-1.1-2.7l-9.35-13.21-1.45-2.85c-.24-.46-.19-1.01.12-1.43l.78-1.06c.21.23.4.49.57.8.11.21.22.4.33.59,0,0,0,0,0,.01,1.84,3.15,3.47,3.92,4.62,3.92.13,0,.26-.01.37-.03,1.23-.18,2.07-1.25,2.27-2.22l7.04,13.85c.1.19.27.33.47.38.06.02.13.03.19.03.14,0,.29-.04.41-.12,14.74-9.62,21.61-27.23,16.7-42.82Zm-32.7-1.38c.61.34,1.23.9,1.77,1.58-1.08.22-2.1.71-3.07,1.48-.12-.92-.36-1.75-.73-2.47l2.02-.59Zm-2.53,24.5l.17.2c.37.47.72.86,1.02,1.19l-.94,1.27c-.65.88-.74,2.03-.25,3l.92,1.81h-11.35c.52-.39,1.04-.78,1.53-1.16l.16-.12c.73-.33,4.43-2.13,5.23-4.62.31-.98.04-3.2-.66-4.04-.07-.09-.15-.15-.23-.21,1.39-1.45,4.9-5.45,4.56-8.36,2.54.36,5.81,1.21,6.99,3.02,1.26,1.92,1.76,5.86,1.89,9-.94-.16-1.68-.12-2.13-.05-.83-.96-1.47-2-1.88-3.11-.24-.64-.44-1.09-.61-1.38-.78-1.35-1.53-2.63-2.67-2.37-.49.11-1.02.49-1.67,1.19-1.22,1.33-1.26,3.37-.09,4.73Zm-.68,8.97c-.14,1.52-.98,2.87-2.38,3.77-1.7,1.09-3.8,1.27-5.36.46-1.41-.74-2.26-2.19-2.49-4.23h10.23Zm-15.61-33.15s-.02,0-.03,0l-.2-.02s0-.07,0-.1c.72-.15,2.07-.41,3.83-.69-.3.32-.56.67-.78,1.03l-2.82-.23Zm2.14,1.68c-.07.2-.13.4-.18.61-.69-.35-1.39-.53-2.07-.61.09-.05.17-.11.27-.16l1.99.16Zm5.59-3.05c.67-.08,1.37-.15,2.07-.21.42,0,.84,0,1.3.02,2.32.17,5.03,1.3,4.99,5.68-.33.38-.65.8-.96,1.25v-1.36c0-2.48-2.02-4.5-4.5-4.5h-1.62c-2.48,0-4.5,2.02-4.5,4.5v.5c-.39-.52-.79-.96-1.21-1.32.47-2.53,1.92-4.05,4.42-4.57Zm1-7.11c-.53,0-.96-.54-.96-1.21,0-.5.24-.92.57-1.11.23-.01.44-.02.66-.04.39.15.68.6.68,1.14,0,.67-.43,1.21-.96,1.21Zm1.91,3.69c0,.88-.54,1.61-1.23,1.72-.09,0-.19,0-.28.01-.74-.06-1.32-.81-1.32-1.73s.64-1.74,1.42-1.74,1.42.78,1.42,1.74Zm-2.31-7.61c-.39,0-.72-.43-.72-.95s.33-.94.72-.94.72.43.72.94-.33.95-.72.95Zm-.26-3.62c-.04.05-.09.11-.16.15-.13,0-.26.01-.39.02-.2-.09-.36-.33-.4-.61-.03-.21.02-.42.12-.58.03-.04.07-.09.12-.13.15-.02.31-.03.46-.05.19.1.35.33.39.61.03.21-.02.42-.12.58Zm-.63-2.8s-.04.05-.07.07c0,0-.02,0-.02,0-.09.01-.17.04-.26.06-.16-.05-.31-.23-.35-.49-.02-.17.01-.33.09-.46.04-.06.1-.11.18-.14.04,0,.08,0,.12,0,.17.03.35.21.39.5.02.17-.01.33-.09.46Zm6.81,29.18l1.02.45c.74.47,1.5.65,2.21.65.81,0,1.57-.24,2.23-.57.25.35.53.9.55,1.58-2.3-.74-4.72-.95-5.79-1.01-.06-.02-.13-.05-.2-.06-.06,0-.1-.04-.11-.06v-.13s.07-.86.07-.86h.02Zm-4.05-4.95c.44.42,1,.62,1.57.62.61,0,1.22-.24,1.66-.72.13-.14.2-.32.2-.51v2c0,1.65-1.35,3-3,3h-1.62c-1.19,0-2.22-.71-2.7-1.72-.05-.15-.11-.29-.16-.43-.08-.27-.14-.55-.14-.85v-1.83c.02.16.09.32.22.43.44.42,1,.62,1.57.62.61,0,1.22-.24,1.66-.72.28-.3.27-.78-.03-1.06-.3-.29-.78-.27-1.06.03-.3.31-.8.33-1.11.03-.3-.28-.78-.27-1.06.03-.11.12-.16.26-.18.41v-.75c0-1.65,1.35-3,3-3h1.62c1.65,0,3,1.35,3,3v.74c-.01-.18-.09-.36-.23-.5-.3-.29-.78-.27-1.06.03-.3.32-.8.33-1.11.03-.3-.28-.78-.27-1.06.03-.28.3-.27.78.03,1.06Zm-2.81,5.58c.51.2,1.05.32,1.63.32h1.62c.74,0,1.42-.2,2.04-.51v.39s0,.09,0,.09c0,.02,0,.05,0,.07v.33c0,.26.1.49.23.69-.48,1.23-1.76,1.74-2.78,1.8-1.11.06-2.53-.35-3.27-1.63.35-.31.56-.76.56-1.3l-.02-.25Zm-1.47.32c0,.07-.05.12-.12.13-1.85.17-5.23.71-7.56,2.3.15-1.69,1.46-2.64,2.04-2.97.74.34,1.54.53,2.34.53s1.55-.16,2.27-.5l.93-.5.1,1.01Zm-.5,1.68c.91,1.85,2.81,2.68,4.5,2.68.09,0,.19,0,.28,0,1.93-.1,3.47-1.15,4.09-2.71.18,0,.37.02.58.03.68,1.69-1.95,5.22-3.86,7.27-.17-.2-.36-.37-.58-.5,0,0-.02,0-.02-.01-.06-.03-.11-.07-.16-.1-.01,0-.03,0-.04,0-.01,0-.02-.02-.04-.02-.06-.02-.13-.01-.19-.02,0,0-.02,0-.02,0-.95-.16-2.21.3-3.23.83-1.26-1.61-3.44-4.92-3.24-7.1.74-.15,1.41-.26,1.94-.32Zm1,14.15s0-.03,0-.04c-.54-2.08-.65-4.34-.22-4.64,1.33-.94,2.97-1.52,3.51-1.42.21.14.58.8.73,1.37.14.55-.4,1.16-1,1.37-.41.15-1.17.25-1.64-.76-.18-.37-.63-.53-1-.36-.37.18-.53.62-.36,1,.52,1.11,1.45,1.72,2.49,1.72.33,0,.67-.06,1.02-.19.55-.2,1.05-.57,1.42-1.04.05.45.06.89-.02,1.13-.5,1.55-3.01,3.02-4.22,3.61-.32-.21-.83-.84-.7-1.44,0-.02,0-.03,0-.05,0-.06,0-.12,0-.19,0-.03,0-.06-.01-.09Zm13.3-18c-.35-.07-.58-.58-.59-.6-.17-.38-.6-.55-.98-.39-.38.16-.56.6-.39.98.09.21.25.48.47.73-.67.17-1.43.14-2.19-.35-.03-.02-.06-.03-.08-.05-.01,0-.02-.02-.03-.02,0,0-.02,0-.03,0l-1.05-.46s-.01,0-.02,0c0,0-.01,0-.02-.01h-.02c1.97-4.02,4.16-6.09,6.7-6.31.13.25.24.5.33.74.34.95.38,1.79.11,2.38l-.57,1.21c-.04.08-.06.17-.07.26l-.09,1.16c-.29-.12-.62-.05-.83.18,0,0-.25.26-.65.55Zm-1.66-10.79l-2.16.63s0,0,0,0c-.28-.3-.59-.57-.93-.81,1.04,0,2.07.02,3.08.09,0,.03.01.06.02.09Zm-.3-1.61c-1.98-.11-4.02-.08-5.99.03.23-.46.38-.99.38-1.56,0-.75-.24-1.44-.63-1.99,2.63-.18,4.69-.2,5.46-.2.28,1.2.54,2.44.78,3.72Zm-1.76-7.42c.21.72.41,1.46.6,2.21-1.07,0-3.2.05-5.8.24.24-.42.39-.92.39-1.45,0-.43-.1-.84-.27-1.2,2.96-.03,4.94.21,4.98.22.04,0,.07,0,.1,0Zm-.47-1.54c-.88-.09-2.73-.22-5.15-.17.11-.29.18-.61.18-.95,0-.4-.09-.77-.25-1.1,2.07-.03,3.74.06,4.52.11.24.69.47,1.39.7,2.11Zm-1.26-3.65c-1.04-.06-2.7-.12-4.64-.07.06-.28.08-.57.04-.86-.02-.17-.07-.33-.12-.49,2.03-.03,3.61.18,4.29.29.15.37.29.75.43,1.13Zm-1.1-2.74c-.98-.12-2.44-.24-4.18-.18.04-.22.05-.45.02-.69-.02-.13-.05-.25-.09-.37,1.69,0,3.13.12,3.8.2.15.34.3.69.45,1.04Zm-1.17-2.62c-.9-.08-2.16-.15-3.58-.12.02-.17.03-.34,0-.51h0c0-.07-.03-.13-.05-.2,1.49,0,2.72.11,3.31.18.1.21.21.42.31.64Zm-1.12-2.23c-.77-.06-1.79-.11-2.94-.09,0-.12,0-.24-.01-.36h0c-.01-.09-.03-.18-.06-.26,1.14-.05,2.11-.03,2.62,0,.13.24.26.47.39.72Zm-1.25-2.24c-.54,0-1.2,0-1.92.03,0-.07,0-.15-.01-.22h0c-.02-.12-.05-.24-.08-.35.77-.02,1.39.02,1.74.05.09.16.19.33.28.49Zm-2.21-3.04c.1.02.2.01.3-.01.22.32.44.65.67,1.01-.37,0-.79,0-1.25.02.03-.17.05-.35.02-.53-.02-.18-.08-.34-.16-.49.26,0,.42,0,.42,0Zm-.87,6.83s.05-.04.08-.06c.02,0,.04,0,.06,0,.09.02.21.13.24.33.02.12,0,.23-.06.31-.02.03-.06.08-.11.09-.09,0-.25-.11-.28-.34-.02-.12.01-.25.07-.33Zm-.25-2.02c.08,0,.13.14.14.23.01.08,0,.21-.07.25-.01,0-.02,0-.04,0-.07-.02-.12-.13-.13-.22-.02-.13.03-.21.08-.26,0,0,.01,0,.02,0Zm-.25-1.99s0,0,.01,0c.09,0,.13.15.14.23,0,.04,0,.09,0,.14-.06,0-.13.01-.19.02-.02-.04-.04-.09-.04-.13-.01-.09,0-.25.09-.27Zm-.74-5.55c.04-.1.13-.12.17-.13.05,0,.14,0,.21.08.03.03.06.08.09.11-.13-.02-.26-.03-.4-.02-.04,0-.07.02-.11.03.01-.03.02-.05.03-.08Zm.3,1.37s-.09.02-.13.03c.02-.01.05-.03.08-.03.02,0,.03,0,.05,0Zm-1.59,2c.09-.03.18-.07.27-.1,0,.1,0,.21.01.32.02.18.08.35.16.5-.25.05-.5.12-.75.19.1-.3.2-.61.31-.91Zm-.87,2.67c.44-.16.88-.29,1.31-.4,0,.12,0,.25.01.37,0,.06.02.11.04.17-.52.1-1.03.24-1.52.4.05-.18.11-.36.16-.54Zm-.67,2.36c.64-.33,1.4-.56,2.21-.73,0,.11,0,.21.01.32.01.07.03.15.05.22-.81.13-1.61.33-2.37.59.03-.13.07-.27.11-.4Zm-.54,2.19c.92-.43,1.96-.72,3.03-.9,0,.13,0,.26.01.39.02.12.04.24.08.35-1.16.19-2.29.5-3.3.96.06-.26.12-.53.18-.79Zm-.58,2.71c1.05-.72,2.43-1.14,3.88-1.38-.02.19-.03.39,0,.58.03.19.08.37.15.55-1.35.23-2.77.59-4.19,1.13.05-.29.11-.59.17-.88Zm-.47,2.63c1.59-.69,3.19-1.13,4.72-1.39-.03.22-.04.45-.01.68.03.2.09.39.16.57-1.68.18-3.39.47-4.99.93.04-.26.08-.53.12-.79Zm-.36,2.42c1.77-.57,3.76-.91,5.71-1.1-.1.27-.15.57-.15.88,0,.44.11.85.3,1.2-1.92.2-3.99.54-6.11,1.09.07-.67.16-1.37.25-2.08Zm-.42,3.67c2.16-.6,4.31-.96,6.29-1.17-.1.29-.16.61-.16.94,0,.71.25,1.35.65,1.83-2.33.29-4.78.71-7.02,1.33.06-.91.13-1.89.23-2.93Zm-.31,4.52c2.14-.63,4.52-1.06,6.84-1.36-.22.45-.35.97-.35,1.52,0,.75.24,1.44.63,1.99-3.23.39-5.88.88-7.2,1.15,0-.88.03-2,.08-3.29Zm4.98,13.29c.04.1.08.21.12.31,0,.02.02.04.02.06.03.09.08.17.14.24,0,0,0,.01.01.02l-.89.48c-.69.32-1.48.41-2.23.29.16-.2.28-.41.35-.58.16-.38-.01-.81-.39-.98-.38-.17-.82,0-.99.38,0,0-.22.46-.54.58-.18-.12-.36-.24-.53-.39l-.22-.19c-.24-.21-.59-.25-.86-.09l-.28-1.82c-.01-.07-.03-.14-.06-.2-.43-.92-.47-1.95-.13-2.9.05-.14.12-.26.19-.39,2.82-.28,4.93,1.46,6.29,5.17Zm-14.01,37.65c-10.19-6.62-16.25-17.73-16.25-29.91,0-13.89,8.24-26.69,21.07-32.89l.25,1.51c-13.2,6.36-20.57,17.92-20.22,31.82.31,12.35,6.84,23.92,15.6,27.84l-.46,1.63Zm.87-3.09c-8.16-3.78-14.22-14.71-14.52-26.42-.33-13.14,6.58-24.1,18.97-30.23l.22,1.34c-16.97,9.34-19.1,22.26-17.86,31.49,1.52,11.37,8.84,21.46,13.34,23.26l-.16.56Zm.56-2c-3.7-1.64-10.8-11.12-12.26-22.01-1.17-8.69.83-20.81,16.63-29.72l.97,5.86c-7.53,4.71-11.77,10.46-12.6,17.11-1.43,11.5,7.76,21.59,8.93,22.82l-1.67,5.94Zm2.15-7.66c-2.26-2.61-9.11-11.41-7.92-20.93.75-6.02,4.58-11.29,11.38-15.68l.37,2.26c-1.63,1.08-6.97,5.24-7.45,13.95-.51,9.2,3.46,13.73,4.95,15.09,0,.16.02.32.03.47l-1.36,4.84Zm1.36-15.31c-.12,3.04-.16,5.57-.12,7.67-1.57-1.99-3.74-5.99-3.37-12.69.39-6.97,4.11-10.74,6.03-12.23,0,0,0,.02,0,.02,0,.09.03.18.06.27-.33.3-.63.63-.87,1.01-.02.02-.03.04-.04.06-.2.32-.37.65-.5,1.01-.47,1.29-.43,2.69.13,3.95l.44,2.82c.04.25.2.46.42.56.1.05.22.07.33.06-.99,1.01-1.8,2.55-1.43,4.6-.62.79-1.03,1.73-1.08,2.89Zm1.43,9.27c-.09-2.15-.09-5.12.07-9.21.09-2.35,2.43-3.62,4.74-4.32.05,2.78,2.34,6.07,3.44,7.49-.03.02-.07.04-.09.06-.7.49-.91,1.56-.89,2.7l-1.21-1.9c-.17-.27-.5-.4-.82-.32-.31.08-.54.35-.56.68l-.31,4.53c-.98-.06-2.72-.07-4.28.39-.03-.03-.06-.07-.1-.09Zm7.33-.39l-1.47.35.16-2.4,1.3,2.05Zm-6.26,5.85c-.32-.16-.75-.96-.97-3.78.79-.3,1.71-.43,2.54-.47-.21.13-.41.26-.59.41-.32.26-.37.73-.11,1.05.15.18.36.28.58.28.17,0,.33-.06.47-.17.82-.67,2.18-1.11,2.26-1.13l2.56-.61c.09.38.26.75.51,1.1.1.15.23.29.38.43-2.5,1.91-5.45,3.97-7.62,2.88Zm-.69,33.25c-.17.45-.61.75-1.09.75h-6.93c-.05,0-.1-.03-.11-.08l-.73-1.91c-.06-.16,0-.29.04-.35.04-.06.14-.16.31-.16h4.97c.84,0,1.59-.5,1.9-1.29l.4-.98c.79.26,1.64.45,2.52.6l-1.29,3.41Zm-.26-5.27c-.38-.11-.75-.23-1.11-.36,0,0,0,0,0,0,0,0,0,0-.01,0-1.83-.67-3.33-1.58-4.42-2.37-.73-.53-.98-1.48-.61-2.37l2.02-5.96c.92.74,3.25,2.38,6.13,2.73.05,0,.09.03.14.03.03,0,.05-.01.08-.01.13.01.26.03.4.03.44,4.07-.94,7.2-2.6,8.29Zm6.79.32c-1.78.33-3.45.31-4.97.07,1.58-1.73,2.68-4.86,2.28-8.74.99-.13,2.02-.43,3.06-1.01.26.36.65.83,1.15,1.31.28,4.61-1.07,7.52-1.52,8.36Zm5.15-1.47c-.15-.07-.32-.1-.48-.06l-.24.05c-.06.01-.12.03-.18.06-.81.39-1.59.7-2.36.94.55-1.38,1.19-3.64,1.18-6.7.69.41,1.49.75,2.41.9.35.06.71.09,1.07.09.15,0,.31-.01.46-.03-.48,2.52-.24,4.29.08,5.39-1.23-.31-1.91-.64-1.93-.65Zm3.66.99c-.28-.55-1.02-2.47-.21-6.03,1.31-.39,2.65-1.15,4-2.28.23.18.54.4.92.63-1.78,3.26-.77,6.29.04,7.86-1.86.13-3.45.02-4.74-.18Zm10.45,3.7h4.97c.17,0,.27.1.31.16.04.06.1.19.04.35l-.73,1.9s-.06.08-.11.08h-6.93c-.48,0-.92-.3-1.09-.75l-1.43-3.8c.16-.02.33-.04.5-.06,0,0,.02,0,.03,0,.08,0,.16-.01.24-.04.59-.07,1.2-.17,1.83-.29l.47,1.16c.31.78,1.06,1.29,1.91,1.29Zm.68-4.79c-.07.02-.14.05-.21.07-1.64.52-3.17.85-4.57,1.04-.62-.98-2.08-3.86-.31-7.03.89.35,1.94.61,3.15.58,1.02-.03,2.02-.27,3-.7.69,3.42-.56,5.42-1.06,6.05Zm4.48-8.45l.92,5.7c-1.03.73-2.11,1.35-3.22,1.87.52-1.35.86-3.33.25-5.92.7-.45,1.38-1,2.05-1.66Zm-10.44-17.78l9.15,12.94c.44.62.73,1.33.85,2.08l.15.91c-1.51,1.71-3.07,2.79-4.67,3.24-.77-.62-3.05-2.95-1.58-7.82.12-.4-.1-.82-.5-.93-.4-.12-.81.1-.93.5-1.31,4.35-.02,7.05,1.13,8.47-.96-.04-1.82-.28-2.51-.6-.02-.02-.04-.05-.06-.06-.09-.06-.19-.1-.3-.12-.97-.51-1.56-1.08-1.57-1.08-.28-.29-.74-.3-1.04-.03-2.26,2.03-4.4,2.9-6.37,2.58-2.83-.46-4.45-3.27-4.47-3.3-.1-.18-.28-.31-.48-.36-.2-.05-.42-.01-.59.1-1.06.71-2.12,1.05-3.14,1.18,1.26-1.66,2.74-4.74.73-8.69-.19-.37-.64-.52-1.01-.33-.37.19-.52.64-.33,1.01,2.17,4.24-.51,7.2-1.34,7.98-3.01-.45-5.29-2.55-5.44-2.69-.03-.02-.06-.03-.08-.05l.12-.36c.11-.27.26-.53.43-.76l9.7-13.5c.31,2.47,1.45,4.32,3.27,5.27.86.45,1.85.67,2.86.67,1.36,0,2.78-.4,4.01-1.2,1.85-1.19,2.94-3,3.08-5.03h.94Zm2.54-6.08c-.06-.1-.12-.2-.18-.31-.29-.54-.63-.99-1.02-1.37-.39-.37-1.01-1.02-1.78-1.97l-.19-.22c-.68-.79-.65-1.97.06-2.74.45-.49.72-.66.83-.72.29.21.81,1.12,1.11,1.63.08.15.24.47.5,1.16.41,1.1,1.02,2.14,1.78,3.11,0,.06.01.12.04.18.07.17-.06.48-.32.75-.32.34-.66.48-.83.49Zm4.64,2.38c-.08.38-.45.95-1.02,1.04-.77.12-1.78-.65-2.8-2.11.26-.11.51-.26.76-.45.33-.27.59-.57.77-.89.4.42.79.86.79.87l1.14-.97s-.13-.15-.31-.35c.25.02.52.06.81.12,0,.11,0,.21,0,.32,0,.02,0,.03,0,.05,0,1.12-.06,1.99-.14,2.39Zm-.53-14.1c-.66-1.02-1.75-1.76-2.97-2.32.17-1.29-.32-2.32-.76-2.96.01-.01.03-.02.04-.03l.45.27c.22.14.5.14.73.03.23-.12.38-.35.41-.61l.18-2.22.51-1.09c.45-.97.43-2.19-.06-3.53-.47-1.3-1.33-2.56-2.32-3.49,2.79,1.58,7.19,5.06,8.85,11.92,1.64,6.78-1.19,11.58-2.94,13.76-.13-3.31-.66-7.48-2.12-9.72Zm3.74,14.53l-1.41-2.78c1.5-1.55,6.31-7.33,4.18-16.15-2.34-9.67-9.62-13.11-11.75-13.93l.38-5.23c12.58,5.01,15.51,13.38,15.72,19.58.3,8.72-4.42,16.49-7.12,18.5Zm.69,1.36c3.55-2.41,8.22-11.27,7.93-19.91-.23-6.72-3.4-15.81-17.1-21.09l.53-7.29c19.85,4.33,24.56,16.71,25.59,23.75,1.73,11.8-4.29,24.7-14.03,30.28l-2.92-5.73Zm4.29,8.45l-.7-1.37c10.29-5.86,16.65-19.43,14.83-31.84-1.09-7.45-6.05-20.57-26.97-25.04l.07-.92c21.8,4.17,26.73,19.33,27.84,25.71,2.28,13.12-3.91,26.78-15.07,33.46Zm1.26,2.49l-.58-1.14c11.73-6.98,18.25-21.31,15.87-35.06-2.45-14.13-13.09-23.92-29.21-26.95l.07-.91c14.54,2.61,25.44,11.31,29.25,23.41,4.63,14.71-1.69,31.31-15.39,40.65Z"/>
  <path d="m56.02,50.37c-.3-.28-.78-.27-1.06.03-.28.3-.27.78.03,1.06.52.49,1.2.74,1.87.74.72,0,1.45-.29,1.98-.85.28-.3.27-.78-.03-1.06-.3-.28-.78-.27-1.06.03-.46.49-1.24.51-1.73.05Z"/>
  <path d="m46.08,49.59c.2.07.41.1.61.1.82,0,1.58-.52,1.85-1.33.13-.39-.08-.82-.48-.95-.4-.13-.82.08-.95.48-.08.23-.33.36-.56.28-.39-.13-.82.09-.95.48-.13.39.08.82.48.95Z"/>
  <path d="m55.84,49.05c-.28.3-.27.78.03,1.06.28.27.65.4,1.01.4.39,0,.78-.15,1.07-.46.28-.3.29-.78-.01-1.06-.3-.28-.76-.27-1.04.03-.3-.28-.78-.27-1.06.04Z"/>
  <path d="m57.89,45.23c0-.53-.29-1.03-.75-1.29-.23-.13-.52-.13-.75,0-.46.26-.75.76-.75,1.3s.29,1.03.75,1.3c.11.07.24.1.37.1s.26-.03.37-.1c.46-.27.75-.76.75-1.29Zm-1.5,0s0,0,0,0h0,0Z"/>
  <path d="m68.09,49.03c-.13-.39-.55-.61-.95-.48-.19.06-.4-.04-.46-.23-.13-.39-.55-.61-.95-.48-.39.13-.61.55-.48.95.26.78.99,1.28,1.77,1.28.19,0,.39-.03.58-.09.39-.13.61-.55.48-.95Z"/>
  <path d="m61.22,81.81c-.78.35-1.51.71-2.18,1.05-2.15-1.1-3.91-.91-4.74-.16-.62.56-.74,1.4-.3,2.17.38.67.91.93,1.55.93.24,0,.5-.04.77-.11-1.04,1.48-2.03,3.5-2.05,5.83,0,.41.33.75.74.76h0c.41,0,.75-.33.75-.74.03-2.92,1.96-5.38,3.08-6.57.51,1.47,1.39,4.21,1.71,6.66.05.38.37.65.74.65.03,0,.07,0,.1,0,.41-.05.7-.43.64-.84-.28-2.11-.93-4.38-1.45-5.97,1.25.45,2.29.09,2.91-.52.8-.78,1.02-2,.5-2.77-.25-.37-1.02-1.15-2.79-.37Zm-5.91,2.32c-.12-.21-.06-.27,0-.32.14-.12.44-.23.89-.23.3,0,.66.05,1.07.17-.98.46-1.76.73-1.96.38Zm7.16-.26c-.45.44-1.14.4-1.93-.09.41-.2.84-.41,1.28-.6.66-.29.93-.2.95-.17.08.12.02.54-.3.86Z"/>
</svg>