<?xml version="1.0" encoding="UTF-8"?>
<svg id="icons" xmlns="http://www.w3.org/2000/svg" viewBox="0 0 120 120">
  <defs>
    <style>
      .cls-1 {
        fill: #121112;
      }
    </style>
  </defs>
  <path class="cls-1" d="m55.74,61.07c1.14,0,2.28-.45,3.13-1.35.28-.3.27-.78-.03-1.06-.3-.28-.78-.27-1.06.03-1.06,1.12-2.83,1.18-3.93.13-.3-.28-.78-.27-1.06.03-.28.3-.27.78.03,1.06.82.78,1.87,1.16,2.92,1.16Z"/>
  <path class="cls-1" d="m57.07,36.74c-.3-.29-.77-.27-1.06.03-.29.3-.27.78.03,1.06.8.76,1.85,1.18,2.95,1.18.04,0,.08,0,.12,0,1.15-.03,2.22-.51,3.01-1.34.28-.3.27-.78-.03-1.06-.3-.28-.78-.27-1.06.03-.51.54-1.21.85-1.96.87-.73.04-1.46-.25-2-.77Z"/>
  <path class="cls-1" d="m58.5,34.04c-.3-.28-.78-.27-1.06.03-.28.3-.27.78.03,1.06.42.4.97.62,1.55.62h.06c.6-.02,1.16-.27,1.57-.7.28-.3.27-.78-.03-1.06-.3-.28-.78-.27-1.06.03-.29.3-.76.31-1.06.03Z"/>
  <path class="cls-1" d="m59.04,25.89c-.39,0-.71.57-.71,1.27s.32,1.27.71,1.27.71-.57.71-1.27-.32-1.27-.71-1.27Z"/>
  <path class="cls-1" d="m59.22,18.48c1.3,0,2.31-1.31,2.31-2.98s-1.02-2.98-2.31-2.98-2.31,1.31-2.31,2.98,1.02,2.98,2.31,2.98Zm0-4.46c.38,0,.81.63.81,1.48s-.43,1.48-.81,1.48-.81-.63-.81-1.48.43-1.48.81-1.48Z"/>
  <path class="cls-1" d="m20.63,41.05c-.13.23-.13.52,0,.75.58,1.01,1.56,1.71,2.68,1.97-.6.97-.8,2.16-.5,3.29.07.26.27.46.53.53.36.09.72.14,1.08.14.78,0,1.55-.23,2.21-.64.26,1.11.96,2.09,1.97,2.68.12.07.25.1.38.1s.26-.03.38-.1c1.01-.58,1.72-1.57,1.97-2.68.66.41,1.43.64,2.21.64.36,0,.72-.05,1.08-.14.26-.07.46-.27.53-.53.3-1.13.11-2.32-.5-3.29,1.11-.26,2.09-.96,2.68-1.97.13-.23.13-.52,0-.75-.58-1.01-1.56-1.71-2.68-1.97.6-.97.8-2.16.5-3.29-.07-.26-.27-.46-.53-.53-1.13-.3-2.32-.11-3.29.5-.26-1.11-.96-2.09-1.97-2.68-.23-.13-.52-.13-.75,0-1.01.58-1.71,1.56-1.97,2.68-.97-.6-2.16-.8-3.29-.5-.26.07-.46.27-.53.53-.3,1.13-.11,2.32.5,3.29-1.11.26-2.09.96-2.68,1.97Zm3.55,5.17c-.07-.78.21-1.57.77-2.13.15-.15.32-.28.5-.39.25-.08.48-.17.71-.29.3-.08.6-.12.92-.09.03.32-.01.63-.1.93-.11.22-.21.45-.28.68-.11.19-.24.36-.4.52-.56.56-1.35.84-2.13.77Zm4.8-5.82s.03-.01.05-.01c.25.01.48.11.65.27.02.03.04.05.07.07.16.17.26.4.27.65,0,.03,0,.06,0,.1-.01.25-.11.47-.27.65-.03.02-.05.04-.07.07-.17.16-.4.26-.65.27-.03,0-.06,0-.1,0-.25-.01-.47-.11-.65-.27-.02-.03-.04-.05-.07-.07-.16-.17-.26-.4-.27-.65,0-.03,0-.06,0-.1.01-.25.11-.47.27-.65.03-.02.05-.04.07-.07.17-.16.4-.26.65-.27.02,0,.03.01.05.01Zm0,7.8c-.6-.5-.96-1.25-.96-2.05,0-.22.03-.44.09-.65.11-.22.21-.44.28-.68.16-.27.35-.53.59-.73.24.2.44.46.59.73.08.24.17.46.29.68.05.21.08.42.08.64,0,.79-.36,1.55-.96,2.05Zm2.67-2.75c-.16-.16-.28-.33-.4-.52-.07-.24-.17-.47-.28-.68-.08-.3-.12-.62-.1-.93.32-.03.63.02.94.1.21.11.44.2.67.27.19.11.37.24.53.4.56.56.84,1.35.77,2.13-.78.08-1.57-.2-2.13-.77Zm2.07-3.07c-.22,0-.44-.03-.65-.09-.22-.11-.44-.21-.67-.28-.27-.16-.53-.35-.73-.6.21-.26.48-.46.76-.61.19-.06.38-.14.56-.23.23-.07.48-.11.73-.11.8,0,1.55.36,2.05.96-.5.6-1.25.96-2.05.96Zm.06-5.76c.07.78-.21,1.57-.77,2.13-.16.16-.33.29-.52.4-.23.07-.46.17-.67.28-.31.08-.62.13-.94.1-.03-.32.01-.63.1-.93.11-.22.21-.45.28-.69.11-.18.24-.36.4-.51.56-.56,1.35-.84,2.13-.77Zm-4.8-1.99c.6.5.96,1.25.96,2.05,0,.22-.03.43-.08.64-.12.22-.21.45-.29.69-.16.27-.35.52-.59.73-.24-.2-.44-.46-.59-.73-.07-.23-.17-.46-.28-.68-.05-.21-.09-.42-.09-.65,0-.79.36-1.55.96-2.05Zm-2.67,2.75c.16.16.28.33.4.52.07.24.17.46.28.68.08.3.12.62.1.93-.32.03-.63-.01-.92-.09-.22-.12-.46-.21-.7-.29-.18-.11-.35-.24-.51-.39-.56-.56-.84-1.35-.77-2.13.78-.08,1.57.21,2.13.77Zm-2.07,3.07c.25,0,.49.05.72.11.18.09.37.17.57.24.29.16.55.36.76.61-.2.24-.46.44-.73.59-.23.07-.46.17-.68.28-.21.05-.42.09-.65.09-.8,0-1.55-.36-2.05-.96.5-.6,1.25-.96,2.05-.96Z"/>
  <path class="cls-1" d="m28.22,51.31v17.19c0,.41.34.75.75.75s.75-.34.75-.75v-17.19c0-.41-.34-.75-.75-.75s-.75.34-.75.75Z"/>
  <path class="cls-1" d="m27.05,60.05c.17,0,.35-.06.49-.18.23-.2.32-.51.23-.79-1.74-5.57-4.65-8.1-6.63-8.1h-.03c-.99.01-1.75.62-2.04,1.64-.81,2.87,5.65,6.36,7.66,7.36.11.05.22.08.33.08Zm-6.55-7.03c.13-.48.4-.54.62-.54h.01c1.08,0,3.05,1.63,4.54,5.23-2.93-1.69-5.44-3.74-5.17-4.69Z"/>
  <path class="cls-1" d="m36.57,50.98c-1.98,0-4.89,2.53-6.64,8.1-.09.29,0,.6.23.79.14.12.31.18.49.18.11,0,.23-.03.33-.08,2-1,8.47-4.49,7.66-7.36-.29-1.01-1.05-1.62-2.04-1.64h-.03Zm.63,2.04c.27.95-2.24,3-5.17,4.69,1.5-3.6,3.46-5.23,4.54-5.23h.01c.22,0,.48.07.62.54Z"/>
  <path class="cls-1" d="m84.41,41.05c-.13.23-.13.52,0,.75.58,1.01,1.56,1.71,2.68,1.97-.6.97-.8,2.16-.5,3.29.07.26.27.46.53.53.36.1.72.14,1.08.14.78,0,1.54-.23,2.21-.64.26,1.11.96,2.09,1.97,2.68.12.07.25.1.38.1s.26-.03.38-.1c1.01-.58,1.72-1.57,1.97-2.68.66.41,1.43.64,2.21.64.36,0,.72-.05,1.08-.14.26-.07.46-.27.53-.53.3-1.13.11-2.32-.5-3.29,1.11-.26,2.09-.96,2.68-1.97.13-.23.13-.52,0-.75-.58-1.01-1.56-1.71-2.68-1.97.6-.97.8-2.16.5-3.29-.07-.26-.27-.46-.53-.53-1.13-.3-2.32-.11-3.29.5-.26-1.11-.96-2.09-1.97-2.67-.23-.13-.52-.13-.75,0-1.01.58-1.72,1.56-1.97,2.67-.97-.6-2.16-.8-3.29-.5-.26.07-.46.27-.53.53-.3,1.13-.11,2.32.5,3.29-1.11.26-2.09.96-2.68,1.97Zm3.55,5.17c-.07-.78.21-1.57.77-2.13.16-.16.33-.29.52-.4.23-.07.46-.17.67-.28.31-.08.62-.13.94-.1.03.32-.01.63-.1.93-.11.22-.21.45-.28.69-.11.18-.24.36-.39.51-.56.56-1.35.84-2.13.77Zm4.8-5.82s.03-.01.05-.01c.25.01.47.11.65.27.02.03.04.05.07.07.16.17.26.4.27.65,0,.03,0,.06,0,.09-.01.25-.11.47-.27.65-.03.02-.05.04-.07.07-.17.16-.4.26-.65.27-.03,0-.06,0-.1,0-.25-.01-.47-.11-.65-.27-.02-.03-.04-.05-.07-.07-.16-.17-.26-.4-.27-.65,0-.03,0-.06,0-.09.01-.25.11-.47.27-.65.03-.02.05-.04.07-.07.17-.16.4-.26.65-.27.02,0,.03.01.05.01Zm0,7.8c-.6-.5-.96-1.25-.96-2.05,0-.22.03-.43.08-.64.12-.22.21-.45.29-.69.16-.27.35-.52.59-.73.24.2.44.46.59.73.07.23.17.46.28.68.05.21.09.43.09.65,0,.8-.36,1.55-.96,2.05Zm2.67-2.75c-.16-.16-.28-.33-.4-.52-.07-.24-.17-.46-.28-.68-.08-.3-.12-.62-.1-.93.31-.03.62.01.92.09.23.12.46.22.71.29.18.11.35.24.51.39.56.56.84,1.35.77,2.13-.78.08-1.57-.21-2.13-.77Zm2.07-3.07c-.22,0-.44-.03-.65-.09-.22-.11-.44-.21-.68-.28-.27-.16-.53-.35-.73-.59.21-.26.48-.46.76-.61.19-.06.38-.14.56-.23.23-.07.48-.11.73-.11.8,0,1.55.36,2.05.96-.5.6-1.25.96-2.05.96Zm.06-5.76c.07.78-.21,1.57-.77,2.13-.15.15-.33.28-.51.39-.24.07-.48.17-.7.29-.3.08-.61.12-.93.09-.03-.32.01-.63.1-.93.11-.22.21-.45.28-.68.11-.19.24-.36.4-.52.56-.56,1.35-.84,2.13-.77Zm-4.8-1.99c.6.5.96,1.25.96,2.05,0,.22-.03.44-.09.64-.12.22-.21.45-.29.68-.16.27-.35.52-.59.73-.24-.2-.43-.45-.59-.72-.08-.24-.17-.47-.29-.69-.05-.21-.08-.42-.08-.64,0-.8.36-1.55.96-2.05Zm-2.67,2.75c.15.15.28.33.39.51.07.24.17.47.28.69.08.3.12.62.1.93-.32.03-.63-.01-.94-.1-.22-.11-.45-.21-.68-.28-.19-.11-.36-.24-.52-.4-.56-.56-.84-1.35-.77-2.13.78-.08,1.57.21,2.13.77Zm-2.07,3.07c.25,0,.49.05.73.11.18.09.37.17.56.23.29.16.55.36.76.61-.2.24-.46.44-.73.59-.23.07-.46.17-.68.28-.21.05-.43.09-.65.09-.8,0-1.55-.36-2.05-.96.5-.6,1.25-.96,2.05-.96Z"/>
  <path class="cls-1" d="m92,51.31v17.19c0,.41.34.75.75.75s.75-.34.75-.75v-17.19c0-.41-.34-.75-.75-.75s-.75.34-.75.75Z"/>
  <path class="cls-1" d="m82.84,52.61c-.81,2.87,5.65,6.36,7.66,7.36.11.05.22.08.33.08.17,0,.35-.06.49-.18.23-.2.32-.51.23-.79-1.74-5.57-4.65-8.1-6.64-8.1h-.03c-.99.01-1.75.62-2.04,1.64Zm1.44.41c.13-.48.4-.54.62-.54h.01c1.08,0,3.05,1.63,4.54,5.23-2.93-1.69-5.44-3.74-5.17-4.69Z"/>
  <path class="cls-1" d="m100.39,50.98h-.03c-1.98,0-4.89,2.53-6.63,8.1-.09.29,0,.6.23.79.14.12.31.18.49.18.11,0,.23-.03.33-.08,2-1,8.47-4.49,7.66-7.36-.29-1.01-1.05-1.62-2.04-1.64Zm-4.58,6.73c1.5-3.6,3.46-5.23,4.54-5.23h.01c.22,0,.48.07.62.54.27.95-2.24,3-5.17,4.69Z"/>
  <path class="cls-1" d="m29.61,89.62c.6.15,1.31-.61,1.58-1.69.27-1.09,0-2.09-.6-2.24-.6-.15-1.31.61-1.58,1.69-.27,1.09,0,2.09.6,2.24Z"/>
  <path class="cls-1" d="m65.77,53.8c-.41-.1-.89.41-1.08,1.15-.18.74,0,1.42.41,1.52.41.1.89-.41,1.08-1.15.18-.74,0-1.42-.41-1.52Z"/>
  <path class="cls-1" d="m94.22,99.23c-.13-.03-.26-.03-.38,0-2.41.64-4.3,1.88-5.27,2.91-1.04-1.23-2.89-2.25-5.35-2.91-.13-.03-.26-.03-.39,0-2.39.64-4.28,1.86-5.26,2.89-1.04-1.22-2.88-2.24-5.34-2.89-.13-.03-.26-.03-.39,0-2.37.63-4.24,1.84-5.23,2.86-1.12-1.21-3.08-2.22-5.69-2.86-.12-.03-.24-.03-.36,0-2.63.64-4.61,1.65-5.73,2.87-.98-1.02-2.86-2.24-5.24-2.87-.12-.03-.26-.03-.39,0-2.46.65-4.29,1.67-5.34,2.89-.87-.91-2.47-1.97-4.49-2.65,2.36-.03,4.9-.24,7.52-.78,0,0,.02,0,.02,0,.7-.14,1.4-.31,2.08-.49,2.29-.61,4.46-1.46,6.45-2.5,0,0,1.02-.52,2.49-1.3,4.46,1.99,10.45,3.29,16.53,3.56.71.03,1.44.05,2.17.05,3.96,0,8.06-.49,9.51-1.9.95-.93,1.91-2.09,1.78-3.63-.19-2.32-2.85-5.1-8.92-9.32l-8.17-5.19c-.2-1.02-.98-4.06-3.72-7.76-.04-.56-.03-2.55,1.64-4.89.28-.4.59-.81.9-1.23.26-.35.52-.72.79-1.09.74.39,1.53.78,2.37,1.16,2.5,1.13,4.45,1.68,5.95,1.68.88,0,1.61-.19,2.2-.57,1.16-.75,1.73-2.16,1.73-4.3,0-5.53-5.19-13.44-6.2-14.94,0,0,0,0,0,0-.07-.11-.13-.2-.16-.23,0,0-.01-.02-.01-.02,0,0,0,0,0,0-.87-1.28-2.15-2.28-3.62-2.81l-1.44-.52c.33-.02.66-.08.97-.21.88-.36,1.53-1.1,1.84-2.08.29-.93.23-1.97-.16-2.94-.29-.7-.73-1.29-1.28-1.74,1.73-4.65,3.3-11.54,2-12.54-.33-.25-.78-.25-1.14,0-.32.23-.7.6-1.08,1,1.62-8.65,1.03-9,.58-9.26-.25-.15-.66-.19-1.02.12-.52.45-1.18,1.34-1.78,2.23.15-4.88-.49-5.19-.85-5.37-.35-.17-.74-.11-1.06.18-.81.72-1.82,2.91-2.46,4.46-4.38-7.77-6.07-8.65-6.82-8.59-.75-.06-2.43.79-6.82,8.59-.64-1.55-1.65-3.74-2.46-4.46-.32-.28-.71-.34-1.06-.17-.37.18-1,.49-.85,5.37-.6-.89-1.26-1.78-1.78-2.23-.37-.31-.77-.27-1.02-.12-.45.26-1.04.61.58,9.26-.38-.4-.75-.77-1.08-1-.36-.26-.82-.24-1.13.05-1.28,1.18.46,10.5,3.21,15.46-.22.3-.43.63-.57.99-.84,2.04-.09,4.29,1.68,5.02.21.09.43.14.64.18-6.22,3.51-6.9,11.66-6.96,12.61-.61,2.52-1.07,5.27-1.53,8.1,0,.03,0,.05,0,.08,0,.02-.01.03-.01.05,0,.07-.02,1.67-1.97,3.08-2.43,1.75-5.75,7.1-5.83,7.25l-2.46,3.06c-5.04,1.82-5.37,5.81-5.08,7.08.06.28.02.64-.03.99-.07.55-.16,1.17.23,1.65.09.11.19.2.31.27-.85,1.66-.95,3.01-.32,4.02.12.18.26.35.42.5-.18.55-.33,1.39,0,2.27.39,1.04,1.31,1.83,2.75,2.33,1.45.5,5.05,1.35,9.65,1.5-2.07.65-3.66,1.56-4.59,2.65-.98-1.03-2.86-2.25-5.25-2.88-.12-.03-.26-.03-.38,0-3.95,1.05-6.31,3.04-6.31,5.33,0,1.3.68,2.48,1.93,3.33,1.87,1.27,4.29,1.66,6.52,1.66,2.81,0,5.31-.61,6.08-.81,1.54.6,3.26.81,4.88.81,2.82,0,5.33-.61,6.09-.81,1.54.6,3.26.81,4.89.81,2.8,0,5.31-.6,6.08-.81,1.04.43,2.18.66,3.32.66s2.26-.24,3.3-.66c.79.21,3.28.8,6.06.8,1.63,0,3.35-.21,4.89-.81.76.2,3.27.81,6.09.81,1.63,0,3.36-.21,4.9-.82.73.2,3.27.82,6.11.82,2.23,0,4.65-.38,6.52-1.66,1.24-.85,1.93-2.03,1.93-3.33,0-2.29-2.36-4.28-6.31-5.33Zm-11.2,1.5c3.05.85,5,2.34,5,3.82,0,.79-.45,1.53-1.27,2.09-1.4.96-3.23,1.31-5.02,1.37.94-.76,1.67-1.93,1.79-3.67.03-.41-.28-.77-.69-.8-.41-.02-.77.28-.8.69-.25,3.47-3.56,3.55-4.14,3.54-.33-.05-.64-.1-.93-.16,1.02-.82,1.59-1.9,1.59-3.07,0-.36-.08-.71-.2-1.06.29-.46,1.87-1.97,4.67-2.76Zm-10.98,0c3.05.85,5,2.34,5,3.82,0,.79-.45,1.53-1.27,2.09-1.39.95-3.2,1.3-4.97,1.37.98-.9,1.75-2.26,1.66-4.22-.02-.42-.38-.74-.78-.71-.41.02-.73.37-.71.78.14,3.03-2.42,3.9-3,4.05-.74-.08-1.42-.18-2-.29,1.12-.91,1.72-1.96,1.72-3.07,0-.4-.08-.8-.23-1.18.45-.56,1.99-1.91,4.59-2.65Zm-11.29,0c3.31.85,5.44,2.34,5.44,3.83,0,.89-.76,1.63-1.4,2.09-.96.7-2.15,1.08-3.38,1.19l.07-4c0-.41-.32-.75-.74-.76h-.01c-.41,0-.74.33-.75.74l-.07,4.01c-1.17-.13-2.3-.51-3.22-1.17-.65-.47-1.42-1.21-1.42-2.1,0-1.49,2.14-2.98,5.47-3.83Zm-11.34,0c2.62.74,4.17,2.11,4.6,2.66-.15.38-.23.76-.23,1.16,0,1.1.6,2.16,1.72,3.07-.32.06-.67.12-1.05.17-.05,0-.09-.01-.14,0-.15.02-3.71.48-4.77-3.61-.1-.4-.52-.64-.91-.54-.4.1-.64.51-.54.91.41,1.61,1.18,2.71,2.06,3.44-1.61-.12-3.21-.49-4.48-1.35-.82-.56-1.27-1.3-1.27-2.09,0-1.49,1.96-2.98,5-3.82Zm20.35-21.69l8.43,5.35c5.49,3.82,8.11,6.42,8.26,8.19.06.76-.31,1.44-1.33,2.43-2.1,2.04-15.86,2.29-25.47-1.53,2.63-1.41,6.22-3.42,8.38-4.91.44-.03.88-.05,1.32-.07h4.42c3.65.14,6.33.75,7.75,1.75.13.09.28.14.43.14.24,0,.47-.11.61-.32.24-.34.16-.81-.18-1.04-1.69-1.19-4.56-1.87-8.59-2.03h-3.92c.46-.62.34-1.07.12-1.37-1.45-1.91-3.13-1.17-4.62-.51-.4.18-.82.36-1.27.52-.87.3-1.72.35-2.49.17-.72-.18-1.43-.18-2.11-.02-.04-.74.08-1.65.75-2.39,1.72-1.92,2.94-5.12,3.06-7.85.4-.11.8-.28,1.2-.52,1.35-.82,2.03-1.73,2.37-2.54,2.18,3.44,2.52,5.97,2.52,6,.03.22.15.43.34.55Zm-14.47-4.45c1.18.01,2.27-.25,2.85-.43.63.5,2.01,1.43,3.67,1.53-.16,2.33-1.23,5.1-2.67,6.7-1.19,1.32-1.23,2.93-1.08,4.03-.21.14-.41.31-.63.53l-.39.06c-.67-1.94-2.32-7.39-1.76-12.42Zm19.81-27.96c.12.17,6.1,8.82,6.1,14.32,0,1.59-.34,2.58-1.04,3.04-1.09.71-3.36.3-6.72-1.22-1.03-.46-1.98-.93-2.85-1.41-1.17-.64-2.23-1.3-3.16-1.97-1.4-1-2.02-1.68-2.03-1.68-.05-.06-.11-.11-.18-.15-2.84-1.66-3.02-4.49-2.97-5.63.02-.5.09-.9.17-1.19,0,0,0,0,0,0,.05.26.05.53,0,.77-.16.99.1,2.18.92,2.54.27.12.97.3,1.67-.58.71-.89.67-2.91.51-4.46-.1-.81-.24-1.56-.39-2.15.14.23.3.5.46.83.48.98.84,2.43,1.16,4.68l.45,3.14c.04.26.2.48.44.58.11.05,2.79,1.21,4.73,1.72,0,0,.01,0,.02,0,0,0,0,0,0,0,0,0,0,0,0,0,.16.04.31.08.52.12l.34.07c.63.13,1.08.22,1.44.22s.62-.1.83-.35c.41-.48.16-1.11,0-1.51-.2-.53-.95-1.75-2.25-3.65,0,0,0,0,0,0l-.41-.6c-.24-.34-.7-.43-1.04-.19-.21.15-.32.38-.32.62,0,.15.04.3.13.43l.31.45c.15.93.16,1.84.04,2.72-1.27-.4-2.68-.97-3.35-1.25l-.39-2.73c-.31-2.14-.66-3.63-1.12-4.72,1.02-1.48,1.56-2.93,1.62-4.33l3.44,1.24c1.16.42,2.17,1.21,2.92,2.28Zm-13.47,2.47c-.44.36-.69,1.18-.81,1.97-1.87-.8-6.94-3.27-7.89-6.89l.05-.02c.59,1.1,1.63,1.98,3.03,2.52,1.06.41,2.27.61,3.47.61,1.38,0,2.76-.27,3.97-.78.03.08.05.16.08.24.17.44.34,1.22.46,2.08-.17.17-.34.34-.53.52-.17-.24-.37-.41-.62-.5-.41-.15-.85-.05-1.21.25Zm4.25-18.52c-.04-.09-.1-.17-.17-.25-.3-.28-.78-.27-1.06.03-1.06,1.12-2.84,1.17-3.96.11-.3-.28-.78-.27-1.06.03-.28.3-.27.78.03,1.06.83.79,1.89,1.18,2.96,1.18,1.14,0,2.28-.45,3.12-1.34.06-.07.11-.15.14-.23v3.01c0,3.2-2.6,5.8-5.8,5.8h-1.99c-3.2,0-5.8-2.6-5.8-5.8v-2.5c.78.68,1.77,1.06,2.81,1.06.04,0,.08,0,.12,0,1.15-.03,2.22-.51,3.01-1.34.28-.3.27-.78-.03-1.06-.3-.28-.78-.27-1.06.03-.51.54-1.21.85-1.96.87-.77.04-1.46-.25-2-.77-.24-.23-.6-.26-.88-.1v-5.58c0-.55.45-.99.99-.99h11.61c.55,0,.99.45.99.99v5.79Zm1.37,11.99c.06,1.06-.25,2.18-.94,3.36-.25-.38-.48-.66-.66-.86.74-.73,1.21-1.6,1.4-2.57l.2.07Zm-3.34,9.84c-.03-.17-.04-.4,0-.65.05-.27.05-.55.03-.84.06-.05.12-.11.18-.16,0,.84-.1,1.38-.21,1.65Zm.3-8.08c-.2.01-.36.08-.46.13-.1.06-.25.19-.36.4-1.93,1.04-4.75,1.22-6.85.41-.8-.31-1.79-.88-2.29-1.9.69-.52,1.3-1.22,1.52-2.28.73.24,1.5.38,2.31.38h1.99c1.54,0,2.97-.48,4.15-1.3.32.65.79,1.19,1.39,1.62-.09,1-.55,1.85-1.4,2.53Zm-11.79-2.28c.4-.97.46-2.01.16-2.94-.03-.09-.08-.17-.11-.26.53.64,1.17,1.18,1.89,1.61-.06.84-.45,1.39-1.43,2.03-.03.02-.06.04-.09.07-.12.07-.24.13-.36.19l-.61.27c.21-.29.4-.6.54-.95Zm21.57,14.59c-.14-.03-.29-.06-.44-.09l-.12-.02c.04-.23.06-.47.08-.7.24.38.39.65.48.82Zm-6.89-15.71c-.13-.05-.26-.11-.34-.15-.65-.35-1.13-.93-1.35-1.63,1.22-1.31,1.97-3.05,1.97-4.97v-9.38c0-1.37-1.12-2.49-2.49-2.49h-11.61c-1.37,0-2.49,1.12-2.49,2.49v9.38c0,1.25.32,2.43.87,3.46-.27-.25-.57-.46-.91-.6-.41-.17-.85-.24-1.29-.22v-10.65c0-2.8,2.28-5.08,5.08-5.08h10.05c2.24,0,4.06,1.82,4.06,4.07l.06,9.92c-.64.4-1.12,1.03-1.37,1.82-.29.93-.24,1.97.16,2.94.28.68.71,1.25,1.21,1.68l-1.61-.58Zm5.53-1.24c-.17.55-.52.95-.98,1.14-1,.41-2.24-.29-2.77-1.57-.26-.64-.31-1.32-.12-1.92.17-.55.52-.95.98-1.14.19-.08.39-.12.6-.12.3,0,.61.08.9.24.55.29,1,.81,1.27,1.45.26.64.31,1.32.12,1.92Zm-26.35-12.55c.21.28.59.38.91.24.32-.14.5-.49.43-.83-.7-3.49-1.36-7.33-1.57-9.42.77,1.08,1.63,2.49,2,3.14.17.3.54.45.87.35.33-.1.55-.42.53-.77-.14-2.15-.2-4.61-.1-6,.66,1.16,1.49,3.08,2.01,4.46.1.27.36.46.65.48.29.02.57-.13.71-.39,2.25-4.11,5.22-8.71,6.21-9.17.02,0,.04,0,.06,0,.03,0,.05,0,.08,0,.99.46,3.96,5.07,6.21,9.17.14.26.42.41.71.39.29-.02.55-.21.65-.48.52-1.37,1.35-3.3,2.01-4.46.1,1.39.05,3.86-.1,6-.02.35.2.67.53.77.33.1.69-.04.87-.35.37-.65,1.22-2.06,2-3.14-.21,2.08-.86,5.93-1.57,9.42-.07.34.11.69.43.83.32.14.7.04.91-.24.35-.47,1.19-1.55,1.92-2.32-.07,1.75-.77,5.65-2.34,9.91-.36-.11-.72-.14-1.08-.12l-.05-9.46c0-3.07-2.5-5.56-5.56-5.56h-10.05c-3.63,0-6.58,2.95-6.58,6.58v11.06c-.08.04-.16.1-.24.16-2.26-4.23-3.24-10.13-3.29-12.5.71.76,1.52,1.8,1.86,2.25Zm1.12,12.86c.26-.64.71-1.16,1.27-1.45.3-.16.61-.24.9-.24.21,0,.41.04.6.12.46.19.81.59.98,1.14.19.6.15,1.28-.12,1.92-.53,1.28-1.77,1.98-2.77,1.57-1-.41-1.39-1.79-.86-3.06Zm-4.53,17.38c0-.1.54-9.64,7.8-12.19.01,0,.05-.02.07-.03,0,0,0,0,0,0l.05-.02s0,0,0,0l.73-.32c1.41,4.62,7.87,7.35,9.21,7.87.08,1.52.61,3.96,2.97,5.7-.14.03-.27.09-.37.2-.29.3-.27.78.03,1.06.84.79,1.85,1.21,2.87,1.21.19,0,.38-.02.57-.05.7.49,1.48.98,2.31,1.45-.23.31-.45.63-.67.93-.32.43-.63.85-.92,1.26-2.31,3.23-1.9,6.03-1.86,6.24,0,.02.43,1.64-1.93,3.07-2.35,1.42-4.82-.87-4.92-.97-.21-.2-.52-.26-.78-.16-.04.01-3.69,1.37-5.26-.51-1.39-1.69-.94-3.15-.62-3.79.93-1.49,1.71-2.33,1.73-2.35.22-.23.27-.57.13-.86l-.37-.74c-1.64-3.23-2.57-6.7-2.76-10.32-.02-.37-.31-.67-.68-.71-.35-.04-.71.2-.8.56l-3.09,12.11c-1.08-.1-3.35-.38-4.89-1.01.43-2.62.86-5.17,1.43-7.48.01-.05.02-.09.02-.14Zm-7.38,26.27c-.1-1.93.25-2.21,2.49-3.87.52-.39,1.14-.85,1.85-1.41,2.01-1.57,6.45-6.3,7.7-11.08,0,0,.01-.02.01-.03l.07-.28s0,0,0,0h0s2.26-8.88,2.26-8.88c.49,2.41,1.29,4.73,2.42,6.95l.14.28c-1.15,1.36-4.65,6.05-4.99,12.92-1.88.56-8.24,2.6-11.96,5.4Zm-6.35-.35c-.23-.34-.7-.43-1.04-.19-.06.04-1.39.97-1.52,2.5-.07.9-.3,1.64-.59,1.88-.03.02-.05.04-.08.05,0-.13.03-.29.05-.42.06-.44.13-.98,0-1.53-.18-.77.04-3.94,4.31-5.4.13-.05.25-.13.34-.24l2.64-3.3c.03-.05,3.3-5.33,5.49-6.9,1.54-1.11,2.17-2.37,2.42-3.24,1.59.58,3.61.86,4.76.98-1.33,4.21-5.22,8.3-7.01,9.7-.7.55-1.31,1-1.82,1.39-2.74,2.04-3.31,2.59-3.03,5.97.04.51-.28,1.6-.49,2.17-.08.09-.14.2-.18.3h0s-.29,1.04-1.04,2.52c-.73,1.42-2.23,3.22-2.94,3.28-1.36.12-2.39,0-2.99-.34,0,0-.01-.02-.02-.02,0,0,0,0-.01,0-.18-.11-.33-.24-.42-.39-.38-.61-.13-1.72.7-3.12.03-.04.05-.09.06-.14.08-.05.16-.11.24-.17.79-.67,1.04-1.95,1.12-2.91.06-.81.86-1.38.87-1.39.34-.24.42-.7.19-1.04Zm-2.63,11.83c-.14-.36-.12-.72-.06-1.01.56.17,1.22.26,1.99.26.34,0,.71-.02,1.09-.05,1.75-.16,3.62-3.08,4.14-4.09.62-1.22.93-1.99,1.06-2.49.27-.48.52-1.31.67-2.05,3.57-3.48,12.88-6.12,12.97-6.14.32-.09.54-.38.55-.7.07-2.94.8-5.5,1.67-7.54.2.56.52,1.16,1.02,1.77.61.73,1.37,1.14,2.18,1.35-.54,4.75.72,9.69,1.57,12.31-1.18-.28-2.46-.39-3.41.04-.95.43-1.71,1.2-2.52,2.01l-.06.06c-.53,0-1.01-.02-1.37-.06-1.45-.14-2.9-.24-4.34-.3h-4.47c-3.62.14-4.99,2.29-5.04,2.38-.22.35-.11.8.24,1.02.12.08.26.12.4.12.25,0,.49-.12.63-.34.04-.06,1.05-1.57,3.8-1.68h4.41c1.38.06,2.81.16,4.23.3.48.05,1.11.07,1.83.07,2.44,0,5.73-.24,7.3-.71.14-.04.27-.13.36-.24l1.05-1.27s0,0,0,0c0,0,0,0,0,0l.1-.13c.23-.22.48-.41.73-.53,0,0,0,0,0,0s0,0,0,0c.61-.31,1.29-.38,2.02-.2,1.04.26,2.2.19,3.34-.2.49-.17.95-.37,1.38-.56,1.37-.6,1.98-.82,2.57-.24-.17.18-.51.48-1.2.97-2.43,1.71-7.1,4.25-9.72,5.64-.03.01-.06.02-.09.04-1.62.87-2.77,1.45-2.78,1.46-1.9,1-3.96,1.8-6.15,2.38-.64.17-1.29.33-1.94.46-.01,0-.02,0-.03,0-.01,0-.02,0-.03,0-8.38,1.74-16.03.1-18.27-.68-.99-.35-1.61-.83-1.84-1.43Zm29.25-6.74c-1.11.21-2.67.35-4.16.42.33-.28.65-.51.99-.66.59-.27,1.73-.18,3.17.25Zm-17.33,12.35c2.8.79,4.38,2.3,4.67,2.76-.12.35-.2.7-.2,1.06,0,1.17.56,2.25,1.59,3.07-.6.11-1.31.22-2.09.3-.49-.02-3.38-.25-3.45-3.65,0-.41-.34-.73-.75-.73h-.02c-.41,0-.74.35-.73.77.04,1.7.63,2.87,1.43,3.66-1.51-.14-2.99-.52-4.18-1.32-.82-.56-1.27-1.3-1.27-2.09,0-1.49,1.96-2.98,5-3.82Zm-15.97,3.82c0-1.49,1.96-2.98,5-3.82,2.78.79,4.35,2.28,4.66,2.75-.12.35-.2.71-.2,1.07,0,1.18.57,2.25,1.59,3.08-.27.05-.55.1-.86.15-.59-.07-4.39-.66-4.87-3.6-.07-.41-.46-.69-.86-.62-.41.07-.69.45-.62.86.28,1.77,1.35,2.89,2.52,3.61-1.81-.06-3.68-.41-5.1-1.38-.82-.56-1.27-1.3-1.27-2.09Zm75.3,2.09c-1.22.83-2.77,1.21-4.32,1.34.18-.14.36-.29.52-.46.9-.95,1.32-2.21,1.23-3.73-.02-.41-.38-.75-.79-.71-.41.02-.73.38-.71.79.07,1.11-.2,1.96-.81,2.61-1.22,1.29-3.43,1.3-3.46,1.3h0c-.07,0-.14.02-.21.04-.46-.06-.89-.13-1.27-.2,1.02-.82,1.58-1.9,1.58-3.07,0-.35-.07-.69-.18-1.03.24-.43,1.84-1.98,4.69-2.79,3.05.85,5,2.34,5,3.82,0,.79-.45,1.53-1.27,2.09Z"/>
</svg>