<?xml version="1.0" encoding="UTF-8"?>
<svg id="icons" xmlns="http://www.w3.org/2000/svg" viewBox="0 0 120 120">
  <path d="m109.95,40.96c0-1.1-.9-2-2-2h-45.95c-1.1,0-2,.9-2,2v32.24H17.51v-32.24c0-1.1-.9-2-2-2s-2,.9-2,2v34.24c0,1.1.9,2,2,2h44.49v30.24H15.51c-1.1,0-2,.9-2,2s.9,2,2,2h46.49c1.1,0,2-.9,2-2v-32.24h41.95v32.24c0,1.1.9,2,2,2s2-.9,2-2v-34.24c0-1.1-.9-2-2-2h-43.95v-30.24h43.95c1.1,0,2-.9,2-2Z"/>
  <path d="m48.54,92.49c0-4.25-3.62-7.71-8.07-7.71s-8.07,3.46-8.07,7.71,3.62,7.71,8.07,7.71,8.07-3.46,8.07-7.71Zm-12.15,0c0-2.04,1.83-3.71,4.07-3.71s4.07,1.66,4.07,3.71-1.83,3.71-4.07,3.71-4.07-1.66-4.07-3.71Z"/>
  <path d="m79.77,92.49c0,4.25,3.62,7.71,8.07,7.71s8.07-3.46,8.07-7.71-3.62-7.71-8.07-7.71-8.07,3.46-8.07,7.71Zm12.15,0c0,2.04-1.83,3.71-4.07,3.71s-4.07-1.66-4.07-3.71,1.83-3.71,4.07-3.71,4.07,1.66,4.07,3.71Z"/>
  <path d="m79.77,58.08c0,4.25,3.62,7.71,8.07,7.71s8.07-3.46,8.07-7.71-3.62-7.71-8.07-7.71-8.07,3.46-8.07,7.71Zm12.15,0c0,2.04-1.83,3.71-4.07,3.71s-4.07-1.66-4.07-3.71,1.83-3.71,4.07-3.71,4.07,1.66,4.07,3.71Z"/>
  <path d="m32.39,58.08c0,4.25,3.62,7.71,8.07,7.71s8.07-3.46,8.07-7.71-3.62-7.71-8.07-7.71-8.07,3.46-8.07,7.71Zm12.15,0c0,2.04-1.83,3.71-4.07,3.71s-4.07-1.66-4.07-3.71,1.83-3.71,4.07-3.71,4.07,1.66,4.07,3.71Z"/>
  <path d="m15.51,37.93c3.07,0,5.56-2.4,5.56-5.34s-2.49-5.34-5.56-5.34-5.56,2.4-5.56,5.34,2.49,5.34,5.56,5.34Zm0-6.69c.86,0,1.56.6,1.56,1.34s-.7,1.34-1.56,1.34-1.56-.6-1.56-1.34.7-1.34,1.56-1.34Z"/>
  <path d="m58.17,32.59c0,2.95,2.49,5.34,5.56,5.34s5.56-2.4,5.56-5.34-2.49-5.34-5.56-5.34-5.56,2.4-5.56,5.34Zm7.12,0c0,.74-.7,1.34-1.56,1.34s-1.56-.6-1.56-1.34.7-1.34,1.56-1.34,1.56.6,1.56,1.34Z"/>
  <path d="m98.83,32.59c0,2.95,2.49,5.34,5.56,5.34s5.56-2.4,5.56-5.34-2.49-5.34-5.56-5.34-5.56,2.4-5.56,5.34Zm5.56-1.34c.86,0,1.56.6,1.56,1.34s-.7,1.34-1.56,1.34-1.56-.6-1.56-1.34.7-1.34,1.56-1.34Z"/>
  <path d="m64.69,13.77c0-2.95-2.4-5.34-5.34-5.34s-5.34,2.4-5.34,5.34,2.4,5.34,5.34,5.34,5.34-2.4,5.34-5.34Zm-6.69,0c0-.74.6-1.34,1.34-1.34s1.34.6,1.34,1.34-.6,1.34-1.34,1.34-1.34-.6-1.34-1.34Z"/>
  <path d="m27.43,12.07c-.75.81-.69,2.08.12,2.83,6.96,6.39,19.26,10.21,32.9,10.21s25.94-3.82,32.9-10.21c.81-.75.87-2.01.12-2.83-.75-.81-2.01-.87-2.83-.12-6.15,5.65-17.72,9.16-30.2,9.16s-24.05-3.51-30.2-9.16c-.81-.75-2.08-.69-2.83.12Z"/>
</svg>