<svg id="Symbols" xmlns="http://www.w3.org/2000/svg" viewBox="0 0 150 150"><defs><style>.cls-1{fill:#231f20;}</style></defs><title>triratna-bold</title><g id="triratna_bold"><path class="cls-1" d="M105.14,110.76a7.11,7.11,0,0,0-1.62.32,10.49,10.49,0,0,0-3.55,2c-3.31,2.7-10.82,4-15,.78a7.17,7.17,0,0,0,1.49.15c2.27,0,5-.84,7.85-1.71,3.5-1.08,7.07-2.17,9.9-1.75A7.28,7.28,0,0,1,105.14,110.76Z"/><path class="cls-1" d="M104,100a12.27,12.27,0,0,0-2.91,2.18l-.3.28a5.94,5.94,0,0,1-3.4,1.58h-.34c-.48-.09-1-.16-1.63-.23a4.49,4.49,0,0,0-2-1.23,11.31,11.31,0,0,1,6.91-2.94h.47a9.33,9.33,0,0,1,1.5,0h.2A10.67,10.67,0,0,1,104,100Z"/><path class="cls-1" d="M103.2,101.73c-.06.2-.11.41-.17.65a9.18,9.18,0,0,1-1.23,3.05,18.89,18.89,0,0,0-2.44-.85,6.92,6.92,0,0,0,2.12-1.35l.32-.29A17.08,17.08,0,0,1,103.2,101.73Z"/><path class="cls-1" d="M106.42,110.18a6.15,6.15,0,0,0-1.26-.47c-3.18-.82-7.22.42-11.16,1.63-3.49,1.07-6.82,2.09-9.07,1.49,3.61-.33,6.44-2.55,6.57-5.26,2.65-.46,4.28-1.48,4.32-2.69.49.06.91.13,1.31.21l.26,0a19.9,19.9,0,0,1,4.4,1.36,11.54,11.54,0,0,1,3.91,2.74A6.68,6.68,0,0,1,106.42,110.18Z"/><path class="cls-1" d="M83.17,113.66c0,1.87-1.59,3.08-3.6,4.61a32.66,32.66,0,0,0-3.16,2.65,12.48,12.48,0,0,1,2-2.7c1.11-1.27,2.07-2.39,1.93-4.53a6.44,6.44,0,0,0,1.2-1.12,9.73,9.73,0,0,0,1.59.25v.08a2.75,2.75,0,0,1,.06.52Z"/><path class="cls-1" d="M83.3,64.2a8.3,8.3,0,0,1-16.6,0c0-4.92,4-18.08,8.3-18.08S83.3,59.28,83.3,64.2Z"/><path class="cls-1" d="M79.31,114.3a5,5,0,0,1-1.7,3.26A13.39,13.39,0,0,0,75.27,121l-.27.66c-.09-.23-.17-.45-.27-.66a13.39,13.39,0,0,0-2.34-3.44c-.93-1.06-1.64-1.87-1.7-3.25a9.45,9.45,0,0,0,4.31,1A9.27,9.27,0,0,0,79.31,114.3Z"/><path class="cls-1" d="M72.5,91.57a8.22,8.22,0,0,1-2.27,5.68l-.11.13c-.16.16-.32.3-.49.45a9.29,9.29,0,0,1-.77.6,31.89,31.89,0,0,0-3.25.61q-1,.22-1.86.51l-.67.23a7.42,7.42,0,0,1-.94-.18,5.69,5.69,0,0,1-.59-.16l-.16-.07-.65-.25c-.27-.13-.53-.26-.78-.41h0a8.3,8.3,0,0,1-4.06-7.13c0-4.92,4-18.07,8.3-18.07S72.5,86.65,72.5,91.57Z"/><path class="cls-1" d="M73.61,121a33.37,33.37,0,0,0-3.19-2.68c-2-1.53-3.6-2.74-3.6-4.61a2.54,2.54,0,0,1,0-.26,2.76,2.76,0,0,1,.07-.54v0a10.53,10.53,0,0,0,1.59-.25,6,6,0,0,0,1.21,1.14c-.13,2.13.82,3.24,1.93,4.51A13.1,13.1,0,0,1,73.61,121Z"/><path class="cls-1" d="M65.07,112.83c-2.25.6-5.58-.42-9.07-1.49-3.94-1.21-8-2.45-11.17-1.63a6.06,6.06,0,0,0-1.25.47,8,8,0,0,1,.71-.94,11.67,11.67,0,0,1,3.92-2.74,19.9,19.9,0,0,1,4.4-1.36l.26,0c.39-.08.82-.14,1.3-.21,0,1.24,1.64,2.23,4.33,2.69C58.63,110.28,61.46,112.5,65.07,112.83Z"/><path class="cls-1" d="M65.05,113.86c-4.2,3.23-11.71,1.93-15-.78a10.66,10.66,0,0,0-3.56-2,7.67,7.67,0,0,0-1.61-.31,7.13,7.13,0,0,1,.94-.21c2.83-.42,6.41.67,9.91,1.75,2.84.87,5.58,1.71,7.85,1.71A7.17,7.17,0,0,0,65.05,113.86Z"/><path class="cls-1" d="M56.56,102.59a4.5,4.5,0,0,0-2,1.24c-.61.07-1.15.14-1.63.23h-.34a5.91,5.91,0,0,1-3.39-1.58l-.3-.28A12.27,12.27,0,0,0,46,100a10.81,10.81,0,0,1,1.5-.32,10.7,10.7,0,0,1,1.7-.06h.48a8.69,8.69,0,0,1,1,.12A11.26,11.26,0,0,1,56.56,102.59Z"/><path class="cls-1" d="M50.64,104.58a18.89,18.89,0,0,0-2.44.85A9.18,9.18,0,0,1,47,102.38l-.18-.66c.57.44,1.08.91,1.41,1.22l.31.29A7.08,7.08,0,0,0,50.64,104.58Z"/><path class="cls-1" d="M81.37,38.56l-.16-.22a5.62,5.62,0,0,0-4.16-1.14A9.08,9.08,0,0,1,78,33.1c.39-1,.63-1.57.24-2.05a1.39,1.39,0,0,0-1-.41c-.57,0-1,.5-1.36,1a5.29,5.29,0,0,1-.61.65c-1,1-1.72.65-2.89,0L71.81,32l-.18.58a2.62,2.62,0,0,0,.6,2.21A3.69,3.69,0,0,1,73,36.64a3.7,3.7,0,0,0-2.26-.14,3.21,3.21,0,0,0-2,1.5,1.39,1.39,0,0,0-.12.57A37.21,37.21,0,0,0,38,75a36.73,36.73,0,0,0,8.71,23.82,11.25,11.25,0,0,1,3-.15h.05l.38,0c.22,0,.45,0,.68.08H51a11.35,11.35,0,0,1,1.76.45,11.59,11.59,0,0,1,4.86,3l-.06.1-.12.2-.07.16-.09.23-.08.22a2.21,2.21,0,0,0-.08.37,3.43,3.43,0,0,0-1.82,1.07.51.51,0,0,0-.09.27c0,.52,1,1.22,2.93,1.64a7.45,7.45,0,0,0,.71.64l.2.15c.17.12.34.25.53.37.24,2.41,3.11,4.26,6.53,4.24h.37a8.7,8.7,0,0,0,2.12-.35l.35-.1.21.31a4.78,4.78,0,0,0,1.38,1.34A8.14,8.14,0,0,0,75,114.33a8.06,8.06,0,0,0,4.5-1.28,5.09,5.09,0,0,0,1.39-1.34l.2-.3.35.1a8.22,8.22,0,0,0,2.08.34,4.1,4.1,0,0,0,.48,0c3.49,0,6.33-1.91,6.49-4.29l.5-.35.14-.11a7.76,7.76,0,0,0,.73-.64c1.93-.42,3-1.12,3-1.65a.52.52,0,0,0-.08-.26,3.45,3.45,0,0,0-1.82-1.08,2.21,2.21,0,0,0-.08-.37l-.08-.21-.09-.24-.07-.16-.12-.2-.06-.1s.1-.11.12-.13l.14-.13.27-.26.58-.49a11.24,11.24,0,0,1,1.3-.86,12.68,12.68,0,0,1,1.43-.71,14,14,0,0,1,1.54-.53,14.35,14.35,0,0,1,1.61-.33,14.71,14.71,0,0,1,1.88-.12c.25,0,.49,0,.74,0s.63,0,.94.09l.32,0A37,37,0,0,0,81.37,38.56ZM75,45.12c5.44,0,9.3,14.47,9.3,19.08a9.3,9.3,0,0,1-18.6,0C65.7,59.59,69.56,45.12,75,45.12ZM50.48,73.84l-.41-.07-.15.39c-.3.8.46,1.52,1.13,2.15.29.27.89.84.87,1l0,.1c-.16,1.6-1.2,2-2.21,2.38-.75.29-1.53.59-1.7,1.41s.63,1.19,1.43,1.58a5.82,5.82,0,0,1,1,.56c-.1,1.27-.88,1.58-1.79,1.93-.75.3-1.69.66-1.69,1.78,0,.54.5.6,1.34.7.67.07,2.45.27,2.47.81-.06.25-1.18.79-2.94.66l-.57,0,0,.56c.09,1.85,1.92,1.86,2.9,1.86h.52a3.2,3.2,0,0,1-2,1.37l-.57.13.22.54a3.12,3.12,0,0,0,3.37,1.82,13.62,13.62,0,0,1-1,1.77A32.8,32.8,0,0,1,42,75,33.23,33.23,0,0,1,65.71,43.33a8.87,8.87,0,0,0,.63,1.33,9.58,9.58,0,0,1,.76,1.66l0,.08c-.11.29-.81.44-1.42.57-1.07.24-2.41.53-2.76,1.81l-.08.27.19.2a5.41,5.41,0,0,1,1.22,2.92c0,.6-.22.78-.3.84-.28.21-1.06.46-3.14-.22l-.55-.16L60,53c-.34.78.22,1.44.71,2s.85,1.07.76,1.56c-.48.49-2.53,1.32-3.55.89l-.57-.24-.11.61a5.92,5.92,0,0,0,1,3.92c.26.48.63,1.14.53,1.35s-.78.35-1.33.44c-1.08.17-2.55.41-2.86,1.83l-.12.54.56.06a1.46,1.46,0,0,1,1,.39,2.8,2.8,0,0,1,.21,1.9c-3.21,1-3.87,1.5-4.14,1.94-.36.85.51,2,1.52,3.18l.14.17C53.44,74,52.24,74.16,50.48,73.84ZM91.85,98.61a6.26,6.26,0,0,1-.49.41,8,8,0,0,1-1.58.93c-.18.09-.38.17-.58.25l-.08,0c-.12,0-.23.11-.35.15l-.21.06A6.73,6.73,0,0,1,91.73,103a2.13,2.13,0,0,1,.27,1,2.33,2.33,0,0,1-.4,1.25C89.67,108,82.7,110,75,110s-14.57-1.93-16.5-4.61A2.74,2.74,0,0,1,58,104a2.13,2.13,0,0,1,.27-1,6.73,6.73,0,0,1,3.17-2.53l-.21-.06c-.15,0-.3-.12-.45-.18l-.08,0-.5-.22a6.86,6.86,0,0,1-.76-.4c-.21-.12-.4-.27-.6-.41a9.33,9.33,0,0,1-3.94-7.58c0-4.61,3.86-19.07,9.3-19.07S73.5,87,73.5,91.57a9.18,9.18,0,0,1-1.87,5.57c-.14.18-.28.36-.43.53s-.24.28-.36.4l-.15.14a46,46,0,0,1,8.62,0l-.15-.14c-.13-.13-.24-.27-.36-.4s-.3-.35-.43-.53a9.18,9.18,0,0,1-1.87-5.57c0-4.61,3.86-19.07,9.3-19.07S95.1,87,95.1,91.57A9.18,9.18,0,0,1,91.85,98.61Zm7.67-1.53c-.86-.58-1.41-1.14-1.47-1.56,0-.1.07-.13.1-.14.28-.18,1,0,1.56.13a4.61,4.61,0,0,0,1,.16C100.33,96.15,99.94,96.62,99.52,97.08Zm2-2.46a3,3,0,0,0-.75-1c-.17-.17-.36-.37-.56-.61a2.43,2.43,0,0,0,1.45-.08,1.87,1.87,0,0,0,1.08-1.76l0-.46-.46-.06a2.94,2.94,0,0,1-2.46-2.51,3,3,0,0,0,2.34-.28,2.34,2.34,0,0,0,.9-1.83l0-.52-.52,0A3.89,3.89,0,0,1,100.9,85a2.37,2.37,0,0,0-1.28-.32,3.53,3.53,0,0,1,.87-2,2.31,2.31,0,0,1,1-.73h.57L102,81.4c-.2-1.85-1.8-2-2.87-2.11-.44,0-1-.1-1.07-.21A1.57,1.57,0,0,1,99,77.3a1.82,1.82,0,0,0,1.07-2c-.21-1.32-1.21-1.53-2-1.69a2.49,2.49,0,0,1-1.7-.86,1.58,1.58,0,0,0,.87-.39,3,3,0,0,0,.57-2.9c-.3-1.38-1.64-1.32-2.61-1.29-.7,0-1.35.06-1.56-.22-.32-.64.24-1.52,1.46-2.28l.27-.18-.05-.32c-.39-2.6-2.95-2.93-4-3.07h-.08c.1-.21.26-.5.39-.73.6-1.08,1.42-2.56,1.12-4l-.13-.63-.58.28c-.59.3-3.08.83-3.51.52A4,4,0,0,1,89.23,55,3.87,3.87,0,0,0,90,52.21l0-.12c-.38-.63-1.09-.37-1.67-.16-.94.35-1.61.51-2.13-.28a1.72,1.72,0,0,0,.81-.56c.53-.68.6-1.78.24-3.58l-.29-1.42-.65,1.3c-.23.46-.92.59-1.49.54A2.09,2.09,0,0,1,82.93,47a3.14,3.14,0,0,1,.85-2.75c.18-.25.35-.49.47-.7l.1-.18a33,33,0,0,1,17.19,51.26Z"/><path class="cls-1" d="M75,21a54,54,0,1,0,54,54A54.06,54.06,0,0,0,75,21Zm31.43,87.56a8,8,0,0,1,1.73,2.94l.37,1.18-1.09-.59c-.11-.06-2.91-1.46-6.83,1.76a13.57,13.57,0,0,1-5.4,2.48,45.92,45.92,0,0,1-17.32,4.57,16.69,16.69,0,0,0-2.47,2.66l-.08.1-.41.41-.35-.48a16.09,16.09,0,0,0-2.48-2.69,46,46,0,0,1-17.32-4.57,13.73,13.73,0,0,1-5.39-2.48c-4-3.25-6.8-1.77-6.83-1.76l-1.09.59.37-1.18a8.2,8.2,0,0,1,1.72-2.93,46,46,0,1,1,62.87,0Z"/><path class="cls-1" d="M94.1,91.57a8.25,8.25,0,0,1-3.34,6.66c-.2.15-.43.27-.65.41a7.72,7.72,0,0,1-1.5.73l-.16.07c-.2.07-.4.1-.6.15a7.15,7.15,0,0,1-.92.19c-.58-.2-1.21-.4-1.87-.57s-1.29-.32-2-.45-1.3-.25-2-.34l0,0c-.27-.2-.5-.38-.72-.57s-.32-.29-.45-.44h0l-.11-.12a8.2,8.2,0,0,1-2.27-5.68c0-4.92,4-18.07,8.3-18.07S94.1,86.65,94.1,91.57Z"/></g></svg>