<svg id="Symbols" xmlns="http://www.w3.org/2000/svg" viewBox="0 0 150 150"><defs><style>.cls-1{fill:#231f20;}</style></defs><title>trishula-bold</title><g id="trishula_bold"><path class="cls-1" d="M72.18,79.22v0h0S72.19,79.22,72.18,79.22Z"/><ellipse class="cls-1" cx="75" cy="80.76" rx="2" ry="3.5"/><path class="cls-1" d="M65.7,60.84l-.41-8,.56,0c2.63-.15,6.2-.35,9.15,2.45,3-2.8,6.53-2.6,9.15-2.45l.55,0-.41,8-.59,0c-1.73-.1-2.8-.13-3.22.28s-1,1.31-1.45,4.29a72.52,72.52,0,0,1,.24,11.48A9.16,9.16,0,0,0,77.66,78l-.18.17a2.56,2.56,0,0,0-5,0L72.34,78a10,10,0,0,0-1.61-1.16A71.34,71.34,0,0,1,71,65.38c-.45-3-1.14-4-1.45-4.29s-1.49-.38-3.22-.28Z"/><path class="cls-1" d="M102.25,85.64c-2.92,3.53-8.51,5.55-14.19,5.55a22,22,0,0,1-7.82-1.39c-.43-.17-.84-.35-1.24-.54v35.95H71V89.26c-.4.19-.81.37-1.24.54a22,22,0,0,1-7.82,1.39c-5.68,0-11.27-2-14.19-5.55a14.84,14.84,0,0,1-2.32-13.91,16.15,16.15,0,0,1,3-5.2c.69-3,.06-5.09-1.91-6.22l4-6.93a12.49,12.49,0,0,1,5.75,7.47,33.53,33.53,0,0,1,6.08-2l1.83,7.79c-6,1.41-9.94,4.14-11.14,7.68a6.74,6.74,0,0,0,.91,6.26c1.91,2.31,8.27,3.59,13,1.78,2.92-1.12,3.69-2.84,3.84-4.3a5.12,5.12,0,0,1,1.45,1.28A6.77,6.77,0,0,0,72,80.76c0,2.52,1.32,4.5,3,4.5s3-2,3-4.5a6.77,6.77,0,0,0-.17-1.45A5.12,5.12,0,0,1,79.28,78c.15,1.46.92,3.18,3.84,4.3,4.69,1.81,11,.53,13-1.78A6.77,6.77,0,0,0,97,74.29c-1.2-3.54-5.15-6.27-11.14-7.68l1.83-7.79a33.53,33.53,0,0,1,6.08,2,12.52,12.52,0,0,1,5.74-7.47l4,6.93c-2,1.13-2.59,3.23-1.91,6.22a16,16,0,0,1,3,5.2A14.84,14.84,0,0,1,102.25,85.64Z"/><path class="cls-1" d="M61.13,57c6-10.92,5.35-19.35-1.85-25.07l-5,6.27c3.9,3.1,3.84,7.57-.2,15l-.21.37,7,3.82Z"/><path class="cls-1" d="M89.06,57.38l7-3.82-.2-.37c-4-7.39-4.1-11.86-.2-15l-5-6.27C83.52,37.68,82.9,46.11,88.87,57Z"/><path class="cls-1" d="M74.51,52.71l.49.4.49-.4a7.07,7.07,0,0,1,5.26-1.36,178.18,178.18,0,0,1-5.37-22.21c-.14-.82-.27-3.6-.38-4.35-.11.75-.24,3.55-.38,4.37a177.42,177.42,0,0,1-5.37,22.19A7.07,7.07,0,0,1,74.51,52.71Z"/></g></svg>