<?xml version="1.0" encoding="UTF-8"?>
<svg id="icons" xmlns="http://www.w3.org/2000/svg" viewBox="0 0 120 120">
  <path d="m112.74,37.54c-.18-.23-.48-.33-.76-.26-.32.07-4.93,1.19-9.46,4.6.13-.36.09-.82-.14-1.32.32-.57.61-1.61-.15-3-.17-.31-.37-.57-.59-.8.12.03.24.07.37.11,1.04.33,1.8-.12,1.99-.73.12-.39.28-1.73-2.91-2.76-3.52-1.14-9.61,1.55-13.05,7.37,0,0,0,0,0,0,0,0,0,0,0,0-.01.02-.01.04-.02.06,0,.02-.02.03-.03.05l-4.86,12.69-4.77-4.12c-.87-.92-1.96-1.63-3.16-2.06l-.09-.03c-.05-.87-.22-2.45-.77-3.3.02-.4-.02-.81-.11-1.22,1.1-1.65,1.27-3.74,1.27-4.8,1.82-.36,2.11-.59,2.21-.67.53-.43.86-.69-2.19-4.73.11-.87.29-3.24-.7-5.63,7.19-6.33,6.93-16.58,6.91-17.03,0-.27-.16-.51-.39-.63-.23-.13-.52-.12-.75.02-.27.16-5.43,3.32-8.24,6.56-.1-2.93-.61-3.19-.91-3.34-.35-.17-.76-.11-1.08.18-.92.81-2.08,3.37-2.79,5.09-3.4-6.06-5.85-9.28-7.32-9.59-.6-.22-2.27-.37-7.86,9.59-.71-1.72-1.87-4.27-2.78-5.09-.32-.29-.73-.35-1.08-.18-.3.15-.84.42-.91,3.64-4.38-5.11-8.93-6.85-9.14-6.93-.23-.09-.49-.05-.69.09-.2.14-.32.37-.32.62,0,.48.09,11.64,7.34,17.99-.54,2.12-.31,3.91-.16,4.67-3.03,4.03-2.7,4.29-2.17,4.71.11.09.4.32,2.21.68,0,1.36.29,4.39,2.44,6.03-.21.58-.31,1.17-.3,1.74-.94,1.01-1.29,2.92-.97,5.28l-7.58,4.78c.25-2.8.61-8.68-.32-11.88.08-.31.12-.63.07-.98-.12-.77-.23-1.71-.32-2.53-.18-1.74-.71-3.47-1.55-5.03-.47-.86-.88-1.45-1.24-1.88h.33c.41,0,.75-.34.75-.75v-4.19c0-.41-.34-.75-.75-.75h-1.09v-2.74c0-1.73-1.41-3.13-3.13-3.13s-3.13,1.41-3.13,3.13v2.74h-.96c-.41,0-.75.34-.75.75v4.19c0,.28.16.51.38.64-.18.23-.36.48-.51.75-.78-.19-1.41.08-1.74.52-.3.4-.39,1.02-.04,1.62-.1.34-.13.71-.07,1.03.03.2.08.38.14.56-.27.05-.52.14-.71.29-.51.38-.64,1.01-.32,1.54.53.86,2.48,3.14,5.15,3.29.97.05,1.68.62,2.52,1.28.5.39,1.01.8,1.6,1.1-.38,1.99-.77,3.68-1.12,5.19-.68,2.9-1.22,5.2-1.12,7.62.07,2.15.55,3.6,1.47,4.44.88.81,2.37,1.22,4.42,1.22.21,0,.43,0,.65-.01.96-.04,3.05-.37,4.43-.61-.13.53-.29,1.11-.46,1.71-5.25,1.56-14.87-1.07-18.08-1.94-.76-.21-1.11-.3-1.32-.34-.42-.18-1.69-.58-3.75-.08-.58.14-1.14.32-1.67.52v-8.64c.25.16.58.17.84-.01.34-.24.42-.71.18-1.04l-1.21-1.71c-.15-.21-.38-.31-.64-.32-.25,0-.48.14-.62.36l-1.11,1.82c-.22.35-.1.82.25,1.03.12.08.26.11.39.11.15,0,.29-.06.41-.14v9.23c-1.32.7-2.34,1.57-2.77,2.43-.35.69-.25,1.23-.12,1.55.21.51.62.85,1.13.94.59.11,1.21-.13,1.75-.45v.99c-1.1.88-2.08,1.11-2.83,1.27-.72.16-1.7.38-1.7,1.49,0,1.84,2.88,2.51,3.45,2.62,0,0,.02,0,.02,0,.36.09.72.13,1.05.14v3.75l-1.64,1.65c-.14.14-.22.33-.22.53v7.11c0,.31.2.6.49.7.08.03.17.05.26.05.22,0,.43-.09.57-.26l1.37-1.62,1.37,1.62c.14.17.36.26.57.26.09,0,.17-.01.26-.05.29-.11.49-.39.49-.7v-7.11c0-.2-.08-.39-.22-.53l-1.81-1.83v-3.42c.24.14.55.24.93.24.66,0,1.52-.26,2.61-.93,1.04-.64,1.64-1.42,1.67-1.46,0-.01,0-.02.02-.03,0-.01.02-.02.02-.03l1.77-2.88s.05-.05.06-.09c.32-.28.84-.32,1.27-.07l2.2,1.26c3.86,2.27,7.63,3.49,10.31,3.49.75,0,1.41-.1,1.97-.3.19,1.42,1.04,2.51,2.51,3.16,1.16.51,2.71.73,4.47.73,1.29,0,2.69-.12,4.13-.32l-2.12,5.35c-.14.36-.24.73-.34,1.1l-.04.14c-.43,1.58-1.51,2.82-2.98,3.39-4.86,1.89-13.52,5.4-16.99,7.71-5.09,3.39-5.47,6.88-5.25,8.65.25,2,1.53,3.73,3.18,4.31,1.77.61,6.43,1.69,12.27,1.69,2.75,0,5.77-.24,8.86-.88.01,0,.02,0,.03,0,.75-.15,1.53-.34,2.31-.55,1.21-.33,2.39-.71,3.54-1.15.01,0,.02,0,.03-.01,1.24-.48,2.44-1.01,3.58-1.61,0,0,1.14-.58,2.8-1.47,3.87,1.73,8.78,2.99,13.98,3.6.02,0,.03.01.05.01,0,0,.01,0,.02,0,1.43.17,2.89.3,4.34.36.79.04,1.6.05,2.42.05,4.38,0,8.91-.54,10.5-2.09,1.04-1.02,2.09-2.29,1.95-3.97-.21-2.55-3.16-5.62-9.88-10.3l-6.11-3.88c-1.7-1.08-2.97-2.81-3.58-4.86,0-.01-.01-.03-.01-.04,0,0,0,0,0-.01-.38-1.26-.87-2.36-1.48-3.28,2.15-.62,4.22-1.4,5.89-2.28,3.17-1.66,5.13-5.33,5.66-6.41.32-.14.6-.31.87-.5.36.45.91.78,1.66.95.2.05.41.07.62.07,1.55,0,3.46-1.25,5.79-3.74-.49,5.04,1.79,8.18,1.91,8.33.14.19.37.3.6.3.02,0,.05,0,.07,0,.26-.03.49-.19.6-.42l7.53-15.77c1.3.61,3.04.89,4.03.33.48-.27.75-.72.75-1.25,0-.18-.04-.35-.1-.51.35.33.73.62,1.11.7.09.02.18.03.27.03.48,0,.92-.27,1.16-.73.17-.33.55-1.47-.99-3.09.33-.43.38-.84.34-1.12-.02-.2-.09-.37-.17-.51.22-.35.35-.77.36-1.21.03-1-.52-2.06-1.54-2.97-.11-.1-.23-.18-.34-.28l5.7-11.57c.13-.26.09-.57-.08-.8Zm-19.43,15.56l-1.93,2.08s.02-.09.03-.14c1.22-3.06,1.31-9.69,1.31-11.16.35-.35,1.04-.88,1.73-.9,1.34-.03,2.54-1.14,3.06-1.69l1.83.06c.43.61,1.05,1.08,1.68,1.22.21.05.4.05.59.03-2.6,2.15-5.08,5.1-6.59,9.09-.6.43-1.18.9-1.72,1.42Zm7.38-12.49c-.05-.06-.09-.12-.14-.19.05.06.09.13.14.19Zm-.06-5.8c.42.14.75.27,1.01.4-1.74-.45-2.9-.37-3.62.24-.23.19-.32.5-.23.79.06.19.18.33.34.42-.39-.02-.75,0-1.05.04-.41.06-.69.44-.62.85.03.18.12.33.25.44-.2.13-.34.35-.35.61,0,.41.33.75.74.76,1.16.01,2.06.18,2.7.5,0,0,0,0-.01,0l-2.59-.08c-.2-.02-.46.1-.61.28-.29.36-1.33,1.41-2.17,1.42-1.27.03-2.3.88-2.76,1.34-.01,0-.02,0-.04,0-.07,0-.14-.02-.23-.03-.02,0-.03,0-.05,0-.1-.02-.22-.05-.34-.09-.03,0-.06-.02-.09-.03-.1-.04-.2-.08-.3-.13-.04-.02-.07-.04-.11-.06-.13-.07-.26-.16-.39-.26-.15-.12-.26-.24-.35-.34-.03-.03-.05-.06-.07-.09-.06-.07-.11-.14-.14-.2-.01-.02-.03-.05-.04-.07-.04-.07-.06-.13-.07-.18,3.05-4.99,8.31-7.44,11.19-6.51Zm-17.44,20.39c.11,0,.21-.01.32-.04.41-.1.74-.4.9-.79l4.36-11.38c.12.12.24.25.39.37.16.13.33.24.5.34.05.03.1.06.15.08.12.07.24.12.36.18.05.02.1.04.15.06.14.05.28.1.41.14.02,0,.03.01.05.02.15.04.29.07.42.09,0,0,.02,0,.03,0-.02,1.99-.18,7.73-1.22,10.27-.02.04-.03.09-.04.13-1.26,6.14-3.71,7.76-4.83,8.19-.59-2.55-1.84-5.53-3.7-8.79l.93.8c.24.21.54.32.85.32Zm-9.57-7.29s0,0,0,0c0,0,0,0,0,0,.05,1.84-.26,3.53-.85,4.63,0,0,0,0,0,0-.39.72-.87,1.15-1.45,1.31,0,0,0,0,0,0-1.13.3-2.07-1.09-2.52-1.94-.09-.16-.17-.34-.25-.52-.06-.51-.17-.95-.33-1.34-.13-.3-.25-.53-.38-.7-.08-.3-.14-.59-.18-.89-.19-1.13-.16-1.96-.03-2.51.03.03.05.06.08.08l.2.21c.08.09.16.17.25.25.03.03.05.06.08.08.08.08.17.14.26.21.03.03.06.06.1.08.1.07.19.13.29.19.03.02.05.04.08.05.12.07.25.14.38.19.25.12.51.21.77.27.26.06.52.1.78.1s.49-.03.72-.09c.01,0,.03,0,.04-.01.01,0,.03,0,.04,0,.01,0,.02-.01.03-.01.15-.03.3-.07.45-.13.55-.23.99-.61,1.35-1.07.07.44.12.96.13,1.56Zm-1.86,14.37l-4.86-1.94c.43-1.21,1.26-3.8,1.57-6.24.49.55,1.02.94,1.57,1.15-.54.94-.84,2.29.36,3.87,1.05,1.39,1.4,2.16,1.36,3.17Zm-10.82.74c.47.57,1.84,2.06,4.3,3.73-.44.08-.98.33-1.65.9-.79.68-1.98,1.23-2.95,1.61.29-.82.47-1.74.19-2.39-.17-.4-.5-.68-.93-.79-.45-.12-1.29-.33-3.5,4.22-.42.08-1.14.22-1.88.35-1.42-2.81-1.84-4.52-1.32-6.76.86.81,1.98,1.26,3.17,1.26.05,0,.1,0,.15,0,1.25-.04,2.41-.56,3.27-1.47.24-.26.26-.63.07-.91.33.12.69.2,1.06.27Zm12.12,7.56c.4.13.79.26,1.18.37-.7.99-1.95,2.36-3.91,3.34.2-.36.42-.75.64-1.14.57-1.03,1.16-2.09,1.57-2.76.18.06.34.13.53.19Zm-3.41,1.84c-.61,1.1-1.23,2.22-1.61,2.81-.18.06-.36.13-.55.19.62-1.13,1.2-2.13,1.72-3.05.56-.97,1.05-1.83,1.5-2.68.13.05.26.11.39.16-.41.68-.92,1.61-1.45,2.57Zm-16.07,4.66s0,0,.01,0c.11,0,.22-.03.32-.08.13-.03.26-.06.39-.09,0,0,0,0,0,.01-.82.15-1.46.45-1.69.98-.46,1.08.88,1.99,1.32,2.29,1.48,1,6.4,1.25,7.39,1.29.17,0,.34,0,.52,0,1.23,0,2.63-.13,4.08-.36-.18.16-.38.32-.6.47-.8.34-9.42,3.8-12.24-1.69-.26-.5-.49-.93-.68-1.29-.25-.45-.5-.91-.6-1.19.59-.11,1.18-.23,1.77-.36Zm-10.57-14.54c.46-1.7,1.64-5.62,3.46-8.73.72,2.08,1.93,3.97,3.65,4.24.11.02.22.03.34.03.47,0,1.05-.15,1.68-.66.8,1.06,1.1,1.94.64,3.07-.74,1.78-1.15,3.2-1.25,4.56-.33-1.77-.55-3.4-.65-5.38-.02-.37-.31-.67-.68-.71-.35-.03-.71.21-.8.57l-1.04,4.21c-1.21-.92-3.11-1.71-5.36-1.14,0-.02.01-.04.02-.06Zm26.2-32.65c-.06-3.01-2.52-5.43-5.53-5.43h-7.44c-2.93,0-5.31,2.38-5.31,5.31v1.13c-.15-.2-.3-.42-.47-.67,0-2.3.46-3.9,1.43-4.88,1.39-1.4,3.86-1.67,7.44-1.63.68,0,1.33,0,1.96,0,5.26-.05,7.94-.06,8.1,5.87-.06.1-.12.21-.17.3Zm3.48,13.01c.39,1.36-.1,2.71-1.14,3.14-.07.03-.14.05-.28.08-.41.11-.86.05-1.34-.17-.33-.14-.65-.39-.94-.7,0,0-.01-.01-.02-.02l-.25-.26s-.04-.04-.06-.06c-.03-.04-.14-.22-.3-.67,0,0,0,0,0,0,0,0,0,0,0,0,0,0,0,0,0-.01-.04-.08-.06-.17-.1-.3-.42-1.38.06-2.76,1.12-3.19,1.15-.47,2.58.33,3.18,1.79.05.12.1.25.13.39Zm-11.22,4.77c-.66.14-1.03.76-1.13,1.9-1.96-.14-3.79-.74-5.08-1.66-.01-.22-.02-.46-.05-.66.56-.55.91-1.18,1.08-1.9.63.17,1.28.26,1.94.26h3.67c.93,0,1.81-.18,2.62-.5.29.99.91,1.61,1.47,1.93,0,.39.03.76.07,1.1-.83.39-1.71.71-2.61.95-.5-.89-1.18-1.61-1.99-1.44Zm5.34-3.4c-.05.06-.11.11-.16.17,0,0-.01,0-.01.01,0,0,0,0,0,0,0,0,0,0,0,0,0,0,0,.01,0,.02-.17.24-.29.51-.39.8-.15-.21-.28-.49-.34-.87.28-.19.55-.4.81-.62.03.16.06.32.1.47Zm.9-5.97c0,3.2-2.61,5.81-5.81,5.81h-3.67c-.72,0-1.42-.13-2.08-.39-.1-.09-.23-.14-.36-.16-.34-.15-.65-.33-.96-.57-.03-.02-.06-.04-.09-.06-1.46-1.09-2.32-2.82-2.32-4.64v-3.69c.9.85,2.06,1.27,3.21,1.27,1.25,0,2.49-.49,3.41-1.46.28-.3.27-.78-.03-1.06-.3-.29-.78-.27-1.06.03-1.21,1.28-3.24,1.33-4.52.12-.28-.27-.72-.26-1.01,0v-3.74c0-2.1,1.71-3.81,3.81-3.81h7.44c2.23,0,4.04,1.81,4.04,4.04v8.31Zm-12.82,6.51c-.04.23-.11.44-.2.64-.06-.11-.12-.2-.19-.29,0-.04,0-.09,0-.13,0-.14.01-.29,0-.43.02.01.05.03.07.04.03.02.07.04.1.06.07.04.14.08.21.12Zm-1.99-.74c.05.17.08.34.1.52.05.52-.03,1.08-.25,1.61-.03.06-.06.12-.09.19-.05.09-.09.19-.14.28-.03.05-.06.09-.09.13-.06.1-.13.2-.2.28-.04.04-.08.08-.11.12-.07.08-.14.16-.22.24-.05.04-.1.08-.15.11-.07.06-.15.12-.23.17l-.62.27s-.02.01-.04.02l-.14.06c-.13.03-.25.03-.37.03-.08,0-.16.02-.23.02-.19-.01-.38-.05-.55-.13-.71-.3-1.18-1.03-1.26-1.95-.05-.5.04-1.05.25-1.57.04-.09.09-.19.14-.3.53-1.02,1.46-1.63,2.35-1.63.24,0,.47.04.7.14.55.23.96.72,1.15,1.39Zm-5.29,4.22c.04.05.08.11.13.16.07.09.15.16.23.24.04.04.09.09.13.13.09.08.19.15.3.22.04.03.08.06.12.09.15.09.31.18.47.25.18.08.38.13.57.17.06.01.11.02.17.03.14.02.29.04.43.04.03,0,.06,0,.09,0,.03,0,.06,0,.08,0,.25,0,.5-.03.75-.09,0,0,0,0,0,0,0,0,0,0,0,0,0,0,0,0,0,0,.09-.02.18-.05.32-.1.02,0,.03-.01.05-.02,0,0,.01,0,.02,0,.27-.09.54-.22.8-.39.01,0,.03-.02.04-.03h0s0,0,0,0c0,0,0,0,0,0,0,0,0,0,0,0,.24-.16.46-.35.68-.56.06-.06.11-.12.17-.18.17-.18.32-.38.47-.6.02-.04.06-.06.08-.1.03.24.04.5.05.79,0,.99-.12,2.16-.38,3.28-.41,1.76-1.08,3.33-1.8,4.21-.32.38-.79.82-1.26.75-1.1-.18-2.31-2.14-2.87-4.67,0-.02,0-.04,0-.06-.04-.17-.06-.32-.09-.5-.23-1.32-.23-2.53-.02-3.4.02.03.04.05.06.08.06.09.12.18.18.26Zm11.06,22.71c.19.24.5.34.79.26.14-.04,3.35-.94,5.11-2.45.47-.4.75-.52.87-.55.11.46-.22,2.09-1.62,3.56-.61.64-3.26,1.77-6.58,2.78-.29-.2-1.72-1.28-1.09-2.7.51-.1.88-.17.92-.18.23-.05.43-.2.53-.41.58-1.21,1.33-2.57,1.85-3.3-.11.56-.44,1.43-.84,2.18-.14.26-.12.59.07.83Zm4.03,4.95c-.81-.45-1.46-.76-1.98-.96,1.05-.4,1.95-.79,2.67-1.16.02.97-.38,1.71-.69,2.12Zm-4.4.28c.12.28.27.53.44.76-.76-.1-1.76-.19-2.74-.19-.05-.07-.1-.15-.17-.26.81-.22,1.6-.45,2.35-.68.02.11.05.24.11.37Zm-5.41-5.31s-.02,0-.03,0c-.02,0-.03,0-.05,0-.03,0-.06,0-.09,0-.07-.34-.14-.68-.2-1,.13.31.3.64.46.97-.03,0-.06,0-.09.01Zm-3.06-6.89c.24,1.49.55,2.98.93,4.81.14.66.29,1.38.44,2.14-.45-.02-.9-.06-1.35-.11-.52-.06-1.06-.12-1.67-.15l1.65-6.69Zm3.49,8.35c.37-.05.77-.12,1.18-.19-.16,1.16.37,2.17,1.02,2.89-.55.15-1.12.29-1.69.43-.49-.58-1.39-1.92-.52-3.12Zm8.07,7.62c-2.24-.09-5.77-.48-6.6-1.04-.31-.21-.49-.37-.61-.48.91-.29,3.71-.22,5.53.17.79.17,1.41.3,1.71-.3.29-.57-.17-.97-.51-1.26-.21-.18-.47-.41-.72-.7.64.27,1.5.69,2.29,1.15.01,0,.02,0,.04,0,.11.06.22.09.34.09.51,0,1-.03,1.46-.07.82.89.93,1.75.91,2.16-1.39.19-2.71.29-3.85.25Zm6.52-8.37c-.7,1.23-1.5,2.62-2.39,4.28-.36.07-.74.12-1.14.16.39-.78.68-1.85.42-3.15.03-.02.07-.05.09-.08,1.56-1.62,2.33-3.8,1.93-5.08.76.44,1.6.89,2.51,1.32-.43.8-.9,1.62-1.43,2.54Zm-9.21-8.98c-.59.62-1.38.98-2.23,1-.86.03-1.65-.28-2.26-.86-.18-.17-.42-.22-.64-.18.16-.48.36-.99.59-1.55.84-2.01,0-3.53-1.01-4.8.56-.85,1.06-1.98,1.45-3.25.87.58,1.78,1.03,2.73,1.37-.3.36-.49.74-.55,1.1-.07.41.04.69.18.88-.34.68-.49,1.58-.35,2.54.24,1.6,1.14,2.83,2.5,3.54-.15.03-.29.09-.41.21Zm1.43-4.37c-.09-.25-.15-.62-.2-.96-.04-.29-.1-.61-.18-.91.4-.11.81-.22,1.22-.29-.14.63-.39,1.47-.84,2.16Zm-1.26-5.13c-.06.03-.11.07-.17.1,0,0-.01,0-.02,0-1.31-.34-2.55-.95-3.71-1.79.12-.61.21-1.21.26-1.79,1.44.79,3.24,1.29,5.12,1.42.03.42.07.88.14,1.39-.6.19-1.17.43-1.63.69Zm3.1-.99c-.2-1.56-.16-2.37-.1-2.77.27.35.65,1.04.91,2.02.06.24.14.49.21.73-.34-.02-.68-.01-1.02.02Zm2.73.46c-.11-.37-.31-1.02-.47-1.61-.04-.16-.1-.34-.16-.52.52-.15,1.02-.32,1.52-.51-.24.56-.49,1.42-.7,2.74-.06-.04-.13-.07-.2-.1Zm11.55-16.29c-.46.12-1.11.25-1.67.35-.38.07-.65.42-.62.8,0,.02.15,1.9-.5,3.57-1.02-1.52-2.76-2.26-4.32-1.82.04-.31.07-.62.07-.94v-4.18s.04.07.07.1c.61.58,1.4.87,2.19.87.84,0,1.69-.33,2.31-.99.29-.3.27-.78-.03-1.06-.3-.28-.77-.27-1.06.03-.64.67-1.71.7-2.38.06-.3-.29-.78-.27-1.06.03-.02.02-.02.04-.04.06v-.49c.46-.68,1.98-3.03,3.5-6.48,1.9,2.86,1.27,6.39,1.26,6.43-.04.21.01.43.14.59.8,1.06,1.7,2.33,2.13,3.05Zm-2.16-10.72c-.21-.33-.44-.65-.71-.97,1.05-2.62,1.83-5.27,2.3-7.88.15-.79-.35-1.04-.5-1.09-.16-.06-.3-.11-.47-.06,1.81-1.71,4.11-3.32,5.47-4.22-.18,2.88-1.15,9.65-6.09,14.22Zm-.68-8.64c-.29.43-.65.97-1.08,1.68,0-.03,0-.06,0-.1.25-.51.62-1.04,1.08-1.58Zm-24.21-2.3c.79,1.29,1.8,3.68,2.37,5.2.1.27.36.46.65.48.29.03.57-.13.71-.39,2.52-4.61,5.85-9.75,6.94-10.24.06,0,.13,0,.19,0,1.06.4,4.42,5.59,6.96,10.24.14.26.43.41.71.39.29-.02.55-.21.65-.48.57-1.53,1.59-3.91,2.38-5.2.08.87.09,2.23.06,3.71,0,0,0,0,0,.01-.03,1.06-.08,2.17-.15,3.22-.02.35.2.67.53.77.33.1.7-.04.87-.34.45-.79.95-1.63,1.42-2.39-.44,1.62-1,3.25-1.66,4.86-.4.97-.8,1.86-1.2,2.67-1.02-5.05-4.92-5.02-9.37-4.98-.62,0-1.26.01-1.93,0-3.95-.04-6.75.3-8.51,2.08-.9.9-1.46,2.16-1.71,3.78-1.43-2.5-2.92-5.9-3.27-9.65.62.99,1.38,2.35,2.03,3.59.16.31.52.47.87.37.34-.1.57-.42.54-.77-.17-2.54-.23-5.46-.09-6.95Zm-10.18-3.47c1.29.66,3.59,2.05,5.99,4.43-.02,0-.05.01-.07.02-.16.04-.67.22-.67.98-.03,3.11.72,6.01,1.73,8.51-.26.44-.48.87-.67,1.3-5.01-4.77-6.08-12.33-6.31-15.24Zm7.17,26.29c.03-.39-.23-.73-.62-.8-.57-.1-1.22-.24-1.67-.35.43-.71,1.31-1.95,2.1-3.01-.15.29-.11.65.14.89.6.56,1.37.87,2.19.87.03,0,.06,0,.09,0,.85-.02,1.64-.38,2.22-.99.28-.3.27-.78-.03-1.06-.3-.29-.78-.27-1.06.03-.64.67-1.71.7-2.38.06-.3-.29-.78-.27-1.06.03-.03.03-.04.06-.06.09.13-.18.17-.41.11-.62,0-.03-.74-2.74.6-5.74,1.82,3.76,3.99,6.25,4.16,6.44v4.97c0,.97.2,1.91.56,2.78-1.33-.17-2.71.45-3.65,1.68-1.92-1.69-1.65-5.23-1.65-5.27Zm-13.12-.38c.09.11.1.21.13.21-.06,0-.2,0-.44-.13-.97-.5-2.6-1.16-3.53-1.52.03-.06.06-.11.1-.18.13-.23.26-.47.38-.73.18-.4.23-.8.21-1.17h2.13c-.43,1.26.42,2.8,1.01,3.52Zm-3.7-11.95c0-.9.73-1.63,1.63-1.63s1.63.73,1.63,1.63v2.74h-3.27v-2.74Zm-1.71,4.24h6.82v2.69h-6.82v-2.69Zm.85,12.17c-1.59-.09-2.91-1.29-3.56-2.06.07.04.15.1.23.19.27.3.53.52.77.69.02.02.05.04.05.05,0,0,.02,0,.02.01,0,0,.01.01.02.01.73.52,1.41.68,1.98.77.4.07.79-.22.85-.63.06-.41-.22-.79-.63-.85-.4-.06-.83-.15-1.34-.51-.21-.19-1.08-1.03-1.25-2.09-.01-.08-.01-.16,0-.23.1.12.16.28.26.53.37.95.87,1.83,2.86,2.25.4.08.8-.17.89-.58.09-.4-.17-.8-.58-.89-1.37-.29-1.54-.73-1.78-1.34-.1-.24-.22-.52-.4-.79-.09-.4.71-1.88,1.51-2.45.01,0,.03-.02.04-.02,0,.11,0,.28-.11.52-.09.21-.21.41-.31.6-.43.77-1.15,2.05.6,3.15.12.08.26.11.4.11.25,0,.5-.12.64-.35.04-.06.05-.12.07-.18.81.33,1.74.73,2.35,1.04,1.08.55,1.88.23,2.26-.25.47-.58.41-1.48-.12-2.13-.47-.58-.84-1.42-.79-1.94.25.22.7.75,1.37,1.96.74,1.38,1.22,2.92,1.38,4.47.1.85.21,1.81.33,2.59.03.18.01.34-.04.47,0,.01,0,.03,0,.05-.31.69-1.69.96-2.82.54,0,0,0,0,0,0,0,0,0,0,0,0-.63-.23-1.18-.67-1.77-1.13-.9-.72-1.92-1.53-3.37-1.6Zm8.27,20.83c-1.94.07-3.33-.21-4-.81-.6-.55-.93-1.68-.99-3.39-.09-2.22.4-4.32,1.08-7.22.34-1.47.73-3.11,1.1-5.04.96.16,1.99.04,2.77-.4.72,4.25-.13,11.62-.14,11.71-.03.29.1.57.35.72.24.15.55.15.8,0l7.22-4.55c-1.66,2.95-2.76,6.42-3.29,8.28-1.32.23-3.92.66-4.91.7Zm-23.79,4.83s0-.13.08-.29c.21-.41.71-.9,1.43-1.37v.9c-.67.59-1.31.86-1.5.76Zm3-.13c.09-.12.23-.2.39-.26-.12.26-.25.5-.39.73v-.47Zm-1.5,4.17s-.08.01-.12.02c-.09.01-.19.03-.28.05.13-.07.27-.14.4-.22v.16Zm-3,.9c.13-.04.33-.09.5-.12.21-.05.46-.11.73-.18-.3.22-.51.49-.62.8-.31-.17-.54-.34-.62-.49Zm2.65,8.9l.36-.36v4.7l-.36.42v-4.76Zm2.39,4.76l-.53-.63v-4.67l.53.54v4.76Zm10.76-16.13l-2.2-1.27c-.99-.57-2.2-.47-3.01.25-.17.15-.3.31-.37.47l-1.71,2.79c-.05.06-.49.61-1.24,1.07-.62.38-1.09.56-1.42.65.94-.6,1.8-1.25,2.18-2.7.1-.4-.13-.81-.54-.92-.39-.1-.81.13-.92.54-.27,1.02-.81,1.37-1.81,1.99l-.09.05c-.3.19-.51.42-.64.66-.41.06-1.1.12-1.76-.06-.13-.04-.2-.1-.23-.08.03-.04.13-.13.36-.22.2-.08.43-.11.7-.15.28-.04.6-.09.93-.2,0,0,.02,0,.03,0,.71-.24,1.49-.78,2.18-2.2.18-.37.03-.82-.35-1-.37-.18-.82-.03-1,.35-.13.27-.25.47-.38.65v-.38s.03-.02.04-.03c.7-.68,1.29-1.54,1.75-2.56l.5-1.12c.1-.22.09-.47-.03-.68-.12-.21-.33-.35-.57-.37-.13-.01-.92-.08-1.69.17v-.6c.61-.26,1.28-.5,2.02-.68,1.86-.44,2.84.01,2.84.01.1.05.17.08.29.08.12.02.67.17,1.2.31,3.47.95,12.27,3.35,18,2.16-.52,1.85-1.07,3.85-1.43,5.73-1.05,1.15-5.85.69-11.63-2.71Zm14.65,6.28c-1.23-.54-1.76-1.4-1.67-2.63.34-2.09,1.04-4.56,1.66-6.74.23-.8.44-1.55.63-2.27,2.78-1.18,4.75.39,5.41,1.04l-1.32,5.36c-.9.05-1.95.2-3.23.5-.4.09-.65.5-.56.9.09.4.5.65.9.56,2.89-.68,4.44-.51,5.94-.34.6.07,1.23.12,1.91.13-.39,1.23.04,2.45.64,3.37-4,.81-8.03,1.13-10.3.12Zm3.06,13.16c1.91-.74,3.33-2.34,3.88-4.39l.04-.14c.08-.28.16-.56.26-.83.65.9,1.41,1.67,2.3,2.29-.15,1.23.04,2.43.49,3.51-1.58,1.05-3.53,1.97-5.47,1.97h-.08c-1.37-.02-2.62-.53-3.72-1.51.82-.33,1.6-.64,2.3-.91Zm19.38-1.59c.71-.16,1.4-.35,2.06-.56-.21.69-.44,1.33-.71,1.92-.49-.4-.95-.85-1.35-1.36Zm-1.62.31c.64.93,1.41,1.73,2.26,2.39-1.57,2.52-3.81,3.64-6.43,3.09-1.83-.39-3.61-1.65-4.67-3.3,1.11-.85,1.95-1.66,2.37-2.08.01,0,.02,0,.03,0,.91.15,1.84.22,2.78.22,1.22,0,2.45-.12,3.65-.32Zm-9.51.79c-.2-.57-.31-1.15-.31-1.76.51.25,1.06.46,1.63.63-.36.33-.8.71-1.32,1.12Zm2.09,15.91c-.74.39-1.52.74-2.3,1.08.05-1.81-.42-4.15-2.15-5.73,1.11-.03,2.28-.1,3.38-.2.33.1.62.22.89.37-.15.29-.24.61-.24.94,0,1.1.89,2,1.98,2.01.01.29,0,.54-.02.73-.94.49-1.54.8-1.54.8Zm16.03,1.79c-3.69-.54-7.47-1.46-10.84-2.82,2.93-1.58,7.05-3.86,9.49-5.55.49-.03.99-.06,1.49-.08h2.86c-1.81,1.41-3.05,3.18-3.42,5.01-.24,1.2-.09,2.37.41,3.45Zm-14.7-5.76c.06-.03.15-.07.27-.07.29,0,.52.23.52.51,0,.19-.1.36-.28.46-.32.17-.75-.08-.75-.46,0-.18.09-.34.25-.43Zm12.67-3.97c-2.72,1.92-7.92,4.74-10.82,6.28-.03.01-.06.02-.09.04-.01,0-.02.01-.04.02,0-.16-.02-.33-.05-.51.38-.37.6-.88.6-1.43,0-.84-.53-1.56-1.27-1.86.02,0,.05-.01.07-.02.14-.04.27-.13.36-.24l1.17-1.41s0,0,0,0l.12-.15c.26-.25.55-.46.83-.6,0,0,0,0,0,0s0,0,0,0c.7-.35,1.48-.43,2.31-.22,1.15.29,2.42.21,3.67-.22.54-.19,1.05-.41,1.53-.62,1.61-.71,2.29-.95,3-.2-.17.19-.56.55-1.4,1.15Zm-17.8,1.77c.43-.39.85-.71,1.29-.91.71-.32,2.13-.19,3.89.37-1.3.28-3.31.47-5.19.54Zm39.06,4.11c.07.87-.35,1.65-1.5,2.77-1.54,1.5-8.29,2.17-15.81,1.32-.81-1.03-1.11-2.17-.86-3.4.4-1.98,2.18-3.98,4.67-5.27,3.73.2,6.49.86,8,1.93.13.09.28.14.43.14.24,0,.47-.11.61-.32.24-.34.16-.81-.18-1.04-1.75-1.24-4.69-1.97-8.74-2.2-.12-.04-.24-.04-.37-.02-.13,0-.25-.02-.39-.02h-4.54c.45-.53.62-1.05.25-1.56-1.57-2.07-3.41-1.26-5.03-.54-.45.2-.92.4-1.42.58-.98.34-1.95.4-2.81.19-.82-.2-2.06-.31-3.35.34,0,0,0,0,0,0s0,0,0,0c0,0,0,0,0,0,0,0,0,0,0,0-.41.21-.82.5-1.25.92l-.18.21s0,0,0,0l-.11.13c-.21-.06-.42-.12-.49-.14h0s-.06-.02-.08-.03c-1.59-.54-3.78-1.04-5.23-.38-1.04.47-1.88,1.32-2.78,2.22l-.09.09c-.62,0-1.16-.03-1.57-.07-1.61-.16-3.22-.27-4.82-.34h-4.97c-3.98.16-5.48,2.51-5.54,2.61-.22.35-.11.81.24,1.03.12.08.26.12.4.12.25,0,.49-.12.63-.35.05-.07,1.19-1.78,4.3-1.9h4.91c1.54.07,3.12.18,4.71.33.03,0,.08,0,.11,0,.06.04.13.08.21.11,3.75,1.08,3.67,4.99,3.54,6.29-.98.36-1.98.69-3,.96-.73.2-1.46.37-2.17.52-.01,0-.02,0-.03.01-.01,0-.02,0-.03,0-9.34,1.93-17.86.11-20.36-.75-.9-.31-1.97-1.41-2.18-3.08-.18-1.43.17-4.27,4.59-7.22,2.58-1.72,8.22-4.16,12.88-6.04,1.49,1.56,3.24,2.37,5.23,2.39h.1c2.25,0,4.42-1,6.18-2.14,1.29,1.97,3.42,3.43,5.6,3.89.5.11,1.02.17,1.55.17,2.27,0,4.67-1.08,6.44-3.87,1.86,1.11,3.91,1.72,5.67,1.92.5.06.99.08,1.46.08,2.12,0,3.97-.54,5.21-1.53l2.78,1.76c6.12,4.26,9.05,7.17,9.22,9.17Zm-15.3-13.03l1.92,1.22c-1.23.74-3.09,1.06-5.13.83-1.59-.18-3.45-.73-5.12-1.74.46-.97.86-2.09,1.17-3.39,1.33-.51,2.47-1.08,3.29-1.62.8,1.96,2.14,3.6,3.86,4.7Zm-4.37-6.16c-2.09,1.53-8.66,4.13-14.35,3.17-3.09-.52-5.34-2.02-6.72-4.44l1.15-2.89c.04.07.07.13.11.2.19.35.42.77.67,1.26,1.56,3.05,4.39,3.92,7.12,3.92,3.52,0,6.88-1.46,7.12-1.56.04-.02.08-.04.12-.06,1.13-.76,1.88-1.71,2.24-2.22.37-.08.74-.16,1.11-.25.58.77,1.07,1.73,1.45,2.87Zm5.29-6.9c-1.85.97-4.21,1.82-6.61,2.45-.03,0-.06.01-.09.02-.46.12-.93.23-1.39.34-.22-.05-.44,0-.62.13-.25.05-.51.1-.76.15-.02-.56-.19-1.33-.7-2.15.92-.18,1.76-.43,2.54-.71.12-.01.23-.05.34-.12.45-.17.89-.34,1.31-.51,2.28-.94,4.26-2.61,5.55-4.64,1.41.33,2.67.51,3.79.51.36,0,.7-.02,1.03-.06-.83,1.41-2.34,3.52-4.38,4.58Zm-.59-6.61c-.66-.18-1.34-.38-2.07-.62-8.14-2.77-11.56-7.22-11.59-7.27,0,0,0,0,0,0-.04-.05-.1-.09-.15-.13-.02-.02-.04-.04-.07-.06-.04-.02-.08-.03-.12-.04-.05-.02-.1-.04-.16-.05,0,0,0,0-.01,0-2.67-.3-3.22-2.15-3.34-2.92-.12-.79.05-1.42.25-1.74.04.2.08.44.11.62.08.49.16,1,.35,1.43.23.51.62.88,1.11,1.1,0,0,0,0,0,0,0,0,0,0,0,0,0,0,0,0,0,0,0,0,0,0,0,0,0,0,.01,0,.02,0,.29.12.61.18.94.18.88,0,1.8-.41,2.37-1.13.26-.32.21-.8-.12-1.05s-.8-.21-1.05.12c-.1.12-.22.23-.36.31.43-.87.66-1.78.78-2.41.47.13.76.44.96.98.11.31.4.5.71.5.08,0,.17-.01.25-.04.39-.14.59-.57.46-.96-.33-.93-1.11-2.03-2.94-2.06,0,0,0,0,0,0,0,0,0,0,0,0-.02,0-.03,0-.05,0-.95,0-1.95.28-2.74.5-.17.05-.32.08-.47.12.22-.21.53-.45.95-.69,1.2-.67,2.96-1.12,4.18-.62.44.19.77.47,1.02.86.17.27.49.4.8.33.31-.07.54-.33.58-.65.16-1.37.44-2.76.69-3.55.08.24.14.52.18.85,0,0,0,0,0,0,.03.23.03.48.03.73,0,.01,0,.03,0,.04,0,.01,0,.03,0,.04-.04,3.3-1.83,7.95-1.85,8-.15.39.04.82.43.97,0,0,.01,0,.02,0l8.8,3.52s0,0,0,0c0,0,0,0,0,0l1.71.68c.09.03.18.05.28.05h0s.04,0,.05,0c.02,0,.03-.01.05-.01.07,0,.13-.03.2-.05.02-.01.05-.02.07-.03.06-.04.12-.08.17-.13.01-.01.02-.02.03-.03.05-.06.09-.13.13-.21,0,0,0-.01,0-.02.02-.05.02-.1.03-.15,0-.05.02-.1.02-.15,0,0,0-.01,0-.02-.04-.63-.15-1.79-.24-2.37-.09-.58-.39-2.22-.8-3.42,0,0,0,0,0,0-.11-.32-.23-.62-.36-.84l-.4-.71c-.21-.36-.66-.49-1.02-.28-.24.14-.38.39-.38.65,0,.13.03.25.1.37l.4.71s0,0,0,0c.06.11.14.28.21.49-.03,1.77-.27,3.04-.45,3.77l-1.08-.43c.22-1.82-.36-2.99-1.61-4.66-.79-1.04-.7-1.86.35-2.99.83-.29,1.52-.89,2.05-1.8,1.01-.85,2.43-2.1,2.4-3.68.32.24.62.49.9.79.22.24.44.51.69.87.05.07.09.13.15.22,0,0,0,0,0,0,0,0,0,0,0,0,5.11,7.73,7.13,14.5,5.15,17.26-1.45,2.02-4.97,1.61-7.67.9Zm9.82.52c-.63-.14-.87-.38-.91-.56.92-1.29,1.2-3.13.89-5.38,1.22-.38,3.49-1.68,5.07-6l3.9-4.2c1.77-1.71,4.12-2.87,5.72-3.39,2.65-.86,4.07-.8,5.09-.33l-.25.5c-.38-.22-.73-.38-.98-.46-.83-.27-1.67.07-2.01.83-.29.65-.12,1.57.68,2.01l1.01.75-.28.59c-.21-.08-.44-.09-.65.04-.36.21-.48.67-.28,1.02.07.13.17.23.25.35l-.17.35c-.24-.25-.63-.31-.94-.12-.35.23-.45.69-.22,1.04.14.21.29.39.44.56l-.22.46c-1.25-.89-2.39-1.92-2.4-1.94-.17-.15-.39-.22-.62-.19-.22.03-.42.16-.54.36-.03.04-2.74,4.59-5.87,8.44-4.2,5.19-6.12,5.41-6.74,5.26Zm19.67-15.14c-.04.06-.07.12-.1.18-.08.15-.22.33-.42.34,0,0,0,0,0,0,0,0-.02,0-.03,0l.33-.68.24.18Zm-.53,2.01s.01,0,.02,0c.71,0,1.34-.42,1.72-1.12.32-.6.73-.94.94-1.05.03.02.05.03.05.03,0,.01-.03.05-.07.1-.05.05-.09.11-.12.18,0,.01-.09.18-.23.4-.3.46-.6.82-.94,1.13-.62.58-1.27.88-1.92.89-.03,0-.05,0-.08,0-.07-.04-.17-.11-.29-.19l.24-.5c.22.08.45.14.69.14Zm-1.13-5.11s-.15-.09-.12-.15c0-.02.03-.03.07-.03.03,0,.06,0,.09.02.9.3,2.24,1.29,2.52,2.06l-2.56-1.9Zm-9.5,22.29c-.71-1.54-1.6-4.52-.51-8.5,2.37-2.95,4.5-6.25,5.41-7.71.52.44,1.28,1.06,2.08,1.61l-6.98,14.61Zm8.92-15.18l.13-.26c.22.14.38.22.4.23.03.02.07.01.1.02.05.02.09.04.15.05.02,0,.05,0,.07,0,0,0,0,0,.01,0,0,0,0,0,.01,0,.08,0,.16.01.24.01,0,0,0,0,0,0,.81.04,1.31.23,1.48.35-.36.15-1.5.11-2.59-.41Zm4.57-1.72c.05-.06.1-.1.15-.16.32.39.47.69.51.89-.19-.16-.43-.43-.67-.72Zm-.97-6.14c.68.6,1.06,1.26,1.04,1.8,0,.13-.03.25-.08.36-.22-.63-.7-1.19-1.24-1.66l.26-.52s.02.01.02.02Zm-.61-2.21c-1.42-.67-3.21-.73-6.21.24-.69.22-1.51.55-2.36.99,3.5-6.88,10.32-9.99,13.43-11.09l-4.86,9.86Z"/>
  <path d="m61.81,33.5c-.3-.29-.78-.27-1.06.03-.28.3-.27.78.03,1.06.91.86,2.07,1.28,3.23,1.28,1.25,0,2.49-.49,3.41-1.46.28-.3.27-.78-.03-1.06-.3-.29-.78-.27-1.06.03-1.21,1.28-3.24,1.33-4.52.12Z"/>
  <path d="m62.33,40.34c-1.21,1.28-3.24,1.33-4.52.12-.3-.29-.78-.27-1.06.03-.28.3-.27.78.03,1.06.91.86,2.07,1.28,3.23,1.28,1.25,0,2.49-.49,3.41-1.46.28-.3.27-.78-.03-1.06-.3-.29-.78-.27-1.06.03Z"/>
  <path d="m60.02,39.21c.64,0,1.28-.25,1.76-.75.29-.3.27-.78-.03-1.06-.3-.28-.78-.27-1.06.03-.35.37-.93.38-1.3.04-.3-.29-.78-.27-1.06.03-.28.3-.27.78.03,1.06.47.44,1.07.66,1.66.66Z"/>
  <path d="m61.59,29.76c0-1.23-.66-2.17-1.54-2.17s-1.54.93-1.54,2.17.66,2.17,1.54,2.17,1.54-.93,1.54-2.17Zm-1.54-.35c.02.1.04.21.04.35s-.01.25-.04.35c-.02-.1-.04-.21-.04-.35s.01-.25.04-.35Z"/>
  <path d="m60.25,20.02c1.39,0,2.49-1.42,2.49-3.23s-1.09-3.23-2.49-3.23-2.49,1.42-2.49,3.23,1.09,3.23,2.49,3.23Zm0-4.96c.47,0,.99.74.99,1.73s-.52,1.73-.99,1.73-.99-.74-.99-1.73.52-1.73.99-1.73Z"/>
</svg>