<?xml version="1.0" encoding="UTF-8"?>
<svg id="icons" xmlns="http://www.w3.org/2000/svg" viewBox="0 0 120 120">
  <path d="m40.04,14.55c-.25-.65-.81-1.12-1.49-1.25-.36-.07-8.99-1.68-14.24,2.06-2.15,1.54-3.44,3.71-3.83,6.46-.44,3.16.25,5.76,2.06,7.74,1.63,1.79,3.91,2.68,5.9,3.13l-4.18,4.32c-.4.41-.6.98-.56,1.55.05.57.34,1.1.8,1.44,4.27,3.18,13.95,7.16,21.7,1.09.46.4,1.03.83,1.73,1.28-5.96,8.14-8.54,15.63-7.67,22.29.85,6.44,4.64,10.91,8.5,14.19-4.91-1.36-15.17-3.49-17.92,1.39-.68,1.21-.74,2.53-.18,3.74.69,1.47,2.34,2.65,4.28,3.59-5.48,1.35-11.31,4.2-11.41,10.23-.05,2.92,1.26,5.59,3.79,7.73,4.52,3.82,12.51,5.55,18.22,5.55,1.35,0,2.58-.1,3.61-.29.84-.16,1.49-.83,1.61-1.67s-.29-1.67-1.05-2.07c-.57-.3-5.53-3.11-2.6-8.91.48-.94,1.11-1.73,1.81-2.4.42,6.68,6.12,11.69,9.69,13.66,0,0,0,0,0,0,.11.06.22.1.34.13.21.07.41.11.62.11,0,0,0,0,0,0,0,0,0,0,0,0,.04,0,.08-.01.12-.02.14,0,.27-.02.4-.06.06-.02.12-.05.19-.08.11-.04.21-.08.31-.14.01,0,.02,0,.03-.01,3.17-1.97,8.17-6.95,8.41-13.56.68.66,1.28,1.43,1.75,2.35,2.95,5.84-4.33,9.69-4.63,9.85-.76.39-1.19,1.22-1.07,2.07.12.85.77,1.52,1.62,1.68.85.16,1.88.24,3.03.24,6.12,0,15.68-2.22,20.73-6.49,2.6-2.2,3.96-4.86,3.91-7.69-.1-6.03-5.93-8.88-11.41-10.23,1.94-.93,3.59-2.12,4.28-3.59.57-1.21.5-2.54-.18-3.74-2.76-4.88-13.01-2.75-17.92-1.39,3.86-3.29,7.66-7.76,8.5-14.19.87-6.65-1.71-14.14-7.67-22.29.71-.45,1.28-.88,1.73-1.28,7.75,6.06,17.43,2.09,21.7-1.09.46-.34.75-.87.8-1.44.05-.57-.16-1.14-.56-1.55l-4.18-4.32c2-.45,4.27-1.35,5.9-3.13,1.81-1.98,2.5-4.58,2.06-7.74-.39-2.75-1.67-4.93-3.83-6.46-5.24-3.75-13.87-2.13-14.24-2.06-.68.13-1.24.6-1.49,1.25-.25.65-.14,1.37.28,1.92.71.93,1.78,3.94.32,6.81-.66,1.3-1.77,2.38-3.29,3.26.21-11.5-10.67-17.09-16.99-18.49-.02,0-.04,0-.05,0-.08-.01-.15-.02-.23-.03-.06,0-.12,0-.18,0-.06,0-.13,0-.19.02-.07,0-.14.02-.21.03-.02,0-.04,0-.06,0-5.55,1.41-15.03,7.02-14.61,18.47-1.5-.88-2.6-1.96-3.26-3.25-1.46-2.87-.39-5.88.32-6.81.42-.55.52-1.28.28-1.92Zm19.49,90.72c-2.34-1.59-7.64-5.94-6.44-11.99,2.29-.84,4.58-1.08,5.93-1.14,1.36.06,3.6.31,5.85,1.13,1.28,6.05-3.26,10.38-5.34,12Zm24.09-23.05s.04.07.04.08c-.35,1.08-4.96,3.1-10.47,4.11-1.01.19-1.72,1.11-1.63,2.14.09,1.03.94,1.82,1.97,1.83.17,0,16.76.35,16.88,7.5.03,1.64-.79,3.13-2.49,4.57-3.63,3.07-10.15,4.84-15.14,5.37,2.43-2.82,3.98-6.79,1.62-11.46-2.95-5.83-9.2-7.56-13.22-8.06-.22-.1-.46-.16-.71-.18-.1,0-.65-.03-1.49,0-.83-.03-1.37,0-1.47,0-.25.01-.49.08-.71.18-4.02.49-10.28,2.22-13.23,8.06-2.27,4.5-1.4,8.14.35,10.69-4.69-.29-10.68-1.76-13.99-4.56-1.63-1.38-2.4-2.88-2.38-4.61.12-7.15,16.71-7.5,16.88-7.5,1.03,0,1.89-.8,1.98-1.83.09-1.03-.62-1.95-1.63-2.14-4.97-.91-10.16-2.95-10.47-4.08,0,0,0-.03.05-.1,1-1.78,8.67-.98,14.84.93.6.18,1.26.08,1.77-.29l8.37-6.1,4.78,3.79c.15.16.31.29.5.39l2.34,1.86c.52.41,1.2.54,1.83.34,6.18-1.91,13.83-2.71,14.84-.93Zm-9.9-18.07c-.74,5.66-4.52,9.6-8.12,12.48l-4.98-3.95s-.07-.04-.1-.06c-.06-.04-.12-.08-.18-.12-.06-.03-.11-.06-.17-.08-.06-.03-.12-.05-.18-.07-.06-.02-.12-.03-.19-.05-.06-.01-.12-.03-.19-.03-.06,0-.13-.01-.19-.01-.07,0-.13,0-.19,0-.06,0-.12.01-.18.02-.07.01-.13.02-.19.04-.06.02-.12.04-.18.06-.06.02-.12.05-.17.07-.06.03-.12.07-.19.11-.03.02-.07.04-.1.06l-5.68,4.13c-3.65-2.89-7.53-6.87-8.28-12.61-.75-5.74,1.72-12.45,7.33-19.95,1.76.7,3.93,1.35,6.61,1.85.27.05.54.04.8-.01.14.03.28.05.42.05.12,0,.25-.01.37-.03,2.68-.51,4.85-1.16,6.61-1.85,5.62,7.5,8.09,14.21,7.33,19.95Zm-15.87-52.08c2.61.69,14.75,4.55,13.25,16.09-2.76.71-6.16,1.04-10.12.96h-4.03c-3.94.1-7.33-.23-10.08-.95-1.6-11.46,8.64-15.37,10.98-16.11Zm-.86,21.05h3.94c13.95.3,19.2-4.2,21.15-8.03,1.37-2.7,1.4-5.74.69-8.17,2.65-.15,6.28.07,8.55,1.69,1.24.89,1.96,2.12,2.19,3.77.27,1.94-.07,3.41-1.04,4.47-1.87,2.05-5.81,2.34-7.16,2.27-.8-.05-1.58.42-1.92,1.17-.34.75-.19,1.63.38,2.22l5.33,5.51c-3.39,1.84-10.46,4.51-16.08-1.13-.44-.45-1.07-.65-1.69-.57-.62.09-1.17.46-1.47,1.01-.01.02-.82,1.24-3.57,2.56-.07.03-.14.06-.21.1-1.63.76-3.9,1.54-7.04,2.13-.02,0-.04,0-.06.01-.02,0-.04,0-.06-.01-8.69-1.64-10.82-4.79-10.82-4.79-.3-.55-.85-.93-1.47-1.01-.62-.08-1.25.12-1.7.57-5.62,5.64-12.7,2.96-16.08,1.13l5.33-5.51c.57-.59.72-1.47.38-2.22-.34-.75-1.11-1.22-1.92-1.17-.05,0-4.92.18-7.15-2.26-.98-1.07-1.32-2.54-1.05-4.48.23-1.64.95-2.87,2.19-3.76,2.26-1.62,5.9-1.83,8.56-1.69-.71,2.43-.68,5.47.69,8.17,1.95,3.83,7.21,8.33,21.11,8.03Z"/>
</svg>