<svg id="Symbols" xmlns="http://www.w3.org/2000/svg" viewBox="0 0 150 150"><defs><style>.cls-1{fill:#231f20;}</style></defs><title>varja-bold</title><path id="varja_bold" class="cls-1" d="M91.17,81.08c.54-.34.83-.7.83-1.08,0-1-2-1.87-5.12-2.5C90,76.87,92,76,92,75s-2-1.87-5.12-2.5C90,71.87,92,71,92,70c0-.38-.29-.74-.83-1.08,5.21-1.06,7.75-3,9.89-6.09,4.15-6,5.7-18,.21-26.66-3.9-6.14-10.79-10.89-15.34-15-1.38-1.26-.91-4-.91-4-2.63,3.95-.42,7.22,3.83,13.5,12.92,19.08,3,30.14-2.75,29.91C79.77,60.33,80,50,78.43,37.83,77,26.87,75,14.67,75,14.67s-2,12.2-3.43,23.16C70,50,70.23,60.33,63.9,60.58c-5.72.23-15.67-10.83-2.75-29.91,4.25-6.28,6.46-9.55,3.83-13.5,0,0,.47,2.74-.91,4-4.55,4.11-11.44,8.86-15.34,15-5.49,8.65-3.94,20.62.21,26.66,2.14,3.11,4.68,5,9.89,6.09-.54.34-.83.7-.83,1.08,0,1,2,1.87,5.12,2.5C60,73.13,58,74,58,75s2,1.87,5.12,2.5C60,78.13,58,79,58,80c0,.38.29.74.83,1.08-5.21,1.06-7.75,3-9.89,6.09-4.15,6-5.7,18-.21,26.66,3.9,6.14,10.79,10.89,15.34,15,1.38,1.26.91,4,.91,4,2.63-4,.42-7.22-3.83-13.5-12.92-19.08-3-30.14,2.75-29.91,6.33.25,6.09,10.54,7.67,22.75C73,123.13,75,135.33,75,135.33s2-12.2,3.43-23.16C80,100,79.77,89.67,86.1,89.42c5.72-.23,15.67,10.83,2.75,29.91-4.25,6.28-6.46,9.54-3.83,13.5,0,0-.47-2.74.91-4,4.55-4.11,11.44-8.86,15.34-15,5.49-8.65,3.94-20.62-.21-26.66C98.92,84.06,96.38,82.14,91.17,81.08Z"/></svg>