<svg id="Symbols" xmlns="http://www.w3.org/2000/svg" viewBox="0 0 150 150"><defs><style>.cls-1,.cls-2,.cls-3{fill:none;stroke:#231f20;stroke-miterlimit:10;}.cls-1{stroke-width:4px;}.cls-2{stroke-width:8px;}.cls-4{fill:#231f20;}</style></defs><title>yantra-bold</title><g id="yantra_bold"><polygon class="cls-1" points="122.5 50 122.5 100 117.5 100 117.5 89.58 112.5 89.58 112.5 112.5 89.58 112.5 89.58 117.5 100 117.5 100 122.5 50 122.5 50 117.5 60.42 117.5 60.42 112.5 37.5 112.5 37.5 89.58 32.5 89.58 32.5 100 27.5 100 27.5 50 32.5 50 32.5 60.42 37.5 60.42 37.5 37.5 60.42 37.5 60.42 32.5 50 32.5 50 27.5 100 27.5 100 32.5 89.58 32.5 89.58 37.5 112.5 37.5 112.5 60.42 117.5 60.42 117.5 50 122.5 50"/><circle class="cls-2" cx="75" cy="75" r="33.33"/><path class="cls-3" d="M94.17,75a19.7,19.7,0,0,1-.2,2.79,19,19,0,0,1-2.53,7v0a14.89,14.89,0,0,1-1.06,1.57h0a19,19,0,0,1-3.95,3.95h0a14.89,14.89,0,0,1-1.57,1.06h0a18.54,18.54,0,0,1-5.17,2.15,16.91,16.91,0,0,1-1.88.38,19.56,19.56,0,0,1-5.58,0,17.38,17.38,0,0,1-1.88-.38,18.54,18.54,0,0,1-5.17-2.15h0a14.77,14.77,0,0,1-1.56-1.06h0a19,19,0,0,1-4-3.95h0a14.89,14.89,0,0,1-1.06-1.57v0a18.56,18.56,0,0,1-2.16-5.19c-.15-.61-.27-1.22-.37-1.86a19.56,19.56,0,0,1,0-5.58c.1-.63.22-1.26.38-1.88a18.54,18.54,0,0,1,2.15-5.17v0a14.77,14.77,0,0,1,1.06-1.56h0a18.68,18.68,0,0,1,4-3.94h0a14.77,14.77,0,0,1,1.56-1.06h0a18.54,18.54,0,0,1,5.17-2.15,13.37,13.37,0,0,1,1.4-.29c.15,0,.31-.06.48-.09a19.56,19.56,0,0,1,5.58,0c.17,0,.33,0,.48.09a13.37,13.37,0,0,1,1.4.29,18.54,18.54,0,0,1,5.17,2.15h0a14.89,14.89,0,0,1,1.57,1.06h0a18.68,18.68,0,0,1,3.95,3.94h0a14.77,14.77,0,0,1,1.06,1.56v0a18.54,18.54,0,0,1,2.15,5.17A17.38,17.38,0,0,1,94,72.21,19.7,19.7,0,0,1,94.17,75Z"/><polygon class="cls-3" points="58.33 79.92 75 57.08 91.67 79.92 58.33 79.92"/><polygon class="cls-3" points="91.67 70.08 75 92.92 58.33 70.08 91.67 70.08"/><polygon class="cls-3" points="80.44 72.64 74.94 84.19 69.44 72.64 80.44 72.64"/><polygon class="cls-3" points="69.44 77.69 74.94 66.14 80.44 77.69 69.44 77.69"/><polygon class="cls-3" points="85.88 61.12 75 76.55 64.12 61.12 85.88 61.12"/><polygon class="cls-3" points="64.12 90.13 75 74.7 85.88 90.13 64.12 90.13"/><polygon class="cls-3" points="64.12 84.19 75 61.12 85.88 84.19 64.12 84.19"/><polygon class="cls-3" points="85.88 66.44 75 89.5 64.12 66.44 85.88 66.44"/><path class="cls-3" d="M67.61,57a1.46,1.46,0,0,1-.11-.58c0-2,7.5-3.59,7.5-3.59s7.5,1.61,7.5,3.59a1.65,1.65,0,0,1-.1.58"/><path class="cls-3" d="M57,67.5a1.58,1.58,0,0,1-.48-.33c-1.4-1.4,2.77-7.84,2.77-7.84s6.44-4.17,7.84-2.77a1.58,1.58,0,0,1,.33.48"/><path class="cls-3" d="M57,82.39a1.46,1.46,0,0,1-.58.11c-2,0-3.59-7.5-3.59-7.5s1.61-7.5,3.59-7.5a1.65,1.65,0,0,1,.58.1"/><path class="cls-3" d="M67.5,93a1.58,1.58,0,0,1-.33.48c-1.4,1.4-7.84-2.77-7.84-2.77s-4.17-6.44-2.77-7.84A1.58,1.58,0,0,1,57,82.5"/><path class="cls-3" d="M82.39,93a1.46,1.46,0,0,1,.11.58c0,2-7.5,3.59-7.5,3.59s-7.5-1.61-7.5-3.59a1.65,1.65,0,0,1,.1-.58"/><path class="cls-3" d="M93,82.5a1.58,1.58,0,0,1,.48.33c1.4,1.4-2.77,7.84-2.77,7.84s-6.44,4.17-7.84,2.77A1.58,1.58,0,0,1,82.5,93"/><path class="cls-3" d="M93,67.61a1.46,1.46,0,0,1,.58-.11c2,0,3.59,7.5,3.59,7.5s-1.61,7.5-3.59,7.5a1.65,1.65,0,0,1-.58-.1"/><path class="cls-3" d="M82.5,57a1.58,1.58,0,0,1,.33-.48c1.4-1.4,7.84,2.77,7.84,2.77s4.17,6.44,2.77,7.84a1.58,1.58,0,0,1-.48.33"/><path class="cls-3" d="M70.89,52.88a10.42,10.42,0,0,1-.06-1.13c0-3.91,4.17-7.08,4.17-7.08s4.17,3.17,4.17,7.08a10.42,10.42,0,0,1-.06,1.13"/><path class="cls-3" d="M62.74,56.14a9.8,9.8,0,0,1-.49-1C60.76,51.5,63.39,47,63.39,47s5.07,1.33,6.56,5A9,9,0,0,1,70.33,53"/><path class="cls-3" d="M56.46,62.27a10.05,10.05,0,0,1-.85-.76c-2.76-2.77-2.06-8-2.06-8s5.19-.7,8,2.06a10.05,10.05,0,0,1,.76.85"/><path class="cls-3" d="M53,70.33A9,9,0,0,1,51.93,70c-3.62-1.49-5-6.56-5-6.56s4.52-2.63,8.13-1.14a9.8,9.8,0,0,1,1,.49"/><path class="cls-3" d="M52.88,79.11a10.42,10.42,0,0,1-1.13.06c-3.91,0-7.08-4.17-7.08-4.17s3.17-4.17,7.08-4.17a10.42,10.42,0,0,1,1.13.06"/><path class="cls-3" d="M56.14,87.26a9.8,9.8,0,0,1-1,.49C51.5,89.24,47,86.61,47,86.61s1.33-5.07,5-6.56A9,9,0,0,1,53,79.67"/><path class="cls-3" d="M62.27,93.54a10.05,10.05,0,0,1-.76.85c-2.77,2.76-8,2.06-8,2.06s-.7-5.19,2.06-8a10.05,10.05,0,0,1,.85-.76"/><path class="cls-3" d="M70.33,97A9,9,0,0,1,70,98.07c-1.49,3.62-6.56,5-6.56,5s-2.63-4.52-1.14-8.13a9.8,9.8,0,0,1,.49-1"/><path class="cls-3" d="M79.11,97.12a10.42,10.42,0,0,1,.06,1.13c0,3.91-4.17,7.08-4.17,7.08s-4.17-3.17-4.17-7.08a10.42,10.42,0,0,1,.06-1.13"/><path class="cls-3" d="M87.26,93.86a9.8,9.8,0,0,1,.49,1c1.49,3.61-1.14,8.13-1.14,8.13s-5.07-1.33-6.56-5A9,9,0,0,1,79.67,97"/><path class="cls-3" d="M93.54,87.73a10.05,10.05,0,0,1,.85.76c2.76,2.77,2.06,8,2.06,8s-5.19.7-8-2.06a10.05,10.05,0,0,1-.76-.85"/><path class="cls-3" d="M97,79.67a9,9,0,0,1,1.06.38c3.62,1.49,5,6.56,5,6.56s-4.52,2.63-8.13,1.14a9.8,9.8,0,0,1-1-.49"/><path class="cls-3" d="M97.12,70.89a10.42,10.42,0,0,1,1.13-.06c3.91,0,7.08,4.17,7.08,4.17s-3.17,4.17-7.08,4.17a10.42,10.42,0,0,1-1.13-.06"/><path class="cls-3" d="M93.86,62.74a9.8,9.8,0,0,1,1-.49c3.61-1.49,8.13,1.14,8.13,1.14s-1.33,5.07-5,6.56a9,9,0,0,1-1.06.38"/><path class="cls-3" d="M87.73,56.46a10.05,10.05,0,0,1,.76-.85c2.77-2.76,8-2.06,8-2.06s.7,5.19-2.06,8a10.05,10.05,0,0,1-.85.76"/><path class="cls-3" d="M79.67,53a9,9,0,0,1,.38-1.06c1.49-3.62,6.56-5,6.56-5s2.63,4.52,1.14,8.13a9.8,9.8,0,0,1-.49,1"/><path class="cls-4" d="M75,52.5A22.5,22.5,0,1,1,52.8,75,22.35,22.35,0,0,1,75,52.5m0-4A26.5,26.5,0,1,0,101.2,75,26.38,26.38,0,0,0,75,48.5Z"/><circle class="cls-3" cx="75" cy="75" r="18.75"/></g></svg>