<?xml version="1.0" encoding="UTF-8"?>
<svg id="icons" xmlns="http://www.w3.org/2000/svg" viewBox="0 0 150 150">
  <defs>
    <style>
      .cls-1 {
        fill: #1d1d1b;
      }
    </style>
  </defs>
  <path class="cls-1" d="m75,23c-28.67,0-52,23.33-52,52s23.33,52,52,52,52-23.33,52-52-23.33-52-52-52Zm0,100c-26.47,0-48-21.53-48-48s21.53-48,48-48,48,21.53,48,48-21.53,48-48,48Z"/>
  <path class="cls-1" d="m60.26,51.33h5.12c.25,1.18.72,2.28,1.36,3.26l-3.62,3.62c-.78.78-.78,2.05,0,2.83.39.39.9.59,1.41.59s1.02-.2,1.41-.59l3.62-3.62c.98.64,2.08,1.11,3.26,1.36v5.12c0,1.1.9,2,2,2s2-.9,2-2v-5.12c1.18-.25,2.28-.72,3.26-1.36l3.62,3.62c.39.39.9.59,1.41.59s1.02-.2,1.41-.59c.78-.78.78-2.05,0-2.83l-3.62-3.62c.64-.98,1.11-2.08,1.36-3.26h5.12c1.1,0,2-.9,2-2s-.9-2-2-2h-5.12c-.25-1.18-.72-2.28-1.36-3.26l3.62-3.62c.78-.78.78-2.05,0-2.83-.78-.78-2.05-.78-2.83,0l-3.62,3.62c-.98-.64-2.08-1.11-3.26-1.36v-5.12c0-1.1-.9-2-2-2s-2,.9-2,2v5.12c-1.18.25-2.28.72-3.26,1.36l-3.62-3.62c-.78-.78-2.05-.78-2.83,0-.78.78-.78,2.05,0,2.83l3.62,3.62c-.64.98-1.11,2.08-1.36,3.26h-5.12c-1.1,0-2,.9-2,2s.9,2,2,2Zm14.56-7.66c3.12,0,5.66,2.54,5.66,5.66s-2.54,5.66-5.66,5.66-5.66-2.54-5.66-5.66,2.54-5.66,5.66-5.66Z"/>
  <path class="cls-1" d="m118.98,64.33c-.59-3.73-3.02-8.06-8.09-9.06-.68-.13-1.81-.19-2.62-.12-3.09.26-7.51,2.86-7.15,7.6v.15c.05.65.11,1.73,1.06,3.32,1.19,2.01,3.47,3.16,5.9,3,2.19-.14,4-1.27,4.72-2.94.75-1.75.51-3.07.16-3.87-.43-1.01-1.28-1.81-2.32-2.19-1.98-.73-3.57.37-4.2,1.13l1.54,1.27,1.49,1.33s-.16.04-.19.03c.02.05.02.28-.16.71-.06.14-.52.48-1.31.53-.35.02-1.57.02-2.2-1.05-.45-.75-.47-1.09-.49-1.52v-.21c-.19-2.28,2.49-3.23,3.49-3.31.5-.04,1.24,0,1.51.06,3.84.75,4.73,4.6,4.92,5.76.72,4.56.26,10.42-2.19,16.26-.28-2.36-1.22-4.61-2.86-6.68-.26-.33-.52-.54-.78-.69.16.08.3.17.4.27-4.38-4.6-11.77-4.82-16.47-.48-1.95,1.8-2.91,3.92-2.94,6.48-.04,3.72,2.24,6.92,5.81,8.14,3.31,1.13,6.8.23,8.67-2.25,1.93-2.55,1.86-5.42-.18-7.3-2.11-1.94-5.09-1.99-7.08-.1-.8.76-.84,2.02-.08,2.83.76.8,2.03.84,2.83.08.69-.65,1.48,0,1.63.14.19.17.69.63-.3,1.94-.96,1.27-2.79,1.35-4.19.88-.74-.25-3.14-1.31-3.11-4.31.02-1.46.51-2.54,1.65-3.59,3.1-2.86,7.97-2.73,10.86.3.05.05.1.1.15.15,3.54,4.48,2.61,9.9-2.77,16.1-.46.54-.97,1.04-1.52,1.53-.52.42-1.06.83-1.62,1.24-.12.09-.23.19-.33.3-4.25,2.97-10.01,4.82-15.69,5.65,3.09-2.75,4.84-6.61,4.84-10.99,0-3.03-.85-5.85-2.39-7.93-1.95-2.63-4.18-4.18-7.25-5.01-3.73-1.02-7.14-.25-9.86,2.21-3.16,2.86-4.22,7.28-2.64,10.99,1.45,3.42,4.84,5.38,8.83,5.11,1.64-.11,3.17-.85,4.21-2.04.98-1.13,1.46-2.57,1.36-4.08-.12-1.7-.88-3.18-2.09-4.08-1.03-.76-2.27-1.02-3.51-.74-1.08.25-1.75,1.32-1.5,2.4.25,1.08,1.32,1.74,2.4,1.5.08-.02.14-.02.23.05.2.14.44.53.48,1.15.03.45-.1.84-.38,1.17-.34.39-.88.64-1.46.68-2.32.15-4.09-.82-4.88-2.68-.76-1.79-.54-4.48,1.65-6.46,1.68-1.52,3.74-1.96,6.12-1.32,2.2.6,3.67,1.62,5.08,3.53,1.02,1.38,1.61,3.4,1.61,5.55s-.68,7.58-7,10.17c-2.88,1.18-7.15.9-9.89.02-.13-.04-.27-.07-.41-.08-.19-.07-.39-.14-.57-.22-5.34-2.23-9.45-6.86-11-12.37-1.2-4.25-1.42-10.92,3.87-19.07,1.85,1.2,3.93,2.25,6.26,3.15,2.8,1.08,5.63,1.62,8.43,1.62,3.65,0,7.26-.92,10.69-2.74,7.07-3.77,12.8-11.27,14.59-19.12.25-1.08-.43-2.15-1.51-2.39-1.07-.25-2.15.43-2.39,1.51-1.54,6.76-6.48,13.23-12.57,16.48-5,2.66-10.46,2.98-15.8.92-6.53-2.52-10.82-6.33-12.75-11.33-3.32-8.62,1.38-18.15,1.45-18.28.5-.98.11-2.19-.88-2.69-.98-.5-2.19-.11-2.69.88-.23.45-5.58,11.19-1.63,21.5,1.18,3.08,3.06,5.78,5.61,8.07-6.27,9.51-5.98,17.47-4.54,22.58,1.88,6.68,6.86,12.28,13.31,14.98,2.94,1.23,7.04,1.87,11.58,1.87,9.17,0,20.11-2.63,26.84-8.29,12.78-10.07,15.69-24.31,14.21-33.7Z"/>
  <path class="cls-1" d="m70.8,113.03c-12.13-2.19-22.74-10.49-28.38-22.19-4.91-10.2-5.19-21.21-.75-29.45.52-.97.16-2.19-.81-2.71-.97-.53-2.19-.16-2.71.81-5.05,9.37-4.8,21.74.67,33.08,6.19,12.85,17.88,21.97,31.27,24.39.12.02.24.03.36.03.95,0,1.79-.68,1.97-1.64.2-1.09-.53-2.13-1.61-2.32Z"/>
</svg>