<?xml version="1.0" encoding="UTF-8"?>
<svg id="icons" xmlns="http://www.w3.org/2000/svg" viewBox="0 0 150 150">
  <defs>
    <style>
      .cls-1 {
        fill: #1d1d1b;
      }
    </style>
  </defs>
  <path class="cls-1" d="m99.79,80.02c.56,0,1.1-.24,1.48-.66.17-.19,4.08-4.64-.4-11.42-.4-.61-1.07-1.05-1.8-.98-.71.06-1.29.41-1.59,1.05-.31.37-3.05,3.12-13.28,3.17v-1.75c0-.34-.09-.67-.25-.96,3.04-4.4,6.49-7.5,8.32-7.42.61.04,1.18-.22,1.58-.66.4-.45.58-1.05.49-1.64-.04-.25-1.04-6.09-9.12-6.88-.62-.06-1.24.15-1.67.61-.42.46-.61,1.07-.5,1.69,0,.04.46,4.38-5.55,12.36-.49.06-1.01.16-1.53.32-1.08-4.76-1.65-11.23.23-12.91.45-.4.69-.98.66-1.58-.03-.6-.32-1.15-.8-1.51-.2-.15-5-3.63-11.33,1.45-.66.53-.92,1.43-.63,2.23.26.72.89,1.22,1.63,1.31.28.16,2.56,1.72,3.28,10.9-.22.05-.43.11-.65.18-6.92-3.63-10.61-7.07-10.68-8.66-.03-.6-.32-1.15-.8-1.51-.48-.36-1.1-.49-1.68-.34-.24.06-5.98,1.57-6.05,9.69,0,.61.29,1.19.76,1.57.48.38,1.12.52,1.72.39.05-.01,5.06-1.06,13.88,4.55v4.34c-5.85,1.86-11.1,2.35-12.51,1.11-.45-.4-1.05-.57-1.65-.47-.59.1-1.11.46-1.41.97-.13.22-3.01,5.4,2.79,11.08.39.38.89.6,1.42.6.12,0,.25-.01.37-.04.65-.13,1.18-.55,1.43-1.16.02-.04,1.92-3.56,11.63-5.95-.34,4.74-1.57,10.55-3.74,11.6-.54.26-.94.75-1.08,1.33-.14.58-.01,1.2.35,1.68.11.15,2.2,2.82,6.4,2.82,1.39,0,3.02-.29,4.89-1.07.64-.27,1.1-.85,1.21-1.54.11-.69-.15-1.38-.69-1.83-.03-.02-2.48-2.88-.67-13.09.2.06.4.1.61.1.18,0,.36-.03.53-.08,0,0,.02,0,.03-.01.14-.04.28-.09.41-.16,0,0,.02-.01.03-.02,0,0,.02,0,.03-.01.08-.04,1.33-.76,2.9-.73,4.51,6.06,6.25,10.67,5.62,12.16-.24.55-.21,1.18.07,1.71.28.53.78.91,1.37,1.03.06.01.46.09,1.09.09,1.9,0,5.87-.72,8.56-6.21.37-.75.38-1.7-.2-2.31-.56-.59-1.27-.82-2.02-.54-.54-.03-3.99-.59-9.06-9.44v-.86c5.29-.62,12.44-.56,13.97,1.5.36.48.91.78,1.51.81.03,0,.07,0,.1,0Zm-12.87-23.76c1.19.37,1.98.91,2.5,1.44-1.24.55-2.45,1.41-3.58,2.42.6-1.55.92-2.84,1.09-3.86Zm-33.53,7.7c.28-1.24.78-2.07,1.27-2.63.68,1.11,1.67,2.21,2.86,3.26-1.67-.43-3.05-.59-4.13-.63Zm37.04,27.36c-.68.76-1.36,1.2-1.96,1.45-.09-1.02-.36-2.1-.76-3.22,1,.83,1.91,1.4,2.72,1.77Zm-20.92-13.05v-7.52c1.4-.46,2.59-.27,3.35-.03v7.49c-1.22-.21-2.37-.13-3.35.06Zm2.3-24.73c-.38.97-.62,2.07-.74,3.22-.47-1.18-.99-2.08-1.5-2.76.88-.36,1.63-.47,2.25-.46Zm-17.7,31.53c-.67-1.02-.92-1.93-.99-2.66,1.28.31,2.73.38,4.24.29-1.45.83-2.5,1.65-3.26,2.37Zm13.84,11.22c.75-.97,1.34-2.15,1.82-3.43.19,1.49.5,2.66.85,3.56-1.12.18-2.01.08-2.67-.13Zm8.91-25.54c.45-.15.88-.22,1.28-.26.25.04.51.04.76-.01.51.03.96.13,1.31.24v7.49c-1.22-.21-2.37-.13-3.35.06v-7.52Zm22.12,4.16c-1.09-.54-2.38-.91-3.75-1.16,1.45-.47,2.55-1,3.38-1.52.4,1.08.45,1.98.37,2.68Z"/>
  <path class="cls-1" d="m74.82,23c-28.67,0-52,23.33-52,52s23.33,52,52,52,52-23.33,52-52-23.33-52-52-52Zm0,100c-26.47,0-48-21.53-48-48s21.53-48,48-48,48,21.53,48,48-21.53,48-48,48Z"/>
  <path class="cls-1" d="m52.04,95.38c-.75-.81-2.01-.87-2.83-.12-1.18,1.09-1.87,2.57-1.94,4.17-.02.46.02.91.1,1.34l-2.82-.61c-.73-.16-1.49.11-1.97.69-.48.58-.58,1.38-.28,2.07.07.16,1.79,3.98,6.89,7.07.32.19.68.29,1.03.29.4,0,.81-.12,1.15-.37.65-.46.97-1.26.81-2.03l-.49-2.4c.43.12.87.19,1.33.21.09,0,.18,0,.26,0,1.51,0,2.94-.56,4.06-1.58.81-.75.87-2.01.12-2.83l-5.42-5.91Z"/>
  <path class="cls-1" d="m86.12,113.29l-2.17-1.13c.36-.26.7-.56,1-.9,1.06-1.2,1.59-2.75,1.49-4.35-.07-1.1-1.01-1.94-2.12-1.87l-8.01.5c-1.1.07-1.94,1.02-1.87,2.12.1,1.6.82,3.07,2.02,4.13.34.3.72.55,1.12.76l-2.26,1.82c-.58.47-.86,1.23-.7,1.96.15.73.7,1.32,1.43,1.52.09.02,1.22.32,3.07.32,1.72,0,4.05-.26,6.75-1.23.75-.27,1.26-.96,1.32-1.75.05-.79-.37-1.54-1.07-1.91Z"/>
  <path class="cls-1" d="m111.69,90.32l-2.24.98c.02-.44,0-.89-.07-1.34-.27-1.58-1.13-2.97-2.44-3.9-.9-.64-2.15-.43-2.79.47l-4.65,6.53c-.31.43-.43.97-.34,1.49.09.52.38.99.81,1.3,1.06.75,2.27,1.11,3.48,1.11.79,0,1.57-.16,2.3-.46v2.89c-.01.75.41,1.44,1.07,1.78.29.15.6.22.92.22.41,0,.82-.13,1.17-.37.14-.1,3.52-2.57,5.48-8.21.26-.75.05-1.58-.53-2.12-.58-.54-1.43-.69-2.16-.37Z"/>
  <path class="cls-1" d="m113.56,55.47c-.42-.67-1.2-1.04-1.98-.92-.79.11-1.43.68-1.64,1.44l-.66,2.37c-.33-.3-.69-.57-1.08-.8-1.4-.79-3.02-.99-4.57-.56-1.06.3-1.69,1.4-1.39,2.46l2.15,7.73c.14.51.48.94.94,1.21.3.17.64.26.98.26.18,0,.36-.02.54-.07,1.55-.43,2.83-1.44,3.62-2.83.22-.4.4-.81.52-1.24l2.24,1.82c.36.3.81.45,1.26.45.27,0,.55-.06.8-.17.69-.3,1.15-.96,1.19-1.71.01-.18.22-4.36-2.93-9.42Z"/>
  <path class="cls-1" d="m79.99,43.92l7.36,3.19c.25.11.52.17.8.17.25,0,.5-.05.73-.14.49-.19.89-.58,1.1-1.06.85-1.96.56-4.14-.56-5.79l2.83-.59c.73-.15,1.32-.71,1.52-1.43.2-.72-.03-1.5-.58-2-.13-.12-3.25-2.91-9.17-3.65-.79-.1-1.56.28-1.97.96-.41.68-.37,1.54.09,2.19l1.42,1.99c-1.97.3-3.76,1.58-4.61,3.54-.44,1.01.03,2.19,1.04,2.63Z"/>
  <path class="cls-1" d="m48.93,44.61l2.45.15c-.22.39-.42.79-.56,1.23-.48,1.53-.34,3.16.4,4.58.36.68,1.05,1.08,1.77,1.08.31,0,.63-.07.92-.23l7.11-3.71c.47-.25.82-.67.98-1.17.16-.51.11-1.05-.13-1.52-.74-1.42-2-2.47-3.53-2.95-.44-.14-.88-.22-1.32-.25l1.32-2.57c.34-.67.28-1.47-.16-2.08-.44-.61-1.18-.92-1.92-.81-.17.03-4.31.69-8.61,4.83-.57.55-.77,1.39-.49,2.13.27.75.96,1.26,1.76,1.31Z"/>
  <path class="cls-1" d="m43.35,76.4l1.59-7.86c.22-1.08-.48-2.14-1.56-2.36-1.57-.32-3.18,0-4.52.88-.38.25-.72.55-1.03.88l-1.17-2.65c-.3-.69-.97-1.15-1.72-1.19-.74-.05-1.46.34-1.84.99-.09.15-2.17,3.78-1.67,9.73.07.79.6,1.47,1.35,1.72.21.07.43.11.65.11.55,0,1.09-.23,1.48-.65l1.66-1.81c.71,1.87,2.32,3.35,4.42,3.77.13.03.27.04.4.04.39,0,.77-.11,1.1-.33.44-.29.75-.75.85-1.27Z"/>
</svg>