<?xml version="1.0" encoding="UTF-8"?>
<svg id="icons" xmlns="http://www.w3.org/2000/svg" viewBox="0 0 150 150">
  <defs>
    <style>
      .cls-1 {
        fill: #1d1d1b;
      }
    </style>
  </defs>
  <path class="cls-1" d="m82.73,76.97c3.5-.96,6.08-2.67,6.08-5.21s-2.51-4.46-7.08-5.48c-1.08-.24-2.15.44-2.39,1.52s.44,2.15,1.52,2.39c2.4.54,3.49,1.25,3.85,1.58-.75.76-4.03,2.16-9.71,2.16s-8.97-1.41-9.71-2.17c.35-.34,1.37-.99,3.57-1.52,1.07-.26,1.74-1.33,1.48-2.41-.26-1.07-1.33-1.74-2.41-1.48-5.87,1.4-6.74,3.99-6.74,5.41,0,2.54,2.58,4.25,6.08,5.21-10.42,2.84-18,11.26-18,21.19,0,12.25,11.54,22.21,25.73,22.21s25.73-9.96,25.73-22.21c0-9.92-7.58-18.35-18-21.19Zm-7.73,39.4c-11.98,0-21.73-8.17-21.73-18.21s9.75-18.21,21.73-18.21,21.73,8.17,21.73,18.21-9.75,18.21-21.73,18.21Z"/>
  <path class="cls-1" d="m85.51,94.64l-10.27-1.85c-.25-.04-.5-.04-.75,0l-9.79,1.97c-.94.19-1.61,1.01-1.6,1.96l.02,10.72c0,.82.5,1.55,1.26,1.86l9.24,3.65c.24.09.49.14.74.14.22,0,.43-.04.64-.1l10.75-3.62c.81-.27,1.36-1.03,1.36-1.89l.05-10.87c0-.97-.69-1.8-1.65-1.98Zm-2.4,11.4l-8.7,2.93-7.29-2.88-.02-7.72,7.81-1.57,8.24,1.48-.04,7.76Z"/>
  <path class="cls-1" d="m65.78,64.84c1.1,0,2-.9,2-2s-.9-2-2-2c-1.25,0-1.25-.55-1.25-.79,0-.97,1.1-1.28,1.29-1.33,1.08-.23,1.77-1.29,1.54-2.38-.23-1.08-1.29-1.77-2.37-1.54-1.54.33-4.46,1.85-4.46,5.24,0,2.82,2.16,4.79,5.25,4.79Z"/>
  <path class="cls-1" d="m82.35,56.76c0,1.1.9,2,2,2,1.25,0,1.25.55,1.25.79,0,.96-1.1,1.28-1.29,1.33-1.08.23-1.77,1.29-1.54,2.37.2.94,1.03,1.58,1.95,1.58.14,0,.28-.01.42-.04,1.54-.33,4.46-1.85,4.46-5.24,0-2.82-2.16-4.79-5.25-4.79-1.1,0-2,.9-2,2Z"/>
  <path class="cls-1" d="m65.24,39.75c1.1,0,2-.9,2-2,0-.99.98-2.05,2.58-2.81-1.35,1.34-2.19,3.19-2.19,5.24,0,.93.17,1.84.52,2.69.3.76,1.04,1.25,1.86,1.25h.01c.82,0,1.56-.51,1.85-1.28.5-1.3,1.73-2.14,3.12-2.14s2.64.86,3.13,2.14c.3.77,1.03,1.27,1.85,1.28h.01c.82,0,1.55-.5,1.86-1.25.34-.86.52-1.76.52-2.69,0-2.05-.84-3.9-2.2-5.24,1.6.76,2.59,1.82,2.59,2.81,0,1.1.9,2,2,2s2-.9,2-2c0-4.42-5.16-7.88-11.76-7.88s-11.76,3.46-11.76,7.88c0,1.1.9,2,2,2Z"/>
  <path class="cls-1" d="m84.68,52.91c.36-.7.27-1.54-.21-2.16-.1-.12-2.17-2.68-5.9-3.54-.85-2.12-2.3-3.21-3.93-2.9-1.68.32-2.55,1.84-2.98,3.01-3.83,1.09-5.78,3.07-6.01,3.31-.55.58-.69,1.43-.38,2.16.32.73,1.04,1.21,1.84,1.21h4.78c.29,1.96.77,4.72,1.39,5.89.41.77,1.14,1.22,1.93,1.22.13,0,.27-.01.41-.04,1.3-.25,2.06-.72,2.84-7.28l4.36.21c.79.02,1.52-.39,1.88-1.09Zm-9.66-2.35c-.09-.08-.18-.16-.29-.23.18-.2.32-.43.41-.69.06.18.15.35.26.5-.15.12-.28.26-.39.42Z"/>
  <path class="cls-1" d="m75,23.22c-28.55,0-51.78,23.23-51.78,51.78s23.23,51.78,51.78,51.78,51.78-23.23,51.78-51.78-23.23-51.78-51.78-51.78Zm0,99.55c-26.34,0-47.78-21.43-47.78-47.78s21.43-47.78,47.78-47.78,47.78,21.43,47.78,47.78-21.43,47.78-47.78,47.78Z"/>
  <path class="cls-1" d="m34.61,74c0-13.81,7.58-26.74,18.85-32.18.99-.48,1.41-1.68.93-2.67-.48-1-1.68-1.41-2.67-.93-12.63,6.09-21.11,20.47-21.11,35.78,0,7.93,1.44,13.76,5.51,22.27.34.72,1.06,1.14,1.81,1.14.29,0,.58-.06.86-.2,1-.48,1.42-1.67.94-2.67-3.78-7.91-5.12-13.28-5.12-20.54Z"/>
  <path class="cls-1" d="m41.67,75c0-10.61,5.76-20.42,15.02-25.61.96-.54,1.31-1.76.77-2.72-.54-.96-1.76-1.31-2.72-.77-10.53,5.9-17.07,17.05-17.07,29.1,0,5.64,1.84,10.15,3.44,13.46.35.71,1.06,1.13,1.8,1.13.29,0,.59-.06.87-.2.99-.48,1.41-1.68.93-2.67-1.5-3.1-3.04-6.92-3.04-11.71Z"/>
  <path class="cls-1" d="m49.63,80.33c-.37-1.53-.52-3.12-.52-5.33,0-6.48,2.58-11.96,7.89-16.75.82-.74.89-2,.15-2.83-.74-.82-2-.88-2.82-.15-6.2,5.59-9.21,12.04-9.21,19.72,0,2.54.19,4.41.63,6.26.22.92,1.04,1.53,1.94,1.53.15,0,.31-.02.47-.05,1.07-.26,1.74-1.34,1.48-2.41Z"/>
  <path class="cls-1" d="m113.21,51.96c-4.12-6.78-8.39-11-16.29-16.16-.92-.61-2.17-.34-2.77.58-.6.92-.34,2.16.58,2.77,7.34,4.79,11.28,8.68,15.05,14.89,7.18,11.8,7.43,26.78.63,37.29-.6.93-.34,2.17.59,2.77.34.22.71.32,1.08.32.66,0,1.3-.32,1.68-.91,7.62-11.77,7.39-28.46-.57-41.54Z"/>
  <path class="cls-1" d="m106.67,54.77c-2.93-4.82-6.85-7.72-9.94-9.7-.93-.6-2.17-.33-2.76.6-.6.93-.33,2.17.6,2.76,2.9,1.87,6.19,4.32,8.69,8.42,5.75,9.45,6.15,19.57,1.13,28.48-.54.96-.2,2.18.76,2.72.31.17.65.26.98.26.7,0,1.38-.37,1.74-1.02,5.77-10.23,5.35-21.78-1.19-32.53Z"/>
  <path class="cls-1" d="m100.31,58.64c-1.32-2.17-2.46-3.67-3.79-5.02-.78-.78-2.04-.79-2.83-.01s-.79,2.04-.01,2.83c1.11,1.12,2.07,2.4,3.22,4.28,3.51,5.77,4.42,12.79,2.48,19.26-.32,1.06.29,2.17,1.34,2.49.19.06.38.08.57.08.86,0,1.66-.56,1.92-1.43,2.26-7.56,1.2-15.75-2.9-22.49Z"/>
</svg>