<?xml version="1.0" encoding="UTF-8"?>
<svg id="icons" xmlns="http://www.w3.org/2000/svg" viewBox="0 0 150 150">
  <defs>
    <style>
      .cls-1 {
        fill: #1d1d1b;
      }
    </style>
  </defs>
  <path class="cls-1" d="m75,23c-28.67,0-52,23.33-52,52s23.33,52,52,52,52-23.33,52-52-23.33-52-52-52Zm0,100c-26.47,0-48-21.53-48-48s21.53-48,48-48,48,21.53,48,48-21.53,48-48,48Z"/>
  <path class="cls-1" d="m83.89,65.14h-17.78c-1.64,0-2.98,1.34-2.98,2.98v13.77c0,1.64,1.34,2.98,2.98,2.98h17.78c1.64,0,2.98-1.34,2.98-2.98v-13.77c0-1.64-1.34-2.98-2.98-2.98Zm-1.02,15.73h-15.73v-11.73h15.73v11.73Z"/>
  <path class="cls-1" d="m114.62,88.76l-1.27-3.25c-.52-1.34-.8-2.74-.81-4.18l-.19-17.37c-.01-1.11.15-2.22.49-3.28l1.27-4.03c.25-.78-.01-1.64-.65-2.16-.64-.52-1.53-.59-2.24-.18l-5.33,3.02c-2.47,1.4-3.66,4.96-3.78,7.29l-9.65,5.87c-1.3.67-2.23,2.17-2.23,3.64,0,1.56.91,3,2.33,3.67l.27.13c.16.08.31.15.47.22.09.04.18.08.28.1l8.64,2.48c.44,2.97,2.07,6.88,5.03,8.31l4.64,2.24c.28.13.57.2.87.2.49,0,.98-.18,1.36-.53.6-.56.8-1.43.5-2.2Zm-5.63-3.31c-1.56-.75-2.89-4.06-2.89-6.24,0-.89-.59-1.68-1.45-1.92l-9.81-2.82-.62-.28s.06-.15.04-.12c.07-.03.13-.07.2-.1l10.67-6.49c.6-.36.96-1.01.96-1.71v-.73c0-1.56.91-3.73,1.77-4.22l.93-.53c-.31,1.21-.46,2.46-.44,3.72l.19,17.37c.02,1.41.22,2.8.6,4.15l-.15-.07Z"/>
  <path class="cls-1" d="m66.71,110.59c3.56,0,6.59-2.51,7.11-5.93.09-.62.15-1.27.16-2.06.04-2.01-.65-4.02-1.94-5.64l-7.47-9.39c-.2-.25-.45-.44-.73-.57-.96-.44-2.06-.36-2.94.2-.9.58-1.44,1.58-1.45,2.68,0,1.65,0,3.29,0,4.94v3.43c0,1.64,0,3.28,0,4.92,0,.39.02.76.07,1.12.44,3.47,3.42,6.17,6.93,6.29.09,0,.17,0,.26,0Zm-3.22-6.81c-.03-.2-.04-.41-.04-.62,0-1.64,0-3.28,0-4.92v-3.43c0-.74,0-1.49,0-2.23l5.46,6.86c.71.9,1.1,1.99,1.08,3.08-.01.6-.05,1.09-.12,1.53-.23,1.5-1.63,2.59-3.28,2.53-1.57-.05-2.9-1.26-3.1-2.8Z"/>
  <path class="cls-1" d="m83.42,113.38c-.58-.38-1.17-.69-1.75-.91-1.52-.58-3.22-.92-5.35-1.06-2.98-.2-5.6,0-8,.61-1.03.26-2.23.64-3.29,1.46-.96.75-1.13,1.57-1.1,2.14.03.56.28,1.35,1.29,1.97.83.5,1.54.85,2.24,1.08,2.35.79,4.77.93,6.82.96h.06c2.03-.03,4.43-.16,6.78-.95.72-.24,1.44-.58,2.22-1.06,1.09-.66,1.33-1.5,1.34-2.09.01-.59-.2-1.45-1.26-2.15Zm-9.11,2.25c-.89-.01-1.81-.05-2.73-.15,1.38-.16,2.86-.19,4.48-.08.33.02.65.05.95.08-.93.1-1.85.14-2.7.15Z"/>
  <path class="cls-1" d="m88.5,87.2c-.88-.56-1.98-.64-2.94-.2-.29.13-.54.33-.73.57l-7.47,9.39c-1.29,1.62-1.98,3.63-1.94,5.64.02.78.07,1.43.16,2.05.52,3.42,3.55,5.93,7.11,5.93.09,0,.17,0,.26,0,3.51-.12,6.49-2.83,6.93-6.29.05-.36.07-.74.07-1.12,0-1.64,0-3.28,0-4.92v-3.71c0-1.55,0-3.11,0-4.66,0-1.1-.54-2.11-1.45-2.69Zm-2.55,7.35v3.71c0,1.64,0,3.28,0,4.92,0,.21-.01.42-.04.62-.2,1.54-1.53,2.75-3.1,2.8-1.62.07-3.05-1.03-3.28-2.53-.07-.44-.1-.93-.12-1.53-.02-1.09.36-2.18,1.08-3.08l5.46-6.86c0,.65,0,1.3,0,1.96Z"/>
  <path class="cls-1" d="m57.1,80.76l-.07-.09c1.29-1.49,2.31-2.85,3.15-4.24.53-.86.48-1.96-.11-2.78-.25-.34-.49-.69-.73-1.04-.48-.69-.96-1.37-1.47-2.04-.29-.37-.59-.72-.89-1.06l.14-.21c.26-.39.37-.85.32-1.31-.05-.45-.24-.87-.56-1.2-2.21-2.25-4.57-3.72-7.19-4.47l-.03-.32c-.08-.97-.84-1.74-1.81-1.83l-.35-.03c-.27-.03-.51-.05-.75-.06-3.25-.2-6.12.59-8.56,2.36-.38.28-.75.59-1.11.92-.36-.58-.99-.94-1.68-.95-.8-.02-1.48.43-1.82,1.13l-1.49,3.08c-1.15,2.38-1.32,5.09-.45,7.41.15.4.31.75.51,1.06-.84,1.23-.99,2.58-1.02,3.86-.07,3.22,1.07,5.25,1.9,6.74l.09.16c.19.35.44.55.46.56.42.4,1,.59,1.58.53.52-.05.99-.31,1.32-.7,2.46,2.61,5.6,3.93,9.36,3.93.67,0,1.36-.04,2.07-.13.77-.09,1.42-.62,1.66-1.35l.28-.84c2.56-.76,4.86-2.21,6.99-4.39.3-.3.43-.62.45-.67.05-.11.09-.22.12-.33.03-.12.05-.24.06-.37.03-.43-.07-.87-.33-1.25-.02-.02-.03-.05-.05-.07Zm-3.78-1.94l-.1.11c-.09.1-.19.2-.27.3-.6.7-.64,1.72-.1,2.47h.01c-1.56,1.32-3.19,2.15-4.98,2.53-.69.15-1.25.65-1.48,1.32l-.21.62c-3.12.09-5.45-.95-7.33-3.25l-1.01-1.22c-.38-.46-.95-.72-1.54-.72-.03,0-.06,0-.09,0-.3.01-.6.09-.86.23-.17-.63-.27-1.33-.25-2.16.02-1.06.13-1.49.46-1.86,1.16-1.31,1.16-2.82,0-4.12,0,0-.09-.11-.2-.42-.44-1.19-.39-2.59.14-3.9.28.18.6.28.93.31.73.05,1.43-.3,1.82-.91.66-1.02,1.4-1.83,2.27-2.46,1.51-1.1,3.26-1.62,5.26-1.63v.06c.08.91.76,1.65,1.66,1.81,1.93.33,3.7,1.19,5.38,2.59l-.06.09c-.49.75-.43,1.73.16,2.41.21.24.43.48.65.72.4.44.77.85,1.1,1.28.47.62.92,1.25,1.37,1.89.06.09.12.17.18.26-.77,1.15-1.72,2.33-2.92,3.65Z"/>
  <path class="cls-1" d="m58.29,46.01l6.95.99-4.99,9.56c-.39.75-.27,1.67.31,2.29.58.62,1.48.81,2.26.48l7.34-3.17,2.22,3.12c.33.46.84.77,1.41.83.56.06,1.13-.12,1.56-.5l3.53-3.16,6.56,3.45c.29.15.61.23.93.23.46,0,.92-.16,1.29-.47.62-.52.86-1.37.61-2.15l-5.62-17.32,1.24-4.5c.17-.6.04-1.25-.34-1.74s-.97-.79-1.59-.79h-9.79c-.18,0-.36.02-.54.07l-6.07,1.69c-1.82.51-3.37,1.17-4.73,2.04-1.83,1.17-4.26,3.17-4.26,7.08,0,1,.73,1.84,1.72,1.98Zm4.69-5.69c1.02-.65,2.22-1.16,3.65-1.56l5.8-1.61h6.89l-.7,2.55c-.1.38-.1.78.03,1.15l4.29,13.22-3.44-1.81c-.74-.39-1.64-.28-2.27.28l-2.89,2.6-1.86-2.62c-.38-.54-1-.84-1.63-.84-.27,0-.53.05-.79.16l-3.65,1.58,3.69-7.08c.3-.58.3-1.26,0-1.84-.3-.58-.86-.98-1.5-1.07l-7.68-1.09c.36-.73,1.01-1.35,2.06-2.02Z"/>
  <path class="cls-1" d="m72.83,42.13c.92,0,1.67-.75,1.67-1.67s-.75-1.67-1.67-1.67-1.67.75-1.67,1.67.75,1.67,1.67,1.67Zm0-2.34c.37,0,.67.3.67.67s-.3.67-.67.67-.67-.3-.67-.67.3-.67.67-.67Z"/>
  <path class="cls-1" d="m46.1,69.93c-.6-.48-1.42-.57-2.11-.24-.69.33-1.13,1.03-1.13,1.8v6.78c0,.74.41,1.43,1.07,1.77.29.15.61.23.93.23.4,0,.8-.12,1.14-.36l4.56-3.16c.52-.36.84-.95.86-1.58.02-.63-.26-1.24-.75-1.63l-4.56-3.63Z"/>
</svg>