<?xml version="1.0" encoding="UTF-8"?>
<svg id="icons" xmlns="http://www.w3.org/2000/svg" viewBox="0 0 150 150">
  <defs>
    <style>
      .cls-1 {
        fill: #1d1d1b;
      }

      .cls-2 {
        fill: none;
        stroke: #1d1d1b;
        stroke-linecap: round;
        stroke-linejoin: round;
        stroke-width: 4px;
      }
    </style>
  </defs>
  <g>
    <path class="cls-1" d="m105.45,69.17l-8.14-12.46c-.59-.9-1.78-1.17-2.7-.62l-3.95,2.36c-.95.57-1.26,1.79-.69,2.74.57.95,1.79,1.26,2.74.69l2.3-1.38,2,3.06-2.38,1.42c-.95.57-1.26,1.79-.69,2.74.37.63,1.04.97,1.72.97.35,0,.7-.09,1.02-.28l2.52-1.5,2.83,4.33c-1.87,1.99-2.42,4.78-1.14,6.93.81,1.35,2.24,2.26,3.94,2.48.28.04.57.06.86.06,1.28,0,2.6-.37,3.77-1.07,3.12-1.87,4.36-5.56,2.77-8.24-1.3-2.18-4.1-3.02-6.78-2.24Zm3.35,4.3c.4.67-.07,1.97-1.38,2.75-.66.39-1.41.57-2.05.49-.28-.04-.78-.16-1.03-.57-.4-.67.07-1.97,1.38-2.75.6-.36,1.2-.51,1.72-.51.63,0,1.14.23,1.36.59Z"/>
    <path class="cls-1" d="m74.82,23c-28.67,0-52,23.33-52,52s23.33,52,52,52,52-23.33,52-52-23.33-52-52-52Zm0,100c-26.47,0-48-21.53-48-48s21.53-48,48-48,48,21.53,48,48-21.53,48-48,48Z"/>
    <path class="cls-1" d="m118.26,79.84c-.09-1.1-1.06-1.93-2.16-1.83-1.1.09-1.92,1.05-1.83,2.16,0,.02.12,2.32-1.23,3.85-.7.79-1.74,1.27-3.08,1.47-.16-.15-.31-.31-.49-.44-4.08-3.03-7.49-1.1-9.74.17-1.1.62-2.15,1.21-2.87,1.08-1.41-.26-3.14-1.12-4.88-2.42-1.03-.77-2.09-1.48-3.1-2.15-1.53-1.01-2.35-2.27-4.39-6.07-1-1.87-2.2-3.73-3.25-5.37-.89-1.39-2.08-3.23-2.4-4.06.56-1.22.91-2.4,1.09-3.53,2.77,5.32,6.65,12.09,15,13.97,1.08.24,2.15-.43,2.39-1.51.24-1.08-.43-2.15-1.51-2.39-7-1.58-10.07-7.53-12.78-12.78-.42-.82-.83-1.6-1.23-2.33.04-.16.07-.33.06-.51,0-.07-.13-7.37,2.66-11.39,1.37-1.97,3.02-2.91,4.89-2.83,3.32.17,7.11,3.51,10.14,8.95l5.79,10.41c.37.66,1.05,1.03,1.75,1.03.33,0,.66-.08.97-.25.97-.54,1.31-1.75.78-2.72l-5.79-10.41c-3.76-6.75-8.65-10.76-13.44-11-3.25-.15-6.23,1.45-8.37,4.54-1.96,2.82-2.78,6.62-3.13,9.52-1.33-1-2.81-1.74-4.39-2.2,1.48-1.22,2.45-3.22,2.45-5.49,0-3.71-2.59-6.72-5.78-6.72s-5.78,3.02-5.78,6.72c0,2.12.85,4.01,2.17,5.24-1.36.34-2.63.98-3.75,1.88-.33-3.04-1.24-6.83-3.61-9.39-1.78-1.93-4.09-2.9-6.85-2.9-6.46,0-10.28,9.46-13.08,16.37l-.39.97c-1.68,4.13-3.97,10.75-5.19,14.33-.39,1.14-.02,2.35.92,3.09.5.39,1.1.59,1.72.59.53,0,1.07-.15,1.56-.46l20.07-13.43c-.15.8-.28,1.64-.41,2.5-.51,3.37-1.04,6.08-2.19,7.96-1.08-.86-2.35-1.51-3.82-1.91-1.06-.3-2.17.33-2.46,1.4-.29,1.07.33,2.17,1.4,2.46.58.16,1.11.38,1.58.65-.8.25-1.73.39-2.83.39s-2,.9-2,2,.9,2,2,2c2.24,0,4.02-.44,5.48-1.16.16.46.3.95.38,1.49.14.9.15,1.83.06,2.78-2.97-.96-6.43-.9-9.64-.66-7.48.58-11.7,4.89-12,8.85-.2,2.56,1.21,5.68,5.76,6.75,3.81.9,7.01.09,9.13-.44.43-.11.95-.24,1.36-.31,0,.16,0,.38-.02.64-.57,9.2,3.25,13.91,6.56,16.24,2.89,2.03,6.34,2.89,9.45,2.89,2.05,0,3.95-.37,5.45-1.02,2.65-1.14,4.14-2.74,4.95-4.45.93,1,1.98,1.83,3.12,2.43,1.26.66,2.57.98,3.84.98,1.27,0,2.52-.32,3.68-.97,2.04-1.14,3.59-2.93,5.08-4.67,2.25-2.61,4.37-5.08,8.22-5.87,8.87-1.84,10.98-7.27,11.48-9.52.29-1.32.29-2.63.05-3.83,1.69-.46,3.08-1.29,4.16-2.51,2.47-2.8,2.25-6.42,2.22-6.83Zm-47.86-37.26c.84,0,1.78,1.12,1.78,2.72s-.94,2.72-1.78,2.72-1.78-1.12-1.78-2.72.94-2.72,1.78-2.72Zm-27.58,16.4l.4-.98c1.96-4.85,5.61-13.87,9.37-13.87,1.63,0,2.91.53,3.91,1.61,2.37,2.55,2.78,7.68,2.73,10.34l-20.35,13.63c1.21-3.48,2.74-7.78,3.95-10.74Zm-2.38,34.22c-1.06-.25-2.82-.91-2.69-2.55.15-1.89,2.83-4.75,8.32-5.17,2.9-.22,6.03-.29,8.38.57-.98,2.54-2.63,4.84-4.65,6.29-.68.08-1.4.26-2.13.44-1.95.49-4.38,1.1-7.25.42Zm29.43,18.22c-2.68,1.16-7.46,1.04-11.01-1.47-3.55-2.5-5.23-6.9-4.87-12.72.06-.92.04-1.98-.33-2.9,1.63-1.54,2.99-3.49,3.99-5.62.5.97.76,2.17.81,3.63.24,7.48,3.32,11.22,5.89,12.15,1.52.55,3.06.22,4.03-.87.73-.83.66-2.09-.16-2.82-.73-.65-1.81-.67-2.56-.08-.84-.32-3-2.62-3.2-8.51-.11-3.43-1.21-6.11-3.28-7.96-.02-.02-.04-.03-.06-.05.36-1.84.44-3.7.17-5.45-.2-1.29-.58-2.44-1.11-3.48,1.62-2.04,2.45-4.65,2.97-7.15.48.64.97,1.15,1.38,1.53-1.94,15.31,4.44,23.09,6.88,26.06.17.21.32.39.45.56,1.23,1.56,2.06,3.33,2.44,5.11.15,1.24.42,2.46.81,3.6.46,2.77.07,5.01-3.24,6.43Zm38.05-19.27c-.69,3.15-3.75,5.51-8.38,6.47-5.18,1.07-8.1,4.46-10.44,7.18-1.33,1.54-2.58,2.99-4,3.79-1.15.64-2.41.62-3.73-.07-1.62-.84-3.37-2.79-4.37-5.54-.14-.8-.32-1.51-.46-2.07-.1-.4-.19-.75-.25-1.05-.47-2.48-1.61-4.92-3.28-7.05-.14-.18-.31-.39-.5-.62-2.4-2.92-8.01-9.76-5.85-24.07.12-.77-.25-1.56-.9-1.98-.14-.09-3.2-2.17-3.03-7.12,1.17-3.55,3.56-5.74,6.35-5.74h.95s0,0,.01,0c1.39,0,2.76.31,4.01.9.75.86,3.58,4.6,1.02,9.72-.89,1.79.43,3.84,2.83,7.57,1.01,1.57,2.16,3.36,3.09,5.09,2.16,4.04,3.35,5.97,5.72,7.53.95.63,1.96,1.3,2.9,2,1.58,1.18,3.99,2.69,6.57,3.16,2.15.39,3.96-.63,5.55-1.53,2.3-1.29,3.48-1.85,5.39-.44.6.44,1.25,1.94.82,3.89Z"/>
  </g>
  <line class="cls-2" x1="43.64" y1="89.48" x2="46.44" y2="89.48"/>
</svg>