<?xml version="1.0" encoding="UTF-8"?>
<svg id="icons" xmlns="http://www.w3.org/2000/svg" viewBox="0 0 150 150">
  <defs>
    <style>
      .cls-1 {
        fill: #1d1d1b;
      }
    </style>
  </defs>
  <path class="cls-1" d="m106.92,54.6c-2.43,2.09-5.69,2.97-8.71,2.35-3.66-.75-6.91-2.18-9.49-4.16-.15-.12-.29-.24-.44-.36-.16-.13-.33-.26-.48-.39-.12-.11-.26-.19-.4-.27-.68-.49-1.38-.95-2.12-1.36,2.18-3.01,5.57-8.64,4.08-12.86-1.02-2.9-2.85-4.05-4.21-4.51-2.16-.73-4.45-.21-6.15.44-.28-.51-.65-.98-1.14-1.38-2.59-2.14-8.09-2.32-12.43,1.14-1.9,1.51-3.87,3.03-5.58,4.33-.13-.76-.39-1.49-.8-2.17-.57-.95-1.8-1.25-2.74-.68-.95.57-1.25,1.8-.68,2.74.43.71.44,1.6.03,2.33-.33.59-.62,1.15-.89,1.7-6.25,4.76-11.23,7.09-14.78,6.95-1.11-.05-2.04.81-2.08,1.92-.05,1.1.81,2.04,1.92,2.08.17,0,.33.01.5.01,3.36,0,7.21-1.38,11.8-4.24-.39,1.43-.47,2.85-.24,4.16-.36.31-.74.62-1.09.94-5.01,4.57-13.38,4.24-13.51,4.23-1.11-.05-2.04.79-2.1,1.9-.06,1.1.79,2.04,1.9,2.1.06,0,.32.01.74.01,2.44,0,10.31-.4,15.67-5.29.07-.06.14-.12.21-.18.07.08.13.16.2.24.28.28.58.52.9.75-6.7,10.5-18.61,9.16-19.13,9.09-1.1-.15-2.1.63-2.24,1.73-.14,1.1.63,2.1,1.72,2.24.03,0,.78.09,2.01.09,3.6,0,11.36-.77,17.51-6.7-.46,1.73-.73,3.53-.73,5.4,0,8.06,4.54,15.08,11.19,18.65l-.4,5.23c-7.75-3.01-13.02-10.02-14.23-19.02.26-2-1.37-2.39-1.56-2.42-.2-.04-1.92-.32-2.42,1.77,0,.02,0,.03-.01.05-4.19,18.31,6.44,33.04,19.15,36.71,3.54,1.02,6.67,1.22,8.55,1.22,1.09,0,1.75-.07,1.82-.07,15.94-1.7,27.12-15.45,26.57-32.69-.03-.98-.77-1.8-1.75-1.92-.97-.12-1.9.48-2.17,1.43-2.6,9.01-12.21,14.82-20.8,16.18v-4.17c10.35-1.37,18.37-10.23,18.37-20.95,0-3.18-.73-6.19-1.99-8.9,1.02.32,2.07.61,3.15.83.9.18,1.81.27,2.72.27,3.38,0,6.75-1.23,9.4-3.51.84-.72.93-1.98.21-2.82-.72-.84-1.98-.93-2.82-.21Zm-23.05-17.76c.28.1,1.13.39,1.72,2.05.8,2.26-1.7,6.8-4.08,9.91-1.19-.38-2.43-.64-3.7-.81,1.24-.83,2.3-2.06,2.96-3.63,0,0,0,0,0,0,1.05-2.51.79-5.2-.47-7.07,1.12-.45,2.52-.81,3.57-.45Zm-8.05,2.03c.18,0,.36.03.53.1,1.06.44,1.39,2.24.72,3.85-.67,1.61-2.19,2.64-3.25,2.2-1.06-.44-1.39-2.24-.72-3.85.57-1.36,1.73-2.3,2.72-2.3Zm-19.67,9.85l.09-.23c.59-1.6,1.11-2.99,1.76-4.4.57-.45,1.15-.91,1.74-1.39,2.02-1.52,5.2-3.94,8.18-6.31,2.49-1.98,5.55-2.14,6.99-1.43-2.26.38-4.41,2.11-5.48,4.67-.03.07-.05.14-.08.21l-7.99,5.44c-1.74,1.18-3.53,2.43-5.3,3.75.03-.1.06-.2.09-.3Zm7.45-.14l5.44-3.71c.38,1.35,1.15,2.52,2.25,3.28-4.37.8-8.28,2.93-11.27,5.97-1.32.39-2.47.19-3.26-.59,2.24-1.77,4.58-3.43,6.84-4.97Zm10.27,41.46v4.49c-1.38.04-3.2-.04-5.23-.47l.37-4.86c1.55.47,3.18.74,4.86.84Zm23.65-2.21c-2.86,10.5-11.13,18.11-21.92,19.26-.04,0-4.03.38-8.84-1.01-8.45-2.44-15.8-10.66-17.01-21.66,3.1,5.79,8.08,10.23,14.24,12.42.08.04.16.08.24.11.06.02.12.04.18.06l-.07.89-.83.23c-1.06.3-1.68,1.4-1.38,2.47.25.88,1.05,1.46,1.92,1.46.18,0,.36-.02.54-.08l2.17-.61c.81-.23,1.39-.94,1.45-1.77l.12-1.52c2.12.4,4.03.49,5.54.45v2.81c0,.95.67,1.77,1.61,1.96l2.74.55c.13.03.26.04.39.04.93,0,1.77-.66,1.96-1.61.22-1.08-.49-2.14-1.57-2.35l-1.13-.23v-1.58c8.68-1.16,15.35-5.34,19.65-10.29Zm-5.29-18.88c0,9.46-7.69,17.15-17.15,17.15s-17.15-7.69-17.15-17.15,7.69-17.15,17.15-17.15c4.03,0,7.73,1.4,10.66,3.74.14.12.28.23.43.35,3.71,3.15,6.07,7.84,6.07,13.07Z"/>
  <path class="cls-1" d="m75,23c-28.67,0-52,23.33-52,52,0,8.34,1.92,16.31,5.7,23.7,8.96,17.45,26.7,28.3,46.3,28.3,23.42,0,44.06-15.76,50.18-38.33,1.21-4.44,1.82-9.04,1.82-13.67,0-28.67-23.33-52-52-52Zm46.32,64.62c-5.65,20.83-24.7,35.38-46.32,35.38-18.09,0-34.47-10.01-42.74-26.12-3.49-6.82-5.26-14.18-5.26-21.88,0-26.47,21.53-48,48-48s48,21.53,48,48c0,4.27-.56,8.52-1.68,12.62Z"/>
  <path class="cls-1" d="m81.29,66.14l3.74-2.87c.88-.67,1.04-1.93.37-2.8-.67-.88-1.93-1.04-2.8-.37l-3.96,3.04c-.48-.29-1-.54-1.54-.71v-4.65c0-1.1-.9-2-2-2s-2,.9-2,2v4.65c-.66.2-1.29.51-1.85.89l-3.72-3.17c-.84-.71-2.1-.61-2.82.23s-.61,2.1.23,2.82l3.82,3.25c-.06.16-.12.32-.18.49h-4.42c-1.1,0-2,.9-2,2s.9,2,2,2h4.42c.15.48.35.94.6,1.37l-3.86,3.54c-.81.75-.87,2.01-.12,2.83.39.43.93.65,1.47.65.48,0,.97-.17,1.35-.53l4.08-3.74c.32.16.65.3.99.4v5.43c0,1.1.9,2,2,2s2-.9,2-2v-5.43c.52-.16,1.01-.39,1.47-.66l4.41,3.75c.38.32.84.48,1.29.48.57,0,1.13-.24,1.52-.71.72-.84.61-2.1-.23-2.82l-4.31-3.66c.14-.29.26-.58.35-.89h4.23c1.1,0,2-.9,2-2s-.9-2-2-2h-4.23c-.09-.28-.19-.54-.31-.81Zm-9,2.92s.01-.08.01-.12,0-.08-.01-.12c.06-1.5,1.29-2.7,2.8-2.7s2.81,1.26,2.81,2.81-1.26,2.81-2.81,2.81-2.74-1.2-2.8-2.7Z"/>
  <path class="cls-1" d="m108.11,63.97c-.14,1.1.64,2.09,1.74,2.23.85.1,1.34.8,1.56,1.2.5.91.57,2.07.17,2.89-.14.29-.29.58-.43.87-.83,1.65-2.16,4.3-1.21,6.58-.75.64-1.54,1.6-2.26,3.05-1.31,2.64-1.57,5.08-.76,7.23.6,1.6,1.77,2.96,3.43,4.02-.01.02-.03.04-.04.06-1.37,2-2.21,2.61-2.95,3.15-1.37,1-2.27,1.85-3.09,5.15-1.11,4.5-2.12,4.81-7.27,5.7-3.12.54-4.64,2.29-6.1,3.98-1.36,1.57-2.76,3.18-5.86,4.53-2.39,1.04-4.61.5-6.97-.07-1.6-.38-3.26-.78-4.99-.69-.96.05-2.01.25-3.11.45-4.33.8-7.57,1.11-9.8-2.11-2.15-3.09-5.26-4.21-8.01-5.2-1.93-.69-3.74-1.34-5.16-2.59-1.06-.93-1.09-1.64-1.15-3.06-.09-2.2-.22-5.22-4.68-8.83l-.27-.22c-1.85-1.45-5.69-4.46-.8-12.79.56-.95.24-2.18-.71-2.74-.95-.56-2.18-.24-2.74.71-4.43,7.53-3.83,13.57,1.78,17.96l.23.18c3.05,2.47,3.12,4.05,3.2,5.89.07,1.71.16,3.83,2.5,5.89,1.99,1.76,4.26,2.57,6.46,3.36,2.5.9,4.65,1.67,6.07,3.71,3.88,5.59,9.86,4.49,13.81,3.76.98-.18,1.9-.35,2.61-.39,1.15-.07,2.46.25,3.84.58,1.49.36,3.18.76,5.02.76,1.41,0,2.91-.24,4.47-.92,3.94-1.71,5.8-3.85,7.3-5.58,1.28-1.47,2.05-2.36,3.76-2.66,6.18-1.07,8.86-2.15,10.48-8.68.53-2.13.79-2.32,1.56-2.88.85-.62,2.14-1.56,3.9-4.12.57-.83,1.12-1.5,1.65-2.15,1.72-2.1,3.2-3.92,3.18-8.52,0-1.96-1.33-5.12-3.1-6.42-.3-.22-.64-.38-.98-.51-.02-.01-.03-.03-.05-.04-.86-.45-1.18-.62.41-3.76.16-.32.32-.63.47-.95.95-1.99.85-4.49-.27-6.54-1-1.83-2.67-3.01-4.58-3.25-1.1-.14-2.09.64-2.23,1.74Zm4.71,24.9c-.9-.52-1.78-1.25-2.16-2.25-.4-1.07-.2-2.43.6-4.04.85-1.71,1.6-2.07,1.71-2.08.62.46,1.47,2.32,1.47,3.22,0,2.67-.53,3.76-1.62,5.16Z"/>
</svg>