<?xml version="1.0" encoding="UTF-8"?>
<svg id="icons" xmlns="http://www.w3.org/2000/svg" viewBox="0 0 150 150">
  <defs>
    <style>
      .cls-1 {
        fill: #1d1d1b;
      }
    </style>
  </defs>
  <path class="cls-1" d="m75,23c-28.67,0-52,23.33-52,52s23.33,52,52,52,52-23.33,52-52-23.33-52-52-52Zm0,100c-26.47,0-48-21.53-48-48s21.53-48,48-48,48,21.53,48,48-21.53,48-48,48Z"/>
  <path class="cls-1" d="m75,31.91c-23.75,0-43.08,19.33-43.08,43.09,0,9.96,3.48,19.68,9.79,27.36,2.13,2.59,4.54,4.91,7.16,6.91,3.6,2.75,7.6,4.91,11.87,6.41,0,0,0,0,0,0,0,0,0,0,.01,0,2.56.9,5.21,1.56,7.93,1.96,2.05.3,4.17.46,6.31.46s4.26-.15,6.31-.46h0c2.68-.39,5.26-1.04,7.75-1.9.04-.01.08-.02.12-.03.04-.01.07-.04.11-.05,16.87-5.97,28.79-22.22,28.79-40.65,0-23.76-19.33-43.09-43.08-43.09Zm2.6,82.09c-1.73.11-3.48.11-5.2,0-.21-.01-.42-.03-.63-.05-.26-.02-.52-.06-.78-.09v-14.24h1.81v9.08c0,1.1.9,2,2,2s2-.9,2-2v-9.08h2.23v14.24c-.26.03-.52.06-.78.09-.21.02-.42.03-.63.05Zm-18.56-3.3c-.18-.08-.36-.17-.53-.25-.34-.16-.68-.32-1.02-.49-.2-.1-.39-.2-.59-.31-.31-.16-.62-.33-.93-.5-.2-.11-.41-.23-.61-.35-.29-.17-.58-.34-.87-.52-.21-.13-.41-.26-.61-.39-.28-.18-.56-.36-.83-.55-.2-.14-.4-.28-.6-.42-.27-.19-.54-.39-.81-.59-.2-.15-.39-.3-.59-.45-.26-.21-.52-.42-.78-.63-.19-.15-.38-.31-.56-.46-.26-.22-.52-.45-.77-.68-.18-.16-.35-.31-.53-.48-.26-.24-.51-.49-.77-.74-.16-.16-.32-.31-.48-.47-.28-.28-.54-.57-.81-.86-.13-.14-.26-.27-.39-.41-.05-.06-.1-.12-.15-.18.05-.68.51-1.89,1.45-3.2.02.26.08.51.2.74.31.59.9,1,1.56,1.07,0,0,.09.01.26.02.28.02.56.02.84.02,3.96,0,8.02-1.54,11.18-4.06v2.06c0,.69.35,1.3.88,1.66l-3.75,5.68c-.41.61-.44,1.4-.09,2.05.35.65,1.03,1.05,1.76,1.05h1.6l-1.3,3.2s-.05-.02-.07-.03c-.43-.17-.85-.35-1.27-.54Zm44.72-9.32c-.18.19-.35.39-.53.58-.21.22-.42.43-.63.64-.18.18-.37.37-.55.55-.22.21-.44.41-.66.62-.19.17-.38.35-.57.52-.23.2-.46.4-.7.6-.19.16-.39.33-.58.49-.24.2-.5.39-.74.58-.19.15-.39.3-.58.45-.27.2-.54.39-.81.58-.19.13-.37.27-.56.4-.32.22-.65.42-.97.63-.15.09-.29.19-.44.29-.48.3-.96.58-1.45.86-.11.06-.21.11-.32.17-.39.21-.78.42-1.18.63-.18.09-.37.18-.56.27-.32.16-.65.32-.98.46-.21.1-.43.18-.64.27-.2.09-.4.17-.61.26l-1.26-3.5h1.47c.71,0,1.36-.37,1.72-.98.36-.61.37-1.36.03-1.98l-3.3-6c.22-.32.36-.71.36-1.14v-1.18c2.69,2.06,5.87,3.17,9.24,3.17.28,0,.57,0,.86-.02.71,0,1.36-.37,1.72-.98.28-.47.34-1.02.2-1.54,1.82,1.51,3.13,3.07,3.42,3.86-.13.15-.26.29-.39.44Zm-22.74-5.75h-15.73v-3.15h19.02c.22,0,.41.18.41.4v2.75h-3.69Zm-7.1-48.25c.11.02.23.04.35.04.11,0,.22-.02.33-.03,0,0,.02,0,.03,0,.05,0,.11,0,.16,0,.03,0,.07,0,.1,0,.02,0,.04,0,.05,0,.19.03.48.06.86.09,6.03.51,14.04,2.52,14.04,14.01,0,2.92-1.32,7.08-2.49,10.42,0,0,0,.02,0,.03-.01.03-.03.06-.04.09-.43,1.26-.96,2.5-1.54,3.71l-.72-.97c-.08-.1-.16-.2-.26-.28-2.38-2.17-5.48-3.36-8.7-3.36h-2.36c-3.07,0-6.05,1.09-8.38,3.08-.07.06-.13.12-.19.19l-1.47,1.64-1.73-4.07c-1.08-3.1-1.83-7.46-1.83-10.62,0-4.57,1.22-8.07,3.63-10.41,3.02-2.94,7.35-3.53,10.18-3.56Zm2.54,41.1h-2.93v-8.28c.89-.29,1.86-.28,2.73.07l.2.08v8.14Zm4-7.04c.56-.17,1.04-.59,1.28-1.18.4-1.03-.11-2.19-1.14-2.59l-2.88-1.12c-1.88-.73-3.99-.73-5.87,0l-2.88,1.12c-1.03.4-1.54,1.56-1.14,2.59.29.74.96,1.2,1.7,1.26v6.97h-3.73c.08-2.65-.18-5.31-.77-7.95l3-3.35c1.6-1.32,3.61-2.05,5.69-2.05h2.36c2.17,0,4.25.78,5.88,2.2l2.2,2.94s.07.08.11.12c-.62,2.67-.89,5.37-.81,8.08h-3v-7.04Zm14.83-10.01c-.34,3.58-.89,6.57-1.38,9.22-.86,4.67-1.52,8.38-.21,11.77.01.04.03.08.04.12.02.04.02.08.04.12.02.04.03.07.05.1.01.02.02.05.03.07,0,0,0,0,0,0,.27.63.62,1.24,1.02,1.82l.34.62c-2.66-.69-5.08-2.39-6.91-4.92-.12-.17-.27-.3-.42-.42-.05-.16-.1-.32-.19-.47l-.14-.24s-.05-.08-.07-.13c-.17-2.95.13-5.92.92-8.85.17-.65.39-1.36.69-2.21.75-1.5,1.4-3.05,1.94-4.62,0-.02.03-.04.04-.07,1.36-3.88,2.76-8.32,2.76-11.86,0-7.5-3.06-16.7-17.58-17.99v-2.74c3.24.23,9.5,1.53,13.67,5.34,4.81,4.4,6.56,12.68,5.36,25.32Zm-23.02-27.98c-3.39.25-7.89,1.29-11.32,4.62-3.21,3.12-4.84,7.59-4.84,13.28,0,3.59.85,8.52,2.08,12.01,0,.02.02.03.03.05,0,.02.01.05.02.07l1.92,4.52c.27.73.51,1.52.77,2.46.75,2.86,1.03,5.75.86,8.61-1.84,3.08-5.33,5.45-9.03,6.25l.36-.65c3.16-4.44,2.55-9.25,1.64-16.51-.25-1.98-.53-4.23-.77-6.73-1.21-12.64.54-20.92,5.36-25.32,4.04-3.69,9.74-4.92,12.92-5.26v2.6Zm-6.03,69.65c-.23-.05-.46-.1-.68-.16-.36-.09-.71-.19-1.07-.29-.11-.03-.22-.06-.32-.09l2.34-5.75c.25-.62.18-1.32-.19-1.87-.37-.55-.99-.88-1.66-.88h-.86l2.93-4.44h.25v13.64c-.25-.05-.49-.11-.74-.16Zm16.78-13.48h1.25l2.25,4.1h-.93c-.65,0-1.26.32-1.64.85-.37.53-.47,1.21-.25,1.83l2.21,6.14c-.18.05-.36.1-.54.15-.31.09-.62.17-.93.25-.25.06-.5.12-.76.18-.22.05-.45.1-.67.15v-13.64Zm-47.1-24.62c0-21.56,17.53-39.09,39.08-39.09s39.08,17.54,39.08,39.09c0,.59-.01,1.18-.04,1.76,0,.2-.03.39-.04.59-.02.39-.05.77-.08,1.16-.02.23-.05.46-.08.69-.04.35-.07.69-.12,1.04-.03.24-.08.48-.11.73-.05.33-.1.65-.16.98-.05.25-.1.5-.15.75-.06.31-.13.62-.2.93-.06.25-.12.5-.19.75-.08.3-.15.6-.23.9-.07.25-.15.5-.22.75-.09.29-.17.59-.27.88-.08.25-.17.5-.25.75-.1.29-.2.57-.3.86-.09.25-.19.49-.29.74-.11.28-.22.56-.34.83-.1.24-.21.49-.32.73-.12.27-.25.55-.37.82-.11.24-.23.48-.35.71-.13.27-.27.53-.41.79-.12.24-.25.47-.38.7-.14.26-.29.51-.44.77-.13.23-.27.46-.41.69-.15.25-.31.5-.47.75-.14.22-.29.44-.44.66-.16.25-.33.49-.5.73-.04.06-.09.13-.13.19-2.08-2.88-6.07-5.9-9.56-7.3-.6-2.23-.11-4.99.62-8.97.5-2.72,1.06-5.8,1.42-9.56,1.34-13.97-.83-23.35-6.64-28.66-6.29-5.75-15.53-6.52-17.86-6.41,0,0,0,0,0,0-.13-.01-.25-.02-.37,0-2.74-.05-11.6.82-17.74,6.42-5.81,5.3-7.98,14.68-6.64,28.65.24,2.55.53,4.83.78,6.84.63,5.03,1.05,8.39.3,11.09-4.15,1.81-6.85,4.81-8.23,7.52-4.5-6.5-6.95-14.29-6.95-22.25Z"/>
  <path class="cls-1" d="m69.67,63.56s.02.03.03.04c.34.72,1.06,1.15,1.81,1.15.29,0,.58-.06.85-.19,1-.47,1.43-1.66.96-2.66-.88-1.88-3.1-2.94-5.11-3.25-.07-.01-.15-.02-.22-.03-.15-.02-.29-.04-.44-.05-2.55-.18-4.72.77-5.94,2.61-.61.92-.36,2.16.56,2.77.92.61,2.16.36,2.77-.56.06-.08.12-.15.19-.22.36.51.89.91,1.53,1.11.3.09.6.14.91.14.28,0,.56-.04.76-.1.52-.13.97-.4,1.33-.75Z"/>
  <path class="cls-1" d="m70.29,65.75c-1.1,0-2,.9-2,2s.9,2,2,2h1.67c.16,0,.33.06.42.15l.1.09c.42.37.93.61,1.47.72.17.05.34.08.52.08.04,0,.09,0,.13,0,0,0,.01,0,.02,0,0,0,.02,0,.03,0,.02,0,.04,0,.06,0,.03,0,.06,0,.1,0,.28,0,.56-.06.8-.17.35-.12.69-.3,1.02-.55l.23-.19c.11-.08.24-.12.36-.12h1.42c1.1,0,2-.9,2-2s-.9-2-2-2h-1.42c-.92,0-1.84.29-2.61.82-.78-.53-1.71-.82-2.64-.82h-1.67Z"/>
  <path class="cls-1" d="m61.52,57.33c.52.97,1.74,1.34,2.71.81,1.32-.71,4.97-.75,6.52.47.37.29.8.43,1.24.43.59,0,1.18-.26,1.57-.76.68-.87.54-2.12-.33-2.81-3.09-2.44-8.52-2.13-10.9-.85-.97.52-1.34,1.74-.81,2.71Z"/>
  <path class="cls-1" d="m76.95,64.56c.28.13.56.19.85.19.75,0,1.47-.42,1.81-1.15,0-.01.02-.02.02-.03.35.34.78.6,1.27.72.26.08.54.12.82.12.31,0,.61-.05.91-.14.64-.2,1.17-.6,1.53-1.11.07.07.13.14.19.22.61.92,1.85,1.17,2.77.56.92-.61,1.17-1.85.56-2.77-1.22-1.84-3.38-2.8-5.94-2.61-.14.01-.28.03-.42.05-.08.01-.16.01-.23.03-2.01.31-4.23,1.37-5.11,3.25-.47,1-.04,2.19.96,2.66Z"/>
  <path class="cls-1" d="m77.8,59.23c.44,0,.89-.15,1.26-.44,2.2-1.78,5.52-.87,6.04-.36.77.79,2.04.81,2.83.04s.81-2.04.04-2.83c-2.01-2.08-7.7-2.98-11.43.03-.86.69-.99,1.95-.3,2.81.4.49.97.74,1.56.74Z"/>
</svg>