<?xml version="1.0" encoding="UTF-8"?>
<svg id="icons" xmlns="http://www.w3.org/2000/svg" viewBox="0 0 150 150">
  <defs>
    <style>
      .cls-1 {
        fill: #1d1d1b;
      }
    </style>
  </defs>
  <path class="cls-1" d="m74.82,23c-28.67,0-52,23.33-52,52,0,8.34,1.92,16.31,5.7,23.7,8.96,17.45,26.7,28.3,46.3,28.3,23.42,0,44.06-15.76,50.18-38.33,1.21-4.44,1.82-9.04,1.82-13.67,0-28.67-23.33-52-52-52Zm31.22,64.02c-6.05.8-11.46,2.35-13.85,3.09v-8.74c.09,0,.18-.01.27-.02l1.79-.12c1.46-.1,2.76-.44,3.87-1.02,1.41-.74,2.56-1.84,3.42-3.21h21.21c-.13,3.08-.55,6.14-1.26,9.13-2.95,0-9.45.1-15.45.89Zm-74.76,8.18c-2.67-5.74-4.15-11.85-4.4-18.2h20.01c1.57,2.16,3.89,3.69,6.52,4.26.77.17,1.57.26,2.38.26h.63v6.45c-8.1-.51-14.43,2.38-21.12,5.44-1.31.6-2.66,1.2-4.02,1.79Zm23.25-31.64c.58-.1,1.09-.46,1.38-.97.29-.51.35-1.13.14-1.69-.24-.64-.29-1.33-.14-2.06.31-1.6,1.72-2.89,3.35-3.06.94-.1,1.8.1,2.58.59.57.36,1.28.41,1.89.14.61-.27,1.05-.84,1.16-1.5.48-2.98,3.04-5.14,6.08-5.14,1.01,0,1.97.25,2.82.68,1.86.96,3.19,2.84,3.34,5.05.04.57.31,1.08.74,1.42.14.11.3.21.48.28.7.29,1.5.17,2.07-.32.91-.77,2.16-1,3.33-.62,1.19.4,2.11,1.5,2.28,2.71.11.77-.02,1.52-.34,2.12l-.12.2c-.45.79-.31,1.79.34,2.43.66.64,1.66.75,2.44.27.06-.04.12-.07.26-.13,1.06-.54,2.22-.81,3.43-.79,2.06.03,3.94.95,5.29,2.58,1.52,1.83,2.15,4.24,1.75,6.6-.13.7-.31,1.3-.54,1.83-.5,1.12-1.26,1.95-2.27,2.48-.61.32-1.38.51-2.28.57l-1.79.12c-1.7.11-3.39.17-5.01.17h-31.4c-.52,0-1.03-.05-1.52-.16-1.92-.42-3.58-1.64-4.57-3.36-.62-1.06-.94-2.28-.94-3.51,0-3.41,2.43-6.33,5.77-6.93Zm5.89,17.96h4.92v26.68h-4.92v-26.68Zm8.92,0h9.93v11.28c-3.98.53-6.15-.34-9.24-1.6-.22-.09-.46-.18-.69-.28v-9.4Zm13.93,12.98s0,0,0,0v-12.98h4.92v26.68h-4.92v-13.7Zm-8.45-67.5c25.8,0,46.9,20.46,47.95,46h-19.75c.58-3.52-.37-7.08-2.62-9.79-2.11-2.55-5.07-3.98-8.31-4.03-.69,0-1.37.04-2.04.15,0-.27-.03-.54-.07-.81-.4-2.73-2.35-5.07-4.98-5.95-1.5-.5-3.07-.52-4.51-.09-1.45-3.88-5.2-6.62-9.53-6.62s-7.77,2.46-9.33,6.12c-.78-.19-1.59-.26-2.42-.2-.13,0-.25.01-.38.03-2.11.23-4,1.32-5.28,2.92-.77.96-1.31,2.1-1.56,3.35-.14.71-.19,1.41-.14,2.1-4.21,1.6-7.09,5.67-7.09,10.32,0,.85.12,1.69.31,2.51h-18.2c1.05-25.54,22.15-46,47.95-46Zm0,96c-17.37,0-33.16-9.23-41.71-24.24,1.31-.57,2.61-1.15,3.86-1.72,6.55-3,12.24-5.59,19.46-5.06v16.25c-1,.11-1.78.95-1.78,1.98,0,1.1.9,2,2,2h12.41c1.1,0,2-.9,2-2,0-1-.74-1.83-1.7-1.97v-13c2.35.94,4.6,1.72,7.69,1.72.7,0,1.44-.04,2.24-.13v11.4c-.98.13-1.74.96-1.74,1.97,0,1.1.9,2,2,2h12.41c1.1,0,2-.9,2-2,0-1.02-.76-1.85-1.74-1.97v-13.84l.25-.16c1.23-.41,7.36-2.35,14.12-3.24,5.06-.66,10.62-.82,13.81-.85-6.45,19.47-24.81,32.86-45.55,32.86Z"/>
  <path class="cls-1" d="m74.82,44.78c4.74,0,8.59-3.85,8.59-8.59s-3.85-8.59-8.59-8.59-8.59,3.85-8.59,8.59,3.85,8.59,8.59,8.59Zm0-13.19c2.53,0,4.59,2.06,4.59,4.59s-2.06,4.59-4.59,4.59-4.59-2.06-4.59-4.59,2.06-4.59,4.59-4.59Z"/>
</svg>