<?xml version="1.0" encoding="UTF-8"?>
<svg id="icons" xmlns="http://www.w3.org/2000/svg" viewBox="0 0 150 150">
  <defs>
    <style>
      .cls-1 {
        fill: #1d1d1b;
      }
    </style>
  </defs>
  <path class="cls-1" d="m75,23c-2.02,0-4.01.13-5.97.35-.07,0-.15.01-.22.03-5.88.7-11.47,2.38-16.58,4.88-.15.05-.3.13-.43.22-4.19,2.1-8.06,4.74-11.51,7.84-.11.07-.22.16-.32.25-.06.06-.11.12-.16.18-10.33,9.51-16.81,23.13-16.81,38.24,0,28.67,23.33,52,52,52s52-23.33,52-52-23.33-52-52-52Zm0,100c-26.47,0-48-21.53-48-48,0-1.01.04-2,.1-2.99l7.21,7.49c.39.41.92.61,1.44.61s1-.19,1.39-.56c.8-.77.82-2.03.05-2.83l-9.49-9.86c.59-3.43,1.54-6.74,2.82-9.88l7.48,7.77c.39.41.92.61,1.44.61s1-.19,1.39-.56c.8-.77.82-2.03.05-2.83l-8.57-8.9c2.34-4.54,5.38-8.67,8.99-12.23l3.28,3.41c.39.41.92.61,1.44.61s1-.19,1.39-.56c.8-.77.82-2.03.05-2.83l-3.2-3.33c2.54-2.12,5.3-3.98,8.24-5.55l6.21,6.45c.39.41.92.61,1.44.61s1-.19,1.39-.56c.8-.77.82-2.03.05-2.83l-5.3-5.5c3.83-1.62,7.91-2.75,12.17-3.33l18.86,19.6c.39.41.92.61,1.44.61s1-.19,1.39-.56c.8-.77.82-2.03.05-2.83l-16.6-17.25c.46-.01.92-.03,1.38-.03,26.47,0,48,21.53,48,48s-21.53,48-48,48Z"/>
  <path class="cls-1" d="m105.39,93.91s-1.48-.12-2.25-1.39c-.65-1.07-1.33-3.8,1.53-10.12.12-.27.18-.56.17-.85.56-1.53.93-3.11,1.08-4.72.51-5.49-1.6-10.5-5.79-13.77-.35-.32-1.51-1.31-3.37-2.2-5.03-2.39-11.04-1.74-15.73,1.7l-12.52,6.96c-.55.3-.92.85-1.01,1.47-.09.62.12,1.25.57,1.69l2.52,2.52-5.24,6.12c-1.06,1.23-1.56,2.8-1.43,4.42.13,1.62.88,3.09,2.12,4.13l.52.44-5.62,6.28c-.74.82-.67,2.09.16,2.82.82.74,2.09.67,2.82-.15l7-7.81c.36-.4.54-.93.51-1.47-.04-.54-.29-1.04-.7-1.39l-2.09-1.77c-.42-.36-.68-.85-.72-1.4-.04-.55.13-1.08.49-1.5l6.44-7.53c.68-.79.63-1.98-.1-2.71l-1.96-1.96,10.32-5.73c.08-.04.15-.09.23-.15,1.87-1.4,4.03-2.18,6.2-2.35,2.48.94,3.99,2.38,4.48,4.29.91,3.6-1.63,9.02-6.97,14.86-2.92,3.19-3.73,7.53-2.35,12.27-3.9,2.83-6.27,6.01-7.05,9.51-1.19,5.28,1.76,9.18,1.89,9.34.39.51.98.77,1.58.77.42,0,.85-.13,1.21-.41.88-.66,1.05-1.92.39-2.8-.08-.11-1.95-2.66-1.15-6.09.52-2.25,2.13-4.44,4.7-6.49,2.24,4.18,5.8,7.53,9.01,8.2.14.03.27.04.41.04.93,0,1.76-.65,1.96-1.6.22-1.08-.47-2.14-1.56-2.36-1.91-.39-4.74-3.09-6.48-6.53.59-.34,1.2-.68,1.84-1,2.74-1.4,5.14-3.05,7.17-4.9.07,1.53.45,2.87,1.14,4,1.52,2.48,4.16,3.24,5.48,3.3.03,0,.06,0,.09,0,1.06,0,1.95-.83,2-1.91.05-1.1-.8-2.04-1.91-2.09Zm-15.78-1.97c-.48.24-.93.49-1.38.74-.45-2.29-.33-5.05,1.75-7.33,6.46-7.05,9.19-13.46,7.9-18.54-.04-.18-.1-.36-.16-.54,3.06,2.41,4.6,6.12,4.22,10.2-.56,6.04-5.17,11.82-12.33,15.47Z"/>
  <path class="cls-1" d="m83.52,75.89c.39.4.91.6,1.42.6s1.01-.19,1.4-.58c.79-.78.8-2.04.02-2.83l-2.05-2.08c-.78-.79-2.04-.8-2.83-.02-.79.78-.8,2.04-.02,2.83l2.05,2.08Z"/>
  <path class="cls-1" d="m64.35,53.45c-.77-.79-2.04-.8-2.83-.02s-.8,2.04-.02,2.83l2.05,2.08c.39.4.91.6,1.42.6s1.01-.19,1.4-.58c.79-.78.8-2.04.02-2.83l-2.05-2.08Z"/>
  <path class="cls-1" d="m56.06,53.17l6.06-3.36c.08-.04.15-.09.23-.15,2.12-1.59,4.84-1.91,7.08-.84.87.41,1.38.88,1.41.91.79.76,2.05.74,2.82-.04.77-.79.76-2.06-.03-2.83-.1-.09-.97-.93-2.48-1.65-3.55-1.69-7.78-1.24-11.08,1.17l-8.26,4.59c-.55.3-.92.85-1.01,1.47-.09.62.12,1.25.57,1.69l1.23,1.23-3.06,3.58c-.82.96-1.21,2.17-1.11,3.42.09,1.17.61,2.24,1.46,3.04l-3.27,3.65c-.74.82-.67,2.09.16,2.82.38.34.86.51,1.33.51.55,0,1.1-.22,1.49-.67l4.64-5.18c.36-.4.54-.93.51-1.47-.04-.54-.29-1.04-.7-1.39l-1.39-1.17c-.19-.16-.23-.36-.24-.47,0-.11,0-.31.16-.5l4.27-4.99c.68-.79.63-1.98-.11-2.71l-.66-.67Z"/>
  <path class="cls-1" d="m103.32,50.42c.39.41.92.61,1.44.61s1-.19,1.39-.56c.8-.77.82-2.03.05-2.83l-9.78-10.17c-.77-.8-2.03-.82-2.83-.05-.8.77-.82,2.03-.05,2.83l9.78,10.17Z"/>
  <path class="cls-1" d="m40.89,85.62c-.77-.8-2.03-.82-2.83-.05-.8.77-.82,2.03-.05,2.83l9.78,10.17c.39.41.92.61,1.44.61s1-.19,1.39-.56c.8-.77.82-2.03.05-2.83l-9.78-10.17Z"/>
</svg>