<?xml version="1.0" encoding="UTF-8"?>
<svg id="icons" xmlns="http://www.w3.org/2000/svg" viewBox="0 0 150 150">
  <defs>
    <style>
      .cls-1 {
        fill: #1d1d1b;
      }
    </style>
  </defs>
  <path class="cls-1" d="m61.8,66.84c1.94,0,3.09-.78,3.74-1.48,1.11-1.21,1.27-2.77,1.04-3.81-.09-.41-.27-.8-.52-1.14,7.26,2.08,11.96,2.24,14.73.48,1.46-.92,2.34-2.32,2.62-4.16.35-2.27-1.02-4.59-3.41-5.78-2.48-1.23-5.18-.82-7.05,1.1-.92.94-1.24,2.16-.88,3.33.4,1.31,1.61,2.35,3.1,2.66.12.03.25.04.37.06-1.95-.03-4.94-.48-9.51-1.87-3.76-1.14-7.23-.53-9.29,1.63-1.41,1.48-1.89,3.5-1.26,5.26.71,2,2.66,3.33,5.33,3.66.35.04.68.06.99.06Zm17.01-9.98c.34-.4.5-.9.48-1.39.14.24.2.47.18.65-.13.85-.46,1.17-.8,1.38-.35.22-.92.44-1.87.54.78-.16,1.49-.57,2.02-1.19Zm-19.23,4.08c-.17.35-.22.73-.18,1.1-.07-.09-.13-.17-.16-.26-.12-.33.03-.78.39-1.16.08-.09.18-.17.28-.25-.13.18-.24.37-.34.57Z"/>
  <path class="cls-1" d="m109.88,50.18c-.41-1.03-1.57-1.52-2.6-1.11l-6.62,2.65c-1.03.41-1.52,1.57-1.11,2.6.31.78,1.06,1.26,1.86,1.26.25,0,.5-.05.74-.14l6.62-2.65c1.03-.41,1.52-1.57,1.11-2.6Z"/>
  <path class="cls-1" d="m40.49,62.76l6.81,1.47c.14.03.28.04.42.04.92,0,1.75-.64,1.95-1.58.23-1.08-.45-2.14-1.53-2.38l-6.81-1.47c-1.08-.23-2.14.46-2.38,1.53-.23,1.08.45,2.14,1.53,2.38Z"/>
  <path class="cls-1" d="m38.93,74.12l7.85.95c.08,0,.16.01.24.01,1,0,1.86-.75,1.98-1.76.13-1.1-.65-2.09-1.75-2.22l-7.85-.95c-1.1-.14-2.09.65-2.23,1.75s.65,2.09,1.75,2.22Z"/>
  <path class="cls-1" d="m104.49,65.75c.11,0,.22,0,.32-.03l6.78-1.1c1.09-.18,1.83-1.21,1.65-2.29-.18-1.09-1.21-1.84-2.3-1.65l-6.78,1.1c-1.09.18-1.83,1.21-1.65,2.29.16.98,1.01,1.68,1.97,1.68Z"/>
  <path class="cls-1" d="m113.86,70.6l-6.74.45c-1.1.07-1.94,1.03-1.86,2.13.07,1.06.95,1.87,1.99,1.87.04,0,.09,0,.14,0l6.74-.45c1.1-.07,1.94-1.03,1.86-2.13-.07-1.1-1.03-1.96-2.13-1.86Z"/>
  <path class="cls-1" d="m77.14,40.07c6.02.48,11.46,3.08,14.94,7.13.72.83,1.97.94,2.81.23l4.67-3.94c.84-.71.95-1.97.24-2.82-.71-.84-1.97-.95-2.82-.24l-3.22,2.72c-1.51-1.46-3.24-2.72-5.14-3.77l2.06-3.39c.57-.94.27-2.17-.67-2.75-.94-.58-2.17-.28-2.75.67l-2.32,3.81c-2.35-.86-4.87-1.43-7.48-1.64-.05,0-.1,0-.15,0v-4.16c0-1.1-.9-2-2-2s-2,.9-2,2v4.16c-3.4.23-6.72,1.06-9.84,2.43l-2.7-4.04c-.61-.92-1.86-1.16-2.77-.55-.92.61-1.16,1.86-.55,2.77l2.46,3.68c-2.63,1.61-5.05,3.63-7.16,6.03l-3.77-3.32c-.83-.73-2.09-.65-2.82.18s-.65,2.09.18,2.82l5.17,4.56c.38.34.85.5,1.32.5.34,0,.67-.09.97-.26.37-.12.71-.33.97-.66,5.55-7.03,13.91-10.83,22.38-10.15Z"/>
  <path class="cls-1" d="m63.13,80.36c.49.09.94.12,1.35.12,1.73,0,2.81-.67,3.45-1.3,1.17-1.16,1.39-2.71,1.21-3.77-.07-.4-.22-.79-.45-1.13,7.15,2.46,11.83,2.84,14.67,1.23,1.5-.85,2.44-2.2,2.79-4.03.44-2.26-.84-4.65-3.19-5.96-2.41-1.34-5.12-1.05-7.05.76-.96.89-1.33,2.09-1.03,3.28.34,1.34,1.51,2.45,2.99,2.82.12.03.23.05.35.08-1.95-.13-4.91-.75-9.39-2.37-3.69-1.33-7.18-.91-9.33,1.13-1.48,1.4-2.06,3.38-1.52,5.18.61,2.04,2.49,3.49,5.16,3.96Zm18.41-8.97c.35-.38.53-.85.54-1.33.13.25.18.48.15.66-.16.83-.5,1.13-.84,1.32-.37.21-.98.41-1.99.45.82-.11,1.57-.49,2.14-1.1Zm-19.3,2.74c.1-.09.21-.18.35-.27-.16.19-.3.39-.42.62-.18.33-.25.69-.23,1.04-.07-.09-.11-.18-.14-.27-.1-.35.06-.77.44-1.13Z"/>
  <path class="cls-1" d="m65.8,93.84c1.59,0,2.63-.6,3.26-1.18,1.21-1.11,1.51-2.64,1.38-3.7-.05-.42-.2-.82-.42-1.19,7.04,2.72,11.71,3.28,14.64,1.79,1.54-.79,2.54-2.1,2.99-3.91.55-2.22-.6-4.66-2.87-6.05-2.36-1.46-5.09-1.28-7.13.47-1,.86-1.43,2.04-1.18,3.24.28,1.34,1.4,2.49,2.84,2.93.12.04.25.07.37.09-1.94-.2-4.88-.91-9.32-2.7-3.64-1.47-7.16-1.17-9.4.81-1.54,1.35-2.2,3.32-1.72,5.13.53,2.05,2.35,3.54,4.98,4.11.58.12,1.1.18,1.58.18Zm17.25-8.47c.38-.37.58-.85.6-1.34.12.25.16.48.12.66-.17.68-.44,1.06-.93,1.31-.36.19-.95.36-1.89.38.79-.09,1.52-.44,2.1-1Zm-19.53,2.36c-.2.34-.29.72-.27,1.08-.07-.09-.11-.18-.13-.27-.09-.34.1-.77.49-1.12.09-.08.18-.15.29-.21-.14.16-.26.33-.37.52Z"/>
  <path class="cls-1" d="m67.09,107.44c1.49,0,2.49-.54,3.12-1.08,1.25-1.07,1.6-2.58,1.52-3.65-.04-.44-.17-.85-.4-1.23,6.95,2.92,11.6,3.62,14.59,2.22,1.57-.74,2.63-2.02,3.14-3.82.63-2.2-.42-4.66-2.62-6.13-2.31-1.54-5.06-1.45-7.17.24-1.03.83-1.5,2-1.29,3.21.23,1.34,1.3,2.52,2.72,3,.13.04.26.08.39.11-1.94-.24-4.86-1.04-9.26-2.96-3.6-1.57-7.13-1.37-9.45.56-1.58,1.31-2.3,3.26-1.88,5.09.47,2.05,2.23,3.58,4.83,4.22.64.16,1.22.22,1.75.22Zm17.39-7.97c.4-.37.62-.85.65-1.36.11.24.15.47.09.66-.2.68-.49,1.06-1,1.3-.36.17-.93.32-1.82.32.77-.08,1.49-.4,2.08-.93Zm-19.63,1.79c-.22.34-.32.73-.31,1.11-.06-.09-.1-.19-.12-.27-.08-.35.13-.77.54-1.12.07-.06.15-.12.24-.17-.12.14-.24.29-.34.45Z"/>
  <path class="cls-1" d="m88.22,108.72c-2.02-1.66-4.75-1.78-6.93-.32-1.08.72-1.64,1.82-1.53,3,.08.97.63,1.88,1.46,2.51-1.67-.44-3.94-1.29-7-2.83-3.29-1.66-6.65-1.61-9,.14-1.59,1.18-2.39,2.99-2.08,4.73.33,1.88,1.86,3.36,4.18,4.05.71.21,1.35.3,1.92.3,1.24,0,2.13-.42,2.72-.84,1.26-.91,1.75-2.29,1.78-3.28,0-.33-.04-.65-.14-.95,5.96,2.87,10.11,3.7,12.98,2.64,1.56-.58,2.7-1.7,3.37-3.33.82-1.97.12-4.31-1.72-5.82Z"/>
  <path class="cls-1" d="m79.09,43.73c-6.38-1.17-12.93,1.17-16.67,5.97-.68.87-.53,2.13.35,2.81.87.68,2.13.53,2.81-.35,2.8-3.58,7.94-5.38,12.8-4.49,2.89.53,8.06,2.48,10.27,9.62,4.11,13.27,5.75,51.22,5.76,51.6.04,1.08.93,1.92,2,1.92.03,0,.06,0,.09,0,1.1-.05,1.96-.98,1.91-2.08-.07-1.58-1.68-38.86-5.94-52.62-2.07-6.68-6.94-11.19-13.37-12.37Z"/>
  <path class="cls-1" d="m46.95,85.09s.06,0,.09,0c1.06,0,1.95-.84,2-1.91.05-1.1-.81-2.04-1.91-2.09l-7.38-.33c-1.1-.04-2.04.81-2.09,1.91-.05,1.1.81,2.04,1.91,2.09l7.38.33Z"/>
  <path class="cls-1" d="m50.43,92.57c-.14-1.1-1.14-1.88-2.23-1.73l-7.49.95c-1.1.14-1.87,1.14-1.73,2.23.13,1.01.99,1.75,1.98,1.75.08,0,.17,0,.25-.02l7.49-.95c1.1-.14,1.87-1.14,1.73-2.23Z"/>
  <path class="cls-1" d="m51.61,99.74l-5.73,3.31c-.96.55-1.29,1.77-.73,2.73.37.64,1.04,1,1.73,1,.34,0,.68-.09,1-.27l5.73-3.31c.96-.55,1.29-1.77.73-2.73-.55-.96-1.77-1.29-2.73-.73Z"/>
  <path class="cls-1" d="m113.12,81.13l-6.68-.42c-1.11-.08-2.05.77-2.12,1.87-.07,1.1.77,2.05,1.87,2.12l6.68.42s.09,0,.13,0c1.05,0,1.93-.81,1.99-1.87.07-1.1-.77-2.05-1.87-2.12Z"/>
  <path class="cls-1" d="m111.29,91.76l-6.1-1.83c-1.06-.32-2.17.28-2.49,1.34-.32,1.06.28,2.17,1.34,2.49l6.1,1.83c.19.06.39.09.58.09.86,0,1.65-.56,1.91-1.42.32-1.06-.28-2.17-1.34-2.49Z"/>
  <path class="cls-1" d="m74.82,23.11c-28.61,0-51.89,23.28-51.89,51.89s23.28,51.89,51.89,51.89,51.89-23.28,51.89-51.89-23.28-51.89-51.89-51.89Zm0,99.78c-26.41,0-47.89-21.48-47.89-47.89s21.48-47.89,47.89-47.89,47.89,21.48,47.89,47.89-21.48,47.89-47.89,47.89Z"/>
</svg>