<?xml version="1.0" encoding="UTF-8"?>
<svg id="icons" xmlns="http://www.w3.org/2000/svg" viewBox="0 0 150 150">
  <defs>
    <style>
      .cls-1 {
        fill: #1d1d1b;
      }
    </style>
  </defs>
  <path class="cls-1" d="m75,22.72c-28.67,0-52,23.33-52,52s23.33,52,52,52,52-23.33,52-52-23.33-52-52-52Zm0,99.99c-26.47,0-48-21.53-48-48s21.53-48,48-48,48,21.53,48,48-21.53,48-48,48Z"/>
  <path class="cls-1" d="m53.4,51.81c2.84-.64,3.91-2.7,3.71-4.45-.2-1.8-1.65-3.16-3.37-3.16-1.1,0-2,.9-2,2,0,.7.36,1.32.91,1.68-.04.01-.09.02-.13.03-1.54.35-2.66-.58-3.08-1.65-.53-1.34-.17-3.33,2.45-4.87,2.54-1.49,7.21-.88,11.35,1.5,4.03,2.31,6.6,5.61,7.1,9.03-1.49-.95-3.58-1.52-5.97-1.52-4.74,0-8.32,2.25-8.32,5.23s3.58,5.23,8.32,5.23c2.98,0,5.49-.89,6.96-2.29,1.46,1.4,3.98,2.29,6.96,2.29,4.74,0,8.32-2.25,8.32-5.23s-3.58-5.23-8.32-5.23c-1.28,0-2.47.17-3.53.47,1.08-4.07,4.88-7.33,8.22-9.05,3.93-2.02,7.81-2.38,9.87-.91,2.39,1.71,1.92,3.55,1.61,4.26-.45,1.04-1.55,1.96-2.78,1.69-.11-.02-.21-.05-.29-.08.51-.36.83-.96.83-1.63,0-1.1-.9-2-2-2-1.67,0-3.07,1.32-3.25,3.07-.19,1.82.94,3.93,3.88,4.54,2.92.61,5.98-1.07,7.26-4,1.08-2.47.96-6.33-2.95-9.12-3.32-2.37-8.7-2.14-14.03.61-3.13,1.61-6.59,4.39-8.71,7.97-1.58-2.64-4.04-5-7.2-6.81-5.5-3.15-11.54-3.73-15.37-1.47-4.49,2.64-5.31,6.82-4.14,9.79,1.25,3.15,4.41,4.82,7.68,4.08Zm10.97,5.04c-2.43,0-3.93-.81-4.27-1.23.34-.42,1.84-1.23,4.27-1.23s3.93.81,4.27,1.23c-.34.42-1.84,1.23-4.27,1.23Zm18.18-1.23c-.34.42-1.84,1.23-4.27,1.23s-3.93-.81-4.27-1.23c.34-.42,1.84-1.23,4.27-1.23s3.93.81,4.27,1.23Z"/>
  <path class="cls-1" d="m104.96,88.04c-4.43-3-11.85-2.63-20.61,5.78-.19-1.92-.9-3.67-2.12-4.99-2.04-2.21-5.08-2.85-8.13-1.71-3.38,1.26-4.66,4.87-3.91,7.5.59,2.08,2.65,3.88,5.9,3.23,1.08-.22,1.78-1.27,1.56-2.36-.22-1.08-1.27-1.78-2.36-1.56-1.08.22-1.2-.19-1.26-.41-.23-.8.22-2.19,1.46-2.65,1.52-.57,2.87-.33,3.79.67,1.1,1.19,1.81,3.79.21,7.21-1.6,3.41-4.69,6.05-8.72,7.42-4.52,1.54-9.69,1.29-13.5-.67-5.26-2.7-8.78-6.45-10.17-10.83-1.19-3.74-.87-7.85.9-11.98.95.28,1.88.42,2.78.42,2.36,0,4.46-.95,5.95-2.79,2.06-2.54,2.39-6.17.78-8.63-1.58-2.42-4.97-3.41-7.4-2.17-1.48.75-2.83,2.62-1.77,5.42.39,1.03,1.55,1.56,2.58,1.16,1.03-.39,1.55-1.55,1.16-2.58-.08-.21-.11-.37-.12-.45.13-.05.42-.1.8-.03.59.1,1.11.42,1.39.85.65.99.41,2.75-.54,3.92-1.13,1.39-2.96,1.69-5.16.83-2.02-.79-3.33-2.9-3.32-5.39,0-2.92,1.74-5.34,4.66-6.46,4.85-1.88,9.52,2.24,14.03,6.21,2.56,2.25,4.97,4.38,7.4,5.32,2.31.89,4.9.75,7.5-.42,3.41-1.53,6.52-4.78,7.75-8.07,1.55-4.18,4.1-6.73,7.36-7.37,2.9-.57,6.08.48,8.11,2.67,3.19,3.46,2.25,7.45-.1,9.87-1.77,1.83-4.81,3.11-7.58.72-2.02-1.75-1.63-4.41-.71-5.73.8-1.15,1.81-1.4,3.02-.73.59.32.77.61.77.69,0,.07-.06.17-.13.25-.8-.25-1.71.03-2.22.75-.64.9-.43,2.15.46,2.79.96.69,2.24.75,3.41.16,1.45-.73,2.45-2.29,2.47-3.87.02-1-.33-2.88-2.84-4.27-2.97-1.63-6.27-.85-8.22,1.96-2.1,3.02-2.16,7.98,1.38,11.04,3.89,3.36,9.26,2.97,13.07-.96,3.65-3.77,4.88-10.26.16-15.37-2.95-3.2-7.59-4.72-11.82-3.88-4.63.91-8.3,4.43-10.33,9.9-.86,2.32-3.18,4.71-5.64,5.82-1.11.5-2.78.97-4.41.33-1.77-.68-3.92-2.58-6.21-4.59-4.9-4.32-11.01-9.69-18.12-6.94-4.45,1.72-7.21,5.62-7.22,10.19,0,3.05,1.25,5.79,3.33,7.58-2.24,5.09-2.67,10.38-1.18,15.07,1.73,5.42,5.93,9.98,12.16,13.18,2.74,1.41,5.94,2.12,9.22,2.12,2.47,0,4.99-.41,7.4-1.23,4.23-1.45,7.65-4.05,9.87-7.44.02-.02.04-.03.05-.05,9.44-12.17,17.06-13.59,20.72-11.12,1.95,1.32,2.69,3.69,1.69,5.4-.89,1.51-2.31,1.55-2.89,1.5-.92-.08-1.45-.52-1.51-.65,0,0,.04-.22.46-.6.81-.75.87-2.01.12-2.83-.75-.81-2.01-.86-2.83-.12-1.52,1.4-2.09,3.14-1.55,4.76.6,1.82,2.5,3.15,4.85,3.4,2.77.29,5.38-1.03,6.8-3.45,2.06-3.52.79-8.24-2.9-10.73Z"/>
  <path class="cls-1" d="m76,64.32c-.31.23-3.08,2.15-5.86.15-.9-.64-2.15-.44-2.79.46-.65.9-.44,2.15.46,2.79,1.67,1.2,3.4,1.63,4.98,1.63,2.42,0,4.52-1,5.62-1.85.87-.67,1.04-1.91.38-2.79-.66-.88-1.91-1.06-2.79-.4Z"/>
</svg>