<?xml version="1.0" encoding="UTF-8"?>
<svg id="icons" xmlns="http://www.w3.org/2000/svg" viewBox="0 0 150 150">
  <defs>
    <style>
      .cls-1 {
        fill: #1d1d1b;
      }
    </style>
  </defs>
  <path class="cls-1" d="m117.28,64.74c-1.15-4.56-3.81-8.46-7.11-10.42-2.18-1.29-4.48-1.68-6.65-1.13-2.62.66-4.76,2.63-6,5.49-.04.08-.09.16-.12.21-.31.49-.79.84-1.36.97-.56.13-1.15.03-1.64-.29-1.13-.71-1.17-2.1-.62-3.11.44-.8,1.38-1.2,2.87-1.77,2.29-.89,5.76-2.23,6.15-7.17.57-7.15-6.33-13.38-16.39-14.8-4.64-.65-8.61,1.05-10.6,4.55-.55.98-.9,2.02-1.05,3.05-.11-.39-.25-.78-.43-1.15-2.47-5.35-10.22-6.86-17.64-3.43-3.37,1.55-6.39,4.17-8.28,7.18-2.07,3.29-2.55,6.7-1.32,9.35.97,2.09,3.12,2.74,4.85,3.27.37.11.74.23,1.19.38l.69.21.06.02c1.01.52,1.47,1.74,1.04,2.79-.46,1.1-1.73,1.63-2.83,1.18h-.02c-.29-.13-.54-.4-.69-.75-1.12-2.57-3.41-4.2-6.3-4.47-5.87-.55-11.4,4.8-12.82,12.45-.68,3.69-.34,7.38.96,10.36,1.42,3.26,3.81,5.35,6.72,5.88,2.32.43,4.68-.18,6.83-1.74.73-.53,1.43-1.17,2.08-1.9.45-.51,1.01-.53,1.3-.5.52.05.97.34,1.24.79.54.92.45,2.07-.21,2.75-.47.49-1.11.73-1.78.67-.04-.01-.08-.02-.12-.03l-.19-.05c-.12-.03-.25-.06-.38-.09l-1.07-.24-.05.05c-2.65-.33-5.06.29-6.88,1.8-1.73,1.44-2.77,3.53-3,6.05-.35,3.82,1.24,8.27,4.25,11.88,3.01,3.62,7.09,5.99,10.91,6.33,2.52.23,4.77-.41,6.49-1.85,2.08-1.72,3.16-4.43,3.05-7.54v-.12c.03-.17.04-.35.04-.52,0-.85.25-1.48.71-1.83.4-.3.94-.38,1.5-.21,1.41.41,1.33,1.79,1.23,2.38-.05.22-.42.76-.94,1.26l-.42.14-.15.32s-.04.03-.06.05c-2.39,1.88-3.72,4.35-3.76,6.96-.08,5.89,6.27,10.59,14.44,10.7.11,0,.22,0,.33,0,3.69,0,7.23-.85,10.01-2.41,3.31-1.85,5.16-4.51,5.2-7.48.03-2.71-2.22-5.38-3.56-6.73l-.27-.25-.09-.04c-.06-.05-.12-.11-.16-.15l-.14-.16c-.68-.9-.57-2.2.27-2.96.9-.8,2.27-.73,3.07.16v.02c.22.24.33.59.32.97,0,.13-.02.29-.04.47-.15,1.5-.49,5.01,2.77,6.96,5.02,3,13.24.08,17.96-6.39,2.21-3.04,3.49-6.51,3.6-9.77.12-3.55-1.13-6.47-3.52-8.2-1.91-1.39-4.3-1.86-6.91-1.37-.89.16-1.8.44-2.7.82-.62.26-1.14.05-1.39-.1-.45-.27-.73-.72-.78-1.24-.08-.99.38-1.92,1.15-2.29.69-.34,1.47-.31,2.12.07.04.03.08.07.11.1l.14.11c.09.08.19.16.3.24l.88.69.07-.02c2.25,1.44,4.69,1.91,6.97,1.33,2.18-.55,4.02-1.99,5.31-4.16,1.97-3.3,2.45-7.99,1.29-12.55Zm-43.67-16.97l.29-.29v-.35s.02-.05.03-.07c.57-1.15.92-2.32,1.06-3.46.23.72.58,1.4,1.05,1.98.81,1,1.19,2.16,1.06,3.19-.08.62-.35,1.14-.77,1.44-.49.36-1.01.3-1.35.18-.65-.22-1.17-.78-1.36-1.47-.11-.39-.11-.78,0-1.16Zm38.94,27.47c-.52.87-1.43,1.97-2.86,2.33-1.24.31-2.65-.02-4-.93l-.08-.21-.59-.28c-.05-.04-.1-.08-.13-.11l-.31-.3-.2-.1c-1.83-1.15-4.09-1.27-6.05-.31-2.25,1.1-3.61,3.6-3.38,6.22.15,1.79,1.16,3.41,2.7,4.33,1.54.93,3.37,1.06,5.02.36.62-.27,1.24-.46,1.86-.57,1.05-.2,2.58-.25,3.84.67,1.29.93,1.95,2.65,1.88,4.83-.08,2.47-1.09,5.15-2.83,7.55-3.68,5.06-9.84,7.01-12.67,5.31-.93-.55-1.01-1.45-.84-3.13.03-.28.05-.52.06-.72.05-1.41-.41-2.74-1.25-3.69l-.07-.08c-2.26-2.54-6.18-2.77-8.73-.49-2.52,2.26-2.74,6.16-.51,8.71l.28.31.04.02c.18.17.36.32.52.45,1.58,1.63,2.28,3.05,2.28,3.74-.03,1.99-1.98,3.38-3.15,4.03-2.23,1.25-5.28,1.96-8.34,1.9-5.73-.08-10.54-3.12-10.49-6.65.02-1.77,1.22-3.08,2.29-3.92.01-.01.03-.02.04-.03l.64-.44.06-.13c.68-.64,1.92-1.98,2.23-3.49.38-1.9.03-5.81-4.03-7-1.77-.52-3.6-.21-5.02.85-1.49,1.12-2.31,2.91-2.31,5.02v.12c-.03.16-.04.32-.04.47v.07s0,.05,0,.05c.05,1.36-.19,3.23-1.61,4.4-1.13.94-2.57,1.03-3.57.94-2.79-.25-5.85-2.09-8.2-4.91-2.35-2.82-3.59-6.17-3.34-8.95.09-1,.44-2.4,1.57-3.34.98-.82,2.38-1.12,3.99-.89l.14.15h.68c.07.02.13.04.18.05l.41.14h.22c1.91.22,3.83-.47,5.16-1.85,1.92-1.97,2.25-5.08.8-7.56-.91-1.55-2.51-2.58-4.3-2.75-1.79-.17-3.5.5-4.68,1.84-.45.51-.93.95-1.43,1.31-.87.64-2.22,1.33-3.75,1.05-1.56-.29-2.9-1.55-3.78-3.55-.99-2.27-1.23-5.12-.7-8.04,1.03-5.51,4.76-9.54,8.51-9.19,1.8.17,2.63,1.23,3,2.08.55,1.27,1.52,2.27,2.73,2.8l.08.03c3.14,1.32,6.77-.17,8.09-3.32,1.06-2.55.27-5.43-1.75-7.13l.1-.42-3.68-1.24-.02.05c-.05-.02-.11-.03-.16-.05-1.01-.31-2.16-.66-2.38-1.12-.64-1.38-.23-3.45,1.08-5.55,1.49-2.37,3.88-4.44,6.56-5.67,5.21-2.4,10.85-1.73,12.33,1.48.74,1.61.22,3.31-.38,4.53,0,.02-.02.03-.02.05l-.39.67v.16c-.44,1.22-.49,2.52-.13,3.78.55,1.95,2.01,3.51,3.91,4.16,1.74.6,3.56.33,5.02-.74,1.31-.96,2.15-2.43,2.37-4.15.27-2.11-.42-4.38-1.91-6.22-.7-.87-.65-2.48.12-3.84.55-.97,2.3-3.17,6.56-2.57,7.78,1.1,13.35,5.62,12.96,10.53-.19,2.34-1.24,2.84-3.61,3.75-1.68.65-3.77,1.46-4.93,3.58-1.66,3.04-.8,6.66,1.99,8.41,1.39.88,3.05,1.17,4.66.81,1.61-.37,2.99-1.34,3.89-2.78.1-.17.2-.34.29-.53l.04-.1c.54-1.25,1.56-2.83,3.35-3.28,1.42-.36,2.76.17,3.63.69,2.41,1.43,4.38,4.41,5.28,7.96.9,3.55.59,7.11-.85,9.52Z"/>
  <path class="cls-1" d="m75,23c-28.67,0-52,23.33-52,52s23.33,52,52,52,52-23.33,52-52-23.33-52-52-52Zm0,100c-26.47,0-48-21.53-48-48s21.53-48,48-48,48,21.53,48,48-21.53,48-48,48Z"/>
  <path class="cls-1" d="m102.75,66.03l-24.17,6.02,10.75-23.02c.47-1,.04-2.19-.97-2.66-1-.47-2.19-.03-2.66.97l-10.8,23.12-10.71-20.89c-.5-.98-1.71-1.37-2.69-.87-.98.5-1.37,1.71-.87,2.69l10.65,20.77-23.03-4.95c-1.08-.23-2.14.45-2.38,1.53-.23,1.08.45,2.14,1.53,2.38l23.2,4.99-18.99,16.22c-.84.72-.94,1.98-.22,2.82.4.46.96.7,1.52.7.46,0,.92-.16,1.3-.48l18.9-16.15.8,24.53c.04,1.08.92,1.93,2,1.93.02,0,.04,0,.07,0,1.1-.04,1.97-.96,1.93-2.06l-.8-24.36,20.27,16.15c.37.29.81.44,1.24.44.59,0,1.17-.26,1.57-.75.69-.86.55-2.12-.32-2.81l-20.49-16.32,24.3-6.05c1.07-.27,1.72-1.35,1.46-2.42-.27-1.07-1.35-1.72-2.42-1.46Z"/>
</svg>