<?xml version="1.0" encoding="UTF-8"?>
<svg id="icons" xmlns="http://www.w3.org/2000/svg" viewBox="0 0 150 150">
  <defs>
    <style>
      .cls-1 {
        fill: #1d1d1b;
      }
    </style>
  </defs>
  <path class="cls-1" d="m113.52,40.87c-.12-.17-.26-.32-.41-.44-6.85-7.39-15.81-12.78-25.92-15.22,0,0-.02,0-.03-.01-.15-.05-.3-.08-.45-.1-3.77-.87-7.68-1.35-11.71-1.35-.37,0-.73.02-1.1.03-.04,0-.07-.01-.11-.01h-.03c-.07,0-.14.01-.21.02-5.11.14-10.03,1.01-14.67,2.53-.15.03-.31.08-.45.15,0,0-.02.01-.03.02-4.7,1.59-9.1,3.82-13.09,6.61-.19.09-.38.21-.54.37,0,0,0,.01-.02.02-4.56,3.27-8.57,7.25-11.86,11.79-.14.15-.26.31-.36.5-3.06,4.32-5.48,9.12-7.12,14.27-.03.07-.05.14-.07.2-.01.03-.02.07-.03.1,0,.04-.02.07-.03.11-1.49,4.83-2.3,9.97-2.3,15.28,0,28.67,23.33,52,52,52s52-23.33,52-52c0-13.41-5.11-25.66-13.48-34.89Zm-20.02,18c-.22-1.46-.58-2.89-1.09-4.27l18.99-10.06c3.62,4.21,6.52,9.05,8.51,14.34h-26.42Zm-25.47-16.88l-5.93-12.46c3.1-.86,6.32-1.43,9.63-1.65l-.17,13.39c-1.22.13-2.4.37-3.54.72Zm-37.96,16.87c1.31-3.48,3.01-6.77,5.06-9.81l20.09,6.63c-.25,1.03-.4,2.1-.47,3.19h-24.68Zm30.47-12.46l-11.19-11.19c2.79-1.77,5.77-3.27,8.91-4.44l6.09,12.81c-1.39.78-2.67,1.73-3.81,2.83Zm15.2-18.63c2.76.04,5.46.32,8.09.81l-4.75,13.37c-1.14-.33-2.31-.54-3.51-.67l.17-13.51Zm12.01,1.72c3.56.98,6.96,2.36,10.14,4.09l-11.95,11.95c-.99-.8-2.05-1.48-3.16-2.07l4.97-13.97Zm13.66,6.22c2.57,1.7,4.97,3.64,7.16,5.79l-17.9,9.48c-.54-.9-1.13-1.77-1.81-2.59-.02-.02-.04-.04-.06-.07l12.62-12.62Zm-55.41,1.81l11.93,11.93c-.52.77-.97,1.6-1.38,2.44l-18.92-6.24c2.45-3.04,5.26-5.77,8.37-8.14Zm28.98,86.23c-26.47,0-48-21.53-48-48,0-4.47.63-8.79,1.77-12.89h26.11c.68,5.58,3.11,9.52,3.23,9.71.38.6,1.03.93,1.69.93.36,0,.73-.1,1.06-.3.94-.58,1.22-1.82.64-2.75-.03-.04-2.8-4.58-2.8-10.43,0-8.19,6.66-14.85,14.85-14.85.34,0,.69.01,1.03.03,4.36.28,8.34,2.33,11.21,5.76,2.99,3.59,4.4,8.31,3.85,12.96l-.39,3.31c-.13,1.1.66,2.09,1.75,2.22,1.1.14,2.09-.66,2.22-1.75l.39-3.31c.06-.51.08-1.01.1-1.52h27.51c1.14,4.11,1.77,8.43,1.77,12.89,0,26.47-21.53,48-48,48Z"/>
  <path class="cls-1" d="m88.86,90.89c2.64-.98,4.31-3.34,5.3-5.33.98-1.35,1.58-3.24,1.58-5.36,0-4.2-2.34-7.49-5.33-7.49s-5.33,3.29-5.33,7.49c0,2.97,1.17,5.47,2.91,6.69-.17.1-.33.18-.51.25-1.24.46-2.78.06-4.56-1.19-1.86-1.3-4.02-5.88,2.37-21.89,1.06-2.67,1-4.88-.21-6.58-2.33-3.29-7.99-3.36-14.08-3.12-5.22.2-7.1,3.03-7.75,4.7-1.18,3.01-.26,6.86,2.23,9.35,3,3,3.6,7,1.61,10.68-.48.89-1.41,1.96-2.49,3.19-4.18,4.79-10.5,12.02-4.04,24.76.35.7,1.06,1.1,1.79,1.1.3,0,.61-.07.9-.22.99-.5,1.38-1.7.88-2.69-5.24-10.33-.4-15.87,3.49-20.32,1.18-1.35,2.3-2.63,2.99-3.91,2.85-5.25,1.97-11.15-2.29-15.42-1.34-1.34-1.92-3.56-1.34-5.07.66-1.68,2.64-2.11,4.18-2.17,2.81-.11,9.39-.36,10.66,1.43.46.65.12,1.88-.24,2.79-5.73,14.36-6.04,23.08-.95,26.64,2.93,2.05,5.7,2.61,8.25,1.67Zm1.54-14.18c.33,0,1.33,1.24,1.33,3.49,0,.27-.02.51-.04.75-.1.16-.19.34-.24.54-.11.44-.37,1.19-.76,2.02-.12.11-.22.18-.3.18-.33,0-1.33-1.24-1.33-3.49s1-3.49,1.33-3.49Z"/>
  <path class="cls-1" d="m100.57,68.55c-.92-.61-2.16-.36-2.77.56-.61.92-.36,2.16.56,2.77,1.86,1.24,3.2,3.55,3.67,6.35.42,2.46.49,7.41-3.68,12.91-2.01,2.66-7.5,8.5-14.99,5.38-1.02-.42-2.19.06-2.61,1.08-.42,1.02.06,2.19,1.08,2.62,1.92.8,3.88,1.19,5.81,1.19,5.09,0,10.03-2.72,13.91-7.85,3.76-4.97,5.34-10.65,4.43-16-.66-3.88-2.63-7.17-5.4-9.02Z"/>
  <path class="cls-1" d="m44.26,88.68c3.12-.18,6.03-1.19,8.18-2.82.53-.4.82-1.04.79-1.71s-.4-1.27-.98-1.61c-2.32-1.38-5.33-2.04-8.46-1.85-3.14.18-6.05,1.19-8.2,2.83-.53.4-.82,1.04-.78,1.71.04.66.41,1.26.98,1.6,2.07,1.22,4.67,1.87,7.43,1.87.34,0,.69,0,1.04-.03Z"/>
  <path class="cls-1" d="m44.45,77.6h0c.76.1,1.51.15,2.26.15,2.3,0,4.48-.47,6.31-1.38.6-.29,1.01-.87,1.09-1.53.09-.66-.16-1.32-.65-1.76-2.02-1.79-4.85-3-7.96-3.41-3.12-.41-6.17.03-8.58,1.24-.59.3-1,.87-1.09,1.53-.09.66.16,1.32.66,1.76,2.03,1.79,4.86,3,7.96,3.41Z"/>
  <path class="cls-1" d="m53.5,92.02c-2.62-.67-5.68-.46-8.64.6-2.96,1.06-5.48,2.84-7.07,5.02-.39.54-.49,1.23-.27,1.86s.75,1.1,1.39,1.26c1,.25,2.06.38,3.15.38,1.78,0,3.66-.33,5.49-.99,2.95-1.05,5.46-2.83,7.06-5.01.4-.54.5-1.23.28-1.86-.22-.63-.74-1.1-1.39-1.27Z"/>
</svg>