<?xml version="1.0" encoding="UTF-8"?>
<svg id="icons" xmlns="http://www.w3.org/2000/svg" viewBox="0 0 150 150">
  <defs>
    <style>
      .cls-1 {
        fill: #1d1d1b;
      }
    </style>
  </defs>
  <path class="cls-1" d="m124.95,60.52s0,0,0,0c-.45-1.54-.92-2.95-1.46-4.31-.49-1.26-1.04-2.48-1.62-3.69-.06-.16-.13-.31-.22-.44-2.29-4.64-5.25-8.93-8.81-12.7-.08-.09-.16-.18-.25-.26-1.29-1.35-2.63-2.64-4.06-3.85-.04-.03-.08-.07-.13-.1-2.26-1.9-4.69-3.58-7.23-5.07-.12-.09-.24-.16-.38-.23-1.14-.65-2.3-1.27-3.49-1.84-.04-.02-.08-.04-.12-.05-2.9-1.38-5.95-2.47-9.09-3.28-.1-.03-.21-.06-.31-.08-.57-.15-1.15-.3-1.73-.43-3.55-.78-7.24-1.17-10.93-1.18-.05,0-.09-.01-.14-.01s-.09.01-.14.01c-3.69,0-7.38.4-10.93,1.18-3.86.84-7.6,2.11-11.13,3.79-.04.02-.08.03-.12.05-1.18.56-2.33,1.18-3.47,1.83-.13.06-.25.13-.36.21-2.25,1.31-4.4,2.77-6.41,4.39-1.53,1.22-2.97,2.55-4.35,3.94-.15.11-.27.24-.38.38-1.91,1.97-3.69,4.07-5.27,6.33-.04.05-.08.1-.11.15-2.4,3.45-4.36,7.13-5.83,10.93-.53,1.37-1.01,2.78-1.46,4.32-1.36,4.69-2.05,9.57-2.05,14.49,0,28.67,23.33,52,52,52s52-23.33,52-52c0-4.92-.69-9.79-2.05-14.49Zm-94.72-2.87c.32-.82.67-1.64,1.03-2.45h29.07c0,.07,0,.13,0,.2,0,.85.08,1.72.23,2.54.07.39.15.77.25,1.14h-31.09c.17-.48.34-.96.52-1.43Zm48.03-16.54c-.42-.09-.84-.17-1.26-.23v-13.81c2.56.1,5.1.41,7.58.92l-6.32,13.13Zm-5.26-.23c-.42.06-.83.13-1.24.22l-6.16-13.16c2.42-.48,4.9-.78,7.4-.88v13.81Zm-4.85,6.33c.95-.8,2.03-1.41,3.2-1.84,2.34-.85,4.95-.85,7.3,0,1.17.42,2.25,1.04,3.19,1.83.04.03.07.07.1.09.93.81,1.7,1.73,2.3,2.78.63,1.07,1.05,2.24,1.26,3.48.11.61.17,1.23.17,1.84s-.06,1.23-.17,1.86c-.11.62-.27,1.23-.48,1.81-.18-.07-.36-.13-.55-.2-.2-.07-.39-.15-.59-.22-.27-.09-.55-.17-.83-.25-.19-.05-.37-.11-.56-.16-.32-.08-.65-.14-.97-.2-.16-.03-.31-.07-.47-.09-.49-.07-.99-.13-1.49-.17-.41-.02-.82-.04-1.24-.04h-6.57c-1.25,0-2.51.13-3.73.38-.57.12-1.13.27-1.68.44-.17.05-.33.12-.5.18-.29.1-.58.19-.86.3-.21-.58-.37-1.19-.48-1.82-.11-.61-.17-1.23-.17-1.84s.06-1.23.17-1.87c.21-1.22.63-2.38,1.27-3.47.59-1.03,1.36-1.96,2.28-2.76.04-.03.07-.06.1-.09Zm42.54-4.27c2.28,2.54,4.28,5.31,5.97,8.27h-27.62c-.09-.32-.19-.64-.31-.95l21.96-7.32Zm-45.68,20.53c.36-.21.73-.39,1.13-.56.84-.38,1.74-.66,2.67-.85.96-.2,1.94-.3,2.93-.3h6.57c.34,0,.69.02.99.04,1.6.11,3.11.48,4.52,1.12.35.15.72.34,1.12.56.01,0,.02.01.04.02,5.75,3.27,8.46,10.3,6.47,16.74l-11.31,29.48s-.03.08-.04.11c-.72,2.28-2.81,3.81-5.19,3.81s-4.5-1.54-5.21-3.84c-.02-.05-.04-.11-.06-.16l-11.86-29.5c-1.85-6.17,1.23-13.33,7.23-16.68Zm24.18-4.39c.09-.37.18-.74.24-1.12.15-.84.23-1.7.23-2.56,0-.07,0-.13,0-.2h29.06c.37.81.72,1.63,1.04,2.46.18.46.35.94.52,1.42h-31.09Zm16.87-20.67c.51.43,1,.89,1.49,1.35l-20.77,6.92c-.22-.29-.44-.58-.68-.86l14.02-11.69c2.03,1.25,3.98,2.64,5.81,4.18.04.03.08.07.13.1Zm-10.36-6.72c.23.11.45.24.68.35l-13.31,11.1c-.34-.22-.69-.43-1.05-.63l6.53-13.56c2.42.71,4.77,1.6,7.03,2.68.04.02.08.04.12.05Zm-41.28-.05c2.31-1.1,4.73-2.01,7.21-2.73l6.37,13.6c-.36.2-.72.41-1.07.64l-13.31-11.11c.23-.11.45-.24.68-.35.04-.02.08-.03.12-.05Zm-4.55,2.48l14.02,11.7c-.23.27-.44.54-.65.82l-20.23-7.39c.64-.57,1.28-1.14,1.94-1.67,1.55-1.25,3.2-2.4,4.91-3.46Zm-14.24,13.42c1.28-1.84,2.68-3.57,4.19-5.2l21.46,7.84c-.13.33-.23.67-.33,1h-27.62c.68-1.19,1.4-2.36,2.18-3.5.04-.05.07-.09.11-.14Zm39.37,75.46c-26.47,0-48-21.53-48-48,0-4.04.51-8.05,1.5-11.93h30.46c-4.82,4.79-6.93,11.95-4.97,18.32.02.05.04.11.06.16l11.86,29.5c1.25,3.94,4.85,6.58,9.01,6.58s7.72-2.63,8.99-6.55l11.31-29.48s.03-.08.04-.12c2.07-6.59.24-13.68-4.35-18.41h30.6c.99,3.89,1.5,7.89,1.5,11.93,0,26.47-21.53,48-48,48Z"/>
  <path class="cls-1" d="m64.74,77h8.26v25.13c0,1.1.9,2,2,2s2-.9,2-2v-25.13h7.62c1.1,0,2-.9,2-2s-.9-2-2-2h-7.62v-6.72c0-1.1-.9-2-2-2s-2,.9-2,2v6.72h-8.26c-1.1,0-2,.9-2,2s.9,2,2,2Z"/>
</svg>