<?xml version="1.0" encoding="UTF-8"?>
<svg id="icons" xmlns="http://www.w3.org/2000/svg" viewBox="0 0 150 150">
  <defs>
    <style>
      .cls-1 {
        fill: #1d1d1b;
      }
    </style>
  </defs>
  <path class="cls-1" d="m86.28,84.07l12.27,2.18c.29.07.58.1.87.1.65,0,1.28-.17,1.86-.5.86-.5,1.47-1.3,1.73-2.25.16-.6.17-1.2.04-1.77.4-.44.69-.97.85-1.56.52-1.95-.62-3.97-2.55-4.53l-11.75-4.04,9.41-8.16c.76-.58,1.26-1.42,1.4-2.37.15-.98-.08-1.96-.66-2.76-.36-.49-.82-.88-1.35-1.15-.08-.57-.31-1.14-.67-1.64-.58-.8-1.44-1.33-2.42-1.49-.95-.15-1.91.07-2.7.62l-10.57,6.61-.12.08c-.2.15-.39.31-.58.48.03-.25.05-.49.05-.75l-1.09-12.6c-.05-2-1.7-3.62-3.72-3.62-.62,0-1.21.15-1.72.42-.51-.27-1.1-.42-1.72-.42-2.02,0-3.67,1.62-3.72,3.64l-.86,12.4-10.32-6.98c-1.59-1.22-3.88-.95-5.15.61-.38.48-.64,1.02-.76,1.61-.53.23-1.02.59-1.41,1.07-1.27,1.57-1.05,3.88.49,5.18l9.09,8.47-11.92,3.63c-.93.22-1.73.79-2.25,1.59-.54.83-.72,1.83-.52,2.79.13.61.4,1.15.77,1.59-.16.57-.18,1.18-.05,1.77.37,1.75,1.92,2.94,3.64,2.94.23,0,.46-.02.69-.07l12.31-1.73-4.68,11.55c-.86,1.81-.13,3.99,1.67,4.91.55.28,1.14.4,1.73.41.34.47.79.88,1.34,1.16.53.27,1.1.41,1.68.41.39,0,.77-.06,1.15-.18.92-.3,1.67-.93,2.13-1.78l6.4-10.65,6.03,10.91c.41.86,1.13,1.52,2.03,1.87.43.17.88.25,1.33.25.51,0,1.03-.11,1.51-.32.57-.25,1.04-.63,1.4-1.08.59.04,1.19-.07,1.75-.32.91-.4,1.6-1.13,1.96-2.06.35-.9.33-1.88-.04-2.77l-4.25-11.68Zm1.08,13s0,0,0,0h0s0,0,0,0h0Zm-7.66-16.94l-1.2-2.7,2.86.77c.04.72.21,1.42.48,2.08-.7-.17-1.42-.22-2.13-.14Zm-11.55-8.67l2.3,1.86-2.9.62c-.36-.63-.83-1.18-1.37-1.64.7-.17,1.37-.45,1.97-.84Zm13.78.36c.58.42,1.22.74,1.91.94-.57.44-1.06.97-1.45,1.56l-2.86-.77,2.39-1.74Zm-8.96-1.61l-2.3-1.86c.26-.68.39-1.39.41-2.1.57.43,1.2.78,1.89,1v2.96Zm-4.58,7.64l2.9-.62-1.34,2.64c-.71-.11-1.43-.1-2.14.03.3-.64.51-1.33.59-2.05Zm17.05-.64c.17-.62.57-1.15,1.13-1.47.54-.31,1.17-.4,1.78-.26l4.21,1.45-3.47-.93c-1.07-.29-2.16.35-2.45,1.41-.29,1.07.35,2.16,1.41,2.45l5.04,1.35-6.02-1.07c-1.25-.37-1.98-1.68-1.64-2.94Zm14.95,1.82s0,0,0,0h0s0,0,0,0h0Zm-5.83-21.47h0s0,0,0,0h0Zm-11.26,8.67c.1-.62.42-1.16.92-1.54l3.77-2.36-2.9,2.11c-.89.65-1.09,1.9-.44,2.79.39.54,1,.82,1.62.82.41,0,.82-.12,1.17-.38l4.21-3.06-4.61,4c-.51.35-1.13.49-1.74.39-.64-.1-1.2-.44-1.58-.97,0,0,0,0,0,0,0,0,0,0,0,0-.38-.52-.53-1.16-.43-1.8Zm-3.98-.38c-.11.93-.02,1.85.26,2.72l-2.61,1.9v-3.23c.89-.29,1.68-.77,2.35-1.39Zm-6.46-17.2h0s0,0,0,0h0Zm0,8.12v3.59c0,1.1.9,2,2,2s2-.9,2-2v-5.21l.52,6.08c-.04,1.3-1.11,2.34-2.42,2.34s-2.39-1.05-2.42-2.36l.31-4.44Zm-6.31,10.81s0,0,0,0c0,0,0,0,0,0-.41.5-.98.82-1.62.88-.62.07-1.23-.11-1.73-.49l-3.25-3.03,2.78,2.25c.37.3.82.45,1.26.45.58,0,1.16-.25,1.56-.74.7-.86.56-2.12-.3-2.81l-4.05-3.28,5.06,3.42c.98.85,1.12,2.34.3,3.35Zm-12.92-7.75h0s0,0,0,0h0Zm-3.41,21.98h0s0,0,0,0h0Zm7.93-1.69l3.52-.75c1.08-.23,1.77-1.29,1.54-2.37-.23-1.08-1.29-1.77-2.37-1.54l-5.1,1.09,5.85-1.78c1.28-.23,2.52.6,2.8,1.88,0,0,0,0,0,0,0,0,0,0,0,0,.27,1.28-.53,2.55-1.8,2.85l-4.42.62Zm7.01,18.17s0,0,0,0h0s0,0,0,0h0Zm5.98-11.05l-2.29,3.82,1.63-3.2c.5-.98.11-2.19-.87-2.69-.98-.5-2.19-.11-2.69.87l-2.36,4.64,2.29-5.65c.3-.54.78-.95,1.37-1.14.61-.2,1.27-.15,1.84.15,1.17.6,1.65,2.02,1.08,3.2Zm3.6-3.82c-.31-.64-.72-1.24-1.23-1.75l1.34-2.64,1.2,2.71c-.54.49-.98,1.06-1.32,1.69Zm3.39,3.99c-.49-1.2.06-2.59,1.25-3.12.59-.26,1.25-.28,1.85-.05.58.22,1.05.66,1.32,1.22l1.52,4.18-1.46-3.27c-.45-1.01-1.63-1.46-2.64-1.01-1.01.45-1.46,1.63-1.01,2.64l2.12,4.76-2.95-5.34Z"/>
  <path class="cls-1" d="m56.26,89.8l-8.29,1.23c-1.62.24-3.24-.16-4.56-1.14-1.32-.98-2.17-2.41-2.42-4.03-.16-1.09-1.18-1.85-2.27-1.69-1.09.16-1.85,1.18-1.69,2.27.4,2.68,1.81,5.05,3.99,6.66,2.17,1.61,4.85,2.28,7.53,1.88l.13-.02c-1.89,4.58-.17,9.98,4.22,12.58.32.19.67.28,1.02.28.68,0,1.35-.35,1.72-.98.56-.95.25-2.18-.7-2.74-2.92-1.73-3.89-5.5-2.16-8.41l3.47-5.9Z"/>
  <path class="cls-1" d="m38.04,79.54c1.09-.16,1.85-1.18,1.69-2.27-.24-1.62.16-3.24,1.14-4.56.97-1.32,2.4-2.17,4.02-2.42l6.78-1.01-6.18-5.67c-2.5-2.29-2.66-6.18-.37-8.67.75-.81.69-2.08-.12-2.83-.81-.75-2.08-.69-2.83.12-3.78,4.12-3.51,10.54.61,14.33l.1.09c-2.09.62-3.91,1.89-5.23,3.68-1.61,2.18-2.28,4.85-1.88,7.53.15.99,1,1.71,1.98,1.71.1,0,.2,0,.3-.02Z"/>
  <path class="cls-1" d="m50.99,48.53c1.11-1.21,2.62-1.91,4.25-1.98,1.64-.07,3.2.5,4.41,1.61l5.05,4.64.52-8.38c.21-3.38,3.12-5.95,6.5-5.75,1.1.08,2.05-.77,2.12-1.87.07-1.1-.77-2.05-1.87-2.12-5.57-.35-10.4,3.91-10.74,9.49v.14c-1.8-1.23-3.94-1.85-6.15-1.76-2.7.11-5.2,1.27-7.03,3.27-.75.81-.69,2.08.12,2.83.81.75,2.08.69,2.83-.12Z"/>
  <path class="cls-1" d="m80.4,39.21c1.64.1,3.14.83,4.23,2.06,1.09,1.23,1.63,2.81,1.53,4.44l-.51,8.17,8.3-5.27c2.85-1.81,6.65-.97,8.48,1.88.59.93,1.83,1.2,2.76.61.93-.59,1.2-1.83.61-2.76-3.01-4.71-9.28-6.1-13.99-3.11l-1.68,1.07.02-.34c.17-2.7-.73-5.31-2.53-7.34-1.79-2.03-4.27-3.24-6.97-3.41-1.1-.07-2.05.77-2.12,1.87s.77,2.05,1.87,2.12Z"/>
  <path class="cls-1" d="m85.39,109.16c-3.16,1.18-6.71-.44-7.9-3.6l-2.38-6.41-4.27,7.22c-1.71,2.91-5.48,3.88-8.41,2.16-.95-.56-2.18-.24-2.74.71-.56.95-.24,2.18.71,2.74,4.82,2.84,11.05,1.23,13.88-3.57l.07-.12c1.8,3.28,5.27,5.26,8.91,5.26,1.17,0,2.36-.21,3.52-.64,1.03-.39,1.56-1.54,1.18-2.57-.39-1.03-1.54-1.56-2.57-1.18Z"/>
  <path class="cls-1" d="m111.01,87.41c-1.04-.35-2.18.21-2.53,1.26-.52,1.56-1.62,2.82-3.09,3.55-1.47.73-3.13.85-4.69.32l-6.49-2.17,2.93,7.84c1.18,3.18-.44,6.72-3.6,7.9-1.03.39-1.56,1.54-1.18,2.57.3.8,1.06,1.3,1.87,1.3.23,0,.47-.04.7-.13,5.23-1.95,7.9-7.8,5.96-13.05l-.04-.12c2.14.39,4.34.08,6.32-.9,2.43-1.21,4.24-3.29,5.1-5.86.35-1.05-.21-2.18-1.26-2.53Z"/>
  <path class="cls-1" d="m78.68,22.81c-13.86-.86-27.23,3.73-37.64,12.93-10.41,9.2-16.61,21.89-17.47,35.76-.86,13.86,3.73,27.23,12.93,37.64,9.19,10.41,21.89,16.62,35.75,17.47,1.1.07,2.19.1,3.29.1,12.68,0,24.77-4.56,34.35-13.03,10.41-9.2,16.62-21.89,17.48-35.76,1.77-28.62-20.07-53.34-48.69-55.12Zm44.7,54.87c-.79,12.8-6.52,24.52-16.13,33-9.61,8.49-21.94,12.73-34.75,11.93-12.79-.79-24.52-6.52-33-16.13-8.49-9.61-12.72-21.95-11.93-34.74.79-12.8,6.52-24.52,16.13-33.01,8.85-7.81,20.01-12.03,31.71-12.03,1.01,0,2.02.03,3.03.09,26.42,1.64,46.58,24.46,44.94,50.88Z"/>
  <path class="cls-1" d="m107.7,55.08c-.93.59-1.21,1.83-.61,2.76.88,1.38,1.17,3.02.81,4.62-.35,1.6-1.31,2.96-2.69,3.84l-5.77,3.68,7.94,2.66c1.56.52,2.82,1.62,3.55,3.09.73,1.47.85,3.13.32,4.68-.35,1.05.21,2.18,1.26,2.53.21.07.43.1.64.1.84,0,1.61-.53,1.9-1.36.86-2.56.67-5.31-.54-7.74-1.21-2.42-3.29-4.23-5.85-5.1l-.12-.04c1.65-1.42,2.8-3.32,3.28-5.49.59-2.64.11-5.35-1.34-7.64-.59-.93-1.83-1.21-2.76-.61Z"/>
</svg>