<?xml version="1.0" encoding="UTF-8"?>
<svg id="icons" xmlns="http://www.w3.org/2000/svg" viewBox="0 0 150 150">
  <defs>
    <style>
      .cls-1 {
        fill: #1d1d1b;
      }
    </style>
  </defs>
  <path class="cls-1" d="m74.82,23c-28.67,0-52,23.33-52,52s23.33,52,52,52,52-23.33,52-52-23.33-52-52-52Zm0,100c-26.47,0-48-21.53-48-48s21.53-48,48-48,48,21.53,48,48-21.53,48-48,48Z"/>
  <path class="cls-1" d="m74.83,32c-19.79,0-36.94,13.39-41.72,32.55,0,0,0,0,0,0,0,0,0,0,0,0,0,0,0,0,0,.01-.85,3.38-1.28,6.89-1.28,10.44,0,9.54,3.07,18.58,8.88,26.15,0,0,0,0,0,0,0,0,0,0,0,0,8.03,10.47,20.18,16.6,33.3,16.83.02,0,.04,0,.06,0,0,0,0,0,0,0h.02s0,0,0,0c.24,0,.49.01.73.01,23.71,0,42.99-19.29,42.99-42.99s-19.29-43.01-42.99-43.01Zm31.45,66.03l-5.74-4.57c-.87-.69-2.12-.55-2.81.32-.69.86-.54,2.12.32,2.81l5.71,4.55c-6.87,7.6-16.69,12.48-27.64,12.84l.07-6.97c.01-1.1-.88-2.01-1.98-2.02-1.07,0-2.01.88-2.02,1.98l-.07,6.94c-10.5-.72-20.15-5.59-26.97-13.62l5.38-4.12c.88-.67,1.04-1.93.37-2.8-.67-.88-1.93-1.04-2.8-.37l-5.38,4.12c-4.5-6.52-6.88-14.11-6.88-22.1,0-2.54.25-5.05.73-7.5l6.71,1.74c.17.04.34.06.5.06.89,0,1.7-.6,1.93-1.5.28-1.07-.37-2.16-1.44-2.44l-6.75-1.75c3.14-10.36,10.33-18.67,19.56-23.37l2.91,6.71c.33.75,1.06,1.2,1.84,1.2.27,0,.54-.05.8-.17,1.01-.44,1.48-1.62,1.04-2.63l-2.93-6.75c4.4-1.7,9.15-2.62,14.1-2.62s9.75.95,14.14,2.66l-3.15,6.91c-.46,1-.02,2.19.99,2.65.27.12.55.18.83.18.76,0,1.49-.43,1.82-1.17l3.16-6.92c9.44,4.86,16.65,13.46,19.66,23.84l-7.43,1.78c-1.07.26-1.74,1.34-1.48,2.41.22.92,1.04,1.53,1.94,1.53.15,0,.31-.02.47-.06l7.41-1.78c.41,2.26.64,4.59.64,6.97,0,8.61-2.81,16.56-7.55,23.02Z"/>
  <path class="cls-1" d="m108.23,78.88c-.5-.96-1.34-1.67-2.38-2-1.03-.33-2.13-.23-3.09.27-.49.25-.91.6-1.25,1.01l-2.76-.5c.15-.25.32-.48.5-.67.38-.39.79-.59,1.09-.53,1.08.19,2.12-.53,2.32-1.62s-.53-2.12-1.62-2.32c-1.62-.28-3.31.32-4.63,1.66-.4.41-.74.88-1.05,1.39-.1-.29-.21-.57-.35-.84-.82-1.58-2.21-2.74-3.9-3.27-.84-.27-1.71-.36-2.56-.29.24-.12.47-.25.7-.41,1.46-1.01,2.45-2.53,2.77-4.27.16-.84.14-1.69-.02-2.51,1.06.55,2.17.84,3.22.84,1.25,0,2.42-.4,3.34-1.23.82-.74.89-2,.15-2.82-.74-.82-2.01-.89-2.82-.15-.3.27-1.03.26-1.85-.11l2.07-1.83c.18.06.35.12.54.16h0c.25.05.5.07.74.07,1.91,0,3.62-1.36,3.98-3.31.2-1.06-.03-2.14-.64-3.04-.61-.89-1.54-1.49-2.6-1.69-1.06-.2-2.14.03-3.04.64-.89.61-1.49,1.54-1.69,2.6-.1.55-.09,1.09.02,1.6l-2.1,1.87c-.33-.91-.27-1.69.05-1.98.82-.74.89-2,.15-2.82-.74-.82-2-.89-2.82-.15-1.66,1.5-2.01,3.95-1.13,6.33-.28-.09-.56-.18-.86-.24-1.75-.32-3.52.05-4.98,1.06-.24.16-.45.34-.67.53-.01-1.4-.45-2.8-1.36-3.98-.52-.67-1.15-1.22-1.86-1.65,2.45-.92,4.11-2.85,4.11-5.14,0-1.1-.9-2-2-2s-2,.9-2,2c0,.41-.5.95-1.33,1.31l.03-2.75c.17-.09.33-.19.48-.31.86-.66,1.41-1.61,1.55-2.69.14-1.07-.14-2.14-.8-3-.66-.86-1.61-1.41-2.69-1.55-1.07-.14-2.14.14-3,.8-.86.66-1.41,1.61-1.55,2.69-.14,1.07.14,2.14.8,3,.33.44.74.79,1.21,1.05l-.02,2.81c-.9-.36-1.44-.93-1.44-1.36,0-1.1-.9-2-2-2s-2,.9-2,2c0,2.23,1.57,4.12,3.92,5.07-.26.15-.51.3-.75.48-2.18,1.68-3.04,4.45-2.39,6.96-.16-.21-.33-.41-.52-.6-1.25-1.27-2.91-1.98-4.69-1.99-.84,0-1.66.16-2.44.46.19-.61.33-1.23.37-1.84.11-1.88-.57-3.54-1.87-4.55-.87-.68-2.13-.53-2.81.34-.68.87-.53,2.13.34,2.81.24.19.37.62.34,1.17-.01.22-.06.45-.12.69l-2.17-1.73c.03-.18.06-.37.06-.56h0c.02-2.24-1.78-4.07-4.02-4.09-1.08,0-2.11.4-2.88,1.16-.77.76-1.2,1.77-1.21,2.86s.4,2.11,1.16,2.88c.76.77,1.77,1.2,2.86,1.21h.04c.54,0,1.06-.11,1.54-.31l2.2,1.74c-.25.14-.5.27-.75.35-.52.16-.97.15-1.21-.04-.87-.68-2.13-.53-2.81.34-.68.87-.53,2.13.34,2.81.85.66,1.9,1,3.02,1,.6,0,1.22-.1,1.85-.29.52-.16,1.02-.41,1.52-.69-.04.29-.08.59-.09.88-.01,1.78.66,3.45,1.91,4.72.62.63,1.33,1.12,2.12,1.45-.27,0-.53,0-.8.04-1.77.2-3.35,1.08-4.44,2.46-.52.65-.9,1.39-1.15,2.16-1.49-2.12-3.74-3.24-5.94-2.69-1.07.27-1.72,1.35-1.46,2.42.27,1.07,1.35,1.72,2.42,1.46.4-.1,1.03.25,1.59.96l-2.69.65c-.13-.13-.25-.27-.4-.39-.85-.67-1.91-.98-2.98-.86-1.08.12-2.04.66-2.72,1.5-1.39,1.75-1.1,4.3.65,5.7.73.58,1.61.88,2.52.88.15,0,.31,0,.46-.03,1.08-.12,2.04-.66,2.72-1.5.34-.43.59-.91.73-1.43l2.73-.66c-.04.28-.09.55-.18.79-.19.51-.48.85-.78.93-1.07.27-1.72,1.35-1.46,2.42.23.91,1.04,1.52,1.94,1.52.16,0,.32-.02.48-.06,1.6-.4,2.89-1.64,3.56-3.4.19-.51.31-1.06.39-1.62.2.21.4.42.63.6,1.22.97,2.68,1.44,4.13,1.44,1.13,0,2.25-.29,3.26-.85-1.25,1.55-1.8,3.64-1.3,5.73.19.81.54,1.57,1,2.23-2.58-.13-4.84.96-5.76,3.03-.45,1.01,0,2.19,1.01,2.64,1.01.45,2.19,0,2.64-1.01.17-.37.82-.66,1.72-.66l-1.14,2.52c-.18.02-.36.03-.54.07-2.17.52-3.52,2.71-3,4.89.44,1.86,2.11,3.11,3.94,3.11.31,0,.63-.04.94-.11,1.05-.25,1.94-.9,2.51-1.82.57-.92.74-2.01.49-3.06-.13-.55-.37-1.04-.68-1.46l1.16-2.56c.69.7.95,1.44.77,1.84-.45,1.01,0,2.19,1.01,2.64.26.12.54.17.81.17.77,0,1.5-.44,1.83-1.19.9-2.03.25-4.39-1.5-6.21.27-.03.53-.07.79-.14,1.73-.41,3.19-1.46,4.13-2.97.46-.75.77-1.57.91-2.42.47,1.92,1.77,3.61,3.7,4.5.77.35,1.59.54,2.41.58-1.7,1.95-2.23,4.41-1.17,6.41.36.68,1.05,1.06,1.77,1.06.32,0,.64-.08.94-.23.98-.52,1.35-1.73.83-2.7-.19-.36,0-1.05.54-1.76l1.29,2.44c-.1.16-.2.31-.28.48,0,0,0,0,0,0-.45.99-.49,2.09-.11,3.1.38,1.02,1.13,1.82,2.11,2.27.54.25,1.12.37,1.68.37,1.54,0,3.01-.88,3.69-2.37.45-.99.49-2.09.11-3.1-.38-1.01-1.13-1.82-2.11-2.27-.51-.23-1.03-.35-1.56-.36l-1.3-2.49c.28-.03.56-.04.81-.01.54.06.95.26,1.09.53.52.97,1.73,1.35,2.7.83.98-.52,1.35-1.73.83-2.7-.77-1.45-2.29-2.41-4.16-2.63-.56-.06-1.13-.04-1.72.02.15-.24.3-.48.42-.74,0,0,0,0,0,0,1.15-2.51.59-5.37-1.17-7.29.25.11.5.21.76.3.66.21,1.34.31,2.01.31,1.06,0,2.1-.25,3.07-.76.77-.4,1.43-.95,1.97-1.58.12.63.28,1.23.54,1.79.79,1.71,2.17,2.86,3.79,3.14.12.02.23.03.35.03.95,0,1.8-.68,1.97-1.65.19-1.09-.54-2.12-1.62-2.32-.3-.05-.62-.38-.84-.87-.09-.2-.16-.41-.22-.64l2.72.49c.06.17.12.35.21.51.72,1.39,2.14,2.18,3.6,2.18.63,0,1.27-.15,1.86-.46.96-.5,1.67-1.34,2-2.38.33-1.03.23-2.13-.27-3.09Zm-28.04,2.98l-2.05-3.91,4.38.8c.1.73.32,1.44.68,2.12.28.54.62,1.02,1.02,1.45-1.27-.58-2.69-.72-4.03-.46Zm-11.09.39c-.73-.07-1.48-.03-2.23.14-.59.14-1.14.37-1.65.65,0,0,0,0,0,0,.88-1.1,1.36-2.45,1.43-3.84l4.3-1.04-1.86,4.1Zm3.7-23.98c.46-.35,1-.54,1.59-.54.04,0,.08,0,.12,0,.81.03,1.52.39,2.02,1.04.89,1.16.66,2.83-.49,3.72-.46.35-.99.54-1.55.55-.84,0-1.66-.37-2.17-1.04-.89-1.16-.67-2.83.5-3.73Zm10.38,16.53l-4.31-.79,3.33-2.96c.64.36,1.33.63,2.07.77.41.08.82.11,1.23.11.19,0,.37-.03.56-.04,0,0-.01,0-.02,0-1.26.65-2.25,1.69-2.87,2.9Zm14.15-19.95l.11.02s-.04.05-.06.04h0s-.01,0-.02-.02c0,0-.02-.02-.03-.03v-.02Zm-14.45,9.94c.27-1.44,1.65-2.39,3.1-2.12.6.11,1.15.43,1.54.91.51.61.73,1.4.58,2.19-.13.7-.52,1.31-1.11,1.71-.58.4-1.29.55-1.98.42-.56-.11-1.07-.39-1.45-.79-.58-.63-.83-1.48-.68-2.32Zm-4.04.55c0,.97.22,1.91.63,2.78l-2.98,2.65.03-4.07c.69-.23,1.34-.57,1.93-1.03.13-.1.26-.21.38-.33Zm-4.14-20.8s0,.06-.01.08c0,0-.08,0-.08,0,0,0,.09-.07.09-.07Zm-2.18,22.21l-.03,4.38-3.53-2.79c.24-.68.37-1.41.38-2.15,0-.6-.07-1.18-.22-1.75.86,1.12,2.06,1.91,3.39,2.31Zm-22.1-10.59s.06.02.06.06h.02s-.03.04-.04.05h-.03s0-.11,0-.11Zm10.25,8.25c.51-.6,1.25-.96,2.06-.94.71,0,1.37.29,1.86.79.5.51.76,1.17.75,1.88,0,.58-.19,1.12-.51,1.56-.52.69-1.33,1.06-2.17,1.07-.71,0-1.37-.29-1.87-.79-.5-.51-.77-1.18-.76-1.88,0-.77.34-1.35.63-1.69Zm2.05,8.37c1.39,0,2.72-.45,3.84-1.25l3.46,2.74-4.38,1.06c-.39-.62-.88-1.17-1.46-1.64-.47-.38-.99-.68-1.52-.91.02,0,.05,0,.07,0Zm-18.08,9.67s.03-.02.04-.02c.01,0,.02,0,.03,0,0,0,0,.08,0,.08l-.08-.07Zm17.46-1.91c-.92,1.14-2.59,1.34-3.73.43-.48-.38-.81-.92-.94-1.52-.17-.78.03-1.59.53-2.22.44-.55,1.06-.9,1.77-.98.1-.01.2-.02.31-.02.6,0,1.18.2,1.65.58.44.36.76.84.91,1.38.22.82.04,1.68-.49,2.35Zm-.32,22.65s.01-.06.04-.07l.07.04-.11.03Zm8.91-12.93c-.37.6-.95,1.02-1.64,1.18h0c-.62.15-1.23.08-1.79-.19-.72-.35-1.23-.99-1.41-1.76-.34-1.43.54-2.87,1.95-3.21.21-.05.43-.07.64-.07.35,0,.7.07,1.02.2.78.33,1.36,1.02,1.56,1.83.17.69.05,1.41-.32,2.01Zm4.72-4.65c-.25.55-.41,1.12-.51,1.69-.33-1.36-1.09-2.56-2.13-3.47l1.83-4.04,2.08,3.96c-.52.54-.96,1.16-1.27,1.85Zm3.64,1.66c.23-.52.61-.93,1.13-1.2.41-.23.85-.35,1.3-.35.37,0,.74.08,1.09.24,1.33.61,1.92,2.19,1.32,3.52-.27.57-.7,1.01-1.25,1.28-.72.35-1.55.36-2.27.03-1.33-.61-1.92-2.19-1.31-3.53Zm9.64,15.18s-.04-.05-.03-.07h0s.02,0,.03-.01c.01,0,.02-.02.03-.02h.02s-.05.11-.05.11Zm1.65-22.29c-.63.33-1.35.39-2.02.18-.68-.21-1.23-.68-1.56-1.31-.26-.51-.35-1.06-.26-1.64.12-.83.63-1.54,1.4-1.94.38-.2.8-.3,1.22-.3.27,0,.54.04.8.12.67.21,1.23.68,1.55,1.3.28.55.37,1.17.24,1.75,0,.02-.01.05-.01.07-.15.76-.64,1.41-1.35,1.78Zm14.26.61s.02-.07.02-.07c0,0,.05.1.05.1-.03.01-.06,0-.07-.02Z"/>
</svg>