<?xml version="1.0" encoding="UTF-8"?>
<svg id="icons" xmlns="http://www.w3.org/2000/svg" viewBox="0 0 150 150">
  <defs>
    <style>
      .cls-1 {
        fill: #1d1d1b;
      }
    </style>
  </defs>
  <path class="cls-1" d="m83.71,35.6c2.04.9,3.6,2.63,4.29,4.76.03.09.05.18.09.26.05.1.11.18.17.27.02.04.04.07.07.11.11.14.23.26.36.36.02.02.04.04.07.06.16.11.32.19.5.25.01,0,.02.01.04.02.19.06.4.1.6.1.18,0,.36-.04.55-.09.02,0,.05,0,.07-.01.05-.01.09-.04.13-.06.03-.01.06-.02.09-.03,2.04-.94,4.39-.97,6.44-.06,1.01.45,2.19-.01,2.64-1.02.45-1.01-.01-2.19-1.02-2.64-2.47-1.09-5.21-1.27-7.78-.59-1.23-2.36-3.22-4.25-5.69-5.34-1.01-.45-2.19.01-2.64,1.02-.45,1.01.01,2.19,1.02,2.64Z"/>
  <path class="cls-1" d="m53.25,40.85c2.08-.81,4.42-.68,6.4.34.08.04.16.09.24.12.23.08.46.12.69.12.17,0,.33-.03.48-.07.02,0,.04,0,.06,0,.11-.03.21-.08.31-.13.07-.03.14-.06.21-.1.08-.05.15-.12.23-.18.07-.06.15-.13.21-.2.06-.07.1-.14.15-.22.04-.06.09-.11.12-.17.03-.05.04-.11.07-.17,0-.02.02-.03.03-.05.77-2.11,2.42-3.78,4.51-4.6,1.03-.4,1.54-1.56,1.14-2.59-.4-1.03-1.56-1.54-2.59-1.14-2.51.98-4.59,2.78-5.92,5.08-2.54-.79-5.29-.73-7.8.25-1.03.4-1.54,1.56-1.14,2.59.4,1.03,1.56,1.54,2.59,1.14Z"/>
  <path class="cls-1" d="m74.82,23c-28.67,0-52,23.33-52,52s23.33,52,52,52,52-23.33,52-52-23.33-52-52-52Zm0,100c-26.47,0-48-21.53-48-48s21.53-48,48-48,48,21.53,48,48-21.53,48-48,48Z"/>
  <path class="cls-1" d="m109.96,77.28c0-.9-.27-1.74-.73-2.44.46-.7.73-1.53.73-2.43,0-2.4-1.92-4.37-4.31-4.43l-11.15-1.15,6.89-8.91c.77-.83,1.2-1.9,1.2-3.03,0-1.18-.46-2.29-1.3-3.13-.62-.62-1.4-1.04-2.24-1.21-.17-.82-.57-1.6-1.2-2.23-1.7-1.7-4.45-1.73-6.18-.08l-8.7,7.07-1.43-11.17c-.08-2.38-2.03-4.28-4.43-4.28-.9,0-1.74.27-2.44.73-.7-.46-1.53-.73-2.43-.73-2.4,0-4.37,1.92-4.43,4.31l-1.15,11.15-8.91-6.89c-.82-.77-1.89-1.2-3.03-1.2h0c-1.18,0-2.29.46-3.13,1.3-.62.62-1.04,1.39-1.21,2.23-.84.17-1.61.59-2.23,1.21-.83.83-1.3,1.95-1.3,3.13,0,1.15.43,2.23,1.21,3.05l7.07,8.7-11.17,1.43c-2.38.08-4.28,2.03-4.28,4.43,0,.9.27,1.74.73,2.44-.46.7-.73,1.53-.73,2.43,0,2.4,1.92,4.37,4.31,4.43l11.15,1.15-6.89,8.91c-.77.83-1.2,1.9-1.2,3.03,0,1.18.46,2.29,1.3,3.13.62.62,1.4,1.04,2.24,1.21.17.82.57,1.6,1.2,2.23.86.86,2,1.3,3.13,1.3s2.2-.4,3.05-1.21l8.7-7.07,1.43,11.17c.08,2.38,2.03,4.28,4.43,4.28.9,0,1.74-.27,2.44-.73.7.46,1.53.73,2.43.73,2.4,0,4.37-1.92,4.43-4.31l1.15-11.15,8.91,6.89c.85.8,1.94,1.19,3.03,1.19s2.27-.43,3.13-1.29c.62-.62,1.04-1.4,1.21-2.24.82-.17,1.6-.57,2.23-1.2,1.7-1.7,1.73-4.45.08-6.18l-7.07-8.7,11.17-1.43c2.38-.08,4.28-2.03,4.28-4.43Zm-24.39-4.28h-5.91l4.18-4.18c.99.59,2.08.97,3.23,1.11-.7.89-1.21,1.93-1.5,3.07Zm-4.56-7.01l-4.18,4.18v-5.91c1.13-.28,2.17-.8,3.07-1.5.14,1.15.52,2.25,1.11,3.23Zm-8.18,4.18l-4.18-4.18c.59-.99.97-2.08,1.11-3.23.89.7,1.93,1.21,3.07,1.5v5.91Zm-7.01-1.35l4.18,4.18h-5.91c-.28-1.13-.8-2.17-1.5-3.07,1.15-.14,2.25-.52,3.23-1.11Zm-1.73,8.18h5.91l-1.71,1.71-2.47,2.47c-.99-.59-2.08-.97-3.23-1.11.7-.89,1.21-1.93,1.5-3.07Zm4.56,7.01l2.47-2.47,1.71-1.71v5.91c-1.13.28-2.17.8-3.07,1.5-.14-1.15-.52-2.25-1.11-3.23Zm8.18-.21v-3.97l2.22,2.22,1.96,1.96c-.59.99-.97,2.08-1.11,3.23-.89-.7-1.93-1.21-3.07-1.5v-1.95Zm7.01-2.62l-1.96-1.96-2.22-2.22h5.91c.28,1.13.8,2.17,1.5,3.07-1.15.14-2.25.52-3.23,1.11Zm1.17-22.36l9.25-7.52c.05-.04.1-.09.15-.14.17-.17.44-.17.61,0s.17.44,0,.61c0,0-.01.02-.02.03l-7.65,7.65c-.78.78-.78,2.05,0,2.83.39.39.9.59,1.41.59s1.02-.2,1.41-.59l7.67-7.67s0,0,0,0c.1-.09.21-.12.29-.12h0c.08,0,.2.02.31.13s.12.22.12.3-.02.2-.12.3c-.06.06-.12.12-.17.19l-7.29,9.44c-.79.75-1.83,1.17-2.92,1.17s-2.2-.44-3-1.25c-.8-.8-1.25-1.87-1.25-3s.42-2.14,1.18-2.94Zm-13.2-14.32c0-.07.01-.14.01-.2,0-.24.19-.43.43-.43s.43.19.43.43c0,.01,0,.03,0,.04v10.81c0,1.1.9,2,2,2s2-.9,2-2v-10.85s0,0,0-.01c0-.23.2-.42.44-.42s.43.19.43.43c0,.08,0,.17.02.25l1.52,11.83c-.06,2.29-1.94,4.13-4.25,4.13s-4.2-1.85-4.25-4.15l1.22-11.86Zm-20.82,10.92c-.1-.1-.12-.22-.12-.3s.02-.2.12-.3c.21-.21.4-.21.61,0,0,0,.02.01.03.02l7.65,7.65c.39.39.9.59,1.41.59s1.02-.2,1.41-.59c.78-.78.78-2.05,0-2.83l-7.67-7.67s0,0,0,0c-.1-.1-.12-.21-.12-.29,0-.08.02-.2.13-.31s.22-.12.3-.12h0c.08,0,.2.02.3.12.06.06.12.12.19.17l9.44,7.29c.75.79,1.17,1.83,1.17,2.92s-.44,2.2-1.25,3c-.8.8-1.87,1.25-3,1.25s-2.14-.42-2.94-1.18l-7.52-9.25c-.04-.05-.09-.1-.14-.15Zm-6.86,22.6c-.24,0-.43-.19-.43-.43s.19-.43.43-.43c.01,0,.03,0,.04,0h10.81c1.1,0,2-.9,2-2s-.9-2-2-2h-10.85s0,0-.01,0c-.23,0-.42-.2-.42-.44s.19-.43.43-.43c.08,0,.17,0,.25-.02l11.83-1.52c2.29.06,4.13,1.94,4.13,4.25s-1.85,4.2-4.15,4.25l-11.86-1.22c-.07,0-.14-.01-.2-.01Zm20.53,13.17l-9.25,7.52c-.05.04-.1.09-.15.14-.17.17-.44.17-.61,0s-.17-.44,0-.61c0,0,.01-.02.02-.03l7.65-7.65c.78-.78.78-2.05,0-2.83-.78-.78-2.05-.78-2.83,0l-7.67,7.67s0,0,0,0c-.1.09-.21.12-.29.12-.04.02-.2-.02-.31-.13s-.12-.22-.12-.3.02-.2.12-.3c.06-.06.12-.12.17-.19l7.29-9.44c.79-.75,1.83-1.17,2.92-1.17s2.2.44,3,1.25c.8.8,1.25,1.87,1.25,3s-.42,2.14-1.18,2.94Zm13.2,14.32c0,.07-.01.14-.01.2,0,.24-.19.43-.43.43s-.43-.19-.43-.43c0-.01,0-.03,0-.04v-10.81c0-1.1-.9-2-2-2s-2,.9-2,2v10.85s0,0,0,.01c0,.23-.2.42-.44.42s-.43-.19-.43-.43c0-.08,0-.17-.02-.25l-1.52-11.83c.06-2.29,1.94-4.13,4.25-4.13s4.2,1.85,4.25,4.15l-1.22,11.86Zm20.82-10.92c.17.17.17.44,0,.61-.17.17-.44.17-.61,0,0,0-.02-.01-.03-.02l-7.65-7.65c-.78-.78-2.05-.78-2.83,0-.78.78-.78,2.05,0,2.83l7.67,7.67s0,0,0,0c.1.1.12.21.12.29,0,.08-.02.2-.13.31-.17.17-.44.17-.61,0-.06-.06-.12-.12-.19-.17l-9.44-7.29c-.75-.79-1.17-1.83-1.17-2.92s.44-2.2,1.25-3c.8-.8,1.87-1.25,3-1.25s2.14.42,2.94,1.18l7.52,9.25c.04.05.09.1.14.15Zm6.61-16.85l-11.83,1.52c-2.29-.06-4.13-1.94-4.13-4.25s1.85-4.2,4.15-4.25l11.86,1.22c.07,0,.14.01.2.01.24,0,.43.19.43.43s-.19.43-.43.43c-.01,0-.03,0-.04,0h-10.81c-1.1,0-2,.9-2,2s.9,2,2,2h10.85s0,0,.01,0c.23,0,.42.2.42.44s-.19.43-.43.43c-.08,0-.17,0-.25.02Z"/>
  <path class="cls-1" d="m32.78,67.14c.26.12.54.17.81.17.77,0,1.5-.45,1.83-1.19.9-2.05,2.65-3.62,4.79-4.3,0,0,0,0,.01,0,.07-.02.15-.04.22-.08.3-.14.54-.34.72-.58,0,0,0,0,0,0,.08-.1.14-.2.2-.31,0,0,0-.02.01-.03.05-.1.09-.2.13-.31,0-.02.01-.05.02-.07.03-.1.04-.19.06-.29,0-.04,0-.08,0-.11,0-.09,0-.17,0-.26,0-.05-.01-.1-.02-.15-.01-.08-.03-.15-.05-.23,0-.03,0-.05-.02-.08-.01-.04-.04-.08-.05-.12-.01-.03-.02-.07-.04-.1-.94-2.04-.97-4.39-.06-6.44.45-1.01-.01-2.19-1.02-2.64-1.01-.44-2.19.01-2.64,1.02-1.09,2.47-1.27,5.21-.59,7.78-2.36,1.23-4.25,3.22-5.34,5.69-.45,1.01.01,2.19,1.02,2.64Z"/>
  <path class="cls-1" d="m41.23,89s0,0,0,0c-.02-.12-.04-.25-.08-.36,0,0,0-.02,0-.03-.04-.11-.08-.21-.13-.32-.01-.02-.02-.04-.03-.06-.05-.09-.11-.17-.17-.25-.02-.03-.05-.05-.07-.08-.06-.07-.12-.13-.19-.19-.04-.03-.08-.06-.12-.09-.06-.05-.13-.09-.2-.13-.02-.01-.04-.03-.06-.04-.04-.02-.08-.03-.12-.05-.03-.02-.07-.04-.1-.05-2.11-.77-3.78-2.42-4.6-4.51-.4-1.03-1.56-1.54-2.59-1.14-1.03.4-1.54,1.56-1.14,2.59.98,2.51,2.78,4.59,5.08,5.92-.79,2.54-.73,5.29.25,7.8.31.79,1.06,1.28,1.86,1.28.24,0,.49-.04.72-.14,1.03-.4,1.54-1.56,1.14-2.59-.81-2.09-.69-4.43.35-6.42.02-.03.02-.07.04-.1.02-.05.05-.08.07-.13.02-.05.02-.1.04-.15,0,0,0,0,0,0,.07-.26.09-.52.06-.77Z"/>
  <path class="cls-1" d="m65.94,114.4c-2.04-.9-3.6-2.63-4.29-4.76-.03-.09-.05-.18-.09-.26-.02-.05-.05-.09-.08-.13,0,0,0,0,0,0-.13-.23-.3-.43-.5-.59,0,0,0,0,0,0-.1-.07-.2-.14-.3-.2-.01,0-.03-.01-.04-.02-.1-.05-.2-.09-.3-.12-.03,0-.06-.02-.09-.02-.09-.02-.18-.04-.27-.05-.04,0-.09,0-.13,0-.08,0-.16,0-.24,0-.06,0-.11.01-.17.02-.07.01-.14.03-.22.05-.03,0-.05,0-.08.02-.04.01-.08.04-.12.05-.03.01-.07.02-.1.04-2.04.94-4.38.97-6.44.06-1.01-.45-2.19.01-2.64,1.02-.45,1.01.01,2.19,1.02,2.64,1.52.67,3.14,1,4.76,1,1.02,0,2.03-.15,3.02-.41,1.23,2.36,3.22,4.26,5.69,5.34.26.12.54.17.81.17.77,0,1.5-.45,1.83-1.19.45-1.01-.01-2.19-1.02-2.64Z"/>
  <path class="cls-1" d="m96.4,109.15c-2.09.81-4.42.68-6.41-.34-.08-.04-.15-.08-.24-.11-.05-.02-.1-.02-.15-.04,0,0,0,0,0,0-.26-.07-.51-.09-.77-.06,0,0,0,0,0,0-.12.02-.24.04-.36.08-.01,0-.02,0-.03.01-.11.04-.21.08-.31.13-.02.01-.04.02-.06.04-.09.05-.17.1-.25.17-.03.02-.06.05-.08.07-.07.06-.13.12-.19.19-.03.04-.06.08-.09.12-.05.06-.09.13-.13.2-.01.02-.03.04-.04.06-.02.04-.03.08-.05.12-.02.03-.04.07-.05.1-.77,2.11-2.42,3.78-4.51,4.6-1.03.4-1.54,1.56-1.14,2.59.31.79,1.06,1.28,1.86,1.28.24,0,.49-.04.72-.14,2.52-.98,4.59-2.79,5.93-5.09,1.15.36,2.33.56,3.52.56,1.45,0,2.9-.27,4.27-.8,1.03-.4,1.54-1.56,1.14-2.59-.4-1.03-1.56-1.54-2.59-1.14Z"/>
  <path class="cls-1" d="m116.86,82.86c-1.01-.44-2.19.01-2.64,1.02-.9,2.04-2.64,3.6-4.76,4.29-.09.03-.17.05-.26.09-.3.14-.54.34-.72.58,0,0,0,0,0,0-.08.1-.14.2-.2.31,0,0,0,.02-.01.03-.05.1-.09.2-.13.31,0,.02-.01.05-.02.07-.03.1-.05.19-.06.29,0,.04,0,.08,0,.11,0,.09,0,.17,0,.26,0,.05.01.1.02.15.01.08.03.15.05.23,0,.03,0,.05.02.08,0,.02.02.04.03.06.02.05.03.11.06.16.94,2.04.97,4.39.06,6.44-.45,1.01.01,2.19,1.02,2.64.26.12.54.17.81.17.77,0,1.5-.45,1.83-1.19,1.09-2.47,1.27-5.21.59-7.78,2.36-1.23,4.25-3.22,5.34-5.69.45-1.01-.01-2.19-1.02-2.64Z"/>
  <path class="cls-1" d="m108.42,60.99s0,0,0,0c.02.12.04.25.08.36,0,0,0,.02,0,.03.04.11.08.21.13.32.01.02.02.04.03.06.05.09.11.17.17.25.02.03.05.05.07.08.06.07.12.13.19.19.04.03.08.06.12.09.06.05.13.09.2.13.02.01.04.03.06.04.03.02.06.02.1.04.04.02.08.04.13.06,2.11.77,3.78,2.42,4.6,4.51.31.79,1.06,1.28,1.86,1.28.24,0,.49-.04.72-.14,1.03-.4,1.54-1.56,1.14-2.59-.98-2.51-2.78-4.59-5.08-5.92.79-2.54.73-5.29-.25-7.8-.4-1.03-1.56-1.54-2.59-1.14-1.03.4-1.54,1.56-1.14,2.59.81,2.09.68,4.42-.34,6.42-.04.08-.08.15-.11.23-.02.05-.02.1-.04.15,0,0,0,0,0,0-.07.26-.09.52-.06.77Z"/>
</svg>