<?xml version="1.0" encoding="UTF-8"?>
<svg id="icons" xmlns="http://www.w3.org/2000/svg" viewBox="0 0 150 150">
  <defs>
    <style>
      .cls-1 {
        fill: #1d1d1b;
      }
    </style>
  </defs>
  <path class="cls-1" d="m118.92,88.77l-23.52-10.45-4.09-11.94,18.8-8.35c.86-.38,1.34-1.32,1.14-2.24-.2-.92-1.01-1.58-1.96-1.58h-22.16l-10.24-29.85c-.28-.81-1.04-1.35-1.89-1.35s-1.61.54-1.89,1.35l-10.24,29.85h-22.17c-.94,0-1.76.66-1.96,1.58-.2.92.28,1.86,1.14,2.24l18.8,8.36-4.1,11.94-23.52,10.45c-.72.32-1.19,1.04-1.19,1.83s.47,1.51,1.19,1.83l16.2,7.2-8.48,24.71c-.26.75-.05,1.59.54,2.12.59.54,1.44.68,2.16.35l33.49-14.88,33.5,14.88c.26.12.54.17.81.17.49,0,.98-.18,1.35-.52.59-.54.8-1.37.54-2.12l-8.48-24.72,16.21-7.2c.72-.32,1.19-1.04,1.19-1.83s-.47-1.51-1.19-1.83Zm-19.05-30.57l-9.86,4.38-1.5-4.38h11.37Zm-12.23,9.81l2.78,8.09-10.49-4.66,7.72-3.43Zm-12.64-36.85l7.9,23.04h-15.81l7.91-23.04Zm-9.28,27.04h18.55l2.06,6.01-11.34,5.04-11.34-5.04,2.06-6.02Zm4.35,13.24l-10.49,4.66,2.78-8.09,7.71,3.43Zm-19.95-13.24h11.37l-1.5,4.39-9.87-4.39Zm-13.31,32.4l16.01-7.11-4.24,12.34-11.77-5.23Zm7.26,30.7l6.88-20.04,19.12,8.49-25.99,11.55Zm8.18-23.84l5.56-16.19,17.19-7.64,17.19,7.64,5.55,16.19-22.75,10.11-22.74-10.1Zm53.67,23.85l-26-11.55,19.12-8.5,6.88,20.05Zm-4.51-25.48l-4.23-12.34,16.01,7.11-11.77,5.23Z"/>
</svg>