<?xml version="1.0" encoding="UTF-8"?>
<svg id="icons" xmlns="http://www.w3.org/2000/svg" viewBox="0 0 150 150">
  <defs>
    <style>
      .cls-1 {
        fill: #1d1d1b;
      }
    </style>
  </defs>
  <path class="cls-1" d="m73.36,56.96c1.87,1.87,4.03,3.26,6.1,3.91.89.28,1.74.42,2.53.42,1.42,0,2.64-.46,3.55-1.37,2.62-2.62,1.35-7.86-2.97-12.17-4.32-4.32-9.55-5.59-12.18-2.97-1.41,1.41-1.74,3.56-.94,6.08.66,2.06,2.05,4.23,3.91,6.1Zm-.14-9.35c.13-.13.38-.2.72-.2,1.2,0,3.54.91,5.8,3.17,2.9,2.9,3.58,5.91,2.97,6.52-.22.22-.95.3-2.04-.04-1.45-.46-3.08-1.53-4.48-2.93s-2.47-3.04-2.93-4.48c-.34-1.08-.26-1.82-.04-2.04Z"/>
  <path class="cls-1" d="m56.46,53.52l.25.13,6.87,1.41-1.62,7.22-.05.42c0,1.15.47,2.25,1.32,3.02.82.74,1.92,1.11,3.02,1.01l7.9-.4,3.18,6.69c.44,1.19,1.41,2.11,2.63,2.46.36.1.73.16,1.1.16.92,0,1.82-.32,2.55-.93l5-5.66,5,.54c1.73.17,3.45-.49,4.38-1.68.76-.98.95-2.24.52-3.47l-1.95-5.59,3.24-2.21c1.76-1.2,2.33-3.53,1.3-5.29-.58-.98-1.55-1.67-2.66-1.89l-6.98-.93,2.43-5.11.09-.22c.48-1.42.15-2.98-.88-4.07-.99-1.06-2.47-1.49-3.87-1.12l-5.75,1.28-1.26-5.16-.09-.28c-.48-1.17-1.45-2.03-2.66-2.35-1.16-.31-2.38-.08-3.35.62l-5.99,3.54-.18.15-5.33-2.96c-1.23-.69-2.7-.67-3.92.04-1.24.73-1.99,2.02-2,3.47v.2s1.41,7.44,1.41,7.44l-3.94,2.56c-1.22.79-1.9,2.13-1.83,3.58.07,1.44.86,2.7,2.13,3.37Zm5.84-6.17c1.14-.74,1.83-2,1.84-3.37v-.19s-1.4-7.41-1.4-7.41l5.28,2.93c1.35.75,3,.65,4.25-.26l5.99-3.54.16-.14,1.43,5.84.09.28c.6,1.47,2.19,2.26,3.63,1.87l6.59-1.46v.02s.04,0,.04,0l-2.42,5.08-.09.22c-.38,1.11-.26,2.33.33,3.33.58,1,1.55,1.69,2.67,1.91l6.84.91-4.07,2.78-.21.3c-.75,1.07-.93,2.44-.5,3.67l1.92,5.42c-.16.06-.4.1-.62.08l-5.13-.56c-1.2-.13-2.4.34-3.21,1.25l-4.63,5.27-3.17-6.63c-.62-1.68-2.31-2.76-4.09-2.6l-7.86.38,1.63-7.27.05-.42c.01-1.52-.81-2.89-2.14-3.59l-.25-.13-6.89-1.42,3.94-2.56Z"/>
  <path class="cls-1" d="m60.8,70.62c.7-.85.58-2.11-.28-2.81-.85-.7-2.11-.58-2.81.28-2.14,2.61-6.66,4.24-11.8,4.25-5.19.04-9.82-1.62-12.01-4.26-.7-.85-1.97-.97-2.82-.26-.85.71-.97,1.97-.26,2.82,2.96,3.58,8.58,5.71,15.02,5.71h.08c6.4-.02,11.96-2.15,14.88-5.72Z"/>
  <path class="cls-1" d="m76.64,93.04c-4.32-4.32-9.55-5.6-12.18-2.97h0c-2.62,2.62-1.35,7.86,2.97,12.18,2.81,2.81,6,4.33,8.61,4.33,1.41,0,2.64-.44,3.56-1.36,1.41-1.41,1.74-3.57.94-6.08-.66-2.07-2.05-4.23-3.91-6.1Zm.14,9.35c-.61.61-3.62-.07-6.52-2.97-2.9-2.9-3.58-5.91-2.97-6.52.61-.61,3.62.07,6.52,2.97,1.4,1.4,2.47,3.04,2.93,4.48.34,1.08.26,1.82.04,2.04Z"/>
  <path class="cls-1" d="m93.54,96.48l-.25-.13-6.87-1.41,1.62-7.22.05-.42c0-1.15-.47-2.25-1.32-3.02-.81-.73-1.89-1.1-2.98-1.01l-7.97.16-.14.02-3.01-6.46c-.44-1.2-1.41-2.12-2.64-2.47-1.27-.37-2.63-.08-3.65.77l-5,5.66-5-.54c-1.73-.17-3.45.49-4.38,1.68-.76.98-.95,2.24-.52,3.47l1.95,5.59-3.24,2.21c-1.76,1.2-2.33,3.53-1.3,5.29.57.98,1.54,1.67,2.66,1.89l6.98.93-2.43,5.11-.09.22c-.48,1.42-.15,2.98.88,4.07,1.01,1.07,2.51,1.5,3.83,1.13l5.73-1.26,1.34,5.16.08.25c.48,1.17,1.45,2.03,2.66,2.35.34.09.68.13,1.03.13.83,0,1.63-.26,2.32-.76l5.98-3.54.18-.15,5.33,2.96c1.23.69,2.7.67,3.92-.04,1.24-.73,1.99-2.02,2-3.47v-.2s-1.41-7.44-1.41-7.44l3.94-2.56c1.22-.79,1.9-2.13,1.83-3.58-.07-1.44-.86-2.7-2.13-3.37Zm-5.84,6.17c-1.14.74-1.83,2-1.84,3.37v.2s1.4,7.41,1.4,7.41l-5.27-2.93c-1.35-.75-3-.65-4.26.26l-5.99,3.54-.16.14-1.51-5.85-.08-.25c-.49-1.21-1.66-1.96-2.9-1.96-.25,0-.5.03-.76.09l-6.51,1.41,2.42-5.08.09-.22c.38-1.11.26-2.32-.33-3.33-.58-1-1.55-1.69-2.67-1.91l-6.84-.91,4.07-2.78.21-.3c.75-1.07.93-2.44.5-3.67l-1.92-5.42c.17-.06.4-.1.62-.08l5.13.56c1.2.13,2.4-.34,3.21-1.25l4.63-5.27,2.99,6.4c.61,1.68,2.28,2.76,4.06,2.61l7.97-.16h.06s.04,0,.04,0l-1.63,7.27-.05.42c-.01,1.52.81,2.89,2.14,3.59l.25.13,6.89,1.42-3.94,2.56Z"/>
  <path class="cls-1" d="m119.18,79.37c-2.97-3.58-8.58-5.71-15.02-5.71h-.08c-6.4.02-11.96,2.16-14.88,5.72-.7.85-.58,2.11.28,2.81.37.3.82.45,1.27.45.58,0,1.15-.25,1.55-.73,2.14-2.61,6.66-4.24,11.8-4.25h.07c5.19,0,9.76,1.63,11.94,4.26.7.85,1.97.97,2.82.26.85-.71.97-1.97.26-2.82Z"/>
  <path class="cls-1" d="m74.82,23.11c-28.67,0-52,23.33-52,52s23.33,52,52,52,52-23.33,52-52-23.33-52-52-52Zm0,100c-26.47,0-48-21.53-48-48s21.53-48,48-48,48,21.53,48,48-21.53,48-48,48Z"/>
</svg>