<?xml version="1.0" encoding="UTF-8"?>
<svg id="icons" xmlns="http://www.w3.org/2000/svg" viewBox="0 0 150 150">
  <defs>
    <style>
      .cls-1 {
        fill: #1d1d1b;
      }
    </style>
  </defs>
  <path class="cls-1" d="m126.35,64.72c-5.77-12.42-13.5-12.78-14.36-12.78,0,0,0,0,0,0h-3c-.06-.16-.1-.33-.17-.48,0-.05,0-.1-.01-.14.01-.02.03-.05.07-.07,1.67-.91,2.49-2.76,2.02-4.6-.47-1.86-2.06-3.11-3.96-3.11h-.31c-.09,0-.18,0-.27.02-.06,0-.11-.04-.12-.08-.36-1.99-2.02-3.38-4.05-3.38s-3.7,1.39-4.06,3.38c0,.05-.05.07-.12.07,0,0-.01,0-.02,0-1.2-.15-2.35.2-3.22.97-.9.79-1.41,1.94-1.41,3.15,0,1.02.37,1.95,1,2.67l-2.68,1.6h-3.14v-13.8c0-2.47-.69-4.84-2.06-7.04-.04-.06-.08-.12-.12-.17-3.19-4.89-10.53-7.17-10.85-7.27-.43-.13-.89-.11-1.31.05-.29.11-7.01,2.78-10.19,7.07-.04.05-.08.1-.12.15-1.7,2.37-2.57,4.79-2.57,7.2v13.8h-4.55l-2.76-1.62c.87-.99,1.22-2.34.88-3.69-.47-1.86-2.06-3.11-3.96-3.11h-.32c-.09,0-.18,0-.27.02-.05,0-.11-.04-.12-.08-.36-1.99-2.02-3.38-4.05-3.38s-3.71,1.4-4.05,3.36c-.01.06-.07.09-.14.09,0,0-.01,0-.02,0-1.2-.15-2.34.2-3.22.97-.9.79-1.41,1.94-1.41,3.15,0,1.53.81,2.87,2.15,3.57.04.02.05.05.06.09,0,.03,0,.05,0,.08h0c-.08.18-.13.35-.19.53h-1.85s-.07,0-.11.01c0,0-.01,0-.02,0-9.55.24-13.93,12.43-14.11,12.95-.17.49-.15,1.03.07,1.5.15.33,3.63,7.72,8.95,11.08.24,1.15.96,2.13,2.04,2.71,0,0,.04.15.05.16-.86,1.83-.32,3.93,1.33,5.12,1.63,1.18,3.78,1.03,5.23-.36.08-.08.12-.05.18,0,.79.76,1.79,1.15,2.81,1.15.54,0,1.08-.11,1.6-.33,1.55-.66,2.55-2.14,2.55-3.77,0-.61-.14-1.23-.42-1.86,0,0,0,0,0-.01l11.65-1.1h2.02v10.19l-.98,3.19c-.15-.02-.31-.03-.47-.03-2.01,0-3.67,1.39-4.08,3.45-.03.01-.09.02-.12.03-1.2-.15-2.35.19-3.22.96-.9.79-1.42,1.95-1.42,3.17,0,1.54.81,2.88,2.15,3.58.02.01.06.03.03.18-.55,1.21-.51,2.55.1,3.69.61,1.14,1.73,1.94,3.01,2.15,1.26.19,2.48-.2,3.46-1.11l.13-.04c.14.14.28.24.41.35,0,0,0,0,.01.01.05.04.1.09.15.12.05.03.11.07.16.1,0,0,0,0,.01,0,.02.01.05.03.07.04.05.03.09.06.15.09.03.02.07.03.11.05.05.02.09.04.14.07.02.01.04.02.06.03.04.02.09.04.14.06v2.35s0,0,0,0c0,9.78,12.42,14.26,12.95,14.45.21.08.44.11.66.11.29,0,.58-.06.84-.19,12.4-5.77,12.77-13.5,12.77-14.37h0v-2.62c.3-.17.59-.38.85-.63h.16c.79.76,1.78,1.18,2.75,1.18h.07c1.07,0,2.13-.44,2.91-1.2.8-.78,1.24-1.82,1.24-2.92,0-.55-.13-1.14-.38-1.73,0-.02-.04-.09-.05-.11,0-.08.04-.1.06-.12,0,0,0,0,.01,0,1.67-.91,2.48-2.76,2.01-4.62-.47-1.87-2.07-3.12-3.96-3.12-.19,0-.41,0-.65.05h0s.06,0,.06,0c-.02,0-.04,0-.08-.01-.03-.04-.04-.07-.05-.09-.37-1.99-2.04-3.38-4.05-3.38-.04,0-.08,0-.11.01l-.81-2.44v-10.92h5.05l8.18.62c.19.14.38.28.59.39.04.02.07.06.03.15-.86,1.82-.32,3.92,1.32,5.11,1.63,1.18,3.79,1.04,5.26-.35.04-.04.08-.05.17,0,.79.75,1.79,1.14,2.81,1.14.54,0,1.09-.11,1.61-.34,1.54-.66,2.53-2.14,2.53-3.77,0-.69-.15-1.32-.42-1.86,0-.02.01-.08.08-.11,1.03-.57,1.73-1.51,2-2.59,5.84-3.38,8.59-11.03,8.71-11.37.17-.49.15-1.03-.07-1.5Zm-17.32,4.3c-2.03,0-3.7,1.4-4.05,3.37-.02.09-.11.1-.2.11-1.03-.13-2.01.11-2.8.65l-14.94-5.52,6.73-7.24,3.39-3.63c.23.14.47.26.7.34.11.04.32.12.59.17.27.06.54.08.81.08,1.03,0,2.02-.41,2.8-1.16,0,0,.04-.04.18-.02.95.91,2.22,1.33,3.47,1.12.2-.03.41-.07.57-.12.36-.11.7-.27,1.02-.48.15-.09.29-.19.42-.3.16-.13.31-.28.45-.43h1.83v13.2c-.31-.07-.63-.12-.96-.12Zm-60.86,4.24c-.68-.51-1.52-.8-2.42-.8-.13,0-.34,0-.58.04h0s-.12-.01-.13-.1c-.37-1.99-2.04-3.38-4.05-3.38-.47,0-.91.08-1.33.22v-13.3h.5c.58.64,1.36,1.1,2.22,1.29,1.34.29,2.68-.1,3.64-1.04.04-.04.07-.05.19-.04.8.77,1.8,1.18,2.84,1.18.29,0,.59-.03.88-.1.47-.1.91-.3,1.32-.55l10.78,11.16-13.86,5.42Zm23.13-33.37c.2-.42.3-.87.36-1.32.03-.14.05-.29.05-.44,0,0,0,0,0,0s0,0,0,0c0-1.54-.84-2.94-2.23-3.7,0-.07.04-.14.05-.15h.13c2.18.24,4.18-1.23,4.54-3.37l-1.97-.33,2.08.26c.06,0,.09.02.12.11.37,1.95,2.06,3.36,4.02,3.36.18,0,.31,0,.49-.02.03,0,.05,0,.08,0,.03,0,.07,0,.07,0,.04.03.08.14.06.18,0,0-.01.02-.06.04-1.33.71-2.16,2.08-2.16,3.63,0,0,0,0,0,0,0,0,0,0,0,0,0,0,0,0,0,0,0,0,0,0,0,0,0,.14.02.28.05.42.05.47.15.92.34,1.29.03.07.04.11.04.11,0,.04-.12.14-.17.12-.25-.25-.54-.45-.85-.62,0,0,0,0-.01-.01-.01,0-.02-.01-.03-.02,0,0,0,0-.01,0-.05-.03-.1-.06-.15-.08-.01,0-.03,0-.04-.02-.23-.12-.47-.22-.71-.28-.26-.08-.48-.1-.61-.12-.03,0-.07,0-.1,0-.38-.05-.47-.03-.68,0-.03,0-.06,0-.09,0,0,0,0,0,0,0h0s-.07,0-.1,0c-.1,0-.21.02-.31.05-.07.02-.13.04-.2.06,0,0,0,0,0,0s0,0,0,0c-.02,0-.05.01-.07.02,0,0-.1.03-.11.03,0,0-.02,0-.03,0-.02,0-.05.01-.07.02-.01,0-.03.01-.04.01-.1.03-.2.07-.31.12-.17.08-.34.17-.49.26,0,0,0,0,0,0,0,0,0,0-.01,0s0,0,0,0c-.02.01-.05.03-.07.05-.22.14-.39.28-.52.39-.03.03-.11.1-.14.12-.05,0-.14-.07-.15-.12,0,0,0-.04.02-.08Zm6.48,4.14c.36-.05.71-.13,1.06-.28,1.49-.64,2.47-2.05,2.53-3.62h3.13v13.8c0,.73.4,1.36.98,1.71l-5.47,3.3-2.24-14.91Zm27.31,9.29s.01,0,.02,0c0,0-.01,0-.02,0,0,0,0,0,0,0Zm.02,0s0,0,0,0c.02,0,.05,0,.07-.01-.04,0-.05,0-.07.02Zm-7.65-5.81c.22.03.4.03.53.03,2,0,3.7-1.42,4.05-3.44.02-.01.19-.07.23.06.35,1.96,2.06,3.38,4.07,3.38.1,0,.23,0,.4-.02h.21s.06.12.05.15c0,0-.03.03-.07.05,0,0-.02,0-.03.01-1.32.73-2.14,2.12-2.14,3.61,0,.12,0,.31.05.55.04.36.14.73.3,1.14.02.06.05.13.08.19v.02s-.01,0-.02,0t0,0s-.07.04-.11.07c-.02,0-.05-.03-.09-.07-1.51-1.44-4.09-1.47-5.69,0-.04.03-.06.05-.05.06-.01,0-.02,0-.03,0,0,0-.01,0-.02,0-.01-.01-.03-.02-.04-.03-.01-.02-.02-.03-.03-.05,0,0,0-.02-.01-.03,0-.01,0-.02,0-.03.04-.09.09-.18.13-.29.01-.03.02-.07.04-.1.03-.08.06-.16.09-.25.01-.05.02-.09.04-.14.02-.08.04-.17.06-.26.01-.06.02-.11.02-.17,0-.05.02-.1.02-.15.03-.2.03-.36.03-.47,0-.22,0-.53-.09-.93-.02-.09-.04-.19-.07-.28-.35-1.05-1.05-1.91-2.05-2.48,0-.07.04-.14.14-.15Zm-32.18,6.42v-13.8h2.01c.05,1.22.64,2.39,1.7,3.16.57.41,1.2.65,1.84.74l-.43,3.34-1.53,11.67-5.35-3.13c.99-.12,1.76-.95,1.76-1.98Zm-23.85-6.42c.17.03.32.03.53.03,1.99,0,3.69-1.41,4.06-3.44.02-.01.18-.11.23.08.36,1.95,2.07,3.36,4.07,3.36.1,0,.23,0,.41-.02h.21s.06.12.05.15c0,0-.02.02-.07.05,0,0-.02,0-.02.01-.96.54-1.66,1.4-1.94,2.41,0,.03-.01.05-.02.08-.01.03-.02.06-.03.09-.02.06-.04.11-.05.17-.03.13-.06.26-.07.4-.03.17-.03.32-.03.44,0,.13,0,.36.06.64,0,0,0,.02,0,.03.02.15.06.31.11.49,0,.04.02.07.03.11.06.19.13.38.23.58,0,0,0,0,0,.01,0,.01,0,.02-.01.04-.02.05-.1.1-.12.1,0,0-.03,0-.09-.07-.76-.72-1.76-1.12-2.83-1.12s-2.04.39-2.81,1.09c-.02.01-.08.08-.1.09-.04,0-.12-.06-.12-.18.21-.42.34-.88.37-1.32.03-.2.03-.36.03-.47,0-1.5-.82-2.89-2.21-3.68,0-.07.04-.14.14-.15Zm-14.13,17.95c.9-2.09,3.78-7.87,8.36-9.22v16.27c-.07,0-.14,0-.2.02,0,0-.02,0-.03,0h0c-.23.04-.42.1-.66.18-.05.02-.13.05-.18.07-.17.08-.33.16-.45.24-.04.02-.12.07-.16.1-.17.11-.31.24-.45.37-3.02-2.32-5.35-6.36-6.23-8.03Zm16.71,16.58s.03.09.03.09c-.01.04-.11.12-.2.07-1.54-1.46-4.12-1.51-5.75.05-.05,0-.15-.08-.14-.19.27-.56.41-1.16.41-1.78,0-1.54-.84-2.93-2.21-3.68v-.05s.02-.05.03-.07h0s0,0,.01-.01c.01,0,.03,0,.04,0h.04c.27.04.63.05,1.14-.01.06,0,.17-.02.32-.06.04,0,.08-.02.11-.03h0s.24-.06.24-.06c.07-.02.14-.04.2-.07l.12-.05s.02,0,.02-.01c.02,0,.04-.02.06-.03.34-.15.68-.35.97-.59.14-.11.27-.23.41-.38.22-.23.41-.49.56-.77.08-.14.14-.26.18-.37.05-.12.1-.24.14-.37.05-.14.08-.3.13-.5.01-.07.03-.1.03-.1.01,0,.17,0,.17,0,0,0,.02.03.03.1.39,2.1,2.4,3.57,4.56,3.33.04,0,.07,0,.1-.01,0,0,.02,0,.02,0,0,0,0,0,0,0,0,0-.02,0-.02,0,0,0,.06.08.06.09,0,0,0,0,0,0,0,0,0,.02,0,.03,0,0,0,0,0,0v.03c-.09.05-.17.1-.25.16-1.22.74-1.97,2.06-1.97,3.51,0,.59.13,1.17.39,1.76Zm38.73,21.66s.06.06.05.16c-.62,1.31-.54,2.75.21,3.95.38.6.9,1.09,1.5,1.43v.62h-19.22v-.98c.25-.19.48-.4.67-.64.17-.2.29-.39.41-.58.21-.38.36-.77.41-1.07v-.05s.03-.08.03-.09c0,0,0,0,0,0,.02-.08.04-.17.04-.26,0-.04,0-.07,0-.11,0-.01,0-.02,0-.04.01-.12.02-.24.02-.36,0-.6-.13-1.19-.42-1.86,0-.04.02-.08.06-.1,0,0,0,0,0,0,1.68-.91,2.49-2.77,2.02-4.62-.33-1.28-1.19-2.27-2.31-2.76l8.43-12.91,8.69,12.78c-.49.17-.95.41-1.35.76-.91.79-1.42,1.95-1.42,3.17,0,1.53.81,2.88,2.15,3.58Zm-25.73,2c-.08.08-.1.08-.11.07-.02,0-.08-.04-.1-.09,0-.02-.02-.04.02-.12.26-.56.4-1.16.4-1.73,0-1.53-.83-2.93-2.21-3.7,0-.07.04-.14.14-.16.23.04.41.04.53.04.63,0,1.24-.14,1.78-.41,1.18-.55,2.03-1.65,2.28-2.95.01-.07.03-.1.03-.1,0,0,.11-.03.12-.03.03.04.04.08.07.12.19,1.04.8,1.96,1.68,2.6.05.05.11.09.17.13.03.02.06.05.09.07,0,0,0,0,.01,0,0,0,0,0,.01,0,.02.01.05.02.07.03.02.01.04.03.06.04.08.04.16.07.25.11.06.03.12.06.18.09.03.01.05.02.08.03.04.02.09.04.14.05h0c.05.02.1.02.15.04.02,0,.05.01.07.02.37.1.72.16,1.07.16.22,0,.41,0,.75-.07-.06.01-.13.03-.11.03.04.03.08.14.07.18,0,0-.02.02-.06.04-1.33.72-2.16,2.11-2.16,3.62,0,.61.13,1.2.38,1.74.03.07.04.11.04.11h0s-.03.05-.05.07c0,0-.03.03-.07.04h0s-.01,0-.02,0c0,0-.02,0-.03-.01,0,0,0,0-.01,0-.73-.74-1.78-1.16-2.86-1.16s-2.09.4-2.83,1.1Zm17.8,16.53c-2.09-.89-7.87-3.73-9.23-8.37h18.52c-1.47,3.66-6.5,6.93-9.28,8.37Zm16.23-23.09s.09.07.14.1c.91.62,1.93.91,3.03.71-.02,0-.02,0,0,0,.04.03.08.15.07.18,0,0-.02.02-.05.04-1.34.72-2.17,2.11-2.17,3.64,0,.58.14,1.17.37,1.67.05.13.06.19.02.24-.04.04-.09.06-.07.07,0,0-.04-.02-.11-.08-.76-.72-1.77-1.12-2.85-1.12s-2.13.42-2.82,1.11c-.04.03-.06.05-.08.06,0,0-.02,0-.02,0-.05-.02-.12-.08-.13-.12l.03-.1c.26-.55.39-1.14.39-1.75,0-1.51-.83-2.9-2.21-3.68,0-.07.04-.14.05-.17.44.08.8.07,1.21.01.16-.02.31-.05.47-.09.12-.03.28-.07.46-.15.17-.06.33-.14.48-.23.12-.07.24-.15.35-.22.02-.01.03-.02.05-.03.02-.02.04-.03.06-.04.08-.06.17-.13.28-.22.74-.66,1.21-1.5,1.37-2.43h.15s.02.02.03.09c.18.97.71,1.86,1.5,2.5Zm-7.6-24.75c-.99-.08-1.94.32-2.56,1.1-.62.78-.81,1.82-.49,2.78l4.13,12.51-7.43-10.92c-.56-.81-1.46-1.3-2.46-1.28-.98,0-1.89.5-2.46,1.35l-7.17,11,3.85-12.5c.32-.96.14-2-.5-2.79-.57-.7-1.41-1.1-2.27-1.1-.11,0-.21,0-.32.02l-13.07,1.24,12.27-4.8c.92-.38,1.58-1.19,1.79-2.16.2-.96-.08-1.95-.77-2.66l-9.16-9.47,11.4,6.61s.08.04.11.06c.07.04.23.11.44.17.08.03.15.06.24.08.79.2,1.61.03,2.3-.41.09-.05.18-.11.26-.18.03-.02.06-.03.08-.06.02-.02.03-.04.05-.05.01-.01.03-.02.04-.03.02-.02.04-.05.05-.07.15-.15.28-.31.37-.46,0-.01.02-.02.03-.04.01-.02.02-.04.03-.05.02-.03.05-.07.07-.1.02-.03.03-.07.05-.11.03-.06.05-.11.07-.17.09-.23.17-.47.22-.77l1.21-9.25s0-.02,0-.04l.48-3.68h0s1.95,12.89,1.95,12.89c.11.85.58,1.6,1.29,2.07.62.41,1.37.55,2.1.43.07,0,.14-.02.2-.03.02,0,.04,0,.07,0,.07-.02.13-.04.19-.06.01,0,.03,0,.04-.01,0,0,0,0,.01,0,.17-.06.31-.12.4-.16.05-.03.11-.06.16-.09l11.26-6.81-8.98,9.65c-.67.73-.93,1.74-.7,2.7.23.96.93,1.75,1.85,2.09l12.33,4.57-13.09-1Zm30.37,2.27c-1.34.72-2.17,2.1-2.17,3.62,0,.59.13,1.17.38,1.73.02.04.02.09.05.13-.01.04-.1.11-.17.1-.75-.75-1.8-1.19-2.87-1.19s-2.07.41-2.91,1.2c-.04.02-.16-.08-.18-.14.3-.57.45-1.21.45-1.83,0-1.51-.83-2.9-2.18-3.62-.02-.01-.04-.02-.06-.04-.02-.05-.04-.1-.06-.14.04.08.05.11.05.11.03-.04.05-.09.07-.13h.12c.15.03.33.03.5.03,1.98,0,3.68-1.4,4.06-3.34,0-.01.02-.1.02-.12.02,0,.18-.1.22.08.18,1.04.77,1.96,1.62,2.56.02.01.03.03.04.04,0,0,.01,0,.02.01.01,0,.02.02.03.02.12.08.24.14.37.21.08.05.16.1.25.14.15.07.3.12.46.17.08.03.16.06.24.09.18.05.36.07.54.09.07,0,.13.03.2.03.25.02.51.01.77-.01.08,0,.15-.02.23-.04-.06.01-.11.04-.12.03.01,0,.04.05.05.11,0,.01-.04.08-.04.09Zm2.78-3.09s-.04-.03-.06-.05c-.08-.08-.17-.14-.26-.21-.1-.08-.2-.16-.31-.23-.09-.06-.19-.11-.29-.16-.11-.06-.22-.12-.34-.17-.11-.04-.22-.07-.33-.11-.12-.04-.24-.08-.37-.1-.12-.02-.24-.04-.36-.05-.09-.01-.18-.03-.28-.04v-16.11c3.66,1.47,6.92,6.51,8.36,9.29-.71,1.66-2.65,5.67-5.77,7.93Z"/>
</svg>