<?xml version="1.0" encoding="UTF-8"?>
<svg id="icons" xmlns="http://www.w3.org/2000/svg" viewBox="0 0 150 150">
  <defs>
    <style>
      .cls-1 {
        fill: #1d1d1b;
      }
    </style>
  </defs>
  <path class="cls-1" d="m76,21.67c-28.67,0-52,23.33-52,52s23.33,52,52,52,52-23.33,52-52-23.33-52-52-52Zm0,99.99c-26.47,0-48-21.53-48-48s21.53-48,48-48,48,21.53,48,48-21.53,48-48,48Z"/>
  <path class="cls-1" d="m116.78,58.26c-.73-.32-17.96-7.76-27.92-7.76-.07,0-.15,0-.22,0-4.37.05-7.43,1.21-9.11,3.46-1.49,1.99-1.79,4.61-.89,7.81.34,1.21-.2,2.28-.83,2.87-.42.4-1.09.77-1.69.57h0c-1.92-.64-2.07-1.65-1.65-5.04.11-.84.22-1.71.22-2.54,0-2.5-1.11-4.36-3.31-5.53-2.04-1.09-5.06-1.6-9.51-1.6h0c-10.26,0-26.18,9.04-26.85,9.42-.78.44-1.16,1.35-.95,2.22.21.87.98,1.49,1.87,1.52.06,0,6.26.24,12.92,1.95,5.85,1.5,13.28,4.48,15.45,10.11.72,1.88,1.17,4.42,1.34,7.34-3.98,2.75-8.25,5.29-12.05,7.54-8.42,4.98-11.06,6.67-10.67,9.12.11.67.57,1.86,2.51,2.29,2.32.52,5.47.69,8.63.69,3.5,0,6.99-.21,9.36-.39-.94,3.33-2.16,6.5-3.69,9.23-.45.81-.29,1.81.39,2.44.38.35.87.53,1.36.53.38,0,.77-.11,1.1-.33,1.11-.74,9.48-6.4,13.32-12.4,2.86,4,8.53,10.7,15.58,12.66.84.23,1.74-.11,2.21-.84.48-.73.42-1.69-.14-2.36-.04-.05-2.36-2.92-4.56-7.74h15.53c4.89,0,8.12-4.86,8.31-9.37.18-4.33-2.35-9.62-10.07-10.28-5.83-.49-7.38-2.14-9.18-4.04-1.45-1.53-3.05-3.23-6.5-4.17,2.72-5.79,7.63-8.12,11.3-9.86l.62-.29c5.03-2.41,16.99-3.39,17.11-3.4.91-.07,1.66-.76,1.81-1.67s-.33-1.8-1.18-2.16Zm-68.28,40.19c1.81-1.25,4.68-2.95,7.15-4.41,3.16-1.87,6.64-3.93,10.05-6.17-.13,3.3-.55,6.84-1.27,10.34-3.23.27-10.81.8-15.93.24Zm42.21-15.9c2.06,2.18,4.4,4.66,11.75,5.28,6,.51,6.48,4.45,6.41,6.12-.11,2.67-1.87,5.54-4.32,5.54h-17.14c-1.19-3.43-2.12-7.48-2.3-11.98-.12-3.15.15-5.81.69-8.08,2.54.64,3.61,1.76,4.9,3.13Zm6.6-20.67l-.6.29c-5.69,2.7-16.28,7.71-15.58,25.5.2,5.07,1.25,9.58,2.57,13.37-.03.15-.06.3-.06.45,0,.67.33,1.26.84,1.62.6,1.5,1.24,2.87,1.86,4.09-5.28-4.21-8.91-10.41-8.96-10.49-.36-.62-1.02-1-1.73-1-.09,0-.17,0-.26.02-.8.1-1.46.68-1.67,1.46-.76,2.83-4.1,6.3-7.39,9.12.54-1.6,1.02-3.29,1.44-5.03.3-.39.47-.9.41-1.43,0-.06-.02-.11-.04-.17,1.15-5.17,1.76-10.67,1.6-15.64,0-.02,0-.03,0-.05-.12-3.64-.64-7-1.69-9.71-3.59-9.31-16.83-12.71-25.11-13.94,5.39-2.57,13.33-5.84,18.93-5.84h0c3.66,0,6.23.38,7.63,1.13.88.47,1.19.99,1.19,2,0,.58-.09,1.29-.18,2.04-.36,2.83-.96,7.57,4.35,9.34,1.94.64,4.07.09,5.71-1.47,1.87-1.78,2.6-4.41,1.92-6.85-.54-1.93-.46-3.39.24-4.32.88-1.18,2.94-1.82,5.96-1.86,5.26-.04,13.38,2.45,19.22,4.57-3.71.6-7.9,1.51-10.6,2.8Z"/>
  <path class="cls-1" d="m76.02,50.61c1.19,0,10.73-4.42,11.78-13.79,0-.07.01-.21.01-.29v-.2c0-3.81-3.09-6.9-6.89-6.9-1.94,0-3.7.81-4.95,2.11-1.25-1.25-2.98-2.03-4.88-2.03-3.8,0-6.9,3.1-6.9,6.9,0,.13,0,.25,0,.32.26,7.89,10.5,13.89,11.82,13.89Zm-4.93-17.11c1.59,0,2.89,1.29,2.9,2.88,0,.61.3,1.18.78,1.56.48.38,1.12.51,1.71.37.9-.22,1.53-1.06,1.53-1.98,0-1.6,1.3-2.9,2.9-2.9s2.9,1.3,2.9,2.9v.13c-.69,5.71-5.76,8.88-7.72,9.91-2.46-1.49-7.75-5.45-7.9-9.84v-.12c0-1.6,1.3-2.9,2.89-2.9Z"/>
</svg>