<?xml version="1.0" encoding="UTF-8"?>
<svg id="icons" xmlns="http://www.w3.org/2000/svg" viewBox="0 0 150 150">
  <defs>
    <style>
      .cls-1 {
        fill: #1d1d1b;
      }
    </style>
  </defs>
  <path class="cls-1" d="m75,23c-28.67,0-52,23.33-52,52s23.33,52,52,52,52-23.33,52-52-23.33-52-52-52Zm0,100c-26.47,0-48-21.53-48-48s21.53-48,48-48,48,21.53,48,48-21.53,48-48,48Z"/>
  <path class="cls-1" d="m114.52,73.66c.25-.37.47-.76.67-1.16.04-.09.08-.17.12-.26.2-.42.37-.84.52-1.28.02-.06.04-.12.05-.18.15-.47.27-.96.36-1.45.95-5.37-2.05-10.7-7.12-12.68-.69-.27-1.29-.78-1.7-1.45-2.07-3.38-4.64-6.41-7.64-8.99-.61-.52-1.02-1.17-1.15-1.82-.4-2-1.34-3.87-2.72-5.4-3.61-4.01-9.61-4.96-14.28-2.24-.89.52-1.86.54-2.51.47-2.92-.32-5.92-.29-8.76.06-.89.11-1.82-.08-2.69-.56-1.66-.9-3.54-1.37-5.43-1.37-.35,0-.7.02-1.04.05-.09,0-.18.02-.27.03-.26.03-.51.06-.77.11-.08.02-.17.04-.25.05-.27.06-.53.12-.79.19-.06.02-.11.03-.16.05-.3.09-.6.19-.89.31,0,0-.02,0-.03.01-3.19,1.26-5.73,3.92-6.76,7.33-.02.05-.03.11-.05.16-.03.1-.06.19-.09.29-.31,1.2-.91,2.22-1.71,2.96-.06.05-.11.11-.17.17-.5.46-.99.94-1.46,1.43-.2.2-.39.41-.59.61-.44.47-.86.94-1.27,1.43-.2.24-.39.48-.59.72-.36.44-.7.89-1.04,1.35-.17.23-.33.46-.5.69-.43.62-.85,1.25-1.24,1.89-.01.02-.03.04-.04.06-.52.86-1.35,1.56-2.4,2.04-.02,0-.03.02-.05.03-.35.16-.69.35-1.02.55-.09.05-.18.11-.27.17-.31.2-.61.41-.91.63-.02.02-.05.04-.08.06-.31.25-.61.52-.9.8-.07.06-.13.13-.2.2-.28.29-.56.59-.81.91-3.47,4.43-3.23,10.66.57,14.79.35.38.54.83.56,1.31.2,4.37,1.14,8.63,2.78,12.65.16.38.17.8.03,1.21-.68,2.05-.76,4.25-.24,6.36,1.37,5.46,6.63,9.17,12.22,8.64.38-.04.73.06,1.04.28,3.59,2.58,7.55,4.49,11.78,5.68.41.12.77.38,1.02.76,1.2,1.79,2.87,3.19,4.84,4.07,1.49.67,3.07.98,4.63.98,3.84,0,7.58-1.92,9.72-5.32.18-.29.46-.5.8-.59,4.23-1.23,8.2-3.19,11.78-5.82.34-.25.75-.36,1.19-.33,2.17.17,4.32-.29,6.24-1.32.32-.17.63-.36.93-.56.02-.02.05-.03.07-.05,3.86-2.58,5.76-7.2,4.86-11.72,0-.04-.01-.08-.02-.12-.05-.26-.12-.51-.19-.77-.03-.11-.06-.22-.09-.33-.02-.06-.03-.13-.05-.19-.16-.47-.15-.96.02-1.36,1.62-3.81,2.55-6.99,2.55-11.93v-.39c.02-.17.02-.34.03-.52.03-.35.19-.71.47-1.02.02-.02.04-.05.06-.08.3-.34.59-.7.85-1.07.06-.08.12-.17.17-.25Zm-15.58,27.68c-1.39-.1-2.76.28-3.86,1.09-3.2,2.35-6.74,4.1-10.52,5.2-1.27.37-2.36,1.19-3.07,2.3-1.96,3.1-5.97,4.31-9.34,2.82-1.28-.57-2.37-1.48-3.15-2.64-.78-1.17-1.94-2.01-3.26-2.39-3.78-1.07-7.33-2.78-10.54-5.08-.94-.68-2.07-1.04-3.23-1.04-.18,0-.35,0-.53.03-3.64.35-7.06-2.07-7.95-5.62-.34-1.37-.29-2.8.15-4.13.43-1.31.39-2.72-.13-3.98-1.47-3.6-2.31-7.41-2.49-11.32-.06-1.41-.64-2.77-1.61-3.83-.62-.67-1.09-1.43-1.42-2.23-.33-.8-.51-1.65-.54-2.51-.06-1.71.46-3.44,1.59-4.89.16-.21.34-.4.52-.59.07-.07.14-.13.2-.2.12-.11.24-.22.37-.33.08-.07.17-.14.25-.21.16-.12.33-.24.5-.35.09-.06.19-.12.29-.17.17-.1.34-.19.51-.27.55-.26,1.12-.46,1.73-.59.59-.12,1.1-.5,1.38-1.04.43-.83.91-1.64,1.41-2.43.26-.41.52-.81.79-1.2.17-.24.33-.48.51-.72.28-.39.58-.77.88-1.14.22-.28.44-.55.67-.82.36-.43.73-.85,1.12-1.26.19-.21.4-.41.6-.61.33-.34.67-.67,1.02-.99.72-.67,1.45-1.32,2.22-1.92.47-.37.76-.94.77-1.54.01-.67.12-1.32.3-1.94.09-.31.19-.61.32-.9.06-.13.13-.26.19-.39.09-.17.18-.34.28-.5.14-.23.3-.46.46-.67.09-.11.17-.23.27-.34.13-.15.26-.3.4-.44.11-.11.23-.21.35-.32.2-.18.41-.34.62-.49.15-.1.29-.2.45-.29.16-.1.33-.19.5-.28.23-.11.46-.22.7-.31.1-.04.21-.08.31-.11.32-.1.64-.19.97-.25.08-.01.15-.02.23-.04.37-.06.74-.09,1.11-.09,1.23,0,2.46.31,3.54.89,1.61.87,3.37,1.22,5.08,1.01,2.54-.31,5.22-.33,7.84-.05,1.8.2,3.51-.15,4.96-.99,3.04-1.77,6.95-1.16,9.3,1.46.9,1,1.51,2.21,1.77,3.51.3,1.52,1.18,2.96,2.46,4.06.67.58,1.32,1.18,1.94,1.81,1.87,1.88,3.51,3.97,4.9,6.24.86,1.41,2.16,2.5,3.66,3.09,3.3,1.29,5.25,4.76,4.63,8.26-.05.31-.13.61-.22.9-.02.07-.04.14-.07.21-.09.28-.2.55-.33.82-.03.07-.07.13-.1.19-.11.22-.24.43-.37.64-.04.06-.08.13-.12.19-.17.24-.35.47-.54.69-.26.29-.53.56-.83.81-.46.38-.72.94-.72,1.54v.37c0,.34-.02.67-.03,1.01,0,.02,0,.03,0,.05l-.02.77c-.22,4.15-1.17,8.16-2.86,11.94-.25.55-.23,1.19.05,1.72.21.42.38.85.51,1.28.02.06.04.12.05.18.06.21.1.42.14.63,0,0,0,0,0,0,.45,2.6-.53,5.31-2.58,7.03-.02.01-.03.03-.05.04-.16.13-.33.25-.5.37-.03.02-.07.05-.1.07-.2.13-.41.26-.63.38-1.25.67-2.65.96-4.05.86Z"/>
  <path class="cls-1" d="m101.89,79.47l-16.78-6.79,12.72-12.87c.7-.71.77-1.83.17-2.62-.61-.79-1.7-1.02-2.57-.53l-15.76,8.89-2.13-17.97c-.12-.99-.95-1.74-1.94-1.76-1-.04-1.86.7-2.02,1.68l-2.89,17.87-15.38-9.54c-.85-.53-1.95-.35-2.59.42-.64.77-.61,1.89.06,2.62l12.17,13.4-17.05,6.08c-.94.33-1.49,1.31-1.29,2.29.2.98,1.11,1.66,2.09,1.59l18.06-1.17-5.88,17.11c-.32.94.1,1.98.99,2.43.89.45,1.98.18,2.55-.64l10.35-14.84,9.72,15.26c.38.59,1.02.93,1.69.93.28,0,.56-.06.83-.18.91-.41,1.37-1.43,1.09-2.39l-5.16-17.35,18,1.92c.99.11,1.91-.54,2.15-1.5.03-.12.05-.24.06-.36.05-.84-.44-1.65-1.25-1.98Zm-21.52-2.37c-.67-.07-1.32.2-1.75.71-.43.51-.57,1.21-.38,1.85l1.94,6.53-3.65-5.74c-.36-.56-.98-.91-1.65-.93-.01,0-.03,0-.04,0-.65,0-1.27.32-1.64.86l-3.9,5.59,2.21-6.44c.22-.63.1-1.33-.3-1.86-.1-.13-.22-.25-.35-.35-.39-.31-.87-.46-1.37-.43l-6.8.44,6.41-2.29c.63-.22,1.11-.75,1.27-1.4.16-.65,0-1.34-.46-1.83l-4.59-5.05,5.79,3.59c.57.35,1.28.4,1.88.12.61-.28,1.04-.84,1.15-1.5l1.09-6.73.8,6.77c.08.66.48,1.25,1.08,1.55.6.3,1.3.29,1.89-.04l5.92-3.34-4.78,4.83c-.47.48-.67,1.15-.54,1.81.14.66.59,1.2,1.21,1.45l6.32,2.56-6.78-.72Z"/>
</svg>