<?xml version="1.0" encoding="UTF-8"?>
<svg id="icons" xmlns="http://www.w3.org/2000/svg" viewBox="0 0 150 150">
  <defs>
    <style>
      .cls-1 {
        fill: #1d1d1b;
      }
    </style>
  </defs>
  <path class="cls-1" d="m75,23.01c-28.67,0-52,23.33-52,52s23.33,52,52,52,52-23.33,52-52-23.33-52-52-52Zm0,99.99c-26.47,0-48-21.53-48-48s21.53-48,48-48,48,21.53,48,48-21.53,48-48,48Z"/>
  <path class="cls-1" d="m104.49,49.85c-4.88-2.68-8.73-2.62-11.88-1.54-1.27-8.59-8.67-15.2-17.61-15.2-9.83,0-17.83,7.99-17.83,17.81,0,.41.02.81.04,1.22-.53-.21-1.05-.44-1.59-.69-3.19-1.45-7.16-3.26-12.42,2.63-.74.82-.66,2.09.16,2.82.38.34.86.51,1.33.51.55,0,1.1-.23,1.49-.67,3.3-3.69,4.89-2.97,7.78-1.66,1.23.56,2.57,1.16,4.11,1.45.31.92.68,1.82,1.14,2.68-4.39,6.31-8.63,14.13-8.63,24.45,0,17.86,10.95,32.39,24.4,32.39s24.4-14.53,24.4-32.39c0-9.59-3.09-18.46-8.54-24.63,1.04-2.01,1.67-4.22,1.88-6.49,2.62-1.28,5.56-1.53,9.82.81.97.53,2.18.18,2.72-.79.53-.97.18-2.18-.79-2.72Zm-29.49-12.74c7.39,0,13.43,5.83,13.79,13.13-.96.62-1.84,1.28-2.66,1.9-1.18.89-2.3,1.74-3.4,2.31-2.36,1.23-4.37,1.55-5.79.96,1.68-.01,3.19-.82,4.22-2.28,1.36-1.94,1.55-4.69.47-6.84-1.15-2.28-3.54-3.64-6.57-3.72-5.33-.11-7.19,3.08-8.68,5.67-1.23,2.14-2.24,3.87-5.09,4.36-.07-.55-.11-1.11-.11-1.68,0-7.62,6.2-13.81,13.83-13.81Zm20.4,46.56c0,15.65-9.15,28.39-20.4,28.39s-20.4-12.74-20.4-28.39c0-9.75,4.15-16.9,8.63-23.18.47-.66.5-1.55.06-2.24-.36-.57-.68-1.17-.95-1.79,4.43-.91,6.19-3.95,7.5-6.23,1.46-2.53,2.29-3.74,5.11-3.67,1.08.03,2.49.32,3.1,1.52.48.96.28,2.11-.17,2.75-.41.58-.86.59-1.17.56-.22-.03-.42-.06-.59-.1.56,0,1.12-.24,1.51-.69.72-.84.63-2.1-.21-2.82-1.23-1.06-2.87-1.2-4.28-.37-.9.53-1.55,1.38-1.86,2.32,0,.03-.03.05-.03.08,0,0,0,.02,0,.02-.04.14-.07.28-.09.42-.69,2.87.25,5.94,2.44,7.76.93.77,2.53,1.69,4.89,1.69,1.65,0,3.68-.45,6.11-1.72,1.18-.62,2.29-1.41,3.37-2.22-.33.87-.74,1.7-1.24,2.48-.5.79-.39,1.81.26,2.48,5.28,5.36,8.43,13.93,8.43,22.94Z"/>
  <path class="cls-1" d="m71.21,66.41c-3.74,0-6.79,3.7-6.79,8.25,0,3.04,1.37,5.7,3.39,7.13,2.02,9.13-3.97,15.81-4.23,16.1-.75.81-.71,2.08.1,2.83.39.36.87.54,1.36.54.54,0,1.07-.21,1.47-.64.31-.33,6.88-7.55,5.56-17.77,3.34-.51,5.93-3.98,5.93-8.17,0-4.55-3.05-8.25-6.79-8.25Zm0,12.49c-1.51,0-2.79-1.95-2.79-4.25s1.28-4.25,2.79-4.25,2.79,1.94,2.79,4.25-1.28,4.25-2.79,4.25Z"/>
  <path class="cls-1" d="m80.65,63.36c-.73-.22-1.33-.28-1.66-.29l-2.06-.33c-6.39-1.05-7.91-1.3-11.56.95-1.94,1.19-3.17,2.54-4.13,4.5-1.52,3.11-1.8,6.86-.79,10.55.16.58.18.91.18,1.06-.09.05-.22.12-.32.17-.83.41-2.54,1.26-2.53,3.77,0,1.4.57,2.66,1.6,3.53,1.18,1,2.87,1.42,4.63,1.13,1.09-.17,1.83-1.2,1.66-2.29-.17-1.09-1.2-1.84-2.29-1.66-.71.11-1.2-.05-1.41-.23-.09-.08-.19-.2-.19-.5v-.02c.09-.05.21-.11.31-.16,1.67-.83,3.24-2.18,2.22-5.87-.76-2.74-.57-5.49.52-7.72.52-1.05,1.16-1.94,2.63-2.85,2.34-1.44,2.5-1.44,8.82-.41l2.21.36c.1.02.25.02.35.03,0,0,.27,0,.64.12.91.28,2.47,2.23,2.69,3.37.02.09.04.17.07.26l.87,2.57c-.72.29-1.24.98-1.26,1.8l-.1,3.14c-.39.09-.75.3-1.03.61-.4.44-.58,1.04-.49,1.62l2.74,18.97c.14,1,1,1.71,1.98,1.71.1,0,.19,0,.29-.02,1.09-.16,1.85-1.17,1.69-2.27l-2.52-17.42c.08-.06.15-.12.22-.19.68-.64,1.07-1.5,1.1-2.43l.06-1.75h.12c.63-.03,1.2-.36,1.56-.87.35-.52.44-1.17.24-1.77l-1.64-4.87c-.53-2.38-2.91-5.53-5.42-6.29Z"/>
</svg>