<?xml version="1.0" encoding="UTF-8"?>
<svg id="icons" xmlns="http://www.w3.org/2000/svg" viewBox="0 0 150 150">
  <defs>
    <style>
      .cls-1 {
        fill: #1d1d1b;
      }
    </style>
  </defs>
  <path class="cls-1" d="m103.65,76.58c.35-.23.63-.58.77-1,.36-1.04-.19-2.18-1.23-2.55l-9-3.13c-1.69-.59-3.57-.45-5.16.38-.13.07-.25.14-.37.22-.23-.72-.52-1.41-.86-2.07.01,0,.02,0,.03,0,1.84-.46,3.41-1.68,4.3-3.35l4.51-8.49c.52-.98.15-2.19-.83-2.7-.5-.26-1.06-.3-1.55-.14.04-.42-.06-.85-.29-1.23-.58-.94-1.82-1.23-2.75-.64l-8.1,5.03c-1.52.94-2.6,2.49-2.95,4.24-.03.15-.05.29-.07.44-.93-.34-1.9-.59-2.91-.74.01-.02.02-.05.03-.07.71-1.76.65-3.74-.19-5.45l-4.22-8.64c-.49-.99-1.68-1.4-2.68-.92-.51.25-.86.68-1.02,1.18-.32-.28-.72-.45-1.17-.49-1.09-.09-2.06.75-2.14,1.85l-.69,9.5c-.13,1.79.49,3.56,1.7,4.88.15.16.3.31.46.45-.64.44-1.24.94-1.8,1.47-.05-.09-.09-.19-.14-.28-.92-1.66-2.5-2.86-4.35-3.28l-9.37-2.15c-1.08-.25-2.15.42-2.4,1.5-.13.55-.01,1.1.27,1.54-.41.07-.81.27-1.11.6-.76.81-.72,2.07.09,2.83l6.95,6.52c1.21,1.13,2.82,1.77,4.46,1.77.13,0,.27,0,.4-.01.3-.02.59-.06.88-.12-.04.43-.07.87-.07,1.31,0,.38.03.75.06,1.12-.17-.05-.35-.09-.52-.12-1.87-.33-3.8.15-5.29,1.32l-7.57,5.93c-.87.68-1.02,1.94-.34,2.81.35.44.84.7,1.36.76-.2.37-.3.8-.23,1.25.14,1,1,1.73,1.98,1.73.09,0,.18,0,.27-.02l9.44-1.3c1.77-.24,3.39-1.22,4.42-2.68.2-.28.36-.57.51-.86.58.59,1.22,1.12,1.89,1.6-.16.12-.33.24-.48.38-1.43,1.24-2.27,3.04-2.31,4.94l-.16,9.61c-.02,1.1.86,2.01,1.97,2.03.55.03,1.08-.21,1.45-.58.16.39.44.73.82.96.32.2.68.29,1.03.29.68,0,1.34-.34,1.71-.97l4.93-8.15c.93-1.53,1.18-3.4.7-5.12-.08-.29-.19-.57-.31-.84.82-.07,1.61-.21,2.38-.42,0,.15-.01.31,0,.47.06,1.9.93,3.68,2.39,4.9l7.37,6.17c.37.31.83.47,1.28.47.57,0,1.14-.24,1.53-.72.36-.43.51-.97.46-1.49.4.12.84.12,1.27-.03,1.04-.37,1.58-1.52,1.2-2.56l-3.23-8.97c-.61-1.68-1.9-3.06-3.54-3.77-.2-.09-.4-.16-.6-.22.43-.64.8-1.31,1.12-2.02.06.04.11.09.16.14,1.17.88,2.59,1.35,4.03,1.35.43,0,.85-.04,1.28-.12l9.43-1.84c1.08-.21,1.79-1.26,1.58-2.35-.11-.55-.43-1.01-.87-1.29Zm-42.27,6.69c-.4.56-1.02.94-1.71,1.03l-8.56,1.18,6.65-5.21c.48-.37,1.06-.57,1.65-.57.16,0,.31.01.47.04.37.07,1.06.28,1.5.99.17.27.29.57.36.91.11.56-.02,1.14-.37,1.63Zm13.82,1.67c-5.59,0-10.14-4.55-10.14-10.14s4.55-10.14,10.14-10.14,10.14,4.55,10.14,10.14-4.55,10.14-10.14,10.14Zm8.88-23.03c.14-.68.55-1.27,1.14-1.64l7.34-4.56-3.96,7.47c-.36.67-.99,1.16-1.72,1.35-.37.09-1.09.17-1.77-.29-.26-.18-.49-.4-.7-.69-.33-.46-.44-1.05-.32-1.64Zm-14.36-12.45l3.71,7.59c.33.68.36,1.48.08,2.19-.14.35-.5.98-1.28,1.26-.3.11-.61.16-.97.16-.57,0-1.11-.26-1.52-.7-.47-.51-.71-1.19-.65-1.88l.63-8.62Zm-9.72,20.16c-.68.05-1.37-.2-1.88-.68l-6.3-5.91,8.24,1.89c.74.17,1.38.65,1.75,1.32.18.33.45,1.01.18,1.79-.1.3-.26.58-.48.85-.36.44-.9.7-1.5.74Zm12.58,23.15l-4.47,7.39.14-8.45c.01-.76.35-1.48.92-1.98.25-.22.76-.56,1.44-.56.09,0,.18,0,.27.02.31.04.62.13.93.3.5.26.87.73,1.03,1.31.19.66.09,1.38-.27,1.98Zm17.63,3.42l-6.48-5.43c-.58-.49-.93-1.21-.96-1.97-.01-.38.06-1.1.65-1.67.23-.22.49-.4.82-.54.25-.11.52-.16.79-.16.29,0,.59.06.88.19.63.27,1.13.8,1.36,1.46l2.93,8.13Zm2.53-18.05c-.75.14-1.52-.03-2.13-.49-.3-.23-.82-.74-.89-1.56-.03-.32,0-.63.1-.98.15-.55.53-1,1.07-1.28.36-.19.76-.28,1.16-.28.28,0,.56.05.83.14l8.16,2.84-8.29,1.62Z"/>
  <path class="cls-1" d="m75,23c-28.67,0-52,23.33-52,52s23.33,52,52,52,52-23.33,52-52-23.33-52-52-52Zm0,100c-26.47,0-48-21.53-48-48s21.53-48,48-48,48,21.53,48,48-21.53,48-48,48Z"/>
  <path class="cls-1" d="m117.04,63.66c-1.49-1.47-3.67-2.14-5.81-1.78-.07,0-.15.02-.22.04l-6.33,1.53c-.14.03-.3,0-.4-.11-.12-.12-.13-.26-.12-.36.01-.1.06-.23.21-.31l4.04-2.23s.06-.04.09-.05c3.6-2.24,4.77-6.86,2.66-10.54-1.47-2.53-3.57-3.97-6.22-4.29-.05,0-.1,0-.15-.01-.98-.04-1.73-.39-1.95-.92-.26-.61-.36-1.42-.38-1.69,0-.05,0-.1-.01-.15h0c-.04-.33-.1-.66-.19-1.02-.21-.78-.52-1.52-.92-2.21-1.83-3.15-5.36-4.85-8.98-4.34-1.97.28-3.71,1.51-4.76,3.35-.04.07-.08.14-.11.21l-2.79,5.88c-.06.13-.19.22-.34.24-.17.02-.29-.06-.35-.13-.07-.07-.14-.19-.11-.36l.81-4.55s.01-.07.02-.1c.53-4.21-2.33-8.03-6.51-8.7-2.89-.45-5.33.27-7.25,2.14-.04.04-.07.07-.11.11-.65.74-1.39,1.1-1.94.94-.64-.18-1.34-.62-1.55-.77,0,0-.02-.01-.03-.02-.03-.02-.06-.04-.09-.06h0c-.28-.18-.58-.33-.92-.49-.74-.33-1.51-.56-2.3-.68-3.49-.54-6.97,1.03-8.87,4.01-1.13,1.76-1.33,4.03-.53,6.06.02.07.05.13.08.2l2.51,5.23c.23.47.17,1.02-.15,1.44-.34.44-.78.53-1.02.54-.24.01-.69-.02-1.08-.42l-2.69-2.8s-.05-.05-.08-.07c-3.1-2.9-7.86-2.83-10.87.16-2.06,2.08-2.91,4.47-2.53,7.12,0,.05.02.1.03.15.21.96.07,1.77-.38,2.12-.53.41-1.29.72-1.54.8l-.05.02s-.06.02-.09.03h0c-.31.12-.61.27-.94.45-.7.4-1.34.89-1.9,1.46-2.57,2.59-3.3,6.43-1.86,9.79.78,1.83,2.42,3.19,4.49,3.73.07.02.14.04.21.05l6.4,1.17c.14.03.27.13.32.27.06.16.01.29-.04.38-.05.08-.15.18-.32.2l-4.6.39s-.07,0-.11.01c-4.2.58-7.15,4.33-6.72,8.54.32,2.91,1.64,5.08,3.94,6.45.04.03.09.05.14.07.88.43,1.42,1.06,1.41,1.63,0,.67-.25,1.46-.34,1.7,0,0,0,0,0,0-.02.04-.03.09-.04.13h0c-.1.32-.17.64-.24,1.01-.13.8-.15,1.6-.06,2.39.38,3.5,2.8,6.46,6.17,7.53,1.97.62,4.18.25,5.97-1.04.07-.04.13-.09.19-.15l4.94-4.24c.11-.1.27-.13.41-.08.17.05.24.17.27.27.03.09.05.23-.05.37l-2.59,3.82s-.04.06-.06.09c-2.19,3.63-1.14,8.28,2.41,10.6,2.46,1.59,4.98,1.92,7.49,1,.05-.02.1-.04.14-.06.89-.41,1.72-.44,2.16-.07.51.43.98,1.11,1.11,1.34,0,0,0,0,0,0,.02.04.05.08.08.12.18.28.39.54.63.82.54.6,1.15,1.12,1.82,1.56,1.47.95,3.14,1.42,4.82,1.42,1.71,0,3.42-.49,4.91-1.47,1.74-1.15,2.84-3.13,2.95-5.31,0-.08,0-.15,0-.23l-.19-6.51c0-.15.07-.29.19-.37.15-.09.28-.07.37-.04.09.03.21.11.26.27l1.34,4.42s.02.07.03.1c1.44,3.99,5.73,6.09,9.75,4.79,2.78-.91,4.63-2.66,5.49-5.19.02-.05.03-.1.04-.15.24-.95.74-1.61,1.3-1.72.65-.13,1.48-.06,1.73-.02,0,0,0,0,.01,0,.04,0,.09.01.13.02h0c.33.03.67.04,1.04.02.81-.04,1.6-.19,2.35-.44,3.47-1.14,5.86-4.23,6.11-7.88.13-1.98-.7-3.92-2.29-5.35,0,0,0,0-.01-.01-.1-.1-.22-.18-.34-.26l-6.05-4.33c-.17-.12-.21-.35-.11-.52.1-.16.3-.23.48-.16l5.37,2.19s.07.03.1.04c4.01,1.39,8.34-.61,9.86-4.56,1.04-2.74.84-5.27-.58-7.53-.03-.04-.06-.09-.09-.13-.58-.79-.78-1.59-.52-2.1.31-.59.89-1.19,1.08-1.36,0,0,0,0,0,0,.03-.03.07-.06.1-.1.23-.24.45-.5.67-.79.48-.65.86-1.36,1.14-2.1,1.25-3.3.44-7.03-2.08-9.51Zm-1.66,8.09c-.16.41-.37.81-.62,1.14-.09.12-.18.24-.29.34-.24.22-1.25,1.19-1.9,2.43-.99,1.89-.69,4.23.8,6.27.72,1.17.78,2.39.2,3.91-.73,1.91-2.82,2.88-4.77,2.23l-5.32-2.17c-2-.81-4.27-.07-5.4,1.77-1.2,1.95-.68,4.53,1.19,5.87l6.11,4.37c.62.58.96,1.34.92,2.06-.13,2.01-1.46,3.72-3.37,4.34-.42.14-.86.22-1.27.24-.15,0-.3,0-.45,0-.32-.05-1.71-.22-3.08.06-2.09.42-3.72,2.12-4.38,4.57-.46,1.3-1.37,2.11-2.92,2.62-1.94.63-4.02-.38-4.74-2.3l-1.32-4.36c-.41-1.34-1.39-2.39-2.71-2.87-1.31-.48-2.74-.33-3.92.43-1.29.83-2.07,2.31-2.03,3.85l.18,6.41c-.04.92-.47,1.73-1.16,2.18-1.63,1.07-3.73,1.08-5.37.03-.37-.24-.71-.53-.99-.84-.1-.11-.19-.23-.28-.35-.16-.28-.91-1.47-1.98-2.36-1.64-1.36-3.99-1.56-6.3-.53-1.3.46-2.5.26-3.87-.62-1.71-1.12-2.23-3.36-1.19-5.13l2.56-3.77c.79-1.16.98-2.58.53-3.91s-1.47-2.34-2.8-2.77c-1.46-.48-3.1-.16-4.26.84l-4.87,4.18c-.74.54-1.64.71-2.41.47-1.86-.59-3.19-2.22-3.4-4.15-.05-.44-.04-.89.03-1.29.03-.15.06-.3.1-.44.11-.31.57-1.63.59-3.03.03-2.13-1.3-4.08-3.56-5.23-1.17-.72-1.78-1.77-1.95-3.4-.21-2.03,1.21-3.85,3.24-4.15l4.54-.39c1.4-.12,2.62-.87,3.37-2.05s.89-2.61.39-3.92c-.55-1.44-1.83-2.51-3.34-2.78l-6.31-1.15c-.85-.22-1.54-.76-1.83-1.44-.79-1.85-.39-3.97,1.02-5.4.31-.31.67-.59,1.03-.79.13-.07.27-.14.41-.2.32-.11,1.62-.59,2.72-1.45,1.68-1.32,2.35-3.58,1.83-6.06-.18-1.36.26-2.5,1.41-3.66,1.45-1.44,3.75-1.48,5.27-.1l2.65,2.76c1.09,1.13,2.6,1.73,4.18,1.65,1.57-.09,3.02-.85,3.97-2.1,1.24-1.62,1.46-3.77.58-5.6l-2.47-5.15c-.33-.85-.27-1.77.17-2.46,1.05-1.64,2.97-2.51,4.89-2.21.44.07.87.19,1.24.36.14.06.27.13.4.21.27.19,1.43.97,2.77,1.35,2.05.58,4.28-.2,5.97-2.08,1-.95,2.17-1.26,3.79-1.01,2.02.32,3.4,2.16,3.17,4.2l-.8,4.49c-.25,1.38.16,2.76,1.11,3.78.95,1.03,2.3,1.54,3.69,1.39,1.53-.15,2.89-1.11,3.55-2.51l2.74-5.79c.44-.77,1.13-1.29,1.87-1.4,1.99-.29,3.94.65,4.95,2.39.22.38.39.8.5,1.2.04.14.07.29.09.44.02.32.14,1.72.7,3.01.84,1.96,2.85,3.2,5.38,3.33,1.36.18,2.34.9,3.17,2.31,1.02,1.77.46,4.01-1.27,5.11l-3.99,2.2c-1.23.68-2.04,1.86-2.24,3.24-.2,1.39.25,2.75,1.24,3.75,1.08,1.09,2.69,1.54,4.18,1.18l6.24-1.51c.9-.15,1.79.1,2.37.68,1.39,1.37,1.84,3.43,1.15,5.24Z"/>
</svg>