<?xml version="1.0" encoding="UTF-8"?>
<svg id="icons" xmlns="http://www.w3.org/2000/svg" viewBox="0 0 150 150">
  <defs>
    <style>
      .cls-1 {
        fill: #1d1d1b;
      }
    </style>
  </defs>
  <path class="cls-1" d="m75.2,23c-28.67,0-52,23.33-52,52s23.33,52,52,52,52-23.33,52-52-23.33-52-52-52Zm0,100c-26.47,0-48-21.53-48-48s21.53-48,48-48,48,21.53,48,48-21.53,48-48,48Z"/>
  <path class="cls-1" d="m110.77,56.25c-4.82-7.97-10.34-13.12-17.37-16.23,0,0-.01,0-.02,0,0,0-.01,0-.02,0-10.15-4.22-20.1-2.92-28.77,3.78-.02.01-.04.03-.06.05-3.61,2.79-5.76,6.85-5.91,11.16-.1,2.81.65,6.77,4,11.3-.49-.04-.99-.08-1.51-.08-5.46,0-9.58,2.58-9.58,6,0,2.89,2.96,5.18,7.17,5.81-.81.8-1.48,1.65-1.97,2.52-1.17,2.05-1.27,4.11-.29,5.64.88,1.37,2.5,2.13,4.53,2.13.23,0,.48,0,.72-.03.86-.07,1.76-.27,2.67-.58-.39,1.09-.64,2.17-.73,3.17-.28,3.28,1.18,4.63,2.08,5.15.43.25,1.09.51,1.97.51.94,0,2.13-.31,3.53-1.29.87-.61,1.73-1.42,2.52-2.37,1.1,3.59,3.38,5.96,5.88,5.96.19,0,.38-.01.57-.04,2.96-.43,4.77-4.05,4.48-8.64,1.62,1.9,3.18,4.36,3.44,6.98.26,2.75-.48,5.11-2.22,7.02-2.92,3.21-8.39,4.91-15.83,4.92-9.87-.76-16.92-4.19-22.86-11.08-5.59-6.49-8.66-14.79-8.66-23.36,0-9.81,3.89-18.97,10.96-25.79.79-.77.82-2.03.05-2.83-.77-.8-2.03-.82-2.83-.05-7.85,7.58-12.18,17.76-12.18,28.67,0,9.53,3.42,18.75,9.63,25.97,3.13,3.64,6.62,6.45,10.57,8.48l1.18.58c4.09,1.9,8.69,3.02,13.91,3.41h.15c8.64,0,15.16-2.15,18.86-6.23,2.49-2.74,3.61-6.23,3.24-10.1-.43-4.42-3.3-8.22-5.79-10.74.67.1,1.37.15,2.09.15,5.25,0,9.2-2.61,9.2-6.06,0-2.62-2.28-4.75-5.66-5.63.54-.46,1.02-.94,1.43-1.44,1.48-1.82,1.91-3.82,1.2-5.48-1.07-2.49-4.31-3.46-8.11-2.67.34-.96.56-1.91.64-2.81.21-2.35-.55-4.27-2.07-5.26-2.25-1.46-5.44-.49-8.15,2.2-.81-3.74-2.97-6.28-5.65-6.28-3.42,0-6,4.12-6,9.58,0,.25.01.49.02.73-1.8-2.69-2.7-5.37-2.61-7.93.11-3.08,1.66-6,4.26-8.06l.28-.16h0c.08-.05.15-.09.19-.12.21-.15.38-.3.51-.47,7.35-5.3,15.4-6.19,23.94-2.64,6.32,2.8,11.12,7.31,15.55,14.63,6.9,11.4,5.52,30.26-7.52,40.14-.88.67-1.05,1.92-.39,2.8.39.52.99.79,1.6.79.42,0,.85-.13,1.21-.41,15.24-11.55,16.29-32.56,8.53-45.4Zm-39.43,15.64c.24,0,.47-.04.69-.08.96.13,2.72.89,4.52,2.91h0c1.12,1.25,1.94,2.69,2.25,3.93.24.96.09,1.47-.02,1.56-.38.34-2.77-.1-5.21-2.84-.24-.27-.44-.53-.64-.8-.1-.25-.21-.49-.36-.72-.15-.24-.34-.45-.54-.66-.93-1.73-.97-3.05-.7-3.31Zm-15.81.32c0-.51,1.92-2,5.58-2s5.58,1.48,5.58,2-1.92,2-5.58,2-5.58-1.48-5.58-2Zm5.82,12.09c-.98.08-1.46-.14-1.54-.27-.08-.12-.08-.65.4-1.51.63-1.11,1.81-2.27,3.22-3.18,1.42-.91,2.96-1.49,4.24-1.6.15-.01.28-.02.4-.02.42,0,.7.06.89.14.09.15.19.3.29.44-.05.78-1.02,2.7-3.67,4.4-1.42.91-2.96,1.49-4.24,1.59Zm10.64,4.09c-1.7,2.95-3.64,4.11-4.27,4.14-.28-.56-.25-2.82,1.45-5.77,1.7-2.95,3.64-4.11,4.27-4.14.28.56.25,2.82-1.45,5.77Zm7.62,6.44c-.41,0-1.96-1.54-2.44-4.87-.48-3.33.58-5.24.96-5.36.41,0,1.96,1.54,2.44,4.87.48,3.33-.58,5.24-.96,5.36Zm13.97-14.73c0,.6-1.82,2.06-5.2,2.06s-5.2-1.46-5.2-2.06,1.82-2.06,5.2-2.06,5.2,1.46,5.2,2.06Zm-4.62-11.5c1.12,0,1.81.28,1.92.52.06.13-.03.64-.63,1.39-.8.98-2.13,1.92-3.65,2.58h0c-3.32,1.42-5.63.83-5.83.37-.2-.46.97-2.54,4.29-3.96,1.57-.67,2.91-.89,3.91-.89Zm-6.35-8.48c.1,0,.18.02.23.05.12.08.35.56.26,1.54-.11,1.28-.7,2.82-1.62,4.23-1.99,3.08-4.28,3.87-4.71,3.6-.12-.08-.35-.56-.26-1.54.11-1.28.7-2.82,1.62-4.23,1.75-2.71,3.73-3.66,4.47-3.66Zm-11.39-3.39c.51,0,2,1.92,2,5.58,0,3.21-1.14,5.08-1.77,5.49-.13,0-.25.02-.37.03-.6-.27-1.85-2.15-1.85-5.53,0-3.66,1.48-5.58,2-5.58Z"/>
</svg>