<?xml version="1.0" encoding="UTF-8"?>
<svg id="icons" xmlns="http://www.w3.org/2000/svg" viewBox="0 0 150 150">
  <defs>
    <style>
      .cls-1 {
        fill: #1d1d1b;
      }
    </style>
  </defs>
  <path class="cls-1" d="m123.18,56.47c-.04-.19-.11-.37-.2-.53-4.12-10.36-11.6-19.25-21.11-25.08-.15-.12-.3-.22-.47-.29-7.87-4.72-16.88-7.25-26.1-7.33-.24-.11-.51-.17-.8-.17-.3,0-.59.07-.84.19-27.98.61-50.61,23.65-50.61,51.75,0,.34,0,.67.02.94,0,.02,0,.04,0,.07,0,.05.01.1.01.14.49,23.05,16.4,43.18,38.72,48.96,4.22,1.1,8.61,1.65,13.03,1.65,3.33,0,6.65-.32,9.86-.95,24.29-4.68,41.92-26.05,41.92-50.82,0-6.37-1.15-12.6-3.42-18.53Zm-48.36-19.63c5.5,0,9.64,4.25,9.64,9.88,0,4.19-2.45,5.99-2.53,6.05,0,0,0,0-.01.01-.12.08-.23.17-.33.28-.01.01-.02.03-.04.04,0,0,0,0,0,0-1.2,1.29-2.34,2.68-3.04,4.37,0,.02-.02.04-.03.07-.26.75-1.35,1.43-2.71,1.69-1.9.37-4.58-.03-6.56-2.13-.56-1.49-1.41-2.98-2.65-4.48-.01-.01-.02-.02-.04-.04-.01-.01-.02-.03-.03-.04-.08-.09-1.92-2.18-1.73-5.56.32-5.79,4.64-10.15,10.05-10.15Zm10.67,73.72c-1.45-.48-2.54-1.33-3.3-2.58-2.39-3.93-1.7-11.89,1.84-21.3l.16-.42c.8-2.14,1.5-3.99,1.97-5.76.26-.94.41-1.81.51-2.66.03-.12.04-.24.04-.35.09-.88.08-1.73,0-2.56.15-.08.3-.15.45-.23,1.65-.94,2.95-2.31,3.66-3.87.02-.04.03-.08.05-.12.79,7.7-1.09,21.75-5.38,39.83Zm-11.02-47.2c.73,0,1.42-.07,2.06-.19.5-.1.97-.24,1.42-.4.11.76.31,1.58.59,2.45-3.34,1.02-6.75,2.8-9.73,5.1.65-2.48,1.3-5.11,1.33-7.82,1.46.6,2.96.85,4.33.85Zm10.73,7.87c-.16.09-.31.17-.44.23-1.67.76-3.23.5-3.64-.21-.06-.1-.22-.39-.06-1.01.24-.93,1.05-1.85,2.16-2.49.84-.48,1.71-.69,2.43-.69.78,0,1.4.25,1.64.68.28.5.03,1.17-.09,1.44-.36.79-1.08,1.53-1.99,2.05Zm-17.55,8.71l-.12-.89c-.08-.58-.1-1.18-.07-1.79.18-.3.59-.85,1.26-1.55,4.36,1.36,6.76,5.46,7.77,7.68-2.33,1.15-5.11,1.9-8.14,2.12-.21-2.08-.48-3.98-.7-5.57Zm4.51-7.12c1.22-.87,2.9-1.91,4.89-2.79-.15,1.14.04,2.23.59,3.2.99,1.74,2.94,2.68,5.16,2.69,0,.35,0,.7-.03,1.06-.53,1.56-1.53,2.98-2.9,4.19-1.22-2.51-3.62-6.25-7.71-8.34Zm10.09-9.03c-.66-2.08-.58-3.57-.02-4.87,0-.02.02-.04.03-.07,0,0,0,0,0-.01.28-.63.67-1.21,1.14-1.79,2.32,1.72,4.11,4.52,5.25,6.71-1.77-.92-4.13-.95-6.41.02Zm-17.78-7.24c.48.75.85,1.51,1.11,2.26,0,0,0,0,0,.01,1.2,3.5.28,7.02-.76,10.94-.58,2.21-1.16,4.46-1.33,6.74,0,.05,0,.09,0,.14-.06.98-.05,1.96.08,2.94l.12.89c.96,6.96,2.86,20.7-3.03,26.37-4.3-20.43-5.52-34.87-3.42-40.8.02-.06,2.25-6.1,7.22-9.51Zm-.4,64.99c-.3-1.17-1.3-5.08-2.47-10.34,6.56-4.28,7.49-13.62,7.06-21.71,4.2-.32,8.04-1.53,11.13-3.4.09-.04.17-.08.25-.13-1.97,5.43-5.44,17.23-1.26,24.1,1.33,2.19,3.27,3.65,5.77,4.39-.96,3.84-1.72,6.65-2.01,7.68-6.07.99-12.46.79-18.47-.59Zm22.86-.33c.49-1.82,1.19-4.53,1.99-7.81,4.06-16.72,8.21-38.58,4.96-47.75-.08-.21-1.23-3.39-3.43-6.67l4.31,2.31c.3.16.62.24.94.24.71,0,1.4-.38,1.76-1.05.52-.97.16-2.19-.82-2.71l-4.89-2.62c-.97-.52-2.19-.16-2.71.82-.14.26-.21.54-.23.82-.8-.96-1.7-1.88-2.69-2.67,1.13-1.52,2.32-3.93,2.32-7.37,0-7.78-5.99-13.88-13.64-13.88-1.16,0-2.29.16-3.36.43l-.75-2.05c-.38-1.04-1.52-1.57-2.56-1.2-1.04.38-1.57,1.53-1.2,2.56l.81,2.21c-3.97,2.39-6.69,6.75-6.98,11.97-.02.37-.02.73-.01,1.08l-3.77.67c-1.09.19-1.81,1.23-1.62,2.32.17.97,1.02,1.65,1.97,1.65.12,0,.23,0,.35-.03l3.85-.68c.2.55.43,1.04.65,1.46-6.06,4.15-8.61,11.16-8.72,11.47-3.14,8.86.39,29.86,3.9,45.92,0,.02,0,.04.01.06,0,0,0,0,0,.01.88,4.04,1.7,7.42,2.24,9.6-18.59-6.23-31.67-23.46-32.52-43.17l4.58-2.65c.96-.55,1.28-1.78.73-2.73-.55-.96-1.78-1.28-2.73-.73l-2.58,1.49c.58-11.18,5.05-21.37,12.06-29.24l4.72.83c.12.02.23.03.35.03.95,0,1.8-.68,1.97-1.65.19-1.09-.53-2.13-1.62-2.32l-2.01-.35c2.17-1.99,4.53-3.78,7.04-5.35.07.61.41,1.19.98,1.52l4.85,2.8c.31.18.66.27,1,.27.69,0,1.36-.36,1.73-1,.55-.96.22-2.18-.73-2.73l-4.64-2.68c1.6-.83,3.24-1.58,4.94-2.24.08.23.19.45.36.64l2.21,2.64c.4.47.96.71,1.53.71.45,0,.91-.15,1.28-.47.85-.71.96-1.97.25-2.82l-1.7-2.02c3.46-.99,7.08-1.61,10.81-1.79v1.06c0,1.1.9,2,2,2s2-.9,2-2v-1.08c1.05.04,2.1.11,3.14.21l-.31.86c-.38,1.04.16,2.19,1.2,2.56.23.08.46.12.68.12.82,0,1.58-.5,1.88-1.32l.6-1.65c1.26.24,2.52.51,3.76.85l-1.42,1.7s0,0,0,0l-.94,1.12c-.71.85-.6,2.11.25,2.82.37.31.83.47,1.28.47.57,0,1.14-.24,1.53-.71l3.35-3.99s.03-.04.04-.06c1.91.71,3.77,1.54,5.57,2.49-.15.5-.1,1.06.19,1.55.37.64,1.04,1,1.73,1,.34,0,.68-.09,1-.27l.51-.29c7.39,4.73,13.4,11.48,17.25,19.34l-1.21-.26c-1.08-.24-2.14.45-2.38,1.53s.45,2.14,1.53,2.38l3.97.86c1.53,4.19,2.46,8.55,2.77,13l-.73-.39c-.98-.52-2.19-.16-2.71.82s-.16,2.19.82,2.71l2.73,1.46c-.52,21.32-15.18,39.69-35.64,45.02Z"/>
  <path class="cls-1" d="m56.29,42.22l-5.1-.9c-1.09-.19-2.13.54-2.32,1.62-.19,1.09.53,2.12,1.62,2.32l5.1.9c.12.02.23.03.35.03.95,0,1.8-.68,1.97-1.65.19-1.09-.53-2.12-1.62-2.32Z"/>
  <path class="cls-1" d="m40.4,55.51c1.09-.19,1.81-1.23,1.62-2.32-.19-1.09-1.23-1.81-2.32-1.62l-5.04.89c-1.09.19-1.81,1.23-1.62,2.32.17.97,1.02,1.65,1.97,1.65.12,0,.23,0,.35-.03l5.04-.89Z"/>
  <path class="cls-1" d="m47.92,54.4l2.95-.52c1.09-.19,1.81-1.23,1.62-2.32s-1.23-1.81-2.32-1.62l-2.95.52c-1.09.19-1.81,1.23-1.62,2.32.17.97,1.01,1.65,1.97,1.65.12,0,.23,0,.35-.03Z"/>
  <path class="cls-1" d="m41.12,64.43l-4.82,2.78c-.96.55-1.28,1.78-.73,2.73.37.64,1.04,1,1.73,1,.34,0,.68-.09,1-.27l4.82-2.78c.96-.55,1.28-1.78.73-2.73-.55-.96-1.77-1.29-2.73-.73Z"/>
  <path class="cls-1" d="m52.45,57.89l-4.41,2.54c-.96.55-1.28,1.78-.73,2.73.37.64,1.04,1,1.73,1,.34,0,.68-.09,1-.27l4.41-2.54c.96-.55,1.28-1.78.73-2.73-.55-.96-1.77-1.28-2.73-.73Z"/>
  <path class="cls-1" d="m115.19,67.69l-2.63-1.41c-.97-.52-2.19-.16-2.71.82-.52.97-.16,2.19.82,2.71l2.63,1.41c.3.16.62.24.94.24.71,0,1.4-.38,1.76-1.05.52-.97.16-2.19-.82-2.71Z"/>
  <path class="cls-1" d="m105.96,62.74l-3.47-1.86c-.97-.52-2.19-.15-2.71.82-.52.97-.16,2.19.82,2.71l3.47,1.86c.3.16.62.24.94.24.71,0,1.4-.38,1.76-1.06.52-.97.16-2.19-.82-2.71Z"/>
  <path class="cls-1" d="m111.12,54.68c.24-1.08-.45-2.14-1.53-2.38l-5.77-1.26c-1.08-.23-2.14.45-2.38,1.53s.45,2.14,1.53,2.38l5.77,1.26c.14.03.29.05.43.05.92,0,1.75-.64,1.95-1.57Z"/>
  <path class="cls-1" d="m96.14,49.36l-2.65-.58c-1.08-.24-2.15.45-2.38,1.53-.24,1.08.45,2.14,1.53,2.38l2.65.58c.14.03.29.05.43.05.92,0,1.75-.64,1.95-1.57.24-1.08-.45-2.14-1.53-2.38Z"/>
  <path class="cls-1" d="m103.28,44.39c.12,0,.23,0,.35-.03l3-.53c1.09-.19,1.81-1.23,1.62-2.32-.19-1.09-1.23-1.81-2.32-1.62l-3,.53c-1.09.19-1.81,1.23-1.62,2.32.17.97,1.02,1.65,1.97,1.65Z"/>
  <path class="cls-1" d="m95.95,41.65l-3.24.57c-1.09.19-1.81,1.23-1.62,2.32.17.97,1.02,1.65,1.97,1.65.12,0,.23,0,.35-.03l3.24-.57c1.09-.19,1.81-1.23,1.62-2.32-.19-1.09-1.23-1.82-2.32-1.62Z"/>
  <path class="cls-1" d="m94.06,38.48c.96-.55,1.28-1.78.73-2.73-.55-.96-1.78-1.29-2.73-.73l-2.24,1.29c-.96.55-1.28,1.78-.73,2.73.37.64,1.04,1,1.73,1,.34,0,.68-.09,1-.27l2.24-1.29Z"/>
</svg>