<svg xmlns="http://www.w3.org/2000/svg" viewBox="0 0 150 150"><title>Juno-bold</title><g id="Contra-Parallels"><polygon points="47.56 51.98 65.2 51.98 52.73 64.45 58.38 70.1 70.81 57.68 70.81 109.72 61.28 109.72 61.28 117.72 70.81 117.72 70.81 129.37 78.81 129.37 78.81 117.72 88.72 117.72 88.72 109.72 78.81 109.72 78.81 57.59 91.32 70.1 96.98 64.45 84.51 51.98 102.15 51.98 102.15 43.98 84.51 43.98 96.98 31.5 91.32 25.85 78.81 38.37 78.81 20.25 70.81 20.25 70.81 38.27 58.38 25.85 52.73 31.5 65.2 43.98 47.56 43.98 47.56 51.98"/></g></svg>