<svg xmlns="http://www.w3.org/2000/svg" viewBox="0 0 150 150"><title>Capricorn-bold</title><g id="Contra-Parallels"><path d="M61.28,43.68a17.64,17.64,0,0,0-12.53,5.19c-.42.43-.82.87-1.19,1.32a17.72,17.72,0,0,0-13.72-6.51v8a9.73,9.73,0,0,1,9.72,9.72h0v41.16h8V61.32A9.72,9.72,0,0,1,71,61.4V98.65c-2.92,5.67-8.92,14.42-15.84,14.42v8c7.56,0,13.55-5.19,17.73-10.56A17.7,17.7,0,1,0,79,87.73V61.4A17.74,17.74,0,0,0,61.28,43.68ZM79.74,98.84a9.72,9.72,0,1,1-.74,3.72v-2.07C79.43,99.57,79.68,99,79.74,98.84Z"/></g></svg>