<svg xmlns="http://www.w3.org/2000/svg" viewBox="0 0 150 150"><title>Sun-bold</title><g id="Contra-Parallels"><path d="M74.93,106.42A31.37,31.37,0,1,0,43.56,75.05,31.41,31.41,0,0,0,74.93,106.42Zm0-54.74A23.37,23.37,0,1,1,51.56,75.05,23.4,23.4,0,0,1,74.93,51.68Z"/><rect x="71" y="20.24" width="8" height="16.28"/><rect x="37.98" y="33.86" width="8" height="16.28" transform="translate(-17.4 41.99) rotate(-45)"/><rect x="20.12" y="70.98" width="16.28" height="8"/><rect x="33.74" y="104" width="16.28" height="8" transform="translate(-64.1 61.24) rotate(-45)"/><rect x="70.86" y="113.58" width="8" height="16.28"/><rect x="103.88" y="99.96" width="8" height="16.28" transform="translate(-44.84 107.93) rotate(-45)"/><rect x="113.46" y="71.12" width="16.28" height="8"/><rect x="99.84" y="38.1" width="16.28" height="8" transform="translate(1.86 88.68) rotate(-45)"/></g></svg>