<svg xmlns="http://www.w3.org/2000/svg" viewBox="0 0 150 150"><title>Aquarius-bold</title><g id="Contra-Parallels"><path d="M29.32,68.25a9.74,9.74,0,0,1,13.75,0,17.74,17.74,0,0,0,25.06,0,9.71,9.71,0,0,1,13.74,0,17.74,17.74,0,0,0,25.06,0,9.74,9.74,0,0,1,13.75,0l5.65-5.66a17.73,17.73,0,0,0-25,0,9.74,9.74,0,0,1-13.75,0,17.72,17.72,0,0,0-25.06,0,9.72,9.72,0,0,1-13.74,0,17.74,17.74,0,0,0-25.06,0Z"/><path d="M126.33,82a17.76,17.76,0,0,0-25.06,0,9.71,9.71,0,0,1-13.74,0,17.74,17.74,0,0,0-25.06,0,9.71,9.71,0,0,1-13.74,0,17.76,17.76,0,0,0-25.06,0l5.65,5.66a9.74,9.74,0,0,1,13.75,0,17.74,17.74,0,0,0,25.06,0,9.73,9.73,0,0,1,13.74,0,17.74,17.74,0,0,0,25.06,0,9.74,9.74,0,0,1,13.75,0Z"/></g></svg>