<svg xmlns="http://www.w3.org/2000/svg" viewBox="0 0 150 150"><title>Virgo-bold</title><g id="Contra-Parallels"><path d="M20.12,51.68a9.73,9.73,0,0,1,9.72,9.72v41.16h8V61.4a9.72,9.72,0,0,1,19.44,0v41.16h8V61.4a9.72,9.72,0,0,1,19.44,0v45.19L72.14,119.17l5.66,5.65,7.33-7.33a17.72,17.72,0,0,0,35-3.77h-8a9.72,9.72,0,0,1-19.44,0V109.9L115,87.65a17.72,17.72,0,0,0-22.3-27.31A17.7,17.7,0,0,0,61.28,50.2a17.7,17.7,0,0,0-27.44,0,17.7,17.7,0,0,0-13.72-6.52Zm89.19,16.57a9.72,9.72,0,0,1,0,13.74L92.72,98.59V75.12a9.72,9.72,0,0,1,16.59-6.87Z"/></g></svg>