<svg xmlns="http://www.w3.org/2000/svg" viewBox="0 0 150 150"><title>leo-bold</title><g id="Contra-Parallels"><path d="M49.73,98.33A17.74,17.74,0,0,0,67.45,80.61c0-8.21-3.39-16.38-6.37-23.59-2.3-5.55-4.47-10.79-4.47-14.58a18.22,18.22,0,0,1,18.2-18.2A18.44,18.44,0,0,1,93,42.44C93,51,87.46,60.11,81.59,69.82c-6.37,10.52-13,21.4-13,32.74a17.72,17.72,0,0,0,35.44,0h-8a9.72,9.72,0,0,1-19.44,0c0-9.11,6-19,11.79-28.6C94.61,63.74,101,53.18,101,42.44a26.54,26.54,0,0,0-26.19-26.2,26.23,26.23,0,0,0-26.2,26.2c0,5.38,2.46,11.34,5.08,17.64.5,1.22,1,2.45,1.5,3.68a17.72,17.72,0,1,0-5.46,34.57Zm0-27.44A9.72,9.72,0,1,1,40,80.61,9.73,9.73,0,0,1,49.73,70.89Z"/></g></svg>