<svg xmlns="http://www.w3.org/2000/svg" viewBox="0 0 150 150"><title>Neptune-bold</title><g id="Contra-Parallels"><path d="M28.23,34.07,32.4,29.9V61.4A42.66,42.66,0,0,0,71,103.81v6.11H61.28v8H71v11.45h8V117.92h9.72v-8H79v-6.11A42.66,42.66,0,0,0,117.6,61.4V29.9l4.47,4.47,5.66-5.66L113.6,14.59,99.78,28.41l5.66,5.66,4.16-4.17V61.4A34.65,34.65,0,0,1,79,95.77V46.17l4.48,4.47L89.13,45,75,30.86,61.19,44.69l5.65,5.65L71,46.19V95.77A34.65,34.65,0,0,1,40.4,61.4V29.9l4.46,4.47,5.66-5.66L36.4,14.59,22.58,28.41Z"/></g></svg>