<svg id="Graphics" xmlns="http://www.w3.org/2000/svg" viewBox="0 0 150 150"><path d="M115.33,75c0-1,0-1.92-.12-2.88h15.37L130,67.58a54,54,0,0,0-4.23-14.83A55.56,55.56,0,0,0,82.47,20.49a57,57,0,0,0-14.94,0A55.47,55.47,0,0,0,24.27,52.74,54.18,54.18,0,0,0,20,67.58l-.62,4.54H34.79c-.07,1-.12,1.92-.12,2.88s0,1.92.12,2.88H19.42L20,82.42a54,54,0,0,0,4.23,14.83,55.56,55.56,0,0,0,43.26,32.26A58.8,58.8,0,0,0,75,130a57,57,0,0,0,7.47-.5,55.42,55.42,0,0,0,43.25-32.24A53.85,53.85,0,0,0,130,82.42l.62-4.54H115.21C115.28,76.92,115.33,76,115.33,75Zm3.09-19a45.54,45.54,0,0,1,2.77,8.1H85.94V44.88a31.9,31.9,0,0,1,7.59,3.9c.73.51,1.44,1,2.12,1.6h-5.9v8H112.5l-4.45-6.31c-.58-.82-1.2-1.61-1.83-2.38l5-5A46.43,46.43,0,0,1,118.42,56ZM31.58,56a46.56,46.56,0,0,1,7.15-11.32l5.05,5c-.63.77-1.25,1.56-1.83,2.38L37.5,58.38H60.25v-8h-5.9c.68-.56,1.39-1.1,2.13-1.61a32,32,0,0,1,7.58-3.9V64.12H28.81A45.92,45.92,0,0,1,31.58,56Zm0,38a45.54,45.54,0,0,1-2.77-8.1H64.06v19.25a32.31,32.31,0,0,1-7.59-3.91c-.73-.51-1.44-1-2.12-1.6h5.9v-8H37.5L42,97.93c.58.82,1.2,1.61,1.83,2.38l-5.05,5A46.43,46.43,0,0,1,31.58,94ZM94.2,118a47,47,0,0,1-12.78,3.58,48.77,48.77,0,0,1-12.83,0,47.62,47.62,0,0,1-24.17-10.64l5-5c.79.64,1.61,1.26,2.45,1.84a39.9,39.9,0,0,0,15.4,6.48l4.75.9V77.88H42.81c-.09-1-.14-1.92-.14-2.88s0-1.92.14-2.88H72.06V34.83l-4.75.9a40,40,0,0,0-15.4,6.47c-.84.59-1.66,1.21-2.45,1.86l-5-5A47.48,47.48,0,0,1,55.8,32a47,47,0,0,1,12.78-3.58,48.77,48.77,0,0,1,12.83,0,47.62,47.62,0,0,1,24.17,10.64l-5,5c-.79-.65-1.61-1.27-2.45-1.85a39.9,39.9,0,0,0-15.4-6.48l-4.75-.9V72.12h29.25c.09,1,.14,1.92.14,2.88s0,1.92-.14,2.88H77.94v37.29l4.75-.9a40,40,0,0,0,15.4-6.47c.84-.59,1.66-1.21,2.45-1.85l5,5A47.48,47.48,0,0,1,94.2,118Zm24.22-24a46.56,46.56,0,0,1-7.15,11.32l-5-5c.63-.77,1.25-1.56,1.83-2.38l4.45-6.31H89.75v8h5.9c-.68.56-1.39,1.1-2.13,1.61a32,32,0,0,1-7.58,3.9V85.88h35.25A45.92,45.92,0,0,1,118.42,94Z"/></svg>