<svg id="Graphics" xmlns="http://www.w3.org/2000/svg" viewBox="0 0 150 150"><path d="M105.2,29C101,26.25,96.13,23.42,92,23.42V45.5H79V39.94h6v-20H65v20h6V45.5H58V23.12c-4,0-8.28,2.65-12.74,5.61l-.46.3a55,55,0,0,0,0,91.94c3.2,2.11,9.17,5.65,13.2,5.65v-8h0V104.91H71v5.15H65v20H85v-20H79v-5.15H92v21.84c1.1,0,4.44,0,13.2-5.78a55,55,0,0,0,0-91.94ZM73,27.94h4v4H73Zm4,94.12H73v-4h4ZM92,49.5v6.75H79V49.5Zm-21,0v6.75H58V49.5ZM49.2,114.29a47,47,0,0,1,0-78.58l.47-.31c.92-.61,2.64-1.74,4.33-2.69V69H38.48A36.64,36.64,0,0,1,45,53.34V63h4V42.91l-3.44,3.55A40.9,40.9,0,0,0,34.21,70.8L34,73H58V60.25H71V65H65V85h6v5.16H58V77H34l.22,2.2A40.59,40.59,0,0,0,36,87.61a41,41,0,0,0,9.58,15.93L49,107.09V87H45v9.66a36.93,36.93,0,0,1-5.22-10.28A36.36,36.36,0,0,1,38.48,81H54v36.1A49.84,49.84,0,0,1,49.2,114.29ZM73,77V73h4v4ZM58,100.91V94.16H71v6.75Zm21,0V94.16H92v6.75Zm21.8,13.38a55.9,55.9,0,0,1-4.8,2.87V81h15.52A36.64,36.64,0,0,1,105,96.66V87h-4v20.09l3.44-3.55A40.9,40.9,0,0,0,115.79,79.2L116,77H92V90.16H79V85h6V65H79V60.25H92V73h24l-.22-2.2A40.59,40.59,0,0,0,114,62.39a41,41,0,0,0-9.58-15.93L101,42.91V63h4V53.34a36.93,36.93,0,0,1,5.22,10.28,36.36,36.36,0,0,1,1.3,5.38H96V32.84a53.9,53.9,0,0,1,4.8,2.87,47,47,0,0,1,0,78.58Z"/></svg>