<svg id="Graphics" xmlns="http://www.w3.org/2000/svg" viewBox="0 0 150 150"><defs><style>.cls-1{fill:#231f20;}</style></defs><path class="cls-1" d="M119.41,89.11a24,24,0,0,0,5.45-1.63A17.07,17.07,0,0,0,130,84.14a17,17,0,0,0-6-1.32,23.9,23.9,0,0,0-5.68.39,25.59,25.59,0,0,0-4.78,1.4A25.46,25.46,0,0,0,117,81a23.9,23.9,0,0,0,2.9-4.89,17.07,17.07,0,0,0,1.52-5.94,17.12,17.12,0,0,0-5.3,3.08,23.87,23.87,0,0,0-3.91,4.14,25,25,0,0,0-2.88,4.91,21.08,21.08,0,0,0-1.14,3.39V61.86a4,4,0,0,0,1.07-7.27,19.35,19.35,0,0,0,4.51.76,25,25,0,0,0,5.69-.36,24.51,24.51,0,0,0,5.45-1.63A17.11,17.11,0,0,0,130,50a17.26,17.26,0,0,0-6-1.32,24.43,24.43,0,0,0-5.68.4,25.55,25.55,0,0,0-4.78,1.39,25.93,25.93,0,0,0,3.4-3.64,24.24,24.24,0,0,0,2.9-4.9A17.07,17.07,0,0,0,121.37,36a17.14,17.14,0,0,0-5.3,3.09,23.82,23.82,0,0,0-3.91,4.13,25.08,25.08,0,0,0-2.88,4.92,21.3,21.3,0,0,0-1.14,3.38V27.86a4,4,0,0,0,0-7.72V20h-24v.14a4,4,0,0,0,0,7.72V54.14a4,4,0,0,0,0,7.72V88.14a4,4,0,0,0,0,7.72v26.28a4,4,0,0,0,0,7.72V130h24v-.14a4,4,0,0,0,1.6-6.88,19.55,19.55,0,0,0,4,.62,25,25,0,0,0,5.69-.36,24.51,24.51,0,0,0,5.45-1.63,17.11,17.11,0,0,0,5.14-3.35,17,17,0,0,0-6-1.31,23.9,23.9,0,0,0-5.68.39,25.55,25.55,0,0,0-4.78,1.39,25.39,25.39,0,0,0,3.4-3.64,24.24,24.24,0,0,0,2.9-4.9,17,17,0,0,0,1.52-5.94,17.14,17.14,0,0,0-5.3,3.09,23.52,23.52,0,0,0-3.91,4.14,25,25,0,0,0-2.88,4.91,21.08,21.08,0,0,0-1.14,3.39V95.86a4,4,0,0,0,1.38-7.06,19.85,19.85,0,0,0,4.2.68A25.62,25.62,0,0,0,119.41,89.11ZM100.14,88h-8V62h8Zm0-60V54h-8V28Zm-8,94V96h8v26Z"/><path class="cls-1" d="M68.26,41a4,4,0,0,0-3-3.86V37h-24v.14a4,4,0,0,0,0,7.72V66.62c-.17-.46-.35-.91-.54-1.36a25,25,0,0,0-2.88-4.91,23.87,23.87,0,0,0-3.91-4.14,17.12,17.12,0,0,0-5.3-3.08,17.07,17.07,0,0,0,1.52,5.94A23.9,23.9,0,0,0,33.05,64a25.46,25.46,0,0,0,3.4,3.65,24.85,24.85,0,0,0-4.78-1.4A23.9,23.9,0,0,0,26,65.82a17,17,0,0,0-6,1.32,17.07,17.07,0,0,0,5.14,3.34,24,24,0,0,0,5.45,1.63,25.62,25.62,0,0,0,5.69.37A21.78,21.78,0,0,0,39.62,72a4,4,0,0,0-1.36,3,4,4,0,0,0,3,3.86v20.8c-.17-.46-.35-.92-.54-1.36a25,25,0,0,0-2.88-4.91,23.52,23.52,0,0,0-3.91-4.14,17.14,17.14,0,0,0-5.3-3.09,17.13,17.13,0,0,0,1.52,6A24.17,24.17,0,0,0,33.05,97a25.39,25.39,0,0,0,3.4,3.64,25.55,25.55,0,0,0-4.78-1.39A23.9,23.9,0,0,0,26,98.86a16.81,16.81,0,0,0-6,1.32,17.26,17.26,0,0,0,5.14,3.34,24,24,0,0,0,5.45,1.63,25.62,25.62,0,0,0,5.69.37,19.27,19.27,0,0,0,5-.93v.55a4,4,0,0,0,0,7.72V113h24v-.14a4,4,0,0,0,0-7.72V78.86a4,4,0,0,0,0-7.72V44.86A4,4,0,0,0,68.26,41Zm-11,4V71h-8V45Zm-8,60V79h8v26Z"/></svg>