<svg id="Graphics" xmlns="http://www.w3.org/2000/svg" viewBox="0 0 150 150"><defs><style>.cls-1{fill:#231f20;}</style></defs><path class="cls-1" d="M120.73,88H92V78H82V72H92V62h33.3a9.4,9.4,0,0,0,3.21-.19l-.95-3h0c-.08-.28-.19-.55-.28-.83l.11,0-.11,0a54.89,54.89,0,0,0-35-35.21s0-.06,0-.09l-3.85-1.05A32.26,32.26,0,0,0,88,27.82V55h25.24l-1.95-3.07A43.2,43.2,0,0,0,98.07,38.71l-3.07-2V48h4V44.26A39.8,39.8,0,0,1,105.74,51H92V31.18A46.91,46.91,0,0,1,118.82,58H88V68H82V58H77V55h5V51H77V48h5V20.31l-1.92-.08c-3.37-.14-6.79-.14-10.16,0L68,20.31V48h5v3H68v4h5v3H68V68H62V58H31.18A46.89,46.89,0,0,1,58,31.18V51H44.26A39.8,39.8,0,0,1,51,44.26V48h4V36.76l-3.07,2A43.2,43.2,0,0,0,38.71,51.93l-2,3.07H62V30c0-.6,0-5.95-.55-8.25l-3.87,1,0,.12A54.86,54.86,0,0,0,22.74,57.89h0l-.2.67c0,.09-.07.18-.09.27h0l-.88,2.88a17.15,17.15,0,0,0,4.52.29H58V72H68v6H58V88H27.4a26.75,26.75,0,0,0-5.88.2L22.65,92h.06a54.89,54.89,0,0,0,35.13,35.22.24.24,0,0,0,0,.09l.82.18.19.06v0l2.89.64c.54-2.39.31-8.44.28-9V95H36.76l2,3.07a43.2,43.2,0,0,0,13.22,13.22L55,113.24V102H51v3.74A39.8,39.8,0,0,1,44.26,99H58v19.82A46.89,46.89,0,0,1,31.18,92H62V82h6V92h5v3H68v4h5v3H68v27.69l1.92.08c1.68.07,3.38.1,5.08.1s3.4,0,5.08-.1l1.92-.08V102H77V99h5V95H77V92h5V82h6V92h30.82A46.89,46.89,0,0,1,92,118.82V99h13.74A39.8,39.8,0,0,1,99,105.74V102H95v11.24l3.07-1.95a43.2,43.2,0,0,0,13.22-13.22L113.24,95H88v27.45c-.09,1.75-.17,4.82.27,6.1l2.9-1h0a54.9,54.9,0,0,0,36.41-36.41h0l.91-2.69C126.76,87.9,122.07,88,120.73,88ZM72,44V24.17q3-.08,6,0V44H72Zm6,62v19.84q-3,.07-6,0V106h6Zm0-18H72V62h6Z"/><path class="cls-1" d="M55,68H20.33l-.1,1.9c-.17,3.38-.17,6.82,0,10.2l.1,1.9H55ZM51,78H24.15q-.09-3,0-6H51Z"/><path class="cls-1" d="M129.76,69.81,129.59,68H95V82h34.57l.19-1.79A51.62,51.62,0,0,0,129.76,69.81ZM125.93,78H99V72h26.92A48.07,48.07,0,0,1,125.93,78Z"/></svg>