<svg id="Graphics" xmlns="http://www.w3.org/2000/svg" viewBox="0 0 150 150"><path d="M126,44.84a4,4,0,0,0-6.55.8,8.11,8.11,0,0,1-2.41,2,32.57,32.57,0,0,0-12-22h0c-.57-.46-1.19-.91-1.88-1.4a4,4,0,0,0-4-.33,32.59,32.59,0,0,0-18.39,32.8,8,8,0,0,0-1.19.18c-4.44,1-6.85,5-9,8.62a20.89,20.89,0,0,1-3.39,4.74,11.93,11.93,0,0,1-7.78,3,4,4,0,0,0-4.06,5.58A36.46,36.46,0,0,0,58.6,85a22.21,22.21,0,0,1-3.72-.24c-2.43-.64-2.59-.74-3.09-3-.61-2.78-1.55-7-7.26-11.69C32.73,60.29,22.3,66.68,21.86,67a4,4,0,0,0,0,6.78c3,1.87,6.09,4.72,6.47,6-1.28,6.17,1.43,12.55,4.27,16.55-2.68,3.34-6,9.46-5.24,18.7a11.73,11.73,0,0,1-2.6,4,4,4,0,0,0,2.91,6.74h.12c.4,0,9.78-.35,17-5,4.34-2.8,7.32-6.69,10-10.89.93.11,1.84.18,2.75.25-1.56,4-1.45,8.83.45,13.77a4,4,0,0,0,3.13,2.5,4.18,4.18,0,0,0,.61.05,4.06,4.06,0,0,0,3.14-1.51A22.17,22.17,0,0,1,74.35,119c8.42-2.94,10-8.76,9.63-11.91a44.92,44.92,0,0,0,20.17-14.22c.11-.13.21-.28.32-.41a11.89,11.89,0,0,1,3.12,6.36,4,4,0,0,0,2.22,3,4,4,0,0,0,3.73-.14A20,20,0,0,0,118.47,71a24.3,24.3,0,0,0,4.33-2.32c4.14-2.82,6.66-6.55,7.1-10.51A18,18,0,0,0,126,44.84ZM93.89,38a24.15,24.15,0,0,1,6.5-5.69,24.57,24.57,0,0,1,8.67,21.35,24.09,24.09,0,0,1-.74,4c-.76.4-1.54.75-2.32,1.07a24,24,0,0,1-5.67,1.52,24.52,24.52,0,0,1-11.13-1A24.58,24.58,0,0,1,93.89,38ZM67.65,82.85a6.57,6.57,0,0,1-2.5-2.5,20.71,20.71,0,0,0,7.11-3.94,25.66,25.66,0,0,0,5.12-6.78c1.17-2,2.78-4.67,3.86-4.91a1.15,1.15,0,0,1,.41,0A23.32,23.32,0,0,1,69.07,82.38,4.1,4.1,0,0,0,67.65,82.85Zm-18.24,20.6c-2.61,4.22-5.26,8.2-8.95,10.57a21.27,21.27,0,0,1-5.19,2.33,7.83,7.83,0,0,0,.11-2c-.87-10.09,4.84-14.54,5-14.7a4,4,0,0,0,.17-6.36c-1.23-1-5.48-7-4.36-12,.31-1.43.41-4.45-2.75-8.24a15.52,15.52,0,0,1,6,3.19c3.6,3,4.06,5.06,4.55,7.27.81,3.62,2.1,7,8.56,8.88a2,2,0,0,0,.8,3.82,1.12,1.12,0,0,1,.75,1.94,1.1,1.1,0,0,1-.8.31,2,2,0,0,0-2,2,1.94,1.94,0,0,0,.48,1.34A4,4,0,0,0,49.41,103.45Zm22.3,8a34.59,34.59,0,0,0-7.15,3.45,6.82,6.82,0,0,1,2-4.2,2.92,2.92,0,0,0,.32-.38,61,61,0,0,0,8.38-.93A8.72,8.72,0,0,1,71.71,111.43ZM94.85,91.2a5.11,5.11,0,0,0-8.68-3.6A2,2,0,1,0,89,90.47a1.13,1.13,0,0,1,1.6,0,1.09,1.09,0,0,1,.31.8,1.1,1.1,0,0,1-.34.8,2,2,0,0,0-.09,2.76A38.61,38.61,0,0,1,80,100a5.12,5.12,0,0,0-6.84-6.46,2,2,0,0,0,1.59,3.67,1.13,1.13,0,0,1,1.48.59,1.12,1.12,0,0,1-.59,1.48,2,2,0,0,0-1.17,2.13,63.54,63.54,0,0,1-18.93.52,5.23,5.23,0,0,0,1.31-.89,5.1,5.1,0,0,0-1-8.14,30.94,30.94,0,0,0,6.24-.13,2,2,0,0,0,2.35,1.55A1.12,1.12,0,0,1,65.58,96a1.11,1.11,0,0,1-.71.48,2,2,0,0,0,.38,4,1.81,1.81,0,0,0,.4,0,5.12,5.12,0,0,0,4-6,5,5,0,0,0-1.75-2.91,31.61,31.61,0,0,0,7.34-3.41,2,2,0,0,0,3.12.42A1.13,1.13,0,0,1,80,90.1a2,2,0,0,0,1.39,3.44A2,2,0,0,0,82.73,93a5.05,5.05,0,0,0,1.56-3.6,5.11,5.11,0,0,0-1.45-3.65,5,5,0,0,0-2.71-1.45A33.45,33.45,0,0,0,83,81.17l.22-.3.22.16a2,2,0,0,0,2.74-.67,1.13,1.13,0,0,1,.7-.51,1.14,1.14,0,0,1,.85.13,1.13,1.13,0,0,1,.51.7,1.11,1.11,0,0,1-.13.85,2,2,0,0,0,.67,2.75,2,2,0,0,0,1,.29,2,2,0,0,0,1.71-1,5.13,5.13,0,0,0-1.72-7,5.07,5.07,0,0,0-3.4-.66,31.26,31.26,0,0,0,2.91-8.28,33.26,33.26,0,0,0,4,.69,5,5,0,0,0-1.18.4,5.06,5.06,0,0,0-2.59,3,2,2,0,1,0,3.79,1.28,1.13,1.13,0,0,1,1.43-.71,1.11,1.11,0,0,1,.65.57,1.08,1.08,0,0,1,.06.86,2,2,0,0,0,1.25,2.54,2.08,2.08,0,0,0,.64.1,2,2,0,0,0,1.9-1.36,5.1,5.1,0,0,0-3.12-6.45l.68,0a33.24,33.24,0,0,0,4.67-.34c.55-.08,1.09-.17,1.63-.27l.41-.09c.4-.08.79-.16,1.19-.26l.48-.13c.37-.1.74-.19,1.1-.3l.38-.13.89-.29c-.07.41-.13.8-.21,1.17l0,.15c-.07.38-.15.76-.24,1.13h0l-.09.36c-.06.25-.13.5-.2.75a1.09,1.09,0,0,0,0,.17,47.11,47.11,0,0,1-3.54,9.28,5.11,5.11,0,0,0-9-.42,2,2,0,0,0,3.42,2.08A1.12,1.12,0,0,1,99.16,81a1.1,1.1,0,0,1,.51.7,1.06,1.06,0,0,1-.13.85,2,2,0,0,0,.41,2.55q-1,1.41-2,2.76A36.56,36.56,0,0,1,94.85,91.2Zm18.53,0A20.11,20.11,0,0,0,109,85.71a54.92,54.92,0,0,0,4-8.75A11.94,11.94,0,0,1,113.38,91.22ZM122,57.27c-.26,2.36-3,4.7-6,6.11.08-1.29.14-2.58.18-3.82,0,0,0,0,0-.06.06-.21.11-.43.16-.64.13-.54.25-1.09.35-1.63,0-.13.06-.26.08-.39a35.72,35.72,0,0,0,5.08-2.77A10.49,10.49,0,0,1,122,57.27Z"/><path d="M94.72,46.82a2.08,2.08,0,1,0-.33-2.93A2.08,2.08,0,0,0,94.72,46.82Z"/></svg>