<svg id="Graphics" xmlns="http://www.w3.org/2000/svg" viewBox="0 0 150 150"><path d="M93.84,31.86a45.92,45.92,0,0,1,6.57,3.5h12.87A55.27,55.27,0,0,0,93.84,23.25c-1.35-.48-2.7-.92-4.1-1.29a52.65,52.65,0,0,0-8-1.57v8.07a45.18,45.18,0,0,1,8,1.85A43.78,43.78,0,0,1,93.84,31.86Z"/><path d="M81.74,129.61a52.65,52.65,0,0,0,8-1.57c1.4-.37,2.75-.81,4.1-1.29a55.6,55.6,0,0,0,8-3.65A55,55,0,0,0,117,110.64a54.59,54.59,0,0,0,11.19-21.09,51.92,51.92,0,0,0,1.57-8H81.74Zm20.1-40.06h18a46.34,46.34,0,0,1-6.71,13.09H101.84Zm0,21.09h4a45.37,45.37,0,0,1-4,3.06ZM89.74,89.55h4.1v13.09h-4.1Zm0,21.09h4.1v7.5a43.78,43.78,0,0,1-4.1,1.55Z"/><path d="M20.59,68.45a55.2,55.2,0,0,0,0,13.1,51.92,51.92,0,0,0,1.57,8,54.08,54.08,0,0,0,5.5,13.09,55.71,55.71,0,0,0,16,17.42V109.85a47.12,47.12,0,0,1-13.19-20.3,45.18,45.18,0,0,1-1.85-8,46.86,46.86,0,0,1,0-13.1H48.1v54.4a55.42,55.42,0,0,0,8,3.73V68.45h4.55V128a52.65,52.65,0,0,0,8,1.57V60.45H22.16A51.92,51.92,0,0,0,20.59,68.45Z"/><path d="M56.1,23.42a55.42,55.42,0,0,0-8,3.73A55.68,55.68,0,0,0,27.66,47.36h9.55a47,47,0,0,1,7.38-8c1.12-1,2.3-1.89,3.51-2.75a47.49,47.49,0,0,1,8-4.56,46.32,46.32,0,0,1,4.55-1.74V47.36h8v-27a52.65,52.65,0,0,0-8,1.57C59.1,22.38,57.59,22.87,56.1,23.42Z"/><path d="M128.23,60.45A54.59,54.59,0,0,0,117,39.36H81.74V68.45H129.8A51.92,51.92,0,0,0,128.23,60.45Zm-38.49,0V47.36h23.44a46.34,46.34,0,0,1,6.71,13.09Z"/></svg>