<svg id="Graphics" xmlns="http://www.w3.org/2000/svg" viewBox="0 0 150 150"><defs><style>.cls-1{fill:#231f20;}</style></defs><path class="cls-1" d="M67,53.82a1,1,0,0,0,.23,1.4A1,1,0,0,0,68.57,55a4,4,0,0,1,3.18-1.65,4,4,0,0,1,4,4.06,1,1,0,0,0,2,0,6,6,0,0,0-6-6.06A5.92,5.92,0,0,0,67,53.82Z"/><path class="cls-1" d="M79.85,69.87A2.81,2.81,0,0,1,77.09,67a1,1,0,0,0-2,0,4.81,4.81,0,0,0,4.76,4.85A4.71,4.71,0,0,0,83.55,70a4.68,4.68,0,0,0,3.69,1.83A4.82,4.82,0,0,0,92,67a1,1,0,0,0-2,0,2.76,2.76,0,0,1-5.46.63h0l3-4.32a2.21,2.21,0,0,0,.14-2.26,2.14,2.14,0,0,0-1.89-1.14H81.2a2.11,2.11,0,0,0-1.88,1.14,2.15,2.15,0,0,0,.13,2.24l3,4.48A2.77,2.77,0,0,1,79.85,69.87ZM81.09,62a.12.12,0,0,1,.11-.07h4.6a.12.12,0,0,1,.12.07.17.17,0,0,1,0,.19l-2.42,3.49L81.1,62.18A.19.19,0,0,1,81.09,62Z"/><path class="cls-1" d="M71.23,61.82l-9.1-1.26a1,1,0,1,0-.28,2L71,63.8h.14a1,1,0,0,0,.14-2Z"/><path class="cls-1" d="M70.92,65.33l-8.7,1.47a1,1,0,0,0,.17,2l.16,0,8.71-1.47a1,1,0,1,0-.34-2Z"/><path class="cls-1" d="M127.94,48.82a19.05,19.05,0,0,0-11.23-6.89c.06-.71.11-1.42.11-2.14a22.56,22.56,0,0,0-9.32-18.3,7.14,7.14,0,0,0-7.42-.55,22.25,22.25,0,0,0-8.42,7.61,44.24,44.24,0,0,0-17.21,0A22.35,22.35,0,0,0,66,20.94a7.14,7.14,0,0,0-7.42.55A22.68,22.68,0,0,0,50,45.29a24.63,24.63,0,0,0-2.92,11.52,25.09,25.09,0,0,0,4.7,14.4,20.09,20.09,0,0,0-6.5,11.08,28.05,28.05,0,0,0-.54,9.1,8.69,8.69,0,0,0-4.54-1.28h-.35a20,20,0,0,0,0,40.05H70a8.42,8.42,0,0,0,5.9-2.43,18.73,18.73,0,0,0,7,1.33A18.94,18.94,0,0,0,89,128a8.37,8.37,0,0,0,5.57,2.12h16.69a8.41,8.41,0,0,0,7.62-4.82,8.61,8.61,0,0,0-.65-8.63c3.11-5.63,2.95-13.75.6-19.36a10.14,10.14,0,0,0,4.7-8.55V62.51A8.41,8.41,0,0,0,129,58,8.58,8.58,0,0,0,127.94,48.82Zm-25.07,60.1a18.93,18.93,0,0,0-10.27,3c-.19-4.42,1-8.34,3.59-11a12.07,12.07,0,0,1,12.64-3,9.85,9.85,0,0,0,1.61.65l.29.14a4.18,4.18,0,0,0,.36,1.12c1.6,3.1,1.8,8,.76,11.41A18.91,18.91,0,0,0,102.87,108.92ZM111.2,88.8V63h4.28V88.8a2.14,2.14,0,1,1-4.28,0Zm10.48-35a.62.62,0,0,1,.07.7.42.42,0,0,1-.41.29h-3.1V53a1,1,0,0,0-2,0v1.81h-2V53a1,1,0,0,0-2,0v1.81h-2V53a1,1,0,0,0-2,0v1.81h-3.59a.42.42,0,0,1-.41-.29.62.62,0,0,1,.07-.7,11.08,11.08,0,0,1,6.59-4,4,4,0,0,0,2.41-.2A11,11,0,0,1,121.68,53.8ZM103.26,28.31a14.46,14.46,0,0,1,5.08,7.8,36.18,36.18,0,0,0-8.54-5.05A14.12,14.12,0,0,1,103.26,28.31ZM96,38.15a27.67,27.67,0,0,1,8.62,5.34,19.32,19.32,0,0,0-6.6,5.33,8.55,8.55,0,0,0-1.44,2.71,5.83,5.83,0,0,0-1.5-.2,6,6,0,0,0-5.94,6.06,1,1,0,0,0,2,0,4,4,0,0,1,3.94-4.06,3.94,3.94,0,0,1,1.09.16,8.58,8.58,0,0,0,3.57,7.73l-4.37.6a1,1,0,0,0,.14,2h.14l7.52-1V66.6l-7.49-1.27a1,1,0,1,0-.34,2l7.83,1.33v3.19A35,35,0,0,1,83,77.9a34.83,34.83,0,0,1-21.47-7,4.31,4.31,0,0,0-.54-1,5.15,5.15,0,0,0-.43-.52.21.21,0,0,1,0-.06,17.72,17.72,0,0,1-5.49-12.49,16.58,16.58,0,0,1,2.63-8.9,21.23,21.23,0,0,1,2.67-3.42A28.65,28.65,0,0,1,73.52,37,35.47,35.47,0,0,1,83,35.7,34.49,34.49,0,0,1,96,38.15ZM82.33,88.29a3.33,3.33,0,1,1-3.2,3.33A3.26,3.26,0,0,1,82.33,88.29ZM71.57,111.74a18.93,18.93,0,0,0-18.06-1A17.55,17.55,0,0,1,54,100.68a18,18,0,0,0,9.83,3.55,8.93,8.93,0,0,0,4-1h0A10,10,0,0,1,71.57,111.74Zm-26.63-5.16a23.7,23.7,0,0,0,.7,5.78H40A2.18,2.18,0,0,1,40,108h.14A8.69,8.69,0,0,0,44.94,106.58Zm18.84-6.35a14.62,14.62,0,0,1-10-5.17,18.78,18.78,0,0,1-.67-11.15,12.3,12.3,0,0,1,3.43-6.22c2.09,9.17,8.72,12.24,10.33,12.86A5.44,5.44,0,0,1,69,94.87,5.29,5.29,0,0,1,63.78,100.23Zm-.93-71.92A14.14,14.14,0,0,1,66.29,31a36.19,36.19,0,0,0-8.49,5A14.49,14.49,0,0,1,62.85,28.31ZM28.17,110.13a11.85,11.85,0,0,1,11.65-12h.35a1,1,0,0,1,0,1.9H40a10.18,10.18,0,0,0,0,20.35h4.86a7.72,7.72,0,0,0-.06,1.8h-5A11.86,11.86,0,0,1,28.17,110.13Zm41.8,12H66.69v-1.81a1,1,0,0,0-2,0v1.81h-2v-1.81a1,1,0,0,0-2,0v1.81h-2v-1.81a1,1,0,0,0-2,0v1.81H53.28c-.08,0-.27,0-.41-.3a.6.6,0,0,1,.07-.69,11,11,0,0,1,17.37,0,.57.57,0,0,1,.14.48v0C70.43,121.75,70.34,122.16,70,122.16Zm8.35-2.08a8.73,8.73,0,0,0-1.75-3.9,17.68,17.68,0,0,0-1.28-1.45c.54-3.47.62-9.73-4.33-14a9.46,9.46,0,0,0-2-13.56,2.49,2.49,0,0,0-.52-.25c-.25-.09-6.2-2.14-8-10.1a2,2,0,0,0-.64-1.06,4.16,4.16,0,0,0,.78-.58A38.85,38.85,0,0,0,80.33,81.8v2.78a7.2,7.2,0,1,0,4,0V81.87A39.4,39.4,0,0,0,103.2,76.6V88.8a10,10,0,0,0,1,4.47,16.14,16.14,0,0,0-11,4.89c-3.9,4.08-5.44,10.22-4.4,16.89-.34.37-.67.74-1,1.13a8.54,8.54,0,0,0-1.82,4.36,10.73,10.73,0,0,1-7.78-.46Zm33.3,1.78c-.14.3-.33.3-.41.3h-3.09v-1.81a1,1,0,0,0-2,0v1.81h-2v-1.81a1,1,0,0,0-2,0v1.81h-2v-1.81a1,1,0,0,0-2,0v1.81h-3.6c-.08,0-.27,0-.41-.3a.6.6,0,0,1,.07-.69,11,11,0,0,1,17.38,0A.6.6,0,0,1,111.62,121.86Z"/></svg>