<svg id="Graphics" xmlns="http://www.w3.org/2000/svg" viewBox="0 0 150 150"><path d="M127,73.83c-2.41-14.23-5.49-19.78-15.24-27l.07-.23a19.41,19.41,0,0,0,.9-5.93,10.65,10.65,0,0,0-.69-3.56,10.84,10.84,0,0,0-1.94-3.21,9,9,0,0,0-3.44-2.35,12.51,12.51,0,0,0-1.78-.55,15.18,15.18,0,0,0-1.76-.24,12.8,12.8,0,0,0-3.53.25,12.59,12.59,0,0,0-2.29.77C92.71,24.45,84.76,20.22,74.89,20.2S57.32,24.32,52.7,31.79A11.57,11.57,0,0,0,50.38,31a12.8,12.8,0,0,0-3.53-.25,15.18,15.18,0,0,0-1.76.24,12.51,12.51,0,0,0-1.78.55,9.09,9.09,0,0,0-3.44,2.35,10.84,10.84,0,0,0-1.94,3.21,10.65,10.65,0,0,0-.69,3.56,19.41,19.41,0,0,0,.9,5.93l.08.24C28.46,54,25.38,59.59,23,73.83c-3.49,20.55,3.36,35.43,7.75,42.48,6.39,10.25,27,13.89,44.36,13.89h.56c17.05-.08,37.47-3.78,43.67-13.93C124.64,107.55,130.31,93.11,127,73.83Zm-7.88,1.34a62.5,62.5,0,0,1,.74,6.53A28.62,28.62,0,0,0,114,76.05a8.91,8.91,0,0,0,1-1.53,10.28,10.28,0,0,0,1.08-6.5A16,16,0,0,0,114,62.4a26.53,26.53,0,0,0-1.55-2.35c-.27-.4-.57-.72-.86-1.08l-.83-1a4.12,4.12,0,0,1-1-2.52C115.51,60.27,117.36,64.62,119.15,75.17Zm-28.66,46c-3.18.46-6.59.78-10.16.94a59.87,59.87,0,0,1,4.82-6,18.88,18.88,0,0,1,2.65-1.62l.15.11a5.09,5.09,0,0,1,2.64,3.18A7,7,0,0,1,90.49,121.14Zm-2.36-11.38c-3.15,1.68-5,2.67-5.82,3.52a83.87,83.87,0,0,0-7,8.92,109,109,0,0,1-15.82-1.11,6.57,6.57,0,0,1-.21-3.9A3.64,3.64,0,0,1,61.74,115c.68-.25,1.33,0,2.5.39a8.3,8.3,0,0,0,6.29.3c3.77-1.45,4.68-4.45,5.35-6.64.53-1.72.84-2.64,1.82-3.1.64-.31,1.44-.72,2.35-1.19,6.83-3.54,10.83-5,11.84-4.41l.28.36-4.15,3,5-1.86c.22.3.44.59.65.89L90,105.47l4.38-1.62c.49.83.76,1.53.48,1.85C94.15,106.55,90.52,108.48,88.13,109.76Zm-28.78-5.28,5,1.84-4.25-3.09.52-.74,5.74,2.13-4.74-3.46.16-.21.4-.53c1-.62,4.85.76,11.35,4.1a12.2,12.2,0,0,0-1.45,3.39c-.59,1.92-1,3.11-2.46,3.85-.94-.55-2.13-1.19-3.64-2-2.4-1.28-6-3.21-6.75-4.06C59,105.47,59.1,105,59.35,104.48Zm36.14-6L95.06,98c-2.75-3.6-9.26-.64-16.85,3.28l-1.17.61-1.17-.61C68.28,97.31,61.78,94.35,59,98l-.43.56a28.71,28.71,0,0,0-2.67,3.9,10.23,10.23,0,0,1-3.82-3.85,10,10,0,0,0,5-5.61c.91-2.72.25-5.33-1.65-6.49-1-.59-1.71-1.09-2.26-1.49l.62.15c2.12.5,4.74,1.13,5.84-1.05A2.57,2.57,0,0,0,59.78,82c-.52-1.37-2.65-2.93-6.32-4.66a14.58,14.58,0,0,0,2.29-2.56,14.35,14.35,0,0,0,1.44-2.64c6.5,3.21,14.63,3.46,17,3.46h.63c.59,0,10.18-.18,17.84-4a14.11,14.11,0,0,0,1.63,3.19,15.11,15.11,0,0,0,2.09,2.38C92.46,79,90.22,80.57,89.68,82a2.57,2.57,0,0,0,.08,2.09c1.09,2.18,3.72,1.55,5.83,1.05l.63-.15c-.55.4-1.29.9-2.26,1.49-1.9,1.16-2.57,3.77-1.65,6.49a9.8,9.8,0,0,0,4,5,2.06,2.06,0,0,0,1,.58l.61.28a11.45,11.45,0,0,1-1.16,1.41C96.37,99.64,95.92,99.06,95.49,98.51ZM39,78.51c.25.14.49.27.74.39l.7.33.7.25c.47.15.92.33,1.4.45l1.49.3c.5.07,1,.07,1.53.11a11.28,11.28,0,0,0,3.6-.55c.7.29,1.39.59,2.05.9a3.41,3.41,0,0,0-3.27,1.87c-1.37,2.81,2.13,5.25,5.5,7.3A1.63,1.63,0,0,1,53.52,91l-.25,0c-.48-.09-1-.2-1.47-.34a26.6,26.6,0,0,1-3-1,22.57,22.57,0,0,1-2.87-1.43,10.63,10.63,0,0,1-2.55-2,11.32,11.32,0,0,0,1.91,2.77,23,23,0,0,0,2.47,2.36,28.55,28.55,0,0,0,2.78,2.06c.38.24.77.46,1.17.68a4.48,4.48,0,0,1-.52.41,2,2,0,0,0-.73,0,.38.38,0,0,0-.13,0H50c-.2,0-.44,0-.67-.08-.48-.09-1-.21-1.48-.35a24,24,0,0,1-3-1A23.3,23.3,0,0,1,42,91.59a10.63,10.63,0,0,1-2.54-2,11,11,0,0,0,1.9,2.77,26.26,26.26,0,0,0,2.47,2.36c.51.42,1,.82,1.57,1.21-.36,0-.74,0-1.13-.08-7.62-.77-10-10-10.58-12.85A26.55,26.55,0,0,1,39,78.51Zm67.67,13.18a22.62,22.62,0,0,1-2.88,1.42,25.85,25.85,0,0,1-3,1c-.5.14-1,.25-1.48.34a5.78,5.78,0,0,1-.67.08h-.15a5.75,5.75,0,0,1-.71-.54c.41-.22.81-.45,1.19-.69a27.39,27.39,0,0,0,2.78-2.06,23,23,0,0,0,2.47-2.36,10.79,10.79,0,0,0,1.91-2.77,10.38,10.38,0,0,1-2.54,2,23.37,23.37,0,0,1-2.88,1.43,25.78,25.78,0,0,1-3,1c-.5.14-1,.25-1.48.34l-.27,0a1.71,1.71,0,0,1,.1-1.12c3.39-2.07,6.89-4.51,5.52-7.32a3.41,3.41,0,0,0-3.27-1.87c.73-.34,1.49-.67,2.26-1a11.47,11.47,0,0,0,3.93.66c.51,0,1,0,1.53-.12L107.5,80c.48-.12.93-.3,1.4-.45l.7-.25.7-.33.45-.24a26.57,26.57,0,0,1,5,4.32c-.55,2.86-2.93,12.08-10.58,12.85a13.84,13.84,0,0,1-1.78.07c.48-.35,1-.72,1.41-1.1a26.26,26.26,0,0,0,2.47-2.36,11,11,0,0,0,1.9-2.77A10.38,10.38,0,0,1,106.63,91.69Zm-3.86-53.43a3.56,3.56,0,0,1,2,.52,3.38,3.38,0,0,1,1,2.25,13.1,13.1,0,0,1-.44,3.88c-.35,1.48-.82,3.08-1.23,4.83a19.37,19.37,0,0,0-.58,5.93A10.41,10.41,0,0,0,106.27,62l.79.87c.24.28.52.54.73.83.44.58.91,1.14,1.27,1.73a10.36,10.36,0,0,1,1.58,3.55,4.86,4.86,0,0,1-.3,3.16A5.28,5.28,0,0,1,108,74.48l-.4.22-.47.19c-.32.11-.63.27-.94.36l-.94.24c-.32.07-.63.07-.94.12a6.84,6.84,0,0,1-3.59-.74,9.33,9.33,0,0,1-3-2.58,9.72,9.72,0,0,1-1.54-2.86,14.63,14.63,0,0,0,4.93-6.16c1.64-4-.2-7.79-1.69-10.82C98.69,51,98,49.48,98,48.64A18.34,18.34,0,0,0,97.55,44l.17,0a4,4,0,0,0,2.8-4.82v0c0-.07-.07-.2,0-.2h0A3.85,3.85,0,0,1,102.77,38.26Zm-28-10.06h.06c4.27,0,14.51,1.28,17.84,12.69a0,0,0,0,1,0,0l.08.32c.41,1.55,1.36,5.19,1.22,7.1s.8,3.84,1.79,5.87c1.25,2.55,2.54,5.19,1.58,7.54-3.89,9.49-22.47,9.82-22.69,9.82s-10.51.23-17-3.72A2,2,0,0,0,56.46,67h0a9.58,9.58,0,0,1-3.63-5.11c-1.2-4.37.2-7.1,1.45-9.51a12.86,12.86,0,0,0,1.33-3.27c.1-.44.2-1,.33-1.76a45.86,45.86,0,0,1,1.5-6.61,2,2,0,0,0,.11-.59C61.12,29.82,69.81,28.2,74.81,28.2ZM44.23,41a3.4,3.4,0,0,1,1-2.26,3.53,3.53,0,0,1,2-.51,3.79,3.79,0,0,1,2.31.61h0s-.08.13-.05.2l0,0a4,4,0,0,0,2.73,4.81l.27.06c-.19,1-.35,1.9-.5,2.73-.12.66-.22,1.23-.3,1.65a11,11,0,0,1-1,2.24C49.37,53.18,47.35,57.1,49,63a13.31,13.31,0,0,0,4.69,6.93,9.77,9.77,0,0,1-4.37,4.94,6.84,6.84,0,0,1-3.59.74c-.31,0-.62,0-.94-.12l-.94-.24c-.31-.09-.62-.24-.94-.36l-.47-.19-.4-.22a5.28,5.28,0,0,1-2.34-2.39,4.84,4.84,0,0,1-.3-3.15,10.4,10.4,0,0,1,1.58-3.56,20,20,0,0,1,1.27-1.72c.21-.29.49-.56.73-.84l.79-.87a10.39,10.39,0,0,0,2.75-6.28,19.37,19.37,0,0,0-.58-5.93c-.41-1.75-.88-3.35-1.23-4.83A13.08,13.08,0,0,1,44.23,41Zm-4,14.4a4.15,4.15,0,0,1-1,2.51l-.83,1c-.28.36-.59.68-.85,1.08A24.55,24.55,0,0,0,36,62.38,16,16,0,0,0,33.93,68,10.28,10.28,0,0,0,35,74.5a8.66,8.66,0,0,0,.84,1.29A29.43,29.43,0,0,0,30.16,81c.13-1.88.35-3.81.69-5.81C32.64,64.62,34.49,60.27,40.22,55.42ZM37.5,112.07a50.83,50.83,0,0,1-7.36-23.36c.17-.43.37-.86.58-1.31C32.31,92.21,35.94,99,43.89,99.83a18.69,18.69,0,0,0,1.94.1,15.59,15.59,0,0,0,2.43-.18c1.43,3.59,5.1,5.89,7,6.86a4.62,4.62,0,0,0,1,1.71,17.06,17.06,0,0,0,4.19,3h0a7.56,7.56,0,0,0-4.86,4.61,9.1,9.1,0,0,0-.28,4.47C46.33,118.57,39.71,115.63,37.5,112.07Zm75,0c-2.21,3.62-8.82,6.58-17.81,8.34a10.26,10.26,0,0,0-.2-3.64,8.57,8.57,0,0,0-2.76-4.42c3.1-1.68,5.23-2.94,6.2-4.06a4.39,4.39,0,0,0,.86-4.4A16.37,16.37,0,0,0,102,99.85c.51.05,1,.08,1.59.08a18.73,18.73,0,0,0,1.95-.1c8-.8,11.58-7.62,13.16-12.43a16.28,16.28,0,0,1,1,2.6A51.35,51.35,0,0,1,112.48,112.1Z"/><path d="M70.82,52.79a2.18,2.18,0,0,1-1-1.07,2,2,0,0,0,.34,1.77,4.44,4.44,0,0,0,1.39,1.24A7.09,7.09,0,0,0,75,55.6a7,7,0,0,0,3.47-.88,4.29,4.29,0,0,0,1.39-1.23,2,2,0,0,0,.34-1.77,2.13,2.13,0,0,1-1,1.07,5.18,5.18,0,0,1-1.33.49,12.85,12.85,0,0,1-5.7,0A5.58,5.58,0,0,1,70.82,52.79Z"/><path d="M79.8,43.48A7.5,7.5,0,0,1,84,42.2a7.67,7.67,0,0,1,4.22,1.28,9.17,9.17,0,0,1,3.32,4.15,6.44,6.44,0,0,0-1.12-6.4,8.29,8.29,0,0,0-12.82,0,6.42,6.42,0,0,0-1.13,6.39A9.12,9.12,0,0,1,79.8,43.48Z"/><path d="M58.71,47.63A9.12,9.12,0,0,1,62,43.48a7.66,7.66,0,0,1,4.21-1.28,7.5,7.5,0,0,1,4.21,1.28,9.07,9.07,0,0,1,3.33,4.15,6.44,6.44,0,0,0-1.13-6.39,8.29,8.29,0,0,0-12.82,0A6.42,6.42,0,0,0,58.71,47.63Z"/><path d="M75,65.06a9.46,9.46,0,0,0-3.29.58,7,7,0,0,0-2.77,1.83l3.13-.28c1-.08,2-.12,2.93-.13s1.94,0,2.93.12,2,.2,3.13.29a7.36,7.36,0,0,0-2.78-1.81A9.62,9.62,0,0,0,75,65.06Z"/><path d="M87.22,58.54a12,12,0,0,0-2.2-.41,16.06,16.06,0,0,0-2-.08c-1.42-1.06-3.41-.76-5.35-.46a18.48,18.48,0,0,1-2.7.28h0a17.65,17.65,0,0,1-2.19-.24c-2.13-.32-4.5-.67-6,.42a16.86,16.86,0,0,0-1.89.08,12.29,12.29,0,0,0-2.23.4,4.55,4.55,0,0,0-2,1.12,2.13,2.13,0,0,0-.4,2.14A1.87,1.87,0,0,1,61,60a3.78,3.78,0,0,1,1.87-.5,10.68,10.68,0,0,1,2,.11,15.5,15.5,0,0,1,1.54.29A12.36,12.36,0,0,0,75,63.4,11.92,11.92,0,0,0,83.37,60,15.38,15.38,0,0,1,85,59.63a10.33,10.33,0,0,1,2-.11,3.68,3.68,0,0,1,1.83.52,1.87,1.87,0,0,1,.71,1.75,2.15,2.15,0,0,0-.37-2.12A4.33,4.33,0,0,0,87.22,58.54ZM75,61.4a10.75,10.75,0,0,1-6.2-2,14,14,0,0,1,3.71.25,19,19,0,0,0,2.49.26h0a19,19,0,0,0,3-.31,11.21,11.21,0,0,1,3-.21A10,10,0,0,1,75,61.4Z"/><path d="M87,47.65l.43-.89-.88-.45a5.92,5.92,0,0,0-4.58-.56A4.72,4.72,0,0,0,79.3,48l-.43.89.88.44a6.87,6.87,0,0,0,3.06.81,4.53,4.53,0,0,0,1.52-.25A4.72,4.72,0,0,0,87,47.65ZM83.69,48a3.17,3.17,0,0,1-1.81,0,2.41,2.41,0,0,1,.68-.35,3.16,3.16,0,0,1,1.81,0A2.43,2.43,0,0,1,83.69,48Z"/><path d="M66.21,49.88a4.57,4.57,0,0,0,1.52.25,6.87,6.87,0,0,0,3.06-.81l.89-.44L71.24,48a4.68,4.68,0,0,0-2.61-2.24,5.91,5.91,0,0,0-4.58.56l-.89.45.43.89A4.72,4.72,0,0,0,66.21,49.88ZM68.69,48a2.91,2.91,0,0,1-2.55-.36A2.87,2.87,0,0,1,68.69,48Z"/></svg>