<svg id="Graphics" xmlns="http://www.w3.org/2000/svg" viewBox="0 0 150 150"><path d="M127.5,54.62H98.08v-15h12.77v-8H98.08v-8.3h-8v8.3h-30V23.27h-8v8.35H39.21v8H52.06v15H22.5v8h105Zm-67.44-15h30v15h-30Z"/><path d="M129.78,69.77l-.32-3.65H80.57v19.5h9.51v3.5h-30v-3.5h9.5V66.12h-49l-.32,3.65c-.15,1.72-.22,3.31-.22,4.85a55.61,55.61,0,0,0,.53,7.54L21,85.62H52.06v3.5H23.5v8H52.06v3.5H25.9L30.53,107a55,55,0,0,0,24,18.71,53.6,53.6,0,0,0,10.26,3l4.73.89V100.62h-9.5v-3.5h30v3.5H80.57v28.92l4.75-.9A55,55,0,0,0,119.47,107l4.63-6.35h-26v-3.5H126.5v-8H98.08v-3.5H129l.47-3.46a55.61,55.61,0,0,0,.53-7.54C130,73.08,129.93,71.49,129.78,69.77ZM28,74.62v-.5H61.56v3.5H28.1C28,76.61,28,75.6,28,74.62Zm33.56,45c-1.36-.4-2.7-.87-4-1.39a47.17,47.17,0,0,1-15-9.64h19Zm31-1.44c-1.31.53-2.65,1-4,1.41v-11h18.87A47.13,47.13,0,0,1,92.58,118.21ZM121.9,77.62H88.57v-3.5H122v.5C122,75.6,122,76.61,121.9,77.62Z"/></svg>