<svg id="Graphics" xmlns="http://www.w3.org/2000/svg" viewBox="0 0 150 150"><path d="M21,85.47a51.81,51.81,0,0,0,1.24,5.13c.39,1.36.84,2.69,1.34,4A55.1,55.1,0,0,0,71,130v-8A47.09,47.09,0,0,1,32.24,94.6c-.6-1.3-1.14-2.64-1.61-4a44.91,44.91,0,0,1-1.47-5.13H71V90.6H38.13a38.89,38.89,0,0,0,1.95,4A40.08,40.08,0,0,0,71,114.93v-8.06A32,32,0,0,1,49.64,94.6h50.72A32,32,0,0,1,79,106.87v8.06A40.08,40.08,0,0,0,109.92,94.6a38.89,38.89,0,0,0,2-4H79V85.47h41.84a44.91,44.91,0,0,1-1.47,5.13c-.47,1.36-1,2.7-1.61,4A47.09,47.09,0,0,1,79,122v8a55.1,55.1,0,0,0,47.43-35.4c.5-1.31.95-2.64,1.34-4A51.81,51.81,0,0,0,129,85.47c.26-1.32.47-2.65.62-4H20.37C20.52,82.82,20.73,84.15,21,85.47Z"/><path d="M71,28.18v7A39.87,39.87,0,0,0,48,45.53h14.6A31.89,31.89,0,0,1,71,43.28v2.25h8V43.28a31.89,31.89,0,0,1,8.39,2.25H102A39.87,39.87,0,0,0,79,35.22v-7a46.92,46.92,0,0,1,32.56,17.35h9.84A55,55,0,0,0,79,20.15c-1.32-.1-2.65-.15-4-.15s-2.68.05-4,.15A55,55,0,0,0,28.61,45.53h9.83A46.92,46.92,0,0,1,71,28.18Z"/><path d="M130,73.07a52.21,52.21,0,0,0-.53-5.88c-.19-1.35-.43-2.68-.72-4a50,50,0,0,0-1.41-5.14c-.43-1.36-.92-2.69-1.47-4H117a43.43,43.43,0,0,1,1.78,4,47.39,47.39,0,0,1,1.66,5.14c.34,1.31.63,2.64.86,4a45.75,45.75,0,0,1,.61,5.88h-7a39.37,39.37,0,0,0-.73-5.88A39.91,39.91,0,0,0,109,54.05H41a39.82,39.82,0,0,0-5.19,13.14,39.37,39.37,0,0,0-.73,5.88h-7a45.75,45.75,0,0,1,.61-5.88c.23-1.36.52-2.69.86-4a47.39,47.39,0,0,1,1.66-5.14,43.43,43.43,0,0,1,1.78-4H24.17c-.55,1.31-1,2.64-1.47,4a50,50,0,0,0-1.41,5.14c-.29,1.32-.53,2.65-.72,4A52.21,52.21,0,0,0,20,73.07c0,.67,0,1.33,0,2s0,1.33,0,2h23c0-.66-.06-1.33-.06-2s0-1.35.06-2A32.75,32.75,0,0,1,44,67.19a31.77,31.77,0,0,1,3.92-9.14h54.2A31.77,31.77,0,0,1,106,67.19a32.75,32.75,0,0,1,.92,5.88q.06,1,.06,2c0,.67,0,1.34-.06,2h23c0-.67,0-1.33,0-2S130,73.74,130,73.07Z"/><path d="M49.08,73.07c0,.66-.08,1.33-.08,2s0,1.34.08,2h51.84c0-.66.08-1.33.08-2s0-1.35-.08-2H79V67.19H99.78a24.24,24.24,0,0,0-1.66-4H51.88a24.24,24.24,0,0,0-1.66,4H71v5.88Z"/></svg>