<?xml version="1.0" encoding="UTF-8"?>
<svg id="Graphics" xmlns="http://www.w3.org/2000/svg" viewBox="0 0 150 150">
  <polygon points="90.74 42.32 89.69 40.62 87.62 42.9 87.78 43.15 90.74 42.32"/>
  <path d="m113.57,101.14c5.59,0,10.66,3.33,12.91,8.49l3.67-1.6c-2.55-5.83-7.9-9.84-14.05-10.71,1.07-6.78,6.89-11.99,13.91-11.99v-4c-9.19,0-16.79,6.94-17.93,15.89-8.52.71-15.38,7.38-16.44,15.86-1.83-.73-3.8-1.16-5.86-1.26l.78-1.92c.14-.34.02-.74-.3-.95l-.27-.17-.86-.54,1.9-.37,1.41,1.28.78-.63-1.25-2.13c-.09-.16-.26-.27-.45-.29l-.26-.03-3.1-.34,1.36-1.39,1.97.51.4-.92-2.28-1.47c-.19-.12-.44-.14-.66-.03l-.26.14-4.22,2.16-4.93-3.83c-1.3-1.01-2.2-2.41-2.61-3.96l7.12,3.65.1.05c.11.05.2.1.31.13,2.55,1.18,5.28,1.78,8.11,1.78,8.15,0,15.51-5.17,18.33-12.87.01-.04.03-.08.04-.12.77-2.14,1.15-4.38,1.15-6.67,0-.28-.02-.56-.03-.83,2.68-.82,5.14-2.29,7.16-4.26l.25.59.12.29c.08.19.25.34.46.39l3.06.75.39-.92-2.13-1.31-.36-4.37,6.3-2.84,2.37,1.69.67-.74-2.32-2.69c-.16-.19-.42-.29-.68-.24l-.22.04-4.95.92,1.91-4.53,2.16.34.27-.96-2.73-1.15c-.3-.12-.65-.04-.85.23l-.12.17-3.37,4.5-1.38-3.46,1.1-2.2-.82-.57-2.02,2.21c-.11.13-.18.3-.16.48l.03.25.33,3.27-3.16-2.15.28-1.96-.9-.44-1.13,2.57c-.1.22-.07.49.1.69l.15.18,2.69,3.13c-1.55,1.33-3.34,2.27-5.3,2.79-.98-1.66-2.2-3.16-3.66-4.48-.01,0-.06-.05-.1-.09-.04-.04-.08-.08-.12-.12-1.19-1.04-2.51-1.94-3.92-2.66-.79-.42-1.59-.77-2.38-1.04-.05-.02-.1-.03-.15-.04l-2.99-.78c-.66-.15-13.44-3.5-21.89-5.72l-.3-.07c-1.68-.44-3.32-1.09-4.87-1.93-3.38-1.83-6.27-4.52-8.36-7.78-.02-.03-.04-.07-.07-.1-.18-.25-.29-.42-.39-.65-.21-.44-.33-.93-.33-1.42,0-1.8,1.44-3.26,3.22-3.26.51,0,1,.12,1.49.36l6.23,3.25,1.05.5-.14.17c.79,1,1.86,1.93,3.25,2.45.68.26,1.41.41,2.16.47-.14.14-.3.26-.47.37-.37.24-.81.45-1.3.54-.49.12-1.03.12-1.58.09l-.2.55c.5.31,1.05.62,1.68.8.62.2,1.31.27,2.01.24.26-.01.52-.07.78-.11-.02.02-.03.05-.06.07-.31.32-.68.63-1.14.83-.45.23-.97.36-1.52.46l-.07.58c.56.19,1.17.35,1.82.38.65.05,1.34-.04,2.01-.24.47-.14.93-.37,1.36-.63.02.02.04.04.06.05-.14.26-.3.51-.52.74-.31.32-.68.63-1.14.83-.45.23-.97.36-1.52.46l-.07.58c.56.19,1.17.35,1.82.38.65.05,1.34-.04,2.01-.24.57-.17,1.12-.46,1.64-.8-.01.03-.02.07-.03.1-.18.41-.43.83-.79,1.18-.34.38-.79.67-1.27.96l.14.57c.59-.02,1.22-.08,1.84-.28.63-.18,1.24-.51,1.8-.93.35-.26.66-.58.95-.92.07.02.14.04.2.05-.02.15-.04.31-.09.46-.13.43-.32.88-.63,1.27-.29.42-.7.77-1.14,1.11l.21.55c.59-.1,1.2-.23,1.79-.51.6-.26,1.17-.66,1.67-1.15.4-.39.73-.85,1.02-1.35,1.96,1.68,4.4,2.57,6.91,2.57,1.29,0,2.59-.24,3.85-.72,2.23-.88,4.06-2.43,5.3-4.5.46-.78.35-1.77-.28-2.42-.63-.65-1.61-.8-2.4-.36-.29.16-.55.28-.85.39-2.11.82-4.42.61-6.34-.59-.45-.28-.86-.61-1.23-.98.14-.15.27-.31.39-.48.43.21.87.39,1.34.55.4.12.8.25,1.2.33,2.13.47,4.34.3,6.39-.49.84-.33,1.62-.74,2.34-1.24,1.55-1.09,2.76-2.54,3.58-4.2,0,0,0,0,0,0,.97.27,1.96.29,2.88.2.92-.09,1.8-.3,2.58-.39.39-.05.74,0,.81.07.12.06.21.44.18.82-.02.78-.31,1.62-.44,2.52-.06.45-.11.9-.06,1.37.04.46.19.98.58,1.34.39.35.88.44,1.32.49.44.05.88.05,1.29.12.41.06.83.22,1.04.59.23.36.25.81.24,1.24.05-.43.07-.89-.14-1.3-.2-.43-.67-.65-1.09-.75-.84-.22-1.83-.17-2.34-.71-.48-.55-.33-1.47-.16-2.26.18-.81.55-1.61.7-2.56.04-.46.15-1.05-.34-1.65-.25-.28-.59-.41-.87-.46-.28-.06-.53-.07-.78-.07-.95.02-1.78.14-2.6.13-.79.01-1.52-.11-2.18-.36.03-.23.03-.45-.02-.68-.1-.42-.23-.86-.43-1.39-.25-.64-.55-1.25-.89-1.82.59,0,1.24.06,1.88.11.96.08,1.94.17,2.98.11.52-.04,1.06-.11,1.6-.36.55-.23,1.07-.85,1.12-1.46.08-.6-.06-1.13-.21-1.61-.14-.45-.27-.9-.37-1.35-.2-.91-.27-1.85-.08-2.75.17-.91.72-1.69,1.23-2.52.25-.42.4-.94.32-1.43-.08-.49-.3-.93-.56-1.33.23.42.41.88.45,1.34.04.47-.13.92-.4,1.3-.54.76-1.2,1.54-1.47,2.53-.29.97-.28,1.99-.15,2.97.06.49.16.97.28,1.45.1.44.15.88.06,1.23-.13.68-.95.82-1.85.8-.89-.03-1.82-.2-2.76-.37-.96-.16-1.88-.38-3.05-.35-.08,0-.16.01-.25.02,0,0-.01-.02-.02-.02-.41-.44-.98-.69-1.59-.65-.6.03-1.15.34-1.51.82-.57.78-1.35,1.38-2.29,1.75-.33.13-.68.22-1.05.28-.87.14-1.74.05-2.54-.25-.14-.23-.29-.45-.43-.65-.82-1.18-1.85-2.16-3.03-2.93-.1-.07-.21-.14-.3-.2-1.06-.64-2.17-1.09-3.29-1.35-.43-.1-.88-.18-1.38-.22-.75-.07-1.48.3-1.88.95-.18.29-.38.55-.59.81-.69-.58-1.37-1.31-1.95-2.11-.91-1.26-1.67-2.69-2.23-4.19-.56-1.51-.93-3.1-.99-4.72-.06-1.61.19-3.26.95-4.74l-.5-.31c-1.06,1.43-1.66,3.19-1.89,4.98-.23,1.79-.12,3.61.22,5.39.34,1.78.91,3.53,1.74,5.2.47.91.99,1.82,1.66,2.67-.44.17-.88.28-1.32.35-.91-.56-1.83-1.4-2.62-2.34-.98-1.17-1.83-2.51-2.49-3.95-.66-1.43-1.14-2.96-1.33-4.54-.19-1.57-.06-3.21.55-4.72l-.52-.27c-.92,1.48-1.37,3.26-1.46,5.02-.09,1.77.15,3.55.61,5.27.26.97.6,1.93,1.01,2.86l-6.5-3.34c-2.04-1.04-4.26-1.57-6.6-1.57-3.37,0-6.65,1.17-9.25,3.28-.03.02-.07.05-.1.08-3.44,2.84-5.4,7.04-5.4,11.5,0,2.61.68,5.17,1.91,7.32.06.12.13.23.22.34.71,1.01,1.48,2,2.31,2.95,1.15,1.31,2.36,2.54,3.62,3.66,2.67,2.36,5.63,4.32,8.81,5.84.51.25,1.03.48,1.56.71-.14,1.43-.76,2.74-1.8,3.75-.37.37-.79.67-1.23.93l.43-1.52.08-.28c.09-.31-.04-.65-.32-.82l-2.41-1.5-.65.76,1.28,1.52-1.16,1.75-1.47-3.84-.09-.23c-.07-.19-.24-.34-.45-.39l-2.58-.59-.36.93,1.81,1,.28,3.22-3.52-2.58-.18-.13c-.24-.17-.56-.2-.83-.05l-3.34,1.88.39.92,2.99-.86,2.88,3.39-4.51.43-.23.02c-.32.03-.58.28-.62.6l-.33,2.56.97.26.69-1.66,5.72,1c0,.44.16.87.44,1.22l.09,1.91-2.59.77.13.99,3.72.12c.39.01.74-.24.85-.62l.1-.34.23-.81c1.42.78,3.02,1.21,4.67,1.21.61,0,1.23-.06,1.89-.18,3.01-.6,5.57-2.63,6.85-5.43.07-.16.13-.33.15-.5.08-.46.21-.89.42-1.3.02-.04.04-.09.06-.13.85-1.71,2.54-2.78,4.44-2.81.05,0,.1,0,.15,0,.18.02.33.01.64.03.35,0,.69.03,1.04.05.02,0,.04,0,.05,0,5.42.43,10.64,2.31,15.17,5.49.13.08.25.18.41.3.25.18.52.42.83.73.76.78,1.34,1.73,1.69,2.75.26.76.38,1.55.38,2.37,0,4.05-3.26,7.34-7.27,7.34-.88,0-1.77-.16-2.54-.45-.53-.21-1.02-.47-1.47-.76-.09-.06-.18-.12-.27-.17l-9.77-5.06c-.97-.47-1.98-.82-2.94-1.05-2.25-.58-4.75-.62-7.18-.04-3.78.89-7.06,3.19-9.25,6.48-.06.08-.11.17-.15.27-.09.19-.19.37-.33.56-1.1,1.6-2.92,2.56-4.85,2.56-3.25,0-5.9-2.67-5.9-5.96,0-.41.03-.76.11-1.15.05-.3.15-.63.27-.95.04-.09.07-.19.09-.29.23-.97.34-1.97.34-2.98,0-2.87-.89-5.6-2.56-7.88-1.67-2.31-4.2-3.99-7.33-4.84-.12-.03-.24-.05-.36-.06l.02-.07c-1.84-.23-3.77-.79-5.32-1.62-1.57-.84-2.79-1.89-3.2-3.41-.13-.36-.15-.84-.2-1.27v-.65s.09-.64.09-.64c.13-.66.44-1.32.86-2l.13.04c.36.06.7.14,1.08.15.72.06,1.59-.09,2.22-.59.63-.51.89-1.21,1.03-1.84.07-.32.12-.64.17-.95.06-.31.07-.64.28-.87-.28.18-.38.53-.52.8-.13.29-.26.58-.4.85-.28.54-.66,1-1.11,1.18-.44.17-.92.13-1.42-.05-.15-.05-.31-.12-.46-.19.19-.27.37-.56.55-.86.34.02.7,0,1.1-.1.31-.08.64-.25.88-.5.25-.24.38-.54.47-.8.15-.54.12-1.01.12-1.46,0-.45-.06-.9.21-1.26-.41.25-.55.78-.71,1.18-.15.42-.31.85-.53,1.12-.24.28-.43.29-.67.24-.03,0-.06-.02-.09-.03.38-1.07.48-2.2.36-3.25h-.29,1s-1-2.38-1-2.38l-1,2.38h.71c-.13,1.01-.47,1.95-1,2.73-.18-.03-.34-.08-.45-.14-.23-.1-.39-.22-.42-.59-.03-.35.08-.79.19-1.23.1-.42.28-.94.08-1.38.02.46-.29.8-.54,1.17-.26.37-.55.74-.73,1.28-.08.27-.13.59-.06.93.06.34.24.67.44.91.1.13.21.23.32.33-.29.26-.61.52-.93.79-.22-.15-.47-.29-.68-.46-.42-.33-.72-.71-.82-1.18-.1-.47.08-1.04.37-1.57.15-.27.32-.53.5-.8.16-.26.39-.54.39-.88-.08.31-.35.5-.58.71-.24.21-.47.43-.71.66-.45.47-.9,1.08-.97,1.88-.08.8.27,1.6.7,2.18.16.22.33.41.51.61-.58.59-1.14,1.26-1.56,2.08l-.43.97c-.11.33-.2.66-.3,1-.14.68-.28,1.32-.27,2.08-.03,1.46.31,3.02.99,4.34.67,1.32,1.56,2.46,2.53,3.44.97.98,2.03,1.82,3.12,2.56,1.09.75,2.21,1.4,3.43,2l.02-.05c.21.12.45.21.7.25.84.12,1.66,1.35,1.66,2.49,0,.16-.02.31-.05.45-.03.07-.05.15-.07.22-.03.13-.09.26-.19.41-.09.14-.16.29-.22.44-.81,2.06-1.22,4.21-1.22,6.4,0,.09,0,.18,0,.27-2.95-.04-5.87.72-8.33,2.22-.17.1-.31.22-.47.32-1.19-.25-2.43-.39-3.7-.39-1,0-2,.08-2.98.25l.66,3.95c.76-.13,1.54-.19,2.32-.19,7.16,0,13.08,5.42,13.97,12.41-4.54.64-8.68,2.99-11.58,6.62-.98-.17-1.98-.27-3-.27-1.35,0-2.7.15-4.01.45l.89,3.9c1.02-.23,2.07-.35,3.12-.35,7.77,0,14.1,6.38,14.1,14.23h5c0-7.84,6.32-14.23,14.1-14.23s14.1,6.38,14.1,14.23h4c0-7.84,6.32-14.23,14.1-14.23s14.1,6.38,14.1,14.23h4c0-7.84,6.32-14.23,14.1-14.23,2.13,0,4.18.47,6.08,1.39l1.74-3.6c-2.45-1.19-5.08-1.79-7.82-1.79-7.01,0-13.1,4.05-16.1,9.94-1.32-2.59-3.24-4.82-5.58-6.51.09-7.77,6.37-14.06,14.09-14.06Zm-26.62,10.76l-.06-.26-.39-1.72,2.09.51-.08,1.37c-.53.01-1.05.04-1.56.1Zm-12.62-10.92l-1.72-.9c-1.42-.75-2.35-2.21-2.41-3.83l-.04-1.11s.06-.06.09-.08c.67-.5,1.54-.63,2.34-.31l.09.05c-.05,2.2.53,4.35,1.65,6.2Zm41.82-27.16l.43.99c-1.44,1.45-3.18,2.57-5.09,3.25-.05-.19-.1-.38-.15-.57,0-.02,0-.03-.01-.05,0-.02-.01-.04-.02-.06-.09-.32-.19-.64-.3-.95,1.85-.58,3.59-1.46,5.15-2.61Zm-26.33-35.48c.64.18,1.27.45,1.85.79.06.05.12.09.19.13.77.49,1.44,1.13,2,1.93.17.23.33.49.47.78.19.38.5.68.87.87,1.69.87,3.6,1.17,5.49.87.66-.1,1.3-.27,1.89-.51.77-.3,1.5-.7,2.15-1.18.07.15.13.29.19.44.04.1.07.2.1.29-.52,1.16-1.35,2.16-2.42,2.91-.45.31-.96.58-1.5.79-1.31.51-2.72.62-4.08.32-.28-.06-.57-.15-.81-.23-.77-.26-1.47-.65-2.11-1.15-.52-.42-1.21-.54-1.85-.34-.64.2-1.13.7-1.32,1.34-.16.56-.47,1.05-.87,1.4-.2.17-.39.31-.61.43-.47.27-.81.71-.95,1.24-.14.52-.05,1.08.23,1.54.89,1.47,2.14,2.73,3.61,3.65.29.18.59.35.89.5-1.07-.33-2.07-.95-2.88-1.81-.38-.4-.91-.63-1.46-.63-.07,0-.15,0-.22.01-.45.05-.89.06-1.34.01-.67-.05-1.35-.2-2.01-.46-1.26-.48-2.36-1.31-3.19-2.42-.42-.54-.75-1.13-.96-1.7l-.17-.47s-.03-.09-.04-.14c0-.02-.02-.06-.02-.09,0-.01,0-.02,0-.03l-.06-.27c-.07-.26-.11-.54-.14-.81-.05-.44-.08-.88-.05-1.35.02-.43.09-.86.2-1.28.02-.07.03-.14.05-.2,0-.02.01-.05.02-.07,0,0,0,0,0,0,.09-.22.27-.55.48-.88.22,0,.44-.01.65-.03.02,0,.04,0,.05,0,1.01-.09,1.98-.32,2.98-.7,1.85-.72,3.48-1.93,4.72-3.48Zm-53.42,52.54c.74,0,1.45.06,2.12.19.64.12,1.3-.08,1.77-.54.47-.46.68-1.12.57-1.76-.12-.71-.18-1.41-.18-2.15,0-1.66.31-3.29.91-4.85.24-.41.43-.83.55-1.26.01-.03.02-.06.03-.1.17-.55.25-1.1.25-1.71,0-2.26-1.18-4.39-2.88-5.56l.05-.14c1.41.65,2.56,1.56,3.38,2.7,1.17,1.61,1.79,3.52,1.79,5.53,0,.65-.07,1.3-.21,1.93-.21.54-.35,1.07-.43,1.54-.12.58-.18,1.2-.18,1.89,0,5.49,4.44,9.96,9.9,9.96,3.25,0,6.3-1.6,8.12-4.25.23-.32.44-.67.62-1.04,1.63-2.38,4.02-4.05,6.77-4.69,1.8-.43,3.59-.41,5.3.03.73.17,1.46.43,2.11.74l9.59,4.97c.68.45,1.43.84,2.25,1.16,1.25.47,2.63.72,3.99.72,6.21,0,11.27-5.09,11.27-11.34,0-1.25-.2-2.48-.6-3.66-.54-1.58-1.44-3.06-2.62-4.27-.48-.49-.91-.86-1.3-1.14-.2-.15-.4-.3-.55-.4-5.07-3.56-11-5.7-17.14-6.17-.02,0-.03,0-.05,0-.4-.03-.8-.05-1.16-.06-.17,0-.33-.02-.5-.02-.19-.01-.36-.02-.63,0-3.41.1-6.43,2.07-7.91,5.18-.02.03-.03.07-.04.1-.3.63-.52,1.3-.67,1.99-.78,1.53-2.22,2.63-3.88,2.97-1.74.32-3.35-.1-4.63-1.11l.05-.29s.02-.06.02-.09c.06-.01.12-.02.18-.03.01,0,.12-.02.13-.02,1.88-.35,3.62-1.28,5.03-2.67,1.95-1.9,3.02-4.46,3.02-7.2,0-.33-.02-.68-.06-1-.09-.73-.58-1.35-1.26-1.62-.89-.34-1.72-.7-2.54-1.1-2.84-1.36-5.5-3.12-7.88-5.22-1.13-1.01-2.23-2.12-3.26-3.3-.74-.85-1.44-1.75-2.08-2.66,0,0,0,0,0-.01-.89-1.6-1.36-3.43-1.36-5.31,0-3.24,1.42-6.29,3.9-8.37.03-.02.06-.04.08-.07,1.93-1.59,4.27-2.43,6.78-2.43,1.7,0,3.31.38,4.78,1.13l9.81,5.04c-.15.37-.28.74-.39,1.12,0,0,0,0,0,0,0,.02-.01.04-.02.06-.02.06-.04.12-.06.18,0,.01,0,.03,0,.04,0,0,0,0,0,0-.11.37-.19.75-.25,1.13,0,.03,0,.06-.01.1-.05.33-.09.67-.11,1l-4.22-2.02-6.06-3.17-.17-.08c-1.05-.52-2.15-.78-3.28-.78-3.98,0-7.22,3.26-7.22,7.26,0,1.1.25,2.2.7,3.1.23.52.5.93.75,1.27,2.45,3.8,5.83,6.94,9.79,9.09,1.83.99,3.76,1.76,5.77,2.29l.3.08c7.71,2.02,20.47,5.37,21.97,5.73h0s2.83.74,2.83.74c.57.2,1.16.46,1.76.78,1.11.57,2.14,1.27,3.07,2.07.09.09.18.16.24.22,1.48,1.34,2.66,2.9,3.54,4.71.27.52.5,1.09.71,1.68.11.3.22.59.3.9.03.12.06.24.09.36.13.52.24,1.03.32,1.55.02.13.05.25.06.38,0,0,0,0,0,.01.09.66.14,1.34.14,2.07,0,1.86-.32,3.67-.95,5.4-.01.03-.02.07-.03.1-2.27,6.08-8.1,10.15-14.54,10.15-2.28,0-4.46-.49-6.5-1.44-.07-.03-.1-.05-.17-.07l-10.2-5.22-1.38-.7s-.08-.04-.13-.06c-2.1-.88-4.54-.57-6.32.77-.3.22-.57.46-.82.73l-5.09,4.54c-1.11.87-2.31,1.53-3.59,1.99-2.43.91-5.2,1.05-7.75.39-2.41-.61-4.58-1.9-6.32-3.76-.16-.17-.32-.34-.44-.45-1.98-2.01-4.63-3.12-7.45-3.12-.62,0-1.24.08-1.84.18-.49-.35-.99-.67-1.52-.97,1.08-.32,2.21-.5,3.36-.5Zm3.76,31.88c-1.82-4.21-5.17-7.59-9.34-9.43,2.61-2.57,6.11-4.07,9.84-4.07s6.96,1.39,9.54,3.78c-4.49,1.77-8.12,5.28-10.04,9.72Zm32.7-1.04c-3-5.89-9.08-9.94-16.1-9.94-.72,0-1.42.05-2.12.14-3.1-3.8-7.62-6.18-12.47-6.59-.34-3.22-1.52-6.18-3.3-8.68.8.33,1.54.83,2.19,1.49.11.1.2.2.33.34,2.24,2.4,5.09,4.09,8.23,4.88,1.37.36,2.8.54,4.24.54,2.04,0,4.03-.35,5.87-1.04,1.69-.6,3.28-1.5,4.75-2.65.03-.03.07-.06.1-.09l1.94-1.73c.63,2.23,2.14,4.14,4.22,5.23l9.89,5.18-1.47,2.42-.16.27c-.1.16-.11.37,0,.55l.83,1.42.94-.33-.14-1,2.8-2.08,1.38,1.99-.23.32c-5.1,1.29-9.35,4.76-11.7,9.37Z"/>
</svg>