<?xml version="1.0" encoding="UTF-8"?>
<svg id="Graphics" xmlns="http://www.w3.org/2000/svg" viewBox="0 0 150 150">
  <path d="m48.33,65.06c1.05,0,1.95-.57,2.45-1.42-.49-.85-1.4-1.42-2.45-1.42s-1.95.57-2.45,1.42c.49.85,1.4,1.42,2.45,1.42Z"/>
  <path d="m128,81.64c-1.06,0-1.94.83-2,1.88,0,.04,0,.08,0,.12-.13.73-2.93,2.31-4.84,2.31-.97,0-1.81-.61-2.14-1.47.5-.02,1-.05,1.48-.13,1.34-.21,2.37-.79,2.76-1.35-.23-.02-.45.04-.8.07-.35.04-.82.03-1.43-.11-.58-.16-1.27-.51-1.91-1.08-.1-.09-.2-.18-.3-.27-.1-1.83-.47-3.62-1.09-5.33.42.08.84.19,1.24.37,1.3.55,2.44,1.8,3.04,3.52-.03-1.82-.79-3.78-2.15-5.01-.66-.63-1.45-1.1-2.27-1.39-.39-.13-.76-.22-1.15-.29-.25-.44-.51-.86-.8-1.28-.66-.96-1.4-1.85-2.2-2.66.5-.17,1.03-.3,1.58-.32,1.41-.08,2.95.4,4.32,1.63-.46-.8-1.08-1.51-1.78-2.08-.71-.58-1.53-1.03-2.41-1.27-.87-.26-1.77-.34-2.64-.25-.5.07-.95.16-1.41.32-1.29-.92-2.69-1.67-4.17-2.23.37-.39.78-.76,1.27-1.05,1.2-.73,2.89-.94,4.63-.42-1.5-1.04-3.54-1.58-5.34-1.17-.9.18-1.73.54-2.45,1.04-.34.25-.65.5-.93.79-1.22-.25-2.46-.39-3.73-.39-.32,0-.64.02-.96.04.11-.3.25-.6.41-.88.68-1.21,1.89-2.33,3.88-2.68-2.09-.23-3.9.47-5.24,1.62-.68.58-1.26,1.27-1.67,2.04-.04.08-.07.16-.11.24-.72.14-1.43.32-2.12.55-.96.32-1.89.72-2.78,1.19.02-.14.02-.28.05-.42.25-1.39,1.17-2.75,2.45-3.78-1.54.53-3.18,1.63-4.1,3.24-.47.79-.78,1.65-.86,2.52-1.38,1.03-2.6,2.25-3.64,3.62-.2-.63-.3-1.3-.29-1.99.01-.38.01-.72.09-1.12.11-.45.27-.91.5-1.35-.35.36-.67.82-.91,1.23-.18.34-.36.71-.51,1.1-.3.78-.51,1.65-.53,2.54-.03.64.02,1.28.15,1.9-.93,1.67-1.58,3.47-1.94,5.34-.91-.94-1.41-2.53-1.26-4.21-.35.88-.56,1.93-.5,2.99.03.53.13,1.06.28,1.56.16.4.36.76.59,1.12.18.29.38.56.59.83-.03.41-.05.83-.05,1.24v4.27c0,.08,0,.16-.01.23-.75-.93-1.37-1.93-1.83-3.03-.04,1.32.19,2.63.65,4.01.16.51.32,1.05.46,1.63-.95,1.72-2.74,2.9-4.81,3.02.21-.27.43-.54.65-.81.43-.54.85-1.05,1.13-1.54.3-.47.39-.95.42-1.28-.2.12-.36.3-.73.56-.1.05-.2.12-.31.2-.12.07-.27.13-.41.21-.3.16-.6.32-.9.48-.63.33-1.34.65-2.16.95-.37.13-.74.24-1.14.34-1.52-.96-2.56-2.59-2.7-4.5.34.1.68.2,1.02.3,1.32.38,2.52.73,3.46.79-.58-.52-1.37-1.08-2.49-2.04-.39-.35-.77-.7-1.13-1.03v-.1c-.2-.12-.43-.28-.62-.49-.06-.06-.12-.12-.17-.17h0s-.05-.05-.08-.07v-4.07c0-.43-.02-.85-.05-1.28.22.14.44.27.65.44,1.13.83,2.01,2.06,2.55,3.52.01-1.54-.38-3.2-1.29-4.65-.44-.79-1.04-1.47-1.73-2.01-.21-.15-.41-.29-.62-.42-.38-1.7-.98-3.35-1.77-4.9.47,0,.95.05,1.43.19,1.36.35,2.68,1.38,3.56,2.95-.34-1.77-1.37-3.55-2.9-4.55-.75-.52-1.58-.87-2.43-1.05-.43-.08-.83-.13-1.24-.14-.95-1.32-2.06-2.52-3.3-3.58.45-.21.93-.39,1.44-.48,1.38-.28,3.02.08,4.48,1.11-1.07-1.44-2.78-2.59-4.58-2.84-.9-.15-1.8-.1-2.65.1-.38.1-.73.22-1.07.36-.12-.08-.24-.16-.37-.24.73-.29,1.46-.59,2.17-.91,1.76-.79,3.5-1.67,5.13-2.75,1.61-1.09,3.18-2.41,4.18-4.16.5-.87.8-1.85.84-2.83.05-.98-.16-1.93-.5-2.8.41,1.84-.02,3.75-1.17,5.07-1.13,1.34-2.69,2.26-4.32,2.97-1.64.71-3.37,1.23-5.14,1.67-.16.04-.31.07-.47.1,1.52-.85,2.98-1.81,4.34-2.93,1.51-1.26,2.91-2.75,3.74-4.59.86-1.83.85-3.95.12-5.68.4,1.85.02,3.76-1,5.2-1,1.46-2.46,2.55-4.01,3.43-1.69.94-3.49,1.67-5.36,2.26,1.42-1.06,2.76-2.22,3.94-3.54,1.34-1.5,2.51-3.21,3.15-5.13.66-1.92.61-4.03-.11-5.82.4,1.9.07,3.83-.81,5.43-.87,1.61-2.17,2.94-3.6,4.07-1.44,1.13-3.03,2.07-4.68,2.85-.11.05-.22.1-.33.15,1.15-1.26,2.18-2.62,3.05-4.07,1.05-1.77,1.88-3.7,2.27-5.71.39-2.01.28-4.12-.45-5.96.41,1.95.16,3.92-.51,5.7-.67,1.78-1.72,3.38-2.94,4.82-1.22,1.43-2.63,2.7-4.14,3.78-.32.23-.66.45-1,.67.62-.79,1.19-1.62,1.7-2.48,1.05-1.77,1.88-3.7,2.27-5.71.39-2.01.28-4.12-.45-5.96.41,1.95.16,3.92-.51,5.7-.67,1.78-1.72,3.38-2.94,4.82-1.22,1.43-2.63,2.7-4.14,3.78-1.01.72-2.12,1.37-3.18,1.82-.48.13-.95.29-1.42.48,0,0-.02,0-.03,0h0c-.33.14-.67.28-.99.45l-.51.28s-.04.02-.06.04l-.9.52v.08c-.41.3-.8.62-1.16.97-3.24,2.04-7.38,2.53-11.07,1.25-.34-.11-.69-.25-1.03-.41l-.32-.12c-.54-.14-1.11-.21-1.69-.21-3.8,0-6.89,3.09-6.89,6.89,0,.02,0,1.62.18,2.34l.37,1.52h.83l.62,1.49.62-1.49h1.47l.62,1.49.62-1.49h1.47l.62,1.49.62-1.49h1.47l.62,1.49.62-1.49h1.47l.62,1.49.62-1.49h1.47l.62,1.49.62-1.49h1.47l.62,1.49.62-1.49h1.93c.85,0,1.02.39,1.02,1.02,0,.7-.53,1.02-1.02,1.02h-.52l-.67-1.62-.67,1.62h-1.36l-.67-1.62-.67,1.62h-1.36l-.67-1.62-.67,1.62h-1.36l-.67-1.62-.67,1.62h-1.36l-.67-1.62-.67,1.62h-1.36l-.67-1.62-.67,1.62h-1.36l-.67-1.62-.67,1.62h-1.06l-.12,1.87c-.01.16-.02.32-.02.48,0,2.82,1.79,5.88,4.44,7.11.03.06.07.11.1.18.14.23.28.46.43.67.3.43.62.82.96,1.2.68.74,1.46,1.39,2.29,1.89.83.51,1.74.84,2.62.98.87.17,1.73.08,2.48-.07-.61-.51-1.12-1.02-1.44-1.64-.33-.59-.51-1.2-.55-1.8-.05-.6,0-1.18.12-1.73.04-.16.09-.3.14-.45,1.31-.44,2.63-.81,3.97-1.11,3.02.11,7.5,3.41,7.5,7.48,0,17.49,9.34,25.3,30.29,25.3,3.68,0,7.36-.9,10.62-2.6,4.82-2.5,8.6-6.64,10.66-11.65,1.15-2.79,1.74-5.73,1.74-8.76v-6.03c0-.57.12-1.12.33-1.62.44-.47.82-.64,1-.57.31.11.95.94.95,2.79,0,3.62,1.04,6.48,3.08,8.51,3.35,3.31,8.66,3.64,13.01,3.64.55,0,1.09,0,1.6-.01.08,0,.16,0,.24,0,.39.01.78.01,1.16,0,0,0,0,0,0,0h0c.76-.04,1.5-.14,2.16-.32,5.9-1.64,9.29-6.16,9.29-12.41,0-1.1-.9-2-2-2Zm-98.22-3.94l-.34.13c-.3.11-.6.23-.89.35l-.3.11c-.17.04-.35.05-.53.05-.96,0-1.96-.88-2.49-2.01h8.91c-1.47.38-2.92.83-4.35,1.37Zm10.34-11.41h-16.77c.07-1.53,1.34-2.75,2.88-2.75.19,0,.37.02.53.05.41.18.83.34,1.23.48,1.77.61,3.63.93,5.53.93,3.28,0,6.45-.94,9.17-2.71l.31-.25c.33-.32.69-.62,1.08-.89h1.14c-.19.08-.38.14-.58.24-.07.04-.15.09-.22.15-.42.37-.46,1.01-.09,1.42s1.01.46,1.42.09c.41-.36.97-.73,1.51-1,.54-.27,1.12-.46,1.68-.45.15,0,.27.02.42.04l.5.11c.34.07.68.14,1.03.19.69.1,1.4.15,2.07.04-.68-.05-1.32-.26-1.94-.52-.31-.13-.61-.27-.91-.42l-.45-.23c-.17-.07-.37-.16-.56-.21-.79-.21-1.58-.14-2.32.02-.44.1-.86.23-1.28.39v-.64c.92-.38,1.91-.57,2.89-.57,4.25,0,7.7,3.46,7.7,7.7s-3.22,7.5-7.29,7.69c-.05,0-.1,0-.16-.01-.38-.06-.77-.09-1.18-.09h0c-.25,0-.5-.03-.76-.05-.67-.03-1.34-.05-2.02-.05-.39,0-.79,0-1.18.02.99-.91,1.6-2.23,1.6-3.71,0-2.96-2.06-5.02-5.02-5.02Zm7.76,21.1c0-3.25-1.77-6.24-4.2-8.36.96-.02,1.92-.03,2.89.02.57.03,1.13.07,1.7.12.59.11,1.07.37,1.46.79,1.31,1.4,1.8,4.42,1.48,8.97-.02.35-.04.6-.04.74,0,3.23.66,6.35,1.95,9.26,1.18,2.69,2.85,5.09,4.88,7.1-8.58-3.75-10.11-11-10.11-18.65Zm57.48,2.52c-1.27-1.26-1.89-3.12-1.89-5.67,0-1.88-.48-3.51-1.3-4.71,1.93.37,3.39,2.07,3.39,4.1,0,2.89.91,5.62,2.53,7.88-1.06-.37-2-.88-2.73-1.61Zm14.29,2.29c-.38.11-.82.15-1.26.18-.28,0-.56,0-.85,0-1.55-.06-3.1-.44-3.56-.73-2.76-1.75-4.41-4.74-4.41-8.01,0-4.51-3.67-8.18-8.18-8.18s-8.19,3.67-8.19,8.18v6.03c0,2.5-.48,4.93-1.44,7.24-1.7,4.14-4.82,7.55-8.81,9.62-2.74,1.43-5.69,2.15-8.77,2.15-1.83,0-3.66-.27-5.44-.79-5.35-1.6-9.71-5.45-11.97-10.58-1.07-2.4-1.61-4.97-1.61-7.64,0-.09.01-.25.03-.46.24-3.35.27-7.99-1.84-11.09,3.95-1.82,6.66-5.76,6.76-10.37,1.37,1.11,2.56,2.44,3.51,3.95,1.67,2.62,2.55,5.65,2.55,8.77v5.89c-.02.21-.02.39-.02.54,0,.16,0,.36.03.6.3,5.21,4.6,9.27,9.83,9.27s9.87-4.43,9.87-9.87v-4.27c0-.28.02-.55.03-.83l.27-.86c-.06,0-.13-.02-.19-.03.29-2.43,1.17-4.72,2.62-6.73,1.77-2.48,4.33-4.36,7.21-5.32,1.46-.48,2.99-.73,4.55-.73,4.79,0,9.26,2.36,11.96,6.32,1.65,2.41,2.52,5.24,2.52,8.17v1.01c0,3.48,2.83,6.31,6.31,6.31.87,0,1.93-.18,3.02-.53-1.26,1.53-2.97,2.35-4.53,2.78Z"/>
</svg>