<?xml version="1.0" encoding="UTF-8"?>
<svg id="Graphics" xmlns="http://www.w3.org/2000/svg" viewBox="0 0 150 150">
  <polygon points="49.95 56.93 51.67 57.82 51.84 56.54 49.95 56.93"/>
  <polygon points="50.22 55.28 51.81 56.39 52.15 55.14 50.22 55.28"/>
  <polygon points="50.71 53.75 52.19 54.99 52.64 53.78 50.71 53.75"/>
  <polygon points="52.12 50.97 53.33 52.48 54.12 51.4 52.12 50.97"/>
  <polygon points="52.95 49.63 54.03 51.24 54.91 50.24 52.95 49.63"/>
  <polygon points="53.92 48.51 54.93 50.16 55.85 49.19 53.92 48.51"/>
  <polygon points="55.04 47.36 55.87 49.11 56.89 48.24 55.04 47.36"/>
  <polygon points="56.41 46.56 57.04 48.39 58.15 47.64 56.41 46.56"/>
  <polygon points="51.25 52.26 52.77 53.69 53.33 52.52 51.25 52.26"/>
  <polygon points="53.48 50.93 51.95 48.92 51.02 50.33 53.48 50.93"/>
  <polygon points="52.74 52.19 51.02 50.34 50.24 51.83 52.74 52.19"/>
  <polygon points="52.11 53.52 50.24 51.83 49.59 53.39 52.11 53.52"/>
  <polygon points="51.6 54.9 49.58 53.39 49.07 55 51.6 54.9"/>
  <polygon points="51.21 56.37 49.09 55.01 48.7 56.65 51.21 56.37"/>
  <polygon points="50.94 57.82 48.7 56.66 48.47 58.33 50.94 57.82"/>
  <polygon points="54.34 49.77 53.02 47.62 51.96 48.93 54.34 49.77"/>
  <polygon points="55.33 48.68 54.2 46.42 53.03 47.63 55.33 48.68"/>
  <polygon points="56.4 47.7 55.54 45.32 54.24 46.4 56.4 47.7"/>
  <polygon points="57.58 46.85 56.95 44.4 55.55 45.34 57.58 46.85"/>
  <polygon points="52.35 42.53 50.74 43.61 51.78 44.38 52.35 42.53"/>
  <path d="m119.81,107.19l-.3-.09-3.12-.89-1.24-7.44c-.15-.89-.88-1.57-1.78-1.66l-4.61-.45c.25-1.78.39-3.6.39-5.45,0-6.15-1.02-10.91-3.37-15.83,1.35-2.31,2.44-4.66,3.31-6.94l5.02,4.09c.36.29.81.45,1.26.45.24,0,.48-.04.71-.13.67-.25,1.15-.85,1.26-1.55l1.51-9.45c.33-.29.57-.67.66-1.13.02-.09.02-.19.03-.28l4.47-3.86-5.76,1.23-1.91-5.3-.9,5.25-3.44-.7c.1-.84.16-1.58.18-2.19,0-.02,0-.03,0-.05,0,0,0,0,0,0,0-.01,0-.02,0-.04.22-8.87-3.36-17.77-9.83-24.42-5.98-6.15-13.63-9.54-21.53-9.54-2.34,0-5.13.44-8.51,1.36-1.02-.14-2.42-.28-3.55-.28-9.53,0-17.95,5.77-21.51,14.37-.29-.26-.55-.56-.75-.92-.48-.84-.63-1.91-.36-2.95l.05-.15,1.83-12.26-4.16,11.68.05-.15c-.73,1.49-.91,3.32-.38,5,.04.13.09.26.14.39-.72-.65-1.2-1.62-1.27-2.68v-.16s-2.13-12.21-2.13-12.21l-.27,12.39v-.16c-.23,1.64.18,3.44,1.21,4.87.9,1.29,2.3,2.28,3.89,2.74.45,1.12.68,2.3.68,3.51,0,2.87-1.28,5.56-3.52,7.37-.35-.38-.69-.76-1.06-1.13-1.12-1.1-2.26-2.18-3.75-3-.38-.2-.79-.37-1.28-.47-.48-.09-1.12-.05-1.62.31-.51.35-.73.84-.88,1.27-.14.44-.2.86-.24,1.27-.07,1.6-.11,3.04-.28,4.56-.32,3-.79,6.03-1.82,8.85-.27.7-.58,1.39-1.02,1.97-.41.58-1.11,1.05-1.77.69-.65-.31-1.11-.96-1.51-1.59-.41-.64-.73-1.34-1.04-2.03.28.71.56,1.42.93,2.09.37.66.79,1.35,1.51,1.75.35.21.83.25,1.21.07.39-.16.7-.44.95-.75.51-.61.87-1.31,1.19-2.01,1.22-2.85,1.85-5.88,2.35-8.92.25-1.5.39-3.11.53-4.55.09-.67.33-1.39.64-1.53.14-.08.31-.09.57-.04.26.07.55.2.84.37,1.16.71,2.22,1.8,3.21,2.89.57.64,1.12,1.32,1.66,2,.03.12.07.23.13.35.14.28.28.56.44.83-.19.31-.44.65-.71.97-.61.76-1.3,1.57-1.82,2.53-1.15,1.91-.92,4.72.81,6.19,1.67,1.44,3.7,1.86,5.54,2.52.92.33,1.86.67,2.6,1.3.36.31.65.71.78,1.18.14.47.12.97.03,1.46.13-.48.19-.99.09-1.49-.1-.5-.38-.96-.74-1.33-.73-.73-1.68-1.16-2.59-1.57-1.81-.8-3.78-1.44-5.05-2.76-1.26-1.29-1.25-3.35-.23-4.76.49-.74,1.17-1.41,1.87-2.14.16-.17.33-.35.49-.53,2.4,3.01,6.1,4.86,10.02,4.86.04,0,.09,0,.14,0,.53-.02,1.04-.26,1.4-.66.38-.42.56-.98.51-1.54-.03-.31-.05-.62-.05-.94,0-4.95,3.87-9.1,8.8-9.46.56-.04,1.08-.31,1.43-.76s.49-1.01.4-1.56c-.2-1.23-.58-2.39-1.1-3.47,2.97-2.46,6.67-3.8,10.58-3.8,5.49,0,10.34,2.68,13.37,6.79l-3.31-1.34c-.86-.35-1.84-.06-2.38.69l-1.86,2.6c-1.86-.5-3.77-.78-5.69-.78-12.38,0-22.44,10.07-22.44,22.44,0,1.65.23,3.28.64,4.88.02.13.06.27.11.4,1.01,3.68,3.05,7.17,6.01,10.14,4.41,4.4,10.26,7.03,15.67,7.03h.02c4.4,0,8.28-.68,11.73-1.84.24,1.29.38,2.6.38,3.93,0,.01,0,.02,0,.04l-5.64-1.73c-.74-.23-1.54,0-2.06.56l-4.31,4.71-4.25-.63-.35-.05c-.38-.06-.74.17-.85.55l-1.39,4.92,2.55-3.22,2.65,1.36-1.82,2.73-.16.23c-.05.07-.07.16-.06.25l.52,5.08.82-4.63,3.21-1.94,1.79,1.83-1.07,3.68,3.24-3.45c.18-.2.25-.49.13-.75l-.17-.41-1.27-2.97s0,0,0-.01c.02-.11.02-.21.02-.32.02-.08.02-.16.02-.23l2.84-3.1,5.2,1.59c-1.91,9.65-10.44,16.95-20.64,16.95-11.61,0-21.05-9.44-21.05-21.05,0-.06,0-.11,0-.17-.01-.16-1.34-16.13-1.5-18.2,0-.06-.02-.13-.03-.19-.24-2.49-1.45-4.83-3.25-6.39-1.87-1.65-4.37-2.46-6.73-2.29-2.36.16-4.57,1.29-6.02,2.99-1.47,1.69-2.17,3.92-1.99,6.02.16-2.1,1.18-4.04,2.7-5.31,1.51-1.28,3.47-1.87,5.31-1.7,1.85.16,3.52,1.08,4.61,2.41,1.1,1.33,1.58,3.03,1.41,4.61-.01.11-.01.23,0,.34,0,.02,0,.03,0,.05v1.24c0,3.42-.76,7.44-1.5,11.32-.49,2.57-.95,4.99-1.21,7.29-.5,4.37-.13,8.59,1.11,12.54.32,1.02.69,2,1.13,2.98,2.12,4.68,5.72,8.7,10.42,11.62,4.47,2.77,9.36,4.58,14.56,5.37,1.93.29,3.91.44,5.87.44,18.15,0,33.41-12.53,37.63-29.39l3.46.34.87,5.24c-.16.17-.3.36-.4.58l-3.49,2.23-.28.18c-.32.2-.45.61-.3.97l2.35,5.45-.34-4.92,3.55-.83,1.95,2.65-.77,5.7,2.78-5.66c.05-.11.07-.24.04-.37l-.09-.36-.66-2.58,2.15-.33,1.23,5.1.27-6.12c.01-.31-.18-.6-.49-.68Zm-5.3-46.76c.02.36.15.72.37,1.04l-.92,5.77-3.49-2.84c.69-2.35,1.14-4.5,1.41-6.29l2.64,2.32Zm-45.75-34.52c1.01,0,2.42.15,3.38.29.28.04.56.03.84-.05,3.17-.88,5.8-1.32,7.85-1.32,5.03,0,9.96,1.62,14.29,4.62-3.19-1.3-6.67-2.03-10.33-2.03-9.41,0-17.96,4.73-22.98,12.5-2.28-2.05-5.29-3.29-8.57-3.29-.62,0-1.23.05-1.83.14,3.17-6.54,9.84-10.86,17.35-10.86Zm-17.48,32.14c-.59-.13-1.17-.33-1.71-.58.45-3.04,2.22-9.52,9.11-12.89.5-.24.7-.84.46-1.34-.24-.5-.84-.7-1.34-.46-7.18,3.52-9.4,9.88-10.08,13.55-.64-.52-1.21-1.12-1.69-1.81,2.39-2.5,3.73-5.81,3.73-9.31,0-1.24-.17-2.45-.49-3.62,1.23-.62,2.58-.95,3.97-.95,2.78,0,5.27,1.28,6.89,3.33.11.44.37.84.75,1.12.18.32.35.64.49.99-5.5,1.42-9.63,6.23-10.09,11.98Zm26.26,13.21c-1.27,0-2.3-1.03-2.3-2.3s1.03-2.3,2.3-2.3c.06,0,.13,0,.18,0,.17-.01,3.73-.26,6.32,3.02-1.96,1-4.16,1.58-6.51,1.58Zm7.83-21.43l5.97,2.41c.25.91.45,1.85.54,2.81-1.92-1.97-4.26-3.61-6.82-4.8l.3-.42Zm-9.89,2.22c1.06,0,2.12.11,3.17.31l-.39.54c-.42.07-.83.26-1.16.58-.04.04-.07.09-.11.13l-5.72.22,5.16,2.59-1.74,4.38,3.98-2.83,3.37,3.35-.95-4.59c.23-.35.37-.77.35-1.22,0-.05-.02-.1-.02-.15l1.27-1.78c3.63,1.54,6.79,4.15,8.66,7.31-.75,2.52-2.17,4.74-4.03,6.48-3.7-4.88-8.98-4.77-9.86-4.71-3.43.04-6.21,2.85-6.21,6.3s2.82,6.3,6.3,6.3c1.93,0,3.8-.31,5.55-.87-3,2.35-6.46,4.06-9.89,4.96-7.3,1.91-13.13.05-15.66-4.97-.32-1.28-.51-2.58-.51-3.89,0-10.17,8.27-18.44,18.44-18.44Zm0,36.89h-.02c-4.21,0-8.8-2.05-12.42-5.48,1.51.41,3.13.62,4.85.62,2,0,4.12-.28,6.32-.86,11.26-2.95,22.74-13.54,21.83-27.35-.01-.22-.07-.42-.15-.61-.12-1.73-.44-3.4-.97-4.98-.03-.13-.08-.26-.14-.39-2.82-8.03-10.46-13.81-19.44-13.81-1.91,0-3.78.27-5.57.78,4.13-3.46,9.39-5.43,15.01-5.43,12.89,0,23.39,10.48,23.4,23.38-.21,7.25-6.37,34.1-32.7,34.13Zm-5.11,37.05c-1.76,0-3.53-.13-5.27-.4-4.65-.71-9.04-2.32-13.05-4.81-4.02-2.5-7.1-5.91-8.92-9.94-.34-.76-.65-1.59-.93-2.46-1.07-3.41-1.4-7.07-.96-10.88.07-.6.15-1.22.25-1.85.33,13.52,11.44,24.42,25.04,24.42s25.05-11.24,25.05-25.05c0-1.85-.21-3.68-.61-5.47,5.14-2.5,9.11-6.14,12.15-10.2,1.39,3.6,2.01,7.29,2.01,11.85,0,19.18-15.6,34.78-34.78,34.78Z"/>
</svg>