<?xml version="1.0" encoding="UTF-8"?>
<svg id="Graphics" xmlns="http://www.w3.org/2000/svg" viewBox="0 0 150 150">
  <path d="m104.59,64.4l4.81-2.4,1.51,2.32-.61-3.48c-.05-.28-.31-.49-.6-.45l-.26.03-3.51.4,2.08-4.41,2.34.18-2.5-1.03c-.11-.05-.25-.02-.34.07l-.1.1-3.65,3.6-.97-4.17,1.81-1.83-2.55,1.34c-.08.04-.14.12-.15.22l-.02.15-.86,5.76c-.2,0-.4.03-.59.1l-3.14,1.07c-.63.21-1.11.73-1.28,1.37-.13.47-.56.79-1.06.79-.32,0-.63-.15-.84-.39.01-.73-.01-1.71-.05-2.08-.78-7.23-6.86-12.67-14.13-12.67h-11.62c-.23,0-.42-.18-.42-.42,0-.09.03-.16.07-.22.78.18,1.57.27,2.38.27,1.55,0,3.27-.5,4.37-.96.12-.05.23-.11.34-.18,1.86-1.25,4.26-2,6.42-2,2.55,0,5.03.89,6.98,2.52.6.5,1.44.6,2.15.27.71-.34,1.15-1.06,1.13-1.84-.03-1.78,1.42-3.54,4.32-5.21.81-.47,1.19-1.43.91-2.32-.27-.89-1.12-1.47-2.06-1.41l-14.07,1.04c3.35-1.28,7.85-3.66,9.85-7.65.05-.01.11-.02.16-.03,1.01-.25,1.88-.48,2.68-.52.81-.03,1.42.07,2.14.56.69.45,1.26,1.09,1.69,1.87.88,1.59,1.17,3.63,1.67,5.62.25,1,.57,2.03,1.16,2.92.57.91,1.51,1.53,2.49,1.78-.93-.41-1.69-1.12-2.08-2.01-.41-.88-.55-1.86-.65-2.85-.19-1.98-.12-4.07-.88-6.22-.38-1.07-1.03-2.12-1.93-2.93-.43-.39-.95-.8-1.56-1.08-.6-.28-1.24-.45-1.85-.54-.71-.1-1.38-.1-2.02-.08.03-.3.04-.6.04-.9,0-.63-.07-1.26-.18-1.88,1.43-.97,3.04-1.83,4.4-2.08.43-.08.75-.04.93.03.18.05.36.23.5.61.08.19.11.4.16.66.04.32.09.64.15.95.11.63.26,1.24.42,1.85.33,1.21.76,2.4,1.3,3.53.55,1.13,1.2,2.24,2.15,3.15.48.44,1.06.85,1.77.98.71.14,1.43-.1,1.94-.49,1.03-.79,1.6-1.9,2.11-2.98-.64,1-1.39,2.01-2.38,2.57-.49.27-1.03.35-1.5.19-.47-.16-.88-.52-1.23-.94-.68-.86-1.14-1.93-1.5-3.02-.35-1.1-.59-2.23-.74-3.37-.07-.57-.13-1.14-.15-1.71-.01-.28-.02-.57-.01-.84-.01-.34-.02-.73-.1-1.12-.14-.77-.57-1.74-1.44-2.31-.85-.58-1.78-.7-2.54-.7-1.56.03-2.84.44-4.08.89-.53.2-1.03.42-1.53.64-.09-.15-.17-.31-.27-.45-.35-.51-.91-.84-1.53-.88-.62-.04-1.22.21-1.63.67l-6.06,6.85-3.02-2.76c-.64-.58-1.58-.69-2.33-.26-1.13.64-3.79,2.1-5.75,3.06-1.56-1.1-4.56-2.77-7.42-1.98-3.71,1.04-5.58-2.46-5.78-2.85-.38-.78-1.21-1.23-2.07-1.11-.86.12-1.54.77-1.7,1.62-.03.17-.54,3.13.52,6.22-1.05-.44-1.75-1.14-1.8-1.18-.6-.62-1.53-.79-2.31-.41-.78.38-1.23,1.21-1.11,2.07.03.18.43,2.95,2.25,5.36-1.85-.4-3.19-1.29-3.21-1.3-.71-.49-1.66-.46-2.35.06-.69.53-.96,1.44-.67,2.25.1.28,1.97,5.44,6.56,8.2-.12-.01-.19-.02-.23-.03-.85-.13-1.69.3-2.09,1.07-.39.77-.24,1.71.37,2.33.59.59,2.22,2.09,4.58,3.2.05.02.11.05.16.07.44,6.13,5.55,11,11.8,11h14.76c.38,0,.73.17.88.44.09.16.13.34.13.53,0,.25-.13.41-.19.46-.04.04-.12.11-.23.1-.74-.03-1.56-.15-2.42-.28-1.17-.17-2.37-.35-3.61-.35-3.23,0-6.24.9-8.84,2.43-.4-.29-.82-.57-1.28-.79-.47-.23-1.03-.42-1.59-.42-.57,0-1.07.27-1.34.61.46-.06.83.1,1.06.34.23.25.38.55.49.9.11.34.19.69.24,1.06-.59.5-1.15,1.05-1.67,1.63-.32-.08-.63-.15-.96-.21-.51-.08-1.04-.13-1.57-.11-.53.01-1.1.11-1.6.37-.51.26-.82.74-.9,1.17.38-.27.78-.3,1.1-.19.32.11.59.31.86.57.26.25.5.54.72.84.09.12.18.26.27.4-.3.51-.58,1.04-.83,1.59-.34,0-.65.02-.99.05-.52.05-1.04.15-1.55.3-.5.15-1.04.39-1.45.78-.42.38-.61.93-.57,1.36.3-.35.68-.49,1.01-.47.34.03.65.15.98.33.32.18.62.39.92.62.16.13.34.28.49.43-.13.59-.24,1.19-.31,1.8-.13.06-.26.13-.4.2-.46.24-.91.52-1.32.86-.41.33-.82.75-1.06,1.26-.25.51-.22,1.09-.02,1.48.14-.44.44-.71.76-.81.32-.1.66-.11,1.03-.06.31.04.62.11.93.2.05.79.14,1.58.3,2.35-.15.14-.3.28-.45.43-.36.37-.71.77-1.01,1.22-.29.44-.55.96-.63,1.52-.08.56.12,1.1.43,1.42,0-.46.21-.81.48-1,.28-.19.6-.3.96-.37.36-.07.73-.1,1.11-.1,0,0,.02,0,.03,0,.35.88.77,1.73,1.25,2.54-.34.35-.65.72-.93,1.14-.29.44-.55.96-.63,1.52-.08.56.12,1.1.43,1.42,0-.46.21-.81.48-1,.28-.19.6-.3.96-.37.36-.07.73-.1,1.11-.1.16,0,.33,0,.5.01.42.49.67,1.14.67,1.83,0,.65-.24,1.25-.62,1.72-.24-.19-.49-.38-.75-.54-.44-.28-.98-.52-1.54-.58-.57-.07-1.1.15-1.4.47.46,0,.82.18,1.02.45.2.27.32.59.4.95.02.1.02.2.04.3-1.32-.03-2.95-1.06-4.08-1.99.05-.08.09-.17.14-.26.24-.46.44-.95.59-1.46.15-.5.24-1.08.14-1.64-.09-.56-.44-1.01-.83-1.22.13.44.04.84-.16,1.1-.21.27-.48.47-.81.64-.32.17-.67.31-1.02.43-.1.03-.2.06-.31.09-.58-.77-1.13-1.67-1.55-2.4.05-.05.11-.11.16-.16.36-.38.69-.78.98-1.23.29-.44.54-.97.6-1.53.07-.57-.14-1.1-.45-1.41,0,.46-.2.82-.47,1.01-.27.2-.59.31-.95.38-.36.07-.73.11-1.1.12-.05,0-.1,0-.16,0-.1-.28-.2-.55-.27-.79-.11-.4-.22-.82-.3-1.27-.08-.36-.14-.72-.19-1.09.01,0,.02,0,.03,0,.5-.14,1-.31,1.48-.54.47-.23.96-.55,1.31-1,.36-.45.45-1.01.34-1.44-.24.4-.59.6-.92.62-.34.03-.67-.04-1.02-.17-.34-.12-.68-.28-1.01-.47-.1-.06-.2-.12-.3-.18.01-.23.02-.46.04-.7.02-.26.06-.53.09-.79.37-.13.74-.28,1.09-.46.41-.22.83-.47,1.17-.83.35-.35.53-.88.41-1.26-.24.34-.58.41-.88.37-.31-.03-.61-.14-.91-.27-.17-.08-.33-.18-.49-.27.09-.54.19-1.08.29-1.61.29-.11.57-.22.84-.36.41-.22.83-.47,1.17-.83.35-.35.53-.88.41-1.26-.24.34-.58.41-.88.37-.31-.03-.61-.14-.91-.27-.06-.03-.12-.07-.18-.1l.32-1.7c.02-.12.03-.23.04-.34.09-.04.17-.08.26-.11.45-.23.87-.47,1.27-.74.79-.54,1.49-1.15,2.1-1.85.61-.7,1.11-1.48,1.44-2.32.33-.84.46-1.72.39-2.55-.52,1.61-1.75,2.67-3.07,3.31-.67.32-1.38.54-2.09.68,0,0-.01,0-.02,0,0-.62-.01-1.24-.05-1.85,0,0,0,0,0,0,.4-.25.75-.53,1.06-.82.63-.58,1.15-1.24,1.56-1.94.41-.7.71-1.45.86-2.21.15-.76.16-1.51.06-2.22-.46,1.37-1.34,2.43-2.4,3.08-.52.33-1.07.57-1.62.71-.1-.45-.22-.89-.35-1.33.31-.26.59-.54.85-.85.63-.76,1.08-1.69,1.2-2.64.13-.95-.03-1.85-.37-2.6-.3-.77-.77-1.4-1.23-1.99.17.74.3,1.48.25,2.18-.01.7-.22,1.33-.55,1.79-.33.47-.77.78-1.26.99,0,0-.02,0-.03,0-.32-.73-.65-1.43-.98-2.12.04-.07.08-.13.12-.2.24-.43.43-.88.58-1.35.29-.94.35-1.98.11-2.9-.24-.93-.73-1.7-1.33-2.26-.57-.59-1.25-1-1.9-1.37.44.62.84,1.25,1.06,1.92.25.65.3,1.31.17,1.87-.11.5-.37.92-.7,1.28-.02-.03-.05-.06-.07-.09l-1.23-1.53c-.8-1.01-1.55-2.05-2.23-3.13-1.37-2.16-2.38-4.57-2.74-7.2-.31,2.64.08,5.42.92,8.03.41,1.31.92,2.59,1.47,3.84.08.18.16.37.25.55-.07,0-.14,0-.21-.02-1.17-.19-2.3-.92-2.98-2.2.02.7.18,1.45.53,2.14.35.7.9,1.33,1.54,1.84.64.51,1.37.91,2.15,1.22.07.03.15.05.22.08l.15.56c.13.47.25.94.36,1.4-.39.06-.78.09-1.18.07-1.19-.04-2.4-.63-3.23-1.81.11.69.35,1.41.79,2.06.44.65,1.06,1.21,1.76,1.63.7.43,1.47.73,2.28.94.05.01.11.02.16.04.02.18.06.36.07.54.05.43.08.87.09,1.31-.23.02-.47.04-.69.04-.66,0-1.33-.04-1.97-.2-.64-.16-1.27-.41-1.81-.81-.55-.4-1.01-.98-1.3-1.69-.04.76.13,1.58.52,2.32.39.75.99,1.4,1.65,1.94.67.55,1.41.98,2.2,1.35.38.17.74.32,1.13.45-.04.24-.08.48-.13.72-.03.14-.08.3-.12.45-.07-.01-.14-.01-.21-.02-.7-.13-1.41-.36-2.09-.68-1.33-.64-2.55-1.69-3.07-3.31-.07.83.06,1.72.39,2.55.33.84.84,1.62,1.44,2.32.61.69,1.31,1.31,2.1,1.85.15.1.32.18.47.28l-.83,2.07c-.83,2.09-1.64,4.15-2.3,6.36-1.58,4.97-1.5,10.84.2,15.69.85,2.53,2.14,4.88,3.93,7.19,3.45,4.46,7.79,6.97,12.9,7.54.04.11.08.22.12.32,0,.08,0,.15,0,.23,0,4.58,2.43,8.69,6.21,10.95l-2.47,1.93-.21.16c-.15.12-.22.32-.16.51l.96,3.24.34-2.77,4.6-1.42,2.21,4.93-.84,2.3,1.8-2.06s.06-.11.06-.17v-.19s-.12-4.68-.12-4.68l3.99.97,1.38,3.09-.11-3.9c0-.15-.08-.29-.21-.38l-.23-.15-3.61-2.38,2.37-2.05,3.42,1.55-3.14-2.95c-.13-.12-.31-.17-.48-.11l-.25.08-2.7.86c-.23-.43-.6-.77-1.06-.93-1.52-.55-2.54-2.02-2.54-3.65v-.09c0-.06.01-.11.02-.17.01-.21.04-.43.09-.63,1.64-.81,2.97-2.19,3.72-3.89.45-1.01.68-2.09.68-3.2,0-.34-.02-.68-.07-1.02.3-.41.58-.83.84-1.26,1.41.57,2.88.93,4.42,1.05,0,0,.02,0,.02,0,.19.02.48.03.76.03.31,0,.6.11.72.27,0,0,.05.11.05.11.01.03.02.09.02.16,0,.14-.04.27-.12.38-.39.56-.47,1.29-.2,1.93.27.63.85,1.08,1.53,1.19l8.24,1.31-1.23,2.18-.1.17c-.06.1-.06.23,0,.34l1.87,3.55-.85-3.52,3.74-2.53,3.85,2.66-.14,2.92,1.11-3.06c.03-.08.02-.17-.02-.25l-.1-.18-1.7-3.08,4.37-.92,1.69,3.07-.7-4.06c-.04-.22-.21-.4-.45-.43l-.23-.03-4.64-.6,1.5-2.9,3.34.69-3.45-2.01c-.17-.1-.39-.09-.55.04l-.18.15-3.44,2.84c-.11-.07-.22-.13-.34-.18l-5-2.08c-.12-.05-.19-.16-.19-.28,0-.08.01-.19.03-.3.2-1.56-.18-3.01-1.07-4.09-.75-.91-1.77-1.53-2.87-1.75-.35-.07-.73-.03-1.07-.07-.03,0-.08,0-.12,0-2.7-.24-5.17-1.47-7.03-3.44-.08-.31-.15-.62-.25-.91-.75-2.31-1.87-4.4-2.96-6.36-.48-.86-.96-1.73-1.43-2.59-.1-.19-.17-.43-.21-.78-.02-.16-.03-.32-.03-.48,0-1.06.46-2.12,1.24-2.84.66-.61,1.48-.91,2.32-.85.8.06,2.68.34,3.34.5,1.18.31,2.8.73,4.4.73.52,0,1.06-.04,1.6-.1.48,1.74,1.32,3.32,2.47,4.6,1.47,1.65,3.37,2.82,5.46,3.4l-.82,1.18-.19.27c-.07.1-.09.22-.05.35l.99,3.12.5-2.69,3.54-2.29,3.85,3.05.3,2.09,1.23-2.41c.06-.12.06-.26-.02-.39l-.18-.29-1.98-3.22,4.16-1.05,1.36,2.46-.51-3.32c-.03-.19-.18-.35-.38-.37l-.21-.03-4.13-.51,1.98-3.05,2.19,1.3-1.9-2.88-.03-.04c-.21-.26-.59-.3-.85-.09l-.22.18-3.68,2.94c-.4-.27-.79-.57-1.14-.92-.74-.75-2.8-3.67-2.95-4.43,0-.2.02-.39.09-.63.07-.28.21-.55.39-.76.12-.15.22-.31.29-.49l3.17.56c.31.06.63.08.95.08,1.58,0,3.11-.69,4.15-1.9l3.22-3.75.67,1.32.14.27c.1.19.31.3.53.27l3.57-.61-2.86-.65-.02-3.56Zm-15.44-22.5c-.29.42-.54.84-.74,1.28-.8-.42-1.64-.77-2.5-1.04l3.25-.24Zm-13.14-13.49l3.46,3.16c.4.36.93.55,1.46.52.54-.03,1.04-.27,1.39-.67l5.3-6c.06.34.09.68.09,1.03,0,.73-.13,1.42-.39,2.09-1.7,4.38-8.83,6.75-11.43,7.3-1.06.22-1.76,1.25-1.56,2.32l.55,3.01c.11.6.48,1.09.98,1.38-1.02.4-1.99.9-2.9,1.49-.87.35-1.91.58-2.64.58-.66,0-1.31-.1-1.91-.29-.04-.05-.08-.1-.12-.15v-.02s-.01,0-.02,0c-.19-.2-.41-.37-.66-.48-.82-.35-1.88-.99-2.64-1.95-.54-.81-.9-1.75-1.02-2.74-.02-.14-.02-.29-.03-.44,0-.14,0-.28-.01-.43,0-.7.14-1.36.38-2,.02-.06.05-.12.07-.18.22-.51.51-.99.9-1.46.04-.04.06-.07.1-.12v-.02c.18-.2.37-.39.57-.57.9-.75,2.71-1.68,3.94-2.22.03-.02.07-.03.11-.05.03-.01.06-.03.09-.04,0,0,0,0,.01,0,1.74-.78,4.35-2.18,5.92-3.04Zm-25.49,10.73c1.8.21,3.84.05,5.91-.95.76-.37,1.21-1.17,1.12-2-.09-.84-.69-1.53-1.5-1.74-.73-.18-1.34-.52-1.85-.93.93.07,1.95-.03,3.01-.39.64-.22,1.12-.74,1.29-1.39.17-.65,0-1.34-.45-1.84-.34-.38-.61-.79-.83-1.22,1.63.8,3.64,1.14,5.99.48.54-.15,1.22-.02,1.9.24-.7.44-1.35.92-1.92,1.46-.25.22-.48.44-.67.67l-.17.2s0,.01-.01.02c-.02.03-.05.05-.07.07-.04.05-.07.09-.11.14-.44.52-.86,1.06-1.22,1.84-.02.03-.03.07-.05.1-.03.07-.07.13-.1.21l-.06.13c-.04.1-.09.2-.13.3-.02.05-.03.1-.05.14-.32.74-.65,1.59-.65,2.87,0,0,0,.22,0,.51,0,.04,0,.08,0,.12,0,.08.01.16.01.24.01.36.03.77.06,1.04.22,1.77.56,2.81,1.29,3.98.2.33.44.64.69.94.45.61.97,1.16,1.53,1.65-2.4,2.01-4.96,2.52-7.73,1.54,1.4-.5,2.62-1.27,3.62-2.28.59-.6.75-1.51.38-2.27-.36-.76-1.18-1.21-2.01-1.13-.64.06-1.23.07-1.78.02-2.34-.2-4.14-1.4-5.45-2.77Zm29.3,18.72h-14.76c-3.64,0-6.71-2.5-7.58-5.88.31.03.62.04.95.04,1.8,0,3.8-.44,5.84-1.67.69,1.53,2.23,2.61,4.02,2.61h11.62c5.23,0,9.6,3.91,10.16,9.11.03.29.04,1.61.02,1.9,0,.08-.01.16-.01.23,0,.38-.13,1.04-.34,1.76-.52-.53-1.12-.97-1.81-1.29-.82-.38-1.69-.57-2.6-.57-.24,0-.48.02-.71.04.13-.43.22-.87.22-1.32,0-.87-.22-1.73-.62-2.45-.83-1.55-2.51-2.52-4.39-2.52Zm-32.17,40.77c-1.51-1.95-2.59-3.92-3.31-6.04-1.43-4.08-1.5-9.01-.16-13.21.48-1.61,1.03-3.11,1.63-4.66-.29,1.56-.56,3.24-.71,4.85-.22,2.31-.12,4.27.29,6.15.1.5.23,1.01.37,1.54.13.46.29.92.48,1.4.37.91.8,1.81,1.29,2.66.99,1.73,2.07,3.53,3.41,4.78,1.05,1.21,4.31,4.13,7.79,4.39-.96,1.11-1.62,2.49-1.84,4.02-3.63-.64-6.67-2.56-9.24-5.89Zm19.23,6.92c-.44,1-1.28,1.78-2.3,2.12-.53.18-.96.57-1.19,1.08-.37.83-.59,1.72-.65,2.63-.02.18-.03.37-.03.56,0,.73.1,1.45.3,2.14-.96-1.41-1.5-3.11-1.5-4.92,0-.04,0-.08,0-.13.11-.45.07-.93-.15-1.37-.03-.06-.06-.12-.1-.18-.18-.35-.31-.73-.38-1.07-.05-.29-.07-.53-.07-.76,0-2.15,1.74-3.9,3.96-3.91.06,0,.13.01.19.02.7.03,1.36.25,1.95.64.08.18.14.35.19.51.09.34.13.69.13,1.04,0,.55-.11,1.08-.33,1.58Zm13.41-7.15c.24.02.5.04.75.04.16.06.31.18.44.33.18.21.25.6.19,1.04-.03.25-.05.49-.06.68,0,.02,0,.12,0,.14,0,.98.33,1.9.91,2.64l-.55-.09c-.01-.48-.09-.92-.22-1.31-.14-.43-.35-.84-.63-1.22-.87-1.17-2.33-1.88-3.91-1.89-.16,0-.32,0-.42-.01-.04,0-.08,0-.12,0-1.1-.08-2.16-.33-3.17-.74.03-.1.04-.21.06-.32.08-.34.15-.69.2-1.03.02-.11.05-.21.06-.31,1.93,1.15,4.11,1.86,6.4,2.06.02,0,.05,0,.07,0Zm-7.84-26.23c-1.95-.15-3.84.53-5.33,1.9-1.6,1.48-2.52,3.59-2.52,5.77,0,.29,0,.67.06,1.02.09.78.31,1.49.65,2.13.48.89.97,1.77,1.46,2.64.99,1.78,2,3.69,2.65,5.66.12.37.22.74.3,1.1.14.69.21,1.36.21,2.06,0,1.32-.25,2.61-.74,3.84,0,0,0,0,0,0h0c-.09.23-.19.45-.3.68-1.11-.7-2.36-1.11-3.67-1.19-.17-.02-.35-.03-.52-.03-.01,0-.02,0-.03,0,.83-1.12,1.33-2.51,1.33-4.01,0-1.79-.7-3.52-1.91-4.76-2.05-2.42-3.18-5.53-3.18-8.75,0-7.43,6.04-13.47,13.46-13.47.94,0,1.95.15,3.02.31.81.12,1.64.23,2.47.29-.48.88-.75,1.89-.75,2.95s.28,2.13.76,3.07c-1.09,0-2.35-.33-3.38-.6-.97-.24-3.1-.55-4.04-.62Zm17.85,9.21c-1.28-.39-2.44-1.13-3.35-2.16-1.03-1.14-1.71-2.76-1.87-4.45-.02-.23-.03-.47-.03-.7,0-.68-.35-1.32-.93-1.69-.59-.37-1.01-1.24-1.01-2.05,0-1.22.99-2.21,2.21-2.21.32,0,.63.07.93.2.75.34,1.24,1.08,1.28,1.94-.04.15-.08.29-.12.44-.41.58-.71,1.22-.86,1.84-.16.53-.25,1.11-.25,1.71,0,2.42,3.38,6.41,4,7.12Zm6.02-12.87c-.34.39-.86.58-1.37.49l-1.93-.34c.1-.25.21-.52.3-.8.51.17,1.05.27,1.61.27.75,0,1.47-.17,2.13-.46l-.74.86Z"/>
  <polygon points="69.79 35.59 75.85 34.84 74.08 31.25 69.79 35.59"/>
</svg>