<?xml version="1.0" encoding="UTF-8"?>
<svg id="Graphics" xmlns="http://www.w3.org/2000/svg" viewBox="0 0 150 150">
  <path d="m126.57,79.62c-1.05,1.34-2.06,2.7-3.05,4.09l-.74,1.04c-.25.34-.49.74-.71.97-.43.55-.97,1.02-1.46,1.26-.5.25-.9.24-1.36.13-.23-.07-.48-.16-.76-.3-.24-.12-.43-.24-.78-.42.25-.6.53-1.27.85-1.97.21.05.43.09.66.11.61.04,1.16-.01,1.82-.27.58-.24.97-.55,1.32-.85.67-.61,1.15-1.23,1.59-1.85.21-.29.43-.64.64-.99.2-.35.37-.7.52-1.05.6-1.4.99-2.77,1.47-4.1.46-1.33,1-2.63,1.77-3.84-1.04.98-1.92,2.16-2.71,3.37-.8,1.2-1.52,2.45-2.34,3.51-.21.26-.41.51-.63.73l-.69.66c-.49.45-.99.85-1.45,1.1-.15.08-.28.13-.39.15.22-.45.45-.89.67-1.31,0-.02,0-.04.02-.05.4-.53.77-1.06,1.13-1.61.49-.76.95-1.55,1.36-2.37.41-.81.76-1.66,1.01-2.54.24-.87.38-1.82.14-2.67-.11.87-.55,1.59-1.04,2.23-.5.65-1.07,1.23-1.7,1.77-.62.54-1.27,1.04-1.95,1.51-.47.32-.95.63-1.43.92-.48.15-1.6.51-2.86,1.03h0s0,0,0,0c-.02,0-.04.01-.05.02,0-.01,0-.02,0-.03.04-.37.34-.94.66-1.41.31-.46.79-.96,1.27-1.47.98-1.01,2.03-2.09,2.81-3.37.79-1.26,1.22-2.78,1.03-4.19-.17,1.42-.89,2.63-1.85,3.55-.96.94-2.1,1.65-3.3,2.4-.6.38-1.23.76-1.87,1.33-.61.57-1.18,1.15-1.63,2.09-.21.48-.42,1.12-.28,1.95.03.2.11.42.18.6,0,.02.02.04.03.06-.38.25-.72.51-1.01.79-.32.3-.62.61-.9.94-.07-.08-.16-.16-.22-.23l-.11-.13s-.04-.04-.07-.09c-.26-.39-.35-.95-.22-1.66.06-.35.18-.71.33-1.08.09-.2.13-.33.22-.49.08-.16.18-.33.3-.49.95-1.37,2.35-2.7,3.54-4.15.61-.73,1.19-1.49,1.65-2.34.45-.84.78-1.8.66-2.73-.09.93-.57,1.73-1.14,2.41-.58.68-1.26,1.28-1.97,1.84-1.43,1.15-2.98,2.07-4.48,3.47-.19.18-.37.37-.56.59-.18.21-.37.49-.5.69-.28.45-.54.93-.75,1.46-.42,1.04-.62,2.43-.15,3.76.06.16.11.32.23.53.1.18.18.31.27.45.17.25.33.47.5.68.15.18.3.34.45.52-.79,1.55-1.31,3.24-1.52,4.99-.06.55-.1,1.09-.1,1.65v.05c-.42,1.66-1.95,2.85-3.69,2.85-.35,0-.68-.06-1-.15.05-.58.28-1.24.71-1.8.64-.87,1.73-1.52,3.06-1.65-1.2-.53-2.76-.6-4.21.02-.72.3-1.4.75-2,1.34,0,0-.02.02-.02.03-.2-.44-.32-.92-.34-1.43h0c0-.08,0-.15,0-.22v-.11c0-.54-.04-1.09-.09-1.63.39-.37.93-.7,1.53-.86,1.03-.31,2.3-.16,3.44.53-.63-1.15-1.84-2.15-3.36-2.53-.65-.17-1.35-.23-2.07-.17-.27-1.23-.63-2.43-1.1-3.6.36-.29.82-.53,1.31-.67,1.03-.31,2.3-.16,3.44.53-.63-1.15-1.84-2.15-3.36-2.53-.76-.19-1.57-.25-2.41-.14-.09.01-.19.04-.28.05-.55-.99-1.18-1.93-1.87-2.83.3-.48.81-.96,1.41-1.26.95-.5,2.22-.61,3.47-.15-.84-1-2.22-1.75-3.79-1.82-.78-.04-1.59.06-2.39.34-.3.1-.6.24-.89.4-.57-.56-1.17-1.09-1.79-1.59.13-.37.32-.74.58-1.07.66-.85,1.78-1.47,3.1-1.57-1.18-.56-2.75-.68-4.21-.1-.64.25-1.24.63-1.79,1.1-.85-.53-1.74-.99-2.65-1.41-.02-.5.07-1.05.3-1.55.41-1,1.31-1.9,2.57-2.34-1.29-.23-2.83.08-4.08,1.03-.63.47-1.18,1.07-1.62,1.79,0,0,0,.01,0,.01-.98-.3-1.98-.53-2.99-.7-.08-.46-.07-.99.06-1.49.24-1.05.99-2.09,2.15-2.73-1.31-.01-2.78.55-3.85,1.69-.54.56-.99,1.25-1.3,2.03-.03.07-.05.15-.08.23-.25,0-.49-.02-.74-.02-.51,0-1.02.02-1.53.05-.23-.49-.36-1.11-.32-1.74.04-1.08.59-2.23,1.62-3.08-1.29.23-2.63,1.04-3.48,2.36-.43.65-.75,1.41-.91,2.23-.04.21-.07.43-.09.65-.58.12-1.16.27-1.73.43-.42-.32-.83-.8-1.08-1.35-.47-.97-.54-2.24-.04-3.48-1.03.81-1.82,2.16-1.95,3.73-.06.69,0,1.41.19,2.13-.86.38-1.7.81-2.52,1.29-.08-.1-.17-.19-.24-.3-.51-.75-.73-1.81-.34-2.9-.93.66-1.59,1.93-1.62,3.32,0,.42.03.85.11,1.28-.58.43-1.14.9-1.68,1.39-.09-.04-.18-.08-.26-.13-.36-.21-.69-.48-.94-.83-.25-.34-.42-.8-.37-1.31-.35.37-.58.94-.61,1.53-.04.6.09,1.21.3,1.78.07.2.17.38.26.57-.58.63-1.13,1.29-1.64,1.98-.32-.2-.62-.44-.84-.76-.25-.34-.42-.8-.37-1.31-.35.37-.58.94-.61,1.53-.04.6.09,1.21.3,1.78.08.22.19.43.29.64-.57.96-1.07,1.96-1.49,3,0,0-.02,0-.03-.01-.36-.21-.69-.48-.94-.83-.25-.34-.42-.8-.37-1.31-.35.37-.58.94-.61,1.53-.04.6.09,1.21.3,1.78.19.51.45.99.76,1.45-.07.25-.15.5-.21.75-.02.1-.04.21-.05.32-.03.23-.07.46-.13.68-.04.1-.08.21-.11.32,0,.02-.01.05-.02.08-.02.06-.05.12-.08.18-.1-.05-.21-.09-.3-.15-.36-.21-.69-.48-.94-.83-.25-.34-.42-.8-.37-1.31-.35.37-.58.94-.61,1.53-.04.6.09,1.21.3,1.78.12.32.27.63.44.93-.72.56-1.59.9-2.54.98-.04-.14-.08-.28-.11-.43-.07-.41-.09-.83.01-1.25.1-.41.33-.83.76-1.14-.51-.03-1.09.17-1.56.54-.48.36-.86.86-1.15,1.39-.09.16-.16.33-.23.5-.82-.36-1.52-.94-2.01-1.68.17-.23.35-.45.56-.64.31-.28.66-.52,1.07-.65.4-.14.88-.16,1.36.04-.25-.45-.72-.83-1.28-1.04-.56-.21-1.18-.28-1.79-.25-.24.01-.48.05-.72.09,0-.07-.02-.14-.02-.21,0-.84.22-1.64.62-2.34.39-.06.86,0,1.28.15.56.21,1.17.64,1.23,1.48.29-.29.49-.73.54-1.21.05-.49-.03-1-.18-1.48-.12-.35-.29-.68-.48-1.01.1-.04.21-.08.31-.11.11-.03.21-.07.31-.12.27-.13.52-.29.78-.44.31.05.63.14.94.27.26.11.52.25.73.44.2.18.39.43.34.79.33-.14.57-.57.64-.99.08-.43.06-.86,0-1.27-.05-.34-.14-.68-.24-1.01.48-.45.93-.92,1.35-1.43.2.04.4.08.59.14.33.11.65.26.92.48.26.22.49.53.5.97.31-.3.46-.83.43-1.34-.03-.51-.18-1.01-.39-1.48-.16-.35-.36-.68-.58-1.01.27-.51.51-1.04.72-1.59.03,0,.06.01.08.02.58.2,1.15.72,1.34,1.56.48-.68.62-1.77.25-2.78-.2-.55-.52-1.08-.96-1.55.06-.39.1-.77.12-1.15.07-.01.14-.04.21-.05.67-.09,1.48.05,2.02.8.06-.44-.02-.96-.26-1.43-.24-.47-.61-.9-1.05-1.24-.3-.23-.63-.42-.98-.6-.11-.98-.35-1.92-.66-2.84,1.41.17,2.84.32,4.29.26.79-.04,1.6-.13,2.36-.44.76-.3,1.4-.92,1.6-1.67-.36.69-1.04,1.08-1.74,1.19-.7.12-1.44.05-2.16-.08-1.44-.26-2.86-.75-4.28-1.26-.39-.14-.78-.29-1.17-.43-.06-.1-.12-.19-.18-.29.85-.04,1.71-.06,2.57-.1,1.6-.06,3.22-.12,4.83-.39.81-.14,1.62-.33,2.38-.7.76-.34,1.41-1.07,1.45-1.88-.23.79-.9,1.25-1.63,1.42-.73.18-1.5.2-2.26.17-1.54-.07-3.08-.34-4.63-.61-1-.17-2.02-.35-3.06-.52,1.33-.21,2.71-.38,4.1-.57,1.67-.23,3.37-.49,5.02-1,.82-.27,1.65-.6,2.35-1.15.71-.54,1.19-1.39,1.17-2.23-.16.84-.75,1.46-1.44,1.81-.7.35-1.5.5-2.29.59-1.6.16-3.24.09-4.88-.02-1.17-.07-2.35-.16-3.55-.23.82-.26,1.64-.53,2.46-.85,1.34-.55,2.7-1.19,3.81-2.2,1.13-.98,1.86-2.42,1.84-3.81-.33,1.37-1.28,2.41-2.42,3-1.14.61-2.45.89-3.75,1.08-1.16.16-2.34.22-3.56.29.49-.24.98-.49,1.47-.76.97-.54,1.95-1.16,2.75-2.01.81-.83,1.28-2.04,1.08-3.09-.16,1.08-.86,1.87-1.71,2.32-.85.47-1.82.72-2.81.91-1,.19-2.02.31-3.11.49-.42.07-.87.16-1.34.29-.41-.37-.96-.56-1.52-.5l-2.14.2,9.94-10.73-.68-.73-7.48,5.97-1.14-3.67-1,.07-.98,6.08-4.46,3.56-7.26.68c-.97.09-1.74.87-1.81,1.85l-.04.53-1.71.39-2.27-1.34c-.49-.29-1.09-.36-1.64-.18-.55.18-.99.58-1.22,1.11l-2.29,5.3c-.27.62-.21,1.33.16,1.89.1.16.23.29.37.41l.96,2.09.74-1.6h.83l.82,1.79.82-1.79h.56l.82,1.79.82-1.79h3.42c-1,.98-1.93,1.83-2.52,2.27l-.68-1.48-.92,2c-.11,0-.23,0-.36,0l-.93-2.01-.84,1.82c-.22-.04-.44-.09-.69-.14l-.86-1.87-.71,1.53c-.46,0-.92.17-1.28.47-.52.43-.79,1.11-.71,1.78,0,.39.12.77.33,1.1l5.93,8.98c.38.57,1.01.9,1.67.9.21,0,.42-.03.63-.1.7-.23,1.2-.82,1.34-1.52.2-.67,1.3-3.67,1.73-4.42l.12-.21c2.56-4.5,4.25-5.5,5.23-5.56.05,0,.24.01.8.29.39.19.76.43,1.06.62.31.2.55.36.85.48.45.17.94.18,1.39.02.26-.09.51-.18.77-.27.62-.21,1.28-.44,1.96-.74.01.1.03.21.03.32,0,.98-.58,1.87-1.47,2.26,0,0-.03.01-.05.02-.06.02-.12.04-.17.06-3.76,1.51-6.86,4.34-8.74,7.96-1.25,2.42-1.91,5.14-1.91,7.88,0,8.02,5.56,14.75,13.02,16.58l-1.77,1.79s-.05.03-.07.04l-5.68,1.72c-.54-.05-1.1.11-1.55.5h0c-.29.16-.52.37-.7.63l-4.51,3.97c-.08.07-.12.18-.1.3.04.16.2.26.36.23l3.54-.81-.6,2.56c-.02.09,0,.19.06.27.11.13.3.15.44.04l2.91-2.41,5.51,1.09c.11.02.22-.02.29-.1.11-.13.09-.32-.04-.43l-2.96-2.44,4.09-1.23c.15,0,.29,0,.44-.02l5.39-.88c.09-.02.18-.07.23-.16.08-.15.02-.34-.13-.42l-2.44-1.25,2.45-2.48c5.37-.27,9.21-2.48,11.91-5.14h0s.02.08.03.11l-3.15,4.71s-.05.09-.07.13c-.4.26-.71.65-.86,1.13l-3.67,1.96c-.16.09-.27.26-.27.45,0,.28.23.52.51.52h6.1s4.08.8,4.08.8c.09.02.19,0,.26-.07.13-.11.14-.31.03-.44l-2.26-2.59c-.01-.12-.03-.23-.07-.34l3.1-4.64c.34.08.69.18,1,.33.66.3,1.25.76,1.52,1.56v.03c.04.09.11.16.21.19.16.05.33-.04.38-.2.15-.47.2-1.02.12-1.57-.09-.54-.28-1.07-.54-1.57-.26-.49-.58-.94-.93-1.36-.38-.43-.68-.79-1.24-1.2l-.69-.51c-.25-.18-.54-.32-.85-.39l-.19-.13c1.62-2.36,2.52-4.63,2.94-5.86,1.45-4.33,4.87-7.01,8.92-7.01,4.39,0,8.14,3.34,9.12,8.13.29,1.38.65,2.64,1.06,3.8l-6.04,1.67c-.55.15-1.01.53-1.26,1.04-.25.51-.28,1.1-.06,1.63l1.94,4.84c-.16.36-.23.76-.2,1.16l-3.32,3.56-4.66,2.11c-.09.04-.16.13-.18.24-.02.17.1.32.26.34l3.19.41-1.42,2.17c-.05.08-.07.18-.03.27.06.16.23.25.39.19l4.12-1.42,3.41.21c.08,0,.17-.02.24-.08.13-.12.13-.32.01-.45l-1.41-1.51c.06-.26.07-.53.03-.79,0-.02,0-.04,0-.05l3.07-3.29c.2-.11.57-.16.86-.21.32-.04.64-.06.95-.04.61.04,1.18.18,1.5.84l.02.04c.04.07.1.13.18.16.16.05.33-.04.38-.2.13-.44.13-.98-.05-1.49-.18-.51-.5-.94-.84-1.32-.35-.38-.73-.7-1.13-.98-.42-.29-.77-.53-1.34-.76l-.06-.03-1.34-3.34,4.52-1.25c2.57,4.42,6.03,6.6,8.6,7.65l-.82.49c-.59.12-1.12.47-1.44,1l-4.74,2.06c-.17.07-.3.24-.31.44-.02.28.2.53.48.54l6.4.39s.06,0,.08,0l3.38.93c.07.02.15.01.23-.02.16-.08.22-.27.14-.43l-1.07-2.14,3.02-1.81c.19-.11.34-.25.47-.41,3.71-.15,7.95-1.6,10.68-4.92,2.23-2.69,3.53-6.05,3.76-9.6.14.05.29.09.44.13.51.14,1.08.25,1.68.27,1.22.06,2.54-.37,3.42-1.1.9-.72,1.48-1.54,1.94-2.41.27-.45.37-.82.56-1.21l.5-1.15c.68-1.53,1.38-3.06,2.12-4.56.77-1.48,1.49-3.01,2.55-4.32-1.32,1.07-2.36,2.45-3.43,3.76ZM25.23,57.58l.71.42h-.9l.18-.42Zm3.05,11.56l-.11.2c-.11.18-.4.82-.74,1.63l-1.42-2.15c1.03-.01,1.91-.14,2.7-.42-.16.28-.31.53-.43.75Zm12.38-6.26c-.32-.2-.71-.44-1.14-.64-.66-.32-1.53-.68-2.53-.68-.07,0-.15,0-.22,0-.09,0-.18.01-.27.02.08-.09.15-.17.21-.23.54-.58.69-1.43.37-2.16-.32-.73-1.04-1.2-1.83-1.2h-5.81l2.16-.49c.87-.19,1.5-.93,1.57-1.81l.02-.32,6.11-.57s.04,0,.06,0l5.94-.57c.27.86.48,2.05.41,3.16,0,.01,0,.02,0,.02v.02s-.01.08-.01.12c0,.04,0,.08-.01.12-.04.18-.07.37-.09.55-.02.1-.05.18-.07.23-.21.54-.43.99-.67,1.41-.05.05-.1.09-.15.15-.2.21-.36.43-.47.67-.04.08-.06.14-.09.22-.2.22-.4.43-.62.61,0,0,0,0,0,0-.04.03-.08.06-.12.08-.79.61-1.69.92-2.73,1.27Zm72.18,26.3c0,2.96-1.02,5.82-2.89,8.07-2.38,2.89-6.6,3.79-9.54,3.42-.91-.12-8.98-1.47-11.35-12.92-1.37-6.67-6.73-11.32-13.04-11.32-5.83,0-10.7,3.73-12.71,9.74-.9,2.67-4.61,11.39-14.73,11.39-7.21,0-13.08-5.87-13.08-13.09,0-2.13.49-4.16,1.47-6.04,1.42-2.73,3.75-4.87,6.56-6.04.24-.07.41-.15.46-.18,2.34-1.03,3.85-3.36,3.85-5.92,0-.99-.22-1.94-.63-2.81.12-.14.23-.31.35-.47.11-.15.23-.3.34-.46.01-.02.03-.04.04-.06.43-.04.96-.02,1.47.02.08,0,.16.02.24.03.9,1.48,1.4,3.21,1.4,5.02,0,.66-.07,1.32-.2,2.01-.59,2.82-2.46,5.28-5.03,6.6-.49.16-.99.38-1.51.67-2.76,1.55-4.48,4.47-4.48,7.64,0,4.82,3.92,8.74,8.74,8.74,3.85,0,7.21-2.47,8.36-6.14,0-.03.02-.06.03-.09.15-.48.26-.99.32-1.51.81-3.26,2.47-6.26,4.81-8.69,3.68-3.85,8.65-5.97,13.97-5.97,5.78,0,11.21,2.56,14.9,7.02,2.87,3.44,4.41,7.61,4.46,12.05v.14c0,.08,0,.17,0,.25h0c.12,4.24,3.55,7.56,7.8,7.56,3.7,0,6.92-2.62,7.65-6.23.03-.13.04-.26.04-.4v-.27c0-.4.02-.79.07-1.19.28-2.47,1.43-4.77,3.23-6.48.17-.16.4-.33.68-.5-1.1,2.45-2.08,5.04-2.08,6.44Z"/>
  <polygon points="34.94 57.62 38.02 56.38 34.78 55.63 34.94 57.62"/>
</svg>