<?xml version="1.0" encoding="UTF-8"?>
<svg id="Graphics" xmlns="http://www.w3.org/2000/svg" viewBox="0 0 150 150">
  <path d="m123.27,70.9c.15-.31.29-.63.39-.96.29-.9.38-1.91.18-2.84-.19-.94-.66-1.75-1.21-2.37-.54-.64-1.19-1.07-1.78-1.54-.62-.45-1.32-.8-2.04-1.03-.71-.23-1.41-.35-2.07-.52-1.32-.32-2.51-1.06-3.56-2,.86,1.09,1.97,2.08,3.32,2.66.66.3,1.33.53,1.9.83.58.3,1.09.68,1.54,1.13.93.92,1.42,2.18,1.25,3.08-.07.46-.28.86-.57,1.24,0,0-.02.02-.03.03-.02-.01-.03-.02-.05-.04.07-.25.12-.51.14-.78.07-.98-.27-1.88-.7-2.49-.89-1.24-1.96-1.82-2.98-2.34-1.05-.5-2.05-.83-3.04-1.23-1-.38-2-.76-3.02-1.09.87.62,1.71,1.27,2.55,1.92.83.66,1.72,1.3,2.41,1.99.7.68,1.31,1.49,1.45,2.12.05.23.02.4-.04.49-.14.06-.27.12-.4.21-.01,0-.02,0,.04-.07-.04.03-.07.07-.11.11-.11.08-.22.18-.31.29.09-.09.06-.03.07-.03,0,0,0,0,0,.01-.08.11-.15.23-.21.36-.08,0-.18-.01-.31-.07-.62-.26-1.32-1.03-1.91-1.83-.59-.81-1.12-1.78-1.67-2.7-.53-.93-1.1-1.85-1.57-2.82.16,1.07.44,2.12.68,3.18.26,1.05.48,2.09.82,3.2.38,1.09.76,2.22,1.82,3.32.53.53,1.38,1.08,2.47,1.1.09,0,.17-.02.26-.02,0,0-.01,0-.02.01-.41.24-.81.39-1.25.4-.85.05-1.98-.69-2.62-1.84-.72-1.06-1.03-2.35-1.52-3.69-.49-1.34-1.3-2.51-2.22-3.52.76,1.15,1.34,2.4,1.59,3.71.25,1.29.36,2.76.98,4.12.15.34.31.67.49.99.17.33.35.69.59,1.02.47.67,1.16,1.31,2.06,1.67.9.37,1.91.42,2.81.28.24-.04.47-.09.7-.14,1.1,2.71,2.25,6.72,2.25,11.66,0,3.45-2.81,6.26-6.26,6.26-.71,0-1.39-.14-2.04-.36.05-.11.1-.23.16-.33.18-.3.42-.55.75-.76.34-.22.76-.29,1.23-.33-.35-.27-.78-.56-1.31-.67-.52-.12-1.11-.12-1.68.02-.52.13-1.02.35-1.48.63-.7-.68-1.24-1.51-1.56-2.44,0-.01,0-.02-.01-.03-.15-.44-.25-.9-.29-1.38,0-.01,0-.03,0-.04.04-.08.12-.17.17-.25.1-.13.22-.26.34-.38.25-.24.52-.45.83-.61.31-.16.65-.24,1.04-.24.4,0,.8.16,1.21.38-.15-.42-.36-.9-.75-1.26-.37-.38-.88-.7-1.43-.87-.55-.18-1.14-.27-1.72-.27-.25,0-.49.01-.74.04-.6-1.54-1.36-3.01-2.25-4.39.05-.07.09-.14.14-.21.21-.27.46-.52.74-.71.29-.2.61-.33,1-.37.4-.05.81.06,1.25.22-.21-.4-.47-.84-.9-1.16-.42-.33-.96-.58-1.53-.69-.57-.11-1.16-.12-1.74-.05-.29.03-.58.08-.86.15-.06.02-.12.03-.18.05-.76-.87-1.58-1.7-2.46-2.47-.02-.02-.05-.04-.07-.05,0-.04.01-.09.02-.12.03-.17.07-.34.11-.5.1-.33.24-.65.43-.93.19-.29.45-.53.8-.71.35-.19.78-.24,1.24-.25-.34-.3-.75-.61-1.26-.75-.51-.15-1.11-.19-1.68-.08-.57.1-1.13.31-1.64.58-.26.14-.51.29-.75.46-.07.05-.14.1-.21.15-.69-.44-1.4-.84-2.13-1.21,0-.03,0-.05-.02-.08-.03-.17-.05-.34-.05-.51-.01-.34.02-.69.11-1.02.09-.34.26-.64.53-.93.27-.3.66-.48,1.1-.64-.41-.17-.9-.34-1.44-.31-.53.02-1.11.17-1.61.46-.51.28-.97.66-1.37,1.08-.18.19-.34.39-.5.6-.96-.32-1.94-.59-2.94-.79-.06-.07-.11-.16-.16-.23-.09-.14-.18-.29-.25-.45-.15-.31-.26-.64-.3-.98-.05-.34-.02-.69.12-1.06.13-.38.42-.7.76-1.02-.45,0-.96.04-1.44.29-.48.23-.95.6-1.3,1.06-.36.46-.63.98-.83,1.53-.05.14-.08.28-.12.41-.45-.03-.91-.06-1.36-.06-.49,0-.98.04-1.47.07-.05-.03-.09-.07-.13-.09-.14-.1-.26-.22-.38-.34-.24-.24-.46-.52-.62-.82-.16-.31-.25-.65-.24-1.04,0-.4.16-.8.37-1.21-.42.15-.89.36-1.26.76-.38.37-.69.88-.87,1.43-.18.55-.26,1.14-.27,1.72,0,.01,0,.02,0,.03-.72.15-1.44.32-2.15.53-.12-.07-.24-.15-.35-.24-.27-.21-.52-.46-.71-.74-.2-.29-.33-.61-.37-1-.05-.4.06-.81.22-1.25-.4.21-.84.47-1.16.9-.33.42-.58.96-.69,1.53-.11.57-.12,1.16-.05,1.74,0,.07.03.13.04.2-.64.29-1.26.6-1.88.94-.14-.06-.29-.13-.42-.22-.29-.19-.54-.44-.73-.78-.2-.34-.26-.77-.28-1.24-.29.34-.59.76-.72,1.28-.14.51-.16,1.11-.04,1.68.04.18.1.35.16.53-.5.34-.98.71-1.46,1.09-.27-.18-.51-.42-.69-.75-.2-.34-.26-.77-.28-1.24-.29.34-.59.76-.72,1.28-.14.51-.16,1.11-.04,1.68.03.14.08.28.12.41-.79.75-1.53,1.54-2.2,2.38-.18-.12-.35-.27-.5-.46-.25-.31-.37-.72-.46-1.18-.23.38-.47.84-.52,1.38-.06.53,0,1.12.21,1.66.02.07.06.13.09.19-.53.78-1.02,1.59-1.46,2.43-.01,0-.02,0-.03,0-.35-.04-.68-.15-1-.38-.33-.22-.58-.57-.8-.98-.1.44-.19.95-.07,1.47.1.52.35,1.07.71,1.52.09.11.19.2.28.3-.28.67-.53,1.36-.75,2.06-.21.07-.43.14-.66.16-.35.04-.7,0-1.06-.14-.38-.14-.69-.43-1-.78,0,.45.03.97.26,1.45.22.48.58.96,1.04,1.32.23.18.47.34.73.49-.48,1.17-1.64,1.97-2.93,1.97-.17,0-.33-.03-.5-.06,0-.1,0-.2.01-.3.04-.35.17-.67.4-.99.22-.33.58-.56,1-.78-.43-.11-.94-.21-1.47-.1-.52.09-1.07.33-1.53.68-.13.1-.25.22-.37.33-.36-.46-.61-1-.67-1.6,0-.04,0-.08-.02-.12-.01-.08-.01-.15-.01-.24,0-.45.1-.88.28-1.28.22.08.44.18.64.34.32.24.54.61.74,1.03.13-.43.25-.93.17-1.46-.06-.44-.23-.88-.47-1.3l2.21-2.23c.12.06.23.11.34.18.29.19.53.45.72.79.2.35.25.77.26,1.24.29-.34.6-.75.74-1.27.15-.51.18-1.11.06-1.68-.07-.37-.2-.72-.34-1.06l1.73-1.74s.1.05.15.08c.29.19.53.45.72.79.2.35.25.77.26,1.24.29-.34.6-.75.74-1.27.15-.51.18-1.11.06-1.68-.06-.29-.14-.58-.25-.86l2.42-2.45c.03.05.07.09.1.15.2.35.25.77.26,1.24.29-.34.6-.75.74-1.27.13-.44.15-.93.08-1.43.62-.84,1.15-1.73,1.62-2.66,0,0,.01,0,.02.01.29.19.53.45.72.79.2.35.25.77.26,1.24.29-.34.6-.75.74-1.27.15-.51.18-1.11.06-1.68-.11-.57-.32-1.12-.6-1.63-.03-.06-.08-.12-.11-.18.14-.46.27-.93.38-1.4.3.13.59.27.86.45.45.3.82.7,1.1,1.21.31.51.41,1.13.47,1.79.26-.59.52-1.26.51-2,.01-.73-.15-1.52-.49-2.22-.34-.71-.8-1.35-1.33-1.92-.21-.23-.44-.44-.68-.64.01-.3.04-.59.04-.89,0-.11-.01-.21-.01-.32.33.02.66.06.99.15.52.14,1,.4,1.44.79.46.38.75.94,1.03,1.54.05-.64.08-1.36-.17-2.05-.23-.69-.64-1.38-1.19-1.94-.55-.56-1.2-1.02-1.88-1.38-.18-.09-.36-.17-.55-.25-.1-.49-.21-.98-.35-1.45.34-.05.68-.09,1.03-.07.54.02,1.06.18,1.57.46.53.27.93.75,1.33,1.29-.08-.64-.21-1.35-.6-1.97-.37-.63-.91-1.22-1.57-1.64-.65-.43-1.38-.74-2.13-.95-.26-.07-.52-.12-.78-.17-.16-.34-.33-.67-.52-.99.25-.12.51-.22.78-.3.52-.15,1.06-.17,1.64-.05.59.09,1.12.42,1.67.8-.28-.58-.62-1.21-1.19-1.68-.55-.48-1.25-.87-2.01-1.06-.75-.2-1.55-.27-2.33-.23-.08,0-.16.02-.24.03-.28-.36-.58-.7-.88-1.04.65-.46,1.23-.99,1.69-1.61.78-1.03,1.24-2.22,1.44-3.41-.51,1.09-1.25,2.04-2.15,2.71-.68.51-1.45.86-2.24,1.07-.6-.55-1.24-1.05-1.92-1.52.45-.24.89-.5,1.3-.8,1.08-.81,1.96-1.87,2.49-3.05.54-1.18.73-2.44.66-3.64-.26,1.18-.77,2.26-1.5,3.11-.73.85-1.65,1.47-2.64,1.84-1.31.49-2.72.58-4.02.35,1.15-.56,2.19-1.32,3.04-2.24.91-1,1.57-2.21,1.87-3.46.31-1.26.25-2.54-.05-3.7-.03,1.21-.33,2.37-.88,3.34-.55.98-1.34,1.75-2.24,2.31-1.23.76-2.65,1.11-4.02,1.11,1.19-.83,2.2-1.87,2.93-3.08.7-1.16,1.11-2.47,1.16-3.76.05-1.29-.25-2.54-.77-3.62.2,1.19.14,2.39-.22,3.45-.35,1.06-.97,1.98-1.75,2.7-1.09,1.02-2.48,1.65-3.86,1.9.67-.72,1.24-1.53,1.67-2.4.59-1.21.89-2.56.83-3.85-.06-1.29-.47-2.5-1.08-3.54.31,1.17.35,2.37.08,3.46-.26,1.09-.8,2.06-1.51,2.84-1.21,1.34-2.89,2.16-4.54,2.42.26-.57.49-1.16.67-1.75.9-3.06.54-6.27-.63-8.95.54,2.89.11,5.84-1.22,8.19-.64,1.14-1.48,2.14-2.45,2.9-1.17.3-2.29.76-3.31,1.42-.06.04-.18.12-.23.17l-.1.07s-.02,0-.02.01c-.04.02-.08.05-.12.07-2.78,1.86-6.04,2.84-9.4,2.84h-.09c-1.43,0-2.83-.19-4.18-.54.78-.84,1.73-1.59,2.74-2.36.86-.69,1.88-1.51,2.29-2.79.4-1.27.07-2.5-.33-3.55-.22-.54-.46-1.02-.61-1.51-.15-.49-.25-1-.14-1.43.1-.43.47-.73.95-.91.48-.18,1.01-.26,1.55-.33,1.08-.14,2.19-.2,3.27-.51.53-.16,1.06-.39,1.48-.76.43-.36.71-.87.85-1.4-.17.52-.48,1-.91,1.32-.43.33-.94.52-1.47.64-1.06.24-2.15.23-3.26.3-.55.04-1.11.08-1.68.26-.55.15-1.18.56-1.38,1.22-.36,1.28.26,2.42.54,3.4.29,1,.42,2.06.06,2.89-.34.83-1.16,1.43-2.05,2.02-.9.58-1.88,1.18-2.78,1.94-.38.32-.75.67-1.09,1.05-.33-.02-.66.04-.97.19-.7.34-1.31.79-1.86,1.31.04-.56.28-1.11.71-1.64,1.08-1.36,2.91-2.5,3.8-4.43.47-.95.53-2.07.3-3.05-.22-.99-.64-1.89-1.11-2.74-.47-.85-1-1.66-1.48-2.48-.23-.41-.48-.84-.58-1.29-.05-.22-.03-.48.14-.64.17-.16.42-.22.65-.25-.24.02-.49.06-.69.22-.2.16-.24.45-.21.69.07.49.29.94.5,1.37.43.87.9,1.71,1.3,2.57.4.86.74,1.76.87,2.66.13.91.02,1.81-.44,2.56-.91,1.56-2.64,2.4-4.13,3.87-.75.72-1.4,1.9-1.35,3.12.01.51.11.98.24,1.43-.52,1.02-.82,2.16-.82,3.34,0,1.46.42,2.87,1.23,4.07.44.65,1.21.98,1.98.86l.13-.02,1.44,1.04.66-1.39,2.01-.33,1.22.88.56-1.18,2.33-.38,1.01.73.46-.97,1.3-.21-.84,1.63-1.54.25-1.47-1.13-.78,1.5-1.85.3-1.27-.98-.67,1.3-.54.09c-.85.14-1.52.81-1.65,1.67-.06.37-.09.75-.09,1.15,0,4.07,3.31,7.38,7.38,7.38,1.42,0,2.79-.4,3.98-1.17.15-.09.29-.19.42-.29,3.35-2.24,7.26-3.42,11.31-3.42.08,0,.17,0,.25,0,.07,0,.13,0,.2,0,.02,0,.04,0,.05,0,2.63,0,5.1-.94,7.06-2.58.36.25.74.48,1.13.69.69.96,1.1,2.12,1.1,3.35,0,1.88-.92,3.64-2.46,4.71-.21.14-.42.27-.64.39-.04.02-.09.05-.13.07l-6.35,3.9c-1.96,1.18-3.66,2.7-5.06,4.52-2.53,3.25-3.87,7.17-3.87,11.31,0,2.93.67,5.74,1.99,8.35.01.02.02.04.03.06,0,0,0,.01.01.02.23.72.54,1.43.97,2.07.02.03.04.06.06.08l4.2,6.03-4.61,4.34-3.28-2.5-.22-.16c-.12-.09-.27-.13-.42-.1l-2.08.41c-.2.04-.36.19-.4.4-.05.28.13.54.4.6l1.57.31,1.18,1.49-1.72-.52-.23-.07c-.24-.07-.51-.01-.7.18l-2.08,2.12c-.15.16-.19.4-.08.6.14.24.45.33.69.19l2.01-1.14,1.32.82-1.46.1-.25.02c-.13,0-.26.07-.37.17l-2.08,2.12c-.15.16-.19.4-.08.6.14.24.45.33.69.19l2.18-1.24,6.29,1.32c.19.11.39.18.61.22.67.35,1.46.28,2.07-.14l5.14-.61.43.49c.12.14.31.21.51.16.28-.07.45-.34.38-.62l-.29-1.23c-.04-.17-.18-.32-.36-.36l-.31-.07-1.25-.29c.82-.48,1.76-1.03,2.76-1.61l2.07,2.97-4.9,4.62-3.1-2.54-.21-.18c-.17-.14-.41-.19-.64-.12l-2.96.98c-.21.07-.36.27-.35.51.02.28.25.49.53.48l2.46-.14,1.19,1.89-4.79-.95-.2-.04c-.22-.04-.46.02-.63.19l-2.72,2.62c-.17.16-.21.42-.08.62.14.24.45.31.69.17l2.74-1.67,3.12,1.38-2.59.61-.21.05c-.09.02-.18.07-.25.14l-2.88,2.79c-.17.16-.2.42-.08.63.15.23.46.3.69.16l3.08-1.95,7.86.12c.08.01.16.01.25.02.05.01.1.04.15.05.42.08.84.03,1.2-.14l7.26-.59.63.8c.13.16.34.23.54.17.27-.08.42-.36.35-.63l-.45-1.54c-.06-.19-.21-.34-.42-.39l-.25-.05-1.75-.34c.92-.53,1.98-1.15,3.09-1.8.81-.47,1.66-.97,2.49-1.45.56-.33.92-.91.98-1.55l1.02-11.84c5.18-2.35,9.03-6.98,10.37-12.57.89-4.33,4.75-7.47,9.17-7.47.29,0,.58.03.86.05.2,1.13.62,2.22,1.26,3.2.02.03.04.06.06.08l4.2,6.02-3.86,3.64-2.41-2.09-.22-.19c-.22-.19-.53-.22-.79-.07l-2.08,1.21c-.18.11-.28.32-.24.53.05.28.32.46.59.41l1.61-.3,1.12,1.78-2.53-.48-.26-.05c-.16-.03-.33,0-.47.1l-2.46,1.77c-.18.13-.26.37-.18.58.1.26.39.4.65.3l2.35-.87,1.21.64-2.09.44-.25.05c-.11.02-.21.08-.29.17l-1.95,2.24c-.14.17-.17.41-.04.61.15.23.46.3.7.15l2.13-1.39,3.44.24c.31.18.65.3,1.03.3h2.33c.6.33,1.33.32,1.92,0h.38c.32,0,.63-.09.92-.23l4.05-.35.49.49c.13.13.33.19.52.13.27-.08.43-.37.34-.64l-.37-1.21c-.04-.15-.16-.27-.32-.31l-.3-.08-.68-.18,2.19-1.28,3.05,4.38-3.8,3.58-2.67-2.62-.2-.2c-.21-.21-.54-.26-.82-.12l-2.31,1.2c-.19.1-.3.31-.27.53.05.28.31.46.58.42l1.79-.3,1.11,2.05-3.1-1.03-.2-.07c-.24-.08-.52-.03-.73.15l-2.89,2.6c-.17.16-.22.41-.1.62.14.24.45.32.69.19l2.82-1.62,2.16,1.38-2.42.28-.24.03c-.14.02-.27.08-.37.19l-2.09,2.32c-.15.17-.17.42-.05.61.15.23.46.3.7.15l2.23-1.44,4.12.62c.24.1.5.17.77.17h.39l1.51.23c.25.12.53.19.82.2.6.2,1.23.09,1.72-.24l5.52-.89.49.52c.13.14.33.2.52.14.27-.08.42-.37.34-.64l-.39-1.27c-.05-.17-.2-.31-.39-.35l-.3-.05-.79-.14c.69-.4,1.43-.83,2.2-1.28.82-.48,1.67-.98,2.49-1.47.55-.33.92-.91.97-1.55l.09-1.02c.54.05,1.08.07,1.63.07,10.04,0,18.52-8.48,18.52-18.52,0-7.09-3.7-12.19-6.73-15.19Zm-60.45-18.65c-.16,0-.32,0-.48-.03-1.43-.14-2.65-.73-3.71-1.58.02-.13.05-.27.07-.4.72.04,1.44.02,2.15-.08.72.63,1.38,1.33,1.97,2.09Zm-2.79,4.43c-.51-1-1.19-1.9-2.02-2.67.22.06.44.13.66.18,1.27.28,2.59.29,3.81.03.49-.1.95-.25,1.4-.41.44.74.8,1.52,1.1,2.33-.54.28-1.1.51-1.66.66-1.01.26-2.03.26-2.94,0-.12-.03-.23-.08-.35-.12Zm-25.01-5.35l2.14-.35c.28-.05.48.06.6.17.08.07.26.26.25.65-.05.32-.3.58-.62.63l-.78.13-1.6-1.23Zm12.78,4.32h-.02c-.16,0-.32-.01-.47-.01-4.89,0-9.61,1.44-13.63,4.16-.07.05-.06.04-.12.1-.04.02-.08.05-.12.07-.54.36-1.2.55-1.85.55-1.57,0-2.9-1.08-3.27-2.54l9.72-1.6c2.05-.32,3.63-1.93,3.94-3.99.04-.24.05-.46.05-.69,0-1.39-.61-2.7-1.68-3.6-1.06-.9-2.46-1.29-3.84-1.06l-11.86,1.94c-.05-.24-.08-.48-.08-.73,0-1.05.47-2.01,1.27-2.64,1.92.58,3.93.89,5.97.9h.1c4.11,0,8.09-1.19,11.51-3.44.1-.05.17-.1.22-.14.44-.22.85-.46,1.23-.73.81-.37,1.69-.59,2.59-.63,2.93-.14,5.75,1.73,6.86,4.5.31.79.48,1.6.5,2.43,0,.04,0,.09,0,.13,0,1.58-.53,3.13-1.51,4.36-1.34,1.69-3.35,2.66-5.51,2.67Zm-.63,51.25l2.04-1.92c.1.18.2.37.32.55-.84.49-1.64.96-2.35,1.37Zm47.54-12.67c.07.19.13.38.19.54l-2.91,1.7,2.64-2.48.08.25Zm-3.61-8.46c.05.05.09.11.14.16.22.24.42.48.61.74.1.13.19.27.28.41.17.25.32.52.46.79.02.05.05.1.07.14l-1.57-2.25Zm20.4,14.83c-1.02,0-2.04-.11-3.02-.32-.56-.12-1.15,0-1.61.35-.46.34-.75.87-.8,1.44l-.18,2.11c-.53.31-1.06.62-1.58.93-1.1.64-2.15,1.25-3.05,1.78l2.69-2.53c.72-.68.84-1.79.27-2.6l-5.01-7.19-.09-.13s0-.01-.01-.02l-.07-.1h0c-.04-.08-.15-.33-.35-.89-.03-.07-.05-.15-.08-.22-.06-.16-.11-.33-.17-.51l-.52-1.62c-.05-.17-.11-.34-.16-.51-.04-.12-.08-.25-.11-.37-.07-.24-.13-.46-.2-.65-.08-.26-.14-.5-.2-.69-.02-.06-.03-.11-.05-.17-.06-.24-.13-.47-.21-.7-.02-.07-.05-.15-.08-.22-.07-.21-.15-.43-.23-.63-.04-.09-.08-.19-.13-.28-.08-.18-.16-.36-.24-.54-.05-.11-.12-.22-.17-.32-.08-.16-.16-.31-.25-.47-.07-.11-.14-.22-.21-.33-.09-.14-.17-.29-.26-.42-.09-.14-.19-.27-.29-.41-.08-.1-.15-.21-.23-.31-.13-.17-.27-.33-.4-.49-.05-.06-.1-.13-.16-.19-.16-.18-.32-.34-.48-.51-.04-.04-.08-.09-.12-.13-.2-.2-.4-.38-.61-.57-.01-.01-.03-.02-.04-.04-1.56-1.36-3.45-2.35-5.54-2.87,0,0,0,0,0,0-1.04-.26-2.12-.39-3.21-.39-6.31,0-11.82,4.48-13.07,10.6-1.08,4.46-4.26,8.19-8.53,9.97-.08.03-.17.06-.25.09l-.26.09c-.72.27-1.23.92-1.3,1.69l-1.05,12.07c-.53.31-1.06.62-1.58.92-1.11.65-2.17,1.27-3.08,1.8l2.7-2.55c.72-.68.84-1.79.27-2.6l-5.2-7.45c-.48-.73-.73-1.54-.73-2.47,0-.78-.46-1.49-1.17-1.82-.53-.24-1.05-.53-1.56-.84-.02-.01-.03-.02-.05-.03-.5-.31-.99-.66-1.46-1.04-.16-.13-.32-.27-.48-.41-.08-.08-.17-.15-.25-.22-.12-.11-.23-.22-.35-.33-.16-.16-.32-.33-.47-.49-.11-.12-.22-.24-.32-.36-.14-.16-.27-.32-.4-.49-.11-.14-.21-.27-.32-.41-.13-.18-.25-.36-.37-.54-.09-.13-.18-.26-.26-.4-.19-.31-.37-.63-.54-.96,0,0,0-.01-.01-.02-.03-.05-.06-.1-.09-.15-1.02-2.03-1.53-4.21-1.53-6.48,0-3.25,1.05-6.31,3.03-8.87,1.1-1.43,2.43-2.62,3.97-3.55l6.3-3.87c.35-.19.7-.4,1.02-.63,2.61-1.82,4.17-4.81,4.17-7.99,0-.82-.11-1.61-.3-2.38,1.07-.13,2.07-.49,2.92-1.02.53-.33,1-.7,1.43-1.12.48,1.43.74,2.95.74,4.51,0,3.28-1,6.32-2.89,8.8l-10.93,11.03c-1.36,1.36-2.1,3.16-2.1,5.07,0,.31.02.58.06.84.27,2.37,1.7,4.43,3.83,5.55,1,.52,2.13.79,3.27.79,3.34,0,6.29-2.37,6.99-5.57,0-.03.03-.12.04-.15.98-4.26,3.27-8.04,6.61-10.92,3.76-3.25,8.57-5.05,13.55-5.05s9.82,1.8,13.58,5.08c3.21,2.78,5.45,6.41,6.49,10.5.07.79.23,1.56.48,2.29,0,0,0,0,0,0,0,0,0,.02,0,.03.54,1.59,1.48,3.04,2.69,4.16,1.89,1.8,4.39,2.79,7.03,2.79,5.66,0,10.26-4.6,10.26-10.26,0-2.88-.34-5.48-.85-7.75,1.17,2.13,2.01,4.73,2.01,7.75,0,7.87-6.65,14.52-14.52,14.52Z"/>
  <polygon points="42.72 46.68 46.45 46.07 42.93 44.69 42.72 46.68"/>
  <polygon points="26.25 47.73 29.92 47.62 26.35 46.74 26.25 47.73"/>
</svg>