<?xml version="1.0" encoding="UTF-8"?>
<svg id="Graphics" xmlns="http://www.w3.org/2000/svg" viewBox="0 0 150 150">
  <path d="m120,68.7l1.39-1.39-7.65-1.99,1.99,7.65,1.25-1.25c1.05,1.82,3.83,7.33,3.83,14.97,0,3.48-2.83,6.3-6.3,6.3-1.62,0-3.15-.6-4.32-1.72-.75-.7-1.32-1.58-1.66-2.55,0,0,0-.02,0-.03-.15-.44-.25-.91-.29-1.39,0-.14-.02-.28-.06-.42-1.23-4.99-3.94-9.42-7.83-12.79-4.51-3.92-10.29-6.09-16.28-6.09s-11.74,2.15-16.24,6.05c-4,3.46-6.75,7.99-7.92,13.07-.01.04-.04.14-.05.18-.32,1.45-1.63,2.51-3.12,2.51-.51,0-1.01-.12-1.44-.34-.96-.5-1.6-1.43-1.72-2.5,0-.04,0-.08-.02-.12-.01-.08-.01-.16-.01-.24,0-.85.33-1.65.95-2.27l11.09-11.19c.06-.06.11-.12.16-.18.72-.93,1.34-1.95,1.86-3.02.01,0,.02.01.03.02.29.19.53.45.72.8.2.35.25.78.26,1.25.29-.34.61-.76.74-1.28.15-.51.18-1.11.06-1.68-.11-.57-.33-1.13-.6-1.64-.04-.07-.08-.13-.12-.19.14-.47.27-.94.38-1.42.31.13.6.27.88.46.45.3.82.71,1.11,1.22.31.51.41,1.14.47,1.8.26-.59.52-1.27.51-2.01.01-.73-.15-1.52-.5-2.23-.34-.71-.8-1.36-1.34-1.93-.21-.23-.45-.44-.69-.65.01-.3.04-.6.04-.9,0-.11-.01-.22-.01-.33.34.02.68.06,1.01.15.52.14,1.01.4,1.44.79.46.38.76.94,1.03,1.55.05-.64.08-1.37-.18-2.06-.23-.7-.64-1.39-1.19-1.94-.55-.56-1.2-1.02-1.89-1.39-.17-.09-.36-.16-.54-.25-.09-.5-.21-1-.34-1.48.34-.05.68-.09,1.02-.07.54.02,1.07.18,1.58.47.53.28.94.76,1.34,1.29-.08-.64-.21-1.35-.61-1.98-.37-.63-.92-1.22-1.58-1.65-.66-.43-1.39-.74-2.14-.96-.24-.07-.49-.11-.74-.16-.17-.35-.34-.7-.53-1.04.24-.11.49-.21.75-.28.52-.15,1.07-.16,1.65-.05.59.1,1.13.43,1.68.81-.28-.58-.63-1.22-1.2-1.69-.55-.48-1.26-.87-2.02-1.07-.76-.2-1.55-.27-2.34-.23-.06,0-.12.02-.18.02-.29-.37-.6-.73-.92-1.07.64-.46,1.21-.99,1.67-1.59.79-1.03,1.25-2.23,1.45-3.43-.52,1.1-1.26,2.05-2.16,2.72-.67.51-1.43.86-2.2,1.07-.62-.55-1.27-1.06-1.96-1.53.45-.24.89-.49,1.29-.8,1.09-.81,1.97-1.88,2.51-3.06.54-1.18.73-2.45.66-3.66-.26,1.19-.78,2.28-1.51,3.13-.73.86-1.66,1.48-2.65,1.85-1.32.5-2.75.59-4.07.36,1.17-.57,2.22-1.33,3.08-2.27.91-1,1.58-2.22,1.88-3.48.31-1.26.25-2.55-.05-3.72-.03,1.21-.33,2.38-.89,3.36-.55.98-1.35,1.76-2.25,2.32-1.25.77-2.69,1.12-4.08,1.12,1.21-.83,2.23-1.89,2.97-3.11.7-1.16,1.12-2.48,1.17-3.78.06-1.3-.25-2.55-.77-3.64.21,1.2.14,2.4-.21,3.47-.35,1.07-.98,1.99-1.75,2.72-1.11,1.03-2.5,1.67-3.91,1.92.69-.73,1.26-1.55,1.7-2.43.6-1.22.9-2.57.83-3.87-.06-1.3-.47-2.52-1.08-3.56.31,1.17.35,2.38.09,3.47-.26,1.1-.8,2.07-1.51,2.86-1.22,1.36-2.91,2.18-4.58,2.44.27-.58.5-1.17.68-1.77.91-3.08.55-6.3-.63-8.99.54,2.9.12,5.87-1.22,8.24-.65,1.15-1.49,2.16-2.47,2.93-1.17.3-2.3.76-3.32,1.43-.06.04-.18.12-.24.17l-.09.07s-.01,0-.02.01c-.04.02-.08.05-.12.07-2.8,1.87-6.07,2.86-9.46,2.86h-.09c-1.93,0-3.81-.34-5.6-.97-.51-.18-1.06-.15-1.54.08-2.53,1.23-4.16,3.84-4.16,6.66,0,1.47.43,2.88,1.23,4.08.44.65,1.21.98,1.98.86l.13-.02,1.45,1.06.67-1.4,2.01-.33,1.24.9.57-1.19,2.33-.38,1.02.74.47-.98,1.31-.21-.86,1.67-1.54.25-1.48-1.15-.78,1.52-1.85.31-1.28-.99-.68,1.32-.54.09c-.85.14-1.52.81-1.65,1.67-.06.37-.09.76-.09,1.16,0,4.08,3.32,7.41,7.41,7.41,1.42,0,2.8-.41,4-1.17.15-.09.3-.19.43-.29,3.37-2.25,7.3-3.45,11.38-3.45.08,0,.16,0,.25,0,.07,0,.14,0,.21,0,.02,0,.03,0,.05,0,0,0,.02,0,.03,0,.46,1.12,1.19,2.07,2.11,2.74.67.49,1.45.8,2.21.88.77.09,1.5-.05,2.13-.31-.68-.07-1.31-.29-1.8-.64-.49-.35-.84-.8-1.07-1.29-.29-.62-.36-1.3-.29-1.91.49-.16.98-.33,1.44-.56.18.34.39.66.63.95.51.62,1.15,1.1,1.84,1.36.69.27,1.4.32,2.04.23-.61-.24-1.13-.61-1.48-1.05-.36-.44-.56-.95-.63-1.46-.07-.49-.03-.98.1-1.43.32.21.65.41.99.59.7.96,1.1,2.13,1.1,3.37,0,1.89-.92,3.66-2.48,4.75-.2.14-.42.27-.64.39-.04.02-.08.05-.13.07l-6.38,3.92c-1.97,1.19-3.68,2.72-5.08,4.54-2.54,3.27-3.89,7.2-3.89,11.37,0,2.95.67,5.77,2,8.39,0,0,0,0,0,.01.23.76.57,1.49,1.07,2.24l4.23,6.07-6.68,6.29c-.19.18-.32.39-.42.61l-3.07.21-.25.02c-.13,0-.27.07-.37.17l-2.09,2.13c-.15.16-.19.4-.08.6.14.24.45.33.69.19l2.19-1.25,6.33,1.33c.36.21.79.31,1.23.26.17.03.35.05.53.04.25-.02.47-.08.69-.18l5.39-.63.43.49c.12.14.32.21.51.16.28-.07.45-.34.38-.62l-.3-1.24c-.04-.17-.18-.32-.36-.36l-.31-.07-1.28-.3c.83-.48,1.79-1.04,2.8-1.63l2.1,3-6.68,6.3c-.09.08-.15.19-.22.28l-6.69.27h-.2c-.15.01-.3.07-.42.19l-2.74,2.63c-.17.16-.21.42-.08.62.14.24.45.31.69.17l2.86-1.75,8.74,1.56c.29.13.62.2.96.17.13.02.28.03.41.03.19,0,.37-.05.54-.1l7.49-.6.64.8c.13.16.34.23.54.17.27-.08.42-.36.34-.63l-.45-1.54c-.06-.19-.21-.34-.42-.39l-.25-.05-1.79-.35c.93-.54,2-1.16,3.12-1.82.81-.47,1.67-.97,2.51-1.46.56-.33.92-.91.98-1.55l1.03-11.91c5.2-2.36,9.08-7.02,10.43-12.63.9-4.35,4.78-7.52,9.23-7.52.3,0,.59.03.87.05.2,1.14.62,2.24,1.27,3.22.02.03.04.06.06.08l4.23,6.06-6.69,6.3c-.07.06-.11.15-.17.22l-2.23.29-.25.03c-.13.02-.26.08-.36.19l-1.96,2.25c-.14.17-.17.41-.04.61.15.23.47.3.7.15l2.11-1.38,1.98.29c.37.49.95.8,1.59.8h3.22c.27.07.56.08.85.03.17.02.35.03.53,0,.11-.01.21-.04.31-.07.23-.03.46-.09.67-.2l5.05-.9.46.47c.13.13.33.19.52.13.27-.08.43-.37.34-.64l-.37-1.22c-.05-.17-.2-.31-.39-.34l-.31-.05-.69-.12,1.33-.78,3.08,4.42-6.68,6.29s-.07.09-.11.14l-3.12.35-.24.03c-.14.02-.27.08-.37.19l-2.1,2.33c-.15.17-.18.42-.05.61.15.23.46.3.7.15l2.24-1.46,2.95.44c.37.41.9.66,1.47.66h2.62c.31.11.64.15.99.1.16.02.34.03.51,0,.16-.02.3-.06.45-.11h.08c.29,0,.58-.08.84-.2l5.02-.8.5.53c.13.14.33.2.52.14.27-.08.42-.37.34-.64l-.39-1.28c-.05-.18-.2-.32-.4-.35l-.3-.05-.79-.14c.55-.32,1.12-.65,1.7-.99.83-.48,1.68-.98,2.51-1.47.55-.33.92-.91.97-1.55l.09-1.03c.55.05,1.09.07,1.65.07,10.09,0,18.61-8.52,18.61-18.61s-7.7-16.39-10-17.99Zm-57.51-16.02c-.17,0-.33,0-.5-.03-1.44-.14-2.67-.74-3.74-1.59.03-.14.05-.28.08-.42.73.05,1.46.02,2.17-.08.73.64,1.4,1.35,1.99,2.11Zm-2.84,4.45c-.52-1.01-1.21-1.93-2.06-2.71.23.07.47.14.7.19,1.27.28,2.6.29,3.83.04.49-.1.96-.25,1.42-.42.44.75.81,1.53,1.11,2.35-.55.29-1.11.52-1.68.67-1.02.27-2.04.26-2.96,0-.12-.03-.24-.08-.36-.13Zm-25.15-5.39l2.16-.35c.28-.05.49.07.61.17.08.07.27.26.27.57v.1c-.06.33-.31.59-.64.64l-.78.13-1.62-1.26Zm-1.33,8.53c-.07.05-.06.04-.12.09-.04.02-.08.05-.12.08-.55.36-1.21.56-1.86.56-1.59,0-2.93-1.09-3.3-2.57l9.78-1.61c2.06-.33,3.64-1.94,3.95-3.99.04-.24.05-.46.05-.7,0-1.39-.61-2.71-1.68-3.62-1.07-.91-2.47-1.3-3.85-1.07l-11.93,1.95c-.05-.24-.08-.49-.08-.75,0-1.06.48-2.04,1.28-2.67,1.94.59,3.95.89,6.01.9h.1c4.13,0,8.13-1.2,11.56-3.46.1-.05.17-.1.22-.14.44-.22.86-.46,1.25-.74.82-.37,1.7-.59,2.6-.63,2.96-.12,5.79,1.74,6.91,4.53.08.2.15.4.21.6.18.61.28,1.23.29,1.85.03,1.64-.51,3.24-1.53,4.52-1.35,1.7-3.37,2.68-5.55,2.69h-.02c-.16,0-.33-.01-.47-.01-4.92,0-9.65,1.45-13.7,4.18Zm13.48,47.4l2.13-2c.1.19.21.38.33.57-.88.51-1.72,1-2.46,1.43Zm44.77-20.71c.05.07.11.14.16.21.21.27.4.56.58.85.02.03.03.05.05.08.12.21.22.44.33.66l-1.76-2.52c.23.23.44.47.65.73Zm3.02,7.65l.09.27c.07.19.13.38.19.55l-3.01,1.76,2.73-2.58Zm16.95,6.68c-1.03,0-2.05-.11-3.04-.32-.56-.12-1.15,0-1.61.35-.46.34-.75.87-.8,1.44l-.18,2.13c-.53.31-1.07.63-1.59.93-1.13.66-2.22,1.29-3.15,1.84l2.77-2.61c.72-.68.84-1.79.27-2.6l-5.03-7.22-.09-.13s0-.02-.01-.02l-.07-.1c-.04-.08-.15-.33-.36-.9-.02-.07-.05-.14-.07-.21-.05-.14-.1-.29-.15-.45l-.82-2.6c-.07-.25-.14-.47-.2-.67-.08-.26-.14-.49-.19-.68-.01-.06-.03-.11-.05-.17-.06-.24-.13-.48-.21-.71-.02-.06-.04-.12-.06-.17-.08-.23-.16-.46-.25-.68-.02-.05-.04-.09-.06-.13-.1-.23-.2-.47-.31-.69-.02-.04-.04-.07-.06-.11-.12-.23-.24-.46-.37-.69-.01-.02-.03-.04-.04-.06-.14-.24-.28-.47-.43-.7-.01-.02-.03-.03-.04-.05-.16-.23-.32-.46-.48-.67,0,0-.01-.02-.02-.02-1.45-1.87-3.39-3.34-5.63-4.24,0,0,0,0-.01,0-.56-.22-1.14-.41-1.73-.56-1.05-.26-2.13-.39-3.23-.39-6.34,0-11.87,4.5-13.13,10.65-1.08,4.49-4.29,8.24-8.58,10.03-.08.03-.17.06-.25.09l-.27.09c-.72.27-1.23.92-1.3,1.69l-1.06,12.14c-.54.31-1.07.63-1.6.93-1.15.67-2.24,1.31-3.18,1.85l2.79-2.63c.72-.68.84-1.79.27-2.6l-5.22-7.49c-.49-.74-.74-1.55-.74-2.49,0-.78-.46-1.49-1.17-1.82-.54-.25-1.06-.53-1.57-.84-.02,0-.03-.02-.05-.03-.51-.32-1-.67-1.47-1.05-.17-.13-.33-.28-.49-.42-.08-.07-.16-.14-.24-.21-.12-.11-.24-.23-.35-.34-.16-.16-.32-.33-.48-.5-.11-.12-.22-.24-.32-.36-.14-.16-.27-.33-.4-.5-.11-.14-.21-.27-.31-.41-.13-.18-.25-.37-.38-.55-.09-.13-.18-.26-.26-.39-.19-.31-.38-.63-.54-.96,0,0,0-.01-.01-.02-.03-.05-.06-.11-.09-.16-1.02-2.04-1.54-4.23-1.54-6.52,0-3.27,1.05-6.35,3.05-8.92,1.11-1.44,2.45-2.64,4-3.57l6.34-3.89c.36-.19.7-.4,1.03-.63,2.62-1.83,4.19-4.83,4.19-8.03,0-.82-.11-1.62-.31-2.4,1.08-.13,2.09-.49,2.94-1.02.53-.33,1.01-.71,1.44-1.13.48,1.45.74,2.98.74,4.55,0,3.3-1,6.36-2.9,8.85l-10.99,11.09c-1.36,1.36-2.11,3.17-2.11,5.09,0,.31.02.58.06.84.27,2.37,1.7,4.45,3.85,5.57,1.01.52,2.14.79,3.28.79,3.36,0,6.31-2.38,7.01-5.59,0-.03.03-.12.04-.15.99-4.29,3.29-8.09,6.65-10.99,3.78-3.27,8.62-5.08,13.63-5.08s9.87,1.81,13.66,5.11c3.23,2.8,5.48,6.45,6.53,10.56.07.79.23,1.56.48,2.3,0,0,0,.02,0,.02,0,0,0,0,0,.01.55,1.6,1.49,3.05,2.7,4.18,1.9,1.81,4.41,2.8,7.06,2.8,5.68,0,10.3-4.62,10.3-10.3,0-2.92-.35-5.56-.87-7.86,1.19,2.16,2.06,4.79,2.06,7.86,0,7.92-6.69,14.61-14.61,14.61Z"/>
  <polygon points="42.26 47.07 46.01 46.47 42.47 45.08 42.26 47.07"/>
  <polygon points="25.69 48.13 29.39 48.03 25.8 47.14 25.69 48.13"/>
</svg>