<?xml version="1.0" encoding="UTF-8"?>
<svg id="Graphics" xmlns="http://www.w3.org/2000/svg" viewBox="0 0 150 150">
  <path d="m126.97,72.7c-1.95-2.79-4.61-5.01-7.76-6.46-2.4-1.01-3.95-3.35-3.95-5.96,0-3.52,2.84-6.39,6.35-6.45l-.48,1.89,6.35-2.52-4.38-5.24-.49,1.94s-.04-.01-.06-.02c-.96-.22-1.98-.33-3.01-.33-6.61,0-12.15,4.65-13.54,10.85.08-.75-.27-1.5-.94-1.91-2.64-1.61-5.7-2.32-8.86-2.05-.25.02-.5.05-.75.09.17-.48.36-.96.57-1.43,2.04-4.51,6.12-7.9,10.91-9.07.87-.21,1.49-.98,1.53-1.87.03-.9-.54-1.7-1.39-1.98-2.59-.83-5.27-1.13-7.96-.88-2.78.25-5.44,1.05-7.85,2.37.47-2.35,1.95-4.44,4.11-5.65.95-.53,1.3-1.73.79-2.69-.51-.96-1.7-1.33-2.67-.84-16.48,8.38-28.31,24.22-31.65,42.39-.2,1.07.5,2.11,1.58,2.32,1.07.22,2.12-.47,2.35-1.54.43-1.97,2.13-3.48,4.15-3.65,1.24-.11,2.45.27,3.4,1.07.96.8,1.54,1.92,1.65,3.17,0,.1,0,.21,0,.31-1.2.07-2.4.17-3.56.33-3.12.43-6.27,1.2-9.38,2.29h0c-.15.05-.29.12-.42.21-.29.13-.54.22-.77.27-.05,0-.09.02-.14.04-.22.06-.51.1-.83.1-2.14,0-3.88-1.74-3.88-3.89,0-.55.11-1.08.31-1.52.02-.03.03-.07.05-.1.09-.22.23-.45.4-.69.04-.05.08-.11.11-.17l5.23-9.09s.07-.13.09-.18c1.29-2.7,1.94-5.59,1.94-8.59,0-3.97-1.24-9.67-6.73-15.35,1.89-.8,3.85-2,4.94-4.57.37-.88.07-1.9-.72-2.44-.79-.53-1.86-.43-2.53.24-1.04,1.04-2.06.9-4.5.26-2.12-.55-4.9-1.26-7.57.4-.42-.29-.87-.54-1.32-.77.82-.52,1.62-1.08,2.39-1.68,1.52-1.19,2.93-2.55,3.98-4.18,1.07-1.61,1.64-3.56,1.48-5.41-.18,1.86-1.05,3.52-2.27,4.8-1.22,1.29-2.71,2.29-4.28,3.12-.7.36-1.41.69-2.14.99.45-.53.88-1.07,1.29-1.63,1.18-1.68,2.14-3.51,2.78-5.43.64-1.93.8-3.96.71-5.92-.24,1.96-.74,3.84-1.63,5.53-.91,1.68-2.06,3.19-3.39,4.53-1.35,1.31-2.84,2.47-4.42,3.48-.65.41-1.34.81-2.03,1.18-.34.1-.68.2-1.01.33-.71.29-1.4.66-2.03,1.11-.05.03-.09.06-.14.09h0c-1.29.93-2.36,2.15-3.13,3.58-.55,1.07-1.23,2.06-2.02,2.97-2.23,2.54-5.29,4.25-8.63,4.81-.96.16-1.67,1-1.67,1.97v.22c0,2.28.9,4.43,2.53,6.07,1.17,1.16,2.65,1.95,4.2,2.28.11.15.22.3.34.45.45.55.93,1.06,1.5,1.49.56.43,1.2.78,1.86.96.68.17,1.35.14,1.94,0-.59-.19-1.09-.49-1.45-.87-.36-.4-.61-.86-.79-1.34-.06-.16-.1-.34-.15-.51.37.2.75.38,1.16.51.5.15,1.02.2,1.51.15.49-.05.92-.25,1.26-.48-.42-.1-.77-.26-1.03-.5-.2-.18-.34-.39-.46-.6.09-.05.19-.08.28-.13,2.22-1.31,4.79-2,7.43-2h.7c.06.01.13.02.22.02.18.01.36.02.54.02,2.76,0,5.38-1.07,7.38-3.02.12-.12.21-.25.33-.38,2.85,1.37,3.29,3.5,3.29,5.63,0,1.39-.35,2.71-1.08,4l-9.11,17.6c-.92,1.34-1.66,2.8-2.21,4.33-.73,2-1.09,4.14-1.09,6.35,0,3,.72,5.97,2.07,8.6,1.05,2.03,2.5,3.87,4.17,5.37l.3,1.13c.54,2.05-.31,4.18-2.11,5.31l-4.01,2.5-1.57-1.92-.31-.38c-.12-.14-.32-.2-.5-.13l-2.33.9,1.57.6.24,1.12-2.65-.44-.34-.06c-.15-.02-.3.03-.41.15l-2.04,2.42,2.4-.9,1.14.73-.81.29-.33.12s-.02,0-.03.02l-1.9,2.28,2.41-.99,4.31.63h.02s0,0,0,0c.22.09.46.14.71.14h4.32c.13,0,.26-.02.39-.04l4.36.35.88.76-.27-1.48s-.02-.04-.03-.05l-.23-.17-1.3-.96,3.06-1.45.02.07c.75,2.87-.44,5.86-2.96,7.44l-5.2,3.25-.92-1.81-.21-.41c-.12-.24-.4-.36-.67-.28l-2.99.9,2.11.63v.84s-2.49-1.05-2.49-1.05l-.31-.13c-.12-.05-.25-.04-.37.02l-2.98,1.72,2.89-.16,1.22,1.26-2.79.51-.26.05c-.06.01-.12.04-.16.09l-2.58,2.75,3.08-1.47,5.96,1.21c.21.08.43.13.66.13h.04s0,0,0,0c0,0,.01,0,.02,0h5.54c.25,0,.49-.06.72-.15l3.8-.31-.23-.12,1.49.7-.8-1.43-.23-.12-.56-.32,6.55-3.1c.44-.21.79-.57.98-1.02l5.72-13.37c1.71.18,3.36.26,5.01.26,3.09,0,6.15-.3,9.14-.88-.11.08-.21.16-.33.23l-4.43,2.76-1.99-1.32-.42-.28c-.07-.05-.17-.06-.25-.03l-2.33.9,1.68.65.09.18-1.73-.14-.36-.03s-.07,0-.11.03l-2.27,1.51,2.73.02h-.46s.83.47.83.47l-1.03.38-.29.11s-.02,0-.03.02l-1.93,2.25,2.43-1.03,4.8.53s.05.01.07.02h0s0,0,0,0c.19.06.38.1.59.1h4.32c.3,0,.59-.07.85-.19h.03s3.16-.36,3.16-.36l-.23-.12,1.34.55-.66-1.29-.23-.12-.25-.16,4.53-2.15s0,0,0,0c.63,2.77-.57,5.71-2.99,7.22l-5.78,3.61-2.84-2.5-.3-.26c-.11-.1-.27-.14-.42-.09l-2.99.9,2.35.71.46.94-2.09-.45-.3-.07c-.08-.02-.16,0-.23.04l-2.98,1.72,2.98-.16.77.5-1.33.2-.26.04c-.07.01-.13.04-.18.1l-2.57,2.75,3.07-1.45,5.9,1.38h.02s0,0,0,0h.02c.18.08.36.12.56.14l.11.02h0s.05,0,.08,0h5.54c.29,0,.59-.07.85-.19l.06-.03,4.22-.76,1.21.6-.83-1.4s-.01-.02-.02-.02l-.24-.1-.42-.17,5.9-2.79c.44-.21.79-.57.98-1.02l7.1-16.57c.06-.14.1-.28.13-.43.27-1.47.17-2.9-.27-4.27,1.55-.01,3.09.19,4.59.65,1.67.46,3.4.69,5.15.69,10.61,0,19.25-8.63,19.25-19.24,0-3.97-1.21-7.79-3.49-11.05Zm-24.87-10.53c.61-.05,1.16-.05,1.67.01.93.12,1.83-.43,2.14-1.32-.16.84-.25,1.7-.25,2.59,0,1.31.18,2.61.54,3.87,1.15,3.95,3.96,7.16,7.61,8.78.13.06.25.12.38.17l.15.06c1.15.5,2.11,1.3,2.83,2.29-.41.13-.82.23-1.23.27-.49.04-1.02,0-1.44-.37.13.57.65,1.04,1.18,1.34.54.31,1.13.53,1.72.7.28.08.57.15.86.21.19.6.29,1.24.31,1.89,0,0,0,0-.01,0-.51,0-1.01-.03-1.5-.14-.48-.12-.97-.31-1.26-.8-.06.58.3,1.19.71,1.64.42.46.91.85,1.42,1.2.14.09.29.16.43.25-.28,1.12-.81,2.13-1.53,2.96-.33-.37-.62-.75-.85-1.18-.23-.44-.41-.93-.23-1.47-.47.34-.7,1.01-.76,1.62-.07.62-.04,1.25.04,1.86.03.21.07.41.1.62-.9.54-1.93.88-3.03.95-.06-.24-.13-.48-.17-.73-.08-.5-.12-1-.09-1.5.04-.49.16-1,.61-1.36-.58.03-1.13.47-1.52.95-.4.48-.71,1.03-.97,1.58-.11.25-.2.5-.3.75-.81-.26-1.56-.66-2.24-1.2.12-.3.24-.61.38-.9.23-.45.49-.88.82-1.26.32-.37.72-.71,1.3-.74-.49-.32-1.19-.29-1.78-.13-.61.15-1.18.41-1.72.7-.4.22-.78.47-1.15.72-.55-.39-1.11-.76-1.68-1.13.13-.3.24-.6.39-.89.24-.45.5-.88.83-1.25.33-.37.73-.71,1.3-.73-.48-.32-1.19-.3-1.78-.15-.61.15-1.18.4-1.73.68-.5.27-.98.57-1.45.89-.63-.35-1.27-.68-1.91-1,.15-.36.3-.73.49-1.08.27-.5.57-.97.95-1.39.38-.4.84-.77,1.47-.82-.57-.3-1.32-.24-1.96-.05-.66.19-1.29.49-1.87.84-.58.35-1.13.73-1.67,1.15-.04.04-.09.07-.13.11-.6-.25-1.2-.49-1.81-.72-.09-.04-.19-.07-.28-.1.16-.51.34-1.02.55-1.51.26-.59.56-1.14.95-1.64.39-.49.87-.94,1.58-1.03-.67-.26-1.49-.08-2.17.22-.69.31-1.33.73-1.92,1.19-.58.47-1.13.97-1.65,1.5-.09.1-.18.19-.27.29-.7-.21-1.41-.4-2.12-.57.01-.27.04-.55.08-.83.03-.22.07-.43.14-.71.17-.73.48-1.45.9-2.15.67-1.07,1.59-1.97,2.66-2.6.66-.39,1.04-1.12.98-1.89-.13-1.54.15-3.1.81-4.5,1.35-2.81,4.09-4.72,7.17-4.99Zm-32.53,7.87c-.68.06-1.34.2-1.96.4,3.58-10.91,10.51-20.54,19.71-27.4-.21,1.1-.27,2.24-.16,3.4.04.47.11.93.2,1.38.14.69.63,1.25,1.29,1.48.66.23,1.4.1,1.94-.34,2.43-2,5.33-3.24,8.44-3.61-2.85,2.04-5.14,4.81-6.64,8.11-.81,1.79-1.36,3.67-1.62,5.61-.1.71.19,1.41.76,1.85.57.44,1.32.54,1.98.27.59-.24,1.2-.43,1.82-.56-1.68,1.23-3.07,2.88-4.01,4.82-.79,1.67-1.2,3.5-1.23,5.33-1.19.88-2.21,1.99-3.01,3.26-.66,1.07-1.13,2.2-1.38,3.28-.1.36-.17.73-.22,1.07-.04.22-.06.43-.09.65,0,0-.02,0-.03,0-.93-.15-1.88-.26-2.82-.35-.33-.03-.65-.05-.98-.08-.66-.05-1.32-.09-1.98-.11-.2,0-.4-.03-.6-.03,0-.19-.02-.38-.03-.57-.2-2.31-1.3-4.4-3.07-5.88-1.77-1.48-4.02-2.19-6.32-1.98Zm-16.28-30.53c-.42.17-.85.34-1.28.55-.43.2-.82.42-1.19.65-.04-.1-.1-.2-.14-.3-.04-.08-.07-.15-.11-.23-.17-.35-.36-.7-.57-1.03.89-.2,1.91,0,3.29.36Zm-7.59,9.95c-1.24,1.21-2.87,1.87-4.59,1.87-.07,0-.14,0-.15,0-.08,0-.17-.02-.29-.02-.07,0-.15-.01-.22-.01h-.8c-3.35-.01-6.62.87-9.39,2.51-.67.36-1.42.55-2.18.55-.15,0-.3,0-.5-.03-.16-.02-.31-.06-.46-.09l3.93-2.87-.43-.9-6.37,1.75c-.21-.33-.38-.69-.49-1.06,3.51-.97,6.69-2.96,9.1-5.7,1.01-1.15,1.88-2.42,2.56-3.75.45-.83,1.08-1.56,1.84-2.13.04-.03.08-.05.12-.08.18-.12.36-.24.54-.34h0c.61-.22,1.19-.45,1.76-.69.25-.06.49-.11.74-.13.23-.02.48-.04.72-.04,1.69,0,3.3.64,4.54,1.83.34.31.64.67.89,1.05.17.27.33.54.46.82.07.15.12.31.18.46.05.14.12.27.16.41.05.17.08.34.12.51.03.13.07.26.09.39.03.16.03.32.05.48.01.15.04.29.04.44v.12c0,.26-.02.52-.04.73-.09.78-.33,1.55-.69,2.26-.32.61-.73,1.17-1.22,1.65Zm3.08,60.94l-.75.35c.21-.34.4-.7.55-1.07l.18.67v.05Zm35.03-.16l-1.09.52c.41-.68.73-1.41.95-2.18.33-.11.66-.22.99-.34l-.86,2Zm27.42-11.25c-1.39,0-2.77-.18-4.05-.53-2.96-.89-6.3-1.03-9.23-.45-.68.14-1.24.62-1.48,1.27-.24.65-.13,1.38.3,1.93.3.38.53.76.71,1.15.39.86.51,1.71.38,2.64l-6.71,15.66-3.68,1.74c2.53-2.65,3.56-6.44,2.58-10.12l-1.23-4.64s0-.01,0-.02l-.7-2.63c-.04-.14-.09-.27-.16-.4-.19-.38-.5-.69-.89-.88-.52-.26-1.12-.28-1.65-.06-.82.34-1.67.65-2.54.94-.5.17-1,.34-1.51.5,0,0-.01,0-.02.01-4,1.19-8.18,1.79-12.42,1.79-1.95,0-3.91-.13-6-.4-.9-.12-1.75.37-2.1,1.2l-6.01,14.05-3.69,1.75c2.53-2.65,3.56-6.45,2.59-10.13l-1.09-4.11-.44-1.68s0-.04-.01-.06l-.17-.63-.27-1c-.02-.16-.03-.33-.03-.5,0-.14,0-.29.02-.42.12-.85-.32-1.68-1.09-2.07,0,0,0,0,0,0,0,0,0,0,0,0-.01,0-.02-.02-.03-.02-.19-.09-.38-.18-.57-.26-.02-.01-.04-.02-.07-.03-.02,0-.03-.02-.05-.02-.19-.09-.38-.17-.57-.27-.04-.02-.07-.05-.11-.07-.45-.3-.89-.62-1.3-.97,0,0,0,0,0,0,0,0,0,0-.01-.01-1.5-1.26-2.77-2.85-3.68-4.61-1.06-2.06-1.62-4.4-1.62-6.77,0-1.74.29-3.42.86-4.99.45-1.25,1.06-2.43,1.81-3.52.05-.07.09-.14.13-.22l9.13-17.65c1.02-1.8,1.57-3.84,1.57-5.91,0-4.21-1.74-7.23-5.16-9.03.31-.82.53-1.68.63-2.58.02-.21.02-.43.03-.65.43-.58.98-1.04,1.75-1.45,5.56,5.13,6.77,10.24,6.77,13.7,0,2.39-.52,4.69-1.53,6.84l-5.15,8.94c-.31.44-.57.9-.76,1.34-.46,1.01-.69,2.09-.69,3.22,0,4.35,3.53,7.89,7.88,7.89.66,0,1.29-.08,1.85-.23.58-.13,1.15-.33,1.8-.65.02-.01.05-.02.07-.04,2.78-.96,5.59-1.63,8.36-2.02,1.57-.21,3.2-.34,4.89-.38.35-.02.7-.02,1.05-.02,2.68,0,5.38.26,8.03.74.36.07.72.12,1.08.2.01,0,.02,0,.03,0,2.12.43,4.21,1.04,6.24,1.81,4.04,1.5,7.79,3.59,11.16,6.19.04.04.08.07.12.1,1.98,1.73,4.49,2.68,7.09,2.68,6.02,0,10.93-5.03,10.93-11.2,0-4.52-2.62-8.57-6.62-10.3l-.45-.2c-2.66-1.18-4.66-3.47-5.47-6.27-.26-.9-.39-1.83-.39-2.77,0-2.23.74-4.28,1.98-5.94-.24.88-.37,1.8-.37,2.76,0,4.22,2.51,8.01,6.33,9.62,2.45,1.13,4.55,2.89,6.09,5.1,1.81,2.58,2.77,5.61,2.77,8.75,0,8.4-6.84,15.24-15.25,15.24Z"/>
  <polygon points="37.39 43.17 39.81 40.75 36.45 41.41 37.39 43.17"/>
</svg>