<?xml version="1.0" encoding="UTF-8"?>
<svg id="Livello_3" data-name="Livello 3" xmlns="http://www.w3.org/2000/svg" viewBox="0 0 120 120">
  <path d="m89.41,74.4c-.95.17-1.72.89-1.95,1.82s.1,1.93.85,2.53l4.85,3.87c.44.35.98.54,1.54.54.15,0,.31-.01.46-.04.71-.13,1.32-.57,1.68-1.19l3.06-5.3c.48-.83.43-1.87-.12-2.65s-1.51-1.18-2.45-1.01l-2.6.47-14.16-46.18.96-3.44c-.8-.22-1.49-.31-2.11-.32l-4.17-13.6-3.82,1.17,4.29,13.97c-1.25,1.42-1.4,3.39-1.36,4.5l-6.41,9.62-10.75-3.73c-2.08-2.18-4.81-2.85-8.12-2-.01-.02-.03-.04-.04-.06-.08-.16-.17-.4-.26-.72.78-.6,1.37-1.35,1.87-2.38l1.94-6.08h0s.25-.77.25-.77c.39-1.34.5-2.36.34-3.22-.02-.12-.04-.26-.07-.42-.13-.83-.35-2.13-.96-3.39,1.11-.96,2.47-2.48,3.34-4.68l-3.72-1.48c-.63,1.58-1.6,2.6-2.33,3.21-1.43-.95-3.11-1.56-4.95-1.76-.31-.04-.64-.04-1-.02h-.15c-2.09.17-4.02.86-5.6,1.97-.89-.63-2.14-1.75-2.8-3.4l-3.72,1.48c.94,2.37,2.6,3.99,3.92,4.98-.51,1.16-.69,2.32-.81,3.09-.02.16-.05.3-.07.42-.26,1.36.2,2.87.75,4.49.15.45.28.9.39,1.3.14.51.27.96.38,1.24l.94,2.81.14.32c.07.13.61,1.1,1.59,1.96-.07.34-.15.58-.22.73-1.56-.45-4.77-1.08-7.25.45-1.02.63-2.27,1.85-2.73,4.15l-7.02,5.33-3.65-7.97-.47-1-1.09-.15c-.44-.06-2.64-.47-2.64-2.54h-4c0,3.81,2.81,5.63,4.97,6.27l3.61,7.88h0l1.46,3.18.69,1.51c.05.98.56,1.88,1.41,2.42,1.03.65,2.33.61,3.31-.1l8.69-6.32.05,8.95,1.25,5.16c-2.3-.82-5.14-1.36-6.64.03-.52.48-1.58,1.85-.25,4.28,1.21,2.2,2.55,3.65,3.43,4.46-.19,2.64-.54,9.65.46,15.33-.52.9-.93,2.13-.81,3.45.09,1,.46,1.92,1.1,2.7-.4,2.81.06,5.76.43,8.18.19,1.2.46,2.94.38,3.72-6.53.87-7.48,1.43-9.22,2.9l-.09.07c-1.69,1.42-1.38,2.87-1.16,3.43,1,2.62,5.86,2.67,6.04,2.67h0l6.59-.05c1.38-.02,2.13,0,2.74.03,1.06.04,1.64.05,3.27-.18,1.3-.18,2.32-1.17,2.66-2.59.4-1.62-.06-3.98-1.87-5.78.07-.88.04-1.49,0-2.16-.03-.59-.07-1.26-.04-2.33.09-3.07-.04-6.18-.38-9.23.12-.35.22-.7.3-1.05.23-1.03.31-2.08.22-3.12,1.75-3.42,2.08-7.14,1.96-10.08.2.02.39.02.59.01.27-.01.53-.04.78-.09-.12,2.87.19,6.69,1.95,10.16-.08,1.04,0,2.09.22,3.12.08.35.18.69.3,1.05-.34,3.06-.46,6.17-.38,9.23.03,1.07,0,1.74-.04,2.33-.04.68-.07,1.28,0,2.16-1.8,1.8-2.26,4.16-1.87,5.78.35,1.42,1.37,2.41,2.66,2.59,1.63.23,2.21.22,3.27.18.6-.02,1.36-.05,2.75-.03l6.53.05c.05,0,5.07,0,6.08-2.67.21-.56.52-2.01-1.16-3.43l-.09-.07c-1.73-1.46-2.68-2.03-9.21-2.9-.08-.77.19-2.51.38-3.72.38-2.42.84-5.36.43-8.18.64-.78,1.01-1.7,1.1-2.7.12-1.32-.29-2.55-.81-3.45,1.03-5.87.63-13.15.45-15.57.79-1.02,2.29-3.05,3.17-4.95l.1-.21.05-.22c.43-1.99-.47-3.07-1.05-3.53-1.16-.93-3.03-1.04-5.59-.31l1.03-4.49-.99-9.36c.11-.05.22-.1.33-.16l9.56,2.07c1.28.27,2.56-.21,3.34-1.23h.01s9.84-14.76,9.84-14.76l13.03,42.49-1.34.24Zm5.36,3.1l-.51.89-.81-.65,1.33-.24Zm-29.58-34.24l-.27.4-10.42-2.26-.6.27c-1.2.55-2.03.93-2.53,1.27l-1,.67,1.19,11.25-1.67,7.29c-.18.79.09,1.59.72,2.1l1.04.79,1.13-.51c1.66-.75,3.19-1.21,4.16-1.37-1.07,1.86-2.61,3.73-2.63,3.75l-.53.64.08.82c0,.09.86,9.57-.48,16.06l-.2.99.67.75c.15.17.49.78.44,1.32-.02.2-.09.48-.51.81l-1.01.79.29,1.24c.56,2.38.12,5.24-.28,7.77-.46,2.97-.83,5.31.38,6.93.56.74,1.37,1.2,2.35,1.33,3.36.44,4.97.74,5.92,1.08-.25.03-.48.06-.64.06l-6.55-.05c-1.49-.02-2.33,0-2.95.03-.7.03-1.07.04-1.92-.06.04-.5.32-1.36,1.27-2.04l1-.71-.18-1.21c-.17-1.16-.14-1.66-.1-2.49.03-.63.08-1.42.04-2.66-.09-3.04.05-6.11.41-9.14l.06-.51-.19-.47c-.13-.32-.23-.62-.29-.92-.12-.54-.23-1.38-.09-2.36l.1-.68-.34-.6c-2.38-4.2-1.81-9.45-1.45-11.51.17-.98-.31-1.93-1.2-2.38-.89-.44-1.95-.25-2.63.48-.43.46-.92.7-1.46.73-.21.02-.51-.17-.77-.46-.65-.76-1.74-1-2.65-.58-.91.43-1.42,1.38-1.25,2.38.33,2.03.86,7.21-1.48,11.34l-.34.6.1.68c.14.98.03,1.82-.09,2.36-.06.29-.16.59-.29.92l-.19.47.06.51c.35,3.02.49,6.1.41,9.14-.03,1.23,0,2.02.04,2.66.04.83.07,1.33-.1,2.49l-.18,1.21,1,.71c.95.67,1.23,1.54,1.27,2.04-.85.1-1.22.08-1.92.06-.62-.02-1.47-.06-2.93-.03l-6.55.05c-.16,0-.39-.03-.65-.06.95-.34,2.57-.65,5.92-1.08.98-.13,1.79-.59,2.35-1.33,1.21-1.62.85-3.96.38-6.93-.4-2.53-.84-5.39-.28-7.77l.29-1.24-1.01-.79c-.42-.33-.49-.6-.51-.81-.05-.54.29-1.15.44-1.32l.67-.75-.2-.99c-1.34-6.49-.49-15.97-.48-16.06l.09-1.15-.93-.67s-1.3-.95-2.58-2.93c1.34.31,3.15,1,4.11,1.63.77.51,1.77.49,2.53-.04.77-.54,1.13-1.49.9-2.42l-1.98-8.14-.06-11.42-4.4-1.68-9.42,6.85-.16-.36-.59-1.29,9.07-6.89.09-.87c.15-1.53.77-1.92.97-2.04,1.3-.8,3.82-.13,4.6.16l.24.09.26.03c.31.04,1.39.08,2.47-.81,1.11-.92,1.75-2.47,1.91-4.61.07-.9-.37-1.76-1.15-2.24-.43-.27-.79-.73-.95-.98l-.89-2.67c-.1-.26-.19-.6-.3-.98-.13-.47-.28-.99-.48-1.57-.18-.53-.66-1.92-.58-2.39.03-.16.06-.34.09-.54.14-.89.35-2.23,1.04-2.91,1.06-1.05,2.6-1.7,4.39-1.84.11,0,.22,0,.33,0,2.05.22,3.34,1.12,4.07,1.83.68.67.9,2.02,1.04,2.9.03.21.06.39.09.54,0,.03.04.36-.23,1.3l-.39,1.19h0s-1.64,5.2-1.64,5.2c-.32.61-.57.8-.85.97-1.1.68-1.67,2-1.41,3.29.16.79.39,1.52.68,2.15.84,1.81,2.74,2.77,4.51,2.29,2.62-.72,3.76.1,4.6,1.1l.35.42,10.77,3.74-.43.64Z"/>
  <path d="m110.61,91.66c-.25-2.61-1.46-4.75-3.59-6.37-3.48-2.64-7.74-2.35-11.58.73-4.71-1.44-8.78-.13-11.03,3.62-1.37,2.29-1.7,4.73-.97,7.24,1.98,6.81,11.35,12.11,15.24,14.06l.42.21.29.02c.1.02.2.03.28.03h.31s.23-.02.23-.02c.32-.05.56-.16.76-.27.03-.01.07-.04.14-.08l.26-.13.27-.3c2.92-3.28,9.65-11.68,8.96-18.74Zm-11.16,15.17c-5.29-2.8-10.98-7.02-12.16-11.07-.41-1.42-.23-2.75.55-4.07,1.01-1.69,2.49-2.25,4.01-2.25,1.13,0,2.29.31,3.29.71l1.18.46.92-.87c1.84-1.73,4.61-3.36,7.35-1.28,1.22.93,1.88,2.09,2.02,3.57.41,4.2-3.3,10.22-7.18,14.79Z"/>
  <path d="m42.79,62.38l-1.96,3.48c1.37.77,2.78,1.01,4,1.01,1.92,0,3.37-.59,3.47-.63l-1.53-3.7s-2.18.85-3.99-.17Z"/>
  <path d="m12.13,28.89c.23,1.03,1.05,2.91,3.91,3.95.64.23,1.28.35,1.9.35,1.14,0,2.23-.38,3.14-1.12,1.55-1.27,2.31-3.4,1.98-5.57-.23-1.57,1.28-3.51,3.37-4.33.94-.37,1.57-1.26,1.59-2.28.02-1.02-.57-1.94-1.5-2.35-3.33-1.46-7.36-2.69-9.46-3.29-.94-.27-1.96.04-2.59.78-.63.74-.78,1.79-.37,2.68,1.7,3.68.35,5.19-.12,5.7-1.6,1.64-2.27,3.64-1.85,5.48Zm4.73-2.7l.03-.04c1.34-1.44,2.57-3.77,1.84-7.22,1.07.34,2.26.74,3.45,1.18-2.2,1.84-3.44,4.49-3.07,6.98.12.77-.1,1.51-.56,1.88-.3.25-.68.29-1.15.12-.46-.17-1.25-.53-1.38-1.08-.11-.48.22-1.19.83-1.81Z"/>
</svg>