<?xml version="1.0" encoding="UTF-8"?>
<svg id="Livello_3" data-name="Livello 3" xmlns="http://www.w3.org/2000/svg" viewBox="0 0 120 120">
  <path d="m79.25,98.95c.33-1.55,1.07-4.26,1.6-6.21.85-3.13,1.35-5.02,1.56-6.17,1.01-1,1.25-2.04,1.25-2.79,0-1.36-.75-2.39-1.34-2.98l-3.05-11.93c.26-.3.48-.64.63-1.04l.2-.54-.12-.56c-1.11-5.36-2.58-9.21-4.92-12.86l-.59-.92h-17.57l-.58,1.01c-.18.31-4.34,7.69-4.53,14.02l-.05,1.58,1.29.34-2.66,10.44c-.61.68-1.5,1.97-1.42,3.57.04.73.29,1.72,1.2,2.66.21,1.15.71,3.04,1.56,6.18.53,1.95,1.26,4.66,1.6,6.21-1.44.88-3.54,2.75-6.58,6.59-.94,1.19-.87,2.76.17,3.83.7.71,1.77,1.12,3.15,1.12,2.16,0,5.08-1.03,8.47-3.6.59-.22,1.38-.25,2.08-.28.97-.04,1.88-.08,2.67-.58.92-.58,1.43-1.68,1.36-2.96-.06-1.21-.67-2.76-2.17-3.87-.93-5.22-2.5-12.79-2.91-14.75.32-1.17,1.19-4.41,2.06-7.64.93-3.48,1.52-5.67,1.83-7.09.5-.17.92-.34,1.22-.47l2.49.13c.57.16,1.26.33,2.01.49.32,1.42.89,3.56,1.79,6.93.86,3.24,1.74,6.47,2.06,7.64-.41,1.95-1.98,9.52-2.91,14.75-1.49,1.11-2.11,2.66-2.17,3.87-.06,1.28.45,2.38,1.36,2.96.79.5,1.7.54,2.67.58.7.03,1.49.06,2.08.28,3.39,2.57,6.31,3.6,8.47,3.6,1.38,0,2.45-.42,3.15-1.12,1.05-1.06,1.12-2.63.17-3.83-3.04-3.84-5.14-5.72-6.58-6.59Zm-19.5,3.28c.24.12.42.26.55.39-1.02.04-2.38.12-3.66.73l-.37.22c-2.15,1.66-3.81,2.41-4.95,2.73,1.36-1.52,3.01-3.2,3.9-3.88l.47.21,1-.82c1.28-1.06,1.09-1.99-1.12-10.12-.63-2.34-1.5-5.54-1.54-6.22l-.03-.98-.79-.57c-.18-.13-.26-.23-.26-.21,0-.17.3-.62.56-.86l.46-.41,3.03-11.87c.36.02.71.03,1.05.03.38,0,.74-.01,1.1-.04-.89,3.42-2.47,9.28-3.57,13.32l-.13.46.1.47c.02.1,2.12,10.08,3.14,15.96l.17,1,.91.45Zm8.26-36.74l-.06-.02-.05-5.65-4,.04.05,5.37h-.17s-.5.26-.5.26c-.14.07-3.03,1.61-7.34.95.55-3.7,2.4-7.68,3.32-9.5h12.99c1.59,2.7,2.7,5.64,3.57,9.48-1.35.3-4.8-.09-7.81-.94Zm8.27,38.09l-.37-.22c-1.28-.6-2.64-.68-3.66-.73.13-.14.31-.27.55-.39l.91-.45.17-1c1.02-5.88,3.12-15.86,3.14-15.96l.1-.47-.13-.46c-1.1-4.07-2.69-9.98-3.58-13.38.73.04,1.45.03,2.13-.04l3.04,11.92.2.69.54.42c.08.06.18.17.25.25-.05.05-.12.11-.23.19l-.77.6-.06.94c-.04.68-.91,3.88-1.54,6.22-2.21,8.14-2.41,9.07-1.12,10.12l1.09.82.4-.2c.9.68,2.53,2.35,3.88,3.86-1.14-.32-2.8-1.07-4.95-2.73Z"/>
  <path d="m97.07,56.84h0s0,0,0,0l-.15-.09c-.25-1.12-.6-2.21-1.06-3.26-.38-.86-.82-1.69-1.33-2.48l1.08-2.9-4.18-1.67c-1.35-2.52-2.79-5.03-4.3-7.45-.79-1.28-1.62-2.56-2.46-3.83l-.15-.23-.21-.18c-2.18-1.86-4.22-2.79-7.37-4.15l-.34-.11s-3.06-.6-4.14.92c-2.06,2.88-5.53,4.14-6.61,4.48-.98-.19-4.13-1.13-6.95-5.31-1.08-1.6-4.81-1.15-5.54-.72-.07.04-6.6,3.92-9.67,9.21-.65,1.12-1.75,1.85-2.96,1.97-.1,0-.19.02-.29.03-.18-.27-.4-.52-.67-.73-.71-.54-1.62-.71-2.48-.47l-2.45.69-.98-5.17,5.76-4.3-2.4-3.2-4.19,3.13-.4-2.11,5.74-4.29-2.4-3.2-4.17,3.12-.47-2.49,4.77-3.63-2.42-3.18-3.18,2.42-1.4-7.42-1.35,7.4-3.16-2.4-2.42,3.18,4.78,3.63-.46,2.5-4.15-3.1-2.4,3.2,5.75,4.3-.37,2.02-4.13-3.09-2.4,3.2,5.72,4.28-1.12,6.16c-.99-.09-1.75.03-2.3.21-1.1.36-1.85,1.33-1.93,2.49-.19,2.9.62,5.01,2.26,5.94,5.6,3.31,10,1.54,11.78.5l3.88,1.39c.87.31,1.84.18,2.59-.35.29-.2.53-.45.72-.73h6.21l.22-.05c.67-.15,5.35-1.3,8.54-4.07.66,3,1.09,4.19,1.15,4.35l.49,1.29,17.55.02.54-1.16c.09-.2.81-1.83,1.59-5.95l4.06,6.72,3.51,5.03,2.8,3.82c-.1,1.2-.11,3.35.79,5.14.51,1.02,1.37,1.65,2.4,1.78,1.17.15,2.26-.4,3.06-1,1.36.7,3.55,1.6,5.75,1.6.12,0,.25,0,.37,0,1.46-.07,2.61-1.3,2.56-2.74-.21-5.91-4.66-8.73-4.93-8.9ZM29.17,32.15l1.79,9.47-3.69.97,1.9-10.43Zm29.41,10.39c-.18-.98-.98-1.72-1.98-1.84-1.05-.12-2.07.45-2.5,1.4-1.18,2.65-6.06,4.38-7.96,4.86h-9.27v.76l-2.85-1.02c-.85-.31-1.81-.18-2.57.33-1.04.71-3.9,2.1-7.99-.32-.1-.1-.26-.51-.31-1.22.55.07,1.39.29,2.58.89.62.31,1.33.38,1.99.21l4.58-1.2,4.56-1.28v1h1.99c.62,0,1.38-.03,2.25-.12,2.49-.25,4.75-1.72,6.03-3.95,1.98-3.42,6.25-6.54,7.96-7.6.25-.02.62-.02.93,0,2.83,3.87,5.99,5.42,7.94,6.04v3.7c-1.89.1-3.69.3-5.17.55-.07-.38-.15-.78-.23-1.2Zm13.28,5.96h-11.98c-.06-.26-.14-.54-.22-.86,3.52-.61,9.05-.75,12.48-.17-.1.4-.2.74-.28,1.03Zm22.29,14.26l-1.45-.96-1.15,1.3c-.1.12-.25.26-.4.39-.22-1.05-.11-2.28-.04-2.72l.15-.84-2.58-3.51-1.03-1.46,1.43-1.91-3.21-2.39-.65.87-1.08-1.53-4.6-7.62c-.09-.18-.31-.63-.58-1.16-.55-1.08-1.68-1.73-2.9-1.63-1.21.09-2.24.9-2.61,2.04l-.04.09c-.09.2-.22.49-.28.88-.05.34-.11.66-.16.97-1.48-.26-3.2-.4-4.98-.44v-3.76c1.83-.69,4.93-2.17,7.22-4.97.16,0,.32,0,.46,0,2.88,1.25,4.32,1.95,5.85,3.22.76,1.15,1.51,2.32,2.23,3.48,1.58,2.56,3.1,5.2,4.51,7.86l.34.65,1.91.77-.45,1.22.64.87c.6.82,1.11,1.7,1.51,2.63.45,1.04.78,2.13.96,3.24l.15.9,1.68,1.03c.13.08,2.13,1.4,2.81,4.08-1.52-.35-3.05-1.19-3.64-1.57Z"/>
  <path d="m57.18,27.13c.43,1.21,1.29,2.53,2.79,4.33.88,1.06,2.91,3.5,5.98,3.5.11,0,.21,0,.32,0,2.77-.15,4.48-2.22,5.51-3.46,1.41-1.7,2.19-2.94,2.62-4.19,2.56-.54,4.52-1.5,5.83-2.85.67-.69.99-1.62.87-2.55-.12-.92-.65-1.73-1.46-2.21-1.21-.73-2.83-3.25-4.01-5.1-.79-1.23-1.53-2.4-2.23-3.21l-.31-.36-4.35-1.82-2.55,2.16-2.33-2.19-4.4,1.85-.31.36c-.7.82-1.44,1.98-2.23,3.21-1.18,1.84-2.8,4.37-4.01,5.1-.81.49-1.34,1.29-1.46,2.21-.12.93.19,1.86.87,2.55.99,1.02,2.2,2.05,4.89,2.68Zm11.51,1.81c-.72.87-1.62,1.96-2.64,2.01-1.27.07-2.44-1.36-3.01-2.05-1.25-1.51-1.93-2.53-2.14-3.24,1.54-3.64,3.43-5.78,5.12-5.78.01,0,.02,0,.03,0,2.06.03,4.15,2.97,4.7,5.58-.13.74-.47,1.55-2.06,3.48Zm-8.42-12.2c.59-.92,1.16-1.8,1.63-2.43l1.1-.46.85.8c1.24,1.17,3.16,1.22,4.47.12l1.12-.95,1.19.5c.47.62,1.04,1.5,1.63,2.42,1.27,1.98,2.68,4.18,4.26,5.58-.52.32-1.25.63-2.24.89-1.27-3.76-4.38-7.27-8.15-7.33-.03,0-.07,0-.1,0-3.27,0-6.13,2.5-8.36,7.25-.8-.22-1.32-.48-1.71-.76,1.6-1.39,3.03-3.62,4.32-5.63Z"/>
</svg>