<?xml version="1.0" encoding="UTF-8"?>
<svg id="Livello_3" data-name="Livello 3" xmlns="http://www.w3.org/2000/svg" viewBox="0 0 120 120">
  <path d="m35.87,46.09c.52,1.53.96,3.09,1.35,4.47.43,1.51.8,2.82,1.21,3.9.58,1.53,1.93,2.55,3.81,2.88.18,1.91.47,4.84.55,5.81.4,4.82,3.66,6.32,4.68,6.77,1.04,1.06,3.51,3.27,4.89,4.5.7.62,1.61.97,2.55.97h10.18c.94,0,1.85-.34,2.55-.97h0c1.38-1.23,3.85-3.45,4.84-4.46,1.07-.5,4.33-2,4.73-6.82.08-.97.36-3.9.55-5.81,1.88-.33,3.23-1.35,3.81-2.88.41-1.08.78-2.39,1.21-3.91.39-1.38.83-2.94,1.35-4.46l.07-.21c1.16-3.39,2.9-8.51,2.21-12.15-.08-.43-.16-.94-.25-1.51-.6-3.76-1.6-10.05-5.83-14.21-4.77-4.69-11.1-7.59-18.32-8.38-.77-.08-1.59-.1-2.49-.05l-.39.02c-7.64.6-14.55,3.59-19.45,8.4-4.23,4.16-5.23,10.45-5.83,14.21-.09.57-.17,1.08-.25,1.51-.69,3.63,1.05,8.76,2.21,12.14l.07.21Zm37.3,16.72c-.19,2.28-1.29,2.97-2.4,3.48-.43.2-.81.46-1.13.79-.97.99-3.52,3.27-4.63,4.26h-10.03c-1.12-1-3.66-3.27-4.63-4.26-.32-.32-.7-.59-1.13-.79-1.11-.51-2.21-1.2-2.4-3.48-.08-.9-.32-3.48-.51-5.39.51,0,1.04,0,1.6,0,.19.37.61,1.52.61,4.68v.42l.17.39c.58,1.34,1.8,2.27,3.26,2.49,1.06.16,2.12-.06,3.09-.61.8.51,1.67.76,2.61.78.81,0,1.59-.21,2.29-.62.77.51,1.5.68,2.08.71.08,0,.16,0,.24,0,.9,0,1.78-.29,2.64-.86.55.35,1.09.53,1.54.61,2.28.41,4.25-1.15,4.46-1.33l.83-.69-.11-1.08c-.2-1.91-.05-4.15.3-4.94.4,0,1.05,0,1.75,0-.18,1.91-.43,4.52-.51,5.43Zm-35.61-28.31c.09-.47.18-1.02.28-1.64.55-3.48,1.39-8.73,4.67-11.96,4.22-4.15,10.23-6.73,16.89-7.25l.33-.02c.68-.04,1.28-.03,1.83.03,6.31.69,11.81,3.19,15.92,7.24,3.28,3.23,4.12,8.48,4.67,11.96.1.62.19,1.17.28,1.64.23,1.21,0,2.88-.41,4.6-.33-.02-.68-.01-1.02.05.07-1.79.02-3.78-.14-4.75-.19-1.14-1.15-2.43-2.71-4.42-.37-.48-.72-.91-.96-1.25-.08-.4.14-1.53.46-2.36l-1.88-.74-1.88-.75c-.37.92-1.45,4.09-.07,6.08.28.4.69.94,1.15,1.52.59.76,1.68,2.15,1.91,2.67.11.82.16,3.17,0,5.02-.13,1.55.5,2.4,1.04,2.83.56.44,1.17.58,1.74.58.38,0,.75-.06,1.08-.15-.14.41-.27.79-.39,1.14l-.07.21c-.55,1.63-1.01,3.24-1.41,4.67-.4,1.42-.75,2.65-1.1,3.58-.05.13-.38.27-.81.33-.18.03-.35.07-.51.12v-.15c-.79,0-4.48.01-4.9.01-.97,0-1.86.42-2.52,1.16-1.47,1.65-1.6,4.89-1.52,6.9-.14.04-.26.06-.35.04-.1-.02-.25-.18-.39-.43l-1.4-2.43-1.87,2.1c-.72.81-1.14.97-1.25.95-.04,0-.26-.13-.58-.57l-1.6-2.28-1.68,2.22c-.15.2-.45.53-.77.53h0c-.28,0-.62-.23-.92-.62l-1.51-1.98-1.63,1.88c-.42.48-.8.62-1.01.59-.03-2.55-.35-7.42-3.82-8l-.31-.03c-.99,0-1.96,0-2.78,0-.8,0-1.71,0-1.92-.01.03,0,.26.02.54.15l-.1.22c-.36-.18-.74-.31-1.15-.37-.43-.06-.76-.2-.81-.33-.35-.92-.7-2.15-1.1-3.57-.4-1.43-.86-3.04-1.41-4.67l-.07-.21c-.07-.21-.15-.44-.23-.67.29.06.6.11.92.11.58,0,1.19-.14,1.74-.58.55-.43,1.17-1.27,1.04-2.83-.16-1.85-.11-4.2,0-5.02.23-.53,1.32-1.92,1.91-2.67.46-.58.87-1.12,1.15-1.52,1.38-1.99.29-5.16-.07-6.08l-3.76,1.49c.29.73.55,1.93.46,2.36-.24.34-.59.78-.96,1.25-1.56,1.99-2.52,3.28-2.71,4.42-.16.96-.21,2.92-.14,4.75-.31-.06-.61-.05-.91-.02-.48-1.89-.77-3.75-.52-5.07Z"/>
  <path d="m45,36.46l-.27.21c-.8.63-1.9,2.36-.93,4.87.73,1.9,1.68,3.58,1.72,3.65l.07.12c.53.81,1.77,1.71,3.55,1.71.1,0,.2,0,.31,0,.08,0,8.44-.81,9.28-5.06.33-1.66.82-4.17-1.04-5.59-.45-.38-2.28-1.78-4.77-1.81-.02,0-.03,0-.05,0-2.28,0-6.69,1.49-7.56,1.79l-.32.11Zm7.87,2.15h.02c1,0,1.84.58,2.11.78,0,.23-.03.7-.22,1.67-.61.79-4.02,1.81-5.56,1.9-.16.01-.26,0-.32-.03-.27-.5-.86-1.64-1.32-2.85-.03-.08-.05-.14-.07-.2,1.87-.6,4.35-1.28,5.36-1.28Z"/>
  <path d="m61.14,41.95c.84,4.24,9.2,5.05,9.28,5.06.1,0,.21,0,.31,0,1.78,0,3.02-.9,3.55-1.71l.07-.12c.04-.07.99-1.75,1.72-3.65.97-2.51-.13-4.24-.93-4.87l-.27-.21-.32-.11c-.87-.3-5.28-1.79-7.56-1.79-.02,0-.03,0-.05,0-2.49.02-4.32,1.42-4.77,1.81-1.86,1.42-1.37,3.92-1.04,5.59Zm5.85-3.34h.02c1.01,0,3.48.67,5.36,1.28-.02.06-.04.13-.07.2-.47,1.21-1.06,2.35-1.32,2.85-.06.02-.16.04-.32.03-1.53-.09-4.94-1.11-5.55-1.9-.19-.97-.22-1.45-.22-1.67.27-.21,1.11-.77,2.11-.78Z"/>
  <path d="m60.07,43.94c-.73,0-1.42.35-1.84.94-2.6,3.62-3.78,6.35-3.5,8.09.43,2.68,3.28,4.11,4.48,4.59.28.12.58.17.87.17s.58-.06.85-.17c1.21-.49,4.06-1.92,4.49-4.6.28-1.74-.9-4.46-3.5-8.09-.42-.59-1.11-.94-1.84-.94Zm0,9.56c-.79-.43-1.31-.93-1.34-1.11,0-.38.43-1.44,1.34-2.96.91,1.52,1.34,2.57,1.35,2.9-.04.23-.55.74-1.35,1.17Z"/>
  <path d="m59.97,34.07c.88,0,1.75-.28,2.49-.83l2.74-2.06-2.43-3.24-2.74,2.06s-.08.03-.12,0l-2.99-2.1-2.33,3.31,2.99,2.1c.72.5,1.55.76,2.38.76Z"/>
  <path d="m104.86,90.1c-2.76-.4-5.37.99-6.66,3.3-1.96-.33-4.85-.88-7.5-1.38,1.54-1.57,2.57-3.57,3.05-5.96.48-2.37,1.47-3.9,2.79-4.3.79-.24,1.39.02,1.51.14l-.02-.02,3.19-2.41c-1.09-1.45-3.32-2.13-5.41-1.65-1.41.32-4.82,1.69-5.98,7.45-.11.54-.26,1.03-.43,1.48C40.78,78.79,13.99,48.04,13.72,47.73l-.12-.12c-.76-.75-1.95-.9-2.87-.36-.93.54-1.38,1.65-1.1,2.67.22.84,5.79,20.68,36.27,37.46,14.13,7.78,36.88,12.33,42.75,13.41.04.7-.07,1.44-.41,2.21-.72,1.64-1.7,2.6-3,2.95-2.95.79-7.09-1.59-8.43-2.58l-2.38,3.22c.56.41,4.92,3.52,9.51,3.52.77,0,1.56-.09,2.32-.29,1.73-.46,4.11-1.74,5.63-5.21,1.45-3.31.71-6.18-.62-8.4,2.24.43,4.46.84,6.14,1.12.33,2.87,2.55,5.29,5.54,5.73.32.05.64.07.95.07,3.19,0,5.99-2.34,6.47-5.59h0c.52-3.57-1.96-6.9-5.52-7.42Zm-21.34,4.07l.92.6c.21.13.98.66,1.8,1.46-8.41-1.72-26.79-5.97-38.41-12.36-17.05-9.38-25.92-19.83-30.33-26.84,10.85,9.67,34.41,27.06,69.01,33.28-.58.37-1.1.59-1.44.74-.3.13-.5.23-.58.28l-.96.61v1.11s0,1.12,0,1.12Zm22.91,2.77c-.2,1.39-1.5,2.35-2.88,2.15-1.39-.2-2.35-1.5-2.15-2.88.19-1.26,1.27-2.17,2.51-2.17.12,0,.25,0,.37.03,1.39.2,2.35,1.5,2.15,2.88Z"/>
  <path d="m52.25,91.85c-5.56-2.13-10.91-5.73-11.51-6.14-.49-.33-1.11-.45-1.69-.31-2.96.69-5.3,1.16-8.44,1.66-.17-.45-.32-.95-.44-1.5-1.17-5.77-4.57-7.13-5.98-7.45-2.1-.48-4.32.2-5.41,1.65l3.18,2.43c.12-.12.72-.38,1.51-.14,1.32.4,2.31,1.93,2.79,4.3.49,2.4,1.51,4.39,3.05,5.96-2.65.51-5.54,1.05-7.5,1.38-1.29-2.31-3.9-3.7-6.66-3.3-3.57.52-6.05,3.85-5.52,7.42h0c.48,3.25,3.28,5.59,6.47,5.59.31,0,.63-.02.95-.07,1.73-.25,3.26-1.17,4.3-2.57.7-.94,1.12-2.02,1.25-3.16,1.67-.28,3.9-.7,6.13-1.12-1.33,2.22-2.07,5.09-.62,8.4,1.52,3.47,3.9,4.75,5.63,5.21.77.21,1.55.29,2.32.29,4.58,0,8.95-3.11,9.51-3.52l-2.37-3.22c-1.35.99-5.48,3.38-8.43,2.58-1.3-.35-2.28-1.31-3-2.95-.34-.78-.45-1.53-.41-2.25,3.18-.67,11.64-2.53,20.73-5.14.89-.26,1.51-1.05,1.55-1.98.04-.92-.52-1.77-1.38-2.09Zm-34.12,6.55c-.41.54-1,.9-1.67,1-1.39.21-2.68-.76-2.88-2.15-.2-1.39.76-2.68,2.15-2.89,1.39-.2,2.68.76,2.88,2.15.1.67-.07,1.34-.48,1.89Zm15.77-1.99c.77-.73,1.46-1.2,1.65-1.32l.95-.62-.03-2.23-.92-.58c-.1-.06-.31-.17-.6-.3-.34-.14-.85-.37-1.43-.73,1.95-.34,3.69-.7,5.67-1.15,1.21.79,3.78,2.41,6.85,3.96-4.77,1.27-9.07,2.28-12.13,2.97Z"/>
  <path d="m65.19,78.36c.08.98.74,1.79,1.68,2.05,4.56,1.3,8.36,2.37,12.33,3.41.2.05.4.08.59.08.45,0,.89-.13,1.27-.37,24.41-15.77,29.12-32.58,29.31-33.28.28-1.04-.17-2.14-1.1-2.68-.93-.54-2.11-.39-2.87.36l-.11.12c-.14.16-14.03,16.17-39.75,28.02-.88.41-1.42,1.33-1.35,2.3Zm37.23-20.87c-3.76,5.92-10.66,14.24-22.91,22.28-2.39-.63-4.75-1.29-7.28-2,13.97-6.97,24.09-14.82,30.19-20.28Z"/>
</svg>