<?xml version="1.0" encoding="UTF-8"?>
<svg id="Livello_3" data-name="Livello 3" xmlns="http://www.w3.org/2000/svg" viewBox="0 0 120 120">
  <path d="m18.71,79.46c.22,1.62.38,2.66.78,3.42.55,1.03,1.28,1.7,2.77,2.51l1.86,1.09c.64.43,1.38.66,2.16.66h4.52c.83,0,1.62-.26,2.29-.76l2.04-1.52.11-.09c.14-.12.45-.33.72-.51.81-.54,1.57-1.05,1.98-1.83.49-.93.65-2.24.84-3.77.08-.67.21-1.75.34-2.19.23-.27.5-.56.79-.88,1.86-2.02,4.67-5.06,4.71-9.74,0-.64-.04-1.29-.04-1.32-.17-2.42-.93-5.98-3.56-9.16l-.25-.25c-4.4-3.75-9.33-5.42-14.25-4.84-5.04.6-8.85,3.39-10.16,5.08-1.9,2.08-3.05,4.41-3.43,6.92-.21,1.39-.26,3.17.81,6.71.82,2.71,1.95,4.42,4.63,8.46.12.37.25,1.38.33,2Zm-1.83-16.57c.27-1.76,1.08-3.36,2.48-4.88l.15-.18c.57-.79,3.41-3.09,7.47-3.57.49-.06.98-.09,1.47-.09,3.28,0,6.49,1.3,9.57,3.89,1.87,2.33,2.41,4.96,2.54,6.77,0,.03.04.51.03,1-.02,3.13-2.03,5.3-3.65,7.05-.43.47-.83.9-1.15,1.3l-.22.34c-.46.9-.62,2.18-.8,3.67-.08.69-.22,1.8-.36,2.25-.18.14-.51.36-.72.5-.36.24-.73.49-1.04.75l-1.95,1.45-4.37.02-2.12-1.25c-1.02-.56-1.13-.76-1.19-.87-.13-.31-.28-1.44-.37-2.11-.21-1.58-.37-2.59-.75-3.33l-.11-.19c-2.6-3.92-3.58-5.38-4.24-7.56-.84-2.78-.83-4.02-.69-4.95Z"/>
  <polygon points="45.48 87.46 41.31 89.55 41.92 86.87 38.02 85.98 36.68 91.87 28.69 95.89 20.52 91.79 17.97 85.45 14.26 86.94 15.12 89.08 11.9 87.46 10.1 91.03 14.2 93.09 12.5 93.81 14.07 97.49 18.88 95.44 24.23 98.12 19.26 100.62 13.96 98.71 12.61 102.47 14.33 103.09 10.1 105.22 11.9 108.79 15.93 106.77 15.48 108.09 19.27 109.38 21.03 104.21 28.69 100.36 36.35 104.21 38.11 109.38 41.9 108.09 41.44 106.77 45.29 108.7 47.09 105.12 42.93 103.03 44.43 102.46 43 98.72 38.09 100.61 33.15 98.12 38.49 95.44 43.3 97.49 44.87 93.81 43.18 93.09 47.27 91.03 45.48 87.46"/>
  <path d="m23.15,64.11c.09,1.86.05,4.04.02,5.64-.01.63-.02,1.16-.02,1.55,0,.97.42,1.56.77,1.88.56.51,1.18.6,1.65.6.18,0,.35-.02.47-.03.07,0,.16-.02.24-.02h4.07c.09,0,.18,0,.27,0,.57.03,1.63.08,2.41-.8.28-.31.72-1,.54-2.04-.33-1.9-.21-4.45-.06-6.39.89-.23,2.94-.24,4.73,0l.53-3.97c-1.78-.24-6.12-.62-8.06.95-.67.54-1.07,1.28-1.14,2.1-.15,1.83-.29,4.07-.15,6.14h-2.24c.03-1.66.07-3.9-.02-5.87-.05-1.13-.52-2.09-1.35-2.78-1.74-1.45-4.41-1.23-6.78-.91-.24.03-.43.06-.55.07.05,0,.09,0,.13,0l-.26,3.99c.33.02.67-.02,1.22-.1,2.43-.33,3.29-.18,3.6-.03Z"/>
  <rect x="24.93" y="76.34" width="7.08" height="4"/>
  <path d="m107.69,28.39c-.48-.92-.47-1.97.03-2.88l2.98-5.41c.41-.75.4-1.67-.05-2.4-.45-.75-1.25-1.16-2.15-1.19l-11.88.18c-.88.01-1.69.5-2.12,1.26-.42.75-.4,1.68.04,2.41l3.02,5.02c.5.83.55,1.8.21,2.67-1.39.81-3.11,1.41-4.94,2.03-1.98.67-4.02,1.36-5.78,2.4-1.38.01-2.49.24-3.48.44-.94.19-1.77.36-2.78.36h-.01c-1.03-.44-2.08-.83-3.15-1.14-2.02-.6-4-.84-5.72-.94-.04-.39-.08-.8-.11-1.2-.02-.18-.03-.36-.05-.53l3.27-1.81v-4.45s-.02-.1-.02-.15c.23-.13.49-.29.79-.47l1.86-1.11-3.78-5.32-.16-.78c-.6-2.9-2.81-5.25-5.62-5.98-3.6-.93-7.23.05-7.38.09l-.41.11-1.84,1.53c-1.79,1.48-2.82,3.65-2.82,5.94v3.36l1.38,3.72c.75,2.02,2.71,3.33,4.85,3.38l.17,3.73-1.67.18c-2.68.3-5.23,1.07-7.56,2.31h-.02c-1.14.25-1.66.27-2.47.3-.08,0-.17,0-.26,0-1.45-.89-5.43-3.23-8.42-4.05-.42-.24-1.49-1.24-1.82-2.38-.18-.6-.51-1.1-.94-1.45.13-.71.2-1.47.18-2.29l-4,.1s0,0,0,0l-11.78-11.76-15.5-2.34,3.9,4.19c5.2,5.6,9.44,10.14,18.11,15.86l.27,1.94.27,1.98c.58-.08,1.25-.23,1.96-.48.17.38.38.67.58.87,1.04,1.05,2.37,1.44,3.18,1.58l10.42,7.94,10.44.38c.6,1.59,1.65,4.66,2.17,8.05.66,4.33.87,8.96.91,10.23l-6.44,19.88,1.93,13.67c.39,2.25.29,3.06.25,3.28l-2.65,3.8c-.6.86-2.06,1.95-2.84,2.43l-.4.24-.25.39c-.4.65-.67,1.78-.07,2.86.99,1.79,3.51,1.99,5.33,1.99,4.67,0,6.94-3.51,7.77-5.23l1.09-.44c1.56-.62,2.37-2.3,1.88-3.91l-.79-2.61c.78-4.12,2-12.36.26-16.34l5.47-9.6,3.05,8.61c-1.69,3.94-.56,12.75.14,17.03l-.72,2.74c-.41,1.59.37,3.24,1.85,3.93l.75.35c.95,2.36,3.23,5.47,7.17,5.47.92,0,3.73,0,4.86-1.89.63-1.06.43-2.23.07-2.9l-.22-.4-.37-.27c-.49-.35-1.9-1.49-2.5-2.49l-2.09-3.48c-.24-.41-.47-1.96-.36-2.76l2.17-14.6-5.11-19.9-.35-1.98c-.79-4.2-1.72-10.87-1.39-12.76l1.23-3.71h7.17c1.74,0,3.41-.54,4.83-1.56l5.53-4.69c.12.02.24.05.36.05h.01l11.92-.06c.86,0,1.66-.46,2.1-1.19.44-.73.46-1.61.07-2.36l-2.98-5.66ZM18.57,15.56l2.81.42,10.7,10.68c-6.13-4.02-9.88-7.37-13.51-11.11Zm42.19,7.2l-1.13-3.04v-2.64c0-1.09.5-2.13,1.37-2.86l1.15-.95c.84-.17,2.95-.5,4.93.01,1.35.35,2.41,1.5,2.71,2.92l.33,1.6,1.7,2.38-.29.32c-.62.68-.64,1.48-.51,2.98v1.83l-.31.17-8.15-1.99-.38.05c-.62.09-1.21-.24-1.42-.78Zm19.47,59.66l-2.05,13.8c-.2,1.32,0,3.93.88,5.4l2.09,3.48c.41.69.97,1.34,1.52,1.9-2.52-.07-3.55-3.45-3.56-3.47l-.25-.88-1.89-.87.8-3.07-.07-.42c-1.17-6.96-1.38-14.11-.45-15.3l.75-.87-2.66-7.58-1.98-5.48,2.77-2.57,4.09,15.94Zm14.37-48.68l-6.32,5.37c-.72.5-1.56.76-2.43.76h-10.06l-1.86,5.62-4.41,1.49,1.28,3.79,2.63-.89c.19,4.08,1.22,9.78,1.48,11.17l.17.96-4.37,4.05-3.34-2.76-2.55,3.08,3.25,2.68-7.09,12.45-.66,1.32.97,1.07c.99,1.1.74,8.07-.54,14.63l-.1.49.87,2.86-2.04.83-.3.87c-.05.14-1.21,3.4-4.33,3.42.54-.49,1.07-1.05,1.48-1.64l2.73-3.92c.78-1.12.88-2.95.34-6.07l-1.8-12.69,6.37-19.66v-.34c-.02-.23-.17-5.76-.98-11.07-.83-5.44-2.84-10.02-2.92-10.21l-.51-1.14-11.71-.42-10.34-7.89-.64-.02c-.07,0-.45-.06-.79-.21.13-.35.38-.79.66-1.2,1.06,1.77,2.7,3.06,3.75,3.34,2.52.66,6.58,3.06,7.94,3.92l.54.35.64-.03c.31-.02.58-.03.83-.03.99-.03,1.77-.06,3.47-.44l.29-.06.47-.26c1.88-1,3.94-1.63,6.12-1.87l5.4-.6-.29-6.4,1.76.43c.05.48.1,1,.15,1.52.11,1.16.21,2.26.33,3.07l.25,1.66,1.68.04c1.78.04,4.12.17,6.42.85,1.02.3,2.04.68,3.02,1.12l.35.16.39.02c.18,0,.36.01.53.01,1.43,0,2.57-.23,3.59-.44,1.05-.22,1.96-.4,3.16-.35l.64.03.54-.35c1.45-.95,3.37-1.6,5.4-2.29.17-.06.33-.12.5-.17l-.02.03Zm4.65-.08l1.83-3.19c1.26-2.21,1.23-4.95-.08-7.13l-1.61-2.67,6.5-.1-1.67,3.03c-1.15,2.08-1.17,4.58-.07,6.68l1.77,3.36-6.66.03Z"/>
  <path d="m66.52,17.6l-.24-1.99-.23-1.99c-.32.04-3.12.41-4.68,2.38-.79,1-1.12,2.22-.96,3.54l3.97-.48c-.14-1.16,2.11-1.46,2.13-1.46Z"/>
  <rect x="67.91" y="56.52" width="4" height="3.52" transform="translate(-7.6 10.56) rotate(-8.2)"/>
</svg>