<?xml version="1.0" encoding="UTF-8"?>
<svg id="Livello_3" data-name="Livello 3" xmlns="http://www.w3.org/2000/svg" viewBox="0 0 120 120">
  <path d="m48.92,55.03c.19.65.36,1.26.56,1.78.41,1.07,1.37,1.78,2.64,1.96l.49.02c.18.01.4.01.71.01.12,0,.25,0,.4,0,0,.04.01.07.02.11.28,1.98,1.85,3.41,3.74,3.41h5.12c1.95,0,3.55-1.54,3.71-3.55.35,0,.68,0,.8,0h.51s.16-.01.16-.01c1.27-.18,2.23-.9,2.64-1.96.2-.51.37-1.13.56-1.78.17-.58.35-1.22.6-1.96.72-2.08,1.34-4.1,1.01-5.82-.03-.18-.07-.39-.1-.62-.28-1.76-.76-4.7-2.88-6.76-2.26-2.19-5.26-3.55-8.66-3.92-.4-.04-.81-.05-1.26-.03h-.2c-3.6.29-6.86,1.69-9.18,3.94-2.12,2.05-2.59,5-2.87,6.76-.04.23-.07.44-.1.62-.33,1.72.29,3.74,1.04,5.91.22.64.4,1.28.57,1.87Zm2.32-7.02c.04-.21.08-.46.13-.74.22-1.35.55-3.39,1.71-4.52,1.66-1.61,4.04-2.61,6.68-2.81h.14c.24-.02.44-.02.62,0,3.17.34,5.18,1.72,6.3,2.81,1.17,1.13,1.49,3.17,1.71,4.52.04.28.09.53.13.74.16.81-.53,2.8-.89,3.85-.25.71-.45,1.43-.64,2.07-.09.3-.17.59-.25.86-.58,0-1.73,0-1.89,0-1.14,0-2.52.63-2.66,3.54h-4.63c-.3-2.1-1.14-3.28-2.48-3.5l-.31-.03c-.44,0-.86,0-1.23,0-.19,0-.37,0-.5,0l-.15-.02c-.08-.26-.16-.56-.25-.86-.19-.65-.39-1.36-.67-2.16-.33-.95-1.02-2.94-.86-3.75Z"/>
  <path d="m64.17,50.6c.38,0,1.72.34,2.86.72l1.27-3.79c-.66-.22-2.87-.9-4.16-.92-1.68.02-2.86.96-3.08,1.15l2.62,3.02s.27-.17.49-.18Z"/>
  <path d="m55.86,50.6c.2,0,.44.14.53.21l2.58-3.05c-.22-.19-1.4-1.14-3.08-1.15-1.25.01-3.51.7-4.16.92l1.27,3.79c1.12-.37,2.48-.72,2.86-.72Z"/>
  <rect x="57.96" y="52.04" width="4" height="2.9"/>
  <path d="m14.59,55.55c.19.65.36,1.26.56,1.77.41,1.07,1.37,1.78,2.64,1.96l.5.02c.18.01.4.02.71.02.12,0,.25,0,.39,0,0,.04.01.08.02.12.28,1.98,1.85,3.41,3.74,3.41h5.12c1.95,0,3.55-1.54,3.71-3.55.35,0,.68,0,.8,0h.51s.16-.01.16-.01c1.27-.18,2.23-.9,2.64-1.96.2-.51.37-1.13.56-1.78.17-.58.35-1.22.6-1.96.72-2.08,1.34-4.1,1.01-5.82-.03-.18-.07-.39-.1-.62-.28-1.76-.76-4.7-2.87-6.76-2.26-2.2-5.26-3.55-8.66-3.92-.4-.04-.81-.05-1.27-.03h-.19c-3.6.29-6.86,1.69-9.18,3.94-2.12,2.05-2.59,5-2.87,6.76-.04.23-.07.44-.1.62-.33,1.72.29,3.74,1.04,5.91.22.64.41,1.29.57,1.87Zm2.32-7.02c.04-.21.08-.46.13-.74.22-1.35.55-3.39,1.71-4.52,1.66-1.61,4.04-2.61,6.66-2.81h.15c.23-.02.44-.02.62,0,3.17.34,5.18,1.72,6.3,2.81,1.16,1.13,1.49,3.17,1.71,4.52.04.28.09.53.13.74.16.81-.53,2.8-.89,3.84-.25.72-.45,1.43-.64,2.07-.09.3-.17.59-.25.85-.58,0-1.73,0-1.89,0-1.14,0-2.52.63-2.66,3.54h-4.63c-.3-2.1-1.14-3.28-2.48-3.5l-.3-.03c-.44,0-.87,0-1.23,0-.19,0-.36,0-.49,0l-.16-.02c-.08-.26-.16-.56-.25-.86-.19-.65-.39-1.36-.67-2.16-.33-.95-1.02-2.94-.86-3.75Z"/>
  <path d="m29.84,51.13c.38,0,1.72.33,2.86.72l1.27-3.79c-.65-.22-2.86-.92-4.13-.92h-.03c-1.68.02-2.86.96-3.08,1.15l2.62,3.02s.27-.17.49-.17Z"/>
  <path d="m21.53,51.13c.2,0,.44.14.53.21l2.58-3.05c-.22-.19-1.4-1.14-3.08-1.15-1.29-.04-3.51.7-4.16.92l1.27,3.79c1.14-.38,2.48-.72,2.86-.72Z"/>
  <rect x="23.63" y="52.57" width="4" height="2.9"/>
  <path d="m83.53,55.33c.19.65.36,1.26.56,1.77.41,1.07,1.37,1.78,2.64,1.96l.49.02c.18.01.4.01.71.01.12,0,.25,0,.4,0,0,.04.01.07.02.12.28,1.98,1.85,3.41,3.74,3.41h5.12c1.95,0,3.55-1.54,3.71-3.55.35,0,.68,0,.8,0h.51s.16-.01.16-.01c1.27-.18,2.23-.9,2.64-1.96.2-.51.37-1.12.56-1.77.17-.58.35-1.22.6-1.96.72-2.08,1.34-4.1,1.01-5.82-.03-.18-.07-.38-.1-.62-.28-1.76-.76-4.7-2.88-6.76-2.26-2.19-5.26-3.55-8.66-3.92-.4-.04-.81-.05-1.27-.03h-.19c-3.6.29-6.86,1.69-9.18,3.94-2.12,2.05-2.59,5-2.87,6.76-.04.23-.07.44-.1.62-.33,1.72.29,3.74,1.04,5.91.22.65.41,1.29.57,1.87Zm2.32-7.02c.04-.21.08-.46.13-.74.22-1.35.55-3.39,1.71-4.52,1.66-1.61,4.04-2.61,6.66-2.81h.16c.23-.02.44-.02.62,0,3.17.34,5.18,1.72,6.3,2.81,1.17,1.13,1.49,3.17,1.71,4.52.04.28.09.53.13.74.16.81-.53,2.8-.89,3.85-.25.72-.45,1.43-.64,2.07-.09.3-.17.59-.25.85-.58,0-1.73,0-1.89,0-1.14,0-2.52.63-2.66,3.54h-4.63c-.3-2.1-1.14-3.28-2.48-3.5l-.31-.03c-.44,0-.86,0-1.23,0-.19,0-.37,0-.5,0l-.15-.02c-.08-.26-.16-.56-.25-.86-.19-.65-.39-1.36-.67-2.17-.33-.95-1.02-2.94-.86-3.75Z"/>
  <path d="m98.77,50.9c.38,0,1.72.33,2.86.72l1.27-3.79c-.66-.22-2.88-.9-4.16-.92-1.68.02-2.86.96-3.08,1.15l2.62,3.02s.27-.17.49-.17Z"/>
  <path d="m90.47,50.9c.2,0,.44.14.53.2l2.59-3.05c-.22-.19-1.4-1.14-3.08-1.15-1.29-.04-3.51.7-4.16.92l1.27,3.79c1.12-.37,2.48-.72,2.86-.72Z"/>
  <rect x="92.56" y="52.34" width="4" height="2.9"/>
  <path d="m39.88,73.98c-1.4-.79-2.89-.35-4.09,0-.6.18-1.28.38-1.66.32l-1.49-.21-2.45-1.28,2.71-1.19.49.08c.37.06,1.78.29,3.21.29.67,0,1.35-.05,1.93-.19.99-.24,1.91-1.09,2.73-2.52.4-.7.48-1.49.24-2.23-.23-.7-.74-1.32-1.47-1.76.02-.68-.03-1.55-.67-2.26l-.26-.29-.35-.17c-1.11-.53-2.15-.62-3.1-.27-1.53.57-2.17,2.03-2.69,3.21-.26.6-.56,1.28-.87,1.57l-1.12,1.04-5.32,2.33-5.32-2.77-.14-.39c-.19-.53-1.19-3.23-2.44-4.62-.69-.77-1.87-1.17-3.5-1.2-.81,0-1.52.3-2.05.88-.51.57-.79,1.35-.8,2.26-.59.32-1.29.81-1.56,1.74l-.11.36.03.37c.11,1.26.56,2.22,1.34,2.87,1.23,1.03,2.77.88,4,.76.62-.06,1.32-.13,1.69,0l2.1.72,2.05,1.07-2.66,1.17-.32-.12c-.52-.2-3.18-1.16-5.03-1.07-1.02.05-2.09.71-3.15,1.98-.51.61-.74,1.37-.64,2.14.1.74.5,1.44,1.14,2.02-.14.66-.25,1.53.26,2.35l.2.33.31.23c.81.6,1.63.9,2.44.9.19,0,.38-.02.56-.05,1.6-.28,2.5-1.59,3.21-2.65.36-.54.78-1.15,1.12-1.36l1.89-1.19,5.21-2.28,5.66,2.95.27.47c.28.48,1.75,2.95,3.22,4.09.57.43,1.33.65,2.28.65.43,0,.89-.04,1.39-.13.78-.14,1.44-.58,1.84-1.24.4-.65.53-1.48.38-2.36.52-.43,1.13-1.04,1.23-2l.04-.37-.1-.36c-.33-1.22-.94-2.09-1.83-2.59Zm-3.5-6.35c.07.13.16.25.26.37-.14,0-.28,0-.43,0,.06-.12.12-.24.17-.36Zm-21.2-.95c.08-.12.15-.25.21-.39.06.12.13.24.19.36-.13,0-.27.02-.39.03Zm-.9,10.3c-.05-.14-.11-.27-.19-.41.13.03.27.06.42.09-.08.11-.16.21-.23.32Zm22.02,1.4c-.08-.1-.17-.21-.25-.32.13-.03.25-.07.38-.1-.05.13-.1.27-.13.42Z"/>
  <path d="m73.25,74.6c-1.4-.79-2.89-.35-4.09,0-.6.18-1.28.38-1.66.32l-1.49-.21-2.45-1.28,2.71-1.19.49.08c.37.06,1.78.29,3.21.29.67,0,1.35-.05,1.93-.19.99-.24,1.91-1.09,2.73-2.52.4-.7.48-1.49.24-2.23-.23-.7-.74-1.32-1.47-1.76.02-.68-.03-1.55-.67-2.26l-.26-.29-.35-.17c-1.11-.53-2.15-.62-3.1-.27-1.53.57-2.17,2.03-2.69,3.21-.26.6-.56,1.28-.87,1.57l-1.12,1.04-5.32,2.33-5.32-2.77-.14-.39c-.19-.53-1.19-3.23-2.44-4.62-.69-.77-1.87-1.17-3.5-1.2-.8-.03-1.52.3-2.05.87-.51.57-.79,1.35-.8,2.26-.59.32-1.29.81-1.56,1.74l-.11.36.03.37c.11,1.26.56,2.22,1.34,2.88,1.23,1.03,2.77.88,4,.76.62-.06,1.32-.13,1.69,0l2.1.72,2.05,1.07-2.66,1.17-.32-.12c-.52-.19-3.17-1.16-5.03-1.07-1.02.05-2.08.71-3.15,1.98-.51.61-.74,1.37-.64,2.14.1.74.5,1.44,1.14,2.02-.14.66-.25,1.53.25,2.35l.2.33.31.23c.81.6,1.63.9,2.44.9.19,0,.38-.02.56-.05,1.6-.28,2.5-1.59,3.21-2.65.36-.54.78-1.15,1.12-1.36l1.89-1.19,5.21-2.28,5.66,2.95.27.47c.28.48,1.75,2.96,3.23,4.09.57.43,1.33.65,2.27.65.43,0,.89-.04,1.39-.13.78-.14,1.44-.58,1.84-1.24.4-.65.53-1.48.38-2.36.52-.43,1.13-1.04,1.23-2l.04-.37-.1-.36c-.33-1.22-.94-2.09-1.83-2.59Zm-3.5-6.35c.07.13.16.25.26.37-.14,0-.28,0-.43,0,.06-.12.12-.24.17-.36Zm-21.2-.95c.08-.12.15-.25.21-.39.06.12.13.24.19.36-.13,0-.27.02-.39.03Zm-.9,10.3c-.05-.14-.11-.27-.19-.41.13.03.27.06.42.09-.08.11-.16.21-.23.32Zm22.02,1.4c-.08-.1-.17-.21-.25-.32.13-.03.25-.07.38-.1-.05.13-.1.27-.13.42Z"/>
  <path d="m110.81,77.61c-.33-1.22-.94-2.09-1.83-2.59-1.4-.79-2.89-.35-4.09,0-.6.18-1.28.38-1.66.32l-1.49-.21-2.45-1.28,2.71-1.19.49.08c.37.06,1.78.29,3.21.29.67,0,1.35-.05,1.93-.19.99-.24,1.91-1.09,2.73-2.52.4-.7.48-1.49.24-2.23-.23-.7-.74-1.32-1.47-1.76.02-.68-.03-1.55-.67-2.26l-.26-.29-.35-.17c-1.11-.53-2.15-.62-3.1-.27-1.53.57-2.17,2.03-2.69,3.21-.26.6-.56,1.28-.87,1.57l-1.12,1.04-5.32,2.33-5.32-2.77-.14-.39c-.19-.53-1.19-3.23-2.44-4.62-.69-.77-1.87-1.17-3.5-1.2-.79-.02-1.52.3-2.05.87-.51.57-.79,1.35-.8,2.26-.59.32-1.29.81-1.56,1.74l-.11.36.03.37c.11,1.26.56,2.22,1.34,2.87,1.23,1.03,2.77.88,4,.76.62-.06,1.32-.13,1.69,0l2.1.72,2.05,1.07-2.66,1.17-.32-.12c-.51-.19-3.16-1.16-5.03-1.07-1.02.05-2.08.71-3.15,1.98-.51.61-.74,1.37-.64,2.14.1.74.5,1.44,1.14,2.02-.14.66-.25,1.53.25,2.35l.2.33.31.23c.81.6,1.63.9,2.44.9.19,0,.38-.02.56-.05,1.6-.28,2.5-1.59,3.21-2.65.36-.54.78-1.15,1.12-1.36l1.89-1.19,5.21-2.28,5.66,2.95.27.47c.28.48,1.75,2.96,3.23,4.09.57.43,1.33.65,2.28.65.43,0,.89-.04,1.39-.13.78-.14,1.44-.58,1.84-1.24.4-.65.53-1.47.38-2.36.52-.43,1.13-1.04,1.23-2l.04-.37-.1-.36Zm-5.33-8.94c.07.13.16.25.26.37-.14,0-.28,0-.43,0,.06-.12.12-.24.17-.36Zm-21.2-.95c.08-.12.15-.25.21-.39.06.12.13.24.19.36-.13,0-.27.02-.39.03Zm-.9,10.3c-.05-.14-.11-.27-.19-.41.13.03.27.06.42.09-.08.11-.16.21-.23.32Zm22.02,1.4c-.08-.1-.17-.21-.25-.32.13-.03.25-.07.38-.1-.05.13-.1.27-.13.42Z"/>
</svg>