<?xml version="1.0" encoding="UTF-8"?>
<svg id="Livello_3" data-name="Livello 3" xmlns="http://www.w3.org/2000/svg" viewBox="0 0 120 120">
  <path d="m70.52,46.2c.79-1.41,1.98-2.58,3.03-3.62,1.42-1.4,2.65-2.61,2.63-4.26,0-.6-.2-1.49-1.07-2.31-6.36-6.01-11.66-7.81-15.04-8.26.41-.53.83-1.06,1.28-1.6l-3.08-2.55c-1.15,1.39-2.18,2.74-3.12,4.05-5.46-3.16-23.93-13.35-43.17-18.57l-1.67-.45-.69,1.59c-.69,1.59.07,2.06,2.88,3.8,24.75,15.27,33.78,21.49,36.65,23.91-2.01,4.47-2.55,7.36-2.58,7.57l3.49.6c.89,4.03,2.76,7.62,4.54,10.05-.33,8.37.47,19.8.75,23.42-1.49,1.06-4.68,3.22-7.9,4.78-3.36,1.63-6.8,5.17-9.31,7.76-1.15,1.18-2.23,2.29-2.79,2.68-3.01,2.1-2.21,4.38-1.28,7.02.16.45.34.96.53,1.52l.09.27.16.24c2.42,3.5,4.46,4.07,9.9,5.57,1.44.4,3.15.87,5.23,1.5l1.08.32.84-.75c10.25-9.21,19.94-17.91,21.86-25.28,1.97-7.58-3.03-28.11-3.85-30.94-1.05-3.63-1.25-4.72.61-8.07Zm3.22-8.74l-1.37,1.46h0s1.37-1.46,1.37-1.46Zm-20.88-6.38c-.63.87-1.15,1.76-1.58,2.66-.1.18-.19.35-.29.53-3.66-2.9-11.38-8.04-23.63-15.74,11.88,4.79,21.71,10.22,25.58,12.44-.02.04-.05.08-.07.11Zm17.03,53.12c-1.57,6.02-10.73,14.39-19.83,22.56-1.64-.48-3.04-.87-4.24-1.2-4.98-1.38-6.02-1.67-7.52-3.77-.16-.48-.32-.92-.46-1.31-.28-.81-.6-1.72-.62-2.06.05-.06.17-.17.42-.34.87-.61,1.97-1.74,3.37-3.18,2.31-2.37,5.46-5.62,8.19-6.95,4.76-2.31,9.25-5.68,9.44-5.83l.88-.67-.09-1.1c-.01-.15-1.26-15.15-.79-24.75l.04-.75-.46-.59c-.36-.46-7.5-9.75-3.49-18.5.44-.79.93-1.63,1.46-2.48.41-.56.88-1.12,1.41-1.67.46-.04,1.29-.05,2.41.14-1.09,1.64-2.05,3.19-2.27,3.83l3.77,1.33c.19-.45,1.3-2.17,2.47-3.91.72.32,1.49.72,2.31,1.21-.88,1.41-2.09,3.35-2.67,4.16l3.25,2.33c.63-.87,1.83-2.78,2.72-4.22.76.59,1.54,1.25,2.35,1.99-.31.36-.8.85-1.19,1.23-1.18,1.16-2.65,2.61-3.71,4.52-2.63,4.72-2.14,7.06-.96,11.13,1.22,4.19,5.41,22.73,3.82,28.82Z"/>
  <path d="m32.25,68.52l-.09-.23s-.65-1.67-1.31-3.36c-.79-1.99-1.24-4.21-1.32-6.45-.04-1.19.06-2.37.29-3.51l1.91-9.46c.22-1.13-.13-2.42-.91-3.36-.7-.85-1.64-1.31-2.66-1.31h-5.48c-1.02,0-1.96.47-2.66,1.31-.78.94-1.13,2.23-.91,3.38l1.9,9.44c.23,1.15.33,2.33.29,3.51-.08,2.23-.53,4.46-1.32,6.45-.67,1.69-1.31,3.36-1.31,3.36l-.09.23-.03.25c-.26,2.1.95,5.48,5.32,6.22.19.03.86.14,1.67.14.48,0,1-.04,1.49-.15,4.33-.77,5.52-4.13,5.26-6.21l-.03-.25Zm-5.97,2.53l-.15.03c-.39.1-1.18.04-1.6-.03-1.66-.28-2-1.09-2.03-1.62.22-.55.69-1.78,1.18-3.02.97-2.44,1.5-5.06,1.6-7.78.05-1.5-.07-2.99-.36-4.44l-1.88-9.34h4.73l-1.88,9.34c-.29,1.45-.41,2.94-.36,4.44.09,2.72.63,5.34,1.6,7.78.49,1.23.96,2.45,1.18,3.01-.03.56-.39,1.36-2.02,1.63Z"/>
  <path d="m19.86,60.66c1.46-2,.4-5.22.02-6.19-6.67-16.29-6.89-16.32-8.31-16.5l-.98-.11-.69.64c-.51.47-1.45,1.36-.59,15.41.09,1.5.32,2.82.66,3.92.74,2.33,2.6,3.94,4.74,4.09l1.94.13c.1,0,.19,0,.29,0,1.64,0,2.53-.86,2.91-1.39Zm-4.86-2.74c-.48-.03-.97-.56-1.2-1.31-.25-.79-.41-1.78-.48-2.95-.1-1.7-.18-3.46-.23-5.12.98,2.32,2.07,4.91,3.08,7.4.26.68.44,1.56.45,2.09l-1.62-.11Z"/>
  <path d="m31.04,60.66c.39.53,1.27,1.39,2.92,1.39.09,0,.19,0,.29,0l1.92-.13c2.14-.15,4-1.75,4.74-4.09.35-1.1.57-2.42.66-3.92.86-14.05-.08-14.93-.59-15.41l-.73-.66-.93.12c-1.42.18-1.64.21-8.32,16.54-.36.94-1.43,4.15.04,6.15Zm3.68-4.68c1.02-2.5,2.11-5.11,3.1-7.44-.05,1.66-.13,3.41-.23,5.12-.07,1.17-.23,2.16-.48,2.95-.24.75-.72,1.27-1.2,1.31l-1.62.1c.01-.53.19-1.4.43-2.04Z"/>
  <path d="m105.17,53.01l-.26-.21-.32-.11c-.65-.23-3.98-1.35-5.74-1.34-1.96.02-3.41,1.1-3.8,1.43-1.61,1.23-1.2,3.33-.95,4.59.69,3.53,7.2,4.12,7.26,4.12.09,0,.17,0,.25,0,1.51,0,2.57-.78,3.03-1.48l.07-.11c.03-.05.74-1.31,1.29-2.74.82-2.12-.15-3.61-.84-4.16Zm-3.69,4.49c-.95-.09-2.91-.66-3.5-1.13-.06-.32-.09-.54-.1-.7.23-.14.61-.32,1.01-.32.53-.01,1.92.34,3.24.75-.23.55-.48,1.06-.66,1.4Z"/>
  <path d="m92.68,57.38c.25-1.26.66-3.36-.95-4.59-.39-.33-1.84-1.41-3.8-1.43-1.71,0-5.09,1.11-5.74,1.34l-.32.11-.26.21c-.7.55-1.66,2.04-.84,4.16.55,1.43,1.26,2.69,1.29,2.74l.07.12c.46.7,1.52,1.48,3.03,1.48.08,0,.17,0,.25,0,.06,0,6.57-.59,7.26-4.12Zm-3.88-1.01c-.57.46-2.47,1.02-3.5,1.12-.18-.34-.42-.84-.65-1.39,1.33-.41,2.68-.73,3.24-.75.39,0,.76.17,1.01.32-.02.15-.05.38-.1.7Z"/>
  <path d="m110.89,53.93c-.05-.27-.1-.59-.16-.94-.39-2.48-1.05-6.63-3.91-9.45-3.15-3.1-7.33-5.02-12.08-5.54-.53-.06-1.09-.07-1.7-.04l-.26.02c-5.03.4-9.58,2.37-12.82,5.56-2.86,2.82-3.52,6.97-3.91,9.45-.06.35-.11.67-.16.94-.48,2.5.62,5.73,1.43,8.09l.05.14c.33.95.6,1.94.85,2.81.27.94.52,1.83.79,2.54.47,1.25,1.61,2.09,3.12,2.31l.62.02c.3.02.74.02,1.53.02.28,0,.59,0,.92,0,.09.37.19,1.07.19,2.28v.42l.17.38c.47,1.08,1.45,1.83,2.62,2,.7.11,1.4,0,2.05-.28.52.26,1.09.4,1.67.4h0c.47,0,.93-.09,1.35-.26.45.26.93.41,1.43.43.04,0,.09,0,.13,0,.52,0,1.02-.13,1.5-.4.96.31,1.93.23,2.37.19.96-.09,1.82-.55,2.43-1.31.61-.77.89-1.77.76-2.74-.06-.49-.09-.85-.09-1.13.77,0,1.74,0,2.07,0h.66s.16-.01.16-.01c1.51-.22,2.65-1.06,3.12-2.31.27-.72.52-1.61.79-2.54.25-.87.52-1.86.85-2.81l.04-.13c1-2.95,1.87-5.79,1.43-8.1Zm-5.22,6.81l-.05.13c-.36,1.06-.65,2.1-.91,3.01-.21.76-.4,1.43-.58,1.95h-.27c-.5,0-2.85,0-3.13,0-.81,0-1.54.34-2.07.95-.77.88-1.03,2.25-.82,4.27-.04,0-.07,0-.1,0l-1.27-2.2-1.63,1.94-1.4-1.99-1.6,2.13-1.48-1.95-1.08,1.25c-.19-1.81-.81-3.99-2.95-4.35l-.31-.03c-.64,0-1.26,0-1.78,0-.37,0-.69,0-.91,0l-.69-.02c-.18-.53-.37-1.2-.58-1.96-.26-.92-.55-1.96-.91-3.01l-.05-.14c-.55-1.61-1.56-4.59-1.29-6.05.06-.3.12-.66.18-1.06.34-2.12.85-5.34,2.77-7.23,2.57-2.53,6.23-4.1,10.29-4.42h.21c.39-.03.73-.03,1.04,0,3.85.42,7.21,1.95,9.71,4.41,1.92,1.89,2.43,5.1,2.77,7.23.06.4.12.76.18,1.06.28,1.46-.74,4.45-1.29,6.06Z"/>
  <rect x="91.38" y="61.15" width="4" height="4.36"/>
</svg>