<?xml version="1.0" encoding="UTF-8"?>
<svg id="Livello_3" data-name="Livello 3" xmlns="http://www.w3.org/2000/svg" viewBox="0 0 120 120">
  <path d="m47.88,28.26c.21.65.4,1.27.63,1.8.26.61.97,1.67,2.76,1.9l.5.02c.18.01.42.02.76.02.19,0,.42,0,.68,0,0,.05.02.1.03.16.31,1.97,1.96,3.39,3.94,3.39h5.72c2.06,0,3.74-1.55,3.91-3.57.48,0,.96,0,1.13,0h.54s.14-.01.14-.01c1.8-.23,2.5-1.29,2.76-1.9.22-.52.42-1.14.63-1.79.19-.58.39-1.23.67-1.96.81-2.12,1.51-4.17,1.13-5.95-.04-.18-.07-.38-.12-.61-.3-1.66-.85-4.76-3.21-6.83-2.48-2.17-5.76-3.5-9.48-3.87-.42-.04-.86-.05-1.34-.02h-.22c-3.93.29-7.5,1.66-10.05,3.89-2.36,2.06-2.91,5.16-3.21,6.82-.04.23-.08.44-.12.61-.38,1.78.32,3.83,1.17,6.04.25.65.45,1.29.64,1.87Zm2.11-7.07c.05-.21.09-.47.14-.75.24-1.35.6-3.38,1.91-4.52,1.9-1.66,4.63-2.69,7.67-2.9h.16c.29-.02.54-.02.76,0,3.64.35,5.94,1.77,7.23,2.9,1.3,1.14,1.67,3.17,1.91,4.52.05.28.1.54.14.75.16.77-.62,2.81-.99,3.77-.28.72-.51,1.44-.71,2.09-.1.33-.21.64-.3.92-.5,0-2.12,0-2.32,0-.96,0-2.59.48-2.74,3.56h-5.64c-.42-2.66-1.65-3.38-2.61-3.53l-.28-.02c-.26,0-.52,0-.76,0-.22,0-.42,0-.61,0-.25,0-.48,0-.64,0l-.3-.02c-.1-.28-.2-.6-.3-.93-.21-.65-.44-1.37-.75-2.18-.33-.87-1.12-2.91-.95-3.68Z"/>
  <path d="m64.16,23.74h0c.39,0,1.77.34,2.95.72l1.25-3.8c-.66-.22-2.91-.92-4.21-.92h-.03c-1.69.02-2.88.96-3.11,1.15l2.59,3.05s.29-.19.55-.19Z"/>
  <path d="m55.65,23.74h0c.25,0,.51.16.58.22l2.56-3.07c-.22-.19-1.41-1.13-3.11-1.15h-.03c-1.29,0-3.54.71-4.21.92l1.25,3.8c1.18-.39,2.55-.72,2.95-.72Z"/>
  <rect x="57.85" y="25.2" width="4" height="2.92"/>
  <path d="m85.84,63.86c-.66-.62-1.28-1.29-1.83-1.99-.49-.62-.94-1.27-1.34-1.94,0-2-.02-3.44-.04-4.63-.02-1.74-.04-2.9.01-4.5.03-.89-.27-1.76-.83-2.45-1.91-2.36-3.02-3.82-4.42-5.67-1.14-1.5-2.48-3.26-4.58-5.95-1.18-1.51-3.43-1.27-4.27-1.18-.84.09-1.77.27-2.85.47-1.15.22-2.41.46-3.73.62v-.65s-4,0-4,0v.81c-1.39,0-3.4-.47-5.19-.89-1.36-.32-2.64-.63-3.7-.74-1.74-.19-3.42.6-4.3,2.01l-7.11,11.5c-.36.58-.55,1.24-.55,1.92v9.53c-.37.96-.92,1.86-1.63,2.67-.35.4-.74.77-1.16,1.12-1.38,1.14-1.73,3.09-.84,4.64l.83,1.45,3.46-2-.69-1.19c.5-.43.96-.89,1.39-1.37.05-.05.09-.11.13-.16l.38,1.12,3.79-1.28-1.67-4.96v-9.45l7.06-11.41c.04-.06.22-.16.46-.14.81.09,1.98.37,3.21.66,2,.48,4.24,1.01,6.12,1v15.3c-1.68.03-3.39.08-5.08.18l-1.4-1.37c.96.17,2.02.29,3.18.29.3,0,.6,0,.91-.02l-.21-4c-2.45.13-4.47-.44-5.69-.91l.48-1.86c1.02.37,2.34.65,4.07.65.29,0,.6,0,.91-.02l-.21-4c-1.99.1-3.14-.24-3.76-.55l.58-2.25-3.87-1-2.44,9.43c-.51,1.99,0,3.92,1.4,5.29l3.34,3.27c.74.73,1.78,1.11,2.82,1.05,1.66-.1,3.32-.15,4.98-.18v3.27c-.32-.17-.62-.39-.89-.68-.85-.88-2.08-1.32-3.28-1.18-1.36.17-3.47.29-4.31.34-1.06.06-2.04.56-2.72,1.45-.76,1.01-.94,2.31-.47,3.49.25.63.66,1.16,1.18,1.56l2.39,37.23-7.96,1.22h-2.18v4h2.18c.19,0,.38-.01.57-.04l8.27-1.26c.11-.02.2-.05.31-.08l3.72,1.46,1.46-3.72-2.37-.93c.02-.2.03-.4.02-.6l-2.29-35.68c1.55.68,3.52,1.7,5.48,2.91.35.21.75.33,1.15.33h4.53c.41,0,.81-.11,1.24-.38,1.32-.82,2.65-1.65,3.83-2.32l-2.26,35.14c-.01.2,0,.4.02.59l-2.38.95,1.48,3.72,3.69-1.47c.11.03.22.07.33.08l8.26,1.26c.19.03.38.04.57.04h2.18v-4h-2.14s-8-1.22-8-1.22l2.37-36.87c.8-.39,1.43-1.06,1.77-1.92.47-1.18.29-2.48-.52-3.55-.64-.82-1.61-1.32-2.68-1.38-.84-.05-2.95-.17-4.31-.34-1.2-.15-2.43.29-3.28,1.18-.28.28-.57.51-.9.68h0s-.04,0-.04,0v-3.28c1.78.04,2.94.14,3.82.22.64.06,1.13.09,1.57.1h.02c1.18,0,2.29-.58,2.98-1.55.68-.95,1.31-1.94,1.89-2.92,1.14-1.94,1.43-4.31.81-6.5-.8-2.84-1.19-4.02-1.96-6.39l-.57-1.76-3.8,1.24.58,1.77c.06.17.11.32.16.48-.66.28-1.77.56-3.58.46l-.21,4c.32.02.62.02.91.02,1.73,0,3.06-.27,4.08-.65.16.54.33,1.14.53,1.85-1.21.48-3.25,1.07-5.75.93l-.21,4c.31.02.61.02.91.02,1.5,0,2.85-.19,4.01-.46-.31.49-.63.98-.97,1.45-.3-.01-.64-.04-1.06-.08-.9-.08-2.19-.19-4.17-.23v-15.42c1.65-.17,3.18-.47,4.48-.72.98-.19,1.83-.35,2.5-.42.48-.05.77-.05.94-.03,1.96,2.51,3.23,4.18,4.32,5.61,1.41,1.86,2.53,3.33,4.44,5.69-.05,1.63-.03,2.87-.01,4.56.01,1.18.03,2.61.04,4.59l-1.92,5.44,3.77,1.33.69-1.95c.53.64,1.1,1.26,1.7,1.85l-1.11,2.15,3.55,1.84,1.23-2.38c.76-1.46.46-3.21-.75-4.35Zm-20.12,1.62c.77.09,1.71.17,2.59.23-1.63.71-3.61,1.92-6.07,3.45h-3.51c-2.12-1.28-4.77-2.66-6.89-3.47.83-.06,1.69-.14,2.37-.24,1.49,1.54,3.16,2.05,4.3,2.2.56.07,1.03.07,1.37.04l.08.02.12-.02c.34.03.83.04,1.42-.04,1.13-.15,2.8-.65,4.22-2.18Z"/>
</svg>