<?xml version="1.0" encoding="UTF-8"?>
<svg id="Livello_3" data-name="Livello 3" xmlns="http://www.w3.org/2000/svg" viewBox="0 0 120 120">
  <path d="m70.26,86.57c-.38-.66-1.09-1.07-1.85-1.07h-16.81c-.76,0-1.47.41-1.85,1.07-.38.66-.38,1.48,0,2.14l5.3,9.19-5.31,9.41c-.37.66-.36,1.48.02,2.14.38.65,1.09,1.05,1.84,1.05h.02l16.81-.15c.76,0,1.47-.42,1.84-1.09.38-.66.37-1.48-.02-2.14l-5.35-9.1,5.36-9.31c.38-.66.38-1.48,0-2.14Zm-9.37,10.39c-.38.67-.38,1.49.02,2.15l4.27,7.26-10.38.09,4.25-7.53c.37-.66.36-1.48-.01-2.12l-4.22-7.32h10.38l-4.3,7.47Z"/>
  <path d="m81.55,61.4c.41-1.08.78-2.39,1.2-3.9.39-1.38.83-2.94,1.35-4.47l.07-.21c1.15-3.39,2.9-8.51,2.2-12.14-.08-.43-.16-.94-.25-1.51-.6-3.76-1.59-10.05-5.82-14.21-4.76-4.69-11.08-7.59-18.29-8.38-.77-.09-1.58-.1-2.49-.05l-.39.02c-7.63.6-14.52,3.59-19.41,8.41-4.22,4.16-5.22,10.45-5.82,14.21-.09.57-.17,1.08-.25,1.51-.69,3.63,1.05,8.75,2.2,12.14l.07.21c.52,1.53.96,3.09,1.35,4.47.43,1.51.79,2.82,1.2,3.9.58,1.53,1.92,2.55,3.8,2.88.18,1.91.46,4.84.55,5.81.4,4.81,3.65,6.32,4.67,6.77,1.02,1.04,3.5,3.27,4.88,4.5.7.62,1.6.97,2.55.97h10.16c.94,0,1.85-.34,2.55-.97,1.38-1.23,3.85-3.46,4.83-4.46,1.07-.5,4.32-2,4.72-6.82.08-.97.36-3.9.55-5.81,1.88-.33,3.23-1.35,3.8-2.88Zm-8.38,8.35c-.19,2.28-1.29,2.97-2.39,3.48-.43.2-.81.46-1.13.79-.96.98-3.5,3.26-4.62,4.26h-10.01c-2.26-2.02-3.94-3.57-4.62-4.26-.32-.32-.7-.59-1.13-.79-1.11-.51-2.2-1.2-2.39-3.48-.08-.9-.32-3.48-.5-5.39.5,0,1.03,0,1.59,0,.19.37.61,1.53.61,4.68v.42l.17.39c.58,1.34,1.8,2.27,3.26,2.49,1.05.16,2.12-.06,3.08-.61.8.51,1.69.78,2.59.78h0c.81,0,1.58-.21,2.29-.62.77.51,1.5.67,2.08.71.08,0,.16,0,.24,0,.9,0,1.78-.29,2.64-.86.55.35,1.09.52,1.54.61,2.28.41,4.24-1.16,4.46-1.33l.83-.69-.11-1.07c-.2-1.91-.05-4.15.3-4.94.4,0,1.05,0,1.74,0-.18,1.91-.43,4.52-.51,5.43Zm7.1-18.03c-.55,1.63-1.01,3.25-1.41,4.67-.4,1.42-.75,2.65-1.09,3.57-.05.13-.38.27-.81.33-.18.03-.34.07-.51.12v-.15c-.79,0-4.47.01-4.89.01-.96,0-1.86.42-2.52,1.16-1.48,1.65-1.6,4.89-1.52,6.9-.13.04-.25.06-.34.04-.1-.02-.25-.18-.39-.42l-1.4-2.44-1.87,2.11c-.71.81-1.15.95-1.24.95-.04,0-.26-.13-.57-.57l-1.6-2.28-1.68,2.23c-.15.2-.45.53-.76.53h0c-.28,0-.62-.23-.91-.62l-1.51-1.99-1.63,1.89c-.41.48-.78.62-1,.59-.03-2.55-.35-7.42-3.81-8l-.31-.03c-.99,0-1.96,0-2.77,0-.8,0-1.71,0-1.92-.01.03,0,.26.02.55.15l-.1.22c-.36-.18-.74-.31-1.15-.37-.43-.06-.76-.2-.81-.33-.35-.92-.69-2.15-1.09-3.57-.4-1.43-.86-3.05-1.41-4.67l-.07-.21c-.07-.21-.15-.44-.22-.66.29.06.59.11.91.11.58,0,1.18-.14,1.74-.58.55-.43,1.17-1.27,1.04-2.83-.15-1.85-.11-4.2,0-5.02.23-.53,1.32-1.92,1.91-2.67.45-.58.87-1.12,1.15-1.52,1.38-1.99.29-5.16-.07-6.08l-3.77,1.49c.29.73.55,1.93.46,2.36-.24.34-.59.78-.96,1.26-1.56,1.99-2.52,3.28-2.7,4.42-.16.96-.21,2.92-.14,4.75-.31-.06-.61-.05-.9-.02-.47-1.89-.77-3.76-.52-5.07.09-.47.18-1.02.27-1.64.55-3.48,1.38-8.73,4.66-11.96,4.21-4.15,10.21-6.73,16.86-7.25l.33-.02c.68-.04,1.27-.03,1.82.03,6.29.69,11.79,3.19,15.89,7.24,3.27,3.23,4.11,8.48,4.66,11.96.1.62.19,1.17.27,1.64.23,1.21,0,2.88-.41,4.6-.33-.02-.67-.01-1.01.05.07-1.79.02-3.78-.14-4.75-.19-1.14-1.15-2.43-2.7-4.42-.37-.48-.72-.91-.96-1.25-.08-.4.14-1.54.46-2.37l-1.88-.74-1.88-.74c-.36.92-1.45,4.09-.07,6.08.28.4.69.94,1.15,1.52.59.76,1.68,2.15,1.91,2.67.11.82.16,3.17,0,5.02-.13,1.56.5,2.4,1.04,2.83.56.44,1.17.58,1.74.58.38,0,.75-.06,1.07-.15-.14.4-.27.79-.39,1.14l-.07.21Z"/>
  <path d="m58.76,48.89c.33-1.66.82-4.17-1.03-5.58-.45-.38-2.27-1.78-4.76-1.81-.02,0-.03,0-.05,0-2.28,0-6.68,1.49-7.55,1.79l-.32.11-.27.21c-.8.63-1.9,2.36-.93,4.87.73,1.9,1.68,3.58,1.72,3.65l.07.12c.53.81,1.77,1.71,3.55,1.71.1,0,.2,0,.31,0,.08,0,8.43-.82,9.26-5.06Zm-3.95-.88c-.61.79-4.01,1.81-5.54,1.9-.16,0-.26,0-.32-.03-.27-.5-.85-1.64-1.32-2.85-.03-.08-.05-.14-.07-.2,1.87-.6,4.33-1.28,5.34-1.28h.02c.99,0,1.83.58,2.1.78,0,.23-.03.7-.22,1.68Z"/>
  <path d="m75.13,43.62l-.27-.21-.32-.11c-.86-.3-5.27-1.79-7.55-1.79-.02,0-.03,0-.05,0-2.49.02-4.31,1.43-4.76,1.81-1.85,1.42-1.36,3.92-1.03,5.58.84,4.24,9.18,5.06,9.26,5.06.1,0,.21,0,.31,0,1.78,0,3.02-.9,3.55-1.71l.07-.12c.04-.07.99-1.75,1.72-3.65.97-2.51-.13-4.24-.93-4.87Zm-2.85,3.42c-.47,1.21-1.06,2.35-1.32,2.85-.06.02-.16.04-.32.03-1.53-.09-4.93-1.11-5.54-1.9-.19-.98-.22-1.45-.22-1.68.27-.2,1.11-.77,2.1-.78h.02c1.01,0,3.47.67,5.34,1.28-.02.06-.04.13-.07.2Z"/>
  <path d="m61.93,51.83c-.42-.59-1.11-.94-1.84-.94s-1.42.35-1.84.94c-3.92,5.46-3.6,7.44-3.5,8.09.43,2.68,3.28,4.11,4.49,4.6.27.11.56.17.85.17s.58-.06.86-.17c1.21-.49,4.05-1.92,4.48-4.6.1-.65.42-2.62-3.5-8.09h0Zm-1.84,8.62c-.79-.43-1.3-.93-1.34-1.11,0-.37.43-1.44,1.34-2.96.91,1.51,1.33,2.57,1.34,2.89-.04.23-.55.74-1.34,1.17Z"/>
  <path d="m59.98,41.02c.88,0,1.75-.28,2.49-.84l2.73-2.06-2.43-3.24-2.73,2.06s-.06.03-.11,0l-2.98-2.1-2.33,3.31,2.98,2.1c.72.51,1.55.76,2.38.76Z"/>
  <path d="m18.79,26.65c.6.19,2.01,1.13,5.29,4.36l3.36,3.51c.58.61,1.37.94,2.2.94.15,0,.31-.01.47-.04.98-.15,1.83-.78,2.27-1.69.65-1.34,1.33-3.23,1.36-3.32.45-1.26.94-2.37,1.49-3.4.59-1.11.28-2.47-.73-3.22l-2.16-1.62-.44-.37c-1.37-1.16-3.19-2.71-4.29-4.35.07-1.59-.16-4.53-1.6-5.96-1.19-1.17-4.78-2.26-6.4-1.95-2.22.43-3.77,1.66-4.73,3.76-.17.37-1.08.84-1.69,1.15-.96.49-1.95,1-2.45,1.99-.76,1.48-2.53,4.93.4,8.05,2.81,2.98,5.42,2.71,7.66,2.14Zm-4.6-8.17c.19-.12.56-.32.82-.45,1.16-.6,2.75-1.42,3.5-3.05.48-1.05,1.02-1.33,1.78-1.48.58,0,2.36.51,2.9.87.34.56.52,2.54.41,3.21l-.14.73.37.65c1.39,2.45,3.76,4.46,5.49,5.93l1.81,1.41c-.41.87-.79,1.79-1.15,2.79,0,.01-.28.79-.64,1.64l-2.26-2.37-.19-.19c-3.58-3.53-6.05-5.54-8.12-5.54-.27,0-.53.03-.79.1-1.64.43-2.49.58-3.94-.96-.76-.8-.73-1.53.15-3.29Z"/>
  <path d="m39.91,65.28c-.78-.5-1.76-.53-2.58-.09-.46.25-.9.54-1.31.86l-8,6.63-5.15,3.99c-.79.6-2.11,1.61-2.87,1.92-.6.24-1.22.33-1.8.25-3.6-.49-5.08.32-6.68,2.07-1.83,2-2.49,4.91-1.65,7.23.38,1.06,1.26,1.68,2.11,2.27.62.44,1.33.93,1.48,1.39.73,2.31,2.1,3.73,4.17,4.35.28.08.61.12.99.12,1.76,0,4.32-.86,5.34-1.92,1.29-1.34,1.96-4.07,2.04-5.71.79-1.23,1.83-2.03,2.92-2.87.49-.38.99-.76,1.46-1.19l11.79-9.56-1.05-7.64c-.03-.86-.48-1.65-1.2-2.11Zm-12.09,16.24l-.08.07c-.37.33-.8.67-1.26,1.02-1.34,1.03-3,2.32-4.22,4.52l-.28.58.04.58c.04.66-.49,2.81-.89,3.24-.39.31-1.87.76-2.45.76h0c-.52-.17-1.01-.47-1.4-1.69-.56-1.75-1.97-2.74-3-3.46-.22-.16-.54-.38-.7-.51-.25-.92.12-2.16.9-3.01.79-.87,1-1.1,3.19-.81,1.27.17,2.6,0,3.85-.51,1.26-.51,2.72-1.63,3.79-2.45l5.22-4.04,6.92-5.73.45,3.28-10.07,8.17Z"/>
  <path d="m86.27,30.44c.03.08.71,1.97,1.36,3.31.44.9,1.28,1.53,2.27,1.69.16.02.31.04.47.04.82,0,1.62-.34,2.2-.94l3.17-3.32.19-.19c3.28-3.24,4.69-4.18,5.29-4.36,2.24.57,4.85.85,7.66-2.14,2.93-3.11,1.16-6.57.4-8.05-.51-.99-1.5-1.5-2.45-1.99-.61-.31-1.52-.79-1.69-1.15-.96-2.1-2.5-3.33-4.73-3.76-1.63-.31-5.22.78-6.4,1.95-1.45,1.43-1.67,4.37-1.6,5.96-1.1,1.65-2.93,3.2-4.29,4.35l-2.6,1.99c-1.01.76-1.32,2.11-.73,3.22.54,1.02,1.03,2.13,1.48,3.4Zm3.85-5.07l.58-.49c1.73-1.47,4.1-3.48,5.49-5.93l.34-.67-.12-.7c-.11-.67.07-2.66.41-3.22.54-.35,2.3-.93,2.82-.88.83.16,1.38.45,1.85,1.49.74,1.63,2.33,2.45,3.5,3.05.26.13.63.33.82.45.88,1.76.9,2.49.15,3.29-1.45,1.54-2.3,1.39-3.94.96-2.25-.59-4.87,1.45-8.91,5.44l-2.45,2.55c-.35-.86-.63-1.63-.63-1.64-.36-1-.74-1.92-1.15-2.79l1.24-.93Z"/>
  <path d="m101.8,78.84c-.58.08-1.21,0-1.8-.25-.76-.31-2.08-1.32-2.87-1.92l-5.1-3.95-8.01-6.63-.04-.03c-.41-.32-.85-.61-1.31-.86-.81-.44-1.8-.4-2.58.1-.72.46-1.17,1.25-1.2,2.11l-1.05,7.64,11.79,9.56c.47.42.98.81,1.46,1.19,1.09.84,2.12,1.64,2.92,2.87.08,1.64.75,4.37,2.04,5.71,1.02,1.06,3.58,1.92,5.34,1.92.37,0,.71-.04.98-.12,2.08-.62,3.44-2.04,4.18-4.35.15-.46.85-.96,1.48-1.39.85-.6,1.73-1.21,2.11-2.27.84-2.32.18-5.22-1.65-7.23-1.6-1.76-3.08-2.56-6.68-2.07Zm4.62,7.78c-.16.14-.47.36-.7.51-1.03.72-2.44,1.71-3,3.46-.39,1.23-.88,1.53-1.4,1.7h0c-.58,0-2.05-.45-2.4-.71-.45-.47-.98-2.63-.94-3.27l.07-.63-.31-.55c-1.22-2.2-2.88-3.48-4.22-4.52-.46-.35-.89-.69-1.26-1.02l-10.16-8.24.45-3.28,6.97,5.77,5.17,4c1.07.82,2.53,1.94,3.79,2.45,1.24.51,2.57.68,3.84.51,2.19-.29,2.4-.06,3.19.81.78.86,1.14,2.09.9,3.01Z"/>
</svg>