<?xml version="1.0" encoding="UTF-8"?>
<svg id="Livello_3" data-name="Livello 3" xmlns="http://www.w3.org/2000/svg" viewBox="0 0 120 120">
  <path d="m102.79,90.99c-1.17-.05-2.59.16-3.97.36-1.15.17-2.46.36-3.09.29-1.21-.11-4.9-1.12-11.61-3.6-1.21-.45-3.28-1.17-5.92-2.09-10.48-3.66-29.99-10.46-42.15-16.29-4.98-2.14-5.69-3.69-6.16-4.71-.15-.34-.31-.68-.55-1.04-1.06-1.57-1.61-1.86-3.68-2.92l-.37-.19c-2.35-1.21-4.17-1.5-6.1-.94-1.93.55-3.41,2.32-3.54,4.21-.03.48.03.98.08,1.46.04.33.09.74.08,1.04-2.13.49-4.88,1.53-5.94,3.69-.69,1.4-.36,3.14.93,4.87,1.69,2.29,4.88,4.37,7.65,3.93.76-.1,1.48-.22,2.17-.33,2.15-.34,3.84-.62,5.2-.19.39.12,40.34,12.81,61.73,23.67,1.77,1.1,2.39,2.24,2.98,3.34l.16.3c.93,1.74,1.73,2.4,5.99,4.08.81.3,1.63.44,2.42.44,1.52,0,2.94-.54,4.03-1.59,1.2-1.16,1.69-2.65,1.29-3.89-.16-.48-.12-1.13-.06-1.45.29-.12.76-.27,1.1-.38,1.3-.41,2.64-.84,3.51-1.72,1.76-1.76,1.98-3.88.61-5.95-1.13-1.71-3.87-4.29-6.79-4.41Zm3.37,7.52c-.27.23-1.34.57-1.92.75-1.33.42-2.37.76-3.02,1.6-.97,1.27-1.09,3.36-.73,4.87-.1.14-.3.33-.59.47-.52.24-1.14.23-1.81,0-3.41-1.35-3.55-1.61-3.88-2.23l-.17-.31c-.69-1.28-1.74-3.22-4.48-4.9l-.14-.08c-21.65-11.01-62.02-23.83-62.42-23.96-.92-.29-1.86-.4-2.81-.4-1.37,0-2.77.22-4.22.46-.66.1-1.34.22-2.12.32-.51.09-1.57-.24-2.69-1.15-1.01-.82-1.53-1.68-1.64-2.05.35-.44,1.52-1.06,3.19-1.44,1.52-.35,2.65-1.42,2.96-2.79,0,0,0,0,0,0,.21-.94.1-1.87,0-2.62-.03-.24-.07-.6-.06-.71.01-.17.32-.54.65-.63.46-.13,1.23-.35,3.16.65l.38.19q1.71.88,2.19,1.6c.05.08.14.27.23.46.88,1.93,2.31,4.2,8.14,6.7,12.29,5.89,31.94,12.74,42.49,16.42,2.62.91,4.65,1.62,5.85,2.07,3.58,1.32,9.99,3.58,12.62,3.83,1.12.11,2.54-.1,4.04-.32,1.2-.17,2.43-.35,3.24-.32,1.07.04,2.85,1.47,3.61,2.62.22.33.23.48.23.48,0,0-.04.14-.31.42Z"/>
  <path d="m45.57,87.65c-1.19-.42-2.39-.85-3.58-1.28l-.67-.25-.68.24c-2.09.73-3.73,1.3-4.76,1.69-6.71,2.48-10.4,3.49-11.61,3.6-.64.06-1.94-.13-3.09-.29-1.38-.2-2.8-.41-3.97-.36-2.92.12-5.66,2.7-6.79,4.41-1.37,2.07-1.16,4.19.61,5.95.88.88,2.22,1.31,3.51,1.72.34.11.8.26,1.09.37.08.35.11.98-.04,1.45-.4,1.24.09,2.73,1.29,3.89,1.08,1.04,2.49,1.59,4.02,1.59.8,0,1.64-.15,2.48-.46,4.21-1.66,5.01-2.32,5.94-4.06l.16-.3c.59-1.1,1.21-2.24,2.98-3.34,4.98-2.53,11.49-5.4,19.37-8.55l4.71-1.88-5.14-2c-1.92-.74-3.9-1.44-5.82-2.12Zm-15,11.03l-.14.08c-2.74,1.68-3.79,3.62-4.48,4.9l-.17.31c-.33.62-.47.88-3.83,2.21-.72.26-1.35.27-1.86.03-.29-.14-.49-.33-.59-.47.37-1.51.24-3.6-.73-4.87-.64-.84-1.69-1.18-3.02-1.6-.58-.18-1.65-.53-1.9-.74-.29-.29-.33-.43-.33-.43,0,0,0-.15.23-.48.76-1.15,2.54-2.58,3.61-2.62.81-.03,2.04.15,3.24.32,1.5.22,2.92.42,4.04.32,2.64-.25,9.04-2.51,12.62-3.83.9-.33,2.28-.82,4.02-1.43.98.36,1.97.7,2.95,1.05.44.15.88.31,1.32.47-5.92,2.46-10.95,4.73-14.99,6.79Z"/>
  <path d="m68.53,76.22l-5.12,2,6.05,2.04c2.15.73,4.37,1.48,6.57,2.15l3.44,1.03.61-.21c7.49-2.58,13.11-4.39,14.1-4.7,1.36-.42,3.05-.15,5.2.19.69.11,1.41.23,2.12.32,2.81.45,6.01-1.63,7.7-3.92,1.29-1.74,1.61-3.47.93-4.87h0c-1.04-2.13-3.73-3.17-5.94-3.7,0-.3.04-.71.08-1.03.06-.48.12-.97.08-1.46-.13-1.89-1.62-3.66-3.54-4.21-1.93-.55-3.76-.27-6.1.94l-.37.19c-2.07,1.07-2.62,1.35-3.68,2.92-.24.35-.4.7-.55,1.04-.47,1.03-1.17,2.58-6.23,4.75-3.96,1.9-9.12,4.09-15.35,6.52Zm25.22-9.61c.09-.19.17-.38.23-.46q.48-.72,2.19-1.6l.38-.19c1.94-1,2.7-.78,3.16-.65.33.1.64.46.65.63,0,.12-.04.48-.06.71-.09.75-.2,1.68,0,2.62.31,1.37,1.44,2.44,2.96,2.79,1.85.43,2.88,1.06,3.2,1.44-.1.37-.62,1.23-1.64,2.05-1.12.91-2.18,1.23-2.74,1.14-.72-.1-1.41-.21-2.06-.31-2.45-.39-4.77-.77-7.03-.06-.97.3-6.37,2.04-13.6,4.52l-2.19-.66c-.7-.21-1.41-.44-2.12-.67,4.1-1.67,7.61-3.21,10.46-4.58,5.91-2.54,7.34-4.8,8.22-6.73Z"/>
  <path d="m40.99,57.67h.02c.84.16,5.82.97,10.36-.82v.04c.06,0,4.79-.6,7.64,6.69,1.72,4.39,6.19,5.26,9.47,5.26,1.74,0,3.15-.24,3.64-.34l4.56-.27c2.47-.14,5.57-2.99,5.93-5.4l1.83-8.24c.22-.43.32-.91.24-1.41l-1.25-8.28c-.12-.8-.64-1.47-1.38-1.79-.51-.22-1.07-.25-1.58-.1.14-1.22.62-3.44,1.7-6.67.3-.9.03-1.88-.69-2.5-.31-.26-.56-.49-.77-.67.4-.77.85-1.83,1.33-3.29.16-.48.16-.99,0-1.46-1.21-3.69-9.3-17.24-21.34-18.79l-.27-.03h-.2c-9.22.5-16.38,2.27-21.28,5.28-3.6,2.21-4.86,4.42-5.24,5.28-6.83,10.97-6.64,18.42-4.13,26.89,2.62,8.8,11.04,10.54,11.4,10.6Zm37.69,4.39l-.03.2c-.14.61-1.58,1.91-2.2,1.99l-4.7.27-.31.04c-.07.02-7.15,1.51-8.69-2.43-1.89-4.83-4.59-7.16-6.94-8.26.65-.71,1.24-1.54,1.74-2.51l4.11-.6,1.53,4.67c.1.31.27.61.5.86,1.79,1.97,3.45,2.94,5.06,2.94.15,0,.3,0,.44-.02,1.57-.17,2.6-1.22,3.27-2.16,1.3.75,2.45.8,3.25.68,1.13-.18,2.17-.79,3.01-1.74.41.19.83.3,1.24.37l-1.27,5.72ZM37.16,22.21l.21-.4c.03-.07,3.16-7.11,22.93-8.18,9.94,1.38,16.46,12.65,17.75,15.57-.68,1.94-1.23,2.74-1.34,2.89-.65.88-.59,2.11.14,2.92.25.28.65.67,1.17,1.14-2.69,8.43-1.47,9.96-.09,10.72.48.26.95.44,1.41.53.14.03.28.04.42.04l.74,4.95c-.19-.04-.31-.14-.38-.19-.66-.49-1.5-.68-2.29-.53-.78.15-1.46.63-1.88,1.3-.27.43-.62.75-.89.8-.26.04-.66-.16-1.11-.54-.64-.55-1.49-.78-2.33-.63-.85.15-1.58.67-2.01,1.42-.42.74-.72,1.15-.88,1.22-.01,0-.59-.03-1.88-1.37l-1.86-5.68c-.35-1.08-1.43-1.74-2.55-1.58l-6.4.93c-.82.12-1.49.65-1.81,1.4-.46,1.1-3.25,6.53-12.5,4.82-.37-.08-6.44-1.45-8.33-7.82-2.26-7.61-2.37-13.94,3.74-23.71Z"/>
  <path d="m62.95,38.75c.91,2.41,5.16,4.27,6.94,4.96l1.82.7.75-1.81c.94-2.28,3.13-7.79,3.13-9.76v-.8l-.55-.58c-.22-.23-2.27-2.23-6.13-1.14-3.31.94-4.21,2.73-5.35,5.01-.15.3-.31.61-.48.95-.39.76-.44,1.64-.12,2.47Zm4.18-1.62c1.01-2.02,1.25-2.49,2.86-2.95.56-.16,1-.19,1.34-.16-.36,1.26-1.06,3.22-1.81,5.16-1.14-.56-2.14-1.18-2.61-1.61.08-.15.15-.3.22-.44Z"/>
  <path d="m38.62,51.21c1.92,1.44,3.83,2.02,5.55,2.02,2.2,0,4.1-.96,5.31-2.34.72-.82,1.18-1.75,1.41-2.7l9.59-4.52c.61-.25,1.1-.75,1.35-1.39.3-.75.26-1.62-.14-2.38l-1.96-3.49,2.96-5.83c.42-.84.35-1.83-.15-2.6l-2.03-4.33-3.62,1.7,1.91,4.07-2.97,5.86c-.38.74-.37,1.63.05,2.41l1.66,2.95-7.27,3.42c-.21-.34-.45-.67-.74-.97-1.55-1.61-3.51-2.27-5.5-1.86-1.99.41-3.73,1.88-4.44,3.75l3.74,1.42c.23-.59.86-1.12,1.51-1.25.62-.13,1.24.11,1.82.72.75.78.39,1.77-.15,2.38-.94,1.07-2.94,1.65-5.47-.24-1.83-1.37-2.54-3.09-1.98-4.83.69-2.15,3.4-4.5,7.75-4.61l-.1-4c-5.49.13-10.09,3.1-11.46,7.39-1.08,3.39.19,6.85,3.39,9.25Z"/>
</svg>