<?xml version="1.0" encoding="UTF-8"?>
<svg id="Livello_3" data-name="Livello 3" xmlns="http://www.w3.org/2000/svg" viewBox="0 0 120 120">
  <path d="m110.37,35.63l-.06-.42-.22-.36c-1.02-1.66-2.8-2.51-5-2.43-2.68.11-5.73,1.67-7.05,3.53-4.53.26-8.44,2.68-10.34,4.07l-12.57-7.41h-5.55s-.09-.05-.14-.08c-.25-.14-.42-.24-.52-.67.98-.85,1.57-2.15,1.64-3.8.02-.61.38-1.21.96-1.64,1.37-1,2.36-2.44,2.88-4.18l.04-.16c.57-2.69-.05-5.24-1.77-7.37-2.22-2.74-5.94-4.22-8.3-4.22-5.66,0-9.47,3.02-10.2,8.09-.56,3.88.89,6.22,2.21,7.51.26.25.7.77.71,1.38.02,1.52.61,2.83,1.7,3.79.16.14.33.26.5.38-.14.49-.48.95-1.25,1.13-3.18-.02-3.29-.02-5.59.16l-.26.02-.25.09c-2.81.98-5.53,2.13-8.32,3.52-.1.05-.23.04-.35-.02-1.68-.89-2.82-1.57-3.74-2.11-.28-.17-.52-.31-.76-.45l12.6-22.5-3.49-1.95-12.29,21.94c-2.58-1.65-6.01-1.32-8.03-1.13-.28.03-.54.05-.76.07-.87.06-1.64.5-2.13,1.21-.48.7-.61,1.57-.35,2.38l.55,1.74.12.29c1.63,3.26,3.22,4.49,5.49,5l-3.28,5.49c-1.45.07-2.78.52-3.86,1.05-3.57-1.64-7.02-1.17-9.38,1.35-1.48,1.57-2.14,3.48-1.93,5.54.35,3.32,2.98,6.55,5.64,9.02l-2.87,5.13-1.45-.92c-.83-.52-1.89-.52-2.72,0-.82.52-1.25,1.43-1.12,2.38l.8,6.2h0c.09.7.48,1.32,1.07,1.72.42.29.92.43,1.42.43.21,0,.42-.03.63-.08l6.39-1.65c.97-.25,1.69-1.04,1.84-2.01.15-.96-.29-1.93-1.12-2.46l-2.36-1.49,2.61-4.67c.54.41,1.03.76,1.44,1.05l.35.23.24.05c.08.02.15.04.21.06l.28.06h.22s.02,0,.03,0c.32,0,.56-.07.69-.11.04-.01.08-.02.13-.04l.27-.07.31-.23c2.82-2.05,9.41-7.42,9.85-12.89.17-2.06-.55-3.96-2.07-5.5-.46-.47-.97-.84-1.5-1.16l2.88-4.83c5.97,5.58,14.14,3.43,17.53,2.18.16-.06.49-.11.8-.12.33,1.76.82,4.16,1.98,6.04.11,2.97-.27,8.91-.36,10.24-.7,2.02-4.89,14.37-5.12,23v.13s0,.13,0,.13c.53,5.15.82,8.72,1.05,11.59.15,1.89.29,3.55.46,5.24.05.47-.05.65-1.28,1.63-.38.3-.77.62-1.16.98-3.42,3.14-4.33,4.56-3.91,6.05.24.84.91,1.45,1.81,1.62,2.13.41,8.46-.67,11.23-2.76,1.13-.16,3.01-.65,3.99-2.06.6-.87.75-1.93.43-3l-1.33-2.58c-.07-.14-.04-.63-.02-.99l.02-.35c.1-2.04.29-3.8.45-5.35.36-3.46.65-6.2-.25-9.34l-.07-.26-.15-.24c1.24-1.55,2.8-5.28,4.04-8.84,1.29,4.57,2.47,7.52,3.49,8.78,0,.02,0,.1-.07.22-1.56,2.98-.44,12,.12,15.74.14.93-.07,1.21-.13,1.31l-1.14,1.6-.1.31c-.33,1.07-.18,2.13.43,3,.98,1.41,2.86,1.89,3.99,2.06,2.39,1.8,7.39,2.85,10.1,2.85.44,0,.83-.03,1.13-.09.89-.17,1.57-.78,1.81-1.62.42-1.49-.49-2.91-3.91-6.05-.39-.36-.79-.68-1.16-.98-1.23-.98-1.32-1.16-1.28-1.63.17-1.69.3-3.35.46-5.24.23-2.87.53-6.44,1.06-11.59v-.13s0-.13,0-.13c-.23-8.48-4.31-20.97-5.12-23.39.1-1.41.43-6.18.65-9.29,2.74-.97,3.63-2.85,3.87-4.66,7.65,4.43,8.77,4.3,9.4,4.22,1.42-.17,8.91-3.76,15.07-6.81,5.74-.91,8.1-3.62,7.42-8.49ZM14.07,74.06l-.17-1.3,1.5.95-1.34.34ZM59.19,23.23c-.95-.93-1.3-2.3-1.05-4.08.44-3.09,2.54-4.66,6.24-4.66,1.25,0,3.74.95,5.19,2.74.09.11.17.23.25.34-2.33-.01-5.06.31-6.43,1.69-.73.73-1.07,1.71-.95,2.73.33,2.81.36,3.82.36,3.82l4-.1c0-.11-.03-1.08-.34-3.76.69-.27,2.24-.4,3.92-.36-.28.66-.68,1.19-1.22,1.58-1.58,1.15-2.52,2.87-2.6,4.71-.04.99-.31,1.02-.62,1.06-1.98.22-3.79-.06-4.51-.69-.18-.16-.34-.37-.35-.85-.02-1.51-.7-3-1.91-4.18ZM23.56,63.15c-.26-.19-.52-.39-.78-.59l2.22-3.96-3.49-1.95-1.81,3.22c-1.97-1.95-3.5-4.05-3.68-5.83-.09-.9.18-1.65.86-2.38.72-.77,1.57-1.06,2.43-1.06,1.08,0,2.18.45,3.08.97l1.02.58,1.01-.61c.76-.46,2.25-1.2,3.66-1,.69.1,1.29.41,1.84.97.7.71,1,1.46.93,2.37-.23,2.86-3.88,6.62-7.28,9.27Zm78.5-22.94l-.32.05-.29.14c-5.76,2.85-12.29,5.94-13.93,6.51-1.27-.41-5.4-2.64-9.93-5.36-.68-.42-1.53-.41-2.21.01-.68.43-1.06,1.19-.98,1.98l.05.49c.26,2.72.23,3.37-2.12,3.81l-1.52.29-.1,1.55c-.22,3.23-.77,11.11-.77,11.11l-.03.41.13.39c.05.14,4.75,13.84,5.03,22.45-.53,5.12-.82,8.68-1.05,11.54-.15,1.87-.28,3.5-.45,5.17-.27,2.72,1.48,4.12,2.76,5.14.31.25.63.51.96.8.16.15.31.28.45.42-1.92-.41-3.95-1.08-4.58-1.75l-.54-.58-.79-.05c-.35-.02-.85-.12-1.23-.24l.34-.48c.8-1.12,1.09-2.54.84-4.22-1.12-7.58-.98-12.42-.53-13.3.8-1.53.67-3.25-.33-4.5-.68-.85-2.08-4.32-3.82-11.32l2.42-1.5-2.1-3.4-2.95,1.82-2.67-2.07-2.45,3.16,2.38,1.84c-1.39,4.77-3.53,10.11-4.6,11.45-1,1.24-1.16,2.94-.45,4.32.61,2.31.39,4.43.06,7.61-.17,1.6-.36,3.42-.47,5.57l-.02.31c-.05.83-.12,1.98.48,3.11l.83,1.57c-.36.13-.9.25-1.34.28l-.79.05-.54.58c-.62.67-2.66,1.33-4.58,1.75.14-.13.29-.27.45-.42.32-.29.65-.55.95-.8,1.28-1.02,3.03-2.42,2.76-5.14-.17-1.67-.3-3.3-.45-5.17-.23-2.87-.52-6.43-1.05-11.54.28-8.59,4.93-21.77,4.98-21.9l.09-.26.02-.27c.02-.33.57-8.24.35-11.57l-.04-.57-.33-.46c-.98-1.37-1.44-3.87-1.71-5.37l-.11-.59c-.14-.75-.61-1.39-1.32-1.78-1.48-.84-3.75-.44-4.62-.12-3.49,1.3-9.97,2.74-14.19-2.17-.8-.93-1.99-1.53-3.27-1.64-2.01-.17-2.78-.24-4.16-2.95l-.04-.12c1.83-.16,4.36-.23,5.42,1.09.61.76,1.27,1.31,2.02,1.69.37.18.85.47,1.45.83.9.54,2.14,1.27,3.91,2.21,1.25.66,2.75.69,4,.06,2.55-1.27,5.05-2.33,7.61-3.24,1.93-.15,2.06-.15,5.2-.12h.18s.17-.03.17-.03c2.58-.44,3.93-2.09,4.49-3.8.53.06,1.05.09,1.54.09.18,0,.34-.01.5-.02.41,1.55,1.23,2.35,2.35,2.99.11.06.22.12.32.2l.54.41h5.72l12.51,7.38c.89.52,2.02.44,2.81-.21.77-.63,4.85-3.78,9.32-3.85,1.06-.02,2.1-.67,2.59-1.63.26-.5,2.12-1.8,3.97-1.87.69-.02,1.03.13,1.23.29.18,1.61-.07,2.87-4.42,3.5Z"/>
  <path d="m93.57,27.27c-.43.74-.43,1.66,0,2.41.44.75,1.25,1.22,2.13,1.22h.01l11.85-.06c.86,0,1.67-.46,2.1-1.19.44-.73.46-1.61.06-2.36l-2.96-5.56c-.47-.89-.46-1.9.03-2.78l2.96-5.31c.42-.75.4-1.67-.03-2.4-.45-.75-1.32-1.21-2.15-1.19l-11.81.18c-.88.01-1.7.5-2.12,1.26-.42.75-.4,1.67.05,2.41l3.01,4.93c.56.93.58,2.04.04,2.98l-3.16,5.47Zm6.54-10.53l-1.56-2.57,6.38-.1-1.63,2.92c-1.15,2.06-1.17,4.53-.07,6.61l1.73,3.24-6.54.03,1.78-3.08c1.27-2.19,1.23-4.9-.08-7.06Z"/>
</svg>