<?xml version="1.0" encoding="UTF-8"?>
<svg id="Livello_3" data-name="Livello 3" xmlns="http://www.w3.org/2000/svg" viewBox="0 0 120 120">
  <path d="m75.86,74.33c.07-.87.32-3.47.49-5.22,1.71-.34,2.94-1.3,3.48-2.73.38-1,.71-2.21,1.1-3.6.35-1.27.76-2.7,1.23-4.1l.07-.2c1.06-3.13,2.65-7.86,2.02-11.23-.07-.4-.15-.87-.23-1.39-.55-3.48-1.46-9.29-5.36-13.16-4.37-4.34-10.18-7.02-16.81-7.76-.71-.08-1.47-.1-2.3-.05l-.36.02c-7.01.56-13.34,3.32-17.84,7.78-3.89,3.86-4.81,9.68-5.36,13.16-.08.52-.16.99-.23,1.39-.64,3.38.96,8.11,2.02,11.24l.07.2c.47,1.4.87,2.84,1.23,4.1.39,1.39.73,2.6,1.1,3.6.53,1.43,1.76,2.39,3.48,2.73.17,1.76.41,4.35.49,5.22.37,4.45,3.32,5.89,4.36,6.38.98.99,3.17,2.98,4.41,4.09.67.6,1.54.94,2.45.94h9.28c.91,0,1.78-.33,2.45-.94h0c1.24-1.11,3.44-3.1,4.41-4.09,1.04-.49,3.99-1.93,4.36-6.38Zm-30.8-9.17s.31.03.63.19l-.07.14c-.33-.16-.68-.28-1.06-.33-.4-.06-.57-.17-.6-.2-.31-.84-.63-1.97-1-3.27-.37-1.31-.79-2.8-1.29-4.31l-.07-.2c-.03-.1-.07-.22-.11-.33.14.02.28.03.43.03.55,0,1.15-.14,1.69-.57.54-.42,1.15-1.24,1.02-2.74,0-.09-.01-.18-.02-.26.05.38.13.77.3,1.19.67,1.76,1.54,3.31,1.58,3.38l.07.12c.51.78,1.69,1.65,3.39,1.65.1,0,.19,0,.29,0,.08,0,7.83-.77,8.62-4.79.31-1.57.77-3.92-1-5.29-.43-.37-2.14-1.68-4.46-1.7-2.07-.04-6.2,1.38-7,1.66l-.32.11-.27.21c-.53.42-1.19,1.37-1.24,2.7-.06-1.43-.02-2.92.06-3.54.23-.49,1.19-1.73,1.72-2.41.42-.54.8-1.03,1.05-1.4,1.3-1.89.29-4.87-.05-5.73l-3.77,1.48c.25.63.47,1.66.41,2.06-.22.31-.52.7-.85,1.12-1.44,1.85-2.32,3.06-2.5,4.14-.14.86-.19,2.57-.13,4.2-.12-.01-.24,0-.35,0-.41-1.67-.65-3.31-.44-4.46.08-.43.16-.94.25-1.51.5-3.18,1.26-7.98,4.21-10.91,3.82-3.79,9.25-6.14,15.28-6.62l.3-.02c.61-.03,1.15-.02,1.63.03,5.7.63,10.68,2.91,14.4,6.6,2.95,2.93,3.71,7.74,4.21,10.91.09.57.17,1.08.25,1.51.2,1.06,0,2.52-.34,4.05-.24-.02-.49-.02-.74.01.05-1.6,0-3.34-.14-4.2-.18-1.08-1.06-2.28-2.5-4.14-.33-.42-.63-.81-.85-1.12-.05-.37.14-1.35.42-2.06l-3.77-1.47c-.34.87-1.35,3.84-.05,5.73.25.37.64.87,1.06,1.41.53.68,1.49,1.92,1.71,2.4.1.77.14,2.89,0,4.56-.13,1.5.49,2.32,1.02,2.74.55.43,1.14.57,1.69.57.31,0,.61-.05.88-.11-.09.28-.19.56-.27.8l-.07.2c-.51,1.5-.92,2.99-1.29,4.31-.37,1.3-.68,2.43-.99,3.27-.03.03-.21.14-.6.2-.2.03-.4.08-.58.14v-.17c-.72,0-4.08.01-4.47.01-.89,0-1.72.39-2.34,1.08-1.5,1.65-1.61,5.12-1.51,7.35,0,0-.13-.09-.29-.41l-1.44-2.84-1.96,2.51c-.4.51-.71.76-.87.86-.08-.08-.21-.22-.36-.48l-1.66-2.69-1.75,2.64c-.26.39-.46.48-.49.48,0-.02-.3-.09-.62-.57l-1.58-2.35-1.72,2.25c-.23.3-.43.44-.53.51-.05-3.86-.6-7.69-3.58-8.25l-.35-.04c-.91,0-1.79,0-2.54,0-.71,0-1.52,0-1.71,0Zm3.63-12.14c1.67-.54,3.79-1.11,4.66-1.11h.02c.78,0,1.46.43,1.75.63,0,.22-.04.63-.19,1.39-.61.69-3.59,1.58-4.9,1.66-.07,0-.12,0-.16,0-.26-.48-.76-1.48-1.16-2.54v-.03Zm23.13,20.97c-.17,2.01-1.12,2.62-2.09,3.07-.41.19-.78.45-1.08.76-.86.89-3.12,2.92-4.16,3.86h-8.99c-1.04-.94-3.3-2.98-4.16-3.86-.31-.31-.67-.57-1.08-.76-.96-.45-1.92-1.06-2.09-3.07-.07-.8-.28-3.04-.44-4.78.3,0,.61,0,.93,0,.19.46.56,1.74.56,4.93v.38l.13.35c.55,1.44,1.76,2.42,3.22,2.63.95.14,1.9-.07,2.76-.57.73.48,1.54.74,2.38.74h0c.73,0,1.44-.2,2.08-.57.7.47,1.38.63,1.92.66.07,0,.14,0,.21,0,.83,0,1.63-.27,2.41-.81.51.33,1.01.49,1.43.56,2.16.38,3.92-1.15,4.25-1.46l.72-.68-.09-.98c-.18-2.04-.05-4.33.28-5.23.35,0,.84,0,1.36,0-.17,1.74-.38,4.01-.45,4.81Z"/>
  <path d="m60.71,54.85c.79,4.02,8.54,4.78,8.62,4.79.1,0,.2,0,.29,0,1.7,0,2.88-.87,3.39-1.65l.07-.12c.04-.07.91-1.62,1.58-3.38.91-2.39-.14-4.05-.9-4.66l-.27-.21-.32-.11c-.79-.28-4.84-1.66-6.96-1.66h-.04c-2.32.02-4.03,1.33-4.46,1.7-1.77,1.36-1.31,3.72-1,5.29Zm5.5-2.94h.02c.87,0,2.99.58,4.66,1.12,0,0,0,.02-.01.03-.4,1.06-.91,2.05-1.16,2.54-.04,0-.09,0-.16,0-1.32-.08-4.29-.96-4.9-1.66-.15-.77-.18-1.18-.19-1.39.28-.2.96-.63,1.74-.63Z"/>
  <path d="m59.12,69.37c.26.1.53.15.8.15s.54-.05.8-.15c1.14-.43,3.82-1.69,4.24-4.14.1-.6.41-2.41-3.26-7.17h0c-.42-.55-1.09-.87-1.78-.87s-1.36.33-1.78.87c-3.68,4.77-3.36,6.58-3.26,7.17.42,2.44,3.11,3.71,4.25,4.14Zm.8-6.81c.59.95.93,1.66,1.02,2.01-.14.18-.52.47-1.02.73-.52-.27-.91-.56-1.03-.71.08-.35.42-1.07,1.03-2.03Z"/>
  <path d="m62.21,46.94l2.5-1.89-2.45-3.23-2.44,1.85-2.66-1.89-2.34,3.3,2.72,1.93c.69.49,1.49.73,2.28.73.84,0,1.68-.27,2.39-.81Z"/>
  <path d="m19.13,32c.91.21,1.86.43,2.96.78,1.05.33,3.57,2.15,6.82,5.47.08.09,2,2.01,3.95,2.01.1,0,.2,0,.3-.02.83-.09,1.54-.52,1.99-1.23l.27-.43c1.34-2.11,2.4-3.79,4.77-6.52,2-2.31,1.46-4.41.29-5.61-2.87-2.95-5.07-5.56-5.79-6.86-.22-.56-.28-.98-.4-1.77-.12-.83-.29-1.97-.73-3.78-1.11-4.6-4.99-5.5-7.97-4.87-3.11.65-4.53,3.08-5.6,5.61-.3.71-1.16.89-2.96,1.01-.73.05-1.43.1-2.06.29-1.8.54-4.93,1.89-5.78,4.8-.61,2.1.13,4.37,2.19,6.76,2.75,3.19,5.06,3.73,7.74,4.36Zm-6.09-10.01c.22-.76,1.44-1.58,3.1-2.08.2-.06.74-.1,1.17-.12,1.89-.13,5.06-.34,6.38-3.44,1.15-2.72,1.92-3.08,2.74-3.25.35-.07.67-.11.94-.11,1.83,0,2.18,1.42,2.32,2.01.4,1.63.54,2.62.66,3.42.14.97.26,1.74.7,2.8l.08.17c1.14,2.17,4.38,5.67,6.33,7.69-.06.1-.14.23-.28.38-2.35,2.72-3.55,4.52-4.8,6.48-.24-.17-.48-.36-.61-.48-2.02-2.06-5.81-5.63-8.47-6.48-1.25-.4-2.31-.64-3.25-.86-2.48-.58-3.72-.87-5.62-3.08-1.09-1.26-1.58-2.34-1.38-3.03Z"/>
  <path d="m45.17,80.37c-.48-.38-1.09-.85-1.39-1.24-1.4-1.82-1.66-3.81-1.63-5.17.03-1.21-.79-2.26-1.99-2.54-1.3-.31-2.65.32-3.21,1.5-2.04,4.31-6.78,12.17-15.63,16.33-.63.29-1.32.57-2.06.86-2.44.97-5.47,2.17-7.86,4.92-1.61,1.85-2.22,4.06-1.72,6.22.56,2.42,2.46,4.54,5.08,5.66,1.15.49,2.41.27,3.63.06,1.47-.26,2.47-.39,2.94.14,2.13,2.36,5.33,3.88,8.05,3.88.27,0,.54-.01.8-.05,2.19-.26,4.85-2.15,5.93-4.22.58-1.12,1.2-3.64,1.26-5.09.23-5.91,5.03-12.74,5.65-13.59l3.15-3.31c.46-.35.76-.86.84-1.43.18-1.36-.84-2.16-1.82-2.94Zm-5.15,5.01l-.15.18c-.25.34-6.2,8.38-6.5,15.92h0c-.04.98-.55,2.89-.81,3.4-.49.95-2.04,2-2.84,2.09-1.39.16-3.79-.74-5.41-2.54-1.2-1.33-2.68-1.68-4.08-1.68-.92,0-1.8.15-2.53.28-.49.08-1.22.21-1.37.2-1.43-.61-2.48-1.71-2.75-2.88-.21-.91.07-1.82.84-2.7,1.75-2.01,4.07-2.93,6.32-3.82.76-.3,1.55-.61,2.29-.96,7.92-3.72,12.88-9.99,15.73-14.82.38,1.15.97,2.36,1.87,3.53.45.58,1.02,1.08,1.56,1.52l-2.17,2.27Z"/>
  <path d="m32.35,29.29c-.59-.54-5.91-5.33-10.33-5.75l-.38,3.98c2.32.22,6.14,3.01,8,4.71l2.71-2.95Z"/>
  <path d="m31.41,90.68c-.14.17-3.39,4.3-3.88,11.79l3.99.26c.4-6.15,2.99-9.52,3.01-9.55l-1.57-1.24-1.56-1.25Z"/>
  <path d="m84.57,38.59l.27.43c.45.7,1.15,1.14,1.99,1.23.1.01.2.02.3.02,1.95,0,3.87-1.92,3.95-2.01,3.26-3.32,5.78-5.13,6.83-5.47,1.1-.35,2.05-.57,2.96-.78,2.68-.63,4.99-1.17,7.74-4.36,2.06-2.39,2.8-4.66,2.19-6.76-.84-2.9-3.98-4.25-5.78-4.8-.64-.19-1.33-.24-2.06-.29-1.8-.12-2.66-.3-2.96-1.01-1.07-2.53-2.49-4.95-5.6-5.61-2.98-.62-6.86.28-7.97,4.87-.44,1.81-.61,2.95-.73,3.78-.12.79-.18,1.21-.4,1.77-.72,1.3-2.92,3.91-5.79,6.86-1.17,1.2-1.7,3.3.29,5.61,2.37,2.74,3.43,4.41,4.77,6.52Zm4.3-17.21l.08-.17c.44-1.06.56-1.83.7-2.8.12-.8.26-1.79.66-3.42.16-.67.6-2.46,3.26-1.9.82.17,1.59.53,2.74,3.25,1.31,3.1,4.48,3.31,6.38,3.44.43.03.97.06,1.17.12,1.66.5,2.88,1.32,3.1,2.08.2.69-.29,1.77-1.38,3.03-1.9,2.21-3.15,2.5-5.62,3.08-.94.22-2.01.47-3.25.86-2.66.84-6.45,4.42-8.47,6.48-.13.13-.37.32-.61.49-1.25-1.96-2.44-3.76-4.8-6.48-.13-.16-.22-.29-.28-.38,1.95-2.01,5.18-5.52,6.33-7.69Z"/>
  <path d="m100.74,90.12c-.74-.29-1.44-.57-2.06-.86-8.86-4.16-13.6-12.02-15.63-16.33-.56-1.18-1.91-1.81-3.21-1.5-1.2.29-2.02,1.33-1.99,2.54.03,1.35-.22,3.35-1.64,5.18-.29.37-.89.85-1.38,1.23-.99.77-2.01,1.57-1.82,2.94.08.58.38,1.08.84,1.43l3.15,3.31c.62.85,5.41,7.68,5.65,13.59.06,1.45.68,3.97,1.26,5.09,1.07,2.07,3.73,3.96,5.93,4.22.26.03.52.05.8.05,2.72,0,5.92-1.52,8.05-3.88.47-.53,1.47-.4,2.94-.14,1.22.21,2.48.43,3.63-.06,2.62-1.12,4.52-3.24,5.08-5.66.5-2.16-.11-4.37-1.72-6.22-2.39-2.75-5.42-3.95-7.86-4.92Zm5.68,10.24c-.27,1.16-1.32,2.27-2.66,2.85-.23.04-.97-.09-1.46-.17-1.84-.32-4.61-.81-6.6,1.4-1.62,1.8-4.03,2.7-5.41,2.54-.8-.09-2.35-1.15-2.84-2.09-.26-.51-.78-2.42-.81-3.4h0c-.3-7.54-6.25-15.58-6.5-15.92l-2.32-2.46c.54-.44,1.11-.95,1.57-1.54.9-1.16,1.49-2.36,1.86-3.51,2.85,4.83,7.82,11.1,15.73,14.81.74.35,1.53.66,2.29.96,2.25.89,4.57,1.81,6.32,3.82.77.88,1.05,1.79.84,2.7Z"/>
  <path d="m98.36,27.52l-.38-3.98c-4.41.42-9.73,5.2-10.33,5.75l2.71,2.95c1.24-1.14,5.38-4.46,8-4.71Z"/>
  <path d="m85.47,93.18s2.61,3.4,3.01,9.55l3.99-.26c-.49-7.49-3.74-11.62-3.88-11.79l-3.12,2.5Z"/>
</svg>