<?xml version="1.0" encoding="UTF-8"?>
<svg id="Livello_3" data-name="Livello 3" xmlns="http://www.w3.org/2000/svg" viewBox="0 0 120 120">
  <path d="m106.5,98.77s-.07-.05-.09-.08c.09-.34.35-.83.56-1.23.24-.46.49-.93.64-1.42.59-1.9-.19-4.21-1.85-5.5-1.2-.93-2.9-1.82-6.43-1.43l-.45.05c-2.48.27-3.14.34-4.79,1.51-.37.26-.66.55-.94.83-.89.89-2.24,2.22-8.25,2.44-5.48.43-12.77.63-21.66.58h-5.05c-8.89.05-16.18-.15-21.75-.58-5.92-.21-7.27-1.55-8.16-2.44-.28-.28-.57-.57-.94-.83-1.65-1.17-2.31-1.24-4.79-1.51l-.45-.05c-3.53-.39-5.23.51-6.43,1.43-1.66,1.28-2.44,3.59-1.85,5.5.15.49.4.96.64,1.42.21.4.46.88.56,1.23-.02.02-.05.05-.09.08-1.93,1.33-4.27,3.46-4.49,6.02-.14,1.66.88,3.26,2.86,4.5,1.61,1.01,3.77,1.71,5.78,1.71,1.17,0,2.3-.24,3.23-.79.72-.41,1.41-.81,2.05-1.2,2.05-1.22,3.67-2.18,5.23-2.29,2.53-.17,16.01-.94,31.07-1.25,15.14.31,28.62,1.07,31.15,1.25,1.57.11,3.19,1.07,5.23,2.29.65.39,1.33.79,2.01,1.17,2.57,1.53,6.5.71,9.06-.89,1.98-1.24,3-2.84,2.86-4.5-.21-2.56-2.56-4.69-4.49-6.02Zm-1.86,7.79c-1.64.59-2.97.51-3.57.16-.69-.39-1.34-.77-1.96-1.14-2.41-1.43-4.49-2.67-7.01-2.84-2.55-.17-16.12-.95-31.42-1.26-15.22.31-28.8,1.08-31.34,1.26-2.52.17-4.6,1.41-7.01,2.84-.62.37-1.27.76-2.01,1.17-.55.33-1.89.41-3.52-.18-1.49-.54-2.2-1.25-2.35-1.53.12-.61,1.01-1.77,2.76-2.97,1.33-.92,2.02-2.39,1.8-3.84-.15-1-.62-1.9-1-2.62-.13-.26-.32-.61-.36-.74-.1-.31.15-.9.47-1.15.43-.33,1.14-.88,3.55-.62l.46.05q2.11.23,2.91.8c.1.07.26.23.43.4,1.62,1.61,3.93,3.35,10.75,3.59,5.67.45,12.87.64,21.98.59h5.03c9.13.05,16.32-.14,21.91-.58,6.91-.25,9.22-1.99,10.84-3.59.17-.17.34-.33.43-.4q.8-.57,2.91-.8l.45-.05c2.4-.26,3.12.29,3.55.62.33.25.57.84.47,1.15-.04.14-.23.49-.36.75-.38.72-.85,1.61-1,2.62-.22,1.45.47,2.92,1.8,3.83,1.75,1.21,2.64,2.36,2.76,2.97-.15.27-.87.99-2.35,1.53Z"/>
  <path d="m33.08,50.41c.59,1.76,1.09,3.55,1.53,5.13.48,1.72.89,3.21,1.35,4.44.63,1.71,2.16,2.82,4.29,3.15.21,2.17.54,5.74.64,6.89.44,5.32,3.99,6.99,5.18,7.55,1.21,1.25,4.25,4.01,5.5,5.14.74.67,1.7,1.04,2.7,1.04h11.47c1,0,1.96-.37,2.7-1.04,1.25-1.13,4.28-3.89,5.52-5.15,1.17-.55,4.72-2.22,5.16-7.54.1-1.15.43-4.71.63-6.9,2.14-.32,3.67-1.43,4.3-3.14.46-1.23.87-2.72,1.35-4.44.44-1.58.94-3.38,1.53-5.14l.08-.24c1.29-3.84,3.24-9.65,2.48-13.73-.09-.5-.19-1.09-.29-1.74-.67-4.26-1.78-11.4-6.47-16.09-5.33-5.32-12.41-8.61-20.49-9.51-.86-.1-1.76-.11-2.76-.06l-.44.03c-8.55.68-16.27,4.07-21.74,9.54-4.69,4.69-5.81,11.83-6.47,16.09-.1.66-.19,1.25-.29,1.74-.76,4.07,1.19,9.88,2.48,13.73l.08.24Zm7.8,8.76c.06,0,.17.03.3.07-.1-.02-.19-.05-.3-.07Zm34.25,10.52c-.23,2.78-1.6,3.66-2.88,4.25-.45.21-.85.5-1.19.84-1.16,1.2-4.36,4.1-5.31,4.96h-.02s-11.49,0-11.49,0c-.95-.86-4.15-3.76-5.31-4.96-.34-.35-.74-.63-1.19-.84-1.27-.6-2.64-1.47-2.87-4.25-.09-1.09-.39-4.31-.6-6.52.74,0,1.51,0,2.26,0,.21.32.82,1.59.82,5.68v.41l.16.38c.62,1.44,1.92,2.44,3.48,2.68,1.18.18,2.36-.09,3.43-.75.89.61,1.9.94,2.92.94h.01c.92,0,1.8-.26,2.59-.75.87.62,1.71.82,2.36.86.08,0,.17,0,.25,0,1.01,0,2-.35,2.98-1.04.64.45,1.27.66,1.8.76,2.45.44,4.57-1.27,4.8-1.47l.81-.68-.11-1.05c-.24-2.43-.02-5.21.45-6.01.45,0,1.41,0,2.45,0-.21,2.2-.52,5.46-.61,6.55Zm-40.67-32.52c.1-.53.2-1.16.31-1.86.63-4.03,1.58-10.11,5.35-13.88,4.8-4.8,11.63-7.78,19.21-8.38l.37-.02c.3-.02.59-.03.87-.03.44,0,.84.02,1.23.06,7.16.8,13.42,3.69,18.1,8.37,3.77,3.77,4.72,9.85,5.35,13.88.11.7.21,1.33.31,1.86.28,1.5-.02,3.57-.52,5.68-.51-.06-1.05-.05-1.57.09-.03,0-.06.02-.08.02.1-2.13.05-4.61-.13-5.78-.2-1.22-1.26-2.67-2.99-4.91-.45-.59-.87-1.13-1.12-1.48-.17-.41.09-1.9.51-2.99l-1.87-.72-1.86-.73c-.4,1.02-1.57,4.5-.12,6.64.31.46.78,1.06,1.28,1.72.7.91,1.99,2.58,2.22,3.17.15,1.01.18,3.85.01,5.88-.14,1.65.51,2.52,1.08,2.97.57.45,1.19.59,1.78.59s1.19-.16,1.66-.31c-.22.67-.43,1.31-.62,1.87l-.08.24c-.62,1.86-1.14,3.71-1.59,5.34-.45,1.64-.85,3.05-1.24,4.12-.13.34-.66.49-1.03.55h-1.73c-1.81,0-4.19,0-4.52,0-1.02,0-1.92.43-2.62,1.21-1.67,1.86-1.75,5.7-1.64,7.93-.27.11-.53.17-.73.13-.25-.05-.48-.37-.63-.63l-1.39-2.45-1.85,2.12c-.84.96-1.41,1.21-1.62,1.18-.15,0-.47-.22-.86-.78l-1.59-2.3-1.66,2.24c-.24.33-.63.72-1.08.72h0c-.4,0-.87-.31-1.25-.82l-1.5-2-1.62,1.9c-.46.54-.98.83-1.38.77-.07-.01-.16-.04-.24-.1-.05-4.03-.63-8.49-4.06-9.07l-.31-.03c-1.1,0-2.32,0-3.39,0-1.13,0-2.4,0-2.73-.01,0,0,0,0,0,0-.37-.05-1-.2-1.14-.58-.4-1.07-.79-2.48-1.25-4.12-.45-1.63-.97-3.48-1.59-5.33l-.08-.24c-.14-.41-.28-.85-.44-1.31.44.13.95.25,1.48.25.59,0,1.21-.15,1.78-.59.57-.44,1.21-1.32,1.08-2.97-.17-2.02-.13-4.87.01-5.88.23-.59,1.52-2.27,2.22-3.17.51-.66.98-1.27,1.28-1.72,1.46-2.14.28-5.63-.12-6.64l-3.73,1.45c.42,1.1.68,2.58.54,2.94-.28.41-.69.95-1.15,1.53-1.73,2.24-2.79,3.69-2.99,4.91-.19,1.16-.24,3.65-.13,5.78-.03,0-.06-.02-.08-.02-.5-.14-.99-.14-1.44-.06-.58-2.29-.96-4.59-.66-6.21Z"/>
  <path d="m43.22,39.78l-.26.21c-.83.67-1.97,2.51-.95,5.2.82,2.15,1.87,4.06,1.92,4.14l.07.12c.56.86,1.87,1.82,3.78,1.82.11,0,.22,0,.33,0,.09,0,9.31-.98,10.19-5.54.38-1.93.89-4.57-1.06-6.07-.47-.41-2.47-1.98-5.21-2.01-2.54,0-7.51,1.69-8.49,2.04l-.32.11Zm8.77,1.85c1.43.01,2.58.99,2.65,1.04h0c.02.23.02.81-.25,2.21-.48.97-4.6,2.26-6.51,2.37-.32.02-.49-.05-.57-.09-.27-.51-.99-1.9-1.56-3.4-.1-.25-.13-.44-.14-.58,2.07-.69,5.16-1.56,6.39-1.56Z"/>
  <path d="m61.56,45.71c.89,4.56,10.1,5.54,10.19,5.54.11,0,.23,0,.33,0,1.91,0,3.22-.96,3.78-1.82l.07-.11c.04-.08,1.1-1.98,1.92-4.14,1.02-2.69-.12-4.53-.95-5.2l-.26-.21-.32-.11c-.98-.34-5.99-2.08-8.49-2.04-2.74.03-4.74,1.6-5.21,2.01-1.94,1.5-1.43,4.14-1.06,6.07Zm3.66-3.03c.06-.05,1.22-1.03,2.65-1.04,1.25-.01,4.31.87,6.39,1.56-.01.14-.05.33-.14.58-.57,1.49-1.29,2.89-1.56,3.4-.08.04-.25.11-.57.09-1.91-.11-6.03-1.4-6.5-2.31-.28-1.46-.29-2.04-.27-2.27Z"/>
  <path d="m60.08,48.38c-.74,0-1.43.36-1.86.96-2.88,4.08-4.19,7.11-3.89,9.01.46,2.91,3.56,4.48,4.87,5.02.28.12.58.17.87.17s.59-.06.87-.17c1.31-.54,4.42-2.11,4.88-5.02.3-1.9-1.01-4.93-3.89-9.01-.42-.6-1.1-.96-1.86-.96Zm0,10.98c-.97-.51-1.72-1.18-1.79-1.61-.02-.46.53-1.9,1.79-3.97,1.26,2.06,1.82,3.5,1.8,3.94-.07.45-.83,1.12-1.8,1.64Z"/>
  <path d="m59.96,36.44c.93,0,1.87-.3,2.65-.9l3.09-2.36-2.43-3.18-3.09,2.36c-.14.1-.3.11-.44,0l-3.37-2.4-2.32,3.26,3.37,2.4c.76.54,1.65.82,2.54.82Z"/>
  <path d="m101.6,66.71c.46.36,1.01.54,1.56.54s1.1-.18,1.56-.54c2-1.58,4.52-3.88,5.12-5.89.61-2.03.33-4.01-.76-5.31-.69-.82-1.99-1.75-4.3-1.52-.45.01-1.01.13-1.62.49-.61-.37-1.17-.48-1.62-.49-2.31-.23-3.62.7-4.3,1.52-1.08,1.3-1.37,3.28-.76,5.31.6,2.01,3.12,4.31,5.12,5.89Zm-1.29-8.63c.05-.06.23-.12.55-.12.09,0,.2,0,.31.02.03.03.06.06.1.11.96,1.07,2.8,1.07,3.76,0,.04-.05.08-.08.1-.11.53-.05.81.03.86.1.14.17.24.79,0,1.59-.15.5-1.18,1.72-2.85,3.14-1.67-1.42-2.69-2.64-2.85-3.14-.24-.8-.15-1.42,0-1.59Z"/>
  <path d="m18.75,56.39c.23.03.46.05.69.05,1.15,0,2.26-.38,3.19-1.09,1.13-.87,1.85-2.13,2.03-3.55.37-2.9-1.67-5.58-4.54-5.96-1.39-.18-2.77.19-3.88,1.05-1.13.87-1.85,2.13-2.03,3.55-.37,2.9,1.67,5.58,4.54,5.96Zm-.07-6.33c.22-.17.48-.26.76-.26.05,0,.11,0,.16.01.7.09,1.19.76,1.1,1.48-.05.36-.22.67-.5.88-.26.2-.59.29-.92.25-.7-.09-1.19-.76-1.1-1.48.05-.36.22-.67.5-.88Z"/>
  <polygon points="17.83 70.89 21.61 69.59 18.58 60.75 27.88 60.75 27.88 56.75 11 56.75 11 60.75 14.35 60.75 17.83 70.89"/>
  <rect x="21.03" y="61.59" width="4" height="6.12"/>
</svg>