<?xml version="1.0" encoding="UTF-8"?>
<svg id="Livello_3" data-name="Livello 3" xmlns="http://www.w3.org/2000/svg" viewBox="0 0 120 120">
  <path d="m110.24,65.37c-.14-.26-.23-.41-2.73-3.24.95-1.18,1.78-2.38,2.31-3.47.78-1.59.8-3.43.06-5.05l-.13-.29-.21-.23c-1.09-1.18-6.61-7.16-8.59-8.4-1.64-1.04-3.37-.5-4.82.65-.89-.98-2.08-1.54-3.43-1.61,1.74-3.51,2.25-6.47,1.49-8.84-.62-1.91-2.04-3.31-4.11-4.06-1.11-.4-2.98-.32-4.46.83-1.24.96-2.64,2.98-2.25,7.18.05.52.04,1.06-.02,1.6-.04.35-.11.69-.21,1.04-6.74-7.6-26.54-26.63-59.86-32.45l-5.75-1.01,3.93,4.32c5.65,6.21,13.82,16.52,15.73,19.24l-.06.63.95.71c.48.35.99.47,1.45.44,3.89,1.12,24.71,8.95,36.65,18.34l-1.44,1.93c-1.13.93-2.29,1.45-3.46,1.56-3.6.32-5.22,1.94-5.95,3.24-1.16,2.06-.66,4.24-.23,5.1,1.48,3,3.54,3.81,5,3.96.19.02.39.03.58.03,2.47,0,5.19-1.58,8.12-4.69-.22,2.36-1.48,5.08-2.26,6.46-12.88,7.59-18.13,13.48-20.67,16.33-.29.32-.6.67-.86.95-13.51-12.56-41.4-17.34-42.59-17.54-1.85-.31-2.7.57-3.05,1.13-1.21,1.96.47,4.25,3.8,8.83,1.77,2.43,5.07,6.95,4.97,8.22-.49,1.65-1.34,2.44-2.74,3.73-1.04.96-2.32,2.14-3.73,3.96-1.24,1.61-1.02,3.97.5,5.25,7.36,6.24,33.99,8.26,38.56,8.56,1.28.58,5.3,2.29,8.28,2.29.22,0,.44,0,.65-.03,2.3-.22,4.62-1.77,7.07-3.41,1.34-.89,2.72-1.81,4.02-2.45,4.27-2.1,18.52-24.94,21.81-31.61,2.05-.26,4.1-1.37,6.09-3.3l1.98,2.25.02-.02c.32.35.56.6.63.67,1.09.95,2.36,1.44,3.56,1.44,1.07,0,2.08-.38,2.86-1.14l2-1.95c1.49-1.45,1.7-3.89.52-6.07Zm-55-30.15c-4.84-2.16-8.77-3.66-10.68-4.36-1.89-.7-3.12-1.11-3.94-1.35-.32-.48-.73-1.03-1.21-1.66-1.05-1.41-2.55-3.32-4.21-5.39-2.34-2.92-4.71-5.8-6.85-8.31,28.48,6.6,45.55,22.97,51.68,29.85-18.71-15.63-35.28-21.4-36.01-21.65l-1.29,3.78c.18.06,17.41,6.09,36.07,22.06l-.22.3c-6.96-5.45-16.4-10.18-23.34-13.27Zm22.65,22.52c-4.39,5.6-6.75,5.82-7.38,5.76-.67-.07-1.29-.66-1.82-1.72-.05-.12-.21-.86.15-1.45.38-.62,1.37-1.03,2.79-1.16,2.08-.19,4.05-1.07,5.88-2.64l7.52-9.98c1.27-1.71,2.07-3.65,2.3-5.62.1-.81.11-1.63.03-2.43-.23-2.5.37-3.35.64-3.6.34-.31.76-.27.72-.28,1.18.43,1.51,1.08,1.66,1.53.61,1.89-.67,5.42-3.45,9.51l-1.28,1.96h0c-.79.95-1.57,2.03-2.42,3.23l-.29.4c-.84,1.17-1.54,1.97-2.16,2.67-.72.82-1.35,1.52-1.77,2.41h0c-.04.09-.08.18-.11.27h-.02s-.99,1.15-.99,1.15Zm21.29,6.96c-1.25.81-2.27,1.62-3.13,2.47-1.68,1.68-3.24,2.47-4.66,2.39l-1.49-.1-.51,1.4c-2.3,6.27-18,29.35-20.38,30.66-1.54.76-3.03,1.75-4.48,2.72-1.94,1.29-3.94,2.63-5.24,2.75-1.71.17-5.31-1.17-7.18-2.06l-.35-.17-.38-.02c-8.21-.52-30.59-2.86-36.44-7.51,1.17-1.49,2.25-2.49,3.2-3.36,1.58-1.46,3.07-2.83,3.87-5.54.8-2.7-1.58-6.22-5.58-11.71-.73-.99-1.59-2.18-2.27-3.2,7.12,1.46,28.41,6.51,38.68,16.57.69.67,1.44,1.01,2.26.96,1.43-.05,2.32-1.04,3.78-2.68,2.43-2.73,7.49-8.41,20.16-15.8l.43-.25.26-.43c.41-.66,3.97-6.63,2.97-11.48-.3-1.46-.2-1.96-.05-2.27.18-.38.59-.84,1.15-1.48.65-.74,1.46-1.65,2.42-2.99l.29-.4c2.53-3.54,3.73-5.12,5.66-5.41.64-.1,1.09.16,1.35.75l-3.62,5.48,6.68-3.34c.46-.23.74-.53.9-.86.49-.68,1.17-1.36,1.57-1.56,1.29.95,4.9,4.68,7.33,7.32.14.45.1.95-.11,1.37-1.35,2.75-5.39,6.69-7.06,7.78Zm7.75,3.89l-1.98,1.94c-.09.04-.49,0-.96-.39-.26-.28-1.27-1.41-2.16-2.41.84-.61,1.9-1.54,2.99-2.61.77.87,1.68,1.91,1.97,2.27.31.63.22,1.12.15,1.2Z"/>
</svg>