<svg xmlns="http://www.w3.org/2000/svg" viewBox="0 0 150 150"><title>demeter-bold</title><g id="Demeter"><path d="M72.84,30.05A58.12,58.12,0,0,0,64.33,24l4.06-6.89A66,66,0,0,1,78.06,24Z"/><path d="M101.31,130h-8V74.61a18.83,18.83,0,0,1,18.8-18.8h15.6v8h-15.6a10.82,10.82,0,0,0-10.8,10.8Z"/><path d="M89.31,130h-8V74.61a30.82,30.82,0,0,1,30.8-30.8h10.5v8h-10.5a22.81,22.81,0,0,0-22.8,22.8Z"/><path d="M65.31,130h-8V74.61A55,55,0,0,1,97.64,21.75l2.12,7.72A46.92,46.92,0,0,0,65.31,74.61Z"/><path d="M77.31,130h-8V74.61a42.85,42.85,0,0,1,42.8-42.8h1.49v8h-1.49a34.84,34.84,0,0,0-34.8,34.8Z"/><path d="M53.31,130h-8V74.61a10.81,10.81,0,0,0-10.79-10.8H22.29v-8H34.52a18.82,18.82,0,0,1,18.79,18.8Z"/><path d="M52.51,60.62a22.79,22.79,0,0,0-18-8.81H27.39v-8h7.13A30.79,30.79,0,0,1,58.81,55.7Z"/><path d="M65,39.14a46.52,46.52,0,0,0-16-9l2.49-7.6A54.55,54.55,0,0,1,70.23,33.08Z"/><path d="M58.53,49.42a34.82,34.82,0,0,0-22.05-9.55l.45-8A42.8,42.8,0,0,1,64.05,43.63Z"/><rect x="49.31" y="84.84" width="48" height="8"/></g></svg>