<svg xmlns="http://www.w3.org/2000/svg" viewBox="0 0 150 150"><title>eros-bold</title><g id="Eros"><path d="M75,135.23l-49.65-49A31.44,31.44,0,1,1,69.79,41.72L75,46.93l5.21-5.21a31.44,31.44,0,0,1,44.46,44.47l0,0ZM47.56,40.52A23.43,23.43,0,0,0,31,80.53L75,124l44-43.47A23.44,23.44,0,0,0,85.87,47.38L75,58.25,64.13,47.38A23.29,23.29,0,0,0,47.56,40.52Z"/><rect x="10.76" y="103.39" width="63.95" height="8" transform="translate(-63.42 61.68) rotate(-45)"/><rect x="108.2" y="25.22" width="25.4" height="8" transform="translate(14.75 94.06) rotate(-45)"/><polygon points="133.88 37.47 125.88 37.47 125.88 24 111.92 24 111.92 16 133.88 16 133.88 37.47"/></g></svg>