<svg xmlns="http://www.w3.org/2000/svg" viewBox="0 0 150 150"><defs><style>.cls-1,.cls-2{fill:none;stroke:#000;stroke-miterlimit:10;}.cls-1{stroke-width:4px;}.cls-2{stroke-width:8px;}</style></defs><title>flora-bold</title><g id="Gaia"><path class="cls-1" d="M74.94,125.9V99.26s-.2-6.4.51-9.1,6.81-8.81,6.81-8.81a12.48,12.48,0,0,0,0-17.66,10,10,0,0,0-14.13,0,8,8,0,0,0,0,11.3,6.39,6.39,0,0,0,9,0,5.11,5.11,0,0,0,0-7.23"/></g><g id="Flora"><path class="cls-2" d="M46.8,104a11.56,11.56,0,1,1-1.59-14.43L75,124.68l29.79-35.09A11.58,11.58,0,1,1,103.2,104"/><path class="cls-2" d="M75,24.28,50.5,54.14c-5.91,7.21-5.91,18.89,0,26.1L75,110.1,99.74,80.81a16.09,16.09,0,0,0-2.49-23.2L75,40.19"/><path class="cls-1" d="M75,53.12A17.76,17.76,0,0,0,61.68,82.61L74.75,99.47"/></g></svg>