<svg xmlns="http://www.w3.org/2000/svg" viewBox="0 0 150 150"><title>dionysus-bold</title><g id="Dionysus"><path d="M61.28,51.44A17.72,17.72,0,1,1,79,33.72,17.74,17.74,0,0,1,61.28,51.44Zm0-27.44A9.72,9.72,0,1,0,71,33.72,9.73,9.73,0,0,0,61.28,24Z"/><path d="M88.72,51.44a17.72,17.72,0,1,1,17.72-17.72A17.74,17.74,0,0,1,88.72,51.44Zm0-27.44a9.72,9.72,0,1,0,9.72,9.72A9.73,9.73,0,0,0,88.72,24Z"/><path d="M75,75A17.72,17.72,0,1,1,92.72,57.25,17.74,17.74,0,0,1,75,75Zm0-27.44a9.72,9.72,0,1,0,9.72,9.72A9.73,9.73,0,0,0,75,47.53Z"/><rect x="70.61" y="91.3" width="8" height="38.8"/><rect x="61.09" y="126.1" width="27.44" height="8"/><path d="M75,95.9a44,44,0,0,1-44-44h8a36,36,0,1,0,72,0h8A44,44,0,0,1,75,95.9Z"/></g></svg>