<svg xmlns="http://www.w3.org/2000/svg" viewBox="0 0 150 150"><title>apollo-bold</title><g id="Apollo"><path d="M74.81,116.18A42.84,42.84,0,0,1,32,73.39C32,62.5,36.52,51.89,44.7,43.5l5.72,5.59C43.71,56,40,64.6,40,73.39a34.8,34.8,0,0,0,69.59,0c0-8.79-3.7-17.42-10.41-24.3l5.72-5.59c8.19,8.39,12.69,19,12.69,29.89A42.84,42.84,0,0,1,74.81,116.18Z"/><rect x="39.87" y="53.16" width="69.88" height="8"/><rect x="63.36" y="47.68" width="4" height="63.33"/><rect x="82.76" y="47.68" width="4" height="63.21"/><rect x="73" y="47.68" width="4" height="64.17"/></g></svg>