<svg xmlns="http://www.w3.org/2000/svg" viewBox="0 0 150 150"><title>tethis-bold</title><g id="Tethis"><rect x="67.77" y="58.44" width="8" height="33.12" transform="translate(-32.01 72.71) rotate(-45)"/><rect x="55.21" y="71" width="33.12" height="8" transform="translate(-32.01 72.72) rotate(-45)"/><rect x="67.77" y="58.44" width="8" height="33.12"/><rect x="55.21" y="71" width="33.12" height="8"/><path d="M105.76,69.79a18.42,18.42,0,0,1-13-5.73c-9.07-9.14-16-12.38-26.63-12.38A34.63,34.63,0,0,0,36.56,68.07l-6.79-4.24A42.59,42.59,0,0,1,66.09,43.68c12.73,0,21.79,4.14,32.31,14.75a10.5,10.5,0,0,0,7.36,3.36,9.72,9.72,0,0,0,0-19.44v-8a17.72,17.72,0,0,1,0,35.44Z"/></g></svg>