<svg xmlns="http://www.w3.org/2000/svg" viewBox="0 0 150 150"><title>asclepius-bold</title><g id="Asclepius"><circle cx="74.71" cy="20.24" r="7.26"/><path d="M88.43,134H70.71V106.56H61a17.72,17.72,0,0,1,0-35.44h9.72V51.68H61a17.72,17.72,0,1,1,0-35.44v8a9.72,9.72,0,1,0,0,19.44h9.72V20.24h8V43.68h9.91a17.72,17.72,0,0,1,0,35.44H78.71V98.56h9.72a17.72,17.72,0,0,1,0,35.44Zm-9.72-8h9.72a9.72,9.72,0,0,0,0-19.44H78.71ZM61,79.12a9.72,9.72,0,0,0,0,19.44h9.72V79.12Zm17.72-8h9.91a9.72,9.72,0,0,0,0-19.44H78.71Z"/></g></svg>