<svg xmlns="http://www.w3.org/2000/svg" viewBox="0 0 150 150"><title>hermes-bold</title><g id="Asclepius"><path d="M102.2,22.08A9,9,0,0,0,88.11,29.5,13,13,0,0,1,79,41.91v-4.3a9,9,0,1,0-8-.11v4.33A13,13,0,0,1,62.11,29.5,9,9,0,0,0,48,22.08L18.75,39.77l.94,1.69a9.28,9.28,0,0,0,12.54,3.61,9.31,9.31,0,0,0,7.11,3.29,9.21,9.21,0,0,0,4.1-1,9.29,9.29,0,0,0,11.78,1.81l9.88-6A16.85,16.85,0,0,0,71,46v2.15H64.54A11.8,11.8,0,0,0,59.09,70.4a11.79,11.79,0,0,0,2,19.62,11.78,11.78,0,0,0,2.09,19.65,11.8,11.8,0,0,0,7.5,20.92h7.48a11.81,11.81,0,0,0,7.5-20.92A11.78,11.78,0,0,0,87.74,90a11.79,11.79,0,0,0,2-19.62,11.8,11.8,0,0,0-5.45-22.27H79V46a17,17,0,0,0,6.13-2.83l9.88,6a9.3,9.3,0,0,0,11.78-1.81,9.12,9.12,0,0,0,6.49.68,9.31,9.31,0,0,0,4.72-3,9.28,9.28,0,0,0,12.54-3.61l.94-1.69ZM53.15,45.75A5.24,5.24,0,0,1,47,45.27L55.69,40l-2.07-3.42-11.56,7a5.24,5.24,0,0,1-4.09.59A5.3,5.3,0,0,1,35.77,43l16.36-9.89-2.06-3.43L30.54,41.44a5.24,5.24,0,0,1-4.09.59,5.39,5.39,0,0,1-2-1L50.15,25.47l.11-.07a4.94,4.94,0,0,1,2.85-.9,5,5,0,0,1,5,5,16.93,16.93,0,0,0,4,10.87Zm22-21.25a5,5,0,1,1-5,5A5,5,0,0,1,75.11,24.5ZM64.54,52.13h4a4.75,4.75,0,0,1-7.94,1.08A7.77,7.77,0,0,1,64.54,52.13Zm0,15.61a7.8,7.8,0,0,1-6.78-11.67A8.74,8.74,0,0,0,71,55.63V67.74H64.54Zm2,19.62a7.81,7.81,0,0,1,0-15.62H71V87.36H66.54Zm2,19.61a7.81,7.81,0,1,1,0-15.61H71V107H68.54Zm-5.67,11.81A7.82,7.82,0,0,1,70.68,111H71v15.62h-.32A7.81,7.81,0,0,1,62.87,118.78ZM79,126.54V111a7.81,7.81,0,0,1,0,15.52ZM80.29,107H79V91.36h1.29a7.81,7.81,0,1,1,0,15.61Zm2-19.61H79V71.74h3.29a7.81,7.81,0,0,1,0,15.62Zm2-35.23a7.74,7.74,0,0,1,4,1.08,4.75,4.75,0,0,1-7.94-1.08Zm.35,6.76a8.75,8.75,0,0,0,6.43-2.82,7.69,7.69,0,0,1,1,3.87,7.81,7.81,0,0,1-7.81,7.8H79V56.82A8.69,8.69,0,0,0,84.64,58.89ZM123.78,42a5.24,5.24,0,0,1-4.09-.59l-19.53-11.8L98.1,33.07,114.46,43a5.3,5.3,0,0,1-2.2,1.22,5.24,5.24,0,0,1-4.09-.59l-11.56-7L94.54,40l8.67,5.24a5.24,5.24,0,0,1-6.13.48l-8.91-5.38A16.92,16.92,0,0,0,92.11,29.5a5,5,0,0,1,5-5,5,5,0,0,1,2.86.9L125.79,41A5.39,5.39,0,0,1,123.78,42Z"/></g></svg>