<svg xmlns="http://www.w3.org/2000/svg" viewBox="0 0 150 150"><title>hygeia-bold</title><g id="Hygeia"><path d="M102.44,61.84a27.44,27.44,0,0,1-54.88,0,2.81,2.81,0,0,1,0-.29h54.86A2.81,2.81,0,0,1,102.44,61.84Z"/><rect x="71" y="85.26" width="8" height="44.74"/><rect x="61.28" y="125.37" width="27.44" height="8"/><path d="M56.8,126.28h-8A12.5,12.5,0,0,1,61.28,113.8H88.72a4.48,4.48,0,1,0,0-9H74.81a42.8,42.8,0,1,1,0-85.59v8a34.8,34.8,0,1,0,0,69.59H88.72a12.48,12.48,0,1,1,0,25H61.28A4.49,4.49,0,0,0,56.8,126.28Z"/></g></svg>