<svg xmlns="http://www.w3.org/2000/svg" viewBox="0 0 150 150"><title>pan-bold</title><g id="Pan"><path d="M74.93,106.56A31.44,31.44,0,1,1,106.3,75.12,31.44,31.44,0,0,1,74.93,106.56Zm0-54.88A23.44,23.44,0,1,0,98.3,75.12,23.43,23.43,0,0,0,74.93,51.68Z"/><rect x="61.66" y="112.79" width="26.42" height="8" transform="translate(-42.27 191.12) rotate(-89.73)"/><rect x="61.28" y="111.08" width="27.44" height="8"/><path d="M37.74,51.72c-.52,0-1,0-1.57,0l.23-8h2.36c3.28-.2,8.43-1.4,9.77-6.8s-1-9.51-6.09-10.78l1.92-7.76C53.8,20.68,58.7,29.1,56.29,38.81a16.32,16.32,0,0,1-2.08,4.87h42a16.31,16.31,0,0,1-2.07-4.87C91.68,29.1,96.59,20.68,106,18.34L108,26.1c-5.09,1.27-7.43,5.4-6.09,10.78s6.49,6.6,9.77,6.8H114l.23,8a25,25,0,0,1-3,0h-72C38.7,51.71,38.22,51.72,37.74,51.72Z"/></g></svg>