<svg xmlns="http://www.w3.org/2000/svg" viewBox="0 0 150 150"><title>parthenope-bold</title><g id="Parthenope"><rect x="71" y="19.77" width="8" height="33.12" transform="translate(-3.72 63.67) rotate(-45)"/><rect x="58.44" y="32.33" width="33.12" height="8" transform="translate(-3.72 63.68) rotate(-45)"/><rect x="71" y="19.77" width="8" height="33.12"/><rect x="58.44" y="32.33" width="33.12" height="8"/><path d="M56.73,125.66,51.07,120l18.31-18.31-8.26-8.26a20.14,20.14,0,0,1-4.6-21.54A19.35,19.35,0,0,1,73.45,59.18a24.1,24.1,0,0,1,3.18,0A19.33,19.33,0,0,1,93.55,71.89,20.14,20.14,0,0,1,89,93.43l-8.26,8.26,17.84,17.84-5.65,5.66L75,107.34ZM75,67.13c-.35,0-.71,0-1.05,0A11.3,11.3,0,0,0,64,74.7a12.26,12.26,0,0,0,2.77,13.07L75,96l8.26-8.26A12.23,12.23,0,0,0,86.06,74.7a11.27,11.27,0,0,0-10-7.54Q75.57,67.13,75,67.13Z"/></g></svg>