<svg id="Livello_22" data-name="Livello 22" xmlns="http://www.w3.org/2000/svg" viewBox="0 0 150 150"><title>goldenstar-bold</title><path d="M135.82,68.15,134,62.62l-3.75-11.54-1.8-5.53H96.71l-8-24.72-1.8-5.52H63.11l-1.79,5.52-8,24.71H21.52l-1.79,5.52L16,62.63l-1.79,5.53,4.69,3.41,21,15.27-8,24.71-1.79,5.53,4.7,3.42,9.82,7.13,4.71,3.42,4.7-3.42,21-15.27,21,15.27,4.7,3.42,4.7-3.42,9.83-7.13,4.7-3.42-1.8-5.53-8-24.71,21-15.27ZM79.62,25.31l2.45,7.54H67.93l2.45-7.54Zm28.22,43,2.6,1.88h-3.21Zm-2.12-6.49-1.61-1.17,2.6-1.88Zm-1.3,4h0l0,0L103,70.23h-4.6L97,65.86l3.71-2.7Zm-2.7,8.37-1,3.08-1-3.08Zm-6-12.37-1-3.07,2.6,1.9Zm-5.8,42.61h2l-1,3.08Zm-5.51-4H81.16l2.61-1.9ZM59.1,107.55l-1-3.08h2ZM42.79,70.24H39.57l2.61-1.9Zm2.79-4.39,3.71-2.69L53,65.86l-1.42,4.38H47l-1.42-4.38h0Zm-1.3-4-1-3.06,2.6,1.89Zm8.41-1.17,2.61-1.9-1,3.07ZM50.28,74.24l-1,3.06-1-3.06Zm31.84-24.6,2.62,1.91H81.5ZM81,40.09l-1,3.08L78.4,42Zm-2.3,7.08L77.3,51.54H72.7l-1.42-4.38L75,44.46Zm-8.74-4-1-3.07L71.6,42ZM68.5,51.54H65.26l2.62-1.9Zm28.42,27L91,74.23h4.54Zm1.1,20,2.62,1.9H97.4ZM96.92,89l-1,3.08L94.3,90.92ZM82.47,94.57l-3.66,2.66,2.26-7ZM59.11,88.45l-3.67-2.66h7.33Zm6,.57-1,3.07-1.61-1.17ZM52.6,100.47H49.36L52,98.57Zm3.1-9.55L54.08,92.1l-1-3.08ZM54.48,74.23H59l-5.94,4.31ZM59.1,60l2.27,7L57.7,64.33Zm10.7-4.47,1.4,4.3-5.92-4.3Zm14.92,0-5.92,4.3,1.4-4.3Zm2.37,3.23L83.77,69,78.4,65.1ZM71.6,65.1,66.23,69,62.91,58.78ZM66.17,81.78H55.44l8.68-6.31ZM75,96,71.68,85.79h6.64ZM70.38,81.79h0L67.53,73,75,67.57,82.47,73l-2.85,8.78H70.38Zm13.45,0,2-6.31,8.68,6.31ZM76,55.55l-1,3.06-1-3.06ZM59,70.23H55.78l.62-1.9Zm9.91,20,2.26,7-3.66-2.66Zm18.3-4.47h7.33l-3.67,2.66Zm.26,5.13-1.61,1.17-1-3.07ZM91,70.23l2.62-1.9.62,1.9Zm1.32-5.9L88.63,67l2.27-7ZM50.68,94.57,47,97.24l2.27-7Zm6.12,5.9L55.38,96.1l3.72-2.7,3.72,2.7-1.42,4.37Zm9.43-1.9,2.61,1.9H65.61ZM90.9,93.4l3.72,2.7-1.42,4.37H88.6L87.18,96.1Zm8.42,1.17,1.4-4.31,2.27,7ZM83.42,45.64l1.4-4.32,2.27,7ZM75,39.52l-3.67-2.67h7.34Zm-8.42,6.12L62.91,48.3l2.27-7ZM52.94,55.55l-3.65,2.66-3.66-2.66ZM39.47,60l1.41,4.35L37.18,67Zm4.62,14.26,1.39,4.31-5.94-4.31Zm9.81,30.24,1.39,4.29-5.91-4.29Zm10.41,0h4.53l-5.93,4.31Zm21.38,0,1.4,4.31-5.93-4.31Zm10.41,0h4.52l-5.91,4.29Zm9.83-30.25h4.53l-5.93,4.32Zm3.21-9.88L110.55,60l2.27,7Zm-8.42-6.13-3.67-2.67h7.34Zm-64-2.67L32.34,69l-6.4-4.64,2.85-8.79Zm7.56,50.15L55.71,114l-6.43,4.67-7.47-5.43Zm61.48,0,2.45,7.56-7.47,5.43L94.29,114ZM117.66,69,113.3,55.55h7.91l2.85,8.78Z"/></svg>