<svg id="Livello_22" data-name="Livello 22" xmlns="http://www.w3.org/2000/svg" viewBox="0 0 150 150"><title>octahedron-bold</title><path d="M122.67,47.48,75,20,27.33,47.48v.2h-.47l.47.81v54l0,0,0,0h0L75,130l47.6-27.48h.05l0,0,0,0Zm-15.64.2H90.57L82.19,33.34ZM102,75.08,88.22,98.56h-27l-13.45-23L61.73,51.68H88.27ZM75,29.19l.19.11L85.94,47.68H64.06L74.81,29.31Zm-7.19,4.15L59.43,47.68H43ZM35.33,52.1l.72-.42h21L45.46,71.58,35.33,54.25Zm0,10.08,7.82,13.37L35.33,88.91Zm0,35.72V96.84L45.46,79.51l11.14,19H36.47Zm8.07,4.66H58.94l7.91,13.54ZM75,120.81l-1.16-.67L63.57,102.56H85.89l-10.56,18Zm7.33-4.23,8.19-14H106.6ZM114.67,97.9l-1.14.66H92.86L104.27,79l10.4,17.8Zm0-9-8.09-13.84,8.09-13.84Zm0-35.6-10.4,17.8L92.91,51.68h21l.72.42Z"/></svg>