<svg id="Livello_22" data-name="Livello 22" xmlns="http://www.w3.org/2000/svg" viewBox="0 0 150 150"><title>fractals-bold</title><path d="M74.81,16.24a58.88,58.88,0,1,0,58.87,58.88A58.95,58.95,0,0,0,74.81,16.24ZM75,27.16A23.25,23.25,0,0,1,98.22,50.38a23,23,0,0,1-2.84,11.1A27.19,27.19,0,0,0,75,72.1,27.21,27.21,0,0,0,54.61,61.48,23.21,23.21,0,0,1,75,27.16Zm17.29,38.7a23.27,23.27,0,0,1-13,7.34A23.15,23.15,0,0,1,92.29,65.86ZM76.65,88.67A23.13,23.13,0,0,1,75,97.26a23.16,23.16,0,0,1,0-17.17A23.11,23.11,0,0,1,76.65,88.67ZM70.73,73.2a23.24,23.24,0,0,1-13-7.34A23.18,23.18,0,0,1,70.73,73.2Zm-46.8,1.92A51,51,0,0,1,64.36,25.33,27.2,27.2,0,0,0,50.23,61.65a27.26,27.26,0,0,0-24,27c0,.58,0,1.15.06,1.72A50.69,50.69,0,0,1,23.93,75.12Zm6.28,13.55A23.25,23.25,0,0,1,52.36,65.48,27.31,27.31,0,0,0,71.8,77.41a27.17,27.17,0,0,0,.86,24.27,23.22,23.22,0,0,1-42.45-13ZM74.81,126a50.67,50.67,0,0,1-34.4-13.43A27.19,27.19,0,0,0,75,105.25,27.17,27.17,0,0,0,108.68,113,50.66,50.66,0,0,1,74.81,126Zm21.76-14.11a23.21,23.21,0,0,1-19.23-10.21,27.17,27.17,0,0,0,.86-24.27A27.27,27.27,0,0,0,97.63,65.48a23.22,23.22,0,0,1-1.06,46.41Zm3.2-50.24A27.18,27.18,0,0,0,86,25.51a50.84,50.84,0,0,1,37.75,63.36c0-.07,0-.13,0-.2A27.26,27.26,0,0,0,99.77,61.65Z"/></svg>