<svg id="Livello_22" data-name="Livello 22" xmlns="http://www.w3.org/2000/svg" viewBox="0 0 150 150"><title>perfectrighttriangles-bold</title><path d="M132.59,75.12,119.44,54.18l13.68-18.91-6.48-4.69L115,46.68l-9.1-15.75H99L88.62,48.86,78.27,30.93H71.34L61.18,48.52,51,30.93H44.1L35,46.68,23.36,30.58l-6.48,4.69,13.67,18.9-13.33,21L30.55,96.07,16.88,115l6.48,4.69L35,103.57l9.1,15.75H51l10.15-17.6,10.16,17.6h6.93l10.35-17.93L99,119.32h6.92l9.1-15.75,11.64,16.09,6.48-4.69L119.44,96.06Zm-30.15-8L97.19,58h10.5Zm-4.62,8-9.2,15.93L79.43,75.12l9.19-15.93Zm-23-8L69.55,58H80.06Zm-4.62,8-9,15.6-9-15.6,9-15.59Zm-22.63-8L42.31,58h10.5Zm0,16,5.25,9.1H42.31Zm27.25,0,5.25,9.1H69.55Zm27.63,0,5.25,9.1H97.19Zm12.32,5.35-7.7-13.35,7.7-13.34,8.38,13.34ZM102.44,40.93l5.25,9.1H97.19Zm-27.63,0L80.06,50H69.55Zm-27.25,0L52.81,50H42.31ZM35.22,61.74l7.72,13.38L35.22,88.51,26.71,75.12Zm12.34,47.58-5.25-9.1h10.5Zm27.25,0-5.26-9.1H80.06Zm27.63,0-5.25-9.1h10.5Z"/></svg>