<svg id="Livello_22" data-name="Livello 22" xmlns="http://www.w3.org/2000/svg" viewBox="0 0 150 150"><title>syringabush-bold</title><path d="M126.08,48.4a12.43,12.43,0,0,0-3.65-8.83A9.75,9.75,0,0,0,116,37a3.35,3.35,0,0,1-3.08-3.19,9.48,9.48,0,0,0-2.49-6.24,12.36,12.36,0,0,0-8.74-3.65h0A37.31,37.31,0,0,0,74.84,34.64,37.46,37.46,0,0,0,48.39,23.76H48a12.38,12.38,0,0,0-8.8,3.65,9.71,9.71,0,0,0-2.56,6.4,3.37,3.37,0,0,1-3.18,3.1,9.42,9.42,0,0,0-6.25,2.49,12.33,12.33,0,0,0-3.65,8.78A37.5,37.5,0,0,0,34.24,75a37.47,37.47,0,0,0-10.88,26.84A12.41,12.41,0,0,0,27,110.67a9.63,9.63,0,0,0,6.4,2.55,3.37,3.37,0,0,1,3.08,3.19A9.45,9.45,0,0,0,39,122.66a12.31,12.31,0,0,0,8.77,3.65h.47A37.52,37.52,0,0,0,74.6,115.6a37.47,37.47,0,0,0,26.47,10.88h.38a12.39,12.39,0,0,0,8.82-3.66,9.74,9.74,0,0,0,2.56-6.39h0a3.35,3.35,0,0,1,3.19-3.08,9.48,9.48,0,0,0,6.24-2.51,12.34,12.34,0,0,0,3.65-8.77A37.51,37.51,0,0,0,115.2,75.24,37.46,37.46,0,0,0,126.08,48.4ZM80.13,40.64a29.51,29.51,0,0,1,21.49-8.71,4.54,4.54,0,0,1,3.1,1.25,3.4,3.4,0,0,1,.23,1.2A11.28,11.28,0,0,0,115.45,45a5.18,5.18,0,0,1,1.33.24,4.5,4.5,0,0,1,1.3,3.21,29.58,29.58,0,0,1-8.72,21.34,31.71,31.71,0,0,1-2.59,2.3,29.34,29.34,0,0,1-3.72,2.52,29.82,29.82,0,0,1-6.73,2.8,21.48,21.48,0,0,0,.12-2.28A21.73,21.73,0,0,0,85.68,56.38c0-.23,0-.47,0-.7l-.15-1.55L85.34,54a37.4,37.4,0,0,0-4.19-11.16c-.35-.6-.72-1.19-1.09-1.77a2.39,2.39,0,0,0-.13-.21Zm8,37.19c-.49-.09-1-.19-1.44-.31l-.29-.08c-.46-.13-.92-.27-1.37-.42l-.13,0c-.47-.17-.94-.36-1.4-.56l-.32-.15c-.45-.21-.9-.44-1.34-.68l-.14-.09c-.41-.23-.8-.48-1.19-.74l-.17-.11.09-.13.24-.35c.19-.27.38-.55.56-.83.09-.13.18-.27.26-.41s.33-.54.49-.82l.24-.42c.17-.3.33-.61.49-.92,0-.11.11-.22.16-.32.21-.43.4-.85.59-1.28l.09-.23c.15-.36.29-.71.42-1.07.06-.15.1-.3.16-.44l.3-.9c0-.16.09-.32.14-.48l.09-.31a13.67,13.67,0,0,1,3.74,9.39A14.23,14.23,0,0,1,88.17,77.83ZM77.37,62c-.1.47-.21.93-.33,1.39,0,.13-.06.26-.1.39-.17.58-.36,1.15-.58,1.71-.06.14-.13.28-.18.42-.18.42-.37.84-.58,1.26-.09.17-.18.35-.28.52-.21.39-.44.77-.67,1.15-.1.15-.19.3-.28.45l-.14.18-.1-.07c-.13-.1-.26-.18-.39-.27L73,68.58l-.45-.29-.78-.46-.45-.26-.88-.46L70,66.93c-.42-.21-.84-.4-1.26-.58l-.26-.11c-.34-.14-.69-.28-1-.41L67,65.67l-.89-.29-.49-.15-.31-.1a13.68,13.68,0,0,1,9.38-3.73,14.13,14.13,0,0,1,2.7.27C77.4,61.77,77.39,61.88,77.37,62ZM61.27,72.42l.25,0c.47.09.94.2,1.4.32l.4.1c.58.17,1.15.37,1.72.58l.45.2c.41.17.82.36,1.22.56l.56.29c.38.21.75.43,1.12.66l.48.3.18.13-.07.11-.26.37c-.18.26-.37.53-.54.8l-.27.43c-.17.27-.33.53-.48.8l-.25.43c-.16.3-.32.6-.47.9l-.18.35c-.2.41-.4.83-.58,1.26l-.1.25c-.14.35-.28.7-.41,1-.06.15-.11.3-.16.45s-.2.58-.3.88l-.15.49-.1.34A13.66,13.66,0,0,1,61,75.12,14.13,14.13,0,0,1,61.27,72.42ZM72,88.55c.09-.48.19-1,.31-1.45l.09-.31c.12-.45.26-.89.41-1.32,0-.06,0-.11.05-.16.17-.47.36-.93.57-1.39,0-.11.09-.21.14-.32.21-.45.44-.9.69-1.34l.07-.12c.23-.41.49-.81.75-1.2l.11-.16.14.09c.48.35,1,.68,1.49,1,.16.1.31.2.48.29.52.32,1,.61,1.59.89l.57.28c.43.21.86.4,1.3.59l.62.26c.51.2,1,.38,1.55.55l.75.24.43.13a13.67,13.67,0,0,1-9.4,3.74A13.39,13.39,0,0,1,72,88.57ZM32.78,45.12a3.4,3.4,0,0,1,1.2-.23A11.31,11.31,0,0,0,44.59,34.37a5.13,5.13,0,0,1,.24-1.31h0A4.42,4.42,0,0,1,48,31.76h0a29.6,29.6,0,0,1,21.33,8.72,29.19,29.19,0,0,1,2.32,2.6h0a29.93,29.93,0,0,1,2.5,3.7A29.29,29.29,0,0,1,77,53.52a21.48,21.48,0,0,0-2.28-.12A21.73,21.73,0,0,0,56,64.16l-.67,0H53.93l-.3.28A37.5,37.5,0,0,0,42.42,68.7c-.61.34-1.19.71-1.77,1.08l-.2.12-.2-.19a29.55,29.55,0,0,1-8.72-21.49A4.4,4.4,0,0,1,32.78,45.12Zm36.53,64.47a29.66,29.66,0,0,1-21.48,8.73,4.46,4.46,0,0,1-3.11-1.26,3.69,3.69,0,0,1-.23-1.2A11.33,11.33,0,0,0,34,105.24a4.91,4.91,0,0,1-1.3-.23,4.47,4.47,0,0,1-1.31-3.2,29.55,29.55,0,0,1,8.73-21.35,27.61,27.61,0,0,1,2.6-2.31,28.91,28.91,0,0,1,3.7-2.51,29.48,29.48,0,0,1,6.73-2.8A21.48,21.48,0,0,0,53,75.12,21.72,21.72,0,0,0,63.76,93.86c0,.21,0,.42,0,.63l.06.51a37.61,37.61,0,0,0,4.43,12.42c.38.67.79,1.33,1.21,2Zm47.34-4.47a3.37,3.37,0,0,1-1.19.24,11.27,11.27,0,0,0-10.61,10.49,3.5,3.5,0,0,1-.25,1.32,4.46,4.46,0,0,1-3.19,1.31h-.3a29.56,29.56,0,0,1-21-8.72,30.37,30.37,0,0,1-2.31-2.6,29.75,29.75,0,0,1-2.51-3.7,30.09,30.09,0,0,1-2.8-6.74,21.48,21.48,0,0,0,2.28.12A21.73,21.73,0,0,0,93.4,86.19L94.6,86A37.82,37.82,0,0,0,107,81.55c.67-.38,1.33-.79,2-1.22l.19.2A29.59,29.59,0,0,1,117.91,102,4.41,4.41,0,0,1,116.65,105.12Z"/></svg>