<svg id="Livello_22" data-name="Livello 22" xmlns="http://www.w3.org/2000/svg" viewBox="0 0 150 150"><title>icosahedron-bold</title><path d="M74.8,19.82,20.21,46.3v55.59l54.59,27.2,55-27V46.29Zm2,65.75V75.26l9.77-4.84L96.66,85.6ZM96,89.6l-5.33,7.93-13.8,0V89.57ZM78.38,50.8h12l6.74,10L88,65.27ZM90.21,68.64l9.15-4.53,6.89,10.18-6.19,9.2ZM103,62.32l17-8.39L108.66,70.71ZM100.72,59,95.19,50.8h22ZM112.41,46.8H92.48L82.85,32.57Zm-35.6-16,10.84,16H76.81Zm-24.16,30,6.7-10H71.23L61.64,65.23Zm6.76,7.84-9.78,14.7-6.05-9.07L50.4,64.1ZM62,46.8l10.77-16v16Zm4.74-14.2L57.22,46.8H37.5ZM54.53,50.8,49,59,32.7,50.8ZM46.79,62.3l-5.61,8.33L30.05,54ZM28.21,58.4,38.76,74.21,28.21,89.89Zm13,19.41,5.73,8.6L30,94.47Zm8,12,5.14,7.7L33,97.43ZM37.24,101.44l19.72,0,9.79,14.66ZM72.82,118l-11-16.55,11,0Zm0-20.53-13.72,0-5.3-7.94,19,0Zm0-11.94L53,85.53,63,70.39l9.81,4.89Zm2-13.77L65.25,67l9.56-14.38,9.55,14.41Zm2,29.72,11.12,0L76.82,118.06Zm6.07,14.69,9.86-14.67,19.94,0ZM95.44,97.54l5.13-7.63,16.26,7.67Zm7.39-11,5.84-8.69L120,94.67Zm19,3.57L111.07,74.28l10.72-15.94Z"/></svg>