<svg id="Livello_22" data-name="Livello 22" xmlns="http://www.w3.org/2000/svg" viewBox="0 0 150 150"><title>vesicapiscisI-bold</title><path d="M90.18,35.05a39.55,39.55,0,0,0-15,2.92l0,0,0,0a39.55,39.55,0,0,0-15-2.92,40,40,0,1,0,15,77l0,0,0,0a40,40,0,1,0,15-77Zm-15,68.19a32,32,0,0,1,0-56.43,32,32,0,0,1,0,56.43ZM28.12,75a32,32,0,0,1,32-32,32.62,32.62,0,0,1,5.51.48,39.89,39.89,0,0,0,0,63,31.62,31.62,0,0,1-5.51.48A32,32,0,0,1,28.12,75Zm62.06,32a31.62,31.62,0,0,1-5.51-.48,39.91,39.91,0,0,0,0-63,32.62,32.62,0,0,1,5.51-.48,32,32,0,1,1,0,64Z"/></svg>