<svg id="Livello_22" data-name="Livello 22" xmlns="http://www.w3.org/2000/svg" viewBox="0 0 150 150"><title>dodecahedron-bold</title><path d="M130.06,67,109.68,31.4l-14-8.06H54.27l-14,8.06L19.92,66.94V83l20.64,35.67,13.81,8H95.61l13.82-8L130.09,83Zm-27-30.12.72.42,18.26,31.84v.83l-1.31,1.68L108.3,55.5,103.18,43l-2.38-5.82ZM118.15,75l-12,15.58L79.19,75l26.94-15.55ZM96.72,37.73l4.7,11.52,2.71,6.65L77,71.53V40.38Zm-41-6,.72-.41H93.56l.72.41.86,2.11h0L75,36.58,54.84,33.87ZM73,40.36V71.51L45.93,55.88l7.39-18.17ZM71,75,43.94,90.6,31.84,75,43.92,59.35Zm-43.08-5.9L46.19,37.25l.72-.41,2.27.3L41.56,55.87,29.31,71.7l-1.39-1.8Zm19.22,44.17-.72-.42-18.5-32V80l1.39-1.8L41.64,94.17l7.65,18.77Zm6.25-.85L45.93,94.08,73,78.45V109.7Zm40.8,5.85-.72.42H56.52l-.82-.47-.77-2L75,113.47l20,2.75ZM77,109.7V78.45h0l27,15.6-7.47,18.34Zm26.55,3.12-.72.42-2.15-.29,7.41-18.18L120.8,78.38,122.08,80v.82Z"/></svg>