<svg id="Livello_22" data-name="Livello 22" xmlns="http://www.w3.org/2000/svg" viewBox="0 0 150 150"><title>stellations-bold</title><path d="M102.57,66.69l.13-.4-.34-.24,6.53-38L74.72,46l-.34-.25L74,46,39.87,28,46.4,66.05l-.34.24.13.4-27.64,27,38.2,5.55.13.4h.42L74.38,134.2,91.47,99.59h.42l.13-.4,38.2-5.55ZM78.38,58.51l10.74,7.8L78.38,69.55Zm-4,23.35,6.87,9.73H67.51Zm-4-12.31L59.64,66.31l10.74-7.8ZM35.74,88.05,49,75.18,54,90.7ZM53.62,60.8,50.5,42.62,66.82,51.2Zm3.31,13,11,3.31-6.79,9.6Zm17.45,42.28L66.22,99.59H82.54ZM87.64,86.76l-6.79-9.6,11-3.31ZM81.94,51.2l16.32-8.58L95.15,60.8Zm17.88,24L113,88.05,94.77,90.7Z"/></svg>