<svg id="Livello_22" data-name="Livello 22" xmlns="http://www.w3.org/2000/svg" viewBox="0 0 150 150"><title>vesicapiscisII-bold</title><path d="M117.38,58.94A42.7,42.7,0,1,0,35.15,75.12a42.7,42.7,0,1,0,79-.15A41.7,41.7,0,0,0,117.38,58.94Zm-42.7-38.7a38.7,38.7,0,0,1,38.7,38.7A36.93,36.93,0,0,1,111.68,70a42.69,42.69,0,0,0-74.06.09A38.7,38.7,0,0,1,74.68,20.24ZM96.75,73.12a23.29,23.29,0,0,0-4.82-11.89,34.94,34.94,0,0,1,12.31,11.89ZM72.68,56.67V73.12H67.9a42.61,42.61,0,0,1,4.56-16.44Zm0,20.45V93.57h-.3a40.45,40.45,0,0,1-4.5-16.44Zm4,16.45V77.12h4.8A40.45,40.45,0,0,1,77,93.56Zm0-20.45V56.67h.22a42.43,42.43,0,0,1,4.56,16.44Zm-24.07,0H45.12A34.85,34.85,0,0,1,57.43,61.23,23.29,23.29,0,0,0,52.61,73.12Zm0,4A22,22,0,0,0,56.88,88.7,34.73,34.73,0,0,1,45.12,77.12Zm44.24,0h7.44A34.73,34.73,0,0,1,92.48,88.7,22.07,22.07,0,0,0,96.8,77.12ZM74.68,130A38.69,38.69,0,0,1,37.62,80.16a42.71,42.71,0,0,0,74.12,0A38.69,38.69,0,0,1,74.68,130Z"/></svg>