<svg id="Livello_22" data-name="Livello 22" xmlns="http://www.w3.org/2000/svg" viewBox="0 0 150 150"><title>metatronscube-bold</title><path d="M118.35,87.4a10.45,10.45,0,0,0-2-.87V63.47a10.45,10.45,0,0,0,2-.87,10.94,10.94,0,0,0-10.93-19,11.41,11.41,0,0,0-1.76,1.26L85.72,33.41a10.94,10.94,0,1,0-21.44,0L44.34,44.91a11.41,11.41,0,0,0-1.76-1.26,10.94,10.94,0,0,0-10.93,19,10.45,10.45,0,0,0,2,.87V86.53a10.45,10.45,0,0,0-2,.87,10.94,10.94,0,0,0,10.93,18.95,11.41,11.41,0,0,0,1.76-1.26l19.94,11.5a10.94,10.94,0,1,0,21.44,0l19.94-11.5a11.41,11.41,0,0,0,1.76,1.26A10.94,10.94,0,1,0,118.35,87.4ZM67.78,39.46l.11.1L61.22,51.13H47.86l0-.15Zm0,52.11a9.06,9.06,0,0,1,1.88-1.88l2.56,4.45Zm1.71,3.3H66.29a9.32,9.32,0,0,1,.52-1.57Zm-2.72-16.3a8.87,8.87,0,0,1,0-7.14L73,75Zm0-21.87a9.32,9.32,0,0,1-.52-1.57h3.24ZM58.52,86.2l-.23-.4,6-3.44a8.89,8.89,0,0,1,.44,5.89,8.23,8.23,0,0,1-.45,1.26Zm4.73,5a8.71,8.71,0,0,1-1.11,1.24l-1.62-2.82Zm1-30.75a9,9,0,0,1,.45,1.26,8.38,8.38,0,0,1,.24,1.31H59.79Zm-3.71-.17,1.61-2.8a9.21,9.21,0,0,1,1.11,1.23Zm4.41,4.74a9.05,9.05,0,0,1-.69,2.58l-4.46-2.58Zm-1.69,4.31a8.86,8.86,0,0,1-1.89,1.88l-2.57-4.46Zm0,11.26-6,3.44-.24-.41v-6.6A9,9,0,0,1,63.24,80.63Zm-3.62-8.38a9,9,0,0,1-2.57.68V67.79Zm-4.79-10-6-3.44a8.86,8.86,0,0,1,4.87-3.33,9,9,0,0,1,2.23-.3h.21a8.94,8.94,0,0,1,2.5.4Zm.22,7.6v3.14a8.25,8.25,0,0,1-1.61-.34Zm0,7.26V80.2l-1.61-2.8A9.05,9.05,0,0,1,55.05,77.06Zm3.63,17.42a9,9,0,0,1-2.29.39h-.16a8.89,8.89,0,0,1-7.36-3.63l6-3.44Zm-10.81-34,6,3.44L50,70.6a8.81,8.81,0,0,1-1.49-1.79l-.06-.1a9.48,9.48,0,0,1-1-2.33A8.89,8.89,0,0,1,47.87,60.49ZM45,79.17l-4.28,7.41-.13,0V63.47l.13,0L45,70.83a.73.73,0,0,0,0,.09L47.43,75l-2.35,4.08A.73.73,0,0,0,45,79.17Zm2.39,4.45a9.48,9.48,0,0,1,1-2.33l.06-.1A8.81,8.81,0,0,1,50,79.4l3.86,6.67-6,3.44A8.89,8.89,0,0,1,47.42,83.62Zm20.36,26.92L47.83,99l0-.15H61.22l6.67,11.57ZM74,105.75a9,9,0,0,1-7.71-6.88H74Zm0-12.6-2.58-4.46A8.65,8.65,0,0,1,74,88Zm0-9.27a8.91,8.91,0,0,1-6.18-3.58L74,76.73Zm0-10.61L67.82,69.7A8.91,8.91,0,0,1,74,66.12ZM74,62a8.92,8.92,0,0,1-6.18-3.59l5.71-3.29H74Zm0-10.88H66.29A9,9,0,0,1,74,44.25ZM85.76,89.5a7.75,7.75,0,0,1-.45-1.25,8.89,8.89,0,0,1,.44-5.89l6,3.44-.22.39Zm3.72.16-1.62,2.82a9.29,9.29,0,0,1-1.11-1.24Zm.71-26.6H85.07a8.38,8.38,0,0,1,.24-1.31,7.75,7.75,0,0,1,.45-1.25Zm-3.44-4.3a8.71,8.71,0,0,1,1.11-1.24l1.62,2.82Zm3.46,6.3-4.46,2.58a9.05,9.05,0,0,1-.69-2.58Zm2.72,2.73v5.14a8.75,8.75,0,0,1-2.56-.69ZM91.32,55.53a8.94,8.94,0,0,1,2.5-.4H94a9,9,0,0,1,2.23.3,8.86,8.86,0,0,1,4.87,3.33l-6,3.44Zm1.61,21.54v6.61l-.22.39-5.95-3.44A8.92,8.92,0,0,1,92.93,77.07Zm-4.3-5.82a9.05,9.05,0,0,1-1.88-1.88L91.2,66.8ZM95.17,87.8l6,3.44a8.86,8.86,0,0,1-4.87,3.33,9.12,9.12,0,0,1-2.53.3h-.11a8.59,8.59,0,0,1-2.3-.39Zm-.24-7.58V77.06a9.27,9.27,0,0,1,1.63.34Zm0-7.28V69.78l1.63,2.82A8.29,8.29,0,0,1,94.93,72.94Zm1.24-9,6-3.44a8.89,8.89,0,0,1,.45,5.89,9.48,9.48,0,0,1-1,2.33l-.06.1A8.81,8.81,0,0,1,100,70.6Zm-14-24.47,20,11.52,0,.15H88.78L82.11,39.56Zm1,53.83a9.74,9.74,0,0,1,.52,1.58H80.46Zm-5.46.85,2.57-4.45a9.06,9.06,0,0,1,1.88,1.88Zm5.46-15.57L77,75l6.19-3.57a8.87,8.87,0,0,1,0,7.14Zm0-21.87-2.72-1.57h3.24A9.32,9.32,0,0,1,83.19,56.7ZM76,44.25a9,9,0,0,1,7.71,6.88H76Zm0,10.88h.47l5.71,3.3A9,9,0,0,1,76,62Zm0,11a8.91,8.91,0,0,1,6.18,3.58L76,73.27Zm0,10.61,6.18,3.57A8.91,8.91,0,0,1,76,83.88ZM76,88a8.88,8.88,0,0,1,2.57.69L76,93.13Zm0,17.76V98.87h7.71A9,9,0,0,1,76,105.75Zm6.22,4.79-.11-.1,6.67-11.57h13.36l0,.15Zm19.91-21-6-3.44L100,79.4a8.81,8.81,0,0,1,1.49,1.79l.06.1a9.48,9.48,0,0,1,1,2.33A8.89,8.89,0,0,1,102.13,89.51Zm7.25-3-.13,0L105,79.17l0-.1L102.57,75l2.35-4.07,0-.1,4.28-7.41.13,0Z"/></svg>