<svg id="Livello_22" data-name="Livello 22" xmlns="http://www.w3.org/2000/svg" viewBox="0 0 150 150"><title>flower of life-bold</title><path d="M74.81,38.24a12.27,12.27,0,0,0,0-12.28A12.25,12.25,0,0,0,74.81,38.24Z"/><path d="M85.44,32.1h0a12.28,12.28,0,0,0-10.63,6.15,12.26,12.26,0,0,0,10.62-6.13,12.28,12.28,0,0,0,0,12.27,12.28,12.28,0,0,0,0-12.27,12.26,12.26,0,0,0,10.62,6.13A12.26,12.26,0,0,0,85.44,32.1h0A12.27,12.27,0,0,0,74.81,26,12.25,12.25,0,0,0,85.44,32.1Z"/><path d="M53.54,50.53a12.27,12.27,0,0,0,0-12.28A12.25,12.25,0,0,0,53.54,50.53Z"/><path d="M64.16,32.12a12.28,12.28,0,0,0,0,12.27,12.28,12.28,0,0,0,0-12.27,12.27,12.27,0,0,0,10.63,6.13A12.29,12.29,0,0,0,64.17,32.1h0A12.27,12.27,0,0,0,74.81,26,12.27,12.27,0,0,0,64.17,32.1h0a12.28,12.28,0,0,0-10.63,6.15A12.25,12.25,0,0,0,64.16,32.12Z"/><path d="M74.81,50.53a12.27,12.27,0,0,0,0-12.28A12.25,12.25,0,0,0,74.81,50.53Z"/><path d="M74.81,38.25a12.29,12.29,0,0,0,10.63,6.14A12.27,12.27,0,0,0,74.81,38.25Z"/><path d="M85.44,44.39a12.29,12.29,0,0,0,10.63-6.14A12.27,12.27,0,0,0,85.44,44.39Z"/><path d="M96.07,50.53a12.22,12.22,0,0,0,0-12.28A12.27,12.27,0,0,0,96.07,50.53Z"/><path d="M106.71,44.39h0a12.29,12.29,0,0,0-10.64,6.15,12.27,12.27,0,0,0,10.61-6.1,12.25,12.25,0,0,0,0,12.23,12.25,12.25,0,0,0,0-12.23,12.29,12.29,0,0,0,10.61,6.1,12.28,12.28,0,0,0-10.63-6.15h0a12.27,12.27,0,0,0-10.64-6.14A12.3,12.3,0,0,0,106.71,44.39Z"/><path d="M32.27,62.82a12.27,12.27,0,0,0,0-12.28A12.27,12.27,0,0,0,32.27,62.82Z"/><path d="M32.27,50.54A12.29,12.29,0,0,0,42.9,56.68,12.27,12.27,0,0,0,32.27,50.54Z"/><path d="M42.9,56.68a12.32,12.32,0,0,0,10.64-6.14A12.28,12.28,0,0,0,42.9,56.68Z"/><path d="M53.54,62.82a12.27,12.27,0,0,0,0-12.28A12.25,12.25,0,0,0,53.54,62.82Z"/><path d="M53.54,50.54a12.29,12.29,0,0,0,10.63,6.14A12.27,12.27,0,0,0,53.54,50.54Z"/><path d="M42.91,44.39h0a12.31,12.31,0,0,0,10.63-6.14,12.27,12.27,0,0,0-10.63,6.14h0a12.28,12.28,0,0,0-10.63,6.15,12.27,12.27,0,0,0,10.61-6.1,12.25,12.25,0,0,0,0,12.23,12.25,12.25,0,0,0,0-12.23,12.27,12.27,0,0,0,10.61,6.1A12.28,12.28,0,0,0,42.91,44.39Z"/><path d="M64.17,56.68a12.32,12.32,0,0,0,10.64-6.14A12.27,12.27,0,0,0,64.17,56.68Z"/><path d="M74.81,62.82a12.27,12.27,0,0,0,0-12.28A12.25,12.25,0,0,0,74.81,62.82Z"/><path d="M85.44,44.39a12.28,12.28,0,0,0-10.63,6.15A12.26,12.26,0,0,0,85.44,44.39Z"/><path d="M64.18,44.39h0a12.32,12.32,0,0,0,10.64-6.14,12.27,12.27,0,0,0-10.64,6.14h0a12.27,12.27,0,0,0-10.63-6.14,12.29,12.29,0,0,0,10.63,6.14h0a12.28,12.28,0,0,0-10.63,6.15,12.29,12.29,0,0,0,10.61-6.1,12.25,12.25,0,0,0,0,12.23,12.25,12.25,0,0,0,0-12.23,12.27,12.27,0,0,0,10.61,6.1A12.28,12.28,0,0,0,64.18,44.39Z"/><path d="M96.07,62.82a12.22,12.22,0,0,0,0-12.28A12.27,12.27,0,0,0,96.07,62.82Z"/><path d="M96.07,50.54a12.3,12.3,0,0,0,10.64,6.14A12.27,12.27,0,0,0,96.07,50.54Z"/><path d="M85.44,44.39a12.26,12.26,0,0,0,10.63,6.15A12.26,12.26,0,0,0,85.44,44.39Z"/><path d="M106.71,56.68a12.29,12.29,0,0,0,10.63-6.14A12.27,12.27,0,0,0,106.71,56.68Z"/><path d="M117.34,62.82a12.25,12.25,0,0,0,0-12.28A12.27,12.27,0,0,0,117.34,62.82Z"/><path d="M32.27,75.11a12.27,12.27,0,0,0,0-12.28A12.27,12.27,0,0,0,32.27,75.11Z"/><path d="M42.9,56.68a12.28,12.28,0,0,0-10.63,6.15A12.23,12.23,0,0,0,42.9,56.68Z"/><path d="M53.54,75.11a12.27,12.27,0,0,0,0-12.28A12.25,12.25,0,0,0,53.54,75.11Z"/><path d="M64.17,56.68a12.28,12.28,0,0,0-10.63,6.15A12.23,12.23,0,0,0,64.17,56.68Z"/><path d="M53.54,62.83A12.28,12.28,0,0,0,42.9,56.68,12.26,12.26,0,0,0,53.54,62.83Z"/><path d="M74.81,75.11a12.27,12.27,0,0,0,0-12.28A12.25,12.25,0,0,0,74.81,75.11Z"/><path d="M74.81,62.83a12.29,12.29,0,0,0-10.64-6.15A12.26,12.26,0,0,0,74.81,62.83Z"/><path d="M85.44,69h0a12.27,12.27,0,0,0-10.63-6.14A12.29,12.29,0,0,0,85.44,69h0a12.25,12.25,0,0,0-10.62,6.14,12.24,12.24,0,0,0,10.58-6.07,12.27,12.27,0,0,0,0,12.15h0a12.24,12.24,0,0,0-10.59-6.08A12.24,12.24,0,0,0,85,81.23a12.27,12.27,0,0,0-10,5.89,12.27,12.27,0,0,0-.15-12,12.25,12.25,0,0,0-.15,12,12.27,12.27,0,0,0-10-5.89,12.26,12.26,0,0,0,10.17-6.11,12.26,12.26,0,0,0-10.6,6.08h0a12.27,12.27,0,0,0,0-12.16,12.26,12.26,0,0,0,10.6,6.08A12.27,12.27,0,0,0,64.18,69h0a12.31,12.31,0,0,0,10.63-6.14,12.24,12.24,0,0,0-10.62,6.11,12.26,12.26,0,0,0,0-12.25,12.26,12.26,0,0,0,0,12.25,12.27,12.27,0,0,0-10.62-6.11A12.29,12.29,0,0,0,64.17,69h0a12.27,12.27,0,0,0-10.63,6.14A12.24,12.24,0,0,0,64.13,69a12.27,12.27,0,0,0,0,12.16h0a12.26,12.26,0,0,0-10.6-6.08,12.24,12.24,0,0,0,10.17,6.11,12.27,12.27,0,0,0-10,5.89,12.25,12.25,0,0,0-.15-12,12.25,12.25,0,0,0-.15,12,12.27,12.27,0,0,0-10-5.89,12.26,12.26,0,0,0,10.17-6.11,12.26,12.26,0,0,0-10.6,6.08h0a12.25,12.25,0,0,0,0-12.15,12.25,12.25,0,0,0,10.59,6.07A12.27,12.27,0,0,0,42.91,69h0a12.3,12.3,0,0,0,10.63-6.14,12.27,12.27,0,0,0-10.62,6.11,12.24,12.24,0,0,0,0-12.25,12.26,12.26,0,0,0,0,12.25,12.27,12.27,0,0,0-10.62-6.11A12.29,12.29,0,0,0,42.9,69h0a12.27,12.27,0,0,0-10.63,6.14,12.26,12.26,0,0,0,10.59-6.07,12.25,12.25,0,0,0,0,12.15h0a12.26,12.26,0,0,0-10.6-6.08,12.26,12.26,0,0,0,10.17,6.11,12.27,12.27,0,0,0-10,5.89,12.25,12.25,0,0,0-.15-12,12.26,12.26,0,0,0,0,12.26,12.24,12.24,0,0,0,0,12.25,12.26,12.26,0,0,0,0-12.25h0a12.26,12.26,0,0,0,10.58,6.12h0a12.26,12.26,0,0,0-10.61,6.14,12.26,12.26,0,0,0,10.6-6.09,12.26,12.26,0,0,0,0,12.22,12.26,12.26,0,0,0,0-12.22,12.25,12.25,0,0,0,10.6,6.09A12.27,12.27,0,0,0,42.93,93.5h0a12.29,12.29,0,0,0,10.58-6.12h0a12.26,12.26,0,0,0,0,12.25,12.26,12.26,0,0,0,0-12.25h0a12.27,12.27,0,0,0,10.61,6.12h0a12.3,12.3,0,0,0-10.63,6.15,12.27,12.27,0,0,0,10.6-6.09,12.26,12.26,0,0,0,0,12.22,12.28,12.28,0,0,0,0-12.22,12.25,12.25,0,0,0,10.6,6.09,12.3,12.3,0,0,0-10.63-6.15h0a12.3,12.3,0,0,0,10.62-6.12h0a12.24,12.24,0,0,0,0,12.25,12.26,12.26,0,0,0,0-12.25h0a12.3,12.3,0,0,0,10.62,6.12h0a12.3,12.3,0,0,0-10.63,6.15,12.27,12.27,0,0,0,10.6-6.09,12.26,12.26,0,0,0,0,12.22,12.28,12.28,0,0,0,0-12.22,12.24,12.24,0,0,0,10.59,6.09,12.27,12.27,0,0,0-10.62-6.15h0a12.3,12.3,0,0,0,10.62-6.12h0a12.26,12.26,0,0,0,0,12.25,12.24,12.24,0,0,0,0-12.25h0a12.29,12.29,0,0,0,10.62,6.12h0a12.3,12.3,0,0,0-10.63,6.15,12.25,12.25,0,0,0,10.6-6.09,12.28,12.28,0,0,0,0,12.22,12.26,12.26,0,0,0,0-12.22,12.27,12.27,0,0,0,10.6,6.09,12.3,12.3,0,0,0-10.63-6.15h0a12.3,12.3,0,0,0,10.62-6.12h0a12.26,12.26,0,0,0,0,12.25,12.26,12.26,0,0,0,0-12.25,12.28,12.28,0,0,0,0-12.26,12.27,12.27,0,0,0-.15,12,12.27,12.27,0,0,0-10-5.89,12.26,12.26,0,0,0,10.17-6.11,12.24,12.24,0,0,0-10.59,6.08h0a12.25,12.25,0,0,0,0-12.22,12.25,12.25,0,0,0,0,12.22h0a12.26,12.26,0,0,0-10.6-6.08,12.27,12.27,0,0,0,10.18,6.11,12.27,12.27,0,0,0-10,5.89,12.22,12.22,0,0,0-.15-12,12.25,12.25,0,0,0-.14,12,12.29,12.29,0,0,0-10-5.89,12.25,12.25,0,0,0,10.17-6.11A12.26,12.26,0,0,0,85.48,81.2h0a12.3,12.3,0,0,0,0-12.15,12.26,12.26,0,0,0,10.58,6.07A12.24,12.24,0,0,0,85.45,69h0a12.29,12.29,0,0,0,10.63-6.14A12.27,12.27,0,0,0,85.44,69Zm0,12.25h0Zm-21.24,0h0Zm0,0Zm-21.27,0v0l0,0h0v0h0v0ZM32.3,87.35h0a12.29,12.29,0,0,0,10.57-6.09h0a12.29,12.29,0,0,0-.22,11.87A12.26,12.26,0,0,0,32.3,87.35Zm10.82,5.78a12.27,12.27,0,0,0-.21-11.87h0a12.29,12.29,0,0,0,10.57,6.09h0A12.29,12.29,0,0,0,43.12,93.13Zm10.45-5.78h0a12.29,12.29,0,0,0,10.57-6.09h0a12.26,12.26,0,0,0,0,12.21A12.26,12.26,0,0,0,53.57,87.35Zm10.61,6.12a12.26,12.26,0,0,0,0-12.21h0a12.29,12.29,0,0,0,10.57,6.09h0A12.28,12.28,0,0,0,64.18,93.47Zm10.66-6.12h0A12.27,12.27,0,0,0,85.4,81.26h0a12.26,12.26,0,0,0,0,12.21A12.27,12.27,0,0,0,74.84,87.35Zm42.47,0h0a12.26,12.26,0,0,0-10.59,6.12,12.26,12.26,0,0,0,0-12.21h0A12.26,12.26,0,0,0,117.31,87.35Zm-10.58-6.12h0Zm0,0Zm0,0h0a12.26,12.26,0,0,0,0,12.21,12.28,12.28,0,0,0-10.6-6.12h0A12.27,12.27,0,0,0,106.67,81.26ZM96,87.35h0a12.28,12.28,0,0,0-10.6,6.12,12.26,12.26,0,0,0,0-12.21h0A12.27,12.27,0,0,0,96,87.35ZM85.46,81.23h0Z"/><path d="M96.07,75.11a12.22,12.22,0,0,0,0-12.28A12.27,12.27,0,0,0,96.07,75.11Z"/><path d="M106.71,56.68a12.29,12.29,0,0,0-10.64,6.15A12.26,12.26,0,0,0,106.71,56.68Z"/><path d="M85.44,56.68h0a12.29,12.29,0,0,0,10.63-6.14,12.25,12.25,0,0,0-10.62,6.13,12.28,12.28,0,0,0,0-12.27,12.28,12.28,0,0,0,0,12.27,12.25,12.25,0,0,0-10.62-6.13,12.29,12.29,0,0,0,10.63,6.14h0a12.28,12.28,0,0,0-10.63,6.15,12.26,12.26,0,0,0,10.6-6.1,12.28,12.28,0,0,0,0,12.23,12.28,12.28,0,0,0,0-12.23,12.26,12.26,0,0,0,10.6,6.1A12.26,12.26,0,0,0,85.44,56.68Z"/><path d="M106.73,68.94a12.29,12.29,0,0,0,0-12.25,12.26,12.26,0,0,0,0,12.25,12.24,12.24,0,0,0-10.62-6.11A12.3,12.3,0,0,0,106.71,69h0a12.29,12.29,0,0,0,10.63-6.14A12.24,12.24,0,0,0,106.73,68.94Z"/><path d="M117.34,75.11a12.25,12.25,0,0,0,0-12.28A12.27,12.27,0,0,0,117.34,75.11Z"/><path d="M106.71,56.68a12.24,12.24,0,0,0,10.63,6.15A12.28,12.28,0,0,0,106.71,56.68Z"/><path d="M106.71,69a12.28,12.28,0,0,0-10.64,6.14A12.27,12.27,0,0,0,106.71,69Z"/><path d="M117.34,75.12A12.27,12.27,0,0,0,106.71,69,12.25,12.25,0,0,0,117.34,75.12Z"/><path d="M32.27,99.64a12.29,12.29,0,0,0,10.63,6.14A12.27,12.27,0,0,0,32.27,99.64Z"/><path d="M106.71,105.78a12.29,12.29,0,0,0,10.63-6.14A12.27,12.27,0,0,0,106.71,105.78Z"/><path d="M106.71,105.77h0a12.26,12.26,0,0,0-10.63-6.13,12.26,12.26,0,0,0,10.57,6.13,12.28,12.28,0,0,0-10.55,6.13,12.26,12.26,0,0,0,0-12.26,12.28,12.28,0,0,0,0,12.26,12.28,12.28,0,0,0-10.55-6.13,12.25,12.25,0,0,0,10.56-6.13,12.25,12.25,0,0,0-10.62,6.13h0a12.27,12.27,0,0,0-10.63-6.13,12.24,12.24,0,0,0,10.56,6.13,12.28,12.28,0,0,0-10.55,6.13,12.26,12.26,0,0,0,0-12.26,12.28,12.28,0,0,0,0,12.26,12.27,12.27,0,0,0-10.55-6.13,12.27,12.27,0,0,0,10.57-6.13,12.26,12.26,0,0,0-10.63,6.13h0a12.26,12.26,0,0,0-10.63-6.13,12.25,12.25,0,0,0,10.56,6.13,12.28,12.28,0,0,0-10.55,6.13,12.26,12.26,0,0,0,0-12.26,12.26,12.26,0,0,0,0,12.26A12.3,12.3,0,0,0,43,105.77a12.26,12.26,0,0,0,10.57-6.13,12.26,12.26,0,0,0-10.63,6.13h0a12.28,12.28,0,0,0,10.63,6.14h0a12.29,12.29,0,0,0,10.63,6.14h0a12.3,12.3,0,0,0,10.64,6.14,12.25,12.25,0,0,0-10.64-6.14h0a12.32,12.32,0,0,0,10.64-6.14h0a12.25,12.25,0,0,0,0,12.28,12.27,12.27,0,0,0,0-12.28h0a12.29,12.29,0,0,0,10.63,6.14h0a12.25,12.25,0,0,0-10.63,6.14,12.3,12.3,0,0,0,10.63-6.14h0a12.29,12.29,0,0,0,10.63-6.14h0a12.26,12.26,0,0,0,10.62-6.14h0Zm-53.17,6.15h0a12.29,12.29,0,0,0,10.63-6.14h0a12.26,12.26,0,0,0,0,12.26A12.25,12.25,0,0,0,53.54,111.92ZM64.18,118a12.28,12.28,0,0,0,0-12.26h0a12.26,12.26,0,0,0,10.62,6.14h0A12.27,12.27,0,0,0,64.18,118Zm10.63-6.12h0a12.29,12.29,0,0,0,10.63-6.14h0a12.26,12.26,0,0,0,0,12.26A12.25,12.25,0,0,0,74.81,111.92ZM85.45,118a12.26,12.26,0,0,0,0-12.26h0a12.26,12.26,0,0,0,10.62,6.14h0A12.27,12.27,0,0,0,85.45,118Z"/><path d="M74.81,16.24a58.88,58.88,0,1,0,58.87,58.88A58.95,58.95,0,0,0,74.81,16.24Zm0,113.76a54.88,54.88,0,1,1,54.87-54.88A54.88,54.88,0,0,1,74.81,130Z"/></svg>