<svg id="Livello_22" data-name="Livello 22" xmlns="http://www.w3.org/2000/svg" viewBox="0 0 150 150"><title>daisy-bold</title><path d="M128.5,81.67l-1.19-3.46-36-3.09,36-3.09,1.19-3.46L123,63.47l5.56-3.72-1.19-3.66-6.68.26L122.13,49l-3-2.11-31,18.69L115.5,41.88l-1.07-3.5L107,37.49l2.31-6.27L106.16,29l-5.25,4.13-3.15-6.82-3.66.06L80,59.65l8.2-35.23-2.93-2.2-6.55,3.67-1.83-6.43H73.08l-1.83,6.43L64.7,22.22l-2.93,2.2L70,59.65,55.9,26.33l-3.66-.06-3.15,6.82L43.84,29l-3.12,2.26L43,37.49l-7.46.89-1.07,3.5L61.84,65.56l-31-18.69-3,2.11,1.46,7.37-6.68-.26-1.19,3.66L27,63.47l-5.52,5.1L22.69,72l36,3.09-36,3.09L21.5,81.67,27,86.77l-5.56,3.72,1.19,3.66,6.68-.25-1.46,7.37,3,2.1,31-18.68L34.5,108.37l1.07,3.49,7.46.89L40.72,119l3.12,2.26,5.25-4.13L52.24,124l3.66-.06L70,90.6l-8.2,35.23L64.7,128l6.55-3.66,1.83,6.43h3.84l1.83-6.43L85.3,128l2.93-2.19L80,90.6,94.1,123.92l3.66.06,3.15-6.82,5.25,4.13,3.12-2.26L107,112.75l7.46-.89,1.07-3.49L88.16,84.69l31,18.68,3-2.1-1.46-7.37,6.68.25,1.19-3.66L123,86.77ZM75,86.84A11.72,11.72,0,1,1,86.72,75.12,11.74,11.74,0,0,1,75,86.84Zm43.29-26.4,2.15-.08-1.79,1.2-.24,3.13,4,3.75L90.2,71.2a14.1,14.1,0,0,0-.59-1.84l27.71-16.72-1.07,5.41ZM96,32.05l2.32,5,3,.73,1.69-1.33-.74,2L104,41.17l5.48.65L85,63a15.47,15.47,0,0,0-1.57-1.12ZM71.51,30.62l2.9-1.2L75,27.34l.59,2.08,2.9,1.2,4.82-2.7L76,59.45c-.32,0-.64-.05-1-.05s-.65,0-1,.05L66.69,27.92ZM46,41.17l1.64-2.68-.74-2,1.69,1.33,3-.73,2.32-5L66.57,61.88A15.47,15.47,0,0,0,65,63L40.54,41.82ZM31.59,64.69l-.24-3.13-1.79-1.2,2.15.08,2-2.39-1.07-5.41L60.39,69.36a14.1,14.1,0,0,0-.59,1.84L27.54,68.44Zm.12,25.11-2.15.09,1.79-1.2.24-3.13-4.05-3.75L59.8,79.05a15.14,15.14,0,0,0,.59,1.84L32.68,97.61l1.07-5.42ZM54,118.19l-2.32-5-3-.73-1.69,1.33.74-2L46,109.08l-5.48-.65L65,87.24a17.32,17.32,0,0,0,1.57,1.13Zm24.51,1.44-2.9,1.2L75,122.9l-.59-2.07-2.9-1.2-4.82,2.69L74,90.79c.32,0,.64,0,1,0s.65,0,1,0l7.34,31.53ZM104,109.08l-1.64,2.68.74,2-1.69-1.33-3,.73-2.32,5L83.43,88.37A17.32,17.32,0,0,0,85,87.24l24.46,21.19Zm14.43-23.52.24,3.13,1.79,1.2-2.15-.09-2,2.39,1.07,5.42L89.61,80.89a15.14,15.14,0,0,0,.59-1.84l32.26,2.76Z"/></svg>