<svg id="Livello_22" data-name="Livello 22" xmlns="http://www.w3.org/2000/svg" viewBox="0 0 150 150"><title>lily-bold</title><path d="M126.45,52.6l2.62-5.35-5.94-.4c-9.63-.64-20.23,1.41-30.36,5.8A51.65,51.65,0,0,0,78,23.89L75.17,21.1l-2.81,2.79A51.68,51.68,0,0,0,57.55,52.78c-10.23-4.48-20.94-6.57-30.68-5.93l-5.94.4,2.62,5.35c4,8.24,10.7,16.1,19,22.53A51.75,51.75,0,0,0,29.88,97.87l-1,3.83,3.82,1a52.27,52.27,0,0,0,13.81,1.87,51.43,51.43,0,0,0,15.89-2.54,63.69,63.69,0,0,0,9.28,23.43L75,130.44l3.32-5a63.61,63.61,0,0,0,9.25-23.38,51.59,51.59,0,0,0,16.81,2.83,52.74,52.74,0,0,0,13.82-1.86l3.82-1-1-3.83a51.85,51.85,0,0,0-13.27-23.33C115.93,68.49,122.48,60.72,126.45,52.6ZM83.18,75V75l0,.27a8,8,0,0,1-16,0l0-.35a8,8,0,0,1,16,0Zm-8-42.33A43.68,43.68,0,0,1,85.42,60.88c0,.2,0,.41,0,.61-1-.29-2-.55-3-.78a15.86,15.86,0,0,0-13.71-.39c-1.28.28-2.55.62-3.8,1,0-.14,0-.29,0-.44A43.68,43.68,0,0,1,75.17,32.63ZM34.12,54.87a63.61,63.61,0,0,1,22.81,6.45c0,1.06,0,2.11.12,3.16-1,.48-1.91,1-2.85,1.52a53.92,53.92,0,0,0-5.54,3.7A62.37,62.37,0,0,1,34.12,54.87Zm4.74,41.06a43.72,43.72,0,0,1,19.34-23l.11-.06c.27,1.13.58,2.24.92,3.35a15.9,15.9,0,0,0,7.1,12.06c.74.79,1.49,1.56,2.27,2.3l-.15.1A43.7,43.7,0,0,1,38.86,95.93ZM75,115.22A60.45,60.45,0,0,1,70,99c.84-.43,1.68-.87,2.5-1.34s1.85-1.12,2.75-1.71c1.06.72,2.14,1.4,3.26,2,.53.31,1.07.58,1.61.87A60.41,60.41,0,0,1,75,115.22ZM82.46,91l-.58-.37c1-.92,1.94-1.88,2.85-2.87a15.8,15.8,0,0,0,2.2-2,16,16,0,0,0,4.18-9.59c.34-1.1.65-2.21.91-3.33l.69.38a43.68,43.68,0,0,1,19.34,23A43.74,43.74,0,0,1,82.46,91Zm19.11-21.49a53.53,53.53,0,0,0-4.86-3.19c-1.12-.65-2.27-1.25-3.42-1.81.07-1.12.12-2.25.12-3.38a63.55,63.55,0,0,1,22.47-6.27A62.5,62.5,0,0,1,101.57,69.53Z"/></svg>