<svg id="Livello_22" data-name="Livello 22" xmlns="http://www.w3.org/2000/svg" viewBox="0 0 150 150"><title>treeoflifesephorat-bold</title><path d="M96.74,80.51V69.8a6,6,0,0,0,0-11.29V46.71a6.21,6.21,0,1,0-6-10.64l-9.69-5.9a6.21,6.21,0,1,0-12.23-1.51A6,6,0,0,0,69,29.93l-9.73,6.12a6.21,6.21,0,1,0-5.89,10.7V58.26a6.2,6.2,0,0,0,0,11.79V80.5a6.21,6.21,0,0,0,2,12.1,6.12,6.12,0,0,0,1.14-.11l14,25a6.21,6.21,0,1,0,9.22,0l13.95-25a6,6,0,0,0,1.12.11,6.21,6.21,0,0,0,2-12.09Zm-39.4-32,8.25,14.66H61.4a6.21,6.21,0,0,0-4.06-4.86Zm9.38,16.66,2.8,5-8.15-4.77,0-.2ZM57.34,80.51V70a6.23,6.23,0,0,0,2-1.19l9.5,5.56c0,.22,0,.44,0,.67A6.15,6.15,0,0,0,69,76.54L59.5,81.8A6.4,6.4,0,0,0,57.34,80.51Zm16.7,35h-.13L60.66,91.8l8.28,4.83a6.78,6.78,0,0,0-.11,1.2A6.21,6.21,0,0,0,74,104ZM74,91.7a6.14,6.14,0,0,0-3.1,1.47l-9.53-5.56,0-.23H74Zm0-6.33H61.44s0,0,0-.08l9.76-5.39A6.15,6.15,0,0,0,74,81.17Zm0-16.45a4.88,4.88,0,0,0-.55.12l-2.18-3.88H74Zm0-5.75H70.18L60,45a6.14,6.14,0,0,0,1.49-3.13H74Zm0-23.32H61.44c0-.14,0-.28-.08-.42L71,33.37a6.06,6.06,0,0,0,3,1.41Zm2-5.07a6.14,6.14,0,0,0,2.84-1.25l9.78,5.95-.06.36H76Zm0,7.07H88.6A6.12,6.12,0,0,0,90.11,45L79.89,63.17H76Zm7.31,23.32h5.47a.28.28,0,0,0,0,.09L80.65,70Zm-7.31,0h2.72L76.59,69,76,68.92Zm0,16A6.17,6.17,0,0,0,78.8,80l9.81,5.32s0,0,0,.06H76Zm0,6.2H88.59c0,.08,0,.15,0,.23l-9.54,5.53a6.24,6.24,0,0,0-3-1.42Zm.12,28.12H76V104a6.21,6.21,0,0,0,5.21-6.12,5.88,5.88,0,0,0-.13-1.27l8.32-4.82Zm16.58-35a6.35,6.35,0,0,0-2.2,1.3L81,76.65a6.56,6.56,0,0,0,.21-1.6,6.84,6.84,0,0,0,0-.79l9.64-5.54a5.81,5.81,0,0,0,1.9,1.09Zm0-22a6,6,0,0,0-3.93,4.69H84.47l8.27-14.7Z"/></svg>