<svg id="Livello_22" data-name="Livello 22" xmlns="http://www.w3.org/2000/svg" viewBox="0 0 150 150"><title>moonflower-bold</title><path d="M75,15.2,19.66,51.85l17,69.74h76.4l17-69.73Zm27.21,53.91a53.42,53.42,0,0,1-23.55,4.4,56.12,56.12,0,0,1,42.12-18.28l.27.18-.21.86A54.29,54.29,0,0,1,102.18,69.11ZM29,56.27l-.21-.85.28-.19a54,54,0,0,1,22.55,4.44A53.48,53.48,0,0,1,71.15,73.51a53.42,53.42,0,0,1-23.55-4.4A54.1,54.1,0,0,1,29,56.27ZM75,24.8l.41.28a53.83,53.83,0,0,1,4.71,22.49A53.44,53.44,0,0,1,75,71a53.44,53.44,0,0,1-5.13-23.4,54,54,0,0,1,4.71-22.49ZM81.21,29l33.73,22.42A61.72,61.72,0,0,0,81.55,65.09,61.66,61.66,0,0,0,81.21,29ZM68.44,65.27A61.57,61.57,0,0,0,34.86,51.38L68.73,28.93a61.55,61.55,0,0,0-.29,36.34Zm3.88,13a53.27,53.27,0,0,1-11,21.3,54.29,54.29,0,0,1-17.24,14H43l-.13-.52A56.15,56.15,0,0,1,72.32,78.32Zm-7.88,23.85A59.39,59.39,0,0,0,74.89,83.81a59.39,59.39,0,0,0,10.45,18.36,60.74,60.74,0,0,0,12.44,11.42H52A60.74,60.74,0,0,0,64.44,102.17Zm42.37,11.42h-1.15a54.29,54.29,0,0,1-17.24-14,53.43,53.43,0,0,1-11-21.3,56.06,56.06,0,0,1,29.48,34.75ZM30.73,63.48A60.47,60.47,0,0,0,46,72.79a59.72,59.72,0,0,0,19.35,4.67,61.58,61.58,0,0,0-24.31,28.4Zm78,42.38a60.47,60.47,0,0,0-9.3-15.32,59.8,59.8,0,0,0-15-13.08,59.72,59.72,0,0,0,19.36-4.67,60.47,60.47,0,0,0,15.31-9.31Z"/></svg>