<?xml version="1.0" encoding="UTF-8"?>
<svg id="Livello_3" data-name="Livello 3" xmlns="http://www.w3.org/2000/svg" viewBox="0 0 120 120">
  <path d="m32.39,80.33c2.34,4.17,5.61,7.63,9.47,10.19.2.27.45.51.77.67.2.1.4.16.61.2,1.72,1.01,3.54,1.85,5.44,2.49.11.08.23.16.36.23.32.16.66.24,1,.24.03,0,.06-.01.09-.01,2.61.74,5.33,1.14,8.11,1.14h3.5c2.84,0,5.61-.42,8.27-1.19,0,0,.02,0,.03,0,.34,0,.68-.08,1-.24.1-.05.18-.11.27-.17,1.94-.66,3.81-1.53,5.57-2.57.19-.04.38-.1.56-.19.3-.16.55-.37.74-.63,3.83-2.56,7.09-6.01,9.42-10.16l2.45-4.38c5.01-8.93,5.01-20.03,0-28.97l-2.45-4.38c-.34-.61-.71-1.2-1.09-1.78-.1-.23-.23-.45-.42-.64-.03-.03-.06-.05-.09-.08-1.32-1.89-2.84-3.61-4.53-5.12-.04-.05-.07-.1-.12-.15-.16-.16-.33-.28-.52-.39-4.73-3.98-10.65-6.45-16.94-6.91-.15-.03-.3-.05-.45-.05-.05,0-.1.01-.16.02-.51-.03-1.02-.05-1.53-.05h-3.5c-.56,0-1.11.03-1.67.06-.04,0-.09-.01-.13-.01-.16,0-.32.02-.47.05-6.2.48-12.02,2.9-16.7,6.8-.19.1-.37.23-.52.39-.04.04-.07.09-.11.14-1.71,1.5-3.24,3.22-4.57,5.1-.03.03-.06.04-.08.07-.18.19-.31.41-.41.63-.41.62-.81,1.26-1.18,1.92l-2.45,4.38c-5.01,8.93-5.01,20.03,0,28.97l2.45,4.38Zm4.29-14.48c.2.8.44,1.62.74,2.48l-5.32,1.6c-.3-.84-.55-1.69-.76-2.55l5.34-1.52Zm6-12.43l1.97-3.51c.03-.05.07-.1.1-.16.04-.06.08-.12.12-.19,1.07-1.74,2.27-3.17,3.61-4.31.23-.11.45-.25.63-.45.04-.05.08-.1.12-.15,2.07-1.53,4.45-2.4,7.18-2.64.01,0,.02,0,.03,0,.16,0,.31-.02.45-.05.35-.02.7-.03,1.06-.03h4.07c.29,0,.58.01.87.03.17.04.35.07.53.07.05,0,.1-.01.16-.02,2.77.27,5.27,1.24,7.41,2.89.12.13.26.23.41.32,1.4,1.15,2.64,2.6,3.71,4.33.07.15.16.29.26.43l1.94,3.46c1.54,3.14,2.22,6.05,2.08,8.91,0,.01,0,.02-.01.03-.09.3-.1.61-.07.91-.2,1.71-.69,3.42-1.49,5.15-.15.2-.28.43-.35.68,0,.02,0,.04-.01.05-.04.08-.08.16-.12.24l-2.01,3.59c-1.38,2.17-3.02,3.93-4.86,5.24-.06.04-.12.08-.18.13-2.46,1.7-5.27,2.6-8.27,2.6h-4.07c-.88,0-1.74-.08-2.56-.22-.22-.08-.45-.13-.67-.14-1.7-.39-3.29-1.11-4.81-2.19-.15-.14-.32-.28-.51-.38-1.65-1.26-3.22-2.95-4.78-5.1l-1.93-3.44c-.09-.19-.16-.37-.24-.56-.03-.09-.06-.17-.11-.25-.88-2.1-1.43-3.9-1.65-5.61,0-.23,0-.47-.07-.7,0,0,0,0,0,0-.21-2.79.48-5.44,2.07-8.97Zm-2.35-14.02l3.87,3.76c-.57.59-1.11,1.23-1.64,1.9l-3.94-3.72c.54-.67,1.11-1.33,1.71-1.94Zm41.13,2.06l-3.95,3.74c-.52-.67-1.07-1.31-1.64-1.9l3.9-3.78c.6.61,1.16,1.27,1.7,1.95Zm-9.1-1.01c-2.03-1.3-4.27-2.18-6.68-2.63v-5.59c3.87.61,7.51,2.12,10.65,4.35l-3.97,3.86Zm-11.17-2.96h-2.5v-5.58h2.5v5.58Zm-6.99.33c-2.37.42-4.53,1.25-6.5,2.49l-3.92-3.81c3.09-2.17,6.64-3.63,10.42-4.24v5.56Zm34.45,29.56c-.21.86-.46,1.71-.76,2.55l-5.22-1.57c.3-.83.54-1.65.73-2.48l5.25,1.5Zm-17.52,21.82l-2.47-4.97c.75-.28,1.48-.62,2.2-.99l2.53,4.92c-.73.38-1.49.73-2.26,1.04Zm-24.43-.99l2.54-4.94c.71.39,1.44.73,2.19,1.01l-2.47,4.95c-.77-.31-1.53-.65-2.27-1.03Zm-10.41-10.05l-2.3-4.1,5.26-1.58,1.55,2.78.14.21c1.48,2.06,3.01,3.78,4.61,5.18l-2.64,5.14c-2.65-2.04-4.92-4.62-6.61-7.64Zm21.96,12.87c-1.67,0-3.31-.17-4.92-.49l2.59-5.2c.67.07,1.35.11,2.04.11h4.07c.72,0,1.44-.05,2.15-.13l2.59,5.2c-1.64.33-3.32.51-5.02.51h-3.5Zm18.94-5.29l-2.6-5.05c1.71-1.47,3.25-3.25,4.56-5.32l1.62-2.88,5.25,1.58-2.3,4.11c-1.67,2.98-3.9,5.54-6.52,7.57Zm12.12-22.83l-5.42-1.55c-.05-3.22-.9-6.48-2.59-9.91l-1.33-2.38,4.01-3.79,2.18,3.9c2.36,4.22,3.41,9.01,3.15,13.73Zm-55.48-13.73l2.26-4.03,4.01,3.79-1.35,2.41-.09.17c-1.68,3.71-2.53,6.77-2.54,9.85l-5.44,1.55c-.26-4.72.78-9.51,3.15-13.73Z"/>
  <path d="m45.83,70.33c2.82,5.03,8.16,8.16,13.92,8.16h.48c5.77,0,11.1-3.13,13.92-8.16l.59-1.06c2.7-4.81,2.7-10.79,0-15.6l-.59-1.06c-2.82-5.03-8.15-8.16-13.92-8.16h-.48c-5.77,0-11.1,3.13-13.92,8.16l-.59,1.06c-2.7,4.81-2.7,10.79,0,15.6l.59,1.06Zm3.09-14.6l.59-1.06c2.07-3.7,6-6,10.24-6h.48c4.24,0,8.17,2.3,10.24,6l.59,1.06c1.98,3.54,1.98,7.94,0,11.48l-.59,1.06c-2.07,3.7-6,6-10.24,6h-.48c-4.24,0-8.17-2.3-10.24-6l-.59-1.06c-1.98-3.54-1.98-7.94,0-11.48Z"/>
  <path d="m11,73.35c.21,0,.43-.03.64-.09l8.01-2.41c.26.87.56,1.73.89,2.6l-8.22,2.48c-1.17.35-1.84,1.59-1.48,2.76.29.96,1.17,1.58,2.12,1.58.21,0,.43-.03.64-.09l8.79-2.64c.24.47.48.94.75,1.41l3.69,6.59c2.62,4.67,6.21,8.57,10.43,11.5l-3.82,7.67c-.55,1.1-.1,2.43,1,2.97.32.16.65.23.99.23.81,0,1.6-.45,1.99-1.23l3.66-7.35c.77.4,1.55.76,2.35,1.1l-3.76,7.56c-.55,1.1-.1,2.43,1,2.97.32.16.65.23.99.23.81,0,1.6-.45,1.99-1.23l4.02-8.08c2.79.76,5.7,1.16,8.66,1.16h7.36c2.99,0,5.93-.41,8.76-1.19l4.05,8.14c.39.78,1.17,1.23,1.99,1.23.33,0,.67-.08.99-.23,1.1-.55,1.54-1.88,1-2.97l-3.8-7.63c.8-.34,1.58-.71,2.35-1.11l3.7,7.44c.39.78,1.17,1.23,1.99,1.23.33,0,.67-.08.99-.23,1.1-.55,1.54-1.88,1-2.97l-3.87-7.77c4.18-2.92,7.75-6.8,10.35-11.44l3.74-6.67c.23-.45.43-.9.65-1.35l8.86,2.67c.21.06.43.09.64.09.95,0,1.83-.62,2.12-1.58.35-1.17-.31-2.41-1.48-2.76l-8.42-2.53c.32-.87.6-1.75.85-2.61l8.25,2.48c.21.06.43.09.64.09.95,0,1.83-.62,2.12-1.58.35-1.17-.31-2.41-1.48-2.76l-8.54-2.57c1.26-7.69-.15-15.1-4.25-22.42l-3.69-6.59-.08-.14c-.11-.17-.23-.33-.35-.5l6.56-6.38c.88-.85.9-2.26.05-3.14-.85-.88-2.26-.9-3.14-.05l-6.14,5.97c-.57-.7-1.16-1.36-1.76-2l6.2-6.02c.88-.85.9-2.26.05-3.14-.85-.88-2.26-.9-3.14-.05l-6.3,6.12c-5.7-4.9-12.33-7.71-19.44-8.14v-8.97c0-1.23-.99-2.22-2.22-2.22s-2.22.99-2.22,2.22v8.9h-2.55v-8.9c0-1.23-.99-2.22-2.22-2.22s-2.22.99-2.22,2.22v8.97c-7.23.43-13.67,3.12-19.24,8.03l-6.28-6.1c-.88-.85-2.28-.83-3.14.04-.85.88-.83,2.28.04,3.14l6.22,6.05c-.59.65-1.17,1.32-1.73,2.03l-6.2-6.02c-.88-.85-2.28-.83-3.14.04-.85.88-.83,2.28.04,3.14l6.65,6.46c-.07.11-.15.21-.22.32l-4.08,6.88-.11.2c-3.88,8.4-5.34,15.47-4.36,22.33l-8.34,2.51c-1.17.35-1.84,1.59-1.48,2.76.29.96,1.17,1.58,2.12,1.58Zm16.05-27.2l3.94-6.65c6.6-10.04,15.12-15.13,25.32-15.13h7.36c7.4,0,14.12,2.84,19.8,8.26.03.03.05.06.07.09.08.08.16.14.24.2,1.98,1.94,3.82,4.19,5.52,6.75l3.65,6.52c5.48,9.78,5.47,19.8,0,30.56l-3.69,6.59c-5.27,9.4-15.08,15.24-25.6,15.24h-7.36c-10.52,0-20.33-5.84-25.6-15.24l-3.69-6.59c-5.63-10.04-5.62-18.35.03-30.61Z"/>
</svg>