<?xml version="1.0" encoding="UTF-8"?>
<svg id="Livello_3" data-name="Livello 3" xmlns="http://www.w3.org/2000/svg" viewBox="0 0 120 120">
  <path d="m110.66,89.8c-.61-.92-1.86-1.16-2.77-.55-.07.05-3.61,2.35-10.68,4.74.67-.77,1.11-1.75,1.19-2.85.05-.81,1.33-20.04.9-37.87-.29-12.04-1.7-21.28-2.9-27.17,5.12-6.28,4.46-11.76,4.43-11.98-.36-2.86-1.96-4.71-4.4-5.08-2.05-.32-4.08.87-5.45,3.22-.33.56-.89.94-1.53,1.05-.64.11-1.28-.07-1.79-.5-2.02-1.73-4.33-2.18-6.16-1.2-2.17,1.16-3.09,3.44-2.51,6.24.05.24,1.24,5.8,8.39,10.05.56,2.73,1.41,7.4,2.01,12.81.04.32-.11.64-.34.78-5.91,3.37-20.19-.48-22.86-4.23l-.18-.25-.03-.02c-.05-.24-.09-1.16,1.15-3.1,1.94-3.04,2.34-5.95,1.14-8.2-.86-1.6-2.94-3.53-7.91-3.61h-.05s-.05,0-.05,0c-.04,0-.07,0-.1,0-.03,0-.07,0-.11,0h-.05s-.05,0-.05,0c-4.97.08-7.04,2-7.91,3.61-1.21,2.24-.8,5.15,1.14,8.2,1.24,1.95,1.2,2.86,1.15,3.1l-.21.27c-2.67,3.75-16.95,7.6-22.86,4.23-.24-.14-.38-.45-.34-.78.49-4.43,1.17-8.75,2.05-12.84,7.11-4.25,8.3-9.79,8.35-10.02.58-2.81-.33-5.09-2.5-6.25-1.84-.98-4.14-.54-6.19,1.22-.49.41-1.13.59-1.77.48-.64-.11-1.2-.49-1.56-1.09-1.34-2.3-3.37-3.49-5.42-3.18-2.44.37-4.05,2.23-4.4,5.07-.03.24-.69,5.78,4.52,12.1-1.76,8.4-2.76,17.5-2.99,27.06-.43,17.83.85,37.06.9,37.87.04.6.2,1.17.43,1.69-6.18-2.35-9.3-4.45-9.38-4.5-.91-.63-2.15-.41-2.78.5-.63.91-.41,2.15.5,2.78.67.47,16.73,11.42,49.74,11.66.38,0,.75,0,1.12,0,32.23,0,47.95-10.26,48.61-10.7.92-.61,1.16-1.86.55-2.77ZM60.08,24.09l-.1,1.63v-.66s.1-.98.1-.98ZM23.41,14.63c.19-1.5.74-1.58,1.04-1.63,0,0,.02,0,.03,0,.22,0,.78.29,1.37,1.31.93,1.57,2.51,2.65,4.31,2.95,1.8.3,3.63-.2,5.05-1.41.94-.81,1.54-.78,1.68-.71.27.15.78.42.47,1.92,0,.04-1.04,4.41-7.16,7.77l-.79.44-.2.88c-.99,4.48-1.77,9.23-2.3,14.12-.21,1.92.71,3.76,2.34,4.69,7.39,4.21,23.79.33,27.99-5.24.76-.81,2.3-3.26-.72-7.99-1.09-1.72-1.46-3.27-.99-4.15.49-.92,2.1-1.46,4.42-1.5h0s.26.01.26.01h.15c2.29.03,3.88.58,4.37,1.49.47.88.1,2.43-.99,4.15-3.02,4.74-1.48,7.19-.72,7.99,4.2,5.57,20.61,9.45,27.99,5.24,1.63-.93,2.55-2.77,2.34-4.69-.51-4.61-1.31-9.61-2.25-14.08l-.19-.9-.81-.44c-6.14-3.35-7.17-7.64-7.21-7.81-.31-1.49.2-1.76.47-1.91.13-.07.73-.1,1.71.74,1.39,1.18,3.21,1.68,5.02,1.38,1.81-.3,3.38-1.38,4.35-3.02.59-1,1.17-1.27,1.36-1.24.3.05.85.13,1.04,1.62.02.18.43,4.48-4.12,9.62l-.67.76.21.99c1.21,5.65,2.72,14.98,3.02,27.39.43,17.65-.84,36.7-.89,37.5-.03.43-.32.72-.58.7-.26-.02-.52-.35-.49-.8.05-.71,1.17-17.59.95-34.21-.02-1.56-.79-3.02-2.05-3.9-1.68-1.17-3.71-1.93-5.11-2.36-.16-.05-16.37-4.59-21.8-1.61-1.3.72-1.81,1.71-2,2.41l-.04.16c-.7,3.77.56,5.93,1.28,7.11l-4.43,4.96-4.43-4.96c.73-1.18,1.99-3.34,1.29-7.11l-.04-.16c-.19-.7-.7-1.69-2-2.41-5.43-2.98-21.65,1.56-21.8,1.61-1.4.43-3.42,1.19-5.11,2.36-1.27.88-2.03,2.33-2.05,3.9-.22,16.63.9,33.5.95,34.21.03.45-.23.78-.5.8-.25.02-.54-.27-.57-.7-.05-.8-1.32-19.86-.89-37.5.23-9.68,1.28-18.86,3.11-27.28l.22-1-.68-.76c-4.64-5.19-4.23-9.53-4.21-9.71Zm7.51,75.88c-.05-.7-1.16-17.42-.94-33.89,0-.27.13-.52.33-.66.98-.68,2.41-1.33,4.01-1.82,8.04-2.48,17.4-2.97,18.77-1.89.35,2.18-.29,3.21-.85,4.13-.48.79-1.74,2.84.38,4.58l4.66,5.21c.72.8,1.59,1.23,2.68,1.32h.12s.12,0,.12,0c1.12-.05,2.03-.48,2.78-1.32l4.65-5.21c2.13-1.74.87-3.79.38-4.58-.56-.92-1.2-1.95-.85-4.13,1.37-1.08,10.73-.59,18.77,1.89,1.6.49,3.02,1.14,4.01,1.82.21.14.33.39.33.66.22,16.47-.89,33.19-.94,33.89-.15,2.26,1.24,4.27,3.29,4.88-1.96.54-4.12,1.06-6.46,1.54.4-1.52.27-4.73-2.73-11.91-.66-1.41-1.42-3.11-2.27-5-2.16-4.81-4.85-10.8-7.72-16.29-1.09-2.09-2.79-2.14-3.47-2.06-2.59.29-4.57,3.61-5.01,5.25-1.4,5.19.32,8.14,1.35,9.91l.08.13c7.66,13.19,11.35,18.72,13.55,21.05-1.31.19-2.68.36-4.08.51l-13.47-21.46c-.45-.68-1.22-1.07-2.01-1.07-.81.01-1.55.43-1.98,1.13l-13.09,21.19c-1.48-.18-2.91-.39-4.29-.61,2.23-2.49,5.92-8.09,13.27-20.74l.08-.13c1.03-1.76,2.75-4.72,1.35-9.91-.44-1.63-2.42-4.96-5.01-5.25-.68-.07-2.38-.02-3.47,2.06-2.87,5.49-5.56,11.48-7.72,16.29-.85,1.88-1.61,3.58-2.3,5.07-.9,2.15-3.3,7.92-2.76,11.33-2.08-.47-4.01-.97-5.79-1.49,1.46-.88,2.4-2.56,2.28-4.43Zm51.38,4.18c-1.71-2.06-5.25-7.35-12.45-19.74l-.08-.13c-.85-1.46-1.91-3.28-.95-6.85.17-.64.78-1.54,1.26-2.02,2.75,5.29,5.34,11.06,7.44,15.72.86,1.9,1.63,3.62,2.26,4.97,1.26,3.01,2.25,6.27,2.51,8.05Zm-43.93,0c.26-1.78,1.25-5.02,2.48-7.98.67-1.43,1.44-3.14,2.29-5.05,2.09-4.66,4.68-10.43,7.44-15.72.48.48,1.09,1.38,1.26,2.02.96,3.58-.1,5.39-.95,6.85l-.08.13c-7.2,12.39-10.74,17.69-12.45,19.74Zm22.04,4.58c-3.8-.03-7.36-.21-10.7-.5l10.7-17.33,10.97,17.48c-3.42.25-7.07.38-10.98.35Z"/>
  <path d="m110.67,98.11c-.6-.92-1.84-1.18-2.77-.58-.15.1-15.27,9.72-46.89,9.46-31.7-.23-48.76-10.88-48.93-10.98-.93-.6-2.17-.32-2.76.6-.6.93-.33,2.17.6,2.76.72.46,18.1,11.37,51.06,11.61.4,0,.79,0,1.18,0,32.17,0,47.3-9.71,47.93-10.12.92-.61,1.18-1.84.57-2.77Z"/>
</svg>