<?xml version="1.0" encoding="UTF-8"?>
<svg id="Livello_3" data-name="Livello 3" xmlns="http://www.w3.org/2000/svg" viewBox="0 0 120 120">
  <path d="m59.13,105.68c.37.3.81.44,1.26.44.58,0,1.16-.25,1.56-.74l6.13-7.59,6.17,7.59c.7.86,1.96.99,2.81.29.86-.7.99-1.96.29-2.81l-6.7-8.25,5.96-7.38c.53-.65.63-1.57.27-2.33s-1.14-1.25-1.98-1.25h-13.69c-.84,0-1.62.49-1.98,1.25-.36.76-.25,1.67.28,2.33l5.99,7.38-6.67,8.25c-.69.86-.56,2.12.3,2.81Zm5.87-18.02h6.13l-3.06,3.78-3.07-3.78Z"/>
  <path d="m67.97,23.53c4,0,7.25-3.26,7.25-7.27s-3.25-7.26-7.25-7.26-7.25,3.26-7.25,7.26,3.25,7.27,7.25,7.27Zm0-10.53c1.79,0,3.25,1.46,3.25,3.26s-1.46,3.27-3.25,3.27-3.25-1.46-3.25-3.27,1.46-3.26,3.25-3.26Z"/>
  <path d="m18.85,37.72c-7.11,1.6-10.34,7.55-9.79,12.35.09,1.19.62,4.99,3.81,7.51,1.88,1.48,5.21,2.93,10.41,1.39.65-.19,1.31-.69,1.66-1.26,1.31-2.1,1.34-4.43.09-6.22-1.15-1.65-3.17-2.44-5.15-2.02-.33.07-.59.09-.76.1-.02-.08-.04-.16-.04-.22l-.02-.29c.01-.28.2-1.13,2-1.54,1.84-.41,3.86.13,5.04,1.36,1.87,1.94,1.53,5.15.91,7.52l-.04.2c-.32,1.38-.53,2.71-.63,3.98-5.39-.25-9.92,1.21-12.92,4.2-3.03,3.03-4.17,7.31-3.03,11.45,1.04,3.79,4.13,6.6,8.08,7.35.64.12,1.28.18,1.9.18,3.68,0,6.52-2.05,7.22-5.22.08-.37.08-.75,0-1.12-.45-2.11-1.76-3.66-3.59-4.25-1.32-.43-2.75-.28-3.94.37-.03-.12-.07-.45.06-1.14.87-1.51,3.68-2.13,7.34-1.62.64.09,1.23.43,1.67.95l.62.74c3.43,4.06,9.03,5.61,13.8,6.13l-.21.26.3-.25c.79.08,1.55.14,2.27.18.06,0,.11.06.11.13l.03,29.19c0,1.59,1.29,2.89,2.88,2.89h39.09c1.38,0,2.5-1.12,2.5-2.5v-29.56h18.46s0,0,0,0c1.1,0,2-.9,2-2s-.89-2-2-2h-19.11s-16.1-20.2-16.1-20.2c-.01-.01-.04-.05-.03-.11,0-.06.05-.09.06-.1l6.26-4.1c.66-.43,1.1-1.13,1.21-1.91.11-.78-.12-1.57-.63-2.17l-.57-.66c1.44-.65,3.93-1.43,7.81-1.68,1.1-.07,1.94-1.02,1.87-2.12-.07-1.1-1.02-1.93-2.12-1.87-5.27.33-8.48,1.57-10.24,2.53l-2.52-2.94c3.24-2.59,7.59-2.93,7.64-2.93,1.1-.07,1.93-1.02,1.86-2.12-.07-1.1-1.02-1.94-2.12-1.87-.26.02-5.72.42-9.98,3.88l-2.31-2.7v-5.56c0-1.1-.9-2-2-2s-2,.9-2,2v5.61l-2.18,2.57c-4.25-3.4-9.63-3.79-9.89-3.8-1.1-.08-2.05.76-2.12,1.86-.07,1.1.76,2.05,1.86,2.13.05,0,4.33.34,7.56,2.86l-2.52,2.97c-1.77-.96-4.96-2.16-10.15-2.49-1.1-.06-2.05.77-2.12,1.87-.07,1.1.77,2.05,1.87,2.12,3.81.24,6.28,1.01,7.74,1.65l-.58.68c-.51.6-.73,1.39-.62,2.16.11.78.55,1.47,1.2,1.9l6.38,4.22-7.38,9.39c-.55.61-2.19,2.33-3.9,3.89-.74.67-2.9,1.31-5.88,1.12-3.38-.21-6.45-1.41-7.84-3.05-.19-.23-.38-.54-.56-.93-.08-.24-.18-.48-.29-.7-.57-1.93-.23-4.78.97-8.25,8.09-23.29,4.47-34.07,1.6-38.43-2.56-3.87-6.46-6.08-11.29-6.4-9.22-.61-13.44,3.7-15.13,6.32-2.38,3.69-2.67,8.46-.73,12.14,3.48,6.58,9.17,7.56,12.99,6.4.91-.28,1.62-1.03,1.86-1.96.56-2.22.39-4.06-.52-5.47-.76-1.17-1.99-1.96-3.47-2.23-.8-.14-1.45-.53-1.77-1.07-.07-.12-.14-.24-.21-.38-.15-.29-.23-1.19.28-1.98.85-1.31,3.05-1.95,6.05-1.75,1.7.11,2.77.68,3.58,1.92,2.17,3.29,2.44,9.19.78,17.12-3.53-2.63-8.2-3.63-12.69-2.62Zm67.69,69.28h-36.47l-.03-28.07h36.5v28.07Zm-32.7-36.15c1.3-1.19,2.49-2.4,3.08-3.01.56-.58,1.06-1.1,1.41-1.58h.01s7.66-9.73,7.66-9.73c.58-.73.83-1.67.68-2.59-.15-.92-.67-1.74-1.45-2.25l-5.81-3.84,1.01-1.19s.07-.05.11-.09c.11-.11.2-.23.27-.36l4.45-5.24s.05-.03.07-.05c.16-.15.29-.32.39-.5l2.29-2.7,8.67,10.15-5.07,3.32c-.97.64-1.63,1.66-1.82,2.81-.18,1.15.12,2.33.85,3.23l12.67,15.94,1.42,1.77h-36.7s3.06-2.58,3.06-2.58c1-.33,1.95-.82,2.72-1.52Zm-20.17-26.19l.04-.03c.7-.34,1.19-.94,1.36-1.68,2.38-10.18,2.07-17.35-.96-21.94-1.52-2.3-3.69-3.51-6.65-3.7-4.55-.3-7.99.97-9.67,3.57-1.18,1.82-1.37,4.3-.46,6.01.11.21.22.4.33.58.92,1.52,2.56,2.59,4.49,2.94.22.04.62.15.81.46.21.32.26.88.15,1.6-1.69.29-5.08.14-7.58-4.61-1.28-2.42-1.06-5.6.55-8.1,1.22-1.88,4.33-4.97,11.51-4.5,3.54.23,6.38,1.83,8.22,4.61,5.97,9.03.56,27.42-2.04,34.91-1.55,4.46-1.87,8.14-.95,10.96l.17.37c.03.06.06.13.09.22l.09.24c.35.8.75,1.45,1.21,1.99,2.12,2.5,6.09,4.17,10.64,4.46.69.04,1.77.07,2.98-.03l-1.46,1.85c-.13-.02-.26-.03-.4-.04-3.57-.18-10.05-1.06-13.31-4.91l-.62-.74c-1.08-1.28-2.56-2.1-4.18-2.33-5.47-.77-9.62.54-11.36,3.59-.21.37-.37.79-.45,1.25-.5,2.61.17,4.45,1.97,5.46.74.41,1.61.63,2.37.59l.71-.04.53-.48c.27-.24.65-.33.99-.21.37.12.66.46.83.98-.47,1.32-1.95,1.81-3.24,1.81-.37,0-.76-.04-1.16-.11-2.43-.46-4.33-2.18-4.96-4.48-.75-2.74,0-5.56,2-7.56,2.01-2.01,5.11-3.06,8.9-3.06.92,0,1.89.06,2.88.19l2.31.29-.06-2.33c-.04-1.62.17-3.42.6-5.26l.06-.24c1.5-5.93-.22-9.31-1.95-11.1-2.15-2.23-5.6-3.21-8.8-2.49-4.58,1.03-5.24,4.48-5.11,5.75l.02.26c0,.09.14,2.13,1.56,3.22.95.72,2.32.9,4.07.53.4-.08.81.08,1.04.41.26.37.25.89-.01,1.46-3.31.87-5.3.05-6.39-.81-1.99-1.57-2.26-4.18-2.3-4.69v-.11c-.38-3.07,1.84-6.93,6.68-8.02,3.93-.89,8.04.29,10.71,3.06.23.24,1.48,1.37,3.22-.03Zm-14.61,4.4l-.02-.17s.02.06.02.17Z"/>
</svg>