<?xml version="1.0" encoding="UTF-8"?>
<svg id="Livello_3" data-name="Livello 3" xmlns="http://www.w3.org/2000/svg" viewBox="0 0 120 120">
  <path d="m68.98,10.3c-.97-.52-2.19-.16-2.71.81-.77,1.42-1.12,2.86-1.05,4.26.03.64.14,1.18.23,1.62.02.11.05.24.07.35h-7.56v-5.29c-.01-1.1-.91-2-2.01-2h0c-1.1,0-2,.9-2,2v5.28s-7.47,0-7.47,0c.01-.06.03-.11.04-.16.13-.54.3-1.28.29-2.19-.02-1.35-.44-2.69-1.25-3.99-.59-.94-1.82-1.22-2.76-.63-.94.59-1.22,1.82-.63,2.76.42.68.63,1.3.64,1.92,0,.42-.08.79-.18,1.22-.19.8-.45,1.9.18,3.07.4.74,1.26,1.68,3.13,1.99h9.84c.06.02.13.03.19.03h0c.06,0,.12-.01.18-.02h9.47s.01.01.02.01c.32,0,.81-.05,1.34-.25.21-.08,1.3-.53,2.01-1.61.8-1.22.55-2.42.37-3.31-.07-.34-.14-.67-.15-.99-.03-.67.16-1.4.58-2.18.52-.97.16-2.19-.81-2.71Z"/>
  <path d="m96.57,96.72c.17.03.35.05.52.05,1.07,0,2.11-.63,2.68-1.69,3.96-7.22,5.03-15.23,3.69-27.65-.74-6.79-2.21-13.28-4.34-19.45-.02-.14-.06-.28-.11-.42-.03-.07-.07-.13-.1-.2-1.6-4.5-3.54-8.83-5.87-12.95-.68-1.2-2.04-1.74-3.31-1.33-1.33.43-2.15,1.74-1.99,3.18l6.61,57.91c.15,1.3,1.01,2.29,2.2,2.52Zm1.31-7.01l-4.32-37.86,2.35-.92c1.74,5.4,2.94,11.06,3.58,16.94,1.03,9.52.58,16.18-1.61,21.84Zm-3.3-42.56l-1.49.58-.66-5.75c.78,1.69,1.49,3.42,2.15,5.17Z"/>
  <path d="m14.48,35.88l-.03,69.39c0,1.32.52,2.55,1.48,3.48.94.91,2.18,1.41,3.5,1.41,1.26,0,2.41-.46,3.29-1.22.59.46,1.31.78,2.12.91,1.09.18,2.3.31,3.6.4,5.28.35,10.57.59,16.68.75h21.69c6.06-.16,11.35-.39,16.63-.75,1.3-.09,2.51-.22,3.6-.4,1.7-.28,3-1.39,3.55-2.87,1.04,2.67,2.97,3.22,3.93,3.31,2.84.3,5.72-2.14,6.72-5.67.38-1.33.93-2.47,1.65-3.38,2.64-3.32,6.94-11.49,7.25-19.29.48-12.06-1.11-24-4.54-34.84l5.15-2.01c1.03-.4,1.54-1.56,1.14-2.59-.4-1.03-1.56-1.54-2.59-1.14l-4.98,1.94c-1.43-3.91-3.11-7.66-5.03-11.18-2.73-5.02-4.33-7.32-5.29-8.7-.67-.97-.87-1.26-.99-1.69-1.09-3.92-2.74-6.44-4.88-7.5-1.35-.67-2.85-.73-4.25-.18-1.97.78-3.93,3.14-3.53,7.48l3.63,28.63c0,.19,0,.34,0,.47-6.73,2.45-19.42-1.46-21.88-5.03l-.17-.25-.05-.04c-.06-.24-.17-1.23,1.17-3.41,1.97-3.2,2.36-6.23,1.09-8.55-.89-1.62-2.99-3.57-7.94-3.65h-.05s-.05,0-.05,0c-.04,0-.07,0-.11,0-.03,0-.07,0-.11,0h-.05s-.05,0-.05,0c-4.96.08-7.05,2.03-7.94,3.65-1.27,2.31-.88,5.35,1.09,8.55,1.34,2.17,1.23,3.16,1.17,3.41l-.22.29c-2.02,2.94-14.99,6.62-23.13,4.99-1.33-.27-2.3-1.44-2.3-2.8v-11.92s4.55-8.05,4.55-8.05l.05-.09c.66-1.33,1.17-2.47,1.51-3.37.63-1.68.45-3.51-.49-4.9-.82-1.21-2.07-1.98-3.43-2.12-1.13-.11-2.28.25-3.42,1.07-1.91,1.37-2.73,3.2-3.33,4.53-.12.28-.28.62-.42.88-.13-.26-.28-.59-.4-.86-.6-1.34-1.41-3.18-3.33-4.55-1.14-.82-2.29-1.18-3.42-1.07-1.35.13-2.6.91-3.43,2.12-.94,1.39-1.13,3.22-.49,4.9.34.9.85,2.04,1.51,3.37l4.6,8.14Zm9.91,64.93l.02-33.2c0-1.02.5-1.98,1.35-2.58,1-.72,2.44-1.39,4.06-1.91,1.37-.44,5.52-1.76,10.74-2.23.09,0,.18-.01.27-.01,1.09,0,1.96.62,2.42,1.74.35.87.3,1.96-.14,2.97l-3.62,8.27c-.17.38-.34.75-.53,1.12l-.81,1.56c-2.18,4.21-6.73,12.97-10.89,20.21l-2.3,3.97c-.19.03-.37.06-.55.11Zm62.51-.11l-2.3-3.96c-4.08-7.1-7.93-15.25-9.77-19.17-.66-1.41-.99-2.09-1.17-2.44l-4.99-10.61c-.51-1.17-.55-2.18-.11-2.78.47-.65,1.57-.96,3.01-.83,4.92.42,8.27,1.49,10.54,2.22.59.19,1.17.4,1.71.64.93.4,1.58,1.27,1.7,2.28l4.22,36.18c-.71-.82-1.7-1.37-2.83-1.52ZM55.91,31.74l-.1,1.7v-.72s.1-.98.1-.98Zm-36.53-7.64s.03,0,.05,0l.3,1.96-.39-1.95s.03-.01.04-.01Zm-7.2-2.38c.15-.22.35-.37.51-.39.06,0,.29.05.7.33,1.04.74,1.51,1.8,2.01,2.93.59,1.33,1.4,3.16,3.48,3.47.33.05.72.04,1.15-.02h0c2.08-.31,2.86-2.06,3.49-3.46.5-1.12.98-2.17,2.01-2.92.4-.29.64-.34.7-.33.16.02.36.16.51.39.21.31.23.78.06,1.24-.2.53-.59,1.47-1.33,2.96l-5.11,9.05.08.77v12.06c0,3.25,2.31,6.08,5.51,6.72,9.02,1.81,23.56-1.7,27.1-6.49.75-.82,2.28-3.33-.73-8.21-1.15-1.86-1.52-3.56-.99-4.52.53-.97,2.12-1.53,4.48-1.57h0s.26.01.26.01h.15c2.32.03,3.89.59,4.42,1.55.53.97.16,2.66-.99,4.52-3,4.87-1.49,7.38-.74,8.21,3.9,5.35,18.91,9.56,27.03,6.15l.13-.06c1.85-.88,1.93-2.13,1.9-4.1l-3.65-28.9c-.16-1.71.25-3.01,1.03-3.32.5-.2.87-.02.99.04.49.24,1.75,1.22,2.8,5,.31,1.1.81,1.81,1.56,2.9.91,1.31,2.44,3.5,5.06,8.32,2.07,3.81,3.85,7.91,5.32,12.19.02.15.06.3.11.44.02.06.07.11.1.17,3.62,10.78,5.32,22.79,4.83,34.94-.26,6.42-3.96,13.92-6.38,16.96-1.05,1.32-1.85,2.93-2.37,4.78-.54,1.91-1.92,2.82-2.45,2.78-.27-.03-.88-.77-1.01-2.86l-4.41-37.88c-.28-2.43-1.85-4.54-4.09-5.5-.66-.28-1.36-.54-2.12-.79-2.39-.76-6-1.91-11.37-2.38-2.93-.25-5.27.63-6.6,2.48-1.28,1.77-1.39,4.22-.28,6.77l5.04,10.72.06.13c.12.21.59,1.21,1.08,2.26,1.87,3.97,5.76,12.22,9.93,19.46l.33.56v.03s2.42,4.14,2.42,4.14c.42.73,1.2,1.18,2.04,1.18h.3c.15,0,.59,0,.64.6.05.56-.33.62-.49.65-.96.16-2.04.28-3.21.36-5.23.35-10.46.58-16.42.74h-21.58c-6.01-.15-11.24-.39-16.47-.74-1.17-.08-2.25-.2-3.21-.36-.16-.03-.54-.09-.49-.65.05-.6.49-.6.63-.6h.3c.83,0,1.61-.45,2.04-1.18l2.75-4.74c4.21-7.32,8.78-16.14,10.98-20.37l.8-1.55c.23-.45.45-.9.65-1.36l3.62-8.27c.87-2,.93-4.21.18-6.07-1.14-2.82-3.79-4.48-6.75-4.21-5.65.51-10.12,1.94-11.59,2.4-1.42.45-3.47,1.25-5.17,2.47-1.89,1.34-3.02,3.52-3.02,5.83l-.02,37.66c0,.49-.44.89-.97.89-.27,0-.52-.1-.71-.28-.12-.12-.26-.32-.26-.61l.03-69.53.08-.78-5.11-9.06c-.74-1.49-1.13-2.43-1.33-2.96-.17-.46-.15-.93.06-1.24Z"/>
  <path d="m34.91,103.45c-.39,1.03.13,2.19,1.17,2.58.23.09.47.13.7.13.81,0,1.57-.49,1.87-1.3l13.14-34.87c.77-2.37.72-4.29.63-6.93-.03-.93-.06-1.98-.06-3.2,0-1.1-.9-2-2-2s-2,.9-2,2c0,1.27.03,2.36.06,3.33.07,2.4.12,3.86-.41,5.48l-13.11,34.79Z"/>
  <path d="m73.21,104.87c.3.8,1.06,1.3,1.87,1.3.23,0,.47-.04.7-.13,1.03-.39,1.56-1.54,1.17-2.58l-13.08-34.7c-.56-1.71-.51-3.16-.44-5.56.03-.97.06-2.05.06-3.33,0-1.1-.9-2-2-2s-2,.9-2,2c0,1.23-.03,2.27-.06,3.2-.08,2.65-.14,4.56.66,7.01l13.11,34.79Z"/>
  <path d="m56.13,106.3c1.1,0,2-.9,2-2v-44.57c0-1.1-.9-2-2-2s-2,.9-2,2v44.57c0,1.1.9,2,2,2Z"/>
</svg>