<?xml version="1.0" encoding="UTF-8"?>
<svg id="Livello_3" data-name="Livello 3" xmlns="http://www.w3.org/2000/svg" viewBox="0 0 120 120">
  <path d="m90.12,57.61c1.1,0,2-.9,2-2v-16.73c0-1.1-.9-2-2-2s-2,.9-2,2v6.37h-12.67c-1.19-2.46-2.84-4.84-4.33-6.75l-2.6-3.14.03-.08-.25-.16c-.38-.55-.57-2.09.82-4.68l4.58,4.06c.38.34.85.5,1.33.5.55,0,1.1-.23,1.5-.67.73-.83.66-2.09-.17-2.82l-5.23-4.64c1.71-3.63,1.92-7.03.51-9.76-.06-.12-.13-.23-.2-.35l4.73-3.75c.87-.69,1.01-1.94.32-2.81-.69-.87-1.94-1.01-2.81-.32l-5.04,4c-1.77-1.16-4.36-2.06-8.15-2.23h-.05s-.92,0-.92,0c-3.78.16-6.36,1.06-8.14,2.22l-5.03-3.99c-.87-.69-2.12-.54-2.81.32-.69.87-.54,2.12.32,2.81l4.71,3.74c-.07.12-.14.25-.2.37-1.42,2.74-1.2,6.15.52,9.78l-5.21,4.62c-.83.73-.9,2-.17,2.82.4.45.94.67,1.5.67.47,0,.95-.17,1.33-.5l4.56-4.05c1.34,2.52,1.19,4.04.84,4.62h0s-2.84,3.42-2.84,3.42c-1.49,1.91-3.13,4.29-4.33,6.75h-14.67c-1.1,0-2,.9-2,2s.9,2,2,2h13.23c-.16.74-.25,1.47-.25,2.18l2.43,33.24.02.15c.51,3.78,1.29,6.04,3.97,7.09,3.02,1.19,5.56,2.03,10.73,2.06,5.15-.03,7.69-.87,10.71-2.06,2.68-1.05,3.46-3.3,3.97-7.09l2.44-33.21v-.18c0-.71-.09-1.44-.25-2.18h11.23v6.37c0,1.1.9,2,2,2Zm-17.98-6.27l-.4,5.39-8.91-8.95,5.14-5.16c2.58,3.52,4.13,6.71,4.17,8.71Zm-12.46-34.71h.65c3.59.16,6.03,1.15,6.87,2.77.85,1.65.27,4.27-1.6,7.18-4.54,7.06-1.8,10.99-.9,11.99l.76.92-5.44,5.46-5.45-5.47.75-.91c.9-1,3.64-4.94-.9-11.99-1.87-2.91-2.46-5.53-1.6-7.18.84-1.62,3.28-2.6,6.87-2.77Zm-7.64,25.98l5.15,5.17-8.92,8.95-.4-5.39c.04-2.01,1.6-5.23,4.17-8.72Zm17.69,41.6c-.33,2.43-.66,2.91-.7,2.97,0,0-.03.02-.13.06-2.3.9-4.29,1.69-8.88,1.71-4.62-.03-6.6-.81-8.9-1.71-.07-.03-.11-.05-.12-.05-.08-.09-.39-.62-.72-2.98l-1.63-22.21,11.36-11.4,11.35,11.39-1.63,22.21Z"/>
  <path d="m60,95.44c-13.13,0-19.79,1.68-19.79,5s6.66,5,19.79,5,19.79-1.68,19.79-5-6.66-5-19.79-5Zm0,6c-5.93,0-10.34-.48-13.06-1,2.72-.52,7.13-1,13.06-1s10.34.48,13.06,1c-2.72.52-7.13,1-13.06,1Z"/>
  <path d="m75.96,105.62c-1.32.69-6.84,1.82-15.96,1.82s-14.64-1.12-15.96-1.82c-.31-.7-1.01-1.18-1.82-1.18-1.1,0-2,.9-2,2,0,3.32,6.66,5,19.79,5s19.79-1.68,19.79-5c0-1.1-.9-2-2-2-.81,0-1.51.48-1.82,1.18Z"/>
</svg>