<?xml version="1.0" encoding="UTF-8"?>
<svg id="Livello_3" data-name="Livello 3" xmlns="http://www.w3.org/2000/svg" viewBox="0 0 120 120">
  <path d="m23.59,73.64c-8.44,9.15-13.78,21.51-14.26,35.29-.02.54.18,1.07.56,1.46.38.39.9.61,1.44.61h97.65c.54,0,1.06-.22,1.44-.61.38-.39.58-.92.56-1.46-.47-13.87-5.88-26.29-14.41-35.46l13.88-14.67c.76-.8.73-2.07-.08-2.83-.8-.76-2.07-.73-2.83.08l-13.81,14.58c-8.56-7.89-19.69-12.75-31.92-13.16V11c0-1.1-.9-2-2-2s-2,.9-2,2v46.5c-12.05.56-22.98,5.47-31.41,13.3l-13.96-14.74c-.76-.8-2.02-.84-2.83-.08-.8.76-.84,2.02-.08,2.83l14.04,14.83Zm2.76,2.91l10.7,11.3c-4.04,4.98-6.59,11.51-7.18,19.15H13.44c.86-11.85,5.62-22.46,12.91-30.45Zm53.68,14.39c3.1,4.21,5.05,9.66,5.58,16.06h-20.79l15.2-16.06Zm-18.2,13.41v-22.95c6.23.35,11.54,2.65,15.56,6.52l-15.56,16.43Zm-4-.37l-15.23-16.09c4.01-3.7,9.21-5.97,15.23-6.44v22.53Zm-2.65,3.02h-21.29c.56-6.41,2.67-11.92,5.99-16.17l15.31,16.17Zm51.7,0h-17.25c-.58-7.54-3-14.01-6.85-18.96l11.04-11.66c7.37,8.01,12.19,18.68,13.06,30.62Zm-15.89-33.44l-10.88,11.49c-4.74-4.56-11-7.29-18.28-7.65v-15.92c11.16.41,21.31,4.87,29.16,12.08Zm-33.16-12.06v15.94c-7.15.47-13.32,3.13-18.04,7.49l-10.61-11.21c7.71-7.15,17.67-11.66,28.65-12.22Z"/>
  <path d="m28.92,90.81c-1.1-1.12-2.57-1.73-4.14-1.73h0c-1.56,0-3.04.61-4.14,1.73-2.27,2.29-2.27,6.02,0,8.31,1.1,1.12,2.58,1.73,4.14,1.73,1.56,0,3.03-.61,4.14-1.73,2.27-2.29,2.27-6.02,0-8.31Zm-2.84,5.49s0,0,0,0c-.69.7-1.9.7-2.59,0-.73-.74-.73-1.94,0-2.68.35-.35.81-.54,1.3-.54s.95.19,1.3.54c.73.74.73,1.94,0,2.68Z"/>
  <path d="m92.07,99.12c1.1,1.12,2.57,1.73,4.14,1.73s3.04-.61,4.14-1.73c2.27-2.29,2.27-6.02,0-8.31-1.1-1.12-2.57-1.73-4.14-1.73s-3.04.61-4.14,1.73c-2.27,2.29-2.27,6.02,0,8.31Zm2.84-5.49c.69-.7,1.9-.7,2.59,0,.73.74.73,1.94,0,2.68-.69.7-1.9.7-2.59,0-.73-.74-.73-1.94,0-2.68Z"/>
  <path d="m42.06,76.65c1.1,1.12,2.57,1.73,4.14,1.73s3.03-.61,4.14-1.73c2.27-2.29,2.27-6.02,0-8.31-1.1-1.12-2.57-1.73-4.14-1.73s-3.04.61-4.14,1.73c-2.27,2.29-2.27,6.02,0,8.31Zm2.84-5.49c.35-.35.81-.54,1.3-.54s.95.19,1.3.54c.73.74.73,1.94,0,2.68h0c-.69.7-1.9.7-2.59,0-.73-.74-.73-1.94,0-2.68Z"/>
  <path d="m69.56,76.65c1.1,1.12,2.58,1.73,4.14,1.73,1.56,0,3.03-.61,4.14-1.73,2.27-2.29,2.27-6.02,0-8.31-1.1-1.12-2.57-1.73-4.14-1.73h0c-1.56,0-3.04.61-4.14,1.73-2.27,2.29-2.27,6.02,0,8.31Zm2.84-5.49c.35-.35.81-.54,1.3-.54s.95.19,1.3.54c.73.74.73,1.94,0,2.68t0,0c-.69.7-1.9.7-2.59,0-.73-.74-.73-1.94,0-2.68Z"/>
</svg>