<?xml version="1.0" encoding="UTF-8"?>
<svg id="Livello_3" data-name="Livello 3" xmlns="http://www.w3.org/2000/svg" viewBox="0 0 120 120">
  <path d="m110.89,32.74c.36-1.05-.2-2.18-1.25-2.54-1.05-.35-2.18.2-2.54,1.25-1.75,5.16-4.11,8.84-5.89,11.13-.16-1.44-.34-2.83-.53-4.17,1.2-2.1,5.23-9.48,7.27-17.08.29-1.07-.35-2.16-1.41-2.45-1.07-.29-2.16.35-2.45,1.41-1.13,4.21-2.96,8.43-4.49,11.57-.39-2.05-.79-3.95-1.21-5.7,3.36-7.41,3.48-13.97,3.48-14.25.01-1.1-.88-2.01-1.98-2.02-1.07,0-2.01.88-2.02,1.98,0,.04-.06,3.25-1.27,7.57-1.44-4.78-2.62-7.39-2.75-7.66-.56-1.22-1.56-2.12-2.8-2.54-1.21-.41-2.5-.3-3.63.3-2.28,1.21-3.24,4.14-2.15,6.53.01.03.45,1.01,1.1,2.87-1.61-1.42-3.59-3.05-6.01-4.99-.86-.69-2.12-.55-2.81.31-.69.86-.55,2.12.31,2.81,5.24,4.19,10.21,8.38,11.06,10.68,0,.03.03.04.04.07.17.7.34,1.42.51,2.17-2.57-2.35-6.19-5.54-10.89-9.32-.86-.69-2.12-.56-2.81.3-.69.86-.56,2.12.3,2.81,8.33,6.71,13.31,11.59,14.71,12.99.19,1.16.38,2.37.55,3.62-2.9-1.93-7.28-5.33-11.5-10.52-.7-.86-1.96-.99-2.81-.29-.86.7-.99,1.96-.29,2.81,5.9,7.26,12.02,11.25,14.76,12.82-.04.03-.07.06-.11.09-6.48,3.63-22.12-.52-25.05-4.56l-.18-.25-.06-.05c-.1-.33-.04-1.43,1.26-3.44,2.07-3.19,2.51-6.23,1.26-8.58-.91-1.7-3.11-3.74-8.55-3.82-.04,0-.09,0-.13,0-.06,0-.12,0-.22,0-5.34.08-7.55,2.12-8.45,3.82-1.25,2.35-.81,5.4,1.26,8.58,1.3,2,1.35,3.11,1.26,3.44l-.24.29c-2.93,4.04-18.57,8.19-25.05,4.56-.02-.01-.04-.03-.05-.04,2.7-1.53,8.88-5.53,14.84-12.86.7-.86.57-2.12-.29-2.81-.86-.7-2.12-.57-2.81.29-4.29,5.28-8.74,8.7-11.64,10.62.17-1.23.35-2.42.54-3.56,1.18-1.19,6.23-6.19,14.87-13.15.86-.69,1-1.95.3-2.81-.69-.86-1.95-1-2.81-.3-4.8,3.87-8.47,7.1-11.05,9.47.21-.93.41-1.82.62-2.67.82-2.04,5.33-5.76,11.14-10.4.86-.69,1-1.95.31-2.81-.69-.86-1.95-1-2.81-.31-2.5,2-4.52,3.64-6.16,5.05.66-1.9,1.11-2.89,1.12-2.92,1.1-2.39.14-5.33-2.14-6.54-1.13-.6-2.42-.71-3.63-.3-1.24.42-2.23,1.32-2.8,2.54-.12.26-1.27,2.79-2.68,7.43-1.15-4.2-1.21-7.3-1.21-7.35-.01-1.1-.93-2.02-2.02-1.98-1.1.01-1.99.92-1.98,2.02,0,.28.12,6.73,3.39,14.06-.41,1.75-.82,3.65-1.21,5.7-1.51-3.12-3.29-7.26-4.4-11.38-.29-1.07-1.38-1.7-2.45-1.41-1.07.29-1.7,1.38-1.41,2.45,1.99,7.41,5.86,14.6,7.17,16.9-.19,1.35-.38,2.76-.54,4.21-1.77-2.3-4.06-5.94-5.78-10.99-.36-1.05-1.49-1.6-2.54-1.25-1.05.36-1.6,1.49-1.25,2.54,2.94,8.63,7.38,13.55,9.03,15.17-.25,3.1-.44,6.39-.52,9.87-.48,19.38.96,40.2.98,40.41.02.33.08.66.16.97-4.2-2.03-6.12-3.68-6.15-3.71-.82-.73-2.08-.66-2.82.16-.74.82-.67,2.09.16,2.82.56.5,14.15,12.31,50.04,12.57.41,0,.81,0,1.21,0,34.98,0,48.27-11.04,48.83-11.52.84-.72.93-1.97.22-2.81-.71-.84-1.97-.94-2.82-.23-.03.02-2.12,1.75-6.76,3.8.34-.62.56-1.3.61-2.05.01-.21,1.45-21.03.98-40.41-.08-3.43-.26-6.68-.51-9.75,1.54-1.48,6.13-6.42,9.15-15.28ZM29.65,13.46c.1-.21.26-.37.45-.43.06-.02.12-.03.19-.03.1,0,.2.03.29.08.43.23.6.85.38,1.34-.05.1-4.79,10.66-6.9,29.49-.22,2,.74,3.92,2.46,4.88,7.95,4.46,25.61.35,30.13-5.55.8-.82,2.47-3.38-.79-8.4-1.2-1.85-1.61-3.54-1.09-4.52.56-1.04,2.37-1.66,4.98-1.7v-.94s.1-1.05.1-1.05l-.1,2h.16s.16,0,.16,0l-.1-2,.12,1.05v.94c2.6.04,4.41.66,4.97,1.7.52.98.12,2.67-1.09,4.52-3.26,5.02-1.58,7.58-.79,8.4,4.52,5.9,22.18,10.01,30.13,5.55,1.72-.96,2.69-2.88,2.46-4.88-2.1-18.83-6.85-29.39-6.9-29.5-.22-.49-.04-1.11.38-1.33.16-.08.32-.1.48-.05.19.06.35.22.44.43.3.65,7.35,16.24,8.04,44.42.46,18.87-.95,39.82-.97,40.03-.04.51-.41.9-.81.88-.41-.03-.72-.48-.69-.99.01-.18,1.27-18.58,1.03-36.51-.02-1.63-.83-3.15-2.17-4.06-1.81-1.23-3.98-2.04-5.49-2.49-.17-.05-17.75-4.89-23.54-1.71-1.34.74-1.86,1.75-2.06,2.47l-.04.16c-.77,4.06.65,6.35,1.42,7.58l-5,5.52s0,0,0,0l-5.01-5.51c.77-1.24,2.19-3.53,1.42-7.58l-.04-.16c-.2-.72-.72-1.73-2.06-2.47-5.79-3.18-23.37,1.66-23.54,1.71-1.51.46-3.68,1.26-5.49,2.49-1.34.91-2.15,2.43-2.17,4.06-.24,17.68.97,35.74,1.03,36.51.04.51-.28.96-.7.99-.41.01-.76-.37-.8-.88-.01-.21-1.43-21.16-.97-40.03.18-7.16.76-13.5,1.54-18.99.2-.38.26-.82.19-1.26.63-4.2,1.38-7.88,2.13-11.01.09-.21.15-.44.16-.67,1.94-7.88,3.87-12.15,4.02-12.49Zm30.36,93.54c-8.36-.06-15.4-.78-21.25-1.8,2.37-2.57,6.35-8.5,14.45-22.2l.08-.14c1.11-1.87,2.96-5,1.46-10.49-.47-1.71-2.56-5.19-5.29-5.49-.7-.08-2.46-.03-3.6,2.12-3.12,5.85-6.03,12.24-8.37,17.37-.92,2.01-1.75,3.83-2.5,5.41-2.36,5.57-3.36,9.59-3,12.01-2.31-.57-4.35-1.17-6.14-1.77,1.43-.94,2.35-2.62,2.22-4.5-.05-.75-1.25-18.65-1.02-36.17,0-.33.16-.63.42-.81,1.08-.74,2.65-1.44,4.4-1.97,6.47-1.96,19.06-3.64,20.58-2.01.42,2.43-.29,3.57-.92,4.58-.51.82-1.84,2.95.39,4.74l5.06,5.56c.75.82,1.66,1.26,2.78,1.35h.12s.12,0,.12,0c1.17-.05,2.11-.5,2.89-1.35l5.06-5.56c2.23-1.79.9-3.93.39-4.74-.63-1-1.33-2.14-.93-4.53,1.69-1.67,14.16,0,20.59,1.96,1.75.53,3.31,1.23,4.4,1.97.26.18.42.48.42.81.24,17.71-1,35.99-1.02,36.17-.15,2.2,1.12,4.15,3.04,4.91-2.01.65-4.36,1.3-7.07,1.9.63-2.34-.34-6.56-2.92-12.63-.72-1.51-1.54-3.32-2.46-5.34-2.34-5.13-5.26-11.52-8.37-17.37-1.14-2.15-2.9-2.2-3.6-2.12-2.72.3-4.82,3.78-5.29,5.49-1.5,5.49.35,8.62,1.46,10.49l.08.14c8.46,14.32,12.42,20.15,14.76,22.53-5.89.92-12.98,1.53-21.41,1.47Zm-24.14-4.52c.14-1.75,1.29-5.58,2.76-9.06.72-1.52,1.56-3.36,2.49-5.39,2.3-5.03,5.15-11.28,8.17-16.98.57.47,1.38,1.6,1.59,2.38,1.06,3.86-.11,5.82-1.04,7.4l-.08.14c-8.34,14.13-12.17,19.64-13.89,21.51Zm48.13,0c-1.72-1.87-5.55-7.39-13.89-21.51l-.08-.14c-.93-1.58-2.1-3.54-1.04-7.39.21-.78,1.03-1.9,1.59-2.38,3.02,5.7,5.88,11.95,8.17,16.98.93,2.03,1.77,3.87,2.46,5.31,1.5,3.54,2.65,7.38,2.79,9.13Z"/>
</svg>