<?xml version="1.0" encoding="UTF-8"?>
<svg id="Livello_3" data-name="Livello 3" xmlns="http://www.w3.org/2000/svg" viewBox="0 0 120 120">
  <path d="m74.18,46.93c-1.29.34-2.37,1.16-3.04,2.32-1.38,2.37-.58,5.44,1.78,6.83.77.46,1.64.69,2.51.69.42,0,.84-.05,1.26-.16,1.29-.34,2.37-1.16,3.04-2.32,1.38-2.37.58-5.44-1.78-6.83-1.15-.68-2.49-.86-3.77-.53Zm2.09,5.35c-.18.31-.45.42-.6.46-.14.04-.43.07-.73-.1-.47-.28-.63-.9-.35-1.38.18-.31.45-.42.6-.46.06-.02.14-.03.24-.03.14,0,.31.03.48.13.47.28.63.9.35,1.38Z"/>
  <path d="m74.18,63.39c-1.29.34-2.37,1.16-3.04,2.32-1.38,2.37-.58,5.44,1.78,6.83h0c.77.46,1.64.69,2.51.69.42,0,.84-.05,1.26-.16,1.29-.34,2.37-1.16,3.04-2.32,1.38-2.37.58-5.44-1.78-6.83-1.15-.68-2.49-.86-3.77-.53Zm2.09,5.35c-.18.31-.45.42-.6.46-.14.04-.43.07-.73-.1-.47-.28-.63-.9-.35-1.38.18-.31.45-.42.6-.46.14-.04.43-.07.73.1.47.28.63.9.35,1.38Z"/>
  <path d="m44.57,56.78c.42,0,.84-.05,1.26-.16,1.29-.34,2.37-1.16,3.04-2.32,1.38-2.37.58-5.44-1.78-6.83-1.15-.68-2.48-.86-3.77-.53-1.29.34-2.37,1.16-3.04,2.32-1.38,2.37-.58,5.44,1.78,6.83.77.46,1.64.69,2.51.69Zm-.83-5.51c.18-.31.45-.42.6-.46.06-.02.14-.03.24-.03.14,0,.31.03.48.13.47.28.63.9.35,1.38-.18.31-.45.42-.6.46-.14.04-.43.07-.73-.1-.47-.28-.63-.9-.35-1.38Z"/>
  <path d="m42.06,72.54c.77.46,1.64.69,2.51.69.42,0,.84-.05,1.26-.16,1.29-.34,2.37-1.16,3.04-2.32,1.38-2.37.58-5.44-1.78-6.83-1.15-.68-2.48-.86-3.77-.53-1.29.34-2.37,1.16-3.04,2.32-1.38,2.37-.58,5.44,1.78,6.83h0Zm1.68-4.82c.18-.31.45-.42.6-.46.14-.04.43-.07.73.1.47.28.63.9.35,1.38-.18.31-.45.42-.6.46-.14.04-.43.07-.73-.1-.47-.28-.63-.9-.35-1.38Z"/>
  <path d="m60,80.89c.42,0,.84-.05,1.26-.16,1.29-.34,2.37-1.16,3.04-2.32,1.38-2.37.58-5.44-1.78-6.83-1.15-.68-2.48-.86-3.77-.53-1.29.34-2.37,1.16-3.04,2.32-1.38,2.37-.58,5.44,1.78,6.83.77.46,1.64.69,2.51.69Zm-.83-5.51c.13-.23.35-.39.6-.46.06-.02.14-.03.24-.03.14,0,.31.03.48.13.47.28.63.9.35,1.38-.18.31-.45.42-.6.46-.14.04-.43.07-.73-.1-.47-.28-.63-.9-.35-1.38Z"/>
  <path d="m57.49,48.43c.77.46,1.64.69,2.51.69.42,0,.84-.05,1.26-.16,1.29-.34,2.37-1.16,3.04-2.32,1.38-2.37.58-5.44-1.78-6.83-1.15-.68-2.48-.86-3.77-.53-1.29.34-2.37,1.16-3.04,2.32-1.38,2.37-.58,5.44,1.78,6.83h0Zm1.68-4.82c.13-.23.35-.39.6-.46.14-.04.43-.07.73.1.47.28.63.9.35,1.38-.18.31-.45.42-.6.46-.14.04-.43.07-.73-.1-.47-.28-.63-.9-.35-1.38Z"/>
  <path d="m31.84,24.48c.28.05.57.07.85.07,1.02,0,2.01-.31,2.86-.92,0,0,0,0,0,0,2.23-1.59,2.77-4.71,1.19-6.96-.77-1.1-1.92-1.83-3.23-2.05-1.31-.23-2.63.07-3.71.84-2.23,1.59-2.77,4.71-1.19,6.96.77,1.1,1.92,1.83,3.23,2.05Zm.28-5.75c.2-.14.4-.18.55-.18.06,0,.12,0,.16.01.26.04.48.19.64.41.32.46.21,1.08-.23,1.4-.28.2-.57.19-.71.16-.26-.04-.48-.19-.64-.41-.32-.46-.22-1.08.23-1.4Z"/>
  <path d="m88.48,95.78c-1.31-.23-2.63.07-3.71.84-2.23,1.59-2.77,4.71-1.19,6.96.77,1.1,1.92,1.83,3.23,2.05.29.05.57.07.85.07,1.02,0,2.01-.31,2.86-.92,2.23-1.59,2.77-4.71,1.19-6.96-.77-1.1-1.92-1.83-3.23-2.05Zm-.28,5.75h0c-.28.2-.57.19-.71.16-.15-.03-.43-.11-.64-.41-.32-.46-.22-1.08.23-1.4.2-.14.4-.18.55-.18.06,0,.12,0,.16.01.15.03.43.11.64.41.32.46.22,1.08-.23,1.4Z"/>
  <path d="m84.48,23.64h0c.85.6,1.84.92,2.86.92.28,0,.57-.02.85-.07,1.32-.23,2.46-.96,3.23-2.05,1.58-2.25,1.04-5.37-1.19-6.96-1.08-.77-2.41-1.07-3.71-.84-1.32.23-2.46.96-3.23,2.05-1.58,2.25-1.04,5.37,1.19,6.96Zm2.09-4.66c.15-.22.38-.36.64-.41.15-.03.43-.04.72.16.45.32.55.95.23,1.4-.21.29-.49.38-.64.41-.15.03-.43.04-.71-.16-.45-.32-.55-.95-.23-1.4Z"/>
  <path d="m32.37,105.71c.28,0,.57-.02.85-.07,1.31-.23,2.46-.96,3.23-2.05,1.58-2.25,1.04-5.37-1.19-6.96-1.08-.77-2.4-1.07-3.71-.84-1.31.23-2.46.96-3.23,2.05-1.58,2.25-1.04,5.37,1.19,6.96h0c.85.6,1.84.92,2.86.92Zm-.77-5.58c.15-.22.38-.36.64-.41.14-.03.43-.04.71.16.45.32.55.95.23,1.4-.15.22-.38.36-.64.41-.14.03-.43.04-.71-.16-.45-.32-.55-.95-.23-1.4Z"/>
  <path d="m12.98,46.14c-.79-.77-2.06-.76-2.83.03-.77.79-.76,2.06.03,2.83l7.3,7.14s0,0,0,0l4.03,3.94-10.92,12.21c-.74.82-.67,2.09.16,2.82.38.34.86.51,1.33.51.55,0,1.1-.23,1.49-.67l11.53-12.89h4.22s-9.17,10.4-9.17,10.4c-.73.83-.65,2.09.18,2.82.38.34.85.5,1.32.5.55,0,1.11-.23,1.5-.68l11.5-13.04h21.59s-12.53,18.82-12.53,18.82l-16.6,2.44c-1.09.16-1.85,1.18-1.69,2.27.16,1.09,1.17,1.84,2.27,1.69l13.03-1.91-2.62,3.94-16.57,2.43c-1.09.16-1.85,1.18-1.69,2.27s1.17,1.85,2.27,1.69l15.36-2.26,1.53,16.26c.1,1.04.97,1.81,1.99,1.81.06,0,.13,0,.19,0,1.1-.1,1.91-1.08,1.8-2.18l-1.66-17.65,2.06-3.09,1.2,12.7c.1,1.04.97,1.81,1.99,1.81.06,0,.13,0,.19,0,1.1-.1,1.91-1.08,1.8-2.18l-1.66-17.62,13.09-19.66,13.09,19.66-1.66,17.62c-.1,1.1.7,2.08,1.8,2.18.06,0,.13,0,.19,0,1.02,0,1.89-.78,1.99-1.81l1.2-12.7,2.06,3.09-1.66,17.65c-.1,1.1.7,2.08,1.8,2.18.06,0,.13,0,.19,0,1.02,0,1.89-.78,1.99-1.81l1.53-16.26,15.36,2.26c1.09.16,2.11-.6,2.27-1.69.16-1.09-.6-2.11-1.69-2.27l-16.57-2.43-2.62-3.94,13.03,1.91c1.09.15,2.11-.6,2.27-1.69.16-1.09-.6-2.11-1.69-2.27l-16.6-2.44-12.53-18.82h21.18s12.26,11.65,12.26,11.65c.39.37.88.55,1.38.55.53,0,1.06-.21,1.45-.62.76-.8.73-2.07-.07-2.83l-9.21-8.76h3.75s12.28,11.68,12.28,11.68c.39.37.88.55,1.38.55.53,0,1.06-.21,1.45-.62.76-.8.73-2.07-.07-2.83l-11.47-10.91,10.77-12.37c.73-.83.64-2.1-.19-2.82-.83-.73-2.1-.64-2.82.19l-11.43,13.12h-4.29s9.16-10.52,9.16-10.52c.73-.83.64-2.1-.19-2.82-.83-.73-2.1-.64-2.82.19l-11.45,13.15h-21.08s12.66-19.01,12.66-19.01l16.65-2.56c1.09-.17,1.84-1.19,1.67-2.28-.17-1.09-1.19-1.85-2.28-1.67l-13.04,2,2.58-3.87,16.55-2.67c1.09-.18,1.83-1.2,1.66-2.29-.18-1.09-1.2-1.83-2.29-1.66l-15.33,2.47-1.74-16.23c-.12-1.1-1.1-1.89-2.2-1.78-1.1.12-1.89,1.1-1.78,2.2l1.13,10.53s0,.01,0,.02l.76,7.06-2.08,3.13-1.29-12.67c-.11-1.1-1.09-1.89-2.19-1.79-1.1.11-1.9,1.09-1.79,2.19l1.78,17.5-13.12,19.71-13.12-19.71,1.78-17.5c.11-1.1-.69-2.08-1.79-2.19-1.1-.11-2.08.69-2.19,1.79l-1.29,12.66-2.08-3.13,1.89-17.61c.12-1.1-.68-2.08-1.78-2.2-1.09-.12-2.08.68-2.2,1.78l-1.13,10.53s0,.02,0,.03l-.61,5.67-15.33-2.47c-1.09-.17-2.12.57-2.29,1.66-.18,1.09.57,2.12,1.66,2.29l16.55,2.67,2.58,3.87-13.04-2c-1.09-.17-2.11.58-2.28,1.67-.17,1.09.58,2.11,1.67,2.28l16.65,2.56,12.66,19.01h-21.59s-12.18-11.77-12.18-11.77c-.79-.77-2.06-.75-2.83.05-.77.79-.75,2.06.05,2.83l9.21,8.9h-3.79s-12.2-11.93-12.2-11.93Z"/>
  <path d="m13.42,65.34h.02c2.72-.01,4.97-2.25,5.01-4.98.02-1.35-.49-2.61-1.43-3.56-.93-.94-2.15-1.45-3.51-1.45-2.72.01-4.97,2.25-5.01,4.98-.02,1.35.49,2.61,1.43,3.56.93.94,2.17,1.46,3.49,1.46Zm.11-6h0c.32,0,.53.15.65.27.18.18.27.43.27.69,0,.56-.48,1.04-1.03,1.04-.3.03-.53-.15-.65-.27-.18-.18-.27-.42-.27-.69,0-.56.48-1.04,1.03-1.04Z"/>
  <path d="m110.07,56.03c-.93-.94-2.2-1.48-3.51-1.46-2.72.01-4.97,2.25-5.01,4.98-.02,1.35.49,2.61,1.43,3.56.93.94,2.17,1.45,3.49,1.45h.02c2.72-.01,4.97-2.25,5.01-4.98.02-1.35-.49-2.61-1.43-3.56Zm-2.57,3.5c0,.56-.48,1.04-1.03,1.04h0c-.32,0-.53-.15-.65-.27-.18-.18-.27-.43-.27-.69,0-.56.48-1.04,1.03-1.04h0c.32,0,.53.15.65.27.18.18.27.42.27.69h0Z"/>
</svg>