<?xml version="1.0" encoding="UTF-8"?>
<svg id="Livello_3" data-name="Livello 3" xmlns="http://www.w3.org/2000/svg" viewBox="0 0 120 120">
  <path d="m49.35,17.6c-1.26-1.58-2.95-2.9-4.88-3.8-1-.47-2.19-.04-2.66.96-.47,1-.04,2.19.96,2.66.96.45,2.34,1.28,3.45,2.68.6.76,1.06,1.6,1.36,2.49-1.26,1.64-1.81,3.02-1.86,3.17-.38,1.03.14,2.17,1.16,2.56,1.03.39,2.18-.13,2.58-1.15.04-.11.53-1.32,1.71-2.65.03-.03.06-.07.1-.11,1.55-1.72,4.25-3.6,8.62-3.6,7.88,0,9.89,5.98,9.97,6.22.26.86,1.06,1.42,1.91,1.42.19,0,.39-.03.58-.09,1.06-.32,1.65-1.44,1.33-2.49-.25-.82-.72-1.83-1.42-2.87.41-1.02.98-1.98,1.72-2.86.93-1.1,2.07-2.04,3.39-2.78.96-.54,1.31-1.76.77-2.72-.54-.96-1.76-1.31-2.72-.77-1.75.98-3.26,2.23-4.5,3.7-.61.73-1.13,1.5-1.58,2.31-.6-.47-1.28-.91-2.01-1.3.2-.74.48-1.47.86-2.16.68-1.23,1.6-2.32,2.76-3.25.86-.69,1-1.95.3-2.81-.69-.86-1.95-1-2.81-.3-1.57,1.26-2.83,2.75-3.76,4.44-.48.87-.85,1.79-1.13,2.72-.53-.11-1.08-.21-1.66-.27v-5.93c0-1.1-.9-2-2-2s-2,.9-2,2v5.91c-.51.06-1,.14-1.48.23-.37-1.19-.89-2.34-1.57-3.42-.86-1.36-1.95-2.59-3.23-3.66-.85-.71-2.11-.59-2.82.25s-.59,2.11.25,2.82c.96.8,1.78,1.72,2.41,2.73.52.81.9,1.68,1.17,2.57-.72.36-1.39.76-1.99,1.18-.36-.71-.78-1.39-1.29-2.02Z"/>
  <path d="m39.07,102.26c-.38,1.04.15,2.19,1.19,2.57.23.08.46.12.69.12.81,0,1.58-.5,1.88-1.31l12.81-34.82c.75-2.36.7-4.27.62-6.9-.03-.93-.06-1.98-.06-3.2,0-1.1-.9-2-2-2s-2,.9-2,2c0,1.27.03,2.36.06,3.32.07,2.41.12,3.86-.4,5.49l-12.78,34.74Z"/>
  <path d="m76.41,103.64c.3.81,1.06,1.31,1.88,1.31.23,0,.46-.04.69-.12,1.04-.38,1.57-1.53,1.19-2.57l-12.75-34.65c-.55-1.71-.5-3.16-.43-5.57.03-.96.06-2.05.06-3.32,0-1.1-.9-2-2-2s-2,.9-2,2c0,1.22-.03,2.27-.06,3.2-.08,2.64-.14,4.54.64,6.99l12.78,34.74Z"/>
  <path d="m59.82,105.09c1.1,0,2-.9,2-2v-44.51c0-1.1-.9-2-2-2s-2,.9-2,2v44.51c0,1.1.9,2,2,2Z"/>
  <path d="m37.23,20.45c.34-2.67-1.56-5.13-4.24-5.48-2.68-.36-5.16,1.53-5.52,4.19,0,.05-.81,5.17-4.56,8.7-.04.04-.09.04-.16.03-3.01-3.33-3.96-8.79-3.96-8.83-.42-2.66-2.95-4.49-5.62-4.08-1.3.2-2.45.9-3.23,1.96-.77,1.06-1.08,2.35-.88,3.64.07.44,1.73,10.56,8.74,16.06v68.7c0,2.7,2.21,4.9,4.93,4.9,1.53,0,2.9-.7,3.8-1.79.65.71,1.54,1.21,2.59,1.39,1.06.18,2.24.31,3.51.4,5.15.35,10.3.59,16.27.74h21.26c5.92-.16,11.07-.39,16.22-.74,1.27-.09,2.46-.22,3.51-.4,2.38-.4,3.96-2.48,3.75-4.93-.19-2.22-1.76-3.89-3.84-4.2l-2.23-3.94c-4.07-7.24-8.5-16-10.63-20.2l-.78-1.54c-.19-.37-.36-.74-.52-1.12l-3.53-8.25c-.44-1.02-.49-2.12-.14-3,.47-1.19,1.39-1.81,2.56-1.71,5.07.47,9.12,1.79,10.45,2.22,1.57.51,2.97,1.19,3.95,1.91,1,.73,2.24,2.32,2.43,2.97v9.87c0,2.73,2.19,4.97,4.93,4.98h.02c1.29,0,2.5-.5,3.43-1.42.95-.94,1.47-2.21,1.47-3.56v-35.78c0-.79.33-1.63.78-1.95l6.25-4.56c2.55-1.82,3.42-4.35,2.25-6.59h0c-.66-1.27-1.86-2.16-3.3-2.43-1.58-.3-3.23.17-4.54,1.29l-1.28.94,1.18,1.62-1.3-1.64c-.06-.06-.08-.14-.08-.24v-8.82c-.02-3.14-2.05-5.52-4.7-5.52h0c-1.28,0-2.4.45-3.23,1.29-.87.88-1.35,2.11-1.34,3.45v1.03s-.06-.06-.06-.06c-.92-.92-2.21-1.43-3.46-1.44-1.22,0-2.35.49-3.19,1.35-1.86,1.91-1.85,5,.04,6.89l6.02,6.03c.39.39.61.94.61,1.52v1.43s-4.61-3.38-4.61-3.38c-1.04-.76-2.36-1.07-3.61-.87-1.21.2-2.27.86-2.97,1.85-1.56,2.19-1.07,5.24,1.08,6.8l9.31,6.76c.21.2.34.57.34.97v.52c0,.37,0,.75,0,1.08-.91.44-2.6,1.04-3.34,1.2-7.78,1.6-19.6-2.06-21.88-5-.07-.29-.24-1.41.83-3.36,1.83-3.35,2.05-6.65.6-9.03-.99-1.63-3.16-3.55-7.96-3.45-.01,0-.02,0-.04,0h-.08s-.08,0-.08,0c-.01,0-.02,0-.04,0h-.05s-.05,0-.05,0c-4.81.08-6.87,1.99-7.75,3.58-1.28,2.31-.92,5.35,1.02,8.58,1.32,2.19,1.2,3.19,1.14,3.43l-.22.29c-1.97,2.92-14.57,6.59-22.48,4.96-.58-.12-2.3-.69-3.29-1.19-.08-.56-.07-1.04-.06-1.77,0-.43.01-.92,0-1.5v-9.54c8.18-6.01,9.53-15.8,9.59-16.23Zm-9.59,80.8v-33.19c.19-.65,1.43-2.24,2.44-2.98.97-.71,2.37-1.39,3.94-1.9,1.33-.43,5.38-1.76,10.45-2.22,1.15-.11,2.09.52,2.56,1.71.35.88.3,1.97-.14,2.99l-3.53,8.25c-.16.38-.34.75-.52,1.12l-.79,1.56c-2.13,4.2-6.56,12.95-10.62,20.17l-2.24,3.95c-.56.08-1.08.27-1.55.53Zm-3.1-67.28l-.9.59v11.68c0,.56,0,1.02,0,1.42-.01.94-.02,1.69.14,2.7.18,1.07.8,1.97,1.72,2.49,1.34.76,3.67,1.54,4.69,1.75,8.82,1.81,23.04-1.71,26.5-6.5.73-.83,2.2-3.33-.72-8.16-1.14-1.89-1.49-3.6-.95-4.57.53-.95,2.06-1.49,4.27-1.52l.25.02.21-.03c2.22-.05,3.78.5,4.41,1.53.68,1.11.42,3-.7,5.03-2.33,4.25-1.08,6.8-.81,7.27l.07.11c3.3,4.9,17.44,8.6,26.1,6.83.48-.1,4.15-1.11,5.65-2.36.9-.62.9-1.3.89-3.85v-.52c0-1.5-.58-2.91-1.59-3.86-.14-.13-.28-.25-.42-.35l-9.28-6.74c-.36-.26-.44-.86-.17-1.25.09-.12.21-.2.36-.22.21-.04.43.02.6.15l7.09,5.19c.74.55,1.72.63,2.54.21.83-.42,1.34-1.26,1.34-2.19v-4.5c0-1.63-.65-3.22-1.78-4.35l-6.02-6.03c-.33-.33-.33-.93,0-1.27.03-.04.14-.14.35-.15h0c.21,0,.44.1.63.29l3.18,3.06c.88.78,2.18.78,3.02-.01.37-.36.61-.84.66-1.37v-.1s0-5.41,0-5.41c0-.32.09-.53.18-.62.07-.07.21-.11.4-.11.28,0,.7.62.71,1.54v8.8c0,1.65.88,3.12,2.31,3.85,1.37.7,3,.56,4.24-.35l1.35-.98.14-.11c.4-.35.84-.51,1.24-.43.16.03.37.11.49.34.23.44-.54,1.14-1.04,1.5l-6.26,4.57c-1.49,1.09-2.42,3.07-2.42,5.18v35.78c0,.38-.18.62-.29.72-.12.12-.32.26-.66.26h0c-.49,0-.9-.44-.9-.98v-10.07l-.02-.27c-.32-2.31-2.92-4.91-4.06-5.73-1.67-1.22-3.68-2.02-5.06-2.48-1.44-.47-5.8-1.9-11.32-2.4-2.93-.27-5.53,1.39-6.65,4.22-.73,1.85-.67,4.05.18,6.04l3.53,8.25c.2.46.41.91.64,1.36l.78,1.53c2.14,4.23,6.6,13.04,10.72,20.36l2.68,4.73c.42.74,1.2,1.19,2.04,1.19h.29c.13,0,.51,0,.56.59.05.57-.3.63-.44.65-.93.16-1.97.28-3.11.35-5.09.35-10.19.58-16,.74h-21.16c-5.86-.15-10.96-.39-16.06-.74-1.14-.08-2.19-.2-3.12-.35-.13-.02-.48-.08-.44-.65.05-.59.43-.59.56-.59h.29c.84,0,1.62-.46,2.04-1.2l2.68-4.73c4.1-7.31,8.56-16.1,10.7-20.33l.79-1.55c.23-.45.44-.9.64-1.36l3.53-8.26c.84-1.98.91-4.18.18-6.03-1.12-2.83-3.73-4.49-6.64-4.22-5.52.51-9.89,1.94-11.32,2.4-1.39.45-3.39,1.25-5.06,2.47-1.14.83-3.74,3.42-4.06,5.73l-.02,37.76c0,.5-.42.9-.93.9s-.93-.41-.93-.9V34.58l-.87-.6c-6.33-4.35-7.9-13.92-7.92-14.02-.05-.32.08-.55.16-.66.08-.12.27-.32.61-.37.5-.08.98.26,1.06.77.04.27,1.14,6.65,4.94,10.86.73.81,1.75,1.29,2.85,1.33,1.11.05,2.21-.36,3.02-1.12,4.79-4.5,5.74-10.78,5.78-11.05.07-.5.54-.85,1.04-.78.5.07.86.52.8,1-.05.37-1.25,9.1-8.72,14.03Z"/>
</svg>