<?xml version="1.0" encoding="UTF-8"?>
<svg id="Livello_3" data-name="Livello 3" xmlns="http://www.w3.org/2000/svg" viewBox="0 0 120 120">
  <path d="m60.11,34.97c-9.06,0-16.44,8.87-16.44,19.77s7.37,19.77,16.44,19.77,16.44-8.87,16.44-19.77-7.37-19.77-16.44-19.77Zm0,35.55c-6.86,0-12.44-7.08-12.44-15.77s5.58-15.77,12.44-15.77,12.44,7.08,12.44,15.77-5.58,15.77-12.44,15.77Z"/>
  <path d="m106.97,10.72c-3.26-.17-7.39,2.08-12.3,6.67-5.93,5.54-13.67,11.04-19.73,14-1.18.58-2.62.46-3.9-.34-.7-.44-1.23-.83-1.65-1.25-.71-.69-1.33-1.38-1.52-1.65l-.18-.25-.1-.08c-.11-.22-.53-1.49,1.47-4.61,2.34-3.66,2.86-7.15,1.48-9.82-.97-1.87-3.33-4.14-9.12-4.39h-1c-.08,0-.16.01-.26.02-.09,0-.18-.02-.35-.02h-1c-5.71.25-8.07,2.52-9.04,4.39-1.39,2.67-.86,6.15,1.48,9.82,2,3.13,1.58,4.39,1.47,4.61l-.28.33c-.2.28-.84.99-1.57,1.7-.4.38-.86.74-1.38,1.06l-.2.13c-1.07.66-2.42.73-3.52.18-5.99-2.96-13.61-8.38-19.4-13.8-4.88-4.56-9.01-6.8-12.25-6.63-1.84.09-2.82.91-3.17,1.27-1,.99-1.48,2.25-1.37,3.66.35,4.62,7.38,9.78,8.77,10.76.98.7,2.17,1.53,3.48,2.44,4.99,3.47,11.84,8.23,16.16,12.33.95.9,1.29,2.28.87,3.51-1.13,3.29-1.71,6.78-1.71,10.36,0,11.19,5.8,21.35,14.43,25.3.07.03.11.11.13.17.04.12.04.26-.02.38l-.79,1.68-13.1,25.01-.08.17c-.3.73-.22,1.55.22,2.2.42.62,1.1.99,1.84.99h40.78c.73,0,1.42-.37,1.84-.99.44-.65.52-1.47.22-2.2l-13.14-25.11-.83-1.76c-.05-.12-.06-.26-.02-.38.02-.06.06-.13.13-.17,8.63-3.95,14.43-14.11,14.43-25.3,0-3.44-.53-6.8-1.58-9.98-.38-1.16-.05-2.45.88-3.36,4.29-4.22,11.49-9.22,16.74-12.88,1.32-.92,2.51-1.75,3.48-2.44,1.41-.99,8.47-6.18,8.83-10.81.11-1.41-.37-2.67-1.37-3.65-.35-.36-1.33-1.17-3.17-1.26Zm-6.61,12.46c-.97.7-2.15,1.51-3.45,2.42-5.37,3.73-12.72,8.85-17.25,13.31-2.02,1.98-2.74,4.84-1.88,7.46.91,2.78,1.38,5.72,1.38,8.73,0,9.65-4.86,18.36-12.09,21.66-1.04.47-1.83,1.34-2.23,2.43-.41,1.12-.35,2.38.16,3.46l.87,1.83,11.79,22.51h-35.04l11.83-22.59.83-1.76c.51-1.08.57-2.34.16-3.46-.4-1.09-1.19-1.96-2.23-2.43-7.23-3.31-12.09-12.01-12.09-21.66,0-3.14.5-6.19,1.49-9.06.93-2.7.18-5.73-1.9-7.71-4.54-4.31-11.53-9.16-16.63-12.71-1.3-.9-2.47-1.72-3.45-2.42-2.77-1.95-6.94-5.77-7.1-7.8-.02-.22.03-.34.18-.5.23-.11,2.87-1.14,9.88,5.43,6.15,5.75,13.95,11.3,20.36,14.47,2.37,1.17,5.13,1.03,7.4-.36l.2-.13c.77-.47,1.46-1.01,2.06-1.59.6-.59,1.44-1.45,1.92-2.08.85-.87,2.79-3.74-.95-9.59-1.52-2.37-1.99-4.49-1.3-5.82.69-1.32,2.7-2.11,5.58-2.24h.91s.35.03.35.03l1.18-.03c2.97.13,4.98.92,5.66,2.24.69,1.33.22,3.45-1.3,5.82-3.74,5.85-1.8,8.72-.95,9.59.47.61,1.25,1.43,1.86,2.02.64.62,1.38,1.19,2.36,1.8,2.42,1.51,5.31,1.71,7.74.52,6.39-3.12,14.51-8.88,20.71-14.67,7.05-6.59,9.7-5.58,9.93-5.47.16.15.2.26.18.49-.15,2.03-4.35,5.88-7.15,7.85Z"/>
</svg>