<?xml version="1.0" encoding="UTF-8"?>
<svg id="Livello_3" data-name="Livello 3" xmlns="http://www.w3.org/2000/svg" viewBox="0 0 120 120">
  <path d="m42.28,18.88c-.3,1.06.32,2.17,1.38,2.47,1.07.3,2.17-.32,2.47-1.38.02-.07,2.09-6.97,12.43-6.97s11.87,6.63,11.93,6.9c.2.94,1.03,1.59,1.96,1.59.14,0,.27-.01.41-.04,1.08-.23,1.78-1.29,1.55-2.37-.73-3.49-4.98-10.08-15.85-10.08-13.34,0-16.17,9.48-16.28,9.88Z"/>
  <path d="m9.21,33.28c.38,1.21,1.26,2.21,2.42,2.74l1.58.72-.82.67c-1.88,1.53-2.31,4.22-.98,6.12.96,1.38,2.61,2.11,4.29,1.91.86-.1,1.66-.45,2.33-.99l.15-.12,2.89,22.93h0c.05.46.24,1.88.87,6.81l.12.91c.3,2.33,2.33,4.11,4.61,4.05,1.29-.03,2.5-.61,3.34-1.57.82-.96,1.2-2.22,1.04-3.46l-1.21-9.58c-.37-2.95,2.78-4.02,3.21-4.15,1.34-.46,5.4-1.86,10.5-2.36,1.14-.11,2.08.56,2.56,1.85.37.99.32,2.2-.14,3.34l-3.55,8.76c-.16.41-.34.8-.53,1.2l-.78,1.61c-2.15,4.47-6.61,13.76-10.71,21.45l-2.26,4.21c-2.21.31-3.88,2.04-4.08,4.33-.23,2.5,1.41,4.65,3.9,5.1,1.1.2,2.33.35,3.65.45,5.17.37,10.36.62,16.38.79h21.4c5.97-.17,11.15-.42,16.33-.79,1.33-.1,2.55-.25,3.65-.45,2.48-.46,4.12-2.6,3.9-5.1-.21-2.29-1.88-4.01-4.08-4.33l-2.26-4.2c-4.09-7.68-8.55-16.96-10.69-21.43l-.79-1.64c-.19-.4-.37-.79-.53-1.2l-3.55-8.75c-.46-1.14-.51-2.36-.14-3.34.48-1.29,1.41-1.97,2.56-1.85,5.09.5,9.16,1.9,10.51,2.36.47.16.89.58,1.2,1.18,1.25,2.46,3.13,4.42,5.36,5.72.02.01.04.03.07.05.01,0,.03,0,.04.02,1.96,1.12,4.18,1.74,6.5,1.74,2.54,0,4.97-.74,7.08-2.1,0,0,.02,0,.03-.01.04-.02.07-.05.11-.07.83-.55,1.62-1.19,2.33-1.93,2.69-2.79,4.15-6.67,4.01-10.64-.17-4.79-2.71-9.01-6.38-11.44-.07-.05-.14-.11-.22-.15-.02-.01-.05-.02-.07-.03-2.03-1.27-4.38-2.02-6.87-2.02h0c-2.24,0-4.41.58-6.33,1.65-.02,0-.04.01-.06.02-.08.04-.14.1-.21.15-1.78,1.04-3.35,2.49-4.55,4.31-.35.53-.96.86-1.68.9-7.65.46-17.2-2.79-19.28-5.69-.08-.3-.3-1.55.84-3.76,1.87-3.6,2.05-7.09.5-9.57-1.02-1.63-3.19-3.56-7.9-3.45-.01,0-.03,0-.04,0h-.08s-.08,0-.08,0c-.01,0-.03,0-.04,0h-.05s-.05,0-.05,0c-4.73.08-6.81,2-7.72,3.6-1.37,2.4-1.04,5.63.93,9.07,1.42,2.49,1.23,3.61,1.15,3.86l-.22.31c-.63.99-2.24,1.94-4.39,2.77,0,0,0,0,0,0-.08.02-.15.06-.22.09-4.94,1.84-12.61,3-18.22,2.38-1.21-.14-2.21-1.17-2.37-2.44l-.21-1.63.69.32c.77.35,1.62.49,2.46.38,1.7-.21,3.12-1.33,3.71-2.92.8-2.17-.3-4.67-2.51-5.69l-1.41-.65.82-.67c1.89-1.54,2.31-4.24.97-6.14-.72-1.02-1.85-1.71-3.1-1.88-1.25-.17-2.53.19-3.5.98l-.16.13c-.44-2.22-2.56-3.77-4.86-3.49l-.24.03c-1.18.14-2.23.73-2.96,1.67-.67.85-.99,1.9-.91,2.97l-.53-.25c-2.19-1.01-4.82-.24-5.98,1.74-.64,1.09-.79,2.4-.41,3.6Zm85.45,31.24l3.16-5.77,3.04,5.54c-1.08.44-2.24.68-3.42.68-.96,0-1.89-.17-2.78-.45Zm12.34-10.15c.1,2.86-.93,5.64-2.83,7.65l-4.07-7.42,3.93-7.17c1.74,1.77,2.87,4.23,2.97,6.94Zm-9.56-9.79h0c1.14,0,2.23.23,3.25.63l-2.87,5.23-2.99-5.46c.84-.26,1.71-.41,2.61-.41Zm-41.63-.27c.76-.85,2.21-3.38-.71-8.48-1.2-2.11-1.55-4.02-.93-5.11.56-.98,2.09-1.55,4.26-1.58l.24.02.22-.03c1.53-.03,3.53.21,4.38,1.57.77,1.24.53,3.34-.65,5.62-2.29,4.42-1.08,7.03-.82,7.51l.06.11c.98,1.54,2.82,2.92,5.13,4.06-.95,1.3-3.05,3-7.59,3s-6.88-1.91-7.94-3.35c1.92-.95,3.46-2.06,4.35-3.35ZM13.07,31.7c.11-.19.51-.29.86-.12l7.06,3.25-.87-6.89c-.01-.09.01-.18.07-.26.05-.06.14-.14.28-.15l.24-.03c.23-.03.44.12.46.33l.86,6.86,5.75-4.7c.16-.13.34-.13.43-.12.11.01.26.06.37.22.13.18.01.54-.24.74l-5.78,4.73,7.24,3.32c.3.14.51.46.43.67-.1.27-.36.33-.44.33-.1.01-.2,0-.3-.05l-7.23-3.32,1.1,8.77c.39,3.12,2.81,5.55,5.95,5.92,5.04.56,12.48-.17,18.33-2.04,1.37,2.31,4.64,5.84,11.74,5.84s10.07-3.22,11.36-5.47c4.52,1.52,9.82,2.32,14.09,2.07,1.98-.12,3.72-1.1,4.77-2.69.49-.75,1.08-1.4,1.72-1.97l4.2,7.66-4.33,7.89c-.87-.8-1.62-1.75-2.18-2.86-.78-1.52-2-2.64-3.47-3.15-1.45-.5-5.85-2.01-11.41-2.56-2.96-.29-5.58,1.45-6.7,4.43-.73,1.94-.66,4.15.18,6.24l3.55,8.76c.2.49.41.97.64,1.44l.79,1.63c2.16,4.49,6.64,13.82,10.77,21.58l.35.65v.02s2.35,4.34,2.35,4.34c.41.77,1.2,1.25,2.06,1.25h.29c.63,0,.8.4.83.74.06.68-.46.78-.63.81-.95.18-2.04.31-3.22.39-5.11.37-10.24.61-16.1.78h-21.28c-5.91-.17-11.04-.41-16.15-.78-1.18-.08-2.26-.22-3.22-.39-.17-.03-.7-.13-.63-.81.03-.34.2-.74.83-.74h.29c.86,0,1.65-.48,2.06-1.25l2.7-5.02c4.14-7.77,8.63-17.12,10.78-21.61l.77-1.6c.23-.47.44-.95.64-1.44l3.55-8.76c.84-2.08.9-4.3.18-6.24-1.12-2.98-3.74-4.72-6.7-4.43-5.56.54-9.96,2.06-11.33,2.53-2.34.7-6.6,3.36-5.95,8.46l1.21,9.58c.02.16-.05.28-.11.35-.07.08-.2.18-.4.18-.26,0-.5-.25-.54-.56l-4.78-37.82-5.75,4.7c-.08.07-.18.11-.28.12-.08,0-.35.02-.52-.23-.13-.18-.01-.53.24-.73l5.78-4.73-7.4-3.4c-.18-.08-.25-.23-.27-.3-.04-.13-.02-.25.05-.38Z"/>
</svg>