<?xml version="1.0" encoding="UTF-8"?>
<svg id="Livello_3" data-name="Livello 3" xmlns="http://www.w3.org/2000/svg" viewBox="0 0 120 120">
  <path d="m54.5,106.22c3.09,0,5.61-2.49,5.61-5.56s-2.52-5.56-5.61-5.56-5.61,2.5-5.61,5.56,2.52,5.56,5.61,5.56Zm0-7.12c.89,0,1.61.7,1.61,1.56s-.72,1.56-1.61,1.56-1.61-.7-1.61-1.56.72-1.56,1.61-1.56Z"/>
  <path d="m68.5,106.22c3.09,0,5.61-2.49,5.61-5.56s-2.52-5.56-5.61-5.56-5.61,2.5-5.61,5.56,2.52,5.56,5.61,5.56Zm0-7.12c.89,0,1.61.7,1.61,1.56s-.72,1.56-1.61,1.56-1.61-.7-1.61-1.56.72-1.56,1.61-1.56Z"/>
  <path d="m67.11,86.19c0-3.07-2.52-5.56-5.61-5.56s-5.61,2.49-5.61,5.56,2.52,5.56,5.61,5.56,5.61-2.5,5.61-5.56Zm-7.22,0c0-.86.72-1.56,1.61-1.56s1.61.7,1.61,1.56-.72,1.56-1.61,1.56-1.61-.7-1.61-1.56Z"/>
  <path d="m88.86,110.06c.07,0,.14,0,.21,0,1.38,0,2.19-.98,2.54-1.41.05-.07.11-.13.16-.19,1.82-1.94.98-6.97-2.55-15.05-.8-1.65-1.74-3.63-2.77-5.83-2.63-5.59-5.9-12.56-9.39-18.94-.86-1.57-2.25-2.37-3.8-2.19-2.93.33-5.2,4.03-5.71,5.85-1.67,5.94.39,9.32,1.62,11.34l.09.15c14.7,24.19,17.3,26.11,19.59,26.27Zm-16.26-28.5c-1.06-1.74-2.38-3.91-1.18-8.17.29-1.04,1.45-2.5,2.12-2.87.01.02.02.04.03.06,3.43,6.27,6.67,13.17,9.28,18.72,1.04,2.22,1.99,4.23,2.76,5.81,1.88,4.33,3.27,9.02,3.16,10.57-1.7-1.56-5.94-7.28-16.07-23.96l-.1-.16Z"/>
  <path d="m53.81,83.63c1.23-2.02,3.29-5.4,1.62-11.34-.51-1.81-2.78-5.51-5.71-5.85-1.55-.18-2.94.62-3.8,2.19-3.49,6.38-6.76,13.34-9.39,18.94-1.03,2.2-1.97,4.19-2.81,5.91-3.49,8-4.33,13.03-2.51,14.97.06.06.11.13.16.19.35.43,1.16,1.41,2.54,1.41.07,0,.14,0,.21,0,2.29-.16,4.89-2.08,19.59-26.27l.09-.15Zm-3.42-2.08l-.1.16c-10.13,16.68-14.36,22.39-16.07,23.96-.11-1.55,1.27-6.24,3.12-10.5.81-1.66,1.75-3.67,2.8-5.89,2.6-5.54,5.84-12.44,9.28-18.72.01-.02.02-.04.03-.06.67.38,1.82,1.83,2.12,2.87,1.2,4.26-.12,6.43-1.18,8.17Z"/>
  <path d="m103,54.31c1.12-1.06,1.63-2.49,1.46-4.13h0c-.1-.96-1.16-6.55-12.32-6.28-10.14.26-21.37-2.65-24.01-6.2l-.18-.25-.09-.07c-.15-.33-.15-1.58,1.41-3.92,2.23-3.34,2.76-6.55,1.49-9.04-.91-1.79-3.17-3.97-8.82-4.2h-.95c-5.57.23-7.83,2.41-8.74,4.2-1.27,2.49-.74,5.7,1.49,9.04,1.56,2.34,1.56,3.59,1.41,3.92l-.27.31c-2.65,3.55-13.85,6.45-24.01,6.2h-.12c-2.93-.07-5.22-2.31-5.22-5.12v-9.79s12.75-12.59,12.75-12.59c1.96-1.93,2.08-5.07.27-7-.93-1-2.2-1.56-3.57-1.59-1.38-.04-2.66.49-3.63,1.44l-13.47,13.31c-1.54,1.52-2.38,3.54-2.38,5.68v47.32c0,2.22,1.43,4.21,3.47,4.83.51.15,1.02.23,1.53.23,1.07,0,2.12-.34,2.99-.99,1.25-.93,2-2.41,2-3.96v-14.46c.01-2.93,1.28-4.41,4.24-4.94,1.34-.24,6.32-1.07,6.32-1.07.96-.14,2-.31,3.1-.49,4.45-.73,13.67-2.25,14.5.07.51,2.74-.32,4.03-1.04,5.16-.55.86-2,3.12.41,4.99l5.69,6.08c.47.5,1.01.86,1.66,1.1l.16.05c.23.06,1.05.24,1.94,0l.14-.05c.64-.23,1.19-.59,1.66-1.1l5.69-6.08c2.41-1.87.96-4.12.41-4.99-.72-1.13-1.54-2.4-1.05-5.11.11-.15,1.09-1.15,6.44-.93,4.23.17,9.45,1.03,13.27,1.65,1.25.21,2.38.39,3.3.53,1.26.2,7.7,1.04,10.67-1.77Zm-10.07-2.19c-.92-.14-2.03-.32-3.26-.52-12.33-2.03-22.67-3.26-24.21,2.15l-.04.17c-.86,4.39.73,6.86,1.58,8.19.02.02.03.05.05.08l-5.56,5.94-5.56-5.94s.03-.05.05-.08c.85-1.33,2.44-3.8,1.58-8.19l-.04-.17c-1.67-5.84-11.29-4.25-19.02-2.98-1.07.18-2.09.35-3.07.49,0,0-5.05.84-6.41,1.08-4.85.87-7.52,4.03-7.52,8.88v14.46c-.01.29-.15.57-.4.75-.16.12-.49.29-.98.14-.41-.12-.63-.6-.63-1V28.25c0-1.07.42-2.08,1.19-2.84l13.47-13.31c.25-.25.55-.29.72-.29h.02c.16,0,.48.05.73.32.36.39.21,1.05-.17,1.42l-13.34,13.18-.59.6v11.44c-.01,5,4,9.01,9.22,9.12,8.69.21,22.78-2.02,27.2-7.65.85-.84,2.74-3.55-.89-9-1.37-2.05-1.83-3.88-1.25-5,.6-1.19,2.5-1.9,5.26-2.02h.79c2.84.11,4.73.83,5.34,2.02.57,1.13.12,2.95-1.25,5-3.63,5.45-1.74,8.16-.89,9,4.42,5.62,18.51,7.87,27.2,7.65,7.45-.19,8.19,2.43,8.24,2.64v.04c.06.51-.08.68-.23.82-1.15,1.09-5.04,1.07-7.32.72Z"/>
</svg>