<?xml version="1.0" encoding="UTF-8"?>
<svg id="Livello_3" data-name="Livello 3" xmlns="http://www.w3.org/2000/svg" viewBox="0 0 120 120">
  <path d="m111,9H9v102h102V9Zm-46.68,4v14.43c-.77-.1-1.54-.18-2.32-.23v-14.2h2.32Zm0,70.52c-.76.14-1.54.24-2.32.31v-47.66c.79.07,1.56.17,2.32.31v47.05Zm4-45.95c9.1,3.39,15.6,12.16,15.6,22.43s-6.5,19.04-15.6,22.43v-44.85Zm-12.65-1.1c.76-.14,1.54-.24,2.32-.31v47.66c-.79-.07-1.56-.17-2.32-.31v-47.05Zm-4,45.95c-9.1-3.39-15.6-12.16-15.6-22.43s6.5-19.04,15.6-22.43v44.85Zm6.32-50.27c-.78.06-1.56.14-2.32.26v-.95c.76-.12,1.54-.19,2.32-.25v.94Zm-6.32,1.19c-11.34,3.55-19.6,14.16-19.6,26.65s8.25,23.1,19.6,26.65v.98c-11.87-3.58-20.54-14.61-20.54-27.63s8.67-24.05,20.54-27.63v.98Zm4,54.24c.76.12,1.54.2,2.32.26v.94c-.78-.05-1.56-.13-2.32-.25v-.95Zm6.32.26c.78-.06,1.56-.14,2.32-.26v.95c-.76.12-1.54.19-2.32.25v-.94Zm6.32-1.19c11.34-3.55,19.6-14.16,19.6-26.65s-8.25-23.1-19.6-26.65v-.98c11.87,3.58,20.54,14.61,20.54,27.63s-8.67,24.05-20.54,27.63v-.98Zm-4-54.24c-.76-.12-1.54-.2-2.32-.26v-.94c.78.05,1.56.13,2.32.25v.95Zm-6.32-19.41v14.2c-.78.05-1.56.13-2.32.23v-14.43h2.32ZM13,107V13h38.68v15.21c-14.1,3.7-24.54,16.55-24.54,31.79s10.44,28.1,24.54,31.79v15.21H13Zm42.68,0v-14.43c.77.1,1.54.18,2.32.23v14.2h-2.32Zm6.32,0v-14.2c.78-.05,1.56-.13,2.32-.23v14.43h-2.32Zm45,0h-38.68v-15.21c14.1-3.7,24.54-16.55,24.54-31.79s-10.44-28.1-24.54-31.79v-15.21h38.68v94Z"/>
</svg>