<?xml version="1.0" encoding="UTF-8"?>
<svg id="Livello_3" data-name="Livello 3" xmlns="http://www.w3.org/2000/svg" viewBox="0 0 120 120">
  <path d="m33.37,108.19c.33.38,1.07,1.23,2.33,1.23.07,0,.14,0,.21,0,2.08-.16,4.42-1.8,17.55-22.41l.08-.13c1.05-1.64,3-4.7,1.41-9.9-.48-1.58-2.58-4.81-5.24-5.11-1.43-.16-2.69.54-3.48,1.92-3.12,5.45-6.03,11.39-8.37,16.17-.92,1.87-1.75,3.56-2.5,5.04-3.14,6.92-3.87,11.31-2.15,13.04.05.05.1.11.15.16Zm5.39-11.57c.72-1.42,1.56-3.12,2.49-5.02,2.31-4.72,5.19-10.59,8.24-15.93.59.33,1.62,1.55,1.88,2.39,1.08,3.55-.07,5.34-.99,6.78l-.09.13c-8.93,14.02-12.71,18.92-14.26,20.3-.01-1.42,1.18-5.24,2.73-8.66Z"/>
  <path d="m84.09,109.41c.07,0,.14,0,.21,0,1.26,0,2-.85,2.33-1.23.05-.06.09-.11.15-.16,1.72-1.73,1-6.12-2.18-13.12-.71-1.4-1.54-3.09-2.46-4.96-2.34-4.78-5.25-10.72-8.37-16.17-.79-1.38-2.05-2.08-3.48-1.92-2.66.3-4.76,3.53-5.24,5.11-1.58,5.2.37,8.26,1.41,9.9l.08.13c13.12,20.61,15.47,22.26,17.55,22.41Zm-14.46-24.56c-.92-1.44-2.07-3.23-.99-6.78.26-.84,1.28-2.06,1.88-2.39,3.05,5.33,5.93,11.21,8.24,15.93.93,1.89,1.76,3.6,2.45,4.94,1.58,3.49,2.78,7.32,2.77,8.74-1.55-1.39-5.34-6.28-14.26-20.3l-.09-.13Z"/>
  <path d="m41.42,13.49c-.97.53-1.33,1.74-.8,2.71.14.25,2.52,4.46,8.57,7.29,0,0,0,0,.01,0,.89.42,1.86.8,2.91,1.13.01,0,.03,0,.04.01,2.07.66,4.44,1.15,7.18,1.32.24.02.49.02.75.02.29,0,.6-.01.92-.03l1.35-.09c1.88-.14,3.54-.44,5.05-.84.16-.03.31-.07.45-.13,1.05-.3,2.02-.64,2.9-1.03.02,0,.05-.02.07-.03,6.38-2.83,8.49-7.55,8.61-7.82.43-1.01-.03-2.17-1.04-2.61-1.01-.44-2.18.02-2.63,1.02-.04.08-.32.67-.94,1.49.4-2.48.27-4.47.26-4.64-.08-1.1-1.04-1.93-2.14-1.85-1.1.08-1.93,1.03-1.85,2.13.11,1.57-.08,5.92-2.02,8.48v-4.82c0-1.1-.9-2-2-2s-2,.9-2,2v6.23c-.93.18-1.91.33-2.99.41h-.1s0-4.91,0-4.91c0-1.1-.9-2-2-2s-2,.9-2,2v4.84c-1.11-.13-2.13-.32-3.09-.56v-6.02c0-1.1-.9-2-2-2s-2,.9-2,2v4.44c-2.35-3.02-2.03-8.01-2.02-8.1.08-1.1-.74-2.06-1.84-2.14-1.1-.08-2.06.74-2.15,1.84-.01.15-.14,2.01.24,4.36-.65-.75-.96-1.29-1.01-1.36-.53-.97-1.74-1.33-2.71-.8Z"/>
  <path d="m35.24,23.46c.32-2.69-1.32-5.17-3.73-5.64-1.14-.23-2.29.03-3.25.73-1.07.78-1.79,2.05-1.96,3.47-.3,2.5-1.06,7.63-2.07,11.73-2.34-3.07-4.98-7.17-6.41-9.58-.71-1.19-1.85-2-3.12-2.21-1.2-.2-2.43.14-3.38.94-1.87,1.57-2.31,4.52-1,6.73,1.02,1.72,6.36,10.52,10.69,14.72.17.16.28.43.3.72,2.12,28.17-7.22,58.49-7.32,58.79-.78,2.49.33,5.26,2.53,6.3.63.3,1.33.44,2.01.4,1.82-.1,3.38-1.39,3.97-3.28.26-.83,6.38-20.51,7.83-43.67.04-.68.48-1.26,1.11-1.45,6.52-1.95,19.16-3.62,20.87-1.95.41,2.38-.31,3.51-.94,4.51-.52.82-1.87,2.96.4,4.76l5.16,5.61c1.66,1.69,2.7,1.69,3.05,1.69.96,0,1.99-.58,3.07-1.72l5.14-5.59c2.27-1.8.91-3.94.4-4.76-.63-1-1.35-2.13-.94-4.51,1.72-1.67,14.36,0,20.89,1.96.61.18,1.04.76,1.09,1.44,1.45,23.16,7.57,42.84,7.83,43.67.59,1.89,2.15,3.18,3.97,3.29.07,0,.15,0,.22,0,.61,0,1.23-.14,1.79-.4,2.2-1.04,3.31-3.81,2.53-6.3-.09-.3-9.44-30.62-7.32-58.79.02-.29.14-.56.3-.72,4.34-4.2,9.67-13,10.69-14.72,1.31-2.2.87-5.16-.99-6.72-.95-.8-2.19-1.14-3.39-.94-1.27.22-2.41,1.02-3.12,2.21-1.43,2.41-4.07,6.5-6.41,9.58-1.01-4.1-1.77-9.23-2.07-11.73-.17-1.42-.88-2.69-1.96-3.47-.96-.7-2.11-.95-3.24-.73-2.41.47-4.05,2.95-3.73,5.64.28,2.38,1.85,14.55,4.72,20,.1.19.22.78.2,1.11l-.29,5.26c-7.7,1.79-20.32-2.12-22.81-5.51l-.18-.25-.06-.05c-.1-.32-.04-1.42,1.27-3.42,2.08-3.17,2.54-6.21,1.29-8.56-.91-1.71-3.13-3.77-8.55-3.85h-.06s-.06,0-.06,0c-.01,0-.02,0-.04,0h-.15s-.05,0-.05,0h-.06s-.13,0-.13,0h-.11s-.06,0-.06,0c-5.42.08-7.64,2.14-8.55,3.85-1.25,2.35-.79,5.39,1.29,8.56,1.31,1.99,1.37,3.1,1.27,3.42l-.24.29c-1.05,1.43-4.52,3.49-9.89,4.84-4.8,1.21-9.55,1.45-12.92.67l-.29-5.3c-.02-.29.1-.88.21-1.08,2.87-5.43,4.43-17.6,4.71-19.99Zm24.93,6.75l-.04,1.66-.03-.8.06-.85Zm-33.51,20.6c.07,1.25.91,2.33,2.1,2.67,9.01,2.64,23.85-1.61,27.77-6.64.81-.82,2.52-3.38-.79-8.42-1.21-1.84-1.62-3.52-1.11-4.49.56-1.05,2.38-1.67,5.01-1.72h.18s.07,0,.07,0h.1s.14,0,.14,0h0s.14.01.14.01h.11c2.62.04,4.44.67,4.99,1.71.52.97.1,2.65-1.11,4.49-3.31,5.05-1.6,7.61-.79,8.42,3.92,5.02,18.76,9.28,27.77,6.64,1.19-.35,2.03-1.42,2.1-2.67l.33-5.98c.08-1.04-.19-2.37-.66-3.25-2.1-3.99-3.68-13.56-4.28-18.59-.08-.69.29-1.2.53-1.25.02,0,.05,0,.12.04.13.1.29.33.34.71.37,3.13,1.45,10.24,2.86,14.76.31.99,1.1,1.73,2.07,1.93.96.2,1.93-.14,2.6-.9,3.01-3.47,6.79-9.41,8.37-12.06.13-.21.27-.3.35-.32.02,0,.06,0,.15.06.33.28.46,1.06.13,1.62-.6,1.01-5.98,9.97-10.04,13.9-.88.85-1.41,2.02-1.51,3.29-2.18,28.96,7.39,59.98,7.49,60.29.21.68-.11,1.34-.5,1.51-.07,0-.27-.13-.38-.49-.25-.81-6.23-20.04-7.65-42.72-.15-2.34-1.72-4.36-3.95-5.03-.13-.04-10.24-2.79-17.72-2.79-2.47,0-4.65.3-6.09,1.09-1.34.73-1.86,1.74-2.06,2.45l-.04.17c-.78,4.05.65,6.35,1.43,7.59l-5.05,5.49c-.05.05-.1.1-.16.15-.06-.05-.11-.1-.15-.14l-5.06-5.5c.78-1.24,2.21-3.53,1.43-7.59l-.04-.17c-.2-.71-.72-1.72-2.06-2.45-5.83-3.2-23.64,1.65-23.84,1.71-2.2.66-3.78,2.68-3.92,5.02-1.42,22.68-7.4,41.91-7.66,42.72-.11.36-.31.49-.46.47-.31-.15-.63-.81-.42-1.49.1-.31,9.67-31.33,7.49-60.29-.1-1.27-.63-2.44-1.51-3.29-4.06-3.93-9.44-12.89-10.04-13.9-.33-.56-.2-1.34.13-1.62.08-.07.12-.06.14-.06.08.01.22.1.35.32,1.58,2.65,5.36,8.59,8.37,12.06.66.76,1.63,1.1,2.6.9.97-.2,1.76-.94,2.07-1.93,1.41-4.52,2.48-11.63,2.86-14.76.04-.37.2-.61.34-.71.07-.05.1-.04.12-.04.23.05.61.55.53,1.24-.6,5.03-2.18,14.61-4.28,18.6-.46.87-.73,2.21-.66,3.2l.33,6.02Z"/>
  <path d="m68.01,107.2c.59-.88,1.13-2.36.32-4.43-2.91-7.45-5.32-11.19-6.26-12.5-.49-.77-1.08-1.07-1.58-1.17l-.13-.05h-.32s-.05,0-.07,0c-.03,0-.05,0-.08,0h-.25s-.1.04-.1.04c-.51.09-1.14.38-1.66,1.19-.95,1.31-3.36,5.06-6.26,12.5-.81,2.07-.27,3.55.32,4.43,1.67,2.47,5.6,2.87,7.79,2.9h.27s.33,0,.33,0c2.22-.04,6.04-.47,7.68-2.9Zm-3.31-2.24c-.36.54-2.15,1.11-4.52,1.14h-.12s-.07,0-.07,0h-.08s-.07,0-.07,0h-.05c-2.37-.03-4.16-.6-4.52-1.14-.11-.17.03-.57.09-.73,1.89-4.84,3.54-7.99,4.63-9.83,1.09,1.84,2.74,4.98,4.63,9.83.06.17.2.57.09.73Z"/>
</svg>