<?xml version="1.0" encoding="UTF-8"?>
<svg id="Livello_3" data-name="Livello 3" xmlns="http://www.w3.org/2000/svg" viewBox="0 0 120 120">
  <path d="m81.73,62.49h-15.86c-1.89,0-3.43,1.54-3.43,3.43v16.03c0,1.09.49,2.09,1.35,2.75.6.46,1.32.7,2.06.7.3,0,.6-.04.9-.12,8.89-2.42,15.9-9.5,18.3-18.48.28-1.04.06-2.12-.59-2.97-.66-.85-1.65-1.35-2.72-1.35Zm-15.29,18.72v-14.73s14.54,0,14.54,0c-2.13,7.02-7.61,12.56-14.54,14.72Z"/>
  <path d="m54.13,62.48h-15.88s0,0,0,0c-1.07,0-2.06.49-2.72,1.34-.66.85-.87,1.94-.6,2.97,2.39,8.99,9.41,16.08,18.31,18.5.3.08.6.12.9.12.73,0,1.45-.24,2.06-.7.86-.66,1.36-1.66,1.36-2.75v-16.04c0-.92-.35-1.78-.99-2.43-.65-.65-1.51-1.02-2.43-1.02Zm-.58,18.73c-6.94-2.16-12.43-7.71-14.55-14.74h14.56s0,14.74,0,14.74Z"/>
  <path d="m66.76,34.71c-1.02-.28-2.1-.07-2.95.58-.86.66-1.36,1.66-1.36,2.75v16.03c0,1.9,1.53,3.44,3.42,3.44h15.86s0,0,0,0c1.07,0,2.06-.49,2.72-1.34.66-.85.87-1.94.6-2.97-2.39-8.98-9.4-16.06-18.29-18.49Zm-.32,18.8v-14.73c6.94,2.16,12.41,7.71,14.54,14.73h-14.54Z"/>
  <path d="m56.21,35.28c-.85-.65-1.92-.86-2.95-.58-8.9,2.42-15.92,9.5-18.32,18.48-.28,1.04-.06,2.12.6,2.97.66.85,1.65,1.34,2.72,1.34h15.88s0,0,0,0c.92,0,1.78-.36,2.43-1.01.64-.65,1-1.51,1-2.43v-16.04s0,0,0,0c0-1.09-.49-2.09-1.36-2.75Zm-2.65,18.22h-14.56c2.13-7.03,7.62-12.58,14.56-14.73v14.73Z"/>
  <path d="m105.42,58.05c-1.45,0-3.84,0-5.14,0l-5.97-4.04c-.24-1.4-.57-2.78-.98-4.12,1.55-1.07,4-3.08,5.64-5.98l4.61-1.67c1.04-.38,1.58-1.52,1.2-2.56-.38-1.04-1.53-1.58-2.56-1.2l-1.64.6c.03-.27.08-.53.09-.81.06-1.1-.79-2.04-1.9-2.1-1.1-.04-2.04.79-2.1,1.9,0,.07-.02.13-.02.19l-.42-.46c-.74-.82-2-.89-2.82-.15-.82.74-.89,2-.15,2.82l1.87,2.08c-.96,1.47-2.2,2.62-3.22,3.42-1.58-3.63-3.75-6.94-6.38-9.81.96-.6,1.95-1.46,2.68-2.71.26-.44.43-.9.55-1.38,0-.02.02-.05.02-.07.03-.12.05-.25.07-.38,1.02-2.61,2.92-4.29,2.96-4.33.84-.71.94-1.97.23-2.81-.71-.84-1.98-.95-2.82-.23-.04.03-.39.33-.88.86-.31-.88-1.21-1.45-2.16-1.31-.87.12-1.52.78-1.68,1.59-.04-.02-.08-.05-.11-.07-.92-.61-2.16-.35-2.77.57-.61.92-.36,2.16.56,2.77,1.22.81,2.43,2.07,2.61,2.67-.02.04-.03.09-.05.12-.57.98-1.57,1.52-2.27,1.79-2.35-2.02-4.95-3.73-7.76-5.07.85-1.38,2.65-3.69,6.34-6.72.85-.7.98-1.96.27-2.81-.7-.85-1.96-.98-2.81-.27-.48.4-.93.78-1.36,1.16-.56-.9-1.73-1.21-2.66-.69-.96.54-1.31,1.75-.77,2.72.09.17.18.36.26.56-.73.2-1.52.31-2.11.15-1.07-.28-2.16.36-2.44,1.43-.28,1.07.36,2.16,1.43,2.44.13.03.25.05.38.07-.1.16-.18.31-.26.45-1.56-.53-3.17-.95-4.82-1.25l-4.13-5.93-.02-.02c0-1.3-.01-3.53-.01-4.9,0-.49.13-.85.35-.98.12-.07.26-.07.37,0,.22.12.35.5.35,1v1.62c0,1.1.9,1.99,2,1.99h0c1.1,0,2-.91,1.99-2.01v-1.6c0-1.98-.86-3.6-2.35-4.46-1.35-.78-3.02-.78-4.37,0-1.49.86-2.35,2.48-2.35,4.45,0,1.41,0,3.73.01,5.02l-4.06,5.81c-1.71.3-3.38.73-4.99,1.28-.07-.13-.15-.27-.24-.41.13-.02.26-.04.38-.07,1.07-.28,1.71-1.37,1.43-2.44-.28-1.07-1.37-1.71-2.44-1.43-.59.16-1.38.05-2.11-.15.07-.19.16-.39.25-.55.54-.96.2-2.18-.76-2.72-.93-.53-2.11-.21-2.67.69-.43-.38-.88-.76-1.36-1.16-.85-.7-2.11-.58-2.81.27-.7.85-.58,2.11.27,2.81,3.65,3,5.44,5.29,6.31,6.67-2.83,1.34-5.44,3.06-7.8,5.09-.69-.28-1.65-.82-2.21-1.76-.02-.03-.03-.08-.05-.12.18-.6,1.39-1.86,2.61-2.66.92-.61,1.18-1.85.57-2.77-.61-.92-1.85-1.18-2.77-.57-.03.02-.07.05-.11.07-.16-.81-.81-1.47-1.68-1.59-.96-.14-1.85.43-2.16,1.31-.49-.52-.84-.82-.88-.86-.84-.71-2.09-.61-2.81.23-.72.84-.62,2.1.22,2.82.02.02,1.94,1.7,2.96,4.33.02.13.04.25.07.38,0,.02.01.04.02.07.12.48.29.95.55,1.38.72,1.23,1.69,2.09,2.63,2.68-2.63,2.88-4.78,6.19-6.35,9.83-1.02-.8-2.24-1.95-3.2-3.41l1.87-2.08c.74-.82.67-2.09-.15-2.82-.82-.74-2.09-.67-2.82.15l-.42.46c0-.06-.02-.13-.02-.19-.06-1.1-.99-1.94-2.1-1.9-1.1.06-1.95,1-1.9,2.1.01.28.06.54.09.81l-1.64-.6c-1.04-.38-2.19.16-2.56,1.2-.38,1.04.16,2.19,1.2,2.56l4.61,1.67c1.64,2.89,4.08,4.91,5.63,5.97-.39,1.32-.71,2.68-.94,4.06l-6.01,3.98-.04.03c-1.32,0-3.62,0-5.03-.01-.72,0-1.09-.25-1.09-.5,0-.24.35-.51,1.11-.47h1.65s0,0,0,0c1.1,0,2-.89,2-2,0-1.1-.89-2-2-2h-1.63s-.02,0-.04,0c-3.33,0-5.08,2.24-5.09,4.45-.01,2.18,1.76,4.5,5.07,4.52,1.45,0,3.84.01,5.14.01l5.97,4.05c.37,2.15.93,4.23,1.67,6.23-.76.7-1.75,1.55-2.83,2.4l-4.41.04c-1.1,0-1.99.91-1.98,2.02,0,.62.3,1.17.75,1.53-.45.18-.87.32-1.27.4-1.08.21-1.79,1.26-1.58,2.35.19.95,1.02,1.62,1.96,1.62.13,0,.26-.01.39-.04,1.5-.29,3.16-1.08,4.76-2.06-.03.64.25,1.28.8,1.7.36.27.78.4,1.2.4.61,0,1.21-.28,1.6-.8.98-1.31.93-3.08.71-4.37.59-.47,1.12-.93,1.6-1.34,1.6,3.11,3.64,5.94,6.04,8.43-1.59.61-3.04,1.15-3.8,1.41-1.64-.73-2.98-1.25-3.05-1.28-1.03-.4-2.19.11-2.59,1.14-.21.55-.16,1.14.09,1.63-1.55.71-2.43,1.42-2.58,1.56-.82.72-.9,1.97-.19,2.8.72.83,1.97.92,2.81.22,0,0,.53-.44,1.52-.9-.31.61-.76,1.38-1.45,2.42-.61.92-.37,2.16.55,2.77.34.23.73.34,1.11.34.65,0,1.28-.31,1.66-.89.61-.91,1.06-1.67,1.41-2.3.28.78,1.02,1.33,1.87,1.33.05,0,.09,0,.14,0,1.1-.08,1.93-1.03,1.86-2.13-.13-1.84-.24-2.51-.59-3.37,1.07-.39,2.52-.95,4.52-1.74,2.19,1.75,4.59,3.24,7.16,4.43-.49,1.59-1.21,3.46-1.96,4.55-.25.04-.5.06-.75.09-1.32.15-3.14.35-4.22,2.35-.52.96-.17,2.14.76,2.68-.53,1.06-.88,2.02-.98,2.58-.19,1.09.55,2.12,1.64,2.31.11.02.23.03.34.03.96,0,1.8-.69,1.97-1.66.07-.39.37-1.08.78-1.81.08.19.17.37.27.56.53.97,1.74,1.33,2.71.8.97-.53,1.33-1.74.8-2.71-.49-.89-.45-1.9-.39-2.43.01-.03.02-.05.03-.08,1.25-1.6,2.17-4.03,2.73-5.79,1.48.48,2.99.86,4.55,1.15l4.1,5.93.02.02c0,1.3,0,3.53,0,4.9,0,.63-.22,1.03-.54,1.03h0c-.39,0-.53-.56-.52-1.05v-1.62c0-1.1-.89-2-2-2h0c-1.1,0-2,.9-2,2v1.6c-.01,3.28,2.31,5.05,4.51,5.06h.01c2.2,0,4.54-1.76,4.55-5.02,0-1.41,0-3.73,0-5.02l4.11-5.84c1.6-.29,3.16-.69,4.68-1.19.53,1.5,1.39,3.6,2.59,5.56.03.1.05.19.09.3.07.52.1,1.53-.39,2.43-.53.97-.17,2.19.8,2.71.97.53,2.19.17,2.71-.8.1-.19.19-.37.27-.56.4.73.71,1.42.78,1.81.17.98,1.01,1.66,1.97,1.66.11,0,.23,0,.34-.03,1.09-.19,1.82-1.22,1.64-2.31-.1-.57-.45-1.53-.98-2.59.93-.54,1.28-1.72.76-2.68-1.08-2.01-2.9-2.21-4.22-2.35-.2-.02-.39-.04-.6-.07-.94-1.63-1.62-3.36-2.05-4.58,2.54-1.19,4.92-2.67,7.1-4.42,2,.79,3.45,1.35,4.52,1.74-.36.86-.47,1.52-.59,3.37-.08,1.1.76,2.06,1.86,2.13.05,0,.09,0,.14,0,.86,0,1.59-.55,1.87-1.33.35.63.8,1.39,1.41,2.3.39.58,1.02.89,1.66.89.38,0,.77-.11,1.11-.34.92-.61,1.16-1.86.55-2.77-.7-1.04-1.14-1.8-1.45-2.42.97.45,1.49.87,1.52.9.83.72,2.08.63,2.81-.19.73-.83.65-2.09-.18-2.82-.15-.14-1.03-.85-2.58-1.56.25-.49.3-1.07.09-1.63-.4-1.03-1.55-1.54-2.59-1.14-.06.02-1.41.55-3.05,1.28-.76-.25-2.2-.79-3.8-1.41,2.4-2.48,4.45-5.32,6.05-8.42.47.41,1.01.86,1.59,1.34-.22,1.28-.27,3.06.71,4.36.4.53,1.01.81,1.63.81.41,0,.83-.13,1.18-.39.56-.42.84-1.06.8-1.7,1.6.97,3.25,1.75,4.74,2.05.13.03.26.04.39.04.94,0,1.77-.66,1.96-1.62.21-1.08-.49-2.14-1.58-2.35-.39-.08-.82-.22-1.27-.4.45-.36.74-.91.75-1.53,0-1.1-.88-2.01-1.98-2.02l-4.41-.04c-1.08-.85-2.06-1.7-2.82-2.4.73-1.97,1.3-4.02,1.67-6.13l6.06-4.04.04-.03c1.32,0,3.62,0,5.03,0,.72,0,1.09.25,1.09.5,0,.24-.38.48-1.1.48h-1.66c-1.1,0-2,.9-2,2,0,1.1.9,2,2,2h1.64s.01,0,.02,0c3.34,0,5.09-2.25,5.1-4.47,0-2.18-1.77-4.5-5.08-4.51Zm-17.06,14.06c-4.71,11.17-15.71,19.06-28.38,19.06-12.76,0-23.74-7.88-28.42-19.08h0c-1.55-3.73-2.41-7.81-2.41-12.09,0-13.12,8.06-24.36,19.43-28.96.06-.02.12-.04.18-.07,3.46-1.37,7.23-2.14,11.17-2.15h.09c16.72.02,30.53,13.79,30.78,30.69v.2c.02.1.03.19.03.29s0,.2-.02.3v.2c-.08,4.05-.93,7.92-2.4,11.47-.02.05-.04.09-.06.14Zm-28.33-48.51l.86,1.24c-.27,0-.53-.02-.8-.02h-.1c-.27,0-.54.01-.82.02l.86-1.24ZM23.85,60l1.32-.88c0,.29-.02.58-.02.87s.02.6.02.9l-1.32-.89Zm36.08,36.4l-.87-1.25c.31,0,.61.02.92.02.27,0,.55-.01.82-.02l-.87,1.25Zm34.86-35.43c0-.1.01-.21.01-.31.02-.21.04-.43.04-.65s-.01-.44-.03-.65c0-.06,0-.12,0-.19l1.34.9-1.35.9Z"/>
</svg>