<?xml version="1.0" encoding="UTF-8"?>
<svg id="Livello_3" data-name="Livello 3" xmlns="http://www.w3.org/2000/svg" viewBox="0 0 120 120">
  <path d="m48.92,68.28c-.72-.08-2.52-.02-3.69,2.21-3.29,6.28-6.38,13.14-8.86,18.64-.97,2.17-1.85,4.12-2.63,5.79-5.42,12.48-2.92,14.37-2.09,14.99.4.31,1.27.96,2.48.96.23,0,.46-.02.71-.07,2.42-.5,4.98-2.54,17.99-25.45l.13-.22c1.13-1.98,3.03-5.29,1.48-11.04-.49-1.81-2.67-5.49-5.5-5.8Zm.56,14.86l-.13.23c-3.06,5.39-12.15,21.39-15.03,23.35-.03-1.61,1.3-6.08,3.07-10.15.77-1.64,1.65-3.61,2.64-5.79,2.45-5.44,5.49-12.2,8.72-18.36.62.47,1.58,1.79,1.83,2.71,1.12,4.16-.1,6.3-1.08,8.01Z"/>
  <path d="m83.63,89.14c-2.48-5.51-5.56-12.36-8.86-18.64-1.17-2.23-2.98-2.29-3.69-2.21-2.83.31-5.02,3.99-5.5,5.8-1.55,5.75.34,9.06,1.48,11.04l.13.22c13.02,22.91,15.57,24.95,17.99,25.45.25.05.49.07.71.07,1.21,0,2.07-.65,2.48-.96.82-.62,3.33-2.51-2.12-15.04-.76-1.62-1.64-3.57-2.61-5.74Zm-12.98-5.77l-.13-.23c-.98-1.72-2.21-3.86-1.08-8.01.25-.92,1.21-2.24,1.83-2.71,3.23,6.16,6.27,12.92,8.72,18.36.98,2.18,1.87,4.16,2.61,5.74,1.79,4.12,3.12,8.59,3.09,10.2-2.88-1.96-11.97-17.96-15.03-23.35Z"/>
  <path d="m12.44,28.94h6.1l-.04,77.04c0,1.32.53,2.56,1.5,3.49.94.9,2.19,1.4,3.51,1.4,2.76,0,5.01-2.19,5.01-4.88l.02-45.33c0-1.24.92-2.31,2.15-2.48l.24-.04c.89-.14,1.96-.32,3.14-.52,3.59-.62,8.51-1.46,12.49-1.62,4.95-.2,5.85.73,5.95.88.47,2.69-.31,3.95-.99,5.06-.57.92-1.88,3.05.39,4.89l5.36,5.98c.45.5.99.87,1.61,1.11l.17.06c.23.06,1.04.25,1.93,0l.15-.05c.62-.23,1.16-.61,1.61-1.11l5.36-5.98c2.27-1.84.96-3.97.39-4.89-.69-1.11-1.46-2.37-.99-5.06.1-.14,1-1.08,5.95-.88,3.98.17,8.9,1.01,12.49,1.62,1.18.2,2.25.38,3.11.52l.31.04c1.46.2,2.55,1.46,2.55,2.95l-.02,44.69c0,2.79,2.25,5.05,5.01,5.05,2.76,0,5.01-2.27,5.01-5.05l.04-79.86,4.9,1.36c.95.26,1.95.07,2.73-.53.79-.6,1.24-1.51,1.24-2.5v-12.28c0-.95-.42-1.83-1.15-2.43-.73-.6-1.68-.84-2.6-.65l-28.06,5.66c-1.16.23-2,1.22-2.05,2.41-.04,1.19.73,2.23,1.87,2.55l13.11,3.63v19.93c-.01,1.63-1.31,2.93-3.03,2.97-9.55.25-20.05-2.58-22.53-6.05l-.18-.25-.08-.06c-.14-.34-.14-1.58,1.33-3.88,1.85-2.9,2.44-5.69,1.75-7.96,1.97-.79,2.97-2.02,2.97-3.65,0-1.34-.46-2.52-1.35-3.42-2.1-2.11-5.97-2.27-11.2-2.27-3.82,0-11.76,0-11.86,5.63-.02,1.2.55,2.72,3.06,3.72-.69,2.27-.1,5.06,1.75,7.96,1.47,2.3,1.47,3.54,1.33,3.88l-.26.31c-2.48,3.47-12.99,6.3-22.52,6.05h-.13c-1.36-.04-2.42-1.14-2.42-2.51v-14.65h6.08c2,0,3.63-1.62,3.63-3.6v-3c0-1.99-1.63-3.6-3.63-3.6h-6.06v-4.97c0-1.32-.53-2.56-1.49-3.49-.94-.9-2.19-1.4-3.51-1.4-2.76,0-5.01,2.19-5.01,4.88v4.98h-6.11c-2,0-3.63,1.62-3.63,3.6v3c0,1.99,1.63,3.6,3.63,3.6Zm.37-6.2h7.17c1.42,0,2.57-1.15,2.57-2.57v-6.41c0-.49.46-.89,1.01-.89.29,0,.55.1.74.29.12.12.27.31.27.6v6.39c0,.69.26,1.34.75,1.83.49.49,1.13.76,1.82.76h7.12v2.2h-7.12c-1.42,0-2.58,1.16-2.58,2.58v16.06c0,3.55,2.76,6.41,6.31,6.5h.13c8.22.21,21.58-2,25.77-7.57.81-.84,2.55-3.52-.84-8.83-1.46-2.28-1.79-4.28-.9-5.36.52-.63.67-1.5.4-2.26-.27-.77-.92-1.33-1.72-1.49-1.07-.22-1.62-.46-1.88-.62.32-.57,1.81-1.42,7.78-1.42,2.72,0,7.28,0,8.37,1.09.05.05.14.14.17.34-.21.13-.73.37-1.86.6-.8.17-1.45.73-1.72,1.5-.27.77-.11,1.63.41,2.26.89,1.08.55,3.08-.91,5.36-3.39,5.31-1.66,7.98-.84,8.83,4.19,5.57,17.54,7.78,25.83,7.57,3.84-.09,6.86-3.15,6.86-6.97v-19.99c.1-1.73-1.01-3.27-2.68-3.73l-7.51-2.08,21.09-4.25v10.1l-4.09-1.13c-1.14-.32-2.34-.09-3.29.63-.95.72-1.49,1.81-1.49,3.01l-.04,80.16c0,.58-.45,1.05-1.01,1.05-.56,0-1.01-.47-1.01-1.05l.02-44.69c0-3.48-2.58-6.45-6.02-6.91l-.21-.03c-.87-.13-1.91-.31-3.07-.51-5.47-.94-10.53-1.71-14.52-1.71-4.54,0-7.68.99-8.47,3.86l-.04.16c-.8,4.31.69,6.73,1.49,8.04.02.03.04.06.06.09l-5.14,5.73-5.13-5.72s.04-.06.06-.09c.8-1.3,2.3-3.73,1.49-8.04l-.04-.16c-1.47-5.38-11.28-4.16-22.98-2.15-1.15.2-2.2.38-3.08.51l-.16.02c-3.19.44-5.6,3.21-5.6,6.44l-.02,45.33c0,.49-.45.89-1.01.89-.29,0-.55-.1-.74-.29-.12-.12-.27-.31-.27-.6l.04-78.47c0-1.42-1.16-2.58-2.58-2.58h-7.16v-2.2Z"/>
</svg>