<?xml version="1.0" encoding="UTF-8"?>
<svg id="Livello_3" data-name="Livello 3" xmlns="http://www.w3.org/2000/svg" viewBox="0 0 120 120">
  <path d="m43.85,58.47c-1.1,0-2,.9-2,2v2.82c0,3-.56,5.9-1.66,8.6l-12.55,29.69c-.43,1.02.05,2.19,1.06,2.62.25.11.52.16.78.16.78,0,1.52-.46,1.84-1.22l12.56-29.72c1.31-3.21,1.97-6.62,1.97-10.14v-2.82c0-1.1-.9-2-2-2Z"/>
  <path d="m61.06,71.92c-1.11-2.73-1.67-5.63-1.67-8.63v-2.82c0-1.1-.9-2-2-2s-2,.9-2,2v2.82c0,3.51.66,6.92,1.98,10.17l12.89,30.23c.32.76,1.06,1.22,1.84,1.22.26,0,.53-.05.78-.16,1.02-.43,1.49-1.61,1.06-2.62l-12.88-30.2Z"/>
  <path d="m48.39,58.47c-1.1,0-2,.9-2,2v15.82c0,1.1.9,2,2,2s2-.9,2-2v-15.82c0-1.1-.9-2-2-2Z"/>
  <path d="m52.94,58.47h0c-1.1,0-2,.9-2,2l.08,43.52c0,1.1.9,2,2,2h0c1.1,0,2-.9,2-2l-.08-43.52c0-1.1-.9-2-2-2Z"/>
  <path d="m32,14.94c0,2.97,2.28,5.39,5.07,5.39l.43-.05c3.9-.86,7.89-1.3,11.87-1.31,4.06,0,8.14.43,12.13,1.31l.42.05h0c.66,0,2.3-.16,3.65-1.65.92-1.01,1.42-2.34,1.42-3.74v-4.11c0-1.1-.9-2-2-2s-2,.9-2,2v4.11c0,.4-.14.78-.38,1.05-.2.21-.41.29-.55.32-2-.43-4.03-.75-6.06-.97v-4.51c0-1.1-.9-2-2-2s-2,.9-2,2v4.21c-.89-.04-1.77-.07-2.65-.07-.79,0-1.58.03-2.37.07v-4.21c0-1.1-.9-2-2-2s-2,.9-2,2v4.5c-2.03.22-4.06.55-6.06.98-.51-.1-.92-.69-.92-1.37v-4.11c0-1.1-.9-2-2-2s-2,.9-2,2v4.11Z"/>
  <path d="m83.08,62.14l-.3-.42c-.7-1-1.67-1.72-2.82-2.09-2.37-.76-8.36-2.02-13.18-2.61-2.1-.26-4.02.43-5.25,1.88-1.29,1.52-1.63,3.62-.96,5.92l.11.3c1.2,2.52,2.65,5.59,4.28,9.21.25.6,6.27,14.72,12.12,24.85.57,1.14,1.68,1.82,2.89,1.82.22,0,.44-.02.66-.07,1.5-.3,2.58-1.61,2.64-3.17l.05-1.31c.49-3.66.52-7.68.56-11.93.01-1.37.02-2.76.05-4.17.11-5.86-.16-11.81-.8-17.68l-.06-.51Zm-3.14,18.12c-.03,1.42-.04,2.83-.05,4.22-.03,3.85-.06,7.5-.44,10.75-5.38-9.74-10.74-22.32-10.82-22.5-1.64-3.62-3.07-6.66-4.26-9.16-.24-.9-.16-1.63.21-2.07.35-.41.97-.59,1.71-.5,4.83.59,10.51,1.82,12.47,2.45.18.06.33.15.46.26.58,5.5.82,11.07.71,16.55Z"/>
  <path d="m107.22,108.88c2.31-.35,3.86-2.37,3.67-4.8-.18-2.42-2.01-4.18-4.32-4.18-.04,0-.04,0-.06,0-.04-.1-.07-.22-.09-.32-1.77-14.6-5.55-34.51-9.07-42.72l-1.77-2.71-.25-.31c-4.88-4.88-11.24-8.76-13.39-10.01-1.12-4.02-2.46-5.45-2.73-5.71-.8-.76-2.1-.75-2.86.05-.76.8-.75,2.04.05,2.8.01.01,1,1.15,1.87,4.63.23,1.3.38,2.62.44,3.92.01.23.02.45.03.66,0,.23-.06.45-.18.62-7.5,1.27-19.08-2.42-21.58-6.07l-.17-.25-.07-.06c-.08-.24-.3-1.34,1.26-3.88,2.1-3.41,2.51-6.64,1.17-9.09-.94-1.71-3.16-3.77-8.42-3.85h-.06s-.06,0-.06,0h-.04s-.15,0-.15,0h-.06s-.06,0-.06,0h-.13s-.11,0-.11,0h-.06c-5.26.08-7.48,2.14-8.42,3.85-1.35,2.45-.93,5.68,1.17,9.09,1.56,2.54,1.34,3.64,1.26,3.88l-.24.31c-2.37,3.46-13.03,7.08-20.69,6.19-.27-.38-.41-.85-.41-1.34v-15.05c.21-.38.37-.78.49-1.19l4.31-14.84c.45-1.55.24-3.28-.57-4.61-.69-1.14-1.74-1.9-2.96-2.15-2.23-.45-4.39,1.05-5.14,3.64l-.51,2.02-.51-2c-.69-2.53-2.82-4.08-5.05-3.68-1.22.22-2.29.96-3,2.08-.84,1.32-1.08,3.05-.65,4.61l4.06,14.82c.11.41.26.81.45,1.18l-.03,34.43c0,1.3.42,2.55,1.18,3.5.85,1.07,2.08,1.69,3.36,1.69,2.5,0,4.54-2.32,4.54-5.18v-4.71c0-.39.1-.71.22-.98,3.17-.9,9.22-2.19,13.91-2.47.25-.01.52.21.55.57.06.66-.06,1.31-.33,1.88-1.31,2.75-2.75,5.8-4.42,9.5-.45.87-6.86,13.17-12.46,22.84l-2.53,4.33c-2.17.29-3.82,2.05-4.01,4.41-.21,2.59,1.42,4.75,3.88,5.15,1.15.18,2.42.32,3.79.42,8.39.55,16.6.85,26.62.97,2.91.03,5.75.05,8.5.05,27.53,0,46.53-1.52,47.28-1.58,1.28-.08,2.47-.21,3.55-.37ZM50.56,29.62l-.03,1.62-.03-.82.06-.8Zm52.8,75.64c-.23.02-23.14,1.89-55.42,1.52-9.94-.11-18.08-.41-26.4-.96-1.25-.08-2.4-.21-3.42-.37-.52-.08-.55-.59-.53-.88.02-.29.14-.77.65-.77h.33c.84,0,1.63-.45,2.06-1.19l2.14-3.66.47-.8h0s.37-.63.37-.63c5.83-10.07,12.51-22.92,12.58-23.05l.05-.1c1.67-3.69,3.11-6.74,4.41-9.48.58-1.21.82-2.58.71-3.94-.21-2.47-2.37-4.37-4.77-4.22-5.97.35-13.06,2.07-15.55,2.85l-.59.19-.38.49c-.87,1.11-1.35,2.5-1.35,3.91v4.71c0,.76-.41,1.19-.55,1.19-.03,0-.13-.05-.23-.18-.2-.25-.31-.61-.31-1.01l.03-35.52-.3-.49c-.13-.21-.23-.43-.29-.67l-4.06-14.82c-.13-.48-.06-1.04.17-1.42.05-.08.17-.25.28-.28.09.02.38.26.52.76l2.31,9.13c.24.95,1.09,1.61,2.06,1.61h0c.98,0,1.82-.67,2.06-1.61l2.31-9.12c.15-.52.44-.75.49-.77.15.03.28.22.33.3.23.39.29.95.16,1.43l-4.31,14.84c-.07.24-.17.46-.31.67l-.33.5-.02,16.19c0,1.83.77,3.55,2.12,4.73l.44.38.57.09c8.66,1.35,21.49-2.56,25.17-7.64.78-.85,2.39-3.49-.8-8.69-1.27-2.07-1.67-3.97-1.07-5.07.6-1.09,2.34-1.72,4.9-1.77h.19s.04,0,.04,0h.09s.18,0,.18,0h0s.14.01.14.01h.11c2.56.04,4.3.67,4.9,1.76.6,1.1.21,3-1.07,5.07-3.2,5.2-1.58,7.84-.8,8.69,3.88,5.37,17.44,9.27,26.12,7.47l.42-.09.35-.25c1.35-.97,2.12-2.55,2.06-4.23,0-.24-.02-.49-.03-.74,0-.11-.01-.22-.02-.33,2.71,1.75,6.55,4.46,9.67,7.54l1.38,2.07c2.91,6.93,6.72,25.09,8.71,41.54l.02.12c.06.35.33,1.57,1.07,2.41.47.53,1.35,1.18,2.89,1.23h.11c.21,0,.33.17.36.49.02.33-.07.51-.29.54-.96.15-2.05.26-3.22.33h-.04Z"/>
  <path d="m95.83,81.26c-1.09.2-1.81,1.24-1.61,2.33,1.19,6.56,2.03,12.48,2.58,18.1.1,1.03.97,1.81,1.99,1.81.06,0,.13,0,.19,0,1.1-.11,1.9-1.08,1.8-2.18-.55-5.74-1.41-11.76-2.62-18.43-.2-1.09-1.24-1.81-2.33-1.61Z"/>
  <path d="m95.78,71.13c-1.09-4.92-2.08-8.95-3.11-12.69-.29-1.06-1.39-1.69-2.46-1.4-1.06.29-1.69,1.4-1.4,2.46,1.01,3.67,1.99,7.64,3.07,12.5.21.93,1.03,1.57,1.95,1.57.14,0,.29-.02.44-.05,1.08-.24,1.76-1.31,1.52-2.39Z"/>
</svg>