<?xml version="1.0" encoding="UTF-8"?>
<svg id="Livello_3" data-name="Livello 3" xmlns="http://www.w3.org/2000/svg" viewBox="0 0 120 120">
  <path d="m108.85,40.32c.65-.33,1.13-.9,1.35-1.6.83-2.68-2.18-7.17-3.51-8.97-3.65-4.95-17.79-21.09-46.56-21.09h-.35c-28.8.04-42.8,16.03-46.4,20.92-1.35,1.84-4.4,6.4-3.56,9.14.22.7.69,1.27,1.35,1.6,1.57.8,3.65.18,8.38-1.42.29,2.19,1.28,4.51,3.77,5.42.23.08.46.12.69.12.81,0,1.58-.5,1.88-1.31.38-1.04-.15-2.19-1.19-2.57-.97-.36-1.21-1.86-1.23-2.99,3.98-1.32,8.96-2.89,15.12-4.38.26,2.24,1.24,4.66,3.8,5.6.23.08.46.12.69.12.81,0,1.58-.5,1.88-1.31.38-1.04-.15-2.19-1.19-2.57-.9-.33-1.17-1.65-1.22-2.74,5.11-1.03,10.32-1.6,15.53-1.71v5.08c0,1.1.9,2,2,2s2-.9,2-2v-5.08c4.83.11,9.65.62,14.39,1.52-.03,1.12-.27,2.58-1.23,2.93-1.04.38-1.57,1.53-1.19,2.57.3.81,1.06,1.31,1.88,1.31.23,0,.46-.04.69-.12,2.65-.97,3.61-3.54,3.82-5.84,6.09,1.44,11.08,2.97,15.1,4.29.02,1.13-.16,2.93-1.24,3.33-1.04.38-1.57,1.53-1.19,2.57.3.81,1.06,1.31,1.88,1.31.23,0,.46-.04.69-.12,2.61-.96,3.59-3.47,3.81-5.75,3.92,1.33,6.19,2.1,7.78,2.1.61,0,1.12-.11,1.58-.35Zm-8.15-5.56c-4.7-1.59-11.13-3.78-19.74-5.79-13.19-3.09-27.11-3.19-40.35-.34-.31,0-.61.06-.87.19-.23.05-.45.1-.68.15-8.61,2.01-15.04,4.2-19.74,5.79-1.99.67-4.02,1.36-5.33,1.7.62-1.6,2.24-4.5,5.53-7.96,5.59-5.9,18.26-15.8,40.27-15.83h.34c21.81,0,34.57,9.9,40.24,15.8,3.34,3.48,5,6.38,5.64,7.99-1.32-.34-3.34-1.03-5.31-1.7Z"/>
  <path d="m96.49,27.57c-37.34-21-73.24-.12-73.6.09-.95.56-1.26,1.79-.69,2.74.37.63,1.04.98,1.72.98.35,0,.7-.09,1.02-.28.34-.2,34.31-19.89,69.59-.04.96.54,2.18.2,2.72-.76.54-.96.2-2.18-.76-2.72Z"/>
  <path d="m79.32,93.15c-1.98-4.38-4.44-9.84-7.08-14.85h0c-1.05-2-2.69-2.04-3.35-1.97-2.48.27-4.31,3.33-4.74,4.91-1.3,4.8.36,7.65,1.26,9.17l.07.12c11.44,19.59,13.21,20.67,15.15,20.8.07,0,.13,0,.19,0,1.3,0,2.03-.93,2.32-1.29.03-.04.07-.09.1-.13.55-.61,2.24-2.48-1.85-12.21-.6-1.29-1.31-2.84-2.08-4.56Zm-10.38-4.64l-.07-.12c-.76-1.3-1.71-2.92-.85-6.1.13-.48.57-1.16.96-1.6,2.48,4.76,4.81,9.93,6.7,14.11.79,1.74,1.5,3.31,2.07,4.54,1,2.39,1.83,4.98,2.18,6.65-1.68-2.15-4.9-7.05-10.99-17.47Z"/>
  <path d="m51.24,76.33c-.66-.07-2.3-.03-3.35,1.97h0c-2.64,5.01-5.1,10.46-7.08,14.85-.78,1.72-1.48,3.27-2.12,4.64-4.05,9.66-2.37,11.52-1.81,12.14.04.04.07.09.1.13.28.36,1.02,1.29,2.32,1.29.06,0,.13,0,.19,0,1.94-.14,3.71-1.21,15.15-20.8l.07-.12c.89-1.53,2.56-4.37,1.26-9.17-.43-1.58-2.25-4.64-4.74-4.91Zm.03,12.06l-.07.12c-6.09,10.42-9.31,15.32-10.99,17.47.34-1.67,1.16-4.24,2.14-6.58.61-1.3,1.32-2.87,2.11-4.61,1.89-4.18,4.22-9.35,6.7-14.11.39.44.83,1.11.96,1.6.86,3.18-.09,4.8-.85,6.1Z"/>
  <path d="m54.65,54.03c-1.88,2.62-10.27,4.85-17.64,4.65-8.82-.23-9.69,4.46-9.78,5.31h0c-.14,1.45.31,2.7,1.31,3.63,2.44,2.29,7.43,1.61,8.39,1.45.71-.11,1.57-.25,2.51-.42,3.15-.54,12.66-2.16,14.27-.81.31,1.9-.23,2.78-.76,3.62-.42.68-1.68,2.72.38,4.4l4.26,4.74c.4.44.88.78,1.44.99l.17.06c.27.07.97.22,1.76,0l.15-.05c.55-.21,1.04-.54,1.44-.99l4.26-4.74c2.06-1.69.8-3.72.38-4.4-.53-.85-1.07-1.73-.75-3.67.87-.89,5.2-.68,12.88.64.91.16,1.75.3,2.45.41.33.05.52.33.61.49.28.5.27,1.18-.02,1.88l-1.49,4.41c-.77,2.3.14,4.83,2.17,6.01.78.45,1.65.69,2.54.69,2.15,0,4.05-1.37,4.74-3.41l8.86-26.37c.48-1.42.3-2.96-.49-4.23-.79-1.27-2.1-2.12-3.6-2.32-2.36-.32-4.63,1.14-5.42,3.47l-2.31,6.86c-.57,1.65-1.12,1.79-1.67,1.92-.5.08-3.06.14-3.91.16h-.43c-7.12.19-13.94-1.69-15.86-4.36l-.17-.24c-.02-.25.01-1.04,1.04-2.64,1.79-2.79,2.17-5.47,1.09-7.57-.76-1.47-2.59-3.26-7.04-3.45h-.74c-4.37.19-6.19,1.98-6.95,3.45-1.09,2.09-.7,4.78,1.09,7.57,1.02,1.59,1.06,2.39,1.04,2.64l-.17.24Zm2.5-5.03c-.94-1.46-1.29-2.83-.91-3.56.38-.74,1.69-1.21,3.49-1.29h.57c1.89.08,3.19.55,3.57,1.29.38.73.03,2.1-.91,3.56-2.82,4.39-1.39,6.71-.65,7.5,3.26,4.33,11.93,6.09,19.11,5.9h.43c3.12-.09,4.17-.14,4.75-.29.96-.23,3.22-.77,4.52-4.51l2.31-6.88c.17-.5.65-.84,1.09-.78h0c.41.06.63.28.74.47.16.25.19.56.1.85l-8.86,26.38c-.16.47-.59.68-.95.68-.18,0-.36-.05-.53-.15-.38-.22-.55-.78-.38-1.28l1.41-4.2c.74-1.81.67-3.74-.2-5.29-.75-1.35-2.01-2.26-3.49-2.5-.7-.11-1.51-.25-2.4-.4-7.15-1.22-16.05-2.75-17.42,2.23l-.04.16c-.63,3.38.44,5.37,1.13,6.5l-3.6,4-3.6-4c.69-1.12,1.76-3.11,1.13-6.5l-.04-.16c-1.27-4.61-9.26-3.63-18.8-2.01-.92.16-1.75.3-2.46.41-1.85.3-4.37.2-5.03-.42-.04-.03-.08-.08-.06-.33l.03.08-.02-.15c.19-.55,1.49-1.76,5.68-1.64,6.65.17,17.45-1.64,20.89-6.18.74-.79,2.17-3.1-.65-7.5Z"/>
</svg>