<?xml version="1.0" encoding="UTF-8"?>
<svg id="icons" xmlns="http://www.w3.org/2000/svg" viewBox="0 0 120 120">
  <path d="m25.77,59.2c6.85,0,13.24-3.65,16.66-9.52.36-.62.36-1.39,0-2.02-3.43-5.86-9.82-9.51-16.66-9.51s-13.23,3.64-16.65,9.51c-.36.62-.36,1.39,0,2.02,3.43,5.87,9.81,9.52,16.66,9.52Zm0-17.04c5.02,0,9.73,2.47,12.56,6.52-2.82,4.05-7.53,6.52-12.56,6.52s-9.73-2.47-12.56-6.52c2.82-4.05,7.53-6.52,12.56-6.52Z"/>
  <path d="m98.58,79.38c1.09-.16,1.85-1.18,1.69-2.27-.16-1.09-1.19-1.85-2.27-1.69-4.83.71-6.44,3.14-6.96,4.52-.76,2.01-.29,4.33,1.28,6.19,2.12,2.52,5.67,3.65,9.27,2.94,5.52-1.07,9.72-5.07,10.21-9.72.21-2.02-.08-7.05-7.39-10.15-5.93-2.52-13.38-1.73-21.54,2.27-5.48,2.69-10.94,6.73-15.39,11.08l-5.17-4.02c.53-1.46,1.76-4,4.28-5.64,2.58-1.68,5.97-2.08,10.08-1.19,1.09.24,2.14-.45,2.38-1.53.23-1.08-.45-2.14-1.53-2.38-5.22-1.13-9.65-.54-13.17,1.78-.9.59-1.67,1.25-2.33,1.95v-5.23c5.21.53,8.64-1.84,10.13-4.32,1.41-2.34,1.4-5.1,0-7.04-.76-1.04-3.08-3.33-8.29-2.13-.63.14-1.22.26-1.79.36l.02-11.21c4.36-3.2,8.53-6.6,6.87-11.94-1.08-3.51-3.51-5.78-6.84-6.5v-1.73s0-.06,0-.09c0-.03,0-.06,0-.09,0-.07-.02-.13-.03-.2,0,0,0-.02,0-.02.4-2.57,1.92-4.63,4.55-6.12,4.98-2.83,12.7-2.92,18.36-.2,3.67,1.76,4.96,4.93,4.6,7.29-.35,2.3-2.16,3.86-4.98,4.28-3.17.48-4.79-1.26-5.1-2.55-.15-.62-.17-1.73,1.4-2.27,1.04-.36,1.6-1.5,1.23-2.54-.36-1.04-1.5-1.6-2.54-1.23-3.14,1.09-4.73,3.9-3.97,7,.73,2.98,3.63,5.67,7.94,5.67.52,0,1.07-.04,1.63-.12,4.54-.67,7.74-3.6,8.35-7.64.69-4.58-2.05-9.2-6.83-11.49-6.86-3.29-15.94-3.15-22.07.33-1.94,1.11-3.48,2.49-4.59,4.09-1.11-1.61-2.65-2.99-4.59-4.09-6.13-3.49-15.2-3.63-22.07-.33-4.77,2.29-7.52,6.91-6.83,11.49.61,4.04,3.81,6.96,8.35,7.64.56.08,1.11.12,1.63.12,4.31,0,7.21-2.69,7.94-5.67.76-3.1-.83-5.92-3.97-7-1.04-.36-2.18.19-2.54,1.23-.36,1.04.19,2.18,1.23,2.54,1.57.54,1.55,1.66,1.4,2.27-.31,1.28-1.94,3.02-5.1,2.55-2.82-.42-4.63-1.98-4.98-4.28-.36-2.36.93-5.53,4.6-7.29,5.66-2.72,13.38-2.63,18.36.2,2.63,1.5,4.15,3.56,4.55,6.13,0,.07-.03.14-.03.22-.03.29.02.58.11.84v.93c-4.54.58-9.44,3.36-12.02,7.12-1.92,2.78-2.24,5.67-.97,8.19l-1.57,2.59c-.57.94-.27,2.17.67,2.75.32.2.68.29,1.03.29.68,0,1.34-.34,1.71-.96l1.3-2.15c.43.07.88.07,1.35,0,2.77-.47,5.55-3.69,6.19-7.18.39-2.11-.05-4.01-1.23-5.46,1.16-.55,2.36-.94,3.53-1.15l-.02,12.51c-2.45,1.79-5.1,3.83-7.36,6.44-3.25,3.74-2.14,6.58-1.51,7.63,1.39,2.32,4.58,3.53,8.84,3.54v4.51c-5.6.17-8.69,2.59-10.14,4.23-.23.26-.43.53-.63.8-2.43-.1-4.54.31-5.72.88-.99.48-1.41,1.68-.93,2.67s1.68,1.41,2.67.93c.34-.16,1.13-.37,2.19-.46-.3,1.47-.28,2.99.11,4.46.24.89,1.05,1.49,1.93,1.49.17,0,.34-.02.52-.07,1.07-.29,1.7-1.38,1.42-2.45-.28-1.03-.24-2.11.07-3.14.68.16,1.38.38,2.08.68,2.78,1.21,4.81,3.39,6.05,6.48l-5.25,4.01c-3.35-3.3-7.33-6.44-11.53-8.96-9.59-5.75-18.65-7.31-25.52-4.4-5.08,2.16-7.78,5.77-7.4,9.93.41,4.59,4.59,8.68,10.16,9.93,5.22,1.18,9.76-2.2,10.73-6.09.69-2.77-.36-6.52-5.61-7.96-1.07-.3-2.17.33-2.46,1.4-.29,1.06.33,2.17,1.4,2.46,1.52.42,3.25,1.3,2.79,3.13-.43,1.74-2.81,3.87-5.97,3.15-3.83-.87-6.8-3.55-7.05-6.39-.21-2.34,1.56-4.43,4.98-5.89,7.64-3.24,16.99,1.21,21.89,4.15,3.9,2.34,7.43,5.13,10.38,7.98l-13.9,10.61-5.1-4.51c-.48-.42-1.13-.6-1.76-.45-.63.14-1.15.57-1.4,1.16l-7.56,17.66c-.43,1.01.04,2.19,1.05,2.63.26.11.52.16.79.16.78,0,1.51-.46,1.84-1.21l6.47-15.12,4.26,3.77s.03.02.04.03c.04.03.07.05.11.08.08.06.16.11.24.15.04.02.09.05.13.07.09.04.18.07.27.1.04.01.08.03.12.03.13.03.27.05.41.05h22.14c-.82,4.26-2.48,7.04-4.78,7.9-1.85.69-3.75,0-4.81-.98-.69-.63-.52-.9-.46-1.01.4-.65,1.87-1.27,3.28-.74,1.04.38,2.19-.15,2.57-1.18.38-1.04-.15-2.19-1.18-2.57-3.02-1.11-6.57-.06-8.08,2.41-.94,1.54-1.13,3.93,1.16,6.04,1.32,1.21,3.48,2.32,5.96,2.32.95,0,1.94-.16,2.96-.54,1.83-.68,3.96-2.19,5.56-5.41.39.74.85,1.45,1.43,2.11,2.02,2.29,4.84,3.45,8.41,3.45,2.68,0,4.75-1.13,5.68-3.09.84-1.77.54-3.94-.76-5.52-1.48-1.79-3.9-2.47-6.48-1.82-1.07.27-1.72,1.36-1.45,2.43.27,1.07,1.36,1.72,2.43,1.45,1.08-.27,1.93-.1,2.41.48.32.38.41.89.23,1.27-.24.51-.99.8-2.07.8-2.39,0-4.16-.68-5.4-2.08-1.42-1.61-1.93-3.89-2.08-5.71h22.49c.05,0,.1-.01.15-.01.05,0,.09,0,.14-.01.08-.01.16-.03.23-.05.04-.01.09-.02.13-.04.08-.03.15-.06.22-.1.04-.02.08-.04.12-.06.07-.04.14-.09.21-.15.03-.03.07-.05.1-.07,0,0,.01,0,.02-.01l4.4-3.89,8.01,15.69c.35.69,1.06,1.09,1.78,1.09.31,0,.62-.07.91-.22.98-.5,1.37-1.71.87-2.69l-9.18-17.99c-.28-.55-.8-.94-1.41-1.06-.61-.11-1.23.06-1.7.47l-5.09,4.5-13.59-10.56c3.95-3.81,8.84-7.48,13.95-9.98,4.94-2.42,12.11-4.77,18.21-2.18,3.47,1.47,5.24,3.62,4.98,6.05-.3,2.87-3.24,5.48-6.99,6.21-2.61.51-4.52-.49-5.45-1.6-.62-.73-.84-1.55-.6-2.19.36-.96,1.75-1.68,3.8-1.99Zm-46.88-45.43c-.64,1.96-2.11,3.16-2.67,3.29-.1-.11-.21-.21-.33-.3-.63-1.19-.41-2.6.68-4.18.49-.71,1.09-1.37,1.79-1.98.81.71.99,1.78.53,3.17Zm13.05,22.75c2-.46,3.55-.24,4.15.58.46.64.39,1.67-.18,2.63-.43.71-2.18,2.99-6.68,2.36v-5.06c.88-.13,1.78-.3,2.71-.51Zm.38-25.51c.62,2.01-.35,3.51-3.04,5.71l.02-9.25c1.47.57,2.47,1.73,3.03,3.54Zm-12.49,20.73c-.54-.9.59-2.36,1.1-2.95,1.3-1.5,2.81-2.81,4.33-4.02l-.02,8.57c-3.16,0-4.95-.82-5.42-1.61Zm.57,16.47c-.4-.17-.81-.32-1.21-.46,1.54-1.15,3.59-1.8,6.04-1.89v5.7c-1.37-1.42-2.98-2.55-4.82-3.35Zm6.79,13.4l4.71,3.66c-1.95,2.19-3.59,4.4-4.8,6.51-1.19-2.09-2.8-4.3-4.74-6.5l4.82-3.68Zm7.9,6.14l10.64,8.27h-16.25c.97-2.39,2.96-5.3,5.62-8.27Zm-10.34,8.27h-16.43l10.88-8.3c2.7,3.03,4.65,5.96,5.56,8.3Z"/>
  <path d="m25.77,53.71c2.79,0,5.07-2.26,5.07-5.03s-2.27-5.03-5.07-5.03-5.07,2.26-5.07,5.03,2.27,5.03,5.07,5.03Zm0-6.07c.59,0,1.07.46,1.07,1.03s-.48,1.03-1.07,1.03-1.07-.46-1.07-1.03.48-1.03,1.07-1.03Z"/>
  <path d="m74.84,47.67c-.36.62-.36,1.39,0,2.02,3.43,5.87,9.81,9.52,16.66,9.52s13.24-3.65,16.66-9.52c.36-.62.36-1.39,0-2.02-3.43-5.86-9.82-9.51-16.66-9.51s-13.23,3.64-16.65,9.51Zm29.22,1.01c-2.82,4.05-7.53,6.52-12.56,6.52s-9.73-2.47-12.56-6.52c2.82-4.05,7.53-6.52,12.56-6.52s9.73,2.47,12.56,6.52Z"/>
  <path d="m86.43,48.68c0,2.78,2.27,5.03,5.07,5.03s5.07-2.26,5.07-5.03-2.27-5.03-5.07-5.03-5.07,2.26-5.07,5.03Zm5.07-1.03c.59,0,1.07.46,1.07,1.03s-.48,1.03-1.07,1.03-1.07-.46-1.07-1.03.48-1.03,1.07-1.03Z"/>
</svg>