<?xml version="1.0" encoding="UTF-8"?>
<svg id="icons" xmlns="http://www.w3.org/2000/svg" viewBox="0 0 120 120">
  <rect x="46.83" y="65.84" width="2.41" height="6.64" rx="1" ry="1"/>
  <path d="m56.53,65.84h-.48c-.39,0-.74.22-.9.57l-1.01,2.12-.97-2.1c-.16-.36-.52-.58-.91-.58h-.46c-.52,0-.95.4-1,.91l-.41,4.64c-.02.28.07.56.26.76s.46.33.74.33h.4c.52,0,.95-.4,1-.92l.02-.23.25.56c.16.36.52.58.91.58h.28c.39,0,.74-.22.9-.57l.34-.73.03.37c.04.52.47.92,1,.92h.4c.28,0,.55-.12.74-.32.19-.21.28-.48.26-.76l-.38-4.64c-.04-.52-.48-.92-1-.92Z"/>
  <path d="m60.46,65.88h-.46c-.52,0-.95.4-1,.91l-.41,4.64c-.02.28.07.56.26.76s.46.33.74.33h.4c.52,0,.95-.4,1-.92l.02-.23.26.56c.16.36.52.58.91.58h.28c.39,0,.74-.22.9-.57l.34-.73.03.37c.04.52.47.92,1,.92h.4c.28,0,.55-.12.74-.32.19-.21.28-.48.26-.76l-.38-4.64c-.04-.52-.48-.92-1-.92h-.48c-.39,0-.74.22-.9.57l-1.01,2.12-.96-2.1c-.16-.36-.52-.58-.91-.58Z"/>
  <path d="m67.38,72.48h.41c.4,0,.76-.24.92-.6l.44-1.02h.94l.46,1.03c.16.36.52.6.91.6h.41c.34,0,.65-.17.84-.45s.21-.64.08-.95l-2.05-4.64c-.16-.36-.52-.6-.92-.6h-.39c-.4,0-.75.23-.91.59l-2.06,4.64c-.14.31-.11.67.08.95.18.28.5.46.84.46Z"/>
  <path d="m74.39,72.48h.4c.52,0,.95-.4,1-.92l.02-.23.25.56c.16.36.52.58.91.58h.28c.39,0,.74-.22.9-.57l.34-.73.03.37c.04.52.47.92,1,.92h.4c.28,0,.55-.12.74-.32s.28-.48.26-.76l-.38-4.64c-.04-.52-.48-.92-1-.92h-.48c-.39,0-.74.22-.9.57l-1.01,2.12-.97-2.1c-.16-.36-.52-.58-.91-.58h-.46c-.52,0-.95.4-1,.91l-.41,4.64c-.02.28.07.56.26.76s.46.33.74.33Z"/>
  <path d="m84.69,72.56c1.77,0,3.55-1.18,3.55-3.44,0-1.94-1.47-3.36-3.49-3.36s-3.56,1.45-3.56,3.45,1.47,3.35,3.49,3.35Zm.03-2.28c-.87,0-1.1-.68-1.1-1.09,0-.35.11-1.16,1.11-1.16,1.06,0,1.09.99,1.09,1.1,0,.27-.08,1.15-1.1,1.15Z"/>
  <path d="m91.64,72.56c1.83,0,3.02-1.16,3.02-2.95v-2.77c0-.55-.45-1-1-1h-.41c-.55,0-1,.45-1,1v2.8c0,.54-.16.63-.6.63-.32,0-.51-.04-.51-.63v-2.8c0-.55-.45-1-1-1h-.41c-.55,0-1,.45-1,1v2.82c0,1.76,1.14,2.89,2.9,2.89Z"/>
  <path d="m53.7,87.77c-.7,0-1.27.61-1.27,1.37s.57,1.37,1.27,1.37,1.27-.61,1.27-1.37-.57-1.37-1.27-1.37Z"/>
  <ellipse cx="40.65" cy="86.39" rx="1.27" ry="1.37"/>
  <path d="m68.53,87.28c0,.76.57,1.37,1.27,1.37s1.27-.61,1.27-1.37-.57-1.37-1.27-1.37-1.27.61-1.27,1.37Z"/>
  <path d="m82.78,81.9c-.7,0-1.27.61-1.27,1.37s.57,1.37,1.27,1.37,1.27-.61,1.27-1.37-.57-1.37-1.27-1.37Z"/>
  <path d="m111.75,58.95c-.53-.97-1.74-1.33-2.71-.8l-6.22,3.4h-38.62v-4.4h14.21s0,0,0,0c0,0,0,0,.01,0h14.24s0,0,.01,0h13.78c.81,0,1.53-.48,1.84-1.23.31-.74.15-1.6-.42-2.17L63.62,8.6s0,0,0,0c-.13-.13-.27-.23-.43-.32-.03-.02-.06-.03-.08-.05-.15-.08-.31-.14-.48-.18-.03,0-.05,0-.08-.01-.17-.03-.35-.04-.52-.03,0,0-.01,0-.02,0-.18.02-.35.06-.52.13-.02,0-.04,0-.06.01-.02,0-.03.02-.04.03-.03.02-.07.02-.11.04-.13.06-.24.14-.35.23-.02.01-.03.03-.05.05-.12.11-.23.23-.33.36-.01.02-.03.04-.04.06-.09.14-.16.3-.22.46-.01.03-.02.07-.03.1-.05.17-.08.34-.08.52,0,0,0,.01,0,.02v51.55s-8.22,0-8.22,0v-10.82c0-.64-.3-1.24-.82-1.61l-6.19-4.54c-.61-.44-1.41-.51-2.09-.17-.67.34-1.1,1.03-1.1,1.78v15.35h-3.67V18.4c0-.21-.03-.43-.09-.63-.08-.24-.2-.46-.35-.65-.18-.22-.4-.4-.65-.52-.24-.12-.5-.2-.78-.21-.05,0-.1,0-.15,0H15.45c-.87,0-1.64.56-1.9,1.39-.27.83.03,1.73.74,2.24l8.11,5.79-8.14,6.11c-.69.52-.97,1.42-.7,2.23s1.04,1.37,1.9,1.37h18.66v26.04h-14.63c-.79-4.61-3.32-10.65-9.03-10.65-1.1,0-2,.9-2,2s.9,2,2,2c3,0,4.35,4.04,4.92,6.65h-2.06c-1.1,0-2,.9-2,2s.9,2,2,2h3.2l7.05,13.46c-3.26-.79-7.49-1.2-10.74.58-2.59,1.42-4.15,3.92-4.63,7.42-.79,5.79.91,10.8,4.8,14.09,2.98,2.52,7.01,3.78,10.95,3.55.35.74.44,1.44.23,2.06-.23.67-.79,1.17-1.43,1.27-.58.09-1.12-.17-1.58-.78-.67-.88-1.92-1.06-2.8-.39-.88.67-1.06,1.92-.39,2.8,1.17,1.54,2.78,2.39,4.52,2.39.29,0,.59-.02.88-.07,2.08-.33,3.88-1.88,4.58-3.93.45-1.32.42-2.72-.03-4.11,3.73-1.01,5.87.16,6.1.84.05.16-.36.63-1.37.99-1.04.38-1.57,1.53-1.2,2.56.3.81,1.06,1.32,1.88,1.32.23,0,.46-.04.68-.12,3.58-1.3,4.48-3.97,3.79-6.03-1.01-3-5.39-5.16-11.52-3.26-.16.05-.33.08-.5.12-.33-.63-.55-1.37-.26-2.04.3-.69,1.11-1.2,2.01-1.27.6-.04,1.44.09,2,1,.59.94,1.82,1.22,2.76.63.94-.59,1.22-1.82.63-2.76-1.23-1.96-3.37-3.04-5.69-2.86-2.37.18-4.48,1.61-5.38,3.66-.36.82-.71,2.2-.25,3.92-2.22-.26-4.36-1.12-6.04-2.54-1.98-1.68-4.19-4.87-3.42-10.5.3-2.2,1.15-3.66,2.59-4.45,3.28-1.81,9.1-.05,11.66,1.01.98,1.61,2,3.16,3.07,4.63.06.09.12.18.2.27.27.37.54.75.81,1.11,3.23,4.2,6.55,7.39,10.21,9.73.07.05.15.1.23.15,5.36,3.36,11.44,4.91,19.04,4.99.19,0,.38,0,.57,0,4.07,0,7.77-.51,11.23-1.56.16-.03.32-.07.46-.14,6.42-2.06,12-6.05,17.49-12.35,1.35-1.55,2.62-3.23,3.8-5,.02-.04.05-.08.07-.12,1.03-1.55,1.99-3.16,2.88-4.85l7.6-14.53c.95.76,1.87,1.73,1.98,2.63.03.21.11.83-.96,1.81-.81.75-.87,2.01-.12,2.83.39.43.93.65,1.48.65.48,0,.97-.17,1.35-.53,2.15-1.97,2.39-3.96,2.22-5.28-.15-1.12-.63-2.13-1.27-3h1.25c1.1,0,2-.9,2-2,0-.81-.48-1.5-1.17-1.82l.13-.07c.97-.53,1.33-1.74.8-2.71Zm-17.41-13.29h-5.67l-3.34-4.95,4.11-.05,4.9,5Zm-14.53,7.49l-1.25-3.49h7.99l2.35,3.49h-9.09Zm-2.69-7.49l-1.74-4.84,5.16-.06,3.3,4.9h-6.72Zm-7.65-21.29l3.09,4.58h-1.45l-1.65-4.58Zm5.79,8.58l2.59,3.84-3.91.04-1.39-3.88h2.71Zm-5.55,3.93l-5.53.06v-4s4.12,0,4.12,0l1.41,3.93Zm-5.53,4.06l6.96-.08,1.72,4.79h-8.68v-4.71Zm18.46-4.21l-2.55-3.78h1.79l3.68,3.75-2.92.03Zm-5.25-7.78l-1.27-1.88,1.84,1.88h-.57Zm-10.52,0h-2.68v-7.47s2.68,7.47,2.68,7.47Zm-2.68,20.71h10.12l1.25,3.49h-11.37v-3.49Zm29.53,3.49l-2.35-3.49h6.89l3.42,3.49h-7.96ZM21.7,20.38h8.17l-4.09,2.92-4.09-2.92Zm-.25,11.13l4.33-3.25,4.33,3.25h-8.67Zm7.72-5.71l4.94-3.53v7.24l-4.94-3.71Zm16.61,24.35l2.19,1.61v9.8h-2.19v-11.41Zm32,37.69l4.55,4.95c-2.52,2.27-5.08,4.02-7.79,5.32l3.24-10.26Zm-7.05,9.03l-6.48-9.84,4.68-8.81,5.73,6.23-3.93,12.43Zm8.44-13.43l1.64-5.2,5.24,4.41-1.84,6.27-5.04-5.48Zm11.46-2.16l.77-2.62,1.13,1.17c-.38.7-.77,1.39-1.17,2.06l-.73-.61Zm-3.34-2.81l-2-1.68h2.49l-.49,1.68Zm-11.24,1.58l-3-3.26h4.03l-1.03,3.26Zm-14.3,3.18l-4.24-6.44h7.66l-3.42,6.44Zm-25.09-.34l2.63-4.1,5.15,10-2.53,4.97-5.25-10.87Zm10.04,10.29l3.37,6.55c-1.97-.55-3.81-1.3-5.56-2.25l2.19-4.3Zm2.24-4.4l5.09-10.01,5.59,8.49-5.82,10.96-4.86-9.44Zm-2.26-4.39l-3.91-7.6h7.77l-3.86,7.6Zm-12.06-5.72l-.91-1.88h2.11l-1.21,1.88Zm-7.25-.98l-.47-.89h.78l-.32.89Zm2.6,4.61l.83-2.33,1.28,2.65-.96,1.49c-.39-.59-.77-1.2-1.15-1.81Zm2.68-11.99l-1.16-.94,1.16-.94,1.16.94-1.16.94Zm-1.24-4.74l-2.29,1.87-.92-.74c-.65-.52-1.59-.42-2.11.23-.52.65-.42,1.59.23,2.11l.27.22-.16.11c-.69.46-.88,1.39-.42,2.08.29.43.76.67,1.25.67.29,0,.57-.08.83-.25l.94-.63,1.93,1.57h-6.15l-3.78-7.23h10.39Zm2.24,22.13s-.03-.04-.04-.05l.51-.8,1.66,3.43c-.71-.81-1.42-1.66-2.13-2.58Zm26.35,13.31c-1.07-.01-2.09-.07-3.09-.14l5.2-9.8,6.05,9.19c-2.54.54-5.23.78-8.17.74Zm36.24-28.21h-61.89l1.82-1.49.96.79c.28.23.62.34.95.34.43,0,.86-.19,1.16-.55.53-.64.43-1.58-.21-2.11l-.52-.43.4-.32c.64-.52.75-1.46.23-2.11-.52-.64-1.46-.75-2.11-.23l-.88.71-2.26-1.84h66.12l-3.78,7.23Z"/>
  <path d="m47.44,39.27c.38.41.91.64,1.46.64s1.09-.23,1.47-.64l3.29-3.54c.71-.77.71-1.96,0-2.72l-3.29-3.54c-.38-.41-.91-.64-1.47-.64s-1.09.23-1.46.64l-3.29,3.54c-.71.77-.71,1.96,0,2.72l3.29,3.54Zm1.46-5.51l.56.61-.56.61-.56-.61.56-.61Z"/>
</svg>