<?xml version="1.0" encoding="UTF-8"?>
<svg id="icons" xmlns="http://www.w3.org/2000/svg" viewBox="0 0 120 120">
  <path d="m11.4,59.83c0,1.04.79,1.88,1.81,1.98-.67.79-.64,1.98.12,2.72.39.38.89.57,1.4.57.43,0,.86-.15,1.22-.43.11,1,.95,1.78,1.98,1.78s1.87-.78,1.98-1.78c.36.28.79.43,1.22.43.5,0,1.01-.19,1.4-.57.76-.74.79-1.92.12-2.72,1.01-.1,1.81-.94,1.81-1.98s-.79-1.88-1.81-1.98c.67-.79.64-1.98-.12-2.72-.72-.71-1.84-.75-2.62-.14-.11-1-.95-1.78-1.98-1.78s-1.87.78-1.98,1.78c-.78-.6-1.9-.56-2.62.14-.76.74-.79,1.92-.12,2.72-1.01.1-1.81.94-1.81,1.98Z"/>
  <path d="m109.51,59.83c0-1.04-.79-1.88-1.81-1.98.67-.79.64-1.98-.12-2.72-.72-.71-1.84-.75-2.62-.14-.11-1-.95-1.78-1.98-1.78s-1.87.78-1.98,1.78c-.78-.6-1.9-.56-2.62.14-.76.74-.79,1.92-.12,2.72-1.01.1-1.81.94-1.81,1.98s.79,1.88,1.81,1.98c-.67.79-.64,1.98.12,2.72.39.38.89.57,1.4.57.43,0,.86-.15,1.22-.43.11,1,.95,1.78,1.98,1.78s1.87-.78,1.98-1.78c.36.28.79.43,1.22.43.5,0,1.01-.19,1.4-.57.76-.74.79-1.92.12-2.72,1.01-.1,1.81-.94,1.81-1.98Z"/>
  <path d="m75.63,96.59c0,1.04.79,1.88,1.81,1.98-.67.79-.64,1.98.12,2.72.39.38.89.57,1.4.57.43,0,.86-.15,1.22-.43.11,1,.95,1.78,1.98,1.78s1.87-.78,1.98-1.78c.36.28.79.43,1.22.43.5,0,1.01-.19,1.4-.57.76-.74.79-1.92.12-2.72,1.01-.1,1.81-.94,1.81-1.98s-.79-1.88-1.81-1.98c.67-.79.64-1.98-.12-2.72-.72-.71-1.84-.75-2.62-.14-.11-1-.95-1.78-1.98-1.78s-1.87.78-1.98,1.78c-.78-.6-1.9-.56-2.62.14-.76.74-.79,1.92-.12,2.72-1.01.1-1.81.94-1.81,1.98Z"/>
  <path d="m30.35,96.59c0,1.04.79,1.88,1.81,1.98-.67.79-.64,1.98.12,2.72.39.38.89.57,1.4.57.43,0,.86-.15,1.22-.43.11,1,.95,1.78,1.98,1.78s1.87-.78,1.98-1.78c.36.28.79.43,1.22.43.5,0,1.01-.19,1.4-.57.76-.74.79-1.92.12-2.72,1.01-.1,1.81-.94,1.81-1.98s-.79-1.88-1.81-1.98c.67-.79.64-1.98-.12-2.72-.72-.71-1.84-.75-2.62-.14-.11-1-.95-1.78-1.98-1.78s-1.87.78-1.98,1.78c-.78-.6-1.9-.56-2.62.14-.76.74-.79,1.92-.12,2.72-1.01.1-1.81.94-1.81,1.98Z"/>
  <path d="m43.4,24.86c0-1.04-.79-1.88-1.81-1.98.67-.79.64-1.98-.12-2.72-.72-.71-1.84-.75-2.62-.14-.11-1-.95-1.78-1.98-1.78s-1.87.78-1.98,1.78c-.78-.6-1.9-.56-2.62.14-.76.74-.79,1.92-.12,2.72-1.01.1-1.81.94-1.81,1.98s.79,1.88,1.81,1.98c-.67.79-.64,1.98.12,2.72.39.38.89.57,1.4.57.43,0,.86-.15,1.22-.43.11,1,.95,1.78,1.98,1.78s1.87-.78,1.98-1.78c.36.28.79.43,1.22.43.5,0,1.01-.19,1.4-.57.76-.74.79-1.92.12-2.72,1.01-.1,1.81-.94,1.81-1.98Z"/>
  <path d="m88.67,24.86c0-1.04-.79-1.88-1.81-1.98.67-.79.64-1.98-.12-2.72-.72-.71-1.84-.75-2.62-.14-.11-1-.95-1.78-1.98-1.78s-1.87.78-1.98,1.78c-.78-.6-1.9-.56-2.62.14-.76.74-.79,1.92-.12,2.72-1.01.1-1.81.94-1.81,1.98s.79,1.88,1.81,1.98c-.67.79-.64,1.98.12,2.72.39.38.89.57,1.4.57.43,0,.86-.15,1.22-.43.11,1,.95,1.78,1.98,1.78s1.87-.78,1.98-1.78c.36.28.79.43,1.22.43.5,0,1.01-.19,1.4-.57.76-.74.79-1.92.12-2.72,1.01-.1,1.81-.94,1.81-1.98Z"/>
  <path d="m99.95,107.66c-.66-.11-1.19-.68-1.46-1.56-.33-1.06-1.45-1.65-2.5-1.32-1.06.33-1.65,1.44-1.32,2.5.72,2.33,2.44,3.95,4.6,4.32.31.05.62.08.92.08,1.67,0,3.26-.79,4.29-2.17.46-.61.77-1.31.97-2.07.09.03.17.07.26.09.34.1.76.17,1.22.17.8,0,1.74-.22,2.73-.92,3.56-2.52,2.29-7.12,1.12-9.2-.54-.96-1.75-1.3-2.71-.77-.96.53-1.31,1.75-.78,2.71.02.03,1.55,2.93.06,3.99-.32.23-.45.19-.53.17-.65-.19-1.51-1.35-2.05-2.37l-.2-.39c-.04-.09-.08-.17-.12-.25-.01-.03-.03-.06-.05-.09-.03-.06-.05-.11-.08-.17-.03-.05-.06-.1-.09-.15l-20.28-40.26,20.05-40.69c1.09-2.08,2.08-2.67,2.46-2.67h0c.25,0,.49.29.63.56.38.73.41,1.93-.35,2.99-.65.89-.45,2.14.45,2.79.35.26.76.38,1.17.38.62,0,1.23-.29,1.62-.83,1.55-2.14,1.81-4.95.67-7.17-.89-1.72-2.43-2.73-4.22-2.72-.53,0-1.13.1-1.77.37-.31-1.52-1.06-2.97-2.53-4-1.55-1.09-2.96-1.02-3.87-.76-2.58.73-3.96,3.65-4.2,4.22-.44,1.01.03,2.19,1.05,2.63,1.02.44,2.19-.03,2.63-1.05.3-.7,1.08-1.8,1.61-1.96.04,0,.16-.05.48.18,1.9,1.34.58,5.17.44,5.56,0,.01-.01.03-.02.04-.02.04-.03.08-.04.11l-18.49,37.54-19.6-38.91c.21-1.33.89-3.94,2.31-3.94s2.17,2.86,2.28,3.62c.15,1.09,1.16,1.86,2.26,1.7,1.09-.15,1.86-1.16,1.7-2.26-.37-2.63-2.09-7.07-6.25-7.07-1.96,0-3.36.96-4.35,2.29-1-1.38-2.45-2.39-4.48-2.39-4.15,0-5.88,4.45-6.25,7.07-.15,1.09.61,2.1,1.7,2.26,1.08.16,2.1-.61,2.26-1.7.1-.72.82-3.62,2.28-3.62s2.15,2.53,2.36,3.83l-11.3,22.44h0s-8.35,16.58-8.35,16.58L19.8,17.9s-.03-.08-.04-.12c-.04-.08-.08-.14-.11-.22,0-.02-.01-.03-.02-.05-.02-.04-2.21-4.09-.45-5.33.31-.22.43-.19.47-.18.49.14,1.26,1.15,1.62,1.96.44,1.01,1.61,1.48,2.63,1.05,1.01-.44,1.48-1.61,1.05-2.63-.25-.58-1.62-3.5-4.2-4.22-.91-.26-2.32-.33-3.87.76-1.41,1-2.08,2.33-2.3,3.75-.36-.08-.69-.12-1-.12-.01,0-.03,0-.04,0-1.74,0-3.3,1.02-4.18,2.73-1.14,2.21-.88,5.03.67,7.17.39.54,1,.83,1.62.83.41,0,.82-.12,1.17-.38.89-.65,1.09-1.9.45-2.79-.76-1.06-.73-2.26-.35-2.99.14-.27.38-.56.63-.56h0c.37,0,1.29.55,2.33,2.43.01.02.02.04.04.07.03.05.06.11.09.16l20.05,40.7-20.28,40.26s-.07.09-.09.15c-.04.07-.06.14-.1.22,0,.02-.02.03-.02.04-.03.08-.08.17-.12.25l-.2.39c-.54,1.01-1.4,2.18-2.05,2.37-.08.02-.21.06-.53-.17-1.49-1.06.04-3.96.05-3.98.54-.96.2-2.18-.77-2.72s-2.18-.2-2.72.77c-1.17,2.08-2.44,6.68,1.12,9.2.99.7,1.93.92,2.73.92.46,0,.88-.08,1.22-.17.03,0,.05-.02.08-.03.24,1.08.67,1.83.98,2.25.91,1.22,2.31,1.92,3.77,1.92.26,0,.53-.02.79-.07,2.04-.35,3.69-1.97,4.42-4.33.33-1.06-.27-2.17-1.32-2.5-1.06-.33-2.18.27-2.5,1.32-.32,1.05-.87,1.5-1.28,1.57-.26.05-.49-.06-.67-.3-.49-.66-.62-2.33.56-4.86l19.14-38,19.71,40.01c-.15,1.69-.68,2.9-1.48,3.31-.7.36-1.51.08-2.03-.29-.39-.28-1.28-1.11-1.05-2.6.17-1.09-.58-2.11-1.67-2.28-1.08-.16-2.11.58-2.28,1.67-.39,2.51.64,4.98,2.67,6.45,1.11.8,2.39,1.21,3.65,1.21.88,0,1.75-.2,2.54-.61.48-.25,1.07-.65,1.65-1.28.6.7,1.23,1.13,1.74,1.39.79.41,1.66.61,2.54.61,1.26,0,2.54-.41,3.65-1.21,2.03-1.46,3.05-3.94,2.67-6.45-.17-1.09-1.2-1.84-2.28-1.67-1.09.17-1.84,1.19-1.67,2.28.23,1.5-.66,2.32-1.06,2.6-.52.38-1.33.65-2.03.29-.8-.41-1.33-1.62-1.48-3.31l19.71-40.01,19.15,38.02c.91,1.98,1.06,3.68.38,4.59-.32.43-.81.63-1.33.54Zm-20.55-47.44l-17.39-10.07v-4.64l14.59,8.8s.01,0,.02,0l2.88,5.72-.09.18Zm-3.23,6.56l-14.16-8.19v-3.81l15.62,9.04-1.46,2.96Zm-3.09,6.28l-11.06-6.74v-3.11l12.39,7.17-1.32,2.68Zm-3.51,7.12l-7.56-4.6v-4.57l9.29,5.66-1.73,3.52Zm-2.96,6.02l-4.59-2.8v-3.14l5.78,3.52-1.19,2.41Zm-11.43,3.5l2.82-1.72v7.43l-2.82-5.72Zm-6.47-13.14l9.29-5.66v4.57l-7.56,4.6-1.73-3.52Zm-6.33-12.85l15.62-9.04v3.81l-14.16,8.19-1.46-2.96Zm19.64-27.09l8.03,4.65,3.2,6.35-11.22-6.77v-4.22Zm0-4.62v-6.67l4.74,9.42-4.74-2.75Zm-4.02-.1l-4.74,2.74,4.74-9.42v6.67Zm-8.03,9.27l8.03-4.65v4.2l-11.02,6.38,2.99-5.93Zm-4.36,29.11l12.39-7.17v3.11l-11.06,6.74-1.32-2.68Zm6.6,13.41l5.78-3.52v3.14l-4.59,2.8-1.19-2.41Zm9.81,4.41l2.82,1.72-2.82,5.72v-7.44Zm-18.33-34.46l14.3-8.29v4.71l-17.39,10.07-.09-.18,3.18-6.31Z"/>
</svg>