<?xml version="1.0" encoding="UTF-8"?>
<svg id="icons" xmlns="http://www.w3.org/2000/svg" viewBox="0 0 120 120">
  <path d="m60,8C31.33,8,8,31.33,8,60s23.33,52,52,52,52-23.33,52-52S88.67,8,60,8Zm0,100c-26.47,0-48-21.53-48-48S33.53,12,60,12s48,21.53,48,48-21.53,48-48,48Z"/>
  <path d="m84.76,40.29c-2.33-2.59-5.81-3.9-10.35-3.9-5.9,0-9.88,5.16-12.44,10.62v-16.53h9.63c1.1,0,2-.9,2-2v-8.58c0-1.1-.9-2-2-2s-2,.9-2,2v6.58h-7.63v-6.58c0-1.1-.9-2-2-2s-2,.9-2,2v6.58h-7.63v-6.58c0-1.1-.9-2-2-2s-2,.9-2,2v8.58c0,1.1.9,2,2,2h9.63v15.76c-2.57-5.17-6.45-9.86-12.07-9.86-4.53,0-8.01,1.31-10.35,3.9-2.06,2.28-2.7,5.03-2.88,6.9h-8.45c-1.1,0-2,.9-2,2v8.99c0,1.1.9,2,2,2s2-.9,2-2v-6.99h6.4v7.32c0,1.1.9,2,2,2s2-.9,2-2v-7.32h6.4v7.32c0,1.1.9,2,2,2s2-.9,2-2v-9.32c0-1.1-.9-2-2-2h-8.33c.17-1.24.62-2.89,1.83-4.23,1.54-1.71,4.02-2.58,7.37-2.58,6.64,0,10.62,11.58,12.07,17.97v1.64s0,.02,0,.03c0,.07.01.15.02.22,0,.06.01.12.02.18.01.07.04.13.06.19.02.06.04.12.06.18.03.06.06.11.09.17.03.06.06.12.1.17.04.05.08.1.12.15.04.05.08.1.12.14.05.05.1.08.15.13.05.04.09.08.15.12.05.03.11.06.16.09.06.03.12.07.19.09.05.02.11.03.16.05.07.02.15.05.23.06,0,0,.02,0,.03,0,.11.02.22.03.33.03,0,0,0,0,.01,0,0,0,0,0,0,0,0,0,0,0,0,0,.06,0,.12-.01.18-.02.06,0,.12.02.18.02.11,0,.23,0,.34-.03,1.09-.19,1.82-1.22,1.63-2.31-.01-.08-.05-.3-.12-.63,1.31-6.22,5.34-18.65,12.21-18.65,3.33,0,5.81.86,7.35,2.56,1.22,1.34,1.68,3.01,1.85,4.25h-8.31c-1.1,0-2,.9-2,2v8.99c0,1.1.9,2,2,2s2-.9,2-2v-6.99h6.4v7.32c0,1.1.9,2,2,2s2-.9,2-2v-7.32h6.4v7.32c0,1.1.9,2,2,2s2-.9,2-2v-9.32c0-1.1-.9-2-2-2h-8.47c-.18-1.88-.82-4.62-2.88-6.9Z"/>
  <path d="m89.69,79.52h-8.4v-12.54c0-1.1-.9-2-2-2h-38.33c-1.1,0-2,.9-2,2v12.54h-8.4c-1.1,0-2,.9-2,2v8.99c0,1.1.9,2,2,2s2-.9,2-2v-6.99h6.4v7.32c0,1.1.9,2,2,2s2-.9,2-2v-7.32h6.4v7.32c0,1.1.9,2,2,2s2-.9,2-2v-9.32c0-1.1-.9-2-2-2h-8.4v-10.54h15.01v24.09c-2.7.7-4.69,3.15-4.69,6.06,0,3.46,2.81,6.27,6.27,6.27s6.27-2.81,6.27-6.27c0-2.6-1.59-4.83-3.84-5.78v-24.37h15.32v10.54h-8.4c-1.1,0-2,.9-2,2v8.99c0,1.1.9,2,2,2s2-.9,2-2v-6.99h6.4v7.32c0,1.1.9,2,2,2s2-.9,2-2v-7.32h6.4v7.32c0,1.1.9,2,2,2s2-.9,2-2v-9.32c0-1.1-.9-2-2-2Zm-30.15,21.88c-1.25,0-2.27-1.02-2.27-2.27s1.02-2.27,2.27-2.27,2.27,1.02,2.27,2.27-1.02,2.27-2.27,2.27Z"/>
</svg>