<?xml version="1.0" encoding="UTF-8"?>
<svg id="icons" xmlns="http://www.w3.org/2000/svg" viewBox="0 0 120 120">
  <path d="m42.48,37.62l1.32.68.71,1.21c.36.61,1.01.99,1.72.99h0c.71,0,1.36-.37,1.72-.98l.72-1.22,1.32-.68c.67-.34,1.08-1.03,1.08-1.78s-.42-1.43-1.09-1.78l-1.31-.67-.72-1.22c-.36-.61-1.02-.98-1.72-.98h0c-.71,0-1.37.38-1.72.99l-.7,1.21-1.31.67c-.67.34-1.09,1.03-1.09,1.78,0,.75.42,1.44,1.08,1.78Z"/>
  <path d="m34.98,49.89l.71,1.21c.36.61,1.01.99,1.72.99h0c.71,0,1.36-.37,1.72-.98l.72-1.21,1.32-.68c.67-.34,1.08-1.03,1.08-1.78s-.42-1.43-1.09-1.78l-1.31-.67-.72-1.22c-.36-.61-1.02-.99-1.73-.99-.71,0-1.37.38-1.72.99l-.7,1.21-1.31.67c-.67.34-1.09,1.03-1.09,1.78,0,.75.42,1.44,1.08,1.78l1.32.68Z"/>
  <path d="m34.98,74.9l.7,1.21c.36.61,1.01.99,1.72.99h0c.71,0,1.36-.38,1.72-.99l.72-1.22,1.31-.67c.67-.34,1.09-1.03,1.09-1.78s-.42-1.44-1.08-1.78l-1.31-.68-.72-1.22c-.36-.61-1.01-.99-1.72-.99h0c-.71,0-1.37.38-1.72.99l-.71,1.21-1.32.68c-.67.34-1.09,1.03-1.08,1.78,0,.75.42,1.44,1.09,1.78l1.31.67Z"/>
  <path d="m11.68,63.89c1.3,0,2.45-.68,3.11-1.7h.08l4.04,5.24c.38.5.97.78,1.57.78-.29.43-.41.98-.3,1.53.45,2.08,2.19,3.49,4.2,3.49.22,0,.44-.02.66-.05,2.09-.32,4.18-2.32,3.86-5.95l-.15-5.03h.81c.06.57.34,1.09.81,1.42.53.38,1.2.47,1.81.26l1.22-.42-.25.94c-.16.6-.04,1.24.34,1.74.38.49.96.78,1.59.78h3.65c.64,0,1.23-.3,1.61-.81.38-.51.49-1.17.3-1.78l-.28-.91,1.44.47c.2.07.41.1.62.1.42,0,.83-.13,1.17-.38.46-.33.74-.85.8-1.41h.69c-.44.32-.76.81-.83,1.4-.05.43-.21,2.65,1.35,3.86.66.51,1.45.77,2.25.77.35,0,.71-.07,1.05-.17l-21.6,20.72c-1.09-.51-2.31-.79-3.54-.79-2.05,0-3.85.74-5.01,2.04l-2.37,2.45c-.77.79-.75,2.06.04,2.83.79.77,2.06.75,2.83-.04l2.42-2.5c.44-.49,1.2-.77,2.09-.77.06,0,.12.01.18.01l-5.45,5.23c-.8.76-.82,2.03-.06,2.83.39.41.92.62,1.44.62.5,0,1-.18,1.38-.56l6-5.76c.02.09.04.18.05.27.06.67-.17,1.33-.64,1.85l-2.37,2.63c-.74.82-.67,2.08.15,2.82.38.34.86.51,1.34.51.55,0,1.09-.22,1.49-.66l2.37-2.63c1.21-1.35,1.8-3.07,1.65-4.85-.09-1.04-.42-2.02-.96-2.89l26.4-25.32-.89,3.58c-1.43.04-2.71.85-3.35,2.15-.63,1.29-.49,2.79.38,3.91.92,1.19,2.43,1.38,3.29,1.38.26,0,.45-.02.56-.03-.29.47-.38,1.04-.24,1.58l.25.92-1.17-.41c-.61-.21-1.29-.12-1.81.26-.53.38-.84.98-.84,1.63v3.87c0,.65.31,1.25.84,1.63.53.38,1.2.47,1.81.26l1.2-.42-.25.94c-.16.6-.04,1.24.34,1.74.36.47.91.74,1.49.77v.7c-2.06.8-3.52,2.8-3.52,5.14v4.28c0,2.34,1.46,4.34,3.52,5.14v.23c-1.04.64-1.73,1.76-1.73,3.04,0,2,1.68,3.63,3.74,3.63s3.75-1.63,3.75-3.63c0-1.29-.71-2.41-1.76-3.06v-.22c2.06-.8,3.52-2.8,3.52-5.14v-4.28c0-1.47-.57-2.86-1.61-3.89-.54-.55-1.2-.96-1.91-1.24v-.72c.54-.07,1.03-.34,1.36-.78.38-.51.49-1.17.3-1.78l-.28-.91,1.44.47c.2.07.41.1.62.1.42,0,.83-.13,1.17-.38.52-.38.83-.98.83-1.62v-3.87c0-.64-.31-1.24-.82-1.62-.52-.38-1.18-.48-1.79-.29l-1.43.46.28-.91c.16-.54.08-1.12-.21-1.6.73.04,2.55-.01,3.59-1.36.88-1.12,1.03-2.62.4-3.91-.57-1.16-1.65-1.94-2.89-2.12l-.9-3.59,26.35,25.33c-.55.87-.88,1.85-.97,2.9-.15,1.78.44,3.51,1.66,4.86l2.37,2.63c.4.44.94.66,1.49.66.48,0,.96-.17,1.34-.51.82-.74.89-2,.15-2.83l-2.37-2.63c-.47-.52-.7-1.18-.64-1.85,0-.1.03-.19.05-.28l6,5.77c.39.37.89.56,1.39.56.52,0,1.05-.21,1.44-.61.77-.8.74-2.06-.05-2.83l-5.71-5.49c.19-.03.37-.06.56-.06.91,0,1.74.34,2.28.94l2.37,2.63c.74.82,2,.89,2.83.15.82-.74.89-2,.15-2.83l-2.36-2.62c-1.29-1.44-3.2-2.26-5.25-2.26-1.3,0-2.58.35-3.74,1l-21.53-20.7c.37.12.75.2,1.12.2.8,0,1.59-.26,2.25-.77,1.45-1.12,1.41-3.1,1.36-3.72.49.27,1.07.34,1.61.15l1.21-.42-.25.94c-.16.6-.04,1.24.34,1.74.38.49.96.78,1.59.78h3.65c.64,0,1.23-.3,1.61-.81.38-.51.49-1.17.3-1.78l-.28-.91,1.44.47c.2.07.41.1.62.1.34,0,.66-.11.96-.27-.67.8-1.14,1.8-1.24,3.06-.1,1.33.36,2.59,1.29,3.62-.4,1.23-.58,2.84-.1,4.88.22.92,1.04,1.54,1.94,1.54.15,0,.31-.02.46-.05,1.08-.25,1.74-1.33,1.49-2.41-.15-.65-.2-1.25-.16-1.8.95.29,1.93.45,2.86.45,1.06,0,2.04-.2,2.8-.6,1.08-.58,1.7-1.57,1.7-2.72,0-1.46-.69-2.68-1.85-3.41.17.04.34.07.51.07.43,0,.87-.14,1.23-.42.11-.08,2.35-1.83,4-3.74h.78c.68,1.02,1.86,1.7,3.2,1.7,2.11,0,3.83-1.66,3.83-3.7s-1.72-3.71-3.83-3.71c-.84,0-1.62.28-2.25.73-.12-.46-.31-.89-.57-1.29.97-1.01,1.65-2.14,2.06-3.36,2.34-.5,3.98-2.1,4.38-4.45.19-1.09-.54-2.12-1.63-2.31-1.09-.19-2.12.54-2.31,1.63-.02.12-.06.3-.15.49-.55-2.93-3.12-4.71-5.34-4.67-2.11,0-3.71,1.45-4.07,3.67-.18,1.07.16,2.17.95,3.11.87,1.02,2.29,1.85,3.87,2.31-.33.51-.77.98-1.32,1.44-1.07-.09-2.14.16-3.01.7-.75-.46-1.63-.73-2.55-.73-2.56,0-4.65,1.98-4.71,4.44h-1.22v-.07c0-.64-.3-1.24-.82-1.62-.51-.38-1.18-.48-1.79-.29l-1.44.46.28-.92c.18-.61.07-1.26-.31-1.77-.38-.51-.97-.81-1.61-.81h-3.69c-.62,0-1.21.29-1.59.79-.38.5-.5,1.14-.33,1.75l.26.93-1.18-.41c-.53-.18-1.11-.12-1.6.15.03-.8-.09-2.47-1.37-3.46-1.09-.84-2.52-1-3.79-.43l21.96-21.1c1.1.62,2.35.95,3.65.95,2.02,0,3.9-.8,5.16-2.21l2.37-2.63c.74-.82.67-2.09-.15-2.82-.82-.74-2.08-.67-2.83.15l-2.37,2.63c-.5.55-1.32.88-2.19.88-.15,0-.29-.02-.43-.04l5.69-5.46c.8-.77.82-2.03.06-2.83-.77-.8-2.03-.82-2.83-.06l-6,5.77c-.02-.09-.04-.17-.05-.27-.06-.68.17-1.34.64-1.86l2.37-2.62c.74-.82.68-2.08-.14-2.82-.82-.74-2.09-.68-2.83.14l-2.37,2.62c-1.21,1.35-1.8,3.08-1.65,4.87.09,1.04.42,2.02.96,2.88l-26.38,25.34.92-3.69c1.24-.19,2.31-.96,2.87-2.11.63-1.29.48-2.79-.38-3.91-.95-1.24-2.52-1.39-3.36-1.38.11-.38.13-.78,0-1.17l-.28-.91,1.43.46c.2.07.41.1.62.1.42,0,.83-.13,1.18-.38.52-.38.82-.98.82-1.62v-3.86c0-.64-.3-1.24-.82-1.62-.52-.38-1.18-.48-1.79-.29l-1.42.46.27-.91c.18-.61.07-1.26-.31-1.77-.34-.45-.85-.73-1.4-.78v-5.03l3.64,1.05s.07.02.11.03c.18.04,1.13.25,1.77.31.21.02.41.02.6.02,1.95,0,3.38-.78,4.26-2.34.54-.96.21-2.18-.75-2.73-.96-.54-2.18-.21-2.73.75-.11.19-.21.36-1.06.3-.25-.02-.81-.13-1.15-.21l-4.69-1.35v-1.24c1.92.61,3.79.78,4.75.83.03,0,.07,0,.1,0,.02,0,.04,0,.06,0l.63-.02c2.44,0,4.42-1.76,4.6-4.1.14-1.88-1.07-4.12-4.08-4.58-1.08-.17-2.11.58-2.28,1.67-.17,1.09.58,2.11,1.67,2.28.39.06.71.21.7.32,0,0-.04.41-.68.41l-.61.02c-1.52-.08-3.44-.43-4.87-1.12v-1.14c1.07-.65,1.79-1.79,1.79-3.1,0-2.02-1.7-3.66-3.78-3.66s-3.77,1.64-3.77,3.66c0,1.32.7,2.45,1.76,3.09v1.11c-1.43.73-3.41,1.08-4.97,1.17l-.68-.02c-.57,0-.61-.4-.61-.41,0-.12.31-.26.7-.32,1.09-.17,1.84-1.19,1.67-2.28-.17-1.09-1.2-1.84-2.28-1.67-3.01.46-4.22,2.7-4.08,4.58.18,2.34,2.16,4.1,4.54,4.1h0l.7.02s.04,0,.06,0c.03,0,.06,0,.1,0,.98-.05,2.9-.23,4.85-.86v1.34c-2.98.96-4.65,1.49-4.89,1.55-.62.14-.93.05-1,0-.02-.02-.07-.1-.09-.26-.18-1.09-1.19-1.83-2.3-1.65-1.09.18-1.83,1.21-1.65,2.3.21,1.26.83,2.27,1.8,2.93.56.38,1.42.75,2.63.75.46,0,.96-.05,1.52-.18.25-.06,1.06-.31,3.97-1.24v4.91c-.58.03-1.13.31-1.48.78-.38.5-.5,1.14-.33,1.75l.25.92-1.19-.41c-.61-.21-1.29-.11-1.81.26-.53.38-.84.98-.84,1.63v3.86c0,.65.31,1.25.84,1.63.53.38,1.2.47,1.81.26l1.22-.42-.26.95c-.1.37-.08.75.03,1.11-.63-.05-2.6-.08-3.71,1.36-.87,1.12-1.01,2.62-.38,3.91.64,1.29,1.9,2.1,3.32,2.15l.91,3.66-26.26-25.21c.57-.89.92-1.91,1.01-2.99.15-1.82-.45-3.57-1.69-4.95l-2.44-2.71c-.74-.82-2-.89-2.82-.15-.82.74-.89,2-.15,2.82l2.44,2.71c.49.54.73,1.23.67,1.94-.01.13-.04.26-.07.39l-6.25-6c-.8-.77-2.06-.74-2.83.06-.77.8-.74,2.06.06,2.83l5.76,5.53c-.92.06-1.83-.22-2.59-.85l-2.64-2.42c-.81-.75-2.08-.69-2.83.12-.75.81-.69,2.08.12,2.83l2.71,2.49c1.48,1.24,3.2,1.89,4.98,1.89,1.22,0,2.42-.31,3.54-.88l21.9,21.02c-1.25-.55-2.68-.39-3.75.45-1.56,1.21-1.4,3.42-1.35,3.86.07.6.4,1.1.87,1.41h-.7v-.07c0-.64-.3-1.24-.82-1.62-.51-.38-1.18-.48-1.79-.29l-1.44.46.28-.92c.18-.61.07-1.26-.31-1.77-.38-.51-.97-.81-1.61-.81h-3.69c-.62,0-1.21.29-1.59.79-.38.5-.5,1.14-.33,1.75l.26.93-1.19-.41c-.61-.21-1.28-.11-1.81.26-.53.38-.84.98-.84,1.63v.07h-.88l-.15-4.65s0-.08,0-.12c-.09-1.04.18-1.65.48-1.69.12-.02.28.02.34.32.23,1.08,1.29,1.77,2.38,1.54,1.08-.23,1.77-1.29,1.54-2.37-.49-2.3-2.58-3.78-4.85-3.43-2.08.32-4.18,2.31-3.87,5.95l.15,4.47h-2.13v-3.74c0-.85-.53-1.6-1.33-1.88-.79-.28-1.69-.04-2.22.62l-4.08,5h-.11c-.66-1.02-1.8-1.71-3.11-1.71-2.05,0-3.72,1.66-3.72,3.71s1.67,3.7,3.72,3.7Zm78.65-1.7h.89c-.39.21-.76.45-1.1.72.12-.22.18-.47.21-.72Zm7.05,3.58c-1.72-.5-3.66-.08-5.24.98.54-1.67,4.03-1.78,4.1-1.78.07,0,.14-.01.22-.02.58.46,1.06.79,1.29.95-.12-.05-.23-.1-.36-.13Zm4.94-18.34c.03-.1.05-.15.05-.16.06,0,.29-.01.61.18.17.1.55.38.75.88-.71-.28-1.23-.65-1.41-.89Zm-6.04,10.33c.35,0,.62.2.69.4.3.76,1.04,1.27,1.86,1.27h0c.82,0,1.56-.5,1.86-1.27.1-.25.52-.47.98-.35.01,0,.03,0,.04.01.24.1.4.29.4.49v.04c-.12.2-.27.43-.44.65-.75,1.01-1.89,2.08-2.75,2.82-.99-.77-2.24-1.85-2.94-2.8-.36-.49-.42-.73-.43-.73,0,0,0,0,0,0,0-.26.3-.54.72-.54Zm-48.87,4.43h.26v.22c-.08-.08-.17-.16-.26-.22Zm10.51,11.48h.45s0,.67,0,.67c-.1-.25-.25-.48-.45-.67Zm4.45,0v-.02h.02s-.01.01-.02.02Zm0-27.3v-.06s.04.04.06.06h-.06Zm-4-.67v.71h-.51c.22-.19.39-.43.51-.71Zm0,30.12v.29c-.05,0-.1.01-.15.02.06-.1.11-.2.15-.31Zm-6.71-10.98l.87-.25-1.03.99c.08-.24.14-.49.17-.74Zm9.79,29.75c.2.2.45.56.45,1.08v4.28c0,.84-.68,1.52-1.52,1.52s-1.52-.68-1.52-1.52v-4.28c0-.84.68-1.52,1.52-1.52.4,0,.79.16,1.08.45Zm-1.06,14.15c-.11,0-.25-.17-.25-.38,0-.13.06-.24.13-.3.04,0,.07.01.11.01.05,0,.09-.01.14-.01.07.07.13.18.13.31,0,.2-.12.38-.26.38Zm7.84-44.16l.91.26c.03.27.1.54.19.79l-1.1-1.05Zm4.88-2.14v-.26h.3c-.11.08-.21.16-.3.26Zm.3-4.26h-.3v-.25c.09.09.19.18.3.25Zm-4.27-2.54l-1.47.43,1.84-1.77c-.2.42-.33.87-.37,1.34Zm-8.73-44.32s0,0,0,0c0,0,0,0,0,0s0,0,0,0Zm-7.27,44.75l-1.46-.42c-.04-.46-.16-.91-.35-1.32l1.81,1.74Zm-5.45,1.86v.26h-.3c.11-.08.21-.16.3-.26Zm-23.22,11.29c-.12.02-.28-.02-.34-.32-.2-.94-1.04-1.58-1.95-1.58.21-.32.34-.69.35-1.09l.03-4.04h2.24l.16,5.21s0,.08,0,.12c.1,1.04-.18,1.65-.48,1.69Zm-12.94-9.26c0,.08-.02.15-.02.23s.01.15.02.22c-.07-.05-.12-.13-.12-.22,0-.1.05-.17.12-.23Z"/>
  <path d="m72.09,33.39l-1.31.67c-.67.34-1.09,1.03-1.09,1.78s.42,1.44,1.08,1.78l1.31.68.72,1.22c.36.61,1.02.99,1.72.99h0c.71,0,1.37-.38,1.72-.99l.71-1.21,1.32-.68c.67-.34,1.09-1.03,1.08-1.78,0-.75-.42-1.44-1.09-1.78l-1.31-.67-.7-1.21c-.36-.61-1.01-.99-1.72-.99h0c-.71,0-1.36.38-1.72.99l-.72,1.22Z"/>
  <path d="m41.52,85.49l1.31.67.72,1.22c.36.61,1.02.99,1.72.99h0c.71,0,1.37-.38,1.72-.99l.7-1.21,1.31-.67c.67-.34,1.09-1.03,1.09-1.78,0-.75-.42-1.44-1.08-1.78l-1.32-.68-.71-1.21c-.36-.61-1.01-.99-1.72-.99-.74-.03-1.37.37-1.73.99l-.72,1.22-1.31.68c-.67.34-1.08,1.03-1.08,1.78s.42,1.43,1.09,1.78Z"/>
  <path d="m72.09,86.16l.72,1.22c.36.61,1.02.99,1.72.99h0c.71,0,1.37-.38,1.72-.99l.7-1.21,1.31-.67c.67-.34,1.09-1.03,1.09-1.78,0-.75-.42-1.44-1.08-1.78l-1.32-.68-.71-1.21c-.36-.61-1.01-.99-1.72-.99h0c-.71,0-1.36.38-1.72.99l-.72,1.22-1.31.68c-.67.34-1.08,1.03-1.08,1.78s.42,1.43,1.09,1.78l1.31.67Z"/>
</svg>