<?xml version="1.0" encoding="UTF-8"?>
<svg id="icons" xmlns="http://www.w3.org/2000/svg" viewBox="0 0 120 120">
  <defs>
    <style>
      .cls-1 {
        fill: none;
        stroke: #000;
        stroke-linecap: round;
        stroke-linejoin: round;
        stroke-width: 4px;
      }
    </style>
  </defs>
  <path class="cls-1" d="m60.13,99.46c-2.46,0-4.46-1.85-4.46-5.28s2-6.22,4.46-6.22"/>
  <ellipse class="cls-1" cx="26.26" cy="53.08" rx="4.87" ry="2.86"/>
  <line class="cls-1" x1="60.13" y1="87.96" x2="60.13" y2="23.35"/>
  <path class="cls-1" d="m59.86,10.15c.12-.19.43-.19.56,0l3.12,4.88,3.12,4.88c.12.19-.03.44-.28.44h-12.46c-.25,0-.4-.24-.28-.44l3.12-4.88,3.12-4.88Z"/>
  <path class="cls-1" d="m60.41,23.2c-.12.19-.43.19-.56,0l-3.12-4.88-3.12-4.88c-.12-.19.03-.44.28-.44h12.46c.25,0,.4.24.28.44l-3.12,4.88-3.12,4.88Z"/>
  <path class="cls-1" d="m52.08,37.12c-1-2.08-.38-5.52,2.6-6.53,2.03-.69,5.46.59,5.46,3.74"/>
  <line class="cls-1" x1="60.13" y1="45.27" x2="51.56" y2="36.7"/>
  <ellipse class="cls-1" cx="55.89" cy="35.04" rx=".78" ry=".71"/>
  <line class="cls-1" x1="19.26" y1="48.74" x2="19.26" y2="57.36"/>
  <line class="cls-1" x1="14.26" y1="53.08" x2="21.56" y2="53.08"/>
  <path class="cls-1" d="m49.97,46.81c-1.51,0-1.85-4.18,1.59-4.18,5.69,0,8.57,8.36,8.57,8.36"/>
  <path class="cls-1" d="m42.28,53.08c-10.28-6.11-4.29-11.88-.26-10.82,4.03,1.05,2.86,5.43.79,5.36-1.45-.06-1.75-.97-1.75-.97"/>
  <path class="cls-1" d="m42.28,53.08c-10.28,6.11-3.61,12.8.42,11.75,4.03-1.05,3.98-5.99,2-6.62-2.69-.85-3.26,1.88-3.26,1.88"/>
  <line class="cls-1" x1="37.41" y1="57.22" x2="31.12" y2="53.08"/>
  <path class="cls-1" d="m53.91,48.3c6.11-.77,5.96,4.78,5.96,4.78h-28.74s6.25-4.18,6.25-4.18"/>
  <line class="cls-1" x1="60.04" y1="59.92" x2="40.02" y2="74.58"/>
  <path class="cls-1" d="m42.42,84.76c-2.89.72-9.28-4.18-8.15-10.39,1.06-5.83,7.16-7.55,13.52-1.89,8.36,7.43,12.35,14.02,12.35,14.02"/>
  <line class="cls-1" x1="60.13" y1="62.15" x2="60.13" y2="67.4"/>
  <line class="cls-1" x1="60.13" y1="69.91" x2="60.13" y2="75.16"/>
  <line class="cls-1" x1="58.57" y1="110" x2="60.15" y2="110"/>
  <line class="cls-1" x1="53.79" y1="104.95" x2="53.79" y2="102.99"/>
  <path class="cls-1" d="m60.13,53.08c-.7,4.7-5.5,4.7-5.5,4.7"/>
  <line class="cls-1" x1="60.13" y1="62.09" x2="60.13" y2="67.34"/>
  <line class="cls-1" x1="58.22" y1="66.14" x2="61.7" y2="69.85"/>
  <line class="cls-1" x1="58.22" y1="69.85" x2="61.7" y2="66.14"/>
  <line class="cls-1" x1="57.5" y1="67.99" x2="62.42" y2="67.99"/>
  <line class="cls-1" x1="58.11" y1="73.3" x2="61.59" y2="77.01"/>
  <line class="cls-1" x1="58.11" y1="77.01" x2="61.59" y2="73.3"/>
  <line class="cls-1" x1="57.39" y1="75.16" x2="62.31" y2="75.16"/>
  <line class="cls-1" x1="59.96" y1="103.88" x2="53.93" y2="103.96"/>
  <path class="cls-1" d="m49.62,32.85c-2.49-5.22,2.3-7.9,2.3-7.9"/>
  <path class="cls-1" d="m49.62,32.85l2.46,4.27c-1.98-.84-7.51-1.14-9.52.11"/>
  <path class="cls-1" d="m59.87,99.46c2.46,0,4.46-1.85,4.46-5.28s-2-6.22-4.46-6.22"/>
  <ellipse class="cls-1" cx="93.74" cy="53.08" rx="4.87" ry="2.86"/>
  <path class="cls-1" d="m67.92,37.12c1-2.08.38-5.52-2.6-6.53-2.03-.69-5.19.59-5.19,3.74"/>
  <line class="cls-1" x1="59.87" y1="45.27" x2="68.44" y2="36.7"/>
  <ellipse class="cls-1" cx="64.11" cy="35.04" rx=".78" ry=".71"/>
  <line class="cls-1" x1="100.74" y1="48.74" x2="100.74" y2="57.36"/>
  <line class="cls-1" x1="105.74" y1="53.08" x2="98.44" y2="53.08"/>
  <path class="cls-1" d="m70.03,46.81c1.51,0,1.85-4.18-1.59-4.18-5.69,0-8.57,8.36-8.57,8.36"/>
  <path class="cls-1" d="m77.72,53.08c10.28-6.11,4.29-11.88.26-10.82s-2.86,5.43-.79,5.36c1.45-.06,1.75-.97,1.75-.97"/>
  <path class="cls-1" d="m77.72,53.08c10.28,6.11,3.61,12.8-.42,11.75s-3.98-5.99-2-6.62c2.69-.85,3.26,1.88,3.26,1.88"/>
  <line class="cls-1" x1="82.59" y1="57.22" x2="88.88" y2="53.08"/>
  <path class="cls-1" d="m66.09,48.3c-6.11-.77-6.22,4.78-6.22,4.78h29.01s-6.25-4.18-6.25-4.18"/>
  <line class="cls-1" x1="60.04" y1="59.92" x2="79.98" y2="74.58"/>
  <path class="cls-1" d="m77.58,84.76c2.89.72,9.28-4.18,8.15-10.39-1.06-5.83-7.16-7.55-13.52-1.89-8.36,7.43-12.08,14.02-12.08,14.02"/>
  <line class="cls-1" x1="59.87" y1="99.46" x2="59.85" y2="110"/>
  <line class="cls-1" x1="61.43" y1="110" x2="59.85" y2="110"/>
  <line class="cls-1" x1="66.07" y1="104.92" x2="66.07" y2="102.96"/>
  <path class="cls-1" d="m59.87,53.08c.7,4.7,5.5,4.7,5.5,4.7"/>
  <line class="cls-1" x1="59.87" y1="99.4" x2="59.85" y2="109.94"/>
  <line class="cls-1" x1="60.04" y1="103.88" x2="66.07" y2="103.96"/>
  <path class="cls-1" d="m70.38,32.85c2.49-5.22-2.3-7.9-2.3-7.9"/>
  <path class="cls-1" d="m70.38,32.85l-2.46,4.27c1.98-.84,7.51-1.14,9.52.11"/>
</svg>