<?xml version="1.0" encoding="UTF-8"?>
<svg id="icons" xmlns="http://www.w3.org/2000/svg" viewBox="0 0 120 120">
  <path d="m50.27,22.37c.71,0,1.4-.29,1.91-.79h2.8l-1.32,1.31c-.69.03-1.38.29-1.87.8,0,0,0,0,0,0-1.04,1.09-1.04,2.79,0,3.88.52.54,1.24.85,1.98.85s1.46-.31,1.98-.85c.5-.53.76-1.2.77-1.88l1.32-1.31v3.97s-6.79,5.95-6.79,5.95c0,0,0,0,0,0l-6.99,6.14c-.83.73-.91,1.99-.18,2.82.4.45.95.68,1.5.68.47,0,.94-.16,1.32-.5l3.75-3.3.02,1.21-5.81,3.92c-.92.62-1.16,1.86-.54,2.78.39.57,1.02.88,1.66.88.38,0,.77-.11,1.12-.34l3.66-2.47.03,1.56-6.37,5.08c-.86.69-1,1.95-.32,2.81.39.5.98.75,1.56.75.44,0,.88-.14,1.25-.44l3.97-3.16.03,1.59-6.49,5.06c-.87.68-1.03,1.94-.35,2.81.39.51.98.77,1.58.77.43,0,.86-.14,1.23-.42l4.12-3.21.03,1.73-6.58,4.88c-.89.66-1.07,1.91-.42,2.8.39.53,1,.81,1.61.81.41,0,.83-.13,1.19-.39l4.29-3.18.03,1.45-6.77,5.52c-.86.7-.98,1.96-.29,2.81.4.49.97.74,1.55.74.44,0,.89-.15,1.26-.45l4.34-3.54.02,1.23-6.97,5.73c-.85.7-.98,1.96-.28,2.81.4.48.97.73,1.55.73.45,0,.9-.15,1.27-.46l4.53-3.72.03,1.4-7.05,5.79c-.85.7-.98,1.96-.28,2.81.4.48.97.73,1.55.73.45,0,.9-.15,1.27-.45l4.61-3.78.03,1.57-7.2,6.56c-.82.74-.88,2.01-.13,2.83.39.43.94.65,1.48.65.48,0,.96-.17,1.35-.52l4.61-4.2.03,1.56-7.28,6.15c-.84.71-.95,1.97-.24,2.82.4.47.96.71,1.53.71.46,0,.91-.16,1.29-.47l4.79-4.05.02,1.31-7.42,6.47c-.83.73-.92,1.99-.19,2.82.4.45.95.69,1.51.69.47,0,.93-.16,1.31-.49l4.89-4.26.09,4.61c.02,1.09.91,1.96,2,1.96h11.84c1.09,0,1.97-.87,2-1.95l.11-4.93,5.25,4.58c.38.33.85.49,1.31.49.56,0,1.11-.23,1.51-.69.73-.83.64-2.1-.19-2.82l-7.76-6.76.03-1.41,5.1,4.43c.38.33.85.49,1.31.49.56,0,1.12-.23,1.51-.69.72-.83.64-2.1-.2-2.82l-7.6-6.61.03-1.24,4.94,4.34c.38.33.85.5,1.32.5.56,0,1.11-.23,1.5-.68.73-.83.65-2.09-.18-2.82l-7.46-6.55.04-1.77,4.88,4.01c.37.31.82.45,1.27.45.58,0,1.15-.25,1.55-.73.7-.85.58-2.11-.28-2.81l-7.3-5.99.03-1.39,4.78,3.92c.37.31.82.46,1.27.46.58,0,1.15-.25,1.55-.73.7-.85.58-2.11-.28-2.81l-7.2-5.91.03-1.23,4.55,3.71c.37.3.82.45,1.26.45.58,0,1.16-.25,1.55-.74.7-.86.57-2.12-.29-2.81l-6.96-5.68.03-1.43,4.48,3.32c.36.27.78.39,1.19.39.61,0,1.22-.28,1.61-.81.66-.89.47-2.14-.42-2.8l-6.75-5.01.04-1.67,4.3,3.28c.36.28.79.41,1.21.41.6,0,1.2-.27,1.59-.79.67-.88.5-2.13-.37-2.8l-6.61-5.05.04-1.71,4.09,3.29c.37.3.81.44,1.25.44.58,0,1.17-.26,1.56-.75.69-.86.56-2.12-.31-2.81l-6.48-5.21.03-1.46,3.66,2.47c.34.23.73.34,1.12.34.64,0,1.27-.31,1.66-.88.62-.92.38-2.16-.54-2.78l-5.79-3.91.04-1.72,4.21,3.27c.36.28.8.42,1.22.42.6,0,1.19-.27,1.58-.77.68-.87.52-2.13-.35-2.81l-7.23-5.61s-.03-.04-.05-.05l-6.8-5.74v-3.91s1.31,1.29,1.31,1.29c0,.29.05.58.15.86.41,1.13,1.49,1.84,2.63,1.84.3,0,.6-.05.9-.15.7-.24,1.26-.75,1.58-1.42.32-.67.36-1.43.1-2.14-.4-1.1-1.44-1.8-2.54-1.83l-1.29-1.29h1.84c.52.49,1.21.77,1.93.77.3,0,.6-.05.9-.15.7-.24,1.26-.75,1.58-1.42.32-.67.36-1.43.1-2.13-.52-1.43-2.09-2.19-3.53-1.69-.38.13-.72.35-1,.62h-1.8l1.28-1.27c.72-.02,1.42-.32,1.91-.84,1.04-1.09,1.04-2.79,0-3.88-1.03-1.08-2.93-1.08-3.96,0-.51.53-.76,1.21-.78,1.89l-1.28,1.28v-2.08c.99-1.09.98-2.75-.04-3.82-.52-.54-1.24-.85-1.98-.85h0c-.74,0-1.46.31-1.98.85,0,0,0,0,0,0-1.04,1.09-1.04,2.79,0,3.88,0,0,0,0,0,0v2.06s-1.34-1.33-1.34-1.33c-.01-.68-.27-1.36-.77-1.89-1.03-1.08-2.93-1.08-3.96,0,0,0,0,0,0,0-1.04,1.09-1.04,2.79,0,3.88.5.52,1.19.82,1.91.84l1.27,1.27h-2.8c-1.04-1.01-2.88-1-3.89.06-1.04,1.09-1.04,2.79,0,3.88.52.54,1.24.85,1.98.85Zm2.56,4.06s.02.02.03.03c0,0,0,0,0,0,0,0,0-.02-.02-.03Zm2.89,81.58l-.51-26.87c0-.07,0-.14,0-.2l-.72-38.4c0-.11,0-.21,0-.32l-.1-5.51,5.47-4.8,5.46,4.61-.13,5.47c-.04.22-.04.44-.02.65l-.44,19.13s0,.09,0,.13l-.13,5.77c-.07.28-.07.57-.02.85l-.92,39.5h-7.93Zm10.97-81.46s0,0,0,0c0,0,0,0,0,0Zm2.93-6.9s0,0,0,0c0,0,0,0,0,0Zm-2.81-6.92s-.01-.02-.02-.03c0,0,0,0,0,0,0,0,0,.01.01.02Zm-6.99-3.14s0,0,0,0c-.01,0-.02,0-.03,0,0,0,.02,0,.03,0h0Zm-6.97,3.11s-.02.02-.03.03c0,0,0-.02.02-.03,0,0,0,0,.01,0Z"/>
  <path d="m31.8,49.42c.39.39.9.59,1.42.59.43,0,.86-.15,1.22-.43.13.98.96,1.75,1.97,1.75s1.85-.76,1.97-1.75c.36.28.79.43,1.22.43.51,0,1.03-.2,1.42-.59.72-.72.77-1.84.17-2.62,1-.11,1.79-.95,1.79-1.98s-.78-1.87-1.79-1.98c.6-.78.55-1.9-.17-2.62-.72-.72-1.85-.77-2.64-.16-.13-.98-.96-1.75-1.97-1.75s-1.85.76-1.97,1.75c-.79-.61-1.92-.56-2.64.16-.72.72-.77,1.84-.16,2.63-.98.13-1.75.96-1.75,1.97s.76,1.85,1.75,1.97c-.6.78-.56,1.91.16,2.63Z"/>
  <path d="m9.74,70.68c-.6.78-.56,1.91.16,2.63.39.39.9.59,1.42.59.43,0,.86-.15,1.22-.43.13.98.96,1.75,1.97,1.75s1.85-.76,1.97-1.75c.36.28.79.43,1.22.43.51,0,1.03-.2,1.42-.59.72-.72.77-1.84.16-2.63.98-.13,1.75-.96,1.75-1.97s-.76-1.85-1.74-1.97c.6-.78.55-1.91-.16-2.63-.72-.72-1.85-.77-2.64-.16-.13-.98-.96-1.75-1.97-1.75s-1.85.76-1.97,1.75c-.79-.61-1.92-.56-2.64.16-.72.72-.77,1.84-.16,2.63-.98.13-1.74.96-1.74,1.97s.76,1.85,1.75,1.97Z"/>
  <path d="m31.8,99.11c.39.39.9.59,1.42.59.43,0,.86-.15,1.22-.43.13.98.96,1.75,1.97,1.75s1.85-.76,1.97-1.75c.36.28.79.43,1.22.43.51,0,1.03-.2,1.42-.59.72-.72.77-1.84.16-2.63.99-.12,1.75-.96,1.75-1.97s-.77-1.85-1.75-1.97c.6-.78.55-1.91-.16-2.63-.72-.72-1.85-.77-2.64-.16-.13-.98-.96-1.75-1.97-1.75s-1.85.76-1.97,1.75c-.79-.61-1.92-.56-2.64.16-.72.72-.77,1.84-.16,2.63-.98.13-1.75.96-1.75,1.97s.76,1.85,1.74,1.97c-.6.78-.55,1.91.16,2.63Z"/>
  <path d="m14.42,50.14c1.03,3.01,2.44,5.77,3.63,8.08.56,1.09,1.18,2.12,1.78,3.12,1.9,3.16,3.54,5.9,2.96,9.55-.2,1.21-1.03,3.44-3.87,7.18-.52.68-.99,1.37-1.44,2.06-.09.12-.18.24-.24.38-.04.07-.09.14-.14.21-.05.07-.09.13-.13.2-1.33,2.19-2.29,4.4-2.89,6.58-.09.2-.15.42-.17.65-.94,3.92-.68,7.73.83,11.17.02.04.03.07.04.11.21.46.43.91.68,1.36.74,1.33,1.67,2.53,2.72,3.6.05.05.1.1.15.15,3.13,3.09,7.37,4.95,11.57,4.95.47,0,.94-.02,1.41-.07.88-.09,1.59-.75,1.76-1.62.17-.87-.26-1.74-1.04-2.15-.05-.03-4.89-2.6-6.06-7.76-.15-.66-.2-1.32-.19-1.98,0-.02,0-.04,0-.05.07-3.21,1.84-6.16,3.07-7.82,0,0,0,0,0,0,.19-.25.36-.48.51-.67l.44-.55c.18-.22.36-.45.54-.67,0,0,0-.01.01-.02.41-.51.82-1.02,1.23-1.53,1.67-2.1,3.7-4.66,5.11-7.61,0,0,0-.01,0-.02,1.01-2.12,1.7-4.43,1.71-6.94,0-1.58-.04-3-.16-4.3,0,0,0,0,0,0-.5-5.63-2.3-9.14-6.97-14.71-1.66-1.98-3.26-5.1-2.8-7.93.29-1.76,1.33-3.17,3.18-4.31,1.69-1.04,3.16-2.46,4.26-4.1,1.53-2.28,2.67-4.1,3.43-5.45l7.76.77c.07,0,.13,0,.2,0,1.02,0,1.89-.77,1.99-1.8.11-1.1-.69-2.08-1.79-2.19l-3.86-.38,1.36-.68c.99-.49,1.39-1.7.89-2.68-.49-.99-1.69-1.39-2.68-.9l-2.25,1.13,2.29-4.72c.48-.99.07-2.19-.93-2.67-.99-.48-2.19-.07-2.67.93l-3.62,7.47c-1.47.04-3.52.18-6.15.44-2.26.22-4.46.98-6.36,2.2-11.57,7.44-11.65,16.24-9.24,23.61.03.13.07.26.13.39Zm15.38,30.28l-.12-.47.64-.21c-.17.23-.34.46-.52.68Zm-9.94-27.52l.74.29-.27.69c-.16-.32-.32-.65-.47-.98Zm11.09,4.36l-2.21,3.5-5.9-2.28,1.48-3.83,6.63,2.61Zm-4.39,6.95l-.45.71c-.12-.35-.25-.69-.39-1.03l.84.32Zm7.86,5.83c0,1.54-.38,3.02-.97,4.44l-4.77,1.58-1.4-5.5,3.08-4.88,3.99,1.54c.05.87.07,1.8.07,2.82Zm-9.71,6.6l.18.69-.75.25c.2-.32.4-.63.58-.94Zm1.97,7.71l-.41.51h0s-.05.06-.07.09l-3.57.47-1.28-2.69,4.54-1.51.8,3.13Zm-9.12,5.77l2.7-.35,1.78,3.76c-.12.62-.2,1.25-.24,1.9l-1.41,2.39-2.27-.82c-.79-2.15-.98-4.46-.56-6.87Zm16.12-27.45l-1.13-.44.65-1.03c.19.48.34.97.48,1.46Zm-7.91-11.74l.26-.67c.17.33.34.66.54.98l-.8-.31Zm-3.72-1.46l-4.2-1.65c-.56-1.88-.88-3.79-.8-5.72l3.79-1.11,3.24,3.23-2.03,5.25Zm.33,53.32l1.64.59c.17.27.34.54.51.78-.75-.38-1.47-.85-2.15-1.38Zm3.32-73.27c1.36-.88,2.95-1.42,4.58-1.58,2.24-.22,4.11-.36,5.46-.41-.71,1.22-1.79,2.92-3.13,4.93-.79,1.17-1.84,2.18-3.04,2.93-1.93,1.19-3.34,2.71-4.19,4.48l-2.55-2.54c-.52-.51-1.27-.71-1.97-.5l-2.77.81c1.21-2.77,3.56-5.51,7.62-8.11Z"/>
  <path d="m59.82,37.85c-1.1,0-2,.9-2,2v3.32c0,1.1.9,2,2,2s2-.9,2-2v-3.32c0-1.1-.9-2-2-2Z"/>
  <path d="m59.82,46.84c-1.1,0-2,.9-2,2v3.32c0,1.1.9,2,2,2s2-.9,2-2v-3.32c0-1.1-.9-2-2-2Z"/>
  <path d="m59.82,55.82c-1.1,0-2,.9-2,2v3.32c0,1.1.9,2,2,2s2-.9,2-2v-3.32c0-1.1-.9-2-2-2Z"/>
  <path d="m59.82,65.07c-1.1,0-2,.9-2,2v3.32c0,1.1.9,2,2,2s2-.9,2-2v-3.32c0-1.1-.9-2-2-2Z"/>
  <path d="m59.82,73.84c-1.1,0-2,.9-2,2v3.32c0,1.1.9,2,2,2s2-.9,2-2v-3.32c0-1.1-.9-2-2-2Z"/>
  <path d="m59.82,82.99c-1.1,0-2,.9-2,2v3.32c0,1.1.9,2,2,2s2-.9,2-2v-3.32c0-1.1-.9-2-2-2Z"/>
  <path d="m59.82,91.69c-1.1,0-2,.9-2,2v3.32c0,1.1.9,2,2,2s2-.9,2-2v-3.32c0-1.1-.9-2-2-2Z"/>
  <path d="m59.82,100.37c-1.1,0-2,.9-2,2v3.32c0,1.1.9,2,2,2s2-.9,2-2v-3.32c0-1.1-.9-2-2-2Z"/>
  <path d="m26.59,35.13c.4,0,.8-.12,1.15-.37l2.7-1.91c.9-.64,1.12-1.88.48-2.79-.64-.9-1.88-1.12-2.79-.48l-2.7,1.91c-.9.64-1.12,1.88-.48,2.79.39.55,1.01.85,1.64.85Z"/>
  <path d="m77.03,44.8c0,1.03.78,1.87,1.79,1.98-.6.78-.55,1.9.17,2.62.39.39.9.59,1.42.59.43,0,.86-.15,1.22-.43.13.98.96,1.75,1.97,1.75s1.85-.76,1.97-1.75c.36.28.79.43,1.22.43.51,0,1.03-.2,1.42-.59.72-.72.77-1.84.16-2.63.98-.13,1.74-.96,1.74-1.97s-.76-1.85-1.75-1.97c.6-.78.56-1.91-.16-2.63-.72-.72-1.85-.77-2.64-.16-.13-.98-.96-1.75-1.97-1.75s-1.85.76-1.97,1.75c-.79-.61-1.92-.56-2.64.16-.72.72-.77,1.84-.17,2.62-1,.11-1.79.95-1.79,1.98Z"/>
  <path d="m105.48,62.17c-1.02,0-1.85.76-1.97,1.75-.79-.61-1.92-.56-2.64.16-.72.72-.77,1.84-.16,2.63-.98.13-1.74.96-1.74,1.97s.76,1.85,1.74,1.97c-.6.78-.55,1.91.16,2.63.39.39.9.59,1.42.59.43,0,.86-.15,1.22-.43.13.98.96,1.75,1.97,1.75s1.85-.76,1.97-1.75c.36.28.79.43,1.22.43.51,0,1.03-.2,1.42-.59.72-.72.77-1.84.16-2.63.98-.13,1.74-.96,1.74-1.97s-.76-1.85-1.74-1.97c.6-.78.55-1.91-.16-2.63-.72-.72-1.85-.77-2.64-.16-.13-.98-.96-1.75-1.97-1.75Z"/>
  <path d="m88.2,89.89c-.72-.72-1.85-.77-2.64-.16-.13-.98-.96-1.75-1.97-1.75s-1.85.76-1.97,1.75c-.79-.61-1.92-.56-2.64.16-.72.72-.77,1.84-.16,2.63-.99.12-1.75.96-1.75,1.97s.77,1.85,1.75,1.97c-.6.78-.55,1.91.16,2.63.39.39.9.59,1.42.59.43,0,.86-.15,1.22-.43.13.98.96,1.75,1.97,1.75s1.85-.76,1.97-1.75c.36.28.79.43,1.22.43.51,0,1.03-.2,1.42-.59.72-.72.77-1.84.16-2.63.98-.13,1.75-.96,1.75-1.97s-.76-1.85-1.74-1.97c.6-.78.55-1.91-.16-2.63Z"/>
  <path d="m72.68,29.99c.07,0,.13,0,.2,0l7.76-.77c.76,1.35,1.9,3.16,3.43,5.45,1.1,1.64,2.58,3.06,4.26,4.1,1.85,1.14,2.89,2.55,3.18,4.31.46,2.83-1.15,5.96-2.8,7.93-5.75,6.87-7.15,10.6-7.13,19.02,0,2.5.7,4.82,1.71,6.94,0,0,0,.01,0,.02,1.41,2.95,3.44,5.51,5.11,7.61.41.52.83,1.03,1.24,1.54,0,0,0,0,0,0,.17.2.33.41.49.61l.49.6s0,0,0,0c.15.19.33.41.51.67,0,0,0,0,0,0,1.48,2,3.77,5.89,2.88,9.85-1.17,5.17-6.01,7.74-6.05,7.76-.79.4-1.22,1.28-1.06,2.15s.88,1.53,1.76,1.62c.47.05.94.07,1.41.07,4.2,0,8.45-1.87,11.57-4.95.05-.05.1-.09.15-.15,1.06-1.07,1.98-2.28,2.72-3.6.25-.45.47-.9.68-1.36.02-.03.03-.07.04-.1,1.51-3.45,1.78-7.26.84-11.17-.02-.24-.08-.46-.18-.67-.6-2.18-1.55-4.39-2.88-6.57-.04-.07-.08-.14-.13-.2-.04-.07-.09-.14-.14-.21-.07-.14-.15-.26-.24-.38-.45-.69-.92-1.38-1.44-2.06-2.85-3.74-3.68-5.97-3.87-7.18-.59-3.65,1.05-6.38,2.96-9.55.6-1,1.22-2.03,1.78-3.12,1.19-2.31,2.61-5.07,3.64-8.08.05-.12.1-.25.12-.37,2.41-7.37,2.33-16.18-9.24-23.62-1.9-1.22-4.1-1.98-6.36-2.2-2.64-.26-4.69-.4-6.16-.44l-3.62-7.47c-.48-.99-1.68-1.41-2.67-.93-.99.48-1.41,1.68-.93,2.67l2.29,4.72-2.25-1.13c-.99-.5-2.19-.09-2.68.89-.49.99-.09,2.19.89,2.68l1.36.68-3.86.38c-1.1.11-1.9,1.09-1.79,2.19.1,1.03.97,1.8,1.99,1.8Zm21.29,20.25l.26.67-.8.31c.19-.32.37-.65.54-.98Zm3.19,8.23l-5.9,2.28-2.21-3.5,6.63-2.61,1.48,3.83Zm-10.36,2.71l.65,1.03-1.13.44c.14-.5.29-.99.48-1.46Zm4.51,14.86l-4.77-1.58c-.59-1.42-.96-2.9-.97-4.44,0-1.02.02-1.95.07-2.82l3.99-1.54,3.08,4.88-1.4,5.5Zm-1.63,3.68l.64.21-.12.47c-.17-.22-.34-.45-.52-.68Zm12.2,17.24l-2.27.82-1.41-2.39c-.03-.65-.12-1.28-.24-1.9l1.78-3.76,2.7.35c.42,2.41.23,4.72-.56,6.87Zm-3.23-14.26l-1.28,2.69-3.57-.47s-.05-.06-.07-.09l-.41-.51.8-3.13,4.54,1.51Zm-3.55-5.39l.18-.69c.18.31.38.62.58.94l-.75-.25Zm-1.23-12.41l-.45-.71.84-.32c-.14.34-.27.68-.39,1.03Zm5.79-11.04l-.27-.69.74-.29c-.16.33-.31.65-.47.98Zm2.49-6.07l-4.21,1.65-2.03-5.25,3.24-3.23,3.79,1.11c.09,1.92-.24,3.84-.8,5.72Zm-6.18,55.57l1.64-.59c-.68.53-1.4.99-2.15,1.38.18-.25.34-.52.51-.78Zm-1.68-73.86c4.05,2.6,6.41,5.34,7.62,8.11l-2.77-.81c-.7-.2-1.46-.01-1.97.5l-2.55,2.54c-.86-1.77-2.26-3.29-4.19-4.48-1.2-.74-2.25-1.75-3.04-2.93-1.35-2.01-2.42-3.71-3.13-4.93,1.33.05,3.19.19,5.46.41,1.63.16,3.22.71,4.58,1.58Z"/>
  <path d="m89.56,32.83l2.7,1.91c.35.25.75.37,1.15.37.63,0,1.25-.29,1.64-.85.64-.9.42-2.15-.48-2.79l-2.7-1.91c-.9-.64-2.15-.42-2.79.48-.64.9-.42,2.15.48,2.79Z"/>
</svg>