<?xml version="1.0" encoding="UTF-8"?>
<svg id="icons" xmlns="http://www.w3.org/2000/svg" viewBox="0 0 120 120">
  <path d="m45.88,28.94c0,.79.46,1.46,1.12,1.79-.03.45.08.91.36,1.3.39.54,1,.83,1.63.83.32,0,.63-.1.92-.25.34.62.99,1.05,1.75,1.05s1.41-.43,1.75-1.05c.29.15.61.25.92.25.62,0,1.24-.29,1.63-.83.28-.39.39-.85.36-1.3.66-.33,1.12-1,1.12-1.79s-.46-1.46-1.12-1.79c.03-.45-.08-.91-.36-1.3-.59-.82-1.69-1.05-2.56-.59-.34-.61-.99-1.04-1.74-1.04s-1.4.42-1.74,1.04c-.87-.46-1.96-.23-2.56.59-.28.39-.39.85-.36,1.3-.66.33-1.12,1-1.12,1.79Z"/>
  <path d="m47.91,63.49h.88v.19c0,1.1.9,2,2,2s2-.9,2-2v-.15h.84s.01,0,.02,0c1.1,0,1.99-.88,2-1.98,0-1.1-.88-2.01-1.98-2.02h-.88v-.24c0-1.1-.9-2-2-2s-2,.9-2,2v.2h-.84s-.01,0-.02,0c-1.1,0-1.99.88-2,1.98,0,1.1.88,2.01,1.98,2.02Z"/>
  <path d="m66.46,63.58h.88v.19c0,1.1.9,2,2,2s2-.9,2-2v-.15h.84s.01,0,.02,0c1.1,0,1.99-.88,2-1.98,0-1.1-.88-2.01-1.98-2.02h-.88v-.24c0-1.1-.9-2-2-2s-2,.9-2,2v.19h-.84s-.01,0-.02,0c-1.1,0-1.99.88-2,1.98,0,1.1.88,2.01,1.98,2.02Z"/>
  <path d="m40.53,79.27c-1.1,0-2,.9-2,2v.71h-1.51s-.01-.01-.02-.01c-1.1,0-1.99.88-2,1.98,0,1.1.88,2.01,1.98,2.02h1.54v.7c0,1.1.9,2,2,2s2-.9,2-2v-.65h1.51s.01.01.02.01c1.1,0,1.99-.88,2-1.98,0-1.1-.88-2.01-1.98-2.02h-1.54v-.76c0-1.1-.9-2-2-2Z"/>
  <path d="m54.62,70.13c.04-.48-.07-.97-.38-1.38-.56-.75-1.54-.98-2.36-.64-.34-.59-.97-.99-1.69-1h-.03c-.72,0-1.36.39-1.71.97-.82-.36-1.8-.14-2.37.59-.32.41-.45.89-.41,1.37-.63.33-1.07.98-1.07,1.74,0,.75.41,1.4,1.02,1.75-.04.48.07.97.38,1.38.39.53.99.8,1.6.8.27,0,.53-.07.78-.18.35.57.96.95,1.67.96h.03c.71,0,1.33-.38,1.69-.94.26.12.54.2.82.2.59,0,1.18-.26,1.58-.77.32-.41.45-.89.41-1.37.63-.33,1.07-.98,1.07-1.74,0-.75-.41-1.4-1.02-1.75Z"/>
  <path d="m74.51,70.13c.04-.48-.07-.97-.38-1.38-.56-.75-1.54-.98-2.36-.64-.34-.59-.97-.99-1.69-1h-.03c-.72,0-1.35.39-1.71.97-.82-.36-1.8-.14-2.37.59-.32.41-.45.89-.41,1.37-.63.33-1.07.98-1.07,1.75,0,.75.41,1.4,1.02,1.75-.04.48.07.97.38,1.38.39.53.99.8,1.6.8.26,0,.52-.07.78-.18.35.57.96.95,1.68.96h.03c.71,0,1.33-.38,1.69-.94.26.12.54.2.81.2.59,0,1.18-.26,1.58-.77.32-.41.45-.89.41-1.37.63-.33,1.07-.98,1.07-1.75,0-.75-.41-1.4-1.02-1.75Z"/>
  <path d="m49.58,89.77c-.56-.75-1.54-.98-2.36-.64-.34-.59-.97-.99-1.69-1h-.03c-.72,0-1.36.39-1.71.97-.82-.36-1.8-.14-2.37.59-.32.41-.45.89-.41,1.37-.63.33-1.06.98-1.07,1.74,0,.75.41,1.4,1.02,1.75-.04.48.07.97.38,1.38.39.53.99.8,1.6.8.27,0,.52-.07.78-.18.35.57.96.95,1.68.96h.03c.71,0,1.33-.38,1.69-.94.26.12.54.2.81.2.59,0,1.18-.26,1.58-.77.32-.41.45-.89.41-1.37.63-.33,1.07-.98,1.07-1.75,0-.75-.41-1.4-1.02-1.75.04-.48-.07-.97-.38-1.38Z"/>
  <path d="m74.12,28.94c0-.79-.46-1.46-1.12-1.79.03-.45-.08-.91-.36-1.3-.59-.82-1.69-1.05-2.56-.59-.34-.61-.99-1.04-1.74-1.04s-1.4.42-1.74,1.04c-.87-.46-1.96-.23-2.56.59-.28.39-.39.85-.36,1.3-.66.33-1.12,1-1.12,1.79s.46,1.46,1.12,1.79c-.03.45.08.91.36,1.3.39.54,1,.83,1.63.83.32,0,.63-.1.92-.25.34.62.99,1.05,1.75,1.05s1.41-.43,1.75-1.05c.29.15.6.25.92.25.62,0,1.24-.29,1.63-.83.28-.39.39-.85.36-1.3.66-.33,1.12-1,1.12-1.79Z"/>
  <path d="m107.97,67.79c-2.88-1.27-6.48-.83-8.54,1.04-1.64,1.48-2.15,3.66-1.4,5.98.34,1.05,1.46,1.63,2.52,1.29,1.05-.34,1.63-1.47,1.29-2.52-.34-1.05-.03-1.5.28-1.78.89-.8,2.84-.96,4.25-.34,1.08.47,1.63,1.26,1.64,2.35.01,1.54-.69,2.9-2.08,4.04-2.46,2-6.55,2.81-10.2,2.02-5.01-1.08-8.4-3.07-10.72-5.25,1.52-.96,2.99-1.95,4.38-2.95,0,0,0,0,0,0,2.8-2.03,5.27-4.13,7.05-6.24,1.79-1.77,3.18-3.77,4.11-5.89.03-.06.05-.13.08-.2.85-2.02,1.31-4.14,1.31-6.29,0-1.93-.36-3.79-1.01-5.56,0-.02-.01-.04-.02-.05-1.69-4.5-5.35-8.35-10.21-10.91-.14-.1-.29-.17-.45-.23-3.96-2-8.67-3.17-13.72-3.17-4.41,0-8.64.89-12.39,2.53-.07.03-.14.05-.2.08-.03.01-.05.03-.07.05-.61.27-1.2.56-1.78.88v-10.37l5.19-3.64c1.21-.85,2.93-.74,4-.2.35.18.94.56.96,1.16,0,1.1.9,1.99,2,1.99s2-.9,2-2c0-.01,0-.1,0-.11-.04-1.93-1.19-3.61-3.15-4.6-2.57-1.3-5.83-1.1-8.11.49l-2.89,2.03v-3.9l.74.53c.35.25.76.38,1.17.38.03,0,.05,0,.08,0,.02,0,.04,0,.06,0,.62,0,1.24-.29,1.63-.83.46-.63.48-1.44.14-2.09,1.06-.05,1.91-.92,1.91-1.99s-.85-1.94-1.91-1.99c.34-.65.31-1.45-.14-2.09-.41-.57-1.07-.86-1.73-.83-.42,0-.84.11-1.2.37l-.74.53v-.12c0-1.1-.9-2-2-2-.02,0-.05,0-.07,0-.02,0-.05,0-.07,0-1.1,0-2,.9-2,2v.12l-.74-.53c-.36-.26-.78-.38-1.2-.37-.66-.03-1.32.25-1.73.83-.46.63-.48,1.44-.14,2.09-1.06.05-1.91.92-1.91,1.99s.85,1.94,1.91,1.99c-.34.65-.31,1.46.14,2.09.39.54,1,.83,1.63.83.02,0,.04,0,.06,0,.03,0,.05,0,.08,0,.4,0,.81-.12,1.17-.38l.74-.53v.12c0,.26.05.5.14.72v3.15l-3.03-2.13c-2.27-1.6-5.53-1.8-8.11-.49-1.96.99-3.11,2.67-3.15,4.56,0,.03,0,.13,0,.15,0,1.1.88,1.95,1.98,1.96,0,0,.01,0,.02,0,1.09,0,1.98-.91,2-1.99.01-.56.6-.94.96-1.12,1.07-.54,2.79-.65,4,.2l5.33,3.74v10.35c-.42-.23-.85-.46-1.29-.67-.13-.12-.27-.24-.44-.33-.24-.13-.5-.2-.75-.22-3.68-1.56-7.81-2.4-12.11-2.4-5.05,0-9.76,1.17-13.72,3.17-.15.06-.3.13-.45.22-4.86,2.57-8.52,6.41-10.21,10.91-.04.09-.07.18-.1.27-.61,1.7-.94,3.49-.94,5.34,0,2.15.46,4.27,1.31,6.29.02.07.05.13.08.2.93,2.12,2.31,4.12,4.1,5.89,2.67,3.15,6.85,6.3,11.44,9.2-2.31,2.18-5.71,4.16-10.72,5.25-3.64.79-7.75-.02-10.2-2.02-1.39-1.13-2.09-2.49-2.08-4.04,0-1.09.56-1.88,1.64-2.35,1.41-.62,3.36-.46,4.25.34.31.28.62.73.28,1.78-.34,1.05.24,2.18,1.29,2.52,1.05.34,2.18-.24,2.52-1.29.75-2.32.24-4.49-1.4-5.98-2.06-1.87-5.66-2.31-8.54-1.04-2.54,1.11-4.01,3.29-4.03,5.98-.03,2.74,1.24,5.29,3.55,7.17,2.55,2.08,6.18,3.22,9.89,3.22,1.23,0,2.48-.13,3.69-.39,5.59-1.21,10.16-3.66,13.41-7.01,8.01,4.65,16.33,8.33,19.53,9.7v2.46c-.06.16-.1.33-.12.5-2.73,5.44-8.29,9.64-15.01,11.3-5.57,1.38-10.96.74-14.07-1.67-2.23-1.72-3.42-3.62-3.28-5.21.15-1.59,1.69-2.69,2.96-3.34,1.93-.98,3.21-.21,3.56.05.49.36.59.73.58.8-.03.08-.42.44-1.59.61-1.09.16-1.85,1.17-1.7,2.26.16,1.09,1.17,1.84,2.26,1.7,3.53-.5,4.57-2.41,4.87-3.49.48-1.72-.22-3.6-1.82-4.91-1.69-1.38-4.68-2.26-7.99-.57-3.92,2-4.95,4.65-5.12,6.53-.28,3.02,1.43,6.13,4.81,8.75,2.74,2.12,6.56,3.23,10.82,3.23,2.13,0,4.37-.28,6.65-.84,5.65-1.4,10.62-4.37,14.17-8.34v6.32l-.79-.65c-.85-.7-2.11-.58-2.82.27-.65.79-.58,1.94.12,2.66-.7.31-1.19,1.01-1.19,1.83s.53,1.57,1.27,1.86c-.52.73-.5,1.74.1,2.45.4.47.96.71,1.53.71.46,0,.92-.16,1.29-.47l.51-.43c.1,1.01.94,1.81,1.98,1.81.97,0,1.77-.68,1.96-1.59l.25.21c.37.31.82.46,1.27.46.58,0,1.15-.25,1.55-.73.59-.72.59-1.73.06-2.45.68-.32,1.15-1.01,1.15-1.81s-.51-1.54-1.22-1.84c.71-.73.78-1.89.1-2.69-.71-.84-1.98-.95-2.82-.23l-.3.25v-5.77c3.54,3.89,8.45,6.8,14.03,8.18,2.28.56,4.52.84,6.65.84,4.26,0,8.08-1.1,10.82-3.23,3.38-2.62,5.09-5.72,4.81-8.75-.17-1.87-1.21-4.53-5.12-6.53-3.31-1.69-6.3-.81-7.99.57-1.6,1.31-2.3,3.19-1.82,4.91.3,1.09,1.34,2.99,4.87,3.49,1.09.15,2.11-.6,2.26-1.7.16-1.09-.6-2.11-1.7-2.26-1.17-.17-1.55-.53-1.58-.61-.01-.07.09-.44.58-.8.35-.26,1.64-1.03,3.56-.05,1.27.65,2.81,1.75,2.96,3.34.15,1.58-1.05,3.48-3.28,5.21-3.11,2.41-8.5,3.04-14.07,1.67-6.71-1.66-12.25-5.84-14.99-11.26v-3.06c3.3-1.41,11.51-5.05,19.39-9.64,3.25,3.35,7.82,5.8,13.41,7.01,1.21.26,2.45.39,3.69.39,3.7,0,7.34-1.14,9.89-3.22,2.32-1.89,3.58-4.43,3.55-7.17-.02-2.69-1.5-4.87-4.03-5.98Zm-40.37-16.88l-5.53-6.89v-2.67c.61-.41,1.23-.8,1.89-1.16l5.17,10.08c-.53.2-1.04.41-1.53.64Zm-16.7-.62l5.3-10c.65.36,1.27.75,1.87,1.16v3.07l-5.61,6.42c-.5-.23-1.02-.45-1.56-.65Zm-21.14,15.65l10.05-4.18c.06.43.11.87.13,1.32l-7.89,4.69c-.81-.61-1.57-1.22-2.29-1.83Zm-3.21-3.17c-.06-.07-.12-.14-.19-.2-.76-.75-1.41-1.53-1.97-2.35l13.94-2.44c.05.07.09.14.13.2l-11.8,4.91s-.08-.09-.11-.13Zm-4.48-9.72c0-.79.1-1.56.25-2.32l12.84,3.23c0,.1,0,.21,0,.31l-12.59,2.2c-.33-1.11-.51-2.26-.51-3.42Zm17.11,15.14c-.35,1.01-.85,2.15-1.6,3.33-.65-.41-1.3-.82-1.93-1.23l3.53-2.1Zm2.31-18.74s-.07.01-.1.02l-7.85-10.5c2.42-.95,5.1-1.56,7.95-1.76v12.24Zm4-12.24c2.47.17,4.85.67,7.06,1.44l-5.62,10.61c-.5-.08-.98-.12-1.44-.15v-11.9Zm12.59,13.4v4.32c-.63-.63-1.34-1.26-2.14-1.86l2.14-2.45Zm4,4.18v-4.37l2.08,2.59c-.77.58-1.46,1.18-2.08,1.78Zm11.03-5.52l-5.47-10.67c2.16-.74,4.48-1.21,6.89-1.38v11.9c-.46.03-.93.08-1.42.15Zm5.42.19v-12.24c2.85.2,5.54.81,7.96,1.76l-7.86,10.5s-.07-.01-.1-.02Zm19.41,3.6c0,1.17-.18,2.31-.51,3.42l-12.59-2.2c0-.1.01-.21,0-.31l12.84-3.23c.15.76.25,1.53.25,2.32Zm-4.28,9.51c-.07.06-.14.13-.21.21-.05.06-.11.12-.16.18l-12.08-4.39c.14-.27.29-.53.46-.77l13.94,2.44c-.56.81-1.21,1.59-1.96,2.34Zm-5.51,5.07l-8.09-4.02c0-.4.02-.8.06-1.19l10,3.64c-.62.53-1.28,1.05-1.97,1.58Zm-3.72,2.62c-.65.43-1.32.85-2,1.28-.67-1.06-1.15-2.08-1.49-3.01l3.49,1.73Zm11.87-23.29l-13.3,3.35,7.14-9.54c2.68,1.64,4.81,3.76,6.17,6.18Zm-66.42-6.18l7.14,9.54-13.3-3.35c1.36-2.42,3.49-4.54,6.17-6.18Zm13.93,25.15c.07-.53.1-1.06.12-1.59,0,0,0,0,0,0,.08-2.08-.22-4.04-.83-5.8-.02-.09-.05-.18-.08-.27-.01-.02-.03-.04-.04-.07-.53-1.42-1.28-2.69-2.22-3.73-.07-.1-.16-.2-.25-.29-.03-.03-.05-.07-.09-.1.24-.13.52-.25.81-.37,0,0,0,0,0,0,1.27-.51,3.02-.84,5.26-.46,2.09.35,3.85,1.04,5.33,1.89.04.02.08.05.12.07,3.48,2.03,5.33,4.88,5.99,6.07.02.16.06.32.12.47v20.36c-3.7-1.63-10.48-4.75-17.01-8.5,1.45-2.29,2.39-4.88,2.75-7.68Zm18.26,16.12v-20.81c.68-1.22,2.52-4.01,5.94-6.01.04-.02.09-.05.13-.08,1.48-.85,3.26-1.55,5.35-1.9,2.24-.37,3.97-.05,5.24.45,0,0,.02,0,.03.01.29.12.56.24.8.36-.04.04-.06.08-.1.11-.07.07-.13.15-.2.23-2.45,2.71-3.66,6.95-3.07,11.51.36,2.8,1.3,5.38,2.75,7.68-6.46,3.7-13.14,6.79-16.87,8.44Z"/>
  <path d="m81.47,86.67v-.69h1.54c1.1-.02,1.99-.93,1.98-2.03,0-1.1-.9-1.98-2-1.98h-1.53s0-.7,0-.7c0-1.1-.9-2-2-2s-2,.9-2,2v.74h-1.54c-1.1.02-1.99.93-1.98,2.03,0,1.1.9,1.98,2,1.98h1.53s0,.64,0,.64c0,1.1.9,2,2,2s2-.9,2-2Z"/>
  <path d="m80.07,92.81c0-.76-.44-1.41-1.07-1.75.03-.48-.1-.96-.41-1.37-.57-.73-1.56-.95-2.37-.59-.35-.58-.98-.97-1.71-.97h-.03c-.73.01-1.35.41-1.69,1-.82-.34-1.8-.1-2.36.64-.31.41-.43.91-.38,1.38-.61.35-1.03,1-1.02,1.75,0,.76.44,1.41,1.07,1.74-.03.48.1.97.41,1.37.39.5.98.77,1.58.77.28,0,.55-.08.81-.2.35.56.98.94,1.69.94h.03c.71-.01,1.33-.39,1.68-.96.25.11.51.18.78.18.61,0,1.21-.28,1.6-.8.31-.41.43-.91.38-1.38.61-.35,1.03-1,1.02-1.75Z"/>
</svg>