<?xml version="1.0" encoding="UTF-8"?>
<svg id="icons" xmlns="http://www.w3.org/2000/svg" viewBox="0 0 120 120">
  <path d="m62,64.38v-9.18h23.84l4.49,6.13c.39.54,1,.82,1.62.82.41,0,.82-.13,1.18-.39.89-.65,1.08-1.9.43-2.79l-5.09-6.95c-.38-.51-.98-.82-1.61-.82h-24.86v-8.14c14.02-.81,25.12-10.11,25.12-21.42,0-1.1-.9-2-2-2s-2,.9-2,2c0,9.13-9.3,16.64-21.12,17.41v-22.08c0-1.1-.9-2-2-2s-2,.9-2,2v22.08c-11.81-.77-21.12-8.28-21.12-17.41,0-1.1-.9-2-2-2s-2,.9-2,2c0,11.31,11.1,20.6,25.12,21.42v8.14h-20.82l-4.12-5.75c-.64-.9-1.89-1.11-2.79-.46-.9.64-1.1,1.89-.46,2.79l4.72,6.58c.38.52.98.83,1.63.83h21.85v9.18c-14.98.45-28.34,5.88-37.48,14.25-.27.15-.51.36-.68.62-7.39,7.04-11.84,16.06-11.84,25.87,0,1.1.9,2,2,2h18.79v2.88c0,1.1.9,2,2,2s2-.9,2-2v-2.88h54.42v2.88c0,1.1.9,2,2,2s2-.9,2-2v-2.88h18.78c1.1,0,2-.9,2-2,0-21.96-22.25-39.91-50-40.74Zm9.06,13.56c1.12,0,2.04.92,2.04,2.04s-.92,2.04-2.04,2.04-2.04-.92-2.04-2.04.92-2.04,2.04-2.04Zm-22.29,0c1.12,0,2.04.92,2.04,2.04s-.92,2.04-2.04,2.04-2.04-.92-2.04-2.04.91-2.04,2.04-2.04Zm-29.27,7.47v10.99c0,.06.01.11.02.17h-1.8c-1.1,0-2,.9-2,2s.9,2,2,2h7.78c1.1,0,2-.9,2-2s-.9-2-2-2h-2.02c0-.06.02-.11.02-.17v-15.13c2.53-2.27,5.4-4.3,8.56-6.04v6.71h-4c-1.1,0-2,.9-2,2v4.21c0,1.1.9,2,2,2s2-.9,2-2v-2.21h2v2.94c0,1.1.9,2,2,2s2-.9,2-2v-2.94h2v2.21c0,1.1.9,2,2,2s2-.9,2-2v-4.21c0-1.1-.9-2-2-2h-4v-8.68c3.34-1.48,6.93-2.65,10.71-3.48v4.52c-2.35.83-4.04,3.06-4.04,5.69,0,3.33,2.71,6.04,6.04,6.04s6.04-2.71,6.04-6.04c0-2.63-1.69-4.86-4.04-5.69v-5.26c2.35-.35,4.77-.57,7.23-.65v24.7h-11.89l1.59-1.54c.79-.77.81-2.04.04-2.83-.77-.79-2.04-.81-2.83-.04l-5.13,4.98s0,0,0,.01c-.07.07-.12.14-.18.22-.02.03-.05.05-.07.08-.15.22-.25.46-.31.72-.03.13-.04.26-.04.4s.01.27.04.4c.05.26.16.51.31.72.02.03.05.06.07.08.06.07.11.15.18.22,0,0,0,0,0,.01l5.13,4.98c.39.38.89.56,1.39.56s1.04-.2,1.44-.61c.77-.79.75-2.06-.04-2.83l-1.59-1.54h11.89v6.04H12.07c.46-6.49,3.13-12.53,7.43-17.71Zm42.5,17.71v-6.04h11.89l-1.59,1.54c-.79.77-.81,2.04-.04,2.83.39.4.91.61,1.44.61s1-.19,1.39-.56l5.13-4.98s0,0,0-.01c.07-.07.12-.14.18-.21.02-.03.05-.06.07-.09.15-.21.25-.46.31-.72.03-.13.04-.26.04-.4s-.01-.27-.04-.4c-.05-.26-.16-.51-.31-.72-.02-.03-.05-.06-.07-.09-.06-.07-.11-.15-.18-.21,0,0,0,0,0-.01l-5.13-4.98c-.79-.77-2.06-.75-2.83.04-.77.79-.75,2.06.04,2.83l1.59,1.54h-11.89v-24.7c2.4.08,4.76.29,7.06.62v5.28c-2.35.83-4.04,3.06-4.04,5.69,0,3.33,2.71,6.04,6.04,6.04s6.04-2.71,6.04-6.04c0-2.63-1.69-4.86-4.04-5.69v-4.55c3.89.84,7.59,2.05,11.02,3.58v8.62h-4c-1.1,0-2,.9-2,2v4.21c0,1.1.9,2,2,2s2-.9,2-2v-2.21h2v2.94c0,1.1.9,2,2,2s2-.9,2-2v-2.94h2v2.21c0,1.1.9,2,2,2s2-.9,2-2v-4.21c0-1.1-.9-2-2-2h-4v-6.63c3.45,1.91,6.56,4.17,9.23,6.7v14.56h-1.89c-1.1,0-2,.9-2,2s.9,2,2,2h7.78c1.1,0,2-.9,2-2s-.9-2-2-2h-1.89v-10.16c3.83,4.95,6.2,10.64,6.62,16.71h-45.93Z"/>
  <path d="m30.1,20.89l4.78-3.71,4.78,3.71c.36.28.8.42,1.22.42.6,0,1.19-.27,1.58-.77.68-.87.52-2.13-.35-2.81l-6-4.66c-.72-.56-1.73-.56-2.45,0l-6,4.66c-.87.68-1.03,1.93-.35,2.81.68.87,1.93,1.03,2.81.35Z"/>
  <path d="m80.34,20.89l4.78-3.71,4.78,3.71c.36.28.8.42,1.22.42.6,0,1.19-.27,1.58-.77.68-.87.52-2.13-.35-2.81l-6-4.66c-.72-.56-1.73-.56-2.45,0l-6,4.66c-.87.68-1.03,1.93-.35,2.81.68.87,1.93,1.03,2.81.35Z"/>
  <path d="m55.22,16.24l4.78-3.71,4.78,3.71c.36.28.8.42,1.22.42.6,0,1.19-.27,1.58-.77.68-.87.52-2.13-.35-2.81l-6-4.66c-.72-.56-1.73-.56-2.45,0l-6,4.66c-.87.68-1.03,1.93-.35,2.81.68.88,1.93,1.03,2.81.35Z"/>
</svg>