<?xml version="1.0" encoding="UTF-8"?>
<svg id="icons" xmlns="http://www.w3.org/2000/svg" viewBox="0 0 120 120">
  <path d="m9.29,52.41c.42,1.02,1.59,1.51,2.61,1.09l5.58-2.29-.5,2.66c-.2,1.09.51,2.13,1.6,2.34.12.02.25.03.37.03.94,0,1.78-.67,1.96-1.63l.98-5.21,4.96-2.04-.52,2.76c-.2,1.09.51,2.13,1.6,2.34.12.02.25.03.37.03.94,0,1.78-.67,1.96-1.63l1-5.31,3.98-1.63-.51,2.69c-.2,1.09.51,2.13,1.6,2.34.12.02.25.03.37.03.94,0,1.78-.67,1.96-1.63l.99-5.24,4.31-1.77-.52,2.75c-.2,1.09.51,2.13,1.6,2.34.12.02.25.03.37.03.94,0,1.78-.67,1.96-1.63l1-5.3,9.02-3.7v2.56l-5.93,2.38c-1.03.41-1.52,1.58-1.11,2.6.41,1.02,1.57,1.52,2.6,1.11l4.44-1.78v2.06l-5.46,2.45c-1.01.45-1.46,1.64-1.01,2.64.45,1.01,1.63,1.46,2.64,1.01l3.82-1.72v1.86l-5.93,2.38c-1.02.41-1.52,1.58-1.11,2.6.41,1.02,1.57,1.52,2.6,1.11l4.44-1.78v2.27l-6.21,3.71c-.95.57-1.26,1.79-.69,2.74.37.63,1.04.97,1.72.97.35,0,.7-.09,1.02-.28l4.16-2.48v4.24l-3.17,4.59-6.23.21c-1.1.04-1.97.96-1.93,2.07.04,1.08.92,1.93,2,1.93.02,0,.05,0,.07,0l3.26-.11-2.09,3.02-7.97.12c-1.1.02-1.99.93-1.97,2.03.02,1.09.91,1.97,2,1.97h.03l5.12-.08-2.65,3.84h-8.9c-1.1,0-2,.9-2,2s.9,2,2,2h6.13l-2.93,4.24h-7.19c-1.1,0-2,.9-2,2s.9,2,2,2h4.42l-2.29,3.32h-7.87c-1.1,0-2,.9-2,2s.9,2,2,2h5.1l-2.32,3.36h-11.25c-1.1,0-2,.9-2,2s.9,2,2,2h12.3c.66,0,1.27-.32,1.65-.86l3.57-5.17,2.9,2.46c.38.32.84.47,1.29.47.57,0,1.13-.24,1.53-.71.71-.84.61-2.1-.23-2.82l-3.2-2.72,3.02-4.37,3.33,2.82c.38.32.84.47,1.29.47.57,0,1.13-.24,1.53-.71.71-.84.61-2.1-.23-2.82l-3.63-3.08,3.22-4.66,3.91,2.67c.34.24.74.35,1.13.35.64,0,1.27-.3,1.65-.87.62-.91.39-2.16-.52-2.78l-3.89-2.66,3.15-4.56,2.95,2.5c.38.32.84.47,1.29.47.57,0,1.13-.24,1.53-.71.71-.84.61-2.1-.23-2.82l-3.25-2.76,2.75-3.97,2.9,3.24s.05.05.08.07c.04.04.06.08.1.11.03.02.06.04.08.06.04.03.08.06.12.09.07.05.14.09.22.12.04.02.08.04.13.06.08.03.17.06.26.08.04,0,.07.02.11.03.13.02.25.04.38.04,0,0,0,0,0,0s0,0,0,0c.13,0,.26-.02.39-.04.04,0,.08-.02.11-.03.09-.02.18-.05.26-.09.05-.02.09-.04.14-.07.07-.04.14-.08.21-.12.05-.03.09-.07.14-.1.03-.02.05-.04.08-.06.03-.03.06-.07.09-.1.03-.03.06-.05.09-.08l2.35-2.72,2.39,3.33-3.32,3.24c-.79.77-.81,2.04-.04,2.83.39.4.91.6,1.43.6s1.01-.19,1.4-.57l2.89-2.81,2.58,3.59-3.32,3.24c-.79.77-.81,2.04-.04,2.83.39.4.91.6,1.43.6s1.01-.19,1.4-.57l2.89-2.82,3.42,4.77-3.44,3.35c-.79.77-.81,2.04-.04,2.83.39.4.91.6,1.43.6s1.01-.19,1.4-.57l3.01-2.93,3.36,4.69-3.64,3.55c-.79.77-.81,2.04-.04,2.83.39.4.91.6,1.43.6s1.01-.19,1.4-.57l3.21-3.12,4.27,5.96c.38.52.98.83,1.62.83h12.9c1.1,0,2-.9,2-2s-.9-2-2-2h-11.88l-2.17-3.03,2.88.31c1.1.12,2.08-.68,2.2-1.78.12-1.1-.68-2.08-1.78-2.2l-6.43-.69-2.77-3.86,3.25.35c1.1.12,2.08-.68,2.2-1.78s-.68-2.08-1.78-2.2l-6.8-.72-3.31-4.62,4.7.21c1.08.06,2.04-.81,2.09-1.91.05-1.1-.81-2.04-1.91-2.09l-7.84-.35-1.93-2.69h4.49c1.1,0,2-.9,2-2s-.9-2-2-2h-7.36l-1.79-2.5,4.98.24c1.09.06,2.04-.8,2.09-1.9s-.8-2.04-1.9-2.09l-8.14-.39-3.48-4.86v-4.49l4.89,2.26c1,.46,2.19.02,2.65-.98.46-1,.02-2.19-.98-2.65l-6.57-3.03v-2.33l5.25,1.89c.22.08.45.12.68.12.82,0,1.59-.51,1.88-1.33.37-1.04-.17-2.18-1.21-2.56l-6.61-2.37v-1.96l5.02,1.88c.23.09.47.13.7.13.81,0,1.57-.5,1.87-1.3.39-1.03-.14-2.19-1.17-2.57l-6.42-2.4v-2.08l4.84,2.13c.26.12.54.17.8.17.77,0,1.5-.45,1.83-1.2.45-1.01-.01-2.19-1.02-2.64l-6.45-2.84v-2.47l9.53,3.95v4.67c0,1.1.9,2,2,2s2-.9,2-2v-3.01l4.89,2.03.38,5.69c.07,1.06.95,1.87,1.99,1.87.04,0,.09,0,.14,0,1.1-.07,1.93-1.03,1.86-2.13l-.25-3.71,4.56,1.89v5.01c0,1.1.9,2,2,2s2-.9,2-2v-3.35l4.91,2.04v5.15c0,1.1.9,2,2,2s2-.9,2-2v-3.49l6.67,2.77c.25.1.51.15.76.15.79,0,1.53-.46,1.85-1.24.42-1.02-.06-2.19-1.08-2.61l-4.05-1.68,3.1-.84c1.07-.29,1.7-1.39,1.41-2.45-.29-1.07-1.38-1.69-2.45-1.41l-8.09,2.19-3.44-1.43,3.98-1.38c1.04-.36,1.6-1.5,1.24-2.54-.36-1.04-1.5-1.6-2.54-1.24l-8.24,2.85-3.36-1.39,4.06-1.57c1.03-.4,1.54-1.55,1.15-2.58-.4-1.03-1.56-1.54-2.58-1.15l-7.99,3.08-3.84-1.59,3.89-1.64c1.02-.43,1.5-1.6,1.07-2.62-.43-1.02-1.6-1.5-2.62-1.07l-7.53,3.18-11.38-4.72v-2.04l5.1,2.33c1,.46,2.19.02,2.65-.99.46-1,.02-2.19-.99-2.65l-6.76-3.09v-1.02c.83-.32,1.65-.72,2.44-1.23,2.01.95,6.16,2.41,9.97.71,2.03-.9,3.09-2.14,3.16-3.68.03-.79-.22-1.48-.59-2.05.72-.74,1.29-1.7,1.21-2.86-.11-1.54-1.26-2.68-3.42-3.41-3.61-1.21-6.73-.48-8.56.23-1.14-1.24-3.18-2.72-6.44-2.77-3.35-.06-5.53,1.42-6.66,2.57-3.6-.97-6.12-.71-7.68.79-1.1,1.06-1.36,2.4-1.35,3.43-.89.71-1.95,1.85-2.1,3.33-.07.71.03,2.08,1.49,3.31,2.23,1.88,5.1,1.53,7.08.78.68.48,1.65,1,2.91,1.33,1.05.27,2.25.44,3.53.44.34,0,.68-.02,1.03-.04v.19l-6.83,3.04c-1.01.45-1.46,1.63-1.02,2.64.33.75,1.06,1.19,1.83,1.19.27,0,.55-.06.81-.17l5.21-2.32v2.01l-10.81,4.43-7.39-2.91c-1.03-.41-2.19.1-2.59,1.13-.4,1.03.1,2.19,1.13,2.59l3.5,1.38-3.3,1.35-6.99-2.6c-1.04-.38-2.19.14-2.57,1.18s.14,2.19,1.18,2.57l2.93,1.09-3.09,1.27-7.56-2.28c-1.05-.32-2.17.28-2.49,1.34-.32,1.06.28,2.17,1.34,2.49l2.85.86-3.4,1.4-6.82-1.78c-1.07-.28-2.16.36-2.44,1.43-.28,1.07.36,2.16,1.43,2.44l1.67.43-3.58,1.47c-1.02.42-1.51,1.59-1.09,2.61Zm50.62,21.66l-2.02-2.26,1.54-2.22,1.97,2.75-1.49,1.73Zm-6.07-54.41c-1.39-.36-2.06-1.09-2.07-1.09-.39-.47-.96-.72-1.54-.72-.34,0-.69.09-1.01.27-.02.01-2.44,1.34-3.78.26.23-.27.69-.65,1.09-.87.82-.45,1.22-1.41.96-2.31-.05-.17-.1-.79.08-.97,0,0,.91-.81,4.99.53.91.3,1.92-.09,2.38-.94.01-.02,1.08-1.83,4.03-1.83.04,0,.07,0,.11,0,2.91.04,3.96,1.95,4.06,2.14.24.52.71.9,1.26,1.06.55.16,1.15.07,1.63-.23.12-.08,3.07-1.89,6.84-.64.06.02.11.04.16.06-.22.16-.47.32-.7.43-.66.34-1.08,1.01-1.1,1.75-.01.74.39,1.43,1.04,1.79.1.05.25.16.38.27-.12.07-.29.16-.49.25-3.24,1.44-7.43-1.09-7.47-1.11-.73-.45-1.66-.39-2.32.16-2.7,2.21-6.18,2.35-8.55,1.73Z"/>
  <path d="m82.24,19.39c0,1.1.9,2,2,2h3.86l-2.45,2.11c-.84.72-.93,1.98-.21,2.82.4.46.96.7,1.52.7.46,0,.93-.16,1.3-.48l3.24-2.78v3.6c0,1.1.9,2,2,2s2-.9,2-2v-3.6l3.24,2.78c.38.32.84.48,1.3.48.56,0,1.12-.24,1.52-.7.72-.84.62-2.1-.21-2.82l-2.45-2.11h3.86c1.1,0,2-.9,2-2s-.9-2-2-2h-3.86l2.45-2.11c.84-.72.93-1.98.21-2.82s-1.98-.93-2.82-.21l-3.24,2.78v-3.6c0-1.1-.9-2-2-2s-2,.9-2,2v3.6l-3.24-2.78c-.84-.72-2.1-.62-2.82.21-.72.84-.62,2.1.21,2.82l2.45,2.11h-3.86c-1.1,0-2,.9-2,2Z"/>
  <path d="m13.12,19.39c0,1.1.9,2,2,2h3.86l-2.45,2.11c-.84.72-.93,1.98-.21,2.82.4.46.96.7,1.52.7.46,0,.93-.16,1.3-.48l3.24-2.78v3.6c0,1.1.9,2,2,2s2-.9,2-2v-3.6l3.24,2.78c.38.32.84.48,1.3.48.56,0,1.12-.24,1.52-.7.72-.84.62-2.1-.21-2.82l-2.45-2.11h3.86c1.1,0,2-.9,2-2s-.9-2-2-2h-3.86l2.45-2.11c.84-.72.93-1.98.21-2.82s-1.98-.93-2.82-.21l-3.24,2.78v-3.6c0-1.1-.9-2-2-2s-2,.9-2,2v3.6l-3.24-2.78c-.84-.72-2.1-.62-2.82.21s-.62,2.1.21,2.82l2.45,2.11h-3.86c-1.1,0-2,.9-2,2Z"/>
  <path d="m104.75,72.04c0-1.1-.9-2-2-2h-3.86l2.45-2.11c.84-.72.93-1.98.21-2.82s-1.98-.93-2.82-.21l-3.24,2.78v-3.6c0-1.1-.9-2-2-2s-2,.9-2,2v3.6l-3.24-2.78c-.84-.72-2.1-.62-2.82.21-.72.84-.62,2.1.21,2.82l2.45,2.11h-3.86c-1.1,0-2,.9-2,2s.9,2,2,2h3.86l-2.45,2.11c-.84.72-.93,1.98-.21,2.82.4.46.96.7,1.52.7.46,0,.93-.16,1.3-.48l3.24-2.78v3.6c0,1.1.9,2,2,2s2-.9,2-2v-3.6l3.24,2.78c.38.32.84.48,1.3.48.56,0,1.12-.24,1.52-.7.72-.84.62-2.1-.21-2.82l-2.45-2.11h3.86c1.1,0,2-.9,2-2Z"/>
  <path d="m71.19,101.8c0-1.1-.9-2-2-2h-3.86l2.45-2.11c.84-.72.93-1.98.21-2.82-.72-.84-1.98-.93-2.82-.21l-3.24,2.78v-3.6c0-1.1-.9-2-2-2s-2,.9-2,2v3.6l-3.24-2.78c-.84-.72-2.1-.62-2.82.21-.72.84-.62,2.1.21,2.82l2.45,2.11h-3.86c-1.1,0-2,.9-2,2s.9,2,2,2h3.86l-2.45,2.11c-.84.72-.93,1.98-.21,2.82.4.46.96.7,1.52.7.46,0,.93-.16,1.3-.48l3.24-2.78v3.6c0,1.1.9,2,2,2s2-.9,2-2v-3.6l3.24,2.78c.38.32.84.48,1.3.48.56,0,1.12-.24,1.52-.7.72-.84.62-2.1-.21-2.82l-2.45-2.11h3.86c1.1,0,2-.9,2-2Z"/>
  <path d="m13.12,72.04c0,1.1.9,2,2,2h3.86l-2.45,2.11c-.84.72-.93,1.98-.21,2.82.4.46.96.7,1.52.7.46,0,.93-.16,1.3-.48l3.24-2.78v3.6c0,1.1.9,2,2,2s2-.9,2-2v-3.6l3.24,2.78c.38.32.84.48,1.3.48.56,0,1.12-.24,1.52-.7.72-.84.62-2.1-.21-2.82l-2.45-2.11h3.86c1.1,0,2-.9,2-2s-.9-2-2-2h-3.86l2.45-2.11c.84-.72.93-1.98.21-2.82s-1.98-.93-2.82-.21l-3.24,2.78v-3.6c0-1.1-.9-2-2-2s-2,.9-2,2v3.6l-3.24-2.78c-.84-.72-2.1-.62-2.82.21s-.62,2.1.21,2.82l2.45,2.11h-3.86c-1.1,0-2,.9-2,2Z"/>
</svg>