<?xml version="1.0" encoding="UTF-8"?>
<svg id="icons" xmlns="http://www.w3.org/2000/svg" viewBox="0 0 120 120">
  <path d="m79,11.61c-.17-.1-.35-.16-.53-.21-5.74-2.19-11.97-3.4-18.47-3.4C31.33,8,8,31.33,8,60c0,6.22,1.1,12.18,3.11,17.71.01.02.01.05.02.08.03.12.07.23.12.34,0,.02.02.03.03.04,5.32,14.22,16.7,25.52,30.98,30.71.15.07.3.12.47.16,5.41,1.91,11.22,2.96,17.27,2.96,22.01,0,40.85-13.75,48.43-33.1,0,0,.01-.02.02-.03.09-.11.17-.23.24-.35.01-.02.03-.04.04-.06,0-.01,0-.02.01-.03.03-.07.05-.14.08-.21.02-.06.04-.11.06-.17.01-.06.02-.12.03-.18.01-.07.02-.14.03-.21,0-.02,0-.04,0-.06,1.98-5.5,3.07-11.42,3.07-17.59,0-21.97-13.7-40.78-33-48.39Zm19.57,59.66l4.29-5.35,1.43,8.14-5.72-2.79Zm-26.36,33.07l-7.99-1.5,5.32-3.97,2.67,5.47Zm-56.64-30.43l1.54-8.01,4.2,5.33-5.74,2.68Zm-3.57-13.9c0-2.1.15-4.17.41-6.2l1.52,7.43-1.28,6.64c-.42-2.56-.66-5.19-.66-7.87Zm67.54-29.77l-51.66,44.29c-.81-1.79-1.49-3.66-2-5.6l31.5-27,1.27.57c.26.12.54.17.81.17s.57-.06.83-.18l4.7-2.14c.05-.02.1-.05.15-.08,4.49-2.54,9.56-6.15,10.84-12.05,1.24.6,2.42,1.29,3.56,2.03Zm-31,6.68c1.39,1.23,3,2.31,4.81,3.19l-28.33,24.29c-.18-1.44-.28-2.9-.28-4.39,0-.94.04-1.87.12-2.79l23.68-20.31Zm23.76-12.83v1.21c0,5.55-4.56,8.9-9.04,11.44l-3.8,1.73-3.73-1.66c-5.69-2.53-9.09-7.29-9.09-12.73,0-2.71,2.21-4.92,4.92-4.92h15.83c2.71,0,4.92,2.21,4.92,4.92Zm-26.45,9.87l-19.79,16.97c.04-.19.06-.38.05-.57,2.59-9.08,8.76-16.88,17.24-21.43.54,1.8,1.38,3.49,2.5,5.03Zm-28.8,22.54l-1.65-8.05,5.66,2.76-4.01,5.29Zm1.45,4.71l2.31-3.05c-.03.62-.07,1.24-.07,1.86,0,1.47.09,2.92.25,4.35l-2.48-3.16Zm64.35-28.53c1.27,1.06,2.46,2.21,3.55,3.45l-53.77,46.1c-1.04-1.28-2-2.63-2.85-4.05l53.07-45.5Zm6.02,6.6c.96,1.38,1.82,2.84,2.58,4.36l-52.27,44.82c-1.36-1-2.65-2.09-3.85-3.27l53.54-45.91Zm14.24,17.24l-4.13-5.7,6.18-3.01-2.04,8.71Zm-43.17,38.76c-2.68,0-5.29-.32-7.8-.89l43.06-36.25c.03.63.07,1.25.07,1.89,0,1.81-.14,3.58-.4,5.32l-34.93,29.94Zm39.25-37.36l2.36,3.25-2.52,3.15c.15-1.41.24-2.85.24-4.3,0-.71-.04-1.4-.08-2.1Zm-6.09-10.42c.67,1.88,1.19,3.84,1.55,5.86l-47.1,39.65c-1.69-.64-3.31-1.41-4.87-2.29l50.41-43.22Zm-38.46,55.35l-7.93,1.53,2.66-5.46,5.27,3.92Zm5.36-3.57c.17,0,.35-.01.52-.01.05,0,.1.02.15.02.11,0,.22-.01.33-.03.48-.01.96-.03,1.43-.06l-3,2.23-3.13-2.33c1.22.11,2.45.18,3.7.18Zm6.87-4.68l26.26-22.52c-4.18,11.43-14.11,20.11-26.26,22.52Zm41.13-34.59c0,2.76-.25,5.47-.7,8.11l-1.2-6.84,1.58-6.74c.2,1.8.32,3.62.32,5.47Zm-2.97-16.61l-7.8,3.81c-.39-1.21-.84-2.39-1.34-3.54-.05-.21-.14-.41-.26-.61-1.27-2.79-2.85-5.41-4.71-7.8-.05-.08-.1-.16-.17-.24-.05-.06-.11-.11-.17-.16-3.76-4.67-8.61-8.42-14.29-10.88-.02-1.54-.42-2.98-1.13-4.24l3.41-3.99c12.2,5.14,21.85,15.18,26.46,27.65Zm-30.46-29.12l-2.12,2.48c-1.44-1-3.19-1.59-5.07-1.59h-15.83c-2.1,0-4.02.73-5.55,1.95l-1.81-2.42c4.95-1.73,10.27-2.69,15.8-2.69,5.08,0,9.97.8,14.57,2.27Zm-34.22,1.95l3.1,4.15c-.52,1.13-.81,2.38-.81,3.7,0,.24.02.48.03.72-9.52,4.7-16.6,12.98-19.88,22.79l-7.93-3.87c4.43-12.24,13.71-22.17,25.5-27.49Zm-24.72,62.07l1.62-.76c3.32,8.76,9.29,15.79,18.23,21.42.33.21.7.31,1.06.31.66,0,1.31-.33,1.69-.93.59-.93.31-2.17-.62-2.76-8.38-5.29-13.73-11.59-16.73-19.74l2.68-1.25c.54,1.34,1.14,2.65,1.82,3.91.05.11.1.22.17.32,1.46,2.66,3.22,5.13,5.23,7.37.04.05.06.1.1.15.06.07.13.13.2.19,4.08,4.45,9.18,7.95,14.92,10.15l-3.84,7.87c-11.99-4.82-21.6-14.33-26.53-26.26Zm36.62,29.08l7.09-1.37,7.83,1.47c-2.34.35-4.74.54-7.18.54-2.64,0-5.22-.22-7.75-.63Zm24.68-2.46l-3.85-7.89c10.61-3.76,19.12-11.95,23.32-22.35l2.51,1.22c-3.44,8.41-9.57,15.55-17.43,20.23-.95.57-1.26,1.79-.69,2.74.37.63,1.04.98,1.72.98.35,0,.7-.09,1.02-.28,8.52-5.08,15.19-12.81,18.98-21.91l1.77.86c-5.09,12.12-15.01,21.73-27.35,26.4Z"/>
  <path d="m61.32,31.79h-3.86c-1.1,0-2,.9-2,2s.9,2,2,2h3.86c1.1,0,2-.9,2-2s-.9-2-2-2Z"/>
  <path d="m51.07,21.19c-1.1,0-2,.9-2,2s.9,2,2,2h6.31v3.71c0,1.1.9,2,2,2s2-.9,2-2v-3.71h6.59c1.1,0,2-.9,2-2s-.9-2-2-2h-16.9Z"/>
  <path d="m76.73,19.21c-.47,1-.03,2.19.97,2.66,8.97,4.17,16.22,11.41,20.4,20.37.34.73,1.06,1.15,1.81,1.15.28,0,.57-.06.84-.19,1-.47,1.43-1.66.97-2.66-4.58-9.82-12.52-17.74-22.34-22.31-1-.47-2.19-.03-2.66.97Z"/>
  <path d="m19.56,42.45c.28.14.58.2.88.2.74,0,1.45-.41,1.8-1.12,3.96-8.07,10.54-14.79,18.53-18.91.98-.51,1.37-1.71.86-2.69-.5-.98-1.71-1.37-2.69-.86-8.75,4.51-15.96,11.87-20.29,20.71-.49.99-.08,2.19.92,2.68Z"/>
</svg>