<?xml version="1.0" encoding="UTF-8"?>
<svg id="icons" xmlns="http://www.w3.org/2000/svg" viewBox="0 0 120 120">
  <path d="m23.7,111.5c.83,0,1.5-.67,1.5-1.5v-1.92h2.25c.83,0,1.5-.67,1.5-1.5s-.67-1.5-1.5-1.5h-2.25v-1.92c0-.83-.67-1.5-1.5-1.5s-1.5.67-1.5,1.5v1.92h-1.88c-.83,0-1.5.67-1.5,1.5s.67,1.5,1.5,1.5h1.88v1.92c0,.83.67,1.5,1.5,1.5Z"/>
  <path d="m50.43,61.33h-.65v-.46c0-.83-.67-1.5-1.5-1.5s-1.5.67-1.5,1.5v.46h-.43c-.83,0-1.5.67-1.5,1.5s.67,1.5,1.5,1.5h.43v.46c0,.83.67,1.5,1.5,1.5s1.5-.67,1.5-1.5v-.46h.65c.83,0,1.5-.67,1.5-1.5s-.67-1.5-1.5-1.5Z"/>
  <path d="m56.13,86.37c-.61,0-1.1.47-1.1,1.05s.49,1.05,1.1,1.05,1.1-.47,1.1-1.05-.49-1.05-1.1-1.05Z"/>
  <path d="m39.13,96.63c-.49,0-.89.38-.89.85s.4.85.89.85.89-.38.89-.85-.4-.85-.89-.85Z"/>
  <path d="m111.5,96.26c0-.76-.57-1.39-1.31-1.48.41-.58.39-1.36-.11-1.89-.55-.57-1.44-.6-2.04-.1-.08-.75-.71-1.33-1.48-1.33s-1.4.58-1.48,1.33c-.6-.5-1.49-.47-2.04.1-.51.53-.52,1.32-.11,1.89-.74.09-1.31.72-1.31,1.48s.54,1.35,1.24,1.47l-.79.76-4.96-3.56c-.52-.37-1.21-.38-1.73-.01l-5.09,3.55-17.01-10.95,9.78-11.05c1.02-1.16,2.52-1.82,4.12-1.82h1.23c2.96,0,5.37,2.28,5.37,5.08s-2.41,5.08-5.37,5.08h-2.72c-.83,0-1.5.67-1.5,1.5s.67,1.5,1.5,1.5h2.72c4.62,0,8.37-3.63,8.37-8.08,0-3.52-2.35-6.52-5.61-7.62V31.73c.27-1.96,1.33-2.89,2.26-3.11.31-.07,1.07-.17,1.52.5.17.24.2.5.08.7-.15.25-.54.37-1.04.31-.82-.1-1.57.5-1.66,1.32-.09.82.5,1.57,1.32,1.66.2.02.39.03.58.03,1.45,0,2.68-.64,3.36-1.77.73-1.2.67-2.71-.16-3.93-1.03-1.52-2.83-2.18-4.71-1.73-.74.18-1.52.56-2.23,1.15-1.21-3.08-3.84-4.52-6.34-4.52h0c-3.03,0-5.32,1.97-5.33,4.58,0,2.71,1.99,4.09,3.86,4.22,1.95.15,3.56-.98,3.8-2.66.12-.82-.44-1.6-1.26-1.72-.83-.12-1.57.43-1.69,1.25-.08.1-.54.24-1.02.05-.46-.17-.68-.55-.68-1.14,0-1.03,1.2-1.59,2.33-1.59h0c1.85,0,4.02,1.42,4.02,5.4v4.41c-.11.09-.21.18-.29.3-1.1,1.55-2.26,2.22-3.03,1.76-.48-.29-.62-.83-.56-.95.03-.03.22-.15.71-.15h0c.83,0,1.5-.67,1.5-1.5s-.67-1.5-1.5-1.5h0c-2.3,0-3.4,1.32-3.65,2.55-.35,1.7.71,3.62,2.43,4.36.3.13.87.32,1.61.32s1.75-.22,2.79-.95v32.27h-.99c-2.45,0-4.77,1.03-6.36,2.83l-10.09,11.39-8.04-5.18,3.69-3.42c.39-.36.96-.54,1.46-.5.4.04.71.22.94.54.37.51.2,1.14-.1,1.51-.26.31-.72.61-1.49.26-.75-.34-1.64-.02-1.99.74-.35.75-.02,1.64.74,1.99,1.84.85,3.82.42,5.06-1.08,1.24-1.5,1.33-3.63.23-5.17-.73-1.02-1.83-1.65-3.08-1.78-1.29-.13-2.62.3-3.62,1.14l-3-2.46v-1.82c1.45-.59,2.73-1.34,3.83-2.19,3.5,2.3,6.55,3.79,9.91,3.79,1.39,0,2.84-.26,4.39-.82,5.12-1.85,6.58-5.52,6.25-8.33-.4-3.35-3.17-6.06-6.59-6.44-.82-.09-1.56.5-1.66,1.33-.09.82.5,1.56,1.33,1.66,2.05.23,3.71,1.83,3.94,3.81.26,2.2-1.3,4.08-4.29,5.16-3.91,1.41-6.99.32-11.08-2.3.61-.77,1.1-1.58,1.45-2.41,1.57-3.73.42-7.54-3.08-10.18-1.53-1.15-3-2.08-4.4-2.88v-16.44c4.83.17,9.53,2.5,11.05,7.27-.71.36-1.46.95-1.83,1.89-.49,1.25-.15,2.65,1.02,4.16,1.38,1.78,2.85,2.48,4.11,2.56l.89,2.28c.23.59.8.95,1.4.95.18,0,.37-.03.55-.1.77-.3,1.15-1.17.85-1.94l-.88-2.26c1.01-1.05,1.38-2.71.94-4.56-.48-2.03-1.54-2.93-2.35-3.33-.62-.31-1.26-.42-1.79-.4-1.9-6.28-7.87-9.33-13.96-9.51v-2.33c.76.41,1.62.7,2.57.7.7,0,1.43-.15,2.2-.52,1.52-.73,2.45-2.08,2.5-3.61.05-1.34-.6-2.57-1.69-3.19-1.14-.65-2.55-.55-3.88.28-.61.38-.92,1.14-.68,1.81.35.94,1.43,1.27,2.22.77.42-.27.73-.32.85-.25.1.06.19.24.19.48,0,.24-.12.68-.8,1.01-1.67.8-3.11-.9-3.47-1.37v-5.95l1.99,1.82c.29.26.65.39,1.01.39.41,0,.81-.16,1.11-.49.56-.61.52-1.56-.09-2.12l-1.65-1.51h2.5c.83,0,1.5-.67,1.5-1.5s-.67-1.5-1.5-1.5h-2.5l1.65-1.51c.61-.56.65-1.51.09-2.12s-1.51-.65-2.12-.09l-1.99,1.82v-2.42c0-.83-.67-1.5-1.5-1.5s-1.5.67-1.5,1.5v2.42l-1.99-1.82c-.61-.56-1.56-.52-2.12.09-.56.61-.52,1.56.09,2.12l1.65,1.51h-2.5c-.83,0-1.5.67-1.5,1.5s.67,1.5,1.5,1.5h2.5l-1.65,1.51c-.61.56-.65,1.51-.09,2.12.3.32.7.49,1.11.49.36,0,.72-.13,1.01-.39l1.99-1.82v6.16c-.53.62-1.82,1.87-3.3,1.16-.68-.33-.79-.77-.8-1,0-.24.09-.42.18-.48.12-.07.43-.02.85.25.7.45,1.62.24,2.07-.46.45-.7.24-1.62-.46-2.07-1.36-.87-2.8-.99-3.95-.33-1.09.62-1.74,1.85-1.69,3.19.06,1.53.99,2.88,2.5,3.6.76.37,1.5.52,2.2.52.87,0,1.68-.24,2.39-.61v2.38c-.06,0-.13.01-.19.02-6.77.93-11.01,5.09-10.56,10.37.46,5.42,4.25,7.35,8.62,9.58.68.35,1.39.71,2.12,1.1v7.4c-1.69-1.17-3.53-2.39-5.59-3.66-4.74-2.93-9.52-3.27-12.78-.9-2.45,1.78-3.52,4.72-2.8,7.69,1.07,4.4,5.74,7.64,12.5,8.67,3.19.49,6.1.34,8.67-.24v.85l-3.01,2.47c-.9-.76-2.01-1.15-3.16-1.09-1.19.07-2.28.6-3.07,1.52-1.19,1.37-1.27,3.36-.19,4.94,1.06,1.55,2.91,2.18,4.63,1.57.78-.28,1.19-1.13.91-1.92-.28-.78-1.14-1.19-1.92-.91-.62.22-1.01-.23-1.15-.43-.23-.34-.37-.87-.02-1.28.33-.38.71-.47.97-.49.42-.03.81.13,1.14.44l3.69,3.42-8.05,5.17-10.07-11.38c-1.59-1.8-3.91-2.83-6.36-2.83h-1.23c-4.62,0-8.37,3.63-8.37,8.08s3.75,8.08,8.37,8.08h2.72c.83,0,1.5-.67,1.5-1.5s-.67-1.5-1.5-1.5h-2.72c-2.96,0-5.37-2.28-5.37-5.08s2.41-5.08,5.37-5.08h1.23c1.59,0,3.09.66,4.12,1.82l9.76,11.03-8.22,5.27s0,0,0,0l-8.82,5.66-5.03-3.51c-.52-.36-1.22-.36-1.73.01l-4.96,3.56-.79-.76c.7-.12,1.24-.73,1.24-1.47s-.57-1.39-1.31-1.48c.41-.58.39-1.36-.11-1.89-.55-.57-1.44-.6-2.04-.1-.08-.75-.71-1.33-1.48-1.33s-1.4.58-1.48,1.33c-.6-.5-1.49-.48-2.04.1-.51.53-.52,1.32-.11,1.89-.74.09-1.31.72-1.31,1.48s.57,1.39,1.31,1.48c-.41.58-.39,1.36.11,1.89.29.31.69.46,1.08.46.34,0,.68-.13.96-.36.09.75.71,1.33,1.48,1.33s1.38-.57,1.48-1.31l1.84,1.77c.29.28.66.42,1.04.42.31,0,.61-.09.88-.28l5.11-3.67,4.98,3.48c.11.07.22.13.34.17.03.01.06.02.09.03.14.04.27.07.41.07,0,0,0,0,.01,0h12.62c.08.01.17.03.25.03.05,0,.1-.02.15-.03h16.96c.09.02.17.03.26.03h30.36s.03,0,.05,0c.32.01.65-.07.93-.26l4.98-3.48,5.11,3.67c.26.19.57.28.88.28.38,0,.75-.14,1.04-.42l1.84-1.77c.1.74.72,1.31,1.48,1.31s1.4-.58,1.48-1.33c.28.23.61.36.96.36.39,0,.79-.16,1.08-.46.51-.53.52-1.32.11-1.89.74-.09,1.31-.72,1.31-1.48Zm-37.99-51.61c.07-.18.62-.46,1.07-.54.12-.02.24-.05.35-.1.07-.03.61-.21,1,0,.32.16.58.64.75,1.33.25,1.03.02,1.74-.33,1.91-.35.17-1.22-.06-2.23-1.36-.59-.76-.62-1.16-.6-1.23Zm-12.01,22.73v-1.58c.41.29.83.59,1.23.87-.38.25-.79.49-1.23.71Zm-3.76-18.54c-4.51-2.3-6.69-3.57-7-7.16-.35-4.06,3.61-6.48,7.76-7.11v14.66c-.26-.13-.51-.26-.76-.39Zm3.76,5.5c.85.53,1.71,1.11,2.59,1.78,2.4,1.81,3.15,4.16,2.12,6.62-.28.66-.67,1.29-1.17,1.9-.76-.53-1.57-1.11-2.42-1.71-.37-.26-.74-.53-1.12-.8v-7.78Zm-11.22,14.51c-5.51-.84-9.27-3.24-10.04-6.41-.43-1.76.2-3.51,1.65-4.55.92-.67,2.05-1,3.33-1,1.83,0,3.95.68,6.11,2.02,2.71,1.67,5.05,3.28,7.17,4.77v4.83c-2.35.62-5.12.82-8.22.35Zm24.55,29.89c.06-1.46.45-3.83,2.24-5.2l.54.35c-1.49,1.54-1.96,3.36-1.97,4.85h-.82Zm-.38-6.89c-2.12,2.12-2.58,5.06-2.62,6.89h-8.5l7.92-8.95,3.2,2.06Zm-12.95,4.43v-12.78l7.2,4.64-7.2,8.14Zm.77-19.31l-.77.71v-1.35l.77.63Zm-3.77.69l-.77-.71.77-.63v1.35Zm0,5.81v12.78l-7.22-8.15,7.22-4.63Zm-1.83,15.24h-8.81c.03-1.75-.34-4.45-2.45-6.83l3.33-2.14,7.94,8.97Zm-12.53,0c-.02-1.62-.47-3.52-1.88-4.82l.57-.36c1.79,1.78,2.06,3.9,2.03,5.18h-.72Zm-4.64-3.05c1.35.6,1.64,2,1.64,3.05h-6.39l4.75-3.05Zm39.14,3.07c0-.88.28-2.14,1.58-3.17l4.93,3.17h-6.51Z"/>
  <path d="m96.18,111.5c.83,0,1.5-.67,1.5-1.5v-1.92h1.88c.83,0,1.5-.67,1.5-1.5s-.67-1.5-1.5-1.5h-1.88v-1.92c0-.83-.67-1.5-1.5-1.5s-1.5.67-1.5,1.5v1.92h-2.25c-.83,0-1.5.67-1.5,1.5s.67,1.5,1.5,1.5h2.25v1.92c0,.83.67,1.5,1.5,1.5Z"/>
  <ellipse cx="63.87" cy="87.45" rx="1.1" ry="1.05"/>
  <path d="m80.04,97.53c0,.46.38.84.84.84s.84-.38.84-.84-.38-.84-.84-.84-.84.38-.84.84Z"/>
  <path d="m88.63,21.25c0,1.85,1.54,3.36,3.44,3.36s3.44-1.51,3.44-3.36-1.54-3.36-3.44-3.36-3.44,1.51-3.44,3.36Zm3.44-.36c.24,0,.44.16.44.36s-.2.36-.44.36-.44-.16-.44-.36.2-.36.44-.36Z"/>
</svg>