<?xml version="1.0" encoding="UTF-8"?>
<svg id="icons" xmlns="http://www.w3.org/2000/svg" viewBox="0 0 120 120">
  <path d="m22.48,35.09c0,.65.32,1.23.81,1.6-.05.55.11,1.12.53,1.56.39.42.92.63,1.46.63.11,0,.22-.01.34-.03.37.47.93.77,1.57.77s1.2-.3,1.57-.77c.11.02.22.03.34.03.53,0,1.06-.21,1.46-.63.41-.44.58-1.01.53-1.56.49-.36.81-.94.81-1.6s-.32-1.23-.81-1.6c.05-.55-.11-1.12-.53-1.56-.48-.51-1.16-.71-1.79-.6-.37-.47-.93-.77-1.57-.77s-1.2.3-1.57.77c-.64-.11-1.32.09-1.79.6-.41.44-.58,1.01-.53,1.56-.49.36-.81.94-.81,1.6Z"/>
  <path d="m11.84,39.54c0,.65.32,1.23.81,1.6-.05.55.11,1.12.53,1.56.39.42.92.63,1.46.63.11,0,.22-.01.34-.03.37.47.93.77,1.57.77s1.2-.3,1.57-.77c.11.02.22.03.34.03.53,0,1.06-.21,1.46-.63.41-.44.58-1.01.53-1.56.49-.36.81-.94.81-1.6s-.32-1.23-.81-1.6c.05-.55-.11-1.12-.53-1.56-.48-.51-1.16-.71-1.79-.6-.37-.47-.93-.77-1.57-.77s-1.2.3-1.57.77c-.64-.11-1.32.09-1.79.6-.41.44-.58,1.01-.53,1.56-.49.36-.81.94-.81,1.6Z"/>
  <path d="m21.74,45.33c-.64-.11-1.32.09-1.79.6-.41.44-.58,1.01-.53,1.56-.49.36-.81.94-.81,1.6s.32,1.23.81,1.6c-.05.55.11,1.12.53,1.56.39.42.92.63,1.46.63.11,0,.22-.01.34-.03.37.47.93.77,1.57.77s1.2-.3,1.57-.77c.11.02.22.03.34.03.53,0,1.06-.21,1.46-.63.41-.44.58-1.01.53-1.56.49-.36.81-.94.81-1.6s-.32-1.23-.81-1.6c.05-.55-.11-1.12-.53-1.56-.48-.51-1.15-.71-1.79-.6-.37-.47-.93-.77-1.57-.77s-1.2.3-1.57.77Z"/>
  <path d="m36.57,51.23c-.48-.51-1.16-.71-1.79-.6-.37-.47-.93-.77-1.57-.77s-1.2.3-1.57.77c-.64-.11-1.32.09-1.79.6-.41.44-.58,1.01-.52,1.56-.49.36-.8.94-.8,1.59s.32,1.23.8,1.59c-.05.55.11,1.12.52,1.56.39.42.93.63,1.46.63.11,0,.22-.01.34-.03.37.47.93.77,1.57.77s1.2-.31,1.57-.77c.11.02.22.03.34.03.53,0,1.06-.21,1.46-.63.41-.44.58-1.01.52-1.56.49-.36.8-.94.8-1.59s-.32-1.23-.8-1.59c.05-.55-.11-1.13-.52-1.56Z"/>
  <path d="m94.39,38.84c.11.02.22.03.34.03.53,0,1.06-.21,1.46-.63.41-.44.58-1.01.53-1.56.49-.36.81-.94.81-1.6s-.32-1.23-.81-1.6c.05-.55-.11-1.12-.53-1.56-.48-.51-1.16-.71-1.79-.6-.37-.47-.93-.77-1.57-.77s-1.2.3-1.57.77c-.64-.11-1.32.09-1.79.6-.41.44-.58,1.01-.53,1.56-.49.36-.81.94-.81,1.6s.32,1.23.81,1.6c-.05.55.11,1.12.53,1.56.39.42.92.63,1.46.63.11,0,.22-.01.34-.03.37.47.93.77,1.57.77s1.2-.3,1.57-.77Z"/>
  <path d="m101.38,49.09c0-.65-.32-1.23-.81-1.6.05-.55-.11-1.12-.53-1.56-.48-.51-1.15-.71-1.79-.6-.37-.47-.93-.77-1.57-.77s-1.2.3-1.57.77c-.64-.11-1.32.09-1.79.6-.41.44-.58,1.01-.53,1.56-.49.36-.81.94-.81,1.6s.32,1.23.81,1.6c-.05.55.11,1.12.53,1.56.39.42.92.63,1.46.63.11,0,.22-.01.34-.03.37.47.93.77,1.57.77s1.2-.3,1.57-.77c.11.02.22.03.34.03.53,0,1.06-.21,1.46-.63.41-.44.58-1.01.53-1.56.49-.36.81-.94.81-1.6Z"/>
  <path d="m91.48,54.38c0-.65-.32-1.23-.81-1.6.05-.55-.11-1.12-.53-1.56-.48-.51-1.16-.71-1.79-.6-.37-.47-.93-.77-1.57-.77s-1.2.3-1.57.77c-.64-.11-1.32.09-1.79.6-.41.44-.58,1.01-.53,1.56-.49.36-.81.94-.81,1.6s.32,1.23.81,1.6c-.05.55.11,1.12.53,1.56.39.42.92.63,1.46.63.11,0,.22-.01.34-.03.37.47.93.77,1.57.77s1.2-.3,1.57-.77c.11.02.22.03.34.03.53,0,1.06-.21,1.46-.63.41-.44.58-1.01.53-1.56.49-.36.81-.94.81-1.6Z"/>
  <path d="m110,71.11h-2.2v-2.05c0-1.1-.9-2-2-2s-2,.9-2,2v2.05h-8.06v-4.54h2.36c1.1,0,2-.9,2-2s-.9-2-2-2h-2.36v-1.84c0-1.1-.9-2-2-2s-2,.9-2,2v1.84h-2.11c-1.1,0-2,.9-2,2s.9,2,2,2h2.11v4.54h-29.49c-.09-.43-.15-.89-.19-1.39,1.45.98,2.84,1.28,3.99,1.28.84,0,1.54-.16,2.03-.31.58-.18,1.13-.43,1.65-.74,1.78,1.01,4.72,1.58,9.33-.25,1.03-.41,1.53-1.57,1.12-2.6s-1.57-1.53-2.6-1.12c-1.86.74-3.46,1.02-4.68.86.83-1.31,1.27-2.71,1.17-3.87-.14-1.6-1.25-2.77-2.83-2.98-1.7-.23-3.27.59-4.08,2.13-.75,1.41-.77,3.15-.16,4.7-.05.02-.09.03-.14.05-1.43.44-2.82-.27-4.15-2.07l18.91-16.94c2.63-2.58,4.07-6,4.07-9.65,0-6.48-4.63-11.91-10.8-13.28v-.88h21.54v2.26c0,1.1.9,2,2,2s2-.9,2-2v-2.26h1.87v.56c0,1.1.9,2,2,2s2-.9,2-2v-.56h.64c1.1,0,2-.9,2-2s-.9-2-2-2h-.64v-.24c0-1.1-.9-2-2-2s-2,.9-2,2v.24h-1.87v-2.48c0-1.1-.9-2-2-2s-2,.9-2,2v2.48h-21.54v-1.38h2.6c1.1,0,2-.9,2-2s-.9-2-2-2h-2.6v-1.14c0-1.1-.9-2-2-2s-2,.9-2,2v1.14h-2.43c-1.1,0-2,.9-2,2s.9,2,2,2h2.43v1.38h-8.92l.03-4.94h2.69c1.1,0,2-.9,2-2s-.9-2-2-2h-2.67v-1.11c.01-1.1-.88-2-1.98-2.01h-.01c-1.1,0-1.99.89-2,1.99v1.13h-2.37c-1.1,0-2,.9-2,2s.9,2,2,2h2.34l-.03,4.94h-8.86v-1.38h2.43c1.1,0,2-.9,2-2s-.9-2-2-2h-2.43v-1.14c0-1.1-.9-2-2-2s-2,.9-2,2v1.14h-2.6c-1.1,0-2,.9-2,2s.9,2,2,2h2.6v1.38h-21.54v-2.48c0-1.1-.9-2-2-2s-2,.9-2,2v2.48h-1.87v-.24c0-1.1-.9-2-2-2s-2,.9-2,2v.24h-.64c-1.1,0-2,.9-2,2s.9,2,2,2h.64v.56c0,1.1.9,2,2,2s2-.9,2-2v-.56h1.87v2.26c0,1.1.9,2,2,2s2-.9,2-2v-2.26h21.54v.88c-6.17,1.37-10.8,6.8-10.8,13.28,0,3.65,1.45,7.08,4.14,9.71l18.89,16.93c-1.28,1.49-2.63,2.05-4.02,1.64,0,0,0,0-.01,0,.48-1.46.41-3.05-.28-4.36-.82-1.54-2.38-2.36-4.08-2.13-1.57.21-2.68,1.34-2.83,2.88-.12,1.25.39,2.67,1.3,3.94-1.23.2-2.88-.08-4.8-.84-1.03-.41-2.19.1-2.6,1.12-.41,1.03.1,2.19,1.12,2.6,2.17.86,3.98,1.19,5.46,1.19,1.85,0,3.21-.51,4.18-1.14.36.19.73.35,1.11.48,1.16.4,3.54.84,6.1-.7v.23c-.04.48-.1.92-.18,1.34h-29.54v-4.54h2.11c1.1,0,2-.9,2-2s-.9-2-2-2h-2.11v-1.84c0-1.1-.9-2-2-2s-2,.9-2,2v1.84h-2.36c-1.1,0-2,.9-2,2s.9,2,2,2h2.36v4.54h-8.06v-2.05c0-1.1-.9-2-2-2s-2,.9-2,2v2.05h-2.2c-1.1,0-2,.9-2,2s.9,2,2,2h2.2v1.91c0,1.1.9,2,2,2s2-.9,2-2v-1.91h8.06v4.87h-2.36c-1.1,0-2,.9-2,2s.9,2,2,2h2.36v1.75c0,1.1.9,2,2,2s2-.9,2-2v-1.75h2.11c1.1,0,2-.9,2-2s-.9-2-2-2h-2.11v-4.87h27.63c-.84.94-1.83,1.57-2.78,1.98-.48-.5-1.23-.96-2.37-1.19-1.85-.37-3.48.05-4.36,1.13-.65.79-.81,1.82-.42,2.75.2.47.65,1.18,1.68,1.65-.4.25-.86.49-1.36.72-1,.46-1.44,1.65-.98,2.65.34.73,1.06,1.17,1.82,1.17.28,0,.56-.06.83-.18,2.2-1.01,4.61-2.69,5.59-4.65.99-.33,2.07-.81,3.12-1.49l-31.28,25.23h-4.15v-1.02c0-1.1-.9-2-2-2s-2,.9-2,2v1.02h-1.88c-1.1,0-2,.9-2,2s.9,2,2,2h1.88v1.12c0,1.1.9,2,2,2s2-.9,2-2v-1.12h77.56v1.12c0,1.1.9,2,2,2s2-.9,2-2v-1.12h1.88c1.1,0,2-.9,2-2s-.9-2-2-2h-1.88v-1.02c0-1.1-.9-2-2-2s-2,.9-2,2v1.02h-4.16l-32.6-26.18v-.12c1.49,1.3,3.17,2.1,4.64,2.58.99,1.95,3.39,3.63,5.59,4.63.27.12.55.18.83.18.76,0,1.48-.43,1.82-1.17.46-1,.02-2.19-.98-2.65-.5-.23-.96-.48-1.36-.72,1.02-.47,1.48-1.18,1.68-1.65.39-.93.24-1.96-.42-2.75-.88-1.08-2.52-1.5-4.36-1.13-1.16.23-1.91.7-2.39,1.21-.98-.41-2-1.05-2.87-2h27.55v4.87h-2.11c-1.1,0-2,.9-2,2s.9,2,2,2h2.11v1.75c0,1.1.9,2,2,2s2-.9,2-2v-1.75h2.36c1.1,0,2-.9,2-2s-.9-2-2-2h-2.36v-4.87h8.06v1.91c0,1.1.9,2,2,2s2-.9,2-2v-1.91h2.2c1.1,0,2-.9,2-2s-.9-2-2-2ZM49.11,28.63c4.4.4,7.97,3.61,8.78,7.79v1.47s-3.72-1.92-3.72-1.92c-.98-.51-2.19-.12-2.69.86-.51.98-.12,2.19.86,2.69l5.52,2.85v1.19h-4.32c-2.44,0-4.42-1.92-4.42-4.28v-10.66Zm12.74,14.95v-1.04s5.83-3.01,5.83-3.01c.98-.51,1.37-1.71.86-2.69-.51-.98-1.71-1.37-2.69-.86l-3.84,1.98c.03-.17.06-.34.05-.52,0-.1-.02-.2-.03-.3.5-4.54,4.23-8.09,8.88-8.52v10.66c0,2.36-1.98,4.28-4.42,4.28h-4.62Zm-3.87,40.15v2.04c-.31.03-.62-.06-.85-.28-.22-.22-.48-.37-.76-.46l1.61-1.3Zm23.72-45.51c0,2.56-1.02,4.98-2.81,6.73l-16.72,14.98v-2.3c.66-.14,1.29-.46,1.8-.96.79-.77.8-2.04.03-2.83-.49-.5-1.19-.68-1.83-.55v-.47c.66-.14,1.29-.46,1.8-.96.79-.77.8-2.04.03-2.83-.49-.5-1.19-.68-1.83-.55v-.89h4.3c4.64,0,8.42-3.71,8.42-8.28v-10.23c3.94,1.26,6.8,4.88,6.8,9.15Zm-10.8-14.16v.58c-3.5.23-6.65,1.73-8.97,4.04l.02-4.62h8.95Zm-12.95,0l-.02,4.47c-2.3-2.23-5.4-3.66-8.82-3.89v-.58h8.84Zm-16.77,20.95c-1.85-1.82-2.88-4.23-2.88-6.79,0-4.27,2.86-7.89,6.8-9.15v10.23c0,4.57,3.78,8.28,8.42,8.28h4.63v.89c-.64-.13-1.33.05-1.83.55-.77.79-.76,2.05.03,2.83.51.5,1.14.82,1.8.96v.47c-.64-.13-1.33.05-1.83.55-.77.79-.76,2.06.03,2.83.51.5,1.14.82,1.8.96v2.6l-16.27-14.58-.71-.63Zm1.1,51.38c-.14.38-.15.79-.05,1.18-.64.33-1.07.99-1.07,1.76s.44,1.43,1.07,1.76c-.17.64-.02,1.36.47,1.88.39.42.92.63,1.46.63.22,0,.45-.04.66-.12.34.63.99,1.06,1.75,1.06s1.42-.43,1.75-1.06c.22.08.44.12.66.12.53,0,1.06-.21,1.46-.63.49-.52.64-1.24.47-1.88.64-.33,1.07-.99,1.07-1.76s-.44-1.43-1.07-1.76c.17-.64.02-1.36-.47-1.88-.56-.59-1.4-.77-2.12-.51-.34-.63-.99-1.06-1.75-1.06s-1.42.43-1.75,1.06c-.3-.11-.62-.13-.93-.09l9.86-7.95c.05.44.24.87.58,1.2.98.96,2.26,1.44,3.55,1.44.03,0,.07,0,.1,0v1.32c-.31.03-.63-.05-.86-.28-.79-.77-2.05-.76-2.83.03-.77.79-.76,2.05.03,2.83.98.96,2.26,1.44,3.55,1.44.04,0,.08,0,.12-.01v1.2c-.31.03-.63-.05-.86-.28-.79-.77-2.05-.76-2.83.03-.77.79-.76,2.05.03,2.83.98.96,2.26,1.44,3.55,1.44.04,0,.08,0,.12-.01v1.13c-.31.03-.62-.06-.85-.28-.79-.77-2.05-.76-2.83.03-.77.79-.76,2.06.03,2.83.38.37.81.65,1.26.87h-23.84l10.53-8.49Zm22.13,8.49c.45-.23.88-.5,1.26-.87.79-.77.8-2.04.03-2.83-.78-.79-2.04-.8-2.83-.03-.23.22-.54.31-.85.28v-1.13s.08.01.12.01c1.28,0,2.57-.48,3.55-1.44.79-.77.8-2.04.03-2.83-.77-.79-2.04-.8-2.83-.03-.23.23-.55.31-.86.28v-1.2s.08.01.12.01c1.28,0,2.57-.48,3.55-1.44.79-.77.8-2.04.03-2.83-.77-.79-2.04-.8-2.83-.03-.23.23-.55.31-.86.28v-1.32s.07,0,.1,0c1.28,0,2.57-.48,3.55-1.44.32-.31.51-.71.57-1.12l9.79,7.86c-.29-.03-.58,0-.85.1-.34-.63-.99-1.06-1.75-1.06s-1.42.43-1.75,1.06c-.72-.25-1.56-.08-2.12.51-.49.52-.64,1.24-.47,1.88-.64.33-1.07.99-1.07,1.76s.44,1.43,1.07,1.76c-.17.64-.02,1.36.47,1.88.39.42.92.63,1.46.63.22,0,.45-.04.66-.12.34.63.99,1.06,1.75,1.06s1.42-.43,1.75-1.06c.22.08.44.12.66.12.53,0,1.06-.21,1.46-.63.49-.52.64-1.24.47-1.88.64-.33,1.07-.99,1.07-1.76s-.44-1.43-1.07-1.76c.1-.37.09-.75-.03-1.12l10.5,8.43h-23.83Zm-.87-19.83c-.24.1-.47.24-.67.43-.23.22-.54.31-.85.28v-1.93l1.52,1.22Z"/>
</svg>