<?xml version="1.0" encoding="UTF-8"?>
<svg id="icons" xmlns="http://www.w3.org/2000/svg" viewBox="0 0 120 120">
  <path d="m111.33,58.32c.03-.55-.16-1.1-.58-1.52s-.98-.61-1.52-.58c-.37-.4-.89-.66-1.48-.66s-1.11.26-1.48.66c-.55-.03-1.1.16-1.52.58-.28.28-.46.63-.54,1h-.64c.18-.42.34-.87.45-1.35.43-2.05-.73-3.97-2.7-4.46-1.83-.45-3.6.55-4.11,2.33-.3,1.06.31,2.17,1.37,2.47.34.1.69.1,1.01.02-.29.43-.63.76-.91.98h-1.05c-.77-2.86-3.05-5.1-5.93-5.82v-1.38c.8.23,1.55.65,1.93,1.43.49.99,1.68,1.4,2.68.92.99-.49,1.4-1.68.92-2.68-.97-1.97-2.89-3.27-5.41-3.73,1.31-1.62,4.01-4.29,6.54-4.29.58,0,1.06.17,1.37.48.27.27.36.59.36.79,0,.84-.26,1.21-.4,1.3-.65-.83-1.85-1.02-2.72-.4-.9.63-1.12,1.88-.49,2.79.74,1.05,1.92,1.64,3.17,1.64.39,0,.79-.06,1.19-.18,1.56-.49,3.23-2.08,3.26-5.11,0-1.33-.54-2.66-1.52-3.64-1.07-1.07-2.56-1.67-4.21-1.67-.73,0-1.43.11-2.11.29l-2.02-2.05c.05-.29.09-.59.09-.9,0-1.78-.89-3.32-2.21-4.19.17-.09.34-.2.49-.35.41-.41.6-.95.58-1.48.39-.36.64-.88.64-1.46s-.25-1.09-.64-1.46c.02-.53-.17-1.07-.58-1.48s-1-.61-1.56-.57c-.36-.34-.84-.56-1.38-.56s-1.02.21-1.38.56c-.56-.04-1.13.15-1.55.57s-.6.95-.58,1.48c-.39.36-.64.88-.64,1.46s.25,1.09.64,1.46c-.02.53.17,1.07.58,1.48.16.16.34.28.54.37-1.3.87-2.17,2.41-2.17,4.17,0,.28.04.55.08.82l-2.06,2.14c-.67-.18-1.37-.28-2.09-.28-1.65,0-3.15.59-4.21,1.67-.98.98-1.53,2.31-1.52,3.64.02,3.03,1.7,4.63,3.25,5.11.39.12.79.18,1.19.18,1.25,0,2.43-.59,3.17-1.64.63-.9.42-2.15-.49-2.79-.88-.62-2.07-.43-2.72.4-.14-.09-.39-.47-.4-1.3,0-.21.09-.52.36-.79.31-.32.79-.48,1.37-.48.62,0,1.25.17,1.87.44.01,0,.03.01.04.02,1.91.84,3.69,2.67,4.66,3.88-2.44.54-4.59,1.95-5.42,3.71-.47,1-.04,2.19.96,2.66.28.13.56.19.85.19.75,0,1.47-.42,1.81-1.15.17-.36.88-.92,1.89-1.29v1.28c-2.87.73-5.14,2.97-5.91,5.82h-1.05c-.28-.16-.72-.47-1.08-1.05.38.14.8.16,1.22.04,1.06-.3,1.68-1.41,1.37-2.47-.51-1.78-2.31-2.76-4.18-2.27-2.06.54-3.23,2.51-2.74,4.58.1.42.23.8.38,1.17h-2.12c.21-.46.4-.95.51-1.49.43-2.05-.73-3.97-2.7-4.46-1.83-.45-3.6.55-4.11,2.33-.3,1.06.31,2.17,1.37,2.47.34.1.69.1,1.01.02-.36.53-.8.91-1.1,1.13h-.83c-.74-2.93-3.04-5.23-5.97-5.96v-4.9c.36,2.49,1.22,4.25,2.61,5.2.69.47,1.46.71,2.23.71.58,0,1.15-.13,1.68-.4,1.11-.56,1.82-1.62,1.86-2.76.04-1.1-.83-2.03-1.94-2.06-.75-.05-1.43.38-1.79.99-.44-.62-1.09-2.48-.76-6.73.89-.53,1.83-.88,2.75-.88.59,0,1.06.17,1.38.48.27.27.36.59.36.79,0,.84-.26,1.21-.4,1.3-.65-.83-1.85-1.02-2.72-.41-.9.63-1.12,1.88-.49,2.79.74,1.05,1.92,1.64,3.17,1.64.39,0,.79-.06,1.19-.18,1.56-.49,3.23-2.08,3.26-5.11,0-1.33-.54-2.65-1.52-3.64-1.07-1.07-2.56-1.67-4.21-1.67-.73,0-1.43.11-2.11.29l-2.33-2.37c.25-.61.4-1.28.4-1.99,0-1.95-1.07-3.63-2.62-4.43v-.96c.29.15.61.24.93.24.51,0,1.02-.2,1.41-.59.66-.66.75-1.65.31-2.42.86-.23,1.49-1,1.49-1.93s-.63-1.7-1.49-1.93c.44-.77.35-1.76-.31-2.41s-1.65-.75-2.42-.31c-.23-.85-1-1.48-1.92-1.48s-1.69.63-1.92,1.48c-.77-.45-1.76-.35-2.42.31s-.75,1.65-.31,2.41c-.86.23-1.49,1-1.49,1.93s.63,1.7,1.49,1.93c-.44.77-.35,1.76.31,2.41.39.39.9.59,1.41.59.32,0,.64-.09.93-.24v.97c-1.54.8-2.61,2.48-2.61,4.43,0,.68.13,1.33.36,1.92l-2.35,2.43c-.67-.18-1.37-.28-2.09-.28-1.65,0-3.15.59-4.21,1.67-.98.98-1.53,2.31-1.52,3.64.02,3.03,1.7,4.63,3.25,5.11.39.12.79.18,1.19.18,1.25,0,2.43-.59,3.17-1.64.63-.9.42-2.15-.49-2.79-.88-.62-2.07-.43-2.72.4-.14-.09-.39-.46-.4-1.3,0-.21.09-.52.36-.79.31-.32.79-.48,1.38-.48.63,0,1.26.17,1.89.44,0,0,.02,0,.02.01.25.11.5.24.75.38.3,3.88-.2,5.66-.56,6.4-.38-.49-.99-.82-1.65-.78-1.1.04-1.97.96-1.94,2.06.04,1.16.74,2.22,1.85,2.78.51.26,1.05.38,1.59.38.72,0,1.45-.22,2.1-.67,1.57-1.08,2.44-3.28,2.64-6.52,0,0,0,0,0,0v6.36c-2.92.74-5.22,3.04-5.96,5.96h-.72s-.02-.01-.03-.01c-.1-.04-.81-.33-1.34-1.17.38.14.8.16,1.22.04,1.06-.3,1.68-1.41,1.37-2.47-.51-1.78-2.31-2.76-4.18-2.26-2.06.54-3.23,2.51-2.74,4.58.11.48.27.9.45,1.31h-2.31c.21-.46.4-.95.51-1.49.43-2.05-.73-3.97-2.7-4.46-1.83-.45-3.6.55-4.11,2.33-.3,1.06.31,2.17,1.37,2.47.34.1.69.1,1.01.02-.36.53-.8.91-1.1,1.12h-.83c-.73-2.92-3.02-5.21-5.94-5.96v-.62c.92.35,1.74.93,2.6,1.65.38.32.83.47,1.29.47.57,0,1.13-.24,1.53-.71.71-.84.61-2.11-.24-2.82-1.27-1.07-2.93-2.25-5.13-2.74.9-1.03,2.6-2.61,4.41-2.89.46-.08,1.05.14,1.17.56.03.12.04.2.03.25-.64-.69-1.7-.85-2.53-.33-.94.59-1.22,1.82-.63,2.76.67,1.07,1.84,1.67,3.07,1.67.54,0,1.1-.11,1.63-.35,1.94-.86,2.87-2.95,2.27-5.08-.61-2.15-2.69-3.55-4.98-3.47.21-.1.41-.23.58-.4.78-.78.78-2.05,0-2.83l-.71-.71.71-.71c.78-.78.78-2.05,0-2.83-.78-.78-2.05-.78-2.83,0l-.69.69-1.59-1.59v-.21c.34-.08.67-.25.94-.52.41-.41.6-.95.58-1.48.39-.36.64-.88.64-1.46s-.25-1.09-.64-1.46c.02-.53-.17-1.07-.58-1.48-.43-.43-1-.61-1.55-.57-.36-.34-.84-.56-1.38-.56s-1.02.21-1.38.56c-.56-.04-1.13.15-1.55.57-.41.41-.6.95-.58,1.48-.39.36-.64.88-.64,1.46s.25,1.09.64,1.46c-.02.53.17,1.07.58,1.48.27.27.59.44.94.52v.21l-1.59,1.59-.69-.69c-.78-.78-2.05-.78-2.83,0-.78.78-.78,2.05,0,2.83l.71.71-.71.71c-.78.78-.78,2.05,0,2.83.17.17.38.3.59.4-2.32-.09-4.41,1.3-5.02,3.47-.6,2.12.34,4.21,2.28,5.08.54.24,1.11.36,1.66.36,1.24,0,2.41-.59,3.08-1.67.59-.94.3-2.17-.63-2.76-.11-.07-.21-.12-.33-.16,1.42.59,2.67,1.78,3.39,2.6-2.42.59-4.49,2.03-5.06,2.6-.78.79-.79,2.07,0,2.85.79.77,2.03.79,2.81,0,.27-.24,1.22-.87,2.34-1.3v.58c-2.92.74-5.22,3.04-5.96,5.96h-.72s-.02-.01-.03-.01c-.1-.04-.81-.33-1.34-1.17.38.14.8.16,1.22.04,1.06-.3,1.68-1.41,1.37-2.47-.51-1.78-2.31-2.76-4.18-2.26-2.06.54-3.23,2.51-2.74,4.58.11.48.27.9.45,1.31h-.06c-.08-.37-.26-.71-.54-1-.42-.42-.98-.61-1.52-.58-.37-.4-.89-.66-1.48-.66s-1.11.26-1.48.66c-.55-.03-1.1.16-1.52.58s-.6.97-.58,1.52c-.41.37-.67.89-.67,1.48s.26,1.11.67,1.48c-.03.55.16,1.1.58,1.52.39.39.9.59,1.41.59.04,0,.07,0,.11-.01.37.4.89.66,1.47.66s1.11-.26,1.47-.66c.04,0,.07.01.11.01.51,0,1.02-.2,1.41-.59.28-.28.46-.63.54-1h.1c-.18.43-.35.87-.45,1.37-.43,2.05.73,3.97,2.7,4.46.3.07.59.11.88.11,1.49,0,2.8-.95,3.23-2.44.3-1.06-.31-2.17-1.37-2.47-.34-.1-.69-.1-1.01-.02.33-.48.73-.81,1-1h.96c.77,2.86,3.03,5.1,5.9,5.83v.93c-1.06-.31-1.83-.8-2.13-1.2-.67-.88-1.92-1.05-2.8-.38-.88.67-1.05,1.92-.38,2.8.3.39.68.75,1.11,1.08-.93-.36-2.01-.37-3.02.08-1.94.86-2.88,2.95-2.28,5.08.59,2.07,2.62,3.49,4.83,3.49.04,0,.09,0,.13-.01-.2.1-.4.22-.57.39-.78.78-.78,2.05,0,2.83l.71.7-.71.7c-.78.78-.78,2.05,0,2.83.39.39.9.59,1.42.59s1.02-.19,1.41-.58l.69-.69,1.59,1.59v.21c-.34.08-.67.25-.94.52-.41.41-.6.95-.58,1.48-.39.36-.64.88-.64,1.46s.25,1.09.64,1.46c-.02.53.17,1.07.58,1.48s.9.59,1.41.59c.05,0,.09-.01.14-.01.36.34.84.56,1.38.56s1.02-.21,1.38-.56c.05,0,.09.01.14.01.51,0,1.02-.2,1.41-.59s.6-.95.58-1.48c.39-.36.64-.88.64-1.46s-.25-1.09-.64-1.46c.02-.53-.17-1.07-.58-1.48-.27-.27-.59-.44-.94-.52v-.21l1.59-1.59.69.69c.39.39.9.58,1.41.58s1.03-.2,1.42-.59c.78-.78.78-2.05,0-2.83l-.71-.71.71-.71c.78-.78.78-2.05,0-2.83-.17-.17-.37-.3-.57-.39.06,0,.12.01.18.01,2.21,0,4.25-1.42,4.83-3.49.6-2.13-.33-4.22-2.28-5.08-1.76-.78-3.75-.23-4.72,1.31-.59.94-.3,2.17.63,2.76.83.52,1.9.36,2.54-.34.01.04,0,.14-.03.26-.12.42-.71.64-1.17.57-1.83-.29-3.55-1.9-4.44-2.93,2.42-.59,4.49-2.02,5.05-2.6.78-.79.79-2.07,0-2.85-.79-.78-2.03-.79-2.81,0-.27.24-1.22.87-2.34,1.3v-.78c2.9-.72,5.18-2.97,5.96-5.84h1.03c.26.14.72.46,1.09,1.06-.38-.13-.8-.16-1.22-.04-1.06.3-1.68,1.41-1.37,2.47.42,1.47,1.72,2.39,3.21,2.39.32,0,.64-.04.97-.13,2.06-.54,3.23-2.51,2.74-4.58-.1-.42-.24-.81-.39-1.18h2.19c-.18.43-.35.87-.45,1.37-.43,2.05.73,3.97,2.7,4.46.3.07.59.11.88.11,1.49,0,2.8-.95,3.23-2.44.3-1.06-.31-2.17-1.37-2.47-.34-.1-.69-.1-1.01-.02.33-.48.73-.81,1-1h.96c.77,2.86,3.03,5.1,5.9,5.83v1.97c0,.1.02.2.03.3v3.41c-.34-2.63-1.22-4.46-2.65-5.45-1.2-.82-2.66-.94-3.91-.31-1.11.56-1.82,1.62-1.86,2.76-.04,1.1.83,2.03,1.94,2.06.75.02,1.43-.38,1.79-.99.44.62,1.09,2.48.76,6.73-.89.53-1.83.89-2.76.89-.59,0-1.06-.17-1.38-.48-.27-.27-.36-.58-.36-.79,0-.84.26-1.21.4-1.3.65.83,1.85,1.02,2.72.4.9-.63,1.12-1.88.49-2.79-.97-1.38-2.72-1.96-4.36-1.46-1.56.49-3.23,2.08-3.25,5.11,0,1.33.54,2.65,1.52,3.64,1.07,1.07,2.56,1.67,4.21,1.67.73,0,1.43-.11,2.11-.29l2.33,2.37c-.25.61-.4,1.28-.4,1.99,0,1.95,1.07,3.63,2.61,4.43v.96c-.75-.4-1.71-.29-2.34.35s-.75,1.65-.31,2.41c-.86.23-1.49,1-1.49,1.93s.63,1.7,1.49,1.93c-.44.77-.35,1.76.31,2.41.39.39.9.59,1.41.59.35,0,.69-.1,1-.28.23.85,1,1.48,1.92,1.48s1.69-.63,1.92-1.48c.31.18.66.28,1,.28.51,0,1.02-.2,1.41-.59.66-.66.75-1.65.31-2.42.86-.23,1.49-1,1.49-1.93s-.63-1.7-1.49-1.93c.44-.77.35-1.76-.31-2.41s-1.59-.74-2.34-.35v-.97c1.54-.8,2.61-2.48,2.61-4.43,0-.68-.13-1.33-.36-1.92l2.35-2.43c.67.18,1.37.28,2.09.28,1.65,0,3.15-.59,4.21-1.67.98-.98,1.53-2.31,1.52-3.64-.02-3.03-1.7-4.63-3.26-5.11-1.64-.51-3.39.08-4.36,1.46-.63.9-.42,2.15.49,2.79.88.61,2.07.43,2.72-.41.14.09.39.47.4,1.3,0,.2-.09.52-.36.79-.31.32-.79.48-1.38.48-.63,0-1.28-.18-1.91-.45,0,0,0,0-.01,0-.25-.11-.5-.23-.74-.37-.3-3.88.2-5.66.56-6.4.38.49.99.81,1.65.78,1.1-.04,1.97-.96,1.94-2.06-.04-1.16-.74-2.22-1.85-2.78-1.18-.6-2.56-.49-3.69.29-1.46,1.01-2.32,2.97-2.6,5.84v-6.21c2.88-.73,5.16-2.97,5.93-5.83h1.02c.28.15.73.47,1.1,1.06-.38-.13-.8-.16-1.22-.04-1.06.3-1.68,1.41-1.37,2.47.42,1.47,1.72,2.39,3.21,2.39.32,0,.64-.04.97-.13,2.06-.54,3.23-2.51,2.74-4.58-.1-.42-.24-.81-.39-1.18h2.13c-.21.46-.4.96-.51,1.51-.43,2.05.73,3.97,2.7,4.46.3.07.59.11.88.11,1.49,0,2.8-.95,3.23-2.44.3-1.06-.31-2.17-1.37-2.47-.34-.1-.69-.1-1.01-.02.44-.65,1-1.01,1.23-1.14h.7c.73,2.92,3.02,5.23,5.94,5.97v1.35c-.8-.23-1.55-.65-1.93-1.43-.48-.99-1.68-1.4-2.68-.92-.99.49-1.4,1.68-.92,2.68.97,1.97,2.89,3.27,5.41,3.73-1.31,1.62-4.01,4.29-6.54,4.29-.58,0-1.06-.17-1.37-.48-.27-.27-.36-.59-.36-.79,0-.84.26-1.21.4-1.3.65.83,1.85,1.02,2.72.4.9-.63,1.12-1.88.49-2.79-.97-1.38-2.72-1.96-4.36-1.46-1.56.49-3.23,2.08-3.25,5.11,0,1.33.54,2.66,1.52,3.64,1.07,1.07,2.56,1.67,4.21,1.67.73,0,1.43-.11,2.11-.29l2.02,2.05c-.05.29-.09.59-.09.9,0,1.78.89,3.32,2.21,4.19-.17.09-.34.2-.49.35-.41.41-.6.95-.58,1.48-.39.36-.64.88-.64,1.46s.25,1.09.64,1.46c-.02.53.17,1.07.58,1.48s.9.59,1.41.59c.05,0,.09-.01.14-.01.36.34.84.56,1.38.56s1.02-.21,1.38-.56c.05,0,.09.01.14.01.51,0,1.02-.2,1.41-.59s.6-.95.58-1.48c.39-.36.64-.88.64-1.46s-.25-1.09-.64-1.46c.02-.53-.17-1.07-.58-1.48-.16-.16-.34-.28-.54-.37,1.3-.87,2.17-2.41,2.17-4.17,0-.28-.04-.55-.08-.82l2.06-2.14c.67.18,1.37.28,2.09.28,1.65,0,3.15-.59,4.21-1.67.98-.98,1.53-2.31,1.52-3.64-.02-3.03-1.7-4.63-3.26-5.11-1.64-.51-3.39.08-4.36,1.46-.63.9-.42,2.15.49,2.79.88.62,2.07.43,2.72-.41.14.09.39.47.4,1.3,0,.21-.09.52-.36.79-.31.32-.79.48-1.37.48-.63,0-1.27-.17-1.9-.45,0,0-.02,0-.02-.01-1.9-.84-3.68-2.67-4.65-3.88,2.44-.54,4.59-1.95,5.42-3.71.47-1,.04-2.19-.96-2.66-1-.47-2.19-.04-2.66.96-.17.35-.87.92-1.87,1.29v-1.24c2.93-.74,5.23-3.04,5.96-5.98h.7s.04.02.06.03c.1.04.81.33,1.34,1.17-.38-.14-.8-.16-1.22-.04-1.06.3-1.68,1.41-1.37,2.47.42,1.47,1.72,2.39,3.21,2.39.32,0,.64-.04.97-.13,2.06-.54,3.23-2.51,2.74-4.58-.12-.48-.28-.91-.46-1.32h.61c.08.37.26.71.54,1,.39.39.9.59,1.41.59.04,0,.07,0,.11-.01.37.4.89.66,1.47.66s1.11-.26,1.47-.66c.04,0,.07.01.11.01.51,0,1.02-.2,1.41-.59.42-.42.6-.97.58-1.52.41-.37.67-.89.67-1.48s-.26-1.11-.67-1.48Zm-18-.52h-1.63v-1.56c.67.36,1.24.9,1.63,1.56Zm-4.23-22.22c0-.54.32-.94.61-.94s.61.4.61.94c0,.14-.02.26-.06.37-.06.1-.12.21-.17.32-.11.15-.25.24-.39.24-.29,0-.61-.4-.61-.94Zm-1.68,4.26c.68.42,1.46.68,2.29.68s1.58-.25,2.24-.65l.53.54c-1.11.8-2.06,1.7-2.79,2.49-.74-.8-1.69-1.7-2.81-2.5l.53-.55Zm.29,16.42v1.55h-1.61c.39-.65.94-1.18,1.61-1.55Zm-24.21,1.55h-1.7v-1.7c.72.39,1.31.98,1.7,1.7Zm-6.52-18.69l.83-.86v1.52c-.23-.19-.47-.38-.72-.56-.03-.03-.07-.07-.1-.1Zm2.81-5.26c-.29,0-.61-.4-.61-.94s.32-.94.61-.94.61.4.61.94-.32.94-.61.94Zm2.01,5.87v-1.36s.76.77.76.77c-.26.19-.52.38-.76.58Zm-4.01,16.39v1.69h-1.68c.39-.71.97-1.3,1.68-1.69Zm-24.34,1.69h-1.69v-1.69c.72.39,1.3.98,1.69,1.69Zm-3.7-22.28l.73.73-.74.74-.73-.73.74-.73Zm0,6.76l.61.61c-.22.2-.43.39-.62.58-.19-.18-.39-.37-.61-.56l.62-.62Zm4.28-2.49c.3.3.67.48,1.06.55-.43.1-.84.23-1.24.38l-1.08-1.08.56-.56.71.71Zm-7.29-.15l-1.1,1.1c-.4-.16-.82-.29-1.26-.39.4-.07.78-.25,1.08-.55l.71-.71.56.56Zm-4.7,5.39s0,0,0,0c-.02-.03-.02-.13.02-.28.12-.42.71-.64,1.17-.57.36.06.71.18,1.05.32-.78-.31-1.67-.1-2.23.53Zm5.71,11.08v1.69h-1.69c.39-.72.98-1.3,1.69-1.69Zm-1.64,5.69h1.62v1.56c-.67-.37-1.23-.9-1.62-1.56Zm3.6,22.37l-.73-.73.74-.73.73.73-.73.73Zm0-6.76l-.61-.61c.23-.2.43-.39.62-.58.19.18.39.37.61.56l-.62.62Zm-7.66-2.47c-.04-.14-.04-.24-.02-.28.64.71,1.71.88,2.55.36.94-.59,1.22-1.82.63-2.76-.15-.24-.33-.44-.52-.63.87.46,1.87.81,2.92,1.01-.9,1.03-2.59,2.58-4.39,2.87-.45.08-1.05-.14-1.17-.57Zm3.38,4.96c-.3-.3-.67-.48-1.06-.55.43-.1.84-.23,1.24-.38l1.08,1.08-.56.56-.71-.71Zm7.29.15l1.1-1.1c.4.16.82.29,1.26.39-.4.07-.78.25-1.08.55l-.71.71-.56-.56Zm-.98-16.69v-1.56h1.62c-.39.66-.95,1.2-1.62,1.56Zm24.41-1.56h1.63v1.57c-.68-.37-1.24-.91-1.63-1.57Zm6.41,19.08l-.78.81v-1.44c.22.18.45.35.68.52.03.04.07.07.11.1Zm-2.81,5.26c.29,0,.61.4.61.94s-.32.94-.61.94-.61-.4-.61-.94.32-.94.61-.94Zm-1.97-5.91v1.43s-.8-.82-.8-.82c.28-.2.55-.41.8-.62Zm4.01-16.87v-1.56h1.62c-.39.66-.95,1.19-1.62,1.56Zm24.21-1.56h1.71v1.71c-.72-.39-1.31-.98-1.71-1.71Zm4.28,22.34c0,.54-.32.94-.61.94s-.61-.4-.61-.94c0-.14.02-.26.06-.37.06-.1.12-.21.17-.32.11-.15.25-.24.39-.24.29,0,.61.4.61.94Zm1.68-4.26c-.68-.42-1.46-.68-2.29-.68s-1.58.25-2.24.65l-.53-.54c1.05-.76,1.96-1.61,2.68-2.37.04,0,.08.01.12.01h0s.07,0,.1-.01c.72.77,1.64,1.62,2.7,2.38l-.53.55Zm-.26-16.38v-1.7h1.69c-.39.72-.98,1.31-1.69,1.7Z"/>
</svg>