<?xml version="1.0" encoding="UTF-8"?>
<svg id="icons" xmlns="http://www.w3.org/2000/svg" viewBox="0 0 120 120">
  <defs>
    <style>
      .cls-1 {
        fill: none;
        stroke: #000;
        stroke-linecap: round;
        stroke-linejoin: round;
        stroke-width: 4px;
      }
    </style>
  </defs>
  <circle class="cls-1" cx="60.08" cy="60" r="50"/>
  <polyline class="cls-1" points="35.81 30.33 60.08 10 39.89 39.86"/>
  <line class="cls-1" x1="44.17" y1="51.32" x2="60.08" y2="10"/>
  <polyline class="cls-1" points="84.35 30.33 60.08 10 80.26 39.86"/>
  <line class="cls-1" x1="75.99" y1="51.32" x2="60.08" y2="10"/>
  <polygon class="cls-1" points="29.69 63.11 30.61 67.83 26.3 65.69 22.09 68.03 22.79 63.27 19.27 59.99 24.01 59.19 26.04 54.82 28.27 59.09 33.05 59.67 29.69 63.11"/>
  <polygon class="cls-1" points="95.99 63.56 96.91 68.28 92.6 66.14 88.39 68.48 89.09 63.72 85.57 60.44 90.31 59.64 92.34 55.27 94.57 59.54 99.35 60.12 95.99 63.56"/>
  <polygon class="cls-1" points="62.37 61.39 62.95 64.34 60.26 63 57.63 64.46 58.07 61.49 55.87 59.45 58.83 58.94 60.1 56.22 61.49 58.88 64.47 59.24 62.37 61.39"/>
  <polygon class="cls-1" points="62.37 48.88 62.95 51.83 60.26 50.5 57.63 51.96 58.07 48.99 55.87 46.94 58.83 46.44 60.1 43.71 61.49 46.38 64.47 46.74 62.37 48.88"/>
  <polygon class="cls-1" points="62.37 36.38 62.95 39.33 60.26 37.99 57.63 39.46 58.07 36.48 55.87 34.44 58.83 33.93 60.1 31.21 61.49 33.87 64.47 34.23 62.37 36.38"/>
  <line class="cls-1" x1="60.07" y1="70.94" x2="60.07" y2="102.19"/>
  <line class="cls-1" x1="48.98" y1="84.01" x2="70.8" y2="84.01"/>
</svg>