<?xml version="1.0" encoding="UTF-8"?>
<svg id="icons" xmlns="http://www.w3.org/2000/svg" viewBox="0 0 120 120">
  <path d="m60,8C31.33,8,8,31.33,8,60s23.33,52,52,52,52-23.33,52-52S88.67,8,60,8Zm0,100c-26.47,0-48-21.53-48-48S33.53,12,60,12s48,21.53,48,48-21.53,48-48,48Z"/>
  <path d="m73.6,45.63l3.53-4.71,1.27.94c.35.26.77.39,1.19.39.27,0,.54-.05.8-.17.66-.29,1.11-.9,1.19-1.61l.91-8.04c.08-.71-.22-1.41-.8-1.83s-1.33-.51-1.99-.22l-7.42,3.24c-.65.29-1.11.9-1.19,1.61s.22,1.41.8,1.83l2.02,1.49-4.44,5.91c-2.33-.54-4.82-.91-7.48-1.05v-7.8s2.04,0,2.04,0c.71,0,1.38-.38,1.73-1,.36-.62.36-1.38,0-2l-4.05-7.01c-.36-.62-1.02-1-1.73-1s-1.38.38-1.73,1l-4.05,7.01c-.36.62-.36,1.38,0,2,.36.62,1.02,1,1.73,1h2.05v7.77c-2.76.09-5.34.42-7.74.95l-4.4-5.86,1.52-1.16c.57-.43.86-1.13.78-1.84-.09-.71-.55-1.32-1.21-1.59l-7.46-3.14c-.66-.27-1.41-.18-1.98.25-.57.43-.87,1.14-.78,1.84l1.01,8.03c.09.71.55,1.32,1.21,1.59.25.1.51.16.78.16.43,0,.86-.14,1.21-.41l1.74-1.32,3.43,4.57c-15.54,5.15-22.47,17.99-22.82,18.67-.33.62-.3,1.36.06,1.96s1.01.96,1.71.96h27.46l-4.66,6.2-6.98,1c-1.09.16-1.85,1.17-1.7,2.26.16,1.09,1.17,1.85,2.26,1.7l3.01-.43-1.88,2.5-7.53,1.08c-1.09.16-1.85,1.17-1.7,2.26.16,1.09,1.19,1.85,2.26,1.7l3.56-.51-2.58,3.44c-.66.88-.48,2.14.4,2.8.36.27.78.4,1.2.4.61,0,1.21-.28,1.6-.8l2.61-3.48.47,3.25c.14,1,1,1.72,1.98,1.72.09,0,.19,0,.29-.02,1.09-.16,1.85-1.17,1.7-2.26l-1.03-7.2,1.96-2.61.26,1.8c.14,1,1,1.72,1.98,1.72.09,0,.19,0,.29-.02,1.09-.16,1.85-1.17,1.7-2.26l-.83-5.75,6.36-8.47h.49v15.48s-4.98,4.96-4.98,4.96c-.78.78-.79,2.04,0,2.83s2.04.79,2.83,0l2.16-2.15v4.36s-5.79,5.77-5.79,5.77c-.78.78-.79,2.04,0,2.83.39.39.9.59,1.42.59s1.02-.19,1.41-.58l2.97-2.96v4.1c0,1.1.9,2,2,2h0c1.1,0,2-.9,2-2v-4.13s2.97,2.98,2.97,2.98c.78.78,2.04.79,2.83,0,.78-.78.79-2.04,0-2.83l-5.8-5.83v-4.3s2.16,2.17,2.16,2.17c.39.39.9.59,1.42.59s1.02-.19,1.41-.58c.78-.78.79-2.05,0-2.83l-5-5.02v-15.45s.31,0,.31,0l6.39,8.51-.68,6.37c-.12,1.1.68,2.08,1.78,2.2.07,0,.14.01.22.01,1.01,0,1.88-.76,1.99-1.79l.23-2.11,1.47,1.96-.87,8.13c-.12,1.1.68,2.08,1.78,2.2.07,0,.14.01.22.01,1.01,0,1.88-.76,1.99-1.79l.42-3.87,2.77,3.68c.39.52.99.8,1.6.8.42,0,.84-.13,1.2-.4.88-.66,1.06-1.92.4-2.8l-3.12-4.15,4.46.48c1.08.12,2.08-.68,2.2-1.78.12-1.1-.68-2.08-1.78-2.2l-8.17-.88-1.96-2.61,3.47.37c1.1.12,2.08-.68,2.2-1.78.12-1.1-.68-2.08-1.78-2.2l-7.18-.77-4.22-5.62h27.62c.71,0,1.37-.38,1.73-1,.36-.62.36-1.38,0-2-.38-.67-7.7-13.19-23.08-18.43Zm4.53-10.2l-.12,1.03s0,0-.02-.01c-.19-.14-.39-.23-.6-.3l-.34-.25,1.07-.47Zm-18.13-4.83l.58,1.01h-1.16l.58-1.01Zm-17.88,5.58c-.11.05-.22.12-.33.2-.2.15-.35.33-.48.52l-.03.03-.15-1.16.98.41Zm24.7,11.83l-4.81,6.41v-6.99c1.67.1,3.28.3,4.81.59Zm-8.81-.64v7.27s-5.07-6.76-5.07-6.76c1.61-.27,3.3-.45,5.07-.51Zm-29.3,15.68c2.92-4.03,9.33-11.11,19.95-14.2l8.76,11.67-1.9,2.53h-26.81Zm35.61,0l-1.9-2.53,8.62-11.48c10.31,3.18,16.93,10.04,20.06,14.01h-26.78Z"/>
  <path d="m25.68,53.64c.77.41,1.69.34,2.39-.17.71-.51,1.05-1.36.9-2.22l-.47-2.71,1.97-1.92c.62-.61.84-1.5.57-2.33-.27-.83-.97-1.42-1.83-1.55l-2.73-.4-1.22-2.47c-.38-.78-1.16-1.26-2.03-1.27h0c-.87,0-1.65.48-2.04,1.27l-1.22,2.47-2.73.4c-.86.12-1.56.72-1.83,1.54-.27.83-.05,1.72.57,2.33l1.97,1.92-.46,2.71c-.15.86.2,1.71.9,2.22.4.29.86.44,1.33.44.36,0,.72-.09,1.06-.26l2.44-1.28,2.44,1.28Zm-3.63-5.17l.03-.17c.12-.74-.13-1.5-.65-2l-.11-.11.16-.02c.74-.11,1.38-.57,1.71-1.24l.07-.14.07.14c.33.67.97,1.13,1.71,1.24l.16.02-.11.11c-.54.53-.79,1.28-.66,2.01l.03.16-.15-.08c-.33-.17-.69-.25-1.05-.25s-.73.09-1.06.26l-.14.07Z"/>
  <path d="m92.4,42.34l-2.73.4c-.86.13-1.56.72-1.83,1.54-.27.83-.05,1.72.57,2.33l1.97,1.92-.47,2.72c-.14.86.2,1.71.91,2.22.4.29.86.43,1.33.43.36,0,.72-.09,1.06-.26l2.44-1.28,2.44,1.28c.77.4,1.68.34,2.39-.17.71-.51,1.05-1.36.91-2.22l-.47-2.71,1.97-1.92c.62-.61.84-1.5.57-2.33-.27-.83-.97-1.42-1.83-1.54l-2.73-.4-1.22-2.47c-.38-.78-1.17-1.27-2.04-1.27s-1.65.49-2.04,1.27l-1.22,2.47Zm1.47,3.83c.73-.11,1.37-.56,1.71-1.24l.07-.14.08.16c.33.66.97,1.12,1.7,1.22l.16.02-.11.11c-.54.52-.78,1.27-.66,2.01l.03.15-.15-.08c-.65-.34-1.44-.34-2.1,0l-.14.07.02-.14c.13-.74-.11-1.5-.65-2.02l-.11-.11.16-.02Z"/>
  <path d="m56.05,19.12l-.16.91c-.15.85.2,1.7.9,2.21.7.51,1.61.58,2.39.17l.82-.43.82.43c.33.18.69.26,1.05.26.47,0,.93-.15,1.33-.43.7-.51,1.05-1.35.91-2.22l-.16-.91.66-.65c.62-.6.84-1.49.57-2.32-.27-.82-.97-1.42-1.83-1.54l-.91-.13-.41-.83c-.38-.78-1.16-1.26-2.03-1.26s-1.65.48-2.03,1.26l-.41.83-.92.13c-.86.13-1.56.72-1.82,1.54-.27.82-.05,1.71.57,2.32l.66.65Z"/>
</svg>