<?xml version="1.0" encoding="UTF-8"?>
<svg id="icons" xmlns="http://www.w3.org/2000/svg" viewBox="0 0 120 120">
  <path d="m22.61,69.13c.6.06,1.2.1,1.79.1,4.09,0,8.05-1.49,11.08-4.22,3.42-3.07,5.38-7.46,5.38-12.02v-12.25h17.38v.57s-.02.03-.03.05l-2.38,1.91c-2.18-.74-4.65-.25-6.4,1.43-.97.94-1.5,2.24-1.46,3.58s.67,2.61,1.7,3.48c.88.74,1.97,1.13,3.08,1.13.51,0,1.02-.08,1.52-.25,1.05-.34,1.62-1.48,1.27-2.52-.34-1.05-1.48-1.62-2.52-1.27-.21.07-.53.07-.79-.15-.23-.19-.27-.42-.27-.55,0-.12.02-.36.23-.56.85-.82,2.22-.86,3.12-.09l2.87,2.44s.03.07.05.11v1.53s-.03.07-.05.1l-5.15,4.37c-2.28-.35-4.67.34-6.44,2.04-1.14,1.1-1.77,2.63-1.71,4.21.05,1.58.78,3.07,2,4.08,1.05.88,2.35,1.32,3.64,1.32,1.49,0,2.98-.58,4.08-1.72.77-.79.75-2.06-.05-2.83-.79-.77-2.06-.75-2.83.05-.61.62-1.6.68-2.27.12-.35-.29-.55-.7-.57-1.15s.16-.87.49-1.19c1.33-1.27,3.46-1.34,4.86-.15l3.96,3.36s.03.07.05.11v3.39s-.03.07-.05.1l-5.34,4.52c-4.08-2.47-9.37-1.97-12.91,1.44-1.54,1.48-2.38,3.55-2.31,5.67.07,2.12,1.05,4.13,2.69,5.51,1.39,1.16,3.12,1.78,4.91,1.78.47,0,.94-.04,1.42-.13,2.7-.5,4.66-2.89,4.66-5.67,0-1.1-.9-2-2-2s-2,.9-2,2c0,.84-.6,1.59-1.39,1.74-1.09.2-2.19-.09-3.03-.79-.78-.65-1.23-1.57-1.27-2.58-.03-1,.35-1.95,1.08-2.65,2.48-2.38,6.33-2.5,8.96-.27l6.27,5.32-22.67,13.8c-.77.47-1.13,1.38-.89,2.25s1.03,1.46,1.93,1.46h21.92v6s0,.05,0,.07c-.04.72-.74,1.53-1.81,2.08-1.51.78-3.78,1.05-5.43-.13-.4-.28-.64-.76-.64-1.29,0-.88.74-1.59,1.64-1.59,1.1,0,2-.9,2-2s-.9-2-2-2c-3.11,0-5.64,2.51-5.64,5.59,0,1.82.87,3.52,2.32,4.55,1.44,1.02,3.2,1.54,5.02,1.54,1.54,0,3.12-.37,4.57-1.12.76-.39,1.42-.87,1.98-1.4.56.53,1.21,1.01,1.97,1.4,1.45.75,3.03,1.12,4.57,1.12,1.82,0,3.58-.52,5.02-1.54,1.45-1.03,2.32-2.73,2.32-4.55,0-3.08-2.53-5.59-5.64-5.59-1.1,0-2,.9-2,2s.9,2,2,2c.9,0,1.64.71,1.64,1.59,0,.52-.24,1-.64,1.29-1.65,1.17-3.92.91-5.43.12-1.07-.55-1.76-1.36-1.81-2.08,0-.02,0-.05,0-.07v-6h21.67c.89,0,1.68-.59,1.92-1.46.24-.86-.11-1.78-.88-2.25l-22.57-13.89,6.16-5.23c2.63-2.23,6.48-2.11,8.96.27.73.7,1.12,1.64,1.08,2.65-.03,1.01-.48,1.92-1.26,2.58-.84.7-1.95.99-3.03.79-.79-.15-1.39-.89-1.39-1.74,0-1.1-.9-2-2-2s-2,.9-2,2c0,2.78,1.96,5.17,4.66,5.67.47.09.95.13,1.42.13,1.79,0,3.52-.62,4.91-1.78,1.64-1.37,2.62-3.38,2.69-5.51.07-2.12-.77-4.19-2.31-5.67-3.54-3.41-8.83-3.91-12.91-1.44l-5.13-4.34v-3.96l3.75-3.18c1.4-1.19,3.54-1.12,4.86.15.33.32.5.74.49,1.19s-.22.86-.57,1.15c-.67.56-1.66.51-2.27-.12-.77-.8-2.03-.82-2.83-.05-.79.77-.82,2.03-.05,2.83,1.1,1.14,2.59,1.72,4.08,1.72,1.29,0,2.58-.44,3.64-1.32,1.22-1.02,1.94-2.51,2-4.08.05-1.58-.57-3.11-1.71-4.21-1.78-1.71-4.17-2.4-6.45-2.05l-4.94-4.19v-2.1l2.66-2.26c.9-.76,2.27-.72,3.12.09.21.2.24.44.23.56,0,.12-.04.36-.27.55-.26.22-.58.21-.79.15-1.05-.35-2.18.23-2.52,1.27-.35,1.05.23,2.18,1.27,2.52.5.17,1.01.25,1.52.25,1.11,0,2.2-.39,3.08-1.13,1.04-.87,1.66-2.13,1.7-3.48s-.49-2.65-1.46-3.58c-1.75-1.68-4.23-2.17-6.4-1.43l-2.14-1.72v-.81h16.9v12.25c0,4.57,1.96,8.95,5.38,12.02,3.04,2.73,7,4.22,11.08,4.22.59,0,1.19-.03,1.79-.1,8.74-.93,14.6-7.59,14.6-16.55,0-4.95-4.07-8.98-9.07-8.98h-.43c-.14,0-.29.02-.42.05-5.97,1.3-6.61,5.98-7.03,9.09-.15,1.09.62,2.1,1.71,2.25,1.09.14,2.1-.62,2.25-1.71.5-3.67,1.11-5.04,3.71-5.67h.2c2.79,0,5.07,2.23,5.07,4.98,0,6.92-4.33,11.86-11.03,12.57-3.64.39-7.1-.72-9.78-3.12-2.58-2.32-4.06-5.61-4.06-9.05v-12.25h4.02v2.7c0,1.1.9,2,2,2s2-.9,2-2v-4.7c0-1.1-.9-2-2-2h-26.92v-5.11c2.86-2.6,7-2.98,9.8-2.19,1.62.46,2.26,1.16,2.29,1.34-.03.95-1.45,1.21-1.74,1.25-1.28.2-2.28-.25-2.41-.63-.35-1.05-1.48-1.62-2.53-1.26-1.05.35-1.61,1.48-1.26,2.53.78,2.33,3.25,3.41,5.64,3.41.39,0,.78-.03,1.15-.08,3.06-.46,5.08-2.46,5.15-5.11.05-2.04-1.4-3.82-3.99-4.88-3.39-1.38-8.12-1.37-12.1.77v-4.36l2.12,1.97c.39.36.87.53,1.36.53.54,0,1.07-.21,1.47-.64.75-.81.7-2.08-.11-2.83l-1.75-1.62h2.57c1.1,0,2-.9,2-2s-.9-2-2-2h-2.56l1.91-1.84c.8-.77.82-2.03.05-2.83-.77-.8-2.03-.82-2.83-.05l-2.25,2.16v-3.26c0-1.1-.9-2-2-2s-2,.9-2,2v3.24l-2.25-2.08c-.81-.75-2.08-.7-2.83.11-.75.81-.7,2.08.11,2.83l1.87,1.73h-2.57c-1.1,0-2,.9-2,2s.9,2,2,2h2.84l-2.17,2.09c-.8.77-.82,2.03-.05,2.83.39.41.92.61,1.44.61s1-.19,1.39-.56l2.22-2.13v7.03c-2.85,2.43-6.86,2.79-9.59,2.01-1.62-.46-2.26-1.16-2.29-1.34.03-.95,1.45-1.21,1.74-1.25,1.27-.19,2.28.25,2.41.63.35,1.05,1.48,1.61,2.53,1.26,1.05-.35,1.61-1.48,1.26-2.53-.91-2.71-4.11-3.72-6.79-3.32-3.06.46-5.08,2.46-5.15,5.1-.05,2.04,1.4,3.82,3.99,4.88,1.51.62,3.28.96,5.13.96,2.24,0,4.6-.5,6.76-1.61v2.25h-27.18c-1.1,0-2,.9-2,2v4.7c0,1.1.9,2,2,2s2-.9,2-2v-2.7h3.8v12.25c0,3.43-1.48,6.73-4.06,9.05-2.67,2.4-6.13,3.51-9.78,3.12-6.6-.71-11.03-5.76-11.03-12.57,0-2.75,2.27-4.98,5.07-4.98h.2c2.6.62,3.22,2,3.71,5.67.15,1.1,1.16,1.86,2.25,1.71,1.09-.15,1.86-1.16,1.71-2.25-.42-3.1-1.05-7.79-7.03-9.09-.14-.03-.28-.05-.42-.05h-.43c-5,0-9.07,4.03-9.07,8.98,0,8.96,5.87,15.62,14.61,16.55Zm35.63,23.62l-4.41-3.89,4.41-2.69v6.58Zm4-6.56l4.22,2.6-4.22,3.73v-6.32Zm-6.19-11.36l2.19-1.85v3.71l-2.19-1.86Zm2.19-17.96v2.11l-1.24-1.05,1.24-1.05Zm-7.99,34.17l4.7,4.14h-11.51l6.81-4.14Zm15.02,4.14l4.76-4.2,6.82,4.2h-11.57Zm-1.1-20.35l-1.92,1.63v-3.26l1.92,1.63Zm-.95-16.91l-.98.83v-1.66l.98.83Z"/>
</svg>