<?xml version="1.0" encoding="UTF-8"?>
<svg id="icons" xmlns="http://www.w3.org/2000/svg" viewBox="0 0 120 120">
  <path d="m15.63,25.2c-2.94-.18-5.41.95-6.72,3.1-1.17,1.92-1.21,4.37-.1,6.24,1.06,1.79,2.92,2.77,5.18,2.66,1.87-.08,3.39-1.4,3.79-3.28.37-1.74-.4-3.42-1.91-4.17-.99-.49-2.19-.09-2.68.9-.45.9-.16,1.97.64,2.53,0,.01-.02.02-.03.03-.73.03-1.26-.2-1.55-.7-.36-.61-.33-1.46.07-2.12.52-.85,1.61-1.27,3.07-1.19,3.01.18,3.46,2.28,3.41,9.43,0,.74,0,1.49,0,2.25l.04,5.55s0,0,0,0c0,0,0,0,0,0l.16,19.77c0,.76,0,1.51,0,2.25.05,7.15-.4,9.26-3.41,9.44-1.45.08-2.55-.34-3.07-1.19-.4-.66-.43-1.51-.07-2.12.29-.5.8-.75,1.55-.71,0,0,.02.02.03.03-.8.56-1.09,1.63-.65,2.53.49.99,1.69,1.39,2.68.9,1.51-.75,2.28-2.43,1.91-4.17-.4-1.88-1.92-3.19-3.79-3.28-2.24-.12-4.12.87-5.18,2.66-1.11,1.87-1.07,4.32.1,6.24,1.22,2,3.43,3.12,6.13,3.12.2,0,.39,0,.59-.02,7.26-.43,7.21-7.35,7.17-13.46,0-.72,0-1.45,0-2.22l-.02-2.13,8.93,4.79v6.92c-.55-.06-1.13.11-1.57.52-.6.56-.78,1.39-.52,2.12-.69.32-1.17,1.01-1.17,1.81s.44,1.43,1.08,1.77c-.28.74-.1,1.6.51,2.17.38.36.87.54,1.36.54.18,0,.35-.03.52-.08.33.65,1,1.1,1.78,1.1s1.47-.46,1.79-1.13c.2.06.4.11.61.11.49,0,.98-.18,1.36-.54.62-.58.79-1.46.49-2.21.6-.35,1-.98,1-1.72s-.44-1.43-1.08-1.77c.28-.74.1-1.6-.51-2.16-.46-.43-1.08-.59-1.67-.51v-4.71l9.09,5.1v.1c-.55-.06-1.13.11-1.57.52-.6.56-.77,1.39-.52,2.12-.69.32-1.17,1.01-1.17,1.81s.44,1.43,1.08,1.77c-.28.74-.1,1.6.51,2.16.39.36.88.54,1.36.54.29,0,.57-.07.84-.19.37.39.88.64,1.46.64s1.13-.27,1.49-.68c.29.15.59.23.91.23.49,0,.98-.18,1.36-.54.62-.58.79-1.46.49-2.21.6-.35,1-.98,1-1.72s-.44-1.43-1.08-1.77c.28-.74.1-1.6-.51-2.16-.35-.32-.78-.49-1.22-.52l8.74-5.05-.02,4.52-.05-.05c-.81-.75-2.07-.71-2.83.1-.67.72-.7,1.8-.13,2.56h-.2c-1.1,0-2,.9-2,2s.9,2,2,2h.13c-.5.75-.45,1.78.19,2.47.39.42.93.64,1.46.64.49,0,.98-.18,1.36-.54h.01s0,.16,0,.16c-.48,2.48-1.43,5.17-2.71,7.59l-2.39-1.74.47-.53c.73-.83.66-2.09-.17-2.82-.83-.73-2.09-.66-2.82.17l-.72.81-.25-.18c-.89-.65-2.14-.45-2.79.44-.64.87-.46,2.08.38,2.74l-.26.3c-.73.83-.66,2.09.17,2.82.38.34.85.5,1.32.5.55,0,1.1-.23,1.5-.67l.51-.58,2.9,2.12c-1.96,2.53-4.31,4.27-6.78,4.27-.06,0-.12,0-.17,0-3.3.29-6.46-.56-8.45-2.27-1.05-.91-1.67-1.96-1.74-2.97l-.05-.71c.01-1.66.95-2.12,1.51-2.23.72-.16,1.62.08,1.95.81.02.05.02.09,0,.13-.03.04-.11.13-.33.13-1.1,0-2,.9-2,2s.9,2,2,2c1.51,0,2.88-.73,3.68-1.95.76-1.17.88-2.64.31-3.93-1.05-2.37-3.75-3.67-6.44-3.1-2.84.6-4.68,3.03-4.68,6.18,0,0,.02.38.06.94.14,2.09,1.25,4.13,3.12,5.75,2.48,2.12,5.96,3.29,9.75,3.29.52,0,1.04-.02,1.56-.06,3.81-.04,7.22-2.47,9.9-5.92l1.59,1.16v1.16c-.63-.14-1.31.02-1.81.49-.64.6-.79,1.52-.45,2.28-.77.28-1.33,1.01-1.33,1.88s.51,1.55,1.24,1.85c-.36.76-.21,1.7.44,2.31.39.36.88.54,1.36.54.17,0,.34-.03.5-.07h0c0,1.11.89,2.01,1.99,2.01h0c1.1,0,2-.89,2-1.99v-.06c.2.07.41.11.62.11.49,0,.98-.18,1.36-.54.66-.62.8-1.58.42-2.35.68-.32,1.15-1,1.15-1.8s-.51-1.55-1.24-1.85c.36-.76.21-1.7-.44-2.31-.51-.48-1.21-.63-1.84-.48v-1.19s1.98-1.33,1.98-1.33c2.7,3.56,6.17,6.09,10.06,6.13.53.04,1.05.06,1.56.06,3.79,0,7.28-1.16,9.75-3.29,1.88-1.61,2.99-3.65,3.12-5.75l.04-.7c0-.15.01-.24.01-.24,0-3.15-1.84-5.58-4.68-6.18-2.68-.57-5.39.74-6.43,3.1-.57,1.29-.46,2.76.31,3.93.79,1.22,2.17,1.95,3.68,1.95,1.1,0,2-.9,2-2s-.9-2-2-2c-.22,0-.3-.09-.33-.13-.03-.04-.03-.07,0-.13.32-.73,1.22-.97,1.95-.81.56.12,1.5.57,1.51,2.24,0,0,0,0,0,0l-.04.7c-.07,1.01-.68,2.06-1.74,2.97-1.99,1.71-5.15,2.55-8.45,2.27-.06,0-.12,0-.17,0-2.5,0-4.88-1.78-6.85-4.36l2.82-1.91.67.86c.39.51.98.77,1.58.77.43,0,.86-.14,1.23-.42.87-.68,1.03-1.94.35-2.81l-.51-.65.23-.15c.92-.62,1.16-1.86.54-2.78s-1.86-1.16-2.78-.54l-.45.3-.62-.8c-.68-.87-1.94-1.03-2.81-.35-.87.68-1.03,1.94-.35,2.81l.46.59-2.49,1.69c-1.26-2.4-2.19-5.06-2.66-7.51.24.09.49.14.74.14.54,0,1.07-.21,1.46-.64.58-.62.68-1.5.34-2.22h0c1.1,0,2-.9,2-2s-.9-2-2-2h-.06c.4-.73.32-1.67-.28-2.31-.68-.73-1.77-.83-2.57-.3l.02-4.45,7.63,4.44c-.11.07-.21.14-.3.23-.6.56-.77,1.39-.52,2.12-.69.32-1.17,1.01-1.17,1.81s.44,1.43,1.08,1.77c-.28.74-.1,1.6.51,2.17.38.36.87.54,1.36.54.18,0,.35-.03.52-.08.33.65,1,1.1,1.78,1.1s1.47-.46,1.79-1.13c.2.06.4.11.61.11.49,0,.98-.18,1.36-.54.62-.58.79-1.46.49-2.21.6-.35,1-.98,1-1.72s-.44-1.43-1.08-1.77c.28-.74.1-1.6-.51-2.16-.03-.02-.05-.04-.08-.06l7.26-4.21v3.75c-.55-.06-1.13.11-1.57.52-.6.56-.77,1.39-.52,2.12-.69.32-1.17,1.01-1.17,1.81s.44,1.43,1.08,1.77c-.28.74-.1,1.6.51,2.17.38.36.87.54,1.36.54.18,0,.35-.03.52-.08.33.65,1,1.1,1.78,1.1s1.47-.46,1.79-1.13c.2.06.4.11.61.11.49,0,.98-.18,1.36-.54.62-.58.79-1.46.49-2.21.6-.35,1-.98,1-1.72s-.44-1.43-1.08-1.77c.28-.74.1-1.6-.51-2.16-.46-.43-1.08-.59-1.67-.51v-6.09l9.26-5.36.02,2.21c0,.74,0,1.47,0,2.19-.04,6.11-.08,13.03,7.17,13.46.2.01.4.02.59.02,2.69,0,4.91-1.12,6.13-3.12,1.17-1.92,1.21-4.37.1-6.24-1.06-1.79-2.93-2.76-5.18-2.66-1.87.08-3.39,1.4-3.79,3.28-.37,1.74.4,3.42,1.91,4.17.99.49,2.19.09,2.68-.9.45-.9.16-1.97-.64-2.53,0-.01.02-.02.03-.03.74-.04,1.26.2,1.55.7.36.61.33,1.46-.07,2.12-.52.85-1.6,1.27-3.07,1.19-3.02-.18-3.46-2.29-3.41-9.44,0-.74,0-1.49,0-2.25l-.2-25.33c0-.76,0-1.51,0-2.25-.05-7.15.4-9.26,3.41-9.44,1.45-.08,2.55.34,3.07,1.19.4.66.43,1.51.07,2.12-.3.5-.82.74-1.55.71,0,0-.02-.02-.03-.03.8-.56,1.09-1.63.65-2.53-.49-.99-1.69-1.39-2.68-.9-1.51.75-2.28,2.43-1.91,4.17.4,1.88,1.92,3.19,3.79,3.28,2.24.1,4.12-.87,5.18-2.66,1.11-1.88,1.07-4.32-.1-6.24-1.31-2.14-3.75-3.29-6.72-3.1-7.26.43-7.21,7.35-7.18,13.45,0,.72,0,1.46,0,2.22l.02,2.06-9.1-4.91v-3.17c.15.03.3.05.45.05.49,0,.98-.18,1.36-.54.62-.58.79-1.46.49-2.21.6-.35,1-.98,1-1.72s-.44-1.43-1.08-1.77c.28-.74.1-1.6-.51-2.16-.53-.49-1.24-.64-1.89-.46-.33-.65-1-1.1-1.78-1.1s-1.43.44-1.76,1.07c-.62-.14-1.3.02-1.8.49-.6.56-.77,1.39-.52,2.12-.69.32-1.17,1.01-1.17,1.81s.44,1.43,1.08,1.77c-.28.74-.1,1.6.51,2.16.39.36.88.54,1.36.54.09,0,.17-.01.26-.03v3.15l-8.84,4.85v-7.43c0-.12-.02-.23-.03-.34.13.03.26.04.39.04.49,0,.98-.18,1.36-.54.62-.58.79-1.46.49-2.21.6-.35,1-.98,1-1.72s-.44-1.43-1.08-1.77c.28-.74.1-1.6-.51-2.16-.52-.49-1.24-.64-1.89-.46-.33-.65-1-1.1-1.78-1.1s-1.43.44-1.76,1.07c-.62-.14-1.3.02-1.81.49-.6.56-.77,1.39-.52,2.12-.69.32-1.17,1.01-1.17,1.81s.44,1.43,1.08,1.77c-.28.74-.1,1.6.51,2.17.38.36.87.54,1.36.54.13,0,.26-.01.38-.04-.02.11-.03.22-.03.34v7.46l-8.74-4.72.05-10.78,5.22-3.66c.16.04.33.07.49.07.18,0,.35-.03.52-.08.33.65,1,1.1,1.78,1.1s1.47-.46,1.79-1.13c.2.06.4.11.61.11.49,0,.98-.18,1.36-.54.62-.58.79-1.46.49-2.21.6-.35,1-.98,1-1.72s-.44-1.43-1.08-1.77c.28-.74.1-1.6-.51-2.16-.53-.49-1.24-.64-1.89-.46-.33-.65-1-1.1-1.78-1.1s-1.43.44-1.76,1.07c-.48-.11-.99-.03-1.43.21l-1.64-.97c.08-.22.13-.45.13-.7,0-.77-.44-1.43-1.08-1.77.28-.74.1-1.6-.51-2.16-.53-.49-1.24-.64-1.89-.46-.33-.65-1-1.1-1.78-1.1s-1.43.44-1.76,1.07c-.62-.14-1.3.02-1.8.49-.6.56-.77,1.39-.52,2.12-.69.32-1.17,1.01-1.17,1.81,0,.29.06.56.17.81l-1.16.72c-.4-.15-.83-.16-1.23-.05-.33-.65-1-1.1-1.78-1.1s-1.43.44-1.76,1.07c-.62-.14-1.3.02-1.81.49-.6.56-.77,1.39-.52,2.12-.69.32-1.17,1.01-1.17,1.81s.44,1.43,1.08,1.77c-.28.74-.1,1.6.51,2.16.39.36.88.54,1.36.54.18,0,.35-.03.52-.08.33.65,1,1.1,1.78,1.1s1.47-.46,1.79-1.13c.2.06.4.11.61.11.09,0,.17-.01.25-.02l4.53,3.47-.05,10.58-9.33,5.12v-7.52c0-.12-.02-.23-.03-.34.12.02.25.04.37.04.49,0,.98-.18,1.36-.54.62-.58.79-1.46.49-2.21.6-.35,1-.98,1-1.72s-.44-1.43-1.08-1.77c.28-.74.1-1.6-.51-2.16-.52-.49-1.24-.64-1.89-.46-.33-.65-1-1.1-1.78-1.1s-1.43.44-1.76,1.07c-.62-.14-1.3.02-1.81.49-.6.56-.77,1.39-.52,2.12-.69.32-1.17,1.01-1.17,1.81s.44,1.43,1.08,1.77c-.28.74-.1,1.6.51,2.17.38.36.87.54,1.36.54.13,0,.27-.01.4-.04-.02.11-.03.22-.03.34v7.48l-9.09-4.91v-2.91c.13.03.27.04.4.04.49,0,.98-.18,1.36-.54.62-.58.79-1.46.49-2.21.6-.35,1-.98,1-1.72s-.44-1.43-1.08-1.77c.28-.74.1-1.6-.51-2.16-.52-.49-1.24-.64-1.89-.46-.33-.65-1-1.1-1.78-1.1s-1.43.44-1.76,1.07c-.62-.14-1.3.02-1.8.49-.6.56-.78,1.39-.52,2.12-.69.32-1.17,1.01-1.17,1.81s.44,1.43,1.08,1.77c-.28.74-.1,1.6.51,2.17.38.36.87.54,1.36.54.1,0,.2-.02.3-.03v2.91l-9.1,4.99-.02-2.17c0-.74,0-1.48,0-2.2.04-6.1.08-13.02-7.17-13.45Zm9.64,35.56l6.65-3.64v.26c-.25.09-.48.23-.69.42-.44.41-.64.97-.63,1.53-.41.37-.67.89-.67,1.49s.24,1.07.61,1.44c-.03.57.17,1.16.62,1.58.22.21.48.35.75.43v.07l-6.65-3.57Zm58.66-3.42c-.29.08-.57.23-.81.45-.44.41-.64.97-.63,1.53-.41.37-.67.89-.67,1.49s.24,1.07.61,1.44c-.03.57.17,1.16.62,1.58.26.24.56.39.88.47v.1l-6.71-3.72,6.71-3.68v.35Zm4,7.42v-.48c.29-.08.57-.23.81-.45.47-.44.67-1.05.62-1.64.34-.36.55-.84.55-1.38,0-.57-.24-1.07-.61-1.44.03-.57-.17-1.16-.62-1.58-.22-.21-.48-.35-.75-.44v-.39l6.97,3.76-6.97,4.03Zm-25.71-.52c.24-.09.47-.22.67-.41.47-.44.67-1.05.62-1.64.34-.36.55-.84.55-1.38,0-.57-.24-1.07-.61-1.44.03-.57-.17-1.16-.62-1.58-.17-.16-.37-.28-.58-.37v-.33s6.73,3.63,6.73,3.63l-6.77,3.91v-.4Zm-3.97-6.94c-.36.07-.7.23-.99.5-.44.41-.64.97-.63,1.53-.41.37-.67.89-.67,1.49s.24,1.07.61,1.44c-.03.57.17,1.16.62,1.58.29.27.65.44,1.02.51v.23s-7.08-3.8-7.08-3.8l7.12-3.9v.44Zm12.83,6.84v.57c-.27.09-.53.23-.75.44-.44.41-.64.97-.63,1.53-.41.37-.67.89-.67,1.49s.24,1.07.61,1.44c-.03.57.17,1.16.62,1.58.24.22.52.37.81.45v.22l-6.65-3.87,6.65-3.84Zm4,7.51c.32-.08.62-.23.88-.47.47-.44.67-1.05.62-1.64.34-.36.55-.84.55-1.38,0-.57-.24-1.07-.61-1.44.03-.57-.17-1.16-.62-1.58-.24-.22-.52-.37-.81-.45v-.38l6.92,3.87-6.92,4.01v-.56Zm0-14.37v-.46c.32-.08.62-.23.88-.47.47-.44.67-1.05.62-1.64.34-.36.55-.84.55-1.38,0-.57-.24-1.07-.61-1.44.03-.57-.17-1.16-.62-1.58-.03-.03-.06-.05-.09-.07l6.13,3.29-6.84,3.75Zm0-7.42h0s.02,0,.02,0c0,0-.02,0-.02,0Zm-4,.02c-.27.09-.53.23-.75.43-.44.41-.65.97-.63,1.53-.41.37-.67.89-.67,1.49s.24,1.07.61,1.44c-.03.57.17,1.16.62,1.58.24.22.52.37.81.45v.52l-6.77-3.65,6.77-3.92v.13Zm-22.08,7.49v-.51c.39-.06.77-.22,1.08-.51.47-.44.67-1.05.62-1.64.34-.36.55-.84.55-1.38,0-.57-.24-1.07-.61-1.44.03-.57-.17-1.15-.62-1.58l5.98,3.21-7.01,3.84Zm-4-7.41c-.19.09-.38.2-.54.35-.44.41-.65.97-.63,1.53-.41.37-.67.89-.67,1.49s.24,1.07.61,1.44c-.03.57.17,1.16.62,1.58.18.17.39.3.6.38v.47l-7.39-3.99,7.39-3.71v.45Zm-9.09,14.35c.06-.01.12-.03.19-.05l-.19.1v-.05Zm.94-.49c.47-.44.67-1.05.62-1.64.34-.36.55-.84.55-1.38,0-.57-.24-1.07-.61-1.44.03-.57-.17-1.16-.62-1.58-.26-.24-.56-.39-.88-.47v-.48l7.05,3.8-6.27,3.3c.05-.04.11-.07.16-.12Zm-4.94-14.21h-.03s.02,0,.03,0h0Zm6.19,18.11l6.91-3.64v.44c-.29.08-.57.23-.81.45-.44.41-.65.97-.63,1.53-.41.37-.67.89-.67,1.49s.24,1.07.61,1.44c-.03.57.17,1.16.62,1.58.26.24.56.39.88.47v.11l-6.91-3.87Zm10.91,4.19v-.45c.29-.08.57-.23.81-.45.47-.44.67-1.05.62-1.64.34-.36.55-.84.55-1.38,0-.57-.24-1.07-.61-1.44.03-.57-.17-1.16-.62-1.58-.22-.21-.48-.35-.75-.44v-.36l6.91,3.73-6.91,4Zm48.13-14.53l-6.91-3.73,6.85-3.96.06,7.69Zm-2.24-11.05l-6.97,4.03v-.48c.29-.08.57-.23.81-.45.47-.44.67-1.05.62-1.64.34-.36.55-.84.55-1.38,0-.57-.24-1.07-.61-1.44.03-.57-.17-1.16-.62-1.58-.22-.21-.48-.35-.75-.43v-.39l6.97,3.76Zm-10.97-3.74v.35c-.29.08-.57.23-.81.45-.44.41-.65.97-.63,1.53-.41.37-.67.89-.67,1.49s.24,1.07.61,1.44c-.03.57.17,1.16.62,1.58.26.24.56.39.88.47v.16l-6.88-3.69,6.88-3.77Zm-14.94,3.74l-6.7,3.88v-.4c.22-.09.42-.21.6-.38.47-.44.67-1.05.62-1.64.34-.36.55-.84.55-1.38,0-.57-.24-1.07-.61-1.44.03-.57-.17-1.16-.62-1.58-.15-.14-.33-.25-.51-.34v-.33s6.67,3.6,6.67,3.6Zm-6.57-24.97h1.65l-1.65,1.16v-1.16Zm-5.17,0h1.17v.89s-1.17-.89-1.17-.89Zm1.07,21.07v.46c-.38.06-.75.23-1.06.51-.44.41-.65.97-.63,1.53-.41.37-.67.89-.67,1.49s.24,1.07.61,1.44c-.03.57.17,1.16.62,1.58.31.29.69.46,1.09.51v.26s-7.15-3.84-7.15-3.84l7.18-3.94Zm-9.17,7.41s-.1-.03-.14-.04v-.04l.14.08Zm-6.5-3.63l-5.71,2.86c.4-.43.58-.99.53-1.54.34-.36.55-.84.55-1.38,0-.57-.24-1.07-.61-1.44.03-.57-.17-1.16-.62-1.58-.26-.24-.56-.39-.88-.47v-.1l6.74,3.64Zm-10.74-3.61v.12c-.25.09-.48.23-.69.42-.44.41-.65.97-.63,1.53-.41.37-.67.89-.67,1.49s.24,1.07.61,1.44c-.03.57.17,1.16.62,1.58.08.07.17.14.25.19l-6.24-3.08,6.74-3.69Zm-1.46,10.75l-7.52,4.12-.06-7.86,7.58,3.74Z"/>
</svg>