<?xml version="1.0" encoding="UTF-8"?>
<svg id="icons" xmlns="http://www.w3.org/2000/svg" viewBox="0 0 120 120">
  <path d="m111.99,59.75c0-.06-.01-.13-.02-.19,0-.06-.02-.13-.04-.19-.02-.06-.03-.12-.06-.18-.02-.06-.05-.13-.08-.19-.03-.06-.05-.11-.09-.16-.04-.06-.08-.12-.12-.18-.02-.03-.04-.06-.06-.09-.02-.02-.04-.04-.06-.06-.02-.02-.04-.05-.06-.07l-6.68-6.58c-.79-.78-2.05-.76-2.83.02-.78.79-.77,2.05.02,2.83l3.36,3.31h-9.39c-.93-18.3-15.62-33.03-33.91-34.04v-8.52l2.36,2.78c.4.47.96.71,1.53.71.46,0,.92-.16,1.29-.47.84-.71.95-1.98.23-2.82l-5.88-6.95s-.05-.04-.07-.07c-.02-.02-.03-.05-.05-.07-.03-.03-.06-.04-.08-.07-.05-.05-.11-.09-.16-.13-.05-.04-.11-.07-.17-.11-.06-.03-.11-.06-.17-.09-.06-.03-.13-.05-.19-.07-.06-.02-.11-.04-.17-.05-.07-.02-.13-.03-.2-.04-.06,0-.12-.01-.18-.02-.06,0-.13,0-.19,0-.07,0-.13.01-.19.02-.06,0-.12.02-.18.04-.07.02-.13.04-.2.06-.06.02-.11.05-.17.07-.06.03-.12.06-.18.1-.05.03-.11.07-.16.11-.03.02-.07.04-.1.07-.02.02-.04.05-.07.07-.02.02-.04.03-.06.05l-6.58,6.67c-.78.79-.77,2.05.02,2.83.39.38.9.58,1.4.58s1.03-.2,1.42-.6l3.16-3.2v9.1c-18.29,1.01-32.98,15.74-33.91,34.04h-8.62l2.78-2.36c.84-.71.95-1.98.23-2.82-.71-.84-1.97-.95-2.82-.23l-6.95,5.88s-.02.03-.04.05c-.03.03-.06.05-.09.08-.1.1-.19.22-.26.33,0,.01-.01.03-.02.04-.09.15-.15.3-.2.46-.01.04-.02.07-.03.11-.04.17-.06.35-.06.52,0,.03,0,.06,0,.09.01.16.04.32.1.48,0,.02,0,.04.01.06,0,0,.01.02.01.03.06.16.15.32.26.47.03.03.05.07.08.1.04.05.07.1.12.14l6.68,6.58c.39.38.9.58,1.4.58s1.03-.2,1.42-.6c.78-.79.77-2.05-.02-2.83l-3.2-3.15h9.22c1.08,18.16,15.7,32.72,33.88,33.73v8.84l-2.39-2.82c-.72-.84-1.98-.95-2.82-.23-.84.71-.95,1.98-.23,2.82l5.88,6.94s.04.04.06.06c.02.02.04.05.06.07.04.04.08.06.12.09.05.04.09.08.14.11.07.05.14.09.22.13.05.03.09.05.14.07.09.04.18.06.27.09.04.01.08.03.12.04.13.03.27.04.4.04,0,0,0,0,0,0s0,0,0,0c.12,0,.24-.01.37-.04.04,0,.07-.02.11-.03.08-.02.17-.04.25-.07.04-.02.08-.04.12-.06.07-.03.14-.07.21-.11.04-.03.08-.06.12-.09.04-.03.08-.05.11-.08.02-.02.04-.05.07-.07.02-.02.04-.03.06-.05l6.58-6.67c.78-.79.77-2.05-.02-2.83-.79-.78-2.05-.77-2.83.02l-3.12,3.17v-9.34c18.18-1,32.8-15.57,33.88-33.73h8.49l-2.6,2.2c-.84.71-.95,1.98-.23,2.82.4.47.96.71,1.53.71.46,0,.92-.16,1.29-.47l6.95-5.88s.04-.04.06-.06c.02-.02.05-.04.07-.06.03-.03.05-.06.07-.09.04-.05.08-.1.12-.15.04-.06.07-.11.11-.17.03-.06.06-.11.09-.17.03-.06.05-.12.07-.18.02-.06.04-.12.05-.18.01-.06.03-.13.03-.19,0-.06.01-.13.02-.19,0-.06,0-.13,0-.19Zm-20.11-1.73h-10.2c-.88-10.49-9.23-18.88-19.7-19.84v-10.19c16.08,1,28.97,13.93,29.9,30.03Zm-33.9,0h-15.69c.86-8.28,7.43-14.88,15.69-15.81v15.81Zm0,4v15.5c-8.16-.92-14.65-7.37-15.64-15.5h15.64Zm4,0h15.64c-.99,8.13-7.48,14.58-15.64,15.5v-15.5Zm0-4v-15.81c8.26.93,14.83,7.53,15.69,15.81h-15.69Zm-4-30.03v10.19c-10.47.96-18.82,9.35-19.7,19.84h-10.2c.92-16.09,13.82-29.03,29.9-30.03Zm-29.87,34.03h10.2c1.02,10.34,9.31,18.58,19.68,19.52v10.19c-15.98-.99-28.8-13.77-29.87-29.72Zm33.87,29.72v-10.19c10.37-.95,18.65-9.18,19.68-19.52h10.2c-1.07,15.95-13.9,28.72-29.87,29.72Z"/>
  <path d="m41.36,72.48l-.48-1.05c-.39-.85-1.02-1.52-1.76-1.97.14-.86.03-1.77-.36-2.62l-.49-1.05c-.46-1-1.65-1.43-2.66-.98-1,.46-1.44,1.65-.98,2.66l.49,1.05c.08.16.05.31.02.4-.03.09-.11.22-.27.3-.27.12-.58,0-.7-.26l-.48-1.05c-.46-1-1.65-1.44-2.65-.98-1,.46-1.44,1.65-.98,2.65l.48,1.05c.39.85,1.02,1.51,1.76,1.96-.15.88-.03,1.79.36,2.62l.48,1.05c.34.73,1.06,1.16,1.82,1.16.28,0,.57-.06.84-.18,1-.46,1.44-1.65.98-2.65l-.48-1.05c-.08-.16-.05-.31-.02-.4.03-.09.11-.22.27-.3.26-.12.58,0,.7.26l.48,1.05c.46,1,1.65,1.44,2.65.98,1-.46,1.44-1.65.98-2.65Z"/>
  <path d="m52.65,81.1l-1.01-.57c-.81-.46-1.71-.63-2.58-.56-.4-.8-1.03-1.46-1.83-1.91l-1.01-.56c-.96-.54-2.18-.2-2.72.77-.54.96-.2,2.18.77,2.72l1.01.56c.16.09.22.22.25.32.03.1.04.24-.05.4-.14.25-.46.34-.72.2l-1.01-.56c-.96-.54-2.18-.2-2.72.77-.54.96-.2,2.18.77,2.72l1.01.56c.7.39,1.46.58,2.21.58.12,0,.25-.01.37-.02.4.8,1.03,1.47,1.83,1.92l1.01.56c.31.17.64.25.98.25.7,0,1.38-.37,1.75-1.02.54-.96.2-2.18-.77-2.72l-1.01-.56c-.16-.09-.22-.22-.25-.32-.03-.1-.04-.24.05-.4.14-.25.46-.34.72-.2l1.01.57c.97.54,2.18.2,2.72-.77.54-.96.2-2.18-.77-2.72Z"/>
  <path d="m71.44,84.94l-.99.36c-.22.04-.52,0-.59-.25-.04-.17,0-.31.06-.4s.15-.2.32-.24l1.12-.29c1.07-.28,1.71-1.37,1.43-2.44-.28-1.07-1.37-1.71-2.44-1.43l-1.12.29c-.88.23-1.66.71-2.25,1.38-.82-.29-1.73-.35-2.64-.11l-.53.14c-1.07.28-1.71,1.37-1.43,2.44.28,1.07,1.37,1.71,2.44,1.43l.53-.14c.28-.07.57.1.64.38.04.17,0,.31-.06.4-.05.09-.15.2-.32.24l-1.12.29c-1.07.28-1.71,1.37-1.43,2.44.23.9,1.05,1.5,1.94,1.5.17,0,.33-.02.5-.06l1.12-.29c.94-.24,1.73-.77,2.31-1.47.44.14.9.21,1.37.21.41,0,.82-.05,1.22-.16.06-.02.12-.04.19-.06l1.11-.41c1.04-.38,1.57-1.53,1.19-2.57-.38-1.04-1.53-1.56-2.57-1.19Z"/>
  <path d="m81.82,76.98l-.81.82c-.2.21-.54.21-.75,0-.13-.13-.16-.27-.16-.37,0-.1.02-.25.15-.37l.81-.82c.77-.79.76-2.05-.03-2.83-.79-.77-2.05-.76-2.83.03l-.81.82c-.64.65-1.06,1.47-1.22,2.35-.85.17-1.67.59-2.32,1.26l-.81.82c-.77.79-.76,2.05.03,2.83.79.77,2.05.76,2.83-.03l.81-.83c.21-.21.54-.21.75,0,.08.08.12.16.11.27,0,.11-.05.24-.14.34l-.99.8c-.86.69-.99,1.95-.3,2.81.39.49.97.74,1.56.74.44,0,.89-.15,1.26-.44l1.11-.9c.06-.05.12-.1.17-.16.63-.64,1.05-1.42,1.24-2.26.88-.16,1.72-.59,2.39-1.27l.81-.83c.77-.79.76-2.05-.03-2.83-.79-.77-2.05-.76-2.83.03Z"/>
  <path d="m81.63,67.47c-.68.54-1.22,1.28-1.5,2.17l-.24.76c-.34,1.05.24,2.18,1.3,2.51,1.06.34,2.18-.24,2.51-1.3l.24-.76c.09-.28.38-.43.66-.34.17.05.26.17.31.26.04.09.09.23.03.4l-.35,1.1c-.34,1.05.24,2.18,1.3,2.51.2.06.41.1.61.1.85,0,1.63-.54,1.91-1.39l.35-1.1c.28-.87.29-1.78.03-2.64.7-.55,1.23-1.3,1.5-2.17l.35-1.1c.34-1.05-.24-2.18-1.3-2.51-1.05-.33-2.18.25-2.51,1.3l-.35,1.1c-.05.17-.17.26-.26.31-.09.04-.23.09-.4.03-.17-.05-.26-.17-.31-.26-.04-.09-.09-.23-.03-.4l.35-1.1c.34-1.05-.24-2.18-1.3-2.51-1.05-.33-2.18.25-2.51,1.3l-.35,1.1c-.28.87-.29,1.78-.03,2.64Z"/>
  <path d="m80.91,46.16c-1.04.37-1.58,1.52-1.21,2.56l.39,1.09c.31.86.86,1.59,1.58,2.12-.22.84-.19,1.76.12,2.64l.39,1.09c.29.82,1.06,1.33,1.88,1.33.22,0,.45-.04.67-.12,1.04-.37,1.58-1.52,1.21-2.56l-.39-1.09c-.1-.27.05-.58.32-.67.27-.1.58.04.67.32l.39,1.09c.37,1.04,1.52,1.58,2.56,1.21,1.04-.37,1.58-1.52,1.21-2.56l-.39-1.09c-.31-.86-.86-1.59-1.58-2.12.22-.87.18-1.78-.13-2.64l-.39-1.09c-.37-1.04-1.52-1.58-2.56-1.21-1.04.37-1.58,1.52-1.21,2.56l.39,1.09c.06.17.02.31-.02.4-.04.09-.13.21-.3.27-.17.06-.31.02-.4-.02-.09-.04-.21-.13-.27-.3l-.39-1.09c-.37-1.04-1.51-1.58-2.56-1.21Z"/>
  <path d="m63.43,36.83l1.06.46c.59.25,1.2.38,1.8.38.37,0,.74-.06,1.09-.14.48.75,1.17,1.33,2,1.69l1.06.46c.26.11.53.17.8.17.77,0,1.51-.45,1.83-1.2.44-1.01-.02-2.19-1.03-2.63l-1.06-.46c-.17-.07-.24-.2-.28-.29-.04-.09-.06-.24,0-.4.11-.24.48-.19.68-.1l1.07.47c1.01.45,2.19-.01,2.64-1.02.45-1.01-.01-2.19-1.02-2.64l-1.08-.48c-1.03-.45-2.09-.5-3.06-.25-.46-.56-1.09-1.02-1.86-1.36-.04-.02-.07-.03-.11-.04l-1.11-.41c-1.04-.38-2.19.16-2.56,1.19s.16,2.19,1.19,2.56l1.05.38c.13.06.22.12.27.16,0,0,0,.01,0,.02-.12.27-.42.39-.69.27l-1.06-.46c-1.01-.45-2.19.02-2.63,1.03-.44,1.01.02,2.19,1.03,2.63Z"/>
  <path d="m47.73,35.16l.9-.46c.24-.02.48.12.56.36.05.17.01.31-.03.4-.04.09-.14.21-.31.26l-1.1.35c-1.05.34-1.63,1.46-1.29,2.52.27.85,1.06,1.39,1.9,1.39.2,0,.41-.03.61-.1l1.1-.35c.87-.28,1.62-.81,2.18-1.52.41.12.83.19,1.26.19.46,0,.92-.07,1.38-.22l1.1-.35c1.05-.34,1.63-1.46,1.29-2.51s-1.46-1.64-2.51-1.29l-1.1.35c-.28.09-.57-.06-.66-.34-.05-.17-.01-.31.03-.4.04-.09.14-.21.31-.26l1.1-.35c1.05-.34,1.63-1.46,1.29-2.52s-1.46-1.63-2.52-1.29l-1.1.35c-.87.28-1.62.8-2.17,1.51-.84-.24-1.75-.25-2.64.04-.11.03-.21.08-.31.13l-1.1.57c-.98.51-1.36,1.71-.86,2.7.51.98,1.71,1.36,2.7.86Z"/>
  <path d="m37.47,43.82l.8-.84c.2-.21.54-.22.75-.02.13.12.16.27.16.37,0,.1-.02.24-.15.38l-.49.52c-.76.8-.73,2.07.07,2.83.39.37.88.55,1.38.55.53,0,1.06-.21,1.45-.62l.49-.52c.63-.66,1.04-1.49,1.18-2.37.85-.19,1.66-.61,2.3-1.29l.8-.84c.76-.8.73-2.07-.07-2.83-.8-.76-2.07-.73-2.83.07l-.8.84c-.2.21-.54.22-.75.02-.13-.12-.16-.27-.16-.37,0-.1.02-.24.15-.38l.8-.84c.76-.8.73-2.07-.07-2.83-.8-.76-2.06-.73-2.83.07l-.79.84c-.63.66-1.03,1.48-1.18,2.36-.85.19-1.66.62-2.3,1.3l-.8.84c-.76.8-.73,2.07.07,2.83.8.76,2.07.73,2.83-.07Z"/>
  <path d="m37.66,52.84c.67-.59,1.15-1.37,1.38-2.25l.21-.8c.28-1.07-.37-2.16-1.44-2.44-1.07-.27-2.16.37-2.44,1.44l-.21.8c-.04.17-.16.27-.24.32-.09.05-.23.1-.4.06-.06-.02-.09-.03-.09-.03h0s-.06-.16-.01-.39l.44-1.09c.41-1.03-.09-2.19-1.11-2.6-1.03-.41-2.19.09-2.6,1.11l-.49,1.23c-.03.08-.06.16-.08.24-.21.83-.22,1.66-.03,2.42-.74.61-1.29,1.42-1.53,2.36l-.29,1.12c-.28,1.07.37,2.16,1.44,2.44,1.07.28,2.16-.37,2.44-1.44l.29-1.12c.07-.28.36-.45.64-.38.18.04.27.16.32.24.05.09.1.22.06.4l-.16.63c-.28,1.07.37,2.16,1.44,2.44.17.04.33.06.5.06.89,0,1.7-.6,1.94-1.5l.16-.63c.23-.89.18-1.8-.11-2.64Z"/>
  <path d="m75.31,40.71c.21.37.49.69.83.96-.1.1-.2.21-.28.34-.61.92-.35,2.16.57,2.77.77.5,1.69.77,2.6.77.33,0,.66-.04.98-.11,1.02-.23,1.86-.81,2.35-1.64.52-.85.59-1.85.21-2.72-.23-.53-.61-.96-1.03-1.3.65-.69.73-1.78.14-2.57-.84-1.13-2.21-1.67-3.67-1.45-1.38.21-2.49,1.05-2.9,2.19-.34.95-.27,1.93.2,2.75Z"/>
  <path d="m50.61,71.72c1.71,0,3.11-1.39,3.11-3.11s-1.39-3.11-3.11-3.11-3.11,1.39-3.11,3.11,1.39,3.11,3.11,3.11Zm0-4c.49,0,.89.4.89.89s-.4.89-.89.89-.89-.4-.89-.89.4-.89.89-.89Z"/>
  <path d="m69.57,65.5c-1.71,0-3.11,1.39-3.11,3.11s1.39,3.11,3.11,3.11,3.11-1.39,3.11-3.11-1.39-3.11-3.11-3.11Zm0,4c-.49,0-.89-.4-.89-.89s.4-.89.89-.89.89.4.89.89-.4.89-.89.89Z"/>
  <path d="m69.57,49.54c-1.71,0-3.11,1.39-3.11,3.11s1.39,3.11,3.11,3.11,3.11-1.39,3.11-3.11-1.39-3.11-3.11-3.11Zm0,4c-.49,0-.89-.4-.89-.89s.4-.89.89-.89.89.4.89.89-.4.89-.89.89Z"/>
  <path d="m50.61,55.75c1.71,0,3.11-1.39,3.11-3.11s-1.39-3.11-3.11-3.11-3.11,1.39-3.11,3.11,1.39,3.11,3.11,3.11Zm0-4c.49,0,.89.4.89.89s-.4.89-.89.89-.89-.4-.89-.89.4-.89.89-.89Z"/>
</svg>