<?xml version="1.0" encoding="UTF-8"?>
<svg id="icons" xmlns="http://www.w3.org/2000/svg" viewBox="0 0 120 120">
  <path d="m52.85,28.78l-1.91,5.87c-.27.82.03,1.73.73,2.24s1.65.51,2.35,0l4.99-3.63,4.99,3.63c.35.25.76.38,1.18.38s.83-.13,1.18-.38c.7-.51.99-1.41.73-2.24l-1.91-5.87,4.99-3.63c.7-.51.99-1.41.73-2.24s-1.04-1.38-1.9-1.38h-6.17l-1.91-5.87c-.27-.82-1.04-1.38-1.9-1.38s-1.63.56-1.9,1.38l-1.91,5.87h-6.17c-.87,0-1.63.56-1.9,1.38s.03,1.73.73,2.24l4.99,3.63Zm5.26-3.25h1.81l.56,1.72-1.46,1.06-1.46-1.06.56-1.72Z"/>
  <path d="m91.43,28.72l-3.09.16.69-.83c.71-.85.59-2.11-.26-2.82-.85-.71-2.11-.58-2.82.26l-.91,1.09-.59-3.01c-.21-1.08-1.26-1.79-2.35-1.58-1.08.21-1.79,1.26-1.58,2.35l1.21,6.22-1.32,1.59-1.19-3.9c-.32-1.06-1.44-1.65-2.5-1.33-1.06.32-1.65,1.44-1.33,2.5l1.96,6.42-2.34,2.83c-.64-.07-1.28-.1-1.94-.1-5.51,0-10.59,2.39-14.08,6.5-3.48-4.11-8.56-6.5-14.07-6.5-10.19,0-18.48,8.29-18.48,18.48,0,5.05,2.01,9.78,5.71,13.35l9.4,8.55-4.49,5.04-3.32-2.71c-.56-.46-1.33-.58-2-.31-.67.27-1.15.88-1.25,1.59l-1.57,11.72c-.09.69.18,1.37.72,1.81.36.3.81.45,1.27.45.22,0,.44-.04.65-.11l11.19-3.88c.69-.24,1.19-.83,1.32-1.54.13-.71-.14-1.44-.71-1.9l-3.19-2.6,4.35-4.88,13.28,12.08c.38.35.86.52,1.35.52s.97-.18,1.36-.53l24.21-22.32c4.35-3.52,6.85-8.74,6.85-14.34,0-7.98-5.09-14.77-12.19-17.35l1.23-1.48h5.94c1.1,0,2-.9,2-2s-.9-2-2-2h-2.63l.95-1.15,6.76-.35c1.1-.06,1.95-1,1.89-2.1-.06-1.1-1-1.96-2.1-1.89Zm-58.1,62.87l.67-4.96,4.07,3.32-4.73,1.64Zm54.24-34.54c0,4.41-1.98,8.52-5.42,11.28-.04.03-.1.09-.13.12l-22.87,21.09-13.43-12.22s0,0,0,0c0,0,0,0,0,0l-10.24-9.32-.57-.51c-2.86-2.76-4.44-6.46-4.44-10.42,0-7.98,6.49-14.48,14.48-14.48,5.09,0,9.71,2.6,12.36,6.95.36.6,1.01.96,1.71.96h0c.7,0,1.34-.36,1.71-.96,2.66-4.35,7.29-6.95,12.38-6.95,7.98,0,14.48,6.5,14.48,14.48Z"/>
  <path d="m60,8C31.33,8,8,31.33,8,60s23.33,52,52,52,52-23.33,52-52S88.67,8,60,8Zm0,100c-26.47,0-48-21.53-48-48S33.53,12,60,12s48,21.53,48,48-21.53,48-48,48Z"/>
</svg>