<?xml version="1.0" encoding="UTF-8"?>
<svg id="icons" xmlns="http://www.w3.org/2000/svg" viewBox="0 0 120 120">
  <path d="m60,8C31.33,8,8,31.33,8,60s23.33,52,52,52,52-23.33,52-52S88.67,8,60,8Zm0,100c-26.47,0-48-21.53-48-48S33.53,12,60,12s48,21.53,48,48-21.53,48-48,48Z"/>
  <path d="m24.5,65.3l-.37-2.16,1.57-1.53c.54-.53.74-1.33.51-2.05s-.86-1.25-1.62-1.36l-2.17-.32-.97-1.97c-.34-.68-1.03-1.12-1.79-1.12s-1.46.43-1.79,1.11l-.97,1.97-2.17.32c-.75.11-1.38.64-1.61,1.36s-.04,1.52.51,2.05l1.57,1.53-.37,2.16c-.13.75.18,1.51.8,1.96.62.45,1.43.51,2.11.15l1.94-1.02,1.94,1.02c.29.15.61.23.93.23.41,0,.83-.13,1.18-.38.62-.45.92-1.21.8-1.96Zm-4.5-3.14c-.23-.04-.46-.04-.69,0-.03-.23-.1-.45-.21-.66.21-.1.4-.24.56-.41.16.17.35.3.56.41-.11.21-.18.43-.21.66Z"/>
  <path d="m93.28,59.8c-.24.72-.04,1.52.51,2.05l1.57,1.53-.37,2.16c-.13.75.18,1.51.8,1.96.35.25.76.38,1.18.38.32,0,.64-.08.93-.23l1.94-1.02,1.94,1.02c.67.35,1.49.29,2.11-.15.62-.45.92-1.21.8-1.96l-.37-2.16,1.57-1.53c.54-.53.74-1.33.51-2.05s-.86-1.25-1.62-1.36l-2.17-.32-.97-1.97c-.34-.68-1.03-1.12-1.79-1.12s-1.46.43-1.79,1.11l-.97,1.97-2.17.32c-.75.11-1.38.64-1.62,1.36Zm6.55,1.54c.16.17.35.3.56.41-.11.21-.18.43-.21.66-.23-.04-.46-.04-.69,0-.03-.23-.11-.45-.21-.66.21-.1.4-.24.56-.41Z"/>
  <path d="m55.42,20.96l-.37,2.16c-.13.75.18,1.51.8,1.96.35.25.76.38,1.18.38.32,0,.64-.08.93-.23l1.94-1.02,1.94,1.02c.67.35,1.49.29,2.11-.15s.92-1.21.8-1.96l-.37-2.16,1.57-1.53c.54-.53.74-1.33.51-2.05s-.86-1.25-1.62-1.36l-2.17-.32-.97-1.97c-.34-.68-1.03-1.12-1.79-1.12s-1.46.43-1.79,1.11l-.97,1.97-2.17.32c-.75.11-1.38.64-1.61,1.36s-.04,1.52.51,2.05l1.57,1.53Zm4.47-2.04c.16.17.35.3.56.41-.11.21-.18.43-.21.66-.23-.04-.46-.04-.69,0-.03-.23-.11-.45-.21-.66.21-.1.4-.24.56-.41Z"/>
  <path d="m64.57,97.8l-2.17-.32-.97-1.97c-.34-.68-1.03-1.12-1.79-1.12s-1.46.43-1.79,1.12l-.97,1.97-2.17.32c-.75.11-1.38.64-1.61,1.36-.24.72-.04,1.52.51,2.05l1.57,1.53-.37,2.16c-.13.75.18,1.51.8,1.96.62.45,1.43.51,2.11.15l1.94-1.02,1.94,1.02c.29.15.61.23.93.23.41,0,.83-.13,1.18-.38.62-.45.92-1.21.8-1.96l-.37-2.16,1.57-1.53c.55-.53.74-1.33.51-2.05-.24-.72-.86-1.25-1.61-1.36Zm-4.59,3.96c-.23-.04-.46-.04-.69,0-.03-.23-.1-.45-.21-.66.21-.1.4-.24.56-.41.16.17.35.3.56.4-.11.21-.18.43-.21.66Z"/>
  <path d="m85.21,73.11c-.49-.49-1.2-.69-1.88-.53l-4.9,1.17-4.75-4.49,11.75-9.06c.68-.52.95-1.42.67-2.23-.28-.81-1.04-1.35-1.89-1.35h0l-19.88.02,15.49-14.55,1.4,1.4c.38.38.89.59,1.41.59.17,0,.35-.02.52-.07.69-.18,1.23-.72,1.41-1.41l2.08-7.76c.19-.69-.01-1.43-.52-1.93-.5-.51-1.24-.7-1.93-.52l-7.76,2.08c-.69.18-1.23.72-1.41,1.41-.19.69.01,1.43.52,1.93l1.45,1.45-17.58,16.51-11.32-10.7,14.89-15.16c.77-.79.76-2.05-.03-2.83-.79-.78-2.05-.76-2.83.03l-14.94,15.22-3.36-3.17,1.39-1.39c.51-.51.7-1.24.52-1.93-.18-.69-.72-1.23-1.41-1.41l-7.76-2.08c-.69-.19-1.43.01-1.93.52s-.7,1.24-.52,1.93l2.08,7.76c.18.69.72,1.23,1.41,1.41.17.05.34.07.52.07.52,0,1.03-.21,1.41-.59l1.47-1.47,3.38,3.2-11.87,12.09c-.57.58-.73,1.43-.42,2.18.31.74,1.04,1.23,1.84,1.23h0l22.28-.02-13.96,13.11-4.91-1.17c-.67-.16-1.39.04-1.88.53l-9.53,9.54c-.53.53-.72,1.32-.49,2.03s.85,1.24,1.59,1.36l4.99.79,1.08,5.34c.15.72.68,1.31,1.38,1.52.19.06.38.09.58.09.52,0,1.03-.21,1.41-.59l4.87-4.87s0,0,0,0l4.67-4.67c.51-.51.71-1.26.51-1.95l-1.44-5.14,16.3-15.31,8.13,7.69-18.05,13.92c-.68.52-.95,1.42-.67,2.23.28.81,1.04,1.35,1.89,1.35h11.89l-2.94,4.18c-.63.9-.42,2.15.49,2.79.35.25.75.36,1.15.36.63,0,1.25-.3,1.64-.85l5.15-7.33c.43-.61.48-1.41.14-2.07-.34-.66-1.03-1.08-1.77-1.08h-9.87l13.91-10.72,5.12,4.84-1.44,5.14c-.2.7,0,1.44.51,1.95l9.54,9.54c.38.38.89.59,1.41.59.19,0,.39-.03.58-.08.71-.21,1.24-.8,1.38-1.52l1.08-5.34,4.99-.79c.74-.12,1.36-.64,1.59-1.36s.04-1.5-.49-2.03l-9.53-9.54Zm-3.34-35.98l-.28,1.06c-.07-.11-.15-.21-.24-.31-.12-.13-.26-.23-.41-.32l-.14-.14,1.07-.29Zm-43.96.24l-.79.79-.29-1.07,1.07.29Zm7.35,10.54l9.23,8.72-17.81.02,8.58-8.74Zm-10.99,39.81l-.61-3.04c-.17-.82-.82-1.45-1.65-1.58l-2.49-.4,1.27-1.27,3.99.67.92,4.2-1.43,1.43Zm4.79-4.79l-.66-3.01c-.17-.8-.82-1.41-1.62-1.55l-2.52-.42,1.23-1.23,3.72.89,1.13,4.04-1.28,1.28Zm25.48-22.31h13.78s-7.59,5.84-7.59,5.84l-6.18-5.84Zm14.9,16.98l3.72-.89,1.27,1.27-2.43.45c-.77.14-1.38.72-1.58,1.47l-.78,3.08-1.34-1.34,1.13-4.04Zm7.2,5.49c-.83.13-1.48.76-1.65,1.58l-.61,3.05-1.44-1.44,1.05-4.14,3.87-.71,1.27,1.27-2.49.4Z"/>
</svg>