<?xml version="1.0" encoding="UTF-8"?>
<svg id="icons" xmlns="http://www.w3.org/2000/svg" viewBox="0 0 120 120">
  <path d="m110,58.5h-3.2l1.99-1.78c.62-.55.67-1.5.12-2.12-.55-.62-1.5-.68-2.12-.12l-2.43,2.17v-2.59c0-.83-.67-1.5-1.5-1.5s-1.5.67-1.5,1.5v2.61l-2.23-2.14c-.59-.58-1.55-.56-2.12.04-.57.6-.56,1.55.04,2.12l1.89,1.81h-10.1v-17.51c1.98-1.04,3.02-2.67,3.33-3.76.23-.79-.22-1.6-1-1.84-.78-.24-1.62.2-1.87.98-.06.19-.52,1.37-2.03,2.07-.31.02-.6.12-.83.3-.69.19-1.52.28-2.56.21-.81-.06-1.54.56-1.6,1.39s.56,1.54,1.39,1.6c.31.02.61.03.9.03.45,0,.87-.03,1.27-.08v16.61h-5.48c-.27-.64-.71-1.18-1.25-1.6.31-.28.67-.56,1.06-.86,1.56-1.22,3.51-2.73,4.02-5.98.51-3.25-1.14-4.83-2.17-5.49-1.67-1.06-4.04-1.18-5.41-.26-1.59,1.07-2.15,3.07-1.33,4.77.78,1.61,2.49,2.3,4.26,1.73.79-.26,1.22-1.1.96-1.89s-1.1-1.22-1.89-.96c-.44.14-.56-.02-.64-.18-.11-.22-.16-.67.29-.97.27-.15,1.37-.23,2.19.33.7.48.94,1.28.76,2.46-.33,2.08-1.52,3.01-2.9,4.08-1.37,1.06-3,2.36-3.49,4.83h-14.61v-13.02c3.94-.46,5.36-2.81,6.51-4.75.99-1.66,1.7-2.85,3.81-3.26,1.2-.23,2.22.12,2.79.97.47.7.52,1.56.11,2.19-.3.47-.72.54-.88.55-.22,0-.37-.07-.39-.17.08-.83-.53-1.56-1.36-1.63-.83-.06-1.55.53-1.63,1.36-.14,1.49.7,2.76,2.13,3.25,1.71.58,3.63-.13,4.66-1.74,1.05-1.65.99-3.8-.16-5.49-1.26-1.86-3.44-2.69-5.84-2.23-3.43.66-4.76,2.88-5.82,4.67-.62,1.03-1.14,1.91-2,2.51-.44-.74-1.12-1.32-1.93-1.64v-1.24c2.9-1.99,4.68-5.29,4.68-8.83,0-1.55-.35-3.05-.98-4.42-.01-.03-.03-.06-.04-.09-.79-1.7-2.03-3.19-3.6-4.28v-2.8l1.03,1.02c.29.29.67.44,1.06.44s.77-.15,1.06-.44c.58-.59.58-1.54,0-2.12l-1-.99h1.02c.83,0,1.5-.67,1.5-1.5s-.67-1.5-1.5-1.5h-1.02l1-.99c.59-.58.59-1.53,0-2.12-.58-.59-1.53-.59-2.12,0l-1.03,1.02v-1.21c0-.83-.67-1.5-1.5-1.5s-1.5.67-1.5,1.5v.98c-.02.06-.03.13-.04.19l-.99-.98c-.59-.58-1.54-.58-2.12,0-.58.59-.58,1.54,0,2.12l1,.99h-1.14c-.83,0-1.5.67-1.5,1.5s.67,1.5,1.5,1.5h1.14l-1,.99c-.59.58-.59,1.53,0,2.12.29.29.68.44,1.06.44s.76-.14,1.06-.44l.97-.96v2.71c-1.55,1.07-2.77,2.5-3.58,4.16-.1.14-.17.28-.22.43-.52,1.2-.81,2.5-.86,3.84-.01.08-.02.17-.02.25,0,.05,0,.1,0,.15,0,3.54,1.78,6.83,4.68,8.83v1.28c-.77.33-1.41.91-1.83,1.63-.88-.6-1.42-1.49-2.04-2.54-1.06-1.79-2.39-4.01-5.82-4.67-2.4-.46-4.58.38-5.84,2.23-1.15,1.69-1.21,3.84-.16,5.49,1.03,1.61,2.95,2.32,4.66,1.74,1.43-.49,2.27-1.77,2.13-3.25-.08-.83-.81-1.4-1.63-1.32-.82.08-1.43.84-1.36,1.67-.02.03-.16.11-.39.1-.17,0-.58-.07-.88-.55-.41-.64-.36-1.5.11-2.19.57-.85,1.6-1.2,2.79-.97,2.11.41,2.82,1.6,3.81,3.26,1.15,1.92,2.55,4.26,6.45,4.74v13.02h-14.61c-.43-2.54-1.89-3.88-3.12-4.98-1.12-1-2.08-1.86-2.46-3.62-.19-.89-.24-2.1.62-2.75.61-.46,1.34-.43,1.5-.35.49.32.52.88.38,1.15-.05.09-.09.19-.45.07-.79-.25-1.63.18-1.89.96-.26.79.18,1.63.96,1.89,1.7.55,3.34-.1,4.07-1.62.84-1.72.23-3.85-1.42-4.95-1.26-.85-3.27-.72-4.77.3-.85.57-2.73,2.3-1.95,5.92.59,2.71,2.14,4.1,3.39,5.22.38.34.72.65,1.02.97-.65.43-1.17,1.04-1.48,1.77h-2.77c-.73-1.33-2.03-3.63-3.57-6.03,1.51-4.07,3.15-8.71,3.91-11.55.7-2.6.07-4.96-1.72-6.46-1.79-1.5-4.4-1.85-6.5-.87-1.94.9-3.04,2.74-3.04,5.05,0,2.5,1.89,3.85,3.68,3.85.95,0,1.84-.36,2.5-1.01.5-.5,1.1-1.39,1.1-2.83,0-.83-.67-1.5-1.5-1.5s-1.5.67-1.5,1.5c0,.56-.2.85-.6.85-.16,0-.68-.06-.68-.85,0-1.14.44-1.93,1.31-2.33,1.03-.48,2.42-.29,3.31.45.88.74,1.14,1.91.75,3.39-.61,2.26-1.83,5.82-3.09,9.27-1.7-2.34-3.47-4.35-4.97-5.08-2.04-1.01-4.39-.67-5.83.84-1.23,1.28-1.46,3.07-.6,4.66.73,1.34,1.9,2.09,3.21,2,1.17-.07,2.23-.79,2.64-1.8.33-.82.18-1.69-.41-2.32-.56-.61-1.51-.64-2.12-.08-.31.29-.47.68-.48,1.07-.06-.07-.13-.16-.2-.3-.24-.44-.2-.82.12-1.15.43-.45,1.35-.71,2.35-.22,1.24.61,3.13,3.01,5.02,5.84-.91,2.42-1.71,4.5-2.16,5.65h-4.23l1.99-1.78c.62-.55.67-1.5.12-2.12-.55-.62-1.5-.68-2.12-.12l-2.43,2.17v-2.59c0-.83-.67-1.5-1.5-1.5s-1.5.67-1.5,1.5v2.6l-2.23-2.14c-.6-.58-1.55-.55-2.12.04-.57.6-.56,1.55.04,2.12l1.89,1.81h-3.13c-.83,0-1.5.67-1.5,1.5s.67,1.5,1.5,1.5h3.13l-1.89,1.81c-.6.57-.62,1.52-.04,2.12.29.31.69.46,1.08.46s.75-.14,1.04-.42l2.23-2.14v2.6c0,.83.67,1.5,1.5,1.5s1.5-.67,1.5-1.5v-2.59l2.43,2.17c.29.26.64.38,1,.38.41,0,.82-.17,1.12-.5.55-.62.5-1.57-.12-2.12l-1.99-1.78h4.23c.44,1.12,1.21,3.14,2.09,5.48-1.87,2.69-3.73,4.98-4.96,5.59-1.22.6-2.38.26-2.78-.15-.14-.14-.25-.32-.03-.73.07-.14.14-.23.2-.3,0,.39.17.78.48,1.07.61.56,1.56.53,2.12-.08.59-.63.74-1.5.41-2.32-.41-1.01-1.47-1.74-2.64-1.8-1.31-.08-2.48.65-3.21,2-.8,1.47-.61,3.09.5,4.24.88.92,2.19,1.4,3.57,1.4.9,0,1.84-.21,2.7-.63,1.45-.72,3.21-2.65,4.89-4.89,1.28,3.52,2.55,7.18,3.17,9.49.39,1.47.14,2.65-.75,3.39-.89.74-2.28.93-3.31.45-.87-.41-1.31-1.19-1.31-2.33,0-.78.52-.85.68-.85.4,0,.6.28.6.85,0,.83.67,1.5,1.5,1.5s1.5-.67,1.5-1.5c0-1.44-.6-2.34-1.1-2.83-.66-.65-1.55-1.01-2.5-1.01-1.78,0-3.68,1.35-3.68,3.85,0,2.31,1.11,4.15,3.04,5.05.79.37,1.66.55,2.53.55,1.43,0,2.86-.49,3.97-1.42,1.79-1.5,2.41-3.86,1.72-6.46-.77-2.87-2.45-7.6-3.97-11.7,1.59-2.39,2.92-4.67,3.61-5.88h2.78c.27.65.73,1.21,1.29,1.63-.31.29-.66.57-1.03.87-1.52,1.22-3.41,2.75-3.63,5.93-.24,3.53,1.5,5.09,2.56,5.7.76.44,1.63.66,2.46.66s1.54-.2,2.14-.6c1.54-1.03,2.1-2.94,1.34-4.64-.69-1.56-2.27-2.37-3.84-1.98-.8.2-1.29,1.02-1.08,1.82.2.8,1.02,1.29,1.82,1.08.19-.04.32.21.36.29.08.17.2.61-.27.92-.15.1-.8.2-1.43-.17-1-.59-1.13-1.9-1.07-2.9.13-1.88,1.13-2.68,2.52-3.8,1.34-1.08,2.94-2.39,3.41-4.84h14.63v13.02c-3.96.48-5.38,2.84-6.54,4.79-.98,1.64-1.68,2.82-3.72,3.21-1.2.23-2.22-.12-2.79-.97-.47-.7-.52-1.56-.11-2.19.3-.47.72-.54.88-.55.22,0,.37.07.39.17-.08.83.53,1.56,1.36,1.63.84.07,1.56-.53,1.63-1.36.14-1.49-.7-2.76-2.13-3.25-1.71-.58-3.63.13-4.66,1.74-1.05,1.65-.99,3.8.16,5.49,1.03,1.52,2.68,2.35,4.56,2.35.42,0,.84-.04,1.28-.12,3.36-.65,4.68-2.85,5.73-4.62.65-1.08,1.2-2,2.12-2.61.42.73,1.06,1.32,1.84,1.65v1.28c-2.9,2-4.68,5.29-4.68,8.83,0,.05,0,.1,0,.15,0,.08,0,.17.02.25.05,1.34.34,2.64.86,3.84.04.15.12.3.22.43.81,1.65,2.03,3.09,3.58,4.16v2.71l-.97-.96c-.59-.58-1.54-.58-2.12,0-.58.59-.58,1.54,0,2.12l1,.99h-1.14c-.83,0-1.5.67-1.5,1.5s.67,1.5,1.5,1.5h1.14l-1,.99c-.59.58-.59,1.53,0,2.12.29.29.68.44,1.06.44s.76-.14,1.06-.44l.99-.98c0,.07.02.13.04.19v.98c0,.83.67,1.5,1.5,1.5s1.5-.67,1.5-1.5v-1.21l1.03,1.02c.29.29.67.44,1.06.44s.77-.15,1.06-.44c.58-.59.58-1.54,0-2.12l-1-.99h1.02c.83,0,1.5-.67,1.5-1.5s-.67-1.5-1.5-1.5h-1.02l1-.99c.59-.58.59-1.53,0-2.12-.58-.59-1.53-.59-2.12,0l-1.09,1.08v-2.82c1.6-1.1,2.86-2.6,3.66-4.32.02-.03.03-.06.04-.08.62-1.37.98-2.87.98-4.42,0-3.54-1.78-6.83-4.68-8.83v-1.24c.81-.32,1.49-.9,1.93-1.64.85.6,1.38,1.48,2,2.51,1.06,1.79,2.39,4.01,5.82,4.67.44.08.86.12,1.28.12,1.88,0,3.53-.83,4.56-2.35,1.15-1.69,1.21-3.84.16-5.49-1.03-1.61-2.94-2.32-4.66-1.74-1.43.49-2.27,1.77-2.13,3.25.08.82.8,1.4,1.63,1.32.82-.08,1.43-.84,1.36-1.67.02-.03.16-.1.39-.1.17,0,.58.07.88.55.41.64.36,1.5-.11,2.19-.57.85-1.59,1.2-2.79.97-2.11-.4-2.82-1.6-3.81-3.26-1.15-1.93-2.56-4.28-6.51-4.75v-13.02h14.61c.49,2.46,2.12,3.76,3.49,4.83,1.38,1.07,2.57,2,2.9,4.08.18,1.18-.06,1.98-.76,2.46-.82.57-1.92.49-2.19.34-.46-.3-.4-.75-.29-.97.08-.16.2-.32.64-.18.79.26,1.63-.18,1.89-.96s-.18-1.63-.96-1.89c-1.78-.58-3.48.12-4.26,1.73-.83,1.7-.27,3.71,1.33,4.77.62.42,1.44.62,2.32.62,1.06,0,2.18-.3,3.1-.88,1.03-.66,2.68-2.24,2.17-5.49-.51-3.25-2.45-4.76-4.02-5.98-.39-.3-.74-.58-1.06-.86.54-.42.98-.96,1.25-1.6h5.48v18.57c0,.83.67,1.5,1.5,1.5s1.5-.67,1.5-1.5v-18.57h10.1l-1.89,1.81c-.6.57-.62,1.52-.04,2.12.29.31.69.46,1.08.46s.75-.14,1.04-.42l2.23-2.14v2.6c0,.83.67,1.5,1.5,1.5s1.5-.67,1.5-1.5v-2.59l2.43,2.17c.29.26.64.38,1,.38.41,0,.82-.17,1.12-.5.55-.62.5-1.57-.12-2.12l-1.99-1.78h3.2c.83,0,1.5-.67,1.5-1.5s-.67-1.5-1.5-1.5Zm-54.34-29.73l1.57,1.28v.37l-1.63-1.28c.01-.13.04-.25.06-.37Zm6.18.28l-1.62,1.31v-.27l1.57-1.28c.01.08.03.16.04.25Zm-1.62-2.84v-.99c.16.2.31.41.45.62l-.45.37Zm0,8.01l.78-.64c-.22.42-.49.82-.78,1.19v-.56Zm-3-8.04l-.43-.35c.13-.21.28-.4.43-.6v.95Zm-.75,7.47l.75.59v.54c-.28-.36-.53-.73-.75-1.13Zm-27.1,22.37c.51.85,1.01,1.68,1.46,2.48h-2.41c.27-.7.59-1.54.95-2.48Zm-.95,5.48h2.37c-.46.77-.94,1.57-1.46,2.39-.34-.9-.65-1.71-.91-2.39Zm33.37,29.7l-1.57-1.28v-.27l1.62,1.31c-.01.08-.03.16-.04.25Zm-6.2-.34l1.63-1.28v.37l-1.57,1.28c-.02-.12-.05-.25-.06-.37Zm1.63-5.09l-.75.59c.21-.4.47-.77.75-1.13v.54Zm-.43,8.41l.43-.35v.95c-.15-.19-.3-.39-.43-.6Zm3.43-.39l.45.37c-.14.21-.29.42-.45.62v-.99Zm.78-7.37l-.78-.64v-.56c.3.38.56.77.78,1.19Z"/>
  <path d="m54.84,51.32c0-3.19-2.61-5.78-5.82-5.78s-5.82,2.59-5.82,5.78,2.61,5.78,5.82,5.78,5.82-2.59,5.82-5.78Zm-4.32,2.35v-.85h.87c-.22.34-.52.63-.87.85Zm.87-3.85h-.87v-.85c.35.22.64.51.87.85Zm-3.87-.85v.85h-.87c.22-.34.52-.63.87-.85Zm-.87,3.85h.87v.85c-.35-.22-.64-.51-.87-.85Z"/>
  <path d="m63.54,51.32c0,3.19,2.61,5.78,5.82,5.78s5.82-2.59,5.82-5.78-2.61-5.78-5.82-5.78-5.82,2.59-5.82,5.78Zm4.32-2.35v.85h-.87c.22-.34.52-.63.87-.85Zm-.87,3.85h.87v.85c-.35-.22-.64-.51-.87-.85Zm3.87.85v-.85h.87c-.22.34-.52.63-.87.85Zm.87-3.85h-.87v-.85c.35.22.64.51.87.85Z"/>
  <path d="m98.87,45.01c-.58-.58-1.5-.59-2.09-.03-.1-.73-.72-1.29-1.48-1.29s-1.38.56-1.48,1.29c-.59-.56-1.52-.55-2.09.03-.57.57-.57,1.48-.03,2.07-.7.12-1.24.73-1.24,1.47s.54,1.35,1.24,1.47c-.54.59-.54,1.49.03,2.07.29.29.68.44,1.07.44s.74-.14,1.03-.42c.13.7.74,1.22,1.47,1.22s1.34-.53,1.47-1.22c.29.28.66.42,1.03.42s.77-.15,1.07-.44c.57-.58.57-1.49.02-2.08.67-.15,1.17-.75,1.17-1.46s-.5-1.31-1.17-1.46c.55-.59.55-1.5-.02-2.08Z"/>
  <path d="m49.02,74.46c3.21,0,5.82-2.59,5.82-5.78s-2.61-5.78-5.82-5.78-5.82,2.59-5.82,5.78,2.61,5.78,5.82,5.78Zm-2.37-4.28h.87v.85c-.35-.22-.64-.51-.87-.85Zm3.87.85v-.85h.87c-.22.34-.52.63-.87.85Zm.87-3.85h-.87v-.85c.35.22.64.51.87.85Zm-3.87-.85v.85h-.87c.22-.34.52-.63.87-.85Z"/>
  <path d="m69.36,62.9c-3.21,0-5.82,2.59-5.82,5.78s2.61,5.78,5.82,5.78,5.82-2.59,5.82-5.78-2.61-5.78-5.82-5.78Zm2.37,4.28h-.87v-.85c.35.22.64.51.87.85Zm-3.87-.85v.85h-.87c.22-.34.52-.63.87-.85Zm-.87,3.85h.87v.85c-.35-.22-.64-.51-.87-.85Zm3.87.85v-.85h.87c-.22.34-.52.63-.87.85Z"/>
  <path d="m90.46,71.45c0,.74.54,1.35,1.24,1.47-.54.59-.54,1.49.03,2.07.29.29.68.44,1.07.44s.74-.14,1.03-.41c.1.73.72,1.29,1.48,1.29s1.38-.56,1.48-1.29c.29.27.66.41,1.03.41s.77-.15,1.07-.44c.57-.58.57-1.49.02-2.08.67-.15,1.17-.75,1.17-1.46s-.5-1.31-1.17-1.46c.55-.59.55-1.5-.02-2.08-.58-.58-1.51-.59-2.1-.02-.13-.7-.74-1.22-1.47-1.22s-1.34.53-1.47,1.22c-.59-.56-1.52-.56-2.1.02-.57.57-.57,1.48-.03,2.07-.7.12-1.24.73-1.24,1.47Z"/>
</svg>