<?xml version="1.0" encoding="UTF-8"?>
<svg id="icons" xmlns="http://www.w3.org/2000/svg" viewBox="0 0 120 120">
  <path d="m95.56,31.19s.05-.08.07-.13c1.55-2.9,2.21-6.21-1.07-9.79-1.06-1.16-2.57-1.78-4.14-1.76-.83.02-1.64.24-2.36.62l-2.2-2.02c-.81-.75-2.08-.69-2.83.12-.75.81-.69,2.08.12,2.83l2.3,2.12c-.31.92-.37,1.92-.15,2.91.37,1.64,1.45,2.98,2.97,3.69l2.68,1.26c-.21.31-.43.64-.67.99-2.83,4.09-6.7,9.68-.33,16.84,3.66,4.11,5.33,7.27,5.1,9.67-.25,2.59-2.92,4.63-6.01,6.99-.67.51-1.35,1.03-2.03,1.57-2.77,2.21-4.27,4.79-4.47,7.65-.31,4.56,2.93,8.03,3.07,8.18.39.41.92.62,1.44.62.49,0,.99-.18,1.37-.54.8-.75.84-2.02.09-2.82-.02-.02-2.19-2.39-1.98-5.18.13-1.69,1.13-3.3,2.97-4.77.66-.52,1.32-1.03,1.96-1.52,3.68-2.81,7.15-5.46,7.56-9.79.35-3.61-1.59-7.65-6.09-12.71-4.28-4.81-2.11-7.94.63-11.91.67-.97,1.39-2.01,1.99-3.11Zm-2.76-3.71l-2.82-1.32c-.54-.25-.71-.7-.76-.95-.06-.25-.09-.73.28-1.19.35-.42.8-.5,1.03-.5.01,0,.02,0,.04,0,.25,0,.68.07,1.04.46,1.13,1.24,1.48,2.27,1.19,3.51Z"/>
  <path d="m110,92.31h-5.41l3.63-3.55c.79-.77.8-2.04.03-2.83-.77-.79-2.04-.8-2.83-.03l-4.29,4.2v-5.67c0-1.1-.9-2-2-2s-2,.9-2,2v5.36l-4.34-3.94c-.82-.74-2.08-.68-2.83.14-.74.82-.68,2.08.14,2.83l3.86,3.5h-5.7c-1.1,0-2,.9-2,2s.9,2,2,2h6.84l-9.66,9.67-2.73-4.43c-.33-.53-.89-.88-1.51-.94-.62-.06-1.24.17-1.66.63l-5.5,5.94h-5.91l-7.46-13.05,5.86-9.88,2.25,3.48c.38.59,1.03.91,1.68.91.37,0,.75-.1,1.08-.32.93-.6,1.19-1.84.59-2.77l-3.33-5.15,4.19-7.06,1.49.66c.26.12.54.17.81.17.77,0,1.5-.44,1.83-1.19.45-1.01,0-2.19-1.02-2.64l-6.23-2.76c-1.01-.45-2.19,0-2.64,1.02s0,2.19,1.02,2.64l1.06.47-2.93,4.94-5.75-8.89,5.62-8.8,2.46,4.38c.37.65,1.05,1.02,1.75,1.02.33,0,.67-.08.98-.26.96-.54,1.31-1.76.76-2.72l-3.51-6.24,6.29-9.86,1.55.69c.26.12.54.17.81.17.77,0,1.5-.44,1.83-1.19.45-1.01,0-2.19-1.02-2.64l-6.23-2.76c-1.01-.45-2.19,0-2.64,1.02s0,2.19,1.02,2.64l.99.44-4.81,7.54-5.91-10.52,10.27-17.86,1.7.75c.26.12.54.17.81.17.77,0,1.5-.44,1.83-1.19.45-1.01,0-2.19-1.02-2.64l-6.71-2.97c-1.01-.45-2.19,0-2.64,1.02-.45,1.01,0,2.19,1.02,2.64l1.33.59-6.88,11.96V12.81h15.06v2.35c0,1.1.9,2,2,2s2-.9,2-2v-4.35c0-1.1-.9-2-2-2h-38.12c-1.1,0-2,.9-2,2v4.88c0,1.1.9,2,2,2s2-.9,2-2v-2.88h15.06v20.22l-6.53-11.63,1.17-.52c1.01-.45,1.47-1.63,1.02-2.64s-1.63-1.47-2.64-1.02l-6.36,2.82c-1.01.45-1.47,1.63-1.02,2.64.33.75,1.06,1.19,1.83,1.19.27,0,.55-.06.81-.17l1.52-.67,9.89,17.61-6.06,10.53-4.87-7.53.98-.43c1.01-.45,1.47-1.63,1.02-2.64-.45-1.01-1.63-1.47-2.64-1.02l-6.23,2.76c-1.01.45-1.47,1.63-1.02,2.64.33.75,1.06,1.19,1.83,1.19.27,0,.55-.06.81-.17l1.55-.69,6.33,9.79-3.62,6.29c-.55.96-.22,2.18.74,2.73.31.18.66.27,1,.27.69,0,1.37-.36,1.74-1l2.59-4.51,5.78,8.94-5.42,8.49-2.38-4.16,1.05-.46c1.01-.45,1.47-1.63,1.02-2.64s-1.63-1.47-2.64-1.02l-6.23,2.76c-1.01.45-1.47,1.63-1.02,2.64.33.75,1.06,1.19,1.83,1.19.27,0,.55-.06.81-.17l1.51-.67,3.62,6.34-3.94,6.18c-.59.93-.32,2.17.61,2.76.33.21.71.31,1.07.31.66,0,1.31-.33,1.69-.92l2.81-4.4,5.77,10.1-7.76,13.09h-4.91l-3.36-6.73c-.31-.61-.91-1.03-1.59-1.1-.69-.07-1.35.22-1.78.76l-3.96,5.06-7.12-8.87h6.16c1.1,0,2-.9,2-2s-.9-2-2-2h-5.7l3.86-3.5c.82-.74.88-2.01.14-2.83-.74-.82-2-.88-2.83-.14l-4.34,3.94v-5.36c0-1.1-.9-2-2-2s-2,.9-2,2v4.81l-4.46-3.49c-.87-.68-2.13-.53-2.81.34s-.53,2.13.34,2.81l4.35,3.41h-6.3c-1.1,0-2,.9-2,2s.9,2,2,2h5.7l-3.85,3.5c-.82.74-.88,2.01-.14,2.83.39.43.94.66,1.48.66.48,0,.96-.17,1.34-.52l4.34-3.94v5.36c0,1.1.9,2,2,2s2-.9,2-2v-4.86l8.29,10.33c.38.47.95.75,1.56.75h.01c.61,0,1.19-.29,1.56-.77l3.56-4.55,2.5,5c.34.68,1.03,1.11,1.79,1.11h32.77c.56,0,1.09-.23,1.47-.64l4.3-4.65,2.68,4.34c.32.52.86.87,1.47.94.08,0,.15.01.23.01.53,0,1.04-.21,1.42-.59l10.65-10.67v4.25c0,1.1.9,2,2,2s2-.9,2-2v-5.36l4.34,3.94c.38.35.86.52,1.34.52.54,0,1.09-.22,1.48-.66.74-.82.68-2.08-.14-2.83l-3.85-3.5h5.69c1.1,0,2-.9,2-2s-.9-2-2-2Zm-46.47,14.88h-3.24v-5.67l3.24,5.67Zm-3.24-20.24v-12.37l3.82,5.92-3.82,6.45Zm0-26.06v-12.57l3.75,6.68-3.75,5.88Zm-4-12.78v12.92l-3.93-6.08,3.93-6.84Zm0,26.48v11.86l-3.57-6.26,3.57-5.6Zm0,26.95v5.64h-3.34l3.34-5.64Z"/>
</svg>