<?xml version="1.0" encoding="UTF-8"?>
<svg id="icons" xmlns="http://www.w3.org/2000/svg" viewBox="0 0 120 120">
  <path d="m47.22,34.29c-.71-.33-1.55-.21-2.14.3l-2.32,1.99-2.32-1.99c-.59-.51-1.43-.63-2.14-.3-.71.33-1.17,1.04-1.17,1.82v56.66c0,.78.46,1.49,1.17,1.82.27.12.55.18.83.18.47,0,.93-.17,1.3-.48l2.32-1.99,2.32,1.99c.59.51,1.43.63,2.14.3.71-.33,1.17-1.04,1.17-1.82v-56.66c0-.78-.46-1.49-1.17-1.82Zm-2.83,54.11l-.32-.27c-.38-.32-.84-.48-1.3-.48s-.93.16-1.3.48l-.32.27v-47.94l.32.27c.75.65,1.86.65,2.61,0l.32-.27v47.94Z"/>
  <path d="m71.4,73.48c7.23,0,14.71-5.82,14.71-15.54.03-3.73-1.32-7.07-3.89-9.67-2.79-2.81-6.73-4.42-10.82-4.42-1.1,0-2,.9-2,2v25.63c0,1.1.9,2,2,2Zm2-25.45c2.28.41,4.42,1.49,5.98,3.06,1.81,1.82,2.75,4.18,2.73,6.84,0,6.54-4.2,10.46-8.71,11.36v-21.25Z"/>
  <path d="m11.16,20.23l2.5-2.39.74.78-1.78,1.5c-.84.71-.95,1.97-.24,2.82.4.47.96.71,1.53.71.46,0,.91-.15,1.29-.47l1.95-1.65,1.5,1.59c-.39.82-.61,1.74-.61,2.71,0,3.37,2.62,6.12,5.86,6.18l-4.2,2.24c-.97.52-1.34,1.73-.82,2.71.36.67,1.05,1.06,1.77,1.06.32,0,.64-.08.94-.24l4.12-2.2v1.49l-5.97,3.18c-.97.52-1.34,1.73-.82,2.71.36.67,1.05,1.06,1.77,1.06.32,0,.64-.08.94-.24l4.08-2.18v1.61l-5.97,3.18c-.97.52-1.34,1.73-.82,2.71.36.67,1.05,1.06,1.77,1.06.32,0,.64-.08.94-.24l4.08-2.18v1.45l-6.01,3.2c-.97.52-1.34,1.73-.82,2.71.36.67,1.05,1.06,1.77,1.06.32,0,.64-.08.94-.24l4.12-2.2v1.5l-5.97,3.18c-.97.52-1.34,1.73-.82,2.71.36.67,1.05,1.06,1.77,1.06.32,0,.64-.08.94-.24l4.08-2.18v1.61l-5.97,3.18c-.97.52-1.34,1.73-.82,2.71.36.67,1.05,1.06,1.77,1.06.32,0,.64-.08.94-.24l4.08-2.18v1.52l-6.01,3.2c-.97.52-1.34,1.73-.82,2.71.36.67,1.05,1.06,1.77,1.06.32,0,.64-.08.94-.24l4.12-2.2v1.49l-5.97,3.18c-.97.52-1.34,1.73-.82,2.71.36.67,1.05,1.06,1.77,1.06.32,0,.64-.08.94-.24l4.08-2.18v1.61l-5.97,3.18c-.97.52-1.34,1.73-.82,2.71.36.67,1.05,1.06,1.77,1.06.32,0,.64-.08.94-.24l4.08-2.18v1.45l-6.01,3.2c-.97.52-1.34,1.73-.82,2.71.36.67,1.05,1.06,1.77,1.06.32,0,.64-.08.94-.24l4.12-2.2v1.5l-5.97,3.18c-.97.52-1.34,1.73-.82,2.71.36.67,1.05,1.06,1.77,1.06.32,0,.64-.08.94-.24l4.08-2.18v1.61l-5.97,3.18c-.97.52-1.34,1.73-.82,2.71.36.67,1.05,1.06,1.77,1.06.32,0,.64-.08.94-.24l4.08-2.18v.05c-.11.27-.16.57-.14.88.57,7.66,5.4,8.95,6.87,9.16.17.02.34.04.51.04,1.15,0,2.24-.56,2.92-1.54.8-1.15.88-2.62.21-3.83-.53-.97-1.74-1.33-2.71-.8-.74.4-1.12,1.21-1.03,2-1.13-.44-1.96-1.54-2.42-3.18h60.13c-.46,1.63-1.29,2.74-2.42,3.18.1-.79-.29-1.6-1.03-2-.97-.53-2.18-.17-2.71.8-.66,1.22-.58,2.69.21,3.83.68.98,1.76,1.54,2.92,1.54.17,0,.34-.01.51-.04,1.47-.21,6.3-1.51,6.87-9.16,0-.02,0-.05,0-.07,0-.03,0-.05,0-.08v-.8l4.12,2.2c.3.16.62.24.94.24.71,0,1.41-.38,1.77-1.06.52-.97.15-2.19-.82-2.71l-6-3.2v-1.61l4.12,2.19c.3.16.62.24.94.24.71,0,1.41-.38,1.77-1.06.52-.97.15-2.19-.82-2.71l-6-3.2v-1.5l4.16,2.22c.3.16.62.24.94.24.71,0,1.41-.38,1.77-1.06.52-.97.15-2.19-.82-2.71l-6.04-3.22v-1.45l4.12,2.2c.3.16.62.24.94.24.71,0,1.41-.38,1.77-1.06.52-.97.15-2.19-.82-2.71l-6-3.2v-1.61l4.12,2.19c.3.16.62.24.94.24.71,0,1.41-.38,1.77-1.06.52-.97.15-2.19-.82-2.71l-6-3.2v-1.49l4.16,2.22c.3.16.62.24.94.24.71,0,1.41-.38,1.77-1.06.52-.97.15-2.19-.82-2.71l-6.04-3.22v-1.52l4.12,2.19c.3.16.62.24.94.24.71,0,1.41-.38,1.77-1.06.52-.97.15-2.19-.82-2.71l-6-3.2v-1.61l4.12,2.2c.3.16.62.24.94.24.71,0,1.41-.38,1.77-1.06.52-.97.15-2.19-.82-2.71l-6-3.2v-1.5l4.16,2.22c.3.16.62.24.94.24.71,0,1.41-.38,1.77-1.06.52-.97.15-2.19-.82-2.71l-6.04-3.22v-1.45l4.12,2.19c.3.16.62.24.94.24.71,0,1.41-.38,1.77-1.06.52-.97.15-2.19-.82-2.71l-6-3.2v-1.61l4.12,2.2c.3.16.62.24.94.24.71,0,1.41-.38,1.77-1.06.52-.97.15-2.19-.82-2.71l-6-3.2v-1.49l4.16,2.22c.3.16.62.24.94.24.71,0,1.41-.38,1.77-1.06.52-.97.15-2.19-.82-2.71l-4.26-2.27c2.98-.34,5.31-2.97,5.31-6.15,0-.97-.22-1.89-.61-2.71l1.5-1.59,1.95,1.65c.38.32.83.47,1.29.47.57,0,1.13-.24,1.53-.71.71-.84.6-2.11-.24-2.82l-1.78-1.5.74-.78,2.5,2.39c.8.76,2.06.74,2.83-.06.76-.8.74-2.06-.06-2.83l-3.95-3.78c-.38-.37-.92-.58-1.43-.55-.53.01-1.04.24-1.4.62l-6.26,6.63c-.78-.39-1.65-.61-2.57-.61-3.29,0-5.98,2.78-5.98,6.19,0,.19.01.39.03.58H29.96c.02-.19.03-.38.03-.58,0-3.41-2.68-6.19-5.98-6.19-.92,0-1.79.22-2.57.61l-6.27-6.63c-.37-.39-.87-.61-1.4-.62-.52-.03-1.05.19-1.43.55l-3.95,3.78c-.8.76-.83,2.03-.06,2.83.76.8,2.03.83,2.83.06Zm43.6,59.72c-1,.87-1.58,2.14-1.58,3.5v2.91c0,2.52,1.99,4.57,4.44,4.57s4.44-2.05,4.44-4.57v-7.45l5.36-4.66c.83-.72.92-1.99.2-2.82-.72-.83-1.99-.92-2.82-.2l-2.74,2.38V30.41h28.36v7.66s0,0,0,0v6.14s0,0,0,0v12.01s0,0,0,0v6.14s0,0,0,0v12.07s0,0,0,0v6.14s0,0,0,0v12.01s0,0,0,0v6.14s0,0,0,0v2.31H29.71v-1.78c.04-.23.04-.47,0-.71v-5.43c.04-.23.04-.47,0-.71v-11.31c.04-.23.04-.47,0-.71v-5.43c.04-.23.04-.47,0-.71v-11.36c.04-.23.04-.47,0-.71v-5.43c.04-.23.04-.47,0-.71v-11.31c.04-.23.04-.47,0-.71v-5.43c.04-.23.04-.47,0-.71v-7.49h28.36v46.66l-3.31,2.87Zm3.31,2.42v3.98c0,.31-.2.57-.44.57s-.44-.26-.44-.57v-2.91c0-.19.08-.37.2-.48l.69-.6Zm37.47-58.72c1.09,0,1.98.98,1.98,2.19s-.89,2.19-1.98,2.19c-.57,0-1.08-.28-1.45-.71-.02-.03-.04-.05-.05-.07-.29-.38-.48-.87-.48-1.41,0-1.21.89-2.19,1.98-2.19Zm-69.55,2.19c0,1.21-.89,2.19-1.98,2.19s-1.98-.98-1.98-2.19.89-2.19,1.98-2.19,1.98.98,1.98,2.19Z"/>
  <path d="m73.1,9.55c-.5-.98-1.71-1.37-2.69-.87-2.71,1.38-6.17,2.15-9.76,2.15s-7.11-.77-9.83-2.18c-.98-.51-2.19-.12-2.69.86-.51.98-.12,2.19.86,2.69,3.28,1.69,7.42,2.63,11.66,2.63s8.32-.92,11.58-2.58c.98-.5,1.37-1.71.87-2.69Z"/>
  <path d="m55.46,20.64c0,2.71,2.14,4.91,4.76,4.91s4.76-2.2,4.76-4.91-2.13-4.91-4.76-4.91-4.76,2.2-4.76,4.91Zm5.52,0c0,.5-.34.91-.76.91s-.76-.41-.76-.91.34-.91.76-.91.76.41.76.91Z"/>
  <path d="m41.63,20.64c0,2.71,2.14,4.91,4.76,4.91s4.76-2.2,4.76-4.91-2.14-4.91-4.76-4.91-4.76,2.2-4.76,4.91Zm5.52,0c0,.5-.34.91-.76.91s-.76-.41-.76-.91.34-.91.76-.91.76.41.76.91Z"/>
  <path d="m74.05,25.55c2.62,0,4.76-2.2,4.76-4.91s-2.14-4.91-4.76-4.91-4.76,2.2-4.76,4.91,2.14,4.91,4.76,4.91Zm0-5.82c.42,0,.76.41.76.91s-.34.91-.76.91-.76-.41-.76-.91.34-.91.76-.91Z"/>
</svg>