<?xml version="1.0" encoding="UTF-8"?>
<svg id="icons" xmlns="http://www.w3.org/2000/svg" viewBox="0 0 120 120">
  <defs>
    <style>
      .cls-1 {
        fill: none;
        stroke: #000;
        stroke-linecap: round;
        stroke-linejoin: round;
        stroke-width: 4px;
      }
    </style>
  </defs>
  <path class="cls-1" d="m63.19,32.47c0,2.48-1.34,4.65-3.32,5.81-1.99-1.16-3.32-3.33-3.32-5.81s1.34-4.66,3.32-5.82c1.99,1.16,3.32,3.33,3.32,5.82Z"/>
  <path class="cls-1" d="m63.19,32.47c0,2.48-1.34,4.65-3.32,5.81-1.99-1.16-3.32-3.33-3.32-5.81s1.34-4.66,3.32-5.82c1.99,1.16,3.32,3.33,3.32,5.82Z"/>
  <path class="cls-1" d="m30.6,35.77c0,3.48-1.87,6.52-4.65,8.14-2.78-1.62-4.65-4.66-4.65-8.14s1.87-6.52,4.65-8.15c2.78,1.62,4.65,4.66,4.65,8.15Z"/>
  <path class="cls-1" d="m30.6,35.77c0,3.48-1.87,6.52-4.65,8.14-2.78-1.62-4.65-4.66-4.65-8.14s1.87-6.52,4.65-8.15c2.78,1.62,4.65,4.66,4.65,8.15Z"/>
  <path class="cls-1" d="m63.23,88.21c0,2.48-1.34,4.65-3.32,5.81-1.99-1.16-3.32-3.33-3.32-5.81s1.34-4.66,3.32-5.82c1.99,1.16,3.32,3.33,3.32,5.82Z"/>
  <line class="cls-1" x1="59.85" y1="58.13" x2="59.85" y2="61.89"/>
  <line class="cls-1" x1="61.73" y1="60.01" x2="58.01" y2="60.01"/>
  <ellipse class="cls-1" cx="59.87" cy="58.77" rx="11.15" ry="11.28"/>
  <path class="cls-1" d="m81.89,50.73s1.61-4.89-1.5-7.06c-3.46-2.41-5.1,1.36-3.76,3.61,1.34,2.25,5.26,3.45,5.26,3.45"/>
  <path class="cls-1" d="m33.34,43.65c3.63-1.68,8.35.68,6.5,10.08-1.82,9.25.15,16.75,3.22,20.34,3.7,4.33,7.08,3.09,13.18,2.07,9.19-1.54,15.3,1.41,20.9-3.08,8.07-6.47,4.75-22.33,4.75-22.33"/>
  <path class="cls-1" d="m25.95,27.62v65.99s4.67-5.74,9.33,0"/>
  <path class="cls-1" d="m19.27,80.1c-3.22-2.45-6.57,2.66-2.19,4.57s10.38-4.63,15.46-5.24c4.86-.59,4.74,6.21-.31,5.08"/>
  <line class="cls-1" x1="13.44" y1="56.23" x2="13.44" y2="63.69"/>
  <line class="cls-1" x1="16.05" y1="57.32" x2="10.83" y2="62.6"/>
  <line class="cls-1" x1="16.05" y1="62.6" x2="10.83" y2="57.32"/>
  <line class="cls-1" x1="63.62" y1="14.01" x2="56.24" y2="14.01"/>
  <line class="cls-1" x1="62.54" y1="16.65" x2="57.32" y2="11.37"/>
  <line class="cls-1" x1="57.32" y1="16.65" x2="62.54" y2="11.37"/>
  <line class="cls-1" x1="32.51" y1="50.88" x2="32.51" y2="55.67"/>
  <line class="cls-1" x1="34.19" y1="51.58" x2="30.84" y2="54.96"/>
  <line class="cls-1" x1="34.19" y1="54.96" x2="30.84" y2="51.58"/>
  <line class="cls-1" x1="71.02" y1="60.01" x2="101.49" y2="59.96"/>
  <line class="cls-1" x1="9.85" y1="59.96" x2="48.72" y2="60.14"/>
  <path class="cls-1" d="m21.05,72.53c-1.07,3.31-7.77,1.04-3.42-4.19,3.87-4.65,6.67-8.33,6.67-8.33"/>
  <path class="cls-1" d="m21.05,47.39c-1.07-3.31-7.77-1.04-3.42,4.19,3.87,4.65,6.67,8.33,6.67,8.33"/>
  <path class="cls-1" d="m97.37,47.39c1.07-3.31,7.77-1.04,3.42,4.19-3.87,4.65-6.67,8.33-6.67,8.33"/>
  <path class="cls-1" d="m97.37,72.53c1.07,3.31,7.77,1.04,3.42-4.19-3.87-4.65-6.67-8.33-6.67-8.33"/>
  <line class="cls-1" x1="30.2" y1="53.27" x2="34.87" y2="53.27"/>
  <line class="cls-1" x1="89.06" y1="50.88" x2="89.06" y2="55.67"/>
  <line class="cls-1" x1="90.73" y1="51.58" x2="87.39" y2="54.96"/>
  <line class="cls-1" x1="90.73" y1="54.96" x2="87.39" y2="51.58"/>
  <line class="cls-1" x1="86.74" y1="53.27" x2="91.42" y2="53.27"/>
  <line class="cls-1" x1="105.24" y1="55.68" x2="105.24" y2="64.24"/>
  <line class="cls-1" x1="108.23" y1="56.93" x2="102.25" y2="62.99"/>
  <line class="cls-1" x1="108.23" y1="62.99" x2="102.25" y2="56.93"/>
  <line class="cls-1" x1="101.09" y1="59.96" x2="109.85" y2="60"/>
  <line class="cls-1" x1="89.06" y1="55.67" x2="89.06" y2="69.04"/>
  <line class="cls-1" x1="90.73" y1="64.95" x2="87.39" y2="68.34"/>
  <line class="cls-1" x1="90.73" y1="68.34" x2="87.39" y2="64.95"/>
  <line class="cls-1" x1="86.74" y1="66.64" x2="91.42" y2="66.64"/>
  <line class="cls-1" x1="32.51" y1="54.96" x2="32.51" y2="69.04"/>
  <line class="cls-1" x1="34.19" y1="64.95" x2="30.84" y2="68.34"/>
  <line class="cls-1" x1="34.19" y1="68.34" x2="30.84" y2="64.95"/>
  <line class="cls-1" x1="30.2" y1="66.64" x2="34.87" y2="66.64"/>
  <line class="cls-1" x1="40.85" y1="33.54" x2="40.85" y2="38.01"/>
  <line class="cls-1" x1="43.06" y1="35.78" x2="38.64" y2="35.78"/>
  <line class="cls-1" x1="81.13" y1="33.54" x2="81.13" y2="38.01"/>
  <line class="cls-1" x1="83.34" y1="35.78" x2="78.92" y2="35.78"/>
  <line class="cls-1" x1="42.06" y1="85.16" x2="42.06" y2="89.64"/>
  <line class="cls-1" x1="44.27" y1="87.4" x2="39.85" y2="87.4"/>
  <line class="cls-1" x1="72.01" y1="85.16" x2="72.01" y2="89.64"/>
  <line class="cls-1" x1="74.22" y1="87.4" x2="69.8" y2="87.4"/>
  <line class="cls-1" x1="59.87" y1="47.49" x2="59.87" y2="10"/>
  <path class="cls-1" d="m59.87,70.05l.03,10.54v21.66l-6.3-3.54c-1.32-.74-2.5-1.74-3.37-2.98-.75-1.07-1.31-2.36-.87-3.54.97-2.62,2.99-2.14,2.99-2.14"/>
  <path class="cls-1" d="m47.72,103.49c.03-3.14-5.63-2.43-5.63,1.5,0,3.65,3.02,5,6.18,4.9,2.03-.07,4.08-1.66,4.08-5.28v-6.72"/>
  <path class="cls-1" d="m59.9,100.71l.06,4.26c0,3.21,1.57,5.03,4.16,5.03h1.39c2.92,0,3.22-1.78,3.22-3.02h0c0-1.24-1-2.25-2.23-2.25"/>
  <path class="cls-1" d="m59.93,38.6c0,2.14,7.87,4.1,9.54,1.15,1.67-2.96-2.4-4.54-3.14-2.46l-.23.58"/>
  <path class="cls-1" d="m59.93,38.6c-2.18,4.15-8.31,3.1-9.97.15-1.67-2.96,2.4-4.54,3.14-2.46l.23.58"/>
  <path class="cls-1" d="m59.87,22.97c-3.32-1.2-7.03.56-8.43,3.28"/>
  <path class="cls-1" d="m59.98,22.97c3.32-1.2,6.58.82,8.43,3.28"/>
  <line class="cls-1" x1="44.06" y1="55.58" x2="44.06" y2="64.43"/>
  <line class="cls-1" x1="75.93" y1="55.58" x2="75.93" y2="64.43"/>
  <path class="cls-1" d="m62.04,55.52c1.74.83,2.94,2.61,2.94,4.68,0,2.85-2.29,5.17-5.11,5.17s-5.11-2.31-5.11-5.17c0-2.14,1.14-3.91,2.97-4.69v-.53s-.01-2.91-.01-2.91h4.31v2.74l.02.72Z"/>
  <line class="cls-1" x1="77.35" y1="43.15" x2="74.22" y2="39.33"/>
</svg>