<?xml version="1.0" encoding="UTF-8"?>
<svg id="icons" xmlns="http://www.w3.org/2000/svg" viewBox="0 0 120 120">
  <defs>
    <style>
      .cls-1 {
        stroke-dasharray: 0 0 0 0 .93 4.65 .93 4.65;
      }

      .cls-1, .cls-2, .cls-3, .cls-4, .cls-5, .cls-6 {
        fill: none;
        stroke: #000;
        stroke-linecap: round;
        stroke-linejoin: round;
        stroke-width: 4px;
      }

      .cls-2 {
        stroke-dasharray: 0 0 0 0 0 0 .93 4.65 .93 4.65 .93 4.65;
      }

      .cls-4 {
        stroke-dasharray: 0 0 0 0 0 0 1.22 6.12 1.22 6.12 1.22 6.12;
      }

      .cls-5 {
        stroke-dasharray: 0 0 0 0 1.22 6.12 1.22 6.12;
      }

      .cls-6 {
        stroke-dasharray: 0 0 0 0 0 0 1 5 1 5 1 5;
      }
    </style>
  </defs>
  <path class="cls-3" d="m59.91,109.4V22.39c0-2.07-1.73-3.74-3.85-3.74h0c-2.13,0-3.85,1.68-3.85,3.74v.05c0,1.48.88,2.75,2.16,3.36"/>
  <path class="cls-3" d="m59.91,22.39c0-2.07,1.73-3.74,3.85-3.74h0c2.13,0,3.85,1.68,3.85,3.74v.05c0,1.38-.76,2.58-1.9,3.23"/>
  <line class="cls-3" x1="59.91" y1="109.65" x2="59.91" y2="25.67"/>
  <line class="cls-3" x1="59.84" y1="47.24" x2="38.17" y2="36.71"/>
  <path class="cls-3" d="m48.23,45.12l.71.38c.86.45,1.18,1.5.71,2.34h0c-.47.84-1.55,1.15-2.41.69h0c-1.55-.82-2.12-2.7-1.28-4.2l1.51-2.71"/>
  <path class="cls-3" d="m50.91,40.32l.71.38c.86.45,1.94.14,2.41-.69h0c.47-.84.15-1.88-.71-2.34h0c-1.55-.82-3.48-.26-4.32,1.24l-1.51,2.71"/>
  <path class="cls-3" d="m42.89,41.57l.55.29c.66.35.9,1.15.55,1.79h0c-.36.64-1.18.88-1.84.53h0c-1.18-.62-1.62-2.06-.98-3.21l1.16-2.07"/>
  <path class="cls-3" d="m44.94,37.9l.55.29c.66.35,1.48.11,1.84-.53h0c.36-.64.11-1.44-.55-1.79h0c-1.18-.62-2.66-.2-3.31.95l-1.16,2.07"/>
  <path class="cls-3" d="m38.56,38.55l.38.2c.45.24.62.79.38,1.23h0c-.25.44-.81.6-1.27.36h0c-.82-.43-1.12-1.42-.67-2.21l.8-1.43"/>
  <path class="cls-3" d="m39.98,36.02l.38.2c.45.24,1.02.08,1.27-.36h0c.25-.44.08-.99-.38-1.23h0c-.82-.43-1.84-.14-2.28.66l-.8,1.43-1.75-.93"/>
  <line class="cls-3" x1="59.84" y1="47.24" x2="81.37" y2="36.68"/>
  <path class="cls-3" d="m71.31,45.09l-.71.38c-.86.45-1.18,1.5-.71,2.34h0c.47.84,1.55,1.15,2.41.69h0c1.55-.82,2.12-2.7,1.28-4.2l-1.51-2.71"/>
  <path class="cls-3" d="m68.62,40.29l-.71.38c-.86.45-1.94.14-2.41-.69h0c-.47-.84-.15-1.88.71-2.34h0c1.55-.82,3.48-.26,4.32,1.24l1.51,2.71"/>
  <path class="cls-3" d="m76.65,41.54l-.55.29c-.66.35-.9,1.15-.55,1.79h0c.36.64,1.18.88,1.84.53h0c1.18-.62,1.62-2.06.98-3.21l-1.16-2.07"/>
  <path class="cls-3" d="m74.6,37.87l-.55.29c-.66.35-1.48.11-1.84-.53h0c-.36-.64-.11-1.44.55-1.79h0c1.18-.62,2.66-.2,3.31.95l1.16,2.07"/>
  <path class="cls-3" d="m80.97,38.52l-.38.2c-.45.24-.62.79-.38,1.23h0c.25.44.81.6,1.27.36h0c.82-.43,1.12-1.42.67-2.21l-.8-1.43"/>
  <path class="cls-3" d="m79.56,35.99l-.38.2c-.45.24-1.02.08-1.27-.36h0c-.25-.44-.08-.99.38-1.23h0c.82-.43,1.84-.14,2.28.66l.8,1.43,1.75-.93"/>
  <polyline class="cls-3" points="81.98 50.79 87 59.67 91.29 53.21 96.64 55.4 91.44 47.17 84.95 49.66 59.9 59.26 28.43 44.79 22.19 53.21 29.07 52.51 31.18 58.48 38.25 49.31"/>
  <polyline class="cls-3" points="47.56 53.58 23.01 85.38 18.22 83.09 42.51 51.66"/>
  <polyline class="cls-3" points="40.74 76.78 45.14 70.48 49.54 76.78"/>
  <polyline class="cls-3" points="49.54 70.48 45.14 76.78 40.74 70.48"/>
  <polyline class="cls-3" points="72.95 76.78 77.35 70.48 81.75 76.78"/>
  <polyline class="cls-3" points="81.75 70.48 77.35 76.78 72.95 70.48"/>
  <path class="cls-3" d="m88.03,85.72h-52.02v-2.23c0-1.2,1-2.17,2.23-2.17h0"/>
  <path class="cls-3" d="m36.02,85.72v2.23c0,1.2,1,2.17,2.23,2.17h0"/>
  <path class="cls-3" d="m88.03,85.72v-2.23c0-1.2-1-2.17-2.23-2.17h0"/>
  <path class="cls-3" d="m88.03,85.72v2.23c0,1.2-1,2.17-2.23,2.17h0"/>
  <polygon class="cls-3" points="59.91 85.72 43.49 109.65 76.87 109.65 59.91 85.72"/>
  <path class="cls-3" d="m38.77,105.11c-1.29,0-2.34,1.02-2.34,2.27h0c0,1.25,1.05,2.27,2.34,2.27h6.1"/>
  <path class="cls-3" d="m81.09,105.11c1.29,0,2.34,1.02,2.34,2.27h0c0,1.25-1.05,2.27-2.34,2.27h-4.68"/>
  <polyline class="cls-3" points="54.2 94.04 59.91 99.44 65.92 94.2"/>
  <path class="cls-3" d="m44.45,81.85c1.1,1.07,1.1,2.8,0,3.86"/>
  <path class="cls-3" d="m49.47,81.85c1.1,1.07,1.1,2.8,0,3.86"/>
  <path class="cls-3" d="m54.32,81.85c1.1,1.07,1.1,2.8,0,3.86"/>
  <path class="cls-3" d="m75.09,81.85c-1.1,1.07-1.1,2.8,0,3.86"/>
  <path class="cls-3" d="m79.76,81.86c-1.1,1.07-1.1,2.8,0,3.86"/>
  <path class="cls-3" d="m70.11,81.85c-1.1,1.07-1.1,2.8,0,3.86"/>
  <path class="cls-3" d="m65.12,81.85c-1.1,1.07-1.1,2.8,0,3.86"/>
  <line class="cls-3" x1="89.19" y1="67.52" x2="89.85" y2="70.84"/>
  <ellipse class="cls-3" cx="88.83" cy="65.76" rx="1.85" ry="1.79" transform="translate(-11.22 18.81) rotate(-11.37)"/>
  <ellipse class="cls-3" cx="90.64" cy="74.46" rx="1.85" ry="1.79" transform="translate(-12.9 19.33) rotate(-11.37)"/>
  <path class="cls-3" d="m52.2,65.4c-.73,1.78-4.73.98-3.99-1.78.58-2.17,5.1-5.44,11.52,2.31"/>
  <path class="cls-3" d="m67.36,65.58c.73,1.78,4.73.98,3.99-1.78-.58-2.17-5.1-5.44-11.52,2.31"/>
  <polyline class="cls-3" points="55.44 70.48 59.82 72.73 64.23 70.44"/>
  <polyline class="cls-3" points="55.44 76.62 59.82 78.88 64.23 76.58"/>
  <polyline class="cls-3" points="54.73 51.29 59.82 56.23 64.71 51.29"/>
  <ellipse class="cls-3" cx="30.39" cy="85.38" rx="1.29" ry="1.25"/>
  <ellipse class="cls-3" cx="93.87" cy="85.35" rx="1.29" ry="1.25"/>
  <rect class="cls-3" x="17" y="32.51" width="13.91" height="6.88"/>
  <ellipse class="cls-3" cx="96.46" cy="24.79" rx="5.31" ry="5.15"/>
  <line class="cls-3" x1="96.46" y1="13.69" x2="96.46" y2="36.25"/>
  <line class="cls-3" x1="108.07" y1="24.79" x2="84.85" y2="24.79"/>
  <ellipse class="cls-3" cx="96.51" cy="12.56" rx="1.17" ry="1.13"/>
  <ellipse class="cls-3" cx="96.51" cy="37.38" rx="1.17" ry="1.13"/>
  <ellipse class="cls-3" cx="108.09" cy="24.78" rx="1.17" ry="1.13"/>
  <ellipse class="cls-3" cx="83.72" cy="24.78" rx="1.17" ry="1.13"/>
  <g>
    <path class="cls-3" d="m94.11,60.35c.09.13.17.28.26.42"/>
    <path class="cls-5" d="m96.52,66.48c.9,3.26,1.67,7.25,2.32,11.39"/>
    <path class="cls-4" d="m99.29,80.9c1.04,7.33,1.7,14.67,2.04,18.87"/>
    <path class="cls-3" d="m101.55,102.82c.02.32.03.5.03.5"/>
  </g>
  <g>
    <path class="cls-3" d="m96.64,55.4c.13.11.25.21.38.33"/>
    <path class="cls-1" d="m99.95,59.32c1.42,2.28,2.59,5.05,3.54,8.07"/>
    <path class="cls-2" d="m104.14,69.62c3.04,11.22,3.51,25.04,3.56,30.88"/>
    <path class="cls-3" d="m107.7,102.82c0,.32,0,.5,0,.5"/>
  </g>
  <polyline class="cls-6" points="26.79 27.36 59.91 10.35 91.16 20.52"/>
  <path class="cls-6" d="m22.19,53.21c-8.38,6.46-11.01,16.37-11.01,16.37"/>
  <path class="cls-6" d="m30.09,55.39c-11.27,8.8-16.67,21.34-16.67,21.34"/>
  <rect class="cls-6" x="10.74" y="92.64" width="21.41" height="13.6"/>
  <line class="cls-6" x1="21.45" y1="92.64" x2="21.45" y2="106.24"/>
  <rect class="cls-3" x="41.5" y="25.24" width="6.15" height="3.85"/>
  <rect class="cls-3" x="72.28" y="26.1" width="6.15" height="3.85"/>
</svg>