<?xml version="1.0" encoding="UTF-8"?>
<svg id="icons" xmlns="http://www.w3.org/2000/svg" viewBox="0 0 120 120">
  <defs>
    <style>
      .cls-1 {
        fill: none;
        stroke: #000;
        stroke-linecap: round;
        stroke-linejoin: round;
        stroke-width: 4px;
      }
    </style>
  </defs>
  <ellipse class="cls-1" cx="60.04" cy="60.05" rx="10.65" ry="10.96"/>
  <line class="cls-1" x1="10" y1="60" x2="110" y2="60"/>
  <line class="cls-1" x1="60.04" y1="21.76" x2="60" y2="110"/>
  <line class="cls-1" x1="60" y1="10" x2="60.04" y2="25.48"/>
  <line class="cls-1" x1="64.6" y1="12.23" x2="55.49" y2="21.6"/>
  <line class="cls-1" x1="55.49" y1="12.23" x2="64.6" y2="21.6"/>
  <line class="cls-1" x1="53.6" y1="16.91" x2="66.48" y2="16.91"/>
  <line class="cls-1" x1="60.04" y1="93.85" x2="60" y2="108.9"/>
  <line class="cls-1" x1="66.31" y1="93.61" x2="53.78" y2="106.51"/>
  <line class="cls-1" x1="53.78" y1="93.61" x2="66.31" y2="106.51"/>
  <line class="cls-1" x1="51.18" y1="100.06" x2="68.9" y2="100.06"/>
  <path class="cls-1" d="m45.89,33.4c3.08,2.81,1.1,10.17-5.07,9.09-6.17-1.08-8.93-8.39-4.41-13.63,5.29-6.14,18.47-3.23,23.63,6.87"/>
  <path class="cls-1" d="m75.06,33.4c-3.08,2.81-1.1,10.17,5.07,9.09,6.17-1.08,8.93-8.39,4.41-13.63-5.29-6.14-19.41-3.23-24.57,6.87"/>
  <line class="cls-1" x1="53.18" y1="43.57" x2="66.98" y2="43.57"/>
  <path class="cls-1" d="m42.4,53.84c2.76-5.94-5.36-7.62-6.66-1.73-.87,3.95,2.41,7.94,2.41,7.94"/>
  <path class="cls-1" d="m42.4,66.25c2.76,5.94-5.36,7.62-6.66,1.73-.87-3.95,2.41-7.94,2.41-7.94"/>
  <path class="cls-1" d="m76.89,66.25c-2.76,5.94,5.36,7.62,6.66,1.73.87-3.95-2.41-7.94-2.41-7.94"/>
  <path class="cls-1" d="m76.89,53.84c-2.76-5.94,5.36-7.62,6.66-1.73.87,3.95-2.41,7.94-2.41,7.94"/>
  <line class="cls-1" x1="15.28" y1="55.99" x2="15.28" y2="64.1"/>
  <path class="cls-1" d="m104.86,60.06c-1.53,4.2-4.39,7.04-7.66,7.04s-6.13-2.84-7.66-7.04c1.52-4.22,4.38-7.06,7.66-7.06s6.13,2.84,7.66,7.06Z"/>
  <line class="cls-1" x1="53.18" y1="37.15" x2="53.18" y2="43.38"/>
  <line class="cls-1" x1="66.98" y1="37.35" x2="66.98" y2="43.57"/>
  <ellipse class="cls-1" cx="55.49" cy="64.73" rx=".94" ry=".96"/>
  <ellipse class="cls-1" cx="55.49" cy="55.99" rx=".94" ry=".96"/>
  <ellipse class="cls-1" cx="64.6" cy="55.99" rx=".94" ry=".96"/>
  <ellipse class="cls-1" cx="64.6" cy="64.49" rx=".94" ry=".96"/>
  <path class="cls-1" d="m48.45,83.17c-1.7-8.65,10.47-9.73,11.52-1"/>
  <line class="cls-1" x1="54.13" y1="76.47" x2="54.13" y2="87.1"/>
  <path class="cls-1" d="m71.48,83.17c1.7-8.65-10.47-9.73-11.52-1"/>
  <line class="cls-1" x1="65.8" y1="76.47" x2="65.8" y2="87.1"/>
  <polyline class="cls-1" points="31.31 60.23 25.54 52.11 20.45 60.05 25.55 68.35 31.31 60.23"/>
</svg>