<?xml version="1.0" encoding="UTF-8"?>
<svg id="icons" xmlns="http://www.w3.org/2000/svg" viewBox="0 0 120 120">
  <defs>
    <style>
      .cls-1 {
        fill: none;
        stroke: #000;
        stroke-linecap: round;
        stroke-linejoin: round;
        stroke-width: 4px;
      }
    </style>
  </defs>
  <g>
    <ellipse class="cls-1" cx="60.04" cy="44.94" rx="15.36" ry="14.64"/>
    <line class="cls-1" x1="10" y1="44.94" x2="110" y2="44.94"/>
    <path class="cls-1" d="m17.12,38.56c-4.89-1.87.94-7.84,4.46-3.29s-3.58,9.67-3.58,9.67"/>
    <path class="cls-1" d="m17.12,51.32c-4.89,1.87.94,7.84,4.46,3.29s-3.58-9.67-3.58-9.67"/>
    <path class="cls-1" d="m103.3,52.26c4.89,1.87-.94,6.91-4.46,2.36-3.52-4.55,3.58-9.67,3.58-9.67"/>
    <path class="cls-1" d="m103.3,37.63c4.89-1.87-.94-6.91-4.46-2.36-3.52,4.55,3.58,9.67,3.58,9.67"/>
    <line class="cls-1" x1="13.03" y1="41.45" x2="13.03" y2="48.52"/>
    <line class="cls-1" x1="27.01" y1="42" x2="34.38" y2="48.13"/>
    <line class="cls-1" x1="34.38" y1="42" x2="27.01" y2="48.13"/>
    <line class="cls-1" x1="30.69" y1="40.56" x2="30.69" y2="49.4"/>
    <line class="cls-1" x1="57.14" y1="33.97" x2="62.25" y2="38.21"/>
    <line class="cls-1" x1="62.25" y1="33.97" x2="57.14" y2="38.21"/>
    <line class="cls-1" x1="63.29" y1="36.03" x2="56.08" y2="36.03"/>
    <line class="cls-1" x1="59.69" y1="32.98" x2="59.69" y2="39.09"/>
    <line class="cls-1" x1="57.14" y1="52.3" x2="62.25" y2="56.54"/>
    <line class="cls-1" x1="62.25" y1="52.3" x2="57.14" y2="56.54"/>
    <line class="cls-1" x1="63.29" y1="54.37" x2="56.08" y2="54.37"/>
    <line class="cls-1" x1="59.69" y1="51.31" x2="59.69" y2="57.42"/>
    <line class="cls-1" x1="32.18" y1="68.05" x2="39.55" y2="74.18"/>
    <line class="cls-1" x1="39.55" y1="68.05" x2="32.18" y2="74.18"/>
    <line class="cls-1" x1="35.86" y1="66.62" x2="35.86" y2="75.45"/>
    <line class="cls-1" x1="80" y1="68.05" x2="87.38" y2="74.18"/>
    <line class="cls-1" x1="87.38" y1="68.05" x2="80" y2="74.18"/>
    <line class="cls-1" x1="83.69" y1="66.62" x2="83.69" y2="75.45"/>
    <line class="cls-1" x1="86.33" y1="42" x2="93.7" y2="48.13"/>
    <line class="cls-1" x1="93.7" y1="42" x2="86.33" y2="48.13"/>
    <line class="cls-1" x1="90.02" y1="40.56" x2="90.02" y2="49.4"/>
    <path class="cls-1" d="m41.79,36.05c-4.1-.45-4.45,6.67-.15,8.93"/>
    <path class="cls-1" d="m41.79,53.94c-4.1.16-4.45-6.67-.15-8.93"/>
    <path class="cls-1" d="m78.39,36.05c4.1-.45,4.45,6.67.15,8.93"/>
    <path class="cls-1" d="m78.39,53.94c4.1.16,4.45-6.67.15-8.93"/>
    <line class="cls-1" x1="106.79" y1="41.45" x2="106.79" y2="48.13"/>
    <path class="cls-1" d="m30.77,71.14l5.1.13c8.82.44,10.49-9.77,10.49-9.77l13.68,15.55"/>
    <path class="cls-1" d="m59.51,77.05l8.02,6.73h-16.27l8.25-6.73,13.68-15.55s1.14,10.33,10.49,9.77l5.04-.16"/>
    <path class="cls-1" d="m67.11,23.23c0,1.81-2.89,2.46-7.19,3.3-4.3-.84-7.19-1.49-7.19-3.3s2.89-2.45,7.19-3.3c4.3.84,7.19,1.49,7.19,3.3Z"/>
    <line class="cls-1" x1="60.04" y1="10.94" x2="60.04" y2="30.3"/>
    <line class="cls-1" x1="47.7" y1="15.15" x2="71.7" y2="15.15"/>
    <line class="cls-1" x1="47.7" y1="15.11" x2="47.7" y2="19"/>
    <line class="cls-1" x1="71.7" y1="15.11" x2="71.7" y2="19"/>
    <line class="cls-1" x1="57.43" y1="10" x2="62.61" y2="10"/>
    <path class="cls-1" d="m59.51,45.06c-4.48,0-4.99-3.84-3.35-4.55"/>
    <path class="cls-1" d="m59.84,45.06c4.48,0,4.99-3.84,3.35-4.55"/>
    <path class="cls-1" d="m59.51,45.06c-4.48,0-4.99,3.84-3.35,4.55"/>
    <path class="cls-1" d="m59.84,45.06c4.48,0,4.99,3.84,3.35,4.55"/>
    <polyline class="cls-1" points="49.72 72.77 59.51 59.59 69.68 73.7"/>
    <line class="cls-1" x1="59.51" y1="83.78" x2="59.51" y2="101.96"/>
    <polygon class="cls-1" points="59.42 101.96 34.08 101.96 13.75 85.16 39.09 85.16 59.42 101.96"/>
    <path class="cls-1" d="m45.41,83.68c-.11-3.14-5.21-3.28-6.31,1.48-.95,4.1-4.15,17.39-6.38,20.58-3.37,4.83-8.83-.61-4.6-2.1"/>
    <path class="cls-1" d="m34.91,81.05c.95-2.06,3.74-2.34,4.64-.41,1.08,2.33-.75,5.45-.75,5.45"/>
    <line class="cls-1" x1="20.6" y1="90.84" x2="45.64" y2="90.84"/>
    <line class="cls-1" x1="27.35" y1="96.4" x2="52.73" y2="96.4"/>
    <ellipse cx="22.92" cy="88.05" rx=".85" ry=".71"/>
    <ellipse cx="30.34" cy="93.56" rx=".85" ry=".71"/>
    <ellipse cx="28.38" cy="88.05" rx=".85" ry=".71"/>
    <ellipse cx="34.06" cy="88.05" rx=".85" ry=".71"/>
    <ellipse cx="43.5" cy="93.69" rx=".85" ry=".71"/>
    <ellipse cx="49.17" cy="99.16" rx=".85" ry=".71"/>
    <ellipse cx="44.44" cy="99.16" rx=".85" ry=".71"/>
    <ellipse cx="39.34" cy="99.16" rx=".85" ry=".71"/>
    <ellipse cx="40.19" cy="93.69" rx=".85" ry=".71"/>
  </g>
  <path class="cls-1" d="m32.25,106.32c-.42,2.82,2.87,4.25,4.82,3.47s1.95-3.49.22-3.47"/>
  <polygon class="cls-1" points="59.27 101.96 84.61 101.96 104.94 85.16 79.6 85.16 59.27 101.96"/>
  <path class="cls-1" d="m73.28,83.68c.11-3.14,5.21-3.28,6.31,1.48.95,4.1,4.15,17.39,6.38,20.58,3.37,4.83,8.83-.61,4.6-2.1"/>
  <path class="cls-1" d="m84.14,81.11c-.85-2.61-4.11-2.41-5.01-.47-1.08,2.33.75,5.45.75,5.45"/>
  <line class="cls-1" x1="98.09" y1="90.84" x2="73.05" y2="90.84"/>
  <line class="cls-1" x1="91.34" y1="96.4" x2="65.96" y2="96.4"/>
  <ellipse cx="95.77" cy="88.05" rx=".85" ry=".71"/>
  <ellipse cx="88.35" cy="93.56" rx=".85" ry=".71"/>
  <ellipse cx="90.31" cy="88.05" rx=".85" ry=".71"/>
  <ellipse cx="84.63" cy="88.05" rx=".85" ry=".71"/>
  <ellipse cx="75.19" cy="93.69" rx=".85" ry=".71"/>
  <ellipse cx="69.52" cy="99.16" rx=".85" ry=".71"/>
  <ellipse cx="74.25" cy="99.16" rx=".85" ry=".71"/>
  <ellipse cx="79.35" cy="99.16" rx=".85" ry=".71"/>
  <ellipse cx="78.5" cy="93.69" rx=".85" ry=".71"/>
  <path class="cls-1" d="m86.44,106.32c.42,2.82-2.87,4.25-4.82,3.47s-1.95-3.49-.22-3.47"/>
</svg>