<?xml version="1.0" encoding="UTF-8"?>
<svg id="icons" xmlns="http://www.w3.org/2000/svg" viewBox="0 0 120 120">
  <path d="m47.28,41.74h8.09l-5.84,6.09c-.76.8-.74,2.06.06,2.83.39.37.89.56,1.38.56.53,0,1.05-.21,1.44-.62l5.58-5.82v7.12c0,1.1.9,2,2,2s2-.9,2-2v-7.33l5.43,5.66c.39.41.92.62,1.44.62.5,0,1-.19,1.38-.56.8-.76.82-2.03.06-2.83l-5.48-5.71h7.89c1.1,0,2-.9,2-2s-.9-2-2-2h-7.97l5.66-5.9c.76-.8.74-2.06-.06-2.83s-2.06-.74-2.83.06l-5.53,5.76v-9.46c0-1.1-.9-2-2-2s-2,.9-2,2v9.24l-5.67-5.91c-.76-.8-2.03-.82-2.83-.06-.8.76-.82,2.03-.06,2.83l6.02,6.27h-8.18c-1.1,0-2,.9-2,2s.9,2,2,2Z"/>
  <path d="m12.15,26.69s.04,0,.06,0c1.88,0,3.67-.98,4.57-2.5.79-1.34.79-2.9.01-4.28-.54-.96-1.76-1.3-2.73-.76-.96.54-1.3,1.76-.76,2.73.09.16.07.21.03.28-.16.27-.6.56-1.14.53-.53,0-.96-.31-1.3-.9-.68-1.22.42-2.21.77-2.49,1.49-1.16,4.08-1.31,6.51.98,0,0,0,0,0,0l3.44,7.73c-7.53,3.56-9.72,8.9-8.96,13.33,1.09,6.39,8.51,12.41,20.41,12.43l8.05,18.13c-2.32,1.09-5.03,1.91-8.14,2.31-1.1.14-1.87,1.14-1.73,2.24.13,1.01.99,1.75,1.98,1.75.09,0,.17,0,.26-.02,3.51-.45,6.6-1.36,9.26-2.59l2.65,5.97c-.02,2.81-1.59,4.47-3.26,4.88-.32.08-1.95.4-2.51-.96-.26-.62-.23-1.12.09-1.53.31-.4.82-.6,1.14-.55.09.01.15.02.23.21.42,1.02,1.58,1.52,2.61,1.1,1.02-.42,1.51-1.58,1.1-2.61-.6-1.48-1.84-2.45-3.39-2.66-1.78-.24-3.68.57-4.85,2.07-1.2,1.54-1.42,3.55-.62,5.49.91,2.22,3.04,3.54,5.48,3.54.55,0,1.11-.07,1.67-.2,1.75-.42,3.51-1.56,4.73-3.34l10.78,24.26c.32.72,1.04,1.19,1.83,1.19h.03c.8-.01,1.52-.5,1.82-1.24l6.21-15.11c1.35,1.97,3.34,3.14,5.27,3.47.42.07.84.11,1.25.11,2.62,0,4.86-1.49,5.67-3.89.67-1.99.32-3.98-.98-5.44-1.25-1.43-3.21-2.12-4.97-1.76-1.53.31-2.71,1.36-3.21,2.87-.35,1.05.21,2.18,1.26,2.53,1.05.35,2.18-.21,2.53-1.26.06-.19.12-.2.21-.22.32-.06.84.1,1.18.48.34.39.4.88.19,1.52-.47,1.39-2.11,1.18-2.44,1.12-1.82-.32-3.62-2.08-3.6-5.27l4.71-11.47c1.72.68,4.35,1.49,7.17,1.49,1.44,0,2.93-.21,4.37-.75,3.23-1.21,5.58-3.79,6.98-7.66,1.45-3.99,1.34-7.6-.31-10.75-.65-1.23-1.48-2.28-2.39-3.17,3.24-.59,6.26-2.07,8.73-4.37,3.91-3.65,5.68-8.75,4.61-13.31-1-4.26-4.29-7.62-9.36-9.63l3.79-9.21c2.13-1.97,4.46-1.64,5.98-.61,1.04.7,1.92,1.94,1.41,3.02-.29.61-.7.94-1.22.99-.51.05-1-.2-1.18-.45-.05-.07-.08-.11,0-.28.47-1,.05-2.19-.95-2.66-1-.47-2.19-.05-2.66.95-.68,1.44-.57,2.99.32,4.27.94,1.36,2.61,2.19,4.35,2.19.15,0,.3,0,.44-.02,1.97-.16,3.61-1.35,4.52-3.27,1.3-2.75.15-6.06-2.8-8.05-1.66-1.12-3.81-1.71-6.02-1.41l2.04-4.95c.42-1.02-.07-2.19-1.09-2.61-1.02-.42-2.19.07-2.61,1.09l-2.12,5.15c-1.23-1.63-2.96-2.51-4.56-2.78-3.38-.57-6.57,1.23-7.57,4.27-.66,2-.29,3.98,1.01,5.44,1.04,1.16,2.53,1.82,4.01,1.82.33,0,.65-.03.97-.1,1.53-.32,2.69-1.38,3.19-2.89.34-1.05-.23-2.18-1.28-2.52-1.05-.34-2.18.23-2.52,1.28-.06.19-.12.2-.21.22-.32.07-.84-.09-1.18-.47-.34-.38-.41-.88-.2-1.52.43-1.31,1.89-1.78,3.11-1.58,1.84.31,2.92,1.98,2.9,4.47l-28.18,68.56s-.04.04-.07.06c-2.28,2.44-4.87,2.46-6.43,1.39-.37-.25-1.54-1.18-.93-2.44.29-.61.71-.94,1.23-.98.52-.04,1,.2,1.17.46.05.07.07.11,0,.28-.48.99-.07,2.19.93,2.67.99.48,2.19.07,2.67-.93.69-1.43.59-2.99-.28-4.27-1.01-1.48-2.88-2.33-4.78-2.2-1.97.15-3.62,1.32-4.54,3.23-1.28,2.66-.37,5.67,2.27,7.47,1.23.84,2.82,1.36,4.54,1.36.58,0,1.18-.06,1.79-.19l-4.27,10.38-9.35-21.04c.61.13,1.2.19,1.79.19,1.93,0,3.69-.65,4.99-1.67,2.52-1.97,3.24-5.03,1.79-7.6-1.04-1.85-2.77-2.92-4.74-2.94-.02,0-.04,0-.06,0-1.88,0-3.67.98-4.57,2.5-.79,1.34-.79,2.9-.01,4.28.54.96,1.76,1.3,2.73.76.96-.54,1.3-1.76.76-2.73-.09-.17-.07-.21-.03-.28.16-.26.62-.54,1.12-.54,0,0,0,0,.01,0,.53,0,.96.31,1.29.9.68,1.22-.42,2.21-.77,2.49-1.49,1.16-4.08,1.31-6.51-.98-.13-.12-.27-.21-.41-.29l-2.13-4.79c5.74-3.87,8.54-9.43,7.93-14.44-.64-5.26-5.54-10.93-17.26-9.6-.44.05-.87.08-1.31.11l-8.64-19.45c.83-.26,1.69-.5,2.61-.71,1.08-.25,1.75-1.32,1.5-2.4-.25-1.08-1.32-1.75-2.4-1.5-1.2.28-2.3.6-3.34.93l-3.77-8.48c-.24-3.21,1.45-5.09,3.25-5.53.32-.08,1.95-.4,2.51.96.26.62.23,1.12-.09,1.53-.31.4-.82.6-1.14.55-.09-.01-.15-.02-.23-.21-.42-1.02-1.58-1.52-2.61-1.1-1.02.42-1.51,1.58-1.1,2.61.6,1.48,1.84,2.45,3.39,2.66,1.77.24,3.68-.57,4.85-2.07,1.2-1.54,1.42-3.55.62-5.49-1.11-2.71-4.05-4.08-7.15-3.33-1.84.44-3.68,1.67-4.9,3.59l-1.17-2.63c-.45-1.01-1.63-1.47-2.64-1.02-1.01.45-1.46,1.63-1.02,2.64l1.5,3.38c-2.5-.43-4.85.26-6.46,1.53-2.52,1.97-3.24,5.03-1.79,7.6,1.04,1.85,2.77,2.92,4.74,2.94Zm78.17,43.89c-1,2.76-2.51,4.48-4.62,5.28-3.02,1.14-6.6.11-8.63-.69l7.04-17.12c1.82.76,4.71,2.33,6.12,5.03,1.1,2.1,1.13,4.62.08,7.5Zm10.49-29.31c.74,3.17-.58,6.8-3.44,9.47-3.09,2.88-7.32,4.08-11.64,3.38l8.1-19.71c3.88,1.51,6.28,3.86,6.99,6.85Zm-63.43,12.28c7.37-.83,12.28,1.51,12.84,6.11.41,3.41-1.6,7.27-5.63,10.21l-7.25-16.31s.02,0,.04,0Zm-6.12-3.83c-8.4-.54-13.9-4.58-14.67-9.05-.6-3.52,1.87-6.73,6.65-9l8.02,18.05Z"/>
</svg>