<?xml version="1.0" encoding="UTF-8"?>
<svg id="icons" xmlns="http://www.w3.org/2000/svg" viewBox="0 0 120 120">
  <path d="m58.68,47.34c0,.78.64,1.42,1.42,1.42s1.42-.64,1.42-1.42-.64-1.42-1.42-1.42-1.42.64-1.42,1.42Z"/>
  <path d="m108.15,41.69h1.89c1.1,0,2-.9,2-2s-.9-2-2-2h-1.89c-6.78,0-13.12,2.72-17.62,7.26l-28.25-12.36c.53-1.66,2.28-5.59,7.01-6.17,1.07-.13,2.24.27,2.79.95.31.38.37.78.2,1.28-.18.53-.72.51-.84.5-.23-.02-.35-.09-.37-.22-.17-1.09-1.2-1.83-2.28-1.67-1.09.17-1.84,1.19-1.67,2.28.31,1.96,1.9,3.41,3.98,3.59,2.23.2,4.27-1.12,4.97-3.19.61-1.79.29-3.65-.88-5.09-1.43-1.76-3.94-2.7-6.38-2.4-2.91.36-5.11,1.61-6.76,3.17v-3.69l.71.68c.39.38.89.56,1.39.56s1.05-.2,1.44-.61c.77-.79.75-2.06-.05-2.83l-.54-.52h1.8s0,0,0,0c1.1,0,2-.89,2-1.99,0-1.1-.89-2-1.99-2.01h-1.51s.23-.22.23-.22c.8-.76.84-2.02.08-2.83-.76-.8-2.03-.84-2.83-.08l-.72.68v-2.32c0-1.1-.9-2-2-2s-2,.9-2,2v2.06l-.6-.58c-.79-.77-2.06-.75-2.83.05-.77.79-.75,2.06.05,2.83l.39.37h-1.25s0,0,0,0c-1.1,0-2,.89-2,1.99,0,1.1.89,2,1.99,2.01h1.46s-.57.54-.57.54c-.8.76-.84,2.02-.08,2.83.39.42.92.63,1.45.63.49,0,.99-.18,1.37-.55l.61-.58v3.51c-1.64-1.53-3.82-2.76-6.69-3.11-2.45-.3-4.96.64-6.38,2.4-1.17,1.44-1.5,3.3-.88,5.09.71,2.07,2.75,3.39,4.97,3.19,2.07-.18,3.67-1.62,3.98-3.59.17-1.09-.58-2.11-1.67-2.28-1.09-.16-2.11.58-2.28,1.67-.02.12-.14.2-.37.22-.11.01-.66.03-.84-.5-.17-.5-.11-.9.2-1.28.55-.68,1.73-1.08,2.79-.95,4.73.58,6.47,4.49,7.01,6.17l-28.25,12.36c-4.51-4.54-10.85-7.26-17.62-7.26h-1.95c-1.1,0-2,.9-2,2s.9,2,2,2h1.95c7.97,0,15.22,4.43,18.47,11.28,1.98,4.17,3.24,10.7-1.53,18.55-2.61-.76-8.5-2.95-11.21-7.65-1.51-2.63-1.82-5.75-.92-9.29,1.96.38,5.32,1.36,7.29,3.85,1.12,1.42,1.66,3.2,1.6,5.32-1.15-.38-2.55-1.27-3.25-3.29-.36-1.04-1.5-1.6-2.54-1.24-1.04.36-1.6,1.5-1.24,2.54,1.76,5.13,6.59,6.35,8.87,6.29.95-.03,1.75-.72,1.91-1.66.72-4.17-.03-7.69-2.22-10.46-4.02-5.06-11.41-5.55-11.72-5.57-.89-.04-1.72.5-2.01,1.35-1.82,5.34-1.55,10.11.79,14.16,2.97,5.14,8.56,7.79,12.07,9.01.05.08.09.17.16.24l32.05,36.62c.32.36.74.58,1.18.65.04,0,.09,0,.13.01.06,0,.13.02.19.02,0,0,.01,0,.02,0,0,0,.01,0,.02,0,.07,0,.13-.01.19-.02.04,0,.09,0,.13-.01.44-.07.86-.29,1.18-.65l32.05-36.62c.06-.07.1-.16.16-.24,3.51-1.22,9.1-3.86,12.07-9.01,2.34-4.05,2.61-8.82.79-14.16-.29-.85-1.14-1.39-2.01-1.35-.31.02-7.71.5-11.72,5.57-2.2,2.77-2.95,6.29-2.22,10.46.16.94.96,1.63,1.91,1.66,2.32.08,7.1-1.15,8.87-6.29.36-1.04-.2-2.18-1.24-2.54-1.05-.36-2.18.2-2.54,1.24-.7,2.03-2.11,2.91-3.25,3.29-.05-2.12.48-3.9,1.6-5.32,1.97-2.49,5.33-3.48,7.29-3.85.9,3.54.59,6.66-.92,9.29-2.71,4.7-8.6,6.88-11.21,7.65-4.78-7.85-3.51-14.38-1.53-18.55,3.25-6.85,10.5-11.28,18.47-11.28Zm-48.1,51.56l-15.36-17.44h15.35s.02,0,.03,0c.01,0,.02,0,.03,0h15.55s-15.61,17.44-15.61,17.44Zm.06-21.44s-.02,0-.03,0c-.01,0-.02,0-.03,0h-26.69c4.37-8.35,3.06-15.42.91-20.17l23.73,10.15-.02.42c-.06,1.43-.56,2.73-1.42,3.65-.84.89-1.86,1.37-3.12,1.45-1.2.08-2.44-.37-2.97-1.06-.26-.34-.3-.69-.14-1.16.18-.53.73-.51.84-.5.23.02.35.09.37.22.17,1.09,1.2,1.83,2.28,1.67,1.09-.17,1.84-1.19,1.67-2.28-.31-1.96-1.9-3.41-3.98-3.59-2.22-.19-4.27,1.12-4.97,3.19-.59,1.74-.33,3.47.75,4.88,1.25,1.63,3.51,2.64,5.87,2.64.18,0,.35,0,.53-.02,2.26-.14,4.26-1.08,5.79-2.71.22-.23.41-.48.6-.73.19.25.39.5.6.73,1.52,1.63,3.52,2.57,5.79,2.71.18.01.35.02.53.02,2.36,0,4.62-1,5.87-2.64,1.08-1.41,1.34-3.14.75-4.88-.71-2.07-2.74-3.39-4.97-3.19-2.07.18-3.67,1.62-3.98,3.59-.17,1.09.58,2.11,1.67,2.28,1.09.17,2.11-.58,2.28-1.67.02-.12.14-.2.37-.22.11-.01.66-.03.84.5.16.47.12.82-.14,1.16-.53.69-1.77,1.14-2.97,1.06-1.26-.08-2.28-.55-3.12-1.45-.86-.92-1.36-2.22-1.42-3.65l-.02-.42,23.73-10.15c-2.16,4.75-3.46,11.82.91,20.17h-26.69Zm-.03-35.83l25.83,11.3-25.83,11.04-25.83-11.04,25.83-11.3Zm0,71.44l-27.66-31.61h6.95s19.18,21.77,19.18,21.77c.02.03.06.05.08.07.03.03.05.06.09.09.03.03.06.04.09.07.04.04.09.07.13.1.07.05.14.09.21.12.04.02.09.05.13.06.08.03.17.06.26.08.04,0,.08.02.11.03.13.03.26.04.39.04,0,0,0,0,0,0s0,0,0,0c.13,0,.26-.01.38-.04.04,0,.07-.02.11-.03.09-.02.18-.05.26-.08.04-.02.08-.04.13-.06.08-.04.15-.08.22-.13.04-.03.09-.06.13-.09.03-.02.06-.04.09-.07.03-.03.06-.06.09-.1.03-.03.05-.04.08-.07l19.5-21.78h6.71s-27.66,31.61-27.66,31.61Z"/>
  <path d="m40.12,45.11l-.48.21c-.74.31-1.22,1.04-1.22,1.84s.48,1.53,1.22,1.84l.44.19c.25.11.52.16.78.16.78,0,1.52-.46,1.84-1.22.1-.24.15-.49.16-.74.09-.39.06-.82-.11-1.22-.43-1.02-1.6-1.49-2.62-1.06Z"/>
  <path d="m54.52,50.98l-.92-.39c-1.01-.43-2.19.04-2.62,1.06s.04,2.19,1.06,2.62l.92.39c.25.11.52.16.78.16.78,0,1.52-.46,1.84-1.22.43-1.02-.04-2.19-1.06-2.62Z"/>
  <path d="m60.81,57.34l.14-.06c1.02-.43,1.5-1.6,1.07-2.62-.3-.72-.97-1.17-1.7-1.22l-.28-.12c-1.02-.43-2.19.04-2.62,1.06-.43,1.02.04,2.19,1.06,2.62l.78.33c.25.11.52.16.78.16s.53-.05.77-.16Z"/>
  <path d="m48.08,48.24l-.92-.39c-1.02-.44-2.19.04-2.62,1.06-.43,1.02.04,2.19,1.06,2.62l.92.39c.26.11.52.16.78.16.78,0,1.52-.46,1.84-1.22.43-1.02-.04-2.19-1.06-2.62Z"/>
  <path d="m53,39.63l-.92.39c-1.02.43-1.49,1.6-1.06,2.62.32.76,1.06,1.22,1.84,1.22.26,0,.53-.05.78-.16l.92-.39c1.02-.43,1.49-1.6,1.06-2.62-.43-1.02-1.61-1.49-2.62-1.06Z"/>
  <path d="m46.56,42.37l-.92.39c-1.02.43-1.49,1.61-1.06,2.62.32.76,1.06,1.22,1.84,1.22.26,0,.53-.05.78-.16l.92-.39c1.02-.43,1.49-1.61,1.06-2.62s-1.61-1.49-2.62-1.06Z"/>
  <path d="m64.92,43.13l.92.4c.26.11.53.17.8.17.77,0,1.51-.45,1.83-1.2.44-1.01-.02-2.19-1.03-2.63l-.92-.4c-1.01-.44-2.19.02-2.63,1.03-.44,1.01.02,2.19,1.03,2.63Z"/>
  <path d="m72.32,48.19l-.92.39c-1.02.43-1.5,1.6-1.07,2.62.32.77,1.06,1.23,1.85,1.23.26,0,.52-.05.77-.16l.92-.39c1.02-.43,1.5-1.6,1.07-2.62-.43-1.02-1.6-1.5-2.62-1.07Z"/>
  <path d="m76.78,48.49c.32.77,1.06,1.23,1.85,1.23.26,0,.52-.05.77-.16l.92-.39c1.02-.43,1.5-1.6,1.07-2.62-.21-.51-.62-.89-1.1-1.08,0,0-.02,0-.03-.01l-.92-.4c-1.01-.44-2.19.02-2.63,1.03-.2.46-.22.95-.08,1.4-.04.33,0,.67.14,1Z"/>
  <path d="m65.71,55.13c.26,0,.52-.05.77-.16l.92-.39c1.02-.43,1.5-1.6,1.07-2.62-.42-1.02-1.59-1.5-2.62-1.07l-.92.39c-1.02.43-1.5,1.6-1.07,2.62.32.77,1.06,1.23,1.85,1.23Z"/>
  <path d="m71.34,45.93l.92.4c.26.11.53.17.8.17.77,0,1.5-.45,1.83-1.2.44-1.01-.02-2.19-1.03-2.63l-.92-.4c-1.01-.44-2.19.02-2.63,1.03-.44,1.01.02,2.19,1.03,2.63Z"/>
  <path d="m59.31,41.12c.26,0,.53-.05.78-.16l.17-.07c.76-.01,1.47-.46,1.8-1.2.44-1.01-.02-2.19-1.03-2.63l-.18-.08c-.5-.22-1.08-.23-1.59,0l-.73.31c-1.02.43-1.49,1.61-1.06,2.62.32.76,1.06,1.22,1.84,1.22Z"/>
  <path d="m40.77,78.1l-.66-.75c-.72-.83-1.99-.92-2.82-.2-.83.72-.92,1.99-.2,2.82l.66.75c.38.44.93.69,1.51.69.48,0,.95-.17,1.31-.49.83-.72.92-1.99.2-2.82Z"/>
  <path d="m80.61,77.33l-.66.75c-.73.83-.66,2.09.17,2.82.37.33.84.5,1.33.5.57,0,1.12-.25,1.5-.67l.66-.75c.35-.4.53-.91.5-1.45s-.27-1.02-.67-1.38c-.4-.36-.92-.54-1.45-.5-.53.03-1.02.27-1.37.67Z"/>
  <path d="m58.61,98.94c-.72-.83-1.99-.92-2.82-.2-.4.35-.65.84-.68,1.37s.14,1.05.49,1.45l.65.75c.38.44.93.69,1.51.69.48,0,.95-.17,1.31-.49.83-.72.92-1.99.19-2.82l-.66-.75Z"/>
  <path d="m77.12,81.93c-.53.03-1.02.27-1.37.67l-.66.75c-.73.83-.66,2.09.17,2.82.37.33.84.5,1.33.5.57,0,1.12-.25,1.5-.67l.66-.75c.35-.4.53-.91.5-1.45s-.27-1.02-.67-1.38c-.4-.36-.92-.53-1.45-.5Z"/>
  <path d="m53.84,93.19c-.35-.4-.84-.65-1.37-.68-.54-.04-1.05.14-1.45.49s-.65.84-.68,1.37.14,1.05.49,1.45l.65.75c.38.44.93.69,1.51.69.48,0,.95-.17,1.31-.49.83-.72.92-1.99.19-2.82l-.66-.75Z"/>
  <path d="m63.32,97.55c-.53.03-1.02.27-1.37.67l-.66.75c-.35.4-.53.91-.5,1.45s.27,1.02.67,1.38c.37.33.84.5,1.33.5.57,0,1.12-.25,1.5-.67l.66-.75c.35-.4.53-.91.5-1.45s-.27-1.02-.67-1.38c-.4-.36-.92-.54-1.45-.5Z"/>
  <path d="m72.7,86.89c-.53.03-1.02.27-1.37.67l-.66.75c-.73.83-.66,2.09.17,2.82.37.33.84.5,1.33.5.57,0,1.12-.25,1.5-.67l.66-.75c.73-.83.66-2.09-.17-2.82-.4-.36-.92-.52-1.45-.5Z"/>
  <path d="m49.13,87.8c-.35-.4-.84-.65-1.37-.68-.53-.03-1.05.14-1.45.49-.4.35-.65.84-.68,1.37s.14,1.05.49,1.45l.65.75c.38.44.93.69,1.51.69.48,0,.95-.17,1.31-.49.4-.35.64-.84.68-1.37.04-.53-.14-1.05-.49-1.45l-.66-.75Z"/>
  <path d="m66.61,92.99l-.66.75c-.73.83-.65,2.09.17,2.82.37.32.84.5,1.32.5.57,0,1.12-.25,1.5-.67l.66-.75c.73-.83.65-2.09-.17-2.82-.82-.73-2.09-.65-2.82.17Z"/>
  <path d="m44.48,82.78c-.35-.4-.84-.65-1.37-.68-.53-.04-1.05.14-1.45.49-.4.35-.65.84-.68,1.37s.14,1.05.49,1.45l.65.75c.38.44.93.69,1.51.69.48,0,.95-.17,1.31-.49.83-.72.92-1.99.19-2.82l-.66-.75Z"/>
  <path d="m51.83,77.17c-.36-.4-.85-.63-1.38-.66-.54-.04-1.05.16-1.44.51-.4.36-.63.85-.66,1.38s.15,1.05.51,1.44l.67.74c.38.42.92.66,1.48.66.5,0,.97-.18,1.34-.52.82-.74.88-2.01.14-2.82l-.67-.74Z"/>
  <path d="m57.19,83.11l-.67-.74c-.36-.4-.85-.63-1.38-.66-.52-.03-1.05.15-1.44.51-.4.36-.63.85-.66,1.38s.15,1.05.51,1.44l.67.74c.38.42.92.66,1.49.66.5,0,.97-.18,1.34-.52.82-.74.88-2.01.14-2.82Z"/>
  <path d="m61.13,87.04c-.74-.82-2.01-.88-2.82-.14-.4.36-.63.85-.66,1.38s.15,1.05.51,1.44l.67.74c.38.42.92.66,1.48.66.5,0,.97-.18,1.34-.52.82-.74.88-2.01.14-2.82l-.67-.74Z"/>
  <path d="m63.63,82.34l-.67.74c-.36.4-.54.91-.52,1.44.03.53.26,1.03.65,1.38.37.34.85.52,1.35.52.56,0,1.1-.24,1.48-.65l.67-.74c.36-.4.54-.91.52-1.44-.03-.53-.26-1.03-.65-1.38-.81-.74-2.08-.68-2.83.13Z"/>
  <path d="m71.4,77.03c-.82-.74-2.08-.68-2.83.14l-.67.74c-.74.82-.68,2.08.14,2.83.37.33.85.52,1.34.52.56,0,1.1-.24,1.48-.65l.67-.74c.74-.82.68-2.08-.14-2.83Z"/>
</svg>