<?xml version="1.0" encoding="UTF-8"?>
<svg id="icons" xmlns="http://www.w3.org/2000/svg" viewBox="0 0 120 120">
  <path d="m70.41,37.27c.96-.03,1.86-.43,2.53-1.13.29-.3.27-.78-.03-1.06-.3-.28-.78-.27-1.06.03-.39.41-.91.64-1.48.66-.56.02-1.1-.19-1.51-.58-.3-.29-.78-.27-1.06.03-.28.3-.27.78.03,1.06.68.64,1.55.99,2.48.99.03,0,.07,0,.1,0Z"/>
  <path d="m75.09,41.05c-.43.45-1.01.71-1.63.73-.63.04-1.21-.21-1.67-.64-.3-.28-.77-.27-1.06.03-.28.3-.27.78.03,1.06.72.68,1.65,1.05,2.63,1.05.04,0,.07,0,.11,0,1.02-.03,1.97-.45,2.68-1.2.29-.3.27-.78-.03-1.06-.3-.28-.78-.27-1.06.03Z"/>
  <path d="m71.94,38.52c-.28.3-.27.77.03,1.06.4.38.91.58,1.45.58.02,0,.04,0,.06,0,.56-.01,1.09-.25,1.48-.66.28-.3.27-.78-.03-1.06-.3-.28-.78-.27-1.06.03-.11.12-.26.19-.43.19-.15,0-.32-.06-.44-.17-.3-.29-.77-.27-1.06.03Z"/>
  <path d="m76.38,37.27s.07,0,.1,0c.96-.03,1.86-.43,2.53-1.13.29-.3.27-.78-.03-1.06-.3-.28-.77-.27-1.06.03-.39.41-.91.64-1.48.66-.57.02-1.1-.19-1.51-.58-.3-.29-.78-.27-1.06.03-.28.3-.27.78.03,1.06.68.64,1.55.99,2.48.99Z"/>
  <path d="m102.86,98.06c-.43-2.14-1.52-3.76-3.14-4.69-2.19-1.26-5.37-2.09-8.45-2.89-3.27-.85-6.64-1.73-7.38-2.87-.59-.91-.87-1.84-.83-2.76.06-1.36.08-2.81-.08-4.27,0,0,0-.01,0-.02,0-.03,0-.06,0-.09-.21-1.8-.49-4.16-.73-6.37-.28-2.52.81-5.8,1.69-7.95.55,3.5,1.55,9.63,2.09,11.64.59,2.2,2.08,3.04,3.03,3.36-1.35,5.94-.57,6.23-.04,6.42.41.16,1.25.46,3.27-3.2.5.56,1.18,1.59,1.5,3.32.39,2.09,1.78,2.94,2.98,2.89,1.3-.07,2.69-1.23,2.87-3.65.13-1.76-.4-4.65-1.63-7.32.29-2.58-.3-4.4-.99-6.49-.81-2.47-1.82-5.54-1.68-11.18.26-10.13-2.17-15.79-7.43-17.3-3.97-1.15-5.68.73-6.25,1.64l-1.05.09c-.79.05-1.51-.38-1.81-1.09l-.06-.15c.65-.57,1.18-1.27,1.56-2.06.38.4.82.7,1.35.88.43.14.87.2,1.31.2,1.74,0,3.38-.92,3.46-.97.36-.21.49-.66.28-1.02-.2-.36-.66-.49-1.02-.28-.57.32-2.31,1.07-3.54.65-.56-.19-.96-.6-1.23-1.25,0-.02-.03-.03-.04-.05.05-.31.08-.63.08-.96v-2.5c.9-.32,1.9-1.2,2.53-3.36.42-1.41.52-2.93.28-4.39-.45-2.65-1.69-4.6-3.68-5.81v-5.77c0-.93-.75-1.68-1.67-1.68h-.77c-.1,0-.18-.09-.18-.19v-2.04c0-.46-.18-.89-.51-1.21s-.76-.49-1.29-.5c-.04-.04-.06-.09-.06-.15v-.67c0-.92-.75-1.67-1.67-1.67h-1.26c-.93,0-1.68.75-1.68,1.67v.67c0,.07-.03.11-.05.13-.02.02-.06.05-.12.05,0,0-.01,0-.02,0-.44,0-.85.17-1.16.48-.32.31-.5.75-.5,1.2v2.04c0,.11-.07.18-.27.18-1.83,0-1.97,1.29-1.97,1.69v5.81c-1.39,1.02-2.5,2.75-3.01,4.73-.45,1.75-.35,3.66.3,5.51.48,1.41,1.1,2.48,1.84,3.23v2.57c0,.33.03.65.08.96-.15.89-.51,1.5-1.09,1.84-1.4.82-3.63-.02-3.66-.02-.39-.15-.82.05-.97.43-.15.39.05.82.43.97.08.03,1.27.48,2.64.48.76,0,1.58-.14,2.3-.56.43-.25.77-.59,1.06-.99.24.44.54.85.88,1.23l-.26,1.1c-.18.76-.93,1.24-1.71,1.08-.69-.14-1.5-.28-2.38-.39,0,0,0,0,0,0-3.28-.41-7.45-.37-9.74,1.87-.55.54-1.17,1.16-1.84,1.83-3.74,3.76-9.4,9.44-13.07,10.35-9.8,2.45-15.87,5.19-18.03,8.13-3.03,4.12-4.2,7.46-3.48,9.93.59,2,1.93,2.86,2.9,2.65.59-.13,1.12-.68.98-1.63-.14-1.03.03-2.68,1.7-4.62.65-.75,1.21-1.38,1.65-1.86.19,1.25.6,2.61,1.53,2.94.36.13.74.08,1.07-.13,1.41-.89,1.88-5.18,1.9-5.34l.04-.3c1.36-.13,4.77-.49,8.17-1.1-1.45,1.68-2.5,4.12-3.02,7.13-.23,1.32-.48,2.83-.75,4.44-1.14,6.79-2.68,16.02-3.88,18.41-.57.26-1.85.95-2.34,2.23-.23.6-.25,1.24-.07,1.91-1.06.11-2.55.41-3.22,1.18-.31.35-.44.78-.38,1.23.33,2.54,5.81,2.76,8.99,2.49,3.99-.34,7.69-.82,7.65-.82l2.92-.04s0,0,0,0h0s0,0,0,0l7.71-.09c.17.53.5,1.25,1.13,1.64.34.21.91.41,1.67.16,1.45-.48,4.85-1.87,5.76-2.25,1.26.28,7.05,1.52,10.24.97.9.61,3.68,1.97,10.62,1.97.73,0,1.51-.02,2.34-.05,1.79-.07,3.47-.12,5.02-.17,7.97-.25,12.36-.39,13.81-2.31,1.12-1.48,2.25-5.65,1.55-9.09Zm-20.63-10.34c-13.55,7.21-16.34,5.17-19,1.24-2.62-3.88-4.9-7.86-5.39-8.72,0-.22,0-.43.02-.64.11.03.22.07.34.1,4.36,4.26,8.86,6.43,13.38,6.43.17,0,.35,0,.52,0,4.49-.16,7.82-2.41,9.49-3.84.02.85,0,1.7-.03,2.52-.03.71.08,1.75.67,2.93Zm-25.66-9.41s0,0,0,0c0,0,0,0,0,0-.02.07-.05.14-.06.21-2.45-2.97-8.14-9.57-11.49-11.22-.22-.11-.44-.2-.66-.29,2.94-1.51,5.15-2.92,6.93-4.06,2.62-1.67,4.34-2.77,6.35-2.96.58-.05,1.05.14,1.48.61,1.53,1.68,1.92,6.22,1.33,9.41-.3,1.63-1.1,2.89-1.94,4.23-.19.3-.38.6-.56.91,0,0,0,0,0,0-.57.95-1.08,1.97-1.37,3.14Zm41.55,8.49c-.11,1.51-.83,2.23-1.46,2.26-.66.04-1.22-.62-1.42-1.67-.67-3.56-2.72-4.82-2.81-4.87-.18-.1-.39-.13-.59-.08-.2.06-.36.19-.46.38-.51.99-1.1,1.96-1.57,2.6.11-1.16.46-3.04.85-4.67.03-.11.03-.22,0-.33.16-.67.49-1.47,1.13-1.74.38-.16.57-.6.41-.98-.16-.38-.59-.57-.98-.41-1.07.44-1.61,1.46-1.89,2.34-.62-.26-1.5-.86-1.88-2.26-.73-2.72-2.42-13.85-2.44-13.96-.05-.32-.3-.57-.62-.63-.32-.05-.64.1-.79.39-.14.26-3.37,6.53-2.88,11.06.23,2.1.49,4.34.7,6.1-.88.89-4.4,4.08-9.42,4.25-3.73.13-7.48-1.4-11.18-4.54.12,0,.24.02.36.02,5.38,0,11.18-3.4,14.97-7.3,4.24-4.36,7.54-11.86,9.02-16.84,1.1,4.42,3.36,12.54,6.13,17.49-.49-.08-.99-.11-1.51-.07-.41.03-.73.38-.7.8s.39.73.8.7c.95-.06,1.86.15,2.72.6.11.14.26.22.43.25.42.27.82.59,1.21.98,2.65,2.67,4.02,7.69,3.84,10.11Zm-15.25-39.67c.25-.46,1.35-2,4.61-1.06,4.51,1.3,6.58,6.47,6.34,15.82-.15,5.9.9,9.11,1.75,11.69.39,1.2.73,2.25.89,3.39-.35-.48-.72-.92-1.12-1.33-.54-.54-1.11-.98-1.7-1.33-4.23-5.85-7.68-21.59-7.72-21.75-.08-.35-.41-.6-.75-.59-.36.01-.66.28-.72.63-.63,4.07-4.31,13.96-9.36,19.15-4.45,4.57-11.57,8.1-16.93,6.36.21-.62.49-1.2.81-1.77.08,0,.17,0,.28,0,1.39,0,4.57-.31,9.53-2.5,7-3.09,8.29-6.83,12.08-17.91.24-.48,2.21-4.53,2-8.8Zm-14.51-28.71c0-.08.01-.11.01-.11,0,0,.11-.08.55-.08.06,0,.12-.01.18-.02.32.69.78,2.12.24,4.09-.11.4.13.81.53.92.06.02.13.03.2.03.33,0,.63-.22.72-.55.69-2.56.01-4.44-.42-5.31.15-.25.23-.53.23-.84v-2.04c0-.07.04-.12.06-.14.03-.03.06-.06.1-.04.05,0,.1,0,.16-.01.21.47.5,1.43.29,2.79-.06.41.22.79.63.85.04,0,.07,0,.11,0,.37,0,.69-.27.74-.64.28-1.87-.2-3.19-.49-3.81.16-.26.25-.56.25-.88v-.67c0-.1.08-.17.18-.17h1.26c.09,0,.17.08.17.17v.67c0,.26.07.52.18.75-.28.54-.86,1.92-.56,3.94.06.37.38.64.74.64.04,0,.07,0,.11,0,.41-.06.69-.44.63-.85-.2-1.38.09-2.34.3-2.8.09.01.18.02.27.02.08-.01.11.02.13.05s.05.06.05.13v2.04c0,.24.05.46.14.67-.42.76-1.26,2.73-.52,5.48.09.33.39.55.72.55.06,0,.13,0,.2-.03.4-.11.64-.52.53-.92-.54-2-.07-3.44.25-4.11.11.02.23.04.35.04h.77c.1,0,.18.09.18.19v5.62c-3.31.98-6.88.98-10.19,0v-5.63Zm-2.37,14.98v1.62c-.15-.32-.29-.66-.42-1.04-.55-1.57-.64-3.18-.26-4.65.4-1.56,1.23-2.92,2.26-3.75.02,0,.03,0,.04,0,.12,0,.23-.04.33-.09,3.7,1.1,7.58,1.08,11.27-.07,1.66.99,2.65,2.57,3.03,4.83.2,1.23.12,2.52-.24,3.72-.18.62-.53,1.52-1.09,2.04v-2.62c0-.47-.06-.92-.17-1.36,0,0,0,0,0,0,0,0,0-.01,0-.02-.62-2.53-2.9-4.41-5.62-4.41h-3.35c-3.2,0-5.8,2.6-5.8,5.8Zm12.98-1.88c-2.61.11-3.86-1.38-4.41-2.41h.57c1.69,0,3.14.99,3.84,2.41Zm-6.75-2.41c-.59.82-1.79,1.88-4.07,2.02.76-1.21,2.1-2.02,3.63-2.02h.44Zm-4.74,11.15v-2.91s0-.01,0-.02v-3.93c0-.27.03-.52.08-.78,3.19,0,4.94-1.42,5.81-2.59.77,1.31,2.33,3,5.28,3,.23,0,.48-.01.73-.03.01.13.04.26.04.4v6.85c0,2.75-2.24,4.99-4.99,4.99h-1.95c-2.75,0-4.99-2.24-4.99-4.99Zm-2.1,7.99c1.57.31,3.09-.65,3.47-2.2l.09-.35c1.02.66,2.23,1.05,3.54,1.05h1.95c1.1,0,2.13-.28,3.04-.76.55,1.15,1.71,1.88,2.97,1.88.09,0,.18,0,.27-.01l.66-.05c-.01,3.3-1.38,6.46-1.77,7.29-1.16.57-5.89,2.65-10.01.72-2.6-1.22-4.42-3.85-5.44-7.79.46.07.88.15,1.23.22Zm-37.2,20.52c-.35.03-.63.29-.68.64l-.13.92c-.17,1.63-.68,3.52-1.07,4.1-.28-.47-.54-1.85-.58-3.12,0-.3-.19-.56-.47-.67-.28-.11-.59-.05-.81.16-.05.04-1.16,1.13-2.88,3.13-1.96,2.29-2.22,4.31-2.07,5.66-.27-.18-.68-.63-.94-1.5-.58-1.96.55-4.94,3.25-8.62,1.34-1.82,5.41-4.62,17.19-7.56,4.07-1.02,9.68-6.64,13.77-10.75.67-.67,1.28-1.29,1.83-1.82,1.77-1.73,5.23-1.79,7.96-1.51,1.1,4.72,3.24,7.87,6.39,9.35,3.7,1.74,7.74.69,9.95-.15-3.31,9.65-4.65,12.77-10.72,15.45-4.06,1.79-6.82,2.25-8.28,2.35.83-1.33,1.66-2.71,2-4.52.05-.28.1-.58.13-.89.9.85,2.15,1.34,3.63,1.34.03,0,.07,0,.1,0,2.48-.04,5.41-1.54,5.95-4.25.08-.41-.18-.8-.59-.88-.4-.08-.8.18-.88.59-.37,1.87-2.58,3.02-4.5,3.05-.69,0-2.99-.15-3.56-2.47-.02-2.68-.55-5.61-1.97-7.17-.74-.81-1.68-1.19-2.73-1.1-2.37.22-4.32,1.47-7.02,3.19-1.78,1.14-4,2.55-6.95,4.06-3.94,2.02-15.22,3-15.33,3Zm14.78,37.01s-.01,0-.02,0l-3,.04s-3.71.48-7.67.82c-4.68.4-7.29-.56-7.37-1.21.09-.32,1.62-.74,3.22-.77.26,0,.51-.15.64-.38.13-.23.13-.51,0-.74-.37-.65-.46-1.2-.27-1.68.28-.76,1.19-1.26,1.62-1.43,2.6-.17,3.83.82,5.24,1.97,1.26,1.03,2.69,2.19,5.18,2.4,2.04.17,2.89.62,3.13.85-.11.06-.33.14-.69.14Zm16.4-.56c-.15-.04-.31-.02-.46.04-.04.02-4.29,1.77-5.88,2.3-.25.08-.36.02-.41,0-.29-.18-.51-.79-.58-1.18.05-1.8.28-3.07.57-3.97,0,0,0-.01.01-.02,0,0,0-.02,0-.03.35-1.05.77-1.58,1.08-1.85.32-.28.67-.39,1.02-.35,1.37.18,6.52.55,7.99.66.58.92,2.34,3.49,4.89,5.53-3.4,0-8.19-1.11-8.25-1.12Zm40.74,1.03c-1.02,1.35-5.9,1.5-12.66,1.71-1.56.05-3.24.1-5.04.17-9.67.38-12.18-1.76-12.19-1.77-.02-.02-.04-.02-.06-.03-.03-.02-.05-.05-.08-.07-3.73-2.25-6.24-6.51-6.27-6.55-.12-.21-.35-.35-.6-.37-.02,0-.83-.06-1.92-.14.76-1.21,3.22-1.24,6.7-1.13.74.02,1.47.05,2.18.05,1.39,0,3.12-.52,5.12-1.12,4.36-1.31,10.32-3.11,16.68-.5.39.16.82-.03.98-.41.16-.38-.03-.82-.41-.98-6.85-2.81-13.11-.92-17.69.45-1.89.57-3.51,1.06-4.68,1.06-.69,0-1.41-.02-2.13-.04-3.54-.11-7.51-.23-8.34,2.51-1.22-.09-2.51-.2-3.49-.29-1.18-.9-9.22-7.43-9.28-18.36,0-.41-.34-.75-.75-.75h0c-.41,0-.75.34-.75.75.05,9.48,5.54,15.71,8.4,18.32-.27.08-.53.22-.79.39-1.5-.72-7.13-3.83-8.58-10.73-.08-.41-.49-.67-.89-.58-.41.08-.67.48-.58.89,1.48,7.08,6.81,10.46,8.97,11.57-.16.25-.32.53-.45.83-1.54-.71-5.5-2.81-9.54-7.23-.28-.31-.75-.33-1.06-.05-.31.28-.33.75-.05,1.06,4.35,4.77,8.59,6.95,10.17,7.65-.23.9-.38,1.95-.45,3.13l-5.37.07s0-.02,0-.03c.02-.61-.38-2.08-4.56-2.42-2.03-.17-3.16-1.09-4.36-2.07-1.27-1.03-2.69-2.18-5.18-2.31,1.11-3.02,2.29-9.72,3.67-17.99.27-1.6.52-3.1.75-4.43.68-3.9,2.33-6.77,4.52-7.89,1.35-.69,2.83-.67,4.29.05,3.83,1.88,11.53,11.47,12.11,12.2.29.52,2.71,4.8,5.52,8.95,1.78,2.63,3.7,4.23,6.93,4.23s7.51-1.52,14.17-5.07c1.38,1.29,4.38,2.08,7.8,2.97,2.98.78,6.07,1.58,8.08,2.74,1.25.72,2.07,1.96,2.42,3.69.65,3.21-.49,6.84-1.28,7.89Z"/>
  <path d="m93.06,100.99c.31-.27.35-.74.08-1.06-.27-.31-.74-.35-1.06-.08-.36.31-8.88,7.43-21.52-.49-.35-.22-.81-.11-1.03.24-.22.35-.11.81.24,1.03,4.8,3.01,9.07,3.92,12.49,3.92,1.63,0,3.06-.21,4.27-.49,4.07-.97,6.44-2.99,6.54-3.08Z"/>
  <path d="m95.52,102.85s-3.74,3.04-12.26,2.93h0c-.41,0-.75.33-.75.74,0,.41.33.75.74.76.15,0,.29,0,.43,0,8.79,0,12.64-3.14,12.8-3.28.32-.27.36-.74.09-1.05s-.74-.36-1.05-.1Z"/>
</svg>