<?xml version="1.0" encoding="UTF-8"?>
<svg id="icons" xmlns="http://www.w3.org/2000/svg" viewBox="0 0 120 120">
  <path d="m48.83,87.31l1.96,1.07c.42.23.89.34,1.35.34.68,0,1.35-.24,1.88-.71,1.25-1.11,2.85-3.01,3.56-3.94.58-.76,1.79-.39,3.82.55,9.29,4.3,23.37,4.18,25.95,1.66.87-.85,1.75-1.92,1.63-3.35-.17-2.07-2.37-4.44-7.53-8.08,1.55-2.85,2.76-7.53,3-8.51.62-2.46.34-8.3-.66-10.06l-2.29-6.54-2.79-8.71s-.03-.05-.04-.08c-.01-.03-.02-.06-.03-.09-.02-.03-.05-.06-.07-.09,0,0,0,0,0,0-.82-1.28-2.01-2.23-3.44-2.75l-5.05-1.84c-.08-.03-.15-.06-.23-.09-.03-.02-.05-.03-.08-.05-.58-.31-1.01-.82-1.2-1.46l-.12-.4c.29-.33.54-.68.77-1.05.25.44.56.83.95,1.13.58.45,1.24.69,1.9.69.2,0,.4-.02.59-.06,1.73-.37,2.79-2.29,2.37-4.28-.41-1.96-2.11-3.26-3.8-2.96.84-3.08.73-6.06-.36-8.6-1.09-2.53-3.05-4.44-5.54-5.42-.62-2.57-2.89-4.4-5.57-4.4-3.17,0-5.76,2.59-5.76,5.77,0,.36.04.69.11,1.02-2.02,2.17-3.03,5.34-2.7,8.6.24,2.34,1.14,4.45,2.53,6.12-.43.13-.84.35-1.18.68-.39.36-.7.81-.92,1.34-.01.03-.02.06-.03.08-.18.45-.26.95-.26,1.48,0,1.35.65,2.59,1.7,3.24.49.29.99.44,1.52.44h.03c.88-.02,1.69-.42,2.29-1.14.43-.52.7-1.16.82-1.86.18.15.37.27.56.41-.05.78-.4,1.49-1,1.98l-.05.03c-.08.03-.18.08-.28.15l-1.41.73s0,0,0,0c0,0,0,0,0,0l-2.27,1.18c-1.76,1.22-4.97,4.34-6.74,11.47-.56,2.32-1,4.93-1.4,7.4,0,.02,0,.04,0,.06,0,.02-.02.04-.02.06,0,.06-.02,1.48-1.76,2.73-.64.46-1.41,1.24-2.27,2.31-.23.28-.44.58-.66.87-.17-.53-.55-.9-.96-1.16.32-.67.65-1.51.82-2.31.27-1.23.14-2.19-.37-2.79.04-.01.08-.03.12-.04,1.63-.53,2.99-1.3,3.01-5.27,0-.41-.33-.75-.75-.75-.44.03-.75.33-.75.75-.02,3.21-.88,3.49-1.98,3.85-.53.17-1.12.38-1.64.85-1.63.06-4.74,1.1-5.57,4.74-.05.42-.09.82-.13,1.2v.04c-.17,0-.33,0-.5.03-1.23.21-2.07,1.37-1.87,2.6.04.25.12.48.24.7-.34.16-.64.4-.87.72-.35.49-.49,1.09-.39,1.69.1.6.42,1.12.92,1.47.39.28.85.43,1.31.43.12,0,.24-.01.36-.03l.28.89c-.19.24-.29.55-.23.88.05.3.21.56.46.74.19.14.42.21.66.21.06,0,.13,0,.19-.02.62-.1,1.04-.69.93-1.3-.02-.12-.07-.23-.13-.34l2.06-3.05c.17.12.31.3.27.56-.06.41.22.79.63.85.04,0,.07,0,.11,0,.08,0,.15-.02.22-.04-.04.09-.08.17-.12.26l-2.4,5.53c-3.76,3.76-5.35,9.47-3.45,12.56,1.04,1.69,1.89,2.09,2.46,2.09.27,0,.47-.09.6-.17.52-.32.77-1.09.25-1.96.16.07.33.13.51.18.3.08.58.12.84.13,1.44,5.19,3.62,10.27,4.95,13.35.26.6.48,1.12.67,1.56l-.43.06c-.48.06-.5.07-1.16.12-3.13.27-5.43.75-6.49,2.15-.5.67-1.06,1.56-.84,2.49.14.6.57,1.08,1.28,1.43.72.36,1.79.49,3.1.49,2.02,0,4.59-.32,7.26-.65l1.05-.13c2.87-.35,4.02-.71,4.55-1.43.44-.59.34-1.26.24-1.85-.1-.6-.47-1.3-.9-2.11-.68-1.29-1.53-2.89-1.43-4.39.18-2.68-.15-7.93-1.83-11.42-.38-.8-.73-1.46-1.01-2-.26-.5-.53-1.01-.65-1.32.74-.14,2.28-.53,3.76-.92-.2.3-.3.63-.29.97.02,1.08,1.12,1.75,1.26,1.83Zm-18.02-17.84c-.17-.12-.28-.3-.31-.5-.03-.2.01-.4.13-.57.04-.05.08-.09.12-.13,0,.05.01.09.03.14l.37,1.2c-.12-.02-.24-.06-.34-.14Zm56.68,13.59c.06.66-.28,1.26-1.18,2.15-1.98,1.93-15.6,2.07-24.28-1.95-1.68-.78-4.23-1.96-5.65-.1-.73.95-2.25,2.74-3.36,3.73-.42.37-1.02.44-1.51.17l-1.94-1.06c-.23-.14-.5-.41-.5-.55,0-.07.11-.27.53-.54.95-.61,1.46-1.01,2.02-1.48.35-.29.79-.64,1.48-1.11.8-.55,1.45-1.2,2.02-1.77.64-.64,1.2-1.2,1.81-1.47.57-.26,1.75-.14,3.24.35.03.01.05.02.08.03.02,0,.05.02.07.02.03,0,.06.02.09.02,0,0,0,0,.01,0l2.24.24c.08.03.16.04.25.04.02,0,.04,0,.07-.01l4.19.45c-.06.37.05.76.31,1.08.28.34.93.82,2.35.82.46,0,1-.05,1.63-.17,1.45-.28,3.33-1.46,4.87-2.52,3.16.15,5.49.68,6.74,1.56.13.09.28.14.43.14.24,0,.47-.11.61-.32.24-.34.16-.81-.18-1.05-1.22-.86-3.14-1.43-5.7-1.7.06-.04.13-.09.19-.14.53-.39,1-.73,1.39-1,.28-.19.56-.47.84-.83,4.53,3.21,6.72,5.42,6.84,6.94Zm-17.07-21.32s0,0,0,0c0,0,0,.02,0,.02.01.13.04.26.06.39.09.43.25.84.47,1.2-.07-.05-.14-.1-.2-.15-.23-.16-.44-.33-.62-.52-.02-.35,0-1.12.35-2.14-.08.38-.11.77-.07,1.17Zm.44,10.01l.74.8c-.08.37-.16.69-.22.92-.81.31-1.06.66-1.16,1.01-.09.33,0,.66.22.92-.23.51-.47,1.11-.64,1.52-.75.01-2,.14-2.71.82-.06.06-.11.12-.16.18-.09-.08-.16-.15-.18-.23-.01-.03-.04-.1.06-.28.12-.2.87-.52,1.56-.68.05,0,.11-.02.16-.04.11-.04.25-.22.42-.5h.05s.02-.08.03-.13c.56-1.01,1.33-3,1.82-4.32Zm5.67-10.87c.14.66,0,1.34-.4,1.87,0,0,0,0,0,0-.08.11-.17.22-.28.31-.3.28-.69.49-1.12.58-.23.05-.47.06-.71.04,0,0,0,0-.01,0-.23-.02-.46-.08-.68-.17-.01,0-.02,0-.03-.01-.14-.06-.27-.14-.39-.24-.02-.02-.05-.04-.07-.05,0,0,0,0,0,0-.04-.05-.09-.08-.15-.12-.35-.3-.58-.7-.7-1.16,1.45-1.34,3.82-1.34,4.54-1.06Zm-4.08-1.02c.32-.39.77-.68,1.3-.8.17-.04.34-.05.5-.05.35,0,.68.08.99.23-.11,0-.2,0-.27,0-.91.05-1.76.27-2.52.61Zm1.78,5.34c.28,0,.55-.03.82-.09.21-.05.41-.11.6-.19.05-.02.11-.05.16-.07.15-.07.29-.14.42-.22.05-.03.09-.05.14-.08.09-.06.17-.12.25-.18-.03.17-.05.33-.07.49-.16-.05-.34-.06-.5.01-1.88.81-2.49.54-2.63.44-.08-.06-.13-.15-.15-.24.32.08.64.13.96.13Zm-.8-7.6c-.9.2-1.64.7-2.18,1.36.11-.18.22-.37.35-.56,1.33-1.86,2.63-4.08,3.03-6.9,1.28,3.11,2.44,6.4,2.46,6.45,0,0,0,0,0,.01l.71,2.01c-.67-1.75-2.5-2.77-4.37-2.37Zm-1.32,8.47c.11.15.24.31.42.44.8.59,2.02.56,3.71-.09l.15.12-2.8.91c-.79.35-1.23,1.12-1.07,1.88.12.57.65,1.24,1.76,1.24.07,0,.15-.01.22-.03l1.76-.53c-.02.21-.04.43-.06.63-1.05.56-2.21.88-3.46.93l-1.53-1.64c-.17-.39-.77-2.11.9-3.86Zm4.29,2.04c0,.1-.01.2-.02.3l-2.2.66c-.13-.01-.19-.04-.19-.04,0-.03.04-.13.13-.18l2.27-.74Zm-.37,4.27c-.01.12-.03.25-.04.34-.6.04-1.14.09-1.62.15.57-.12,1.12-.27,1.66-.49Zm-2.87.65s-.08.01-.13.02c0,0,0,0,0-.01.04,0,.08,0,.12,0Zm.39,3.16l-1,1.07c-.31.33-.62.61-.91.82-1.1.83-2,.91-2.8.98-.02,0-.03,0-.05,0-.26,0-.6-.01-.71-.18.01-.03.03-.05.06-.08.35-.34,1.48-.44,2.13-.4.33.02.63-.17.75-.48.15-.38.51-1.29.8-1.94.53.1,1.14.16,1.73.19Zm-3.6-9.61c-.12.24-.21.49-.28.72-.61-.37-1.39-.89-1.79-1.26-.12-.16-.35-.47-.35-.57,0,0,.01-.05.1-.15.09.04.27.15.58.42l.89.76c.25.21.59.23.86.07Zm-.18-1.78c.05-.11.11-.23.16-.34.05.03.08.06.13.1l-.29.24Zm-.29,4.12c.03.57.15,1.07.31,1.47-.33.87-1.59,3.93-2.02,4.96-.67.18-1.81.58-2.24,1.32-.37.64-.29,1.19-.17,1.54.05.12.1.24.17.34l-2.04-.22c-.23-.95-.41-2.62.42-3.56,1.48-1.66,2.93-4.46,2.99-7.11.12-.06.24-.11.36-.18.66.52,1.58,1.1,2.21,1.44Zm-6.68,4.86c-1.17,1.31-1.08,3.19-.87,4.39l-.88-.09c-.51-1.45-2.13-6.53-1.62-11.24.95,0,1.83-.2,2.36-.35.08-.02.17,0,.24.04.2.15.46.33.77.51.84.67,1.71,1,2.57,1,0,0,.01,0,.02,0-.18,2.15-1.41,4.42-2.59,5.74Zm20.21-7.79s0,0,0,0c-.25,1-1.58,6.15-3.17,8.69-.4.63-.69.91-.87,1.03-.4.28-.89.63-1.43,1.03-.57.42-1.19.88-1.84,1.33-1.34.93-3.26,2.19-4.51,2.42-1.08.21-1.75.16-2.13.06.84-.08,2.09-.21,3.49-1.27.36-.27.73-.6,1.1-1l2.17-2.3c.21-.22.26-.54.14-.82s-.38-.46-.7-.45c-.88.02-1.79-.02-2.49-.1.75-.16,1.98-.33,3.95-.45.37-.02.67-.31.7-.67l.03-.27c.04-.31.26-2.24.4-4.17,0,0,0,0,0,0,.08-1.03.13-2.06.12-2.84-.01-.68.11-1.49.28-2.29,0-.02,0-.03,0-.05.4-1.82,1.06-3.57,1.07-3.6.06-.17.06-.35,0-.52l-.47-1.32c1.26-.15,2.9-.64,3.85-.95.56,1.73.84,6.35.31,8.5Zm-14.36-28.88c-.22,2.1-2.43,2.82-3.41,3.04-2.39.52-5.44-.07-6.68-1.73.66-.59,1.12-1.35,1.31-2.21.9.37,1.88.59,2.89.59.53,0,1.06-.05,1.59-.17,1.07-.23,2.05-.69,2.9-1.31.28.73.77,1.35,1.4,1.8Zm1.78-7.14c.23-.44.59-.73,1.01-.82.09-.02.19-.03.28-.03.83,0,1.62.76,1.85,1.82.25,1.19-.29,2.31-1.21,2.5-.42.09-.87-.03-1.26-.34-.43-.34-.74-.86-.87-1.46h0c-.09-.45-.08-.9.04-1.3.02-.04.03-.09.05-.13.03-.09.06-.17.1-.26Zm-10.67-19.22c1.67,0,3.12.95,3.82,2.37-.03,0-.05,0-.08-.01-.37-.07-.75-.12-1.13-.15-.07,0-.15,0-.22-.01-.35-.02-.71-.02-1.06,0-.05,0-.1,0-.15,0-.39.02-.77.07-1.16.13-.09.01-.17.03-.26.05-.39.07-.79.16-1.18.27-.34.1-.67.22-.99.35-.08.04-.17.07-.25.11-.28.13-.56.26-.83.42-.03.02-.06.03-.1.05-.23.14-.46.28-.68.44.13-2.24,1.98-4.02,4.25-4.02Zm-6.86,13.73c-.3-2.96.65-5.84,2.55-7.7.92-.92,2.03-1.57,3.32-1.95.48-.14.96-.24,1.43-.31.16-.02.31-.02.47-.03.32-.03.65-.07.97-.06.04,0,.08,0,.12,0,.44,0,.88.05,1.31.12.03,0,.05.01.07.02.45.08.88.19,1.31.34,0,0,0,0,0,0,2.27.79,4.06,2.47,5.03,4.74.87,2.04,1.03,4.42.48,6.91l-1.3-6.15c-.28-1.32-1.54-2.18-2.86-2-.06,0-.12,0-.19.02l-9.83,2.09c-1.38.29-2.27,1.66-1.97,3.05l1.35,6.34c-1.26-1.46-2.06-3.34-2.27-5.43Zm3.53,10.26c-.07.46-.24.86-.5,1.18-.31.38-.73.59-1.16.6-.28,0-.5-.07-.74-.22-.59-.37-.98-1.14-.98-1.97,0-.36.06-.69.18-.97.01-.03.02-.06.03-.08.13-.29.31-.55.52-.75.28-.27.65-.41.98-.4.88,0,1.63.92,1.69,1.99l-.02.62Zm.86-2.92c-.21-.42-.37-.87-.47-1.36l-.25-1.18c.55.28,1.16.43,1.77.43.31,0,.62-.04.94-.11,1.03-.25,1.9-.88,2.45-1.79.22-.35.1-.81-.25-1.03-.35-.22-.82-.11-1.03.25-.71,1.16-2.23,1.53-3.39.82-.25-.15-.56-.14-.79.01l-.98-4.59c-.03-.14-.03-.29,0-.42.03-.13.08-.27.15-.38.08-.12.17-.22.29-.3.11-.08.24-.14.38-.17l9.82-2.09c.12-.02.23-.02.34,0,.05,0,.1.01.15.03.08.02.15.05.22.09.04.02.08.04.12.07.07.05.13.12.19.18.03.03.06.06.08.09.07.11.13.23.16.37l.99,4.68s-.03-.03-.05-.04c-.35-.22-.81-.11-1.03.25-.71,1.16-2.23,1.53-3.39.82-.35-.22-.81-.11-1.03.25s-.1.81.25,1.03c.64.39,1.36.58,2.06.58,1.34,0,2.64-.67,3.39-1.89,0,0,0,0,0-.01l.33,1.55c.07.36.12.72.13,1.07s0,.71-.06,1.06h0c-.36,2.52-2.27,4.56-4.75,5.08-2.76.59-5.53-.78-6.75-3.32Zm-.02,7.36c1.23,1.78,3.71,2.65,6.15,2.65.73,0,1.45-.08,2.14-.23,2.47-.54,4.07-1.94,4.49-3.82l.06.02c.17,3.43-4.14,6.77-5.42,7.68-1.36-.71-5.98-3.26-7.67-6.17l.26-.13Zm-9.11,12.13c1.64-6.66,4.55-9.5,6.05-10.55l1.47-.76c2.2,3.85,8.46,6.89,8.74,7.03.1.05.21.07.32.07.14,0,.28-.04.41-.12.27-.18,6.15-4.04,6.44-8.64l3.02,1.1c1.13.41,2.06,1.16,2.7,2.17l2.77,8.62,2.05,5.86c-1.32.42-2.95.85-3.8.89-.53-1.49-2.26-6.23-3.73-9.25-.02-.18-.05-.36-.09-.54-.09-.41-.49-.66-.89-.58-.41.09-.66.48-.58.89.04.17.06.34.08.44,0,0,0,.01,0,.02,0,.03,0,.05.01.08,0,.03,0,.06.01.09.53,4.09-1.02,6.93-2.77,9.4-2.02,2.84-1.74,5.33-1.71,5.58.03.25-.06.6-.23.98-.91-.51-1.5-.24-1.84.14-.76.79-.65,1.5-.34,2.09-.86.41-1.66.26-2.58-.49-.03-.03-.07-.05-.1-.07-.27-.15-.49-.31-.66-.43-.44-.33-1.02-.44-1.56-.29-.91.26-3.15.72-4.23-.59-1.29-1.55-.79-2.9-.56-3.34.84-1.35,1.54-2.11,1.56-2.12.22-.23.27-.57.12-.86l-.34-.66c-1.48-2.92-2.32-6.05-2.49-9.31-.02-.37-.31-.67-.68-.71-.37-.03-.71.2-.8.56l-2.78,10.9c-.99-.1-2.94-.35-4.29-.89.37-2.27.77-4.63,1.28-6.71Zm4.03,18.69c-1.3.37-4.71,1.41-7.78,2.89,3.16-3.91,6.59-8.78,7.92-12.61.02-.05.05-.09.07-.14l2.04-8c.45,2.08,1.16,4.09,2.14,6.01l.11.21c-1.07,1.28-4.18,5.5-4.5,11.64Zm-19.36,3.03s-.03,0-.05,0c.05,0,.1-.02.15-.04-.03.02-.06.03-.1.04Zm2.85-6.41s-.05.06-.07.1l-.6.89c-.07.07-.12.14-.16.23l-1.83,2.72-.78-2.52v-.12c-.01-.12,0-.22.03-.32.01-.04.03-.08.05-.11.1-.19.12-.41.06-.61-.07-.2-.22-.36-.42-.45-.23-.1-.39-.31-.44-.56-.07-.42.22-.81.63-.88.2-.03.36.03.47.09.26.21.3.45.3.45h0c.02.4.35.71.75.71.01,0,.02,0,.04,0,.41-.02.73-.37.71-.78,0-.08-.06-.71-.59-1.29l.06-.56c.04-.37.08-.77.12-1.11.78-3.4,4.09-3.5,4.23-3.5.04,0,.08,0,.12-.01.17-.03.46-.05.58.07.15.16.25.65.06,1.53-.24,1.08-.84,2.35-1.19,2.86,0,0,0,0,0,0l-2.13,3.16Zm3.22.28c-.22.37-.43.77-.64,1.16-.13-.56-.48-.97-.89-1.25l.84-1.24c.18.12.34.31.3.57-.05.32.12.62.39.77Zm-.58,4.42c1.11-2.57,2.5-4.88,4.11-6.86.78-.96,1.45-1.65,1.99-2.04,1.36-.98,1.95-2.1,2.2-2.9,1.36.48,3.05.73,4.1.85-1.94,4.89-7.3,11.62-10.67,15.36-.02.02-.04.03-.06.05-.01.01-.02.03-.03.05-.7.77-1.29,1.4-1.76,1.86-.22-.37-.53-.78-.99-1.12-.34-.26-.65-.42-.94-.52l2.05-4.72Zm-1.77,10.17c.15.67-.5,1.73-.74,2.04-.14.19-.19.43-.13.65l.44,1.61c-.24-.43-.45-.98-.62-1.65-.1-.4-.51-.65-.91-.54-.21.05-.38.2-.47.38-.12-.06-.24-.09-.38-.08-.41.04-.72.4-.68.81.02.2.06.42.12.65-.08-.04-.17-.07-.27-.07-.29,0-.58.15-.71.42-.27.55-.26,1.24.06,2.12-1.17-2.29-.06-7.06,3.27-10.43.14.02.41.09.78.37.46.35.69.8.79,1.08-.3.51-.78,1.55-.54,2.65Zm7.2,2.48c-.2.04-.82.15-1.1.7-.33.67.04,1.37.77,2.78.28.53.61,1.17.99,1.95,1.54,3.2,1.85,8.24,1.69,10.66-.13,1.93.83,3.74,1.6,5.2.35.67.69,1.29.74,1.65.05.28.1.63.04.71-.15.2-.89.51-3.54.84l-1.05.13c-3.79.47-8.09,1.01-9.5.31-.16-.08-.44-.25-.49-.44-.04-.16.03-.51.58-1.24.77-1.02,3.17-1.36,5.42-1.56.69-.06.72-.06,1.23-.13l.74-.1c.39-.05.73-.27.93-.61.2-.34.22-.74.07-1.1-.2-.5-.48-1.13-.8-1.88-1.31-3.04-3.46-8.04-4.87-13.12.12-.07.24-.15.33-.24.74.14,1.31-.07,1.54-.6.15-.33.12-.72-.07-1.1-.26-.51-.78-.96-1.39-1.21l-.4-1.45c.37-.58,1.04-1.81.79-2.96-.14-.65.26-1.41.46-1.7.45-.38,1.37-1.31,2.55-2.61,0,0,.02,0,.02-.02,3.16-3.17,11.97-5.52,12.06-5.54.32-.08.55-.37.56-.71.06-2.58.68-4.82,1.44-6.63.19.47.47.95.88,1.45.54.66,1.23,1.03,1.95,1.23-.48,4.32.68,8.81,1.39,11.01-1.05-.23-2.17-.31-3.01.07-.85.39-1.53,1.06-2.24,1.78-.55.55-1.12,1.12-1.81,1.59-.67.45-1.1.79-1.46,1.08-.88.24-5.76,1.57-7.05,1.8Z"/>
  <path d="m59.77,54.58c1.05,0,2.11-.42,2.89-1.24.28-.3.27-.78-.03-1.06s-.78-.27-1.06.03c-.93.99-2.49,1.04-3.46.12-.3-.29-.78-.27-1.06.03-.29.3-.27.78.03,1.06.76.72,1.72,1.07,2.69,1.07Z"/>
  <path d="m69.36,54.35c1.05,0,2.1-.41,2.88-1.24.28-.3.27-.78-.03-1.06s-.78-.27-1.06.03c-.93.99-2.5,1.03-3.49.09-.3-.29-.78-.27-1.06.03-.29.3-.27.78.03,1.06.77.73,1.75,1.08,2.73,1.08Z"/>
  <path d="m60.93,33.93c.63.39,1.34.58,2.06.58.31,0,.62-.04.94-.11,1.03-.25,1.9-.88,2.45-1.79.22-.35.1-.81-.25-1.03-.35-.22-.82-.11-1.03.25-.71,1.16-2.23,1.53-3.39.82-.35-.22-.82-.1-1.03.25-.22.35-.1.81.25,1.03Z"/>
  <path d="m61.68,31.27c.34.21.71.31,1.1.31.17,0,.33-.02.5-.06.55-.13,1.01-.47,1.31-.95.22-.35.1-.81-.25-1.03s-.81-.1-1.03.25c-.08.14-.22.24-.38.27-.16.04-.32.01-.46-.07-.35-.22-.81-.11-1.03.25-.22.35-.1.81.25,1.03Z"/>
  <path d="m62.74,23.63c-.12-.54-.4-1-.75-1.23-.23-.15-.47-.2-.71-.15-.35.07-.62.35-.75.77-.1.32-.11.7-.02,1.09.08.38.25.73.46.98.24.27.52.42.81.42.06,0,.12,0,.18-.02.64-.14.97-.93.77-1.85Zm-.99.82c-.08-.08-.2-.27-.26-.56-.06-.29-.03-.5.01-.61.08.08.2.27.26.56h0c.06.29.03.51-.01.62Z"/>
</svg>