<?xml version="1.0" encoding="UTF-8"?>
<svg id="icons" xmlns="http://www.w3.org/2000/svg" viewBox="0 0 120 120">
  <path d="m46.56,87.86l1.88,1.03c.41.22.86.33,1.31.33.66,0,1.31-.24,1.82-.69,1.21-1.07,2.74-2.89,3.42-3.79.54-.71,1.69-.36,3.63.54,8.92,4.13,22.44,4,24.92,1.58.84-.82,1.69-1.85,1.57-3.23-.17-2.07-2.42-4.43-7.79-8.17l-7.06-4.49c-.18-.94-.88-3.54-3.21-6.71-.03-.51,0-2.18,1.4-4.15.24-.35.51-.7.78-1.06.21-.28.42-.59.64-.88.63.33,1.28.65,1.99.97,2.2.99,3.89,1.48,5.2,1.48.79,0,1.43-.18,1.97-.52,1.04-.67,1.55-1.92,1.55-3.81,0-5.23-5.26-12.97-5.48-13.3-.08-.11-.19-.19-.32-.25-.76-.98-1.78-1.76-2.96-2.18l-.15-.05c.66-.36,1.15-.95,1.4-1.73.26-.83.21-1.76-.14-2.62-.29-.69-.74-1.26-1.28-1.66,1.19-3.3,3.15-10.32,1.86-11.32-.32-.25-.74-.24-1.09,0-.22.16-.47.38-.72.64,1.35-7.26.85-7.55.4-7.81-.25-.15-.65-.19-1,.11-.4.35-.9,1-1.38,1.68.09-3.98-.46-4.25-.81-4.42-.34-.17-.73-.1-1.03.17-.67.6-1.49,2.32-2.05,3.65-3.77-7.33-5.24-8.18-5.94-8.13-.7-.05-2.17.8-5.94,8.13-.56-1.33-1.38-3.05-2.05-3.65-.3-.27-.69-.33-1.03-.17-.35.17-.9.44-.81,4.42-.47-.68-.97-1.33-1.38-1.68-.36-.31-.75-.26-1-.11-.45.26-.95.56.4,7.81-.25-.26-.5-.48-.72-.64-.35-.25-.8-.23-1.11.05-1.31,1.21.66,9.63,2.74,13.49-.18.25-.35.52-.47.83-.75,1.82-.07,3.84,1.51,4.49.11.05.23.07.34.1-5.23,3.13-5.83,10.04-5.88,10.89-.53,2.2-.93,4.58-1.33,7.03,0,.03,0,.05,0,.07,0,.02-.01.03-.01.05,0,.06-.02,1.4-1.67,2.59-2.12,1.53-5.01,6.2-5.08,6.32l-2.11,2.63c-4.42,1.61-4.7,5.13-4.45,6.25.05.22,0,.53-.03.83-.07.5-.14,1.06.22,1.51.04.04.08.09.14.14-.66,1.43-.76,2.73-.27,3.66.3.56.95,1.25,2.37,1.35,1.46,5.19,4.62,12.55,6.35,16.57.31.71.56,1.31.75,1.76-2.55.32-3.88.36-4.26.29-2.27-.42-3.4.28-4.21,2.58l-.1.29c-.41,1.11-.58,1.98.9,3.07.95.7,2.95.91,4.98.91,2.17,0,4.38-.24,5.37-.36,2.57-.32,4.29-1.03,5.11-2.13.45-.6.63-1.31.51-2.05-.09-.58-.45-1.25-.87-2.04-.65-1.23-1.46-2.76-1.37-4.19.18-2.57-.15-7.62-1.76-10.96-.37-.77-.7-1.4-.97-1.92-.24-.46-.49-.93-.61-1.23.71-.14,2.13-.5,3.5-.86-.17.28-.26.57-.25.89.02,1.06,1.09,1.7,1.22,1.78Zm22.26-16.33c.03.22.15.43.34.55l7.32,4.65c4.67,3.25,7.01,5.55,7.13,7.04.05.62-.26,1.19-1.12,2.04-1.9,1.84-14.93,1.98-23.24-1.87-1.62-.75-4.08-1.89-5.45-.08-.69.91-2.15,2.62-3.22,3.57-.39.35-.96.41-1.41.16l-1.86-1.02c-.21-.12-.46-.38-.46-.5,0-.05.09-.23.49-.49.91-.58,1.4-.97,1.94-1.42.36-.29.76-.62,1.42-1.06.77-.53,1.39-1.15,1.94-1.7.62-.61,1.15-1.14,1.72-1.41.54-.25,1.67-.13,3.08.34.03.01.05.01.08.02.02,0,.04.01.07.02.05.01.09.02.14.02.02,0,.03,0,.05,0,.04,0,.08,0,.12,0l2.01-.32,2.54.76c.1.03.21.04.32.02.03,0,2.81-.4,6.11-.53h3.83c3.15.12,5.46.64,6.68,1.5.13.09.28.14.43.14.24,0,.47-.11.61-.32.24-.34.16-.81-.18-1.04-1.48-1.04-4-1.64-7.51-1.78h-3.89c-2.99.12-5.47.44-6.13.52l-2.16-.65c-.15-.61-.34-1.91.51-2.85,1.49-1.67,2.56-4.44,2.67-6.8.33-.1.66-.24,1-.44,1.1-.66,1.7-1.4,2.02-2.07,1.79,2.88,2.07,4.98,2.07,5.01Zm-9.81,7.16l-.76.12c-.55-1.58-1.96-6.24-1.51-10.57.97,0,1.86-.21,2.36-.36.56.44,1.72,1.19,3.11,1.31-.15,1.98-1.07,4.29-2.29,5.66-1.14,1.28-1.1,2.87-.92,3.84Zm14.81-34.72s.04.06.06.09c0,0,.02.04.02.04.07.11.17.2.27.26,1.15,1.79,4.88,7.89,4.88,11.94,0,1.33-.29,2.19-.86,2.56-.92.59-2.85.24-5.74-1.06-.89-.4-1.71-.81-2.47-1.22-1.01-.55-1.93-1.13-2.74-1.7-1.21-.86-1.74-1.44-1.74-1.45-.05-.06-.11-.11-.18-.15-1.82-1.07-2.36-2.69-2.5-3.85.13.45.39.82.78.99.2.09.89.31,1.57-.54.51-.64.67-1.97.47-3.95-.09-.75-.22-1.45-.37-1.98.28.24.56.54.73.88.45.92.7,1.88.96,3.65.26,1.85.12,2.45.08,2.57-.11.16-.16.35-.13.55.04.25.21.47.44.58.1.04,2.43,1.06,4.12,1.5,0,0,.01,0,.02,0,0,0,0,0,0,0,0,0,0,0,0,0,.15.04.3.07.45.11l.3.06c1.1.22,1.66.34,2.06-.15.39-.47.15-1.06.02-1.41-.17-.46-.83-1.53-1.95-3.17,0,0,0,0,0,0,0,0,0,0,0,0,0,0,0,0,0,0l-.36-.52c-.24-.34-.7-.42-1.04-.19-.21.15-.32.38-.32.62,0,.15.04.3.13.43l.26.37c.12.75.14,1.48.05,2.2-.91-.29-1.89-.68-2.5-.93.09-.65.05-1.58-.12-2.79-.27-1.89-.56-2.99-1.06-4.04.71-1.08,1.06-2.13,1.09-3.28l2.82,1.02c1,.36,1.88,1.05,2.52,1.99Zm-21.07-8.54c-.34-.14-.7-.19-1.06-.19v-9.15c0-2.38,1.94-4.32,4.32-4.32h8.73c1.89,0,3.43,1.54,3.43,3.43v9.13c-1.2.84-1.66,2.59-1,4.2h0c.06.16.15.3.23.45l-.45-.16c-.11-.04-.21-.09-.28-.12-.55-.3-.96-.79-1.14-1.38l-.09-.32c1.13-1.29,1.82-2.97,1.82-4.81v-7.06c0-1.38-1.12-2.49-2.49-2.49h-9.62c-1.37,0-2.49,1.12-2.49,2.49v7.06c0,2.47,1.23,4.65,3.11,5.97-.08.82-.5,1.56-1.2,2.01-.03.02-.06.04-.08.06-.1.06-.2.11-.29.15l-.21.09c.11-.18.2-.36.29-.56.75-1.82.07-3.84-1.51-4.49Zm13.66,7.52c-.21-.19-.4-.35-.58-.48.56-.6.94-1.29,1.12-2.06h.01c.07.91-.1,1.72-.55,2.54Zm-7.17-13.31c-.3-.29-.77-.27-1.06.03-.88.93-2.36.97-3.3.09-.2-.19-.48-.24-.74-.16v-4.47c0-.55.45-.99.99-.99h9.62c.55,0,.99.45.99.99v4.5c-.3-.27-.76-.26-1.04.04-.88.93-2.36.97-3.3.09-.3-.28-.77-.27-1.06.03-.28.3-.27.78.03,1.06.74.7,1.69,1.05,2.63,1.05,1,0,1.99-.39,2.74-1.16v1.45c0,3.2-2.6,5.8-5.8,5.8s-5.8-2.6-5.8-5.8v-1.11c.69.54,1.51.82,2.34.82,1.02,0,2.03-.4,2.78-1.2.28-.3.27-.78-.03-1.06Zm-2.08,9.29c.86.36,1.8.56,2.79.56,1.6,0,3.08-.53,4.29-1.4.27.65.7,1.21,1.28,1.63-.08.81-.47,1.49-1.15,2.05-.18.02-.33.08-.41.13-.1.06-.23.18-.33.36-1.65.88-4.05,1.03-5.84.34-.66-.26-1.48-.73-1.91-1.55.63-.56,1.08-1.3,1.28-2.11Zm.08,5.06c.93.36,1.99.54,3.05.54,1.18,0,2.36-.22,3.39-.64.01.04.02.07.03.11.14.36.28,1.02.38,1.74-.11.11-.23.23-.35.34-.15-.17-.31-.32-.51-.39-.39-.14-.81-.05-1.14.24-.38.31-.6.97-.72,1.64-1.58-.68-5.33-2.56-6.48-5.27.55.72,1.34,1.3,2.34,1.69Zm15.28,8.38c.01-.07.02-.14.03-.22.05.09.11.18.15.26-.06-.01-.12-.02-.17-.04h-.01Zm-.9-14.04c-.14.45-.42.78-.8.93-.37.15-.8.12-1.22-.1-.46-.24-.83-.67-1.05-1.21-.44-1.06-.12-2.19.69-2.53.16-.06.32-.09.49-.09.7,0,1.44.55,1.79,1.4.22.54.26,1.1.1,1.6Zm.79-13.09c-.16,1.72-.85,5.11-2.16,8.65-.2-.04-.39-.05-.59-.05v-7.17c.05.23.2.44.43.54.32.14.7.04.91-.24.26-.35.85-1.11,1.41-1.74Zm-25.07,0c.56.63,1.16,1.39,1.42,1.75.21.28.58.38.91.24.32-.14.5-.49.43-.83-.57-2.83-1.1-5.93-1.32-7.79.6.88,1.22,1.91,1.51,2.41.17.3.53.45.87.35.33-.1.55-.42.53-.77-.11-1.69-.16-3.63-.1-4.86.54,1.01,1.17,2.48,1.57,3.56.11.28.37.47.66.48.3.03.58-.15.71-.42,1.91-3.83,4.45-8.18,5.34-8.75,0,0,0,0,0,0,0,0,0,0,0,0,.89.57,3.43,4.92,5.34,8.75.13.27.42.44.71.42.3-.02.56-.21.66-.49.41-1.08,1.04-2.56,1.57-3.56.06,1.23,0,3.17-.1,4.86-.02.35.2.67.53.77.33.1.69-.04.87-.35.29-.5.91-1.53,1.51-2.41-.22,1.86-.75,4.95-1.32,7.77v-1.17c0-2.72-2.21-4.93-4.93-4.93h-8.73c-3.21,0-5.82,2.61-5.82,5.82v9.56s-.04.03-.07.04c-1.82-3.47-2.67-8.27-2.78-10.45Zm2.56,12.89c.26-.64.74-1.11,1.26-1.3.02,0,.05,0,.07-.02.15-.05.31-.09.46-.09.17,0,.33.03.48.09.82.34,1.13,1.47.69,2.53-.44,1.06-1.46,1.64-2.27,1.31-.82-.34-1.13-1.47-.69-2.53Zm-3.95,15.2s.02-.09.02-.14c0-.08.45-8.3,6.71-10.5.02,0,.07-.03.09-.04,0,0,0,0,0,0h.02s.54-.25.54-.25c1.28,3.93,6.69,6.26,7.97,6.77.08,1.31.55,3.35,2.48,4.85-.07.04-.14.08-.2.14-.29.3-.27.78.03,1.06.75.71,1.65,1.08,2.56,1.08.15,0,.3-.03.44-.05.58.41,1.23.81,1.91,1.21-.18.24-.35.49-.52.72-.28.37-.55.74-.79,1.09-2.02,2.84-1.67,5.31-1.64,5.49.01.06.31,1.4-1.63,2.57-1.98,1.19-4.07-.75-4.15-.83-.21-.2-.51-.26-.78-.16-.03.01-3.14,1.16-4.46-.42-1.17-1.41-.8-2.63-.54-3.16.81-1.29,1.48-2.03,1.5-2.04.22-.23.27-.57.13-.86l-.32-.64c-1.42-2.79-2.22-5.79-2.39-8.92-.02-.37-.31-.67-.68-.71-.37-.04-.71.2-.8.56l-2.66,10.43c-.95-.09-2.78-.33-4.06-.84.37-2.24.74-4.42,1.23-6.41Zm3.81,17.9c-1.69.51-6.98,2.22-10.2,4.57-.06-1.44.28-1.7,2.13-3.08.46-.34.99-.74,1.61-1.22,1.39-1.09,5.55-5.17,6.72-9.67,0,0,0-.01.01-.02l.06-.24s0,0,0-.01c0,0,0,0,0,0l1.86-7.3c.43,1.95,1.11,3.84,2.02,5.64l.09.19c-1.04,1.25-3.99,5.28-4.31,11.15Zm-18.55,12.2c-.3-.57-.09-1.65.54-2.79.13-.06.26-.14.38-.24.71-.6.94-1.74,1.01-2.59.05-.65.71-1.13.71-1.13.34-.23.43-.7.19-1.04s-.7-.43-1.04-.19c-.13.09-1.25.89-1.36,2.25-.05.68-.21,1.17-.36,1.42,0-.03,0-.06.01-.08.05-.39.12-.87,0-1.36-.15-.65.04-3.33,3.68-4.57.14-.05.25-.13.34-.24l2.3-2.88s2.85-4.61,4.74-5.96c1.3-.94,1.86-2,2.11-2.77,1.32.46,2.94.7,3.94.81-1.18,3.59-4.49,7.06-6.02,8.26-.61.48-1.13.87-1.58,1.2-2.41,1.8-2.92,2.28-2.67,5.27.06.79-.25,1.52-.52,2.01-.22.39-.42.78-.58,1.18-.37.88-.77,1.58-1.22,2.16l-.28.36c-.81,1.02-1.98,1.58-3.14,1.51-.9-.06-1.1-.43-1.16-.55Zm10.48,1.18c-.2.03-.8.14-1.07.69-.32.66.03,1.34.74,2.69.27.51.59,1.12.95,1.87,1.47,3.06,1.77,7.89,1.61,10.21-.13,1.86.8,3.6,1.54,5,.34.64.66,1.24.71,1.57.05.34-.02.63-.23.91-.32.43-1.28,1.19-4.1,1.54-5.01.62-8.46.33-9.28-.27-.69-.51-.68-.52-.38-1.34l.11-.31c.56-1.6,1.01-1.89,2.52-1.61.71.13,2.42.03,5.08-.32.39-.05.72-.27.91-.6.19-.33.22-.73.07-1.08-.19-.47-.5-1.19-.9-2.11-1.69-3.92-4.75-11.04-6.21-16.12,1.11-.28,2.15-.95,2.92-1.93l.28-.36c.54-.68,1-1.5,1.42-2.51.14-.34.31-.68.5-1.01.25-.45.52-1.07.65-1.77,3.13-2.97,11.06-5.22,11.14-5.24.32-.09.54-.38.55-.7.06-2.44.64-4.56,1.35-6.28.18.43.44.88.81,1.33.52.63,1.18.99,1.86,1.18-.44,4.11.65,8.36,1.32,10.49-1-.21-2.06-.28-2.86.08-.82.37-1.47,1.02-2.16,1.71-.53.53-1.08,1.07-1.73,1.52-.63.42-1.05.76-1.4,1.04-.86.23-5.51,1.51-6.75,1.73Z"/>
  <path d="m57.06,56.47s.08,0,.12,0c1.02-.03,1.97-.46,2.67-1.2.29-.3.27-.78-.03-1.06-.3-.28-.78-.27-1.06.03-.43.45-1.01.71-1.63.73-.61.02-1.2-.2-1.65-.62-.3-.28-.77-.27-1.06.03-.28.3-.27.78.03,1.06.71.67,1.63,1.04,2.6,1.04Z"/>
  <path d="m59.95,35.82c-.63.03-1.22-.21-1.67-.64-.3-.28-.77-.27-1.06.03-.28.3-.27.78.03,1.06.72.68,1.65,1.05,2.63,1.05.04,0,.07,0,.11,0,1.02-.03,1.97-.45,2.68-1.2.29-.3.27-.78-.03-1.06-.3-.28-.78-.27-1.06.03-.43.45-1.01.71-1.63.73Z"/>
  <path d="m58.46,32.86c-.29.3-.27.78.03,1.06.38.37.88.56,1.41.56.02,0,.04,0,.06,0,.55-.01,1.06-.24,1.44-.64.29-.3.27-.78-.03-1.06-.3-.28-.77-.27-1.06.03-.1.11-.24.17-.39.17-.15,0-.29-.05-.4-.15-.3-.29-.78-.27-1.06.03Z"/>
  <path d="m61.29,26.94c0-1.06-.59-1.85-1.36-1.85s-1.36.8-1.36,1.85.59,1.86,1.36,1.86,1.36-.8,1.36-1.86Z"/>
  <path d="m60.08,19.5c1.18,0,2.11-1.18,2.11-2.69s-.93-2.69-2.11-2.69-2.11,1.18-2.11,2.69.93,2.69,2.11,2.69Zm0-3.87c.24,0,.61.47.61,1.19s-.37,1.19-.61,1.19-.61-.47-.61-1.19.37-1.19.61-1.19Z"/>
</svg>