<?xml version="1.0" encoding="UTF-8"?>
<svg id="icons" xmlns="http://www.w3.org/2000/svg" viewBox="0 0 120 120">
  <path d="m58.99,35.46c-.3-.28-.78-.26-1.06.04-.28.3-.26.78.04,1.06.78.72,1.78,1.08,2.78,1.08,1.07,0,2.15-.41,2.94-1.23.29-.3.28-.77-.01-1.06-.3-.29-.77-.28-1.06.01-.97,1-2.6,1.04-3.63.09Z"/>
  <path d="m60.31,33.01c-.3-.28-.78-.26-1.06.04-.28.3-.26.78.04,1.06.41.38.94.57,1.47.57.57,0,1.13-.22,1.56-.65.29-.3.28-.77-.02-1.06-.3-.29-.77-.28-1.06.01-.25.26-.67.27-.93.02Z"/>
  <path d="m60.79,25.18c-.66,0-1.16.71-1.16,1.65s.5,1.65,1.16,1.65,1.16-.71,1.16-1.65-.5-1.65-1.16-1.65Zm.04,2.32c-.05-.03-.2-.25-.2-.66s.15-.63.12-.66c.05.03.2.25.2.66s-.15.63-.11.66Z"/>
  <path d="m60.96,19.03c1.24,0,2.21-1.22,2.21-2.77s-.97-2.77-2.21-2.77-2.21,1.22-2.21,2.77.97,2.77,2.21,2.77Zm0-4.05c.33,0,.71.56.71,1.27s-.38,1.27-.71,1.27-.71-.54-.71-1.27.37-1.27.71-1.27Z"/>
  <path d="m16.88,90.62s.08.07.09.09c0,0-.04.32-.91.89-.84.55-1.29,1.39-1.23,2.3.06.97.68,1.85,1.62,2.31.45.22.94.33,1.44.33.83,0,1.71-.29,2.54-.86,2.91-1.99,7.55-7.73,8.91-9.46.24.11.49.2.75.27.53.29,1.22.43,2.09.43.27,0,.55-.01.85-.04.26-.02.52-.12.77-.26.81,5.83,5.03,16.51,5.4,17.45-1.26.1-2.39.16-2.72.1-2.26-.41-3.4.27-4.21,2.52l-.1.28c-.4,1.06-.59,1.95.91,3.02.95.68,2.95.88,4.97.88,2.17,0,4.37-.23,5.37-.35l.39-.05c2.23-.26,3.58-.42,4.38-1.46.69-.9.73-2.25.5-4.21,1.54-.42,2.49-.93,2.58-.98.29-.16.44-.5.36-.83-.09-.38-2.2-9.01-7.58-16.38.82-.2,1.88-.47,2.89-.74-.14.25-.22.52-.22.8.02,1.05,1.1,1.68,1.23,1.75l1.88,1c.41.22.85.32,1.3.32.65,0,1.3-.23,1.81-.67.3-.26.64-.61,1.03-1.03.77-.81,1.92-2.02,2.87-2.45-.66,2.39-.69,4.78-.14,6.17.71,1.82,2.67,1.38,4.94.88,2.35-.52,5.27-1.17,8.41-.13,1.59.53,3.18.74,4.71.74,4.67,0,8.71-1.98,10.18-3.01.36-.25.66-.47.89-.66.1-.03.19-.08.27-.16.15-.14.29-.29.43-.44.02-.02.03-.03.04-.03,0,0,0-.01,0-.01.71-.77,1.3-1.69,1.2-2.86-.18-2.16-2.59-4.62-8.35-8.52l-4.33-2.67c-1.85-1.14-3.31-2.83-4.23-4.89-.08-.18-.18-.37-.27-.55,0-.01-.01-.02-.02-.03-.59-1.21-1.33-2.4-2.21-3.56-.03-.52-.01-2.29,1.51-4.36.26-.36.54-.73.83-1.11.24-.31.48-.64.72-.97.66.34,1.38.69,2.18,1.04,2.36,1.03,4.16,1.54,5.56,1.54.85,0,1.55-.19,2.12-.57,1.08-.7,1.6-1.99,1.6-3.93,0-1.33-.35-2.81-.87-4.31-.02-4.99-1.24-6.86-2.33-8.52-.48-.73-.92-1.41-1.25-2.34-.71-2-1.36-3.5-1.93-4.83-.96-2.21-1.65-3.82-1.97-6.27,1.04-3.52,1.79-7.52.81-8.3-.32-.25-.77-.26-1.12,0-.27.19-.58.48-.89.79,1.47-7.69.93-8.01.49-8.28-.25-.15-.65-.2-1.01.1-.46.39-1.05,1.14-1.58,1.91.11-4.29-.48-4.58-.82-4.75-.34-.17-.73-.11-1.04.16-.75.65-1.67,2.58-2.27,3.98-4.07-7.02-5.65-7.79-6.35-7.74-.71-.05-2.29.75-6.35,7.74-.6-1.4-1.53-3.34-2.27-3.98-.31-.27-.7-.33-1.04-.16-.34.17-.93.47-.82,4.75-.54-.77-1.12-1.52-1.58-1.91-.37-.3-.76-.25-1.01-.1-.44.27-.98.59.49,8.28-.31-.32-.62-.6-.89-.79-.36-.25-.81-.22-1.12.07-.97.92-.14,6.49,1.58,11.03-.06,5.68-1.73,9.19-3.21,12.28-.65,1.36-1.26,2.64-1.64,3.95-1.1,3.83.09,7.85.4,8.76-.14.81-.28,1.63-.41,2.43,0,.03,0,.05,0,.07,0,.02,0,.03,0,.05h0c0,.07-.02,1.49-1.82,2.74-2.15,1.52-5.06,5.98-5.46,6.6-1.07,1.12-1.95,2.51-2.73,3.75-.96,1.52-1.95,3.1-2.8,3.16-.3.02-.58.08-.84.15l.03-40.46c.69-.13,1.31-.45,1.83-.87.8.4,1.29.86,1.48,1.4.33.97-.27,2.26-.92,3.49-.88,1.68-.73,2.97-.46,3.76.32.91,1,1.64,1.92,2.05.47.21.43.46.42.55-.04.3-.33.61-.59.64-.41.05-.7.43-.65.84.05.38.37.66.74.66.03,0,.06,0,.09,0,.93-.12,1.74-.94,1.88-1.91.14-.92-.35-1.72-1.3-2.14-.54-.24-.92-.65-1.11-1.17-.25-.71-.12-1.63.37-2.57.79-1.52,1.53-3.14,1.01-4.67-.28-.84-.94-1.53-1.91-2.08.33-.59.54-1.25.54-1.96,0-2.25-1.87-4.07-4.17-4.07s-4.17,1.83-4.17,4.07c0,.79.24,1.53.65,2.16-.79.52-1.32,1.15-1.57,1.89-.52,1.53.22,3.14,1.01,4.67.49.94.62,1.85.37,2.57-.18.53-.57.93-1.11,1.17-.95.42-1.43,1.22-1.29,2.14.14.97.95,1.79,1.89,1.91.03,0,.06,0,.09,0,.37,0,.7-.28.74-.66.05-.41-.24-.79-.65-.84-.26-.03-.54-.34-.59-.64-.01-.09-.05-.35.42-.55.92-.41,1.6-1.13,1.92-2.05.39-1.13.24-2.43-.46-3.76-.64-1.24-1.25-2.52-.92-3.49.16-.48.57-.89,1.21-1.26.51.37,1.11.63,1.77.73l-.03,42.17c-.34.05-.74.23-1.11.68-.38.46-.48,1.17-.32,1.98-1.9,2-4.57,2.19-6.94,2.34-2.11.14-3.93.25-4.84,1.64-.7,1.07-.59,1.91-.37,2.42.54,1.27,2.21,1.74,2.75,1.86Zm30.12,17.48c-.41.53-1.59.67-3.37.88l-.39.05c-5.02.6-8.47.32-9.29-.26q-.67-.48-.38-1.27l.11-.3c.56-1.55,1.01-1.83,2.53-1.55,1.1.2,5.84-.34,6.48-.42.66.08,1.3.13,1.9.13.95,0,1.83-.09,2.62-.22.18,1.63.11,2.54-.21,2.96Zm5.89-21.08c-.37.39-.68.72-.92.93-.39.34-.96.41-1.43.16l-1.87-1c-.19-.1-.45-.36-.45-.47,0-.03.08-.21.48-.45.92-.57,1.4-.95,1.94-1.38.35-.28.75-.6,1.42-1.03.77-.52,1.39-1.12,1.95-1.66.62-.6,1.15-1.11,1.72-1.37.56-.25,1.72-.12,3.11.34,0,0,.05.02.06.02.05.02.1.03.15.05-.67.83-1.22,1.78-1.64,2.79-1.66.03-3.29,1.76-4.53,3.07Zm8.43,4.17c-2.07.46-3,.6-3.22.04-.8-2.04.04-6.99,2.52-9.58,1.12.31,2.3.55,3.53.71-2.22,3.87-1.91,7.08-1.57,8.56-.44.09-.87.18-1.26.27Zm4.74-.7c-.69.02-1.36.08-2,.17-.3-1.21-.68-4.3,1.75-8.12.55.04,1.11.07,1.67.08-1.96,2.94-1.71,6.27-1.42,7.87Zm20.23-4.28c.05.56-.23,1.1-.89,1.8-.18.16-.6.52-1.31,1.01-1.66,1.15-7.72,4.01-13.56,2.08-1-.33-1.98-.5-2.92-.57-.27-1.32-.73-5.08,1.79-7.92.3-.01.61-.02.91-.03h4.22c3.39.12,5.89.67,7.21,1.57.13.09.28.13.42.13.24,0,.47-.11.62-.33.23-.34.15-.81-.19-1.04-1.58-1.08-4.27-1.7-8.03-1.85h-4.18s-.17.01-.17.01c-.24.01-.47.02-.71.03-.24-.13-.51-.11-.74.03-3.39.05-6.67-.45-9.36-1.43-.01,0-.03,0-.04,0-.01,0-.02-.02-.04-.02-1.27-.42-3.02-.81-4.19-.29-.82.36-1.47.99-2.16,1.66-.53.51-1.08,1.04-1.73,1.48-.64.42-1.06.74-1.4,1.01-.88.24-5.97,1.65-7.21,1.86-.01,0-.02,0-.03.01-.05.01-.1.03-.15.06-.05.02-.09.04-.13.07,0,0-.02,0-.03.02-.03.02-.04.05-.06.07-.04.04-.08.08-.1.12-.02.04-.04.08-.06.13-.02.05-.04.09-.05.14,0,.05,0,.1,0,.15,0,.04,0,.07,0,.1,0,.01.01.02.01.04,0,.04.02.07.04.11.02.06.04.11.08.15,0,.01.01.03.02.04,4.88,6.24,7.26,14,7.85,16.17-1.33.57-5.06,1.84-9.53.48-.79-2.02-4.94-12.81-5.3-17.71,0-.04-.02-.07-.03-.1.66-.79,1.1-1.61,1.11-1.62.23-.43.54-1.08.79-1.82.21-.37.39-.94.5-1.46.9-.82,2.79-1.88,5.49-3.08,1.43,1.12,2.99,1.69,4.65,1.69.22,0,.45-.01.67-.03,2.08-.19,3.98-1.2,5.47-2.29.19.25.4.5.64.72,1.3,1.21,3.23,1.87,5.15,1.87,1.03,0,2.06-.19,2.98-.59.98-.42,1.76-1.05,2.35-1.82,1.93,1.81,4.3,2.68,6.44,2.68.65,0,1.27-.08,1.86-.23,1.44-.37,2.46-1.16,2.91-2.16l2.46,1.52c5.1,3.45,7.54,5.8,7.67,7.38Zm-40.55-31.81s.02-.1.02-.15c0-.08.45-7.7,6.1-10.53-.13,2.22.33,4.6.97,6.89-.09-.05-.19-.09-.29-.1-.36-.04-.71.2-.8.56l-2.86,10.94c-1.01-.1-3.06-.35-4.46-.9.38-2.26.79-4.61,1.32-6.72Zm27.56-17.91c.26.62.28,1.29.05,1.83-.12.28-.36.66-.82.85-.91.37-2.04-.26-2.52-1.39h0c-.26-.62-.28-1.29-.05-1.83.12-.28.36-.66.83-.85.18-.07.36-.1.55-.1.78,0,1.59.58,1.97,1.49Zm-11.15,25.83c-3.34.74-4.67-1.48-5.72-5.29-.07-.24-.15-.52-.24-.78,1.42.93,4.84,1.44,11.11.49.01,0,.03.02.04.03-.45,1.16-2.1,4.87-5.2,5.55Zm.69,1.36c-.66.81-1.32,1.23-1.92,1.18-.55-.04-1.08-.46-1.56-1.14.47.15.99.25,1.57.25.47,0,.98-.06,1.53-.18.13-.03.24-.07.37-.11Zm-8.12-26.29c-.07-.16-.15-.31-.24-.45.52.71,1.17,1.32,1.91,1.8,0,.82-.35,1.34-1.31,1.95-.02.01-.04.03-.06.04-.12.07-.24.13-.36.18l-.38.16c.14-.22.28-.44.38-.69.42-.99.44-2.08.06-2.99Zm12.39-7.61s-.04-.07-.07-.1c-.3-.29-.77-.28-1.06.01-.98,1-2.6,1.04-3.63.1-.3-.28-.78-.26-1.06.04-.28.3-.26.78.04,1.06.78.72,1.78,1.08,2.78,1.08,1.07,0,2.15-.41,2.94-1.23.02-.02.03-.06.05-.08v1.94c0,3.2-2.6,5.8-5.8,5.8h-.97c-3.2,0-5.8-2.6-5.8-5.8v-1.55c.75.6,1.65.91,2.57.91,1.07,0,2.15-.41,2.94-1.23.29-.3.28-.77-.01-1.06-.3-.29-.77-.28-1.06.01-.97,1-2.6,1.04-3.63.09-.22-.21-.54-.25-.8-.14v-4.8c0-.55.45-.99.99-.99h10.59c.55,0,.99.45.99.99v4.92Zm1.25,11.77c-.01.09-.02.17-.04.25-.02.1-.04.21-.07.31-.02.08-.04.17-.07.25-.03.1-.06.2-.1.29-.03.08-.06.16-.09.24-.04.1-.08.19-.12.28-.03.07-.07.15-.1.22-.05.09-.1.18-.15.27-.04.06-.07.13-.11.19-.06.1-.12.19-.18.28-.03.05-.06.1-.09.14-.09.13-.18.26-.27.38-.03.03-.08.08-.14.14-.03.03-.08.07-.12.11-.03.03-.06.06-.1.09-.04.04-.09.08-.13.12-.06.05-.11.11-.18.17-.01.01-.03.02-.04.03-.1.1-.21.2-.33.31,0-.01-.01-.02-.01-.03-.06-.2-.15-.39-.24-.57-.03-.05-.05-.1-.08-.14-.11-.19-.23-.38-.38-.55h0c.2-.1.41-.2.61-.32.99-.7,2.04-1.84,2.41-3.17l.12.04s0,.07,0,.1c0,.09,0,.17,0,.25,0,.11-.01.22-.02.32Zm-13.15.95c.43.69,1.06,1.27,1.86,1.71-.16.17-.3.35-.43.55-.7-.74-1.18-1.5-1.43-2.26Zm8.19,2.26c.5.24.88.66,1.08,1.15h-6.75c.11-.27.28-.52.5-.74.19-.19.41-.34.67-.44.26-.12.56-.18.88-.18h2.32s.01,0,.02,0c0,0,.01,0,.02,0h.3c.34,0,.67.07.97.22Zm-3.7,2.65h2.54c0,.33-.28.6-.62.6h-1.29c-.33,0-.6-.23-.62-.54,0-.02,0-.03,0-.05Zm1.09-4.37l.13-.43.15.43h-.28Zm-3.17,5.35h.84c.03.05.06.1.09.14.03.05.06.1.09.14.04.06.09.11.14.16.04.04.07.09.12.12.05.05.11.09.17.13.05.03.09.07.14.1.06.04.13.07.2.1.05.02.09.05.14.07.08.03.16.05.24.07.04.01.09.03.13.04.13.02.26.04.4.04h1.29c.81,0,1.51-.46,1.86-1.12h.97c-.08.06-.14.14-.19.23-.09.17-.6.6-1.58.88-.78.22-2.83.59-5.1-.72-.19-.11-.41-.12-.61-.05.15-.2.38-.33.65-.33Zm7.44-5.64c-.41.24-.85.42-1.32.55-.34-.13-.69-.21-1.07-.23l-.48-1.4c-.18-.54-.7-.9-1.27-.9s-1.12.39-1.29.95l-.42,1.38c-.21.03-.41.08-.6.15-.7-.25-1.68-.74-2.19-1.67.65-.49,1.21-1.15,1.41-2.14.79.29,1.64.46,2.53.46h.97c1.57,0,3.02-.5,4.21-1.35.3.65.76,1.2,1.35,1.61-.17,1-1.02,2.01-1.83,2.58Zm-11.59.31l.31-.13c.38,1.18,1.16,2.32,2.33,3.4,0,.11-.01.22-.01.33,0,.24.12.45.3.58-.65.4-1.08,1.11-1.08,1.91v1.43c0,1.25.45,2.39,1.21,3.28-.13.02-.24.04-.34.09-.24.1-.42.26-.56.45-.03-.08-.05-.16-.08-.25-1.15-3.44-2.55-7.68-2.08-11.1Zm7,8.72l-.21.06c-1.29.38-1.71,1.22-1.55,1.88,0,.02.01.03.02.04-1.15-.63-1.91-1.83-1.91-3.18v-.53s.01.02.02.02c1.31.75,2.77,1.14,4.2,1.14.7,0,1.39-.09,2.05-.28,1.06-.3,1.88-.8,2.32-1.38v.94c0,.15,0,.31-.03.46-2.22-.03-4.07.56-4.92.82Zm6.45-2.63c0-.66-.28-1.26-.75-1.67.86-.78,1.69-1.56,1.97-1.86.21-.27.39-.55.57-.83.13,3.3-.05,5.52-.19,6.64-.52-.17-1.08-.28-1.64-.36.02-.2.04-.39.04-.59v-1.34Zm1.74-10.79c.22.51.53.95.89,1.32l-.18-.06s0,0,0,0c0,0,0,0,0,0l-1.01-.35c-.11-.04-.21-.09-.31-.13-.03-.02-.06-.04-.1-.06-.56-.32-.98-.82-1.17-1.42-.02-.05-.05-.09-.07-.13,1.19-1.3,1.93-3.03,1.93-4.93v-7.75c0-1.37-1.12-2.49-2.49-2.49h-10.59c-1.38,0-2.49,1.12-2.49,2.49v7.75c0,1.49.45,2.88,1.22,4.03-.32-.4-.72-.72-1.19-.91-.38-.15-.77-.21-1.16-.2v-9.6c0-2.51,2.1-4.54,4.69-4.54h9.37c2.06,0,3.74,1.62,3.74,3.62l.05,8.94c-.52.33-.93.81-1.18,1.41-.38.92-.36,2.01.06,2.99Zm-18.65.15c.29-.68.81-1.18,1.39-1.39.02,0,.05,0,.07-.01.17-.05.34-.09.52-.09.19,0,.37.03.55.1.47.19.71.56.83.85.23.55.21,1.21-.05,1.83h0c-.48,1.13-1.61,1.76-2.52,1.39-.47-.19-.71-.56-.83-.85-.23-.54-.21-1.21.05-1.83Zm.12,24.75s0,0,0-.01l.07-.24s0,0,0,0h0s0,0,0,0l2.06-7.88c.46,2.12,1.2,4.17,2.23,6.12l.11.2c-.31.37-.8.98-1.34,1.8-.02.02-.04.06-.06.09,0,0,0,0-.01.01-.01.02-.02.03-.03.05h0s0,0,0,0c-.99,1.55-1.76,3.21-2.3,4.92-.02.04-.03.08-.04.13-.07.24-.16.48-.23.72-.7,2.58-2.49,4.62-4.93,5.58-1.02.4-1.94.79-2.81,1.16,0,0,0,0-.01,0-2.19.95-3.9,1.83-5.09,2.6.25-1.37,1.45-2.35,4.22-4.45l.95-.72c1.5-1.14,5.96-5.4,7.2-10.09Zm3.76,5.3c1.92,2.03,4.6,2.58,6.93,2.58,2.62,0,4.81-.7,4.97-.75.05-.02.1-.04.15-.07,1.22-.72,1.86-1.52,2.2-2.24.34.52.65,1.05.93,1.58-1.38,2.24-5.49,3.84-9.4,3.62-.83-.05-1.9-.2-2.99-.58-.01,0-.02-.01-.04-.01-.74-.26-1.48-.64-2.16-1.16,0,0-.01,0-.02-.01-.87-.68-1.63-1.6-2.12-2.87.17-.53.36-1.05.58-1.56.2.48.51.98.98,1.48Zm10.69,5.68s-.01-.02-.02-.02c0,0,.02,0,.02,0,0,.01,0,.02,0,.03Zm-12.89-3.61c.4.63.87,1.2,1.42,1.69-.31,1.13-.29,2.2.04,3.16-1.34,1.01-3.05,1.97-4.88,2.13-1.26.11-2.46-.18-3.57-.86.49-.2,1-.41,1.53-.62,2.53-1,4.48-2.98,5.47-5.51Zm2.75,2.65c.24.14.48.29.73.42-.21.21-.46.46-.74.72-.05-.34-.05-.72.01-1.14Zm2.25.99c.89.27,1.86.44,2.89.5.28.02.56.02.85.02.88,0,1.77-.08,2.62-.23.28.47.58.91.9,1.31-.53.8-1.25,1.29-1.91,1.58-2.08.9-4.94.46-6.51-1-.17-.16-.34-.35-.49-.56.75-.65,1.31-1.24,1.65-1.62Zm17.65,1.89l.55.34c-.21.78-1.12,1.28-1.98,1.51-1.8.46-4.82.08-7.17-2.33.24-.61.38-1.28.43-2.01,1.5-.63,2.78-1.48,3.65-2.49,1.05,2.08,2.6,3.8,4.53,4.99Zm-4.79-16.69c-.3.39-.58.77-.85,1.13-2.13,2.89-1.8,5.42-1.75,5.71,0,0,0,0,0,0,0,0,0,.01,0,.02,0,.01.34,1.41-1.7,2.65-.75.23-7.03,1.97-10.27-1.46-1.29-1.37-.89-2.68-.52-3.38.01-.02.03-.04.04-.05.84-1.29,1.53-2.01,1.54-2.02.23-.23.28-.58.13-.87l-.35-.66c-1.38-2.63-2.21-5.45-2.49-8.38.27.85.54,1.68.8,2.46.34,1.02.67,1.99.88,2.79.33,1.22.85,3.09,1.95,4.52.79,2.67,2.19,4.28,3.87,4.41.07,0,.14,0,.22,0,1.19,0,2.86-.77,4.42-4.11,1.7-1.45,2.7-3.47,3.17-4.58.15.1.3.21.45.31.1.07.19.13.29.2.18.12.36.24.55.36.07.04.13.09.2.13,0,0,.02.01.03.02-.2.27-.4.53-.59.78Zm10.95.7c-1,.66-3.11.29-6.26-1.1-.99-.43-1.88-.86-2.65-1.28-.92-.48-2.1-1.35-2.96-1.98-.26-.19-.49-.36-.67-.49-.07-.05-.15-.08-.24-.11-.02,0-.05,0-.07-.01-.04,0-.08-.02-.12-.02s-.08,0-.12,0c-3.27.51-5.6.6-7.24.5.61.02,1.12-.03,1.54-.16,2.13-.65,3.05-1.02,2.83-1.9-.16-.65-1.12-.88-2.84-.68,1.01-.28,2.55-.62,4.24-.5,0,0,0,0,0,0,0,0,0,0,0,0,1.04.06,2,.29,2.86.68,0,0,0,0,0,0s0,0,0,0c.11.04,2.61,1.11,4.42,1.57.02,0,.05,0,.07,0,.01,0,.02.01.04.02.14.03.27.06.4.09l.33.06c.56.11.99.2,1.33.2.36,0,.61-.09.82-.35.39-.47.15-1.08,0-1.44-.24-.63-1.28-2.16-2.11-3.33,0,0,0,0,0,0,0,0,0,0,0,0l-.13-.17c-.04-.07-.09-.13-.16-.22-.02-.03-.04-.07-.06-.1l-.02-.03c-.24-.34-.69-.41-1.03-.18-.34.24-.42.72-.18,1.06.02.03.03.05.04.06l.22-.15s-.02.08-.02.12l-.13.13s.09.12.09.12c.03.04.04.06.07.1.13.81.15,1.59.05,2.35-1.06-.33-2.22-.78-2.88-1.05.2-1.33.55-4.81.04-10.58l3.05,1.07c1.09.39,2.05,1.11,2.71,2.07l.05.07c.04.06.07.1.11.15,2.67,3.89,5.51,9.26,5.51,12.71,0,1.4-.3,2.27-.92,2.68Zm-6.2-6.75c.02-.13.04-.27.05-.41.12.19.21.34.29.47-.09-.02-.19-.04-.28-.05h-.06Zm2.76-10.6c.39,1.1.91,1.89,1.41,2.66.57.87,1.15,1.76,1.55,3.17-1.13-2.12-2.3-3.89-2.89-4.75-.01-.02-.02-.02-.04-.04-.02-.04-.04-.08-.07-.11l-.06-.08c-.82-1.18-2.03-2.1-3.42-2.59l-1.03-.36c.2-.03.4-.08.6-.16.74-.3,1.33-.89,1.65-1.66.15-.36.22-.76.25-1.16.05.12.1.24.16.36.57,1.31,1.21,2.79,1.9,4.73Zm-3.29-8.28c-.08-.07-.16-.14-.24-.21.03-.08.06-.16.09-.25.04.16.09.31.14.46Zm-24.89-7.69c.21.28.59.37.91.23.32-.15.5-.49.42-.83-.63-3.05-1.22-6.41-1.44-8.33.69.95,1.42,2.14,1.75,2.69.18.3.54.44.87.34.33-.1.55-.42.53-.77-.13-1.86-.17-3.98-.1-5.26.6,1.05,1.33,2.7,1.79,3.9.1.27.36.46.65.48.31.02.57-.13.71-.38,2.08-3.71,4.85-7.85,5.75-8.29.02,0,.04,0,.06,0,.02,0,.04,0,.06,0,.9.44,3.67,4.59,5.75,8.29.14.25.41.4.71.38.29-.02.54-.21.65-.48.46-1.19,1.19-2.84,1.79-3.9.08,1.28.03,3.4-.1,5.26-.02.35.19.67.53.77.33.1.69-.04.87-.34.33-.56,1.06-1.74,1.75-2.69-.22,1.92-.81,5.28-1.44,8.33-.07.34.1.69.42.83.32.14.7.05.91-.23.31-.41,1.04-1.32,1.69-2.01-.1,1.64-.75,5.06-2.15,8.77-.31-.09-.62-.11-.93-.11l-.05-8.51c0-2.82-2.35-5.12-5.24-5.12h-9.37c-3.41,0-6.19,2.71-6.19,6.04v10c-.05.03-.1.06-.15.09-.4-.74-.76-1.54-1.08-2.37,0,0,0-.01,0-.02-1.27-3.29-1.86-6.96-1.94-8.73.64.68,1.34,1.55,1.64,1.95Zm.25,10.2c-.04.05-.08.1-.12.15.01-.1.02-.2.04-.3.03.05.06.1.08.15Zm-4.8,13.61c.34-1.19.9-2.36,1.55-3.72.87-1.82,1.85-3.91,2.53-6.55.04.17.08.35.15.51.32.77.91,1.37,1.65,1.66.14.06.28.09.42.12-5.65,3.24-6.29,10.5-6.35,11.4-.09.38-.18.77-.27,1.16-.15-1.39-.15-3.02.31-4.59Zm-15.88-19.73c1.47,0,2.67,1.15,2.67,2.57s-1.11,2.47-2.49,2.56c-.04,0-.07-.02-.11-.02h0c-.05,0-.1.02-.15.03-.7-.02-1.33-.3-1.79-.74,0,0,0,0,0,0-.48-.47-.78-1.11-.78-1.82,0-1.42,1.2-2.57,2.67-2.57Zm-.67,50.39s.13-.16.21-.15c.14,0,.48.23.84.78.62.96,1.31,1.1,1.77,1.05.9-.09,1.67-.95,2.35-2.61.15-.1.31-.19.45-.3.32-.26.38-.73.12-1.05-.26-.32-.73-.37-1.05-.12-.75.6-1.72.83-2.66.63-.13-.03-.24-.06-.33-.09.15-.06.39-.13.71-.15,1.6-.12,2.69-1.85,3.95-3.86.79-1.25,1.6-2.54,2.59-3.55.04-.04.07-.08.1-.12.03-.05,3.07-4.82,5.09-6.25,1.42-.99,2.01-2.12,2.26-2.93,1.45.51,3.26.76,4.33.87-1.26,3.76-4.83,7.42-6.48,8.68l-.94.71c-3.4,2.57-5.11,3.86-4.86,6.73.03.31-.19,1.04-.34,1.45-.07.08-.12.17-.15.28,0,.01,0,.03-.01.04-.22.69-.53,1.33-.75,1.74-.58,1.11-1.66,2.24-2.04,2.28-1.31.12-1.9-.1-2.14-.24-.03-.01-.05-.02-.08-.03-.04-.02-.07-.04-.11-.05-1.5-.39-2.41-1.65-2.73-2.62-.22-.67-.14-1.06-.08-1.13Zm2.27-.24c.13.01.27.04.4.04.15,0,.3-.02.44-.04-.23.32-.4.42-.45.43,0,0-.14-.04-.36-.37-.01-.02-.03-.04-.04-.06Zm-14.27,6.08c.5-.76,1.97-.85,3.68-.96,1.16-.08,2.46-.16,3.73-.47-1.59.68-2.8.9-2.82.9-.41.07-.68.46-.61.87.06.36.38.62.74.62.04,0,.08,0,.13-.01.14-.02,2.74-.49,5.5-2.22-2.2,1.97-4.67,4.17-4.68,4.17l1,1.12s1.59-1.41,3.36-2.99c-1.92,2.27-4.45,5.05-6.2,6.24-.89.61-1.79.76-2.48.43-.45-.22-.76-.63-.78-1.05-.02-.37.17-.7.56-.95,1.12-.73,1.63-1.47,1.58-2.24-.06-.91-.88-1.33-.97-1.38-.06-.03-.12-.05-.19-.06-.48-.09-1.56-.46-1.79-1.01-.11-.25-.02-.59.25-1.01Z"/>
</svg>