<?xml version="1.0" encoding="UTF-8"?>
<svg id="icons" xmlns="http://www.w3.org/2000/svg" viewBox="0 0 120 120">
  <path d="m69.82,33.39c.29-.3.27-.78-.03-1.06-.3-.29-.77-.27-1.06.03-.25.26-.66.27-.93.02-.3-.29-.77-.27-1.06.03s-.27.78.03,1.06c.42.39.95.59,1.48.59.57,0,1.14-.23,1.56-.67Z"/>
  <path d="m71.92,34.06c.57,0,1.14-.23,1.56-.67.29-.3.27-.78-.03-1.06-.3-.29-.77-.27-1.06.03-.25.26-.66.27-.93.02-.3-.29-.78-.27-1.06.03-.29.3-.27.78.03,1.06.42.39.95.59,1.48.59Z"/>
  <path d="m66.66,48.4c-.86.91-2.42.84-3.47-.16-.3-.29-.78-.27-1.06.03-.29.3-.27.78.03,1.06.85.8,1.92,1.21,2.95,1.21s1.94-.37,2.64-1.1c.28-.3.27-.78-.03-1.06-.3-.28-.77-.27-1.06.03Z"/>
  <path d="m74.58,48.21c-.5.52-1.15.83-1.84.88-.68.04-1.3-.18-1.77-.63-.3-.28-.77-.27-1.06.03-.28.3-.27.78.03,1.06.71.68,1.65,1.04,2.65,1.04.08,0,.16,0,.25,0,1.07-.06,2.08-.54,2.84-1.34.29-.3.27-.78-.03-1.06-.3-.29-.78-.27-1.06.03Z"/>
  <path d="m71.05,36.05c-.51.53-1.35.56-1.89.05-.3-.29-.77-.27-1.06.03s-.27.78.03,1.06c.55.52,1.25.78,1.95.78.75,0,1.5-.3,2.06-.88.28-.3.27-.78-.03-1.06-.3-.28-.77-.27-1.06.03Z"/>
  <path d="m68.96,34.51c-.28.3-.27.78.03,1.06.32.3.72.45,1.12.45.43,0,.87-.17,1.19-.51.28-.3.27-.78-.03-1.06-.3-.28-.77-.27-1.06.03-.05.05-.13.06-.19,0-.3-.28-.78-.27-1.06.03Z"/>
  <path d="m70.15,25.5c.8,0,1.42-.8,1.42-1.81s-.62-1.81-1.42-1.81-1.42.8-1.42,1.81.62,1.81,1.42,1.81Zm0-2.62c.17,0,.42.32.42.81s-.25.81-.42.81-.42-.32-.42-.81.25-.81.42-.81Z"/>
  <path d="m44.97,57.93c.4.06.79-.21.86-.62.06-.37.5-.69,1.09-.78,1.09-.17,2.64.39,3.72,2.48.5.96,1.26,1.47,2.12,1.47.34,0,.7-.08,1.06-.24,2.8-1.28,5.43-7.42,3.39-12.57-.68-1.7-1.02-3.22-1.12-4.55.27.35.46.59.5.64l2.17,2.66c.33.56,3.36,7.37,3.58,8.04,0,.03.02.07.03.1,0,0,0,0,0,0h0s0,.01,0,.02c.31.77-.05,1.78-.37,2.68-1.93-.23-3.7.39-5.02,1.78-2.26,2.37-2.96,6.53-1.89,11.12.65,2.76-.29,4.19-1.38,4.61-.75.29-1.54.07-1.87-.52-.2-.36-.66-.49-1.02-.29-.36.2-.49.66-.29,1.02.5.91,1.46,1.42,2.51,1.42.4,0,.81-.07,1.21-.23,1.6-.62,3.17-2.65,2.3-6.35-.94-4.03-.36-7.77,1.52-9.74.85-.89,1.91-1.35,3.11-1.37-.07.1-.13.2-.21.31-1.98,2.91-3.1,6.26-3.24,9.69-.26,6.28,1.31,12.44,1.36,12.61.81,5.87,2.54,7.51,4.55,8.9.22.15.53.41.9.75l-.45,9.42c-2.94,6.46-1.86,7.05-1.4,7.3.62.34,2.73.83,4.63.83,1.02,0,1.97-.14,2.61-.52.6-.36.93-.91.92-1.57,0-1.03-.89-4.81-1.11-5.71l.69-3.87c1.16,1.21,2.27,2.38,3.15,3.32-.06.75-.31,2.74-1.26,3.93-1.07,1.34-1.47,2.61-1.09,3.48.22.51.69.83,1.28.88.17.01.35.04.54.07.35.05.76.11,1.19.11.79,0,1.67-.2,2.38-1.04.46-.53.93-1.31,1.43-2.14.64-1.05,1.36-2.23,1.94-2.69.94-.74,1.45-1.65,1.42-2.57-.02-.61-.29-1.5-1.46-2.3-.52-.36-1.7-2.05-2.96-3.84-1.25-1.79-2.76-3.94-4.38-5.9.65-2.5,1.58-5.29,2.49-8,1.35-4.05,2.63-7.88,2.97-10.59l.03-.2c.3-2.43.8-6.47-2.91-12.22,0,0-.01-.02-.02-.03-.06-.09-.1-.17-.16-.25-.49-.73-.56-1.68-.22-2.42,1.1-1.43,1.88-2.68,2.44-3.72,0,.1,0,.21,0,.31-1.56,2.63-2.08,4.79-1.54,6.45.45,1.36,1.46,1.99,2.09,2.26.16,1.42.36,2.8.63,4.05.77,3.54,1.81,7.08,1.82,7.12.01.04.03.07.04.11l.64,1.34s0,0,0,0l.78,1.63.86,3.39c.54,1.84,1.57,2.28,2.35,2.08.94-.24,1.46-1.38,1.19-2.59-.06-.29-.1-.54-.11-.76.5.34,1.13.74,1.72,1.11v28.2c0,.41.34.75.75.75s.75-.34.75-.75v-13.95l1.15-.91c.47.14.94.22,1.42.22,1.16,0,2.31-.4,3.23-1.16,1.39-1.15,2.07-2.97,1.78-4.75-.04-.27-.23-.49-.48-.58-1.7-.63-3.61-.31-5.01.84-1.25,1.03-1.92,2.61-1.83,4.21l-.27.21v-11.47c.24.11.49.17.73.17.52,0,1.01-.23,1.28-.66.46-.71.45-1.98-2.01-4v-3.47s.42-.32.42-.32c.46.13.93.22,1.4.22,1.16,0,2.31-.4,3.23-1.16,1.39-1.15,2.07-2.97,1.78-4.75-.04-.27-.23-.49-.48-.58-1.7-.63-3.61-.31-5.01.84-.59.48-1.04,1.09-1.36,1.77v-8.49s0,0,0,0v-8.03s.61-.52.61-.52c.4.1.81.17,1.22.17,1.16,0,2.31-.4,3.23-1.16,1.39-1.15,2.07-2.97,1.78-4.75-.04-.27-.23-.49-.48-.58-1.7-.63-3.61-.31-5.01.84-.59.49-1.04,1.1-1.36,1.77v-7s0-.02,0-.03v-3.81c0-4.13-1.31-7.96-3.51-11.11l.2-.77c1.57-.59,2.77-1.91,3.17-3.55.43-1.75-.12-3.62-1.42-4.87-.19-.19-.47-.25-.73-.18-1.73.51-3.08,1.92-3.51,3.67-.27,1.12-.14,2.29.33,3.32-1.18-1.22-2.52-2.27-3.98-3.15l-1.92-2.31c.45-1.66.04-3.44-1.12-4.72-1.21-1.34-3.06-1.94-4.83-1.57-.26.06-.48.25-.56.5-.56,1.72-.15,3.62,1.06,4.96.22.25.48.47.74.66-1.08-.19-2.18-.3-3.31-.3h-3.67c.25-1.36-.31-1.91-.73-2.12-.81-.4-1.93.05-2.54,1.03-.01.02-.03.05-.05.08-.52-1.22-1.48-2.21-2.7-2.73-1.66-.7-3.59-.46-5.04.63-.21.16-.33.43-.29.69.14,1.11.35,2.18,1.15,3.13l-.69,1.51c-.63.79-5.38,6.88-5.63,12-.18,3.62,2.87,8.67,5,11.72-.2,1.94.09,4.33,1.19,7.11,1.81,4.55-.68,9.77-2.61,10.65-.39.18-.81.24-1.22-.55-1.45-2.8-3.68-3.53-5.29-3.27-1.25.2-2.16.99-2.33,2.01-.07.41.21.79.62.86Zm47.28,28.37c.86-.71,2.02-.97,3.1-.72.04,1.11-.43,2.19-1.3,2.9-.59.49-1.32.74-2.06.79l1.63-1.29c.32-.26.38-.73.12-1.05-.26-.32-.73-.38-1.05-.12l-1.56,1.24c.2-.67.57-1.28,1.13-1.74Zm-.74-20.76c.86-.71,2.02-.97,3.1-.72.04,1.11-.43,2.19-1.3,2.9h0c-.55.46-1.23.7-1.92.77l1.68-1.26c.33-.25.4-.72.15-1.05-.25-.33-.72-.4-1.05-.15l-1.82,1.37c.19-.72.58-1.38,1.17-1.86Zm0-20.76c.86-.71,2.02-.97,3.1-.72.04,1.11-.43,2.19-1.3,2.9h0c-.55.45-1.22.7-1.91.77l1.5-1.29c.31-.27.35-.74.08-1.06s-.74-.35-1.06-.08l-1.58,1.36c.18-.73.58-1.4,1.17-1.89Zm-22.36,61.93c-1.09.65-4.54.12-5.57-.26,0-.72.72-2.79,1.55-4.72.6.35,1.21.5,1.78.5s1.11-.14,1.56-.34c.4,1.74.87,3.96.87,4.54,0,.07,0,.16-.19.27Zm-3.56-6.47l.38-7.92c.95.92,2.06,2.04,3.17,3.19l-.86,4.79c-.46.29-1.57.81-2.7-.07Zm12.68-1.9c.32.37.59.65.83.81.36.25.79.64.8,1.11.01.42-.29.91-.84,1.34-.8.62-1.56,1.88-2.3,3.09-.47.77-.91,1.5-1.29,1.94-.53.62-1.19.57-2.22.42-.22-.03-.44-.06-.66-.06-.07-.14.01-.86.89-1.95,1.08-1.35,1.44-3.34,1.55-4.4.92-.05,1.7-.35,2.31-.91.45-.42.74-.91.93-1.39Zm-2.5-3.41c.51.74.96,1.37,1.35,1.91-.04.4-.21,1.25-.8,1.79-.4.36-.96.53-1.65.52-1.1-1.17-6.08-6.46-8.82-8.99,0,0,0,0-.01-.01-.56-.52-1.04-.93-1.36-1.15-1.77-1.23-3.19-2.6-3.94-7.96-.02-.06-1.58-6.2-1.33-12.26.13-3.05,1.11-6.03,2.82-8.65.94,1.23,2.54,2.25,3.66,2.86-.01.03-.02.07-.03.1-.69.2-1.33.57-1.84,1.09-1.07,1.07-1.5,2.66-1.11,4.14.07.26.27.46.53.54.36.1.74.15,1.11.15.49,0,.98-.1,1.44-.26.34.74.91,1.37,1.61,1.82l-1.1,11.64c-.14,1.2.39,2.38,1.41,3.15,2.86,2.16,5.86,6.46,8.05,9.6Zm-10.37-27.65c-.41.17-.87.23-1.31.19-.08-.83.21-1.66.8-2.25.26-.26.57-.47.91-.61.04.08.08.15.12.23-.01.02-.02.04-.03.06-.03.05-.05.11-.08.16-.06.14-.12.28-.17.42-.02.07-.05.13-.07.2-.04.14-.08.28-.1.42-.01.06-.03.12-.04.19-.03.2-.05.41-.05.61,0,.13,0,.26.02.38Zm1.72-1.46c.06.02.11.03.17.05.07.02.14.04.21.06.05,0,.09,0,.14.01.09.01.18.03.27.03.05,0,.09-.01.13-.01.1,0,.2-.01.29-.03.08-.01.15-.04.23-.06.05-.01.1-.02.14-.04.01.03.02.05.03.08.04.11.08.23.11.34.01.05.03.1.04.15.03.17.05.34.05.51,0,.23-.02.42-.08.63-.13.61-.46,1.14-.94,1.54-.48-.4-.82-.95-.96-1.59-.05-.16-.07-.35-.07-.57,0-.17.02-.33.05-.5,0-.05.03-.1.04-.16.03-.12.06-.23.11-.34.01-.03.02-.06.04-.09Zm-.03-2.18c0-.46.37-.83.82-.83s.83.38.83.83h0s0,.01,0,.02c0,.22-.09.42-.29.59-.14.14-.33.21-.54.21-.26,0-.44-.12-.56-.22-.16-.15-.25-.37-.26-.6Zm7.71-4.25c2.48,4.51,2.1,7.64,1.83,9.79l-.03.2c-.32,2.56-1.57,6.32-2.9,10.3-.8,2.39-1.61,4.84-2.25,7.11-.93-1.02-1.87-1.95-2.82-2.67-.59-.45-.9-1.11-.82-1.8l1.15-12.19c.46-.4.83-.88,1.08-1.42.47.17.95.26,1.45.26.37,0,.74-.05,1.11-.15.26-.07.46-.28.53-.54.38-1.49-.05-3.08-1.12-4.14-.51-.52-1.14-.89-1.84-1.09,0-.03-.02-.06-.03-.08,1.2-.61,3.59-1.98,4.67-3.59Zm-4.41,6.88c0-.06-.02-.12-.04-.19-.03-.15-.06-.29-.11-.43-.02-.07-.04-.13-.06-.2-.05-.15-.11-.29-.18-.43-.02-.05-.04-.1-.07-.15,0-.02-.02-.03-.02-.05.04-.07.09-.15.12-.23.34.14.65.35.91.61.59.59.89,1.42.81,2.25-.44.04-.9-.02-1.32-.19.01-.12.02-.24.02-.38,0-.21-.02-.42-.05-.63Zm6.73-9.28c-.17-.53-.22-1.41.24-2.76.06,1.16.13,2.36.23,3.58-.19-.21-.37-.47-.48-.82Zm1.49-10.09c-.03-.39-.35-.69-.74-.69-.4,0-.72.29-.76.67,0,.02-.29,2.46-3.51,6.65-.05.07-.1.14-.14.24-.59,1.25-.47,2.76.3,3.92.03.04.05.08.08.12.04,1-2.26,2.79-4.59,3.93-.38-.27-.85-.44-1.35-.44s-.94.16-1.32.42c-1.49-.8-3.14-1.96-3.65-3.01.22-.38.38-.68.46-.91.39-1.08.87-2.42.41-3.7-.01-.06-.03-.11-.06-.16,0,0,0-.02-.01-.03-.55-1.54-3.57-8.17-3.76-8.4l-2.21-2.72s-.68-.85-1.58-2.11c.24-1.38.78-2.43,1.44-3.11.25-.26.53-.47.82-.64,2.32,3.23,4.47,3.88,5.4,4,.24,3.81,5.19,5.56,5.42,5.64.08.03.16.04.24.04s.16-.01.24-.04c.24-.08,5.38-1.86,6.47-5.64l1.56.51s.02,0,.03.01h0s0,0,0,0c.02,0,.04.01.06.02,1.28.3,2.71,1.8,3.08,3.22.09.34.16.69.23,1.04-.09.12-.17.24-.28.36-.84.96-1.57,1.88-2.22,2.76-.02-.84-.04-1.52-.08-1.96Zm-16.42-21.35c.53.39,1.01.72,1.05.74.23.15.52.17.77.04.24-.13.4-.38.4-.66,0-.74.06-1.51.13-2.08.38.46.76.96.94,1.2.15.2.38.32.64.31.25-.01.48-.15.61-.36,1.18-1.95,2.77-4.19,3.37-4.58.59.4,2.1,2.62,3.22,4.55.13.22.35.36.6.37.25.02.49-.1.64-.3.25-.33.77-1,1.25-1.58.02.6.02,1.37-.01,2.04-.01.29.14.57.4.7.26.13.57.11.81-.07.25-.19.81-.61,1.33-.95-.04.98-.26,2.7-.53,4.17-.05.3.08.61.34.77.26.16.6.15.84-.04.33-.24.73-.51,1.08-.7-.29,1.09-1.17,3.23-2.72,5.62-.02,0-.04-.02-.07-.03v-5.36c0-1.79-1.79-3.69-3.48-3.69h-7.37c-1.67,0-3.46,1.17-3.46,3.74v5.34c-.07.03-.14.05-.21.08-.04.02-.07.05-.1.07-1.55-2.69-2.52-4.97-2.7-5.86.36.02.92.16,1.4.35.24.1.52.06.73-.1.21-.16.32-.42.29-.68-.11-1.03-.19-2.23-.2-3.04Zm14.95,12.69c-.43.18-.98-.17-1.22-.75-.13-.31-.15-.64-.06-.92.04-.13.15-.38.4-.48.43-.18.98.17,1.22.75.24.58.08,1.22-.34,1.4Zm-5.1-10.43h-3.96c-1.73,0-3.14,1.41-3.14,3.14v3.91c-.09-.06-.18-.11-.28-.15-.06-.02-.12-.03-.19-.05v-5.25c0-1.65,1.06-2.24,1.96-2.24h7.37c.87,0,1.98,1.23,1.98,2.19v5.32s-.07.01-.1.03c-.13.05-.25.12-.36.2v-3.82c0-1.81-1.47-3.28-3.28-3.28Zm-5.95,12.75c.69,1.24,2.03,2.05,3.64,2.13.08,0,.17,0,.25,0,1.78,0,3.37-.91,4.23-2.41l.58.19c-.72,2.64-4.3,4.21-5.28,4.59-.9-.36-4.01-1.8-4.17-4.24.23-.06.49-.15.75-.26Zm-1.28-1.16s-.05-.02-.07-.02c.43-.28.79-.7,1.03-1.22.15.19.31.37.49.53-.45.45-1.03.64-1.45.72Zm6.55-1.19h-2.47c-1.35,0-2.45-1.1-2.45-2.45v-4.8c0-.91.74-1.64,1.64-1.64h3.96c.98,0,1.78.8,1.78,1.78v4.67c0,1.35-1.1,2.45-2.45,2.45Zm1.64,1.13c-.7,1.43-2.1,1.9-3.2,1.85-1.13-.05-2.06-.62-2.47-1.48.08-.08.16-.16.23-.26.42.15.86.25,1.33.25h2.47c.59,0,1.14-.14,1.64-.37Zm1.4-.56c-.08-.03-.16-.03-.24-.03-.03-.01-.04-.04-.07-.05-.03-.01-.07-.01-.1-.02.2-.18.38-.38.54-.6.15.36.37.68.63.93l-.76-.25Zm-9.98-1.29c-.24.58-.8.93-1.22.75-.42-.17-.58-.81-.34-1.4.13-.31.35-.56.6-.7.09-.05.23-.1.39-.1.07,0,.15.01.23.04.25.1.36.34.4.48.09.28.06.61-.06.92Zm-3.1.48c-.43-.39-.89-.88-1.36-1.5.45-.03.92.03,1.4.17-.12.45-.13.9-.04,1.32Zm18.51,2.8c.63-.02,1.24.25,1.66.67.47.47.78,1.23.65,2.16-.47-1.12-1.33-2.15-2.32-2.83Zm1.78,29.49c-.23-.8-1.08-3.8-1.73-6.8-.79-3.63-1.02-8.45-1.13-12.04.65-1.05,1.53-2.26,2.7-3.66.19,1.95.2,4.08.21,6.29,0,2,.01,4.06.16,6.08l.04.52c.17,2.51.4,5.68,1.74,8.51-.43.06-.85.2-1.25.46-.27.18-.52.39-.73.63Zm6.3,4.2s.03.03.05.04c.01.01.02.02.03.03,1.69,1.33,1.98,2.11,2,2.21-.02.01-.11.02-.2-.03-.24-.12-.58-.33-.95-.55,0,0,0,0,0,0,0,0,0,0,0,0-1.29-.78-3-1.96-3.02-1.97-.18-.12-.41-.16-.62-.11-.21.06-.39.2-.48.4-.05.1-.46,1.04-.09,2.71.11.5-.06.78-.06.8,0,0-.31-.13-.57-1.02l-.87-3.44s-.03-.09-.05-.14l-.71-1.5c.05-.26.31-.7.78-1.01.32-.2.8-.39,1.34-.14.43.63.92,1.24,1.51,1.8.76.72,1.38,1.32,1.9,1.89,0,0,0,0,.01,0Zm-.21-2.34c-.22-.21-.42-.41-.67-.64-3.14-2.99-3.44-7.38-3.69-10.92l-.04-.52c-.09-1.22-.12-2.46-.13-3.7.07.08.13.15.2.22.82.79,1.91,1.22,3.03,1.22.3,0,.61-.04.91-.11l.38.34v14.1Zm-3.05-16.82l.97.86c-.44-.13-.86-.35-1.19-.68,0,0,0,0,0,0-.61-.59-.91-1.43-.84-2.27.83-.1,1.68.19,2.29.78.28.27.48.6.63.94l-.85-.76c-.31-.28-.78-.25-1.06.06-.28.31-.25.78.06,1.06Zm.2-37.2c.27-1.09,1.03-1.99,2.05-2.43.7.86.96,2.01.7,3.1-.18.74-.61,1.38-1.18,1.87l.53-2.01c.11-.4-.13-.81-.53-.92-.4-.11-.81.13-.92.53l-.51,1.93c-.24-.66-.31-1.37-.14-2.07Zm-12.21-7.38c1.11-.09,2.21.34,2.95,1.17.53.59.83,1.34.89,2.11l-1.37-1.64c-.27-.32-.74-.36-1.06-.1-.32.26-.36.74-.1,1.06l1.24,1.5c-.65-.18-1.25-.51-1.72-1.03-.75-.83-1.06-1.97-.85-3.06Zm-7.01,5.92h4.18c9.86,0,17.89,8.03,17.89,17.9h0c-.24-.69-.63-1.34-1.17-1.88-1.27-1.28-3.15-1.8-4.89-1.34-.26.07-.46.27-.53.53-.48,1.75.02,3.63,1.29,4.91.96.97,2.28,1.5,3.62,1.5.35,0,.71-.05,1.06-.12l.63.58v15.25c-.2-.38-.46-.74-.78-1.05-1-.98-2.42-1.39-3.78-1.15-.03-1.99-.11-3.89-.38-5.65,1.49-2.33,1.05-4.5-.19-5.74-1.29-1.29-3.22-1.45-4.66-.47l-.53-.17c.12-.03.23-.06.34-.1,1.2-.49,1.71-2,1.16-3.35-.09-.22-.21-.41-.34-.59,1.71-2.62,3.71-6.71,2.97-7.91-.2-.32-.56-.49-.93-.44-.31.04-.67.18-1.02.36.58-3.88.1-4.26-.17-4.47-.26-.2-.59-.24-.91-.11-.34.15-.76.4-1.15.67-.02-2.39-.45-2.6-.75-2.74-.32-.15-.7-.09-.98.16-.4.36-1.05,1.15-1.56,1.79-2.38-3.94-3.42-4.43-3.96-4.37-.55-.03-1.61.51-4.07,4.41-.37-.46-.82-.99-1.17-1.31-.28-.25-.65-.31-.97-.17-.29.13-.76.33-.91,2.7-.25-.19-.5-.38-.7-.55-.29-.25-.66-.3-.98-.13-.36.19-.81.43-.49,4.06-.6-.13-1.29-.18-1.79.08-.24.12-.42.34-.5.62-.36,1.23,1.45,4.74,2.54,6.71-.7-.11-1.37-.09-2.01.06-.01-.02-.03-.04-.04-.06l-.49-.79q-3.62-5.85-.1-12.88l.76-1.53c1.37.03,4.99-.18,6.48-3.2Zm18.32,18.62l1.58,1.46c-.78-.1-1.51-.45-2.08-1.02-.79-.8-1.15-1.92-1-3.02,1.1-.14,2.22.23,3.01,1.03.48.49.78,1.1.93,1.75l-1.42-1.31c-.3-.28-.78-.26-1.06.04-.28.3-.26.78.04,1.06Zm-19.81-20.41c.18-.29.43-.42.56-.46.02.14.03.5-.25,1.24-1.19,3.13-5.62,2.7-5.67,2.69-.27-.03-.53.1-.68.32-.41-.03-1.04-.21-1.37-.87l.42-.91c1.58.94,3.33.63,3.33.62,1.76-.15,3.25-1.95,3.67-2.63Zm-4.6-2.06c.85.36,1.52,1.08,1.88,1.95l-2.36-1.3c-.36-.2-.82-.07-1.02.29-.2.36-.07.82.29,1.02l2.16,1.19c-.08.02-.15.04-.23.04-.01,0-1.4.25-2.51-.51-.11-.08-.22-.16-.31-.24-.05-.07-.12-.13-.2-.18-.53-.53-.76-1.15-.91-2.07.97-.56,2.15-.65,3.19-.21Zm-4.48,26.26c-1.9-2.88-4.07-6.83-3.94-9.6.19-3.81,3.31-8.45,4.7-10.34.45.5,1.02.78,1.56.92l-.34.67c-3.82,7.63-3.81,7.9.17,14.34l.39.64c-.38.23-.74.51-1.07.84-.6.62-1.12,1.47-1.48,2.53Z"/>
  <path d="m38.78,66.67c.28-.3.27-.78-.03-1.06-.3-.28-.78-.27-1.06.03-.23.24-.61.25-.85.02-.3-.28-.77-.27-1.06.03-.28.3-.27.78.03,1.06.41.38.93.58,1.44.58.56,0,1.11-.22,1.53-.66Z"/>
  <path d="m41.78,67.33s.04,0,.06,0c.56-.02,1.08-.25,1.47-.66.29-.3.27-.78-.03-1.06-.3-.29-.77-.27-1.06.03-.11.12-.26.18-.42.19-.16.01-.31-.05-.43-.16-.3-.28-.77-.27-1.06.03-.28.3-.27.78.03,1.06.39.37.9.58,1.44.58Z"/>
  <path d="m40.76,69.52c-.56.59-1.49.61-2.08.06-.3-.28-.78-.27-1.06.03-.28.3-.27.78.03,1.06.57.54,1.31.81,2.04.81.79,0,1.57-.31,2.16-.93.28-.3.27-.78-.03-1.06-.3-.28-.78-.27-1.06.03Z"/>
  <path d="m38.53,68.66c.32.3.73.46,1.16.46.02,0,.03,0,.05,0,.45-.01.87-.2,1.18-.53.29-.3.27-.78-.03-1.06-.3-.29-.78-.27-1.06.03-.06.06-.2.07-.27,0-.3-.28-.77-.27-1.06.03-.28.3-.27.78.03,1.06Z"/>
  <path d="m26.74,73.75c1.32,1.93,5.24,3.71,6.5,4.25.43,1.65,1.29,5.19,1.26,6.55-.01.48-.21,1.19-.44,2.01-.57,2.04-1.42,5.11-.66,9.11.89,4.64,1.23,10.37,1.31,11.88-.38.34-.9.9-.97,1.52-.04.35.08.69.31.95.76.84,4.3.94,5.39.48.72-.31.76-.85.75-1.06-.03-.43.02-6.24.08-11.9.22.92.37,1.67.37,2,0,1.31.16,8.55.33,9.86.06.44.31.82.72,1.06.41.24.97.33,1.57.33,1.24,0,2.67-.39,3.4-.68.64-.26,1.11-.79,1.28-1.46.17-.67.03-1.36-.41-1.9l-.47-.58s-.03-.03-.04-.05c-.1-.28-.46-1.6-.73-6.94-.02-.43,0-.95.02-1.56.09-2.28.21-5.71-1.59-10.24-.8-2.01-1.03-4.11-.66-5.83l.1-.31c.39.79.85,1.98,1.14,3.64.31,1.77.89,4.36,1.08,5.04.34,1.2.27,1.96.18,3.01-.04.42-.08.88-.1,1.42-.02.47.07.88.26,1.21.34.58.83.59,1.02.57.1-.01.27-.03.49-.18,0,.82.33,1.54.87,1.9.4.27.88.3,1.3.08.83-.42,1.29-1.71,1.36-3.81.04-1.06-.36-2.28-.82-3.69-.58-1.78-1.23-3.79-1.21-6.02.06-4.36-2.27-7.6-3.51-8.71-.74-.66-1.67-1.14-2.74-1.41-.54-.14-.92-.63-.92-1.2v-.8c1.66-1.14,2.74-3.24,2.75-5.76,1.23-.86,1.46-2,1.41-2.85-.12-2.13-2.05-4.38-3.57-5.3.01-.11.02-.22.02-.33,0-1.84-1.5-3.34-3.34-3.34s-3.34,1.5-3.34,3.34c0,.09.01.16.02.24-2.4,1.3-4.09,3.61-4.15,5.82-.04,1.32.51,2.41,1.56,3.11.18,2.02,1.05,3.72,2.36,4.79l-.14,1.29.75.08-.87-.05-4.21-2.15c-.73-.37-1.32-.99-1.65-1.73l-1.68-3.73c.53-.74,1.52-2.36,1.03-3.67-.06-.17-.13-.36-.2-.56-.59-1.67-1.12-2.97-2.02-3.35-.35-.15-.73-.14-1.08.03-1.63.77-1.93,6.29-1.45,7.92.07.74.55,5.59,1.97,7.66Zm13.13-17.53c.89,0,1.63.63,1.8,1.47-.31-.1-.62-.17-.94-.22-.35-.06-.69-.08-1.03-.08,0,0-.02,0-.03,0-.29,0-.58.02-.86.06-.08.01-.15.03-.23.05-.17.03-.34.06-.5.11.2-.8.92-1.39,1.78-1.39Zm-4.68,5.77s-.06.06-.09.09c-.69.84-.98,1.83-1.1,2.83-.07-.23-.11-.48-.1-.75.04-1.53,1.36-3.66,3.79-4.77,0,0,.01-.01.02-.02,0,0,.02,0,.02,0,.79-.43,1.75-.57,2.77-.4.52.08,1.02.24,1.49.49,0,0,.02,0,.03,0,.01,0,.02.02.03.02,1.16.48,3.09,2.63,3.19,4.29.01.23-.02.43-.08.62-.06-.3-.13-.59-.23-.88-.36-1.02-1.35-1.72-2.51-1.7-1.93.06-3.01-.12-3.8-.25-1.04-.17-1.8-.3-3.23.29-.08.03-.15.08-.21.13Zm.23,4.48c0-1.36.13-2.45.74-3.29.91-.35,1.31-.28,2.23-.13.85.14,2.02.34,4.08.27h0c.48,0,.91.29,1.06.7.22.61.31,1.37.31,2.45,0,2.99-1.81,5.24-4.22,5.24s-4.21-2.25-4.21-5.24Zm-8.61-6.88c.38.37.9,1.82,1.1,2.4.08.21.15.41.21.59.23.6-.5,1.88-1.07,2.56-.18.22-.23.53-.11.79l1.87,4.14c.48,1.06,1.31,1.93,2.34,2.45l4.21,2.15c.45.23.99.23,1.44,0,.45-.23.77-.66.85-1.2l.07-.62c.59.23,1.22.36,1.9.36.51,0,1-.08,1.46-.21v.09c0,1.25.84,2.34,2.04,2.65.84.22,1.55.58,2.12,1.08.86.76,3.06,3.61,3.01,7.57-.03,2.47.69,4.71,1.28,6.5.42,1.28.77,2.38.75,3.18-.05,1.44-.29,2.09-.43,2.36-.06-.14-.11-.36-.09-.65.15-1.87.04-2.79.03-2.82-.05-.35-.32-.61-.67-.65-.34-.03-.67.18-.78.51-.09.27-.2.55-.31.81.01-.2.03-.39.05-.57.1-1.12.18-2.08-.23-3.55-.18-.64-.75-3.19-1.05-4.89-.69-3.93-2.23-5.56-2.3-5.63-.18-.19-.45-.27-.71-.21-.26.06-.46.25-.55.5l-.62,1.89c-.46,2.09-.2,4.5.71,6.79,1.69,4.23,1.57,7.35,1.49,9.63-.02.64-.04,1.2-.02,1.69.36,7.19.88,7.7,1.17,7.94l.4.5c.13.17.18.38.12.58-.05.21-.2.37-.39.45-1.39.56-3.34.73-3.64.48-.15-1.17-.32-8.18-.32-9.67s-1.65-6.9-1.84-7.52c-.11-.35-.46-.57-.82-.52-.37.05-.64.36-.64.73-.02,1.57-.17,14.54-.15,16.96-.73.19-2.7.12-3.37-.1.13-.17.37-.41.6-.58.2-.15.32-.39.31-.64,0-.07-.3-7-1.35-12.47-.7-3.65.07-6.41.63-8.42.27-.95.48-1.71.49-2.38.04-1.98-1.34-7.11-1.4-7.33-.06-.23-.23-.41-.44-.5-1.36-.55-5.12-2.32-6.17-3.85-1.06-1.55-1.6-5.6-1.72-7.03,0-.06-.02-.13-.04-.19-.47-1.33.05-5.37.59-6.1Z"/>
</svg>