<?xml version="1.0" encoding="UTF-8"?>
<svg id="icons" xmlns="http://www.w3.org/2000/svg" viewBox="0 0 120 120">
  <path d="m60.02,37.87c1.02,0,2.03-.4,2.78-1.19.29-.3.27-.77-.03-1.06-.3-.29-.78-.27-1.06.03-.88.93-2.36.97-3.3.09-.3-.28-.78-.27-1.06.03-.29.3-.27.78.03,1.06.74.7,1.69,1.04,2.63,1.04Z"/>
  <path d="m60.03,35.05c.54,0,1.09-.21,1.49-.64.29-.3.27-.77-.03-1.06-.3-.29-.78-.27-1.06.03-.21.22-.56.23-.79.02-.3-.28-.78-.27-1.06.03s-.27.78.03,1.06c.4.37.9.56,1.41.56Z"/>
  <path d="m61.42,27.53c0-1.06-.59-1.85-1.36-1.85s-1.36.8-1.36,1.85.59,1.85,1.36,1.85,1.36-.8,1.36-1.85Z"/>
  <path d="m46.29,23.85c-1.07.99-.97,6.9,1.54,11.43-.2.27-.39.56-.52.89-.39.96-.41,2.01-.04,2.9.31.74.86,1.3,1.55,1.58.34.14.69.2,1.04.2,1.3,0,2.6-.89,3.19-2.32.39-.96.41-2.01.04-2.89-.24-.57-.62-1.03-1.1-1.34l-.17-7.63c0-2.37,1.94-4.3,4.32-4.3h8.73c1.89,0,3.43,1.53,3.43,3.41v8.23c-.25.26-.45.57-.59.91-.37.88-.35,1.94.04,2.9h0c.59,1.43,1.89,2.32,3.19,2.32.35,0,.7-.07,1.04-.2.7-.28,1.25-.85,1.55-1.58.37-.88.35-1.94-.04-2.89-.28-.68-.73-1.24-1.26-1.64,1.41-3.81,2.63-9.13,1.45-10.05-.33-.26-.78-.25-1.14,0-.22.16-.47.38-.72.64,1.35-7.23.85-7.52.4-7.79-.25-.15-.64-.19-1,.11-.41.35-.91.99-1.38,1.67.09-3.96-.46-4.23-.81-4.4-.33-.16-.73-.1-1.03.17-.67.59-1.49,2.31-2.05,3.64-3.78-7.32-5.25-8.15-5.94-8.1-.7-.05-2.17.81-5.94,8.1-.56-1.32-1.38-3.04-2.05-3.64-.3-.27-.69-.33-1.03-.17-.35.17-.9.44-.81,4.4-.47-.68-.97-1.33-1.38-1.68-.36-.31-.75-.26-1-.11-.45.26-.95.56.4,7.79-.25-.26-.5-.48-.72-.64-.37-.27-.85-.24-1.19.07Zm5.37,14.11c-.43,1.06-1.46,1.64-2.27,1.3-.42-.17-.63-.51-.74-.77-.22-.52-.2-1.15.04-1.75.35-.85,1.09-1.4,1.79-1.4.17,0,.33.03.49.09.42.17.63.51.74.77.22.52.2,1.15-.04,1.74Zm20.47-.17c-.11.26-.32.6-.74.77-.82.34-1.84-.25-2.28-1.3-.24-.59-.26-1.23-.04-1.75.08-.19.22-.43.46-.61,0,0,0,0,.01,0,.08-.06.17-.11.27-.15.83-.34,1.84.25,2.27,1.3.24.59.26,1.23.04,1.74Zm.53-12.09c-.08,1.41-.6,4.21-1.82,7.51-.35-.07-.7-.08-1.06-.02v-5.93c.05.23.2.44.43.54.32.14.7.04.91-.24.28-.38.94-1.22,1.54-1.87Zm-23.77,1.87c.21.28.59.38.91.24.32-.14.5-.49.43-.83-.57-2.81-1.1-5.9-1.32-7.76.6.87,1.22,1.9,1.51,2.4.17.3.53.44.87.34.33-.1.55-.42.53-.77-.11-1.69-.16-3.61-.1-4.84.54,1,1.17,2.47,1.57,3.55.11.28.37.47.66.48.3.02.58-.15.71-.41,1.91-3.82,4.45-8.16,5.34-8.72,0,0,0,0,0,0,0,0,0,0,0,0,.89.56,3.43,4.9,5.34,8.72.13.27.41.43.71.41.3-.02.56-.21.66-.48.41-1.08,1.04-2.54,1.57-3.55.06,1.23.01,3.15-.1,4.84-.02.35.2.67.53.77.33.1.69-.04.87-.34.29-.5.91-1.53,1.51-2.4-.22,1.85-.75,4.93-1.31,7.74v-1.16c0-2.71-2.21-4.91-4.93-4.91h-8.73c-3.21,0-5.82,2.6-5.82,5.82l.16,7.18c-.52,0-1.03.14-1.5.41-1.76-3.36-1.98-7.17-1.78-8.74.63.66,1.38,1.62,1.69,2.03Z"/>
  <path d="m60.21,20.12c1.18,0,2.11-1.18,2.11-2.68s-.92-2.68-2.11-2.68-2.11,1.18-2.11,2.68.92,2.68,2.11,2.68Zm0-3.86c.24,0,.61.47.61,1.18s-.37,1.18-.61,1.18-.61-.47-.61-1.18.37-1.18.61-1.18Z"/>
  <path d="m86.33,34.38c.26-1.68-2.19-4.03-6.62-6.35,1.62-.24,2.87-1.63,2.87-3.31,0-.97-.42-1.84-1.08-2.46.78-.51,1.29-1.39,1.29-2.38,0-.75-.3-1.43-.77-1.93.43-.4.7-.96.7-1.58,0-.39-.11-.76-.3-1.08.46-.36.76-.91.76-1.54,0-1.07-.87-1.95-1.95-1.95s-1.95.87-1.95,1.95c0,.27.06.53.16.76-.63.38-1.06,1.06-1.06,1.85,0,.36.1.7.25.99-.92.47-1.55,1.42-1.55,2.52,0,.69.26,1.32.67,1.82-1.12.54-1.91,1.69-1.91,3.02,0,1.02.46,1.92,1.18,2.53-3.6,2.49-4.32,5.68-4.35,5.83-.08.4.17.8.58.89.05.01.11.02.16.02.35,0,.66-.24.73-.59.01-.05.12-.52.46-1.21-.51,1.76-.33,3.28-.32,3.39.05.38.37.66.74.66.03,0,.06,0,.09,0,.41-.05.7-.42.65-.83-.02-.13-.27-2.5,1.06-4.5l-2.48,11.76c-.68-.68-1.5-1.22-2.42-1.55l-3.9-1.41s0,0,0,0c0,0,0,0,0,0l-1-.36c-.09-.03-.18-.07-.24-.1-.55-.3-.96-.79-1.14-1.38l-.09-.32c1.13-1.29,1.82-2.96,1.82-4.8v-7c0-1.37-1.12-2.49-2.49-2.49h-9.62c-1.37,0-2.49,1.12-2.49,2.49v7c0,2.47,1.24,4.65,3.12,5.98-.08.81-.5,1.55-1.2,2-.03.02-.06.04-.08.06-.1.06-.2.11-.29.15l-.5.22-12.5.6c-.41,0-.78-.17-1.05-.48-.27-.31-.38-.72-.33-1.12l1.7-11.55c.52-3.49-.04-7-1.6-10.14-.04-.09-.09-.17-.14-.25h.37c1.06,0,1.92-.86,1.92-1.91v-4.26c0-1.06-.86-1.92-1.92-1.92h-4.26c-1.05,0-1.91.86-1.91,1.92v4.26c0,.49.19.92.49,1.26-.85-.24-1.75-.37-2.5-.15-.61.17-1.08.54-1.37,1.08-.12.22-.48.9-.12,1.51.38.66,1.21.67,2.09.69.71.01,1.5.03,1.98.34-.26.56-.55,1.5-.32,2.51.2.86.73,1.58,1.57,2.17-1.11,4.25-4.91,19.44-3.37,22.02,1.02,1.71,6.65,2.11,11.76,2.11,2.68,0,5.21-.11,6.86-.2.32,3.38,1.6,8.12,2.95,10.75.06.11.04.25-.04.35-.31.38-.7.92-1.11,1.57,0,.01-.01.02-.02.04-.86,1.35-1.83,3.24-2.45,5.6-.62,2.39-2.41,4.41-4.76,5.4-1.08.46-2.18.95-3.27,1.48,0,0,0,0-.01,0-.92.45-1.83.91-2.7,1.4,0,0-.01,0-.02,0-4.62,2.59-8.25,5.73-7.26,8.95,0,0,0,.02,0,.02,1.5,5.65,5.15,14.43,6.72,18.17l.32.77c-3.22.4-4.07.32-4.26.29-2.26-.42-3.4.28-4.21,2.57l-.1.29c-.41,1.11-.58,1.97.9,3.06.95.7,2.95.9,4.98.9,2.17,0,4.38-.24,5.37-.36,2.57-.32,4.29-1.03,5.12-2.12.45-.6.63-1.31.51-2.04-.09-.58-.45-1.25-.87-2.03-.65-1.23-1.46-2.75-1.37-4.18.17-2.57-.15-7.59-1.76-10.93-.42-.87-.78-1.53-1.07-2.05-.23-.42-.47-.85-.54-1.07.02-.02.05-.03.09-.05l.74-.36c.86,2.74,2.55,5.92,6.69,9.27,2.08,1.68,4.8,2.55,7.79,2.55,1.8,0,3.7-.31,5.61-.96,4.61-1.55,8.19-4.67,9.34-8.06,5.32.34,9.88-.29,11.22-1.6.84-.82,1.69-1.85,1.57-3.22-.17-2.06-2.41-4.4-7.74-8.1,0,0,0,0,0,0-.02-.01-.03-.02-.05-.04l-7.06-4.47c-.05-.27-.15-.67-.31-1.18l2.21-10.48c2.05.89,3.65,1.35,4.9,1.35.79,0,1.44-.18,1.97-.52,1.04-.67,1.54-1.92,1.54-3.8,0-3.9-2.63-8.74-4.2-11.28,0,0,0,0,0,0-.31-.48-.61-.91-.91-1.32l1.64-7.76c.19,1.14.52,1.85,1.08,2.23.28.2.6.29.96.29.3,0,.63-.07.99-.22.68-.28,1.16-.81,1.39-1.52.25-.8.17-1.81-.1-2.86,1.3,1,2.55,1.42,3.5,1.29.72-.11,1.21-.56,1.32-1.22Zm-5.78-18.68c.37,0,.67.3.67.67s-.3.67-.67.67-.67-.3-.67-.67.3-.67.67-.67Zm.68-2.4c.25,0,.45.2.45.45s-.2.45-.45.45-.45-.2-.45-.45.2-.45.45-.45Zm-1.3,5.23c.75,0,1.35.61,1.35,1.35s-.61,1.35-1.35,1.35-1.35-.61-1.35-1.35.61-1.35,1.35-1.35Zm-.72,4.32c1.03,0,1.86.84,1.86,1.86s-.83,1.86-1.86,1.86-1.86-.84-1.86-1.86.84-1.86,1.86-1.86Zm-5.29,21.58s.02.04.04.06l-1.17,5.55c-.1-.15-.19-.28-.3-.45,0,0,0,0,0,0,0,0,0,0,0,0l-.32-.46c-.13-.23-.37-.38-.65-.38-.41,0-.75.34-.75.75,0,.16.09.37.18.5l.21.3c.12.75.14,1.47.05,2.18-.84-.27-1.72-.61-2.34-.86.11-1.39.08-2.62-.12-3.63-.45-2.28-.37-5.11-.28-6.56l2.97,1.07c1.01.37,1.89,1.05,2.5,1.93Zm-8.23,20.71s.18,1.24-1.68,2.65c-.53.4-3.9,1.68-6.5,1.01-1.3-.34-2.19-1.08-2.72-2.28-.89-1.99-.75-3.11-.61-3.4.42-.67.8-1.17,1.05-1.48.02-.02.03-.05.04-.07.08.76.66,1.37,1.41,1.48.11.39.26.79.5,1.17-.04.16-.06.33-.06.5,0,1.24,1.01,2.25,2.25,2.25.89,0,1.69-.55,2.04-1.31.36-.08.73-.22,1.08-.42.22.1.46.16.7.16.93,0,1.68-.75,1.68-1.68,0-.18-.03-.36-.09-.53,1.14-1.47,2.16-3.5,2.91-5.85.31.2.63.39.96.58-.17.24-.35.49-.52.72-.28.37-.54.73-.79,1.09-2.03,2.83-1.67,5.29-1.65,5.42Zm-11.08-22.73l.12-.05c.53.93,1.43,1.68,2.63,2.14.54.21,1.13.35,1.74.44-.29.09-.48.18-.62.27-1.08.72-1.14,1.97-.94,2.85-.33.33-.78.89-1.06,1.63,0,0,0,0,0,.01,0,.01-.01.02-.01.03-.24.65-.32,1.31-.23,1.98.04.34.17.66.36.96-.83.08-1.11.52-1.2.78-.05.14-.06.28-.05.42-.96-3.21-1.8-7.95-.72-11.48Zm10.12,1.54c.08-.05.14-.11.19-.17.09-.02.18-.06.25-.11.88-.63,1.47-1.42,1.77-2.34-.09,1.52-.18,4.47.31,6.95.15.78.2,1.75.13,2.84-.51-.12-1.32-.31-2.15-.56.89-.9,1.72-1.85,1.34-3.2-.28-1-.97-1.8-1.88-2.22,0,0-.01,0-.02-.01-.02-.01-.04-.03-.07-.04-.38-.18-.79-.28-1.22-.31-.22-.01-.43-.03-.63-.04.71-.18,1.38-.45,1.97-.8Zm.1,9.72s-.05.03-.08.04c-.02,0-.04,0-.05.01-.04.02-3.9,2.16-7.6.47,0,0-.01-.01-.02-.02.29.01.66.05,1.05.09.28.03.58.06.89.08.37.03.76.05,1.15.05.05,0,.11,0,.16,0,.03,0,.07,0,.1,0,.23,0,.45-.02.68-.04.08,0,.17-.01.25-.02.3-.04.6-.09.88-.17,0,0,0,0,0,0,0,0,0,0,0,0,.02,0,.04-.02.06-.03.59-.18,1.08-.48,1.45-.9.16-.19.22-.45.15-.69-.07-.24-.25-.43-.49-.51,0,0-.22-.07-.55-.18-.82-.29-1.53-.6-2.05-.88.76.07,1.77.27,2.59.57.09.03.17.06.19.06.72.26,1.51.49,2.21.67-.03.47-.21,1.14-.97,1.4Zm-5.75-5.63s-.42-1.15.23-1.58c.06-.04.72-.41,3.99-.19-.74,1.18-2.87,2.26-4.58,2.73.07-.06.11-.1.11-.1.27-.2.37-.56.25-.87Zm6.05-.28c.16.56-.19.98-1.17,1.95-.1.1-.21.21-.32.32-.03,0-.06-.02-.09-.03-.03,0-.05-.02-.08-.02-.05-.01-.1-.03-.16-.05-.04-.01-.08-.02-.12-.03-.05-.01-.11-.03-.16-.04-.05-.01-.1-.03-.15-.04-.06-.01-.12-.03-.18-.04-.06-.01-.11-.03-.17-.04-.06-.01-.13-.03-.2-.04-.12-.02-.24-.05-.36-.07-.06-.01-.12-.02-.18-.03-.07-.01-.14-.02-.2-.03-.03,0-.07-.01-.1-.02,1.33-.65,2.56-1.54,3.17-2.62.22.23.39.52.48.84Zm-6.34,3.54c.43.51,1.27,1.03,2.5,1.55-.34.05-.7.06-1.06.06-.18,0-.34-.02-.51-.02-.16,0-.33-.01-.48-.02-.86-.3-1.46-.82-1.52-1.32-.04-.28-.01-.54.04-.81.23-.03.47-.07.73-.12.01.21.09.45.31.71Zm-2.64,4.06c.06.05.12.1.19.13,3.63,1.74,7.27.4,8.59-.21.3.28.79.69,1.46,1.17-.68,2.25-1.63,4.26-2.68,5.66-.17-.05-.34-.09-.52-.09-.93,0-1.68.75-1.68,1.68,0,.1,0,.21.03.31-.01,0-.02.01-.03.02-.29-.91-1.13-1.58-2.14-1.58-.44,0-.85.13-1.2.35-.02-.08-.05-.15-.07-.24.31-.31.51-.72.51-1.18,0-.67-.4-1.25-.98-1.51-.16-.82-.42-1.77-.99-2.62-.26-.39-.67-1.35-1.1-2.64.19.32.44.59.6.74Zm7.05,8.53c-.06,0-.11-.04-.12-.04h0s-.06-.1-.06-.14c0-.15.21-.24.32-.12.02.03.04.07.04.12,0,.1-.08.18-.18.18Zm-6.08-2.5c0,.12-.1.17-.18.18-.1,0-.18-.08-.18-.18,0-.08.06-.15.14-.17.02,0,.04,0,.06,0,.09,0,.16.08.16.16Zm1.59,3c.11-.26.38-.43.67-.43.41,0,.75.34.75.75,0,.04,0,.07-.02.14-.06.34-.38.61-.73.61-.41,0-.75-.34-.75-.75,0-.1.02-.19.08-.32Zm11.41-7.37c-.85-.46-1.67-.96-2.4-1.45l-.33-.24c-.45-.32-.8-.6-1.07-.82.59-.53.87-1.23.96-1.88.12.03.21.05.27.06l.22.1s0,0,0,0c0,0,0,0,0,0,.7.29,2.47,1.01,3.81,1.36,0,0,0,0,0,0,.11.03.21.05.31.07l-.71,3.36c-.37-.19-.74-.38-1.08-.57Zm-15.85-24.31v-1.08c.69.53,1.51.81,2.34.81,1.02,0,2.03-.4,2.78-1.19.29-.3.27-.77-.03-1.06-.3-.29-.78-.27-1.06.03-.88.93-2.36.97-3.3.09-.2-.19-.48-.24-.73-.16v-4.44c0-.55.45-.99.99-.99h9.62c.55,0,.99.45.99.99v4.48c-.3-.27-.76-.26-1.04.04-.88.93-2.36.97-3.3.09-.3-.28-.78-.27-1.06.03-.28.3-.27.78.03,1.06.74.7,1.69,1.04,2.63,1.04,1,0,1.99-.39,2.74-1.15v1.42c0,3.2-2.6,5.8-5.8,5.8s-5.8-2.6-5.8-5.8Zm5.8,7.3c1.6,0,3.08-.53,4.29-1.41.27.65.7,1.21,1.28,1.63-.09.88-.53,1.62-1.34,2.2-.06.04-.09.09-.13.14-.07.02-.14.03-.2.07-1.65.98-4.2,1.17-6.07.44-.66-.25-1.47-.72-1.9-1.53.63-.56,1.08-1.29,1.28-2.11.86.36,1.8.55,2.78.55Zm-22.88-13.35c.58.35,1.18.48,1.75.48.48,0,.93-.1,1.34-.25-.03.48-.07.97-.14,1.45l-.04.28c-.61.26-2.03.7-3.34-.29.14-.56.28-1.12.43-1.68Zm-1.6-14.66c0-.24.18-.42.41-.42h4.26c.24,0,.42.18.42.42v4.26c0,.23-.18.41-.42.41h-4.26c-.23,0-.41-.18-.41-.41v-4.26Zm.21,11.16c-.23-.94.38-1.86.39-1.87.17-.25.18-.57.02-.83-.8-1.26-2.36-1.29-3.5-1.31-.2,0-.45,0-.65-.03.09-.15.23-.25.43-.31,1.02-.28,3.04.58,4.08,1.18.25.14.55.14.79-.02.24-.16.37-.44.33-.72-.04-.32-.19-.69-.38-1.08h.89c.17.3.34.61.5.92.96,1.94,1.5,4.04,1.6,6.17-.6.33-1.88.81-2.95-.44,0,0,0,0,0,0-.06-.07-.12-.12-.2-.17-.75-.41-1.2-.92-1.33-1.5Zm.59,6.72c.74.42,1.5.58,2.21.58.45,0,.87-.07,1.26-.17l-1.42,9.61c-.12.84.12,1.68.68,2.32.55.63,1.34,1,2.22,1h0l.81-.04c-.76,1-1.16,2.03-1.2,3.08-.02.77.16,1.43.39,1.95-4.01-.14-7.07-.56-7.52-1.31-.73-1.22.63-8.98,2.57-17.03Zm16.2,18.88s0,0,0-.01c-.02-.35-.29-.62-.62-.68-.06-.01-.11-.03-.17-.03,0,0-.01,0-.02,0-2.9.18-5.95.26-8.7.22-.25-.33-.66-1.03-.63-1.95.03-1.07.65-2.15,1.82-3.23l8.71-.42c-1.43,5.96,1.43,13.93,2.42,15.43.38.57.59,1.22.72,1.84-.2.11-.37.26-.51.44-.02-.24-.06-.48-.18-.71-1.37-2.68-2.67-7.67-2.84-10.9Zm.27,16.84c.13.46.3.95.55,1.52.72,1.62,1.97,2.67,3.72,3.12.66.17,1.34.24,2.02.24,2.61,0,5.14-1.04,5.76-1.51.99-.75,1.56-1.5,1.88-2.15.57.9.99,1.73,1.3,2.44-.21.61-.92,2.23-2.42,2.61-1.82-.98-3.02-.01-4.08.86-.22.19-.45.38-.7.56-.05-.05-.1-.11-.15-.16-2.3-2.59-4.13-1.84-4.63-1.55-.12.07-.22.14-.32.23-.8-.12-3.02-.7-3.97-3.26.03-.1.07-.19.09-.28.26-.98.59-1.87.94-2.67Zm4.01,7.29c.16-.09.34-.14.54-.14.63,0,1.41.47,2.2,1.35-.52.24-1.11.42-1.82.5-.36.04-1.24.08-1.43-.5-.12-.37.06-.95.52-1.22Zm8.31.41c.25.16.65.48.6.88-.05.34-.39.66-.89.81-.36.11-1.44.3-2.84-.68.18-.14.35-.29.51-.42,1.19-.99,1.58-1.25,2.62-.59Zm-18.89,1.38c2.06-.87,3.74-2.4,4.78-4.29,1.12,1.77,2.77,2.49,3.85,2.77-.13.46-.14.95.01,1.42.14.42.75,1.78,3.03,1.52.5-.06.94-.16,1.35-.29l-1.38,2.43c-.2.36-.08.82.28,1.02.36.21.82.08,1.02-.28l1.71-3.01,1.59,2.99c.13.25.39.4.66.4.12,0,.24-.03.35-.09.37-.19.5-.65.31-1.01l-1.01-1.91c.46.15.92.24,1.37.24.38,0,.75-.05,1.12-.16,1.07-.33,1.81-1.11,1.94-2.04.07-.49-.06-.96-.32-1.39.47-.24.86-.56,1.19-.9l-1.53,7.25c-2.53.19-5.03.48-5.6.54l-2.94-.59s0,0,0,0c-1.27-.43-3.03-.82-4.2-.29-.82.37-1.47,1.02-2.16,1.7-.53.53-1.08,1.07-1.73,1.52-.72.48-1.17.85-1.53,1.14-.04.04-.09.07-.13.1-.03-.08-.06-.16-.08-.24-.98-2.86-2.07-6.03-3.94-7.65.65-.3,1.31-.59,2.01-.89Zm12.44,10.98c2.11.97,4.47,1.7,6.88,2.23-1.68,2.54-4.13,4.34-6.59,4.78-2.12.38-4.18-.23-5.97-1.77-.62-.53-1.17-1.13-1.68-1.76.11-.07.22-.15.32-.24,1.21-1.07,2.74-2.88,3.42-3.77.54-.71,1.74-.34,3.63.53Zm-.44-1.84c-1.5-.61-3.28-1.05-4.38.39-.69.91-2.15,2.61-3.22,3.56-.39.35-.96.41-1.41.16l-1.86-1.02c-.23-.13-.46-.39-.46-.5,0-.05.09-.23.49-.48.91-.58,1.4-.97,1.94-1.42.33-.27.75-.61,1.42-1.06.77-.53,1.39-1.15,1.94-1.69.62-.61,1.15-1.14,1.72-1.4.54-.25,1.66-.13,3.08.34.08.04.16.06.24.07l1.46.29c-.67.87-.9,1.93-.96,2.75Zm-12.22,24.01c-.32.43-1.28,1.19-4.1,1.54-5.01.62-8.46.33-9.28-.27-.69-.5-.68-.52-.38-1.33l.11-.31c.56-1.6,1.01-1.88,2.53-1.6.68.13,2.3.03,4.78-.28.95.73,1.99,1.02,3.01,1.02,1.17,0,2.28-.36,3.11-.76.23.45.42.84.46,1.09.05.33-.02.63-.23.9Zm-4.47-22.78c-.34.18-.74.44-.89.94-.19.63.12,1.21.69,2.24.28.5.63,1.14,1.03,1.98,1.47,3.05,1.77,7.86,1.61,10.17-.1,1.49.48,2.9,1.09,4.12-.88.43-2.59,1.02-4.09.18.08-.27.07-.55-.04-.82l-.46-1.1c-1.55-3.72-5.18-12.43-6.65-17.98,0,0,0-.01,0-.02,0,0,0-.01,0-.02-.63-1.95,1.59-4.42,6.19-7.04,1.43,1.12,1.74,2.7,2.13,4.84.12.63.24,1.31.41,2.02l-1.02.49Zm21.02,10.42c-4.57,1.54-9.04,1.04-11.97-1.33-5.61-4.54-6.36-8.6-6.96-11.86-.38-2.08-.74-3.92-2.2-5.33.4-.21.82-.42,1.25-.63,1.89,1.04,3.09,4.55,4.07,7.4.08.24.16.47.24.7-.13.09-.25.17-.4.27-.8.5-1.2,1.1-1.18,1.78.02,1.05,1.09,1.7,1.23,1.77l1.88,1.03c.39.21.81.31,1.24.32.68.9,1.43,1.73,2.27,2.45,1.73,1.48,3.68,2.25,5.72,2.25.49,0,.99-.04,1.5-.14,3.07-.55,5.98-2.76,7.9-5.94,1.24.22,2.48.39,3.69.51-1.12,2.82-4.25,5.41-8.26,6.76Zm21.11-11.33c.05.62-.26,1.19-1.12,2.02-1.86,1.81-14.51,1.96-22.84-1.69-.01-.78.12-2.47,1.42-3.1.75-.09,4.78-.55,7.8-.67h3.83c3.15.12,5.46.64,6.68,1.5.13.09.28.14.43.14.24,0,.47-.11.61-.32.24-.34.16-.81-.18-1.04-1.06-.75-2.66-1.26-4.77-1.54.38-1.02,1.03-1.67,1.44-2.01,4.37,3.07,6.58,5.28,6.7,6.71Zm-7.99-7.56c-.58.55-1.28,1.44-1.66,2.7-.4-.03-.8-.05-1.23-.07h-2.73c1.25-2.67,2.87-3.66,3.52-3.96l2.1,1.33Zm-3.53-2.23c-1.08.71-2.61,2.14-3.74,4.88-.11,0-.21.01-.32.02l1.39-6.59,2.66,1.69Zm-5.05-9.62c-.03-.51,0-2.17,1.4-4.13.24-.35.51-.7.78-1.06.21-.28.43-.59.64-.88.29.15.59.31.9.46l-1.83,8.66c-.46-.92-1.08-1.94-1.89-3.04Zm11.17-5.42c-.92.59-2.85.24-5.74-1.05l.79-3.76c.08,0,.18.02.25.02.34,0,.59-.09.8-.34.15-.18.21-.38.21-.58.95-.17,1.78-.06,2.48.34,1.39.8,1.94,2.5,2.06,2.9-.01,1.27-.3,2.1-.85,2.46Zm-3.12-13.03c.82,1.33,2.38,4.05,3.29,6.81-.19-.15-.39-.3-.61-.43-1.09-.63-2.34-.79-3.74-.49-.06-.1-.12-.21-.2-.34l1.19-5.66s.05.07.07.11Zm4.97-9.56c-.09.29-.26.48-.53.59-.12.05-.41.15-.52.08-.67-.46-.66-4.04-.61-6.43.04.06.07.11.11.17,1.03,2.03,1.93,4.41,1.56,5.59Zm3.95-2.68c-1.1-.32-2.72-1.46-4.2-3.66-.14-.26-.27-.51-.4-.74,4.56,2.48,5.38,4.19,5.35,4.45-.05.03-.29.08-.75-.05Z"/>
</svg>