<?xml version="1.0" encoding="UTF-8"?>
<svg id="icons" xmlns="http://www.w3.org/2000/svg" viewBox="0 0 120 120">
  <path d="m61.52,28.82c-.36-.21-.82-.08-1.02.28-.19.32-.72.33-.91,0-.21-.36-.67-.48-1.02-.28-.36.21-.48.67-.27,1.02.36.63,1.03,1.01,1.75,1.01s1.39-.39,1.75-1.01c.21-.36.08-.82-.27-1.02Z"/>
  <path d="m57.56,29.84c.21-.36.08-.82-.28-1.02-.36-.21-.82-.08-1.02.28-.19.32-.72.32-.91,0-.21-.36-.67-.48-1.02-.28-.36.21-.48.66-.28,1.02.36.63,1.03,1.01,1.75,1.01s1.39-.39,1.75-1.01Z"/>
  <path d="m56.64,31.32c-.3.28-.32.76-.04,1.06.37.39.86.59,1.36.59.45,0,.91-.16,1.26-.5.3-.28.32-.76.04-1.06-.28-.3-.76-.32-1.06-.04-.14.13-.37.12-.5-.02-.28-.3-.76-.32-1.06-.04Z"/>
  <path d="m59,33.01c-.6.55-1.54.52-2.09-.08-.28-.3-.76-.32-1.06-.04s-.32.76-.04,1.06c.59.63,1.38.95,2.18.95.73,0,1.45-.26,2.03-.8.3-.28.32-.76.04-1.06-.28-.3-.76-.32-1.06-.04Z"/>
  <path d="m57.93,27.95c.49,0,.89-.4.89-.89s-.4-.89-.89-.89-.89.4-.89.89.4.89.89.89Z"/>
  <path d="m57.93,15.56c.29,0,.57-.11.77-.32.21-.21.32-.48.32-.77s-.11-.56-.32-.77c-.41-.41-1.13-.41-1.54,0-.21.21-.32.48-.32.77s.11.56.32.77c.21.21.48.32.77.32Z"/>
  <path d="m52.17,20.95c0,.6.49,1.09,1.09,1.09s1.09-.49,1.09-1.09-.49-1.09-1.09-1.09-1.09.49-1.09,1.09Z"/>
  <path d="m62.18,24.44c.6,0,1.09-.49,1.09-1.09s-.49-1.09-1.09-1.09-1.09.49-1.09,1.09.49,1.09,1.09,1.09Z"/>
  <path d="m52.88,23.35c0,.6.49,1.09,1.09,1.09s1.09-.49,1.09-1.09-.49-1.09-1.09-1.09-1.09.49-1.09,1.09Z"/>
  <path d="m52.51,54.44c.18,0,.36-.01.54-.03,1.3-.15,2.73-.91,2.94-2.07.08-.41-.19-.8-.6-.87-.41-.08-.8.19-.87.6-.04.2-.64.73-1.64.85-.67.08-1.89,0-2.51-1.4-.17-.38-.61-.55-.99-.38-.38.17-.55.61-.38.99.65,1.47,1.94,2.31,3.51,2.31Z"/>
  <path d="m64.26,93.54c-.13.79-.75,3.44-3.08,4.47-2.01.88-4.77.25-8-1.84-.35-.22-.81-.13-1.04.22-.22.35-.12.81.22,1.04,2.55,1.65,4.84,2.48,6.85,2.48.92,0,1.78-.17,2.57-.52,2.04-.89,3.51-2.98,3.96-5.59.07-.41-.21-.8-.61-.86-.4-.07-.79.21-.86.61Z"/>
  <path d="m46.6,99.78c.35-.22.46-.67.25-1.03-.21-.35-.68-.46-1.03-.25-.19.11-4.72,2.75-10.91-1.26-.35-.23-.81-.13-1.04.22-.22.35-.13.81.22,1.04,2.93,1.9,5.55,2.46,7.63,2.46,2.91,0,4.75-1.1,4.88-1.18Z"/>
  <path d="m49.21,102.54c-.19-.37-.64-.52-1.01-.33-.19.09-4.72,2.27-10.77-1.3-.36-.21-.82-.09-1.03.26-.21.36-.09.82.26,1.03,2.96,1.75,5.62,2.25,7.7,2.25,2.68,0,4.39-.84,4.51-.9.37-.19.52-.64.33-1Z"/>
  <path d="m46.56,104.85s-3.77,1.61-8.04-.4c-.38-.18-.82-.01-1,.36-.18.37-.02.82.36,1,1.89.89,3.68,1.17,5.17,1.17,2.38,0,4.01-.71,4.12-.76.38-.17.55-.61.38-.99s-.61-.55-.99-.38Z"/>
  <path d="m96.89,23.1c.02-.51-.17-1.01-.53-1.37-.67-.68-1.76-.73-2.49-.12l-2.15,1.79c-.28-.25-.71-.26-.99,0l-8.87,7.86c-.75.04-1.43.36-1.92.83-2.89-.24-4.78.82-5.88,1.78-1.61,1.43-2.54,3.54-2.54,5.8v.19c0,.32,0,.58.05.9l-.56.51c-.35-.45-.74-.85-1.15-1.22.52-.9.73-2.15.48-3.21-.25-1.12-.97-1.93-2.02-2.29-.36-.13-.48-.39-.69-1.06-.24-.77-.57-1.81-1.87-2.3-.15-.06-.2-.1-.21-.1h0c-.02-.08.03-.33.06-.51.12-.66.3-1.67-.66-2.63,1.01-.9,1.79-2.08,2.24-3.41.72-2.13.53-4.39-.53-6.39-1.94-3.67-4.83-6.72-8.35-8.81-.23-.14-.53-.14-.77,0-3.53,2.08-6.42,5.13-8.38,8.8-1.06,2-1.25,4.27-.53,6.4.44,1.31,1.21,2.47,2.2,3.37-1.79,1.43-1.83,2.8-1.85,3.75-.01.6-.04.83-.26,1.03-1.47,1.3-1.53,2.41-1.56,3.22-.03.7-.05.97-1.17,1.41-1.29.51-2.06,1.22-2.29,2.11-.14.54-.04,1.03.1,1.4-.17.14-.34.3-.52.48-.01.01-.02.02-.03.03-.59.59-1.21,1.38-1.53,2.38-.52,1.61-1.58,4.17-1.91,4.95-.46.29-1.39,1-1.94,2.25-.49,1.14-.63,1.98-.67,2.39-3.28-2.63-4.63-4.17-4.65-4.19-.04-.05-.09-.09-.14-.13-.08-.06-1.89-1.37-1.33-3.25.21-.7.53-1.39.81-2,.54-1.17,1.01-2.18.63-3.03-.19-.44-.57-.75-1.13-.93-1.08-.35-2.51.06-3.64,1.04-1.53,1.33-2.2,3.38-1.84,5.62,0,0,0,0,0,0,0,.03,0,.07.01.1.74,4.32,5.72,12.2,9.32,13.07.17.66.51,1.29,1.13,1.84.72.64,1.75.84,2.74.84,1.33,0,2.6-.35,3.01-.48l.67-.02c.25.28.63.69,1.09,1.12-4.2.4-13.68,1.94-14.44,7.83-.6,4.7,2.57,9.16,5.75,11.77.2.17.41.32.62.47-2.65.82-4.01,2.59-4,5.3,0,.34.06.67.17.98-.77.58-1.34,1.18-1.73,1.79,0,0,0,0,0,0-1.33,2.05-.76,4.18-.1,5.75.39.93.93,1.71,1.46,2.45.85,1.21,1.66,2.36,1.99,4.27.62,3.54,1.44,4.83,5.11,5.48,2.28.4,7.27.47,10.3.47,1.11,0,1.95,0,2.29-.01,1.94,1.02,4.81,1.34,7.59,1.34,2.55,0,5.01-.26,6.56-.47,2.38-.32,6.83-.29,11.14-.25,5.96.04,11.59.09,13.68-.66,2.21-.8,4.57-2.77,3.22-7.65-.25-.9-.77-1.82-1.32-2.8-1-1.78-2.04-3.62-1.19-5.03.92-1.53,1.11-3.31.54-4.89-.43-1.18-1.49-2.73-3.97-3.78.67-1.73,1.16-3.77,1.39-5.3.28-1.83-.03-3.35-.92-4.6-.02-.03-.03-.05-.05-.07-.44-.59-1.02-1.12-1.74-1.59-.03-.02-.06-.04-.09-.06-.21-.13-.42-.27-.65-.4-2.28-1.2-5.3-2.62-8.42-2.85-.71-.05-1.34-.11-1.92-.2.2-1.16.5-3.68.55-8.33,1.75-.12,3.59-.48,5.39-.93,2.24-.57,4.17-.67,5.91-.32,1.01.21,2.05-.02,3.01-.64.32-.21.6-.38.85-.54,1.47-.92,2.35-1.48,1.89-3.11,1.39-.64,2.22-1.08,2.4-1.9.1-.46-.05-.92-.45-1.37-1.14-1.31-4.14-.23-6.37,1.04-.31-.05-.66-.01-1.05.12-2.33.81-4.13,1.23-5.85,1.36l-2.7.21c3.5-2.64,5.87-10.1,6.02-10.56.5-1.12.86-2.18,1.12-3.19,0-.03.02-.06.02-.09.74-2.91.6-5.33-.02-7.13l8.42-7.88c.15-.14.24-.34.24-.54,0-.15-.06-.29-.14-.42l1.85-1.57c.39-.33.62-.81.65-1.32Zm-9.98,8.71l-1.64-1.58.83-.73,1.68,1.5-.86.81Zm-5.04,12.09c.16-.41.36-.96.53-1.63.61.3,1.22.41,1.73.43-.17.52-.37,1.05-.6,1.6-.59.02-1.2-.2-1.66-.41Zm-6.88,5.85c-1.32.49-2.51,1.24-3.53,2.19-.43-.53-.81-1.03-1.1-1.47.82-.81,1.65-1.61,2.46-2.41,0,0,0,0,0,0,0,0,0,0,0,0,.47-.46.94-.92,1.39-1.37l1.74,2.17c-.37.28-.69.58-.96.88Zm-31.22,10.82c-.09-.14-.56-.96-.1-1.71.41-.67,1.27-.74,1.59-.75,2.54,1.22,4.11,3.4,4.5,4.5.02.07.03.11.04.13-.22.13-.96.21-1.42.25-.36.04-.74.08-1.11.14-.82.14-2.57-1.44-3.51-2.57Zm2.2-7.39c.21-.37.52-.79.76-1.04.19.27.44.73.62,1.06.2.37.42.77.65,1.14.32.52.54,1.05.65,1.59.24,1.18.35,2.21.34,3.02-.89-.88-1.98-1.7-3.23-2.28,0,0,0,0,0,0-.29-.17-.8-.35-1.5-.54,1.15-1.17,1.6-2.54,1.71-2.96Zm6.35-8.83s.06.07.1.1c.48.51.97,1.03,1.43,1.55,2.03,2.34,2.43,6.16,2.12,8.95,0,.04,0,.08.01.12l-5.61,5.16c.28-1.35.04-3.19-.24-4.6-.14-.72-.43-1.42-.84-2.09-.22-.35-.42-.72-.61-1.07-.35-.64-.69-1.25-1.08-1.63-.27-3.29,3.41-5.73,4.74-6.5Zm-1.5-5.39c.18-.07.35-.14.52-.2.97,1.84,2.51,3.11,4.39,3.6,0,.04-.02.08-.02.12,0,1.22,1,2.22,2.22,2.22s2.22-1,2.22-2.22c0-.15-.02-.3-.05-.45.95-.4,1.8-1.01,2.52-1.8.51,2.28,1.05,5.08,1.34,7.51l-6.41,5.89c.06-2.89-.57-6.32-2.57-8.61-.47-.54-.97-1.08-1.47-1.6-1.64-1.74-3.18-3.38-2.69-4.46Zm2.32-.84c1.11,1.31,2.62,2.02,4.28,2.02.27,0,.55-.02.83-.06,1.51-.21,2.8-.96,3.39-1.93.16,0,.37.03.61.07-.72,1.18-1.76,2.04-2.98,2.5-.38-.3-.85-.47-1.34-.47-.63,0-1.21.26-1.6.69-1.5-.33-2.76-1.28-3.57-2.71.15-.05.28-.09.39-.12Zm.83-18.49c.6,0,1.09-.49,1.09-1.09s-.49-1.09-1.09-1.09c-.19,0-.36.06-.51.15.34-.46.72-.92,1.1-1.36-.01.06-.04.12-.04.19,0,.6.49,1.09,1.09,1.09s1.09-.49,1.09-1.09-.49-1.09-1.09-1.09c-.1,0-.19.03-.28.06.89-.93,1.82-1.77,2.65-2.4.91.62,1.83,1.46,2.69,2.41-.11-.03-.21-.07-.33-.07-.6,0-1.09.49-1.09,1.09s.49,1.09,1.09,1.09,1.09-.49,1.09-1.09c0-.06-.03-.11-.03-.17.32.39.62.8.91,1.21-.04,0-.07-.02-.11-.02-.6,0-1.09.49-1.09,1.09s.49,1.09,1.09,1.09c.46,0,.85-.29,1.01-.7.06.1.12.2.18.31.14.27.26.55.35.83-.18-.12-.38-.21-.61-.21-.6,0-1.09.49-1.09,1.09s.49,1.09,1.09,1.09c.39,0,.72-.22.92-.54.06.76-.03,1.51-.29,2.2-.27.73-.7,1.31-1.22,1.67-.08-.1-.16-.19-.25-.28-.07-.08-.15-.15-.23-.23-.12-.11-.25-.22-.39-.32-.09-.07-.18-.13-.27-.19-.14-.09-.3-.17-.45-.25-.1-.05-.19-.1-.29-.14-.17-.07-.36-.12-.54-.17-.09-.02-.18-.05-.27-.07-.28-.05-.57-.09-.86-.09h-2.07c-.3,0-.58.03-.86.09-.09.02-.18.05-.27.07-.18.05-.37.1-.54.17-.1.04-.19.09-.29.14-.15.07-.31.15-.45.24-.09.06-.18.12-.27.19-.13.1-.26.2-.39.32-.08.07-.16.15-.24.23-.1.11-.19.22-.28.33-.68-.44-1.2-1.09-1.49-1.92-.44-1.25-.29-2.68.43-4.02.2-.37.42-.74.67-1.1,0,.05-.03.1-.03.16,0,.6.49,1.09,1.09,1.09Zm.74,16.56c.91.64,2.02,1.03,3.22,1.03.89,0,1.72-.21,2.47-.58v.67c-.27.53-1.18,1.14-2.36,1.3-.86.12-2.43.06-3.71-1.4.18-.31.3-.66.38-1.01Zm3.22-.47c-2.26,0-4.09-1.84-4.09-4.1v-3.42c0-1.69,1.37-3.06,3.06-3.06h2.07c1.68,0,3.05,1.37,3.05,3.06v3.42c0,2.26-1.83,4.1-4.09,4.1Zm8.24,9.82s.04.08.06.12l-.93.85c-.38-2.74-1.01-5.73-1.54-7.92,0,0,0-.02.01-.03.57.15,1.19.36,1.84.63-.5,2.95.51,6.21.55,6.35Zm7.49-4.67l2.33,1.94c-1.14,1.14-2.41,2.39-3.72,3.68l-2.3-2.23,3.69-3.39Zm6.15-5.65c.62.55,1.03,1.39,1.24,2.54-.24.24-.64.65-1.17,1.18l-2-1.94,1.93-1.77Zm-3.04,2.79l2.04,1.99c-.52.52-1.11,1.11-1.76,1.75l-2.29-1.9,2-1.84Zm-7.91,7.27l2.34,2.27c-.7.69-1.4,1.38-2.11,2.07l-2.25-2.48,2.02-1.86Zm-3.17,14.86c-.51.88-.93,1.69-1.23,2.4-2.9.64-5.77.6-7.64.46.31-.28.64-.57,1-.88.68.62,1.51.94,2.46.94.33,0,.66-.04,1.01-.11,2.4-.51,3.81-3.03,4.19-7.48,0-.09,0-.18-.03-.26.54-.51,1.09-1.04,1.66-1.59-.24,3.18-1.33,6.26-1.43,6.52Zm.04-11.99l2.28,2.51c-1.01.98-2.01,1.95-2.97,2.87l-2.59-2.36,3.28-3.02Zm-5.44,11.81c.29-.25.61-.54.95-.84h0c.76-.69,1.63-1.49,2.58-2.37-.34,2.18-1.12,4.36-2.84,4.72-.82.17-1.48.05-2.01-.36.25-.22.51-.44.78-.68l.54-.47Zm1.04-7.78l2.61,2.38c-1.16,1.1-2.24,2.11-3.18,2.97l-2.44-2.58,3-2.76Zm-4.11,3.78l2.42,2.57c-.11.1-.23.21-.34.3l-.54.47c-.3.26-.59.51-.86.75l-2.2-2.69,1.52-1.4Zm-2.63,2.41l2.17,2.66c-.73.64-1.37,1.21-1.95,1.73,0,0,0,0,0,0l-2.29-2.48,2.07-1.91Zm2.7-16.25c.12-.22.36-.37.62-.37.23,0,.43.1.58.31.09.11.14.26.14.42,0,.4-.32.72-.72.72s-.72-.32-.72-.72c0-.11.03-.22.11-.35Zm-6.22,21.41c.25-.4.28-.88.08-1.43-.05-.13-.12-.27-.18-.41l.44-.4,2.31,2.5c-.67.65-1.21,1.23-1.66,1.8l-1.69-1.47c.29-.13.53-.31.7-.58Zm.71,5.52c.19-.48.39-.92.63-1.34.1.01.29.04.55.07.19.75.58,1.4,1.11,1.91-.47.25-.89.33-1.1.35-.66.07-1.18-.13-1.38-.37.06-.25.12-.46.19-.63Zm2.84-1.09c.3.03.62.05.97.07-.12.25-.24.47-.38.67-.23-.2-.43-.44-.58-.74Zm2.54.15c.45.01.91.02,1.39.02.15,0,.3,0,.45,0-.61.95-1.54,1.26-2.33,1.19-.02,0-.05,0-.07-.01.22-.35.4-.76.56-1.2Zm5.69-.23c.45.54.9.97,1.32,1.27-.74.1-1.6-.19-2.26-1.17.31-.03.63-.07.94-.1Zm1.78-.28c.42-.08.84-.18,1.25-.29,0,.37-.1.69-.27.96-.32-.14-.65-.36-.98-.67Zm2.74-.66c.21.22.42.45.63.66-.12.19-.36.46-.74.65.12-.4.17-.85.11-1.32Zm-13.98-.61c.49-.6,1.12-1.23,1.92-1.99.81.1,2.15.23,3.78.23s3.62-.15,5.62-.58c.31.35.85.96,1.49,1.67-4.55,1.42-10.63.91-12.8.67Zm14.91-10.33c.22-1.23.37-2.57.34-3.88.2-.2.4-.39.61-.59.29.41.69.95,1.17,1.53-.1.12-.21.23-.3.36-.58.8-1.2,1.68-1.82,2.59Zm8.71-8.18l-1.01-1.26c.52.23,1.06.4,1.62.5l-.61.76Zm1.72-2.13c-.96-.05-1.89-.33-2.72-.82,1.74-1.72,3.26-3.25,4.39-4.37,0,0,0,0,0,0s0,0,0,0c.29-.29.57-.57.8-.8,0,.06,0,.11,0,.16,0,1.83-.81,3.64-.96,3.95l-1.51,1.87Zm5.53-10.82s0,.01,0,.02c.61,1.42.91,3.53.26,6.31-.45.03-1.19-.02-1.87-.52.03-.27.04-.54.04-.82,0-2.77-.64-4.67-1.95-5.81-.19-.17-.19-.4,0-.68.28-.42,1.05-.92,1.91-.48.53.27,1.15.94,1.6,1.99Zm-9.23.1c1.09-.96,2.49-1.45,4.1-1.45-.01.09-.01.17-.01.25l-6.1,5.61c.07-1.73.79-3.33,2.02-4.42Zm-6.59,8.62c-.05.03-.11.06-.15.1-.02.03-.04.06-.06.09l-.81.75c-.23-.92-.62-2.85-.42-4.66,1.08.6,2.1,1.39,2.87,2.41l-1.44,1.32Zm-4.32-13.32c-.12.61-.33,1.76,1.1,2.29.59.22.74.61.96,1.34.22.7.52,1.65,1.63,2.04.56.19.91.6,1.05,1.21.15.65.02,1.4-.22,1.94-2.52-1.69-5.46-2.27-6.77-2.41v-1.13c.12-.12.23-.24.34-.37.16.36.4.71.71,1.01.61.61,1.32.93,1.95.93.4,0,.76-.13,1.04-.41.27-.27.41-.62.41-1.04,0-.64-.35-1.36-.93-1.95-.42-.42-.92-.72-1.4-.85-.22-.06-.42-.07-.62-.06.09-.39.13-.79.13-1.2v-2.67c.08-.04.15-.08.23-.12.59.46.52.85.41,1.45Zm-.63,4.03c.16.02.48.14.83.49.34.34.46.67.49.83-.16-.02-.48-.14-.83-.49-.34-.34-.46-.66-.49-.83Zm-13.45-10.26c-.59-1.74-.43-3.59.44-5.22,1.75-3.3,4.32-6.05,7.44-7.98,3.11,1.95,5.67,4.7,7.41,7.99.86,1.62,1.02,3.47.43,5.2-.45,1.32-1.28,2.45-2.37,3.22-.04-.2-.11-.39-.18-.59.83-.54,1.5-1.39,1.9-2.46.67-1.81.51-3.88-.45-5.69-1.52-2.87-4.01-5.65-6.36-7.08-.26-.16-.59-.15-.83.03-2.18,1.56-5.06,4.43-6.58,7.3-.91,1.72-1.1,3.57-.52,5.22.41,1.18,1.19,2.12,2.19,2.73-.06.17-.12.34-.16.53-1.08-.77-1.92-1.89-2.36-3.21Zm-3.52,14.65c1.87-.74,2.07-1.67,2.12-2.73.03-.69.06-1.29,1.06-2.17.73-.64.75-1.46.76-2.11.02-.86.06-1.76,1.61-2.85.07.04.15.08.22.12v2.67c0,.44.06.87.15,1.29-.38-.19-.84-.21-1.33-.03-.48.17-.95.51-1.33.96-.38.45-.64.97-.74,1.47-.12.64.05,1.2.46,1.55.25.22.58.33.93.33.22,0,.44-.04.67-.12.47-.17.95-.51,1.33-.96.38-.45.64-.97.73-1.46.05.08.1.15.15.23-.03.83-.24,1.6-.42,1.74,0,0,0,0-.01,0,0,0-.01.01-.02.02-.29.06-.84.24-1.5.49,0,0,0,0,0,0,0,0,0,0,0,0-1.92.71-4.9,1.99-6.24,2.76,0-.04,0-.07,0-.11.1-.38.59-.76,1.38-1.07Zm5.21-4.44c0,.16-.1.49-.42.86h0c-.31.37-.62.52-.78.55,0-.16.1-.49.42-.86.31-.37.62-.52.78-.55Zm-8.96,10.97c1.25.31,2.01,1.42,2.02,1.43.14.22.38.34.63.34.14,0,.29-.04.41-.12.35-.23.44-.69.21-1.04-.05-.07-1.03-1.51-2.76-2.01.2-.46.48-.86.78-1.2,1.78.2,2.72,2.06,2.73,2.07.13.27.4.43.68.43.11,0,.22-.02.32-.07.37-.18.53-.63.36-1-.05-.09-.9-1.84-2.67-2.61,0,0,.01,0,.01,0,.16-.12.42-.27.73-.43,1.92,1.11,2.24,2.25,2.24,2.25.07.36.38.6.73.6.05,0,.1,0,.15-.02.41-.08.67-.48.59-.88-.03-.17-.35-1.43-2.13-2.72.44-.2.89-.4,1.36-.6.11,1.18,1,2.39,2.07,3.59-1.72,1.04-5.37,3.7-5.2,7.52-.31.21-.6.52-.84.83-1.23-1.48-2.88-2.39-3.82-2.82.35-.83.93-2.26,1.39-3.53Zm-3.53,6.27c.34-.78.91-1.27,1.23-1.5.78.32,2.79,1.29,3.95,3.01-.16.5-.61,1.6-1.61,2.41-.78-.75-2.37-2.13-4.04-2.51.08-.35.22-.84.47-1.41Zm-10.37-1.15s0-.01-.01-.02c.59-.08,1.23-.34,1.85-.88.01.01.02.02.03.03-.26.47-.83,1.08-1.87.87Zm.99-2.15c-.37.38-.9.73-1.68.65-.34-.83-.59-1.62-.74-2.34.29-.14.87-.26,1.25-.33.26-.05.54-.11.8-.17-.1.84.07,1.58.37,2.19Zm-1.13-6.25c.84-.73,1.73-.9,2.2-.75.17.05.21.1.21.1.11.22-.34,1.21-.62,1.8-.14.3-.29.63-.43.97-.15.34-1.04.51-1.69.64-.37.07-.74.16-1.08.26.07-1.22.56-2.28,1.41-3.03Zm.97,9.93c.94-.13,1.66-.69,2.13-1.33.64.67,2.07,2.05,4.57,4.04-.55.96-1.11,2.19-1.26,3.42-1.56-.68-3.76-3.27-5.44-6.12Zm7.66,8.45c-.8-.71-1.55-2.11.94-5.96.89.15,1.89.79,2.68,1.44-.82-.04-1.83,0-2.95.27-.4.1-.65.5-.55.91.1.4.5.65.91.55.78-.19,1.5-.24,2.11-.24-.37.46-.62,1-.69,1.64-.1.81.08,1.39.31,1.77-1.01.14-2.17.13-2.75-.38Zm4.67-.02h0c-.09-.01-.39-.07-.57-.3-.15-.19-.21-.49-.16-.89.07-.53.31-.94.72-1.22.22-.15.47-.25.72-.31-.14.14-.27.31-.38.5-.49.8-.47,1.6-.33,2.22Zm3.75,3.96c.46.23.93.38,1.39.38.11,0,.22,0,.32-.03.33-.06.68-.09,1.01-.12l2.69,2.34c-.31.52-.58,1.07-.81,1.68-.33.85-.53,2.19-.79,3.9-.38,2.54-.88,5.87-2.06,8.35-1.72,1.43-3.44,2.01-5.13,1.7-3.56-.65-5.96-4.94-5.98-4.98-.09-.17-.26-.3-.45-.36-.25-.07-6.1-1.86-4.72-7.32,2.12-4.87,13.38-5.48,14.54-5.53Zm10.41,19.1s0,0,0,0c.02,0,.04,0,.06,0,3.09-.43,5.94-1.14,6.81-1.36.96,1.2,2.09,2.95,3.03,4.4,1.75,2.7,3.69,5.67,5.91,8.14-1.45,4.25-2.85,6.67-4.38,8.08,1.26-2.09,2.2-5.31,1.16-9.98-.09-.41-.5-.66-.9-.57-.4.09-.66.49-.57.9,1.74,7.81-2.63,10.98-3.38,11.46-.96.19-1.99.28-3.12.37-.77.06-1.58.13-2.44.23-3.75.44-6.33.04-7.37-.33.08-.03.18-.06.3-.09.98-.28,1.93-.62,2.49-1.21,0,0,0,0,0,0,0,0,0,0,0,0,.2-.22.35-.46.43-.75.32-1.2-.74-2.4-2.27-3.97-.8-.82-1.25-1.76-1.69-2.68-.48-1.01-.98-2.03-1.89-2.78.09.02.19.02.29,0,.56-.14,2.26.67,3.63,1.3,2.16,1.01,4.55,2.13,6.59,2.13.63,0,1.23-.11,1.78-.36,1.04-.47,1.76-1.41,2.15-2.77,1.83-6.43,1.82-8.34,1.82-8.54-.01-.41-.36-.71-.77-.72-.41.01-.74.35-.73.76,0,.02,0,1.88-1.76,8.08-.27.94-.7,1.53-1.33,1.82-1.69.77-4.7-.63-7.11-1.76-.7-.33-1.34-.63-1.93-.87,1.03-.44,1.89-.97,2.52-1.59.05,0,.11,0,.16,0,5.6,0,7.44-5.42,7.46-5.47.13-.39-.09-.82-.48-.95-.39-.13-.82.09-.95.48-.01.04-1.33,3.82-5.13,4.36.15-.39.23-.8.23-1.22.03-2.14-1.44-3.38-3.44-4.19.19,0,.37.01.57.01,1.34,0,2.81-.14,4.24-.33Zm-22.88,4.92c0-.26.01-.53.05-.8,1.21,1.59,4.35,2.45,8.82,2.45.78,0,1.6-.03,2.46-.08,4.83-.3,7.69-1.25,8.56-2.8.09.25.13.52.13.81-.02,2.02-3.43,4.17-9.7,4.17-5.88,0-10.31-1.61-10.32-3.75Zm10.32,5.25c.29,0,.58-.01.87-.02.03,0,.06.02.09.02,2.89.04,3.47,1.25,4.35,3.08.47.98,1,2.08,1.97,3.08.24.25.71.73,1.13,1.22-.25-.21-.72-.62-1.56-1.44-.24-.24-.49-.49-.76-.78-1.24-1.3-2.99-3.12-6.71-5.18.21,0,.41.01.63.01Zm-11.27-16.64c.96.76,2.02,1.28,2.9,1.57.64,1.05,3.13,4.78,6.87,5.47.39.07.79.11,1.18.11.44,0,.87-.05,1.31-.14-.09.04-.17.08-.26.11-2.17.73-5.32-.3-8.21-2.67-1.6-1.31-2.89-2.85-3.79-4.45Zm10.53,8.84c.69,0,1.34-.1,1.94-.3.87-.29,1.61-.78,2.24-1.4,1.97.4,3.56.84,4.64,1.44,0,0,0,0,0,0,.14.14.36.43.24.75-.11.28-.98,1.72-7.41,2.12-6.19.39-9.25-.69-10.04-1.83-.24-.34-.26-.71-.1-1.15.63-.57,1.61-1.03,3.12-1.27,1.84,1.06,3.7,1.63,5.36,1.63Zm-3.93,21.79c-2.97-.53-3.36-1.23-3.89-4.26-.39-2.24-1.37-3.64-2.24-4.87-.5-.71-.97-1.39-1.3-2.17-.46-1.11-.78-2.26-.46-3.4,3.42,3.6,9.28,3.77,9.55,3.77h.01c.41,0,.74-.33.75-.73,0-.41-.32-.76-.73-.77-.06,0-5.91-.18-8.82-3.68.25-.3.55-.59.92-.88,1.14,1.25,3.28,2.17,6.17,2.63,5.94,2.62,8.11,4.89,9.69,6.55.28.3.54.57.8.82,1.3,1.26,1.81,1.67,2.04,1.82l.49.42c-.26.11-.6.23-1.05.35-1.08.31-1.67.75-1.76,1.33-.38,1.36-.25,2.54.4,3.5-2.88,0-8.3-.04-10.58-.45Zm50.79.48c-1.83.66-7.85.61-13.16.58-4.56-.03-8.86-.07-11.35.27-5.66.76-12.38.76-14.29-1.48-.32-.37-.47-.81-.5-1.32,1.17.46,2.96.64,4.79.64,1.14,0,2.29-.07,3.32-.19.84-.1,1.63-.16,2.38-.22,5.02-.4,8.69-.7,12.22-10.53.13.13.26.27.4.39.72,1.17,5.63,9.02,7.93,10.08,1.22.56,4.31,1.25,6.75,1.25,1.53,0,2.8-.27,3.19-1.02.22-.41.24-.86.07-1.29-.06-.14-.14-.28-.23-.41.39-.08.71-.2.94-.36.04-.03.1-.07.16-.12.05,1.87-.82,3.08-2.63,3.73Zm-7.29-8.66c-.54.57-1.82,1.54-3.98,1.43-.25-.35-.51-.71-.76-1.07,1.76-.17,3.13-.96,3.9-1.51l.85,1.15Zm.89,1.23l1.31,1.92c.77,1.13,2.12,1.92,3.81,2.24.04,0,.08.01.11.02.79.28,1.5.77,1.57.94-.69.59-5.84.16-8.02-.85-.57-.26-1.49-1.26-2.53-2.59,1.84-.19,3.06-1.03,3.75-1.69Zm-2.78-6.33c.15-.45.31-1.22.27-2.33.86,1.93,1.43,3.71,1.79,5.13l-2.06-2.8Zm-1.02,1.14l1.18,1.6c-.73.53-2.2,1.36-4.02,1.24-.39-.58-.77-1.16-1.12-1.71,1.83-.03,3.21-.67,3.96-1.13Zm10.55-5.82c.42,1.15.27,2.46-.42,3.6-1.3,2.16.02,4.49,1.17,6.54.5.9.98,1.74,1.18,2.46,0,.03.01.06.02.09-.51-.25-1.3-.54-2.54-.98l-.7-.25c-1.91-.69-2.1-2.29-2.33-4.14-.14-1.12-.28-2.27-.83-3.25-.71-1.26-.97-4.71-.23-5.15.55-.33,1.05-1,1.49-1.84,1.62.67,2.71,1.68,3.17,2.93Zm-5.32-14.99s.06.04.09.05c-.37.86-1.49,2.55-4.56,2.88-.41.04-.71.41-.67.82.04.39.37.67.75.67.03,0,.05,0,.08,0,3.53-.37,5.04-2.28,5.66-3.51.17.15.31.31.45.47-.73,3.23-4.29,4.03-4.45,4.07-.4.09-.66.48-.58.89.07.35.39.6.73.6.05,0,.1,0,.15-.02.17-.03,3.5-.77,5.03-3.63.1.57.1,1.19,0,1.88-.02.1-.03.21-.05.31-1.28,2.91-3.95,3.27-4.06,3.29-.41.05-.71.42-.66.83.04.38.37.67.74.67.03,0,.06,0,.08,0,.1-.01,1.58-.2,3.06-1.33-.59,1.86-1.32,3.34-1.9,3.69-.43.26-.71.7-.9,1.24-1.52-3.15-4.24-8.3-7.25-11.49l-.3-.32c-3.22-3.43-5.23-5.57-11.9-5.61-.05,0-.11,0-.16,0-1.06,0-2.24.05-3.56.16-.01,0-.03,0-.04,0-1.33.11-2.8.27-4.44.5-.04,0-.07.03-.11.04-.05.01-.1.03-.14.05-.05.03-.09.07-.13.1-.03.02-.06.04-.08.06,0,.01-.02.02-.03.03,0,0,0,0,0,0-1.17,1.39-1.7,2.86-1.56,4.36.24,2.47,2.22,4.08,2.31,4.15.14.11.3.16.47.16.22,0,.44-.1.59-.28.26-.32.21-.79-.11-1.05-.02-.01-1.58-1.3-1.75-3.13-.09-1.02.28-2.04,1.08-3.05.72-.1,1.41-.18,2.06-.26-.3.47-.53.98-.64,1.53-.45,2.32,1.04,4.49,1.11,4.58.15.21.38.32.61.32.15,0,.3-.04.43-.14.34-.24.42-.7.19-1.04-.01-.02-1.19-1.75-.86-3.44.16-.81.64-1.47,1.45-2.04.52-.04,1.03-.08,1.5-.1-1.44,2.21-.61,4.68.18,5.85.14.21.38.33.62.33.14,0,.29-.04.42-.13.34-.23.43-.7.2-1.04-.2-.3-1.82-2.91.6-5.05,5.82.05,7.56,1.91,10.62,5.16l.3.32c4.14,4.41,7.9,13.07,8.18,13.71.16,1.14.47,2.18.75,2.69.4.72.52,1.68.64,2.7.24,1.95.53,4.37,3.31,5.37l.7.25c.68.24,1.29.46,1.74.64-.44.06-1.09.09-1.84-.04-.02,0-.03,0-.05,0-.04,0-.08-.01-.12-.02-.75-.14-2.12-.54-2.85-1.61l-1.15-1.69c-.14-1.2-1.11-7.69-5.52-13.92-.91-1.96-2.3-4.27-4.39-6.94-.26-.33-.73-.39-1.05-.13-.33.25-.38.73-.13,1.05,1.43,1.83,2.51,3.47,3.32,4.93,1.29,5.1-1.82,7.11-1.95,7.2-.35.21-.47.68-.25,1.03.14.23.39.36.64.36.13,0,.27-.03.39-.11.13-.08,2.36-1.48,2.89-4.71,1.04,3.11.57,4.77.42,5.17-.45.34-2.13,1.4-4.61,1.06-2.36-2.22-4.44-5.24-6.31-8.1.82-.42,2.63-1.64,4.15-4.61,2.67,4.1.76,7.85.67,8.02-.2.37-.06.82.31,1.01.11.06.23.09.35.09.27,0,.53-.14.66-.4.11-.21,2.67-5.18-1.29-10.3.3-.78.59-1.65.83-2.63.1-.4-.15-.81-.55-.91-.4-.1-.81.14-.91.55-1.5,6.07-4.51,7.67-5.05,7.92,0,0,0,0,0,0-.66-1.02-1.27-1.95-1.84-2.78,1.56-.26,3.89-1.34,5.32-5.21.14-.39-.05-.82-.44-.96-.39-.14-.82.05-.96.44-1.55,4.19-4.14,4.36-4.94,4.31-1.32-1.7-2.44-2.59-3.61-2.21-.39.13-.61.55-.48.94.13.39.55.61.95.48.13-.04.3.02.5.15-1.68.41-3.67.81-5.6,1.08-1.5-.54-2.8-1.82-3.41-3.4-.45-1.17-.71-3.01.54-5.13.21-.36.09-.82-.26-1.03-.36-.21-.82-.09-1.03.26-1.22,2.06-1.46,4.34-.66,6.43.47,1.24,1.3,2.34,2.31,3.15-2.19.18-4.06.1-5.02-.43,0-.02.02-.04.03-.06.04-.06.07-.12.09-.18,1.3-2.7,1.83-6.16,2.22-8.82.07-.48.14-.93.21-1.35.42.19.9.29,1.43.29.13,0,.27,0,.4-.02.76-.07,1.61-.38,2.36-.98.34.12.69.22,1.06.25.12.01.25.02.37.02,1.53,0,2.83-.86,3.57-2.29.89,1.5,2.19,2.13,3.42,2.13.43,0,.85-.08,1.24-.22.33-.12.64-.3.92-.52.14.02.27.02.39.02.66,0,1.18-.2,1.5-.36.41-.21.8-.54,1.1-.9.32.32.61.6.87.83,1.25,1.12,2.53,1.69,4.13,2.01,0,0,0,0,0,0,0,0,0,0,.01,0,.86.17,1.8.28,2.9.36,2.84.21,5.67,1.54,7.82,2.68Zm-13.86-6.18c-1.4-1.25-4.16-4.33-5.07-5.37.44-1,1.21-2.36,2.24-3.99,1.46,2.04,3.64,2.79,6.11,2.87-.05,4.48-.35,6.92-.53,7.99-1.04-.29-1.9-.75-2.75-1.5Zm21.02-14.25c1.15-.32,1.58-.17,1.63-.11.03.03.05.06.07.09-.22.22-.93.55-1.58.86-.32-.29-.74-.45-1.23-.45.37-.15.75-.28,1.11-.38Zm-4.41,2.24c-.25.32-.44.67-.53,1.02-.18.01-.35,0-.46-.03.12-.25.48-.6.99-.99Zm-5.99.68c1.22-.09,2.5-.34,3.92-.73-.7.95-.45,1.6-.17,1.93.83,1.01,2.45.54,2.64.48.37-.11.59-.49.51-.87-.06-.3.84-1.44,1.97-1.79.59-.18.67.02.71.11,0,0,0,0,0,0q.42,1.01-1.07,1.95c-.26.16-.55.35-.88.56-.63.41-1.26.55-1.89.43-1.96-.4-4.11-.29-6.57.34-6.57,1.66-10.03,1.14-11.73-1.82.7-1.05,1.48-2.17,2.35-3.38.03-.04.07-.08.11-.13.81.81,1.74,1.57,2.74,2.05-2.12.43-2.88,1.71-2.91,1.78-.2.36-.07.8.28,1.01.12.07.25.1.37.1.26,0,.51-.13.65-.36.03-.04.7-1.1,2.87-1.17.04,0,.08-.02.12-.03l5.98-.46Zm-4.36-2.07c-1.49.71-3.28-.48-4.74-1.96.37-.35.78-.67,1.2-.95-.1.32-.13.53-.13.56-.05.41.24.79.65.84.03,0,.06,0,.1,0,.37,0,.69-.28.74-.65,0-.02.27-1.93,2.39-3.19.05-.03.09-.08.13-.12.02-.02.05-.03.07-.06l3.47-4.31c.46.23,1.15.51,1.9.59-1.01,2.85-3.28,8.03-5.8,9.22Zm6.41-23.31l.53-.47,1.67,1.6-.59.55c-.46-.76-1.02-1.33-1.61-1.69Zm5.26-1.72l-1.65-1.47,3.99-3.54,1.48,1.42-3.83,3.59Zm6.4-6.7l-1.94,1.64-.51-.49,2.01-1.68c.13-.11.34-.1.46.02.09.09.1.2.1.25,0,.06-.02.16-.12.24Z"/>
  <path d="m37.12,71.47c-.27.31-.24.79.07,1.06l3.51,3.06c.14.12.32.19.49.19.21,0,.42-.09.57-.26.27-.31.24-.79-.07-1.06l-3.51-3.06c-.31-.27-.79-.24-1.06.07Z"/>
  <path d="m39.18,71.69c.15.18.36.27.58.27.17,0,.34-.06.48-.17l6.29-5.21c.32-.26.36-.74.1-1.06-.26-.32-.74-.36-1.06-.1l-6.29,5.21c-.32.26-.36.74-.1,1.06Z"/>
  <path d="m40.73,72.91c.15.18.36.27.58.27.17,0,.34-.06.48-.17l6.42-5.31c.32-.26.36-.74.1-1.06-.26-.32-.74-.36-1.06-.1l-6.42,5.31c-.32.26-.36.74-.1,1.06Z"/>
  <path d="m42.05,73.12c-.32.26-.36.74-.1,1.06.15.18.36.27.58.27.17,0,.34-.06.48-.17l6.15-5.1c.32-.26.36-.74.1-1.06-.26-.32-.74-.36-1.06-.1l-6.15,5.1Z"/>
  <path d="m32.25,72.33c.35,1.11,1.28,1.92,2.2,1.92.41,0,.75-.34.75-.75s-.34-.75-.75-.75c-.17,0-.59-.31-.77-.87-.06-.19-.11-.45-.06-.75.02.06.05.12.08.18.28.56.77.95,1.42,1.13.4.11.81-.12.92-.52.11-.4-.13-.81-.53-.92-.31-.09-.42-.23-.47-.35-.24-.48,0-1.34.1-1.6.12-.31.03-.66-.23-.87-.26-.21-.63-.21-.9-.02-1.58,1.12-2.24,2.69-1.76,4.18Z"/>
  <path d="m45.13,77.83c-.25.13-1.07.47-1.58.28-.12-.04-.28-.13-.4-.43-.16-.38-.59-.57-.98-.42-.38.15-.57.59-.42.98.23.58.62,1,1.14,1.23-.32.09-.61.09-.87,0-.34-.12-.49-.36-.5-.46-.02-.41-.35-.74-.78-.72-.41.01-.74.36-.72.78.03.78.63,1.52,1.5,1.82.21.07.52.15.91.15.88,0,2.17-.38,3.61-2.05.24-.27.24-.68.02-.96-.23-.28-.62-.36-.94-.19Z"/>
  <path d="m46.8,75.66c-.48,0-.86.39-.86.86s.39.86.86.86.86-.39.86-.86-.39-.86-.86-.86Z"/>
  <circle cx="37.05" cy="67.97" r=".86"/>
  <path d="m40.74,68.23c.15,0,.3-.01.46-.05.83-.17,1.51-.8,2.01-1.86.18-.37.02-.82-.36-1-.38-.18-.82-.02-1,.36-.2.42-.52.93-.95,1.03-.47.1-.96-.3-.96-.3-.31-.27-.79-.24-1.06.07-.27.31-.24.79.07,1.06.09.08.82.69,1.78.69Z"/>
  <path d="m48.55,74c-.13-.07-.48-.34-.55-.69-.06-.26.04-.57.28-.91.24-.34.16-.81-.18-1.05-.34-.24-.81-.16-1.04.18-.63.89-.63,1.65-.52,2.12.25,1.06,1.18,1.6,1.28,1.66.11.06.24.09.36.09.26,0,.51-.14.65-.38.2-.36.07-.81-.28-1.02Z"/>
</svg>