<?xml version="1.0" encoding="UTF-8"?>
<svg id="icons" xmlns="http://www.w3.org/2000/svg" viewBox="0 0 120 120">
  <defs>
    <style>
      .cls-1 {
        fill: #121112;
      }
    </style>
  </defs>
  <path class="cls-1" d="m62.12,31.61c.39.19.81.28,1.22.28,1.06,0,2.09-.6,2.57-1.62.18-.37.02-.82-.35-1-.37-.18-.82-.02-1,.35-.32.67-1.12.96-1.79.63-.38-.18-.82-.02-1,.36-.18.37-.02.82.36,1Z"/>
  <path class="cls-1" d="m65.82,34.17c-.38-.18-.82-.02-1,.35-.23.48-.63.84-1.13,1.02-.5.18-1.04.15-1.52-.08-.38-.18-.82-.02-1,.35-.18.37-.02.82.35,1,.48.23.99.34,1.5.34.39,0,.79-.07,1.17-.2.88-.31,1.58-.95,1.98-1.79.18-.37.02-.82-.35-1Z"/>
  <path class="cls-1" d="m61.74,34.47c.27.13.55.19.84.19.22,0,.44-.04.65-.11.49-.17.89-.53,1.11-1,.18-.37.02-.82-.35-1-.37-.18-.82-.02-1,.35-.05.11-.14.19-.26.23-.11.04-.23.03-.34-.02-.38-.18-.82-.02-1,.35-.18.37-.02.82.35,1Z"/>
  <path class="cls-1" d="m60.89,31.2c-.37-.18-.82-.02-1,.35-.32.67-1.12.96-1.79.63-.38-.18-.82-.02-1,.36-.18.37-.02.82.36,1,.39.19.81.28,1.22.28,1.06,0,2.09-.6,2.57-1.62.18-.37.02-.82-.35-1Z"/>
  <path class="cls-1" d="m61.12,29.4c.3-.43.37-.98.13-1.46-.24-.48-.72-.76-1.24-.78-.3.42-.37.98-.13,1.46.24.48.72.76,1.25.77Z"/>
  <path class="cls-1" d="m49.21,26.83c-.47,0-.86.38-.86.86s.38.86.86.86.86-.38.86-.86-.38-.86-.86-.86Z"/>
  <path class="cls-1" d="m52.1,22.84c0-.47-.38-.86-.86-.86s-.86.38-.86.86.38.86.86.86.86-.38.86-.86Z"/>
  <path class="cls-1" d="m55.75,18.22c-.47,0-.86.38-.86.86s.38.86.86.86.86-.38.86-.86-.38-.86-.86-.86Z"/>
  <path class="cls-1" d="m62.7,17.71c0-.47-.38-.86-.86-.86s-.86.38-.86.86.38.86.86.86.86-.38.86-.86Z"/>
  <circle class="cls-1" cx="66.29" cy="19.08" r=".86"/>
  <path class="cls-1" d="m22.87,107.44c-.36.5-.48,1.11-.33,1.71.32,1.3,1.48,1.71,3.01,1.71.98,0,2.11-.17,3.26-.4,2.06-.41,3.5-.19,4.66-.02,1.11.16,2.07.3,2.95-.27,1.44-.94,1.77-3.64,1.84-4.57.87-.93,4.41-4.76,7.08-8.21.09.32.38.54.71.54.03,0,.07,0,.1,0,1.7-.23,3.33-.69,4.86-1.35.27.1.55.17.83.17.08,0,.17,0,.25-.01.31-.03.59-.12.84-.25.24.19.47.36.7.51-.01.14-.02.28,0,.43.09.93.72,1.68,1.54,1.98-1.09,1.79-2.23,3.2-3.41,4.16-.32.26-.37.73-.11,1.05.15.18.36.28.58.28.17,0,.33-.05.47-.17,1.51-1.22,2.93-3.04,4.25-5.39.23-.1.45-.25.64-.43.19.06.39.12.6.17.15,1.2,1.17,2.09,2.37,2.09.07,0,.14,0,.22,0,.96-.09,1.74-.77,2.03-1.66.17,0,.34,0,.51-.02.56,1.58,1.22,3.1,2.02,4.45.14.24.39.37.64.37.13,0,.26-.03.38-.11.36-.21.47-.67.26-1.03-.46-.76-.87-1.6-1.24-2.48,0,0,.01,0,.02,0,.08,0,.16,0,.23-.01h0c1.16-.12,2.03-1.06,2.12-2.21.07-.03.14-.05.22-.08.31.31.71.52,1.13.61-.45,1.34-.99,2.57-1.48,3.68-.37.84-.72,1.63-1,2.39-.29.78-.48,1.49-.56,2.17-.19,1.63.53,2.4.98,2.72.43.3.96.45,1.53.45s1.22-.16,1.84-.46c.57-.28,1.61-.23,2.7-.18,1.46.08,3.1.16,4.55-.47,2.1-.9,2.15-2.15,2.08-2.65-.13-.84-.86-1.48-1.81-1.58-1.18-.13-2.66.27-3.27.47l-1.61-.68c.1-.73.36-1.43.77-2.05l.8-1.19c1.9-2.82,4.77-7.09,6.3-9.3,2.67-3.85,1.17-5.98-.57-8.44-.32-.45-.74-1.1-1.19-1.81.26-.43.38-.93.33-1.45,0,0,0,0,0,0-.12-1.14-1.04-2.02-2.17-2.12-.07-.23-.13-.47-.2-.7.68-.48,1.08-1.31,1-2.18h0c-.12-1.13-1-2-2.05-2.12,0-.02,0-.03-.01-.05.98-.37,1.64-1.35,1.53-2.44-.06-.63-.37-1.21-.86-1.61-.32-.26-.69-.42-1.11-.49,0-.05,0-.09,0-.14,1.01-.35,1.69-1.36,1.58-2.46-.09-.91-.68-1.65-1.46-1.97.02-.24.04-.47.06-.69,1.13-.28,1.91-1.35,1.79-2.53h0c-.07-.73-.48-1.37-1.06-1.75.05-.19.1-.37.15-.55.06,0,.12.02.17.02.08,0,.15,0,.23-.01,0,0,0,0,0,0,1.3-.13,2.25-1.3,2.12-2.6-.07-.73-.47-1.36-1.05-1.75.13-.36.24-.73.35-1.12.6-.08,1.15-.37,1.54-.85.08-.1.15-.21.22-.33,3.25,4.98,7.69,6.82,10.39,7.48,1.12.27,2.38.44,3.43.44.96,0,1.74-.14,2.09-.46.58-.54.57-1.11.52-1.39-.05-.25-.16-.48-.31-.69.35-.14.67-.34.88-.64.17-.24.42-.76.13-1.5-.31-.77-.94-1.27-1.8-1.44.16-.34.25-.7.19-1.06-.05-.32-.23-.77-.82-1.09-.53-.28-1.14-.08-1.92.17-.29.09-.62.2-.98.29.52-.32.9-.69,1.17-1.04.95-1.2,1.21-2.91.7-4.57-.05-.18-.15-.37-.26-.58,0-.34-.06-.94-.33-1.67-.73-1.94-5.12-8.15-8.68-13.02-.09-.13-.12-.29-.07-.44.06-.19.23-.31.42-.33,1.52-.14,3.98-1.38,4.1-4.12.03-.66-.3-1.23-.9-1.53-.24-.12-.5-.17-.75-.18-.6-2.19-1.99-3.01-2.82-3.31-1.43-.51-3.16-.23-4.21.68-1.11.97-3.66,4.27-3.46,5.47.05.32.26.57.54.69.17.07.56.1,1.17.1.39,0,.87-.02,1.43-.04-.19.51-.31.97-.36,1.4-.57-.66-1.68-.64-2.46-.53-1.12-5.08-4-17.41-6.63-16.92-.32.06-.6.26-.78.57-1.23,2.04,1.89,12.98,3.21,17.35l-.54.14c-1.37.36-1.85,1.56-1.61,2.49.21.8.96,1.48,2.07,1.48.23,0,.48-.03.74-.09l.71-.17,1.38,4.91c-.69-.18-1.31-.29-1.84-.35.4-1.05.12-2.36-.82-3.3-.57-.57-1.31-.93-2.07-.99-.61-.05-1.17.08-1.64.37l-.73-.36c.07-.52.08-1.05.01-1.57,1.16-1.54.8-4.32-.16-6.55-.28-.65-.63-1.3-1.05-1.91,1.59-1.93,1.86-5.17,1.05-7.27-.48-1.23-1.32-1.94-2.31-1.94h0c-.69,0-1.29.26-1.74.76-.1.12-.19.25-.27.38-.44-.87-1.07-1.73-2-2.53-.5-.43-1.17-.57-1.79-.38-.62.18-1.09.66-1.26,1.28-.04.12-.07.26-.1.4-1.89-2.79-5.12-6.82-7.44-5.75-2.18,1.01-2.17,5.37-1.04,9.72-.51-.2-1.09-.17-1.58.11-.52.3-.86.83-.9,1.42-.11,1.55.15,2.82.58,3.85-.89-.28-1.8-.36-2.44.11-.91.68-1.24,1.89-.84,3.09.56,1.68,2.64,3.45,6.75,3.62.5,1.91,1.48,3.83,2.48,5,.9,1.05,1.7,1.43,2.33,1.51l-.03,1.17c-1,.39-1.77,1.39-1.92,2.61-.06.45-.02.89.09,1.31-.21.15-.42.31-.64.48-.76.19-1.36.74-1.63,1.47-2.71,2.75-5.62,7.1-8.51,12.67-.04.06-.07.12-.1.18-.56,1.08-1.11,2.19-1.67,3.35-.89,1.88-1.73,4.04-2.47,5.94-.98,2.54-1.91,4.93-2.65,5.83-.35.42-.67.39-1.77.07-1.02-.3-2.42-.71-3.84.25-1.38.94-1.74,2.13-1.61,2.93.06.39.25.71.5.95-.12,1.33.29,2.57,1.2,3.52,1.01,1.07,2.53,1.65,4.25,1.65.35,0,.72-.02,1.09-.07,1.13-.15,2.03-.66,2.67-1.5,1.08-1.43,1.09-3.44,1.03-4.3.46-.41.91-.86,1.35-1.39.02,0,.04-.01.05-.02.17-.11.27-.28.31-.47.54-.74,1.03-1.6,1.43-2.63,2.27-5.97,7.24-13.15,10.23-16.4-.01.1-.03.2-.03.31,0,.82.44,1.57,1.12,1.99-.01.02-.02.04-.03.06-.02.03-.04.07-.06.1-.54-.06-1.11.05-1.53.33-.7.43-1.12,1.18-1.12,2.01,0,.04,0,.12.02.21.04.49.25.94.56,1.31-.19.3-.38.59-.58.89-.17-.04-.34-.06-.52-.06-1.3,0-2.36,1.06-2.36,2.36,0,.47.14.9.38,1.28l-.27.38c-.43-.06-.86,0-1.25.17-.86.38-1.42,1.23-1.42,2.18,0,.14.01.28.03.41,0,.03,0,.05.01.08.05.22.13.43.23.62-.21.32-.41.66-.6,1-.42-.05-.86,0-1.25.17-.86.38-1.42,1.23-1.42,2.18,0,.14.01.28.03.41,0,.03,0,.06.01.09.15.66.58,1.21,1.11,1.51-.04.35-.07.7-.09,1.05-.08.03-.17.04-.24.07-.86.38-1.42,1.23-1.42,2.18,0,.13.01.28.03.42,0,.03,0,.06.01.08.17.78.72,1.42,1.43,1.68.1.05.21.08.33.1-1.88,3.53-4.12,7.86-4.48,8.91-1.41,4.02-6.46,11.15-7.98,12.93-.12,0-.24,0-.35.05-.29.12-.46.41-.45.7-1.54,1.2-4.31,2.35-6.15,2.49-1.95.16-2.83.85-3.23,1.4Zm23.21-11.04c.78-1.05,1.44-2.04,1.87-2.85.03-.05.05-.1.08-.15.3.14.64.22.97.22.08,0,.16,0,.25-.01.13-.01.25-.06.38-.09-.13.34-.18.7-.15,1.08.03.31.13.6.27.86-1.17.45-2.4.77-3.67.95Zm.84-20.71c1.19-.13,2.12-1.13,2.12-2.34,0-.64-.27-1.24-.73-1.68.12-.21.25-.42.38-.63.03.01.05.03.08.04.28.12.58.18.89.18,1.31,0,2.38-1.06,2.38-2.37,0-.64-.27-1.23-.71-1.68l.07-.09c.26.1.53.16.82.16.57,0,1.12-.21,1.57-.6.07-.06.12-.12.16-.2.1-.17.21-.34.32-.49l.1-.15c.04-.05.07-.11.09-.18.09-.25.13-.5.13-.77,0-.58-.22-1.11-.58-1.52.19-.29.39-.59.57-.88.18.04.35.06.51.06,1.31,0,2.38-1.06,2.38-2.37,0-.66-.28-1.27-.74-1.71.08-.14.16-.28.24-.44.02,0,.05,0,.07,0,1.17-.16,2.05-1.17,2.05-2.34,0-.17-.02-.34-.05-.49.61,1.25,1.14,3.56,1.18,4.97.01.53-.24,1.03-.68,1.33-1.02.7-2.94,2.15-4.42,3.99,0,0,0,0,0,0,0,0,0,0,0,0l-.33.42s0,.02-.01.03c0,0-.02.01-.02.02-.16.23-.78,1.21-.93,1.51-.29.56-1.24,1.95-2.25,3.42-1.05,1.54-2.25,3.28-3.12,4.7,0,0,0,.01,0,.02,0,0,0,0,0,0-.21.36-.47.82-.76,1.34-.08-.07-.16-.15-.25-.21-.17-.13-.37-.22-.58-.29.01-.25.03-.49.06-.74Zm7.34-30.27c.08-.32.35-.58.67-.64.06,0,.12-.01.17-.02.12,0,.23.03.33.08.02,0,.04.01.06.02.3.14.49.44.49.77,0,.41-.29.77-.7.86-.01,0-.03,0-.04,0-.49.05-1-.34-1-.87,0-.06,0-.13.03-.2Zm1.38,3.67s.08-.01.11-.01c.49,0,.88.39.88.87,0,.41-.29.77-.73.87-.01,0-.06.01-.15.01-.48,0-.87-.39-.87-.88,0-.42.3-.78.76-.86Zm1.09,5.71c.37,0,.68.21.83.59.03.08.05.19.05.29,0,.43-.32.8-.75.86-.08.01-.21,0-.26,0-.42-.07-.74-.43-.74-.86,0-.47.38-.87.87-.88Zm19.1-11.54c-.26-.02-.61-.35-.61-.67,0-.34.51-.73,1.63-.93.16-.03.33-.05.52-.07,0,0,0,0,0,0,0,0,0,0,0,0l3.21-.37s0,0,0,0c.28-.04.67-.08,1-.08.25,0,.47.03.58.12.11.09.14.32.15.45,0,.01,0,.03,0,.05,0,0,0,0,0,0,0,.03,0,.07.01.09,0,0-.2.45-1.92.89-1.78.45-3.98.58-4.6.52Zm.9-9.69l2.05,6.34-1.06.12-.03-.11s-.02-.03-.02-.05l-1.71-6.1c.27-.07.53-.13.78-.2Zm8.91,9.44s.03,0,.04,0c.02,0,.04.01.06.01.19,0,.38-.08.53-.22.24-.24.28-.6.13-.89l-.06-.13c-1.47-2.99-2.64-5.52-3.31-7.13-.1-.24-.2-.45-.31-.66.47-.03.89-.15,1.23-.4.11-.08.2-.16.28-.25,3.68,5.06,6.22,8.81,7.26,10.68-.13-.07-.25-.14-.39-.2-2.62-1.21-3.99-.47-4.45-.09-.55.45-.8,1.1-.67,1.71.12.54.53.94,1.09,1.07.89.21,1.64.6,1.92.94-1.19,0-4.05-.53-6.89-1.64-.4-.71-.59-1.36-.68-1.81.76-.24,1.78-.68,2.2-1.46.77.18,1.86.45,2,.46Zm1.09,5.68c-.86.04-1.73-.12-2.3-.54.78.22,1.56.4,2.3.54Zm-9.85,4.33s.02-.05.03-.07c.04.03.08.06.13.09-.1.35-.21.7-.33,1.04-.03,0-.06,0-.1,0-.06,0-.12.03-.18.04.16-.36.31-.72.45-1.09Zm-2.17,4.42c.14.29.32.56.57.78-.07.24-.13.49-.2.74-.03,0-.06,0-.1,0-1.29.13-2.25,1.29-2.13,2.6.09.9.67,1.63,1.44,1.95-.02.23-.04.47-.06.71-.49.12-.92.39-1.25.79-.4.49-.58,1.11-.52,1.74.1.97.77,1.74,1.65,2.01,0,.12,0,.23.01.35-.68.36-1.16,1.03-1.26,1.82-.16-.77-.38-1.83-.62-2.96,0-.01,0-.03,0-.04-.3-1.45-.62-3-.84-4.16-.14-.74.04-1.51.49-2.11.72-.95,1.78-2.46,2.81-4.23Zm.96,17.52s0,0-.01,0c-.01,0,0,0,0,0,0,0,0,0,0,0,0,0,.01,0,.01,0Zm1.53,6.74s0,0,0,0h0s0,0-.01,0Zm-9.95,15.14c-.48-.62-1.26-.98-2.09-.9-.45.05-.87.22-1.22.49-1-3.67-1.47-7.28-1.66-9.07l9.1,5.77c-.22.48-.43.96-.64,1.45-.41-.22-.88-.33-1.36-.28-1.27.13-2.21,1.26-2.13,2.53Zm-4.48,1.16c-.36-1.01-1.37-1.69-2.47-1.58-.79.08-1.46.53-1.83,1.18-.05-.01-.11-.03-.16-.04.03-.21.05-.42.03-.63,0-.11-.03-.21-.05-.31,1.27-2.83,2.14-5.64,2.66-7.6.29,2.27.85,5.65,1.87,8.98-.02,0-.03,0-.05,0Zm-8.53-2.42c-.08-.06-.17-.13-.26-.2.08-.17.14-.34.17-.51,2.09-1.39,3.78-3.12,4.93-4.77-.45,1.5-1.04,3.28-1.8,5.08-.44-.29-.97-.44-1.53-.38-.6.06-1.12.35-1.51.78Zm-4.67-10.27c-.12-1.14-1.02-2.02-2.07-2.13-.12-.61-.25-1.33-.37-2.09.06-.12.13-.24.19-.35l.07-.14c.64-.42,1.06-1.14,1.06-1.94,0,0,0,0,0-.01.17-.31.33-.6.48-.87.87,1.6,2.54,2.76,4.5,3,.03,0,.06,0,.1,0,.29,1.13.71,2.06,1.23,2.82l-.76.67c-2,1.77-3.47,3.1-4.75,4.6-.11-.01-.22-.01-.34,0-.06-.14-.11-.27-.15-.38l-.23-1c.72-.47,1.13-1.31,1.04-2.2Zm24.44,5.75c.12.33.33.62.58.86-.05.06-.1.13-.15.19-.28-.09-.57-.14-.87-.12.16-.33.31-.64.45-.93Zm-2,.7l-7.71-4.89c1.91-.35,3.7-1.12,4.59-2.17,1.76,1.71,3.3,3.09,4.57,4.07-.32.63-.86,1.72-1.46,2.99Zm-20.89-1.61c-.12-.23-.27-.43-.45-.6,1.16-1.31,2.52-2.54,4.34-4.15l.73-.65c.69.67,1.45,1.15,2.22,1.49-.97,1-3.11,2.76-6.84,3.9Zm10.83-10.61c.38,1.78.73,3.46-1.39,5.79-.03.04-.05.08-.07.12-1.2-.2-2.54-.67-3.64-1.7,2.45-2.24,3.9-3.74,4.44-4.32l.64.04s0,.05.01.07Zm.35,6.03c1.78-2.38,1.53-4.35,1.19-5.99l.53.04c.53.58,2.01,2.21,3.8,4.03-.61.84-2.87,1.88-5.53,1.93Zm2.64-7.18c-.13-.15-.31-.24-.51-.25l-1.22-.08c-.08-.66-.05-1.27.25-1.89.16-.03.32-.07.47-.12.46,1.23,1.04,2.25,1.7,3.09-.42-.46-.67-.74-.68-.75Zm-1.06-4.01s-.01.01-.02.02c-.24.2-.54.33-.88.33-.76,0-1.38-.62-1.38-1.38s.62-1.38,1.38-1.38,1.38.62,1.38,1.38c0,.41-.19.78-.48,1.03Zm-2.57,1.3c.18.13.38.25.6.33-.23.67-.28,1.32-.22,1.95l-.64-.04c-.23-.01-.46.07-.61.25-.01.02-1.5,1.65-4.53,4.43-.33-.52-.62-1.12-.83-1.83,2.49-.33,4.71-2.13,6.24-5.08Zm-12.94,16.13c-.08-.1-.18-.26-.2-.48-.04-.4.19-.76.64-.93,0,0,.03-.02.12-.02.04,0,.07,0,.1,0,.1,0,.18.01.28.05.33.1.56.39.59.72,0,0,0,0,0,.01.03.28-.08.55-.31.75-.14.12-.29.19-.49.21-.28.04-.56-.08-.74-.3Zm2.89.25c.05-.13.09-.27.11-.41,3.96-1.17,6.32-3,7.51-4.18-.7,1.61-2.42,3.88-4.96,5.74-.14-.26-.34-.49-.57-.68-.49-.4-1.11-.58-1.74-.52-.12.01-.23.04-.35.07Zm22.33,1.43s.06,0,.09,0c.19,0,.37.06.52.17.14.11.32.3.35.62.05.48-.31.91-.79.96-.34.05-.66-.13-.84-.43-.07-.11-.11-.23-.12-.35-.05-.48.31-.91.79-.96Zm2.74-2.38c-.14.01-.26,0-.4-.05-.31-.11-.54-.39-.57-.73-.02-.23.04-.46.19-.64s.36-.29.58-.32c.03,0,.05,0,.08,0,.18,0,.37.06.53.17.2.14.33.37.35.61.02.23-.04.46-.19.64s-.36.29-.58.31Zm1.39-4.4s-.12,0-.13,0c0,0,0,0,0,0-.43-.02-.78-.35-.82-.78-.02-.23.04-.46.19-.64.15-.18.36-.3.67-.33.49,0,.83.34.88.8.05.47-.3.9-.78.95Zm.6-3.14s0-.05,0-.07c.02.03.03.05.05.08-.02,0-.03,0-.05-.01Zm-1.54-.39c.02.14.03.29.04.44-.39.15-.75.39-1.02.72-.4.49-.59,1.11-.52,1.74.08.77.53,1.43,1.14,1.8-.14-.01-.27-.01-.41,0-.33.03-.64.14-.92.3-.05-.09-.11-.17-.2-.23-1.47-1.07-3.36-2.75-5.62-4.99-.99-.99-1.88-1.93-2.61-2.71,1.4,1.27,3,1.86,4.46,1.86.19,0,.38,0,.57-.03,1.29-.14,2.36-.74,3.12-1.65-.04.21-.05.43-.03.66.11,1.11.98,1.96,2,2.11Zm-2.22-9.7c.02.1.03.19.05.29-.12.07-.23.15-.34.23-.22-.37-.42-.7-.59-.99.25.21.55.37.87.47Zm-3.38-3.35c.28,1.35.49,2.33.49,2.33.02.08.05.15.09.22,0,0,.69,1.19,1.67,2.82-.02.18-.04.37-.02.56.07.7.45,1.32,1.01,1.71-.3,1.58-1.36,2.64-2.89,2.8-2.12.22-4.95-1.4-6.31-5.43.4-.5.66-1.12.66-1.81,0-1.59-1.29-2.88-2.88-2.88s-2.88,1.29-2.88,2.88c0,.35.07.68.19,1-1.54,3.42-4.02,5.29-6.67,4.96-1.85-.22-3.33-1.52-3.72-3.19.83-1.34,1.93-2.94,2.91-4.37,1.12-1.64,2.01-2.93,2.34-3.58.09-.17.5-.83.73-1.19.29.28.52.68.77,1.14.68,1.23,1.62,2.92,4.46,2.35,2.62-.53,3.11-.23,3.68.11.31.19.71.43,1.33.58,1.68.41,3.26.21,4.47-.57.21-.14.4-.29.58-.45Zm-25.17,13.12c.02.08.03.16.05.24-.09.05-.18.11-.27.18.07-.14.15-.28.22-.42Zm1.05,1.44s0,0,.01,0c0,0,0,0,0,0,0,0,0,0,0,0,.02,0,.04,0,.06-.02,0,0,0,0,0,0,.49-.04.91.3.96.79h0c.04.4-.19.76-.55.89-.02,0-.04.01-.05.02-.05,0-.13.02-.17.04-.49.05-.91-.3-.96-.78-.05-.45.25-.85.7-.93Zm4.88,10.53c-.17.02-.37-.02-.53-.12-.24-.15-.4-.39-.42-.66-.03-.26.06-.51.27-.72.12-.14.3-.22.51-.24.03,0,.06,0,.09,0,.2,0,.39.07.55.2.18.15.29.36.32.59,0,0,0,.15,0,.16,0,.21-.1.41-.28.58-.13.13-.29.2-.5.22Zm3.23,1.65c.11-.32.4-.54.75-.58.03,0,.06,0,.09,0,.35,0,.67.23.81.61.03.07.04.12.04.15,0,0,0,.02,0,.03.03.25-.06.45-.12.55-.09.13-.25.31-.54.38-.04.01-.07.02-.12.03-.49.04-.91-.3-.96-.77-.01-.14,0-.27.04-.4Zm5.47,2.79c-.5.05-.92-.31-.97-.81,0-.07,0-.14.01-.23.07-.39.38-.67.78-.71.03,0,.06,0,.09,0,.44,0,.83.34.88.83h0s0,.03,0,.04c0,.45-.35.84-.79.88Zm4.85-.49c-.38.02-.74-.21-.88-.56-.03-.08-.05-.16-.08-.23-.02-.23.05-.45.19-.63.15-.18.36-.29.6-.32.03,0,.06,0,.08,0,.4,0,.76.28.84.67,0,.03.02.08.03.11.05.49-.29.91-.78.96Zm3.35-2.11c-.05-.08-.08-.17-.09-.29-.04-.48.31-.92.79-.97.03,0,.06,0,.09,0,.3,0,.59.17.74.43.01.02.02.04.03.06,0,.02.01.03.02.04.04.08.06.17.08.26.04.4-.21.77-.59.9-.03.01-.07.03-.1.04-.03,0-.07.01-.11.02-.33.05-.66-.14-.86-.49Zm5.49,9.94c.17.07.37.08.54.02.48-.17,1.93-.59,2.89-.48.29.03.47.18.49.31.03.2-.26.65-1.19,1.04-1.13.49-2.53.41-3.88.35-1.3-.06-2.52-.13-3.45.33-.71.35-1.44.41-1.84.13-.39-.27-.4-.86-.35-1.31.04-.31.11-.64.21-.98.62.29,1.39.53,2.22.53.78,0,1.6-.23,2.38-.78l1.98.84Zm5.36-15.57c-1.54,2.22-4.41,6.49-6.31,9.32l-.81,1.2c-.59.9-.93,1.92-1.03,2.97-1.22.9-2.58.44-3.28.08.22-.55.47-1.12.74-1.73.58-1.31,1.24-2.8,1.75-4.46l.02-.07c.82-.45,1.33-1.35,1.23-2.31-.02-.21-.08-.39-.15-.58,0,0,0-.02.01-.02.45.55,1.11.89,1.82.89.08,0,.17,0,.25-.01,1.31-.13,2.26-1.3,2.13-2.6h0c-.04-.4-.18-.76-.4-1.07.12-.15.24-.3.36-.46.08,0,.16.02.24.02.07,0,.15,0,.22,0,.63-.06,1.21-.37,1.61-.86.4-.49.59-1.11.53-1.74h0c-.05-.49-.25-.93-.56-1.29.05-.19.1-.38.15-.57,1.01-.24,1.74-1.11,1.8-2.14,1.08,1.7,1.38,3.03-.3,5.45Zm-1.69-10.7c.03.28-.07.54-.26.72-.12.12-.26.19-.42.21-.04,0-.08.01-.11.03-.47.04-.9-.31-.95-.79-.04-.39.2-.77.58-.9h0s.02-.02.03-.02c.03,0,.06,0,.09-.01,0,0,0,0,0,0h0s.07-.01.08-.02c.47-.05.9.3.95.78Zm-1.37-5c.04.42-.21.81-.61.93-.05.02-.1.03-.18.03-.08,0-.15,0-.22-.01,0,0,0,0,0,0,0,0,0,0,0,0-.03,0-.11-.03-.14-.04-.32-.11-.55-.39-.58-.72-.01-.13,0-.24.03-.35.09-.31.34-.54.66-.59,0,0,.02,0,.02,0,0,0,.01,0,.02,0,0,0,0,0,.01,0,.02,0,.04,0,.06-.01.47-.04.88.3.93.78Zm-.53-4.61h0c.02.23-.05.45-.19.63-.15.18-.36.29-.69.32-.44,0-.82-.35-.86-.77-.04-.45.27-.87.79-.97.03,0,.06,0,.09,0,.2,0,.39.07.55.2.18.15.3.36.32.6Zm-.59-4.07c-.15.18-.36.29-.59.31-.02,0-.06,0-.08,0-.42-.01-.83-.33-.87-.79-.02-.23.04-.46.19-.64.15-.18.36-.29.59-.32h0s.15,0,.15,0c.42.02.76.35.8.79.02.23-.04.46-.19.63Zm-.2-4.87s-.07,0-.14,0c-.42-.03-.77-.37-.81-.78-.04-.48.31-.92.79-.97.02,0,.05,0,.07,0,.08,0,.16.01.26.04.34.08.59.39.63.75.05.48-.31.91-.79.96Zm1.64-4.89c-.17.01-.32-.01-.46-.08-.28-.13-.47-.4-.5-.71-.02-.23.04-.46.19-.64.15-.18.36-.29.59-.32.02,0,.05,0,.07,0,.07,0,.14,0,.22.03.36.08.62.39.66.76.05.48-.3.91-.78.96Zm1.94-5.77c-.15.18-.36.29-.58.32,0,0-.01,0-.02,0-.05,0-.11,0-.21-.02-.26-.04-.48-.19-.6-.4.08-.25.16-.48.23-.69,0-.02.01-.04.02-.06.06-.18.11-.35.16-.51.06-.03.12-.05.18-.06.06,0,.11,0,.13,0,.45,0,.86.34.91.8.02.23-.04.46-.19.64Zm13.19-1.23c-.84,1.07-2.48,1.55-4.73,1.42-.03,0-3.11-.35-4.89-3.05-.23-.34-.69-.44-1.04-.21s-.44.69-.21,1.04c1.97,2.98,5.12,3.6,5.86,3.7,2.74,1.41,5.06.66,6.46.21.27-.09.6-.19.78-.22-.04.14-.2.44-.58.83-.05.05-.09.11-.12.17-.58.19-1.8.43-3.5-.09-.39-.12-.82.1-.94.5s.1.82.5.94c.91.28,1.72.38,2.42.38,1.27,0,2.13-.32,2.46-.47.56-.08,1.24-.05,1.47.52.02.05.03.08.03.09-.16.17-.89.3-1.53.28-.06,0-.12.01-.17.02-.8.03-3.12.04-5.33-.84-.39-.15-.82.04-.97.42-.15.39.04.82.42.97,2.06.82,4.16.95,5.34.95.22,0,.4,0,.56-.01.42.21.83.5.88.6,0,0,0,.01-.03.04-.54.18-3.3.32-6.62-1.1-2.97-1.27-6.98-4.11-9.2-10.39-.28-.76-.51-1.57-.71-2.4.02,0,.04,0,.05,0,.15-.02.3-.04.46-.07.09-.01.18-.03.27-.04.14-.02.28-.05.42-.08.04,0,.08-.01.12-.02.26,1.23,1.06,3.48,3.54,4.98,1.33,1.04,3.54,1.01,5.05.53,1.02-.32,1.69-.86,1.93-1.5.02-.05.04-.09.06-.14.06-.22.06-.43.06-.54-.01-1.7-2.24-2.42-3.17-2.59,0-.02.03-.14.2-.25.2-.14,1-.52,2.83.32.95.44,1.55,1.08,1.84,1.54.01.02.02.04.03.06.08.13.13.24.16.33.36,1.19.2,2.39-.45,3.21Zm-13.37-23.35c.5-.98,1.79-2.81,2.75-3.65.54-.47,1.67-.77,2.71-.4.98.35,1.65,1.23,1.94,2.54-.21.22-.4.46-.52.71-.24.48-1.07.46-1.33.44-.11,0-.19-.02-.21-.02-.18-.04-.35,0-.5.07-1.9.16-3.88.3-4.86.31Zm5.58,1.13c1.25.06,2.22-.39,2.66-1.27.09-.18.27-.4.43-.53.04-.01.15,0,.22.05.04.03.05.05.04.1-.09,2-2.05,2.63-2.74,2.69-.79.07-1.46.6-1.71,1.35-.17.5-.12,1.04.11,1.5-.03.13-.09.3-.24.4-.22.16-.63.16-1.16.04-.69-1.27-.98-2.19-.07-4.13.73-.05,1.54-.12,2.45-.2Zm-4.34,3.79s.02-.05.03-.07c.18.56.46,1.08.75,1.61,0,0,0,0,0,0,.03.05.05.09.08.14.28.51.58,1.04.84,1.67.58,1.4,1.54,3.48,2.73,5.95-.2-.05-.43-.1-.67-.16-.11-.39-.31-.71-.6-.94-.74-.6-1.83-.46-2.71-.36h-.11s-2.13-6.59-2.13-6.59c.87-.32,1.46-.7,1.78-1.25Zm-6.52.95c-.53.13-.92.01-1-.3-.06-.25.08-.55.55-.67l1.29-.34c.2-.05.36-.18.46-.36.1-.18.12-.39.06-.58-2.04-6.65-3.9-14.36-3.69-16.46,1.23,1.7,3.43,9.37,4.93,16.2.04.2.17.37.34.48.18.11.39.14.59.08.69-.19,1.54-.23,1.7-.13.07.26.02.35,0,.38-.31.53-2.06.95-4.1,1.44l-1.13.27Zm2.01,7.65c-.17.07-.33.14-.47.21-.02,0-.03.02-.05.03-.12.07-.23.14-.33.22-.02.02-.05.03-.07.05-.1.08-.19.17-.27.25-.02.02-.03.03-.04.05-.07.08-.12.15-.17.23-.01.02-.02.03-.03.05-.05.09-.1.17-.13.25,0,.02-.02.04-.02.06-.03.08-.05.15-.07.22,0,0,0,.02,0,.03-.02.08-.03.15-.04.22,0,.02,0,.03,0,.05,0,.07,0,.13,0,.18,0,1.07.91,2.06,1.97,2.15.13.01.29.02.47.02.02,0,.04,0,.06,0,.11,0,.24,0,.37,0,0,0,.01,0,.02,0,.17,0,.36-.01.56-.03.18.74.38,1.46.61,2.16-.51.5-.85,1.4-1.26,2.53,0,.01,0,.03,0,.04,0,.01-.01.02-.02.04-.05.17-.11.35-.16.53-.11.36-.23.74-.38,1.17l-.2.53c-.08.23-.17.47-.27.73-1.31,3.43-3.56,6.67-4.78,8.29-.71.94-.99,2.14-.77,3.29.21,1.12.52,2.62.81,4.03-.13.47-.47.91-.97,1.23-.85.55-2.03.68-3.3.37-.4-.1-.63-.24-.91-.41-.95-.57-1.79-.9-4.75-.3-1.76.36-2.2-.43-2.85-1.61-.3-.54-.63-1.14-1.13-1.59,1.26-1.39,2.73-2.49,3.56-3.06.86-.6,1.36-1.57,1.33-2.61-.05-1.74-.8-5.11-1.84-6.43-1.11-1.4-2.16-1.7-2.91-1.68,0,0,0-.01,0-.02,0,0,0,0,.01,0,.15-.09.29-.21.42-.33.03-.03.06-.06.09-.09.11-.13.22-.26.31-.41,0,0,.01-.02.02-.03.09-.16.15-.32.21-.49.01-.04.02-.08.03-.13.04-.18.07-.36.07-.55,0-.16-.02-.31-.05-.45,0-.05-.03-.1-.04-.15-.03-.1-.05-.19-.09-.28-.02-.05-.05-.1-.08-.16-.04-.08-.08-.16-.13-.23-.03-.05-.07-.1-.11-.15-.05-.07-.1-.13-.16-.2-.04-.04-.09-.09-.13-.13-.06-.06-.13-.11-.2-.16-.05-.04-.1-.07-.15-.1-.07-.05-.15-.09-.23-.12-.05-.03-.11-.05-.16-.07-.09-.03-.18-.06-.27-.08,0,0-.01,0-.02,0,.69-.42,1.15-1.19,1.15-2.03,0-.22-.03-.44-.09-.64.01,0,.02,0,.03,0,.1.01.2.02.29.02.01,0,.02,0,.03,0,.17,0,.35-.02.52-.06.04,0,.07-.02.11-.03.15-.04.29-.1.44-.16.03-.01.05-.02.08-.04,0,0,0,0,.01,0,.51,1.14,1.16,1.75,1.96,2.49.62.58,1.33,1.24,2.23,2.36,1.19,1.49,1.34,2.79,1.49,4.04.01.1.03.2.04.3-.17.06-.35.11-.54.15-.88.15-1.76-.05-2.48-.56-.34-.24-.81-.16-1.05.18-.24.34-.16.81.18,1.05.85.6,1.82.88,2.78.88.47,0,.94-.08,1.39-.21.15.49.38.98.77,1.45-.07.24-.12.48-.12.74,0,.57.19,1.1.5,1.54l-3.57,3.28c-.31.28-.33.75-.05,1.06.15.16.35.24.55.24.18,0,.36-.07.51-.2l2.63-2.42-1.34,3.97c-.13.39.08.82.47.95.08.03.16.04.24.04.31,0,.61-.2.71-.51l1.4-4.16.27,3.08c.03.39.36.68.75.68.02,0,.04,0,.07,0,.41-.04.72-.4.68-.81l-.37-4.24c1.06-.34,1.83-1.33,1.83-2.5,0-.43-.11-.83-.3-1.19.32-.36.76-.96,1.09-1.83,1.27-.06,2.44-.59,3.3-1.52.28-.3.27-.78-.04-1.06-.3-.28-.78-.27-1.06.04-.49.53-1.13.86-1.82.99.09-.67.1-1.43-.01-2.3-.2-1.47.27-3.12.72-4.72.55-1.95,1.11-3.96.57-5.84.56.02,1.27.09,2.19.33-.02,0-.03.02-.05.02Zm-4.15,5.08c-.49,1.74-1,3.54-.76,5.32.1.79.08,1.46,0,2.03-.51-.14-.98-.39-1.38-.76-.3-.28-.78-.27-1.06.04-.28.3-.27.78.04,1.06.57.53,1.25.89,1.98,1.1-.2.41-.41.72-.58.93-.39-.23-.83-.36-1.31-.36-.62,0-1.19.22-1.64.58-.14-.24-.22-.5-.29-.78.45-.31.85-.7,1.18-1.17.24-.34.16-.81-.18-1.05-.34-.24-.81-.16-1.05.18-.07.09-.15.17-.22.26-.16-1.24-.46-2.71-1.75-4.32-.45-.56-.86-1.01-1.23-1.4.91.3,1.83.45,2.73.45,1.03,0,2.02-.2,2.91-.62,1.55-.73,2.63-2.02,3.19-3.72-.14.72-.35,1.47-.57,2.24Zm-3.09,13.14c-.16,0-.31-.03-.45-.09,0,0,0,0,0,0,0,0,0,0,0,0-.41-.17-.7-.58-.7-1.05,0-.63.52-1.15,1.15-1.15s1.14.52,1.14,1.15-.51,1.14-1.14,1.14Zm-3.07-19.44h0c.45-.2.86-.46,1.24-.75.62,1.08,1.35,1.75,2.2,2,.08.02.16.04.23.05-.28.75-1.09,1.56-2.15,2.09-.7.35-2.98,1.24-5.18-.29.28-.29.5-.61.63-.97.16-.45.18-.93.1-1.44.02,0,.04,0,.06,0,.84,0,1.7-.17,2.51-.54l.36-.16Zm2.9,6.42c-2.32,1.09-5.55.3-7.9-1.92-.02-.06-.05-.14-.07-.2.05-.08.09-.18.13-.28,1.28,1.04,2.69,1.45,4.02,1.45,1.14,0,2.22-.29,3.1-.73,1.73-.85,2.88-2.23,3.06-3.58.14-.05.27-.11.41-.18.05,2.65-.9,4.57-2.76,5.44Zm1.18-6.58c-.07,0-.15-.01-.22-.03-.53-.16-1.05-.75-1.51-1.68.36-.46.68-.97.9-1.53l.14.07c-.15.38-.22.81-.18,1.25.06.7.38,1.37.87,1.93Zm-2.2-3.83c-.45,1.17-1.33,2.1-2.48,2.61l-.36.16c-2.37,1.05-5.16-.02-6.22-2.39l-2.12-4.76c-.62-1.39.01-3.02,1.4-3.63l3.94-1.75c.36-.16.74-.24,1.11-.24,1.05,0,2.06.61,2.52,1.63l2.12,4.76c.51,1.15.54,2.43.09,3.6Zm-8.51,3.4c.15.11.29.23.45.32-.14-.07-.29-.13-.45-.17v-.15Zm2.09,1.04c.18.45.22.84.11,1.16-.04.12-.11.23-.2.34-.14-.87-.59-1.62-1.25-2.07.43.24.88.43,1.35.56Zm10.42-3.85c.41.04.82.23,1.14.56.63.63.75,1.56.27,2.04-.1.1-.24.18-.39.23-.02,0-.03,0-.04,0-.09.01-.15.03-.2.04,0,0-.01,0-.02,0,0,0,0,0-.01,0-.06,0-.12,0-.21,0-.15,0-.29-.04-.45-.1-.26-.1-.49-.25-.7-.46-.32-.32-.52-.74-.56-1.14-.03-.36.07-.67.28-.89.19-.19.46-.29.77-.29.04,0,.08,0,.13,0Zm-5.34-18.96c.16-.18.36-.26.63-.26h0c.48,0,.8.69.91.98.6,1.56.43,4.05-.61,5.55-.5-.52-1.06-.96-1.67-1.27.11-.51.22-1.25.21-2.13,0-.06.02-.11.02-.18-.05-.5-.06-2.06.51-2.7Zm-5-1.84c.05-.17.18-.23.25-.26.07-.02.22-.05.38.08,1.68,1.44,2.22,3.11,2.34,4.48,0,.16.01.28.02.34.02.72-.07,1.33-.16,1.76-.15-.02-.3-.03-.46-.03-.07,0-.15,0-.22,0-.23.01-.46.03-.69.06l-.28-.42c-1.72-2.36-1.59-4.57-1.18-6.02Zm-8.35-4.4c1.15-.54,4.33,3.1,6.63,6.87.1,1.26.51,2.72,1.55,4.22-.36.08-.72.17-1.08.27.16-1.52,0-4.64-3.21-7.04-.68-.5-1.4-.64-2.03-.38-.63.26-1.05.86-1.19,1.7-.28,1.73-.14,4.32,2.08,6.88l.49.54c-.19.12-.37.24-.55.36-.55-1.76-1.48-2.98-2.42-3.81-1.65-4.98-1.48-9.05-.27-9.61Zm4.59,12.31l-.72-.79c-1.83-2.11-1.95-4.24-1.72-5.65.05-.34.18-.51.27-.54.09-.04.29,0,.57.2,3.52,2.62,2.56,6.16,2.51,6.32,0,.02,0,.04,0,.06-.31.13-.62.26-.91.4Zm-7.23-2.32c0-.12.08-.19.15-.23.05-.03.18-.08.32-.01,1.32.65,2.97,2,3.59,4.7-.49.47-.92.97-1.26,1.49-1.04-.64-3.06-2.36-2.81-5.95Zm-2.78,6.48c-.19-.59-.07-1.13.31-1.42.33-.25,1.95.33,3.25,1.18,0,0,0,0,.01,0,.56.54,1.1.9,1.49,1.13-.08.52-.09,1.09-.02,1.69-3.12-.21-4.68-1.47-5.04-2.58Zm8.94,8.12c-1.9-2.22-3.03-6.37-2.13-7.79,1.53-2.41,5.4-4.32,9.2-4.52,1.21-.08,2.28.73,3.11,1.81.01.02.02.04.03.05,0,0,0,0,.01,0,.48.63.88,1.35,1.17,2.03.55,1.28.81,2.56.77,3.57l-1.83-4.13c-.95-2.14-3.47-3.11-5.61-2.16l-3.94,1.75c-2.14.95-3.11,3.47-2.16,5.61l1.91,4.29c-.17-.15-.35-.32-.53-.53Zm2.02,4.97s.12,0,.15,0c.67.08,1.14.88,1.03,1.78,0,0,0,0,0,.01-.01.11-.03.21-.07.32,0,.02-.01.04-.02.06,0,.01,0,.02-.01.03,0,.02-.02.04-.02.06-.04.15-.13.3-.27.49-.28.36-.65.55-1.04.5-.23-.03-.44-.15-.64-.36-.02-.02-.04-.04-.06-.05-.06-.07-.11-.16-.16-.27-.16-.31-.22-.7-.17-1.09.09-.78.62-1.42,1.29-1.48Zm-25.13,34.1c.84-.56,1.64-.33,2.58-.05,1.04.31,2.33.69,3.35-.55.12-.15.24-.32.36-.51.91.15,1.57.61,1.95.97-1,1.14-2.13,1.91-3.12,2.58-.71.48-1.33.89-1.77,1.37-.32.35-.59.4-.75.34-.01-.05,0-.23.27-.49.64-.63,1.11-1.16.96-1.78-.14-.61-.7-.79-1.35-1-.14-.05-.3-.1-.48-.16-1.17-.42-2.03.2-2.54.57-.14.1-.36.26-.39.28-.01-.01-.05-.09-.04-.24.01-.16.13-.73.97-1.31Zm6.06,5.33c-.4.52-.94.82-1.67.92-1.69.22-3.17-.18-4.05-1.12-.56-.59-.82-1.35-.79-2.18.3-.11.57-.3.79-.46.52-.37.77-.51,1.17-.37.19.07.36.12.52.18.02,0,.04.01.07.02-.07.08-.16.17-.27.27-.6.6-.84,1.31-.66,1.96.15.54.58.95,1.15,1.09.14.03.28.05.41.05.61,0,1.22-.3,1.74-.87.32-.35.87-.71,1.5-1.14.26-.18.54-.37.83-.57-.06.72-.24,1.57-.72,2.21Zm3.96-8.44c-.25.67-.56,1.25-.89,1.77-.48-.42-1.18-.89-2.1-1.14.56-1.19,1.15-2.71,1.8-4.36.76-1.97,1.55-4.01,2.42-5.84.5-1.05.99-2.04,1.46-2.97,1.44.15,2.72.99,3.34,1.47-2.74,4.21-5.22,8.93-6.03,11.07Zm6.87-12.32c-.69-.53-1.94-1.32-3.44-1.63,2.77-5.21,5.13-8.46,6.89-10.45.32.54.83.93,1.45,1.09-.69.42-1.14,1.17-1.14,2.02,0,1.23.94,2.23,2.13,2.36,0,.03.01.06.02.09-1.65.83-3.82,3.44-5.92,6.52Zm5.05.51c.22-.15.56-.16.77-.06.01,0,.02.01.03.02,0,0,.01,0,.02,0,.31.15.5.45.5.78,0,.55-.55.96-1.09.85-.08-.02-.17-.06-.23-.09-.26-.15-.41-.41-.43-.7,0-.03,0-.06,0-.09,0-.29.16-.56.43-.73Zm-2.45,4.6c.19,0,.29.04.31.05.02.02.05.03.08.04,0,0,0,0,0,0,0,0,0,0,0,0,0,0,0,0,0,0,.02.01.04.03.06.04.25.13.41.42.41.72,0,.06,0,.13-.02.19l-.03.05c-.11.16-.22.32-.32.49-.3.21-.61.27-1-.01-.02-.02-.04-.04-.06-.05-.19-.15-.3-.39-.3-.66,0-.47.39-.86.86-.86Zm-2.89,4.05c.21-.09.39-.12.71,0,.05.02.12.06.14.08.24.16.38.43.38.72,0,.58-.56,1.08-1.2.8-.12-.05-.24-.12-.34-.24-.09-.09-.16-.21-.19-.34,0,0,0-.02,0-.02-.01-.07-.02-.13-.02-.2,0-.35.2-.66.53-.8Zm-3,4.46c.23-.1.47-.11.71,0,.06.03.11.06.14.08.24.16.38.43.38.72,0,.54-.56,1-1.06.84-.04-.01-.11-.04-.15-.04-.26-.1-.45-.32-.52-.58,0,0,0-.01,0-.02-.01-.07-.02-.13-.02-.2,0-.35.2-.66.53-.8Zm-1.08,6.34s0-.01,0-.02c-.01-.06-.02-.13-.02-.19,0-.35.2-.67.55-.82.19-.1.54-.1.81.1.21.15.35.37.38.64v.08c0,.32-.18.62-.52.78-.07.04-.14.06-.21.07-.07,0-.09,0-.15.02-.11,0-.2-.02-.32-.07-.26-.1-.45-.32-.52-.59Zm-2.78,11.48c.19-.54,1.09-2.4,2.4-4.92,0,.11,0,.23,0,.34.12,1.18,1.09,2.06,2.24,2.12l.25,1.03c.06.16.13.31.19.47-.6.49-.94,1.26-.86,2.07.03.29.12.56.26.82-.1.18-.2.36-.3.55-1.97,3.74-9.57,11.83-9.64,11.92-.04.04-.07.09-.09.14-.71.01-2.01-.1-2.8-1.02,1.53-1.75,6.84-9.19,8.36-13.53Zm-9.47,14.52c1.07,1.23,2.65,1.5,3.67,1.52-.17,1-.5,2.15-1.05,2.51-.39.25-.92.19-1.91.04-1.2-.18-2.85-.42-5.17.04-1.95.38-4.32.65-4.53-.2-.04-.18-.01-.33.09-.47.14-.19.62-.66,2.13-.78,2.07-.17,4.97-1.33,6.76-2.65Z"/>
</svg>