<?xml version="1.0" encoding="UTF-8"?>
<svg id="icons" xmlns="http://www.w3.org/2000/svg" viewBox="0 0 120 120">
  <path d="m55.54,55.31c1.02,0,2.04-.4,2.79-1.2.28-.3.27-.78-.03-1.06-.3-.28-.78-.27-1.06.03-.88.93-2.35.98-3.28.11-.3-.28-.77-.27-1.06.03-.28.3-.27.78.03,1.06.73.69,1.67,1.04,2.61,1.04Z"/>
  <path d="m64.73,55.09c1.02,0,2.03-.4,2.78-1.2.29-.3.27-.78-.03-1.06-.3-.28-.77-.27-1.06.03-.43.45-1.01.71-1.63.73-.62.03-1.21-.21-1.67-.64-.3-.28-.78-.27-1.06.03-.29.3-.27.78.03,1.06.74.7,1.69,1.05,2.63,1.05Z"/>
  <path d="m58.43,34.66c-.61.03-1.21-.21-1.67-.64-.3-.28-.77-.27-1.06.03-.28.3-.27.78.03,1.06.74.7,1.69,1.05,2.63,1.05,1.02,0,2.03-.4,2.78-1.2.28-.3.27-.78-.03-1.06-.3-.28-.77-.27-1.06.03-.43.45-1.01.71-1.63.73Z"/>
  <path d="m56.94,31.7c-.28.3-.27.78.03,1.06.38.36.88.56,1.41.56.02,0,.04,0,.06,0,.55-.02,1.06-.24,1.44-.64.29-.3.27-.78-.03-1.06-.3-.29-.78-.27-1.06.03-.1.11-.24.17-.39.17-.14.01-.29-.05-.4-.15-.3-.28-.77-.27-1.06.03Z"/>
  <path d="m59.77,25.78c0-1.06-.59-1.85-1.36-1.85s-1.36.8-1.36,1.85.59,1.86,1.36,1.86,1.36-.8,1.36-1.86Z"/>
  <path d="m22.06,52.98c.13,0,.27,0,.41,0,.24-.01.46-.04.68-.07-.09.29-.14.62-.09.96.06.36.25.86.8,1.28.07.3.23.71.59,1.03.16.14.39.3.71.4.05.27.16.56.39.82.15.16.37.34.7.43.18.59.57,1.46,1.38,1.82.23.1.46.15.68.15.37,0,.7-.14.96-.42.45-.49.53-1.31.19-1.92l-.11-.21c.06-.21.08-.45.03-.72.27-.36.4-.84.25-1.33l.13-.82s0-.08,0-.12c0-.27-.02-.5-.05-.68.09-.15.17-.34.21-.54l.28.47c2.83,4.82,6.56,7.82,9.28,8.51-2.06,1.81-4.54,5.82-4.6,5.93l-2.11,2.63c-4.42,1.61-4.7,5.13-4.45,6.25.05.22,0,.53-.03.83-.07.5-.14,1.06.22,1.51.09.12.25.24.47.34-1.21,3.27-1.14,4.08-.53,4.53.29.21.58.22.88.14.1.41.31.8.72,1.07.2.13.42.19.64.19.14,0,.29-.03.43-.08.14-.06.25-.14.36-.24,1.75,6.03,5.13,14.5,6.38,17.55-2.55.32-3.88.36-4.27.29-2.27-.42-3.41.28-4.21,2.58l-.1.29c-.41,1.11-.58,1.98.9,3.07.95.7,2.95.91,4.98.91,2.17,0,4.38-.24,5.37-.36,2.57-.32,4.29-1.03,5.11-2.13.45-.6.63-1.31.51-2.05-.09-.58-.45-1.25-.87-2.04-.65-1.23-1.47-2.76-1.37-4.19.18-2.57-.15-7.62-1.76-10.96-.37-.77-.7-1.4-.97-1.92-.24-.46-.49-.93-.61-1.23.71-.14,2.14-.5,3.5-.86-.17.28-.26.57-.25.89.02,1.06,1.09,1.7,1.22,1.78l1.88,1.03c.41.22.86.33,1.31.33.66,0,1.31-.24,1.82-.69,1.2-1.07,2.74-2.89,3.42-3.79.54-.71,1.74-.34,3.63.54,8.92,4.13,22.43,4,24.92,1.58.84-.82,1.69-1.85,1.57-3.23-.17-1.99-2.27-4.26-7.21-7.75,1.48-2.74,2.64-7.21,2.87-8.14.33-1.34.39-3.71.21-5.83,1.86-.33,6.04-2.51,12.78-13.61.06.05.14.11.2.17-.12.66-.18,1.33-.2,1.99-.9.13-1.71.61-2.24,1.37-.67.96-.77,2.21-.26,3.26.1.21.29.34.51.39-.48.91-.54,1.99-.09,2.93.1.2.28.32.49.38-.24.78-.21,1.63.16,2.38.11.24.35.4.61.42.09,0,.18.01.27.01,1.04,0,2.02-.5,2.63-1.34.13.14.27.28.42.4.58.44,1.27.67,1.97.67.43,0,.87-.09,1.27-.26.24-.1.42-.33.45-.59.12-.92-.17-1.83-.75-2.52.14-.12.26-.27.28-.46.12-.97-.2-1.94-.86-2.65.13-.12.23-.26.26-.44.15-1.15-.33-2.31-1.26-3.01-.69-.52-1.52-.74-2.35-.65,0-.39.03-.77.07-1.16.4.3.82.59,1.24.84,1.31.79,3.43,1.24,4.55.6.48-.27.75-.72.75-1.24,0-.18-.04-.35-.1-.51.35.33.73.62,1.11.7.09.02.18.03.27.03.48,0,.92-.27,1.16-.73.17-.33.55-1.47-.99-3.09.33-.43.38-.84.34-1.12-.02-.2-.09-.37-.17-.51.27-.42.39-.93.34-1.44-.06-.55-.38-1.57-1.84-2.27-.32-.16-.63-.36-.96-.57-1.3-.85-2.92-1.91-6.54-.74-1.36.43-3.2,1.29-4.87,2.53.25-3.35.2-6.1.2-6.17,0-.01,0-.03,0-.04,0-.01,0-.02,0-.04-.63-5.01-3.3-9-6.15-10.86l1.34-2.94c.17-.38,0-.82-.37-.99l-5.8-2.64c-.18-.08-.39-.09-.57-.02-.19.07-.34.21-.42.39l-6.04,13.27c1.5-4.39,1.71-7.53,1.74-8.1.14-.65-.32-.91-.41-.96-.36-.18-.6-.29-1.45.65,1.29-7.03.8-7.32.35-7.58-.25-.15-.64-.19-1,.11-.4.35-.9,1-1.38,1.68.09-3.98-.46-4.25-.81-4.42-.33-.16-.73-.1-1.02.17-.67.6-1.49,2.32-2.05,3.65-3.78-7.34-5.25-8.18-5.94-8.13-.7-.05-2.17.81-5.94,8.13-.56-1.33-1.38-3.05-2.05-3.65-.3-.27-.69-.33-1.03-.17-.35.17-.9.44-.81,4.42-.47-.68-.97-1.33-1.38-1.68-.36-.31-.75-.26-1-.11-.45.26-.95.56.4,7.81-.25-.26-.5-.48-.72-.64-.35-.25-.8-.23-1.11.05-1.31,1.21.66,9.63,2.74,13.49-.18.25-.35.52-.47.83-.35.86-.41,1.79-.14,2.62.28.88.86,1.54,1.66,1.87.08.03.17.05.25.08l-2.21.99-7.25,3.84c.25-2.73.63-8.75-.31-12,.08-.31.12-.64.07-.99-.12-.75-.22-1.67-.32-2.53-.18-1.73-.71-3.47-1.55-5.03-1.4-2.53-2.25-2.86-2.78-2.89-.42-.04-.8.17-1.05.54-.89,1.31.11,3.19.77,4,.09.11.1.21.13.22-.05,0-.2,0-.44-.13-.97-.5-2.6-1.16-3.53-1.52.03-.06.06-.11.1-.18.13-.23.27-.47.38-.74.41-.93.28-1.88-.32-2.37-.4-.33-1.09-.48-1.84.05-.45.31-1.07,1.01-1.53,1.79-.78-.19-1.41.08-1.74.52-.31.4-.39,1.02-.04,1.62-.1.34-.13.71-.07,1.03.03.19.08.38.14.56-.27.05-.52.14-.71.29-.51.38-.64,1.01-.32,1.54.53.87,2.48,3.14,5.15,3.29.97.05,1.69.62,2.52,1.28.5.39,1,.79,1.59,1.1-.38,1.99-.77,3.69-1.12,5.19-.48,2.06-.89,3.81-1.05,5.52-.04-.06-.08-.12-.12-.18-.71-1.02-1.16-1.66-1.55-1.96-.29-.36-1.2-1.32-3.23-1.89-2.73-.76-5.59-.65-6.96.28-.64.44-.82.95-.85,1.29-.06.55.12,1.04.53,1.37,1.11.91,3.33.24,3.64.13.14-.06.31-.07.48-.04l-.59.44c-1.84-.27-3.37.33-4.04.66-.7-.23-1.21-.06-1.47.09-.46.26-.74.74-.74,1.28,0,.23.07.45.16.66-.09.1-.17.19-.23.31-.3.62-.12,1.38.46,1.94.67.64,1.48,1.02,2.01,1.22.21.75,1.12,1.44,3.15,1.44Zm74.9,5.66c-.45.06-.92-.06-1.3-.34-.38-.29-.62-.71-.68-1.16.46-.06.92.06,1.3.35h0c.37.28.61.7.68,1.16Zm-.47-2.98c-.45.07-.92-.06-1.3-.34-.38-.29-.62-.71-.68-1.16.46-.06.92.06,1.3.35.37.28.61.71.68,1.16Zm-1.28-4.25h0c.37.28.61.7.68,1.16-.45.06-.92-.06-1.3-.34-.38-.29-.62-.71-.68-1.16.46-.06.92.06,1.3.35Zm-72.8.06c-.73.03-1.23-.04-1.55-.13.82-.05,1.61-.15,2.38-.62.08.21.14.41.2.6-.28.07-.63.13-1.02.15Zm7.87,28.81c.13-.36.28-.75.45-1.2.03-.03.05-.06.08-.09-.16.4-.35.85-.53,1.29Zm.55,2.9s0,.03,0,.04c0,.01-.01.02-.02.04-.02.07-.04.14-.07.22,0-.15.02-.32.06-.49.18-.44,1.24-3.06,1.72-4.22.16-.38-.02-.82-.41-.98-.25-.1-.52-.05-.73.1.13-.43.2-.87.23-1.26.05-.65.71-1.13.71-1.13.34-.23.43-.7.19-1.04-.23-.34-.7-.43-1.04-.19-.13.09-1.25.89-1.36,2.25-.05.68-.21,1.17-.36,1.42,0-.03,0-.06.01-.09.05-.39.12-.87,0-1.36-.15-.65.04-3.33,3.68-4.57.14-.05.25-.13.34-.24l2.3-2.88s2.85-4.61,4.74-5.96c1.3-.94,1.86-2,2.11-2.77,1.32.46,2.94.7,3.94.8-1.18,3.59-4.49,7.06-6.02,8.26-.61.48-1.13.87-1.58,1.2-2.41,1.8-2.92,2.28-2.67,5.27.05.59-.1,1.22-.45,1.87-.3.57-.58,1.21-.84,1.93-.04-.28-.23-.53-.52-.62-.25-.08-.5,0-.69.15-.05-.2-.17-.38-.37-.49-.36-.19-.82-.06-1.02.31-.81,1.5-1.85,4.29-1.89,4.41Zm17.67-22.53s0-.02.01-.02l1.92-7.55c.43,1.95,1.11,3.84,2.02,5.64l.09.19c-1.04,1.25-3.99,5.28-4.31,11.15-1.69.51-6.98,2.22-10.2,4.57-.06-1.44.28-1.7,2.13-3.08.46-.34.99-.74,1.61-1.22,1.39-1.09,5.55-5.17,6.72-9.67Zm-8.32,22.79c-.2.03-.8.14-1.07.69-.32.66.03,1.34.74,2.69.27.51.59,1.12.95,1.87,1.47,3.06,1.77,7.89,1.61,10.21-.13,1.86.8,3.6,1.54,5,.34.64.66,1.24.71,1.57.05.34-.02.63-.23.91-.32.43-1.28,1.19-4.1,1.54-5.01.62-8.46.33-9.28-.27-.69-.51-.68-.52-.38-1.34l.11-.31c.56-1.6,1.01-1.88,2.52-1.61.71.13,2.42.03,5.08-.32.39-.05.72-.27.91-.6.19-.33.22-.73.07-1.08-1.19-2.9-5.19-12.85-6.82-19.02-.02-.08-.06-.15-.1-.21.21-.54.56-1.42.92-2.26l-.17.55s0,.01,0,.02c0,0,0,.01,0,.02-.14.57-.3,1.6.27,2.15.21.2.47.3.77.3.12,0,.25-.02.38-.05.68-.19,1.2-1.02,1.72-2.76.37-1.23.73-2.14,1.16-2.95.29-.54.46-1.08.56-1.61,3.14-2.96,11.06-5.21,11.14-5.23.32-.09.54-.38.55-.7.06-2.44.64-4.57,1.35-6.3.18.44.43.9.81,1.35.52.63,1.18.99,1.86,1.18-.44,4.02.59,8.18,1.31,10.49-1-.21-2.06-.28-2.85.08-.82.37-1.47,1.02-2.16,1.71-.53.53-1.08,1.07-1.73,1.52-.58.39-.98.7-1.39,1.03-.84.23-5.52,1.51-6.75,1.73Zm41.92-.84c.05.62-.26,1.19-1.12,2.04-1.9,1.84-14.93,1.98-23.24-1.87-1.62-.75-4.07-1.89-5.45-.08-.7.91-2.16,2.63-3.22,3.57-.39.35-.96.41-1.41.16l-1.86-1.02c-.21-.12-.46-.38-.46-.5,0-.05.09-.23.49-.49.9-.57,1.39-.97,1.88-1.38.02-.01.04-.03.06-.05.33-.27.75-.61,1.42-1.06.77-.53,1.39-1.15,1.94-1.7.62-.61,1.15-1.14,1.72-1.41.54-.24,1.66-.13,3.08.34,0,0,.01,0,.02,0,.02,0,.04.01.06.02.06.02.13.04.2.04.02,0,.04.01.06.01.04,0,.08,0,.12,0l2.02-.32.93.28c.62.55,1.4.86,2.24.86h1.05c0,.32.1.64.32.91.28.33.91.8,2.27.8.44,0,.96-.05,1.57-.17,1.39-.27,3.2-1.4,4.67-2.41,3.02.14,5.25.65,6.43,1.49.13.09.28.14.43.14.24,0,.47-.11.61-.32.24-.34.16-.81-.18-1.04-1.16-.82-2.98-1.36-5.4-1.62.04-.03.08-.05.11-.08.51-.37.96-.71,1.34-.96.27-.18.53-.44.79-.77,4.26,3.02,6.41,5.19,6.53,6.61Zm-19.67-10.45c.19.06.37.1.55.1.1.01.2.02.29.02.03,0,.05,0,.08,0,.08,0,.15-.01.23-.02.07,0,.15-.02.22-.04.08-.02.16-.05.24-.07.06-.02.12-.04.18-.06.1-.04.18-.09.27-.15.04-.02.08-.04.12-.07.02-.01.04-.02.06-.03h.51c.36,0,.66.29.66.64v.43c0,.35-.1.69-.31,1-.34.55-.95.89-1.58.89h-1.58c-.63,0-1.21-.32-1.54-.86-.18-.28-.28-.58-.29-.89,0-.04,0-.07,0-.11v-.46c0-.26.18-.51.42-.59.02,0,.03-.01.04-.02.02,0,.04-.01.06-.02,0,0,.03-.01.12-.01h.59s.02,0,.03.02c.16.12.34.21.52.28.04.01.07.02.11.04Zm-.11-2.41c0-.77.32-1.46.88-1.94.56.49.89,1.2.89,1.94,0,.14-.02.29-.03.4-.03.19-.13.34-.2.41-.08.08-.19.14-.32.18-.13.04-.28.05-.45.03-.2,0-.39-.09-.55-.24-.12-.11-.18-.23-.21-.44-.02-.11-.02-.23-.02-.33Zm4.99.63c.02.2.13.39.29.51l2.46,1.86c-1.26.12-2.13.27-2.74.42,0-.09.02-.18.02-.27v-.43c0-1.06-.79-1.94-1.81-2.1,0,0,0,0,0-.01.02-.19.05-.4.05-.6,0-1.16-.52-2.27-1.39-3.04.5-.45.83-.91,1.04-1.35,1.79,2.88,2.07,4.99,2.07,5.01Zm-.39-11.4c1.26-1.78,2.49-3.87,2.89-6.52,1.21,2.95,2.3,6.03,2.31,6.08,0,0,0,0,0,0l.69,1.95c-.32.9-1.34,3.89-1.3,5.98.02,1.43-.19,3.76-.34,5.23l-2.43-1.83c-.17-.9-.86-3.54-3.22-6.74-.03-.5-.01-2.18,1.39-4.16Zm.06,16.99v.72c0,.45-.17.9-.48,1.24-.36.4-.86.63-1.41.63h-3.55c-.51,0-.99-.2-1.34-.56-.33-.34-.52-.79-.52-1.27v-.76c0-.27.12-.51.3-.68.02.02.04.03.06.05.06.05.12.1.18.15.14.12.28.22.43.32.08.05.15.09.23.13.16.08.32.14.49.2.08.02.15.05.23.07.25.06.51.1.77.1h1.58c.17,0,.35-.02.52-.05.05,0,.1-.02.15-.03.13-.03.25-.06.37-.1.05-.02.09-.03.14-.05.16-.06.32-.13.47-.21,0,0,0,0,.01,0,.15-.08.28-.18.42-.28.01-.01.03-.02.04-.03.02,0,.04.02.06.03.08.05.18.09.28.13.03.01.07.03.1.04.14.05.29.09.47.12,0,.03,0,.07,0,.1Zm-6.86-5.32c-.65.37-1.09,1.06-1.09,1.83v.39c-.2.32-.41.6-.61.82-1.15,1.28-1.1,2.88-.93,3.85l-.76.12c-.59-1.73-1.95-6.32-1.5-10.58.97,0,1.85-.21,2.36-.36.56.44,1.72,1.2,3.11,1.31-.06.82-.26,1.72-.58,2.62Zm17.67-4.41s0,0,0,0c-.24.96-1.51,5.89-3.04,8.32-.38.6-.66.86-.83.98-.39.27-.86.61-1.38.99-.54.4-1.14.84-1.76,1.27-1.28.89-3.12,2.09-4.31,2.32-.85.16-1.44.16-1.82.1.8-.08,1.91-.27,3.15-1.2.34-.26.7-.58,1.06-.96l2.08-2.21c.21-.22.26-.54.14-.82-.12-.28-.38-.44-.7-.45-.01,0-1.13.02-2.17-.07.73-.14,1.85-.29,3.57-.39.37-.02.66-.31.7-.67l.03-.26c.09-.75.53-4.62.49-6.74-.04-2.14,1.29-5.65,1.3-5.68.06-.17.06-.35,0-.52l-.43-1.23c1.2-.15,2.73-.6,3.63-.9.53,1.67.8,6.06.28,8.1Zm-9.31,10.04v-.23c.07,0,.14.01.21.01l-.21.22Zm8.58-23.79l-.12-.35c.45.15.99.3,1.57.44-.24.26-.48.47-.63.48-.05,0-.3-.06-.82-.57Zm13.89.37c-.08-.45.02-.92.29-1.31.25-.36.62-.61,1.04-.7.02.24.04.48.06.71-.05.2-.13.4-.26.58-.27.38-.68.64-1.13.73Zm.42,3.31c-.08-.45.02-.93.29-1.31.27-.39.67-.64,1.12-.73,0,.04.02.07.03.11.05.42-.05.84-.3,1.2-.08.12-.18.22-.29.31-.15.08-.3.17-.43.28-.13.06-.26.11-.41.13Zm1.78,2.03c-.27.39-.68.64-1.13.73-.08-.45.02-.92.29-1.31.08-.11.17-.21.26-.3.14-.07.25-.17.38-.26.15-.08.32-.14.49-.17.08.46-.02.92-.29,1.32Zm8.33-11.01c-.19-.16-.43-.43-.67-.72.05-.06.1-.1.15-.16.32.39.47.69.51.89Zm-1.62-6.16c.59.29.96.68,1,1.08.01.13,0,.26-.06.38-.21-.59-.64-1.12-1.14-1.58.07.04.13.08.2.11Zm-.17,4.05c.32-.59.73-.94.94-1.05.02.02.05.04.06.03,0,.01-.02.05-.07.1-.05.05-.09.11-.12.18,0,.01-.09.18-.23.4-.3.45-.6.82-.94,1.12-.62.58-1.27.88-1.92.89-.03,0-.05,0-.08,0-.26-.15-.91-.57-1.32-1.2-.23-.35-.69-.45-1.04-.22-.35.23-.45.69-.22,1.04.75,1.15,1.98,1.77,2.03,1.79.03.02.07.01.1.02.05.02.09.04.15.05.02,0,.05,0,.07,0,0,0,0,0,.01,0s0,0,.01,0c.08,0,.16.01.24.01,0,0,0,0,0,0,.81.04,1.31.23,1.48.35-.4.17-1.8.09-2.98-.61-.58-.35-1.18-.79-1.71-1.2.41-1.51,1.22-2.9,2.65-3.92.25.2.4.37.48.49-.13.07-.25.18-.32.33-.02.04-.02.07-.03.11-.24-.19-.57-.23-.85-.07-.36.21-.48.67-.28,1.02.52.91,1.32,1.45,2.14,1.45h.02c.71,0,1.34-.42,1.72-1.12Zm-2.83-4.15c.94.31,2.34,1.37,2.54,2.16-.19.17-.38.36-.54.56.04-.59-.26-1.56-2.04-2.55-.04-.02-.15-.09-.12-.15.02-.04.07-.04.16-.02Zm-3.39-1.13c1.42-.46,2.41-.52,3.19-.37-.58.04-1.09.37-1.33.92-.21.48-.17,1.09.2,1.58-1.34,1.06-2.18,2.39-2.67,3.81-.18-.16-.29-.26-.3-.26-.17-.15-.4-.22-.62-.19-.22.03-.42.16-.54.36-3.19,5.36-9.1,13.45-12.12,13.71-.16-1.03-.39-1.88-.67-2.4l-.84-2.4s.06.01.09.01c.03,0,.07,0,.1,0,.85-.05,1.5-.72,2.22-1.64.58.09,1.26.17,1.96.17.58,0,1.17-.05,1.72-.19,2.47-.62,3.59-5.4,4.09-9.89,1.75-1.61,3.97-2.71,5.52-3.21Zm-6.61-3.43c-.02,1.99-.14,4.16-.37,6.22,0,.02,0,.04,0,.06-.5,4.48-1.5,8.42-2.99,8.8-1.14.29-2.55.1-3.51-.07-1.62-.28-3.07-.79-3.68-1.03l-2-6.24,5.65,3.05c.23.12.51.12.73-.01.23-.13.37-.37.37-.63.05-2.74,2.19-8.07,2.96-9.9,0,0,.01,0,.02,0,.12.03.26.06.4.08.03,0,.06,0,.09.01.13.02.27.03.41.03.03,0,.06,0,.1,0,.02,0,.04,0,.07,0,.11,0,.23-.01.35-.02.06,0,.11,0,.18-.01.2-.03.42-.06.63-.13.21-.06.4-.13.57-.21,0,0,0,0,.01,0Zm-.03-1.77s0,0-.01.01c-.02.03-.05.06-.09.09,0,0-.01.01-.02.02-.04.04-.1.08-.17.12-.02,0-.03.02-.05.03-.06.03-.12.07-.2.1-.03.01-.05.03-.08.04-.1.04-.21.09-.35.13-.16.05-.32.07-.47.09-.03,0-.07,0-.1,0-.12,0-.24,0-.35,0-.02,0-.05,0-.07,0-.13-.01-.25-.03-.36-.05,0,0-.01,0-.02,0-.1-.02-.18-.04-.26-.07,0,0-.02,0-.03,0-.24-.6-.85-1.8-2.01-2.33-.76-.35-1.3-1.72-1.43-2.17-.06-.23-.23-.41-.44-.5l-2.41-.96s0,0-.01,0c.71-.03,1.6.17,2.67.62.1.04.19.06.29.06.29,0,.57-.17.69-.46.1-.24.06-.49-.08-.7.16-.05.31-.15.41-.3.22-.35.12-.81-.23-1.03-.26-.16-.58-.32-.94-.46.18-.02.36-.11.48-.25.19-.23.23-.55.1-.82-.42-.85-1.45-1.38-3.22-1.66.29-.01.65,0,1.09.04,3.01.29,6.86,4.63,7.67,10.42Zm-9.4-15.7l4.44,2.02-.99,2.18c-.53-.22-1.06-.36-1.57-.41-3.33-.32-3.72.97-3.76,1.37-.06.64.44,1.35,1.54,1.46.13.01.26.03.39.04-.29.12-.59.29-.86.5-1.25.97-1.39,2.04-1.33,2.69-.64.56-.85,1.2-.55,1.73.18.33.53.56.98.64.5.09,1.08,0,1.62-.24l-1.43,3.14-4.44-2.02,5.97-13.12Zm-1.48,16.82c.1.05.21.07.31.07.29,0,.56-.16.68-.44l1.92-4.21.58.23c.25.71.91,2.21,2.13,2.77.63.29,1.05,1.05,1.24,1.51-.53,1.22-2.63,6.25-3.13,9.65l-6.15-3.31c-.78-1.17-1.91-2.08-3.24-2.55l-.14-.05c1.39-.76,1.96-2.63,1.25-4.35-.35-.86-.97-1.56-1.74-1.96-.04-.02-.09-.03-.13-.05.07-.17.14-.35.21-.52,0,.05,0,.11.03.16.07.19.21.34.39.42l5.8,2.64Zm-6.64,2.42c-.37.15-.81.12-1.22-.1-.46-.24-.83-.67-1.05-1.21-.22-.54-.26-1.1-.1-1.6.14-.45.42-.78.79-.93.15-.06.31-.09.48-.09.24,0,.49.07.74.2.46.24.83.67,1.05,1.21.44,1.06.12,2.19-.69,2.53Zm1.03-13.44c-.28,1.75-.89,4.5-2.2,7.72v-6.86c.05.24.2.44.43.54.32.14.7.04.91-.25.27-.38.57-.78.86-1.15Zm-24.52-.59c.56.63,1.16,1.39,1.42,1.75.21.28.59.38.91.24.32-.14.5-.49.43-.83-.57-2.83-1.1-5.93-1.32-7.79.6.88,1.22,1.91,1.51,2.41.17.3.53.45.87.35.33-.1.55-.42.53-.77-.11-1.69-.16-3.63-.1-4.86.54,1.01,1.17,2.48,1.57,3.56.11.28.37.47.66.48.3.02.58-.15.71-.41,1.91-3.84,4.45-8.19,5.34-8.75,0,0,0,0,0,0,0,0,0,0,0,0,.89.56,3.43,4.91,5.34,8.75.13.27.42.43.71.41.3-.02.56-.21.66-.48.41-1.08,1.04-2.56,1.57-3.56.06,1.23,0,3.17-.1,4.86-.02.35.2.67.53.77.33.1.69-.04.87-.35.29-.5.9-1.53,1.51-2.41-.22,1.86-.75,4.95-1.32,7.77v-1.17c0-2.72-2.21-4.93-4.93-4.93h-8.73c-3.21,0-5.82,2.61-5.82,5.82v9.56s-.04.03-.07.04c-1.82-3.47-2.67-8.27-2.78-10.45Zm19.83,13.29c.06.15.15.3.23.44l-.43-.16c-.69-.25-1.22-.81-1.43-1.51l-.09-.31c1.13-1.29,1.82-2.97,1.82-4.81v-7.06c0-1.37-1.12-2.49-2.49-2.49h-9.62c-1.37,0-2.49,1.12-2.49,2.49v7.06c0,2.47,1.23,4.65,3.11,5.97-.08.82-.5,1.56-1.2,2.01-.03.02-.06.04-.08.06-.1.06-.2.11-.29.15l-.21.09c.11-.18.21-.36.29-.56.75-1.82.07-3.84-1.51-4.49-.34-.14-.7-.19-1.06-.19v-9.15c0-2.38,1.94-4.32,4.32-4.32h8.73c1.89,0,3.43,1.54,3.43,3.43v9.12c-.53.37-.93.91-1.14,1.58-.26.83-.21,1.76.14,2.62Zm-7.65-8.89c-.3-.28-.78-.27-1.06.03-.88.93-2.36.97-3.3.09-.29-.27-.73-.27-1.02,0v-4.63c0-.55.45-.99.99-.99h9.62c.55,0,.99.45.99.99v4.5c-.3-.27-.76-.26-1.04.04-.88.93-2.36.97-3.3.09-.3-.29-.78-.27-1.06.03-.29.3-.27.78.03,1.06.74.7,1.69,1.05,2.63,1.05,1,0,1.99-.39,2.74-1.16v1.45c0,3.2-2.6,5.8-5.8,5.8s-5.8-2.6-5.8-5.8v-1.33c.74.69,1.68,1.04,2.62,1.04,1.02,0,2.03-.4,2.78-1.19.28-.3.27-.78-.03-1.06Zm6,10.07c-.2,1.94-2.14,2.94-3.99,3.23-2.19.34-4.76-.24-5.63-1.91.62-.56,1.06-1.29,1.26-2.1.86.36,1.8.56,2.79.56,1.61,0,3.09-.53,4.29-1.41.27.66.71,1.22,1.28,1.63Zm-5.23,4.82c.49,0,.98-.04,1.47-.11,2.79-.43,4.71-1.96,5.18-4.02.14,3.29-4.01,6.48-5.2,7.33-1.28-.52-5.63-2.5-6.85-5.47,1.13,1.54,3.25,2.27,5.4,2.27Zm-10.49-4.81c-.16-.5-.12-1.06.1-1.6.26-.64.74-1.11,1.26-1.3.02,0,.04,0,.06-.01.15-.05.31-.09.47-.09.17,0,.33.03.49.09.82.34,1.13,1.47.69,2.53-.22.54-.59.96-1.05,1.21-.42.22-.85.25-1.22.1-.37-.15-.65-.48-.79-.93Zm-.27,5.56c.91-1.09,1.98-1.96,3.26-2.65h0s.54-.24.54-.24c1.42,4.36,7.95,6.77,8.24,6.88.08.03.17.04.26.04.14,0,.28-.04.41-.12.26-.17,5.86-3.85,6.18-8.26l2.87,1.04c1.06.38,1.96,1.12,2.57,2.06l2.65,8.24s.01.01.01.02l1.95,5.59c-1.35.43-2.82.79-3.59.84-.52-1.46-2.18-5.99-3.58-8.87-.02-.16-.04-.31-.07-.48-.07-.41-.47-.68-.87-.6-.41.07-.68.46-.6.87.77,4.22-.77,7.11-2.55,9.61-1.93,2.71-1.69,5.06-1.63,5.42,0,.02,0,.04,0,.06.01.06.3,1.4-1.64,2.57-1.97,1.19-4.07-.75-4.15-.83-.21-.2-.51-.26-.78-.16-.03.01-3.14,1.16-4.45-.42-1.22-1.47-.74-2.76-.55-3.15.81-1.3,1.49-2.04,1.5-2.05.22-.23.27-.57.13-.86l-.32-.64c-1.42-2.79-2.22-5.79-2.39-8.92-.02-.37-.31-.67-.68-.71-.36-.04-.71.2-.8.56l-2.66,10.43c-.95-.09-2.78-.33-4.06-.84.37-2.24.74-4.42,1.23-6.41.89-3.68,2-6.16,3.58-8.04Zm-15.09-11.18c-.9-.71-1.92-1.53-3.37-1.6-1.59-.09-2.91-1.29-3.56-2.06.07.04.15.1.23.19.27.29.52.51.75.68.03.03.06.05.07.06,0,0,.02,0,.03.02,0,0,0,0,.01.01.73.52,1.41.68,1.98.77.41.06.79-.22.85-.63.06-.41-.22-.79-.63-.85-.4-.06-.83-.15-1.35-.51-.22-.2-1.07-1.03-1.25-2.09-.01-.08-.01-.16,0-.23.1.12.16.28.26.53.37.95.87,1.83,2.86,2.25.4.09.8-.17.89-.58.09-.4-.17-.8-.58-.89-1.37-.29-1.54-.73-1.78-1.34-.1-.24-.22-.52-.4-.79-.09-.4.71-1.88,1.51-2.45.01,0,.03-.02.04-.02,0,.11,0,.28-.11.52-.09.21-.21.42-.31.61-.43.77-1.15,2.05.6,3.15.12.08.26.11.4.11.25,0,.49-.12.64-.35.03-.06.05-.12.07-.18.81.33,1.74.73,2.35,1.04,1.08.55,1.88.23,2.26-.25.47-.58.41-1.48-.12-2.13-.47-.58-.85-1.42-.79-1.94.25.22.7.75,1.37,1.96.75,1.38,1.22,2.92,1.38,4.52.1.84.2,1.77.32,2.54.03.18.01.34-.04.47,0,.01,0,.03,0,.04-.3.7-1.69.97-2.82.55,0,0,0,0,0,0,0,0,0,0,0,0-.63-.23-1.18-.67-1.77-1.13Zm1,7.81c.34-1.47.73-3.11,1.1-5.04.97.16,1.99.04,2.77-.4.72,4.25-.13,11.62-.14,11.7-.03.28.09.55.32.71.23.16.53.18.77.04l7.68-4.06c-1.45,1.9-2.5,4.31-3.35,7.67-.41.1-1.09.25-1.9.4-.81.15-2.06.34-3.36.4-1.95.07-3.33-.21-4-.81-.6-.55-.93-1.68-.99-3.39-.09-2.22.4-4.31,1.08-7.21Zm6.15,12.71c-.06.14-.13.29-.18.41-.1-.1-.23-.23-.35-.35.18-.02.35-.04.52-.06Zm-17.73-9.89c-1.08.34-2.02.27-2.16.06,0-.02.04-.11.21-.22.84-.57,3.13-.8,5.71-.07,1.84.51,2.48,1.39,2.48,1.39.06.1.13.17.23.23.22.16.84,1.05,1.25,1.65.56.81.97,1.38,1.3,1.73.11,1.97.58,3.32,1.45,4.12.88.81,2.37,1.22,4.42,1.22.1,0,.21,0,.32,0,1.23,1.2,2.07,2.07,2.07,2.08.14.15.34.23.54.23.05,0,.11,0,.16-.02.26-.06.46-.24.55-.49,0,0,.33-.93.96-2.31.32-.06.61-.12.87-.18-.41,1.88-.75,3.87-1.08,5.91,0,.03,0,.05,0,.07,0,.02-.01.03-.01.05,0,.04-.02.75-.64,1.59-1.53.46-6.07-2.04-9.5-7.88l-1.31-2.18c-.53-.89-1.5-1.38-2.46-1.29-.5-1.08-1.33-2.36-2.69-3.13-.16-.09-.32-.17-.47-.24l.74-.55c.19-.14.31-.37.3-.61s-.12-.47-.32-.6c-.16-.12-1.65-1.11-2.93-.57Zm1.94,3.88c1.21.68,1.9,1.98,2.26,2.92,0,.03.02.06.04.09.22.58.3,1.01.3,1.02.07.35.38.61.74.61h.02c.24-.04.6.07.68.22.18.32.11.46.08.5-.25.2-.34.56-.23.86,0,0,.06.18.07.52l-.16.96c-.03.16,0,.28.08.43-.01.03-.06.08-.08.09-.34.21-.45.65-.26,1,.05.09.05.14.09.1-.21.24-.25.58-.09.86l.3.54s0,.02.01.04c-.29-.21-.5-.82-.56-1.2-.05-.37-.37-.64-.74-.64-.02,0-.04,0-.06,0-.03,0-.05,0-.06,0-.04,0-.07,0-.07,0-.03-.06-.04-.23-.03-.35.04-.23-.02-.46-.18-.63-.15-.17-.38-.26-.61-.25-.18.01-.31-.01-.38-.08-.12-.11-.16-.33-.16-.38,0-.26-.15-.5-.38-.63-.34-.2-.37-.36-.38-.42-.05-.32.25-.79.41-.97.15-.17.22-.39.19-.62-.01-.09-.23-1.47-.92-2.8,0-.01-.01-.02-.02-.03-.37-.71-.87-1.4-1.54-1.89-.33-.24-.69-.41-1.06-.52.8-.03,1.73.11,2.69.65Zm-5.82.11s-.04-.01-.06-.01c-.11-.02-.21,0-.32,0-.07-.06-.08-.1-.1-.11.03-.01.18-.02.48.13Zm-.69,1.49s.18-.05.42-.02c.21.03.43.11.68.21.76.29,1.78.67,3.38-.25.1.12.2.25.29.38-.58.4-1.18.44-2.12.49h-.1c-.36.02-.65.13-.88.27-.39-.15-1.02-.43-1.51-.91-.1-.1-.14-.18-.16-.18Z"/>
  <path d="m58.56,18.34c1.18,0,2.11-1.18,2.11-2.69s-.93-2.69-2.11-2.69-2.11,1.18-2.11,2.69.93,2.69,2.11,2.69Zm0-3.87c.24,0,.61.47.61,1.19s-.37,1.19-.61,1.19-.61-.47-.61-1.19.37-1.19.61-1.19Z"/>
</svg>