<?xml version="1.0" encoding="UTF-8"?>
<svg id="icons" xmlns="http://www.w3.org/2000/svg" viewBox="0 0 120 120">
  <path d="m63.25,40.92c1.05,0,2.1-.38,2.92-1.16.3-.29.31-.76.03-1.06-.28-.3-.76-.31-1.06-.03-1.1,1.04-2.84.99-3.88-.1-.29-.3-.76-.31-1.06-.03-.3.28-.31.76-.03,1.06.83.88,1.96,1.32,3.08,1.32Z"/>
  <path d="m63.17,37.71s.04,0,.06,0c.57,0,1.11-.22,1.53-.61.3-.29.31-.76.03-1.06-.29-.3-.76-.31-1.06-.03-.29.28-.75.26-1.03-.03-.29-.3-.76-.31-1.06-.03-.3.29-.31.76-.03,1.06.41.43.96.68,1.56.7Z"/>
  <path d="m64.65,29.26c0-1.14-.62-2-1.45-2s-1.45.86-1.45,2,.62,2,1.45,2,1.45-.86,1.45-2Z"/>
  <path d="m63.03,20.73c1.28,0,2.29-1.29,2.29-2.94s-1-2.94-2.29-2.94-2.29,1.29-2.29,2.94,1,2.94,2.29,2.94Zm0-4.39c.37,0,.79.62.79,1.44s-.42,1.44-.79,1.44-.79-.62-.79-1.44.42-1.44.79-1.44Z"/>
  <path d="m94.48,100.17c-.13-.03-.26-.03-.39,0-2.35.63-4.2,1.83-5.17,2.84-.16-.19-.34-.37-.54-.55,2.33-.84,5.03-2.17,6.84-4.17.05-.05.1-.11.13-.18,1.25-2.35,1.12-3.87,1.1-4.04,0-.05-.02-.1-.03-.14-1.05-3.29-4.68-5.89-5.77-6.61-1.13-.74-3.17-1.96-4.48-2.63-4.19-2.17-7.77-3.68-10.03-4.56-.76-.3-1.31-.94-1.55-1.76.95-.5,1.91-1.04,2.87-1.61,2.03,1.36,5.09,2.37,9.67,1.98,3.86-.33,6.78.46,8.69,2.35,2.84,2.81,2.54,7.19,2.53,7.23-.03.41.28.77.69.81.02,0,.04,0,.06,0,.39,0,.71-.3.75-.69.02-.21.37-5.1-2.96-8.41-2.24-2.23-5.57-3.16-9.89-2.79-3.25.29-5.99-.2-8.08-1.36,1.25-.76,2.54-1.58,3.88-2.47,1.83-1.21,2.92-3.25,2.92-5.44,0-.52-.05-.99-.16-1.45,0-.02-.01-.04-.02-.07-.01-.04-1.13-3.37-2.68-7.02,1.76-1.06,6.79-4.57,7.26-10.14.4-4.79-2.71-9.72-9.25-14.67-.46-.35-1.29-.78-2.08-1.19-.23-.12-.44-.23-.64-.33.93-3.76,1.23-7.27.48-7.96-.32-.29-.77-.31-1.13-.05-.31.22-.67.57-1.03.96,1.59-8.48,1-8.82.56-9.08-.25-.15-.65-.2-1.02.12-.51.44-1.15,1.3-1.73,2.17.14-4.77-.49-5.08-.85-5.26-.35-.17-.74-.1-1.05.17-.79.71-1.78,2.85-2.42,4.37-4.3-7.63-5.97-8.49-6.71-8.44-.74-.06-2.4.78-6.71,8.44-.63-1.52-1.62-3.67-2.42-4.37-.31-.28-.7-.34-1.05-.17-.36.18-.99.48-.85,5.26-.58-.87-1.23-1.73-1.73-2.17-.37-.31-.77-.27-1.02-.12-.44.26-1.03.6.56,9.08-.36-.38-.72-.73-1.03-.96-.36-.26-.81-.26-1.13,0-.93.72-.37,4.47.65,8.23-6.48,1.8-10.81,5.8-11.36,10.55-.43,3.72,1.66,7.21,5.62,9.48-1.47,2.89-2.87,6.36-2.87,9.19,0,2.11.56,3.5,1.71,4.24.58.38,1.3.57,2.17.57,1.03,0,2.29-.28,3.78-.81.11.82.12,2.17-.75,3.31-1.34,1.77-4.39,2.57-8.82,2.32-7.34-.41-13.4,2.04-16.21,6.55-1.88,3.01-3.18,8.29,1.31,16.29.14.25.39.38.66.38.12,0,.25-.03.37-.1.36-.2.49-.66.29-1.02-3.27-5.82-3.73-10.93-1.34-14.76,2.52-4.03,8.07-6.23,14.85-5.84,5.02.28,8.43-.71,10.11-2.93,1.32-1.75,1.18-3.75.98-4.77.22-.09.43-.17.66-.27.87-.39,1.63-.77,2.32-1.13.26.37.53.74.78,1.08.3.41.59.8.87,1.19,1.9,2.66,1.61,4.87,1.62,4.87-.01.04-.05.19-.07.41-.03,0-.06.01-.09.02-1.09.26-1.63.53-1.85.95,0,0,0,0,0,.01-.02.04-.04.08-.06.12-.01.03,0,.06-.01.09,0,.03-.02.05-.03.08,0,.04,0,.08,0,.12,0,0,0,0,0,.01-.03.41.01.83.1,1.25-.17.33-.34.66-.48.96-1.18,2.56-2.99,4.66-5.23,6.09l-3.94,2.5c-6.57,3.53-9.62,6.95-8.84,9.8l.03.18c.38,2.64,1.64,4.71,3.72,6.16-1.96.64-3.47,1.52-4.36,2.58-.96-1.02-2.82-2.23-5.19-2.86-.12-.03-.26-.03-.39,0-3.9,1.03-6.22,3-6.22,5.25,0,1.28.68,2.45,1.9,3.29,1.84,1.25,4.22,1.63,6.42,1.63,2.79,0,5.29-.61,6.01-.8,1.52.6,3.22.8,4.83.8,2.79,0,5.29-.61,6.02-.81,1.34.52,2.91.8,4.75.8.69,0,1.42-.04,2.18-.11,1.8-.18,3.24-.53,3.79-.67,1.02.41,2.14.63,3.26.63s2.26-.22,3.28-.64c.77.21,3.23.79,5.97.79,1.6,0,3.3-.2,4.82-.8.53.14,2.01.5,3.88.68.65.06,1.36.11,2.1.11,1.57,0,3.27-.2,4.81-.79.75.2,3.22.8,5.99.8,2.2,0,4.58-.38,6.42-1.63,1.23-.84,1.9-2,1.9-3.29,0-2.26-2.33-4.22-6.22-5.25Zm-7.32,7.3c-1.16.79-2.62,1.15-4.07,1.29.77-.78,1.35-1.92,1.38-3.58,0-.41-.32-.76-.73-.77h-.02c-.41,0-.74.33-.75.73-.07,3.37-2.97,3.57-3.4,3.58-.75-.07-1.44-.18-2.01-.29,1-.81,1.54-1.87,1.54-3.02,0-.36-.07-.7-.18-1.05.04-.05.1-.13.21-.25,0,0,0,0,0,0,0,0,0,0,0,0,.7-.76,2.25-1.85,4.36-2.45,1.12.31,2.09.71,2.9,1.19,0,0,0,0,0,0,1.3.76,2.02,1.67,2.02,2.56,0,.77-.45,1.5-1.25,2.05Zm-32.41-32.81c-.03-.1-.05-.2-.07-.29.13.03.29.05.44.08.08.01.14.03.23.04.26.04.54.08.85.13.32.04.65.09.99.12.31.03.64.06.97.09.02,0,.05,0,.07,0,.3.02.6.04.91.05.08,0,.15,0,.22.01.23,0,.46.01.7.01.14,0,.27,0,.41,0,.07,0,.14,0,.21,0,.04,0,.07,0,.11,0-.08.21-.08.45,0,.7.07.19.21.38.74.84.29.25.65.55,1.01.84-.84.07-1.83.19-2.73.36-.04,0-.08.01-.13.02-1.51.19-4.31-1.08-4.93-3.03Zm3.69-1.53c.35-.03.71-.06,1.09-.08.06,0,.11,0,.17-.01.4-.02.81-.04,1.23-.05.09,0,.19,0,.28,0,.43,0,.85,0,1.28,0,0,0,0,0,0,0,.42,0,.84.03,1.25.06.09,0,.19.01.28.02.07,0,.14.02.22.02-.42.08-.84.14-1.27.19-.1.01-.21.02-.31.03-.42.04-.84.07-1.25.09-.07,0-.14,0-.21,0-.37.01-.74.01-1.1,0-.08,0-.17,0-.25,0-.39,0-.77-.03-1.14-.05-.08,0-.17-.01-.25-.02-.32-.02-.63-.05-.93-.08-.05,0-.1,0-.15-.01,0,0,0,0,0,0,.29-.04.58-.07.89-.1.06,0,.12-.01.18-.02Zm20.26-.59s-.06.05-.09.07c-.02.01-.03.03-.05.04-.06.04-.15.07-.25.07-.28,0-.5-.22-.5-.5,0-.13.05-.25.15-.35.05-.05.17-.14.35-.14.28,0,.5.22.5.49,0,.11-.04.22-.11.32Zm-1.81-3.07l-1.95,1.34c-.56-2.08-.36-4.39.58-6.33l1.55,3.08.06.12c.4.77.57,1.19-.24,1.79Zm-3.25,2.23l-.72.5c-.47-1.11-1.02-2.2-1.67-3.24,0,0,0,0,0,0,0,0,0,0,0,0,0-.01-.01-.02-.02-.03,0,0,0,0-.01-.01-.01-.02-.03-.04-.04-.06-.59-.94-1.13-1.63-1.46-2.03l.13-.27c1.3-2.55,2.18-5.32,2.62-8.15l2.26,4.49c-1.66,2.61-2.04,5.91-1.08,8.81Zm-.53,4.42c-.07.03-.13.03-.2.04-.03,0-.06.02-.09.02,0,0,0,0,0,0-.26-.02-.44-.24-.44-.5,0-.05,0-.1.04-.19.07-.19.25-.31.46-.31.28,0,.5.22.5.5,0,.18-.11.36-.27.44Zm-1.47-3.04l-4.39,3.01c-.14.09-.29.14-.45.15.09-.14.19-.3.28-.46.6-.29,2.19-1.11,3-2.09.48-.58.84-1.14,1.09-1.68.16.35.31.71.46,1.07Zm-7.24,2.14s-.09-.04-.14-.06c-.28-.12-.55-.24-.82-.34-.04-.02-.09-.04-.14-.06.02,0,.03,0,.05,0,.42-.05.84-.12,1.25-.21.09-.02.18-.03.27-.05.42-.09.84-.2,1.25-.32.03,0,.06-.01.09-.02-.09.23-.2.46-.32.7-.17.32-.34.6-.5.82,0,0-.02,0-.03-.01-.31-.15-.63-.3-.96-.44Zm-4.51,3.96s.08-.01.12-.02c.02,0,.03,0,.05,0,.61-.12,1.27-.21,1.9-.27,1.38-.15,2.6-.19,2.61-.19.32-.01.59-.22.69-.52.1-.3,0-.63-.26-.82,0,0-.02-.01-.05-.04-.09-.07-.3-.23-.57-.45.26.12.51.24.75.35l.56.27c.76.39,1.69.33,2.45-.19l2.37-1.63c.13.02.27.04.38.07.03,1.01.81,1.82,1.8,1.92-2.15,1.05-3.9,1.71-5.15,1.9-2.96.44-5.46.14-7.05-.18-.26-.05-.51-.11-.73-.16.04,0,.08-.02.12-.03Zm14.72-2.52c.17-.3.27-.63.27-.99,0-.95-.66-1.74-1.55-1.94l.9-.62c.07.14.12.28.2.41.38.67.96,1.46,1.78,2.23-.54.31-1.07.62-1.6.91Zm1.12-3.89c-.1-.17-.16-.35-.25-.52l.79-.54s.08.02.11.03c-.04.16-.07.32-.07.48,0,1.1.9,2,2,2,.21,0,.41-.04.61-.11-.46.29-.92.57-1.37.84-.73-.61-1.35-1.34-1.83-2.18Zm2.37-38.02c.67.35,1.51.79,1.87,1.06,6.1,4.61,9.01,9.1,8.66,13.34-.39,4.65-4.68,7.8-6.37,8.88-1.31-2.93-2.52-5.17-3.61-6.63-2.04-2.72-3.69-4.18-4.86-4.96.2-.04.4-.09.59-.17.87-.36,1.51-1.09,1.82-2.05.29-.92.23-1.95-.16-2.9-.15-.36-.34-.67-.56-.96.89-1.61,1.68-3.68,2.28-5.78.11.06.23.12.34.18Zm-10.08,17.63c-1.62,1.43-3.45,3.06-2.38,6.56.22.72.34,1.44.39,2.15-.6-.09-1.16-.37-1.58-.82-.29-.3-.76-.31-1.06-.03-.3.29-.31.76-.03,1.06.71.74,1.64,1.18,2.64,1.29-.23,2.26-1.25,4.21-2.55,5.18-.78.58-2.01,1.08-3.44.12-2.27-1.51-2.43-4.09-2.22-5.88.41-.2.8-.45,1.16-.79.3-.28.31-.76.03-1.06-.1-.11-.23-.17-.37-.2,2.31-1.71,2.85-4.09,2.93-5.59,1.37-.54,7.68-3.22,9.07-7.74l.29.13c.1,2.94-1.34,4.26-2.88,5.62Zm-16.17,10.52s0,0,0,0c0,0,0,0,0,0-.3.17-.62.34-.96.51-.14-.09-.35-.25-.56-.49.38-.36.62-.86.62-1.41,0-.75-.42-1.41-1.05-1.75.02-.09.06-.2.1-.29.03,0,.06-.01.09-.02,0,0,0,0,0,0,0,0,0,0,0,0,0,0,0,0,.01,0,1.91-.5,4.54-1.64,4.66-1.69.24-.1.41-.32.44-.58l.44-3.09c.32-2.22.67-3.64,1.14-4.61.14-.28.28-.52.41-.74-.15.56-.28,1.26-.37,2.05-.16,1.51-.19,3.49.51,4.38.43.54.86.68,1.18.68.21,0,.37-.05.47-.1.81-.36,1.07-1.54.91-2.52-.04-.22-.04-.45,0-.7.07.28.13.65.15,1.1,0,0,0,0,0,0,0,0,0,0,0,0,.05,1.12-.12,3.9-2.91,5.53-.03.02-.06.05-.09.08-.04.03-.08.06-.11.1,0,0-.02.01-.03.02-.48.48-1.14,1.02-1.91,1.58,0,0,0,0,0,0-.02.01-.03.02-.04.03-.94.67-1.98,1.32-3.11,1.93Zm-2.89-5.4c.02.22.04.43.08.64l-.11.02c-.14.03-.28.06-.41.08.09-.18.25-.44.44-.75Zm-.05,3.51s0,0,0,0c0,0,0,0,0,0,0,0,0,0,.01,0,.01,0,.03,0,.04,0,.26.02.47.23.47.49,0,.22-.14.41-.35.47-.02,0-.13.03-.15.03-.28,0-.5-.22-.5-.5s.2-.48.47-.5Zm1.86-15l2.88-1.04c.07,1.37.6,2.8,1.6,4.25-.45,1.08-.8,2.54-1.1,4.65l-.04.29c-1.3-1.75-3.32-5-3.33-8.15Zm1.31-7.97c.2,0,.4.04.59.11.45.19.79.58.96,1.12.18.58.14,1.25-.12,1.88-.51,1.25-1.73,1.94-2.71,1.54-.98-.4-1.36-1.75-.84-3,.42-1.01,1.29-1.65,2.12-1.65Zm2.98.78c-.25-.78-.72-1.4-1.35-1.8l.06-9.76c0-2.2,1.79-3.99,3.99-3.99h9.89c2.75,0,4.99,2.24,4.99,4.99v10.47c-.43-.02-.85.05-1.26.21-.36.15-.67.37-.94.64.58-1.05.92-2.25.92-3.53v-9.1c0-1.37-1.12-2.49-2.49-2.49h-11.37c-1.38,0-2.49,1.12-2.49,2.49v9.1c0,1.91.74,3.65,1.95,4.95-.21.7-.69,1.28-1.32,1.62-.11.06-.23.11-.36.16l-1.52.55c.48-.42.88-.97,1.15-1.62.39-.95.45-1.98.16-2.9Zm6.4,13.95c-.11-.77-.36-1.56-.79-1.92-.36-.31-.8-.41-1.21-.26-.24.09-.44.26-.61.49-.18-.17-.34-.33-.51-.49.12-.87.29-1.62.46-2.06.03-.08.05-.14.07-.21,1.18.5,2.54.77,3.89.77,1.19,0,2.38-.2,3.43-.61,1.37-.53,2.4-1.4,2.98-2.47h.03c-.95,3.55-5.9,5.98-7.75,6.77Zm-3.05.7c.04.23.03.44,0,.6-.1-.27-.19-.79-.19-1.56.05.05.1.09.16.14-.02.28-.02.56.03.82Zm-2.35-5.76c-.66-1.15-.97-2.24-.91-3.27l.17-.06c.19.95.66,1.8,1.37,2.52-.17.19-.39.46-.63.82Zm.44-14.47c.03.07.07.14.12.19.78.82,1.83,1.29,2.97,1.32.04,0,.08,0,.12,0,1.09,0,2.12-.41,2.92-1.16.3-.29.31-.76.03-1.06-.29-.3-.76-.31-1.06-.03-1.1,1.04-2.84.99-3.88-.1-.29-.3-.76-.31-1.06-.03-.07.06-.11.14-.15.21v-5.63c0-.55.45-.99.99-.99h11.37c.55,0,.99.45.99.99v5.44c-.28-.15-.63-.12-.86.11-1.1,1.04-2.84.99-3.88-.1-.29-.3-.76-.31-1.06-.03-.3.29-.31.76-.03,1.06.78.82,1.83,1.29,2.97,1.32.04,0,.08,0,.12,0,1.02,0,1.98-.37,2.75-1.03v2.33c0,3.2-2.6,5.8-5.8,5.8h-1.75c-3.2,0-5.8-2.6-5.8-5.8v-2.82Zm13.22,10.68c.14.33.31.63.51.91l-.55-.24c-.12-.06-.24-.11-.36-.19-.03-.03-.06-.05-.1-.08-.97-.63-1.35-1.17-1.4-2.02.71-.43,1.35-.98,1.87-1.62-.4.95-.44,2.12.02,3.23Zm-11.58-1.86c1.18.83,2.62,1.31,4.17,1.31h1.75c.83,0,1.62-.14,2.36-.4.22,1.05.82,1.74,1.5,2.26-.5.99-1.47,1.55-2.25,1.85-2.06.8-4.84.62-6.73-.4-.1-.2-.24-.33-.34-.39-.09-.06-.26-.13-.46-.14-.83-.66-1.28-1.49-1.37-2.47.59-.42,1.07-.97,1.38-1.62Zm12.97,1.29c-.51-1.25-.14-2.6.84-3,.36-.15.75-.14,1.13-.02.02,0,.04.02.06.02.62.22,1.2.77,1.52,1.54.26.63.3,1.3.12,1.88-.17.54-.51.93-.96,1.12-.98.4-2.19-.29-2.71-1.54Zm-20.37-14.11c.21.28.59.38.91.24.32-.14.5-.49.43-.83-.69-3.41-1.33-7.16-1.54-9.22.75,1.05,1.58,2.42,1.94,3.05.17.3.54.45.87.35.33-.1.55-.42.53-.77-.14-2.09-.19-4.49-.1-5.87.65,1.14,1.45,3.01,1.96,4.35.1.27.36.46.65.48.29.02.57-.13.71-.39,2.21-4.03,5.12-8.56,6.1-9.02.02,0,.04,0,.07,0,.02,0,.04,0,.07,0,.97.46,3.89,4.99,6.1,9.02.14.26.42.41.71.39.29-.02.55-.21.65-.48.5-1.34,1.31-3.21,1.96-4.35.09,1.37.04,3.78-.1,5.87-.02.35.2.67.53.77.33.1.69-.04.87-.35.36-.63,1.18-2,1.94-3.05-.21,2.06-.85,5.81-1.54,9.22-.07.34.11.69.43.83.32.14.7.04.91-.24.33-.45,1.11-1.45,1.8-2.19-.03,1.32-.35,3.72-1.01,6.3,0,0,0,.01,0,.02-.52,2.01-1.24,4.13-2.21,5.94-.07-.05-.14-.1-.22-.14v-10.89c0-3.58-2.91-6.49-6.49-6.49h-9.89c-3.03,0-5.49,2.46-5.49,5.48l-.05,9.3c-.35-.01-.7.02-1.04.12-1.53-4.16-2.22-7.97-2.3-9.71.71.75,1.53,1.8,1.86,2.26Zm-12.08,14.78c.48-4.14,4.4-7.65,10.28-9.28.28.94.59,1.85.9,2.68-.52.43-.97,1.01-1.26,1.71-.83,2.01-.08,4.24,1.66,4.96.3.12.6.18.91.2l-1.36.49s0,0-.01,0h0c-1.46.53-2.73,1.52-3.54,2.72-.08.1-.15.19-.21.3h0s0,.01,0,.01c-.4.59-1.43,2.16-2.53,4.16-3.43-1.97-5.2-4.84-4.84-7.96Zm3.78,21.47c-.69-.45-1.02-1.42-1.02-2.98,0-5.08,5.25-12.97,5.85-13.85l.17-.25s0,0,0-.01c.48-.71,1.12-1.29,1.86-1.73.32,4.35,3.6,8.47,4.52,9.55l-.05.33c-.65.27-2.04.83-3.28,1.23-.12-.86-.1-1.75.04-2.66l.3-.44c.09-.13.13-.28.13-.43,0-.24-.11-.47-.32-.62-.34-.23-.81-.15-1.04.19l-.41.59s0,0,0,0c-1.27,1.86-2.02,3.07-2.21,3.58-.16.41-.4,1.03,0,1.51.21.25.47.35.83.35,0,0,0,0,0,0-.53.36-.88.97-.88,1.66,0,1.08.87,1.96,1.95,1.99.16.25.34.45.51.63-.12.05-.23.11-.35.16-3.31,1.49-5.54,1.89-6.61,1.2Zm12.42.45c-.28-.39-.58-.8-.88-1.21-.22-.3-.45-.6-.67-.92.8-.46,1.56-.94,2.26-1.44.18.03.37.05.55.05.05,0,.1-.01.14-.01-.15,2.13.25,4.96,2.92,6.73.79.53,1.63.79,2.47.79.93,0,1.85-.32,2.7-.95,1.62-1.21,2.96-3.64,3.18-6.49.67-.18,1.29-.5,1.81-.99.3-.29.31-.76.03-1.06-.29-.3-.76-.31-1.06-.03-.23.22-.49.38-.78.51-.06-.78-.2-1.59-.45-2.4-.79-2.58.35-3.59,1.94-5,1.48-1.31,3.27-2.93,3.39-6.15.94.5,2.67,1.77,5.05,4.94,1.11,1.5,2.38,3.88,3.77,7.1,1.57,3.63,2.76,7.11,2.89,7.49.08.34.11.69.11,1.08,0,1.69-.84,3.26-2.25,4.2-.59.39-1.16.76-1.73,1.12-.03-.08-.07-.16-.11-.24.12-.26.19-.54.19-.82,0-1.1-.9-1.99-2-1.99-.02,0-.03,0-.05,0,1.22-1.29.51-2.64.19-3.26l-5.81-11.55c-.15-.3-.49-.47-.82-.4-.33.07-.58.36-.59.7-.18,3.5-1.12,7-2.72,10.15l-.36.73c-.14.28-.09.62.13.85,0,0,.75.79,1.63,2.19,0,0,.02.02.03.04,0,.02.01.03.02.05.37.72.03,1.72-1.02,3-.22.26-.55.53-.92.78.01-.04.02-.06.03-.09.02-.06.03-.12.05-.16.01-.05.02-.08.03-.11,0-.04.01-.06.02-.07,0,0,0,0,0,0,0,0,0,0,0,0,.02-.07.02-.14.02-.21,0,0,0,0,0,0,0-.01,0-.03,0-.04,0-.02,0-.05-.01-.07,0-.03-.01-.07-.02-.1,0-.03-.02-.05-.04-.07,0,0,0,0,0,0-.01-.02-.02-.04-.03-.06-.01-.02-.02-.04-.03-.05-.02-.03-.04-.05-.06-.07s-.04-.05-.06-.07c0,0,0,0,0,0,0,0,0,0,0,0,0,0-.01,0-.02-.01-.03-.02-.06-.03-.08-.05-.04-.02-.07-.04-.11-.05-.01,0-.02-.01-.03-.02-.34-.11-.71-.2-1.09-.28-.05-.01-.11-.02-.16-.04-.36-.07-.74-.13-1.13-.18-.09-.01-.18-.02-.26-.03-.38-.04-.77-.08-1.16-.1-.1,0-.21-.01-.31-.02-.39-.02-.79-.04-1.19-.04-.1,0-.2,0-.3,0-.39,0-.78,0-1.16,0-.09,0-.17,0-.26,0-.37.01-.74.03-1.1.05-.09,0-.18,0-.27.02-.38.02-.74.06-1.1.09-.1,0-.2.02-.3.03-.34.04-.67.07-.98.12-.04,0-.09,0-.13.02.06-.67.09-3.12-1.88-5.87Zm-18.58,28.12l-.05-.27c-.58-2.11,2.37-5.09,8.13-8.19l3.98-2.53c2.45-1.55,4.43-3.83,5.73-6.59.83,1.13,2.09,1.92,3.32,2.35-.05.14-.08.28-.07.43.02.47.33.86.78,1.01.47.15,1.19.37,2.11.55,1.08.22,2.57.44,4.34.44,1,0,2.08-.07,3.23-.24,1.38-.21,3.23-.89,5.47-1.98.41,1.13,1.26,2.03,2.37,2.47,2.23.87,5.75,2.36,9.89,4.5,1.23.63,3.24,1.83,4.34,2.55,2,1.32,4.39,3.51,5.14,5.72,0,.27-.04,1.38-.89,3.02-1.51,1.65-4.01,3.06-7.24,4.09-.91-.5-1.96-.91-3.16-1.23-.13-.03-.26-.03-.39,0-2.44.65-4.26,1.88-5.18,2.85-.74-.87-1.89-1.63-3.37-2.22-.32-.75-.58-1.59-.72-2.45-.29-1.85-.22-4.56,1.66-7.09.9-.07,1.79-.13,2.64-.17h4.35c2.71.1,3.71,1.57,3.76,1.64.14.23.39.35.63.35.13,0,.27-.04.39-.11.35-.22.46-.68.24-1.03-.06-.09-1.41-2.21-5-2.35h-4.41c-1.02.04-2.06.12-3.11.2,0,0,0,0,0,0-.38.03-.76.06-1.14.09-.35.04-.81.06-1.34.06l-.06-.06c-.8-.8-1.55-1.56-2.48-1.98-1.26-.58-3.14-.17-4.6.31l-.78-.13-.03-.04c-.34-.33-.7-.59-1.08-.77,0,0,0,0,0,0,0,0,0,0,0,0-1.17-.58-2.29-.49-3.02-.31-.75.19-1.6.13-2.44-.16-.44-.16-.86-.34-1.25-.51-1.47-.65-3.13-1.38-4.56.51-.15.21-.22.46-.18.73.03.18.11.38.28.62h-2.23c-.23-.14-.52-.14-.76,0h-.88c-3.93.15-6.77.82-8.43,1.99-.34.24-.42.71-.18,1.05.15.21.38.32.61.32.15,0,.3-.04.43-.14,1.4-.99,4.04-1.58,7.59-1.72h.98c2.43,2.78,3.94,5.52,4.38,7.93.33,1.78.02,2.96-.17,3.46-.18.03-.43.07-.72.11-.77-.4-1.61-.73-2.54-.98-.13-.03-.26-.03-.39,0-1.21.32-2.26.74-3.16,1.23-4.52-.24-9.98-1.73-10.8-7.34Zm31.06,8.94c-1.11-1.21-3.05-2.2-5.62-2.83-.12-.03-.24-.03-.36,0-2.56.63-4.48,1.61-5.59,2.81-.24-.24-.52-.49-.85-.74.04-.04.09-.08.13-.14.04-.07,1.04-1.79.48-4.79,0-.03-.02-.06-.02-.09l8.72-1.82c1.48.8,2.51,1.31,2.51,1.31,1.82.96,3.82,1.74,5.94,2.35.08.38.15.76.26,1.13-.01,0-.02,0-.03,0-.13-.03-.26-.03-.39,0-2.34.62-4.19,1.82-5.16,2.83Zm-1.83,4.49c-.32.24-.66.43-1.05.59-.66.3-1.37.48-2.1.56l-.07-3.95c0-.41-.35-.69-.76-.74-.42,0-.74.35-.74.76l.07,3.94c-.75-.07-1.49-.24-2.17-.54-.04-.03-.09-.05-.14-.06-.36-.17-.7-.36-1.01-.58-.62-.46-1.37-1.18-1.37-2.05,0-.26.07-.52.21-.79.02-.04.05-.07.07-.12.67-1.15,2.54-2.2,5.07-2.85,2.6.67,4.52,1.76,5.15,2.94.14.27.22.55.22.81,0,.88-.76,1.6-1.39,2.06Zm6.92-10.07c-1.78-.55-3.47-1.23-5.02-2.05,0,0-.78-.39-1.94-1.01-.04-.12-.1-.23-.2-.31-.33-.29-.37-.55-.36-.74.03-.73.84-1.69,1.53-2.3,1.69.29,4.08.44,5.97.44.52,0,.99-.01,1.39-.04-1.22,2.13-1.47,4.27-1.36,6.01Zm-5.57-7.86s-.1-.09-.15-.12c1.27-.35,2.31-.42,2.85-.17.32.14.63.36.94.63-1.28-.06-2.6-.17-3.64-.34Zm-3.85-.95s0,0,0,0c.24.12.48.3.65.45l.16.19s0,0,0,0l1.01,1.22c-.66.71-1.39,1.71-1.43,2.77,0,0,0,.01,0,.02-2.94-1.58-6.41-3.52-8.37-4.9-.66-.47-1-.77-1.17-.95.58-.56,1.15-.35,2.51.25.42.19.88.38,1.36.55,1.12.39,2.26.46,3.3.2.71-.18,1.37-.11,1.98.19Zm-9.99,1.03c.46.02.9.04,1.33.07,1.92,1.33,5.02,3.08,7.79,4.58l-7.03,1.47c-.63-1.97-1.8-4.02-3.49-6.12h1.4Zm-7.8,13.1c-.09.09-.17.18-.25.27-.11-.11-.21-.23-.35-.35.19.03.4.05.59.07Zm-5.62-1.07c2.7.77,4.24,2.21,4.57,2.69-.12.35-.18.7-.18,1.06,0,1.14.55,2.2,1.55,3.02-.27.05-.57.1-.89.15-.47,0-3.82-.05-4.06-3.48-.03-.41-.4-.71-.8-.69-.41.03-.72.39-.69.8.12,1.7.83,2.85,1.74,3.6-1.75-.07-3.53-.42-4.9-1.35-.8-.55-1.25-1.28-1.25-2.05,0-1.46,1.92-2.92,4.91-3.75Zm-15.75,3.75c0-1.46,1.92-2.92,4.91-3.75,2.79.79,4.36,2.32,4.61,2.74-.11.33-.18.66-.18,1.01,0,1.15.55,2.2,1.54,3.01-.36.07-.77.13-1.21.19-.07-.02-.14-.04-.21-.04h0s-2.2-.01-3.4-1.28c-.6-.63-.86-1.47-.8-2.56.02-.41-.29-.77-.71-.79-.41-.03-.77.29-.79.71-.09,1.51.32,2.74,1.21,3.68.16.16.33.3.5.44-1.52-.13-3.03-.5-4.22-1.31-.8-.55-1.25-1.28-1.25-2.05Zm30.58,3.3c-.54-.14-3.09-.98-2.95-3.98.02-.41-.3-.76-.71-.78-.39-.02-.77.3-.78.71-.09,1.92.66,3.25,1.62,4.14-1.7-.07-3.48-.42-4.84-1.34-.81-.56-1.26-1.29-1.26-2.05,0-.9.75-1.83,2.11-2.61.78-.45,1.72-.83,2.81-1.14.83.24,1.59.54,2.27.91,1.24.66,1.98,1.37,2.23,1.66-.04.09-.05.18-.08.26-.02.07-.05.14-.06.21-.06.23-.09.47-.09.71,0,.25.04.5.1.75,0,.03.01.05.02.08.06.23.16.46.28.69.02.04.04.07.06.11.12.22.28.43.45.64.03.04.06.07.09.11.19.21.39.41.63.61.01.01.02.02.04.04-.55.1-1.2.2-1.91.28Zm12.32-.31c.24-.2.45-.4.64-.62.03-.03.06-.07.09-.1.18-.21.33-.43.46-.65.02-.03.04-.07.06-.11.12-.23.22-.45.28-.69,0-.03.01-.05.02-.08.06-.25.1-.5.1-.75,0-.23-.04-.46-.09-.69-.02-.07-.04-.14-.06-.2-.03-.08-.04-.17-.07-.25.44-.55,1.97-1.88,4.51-2.6.41.12.81.25,1.21.39,1.44.53,2.56,1.24,3.17,2.02.36.44.54.89.54,1.34,0,.77-.44,1.5-1.24,2.05-1.23.83-2.79,1.19-4.35,1.31.85-.72,1.59-1.79,1.99-3.35.1-.4-.14-.81-.54-.91-.39-.1-.81.14-.91.54-1.02,3.98-4.53,3.55-4.68,3.54-.05,0-.1,0-.15,0-.35-.05-.68-.11-.98-.16.01,0,.02-.02.03-.03Zm31.19-.94c-1.39.95-3.2,1.29-4.97,1.35,1.14-.71,2.17-1.82,2.45-3.54.07-.41-.21-.79-.62-.86-.41-.07-.79.21-.86.62-.46,2.87-4.17,3.46-4.77,3.53-.29-.04-.56-.09-.82-.14,1-.82,1.55-1.87,1.55-3.02,0-.36-.06-.72-.18-1.07.34-.49,1.88-1.91,4.56-2.68,2.99.83,4.91,2.29,4.91,3.75,0,.77-.44,1.5-1.25,2.05Z"/>
</svg>