<svg id="Mu" xmlns="http://www.w3.org/2000/svg" viewBox="0 0 150 150"><title>Cosmic eggs Mu symbol-bold</title><path d="M75.37,55.08a18,18,0,1,0-18-18A18,18,0,0,0,75.37,55.08Zm0-28a10,10,0,1,1-10,10A10,10,0,0,1,75.37,27.08Z"/><rect x="66.37" y="57.08" width="4" height="5.87"/><rect x="73.37" y="57.08" width="4" height="5.87"/><rect x="80.37" y="57.08" width="4" height="5.87"/><rect x="66.37" y="66.86" width="4" height="5.87"/><rect x="73.37" y="66.86" width="4" height="5.87"/><rect x="80.37" y="66.86" width="4" height="5.87"/><polygon points="43.38 104.08 43.38 130.08 51.38 130.08 51.38 112.08 98.38 112.08 98.38 130.08 106.38 130.08 106.38 104.08 43.38 104.08"/><path d="M50.22,83.37a5.78,5.78,0,0,0,9.8,0c.83-1,1.15-1.29,1.85-1.29s1,.31,1.84,1.29a5.79,5.79,0,0,0,9.81,0,9.44,9.44,0,0,1,.78-.86,1.53,1.53,0,0,1,2.13,0,9.44,9.44,0,0,1,.78.86,5.79,5.79,0,0,0,9.81,0c.82-1,1.14-1.29,1.84-1.29s1,.31,1.85,1.29a5.79,5.79,0,0,0,9.81,0c.83-1,1.15-1.29,1.85-1.29v-4a6.16,6.16,0,0,0-4.9,2.71c-.82,1-1.15,1.29-1.85,1.29s-1-.32-1.85-1.29a6.16,6.16,0,0,0-4.91-2.71,5.74,5.74,0,0,0-4.49,2.23V76.64h-4v4.27l-.1-.12a7.42,7.42,0,0,0-2.9-2.33V76.64h-4v1.81a7.54,7.54,0,0,0-2.91,2.34l-.09.1V76.64h-4v3.69a5.74,5.74,0,0,0-4.5-2.25A6.14,6.14,0,0,0,57,80.79c-.82,1-1.15,1.29-1.85,1.29s-1-.32-1.84-1.29a6.16,6.16,0,0,0-4.91-2.71v4C49.07,82.08,49.4,82.39,50.22,83.37Z"/><path d="M50.22,91.37a5.78,5.78,0,0,0,9.8,0c.83-1,1.15-1.29,1.85-1.29s1,.31,1.84,1.29a6.16,6.16,0,0,0,4.91,2.71,6,6,0,0,0,4.75-2.54l.15-.17c.82-1,1.15-1.29,1.85-1.29s1,.31,1.84,1.29l.16.19a6,6,0,0,0,4.74,2.52A6.18,6.18,0,0,0,87,91.37c.82-1,1.14-1.29,1.84-1.29s1,.31,1.85,1.29a5.79,5.79,0,0,0,9.81,0c.83-1,1.15-1.29,1.85-1.29v-4a6.16,6.16,0,0,0-4.9,2.71c-.82,1-1.15,1.29-1.85,1.29s-1-.32-1.85-1.29a6.16,6.16,0,0,0-4.91-2.71,5.74,5.74,0,0,0-4.49,2.23l-.41.48c-.82,1-1.15,1.29-1.85,1.29s-1-.3-1.74-1.17l-.1-.12a7.42,7.42,0,0,0-2.9-2.33v0h-.08a5.47,5.47,0,0,0-3.85,0h-.07v0a7.54,7.54,0,0,0-2.91,2.34l-.09.1c-.75.89-1.08,1.19-1.75,1.19s-1-.32-1.85-1.29c-.12-.15-.25-.3-.4-.46a5.74,5.74,0,0,0-4.5-2.25A6.14,6.14,0,0,0,57,88.79c-.82,1-1.15,1.29-1.85,1.29s-1-.32-1.84-1.29a6.16,6.16,0,0,0-4.91-2.71v4C49.07,90.08,49.4,90.39,50.22,91.37Z"/><path d="M50.22,100.37a5.78,5.78,0,0,0,9.8,0c.83-1,1.15-1.29,1.85-1.29s1,.31,1.84,1.29a6.16,6.16,0,0,0,4.91,2.71,6,6,0,0,0,4.75-2.54l.15-.17c.82-1,1.15-1.29,1.85-1.29s1,.31,1.84,1.29l.16.19a6,6,0,0,0,4.74,2.52A6.18,6.18,0,0,0,87,100.37c.82-1,1.14-1.29,1.84-1.29s1,.31,1.85,1.29a5.79,5.79,0,0,0,9.81,0c.83-1,1.15-1.29,1.85-1.29v-4a6.16,6.16,0,0,0-4.9,2.71c-.82,1-1.15,1.29-1.85,1.29s-1-.32-1.85-1.29a6.16,6.16,0,0,0-4.91-2.71,5.74,5.74,0,0,0-4.49,2.23l-.41.48c-.82,1-1.15,1.29-1.85,1.29s-1-.3-1.74-1.17l-.1-.12a5.79,5.79,0,0,0-9.81,0l-.09.1c-.75.89-1.08,1.19-1.75,1.19s-1-.32-1.85-1.29c-.12-.15-.25-.3-.4-.46a5.74,5.74,0,0,0-4.5-2.25A6.14,6.14,0,0,0,57,97.79c-.82,1-1.15,1.29-1.85,1.29s-1-.32-1.84-1.29a6.16,6.16,0,0,0-4.91-2.71v4C49.07,99.08,49.4,99.39,50.22,100.37Z"/><rect x="66.37" y="114.43" width="4" height="5.87"/><rect x="73.37" y="114.43" width="4" height="5.87"/><rect x="80.37" y="114.43" width="4" height="5.87"/><rect x="66.37" y="124.21" width="4" height="5.87"/><rect x="73.37" y="124.21" width="4" height="5.87"/><rect x="80.37" y="124.21" width="4" height="5.87"/></svg>