<svg id="Mu" xmlns="http://www.w3.org/2000/svg" viewBox="0 0 150 150"><title>Mu cosmogonic diagram-bold</title><path d="M99.47,129,90.91,59.08l.46-.46c1.1-1.09.49-3.1-.37-4.68l.39,0a5.8,5.8,0,0,0,2.41-.44A2.06,2.06,0,0,0,95,52.32l1.35-3.8c.56-1.58-1.12-3.25-2.69-4.28,1.57-1,3.25-2.69,2.69-4.28L95,36.16A2.12,2.12,0,0,0,93.8,35a6.15,6.15,0,0,0-2.6-.43C92,33,92.58,31,91.51,30l-2.83-2.82a2.15,2.15,0,0,0-1.56-.56,6.39,6.39,0,0,0-2.78.89c0-1.63-.32-3.32-1.6-3.79L79,22.32a2,2,0,0,0-1.63.13A7.08,7.08,0,0,0,74.81,25a7.16,7.16,0,0,0-2.58-2.56,2.07,2.07,0,0,0-1.64-.13l-3.72,1.37c-1.15.42-1.55,1.82-1.6,3.28a5.75,5.75,0,0,0-2.36-.68,2.09,2.09,0,0,0-1.56.57l-2.83,2.82c-1.15,1.14-.44,3.28.49,4.88a6.81,6.81,0,0,0-3.2.4,2.15,2.15,0,0,0-1.17,1.2L53.29,40c-.56,1.59,1.13,3.26,2.7,4.28-1.57,1-3.26,2.7-2.7,4.28l1.35,3.8a2.1,2.1,0,0,0,1.17,1.2,5.81,5.81,0,0,0,2.42.44c.23,0,.47,0,.7,0-1,1.61-1.72,3.82-.55,5l.52.52L50.39,129Zm-31.15-8,3-54.76a2.31,2.31,0,0,0,.88-.22,5.46,5.46,0,0,0,1.15-.82V121ZM62.15,52.31h8l4,7.11A14.93,14.93,0,0,1,62.15,52.31Zm5.2-5,1.15,2H66.21Zm-1.14-8.12H68.5l-1.15,2Zm11.46,0,2.87,5.07-2.87,5.07H71.94l-2.86-5.07,2.86-5.07Zm-4-3,1.17-2.05L76,36.17ZM76,52.31l-1.16,2.06-1.17-2.06Zm3.45,0h8A14.92,14.92,0,0,1,75.4,59.42Zm2.84-5,1.15,2H81.12Zm-1.14-8.12h2.29l-1.15,2ZM76.39,121V65.35a4.43,4.43,0,0,0,1,.69,2.45,2.45,0,0,0,1,.24l.2,0,3,54.76Zm8.24,0L81.54,65.24l1.2-.45a2,2,0,0,0,.75-.51L90.43,121Zm5.17-76.9A15.61,15.61,0,0,1,88,51.37l-4-7.13L88.08,37A15.55,15.55,0,0,1,89.8,44.12Zm-2.19-7.95H79.42l-4.17-7.36A14.94,14.94,0,0,1,87.61,36.17ZM74.36,28.81l-4.17,7.36H62A14.94,14.94,0,0,1,74.36,28.81ZM61.53,37l4.1,7.23-4,7.13A15.57,15.57,0,0,1,61.53,37Zm4.81,27.47a1.76,1.76,0,0,0,.53.31l1.53.57L65.32,121h-5.9Z"/></svg>