<svg id="Mu" xmlns="http://www.w3.org/2000/svg" viewBox="0 0 150 150"><title>Destruction of Mu-bold</title><path d="M75.74,17.67a58,58,0,0,0-40.92,99c.47.46,1.1,1,1.84,1.68,3.27,2.91,9.35,8.32,9.1,13.13l4,.2c.35-6.73-6.41-12.73-10.45-16.32-.68-.61-1.28-1.14-1.66-1.53a54,54,0,1,1,76.21,0,37.47,37.47,0,0,1-3.6,3.19c-4.31,3.54-9.67,7.94-8.51,14.91l4-.66c-.78-4.68,3.23-8,7.1-11.15a42.51,42.51,0,0,0,3.93-3.5,58,58,0,0,0-41-98.95Z"/><path d="M126.38,75.63a50.64,50.64,0,1,0-50.64,50.64A50.69,50.69,0,0,0,126.38,75.63ZM75.74,118.27a42.64,42.64,0,1,1,42.64-42.64A42.68,42.68,0,0,1,75.74,118.27Z"/><path d="M73,95.42a9.35,9.35,0,1,0-9.35-9.35A9.35,9.35,0,0,0,73,95.42Zm0-14.7a5.35,5.35,0,1,1-5.35,5.35A5.36,5.36,0,0,1,73,80.72Z"/><circle cx="52.05" cy="54.75" r="3.5"/><circle cx="45.99" cy="83.13" r="3.5"/><circle cx="105.24" cy="67.13" r="3.5"/><circle cx="101.24" cy="92.13" r="3.5"/><path d="M73,88.54a2.48,2.48,0,1,0-2.47-2.47A2.47,2.47,0,0,0,73,88.54Z"/><path d="M75.45,48.37h-6c-2.81,0-5,1.8-5,4.1s2.19,4.1,5,4.1h1v-4h-1a2.28,2.28,0,0,1-.65-.1,2,2,0,0,1,.65-.1h6c2.8,0,5-1.8,5-4.1V44.78c0-2.3-2.2-4.1-5-4.1h-6a2,2,0,0,1-.65-.1,2.28,2.28,0,0,1,.65-.1h1v-4h-1c-2.81,0-5,1.8-5,4.1s2.19,4.1,5,4.1h6a1.71,1.71,0,0,1,1,.27V48.1A1.71,1.71,0,0,1,75.45,48.37Z"/><path d="M86.09,64.1a10.72,10.72,0,0,0,4,.78c5,0,9-3.61,10.65-6l.35-.57.07-.46c.52-3.61-.28-11.15-7.1-13.86-4.25-1.69-6.67-.45-7.74.44a4.8,4.8,0,0,0-1.63,4.63A5.13,5.13,0,0,0,88.33,53,3.84,3.84,0,0,0,92,52.49a3.75,3.75,0,0,0,1.31-3.08l-4,.22a.76.76,0,0,1,.54-.43.89.89,0,0,1-.39-.08,1.17,1.17,0,0,1-.89-.82.78.78,0,0,1,.27-.77c.5-.41,1.74-.58,3.71.21,4.83,1.91,4.78,7.49,4.65,9.17-1,1.24-4.81,5.4-9.68,3.47-2-.78-2.75-1.75-2.83-2.39a.78.78,0,0,1,.33-.75,1.16,1.16,0,0,1,1.21,0,1.45,1.45,0,0,1,.34.21.71.71,0,0,1-.08-.69l2.73,2.92a3.73,3.73,0,0,0,1.17-3.14,3.85,3.85,0,0,0-2.38-2.88,5.13,5.13,0,0,0-5.3.3,4.79,4.79,0,0,0-2,4.49C80.92,59.84,81.83,62.41,86.09,64.1Z"/><path d="M103.61,80A5.4,5.4,0,0,0,100,76a4.54,4.54,0,0,0-4.55,1l2.73,2.92a.54.54,0,0,1,.6-.12,1.44,1.44,0,0,1,.91,1c.09.45-.16.92-.72,1.4a3.34,3.34,0,0,1-3.4.68c-1.86-.66-3.34-2.69-3.85-5.31-.82-4.21-2.42-6.93-4.88-8.32s-5.69-1.38-9.75.1a14.63,14.63,0,0,1-12.26-1.08l-1.09,1.68-1.09,1.68a18.69,18.69,0,0,0,15.81,1.48c2.85-1,5-1.17,6.41-.38s2.34,2.62,2.93,5.61c.78,4,3.25,7.18,6.45,8.31a7.32,7.32,0,0,0,7.3-1.39A5.43,5.43,0,0,0,103.61,80Z"/><path d="M54.73,67.31c.69-.48,2.05-.53,3.93-.14,3.88.81,6.77.31,8.61-1.47A6.91,6.91,0,0,0,69,59.83l-3.94.67a3.08,3.08,0,0,1-.63,2.35c-.81.76-2.58.91-5,.41-3.07-.64-5.37-.39-7,.76-2.17,1.51-2.57,4.09-2.86,6a9.66,9.66,0,0,1-.45,2.08h-.22c-.94,0-2.17-.2-2.65-.92-.57-.88-.19-2.59.08-3.28l-3.7-1.52c-.17.42-1.6,4.12.27,7,.78,1.2,2.44,2.65,5.9,2.74H49c3.72,0,4.27-3.56,4.56-5.48C53.75,69.24,54,67.83,54.73,67.31Z"/><path d="M88.47,91.55c-2.59,0-7,.64-7.21,5.57-.15,3.38,1.52,4.84,2.53,5.41a5.06,5.06,0,0,0,5.21-.22A4.49,4.49,0,0,0,91.06,98l-4,.43a.49.49,0,0,1-.28.52,1.07,1.07,0,0,1-1,.1c-.36-.21-.55-.86-.51-1.76s.29-1.78,3.15-1.75c1.28,0,2.87,1.39,3.49,3,1.46,3.84-1.56,8.16-1.55,8.16a3.4,3.4,0,0,1-2.8,1.2,6.55,6.55,0,0,1-3.47-1.07l-4-2.56c.07-1.44.11-3,.11-4.84h-4c0,1.9-.06,3.61-.16,5.14a5.9,5.9,0,0,0-.58.44c-.12-1.63-.19-3.49-.19-5.58h-4a72.85,72.85,0,0,0,.48,9.22,3.2,3.2,0,0,1-1.79.89c-1,0-1.52-.24-1.66-.46s-.21-1.09.37-2.43a11.7,11.7,0,0,0,.89-5.84A8.62,8.62,0,0,0,65.28,94a7.64,7.64,0,0,0-9.19,1.17c-2.59,2.55-2.91,4.94-2.72,6.49a8.14,8.14,0,0,0,3.79,5.61,5.62,5.62,0,0,0,6.33-.81,4.73,4.73,0,0,0,1.16-5.69,3.29,3.29,0,0,0-2-1.89,4.83,4.83,0,0,0-3.7.61L61,102.91l.14-.07a.65.65,0,0,1-.27.61,1.84,1.84,0,0,1-1.63.38,4.26,4.26,0,0,1-1.88-2.65c-.12-1,.41-2,1.56-3.18a3.66,3.66,0,0,1,4.46-.5,4.64,4.64,0,0,1,2.23,3.7,7.77,7.77,0,0,1-.59,3.87c-1.35,3.16-.76,5.14,0,6.24a5.62,5.62,0,0,0,4.9,2.24H70a6,6,0,0,0,2.57-.68c1.07,3.4,2.5,3.41,3.14,3.41.85,0,3,0,4-7.49l2.2,1.41a10.44,10.44,0,0,0,5.69,1.71,7.38,7.38,0,0,0,5.92-2.79c.18-.24,4.35-6.1,2.1-12C94.59,94.39,91.79,91.59,88.47,91.55Z"/></svg>