<svg id="Mu" xmlns="http://www.w3.org/2000/svg" viewBox="0 0 150 150"><title>Earth&amp;apos;s center Mu symbol-bold</title><path d="M130.37,20.08h-110v110h110Zm-8,102h-94v-94h94Z"/><rect x="46.9" y="53.61" width="4" height="20.51" transform="translate(-28.98 83.99) rotate(-67.05)"/><rect x="99.54" y="75.58" width="4" height="21.16" transform="translate(-17.39 146.07) rotate(-67.05)"/><rect x="76.33" y="46.61" width="20.51" height="4" transform="translate(8.07 109.39) rotate(-67.05)"/><rect x="53.71" y="99.25" width="21.16" height="4" transform="translate(-54.01 120.98) rotate(-67.05)"/><polygon points="80.2 73.08 104.37 48.91 101.54 46.09 77.38 70.25 77.38 36.08 73.38 36.08 73.38 70.25 49.21 46.09 46.38 48.91 70.55 73.08 36.38 73.08 36.38 77.08 70.55 77.08 46.38 101.24 49.21 104.07 73.38 79.91 73.38 114.08 77.38 114.08 77.38 79.91 101.54 104.07 104.37 101.24 80.2 77.08 114.38 77.08 114.38 73.08 80.2 73.08"/></svg>