<svg id="Mu" xmlns="http://www.w3.org/2000/svg" viewBox="0 0 150 150"><title>First man-woman Mu symbol-bold</title><path d="M123.94,36.06A4.87,4.87,0,0,0,115.5,32a56.35,56.35,0,0,1-12.1,9.9,6.42,6.42,0,0,0,.68-2.9,6.61,6.61,0,1,0-7.16,6.58c-3.36,1.74-6.41,3-8.66,3.95a17.4,17.4,0,0,0-3.35-5.25,14.33,14.33,0,0,0,4.86-10.74c0-.17,0-.32,0-.49,2.65-1.13,7.75-2.68,15.94-4.24a2.43,2.43,0,0,0,.56-4.59c-7.55-3.54-15.85-1.92-20.39-.51a14.31,14.31,0,0,0-21,0c-4.51-1.41-12.9-3.11-20.54.47a2.43,2.43,0,0,0,.56,4.59C53.3,30.43,58.45,32,61,33.15c0,.13,0,.26,0,.4a14.32,14.32,0,0,0,4.85,10.74,17.48,17.48,0,0,0-3.37,5.32c-2.27-.9-5.38-2.23-8.82-4A6.61,6.61,0,1,0,46.86,39a6.52,6.52,0,0,0,.86,3.25A57.19,57.19,0,0,1,35.08,32a4.87,4.87,0,0,0-8.44,4.06c1.31,7.51,8,31.79,38.88,33.66.22.25.44.5.68.73a17,17,0,0,0-2.49,3.22,107.64,107.64,0,0,0-18.25-3.86c-5.7-.68-9.9-.6-12.83.26-4.8,1.4-5.89,4.7-6.11,6.53s.06,5.3,4.39,7.8c2.66,1.52,6.72,2.6,12.41,3.28,1.89.22,3.89.39,5.91.52-1.38.43-2.73.88-4,1.35-4.63,1.68-16.92,6.14-13.85,14.6,1.39,3.81,4.65,5,8.23,5,4.37,0,9.22-1.76,11.77-2.68a109.07,109.07,0,0,0,16.79-7.86,12.24,12.24,0,0,0,14.27.15A109,109,0,0,0,99,106.48c2.54.92,7.39,2.68,11.76,2.68,3.59,0,6.84-1.19,8.23-5,3.07-8.46-9.22-12.92-13.85-14.6-1.33-.49-2.73-1-4.15-1.4,1.81-.12,3.6-.27,5.3-.47C112,87,116,85.93,118.67,84.41c4.33-2.5,4.61-6,4.39-7.8C122,67.68,109,69.23,104.12,69.82a108.85,108.85,0,0,0-17.25,3.55,16.42,16.42,0,0,0-2.29-2.91c.24-.24.46-.49.68-.75C116,67.75,122.63,43.56,123.94,36.06ZM94.86,39a2.61,2.61,0,1,1,2.61,2.61A2.62,2.62,0,0,1,94.86,39ZM53.47,36.39A2.62,2.62,0,1,1,50.86,39,2.62,2.62,0,0,1,53.47,36.39Zm58.87,9.13c-3.6,6.68-10.36,13.61-23,15.7a20.12,20.12,0,0,0,.39-3.67A98,98,0,0,0,112.34,45.52ZM98.53,26.24A65.4,65.4,0,0,0,89,29.05a13.61,13.61,0,0,0-.77-1.85A29,29,0,0,1,98.53,26.24Zm-46.48,0a29.06,29.06,0,0,1,10.43,1,13.35,13.35,0,0,0-.77,1.87A63.13,63.13,0,0,0,52.05,26.24Zm17,7.31a6.38,6.38,0,1,1,6.38,6.38A6.38,6.38,0,0,1,69,33.55ZM81.77,57.19c0,5-2.92,9.27-6.38,9.27S69,62.22,69,57.19s2.92-9.26,6.38-9.26S81.77,52.17,81.77,57.19ZM38.24,45.52A98.65,98.65,0,0,0,61,57.63a21.34,21.34,0,0,0,.4,3.62C48.67,59.21,41.86,52.24,38.24,45.52Zm6,34.23c-5.35-.64-7.88-1.52-9-2.09,1.26-.29,3.93-.54,9.28.1A103.37,103.37,0,0,1,58.2,80.41,104.79,104.79,0,0,1,44.27,79.75ZM48.62,99c-5.06,1.84-7.71,2.2-9,2.21,1-.83,3.27-2.25,8.33-4.09a103.54,103.54,0,0,1,13.41-3.81A103.89,103.89,0,0,1,48.62,99Zm53.76-1.88c5.07,1.84,7.33,3.26,8.33,4.09-1.29,0-3.95-.37-9-2.21A105.26,105.26,0,0,1,89,93.27,102.65,102.65,0,0,1,102.38,97.08Zm2.69-19.32c5.35-.64,8-.39,9.28-.1-1.16.57-3.69,1.45-9,2.09a104.79,104.79,0,0,1-13.93.66A103.37,103.37,0,0,1,105.07,77.76Zm-23.3,6c0,5-2.92,9.26-6.38,9.26S69,88.75,69,83.73s2.92-9.27,6.38-9.27S81.77,78.7,81.77,83.73Z"/><path d="M74.82,32.3a2.23,2.23,0,1,0-2.22,2.22A2.22,2.22,0,0,0,74.82,32.3Z"/><circle cx="78.15" cy="32.3" r="2.22"/><path d="M73,35.81a2,2,0,0,0-.06.49,2.22,2.22,0,0,0,4.44,0,2.63,2.63,0,0,0-.05-.49Z"/><path d="M87.79,112.64c-.13,0-.55-.25-.78-.94a12.51,12.51,0,0,0-23.72,0c-.23.69-.62.93-.78.94-4.76-.44-16.18.39-19.19,17.44l7.88,1.39c1.38-7.83,4.85-11.38,10.59-10.86a8.91,8.91,0,0,0,9.09-6.38,4.15,4.15,0,0,1,4-3.08h0l.31,0,.31,0a4.12,4.12,0,0,1,4,3.08,8.94,8.94,0,0,0,9.09,6.38c5.76-.52,9.22,3,10.6,10.86l7.88-1.39C104,113,92.56,112.2,87.79,112.64Z"/></svg>