<svg id="Mu" xmlns="http://www.w3.org/2000/svg" viewBox="0 0 150 150"><title>God speaks Mu symbol-bold</title><path d="M74.41,64.92A10.08,10.08,0,1,0,84.49,75,10.09,10.09,0,0,0,74.41,64.92Zm0,16.16A6.08,6.08,0,1,1,80.49,75,6.09,6.09,0,0,1,74.41,81.08Z"/><path d="M110.65,86.1s-2.29-1.89-2.13-13.67a12.24,12.24,0,0,0-2.32-7.58c-1.79-2.41-5.33-5.21-12.12-5.72.74-3.21,1-5.77,1.08-6l.35-3-2.87.8c-.42.11-8.88,2.5-14,6.39-3.67-6.91-11.93-13.13-12.32-13.43l-2.2-1.64-.89,2.59c-.17.51-3.83,11.31-2.49,19C53.24,65.11,44,71.35,43.6,71.65l-2.15,1.47,2,1.7c.43.37,10.12,8.65,17.69,10A16.46,16.46,0,0,0,73.88,91.5,3.6,3.6,0,0,1,72.66,93c-2,1.48-6.11,1.22-11.44-.71-15-5.42-21.28,3.65-22.85,6.55a2.53,2.53,0,0,0,.17,2.72,2.56,2.56,0,0,0,2.54,1,54.49,54.49,0,0,1,23.41,1.56,24.22,24.22,0,0,0,6.47.89,15.52,15.52,0,0,0,9.72-3c3.87-3.07,5.66-8.24,5.37-15.35A16.49,16.49,0,0,0,90.94,75c0-.12,0-.24,0-.36,2.3.72,6.08,3,9,10,.94,2,3.76,5.49,8.21,5.49a8.87,8.87,0,0,0,1.66-.16,2.17,2.17,0,0,0,.9-3.86Zm-52-6.22a50.27,50.27,0,0,1-10.47-6.39,50.47,50.47,0,0,1,11.17-5.2,16.4,16.4,0,0,0-.7,11.59ZM66.14,49c2.45,2.1,6.31,5.74,8.53,9.51h-.26a16.41,16.41,0,0,0-9.93,3.35C64.15,57.72,65.19,52.5,66.14,49Zm12.07,50c-4.72,3.75-12.47,1.46-12.58,1.42a59.71,59.71,0,0,0-21.91-2.11c2.55-2.69,7.43-5.31,16.14-2.16,6.85,2.49,12,2.54,15.21.15a8.06,8.06,0,0,0,3.09-5.14,16.35,16.35,0,0,0,3.89-1.44C81.81,93.94,80.54,97.07,78.21,98.92Zm-3.8-11.39A12.53,12.53,0,1,1,86.94,75,12.54,12.54,0,0,1,74.41,87.53Zm7.17-27.4a41.08,41.08,0,0,1,9.12-4.34,41.87,41.87,0,0,1-2.86,9.61A16.65,16.65,0,0,0,81.58,60.13Zm22,22.91c-4.1-10-10.27-12.19-13.27-12.63-.08-.27-.18-.54-.27-.81a24.9,24.9,0,0,0,3-6.52c4.63.2,8.09,1.62,10,4.16a8.42,8.42,0,0,1,1.53,5.14c-.08,5.8.39,10.21,1.38,13.17A6.21,6.21,0,0,1,103.55,83Z"/><path d="M75,19.34a55.79,55.79,0,1,0,55.79,55.78A55.85,55.85,0,0,0,75,19.34Zm0,103.57a47.79,47.79,0,1,1,47.79-47.79A47.85,47.85,0,0,1,75,122.91Z"/></svg>