<svg id="Mu" xmlns="http://www.w3.org/2000/svg" viewBox="0 0 150 150"><title>Heat force Mu symbol-bold</title><path d="M89.6,104.08a15.87,15.87,0,0,0-.77-1.73,8.86,8.86,0,0,1-1.12-4,9,9,0,0,1,.56-4.13A14.27,14.27,0,0,0,87.5,83a9.06,9.06,0,0,1-1.13-4,8.88,8.88,0,0,1,.57-4.13,14.28,14.28,0,0,0-.77-11.19,8.85,8.85,0,0,1-1.13-4,9,9,0,0,1,.56-4.13,12.63,12.63,0,0,0,.8-4.27A18,18,0,1,0,66,52.39,13.16,13.16,0,0,1,65.25,54a12.79,12.79,0,0,0-1.53,5.51,12.77,12.77,0,0,0,.76,5.68,10.3,10.3,0,0,1-.56,8.14,14.17,14.17,0,0,0-.77,11.19,9,9,0,0,1,.56,4.13,8.85,8.85,0,0,1-1.13,4,14.3,14.3,0,0,0-.77,11.2c0,.07,0,.13.07.2H43.37v26h8v-18h47v18h8v-26Zm-24.23-67a10,10,0,1,1,10,10A10,10,0,0,1,65.37,37.08Zm.68,67c-.14-.54-.29-1-.45-1.47A9,9,0,0,1,65,98.48a8.85,8.85,0,0,1,1.13-4,14.28,14.28,0,0,0,.77-11.19,8.88,8.88,0,0,1-.57-4.13,9,9,0,0,1,1.13-4,14.28,14.28,0,0,0,.77-11.19,9,9,0,0,1-.56-4.13,8.86,8.86,0,0,1,1.12-4,16,16,0,0,0,.76-1.69,17.78,17.78,0,0,0,4.07.88c0,.1-.08.2-.13.3a13.64,13.64,0,0,0,0,11,9.68,9.68,0,0,1,0,7.89,13.67,13.67,0,0,0,0,11,9.71,9.71,0,0,1,0,7.9,13.66,13.66,0,0,0,0,11Zm11.75,0c-.18-.56-.39-1-.58-1.51a9.6,9.6,0,0,1,0-7.9,13.78,13.78,0,0,0,0-11,9.6,9.6,0,0,1,0-7.9,13.75,13.75,0,0,0,0-11,9.6,9.6,0,0,1,0-7.9,15.74,15.74,0,0,0,.71-2,17.45,17.45,0,0,0,4-1.06l-.15.46A12.82,12.82,0,0,0,81.05,60a12.79,12.79,0,0,0,1.53,5.51,9,9,0,0,1,1.13,4,8.88,8.88,0,0,1-.57,4.13,13.09,13.09,0,0,0-.76,5.68,12.86,12.86,0,0,0,1.54,5.51,10.33,10.33,0,0,1,.56,8.15,12.86,12.86,0,0,0-.77,5.67,13,13,0,0,0,1.51,5.47Z"/></svg>