<svg id="Mu" xmlns="http://www.w3.org/2000/svg" viewBox="0 0 150 150"><title>Light forces Mu symbol-bold</title><path d="M75.37,55.08a18,18,0,1,0-18-18A18,18,0,0,0,75.37,55.08Zm0-28a10,10,0,1,1-10,10A10,10,0,0,1,75.37,27.08Z"/><rect x="66.37" y="57.08" width="4" height="5.87"/><rect x="73.37" y="57.08" width="4" height="5.87"/><rect x="80.37" y="57.08" width="4" height="5.87"/><rect x="66.37" y="66.86" width="4" height="5.87"/><rect x="73.37" y="66.86" width="4" height="5.87"/><rect x="80.37" y="66.86" width="4" height="5.87"/><rect x="66.37" y="76.64" width="4" height="5.87"/><rect x="73.37" y="76.64" width="4" height="5.87"/><rect x="80.37" y="76.64" width="4" height="5.87"/><rect x="66.37" y="86.43" width="4" height="5.87"/><rect x="73.37" y="86.43" width="4" height="5.87"/><rect x="80.37" y="86.43" width="4" height="5.87"/><rect x="66.37" y="96.21" width="4" height="5.87"/><rect x="73.37" y="96.21" width="4" height="5.87"/><rect x="80.37" y="96.21" width="4" height="5.87"/><polygon points="43.38 104.08 43.38 130.08 51.38 130.08 51.38 112.08 98.38 112.08 98.38 130.08 106.38 130.08 106.38 104.08 43.38 104.08"/></svg>