<svg id="Mu" xmlns="http://www.w3.org/2000/svg" viewBox="0 0 150 150"><title>Mother of life Mu symbol-bold</title><path d="M114.75,48.07C105,38.83,90.88,34,76.11,34.85,53,35.42,34.89,53.13,34.89,75.2a40.36,40.36,0,0,0,64.62,32.23c7.13-5.39,11.68-13.27,13.9-24.11l-7.84-1.6c-1.81,8.84-5.37,15.16-10.88,19.32A32.35,32.35,0,0,1,42.89,75.2c0-17.71,14.71-31.92,33.48-32.35h.14c12.59-.73,24.53,3.3,32.75,11a34.66,34.66,0,0,1,11,25.46c0,25.16-18.5,42.73-45,42.73A47,47,0,0,1,42.37,41.64,45.7,45.7,0,0,1,75.24,28.31H91.6c2,2,5.63,3.27,9.78,3.27,6.31,0,11.42-3,11.42-6.75s-5.11-6.75-11.42-6.75a15.71,15.71,0,0,0-8.47,2.23H74.63A53.56,53.56,0,0,0,36.75,36a55,55,0,0,0,38.49,94.13c14.76,0,28.17-4.94,37.76-13.91,9.82-9.18,15.22-22.26,15.22-36.82A42.59,42.59,0,0,0,114.75,48.07Z"/><path d="M71.26,57.54c0-2.87-3.48-5.19-7.79-5.19s-7.78,2.32-7.78,5.19,3.48,5.19,7.78,5.19S71.26,60.41,71.26,57.54Z"/><path d="M45.3,75.19c0,2.87,3.49,5.2,7.79,5.2s7.79-2.33,7.79-5.2S57.39,70,53.09,70,45.3,72.33,45.3,75.19Z"/><path d="M64.51,97c4.3,0,7.79-2.32,7.79-5.19s-3.49-5.19-7.79-5.19-7.79,2.32-7.79,5.19S60.21,97,64.51,97Z"/><path d="M79.05,80.39c4.3,0,7.79-2.33,7.79-5.2S83.35,70,79.05,70s-7.79,2.33-7.79,5.19S74.75,80.39,79.05,80.39Z"/><path d="M87.36,97c4.3,0,7.79-2.32,7.79-5.19s-3.49-5.19-7.79-5.19-7.79,2.32-7.79,5.19S83.06,97,87.36,97Z"/><ellipse cx="86.32" cy="55.46" rx="7.79" ry="5.19"/><ellipse cx="103.97" cy="67.92" rx="7.79" ry="5.19"/></svg>