<svg id="Mu" xmlns="http://www.w3.org/2000/svg" viewBox="0 0 150 150"><title>Sun forces Mu symbol-bold</title><path d="M75.37,55.08a18,18,0,1,0-18-18A18,18,0,0,0,75.37,55.08Zm0-28a10,10,0,1,1-10,10A10,10,0,0,1,75.37,27.08Z"/><rect x="66.37" y="57.08" width="4" height="5.87"/><rect x="73.37" y="57.08" width="4" height="5.87"/><rect x="80.37" y="57.08" width="4" height="5.87"/><rect x="66.37" y="66.86" width="4" height="5.87"/><rect x="73.37" y="66.86" width="4" height="5.87"/><rect x="80.37" y="66.86" width="4" height="5.87"/><rect x="66.37" y="76.64" width="4" height="5.87"/><rect x="73.37" y="76.64" width="4" height="5.87"/><rect x="80.37" y="76.64" width="4" height="5.87"/><rect x="66.37" y="86.43" width="4" height="5.87"/><rect x="73.37" y="86.43" width="4" height="5.87"/><rect x="80.37" y="86.43" width="4" height="5.87"/><rect x="66.37" y="96.21" width="4" height="5.87"/><rect x="73.37" y="96.21" width="4" height="5.87"/><rect x="80.37" y="96.21" width="4" height="5.87"/><rect x="66.37" y="114.43" width="4" height="5.87"/><rect x="73.37" y="114.43" width="4" height="5.87"/><rect x="80.37" y="114.43" width="4" height="5.87"/><rect x="66.37" y="124.21" width="4" height="5.87"/><rect x="73.37" y="124.21" width="4" height="5.87"/><rect x="80.37" y="124.21" width="4" height="5.87"/><path d="M115.15,90.89,112,88.47a10.72,10.72,0,0,1-6.92,3.67,37.12,37.12,0,0,0,.59-4.2l.65-.19A13.93,13.93,0,0,0,114,80.91l-3.64-1.67a10.19,10.19,0,0,1-4.6,4.44A29.7,29.7,0,0,0,104,74.33l-3.71,1.5a26.51,26.51,0,0,1,1.42,8.56,15.83,15.83,0,0,1-6.62-2.07L93.2,85.84a19.73,19.73,0,0,0,8.33,2.55,30.9,30.9,0,0,1-.55,3.46,20.07,20.07,0,0,1-6.85-3.36L91.8,91.75a24.06,24.06,0,0,0,8.12,4,36.92,36.92,0,0,1-4.14,8.38H54.73a37,37,0,0,1-4.15-8.38,24.12,24.12,0,0,0,8.14-4l-2.33-3.26a19.62,19.62,0,0,1-6.9,3.34c-.25-1.19-.43-2.34-.55-3.44a19.65,19.65,0,0,0,8.38-2.55l-1.89-3.52a15.83,15.83,0,0,1-6.67,2.07,26.46,26.46,0,0,1,1.47-8.57l-3.71-1.49a29.7,29.7,0,0,0-1.73,9.35,10.19,10.19,0,0,1-4.6-4.44l-3.64,1.67a13.93,13.93,0,0,0,7.68,6.84l.65.19a36.53,36.53,0,0,0,.58,4.17,10.53,10.53,0,0,1-6.91-3.64l-3.19,2.42a15.09,15.09,0,0,0,11.16,5.3A40.06,40.06,0,0,0,50,104.08H43.37v26h8v-18h47v18h8v-26h-5.88A40.06,40.06,0,0,0,104,96.19,15.06,15.06,0,0,0,115.15,90.89Z"/></svg>