<svg id="Mu" xmlns="http://www.w3.org/2000/svg" viewBox="0 0 150 150"><title>Tree of Life and the Serpent Mu symbol-bold</title><path d="M104.55,35.68l-3.92.8c0,.16,3,14.92-3,25.59C95.16,60.58,93.27,56,92.22,49a89.17,89.17,0,0,1-.85-12.86l-4-.08c-.06,2.58-.25,23.89,7.94,29.31-4,4.77-10,7.36-17.95,7.69v-13l-.8-.6a32,32,0,0,1-5.42-5.67,18.57,18.57,0,0,0,9.73-7.72c6.57-10.48,2.6-25.87,2.43-26.52l-3.87,1c0,.14,3.71,14.35-2,23.38a15,15,0,0,1-8.62,6.39A24,24,0,0,1,66.3,31.61l-3.85-1.07C57.82,47.2,70.06,59.15,73.37,62V73c-7.88-.38-13.88-3-17.86-7.82,7.67-4.59,5-17,4.81-17.58l-3.9.89c0,.11,2.23,10.2-3.16,13.35-5.82-10.64-3-25.23-2.93-25.39l-3.91-.8c-.17.8-3.94,19.88,5.92,32,4.76,5.84,11.83,9,21,9.38v5.84c-.68-.19-1.36-.38-2-.59A7,7,0,0,0,64.05,79c-4.68,1-8.57,2.31-9.6,4.4-1.36,2.73,4,3,8.92,3.64l.21,0c2.33,2.08,6.16,3.12,9.79,4v5.17c-6.14,1.73-12,3.78-12,9.26s5.76,7.44,12,9.06v5c-5.67,1.16-11.85,3.47-12,10.36l8,.17c0-1.07,1.78-1.8,4-2.35v2.27h4V127l1.16-.18c5.8-.93,14.56-2.33,13.83-10.14-.54-5.74-7.69-7.51-14.61-9.23l-.38-.09V103.5c6.56-1.81,13.86-3.9,13-10.23-.82-5.83-7.23-7.9-13-9.37V77c9.31-.35,16.45-3.5,21.25-9.39C108.48,55.56,104.71,36.48,104.55,35.68Zm-20.9,81.91a38.71,38.71,0,0,1-6.28,1.34v-3.29A42.08,42.08,0,0,1,83.65,117.59ZM70.86,105.52c.73-.29,1.61-.59,2.51-.87v1.68C72.46,106.07,71.59,105.8,70.86,105.52ZM81.62,93.74a36.56,36.56,0,0,1-4.25,1.45v-3A23.2,23.2,0,0,1,81.62,93.74Z"/></svg>