<svg id="Mu" xmlns="http://www.w3.org/2000/svg" viewBox="0 0 150 150"><title>Universe Mu symbol-bold</title><path d="M75.12,19.2a56,56,0,1,0,56,56A56.07,56.07,0,0,0,75.12,19.2Zm48,54.79h-64a2.87,2.87,0,0,0,1.47-3.2c-.47-1.43-2.29-2.12-4.08-1.53A3.72,3.72,0,0,0,54.31,71l-3.67.8a25.93,25.93,0,0,1,.19-3l4.85-2.2a3.66,3.66,0,0,0,3.1-.45,4.07,4.07,0,0,0,1-.9h62.28A47.45,47.45,0,0,1,123.09,74ZM54.9,74H50.74a.57.57,0,0,1,0-.13l3.48-.75A2.28,2.28,0,0,0,54.9,74Zm66.72-10.74H60.55A2.23,2.23,0,0,0,60.22,62c-.8-1.27-2.73-1.5-4.32-.5a3.85,3.85,0,0,0-1.51,1.71,2.7,2.7,0,0,0-.18,1.82l-.39.18L51.2,66.44c.07-.39.16-.79.25-1.19.15-.65.32-1.31.52-2s.44-1.51.71-2.31a5,5,0,0,0,3.59-4,5.83,5.83,0,0,0,.14-1.49h62.46A49,49,0,0,1,121.62,63.25Zm-46.5-36A47.72,47.72,0,0,1,99.63,34h-49A47.71,47.71,0,0,1,75.12,27.2ZM47.55,36H102.7a48.54,48.54,0,0,1,8.61,7.77H38.94A48.2,48.2,0,0,1,47.55,36ZM37.29,45.72H113a48.18,48.18,0,0,1,5,7.76H56a3.65,3.65,0,0,0-2.5-2.27,4.13,4.13,0,0,0-4.35,2.27H32.34A47.5,47.5,0,0,1,37.29,45.72Zm-5.91,9.76H48.43a5.49,5.49,0,0,0,.6,3.75c-.46,1.37-.86,2.71-1.19,4-.17.67-.32,1.34-.46,2-.06.32-.11.64-.17,1l-.87-.83a.75.75,0,0,0,.06-.13,2.63,2.63,0,0,0-.11-2,3.85,3.85,0,0,0-1.51-1.71c-1.59-1-3.53-.77-4.32.5a2.23,2.23,0,0,0-.33,1.21H28.63A48.06,48.06,0,0,1,31.38,55.48Zm-3.21,9.77h12.7a4.3,4.3,0,0,0,1,.9,3.72,3.72,0,0,0,2.88.51l2.07,2c-.11,1-.17,2-.18,3l-1.12-.29A3.55,3.55,0,0,0,43,69.19c-1.83-.42-3.59.43-3.92,1.89A2.77,2.77,0,0,0,40.49,74H27.16A47.45,47.45,0,0,1,28.17,65.25ZM46.74,74H44.69a2.36,2.36,0,0,0,.63-.67l1.4.36C46.73,73.78,46.73,73.89,46.74,74Zm-19.6,2H47a17.43,17.43,0,0,0,.52,2.24l-1.51.6a3.5,3.5,0,0,0-3.35-.72c-1.82.48-3,2-2.59,3.5s2.16,2.24,4,1.76a3.4,3.4,0,0,0,2.63-2.65l1.56-.62a13.3,13.3,0,0,0,1,1.9,10.9,10.9,0,0,0,3.19,3.16H28.17A48.59,48.59,0,0,1,27.14,76Zm48,47.21a47.71,47.71,0,0,1-24.5-6.75h49A47.72,47.72,0,0,1,75.12,123.2Zm27.58-8.75H47.55a47.77,47.77,0,0,1-8.61-7.76h72.37A48.11,48.11,0,0,1,102.7,114.45ZM113,104.69H37.29a47.59,47.59,0,0,1-4.95-7.77h85.57A48.27,48.27,0,0,1,113,104.69Zm5.91-9.77H31.38a47.61,47.61,0,0,1-2.75-7.76h93A48.57,48.57,0,0,1,118.87,94.92ZM62.3,85.16A17.33,17.33,0,0,0,64.94,83c1.52-1.43,2.62-2.46,5-2.46s3.51,1,5,2.46a16.86,16.86,0,0,0,2.64,2.12Zm25.6,0A17.33,17.33,0,0,0,90.54,83c1.52-1.43,2.62-2.46,5-2.46s3.51,1,5,2.46a17.33,17.33,0,0,0,2.64,2.12Zm20.47,0V82.58c-2.41,0-3.51-1-5-2.46-1.68-1.58-3.78-3.54-7.77-3.54s-6.09,2-7.77,3.54c-1.52,1.43-2.62,2.46-5,2.46s-3.51-1-5-2.46C76.05,78.54,74,76.58,70,76.58s-6.09,2-7.77,3.54c-1.52,1.43-2.62,2.46-5,2.46a5.65,5.65,0,0,1-4.57-2.79c-.14-.23-.31-.51-.47-.82l1,.2a3.68,3.68,0,0,0,2,2.15c1.71.77,3.59.28,4.21-1.09s-.28-3.1-2-3.87a3.22,3.22,0,0,0-4.05.82l-2.13-.41c-.07-.25-.14-.51-.2-.78h72a47.78,47.78,0,0,1-1,9.17Z"/></svg>