<svg id="Mu" xmlns="http://www.w3.org/2000/svg" viewBox="0 0 150 150"><title>Water Mu symbol-bold</title><path d="M129.37,55.08a15.74,15.74,0,0,1-9-2.51,25.33,25.33,0,0,0-25.66,0,15.74,15.74,0,0,1-9,2.51,15.74,15.74,0,0,1-9-2.51A23.49,23.49,0,0,0,64,49.08a23.49,23.49,0,0,0-12.83,3.49,15.74,15.74,0,0,1-9,2.51,15.74,15.74,0,0,1-9-2.51,23.46,23.46,0,0,0-12.83-3.49v8a15.72,15.72,0,0,1,9,2.5,23.4,23.4,0,0,0,12.83,3.5A23.4,23.4,0,0,0,55,59.58a15.74,15.74,0,0,1,9-2.5,15.74,15.74,0,0,1,9,2.5,23.4,23.4,0,0,0,12.83,3.5,23.4,23.4,0,0,0,12.83-3.5,17.34,17.34,0,0,1,17.94,0,23.42,23.42,0,0,0,12.83,3.5Z"/><path d="M129.37,68.08a15.74,15.74,0,0,1-9-2.51,25.33,25.33,0,0,0-25.66,0,15.74,15.74,0,0,1-9,2.51,15.74,15.74,0,0,1-9-2.51A23.49,23.49,0,0,0,64,62.08a23.49,23.49,0,0,0-12.83,3.49,15.74,15.74,0,0,1-9,2.51,15.74,15.74,0,0,1-9-2.51,23.46,23.46,0,0,0-12.83-3.49v8a15.72,15.72,0,0,1,9,2.5,23.4,23.4,0,0,0,12.83,3.5A23.4,23.4,0,0,0,55,72.58a15.74,15.74,0,0,1,9-2.5,15.74,15.74,0,0,1,9,2.5,23.4,23.4,0,0,0,12.83,3.5,23.4,23.4,0,0,0,12.83-3.5,17.34,17.34,0,0,1,17.94,0,23.42,23.42,0,0,0,12.83,3.5Z"/><path d="M129.37,81.08a15.74,15.74,0,0,1-9-2.51,25.33,25.33,0,0,0-25.66,0,15.74,15.74,0,0,1-9,2.51,15.74,15.74,0,0,1-9-2.51A23.49,23.49,0,0,0,64,75.08a23.49,23.49,0,0,0-12.83,3.49,15.74,15.74,0,0,1-9,2.51,15.74,15.74,0,0,1-9-2.51,23.46,23.46,0,0,0-12.83-3.49v8a15.72,15.72,0,0,1,9,2.5,23.4,23.4,0,0,0,12.83,3.5A23.4,23.4,0,0,0,55,85.58a15.74,15.74,0,0,1,9-2.5,15.74,15.74,0,0,1,9,2.5,23.4,23.4,0,0,0,12.83,3.5,23.4,23.4,0,0,0,12.83-3.5,17.34,17.34,0,0,1,17.94,0,23.42,23.42,0,0,0,12.83,3.5Z"/><path d="M94.74,91.57a15.74,15.74,0,0,1-9,2.51,15.74,15.74,0,0,1-9-2.51A23.49,23.49,0,0,0,64,88.08a23.49,23.49,0,0,0-12.83,3.49,15.74,15.74,0,0,1-9,2.51,15.74,15.74,0,0,1-9-2.51,23.46,23.46,0,0,0-12.83-3.49v8a15.72,15.72,0,0,1,9,2.5,23.4,23.4,0,0,0,12.83,3.5A23.4,23.4,0,0,0,55,98.58a15.74,15.74,0,0,1,9-2.5,15.74,15.74,0,0,1,9,2.5,23.4,23.4,0,0,0,12.83,3.5,23.4,23.4,0,0,0,12.83-3.5,17.34,17.34,0,0,1,17.94,0,23.42,23.42,0,0,0,12.83,3.5v-8a15.74,15.74,0,0,1-9-2.51,25.33,25.33,0,0,0-25.66,0Z"/></svg>